<?xml version="1.0" encoding="UTF-8"?>
<svg version="1.1" xmlns="http://www.w3.org/2000/svg" width="28" height="28">
<path d="M0,0 L28,0 L28,28 L0,28 Z " fill="#010101" transform="translate(0,0)"/>
<path d="M0,0 L3,0 L1,5 L-3,9 L-3,15 L-8,19 L-12,20 L-13,16 L-10,12 L-8,12 L-10,17 L-6,14 L-5,11 L-7,11 L-7,9 L-5,9 L-4,5 L-7,6 L-8,4 L-5,2 L0,2 Z " fill="#D8D8D8" transform="translate(20,5)"/>
<path d="M0,0 L2,1 L-1,5 L-3,5 L-3,7 L-1,7 L-2,11 L-7,14 L-5,8 L-5,1 Z " fill="#5B5B5B" transform="translate(16,9)"/>
<path d="M0,0 L2,0 L0,4 L-1,6 L1,7 L-3,7 L-2,3 Z " fill="#F1F1F1" transform="translate(10,17)"/>
</svg>
