<?xml version="1.0" encoding="UTF-8"?>
<svg version="1.1" xmlns="http://www.w3.org/2000/svg" width="28" height="28">
<path d="M0,0 L28,0 L28,28 L0,28 Z " fill="#020202" transform="translate(0,0)"/>
<path d="M0,0 L5,1 L6,6 L1,11 L-1,18 L-3,20 L-7,19 L-6,14 L-4,12 L-3,3 Z " fill="#EAEAEA" transform="translate(15,4)"/>
<path d="M0,0 L4,1 L3,5 L-1,7 L-2,2 Z " fill="#0E0E0E" transform="translate(15,6)"/>
<path d="M0,0 L2,4 L-1,7 L-5,6 L-4,2 L-2,3 L-2,1 Z " fill="#8A8A8A" transform="translate(13,17)"/>
<path d="M0,0 L5,1 L3,3 L-1,4 L-2,11 L-3,11 L-3,3 Z " fill="#CCCCCC" transform="translate(15,4)"/>
</svg>
