<?xml version="1.0" encoding="UTF-8"?>
<svg version="1.1" xmlns="http://www.w3.org/2000/svg" width="28" height="28">
<path d="M0,0 L28,0 L28,28 L0,28 Z " fill="#020202" transform="translate(0,0)"/>
<path d="M0,0 L4,1 L5,2 L5,7 L4,12 L3,17 L-1,20 L-5,18 L-6,13 L-4,10 L-6,6 Z " fill="#DFDFDF" transform="translate(15,5)"/>
<path d="M0,0 L2,0 L2,2 L8,3 L7,8 L3,11 L-1,9 L-2,4 Z " fill="#C8C8C8" transform="translate(11,14)"/>
<path d="M0,0 L2,0 L1,4 L7,4 L6,8 L2,7 L2,5 L-2,4 Z " fill="#F4F4F4" transform="translate(11,9)"/>
<path d="M0,0 L3,0 L2,5 L-3,4 L-2,1 Z " fill="#111111" transform="translate(14,17)"/>
<path d="M0,0 L3,0 L3,3 L-3,4 L-2,1 Z " fill="#222222" transform="translate(15,9)"/>
</svg>
