<?xml version="1.0" encoding="UTF-8"?>
<svg version="1.1" xmlns="http://www.w3.org/2000/svg" width="28" height="28">
<path d="M0,0 L28,0 L28,28 L0,28 Z " fill="#020202" transform="translate(0,0)"/>
<path d="M0,0 L6,0 L8,5 L4,9 L4,16 L1,20 L-4,20 L-6,18 L-5,13 L-2,10 L-3,3 Z " fill="#E7E7E7" transform="translate(14,5)"/>
<path d="M0,0 L6,0 L7,4 L3,7 L-1,6 L-3,5 L-1,1 Z " fill="#D4D4D4" transform="translate(14,5)"/>
<path d="M0,0 L2,0 L1,5 L-1,7 L-6,7 L-6,4 L-2,4 Z " fill="#EEEEEE" transform="translate(16,18)"/>
<path d="M0,0 L3,1 L1,6 L-3,6 L-1,2 Z " fill="#1B1B1B" transform="translate(13,17)"/>
<path d="M0,0 L2,0 L3,3 L1,5 L-2,5 L-2,1 Z " fill="#191919" transform="translate(16,7)"/>
</svg>
