<?xml version="1.0" encoding="UTF-8"?>
<svg version="1.1" xmlns="http://www.w3.org/2000/svg" width="28" height="28">
<path d="M0,0 L28,0 L28,28 L0,28 Z " fill="#010101" transform="translate(0,0)"/>
<path d="M0,0 L5,1 L5,3 L7,4 L5,8 L5,6 L3,7 L5,12 L7,16 L6,20 L2,18 L0,14 L4,16 L2,13 L2,10 L0,10 L-4,5 L-3,1 Z " fill="#E2E2E2" transform="translate(12,6)"/>
<path d="M0,0 L3,1 L5,5 L4,9 L0,7 L-2,3 L2,5 Z " fill="#D5D5D5" transform="translate(14,17)"/>
<path d="M0,0 L6,2 L4,6 L0,5 L-1,2 Z " fill="#767676" transform="translate(9,7)"/>
<path d="M0,0 L1,2 L3,2 L5,8 L0,7 Z " fill="#595959" transform="translate(11,14)"/>
</svg>
