<?xml version="1.0" encoding="UTF-8"?>
<svg version="1.1" xmlns="http://www.w3.org/2000/svg" width="28" height="28">
<path d="M0,0 L28,0 L28,28 L0,28 Z " fill="#030303" transform="translate(0,0)"/>
<path d="M0,0 L4,0 L4,2 L-1,3 L3,7 L6,2 L8,2 L7,10 L13,14 L13,19 L7,20 L3,17 L1,9 L-4,6 L-3,2 Z " fill="#E6E6E6" transform="translate(9,4)"/>
<path d="M0,0 L1,2 L5,3 L9,6 L11,5 L11,10 L5,11 L1,8 Z " fill="#D2D2D2" transform="translate(11,13)"/>
<path d="M0,0 L4,0 L4,2 L-1,3 L3,8 L1,9 L-4,6 L-3,2 Z " fill="#CBCBCB" transform="translate(9,4)"/>
<path d="M0,0 L4,1 L7,3 L7,5 L2,5 L0,3 Z " fill="#202020" transform="translate(13,16)"/>
</svg>
