<?xml version="1.0" encoding="UTF-8"?>
<svg version="1.1" xmlns="http://www.w3.org/2000/svg" width="28" height="28">
<path d="M0,0 L28,0 L28,28 L0,28 Z " fill="#020202" transform="translate(0,0)"/>
<path d="M0,0 L8,0 L9,1 L9,7 L5,11 L9,13 L8,17 L2,20 L-4,20 L-6,14 L-3,10 L-5,4 Z " fill="#DCDCDC" transform="translate(13,5)"/>
<path d="M0,0 L8,0 L9,3 L6,6 L2,8 L-4,8 L-6,2 L-1,1 Z " fill="#DCDCDC" transform="translate(13,17)"/>
<path d="M0,0 L3,1 L3,7 L-1,11 L1,12 L-6,13 L-9,14 L-10,16 L-9,11 L0,4 Z " fill="#E9E9E9" transform="translate(19,5)"/>
<path d="M0,0 L5,1 L4,4 L-3,5 L-3,2 Z " fill="#0D0D0D" transform="translate(13,17)"/>
<path d="M0,0 L6,0 L1,5 L-2,4 L-2,1 Z " fill="#161616" transform="translate(14,8)"/>
</svg>
