<?xml version="1.0" encoding="UTF-8"?>
<svg version="1.1" xmlns="http://www.w3.org/2000/svg" width="28" height="28">
<path d="M0,0 L28,0 L28,28 L0,28 Z " fill="#010101" transform="translate(0,0)"/>
<path d="M0,0 L5,0 L7,2 L6,7 L3,10 L1,10 L3,13 L3,19 L-2,20 L-5,17 L-4,9 L-5,8 L-5,3 Z " fill="#CDCDCD" transform="translate(14,5)"/>
<path d="M0,0 L1,2 L4,3 L5,8 L1,10 L-2,7 L-1,2 Z " fill="#C1C1C1" transform="translate(11,15)"/>
<path d="M0,0 L6,0 L4,4 L0,6 L-2,4 L-2,1 Z " fill="#111111" transform="translate(13,8)"/>
<path d="M0,0 L4,1 L5,10 L2,10 L3,6 L0,3 Z " fill="#EDEDED" transform="translate(12,14)"/>
<path d="M0,0 L3,0 L4,5 L-1,4 Z " fill="#161616" transform="translate(12,18)"/>
</svg>
