<?xml version="1.0" encoding="UTF-8"?>
<svg version="1.1" xmlns="http://www.w3.org/2000/svg" width="28" height="28">
<path d="M0,0 L28,0 L28,28 L0,28 Z " fill="#050505" transform="translate(0,0)"/>
<path d="M0,0 L9,0 L11,4 L7,6 L7,8 L11,10 L13,12 L12,16 L11,17 L0,17 L-2,15 L-1,9 L0,7 L-7,5 L-7,2 Z " fill="#EFEFEF" transform="translate(11,7)"/>
<path d="M0,0 L4,2 L6,4 L5,8 L4,9 L-7,9 L-7,6 L-4,1 Z " fill="#E2E2E2" transform="translate(18,15)"/>
<path d="M0,0 L9,0 L11,4 L7,6 L-1,5 L-1,3 L1,2 Z " fill="#E1E1E1" transform="translate(11,7)"/>
<path d="M0,0 L6,2 L7,6 L1,7 L-2,5 L-1,1 Z " fill="#090909" transform="translate(14,16)"/>
<path d="M0,0 L5,0 L5,3 L2,4 L-2,3 L-2,1 Z " fill="#2A2A2A" transform="translate(12,9)"/>
</svg>
