<?xml version="1.0" encoding="UTF-8"?>
<svg version="1.1" xmlns="http://www.w3.org/2000/svg" width="28" height="28">
<path d="M0,0 L28,0 L28,28 L0,28 Z " fill="#040404" transform="translate(0,0)"/>
<path d="M0,0 L5,0 L4,5 L-1,13 L-2,18 L1,17 L0,20 L-4,19 L-5,10 L-8,7 L-7,3 Z " fill="#DEDEDE" transform="translate(16,6)"/>
<path d="M0,0 L4,0 L2,5 L-3,6 L-4,2 Z " fill="#0F0F0F" transform="translate(15,8)"/>
<path d="M0,0 L2,4 L2,8 L5,7 L4,10 L0,9 Z " fill="#C3C3C3" transform="translate(12,16)"/>
</svg>
