<?xml version="1.0" encoding="UTF-8"?>
<svg version="1.1" xmlns="http://www.w3.org/2000/svg" width="28" height="28">
<path d="M0,0 L28,0 L28,28 L0,28 Z " fill="#030303" transform="translate(0,0)"/>
<path d="M0,0 L4,1 L8,1 L7,5 L6,10 L11,13 L12,14 L12,19 L8,20 L4,16 L2,11 L-5,7 L-4,3 Z " fill="#DBDBDB" transform="translate(10,5)"/>
<path d="M0,0 L4,1 L8,1 L7,5 L5,7 L3,6 L3,2 L-3,4 L-3,7 L0,8 L-2,9 L-5,7 L-4,3 Z " fill="#DBDBDB" transform="translate(10,5)"/>
<path d="M0,0 L3,0 L4,5 L3,7 L-1,6 L-3,5 L-3,2 Z " fill="#171717" transform="translate(10,7)"/>
<path d="M0,0 L5,2 L5,6 L1,4 Z " fill="#202020" transform="translate(15,17)"/>
</svg>
