<?xml version="1.0" encoding="UTF-8"?>
<svg version="1.1" xmlns="http://www.w3.org/2000/svg" width="28" height="28">
<path d="M0,0 L28,0 L28,28 L0,28 Z " fill="#030303" transform="translate(0,0)"/>
<path d="M0,0 L8,1 L7,6 L3,10 L3,17 L-1,19 L1,13 L-3,17 L-4,19 L-2,20 L-6,19 L-4,14 L-3,10 L-6,7 L-5,3 Z " fill="#E8E8E8" transform="translate(14,6)"/>
<path d="M0,0 L5,1 L1,7 L-3,6 L-4,2 Z " fill="#0E0E0E" transform="translate(15,8)"/>
<path d="M0,0 L3,2 L-1,3 L1,7 L3,9 L1,9 L0,11 L-4,6 L-3,2 Z " fill="#D1D1D1" transform="translate(12,7)"/>
<path d="M0,0 L2,0 L1,7 L-3,6 L-1,1 Z " fill="#363636" transform="translate(13,19)"/>
</svg>
