<?xml version="1.0" encoding="UTF-8"?>
<svg version="1.1" xmlns="http://www.w3.org/2000/svg" width="28" height="28">
<path d="M0,0 L28,0 L28,28 L0,28 Z " fill="#010101" transform="translate(0,0)"/>
<path d="M0,0 L4,0 L7,9 L7,15 L4,20 L0,19 L-1,11 L-1,2 Z " fill="#E6E6E6" transform="translate(12,5)"/>
<path d="M0,0 L2,0 L2,6 L-1,9 L-2,5 Z " fill="#171717" transform="translate(15,14)"/>
<path d="M0,0 L2,0 L2,6 L-1,7 Z " fill="#1F1F1F" transform="translate(13,6)"/>
<path d="M0,0 L2,3 L0,9 L-3,9 Z " fill="#B2B2B2" transform="translate(17,15)"/>
</svg>
