<?xml version="1.0" encoding="UTF-8"?>
<svg version="1.1" xmlns="http://www.w3.org/2000/svg" width="28" height="28">
<path d="M0,0 L28,0 L28,28 L0,28 Z " fill="#030303" transform="translate(0,0)"/>
<path d="M0,0 L10,1 L10,6 L6,9 L7,18 L4,20 L-1,19 L-2,16 L-4,16 L-5,11 L-2,8 L-3,2 Z " fill="#F1F1F1" transform="translate(12,5)"/>
<path d="M0,0 L8,0 L12,1 L12,7 L9,9 L4,8 L3,5 L1,5 Z " fill="#EDEDED" transform="translate(7,16)"/>
<path d="M0,0 L4,0 L5,5 L0,4 Z " fill="#1D1D1D" transform="translate(11,16)"/>
</svg>
