<?xml version="1.0" encoding="UTF-8"?>
<svg version="1.1" xmlns="http://www.w3.org/2000/svg" width="28" height="28">
<path d="M0,0 L28,0 L28,28 L0,28 Z " fill="#020202" transform="translate(0,0)"/>
<path d="M0,0 L5,2 L4,6 L2,11 L7,14 L6,18 L3,20 L-2,20 L-3,19 L-2,9 L-4,9 L-3,2 Z " fill="#DCDCDC" transform="translate(14,4)"/>
<path d="M0,0 L5,2 L4,5 L0,9 L-4,9 L-3,2 Z " fill="#C8C8C8" transform="translate(14,4)"/>
<path d="M0,0 L6,2 L6,4 L3,6 L0,6 Z " fill="#1B1B1B" transform="translate(13,16)"/>
<path d="M0,0 L4,0 L2,5 L0,6 L-1,1 Z " fill="#181818" transform="translate(13,7)"/>
</svg>
