<?xml version="1.0" encoding="UTF-8"?>
<svg version="1.1" xmlns="http://www.w3.org/2000/svg" width="28" height="28">
<path d="M0,0 L28,0 L28,28 L0,28 Z " fill="#020202" transform="translate(0,0)"/>
<path d="M0,0 L4,1 L4,7 L-1,11 L-1,17 L-3,20 L-8,20 L-10,18 L-10,13 L-7,10 L-7,4 L-3,1 Z " fill="#E7E7E7" transform="translate(18,5)"/>
<path d="M0,0 L4,1 L4,7 L0,10 L0,7 L2,3 L-1,5 L-4,5 L-5,7 L-7,8 L-6,3 Z " fill="#D0D0D0" transform="translate(18,5)"/>
<path d="M0,0 L2,0 L1,4 L-2,7 L-4,7 L-4,2 Z " fill="#1C1C1C" transform="translate(18,8)"/>
<path d="M0,0 L4,1 L3,5 L-2,4 Z " fill="#171717" transform="translate(11,18)"/>
</svg>
