<?xml version="1.0" encoding="UTF-8"?>
<svg version="1.1" xmlns="http://www.w3.org/2000/svg" width="28" height="28">
<path d="M0,0 L28,0 L28,28 L0,28 Z " fill="#030303" transform="translate(0,0)"/>
<path d="M0,0 L7,0 L11,3 L10,9 L8,11 L9,16 L4,19 L-4,20 L-4,16 L-1,12 L1,12 L1,10 L-3,9 L-5,5 L-2,5 L-1,1 Z " fill="#DEDEDE" transform="translate(12,5)"/>
<path d="M0,0 L3,1 L3,4 L1,4 L1,7 L-7,8 L-7,4 L-6,2 L-1,1 Z " fill="#DFDFDF" transform="translate(15,17)"/>
<path d="M0,0 L6,1 L6,5 L4,7 L-1,6 L1,4 L4,5 L4,3 L-1,2 Z " fill="#1B1B1B" transform="translate(13,7)"/>
<path d="M0,0 L3,1 L3,4 L-4,5 Z " fill="#131313" transform="translate(15,17)"/>
</svg>
