<?xml version="1.0" encoding="UTF-8"?>
<svg version="1.1" xmlns="http://www.w3.org/2000/svg" width="28" height="28">
<path d="M0,0 L28,0 L28,28 L0,28 Z " fill="#020202" transform="translate(0,0)"/>
<path d="M0,0 L6,0 L9,2 L9,8 L6,9 L8,12 L8,17 L4,20 L-4,20 L-5,19 L-5,13 L-5,9 L-4,4 Z " fill="#D7D7D7" transform="translate(13,4)"/>
<path d="M0,0 Z M-6,1 L0,1 L0,3 L-3,4 L-4,7 L-6,7 L-5,9 L2,8 L4,7 L3,11 L1,12 L-7,12 L-8,11 L-8,5 Z " fill="#EBEBEB" transform="translate(16,12)"/>
<path d="M0,0 L5,1 L5,6 L-2,7 L-3,4 L-1,4 Z " fill="#131313" transform="translate(13,15)"/>
<path d="M0,0 L5,0 L5,5 L3,6 L-4,6 L-2,2 Z " fill="#131313" transform="translate(15,6)"/>
</svg>
