<?xml version="1.0" encoding="UTF-8"?>
<svg version="1.1" xmlns="http://www.w3.org/2000/svg" width="28" height="28">
<path d="M0,0 L28,0 L28,28 L0,28 Z " fill="#020202" transform="translate(0,0)"/>
<path d="M0,0 L6,0 L8,2 L7,7 L5,9 L2,9 L4,13 L3,17 L-2,20 L-8,19 L-8,14 L-5,11 L-5,5 Z " fill="#EEEEEE" transform="translate(15,4)"/>
<path d="M0,0 L5,3 L5,8 L0,9 L-1,5 L-3,10 L-4,10 L-4,5 Z " fill="#ADADAD" transform="translate(11,13)"/>
<path d="M0,0 L4,0 L3,5 L-4,6 L-2,2 L0,2 Z " fill="#1B1B1B" transform="translate(16,6)"/>
<path d="M0,0 L6,0 L8,2 L7,7 L4,7 L5,2 L0,1 Z " fill="#BFBFBF" transform="translate(15,4)"/>
<path d="M0,0 Z M-2,1 L1,2 L-2,3 L0,7 L0,10 L-3,10 L-3,6 L-6,5 L-3,5 Z " fill="#D8D8D8" transform="translate(19,10)"/>
<path d="M0,0 L3,0 L3,5 L-1,5 Z " fill="#0B0B0B" transform="translate(13,16)"/>
<path d="M0,0 L1,2 L5,2 L5,5 L1,5 L1,3 L-1,3 Z " fill="#FBFBFB" transform="translate(11,10)"/>
</svg>
