<?xml version="1.0" encoding="UTF-8"?>
<svg version="1.1" xmlns="http://www.w3.org/2000/svg" width="28" height="28">
<path d="M0,0 L28,0 L28,28 L0,28 Z " fill="#010101" transform="translate(0,0)"/>
<path d="M0,0 L3,0 L4,5 L-1,10 L0,20 L-6,19 L-8,16 L-7,8 L-6,3 Z " fill="#C6C6C6" transform="translate(17,5)"/>
<path d="M0,0 L3,0 L4,5 L2,7 L1,5 L-2,8 L-6,8 L-7,4 L-3,1 Z " fill="#C1C1C1" transform="translate(17,5)"/>
<path d="M0,0 L2,1 L-2,6 L-5,5 L-3,1 Z " fill="#131313" transform="translate(17,7)"/>
</svg>
