<?xml version="1.0" encoding="UTF-8"?>
<svg version="1.1" xmlns="http://www.w3.org/2000/svg" width="28" height="28">
<path d="M0,0 L28,0 L28,28 L0,28 Z " fill="#030303" transform="translate(0,0)"/>
<path d="M0,0 L5,1 L4,15 L2,18 L-3,20 L-9,20 L-11,19 L-11,13 L-9,13 L-9,6 L-5,2 Z " fill="#E5E5E5" transform="translate(18,4)"/>
<path d="M0,0 L1,3 L7,4 L6,6 L0,7 L1,11 L-1,12 L6,13 L4,15 L-2,15 L-4,14 L-4,8 L-2,8 L-2,1 Z " fill="#EDEDED" transform="translate(11,9)"/>
<path d="M0,0 L5,0 L6,4 L3,7 L-4,7 L-4,4 L-3,1 Z " fill="#202020" transform="translate(14,15)"/>
<path d="M0,0 L3,0 L3,5 L-3,7 L-7,6 L-3,1 Z " fill="#191919" transform="translate(18,6)"/>
</svg>
