<?xml version="1.0" encoding="UTF-8"?>
<svg version="1.1" xmlns="http://www.w3.org/2000/svg" width="28" height="28">
<path d="M0,0 L28,0 L28,28 L0,28 Z " fill="#010101" transform="translate(0,0)"/>
<path d="M0,0 L5,0 L8,4 L8,10 L9,11 L9,17 L5,20 L-2,20 L-5,16 L-8,11 L-7,6 Z " fill="#E2E2E2" transform="translate(14,4)"/>
<path d="M0,0 L4,1 L5,6 L1,8 L-5,8 L-5,6 L-3,6 L-1,1 Z " fill="#121212" transform="translate(14,6)"/>
<path d="M0,0 L3,1 L1,5 L-4,6 L-6,5 L-6,3 Z " fill="#1E1E1E" transform="translate(18,16)"/>
<path d="M0,0 L4,2 L5,7 L2,7 L0,3 Z " fill="#C0C0C0" transform="translate(17,4)"/>
</svg>
