<?xml version="1.0" encoding="UTF-8"?>
<svg version="1.1" xmlns="http://www.w3.org/2000/svg" width="28" height="28">
<path d="M0,0 L28,0 L28,28 L0,28 Z " fill="#020202" transform="translate(0,0)"/>
<path d="M0,0 L5,0 L0,6 L0,10 L4,12 L5,18 L2,20 L-3,19 L-4,18 L-4,9 L-7,8 L-6,3 Z " fill="#E5E5E5" transform="translate(16,5)"/>
<path d="M0,0 L2,2 L3,7 L6,7 L8,5 L9,8 L6,10 L1,9 L0,8 Z " fill="#CFCFCF" transform="translate(12,15)"/>
<path d="M0,0 L5,3 L4,7 L0,6 Z " fill="#101010" transform="translate(14,16)"/>
<path d="M0,0 L2,0 L1,6 L-3,6 L-2,1 Z " fill="#A4A4A4" transform="translate(12,7)"/>
</svg>
