<?xml version="1.0" encoding="UTF-8"?>
<svg version="1.1" xmlns="http://www.w3.org/2000/svg" width="28" height="28">
<path d="M0,0 L28,0 L28,28 L0,28 Z " fill="#010101" transform="translate(0,0)"/>
<path d="M0,0 L5,0 L8,3 L7,7 L4,9 L4,11 L11,16 L10,19 L8,20 L2,20 L-2,17 L-2,10 L-5,7 L-4,3 Z " fill="#C0C0C0" transform="translate(12,4)"/>
<path d="M0,0 L4,2 L4,5 L-1,8 L-5,6 L-4,2 Z " fill="#101010" transform="translate(14,5)"/>
<path d="M0,0 L5,1 L9,4 L9,6 L2,6 L0,4 Z " fill="#0A0A0A" transform="translate(12,16)"/>
</svg>
