<?xml version="1.0" encoding="UTF-8"?>
<svg version="1.1" xmlns="http://www.w3.org/2000/svg" width="28" height="28">
<path d="M0,0 L28,0 L28,28 L0,28 Z " fill="#040404" transform="translate(0,0)"/>
<path d="M0,0 L3,0 L3,2 L-2,5 L-4,5 L-6,9 L-7,11 L-2,12 L-2,14 L0,14 L0,19 L-2,20 L-8,20 L-12,16 L-14,11 L-15,6 L-11,2 L-4,2 Z " fill="#EFEFEF" transform="translate(22,4)"/>
<path d="M0,0 L3,0 L3,2 L-2,5 L-4,5 L-6,9 L-8,11 L-8,8 L-12,9 L-11,5 L-9,4 L-11,2 L-4,2 Z " fill="#B4B4B4" transform="translate(22,4)"/>
<path d="M0,0 L5,1 L5,3 L7,3 L7,8 L6,6 L2,7 L-2,5 L-2,2 Z " fill="#D5D5D5" transform="translate(15,15)"/>
<path d="M0,0 L6,1 L7,3 L4,4 L0,2 Z " fill="#111111" transform="translate(13,18)"/>
</svg>
