<?xml version="1.0" encoding="UTF-8"?>
<svg version="1.1" xmlns="http://www.w3.org/2000/svg" width="28" height="28">
<path d="M0,0 L28,0 L28,28 L0,28 Z " fill="#020202" transform="translate(0,0)"/>
<path d="M0,0 L9,1 L11,5 L5,3 L0,3 L4,7 L9,7 L8,10 L10,10 L10,16 L5,20 L-2,20 L-4,19 L-3,12 L0,9 L-3,6 L-2,1 Z " fill="#E6E6E6" transform="translate(11,5)"/>
<path d="M0,0 L5,0 L6,4 L3,7 L-4,6 L-3,2 Z " fill="#151515" transform="translate(13,16)"/>
<path d="M0,0 L7,1 L12,2 L12,5 L7,6 L2,5 L-1,1 Z " fill="#1B1B1B" transform="translate(11,7)"/>
<path d="M0,0 L3,1 L0,6 L2,6 L2,9 L-2,8 L-1,1 Z " fill="#D0D0D0" transform="translate(9,16)"/>
</svg>
