<?xml version="1.0" encoding="UTF-8"?>
<svg version="1.1" xmlns="http://www.w3.org/2000/svg" width="28" height="28">
<path d="M0,0 L28,0 L28,28 L0,28 Z " fill="#030303" transform="translate(0,0)"/>
<path d="M0,0 L8,1 L9,4 L2,3 L4,6 L11,6 L13,8 L8,10 L10,14 L10,19 L4,20 L1,16 L1,7 L-1,5 Z " fill="#E6E6E6" transform="translate(9,5)"/>
<path d="M0,0 L3,1 L3,3 L6,3 L6,8 L0,9 L-1,7 Z " fill="#D9D9D9" transform="translate(13,16)"/>
<path d="M0,0 L5,0 L7,3 L2,4 Z " fill="#202020" transform="translate(11,8)"/>
<path d="M0,0 L3,1 L4,6 L1,6 L0,5 Z " fill="#1F1F1F" transform="translate(13,16)"/>
</svg>
