<?xml version="1.0" encoding="UTF-8"?>
<svg version="1.1" xmlns="http://www.w3.org/2000/svg" width="28" height="28">
<path d="M0,0 L28,0 L28,28 L0,28 Z " fill="#010101" transform="translate(0,0)"/>
<path d="M0,0 L5,0 L6,4 L1,9 L-1,19 L-5,19 L-4,9 L-6,7 L-5,2 Z " fill="#F3F3F3" transform="translate(15,6)"/>
<path d="M0,0 L2,4 L0,7 L-3,6 L-3,3 L-1,3 Z " fill="#DEDEDE" transform="translate(13,19)"/>
<path d="M0,0 L5,0 L3,4 L0,4 Z " fill="#262626" transform="translate(12,9)"/>
<path d="M0,0 L3,1 L2,5 L-3,3 Z " fill="#C6C6C6" transform="translate(18,6)"/>
</svg>
