<?xml version="1.0" encoding="UTF-8"?>
<svg version="1.1" xmlns="http://www.w3.org/2000/svg" width="28" height="28">
<path d="M0,0 L28,0 L28,28 L0,28 Z " fill="#010101" transform="translate(0,0)"/>
<path d="M0,0 L8,1 L10,5 L6,8 L7,12 L7,19 L0,20 L-4,17 L-3,11 L-1,8 L-4,5 L-3,1 Z " fill="#DDDDDD" transform="translate(12,5)"/>
<path d="M0,0 L7,1 L9,5 L4,8 L-1,5 L-2,3 L3,3 L3,1 Z " fill="#C5C5C5" transform="translate(13,5)"/>
<path d="M0,0 L2,4 L6,5 L8,5 L7,8 L0,7 L-2,5 L-2,1 Z " fill="#EEEEEE" transform="translate(10,17)"/>
<path d="M0,0 L3,0 L4,7 L0,6 L-1,2 Z " fill="#121212" transform="translate(12,16)"/>
<path d="M0,0 L7,0 L7,3 L3,4 Z " fill="#151515" transform="translate(11,8)"/>
</svg>
