<?xml version="1.0" encoding="UTF-8"?>
<svg version="1.1" xmlns="http://www.w3.org/2000/svg" width="28" height="28">
<path d="M0,0 L28,0 L28,28 L0,28 Z " fill="#020202" transform="translate(0,0)"/>
<path d="M0,0 L11,0 L11,4 L8,4 L6,9 L3,18 L2,20 L-1,20 L0,11 L-4,9 L-4,3 Z " fill="#E9E9E9" transform="translate(12,7)"/>
<path d="M0,0 L5,5 L7,5 L7,13 L5,16 L2,16 L3,7 L0,6 Z " fill="#EBEBEB" transform="translate(9,11)"/>
<path d="M0,0 L4,0 L3,5 L-1,8 L-4,5 L-2,1 Z " fill="#1C1C1C" transform="translate(14,9)"/>
<path d="M0,0 L4,2 L0,4 L-2,8 L-2,2 Z " fill="#C1C1C1" transform="translate(10,8)"/>
</svg>
