<?xml version="1.0" encoding="UTF-8"?>
<svg version="1.1" xmlns="http://www.w3.org/2000/svg" width="28" height="28">
<path d="M0,0 L28,0 L28,28 L0,28 Z " fill="#010101" transform="translate(0,0)"/>
<path d="M0,0 L5,0 L6,4 L3,8 L1,18 L0,20 L-5,20 L-4,12 L-3,8 L-4,3 Z " fill="#A5A5A5" transform="translate(15,5)"/>
<path d="M0,0 L5,0 L6,4 L3,6 L2,4 L0,4 L-1,8 L-4,7 L-3,2 Z " fill="#E2E2E2" transform="translate(15,5)"/>
<path d="M0,0 L1,0 L0,7 L-5,7 L-5,2 L-3,1 L-2,4 Z " fill="#E4E4E4" transform="translate(15,18)"/>
</svg>
