<?xml version="1.0" encoding="UTF-8"?>
<svg version="1.1" xmlns="http://www.w3.org/2000/svg" width="28" height="28">
<path d="M0,0 L28,0 L28,28 L0,28 Z " fill="#030303" transform="translate(0,0)"/>
<path d="M0,0 L11,0 L9,5 L6,8 L7,9 L7,18 L0,20 L-3,18 L-2,9 L-7,8 L-7,4 Z " fill="#E3E3E3" transform="translate(13,7)"/>
<path d="M0,0 L4,0 L4,5 L2,7 L-2,7 L-1,2 Z " fill="#0B0B0B" transform="translate(15,17)"/>
<path d="M0,0 L1,0 L1,5 L9,3 L9,7 L3,8 L0,6 Z " fill="#CCCCCC" transform="translate(10,19)"/>
</svg>
