<?xml version="1.0" encoding="UTF-8"?>
<svg version="1.1" xmlns="http://www.w3.org/2000/svg" width="28" height="28">
<path d="M0,0 L28,0 L28,28 L0,28 Z " fill="#020202" transform="translate(0,0)"/>
<path d="M0,0 L6,0 L7,1 L7,7 L6,11 L7,16 L4,20 L-1,20 L-1,14 L0,10 L-2,6 L-1,1 Z " fill="#D2D2D2" transform="translate(12,5)"/>
<path d="M0,0 L6,0 L5,5 L0,4 Z " fill="#0B0B0B" transform="translate(12,7)"/>
<path d="M0,0 L2,0 L1,5 L-3,7 L-2,2 Z " fill="#131313" transform="translate(15,17)"/>
<path d="M0,0 L3,3 L2,7 L-1,10 L-1,7 L1,2 L-1,1 Z " fill="#D3D3D3" transform="translate(16,15)"/>
</svg>
