<?xml version="1.0" encoding="UTF-8"?>
<svg version="1.1" xmlns="http://www.w3.org/2000/svg" width="28" height="28">
<path d="M0,0 L28,0 L28,28 L0,28 Z " fill="#030303" transform="translate(0,0)"/>
<path d="M0,0 L12,1 L12,3 L5,7 L5,17 L2,20 L-3,20 L-4,14 L-1,9 L-2,2 Z " fill="#EAEAEA" transform="translate(12,6)"/>
<path d="M0,0 L12,1 L12,3 L5,7 L3,9 L3,6 L-1,6 L-2,2 Z " fill="#D9D9D9" transform="translate(12,6)"/>
<path d="M0,0 L4,1 L3,6 L-3,7 L-2,1 Z " fill="#DFDFDF" transform="translate(11,17)"/>
<path d="M0,0 L2,1 L1,6 L-2,6 L-1,1 Z " fill="#1C1C1C" transform="translate(13,17)"/>
</svg>
