<?xml version="1.0" encoding="UTF-8"?>
<svg version="1.1" xmlns="http://www.w3.org/2000/svg" width="28" height="28">
<path d="M0,0 L28,0 L28,28 L0,28 Z " fill="#020202" transform="translate(0,0)"/>
<path d="M0,0 L5,1 L4,3 L-2,4 L-2,7 L6,3 L9,3 L9,6 L4,9 L1,9 L2,17 L0,20 L-6,20 L-8,18 L-8,12 L-4,8 L-5,3 Z " fill="#F0F0F0" transform="translate(15,5)"/>
<path d="M0,0 L2,1 L1,2 L5,4 L7,8 L5,11 L-1,11 L-3,9 L-3,3 Z " fill="#E0E0E0" transform="translate(10,14)"/>
<path d="M0,0 L3,0 L3,3 L-2,6 L-4,6 L-4,4 L-6,3 Z " fill="#CACACA" transform="translate(21,8)"/>
<path d="M0,0 L3,0 L3,5 L-2,5 Z " fill="#1C1C1C" transform="translate(11,17)"/>
<path d="M0,0 L4,0 L4,2 L-3,4 L-3,1 Z " fill="#2C2C2C" transform="translate(16,8)"/>
</svg>
