<?xml version="1.0" encoding="UTF-8"?>
<svg version="1.1" xmlns="http://www.w3.org/2000/svg" width="28" height="28">
<path d="M0,0 L28,0 L28,28 L0,28 Z " fill="#010101" transform="translate(0,0)"/>
<path d="M0,0 L5,1 L5,8 L4,12 L4,18 L2,14 L2,12 L0,12 L-1,19 L-3,19 L-3,13 L-1,9 L-3,3 Z " fill="#C7C7C7" transform="translate(13,4)"/>
<path d="M0,0 L1,0 L1,14 L-1,10 L-1,8 L-3,8 L-4,15 L-6,15 L-6,9 L-2,4 L0,5 Z " fill="#DCDCDC" transform="translate(16,8)"/>
<path d="M0,0 L2,0 L4,7 L3,8 L-2,8 Z " fill="#6D6D6D" transform="translate(13,16)"/>
<path d="M0,0 L3,0 L3,7 L1,7 L-1,4 Z " fill="#343434" transform="translate(13,6)"/>
</svg>
