<?xml version="1.0" encoding="UTF-8"?>
<svg version="1.1" xmlns="http://www.w3.org/2000/svg" width="28" height="28">
<path d="M0,0 L28,0 L28,28 L0,28 Z " fill="#020202" transform="translate(0,0)"/>
<path d="M0,0 L5,0 L6,5 L1,10 L3,13 L3,18 L-1,20 L-7,17 L-6,8 L-8,5 L-4,1 Z " fill="#DEDEDE" transform="translate(16,5)"/>
<path d="M0,0 L1,2 L4,2 L6,6 L8,5 L8,10 L4,12 L-2,9 L-1,3 Z " fill="#C8C8C8" transform="translate(11,13)"/>
<path d="M0,0 L6,0 L3,5 L-1,5 L-2,1 Z " fill="#121212" transform="translate(13,7)"/>
<path d="M0,0 L4,1 L5,6 L-1,5 Z " fill="#0E0E0E" transform="translate(12,16)"/>
</svg>
