<?xml version="1.0" encoding="UTF-8"?>
<svg version="1.1" xmlns="http://www.w3.org/2000/svg" width="28" height="28">
<path d="M0,0 L28,0 L28,28 L0,28 Z " fill="#020202" transform="translate(0,0)"/>
<path d="M0,0 L7,1 L9,3 L9,8 L11,10 L11,17 L7,20 L1,20 L-1,18 L0,11 L-5,9 L-4,4 Z " fill="#DADADA" transform="translate(11,5)"/>
<path d="M0,0 L5,1 L5,7 L3,9 L-3,9 L-3,4 Z " fill="#0F0F0F" transform="translate(15,14)"/>
<path d="M0,0 L1,2 L6,0 L7,4 L3,7 L-3,6 L-2,2 Z " fill="#232323" transform="translate(11,7)"/>
<path d="M0,0 L2,3 L1,7 L-2,9 L-5,8 L-1,5 Z " fill="#C2C2C2" transform="translate(20,16)"/>
</svg>
