<?xml version="1.0" encoding="UTF-8"?>
<svg version="1.1" xmlns="http://www.w3.org/2000/svg" width="28" height="28">
<path d="M0,0 L28,0 L28,28 L0,28 Z " fill="#030303" transform="translate(0,0)"/>
<path d="M0,0 L6,0 L8,2 L-1,3 L-1,5 L2,4 L13,4 L13,5 L4,7 L7,9 L6,13 L3,15 L-4,15 L-7,12 L-5,8 L-2,1 Z " fill="#CECECE" transform="translate(13,7)"/>
<path d="M0,0 L4,1 L6,2 L5,6 L-2,6 L-2,2 Z " fill="#0F0F0F" transform="translate(11,14)"/>
<path d="M0,0 L11,0 L11,1 L1,2 L1,4 L-3,2 Z " fill="#E5E5E5" transform="translate(15,11)"/>
<path d="M0,0 L7,0 L10,2 L-2,3 L-2,1 Z " fill="#232323" transform="translate(14,9)"/>
</svg>
