<?xml version="1.0" encoding="UTF-8"?>
<svg version="1.1" xmlns="http://www.w3.org/2000/svg" width="28" height="28">
<path d="M0,0 L28,0 L28,28 L0,28 Z " fill="#020202" transform="translate(0,0)"/>
<path d="M0,0 L6,2 L7,6 L7,15 L2,20 L-4,20 L-5,15 L-4,11 L-3,4 Z " fill="#E8E8E8" transform="translate(13,4)"/>
<path d="M0,0 L3,0 L4,5 L-1,10 L-7,10 L-8,5 L-6,3 L-4,3 Z " fill="#E2E2E2" transform="translate(16,14)"/>
<path d="M0,0 L1,2 L3,2 L4,6 L0,10 L-4,11 L-3,4 Z " fill="#CFCFCF" transform="translate(13,4)"/>
<path d="M0,0 L2,0 L1,5 L-3,8 L-6,7 L-4,3 Z " fill="#1D1D1D" transform="translate(16,14)"/>
<path d="M0,0 L2,0 L3,4 L-2,8 L-1,2 Z " fill="#1E1E1E" transform="translate(14,6)"/>
</svg>
