<?xml version="1.0" encoding="UTF-8"?>
<svg version="1.1" xmlns="http://www.w3.org/2000/svg" width="28" height="28">
<path d="M0,0 L28,0 L28,28 L0,28 Z " fill="#010101" transform="translate(0,0)"/>
<path d="M0,0 L5,0 L6,4 L4,5 L-1,4 L-1,7 L5,6 L12,2 L13,6 L4,11 L1,16 L-1,18 L-7,18 L-6,13 L-2,11 L-4,7 L-3,2 Z " fill="#D5D5D5" transform="translate(13,6)"/>
<path d="M0,0 L7,0 L6,3 L2,4 L0,3 Z " fill="#2D2D2D" transform="translate(12,10)"/>
<path d="M0,0 L2,0 L0,4 L-6,4 L-6,1 L-3,2 Z " fill="#F1F1F1" transform="translate(12,20)"/>
</svg>
