<?xml version="1.0" encoding="UTF-8"?>
<svg version="1.1" xmlns="http://www.w3.org/2000/svg" width="28" height="28">
<path d="M0,0 L28,0 L28,28 L0,28 Z " fill="#020202" transform="translate(0,0)"/>
<path d="M0,0 L4,1 L4,4 L8,4 L7,7 L-1,11 L-4,18 L-7,20 L-12,19 L-10,14 L-7,11 L-7,4 L-3,1 Z " fill="#B8B8B8" transform="translate(17,5)"/>
<path d="M0,0 L5,4 L3,12 L-1,15 L-6,14 L-4,9 L-1,6 Z " fill="#F3F3F3" transform="translate(11,10)"/>
<path d="M0,0 L2,4 L0,8 L-4,8 L-4,5 Z " fill="#B8B8B8" transform="translate(11,14)"/>
</svg>
