<?xml version="1.0" encoding="UTF-8"?>
<svg version="1.1" xmlns="http://www.w3.org/2000/svg" width="28" height="28">
<path d="M0,0 L28,0 L28,28 L0,28 Z " fill="#010101" transform="translate(0,0)"/>
<path d="M0,0 L6,0 L7,7 L5,9 L8,13 L7,18 L5,20 L-1,20 L-4,18 L-3,10 L-3,3 Z " fill="#E2E2E2" transform="translate(12,4)"/>
<path d="M0,0 L4,1 L6,5 L4,7 L-1,7 L-2,2 Z " fill="#202020" transform="translate(12,15)"/>
<path d="M0,0 L5,1 L5,5 L0,6 L-1,1 Z " fill="#151515" transform="translate(12,6)"/>
<path d="M0,0 L6,0 L7,3 L5,6 L4,3 L0,3 L-2,10 L-3,10 L-3,3 Z " fill="#C5C5C5" transform="translate(12,4)"/>
</svg>
