<?xml version="1.0" encoding="UTF-8"?>
<svg version="1.1" xmlns="http://www.w3.org/2000/svg" width="28" height="28">
<path d="M0,0 L28,0 L28,28 L0,28 Z " fill="#020202" transform="translate(0,0)"/>
<path d="M0,0 L5,0 L6,1 L6,6 L5,11 L7,15 L1,11 L-3,6 L-2,2 Z " fill="#D8D8D8" transform="translate(12,6)"/>
<path d="M0,0 L1,2 L5,4 L8,6 L7,10 L6,11 L0,11 L-2,9 Z " fill="#929292" transform="translate(12,15)"/>
<path d="M0,0 L4,3 L4,7 L-2,7 L-1,1 Z " fill="#040404" transform="translate(14,17)"/>
<path d="M0,0 L4,0 L2,5 L-2,4 Z " fill="#1B1B1B" transform="translate(13,8)"/>
</svg>
