<?xml version="1.0" encoding="UTF-8"?>
<svg version="1.1" xmlns="http://www.w3.org/2000/svg" width="28" height="28">
<path d="M0,0 L28,0 L28,28 L0,28 Z " fill="#020202" transform="translate(0,0)"/>
<path d="M0,0 L9,1 L9,3 L7,3 L5,7 L4,10 L10,14 L9,19 L6,20 L-2,20 L-4,19 L-3,14 L-2,12 L-6,9 L-6,4 L-4,4 L-4,2 Z " fill="#DFDFDF" transform="translate(13,4)"/>
<path d="M0,0 L4,1 L7,3 L6,6 L-3,6 L-1,1 Z " fill="#242424" transform="translate(14,16)"/>
<path d="M0,0 L4,0 L2,5 L0,8 L-4,7 L-4,3 Z " fill="#141414" transform="translate(14,6)"/>
<path d="M0,0 L5,0 L1,3 L-4,6 L-6,6 L-6,4 L-4,4 L-4,2 Z " fill="#C7C7C7" transform="translate(13,4)"/>
</svg>
