<?xml version="1.0" encoding="UTF-8"?>
<svg version="1.1" xmlns="http://www.w3.org/2000/svg" width="28" height="28">
<path d="M0,0 L28,0 L28,28 L0,28 Z " fill="#020202" transform="translate(0,0)"/>
<path d="M0,0 L7,0 L8,4 L6,9 L8,11 L7,17 L4,20 L-7,20 L-11,16 L-10,11 L-7,8 L-6,4 Z " fill="#EDEDED" transform="translate(15,4)"/>
<path d="M0,0 L3,1 L2,7 L-1,10 L-12,10 L-16,6 L-15,3 L-15,5 L-11,6 L-2,6 L0,2 L-3,1 Z " fill="#EAEAEA" transform="translate(20,14)"/>
<path d="M0,0 L8,1 L7,5 L6,6 L-3,6 L-5,5 L-4,1 Z " fill="#101010" transform="translate(12,15)"/>
<path d="M0,0 L7,0 L8,4 L5,7 L5,5 L0,8 L-4,7 L-2,1 Z " fill="#DCDCDC" transform="translate(15,4)"/>
<path d="M0,0 L4,1 L-1,5 L-5,4 L-3,1 Z " fill="#202020" transform="translate(16,7)"/>
<path d="M0,0 L1,2 L7,4 L7,6 L9,7 L4,7 L0,3 Z " fill="#CBCBCB" transform="translate(4,17)"/>
</svg>
