<?xml version="1.0" encoding="UTF-8"?>
<svg version="1.1" xmlns="http://www.w3.org/2000/svg" width="28" height="28">
<path d="M0,0 L28,0 L28,28 L0,28 Z " fill="#020202" transform="translate(0,0)"/>
<path d="M0,0 L4,0 L5,4 L0,9 L0,14 L-6,19 L-13,20 L-12,15 L-7,10 L-11,7 L-10,4 Z " fill="#C7C7C7" transform="translate(19,5)"/>
<path d="M0,0 L4,0 L5,4 L2,5 L2,3 L-7,5 L-7,7 L-5,8 L-8,9 L-11,7 L-10,4 Z " fill="#D2D2D2" transform="translate(19,5)"/>
<path d="M0,0 L2,0 L0,4 L-4,5 L-6,4 L-6,2 Z " fill="#262626" transform="translate(18,8)"/>
<path d="M0,0 L4,0 L5,4 L2,5 L2,3 L-3,3 Z " fill="#F2F2F2" transform="translate(19,5)"/>
</svg>
