<?xml version="1.0" encoding="UTF-8"?>
<svg version="1.1" xmlns="http://www.w3.org/2000/svg" width="28" height="28">
<path d="M0,0 L28,0 L28,28 L0,28 Z " fill="#030303" transform="translate(0,0)"/>
<path d="M0,0 L5,1 L5,4 L7,5 L6,9 L7,10 L6,18 L4,20 L-1,20 L-3,17 L-3,11 L-1,11 L-2,6 L-3,2 Z " fill="#E1E1E1" transform="translate(13,4)"/>
<path d="M0,0 L4,0 L4,3 L1,6 L0,11 L4,7 L7,7 L5,13 L4,14 L-1,14 L-3,11 L-3,5 L-1,5 Z " fill="#EAEAEA" transform="translate(13,10)"/>
<path d="M0,0 L2,0 L3,4 L0,8 L-2,8 L-1,1 Z " fill="#323232" transform="translate(15,13)"/>
<path d="M0,0 L5,1 L4,6 L5,10 L2,9 L2,3 L-2,2 Z " fill="#A6A6A6" transform="translate(15,7)"/>
</svg>
