<?xml version="1.0" encoding="UTF-8"?>
<svg version="1.1" xmlns="http://www.w3.org/2000/svg" width="28" height="28">
<path d="M0,0 L28,0 L28,28 L0,28 Z " fill="#020202" transform="translate(0,0)"/>
<path d="M0,0 L7,0 L10,2 L9,7 L6,8 L7,10 L7,16 L3,19 L-7,19 L-10,17 L-8,13 L-2,10 L-4,6 L-3,2 Z " fill="#DFDFDF" transform="translate(13,4)"/>
<path d="M0,0 L7,0 L7,5 L5,7 L0,7 L-2,5 L-4,6 L-3,2 Z " fill="#C8C8C8" transform="translate(13,4)"/>
<path d="M0,0 L3,0 L2,5 L-6,6 L-8,4 L-3,1 Z " fill="#121212" transform="translate(14,15)"/>
<path d="M0,0 L7,0 L5,4 L0,4 Z " fill="#0D0D0D" transform="translate(13,7)"/>
</svg>
