<?xml version="1.0" encoding="UTF-8"?>
<svg version="1.1" xmlns="http://www.w3.org/2000/svg" width="28" height="28">
<path d="M0,0 L28,0 L28,28 L0,28 Z " fill="#030303" transform="translate(0,0)"/>
<path d="M0,0 L7,0 L10,3 L10,5 L14,3 L12,7 L5,12 L8,17 L7,20 L1,20 L-1,18 L-1,11 L-2,10 L-2,2 Z " fill="#A1A1A1" transform="translate(11,5)"/>
<path d="M0,0 L5,0 L8,3 L8,5 L12,3 L10,7 L3,12 L5,17 L1,15 L-1,14 L-1,11 L6,6 L6,4 L-1,2 Z " fill="#E0E0E0" transform="translate(13,5)"/>
<path d="M0,0 L7,0 L7,4 L1,8 L-1,6 L-1,1 Z " fill="#060606" transform="translate(12,8)"/>
<path d="M0,0 L5,2 L1,4 L1,10 L-2,10 L-2,2 Z " fill="#BCBCBC" transform="translate(11,5)"/>
</svg>
