<?xml version="1.0" encoding="UTF-8"?>
<svg version="1.1" xmlns="http://www.w3.org/2000/svg" width="28" height="28">
<path d="M0,0 L28,0 L28,28 L0,28 Z " fill="#020202" transform="translate(0,0)"/>
<path d="M0,0 L6,0 L7,4 L6,7 L4,8 L2,12 L-1,15 L-1,17 L6,18 L5,20 L-1,20 L-3,18 L-2,12 L-1,8 L-2,1 Z " fill="#C2C2C2" transform="translate(13,4)"/>
<path d="M0,0 L5,2 L6,7 L-2,7 L-3,4 Z " fill="#303030" transform="translate(14,15)"/>
<path d="M0,0 L4,0 L3,5 L0,7 L-2,2 Z " fill="#0C0C0C" transform="translate(14,5)"/>
</svg>
