<?xml version="1.0" encoding="UTF-8"?>
<svg version="1.1" xmlns="http://www.w3.org/2000/svg" width="28" height="28">
<path d="M0,0 L28,0 L28,28 L0,28 Z " fill="#020202" transform="translate(0,0)"/>
<path d="M0,0 L9,1 L8,5 L3,10 L5,14 L5,19 L0,20 L-3,18 L-3,2 Z " fill="#EDEDED" transform="translate(13,5)"/>
<path d="M0,0 L9,1 L7,2 L6,5 L2,8 L-1,7 L-3,2 Z " fill="#B0B0B0" transform="translate(13,5)"/>
<path d="M0,0 L1,2 L3,2 L5,5 L5,8 L0,9 L-1,8 L-1,2 Z " fill="#939393" transform="translate(11,15)"/>
<path d="M0,0 L5,1 L5,3 L1,6 L-1,6 L-1,1 Z " fill="#090909" transform="translate(14,7)"/>
<path d="M0,0 L2,0 L0,4 L-5,8 L-7,6 L-1,2 Z " fill="#D7D7D7" transform="translate(20,7)"/>
</svg>
