<?xml version="1.0" encoding="UTF-8"?>
<svg version="1.1" xmlns="http://www.w3.org/2000/svg" width="28" height="28">
<path d="M0,0 L28,0 L28,28 L0,28 Z " fill="#020202" transform="translate(0,0)"/>
<path d="M0,0 L6,0 L10,4 L5,10 L9,14 L8,18 L6,20 L1,20 L-1,18 L0,10 L-4,8 L-5,4 Z " fill="#EAEAEA" transform="translate(12,5)"/>
<path d="M0,0 L6,0 L10,4 L5,9 L-2,7 L-3,5 L-5,4 Z " fill="#DEDEDE" transform="translate(12,5)"/>
<path d="M0,0 L6,0 L7,4 L4,7 L2,7 L2,5 L-1,4 Z " fill="#CBCBCB" transform="translate(14,18)"/>
<path d="M0,0 L4,1 L3,3 L1,3 L0,6 L-5,5 L-5,2 Z " fill="#131313" transform="translate(15,7)"/>
<path d="M0,0 L4,1 L4,4 L-1,4 Z " fill="#212121" transform="translate(14,18)"/>
</svg>
