<?xml version="1.0" encoding="UTF-8"?>
<svg version="1.1" xmlns="http://www.w3.org/2000/svg" width="28" height="28">
<path d="M0,0 L28,0 L28,28 L0,28 Z " fill="#010101" transform="translate(0,0)"/>
<path d="M0,0 L6,0 L9,8 L10,10 L10,17 L7,20 L1,20 L-2,16 L-1,11 L-1,9 L-3,7 L-2,2 Z " fill="#EBEBEB" transform="translate(11,5)"/>
<path d="M0,0 L4,1 L5,3 L5,10 L2,13 L-4,13 L-7,9 L-6,4 L-3,4 L-4,10 L2,11 L2,3 L0,2 Z " fill="#D6D6D6" transform="translate(16,12)"/>
<path d="M0,0 L5,1 L4,9 L-2,8 L-3,4 Z " fill="#0E0E0E" transform="translate(14,14)"/>
<path d="M0,0 L3,0 L2,5 L-2,5 L-2,1 Z " fill="#101010" transform="translate(13,7)"/>
<path d="M0,0 L5,1 L2,3 L0,3 L-1,7 L-3,7 L-2,2 Z " fill="#B5B5B5" transform="translate(11,5)"/>
</svg>
