<?xml version="1.0" encoding="UTF-8"?>
<svg version="1.1" xmlns="http://www.w3.org/2000/svg" width="28" height="28">
<path d="M0,0 L28,0 L28,28 L0,28 Z " fill="#020202" transform="translate(0,0)"/>
<path d="M0,0 L5,0 L8,4 L1,8 L1,14 L-2,17 L-9,17 L-12,15 L-11,11 L-5,8 L-5,3 Z " fill="#E7E7E7" transform="translate(17,6)"/>
<path d="M0,0 L2,0 L1,4 L-6,5 L-6,3 Z " fill="#1F1F1F" transform="translate(14,16)"/>
<path d="M0,0 L6,2 L3,5 L-2,5 L-1,1 Z " fill="#848484" transform="translate(14,7)"/>
</svg>
