<?xml version="1.0" encoding="UTF-8"?>
<svg version="1.1" xmlns="http://www.w3.org/2000/svg" width="28" height="28">
<path d="M0,0 L28,0 L28,28 L0,28 Z " fill="#010101" transform="translate(0,0)"/>
<path d="M0,0 L4,1 L-1,4 L-3,8 L2,5 L5,2 L5,6 L2,9 L2,17 L-1,20 L-6,19 L-5,14 L-4,9 L-5,5 Z " fill="#D5D5D5" transform="translate(15,5)"/>
<path d="M0,0 L4,2 L3,6 L1,8 L-4,7 L-3,2 Z " fill="#CECECE" transform="translate(13,17)"/>
<path d="M0,0 L4,1 L-1,7 L-4,7 L-3,3 Z " fill="#252525" transform="translate(16,6)"/>
<path d="M0,0 L2,1 L0,5 L-4,8 L-6,6 L-1,2 Z " fill="#BDBDBD" transform="translate(19,7)"/>
<path d="M0,0 L2,0 L1,5 L-2,6 L-1,1 Z " fill="#101010" transform="translate(13,17)"/>
</svg>
