<?xml version="1.0" encoding="UTF-8"?>
<svg version="1.1" xmlns="http://www.w3.org/2000/svg" width="28" height="28">
<path d="M0,0 L28,0 L28,28 L0,28 Z " fill="#010101" transform="translate(0,0)"/>
<path d="M0,0 L6,2 L7,6 L6,10 L9,13 L8,18 L6,20 L-1,20 L-2,19 L-2,14 L1,10 L-3,8 L-5,7 L-4,2 Z " fill="#CFCFCF" transform="translate(12,5)"/>
<path d="M0,0 L4,1 L4,5 L-1,7 L-2,3 Z " fill="#111111" transform="translate(14,17)"/>
<path d="M0,0 L3,1 L3,6 L1,7 L-4,4 L-3,1 Z " fill="#171717" transform="translate(13,7)"/>
<path d="M0,0 L6,4 L9,3 L8,7 L3,6 L0,3 Z " fill="#EEEEEE" transform="translate(8,9)"/>
<path d="M0,0 L4,2 L3,7 L1,6 Z " fill="#BBBBBB" transform="translate(15,6)"/>
</svg>
