<?xml version="1.0" encoding="UTF-8"?>
<svg version="1.1" xmlns="http://www.w3.org/2000/svg" width="28" height="28">
<path d="M0,0 L28,0 L28,28 L0,28 Z " fill="#020202" transform="translate(0,0)"/>
<path d="M0,0 L6,0 L8,2 L8,9 L8,13 L9,14 L9,19 L4,20 L3,19 L2,11 L-3,8 L-2,4 Z " fill="#DADADA" transform="translate(10,5)"/>
<path d="M0,0 L2,3 L0,8 L-5,6 L-5,2 Z " fill="#121212" transform="translate(15,7)"/>
<path d="M0,0 L4,1 L6,6 L1,7 L0,6 Z " fill="#818181" transform="translate(13,18)"/>
</svg>
