<?xml version="1.0" encoding="UTF-8"?>
<svg version="1.1" xmlns="http://www.w3.org/2000/svg" width="28" height="28">
<path d="M0,0 L28,0 L28,28 L0,28 Z " fill="#020202" transform="translate(0,0)"/>
<path d="M0,0 L2,0 L0,4 L-4,7 L1,10 L0,15 L-6,18 L-12,16 L-12,11 L-12,9 L-18,7 L-16,3 L-11,2 L-15,5 L-6,6 Z " fill="#CFCFCF" transform="translate(21,6)"/>
<path d="M0,0 L6,0 L5,4 L0,9 L-10,8 L-7,5 L-5,5 L-5,2 Z " fill="#121212" transform="translate(15,4)"/>
<path d="M0,0 L5,0 L7,4 L5,5 L-1,5 L-3,4 L-3,2 Z " fill="#0B0B0B" transform="translate(13,16)"/>
<path d="M0,0 L5,0 L4,3 L-5,3 L-1,1 Z " fill="#BBBBBB" transform="translate(15,4)"/>
<path d="M0,0 L2,0 L0,4 L-6,8 L-4,4 Z " fill="#BBBBBB" transform="translate(21,6)"/>
</svg>
