<?xml version="1.0" encoding="UTF-8"?>
<svg version="1.1" xmlns="http://www.w3.org/2000/svg" width="28" height="28">
<path d="M0,0 L28,0 L28,28 L0,28 Z " fill="#020202" transform="translate(0,0)"/>
<path d="M0,0 L5,0 L5,6 L4,9 L4,17 L3,19 L-3,19 L-6,16 L-5,10 L-4,3 Z " fill="#C1C1C1" transform="translate(14,5)"/>
<path d="M0,0 L3,0 L3,5 L7,4 L10,1 L9,7 L3,7 L0,4 Z " fill="#DADADA" transform="translate(8,17)"/>
<path d="M0,0 L2,0 L2,6 L-3,7 L-3,2 Z " fill="#0D0D0D" transform="translate(14,15)"/>
</svg>
