<?xml version="1.0" encoding="UTF-8"?>
<svg version="1.1" xmlns="http://www.w3.org/2000/svg" width="28" height="28">
<path d="M0,0 L28,0 L28,28 L0,28 Z " fill="#030303" transform="translate(0,0)"/>
<path d="M0,0 L5,1 L7,2 L6,6 L3,8 L3,10 L6,12 L6,18 L4,20 L-2,20 L-6,17 L-6,12 L-4,10 L-8,6 L-6,2 Z " fill="#D4D4D4" transform="translate(15,5)"/>
<path d="M0,0 L5,1 L7,5 L5,7 L-1,7 L-2,2 Z " fill="#0B0B0B" transform="translate(13,16)"/>
<path d="M0,0 L3,1 L2,4 L-1,6 L-7,5 L-8,2 Z " fill="#1D1D1D" transform="translate(17,7)"/>
</svg>
