<?xml version="1.0" encoding="UTF-8"?>
<svg version="1.1" xmlns="http://www.w3.org/2000/svg" width="28" height="28">
<path d="M0,0 L28,0 L28,28 L0,28 Z " fill="#020202" transform="translate(0,0)"/>
<path d="M0,0 L5,1 L4,3 L0,4 L-3,9 L5,4 L6,1 L9,2 L7,6 L-1,12 L-4,19 L-10,20 L-11,16 L-10,13 L-7,11 L-5,5 Z " fill="#C3C3C3" transform="translate(16,5)"/>
<path d="M0,0 L1,3 L-6,8 L-8,8 L-7,4 L-4,1 Z " fill="#191919" transform="translate(21,6)"/>
<path d="M0,0 L5,1 L4,3 L0,4 L-5,9 L-4,3 Z " fill="#E5E5E5" transform="translate(16,5)"/>
<path d="M0,0 L3,1 L1,5 L-5,9 L-7,7 L-1,3 Z " fill="#E4E4E4" transform="translate(22,6)"/>
</svg>
