<?xml version="1.0" encoding="UTF-8"?>
<svg version="1.1" xmlns="http://www.w3.org/2000/svg" width="28" height="28">
<path d="M0,0 L28,0 L28,28 L0,28 Z " fill="#040404" transform="translate(0,0)"/>
<path d="M0,0 L7,0 L4,3 L2,3 L2,6 L10,3 L17,3 L16,5 L8,8 L12,13 L11,18 L10,19 L4,19 L1,16 L1,8 L-3,4 L-3,1 Z " fill="#DEDEDE" transform="translate(9,5)"/>
<path d="M0,0 L1,3 L3,3 L3,5 L7,5 L7,2 L10,2 L9,7 L8,8 L2,8 L-1,5 Z " fill="#ECECEC" transform="translate(11,16)"/>
<path d="M0,0 L4,1 L5,5 L1,5 Z " fill="#121212" transform="translate(13,16)"/>
</svg>
