<?xml version="1.0" encoding="UTF-8"?>
<svg version="1.1" xmlns="http://www.w3.org/2000/svg" width="28" height="28">
<path d="M0,0 L28,0 L28,28 L0,28 Z " fill="#020202" transform="translate(0,0)"/>
<path d="M0,0 L2,1 L-1,4 L0,7 L4,4 L6,5 L2,9 L6,11 L5,14 L-2,18 L-7,17 L-6,13 L-3,10 L-3,3 Z " fill="#BDBDBD" transform="translate(14,6)"/>
<path d="M0,0 L4,1 L3,6 L-2,8 L-6,10 L-7,6 L-3,1 Z " fill="#3C3C3C" transform="translate(19,4)"/>
<path d="M0,0 L4,1 L3,4 L-1,6 L-4,6 L-2,2 Z " fill="#080808" transform="translate(13,16)"/>
</svg>
