<?xml version="1.0" encoding="UTF-8"?>
<svg version="1.1" xmlns="http://www.w3.org/2000/svg" width="28" height="28">
<path d="M0,0 L28,0 L28,28 L0,28 Z " fill="#020202" transform="translate(0,0)"/>
<path d="M0,0 L7,1 L7,4 L10,5 L8,11 L9,14 L5,19 L1,20 L0,19 L1,11 L-5,10 L-7,7 L-4,2 Z " fill="#E5E5E5" transform="translate(12,5)"/>
<path d="M0,0 L5,1 L4,5 L-1,7 L-2,6 L-2,1 Z " fill="#DBDBDB" transform="translate(14,18)"/>
<path d="M0,0 L5,1 L4,5 L-3,4 L-3,1 Z " fill="#161616" transform="translate(13,8)"/>
</svg>
