<?xml version="1.0" encoding="UTF-8"?>
<svg version="1.1" xmlns="http://www.w3.org/2000/svg" width="28" height="28">
<path d="M0,0 L28,0 L28,28 L0,28 Z " fill="#020202" transform="translate(0,0)"/>
<path d="M0,0 L5,1 L6,3 L6,10 L9,11 L10,18 L8,20 L2,20 L0,18 L-2,8 L-2,2 Z " fill="#EBEBEB" transform="translate(11,4)"/>
<path d="M0,0 L3,1 L4,6 L-1,7 L-2,2 Z " fill="#1C1C1C" transform="translate(15,15)"/>
<path d="M0,0 L4,2 L3,6 L0,8 L-1,7 L-1,1 Z " fill="#1F1F1F" transform="translate(12,6)"/>
<path d="M0,0 L2,0 L3,7 L0,9 Z " fill="#D5D5D5" transform="translate(18,15)"/>
</svg>
