<?xml version="1.0" encoding="UTF-8"?>
<svg version="1.1" xmlns="http://www.w3.org/2000/svg" width="28" height="28">
<path d="M0,0 L28,0 L28,28 L0,28 Z " fill="#020202" transform="translate(0,0)"/>
<path d="M0,0 L4,0 L5,9 L7,11 L7,17 L4,20 L-1,19 L-2,12 L-1,8 L-3,6 L-2,1 Z " fill="#BABABA" transform="translate(13,5)"/>
<path d="M0,0 L4,5 L4,11 L1,14 L-4,13 L-5,6 L-3,8 L-3,12 L1,11 L1,6 L-2,3 L0,3 Z " fill="#D0D0D0" transform="translate(16,11)"/>
<path d="M0,0 L4,2 L4,7 L-1,8 L-1,2 Z " fill="#111111" transform="translate(14,15)"/>
</svg>
