<?xml version="1.0" encoding="UTF-8"?>
<svg version="1.1" xmlns="http://www.w3.org/2000/svg" width="28" height="28">
<path d="M0,0 L28,0 L28,28 L0,28 Z " fill="#020202" transform="translate(0,0)"/>
<path d="M0,0 L3,1 L1,5 L-7,12 L-9,15 L-10,20 L-15,20 L-15,14 L-16,13 L-16,5 L-15,4 L-9,4 L-8,6 L-14,7 L-13,13 L-11,13 L-9,9 Z " fill="#EDEDED" transform="translate(23,5)"/>
<path d="M0,0 L2,2 L-3,8 L-5,8 L-6,2 Z " fill="#232323" transform="translate(15,10)"/>
<path d="M0,0 L2,0 L3,4 L5,5 L2,8 L0,4 Z " fill="#CDCDCD" transform="translate(7,14)"/>
</svg>
