<?xml version="1.0" encoding="UTF-8"?>
<svg version="1.1" xmlns="http://www.w3.org/2000/svg" width="28" height="28">
<path d="M0,0 L28,0 L28,28 L0,28 Z " fill="#020202" transform="translate(0,0)"/>
<path d="M0,0 L6,1 L6,8 L5,10 L9,13 L9,18 L6,20 L1,20 L-2,17 L-3,10 L-4,9 L-4,4 Z " fill="#EBEBEB" transform="translate(12,4)"/>
<path d="M0,0 L6,1 L6,8 L2,9 L4,2 L-1,5 L-1,9 L1,11 L-1,11 L-1,17 L-2,17 L-3,10 L-4,9 L-4,4 Z " fill="#C1C1C1" transform="translate(12,4)"/>
<path d="M0,0 L3,0 L3,5 L1,8 L-3,7 L-2,2 Z " fill="#080808" transform="translate(13,6)"/>
<path d="M0,0 L5,0 L6,4 L1,5 Z " fill="#111111" transform="translate(13,17)"/>
</svg>
