<?xml version="1.0" encoding="UTF-8"?>
<svg version="1.1" xmlns="http://www.w3.org/2000/svg" width="28" height="28">
<path d="M0,0 L28,0 L28,28 L0,28 Z " fill="#020202" transform="translate(0,0)"/>
<path d="M0,0 L3,0 L3,2 L-4,4 L-4,7 L0,5 L5,1 L7,1 L5,5 L1,9 L-1,9 L-1,15 L-3,19 L-10,20 L-11,16 L-6,11 L-8,7 L-7,2 Z " fill="#B9B9B9" transform="translate(18,5)"/>
<path d="M0,0 L2,2 L-5,8 L-8,7 L-9,4 L-5,2 L0,2 Z " fill="#1D1D1D" transform="translate(21,5)"/>
<path d="M0,0 L3,0 L3,2 L-4,4 L-5,9 L-8,7 L-7,2 Z " fill="#DCDCDC" transform="translate(18,5)"/>
<path d="M0,0 L1,4 L0,6 L-7,7 L-8,3 L-6,3 L-6,5 L-1,3 Z " fill="#F0F0F0" transform="translate(15,18)"/>
</svg>
