<?xml version="1.0" encoding="UTF-8"?>
<svg version="1.1" xmlns="http://www.w3.org/2000/svg" width="28" height="28">
<path d="M0,0 L28,0 L28,28 L0,28 Z " fill="#020202" transform="translate(0,0)"/>
<path d="M0,0 L2,0 L1,5 L-5,11 L-7,11 L-7,19 L-8,20 L-13,20 L-15,16 L-11,12 L-9,6 Z " fill="#C6C6C6" transform="translate(21,4)"/>
<path d="M0,0 L1,2 L0,4 L3,4 L3,6 L-2,5 L-2,1 Z " fill="#E8E8E8" transform="translate(9,18)"/>
<path d="M0,0 L3,1 L-1,5 L-5,6 L-3,3 L-1,3 Z " fill="#999999" transform="translate(19,7)"/>
</svg>
