<?xml version="1.0" encoding="UTF-8"?>
<svg version="1.1" xmlns="http://www.w3.org/2000/svg" width="28" height="28">
<path d="M0,0 L28,0 L28,28 L0,28 Z " fill="#040404" transform="translate(0,0)"/>
<path d="M0,0 L4,1 L-4,5 L-1,8 L-1,10 L3,7 L5,8 L2,11 L0,18 L-2,20 L-7,20 L-6,15 L-2,13 L-6,8 L-5,3 Z " fill="#D1D1D1" transform="translate(16,4)"/>
<path d="M0,0 L4,1 L-4,5 L-1,8 L-2,11 L-6,8 L-5,3 Z " fill="#CFCFCF" transform="translate(16,4)"/>
<path d="M0,0 L4,0 L4,5 L3,6 L-2,6 L-1,1 Z " fill="#979797" transform="translate(11,18)"/>
</svg>
