<?xml version="1.0" encoding="UTF-8"?>
<svg version="1.1" xmlns="http://www.w3.org/2000/svg" width="28" height="28">
<path d="M0,0 L28,0 L28,28 L0,28 Z " fill="#020202" transform="translate(0,0)"/>
<path d="M0,0 L3,1 L-5,7 L-8,9 L-6,13 L-10,20 L-14,19 L-15,14 L-12,3 L-7,2 L-7,4 L-10,5 L-10,8 Z " fill="#D8D8D8" transform="translate(24,5)"/>
<path d="M0,0 L4,0 L4,2 L1,3 L2,10 L-1,12 L-2,16 L1,15 L1,18 L-3,17 L-4,12 L-1,1 Z " fill="#E2E2E2" transform="translate(13,7)"/>
<path d="M0,0 L3,1 L-5,7 L-8,7 L-3,2 Z " fill="#C7C7C7" transform="translate(24,5)"/>
<path d="M0,0 L3,0 L1,4 L0,6 L-2,6 L-1,1 Z " fill="#232323" transform="translate(13,17)"/>
<path d="M0,0 L2,3 L-4,7 L-3,2 L0,2 Z " fill="#333333" transform="translate(17,7)"/>
</svg>
