<?xml version="1.0" encoding="UTF-8"?>
<svg version="1.1" xmlns="http://www.w3.org/2000/svg" width="28" height="28">
<path d="M0,0 L28,0 L28,28 L0,28 Z " fill="#030303" transform="translate(0,0)"/>
<path d="M0,0 L9,1 L15,4 L14,8 L13,9 L12,16 L8,20 L3,20 L2,13 L5,9 L1,7 L-1,1 Z " fill="#DBDBDB" transform="translate(8,5)"/>
<path d="M0,0 L9,1 L10,4 L3,4 L6,7 L5,9 L1,7 L-1,1 Z " fill="#E5E5E5" transform="translate(8,5)"/>
<path d="M0,0 L1,0 L1,5 L-2,8 L-7,8 L-8,1 L-6,1 L-6,5 L0,3 Z " fill="#EDEDED" transform="translate(18,17)"/>
<path d="M0,0 L8,1 L8,5 L2,3 Z " fill="#111111" transform="translate(10,8)"/>
<path d="M0,0 L1,4 L-1,6 L-4,6 L-3,2 Z " fill="#252525" transform="translate(16,16)"/>
</svg>
