<?xml version="1.0" encoding="UTF-8"?>
<svg version="1.1" xmlns="http://www.w3.org/2000/svg" width="28" height="28">
<path d="M0,0 L28,0 L28,28 L0,28 Z " fill="#010101" transform="translate(0,0)"/>
<path d="M0,0 L3,1 L3,11 L5,14 L5,20 L0,20 L-3,16 L-3,9 L-5,7 L-5,2 Z " fill="#A5A5A5" transform="translate(14,5)"/>
<path d="M0,0 L2,0 L2,6 L-3,4 L-2,9 L-5,7 L-5,2 Z " fill="#EBEBEB" transform="translate(14,5)"/>
<path d="M0,0 L2,0 L2,6 L-3,6 L-5,2 L0,3 Z " fill="#E1E1E1" transform="translate(17,19)"/>
</svg>
