<?xml version="1.0" encoding="UTF-8"?>
<svg version="1.1" xmlns="http://www.w3.org/2000/svg" width="28" height="28">
<path d="M0,0 L28,0 L28,28 L0,28 Z " fill="#010101" transform="translate(0,0)"/>
<path d="M0,0 L9,0 L10,4 L9,9 L13,14 L14,19 L9,20 L9,17 L11,17 L9,11 L7,11 L7,17 L5,16 L3,6 L1,6 Z " fill="#E2E2E2" transform="translate(7,5)"/>
<path d="M0,0 L2,0 L4,3 L4,6 L0,8 L-1,6 Z " fill="#595959" transform="translate(14,16)"/>
<path d="M0,0 L2,1 L-1,2 L-1,6 L-5,4 L-5,2 Z " fill="#A4A4A4" transform="translate(14,5)"/>
</svg>
