<?xml version="1.0" encoding="UTF-8"?>
<svg version="1.1" xmlns="http://www.w3.org/2000/svg" width="28" height="28">
<path d="M0,0 L28,0 L28,28 L0,28 Z " fill="#010101" transform="translate(0,0)"/>
<path d="M0,0 L5,0 L7,4 L3,9 L1,9 L2,19 L-2,19 L-4,18 L-5,11 L-2,8 L-1,1 Z " fill="#888888" transform="translate(14,6)"/>
<path d="M0,0 L3,3 L4,3 L4,8 L0,8 L-2,7 L-2,1 Z " fill="#B1B1B1" transform="translate(12,17)"/>
<path d="M0,0 L1,0 L1,5 L3,6 L2,13 L-1,9 L-3,9 L-4,12 L-3,7 L-1,5 Z " fill="#D8D8D8" transform="translate(13,9)"/>
<path d="M0,0 L2,3 L1,7 L-2,4 L-2,1 Z " fill="#111111" transform="translate(12,17)"/>
</svg>
