<?xml version="1.0" encoding="UTF-8"?>
<svg version="1.1" xmlns="http://www.w3.org/2000/svg" width="28" height="28">
<path d="M0,0 L28,0 L28,28 L0,28 Z " fill="#020202" transform="translate(0,0)"/>
<path d="M0,0 L6,0 L9,3 L9,6 L3,10 L5,15 L5,20 L-2,19 L-7,15 L-7,12 L-3,8 L-6,8 L-5,3 Z " fill="#D6D6D6" transform="translate(14,5)"/>
<path d="M0,0 L6,0 L9,3 L9,6 L6,7 L5,3 L-2,3 L0,8 L-2,8 L-3,10 L-3,8 L-6,8 L-5,3 Z " fill="#D5D5D5" transform="translate(14,5)"/>
<path d="M0,0 L2,0 L3,5 L8,6 L8,4 L10,4 L10,9 L3,8 L-2,4 L-2,1 Z " fill="#E4E4E4" transform="translate(9,16)"/>
<path d="M0,0 L5,1 L3,5 L-1,6 L-3,4 L-3,1 Z " fill="#0C0C0C" transform="translate(15,7)"/>
<path d="M0,0 L3,0 L5,5 L0,4 Z " fill="#141414" transform="translate(11,17)"/>
</svg>
