<?xml version="1.0" encoding="UTF-8"?>
<svg version="1.1" xmlns="http://www.w3.org/2000/svg" width="28" height="28">
<path d="M0,0 L28,0 L28,28 L0,28 Z " fill="#030303" transform="translate(0,0)"/>
<path d="M0,0 L5,0 L5,4 L-2,9 L-4,9 L-4,15 L-6,17 L-13,17 L-13,13 L-9,8 L-9,3 L-6,1 Z " fill="#E2E2E2" transform="translate(19,6)"/>
<path d="M0,0 L4,1 L4,9 L2,11 L-5,11 L-5,7 L-1,3 Z " fill="#F0F0F0" transform="translate(11,12)"/>
<path d="M0,0 L2,0 L2,3 L4,3 L4,5 L-1,5 L-1,1 Z " fill="#FAFAFA" transform="translate(7,18)"/>
<path d="M0,0 L2,3 L2,6 L-2,6 L-3,3 Z " fill="#8B8B8B" transform="translate(11,14)"/>
<path d="M0,0 L3,1 L-1,4 L-5,3 L-5,1 Z " fill="#212121" transform="translate(17,9)"/>
</svg>
