<?xml version="1.0" encoding="UTF-8"?>
<svg version="1.1" xmlns="http://www.w3.org/2000/svg" width="28" height="28">
<path d="M0,0 L28,0 L28,28 L0,28 Z " fill="#020202" transform="translate(0,0)"/>
<path d="M0,0 L2,0 L0,5 L-5,10 L-4,17 L-8,20 L-12,19 L-11,14 L-10,11 L-11,6 L-6,2 Z " fill="#D8D8D8" transform="translate(21,5)"/>
<path d="M0,0 L3,0 L5,3 L4,8 L1,10 L-3,9 L-2,4 Z " fill="#E8E8E8" transform="translate(12,15)"/>
<path d="M0,0 L4,0 L3,4 L-2,6 L-1,1 Z " fill="#828282" transform="translate(11,18)"/>
<path d="M0,0 L2,1 L-3,7 L-5,6 L-4,2 Z " fill="#191919" transform="translate(17,8)"/>
</svg>
