<?xml version="1.0" encoding="UTF-8"?>
<svg version="1.1" xmlns="http://www.w3.org/2000/svg" width="28" height="28">
<path d="M0,0 L28,0 L28,28 L0,28 Z " fill="#020202" transform="translate(0,0)"/>
<path d="M0,0 L11,0 L14,3 L12,9 L15,14 L14,19 L13,20 L7,20 L3,17 L3,10 L5,7 L1,6 L-1,5 Z " fill="#DADADA" transform="translate(7,5)"/>
<path d="M0,0 L3,1 L4,6 L-1,6 L-1,1 Z " fill="#101010" transform="translate(14,15)"/>
<path d="M0,0 L1,0 L2,8 L-2,7 L-1,1 Z " fill="#F4F4F4" transform="translate(12,15)"/>
</svg>
