<?xml version="1.0" encoding="UTF-8"?>
<svg version="1.1" xmlns="http://www.w3.org/2000/svg" width="28" height="28">
<path d="M0,0 L28,0 L28,28 L0,28 Z " fill="#020202" transform="translate(0,0)"/>
<path d="M0,0 L5,0 L0,4 L-1,7 L4,3 L5,5 L2,9 L2,17 L-1,20 L-5,19 L-5,13 L-2,10 L-2,2 Z " fill="#CCCCCC" transform="translate(15,4)"/>
<path d="M0,0 L5,0 L0,4 L-1,7 L4,3 L5,5 L2,9 L1,16 L0,16 L0,11 L-2,10 L-2,2 Z " fill="#D8D8D8" transform="translate(15,4)"/>
<path d="M0,0 L1,0 L0,7 L-3,6 L-2,2 Z " fill="#131313" transform="translate(14,15)"/>
</svg>
