<?xml version="1.0" encoding="UTF-8"?>
<svg version="1.1" xmlns="http://www.w3.org/2000/svg" width="28" height="28">
<path d="M0,0 L28,0 L28,28 L0,28 Z " fill="#020202" transform="translate(0,0)"/>
<path d="M0,0 L6,0 L6,5 L1,10 L0,18 L-3,20 L-8,20 L-9,15 L-5,11 L-5,4 Z " fill="#DCDCDC" transform="translate(16,5)"/>
<path d="M0,0 L3,0 L1,5 L-3,7 L-4,3 Z " fill="#1D1D1D" transform="translate(17,7)"/>
<path d="M0,0 L1,0 L1,5 L-2,7 L-7,7 L-8,3 L-7,5 L-1,3 Z " fill="#F0F0F0" transform="translate(15,18)"/>
<path d="M0,0 L1,0 L1,5 L-4,6 L-3,2 Z " fill="#202020" transform="translate(13,17)"/>
</svg>
