<?xml version="1.0" encoding="UTF-8"?>
<svg version="1.1" xmlns="http://www.w3.org/2000/svg" width="28" height="28">
<path d="M0,0 L28,0 L28,28 L0,28 Z " fill="#010101" transform="translate(0,0)"/>
<path d="M0,0 L5,1 L4,4 L-2,4 L-1,7 L7,6 L3,10 L2,19 L-3,20 L-5,17 L-4,12 L-2,8 L-4,8 L-4,3 Z " fill="#E3E3E3" transform="translate(15,5)"/>
<path d="M0,0 L1,0 L1,9 L-4,10 L-6,7 L-5,3 L-1,3 Z " fill="#BDBDBD" transform="translate(16,15)"/>
<path d="M0,0 L2,4 L-6,6 L-7,2 Z " fill="#272727" transform="translate(20,7)"/>
</svg>
