<?xml version="1.0" encoding="UTF-8"?>
<svg version="1.1" xmlns="http://www.w3.org/2000/svg" width="28" height="28">
<path d="M0,0 L28,0 L28,28 L0,28 Z " fill="#020202" transform="translate(0,0)"/>
<path d="M0,0 L7,0 L6,4 L1,9 L-1,9 L-1,16 L-4,20 L-9,20 L-11,18 L-10,13 L-6,10 L-5,3 Z " fill="#E1E1E1" transform="translate(17,5)"/>
<path d="M0,0 L2,0 L2,5 L0,7 L-4,7 L-3,3 Z " fill="#0B0B0B" transform="translate(12,16)"/>
<path d="M0,0 L2,3 L-3,7 L-4,10 L-1,11 L-5,11 L-6,7 Z " fill="#C3C3C3" transform="translate(12,13)"/>
<path d="M0,0 L3,0 L1,4 L-4,6 L-4,2 Z " fill="#202020" transform="translate(18,7)"/>
</svg>
