<?xml version="1.0" encoding="UTF-8"?>
<svg version="1.1" xmlns="http://www.w3.org/2000/svg" width="28" height="28">
<path d="M0,0 L28,0 L28,28 L0,28 Z " fill="#020202" transform="translate(0,0)"/>
<path d="M0,0 L6,1 L8,6 L3,9 L3,12 L4,15 L6,15 L6,19 L1,20 L-2,14 L-6,11 L-5,5 Z " fill="#E0E0E0" transform="translate(13,5)"/>
<path d="M0,0 L5,0 L5,2 L9,3 L9,5 L11,5 L11,9 L6,10 L3,4 L0,2 Z " fill="#EEEEEE" transform="translate(8,15)"/>
<path d="M0,0 L3,0 L1,4 L-2,7 L-4,7 L-3,2 Z " fill="#232323" transform="translate(14,8)"/>
</svg>
