<?xml version="1.0" encoding="UTF-8"?>
<svg version="1.1" xmlns="http://www.w3.org/2000/svg" width="28" height="28">
<path d="M0,0 L28,0 L28,28 L0,28 Z " fill="#020202" transform="translate(0,0)"/>
<path d="M0,0 L4,1 L6,3 L4,9 L8,14 L7,18 L5,20 L0,19 L-1,18 L0,9 L-5,8 L-6,5 L-2,1 Z " fill="#DFDFDF" transform="translate(13,5)"/>
<path d="M0,0 L4,1 L5,6 L0,7 L-1,4 Z " fill="#191919" transform="translate(14,16)"/>
<path d="M0,0 L3,0 L4,4 L2,6 L-3,5 L-1,1 Z " fill="#181818" transform="translate(12,7)"/>
</svg>
