<?xml version="1.0" encoding="UTF-8"?>
<svg version="1.1" xmlns="http://www.w3.org/2000/svg" width="28" height="28">
<path d="M0,0 L28,0 L28,28 L0,28 Z " fill="#020202" transform="translate(0,0)"/>
<path d="M0,0 L4,1 L4,7 L2,11 L6,13 L5,17 L0,20 L-6,20 L-8,16 L-4,10 L-8,9 L-8,5 Z " fill="#D8D8D8" transform="translate(16,4)"/>
<path d="M0,0 L4,1 L4,7 L1,6 L2,4 L-4,6 L-5,8 L-3,9 L-7,10 L-8,5 Z " fill="#DDDDDD" transform="translate(16,4)"/>
<path d="M0,0 L6,4 L5,8 L0,11 L-6,11 L-6,9 L3,7 L2,4 L-3,3 L-3,1 Z " fill="#E6E6E6" transform="translate(16,13)"/>
<path d="M0,0 L5,1 L5,4 L1,6 L-4,5 L-2,1 Z " fill="#151515" transform="translate(14,16)"/>
<path d="M0,0 L4,0 L2,4 L-1,5 L-3,4 L-2,1 Z " fill="#191919" transform="translate(14,8)"/>
<path d="M0,0 L2,1 L2,7 L-1,6 L-2,2 Z " fill="#F5F5F5" transform="translate(18,4)"/>
</svg>
