<?xml version="1.0" encoding="UTF-8"?>
<svg version="1.1" xmlns="http://www.w3.org/2000/svg" width="28" height="28">
<path d="M0,0 L28,0 L28,28 L0,28 Z " fill="#040404" transform="translate(0,0)"/>
<path d="M0,0 L3,0 L2,6 L2,10 L2,15 L-2,19 L-11,20 L-14,19 L-14,15 L-11,12 L-8,11 L-12,8 L-11,4 L-4,1 Z " fill="#E9E9E9" transform="translate(20,4)"/>
<path d="M0,0 L7,1 L7,3 L4,6 L-4,7 L-5,3 Z " fill="#DBDBDB" transform="translate(13,6)"/>
<path d="M0,0 L4,1 L4,4 L2,4 L2,6 L-7,7 L-2,2 Z " fill="#161616" transform="translate(16,14)"/>
<path d="M0,0 L3,0 L3,2 L0,5 L-5,4 L-2,1 Z " fill="#353535" transform="translate(17,7)"/>
</svg>
