<?xml version="1.0" encoding="UTF-8"?>
<svg version="1.1" xmlns="http://www.w3.org/2000/svg" width="28" height="28">
<path d="M0,0 L28,0 L28,28 L0,28 Z " fill="#020202" transform="translate(0,0)"/>
<path d="M0,0 L4,0 L4,2 L-1,4 L-3,8 L-5,9 L0,12 L0,18 L-2,20 L-6,20 L-7,12 L-8,8 L-3,3 Z " fill="#BABABA" transform="translate(18,4)"/>
<path d="M0,0 L4,0 L4,2 L-1,4 L-3,8 L-5,9 L-2,12 L-7,12 L-8,8 L-3,3 Z " fill="#C8C8C8" transform="translate(18,4)"/>
<path d="M0,0 L4,0 L3,4 L0,5 Z " fill="#101010" transform="translate(13,17)"/>
</svg>
