<?xml version="1.0" encoding="UTF-8"?>
<svg version="1.1" xmlns="http://www.w3.org/2000/svg" width="28" height="28">
<path d="M0,0 L28,0 L28,28 L0,28 Z " fill="#040404" transform="translate(0,0)"/>
<path d="M0,0 L5,0 L6,4 L5,8 L2,10 L6,13 L6,17 L1,19 L-13,20 L-14,18 L-10,13 L-6,12 L-9,10 L-9,5 Z " fill="#E2E2E2" transform="translate(17,4)"/>
<path d="M0,0 L3,0 L3,4 L-2,6 L-13,5 L-13,4 L-1,2 Z " fill="#D7D7D7" transform="translate(20,17)"/>
<path d="M0,0 L5,2 L4,4 L0,5 L-8,5 L-7,3 Z " fill="#131313" transform="translate(15,16)"/>
<path d="M0,0 L0,3 L-3,6 L-7,5 L-6,2 Z " fill="#151515" transform="translate(19,7)"/>
<path d="M0,0 L2,0 L2,3 L7,3 L5,5 L-1,5 L-2,3 Z " fill="#F8F8F8" transform="translate(5,19)"/>
</svg>
