<?xml version="1.0" encoding="UTF-8"?>
<svg version="1.1" xmlns="http://www.w3.org/2000/svg" width="28" height="28">
<path d="M0,0 L28,0 L28,28 L0,28 Z " fill="#030303" transform="translate(0,0)"/>
<path d="M0,0 L5,0 L6,5 L11,5 L10,8 L2,10 L3,12 L3,18 L2,20 L-3,19 L-4,14 L-2,2 Z " fill="#F2F2F2" transform="translate(13,6)"/>
<path d="M0,0 L4,3 L6,2 L6,8 L5,10 L0,9 L-1,4 Z " fill="#AAAAAA" transform="translate(10,16)"/>
<path d="M0,0 L5,0 L6,5 L4,5 L4,7 L0,8 Z " fill="#9C9C9C" transform="translate(13,6)"/>
</svg>
