<?xml version="1.0" encoding="UTF-8"?>
<svg version="1.1" xmlns="http://www.w3.org/2000/svg" width="28" height="28">
<path d="M0,0 L28,0 L28,28 L0,28 Z " fill="#020202" transform="translate(0,0)"/>
<path d="M0,0 L3,0 L2,3 L0,3 L1,6 L6,4 L11,0 L14,1 L13,5 L6,9 L5,12 L5,17 L4,14 L-1,14 L-3,18 L-4,17 L-4,12 L-2,8 L-4,3 L-3,1 Z " fill="#E7E7E7" transform="translate(11,6)"/>
<path d="M0,0 L5,1 L5,7 L-1,7 L-1,1 Z " fill="#B3B3B3" transform="translate(10,19)"/>
<path d="M0,0 L4,1 L3,4 L-1,5 Z " fill="#111111" transform="translate(10,19)"/>
</svg>
