<?xml version="1.0" encoding="UTF-8"?>
<svg version="1.1" xmlns="http://www.w3.org/2000/svg" width="28" height="28">
<path d="M0,0 L28,0 L28,28 L0,28 Z " fill="#010101" transform="translate(0,0)"/>
<path d="M0,0 L6,1 L8,5 L6,9 L4,9 L3,17 L0,20 L-6,19 L-5,14 L0,10 L-1,1 Z " fill="#DDDDDD" transform="translate(13,4)"/>
<path d="M0,0 L6,1 L8,5 L6,8 L3,8 L2,3 L-1,4 Z " fill="#979797" transform="translate(13,4)"/>
<path d="M0,0 L2,0 L3,5 L5,5 L6,3 L6,6 L4,6 L3,13 L1,12 L2,9 L-2,10 L-2,8 L0,7 Z " fill="#F2F2F2" transform="translate(13,7)"/>
<path d="M0,0 L2,0 L1,4 L-4,6 L-1,1 Z " fill="#181818" transform="translate(13,16)"/>
</svg>
