<?xml version="1.0" encoding="UTF-8"?>
<svg version="1.1" xmlns="http://www.w3.org/2000/svg" width="28" height="28">
<path d="M0,0 L28,0 L28,28 L0,28 Z " fill="#020202" transform="translate(0,0)"/>
<path d="M0,0 L4,1 L4,3 L9,0 L11,0 L10,4 L2,10 L3,17 L1,20 L-5,20 L-5,18 L-1,17 L0,13 L-4,13 L-5,5 Z " fill="#DCDCDC" transform="translate(13,7)"/>
<path d="M0,0 L4,1 L3,5 L3,3 L-3,5 L-2,10 L-5,8 L-4,3 Z " fill="#E8E8E8" transform="translate(13,7)"/>
<path d="M0,0 L1,2 L5,2 L4,7 L-1,7 Z " fill="#2E2E2E" transform="translate(8,18)"/>
<path d="M0,0 L3,0 L1,4 L-2,6 L-3,2 Z " fill="#272727" transform="translate(13,10)"/>
<path d="M0,0 L2,4 L1,5 L-5,5 L-5,3 L-1,2 Z " fill="#AFAFAF" transform="translate(13,22)"/>
</svg>
