<?xml version="1.0" encoding="UTF-8"?>
<svg version="1.1" xmlns="http://www.w3.org/2000/svg" width="28" height="28">
<path d="M0,0 L28,0 L28,28 L0,28 Z " fill="#020202" transform="translate(0,0)"/>
<path d="M0,0 L7,0 L8,5 L7,9 L9,12 L9,18 L6,20 L2,19 L1,18 L1,8 L-1,5 Z " fill="#C7C7C7" transform="translate(10,5)"/>
<path d="M0,0 L3,1 L3,4 L5,4 L4,7 L-1,8 L-3,6 L-3,1 Z " fill="#9C9C9C" transform="translate(14,17)"/>
<path d="M0,0 L4,1 L4,4 L1,3 L-4,4 L-3,1 Z " fill="#F5F5F5" transform="translate(14,5)"/>
</svg>
