<?xml version="1.0" encoding="UTF-8"?>
<svg version="1.1" xmlns="http://www.w3.org/2000/svg" width="28" height="28">
<path d="M0,0 L28,0 L28,28 L0,28 Z " fill="#010101" transform="translate(0,0)"/>
<path d="M0,0 L4,0 L5,2 L7,1 L5,6 L0,10 L1,18 L-1,20 L-7,19 L-6,13 L-5,12 L-4,3 Z " fill="#D5D5D5" transform="translate(16,5)"/>
<path d="M0,0 L4,0 L5,2 L7,1 L5,6 L1,7 L-3,9 L-4,3 Z " fill="#B6B6B6" transform="translate(16,5)"/>
<path d="M0,0 L2,0 L3,3 L-1,7 L-3,7 L-2,1 Z " fill="#171717" transform="translate(16,7)"/>
<path d="M0,0 L3,1 L3,5 L-1,5 Z " fill="#0E0E0E" transform="translate(12,18)"/>
</svg>
