<?xml version="1.0" encoding="UTF-8"?>
<svg version="1.1" xmlns="http://www.w3.org/2000/svg" width="28" height="28">
<path d="M0,0 L28,0 L28,28 L0,28 Z " fill="#020202" transform="translate(0,0)"/>
<path d="M0,0 L5,0 L4,7 L1,12 L2,19 L-4,20 L-5,18 L0,18 L-1,15 L-3,14 L-7,7 L-6,3 L-2,4 L-3,6 L-5,5 L-1,9 L3,2 L-1,1 Z " fill="#E8E8E8" transform="translate(16,5)"/>
<path d="M0,0 L5,0 L4,7 L2,10 L-1,9 L3,2 L-1,1 Z " fill="#D2D2D2" transform="translate(16,5)"/>
<path d="M0,0 L4,2 L4,5 L-1,5 Z " fill="#787878" transform="translate(12,18)"/>
</svg>
