<?xml version="1.0" encoding="UTF-8"?>
<svg version="1.1" xmlns="http://www.w3.org/2000/svg" width="28" height="28">
<path d="M0,0 L28,0 L28,28 L0,28 Z " fill="#040404" transform="translate(0,0)"/>
<path d="M0,0 L5,1 L7,3 L6,8 L2,11 L2,17 L-1,20 L-6,20 L-7,15 L-4,12 L-5,4 Z " fill="#D5D5D5" transform="translate(15,5)"/>
<path d="M0,0 L5,1 L7,3 L6,8 L2,10 L3,4 L-3,5 L-1,10 L-3,12 L-5,9 L-5,4 Z " fill="#ECECEC" transform="translate(15,5)"/>
<path d="M0,0 L4,1 L2,5 L0,5 L-1,7 L-3,5 L-3,2 Z " fill="#222222" transform="translate(15,8)"/>
</svg>
