<?xml version="1.0" encoding="UTF-8"?>
<svg version="1.1" xmlns="http://www.w3.org/2000/svg" width="28" height="28">
<path d="M0,0 L28,0 L28,28 L0,28 Z " fill="#020202" transform="translate(0,0)"/>
<path d="M0,0 L6,0 L9,2 L8,6 L6,9 L4,9 L9,14 L7,19 L0,20 L-3,18 L-2,11 L-7,7 L-6,1 Z " fill="#E8E8E8" transform="translate(13,5)"/>
<path d="M0,0 L5,1 L4,5 L2,7 L-3,6 L-5,4 L-5,1 Z " fill="#161616" transform="translate(14,7)"/>
<path d="M0,0 L4,2 L2,7 L-4,8 L-1,6 L-6,4 L-4,1 Z " fill="#CDCDCD" transform="translate(18,17)"/>
<path d="M0,0 L6,0 L9,2 L8,6 L5,9 L5,6 L5,3 L-3,3 L-6,1 Z " fill="#CACACA" transform="translate(13,5)"/>
<path d="M0,0 L4,1 L4,4 L-1,4 L-1,1 Z " fill="#141414" transform="translate(14,18)"/>
</svg>
