<?xml version="1.0" encoding="UTF-8"?>
<svg version="1.1" xmlns="http://www.w3.org/2000/svg" width="28" height="28">
<path d="M0,0 L28,0 L28,28 L0,28 Z " fill="#030303" transform="translate(0,0)"/>
<path d="M0,0 L4,1 L2,6 L1,10 L3,14 L-1,20 L-7,20 L-10,17 L-9,11 L-6,7 L-9,5 L-9,3 Z " fill="#C9C9C9" transform="translate(18,5)"/>
<path d="M0,0 L2,4 L8,5 L7,8 L1,8 L-2,5 L-1,1 Z " fill="#E3E3E3" transform="translate(10,17)"/>
<path d="M0,0 L3,1 L4,6 L-2,7 L-3,3 Z " fill="#0C0C0C" transform="translate(14,15)"/>
<path d="M0,0 L4,1 L2,5 L1,3 L-5,3 L-4,1 Z " fill="#E9E9E9" transform="translate(18,5)"/>
</svg>
