<?xml version="1.0" encoding="UTF-8"?>
<svg version="1.1" xmlns="http://www.w3.org/2000/svg" width="28" height="28">
<path d="M0,0 L28,0 L28,28 L0,28 Z " fill="#030303" transform="translate(0,0)"/>
<path d="M0,0 L7,0 L7,2 L13,1 L15,2 L15,4 L8,7 L8,9 L10,11 L10,16 L7,19 L2,18 L-1,15 L-3,9 L-5,5 Z " fill="#E7E7E7" transform="translate(10,6)"/>
<path d="M0,0 L5,1 L5,3 L-2,6 L-2,8 L0,12 L-3,14 L-9,14 L-8,10 L-4,9 L-5,5 Z " fill="#DBDBDB" transform="translate(20,7)"/>
<path d="M0,0 L2,1 L1,2 L6,2 L4,6 L-3,7 L-5,7 L-3,2 Z " fill="#D4D4D4" transform="translate(10,6)"/>
<path d="M0,0 L5,1 L4,5 L-2,5 L-1,1 Z " fill="#1D1D1D" transform="translate(13,16)"/>
<path d="M0,0 L0,3 L-3,5 L-7,4 L-3,1 Z " fill="#181818" transform="translate(15,8)"/>
</svg>
