<?xml version="1.0" encoding="UTF-8"?>
<svg version="1.1" xmlns="http://www.w3.org/2000/svg" width="28" height="28">
<path d="M0,0 L28,0 L28,28 L0,28 Z " fill="#020202" transform="translate(0,0)"/>
<path d="M0,0 L4,1 L6,5 L6,10 L10,13 L9,18 L6,20 L-4,20 L-6,19 L-6,14 L-3,12 L-6,9 L-5,4 Z " fill="#DFDFDF" transform="translate(13,4)"/>
<path d="M0,0 L7,1 L8,5 L2,7 L-5,6 L-3,2 Z " fill="#0C0C0C" transform="translate(13,16)"/>
<path d="M0,0 L7,1 L7,5 L1,6 L-2,4 Z " fill="#101010" transform="translate(10,8)"/>
<path d="M0,0 L4,1 L4,4 L1,4 L-5,6 L-3,2 Z " fill="#B7B7B7" transform="translate(13,4)"/>
</svg>
