<?xml version="1.0" encoding="UTF-8"?>
<svg version="1.1" xmlns="http://www.w3.org/2000/svg" width="28" height="28">
<path d="M0,0 L28,0 L28,28 L0,28 Z " fill="#030303" transform="translate(0,0)"/>
<path d="M0,0 L7,0 L9,2 L8,7 L4,11 L5,20 L0,19 L-4,15 L-3,12 L-1,11 L-3,4 L0,5 L1,8 L6,6 L7,2 L0,2 Z " fill="#DFDFDF" transform="translate(12,5)"/>
<path d="M0,0 L7,0 L9,2 L8,7 L4,11 L1,9 L6,6 L7,2 L0,2 Z " fill="#E3E3E3" transform="translate(12,5)"/>
<path d="M0,0 L5,1 L6,6 L3,7 L-1,3 Z " fill="#7D7D7D" transform="translate(9,17)"/>
</svg>
