<?xml version="1.0" encoding="UTF-8"?>
<svg version="1.1" xmlns="http://www.w3.org/2000/svg" width="28" height="28">
<path d="M0,0 L28,0 L28,28 L0,28 Z " fill="#020202" transform="translate(0,0)"/>
<path d="M0,0 L3,0 L3,2 L-4,6 L-5,9 L4,9 L7,4 L3,6 L3,3 L8,3 L9,7 L6,12 L9,13 L8,17 L3,20 L-1,19 L-2,15 L0,13 L-7,10 L-6,4 Z " fill="#CECECE" transform="translate(13,4)"/>
<path d="M0,0 L1,2 L4,3 L0,5 L4,4 L3,8 L1,10 L-6,10 L-8,9 L-7,5 L-3,2 L0,2 Z " fill="#1C1C1C" transform="translate(16,4)"/>
<path d="M0,0 L3,0 L3,2 L-4,6 L-5,9 L2,10 L2,11 L-6,11 L-7,6 L-2,1 Z " fill="#DFDFDF" transform="translate(13,4)"/>
<path d="M0,0 L5,2 L4,6 L-1,9 L-5,8 L-5,7 L3,5 L2,3 L-1,1 Z " fill="#DFDFDF" transform="translate(17,15)"/>
<path d="M0,0 L4,1 L4,3 L1,5 L-3,5 L-1,1 Z " fill="#171717" transform="translate(16,17)"/>
</svg>
