<?xml version="1.0" encoding="UTF-8"?>
<svg version="1.1" xmlns="http://www.w3.org/2000/svg" width="28" height="28">
<path d="M0,0 L28,0 L28,28 L0,28 Z " fill="#020202" transform="translate(0,0)"/>
<path d="M0,0 L8,0 L12,2 L12,5 L6,8 L6,16 L5,19 L-1,20 L-2,15 L0,10 L-1,1 Z " fill="#CACACA" transform="translate(11,6)"/>
<path d="M0,0 L8,0 L12,2 L12,5 L7,6 L7,3 L2,3 L3,7 L0,7 L-1,1 Z " fill="#E2E2E2" transform="translate(11,6)"/>
<path d="M0,0 L5,0 L5,3 L0,4 L-1,1 Z " fill="#242424" transform="translate(13,8)"/>
<path d="M0,0 L2,4 L5,6 L0,7 L-1,2 Z " fill="#E5E5E5" transform="translate(10,19)"/>
<path d="M0,0 L2,2 L1,6 L-2,6 L-1,1 Z " fill="#0D0D0D" transform="translate(13,17)"/>
</svg>
