<?xml version="1.0" encoding="UTF-8"?>
<svg version="1.1" xmlns="http://www.w3.org/2000/svg" width="28" height="28">
<path d="M0,0 L28,0 L28,28 L0,28 Z " fill="#020202" transform="translate(0,0)"/>
<path d="M0,0 L6,1 L7,6 L4,9 L-2,11 L-2,18 L-5,20 L-10,19 L-11,15 L-6,11 L-4,2 Z " fill="#D3D3D3" transform="translate(16,6)"/>
<path d="M0,0 L6,1 L7,6 L4,9 L-1,9 L2,7 L4,6 L4,3 L2,3 L2,5 L-4,5 L-3,1 Z " fill="#D1D1D1" transform="translate(16,6)"/>
<path d="M0,0 L4,1 L3,5 L-4,8 L-3,3 L1,3 Z " fill="#191919" transform="translate(17,8)"/>
<path d="M0,0 L6,0 L5,4 L-1,4 Z " fill="#E8E8E8" transform="translate(13,7)"/>
<path d="M0,0 L3,0 L2,5 L-3,5 L-3,2 Z " fill="#151515" transform="translate(10,19)"/>
</svg>
