<?xml version="1.0" encoding="UTF-8"?>
<svg version="1.1" xmlns="http://www.w3.org/2000/svg" width="28" height="28">
<path d="M0,0 L28,0 L28,28 L0,28 Z " fill="#010101" transform="translate(0,0)"/>
<path d="M0,0 L1,3 L-3,6 L-5,6 L-7,14 L-4,14 L-4,17 L-10,16 L-9,8 L-8,4 L-4,3 Z " fill="#D9D9D9" transform="translate(20,7)"/>
<path d="M0,0 L6,0 L6,2 L4,3 L1,8 L-4,6 L-3,2 Z " fill="#666666" transform="translate(14,4)"/>
<path d="M0,0 L2,2 L2,10 L1,8 L-2,8 L-1,2 Z " fill="#6C6C6C" transform="translate(15,13)"/>
</svg>
