<?xml version="1.0" encoding="UTF-8"?>
<svg version="1.1" xmlns="http://www.w3.org/2000/svg" width="28" height="28">
<path d="M0,0 L28,0 L28,28 L0,28 Z " fill="#010101" transform="translate(0,0)"/>
<path d="M0,0 L8,0 L9,3 L11,4 L9,8 L5,9 L5,19 L-1,20 L-3,17 L-2,11 L0,9 L0,4 L-1,2 Z " fill="#878787" transform="translate(12,4)"/>
<path d="M0,0 L8,0 L9,3 L11,4 L10,6 L4,7 L2,6 L2,4 L-1,3 Z " fill="#555555" transform="translate(12,4)"/>
<path d="M0,0 L3,1 L1,7 L5,7 L6,4 L6,9 L0,10 L-2,7 L-1,1 Z " fill="#E0E0E0" transform="translate(11,14)"/>
<path d="M0,0 L3,1 L1,7 L-2,7 L-1,1 Z " fill="#C8C8C8" transform="translate(11,14)"/>
</svg>
