<?xml version="1.0" encoding="UTF-8"?>
<svg version="1.1" xmlns="http://www.w3.org/2000/svg" width="28" height="28">
<path d="M0,0 L28,0 L28,28 L0,28 Z " fill="#020202" transform="translate(0,0)"/>
<path d="M0,0 L2,0 L2,3 L-3,5 L-3,7 L0,8 L2,4 L5,3 L7,5 L3,7 L2,16 L-1,20 L-5,19 L-4,14 L-2,10 L-7,8 L-6,4 L-3,1 Z " fill="#DBDBDB" transform="translate(16,5)"/>
<path d="M0,0 L2,0 L2,3 L-3,5 L-6,8 L-7,5 L-3,1 Z " fill="#CECECE" transform="translate(16,5)"/>
<path d="M0,0 L3,0 L1,5 L-3,4 L-2,1 Z " fill="#181818" transform="translate(15,8)"/>
<path d="M0,0 L3,2 L-1,4 L-3,8 L-4,3 Z " fill="#D0D0D0" transform="translate(20,8)"/>
</svg>
