<?xml version="1.0" encoding="UTF-8"?>
<svg version="1.1" xmlns="http://www.w3.org/2000/svg" width="28" height="28">
<path d="M0,0 L28,0 L28,28 L0,28 Z " fill="#020202" transform="translate(0,0)"/>
<path d="M0,0 L4,1 L3,5 L-3,10 L-6,12 L-8,19 L-14,19 L-16,17 L-15,13 L-10,10 L-9,3 L-7,1 Z " fill="#A6A6A6" transform="translate(21,6)"/>
<path d="M0,0 L4,1 L3,5 L-3,10 L-5,10 L-5,8 L0,5 L1,2 L-1,2 L-2,4 L-6,5 L-6,2 Z " fill="#E0E0E0" transform="translate(21,6)"/>
<path d="M0,0 L2,0 L1,4 L-5,8 L-7,8 L-7,4 L-4,4 L-3,1 Z " fill="#323232" transform="translate(20,8)"/>
<path d="M0,0 L8,0 L7,3 L1,3 Z " fill="#E3E3E3" transform="translate(6,22)"/>
</svg>
