<?xml version="1.0" encoding="UTF-8"?>
<svg version="1.1" xmlns="http://www.w3.org/2000/svg" width="28" height="28">
<path d="M0,0 L28,0 L28,28 L0,28 Z " fill="#020202" transform="translate(0,0)"/>
<path d="M0,0 L5,0 L8,3 L8,5 L10,6 L6,8 L6,10 L10,12 L12,15 L11,19 L10,20 L4,20 L1,16 L1,11 L1,8 L-2,5 L-1,1 Z " fill="#C1C1C1" transform="translate(9,5)"/>
<path d="M0,0 L4,1 L6,3 L6,7 L0,7 L-1,1 Z " fill="#0D0D0D" transform="translate(13,16)"/>
<path d="M0,0 L5,0 L6,5 L4,6 L-1,1 Z " fill="#0B0B0B" transform="translate(9,7)"/>
</svg>
