<?xml version="1.0" encoding="UTF-8"?>
<svg version="1.1" xmlns="http://www.w3.org/2000/svg" width="28" height="28">
<path d="M0,0 L28,0 L28,28 L0,28 Z " fill="#020202" transform="translate(0,0)"/>
<path d="M0,0 L7,0 L9,2 L8,7 L3,11 L-2,12 L-3,17 L-5,20 L-11,19 L-9,14 L-6,12 L-4,2 Z " fill="#CBCBCB" transform="translate(16,5)"/>
<path d="M0,0 L5,0 L4,5 L0,8 L-3,8 L-4,5 L-2,5 L-1,1 Z " fill="#0C0C0C" transform="translate(17,7)"/>
<path d="M0,0 L2,0 L3,2 L6,2 L4,5 L-2,4 Z " fill="#DFDFDF" transform="translate(7,20)"/>
</svg>
