<?xml version="1.0" encoding="UTF-8"?>
<svg version="1.1" xmlns="http://www.w3.org/2000/svg" width="28" height="28">
<path d="M0,0 L28,0 L28,28 L0,28 Z " fill="#020202" transform="translate(0,0)"/>
<path d="M0,0 L5,1 L6,6 L11,6 L11,9 L3,9 L3,12 L2,19 L-3,20 L-4,19 L-5,9 L-6,8 L-6,3 Z " fill="#E5E5E5" transform="translate(14,5)"/>
<path d="M0,0 L5,1 L6,6 L11,6 L11,9 L-2,8 L-4,2 Z " fill="#DADADA" transform="translate(14,5)"/>
<path d="M0,0 L6,0 L7,3 L4,5 L-1,4 Z " fill="#161616" transform="translate(12,8)"/>
<path d="M0,0 L3,0 L4,6 L-1,7 L-2,5 L0,5 Z " fill="#8D8D8D" transform="translate(12,18)"/>
<path d="M0,0 L1,4 L6,4 L6,7 L-1,5 Z " fill="#B2B2B2" transform="translate(19,7)"/>
</svg>
