<?xml version="1.0" encoding="UTF-8"?>
<svg version="1.1" xmlns="http://www.w3.org/2000/svg" width="28" height="28">
<path d="M0,0 L28,0 L28,28 L0,28 Z " fill="#020202" transform="translate(0,0)"/>
<path d="M0,0 L5,1 L6,8 L6,12 L7,13 L7,19 L0,20 L-3,17 L-1,10 L-7,6 L-6,1 Z " fill="#E2E2E2" transform="translate(14,5)"/>
<path d="M0,0 L3,2 L3,8 L-4,9 L-6,8 L-5,4 L-4,6 L0,7 Z " fill="#E2E2E2" transform="translate(18,16)"/>
<path d="M0,0 L5,0 L3,1 L4,4 L3,6 L-2,4 L-4,2 Z " fill="#232323" transform="translate(13,7)"/>
<path d="M0,0 L2,0 L2,6 L-2,5 L-1,1 Z " fill="#373737" transform="translate(16,17)"/>
</svg>
