<?xml version="1.0" encoding="UTF-8"?>
<svg version="1.1" xmlns="http://www.w3.org/2000/svg" width="28" height="28">
<path d="M0,0 L28,0 L28,28 L0,28 Z " fill="#030303" transform="translate(0,0)"/>
<path d="M0,0 L5,1 L6,5 L1,11 L6,12 L5,17 L0,20 L-6,20 L-7,17 L-4,12 L-6,8 L-6,4 L-4,4 L-4,1 Z " fill="#DFDFDF" transform="translate(15,5)"/>
<path d="M0,0 L5,1 L4,4 L2,3 L-3,6 L-4,8 L-6,8 L-6,4 L-4,4 L-4,1 Z " fill="#E3E3E3" transform="translate(15,5)"/>
<path d="M0,0 L6,1 L5,4 L1,6 L-2,6 L-1,1 Z " fill="#141414" transform="translate(13,17)"/>
<path d="M0,0 L2,0 L1,5 L6,4 L5,7 L-1,7 L-2,4 Z " fill="#DBDBDB" transform="translate(10,18)"/>
<path d="M0,0 L2,2 L-3,7 L-6,6 L-4,2 Z " fill="#141414" transform="translate(17,7)"/>
</svg>
