<?xml version="1.0" encoding="UTF-8"?>
<svg version="1.1" xmlns="http://www.w3.org/2000/svg" width="28" height="28">
<path d="M0,0 L28,0 L28,28 L0,28 Z " fill="#030303" transform="translate(0,0)"/>
<path d="M0,0 L12,0 L14,1 L13,3 L4,3 L4,5 L9,6 L15,3 L19,3 L19,5 L9,8 L9,10 L13,12 L13,16 L10,18 L3,17 L1,15 L1,11 L4,8 L0,6 L-1,1 Z " fill="#E6E6E6" transform="translate(7,7)"/>
<path d="M0,0 L4,2 L-5,6 L-10,5 L-12,2 L-10,1 L-1,1 Z " fill="#1B1B1B" transform="translate(21,8)"/>
<path d="M0,0 L12,0 L14,1 L13,3 L4,3 L1,4 L-1,3 Z " fill="#DCDCDC" transform="translate(7,7)"/>
<path d="M0,0 L5,0 L6,4 L-1,4 Z " fill="#252525" transform="translate(11,18)"/>
<path d="M0,0 L1,4 L-2,6 L-6,5 L-6,3 L-2,3 L-1,1 Z " fill="#C6C6C6" transform="translate(19,19)"/>
</svg>
