<?xml version="1.0" encoding="UTF-8"?>
<svg version="1.1" xmlns="http://www.w3.org/2000/svg" width="28" height="28">
<path d="M0,0 L28,0 L28,28 L0,28 Z " fill="#040404" transform="translate(0,0)"/>
<path d="M0,0 L11,1 L9,5 L4,8 L3,17 L-1,20 L-6,20 L-7,19 L-7,13 L-5,10 L-3,10 L-3,4 Z " fill="#CBCBCB" transform="translate(14,5)"/>
<path d="M0,0 L1,0 L1,6 L3,6 L3,12 L-1,14 L-1,16 L-4,15 L-4,9 L-2,6 L0,6 Z " fill="#C8C8C8" transform="translate(11,9)"/>
<path d="M0,0 L9,1 L7,5 L3,7 L2,4 L3,3 L-1,1 Z " fill="#F1F1F1" transform="translate(16,5)"/>
<path d="M0,0 L2,0 L2,5 L-3,6 L-1,1 Z " fill="#0D0D0D" transform="translate(12,16)"/>
</svg>
