<?xml version="1.0" encoding="UTF-8"?>
<svg version="1.1" xmlns="http://www.w3.org/2000/svg" width="28" height="28">
<path d="M0,0 L28,0 L28,28 L0,28 Z " fill="#020202" transform="translate(0,0)"/>
<path d="M0,0 L6,1 L7,5 L1,3 L2,6 L9,6 L7,10 L5,10 L4,17 L1,20 L-3,19 L-5,17 L-5,12 L-1,9 L-2,1 Z " fill="#E6E6E6" transform="translate(13,4)"/>
<path d="M0,0 L3,1 L1,6 L-4,7 L-6,4 L-1,2 Z " fill="#ECECEC" transform="translate(15,17)"/>
<path d="M0,0 L7,1 L7,4 L1,4 Z " fill="#343434" transform="translate(14,7)"/>
<path d="M0,0 L5,0 L6,4 L0,2 L-1,4 L-1,1 Z " fill="#F3F3F3" transform="translate(14,5)"/>
<path d="M0,0 L3,1 L0,5 L-3,5 L-1,1 Z " fill="#292929" transform="translate(13,16)"/>
</svg>
