<?xml version="1.0" encoding="UTF-8"?>
<svg version="1.1" xmlns="http://www.w3.org/2000/svg" width="28" height="28">
<path d="M0,0 L28,0 L28,28 L0,28 Z " fill="#050505" transform="translate(0,0)"/>
<path d="M0,0 L10,0 L10,2 L1,3 L3,10 L10,5 L12,5 L12,3 L15,2 L15,5 L13,5 L13,7 L5,12 L5,17 L4,18 L-3,18 L-5,17 L-3,13 L-1,12 L-2,3 Z " fill="#BDBDBD" transform="translate(11,6)"/>
<path d="M0,0 L10,0 L10,2 L1,3 L2,9 L-1,8 L-2,3 Z " fill="#EBEBEB" transform="translate(11,6)"/>
<path d="M0,0 L2,0 L2,2 L8,3 L8,4 L1,4 L-1,3 Z " fill="#EDEDED" transform="translate(7,20)"/>
</svg>
