<?xml version="1.0" encoding="UTF-8"?>
<svg version="1.1" xmlns="http://www.w3.org/2000/svg" width="28" height="28">
<path d="M0,0 L28,0 L28,28 L0,28 Z " fill="#040404" transform="translate(0,0)"/>
<path d="M0,0 L2,0 L0,4 L-3,7 L-9,10 L-11,14 L-17,14 L-18,10 L-14,7 L-6,4 Z " fill="#EDEDED" transform="translate(24,9)"/>
<path d="M0,0 L3,1 L1,5 L-5,5 L-6,2 Z " fill="#838383" transform="translate(12,18)"/>
<path d="M0,0 L10,0 L10,1 L2,2 L2,8 L-1,4 Z " fill="#D3D3D3" transform="translate(11,7)"/>
<path d="M0,0 L2,0 L0,4 L-3,7 L-5,7 L-6,4 Z " fill="#CFCFCF" transform="translate(24,9)"/>
</svg>
