<?xml version="1.0" encoding="UTF-8"?>
<svg version="1.1" xmlns="http://www.w3.org/2000/svg" width="28" height="28">
<path d="M0,0 L28,0 L28,28 L0,28 Z " fill="#040404" transform="translate(0,0)"/>
<path d="M0,0 L4,1 L3,8 L1,8 L1,10 L5,11 L0,12 L-1,16 L-2,14 L-2,17 L1,17 L0,20 L-4,19 L-5,14 L-4,13 L-3,2 Z " fill="#C3C3C3" transform="translate(15,4)"/>
<path d="M0,0 L1,0 L1,6 L5,8 L3,9 L2,13 L1,11 L1,14 L4,14 L3,17 L-1,16 L-2,11 L-1,10 Z " fill="#ECECEC" transform="translate(12,7)"/>
<path d="M0,0 L2,0 L2,5 L-2,6 L-1,1 Z " fill="#202020" transform="translate(15,6)"/>
</svg>
