<?xml version="1.0" encoding="UTF-8"?>
<svg version="1.1" xmlns="http://www.w3.org/2000/svg" width="28" height="28">
<path d="M0,0 L28,0 L28,28 L0,28 Z " fill="#040404" transform="translate(0,0)"/>
<path d="M0,0 L7,0 L7,2 L0,3 L1,9 L9,6 L13,4 L14,1 L15,3 L10,9 L3,10 L4,17 L1,18 L-3,16 L-5,12 L-4,10 L-1,10 L-3,3 Z " fill="#C7C7C7" transform="translate(11,6)"/>
<path d="M0,0 L2,3 L1,7 L-5,5 L-5,1 Z " fill="#757575" transform="translate(13,17)"/>
<path d="M0,0 L2,2 L-3,8 L-10,10 L-12,12 L-13,9 L-3,4 L0,3 Z " fill="#E6E6E6" transform="translate(24,7)"/>
</svg>
