<?xml version="1.0" encoding="UTF-8"?>
<svg version="1.1" xmlns="http://www.w3.org/2000/svg" width="28" height="28">
<path d="M0,0 L28,0 L28,28 L0,28 Z " fill="#010101" transform="translate(0,0)"/>
<path d="M0,0 L7,0 L7,2 L10,3 L9,6 L0,12 L0,18 L-3,17 L-2,13 L-7,15 L-5,18 L-9,17 L-10,13 L-5,10 L-7,4 L-2,1 Z " fill="#CACACA" transform="translate(15,6)"/>
<path d="M0,0 L3,1 L2,4 L-7,10 L-7,16 L-10,15 L-9,11 L-12,10 L-3,3 Z " fill="#E3E3E3" transform="translate(22,8)"/>
<path d="M0,0 L3,1 L2,4 L-3,7 L-8,7 L-9,3 Z " fill="#0A0A0A" transform="translate(19,7)"/>
</svg>
