<?xml version="1.0" encoding="UTF-8"?>
<svg version="1.1" xmlns="http://www.w3.org/2000/svg" width="28" height="28">
<path d="M0,0 L28,0 L28,28 L0,28 Z " fill="#030303" transform="translate(0,0)"/>
<path d="M0,0 L5,1 L4,6 L4,10 L5,15 L-1,20 L-8,20 L-9,15 L-4,9 L-4,7 L-7,5 L-7,2 L-3,2 L-3,5 L1,4 L2,2 L-1,1 Z " fill="#E6E6E6" transform="translate(16,5)"/>
<path d="M0,0 L3,0 L3,5 L-4,8 L-5,5 Z " fill="#141414" transform="translate(15,15)"/>
<path d="M0,0 L4,2 L2,6 L-1,5 L-1,2 L-4,1 Z " fill="#727272" transform="translate(14,5)"/>
</svg>
