<?xml version="1.0" encoding="UTF-8"?>
<svg version="1.1" xmlns="http://www.w3.org/2000/svg" width="28" height="28">
<path d="M0,0 L28,0 L28,28 L0,28 Z " fill="#040404" transform="translate(0,0)"/>
<path d="M0,0 L5,1 L11,3 L6,9 L12,10 L15,14 L14,19 L6,19 L1,14 L1,9 L-4,7 L-5,3 L-4,1 Z " fill="#E5E5E5" transform="translate(9,5)"/>
<path d="M0,0 L5,1 L3,7 L-5,6 L-4,1 Z " fill="#D9D9D9" transform="translate(9,5)"/>
<path d="M0,0 L9,3 L9,5 L1,5 Z " fill="#101010" transform="translate(13,16)"/>
<path d="M0,0 L6,0 L6,4 L0,3 Z " fill="#2F2F2F" transform="translate(6,8)"/>
<path d="M0,0 L5,2 L6,4 L-2,3 L0,2 Z " fill="#C5C5C5" transform="translate(17,14)"/>
</svg>
