<?xml version="1.0" encoding="UTF-8"?>
<svg version="1.1" xmlns="http://www.w3.org/2000/svg" width="28" height="28">
<path d="M0,0 L28,0 L28,28 L0,28 Z " fill="#020202" transform="translate(0,0)"/>
<path d="M0,0 L6,0 L10,3 L10,6 L5,7 L6,13 L7,18 L5,20 L0,20 L-3,15 L-2,6 L-1,1 Z " fill="#D6D6D6" transform="translate(12,5)"/>
<path d="M0,0 L6,0 L10,3 L10,6 L7,6 L6,4 L-1,3 Z " fill="#F3F3F3" transform="translate(12,5)"/>
<path d="M0,0 L1,4 L5,3 L6,1 L8,1 L7,6 L6,7 L1,7 L-1,4 Z " fill="#E6E6E6" transform="translate(11,18)"/>
<path d="M0,0 L4,0 L3,3 L-2,4 L-2,1 Z " fill="#191919" transform="translate(14,8)"/>
<path d="M0,0 L2,0 L3,5 L-1,5 Z " fill="#2C2C2C" transform="translate(13,17)"/>
</svg>
