<?xml version="1.0" encoding="UTF-8"?>
<svg version="1.1" xmlns="http://www.w3.org/2000/svg" width="28" height="28">
<path d="M0,0 L28,0 L28,28 L0,28 Z " fill="#020202" transform="translate(0,0)"/>
<path d="M0,0 L2,0 L1,3 L-7,9 L-5,13 L-5,16 L-7,16 L-7,18 L-13,20 L-15,18 L-15,12 L-13,8 L-18,6 L-18,3 L-15,1 L-8,1 L-7,3 L-13,4 L-13,6 L-9,5 Z " fill="#E3E3E3" transform="translate(24,5)"/>
<path d="M0,0 L5,2 L5,5 L3,5 L3,7 L-3,9 L-4,6 Z " fill="#AAAAAA" transform="translate(14,16)"/>
<path d="M0,0 L8,0 L3,4 L-1,3 Z " fill="#191919" transform="translate(11,8)"/>
</svg>
