<?xml version="1.0" encoding="UTF-8"?>
<svg version="1.1" xmlns="http://www.w3.org/2000/svg" width="28" height="28">
<path d="M0,0 L28,0 L28,28 L0,28 Z " fill="#030303" transform="translate(0,0)"/>
<path d="M0,0 L7,1 L3,3 L-1,3 L-1,5 L10,5 L10,7 L7,7 L6,12 L-1,15 L-9,15 L-9,11 L-4,8 L-2,8 L-2,6 L-4,6 L-4,2 Z " fill="#DCDCDC" transform="translate(15,6)"/>
<path d="M0,0 L2,3 L-6,7 L-14,7 L-13,4 L-12,6 L-1,2 Z " fill="#E8E8E8" transform="translate(20,14)"/>
<path d="M0,0 L4,0 L3,3 L-3,5 L-7,4 Z " fill="#212121" transform="translate(16,14)"/>
<path d="M0,0 L1,2 L0,4 L-8,4 L-8,2 Z " fill="#242424" transform="translate(22,7)"/>
</svg>
