<?xml version="1.0" encoding="UTF-8"?>
<svg version="1.1" xmlns="http://www.w3.org/2000/svg" width="28" height="28">
<path d="M0,0 L28,0 L28,28 L0,28 Z " fill="#020202" transform="translate(0,0)"/>
<path d="M0,0 L4,1 L4,6 L1,8 L3,12 L2,17 L-3,20 L-5,19 L-5,11 L-5,9 L-7,6 L-6,2 Z " fill="#EFEFEF" transform="translate(16,6)"/>
<path d="M0,0 L2,2 L4,0 L8,1 L7,6 L2,9 L0,8 Z " fill="#C3C3C3" transform="translate(11,17)"/>
<path d="M0,0 L8,1 L7,4 L5,4 L5,6 L1,7 L-1,4 Z " fill="#E0E0E0" transform="translate(10,8)"/>
<path d="M0,0 L5,0 L4,3 L0,4 Z " fill="#262626" transform="translate(13,9)"/>
<path d="M0,0 L3,2 L3,5 L-1,6 Z " fill="#3E3E3E" transform="translate(14,17)"/>
</svg>
