<?xml version="1.0" encoding="UTF-8"?>
<svg version="1.1" xmlns="http://www.w3.org/2000/svg" width="28" height="28">
<path d="M0,0 L28,0 L28,28 L0,28 Z " fill="#010101" transform="translate(0,0)"/>
<path d="M0,0 L4,1 L6,3 L5,11 L5,18 L4,20 L-2,20 L-4,19 L-4,13 L-2,13 L-3,3 Z " fill="#FAFAFA" transform="translate(13,4)"/>
<path d="M0,0 L2,1 L3,4 L5,4 L4,10 L1,10 L0,7 L-2,11 L-2,5 L0,5 Z " fill="#6E6E6E" transform="translate(11,12)"/>
<path d="M0,0 L1,0 L1,7 L0,9 L-6,9 L-7,4 L-5,3 L-5,7 L-2,7 Z " fill="#F0F0F0" transform="translate(17,15)"/>
<path d="M0,0 L6,0 L5,5 L3,8 L3,5 L0,4 Z " fill="#777777" transform="translate(13,7)"/>
<path d="M0,0 L4,1 L5,5 L4,3 L0,3 L-1,6 L-3,5 L-1,1 Z " fill="#D7D7D7" transform="translate(13,4)"/>
</svg>
