<?xml version="1.0" encoding="UTF-8"?>
<svg version="1.1" xmlns="http://www.w3.org/2000/svg" width="28" height="28">
<path d="M0,0 L28,0 L28,28 L0,28 Z " fill="#010101" transform="translate(0,0)"/>
<path d="M0,0 L6,1 L8,3 L8,11 L9,17 L5,20 L-1,19 L-2,18 L-2,10 L-3,9 L-3,3 Z " fill="#C4C4C4" transform="translate(12,5)"/>
<path d="M0,0 L6,0 L7,1 L7,6 L6,7 L1,7 L-1,5 Z " fill="#080808" transform="translate(12,16)"/>
<path d="M0,0 L6,0 L6,5 L5,6 L-1,6 L-2,2 Z " fill="#0E0E0E" transform="translate(12,8)"/>
</svg>
