<?xml version="1.0" encoding="UTF-8"?>
<svg version="1.1" xmlns="http://www.w3.org/2000/svg" width="28" height="28">
<path d="M0,0 L28,0 L28,28 L0,28 Z " fill="#020202" transform="translate(0,0)"/>
<path d="M0,0 L5,1 L5,4 L7,4 L5,8 L5,16 L1,20 L-5,19 L-5,13 L-3,9 L-4,4 Z " fill="#E5E5E5" transform="translate(14,4)"/>
<path d="M0,0 L3,1 L2,5 L-3,6 L-2,2 Z " fill="#1E1E1E" transform="translate(14,15)"/>
<path d="M0,0 L5,1 L2,5 L-2,4 L-2,1 Z " fill="#202020" transform="translate(14,7)"/>
<path d="M0,0 L5,1 L4,4 L-1,4 Z " fill="#CCCCCC" transform="translate(14,4)"/>
</svg>
