<?xml version="1.0" encoding="UTF-8"?>
<svg version="1.1" xmlns="http://www.w3.org/2000/svg" width="28" height="28">
<path d="M0,0 L28,0 L28,28 L0,28 Z " fill="#030303" transform="translate(0,0)"/>
<path d="M0,0 L4,1 L2,6 L-2,11 L-2,17 L-7,20 L-12,20 L-13,14 L-11,11 L-13,11 L-14,5 L-10,2 L-4,2 L-3,5 L-10,6 L-11,9 L-3,6 L-1,2 Z " fill="#F1F1F1" transform="translate(21,5)"/>
<path d="M0,0 L3,0 L3,3 L1,3 L0,8 L-5,8 L-6,2 L-4,4 Z " fill="#D9D9D9" transform="translate(14,17)"/>
<path d="M0,0 L6,0 L7,3 L0,4 L-3,5 L-4,7 L-3,2 Z " fill="#D1D1D1" transform="translate(11,7)"/>
<path d="M0,0 L7,0 L7,2 L3,4 L-1,4 Z " fill="#1D1D1D" transform="translate(11,10)"/>
<path d="M0,0 L3,0 L3,3 L-3,5 L-2,1 Z " fill="#292929" transform="translate(14,17)"/>
</svg>
