<?xml version="1.0" encoding="UTF-8"?>
<svg version="1.1" xmlns="http://www.w3.org/2000/svg" width="28" height="28">
<path d="M0,0 L28,0 L28,28 L0,28 Z " fill="#050505" transform="translate(0,0)"/>
<path d="M0,0 L3,0 L3,2 L-3,6 L-4,9 L2,7 L7,4 L10,4 L8,8 L4,10 L4,15 L0,14 L-4,15 L-4,13 L-7,12 L-6,5 Z " fill="#DDDDDD" transform="translate(14,5)"/>
<path d="M0,0 L3,0 L3,2 L-3,6 L-6,10 L-6,5 Z " fill="#F4F4F4" transform="translate(14,5)"/>
<path d="M0,0 L7,0 L3,4 L0,4 Z " fill="#ECECEC" transform="translate(10,21)"/>
</svg>
