<?xml version="1.0" encoding="UTF-8"?>
<svg version="1.1" xmlns="http://www.w3.org/2000/svg" width="28" height="28">
<path d="M0,0 L28,0 L28,28 L0,28 Z " fill="#020202" transform="translate(0,0)"/>
<path d="M0,0 L5,0 L6,1 L6,6 L4,10 L5,12 L5,19 L0,20 L-3,17 L-3,11 L-1,8 L-4,7 L-3,2 Z " fill="#D4D4D4" transform="translate(13,5)"/>
<path d="M0,0 L4,0 L3,5 L-2,4 Z " fill="#161616" transform="translate(13,7)"/>
<path d="M0,0 L3,1 L3,6 L-1,6 L-1,1 Z " fill="#111111" transform="translate(13,16)"/>
</svg>
