<?xml version="1.0" encoding="UTF-8"?>
<svg version="1.1" xmlns="http://www.w3.org/2000/svg" width="28" height="28">
<path d="M0,0 L28,0 L28,28 L0,28 Z " fill="#030303" transform="translate(0,0)"/>
<path d="M0,0 L4,1 L4,3 L-1,4 L0,6 L5,6 L8,5 L8,3 L11,4 L9,8 L4,10 L3,15 L-3,20 L-6,20 L-6,14 L-2,10 L-4,8 L-3,2 Z " fill="#E7E7E7" transform="translate(14,5)"/>
<path d="M0,0 L2,1 L3,4 L-3,7 L-1,7 L-1,10 L-4,10 L-4,4 Z " fill="#B9B9B9" transform="translate(12,15)"/>
<path d="M0,0 L3,1 L1,5 L-4,7 L-2,2 L0,2 Z " fill="#CFCFCF" transform="translate(22,8)"/>
</svg>
