<?xml version="1.0" encoding="UTF-8"?>
<svg version="1.1" xmlns="http://www.w3.org/2000/svg" width="28" height="28">
<path d="M0,0 L28,0 L28,28 L0,28 Z " fill="#010101" transform="translate(0,0)"/>
<path d="M0,0 L5,0 L6,4 L3,10 L4,20 L2,20 L1,16 L-2,20 L-2,11 L-6,7 L-5,4 L-1,3 Z " fill="#DCDCDC" transform="translate(14,5)"/>
<path d="M0,0 L3,0 L1,6 L0,8 L-4,6 L-4,3 Z " fill="#0C0C0C" transform="translate(15,7)"/>
<path d="M0,0 L5,0 L4,2 L-1,5 L-3,5 L-4,7 L-6,7 L-5,4 L-1,3 Z " fill="#ADADAD" transform="translate(14,5)"/>
</svg>
