<?xml version="1.0" encoding="UTF-8"?>
<svg version="1.1" xmlns="http://www.w3.org/2000/svg" width="28" height="28">
<path d="M0,0 L28,0 L28,28 L0,28 Z " fill="#010101" transform="translate(0,0)"/>
<path d="M0,0 L7,1 L8,5 L5,8 L10,9 L6,11 L7,19 L6,20 L0,20 L-1,19 L-1,14 L2,10 L-2,5 L-1,1 Z " fill="#989898" transform="translate(11,5)"/>
<path d="M0,0 L7,1 L8,5 L2,10 L-2,5 L-1,1 Z " fill="#D9D9D9" transform="translate(11,5)"/>
<path d="M0,0 L2,0 L2,5 L1,6 L-5,6 L-6,2 L-4,1 L-4,4 L0,4 Z " fill="#E9E9E9" transform="translate(16,19)"/>
<path d="M0,0 L5,1 L4,6 L0,3 Z " fill="#111111" transform="translate(11,7)"/>
</svg>
