<?xml version="1.0" encoding="UTF-8"?>
<svg version="1.1" xmlns="http://www.w3.org/2000/svg" width="28" height="28">
<path d="M0,0 L28,0 L28,28 L0,28 Z " fill="#040404" transform="translate(0,0)"/>
<path d="M0,0 L7,0 L11,3 L10,7 L3,11 L1,11 L2,18 L0,20 L-6,20 L-9,17 L-8,13 L-3,11 L-5,6 L-5,2 Z " fill="#F1F1F1" transform="translate(14,5)"/>
<path d="M0,0 L7,0 L11,3 L10,7 L2,11 L2,8 L8,6 L7,3 L0,3 L0,8 L-3,11 L-5,6 L-5,2 Z " fill="#D3D3D3" transform="translate(14,5)"/>
<path d="M0,0 L5,0 L6,4 L0,7 L-3,6 L-2,1 Z " fill="#121212" transform="translate(16,7)"/>
<path d="M0,0 L5,1 L5,6 L2,9 L0,4 Z " fill="#EBEBEB" transform="translate(9,7)"/>
<path d="M0,0 L2,2 L1,6 L-4,5 L-2,1 Z " fill="#1B1B1B" transform="translate(12,17)"/>
<path d="M0,0 L3,1 L2,4 L4,4 L4,7 L0,5 L-1,2 Z " fill="#D0D0D0" transform="translate(6,18)"/>
</svg>
