<?xml version="1.0" encoding="UTF-8"?>
<svg version="1.1" xmlns="http://www.w3.org/2000/svg" width="28" height="28">
<path d="M0,0 L28,0 L28,28 L0,28 Z " fill="#020202" transform="translate(0,0)"/>
<path d="M0,0 L6,1 L7,6 L4,7 L4,15 L-1,20 L-7,20 L-7,16 L-3,10 L-7,5 L-7,3 Z " fill="#E9E9E9" transform="translate(15,5)"/>
<path d="M0,0 L2,1 L4,3 L3,7 L2,9 L-1,9 L-2,11 L-7,5 L-7,3 Z " fill="#D4D4D4" transform="translate(15,5)"/>
<path d="M0,0 L2,0 L2,2 L4,2 L4,4 L0,7 L-6,7 L-6,3 Z " fill="#B5B5B5" transform="translate(14,18)"/>
<path d="M0,0 L3,0 L5,0 L4,4 L0,5 L-1,1 Z " fill="#141414" transform="translate(14,8)"/>
</svg>
