<?xml version="1.0" encoding="UTF-8"?>
<svg version="1.1" xmlns="http://www.w3.org/2000/svg" width="28" height="28">
<path d="M0,0 L28,0 L28,28 L0,28 Z " fill="#020202" transform="translate(0,0)"/>
<path d="M0,0 L7,1 L8,2 L8,7 L14,6 L13,8 L8,10 L5,10 L5,19 L4,20 L-1,20 L-4,17 L-3,12 L1,10 L-2,4 L-2,1 Z " fill="#E8E8E8" transform="translate(11,5)"/>
<path d="M0,0 L6,1 L6,9 L5,10 L0,10 L-3,7 L-2,2 Z " fill="#D0D0D0" transform="translate(10,15)"/>
<path d="M0,0 L7,1 L5,2 L6,6 L5,8 L0,7 L-2,4 L-2,1 Z " fill="#CACACA" transform="translate(11,5)"/>
<path d="M0,0 L2,0 L2,7 L-3,6 L-3,2 Z " fill="#181818" transform="translate(12,16)"/>
<path d="M0,0 L4,1 L5,4 L4,6 L1,5 Z " fill="#1E1E1E" transform="translate(12,7)"/>
</svg>
