<?xml version="1.0" encoding="UTF-8"?>
<svg version="1.1" xmlns="http://www.w3.org/2000/svg" width="28" height="28">
<path d="M0,0 L28,0 L28,28 L0,28 Z " fill="#020202" transform="translate(0,0)"/>
<path d="M0,0 L7,1 L6,6 L4,9 L2,9 L3,16 L-1,20 L-6,20 L-7,15 L-4,11 L-4,4 Z " fill="#CCCCCC" transform="translate(15,5)"/>
<path d="M0,0 L7,1 L6,5 L4,5 L4,3 L0,4 L-2,7 L-4,6 L-3,2 Z " fill="#DDDDDD" transform="translate(15,5)"/>
<path d="M0,0 L4,0 L2,4 L-1,5 Z " fill="#202020" transform="translate(15,8)"/>
</svg>
