<?xml version="1.0" encoding="UTF-8"?>
<svg version="1.1" xmlns="http://www.w3.org/2000/svg" width="28" height="28">
<path d="M0,0 L28,0 L28,28 L0,28 Z " fill="#030303" transform="translate(0,0)"/>
<path d="M0,0 L5,1 L5,5 L-1,10 L-2,18 L-6,20 L-8,19 L-8,14 L-5,10 L-4,2 Z " fill="#EDEDED" transform="translate(17,5)"/>
<path d="M0,0 L5,1 L5,5 L0,8 L-3,8 L-4,2 Z " fill="#DCDCDC" transform="translate(17,5)"/>
<path d="M0,0 L3,0 L2,6 L-1,7 L-2,3 Z " fill="#868686" transform="translate(11,16)"/>
<path d="M0,0 L4,1 L1,4 L-1,4 L-1,6 L-3,6 L-2,1 Z " fill="#282828" transform="translate(17,7)"/>
</svg>
