<?xml version="1.0" encoding="UTF-8"?>
<svg version="1.1" xmlns="http://www.w3.org/2000/svg" width="28" height="28">
<path d="M0,0 L28,0 L28,28 L0,28 Z " fill="#020202" transform="translate(0,0)"/>
<path d="M0,0 L4,0 L4,2 L6,2 L5,6 L-2,12 L-4,12 L-5,20 L-7,19 L-6,15 L-8,15 L-10,20 L-12,20 L-11,16 L-7,12 L-4,3 Z " fill="#CACACA" transform="translate(18,5)"/>
<path d="M0,0 L2,4 L0,14 L-2,13 L-1,9 L-3,9 L-5,14 L-7,14 L-6,10 L-2,6 Z " fill="#D2D2D2" transform="translate(13,11)"/>
<path d="M0,0 L3,0 L2,4 L-3,8 L-4,4 Z " fill="#141414" transform="translate(18,7)"/>
<path d="M0,0 L2,4 L1,11 L0,8 L-2,8 L-1,1 Z " fill="#EAEAEA" transform="translate(13,11)"/>
</svg>
