<?xml version="1.0" encoding="UTF-8"?>
<svg version="1.1" xmlns="http://www.w3.org/2000/svg" width="28" height="28">
<path d="M0,0 L28,0 L28,28 L0,28 Z " fill="#030303" transform="translate(0,0)"/>
<path d="M0,0 L5,1 L9,3 L8,7 L3,12 L1,14 L-1,20 L-5,19 L-4,15 L-2,13 L-2,3 Z " fill="#DDDDDD" transform="translate(13,5)"/>
<path d="M0,0 L1,0 L1,9 L3,9 L0,18 L-4,17 L-3,13 L-1,11 L-1,1 Z " fill="#EFEFEF" transform="translate(12,7)"/>
<path d="M0,0 L5,0 L6,4 L2,7 L0,7 Z " fill="#1B1B1B" transform="translate(13,8)"/>
</svg>
