<?xml version="1.0" encoding="UTF-8"?>
<svg version="1.1" xmlns="http://www.w3.org/2000/svg" width="28" height="28">
<path d="M0,0 L28,0 L28,28 L0,28 Z " fill="#010101" transform="translate(0,0)"/>
<path d="M0,0 L4,1 L1,3 L1,7 L4,6 L4,9 L2,10 L1,18 L-1,20 L-5,19 L-6,18 L-6,13 L-3,10 L-1,1 Z " fill="#EEEEEE" transform="translate(16,3)"/>
<path d="M0,0 L4,0 L4,6 L0,7 L-1,6 L-1,1 Z " fill="#8D8D8D" transform="translate(11,15)"/>
<path d="M0,0 L4,1 L1,3 L-1,10 L-2,10 L-2,3 Z " fill="#D8D8D8" transform="translate(16,3)"/>
</svg>
