<?xml version="1.0" encoding="UTF-8"?>
<svg version="1.1" xmlns="http://www.w3.org/2000/svg" width="28" height="28">
<path d="M0,0 L28,0 L28,28 L0,28 Z " fill="#030303" transform="translate(0,0)"/>
<path d="M0,0 L3,1 L1,5 L-4,9 L-6,9 L-6,17 L-7,19 L-9,19 L-9,13 L-12,16 L-13,19 L-15,19 L-14,14 L-8,7 L-2,3 L0,3 Z " fill="#DBDBDB" transform="translate(21,6)"/>
<path d="M0,0 L4,0 L4,4 L-2,8 L-4,8 L-5,10 L-5,4 L-3,1 Z " fill="#C4C4C4" transform="translate(17,5)"/>
<path d="M0,0 L5,0 L5,2 L-2,6 L-1,1 Z " fill="#0E0E0E" transform="translate(16,7)"/>
</svg>
