<?xml version="1.0" encoding="UTF-8"?>
<svg version="1.1" xmlns="http://www.w3.org/2000/svg" width="28" height="28">
<path d="M0,0 L28,0 L28,28 L0,28 Z " fill="#030303" transform="translate(0,0)"/>
<path d="M0,0 L4,1 L4,7 L1,11 L2,12 L2,17 L-2,20 L-9,20 L-8,13 L-6,13 L-6,10 L-10,9 L-10,4 Z " fill="#E1E1E1" transform="translate(17,5)"/>
<path d="M0,0 L2,1 L0,6 L-1,8 L-6,8 L-6,3 L-4,3 L-4,6 L-1,1 Z " fill="#848484" transform="translate(14,17)"/>
<path d="M0,0 L4,0 L4,2 L2,2 L2,4 L-2,5 L-1,1 Z " fill="#383838" transform="translate(15,9)"/>
</svg>
