<?xml version="1.0" encoding="UTF-8"?>
<svg version="1.1" xmlns="http://www.w3.org/2000/svg" width="28" height="28">
<path d="M0,0 L28,0 L28,28 L0,28 Z " fill="#010101" transform="translate(0,0)"/>
<path d="M0,0 L6,0 L9,2 L9,5 L1,4 L2,6 L6,8 L6,15 L0,20 L-3,19 L-2,14 L0,9 L-3,6 L-2,2 Z " fill="#D5D5D5" transform="translate(12,5)"/>
<path d="M0,0 L1,4 L-5,9 L-8,8 L-7,3 L-5,2 L-5,5 L-3,5 L-3,3 Z " fill="#EAEAEA" transform="translate(17,16)"/>
<path d="M0,0 L4,0 L4,5 L1,6 L1,8 L-2,9 L-2,4 Z " fill="#B2B2B2" transform="translate(13,13)"/>
<path d="M0,0 L7,1 L6,3 L1,3 Z " fill="#1E1E1E" transform="translate(13,9)"/>
</svg>
