<?xml version="1.0" encoding="UTF-8"?>
<svg version="1.1" xmlns="http://www.w3.org/2000/svg" width="28" height="28">
<path d="M0,0 L28,0 L28,28 L0,28 Z " fill="#020202" transform="translate(0,0)"/>
<path d="M0,0 L6,1 L8,5 L7,9 L5,9 L5,17 L1,20 L-3,20 L-4,14 L-1,10 L-3,8 L-3,3 Z " fill="#E6E6E6" transform="translate(13,5)"/>
<path d="M0,0 L2,0 L2,4 L4,5 L0,8 L-4,8 L-5,2 Z " fill="#999999" transform="translate(14,17)"/>
<path d="M0,0 L4,1 L7,2 L7,9 L5,9 L5,5 L0,6 L1,3 Z " fill="#F2F2F2" transform="translate(11,12)"/>
<path d="M0,0 L6,0 L4,4 L-1,2 Z " fill="#121212" transform="translate(13,10)"/>
<path d="M0,0 L7,0 L8,4 L4,5 L6,1 L0,1 Z " fill="#CCCCCC" transform="translate(13,9)"/>
</svg>
