<?xml version="1.0" encoding="UTF-8"?>
<svg version="1.1" xmlns="http://www.w3.org/2000/svg" width="28" height="28">
<path d="M0,0 L28,0 L28,28 L0,28 Z " fill="#010101" transform="translate(0,0)"/>
<path d="M0,0 L6,1 L9,6 L10,15 L6,19 L2,20 L1,19 L0,12 L-2,9 L-2,2 Z " fill="#E5E5E5" transform="translate(11,5)"/>
<path d="M0,0 L1,0 L0,7 L-5,10 L-8,9 L-6,5 L-6,7 L-2,5 Z " fill="#CECECE" transform="translate(20,15)"/>
<path d="M0,0 L1,0 L1,5 L-1,7 L-4,7 L-3,2 Z " fill="#111111" transform="translate(18,15)"/>
<path d="M0,0 L2,1 L4,5 L-1,7 Z " fill="#0C0C0C" transform="translate(13,7)"/>
<path d="M0,0 L2,0 L1,8 L-2,5 L-1,1 Z " fill="#B4B4B4" transform="translate(11,5)"/>
</svg>
