<?xml version="1.0" encoding="UTF-8"?>
<svg version="1.1" xmlns="http://www.w3.org/2000/svg" width="28" height="28">
<path d="M0,0 L28,0 L28,28 L0,28 Z " fill="#030303" transform="translate(0,0)"/>
<path d="M0,0 L9,0 L11,4 L11,7 L6,12 L9,15 L8,19 L6,20 L0,20 L-3,18 L-2,13 L-2,10 L-2,8 L-5,7 L-4,3 Z " fill="#D7D7D7" transform="translate(12,5)"/>
<path d="M0,0 L9,0 L10,3 L-1,4 L0,7 L-2,10 L-2,8 L-5,7 L-4,3 Z " fill="#E7E7E7" transform="translate(12,5)"/>
<path d="M0,0 L7,0 L7,2 L5,2 L4,5 L1,6 L-2,3 L-2,1 Z " fill="#0D0D0D" transform="translate(13,8)"/>
</svg>
