<?xml version="1.0" encoding="UTF-8"?>
<svg version="1.1" xmlns="http://www.w3.org/2000/svg" width="28" height="28">
<path d="M0,0 L28,0 L28,28 L0,28 Z " fill="#030303" transform="translate(0,0)"/>
<path d="M0,0 L5,1 L5,4 L7,5 L1,10 L0,18 L-6,20 L-8,19 L-7,14 L-5,12 L-5,4 L-2,1 Z " fill="#F7F7F7" transform="translate(16,5)"/>
<path d="M0,0 L5,1 L5,4 L7,5 L2,9 L1,7 L-3,8 L-5,7 L-4,2 Z M1,6 Z " fill="#E5E5E5" transform="translate(16,5)"/>
<path d="M0,0 L5,2 L5,4 L3,4 L3,6 L-1,7 L-3,6 L-2,1 Z " fill="#959595" transform="translate(14,6)"/>
<path d="M0,0 L1,3 L-5,5 L-5,1 Z " fill="#F7F7F7" transform="translate(15,20)"/>
<path d="M0,0 L4,1 L3,4 L0,4 L-2,6 L-1,1 Z " fill="#AEAEAE" transform="translate(10,18)"/>
</svg>
