<?xml version="1.0" encoding="UTF-8"?>
<svg version="1.1" xmlns="http://www.w3.org/2000/svg" width="28" height="28">
<path d="M0,0 L28,0 L28,28 L0,28 Z " fill="#010101" transform="translate(0,0)"/>
<path d="M0,0 L6,1 L6,8 L4,8 L8,13 L7,18 L4,20 L-2,20 L-4,18 L-4,12 L-2,8 L-3,7 L-3,1 Z " fill="#E7E7E7" transform="translate(13,4)"/>
<path d="M0,0 L1,2 L5,4 L6,9 L2,10 L2,12 L-2,11 L-3,10 L-3,4 Z " fill="#CCCCCC" transform="translate(12,12)"/>
<path d="M0,0 L4,1 L5,6 L0,6 L-1,1 Z " fill="#0F0F0F" transform="translate(13,15)"/>
<path d="M0,0 L5,0 L5,5 L-2,4 L-2,2 Z " fill="#989898" transform="translate(14,5)"/>
</svg>
