<?xml version="1.0" encoding="UTF-8"?>
<svg version="1.1" xmlns="http://www.w3.org/2000/svg" width="28" height="28">
<path d="M0,0 L28,0 L28,28 L0,28 Z " fill="#030303" transform="translate(0,0)"/>
<path d="M0,0 L7,0 L6,4 L1,5 L4,6 L9,3 L12,3 L12,6 L8,8 L7,10 L9,10 L11,13 L11,18 L7,20 L1,20 L-1,18 L-1,13 L0,9 L-4,7 L-3,2 Z " fill="#E8E8E8" transform="translate(10,5)"/>
<path d="M0,0 L4,1 L4,5 L-2,5 Z " fill="#191919" transform="translate(13,17)"/>
<path d="M0,0 L7,0 L2,4 L-2,2 Z " fill="#292929" transform="translate(12,8)"/>
</svg>
