<?xml version="1.0" encoding="UTF-8"?>
<svg version="1.1" xmlns="http://www.w3.org/2000/svg" width="28" height="28">
<path d="M0,0 L28,0 L28,28 L0,28 Z " fill="#020202" transform="translate(0,0)"/>
<path d="M0,0 L5,0 L4,4 L-4,5 L3,6 L7,4 L5,8 L8,12 L7,16 L3,20 L-2,19 L-3,12 L-2,9 L-8,7 L-8,3 Z " fill="#DADADA" transform="translate(14,5)"/>
<path d="M0,0 L5,0 L4,4 L-4,5 L-2,8 L-7,8 L-8,3 Z " fill="#E4E4E4" transform="translate(14,5)"/>
<path d="M0,0 L5,2 L4,6 L0,10 L-5,9 L-6,4 L-4,3 L-3,6 L0,6 Z " fill="#E2E2E2" transform="translate(17,15)"/>
<path d="M0,0 L8,0 L4,4 L-4,3 L-3,1 Z " fill="#262626" transform="translate(13,8)"/>
<path d="M0,0 L3,0 L3,5 L-1,6 L-2,2 Z " fill="#1C1C1C" transform="translate(15,16)"/>
</svg>
