<?xml version="1.0" encoding="UTF-8"?>
<svg version="1.1" xmlns="http://www.w3.org/2000/svg" width="28" height="28">
<path d="M0,0 L28,0 L28,28 L0,28 Z " fill="#030303" transform="translate(0,0)"/>
<path d="M0,0 L2,1 L1,6 L0,10 L1,17 L-3,20 L-7,20 L-9,17 L-8,13 L-6,9 L-10,6 L-9,2 L-3,1 L-3,3 L-6,5 L-3,6 Z " fill="#DCDCDC" transform="translate(18,5)"/>
<path d="M0,0 L1,4 L-3,7 L-7,7 L-8,2 L-7,4 L-2,3 Z " fill="#ECECEC" transform="translate(18,18)"/>
<path d="M0,0 L2,1 L2,5 L-1,6 L-2,2 Z " fill="#171717" transform="translate(14,17)"/>
</svg>
