<?xml version="1.0" encoding="UTF-8"?>
<svg version="1.1" xmlns="http://www.w3.org/2000/svg" width="28" height="28">
<path d="M0,0 L28,0 L28,28 L0,28 Z " fill="#020202" transform="translate(0,0)"/>
<path d="M0,0 L5,0 L9,4 L12,11 L12,17 L7,20 L2,20 L-1,17 L0,12 L1,10 L-3,10 L-3,8 L-5,8 L-4,3 Z " fill="#D8D8D8" transform="translate(11,5)"/>
<path d="M0,0 L5,0 L9,4 L12,11 L12,15 L10,15 L10,11 L4,10 L6,4 L0,4 L-2,8 L2,10 L-3,10 L-3,8 L-5,8 L-4,3 Z " fill="#E1E1E1" transform="translate(11,5)"/>
<path d="M0,0 L6,0 L5,6 L-2,7 L-3,3 Z " fill="#131313" transform="translate(15,16)"/>
<path d="M0,0 L6,1 L6,5 L-2,5 L-1,1 Z " fill="#090909" transform="translate(11,8)"/>
<path d="M0,0 L5,0 L8,3 L1,4 Z " fill="#C2C2C2" transform="translate(11,13)"/>
</svg>
