<?xml version="1.0" encoding="UTF-8"?>
<svg version="1.1" xmlns="http://www.w3.org/2000/svg" width="28" height="28">
<path d="M0,0 L28,0 L28,28 L0,28 Z " fill="#020202" transform="translate(0,0)"/>
<path d="M0,0 L6,0 L7,3 L1,3 L4,6 L6,4 L9,4 L9,7 L7,7 L8,17 L6,20 L-1,19 L-2,14 L1,8 L-3,6 L-3,2 Z " fill="#E5E5E5" transform="translate(11,5)"/>
<path d="M0,0 L2,1 L0,6 L6,5 L5,9 L-2,8 L-3,3 Z " fill="#F0F0F0" transform="translate(12,16)"/>
<path d="M0,0 L9,0 L8,3 L8,1 L2,4 Z " fill="#3D3D3D" transform="translate(12,8)"/>
<path d="M0,0 L2,1 L1,6 L-2,6 L-1,1 Z " fill="#161616" transform="translate(14,16)"/>
</svg>
