<?xml version="1.0" encoding="UTF-8"?>
<svg version="1.1" xmlns="http://www.w3.org/2000/svg" width="28" height="28">
<path d="M0,0 L28,0 L28,28 L0,28 Z " fill="#020202" transform="translate(0,0)"/>
<path d="M0,0 L7,0 L11,2 L14,3 L11,7 L6,8 L9,12 L9,18 L6,20 L0,20 L-1,14 L2,9 L-2,7 L-4,5 L-4,2 Z " fill="#E8E8E8" transform="translate(10,6)"/>
<path d="M0,0 L7,0 L11,2 L14,3 L9,6 L7,5 L8,3 L-1,3 L-1,5 L-4,5 L-4,2 Z " fill="#D6D6D6" transform="translate(10,6)"/>
<path d="M0,0 L7,1 L5,5 L2,6 L-2,4 L-2,1 Z " fill="#191919" transform="translate(11,8)"/>
<path d="M0,0 L3,1 L3,6 L2,7 L-3,7 L-2,2 Z " fill="#181818" transform="translate(14,17)"/>
<path d="M0,0 L3,1 L1,3 L0,7 L3,7 L3,9 L-1,9 L-2,3 Z " fill="#CCCCCC" transform="translate(11,17)"/>
</svg>
