<?xml version="1.0" encoding="UTF-8"?>
<svg version="1.1" xmlns="http://www.w3.org/2000/svg" width="28" height="28">
<path d="M0,0 L28,0 L28,28 L0,28 Z " fill="#020202" transform="translate(0,0)"/>
<path d="M0,0 L6,0 L10,4 L12,9 L14,11 L14,17 L11,20 L3,20 L-1,16 L-3,10 L-5,8 L-5,3 Z " fill="#E5E5E5" transform="translate(10,5)"/>
<path d="M0,0 L6,0 L10,4 L10,6 L8,6 L8,8 L1,9 L-1,8 L-2,2 Z " fill="#E2E2E2" transform="translate(10,5)"/>
<path d="M0,0 L3,1 L2,6 L-4,6 L-6,4 L-6,1 Z " fill="#0E0E0E" transform="translate(18,16)"/>
<path d="M0,0 L6,0 L8,4 L2,6 L0,5 Z " fill="#151515" transform="translate(9,8)"/>
</svg>
