<?xml version="1.0" encoding="UTF-8"?>
<svg version="1.1" xmlns="http://www.w3.org/2000/svg" width="28" height="28">
<path d="M0,0 L28,0 L28,28 L0,28 Z " fill="#010101" transform="translate(0,0)"/>
<path d="M0,0 L6,0 L10,3 L9,8 L6,11 L10,15 L9,19 L4,20 L0,16 L0,11 L-4,9 L-5,5 Z " fill="#CDCDCD" transform="translate(11,5)"/>
<path d="M0,0 L6,0 L10,4 L4,5 L4,3 L-1,5 L-1,7 L1,9 L0,11 L-4,9 L-5,5 Z " fill="#DADADA" transform="translate(11,5)"/>
<path d="M0,0 L8,1 L7,4 L1,6 L-2,4 Z " fill="#0D0D0D" transform="translate(11,8)"/>
</svg>
