<?xml version="1.0" encoding="UTF-8"?>
<svg version="1.1" xmlns="http://www.w3.org/2000/svg" width="28" height="28">
<path d="M0,0 L28,0 L28,28 L0,28 Z " fill="#010101" transform="translate(0,0)"/>
<path d="M0,0 L6,0 L8,4 L7,10 L9,13 L8,18 L6,20 L0,20 L0,12 L2,9 L-3,8 L-3,3 Z " fill="#CBCBCB" transform="translate(11,5)"/>
<path d="M0,0 L6,0 L7,2 L6,6 L-1,5 Z " fill="#161616" transform="translate(11,7)"/>
<path d="M0,0 L3,2 L2,6 L-3,7 L-2,2 Z " fill="#080808" transform="translate(15,16)"/>
</svg>
