<?xml version="1.0" encoding="UTF-8"?>
<svg version="1.1" xmlns="http://www.w3.org/2000/svg" width="28" height="28">
<path d="M0,0 L28,0 L28,28 L0,28 Z " fill="#050505" transform="translate(0,0)"/>
<path d="M0,0 L5,0 L9,4 L10,9 L14,10 L15,16 L12,19 L9,20 L2,20 L-2,17 L-2,9 L-5,4 L-1,3 Z " fill="#EEEEEE" transform="translate(10,4)"/>
<path d="M0,0 L10,0 L9,5 L7,6 L-1,6 L-1,1 Z " fill="#151515" transform="translate(12,15)"/>
<path d="M0,0 L3,1 L2,5 L-3,7 L-10,7 L-8,4 L-1,2 Z " fill="#E2E2E2" transform="translate(22,17)"/>
<path d="M0,0 L4,1 L5,4 L-2,5 L-2,1 Z " fill="#292929" transform="translate(12,7)"/>
</svg>
