<?xml version="1.0" encoding="UTF-8"?>
<svg version="1.1" xmlns="http://www.w3.org/2000/svg" width="28" height="28">
<path d="M0,0 L28,0 L28,28 L0,28 Z " fill="#020202" transform="translate(0,0)"/>
<path d="M0,0 L5,0 L8,6 L10,13 L10,18 L7,20 L0,20 L-4,16 L-4,3 Z " fill="#D3D3D3" transform="translate(12,4)"/>
<path d="M0,0 L2,0 L2,3 L10,4 L12,2 L13,6 L11,8 L4,8 L0,4 Z " fill="#F3F3F3" transform="translate(8,16)"/>
<path d="M0,0 L6,0 L7,5 L6,6 L1,6 L-1,4 Z " fill="#121212" transform="translate(12,15)"/>
</svg>
