<?xml version="1.0" encoding="UTF-8"?>
<svg version="1.1" xmlns="http://www.w3.org/2000/svg" width="28" height="28">
<path d="M0,0 L28,0 L28,28 L0,28 Z " fill="#030303" transform="translate(0,0)"/>
<path d="M0,0 L7,1 L9,3 L10,10 L12,13 L12,19 L11,20 L1,19 L-1,16 L-1,7 L-2,2 Z " fill="#B5B5B5" transform="translate(10,4)"/>
<path d="M0,0 L8,0 L12,1 L12,7 L11,8 L1,7 L-1,4 Z " fill="#E3E3E3" transform="translate(10,16)"/>
<path d="M0,0 L2,4 L3,8 L-6,7 L-9,7 L-8,1 Z " fill="#EDEDED" transform="translate(18,10)"/>
<path d="M0,0 L6,0 L8,2 L8,5 L1,4 L-1,3 Z " fill="#1D1D1D" transform="translate(12,16)"/>
</svg>
