<?xml version="1.0" encoding="UTF-8"?>
<svg version="1.1" xmlns="http://www.w3.org/2000/svg" width="28" height="28">
<path d="M0,0 L28,0 L28,28 L0,28 Z " fill="#020202" transform="translate(0,0)"/>
<path d="M0,0 L7,0 L8,4 L4,10 L3,12 L8,15 L6,19 L-1,20 L-2,19 L-1,12 L-6,10 L-6,5 Z " fill="#929292" transform="translate(13,5)"/>
<path d="M0,0 L7,0 L8,4 L4,10 L2,10 L4,5 L6,2 L-2,5 L-2,9 L-1,12 L-6,10 L-6,5 Z " fill="#D8D8D8" transform="translate(13,5)"/>
<path d="M0,0 L4,0 L2,4 L-1,9 L-5,7 L-5,3 Z " fill="#141414" transform="translate(15,7)"/>
<path d="M0,0 L5,1 L3,5 L-4,6 L-5,2 L1,3 Z " fill="#EDEDED" transform="translate(16,19)"/>
</svg>
