<?xml version="1.0" encoding="UTF-8"?>
<svg version="1.1" xmlns="http://www.w3.org/2000/svg" width="28" height="28">
<path d="M0,0 L28,0 L28,28 L0,28 Z " fill="#030303" transform="translate(0,0)"/>
<path d="M0,0 L9,1 L10,5 L6,9 L1,11 L-1,18 L-2,19 L-9,19 L-10,14 L-4,10 L-2,10 L-2,1 Z " fill="#D8D8D8" transform="translate(15,5)"/>
<path d="M0,0 L9,1 L10,5 L6,9 L1,11 L-1,18 L-2,19 L-8,19 L-4,17 L-3,12 L-1,4 L1,8 L6,5 L7,2 L-2,3 L-2,1 Z " fill="#D0D0D0" transform="translate(15,5)"/>
<path d="M0,0 L6,0 L5,4 L-1,7 L-1,1 Z " fill="#070707" transform="translate(16,7)"/>
<path d="M0,0 L2,0 L2,7 L0,9 L-6,9 L-2,7 L-1,2 Z " fill="#E8E8E8" transform="translate(13,15)"/>
<path d="M0,0 L9,1 L10,5 L7,4 L7,2 L-2,3 L-2,1 Z " fill="#B2B2B2" transform="translate(15,5)"/>
<path d="M0,0 L2,0 L1,5 L-4,5 L-3,2 Z " fill="#131313" transform="translate(11,17)"/>
</svg>
