<?xml version="1.0" encoding="UTF-8"?>
<svg version="1.1" xmlns="http://www.w3.org/2000/svg" width="28" height="28">
<path d="M0,0 L28,0 L28,28 L0,28 Z " fill="#030303" transform="translate(0,0)"/>
<path d="M0,0 L2,1 L-6,9 L-5,15 L-10,19 L-15,20 L-16,17 L-15,15 L-13,15 L-12,17 L-9,15 L-8,12 L-11,12 L-11,10 L-8,7 L-6,7 L-7,5 L-11,6 L-8,2 L-1,1 Z " fill="#DDDDDD" transform="translate(23,4)"/>
<path d="M0,0 L2,1 L1,3 L-1,3 L-2,6 L-4,6 L-4,8 L-1,8 L-2,12 L-6,14 L-7,10 L-6,6 L-5,2 Z " fill="#6C6C6C" transform="translate(16,8)"/>
</svg>
