<?xml version="1.0" encoding="UTF-8"?>
<svg version="1.1" xmlns="http://www.w3.org/2000/svg" width="28" height="28">
<path d="M0,0 L28,0 L28,28 L0,28 Z " fill="#010101" transform="translate(0,0)"/>
<path d="M0,0 L5,1 L7,6 L5,8 L5,19 L0,20 L-2,17 L-2,12 L-1,8 L-3,5 L-2,1 Z " fill="#E7E7E7" transform="translate(13,5)"/>
<path d="M0,0 L5,1 L7,6 L3,10 L3,7 L1,7 L1,5 L-1,5 Z " fill="#D6D6D6" transform="translate(13,5)"/>
<path d="M0,0 L2,0 L4,5 L3,9 L-2,8 Z " fill="#CECECE" transform="translate(14,16)"/>
<path d="M0,0 L4,0 L3,5 L1,5 L1,3 L-1,3 Z " fill="#2D2D2D" transform="translate(13,7)"/>
<path d="M0,0 L2,0 L2,7 L-1,6 Z " fill="#1D1D1D" transform="translate(14,16)"/>
</svg>
