<?xml version="1.0" encoding="UTF-8"?>
<svg version="1.1" xmlns="http://www.w3.org/2000/svg" width="28" height="28">
<path d="M0,0 L28,0 L28,28 L0,28 Z " fill="#020202" transform="translate(0,0)"/>
<path d="M0,0 L6,0 L7,2 L-6,3 L-5,5 L1,3 L6,4 L2,6 L2,10 L6,15 L6,20 L1,19 L-3,14 L-5,8 L-9,5 L-9,2 Z " fill="#DEDEDE" transform="translate(15,6)"/>
<path d="M0,0 L7,2 L9,5 L9,10 L4,9 L0,4 Z " fill="#B1B1B1" transform="translate(12,16)"/>
<path d="M0,0 L9,0 L7,2 L1,3 L-3,4 L-4,1 Z " fill="#252525" transform="translate(13,8)"/>
<path d="M0,0 L5,1 L1,3 L-2,6 L-3,4 L-5,3 Z " fill="#C8C8C8" transform="translate(16,9)"/>
<path d="M0,0 L1,3 L5,5 L3,6 L-2,3 L-2,1 Z " fill="#F8F8F8" transform="translate(13,12)"/>
</svg>
