<?xml version="1.0" encoding="UTF-8"?>
<svg version="1.1" xmlns="http://www.w3.org/2000/svg" width="28" height="28">
<path d="M0,0 L28,0 L28,28 L0,28 Z " fill="#020202" transform="translate(0,0)"/>
<path d="M0,0 L5,0 L5,2 L8,3 L2,10 L3,18 L1,20 L-4,20 L-6,18 L-6,11 L-2,2 Z " fill="#959595" transform="translate(15,5)"/>
<path d="M0,0 L5,0 L5,2 L8,3 L2,10 L0,12 L0,6 L3,4 L0,3 L-2,8 L-3,8 L-3,3 Z " fill="#E5E5E5" transform="translate(15,5)"/>
<path d="M0,0 L2,0 L2,4 L7,4 L7,2 L9,2 L8,6 L7,7 L2,7 L0,5 Z " fill="#E9E9E9" transform="translate(9,18)"/>
</svg>
