<?xml version="1.0" encoding="UTF-8"?>
<svg version="1.1" xmlns="http://www.w3.org/2000/svg" width="28" height="28">
<path d="M0,0 L28,0 L28,28 L0,28 Z " fill="#010101" transform="translate(0,0)"/>
<path d="M0,0 L5,0 L8,5 L9,10 L12,13 L11,18 L8,20 L1,20 L-2,17 L-1,9 L-4,8 L-3,2 Z " fill="#D5D5D5" transform="translate(11,4)"/>
<path d="M0,0 L6,0 L9,3 L7,7 L1,7 L-1,5 Z " fill="#0B0B0B" transform="translate(12,15)"/>
<path d="M0,0 L4,0 L4,5 L7,6 L0,7 L-2,5 L-1,1 Z " fill="#181818" transform="translate(11,6)"/>
<path d="M0,0 L6,0 L9,3 L8,8 L5,10 L-1,9 L-1,8 L6,6 L6,2 L0,1 Z " fill="#B7B7B7" transform="translate(14,14)"/>
</svg>
