<?xml version="1.0" encoding="UTF-8"?>
<svg version="1.1" xmlns="http://www.w3.org/2000/svg" width="28" height="28">
<path d="M0,0 L28,0 L28,28 L0,28 Z " fill="#020202" transform="translate(0,0)"/>
<path d="M0,0 L6,1 L4,6 L-1,10 L-3,10 L-2,12 L-2,18 L-3,20 L-10,20 L-10,13 L-8,11 L-8,4 Z " fill="#E9E9E9" transform="translate(18,5)"/>
<path d="M0,0 L2,2 L2,8 L1,10 L-6,10 L-3,3 L0,2 Z " fill="#C9C9C9" transform="translate(14,15)"/>
<path d="M0,0 L4,1 L2,2 L2,4 L-2,8 L-2,11 L-4,11 L-4,5 Z " fill="#F7F7F7" transform="translate(12,13)"/>
<path d="M0,0 L3,1 L-3,6 L-6,6 L-6,3 Z " fill="#2A2A2A" transform="translate(18,7)"/>
<path d="M0,0 L3,1 L-1,3 L-1,8 L-3,6 L-2,1 Z " fill="#CFCFCF" transform="translate(13,7)"/>
<path d="M0,0 L2,0 L2,5 L-2,5 L-1,1 Z " fill="#1E1E1E" transform="translate(12,17)"/>
</svg>
