<?xml version="1.0" encoding="UTF-8"?>
<svg version="1.1" xmlns="http://www.w3.org/2000/svg" width="28" height="28">
<path d="M0,0 L28,0 L28,28 L0,28 Z " fill="#000000" transform="translate(0,0)"/>
<path d="M0,0 L7,0 L9,1 L8,5 L7,6 L6,15 L2,20 L-3,20 L-5,18 L-5,12 L0,7 L1,3 L-1,3 Z " fill="#C0C0C0" transform="translate(13,5)"/>
<path d="M0,0 L3,1 L1,4 L0,9 L4,8 L6,1 L7,1 L7,8 L4,12 L-1,12 L-3,10 L-3,4 Z " fill="#E0E0E0" transform="translate(11,13)"/>
<path d="M0,0 L2,0 L3,5 L1,8 L-3,8 L-3,3 Z " fill="#0A0A0A" transform="translate(14,14)"/>
</svg>
