<?xml version="1.0" encoding="UTF-8"?>
<svg version="1.1" xmlns="http://www.w3.org/2000/svg" width="28" height="28">
<path d="M0,0 L28,0 L28,28 L0,28 Z " fill="#010101" transform="translate(0,0)"/>
<path d="M0,0 L5,1 L6,7 L6,11 L7,12 L7,18 L4,20 L-2,20 L-4,17 L-4,12 L-3,8 L-2,1 Z " fill="#C3C3C3" transform="translate(13,4)"/>
<path d="M0,0 L4,1 L6,3 L6,7 L4,8 L-2,8 L-2,2 Z " fill="#0D0D0D" transform="translate(13,14)"/>
<path d="M0,0 L3,1 L3,6 L-2,7 L-1,1 Z " fill="#070707" transform="translate(14,5)"/>
</svg>
