<?xml version="1.0" encoding="UTF-8"?>
<svg version="1.1" xmlns="http://www.w3.org/2000/svg" width="28" height="28">
<path d="M0,0 L28,0 L28,28 L0,28 Z " fill="#030303" transform="translate(0,0)"/>
<path d="M0,0 L5,1 L10,3 L10,5 L5,7 L7,12 L6,17 L5,19 L0,20 L-2,18 L-2,9 L-1,8 L-1,1 Z " fill="#D1D1D1" transform="translate(12,5)"/>
<path d="M0,0 L2,0 L4,4 L3,8 L-1,8 L-2,5 Z " fill="#1C1C1C" transform="translate(13,14)"/>
<path d="M0,0 L1,0 L3,6 L8,5 L7,8 L2,9 L0,7 Z " fill="#EDEDED" transform="translate(10,16)"/>
</svg>
