<?xml version="1.0" encoding="UTF-8"?>
<svg version="1.1" xmlns="http://www.w3.org/2000/svg" width="28" height="28">
<path d="M0,0 L28,0 L28,28 L0,28 Z " fill="#030303" transform="translate(0,0)"/>
<path d="M0,0 L8,0 L13,2 L14,6 L10,7 L14,13 L13,18 L8,20 L5,18 L4,11 L5,7 L1,5 L-1,4 Z " fill="#D7D7D7" transform="translate(7,6)"/>
<path d="M0,0 L3,4 L6,5 L6,1 L9,1 L8,6 L3,8 L0,6 Z " fill="#E4E4E4" transform="translate(12,18)"/>
<path d="M0,0 L8,0 L10,2 L2,2 L2,4 L5,5 L2,6 L-1,4 Z " fill="#EDEDED" transform="translate(7,6)"/>
<path d="M0,0 L9,1 L8,4 L3,3 L0,2 Z " fill="#2C2C2C" transform="translate(9,8)"/>
<path d="M0,0 L3,1 L3,6 L-1,5 Z " fill="#121212" transform="translate(15,17)"/>
</svg>
