<?xml version="1.0" encoding="UTF-8"?>
<svg version="1.1" xmlns="http://www.w3.org/2000/svg" width="28" height="28">
<path d="M0,0 L28,0 L28,28 L0,28 Z " fill="#020202" transform="translate(0,0)"/>
<path d="M0,0 L6,0 L6,3 L-2,3 L2,7 L8,5 L7,8 L5,8 L9,13 L9,19 L3,20 L0,17 L-1,9 L-5,6 L-4,2 Z " fill="#DFDFDF" transform="translate(12,4)"/>
<path d="M0,0 L2,0 L4,5 L8,5 L7,9 L1,8 L0,6 Z " fill="#F4F4F4" transform="translate(12,15)"/>
<path d="M0,0 L5,1 L6,2 L6,8 L4,6 L0,5 Z " fill="#858585" transform="translate(15,15)"/>
<path d="M0,0 L6,0 L6,3 L-2,3 L-2,5 L-5,6 L-4,2 Z " fill="#C4C4C4" transform="translate(12,4)"/>
</svg>
