<?xml version="1.0" encoding="UTF-8"?>
<svg version="1.1" xmlns="http://www.w3.org/2000/svg" width="28" height="28">
<path d="M0,0 L28,0 L28,28 L0,28 Z " fill="#020202" transform="translate(0,0)"/>
<path d="M0,0 L4,1 L5,7 L2,9 L-1,9 L0,11 L0,17 L-3,20 L-9,20 L-11,18 L-10,12 L-9,5 L-3,1 Z " fill="#E9E9E9" transform="translate(18,5)"/>
<path d="M0,0 L3,0 L4,5 L-1,6 L-1,1 Z " fill="#1D1D1D" transform="translate(11,16)"/>
<path d="M0,0 L1,4 L-3,6 L-3,4 L-9,4 L-5,1 L-1,2 Z " fill="#797979" transform="translate(22,8)"/>
<path d="M0,0 L3,1 L3,3 L6,4 L6,6 L1,5 Z " fill="#C1C1C1" transform="translate(7,19)"/>
</svg>
