<?xml version="1.0" encoding="UTF-8"?>
<svg version="1.1" xmlns="http://www.w3.org/2000/svg" width="28" height="28">
<path d="M0,0 L28,0 L28,28 L0,28 Z " fill="#020202" transform="translate(0,0)"/>
<path d="M0,0 L5,2 L6,7 L-1,12 L-3,19 L-8,20 L-10,19 L-10,14 L-4,9 Z " fill="#EFEFEF" transform="translate(17,4)"/>
<path d="M0,0 L2,1 L1,2 L4,4 L3,7 L-1,8 L-2,10 L-4,9 Z " fill="#919191" transform="translate(17,4)"/>
<path d="M0,0 L3,2 L1,7 L-3,8 L-3,3 Z " fill="#959595" transform="translate(10,15)"/>
<path d="M0,0 L2,3 L0,7 L-5,6 L-4,4 L-2,4 Z " fill="#D7D7D7" transform="translate(13,17)"/>
</svg>
