<?xml version="1.0" encoding="UTF-8"?>
<svg version="1.1" xmlns="http://www.w3.org/2000/svg" width="28" height="28">
<path d="M0,0 L28,0 L28,28 L0,28 Z " fill="#020202" transform="translate(0,0)"/>
<path d="M0,0 L3,1 L4,8 L-2,13 L-4,14 L-6,20 L-12,20 L-13,15 L-9,12 L-6,12 L-5,5 Z " fill="#C1C1C1" transform="translate(18,4)"/>
<path d="M0,0 L3,1 L4,8 L-1,12 L-1,8 L2,7 L1,4 L-4,9 L-6,11 L-5,5 Z " fill="#DFDFDF" transform="translate(18,4)"/>
<path d="M0,0 L2,2 L-3,7 L-5,7 L-3,2 Z " fill="#2C2C2C" transform="translate(19,7)"/>
</svg>
