<?xml version="1.0" encoding="UTF-8"?>
<svg version="1.1" xmlns="http://www.w3.org/2000/svg" width="28" height="28">
<path d="M0,0 L28,0 L28,28 L0,28 Z " fill="#010101" transform="translate(0,0)"/>
<path d="M0,0 L6,0 L4,10 L1,17 L-2,20 L-6,20 L-6,15 L-3,12 L-4,4 Z " fill="#EAEAEA" transform="translate(15,5)"/>
<path d="M0,0 L4,1 L3,6 L2,8 L0,8 L-2,5 L-1,1 Z " fill="#202020" transform="translate(15,7)"/>
<path d="M0,0 L4,0 L3,4 L2,7 L-2,7 L-2,2 Z " fill="#A6A6A6" transform="translate(11,18)"/>
<path d="M0,0 L4,1 L-1,4 L0,9 L-2,12 L-4,9 L-4,4 Z " fill="#CBCBCB" transform="translate(15,5)"/>
</svg>
