<?xml version="1.0" encoding="UTF-8"?>
<svg version="1.1" xmlns="http://www.w3.org/2000/svg" width="28" height="28">
<path d="M0,0 L28,0 L28,28 L0,28 Z " fill="#020202" transform="translate(0,0)"/>
<path d="M0,0 L2,0 L1,5 L-4,10 L-5,11 L-6,18 L-9,20 L-14,19 L-13,13 L-13,9 L-12,4 L-4,1 Z " fill="#D8D8D8" transform="translate(21,5)"/>
<path d="M0,0 L4,1 L-2,6 L-6,5 L-5,2 Z " fill="#101010" transform="translate(16,8)"/>
<path d="M0,0 L2,0 L2,4 L-6,3 L-4,1 Z " fill="#EDEDED" transform="translate(21,5)"/>
<path d="M0,0 L2,0 L1,4 L-3,5 L-2,1 Z " fill="#222222" transform="translate(12,18)"/>
</svg>
