<?xml version="1.0" encoding="UTF-8"?>
<svg version="1.1" xmlns="http://www.w3.org/2000/svg" width="28" height="28">
<path d="M0,0 L28,0 L28,28 L0,28 Z " fill="#040404" transform="translate(0,0)"/>
<path d="M0,0 L8,0 L10,1 L10,7 L10,11 L11,15 L9,18 L3,20 L-6,19 L-8,18 L-7,10 L-5,3 Z " fill="#EBEBEB" transform="translate(13,5)"/>
<path d="M0,0 L8,0 L11,2 L11,5 L3,8 L-2,7 L-2,2 Z " fill="#131313" transform="translate(10,16)"/>
<path d="M0,0 L1,3 L-2,5 L-11,5 L-9,1 Z " fill="#1D1D1D" transform="translate(20,8)"/>
<path d="M0,0 L1,3 L-1,6 L-7,8 L-12,8 L-13,6 L-8,5 L-2,4 L-1,1 Z " fill="#D4D4D4" transform="translate(23,17)"/>
</svg>
