<?xml version="1.0" encoding="UTF-8"?>
<svg version="1.1" xmlns="http://www.w3.org/2000/svg" width="28" height="28">
<path d="M0,0 L28,0 L28,28 L0,28 Z " fill="#020202" transform="translate(0,0)"/>
<path d="M0,0 L5,1 L8,4 L8,9 L10,11 L10,16 L4,20 L-4,20 L-6,18 L-6,6 L-1,1 Z " fill="#E7E7E7" transform="translate(13,4)"/>
<path d="M0,0 L4,1 L4,5 L-5,7 L-6,2 L0,2 Z " fill="#101010" transform="translate(16,15)"/>
<path d="M0,0 L6,0 L5,4 L-3,5 L-1,1 Z " fill="#0F0F0F" transform="translate(12,8)"/>
<path d="M0,0 L2,4 L-3,7 L-6,7 L-7,4 L0,3 Z " fill="#C9C9C9" transform="translate(20,17)"/>
<path d="M0,0 L6,1 L2,3 L-1,5 L-1,1 Z M-3,4 Z " fill="#C9C9C9" transform="translate(10,6)"/>
</svg>
