<?xml version="1.0" encoding="UTF-8"?>
<svg version="1.1" xmlns="http://www.w3.org/2000/svg" width="28" height="28">
<path d="M0,0 L28,0 L28,28 L0,28 Z " fill="#030303" transform="translate(0,0)"/>
<path d="M0,0 L6,1 L7,6 L5,11 L6,13 L6,19 L5,20 L-1,20 L-2,19 L-2,14 L-1,11 L-5,9 L-5,4 Z " fill="#E3E3E3" transform="translate(13,5)"/>
<path d="M0,0 L6,1 L4,5 L1,6 L-2,5 L-1,1 Z " fill="#121212" transform="translate(12,8)"/>
<path d="M0,0 L2,1 L2,5 L-2,6 L-1,1 Z " fill="#222222" transform="translate(15,18)"/>
</svg>
