<?xml version="1.0" encoding="UTF-8"?>
<svg version="1.1" xmlns="http://www.w3.org/2000/svg" width="28" height="28">
<path d="M0,0 L28,0 L28,28 L0,28 Z " fill="#030303" transform="translate(0,0)"/>
<path d="M0,0 L6,1 L7,2 L6,9 L9,9 L11,12 L10,16 L8,18 L0,20 L-7,20 L-9,18 L-8,13 L-6,13 L-8,9 L-7,4 L-2,1 Z " fill="#E2E2E2" transform="translate(14,4)"/>
<path d="M0,0 L10,0 L9,3 L2,5 L-4,5 L-4,3 L-2,3 L-2,1 Z " fill="#121212" transform="translate(12,16)"/>
<path d="M0,0 L3,1 L3,3 L-1,5 L-6,5 L-4,1 Z " fill="#191919" transform="translate(16,7)"/>
</svg>
