<?xml version="1.0" encoding="UTF-8"?>
<svg version="1.1" xmlns="http://www.w3.org/2000/svg" width="28" height="28">
<path d="M0,0 L28,0 L28,28 L0,28 Z " fill="#020202" transform="translate(0,0)"/>
<path d="M0,0 L8,1 L10,3 L11,16 L6,20 L-2,20 L-3,19 L-3,13 L-5,13 L-6,7 L-3,2 Z " fill="#E9E9E9" transform="translate(12,5)"/>
<path d="M0,0 L9,1 L8,5 L0,5 L-1,2 Z " fill="#DBDBDB" transform="translate(10,20)"/>
<path d="M0,0 L2,0 L1,4 L-6,6 L-8,5 L-7,2 Z " fill="#272727" transform="translate(19,16)"/>
<path d="M0,0 L5,0 L5,2 L-5,5 L-5,3 Z " fill="#292929" transform="translate(15,10)"/>
</svg>
