<?xml version="1.0" encoding="UTF-8"?>
<svg version="1.1" xmlns="http://www.w3.org/2000/svg" width="28" height="28">
<path d="M0,0 L28,0 L28,28 L0,28 Z " fill="#020202" transform="translate(0,0)"/>
<path d="M0,0 L4,1 L8,3 L10,9 L12,12 L12,17 L6,20 L-2,20 L-4,18 L-4,4 Z " fill="#C4C4C4" transform="translate(12,4)"/>
<path d="M0,0 L1,0 L1,5 L-5,8 L-13,8 L-15,4 L-7,4 L-1,3 Z " fill="#E6E6E6" transform="translate(23,16)"/>
<path d="M0,0 L4,1 L8,3 L6,7 L6,5 L-1,7 L-4,6 L-2,2 Z " fill="#E7E7E7" transform="translate(12,4)"/>
<path d="M0,0 L6,0 L8,1 L8,3 L2,5 L-4,5 L-3,1 Z " fill="#060606" transform="translate(14,16)"/>
</svg>
