<?xml version="1.0" encoding="UTF-8"?>
<svg version="1.1" xmlns="http://www.w3.org/2000/svg" width="28" height="28">
<path d="M0,0 L28,0 L28,28 L0,28 Z " fill="#040404" transform="translate(0,0)"/>
<path d="M0,0 L6,0 L8,2 L8,9 L10,9 L11,16 L8,19 L-4,20 L-7,18 L-7,7 L-2,1 Z " fill="#ECECEC" transform="translate(13,4)"/>
<path d="M0,0 L3,1 L4,0 L15,0 L16,2 L18,2 L16,6 L15,7 L3,8 L0,6 Z " fill="#E2E2E2" transform="translate(6,16)"/>
<path d="M0,0 L3,2 L13,1 L13,3 L16,3 L17,8 L14,9 L14,6 L9,7 L3,7 L0,7 L-1,1 Z " fill="#EFEFEF" transform="translate(7,10)"/>
<path d="M0,0 L11,0 L9,4 L0,5 L-2,2 Z " fill="#1E1E1E" transform="translate(10,16)"/>
<path d="M0,0 L6,0 L5,4 L-4,5 L-2,1 Z " fill="#222222" transform="translate(13,8)"/>
<path d="M0,0 L4,0 L2,4 L-1,5 L-1,3 L-4,2 Z " fill="#C8C8C8" transform="translate(20,18)"/>
</svg>
