<?xml version="1.0" encoding="UTF-8"?>
<svg version="1.1" xmlns="http://www.w3.org/2000/svg" width="28" height="28">
<path d="M0,0 L28,0 L28,28 L0,28 Z " fill="#030303" transform="translate(0,0)"/>
<path d="M0,0 L5,1 L5,6 L-1,11 L-3,18 L-5,20 L-9,19 L-8,16 L-8,18 L-5,18 L-4,13 L-6,12 L-3,2 Z " fill="#D7D7D7" transform="translate(16,5)"/>
<path d="M0,0 L5,1 L4,5 L4,2 L0,2 L-2,7 L-3,7 L-3,2 Z " fill="#E7E7E7" transform="translate(16,5)"/>
<path d="M0,0 L3,0 L2,5 L-2,7 L-1,2 Z " fill="#1C1C1C" transform="translate(16,7)"/>
<path d="M0,0 L4,0 L3,5 L0,5 Z " fill="#575757" transform="translate(8,18)"/>
</svg>
