<?xml version="1.0" encoding="UTF-8"?>
<svg version="1.1" xmlns="http://www.w3.org/2000/svg" width="28" height="28">
<path d="M0,0 L28,0 L28,28 L0,28 Z " fill="#020202" transform="translate(0,0)"/>
<path d="M0,0 L5,1 L5,6 L-1,10 L-2,17 L-4,20 L-9,20 L-10,19 L-10,14 L-6,10 L-4,10 L-4,3 Z " fill="#D7D7D7" transform="translate(17,5)"/>
<path d="M0,0 L2,0 L2,10 L-3,10 L-4,9 L-4,4 Z " fill="#BCBCBC" transform="translate(11,15)"/>
<path d="M0,0 L2,1 L1,6 L3,7 L2,8 L1,15 L-2,17 L-1,1 Z " fill="#EFEFEF" transform="translate(14,7)"/>
<path d="M0,0 L3,0 L2,4 L-2,6 L-2,1 Z " fill="#232323" transform="translate(17,7)"/>
<path d="M0,0 L2,0 L1,6 L-2,6 L-1,1 Z " fill="#171717" transform="translate(11,17)"/>
</svg>
