<?xml version="1.0" encoding="UTF-8"?>
<svg version="1.1" xmlns="http://www.w3.org/2000/svg" width="28" height="28">
<path d="M0,0 L28,0 L28,28 L0,28 Z " fill="#040404" transform="translate(0,0)"/>
<path d="M0,0 L4,1 L4,5 L-4,10 L-1,13 L3,15 L1,19 L-9,20 L-12,18 L-12,13 L-9,6 L-4,4 L-5,8 L-1,4 L-11,4 L-9,1 Z " fill="#D3D3D3" transform="translate(19,5)"/>
<path d="M0,0 L4,1 L4,5 L-3,9 L-5,8 L-1,4 L-11,4 L-9,1 Z " fill="#E4E4E4" transform="translate(19,5)"/>
<path d="M0,0 L4,1 L8,3 L8,5 L2,6 L-1,4 Z " fill="#121212" transform="translate(10,17)"/>
<path d="M0,0 L8,0 L3,6 L1,5 L3,2 L0,3 Z " fill="#1F1F1F" transform="translate(11,8)"/>
<path d="M0,0 L4,2 L7,5 L6,7 L1,4 Z " fill="#BDBDBD" transform="translate(11,13)"/>
</svg>
