<?xml version="1.0" encoding="UTF-8"?>
<svg version="1.1" xmlns="http://www.w3.org/2000/svg" width="28" height="28">
<path d="M0,0 L28,0 L28,28 L0,28 Z " fill="#030303" transform="translate(0,0)"/>
<path d="M0,0 L5,1 L4,5 L0,4 L1,7 L6,5 L7,0 L12,1 L11,5 L8,8 L6,8 L6,11 L8,11 L7,17 L2,20 L-4,20 L-6,15 L-5,11 L-3,9 L-4,4 Z " fill="#E6E6E6" transform="translate(12,5)"/>
<path d="M0,0 L1,0 L1,5 L-4,7 L-5,3 L-1,3 Z " fill="#353535" transform="translate(17,6)"/>
<path d="M0,0 L4,1 L3,4 L-2,5 L-1,1 Z " fill="#1D1D1D" transform="translate(12,17)"/>
</svg>
