<?xml version="1.0" encoding="UTF-8"?>
<svg version="1.1" xmlns="http://www.w3.org/2000/svg" width="28" height="28">
<path d="M0,0 L28,0 L28,28 L0,28 Z " fill="#030303" transform="translate(0,0)"/>
<path d="M0,0 L2,1 L1,4 L-5,4 L-3,9 L2,8 L2,6 L6,4 L5,8 L1,13 L3,18 L2,20 L-7,20 L-8,19 L-7,12 L-5,12 L-8,6 L-7,1 Z " fill="#ECECEC" transform="translate(17,4)"/>
<path d="M0,0 L2,1 L1,4 L-5,4 L-7,8 L-8,2 L-7,1 Z " fill="#E5E5E5" transform="translate(17,4)"/>
<path d="M0,0 L4,1 L3,6 L-1,5 L-1,1 Z " fill="#202020" transform="translate(13,17)"/>
<path d="M0,0 L1,3 L-5,8 L-3,2 Z " fill="#7E7E7E" transform="translate(22,8)"/>
</svg>
