<?xml version="1.0" encoding="UTF-8"?>
<svg version="1.1" xmlns="http://www.w3.org/2000/svg" width="28" height="28">
<path d="M0,0 L28,0 L28,28 L0,28 Z " fill="#030303" transform="translate(0,0)"/>
<path d="M0,0 L0,3 L-4,8 L1,4 L3,4 L2,12 L2,17 L-2,20 L-7,20 L-9,18 L-8,12 L-5,4 Z " fill="#E7E7E7" transform="translate(17,4)"/>
<path d="M0,0 L3,0 L3,6 L-2,7 L-3,4 Z " fill="#131313" transform="translate(13,15)"/>
<path d="M0,0 L0,3 L-3,6 L-3,9 L-5,9 L-6,5 Z " fill="#C7C7C7" transform="translate(17,4)"/>
<path d="M0,0 L2,1 L2,6 L-1,8 L-1,1 Z " fill="#B9B9B9" transform="translate(17,15)"/>
</svg>
