<?xml version="1.0" encoding="UTF-8"?>
<svg version="1.1" xmlns="http://www.w3.org/2000/svg" width="28" height="28">
<path d="M0,0 L28,0 L28,28 L0,28 Z " fill="#030303" transform="translate(0,0)"/>
<path d="M0,0 L7,1 L8,3 L12,2 L12,5 L7,7 L11,12 L11,18 L8,20 L3,19 L1,16 L1,7 L-3,6 L-4,2 Z " fill="#E0E0E0" transform="translate(10,6)"/>
<path d="M0,0 L7,1 L5,6 L-2,5 L-4,4 L-3,1 Z " fill="#CCCCCC" transform="translate(10,6)"/>
<path d="M0,0 L4,2 L5,8 L1,9 L-1,4 Z " fill="#121212" transform="translate(14,15)"/>
<path d="M0,0 L2,3 L3,12 L0,9 Z " fill="#BCBCBC" transform="translate(11,13)"/>
<path d="M0,0 L5,0 L5,4 L0,3 Z " fill="#1B1B1B" transform="translate(10,8)"/>
<path d="M0,0 L1,0 L1,5 L-2,7 L-6,6 L-5,4 L-1,3 Z " fill="#F0F0F0" transform="translate(20,19)"/>
</svg>
