<?xml version="1.0" encoding="UTF-8"?>
<svg version="1.1" xmlns="http://www.w3.org/2000/svg" width="28" height="28">
<path d="M0,0 L28,0 L28,28 L0,28 Z " fill="#020202" transform="translate(0,0)"/>
<path d="M0,0 L5,1 L7,4 L7,10 L9,15 L6,20 L1,19 L1,17 L5,16 L4,12 L2,11 L2,8 L0,8 L-1,1 Z " fill="#E8E8E8" transform="translate(11,4)"/>
<path d="M0,0 L5,1 L7,4 L7,9 L1,6 L0,8 L-1,1 Z " fill="#A9A9A9" transform="translate(11,4)"/>
<path d="M0,0 L4,1 L5,5 L-2,7 L-1,1 Z " fill="#C4C4C4" transform="translate(12,15)"/>
<path d="M0,0 L3,2 L2,6 L-1,6 Z " fill="#0D0D0D" transform="translate(14,15)"/>
</svg>
