<?xml version="1.0" encoding="UTF-8"?>
<svg version="1.1" xmlns="http://www.w3.org/2000/svg" width="28" height="28">
<path d="M0,0 L28,0 L28,28 L0,28 Z " fill="#020202" transform="translate(0,0)"/>
<path d="M0,0 L5,1 L5,3 L12,1 L10,5 L3,8 L4,15 L1,20 L-3,19 L-3,10 L-6,8 L-6,4 Z " fill="#E9E9E9" transform="translate(13,6)"/>
<path d="M0,0 L5,1 L3,6 L1,8 L-5,9 L-6,4 Z " fill="#D4D4D4" transform="translate(13,6)"/>
<path d="M0,0 L2,0 L1,7 L-2,9 L-3,8 L-3,2 Z " fill="#999999" transform="translate(15,17)"/>
<path d="M0,0 L3,1 L1,5 L-3,6 L-3,2 Z " fill="#111111" transform="translate(14,8)"/>
<path d="M0,0 L2,0 L0,4 L-4,5 L-5,2 Z " fill="#CECECE" transform="translate(23,7)"/>
</svg>
