<?xml version="1.0" encoding="UTF-8"?>
<svg version="1.1" xmlns="http://www.w3.org/2000/svg" width="28" height="28">
<path d="M0,0 L28,0 L28,28 L0,28 Z " fill="#020202" transform="translate(0,0)"/>
<path d="M0,0 L9,0 L11,2 L11,8 L10,9 L9,16 L4,19 L-4,20 L-5,19 L-4,12 L1,8 L3,8 L-1,4 Z " fill="#DCDCDC" transform="translate(11,5)"/>
<path d="M0,0 L7,0 L6,5 L-3,7 L-2,2 Z " fill="#0D0D0D" transform="translate(11,16)"/>
<path d="M0,0 L1,0 L1,7 L-4,10 L-12,11 L-13,7 L-8,8 L-2,6 Z " fill="#DCDCDC" transform="translate(19,14)"/>
<path d="M0,0 L7,0 L8,5 L5,5 Z " fill="#1D1D1D" transform="translate(12,7)"/>
<path d="M0,0 L1,0 L1,7 L-2,9 L-4,7 L-2,6 Z " fill="#BEBEBE" transform="translate(19,14)"/>
</svg>
