<?xml version="1.0" encoding="UTF-8"?>
<svg version="1.1" xmlns="http://www.w3.org/2000/svg" width="28" height="28">
<path d="M0,0 L28,0 L28,28 L0,28 Z " fill="#030303" transform="translate(0,0)"/>
<path d="M0,0 L3,0 L3,4 L8,6 L7,9 L2,11 L2,19 L-3,20 L-5,17 L-5,11 L-3,11 L-6,5 L-5,2 Z " fill="#E6E6E6" transform="translate(15,5)"/>
<path d="M0,0 L3,0 L3,4 L8,6 L7,9 L4,10 L2,8 L5,8 L5,6 L-1,4 L-3,3 L-4,7 L-6,3 Z " fill="#E4E4E4" transform="translate(15,5)"/>
<path d="M0,0 L6,2 L8,3 L8,5 L2,6 L0,4 Z " fill="#121212" transform="translate(12,8)"/>
<path d="M0,0 L4,2 L3,6 L0,6 Z " fill="#131313" transform="translate(12,17)"/>
<path d="M0,0 L4,2 L3,5 L0,6 L-2,4 L1,4 L1,2 L-1,1 Z " fill="#C0C0C0" transform="translate(19,9)"/>
</svg>
