<?xml version="1.0" encoding="UTF-8"?>
<svg version="1.1" xmlns="http://www.w3.org/2000/svg" width="28" height="28">
<path d="M0,0 L28,0 L28,28 L0,28 Z " fill="#040404" transform="translate(0,0)"/>
<path d="M0,0 L3,1 L3,3 L-5,4 L-5,8 L2,6 L6,6 L5,9 L-2,11 L-3,17 L-6,20 L-11,19 L-12,16 L-9,10 L-7,9 L-6,2 Z " fill="#E2E2E2" transform="translate(18,5)"/>
<path d="M0,0 L3,0 L3,4 L-3,5 L-1,1 Z " fill="#171717" transform="translate(11,17)"/>
<path d="M0,0 L2,1 L0,5 L-1,7 L3,8 L-3,8 L-1,1 Z " fill="#C5C5C5" transform="translate(9,15)"/>
</svg>
