<?xml version="1.0" encoding="UTF-8"?>
<svg version="1.1" xmlns="http://www.w3.org/2000/svg" width="28" height="28">
<path d="M0,0 L28,0 L28,28 L0,28 Z " fill="#020202" transform="translate(0,0)"/>
<path d="M0,0 L5,0 L6,3 L1,5 L-2,4 L0,7 L8,7 L5,10 L1,11 L1,14 L-1,14 L-2,18 L-4,20 L-10,19 L-10,14 L-8,14 L-8,12 L-3,10 L-6,6 L-5,2 Z " fill="#D8D8D8" transform="translate(16,5)"/>
<path d="M0,0 L8,0 L6,4 L0,3 Z " fill="#E8E8E8" transform="translate(6,21)"/>
<path d="M0,0 L5,0 L6,3 L2,4 L-2,2 Z " fill="#EAEAEA" transform="translate(16,5)"/>
<path d="M0,0 L2,0 L2,3 L-1,5 L-4,4 Z " fill="#1C1C1C" transform="translate(12,17)"/>
</svg>
