<?xml version="1.0" encoding="UTF-8"?>
<svg version="1.1" xmlns="http://www.w3.org/2000/svg" width="28" height="28">
<path d="M0,0 L28,0 L28,28 L0,28 Z " fill="#020202" transform="translate(0,0)"/>
<path d="M0,0 L6,0 L7,1 L6,8 L4,11 L8,15 L7,19 L5,20 L-1,20 L-4,18 L-3,12 L-8,10 L-7,4 L-5,4 L-5,2 Z " fill="#EAEAEA" transform="translate(14,5)"/>
<path d="M0,0 L6,0 L7,1 L6,8 L3,10 L3,7 L5,2 L2,2 L1,5 L-4,5 L-5,9 L-3,9 L-3,12 L-8,10 L-7,4 L-5,4 L-5,2 Z " fill="#DFDFDF" transform="translate(14,5)"/>
<path d="M0,0 L3,0 L2,5 L-1,8 L-7,7 L-6,3 L-1,2 Z " fill="#1A1A1A" transform="translate(16,7)"/>
<path d="M0,0 L4,1 L4,5 L-1,5 L-1,1 Z " fill="#1D1D1D" transform="translate(14,18)"/>
</svg>
