<?xml version="1.0" encoding="UTF-8"?>
<svg version="1.1" xmlns="http://www.w3.org/2000/svg" width="28" height="28">
<path d="M0,0 L28,0 L28,28 L0,28 Z " fill="#020202" transform="translate(0,0)"/>
<path d="M0,0 L5,0 L4,3 L-3,4 L-3,7 L1,8 L8,2 L7,6 L4,9 L5,17 L2,20 L-3,20 L-5,18 L-4,13 L-2,10 L-6,9 L-6,4 Z " fill="#E4E4E4" transform="translate(14,5)"/>
<path d="M0,0 L2,2 L-4,8 L-9,6 L-8,3 L-5,1 Z " fill="#252525" transform="translate(19,6)"/>
<path d="M0,0 L5,0 L4,3 L-3,4 L-3,7 L-1,9 L-5,10 L-6,9 L-6,4 Z " fill="#E3E3E3" transform="translate(14,5)"/>
<path d="M0,0 L2,1 L1,5 L-3,6 L-3,3 Z " fill="#1F1F1F" transform="translate(15,17)"/>
</svg>
