<?xml version="1.0" encoding="UTF-8"?>
<svg version="1.1" xmlns="http://www.w3.org/2000/svg" width="28" height="28">
<path d="M0,0 L28,0 L28,28 L0,28 Z " fill="#020202" transform="translate(0,0)"/>
<path d="M0,0 L9,0 L11,2 L11,11 L14,14 L12,19 L4,20 L0,17 L1,12 L2,10 L-3,8 L-4,3 Z " fill="#E6E6E6" transform="translate(9,5)"/>
<path d="M0,0 L5,1 L3,5 L1,6 L-4,3 Z " fill="#1E1E1E" transform="translate(13,8)"/>
<path d="M0,0 L5,1 L6,4 L0,5 L-1,1 Z " fill="#2C2C2C" transform="translate(14,17)"/>
</svg>
