<?xml version="1.0" encoding="UTF-8"?>
<svg version="1.1" xmlns="http://www.w3.org/2000/svg" width="28" height="28">
<path d="M0,0 L28,0 L28,28 L0,28 Z " fill="#030303" transform="translate(0,0)"/>
<path d="M0,0 L10,0 L8,4 L1,8 L1,14 L-3,18 L-9,18 L-10,14 L-4,9 L-5,6 L-10,5 L-10,3 Z " fill="#DEDEDE" transform="translate(16,7)"/>
<path d="M0,0 L10,0 L8,4 L2,7 L-2,6 L-3,3 L1,2 Z " fill="#B6B6B6" transform="translate(16,7)"/>
<path d="M0,0 L2,0 L2,5 L0,7 L-5,6 L-3,2 Z " fill="#111111" transform="translate(13,17)"/>
<path d="M0,0 L2,2 L-4,6 L-4,8 L0,10 L-6,10 L-7,6 Z " fill="#C4C4C4" transform="translate(13,15)"/>
<path d="M0,0 L5,0 L2,3 L-2,5 L-4,1 Z " fill="#0C0C0C" transform="translate(17,9)"/>
</svg>
