<?xml version="1.0" encoding="UTF-8"?>
<svg version="1.1" xmlns="http://www.w3.org/2000/svg" width="28" height="28">
<path d="M0,0 L28,0 L28,28 L0,28 Z " fill="#010101" transform="translate(0,0)"/>
<path d="M0,0 L7,0 L9,2 L9,5 L12,6 L5,10 L8,12 L8,17 L5,20 L0,20 L-3,16 L-3,10 L-5,7 L-4,3 Z " fill="#DFDFDF" transform="translate(12,5)"/>
<path d="M0,0 L6,0 L6,3 L3,5 L-1,5 Z " fill="#0C0C0C" transform="translate(12,8)"/>
<path d="M0,0 L4,2 L3,5 L-1,4 Z " fill="#0D0D0D" transform="translate(13,17)"/>
</svg>
