<?xml version="1.0" encoding="UTF-8"?>
<svg version="1.1" xmlns="http://www.w3.org/2000/svg" width="28" height="28">
<path d="M0,0 L28,0 L28,28 L0,28 Z " fill="#030303" transform="translate(0,0)"/>
<path d="M0,0 L4,1 L4,4 L-2,5 L1,6 L7,4 L8,2 L10,2 L9,7 L4,9 L5,16 L-2,20 L-7,19 L-8,14 L-6,10 L-5,3 Z " fill="#E1E1E1" transform="translate(15,5)"/>
<path d="M0,0 L2,0 L2,2 L4,2 L2,6 L-1,8 L-4,8 L-2,2 Z " fill="#131313" transform="translate(13,15)"/>
<path d="M0,0 L2,0 L1,5 L-2,6 L-2,4 L-4,3 L-1,2 Z " fill="#C9C9C9" transform="translate(23,7)"/>
</svg>
