<?xml version="1.0" encoding="UTF-8"?>
<svg version="1.1" xmlns="http://www.w3.org/2000/svg" width="28" height="28">
<path d="M0,0 L28,0 L28,28 L0,28 Z " fill="#030303" transform="translate(0,0)"/>
<path d="M0,0 L5,0 L5,3 L0,4 L-1,6 L4,5 L6,3 L10,3 L10,6 L6,7 L8,12 L8,17 L5,20 L0,19 L-1,18 L-1,12 L-1,9 L-4,8 L-3,2 Z " fill="#DCDCDC" transform="translate(12,5)"/>
<path d="M0,0 L6,2 L5,7 L5,10 L0,9 L-1,8 L-1,2 Z " fill="#C2C2C2" transform="translate(12,15)"/>
<path d="M0,0 L3,1 L2,6 L-2,5 Z " fill="#121212" transform="translate(15,16)"/>
<path d="M0,0 L3,1 L3,6 L1,8 L-2,7 L0,5 Z " fill="#F5F5F5" transform="translate(17,16)"/>
</svg>
