<?xml version="1.0" encoding="UTF-8"?>
<svg version="1.1" xmlns="http://www.w3.org/2000/svg" width="28" height="28">
<path d="M0,0 L28,0 L28,28 L0,28 Z " fill="#020202" transform="translate(0,0)"/>
<path d="M0,0 L6,0 L8,1 L6,6 L4,6 L5,11 L9,15 L8,19 L1,20 L1,18 L-4,17 L-5,12 L-2,8 L-4,7 L-4,1 Z " fill="#CFCFCF" transform="translate(13,4)"/>
<path d="M0,0 L6,0 L8,1 L6,6 L1,7 L-2,6 L-4,1 Z " fill="#C5C5C5" transform="translate(13,4)"/>
<path d="M0,0 L5,1 L8,4 L8,6 L3,6 L0,3 Z " fill="#0F0F0F" transform="translate(11,15)"/>
<path d="M0,0 L6,0 L5,5 L0,4 L-1,1 Z " fill="#0D0D0D" transform="translate(11,6)"/>
<path d="M0,0 L3,1 L2,5 L-5,6 L-6,3 L0,3 Z " fill="#DBDBDB" transform="translate(19,18)"/>
<path d="M0,0 L2,0 L5,5 L4,7 L-2,3 L0,2 Z " fill="#9E9E9E" transform="translate(14,12)"/>
</svg>
