<?xml version="1.0" encoding="UTF-8"?>
<svg version="1.1" xmlns="http://www.w3.org/2000/svg" width="28" height="28">
<path d="M0,0 L28,0 L28,28 L0,28 Z " fill="#020202" transform="translate(0,0)"/>
<path d="M0,0 L4,1 L3,7 L1,11 L3,11 L5,14 L4,18 L2,20 L-4,20 L-6,18 L-6,13 L-3,12 L-3,10 L-7,8 L-6,4 Z " fill="#E4E4E4" transform="translate(16,4)"/>
<path d="M0,0 L2,0 L4,3 L3,7 L1,9 L-5,9 L-6,5 L-5,7 L1,7 L1,2 L-1,1 Z " fill="#E3E3E3" transform="translate(17,15)"/>
<path d="M0,0 L3,1 L3,6 L-3,6 L-2,2 Z " fill="#161616" transform="translate(15,16)"/>
<path d="M0,0 L1,2 L-2,7 L-6,5 L-5,2 Z " fill="#222222" transform="translate(17,6)"/>
<path d="M0,0 L2,0 L4,3 L3,7 L1,6 L1,2 L-1,1 Z " fill="#CCCCCC" transform="translate(17,15)"/>
</svg>
