<?xml version="1.0" encoding="UTF-8"?>
<svg version="1.1" xmlns="http://www.w3.org/2000/svg" width="28" height="28">
<path d="M0,0 L28,0 L28,28 L0,28 Z " fill="#020202" transform="translate(0,0)"/>
<path d="M0,0 L6,1 L7,2 L7,8 L4,10 L4,16 L0,20 L-6,20 L-8,18 L-7,13 L-4,10 L-2,10 L-4,6 L-3,2 Z " fill="#D8D8D8" transform="translate(15,4)"/>
<path d="M0,0 L3,0 L2,5 L-1,8 L-7,8 L-8,3 L-6,2 L-6,5 L-1,5 Z " fill="#E2E2E2" transform="translate(16,16)"/>
<path d="M0,0 L5,1 L5,4 L1,5 L-1,1 Z " fill="#171717" transform="translate(15,7)"/>
<path d="M0,0 L5,2 L4,6 L2,4 L-2,2 Z " fill="#EAEAEA" transform="translate(17,4)"/>
<path d="M0,0 L2,0 L2,5 L-3,5 L-1,1 Z " fill="#1B1B1B" transform="translate(13,16)"/>
</svg>
