<?xml version="1.0" encoding="UTF-8"?>
<svg version="1.1" xmlns="http://www.w3.org/2000/svg" width="28" height="28">
<path d="M0,0 L28,0 L28,28 L0,28 Z " fill="#030303" transform="translate(0,0)"/>
<path d="M0,0 L6,0 L7,3 L10,3 L10,1 L15,1 L11,4 L6,7 L4,7 L5,15 L4,18 L-2,17 L-5,14 L-3,9 L0,8 Z " fill="#EEEEEE" transform="translate(12,6)"/>
<path d="M0,0 L4,0 L5,5 L4,8 L0,8 L-2,4 L-2,1 Z " fill="#DCDCDC" transform="translate(12,16)"/>
<path d="M0,0 L2,1 L2,3 L5,3 L5,1 L10,1 L6,4 L0,7 L-3,6 L-3,1 Z " fill="#9B9B9B" transform="translate(17,6)"/>
<path d="M0,0 L2,0 L2,5 L-2,4 L-2,1 Z " fill="#202020" transform="translate(12,16)"/>
</svg>
