<?xml version="1.0" encoding="UTF-8"?>
<svg version="1.1" xmlns="http://www.w3.org/2000/svg" width="28" height="28">
<path d="M0,0 L28,0 L28,28 L0,28 Z " fill="#010101" transform="translate(0,0)"/>
<path d="M0,0 L4,0 L7,4 L7,10 L10,13 L9,19 L5,20 L2,17 L2,10 L-2,6 L-1,1 Z " fill="#D9D9D9" transform="translate(11,5)"/>
<path d="M0,0 L3,1 L4,5 L3,7 L-1,5 Z " fill="#191919" transform="translate(15,16)"/>
<path d="M0,0 L2,3 L3,6 L5,7 L6,5 L7,8 L3,9 L0,6 Z " fill="#C8C8C8" transform="translate(13,16)"/>
<path d="M0,0 L4,0 L5,5 L1,4 Z " fill="#0D0D0D" transform="translate(11,8)"/>
</svg>
