<?xml version="1.0" encoding="UTF-8"?>
<svg version="1.1" xmlns="http://www.w3.org/2000/svg" width="28" height="28">
<path d="M0,0 L28,0 L28,28 L0,28 Z " fill="#020202" transform="translate(0,0)"/>
<path d="M0,0 L6,0 L9,3 L7,3 L5,9 L9,14 L8,18 L6,20 L-2,20 L-3,16 L0,9 L-3,7 L-2,2 Z " fill="#C9C9C9" transform="translate(12,5)"/>
<path d="M0,0 L4,2 L5,6 L4,7 L-3,7 L-2,3 Z " fill="#0A0A0A" transform="translate(14,16)"/>
<path d="M0,0 L6,0 L4,4 L0,5 L-1,1 Z " fill="#141414" transform="translate(12,7)"/>
</svg>
