<?xml version="1.0" encoding="UTF-8"?>
<svg version="1.1" xmlns="http://www.w3.org/2000/svg" width="28" height="28">
<path d="M0,0 L28,0 L28,28 L0,28 Z " fill="#020202" transform="translate(0,0)"/>
<path d="M0,0 L5,1 L6,7 L4,7 L5,17 L1,20 L-3,20 L-4,13 L-3,10 L-3,4 Z " fill="#E7E7E7" transform="translate(14,4)"/>
<path d="M0,0 L5,1 L6,7 L4,7 L3,10 L3,8 L-2,8 L-2,2 Z " fill="#C5C5C5" transform="translate(14,4)"/>
<path d="M0,0 L3,0 L3,6 L-2,7 L-1,1 Z " fill="#141414" transform="translate(14,15)"/>
<path d="M0,0 L3,1 L2,5 L-3,6 L-2,1 Z " fill="#1B1B1B" transform="translate(15,6)"/>
</svg>
