<?xml version="1.0" encoding="UTF-8"?>
<svg version="1.1" xmlns="http://www.w3.org/2000/svg" width="28" height="28">
<path d="M0,0 L28,0 L28,28 L0,28 Z " fill="#030303" transform="translate(0,0)"/>
<path d="M0,0 L2,0 L1,4 L-2,7 L-3,11 L3,16 L3,19 L1,20 L-5,20 L-7,18 L-7,5 Z " fill="#D7D7D7" transform="translate(17,4)"/>
<path d="M0,0 L2,0 L1,4 L-2,7 L-3,12 L-6,12 L-7,5 Z " fill="#E6E6E6" transform="translate(17,4)"/>
<path d="M0,0 L4,2 L5,5 L0,5 Z " fill="#131313" transform="translate(12,17)"/>
</svg>
