<?xml version="1.0" encoding="UTF-8"?>
<svg version="1.1" xmlns="http://www.w3.org/2000/svg" width="28" height="28">
<path d="M0,0 L28,0 L28,28 L0,28 Z " fill="#010101" transform="translate(0,0)"/>
<path d="M0,0 L2,0 L-1,11 L2,12 L1,17 L-2,20 L-5,20 L-4,12 L-6,10 L-5,5 Z " fill="#DDDDDD" transform="translate(17,4)"/>
<path d="M0,0 L2,0 L0,5 L-2,5 L-3,10 L-4,10 L-4,3 Z " fill="#A2A2A2" transform="translate(17,4)"/>
<path d="M0,0 L3,1 L2,5 L-2,7 Z " fill="#838383" transform="translate(16,15)"/>
</svg>
