<?xml version="1.0" encoding="UTF-8"?>
<svg version="1.1" xmlns="http://www.w3.org/2000/svg" width="28" height="28">
<path d="M0,0 L28,0 L28,28 L0,28 Z " fill="#020202" transform="translate(0,0)"/>
<path d="M0,0 L8,0 L8,2 L-4,4 L-3,7 L0,7 L2,4 L5,5 L5,7 L0,9 L1,11 L1,18 L-1,20 L-9,20 L-11,19 L-10,15 L-5,10 L-6,7 L-8,7 L-6,3 Z " fill="#E4E4E4" transform="translate(17,5)"/>
<path d="M0,0 L4,0 L5,6 L-2,9 L-5,8 L-4,4 Z " fill="#D4D4D4" transform="translate(11,16)"/>
<path d="M0,0 L3,1 L2,6 L-4,6 L-4,4 L-2,4 Z " fill="#171717" transform="translate(13,17)"/>
<path d="M0,0 L3,0 L3,2 L-1,6 L-5,5 L-5,2 Z " fill="#202020" transform="translate(18,7)"/>
</svg>
