<?xml version="1.0" encoding="UTF-8"?>
<svg version="1.1" xmlns="http://www.w3.org/2000/svg" width="28" height="28">
<path d="M0,0 L28,0 L28,28 L0,28 Z " fill="#020202" transform="translate(0,0)"/>
<path d="M0,0 L9,1 L9,3 L7,3 L6,7 L5,10 L6,17 L4,19 L-3,20 L-4,19 L-4,14 L-2,11 L-2,8 L-4,7 L-3,2 Z " fill="#E1E1E1" transform="translate(13,5)"/>
<path d="M0,0 L9,1 L9,3 L5,3 L3,7 L-1,6 L-2,4 L-4,7 L-3,2 Z " fill="#CECECE" transform="translate(13,5)"/>
<path d="M0,0 L3,0 L4,5 L-2,8 L-3,6 Z " fill="#121212" transform="translate(13,16)"/>
<path d="M0,0 L4,1 L2,1 L0,5 L-4,4 L-3,1 Z " fill="#0D0D0D" transform="translate(16,7)"/>
</svg>
