<?xml version="1.0" encoding="UTF-8"?>
<svg version="1.1" xmlns="http://www.w3.org/2000/svg" width="28" height="28">
<path d="M0,0 L28,0 L28,28 L0,28 Z " fill="#010101" transform="translate(0,0)"/>
<path d="M0,0 L5,0 L10,2 L10,7 L4,10 L4,18 L2,20 L-5,20 L-6,14 L-2,9 L-5,6 L-4,2 Z " fill="#FAFAFA" transform="translate(13,5)"/>
<path d="M0,0 L4,2 L6,6 L4,8 L1,8 L-1,10 L-5,6 L-4,2 Z " fill="#D8D8D8" transform="translate(13,5)"/>
<path d="M0,0 L4,1 L8,2 L8,7 L3,9 L2,2 L-1,1 Z " fill="#E5E5E5" transform="translate(15,5)"/>
<path d="M0,0 L3,0 L3,5 L2,6 L-3,6 L-2,2 Z " fill="#020202" transform="translate(12,17)"/>
<path d="M0,0 L5,1 L5,4 L1,5 L-2,3 L-2,1 Z " fill="#141414" transform="translate(13,8)"/>
<path d="M0,0 L5,0 L0,4 L0,9 L-2,9 L-3,3 Z " fill="#D4D4D4" transform="translate(10,16)"/>
</svg>
