<?xml version="1.0" encoding="UTF-8"?>
<svg version="1.1" xmlns="http://www.w3.org/2000/svg" width="28" height="28">
<path d="M0,0 L28,0 L28,28 L0,28 Z " fill="#010101" transform="translate(0,0)"/>
<path d="M0,0 L5,0 L6,3 L2,9 L0,11 L0,17 L-2,20 L-6,19 L-5,10 L-6,9 L-6,3 Z " fill="#E8E8E8" transform="translate(16,5)"/>
<path d="M0,0 L5,0 L6,3 L3,7 L-2,9 L-3,3 L-5,2 Z " fill="#CDCDCD" transform="translate(16,5)"/>
<path d="M0,0 L3,0 L2,4 L-2,7 L-3,2 Z " fill="#121212" transform="translate(16,7)"/>
<path d="M0,0 L1,3 L-1,6 L-4,6 L-3,1 Z " fill="#BEBEBE" transform="translate(15,19)"/>
</svg>
