<?xml version="1.0" encoding="UTF-8"?>
<svg version="1.1" xmlns="http://www.w3.org/2000/svg" width="28" height="28">
<path d="M0,0 L28,0 L28,28 L0,28 Z " fill="#020202" transform="translate(0,0)"/>
<path d="M0,0 L4,1 L5,2 L5,7 L2,10 L2,17 L-2,20 L-7,19 L-7,14 L-4,11 L-5,4 L-3,4 L-2,1 Z " fill="#A8A8A8" transform="translate(16,4)"/>
<path d="M0,0 L4,1 L5,2 L5,7 L2,7 L0,8 L2,3 L-3,5 L-4,7 L-5,4 L-3,4 L-2,1 Z " fill="#E0E0E0" transform="translate(16,4)"/>
<path d="M0,0 L1,2 L0,4 L5,1 L7,1 L5,5 L-1,6 L-2,2 Z " fill="#F2F2F2" transform="translate(11,18)"/>
</svg>
