<?xml version="1.0" encoding="UTF-8"?>
<svg version="1.1" xmlns="http://www.w3.org/2000/svg" width="28" height="28">
<path d="M0,0 L28,0 L28,28 L0,28 Z " fill="#040404" transform="translate(0,0)"/>
<path d="M0,0 L4,1 L4,3 L-3,5 L-3,7 L2,5 L7,4 L7,2 L9,2 L7,6 L2,9 L-1,9 L-1,16 L-5,19 L-11,19 L-10,14 L-6,10 L-6,4 L-3,1 Z " fill="#E5E5E5" transform="translate(17,5)"/>
<path d="M0,0 L2,0 L0,4 L-5,7 L-8,7 L-9,9 L-9,7 L-11,7 L-10,5 L-5,3 L0,2 Z " fill="#DEDEDE" transform="translate(24,7)"/>
<path d="M0,0 L2,0 L2,4 L-4,6 Z " fill="#2A2A2A" transform="translate(12,16)"/>
</svg>
