<?xml version="1.0" encoding="UTF-8"?>
<svg version="1.1" xmlns="http://www.w3.org/2000/svg" width="28" height="28">
<path d="M0,0 L28,0 L28,28 L0,28 Z " fill="#020202" transform="translate(0,0)"/>
<path d="M0,0 L5,0 L5,5 L1,10 L3,14 L2,19 L1,20 L-6,19 L-8,15 L-4,10 L-5,5 Z " fill="#E1E1E1" transform="translate(15,4)"/>
<path d="M0,0 L2,0 L2,5 L-3,9 L-5,8 L-4,3 L0,2 Z " fill="#838383" transform="translate(18,4)"/>
<path d="M0,0 L3,1 L4,6 L-1,7 L-3,6 L-1,1 Z " fill="#1A1A1A" transform="translate(12,15)"/>
<path d="M0,0 L3,0 L3,2 L-1,4 L-3,8 L-5,7 L-3,3 Z " fill="#DCDCDC" transform="translate(15,4)"/>
</svg>
