<?xml version="1.0" encoding="UTF-8"?>
<svg version="1.1" xmlns="http://www.w3.org/2000/svg" width="28" height="28">
<path d="M0,0 L28,0 L28,28 L0,28 Z " fill="#020202" transform="translate(0,0)"/>
<path d="M0,0 L6,0 L6,8 L4,8 L4,17 L2,20 L-2,19 L-3,12 L-8,6 L-8,2 L-3,1 Z " fill="#E4E4E4" transform="translate(15,6)"/>
<path d="M0,0 L6,0 L6,8 L3,9 L2,5 L-3,4 L-2,1 Z " fill="#F1F1F1" transform="translate(15,6)"/>
<path d="M0,0 L5,0 L6,3 L5,5 L1,3 Z " fill="#1C1C1C" transform="translate(12,10)"/>
</svg>
