<?xml version="1.0" encoding="UTF-8"?>
<svg version="1.1" xmlns="http://www.w3.org/2000/svg" width="28" height="28">
<path d="M0,0 L28,0 L28,28 L0,28 Z " fill="#010101" transform="translate(0,0)"/>
<path d="M0,0 L12,0 L10,4 L0,11 L-1,17 L-7,18 L-8,13 L-5,10 L-4,3 Z " fill="#ECECEC" transform="translate(14,7)"/>
<path d="M0,0 L12,0 L10,4 L1,10 L-2,8 L5,4 L6,2 L0,4 L-4,5 L-2,1 Z " fill="#DEDEDE" transform="translate(14,7)"/>
<path d="M0,0 L5,0 L4,3 L-1,6 L-3,6 L-2,2 Z " fill="#262626" transform="translate(15,9)"/>
<path d="M0,0 L5,0 L6,4 L1,5 Z " fill="#BCBCBC" transform="translate(6,20)"/>
</svg>
