<?xml version="1.0" encoding="UTF-8"?>
<svg version="1.1" xmlns="http://www.w3.org/2000/svg" width="28" height="28">
<path d="M0,0 L28,0 L28,28 L0,28 Z " fill="#020202" transform="translate(0,0)"/>
<path d="M0,0 L6,0 L4,7 L-2,11 L-4,18 L-6,20 L-12,19 L-11,14 L-8,11 L-6,4 Z " fill="#DEDEDE" transform="translate(18,5)"/>
<path d="M0,0 L6,0 L4,7 L-2,10 L-1,6 L2,3 L-2,5 L-1,1 Z " fill="#EDEDED" transform="translate(18,5)"/>
<path d="M0,0 L2,0 L3,2 L6,1 L5,4 L0,6 L-3,6 L-1,1 Z " fill="#969696" transform="translate(14,7)"/>
</svg>
