<?xml version="1.0" encoding="UTF-8"?>
<svg version="1.1" xmlns="http://www.w3.org/2000/svg" width="28" height="28">
<path d="M0,0 L28,0 L28,28 L0,28 Z " fill="#010101" transform="translate(0,0)"/>
<path d="M0,0 L6,0 L7,3 L9,3 L9,8 L4,11 L4,18 L1,20 L-6,20 L-8,18 L-7,14 L-3,11 L-1,11 L-5,6 L-4,1 Z " fill="#DCDCDC" transform="translate(14,5)"/>
<path d="M0,0 L6,0 L7,3 L9,4 L6,7 L3,9 L0,9 L-4,1 Z " fill="#DCDCDC" transform="translate(14,5)"/>
<path d="M0,0 L3,1 L5,7 L11,4 L13,4 L14,2 L14,6 L9,9 L7,9 L6,11 L4,10 L1,5 Z " fill="#E5E5E5" transform="translate(9,7)"/>
<path d="M0,0 L4,0 L4,2 L6,4 L2,7 L-1,7 L-4,1 Z " fill="#222222" transform="translate(15,7)"/>
<path d="M0,0 L2,0 L3,5 L-4,6 L-3,2 Z " fill="#1B1B1B" transform="translate(13,17)"/>
<path d="M0,0 L2,0 L1,3 L-3,5 L-5,7 L-4,3 Z " fill="#C5C5C5" transform="translate(11,16)"/>
<path d="M0,0 L6,0 L4,2 L-2,3 L-4,1 Z " fill="#B4B4B4" transform="translate(14,5)"/>
</svg>
