<?xml version="1.0" encoding="UTF-8"?>
<svg version="1.1" xmlns="http://www.w3.org/2000/svg" width="28" height="28">
<path d="M0,0 L28,0 L28,28 L0,28 Z " fill="#030303" transform="translate(0,0)"/>
<path d="M0,0 L4,1 L5,6 L1,9 L-5,10 L-8,18 L-12,17 L-15,14 L-15,7 L-8,7 L-7,2 L-4,2 L-4,6 L2,6 Z " fill="#E5E5E5" transform="translate(20,6)"/>
<path d="M0,0 L4,1 L5,6 L1,9 L-5,10 L-6,12 L-8,12 L-7,7 L2,6 Z " fill="#F5F5F5" transform="translate(20,6)"/>
<path d="M0,0 L3,0 L2,5 L-1,6 Z M-3,6 L-1,6 L-1,10 L1,11 L-4,13 L-6,7 Z " fill="#D5D5D5" transform="translate(13,8)"/>
<path d="M0,0 L4,1 L5,6 L2,8 L-1,6 L2,6 Z " fill="#DFDFDF" transform="translate(20,6)"/>
<path d="M0,0 L4,0 L3,6 L1,5 Z " fill="#141414" transform="translate(7,15)"/>
</svg>
