<?xml version="1.0" encoding="UTF-8"?>
<svg version="1.1" xmlns="http://www.w3.org/2000/svg" width="28" height="28">
<path d="M0,0 L28,0 L28,28 L0,28 Z " fill="#040404" transform="translate(0,0)"/>
<path d="M0,0 L8,1 L10,3 L10,8 L4,11 L0,11 L-1,18 L-3,20 L-7,19 L-8,18 L-8,10 L-4,9 L-5,4 L-2,5 L1,8 L8,7 L8,4 L1,2 L0,4 Z " fill="#E6E6E6" transform="translate(15,5)"/>
<path d="M0,0 L8,1 L10,3 L10,8 L7,10 L0,10 L1,8 L8,7 L8,4 L1,2 L0,4 Z " fill="#E9E9E9" transform="translate(15,5)"/>
<path d="M0,0 L3,0 L4,4 L6,0 L5,7 L3,9 L0,8 Z " fill="#797979" transform="translate(9,16)"/>
</svg>
