<?xml version="1.0" encoding="UTF-8"?>
<svg version="1.1" xmlns="http://www.w3.org/2000/svg" width="28" height="28">
<path d="M0,0 L28,0 L28,28 L0,28 Z " fill="#030303" transform="translate(0,0)"/>
<path d="M0,0 L8,1 L9,5 L7,3 L1,3 L1,6 L13,6 L12,8 L8,9 L14,14 L12,18 L8,20 L0,20 L-2,19 L-2,13 L2,8 L-2,6 L-2,1 Z " fill="#CACACA" transform="translate(10,4)"/>
<path d="M0,0 L8,4 L7,7 L4,8 L-4,8 L-5,6 L-2,1 Z " fill="#0B0B0B" transform="translate(14,14)"/>
<path d="M0,0 L5,0 L2,3 L-1,6 L-2,9 L4,11 L4,12 L-2,12 L-4,11 L-4,5 Z " fill="#E6E6E6" transform="translate(12,12)"/>
</svg>
