<?xml version="1.0" encoding="UTF-8"?>
<svg version="1.1" xmlns="http://www.w3.org/2000/svg" width="28" height="28">
<path d="M0,0 L28,0 L28,28 L0,28 Z " fill="#020202" transform="translate(0,0)"/>
<path d="M0,0 L6,1 L7,4 L4,8 L2,8 L3,16 L-1,20 L-6,19 L-7,15 L-2,9 L-4,9 L-3,4 Z " fill="#D0D0D0" transform="translate(15,5)"/>
<path d="M0,0 L4,0 L4,5 L0,9 L-4,8 L-3,3 Z " fill="#4E4E4E" transform="translate(14,16)"/>
<path d="M0,0 L4,2 L2,6 L-3,7 L-2,2 Z " fill="#161616" transform="translate(16,6)"/>
</svg>
