<?xml version="1.0" encoding="UTF-8"?>
<svg version="1.1" xmlns="http://www.w3.org/2000/svg" width="28" height="28">
<path d="M0,0 L28,0 L28,28 L0,28 Z " fill="#020202" transform="translate(0,0)"/>
<path d="M0,0 L5,1 L6,5 L3,8 L3,15 L-1,19 L-8,20 L-10,19 L-9,14 L-7,12 L-8,7 L-4,2 Z " fill="#E4E4E4" transform="translate(17,5)"/>
<path d="M0,0 L1,3 L5,4 L3,6 L-3,5 L-1,1 Z " fill="#EEEEEE" transform="translate(10,19)"/>
<path d="M0,0 L2,0 L1,5 L-3,5 L-1,1 Z " fill="#1C1C1C" transform="translate(14,17)"/>
</svg>
