<?xml version="1.0" encoding="UTF-8"?>
<svg version="1.1" xmlns="http://www.w3.org/2000/svg" width="28" height="28">
<path d="M0,0 L28,0 L28,28 L0,28 Z " fill="#030303" transform="translate(0,0)"/>
<path d="M0,0 L7,0 L7,2 L1,4 L-4,8 L-4,10 L-2,10 L1,5 L4,3 L7,4 L3,8 L1,13 L7,15 L9,17 L9,20 L3,20 L-2,14 L-7,12 L-6,5 Z " fill="#E5E5E5" transform="translate(13,5)"/>
<path d="M0,0 L4,1 L-2,5 L-4,9 L-7,8 L-5,4 Z " fill="#282828" transform="translate(15,7)"/>
<path d="M0,0 L3,1 L-1,5 L-3,7 L-5,6 L-3,2 Z " fill="#D5D5D5" transform="translate(17,8)"/>
</svg>
