<?xml version="1.0" encoding="UTF-8"?>
<svg version="1.1" xmlns="http://www.w3.org/2000/svg" width="28" height="28">
<path d="M0,0 L28,0 L28,28 L0,28 Z " fill="#030303" transform="translate(0,0)"/>
<path d="M0,0 L9,1 L9,6 L4,10 L2,10 L2,16 L-3,20 L-9,20 L-8,16 L-5,12 L-3,12 L-3,10 L-6,9 L-5,4 Z " fill="#C6C6C6" transform="translate(15,5)"/>
<path d="M0,0 L7,0 L3,5 L-2,6 L-3,2 Z " fill="#0A0A0A" transform="translate(15,8)"/>
<path d="M0,0 L5,0 L4,7 L0,9 L0,6 L1,4 L-1,4 Z " fill="#EFEFEF" transform="translate(13,14)"/>
</svg>
