<?xml version="1.0" encoding="UTF-8"?>
<svg version="1.1" xmlns="http://www.w3.org/2000/svg" width="28" height="28">
<path d="M0,0 L28,0 L28,28 L0,28 Z " fill="#020202" transform="translate(0,0)"/>
<path d="M0,0 L6,0 L8,2 L7,9 L8,10 L8,16 L5,20 L1,19 L-1,17 L0,10 L0,8 L-2,6 L-1,1 Z " fill="#DDDDDD" transform="translate(11,5)"/>
<path d="M0,0 L4,0 L4,3 L2,3 L1,9 L2,12 L-2,10 L-1,3 Z " fill="#ECECEC" transform="translate(12,12)"/>
<path d="M0,0 L3,1 L2,6 L-2,6 L-1,2 Z " fill="#1E1E1E" transform="translate(14,15)"/>
<path d="M0,0 L4,0 L4,2 L6,3 L3,5 L0,3 Z " fill="#0B0B0B" transform="translate(11,7)"/>
</svg>
