<?xml version="1.0" encoding="UTF-8"?>
<svg version="1.1" xmlns="http://www.w3.org/2000/svg" width="28" height="28">
<path d="M0,0 L28,0 L28,28 L0,28 Z " fill="#010101" transform="translate(0,0)"/>
<path d="M0,0 L4,0 L4,2 L-2,5 L-3,7 L3,8 L6,3 L8,3 L7,8 L7,12 L9,14 L8,19 L1,20 L-1,18 L0,10 L-5,8 L-4,3 Z " fill="#E1E1E1" transform="translate(12,4)"/>
<path d="M0,0 L2,0 L1,5 L1,9 L3,11 L2,16 L-3,17 L0,14 L-2,10 L-5,10 L-5,6 L-1,3 Z " fill="#F0F0F0" transform="translate(18,7)"/>
<path d="M0,0 L1,2 L3,3 L0,8 L-3,9 L-7,7 L-5,3 L0,2 Z " fill="#1B1B1B" transform="translate(16,4)"/>
<path d="M0,0 L4,0 L4,2 L-2,5 L-3,7 L-1,8 L-4,9 L-5,4 Z " fill="#D0D0D0" transform="translate(12,4)"/>
<path d="M0,0 L4,2 L4,6 L-1,5 Z " fill="#141414" transform="translate(14,16)"/>
<path d="M0,0 L2,0 L1,5 L-2,8 L-3,5 Z " fill="#D8D8D8" transform="translate(18,7)"/>
</svg>
