<?xml version="1.0" encoding="UTF-8"?>
<svg version="1.1" xmlns="http://www.w3.org/2000/svg" width="28" height="28">
<path d="M0,0 L28,0 L28,28 L0,28 Z " fill="#020202" transform="translate(0,0)"/>
<path d="M0,0 L4,1 L3,6 L-1,10 L-1,18 L-3,20 L-7,20 L-8,13 L-6,12 L-5,1 L-3,1 L-2,7 L1,4 L2,2 L0,2 L-1,4 Z " fill="#E3E3E3" transform="translate(17,5)"/>
<path d="M0,0 L5,1 L3,6 L0,7 Z " fill="#2F2F2F" transform="translate(14,6)"/>
<path d="M0,0 L2,0 L3,5 L-2,6 Z " fill="#A4A4A4" transform="translate(12,19)"/>
</svg>
