<?xml version="1.0" encoding="UTF-8"?>
<svg version="1.1" xmlns="http://www.w3.org/2000/svg" width="28" height="28">
<path d="M0,0 L28,0 L28,28 L0,28 Z " fill="#020202" transform="translate(0,0)"/>
<path d="M0,0 L5,1 L5,6 L1,10 L1,19 L-3,20 L-3,18 L-1,18 L-1,13 L-6,17 L-5,12 L-4,8 L-4,2 Z " fill="#F2F2F2" transform="translate(16,5)"/>
<path d="M0,0 L5,1 L5,6 L3,7 L1,6 L1,8 L-2,8 L-2,6 L0,6 L0,2 L-3,1 Z " fill="#989898" transform="translate(16,5)"/>
<path d="M0,0 L2,2 L6,0 L6,5 L4,5 L4,7 L0,5 Z " fill="#7A7A7A" transform="translate(9,18)"/>
</svg>
