<?xml version="1.0" encoding="UTF-8"?>
<svg version="1.1" xmlns="http://www.w3.org/2000/svg" width="28" height="28">
<path d="M0,0 L28,0 L28,28 L0,28 Z " fill="#020202" transform="translate(0,0)"/>
<path d="M0,0 L9,0 L15,3 L15,6 L7,10 L11,14 L10,19 L4,20 L1,17 L1,11 L-3,7 L-2,2 Z " fill="#B5B5B5" transform="translate(9,5)"/>
<path d="M0,0 L7,0 L9,4 L4,7 L0,6 L-3,3 L-3,1 Z " fill="#191919" transform="translate(10,7)"/>
<path d="M0,0 L9,0 L15,3 L15,6 L12,8 L8,7 L8,3 L-2,3 Z " fill="#E2E2E2" transform="translate(9,5)"/>
<path d="M0,0 L4,2 L3,7 L-3,8 L-5,6 L-5,1 L-4,5 L1,5 Z " fill="#EFEFEF" transform="translate(16,17)"/>
</svg>
