<?xml version="1.0" encoding="UTF-8"?>
<svg version="1.1" xmlns="http://www.w3.org/2000/svg" width="28" height="28">
<path d="M0,0 L28,0 L28,28 L0,28 Z " fill="#020202" transform="translate(0,0)"/>
<path d="M0,0 L3,0 L4,7 L1,10 L0,16 L-6,20 L-10,19 L-8,14 L-5,9 L-7,9 L-7,4 Z " fill="#E4E4E4" transform="translate(17,4)"/>
<path d="M0,0 L3,0 L2,6 L0,8 L-5,7 L-7,6 L-6,3 Z " fill="#D8D8D8" transform="translate(17,4)"/>
<path d="M0,0 L2,0 L1,5 L-3,11 L-6,10 L-7,7 L-9,6 L-8,2 L-6,4 L-1,3 Z " fill="#F0F0F0" transform="translate(19,7)"/>
<path d="M0,0 L3,2 L1,6 L-3,8 L-4,5 Z " fill="#8E8E8E" transform="translate(12,14)"/>
<path d="M0,0 L3,0 L2,4 L-3,5 L-3,2 Z " fill="#121212" transform="translate(16,7)"/>
</svg>
