<?xml version="1.0" encoding="UTF-8"?>
<svg version="1.1" xmlns="http://www.w3.org/2000/svg" width="28" height="28">
<path d="M0,0 L28,0 L28,28 L0,28 Z " fill="#020202" transform="translate(0,0)"/>
<path d="M0,0 L8,1 L9,5 L4,9 L0,10 L2,15 L1,19 L0,20 L-5,20 L-7,18 L-6,9 L-7,5 L-4,2 Z " fill="#E2E2E2" transform="translate(15,5)"/>
<path d="M0,0 L5,0 L5,4 L-1,8 L-4,7 L-5,4 L-1,2 L1,3 Z " fill="#111111" transform="translate(15,7)"/>
<path d="M0,0 L2,0 L1,5 L-6,6 L-7,8 L-6,3 Z " fill="#C2C2C2" transform="translate(15,5)"/>
<path d="M0,0 L3,1 L3,5 L0,5 L0,3 L-2,2 Z " fill="#181818" transform="translate(11,18)"/>
</svg>
