<?xml version="1.0" encoding="UTF-8"?>
<svg version="1.1" xmlns="http://www.w3.org/2000/svg" width="28" height="28">
<path d="M0,0 L28,0 L28,28 L0,28 Z " fill="#020202" transform="translate(0,0)"/>
<path d="M0,0 L7,1 L7,6 L2,12 L5,15 L4,19 L3,20 L-5,20 L-8,17 L-6,13 L-3,12 L-3,10 L-6,9 L-6,3 L-4,1 Z " fill="#CACACA" transform="translate(15,4)"/>
<path d="M0,0 L2,0 L1,3 L-1,3 L2,8 L4,11 L0,14 L0,16 L6,16 L6,13 L9,14 L8,18 L7,19 L-1,19 L-4,16 L-2,12 L1,11 L1,9 L-2,8 L-2,2 Z " fill="#DCDCDC" transform="translate(11,5)"/>
<path d="M0,0 L5,1 L3,5 L0,8 L-4,6 L-5,2 L-2,1 L-2,3 L0,3 Z " fill="#080808" transform="translate(15,6)"/>
<path d="M0,0 L4,1 L6,4 L5,5 L-1,5 L-1,1 Z " fill="#0F0F0F" transform="translate(12,17)"/>
</svg>
