<?xml version="1.0" encoding="UTF-8"?>
<svg version="1.1" xmlns="http://www.w3.org/2000/svg" width="28" height="28">
<path d="M0,0 L28,0 L28,28 L0,28 Z " fill="#010101" transform="translate(0,0)"/>
<path d="M0,0 L5,0 L6,5 L1,9 L3,14 L2,18 L-4,20 L-6,18 L-5,9 L-6,4 L-1,3 Z " fill="#DEDEDE" transform="translate(15,5)"/>
<path d="M0,0 L5,0 L6,5 L3,8 L0,7 L4,2 L0,2 L0,5 L-4,5 L-5,7 L-6,4 L-1,3 Z " fill="#CBCBCB" transform="translate(15,5)"/>
<path d="M0,0 L4,0 L2,4 L-1,7 L-4,6 L-4,3 L0,3 Z " fill="#070707" transform="translate(15,7)"/>
<path d="M0,0 L4,2 L3,5 L-1,5 Z " fill="#080808" transform="translate(12,17)"/>
</svg>
