<?xml version="1.0" encoding="UTF-8"?>
<svg version="1.1" xmlns="http://www.w3.org/2000/svg" width="28" height="28">
<path d="M0,0 L28,0 L28,28 L0,28 Z " fill="#020202" transform="translate(0,0)"/>
<path d="M0,0 L8,1 L7,5 L3,8 L4,16 L2,16 L0,20 L-4,20 L-4,13 L-3,8 L-4,3 L-2,3 L-2,1 Z " fill="#E8E8E8" transform="translate(14,5)"/>
<path d="M0,0 L2,1 L1,3 L3,3 L1,8 L-2,5 L-4,7 L-4,3 L-2,3 L-2,1 Z " fill="#838383" transform="translate(14,5)"/>
<path d="M0,0 L6,1 L5,5 L2,5 L2,3 L-2,4 Z " fill="#EDEDED" transform="translate(16,5)"/>
<path d="M0,0 L1,2 L4,2 L3,6 L-1,6 L-1,1 Z " fill="#F0F0F0" transform="translate(11,19)"/>
<path d="M0,0 L1,2 L3,2 L2,6 L-2,5 Z " fill="#828282" transform="translate(12,15)"/>
</svg>
