<?xml version="1.0" encoding="UTF-8"?>
<svg version="1.1" xmlns="http://www.w3.org/2000/svg" width="28" height="28">
<path d="M0,0 L28,0 L28,28 L0,28 Z " fill="#030303" transform="translate(0,0)"/>
<path d="M0,0 L8,0 L11,2 L10,8 L9,11 L8,18 L3,20 L-2,20 L-3,19 L-4,10 L-5,3 Z " fill="#E8E8E8" transform="translate(12,5)"/>
<path d="M0,0 L7,0 L7,2 L4,4 L-1,4 Z " fill="#080808" transform="translate(12,9)"/>
<path d="M0,0 L4,0 L3,4 L-2,5 L-1,1 Z " fill="#282828" transform="translate(14,17)"/>
</svg>
