<?xml version="1.0" encoding="UTF-8"?>
<svg version="1.1" xmlns="http://www.w3.org/2000/svg" width="28" height="28">
<path d="M0,0 L28,0 L28,28 L0,28 Z " fill="#010101" transform="translate(0,0)"/>
<path d="M0,0 L4,0 L6,5 L2,7 L5,11 L4,17 L1,20 L-5,19 L-6,18 L-6,13 L-4,9 L-6,8 L-5,3 Z " fill="#E5E5E5" transform="translate(15,5)"/>
<path d="M0,0 L2,0 L2,3 L6,4 L4,8 L2,11 L-2,10 L-2,5 Z " fill="#D7D7D7" transform="translate(11,13)"/>
<path d="M0,0 L4,0 L6,5 L3,7 L-2,6 L-2,4 L-5,3 Z " fill="#DADADA" transform="translate(15,5)"/>
<path d="M0,0 L3,1 L1,5 L-2,6 L-1,1 Z " fill="#151515" transform="translate(14,16)"/>
<path d="M0,0 L2,1 L0,3 L0,7 L-2,6 L-2,4 L-5,3 Z " fill="#A5A5A5" transform="translate(15,5)"/>
</svg>
