<?xml version="1.0" encoding="UTF-8"?>
<svg version="1.1" xmlns="http://www.w3.org/2000/svg" width="28" height="28">
<path d="M0,0 L28,0 L28,28 L0,28 Z " fill="#010101" transform="translate(0,0)"/>
<path d="M0,0 L7,1 L10,5 L8,10 L4,13 L3,20 L-4,20 L-3,15 L-1,11 L-3,11 L-4,5 L-2,5 L-1,1 Z " fill="#D5D5D5" transform="translate(13,5)"/>
<path d="M0,0 L2,0 L0,5 L-4,8 L-5,15 L-12,15 L-11,10 L-8,9 L-8,6 L-2,2 Z " fill="#ECECEC" transform="translate(21,10)"/>
<path d="M0,0 L5,0 L5,3 L0,8 L-2,2 Z " fill="#0B0B0B" transform="translate(14,8)"/>
</svg>
