<?xml version="1.0" encoding="UTF-8"?>
<svg version="1.1" xmlns="http://www.w3.org/2000/svg" width="28" height="28">
<path d="M0,0 L28,0 L28,28 L0,28 Z " fill="#020202" transform="translate(0,0)"/>
<path d="M0,0 L8,0 L11,2 L10,8 L7,11 L6,15 L2,14 L-1,15 L0,17 L5,18 L3,20 L-3,19 L-4,15 L1,10 L-4,8 L-5,3 Z " fill="#E7E7E7" transform="translate(12,5)"/>
<path d="M0,0 L5,0 L6,1 L6,6 L4,8 L1,8 L1,6 L-3,4 L-3,1 Z " fill="#131313" transform="translate(13,7)"/>
<path d="M0,0 L6,1 L7,5 L4,7 L1,6 L-3,4 L-3,2 Z " fill="#C0C0C0" transform="translate(14,18)"/>
<path d="M0,0 L8,0 L11,2 L10,8 L7,8 L6,2 L0,1 Z " fill="#CCCCCC" transform="translate(12,5)"/>
<path d="M0,0 L4,2 L4,4 L-3,4 L-3,2 Z " fill="#181818" transform="translate(14,18)"/>
</svg>
