<?xml version="1.0" encoding="UTF-8"?>
<svg version="1.1" xmlns="http://www.w3.org/2000/svg" width="28" height="28">
<path d="M0,0 L28,0 L28,28 L0,28 Z " fill="#020202" transform="translate(0,0)"/>
<path d="M0,0 L7,1 L8,5 L0,4 L1,8 L5,7 L5,9 L3,9 L5,15 L2,20 L-4,19 L-3,8 L-4,6 Z " fill="#DCDCDC" transform="translate(13,5)"/>
<path d="M0,0 L2,0 L3,5 L-2,8 L-2,6 L-7,8 L-7,3 L0,3 Z " fill="#A7A7A7" transform="translate(20,6)"/>
<path d="M0,0 L5,1 L6,5 L-2,4 Z " fill="#F5F5F5" transform="translate(15,5)"/>
<path d="M0,0 L5,0 L6,2 L3,2 L3,4 L0,5 Z " fill="#1E1E1E" transform="translate(13,9)"/>
</svg>
