<?xml version="1.0" encoding="UTF-8"?>
<svg version="1.1" xmlns="http://www.w3.org/2000/svg" width="28" height="28">
<path d="M0,0 L28,0 L28,28 L0,28 Z " fill="#010101" transform="translate(0,0)"/>
<path d="M0,0 L12,0 L13,4 L9,9 L6,11 L6,17 L4,20 L-3,20 L-5,18 L-4,13 L-1,11 L-3,6 L-2,2 Z " fill="#E0E0E0" transform="translate(11,5)"/>
<path d="M0,0 L2,0 L3,3 L5,0 L4,6 L3,7 L-4,7 L-2,6 L-3,3 Z " fill="#8F8F8F" transform="translate(12,18)"/>
<path d="M0,0 L8,0 L9,4 L-4,4 L-3,1 Z " fill="#E5E5E5" transform="translate(15,5)"/>
<path d="M0,0 L8,0 L7,3 L1,6 L-1,1 Z " fill="#252525" transform="translate(13,8)"/>
</svg>
