<?xml version="1.0" encoding="UTF-8"?>
<svg version="1.1" xmlns="http://www.w3.org/2000/svg" width="28" height="28">
<path d="M0,0 L28,0 L28,28 L0,28 Z " fill="#030303" transform="translate(0,0)"/>
<path d="M0,0 L9,0 L10,5 L6,8 L4,8 L5,10 L5,16 L1,20 L-3,20 L-4,14 L-1,9 L-5,6 L-5,2 Z " fill="#C9C9C9" transform="translate(13,6)"/>
<path d="M0,0 L3,0 L2,3 L-4,5 L-7,4 L-6,1 L-1,1 Z " fill="#272727" transform="translate(18,8)"/>
<path d="M0,0 L5,0 L6,5 L3,6 L4,2 L-1,4 L-1,1 Z " fill="#F0F0F0" transform="translate(17,6)"/>
</svg>
