<?xml version="1.0" encoding="UTF-8"?>
<svg version="1.1" xmlns="http://www.w3.org/2000/svg" width="28" height="28">
<path d="M0,0 L28,0 L28,28 L0,28 Z " fill="#060606" transform="translate(0,0)"/>
<path d="M0,0 L9,0 L10,3 L-3,3 L0,7 L0,9 L9,8 L6,10 L3,11 L3,17 L0,20 L-5,19 L-7,17 L-7,13 L-4,11 L-5,7 L-6,6 L-6,1 Z " fill="#C3C3C3" transform="translate(15,5)"/>
<path d="M0,0 L9,0 L10,3 L-4,3 L-4,5 L-6,5 L-6,1 Z " fill="#F1F1F1" transform="translate(15,5)"/>
<path d="M0,0 L1,3 L5,2 L7,0 L8,3 L5,6 L0,5 L-2,2 Z " fill="#E9E9E9" transform="translate(10,19)"/>
</svg>
