<?xml version="1.0" encoding="UTF-8"?>
<svg version="1.1" xmlns="http://www.w3.org/2000/svg" width="28" height="28">
<path d="M0,0 L28,0 L28,28 L0,28 Z " fill="#020202" transform="translate(0,0)"/>
<path d="M0,0 L4,2 L4,9 L1,9 L1,18 L-3,20 L-4,19 L-4,13 L-2,10 L-1,1 Z " fill="#BEBEBE" transform="translate(15,4)"/>
<path d="M0,0 L3,0 L3,7 L-1,6 L-1,1 Z " fill="#828282" transform="translate(16,6)"/>
<path d="M0,0 L3,1 L2,4 L1,3 L1,9 L0,11 L-2,10 L-1,1 Z " fill="#F0F0F0" transform="translate(15,4)"/>
</svg>
