<?xml version="1.0" encoding="UTF-8"?>
<svg version="1.1" xmlns="http://www.w3.org/2000/svg" width="28" height="28">
<path d="M0,0 L28,0 L28,28 L0,28 Z " fill="#010101" transform="translate(0,0)"/>
<path d="M0,0 L5,2 L10,4 L10,6 L4,8 L4,17 L2,20 L-2,19 L-1,6 L-1,1 Z " fill="#BFBFBF" transform="translate(12,5)"/>
<path d="M0,0 L9,2 L9,4 L3,6 L2,9 Z " fill="#969696" transform="translate(13,7)"/>
<path d="M0,0 L1,0 L1,5 L3,5 L3,0 L4,0 L4,6 L0,7 L-1,6 L-1,1 Z " fill="#E9E9E9" transform="translate(11,18)"/>
</svg>
