<?xml version="1.0" encoding="UTF-8"?>
<svg version="1.1" xmlns="http://www.w3.org/2000/svg" width="28" height="28">
<path d="M0,0 L28,0 L28,28 L0,28 Z " fill="#020202" transform="translate(0,0)"/>
<path d="M0,0 L5,1 L7,3 L7,6 L13,5 L13,7 L3,11 L1,11 L2,19 L-2,20 L-5,18 L-4,13 L-2,10 L-2,3 Z " fill="#CFCFCF" transform="translate(13,5)"/>
<path d="M0,0 L4,1 L5,5 L-1,7 L-1,1 Z " fill="#141414" transform="translate(14,7)"/>
<path d="M0,0 L3,1 L3,6 L-1,7 L-2,3 Z " fill="#8C8C8C" transform="translate(10,17)"/>
<path d="M0,0 L2,2 L3,11 L-1,12 L-2,10 L1,10 L1,5 L-1,5 Z " fill="#EDEDED" transform="translate(12,13)"/>
</svg>
