<?xml version="1.0" encoding="UTF-8"?>
<svg version="1.1" xmlns="http://www.w3.org/2000/svg" width="28" height="28">
<path d="M0,0 L28,0 L28,28 L0,28 Z " fill="#020202" transform="translate(0,0)"/>
<path d="M0,0 L2,0 L1,10 L3,10 L4,15 L0,20 L-4,19 L-2,10 L-8,8 L-10,6 L-10,3 L-8,2 L0,2 Z " fill="#7C7C7C" transform="translate(16,5)"/>
<path d="M0,0 L2,0 L2,6 L0,7 L0,4 L-8,4 L-5,7 L-3,9 L-8,8 L-10,6 L-10,3 L-8,2 L0,2 Z " fill="#DBDBDB" transform="translate(16,5)"/>
<path d="M0,0 L2,1 L1,6 L-2,9 L-6,8 L-5,2 L-3,2 L-3,6 L-1,4 Z " fill="#DBDBDB" transform="translate(18,16)"/>
<path d="M0,0 L6,1 L5,5 L-1,4 L-2,1 Z " fill="#212121" transform="translate(10,8)"/>
</svg>
