<?xml version="1.0" encoding="UTF-8"?>
<svg version="1.1" xmlns="http://www.w3.org/2000/svg" width="28" height="28">
<path d="M0,0 L28,0 L28,28 L0,28 Z " fill="#040404" transform="translate(0,0)"/>
<path d="M0,0 L3,0 L1,5 L-2,11 L2,13 L1,17 L-3,20 L-10,20 L-10,16 L-7,11 L-15,9 L-14,5 L-7,1 L-4,1 L-4,3 L-10,6 L-11,8 L-4,8 L-2,2 Z " fill="#D0D0D0" transform="translate(20,4)"/>
<path d="M0,0 L3,0 L3,2 L-3,5 L-4,7 L1,9 L-2,10 L-8,8 L-7,4 Z " fill="#DBDBDB" transform="translate(13,5)"/>
<path d="M0,0 L2,0 L1,4 L-3,7 L-10,7 L-10,3 L-7,3 L-8,4 L-2,3 Z " fill="#E5E5E5" transform="translate(20,17)"/>
<path d="M0,0 L4,2 L0,6 L-5,6 Z " fill="#0D0D0D" transform="translate(16,16)"/>
</svg>
