<?xml version="1.0" encoding="UTF-8"?>
<svg version="1.1" xmlns="http://www.w3.org/2000/svg" width="28" height="28">
<path d="M0,0 L28,0 L28,28 L0,28 Z " fill="#010101" transform="translate(0,0)"/>
<path d="M0,0 L8,1 L11,4 L9,10 L13,12 L14,16 L8,20 L-1,20 L-5,18 L-6,14 L-5,10 L-6,5 Z " fill="#E3E3E3" transform="translate(11,4)"/>
<path d="M0,0 L5,0 L9,5 L5,8 L-5,8 L-7,4 L-5,1 Z " fill="#030303" transform="translate(14,14)"/>
<path d="M0,0 L6,2 L6,6 L3,8 L-6,8 L-5,4 L-1,2 Z " fill="#0E0E0E" transform="translate(13,5)"/>
<path d="M0,0 L2,0 L1,4 L5,6 L6,10 L0,14 L-8,13 L-8,12 L2,10 L2,7 L0,5 L-7,5 L-8,3 L-1,1 Z " fill="#C6C6C6" transform="translate(19,10)"/>
</svg>
