<?xml version="1.0" encoding="UTF-8"?>
<svg version="1.1" xmlns="http://www.w3.org/2000/svg" width="28" height="28">
<path d="M0,0 L28,0 L28,28 L0,28 Z " fill="#020202" transform="translate(0,0)"/>
<path d="M0,0 L7,0 L9,2 L9,5 L6,4 L6,2 L2,4 L2,8 L7,6 L10,6 L9,9 L7,10 L7,16 L5,19 L-1,20 L-4,18 L-3,13 L1,8 L-1,8 L-1,2 Z " fill="#EEEEEE" transform="translate(12,4)"/>
<path d="M0,0 L2,2 L1,8 L-3,9 L-6,8 L-4,4 Z " fill="#9C9C9C" transform="translate(17,14)"/>
<path d="M0,0 L3,0 L5,4 L2,6 L-1,6 L-2,2 Z " fill="#272727" transform="translate(15,6)"/>
</svg>
