<?xml version="1.0" encoding="UTF-8"?>
<svg version="1.1" xmlns="http://www.w3.org/2000/svg" width="28" height="28">
<path d="M0,0 L28,0 L28,28 L0,28 Z " fill="#020202" transform="translate(0,0)"/>
<path d="M0,0 L1,2 L-1,6 L3,5 L3,0 L6,1 L6,7 L8,10 L7,18 L4,20 L-2,19 L-2,13 L-1,10 L-2,8 L-2,2 Z " fill="#DADADA" transform="translate(12,4)"/>
<path d="M0,0 L3,1 L4,7 L1,10 L-2,9 L-1,1 Z " fill="#0D0D0D" transform="translate(14,12)"/>
<path d="M0,0 L2,0 L3,5 L-2,6 Z " fill="#222222" transform="translate(13,4)"/>
</svg>
