<?xml version="1.0" encoding="UTF-8"?>
<svg version="1.1" xmlns="http://www.w3.org/2000/svg" width="28" height="28">
<path d="M0,0 L28,0 L28,28 L0,28 Z " fill="#020202" transform="translate(0,0)"/>
<path d="M0,0 L4,2 L4,6 L2,6 L2,8 L-3,10 L0,14 L-1,19 L-6,20 L-8,18 L-8,13 L-5,5 L0,2 Z " fill="#CECECE" transform="translate(17,5)"/>
<path d="M0,0 L3,2 L2,6 L-2,5 Z " fill="#0D0D0D" transform="translate(12,17)"/>
<path d="M0,0 L4,1 L-1,5 L-3,5 L-3,2 L0,2 Z " fill="#262626" transform="translate(16,9)"/>
</svg>
