<?xml version="1.0" encoding="UTF-8"?>
<svg version="1.1" xmlns="http://www.w3.org/2000/svg" width="28" height="28">
<path d="M0,0 L28,0 L28,28 L0,28 Z " fill="#020202" transform="translate(0,0)"/>
<path d="M0,0 L3,1 L3,3 L-3,3 L-3,8 L2,6 L0,10 L-1,18 L-3,20 L-7,19 L-9,17 L-9,12 L-6,9 L-6,2 Z " fill="#E2E2E2" transform="translate(18,4)"/>
<path d="M0,0 L3,0 L2,5 L-2,4 Z " fill="#222222" transform="translate(13,16)"/>
<path d="M0,0 L6,0 L5,3 L0,5 Z " fill="#272727" transform="translate(15,7)"/>
</svg>
