<?xml version="1.0" encoding="UTF-8"?>
<svg version="1.1" xmlns="http://www.w3.org/2000/svg" width="28" height="28">
<path d="M0,0 L28,0 L28,28 L0,28 Z " fill="#020202" transform="translate(0,0)"/>
<path d="M0,0 L6,0 L8,2 L1,2 L1,4 L6,5 L12,0 L14,0 L12,4 L7,9 L11,14 L9,19 L1,20 L-1,17 L-1,12 L3,7 L1,7 L1,5 L-2,4 Z " fill="#CFCFCF" transform="translate(9,5)"/>
<path d="M0,0 L6,0 L8,2 L1,2 L1,4 L6,5 L12,0 L14,0 L12,4 L7,9 L10,12 L9,15 L3,10 L3,7 L1,7 L1,5 L-2,4 Z " fill="#DBDBDB" transform="translate(9,5)"/>
<path d="M0,0 L4,3 L4,7 L-2,8 L-3,7 L-3,2 Z " fill="#0E0E0E" transform="translate(13,15)"/>
<path d="M0,0 L2,0 L0,4 L-5,8 L-8,6 L-2,2 Z " fill="#D0D0D0" transform="translate(21,5)"/>
<path d="M0,0 L1,3 L-4,5 L-7,3 L-7,1 Z " fill="#2A2A2A" transform="translate(17,6)"/>
</svg>
