<?xml version="1.0" encoding="UTF-8"?>
<svg version="1.1" xmlns="http://www.w3.org/2000/svg" width="28" height="28">
<path d="M0,0 L28,0 L28,28 L0,28 Z " fill="#020202" transform="translate(0,0)"/>
<path d="M0,0 L8,1 L7,5 L1,10 L2,18 L-1,20 L-8,19 L-7,12 L-5,12 L-7,8 L-6,4 Z " fill="#DEDEDE" transform="translate(16,5)"/>
<path d="M0,0 L2,4 L3,8 L0,10 L-4,9 L-5,5 L-3,2 L-1,2 Z " fill="#D1D1D1" transform="translate(15,15)"/>
<path d="M0,0 L5,1 L4,5 L-2,10 L-4,10 L-5,13 L-7,12 L-6,8 L1,4 L-1,1 Z " fill="#EBEBEB" transform="translate(19,5)"/>
<path d="M0,0 L6,0 L1,5 L-4,4 L-4,2 Z " fill="#181818" transform="translate(15,8)"/>
<path d="M0,0 L3,2 L2,5 L-2,5 L-1,1 Z " fill="#101010" transform="translate(12,18)"/>
</svg>
