<?xml version="1.0" encoding="UTF-8"?>
<svg version="1.1" xmlns="http://www.w3.org/2000/svg" width="28" height="28">
<path d="M0,0 L28,0 L28,28 L0,28 Z " fill="#030303" transform="translate(0,0)"/>
<path d="M0,0 L4,1 L0,3 L-1,7 L0,10 L2,10 L4,18 L2,20 L-3,19 L-4,18 L-4,13 L-3,9 L-4,4 Z " fill="#E4E4E4" transform="translate(15,4)"/>
<path d="M0,0 L4,1 L0,3 L-1,7 L0,10 L-2,12 L-4,7 L-3,2 Z " fill="#CECECE" transform="translate(15,4)"/>
<path d="M0,0 L5,3 L6,0 L7,3 L5,5 L0,4 Z " fill="#E7E7E7" transform="translate(12,19)"/>
<path d="M0,0 L3,0 L4,5 L0,4 Z " fill="#131313" transform="translate(13,17)"/>
</svg>
