<?xml version="1.0" encoding="UTF-8"?>
<svg version="1.1" xmlns="http://www.w3.org/2000/svg" width="28" height="28">
<path d="M0,0 L28,0 L28,28 L0,28 Z " fill="#010101" transform="translate(0,0)"/>
<path d="M0,0 L5,0 L6,2 L6,8 L2,9 L2,11 L-2,11 L0,15 L-1,20 L-6,19 L-7,15 L-4,5 Z " fill="#C2C2C2" transform="translate(15,5)"/>
<path d="M0,0 L4,0 L3,5 L-1,7 L-4,7 L-2,2 Z " fill="#1A1A1A" transform="translate(16,8)"/>
<path d="M0,0 L4,2 L4,6 L-1,5 L-2,1 Z " fill="#6C6C6C" transform="translate(10,19)"/>
<path d="M0,0 L5,0 L6,2 L6,8 L2,9 L4,7 L5,3 L-2,4 Z " fill="#E4E4E4" transform="translate(15,5)"/>
</svg>
