<?xml version="1.0" encoding="UTF-8"?>
<svg version="1.1" xmlns="http://www.w3.org/2000/svg" width="28" height="28">
<path d="M0,0 L28,0 L28,28 L0,28 Z " fill="#020202" transform="translate(0,0)"/>
<path d="M0,0 L6,1 L6,9 L4,12 L4,19 L3,20 L-3,20 L-4,15 L-2,11 L-3,4 Z " fill="#BDBDBD" transform="translate(13,4)"/>
<path d="M0,0 L6,1 L6,8 L4,8 L3,4 L0,6 L-2,10 L-3,9 L-3,4 Z " fill="#D6D6D6" transform="translate(13,4)"/>
<path d="M0,0 L2,0 L3,4 L-1,7 L-2,2 Z " fill="#202020" transform="translate(14,8)"/>
<path d="M0,0 L4,0 L3,3 L-3,3 L-3,1 Z " fill="#F2F2F2" transform="translate(13,21)"/>
</svg>
