<?xml version="1.0" encoding="UTF-8"?>
<svg version="1.1" xmlns="http://www.w3.org/2000/svg" width="28" height="28">
<path d="M0,0 L28,0 L28,28 L0,28 Z " fill="#010101" transform="translate(0,0)"/>
<path d="M0,0 L2,0 L0,4 L-3,9 L3,7 L5,0 L7,3 L6,7 L0,12 L1,18 L0,20 L-6,19 L-7,18 L-7,13 L-4,4 Z " fill="#A5A5A5" transform="translate(16,4)"/>
<path d="M0,0 L1,0 L1,6 L-2,9 L-8,10 L-6,5 Z " fill="#181818" transform="translate(20,4)"/>
<path d="M0,0 L3,3 L2,8 L-4,7 L-5,6 L-5,1 L-2,5 L1,6 Z " fill="#D0D0D0" transform="translate(14,16)"/>
<path d="M0,0 L2,0 L0,4 L-4,7 L-3,3 Z " fill="#EFEFEF" transform="translate(16,4)"/>
</svg>
