<?xml version="1.0" encoding="UTF-8"?>
<svg version="1.1" xmlns="http://www.w3.org/2000/svg" width="28" height="28">
<path d="M0,0 L28,0 L28,28 L0,28 Z " fill="#030303" transform="translate(0,0)"/>
<path d="M0,0 L9,1 L10,3 L9,5 L7,5 L6,12 L12,14 L11,19 L5,20 L3,18 L2,13 L-3,10 L-4,5 L-2,1 Z " fill="#C6C6C6" transform="translate(11,5)"/>
<path d="M0,0 L9,1 L10,3 L9,5 L7,5 L6,9 L4,8 L4,4 L1,3 L2,12 L-2,11 L-4,9 L-3,3 Z " fill="#E3E3E3" transform="translate(11,5)"/>
<path d="M0,0 L4,1 L2,7 L-1,4 Z " fill="#121212" transform="translate(12,8)"/>
<path d="M0,0 L1,4 L-5,5 L-6,2 L0,2 Z " fill="#F6F6F6" transform="translate(21,20)"/>
</svg>
