<?xml version="1.0" encoding="UTF-8"?>
<svg version="1.1" xmlns="http://www.w3.org/2000/svg" width="28" height="28">
<path d="M0,0 L28,0 L28,28 L0,28 Z " fill="#010101" transform="translate(0,0)"/>
<path d="M0,0 L5,1 L5,5 L3,5 L2,3 L-1,3 L0,8 L4,6 L7,7 L3,10 L1,17 L-1,20 L-7,19 L-7,13 L-3,9 L-3,2 Z " fill="#E9E9E9" transform="translate(15,4)"/>
<path d="M0,0 L1,0 L1,5 L-2,9 L-8,8 L-8,2 L-7,4 L-3,1 Z " fill="#A3A3A3" transform="translate(16,15)"/>
<path d="M0,0 L5,1 L5,5 L3,5 L2,3 L-1,3 L-2,7 L-3,7 L-3,2 Z " fill="#D1D1D1" transform="translate(15,4)"/>
</svg>
