<?xml version="1.0" encoding="UTF-8"?>
<svg version="1.1" xmlns="http://www.w3.org/2000/svg" width="28" height="28">
<path d="M0,0 L28,0 L28,28 L0,28 Z " fill="#010101" transform="translate(0,0)"/>
<path d="M0,0 L7,0 L10,2 L10,5 L13,6 L7,8 L12,15 L11,20 L4,20 L1,17 L2,8 L-1,5 Z " fill="#D5D5D5" transform="translate(9,4)"/>
<path d="M0,0 L4,2 L6,6 L1,7 L-1,5 Z " fill="#1B1B1B" transform="translate(13,15)"/>
<path d="M0,0 L6,0 L7,4 L4,6 L0,2 Z " fill="#121212" transform="translate(10,6)"/>
</svg>
