<?xml version="1.0" encoding="UTF-8"?>
<svg version="1.1" xmlns="http://www.w3.org/2000/svg" width="28" height="28">
<path d="M0,0 L28,0 L28,28 L0,28 Z " fill="#020202" transform="translate(0,0)"/>
<path d="M0,0 L8,1 L12,1 L11,6 L10,12 L11,17 L9,20 L4,19 L3,13 L4,11 L-2,9 L-4,7 L-4,4 L-2,4 Z " fill="#D8D8D8" transform="translate(9,6)"/>
<path d="M0,0 L6,0 L5,5 L2,6 L-2,2 Z " fill="#111111" transform="translate(11,9)"/>
<path d="M0,0 L2,0 L3,3 L6,4 L6,2 L8,2 L6,7 L1,6 Z " fill="#E8E8E8" transform="translate(12,19)"/>
<path d="M0,0 L2,2 L1,7 L-3,6 L-4,1 L0,2 Z " fill="#7F7F7F" transform="translate(17,16)"/>
<path d="M0,0 L1,0 L1,5 L-1,5 L-1,7 L-5,6 L-6,4 L-3,3 Z " fill="#F0F0F0" transform="translate(18,11)"/>
</svg>
