<?xml version="1.0" encoding="UTF-8"?>
<svg version="1.1" xmlns="http://www.w3.org/2000/svg" width="28" height="28">
<path d="M0,0 L28,0 L28,28 L0,28 Z " fill="#020202" transform="translate(0,0)"/>
<path d="M0,0 L6,0 L9,2 L9,5 L12,6 L7,9 L7,18 L5,20 L0,19 L-1,14 L1,9 L-2,6 L-1,1 Z " fill="#E2E2E2" transform="translate(11,6)"/>
<path d="M0,0 L4,1 L4,6 L2,8 L-2,8 Z " fill="#A3A3A3" transform="translate(14,18)"/>
<path d="M0,0 L6,1 L6,4 L-2,3 Z " fill="#F4F4F4" transform="translate(13,6)"/>
<path d="M0,0 L5,0 L5,4 L1,3 Z " fill="#1C1C1C" transform="translate(12,9)"/>
</svg>
