<?xml version="1.0" encoding="UTF-8"?>
<svg version="1.1" xmlns="http://www.w3.org/2000/svg" width="28" height="28">
<path d="M0,0 L28,0 L28,28 L0,28 Z " fill="#030303" transform="translate(0,0)"/>
<path d="M0,0 L8,1 L8,6 L6,10 L4,16 L0,20 L-6,20 L-8,18 L-8,13 L-4,11 L-7,9 L-7,5 Z " fill="#E3E3E3" transform="translate(15,5)"/>
<path d="M0,0 L1,2 L0,4 L2,4 L2,2 L4,2 L3,6 L1,8 L-5,8 L-7,7 L-6,4 Z " fill="#272727" transform="translate(17,6)"/>
<path d="M0,0 L2,0 L1,5 L-3,8 L-7,7 L-6,2 Z " fill="#141414" transform="translate(16,16)"/>
</svg>
