<?xml version="1.0" encoding="UTF-8"?>
<svg version="1.1" xmlns="http://www.w3.org/2000/svg" width="28" height="28">
<path d="M0,0 L28,0 L28,28 L0,28 Z " fill="#050505" transform="translate(0,0)"/>
<path d="M0,0 L6,0 L8,3 L4,2 L5,7 L4,10 L8,10 L8,16 L4,20 L-6,20 L-6,16 L-1,13 L0,11 L-6,11 L-6,7 Z " fill="#EAEAEA" transform="translate(14,4)"/>
<path d="M0,0 L3,0 L3,6 L-1,10 L-11,10 L-11,6 L-6,4 L-7,7 L-2,7 L1,2 L-2,1 Z " fill="#DADADA" transform="translate(19,14)"/>
<path d="M0,0 L4,0 L3,4 L1,6 L-6,6 L-1,1 Z " fill="#101010" transform="translate(16,16)"/>
<path d="M0,0 L2,0 L2,3 L4,3 L3,7 L-2,7 L-3,5 Z " fill="#222222" transform="translate(13,7)"/>
</svg>
