<?xml version="1.0" encoding="UTF-8"?>
<svg version="1.1" xmlns="http://www.w3.org/2000/svg" width="28" height="28">
<path d="M0,0 L28,0 L28,28 L0,28 Z " fill="#020202" transform="translate(0,0)"/>
<path d="M0,0 L4,0 L7,8 L11,10 L11,16 L9,16 L7,20 L-4,20 L-6,19 L-7,14 L-4,2 Z " fill="#D0D0D0" transform="translate(13,4)"/>
<path d="M0,0 L5,0 L4,6 L0,8 L-7,7 L-9,4 L-8,1 Z " fill="#0E0E0E" transform="translate(17,15)"/>
<path d="M0,0 L4,0 L5,8 L3,5 L3,3 L-3,6 L-5,7 L-4,2 Z " fill="#EFEFEF" transform="translate(13,4)"/>
<path d="M0,0 L3,0 L3,5 L0,6 L-3,5 L-2,1 Z " fill="#0F0F0F" transform="translate(13,7)"/>
<path d="M0,0 L4,1 L4,7 L2,7 L2,9 L-1,8 L1,8 L1,2 Z " fill="#B9B9B9" transform="translate(20,13)"/>
</svg>
