<?xml version="1.0" encoding="UTF-8"?>
<svg version="1.1" xmlns="http://www.w3.org/2000/svg" width="28" height="28">
<path d="M0,0 L28,0 L28,28 L0,28 Z " fill="#020202" transform="translate(0,0)"/>
<path d="M0,0 L5,0 L10,3 L11,7 L10,11 L11,16 L7,20 L-4,20 L-7,18 L-6,13 L-5,10 L-5,4 Z " fill="#E5E5E5" transform="translate(12,4)"/>
<path d="M0,0 L1,4 L-3,8 L-14,8 L-16,7 L-15,2 L-14,5 L-4,4 Z " fill="#DDDDDD" transform="translate(22,16)"/>
<path d="M0,0 L7,0 L10,3 L7,5 L-3,5 L-3,2 Z " fill="#0B0B0B" transform="translate(11,16)"/>
<path d="M0,0 L5,1 L7,2 L7,5 L-4,6 L-4,2 Z " fill="#1F1F1F" transform="translate(13,7)"/>
<path d="M0,0 L1,4 L-3,8 L-5,7 L-4,4 Z " fill="#C2C2C2" transform="translate(22,16)"/>
</svg>
