<?xml version="1.0" encoding="UTF-8"?>
<svg version="1.1" xmlns="http://www.w3.org/2000/svg" width="28" height="28">
<path d="M0,0 L28,0 L28,28 L0,28 Z " fill="#020202" transform="translate(0,0)"/>
<path d="M0,0 L5,0 L6,3 L11,5 L13,11 L14,12 L14,18 L8,20 L-1,20 L-4,18 L-3,13 L-2,11 L-5,10 L-4,3 Z " fill="#D6D6D6" transform="translate(11,4)"/>
<path d="M0,0 L5,0 L7,4 L-2,5 L-3,9 L7,8 L8,10 L0,14 L-2,17 L2,17 L2,19 L-3,19 L-4,15 L-2,11 L-5,10 L-4,3 Z " fill="#E7E7E7" transform="translate(11,4)"/>
<path d="M0,0 L7,0 L10,3 L9,6 L-5,6 L-3,2 Z " fill="#090909" transform="translate(14,15)"/>
<path d="M0,0 L10,1 L12,4 L-1,5 Z " fill="#0F0F0F" transform="translate(9,8)"/>
<path d="M0,0 L2,2 L-4,4 L-13,4 L-10,3 L-10,1 Z " fill="#BDBDBD" transform="translate(23,20)"/>
</svg>
