<?xml version="1.0" encoding="UTF-8"?>
<svg version="1.1" xmlns="http://www.w3.org/2000/svg" width="28" height="28">
<path d="M0,0 L28,0 L28,28 L0,28 Z " fill="#010101" transform="translate(0,0)"/>
<path d="M0,0 L4,1 L4,5 L6,5 L5,9 L3,11 L3,20 L-1,19 L-3,16 L-2,11 L0,7 L3,7 L1,3 L-1,6 L-1,1 Z " fill="#A8A8A8" transform="translate(13,5)"/>
<path d="M0,0 L4,1 L4,5 L6,5 L5,9 L0,11 L0,7 L3,7 L1,3 L-1,6 L-1,1 Z " fill="#DFDFDF" transform="translate(13,5)"/>
<path d="M0,0 L2,1 L2,5 L-1,5 L-2,7 L-3,1 Z " fill="#4A4A4A" transform="translate(14,7)"/>
</svg>
