<?xml version="1.0" encoding="UTF-8"?>
<svg version="1.1" xmlns="http://www.w3.org/2000/svg" width="28" height="28">
<path d="M0,0 L28,0 L28,28 L0,28 Z " fill="#010101" transform="translate(0,0)"/>
<path d="M0,0 L4,1 L6,5 L1,10 L-4,13 L-6,18 L0,15 L2,10 L4,10 L3,15 L-2,19 L-7,20 L-8,15 L-6,10 L-5,5 Z " fill="#D2D2D2" transform="translate(16,5)"/>
<path d="M0,0 L1,2 L-1,7 L-5,10 L-8,10 L-7,5 L-1,1 Z " fill="#171717" transform="translate(18,13)"/>
<path d="M0,0 L1,3 L-1,8 L5,5 L7,0 L9,0 L8,5 L3,9 L-2,10 L-3,5 Z " fill="#C7C7C7" transform="translate(11,15)"/>
<path d="M0,0 L4,1 L6,0 L4,4 L-1,5 Z " fill="#1B1B1B" transform="translate(14,9)"/>
</svg>
