<?xml version="1.0" encoding="UTF-8"?>
<svg version="1.1" xmlns="http://www.w3.org/2000/svg" width="28" height="28">
<path d="M0,0 L28,0 L28,28 L0,28 Z " fill="#020202" transform="translate(0,0)"/>
<path d="M0,0 L7,0 L8,4 L5,9 L5,16 L-1,20 L-12,20 L-11,15 L-7,11 L-5,4 Z " fill="#DDDDDD" transform="translate(16,5)"/>
<path d="M0,0 L4,0 L4,6 L-1,9 L-8,9 L-8,6 L-2,1 Z " fill="#0D0D0D" transform="translate(15,15)"/>
<path d="M0,0 L4,0 L2,5 L-2,7 L-6,6 L-6,2 L-1,1 Z " fill="#282828" transform="translate(18,7)"/>
<path d="M0,0 L7,0 L8,4 L5,8 L3,7 L6,2 L-2,5 L-4,3 Z " fill="#CECECE" transform="translate(16,5)"/>
</svg>
