<?xml version="1.0" encoding="UTF-8"?>
<svg version="1.1" xmlns="http://www.w3.org/2000/svg" width="28" height="28">
<path d="M0,0 L28,0 L28,28 L0,28 Z " fill="#020202" transform="translate(0,0)"/>
<path d="M0,0 L7,0 L6,5 L1,10 L-3,13 L-5,18 L-8,20 L-13,19 L-12,15 L-8,13 L-9,4 Z " fill="#DDDDDD" transform="translate(18,5)"/>
<path d="M0,0 L7,0 L6,5 L1,10 L-4,11 L-5,11 L-5,6 Z " fill="#D6D6D6" transform="translate(18,5)"/>
<path d="M0,0 L2,0 L0,4 L-7,10 L-8,10 L-8,5 L-6,3 L-2,3 L-2,1 Z " fill="#191919" transform="translate(21,6)"/>
</svg>
