<?xml version="1.0" encoding="UTF-8"?>
<svg version="1.1" xmlns="http://www.w3.org/2000/svg" width="28" height="28">
<path d="M0,0 L28,0 L28,28 L0,28 Z " fill="#010101" transform="translate(0,0)"/>
<path d="M0,0 L2,0 L2,3 L4,3 L4,5 L1,7 L1,17 L0,19 L-5,18 L-5,12 L-4,7 L0,4 L-1,2 Z " fill="#C2C2C2" transform="translate(16,6)"/>
<path d="M0,0 L4,0 L5,5 L2,8 L-2,8 L-3,2 Z " fill="#424242" transform="translate(12,5)"/>
<path d="M0,0 L2,0 L2,3 L4,3 L4,5 L1,7 L-2,6 L0,4 L-1,2 Z " fill="#ABABAB" transform="translate(16,6)"/>
<path d="M0,0 L2,1 L1,8 L-1,9 Z " fill="#171717" transform="translate(14,15)"/>
</svg>
