<?xml version="1.0" encoding="UTF-8"?>
<svg version="1.1" xmlns="http://www.w3.org/2000/svg" width="28" height="28">
<path d="M0,0 L28,0 L28,28 L0,28 Z " fill="#040404" transform="translate(0,0)"/>
<path d="M0,0 L5,1 L4,8 L10,8 L11,9 L11,14 L6,19 L1,19 L0,14 L1,11 L-7,11 L-6,6 L-3,4 L-4,9 L0,8 L1,2 L-1,1 Z " fill="#F7F7F7" transform="translate(12,6)"/>
<path d="M0,0 L1,0 L1,5 L-4,10 L-9,10 L-10,5 L-7,4 L-6,1 L-2,1 L-1,3 Z " fill="#D5D5D5" transform="translate(22,15)"/>
<path d="M0,0 L5,0 L2,2 L3,3 L3,9 L-2,10 L-2,6 L-4,7 L-2,3 Z " fill="#BDBDBD" transform="translate(10,5)"/>
<path d="M0,0 L4,0 L2,5 L-1,6 L-1,1 Z " fill="#1A1A1A" transform="translate(16,16)"/>
<path d="M0,0 L2,0 L2,5 L-3,6 L-1,1 Z " fill="#1E1E1E" transform="translate(11,9)"/>
</svg>
