<?xml version="1.0" encoding="UTF-8"?>
<svg version="1.1" xmlns="http://www.w3.org/2000/svg" width="28" height="28">
<path d="M0,0 L28,0 L28,28 L0,28 Z " fill="#030303" transform="translate(0,0)"/>
<path d="M0,0 L6,2 L8,4 L8,15 L4,18 L-2,20 L-8,20 L-10,19 L-9,14 L-6,7 L-5,3 Z " fill="#EBEBEB" transform="translate(15,4)"/>
<path d="M0,0 L3,1 L2,4 L-3,6 L-7,6 L-5,2 Z " fill="#212121" transform="translate(16,15)"/>
<path d="M0,0 L4,0 L4,3 L-2,4 Z " fill="#222222" transform="translate(15,8)"/>
</svg>
