<?xml version="1.0" encoding="UTF-8"?>
<svg version="1.1" xmlns="http://www.w3.org/2000/svg" width="28" height="28">
<path d="M0,0 L28,0 L28,28 L0,28 Z " fill="#020202" transform="translate(0,0)"/>
<path d="M0,0 L4,1 L3,6 L2,3 L-2,5 L-1,10 L5,8 L6,5 L9,5 L9,9 L7,9 L7,11 L2,13 L3,14 L3,19 L-2,20 L-6,17 L-5,9 L-5,4 Z " fill="#E3E3E3" transform="translate(14,4)"/>
<path d="M0,0 L4,1 L3,6 L2,3 L-2,5 L-3,13 L-1,13 L0,17 L-5,18 L-6,14 L-5,9 L-5,4 Z " fill="#8E8E8E" transform="translate(14,4)"/>
<path d="M0,0 L4,1 L3,6 L2,3 L-2,5 L-5,8 L-4,3 Z " fill="#D5D5D5" transform="translate(14,4)"/>
<path d="M0,0 L3,0 L3,4 L1,4 L1,6 L-4,5 L-1,3 Z " fill="#C8C8C8" transform="translate(20,9)"/>
</svg>
