<?xml version="1.0" encoding="UTF-8"?>
<svg version="1.1" xmlns="http://www.w3.org/2000/svg" width="28" height="28">
<path d="M0,0 L28,0 L28,28 L0,28 Z " fill="#050505" transform="translate(0,0)"/>
<path d="M0,0 L6,0 L8,3 L7,8 L5,11 L-3,13 L-6,14 L-6,17 L2,16 L4,12 L6,12 L6,17 L0,20 L-7,19 L-8,18 L-8,13 L-7,11 L-7,6 Z " fill="#E3E3E3" transform="translate(15,4)"/>
<path d="M0,0 L3,2 L1,2 L1,5 L9,4 L11,0 L13,0 L13,5 L7,8 L0,7 L-1,6 L-1,1 Z " fill="#DADADA" transform="translate(8,16)"/>
<path d="M0,0 L6,1 L5,5 L-1,7 L-5,7 L-4,4 L-1,4 Z " fill="#181818" transform="translate(15,6)"/>
</svg>
