<?xml version="1.0" encoding="UTF-8"?>
<svg version="1.1" xmlns="http://www.w3.org/2000/svg" width="28" height="28">
<path d="M0,0 L28,0 L28,28 L0,28 Z " fill="#030303" transform="translate(0,0)"/>
<path d="M0,0 L10,0 L12,3 L7,6 L5,10 L11,14 L12,18 L10,20 L3,20 L1,18 L1,11 L-4,9 L-5,3 Z " fill="#DBDBDB" transform="translate(10,5)"/>
<path d="M0,0 L3,4 L8,4 L5,0 L10,1 L11,5 L9,7 L2,7 L0,5 Z " fill="#EDEDED" transform="translate(11,18)"/>
<path d="M0,0 L4,1 L0,7 L-4,5 L-3,1 Z " fill="#0D0D0D" transform="translate(12,7)"/>
<path d="M0,0 L6,2 L6,5 L1,5 Z " fill="#1E1E1E" transform="translate(13,18)"/>
<path d="M0,0 L10,0 L6,2 L-2,4 L-2,1 Z " fill="#BFBFBF" transform="translate(10,5)"/>
</svg>
