<?xml version="1.0" encoding="UTF-8"?>
<svg version="1.1" xmlns="http://www.w3.org/2000/svg" width="28" height="28">
<path d="M0,0 L28,0 L28,28 L0,28 Z " fill="#020202" transform="translate(0,0)"/>
<path d="M0,0 L6,1 L5,6 L1,10 L0,17 L-4,20 L-7,18 L-6,8 L-7,3 L-5,1 Z " fill="#D6D6D6" transform="translate(16,6)"/>
<path d="M0,0 L1,0 L1,7 L-3,10 L-6,8 L-5,2 L0,2 Z " fill="#676767" transform="translate(15,16)"/>
<path d="M0,0 L2,0 L4,5 L6,6 L6,9 L3,9 L2,11 L0,4 Z " fill="#EEEEEE" transform="translate(9,9)"/>
<path d="M0,0 L2,0 L0,4 L-2,6 L-5,6 L-6,3 L-5,1 L0,2 Z " fill="#171717" transform="translate(17,8)"/>
<path d="M0,0 L2,1 L1,4 L-4,3 L-5,5 L-6,2 Z " fill="#BFBFBF" transform="translate(16,6)"/>
</svg>
