<?xml version="1.0" encoding="UTF-8"?>
<svg version="1.1" xmlns="http://www.w3.org/2000/svg" width="28" height="28">
<path d="M0,0 L28,0 L28,28 L0,28 Z " fill="#020202" transform="translate(0,0)"/>
<path d="M0,0 L7,1 L10,4 L8,8 L-3,11 L-1,15 L-2,19 L-7,19 L-9,17 L-8,10 L-10,7 L-9,3 Z " fill="#D5D5D5" transform="translate(16,6)"/>
<path d="M0,0 L7,1 L8,4 L-2,8 L-6,7 L-8,3 L-7,2 L-2,2 L-1,4 Z " fill="#111111" transform="translate(16,8)"/>
<path d="M0,0 L5,5 L4,8 L8,9 L9,14 L8,15 L3,15 L1,13 L2,6 L0,3 Z " fill="#A2A2A2" transform="translate(6,10)"/>
</svg>
