<?xml version="1.0" encoding="UTF-8"?>
<svg version="1.1" xmlns="http://www.w3.org/2000/svg" width="28" height="28">
<path d="M0,0 L28,0 L28,28 L0,28 Z " fill="#040404" transform="translate(0,0)"/>
<path d="M0,0 L5,2 L9,5 L10,16 L5,19 L-5,20 L-9,16 L-8,11 L-5,8 L-5,3 Z " fill="#EEEEEE" transform="translate(13,4)"/>
<path d="M0,0 L12,0 L10,5 L7,7 L-2,6 L-3,2 Z " fill="#0F0F0F" transform="translate(9,15)"/>
<path d="M0,0 L2,2 L-1,4 L-1,7 L8,8 L11,6 L13,3 L13,5 L15,5 L13,9 L6,11 L0,11 L-4,7 L-3,2 Z " fill="#CBCBCB" transform="translate(8,13)"/>
<path d="M0,0 L8,0 L9,4 L5,5 L-1,2 Z " fill="#1A1A1A" transform="translate(11,8)"/>
<path d="M0,0 L3,1 L2,4 L-2,6 L0,8 L-5,8 L-5,3 Z " fill="#B9B9B9" transform="translate(13,4)"/>
</svg>
