<?xml version="1.0" encoding="UTF-8"?>
<svg version="1.1" xmlns="http://www.w3.org/2000/svg" width="28" height="28">
<path d="M0,0 L28,0 L28,28 L0,28 Z " fill="#020202" transform="translate(0,0)"/>
<path d="M0,0 L5,1 L5,6 L-1,11 L-3,17 L-7,20 L-12,20 L-12,15 L-7,10 L-5,10 L-5,4 Z " fill="#E7E7E7" transform="translate(18,4)"/>
<path d="M0,0 L3,0 L3,5 L0,7 L-5,7 L-4,3 Z " fill="#A6A6A6" transform="translate(11,17)"/>
<path d="M0,0 L2,1 L0,3 L2,4 L2,6 L-3,8 L-3,5 L-5,4 Z " fill="#999999" transform="translate(18,4)"/>
</svg>
