<?xml version="1.0" encoding="UTF-8"?>
<svg version="1.1" xmlns="http://www.w3.org/2000/svg" width="28" height="28">
<path d="M0,0 L28,0 L28,28 L0,28 Z " fill="#010101" transform="translate(0,0)"/>
<path d="M0,0 L6,1 L6,6 L4,10 L5,11 L5,17 L3,20 L-3,19 L-4,18 L-4,11 L-1,8 L-4,7 L-3,2 Z " fill="#D9D9D9" transform="translate(14,5)"/>
<path d="M0,0 L3,1 L3,7 L-2,8 L-3,3 Z " fill="#111111" transform="translate(14,15)"/>
<path d="M0,0 L2,2 L4,3 L2,7 L-3,8 L-4,3 Z " fill="#737373" transform="translate(14,5)"/>
<path d="M0,0 L2,3 L0,8 L-6,7 L-7,5 L-1,5 Z " fill="#B6B6B6" transform="translate(17,17)"/>
</svg>
