<?xml version="1.0" encoding="UTF-8"?>
<svg version="1.1" xmlns="http://www.w3.org/2000/svg" width="28" height="28">
<path d="M0,0 L28,0 L28,28 L0,28 Z " fill="#010101" transform="translate(0,0)"/>
<path d="M0,0 L6,0 L5,5 L3,5 L0,14 L-4,19 L-11,20 L-12,15 L-7,9 L-4,7 L-2,1 Z " fill="#DBDBDB" transform="translate(17,5)"/>
<path d="M0,0 L6,0 L5,5 L3,5 L2,7 L2,4 L-1,5 L-2,1 Z " fill="#DCDCDC" transform="translate(17,5)"/>
<path d="M0,0 L1,4 L-1,7 L-5,8 L-4,4 Z " fill="#242424" transform="translate(13,15)"/>
</svg>
