<?xml version="1.0" encoding="UTF-8"?>
<svg version="1.1" xmlns="http://www.w3.org/2000/svg" width="28" height="28">
<path d="M0,0 L28,0 L28,28 L0,28 Z " fill="#050505" transform="translate(0,0)"/>
<path d="M0,0 L9,0 L11,2 L10,11 L13,12 L13,17 L6,20 L1,19 L0,14 L1,11 L3,11 L3,9 L-3,7 L-3,2 Z " fill="#F0F0F0" transform="translate(9,5)"/>
<path d="M0,0 L4,1 L4,5 L1,7 L-3,7 L-2,2 Z " fill="#292929" transform="translate(15,16)"/>
<path d="M0,0 L6,1 L6,4 L2,5 L-3,4 L-2,1 Z " fill="#171717" transform="translate(11,7)"/>
<path d="M0,0 L1,0 L1,5 L-3,7 L-4,4 L-2,4 L-2,2 L0,2 Z " fill="#CFCFCF" transform="translate(21,17)"/>
</svg>
