<?xml version="1.0" encoding="UTF-8"?>
<svg version="1.1" xmlns="http://www.w3.org/2000/svg" width="28" height="28">
<path d="M0,0 L28,0 L28,28 L0,28 Z " fill="#020202" transform="translate(0,0)"/>
<path d="M0,0 L4,1 L4,4 L9,3 L5,8 L3,10 L6,13 L5,18 L3,20 L-3,19 L-5,16 L-4,11 L-3,9 L-6,8 L-4,2 Z " fill="#E4E4E4" transform="translate(14,5)"/>
<path d="M0,0 L4,1 L4,6 L0,8 L-4,7 L-6,8 L-4,2 Z " fill="#A6A6A6" transform="translate(14,5)"/>
<path d="M0,0 L6,1 L5,6 L3,8 L-2,7 L-2,2 Z " fill="#D6D6D6" transform="translate(14,17)"/>
<path d="M0,0 L3,1 L2,5 L-1,6 L-2,2 Z " fill="#191919" transform="translate(14,17)"/>
</svg>
