<?xml version="1.0" encoding="UTF-8"?>
<svg version="1.1" xmlns="http://www.w3.org/2000/svg" width="28" height="28">
<path d="M0,0 L28,0 L28,28 L0,28 Z " fill="#010101" transform="translate(0,0)"/>
<path d="M0,0 L5,0 L9,4 L7,8 L6,11 L8,14 L8,20 L4,20 L1,15 L0,8 L-2,6 L-1,1 Z " fill="#B2B2B2" transform="translate(11,6)"/>
<path d="M0,0 L5,0 L5,2 L1,3 L2,7 L4,8 L2,15 L1,15 L0,8 L-2,6 L-1,1 Z " fill="#C6C6C6" transform="translate(11,6)"/>
<path d="M0,0 L4,1 L5,5 L1,6 L-1,4 Z " fill="#0F0F0F" transform="translate(12,8)"/>
<path d="M0,0 L3,1 L5,4 L4,8 L0,4 Z " fill="#0E0E0E" transform="translate(13,17)"/>
</svg>
