<?xml version="1.0" encoding="UTF-8"?>
<svg version="1.1" xmlns="http://www.w3.org/2000/svg" width="28" height="28">
<path d="M0,0 L28,0 L28,28 L0,28 Z " fill="#020202" transform="translate(0,0)"/>
<path d="M0,0 L6,0 L7,4 L3,9 L3,17 L-1,20 L-6,19 L-6,14 L-3,9 L-4,3 Z " fill="#ECECEC" transform="translate(15,5)"/>
<path d="M0,0 L4,1 L3,6 L-1,8 L-1,6 L-3,6 L-1,1 Z M-1,5 Z " fill="#E6E6E6" transform="translate(14,17)"/>
<path d="M0,0 L3,1 L2,5 L-2,6 L-6,6 L-6,4 Z " fill="#7C7C7C" transform="translate(19,5)"/>
<path d="M0,0 L2,0 L1,4 L-3,6 L-1,1 Z " fill="#242424" transform="translate(14,17)"/>
</svg>
