<?xml version="1.0" encoding="UTF-8"?>
<svg version="1.1" xmlns="http://www.w3.org/2000/svg" width="28" height="28">
<path d="M0,0 L28,0 L28,28 L0,28 Z " fill="#030303" transform="translate(0,0)"/>
<path d="M0,0 L5,2 L5,8 L4,12 L3,17 L-2,20 L-9,20 L-10,16 L-6,12 L-4,12 L-4,10 L-8,9 L-8,4 L-4,1 Z " fill="#D7D7D7" transform="translate(17,4)"/>
<path d="M0,0 L5,0 L4,2 L-1,5 L0,7 L4,9 L3,12 L-1,15 L5,16 L2,19 L-5,19 L-6,15 L-2,11 L0,11 L0,9 L-4,8 L-4,3 Z " fill="#E5E5E5" transform="translate(13,5)"/>
<path d="M0,0 L6,0 L5,4 L0,5 L-2,2 Z " fill="#0D0D0D" transform="translate(13,8)"/>
<path d="M0,0 L2,1 L0,5 L-5,5 Z " fill="#0F0F0F" transform="translate(16,16)"/>
</svg>
