<?xml version="1.0" encoding="UTF-8"?>
<svg version="1.1" xmlns="http://www.w3.org/2000/svg" width="28" height="28">
<path d="M0,0 L28,0 L28,28 L0,28 Z " fill="#020202" transform="translate(0,0)"/>
<path d="M0,0 L2,0 L2,5 L-4,10 L-3,14 L-8,19 L-14,20 L-13,14 L-9,10 L-7,4 L-1,1 Z " fill="#C9C9C9" transform="translate(20,4)"/>
<path d="M0,0 L2,0 L2,5 L-4,7 L-2,2 Z " fill="#1C1C1C" transform="translate(12,15)"/>
<path d="M0,0 L2,4 L-1,8 L-5,7 L-2,6 Z " fill="#CACACA" transform="translate(15,14)"/>
</svg>
