<?xml version="1.0" encoding="UTF-8"?>
<svg version="1.1" xmlns="http://www.w3.org/2000/svg" width="28" height="28">
<path d="M0,0 L28,0 L28,28 L0,28 Z " fill="#020202" transform="translate(0,0)"/>
<path d="M0,0 L7,0 L12,3 L10,7 L7,10 L5,10 L5,15 L2,16 L-7,16 L-7,13 L1,10 Z " fill="#D2D2D2" transform="translate(12,6)"/>
<path d="M0,0 L6,2 L3,6 L-1,5 L-2,1 Z " fill="#101010" transform="translate(16,8)"/>
<path d="M0,0 L7,0 L4,3 L2,3 L4,8 L2,10 L0,6 Z " fill="#BABABA" transform="translate(12,6)"/>
<path d="M0,0 L4,0 L5,3 L-1,4 L-4,2 Z " fill="#696969" transform="translate(12,18)"/>
</svg>
