<?xml version="1.0" encoding="UTF-8"?>
<svg version="1.1" xmlns="http://www.w3.org/2000/svg" width="28" height="28">
<path d="M0,0 L28,0 L28,28 L0,28 Z " fill="#020202" transform="translate(0,0)"/>
<path d="M0,0 L5,0 L7,3 L-4,11 L-6,18 L-9,20 L-13,19 L-11,14 L-9,11 L-12,9 L-12,5 Z " fill="#D2D2D2" transform="translate(20,5)"/>
<path d="M0,0 L4,0 L4,2 L-1,5 L-5,8 L-10,6 L-10,4 Z " fill="#121212" transform="translate(20,7)"/>
<path d="M0,0 L4,4 L0,8 L-4,7 L-2,2 Z " fill="#A9A9A9" transform="translate(11,17)"/>
<path d="M0,0 L2,0 L2,2 L-4,6 L-5,11 L-8,8 L-8,5 L-1,1 Z " fill="#E7E7E7" transform="translate(20,10)"/>
<path d="M0,0 L5,0 L7,3 L2,6 L1,4 L4,4 L4,2 L-2,3 L-3,1 Z " fill="#B2B2B2" transform="translate(20,5)"/>
</svg>
