<?xml version="1.0" encoding="UTF-8"?>
<svg version="1.1" xmlns="http://www.w3.org/2000/svg" width="28" height="28">
<path d="M0,0 L28,0 L28,28 L0,28 Z " fill="#020202" transform="translate(0,0)"/>
<path d="M0,0 L5,1 L6,8 L3,10 L3,16 L-5,20 L-10,20 L-11,15 L-8,11 L-5,11 L-6,6 L-5,3 Z " fill="#C5C5C5" transform="translate(16,5)"/>
<path d="M0,0 L5,1 L6,8 L4,9 L4,5 L-3,6 L-4,8 L1,9 L1,11 L-5,13 L-9,15 L-8,11 L-5,11 L-6,6 L-5,3 Z " fill="#DEDEDE" transform="translate(16,5)"/>
<path d="M0,0 L5,1 L4,5 L0,7 L-5,7 L-4,3 Z " fill="#141414" transform="translate(12,16)"/>
<path d="M0,0 L5,0 L6,3 L3,3 L3,5 L-3,4 L-2,1 Z " fill="#0C0C0C" transform="translate(15,9)"/>
</svg>
