<?xml version="1.0" encoding="UTF-8"?>
<svg version="1.1" xmlns="http://www.w3.org/2000/svg" width="28" height="28">
<path d="M0,0 L28,0 L28,28 L0,28 Z " fill="#010101" transform="translate(0,0)"/>
<path d="M0,0 L5,1 L8,4 L7,10 L5,14 L5,19 L-2,20 L-3,15 L-1,12 L-6,9 L-6,6 L-2,8 L3,10 L4,5 L1,3 L1,8 L0,8 Z " fill="#D6D6D6" transform="translate(13,5)"/>
<path d="M0,0 L2,3 L6,5 L5,10 L1,10 L-1,8 Z " fill="#2B2B2B" transform="translate(12,5)"/>
<path d="M0,0 L5,1 L7,3 L6,7 L6,4 L1,3 L1,8 L0,8 Z " fill="#F4F4F4" transform="translate(13,5)"/>
<path d="M0,0 L4,2 L4,5 L-2,4 Z " fill="#7C7C7C" transform="translate(12,18)"/>
</svg>
