<?xml version="1.0" encoding="UTF-8"?>
<svg version="1.1" xmlns="http://www.w3.org/2000/svg" width="28" height="28">
<path d="M0,0 L28,0 L28,28 L0,28 Z " fill="#020202" transform="translate(0,0)"/>
<path d="M0,0 L7,1 L9,3 L9,8 L13,12 L11,16 L5,20 L-2,20 L-7,16 L-6,10 L-4,9 L-2,1 Z " fill="#D4D4D4" transform="translate(12,5)"/>
<path d="M0,0 L12,0 L13,5 L9,8 L2,8 L-2,5 Z " fill="#0C0C0C" transform="translate(9,15)"/>
<path d="M0,0 L6,0 L7,4 L2,5 L-2,3 Z " fill="#0D0D0D" transform="translate(12,8)"/>
<path d="M0,0 L5,2 L6,7 L4,7 L3,4 L-1,3 Z " fill="#C8C8C8" transform="translate(15,5)"/>
<path d="M0,0 L2,3 L-3,7 L-7,6 L-2,3 L0,3 Z " fill="#C3C3C3" transform="translate(22,17)"/>
</svg>
