<?xml version="1.0" encoding="UTF-8"?>
<svg version="1.1" xmlns="http://www.w3.org/2000/svg" width="28" height="28">
<path d="M0,0 L28,0 L28,28 L0,28 Z " fill="#020202" transform="translate(0,0)"/>
<path d="M0,0 L7,0 L7,7 L5,11 L6,16 L3,20 L-5,20 L-4,15 L-1,12 L-1,10 L-5,7 L-4,2 Z " fill="#DBDBDB" transform="translate(13,5)"/>
<path d="M0,0 L5,0 L4,6 L-1,5 L-3,4 L-2,1 Z " fill="#181818" transform="translate(13,7)"/>
<path d="M0,0 L4,1 L0,3 L-1,5 L2,6 L2,8 L-2,7 L-3,2 Z " fill="#EAEAEA" transform="translate(11,6)"/>
<path d="M0,0 L3,1 L2,5 L-3,6 L-1,2 Z " fill="#1D1D1D" transform="translate(14,17)"/>
</svg>
