<?xml version="1.0" encoding="UTF-8"?>
<svg version="1.1" xmlns="http://www.w3.org/2000/svg" width="28" height="28">
<path d="M0,0 L28,0 L28,28 L0,28 Z " fill="#030303" transform="translate(0,0)"/>
<path d="M0,0 L0,3 L-5,8 L-9,11 L-8,19 L-12,20 L-18,19 L-18,15 L-16,15 L-15,6 L-14,2 L-11,1 L-10,8 Z " fill="#A8A8A8" transform="translate(25,4)"/>
<path d="M0,0 L0,3 L-5,8 L-8,10 L-13,10 L-15,6 L-14,2 L-11,1 L-10,8 Z " fill="#E9E9E9" transform="translate(25,4)"/>
<path d="M0,0 L0,3 L-5,8 L-9,10 L-8,6 Z " fill="#CFCFCF" transform="translate(25,4)"/>
<path d="M0,0 L3,0 L3,4 L-1,5 L-7,4 L-7,1 L0,3 Z " fill="#F0F0F0" transform="translate(14,19)"/>
</svg>
