<?xml version="1.0" encoding="UTF-8"?>
<svg version="1.1" xmlns="http://www.w3.org/2000/svg" width="28" height="28">
<path d="M0,0 L28,0 L28,28 L0,28 Z " fill="#010101" transform="translate(0,0)"/>
<path d="M0,0 L6,0 L7,5 L5,7 L5,18 L2,20 L-4,19 L-5,18 L-5,13 L-2,10 L-1,7 L-4,6 L-5,3 Z " fill="#D8D8D8" transform="translate(14,5)"/>
<path d="M0,0 L8,1 L6,5 L3,5 L2,9 L2,6 L-1,5 L-2,2 Z " fill="#8F8F8F" transform="translate(11,6)"/>
<path d="M0,0 L1,0 L1,7 L-5,8 L-8,6 L-7,2 L-5,4 L0,5 Z " fill="#EAEAEA" transform="translate(17,17)"/>
<path d="M0,0 L3,1 L3,6 L-2,6 L-3,4 Z " fill="#212121" transform="translate(14,16)"/>
</svg>
