<?xml version="1.0" encoding="UTF-8"?>
<svg version="1.1" xmlns="http://www.w3.org/2000/svg" width="28" height="28">
<path d="M0,0 L28,0 L28,28 L0,28 Z " fill="#010101" transform="translate(0,0)"/>
<path d="M0,0 L7,0 L10,2 L10,6 L6,9 L7,16 L4,19 L-2,20 L-3,17 L1,10 L-1,5 Z " fill="#D7D7D7" transform="translate(11,5)"/>
<path d="M0,0 L1,3 L-2,6 L-8,7 L-9,4 L-8,1 L-6,1 L-6,4 L-1,4 Z " fill="#CACACA" transform="translate(17,18)"/>
<path d="M0,0 L8,1 L8,3 L2,6 L0,3 Z " fill="#0B0B0B" transform="translate(12,7)"/>
<path d="M0,0 L2,1 L2,6 L-4,7 L-2,2 Z " fill="#1C1C1C" transform="translate(14,16)"/>
<path d="M0,0 L7,0 L9,2 L6,3 L0,1 Z " fill="#A5A5A5" transform="translate(11,5)"/>
</svg>
