<?xml version="1.0" encoding="UTF-8"?>
<svg version="1.1" xmlns="http://www.w3.org/2000/svg" width="28" height="28">
<path d="M0,0 L28,0 L28,28 L0,28 Z " fill="#030303" transform="translate(0,0)"/>
<path d="M0,0 L2,0 L2,2 L5,2 L4,10 L9,11 L10,15 L5,20 L1,19 L1,12 L-5,11 L-4,7 L-1,1 Z " fill="#EBEBEB" transform="translate(12,5)"/>
<path d="M0,0 L4,1 L3,6 L-1,9 L-4,8 L-4,5 L-3,1 Z " fill="#D9D9D9" transform="translate(18,16)"/>
<path d="M0,0 L3,1 L2,6 L-4,7 L-3,3 Z " fill="#949494" transform="translate(11,9)"/>
<path d="M0,0 L5,1 L2,6 L-1,5 Z " fill="#171717" transform="translate(15,17)"/>
</svg>
