<?xml version="1.0" encoding="UTF-8"?>
<svg version="1.1" xmlns="http://www.w3.org/2000/svg" width="28" height="28">
<path d="M0,0 L28,0 L28,28 L0,28 Z " fill="#020202" transform="translate(0,0)"/>
<path d="M0,0 L7,1 L6,6 L0,10 L-3,10 L-3,12 L-5,12 L-2,17 L-3,20 L-10,19 L-11,18 L-11,13 L-8,5 L-3,1 Z " fill="#D1D1D1" transform="translate(18,5)"/>
<path d="M0,0 L3,1 L1,3 L0,7 L2,7 L4,12 L4,16 L-3,15 L-4,14 L-4,9 L-1,1 Z " fill="#E9E9E9" transform="translate(11,9)"/>
<path d="M0,0 L5,0 L3,4 L-4,8 L-7,8 L-6,4 L-4,2 L0,2 Z " fill="#191919" transform="translate(18,7)"/>
<path d="M0,0 L1,2 L5,3 L6,5 L4,5 L3,7 L0,5 Z " fill="#959595" transform="translate(7,18)"/>
</svg>
