<?xml version="1.0" encoding="UTF-8"?>
<svg version="1.1" xmlns="http://www.w3.org/2000/svg" width="28" height="28">
<path d="M0,0 L28,0 L28,28 L0,28 Z " fill="#020202" transform="translate(0,0)"/>
<path d="M0,0 L2,0 L0,4 L-2,7 L6,2 L9,3 L-1,9 L-3,9 L-1,16 L-2,17 L-11,17 L-10,13 L-7,10 L-4,4 Z " fill="#D6D6D6" transform="translate(17,5)"/>
<path d="M0,0 L2,0 L0,4 L-2,7 L6,2 L9,3 L-1,9 L-5,9 L-4,4 Z " fill="#D3D3D3" transform="translate(17,5)"/>
<path d="M0,0 L3,2 L3,4 L-3,4 L-2,1 Z " fill="#2A2A2A" transform="translate(11,17)"/>
<path d="M0,0 L2,0 L0,4 L-2,6 L-5,5 Z " fill="#BABABA" transform="translate(17,5)"/>
</svg>
