<?xml version="1.0" encoding="UTF-8"?>
<svg version="1.1" xmlns="http://www.w3.org/2000/svg" width="28" height="28">
<path d="M0,0 L28,0 L28,28 L0,28 Z " fill="#020202" transform="translate(0,0)"/>
<path d="M0,0 L5,1 L7,3 L7,9 L9,11 L9,17 L6,20 L1,20 L-2,17 L-2,11 L-3,10 L-2,3 Z " fill="#E2E2E2" transform="translate(12,4)"/>
<path d="M0,0 L4,0 L4,5 L2,7 L-2,6 L-1,1 Z " fill="#111111" transform="translate(15,15)"/>
<path d="M0,0 L5,1 L4,5 L-1,6 L-1,1 Z " fill="#121212" transform="translate(12,7)"/>
</svg>
