<?xml version="1.0" encoding="UTF-8"?>
<svg version="1.1" xmlns="http://www.w3.org/2000/svg" width="28" height="28">
<path d="M0,0 L28,0 L28,28 L0,28 Z " fill="#010101" transform="translate(0,0)"/>
<path d="M0,0 L5,0 L7,3 L9,12 L9,17 L5,20 L0,19 L-2,17 L-3,4 L-2,1 Z " fill="#E3E3E3" transform="translate(12,5)"/>
<path d="M0,0 L3,1 L3,7 L-2,7 L-2,1 Z " fill="#0B0B0B" transform="translate(15,15)"/>
<path d="M0,0 L4,0 L3,5 L-2,5 L-1,1 Z " fill="#272727" transform="translate(13,8)"/>
<path d="M0,0 L3,0 L3,5 L1,7 L-5,6 L-5,5 L0,5 Z " fill="#B6B6B6" transform="translate(18,17)"/>
</svg>
