<?xml version="1.0" encoding="UTF-8"?>
<svg version="1.1" xmlns="http://www.w3.org/2000/svg" width="28" height="28">
<path d="M0,0 L28,0 L28,28 L0,28 Z " fill="#040404" transform="translate(0,0)"/>
<path d="M0,0 L4,1 L0,4 L-1,7 L5,9 L7,3 L9,2 L8,9 L12,11 L13,17 L8,20 L4,19 L3,18 L3,11 L-2,9 L-4,7 L-3,2 Z " fill="#E8E8E8" transform="translate(10,4)"/>
<path d="M0,0 L4,1 L5,7 L0,10 L-3,10 L-3,1 Z " fill="#DADADA" transform="translate(18,14)"/>
<path d="M0,0 L4,1 L0,4 L-1,7 L3,9 L-1,10 L-4,7 L-3,2 Z " fill="#D1D1D1" transform="translate(10,4)"/>
<path d="M0,0 L6,1 L6,4 L0,5 Z " fill="#151515" transform="translate(15,16)"/>
</svg>
