<?xml version="1.0" encoding="UTF-8"?>
<svg version="1.1" xmlns="http://www.w3.org/2000/svg" width="28" height="28">
<path d="M0,0 L28,0 L28,28 L0,28 Z " fill="#010101" transform="translate(0,0)"/>
<path d="M0,0 L4,1 L5,4 L6,6 L3,9 L4,17 L2,20 L-3,19 L-3,13 L-3,9 L-4,3 Z " fill="#B9B9B9" transform="translate(14,4)"/>
<path d="M0,0 L3,1 L4,6 L1,9 L-2,7 L-1,2 Z " fill="#BCBCBC" transform="translate(14,15)"/>
<path d="M0,0 L2,0 L2,7 L-2,7 L-2,2 Z " fill="#101010" transform="translate(14,5)"/>
<path d="M0,0 L2,2 L1,6 L-2,6 L-1,1 Z " fill="#0F0F0F" transform="translate(14,16)"/>
</svg>
