<?xml version="1.0" encoding="UTF-8"?>
<svg version="1.1" xmlns="http://www.w3.org/2000/svg" width="28" height="28">
<path d="M0,0 L28,0 L28,28 L0,28 Z " fill="#020202" transform="translate(0,0)"/>
<path d="M0,0 L5,0 L7,2 L7,10 L8,12 L8,18 L6,20 L1,20 L-1,17 L0,11 L-3,7 L-3,2 Z " fill="#D6D6D6" transform="translate(11,4)"/>
<path d="M0,0 L5,0 L6,4 L2,8 L-1,5 Z " fill="#0A0A0A" transform="translate(11,6)"/>
<path d="M0,0 L4,2 L3,7 L-2,6 L-2,2 L0,2 Z " fill="#151515" transform="translate(14,15)"/>
</svg>
