<?xml version="1.0" encoding="UTF-8"?>
<svg version="1.1" xmlns="http://www.w3.org/2000/svg" width="28" height="28">
<path d="M0,0 L28,0 L28,28 L0,28 Z " fill="#030303" transform="translate(0,0)"/>
<path d="M0,0 L5,2 L9,10 L11,15 L6,20 L0,20 L-3,18 L-3,11 L-5,11 L-5,3 Z " fill="#DCDCDC" transform="translate(12,4)"/>
<path d="M0,0 L8,1 L7,5 L6,6 L0,6 L-1,1 Z " fill="#101010" transform="translate(12,15)"/>
<path d="M0,0 L7,1 L8,3 L4,4 L4,8 L7,9 L7,11 L2,11 L1,10 Z " fill="#F1F1F1" transform="translate(8,12)"/>
<path d="M0,0 L1,0 L1,5 L-2,7 L-8,7 L-5,6 L-5,4 L-1,2 Z " fill="#C6C6C6" transform="translate(20,17)"/>
<path d="M0,0 L4,1 L4,4 L-3,4 L-3,1 Z " fill="#060606" transform="translate(12,8)"/>
</svg>
