<?xml version="1.0" encoding="UTF-8"?>
<svg version="1.1" xmlns="http://www.w3.org/2000/svg" width="28" height="28">
<path d="M0,0 L28,0 L28,28 L0,28 Z " fill="#020202" transform="translate(0,0)"/>
<path d="M0,0 L6,0 L9,3 L0,3 L0,6 L4,7 L5,4 L7,4 L7,9 L10,13 L9,19 L3,20 L2,19 L1,9 L-2,6 L-2,1 Z " fill="#D4D4D4" transform="translate(10,5)"/>
<path d="M0,0 L1,0 L1,7 L5,6 L5,1 L7,2 L6,8 L0,9 L-1,8 L-1,2 Z " fill="#EBEBEB" transform="translate(13,16)"/>
<path d="M0,0 L6,0 L9,3 L0,3 L0,6 L-2,6 L-2,1 Z " fill="#DADADA" transform="translate(10,5)"/>
<path d="M0,0 L4,2 L4,6 L0,7 Z " fill="#242424" transform="translate(14,16)"/>
</svg>
