<?xml version="1.0" encoding="UTF-8"?>
<svg version="1.1" xmlns="http://www.w3.org/2000/svg" width="28" height="28">
<path d="M0,0 L28,0 L28,28 L0,28 Z " fill="#030303" transform="translate(0,0)"/>
<path d="M0,0 L5,1 L6,5 L3,9 L5,10 L5,15 L-2,20 L-8,20 L-10,18 L-9,11 L-7,6 L-3,4 L-3,7 L2,5 L3,2 L0,2 Z " fill="#E1E1E1" transform="translate(17,4)"/>
<path d="M0,0 L4,2 L3,5 L-1,8 L-6,8 L-6,3 Z " fill="#121212" transform="translate(16,14)"/>
<path d="M0,0 L1,0 L1,5 L-4,8 L-4,5 L-2,5 Z " fill="#C2C2C2" transform="translate(21,14)"/>
</svg>
