<?xml version="1.0" encoding="UTF-8"?>
<svg version="1.1" xmlns="http://www.w3.org/2000/svg" width="28" height="28">
<path d="M0,0 L28,0 L28,28 L0,28 Z " fill="#010101" transform="translate(0,0)"/>
<path d="M0,0 L3,0 L4,4 L2,3 L1,7 L6,5 L6,7 L3,9 L3,19 L2,20 L-4,20 L-7,18 L-6,14 L-2,10 L-1,1 Z " fill="#E8E8E8" transform="translate(14,3)"/>
<path d="M0,0 L3,0 L4,4 L2,3 L0,10 L-1,10 L-1,1 Z " fill="#D7D7D7" transform="translate(14,3)"/>
<path d="M0,0 L2,0 L2,6 L-3,6 L-1,1 Z " fill="#1C1C1C" transform="translate(13,14)"/>
<path d="M0,0 L5,0 L6,3 L0,3 L-2,1 Z " fill="#BABABA" transform="translate(10,20)"/>
<path d="M0,0 L7,2 L5,4 L0,5 Z " fill="#4A4A4A" transform="translate(15,5)"/>
</svg>
