<?xml version="1.0" encoding="UTF-8"?>
<svg version="1.1" xmlns="http://www.w3.org/2000/svg" width="28" height="28">
<path d="M0,0 L28,0 L28,28 L0,28 Z " fill="#040404" transform="translate(0,0)"/>
<path d="M0,0 L5,0 L4,4 L3,2 L-1,4 L-1,7 L4,6 L15,0 L15,2 L6,8 L5,10 L7,10 L6,13 L4,14 L-2,14 L-1,10 L-5,7 L-4,3 Z " fill="#CBCBCB" transform="translate(12,8)"/>
<path d="M0,0 L5,0 L4,3 L2,4 L-4,4 L-4,1 Z " fill="#B5B5B5" transform="translate(14,18)"/>
<path d="M0,0 L1,2 L8,3 L9,5 L3,6 L0,3 Z " fill="#E8E8E8" transform="translate(8,13)"/>
</svg>
