<?xml version="1.0" encoding="UTF-8"?>
<svg version="1.1" xmlns="http://www.w3.org/2000/svg" width="28" height="28">
<path d="M0,0 L28,0 L28,28 L0,28 Z " fill="#030303" transform="translate(0,0)"/>
<path d="M0,0 L5,1 L10,2 L8,6 L3,8 L3,11 L7,13 L7,19 L-8,20 L-7,13 L-5,13 L-5,11 L-3,11 L-5,7 L-5,2 Z " fill="#E5E5E5" transform="translate(14,4)"/>
<path d="M0,0 L1,2 L5,4 L5,10 L-7,9 L-5,5 L-2,2 L0,2 Z " fill="#C7C7C7" transform="translate(16,13)"/>
<path d="M0,0 L5,1 L6,4 L1,8 L-2,8 L-3,10 L-5,7 L-5,2 Z " fill="#C9C9C9" transform="translate(14,4)"/>
<path d="M0,0 L4,1 L6,5 L-4,5 Z " fill="#0E0E0E" transform="translate(13,16)"/>
<path d="M0,0 L6,0 L2,4 L-2,3 L-2,1 Z " fill="#1B1B1B" transform="translate(14,7)"/>
<path d="M0,0 L5,1 L6,3 L-1,4 Z " fill="#E8E8E8" transform="translate(14,4)"/>
</svg>
