<?xml version="1.0" encoding="UTF-8"?>
<svg version="1.1" xmlns="http://www.w3.org/2000/svg" width="28" height="28">
<path d="M0,0 L28,0 L28,28 L0,28 Z " fill="#010101" transform="translate(0,0)"/>
<path d="M0,0 L4,1 L2,6 L-2,10 L-2,18 L-5,20 L-10,19 L-9,15 L-7,11 L-8,6 Z " fill="#DBDBDB" transform="translate(18,5)"/>
<path d="M0,0 L3,1 L5,6 L2,8 L-3,7 L-2,3 Z " fill="#C1C1C1" transform="translate(11,17)"/>
<path d="M0,0 L2,1 L-4,8 L-6,8 L-5,3 Z " fill="#262626" transform="translate(18,7)"/>
<path d="M0,0 L2,0 L3,3 L0,6 L-2,6 L-1,2 Z " fill="#1E1E1E" transform="translate(12,18)"/>
</svg>
