<?xml version="1.0" encoding="UTF-8"?>
<svg version="1.1" xmlns="http://www.w3.org/2000/svg" width="28" height="28">
<path d="M0,0 L28,0 L28,28 L0,28 Z " fill="#020202" transform="translate(0,0)"/>
<path d="M0,0 L3,1 L3,2 L-3,4 L-4,8 L-2,8 L-1,6 L1,6 L1,4 L3,5 L-2,11 L-3,19 L-9,20 L-8,15 L-6,13 L-6,4 L-3,1 Z " fill="#D3D3D3" transform="translate(18,5)"/>
<path d="M0,0 L3,0 L3,6 L-3,7 L-2,2 Z " fill="#999999" transform="translate(12,18)"/>
<path d="M0,0 L3,1 L0,7 L-2,8 L-3,3 Z " fill="#1E1E1E" transform="translate(16,7)"/>
</svg>
