<?xml version="1.0" encoding="UTF-8"?>
<svg version="1.1" xmlns="http://www.w3.org/2000/svg" width="28" height="28">
<path d="M0,0 L28,0 L28,28 L0,28 Z " fill="#010101" transform="translate(0,0)"/>
<path d="M0,0 L4,0 L4,7 L2,9 L1,18 L-2,20 L-7,20 L-8,15 L-5,12 L-5,4 Z " fill="#DFDFDF" transform="translate(16,4)"/>
<path d="M0,0 L4,0 L4,7 L2,5 L0,8 L-2,8 L-1,3 Z " fill="#727272" transform="translate(16,4)"/>
<path d="M0,0 L2,1 L1,6 L-6,7 L-6,3 L-5,5 L-1,4 Z " fill="#F5F5F5" transform="translate(15,17)"/>
<path d="M0,0 L2,0 L1,5 L-3,5 L-1,1 Z " fill="#292929" transform="translate(13,17)"/>
</svg>
