<?xml version="1.0" encoding="UTF-8"?>
<svg version="1.1" xmlns="http://www.w3.org/2000/svg" width="28" height="28">
<path d="M0,0 L28,0 L28,28 L0,28 Z " fill="#020202" transform="translate(0,0)"/>
<path d="M0,0 L5,1 L8,5 L7,9 L1,14 L1,16 L4,18 L4,20 L-3,19 L-3,17 L-8,20 L-12,20 L-12,17 L-10,17 L-10,15 L-8,14 L-8,6 L-6,3 L0,3 L2,4 L2,6 L-4,7 L-5,11 L0,10 L0,8 L3,7 L3,4 L0,2 Z " fill="#E6E6E6" transform="translate(16,4)"/>
<path d="M0,0 L4,1 L3,5 L0,5 L0,7 L-5,8 L-4,3 L2,3 L2,1 Z " fill="#2A2A2A" transform="translate(16,7)"/>
</svg>
