<?xml version="1.0" encoding="UTF-8"?>
<svg version="1.1" xmlns="http://www.w3.org/2000/svg" width="28" height="28">
<path d="M0,0 L28,0 L28,28 L0,28 Z " fill="#020202" transform="translate(0,0)"/>
<path d="M0,0 L6,1 L6,9 L12,13 L13,17 L11,19 L4,18 L2,14 L2,10 L-7,10 L-6,4 L-4,1 L-1,1 L1,7 L3,8 L4,3 L0,2 Z " fill="#E2E2E2" transform="translate(12,5)"/>
<path d="M0,0 L3,0 L3,5 L0,5 L-1,7 L3,8 L-3,8 L-2,3 Z " fill="#E5E5E5" transform="translate(8,6)"/>
<path d="M0,0 L4,5 L2,6 L-6,6 L-3,1 Z " fill="#8B8B8B" transform="translate(11,9)"/>
<path d="M0,0 L6,1 L6,7 L4,9 L3,5 L4,3 L0,2 Z " fill="#D0D0D0" transform="translate(12,5)"/>
<path d="M0,0 L5,2 L7,5 L2,6 L0,4 Z " fill="#0F0F0F" transform="translate(16,16)"/>
<path d="M0,0 L5,3 L6,7 L3,6 L-1,1 Z " fill="#C9C9C9" transform="translate(19,15)"/>
</svg>
