<?xml version="1.0" encoding="UTF-8"?>
<svg version="1.1" xmlns="http://www.w3.org/2000/svg" width="28" height="28">
<path d="M0,0 L28,0 L28,28 L0,28 Z " fill="#030303" transform="translate(0,0)"/>
<path d="M0,0 L3,1 L2,8 L-1,11 L0,17 L-3,20 L-8,20 L-9,15 L-7,11 L-9,9 L-9,2 L-8,1 Z " fill="#C6C6C6" transform="translate(18,5)"/>
<path d="M0,0 L6,0 L5,5 L1,7 L-1,1 Z " fill="#080808" transform="translate(12,8)"/>
<path d="M0,0 Z M-8,1 L0,1 L-4,3 L-6,4 L-5,10 L-9,9 L-9,2 Z " fill="#E8E8E8" transform="translate(18,5)"/>
<path d="M0,0 L2,1 L-1,4 L-6,4 L-6,2 Z " fill="#F2F2F2" transform="translate(16,21)"/>
</svg>
