<?xml version="1.0" encoding="UTF-8"?>
<svg version="1.1" xmlns="http://www.w3.org/2000/svg" width="28" height="28">
<path d="M0,0 L28,0 L28,28 L0,28 Z " fill="#020202" transform="translate(0,0)"/>
<path d="M0,0 L5,0 L5,2 L8,3 L5,10 L4,14 L3,19 L2,20 L-3,20 L-4,17 L-1,13 L-2,3 Z " fill="#F5F5F5" transform="translate(13,4)"/>
<path d="M0,0 L5,0 L3,1 L5,6 L3,10 L-1,10 L-2,3 Z " fill="#C5C5C5" transform="translate(13,4)"/>
<path d="M0,0 L4,0 L4,4 L-1,6 L-2,3 Z " fill="#929292" transform="translate(11,18)"/>
<path d="M0,0 L5,2 L2,9 L0,7 L1,3 Z " fill="#DFDFDF" transform="translate(16,5)"/>
<path d="M0,0 L3,2 L1,7 L-1,6 L-1,1 Z " fill="#121212" transform="translate(15,6)"/>
</svg>
