<?xml version="1.0" encoding="UTF-8"?>
<svg version="1.1" xmlns="http://www.w3.org/2000/svg" width="28" height="28">
<path d="M0,0 L28,0 L28,28 L0,28 Z " fill="#020202" transform="translate(0,0)"/>
<path d="M0,0 L8,0 L10,4 L5,9 L4,17 L-1,20 L-6,20 L-5,14 L0,8 L-1,1 Z " fill="#CBCBCB" transform="translate(13,5)"/>
<path d="M0,0 L4,1 L5,7 L0,10 L-5,10 L-4,4 Z " fill="#BEBEBE" transform="translate(12,15)"/>
<path d="M0,0 L3,0 L3,2 L1,2 L2,8 L4,8 L4,14 L3,11 L0,11 L-1,1 Z " fill="#ECECEC" transform="translate(13,5)"/>
<path d="M0,0 L1,4 L-2,7 L-5,6 L-3,2 Z " fill="#0F0F0F" transform="translate(14,16)"/>
<path d="M0,0 L1,2 L6,0 L5,4 L1,5 Z " fill="#191919" transform="translate(14,7)"/>
</svg>
