<?xml version="1.0" encoding="UTF-8"?>
<svg version="1.1" xmlns="http://www.w3.org/2000/svg" width="28" height="28">
<path d="M0,0 L28,0 L28,28 L0,28 Z " fill="#030303" transform="translate(0,0)"/>
<path d="M0,0 L8,0 L13,2 L13,4 L4,3 L-3,4 L-3,6 L12,5 L11,7 L6,9 L11,13 L10,17 L7,20 L0,20 L-3,18 L-2,8 L-6,7 L-5,3 Z " fill="#DDDDDD" transform="translate(11,5)"/>
<path d="M0,0 L9,2 L9,5 L3,4 L-5,5 L-7,4 L-7,2 Z " fill="#1A1A1A" transform="translate(15,7)"/>
<path d="M0,0 L3,0 L2,4 L-1,7 L-8,7 L-9,5 L0,3 Z " fill="#EAEAEA" transform="translate(19,18)"/>
<path d="M0,0 L5,1 L5,5 L0,6 L-1,1 Z " fill="#0A0A0A" transform="translate(12,17)"/>
</svg>
