<?xml version="1.0" encoding="UTF-8"?>
<svg version="1.1" xmlns="http://www.w3.org/2000/svg" width="28" height="28">
<path d="M0,0 L28,0 L28,28 L0,28 Z " fill="#020202" transform="translate(0,0)"/>
<path d="M0,0 L5,1 L7,2 L6,6 L4,10 L7,11 L7,18 L5,20 L-1,19 L-4,16 L-4,11 L-3,7 L-2,1 Z " fill="#D6D6D6" transform="translate(13,5)"/>
<path d="M0,0 L4,2 L4,8 L-1,7 L-3,5 L-2,1 Z " fill="#111111" transform="translate(14,15)"/>
<path d="M0,0 L3,1 L2,5 L-4,8 L-5,3 Z " fill="#949494" transform="translate(17,6)"/>
<path d="M0,0 L4,0 L4,2 L0,4 L0,11 L-3,11 L-3,3 Z " fill="#EEEEEE" transform="translate(13,5)"/>
</svg>
