<?xml version="1.0" encoding="UTF-8"?>
<svg version="1.1" xmlns="http://www.w3.org/2000/svg" width="28" height="28">
<path d="M0,0 L28,0 L28,28 L0,28 Z " fill="#030303" transform="translate(0,0)"/>
<path d="M0,0 L5,0 L7,2 L6,5 L5,4 L-2,4 L-6,8 L3,6 L3,8 L-6,11 L-6,17 L-11,18 L-13,16 L-12,11 L-9,9 L-7,4 Z " fill="#D5D5D5" transform="translate(19,6)"/>
<path d="M0,0 L6,2 L5,7 L0,6 L-1,1 Z " fill="#9E9E9E" transform="translate(7,17)"/>
<path d="M0,0 L5,0 L7,2 L6,5 L4,3 L-1,2 Z " fill="#DDDDDD" transform="translate(19,6)"/>
</svg>
