<?xml version="1.0" encoding="UTF-8"?>
<svg version="1.1" xmlns="http://www.w3.org/2000/svg" width="28" height="28">
<path d="M0,0 L28,0 L28,28 L0,28 Z " fill="#020202" transform="translate(0,0)"/>
<path d="M0,0 L6,0 L7,2 L7,8 L3,12 L2,19 L-2,20 L-5,18 L-4,13 L-3,10 L-5,3 Z " fill="#E0E0E0" transform="translate(14,5)"/>
<path d="M0,0 L6,0 L7,3 L5,6 L4,3 L2,2 L2,5 L-2,4 L-1,8 L-3,10 L-5,3 Z " fill="#D6D6D6" transform="translate(14,5)"/>
<path d="M0,0 L3,1 L2,6 L-2,8 L-4,5 L-4,2 L0,3 Z " fill="#0D0D0D" transform="translate(16,7)"/>
<path d="M0,0 L3,0 L3,2 L5,2 L4,5 L-1,4 Z " fill="#9A9A9A" transform="translate(11,20)"/>
</svg>
