<?xml version="1.0" encoding="UTF-8"?>
<svg version="1.1" xmlns="http://www.w3.org/2000/svg" width="28" height="28">
<path d="M0,0 L28,0 L28,28 L0,28 Z " fill="#020202" transform="translate(0,0)"/>
<path d="M0,0 L5,0 L6,3 L8,3 L8,5 L0,11 L-1,18 L-3,20 L-7,19 L-7,14 L-4,11 L-3,4 Z " fill="#B3B3B3" transform="translate(15,5)"/>
<path d="M0,0 L5,0 L6,3 L8,3 L8,5 L3,9 L0,8 L3,4 L0,4 L-3,8 L-2,3 Z " fill="#D2D2D2" transform="translate(15,5)"/>
<path d="M0,0 L3,1 L2,4 L-3,7 L-2,2 Z " fill="#222222" transform="translate(16,7)"/>
<path d="M0,0 L1,4 L-1,6 L-4,6 L-4,1 L-3,3 L0,3 Z " fill="#F2F2F2" transform="translate(13,19)"/>
</svg>
