<?xml version="1.0" encoding="UTF-8"?>
<svg version="1.1" xmlns="http://www.w3.org/2000/svg" width="28" height="28">
<path d="M0,0 L28,0 L28,28 L0,28 Z " fill="#020202" transform="translate(0,0)"/>
<path d="M0,0 L4,1 L4,4 L7,4 L6,7 L4,8 L4,15 L-1,20 L-6,20 L-8,16 L-5,11 L-3,7 L-7,4 L-6,1 Z " fill="#DADADA" transform="translate(15,5)"/>
<path d="M0,0 L1,0 L0,7 L-3,9 L-8,9 L-10,5 L-7,3 L-7,7 L-2,6 Z " fill="#ECECEC" transform="translate(17,16)"/>
<path d="M0,0 L3,1 L2,4 L2,2 L-2,4 L0,6 L-3,7 L-7,4 L-6,1 Z " fill="#E6E6E6" transform="translate(15,5)"/>
<path d="M0,0 L1,0 L0,7 L-5,8 L-4,4 Z " fill="#141414" transform="translate(15,15)"/>
<path d="M0,0 L1,3 L4,3 L3,6 L-5,4 L-6,2 Z " fill="#828282" transform="translate(18,6)"/>
</svg>
