<?xml version="1.0" encoding="UTF-8"?>
<svg version="1.1" xmlns="http://www.w3.org/2000/svg" width="28" height="28">
<path d="M0,0 L28,0 L28,28 L0,28 Z " fill="#030303" transform="translate(0,0)"/>
<path d="M0,0 L12,0 L16,4 L12,8 L13,9 L13,15 L8,20 L1,19 L-1,17 L0,13 L5,5 L1,3 Z " fill="#EEEEEE" transform="translate(7,5)"/>
<path d="M0,0 L3,0 L2,7 L0,9 L1,11 L-6,10 L-8,8 L-7,4 L-1,3 Z " fill="#D5D5D5" transform="translate(14,14)"/>
<path d="M0,0 L8,0 L11,2 L11,4 L6,5 L5,7 L5,5 L1,3 Z " fill="#BFBFBF" transform="translate(7,5)"/>
<path d="M0,0 L3,0 L2,5 L-1,8 L-4,8 L-3,3 L-1,3 Z " fill="#1C1C1C" transform="translate(14,14)"/>
</svg>
