<?xml version="1.0" encoding="UTF-8"?>
<svg version="1.1" xmlns="http://www.w3.org/2000/svg" width="28" height="28">
<path d="M0,0 L28,0 L28,28 L0,28 Z " fill="#020202" transform="translate(0,0)"/>
<path d="M0,0 L7,0 L10,2 L9,6 L6,10 L8,14 L7,19 L5,20 L-1,20 L-3,18 L-2,11 L-4,6 L-3,2 Z " fill="#E9E9E9" transform="translate(12,4)"/>
<path d="M0,0 L6,0 L7,4 L4,7 L-1,6 L-2,2 Z " fill="#111111" transform="translate(12,6)"/>
<path d="M0,0 L3,1 L4,5 L3,6 L-2,6 L-2,3 Z " fill="#262626" transform="translate(14,16)"/>
<path d="M0,0 L3,1 L2,5 L-2,9 L-2,6 Z " fill="#C9C9C9" transform="translate(19,5)"/>
</svg>
