<?xml version="1.0" encoding="UTF-8"?>
<svg version="1.1" xmlns="http://www.w3.org/2000/svg" width="28" height="28">
<path d="M0,0 L28,0 L28,28 L0,28 Z " fill="#020202" transform="translate(0,0)"/>
<path d="M0,0 L3,1 L3,4 L5,4 L4,9 L2,11 L2,18 L0,20 L-6,20 L-7,15 L-4,12 L-6,7 L-5,3 Z " fill="#EAEAEA" transform="translate(16,4)"/>
<path d="M0,0 L3,1 L3,4 L5,4 L4,8 L4,6 L2,6 L0,10 L-5,7 L-6,4 Z " fill="#D5D5D5" transform="translate(16,4)"/>
<path d="M0,0 L4,1 L5,5 L-1,7 L-2,2 Z " fill="#909090" transform="translate(11,17)"/>
<path d="M0,0 L4,0 L5,3 L1,7 L-1,5 Z " fill="#121212" transform="translate(14,7)"/>
</svg>
