<?xml version="1.0" encoding="UTF-8"?>
<svg version="1.1" xmlns="http://www.w3.org/2000/svg" width="28" height="28">
<path d="M0,0 L28,0 L28,28 L0,28 Z " fill="#010101" transform="translate(0,0)"/>
<path d="M0,0 L5,1 L7,2 L6,12 L8,17 L7,20 L2,20 L1,18 L1,11 L-3,9 L-4,8 L-4,3 Z " fill="#DCDCDC" transform="translate(12,5)"/>
<path d="M0,0 L5,1 L7,2 L5,12 L3,9 L-1,7 L-2,5 Z " fill="#D8D8D8" transform="translate(12,5)"/>
<path d="M0,0 L5,0 L6,4 L5,7 L0,7 L-1,1 Z " fill="#CACACA" transform="translate(14,18)"/>
<path d="M0,0 L5,0 L4,4 L2,6 L-1,2 Z " fill="#202020" transform="translate(11,8)"/>
<path d="M0,0 L1,4 L3,4 L2,7 L2,5 L-2,6 L-3,1 Z " fill="#F8F8F8" transform="translate(15,13)"/>
</svg>
