<?xml version="1.0" encoding="UTF-8"?>
<svg version="1.1" xmlns="http://www.w3.org/2000/svg" width="28" height="28">
<path d="M0,0 L28,0 L28,28 L0,28 Z " fill="#010101" transform="translate(0,0)"/>
<path d="M0,0 L4,1 L5,4 L-3,3 L-1,9 L4,8 L2,11 L0,17 L-4,20 L-8,20 L-7,15 L-5,12 L-3,12 L-5,8 L-5,3 Z " fill="#808080" transform="translate(16,4)"/>
<path d="M0,0 L2,1 L0,3 L-2,9 L-6,12 L-9,12 L-9,10 L-4,8 L-4,2 Z " fill="#CECECE" transform="translate(18,12)"/>
<path d="M0,0 L4,1 L5,4 L-3,3 L-2,8 L-5,8 L-5,3 Z " fill="#C5C5C5" transform="translate(16,4)"/>
</svg>
