<?xml version="1.0" encoding="UTF-8"?>
<svg version="1.1" xmlns="http://www.w3.org/2000/svg" width="28" height="28">
<path d="M0,0 L28,0 L28,28 L0,28 Z " fill="#020202" transform="translate(0,0)"/>
<path d="M0,0 L4,2 L9,1 L8,7 L9,8 L9,13 L8,14 L2,14 L1,13 L1,8 L3,4 Z " fill="#D0D0D0" transform="translate(10,11)"/>
<path d="M0,0 L11,1 L19,3 L20,5 L9,3 L3,4 L0,2 Z " fill="#DBDBDB" transform="translate(5,7)"/>
<path d="M0,0 L9,1 L14,2 L10,5 L8,5 L4,4 Z " fill="#191919" transform="translate(9,9)"/>
<path d="M0,0 L3,3 L3,6 L-2,6 L-1,1 Z " fill="#101010" transform="translate(15,17)"/>
</svg>
