<?xml version="1.0" encoding="UTF-8"?>
<svg version="1.1" xmlns="http://www.w3.org/2000/svg" width="28" height="28">
<path d="M0,0 L28,0 L28,28 L0,28 Z " fill="#010101" transform="translate(0,0)"/>
<path d="M0,0 L6,0 L8,1 L8,6 L10,8 L10,15 L6,19 L-1,20 L-3,18 L-3,13 L-1,10 L-5,9 L-7,4 Z " fill="#CDCDCD" transform="translate(13,5)"/>
<path d="M0,0 L4,1 L5,6 L0,11 L-5,11 L-4,5 Z " fill="#0B0B0B" transform="translate(17,12)"/>
<path d="M0,0 L3,0 L2,4 L-2,7 L-7,7 L-7,4 L-5,4 L-4,1 Z " fill="#171717" transform="translate(16,6)"/>
</svg>
