<?xml version="1.0" encoding="UTF-8"?>
<svg version="1.1" xmlns="http://www.w3.org/2000/svg" width="28" height="28">
<path d="M0,0 L28,0 L28,28 L0,28 Z " fill="#030303" transform="translate(0,0)"/>
<path d="M0,0 L8,0 L8,1 L2,1 L6,5 L6,7 L10,4 L13,4 L13,2 L15,2 L14,6 L10,6 L11,9 L15,13 L14,18 L13,19 L8,19 L6,17 L5,8 L0,3 Z " fill="#EAEAEA" transform="translate(6,7)"/>
<path d="M0,0 L3,1 L4,7 L2,9 L-3,9 L-5,5 L-3,1 Z " fill="#E5E5E5" transform="translate(17,17)"/>
<path d="M0,0 L8,0 L13,2 L12,5 L7,8 L5,8 L5,6 L1,4 Z " fill="#B8B8B8" transform="translate(7,6)"/>
<path d="M0,0 L8,0 L9,2 L5,5 L3,5 L3,3 L0,2 Z " fill="#141414" transform="translate(9,9)"/>
<path d="M0,0 L4,2 L3,6 L0,6 Z " fill="#151515" transform="translate(15,18)"/>
<path d="M0,0 L1,0 L1,6 L5,8 L0,8 L-2,4 Z " fill="#C6C6C6" transform="translate(14,18)"/>
</svg>
