<?xml version="1.0" encoding="UTF-8"?>
<svg version="1.1" xmlns="http://www.w3.org/2000/svg" width="28" height="28">
<path d="M0,0 L28,0 L28,28 L0,28 Z " fill="#020202" transform="translate(0,0)"/>
<path d="M0,0 L2,0 L2,6 L0,9 L4,10 L8,15 L7,20 L1,20 L-4,16 L-5,9 L-6,5 L-3,1 Z " fill="#E8E8E8" transform="translate(14,4)"/>
<path d="M0,0 L2,0 L2,6 L-2,8 L-5,8 L-6,5 L-3,1 Z " fill="#E3E3E3" transform="translate(14,4)"/>
<path d="M0,0 L5,1 L9,4 L9,6 L3,5 L0,3 Z " fill="#1A1A1A" transform="translate(11,15)"/>
</svg>
