<?xml version="1.0" encoding="UTF-8"?>
<svg version="1.1" xmlns="http://www.w3.org/2000/svg" width="28" height="28">
<path d="M0,0 L28,0 L28,28 L0,28 Z " fill="#020202" transform="translate(0,0)"/>
<path d="M0,0 L3,0 L3,2 L8,3 L8,13 L10,17 L8,20 L2,20 L0,16 L1,12 L-8,8 L-7,4 L-3,1 Z " fill="#CECECE" transform="translate(12,5)"/>
<path d="M0,0 L8,1 L6,6 L-1,5 L-1,1 Z " fill="#171717" transform="translate(10,8)"/>
<path d="M0,0 L3,0 L3,2 L8,3 L8,7 L5,8 L6,4 L0,4 L-1,2 Z " fill="#EDEDED" transform="translate(12,5)"/>
<path d="M0,0 L2,0 L2,4 L5,4 L5,6 L0,5 L-1,2 Z " fill="#EFEFEF" transform="translate(13,19)"/>
</svg>
