<?xml version="1.0" encoding="UTF-8"?>
<svg version="1.1" xmlns="http://www.w3.org/2000/svg" width="28" height="28">
<path d="M0,0 L28,0 L28,28 L0,28 Z " fill="#020202" transform="translate(0,0)"/>
<path d="M0,0 L6,0 L9,2 L9,8 L7,8 L7,11 L12,13 L11,19 L4,20 L2,18 L3,11 L-3,9 L-4,8 L-4,3 Z " fill="#EDEDED" transform="translate(10,5)"/>
<path d="M0,0 L6,0 L9,2 L9,8 L5,8 L6,3 L-1,5 L3,9 L3,11 L-3,9 L-4,8 L-4,3 Z " fill="#DADADA" transform="translate(10,5)"/>
<path d="M0,0 L6,0 L5,6 L1,5 L-2,2 Z " fill="#181818" transform="translate(10,8)"/>
<path d="M0,0 L5,1 L5,3 L7,4 L4,7 L2,7 L2,5 L-1,4 Z " fill="#7A7A7A" transform="translate(15,18)"/>
</svg>
