<?xml version="1.0" encoding="UTF-8"?>
<svg version="1.1" xmlns="http://www.w3.org/2000/svg" width="28" height="28">
<path d="M0,0 L28,0 L28,28 L0,28 Z " fill="#010101" transform="translate(0,0)"/>
<path d="M0,0 L9,0 L10,2 L8,3 L7,10 L11,14 L10,19 L9,20 L4,20 L2,11 L-3,7 L-2,2 Z " fill="#BBBBBB" transform="translate(10,6)"/>
<path d="M0,0 L9,0 L10,2 L8,3 L8,6 L6,6 L6,3 L1,3 L1,7 L5,9 L3,9 L2,11 L-3,7 L-2,2 Z " fill="#D2D2D2" transform="translate(10,6)"/>
<path d="M0,0 L5,1 L4,6 L-1,5 L-1,1 Z " fill="#171717" transform="translate(11,8)"/>
<path d="M0,0 L6,0 L7,2 L5,3 L5,6 L3,6 L2,1 Z " fill="#ECECEC" transform="translate(13,6)"/>
</svg>
