<?xml version="1.0" encoding="UTF-8"?>
<svg version="1.1" xmlns="http://www.w3.org/2000/svg" width="28" height="28">
<path d="M0,0 L28,0 L28,28 L0,28 Z " fill="#010101" transform="translate(0,0)"/>
<path d="M0,0 L5,1 L7,3 L6,9 L5,12 L6,18 L4,20 L-1,19 L-3,17 L-2,8 L-2,2 Z " fill="#DBDBDB" transform="translate(13,5)"/>
<path d="M0,0 L2,0 L2,4 L7,5 L7,7 L2,6 L0,4 Z " fill="#E3E3E3" transform="translate(10,18)"/>
<path d="M0,0 L4,2 L5,7 L2,7 L2,2 L-1,1 Z " fill="#E6E6E6" transform="translate(15,5)"/>
<path d="M0,0 L2,1 L2,6 L-2,5 L-1,1 Z " fill="#171717" transform="translate(14,17)"/>
<path d="M0,0 L3,0 L2,5 L-1,4 Z " fill="#212121" transform="translate(14,8)"/>
</svg>
