<?xml version="1.0" encoding="UTF-8"?>
<svg version="1.1" xmlns="http://www.w3.org/2000/svg" width="28" height="28">
<path d="M0,0 L28,0 L28,28 L0,28 Z " fill="#030303" transform="translate(0,0)"/>
<path d="M0,0 L5,1 L6,6 L5,12 L8,15 L7,20 L0,19 L0,13 L1,11 L-4,9 L-8,6 L-7,2 Z " fill="#CBCBCB" transform="translate(13,5)"/>
<path d="M0,0 L4,0 L4,6 L0,6 L-4,2 Z " fill="#121212" transform="translate(12,7)"/>
<path d="M0,0 L2,0 L2,5 L6,5 L6,2 L8,2 L7,7 L0,6 Z " fill="#EDEDED" transform="translate(13,18)"/>
</svg>
