<?xml version="1.0" encoding="UTF-8"?>
<svg version="1.1" xmlns="http://www.w3.org/2000/svg" width="28" height="28">
<path d="M0,0 L28,0 L28,28 L0,28 Z " fill="#010101" transform="translate(0,0)"/>
<path d="M0,0 L2,0 L2,7 L0,7 L-1,5 L-3,10 L-1,11 L-3,16 L-7,20 L-11,20 L-9,16 L-6,13 L-4,3 Z " fill="#E2E2E2" transform="translate(18,4)"/>
<path d="M0,0 L2,3 L2,5 L4,6 L2,10 L2,7 L0,7 Z " fill="#C0C0C0" transform="translate(13,9)"/>
<path d="M0,0 L2,3 L1,6 L-2,6 L-1,1 Z " fill="#535353" transform="translate(17,8)"/>
</svg>
