<?xml version="1.0" encoding="UTF-8"?>
<svg version="1.1" xmlns="http://www.w3.org/2000/svg" width="28" height="28">
<path d="M0,0 L28,0 L28,28 L0,28 Z " fill="#020202" transform="translate(0,0)"/>
<path d="M0,0 L5,0 L6,5 L2,10 L1,19 L-6,20 L-8,16 L-4,12 L-4,4 Z " fill="#E3E3E3" transform="translate(16,4)"/>
<path d="M0,0 L5,0 L6,5 L3,5 L4,2 L-1,3 Z " fill="#E8E8E8" transform="translate(16,4)"/>
<path d="M0,0 L4,0 L2,4 L-2,6 Z " fill="#252525" transform="translate(16,6)"/>
<path d="M0,0 L2,0 L2,5 L-3,5 L-3,3 L-1,3 Z " fill="#656565" transform="translate(13,17)"/>
</svg>
