<?xml version="1.0" encoding="UTF-8"?>
<svg version="1.1" xmlns="http://www.w3.org/2000/svg" width="28" height="28">
<path d="M0,0 L28,0 L28,28 L0,28 Z " fill="#030303" transform="translate(0,0)"/>
<path d="M0,0 L5,1 L6,2 L6,8 L3,11 L-2,12 L-2,17 L-6,20 L-11,20 L-12,19 L-12,14 L-6,12 L-6,5 Z " fill="#BEBEBE" transform="translate(17,4)"/>
<path d="M0,0 L4,1 L3,6 L-4,8 L-3,3 Z " fill="#1A1A1A" transform="translate(17,6)"/>
<path d="M0,0 L1,4 L4,4 L3,11 L1,11 L1,7 L-3,8 L-3,6 L-1,6 L-1,1 Z " fill="#F9F9F9" transform="translate(12,10)"/>
</svg>
