<?xml version="1.0" encoding="UTF-8"?>
<svg version="1.1" xmlns="http://www.w3.org/2000/svg" width="28" height="28">
<path d="M0,0 L28,0 L28,28 L0,28 Z " fill="#030303" transform="translate(0,0)"/>
<path d="M0,0 L6,0 L5,5 L-3,11 L-5,17 L-9,19 L-13,18 L-13,14 L-7,10 L-5,3 Z " fill="#D6D6D6" transform="translate(18,5)"/>
<path d="M0,0 L6,0 L5,4 L0,7 L-3,6 L-1,3 L-4,2 Z " fill="#868686" transform="translate(18,5)"/>
<path d="M0,0 L4,0 L4,4 L1,5 L-1,4 Z " fill="#D7D7D7" transform="translate(13,8)"/>
</svg>
