<?xml version="1.0" encoding="UTF-8"?>
<svg version="1.1" xmlns="http://www.w3.org/2000/svg" width="28" height="28">
<path d="M0,0 L28,0 L28,28 L0,28 Z " fill="#030303" transform="translate(0,0)"/>
<path d="M0,0 L8,0 L8,6 L4,11 L1,19 L-4,20 L-5,16 L-2,12 L-4,8 L-6,4 L-4,4 L-3,1 Z " fill="#F5F5F5" transform="translate(14,6)"/>
<path d="M0,0 L8,0 L8,6 L4,10 L0,8 L0,5 L-4,4 L-3,1 Z M-6,4 L-4,5 L-6,6 Z " fill="#E4E4E4" transform="translate(14,6)"/>
<path d="M0,0 L2,3 L3,7 L0,9 L-4,8 L-3,3 Z " fill="#D0D0D0" transform="translate(13,17)"/>
<path d="M0,0 L7,0 L6,4 L3,6 L1,5 Z " fill="#101010" transform="translate(13,9)"/>
<path d="M0,0 L4,1 L4,3 L-1,3 L-2,5 L-4,4 L-3,1 Z M-6,4 L-4,5 L-6,6 Z " fill="#CACACA" transform="translate(14,6)"/>
</svg>
