<?xml version="1.0" encoding="UTF-8"?>
<svg version="1.1" xmlns="http://www.w3.org/2000/svg" width="28" height="28">
<path d="M0,0 L28,0 L28,28 L0,28 Z " fill="#030303" transform="translate(0,0)"/>
<path d="M0,0 L7,1 L7,3 L9,3 L8,7 L3,8 L3,10 L7,12 L6,16 L0,20 L-4,20 L-4,11 L-4,7 L-5,3 L-3,3 L-1,6 L5,4 L-2,3 L-2,1 Z " fill="#E4E4E4" transform="translate(13,5)"/>
<path d="M0,0 L4,2 L3,6 L-2,9 L-6,7 L-4,1 Z " fill="#DADADA" transform="translate(16,15)"/>
<path d="M0,0 L8,2 L9,4 L2,6 L0,2 L-2,1 Z " fill="#1E1E1E" transform="translate(10,6)"/>
<path d="M0,0 L4,1 L4,4 L-1,7 L-2,4 Z " fill="#0B0B0B" transform="translate(12,16)"/>
</svg>
