<?xml version="1.0" encoding="UTF-8"?>
<svg version="1.1" xmlns="http://www.w3.org/2000/svg" width="28" height="28">
<path d="M0,0 L28,0 L28,28 L0,28 Z " fill="#020202" transform="translate(0,0)"/>
<path d="M0,0 L15,0 L14,4 L10,5 L11,10 L9,12 L1,12 L2,8 L5,5 L4,4 L-5,3 L-3,1 Z " fill="#E1E1E1" transform="translate(8,10)"/>
<path d="M0,0 L15,0 L15,3 L13,3 L13,1 L3,1 L3,3 L-5,3 L-3,1 Z " fill="#E2E2E2" transform="translate(8,10)"/>
<path d="M0,0 L9,0 L9,2 L3,3 Z " fill="#4A4A4A" transform="translate(12,11)"/>
<path d="M0,0 L3,0 L2,4 L-4,4 Z " fill="#212121" transform="translate(14,17)"/>
<path d="M0,0 L4,2 L11,2 L9,4 L3,5 L0,2 Z " fill="#C6C6C6" transform="translate(11,11)"/>
</svg>
