<?xml version="1.0" encoding="UTF-8"?>
<svg version="1.1" xmlns="http://www.w3.org/2000/svg" width="28" height="28">
<path d="M0,0 L28,0 L28,28 L0,28 Z " fill="#020202" transform="translate(0,0)"/>
<path d="M0,0 L8,0 L10,1 L11,8 L8,11 L6,11 L7,13 L7,19 L6,20 L-1,20 L-5,17 L-4,12 L0,11 L-2,7 L-2,2 Z " fill="#D9D9D9" transform="translate(11,5)"/>
<path d="M0,0 L4,1 L3,6 L-3,7 L-5,2 Z " fill="#151515" transform="translate(16,7)"/>
<path d="M0,0 L2,1 L2,5 L-4,5 L-4,2 Z " fill="#090909" transform="translate(13,17)"/>
<path d="M0,0 L6,0 L8,1 L7,4 L3,3 L-2,4 Z " fill="#F4F4F4" transform="translate(13,5)"/>
</svg>
