<?xml version="1.0" encoding="UTF-8"?>
<svg version="1.1" xmlns="http://www.w3.org/2000/svg" width="28" height="28">
<path d="M0,0 L28,0 L28,28 L0,28 Z " fill="#030303" transform="translate(0,0)"/>
<path d="M0,0 L10,2 L11,7 L11,9 L16,12 L16,17 L11,20 L3,20 L-1,18 L-2,13 L-1,9 L-2,4 Z " fill="#E1E1E1" transform="translate(9,4)"/>
<path d="M0,0 L6,0 L9,2 L8,6 L2,7 L-3,5 L-3,1 Z " fill="#080808" transform="translate(13,15)"/>
<path d="M0,0 L7,3 L14,4 L12,6 L4,6 L0,4 L-1,1 Z " fill="#EDEDED" transform="translate(8,18)"/>
<path d="M0,0 L7,0 L7,3 L1,4 Z " fill="#0A0A0A" transform="translate(10,8)"/>
<path d="M0,0 L7,1 L8,6 L5,5 L5,3 L-1,3 Z " fill="#C2C2C2" transform="translate(12,5)"/>
</svg>
