<?xml version="1.0" encoding="UTF-8"?>
<svg version="1.1" xmlns="http://www.w3.org/2000/svg" width="28" height="28">
<path d="M0,0 L28,0 L28,28 L0,28 Z " fill="#020202" transform="translate(0,0)"/>
<path d="M0,0 L6,0 L9,4 L8,8 L6,8 L9,12 L9,17 L5,20 L1,19 L0,18 L0,10 L-3,7 L-2,2 Z " fill="#EEEEEE" transform="translate(11,5)"/>
<path d="M0,0 L5,2 L6,0 L6,5 L2,8 L-1,7 L1,6 L-1,5 Z " fill="#8B8B8B" transform="translate(14,17)"/>
<path d="M0,0 L5,0 L3,5 L-1,3 Z " fill="#191919" transform="translate(12,8)"/>
<path d="M0,0 L5,2 L1,4 L-1,6 L-3,5 L-1,1 Z " fill="#CFCFCF" transform="translate(11,5)"/>
</svg>
