<?xml version="1.0" encoding="UTF-8"?>
<svg version="1.1" xmlns="http://www.w3.org/2000/svg" width="28" height="28">
<path d="M0,0 L28,0 L28,28 L0,28 Z " fill="#010101" transform="translate(0,0)"/>
<path d="M0,0 L4,0 L5,2 L5,10 L7,13 L7,18 L5,20 L-3,20 L-5,16 L-4,8 L-3,3 Z " fill="#DCDCDC" transform="translate(14,4)"/>
<path d="M0,0 L4,1 L6,4 L5,9 L0,9 L-2,6 L-1,2 Z " fill="#161616" transform="translate(13,14)"/>
<path d="M0,0 L4,1 L3,3 L2,8 L-4,8 L-3,3 Z " fill="#D6D6D6" transform="translate(14,4)"/>
<path d="M0,0 L4,0 L3,5 L-1,4 Z " fill="#1F1F1F" transform="translate(13,7)"/>
</svg>
