<?xml version="1.0" encoding="UTF-8"?>
<svg version="1.1" xmlns="http://www.w3.org/2000/svg" width="28" height="28">
<path d="M0,0 L28,0 L28,28 L0,28 Z " fill="#010101" transform="translate(0,0)"/>
<path d="M0,0 L5,0 L7,2 L7,8 L6,10 L7,12 L7,19 L6,20 L-1,19 L-3,15 L-2,8 L-3,7 L-3,2 Z " fill="#E3E3E3" transform="translate(12,5)"/>
<path d="M0,0 L5,0 L6,1 L6,6 L1,5 Z " fill="#191919" transform="translate(11,17)"/>
<path d="M0,0 L4,1 L3,6 L-1,5 Z " fill="#181818" transform="translate(13,7)"/>
<path d="M0,0 L2,0 L4,5 L7,7 L3,7 L2,9 L0,5 Z " fill="#C1C1C1" transform="translate(9,7)"/>
</svg>
