<?xml version="1.0" encoding="UTF-8"?>
<svg version="1.1" xmlns="http://www.w3.org/2000/svg" width="28" height="28">
<path d="M0,0 L28,0 L28,28 L0,28 Z " fill="#020202" transform="translate(0,0)"/>
<path d="M0,0 L6,0 L5,5 L3,4 L4,2 L0,4 L0,9 L5,6 L7,5 L6,9 L4,11 L2,18 L-1,20 L-6,19 L-5,15 L-2,12 L-2,3 Z " fill="#DEDEDE" transform="translate(14,5)"/>
<path d="M0,0 L4,0 L5,5 L2,7 L-3,6 L-2,2 Z " fill="#939393" transform="translate(11,18)"/>
<path d="M0,0 L2,3 L1,6 L-1,6 L-3,8 L-6,8 L-7,3 L-5,1 L-2,1 L-1,3 Z " fill="#2A2A2A" transform="translate(20,6)"/>
</svg>
