<?xml version="1.0" encoding="UTF-8"?>
<svg version="1.1" xmlns="http://www.w3.org/2000/svg" width="28" height="28">
<path d="M0,0 L28,0 L28,28 L0,28 Z " fill="#010101" transform="translate(0,0)"/>
<path d="M0,0 L5,0 L6,1 L6,7 L6,11 L7,12 L6,19 L5,20 L-4,20 L-5,19 L-4,2 Z " fill="#DFDFDF" transform="translate(14,5)"/>
<path d="M0,0 L5,1 L5,7 L0,8 L-2,7 L-1,1 Z " fill="#0B0B0B" transform="translate(13,16)"/>
<path d="M0,0 L5,0 L3,2 L4,6 L3,7 L-2,7 L-4,5 L-4,2 Z " fill="#CECECE" transform="translate(14,5)"/>
<path d="M0,0 L2,1 L1,5 L-3,5 L-2,1 Z " fill="#1A1A1A" transform="translate(16,7)"/>
</svg>
