<?xml version="1.0" encoding="UTF-8"?>
<svg version="1.1" xmlns="http://www.w3.org/2000/svg" width="28" height="28">
<path d="M0,0 L28,0 L28,28 L0,28 Z " fill="#020202" transform="translate(0,0)"/>
<path d="M0,0 L6,0 L7,1 L7,6 L5,8 L5,11 L9,13 L10,17 L6,20 L0,19 L-1,14 L0,11 L-4,6 L-2,2 Z " fill="#C9C9C9" transform="translate(12,5)"/>
<path d="M0,0 L6,0 L7,1 L7,6 L4,8 L6,2 L-1,4 L0,8 L3,11 L0,11 L-4,6 L-2,2 Z " fill="#D4D4D4" transform="translate(12,5)"/>
<path d="M0,0 L5,0 L4,4 L2,7 L-2,6 L-3,2 Z " fill="#101010" transform="translate(13,7)"/>
<path d="M0,0 L5,2 L5,6 L-1,6 L-1,1 Z " fill="#0B0B0B" transform="translate(14,17)"/>
</svg>
