<?xml version="1.0" encoding="UTF-8"?>
<svg version="1.1" xmlns="http://www.w3.org/2000/svg" width="28" height="28">
<path d="M0,0 L28,0 L28,28 L0,28 Z " fill="#030303" transform="translate(0,0)"/>
<path d="M0,0 L2,0 L1,6 L-3,9 L-4,17 L-9,20 L-15,19 L-14,14 L-10,10 L-12,6 L-9,3 L-1,2 Z " fill="#E8E8E8" transform="translate(21,5)"/>
<path d="M0,0 L7,0 L7,6 L3,8 L-3,7 L-2,2 Z " fill="#CDCDCD" transform="translate(9,17)"/>
<path d="M0,0 L5,2 L5,5 L0,7 L-1,1 Z " fill="#F4F4F4" transform="translate(11,11)"/>
<path d="M0,0 L5,2 L4,5 L-1,4 L-3,5 L-1,1 Z " fill="#828282" transform="translate(12,8)"/>
<path d="M0,0 L3,0 L2,4 L-3,5 L-1,1 Z " fill="#171717" transform="translate(13,17)"/>
</svg>
