<?xml version="1.0" encoding="UTF-8"?>
<svg version="1.1" xmlns="http://www.w3.org/2000/svg" width="28" height="28">
<path d="M0,0 L28,0 L28,28 L0,28 Z " fill="#030303" transform="translate(0,0)"/>
<path d="M0,0 L2,0 L2,6 L-3,9 L-4,11 L-2,11 L0,14 L0,17 L-6,20 L-13,19 L-13,15 L-11,15 L-11,11 L-10,5 L-6,1 Z " fill="#CFCFCF" transform="translate(20,4)"/>
<path d="M0,0 L2,1 L1,5 L-2,5 L-2,3 L-7,6 L-8,9 L-6,10 L-10,18 L-8,18 L-8,20 L-13,19 L-13,15 L-11,15 L-11,11 L-10,5 L-6,1 Z " fill="#DADADA" transform="translate(20,4)"/>
<path d="M0,0 L4,1 L4,4 L-3,5 L-1,1 Z " fill="#0C0C0C" transform="translate(13,16)"/>
<path d="M0,0 L2,1 L1,5 L-2,5 L-2,3 L-6,4 L-6,1 Z " fill="#F5F5F5" transform="translate(20,4)"/>
<path d="M0,0 L3,0 L1,4 L-3,6 L-2,2 Z " fill="#151515" transform="translate(15,7)"/>
</svg>
