<?xml version="1.0" encoding="UTF-8"?>
<svg version="1.1" xmlns="http://www.w3.org/2000/svg" width="28" height="28">
<path d="M0,0 L28,0 L28,28 L0,28 Z " fill="#020202" transform="translate(0,0)"/>
<path d="M0,0 L9,0 L12,2 L11,7 L6,8 L6,10 L13,12 L12,16 L5,19 L-4,20 L-3,16 L0,11 L-5,7 L-6,4 Z " fill="#EBEBEB" transform="translate(11,5)"/>
<path d="M0,0 L8,0 L8,2 L4,5 L-1,4 L-2,1 Z " fill="#050505" transform="translate(11,8)"/>
<path d="M0,0 L6,2 L3,5 L-4,6 L-1,1 Z " fill="#1B1B1B" transform="translate(14,17)"/>
<path d="M0,0 L3,1 L7,3 L-2,4 L-3,6 L-6,4 Z " fill="#C4C4C4" transform="translate(11,5)"/>
</svg>
