<?xml version="1.0" encoding="UTF-8"?>
<svg version="1.1" xmlns="http://www.w3.org/2000/svg" width="28" height="28">
<path d="M0,0 L28,0 L28,28 L0,28 Z " fill="#020202" transform="translate(0,0)"/>
<path d="M0,0 L6,0 L7,5 L5,4 L5,2 L2,4 L9,6 L12,16 L7,20 L1,20 L-4,15 L-4,11 L-1,9 L-2,2 L0,2 Z " fill="#D1D1D1" transform="translate(11,4)"/>
<path d="M0,0 L4,1 L7,3 L6,7 L4,8 L-3,8 L-4,7 L-4,2 Z " fill="#0E0E0E" transform="translate(14,13)"/>
<path d="M0,0 L6,0 L7,5 L5,4 L5,2 L2,4 L3,6 L2,8 L0,8 L-2,5 L-2,2 L0,2 Z " fill="#ACACAC" transform="translate(11,4)"/>
</svg>
