<?xml version="1.0" encoding="UTF-8"?>
<svg version="1.1" xmlns="http://www.w3.org/2000/svg" width="28" height="28">
<path d="M0,0 L28,0 L28,28 L0,28 Z " fill="#020202" transform="translate(0,0)"/>
<path d="M0,0 L7,1 L9,5 L11,5 L11,7 L5,12 L3,18 L-1,20 L-5,20 L-4,16 L0,11 L-3,10 L-4,3 Z " fill="#0D0D0D" transform="translate(13,4)"/>
<path d="M0,0 L4,1 L-2,6 L-4,12 L-8,14 L-12,14 L-11,10 L-7,5 L-4,5 L-3,2 Z " fill="#EAEAEA" transform="translate(20,10)"/>
<path d="M0,0 L7,1 L9,5 L0,4 L-1,8 L0,11 L-3,10 L-4,3 Z " fill="#C9C9C9" transform="translate(13,4)"/>
<path d="M0,0 L4,1 L-2,6 L-4,9 L-4,3 Z " fill="#CFCFCF" transform="translate(20,10)"/>
</svg>
