<?xml version="1.0" encoding="UTF-8"?>
<svg version="1.1" xmlns="http://www.w3.org/2000/svg" width="28" height="28">
<path d="M0,0 L28,0 L28,28 L0,28 Z " fill="#020202" transform="translate(0,0)"/>
<path d="M0,0 L7,0 L12,1 L11,5 L6,8 L6,10 L8,11 L7,17 L3,20 L-4,20 L-4,15 L1,9 L-4,7 L-4,2 Z " fill="#D0D0D0" transform="translate(12,5)"/>
<path d="M0,0 L1,2 L4,2 L4,4 L6,4 L7,2 L6,8 L2,11 L-5,11 L-5,6 Z " fill="#CBCBCB" transform="translate(13,14)"/>
<path d="M0,0 L6,0 L4,5 L1,6 L-3,3 L-3,1 Z " fill="#181818" transform="translate(13,7)"/>
<path d="M0,0 L2,0 L6,4 L10,5 L11,10 L9,10 L9,8 L6,8 L6,6 L1,5 Z " fill="#DBDBDB" transform="translate(8,8)"/>
<path d="M0,0 L3,0 L4,3 L1,7 L-3,7 L-2,3 Z " fill="#111111" transform="translate(14,16)"/>
<path d="M0,0 L2,1 L3,6 L1,6 L1,4 L-2,4 L-3,1 Z " fill="#F4F4F4" transform="translate(16,12)"/>
</svg>
