<?xml version="1.0" encoding="UTF-8"?>
<svg version="1.1" xmlns="http://www.w3.org/2000/svg" width="28" height="28">
<path d="M0,0 L28,0 L28,28 L0,28 Z " fill="#010101" transform="translate(0,0)"/>
<path d="M0,0 L8,0 L8,5 L6,7 L7,19 L0,20 L-1,19 L-1,13 L0,9 L-2,5 L-1,1 Z " fill="#E3E3E3" transform="translate(12,5)"/>
<path d="M0,0 L8,0 L8,5 L5,7 L5,4 L6,1 L2,2 L2,7 L-1,7 L-2,2 Z " fill="#DADADA" transform="translate(12,5)"/>
<path d="M0,0 L4,0 L3,4 L1,7 L-1,5 Z " fill="#151515" transform="translate(14,6)"/>
<path d="M0,0 L3,2 L3,6 L-1,6 Z " fill="#101010" transform="translate(14,17)"/>
</svg>
