<?xml version="1.0" encoding="UTF-8"?>
<svg version="1.1" xmlns="http://www.w3.org/2000/svg" width="28" height="28">
<path d="M0,0 L28,0 L28,28 L0,28 Z " fill="#020202" transform="translate(0,0)"/>
<path d="M0,0 L6,0 L6,8 L9,12 L8,17 L4,20 L-3,20 L-5,18 L-5,12 L-3,9 L-4,8 L-4,3 Z " fill="#060606" transform="translate(13,5)"/>
<path d="M0,0 L5,0 L5,3 L0,2 L1,6 L6,6 L6,8 L1,10 L0,16 L6,16 L10,14 L8,18 L6,19 L-1,19 L-3,17 L-3,11 L-1,8 L-2,7 L-2,2 Z " fill="#D3D3D3" transform="translate(11,6)"/>
<path d="M0,0 L6,0 L6,8 L9,12 L8,16 L4,10 L4,7 L-1,8 L-2,3 L3,4 L3,1 Z " fill="#B2B2B2" transform="translate(13,5)"/>
<path d="M0,0 L2,0 L1,5 L-4,6 L-5,1 L0,2 Z " fill="#141414" transform="translate(16,7)"/>
</svg>
