<?xml version="1.0" encoding="UTF-8"?>
<svg version="1.1" xmlns="http://www.w3.org/2000/svg" width="28" height="28">
<path d="M0,0 L28,0 L28,28 L0,28 Z " fill="#020202" transform="translate(0,0)"/>
<path d="M0,0 L6,0 L9,2 L9,8 L9,10 L10,14 L7,19 L1,20 L-3,17 L-3,10 L-4,9 L-4,3 Z " fill="#E3E3E3" transform="translate(12,5)"/>
<path d="M0,0 L6,0 L6,6 L2,9 L-3,10 L-4,9 L-4,3 Z " fill="#C0C0C0" transform="translate(12,5)"/>
<path d="M0,0 L5,0 L5,6 L-1,7 L-2,3 Z " fill="#0E0E0E" transform="translate(13,16)"/>
<path d="M0,0 L5,1 L4,5 L3,6 L-2,6 L-1,1 Z " fill="#080808" transform="translate(13,7)"/>
</svg>
