<?xml version="1.0" encoding="UTF-8"?>
<svg version="1.1" xmlns="http://www.w3.org/2000/svg" width="28" height="28">
<path d="M0,0 L28,0 L28,28 L0,28 Z " fill="#020202" transform="translate(0,0)"/>
<path d="M0,0 L4,0 L3,3 L-2,4 L-5,8 L0,7 L3,4 L5,4 L5,6 L1,10 L2,18 L0,20 L-4,19 L-5,18 L-5,11 L-7,6 L-2,1 Z " fill="#DDDDDD" transform="translate(16,5)"/>
<path d="M0,0 L3,4 L2,9 L-2,10 L-4,8 L-4,2 L0,3 Z " fill="#CECECE" transform="translate(15,15)"/>
<path d="M0,0 L1,3 L-3,4 L-4,7 L-7,8 L-9,7 L-7,3 L-4,1 Z " fill="#1D1D1D" transform="translate(20,6)"/>
<path d="M0,0 L5,3 L5,6 L1,7 L0,6 Z " fill="#848484" transform="translate(11,17)"/>
</svg>
