<?xml version="1.0" encoding="UTF-8"?>
<svg version="1.1" xmlns="http://www.w3.org/2000/svg" width="28" height="28">
<path d="M0,0 L28,0 L28,28 L0,28 Z " fill="#020202" transform="translate(0,0)"/>
<path d="M0,0 L7,0 L6,5 L4,7 L3,17 L2,19 L-4,20 L-5,15 L-2,8 L-5,7 L-4,3 Z " fill="#EBEBEB" transform="translate(14,5)"/>
<path d="M0,0 L4,1 L1,2 L3,3 L1,7 L-1,7 L-2,10 L-2,8 L-5,7 L-4,3 Z " fill="#9C9C9C" transform="translate(14,5)"/>
<path d="M0,0 L1,3 L3,3 L2,7 L-3,6 L-1,1 Z " fill="#979797" transform="translate(14,17)"/>
</svg>
