<?xml version="1.0" encoding="UTF-8"?>
<svg version="1.1" xmlns="http://www.w3.org/2000/svg" width="28" height="28">
<path d="M0,0 L28,0 L28,28 L0,28 Z " fill="#010101" transform="translate(0,0)"/>
<path d="M0,0 L7,0 L7,3 L5,4 L7,6 L3,9 L0,18 L-2,18 L-2,20 L-7,18 L-6,12 L-1,7 Z " fill="#C1C1C1" transform="translate(15,5)"/>
<path d="M0,0 L4,1 L2,3 L2,7 L4,6 L3,10 L-2,8 L-1,2 Z " fill="#E1E1E1" transform="translate(10,15)"/>
<path d="M0,0 L7,0 L7,3 L2,2 L1,6 Z " fill="#ECECEC" transform="translate(15,5)"/>
<path d="M0,0 L1,4 L-3,8 L-3,3 Z " fill="#2C2C2C" transform="translate(14,15)"/>
</svg>
