<?xml version="1.0" encoding="UTF-8"?>
<svg version="1.1" xmlns="http://www.w3.org/2000/svg" width="28" height="28">
<path d="M0,0 L28,0 L28,28 L0,28 Z " fill="#010101" transform="translate(0,0)"/>
<path d="M0,0 L5,0 L5,2 L-3,3 L-1,6 L7,5 L3,9 L4,16 L1,20 L-3,19 L-3,13 L-2,9 L-5,7 L-4,2 Z " fill="#B7B7B7" transform="translate(14,5)"/>
<path d="M0,0 L5,0 L5,2 L-3,3 L-1,7 L-3,8 L-5,7 L-4,2 Z " fill="#DCDCDC" transform="translate(14,5)"/>
<path d="M0,0 L4,1 L6,3 L-1,5 L-3,1 Z " fill="#252525" transform="translate(14,7)"/>
</svg>
