<?xml version="1.0" encoding="UTF-8"?>
<svg version="1.1" xmlns="http://www.w3.org/2000/svg" width="28" height="28">
<path d="M0,0 L28,0 L28,28 L0,28 Z " fill="#050505" transform="translate(0,0)"/>
<path d="M0,0 L7,0 L11,3 L10,8 L5,11 L0,13 L1,17 L7,17 L13,13 L14,10 L11,9 L11,8 L16,8 L16,14 L14,14 L13,17 L4,20 L-1,19 L-3,17 L-3,12 L-3,8 L-4,3 Z " fill="#DADADA" transform="translate(10,5)"/>
<path d="M0,0 L3,3 L10,4 L10,6 L3,9 L4,13 L10,13 L16,9 L17,6 L14,5 L14,4 L19,4 L19,10 L17,10 L16,13 L7,16 L2,15 L0,13 L0,8 L0,4 Z " fill="#DDDDDD" transform="translate(7,9)"/>
<path d="M0,0 L7,1 L7,5 L-1,6 L-2,1 Z " fill="#0C0C0C" transform="translate(11,7)"/>
<path d="M0,0 L3,3 L10,4 L10,6 L1,8 Z " fill="#EBEBEB" transform="translate(7,9)"/>
<path d="M0,0 L5,0 L5,6 L3,6 L2,9 L-1,10 L-3,8 L2,5 L3,2 L0,1 Z " fill="#C2C2C2" transform="translate(21,13)"/>
<path d="M0,0 L7,0 L3,2 L-1,3 L-2,6 L-4,7 L-3,2 Z " fill="#C0C0C0" transform="translate(10,5)"/>
</svg>
