<?xml version="1.0" encoding="UTF-8"?>
<svg version="1.1" xmlns="http://www.w3.org/2000/svg" width="28" height="28">
<path d="M0,0 L28,0 L28,28 L0,28 Z " fill="#020202" transform="translate(0,0)"/>
<path d="M0,0 L5,0 L6,4 L2,7 L3,10 L3,17 L0,20 L-5,19 L-6,18 L-6,12 L-3,6 L-5,6 L-4,1 Z " fill="#B5B5B5" transform="translate(15,5)"/>
<path d="M0,0 L3,1 L3,6 L2,7 L-3,7 L-2,2 Z " fill="#131313" transform="translate(13,15)"/>
<path d="M0,0 L1,2 L3,3 L-1,7 L-2,10 L3,11 L3,13 L-2,12 L-3,11 L-3,5 Z " fill="#D6D6D6" transform="translate(12,12)"/>
</svg>
