<?xml version="1.0" encoding="UTF-8"?>
<svg version="1.1" xmlns="http://www.w3.org/2000/svg" width="28" height="28">
<path d="M0,0 L28,0 L28,28 L0,28 Z " fill="#030303" transform="translate(0,0)"/>
<path d="M0,0 L6,1 L9,0 L8,4 L3,8 L2,10 L5,11 L4,18 L1,20 L-3,20 L-4,18 L-4,11 L-7,8 L-6,3 Z " fill="#ECECEC" transform="translate(14,6)"/>
<path d="M0,0 L7,1 L5,5 L2,6 L-2,4 Z " fill="#777777" transform="translate(9,8)"/>
<path d="M0,0 L4,0 L3,4 L0,5 Z " fill="#313131" transform="translate(13,18)"/>
</svg>
