<?xml version="1.0" encoding="UTF-8"?>
<svg version="1.1" xmlns="http://www.w3.org/2000/svg" width="28" height="28">
<path d="M0,0 L28,0 L28,28 L0,28 Z " fill="#030303" transform="translate(0,0)"/>
<path d="M0,0 L9,1 L11,2 L10,5 L5,7 L6,11 L9,13 L8,17 L4,20 L1,19 L0,13 L0,6 L-1,1 Z " fill="#EFEFEF" transform="translate(10,6)"/>
<path d="M0,0 L8,1 L7,5 L3,8 L0,7 L-1,1 Z " fill="#ADADAD" transform="translate(11,18)"/>
<path d="M0,0 L5,1 L4,4 L-2,6 L-4,5 L-2,1 Z " fill="#C1C1C1" transform="translate(16,7)"/>
</svg>
