<?xml version="1.0" encoding="UTF-8"?>
<svg version="1.1" xmlns="http://www.w3.org/2000/svg" width="28" height="28">
<path d="M0,0 L28,0 L28,28 L0,28 Z " fill="#020202" transform="translate(0,0)"/>
<path d="M0,0 L6,0 L8,4 L4,8 L10,13 L8,18 L4,20 L-1,19 L-3,17 L-3,9 L-5,7 L-5,2 Z " fill="#DADADA" transform="translate(12,5)"/>
<path d="M0,0 L6,2 L4,6 L-1,7 L-2,3 Z " fill="#111111" transform="translate(13,16)"/>
<path d="M0,0 L4,2 L5,5 L2,9 L-1,9 L1,3 L-2,1 Z " fill="#CFCFCF" transform="translate(17,15)"/>
<path d="M0,0 L4,0 L3,3 L0,5 L-4,4 L-3,1 Z " fill="#1F1F1F" transform="translate(13,7)"/>
<path d="M0,0 L5,1 L5,5 L2,6 L3,2 L0,2 Z " fill="#F3F3F3" transform="translate(14,5)"/>
</svg>
