<?xml version="1.0" encoding="UTF-8"?>
<svg version="1.1" xmlns="http://www.w3.org/2000/svg" width="28" height="28">
<path d="M0,0 L28,0 L28,28 L0,28 Z " fill="#010101" transform="translate(0,0)"/>
<path d="M0,0 L6,0 L10,5 L10,10 L12,10 L12,16 L9,19 L6,20 L-1,20 L-5,16 L-4,5 L-2,1 Z " fill="#E6E6E6" transform="translate(11,4)"/>
<path d="M0,0 L9,0 L11,4 L7,6 L0,6 L-1,2 Z " fill="#141414" transform="translate(10,15)"/>
<path d="M0,0 L3,0 L3,5 L0,8 L-3,9 L-10,9 L-13,7 L-13,2 L-11,1 L-10,5 L-3,5 L0,4 Z " fill="#ECECEC" transform="translate(20,15)"/>
<path d="M0,0 L6,0 L7,3 L5,6 L4,4 L-3,5 L-2,1 Z " fill="#E7E7E7" transform="translate(11,4)"/>
<path d="M0,0 L5,1 L5,3 L-1,4 Z " fill="#1D1D1D" transform="translate(11,7)"/>
</svg>
