<?xml version="1.0" encoding="UTF-8"?>
<svg version="1.1" xmlns="http://www.w3.org/2000/svg" width="28" height="28">
<path d="M0,0 L28,0 L28,28 L0,28 Z " fill="#030303" transform="translate(0,0)"/>
<path d="M0,0 L7,1 L6,6 L2,10 L3,16 L-1,20 L-7,19 L-8,12 L-4,10 L-4,8 L-8,7 L-10,3 L-7,1 Z " fill="#E3E3E3" transform="translate(16,6)"/>
<path d="M0,0 L5,0 L4,4 L-2,5 L-5,2 Z " fill="#1F1F1F" transform="translate(14,8)"/>
<path d="M0,0 L4,1 L3,5 L-2,6 L-1,1 Z " fill="#141414" transform="translate(13,17)"/>
</svg>
