<?xml version="1.0" encoding="UTF-8"?>
<svg version="1.1" xmlns="http://www.w3.org/2000/svg" width="28" height="28">
<path d="M0,0 L28,0 L28,28 L0,28 Z " fill="#020202" transform="translate(0,0)"/>
<path d="M0,0 L7,1 L7,10 L6,12 L10,14 L11,18 L4,20 L-3,20 L-6,18 L-5,6 Z " fill="#C4C4C4" transform="translate(13,4)"/>
<path d="M0,0 L2,1 L1,8 L5,10 L6,14 L-1,16 L-8,16 L-10,14 L-9,9 L-7,13 L3,13 L0,9 L0,7 L-2,6 Z " fill="#E1E1E1" transform="translate(18,8)"/>
<path d="M0,0 L6,0 L9,3 L9,5 L-1,6 L-2,2 Z " fill="#151515" transform="translate(12,16)"/>
<path d="M0,0 L2,1 L2,6 L0,8 L-4,8 L-3,2 Z " fill="#161616" transform="translate(15,6)"/>
<path d="M0,0 L5,0 L5,3 L0,4 L-4,8 L-3,3 Z " fill="#DFDFDF" transform="translate(13,4)"/>
</svg>
