<?xml version="1.0" encoding="UTF-8"?>
<svg version="1.1" xmlns="http://www.w3.org/2000/svg" width="28" height="28">
<path d="M0,0 L28,0 L28,28 L0,28 Z " fill="#020202" transform="translate(0,0)"/>
<path d="M0,0 L7,0 L13,4 L13,6 L11,6 L10,9 L5,9 L8,14 L8,19 L1,20 L-2,17 L-1,9 L-4,6 L-3,1 Z " fill="#C5C5C5" transform="translate(11,5)"/>
<path d="M0,0 L7,0 L13,4 L12,6 L8,4 L-1,3 L0,9 L-4,6 L-3,1 Z " fill="#E3E3E3" transform="translate(11,5)"/>
<path d="M0,0 L9,0 L11,2 L5,5 L0,3 Z " fill="#1B1B1B" transform="translate(10,8)"/>
</svg>
