<?xml version="1.0" encoding="UTF-8"?>
<svg version="1.1" xmlns="http://www.w3.org/2000/svg" width="28" height="28">
<path d="M0,0 L28,0 L28,28 L0,28 Z " fill="#030303" transform="translate(0,0)"/>
<path d="M0,0 L5,0 L7,2 L6,7 L0,12 L-2,12 L-2,18 L-5,20 L-9,20 L-9,14 L-8,12 L-5,11 L-4,3 Z " fill="#C5C5C5" transform="translate(16,5)"/>
<path d="M0,0 L5,0 L7,2 L6,7 L4,7 L4,4 L1,5 L-3,11 L-4,11 L-4,3 Z " fill="#E2E2E2" transform="translate(16,5)"/>
<path d="M0,0 L2,0 L2,5 L0,6 L-3,3 Z " fill="#8C8C8C" transform="translate(12,18)"/>
</svg>
