<?xml version="1.0" encoding="UTF-8"?>
<svg version="1.1" xmlns="http://www.w3.org/2000/svg" width="28" height="28">
<path d="M0,0 L28,0 L28,28 L0,28 Z " fill="#020202" transform="translate(0,0)"/>
<path d="M0,0 L5,1 L5,5 L4,2 L1,3 L0,7 L4,6 L4,10 L2,10 L4,13 L4,19 L-1,20 L-5,17 L-5,12 L-3,10 L-2,2 Z " fill="#D6D6D6" transform="translate(14,5)"/>
<path d="M0,0 L3,2 L4,7 L-1,6 L-2,2 Z " fill="#0D0D0D" transform="translate(13,16)"/>
<path d="M0,0 L3,0 L4,7 L-1,5 Z " fill="#636363" transform="translate(15,7)"/>
<path d="M0,0 L2,3 L-2,9 L-3,9 L-3,4 Z " fill="#B8B8B8" transform="translate(12,13)"/>
</svg>
