<?xml version="1.0" encoding="UTF-8"?>
<svg version="1.1" xmlns="http://www.w3.org/2000/svg" width="28" height="28">
<path d="M0,0 L28,0 L28,28 L0,28 Z " fill="#010101" transform="translate(0,0)"/>
<path d="M0,0 L5,0 L7,7 L3,11 L0,13 L-2,19 L-3,20 L-9,20 L-11,18 L-10,14 L-5,12 L-5,6 L-3,2 Z " fill="#E6E6E6" transform="translate(16,5)"/>
<path d="M0,0 L5,0 L7,7 L3,11 L0,12 L0,10 L-3,9 L-3,2 Z " fill="#DEDEDE" transform="translate(16,5)"/>
<path d="M0,0 L2,1 L4,1 L6,1 L6,4 L8,5 L6,7 L0,7 L-2,5 L-1,1 Z " fill="#929292" transform="translate(7,18)"/>
<path d="M0,0 L3,0 L4,4 L1,6 L-2,6 L-1,2 Z " fill="#242424" transform="translate(15,8)"/>
</svg>
