<?xml version="1.0" encoding="UTF-8"?>
<svg version="1.1" xmlns="http://www.w3.org/2000/svg" width="28" height="28">
<path d="M0,0 L28,0 L28,28 L0,28 Z " fill="#030303" transform="translate(0,0)"/>
<path d="M0,0 L6,0 L10,5 L9,10 L8,12 L6,12 L6,14 L8,14 L10,19 L9,20 L2,20 L0,19 L1,12 L-2,10 L-2,2 Z " fill="#C8C8C8" transform="translate(10,5)"/>
<path d="M0,0 L6,0 L10,5 L9,10 L7,12 L6,8 L6,4 L2,4 L-1,7 L-2,7 L-2,2 Z " fill="#E2E2E2" transform="translate(10,5)"/>
<path d="M0,0 L4,2 L4,6 L2,9 L-2,7 L-2,2 Z " fill="#191919" transform="translate(13,7)"/>
</svg>
