<?xml version="1.0" encoding="UTF-8"?>
<svg version="1.1" xmlns="http://www.w3.org/2000/svg" width="28" height="28">
<path d="M0,0 L28,0 L28,28 L0,28 Z " fill="#030303" transform="translate(0,0)"/>
<path d="M0,0 L5,0 L7,5 L3,9 L0,10 L0,15 L-3,18 L-7,20 L-11,20 L-10,15 L-7,11 L-8,6 L-2,1 Z " fill="#CBCBCB" transform="translate(17,5)"/>
<path d="M0,0 L1,2 L5,1 L3,5 L-1,7 L-5,7 L-5,4 Z " fill="#ECECEC" transform="translate(11,18)"/>
<path d="M0,0 L3,0 L1,4 L-4,6 L-2,2 Z " fill="#E5E5E5" transform="translate(13,7)"/>
</svg>
