<?xml version="1.0" encoding="UTF-8"?>
<svg version="1.1" xmlns="http://www.w3.org/2000/svg" width="28" height="28">
<path d="M0,0 L28,0 L28,28 L0,28 Z " fill="#020202" transform="translate(0,0)"/>
<path d="M0,0 L4,1 L5,6 L-1,11 L-3,11 L-2,18 L-6,20 L-11,20 L-9,13 L-5,4 Z " fill="#E9E9E9" transform="translate(18,4)"/>
<path d="M0,0 L5,2 L0,7 L-5,10 L-4,4 Z " fill="#CDCDCD" transform="translate(16,5)"/>
<path d="M0,0 L3,1 L4,4 L-1,6 L-2,2 Z " fill="#949494" transform="translate(12,18)"/>
<path d="M0,0 L3,1 L-3,6 L-5,6 L-3,2 Z " fill="#383838" transform="translate(18,7)"/>
</svg>
