<?xml version="1.0" encoding="UTF-8"?>
<svg version="1.1" xmlns="http://www.w3.org/2000/svg" width="28" height="28">
<path d="M0,0 L28,0 L28,28 L0,28 Z " fill="#020202" transform="translate(0,0)"/>
<path d="M0,0 L6,0 L7,5 L1,10 L2,16 L-2,19 L-10,20 L-10,16 L-5,10 L-7,10 L-6,5 Z " fill="#D7D7D7" transform="translate(16,5)"/>
<path d="M0,0 L5,0 L4,5 L-2,8 L-7,8 L-7,4 L-1,1 Z " fill="#CACACA" transform="translate(13,17)"/>
<path d="M0,0 L2,0 L2,2 L7,2 L8,5 L3,7 L-1,9 L1,5 L2,3 L0,3 Z " fill="#E6E6E6" transform="translate(9,12)"/>
<path d="M0,0 L3,0 L2,4 L-1,7 L-4,7 L-3,3 Z " fill="#111111" transform="translate(16,7)"/>
<path d="M0,0 L2,0 L1,5 L-5,6 L-4,3 Z " fill="#0A0A0A" transform="translate(13,17)"/>
</svg>
