<?xml version="1.0" encoding="UTF-8"?>
<svg version="1.1" xmlns="http://www.w3.org/2000/svg" width="28" height="28">
<path d="M0,0 L28,0 L28,28 L0,28 Z " fill="#020202" transform="translate(0,0)"/>
<path d="M0,0 L3,0 L3,2 L1,2 L0,7 L7,5 L9,2 L6,2 L6,0 L10,1 L11,4 L10,7 L14,10 L13,16 L7,20 L0,19 L-1,18 L-1,9 L-2,8 L-2,2 Z " fill="#BDBDBD" transform="translate(9,5)"/>
<path d="M0,0 L9,0 L10,1 L10,6 L5,9 L0,9 L-1,8 L-1,1 Z " fill="#070707" transform="translate(11,14)"/>
<path d="M0,0 L3,0 L3,2 L1,2 L0,7 L4,8 L-1,9 L-2,8 L-2,2 Z " fill="#A6A6A6" transform="translate(9,5)"/>
</svg>
