<?xml version="1.0" encoding="UTF-8"?>
<svg version="1.1" xmlns="http://www.w3.org/2000/svg" width="28" height="28">
<path d="M0,0 L28,0 L28,28 L0,28 Z " fill="#030303" transform="translate(0,0)"/>
<path d="M0,0 L2,0 L0,6 L-5,12 L-4,16 L-8,20 L-14,20 L-13,15 L-11,12 L-12,11 L-12,5 L-10,3 L-2,1 L-1,2 Z " fill="#EFEFEF" transform="translate(21,5)"/>
<path d="M0,0 L2,0 L0,6 L-3,8 L-9,10 L-12,7 L-10,3 L-2,1 L-1,2 Z " fill="#E1E1E1" transform="translate(21,5)"/>
<path d="M0,0 L4,0 L5,3 L1,7 L-5,7 L-2,2 Z " fill="#8B8B8B" transform="translate(12,18)"/>
<path d="M0,0 L3,1 L-1,6 L-4,5 L-2,1 Z " fill="#202020" transform="translate(15,9)"/>
</svg>
