<?xml version="1.0" encoding="UTF-8"?>
<svg version="1.1" xmlns="http://www.w3.org/2000/svg" width="28" height="28">
<path d="M0,0 L28,0 L28,28 L0,28 Z " fill="#010101" transform="translate(0,0)"/>
<path d="M0,0 L4,1 L5,6 L3,4 L-1,4 L-2,7 L4,7 L2,10 L4,13 L4,18 L2,20 L-3,19 L-5,15 L-4,4 Z " fill="#CBCBCB" transform="translate(14,5)"/>
<path d="M0,0 L4,1 L6,4 L5,8 L0,7 L-1,2 Z " fill="#111111" transform="translate(11,15)"/>
<path d="M0,0 L5,1 L6,4 L1,5 L-1,4 Z " fill="#1E1E1E" transform="translate(13,8)"/>
<path d="M0,0 L4,1 L5,6 L3,4 L-2,4 Z " fill="#DFDFDF" transform="translate(14,5)"/>
</svg>
