<?xml version="1.0" encoding="UTF-8"?>
<svg version="1.1" xmlns="http://www.w3.org/2000/svg" width="28" height="28">
<path d="M0,0 L28,0 L28,28 L0,28 Z " fill="#030303" transform="translate(0,0)"/>
<path d="M0,0 L6,0 L8,4 L7,7 L4,7 L2,12 L3,13 L3,18 L-2,20 L-8,20 L-8,14 L-6,11 L-8,11 L-8,5 L-3,1 Z " fill="#C7C7C7" transform="translate(16,4)"/>
<path d="M0,0 L6,0 L8,4 L1,4 L-5,6 L-7,11 L-8,11 L-8,5 L-3,1 Z " fill="#D9D9D9" transform="translate(16,4)"/>
<path d="M0,0 L6,0 L2,2 L2,4 L-3,7 L-7,6 L-6,2 Z " fill="#1A1A1A" transform="translate(17,7)"/>
<path d="M0,0 L2,0 L2,5 L-3,7 L-9,7 L-8,3 L0,3 Z " fill="#F0F0F0" transform="translate(17,17)"/>
</svg>
