<?xml version="1.0" encoding="UTF-8"?>
<svg version="1.1" xmlns="http://www.w3.org/2000/svg" width="28" height="28">
<path d="M0,0 L28,0 L28,28 L0,28 Z " fill="#030303" transform="translate(0,0)"/>
<path d="M0,0 L3,0 L4,5 L-1,4 L-1,6 L4,7 L11,6 L10,8 L7,9 L8,18 L5,20 L-2,19 L-3,18 L-3,13 L0,9 L-5,7 L-4,2 Z " fill="#DFDFDF" transform="translate(12,4)"/>
<path d="M0,0 L3,0 L4,5 L-1,4 L-1,6 L2,8 L-2,9 L-5,7 L-4,2 Z " fill="#E1E1E1" transform="translate(12,4)"/>
<path d="M0,0 L2,4 L7,4 L7,1 L9,1 L8,6 L1,7 L-1,6 L-1,1 Z " fill="#EDEDED" transform="translate(11,17)"/>
<path d="M0,0 L4,2 L4,5 L-1,6 L-2,2 Z " fill="#171717" transform="translate(14,16)"/>
</svg>
