<?xml version="1.0" encoding="UTF-8"?>
<svg version="1.1" xmlns="http://www.w3.org/2000/svg" width="28" height="28">
<path d="M0,0 L28,0 L28,28 L0,28 Z " fill="#020202" transform="translate(0,0)"/>
<path d="M0,0 L5,0 L5,2 L7,2 L6,6 L0,10 L-2,10 L-2,17 L-5,20 L-11,20 L-13,18 L-12,13 L-8,10 L-5,2 Z " fill="#DDDDDD" transform="translate(18,5)"/>
<path d="M0,0 L1,2 L3,2 L2,6 L-4,10 L-9,9 L-9,5 L-6,3 L0,3 Z " fill="#C6C6C6" transform="translate(22,5)"/>
<path d="M0,0 L4,0 L4,3 L-5,5 L-5,9 L-2,10 L-3,12 L-11,15 L-10,11 L-8,10 L-5,2 Z " fill="#E8E8E8" transform="translate(18,5)"/>
<path d="M0,0 L3,0 L3,5 L2,6 L-3,6 L-3,2 Z " fill="#202020" transform="translate(11,17)"/>
<path d="M0,0 L6,0 L6,2 L0,5 L-3,5 L-3,2 Z " fill="#0E0E0E" transform="translate(16,8)"/>
</svg>
