<?xml version="1.0" encoding="UTF-8"?>
<svg version="1.1" xmlns="http://www.w3.org/2000/svg" width="28" height="28">
<path d="M0,0 L28,0 L28,28 L0,28 Z " fill="#020202" transform="translate(0,0)"/>
<path d="M0,0 L5,0 L6,3 L-1,4 L0,7 L7,3 L11,1 L10,5 L4,9 L2,9 L2,16 L-2,20 L-8,20 L-9,15 L-4,10 L-2,10 L-2,7 L-4,7 L-4,2 Z " fill="#E1E1E1" transform="translate(15,5)"/>
<path d="M0,0 L1,0 L2,7 L-1,9 L-7,9 L-8,4 L-6,1 Z " fill="#D7D7D7" transform="translate(14,16)"/>
<path d="M0,0 L6,1 L2,5 L-1,6 L-3,2 Z " fill="#1A1A1A" transform="translate(16,7)"/>
<path d="M0,0 L1,0 L1,5 L-2,7 L-6,6 L-2,1 Z " fill="#111111" transform="translate(14,16)"/>
</svg>
