<?xml version="1.0" encoding="UTF-8"?>
<svg version="1.1" xmlns="http://www.w3.org/2000/svg" width="28" height="28">
<path d="M0,0 L28,0 L28,28 L0,28 Z " fill="#020202" transform="translate(0,0)"/>
<path d="M0,0 L4,1 L5,5 L4,7 L8,8 L5,10 L10,13 L10,18 L8,20 L-1,20 L-4,15 L-3,10 L-6,5 L-5,2 Z " fill="#DADADA" transform="translate(13,4)"/>
<path d="M0,0 L5,1 L7,2 L7,7 L5,9 L-4,9 L-2,6 L5,6 Z " fill="#C3C3C3" transform="translate(16,15)"/>
<path d="M0,0 L6,1 L8,5 L0,5 L-1,2 Z " fill="#131313" transform="translate(13,16)"/>
<path d="M0,0 L2,0 L2,6 L-3,6 L-4,2 Z " fill="#212121" transform="translate(14,6)"/>
</svg>
