<?xml version="1.0" encoding="UTF-8"?>
<svg version="1.1" xmlns="http://www.w3.org/2000/svg" width="28" height="28">
<path d="M0,0 L28,0 L28,28 L0,28 Z " fill="#020202" transform="translate(0,0)"/>
<path d="M0,0 L6,0 L7,4 L2,8 L-1,11 L-1,17 L-4,20 L-9,20 L-9,14 L-7,9 L-8,6 L-6,2 Z " fill="#D8D8D8" transform="translate(17,6)"/>
<path d="M0,0 L4,2 L2,6 L1,7 L-4,7 L-2,6 L-1,1 Z " fill="#828282" transform="translate(12,19)"/>
<path d="M0,0 L2,1 L2,4 L-3,8 L-7,10 L-6,6 L-2,4 Z " fill="#E4E4E4" transform="translate(22,6)"/>
<path d="M0,0 L0,3 L-5,7 L-7,4 L-3,1 Z " fill="#1C1C1C" transform="translate(18,8)"/>
</svg>
