<?xml version="1.0" encoding="UTF-8"?>
<svg version="1.1" xmlns="http://www.w3.org/2000/svg" width="28" height="28">
<path d="M0,0 L28,0 L28,28 L0,28 Z " fill="#040404" transform="translate(0,0)"/>
<path d="M0,0 L4,1 L3,6 L-1,9 L-3,9 L-3,11 L-5,11 L-5,18 L-7,20 L-12,20 L-13,19 L-13,14 L-10,11 L-10,5 L-8,5 L-7,2 Z " fill="#C7C7C7" transform="translate(20,5)"/>
<path d="M0,0 L4,1 L3,6 L-1,9 L-8,9 L-8,3 Z " fill="#5D5D5D" transform="translate(20,5)"/>
<path d="M0,0 L3,0 L2,4 L-2,5 L-1,1 Z " fill="#0F0F0F" transform="translate(11,18)"/>
</svg>
