<?xml version="1.0" encoding="UTF-8"?>
<svg version="1.1" xmlns="http://www.w3.org/2000/svg" width="28" height="28">
<path d="M0,0 L28,0 L28,28 L0,28 Z " fill="#020202" transform="translate(0,0)"/>
<path d="M0,0 L9,0 L11,2 L10,8 L15,13 L14,18 L11,20 L4,19 L2,16 L3,7 L-1,4 Z " fill="#D3D3D3" transform="translate(8,5)"/>
<path d="M0,0 L9,0 L11,2 L10,6 L3,7 L-1,4 Z " fill="#DFDFDF" transform="translate(8,5)"/>
<path d="M0,0 L5,1 L8,4 L7,8 L1,8 L-1,6 Z " fill="#0E0E0E" transform="translate(13,14)"/>
<path d="M0,0 L5,5 L7,7 L6,12 L3,13 L-2,12 L-2,11 L4,10 L3,6 L-2,2 L0,2 Z " fill="#C8C8C8" transform="translate(16,11)"/>
<path d="M0,0 L2,1 L-2,6 L-4,9 L-3,1 Z " fill="#F2F2F2" transform="translate(15,10)"/>
<path d="M0,0 L3,0 L2,5 L-3,2 Z " fill="#292929" transform="translate(13,6)"/>
</svg>
