<?xml version="1.0" encoding="UTF-8"?>
<svg version="1.1" xmlns="http://www.w3.org/2000/svg" width="28" height="28">
<path d="M0,0 L28,0 L28,28 L0,28 Z " fill="#030303" transform="translate(0,0)"/>
<path d="M0,0 L5,1 L8,4 L7,7 L-3,12 L-3,18 L-7,20 L-11,20 L-12,14 L-9,11 L-9,4 Z " fill="#E4E4E4" transform="translate(18,5)"/>
<path d="M0,0 L7,0 L7,3 L1,6 L-4,5 L-4,2 Z " fill="#0F0F0F" transform="translate(15,8)"/>
<path d="M0,0 L4,1 L3,6 L-4,7 L-5,4 L-3,4 L-2,1 Z " fill="#818181" transform="translate(11,18)"/>
<path d="M0,0 L5,1 L5,4 L-1,3 Z " fill="#BEBEBE" transform="translate(18,5)"/>
</svg>
