<?xml version="1.0" encoding="UTF-8"?>
<svg version="1.1" xmlns="http://www.w3.org/2000/svg" width="28" height="28">
<path d="M0,0 L28,0 L28,28 L0,28 Z " fill="#010101" transform="translate(0,0)"/>
<path d="M0,0 L3,0 L2,3 L-1,5 L-2,8 L3,5 L8,1 L12,2 L8,7 L4,8 L6,11 L6,17 L2,18 L2,20 L-5,19 L-5,12 L-3,12 L-5,9 L-5,3 L-3,3 L-3,1 Z " fill="#D9D9D9" transform="translate(13,5)"/>
<path d="M0,0 L1,4 L-2,7 L-5,7 L-4,3 Z " fill="#232323" transform="translate(16,6)"/>
<path d="M0,0 L3,0 L1,5 L-2,6 L-3,2 Z " fill="#1A1A1A" transform="translate(13,17)"/>
</svg>
