<?xml version="1.0" encoding="UTF-8"?>
<svg version="1.1" xmlns="http://www.w3.org/2000/svg" width="28" height="28">
<path d="M0,0 L28,0 L28,28 L0,28 Z " fill="#020202" transform="translate(0,0)"/>
<path d="M0,0 L7,0 L8,4 L3,10 L5,15 L4,20 L-1,20 L2,19 L1,15 L-4,17 L-3,9 L-5,4 Z " fill="#EAEAEA" transform="translate(13,5)"/>
<path d="M0,0 L7,0 L8,4 L6,3 L2,8 L-2,6 L-5,4 Z " fill="#D0D0D0" transform="translate(13,5)"/>
<path d="M0,0 L3,0 L2,4 L-2,6 L-3,2 Z " fill="#0B0B0B" transform="translate(15,7)"/>
<path d="M0,0 L3,1 L3,5 L-1,6 L-2,2 Z " fill="#6E6E6E" transform="translate(12,19)"/>
</svg>
