<?xml version="1.0" encoding="UTF-8"?>
<svg version="1.1" xmlns="http://www.w3.org/2000/svg" width="28" height="28">
<path d="M0,0 L28,0 L28,28 L0,28 Z " fill="#020202" transform="translate(0,0)"/>
<path d="M0,0 L7,0 L12,5 L8,8 L10,12 L12,15 L11,19 L4,20 L-1,18 L-2,14 L2,8 L-1,4 Z " fill="#D9D9D9" transform="translate(9,5)"/>
<path d="M0,0 L5,5 L4,8 L-3,7 L-3,3 Z " fill="#0A0A0A" transform="translate(13,15)"/>
<path d="M0,0 L6,1 L6,4 L2,5 Z " fill="#0F0F0F" transform="translate(11,7)"/>
<path d="M0,0 L2,0 L1,4 L-6,5 L-2,2 L0,2 Z " fill="#C4C4C4" transform="translate(19,20)"/>
</svg>
