<?xml version="1.0" encoding="UTF-8"?>
<svg version="1.1" xmlns="http://www.w3.org/2000/svg" width="28" height="28">
<path d="M0,0 L28,0 L28,28 L0,28 Z " fill="#010101" transform="translate(0,0)"/>
<path d="M0,0 L5,1 L6,2 L5,14 L3,18 L-2,20 L-6,19 L-5,12 L-4,10 L-6,10 L-5,5 Z " fill="#E7E7E7" transform="translate(14,4)"/>
<path d="M0,0 L2,0 L2,4 L4,4 L3,7 L-2,9 L-6,8 L-6,3 L-4,4 Z " fill="#DCDCDC" transform="translate(14,15)"/>
<path d="M0,0 L4,0 L3,4 L-3,6 L-2,2 Z " fill="#141414" transform="translate(14,7)"/>
<path d="M0,0 L2,0 L1,5 L-4,6 L-2,1 Z " fill="#242424" transform="translate(14,15)"/>
<path d="M0,0 Z M-1,1 Z M-3,2 L0,3 L-4,10 L-6,10 L-5,5 Z " fill="#CACACA" transform="translate(14,4)"/>
</svg>
