<?xml version="1.0" encoding="UTF-8"?>
<svg version="1.1" xmlns="http://www.w3.org/2000/svg" width="28" height="28">
<path d="M0,0 L28,0 L28,28 L0,28 Z " fill="#010101" transform="translate(0,0)"/>
<path d="M0,0 L5,0 L7,2 L10,11 L10,17 L7,20 L0,19 L-2,17 L-1,10 L-4,9 L-4,4 Z " fill="#D7D7D7" transform="translate(12,5)"/>
<path d="M0,0 L2,2 L2,7 L1,8 L-5,8 L-6,4 Z " fill="#191919" transform="translate(18,14)"/>
<path d="M0,0 L2,3 L0,8 L-4,9 L-6,10 L-7,5 L-2,4 Z " fill="#F9F9F9" transform="translate(17,9)"/>
<path d="M0,0 L4,0 L3,5 L-3,5 L-1,1 Z " fill="#1C1C1C" transform="translate(13,8)"/>
</svg>
