<?xml version="1.0" encoding="UTF-8"?>
<svg version="1.1" xmlns="http://www.w3.org/2000/svg" width="28" height="28">
<path d="M0,0 L28,0 L28,28 L0,28 Z " fill="#020202" transform="translate(0,0)"/>
<path d="M0,0 L3,1 L2,8 L5,10 L6,16 L3,19 L-4,20 L-8,17 L-8,5 L-4,1 Z " fill="#D2D2D2" transform="translate(16,5)"/>
<path d="M0,0 L1,2 L4,2 L4,7 L1,9 L-5,8 L-5,2 Z " fill="#0D0D0D" transform="translate(16,14)"/>
<path d="M0,0 L2,0 L1,5 L0,6 L-6,6 L-6,4 L-2,2 L0,3 Z " fill="#1C1C1C" transform="translate(16,7)"/>
<path d="M0,0 L1,0 L0,7 L-3,10 L-8,11 L-8,8 L-2,6 Z " fill="#EFEFEF" transform="translate(18,6)"/>
<path d="M0,0 L3,0 L3,5 L5,6 L2,7 L0,5 Z " fill="#B2B2B2" transform="translate(8,17)"/>
</svg>
