<?xml version="1.0" encoding="UTF-8"?>
<svg version="1.1" xmlns="http://www.w3.org/2000/svg" width="28" height="28">
<path d="M0,0 L28,0 L28,28 L0,28 Z " fill="#030303" transform="translate(0,0)"/>
<path d="M0,0 L5,2 L6,5 L8,6 L4,9 L9,12 L9,17 L5,20 L-6,20 L-9,15 L-7,11 L-10,7 L-8,2 Z " fill="#CECECE" transform="translate(15,4)"/>
<path d="M0,0 L5,2 L6,5 L8,6 L4,9 L9,12 L9,17 L6,19 L-1,19 L2,17 L7,16 L7,13 L-2,10 L0,6 L3,6 L3,3 L-4,4 L-6,1 Z " fill="#E2E2E2" transform="translate(15,4)"/>
<path d="M0,0 L9,1 L11,2 L11,5 L8,6 L-1,6 L-2,2 L0,2 Z " fill="#121212" transform="translate(11,15)"/>
<path d="M0,0 L5,0 L5,3 L-2,5 L-5,4 L-4,1 Z " fill="#0D0D0D" transform="translate(13,7)"/>
</svg>
