<?xml version="1.0" encoding="UTF-8"?>
<svg version="1.1" xmlns="http://www.w3.org/2000/svg" width="28" height="28">
<path d="M0,0 L28,0 L28,28 L0,28 Z " fill="#030303" transform="translate(0,0)"/>
<path d="M0,0 L7,0 L10,2 L8,6 L6,9 L8,13 L7,18 L4,20 L-1,20 L-3,15 L0,10 L0,8 L-3,6 L-3,4 L5,5 L6,3 L0,3 Z " fill="#EBEBEB" transform="translate(11,5)"/>
<path d="M0,0 L1,2 L3,2 L5,6 L5,11 L-2,12 L-4,7 Z " fill="#DFDFDF" transform="translate(12,13)"/>
<path d="M0,0 L3,1 L3,6 L-1,6 Z " fill="#111111" transform="translate(13,16)"/>
<path d="M0,0 L7,1 L6,4 L1,3 L-1,1 Z " fill="#2A2A2A" transform="translate(10,7)"/>
</svg>
