<?xml version="1.0" encoding="UTF-8"?>
<svg version="1.1" xmlns="http://www.w3.org/2000/svg" width="28" height="28">
<path d="M0,0 L28,0 L28,28 L0,28 Z " fill="#040404" transform="translate(0,0)"/>
<path d="M0,0 L6,0 L7,2 L-3,4 L-5,8 L2,6 L6,7 L-2,10 L0,16 L-4,20 L-9,20 L-9,12 L-7,10 L-6,3 Z " fill="#E1E1E1" transform="translate(17,5)"/>
<path d="M0,0 L6,0 L7,2 L-3,4 L-5,8 L2,6 L6,7 L-3,10 L-6,10 L-6,3 Z " fill="#D0D0D0" transform="translate(17,5)"/>
<path d="M0,0 L3,1 L4,5 L2,7 L-2,7 L-2,2 Z " fill="#1B1B1B" transform="translate(11,16)"/>
</svg>
