<?xml version="1.0" encoding="UTF-8"?>
<svg version="1.1" xmlns="http://www.w3.org/2000/svg" width="28" height="28">
<path d="M0,0 L28,0 L28,28 L0,28 Z " fill="#020202" transform="translate(0,0)"/>
<path d="M0,0 L7,0 L9,2 L9,7 L14,8 L16,12 L11,17 L7,18 L0,18 L-4,16 L-3,8 L-4,4 Z " fill="#C4C4C4" transform="translate(10,5)"/>
<path d="M0,0 L7,1 L9,2 L7,6 L3,8 L-6,8 L-7,3 L-5,1 Z " fill="#0A0A0A" transform="translate(15,13)"/>
<path d="M0,0 L3,0 L4,5 L-1,6 L-5,5 L-4,2 Z " fill="#0F0F0F" transform="translate(13,6)"/>
<path d="M0,0 L5,0 L5,2 L1,4 L1,8 L4,11 L-2,9 L-1,2 Z " fill="#E0E0E0" transform="translate(8,12)"/>
</svg>
