<?xml version="1.0" encoding="UTF-8"?>
<svg version="1.1" xmlns="http://www.w3.org/2000/svg" width="28" height="28">
<path d="M0,0 L28,0 L28,28 L0,28 Z " fill="#030303" transform="translate(0,0)"/>
<path d="M0,0 L8,0 L10,2 L9,5 L9,3 L0,3 L-2,9 L3,7 L8,7 L4,10 L0,10 L1,13 L1,20 L-5,20 L-8,17 L-8,12 L-4,9 L-3,2 Z " fill="#D1D1D1" transform="translate(15,5)"/>
<path d="M0,0 L8,0 L10,2 L9,5 L9,3 L0,3 L-2,10 L-4,9 L-3,2 Z " fill="#E0E0E0" transform="translate(15,5)"/>
<path d="M0,0 L4,1 L4,6 L-1,5 Z " fill="#131313" transform="translate(10,17)"/>
<path d="M0,0 L8,0 L10,2 L9,5 L9,3 L0,1 Z " fill="#C9C9C9" transform="translate(15,5)"/>
</svg>
