<?xml version="1.0" encoding="UTF-8"?>
<svg version="1.1" xmlns="http://www.w3.org/2000/svg" width="28" height="28">
<path d="M0,0 L28,0 L28,28 L0,28 Z " fill="#010101" transform="translate(0,0)"/>
<path d="M0,0 L6,1 L8,4 L10,10 L12,12 L11,16 L8,20 L1,19 L0,18 L-2,7 L-1,1 Z " fill="#DCDCDC" transform="translate(10,4)"/>
<path d="M0,0 L2,3 L3,2 L9,2 L10,0 L12,2 L11,6 L8,10 L1,9 L0,8 Z " fill="#D7D7D7" transform="translate(10,14)"/>
<path d="M0,0 L2,3 L2,6 L-4,7 L-6,9 L-7,3 L-1,2 Z " fill="#F1F1F1" transform="translate(17,10)"/>
<path d="M0,0 L6,0 L5,4 L1,5 L-1,4 Z " fill="#070707" transform="translate(13,16)"/>
<path d="M0,0 L4,2 L4,6 L-1,6 L-2,2 Z " fill="#1A1A1A" transform="translate(12,7)"/>
</svg>
