<?xml version="1.0" encoding="UTF-8"?>
<svg version="1.1" xmlns="http://www.w3.org/2000/svg" width="28" height="28">
<path d="M0,0 L28,0 L28,28 L0,28 Z " fill="#030303" transform="translate(0,0)"/>
<path d="M0,0 L7,0 L10,3 L9,8 L6,10 L6,16 L3,20 L-5,20 L-6,19 L-6,12 L-2,11 L-4,8 L-4,3 Z " fill="#E7E7E7" transform="translate(13,4)"/>
<path d="M0,0 L7,0 L10,3 L9,8 L5,6 L8,6 L7,4 L-2,4 L-4,8 L-4,3 Z " fill="#D2D2D2" transform="translate(13,4)"/>
<path d="M0,0 L5,0 L6,3 L3,3 L3,5 L0,6 L-4,3 L-4,1 Z " fill="#0C0C0C" transform="translate(15,7)"/>
<path d="M0,0 L4,0 L4,4 L-2,4 L-3,1 Z " fill="#171717" transform="translate(12,17)"/>
</svg>
