<?xml version="1.0" encoding="UTF-8"?>
<svg version="1.1" xmlns="http://www.w3.org/2000/svg" width="28" height="28">
<path d="M0,0 L28,0 L28,28 L0,28 Z " fill="#010101" transform="translate(0,0)"/>
<path d="M0,0 L7,0 L8,4 L5,7 L7,12 L8,17 L3,20 L-2,19 L-4,17 L-3,11 L-1,7 L-4,5 L-4,2 Z " fill="#DFDFDF" transform="translate(13,5)"/>
<path d="M0,0 L5,4 L4,9 L-2,9 L-3,4 Z " fill="#0F0F0F" transform="translate(14,14)"/>
<path d="M0,0 L7,0 L8,4 L4,7 L-1,5 Z " fill="#C3C3C3" transform="translate(13,5)"/>
<path d="M0,0 L5,0 L3,4 L-2,3 L-2,1 Z " fill="#1B1B1B" transform="translate(14,7)"/>
<path d="M0,0 L4,5 L5,10 L3,9 L0,4 L-1,2 Z " fill="#B1B1B1" transform="translate(16,12)"/>
</svg>
