<?xml version="1.0" encoding="UTF-8"?>
<svg version="1.1" xmlns="http://www.w3.org/2000/svg" width="28" height="28">
<path d="M0,0 L28,0 L28,28 L0,28 Z " fill="#020202" transform="translate(0,0)"/>
<path d="M0,0 L7,0 L6,4 L3,5 L3,7 L-3,9 L-4,15 L-7,19 L-12,19 L-13,13 L-9,9 L-7,9 L-7,7 L-10,6 L-9,3 L-6,1 Z " fill="#D9D9D9" transform="translate(19,6)"/>
<path d="M0,0 L7,0 L6,4 L3,5 L3,7 L1,7 L0,4 L-2,3 Z " fill="#EDEDED" transform="translate(19,6)"/>
<path d="M0,0 L3,0 L3,3 L8,1 L6,6 L1,6 Z " fill="#F6F6F6" transform="translate(6,19)"/>
<path d="M0,0 L2,1 L1,2 L3,4 L1,7 L-1,7 L-1,4 L-3,3 Z " fill="#9B9B9B" transform="translate(10,15)"/>
</svg>
