<?xml version="1.0" encoding="UTF-8"?>
<svg version="1.1" xmlns="http://www.w3.org/2000/svg" width="28" height="28">
<path d="M0,0 L28,0 L28,28 L0,28 Z " fill="#020202" transform="translate(0,0)"/>
<path d="M0,0 L15,0 L16,3 L8,9 L10,13 L11,17 L5,18 L-2,16 L-1,10 L-4,7 L-2,1 Z " fill="#DADADA" transform="translate(10,7)"/>
<path d="M0,0 L12,0 L13,3 L5,9 L2,8 L2,4 L-1,3 Z " fill="#E3E3E3" transform="translate(13,7)"/>
<path d="M0,0 L5,1 L4,5 L0,5 L-1,1 Z " fill="#111111" transform="translate(11,10)"/>
</svg>
