<?xml version="1.0" encoding="UTF-8"?>
<svg version="1.1" xmlns="http://www.w3.org/2000/svg" width="28" height="28">
<path d="M0,0 L28,0 L28,28 L0,28 Z " fill="#030303" transform="translate(0,0)"/>
<path d="M0,0 L7,1 L10,3 L9,11 L11,14 L10,19 L7,20 L0,20 L-2,18 L-1,14 L0,10 L-4,7 L-3,2 Z " fill="#E7E7E7" transform="translate(11,5)"/>
<path d="M0,0 L4,4 L2,6 L-2,6 L-1,1 Z " fill="#1B1B1B" transform="translate(15,17)"/>
<path d="M0,0 L1,3 L6,3 L6,5 L0,5 L-2,2 Z " fill="#F7F7F7" transform="translate(11,20)"/>
<path d="M0,0 L3,1 L4,2 L5,5 L0,4 Z " fill="#2B2B2B" transform="translate(11,8)"/>
</svg>
