<?xml version="1.0" encoding="UTF-8"?>
<svg version="1.1" xmlns="http://www.w3.org/2000/svg" width="28" height="28">
<path d="M0,0 L28,0 L28,28 L0,28 Z " fill="#020202" transform="translate(0,0)"/>
<path d="M0,0 L5,0 L10,2 L9,6 L3,8 L-1,8 L1,17 L-1,20 L-6,19 L-8,16 L-7,10 L-4,7 L-2,1 Z " fill="#E7E7E7" transform="translate(15,6)"/>
<path d="M0,0 L5,0 L6,2 L2,6 L-1,6 L-2,1 Z " fill="#808080" transform="translate(15,6)"/>
<path d="M0,0 L2,1 L2,8 L-2,6 L-1,1 Z " fill="#1C1C1C" transform="translate(11,16)"/>
</svg>
