<?xml version="1.0" encoding="UTF-8"?>
<svg version="1.1" xmlns="http://www.w3.org/2000/svg" width="28" height="28">
<path d="M0,0 L28,0 L28,28 L0,28 Z " fill="#030303" transform="translate(0,0)"/>
<path d="M0,0 L7,1 L8,2 L8,7 L0,9 L0,19 L-7,20 L-7,18 L-9,18 L-8,13 L-4,9 L-3,2 Z " fill="#F2F2F2" transform="translate(15,5)"/>
<path d="M0,0 L4,0 L4,9 L-1,9 L-1,7 L-3,7 L-2,2 Z " fill="#DEDEDE" transform="translate(9,16)"/>
<path d="M0,0 L3,1 L5,2 L4,5 L-2,6 L-3,2 Z " fill="#878787" transform="translate(15,5)"/>
<path d="M0,0 L3,0 L3,5 L-1,6 L-1,1 Z " fill="#222222" transform="translate(10,17)"/>
</svg>
