<?xml version="1.0" encoding="UTF-8"?>
<svg version="1.1" xmlns="http://www.w3.org/2000/svg" width="28" height="28">
<path d="M0,0 L28,0 L28,28 L0,28 Z " fill="#030303" transform="translate(0,0)"/>
<path d="M0,0 L5,0 L8,3 L7,8 L0,11 L0,19 L-1,20 L-6,20 L-8,18 L-7,13 L-5,11 L-3,2 Z " fill="#D9D9D9" transform="translate(15,5)"/>
<path d="M0,0 L4,1 L3,5 L-3,7 L-4,3 Z " fill="#191919" transform="translate(16,7)"/>
<path d="M0,0 L2,1 L1,6 L5,7 L3,8 L3,14 L1,11 L-1,6 L-1,1 Z " fill="#FBFBFB" transform="translate(12,8)"/>
<path d="M0,0 L2,0 L2,6 L-2,5 Z " fill="#232323" transform="translate(11,17)"/>
</svg>
