<?xml version="1.0" encoding="UTF-8"?>
<svg version="1.1" xmlns="http://www.w3.org/2000/svg" width="28" height="28">
<path d="M0,0 L28,0 L28,28 L0,28 Z " fill="#030303" transform="translate(0,0)"/>
<path d="M0,0 L6,0 L8,1 L7,4 L6,3 L-3,4 L-3,7 L3,6 L8,5 L7,7 L3,9 L8,13 L7,18 L5,20 L-1,20 L-3,17 L-4,10 L-7,7 L-6,3 L-4,1 Z " fill="#DADADA" transform="translate(13,5)"/>
<path d="M0,0 L8,2 L11,3 L10,8 L8,10 L2,10 L0,7 Z " fill="#D2D2D2" transform="translate(10,15)"/>
<path d="M0,0 L6,1 L6,5 L5,6 L0,6 Z " fill="#161616" transform="translate(12,16)"/>
</svg>
