<?xml version="1.0" encoding="UTF-8"?>
<svg version="1.1" xmlns="http://www.w3.org/2000/svg" width="28" height="28">
<path d="M0,0 L28,0 L28,28 L0,28 Z " fill="#030303" transform="translate(0,0)"/>
<path d="M0,0 L5,0 L5,2 L1,4 L6,6 L6,2 L6,0 L10,1 L10,6 L8,9 L7,15 L-1,20 L-6,19 L-5,14 L1,9 L-2,5 L-1,1 Z " fill="#E7E7E7" transform="translate(12,5)"/>
<path d="M0,0 L1,0 L1,6 L-7,11 L-11,10 L-8,5 L-2,2 L-2,5 L0,5 Z " fill="#D1D1D1" transform="translate(18,14)"/>
<path d="M0,0 L1,3 L-7,7 L-5,3 Z " fill="#252525" transform="translate(15,16)"/>
<path d="M0,0 L5,0 L5,2 L-1,3 L-2,5 L-1,1 Z " fill="#C3C3C3" transform="translate(12,5)"/>
</svg>
