<?xml version="1.0" encoding="UTF-8"?>
<svg version="1.1" xmlns="http://www.w3.org/2000/svg" width="28" height="28">
<path d="M0,0 L28,0 L28,28 L0,28 Z " fill="#020202" transform="translate(0,0)"/>
<path d="M0,0 L5,1 L6,5 L2,9 L0,10 L2,12 L1,17 L-1,20 L-7,20 L-10,16 L-10,11 L-4,2 Z " fill="#E0E0E0" transform="translate(17,4)"/>
<path d="M0,0 L5,1 L6,5 L2,9 L-1,10 L-1,7 L3,5 L4,2 L0,2 L0,4 L-7,8 L-5,3 Z " fill="#E2E2E2" transform="translate(17,4)"/>
<path d="M0,0 L4,0 L3,4 L-1,6 L-5,5 L-2,2 L0,2 Z " fill="#1E1E1E" transform="translate(17,6)"/>
<path d="M0,0 L5,0 L5,4 L1,6 Z " fill="#161616" transform="translate(10,16)"/>
</svg>
