<?xml version="1.0" encoding="UTF-8"?>
<svg version="1.1" xmlns="http://www.w3.org/2000/svg" width="28" height="28">
<path d="M0,0 L28,0 L28,28 L0,28 Z " fill="#030303" transform="translate(0,0)"/>
<path d="M0,0 L5,0 L8,2 L8,4 L10,4 L13,10 L13,16 L10,17 L10,19 L4,20 L-3,18 L-4,13 L-2,9 L-5,9 L-5,3 Z " fill="#E5E5E5" transform="translate(11,5)"/>
<path d="M0,0 L6,0 L6,5 L2,7 L-5,6 L-3,2 Z " fill="#141414" transform="translate(15,15)"/>
<path d="M0,0 L6,0 L7,3 L-2,3 L-2,1 Z " fill="#282828" transform="translate(11,9)"/>
</svg>
