<?xml version="1.0" encoding="UTF-8"?>
<svg version="1.1" xmlns="http://www.w3.org/2000/svg" width="28" height="28">
<path d="M0,0 L28,0 L28,28 L0,28 Z " fill="#040404" transform="translate(0,0)"/>
<path d="M0,0 L13,0 L16,2 L16,7 L11,11 L13,15 L14,20 L7,20 L4,18 L4,12 L6,12 L0,4 Z " fill="#E8E8E8" transform="translate(6,6)"/>
<path d="M0,0 L6,0 L5,4 L1,6 L-2,3 L-2,1 Z " fill="#141414" transform="translate(13,9)"/>
<path d="M0,0 L6,1 L7,6 L1,6 L1,3 L-1,3 Z " fill="#ABABAB" transform="translate(13,20)"/>
</svg>
