<?xml version="1.0" encoding="UTF-8"?>
<svg version="1.1" xmlns="http://www.w3.org/2000/svg" width="28" height="28">
<path d="M0,0 L28,0 L28,28 L0,28 Z " fill="#020202" transform="translate(0,0)"/>
<path d="M0,0 L7,1 L8,7 L5,10 L5,16 L0,20 L-3,20 L-3,18 L-6,17 L-6,11 L-3,9 Z " fill="#BFBFBF" transform="translate(14,5)"/>
<path d="M0,0 L7,1 L6,5 L2,5 L-1,4 Z " fill="#E9E9E9" transform="translate(14,5)"/>
<path d="M0,0 L3,0 L2,5 L-2,6 L-1,2 Z " fill="#060606" transform="translate(13,16)"/>
</svg>
