<?xml version="1.0" encoding="UTF-8"?>
<svg version="1.1" xmlns="http://www.w3.org/2000/svg" width="28" height="28">
<path d="M0,0 L28,0 L28,28 L0,28 Z " fill="#020202" transform="translate(0,0)"/>
<path d="M0,0 L5,1 L6,6 L3,11 L5,11 L5,18 L2,20 L-3,20 L-4,19 L-3,12 L-6,11 L-6,6 Z " fill="#C3C3C3" transform="translate(14,4)"/>
<path d="M0,0 L1,2 L8,1 L8,3 L6,3 L4,10 L8,9 L9,4 L11,5 L11,10 L8,12 L3,12 L2,11 L3,4 L0,3 Z " fill="#E2E2E2" transform="translate(8,12)"/>
<path d="M0,0 L4,1 L3,5 L-2,8 L-4,8 L-3,3 Z " fill="#0B0B0B" transform="translate(14,6)"/>
<path d="M0,0 L3,1 L2,6 L-2,6 L-1,1 Z " fill="#090909" transform="translate(14,16)"/>
</svg>
