<?xml version="1.0" encoding="UTF-8"?>
<svg version="1.1" xmlns="http://www.w3.org/2000/svg" width="28" height="28">
<path d="M0,0 L28,0 L28,28 L0,28 Z " fill="#010101" transform="translate(0,0)"/>
<path d="M0,0 L6,0 L6,2 L8,3 L2,7 L1,12 L2,17 L-1,20 L-6,19 L-5,13 L-3,9 L-4,3 Z " fill="#C1C1C1" transform="translate(15,5)"/>
<path d="M0,0 L2,0 L1,3 L-3,6 L-6,5 L-4,1 Z " fill="#121212" transform="translate(18,6)"/>
<path d="M0,0 L2,2 L1,7 L-3,7 L-1,1 Z " fill="#101010" transform="translate(13,16)"/>
</svg>
