<?xml version="1.0" encoding="UTF-8"?>
<svg version="1.1" xmlns="http://www.w3.org/2000/svg" width="28" height="28">
<path d="M0,0 L28,0 L28,28 L0,28 Z " fill="#040404" transform="translate(0,0)"/>
<path d="M0,0 L5,1 L8,4 L5,7 L4,10 L9,10 L11,13 L11,18 L9,20 L5,19 L3,15 L9,17 L9,13 L3,12 L2,14 L1,12 L-7,10 L-8,6 L-2,1 Z " fill="#CDCDCD" transform="translate(12,5)"/>
<path d="M0,0 L4,2 L1,5 L0,8 L5,8 L7,11 L7,16 L5,18 L1,17 L-1,13 L5,15 L5,11 L-1,10 L-2,12 L-5,8 L-2,8 L-1,3 Z " fill="#E4E4E4" transform="translate(16,7)"/>
<path d="M0,0 L2,1 L0,6 L-1,7 L-7,7 L-7,3 Z " fill="#121212" transform="translate(14,7)"/>
<path d="M0,0 L6,1 L6,5 L2,4 L0,3 Z " fill="#1A1A1A" transform="translate(15,17)"/>
</svg>
