<?xml version="1.0" encoding="UTF-8"?>
<svg version="1.1" xmlns="http://www.w3.org/2000/svg" width="28" height="28">
<path d="M0,0 L28,0 L28,28 L0,28 Z " fill="#020202" transform="translate(0,0)"/>
<path d="M0,0 L4,1 L5,2 L5,8 L3,9 L5,14 L6,19 L5,20 L0,20 L-4,15 L-3,10 L-2,9 L-1,1 Z " fill="#D4D4D4" transform="translate(13,4)"/>
<path d="M0,0 L4,1 L5,2 L5,8 L2,9 L2,7 L0,7 Z " fill="#C7C7C7" transform="translate(13,4)"/>
<path d="M0,0 L2,0 L4,4 L3,8 L-2,8 L-2,6 L2,6 L0,3 Z " fill="#DEDEDE" transform="translate(15,16)"/>
<path d="M0,0 L3,1 L4,5 L0,4 Z " fill="#0D0D0D" transform="translate(12,16)"/>
</svg>
