<?xml version="1.0" encoding="UTF-8"?>
<svg version="1.1" xmlns="http://www.w3.org/2000/svg" width="28" height="28">
<path d="M0,0 L28,0 L28,28 L0,28 Z " fill="#020202" transform="translate(0,0)"/>
<path d="M0,0 L8,0 L8,5 L1,9 L2,18 L0,20 L-10,20 L-11,19 L-11,14 L-7,11 L-7,4 L-2,1 Z " fill="#DADADA" transform="translate(16,5)"/>
<path d="M0,0 L1,2 L4,3 L-2,6 L-2,8 L6,8 L7,5 L8,9 L6,11 L-4,11 L-5,10 L-5,5 Z " fill="#D1D1D1" transform="translate(10,14)"/>
<path d="M0,0 L5,1 L5,5 L3,6 L-3,6 L-3,2 Z " fill="#070707" transform="translate(11,17)"/>
<path d="M0,0 L5,0 L3,4 L-1,6 L-5,5 L-3,1 Z " fill="#171717" transform="translate(16,7)"/>
<path d="M0,0 L8,0 L8,5 L1,9 L-1,11 L-1,9 L-4,8 L3,5 L5,1 L0,1 Z " fill="#C5C5C5" transform="translate(16,5)"/>
<path d="M0,0 L5,1 L5,3 L8,4 L8,9 L4,4 L1,3 Z " fill="#F4F4F4" transform="translate(10,13)"/>
</svg>
