<?xml version="1.0" encoding="UTF-8"?>
<svg version="1.1" xmlns="http://www.w3.org/2000/svg" width="28" height="28">
<path d="M0,0 L28,0 L28,28 L0,28 Z " fill="#010101" transform="translate(0,0)"/>
<path d="M0,0 L4,0 L5,7 L0,14 L-1,20 L-6,20 L-9,17 L-7,13 L-3,11 L-2,2 Z " fill="#DBDBDB" transform="translate(16,4)"/>
<path d="M0,0 L4,1 L4,6 L-1,4 L-3,5 L-1,1 Z " fill="#919191" transform="translate(10,16)"/>
<path d="M0,0 L1,0 L1,6 L-4,6 L-6,2 L-4,1 L-4,3 L0,4 Z " fill="#EDEDED" transform="translate(14,18)"/>
<path d="M0,0 L2,1 L2,3 L1,8 L-1,8 L-2,2 Z " fill="#757575" transform="translate(16,4)"/>
</svg>
