<?xml version="1.0" encoding="UTF-8"?>
<svg version="1.1" xmlns="http://www.w3.org/2000/svg" width="28" height="28">
<path d="M0,0 L28,0 L28,28 L0,28 Z " fill="#020202" transform="translate(0,0)"/>
<path d="M0,0 L6,0 L7,1 L9,13 L4,18 L1,20 L-4,20 L-5,19 L-4,12 L-1,2 Z " fill="#101010" transform="translate(13,4)"/>
<path d="M0,0 L6,0 L7,1 L9,13 L4,18 L1,20 L-4,20 L-5,19 L-4,12 L-1,2 Z M3,1 L-1,6 L-1,10 L1,10 L1,12 L-2,12 L-3,18 L3,17 L7,13 L6,3 Z " fill="#D6D6D6" transform="translate(13,4)"/>
<path d="M0,0 L3,2 L3,7 L0,10 L-4,8 L-3,4 Z " fill="#BBBBBB" transform="translate(16,5)"/>
<path d="M0,0 L1,4 L2,8 L-1,8 L-2,12 L-4,12 L-1,1 Z " fill="#F2F2F2" transform="translate(12,8)"/>
<path d="M0,0 L6,0 L7,1 L7,8 L5,5 L4,2 L0,5 L-1,2 Z " fill="#BFBFBF" transform="translate(13,4)"/>
<path d="M0,0 L3,2 L2,5 L-3,6 L-1,1 Z " fill="#101010" transform="translate(16,5)"/>
</svg>
