<?xml version="1.0" encoding="UTF-8"?>
<svg version="1.1" xmlns="http://www.w3.org/2000/svg" width="28" height="28">
<path d="M0,0 L28,0 L28,28 L0,28 Z " fill="#020202" transform="translate(0,0)"/>
<path d="M0,0 L2,0 L0,6 L-2,6 L-4,11 L-2,14 L-3,19 L-8,20 L-11,19 L-11,14 L-9,10 L-11,10 L-11,4 L-8,2 L-4,3 L-3,4 Z " fill="#E9E9E9" transform="translate(20,4)"/>
<path d="M0,0 L2,0 L0,6 L-2,6 L-3,9 L-8,9 L-8,5 L-3,4 Z " fill="#949494" transform="translate(20,4)"/>
<path d="M0,0 L3,0 L3,2 L6,1 L5,6 L0,7 L-1,2 Z " fill="#929292" transform="translate(12,17)"/>
</svg>
