<?xml version="1.0" encoding="UTF-8"?>
<svg version="1.1" xmlns="http://www.w3.org/2000/svg" width="28" height="28">
<path d="M0,0 L28,0 L28,28 L0,28 Z " fill="#030303" transform="translate(0,0)"/>
<path d="M0,0 L9,0 L12,1 L12,3 L2,3 L1,5 L11,5 L11,7 L6,7 L9,12 L8,19 L1,20 L-4,17 L-4,12 L-1,8 L1,8 L-3,4 L-2,1 Z " fill="#D6D6D6" transform="translate(11,5)"/>
<path d="M0,0 L3,1 L1,3 L1,6 L7,7 L8,3 L7,0 L11,2 L10,9 L3,10 L-2,7 L-2,2 Z " fill="#E4E4E4" transform="translate(9,15)"/>
<path d="M0,0 L4,1 L6,3 L5,7 L0,8 L-3,6 L-2,2 Z " fill="#0D0D0D" transform="translate(12,15)"/>
</svg>
