<?xml version="1.0" encoding="UTF-8"?>
<svg version="1.1" xmlns="http://www.w3.org/2000/svg" width="28" height="28">
<path d="M0,0 L28,0 L28,28 L0,28 Z " fill="#020202" transform="translate(0,0)"/>
<path d="M0,0 L4,1 L1,2 L2,6 L7,5 L5,9 L3,9 L5,16 L2,20 L-3,19 L-5,16 L-4,11 L-2,9 L-1,1 Z " fill="#E1E1E1" transform="translate(14,4)"/>
<path d="M0,0 L4,1 L1,3 L3,7 L5,8 L5,2 L8,4 L6,9 L1,10 L-2,6 L-1,1 Z " fill="#E2E2E2" transform="translate(11,14)"/>
<path d="M0,0 L3,1 L3,7 L-1,5 L-1,1 Z " fill="#191919" transform="translate(13,15)"/>
</svg>
