<?xml version="1.0" encoding="UTF-8"?>
<svg version="1.1" xmlns="http://www.w3.org/2000/svg" width="28" height="28">
<path d="M0,0 L28,0 L28,28 L0,28 Z " fill="#010101" transform="translate(0,0)"/>
<path d="M0,0 L4,0 L1,12 L3,14 L2,18 L0,20 L-4,20 L-2,12 L-7,10 L-8,5 Z " fill="#E5E5E5" transform="translate(16,5)"/>
<path d="M0,0 L3,2 L2,6 L0,8 L-4,8 L-3,2 Z " fill="#E1E1E1" transform="translate(16,17)"/>
<path d="M0,0 L2,0 L0,9 L-5,6 L-3,2 Z " fill="#101010" transform="translate(15,7)"/>
<path d="M0,0 L2,0 L1,5 L4,7 L4,9 L-1,7 L-2,2 Z " fill="#C2C2C2" transform="translate(10,8)"/>
<path d="M0,0 L3,2 L3,5 L-2,6 Z " fill="#8C8C8C" transform="translate(16,17)"/>
</svg>
