<?xml version="1.0" encoding="UTF-8"?>
<svg version="1.1" xmlns="http://www.w3.org/2000/svg" width="28" height="28">
<path d="M0,0 L28,0 L28,28 L0,28 Z " fill="#020202" transform="translate(0,0)"/>
<path d="M0,0 L6,0 L9,3 L8,7 L5,9 L6,17 L3,20 L-4,19 L-3,13 L-1,10 L-5,9 L-2,2 Z " fill="#EDEDED" transform="translate(13,4)"/>
<path d="M0,0 L6,0 L9,3 L9,5 L4,7 L0,9 L-3,5 L-1,1 Z " fill="#CACACA" transform="translate(13,4)"/>
<path d="M0,0 L3,1 L3,4 L5,5 L2,8 L-5,7 L-5,3 Z " fill="#E5E5E5" transform="translate(14,16)"/>
<path d="M0,0 L5,1 L3,5 L-1,7 L-1,1 Z " fill="#0F0F0F" transform="translate(14,6)"/>
<path d="M0,0 L3,1 L2,5 L-2,6 L-1,1 Z " fill="#313131" transform="translate(14,16)"/>
</svg>
