<?xml version="1.0" encoding="UTF-8"?>
<svg version="1.1" xmlns="http://www.w3.org/2000/svg" width="28" height="28">
<path d="M0,0 L28,0 L28,28 L0,28 Z " fill="#040404" transform="translate(0,0)"/>
<path d="M0,0 L4,0 L8,4 L9,10 L13,12 L13,17 L11,19 L7,20 L0,20 L-2,18 L-2,12 L-6,10 L-4,3 Z " fill="#D4D4D4" transform="translate(11,4)"/>
<path d="M0,0 L4,0 L8,4 L8,8 L-2,10 L-6,10 L-4,3 Z " fill="#D1D1D1" transform="translate(11,4)"/>
<path d="M0,0 L7,0 L9,1 L8,6 L7,7 L-1,7 L-2,2 Z " fill="#0F0F0F" transform="translate(13,15)"/>
<path d="M0,0 L8,0 L10,4 L1,6 L0,1 Z " fill="#0F0F0F" transform="translate(8,8)"/>
<path d="M0,0 L5,0 L5,2 L-3,5 L-5,6 L-5,2 Z " fill="#ECECEC" transform="translate(15,12)"/>
<path d="M0,0 L1,3 L0,7 L-3,8 L-1,1 Z " fill="#838383" transform="translate(8,6)"/>
</svg>
