<?xml version="1.0" encoding="UTF-8"?>
<svg version="1.1" xmlns="http://www.w3.org/2000/svg" width="28" height="28">
<path d="M0,0 L28,0 L28,28 L0,28 Z " fill="#010101" transform="translate(0,0)"/>
<path d="M0,0 L4,1 L6,5 L3,12 L5,16 L5,20 L-2,19 L-3,18 L-3,13 L-3,10 L-4,4 Z " fill="#B5B5B5" transform="translate(14,5)"/>
<path d="M0,0 L4,0 L2,5 L-2,5 L-2,1 Z " fill="#191919" transform="translate(14,8)"/>
<path d="M0,0 L3,1 L1,2 L3,8 L0,8 L-1,2 Z " fill="#CACACA" transform="translate(11,7)"/>
</svg>
