<?xml version="1.0" encoding="UTF-8"?>
<svg version="1.1" xmlns="http://www.w3.org/2000/svg" width="28" height="28">
<path d="M0,0 L28,0 L28,28 L0,28 Z " fill="#000000" transform="translate(0,0)"/>
<path d="M0,0 L6,0 L7,5 L4,9 L6,13 L7,17 L4,20 L-2,20 L-5,17 L-3,12 L-3,9 L-5,7 L-4,2 Z " fill="#E7E7E7" transform="translate(13,5)"/>
<path d="M0,0 L3,1 L4,5 L-2,5 L-1,1 Z " fill="#101010" transform="translate(13,17)"/>
<path d="M0,0 L5,0 L3,5 L-1,4 Z " fill="#0E0E0E" transform="translate(12,8)"/>
</svg>
