<?xml version="1.0" encoding="UTF-8"?>
<svg version="1.1" xmlns="http://www.w3.org/2000/svg" width="28" height="28">
<path d="M0,0 L28,0 L28,28 L0,28 Z " fill="#010101" transform="translate(0,0)"/>
<path d="M0,0 L6,0 L7,7 L3,11 L2,19 L-3,20 L-4,14 L-3,13 L-3,4 L-5,4 L-5,2 Z " fill="#C7C7C7" transform="translate(14,5)"/>
<path d="M0,0 L4,1 L3,6 L-2,7 L-2,2 Z " fill="#1A1A1A" transform="translate(15,7)"/>
<path d="M0,0 L2,1 L0,4 L-1,12 L-2,12 L-3,4 L-5,4 L-5,2 Z " fill="#B6B6B6" transform="translate(14,5)"/>
</svg>
