<?xml version="1.0" encoding="UTF-8"?>
<svg version="1.1" xmlns="http://www.w3.org/2000/svg" width="28" height="28">
<path d="M0,0 L28,0 L28,28 L0,28 Z " fill="#020202" transform="translate(0,0)"/>
<path d="M0,0 L6,0 L9,3 L7,7 L-2,11 L-4,18 L-9,18 L-11,16 L-10,12 L-7,10 L-3,2 Z " fill="#EDEDED" transform="translate(16,6)"/>
<path d="M0,0 L6,0 L9,3 L7,7 L1,9 L1,6 L4,5 L5,3 L0,3 Z " fill="#DBDBDB" transform="translate(16,6)"/>
<path d="M0,0 L4,1 L2,4 L-5,6 L-3,1 Z " fill="#181818" transform="translate(18,8)"/>
<path d="M0,0 L4,1 L3,5 L1,5 L0,3 L-2,5 L-1,1 Z " fill="#8A8A8A" transform="translate(7,17)"/>
</svg>
