<?xml version="1.0" encoding="UTF-8"?>
<svg version="1.1" xmlns="http://www.w3.org/2000/svg" width="28" height="28">
<path d="M0,0 L28,0 L28,28 L0,28 Z " fill="#020202" transform="translate(0,0)"/>
<path d="M0,0 L5,1 L5,5 L2,7 L3,11 L5,12 L5,18 L-2,20 L-3,19 L-3,2 L0,2 Z " fill="#F0F0F0" transform="translate(14,5)"/>
<path d="M0,0 L2,2 L5,1 L7,2 L7,8 L0,10 L-1,9 Z " fill="#E6E6E6" transform="translate(12,15)"/>
<path d="M0,0 L5,1 L5,5 L-1,5 L-1,3 L-3,2 L0,2 Z " fill="#CACACA" transform="translate(14,5)"/>
<path d="M0,0 L1,3 L4,3 L4,7 L-1,7 Z " fill="#818181" transform="translate(12,15)"/>
</svg>
