<?xml version="1.0" encoding="UTF-8"?>
<svg version="1.1" xmlns="http://www.w3.org/2000/svg" width="28" height="28">
<path d="M0,0 L28,0 L28,28 L0,28 Z " fill="#010101" transform="translate(0,0)"/>
<path d="M0,0 L4,1 L4,7 L1,11 L2,15 L-3,19 L-8,20 L-7,15 L-5,12 L-3,12 L-5,9 L-4,4 L0,3 Z " fill="#C0C0C0" transform="translate(16,4)"/>
<path d="M0,0 L3,1 L2,5 L0,4 L-2,10 L-5,9 L-4,4 L0,3 Z " fill="#E7E7E7" transform="translate(16,4)"/>
<path d="M0,0 L1,0 L1,6 L-5,8 L-3,3 L-1,3 Z " fill="#7C7C7C" transform="translate(19,5)"/>
<path d="M0,0 L2,1 L-4,5 L-6,5 L-5,1 Z " fill="#F2F2F2" transform="translate(15,19)"/>
</svg>
