<?xml version="1.0" encoding="UTF-8"?>
<svg version="1.1" xmlns="http://www.w3.org/2000/svg" width="28" height="28">
<path d="M0,0 L28,0 L28,28 L0,28 Z " fill="#010101" transform="translate(0,0)"/>
<path d="M0,0 L9,1 L8,6 L6,8 L7,18 L4,20 L-3,19 L-4,15 L0,10 L-5,9 L-5,4 L-3,4 L-3,2 Z " fill="#CECECE" transform="translate(12,5)"/>
<path d="M0,0 L7,0 L5,5 L3,7 L-3,6 L-3,3 Z " fill="#131313" transform="translate(12,7)"/>
<path d="M0,0 L2,0 L3,6 L2,7 L-3,7 L-3,4 Z " fill="#0D0D0D" transform="translate(14,16)"/>
<path d="M0,0 L5,0 L4,4 L4,2 L-1,4 L-3,7 L-1,9 L-4,10 L-5,9 L-5,4 L-3,4 L-3,2 Z " fill="#AEAEAE" transform="translate(12,5)"/>
<path d="M0,0 L7,0 L7,2 L3,6 L1,6 L3,1 Z " fill="#F1F1F1" transform="translate(9,14)"/>
</svg>
