<?xml version="1.0" encoding="UTF-8"?>
<svg version="1.1" xmlns="http://www.w3.org/2000/svg" width="28" height="28">
<path d="M0,0 L28,0 L28,28 L0,28 Z " fill="#030303" transform="translate(0,0)"/>
<path d="M0,0 L1,0 L1,6 L-3,10 L-8,11 L-8,7 L-3,2 Z " fill="#BBBBBB" transform="translate(18,13)"/>
<path d="M0,0 L2,0 L2,2 L-3,6 L-4,8 L1,5 L3,1 L5,2 L2,8 L-1,10 L-6,10 L-6,5 Z " fill="#EEEEEE" transform="translate(16,4)"/>
<path d="M0,0 L2,0 L2,2 L-3,6 L-5,6 L-6,10 L-6,5 Z " fill="#CACACA" transform="translate(16,4)"/>
<path d="M0,0 L3,1 L-1,6 L-4,6 L-2,2 Z " fill="#2B2B2B" transform="translate(16,6)"/>
</svg>
