<?xml version="1.0" encoding="UTF-8"?>
<svg version="1.1" xmlns="http://www.w3.org/2000/svg" width="28" height="28">
<path d="M0,0 L28,0 L28,28 L0,28 Z " fill="#020202" transform="translate(0,0)"/>
<path d="M0,0 L6,0 L9,2 L8,7 L6,10 L9,13 L8,19 L7,20 L2,20 L-1,16 L0,9 L-3,8 L-2,3 Z " fill="#E9E9E9" transform="translate(11,5)"/>
<path d="M0,0 L2,0 L4,4 L7,4 L8,2 L10,2 L9,7 L8,8 L3,8 L0,4 Z " fill="#EAEAEA" transform="translate(10,17)"/>
<path d="M0,0 L4,1 L4,5 L0,4 Z " fill="#0B0B0B" transform="translate(13,17)"/>
<path d="M0,0 L4,0 L2,4 L-1,5 Z " fill="#181818" transform="translate(13,8)"/>
</svg>
