<?xml version="1.0" encoding="UTF-8"?>
<svg version="1.1" xmlns="http://www.w3.org/2000/svg" width="28" height="28">
<path d="M0,0 L28,0 L28,28 L0,28 Z " fill="#020202" transform="translate(0,0)"/>
<path d="M0,0 L4,0 L5,4 L-1,8 L0,17 L-6,20 L-10,20 L-11,15 L-7,10 L-8,4 L-4,1 Z " fill="#BEBEBE" transform="translate(18,5)"/>
<path d="M0,0 L2,0 L3,5 L-4,6 L-2,2 Z " fill="#141414" transform="translate(13,16)"/>
<path d="M0,0 L2,0 L3,2 L7,0 L11,1 L7,4 L5,4 L5,6 L2,6 Z " fill="#EEEEEE" transform="translate(10,9)"/>
<path d="M0,0 L3,4 L0,5 L0,3 L-4,6 L-7,5 L-4,2 L0,2 Z " fill="#C3C3C3" transform="translate(15,13)"/>
</svg>
