<?xml version="1.0" encoding="UTF-8"?>
<svg version="1.1" xmlns="http://www.w3.org/2000/svg" width="28" height="28">
<path d="M0,0 L28,0 L28,28 L0,28 Z " fill="#020202" transform="translate(0,0)"/>
<path d="M0,0 L2,0 L2,3 L10,2 L11,7 L5,11 L3,18 L0,20 L-5,19 L-5,15 L-1,11 L1,11 L-1,4 Z " fill="#E3E3E3" transform="translate(12,5)"/>
<path d="M0,0 L2,0 L2,3 L10,2 L8,7 L2,8 L1,10 L-1,4 Z " fill="#C5C5C5" transform="translate(12,5)"/>
<path d="M0,0 L4,1 L2,7 L-3,9 L-5,5 Z " fill="#CBCBCB" transform="translate(11,16)"/>
<path d="M0,0 L3,1 L1,5 L-3,5 L-1,1 Z " fill="#191919" transform="translate(12,18)"/>
<path d="M0,0 L4,0 L3,3 L-2,4 L-2,1 Z " fill="#222222" transform="translate(17,9)"/>
</svg>
