<?xml version="1.0" encoding="UTF-8"?>
<svg version="1.1" xmlns="http://www.w3.org/2000/svg" width="28" height="28">
<path d="M0,0 L28,0 L28,28 L0,28 Z " fill="#010101" transform="translate(0,0)"/>
<path d="M0,0 L7,0 L8,1 L7,8 L5,15 L4,18 L0,20 L-6,20 L-6,13 L-3,10 L-2,2 Z " fill="#DCDCDC" transform="translate(14,4)"/>
<path d="M0,0 L2,1 L0,4 L7,4 L4,7 L-2,7 L-2,2 Z " fill="#EAEAEA" transform="translate(10,17)"/>
<path d="M0,0 L3,0 L2,5 L-4,5 L-2,1 Z " fill="#1F1F1F" transform="translate(14,16)"/>
<path d="M0,0 L5,0 L4,4 L0,6 L-1,1 Z " fill="#0F0F0F" transform="translate(15,6)"/>
</svg>
