<?xml version="1.0" encoding="UTF-8"?>
<svg version="1.1" xmlns="http://www.w3.org/2000/svg" width="28" height="28">
<path d="M0,0 L28,0 L28,28 L0,28 Z " fill="#030303" transform="translate(0,0)"/>
<path d="M0,0 L6,1 L6,6 L1,9 L-1,16 L-4,19 L-9,20 L-10,16 L-8,10 L-4,8 L-4,3 Z " fill="#D5D5D5" transform="translate(17,5)"/>
<path d="M0,0 L0,3 L-3,6 L-8,7 L-9,3 L-5,3 Z " fill="#EBEBEB" transform="translate(16,18)"/>
<path d="M0,0 L3,1 L1,5 L-2,6 L-1,1 Z " fill="#2B2B2B" transform="translate(12,16)"/>
</svg>
