<?xml version="1.0" encoding="UTF-8"?>
<svg version="1.1" xmlns="http://www.w3.org/2000/svg" width="28" height="28">
<path d="M0,0 L28,0 L28,28 L0,28 Z " fill="#020202" transform="translate(0,0)"/>
<path d="M0,0 L6,1 L6,5 L1,9 L2,13 L2,20 L0,20 L-4,11 L-3,7 L-1,4 L1,5 Z " fill="#AAAAAA" transform="translate(14,6)"/>
<path d="M0,0 L2,4 L4,4 L4,11 L2,11 L-1,3 Z " fill="#BDBDBD" transform="translate(12,15)"/>
<path d="M0,0 L1,2 L3,2 L3,9 L1,7 L-2,7 L-1,3 Z " fill="#E4E4E4" transform="translate(12,10)"/>
<path d="M0,0 L6,1 L6,5 L5,2 L2,2 L1,4 Z " fill="#EAEAEA" transform="translate(14,6)"/>
</svg>
