<?xml version="1.0" encoding="UTF-8"?>
<svg version="1.1" xmlns="http://www.w3.org/2000/svg" width="28" height="28">
<path d="M0,0 L28,0 L28,28 L0,28 Z " fill="#020202" transform="translate(0,0)"/>
<path d="M0,0 L8,1 L7,5 L1,13 L-2,20 L-10,20 L-9,14 L-5,11 L-3,11 L-4,6 Z " fill="#BFBFBF" transform="translate(16,4)"/>
<path d="M0,0 L8,1 L7,5 L4,6 L4,4 L-1,5 L-1,1 Z " fill="#CCCCCC" transform="translate(16,4)"/>
<path d="M0,0 L2,0 L1,6 L-7,6 L-6,1 L0,3 Z " fill="#E2E2E2" transform="translate(13,18)"/>
<path d="M0,0 L4,1 L0,6 L-2,6 L-1,1 Z " fill="#212121" transform="translate(17,7)"/>
<path d="M0,0 L6,0 L5,4 L2,5 L3,1 Z " fill="#F2F2F2" transform="translate(18,5)"/>
</svg>
