<?xml version="1.0" encoding="UTF-8"?>
<svg version="1.1" xmlns="http://www.w3.org/2000/svg" width="28" height="28">
<path d="M0,0 L28,0 L28,28 L0,28 Z " fill="#020202" transform="translate(0,0)"/>
<path d="M0,0 L9,0 L8,4 L2,9 L-2,9 L-2,16 L-5,20 L-7,20 L-7,18 L-11,16 L-10,12 L-7,9 L-5,9 L-5,3 Z " fill="#CCCCCC" transform="translate(16,6)"/>
<path d="M0,0 L4,0 L6,6 L4,9 L2,9 L2,7 L-2,5 L-1,1 Z " fill="#A0A0A0" transform="translate(7,17)"/>
<path d="M0,0 L1,4 L4,5 L2,5 L2,12 L0,12 L-1,7 L-4,6 L-1,4 Z " fill="#EAEAEA" transform="translate(12,10)"/>
<path d="M0,0 L4,0 L3,4 L-2,7 L-2,5 L0,4 L-4,1 Z " fill="#E7E7E7" transform="translate(21,6)"/>
<path d="M0,0 L5,0 L2,3 L-3,4 L-3,1 Z " fill="#1E1E1E" transform="translate(17,9)"/>
</svg>
