<?xml version="1.0" encoding="UTF-8"?>
<svg version="1.1" xmlns="http://www.w3.org/2000/svg" width="28" height="28">
<path d="M0,0 L28,0 L28,28 L0,28 Z " fill="#030303" transform="translate(0,0)"/>
<path d="M0,0 L14,0 L14,4 L11,9 L17,11 L18,12 L18,17 L13,20 L8,19 L5,17 L4,12 L4,8 L-1,4 Z " fill="#DFDFDF" transform="translate(6,6)"/>
<path d="M0,0 L6,2 L8,6 L7,7 L1,7 L-1,4 Z " fill="#0D0D0D" transform="translate(14,16)"/>
<path d="M0,0 L3,0 L1,5 L-4,3 L-4,1 Z " fill="#323232" transform="translate(14,8)"/>
</svg>
