<?xml version="1.0" encoding="UTF-8"?>
<svg version="1.1" xmlns="http://www.w3.org/2000/svg" width="28" height="28">
<path d="M0,0 L28,0 L28,28 L0,28 Z " fill="#030303" transform="translate(0,0)"/>
<path d="M0,0 L7,0 L8,3 L-1,5 L-3,6 L-3,10 L2,9 L9,4 L9,7 L4,12 L2,12 L2,14 L5,15 L4,20 L-2,20 L-4,18 L-4,13 L-6,11 L-6,5 L-3,1 Z " fill="#C7C7C7" transform="translate(14,4)"/>
<path d="M0,0 L4,0 L2,4 L8,4 L7,8 L1,8 L-1,6 Z " fill="#EFEFEF" transform="translate(11,16)"/>
<path d="M0,0 L7,0 L8,3 L-1,5 L-4,6 L-2,2 Z " fill="#DCDCDC" transform="translate(14,4)"/>
<path d="M0,0 L4,2 L3,4 L-3,4 Z " fill="#888888" transform="translate(15,17)"/>
</svg>
