<?xml version="1.0" encoding="UTF-8"?>
<svg version="1.1" xmlns="http://www.w3.org/2000/svg" width="28" height="28">
<path d="M0,0 L28,0 L28,28 L0,28 Z " fill="#020202" transform="translate(0,0)"/>
<path d="M0,0 L8,0 L10,1 L10,4 L8,4 L7,9 L6,11 L6,17 L2,20 L-3,19 L-2,12 L-1,11 L-6,7 L-6,3 Z " fill="#E2E2E2" transform="translate(13,6)"/>
<path d="M0,0 L4,0 L3,5 L0,7 L-5,5 L-5,2 Z " fill="#181818" transform="translate(15,8)"/>
<path d="M0,0 L2,1 L2,3 L4,3 L2,7 L-1,8 L-1,6 L-3,6 L-2,2 Z " fill="#7D7D7D" transform="translate(15,18)"/>
</svg>
