<?xml version="1.0" encoding="UTF-8"?>
<svg version="1.1" xmlns="http://www.w3.org/2000/svg" width="28" height="28">
<path d="M0,0 L28,0 L28,28 L0,28 Z " fill="#020202" transform="translate(0,0)"/>
<path d="M0,0 L2,0 L1,5 L4,3 L4,6 L1,10 L5,14 L4,19 L-1,20 L-4,17 L-4,14 L-9,13 L-8,6 Z " fill="#A5A5A5" transform="translate(16,4)"/>
<path d="M0,0 L2,0 L1,5 L4,3 L4,6 L0,10 L-2,10 L-1,6 L-6,9 L-7,11 L-3,12 L-4,13 L-9,13 L-8,6 Z " fill="#E8E8E8" transform="translate(16,4)"/>
<path d="M0,0 L1,2 L7,0 L7,4 L2,5 L0,4 Z " fill="#EBEBEB" transform="translate(13,19)"/>
<path d="M0,0 L2,2 L-3,7 L-5,7 L-4,3 L-6,2 L-1,1 Z " fill="#D1D1D1" transform="translate(19,7)"/>
<path d="M0,0 L3,0 L1,5 L-3,5 L-1,1 Z " fill="#222222" transform="translate(12,10)"/>
</svg>
