<?xml version="1.0" encoding="UTF-8"?>
<svg version="1.1" xmlns="http://www.w3.org/2000/svg" width="28" height="28">
<path d="M0,0 L28,0 L28,28 L0,28 Z " fill="#030303" transform="translate(0,0)"/>
<path d="M0,0 L7,0 L8,4 L10,4 L9,7 L7,7 L9,15 L6,19 L0,20 L-1,19 L-1,13 L1,7 L-4,6 L-5,2 Z " fill="#DADADA" transform="translate(12,5)"/>
<path d="M0,0 L3,0 L3,2 L8,2 L8,6 L1,6 L-2,4 L-2,1 Z " fill="#D4D4D4" transform="translate(9,6)"/>
<path d="M0,0 L2,1 L0,6 L-7,8 L-8,4 L-6,3 L-6,5 L-1,3 Z " fill="#E8E8E8" transform="translate(19,17)"/>
<path d="M0,0 L2,0 L2,2 L4,2 L2,6 L-2,5 Z " fill="#1D1D1D" transform="translate(15,16)"/>
<path d="M0,0 L6,0 L6,4 L1,2 Z " fill="#191919" transform="translate(11,8)"/>
</svg>
