<?xml version="1.0" encoding="UTF-8"?>
<svg version="1.1" xmlns="http://www.w3.org/2000/svg" width="28" height="28">
<path d="M0,0 L28,0 L28,28 L0,28 Z " fill="#020202" transform="translate(0,0)"/>
<path d="M0,0 L6,1 L13,2 L12,5 L1,11 L6,16 L5,19 L-2,19 L-5,17 L-4,11 L-7,10 L-6,4 Z " fill="#BABABA" transform="translate(13,5)"/>
<path d="M0,0 L6,0 L7,2 L-1,7 L-4,6 L-2,1 Z " fill="#121212" transform="translate(12,8)"/>
<path d="M0,0 L2,0 L1,3 L-2,6 L-2,8 L2,10 L1,12 L-2,12 L-2,10 L-5,9 L-4,3 Z " fill="#EAEAEA" transform="translate(11,6)"/>
</svg>
