<?xml version="1.0" encoding="UTF-8"?>
<svg version="1.1" xmlns="http://www.w3.org/2000/svg" width="28" height="28">
<path d="M0,0 L28,0 L28,28 L0,28 Z " fill="#020202" transform="translate(0,0)"/>
<path d="M0,0 L2,1 L-3,6 L-6,9 L-8,9 L-7,19 L-8,20 L-17,19 L-16,14 L-14,9 L-15,6 L-14,4 L-12,4 L-12,2 L-10,1 Z " fill="#D8D8D8" transform="translate(24,5)"/>
<path d="M0,0 L2,1 L-3,6 L-6,9 L-10,8 L-6,5 L-4,5 L-4,3 L-11,5 L-12,11 L-15,8 L-14,4 L-12,4 L-12,2 L-10,1 Z " fill="#CFCFCF" transform="translate(24,5)"/>
<path d="M0,0 L2,1 L1,4 L7,5 L7,7 L-2,6 L-1,1 Z " fill="#F2F2F2" transform="translate(9,18)"/>
<path d="M0,0 L5,0 L5,2 L-1,6 L-3,6 L-2,1 Z " fill="#1F1F1F" transform="translate(15,8)"/>
<path d="M0,0 L2,0 L3,5 L-2,4 L-2,1 Z " fill="#292929" transform="translate(12,18)"/>
</svg>
