<?xml version="1.0" encoding="UTF-8"?>
<svg version="1.1" xmlns="http://www.w3.org/2000/svg" width="28" height="28">
<path d="M0,0 L28,0 L28,28 L0,28 Z " fill="#030303" transform="translate(0,0)"/>
<path d="M0,0 L4,1 L4,3 L-4,9 L-6,10 L-6,16 L-9,18 L-14,18 L-13,11 L-11,9 L-16,5 L-16,2 Z " fill="#EDEDED" transform="translate(22,7)"/>
<path d="M0,0 L4,1 L4,3 L-4,9 L-5,7 L-9,8 L-10,4 L-6,4 L-6,2 L-8,1 Z " fill="#E1E1E1" transform="translate(22,7)"/>
<path d="M0,0 L2,0 L2,2 L4,2 L4,4 L1,6 L-4,6 L-2,2 L0,2 Z M0,3 Z " fill="#BCBCBC" transform="translate(12,19)"/>
<path d="M0,0 L2,0 L2,2 L-3,5 L-6,4 L-6,1 Z " fill="#252525" transform="translate(18,10)"/>
</svg>
