<?xml version="1.0" encoding="UTF-8"?>
<svg version="1.1" xmlns="http://www.w3.org/2000/svg" width="28" height="28">
<path d="M0,0 L28,0 L28,28 L0,28 Z " fill="#030303" transform="translate(0,0)"/>
<path d="M0,0 L10,0 L12,2 L8,6 L1,9 L2,14 L-1,16 L-6,16 L-7,13 L-5,9 L-8,6 L-7,3 Z " fill="#D5D5D5" transform="translate(14,8)"/>
<path d="M0,0 L3,2 L-1,6 L-8,9 L-7,14 L-10,16 L-15,16 L-16,13 L-13,8 L-3,3 L0,3 Z " fill="#E3E3E3" transform="translate(23,8)"/>
<path d="M0,0 L1,2 L6,2 L5,6 L-2,7 L-3,4 Z " fill="#B4B4B4" transform="translate(10,17)"/>
<path d="M0,0 L5,0 L1,3 L-4,6 L-8,4 L-7,2 Z " fill="#0D0D0D" transform="translate(17,10)"/>
</svg>
