<?xml version="1.0" encoding="UTF-8"?>
<svg version="1.1" xmlns="http://www.w3.org/2000/svg" width="28" height="28">
<path d="M0,0 L28,0 L28,28 L0,28 Z " fill="#030303" transform="translate(0,0)"/>
<path d="M0,0 L4,0 L4,5 L-3,11 L-5,11 L-5,18 L-8,20 L-13,19 L-13,13 L-11,12 L-12,4 L-1,1 Z " fill="#E2E2E2" transform="translate(20,5)"/>
<path d="M0,0 L5,4 L6,12 L3,14 L-2,13 L-2,7 L0,6 L-1,1 Z M5,3 Z " fill="#F4F4F4" transform="translate(9,11)"/>
<path d="M0,0 L1,2 L6,1 L4,7 L0,6 Z " fill="#959595" transform="translate(7,18)"/>
<path d="M0,0 L6,0 L1,5 L-2,4 L-2,1 Z " fill="#1E1E1E" transform="translate(13,10)"/>
</svg>
