<?xml version="1.0" encoding="UTF-8"?>
<svg version="1.1" xmlns="http://www.w3.org/2000/svg" width="28" height="28">
<path d="M0,0 L28,0 L28,28 L0,28 Z " fill="#020202" transform="translate(0,0)"/>
<path d="M0,0 L4,0 L4,16 L2,17 L2,12 L-2,16 L-3,18 L-1,18 L-1,20 L-5,19 L-4,14 L-1,8 L-5,9 L-5,3 Z " fill="#DFDFDF" transform="translate(15,5)"/>
<path d="M0,0 L6,1 L5,5 L-1,7 L-1,1 Z " fill="#9D9D9D" transform="translate(11,7)"/>
<path d="M0,0 L2,0 L2,6 L-1,8 L-1,6 L-3,6 L-1,1 Z " fill="#6A6A6A" transform="translate(15,17)"/>
</svg>
