<?xml version="1.0" encoding="UTF-8"?>
<svg version="1.1" xmlns="http://www.w3.org/2000/svg" width="28" height="28">
<path d="M0,0 L28,0 L28,28 L0,28 Z " fill="#040404" transform="translate(0,0)"/>
<path d="M0,0 L4,0 L4,2 L-1,4 L0,6 L6,5 L6,3 L9,3 L8,7 L5,7 L5,13 L1,19 L0,20 L-7,20 L-7,15 L-2,8 L-5,6 L-5,3 Z " fill="#DEDEDE" transform="translate(14,4)"/>
<path d="M0,0 L2,0 L1,5 L-3,10 L-10,10 L-10,6 L-8,6 L-8,9 L-3,6 Z " fill="#EDEDED" transform="translate(17,14)"/>
<path d="M0,0 L2,0 L1,4 L-3,9 L-6,9 L-4,4 Z " fill="#171717" transform="translate(15,14)"/>
</svg>
