<?xml version="1.0" encoding="UTF-8"?>
<svg version="1.1" xmlns="http://www.w3.org/2000/svg" width="28" height="28">
<path d="M0,0 L28,0 L28,28 L0,28 Z " fill="#010101" transform="translate(0,0)"/>
<path d="M0,0 L4,0 L5,2 L8,2 L8,5 L5,6 L2,9 L2,15 L-2,20 L-6,19 L-5,14 L-4,10 L-5,5 Z " fill="#D4D4D4" transform="translate(15,5)"/>
<path d="M0,0 L4,1 L0,6 L-2,6 L-1,1 Z " fill="#1D1D1D" transform="translate(15,8)"/>
<path d="M0,0 L3,0 L3,3 L0,4 L-1,6 L-3,6 L-2,2 Z " fill="#CCCCCC" transform="translate(20,7)"/>
</svg>
