<?xml version="1.0" encoding="UTF-8"?>
<svg version="1.1" xmlns="http://www.w3.org/2000/svg" width="28" height="28">
<path d="M0,0 L28,0 L28,28 L0,28 Z " fill="#020202" transform="translate(0,0)"/>
<path d="M0,0 L6,0 L10,3 L9,7 L8,9 L7,18 L5,20 L0,19 L0,10 L-2,9 L-2,6 L-4,6 L-3,1 Z " fill="#D1D1D1" transform="translate(11,6)"/>
<path d="M0,0 L6,0 L6,2 L0,3 L1,7 L-1,7 L-2,9 L-2,6 L-4,6 L-3,1 Z " fill="#EAEAEA" transform="translate(11,6)"/>
<path d="M0,0 L7,0 L7,3 L6,5 L2,4 Z " fill="#0E0E0E" transform="translate(10,9)"/>
<path d="M0,0 L2,4 L4,5 L4,7 L-1,6 L-1,1 Z " fill="#EFEFEF" transform="translate(12,19)"/>
</svg>
