<?xml version="1.0" encoding="UTF-8"?>
<svg version="1.1" xmlns="http://www.w3.org/2000/svg" width="28" height="28">
<path d="M0,0 L28,0 L28,28 L0,28 Z " fill="#040404" transform="translate(0,0)"/>
<path d="M0,0 L6,0 L7,4 L5,8 L5,13 L7,13 L7,18 L4,16 L-2,20 L-7,19 L-7,13 L-2,7 L-5,6 L-4,1 Z " fill="#E4E4E4" transform="translate(14,4)"/>
<path d="M0,0 L5,1 L5,6 L2,4 L-4,8 L-6,7 Z " fill="#DDDDDD" transform="translate(16,16)"/>
<path d="M0,0 L2,0 L1,4 L-3,8 L-6,8 L-4,4 Z " fill="#1B1B1B" transform="translate(15,13)"/>
<path d="M0,0 L6,0 L4,3 L-1,3 Z " fill="#131313" transform="translate(12,7)"/>
</svg>
