<?xml version="1.0" encoding="UTF-8"?>
<svg version="1.1" xmlns="http://www.w3.org/2000/svg" width="28" height="28">
<path d="M0,0 L28,0 L28,28 L0,28 Z " fill="#040404" transform="translate(0,0)"/>
<path d="M0,0 L7,1 L8,6 L5,8 L6,12 L8,13 L9,20 L6,19 L5,15 L1,13 L-1,19 L-3,20 L-3,15 L-2,10 L-6,7 L-5,3 Z " fill="#DBDBDB" transform="translate(13,5)"/>
<path d="M0,0 L7,0 L9,4 L11,5 L12,12 L9,11 L8,7 L4,5 L2,11 L0,12 L0,7 L1,2 Z " fill="#E9E9E9" transform="translate(10,13)"/>
<path d="M0,0 L5,1 L3,5 L-2,6 L-4,5 L-4,2 Z " fill="#131313" transform="translate(14,7)"/>
</svg>
