<?xml version="1.0" encoding="UTF-8"?>
<svg version="1.1" xmlns="http://www.w3.org/2000/svg" width="28" height="28">
<path d="M0,0 L28,0 L28,28 L0,28 Z " fill="#030303" transform="translate(0,0)"/>
<path d="M0,0 L6,0 L6,3 L1,2 L5,8 L9,6 L15,3 L19,3 L19,5 L10,9 L8,10 L8,17 L6,19 L1,19 L0,15 L2,13 L1,8 L-1,5 Z " fill="#E2E2E2" transform="translate(9,5)"/>
<path d="M0,0 L3,3 L2,8 L-2,9 L-3,5 Z " fill="#919191" transform="translate(12,15)"/>
<path d="M0,0 L4,0 L4,2 L-6,6 L-6,3 Z " fill="#CCCCCC" transform="translate(24,8)"/>
</svg>
