<?xml version="1.0" encoding="UTF-8"?>
<svg version="1.1" xmlns="http://www.w3.org/2000/svg" width="28" height="28">
<path d="M0,0 L28,0 L28,28 L0,28 Z " fill="#020202" transform="translate(0,0)"/>
<path d="M0,0 L4,1 L6,5 L6,11 L4,11 L5,19 L0,20 L-2,18 L-2,9 L-3,8 L-3,3 Z " fill="#BFBFBF" transform="translate(13,4)"/>
<path d="M0,0 L4,1 L6,5 L6,11 L3,10 L2,5 L0,4 L-1,8 L-3,8 L-3,3 Z " fill="#E4E4E4" transform="translate(13,4)"/>
<path d="M0,0 L4,3 L4,7 L0,6 Z " fill="#191919" transform="translate(13,7)"/>
<path d="M0,0 L4,4 L4,2 L6,2 L5,6 L0,5 Z " fill="#F2F2F2" transform="translate(12,18)"/>
</svg>
