<?xml version="1.0" encoding="UTF-8"?>
<svg version="1.1" xmlns="http://www.w3.org/2000/svg" width="28" height="28">
<path d="M0,0 L28,0 L28,28 L0,28 Z " fill="#010101" transform="translate(0,0)"/>
<path d="M0,0 L6,0 L7,3 L5,3 L3,7 L1,8 L2,17 L-1,20 L-5,19 L-7,17 L-7,12 L-6,7 L-7,2 Z " fill="#C8C8C8" transform="translate(16,6)"/>
<path d="M0,0 L6,0 L7,3 L5,3 L3,7 L-1,6 L3,4 L3,2 L-4,4 L-6,7 L-7,2 Z " fill="#DCDCDC" transform="translate(16,6)"/>
<path d="M0,0 L3,1 L1,6 L5,7 L4,10 L0,9 L-2,7 L-2,2 Z " fill="#E0E0E0" transform="translate(11,16)"/>
<path d="M0,0 L2,0 L2,2 L-2,5 L-5,4 L-5,1 Z " fill="#252525" transform="translate(17,8)"/>
<path d="M0,0 L2,1 L2,6 L-2,5 Z " fill="#0E0E0E" transform="translate(13,17)"/>
</svg>
