<?xml version="1.0" encoding="UTF-8"?>
<svg version="1.1" xmlns="http://www.w3.org/2000/svg" width="28" height="28">
<path d="M0,0 L28,0 L28,28 L0,28 Z " fill="#020202" transform="translate(0,0)"/>
<path d="M0,0 L5,0 L6,5 L1,11 L2,16 L-1,20 L-6,19 L-7,15 L-4,11 L-5,3 Z " fill="#E7E7E7" transform="translate(15,5)"/>
<path d="M0,0 L5,1 L4,8 L-1,7 L-2,3 Z " fill="#949494" transform="translate(10,17)"/>
<path d="M0,0 L5,0 L6,5 L2,6 L-1,8 L-3,3 Z " fill="#D8D8D8" transform="translate(15,5)"/>
<path d="M0,0 L5,0 L4,4 L1,4 Z " fill="#0C0C0C" transform="translate(12,8)"/>
</svg>
