<?xml version="1.0" encoding="UTF-8"?>
<svg version="1.1" xmlns="http://www.w3.org/2000/svg" width="28" height="28">
<path d="M0,0 L28,0 L28,28 L0,28 Z " fill="#030303" transform="translate(0,0)"/>
<path d="M0,0 L6,0 L7,3 L0,3 L2,7 L7,6 L13,2 L15,2 L15,4 L13,4 L13,6 L8,9 L8,17 L3,20 L-1,20 L0,13 L1,10 L-3,5 L-1,1 Z " fill="#DBDBDB" transform="translate(10,5)"/>
<path d="M0,0 L2,1 L-1,6 L2,7 L-3,8 L-2,1 Z " fill="#F0F0F0" transform="translate(12,17)"/>
<path d="M0,0 L2,0 L2,2 L0,2 L0,4 L-4,6 L-6,4 Z " fill="#D1D1D1" transform="translate(23,7)"/>
<path d="M0,0 L2,1 L2,4 L-3,6 L-1,1 Z " fill="#222222" transform="translate(14,17)"/>
</svg>
