<?xml version="1.0" encoding="UTF-8"?>
<svg version="1.1" xmlns="http://www.w3.org/2000/svg" width="28" height="28">
<path d="M0,0 L28,0 L28,28 L0,28 Z " fill="#030303" transform="translate(0,0)"/>
<path d="M0,0 L10,0 L9,4 L5,8 L3,8 L3,15 L-3,19 L-7,18 L-7,14 L-1,9 L-3,6 L-10,5 L-10,3 Z " fill="#CACACA" transform="translate(15,7)"/>
<path d="M0,0 L7,0 L5,4 L0,6 L-4,2 Z " fill="#101010" transform="translate(16,8)"/>
<path d="M0,0 L1,0 L1,5 L-2,7 L-6,7 L-4,3 Z " fill="#101010" transform="translate(15,17)"/>
</svg>
