<?xml version="1.0" encoding="UTF-8"?>
<svg version="1.1" xmlns="http://www.w3.org/2000/svg" width="28" height="28">
<path d="M0,0 L28,0 L28,28 L0,28 Z " fill="#020202" transform="translate(0,0)"/>
<path d="M0,0 L5,1 L6,2 L6,15 L1,20 L-4,20 L-4,15 L-2,12 L-4,11 L0,3 Z " fill="#CECECE" transform="translate(13,4)"/>
<path d="M0,0 L1,3 L6,3 L3,6 L1,6 L-1,11 L5,10 L5,12 L-2,13 L-2,8 L0,5 L-2,4 Z " fill="#D7D7D7" transform="translate(11,11)"/>
<path d="M0,0 L3,0 L2,4 L0,6 L-4,6 L-2,1 Z " fill="#111111" transform="translate(14,16)"/>
<path d="M0,0 L2,0 L3,6 L2,7 L-3,7 L-1,3 L1,3 Z " fill="#111111" transform="translate(15,6)"/>
<path d="M0,0 L1,3 L6,3 L1,7 L0,5 L-2,4 Z " fill="#F5F5F5" transform="translate(11,11)"/>
</svg>
