<?xml version="1.0" encoding="UTF-8"?>
<svg version="1.1" xmlns="http://www.w3.org/2000/svg" width="28" height="28">
<path d="M0,0 L28,0 L28,28 L0,28 Z " fill="#010101" transform="translate(0,0)"/>
<path d="M0,0 L5,0 L6,1 L6,6 L4,6 L3,3 L-1,3 L2,8 L6,7 L10,5 L8,9 L5,10 L6,18 L4,20 L-1,19 L-2,14 L0,10 L-2,7 L-2,2 Z " fill="#DBDBDB" transform="translate(12,5)"/>
<path d="M0,0 L3,1 L3,4 L5,4 L6,0 L7,5 L4,7 L0,6 L-2,1 Z " fill="#262626" transform="translate(13,7)"/>
<path d="M0,0 L5,0 L6,1 L6,6 L4,6 L3,3 L-1,3 L1,8 L-1,9 L-2,2 Z " fill="#DADADA" transform="translate(12,5)"/>
<path d="M0,0 L3,0 L2,5 L-1,4 Z " fill="#2B2B2B" transform="translate(13,18)"/>
</svg>
