<?xml version="1.0" encoding="UTF-8"?>
<svg version="1.1" xmlns="http://www.w3.org/2000/svg" width="28" height="28">
<path d="M0,0 L28,0 L28,28 L0,28 Z " fill="#020202" transform="translate(0,0)"/>
<path d="M0,0 L7,0 L8,1 L8,6 L0,10 L-1,17 L-3,19 L-10,19 L-12,15 L-9,10 L-4,10 L-6,3 Z " fill="#CBCBCB" transform="translate(17,5)"/>
<path d="M0,0 L7,0 L6,4 L-1,6 L-2,1 Z " fill="#0E0E0E" transform="translate(16,7)"/>
<path d="M0,0 L7,0 L6,3 L-3,3 L-4,8 L-6,5 L-5,2 Z " fill="#DCDCDC" transform="translate(17,5)"/>
<path d="M0,0 L5,0 L4,5 L2,6 L-2,4 Z " fill="#151515" transform="translate(9,17)"/>
</svg>
