<?xml version="1.0" encoding="UTF-8"?>
<svg version="1.1" xmlns="http://www.w3.org/2000/svg" width="28" height="28">
<path d="M0,0 L28,0 L28,28 L0,28 Z " fill="#040404" transform="translate(0,0)"/>
<path d="M0,0 L12,0 L8,2 L5,5 L10,8 L11,9 L11,14 L6,17 L1,16 L-1,14 L-1,6 L-6,5 L-5,1 Z " fill="#E8E8E8" transform="translate(11,8)"/>
<path d="M0,0 L5,1 L7,3 L6,7 L1,7 L-1,5 Z " fill="#0C0C0C" transform="translate(13,15)"/>
<path d="M0,0 L12,0 L8,2 L3,5 L2,2 L-2,1 Z M1,4 Z M0,5 Z " fill="#F4F4F4" transform="translate(11,8)"/>
<path d="M0,0 L7,1 L5,5 L0,5 L-1,1 Z " fill="#BEBEBE" transform="translate(6,9)"/>
<path d="M0,0 L7,2 L7,5 L2,4 Z " fill="#D0D0D0" transform="translate(10,20)"/>
</svg>
