<?xml version="1.0" encoding="UTF-8"?>
<svg version="1.1" xmlns="http://www.w3.org/2000/svg" width="28" height="28">
<path d="M0,0 L28,0 L28,28 L0,28 Z " fill="#020202" transform="translate(0,0)"/>
<path d="M0,0 L2,0 L2,2 L9,2 L11,3 L11,7 L7,9 L2,9 L2,15 L-1,18 L-6,18 L-9,14 L-8,10 L-5,8 L-1,8 L-3,4 Z " fill="#B1B1B1" transform="translate(14,6)"/>
<path d="M0,0 L2,0 L2,2 L9,2 L10,4 L8,6 L8,4 L2,4 L1,7 L-3,5 Z " fill="#DFDFDF" transform="translate(14,6)"/>
<path d="M0,0 L4,0 L2,6 L-2,5 L-1,1 Z " fill="#090909" transform="translate(10,16)"/>
<path d="M0,0 L2,0 L4,3 L8,4 L8,6 L3,6 L0,2 Z " fill="#E4E4E4" transform="translate(5,18)"/>
</svg>
