<?xml version="1.0" encoding="UTF-8"?>
<svg version="1.1" xmlns="http://www.w3.org/2000/svg" width="28" height="28">
<path d="M0,0 L28,0 L28,28 L0,28 Z " fill="#010101" transform="translate(0,0)"/>
<path d="M0,0 L5,1 L10,6 L12,12 L13,18 L11,20 L5,19 L4,18 L4,13 L0,12 L-2,11 L-2,6 L0,2 Z " fill="#E4E4E4" transform="translate(9,4)"/>
<path d="M0,0 L5,1 L7,3 L5,3 L5,5 L2,6 L2,10 L8,11 L6,12 L8,18 L10,20 L5,19 L4,18 L4,13 L0,12 L-2,11 L-2,6 L0,2 Z " fill="#C6C6C6" transform="translate(9,4)"/>
<path d="M0,0 L3,2 L2,6 L-3,7 L-4,2 Z " fill="#1D1D1D" transform="translate(14,8)"/>
<path d="M0,0 L7,0 L5,1 L7,7 L9,9 L4,8 L3,7 L3,2 L0,2 Z " fill="#EAEAEA" transform="translate(10,15)"/>
<path d="M0,0 L4,1 L5,5 L1,6 L0,5 Z " fill="#181818" transform="translate(15,16)"/>
</svg>
