<?xml version="1.0" encoding="UTF-8"?>
<svg version="1.1" xmlns="http://www.w3.org/2000/svg" width="28" height="28">
<path d="M0,0 L28,0 L28,28 L0,28 Z " fill="#010101" transform="translate(0,0)"/>
<path d="M0,0 L3,0 L2,5 L0,5 L-1,9 L-3,11 L-1,11 L-1,16 L-6,20 L-11,20 L-12,16 L-9,12 L-9,4 L-5,1 Z " fill="#EEEEEE" transform="translate(19,5)"/>
<path d="M0,0 L1,4 L5,5 L7,3 L7,8 L2,12 L-3,12 L-4,8 L-1,4 Z " fill="#D8D8D8" transform="translate(11,13)"/>
<path d="M0,0 L3,0 L2,5 L0,5 L-1,9 L-6,8 L-5,4 L-1,2 Z " fill="#B7B7B7" transform="translate(19,5)"/>
<path d="M0,0 L1,0 L1,5 L-3,7 L-7,7 L-5,2 L-1,2 Z " fill="#7A7A7A" transform="translate(17,16)"/>
</svg>
