<?xml version="1.0" encoding="UTF-8"?>
<svg version="1.1" xmlns="http://www.w3.org/2000/svg" width="28" height="28">
<path d="M0,0 L28,0 L28,28 L0,28 Z " fill="#020202" transform="translate(0,0)"/>
<path d="M0,0 L7,0 L9,1 L9,4 L12,3 L13,6 L10,7 L11,11 L12,13 L12,19 L8,20 L5,19 L3,15 L3,8 L-1,4 Z " fill="#EAEAEA" transform="translate(8,5)"/>
<path d="M0,0 L7,0 L7,2 L1,2 L1,4 L4,5 L3,8 L-1,4 Z " fill="#DEDEDE" transform="translate(8,5)"/>
<path d="M0,0 L2,0 L2,4 L-3,5 L-6,3 L-6,1 Z " fill="#666666" transform="translate(15,6)"/>
<path d="M0,0 L2,0 L4,3 L4,7 L0,5 L-1,1 Z " fill="#2A2A2A" transform="translate(14,16)"/>
</svg>
