<?xml version="1.0" encoding="UTF-8"?>
<svg version="1.1" xmlns="http://www.w3.org/2000/svg" width="28" height="28">
<path d="M0,0 L28,0 L28,28 L0,28 Z " fill="#000000" transform="translate(0,0)"/>
<path d="M0,0 L0,3 L-4,9 L-2,14 L-3,19 L-8,20 L-8,17 L-4,17 L-6,13 L-8,15 L-8,5 L-4,2 Z " fill="#B8B8B8" transform="translate(19,4)"/>
<path d="M0,0 L3,4 L1,7 L-3,5 L-2,2 Z " fill="#212121" transform="translate(13,16)"/>
<path d="M0,0 L0,3 L-4,9 L-6,8 L-5,4 L-4,2 Z " fill="#818181" transform="translate(19,4)"/>
</svg>
