<?xml version="1.0" encoding="UTF-8"?>
<svg version="1.1" xmlns="http://www.w3.org/2000/svg" width="28" height="28">
<path d="M0,0 L28,0 L28,28 L0,28 Z " fill="#040404" transform="translate(0,0)"/>
<path d="M0,0 L8,0 L9,5 L7,9 L8,16 L1,20 L-2,20 L-1,15 L0,11 L-3,8 L-3,1 Z " fill="#DFDFDF" transform="translate(12,5)"/>
<path d="M0,0 L8,0 L9,5 L7,7 L5,7 L5,3 L0,3 L1,9 L-3,8 L-3,1 Z " fill="#E5E5E5" transform="translate(12,5)"/>
<path d="M0,0 L5,1 L5,6 L2,8 L-1,3 Z " fill="#101010" transform="translate(12,7)"/>
</svg>
