<?xml version="1.0" encoding="UTF-8"?>
<svg version="1.1" xmlns="http://www.w3.org/2000/svg" width="28" height="28">
<path d="M0,0 L28,0 L28,28 L0,28 Z " fill="#020202" transform="translate(0,0)"/>
<path d="M0,0 L3,1 L2,6 L-2,9 L0,13 L-1,19 L-2,20 L-8,20 L-10,18 L-9,14 L-8,5 L-5,4 L-4,1 Z " fill="#B2B2B2" transform="translate(18,4)"/>
<path d="M0,0 L1,2 L7,3 L6,9 L5,10 L-1,10 L-3,8 L-2,4 Z " fill="#ECECEC" transform="translate(11,14)"/>
<path d="M0,0 L1,2 L6,1 L5,5 L6,7 L1,6 L1,4 L-1,4 Z " fill="#EFEFEF" transform="translate(11,10)"/>
<path d="M0,0 L3,0 L4,4 L-1,5 Z " fill="#2F2F2F" transform="translate(12,17)"/>
<path d="M0,0 L1,2 L3,3 L1,4 L-1,8 L-3,8 L-2,4 Z " fill="#D0D0D0" transform="translate(11,14)"/>
</svg>
