<?xml version="1.0" encoding="UTF-8"?>
<svg version="1.1" xmlns="http://www.w3.org/2000/svg" width="28" height="28">
<path d="M0,0 L28,0 L28,28 L0,28 Z " fill="#030303" transform="translate(0,0)"/>
<path d="M0,0 L4,0 L2,4 L-4,11 L-7,18 L-10,20 L-14,19 L-9,13 L-10,5 L-5,1 Z " fill="#E5E5E5" transform="translate(20,5)"/>
<path d="M0,0 L3,1 L2,5 L5,7 L2,14 L-1,16 L-5,15 L0,9 L-1,1 Z " fill="#ECECEC" transform="translate(11,9)"/>
<path d="M0,0 L2,1 L-4,6 L-5,2 Z " fill="#2A2A2A" transform="translate(17,9)"/>
<path d="M0,0 L5,2 L2,4 L-3,3 Z " fill="#B3B3B3" transform="translate(15,6)"/>
</svg>
