<?xml version="1.0" encoding="UTF-8"?>
<svg version="1.1" xmlns="http://www.w3.org/2000/svg" width="28" height="28">
<path d="M0,0 L28,0 L28,28 L0,28 Z " fill="#010101" transform="translate(0,0)"/>
<path d="M0,0 L4,0 L3,5 L-2,9 L-4,15 L-8,20 L-12,20 L-11,15 L-7,12 L-8,16 L-7,15 L-4,11 L-6,11 L-6,9 L1,4 L2,2 L-3,5 L-6,5 L-7,7 L-6,3 Z " fill="#E4E4E4" transform="translate(19,5)"/>
<path d="M0,0 L2,0 L1,3 L-4,7 L-6,7 L-6,9 L-4,9 L-6,13 L-7,15 L-9,14 L-6,3 Z " fill="#7C7C7C" transform="translate(19,7)"/>
<path d="M0,0 L2,0 L1,3 L-3,6 L-5,6 L-5,3 Z " fill="#363636" transform="translate(19,7)"/>
</svg>
