<?xml version="1.0" encoding="UTF-8"?>
<svg version="1.1" xmlns="http://www.w3.org/2000/svg" width="28" height="28">
<path d="M0,0 L28,0 L28,28 L0,28 Z " fill="#020202" transform="translate(0,0)"/>
<path d="M0,0 L13,0 L12,4 L4,11 L2,18 L-1,20 L-5,20 L-4,14 L-2,12 L-3,3 Z " fill="#C9C9C9" transform="translate(12,6)"/>
<path d="M0,0 L1,2 L6,0 L10,1 L2,8 L-1,6 L-1,1 Z " fill="#212121" transform="translate(12,8)"/>
<path d="M0,0 L1,3 L-2,5 L-6,5 L-5,1 L0,2 Z " fill="#F2F2F2" transform="translate(13,21)"/>
</svg>
