<?xml version="1.0" encoding="UTF-8"?>
<svg version="1.1" xmlns="http://www.w3.org/2000/svg" width="28" height="28">
<path d="M0,0 L28,0 L28,28 L0,28 Z " fill="#020202" transform="translate(0,0)"/>
<path d="M0,0 L1,2 L5,0 L9,0 L7,6 L5,8 L4,16 L-1,20 L-7,20 L-5,15 L1,7 L-3,6 L-3,3 Z " fill="#A8A8A8" transform="translate(13,5)"/>
<path d="M0,0 L3,0 L5,0 L6,5 L1,9 L-5,9 L-3,4 Z " fill="#C7C7C7" transform="translate(11,16)"/>
<path d="M0,0 L2,0 L0,6 L-2,8 L-3,14 L-4,11 L-8,13 L-7,9 L-2,4 Z " fill="#E3E3E3" transform="translate(20,5)"/>
<path d="M0,0 L2,0 L0,6 L-5,8 L-3,4 Z " fill="#1C1C1C" transform="translate(14,16)"/>
</svg>
