<?xml version="1.0" encoding="UTF-8"?>
<svg version="1.1" xmlns="http://www.w3.org/2000/svg" width="28" height="28">
<path d="M0,0 L28,0 L28,28 L0,28 Z " fill="#010101" transform="translate(0,0)"/>
<path d="M0,0 L6,0 L8,1 L8,5 L6,5 L6,8 L9,11 L10,15 L5,20 L-2,19 L-5,18 L-5,12 L-3,10 L0,10 L-1,7 L-6,5 L-5,2 L-2,3 L0,5 L4,5 L4,3 L-1,2 Z " fill="#B6B6B6" transform="translate(12,5)"/>
<path d="M0,0 L6,0 L8,1 L8,5 L6,5 L7,12 L0,10 L-1,7 L-6,5 L-5,2 L-2,3 L0,5 L4,5 L4,3 L-1,2 Z " fill="#CBCBCB" transform="translate(12,5)"/>
<path d="M0,0 L5,0 L6,1 L6,6 L5,7 L-2,7 L-3,3 Z " fill="#080808" transform="translate(12,15)"/>
<path d="M0,0 L3,1 L1,3 L2,7 L7,8 L7,9 L-2,8 L-2,2 Z " fill="#D3D3D3" transform="translate(9,15)"/>
<path d="M0,0 L7,2 L6,5 L1,4 L-2,2 L0,2 Z " fill="#242424" transform="translate(10,6)"/>
<path d="M0,0 L3,1 L6,4 L7,8 L5,8 L4,5 L-1,3 Z " fill="#B2B2B2" transform="translate(7,7)"/>
<path d="M0,0 L6,3 L5,6 L0,3 Z " fill="#EDEDED" transform="translate(13,11)"/>
</svg>
