<?xml version="1.0" encoding="UTF-8"?>
<svg version="1.1" xmlns="http://www.w3.org/2000/svg" width="28" height="28">
<path d="M0,0 L28,0 L28,28 L0,28 Z " fill="#020202" transform="translate(0,0)"/>
<path d="M0,0 L3,0 L1,6 L-1,8 L-2,15 L-5,19 L-11,20 L-10,14 L-6,10 L-7,3 Z " fill="#DDDDDD" transform="translate(19,5)"/>
<path d="M0,0 L2,0 L3,4 L0,8 L-6,9 L-5,3 L-2,1 L0,2 Z " fill="#929292" transform="translate(14,16)"/>
<path d="M0,0 L3,1 L6,1 L4,8 L3,5 L1,5 L1,7 L-1,7 Z " fill="#EAEAEA" transform="translate(13,11)"/>
<path d="M0,0 L2,0 L0,5 L-3,5 L-2,1 Z " fill="#202020" transform="translate(17,7)"/>
</svg>
