<?xml version="1.0" encoding="UTF-8"?>
<svg version="1.1" xmlns="http://www.w3.org/2000/svg" width="28" height="28">
<path d="M0,0 L28,0 L28,28 L0,28 Z " fill="#030303" transform="translate(0,0)"/>
<path d="M0,0 L7,0 L11,3 L10,8 L5,10 L7,14 L7,20 L4,19 L3,14 L1,14 L0,20 L-3,20 L-2,14 L0,10 L-1,9 L-1,1 Z " fill="#EAEAEA" transform="translate(11,5)"/>
<path d="M0,0 L7,0 L11,3 L10,8 L3,9 L1,7 Z " fill="#CECECE" transform="translate(11,5)"/>
<path d="M0,0 L5,0 L6,4 L1,6 L-1,4 Z " fill="#0A0A0A" transform="translate(13,8)"/>
</svg>
