<?xml version="1.0" encoding="UTF-8"?>
<svg version="1.1" xmlns="http://www.w3.org/2000/svg" width="28" height="28">
<path d="M0,0 L28,0 L28,28 L0,28 Z " fill="#060606" transform="translate(0,0)"/>
<path d="M0,0 L3,0 L4,5 L1,10 L2,15 L-2,18 L-11,19 L-11,16 L-6,11 L-13,11 L-16,9 L-15,4 L-10,1 L-5,2 L-5,5 L-11,5 L-14,6 L-14,8 L-2,9 L1,4 L-1,3 Z " fill="#EAEAEA" transform="translate(20,5)"/>
<path d="M0,0 L4,1 L5,3 L1,6 L-5,5 Z " fill="#DEDEDE" transform="translate(17,17)"/>
<path d="M0,0 L3,0 L4,5 L2,7 L1,4 L-1,3 Z " fill="#D3D3D3" transform="translate(20,5)"/>
<path d="M0,0 L3,1 L0,4 L-5,5 Z " fill="#363636" transform="translate(17,17)"/>
<path d="M0,0 L5,1 L5,4 L-1,3 Z " fill="#B9B9B9" transform="translate(10,6)"/>
</svg>
