<?xml version="1.0" encoding="UTF-8"?>
<svg version="1.1" xmlns="http://www.w3.org/2000/svg" width="28" height="28">
<path d="M0,0 L28,0 L28,28 L0,28 Z " fill="#020202" transform="translate(0,0)"/>
<path d="M0,0 L3,1 L2,4 L-1,5 L-1,8 L2,8 L3,13 L4,18 L1,20 L-4,20 L-4,14 L-3,11 L-4,10 L-4,4 Z " fill="#EAEAEA" transform="translate(15,5)"/>
<path d="M0,0 L5,1 L4,6 L0,7 L-2,3 Z " fill="#808080" transform="translate(14,18)"/>
<path d="M0,0 L5,0 L4,5 L-1,6 L-2,2 Z " fill="#727272" transform="translate(15,8)"/>
</svg>
