<?xml version="1.0" encoding="UTF-8"?>
<svg version="1.1" xmlns="http://www.w3.org/2000/svg" width="28" height="28">
<path d="M0,0 L28,0 L28,28 L0,28 Z " fill="#020202" transform="translate(0,0)"/>
<path d="M0,0 L8,1 L7,6 L2,11 L2,19 L-3,20 L-4,19 L-4,14 L-3,10 L-3,3 Z " fill="#F3F3F3" transform="translate(14,5)"/>
<path d="M0,0 L8,1 L7,6 L5,8 L2,7 L5,2 L0,4 L1,10 L-3,10 L-3,3 Z " fill="#D3D3D3" transform="translate(14,5)"/>
<path d="M0,0 L4,0 L3,4 L1,7 L-2,6 L-1,1 Z " fill="#171717" transform="translate(15,7)"/>
<path d="M0,0 L3,0 L3,6 L0,7 L-1,6 L-1,1 Z " fill="#858585" transform="translate(11,18)"/>
</svg>
