<?xml version="1.0" encoding="UTF-8"?>
<svg version="1.1" xmlns="http://www.w3.org/2000/svg" width="28" height="28">
<path d="M0,0 L28,0 L28,28 L0,28 Z " fill="#020202" transform="translate(0,0)"/>
<path d="M0,0 L2,1 L2,6 L0,11 L2,16 L-1,20 L-7,19 L-8,15 L-6,12 L-8,12 L-8,7 L-3,2 L-1,2 L-1,4 L-5,7 L-6,10 L-3,9 Z " fill="#D5D5D5" transform="translate(17,4)"/>
<path d="M0,0 L4,1 L3,5 L-1,5 Z " fill="#0E0E0E" transform="translate(13,17)"/>
<path d="M0,0 L3,0 L3,3 L7,4 L3,5 L0,3 Z " fill="#BABABA" transform="translate(9,19)"/>
</svg>
