<?xml version="1.0" encoding="UTF-8"?>
<svg version="1.1" xmlns="http://www.w3.org/2000/svg" width="28" height="28">
<path d="M0,0 L28,0 L28,28 L0,28 Z " fill="#010101" transform="translate(0,0)"/>
<path d="M0,0 L2,0 L0,6 L-3,9 L-3,18 L-5,20 L-10,19 L-9,10 L-10,5 L-7,2 Z " fill="#D2D2D2" transform="translate(20,5)"/>
<path d="M0,0 L2,0 L6,6 L6,11 L4,13 L-1,12 Z " fill="#E2E2E2" transform="translate(11,12)"/>
<path d="M0,0 L2,2 L2,7 L-3,6 L-2,2 Z " fill="#787878" transform="translate(13,18)"/>
<path d="M0,0 L2,0 L0,5 L-2,7 L-4,3 Z " fill="#1E1E1E" transform="translate(16,8)"/>
<path d="M0,0 L3,2 L-1,6 L-3,9 L-2,3 Z " fill="#BBBBBB" transform="translate(18,8)"/>
</svg>
