<?xml version="1.0" encoding="UTF-8"?>
<svg version="1.1" xmlns="http://www.w3.org/2000/svg" width="28" height="28">
<path d="M0,0 L28,0 L28,28 L0,28 Z " fill="#020202" transform="translate(0,0)"/>
<path d="M0,0 L2,0 L2,5 L-3,10 L-2,19 L-4,20 L-11,20 L-12,15 L-10,15 L-9,9 L-9,4 L-7,2 L0,2 Z " fill="#E0E0E0" transform="translate(20,4)"/>
<path d="M0,0 L7,0 L5,4 L3,7 L1,7 L1,2 L-1,1 Z " fill="#747474" transform="translate(13,6)"/>
<path d="M0,0 L2,0 L2,5 L-2,9 L-4,7 L-1,4 Z " fill="#D3D3D3" transform="translate(20,4)"/>
<path d="M0,0 L2,1 L2,5 L-3,5 L-1,1 Z " fill="#101010" transform="translate(13,17)"/>
</svg>
