<?xml version="1.0" encoding="UTF-8"?>
<svg version="1.1" xmlns="http://www.w3.org/2000/svg" width="28" height="28">
<path d="M0,0 L28,0 L28,28 L0,28 Z " fill="#010101" transform="translate(0,0)"/>
<path d="M0,0 L4,1 L4,7 L7,11 L7,16 L2,20 L-1,19 L0,12 L1,8 L-3,6 L-2,1 Z " fill="#BDBDBD" transform="translate(12,5)"/>
<path d="M0,0 L4,1 L3,7 L-1,8 L-3,6 L-2,1 Z " fill="#B6B6B6" transform="translate(12,5)"/>
<path d="M0,0 L3,2 L2,8 L-1,9 Z " fill="#1A1A1A" transform="translate(14,14)"/>
<path d="M0,0 L5,2 L6,3 L6,9 L4,5 L0,1 Z " fill="#ECECEC" transform="translate(12,11)"/>
</svg>
