<?xml version="1.0" encoding="UTF-8"?>
<svg version="1.1" xmlns="http://www.w3.org/2000/svg" width="28" height="28">
<path d="M0,0 L28,0 L28,28 L0,28 Z " fill="#020202" transform="translate(0,0)"/>
<path d="M0,0 L7,1 L8,6 L5,10 L6,18 L3,20 L-2,19 L-1,10 L-2,8 L-2,2 Z " fill="#EAEAEA" transform="translate(12,4)"/>
<path d="M0,0 L7,1 L8,6 L2,9 L-2,5 L-1,1 Z " fill="#C6C6C6" transform="translate(12,4)"/>
<path d="M0,0 L3,1 L3,3 L5,4 L2,6 L-3,5 L-2,1 Z " fill="#9B9B9B" transform="translate(13,18)"/>
<path d="M0,0 L7,0 L5,5 L2,5 Z " fill="#0D0D0D" transform="translate(11,7)"/>
</svg>
