<?xml version="1.0" encoding="UTF-8"?>
<svg version="1.1" xmlns="http://www.w3.org/2000/svg" width="28" height="28">
<path d="M0,0 L28,0 L28,28 L0,28 Z " fill="#030303" transform="translate(0,0)"/>
<path d="M0,0 L6,0 L9,3 L9,8 L7,10 L4,10 L4,15 L0,20 L-7,20 L-9,19 L-10,14 L-7,11 L-2,9 L-3,4 Z " fill="#E1E1E1" transform="translate(14,4)"/>
<path d="M0,0 L5,0 L6,3 L1,4 L-2,7 L-2,3 Z " fill="#F0F0F0" transform="translate(14,4)"/>
<path d="M0,0 L2,0 L0,4 L-5,5 L-5,3 Z " fill="#111111" transform="translate(12,16)"/>
<path d="M0,0 L4,1 L5,3 L0,4 Z " fill="#131313" transform="translate(15,7)"/>
</svg>
