<?xml version="1.0" encoding="UTF-8"?>
<svg version="1.1" xmlns="http://www.w3.org/2000/svg" width="28" height="28">
<path d="M0,0 L28,0 L28,28 L0,28 Z " fill="#030303" transform="translate(0,0)"/>
<path d="M0,0 L7,1 L7,5 L9,6 L4,11 L4,18 L2,18 L2,20 L-3,20 L-2,12 L-4,9 L-3,3 Z " fill="#C6C6C6" transform="translate(13,5)"/>
<path d="M0,0 L7,1 L7,5 L9,6 L6,6 L5,4 L0,5 L-1,9 L-1,12 L-4,9 L-3,3 Z " fill="#E3E3E3" transform="translate(13,5)"/>
<path d="M0,0 L5,1 L0,8 L-3,6 L-2,2 Z " fill="#0D0D0D" transform="translate(14,8)"/>
<path d="M0,0 L2,0 L2,2 L7,0 L7,3 L5,3 L5,5 L0,5 Z " fill="#EBEBEB" transform="translate(10,20)"/>
</svg>
