<?xml version="1.0" encoding="UTF-8"?>
<svg version="1.1" xmlns="http://www.w3.org/2000/svg" width="28" height="28">
<path d="M0,0 L28,0 L28,28 L0,28 Z " fill="#020202" transform="translate(0,0)"/>
<path d="M0,0 L6,0 L9,3 L11,13 L10,18 L7,20 L0,20 L-1,17 L-3,17 L-3,2 Z " fill="#E2E2E2" transform="translate(11,4)"/>
<path d="M0,0 L3,4 L9,3 L10,1 L13,1 L12,6 L9,8 L2,8 L1,5 L-1,5 Z " fill="#E8E8E8" transform="translate(9,16)"/>
<path d="M0,0 L6,0 L7,3 L1,4 L-1,8 L-3,6 L-3,2 Z " fill="#F2F2F2" transform="translate(11,4)"/>
<path d="M0,0 L2,1 L1,4 L-5,5 L-6,1 Z " fill="#1B1B1B" transform="translate(17,16)"/>
<path d="M0,0 L4,1 L4,4 L-3,5 L-2,1 Z " fill="#161616" transform="translate(14,7)"/>
</svg>
