<?xml version="1.0" encoding="UTF-8"?>
<svg version="1.1" xmlns="http://www.w3.org/2000/svg" width="28" height="28">
<path d="M0,0 L28,0 L28,28 L0,28 Z " fill="#020202" transform="translate(0,0)"/>
<path d="M0,0 L9,1 L10,4 L2,10 L3,18 L1,20 L-4,20 L-6,18 L-6,13 L-4,8 L-4,3 Z " fill="#CDCDCD" transform="translate(14,5)"/>
<path d="M0,0 L9,1 L10,4 L5,8 L1,7 L5,4 L0,3 Z " fill="#E0E0E0" transform="translate(14,5)"/>
<path d="M0,0 L6,0 L1,5 L-1,4 Z " fill="#191919" transform="translate(14,8)"/>
</svg>
