<?xml version="1.0" encoding="UTF-8"?>
<svg version="1.1" xmlns="http://www.w3.org/2000/svg" width="28" height="28">
<path d="M0,0 L28,0 L28,28 L0,28 Z " fill="#020202" transform="translate(0,0)"/>
<path d="M0,0 L5,0 L6,2 L1,2 L3,6 L11,1 L11,4 L4,9 L4,18 L2,20 L-4,19 L-6,17 L-5,12 L-2,9 L0,9 L-2,3 Z " fill="#E7E7E7" transform="translate(13,5)"/>
<path d="M0,0 L4,1 L4,8 L3,10 L-2,8 L-3,4 Z " fill="#CDCDCD" transform="translate(10,15)"/>
<path d="M0,0 L2,0 L2,7 L-2,6 L-1,1 Z " fill="#202020" transform="translate(12,16)"/>
<path d="M0,0 L0,3 L-4,6 L-8,5 Z " fill="#CCCCCC" transform="translate(24,6)"/>
<path d="M0,0 L5,0 L5,3 L1,5 Z " fill="#1A1A1A" transform="translate(14,7)"/>
</svg>
