<?xml version="1.0" encoding="UTF-8"?>
<svg version="1.1" xmlns="http://www.w3.org/2000/svg" width="28" height="28">
<path d="M0,0 L28,0 L28,28 L0,28 Z " fill="#030303" transform="translate(0,0)"/>
<path d="M0,0 L9,0 L8,2 L2,2 L0,3 L0,5 L2,4 L8,4 L5,6 L0,7 L0,12 L-6,17 L-10,18 L-11,14 L-6,8 L-4,7 L-2,1 Z " fill="#CDCDCD" transform="translate(16,6)"/>
<path d="M0,0 L6,0 L7,4 L0,4 L-3,5 L-2,1 Z " fill="#282828" transform="translate(18,7)"/>
<path d="M0,0 L9,0 L8,2 L2,2 L0,3 L-2,7 L-3,7 L-3,2 Z " fill="#E3E3E3" transform="translate(16,6)"/>
<path d="M0,0 L2,0 L1,4 L-3,7 L-5,6 Z " fill="#242424" transform="translate(12,15)"/>
<path d="M0,0 L2,1 L-3,5 L-7,6 L-8,2 L-6,1 L-6,4 Z " fill="#EFEFEF" transform="translate(13,18)"/>
</svg>
