<?xml version="1.0" encoding="UTF-8"?>
<svg version="1.1" xmlns="http://www.w3.org/2000/svg" width="28" height="28">
<path d="M0,0 L28,0 L28,28 L0,28 Z " fill="#020202" transform="translate(0,0)"/>
<path d="M0,0 L11,0 L11,4 L3,10 L1,18 L-2,20 L-7,20 L-8,15 L-2,10 L-4,6 L-3,2 Z " fill="#EFEFEF" transform="translate(13,6)"/>
<path d="M0,0 L4,0 L5,6 L2,8 L-3,8 L-4,3 Z " fill="#DEDEDE" transform="translate(9,18)"/>
<path d="M0,0 L11,0 L11,4 L8,4 L8,1 L4,1 L3,6 L1,8 L-1,6 L-1,3 L1,2 Z " fill="#C9C9C9" transform="translate(13,6)"/>
<path d="M0,0 L3,1 L2,5 L-1,6 L-2,4 L-4,7 L-3,2 Z " fill="#7B7B7B" transform="translate(9,18)"/>
<path d="M0,0 L1,2 L-2,6 L-4,4 L-4,1 Z " fill="#282828" transform="translate(16,8)"/>
</svg>
