<?xml version="1.0" encoding="UTF-8"?>
<svg version="1.1" xmlns="http://www.w3.org/2000/svg" width="28" height="28">
<path d="M0,0 L28,0 L28,28 L0,28 Z " fill="#020202" transform="translate(0,0)"/>
<path d="M0,0 L5,1 L7,2 L5,6 L-1,9 L-3,17 L-7,20 L-11,19 L-10,13 L-7,12 L-6,4 Z " fill="#E9E9E9" transform="translate(17,5)"/>
<path d="M0,0 L5,1 L7,2 L5,6 L1,7 L-4,8 L-4,6 L-6,6 L-6,4 Z " fill="#E2E2E2" transform="translate(17,5)"/>
<path d="M0,0 L1,0 L2,6 L-2,9 L-6,8 L-5,4 L-4,5 Z " fill="#8A8A8A" transform="translate(12,16)"/>
<path d="M0,0 L3,0 L3,3 L-2,6 L-4,6 L-2,2 Z " fill="#2A2A2A" transform="translate(17,7)"/>
</svg>
