<?xml version="1.0" encoding="UTF-8"?>
<svg version="1.1" xmlns="http://www.w3.org/2000/svg" width="28" height="28">
<path d="M0,0 L28,0 L28,28 L0,28 Z " fill="#040404" transform="translate(0,0)"/>
<path d="M0,0 L5,1 L7,3 L8,9 L10,10 L10,17 L5,20 L-2,20 L-4,18 L-3,13 L-6,11 L-6,5 Z " fill="#E2E2E2" transform="translate(13,4)"/>
<path d="M0,0 L5,1 L5,6 L-3,8 L-4,4 Z " fill="#101010" transform="translate(13,6)"/>
<path d="M0,0 L5,1 L5,5 L1,7 L-5,6 L-5,3 Z " fill="#101010" transform="translate(16,15)"/>
<path d="M0,0 L4,1 L-2,5 L-5,9 L-6,5 Z " fill="#D0D0D0" transform="translate(13,4)"/>
</svg>
