<?xml version="1.0" encoding="UTF-8"?>
<svg version="1.1" xmlns="http://www.w3.org/2000/svg" width="28" height="28">
<path d="M0,0 L28,0 L28,28 L0,28 Z " fill="#010101" transform="translate(0,0)"/>
<path d="M0,0 L6,1 L7,6 L3,8 L3,10 L-1,11 L-2,16 L-3,19 L-10,20 L-11,16 L-5,11 L-6,5 L-5,3 Z " fill="#DADADA" transform="translate(17,5)"/>
<path d="M0,0 L6,1 L7,6 L4,6 L3,4 L-2,3 Z " fill="#DFDFDF" transform="translate(17,5)"/>
<path d="M0,0 L3,1 L2,4 L-1,6 L-4,6 L-4,3 L-1,3 Z " fill="#131313" transform="translate(18,8)"/>
</svg>
