<?xml version="1.0" encoding="UTF-8"?>
<svg version="1.1" xmlns="http://www.w3.org/2000/svg" width="28" height="28">
<path d="M0,0 L28,0 L28,28 L0,28 Z " fill="#020202" transform="translate(0,0)"/>
<path d="M0,0 L6,0 L10,4 L11,14 L7,19 L5,20 L-2,20 L-5,17 L-4,3 Z " fill="#E8E8E8" transform="translate(12,4)"/>
<path d="M0,0 L6,0 L10,4 L10,10 L8,7 L2,9 L-2,9 L-4,3 Z " fill="#E0E0E0" transform="translate(12,4)"/>
<path d="M0,0 L4,1 L0,5 L-7,5 L-7,1 Z " fill="#090909" transform="translate(17,16)"/>
<path d="M0,0 L5,1 L6,4 L0,6 L-3,6 L-2,1 Z " fill="#1C1C1C" transform="translate(14,7)"/>
<path d="M0,0 L2,0 L0,5 L-4,8 L-9,6 L-9,5 L-2,4 Z " fill="#CACACA" transform="translate(21,16)"/>
</svg>
