<?xml version="1.0" encoding="UTF-8"?>
<svg version="1.1" xmlns="http://www.w3.org/2000/svg" width="28" height="28">
<path d="M0,0 L28,0 L28,28 L0,28 Z " fill="#010101" transform="translate(0,0)"/>
<path d="M0,0 L7,1 L7,3 L4,6 L1,12 L4,13 L5,18 L2,20 L-3,20 L-4,19 L-4,12 L-6,10 L-6,5 Z " fill="#C2C2C2" transform="translate(14,5)"/>
<path d="M0,0 L7,1 L7,3 L4,6 L1,12 L0,12 L1,5 L2,3 L-5,7 L-5,4 Z " fill="#DCDCDC" transform="translate(14,5)"/>
<path d="M0,0 L2,0 L0,5 L-2,7 L-4,6 L-4,3 Z " fill="#1E1E1E" transform="translate(14,8)"/>
</svg>
