<?xml version="1.0" encoding="UTF-8"?>
<svg version="1.1" xmlns="http://www.w3.org/2000/svg" width="28" height="28">
<path d="M0,0 L28,0 L28,28 L0,28 Z " fill="#030303" transform="translate(0,0)"/>
<path d="M0,0 L5,0 L5,7 L1,9 L4,13 L4,18 L1,20 L-4,19 L-7,18 L-8,14 L-7,12 L-5,12 L-5,10 L-7,10 L-7,5 L-4,2 Z " fill="#E6E6E6" transform="translate(15,5)"/>
<path d="M0,0 L5,0 L5,6 L3,6 L3,4 L-4,5 Z " fill="#EDEDED" transform="translate(15,5)"/>
<path d="M0,0 L5,1 L5,4 L0,4 Z " fill="#161616" transform="translate(11,18)"/>
<path d="M0,0 L3,0 L2,3 L-3,5 L-3,1 Z " fill="#212121" transform="translate(15,9)"/>
</svg>
