<?xml version="1.0" encoding="UTF-8"?>
<svg version="1.1" xmlns="http://www.w3.org/2000/svg" width="28" height="28">
<path d="M0,0 L28,0 L28,28 L0,28 Z " fill="#010101" transform="translate(0,0)"/>
<path d="M0,0 L5,1 L4,5 L2,8 L0,16 L-4,20 L-9,19 L-8,15 L-2,8 L-5,8 L-4,4 Z " fill="#B0B0B0" transform="translate(16,5)"/>
<path d="M0,0 L1,4 L-3,8 L-5,8 L-4,3 Z " fill="#0B0B0B" transform="translate(14,16)"/>
<path d="M0,0 L1,3 L-1,6 L-5,5 L-5,3 Z " fill="#111111" transform="translate(18,6)"/>
</svg>
