<?xml version="1.0" encoding="UTF-8"?>
<svg version="1.1" xmlns="http://www.w3.org/2000/svg" width="28" height="28">
<path d="M0,0 L28,0 L28,28 L0,28 Z " fill="#020202" transform="translate(0,0)"/>
<path d="M0,0 L6,0 L5,4 L2,5 L0,9 L-2,9 L1,13 L0,18 L-3,20 L-9,20 L-10,15 L-6,10 L-8,6 L-6,6 L-4,2 Z " fill="#C7C7C7" transform="translate(17,5)"/>
<path d="M0,0 L6,0 L5,4 L-1,7 L-4,9 L-5,5 L-4,2 Z " fill="#C1C1C1" transform="translate(17,5)"/>
<path d="M0,0 L4,1 L5,4 L3,6 L-4,6 L-1,1 Z " fill="#111111" transform="translate(12,17)"/>
<path d="M0,0 L2,2 L-5,7 L-6,3 Z " fill="#1B1B1B" transform="translate(18,7)"/>
</svg>
