<?xml version="1.0" encoding="UTF-8"?>
<svg version="1.1" xmlns="http://www.w3.org/2000/svg" width="28" height="28">
<path d="M0,0 L28,0 L28,28 L0,28 Z " fill="#030303" transform="translate(0,0)"/>
<path d="M0,0 L5,0 L6,4 L9,4 L8,9 L2,12 L0,12 L1,19 L-8,20 L-7,13 L-5,11 L-4,2 Z " fill="#E0E0E0" transform="translate(14,5)"/>
<path d="M0,0 L5,0 L6,5 L-1,4 L-2,7 L-4,8 L-4,2 Z " fill="#E1E1E1" transform="translate(14,5)"/>
<path d="M0,0 L4,2 L0,5 L-3,6 L-4,4 L-3,1 Z " fill="#141414" transform="translate(16,8)"/>
</svg>
