<?xml version="1.0" encoding="UTF-8"?>
<svg version="1.1" xmlns="http://www.w3.org/2000/svg" width="28" height="28">
<path d="M0,0 L28,0 L28,28 L0,28 Z " fill="#010101" transform="translate(0,0)"/>
<path d="M0,0 L5,1 L6,5 L0,11 L0,18 L-2,20 L-6,19 L-5,13 L-4,10 L-4,4 Z " fill="#B2B2B2" transform="translate(15,5)"/>
<path d="M0,0 L5,1 L6,5 L0,10 L1,6 L3,3 L-1,4 L-2,9 L-3,9 L-3,2 Z " fill="#D9D9D9" transform="translate(15,5)"/>
<path d="M0,0 L4,1 L-1,7 L-2,7 L-2,2 Z " fill="#2B2B2B" transform="translate(15,7)"/>
<path d="M0,0 L1,4 L3,4 L3,1 L5,1 L4,5 L0,6 L-1,1 Z " fill="#EBEBEB" transform="translate(10,19)"/>
</svg>
