<?xml version="1.0" encoding="UTF-8"?>
<svg version="1.1" xmlns="http://www.w3.org/2000/svg" width="28" height="28">
<path d="M0,0 L28,0 L28,28 L0,28 Z " fill="#020202" transform="translate(0,0)"/>
<path d="M0,0 L6,1 L7,7 L2,12 L-1,19 L-6,20 L-8,18 L-7,13 L-2,10 L-2,5 L1,6 L1,8 L3,7 L4,3 L-1,4 Z " fill="#DEDEDE" transform="translate(15,4)"/>
<path d="M0,0 L4,1 L3,5 L-3,6 L-2,1 Z " fill="#838383" transform="translate(10,16)"/>
<path d="M0,0 L6,1 L5,6 L3,6 L0,3 Z " fill="#1A1A1A" transform="translate(13,6)"/>
</svg>
