<?xml version="1.0" encoding="UTF-8"?>
<svg version="1.1" xmlns="http://www.w3.org/2000/svg" width="28" height="28">
<path d="M0,0 L28,0 L28,28 L0,28 Z " fill="#020202" transform="translate(0,0)"/>
<path d="M0,0 L6,0 L8,1 L7,6 L5,8 L6,13 L7,14 L7,19 L5,20 L-1,20 L-2,15 L0,8 L-1,5 L1,5 L1,7 L5,3 L-2,2 L-3,5 L-4,2 Z " fill="#D2D2D2" transform="translate(12,5)"/>
<path d="M0,0 L1,2 L0,5 L5,4 L5,1 L7,1 L7,6 L5,7 L-1,7 L-2,2 Z " fill="#DEDEDE" transform="translate(12,18)"/>
<path d="M0,0 L2,1 L1,6 L-2,6 L-1,1 Z " fill="#161616" transform="translate(14,17)"/>
<path d="M0,0 L3,4 L1,8 L-1,4 L-3,4 L-2,1 L0,2 Z " fill="#C2C2C2" transform="translate(15,14)"/>
</svg>
