<?xml version="1.0" encoding="UTF-8"?>
<svg version="1.1" xmlns="http://www.w3.org/2000/svg" width="28" height="28">
<path d="M0,0 L28,0 L28,28 L0,28 Z " fill="#020202" transform="translate(0,0)"/>
<path d="M0,0 L9,0 L12,3 L12,8 L14,10 L13,16 L7,20 L-1,20 L-4,17 L-3,4 Z " fill="#DBDBDB" transform="translate(10,5)"/>
<path d="M0,0 L4,2 L3,6 L-1,9 L-8,9 L-10,5 L-7,2 Z " fill="#090909" transform="translate(18,14)"/>
<path d="M0,0 L6,0 L7,5 L-2,7 L-4,6 L-3,3 L-1,3 Z " fill="#101010" transform="translate(12,7)"/>
</svg>
