<?xml version="1.0" encoding="UTF-8"?>
<svg version="1.1" xmlns="http://www.w3.org/2000/svg" width="28" height="28">
<path d="M0,0 L28,0 L28,28 L0,28 Z " fill="#010101" transform="translate(0,0)"/>
<path d="M0,0 L9,1 L11,3 L10,9 L10,12 L11,17 L8,20 L-2,20 L-1,14 L0,11 L-3,8 L-2,1 Z " fill="#E8E8E8" transform="translate(10,4)"/>
<path d="M0,0 L7,1 L8,5 L3,7 L-1,6 L-2,1 Z " fill="#0C0C0C" transform="translate(11,6)"/>
<path d="M0,0 L9,1 L11,3 L11,7 L9,7 L8,4 L1,3 L-1,3 L0,8 L-3,8 L-2,1 Z " fill="#D1D1D1" transform="translate(10,4)"/>
<path d="M0,0 L5,1 L5,5 L2,7 L-2,7 L-1,1 Z " fill="#181818" transform="translate(13,16)"/>
<path d="M0,0 L1,4 L-2,7 L-12,7 L-11,4 L-9,3 L-9,6 L0,3 Z " fill="#C0C0C0" transform="translate(20,17)"/>
</svg>
