<?xml version="1.0" encoding="UTF-8"?>
<svg version="1.1" xmlns="http://www.w3.org/2000/svg" width="28" height="28">
<path d="M0,0 L28,0 L28,28 L0,28 Z " fill="#020202" transform="translate(0,0)"/>
<path d="M0,0 L5,1 L8,3 L8,5 L6,5 L5,10 L7,16 L3,20 L-2,18 L-4,15 L-3,11 L-5,9 L-4,3 Z " fill="#C8C8C8" transform="translate(13,5)"/>
<path d="M0,0 L5,1 L8,3 L8,5 L6,5 L5,10 L7,16 L3,20 L0,19 L4,16 L3,11 L0,9 L4,6 L5,3 L-1,5 L-4,7 L-3,2 Z " fill="#E2E2E2" transform="translate(13,5)"/>
<path d="M0,0 L4,2 L3,7 L-2,7 L-3,3 Z " fill="#131313" transform="translate(14,15)"/>
<path d="M0,0 L5,0 L4,4 L3,5 L-2,5 L-1,1 Z " fill="#181818" transform="translate(13,8)"/>
</svg>
