<?xml version="1.0" encoding="UTF-8"?>
<svg version="1.1" xmlns="http://www.w3.org/2000/svg" width="28" height="28">
<path d="M0,0 L28,0 L28,28 L0,28 Z " fill="#010101" transform="translate(0,0)"/>
<path d="M0,0 L3,1 L4,8 L3,14 L4,15 L4,20 L2,16 L0,15 L0,20 L-2,20 L-2,11 L-3,7 L-1,3 L1,2 Z " fill="#BABABA" transform="translate(13,5)"/>
<path d="M0,0 L3,1 L4,8 L2,10 L2,5 L-1,5 L-1,11 L-3,7 L-1,3 L1,2 Z " fill="#BEBEBE" transform="translate(13,5)"/>
<path d="M0,0 L3,0 L2,7 L0,6 Z " fill="#171717" transform="translate(12,10)"/>
</svg>
