<?xml version="1.0" encoding="UTF-8"?>
<svg version="1.1" xmlns="http://www.w3.org/2000/svg" width="28" height="28">
<path d="M0,0 L28,0 L28,28 L0,28 Z " fill="#030303" transform="translate(0,0)"/>
<path d="M0,0 L2,0 L1,5 L-1,9 L0,14 L-5,19 L-9,20 L-11,19 L-11,14 L-9,11 L-13,9 L-12,4 L-9,1 Z " fill="#F1F1F1" transform="translate(20,5)"/>
<path d="M0,0 L2,0 L1,5 L-2,7 L-9,8 L-9,10 L-13,9 L-12,4 L-9,1 Z " fill="#E7E7E7" transform="translate(20,5)"/>
<path d="M0,0 L5,1 L3,6 L-1,8 L-3,7 L-2,2 Z " fill="#C9C9C9" transform="translate(15,16)"/>
<path d="M0,0 L6,0 L2,5 L-2,5 L-1,1 Z " fill="#252525" transform="translate(13,8)"/>
<path d="M0,0 L4,0 L4,5 L0,4 Z " fill="#CFCFCF" transform="translate(7,10)"/>
<path d="M0,0 L2,0 L1,4 L-3,6 L-1,1 Z " fill="#111111" transform="translate(15,16)"/>
</svg>
