<?xml version="1.0" encoding="UTF-8"?>
<svg version="1.1" xmlns="http://www.w3.org/2000/svg" width="28" height="28">
<path d="M0,0 L28,0 L28,28 L0,28 Z " fill="#030303" transform="translate(0,0)"/>
<path d="M0,0 L6,0 L5,6 L0,11 L-1,18 L-6,20 L-10,20 L-9,15 L-5,11 L-5,3 Z " fill="#A9A9A9" transform="translate(16,5)"/>
<path d="M0,0 L6,0 L5,6 L2,9 L-5,9 L-5,3 Z " fill="#DCDCDC" transform="translate(16,5)"/>
<path d="M0,0 L1,0 L1,5 L6,4 L4,7 L3,12 L1,11 L1,9 L-1,8 Z " fill="#EEEEEE" transform="translate(12,9)"/>
<path d="M0,0 L3,0 L2,4 L-2,6 L-1,1 Z " fill="#171717" transform="translate(15,8)"/>
</svg>
