<?xml version="1.0" encoding="UTF-8"?>
<svg version="1.1" xmlns="http://www.w3.org/2000/svg" width="28" height="28">
<path d="M0,0 L28,0 L28,28 L0,28 Z " fill="#020202" transform="translate(0,0)"/>
<path d="M0,0 L8,0 L11,1 L11,6 L10,7 L15,10 L14,16 L6,20 L-1,20 L-4,17 L-3,11 L-3,8 L-3,3 Z " fill="#D5D5D5" transform="translate(10,5)"/>
<path d="M0,0 L7,1 L8,5 L1,9 L-5,9 L-6,8 L-6,3 L-4,1 Z " fill="#0B0B0B" transform="translate(15,14)"/>
<path d="M0,0 L8,0 L9,2 L1,3 L0,7 L5,7 L0,12 L-2,13 L-3,3 Z " fill="#D9D9D9" transform="translate(10,5)"/>
<path d="M0,0 L8,1 L7,4 L2,6 L-2,5 L-1,1 Z " fill="#0E0E0E" transform="translate(11,7)"/>
<path d="M0,0 L2,0 L2,5 L1,6 L3,8 L1,9 L-7,9 L-5,5 L-1,4 L0,2 L-3,1 Z " fill="#BCBCBC" transform="translate(19,6)"/>
<path d="M0,0 L1,3 L8,3 L3,8 L1,9 Z " fill="#F4F4F4" transform="translate(7,9)"/>
</svg>
