<?xml version="1.0" encoding="UTF-8"?>
<svg version="1.1" xmlns="http://www.w3.org/2000/svg" width="28" height="28">
<path d="M0,0 L28,0 L28,28 L0,28 Z " fill="#020202" transform="translate(0,0)"/>
<path d="M0,0 L5,0 L9,4 L7,8 L2,9 L3,18 L-1,20 L-6,20 L-7,19 L-7,13 L-3,10 L-3,3 Z " fill="#DADADA" transform="translate(14,4)"/>
<path d="M0,0 L2,0 L3,6 L-3,7 L-3,2 Z " fill="#151515" transform="translate(12,15)"/>
<path d="M0,0 L3,1 L4,4 L3,5 L-2,5 L-2,1 Z " fill="#0D0D0D" transform="translate(16,6)"/>
</svg>
