<?xml version="1.0" encoding="UTF-8"?>
<svg version="1.1" xmlns="http://www.w3.org/2000/svg" width="28" height="28">
<path d="M0,0 L28,0 L28,28 L0,28 Z " fill="#010101" transform="translate(0,0)"/>
<path d="M0,0 L4,1 L3,9 L2,12 L0,12 L0,18 L-2,20 L-6,20 L-5,15 L-4,14 L-2,3 Z " fill="#868686" transform="translate(15,4)"/>
<path d="M0,0 L2,0 L2,4 L0,4 L0,10 L-2,12 L-6,12 L-5,7 L-2,3 L0,3 Z " fill="#C0C0C0" transform="translate(15,12)"/>
<path d="M0,0 L4,1 L4,6 L2,7 L1,3 L0,7 L-2,7 L-1,2 Z " fill="#CFCFCF" transform="translate(15,4)"/>
</svg>
