<?xml version="1.0" encoding="UTF-8"?>
<svg version="1.1" xmlns="http://www.w3.org/2000/svg" width="28" height="28">
<path d="M0,0 L28,0 L28,28 L0,28 Z " fill="#010101" transform="translate(0,0)"/>
<path d="M0,0 L5,1 L7,5 L8,19 L6,20 L0,20 L-2,17 L-2,12 L1,11 L-2,5 L-1,1 Z " fill="#C8C8C8" transform="translate(12,4)"/>
<path d="M0,0 L2,1 L1,3 L4,4 L5,10 L1,11 L-2,5 L-1,1 Z " fill="#A5A5A5" transform="translate(12,4)"/>
<path d="M0,0 L4,2 L4,7 L1,4 L-2,4 Z " fill="#EFEFEF" transform="translate(14,4)"/>
</svg>
