<?xml version="1.0" encoding="UTF-8"?>
<svg version="1.1" xmlns="http://www.w3.org/2000/svg" width="28" height="28">
<path d="M0,0 L28,0 L28,28 L0,28 Z " fill="#010101" transform="translate(0,0)"/>
<path d="M0,0 L6,0 L8,2 L10,2 L10,4 L3,9 L5,15 L6,19 L5,20 L-2,20 L-4,17 L-3,11 L-2,7 L-2,2 Z " fill="#C5C5C5" transform="translate(13,5)"/>
<path d="M0,0 L4,5 L4,8 L-2,7 L-2,2 Z " fill="#111111" transform="translate(13,16)"/>
<path d="M0,0 L5,0 L6,3 L2,6 L0,6 L-1,1 Z " fill="#1B1B1B" transform="translate(13,7)"/>
</svg>
