<?xml version="1.0" encoding="UTF-8"?>
<svg version="1.1" xmlns="http://www.w3.org/2000/svg" width="28" height="28">
<path d="M0,0 L28,0 L28,28 L0,28 Z " fill="#020202" transform="translate(0,0)"/>
<path d="M0,0 L5,1 L4,6 L1,10 L0,18 L-4,20 L-11,20 L-11,16 L-9,16 L-8,13 L-5,11 L-8,7 L-7,2 Z " fill="#E9E9E9" transform="translate(18,4)"/>
<path d="M0,0 L2,1 L2,2 L6,3 L4,8 L-1,9 L-3,6 L-2,1 Z " fill="#D3D3D3" transform="translate(13,5)"/>
<path d="M0,0 L5,1 L4,6 L0,10 L-1,8 L0,4 L-5,4 L-3,1 Z " fill="#E5E5E5" transform="translate(18,4)"/>
<path d="M0,0 L6,0 L5,4 L1,3 L-1,3 Z M-3,3 L-1,4 L-4,6 Z " fill="#878787" transform="translate(10,17)"/>
<path d="M0,0 L4,1 L2,6 L-1,5 L-2,2 Z " fill="#131313" transform="translate(15,7)"/>
</svg>
