<?xml version="1.0" encoding="UTF-8"?>
<svg version="1.1" xmlns="http://www.w3.org/2000/svg" width="28" height="28">
<path d="M0,0 L28,0 L28,28 L0,28 Z " fill="#020202" transform="translate(0,0)"/>
<path d="M0,0 L7,0 L10,2 L8,8 L6,8 L5,18 L1,20 L-6,20 L-5,16 L1,11 L0,6 L-1,1 Z " fill="#EEEEEE" transform="translate(12,4)"/>
<path d="M0,0 L7,0 L10,2 L8,8 L3,7 L-1,5 Z " fill="#D8D8D8" transform="translate(12,4)"/>
<path d="M0,0 L4,0 L3,4 L-2,5 L-3,7 L-5,7 L-4,3 Z " fill="#9C9C9C" transform="translate(11,17)"/>
<path d="M0,0 L4,1 L2,6 L-1,3 Z " fill="#151515" transform="translate(15,6)"/>
</svg>
