<?xml version="1.0" encoding="UTF-8"?>
<svg version="1.1" xmlns="http://www.w3.org/2000/svg" width="28" height="28">
<path d="M0,0 L28,0 L28,28 L0,28 Z " fill="#020202" transform="translate(0,0)"/>
<path d="M0,0 L5,0 L6,4 L4,5 L4,3 L-1,5 L0,7 L5,6 L9,4 L12,4 L12,6 L7,9 L5,9 L9,15 L8,19 L7,20 L2,20 L-1,18 L-2,10 L-4,8 L-3,2 Z " fill="#E4E4E4" transform="translate(12,5)"/>
<path d="M0,0 L8,1 L7,5 L6,6 L1,6 L0,2 Z " fill="#999999" transform="translate(13,19)"/>
<path d="M0,0 L4,0 L5,4 L0,5 L-2,2 Z " fill="#242424" transform="translate(12,8)"/>
</svg>
