<?xml version="1.0" encoding="UTF-8"?>
<svg version="1.1" xmlns="http://www.w3.org/2000/svg" width="28" height="28">
<path d="M0,0 L28,0 L28,28 L0,28 Z " fill="#020202" transform="translate(0,0)"/>
<path d="M0,0 L5,1 L5,5 L2,5 L0,10 L0,16 L-4,20 L-13,20 L-12,16 L-6,12 L-7,2 Z " fill="#C7C7C7" transform="translate(18,4)"/>
<path d="M0,0 L5,1 L5,5 L2,5 L2,7 L-1,7 L0,3 L-5,4 L-3,1 Z " fill="#E7E7E7" transform="translate(18,4)"/>
<path d="M0,0 L2,1 L1,4 L3,4 L3,6 L-3,6 L-2,2 Z M3,3 Z " fill="#F1F1F1" transform="translate(8,18)"/>
<path d="M0,0 L4,1 L3,4 L-1,5 Z " fill="#A2A2A2" transform="translate(10,17)"/>
</svg>
