<?xml version="1.0" encoding="UTF-8"?>
<svg version="1.1" xmlns="http://www.w3.org/2000/svg" width="28" height="28">
<path d="M0,0 L28,0 L28,28 L0,28 Z " fill="#030303" transform="translate(0,0)"/>
<path d="M0,0 L5,1 L4,3 L1,4 L3,6 L11,5 L7,11 L11,13 L12,18 L8,20 L2,19 L0,17 L1,9 L-2,5 L-2,1 Z " fill="#D8D8D8" transform="translate(10,3)"/>
<path d="M0,0 L3,4 L9,4 L9,7 L3,8 L-2,5 L-1,1 Z " fill="#F1F1F1" transform="translate(12,15)"/>
<path d="M0,0 L5,1 L4,3 L1,4 L3,7 L1,9 L-2,5 L-2,1 Z " fill="#D1D1D1" transform="translate(10,3)"/>
<path d="M0,0 L5,2 L5,5 L0,4 Z " fill="#111111" transform="translate(14,15)"/>
</svg>
