<?xml version="1.0" encoding="UTF-8"?>
<svg version="1.1" xmlns="http://www.w3.org/2000/svg" width="28" height="28">
<path d="M0,0 L28,0 L28,28 L0,28 Z " fill="#020202" transform="translate(0,0)"/>
<path d="M0,0 L5,0 L4,3 L-2,3 L-4,4 L-4,8 L0,7 L0,4 L2,4 L1,8 L-1,11 L-1,17 L-3,20 L-8,20 L-9,19 L-9,14 L-6,9 L-8,6 L-7,2 Z " fill="#E7E7E7" transform="translate(18,5)"/>
<path d="M0,0 L3,1 L3,7 L0,10 L-3,8 L-2,3 Z " fill="#969696" transform="translate(14,15)"/>
<path d="M0,0 L6,0 L2,2 L2,5 L-2,6 L-3,2 Z " fill="#1E1E1E" transform="translate(16,7)"/>
</svg>
