<?xml version="1.0" encoding="UTF-8"?>
<svg version="1.1" xmlns="http://www.w3.org/2000/svg" width="28" height="28">
<path d="M0,0 L28,0 L28,28 L0,28 Z " fill="#030303" transform="translate(0,0)"/>
<path d="M0,0 L5,0 L7,2 L6,7 L4,12 L5,17 L2,20 L-3,20 L-3,15 L-1,14 L-1,18 L2,16 L2,14 L-1,12 L-5,9 L-9,6 L-8,2 L-5,2 L-4,3 Z " fill="#DBDBDB" transform="translate(15,5)"/>
<path d="M0,0 L3,0 L5,4 L4,9 L2,11 L-3,11 L-3,6 L-1,5 L-1,9 L2,7 L2,5 L-1,3 Z " fill="#EEEEEE" transform="translate(15,14)"/>
<path d="M0,0 L3,0 L2,6 L-1,7 L-4,5 L-2,1 Z " fill="#121212" transform="translate(16,7)"/>
<path d="M0,0 L5,0 L5,4 L2,5 Z " fill="#6D6D6D" transform="translate(12,18)"/>
</svg>
