<?xml version="1.0" encoding="UTF-8"?>
<svg version="1.1" xmlns="http://www.w3.org/2000/svg" width="28" height="28">
<path d="M0,0 L28,0 L28,28 L0,28 Z " fill="#020202" transform="translate(0,0)"/>
<path d="M0,0 L4,0 L4,6 L1,10 L2,12 L2,18 L0,20 L-4,19 L-8,15 L-7,10 L-6,8 L-10,6 L-8,2 Z " fill="#A8A8A8" transform="translate(17,6)"/>
<path d="M0,0 L2,0 L2,3 L7,4 L10,3 L9,8 L5,9 L0,4 Z " fill="#E7E7E7" transform="translate(9,17)"/>
<path d="M0,0 L3,0 L2,4 L4,5 L2,8 L2,6 L-2,4 Z " fill="#E9E9E9" transform="translate(9,8)"/>
</svg>
