<?xml version="1.0" encoding="UTF-8"?>
<svg version="1.1" xmlns="http://www.w3.org/2000/svg" width="28" height="28">
<path d="M0,0 L28,0 L28,28 L0,28 Z " fill="#020202" transform="translate(0,0)"/>
<path d="M0,0 L7,1 L7,7 L5,9 L4,16 L0,20 L-5,20 L-5,14 L0,9 L1,6 L-1,6 L-1,1 Z " fill="#ECECEC" transform="translate(13,5)"/>
<path d="M0,0 L2,2 L1,6 L-2,8 L-2,6 L-5,5 Z " fill="#7F7F7F" transform="translate(15,16)"/>
<path d="M0,0 L3,1 L5,2 L4,6 L0,6 L-1,6 L-1,1 Z " fill="#8A8A8A" transform="translate(13,5)"/>
</svg>
