<?xml version="1.0" encoding="UTF-8"?>
<svg version="1.1" xmlns="http://www.w3.org/2000/svg" width="28" height="28">
<path d="M0,0 L28,0 L28,28 L0,28 Z " fill="#020202" transform="translate(0,0)"/>
<path d="M0,0 L4,0 L2,8 L0,11 L-2,18 L-4,20 L-7,20 L-7,14 L-6,13 L-6,8 L-8,3 L-7,1 Z " fill="#BFBFBF" transform="translate(17,6)"/>
<path d="M0,0 L3,0 L3,7 L0,10 L-3,10 L-3,4 Z " fill="#F0F0F0" transform="translate(13,16)"/>
<path d="M0,0 L4,0 L3,5 L2,3 L-5,4 L-4,9 L-8,5 L-7,1 Z " fill="#EDEDED" transform="translate(17,6)"/>
<path d="M0,0 L6,0 L4,4 L1,4 Z " fill="#171717" transform="translate(12,10)"/>
<path d="M0,0 L1,0 L1,6 L-4,7 L-2,2 L0,2 Z " fill="#878787" transform="translate(15,17)"/>
</svg>
