<?xml version="1.0" encoding="UTF-8"?>
<svg version="1.1" xmlns="http://www.w3.org/2000/svg" width="28" height="28">
<path d="M0,0 L28,0 L28,28 L0,28 Z " fill="#020202" transform="translate(0,0)"/>
<path d="M0,0 L4,0 L5,7 L5,11 L3,13 L3,15 L-2,16 L-1,20 L-5,20 L-5,15 L-2,12 L-4,7 L-3,2 Z " fill="#D8D8D8" transform="translate(14,4)"/>
<path d="M0,0 L3,0 L4,4 L-1,5 L0,9 L-4,9 L-4,4 Z " fill="#E4E4E4" transform="translate(13,15)"/>
<path d="M0,0 L5,1 L3,5 L-1,5 L-1,1 Z " fill="#6D6D6D" transform="translate(13,18)"/>
<path d="M0,0 L3,0 L2,5 L1,7 L3,8 L0,8 L-2,2 Z " fill="#1F1F1F" transform="translate(14,6)"/>
</svg>
