<?xml version="1.0" encoding="UTF-8"?>
<svg version="1.1" xmlns="http://www.w3.org/2000/svg" width="28" height="28">
<path d="M0,0 L28,0 L28,28 L0,28 Z " fill="#010101" transform="translate(0,0)"/>
<path d="M0,0 L5,0 L5,5 L-2,11 L-4,18 L-8,20 L-12,20 L-11,15 L-8,12 L-8,4 L-5,4 L-5,8 L0,6 L3,2 L-2,2 L-3,5 L-3,1 Z " fill="#BCBCBC" transform="translate(18,5)"/>
<path d="M0,0 L7,0 L5,4 L1,7 L-2,6 L-2,2 L0,2 Z " fill="#121212" transform="translate(14,7)"/>
<path d="M0,0 L5,0 L5,5 L0,9 L-3,8 L2,4 L3,2 L-2,2 L-3,5 L-3,1 Z " fill="#DDDDDD" transform="translate(18,5)"/>
<path d="M0,0 L5,0 L3,4 L1,5 L-1,3 Z " fill="#3A3A3A" transform="translate(16,7)"/>
</svg>
