<?xml version="1.0" encoding="UTF-8"?>
<svg version="1.1" xmlns="http://www.w3.org/2000/svg" width="28" height="28">
<path d="M0,0 L28,0 L28,28 L0,28 Z " fill="#020202" transform="translate(0,0)"/>
<path d="M0,0 L5,0 L6,4 L1,10 L0,17 L-4,20 L-8,19 L-8,15 L-4,11 L-4,8 L-6,7 L-5,3 Z " fill="#DBDBDB" transform="translate(16,5)"/>
<path d="M0,0 L3,0 L2,9 L-2,12 L-6,11 L-6,7 L-2,3 L0,3 Z " fill="#E3E3E3" transform="translate(14,13)"/>
<path d="M0,0 L2,0 L4,4 L1,6 L-2,5 L-1,1 Z " fill="#737373" transform="translate(12,18)"/>
<path d="M0,0 L3,0 L1,4 L-2,5 L-4,4 L-3,1 Z " fill="#1E1E1E" transform="translate(17,7)"/>
</svg>
