<?xml version="1.0" encoding="UTF-8"?>
<svg version="1.1" xmlns="http://www.w3.org/2000/svg" width="28" height="28">
<path d="M0,0 L28,0 L28,28 L0,28 Z " fill="#030303" transform="translate(0,0)"/>
<path d="M0,0 L9,1 L8,5 L3,11 L5,13 L4,17 L-1,20 L-7,20 L-7,16 L-3,12 L-5,8 L-5,3 Z " fill="#E8E8E8" transform="translate(14,5)"/>
<path d="M0,0 L6,0 L4,4 L1,7 L-2,6 L-2,1 Z " fill="#2A2A2A" transform="translate(14,7)"/>
<path d="M0,0 L3,2 L2,6 L-2,8 L-2,6 L-6,5 L-3,2 L-1,2 Z " fill="#898989" transform="translate(16,16)"/>
</svg>
