<?xml version="1.0" encoding="UTF-8"?>
<svg version="1.1" xmlns="http://www.w3.org/2000/svg" width="28" height="28">
<path d="M0,0 L28,0 L28,28 L0,28 Z " fill="#030303" transform="translate(0,0)"/>
<path d="M0,0 L10,0 L15,2 L15,4 L10,6 L15,10 L17,12 L16,16 L9,16 L3,12 L4,7 L-3,4 L-2,1 Z " fill="#C0C0C0" transform="translate(7,7)"/>
<path d="M0,0 L10,0 L15,2 L15,4 L10,6 L15,10 L17,12 L16,16 L11,16 L14,14 L14,12 L6,8 L6,6 L8,6 L8,4 L10,4 L10,2 L0,2 L0,4 L5,5 L5,6 L-2,5 L-2,1 Z " fill="#E2E2E2" transform="translate(7,7)"/>
<path d="M0,0 L5,2 L8,4 L8,6 L1,6 L-1,4 Z " fill="#121212" transform="translate(14,15)"/>
<path d="M0,0 L6,0 L8,1 L8,3 L1,4 L-2,3 L-2,1 Z " fill="#222222" transform="translate(9,8)"/>
</svg>
