<?xml version="1.0" encoding="UTF-8"?>
<svg version="1.1" xmlns="http://www.w3.org/2000/svg" width="28" height="28">
<path d="M0,0 L28,0 L28,28 L0,28 Z " fill="#020202" transform="translate(0,0)"/>
<path d="M0,0 L6,0 L6,2 L-2,4 L-6,6 L-4,7 L2,4 L4,5 L-2,9 L-2,15 L-8,20 L-13,19 L-14,15 L-9,9 L-11,8 L-10,4 Z " fill="#EBEBEB" transform="translate(20,5)"/>
<path d="M0,0 L6,0 L9,0 L8,5 L3,9 L-2,8 L-3,4 Z " fill="#D9D9D9" transform="translate(9,16)"/>
<path d="M0,0 L6,0 L6,2 L-2,4 L-8,7 L-8,5 L-10,4 Z " fill="#CECECE" transform="translate(20,5)"/>
<path d="M0,0 L6,1 L4,3 L-2,5 L-6,6 L-6,3 Z " fill="#3C3C3C" transform="translate(20,7)"/>
<path d="M0,0 L2,0 L1,5 L-1,7 L-5,6 L-4,4 L-2,4 Z " fill="#202020" transform="translate(13,16)"/>
</svg>
