<?xml version="1.0" encoding="UTF-8"?>
<svg version="1.1" xmlns="http://www.w3.org/2000/svg" width="28" height="28">
<path d="M0,0 L28,0 L28,28 L0,28 Z " fill="#020202" transform="translate(0,0)"/>
<path d="M0,0 L5,0 L7,2 L8,9 L9,10 L8,17 L3,20 L-3,20 L-5,18 L-4,4 Z " fill="#EFEFEF" transform="translate(13,4)"/>
<path d="M0,0 L5,1 L6,5 L2,9 L0,10 L-6,10 L-8,8 L-8,3 Z " fill="#E4E4E4" transform="translate(16,14)"/>
<path d="M0,0 L5,0 L7,3 L6,6 L-2,7 L-4,9 L-4,4 Z " fill="#D7D7D7" transform="translate(13,4)"/>
<path d="M0,0 L4,1 L3,5 L0,7 L-5,6 L-5,2 Z " fill="#141414" transform="translate(16,14)"/>
<path d="M0,0 L3,1 L3,4 L-4,4 L-4,2 Z " fill="#2F2F2F" transform="translate(16,6)"/>
</svg>
