<?xml version="1.0" encoding="UTF-8"?>
<svg version="1.1" xmlns="http://www.w3.org/2000/svg" width="28" height="28">
<path d="M0,0 L28,0 L28,28 L0,28 Z " fill="#020202" transform="translate(0,0)"/>
<path d="M0,0 L2,1 L-7,10 L-7,18 L-9,20 L-15,19 L-14,13 L-14,9 L-16,6 L-11,3 L-8,1 L-3,1 L-7,4 L-12,5 L-12,8 L-8,7 Z " fill="#DEDEDE" transform="translate(23,5)"/>
<path d="M0,0 L1,0 L1,5 L3,6 L1,8 L-5,7 L-4,1 Z " fill="#888888" transform="translate(13,17)"/>
<path d="M0,0 L3,1 L-5,7 L-7,6 L-7,3 Z " fill="#212121" transform="translate(18,7)"/>
</svg>
