<?xml version="1.0" encoding="UTF-8"?>
<svg version="1.1" xmlns="http://www.w3.org/2000/svg" width="28" height="28">
<path d="M0,0 L28,0 L28,28 L0,28 Z " fill="#030303" transform="translate(0,0)"/>
<path d="M0,0 L7,1 L9,2 L10,0 L9,6 L1,10 L-1,10 L0,17 L-3,20 L-8,19 L-8,13 L-7,12 L-6,5 L-4,2 Z " fill="#E6E6E6" transform="translate(15,6)"/>
<path d="M0,0 L5,0 L6,4 L4,8 L-1,7 L-1,1 Z " fill="#B0B0B0" transform="translate(8,18)"/>
<path d="M0,0 L5,0 L6,3 L-3,7 L-5,7 L-4,2 Z " fill="#181818" transform="translate(16,8)"/>
<path d="M0,0 L7,1 L7,3 L5,3 L6,10 L4,11 L4,5 L0,5 Z " fill="#F0F0F0" transform="translate(9,13)"/>
<path d="M0,0 L3,1 L0,4 L-3,4 L-5,8 L-5,4 L-4,2 Z " fill="#C3C3C3" transform="translate(15,6)"/>
<path d="M0,0 L4,1 L4,3 L2,3 L2,5 L-1,5 Z " fill="#0D0D0D" transform="translate(10,19)"/>
</svg>
