<?xml version="1.0" encoding="UTF-8"?>
<svg version="1.1" xmlns="http://www.w3.org/2000/svg" width="28" height="28">
<path d="M0,0 L28,0 L28,28 L0,28 Z " fill="#020202" transform="translate(0,0)"/>
<path d="M0,0 L7,0 L8,1 L8,6 L5,9 L4,17 L1,20 L-4,19 L-3,13 L0,10 L-2,4 Z " fill="#DBDBDB" transform="translate(12,5)"/>
<path d="M0,0 L7,0 L8,1 L8,6 L4,9 L0,6 Z " fill="#C2C2C2" transform="translate(12,5)"/>
<path d="M0,0 L1,0 L0,7 L-4,9 L-4,4 Z " fill="#131313" transform="translate(14,15)"/>
<path d="M0,0 L5,0 L4,5 L0,5 L-1,1 Z " fill="#141414" transform="translate(13,7)"/>
</svg>
