<?xml version="1.0" encoding="UTF-8"?>
<svg version="1.1" xmlns="http://www.w3.org/2000/svg" width="28" height="28">
<path d="M0,0 L28,0 L28,28 L0,28 Z " fill="#020202" transform="translate(0,0)"/>
<path d="M0,0 L4,1 L4,2 L-1,3 L-1,6 L5,4 L4,7 L2,7 L3,16 L-1,20 L-4,20 L-4,2 Z " fill="#DBDBDB" transform="translate(15,4)"/>
<path d="M0,0 L1,3 L4,4 L3,11 L-1,12 L-1,4 Z " fill="#D9D9D9" transform="translate(12,12)"/>
<path d="M0,0 L2,1 L2,6 L-1,6 L-1,1 Z " fill="#272727" transform="translate(14,15)"/>
</svg>
