<?xml version="1.0" encoding="UTF-8"?>
<svg version="1.1" xmlns="http://www.w3.org/2000/svg" width="28" height="28">
<path d="M0,0 L28,0 L28,28 L0,28 Z " fill="#010101" transform="translate(0,0)"/>
<path d="M0,0 L6,0 L9,3 L8,10 L10,10 L12,13 L12,18 L9,20 L4,19 L1,16 L2,11 L3,8 L-1,7 L-2,6 L-2,1 Z " fill="#CDCDCD" transform="translate(9,5)"/>
<path d="M0,0 L3,4 L5,4 L5,1 L9,1 L9,6 L6,8 L1,7 L-1,6 L-1,1 Z " fill="#EBEBEB" transform="translate(12,17)"/>
<path d="M0,0 L4,2 L3,5 L-1,3 Z " fill="#2B2B2B" transform="translate(14,17)"/>
</svg>
