<?xml version="1.0" encoding="UTF-8"?>
<svg version="1.1" xmlns="http://www.w3.org/2000/svg" width="28" height="28">
<path d="M0,0 L28,0 L28,28 L0,28 Z " fill="#020202" transform="translate(0,0)"/>
<path d="M0,0 L5,0 L6,3 L-1,4 L-2,8 L2,4 L4,4 L3,12 L5,14 L4,18 L1,20 L-6,19 L-6,13 L-4,11 L-4,4 Z " fill="#E4E4E4" transform="translate(15,4)"/>
<path d="M0,0 L4,1 L4,5 L3,6 L-2,6 L-1,2 Z " fill="#151515" transform="translate(13,16)"/>
<path d="M0,0 L5,1 L3,3 L1,2 L-1,6 L-3,6 L-2,1 Z " fill="#292929" transform="translate(16,6)"/>
</svg>
