<?xml version="1.0" encoding="UTF-8"?>
<svg version="1.1" xmlns="http://www.w3.org/2000/svg" width="28" height="28">
<path d="M0,0 L28,0 L28,28 L0,28 Z " fill="#020202" transform="translate(0,0)"/>
<path d="M0,0 L7,0 L9,3 L5,9 L6,14 L2,19 L0,20 L-7,20 L-9,15 L-4,10 L-5,9 L-5,4 Z " fill="#E2E2E2" transform="translate(14,5)"/>
<path d="M0,0 L5,1 L3,6 L-2,8 L-5,8 L-4,4 Z " fill="#151515" transform="translate(13,15)"/>
<path d="M0,0 L5,0 L1,4 L-5,5 L-3,1 Z " fill="#131313" transform="translate(16,7)"/>
</svg>
