<?xml version="1.0" encoding="UTF-8"?>
<svg version="1.1" xmlns="http://www.w3.org/2000/svg" width="28" height="28">
<path d="M0,0 L28,0 L28,28 L0,28 Z " fill="#010101" transform="translate(0,0)"/>
<path d="M0,0 L4,0 L5,7 L3,10 L2,18 L0,20 L-6,20 L-5,14 L-3,10 L-5,7 L-4,3 Z " fill="#D8D8D8" transform="translate(15,5)"/>
<path d="M0,0 L4,0 L5,7 L4,5 L2,5 L1,8 L-3,6 L-4,3 Z " fill="#D5D5D5" transform="translate(15,5)"/>
<path d="M0,0 L2,0 L4,3 L6,3 L7,1 L9,1 L8,6 L7,9 L2,9 L1,4 Z " fill="#EBEBEB" transform="translate(10,9)"/>
<path d="M0,0 L3,0 L3,5 L1,6 L-2,5 Z " fill="#838383" transform="translate(14,18)"/>
<path d="M0,0 L3,0 L1,5 L-2,4 L-2,1 Z " fill="#181818" transform="translate(15,8)"/>
</svg>
