<?xml version="1.0" encoding="UTF-8"?>
<svg version="1.1" xmlns="http://www.w3.org/2000/svg" width="28" height="28">
<path d="M0,0 L28,0 L28,28 L0,28 Z " fill="#010101" transform="translate(0,0)"/>
<path d="M0,0 L2,0 L3,7 L-1,11 L-1,19 L-6,20 L-7,16 L-6,11 L-6,6 Z " fill="#BFBFBF" transform="translate(17,5)"/>
<path d="M0,0 L1,0 L1,5 L-2,8 L-4,8 L-3,3 Z " fill="#0C0C0C" transform="translate(17,7)"/>
<path d="M0,0 L1,0 L0,7 L-3,9 L-6,8 L-2,5 Z " fill="#C8C8C8" transform="translate(19,7)"/>
</svg>
