<?xml version="1.0" encoding="UTF-8"?>
<svg version="1.1" xmlns="http://www.w3.org/2000/svg" width="28" height="28">
<path d="M0,0 L28,0 L28,28 L0,28 Z " fill="#010101" transform="translate(0,0)"/>
<path d="M0,0 L3,0 L3,2 L0,4 L-1,8 L1,8 L3,4 L5,0 L7,0 L6,5 L1,10 L-1,20 L-5,20 L-6,14 L-4,11 L-3,3 Z " fill="#E0E0E0" transform="translate(15,5)"/>
<path d="M0,0 L2,1 L0,5 L-2,8 L-4,8 L-3,3 L0,2 Z " fill="#222222" transform="translate(18,5)"/>
<path d="M0,0 L2,3 L1,5 L1,9 L-3,9 L-2,5 Z " fill="#949494" transform="translate(12,13)"/>
</svg>
