<?xml version="1.0" encoding="UTF-8"?>
<svg version="1.1" xmlns="http://www.w3.org/2000/svg" width="28" height="28">
<path d="M0,0 L28,0 L28,28 L0,28 Z " fill="#020202" transform="translate(0,0)"/>
<path d="M0,0 L6,0 L9,3 L9,6 L12,7 L9,8 L12,12 L12,17 L8,20 L3,20 L1,18 L2,11 L2,8 L0,6 Z " fill="#D5D5D5" transform="translate(9,4)"/>
<path d="M0,0 L4,2 L5,5 L-1,6 L-2,2 Z " fill="#101010" transform="translate(14,15)"/>
<path d="M0,0 L6,0 L8,4 L2,2 L2,7 L0,6 Z " fill="#E9E9E9" transform="translate(9,4)"/>
<path d="M0,0 L7,0 L6,3 L1,3 Z " fill="#E2E2E2" transform="translate(11,21)"/>
<path d="M0,0 L5,1 L5,5 L1,4 Z " fill="#1F1F1F" transform="translate(11,6)"/>
</svg>
