<?xml version="1.0" encoding="UTF-8"?>
<svg version="1.1" xmlns="http://www.w3.org/2000/svg" width="28" height="28">
<path d="M0,0 L28,0 L28,28 L0,28 Z " fill="#030303" transform="translate(0,0)"/>
<path d="M0,0 L7,1 L7,4 L10,5 L10,8 L8,9 L7,14 L1,19 L-3,20 L-8,19 L-7,15 L-2,10 L0,9 L-4,6 L-3,1 Z " fill="#DEDEDE" transform="translate(13,5)"/>
<path d="M0,0 L5,0 L0,4 L-2,7 L1,7 L0,10 L-6,9 L-5,5 Z " fill="#D6D6D6" transform="translate(11,15)"/>
<path d="M0,0 L5,0 L6,4 L-1,3 L0,7 L-4,6 L-3,1 Z " fill="#EFEFEF" transform="translate(13,5)"/>
<path d="M0,0 L2,0 L2,3 L-2,6 L-7,7 L-5,3 Z " fill="#121212" transform="translate(16,15)"/>
<path d="M0,0 L2,0 L2,2 L6,2 L5,5 L-1,4 Z " fill="#EFEFEF" transform="translate(6,20)"/>
<path d="M0,0 L6,0 L6,3 L1,3 Z " fill="#151515" transform="translate(12,8)"/>
</svg>
