<?xml version="1.0" encoding="UTF-8"?>
<svg version="1.1" xmlns="http://www.w3.org/2000/svg" width="28" height="28">
<path d="M0,0 L28,0 L28,28 L0,28 Z " fill="#030303" transform="translate(0,0)"/>
<path d="M0,0 L5,1 L10,0 L13,3 L6,4 L3,11 L8,13 L9,17 L6,20 L1,20 L-1,18 L-1,13 L-5,11 L-6,5 L-3,1 Z " fill="#E8E8E8" transform="translate(12,5)"/>
<path d="M0,0 L5,1 L10,0 L13,3 L6,4 L3,7 L0,8 L2,3 L-2,4 L-2,10 L-5,11 L-6,5 L-3,1 Z " fill="#CBCBCB" transform="translate(12,5)"/>
<path d="M0,0 L3,1 L1,3 L1,9 L-2,10 L-3,4 Z " fill="#EEEEEE" transform="translate(9,6)"/>
<path d="M0,0 L4,0 L2,5 L0,7 L-1,6 L-1,1 Z " fill="#141414" transform="translate(10,8)"/>
<path d="M0,0 L5,1 L6,5 L3,7 L1,2 Z " fill="#F2F2F2" transform="translate(15,17)"/>
<path d="M0,0 L5,1 L5,4 L0,3 Z " fill="#2B2B2B" transform="translate(13,19)"/>
</svg>
