<?xml version="1.0" encoding="UTF-8"?>
<svg version="1.1" xmlns="http://www.w3.org/2000/svg" width="28" height="28">
<path d="M0,0 L28,0 L28,28 L0,28 Z " fill="#030303" transform="translate(0,0)"/>
<path d="M0,0 L5,1 L10,5 L12,12 L12,17 L9,20 L0,20 L-3,18 L-2,13 L-1,11 L-5,10 L-4,4 L-1,3 Z " fill="#DADADA" transform="translate(11,4)"/>
<path d="M0,0 L5,2 L7,7 L-1,8 L-5,7 L-5,4 L-3,4 L-3,2 Z " fill="#1D1D1D" transform="translate(13,6)"/>
<path d="M0,0 L8,0 L7,5 L-1,6 L-2,2 Z " fill="#121212" transform="translate(13,16)"/>
<path d="M0,0 L2,1 L3,11 L1,10 L1,6 L-9,7 L-9,5 L-11,4 L0,3 Z " fill="#F7F7F7" transform="translate(20,10)"/>
</svg>
