<?xml version="1.0" encoding="UTF-8"?>
<svg version="1.1" xmlns="http://www.w3.org/2000/svg" width="28" height="28">
<path d="M0,0 L28,0 L28,28 L0,28 Z " fill="#020202" transform="translate(0,0)"/>
<path d="M0,0 L5,1 L7,3 L6,9 L2,12 L1,19 L0,20 L-5,20 L-7,18 L-7,14 L-2,12 L-3,3 Z " fill="#D6D6D6" transform="translate(15,4)"/>
<path d="M0,0 L6,0 L5,5 L1,7 L0,6 Z " fill="#0A0A0A" transform="translate(14,7)"/>
<path d="M0,0 L3,0 L4,5 L3,6 L-2,6 L-4,2 Z " fill="#979797" transform="translate(12,18)"/>
</svg>
