<?xml version="1.0" encoding="UTF-8"?>
<svg version="1.1" xmlns="http://www.w3.org/2000/svg" width="28" height="28">
<path d="M0,0 L28,0 L28,28 L0,28 Z " fill="#030303" transform="translate(0,0)"/>
<path d="M0,0 L3,1 L0,2 L0,5 L6,4 L4,6 L1,6 L4,10 L4,17 L2,17 L2,19 L-2,20 L-6,17 L-7,11 L-3,4 L-2,1 Z " fill="#E7E7E7" transform="translate(15,5)"/>
<path d="M0,0 L4,1 L5,2 L5,7 L0,8 L-1,7 L-1,1 Z " fill="#0A0A0A" transform="translate(12,14)"/>
<path d="M0,0 L3,2 L3,9 L1,9 L0,11 L-3,9 L0,8 Z " fill="#B9B9B9" transform="translate(16,13)"/>
<path d="M0,0 L3,1 L5,6 L8,8 L5,9 L1,6 Z " fill="#D0D0D0" transform="translate(8,16)"/>
</svg>
