<?xml version="1.0" encoding="UTF-8"?>
<svg version="1.1" xmlns="http://www.w3.org/2000/svg" width="28" height="28">
<path d="M0,0 L28,0 L28,28 L0,28 Z " fill="#030303" transform="translate(0,0)"/>
<path d="M0,0 L3,0 L3,2 L1,2 L1,6 L10,0 L8,4 L4,8 L3,18 L0,20 L-5,20 L-6,15 L-1,9 L-2,1 Z " fill="#E1E1E1" transform="translate(14,4)"/>
<path d="M0,0 L2,1 L0,6 L7,4 L6,7 L-1,8 L-2,3 Z " fill="#E6E6E6" transform="translate(10,16)"/>
<path d="M0,0 L2,0 L3,5 L1,7 L-3,7 L-2,2 Z " fill="#202020" transform="translate(13,15)"/>
<path d="M0,0 L3,0 L3,2 L1,2 L1,6 L-2,5 L-2,1 Z " fill="#C4C4C4" transform="translate(14,4)"/>
</svg>
