<?xml version="1.0" encoding="UTF-8"?>
<svg version="1.1" xmlns="http://www.w3.org/2000/svg" width="28" height="28">
<path d="M0,0 L28,0 L28,28 L0,28 Z " fill="#020202" transform="translate(0,0)"/>
<path d="M0,0 L4,1 L7,1 L10,1 L5,6 L7,10 L8,11 L8,17 L5,20 L0,20 L-3,17 L-3,11 L-2,8 L-4,6 L-3,2 Z " fill="#DEDEDE" transform="translate(12,5)"/>
<path d="M0,0 L1,0 L1,9 L6,9 L7,4 L9,4 L9,10 L6,13 L1,13 L-2,10 L-2,4 Z " fill="#F0F0F0" transform="translate(11,12)"/>
<path d="M0,0 L4,2 L5,7 L4,8 L-1,8 L-2,3 Z " fill="#151515" transform="translate(13,14)"/>
<path d="M0,0 L2,0 L2,6 L-2,9 L-2,7 L-5,6 L-1,5 Z " fill="#DADADA" transform="translate(18,16)"/>
<path d="M0,0 L4,1 L3,5 L-1,6 L-1,3 Z " fill="#787878" transform="translate(12,5)"/>
</svg>
