<?xml version="1.0" encoding="UTF-8"?>
<svg version="1.1" xmlns="http://www.w3.org/2000/svg" width="28" height="28">
<path d="M0,0 L28,0 L28,28 L0,28 Z " fill="#020202" transform="translate(0,0)"/>
<path d="M0,0 L5,1 L3,9 L5,11 L5,16 L1,20 L-3,19 L-2,10 L-5,7 L-4,3 Z " fill="#5F5F5F" transform="translate(14,5)"/>
<path d="M0,0 L2,0 L1,7 L3,5 L3,1 L6,1 L6,6 L2,10 L-2,9 L-1,2 Z " fill="#DDDDDD" transform="translate(13,15)"/>
<path d="M0,0 L5,1 L3,7 L1,9 L1,3 L-3,4 L-2,9 L-5,7 L-4,3 Z " fill="#E3E3E3" transform="translate(14,5)"/>
</svg>
