<?xml version="1.0" encoding="UTF-8"?>
<svg version="1.1" xmlns="http://www.w3.org/2000/svg" width="28" height="28">
<path d="M0,0 L28,0 L28,28 L0,28 Z " fill="#020202" transform="translate(0,0)"/>
<path d="M0,0 L8,1 L9,6 L7,8 L7,11 L9,12 L9,18 L5,20 L-2,20 L-5,18 L-5,13 L-1,10 L1,10 L-2,6 L-1,1 Z " fill="#D3D3D3" transform="translate(12,4)"/>
<path d="M0,0 L5,1 L6,6 L5,7 L-3,7 L-5,6 L-3,2 Z " fill="#0B0B0B" transform="translate(13,15)"/>
<path d="M0,0 L7,1 L6,5 L2,6 L0,3 Z " fill="#141414" transform="translate(12,6)"/>
</svg>
