<?xml version="1.0" encoding="UTF-8"?>
<svg version="1.1" xmlns="http://www.w3.org/2000/svg" width="28" height="28">
<path d="M0,0 L28,0 L28,28 L0,28 Z " fill="#040404" transform="translate(0,0)"/>
<path d="M0,0 L2,1 L1,3 L9,3 L13,0 L11,6 L12,10 L11,12 L9,12 L8,15 L4,16 L3,11 L6,6 L-2,3 Z " fill="#4C4C4C" transform="translate(8,10)"/>
<path d="M0,0 L2,0 L2,5 L-1,8 L-7,8 L-9,7 L-7,2 Z " fill="#4D4D4D" transform="translate(18,6)"/>
<path d="M0,0 L2,1 L1,3 L9,3 L13,0 L11,4 L8,7 L-2,3 Z " fill="#CBCBCB" transform="translate(8,10)"/>
<path d="M0,0 L1,3 L-1,6 L3,5 L2,8 L-2,9 L-3,4 Z " fill="#C7C7C7" transform="translate(14,17)"/>
</svg>
