<?xml version="1.0" encoding="UTF-8"?>
<svg version="1.1" xmlns="http://www.w3.org/2000/svg" width="28" height="28">
<path d="M0,0 L28,0 L28,28 L0,28 Z " fill="#020202" transform="translate(0,0)"/>
<path d="M0,0 L6,0 L7,4 L2,9 L-1,11 L-3,19 L-10,20 L-11,17 L-6,10 L-9,8 L-9,3 Z " fill="#D5D5D5" transform="translate(17,6)"/>
<path d="M0,0 L2,0 L3,5 L0,8 L-5,8 L-6,5 L-2,1 Z " fill="#BFBFBF" transform="translate(12,18)"/>
<path d="M0,0 L3,0 L1,4 L-3,7 L-7,6 L-10,3 L-6,2 L0,2 Z " fill="#191919" transform="translate(19,8)"/>
<path d="M0,0 L0,3 L-3,5 L-4,10 L-5,6 L-9,8 L-7,3 Z " fill="#EBEBEB" transform="translate(19,12)"/>
<path d="M0,0 L2,0 L1,5 L-3,5 L-1,1 Z " fill="#1B1B1B" transform="translate(11,19)"/>
</svg>
