<?xml version="1.0" encoding="UTF-8"?>
<svg version="1.1" xmlns="http://www.w3.org/2000/svg" width="28" height="28">
<path d="M0,0 L28,0 L28,28 L0,28 Z " fill="#020202" transform="translate(0,0)"/>
<path d="M0,0 L4,0 L5,7 L4,10 L6,12 L6,17 L2,20 L-4,20 L-6,18 L-5,13 L-3,11 L-5,6 Z " fill="#DCDCDC" transform="translate(14,4)"/>
<path d="M0,0 L4,2 L2,6 L-3,7 L-4,3 Z " fill="#151515" transform="translate(14,15)"/>
<path d="M0,0 L2,1 L0,3 L0,6 L3,7 L3,9 L-2,8 L-3,3 Z " fill="#E9E9E9" transform="translate(11,15)"/>
<path d="M0,0 L1,0 L1,5 L-3,8 L-5,8 L-3,4 Z " fill="#CFCFCF" transform="translate(19,16)"/>
<path d="M0,0 L2,4 L-3,5 L-2,1 Z " fill="#141414" transform="translate(14,7)"/>
</svg>
