<?xml version="1.0" encoding="UTF-8"?>
<svg version="1.1" xmlns="http://www.w3.org/2000/svg" width="28" height="28">
<path d="M0,0 L28,0 L28,28 L0,28 Z " fill="#020202" transform="translate(0,0)"/>
<path d="M0,0 L2,0 L1,5 L-1,7 L0,15 L-6,20 L-10,20 L-10,14 L-7,9 L-9,7 L-8,2 L-1,2 Z " fill="#EBEBEB" transform="translate(19,5)"/>
<path d="M0,0 L3,3 L2,8 L-3,12 L-4,10 L-6,10 L-4,5 L-2,2 L0,2 Z " fill="#D5D5D5" transform="translate(16,13)"/>
<path d="M0,0 L2,0 L1,5 L-6,7 L-7,4 L-1,2 Z " fill="#999999" transform="translate(19,5)"/>
<path d="M0,0 L2,0 L1,5 L-4,7 L-2,2 Z " fill="#1C1C1C" transform="translate(14,16)"/>
</svg>
