<?xml version="1.0" encoding="UTF-8"?>
<svg version="1.1" xmlns="http://www.w3.org/2000/svg" width="28" height="28">
<path d="M0,0 L28,0 L28,28 L0,28 Z " fill="#010101" transform="translate(0,0)"/>
<path d="M0,0 L4,0 L4,2 L0,3 L0,7 L5,3 L7,3 L5,7 L3,7 L2,17 L-1,20 L-4,20 L-5,15 L-2,10 L-3,3 Z " fill="#CCCCCC" transform="translate(14,5)"/>
<path d="M0,0 L3,2 L-2,5 L-4,7 L-5,2 Z " fill="#1A1A1A" transform="translate(18,6)"/>
<path d="M0,0 L2,1 L1,5 L-2,6 L-1,1 Z " fill="#272727" transform="translate(13,17)"/>
</svg>
