<?xml version="1.0" encoding="UTF-8"?>
<svg version="1.1" xmlns="http://www.w3.org/2000/svg" width="28" height="28">
<path d="M0,0 L28,0 L28,28 L0,28 Z " fill="#010101" transform="translate(0,0)"/>
<path d="M0,0 L4,2 L4,9 L1,10 L3,14 L3,19 L2,20 L-3,20 L-4,19 L-4,3 Z " fill="#C5C5C5" transform="translate(15,5)"/>
<path d="M0,0 L5,2 L7,1 L7,6 L6,7 L1,7 L0,6 Z " fill="#B6B6B6" transform="translate(11,18)"/>
<path d="M0,0 L4,2 L4,9 L2,9 L2,3 L-3,4 L-2,1 Z " fill="#F0F0F0" transform="translate(15,5)"/>
</svg>
