<?xml version="1.0" encoding="UTF-8"?>
<svg version="1.1" xmlns="http://www.w3.org/2000/svg" width="28" height="28">
<path d="M0,0 L28,0 L28,28 L0,28 Z " fill="#020202" transform="translate(0,0)"/>
<path d="M0,0 L6,0 L8,3 L7,6 L6,4 L-1,4 L-4,5 L-2,8 L10,7 L9,9 L3,11 L2,19 L1,20 L-5,20 L-7,15 L-4,10 L-6,9 L-6,4 Z " fill="#CDCDCD" transform="translate(15,5)"/>
<path d="M0,0 L3,1 L2,6 L-3,5 L-2,1 Z " fill="#0D0D0D" transform="translate(13,17)"/>
<path d="M0,0 L6,0 L8,3 L7,6 L6,4 L-1,3 Z " fill="#B9B9B9" transform="translate(15,5)"/>
</svg>
