<?xml version="1.0" encoding="UTF-8"?>
<svg version="1.1" xmlns="http://www.w3.org/2000/svg" width="28" height="28">
<path d="M0,0 L28,0 L28,28 L0,28 Z " fill="#050505" transform="translate(0,0)"/>
<path d="M0,0 L5,0 L7,3 L-2,4 L0,9 L5,10 L10,3 L12,3 L11,7 L6,13 L12,15 L12,18 L8,20 L2,20 L0,19 L1,14 L2,12 L-2,10 L-5,7 L-4,3 Z " fill="#DBDBDB" transform="translate(10,4)"/>
<path d="M0,0 L5,0 L7,3 L-2,4 L0,9 L5,11 L5,14 L3,14 L3,18 L7,20 L0,19 L1,14 L2,12 L-2,10 L-5,7 L-4,3 Z " fill="#E8E8E8" transform="translate(10,4)"/>
<path d="M0,0 L5,0 L7,3 L-2,4 L-3,8 L-5,7 L-4,3 Z " fill="#CECECE" transform="translate(10,4)"/>
<path d="M0,0 L6,1 L7,3 L5,4 L-1,4 Z " fill="#1A1A1A" transform="translate(13,18)"/>
</svg>
