<?xml version="1.0" encoding="UTF-8"?>
<svg version="1.1" xmlns="http://www.w3.org/2000/svg" width="28" height="28">
<path d="M0,0 L28,0 L28,28 L0,28 Z " fill="#020202" transform="translate(0,0)"/>
<path d="M0,0 L11,0 L11,2 L9,2 L7,7 L3,11 L3,17 L-2,20 L-6,20 L-7,15 L-2,10 L-3,8 L-3,2 Z " fill="#E9E9E9" transform="translate(14,5)"/>
<path d="M0,0 L11,0 L11,2 L9,2 L7,6 L5,4 L6,3 L-2,4 L-3,6 L-3,2 Z " fill="#D3D3D3" transform="translate(14,5)"/>
<path d="M0,0 L4,1 L-1,7 L-3,7 L-4,2 Z " fill="#151515" transform="translate(17,7)"/>
<path d="M0,0 L5,2 L4,5 L-1,4 L-3,5 L-1,1 Z " fill="#787878" transform="translate(10,17)"/>
</svg>
