<?xml version="1.0" encoding="UTF-8"?>
<svg version="1.1" xmlns="http://www.w3.org/2000/svg" width="28" height="28">
<path d="M0,0 L28,0 L28,28 L0,28 Z " fill="#030303" transform="translate(0,0)"/>
<path d="M0,0 L5,0 L7,2 L6,10 L8,13 L8,18 L5,20 L-1,20 L-5,15 L-3,10 L0,7 L-3,4 L-3,2 L0,2 Z " fill="#D9D9D9" transform="translate(12,4)"/>
<path d="M0,0 L2,0 L3,7 L0,9 L-6,9 L-8,5 L0,5 Z " fill="#E7E7E7" transform="translate(17,15)"/>
<path d="M0,0 L4,4 L3,7 L-3,7 L-4,3 Z " fill="#101010" transform="translate(14,14)"/>
</svg>
