<?xml version="1.0" encoding="UTF-8"?>
<svg version="1.1" xmlns="http://www.w3.org/2000/svg" width="28" height="28">
<path d="M0,0 L28,0 L28,28 L0,28 Z " fill="#010101" transform="translate(0,0)"/>
<path d="M0,0 L5,1 L9,4 L11,9 L12,14 L5,20 L-2,19 L-4,18 L-4,12 L-3,9 L-3,3 Z " fill="#BCBCBC" transform="translate(11,4)"/>
<path d="M0,0 L5,2 L4,6 L0,9 L-7,8 L-7,3 Z " fill="#121212" transform="translate(16,13)"/>
<path d="M0,0 L2,0 L2,2 L6,4 L5,9 L-1,14 L-8,13 L-9,11 L-1,11 L3,8 L4,5 L-1,4 L-7,5 L-7,2 Z " fill="#CFCFCF" transform="translate(17,10)"/>
<path d="M0,0 L3,0 L3,2 L6,3 L5,5 L-2,5 L-1,1 Z " fill="#060606" transform="translate(12,6)"/>
<path d="M0,0 L2,0 L2,2 L4,3 L-5,5 L-7,5 L-7,2 Z " fill="#EBEBEB" transform="translate(17,10)"/>
</svg>
