<?xml version="1.0" encoding="UTF-8"?>
<svg version="1.1" xmlns="http://www.w3.org/2000/svg" width="28" height="28">
<path d="M0,0 L28,0 L28,28 L0,28 Z " fill="#020202" transform="translate(0,0)"/>
<path d="M0,0 L4,1 L1,2 L-2,13 L2,14 L2,19 L-3,20 L-5,18 L-5,13 L-10,11 L-9,7 L-3,1 Z " fill="#EBEBEB" transform="translate(17,5)"/>
<path d="M0,0 L0,3 L-1,9 L-4,10 L-5,8 L-7,10 L-6,6 Z " fill="#969696" transform="translate(14,6)"/>
<path d="M0,0 L4,0 L4,5 L-1,6 Z " fill="#9C9C9C" transform="translate(15,19)"/>
</svg>
