<?xml version="1.0" encoding="UTF-8"?>
<svg version="1.1" xmlns="http://www.w3.org/2000/svg" width="28" height="28">
<path d="M0,0 L28,0 L28,28 L0,28 Z " fill="#030303" transform="translate(0,0)"/>
<path d="M0,0 L6,1 L10,5 L17,4 L16,7 L9,8 L9,15 L4,18 L-2,17 L-3,12 L1,10 L1,8 L-2,7 L-2,1 Z " fill="#E4E4E4" transform="translate(10,6)"/>
<path d="M0,0 L4,0 L3,4 L-3,4 Z " fill="#1D1D1D" transform="translate(12,17)"/>
<path d="M0,0 L6,1 L6,4 L1,3 Z " fill="#1A1A1A" transform="translate(10,9)"/>
<path d="M0,0 L6,1 L7,4 L1,3 Z " fill="#C6C6C6" transform="translate(10,6)"/>
</svg>
