<?xml version="1.0" encoding="UTF-8"?>
<svg version="1.1" xmlns="http://www.w3.org/2000/svg" width="28" height="28">
<path d="M0,0 L28,0 L28,28 L0,28 Z " fill="#030303" transform="translate(0,0)"/>
<path d="M0,0 L2,0 L1,3 L-2,5 L-2,7 L2,5 L4,3 L8,4 L3,8 L2,10 L5,11 L5,17 L3,20 L-1,19 L-3,17 L-3,10 L-5,8 L-4,3 Z " fill="#D9D9D9" transform="translate(14,5)"/>
<path d="M0,0 L2,0 L1,3 L-2,5 L-2,7 L0,9 L-3,10 L-5,8 L-4,3 Z " fill="#D4D4D4" transform="translate(14,5)"/>
<path d="M0,0 L4,1 L3,5 L0,6 Z " fill="#1D1D1D" transform="translate(14,17)"/>
<path d="M0,0 L1,4 L-1,7 L-5,6 L-4,3 L-4,5 L-1,3 Z " fill="#F0F0F0" transform="translate(18,18)"/>
</svg>
