<?xml version="1.0" encoding="UTF-8"?>
<svg version="1.1" xmlns="http://www.w3.org/2000/svg" width="28" height="28">
<path d="M0,0 L28,0 L28,28 L0,28 Z " fill="#020202" transform="translate(0,0)"/>
<path d="M0,0 L7,0 L14,3 L14,7 L9,10 L8,19 L7,20 L2,20 L-1,17 L-1,9 L-4,5 Z " fill="#EEEEEE" transform="translate(10,6)"/>
<path d="M0,0 L7,0 L14,3 L14,7 L8,11 L7,7 L10,4 L3,3 L-2,5 L-3,7 L-4,5 Z " fill="#E4E4E4" transform="translate(10,6)"/>
<path d="M0,0 L5,1 L7,2 L6,5 L-1,6 L-3,2 Z " fill="#1C1C1C" transform="translate(13,8)"/>
<path d="M0,0 L3,1 L3,6 L0,6 L-2,2 Z " fill="#292929" transform="translate(13,17)"/>
</svg>
