<?xml version="1.0" encoding="UTF-8"?>
<svg version="1.1" xmlns="http://www.w3.org/2000/svg" width="28" height="28">
<path d="M0,0 L28,0 L28,28 L0,28 Z " fill="#030303" transform="translate(0,0)"/>
<path d="M0,0 L6,1 L9,4 L16,3 L11,8 L8,9 L9,16 L5,20 L0,20 L-2,18 L-1,11 L1,9 L-2,6 L-1,1 Z " fill="#E6E6E6" transform="translate(10,5)"/>
<path d="M0,0 L5,1 L4,6 L1,9 L-4,9 L-4,6 L-2,1 Z " fill="#D3D3D3" transform="translate(14,16)"/>
<path d="M0,0 L2,1 L1,6 L-4,6 L-2,1 Z " fill="#191919" transform="translate(14,16)"/>
<path d="M0,0 L4,1 L6,4 L1,4 Z " fill="#191919" transform="translate(11,8)"/>
</svg>
