<?xml version="1.0" encoding="UTF-8"?>
<svg version="1.1" xmlns="http://www.w3.org/2000/svg" width="28" height="28">
<path d="M0,0 L28,0 L28,28 L0,28 Z " fill="#020202" transform="translate(0,0)"/>
<path d="M0,0 L3,0 L4,6 L0,11 L3,15 L2,19 L1,20 L-4,20 L-6,17 L-6,4 Z " fill="#E0E0E0" transform="translate(16,5)"/>
<path d="M0,0 L3,0 L4,6 L1,8 L0,3 L-4,5 L-3,9 L-6,9 L-6,4 Z " fill="#E4E4E4" transform="translate(16,5)"/>
<path d="M0,0 L4,2 L7,2 L6,6 L5,7 L0,7 L-1,3 Z " fill="#8E8E8E" transform="translate(12,18)"/>
<path d="M0,0 L1,0 L1,5 L-3,7 L-4,3 Z " fill="#292929" transform="translate(16,7)"/>
</svg>
