<?xml version="1.0" encoding="UTF-8"?>
<svg version="1.1" xmlns="http://www.w3.org/2000/svg" width="28" height="28">
<path d="M0,0 L28,0 L28,28 L0,28 Z " fill="#040404" transform="translate(0,0)"/>
<path d="M0,0 L4,1 L4,4 L-1,5 L-2,10 L8,5 L15,5 L12,8 L3,11 L2,13 L2,19 L1,19 L1,14 L-2,14 L-3,19 L-5,19 L-4,11 L-5,5 Z " fill="#EBEBEB" transform="translate(13,5)"/>
<path d="M0,0 L4,1 L4,4 L-1,5 L-3,9 L-4,3 Z " fill="#C5C5C5" transform="translate(13,5)"/>
<path d="M0,0 L7,0 L4,3 L-1,2 Z " fill="#B9B9B9" transform="translate(21,10)"/>
</svg>
