<?xml version="1.0" encoding="UTF-8"?>
<svg version="1.1" xmlns="http://www.w3.org/2000/svg" width="28" height="28">
<path d="M0,0 L28,0 L28,28 L0,28 Z " fill="#020202" transform="translate(0,0)"/>
<path d="M0,0 L4,0 L4,9 L6,11 L5,16 L1,18 L1,15 L4,12 L1,13 L-1,17 L0,19 L-5,20 L-4,15 L-3,12 L-1,12 L-1,10 L-3,10 L-4,4 Z " fill="#E6E6E6" transform="translate(14,5)"/>
<path d="M0,0 L2,0 L2,2 L4,3 L3,6 L-2,5 Z " fill="#9E9E9E" transform="translate(12,6)"/>
<path d="M0,0 L3,0 L2,3 L0,3 L0,6 L-3,5 Z " fill="#333333" transform="translate(15,17)"/>
</svg>
