<?xml version="1.0" encoding="UTF-8"?>
<svg version="1.1" xmlns="http://www.w3.org/2000/svg" width="28" height="28">
<path d="M0,0 L28,0 L28,28 L0,28 Z " fill="#010101" transform="translate(0,0)"/>
<path d="M0,0 L4,1 L5,6 L1,8 L1,18 L0,20 L-3,20 L-5,17 L-5,11 L-3,8 L-1,1 Z " fill="#909090" transform="translate(15,5)"/>
<path d="M0,0 L4,1 L5,6 L-1,6 L-2,8 L-2,2 Z " fill="#8A8A8A" transform="translate(15,5)"/>
<path d="M0,0 L5,0 L1,5 L-3,5 L-2,2 L0,2 Z " fill="#EAEAEA" transform="translate(14,11)"/>
</svg>
