<?xml version="1.0" encoding="UTF-8"?>
<svg version="1.1" xmlns="http://www.w3.org/2000/svg" width="28" height="28">
<path d="M0,0 L28,0 L28,28 L0,28 Z " fill="#020202" transform="translate(0,0)"/>
<path d="M0,0 L7,0 L8,3 L6,3 L4,8 L0,11 L-1,19 L-2,20 L-10,20 L-9,15 L-6,12 L-6,5 L-4,2 Z " fill="#E2E2E2" transform="translate(16,5)"/>
<path d="M0,0 L7,0 L8,3 L6,3 L4,8 L0,11 L-2,14 L-1,8 L3,4 L-1,2 Z " fill="#D7D7D7" transform="translate(16,5)"/>
<path d="M0,0 L5,0 L0,6 L-3,5 L-2,1 Z " fill="#141414" transform="translate(15,8)"/>
<path d="M0,0 L2,0 L1,5 L-3,5 L-1,1 Z " fill="#101010" transform="translate(11,19)"/>
<path d="M0,0 L3,1 L0,5 L2,6 L-2,6 L-1,1 Z " fill="#CBCBCB" transform="translate(8,19)"/>
</svg>
