<?xml version="1.0" encoding="UTF-8"?>
<svg version="1.1" xmlns="http://www.w3.org/2000/svg" width="28" height="28">
<path d="M0,0 L28,0 L28,28 L0,28 Z " fill="#020202" transform="translate(0,0)"/>
<path d="M0,0 L11,0 L14,3 L13,7 L11,10 L13,14 L12,18 L10,20 L4,20 L0,16 L1,11 L2,9 L-1,8 L-2,2 Z " fill="#DDDDDD" transform="translate(8,5)"/>
<path d="M0,0 L4,1 L5,0 L10,0 L9,5 L2,6 L-1,3 Z " fill="#171717" transform="translate(9,7)"/>
<path d="M0,0 L11,0 L14,3 L13,7 L11,3 L6,3 L2,4 L1,3 L0,6 L-2,6 L-1,1 Z " fill="#EFEFEF" transform="translate(8,5)"/>
<path d="M0,0 L5,1 L4,6 L0,7 L-2,6 L-2,1 Z " fill="#111111" transform="translate(13,16)"/>
</svg>
