<?xml version="1.0" encoding="UTF-8"?>
<svg version="1.1" xmlns="http://www.w3.org/2000/svg" width="28" height="28">
<path d="M0,0 L28,0 L28,28 L0,28 Z " fill="#030303" transform="translate(0,0)"/>
<path d="M0,0 L3,1 L9,1 L10,5 L4,9 L3,15 L-2,20 L-7,19 L-6,14 L-3,10 L-6,7 L-3,2 Z " fill="#C0C0C0" transform="translate(14,5)"/>
<path d="M0,0 L2,0 L2,2 L5,3 L6,0 L9,1 L4,6 L-1,5 Z " fill="#DDDDDD" transform="translate(8,19)"/>
<path d="M0,0 L5,2 L2,5 L-4,6 Z " fill="#EAEAEA" transform="translate(14,5)"/>
<path d="M0,0 L1,3 L-1,6 L-5,5 Z " fill="#242424" transform="translate(14,16)"/>
</svg>
