<?xml version="1.0" encoding="UTF-8"?>
<svg version="1.1" xmlns="http://www.w3.org/2000/svg" width="28" height="28">
<path d="M0,0 L28,0 L28,28 L0,28 Z " fill="#030303" transform="translate(0,0)"/>
<path d="M0,0 L2,0 L2,2 L-1,4 L0,8 L3,7 L7,2 L6,7 L4,12 L3,17 L-1,20 L-5,20 L-4,15 L-1,11 L-4,7 L-3,2 Z " fill="#D8D8D8" transform="translate(14,4)"/>
<path d="M0,0 L2,0 L2,2 L-1,4 L0,8 L3,7 L7,2 L6,7 L2,11 L-2,10 L-4,7 L-3,2 Z " fill="#CECECE" transform="translate(14,4)"/>
<path d="M0,0 L2,0 L1,4 L-4,6 L-2,2 Z " fill="#2E2E2E" transform="translate(14,17)"/>
</svg>
