<?xml version="1.0" encoding="UTF-8"?>
<svg version="1.1" xmlns="http://www.w3.org/2000/svg" width="28" height="28">
<path d="M0,0 L28,0 L28,28 L0,28 Z " fill="#030303" transform="translate(0,0)"/>
<path d="M0,0 L5,1 L7,2 L6,17 L3,20 L-2,20 L-3,19 L-3,14 L1,9 L3,9 L0,4 L-2,4 L-2,1 Z " fill="#CCCCCC" transform="translate(12,5)"/>
<path d="M0,0 L2,0 L1,7 L-4,8 L-3,3 Z " fill="#111111" transform="translate(15,15)"/>
<path d="M0,0 L1,0 L1,7 L-2,10 L-7,10 L-8,5 L-7,8 L-1,7 Z " fill="#E5E5E5" transform="translate(17,15)"/>
</svg>
