<?xml version="1.0" encoding="UTF-8"?>
<svg version="1.1" xmlns="http://www.w3.org/2000/svg" width="28" height="28">
<path d="M0,0 L28,0 L28,28 L0,28 Z " fill="#020202" transform="translate(0,0)"/>
<path d="M0,0 L4,1 L5,5 L5,12 L8,13 L8,18 L5,18 L5,20 L1,19 L-3,16 L-2,10 L-1,6 L-5,5 L-4,2 Z " fill="#D4D4D4" transform="translate(13,5)"/>
<path d="M0,0 L3,3 L4,6 L-1,7 L-3,6 L-2,2 Z " fill="#1B1B1B" transform="translate(15,15)"/>
<path d="M0,0 L1,2 L0,5 L8,6 L6,7 L6,9 L2,8 L-2,5 L-2,1 Z " fill="#EDEDED" transform="translate(12,16)"/>
</svg>
