<?xml version="1.0" encoding="UTF-8"?>
<svg version="1.1" xmlns="http://www.w3.org/2000/svg" width="28" height="28">
<path d="M0,0 L28,0 L28,28 L0,28 Z " fill="#020202" transform="translate(0,0)"/>
<path d="M0,0 L3,1 L-1,4 L-2,9 L3,4 L3,2 L6,2 L5,6 L2,11 L6,12 L7,16 L2,20 L-3,20 L-5,17 L-3,10 L-5,5 Z " fill="#DCDCDC" transform="translate(14,4)"/>
<path d="M0,0 L5,0 L4,5 L-1,6 L-1,1 Z " fill="#0D0D0D" transform="translate(13,16)"/>
<path d="M0,0 L1,2 L5,3 L6,7 L1,11 L-3,9 L2,7 L3,3 L-1,2 Z " fill="#B4B4B4" transform="translate(15,13)"/>
<path d="M0,0 L5,0 L-1,8 L-3,8 L-3,3 Z " fill="#202020" transform="translate(15,5)"/>
</svg>
