<?xml version="1.0" encoding="UTF-8"?>
<svg version="1.1" xmlns="http://www.w3.org/2000/svg" width="28" height="28">
<path d="M0,0 L28,0 L28,28 L0,28 Z " fill="#020202" transform="translate(0,0)"/>
<path d="M0,0 L5,0 L11,5 L10,10 L12,13 L11,18 L7,20 L-3,20 L-5,18 L-5,11 L-6,10 L-6,4 Z " fill="#E4E4E4" transform="translate(12,5)"/>
<path d="M0,0 L11,0 L12,3 L9,6 L1,6 L-1,2 Z " fill="#0F0F0F" transform="translate(10,17)"/>
<path d="M0,0 L1,3 L5,1 L9,2 L8,6 L-2,6 L-2,2 Z " fill="#0C0C0C" transform="translate(11,8)"/>
</svg>
