<?xml version="1.0" encoding="UTF-8"?>
<svg version="1.1" xmlns="http://www.w3.org/2000/svg" width="28" height="28">
<path d="M0,0 L28,0 L28,28 L0,28 Z " fill="#040404" transform="translate(0,0)"/>
<path d="M0,0 L5,2 L5,4 L-1,5 L-2,8 L3,8 L6,6 L7,2 L11,2 L10,7 L6,11 L9,12 L8,17 L6,18 L-1,18 L-3,16 L-2,12 L-6,9 L-4,5 L-2,2 L0,2 Z " fill="#E1E1E1" transform="translate(12,5)"/>
<path d="M0,0 L6,0 L5,5 L3,6 L-4,6 L-3,2 Z " fill="#DFDFDF" transform="translate(15,17)"/>
<path d="M0,0 L4,1 L4,3 L-3,4 L-3,2 Z " fill="#242424" transform="translate(15,17)"/>
</svg>
