<?xml version="1.0" encoding="UTF-8"?>
<svg version="1.1" xmlns="http://www.w3.org/2000/svg" width="28" height="28">
<path d="M0,0 L28,0 L28,28 L0,28 Z " fill="#010101" transform="translate(0,0)"/>
<path d="M0,0 L5,1 L6,6 L4,10 L3,19 L-3,20 L-4,15 L-2,10 L-3,9 L-3,2 Z " fill="#E9E9E9" transform="translate(14,4)"/>
<path d="M0,0 L3,1 L1,2 L1,8 L-2,8 L-2,1 Z " fill="#E9E9E9" transform="translate(13,5)"/>
<path d="M0,0 L4,0 L4,5 L1,6 Z " fill="#191919" transform="translate(13,7)"/>
<path d="M0,0 L5,1 L6,6 L3,6 L3,3 L0,2 Z " fill="#BCBCBC" transform="translate(14,4)"/>
<path d="M0,0 L1,2 L3,2 L3,5 L0,5 L-2,7 L-1,2 Z " fill="#9B9B9B" transform="translate(12,16)"/>
</svg>
