<?xml version="1.0" encoding="UTF-8"?>
<svg version="1.1" xmlns="http://www.w3.org/2000/svg" width="28" height="28">
<path d="M0,0 L28,0 L28,28 L0,28 Z " fill="#030303" transform="translate(0,0)"/>
<path d="M0,0 L9,1 L8,9 L12,14 L11,18 L8,20 L1,20 L-1,19 L-1,13 L1,13 L1,11 L3,11 L3,8 L-4,7 L-3,2 Z " fill="#D9D9D9" transform="translate(10,5)"/>
<path d="M0,0 L5,2 L6,7 L4,8 L-3,8 L-3,4 Z " fill="#0D0D0D" transform="translate(14,15)"/>
<path d="M0,0 L7,0 L6,5 L3,5 L-2,4 Z " fill="#121212" transform="translate(10,7)"/>
<path d="M0,0 L9,1 L7,4 L7,2 L0,3 L-2,7 L-4,7 L-3,2 Z " fill="#BFBFBF" transform="translate(10,5)"/>
</svg>
