<?xml version="1.0" encoding="UTF-8"?>
<svg version="1.1" xmlns="http://www.w3.org/2000/svg" width="28" height="28">
<path d="M0,0 L28,0 L28,28 L0,28 Z " fill="#010101" transform="translate(0,0)"/>
<path d="M0,0 L5,1 L5,3 L0,5 L6,6 L4,8 L1,9 L2,19 L-3,20 L-3,18 L-5,18 L-6,11 L-5,8 L-4,3 Z " fill="#D1D1D1" transform="translate(15,4)"/>
<path d="M0,0 L5,1 L5,3 L0,5 L1,7 L-5,8 L-4,3 Z " fill="#8E8E8E" transform="translate(15,4)"/>
<path d="M0,0 L3,4 L2,9 L-2,9 L-1,5 Z " fill="#DDDDDD" transform="translate(14,15)"/>
<path d="M0,0 L4,2 L5,7 L1,7 Z " fill="#878787" transform="translate(9,15)"/>
<path d="M0,0 L1,4 L-6,4 L-4,1 Z " fill="#1D1D1D" transform="translate(20,6)"/>
</svg>
