<?xml version="1.0" encoding="UTF-8"?>
<svg version="1.1" xmlns="http://www.w3.org/2000/svg" width="28" height="28">
<path d="M0,0 L28,0 L28,28 L0,28 Z " fill="#030303" transform="translate(0,0)"/>
<path d="M0,0 L5,1 L8,1 L10,1 L9,9 L4,11 L5,20 L0,20 L-8,15 L-8,12 L-1,12 L-2,4 Z " fill="#ECECEC" transform="translate(13,5)"/>
<path d="M0,0 L9,1 L10,5 L3,5 L0,3 Z " fill="#D3D3D3" transform="translate(5,17)"/>
<path d="M0,0 L2,4 L2,8 L-3,8 L-7,6 L-7,4 L-1,5 Z " fill="#DEDEDE" transform="translate(16,17)"/>
<path d="M0,0 L4,3 L4,6 L0,7 L-1,1 Z " fill="#1B1B1B" transform="translate(15,8)"/>
<path d="M0,0 L5,1 L5,4 L-1,2 Z " fill="#1E1E1E" transform="translate(10,18)"/>
</svg>
