<?xml version="1.0" encoding="UTF-8"?>
<svg version="1.1" xmlns="http://www.w3.org/2000/svg" width="28" height="28">
<path d="M0,0 L28,0 L28,28 L0,28 Z " fill="#020202" transform="translate(0,0)"/>
<path d="M0,0 L8,1 L9,5 L6,9 L7,13 L8,18 L6,20 L1,20 L-1,18 L-1,11 L-3,8 L-3,2 Z " fill="#D3D3D3" transform="translate(12,5)"/>
<path d="M0,0 L5,0 L5,3 L0,8 L-2,6 L-1,1 Z " fill="#101010" transform="translate(13,7)"/>
<path d="M0,0 L4,4 L3,9 L-3,7 L-2,2 L0,2 Z " fill="#838383" transform="translate(16,15)"/>
<path d="M0,0 L5,0 L4,3 L2,3 L2,8 L6,9 L6,11 L1,11 L-1,9 L-1,1 Z " fill="#EDEDED" transform="translate(12,14)"/>
</svg>
