<?xml version="1.0" encoding="UTF-8"?>
<svg version="1.1" xmlns="http://www.w3.org/2000/svg" width="28" height="28">
<path d="M0,0 L28,0 L28,28 L0,28 Z " fill="#020202" transform="translate(0,0)"/>
<path d="M0,0 L7,0 L9,2 L9,7 L6,11 L9,12 L8,18 L5,20 L0,20 L-1,19 L-1,10 L-3,6 L-2,1 Z " fill="#DADADA" transform="translate(11,5)"/>
<path d="M0,0 L7,0 L6,6 L3,8 L-2,8 L-3,6 Z " fill="#D4D4D4" transform="translate(13,17)"/>
<path d="M0,0 L7,0 L7,4 L4,6 L4,4 L-1,3 Z " fill="#121212" transform="translate(11,7)"/>
<path d="M0,0 L5,1 L4,5 L0,6 L-1,1 Z " fill="#181818" transform="translate(13,17)"/>
</svg>
