<?xml version="1.0" encoding="UTF-8"?>
<svg version="1.1" xmlns="http://www.w3.org/2000/svg" width="28" height="28">
<path d="M0,0 L28,0 L28,28 L0,28 Z " fill="#020202" transform="translate(0,0)"/>
<path d="M0,0 L6,1 L7,5 L1,9 L3,14 L3,19 L2,20 L-5,20 L-7,18 L-6,12 L-6,8 L-6,3 L-4,1 Z " fill="#EAEAEA" transform="translate(16,5)"/>
<path d="M0,0 L4,1 L6,7 L8,8 L7,9 L0,9 L-2,7 L-1,1 Z " fill="#E7E7E7" transform="translate(11,16)"/>
<path d="M0,0 L6,0 L5,4 L0,7 L-2,3 Z " fill="#191919" transform="translate(14,7)"/>
<path d="M0,0 L2,0 L4,6 L1,7 L-1,6 L-1,1 Z " fill="#0C0C0C" transform="translate(13,17)"/>
</svg>
