<?xml version="1.0" encoding="UTF-8"?>
<svg version="1.1" xmlns="http://www.w3.org/2000/svg" width="28" height="28">
<path d="M0,0 L28,0 L28,28 L0,28 Z " fill="#010101" transform="translate(0,0)"/>
<path d="M0,0 L3,1 L4,4 L6,5 L5,14 L6,15 L6,20 L-3,20 L-4,16 L-2,11 L-6,8 L-5,3 Z " fill="#E4E4E4" transform="translate(14,5)"/>
<path d="M0,0 L3,1 L3,4 L-3,4 L0,9 L0,11 L-5,9 L-6,4 L-3,1 Z " fill="#E6E6E6" transform="translate(14,5)"/>
<path d="M0,0 L4,2 L6,1 L6,6 L-3,6 L-4,2 L0,2 Z " fill="#BFBFBF" transform="translate(14,19)"/>
<path d="M0,0 L4,0 L4,3 L6,3 L5,6 L1,4 Z " fill="#222222" transform="translate(11,9)"/>
<path d="M0,0 L3,1 L3,5 L-1,5 Z " fill="#0F0F0F" transform="translate(14,19)"/>
<path d="M0,0 L5,1 L4,6 L0,3 Z " fill="#C6C6C6" transform="translate(15,9)"/>
</svg>
