<?xml version="1.0" encoding="UTF-8"?>
<svg version="1.1" xmlns="http://www.w3.org/2000/svg" width="28" height="28">
<path d="M0,0 L28,0 L28,28 L0,28 Z " fill="#010101" transform="translate(0,0)"/>
<path d="M0,0 L5,0 L6,1 L5,8 L4,10 L2,10 L4,13 L4,18 L0,20 L-4,19 L-4,13 L-3,11 L-4,9 L-4,3 Z " fill="#CBCBCB" transform="translate(14,5)"/>
<path d="M0,0 L5,0 L6,1 L5,8 L3,10 L3,7 L0,8 L-2,7 L-4,9 L-4,3 Z " fill="#DFDFDF" transform="translate(14,5)"/>
<path d="M0,0 L6,1 L6,7 L2,9 L0,11 Z " fill="#EFEFEF" transform="translate(11,11)"/>
<path d="M0,0 L3,1 L2,7 L1,4 L-2,5 L-2,2 Z " fill="#878787" transform="translate(16,8)"/>
</svg>
