<?xml version="1.0" encoding="UTF-8"?>
<svg version="1.1" xmlns="http://www.w3.org/2000/svg" width="28" height="28">
<path d="M0,0 L28,0 L28,28 L0,28 Z " fill="#010101" transform="translate(0,0)"/>
<path d="M0,0 L2,0 L4,5 L6,5 L7,2 L9,2 L9,9 L4,12 L1,12 L2,19 L-3,20 L-5,17 L-5,4 Z " fill="#DBDBDB" transform="translate(14,5)"/>
<path d="M0,0 L2,0 L5,7 L-3,9 L-4,5 Z " fill="#B7B7B7" transform="translate(14,5)"/>
<path d="M0,0 L3,0 L2,4 L-2,4 L-2,1 Z " fill="#F7F7F7" transform="translate(13,21)"/>
</svg>
