<?xml version="1.0" encoding="UTF-8"?>
<svg version="1.1" xmlns="http://www.w3.org/2000/svg" width="28" height="28">
<path d="M0,0 L28,0 L28,28 L0,28 Z " fill="#020202" transform="translate(0,0)"/>
<path d="M0,0 L3,1 L3,3 L5,3 L3,7 L0,9 L-1,12 L1,12 L2,19 L1,20 L-6,19 L-5,12 L-3,3 Z " fill="#ECECEC" transform="translate(15,4)"/>
<path d="M0,0 L4,0 L5,6 L4,7 L-3,6 L-3,1 Z " fill="#D7D7D7" transform="translate(12,17)"/>
<path d="M0,0 L3,1 L4,4 L0,5 L-1,8 L-3,5 L-2,1 Z " fill="#CFCFCF" transform="translate(15,4)"/>
<path d="M0,0 L5,0 L5,3 L0,5 Z " fill="#797979" transform="translate(9,18)"/>
</svg>
