<?xml version="1.0" encoding="UTF-8"?>
<svg version="1.1" xmlns="http://www.w3.org/2000/svg" width="28" height="28">
<path d="M0,0 L28,0 L28,28 L0,28 Z " fill="#020202" transform="translate(0,0)"/>
<path d="M0,0 L6,2 L4,6 L1,9 L2,18 L-1,20 L-6,20 L-7,16 L-5,12 L-5,4 Z " fill="#EBEBEB" transform="translate(16,5)"/>
<path d="M0,0 L2,3 L3,9 L0,11 L-5,11 L-6,7 L-2,3 L0,3 Z " fill="#A1A1A1" transform="translate(15,14)"/>
<path d="M0,0 L2,1 L4,4 L0,7 L-3,5 L-1,1 Z " fill="#878787" transform="translate(14,6)"/>
</svg>
