<?xml version="1.0" encoding="UTF-8"?>
<svg version="1.1" xmlns="http://www.w3.org/2000/svg" width="28" height="28">
<path d="M0,0 L28,0 L28,28 L0,28 Z " fill="#020202" transform="translate(0,0)"/>
<path d="M0,0 L3,0 L3,2 L7,3 L8,12 L3,17 L-1,20 L-6,19 L-5,14 L-3,10 L-5,8 L-4,3 Z " fill="#A1A1A1" transform="translate(14,5)"/>
<path d="M0,0 L2,0 L1,5 L8,4 L7,7 L2,12 L0,15 L7,13 L3,17 L-2,16 L-1,11 L1,7 L-1,5 Z " fill="#DEDEDE" transform="translate(10,8)"/>
<path d="M0,0 L3,0 L2,5 L-4,9 L-7,9 L-5,5 Z " fill="#141414" transform="translate(17,14)"/>
</svg>
