<?xml version="1.0" encoding="UTF-8"?>
<svg version="1.1" xmlns="http://www.w3.org/2000/svg" width="28" height="28">
<path d="M0,0 L28,0 L28,28 L0,28 Z " fill="#030303" transform="translate(0,0)"/>
<path d="M0,0 L7,0 L9,2 L7,8 L8,15 L4,19 L-2,20 L-3,15 L-1,13 L-2,9 L-5,6 L-3,2 Z " fill="#E4E4E4" transform="translate(12,5)"/>
<path d="M0,0 L6,1 L5,5 L2,6 L2,4 L-3,3 Z " fill="#F2F2F2" transform="translate(15,5)"/>
<path d="M0,0 L4,2 L1,5 L-2,3 L-2,1 Z " fill="#1C1C1C" transform="translate(13,8)"/>
</svg>
