<?xml version="1.0" encoding="UTF-8"?>
<svg version="1.1" xmlns="http://www.w3.org/2000/svg" width="28" height="28">
<path d="M0,0 L28,0 L28,28 L0,28 Z " fill="#030303" transform="translate(0,0)"/>
<path d="M0,0 L3,1 L2,3 L-6,5 L-6,7 L-1,5 L5,3 L5,7 L-1,10 L-1,17 L-7,20 L-13,20 L-13,15 L-8,10 L-11,7 L-9,3 L-6,1 Z " fill="#E4E4E4" transform="translate(19,5)"/>
<path d="M0,0 L3,1 L2,3 L-6,5 L-7,9 L-11,7 L-9,3 L-6,1 Z " fill="#DFDFDF" transform="translate(19,5)"/>
<path d="M0,0 L2,1 L1,5 L-3,7 L-6,7 L-4,3 Z " fill="#161616" transform="translate(14,16)"/>
<path d="M0,0 L2,3 L7,2 L9,4 L0,5 Z " fill="#BCBCBC" transform="translate(6,20)"/>
</svg>
