<?xml version="1.0" encoding="UTF-8"?>
<svg version="1.1" xmlns="http://www.w3.org/2000/svg" width="28" height="28">
<path d="M0,0 L28,0 L28,28 L0,28 Z " fill="#030303" transform="translate(0,0)"/>
<path d="M0,0 L3,1 L3,3 L12,0 L10,5 L1,10 L2,16 L1,17 L-6,17 L-8,15 L-7,11 L-5,4 L-3,4 L-3,1 Z " fill="#DCDCDC" transform="translate(14,6)"/>
<path d="M0,0 L3,1 L3,3 L12,0 L10,5 L3,9 L1,9 L1,6 L-3,8 L-3,1 Z " fill="#DADADA" transform="translate(14,6)"/>
<path d="M0,0 L3,1 L3,3 L5,4 L-3,8 L-3,1 Z " fill="#262626" transform="translate(14,6)"/>
<path d="M0,0 L3,1 L3,3 L-3,4 L-3,1 Z " fill="#CDCDCD" transform="translate(14,6)"/>
</svg>
