<?xml version="1.0" encoding="UTF-8"?>
<svg version="1.1" xmlns="http://www.w3.org/2000/svg" width="28" height="28">
<path d="M0,0 L28,0 L28,28 L0,28 Z " fill="#020202" transform="translate(0,0)"/>
<path d="M0,0 L3,0 L3,3 L-2,5 L-4,8 L7,5 L5,9 L3,11 L0,11 L3,15 L3,19 L-4,20 L-7,18 L-7,5 L-2,1 Z " fill="#E7E7E7" transform="translate(16,4)"/>
<path d="M0,0 L5,1 L5,6 L0,6 L-2,3 Z " fill="#8D8D8D" transform="translate(12,18)"/>
<path d="M0,0 L4,0 L4,2 L6,3 L-3,6 L-3,3 Z " fill="#191919" transform="translate(15,7)"/>
</svg>
