<?xml version="1.0" encoding="UTF-8"?>
<svg version="1.1" xmlns="http://www.w3.org/2000/svg" width="28" height="28">
<path d="M0,0 L28,0 L28,28 L0,28 Z " fill="#050505" transform="translate(0,0)"/>
<path d="M0,0 L17,0 L20,3 L20,8 L15,10 L17,15 L14,18 L4,18 L2,16 L3,12 L10,10 L0,2 Z " fill="#D3D3D3" transform="translate(5,6)"/>
<path d="M0,0 L6,0 L9,2 L9,6 L4,8 L-3,3 L-3,1 Z " fill="#0F0F0F" transform="translate(14,7)"/>
<path d="M0,0 L17,0 L20,3 L20,6 L18,6 L18,3 L9,2 L6,2 L9,5 L11,7 L8,8 L0,2 Z " fill="#D5D5D5" transform="translate(5,6)"/>
<path d="M0,0 L5,0 L2,3 L12,3 L11,6 L1,6 L-1,4 Z " fill="#E6E6E6" transform="translate(8,18)"/>
<path d="M0,0 L4,0 L4,4 L-5,4 L-6,2 Z " fill="#0A0A0A" transform="translate(15,18)"/>
<path d="M0,0 L11,0 L14,3 L14,6 L12,6 L12,3 L0,1 Z " fill="#F1F1F1" transform="translate(11,6)"/>
</svg>
