<?xml version="1.0" encoding="UTF-8"?>
<svg version="1.1" xmlns="http://www.w3.org/2000/svg" width="28" height="28">
<path d="M0,0 L28,0 L28,28 L0,28 Z " fill="#040404" transform="translate(0,0)"/>
<path d="M0,0 L7,0 L10,2 L9,5 L8,2 L-2,4 L-1,8 L6,7 L12,6 L12,8 L7,10 L8,13 L10,14 L9,19 L7,20 L0,20 L-1,19 L-2,10 L-4,8 L-4,2 Z " fill="#E5E5E5" transform="translate(11,5)"/>
<path d="M0,0 L4,1 L5,4 L2,5 L-2,4 Z " fill="#1C1C1C" transform="translate(14,18)"/>
<path d="M0,0 L2,0 L1,5 L-3,6 L-2,3 Z " fill="#CECECE" transform="translate(19,19)"/>
</svg>
