<?xml version="1.0" encoding="UTF-8"?>
<svg version="1.1" xmlns="http://www.w3.org/2000/svg" width="28" height="28">
<path d="M0,0 L28,0 L28,28 L0,28 Z " fill="#010101" transform="translate(0,0)"/>
<path d="M0,0 L4,1 L4,9 L1,13 L-1,19 L-2,20 L-8,20 L-9,17 L-4,15 L-5,6 Z " fill="#A9A9A9" transform="translate(16,4)"/>
<path d="M0,0 L4,1 L4,7 L3,5 L-2,6 L-3,11 L-5,10 L-4,4 Z " fill="#D6D6D6" transform="translate(16,4)"/>
<path d="M0,0 L3,1 L2,6 L-1,7 L-2,2 Z " fill="#080808" transform="translate(15,8)"/>
<path d="M0,0 L1,3 L-1,5 L-7,5 L-8,2 L-4,1 L-4,3 L-1,2 Z " fill="#DADADA" transform="translate(15,19)"/>
</svg>
