<?xml version="1.0" encoding="UTF-8"?>
<svg version="1.1" xmlns="http://www.w3.org/2000/svg" width="28" height="28">
<path d="M0,0 L28,0 L28,28 L0,28 Z " fill="#010101" transform="translate(0,0)"/>
<path d="M0,0 L4,0 L3,5 L0,9 L-2,18 L-7,20 L-8,16 L-5,12 L-6,4 Z " fill="#E4E4E4" transform="translate(17,5)"/>
<path d="M0,0 L2,0 L2,7 L-2,11 L-5,10 L-4,6 Z " fill="#F1F1F1" transform="translate(14,14)"/>
<path d="M0,0 L1,4 L-3,8 L-7,7 L-6,4 L-1,2 Z " fill="#7A7A7A" transform="translate(20,5)"/>
<path d="M0,0 L3,0 L2,5 L-2,6 L-1,2 Z " fill="#ACACAC" transform="translate(11,18)"/>
</svg>
