<?xml version="1.0" encoding="UTF-8"?>
<svg version="1.1" xmlns="http://www.w3.org/2000/svg" width="28" height="28">
<path d="M0,0 L28,0 L28,28 L0,28 Z " fill="#020202" transform="translate(0,0)"/>
<path d="M0,0 L10,1 L11,6 L7,11 L5,11 L7,15 L6,19 L5,20 L-2,20 L-4,18 L-4,14 L0,11 L-3,6 L-2,2 Z " fill="#E4E4E4" transform="translate(12,5)"/>
<path d="M0,0 L10,1 L11,6 L6,11 L6,9 L2,10 L-1,4 L-3,6 L-2,2 Z " fill="#D7D7D7" transform="translate(12,5)"/>
<path d="M0,0 L2,4 L3,6 L7,6 L7,12 L1,11 L0,7 L-1,1 Z " fill="#EEEEEE" transform="translate(11,8)"/>
<path d="M0,0 L2,0 L2,2 L6,1 L5,6 L1,8 L-1,5 Z " fill="#1D1D1D" transform="translate(13,7)"/>
<path d="M0,0 L4,1 L4,4 L-1,4 L-1,1 Z " fill="#212121" transform="translate(12,19)"/>
</svg>
