<?xml version="1.0" encoding="UTF-8"?>
<svg version="1.1" xmlns="http://www.w3.org/2000/svg" width="28" height="28">
<path d="M0,0 L28,0 L28,28 L0,28 Z " fill="#010101" transform="translate(0,0)"/>
<path d="M0,0 L3,0 L2,2 L0,3 L0,8 L5,13 L6,14 L6,20 L1,19 L-1,10 L-3,8 L-3,2 Z " fill="#A4A4A4" transform="translate(12,4)"/>
<path d="M0,0 L3,0 L6,3 L6,5 L3,7 L1,10 L1,8 L-2,7 L-2,2 Z " fill="#6C6C6C" transform="translate(13,5)"/>
<path d="M0,0 L2,2 L1,7 L-2,7 L-2,2 Z " fill="#0A0A0A" transform="translate(13,5)"/>
</svg>
