<?xml version="1.0" encoding="UTF-8"?>
<svg version="1.1" xmlns="http://www.w3.org/2000/svg" width="28" height="28">
<path d="M0,0 L28,0 L28,28 L0,28 Z " fill="#020202" transform="translate(0,0)"/>
<path d="M0,0 L6,1 L5,5 L0,8 L-6,15 L-12,18 L-14,18 L-12,14 L-8,13 L-10,9 L-10,5 Z " fill="#E2E2E2" transform="translate(18,7)"/>
<path d="M0,0 L6,1 L5,5 L0,8 L-2,8 L-1,5 L-5,5 L-4,2 Z " fill="#E7E7E7" transform="translate(18,7)"/>
<path d="M0,0 L4,1 L7,0 L7,2 L3,3 L1,7 L-4,6 L-4,2 Z " fill="#D4D4D4" transform="translate(12,10)"/>
<path d="M0,0 L1,2 L-3,3 L-5,7 L-7,7 L-7,4 Z " fill="#373737" transform="translate(18,10)"/>
</svg>
