<?xml version="1.0" encoding="UTF-8"?>
<svg version="1.1" xmlns="http://www.w3.org/2000/svg" width="28" height="28">
<path d="M0,0 L28,0 L28,28 L0,28 Z " fill="#010101" transform="translate(0,0)"/>
<path d="M0,0 L6,1 L5,6 L3,5 L3,3 L1,4 L1,7 L9,7 L9,9 L4,11 L6,14 L5,19 L4,20 L-1,20 L-5,17 L-4,12 L-2,11 L-3,3 Z " fill="#DEDEDE" transform="translate(13,4)"/>
<path d="M0,0 L5,1 L4,6 L3,7 L-2,7 L-3,2 Z " fill="#A2A2A2" transform="translate(14,17)"/>
<path d="M0,0 L2,0 L4,2 L8,4 L0,5 L-1,1 Z " fill="#1C1C1C" transform="translate(14,7)"/>
</svg>
