<?xml version="1.0" encoding="UTF-8"?>
<svg version="1.1" xmlns="http://www.w3.org/2000/svg" width="28" height="28">
<path d="M0,0 L28,0 L28,28 L0,28 Z " fill="#030303" transform="translate(0,0)"/>
<path d="M0,0 L3,1 L-1,10 L-9,15 L-12,18 L-17,17 L-15,13 L-11,12 L-12,5 L-7,2 Z " fill="#DEDEDE" transform="translate(22,6)"/>
<path d="M0,0 L5,2 L3,6 L-1,10 L-6,9 L-4,5 L0,4 Z " fill="#E4E4E4" transform="translate(11,14)"/>
<path d="M0,0 L5,0 L2,5 L-3,6 L-2,1 Z " fill="#0F0F0F" transform="translate(16,10)"/>
</svg>
