<?xml version="1.0" encoding="UTF-8"?>
<svg version="1.1" xmlns="http://www.w3.org/2000/svg" width="28" height="28">
<path d="M0,0 L28,0 L28,28 L0,28 Z " fill="#030303" transform="translate(0,0)"/>
<path d="M0,0 L6,1 L8,3 L4,11 L-3,12 L-4,16 L-5,17 L-11,17 L-10,13 L-8,9 L-7,4 L-5,2 Z " fill="#D9D9D9" transform="translate(17,6)"/>
<path d="M0,0 L2,0 L1,7 L7,7 L6,10 L2,10 L1,14 L0,15 L-6,15 L-5,11 L-3,7 L-2,2 Z " fill="#E6E6E6" transform="translate(12,8)"/>
<path d="M0,0 L3,0 L2,5 L-5,7 L-6,2 Z " fill="#090909" transform="translate(18,9)"/>
<path d="M0,0 L3,1 L3,4 L-3,4 L-3,1 Z " fill="#BFBFBF" transform="translate(9,19)"/>
</svg>
