<?xml version="1.0" encoding="UTF-8"?>
<svg version="1.1" xmlns="http://www.w3.org/2000/svg" width="28" height="28">
<path d="M0,0 L28,0 L28,28 L0,28 Z " fill="#030303" transform="translate(0,0)"/>
<path d="M0,0 L2,0 L0,4 L-1,6 L5,2 L10,2 L10,4 L4,7 L2,17 L-1,20 L-5,19 L-6,18 L-6,11 L-4,9 L-2,2 Z " fill="#E0E0E0" transform="translate(14,5)"/>
<path d="M0,0 L5,0 L4,7 L1,10 L-3,9 L-4,8 L-4,1 L-3,3 L-1,3 Z " fill="#D3D3D3" transform="translate(12,15)"/>
<path d="M0,0 L3,0 L1,6 L-2,6 L-1,1 Z " fill="#0A0A0A" transform="translate(12,15)"/>
</svg>
