<?xml version="1.0" encoding="UTF-8"?>
<svg version="1.1" xmlns="http://www.w3.org/2000/svg" width="28" height="28">
<path d="M0,0 L28,0 L28,28 L0,28 Z " fill="#020202" transform="translate(0,0)"/>
<path d="M0,0 L5,1 L6,2 L6,7 L6,10 L5,16 L1,20 L-2,19 L-2,13 L-1,9 L-1,2 Z " fill="#C3C3C3" transform="translate(13,5)"/>
<path d="M0,0 L3,0 L3,6 L-1,8 L-2,3 Z " fill="#767676" transform="translate(13,15)"/>
<path d="M0,0 L2,2 L5,1 L5,7 L3,7 L3,5 L0,5 Z " fill="#F6F6F6" transform="translate(13,10)"/>
</svg>
