<?xml version="1.0" encoding="UTF-8"?>
<svg version="1.1" xmlns="http://www.w3.org/2000/svg" width="28" height="28">
<path d="M0,0 L28,0 L28,28 L0,28 Z " fill="#030303" transform="translate(0,0)"/>
<path d="M0,0 L7,1 L8,2 L8,7 L4,11 L2,11 L1,18 L-1,20 L-8,20 L-9,16 L-3,11 L-1,11 L-3,8 L-3,3 Z " fill="#EAEAEA" transform="translate(15,4)"/>
<path d="M0,0 L5,0 L5,4 L-3,6 L-2,2 Z " fill="#848484" transform="translate(9,17)"/>
<path d="M0,0 L5,0 L5,4 L1,6 L-1,4 Z " fill="#121212" transform="translate(15,7)"/>
</svg>
