<?xml version="1.0" encoding="UTF-8"?>
<svg version="1.1" xmlns="http://www.w3.org/2000/svg" width="28" height="28">
<path d="M0,0 L28,0 L28,28 L0,28 Z " fill="#030303" transform="translate(0,0)"/>
<path d="M0,0 L7,1 L7,3 L4,3 L2,7 L1,10 L7,12 L6,17 L3,20 L-2,19 L-3,18 L-3,11 L-8,10 L-6,6 L-1,2 Z " fill="#888888" transform="translate(15,5)"/>
<path d="M0,0 L7,1 L7,3 L4,3 L2,7 L0,9 L0,6 L-4,8 L-5,10 L-2,11 L-7,11 L-7,7 L-1,2 Z " fill="#E2E2E2" transform="translate(15,5)"/>
<path d="M0,0 L1,4 L0,8 L5,7 L6,2 L8,2 L7,7 L4,10 L-1,9 L-2,8 L-2,3 Z " fill="#DFDFDF" transform="translate(14,15)"/>
<path d="M0,0 L5,0 L4,5 L-1,6 Z " fill="#121212" transform="translate(15,17)"/>
</svg>
