<?xml version="1.0" encoding="UTF-8"?>
<svg version="1.1" xmlns="http://www.w3.org/2000/svg" width="28" height="28">
<path d="M0,0 L28,0 L28,28 L0,28 Z " fill="#020202" transform="translate(0,0)"/>
<path d="M0,0 L3,1 L3,7 L1,11 L3,13 L2,17 L-3,20 L-7,19 L-8,15 L-4,11 L-2,2 Z " fill="#E8E8E8" transform="translate(16,4)"/>
<path d="M0,0 L3,0 L4,6 L0,8 L-4,7 L-5,3 Z " fill="#C6C6C6" transform="translate(13,16)"/>
<path d="M0,0 L3,1 L0,8 L-2,8 L-3,4 Z " fill="#979797" transform="translate(16,4)"/>
<path d="M0,0 L3,0 L2,5 L-2,6 L-1,1 Z " fill="#141414" transform="translate(13,16)"/>
</svg>
