<?xml version="1.0" encoding="UTF-8"?>
<svg version="1.1" xmlns="http://www.w3.org/2000/svg" width="28" height="28">
<path d="M0,0 L28,0 L28,28 L0,28 Z " fill="#050505" transform="translate(0,0)"/>
<path d="M0,0 L5,1 L4,4 L-1,3 L-1,9 L4,6 L11,6 L7,8 L1,10 L2,17 L0,17 L-2,14 L-3,16 L-5,16 L-5,18 L0,18 L-1,20 L-6,20 L-7,16 L-5,12 L-3,12 L-3,3 Z " fill="#E4E4E4" transform="translate(15,4)"/>
<path d="M0,0 L2,1 L2,4 L4,5 L2,6 L-3,5 L-3,3 L-1,3 Z " fill="#5F5F5F" transform="translate(13,17)"/>
</svg>
