<?xml version="1.0" encoding="UTF-8"?>
<svg version="1.1" xmlns="http://www.w3.org/2000/svg" width="28" height="28">
<path d="M0,0 L28,0 L28,28 L0,28 Z " fill="#020202" transform="translate(0,0)"/>
<path d="M0,0 L4,0 L6,4 L1,9 L3,13 L4,19 L-3,20 L-4,19 L-4,10 L-7,9 L-6,4 L-3,1 Z " fill="#C5C5C5" transform="translate(15,5)"/>
<path d="M0,0 L4,0 L2,5 L-1,8 L-5,7 L-5,4 L-3,1 Z " fill="#C9C9C9" transform="translate(15,5)"/>
<path d="M0,0 L3,1 L2,3 L5,5 L3,5 L2,9 L2,6 L-1,5 Z " fill="#D7D7D7" transform="translate(9,9)"/>
<path d="M0,0 L4,1 L0,5 L-4,4 Z " fill="#1A1A1A" transform="translate(14,8)"/>
</svg>
