<?xml version="1.0" encoding="UTF-8"?>
<svg version="1.1" xmlns="http://www.w3.org/2000/svg" width="28" height="28">
<path d="M0,0 L28,0 L28,28 L0,28 Z " fill="#020202" transform="translate(0,0)"/>
<path d="M0,0 L5,1 L5,7 L4,12 L2,16 L-2,20 L-5,20 L-6,17 L-3,8 L-7,7 L-7,3 L-2,5 L1,6 L2,3 L-1,1 Z " fill="#DADADA" transform="translate(15,5)"/>
<path d="M0,0 L4,2 L5,4 L2,7 L-2,5 L-1,1 Z " fill="#656565" transform="translate(13,5)"/>
<path d="M0,0 L1,2 L6,0 L4,4 L-1,5 L-2,2 Z " fill="#F4F4F4" transform="translate(11,20)"/>
</svg>
