<?xml version="1.0" encoding="UTF-8"?>
<svg version="1.1" xmlns="http://www.w3.org/2000/svg" width="28" height="28">
<path d="M0,0 L28,0 L28,28 L0,28 Z " fill="#070707" transform="translate(0,0)"/>
<path d="M0,0 L5,0 L7,8 L2,10 L4,14 L4,19 L2,20 L-5,20 L-7,17 L-6,12 L-3,8 L-4,3 Z " fill="#EDEDED" transform="translate(14,4)"/>
<path d="M0,0 L5,0 L3,2 L5,6 L2,8 L-3,8 L-4,3 Z " fill="#D7D7D7" transform="translate(14,4)"/>
<path d="M0,0 L4,1 L5,5 L-1,5 L-1,1 Z " fill="#111111" transform="translate(11,16)"/>
<path d="M0,0 L5,1 L4,4 L0,5 L-1,1 Z " fill="#101010" transform="translate(14,7)"/>
<path d="M0,0 L3,3 L8,4 L4,5 L4,7 L1,6 Z " fill="#CBCBCB" transform="translate(7,17)"/>
</svg>
