<?xml version="1.0" encoding="UTF-8"?>
<svg version="1.1" xmlns="http://www.w3.org/2000/svg" width="28" height="28">
<path d="M0,0 L28,0 L28,28 L0,28 Z " fill="#030303" transform="translate(0,0)"/>
<path d="M0,0 L5,0 L6,3 L-1,5 L-1,7 L5,8 L11,4 L15,4 L14,7 L10,10 L8,10 L12,14 L12,17 L7,20 L2,20 L1,17 L-1,17 L0,11 L-5,7 L-4,3 Z " fill="#E0E0E0" transform="translate(10,4)"/>
<path d="M0,0 L5,0 L6,3 L-1,5 L-5,7 L-4,3 Z " fill="#E5E5E5" transform="translate(10,4)"/>
<path d="M0,0 L6,0 L7,4 L2,5 L-2,4 Z " fill="#818181" transform="translate(15,17)"/>
</svg>
