<?xml version="1.0" encoding="UTF-8"?>
<svg version="1.1" xmlns="http://www.w3.org/2000/svg" width="28" height="28">
<path d="M0,0 L28,0 L28,28 L0,28 Z " fill="#020202" transform="translate(0,0)"/>
<path d="M0,0 L4,1 L1,3 L-3,5 L-4,7 L1,6 L5,4 L3,10 L4,17 L1,20 L-4,19 L-1,17 L1,16 L1,12 L-1,11 L-2,16 L-4,13 L-3,9 L-7,8 L-6,2 Z " fill="#D6D6D6" transform="translate(15,5)"/>
<path d="M0,0 L1,3 L-5,7 L-8,6 L-7,3 Z " fill="#1F1F1F" transform="translate(19,6)"/>
<path d="M0,0 L3,1 L2,6 L-4,8 L-4,6 L-1,3 Z " fill="#232323" transform="translate(14,16)"/>
</svg>
