<?xml version="1.0" encoding="UTF-8"?>
<svg version="1.1" xmlns="http://www.w3.org/2000/svg" width="28" height="28">
<path d="M0,0 L28,0 L28,28 L0,28 Z " fill="#020202" transform="translate(0,0)"/>
<path d="M0,0 L3,1 L4,7 L3,9 L7,11 L7,18 L5,20 L-1,19 L-1,11 L-5,10 L-6,6 L-3,1 Z " fill="#D3D3D3" transform="translate(13,4)"/>
<path d="M0,0 L3,1 L4,7 L2,8 L1,3 L-2,4 L-4,9 L-2,10 L-5,10 L-6,6 L-3,1 Z " fill="#D5D5D5" transform="translate(13,4)"/>
<path d="M0,0 L2,1 L2,6 L-2,8 L-4,7 L-3,2 Z " fill="#0B0B0B" transform="translate(13,6)"/>
<path d="M0,0 L5,1 L5,6 L0,7 Z " fill="#161616" transform="translate(14,15)"/>
</svg>
