<?xml version="1.0" encoding="UTF-8"?>
<svg version="1.1" xmlns="http://www.w3.org/2000/svg" width="28" height="28">
<path d="M0,0 L28,0 L28,28 L0,28 Z " fill="#010101" transform="translate(0,0)"/>
<path d="M0,0 L2,0 L2,2 L4,2 L4,9 L2,12 L1,19 L0,20 L-7,19 L-8,14 L-3,13 L-4,2 L0,2 Z " fill="#D5D5D5" transform="translate(16,4)"/>
<path d="M0,0 L3,2 L2,7 L-1,8 L-3,2 L0,2 Z " fill="#343434" transform="translate(16,6)"/>
<path d="M0,0 L1,0 L1,7 L-1,8 L-6,4 L-3,2 L0,2 Z " fill="#6C6C6C" transform="translate(16,16)"/>
</svg>
