<?xml version="1.0" encoding="UTF-8"?>
<svg version="1.1" xmlns="http://www.w3.org/2000/svg" width="28" height="28">
<path d="M0,0 L28,0 L28,28 L0,28 Z " fill="#030303" transform="translate(0,0)"/>
<path d="M0,0 L6,0 L8,2 L7,7 L3,9 L4,18 L1,20 L-4,20 L-6,18 L-5,12 L-1,8 L-4,7 L-3,5 L3,7 L5,3 L-3,4 L-3,1 Z " fill="#DDDDDD" transform="translate(14,4)"/>
<path d="M0,0 L6,0 L8,2 L7,7 L3,9 L3,12 L-2,11 L-1,8 L-4,7 L-3,5 L3,7 L5,3 L-3,4 L-3,1 Z " fill="#E0E0E0" transform="translate(14,4)"/>
<path d="M0,0 L3,1 L2,5 L-2,4 Z " fill="#191919" transform="translate(12,17)"/>
</svg>
