<?xml version="1.0" encoding="UTF-8"?>
<svg version="1.1" xmlns="http://www.w3.org/2000/svg" width="28" height="28">
<path d="M0,0 L28,0 L28,28 L0,28 Z " fill="#030303" transform="translate(0,0)"/>
<path d="M0,0 L7,0 L11,4 L11,6 L6,7 L6,9 L11,11 L11,19 L6,20 L-1,17 L-2,9 L-5,7 L-4,2 Z " fill="#CCCCCC" transform="translate(10,5)"/>
<path d="M0,0 L3,2 L3,4 L-2,5 L-2,7 L3,9 L3,17 L-2,18 L-5,16 L0,14 L-2,10 L-8,8 L-9,5 L-1,2 Z " fill="#E8E8E8" transform="translate(18,7)"/>
<path d="M0,0 L5,0 L8,3 L6,7 L1,5 Z " fill="#121212" transform="translate(11,16)"/>
<path d="M0,0 L6,0 L8,2 L2,5 L-3,3 Z " fill="#0A0A0A" transform="translate(10,7)"/>
</svg>
