<?xml version="1.0" encoding="UTF-8"?>
<svg version="1.1" xmlns="http://www.w3.org/2000/svg" width="28" height="28">
<path d="M0,0 L28,0 L28,28 L0,28 Z " fill="#010101" transform="translate(0,0)"/>
<path d="M0,0 L5,1 L5,9 L6,10 L6,16 L2,20 L-5,20 L-7,18 L-6,12 L-5,8 L-4,3 Z " fill="#D2D2D2" transform="translate(15,4)"/>
<path d="M0,0 L6,0 L7,3 L4,7 L-2,7 L-3,4 Z " fill="#0A0A0A" transform="translate(13,15)"/>
<path d="M0,0 L5,1 L5,9 L6,14 L4,12 L-3,11 L-3,9 L3,9 L4,5 L2,4 L3,2 L-1,4 L-3,6 L-3,2 Z " fill="#E0E0E0" transform="translate(15,4)"/>
<path d="M0,0 L3,0 L4,5 L3,7 L-2,7 L-3,4 Z " fill="#181818" transform="translate(15,6)"/>
</svg>
