<?xml version="1.0" encoding="UTF-8"?>
<svg version="1.1" xmlns="http://www.w3.org/2000/svg" width="28" height="28">
<path d="M0,0 L28,0 L28,28 L0,28 Z " fill="#030303" transform="translate(0,0)"/>
<path d="M0,0 L8,0 L9,1 L8,8 L6,11 L7,12 L7,17 L3,19 L-2,19 L-3,15 L1,9 L-3,8 L-1,1 Z " fill="#D4D4D4" transform="translate(12,5)"/>
<path d="M0,0 L5,0 L4,5 L-1,6 L-1,2 Z " fill="#090909" transform="translate(14,7)"/>
<path d="M0,0 L4,1 L2,6 L5,8 L5,10 L2,10 L2,8 L-2,7 Z " fill="#E9E9E9" transform="translate(11,6)"/>
<path d="M0,0 L3,0 L3,4 L-3,5 L-1,1 Z " fill="#181818" transform="translate(14,17)"/>
<path d="M0,0 L8,0 L9,2 L7,5 L7,2 L0,1 Z " fill="#B7B7B7" transform="translate(12,5)"/>
</svg>
