<?xml version="1.0" encoding="UTF-8"?>
<svg version="1.1" xmlns="http://www.w3.org/2000/svg" width="28" height="28">
<path d="M0,0 L28,0 L28,28 L0,28 Z " fill="#030303" transform="translate(0,0)"/>
<path d="M0,0 L4,1 L3,5 L0,6 L1,14 L-1,18 L-4,20 L-11,19 L-10,12 L-5,7 L-7,1 Z " fill="#E6E6E6" transform="translate(18,5)"/>
<path d="M0,0 L2,0 L2,6 L0,8 L-4,8 L-3,4 Z " fill="#0B0B0B" transform="translate(14,14)"/>
<path d="M0,0 L1,2 L6,0 L9,0 L8,3 L5,4 L0,3 Z " fill="#C5C5C5" transform="translate(9,20)"/>
</svg>
