<?xml version="1.0" encoding="UTF-8"?>
<svg version="1.1" xmlns="http://www.w3.org/2000/svg" width="28" height="28">
<path d="M0,0 L28,0 L28,28 L0,28 Z " fill="#020202" transform="translate(0,0)"/>
<path d="M0,0 L7,1 L10,6 L10,8 L7,9 L5,17 L1,20 L-4,20 L-6,18 L-5,14 L-1,10 L-4,7 L-3,3 Z " fill="#DADADA" transform="translate(13,5)"/>
<path d="M0,0 L5,0 L5,3 L0,6 L-2,10 L2,10 L2,12 L-3,12 L-5,10 L-4,6 L0,1 Z " fill="#E3E3E3" transform="translate(12,13)"/>
<path d="M0,0 L5,1 L6,4 L3,6 L-2,5 L-2,2 Z " fill="#191919" transform="translate(14,7)"/>
<path d="M0,0 L3,0 L2,4 L-1,7 L-4,7 L-3,3 Z " fill="#1C1C1C" transform="translate(14,16)"/>
</svg>
