<?xml version="1.0" encoding="UTF-8"?>
<svg version="1.1" xmlns="http://www.w3.org/2000/svg" width="28" height="28">
<path d="M0,0 L28,0 L28,28 L0,28 Z " fill="#020202" transform="translate(0,0)"/>
<path d="M0,0 L3,0 L2,3 L-2,3 L-1,9 L3,8 L3,11 L1,11 L1,19 L-4,20 L-7,17 L-7,12 L-4,10 L-3,2 Z " fill="#D3D3D3" transform="translate(16,4)"/>
<path d="M0,0 L2,2 L8,0 L8,7 L3,8 L0,5 Z " fill="#C1C1C1" transform="translate(9,16)"/>
<path d="M0,0 L2,0 L3,5 L-2,4 L-2,1 Z " fill="#141414" transform="translate(13,17)"/>
</svg>
