<?xml version="1.0" encoding="UTF-8"?>
<svg version="1.1" xmlns="http://www.w3.org/2000/svg" width="28" height="28">
<path d="M0,0 L28,0 L28,28 L0,28 Z " fill="#030303" transform="translate(0,0)"/>
<path d="M0,0 L2,3 L2,6 L14,0 L17,0 L17,2 L5,8 L3,8 L3,15 L1,17 L-3,16 L-2,9 L1,8 L0,6 Z " fill="#A6A6A6" transform="translate(10,7)"/>
<path d="M0,0 L2,3 L2,6 L14,0 L17,0 L17,2 L5,8 L0,6 Z " fill="#C2C2C2" transform="translate(10,7)"/>
<path d="M0,0 L3,0 L3,2 L-3,5 L-6,4 Z " fill="#DBDBDB" transform="translate(24,7)"/>
</svg>
