<?xml version="1.0" encoding="UTF-8"?>
<svg version="1.1" xmlns="http://www.w3.org/2000/svg" width="28" height="28">
<path d="M0,0 L28,0 L28,28 L0,28 Z " fill="#020202" transform="translate(0,0)"/>
<path d="M0,0 L2,0 L1,5 L0,8 L6,5 L11,5 L9,8 L1,11 L-1,18 L-3,20 L-7,19 L-7,12 L-4,9 L-2,9 L-2,3 Z " fill="#E9E9E9" transform="translate(15,4)"/>
<path d="M0,0 L4,0 L3,6 L1,8 L-3,7 L-2,3 Z " fill="#B7B7B7" transform="translate(11,16)"/>
<path d="M0,0 L2,0 L2,5 L-2,5 Z " fill="#262626" transform="translate(11,16)"/>
<path d="M0,0 L2,0 L1,5 L-1,8 L-2,3 Z " fill="#B5B5B5" transform="translate(15,4)"/>
<path d="M0,0 L5,0 L3,3 L-2,4 Z " fill="#C4C4C4" transform="translate(21,9)"/>
</svg>
