<?xml version="1.0" encoding="UTF-8"?>
<svg version="1.1" xmlns="http://www.w3.org/2000/svg" width="28" height="28">
<path d="M0,0 L28,0 L28,28 L0,28 Z " fill="#010101" transform="translate(0,0)"/>
<path d="M0,0 L5,1 L4,3 L-6,5 L-3,6 L0,5 L-2,11 L-2,16 L0,17 L-1,12 L1,12 L1,20 L-4,19 L-6,16 L-6,9 L-9,6 L-9,4 L-5,1 Z " fill="#DFDFDF" transform="translate(17,5)"/>
<path d="M0,0 L8,0 L5,3 L-2,4 L-2,1 Z " fill="#222222" transform="translate(13,8)"/>
<path d="M0,0 L1,3 L3,4 L2,9 L-1,8 Z " fill="#3D3D3D" transform="translate(15,13)"/>
</svg>
