<?xml version="1.0" encoding="UTF-8"?>
<svg version="1.1" xmlns="http://www.w3.org/2000/svg" width="28" height="28">
<path d="M0,0 L28,0 L28,28 L0,28 Z " fill="#010101" transform="translate(0,0)"/>
<path d="M0,0 L4,1 L8,3 L7,8 L5,12 L7,15 L7,20 L1,20 L-1,17 L-1,11 L-6,7 L-5,2 Z " fill="#BEBEBE" transform="translate(13,5)"/>
<path d="M0,0 L7,1 L6,5 L5,7 L0,5 L-1,1 Z " fill="#0C0C0C" transform="translate(11,8)"/>
<path d="M0,0 L4,1 L8,3 L7,8 L5,8 L5,4 L-3,3 L-3,1 Z " fill="#DDDDDD" transform="translate(13,5)"/>
</svg>
