<?xml version="1.0" encoding="UTF-8"?>
<svg version="1.1" xmlns="http://www.w3.org/2000/svg" width="28" height="28">
<path d="M0,0 L28,0 L28,28 L0,28 Z " fill="#020202" transform="translate(0,0)"/>
<path d="M0,0 L7,0 L12,3 L11,8 L10,12 L11,19 L7,20 L4,18 L4,10 L-2,5 L-1,1 Z " fill="#F5F5F5" transform="translate(8,6)"/>
<path d="M0,0 L7,0 L12,3 L11,8 L9,10 L8,5 L2,3 L4,7 L7,10 L4,10 L-2,5 L-1,1 Z " fill="#D8D8D8" transform="translate(8,6)"/>
<path d="M0,0 L7,2 L6,7 L1,5 L-1,1 Z " fill="#131313" transform="translate(10,8)"/>
<path d="M0,0 L4,0 L5,6 L1,7 L0,6 Z " fill="#868686" transform="translate(12,18)"/>
</svg>
