<?xml version="1.0" encoding="UTF-8"?>
<svg version="1.1" xmlns="http://www.w3.org/2000/svg" width="28" height="28">
<path d="M0,0 L28,0 L28,28 L0,28 Z " fill="#010101" transform="translate(0,0)"/>
<path d="M0,0 L7,0 L13,2 L12,7 L10,9 L11,14 L12,20 L4,20 L2,17 L3,10 L-3,6 L-2,2 Z " fill="#E9E9E9" transform="translate(9,6)"/>
<path d="M0,0 L7,0 L13,2 L12,7 L9,9 L9,6 L10,4 L0,4 L4,8 L7,10 L5,10 L4,12 L0,8 L-3,6 L-2,2 Z " fill="#D2D2D2" transform="translate(9,6)"/>
<path d="M0,0 L10,1 L8,5 L4,6 L-1,1 Z " fill="#0A0A0A" transform="translate(9,9)"/>
<path d="M0,0 L2,0 L4,4 L4,7 L-1,7 L-2,3 Z " fill="#151515" transform="translate(15,18)"/>
<path d="M0,0 L2,0 L3,5 L8,5 L8,6 L2,6 L0,3 Z " fill="#BBBBBB" transform="translate(11,20)"/>
</svg>
