<?xml version="1.0" encoding="UTF-8"?>
<svg version="1.1" xmlns="http://www.w3.org/2000/svg" width="28" height="28">
<path d="M0,0 L28,0 L28,28 L0,28 Z " fill="#030303" transform="translate(0,0)"/>
<path d="M0,0 L6,0 L5,3 L2,2 L3,4 L10,3 L14,3 L11,6 L5,8 L4,16 L0,20 L-5,19 L-6,18 L-6,13 L-1,8 L1,8 L-1,1 Z " fill="#E2E2E2" transform="translate(12,5)"/>
<path d="M0,0 L2,0 L3,6 L0,9 L-5,8 L-6,7 L-6,2 Z " fill="#D7D7D7" transform="translate(12,16)"/>
<path d="M0,0 L1,4 L-3,6 L-3,2 Z " fill="#1C1C1C" transform="translate(12,16)"/>
</svg>
