<?xml version="1.0" encoding="UTF-8"?>
<svg version="1.1" xmlns="http://www.w3.org/2000/svg" width="28" height="28">
<path d="M0,0 L28,0 L28,28 L0,28 Z " fill="#010101" transform="translate(0,0)"/>
<path d="M0,0 L5,0 L7,2 L7,7 L5,11 L7,14 L7,19 L0,20 L-3,17 L-1,12 L-1,9 L-4,6 L-3,2 Z " fill="#D3D3D3" transform="translate(12,5)"/>
<path d="M0,0 L5,2 L5,7 L-2,8 L-5,5 L-5,3 Z " fill="#C7C7C7" transform="translate(14,17)"/>
<path d="M0,0 L3,0 L6,3 L4,7 L0,5 L-1,2 Z " fill="#1D1D1D" transform="translate(11,7)"/>
<path d="M0,0 L3,3 L3,6 L-2,6 L-2,2 Z " fill="#1A1A1A" transform="translate(14,17)"/>
<path d="M0,0 L5,0 L7,2 L6,6 L5,4 L2,4 L2,2 L0,2 Z " fill="#EEEEEE" transform="translate(12,5)"/>
</svg>
