<?xml version="1.0" encoding="UTF-8"?>
<svg version="1.1" xmlns="http://www.w3.org/2000/svg" width="28" height="28">
<path d="M0,0 L28,0 L28,28 L0,28 Z " fill="#020202" transform="translate(0,0)"/>
<path d="M0,0 L5,1 L5,11 L7,13 L7,19 L6,20 L1,20 L1,18 L-1,18 L0,12 L1,10 L-5,8 L-6,4 Z " fill="#DCDCDC" transform="translate(13,5)"/>
<path d="M0,0 L2,0 L2,2 L4,2 L2,7 L-4,5 L-4,2 Z " fill="#151515" transform="translate(13,7)"/>
<path d="M0,0 L3,1 L3,5 L-1,5 Z " fill="#0E0E0E" transform="translate(15,18)"/>
</svg>
