<?xml version="1.0" encoding="UTF-8"?>
<svg version="1.1" xmlns="http://www.w3.org/2000/svg" width="28" height="28">
<path d="M0,0 L28,0 L28,28 L0,28 Z " fill="#050505" transform="translate(0,0)"/>
<path d="M0,0 L6,0 L10,2 L10,7 L7,11 L8,18 L7,20 L0,19 L-2,14 L0,10 L-4,7 L-3,2 Z " fill="#D0D0D0" transform="translate(11,5)"/>
<path d="M0,0 L5,0 L8,2 L8,5 L5,7 L1,6 L-2,2 Z " fill="#080808" transform="translate(11,7)"/>
<path d="M0,0 L6,0 L10,2 L10,7 L8,8 L8,4 L0,3 L-2,7 L-4,7 L-3,2 Z " fill="#E3E3E3" transform="translate(11,5)"/>
<path d="M0,0 L3,1 L3,5 L-1,4 L-1,1 Z " fill="#0E0E0E" transform="translate(13,18)"/>
</svg>
