<?xml version="1.0" encoding="UTF-8"?>
<svg version="1.1" xmlns="http://www.w3.org/2000/svg" width="28" height="28">
<path d="M0,0 L28,0 L28,28 L0,28 Z " fill="#010101" transform="translate(0,0)"/>
<path d="M0,0 L7,0 L10,2 L11,8 L13,8 L14,13 L11,18 L8,20 L2,20 L-1,17 L-1,11 L1,9 L-4,6 L-3,2 Z " fill="#BCBCBC" transform="translate(10,5)"/>
<path d="M0,0 L4,2 L3,8 L0,10 L-6,10 L-7,9 L-6,2 Z " fill="#0B0B0B" transform="translate(18,13)"/>
<path d="M0,0 L3,0 L3,2 L-5,4 L-5,11 L1,11 L4,8 L5,3 L7,4 L6,10 L1,14 L-5,14 L-8,11 L-8,5 L-6,3 L-7,1 Z " fill="#D1D1D1" transform="translate(17,11)"/>
<path d="M0,0 L7,0 L9,4 L-1,4 L-1,1 Z " fill="#0A0A0A" transform="translate(10,7)"/>
<path d="M0,0 L3,0 L3,2 L-5,4 L-5,2 L-7,1 Z " fill="#EBEBEB" transform="translate(17,11)"/>
</svg>
