<?xml version="1.0" encoding="UTF-8"?>
<svg version="1.1" xmlns="http://www.w3.org/2000/svg" width="28" height="28">
<path d="M0,0 L28,0 L28,28 L0,28 Z " fill="#030303" transform="translate(0,0)"/>
<path d="M0,0 L6,0 L9,4 L7,8 L4,10 L2,17 L-1,20 L-7,19 L-7,13 L-2,8 L-4,6 L-3,2 Z " fill="#E4E4E4" transform="translate(14,5)"/>
<path d="M0,0 L5,2 L5,5 L2,7 L-1,7 L-3,9 L-3,3 Z " fill="#777777" transform="translate(10,15)"/>
<path d="M0,0 L1,3 L7,2 L5,6 L0,5 Z " fill="#ECECEC" transform="translate(8,19)"/>
<path d="M0,0 L5,1 L5,3 L0,4 Z " fill="#1C1C1C" transform="translate(15,8)"/>
</svg>
