<?xml version="1.0" encoding="UTF-8"?>
<svg version="1.1" xmlns="http://www.w3.org/2000/svg" width="28" height="28">
<path d="M0,0 L28,0 L28,28 L0,28 Z " fill="#010101" transform="translate(0,0)"/>
<path d="M0,0 L7,0 L9,2 L8,7 L3,11 L5,18 L2,20 L-3,20 L-5,18 L-4,13 L-2,13 L-4,8 L-3,2 Z " fill="#D5D5D5" transform="translate(13,5)"/>
<path d="M0,0 L3,1 L4,5 L1,7 L-3,6 L-4,2 Z " fill="#878787" transform="translate(14,18)"/>
<path d="M0,0 L2,4 L2,6 L4,6 L4,10 L1,11 L2,16 L-2,14 L-1,9 L1,9 L-1,4 Z " fill="#E3E3E3" transform="translate(10,9)"/>
<path d="M0,0 L2,1 L3,5 L-1,8 L-3,8 L-4,3 Z " fill="#131313" transform="translate(15,7)"/>
</svg>
