<?xml version="1.0" encoding="UTF-8"?>
<svg version="1.1" xmlns="http://www.w3.org/2000/svg" width="28" height="28">
<path d="M0,0 L28,0 L28,28 L0,28 Z " fill="#040404" transform="translate(0,0)"/>
<path d="M0,0 L7,0 L7,4 L0,3 L1,6 L5,8 L8,8 L10,5 L12,5 L11,10 L10,12 L14,14 L15,18 L10,20 L3,20 L2,19 L2,14 L4,12 L-2,8 L-3,2 Z " fill="#E7E7E7" transform="translate(9,4)"/>
<path d="M0,0 L7,0 L7,4 L0,3 L1,6 L8,9 L5,11 L0,9 L-3,6 L-2,1 Z " fill="#DFDFDF" transform="translate(9,4)"/>
<path d="M0,0 L3,1 L2,5 L-2,6 L-9,6 L-10,2 L-8,1 L-8,3 L0,3 Z " fill="#F1F1F1" transform="translate(21,18)"/>
<path d="M0,0 L5,2 L5,4 L-2,4 Z " fill="#151515" transform="translate(16,17)"/>
</svg>
