<?xml version="1.0" encoding="UTF-8"?>
<svg version="1.1" xmlns="http://www.w3.org/2000/svg" width="28" height="28">
<path d="M0,0 L28,0 L28,28 L0,28 Z " fill="#020202" transform="translate(0,0)"/>
<path d="M0,0 L8,0 L11,6 L6,9 L2,10 L2,18 L0,20 L-5,20 L-7,18 L-7,13 L-5,11 L-3,2 Z " fill="#BABABA" transform="translate(14,5)"/>
<path d="M0,0 L8,0 L11,6 L9,8 L5,7 L7,4 L-2,4 L-3,6 L-3,2 Z " fill="#E3E3E3" transform="translate(14,5)"/>
<path d="M0,0 L7,0 L8,2 L2,5 L-2,5 L-2,1 Z " fill="#0F0F0F" transform="translate(14,8)"/>
</svg>
