<?xml version="1.0" encoding="UTF-8"?>
<svg version="1.1" xmlns="http://www.w3.org/2000/svg" width="28" height="28">
<path d="M0,0 L28,0 L28,28 L0,28 Z " fill="#020202" transform="translate(0,0)"/>
<path d="M0,0 L6,0 L7,5 L2,8 L0,11 L0,17 L-3,20 L-11,19 L-12,15 L-7,11 L-7,6 L-3,1 Z " fill="#C7C7C7" transform="translate(17,5)"/>
<path d="M0,0 L6,0 L7,5 L2,5 L-2,2 Z " fill="#E5E5E5" transform="translate(17,5)"/>
<path d="M0,0 L4,1 L-2,6 L-4,6 L-2,2 Z " fill="#272727" transform="translate(16,8)"/>
</svg>
