<?xml version="1.0" encoding="UTF-8"?>
<svg version="1.1" xmlns="http://www.w3.org/2000/svg" width="28" height="28">
<path d="M0,0 L28,0 L28,28 L0,28 Z " fill="#020202" transform="translate(0,0)"/>
<path d="M0,0 L5,1 L5,7 L3,12 L3,18 L-1,20 L-6,19 L-5,14 L-2,11 L-4,7 L-5,3 Z " fill="#E1E1E1" transform="translate(15,5)"/>
<path d="M0,0 L3,0 L2,5 L-2,5 L-1,1 Z " fill="#202020" transform="translate(13,18)"/>
<path d="M0,0 L3,0 L3,4 L1,4 L0,6 L-3,1 Z " fill="#161616" transform="translate(15,8)"/>
<path d="M0,0 L2,2 L2,8 L0,9 L0,3 L-2,2 L0,2 Z " fill="#CACACA" transform="translate(16,15)"/>
</svg>
