<?xml version="1.0" encoding="UTF-8"?>
<svg version="1.1" xmlns="http://www.w3.org/2000/svg" width="28" height="28">
<path d="M0,0 L28,0 L28,28 L0,28 Z " fill="#030303" transform="translate(0,0)"/>
<path d="M0,0 L6,0 L8,5 L12,6 L5,10 L7,12 L6,17 L3,19 L-6,19 L-8,18 L-7,14 L-5,12 L-2,12 L-1,8 L-3,6 L-2,2 Z " fill="#E6E6E6" transform="translate(13,4)"/>
<path d="M0,0 L3,1 L3,5 L1,6 L-6,6 L-5,3 Z " fill="#0B0B0B" transform="translate(14,15)"/>
<path d="M0,0 L5,1 L6,4 L0,5 L-1,1 Z " fill="#181818" transform="translate(14,6)"/>
<path d="M0,0 L1,4 L-4,7 L-11,6 L-11,5 L-2,4 L-1,1 Z " fill="#BDBDBD" transform="translate(19,16)"/>
<path d="M0,0 L2,4 L6,5 L1,7 L-1,5 Z " fill="#C4C4C4" transform="translate(19,5)"/>
</svg>
