<?xml version="1.0" encoding="UTF-8"?>
<svg version="1.1" xmlns="http://www.w3.org/2000/svg" width="28" height="28">
<path d="M0,0 L28,0 L28,28 L0,28 Z " fill="#040404" transform="translate(0,0)"/>
<path d="M0,0 L5,0 L6,1 L6,6 L1,11 L-2,18 L-4,20 L-10,19 L-10,13 L-6,11 L-5,3 Z " fill="#E8E8E8" transform="translate(17,5)"/>
<path d="M0,0 L3,1 L2,5 L-2,7 L-2,5 L-4,4 L-4,2 Z " fill="#939393" transform="translate(13,18)"/>
<path d="M0,0 L5,0 L6,1 L6,6 L3,8 L2,3 L0,2 Z " fill="#F0F0F0" transform="translate(17,5)"/>
<path d="M0,0 Z M-2,1 L0,2 L-2,6 L1,7 L0,9 L-4,8 L-4,2 Z " fill="#EFEFEF" transform="translate(11,16)"/>
<path d="M0,0 L4,0 L2,5 L-1,6 L-1,1 Z " fill="#111111" transform="translate(16,8)"/>
</svg>
