<?xml version="1.0" encoding="UTF-8"?>
<svg version="1.1" xmlns="http://www.w3.org/2000/svg" width="28" height="28">
<path d="M0,0 L28,0 L28,28 L0,28 Z " fill="#030303" transform="translate(0,0)"/>
<path d="M0,0 L6,0 L7,5 L3,10 L1,10 L2,12 L2,18 L-2,20 L-6,19 L-7,18 L-7,13 L-4,11 L-6,7 L-5,2 Z " fill="#E9E9E9" transform="translate(15,5)"/>
<path d="M0,0 L3,0 L4,5 L1,8 L-4,8 L-6,4 Z " fill="#C3C3C3" transform="translate(18,5)"/>
<path d="M0,0 L2,1 L7,0 L6,5 L5,7 L1,6 L0,5 Z " fill="#7D7D7D" transform="translate(8,18)"/>
<path d="M0,0 L6,0 L4,4 L0,4 Z " fill="#0C0C0C" transform="translate(13,8)"/>
</svg>
