<?xml version="1.0" encoding="UTF-8"?>
<svg version="1.1" xmlns="http://www.w3.org/2000/svg" width="28" height="28">
<path d="M0,0 L28,0 L28,28 L0,28 Z " fill="#020202" transform="translate(0,0)"/>
<path d="M0,0 L6,0 L8,2 L7,8 L6,12 L7,18 L4,20 L-2,19 L-2,14 L0,11 L-4,8 L-3,3 Z " fill="#DDDDDD" transform="translate(12,5)"/>
<path d="M0,0 L4,0 L3,5 L2,7 L-2,6 L-4,5 L-3,2 Z " fill="#0D0D0D" transform="translate(14,7)"/>
<path d="M0,0 L3,1 L2,5 L-2,5 L-1,1 Z " fill="#181818" transform="translate(14,18)"/>
</svg>
