<?xml version="1.0" encoding="UTF-8"?>
<svg version="1.1" xmlns="http://www.w3.org/2000/svg" width="28" height="28">
<path d="M0,0 L28,0 L28,28 L0,28 Z " fill="#020202" transform="translate(0,0)"/>
<path d="M0,0 L9,0 L11,2 L10,6 L5,11 L5,19 L4,20 L-2,20 L-5,16 L-4,12 L-2,12 L-4,5 Z " fill="#C3C3C3" transform="translate(12,5)"/>
<path d="M0,0 L7,0 L6,4 L3,6 L-1,6 L-2,1 Z " fill="#0D0D0D" transform="translate(13,8)"/>
<path d="M0,0 L4,1 L1,3 L-1,4 L0,9 L3,10 L-1,10 L-2,12 L-4,5 Z " fill="#CACACA" transform="translate(12,5)"/>
<path d="M0,0 L2,0 L1,3 L-1,3 L-1,5 L-7,6 L-5,2 Z " fill="#F7F7F7" transform="translate(16,13)"/>
</svg>
