<?xml version="1.0" encoding="UTF-8"?>
<svg version="1.1" xmlns="http://www.w3.org/2000/svg" width="28" height="28">
<path d="M0,0 L28,0 L28,28 L0,28 Z " fill="#030303" transform="translate(0,0)"/>
<path d="M0,0 L9,0 L10,3 L2,3 L0,4 L5,7 L9,6 L12,3 L15,3 L15,5 L11,8 L9,8 L14,13 L16,17 L13,20 L6,20 L3,18 L3,9 L-4,5 L-2,1 Z " fill="#D8D8D8" transform="translate(8,5)"/>
<path d="M0,0 L3,0 L3,2 L-1,5 L-3,5 L2,10 L4,14 L1,17 L-6,17 L-6,15 L0,14 L1,11 L-4,9 L-7,8 L-7,5 L-2,2 Z " fill="#E2E2E2" transform="translate(20,8)"/>
<path d="M0,0 L5,2 L7,3 L6,7 L-1,6 Z " fill="#101010" transform="translate(14,16)"/>
</svg>
