<?xml version="1.0" encoding="UTF-8"?>
<svg version="1.1" xmlns="http://www.w3.org/2000/svg" width="28" height="28">
<path d="M0,0 L28,0 L28,28 L0,28 Z " fill="#030303" transform="translate(0,0)"/>
<path d="M0,0 L4,0 L3,5 L-1,10 L-2,12 L-7,15 L-7,16 L-5,16 L-4,13 L-3,15 L-8,20 L-12,19 L-10,14 L-7,10 L-8,7 L-6,3 Z " fill="#DBDBDB" transform="translate(19,5)"/>
<path d="M0,0 L4,0 L3,5 L-2,8 L-8,9 L-6,3 Z " fill="#D2D2D2" transform="translate(19,5)"/>
<path d="M0,0 L1,2 L-2,6 L-6,6 L-4,2 Z " fill="#212121" transform="translate(19,7)"/>
</svg>
