<?xml version="1.0" encoding="UTF-8"?>
<svg version="1.1" xmlns="http://www.w3.org/2000/svg" width="28" height="28">
<path d="M0,0 L28,0 L28,28 L0,28 Z " fill="#010101" transform="translate(0,0)"/>
<path d="M0,0 L4,1 L3,7 L-1,14 L-5,20 L-10,19 L-9,15 L-4,9 L-6,9 L-5,4 Z " fill="#EBEBEB" transform="translate(17,4)"/>
<path d="M0,0 L4,1 L4,3 L2,3 L0,8 L-5,9 L-6,5 Z " fill="#8F8F8F" transform="translate(17,4)"/>
<path d="M0,0 L4,1 L1,5 L-1,5 L-2,1 Z " fill="#C8C8C8" transform="translate(11,19)"/>
</svg>
