<?xml version="1.0" encoding="UTF-8"?>
<svg version="1.1" xmlns="http://www.w3.org/2000/svg" width="28" height="28">
<path d="M0,0 L28,0 L28,28 L0,28 Z " fill="#010101" transform="translate(0,0)"/>
<path d="M0,0 L6,0 L5,2 L3,2 L2,7 L-7,17 L-2,15 L-4,19 L-5,20 L-10,20 L-9,15 L-5,12 L-4,9 L-6,9 L-5,3 Z " fill="#C0C0C0" transform="translate(17,5)"/>
<path d="M0,0 L2,1 L-5,9 L-3,9 L-1,8 L-3,12 L-4,13 L-9,13 L-8,8 L-2,3 Z " fill="#D6D6D6" transform="translate(16,12)"/>
<path d="M0,0 L1,4 L-3,7 L-6,6 Z " fill="#363636" transform="translate(15,16)"/>
<path d="M0,0 L0,3 L-4,7 L-5,3 Z " fill="#0D0D0D" transform="translate(18,7)"/>
</svg>
