<?xml version="1.0" encoding="UTF-8"?>
<svg version="1.1" xmlns="http://www.w3.org/2000/svg" width="28" height="28">
<path d="M0,0 L28,0 L28,28 L0,28 Z " fill="#030303" transform="translate(0,0)"/>
<path d="M0,0 L9,0 L11,5 L7,6 L3,9 L0,9 L1,16 L-2,18 L-8,18 L-9,14 L-6,10 L-4,10 L-5,4 Z " fill="#DFDFDF" transform="translate(15,6)"/>
<path d="M0,0 L1,0 L1,5 L-4,7 L-7,5 L-5,1 L0,2 Z " fill="#797979" transform="translate(15,17)"/>
<path d="M0,0 L2,0 L2,2 L-3,6 L-7,6 L-7,3 Z " fill="#1B1B1B" transform="translate(20,7)"/>
<path d="M0,0 L4,1 L3,5 L1,5 L1,3 L-2,2 Z " fill="#FAFAFA" transform="translate(12,14)"/>
</svg>
