<?xml version="1.0" encoding="UTF-8"?>
<svg version="1.1" xmlns="http://www.w3.org/2000/svg" width="28" height="28">
<path d="M0,0 L28,0 L28,28 L0,28 Z " fill="#020202" transform="translate(0,0)"/>
<path d="M0,0 L11,0 L13,1 L13,3 L5,8 L7,12 L8,18 L3,20 L0,17 L0,10 L-5,7 L-6,4 Z " fill="#C2C2C2" transform="translate(11,6)"/>
<path d="M0,0 L7,0 L2,6 L-3,4 L-4,2 Z " fill="#131313" transform="translate(12,8)"/>
<path d="M0,0 L4,1 L4,3 L0,4 L-4,1 Z " fill="#B4B4B4" transform="translate(20,6)"/>
</svg>
