<?xml version="1.0" encoding="UTF-8"?>
<svg version="1.1" xmlns="http://www.w3.org/2000/svg" width="28" height="28">
<path d="M0,0 L28,0 L28,28 L0,28 Z " fill="#020202" transform="translate(0,0)"/>
<path d="M0,0 L8,0 L8,6 L5,10 L3,10 L3,12 L5,12 L6,18 L4,20 L-4,20 L-3,14 L-2,10 L-3,9 L-3,3 Z " fill="#DEDEDE" transform="translate(13,5)"/>
<path d="M0,0 L4,2 L4,7 L-4,7 L-3,1 Z " fill="#8D8D8D" transform="translate(13,18)"/>
<path d="M0,0 L7,0 L6,3 L1,6 L0,3 L-2,3 L-2,1 Z " fill="#111111" transform="translate(13,8)"/>
</svg>
