<?xml version="1.0" encoding="UTF-8"?>
<svg version="1.1" xmlns="http://www.w3.org/2000/svg" width="28" height="28">
<path d="M0,0 L28,0 L28,28 L0,28 Z " fill="#030303" transform="translate(0,0)"/>
<path d="M0,0 L8,0 L9,3 L-1,3 L0,10 L7,7 L12,5 L13,2 L14,4 L9,9 L4,11 L7,15 L7,19 L5,20 L-2,20 L-3,15 L0,11 L-4,9 L-5,4 Z " fill="#CDCDCD" transform="translate(12,5)"/>
<path d="M0,0 L1,2 L-4,7 L-9,9 L-6,13 L-6,16 L-8,16 L-10,12 L-12,10 L-3,3 L-1,3 Z " fill="#D1D1D1" transform="translate(25,7)"/>
<path d="M0,0 L8,0 L9,3 L-1,3 L-1,5 L-4,5 L-2,1 Z " fill="#CCCCCC" transform="translate(12,5)"/>
<path d="M0,0 L2,1 L4,5 L4,8 L2,8 L0,4 L-2,2 Z " fill="#F4F4F4" transform="translate(15,15)"/>
<path d="M0,0 L3,0 L4,3 L3,4 L-2,4 Z " fill="#1C1C1C" transform="translate(13,19)"/>
</svg>
