<?xml version="1.0" encoding="UTF-8"?>
<svg version="1.1" xmlns="http://www.w3.org/2000/svg" width="28" height="28">
<path d="M0,0 L28,0 L28,28 L0,28 Z " fill="#030303" transform="translate(0,0)"/>
<path d="M0,0 L2,0 L4,5 L8,6 L8,4 L14,1 L16,1 L14,5 L9,9 L9,15 L7,16 L1,16 L1,10 L2,7 L-1,5 Z " fill="#C8C8C8" transform="translate(8,8)"/>
<path d="M0,0 L7,1 L7,7 L2,8 L2,10 L-1,11 L-4,8 L-4,4 L-6,3 Z " fill="#303030" transform="translate(14,4)"/>
<path d="M0,0 L3,0 L4,5 L-2,5 L-1,1 Z " fill="#0B0B0B" transform="translate(12,17)"/>
</svg>
