<?xml version="1.0" encoding="UTF-8"?>
<svg version="1.1" xmlns="http://www.w3.org/2000/svg" width="28" height="28">
<path d="M0,0 L28,0 L28,28 L0,28 Z " fill="#010101" transform="translate(0,0)"/>
<path d="M0,0 L5,0 L3,2 L-3,5 L-5,5 L-2,8 L3,4 L5,5 L1,9 L-1,9 L0,14 L-3,19 L-4,20 L-9,20 L-7,13 L-5,11 L-7,9 L-6,4 Z " fill="#ADADAD" transform="translate(18,4)"/>
<path d="M0,0 L3,1 L1,5 L-3,7 L-5,3 Z " fill="#171717" transform="translate(18,6)"/>
<path d="M0,0 L5,0 L3,2 L-3,5 L-5,5 L-4,8 L-7,9 L-6,4 Z " fill="#D5D5D5" transform="translate(18,4)"/>
</svg>
