<?xml version="1.0" encoding="UTF-8"?>
<svg version="1.1" xmlns="http://www.w3.org/2000/svg" width="28" height="28">
<path d="M0,0 L28,0 L28,28 L0,28 Z " fill="#020202" transform="translate(0,0)"/>
<path d="M0,0 L6,1 L8,6 L5,9 L7,14 L6,18 L3,20 L-3,19 L-4,14 L-3,12 L-1,12 L-2,6 L1,2 Z " fill="#EFEFEF" transform="translate(12,4)"/>
<path d="M0,0 L6,1 L8,6 L5,9 L5,12 L3,12 L3,9 L0,9 L-1,11 L-2,6 L1,2 Z " fill="#AFAFAF" transform="translate(12,4)"/>
<path d="M0,0 L5,2 L5,5 L-1,6 L-2,2 Z " fill="#191919" transform="translate(12,16)"/>
<path d="M0,0 L2,0 L2,5 L4,7 L2,8 L-1,6 Z " fill="#D7D7D7" transform="translate(9,16)"/>
</svg>
