<?xml version="1.0" encoding="UTF-8"?>
<svg version="1.1" xmlns="http://www.w3.org/2000/svg" width="28" height="28">
<path d="M0,0 L28,0 L28,28 L0,28 Z " fill="#020202" transform="translate(0,0)"/>
<path d="M0,0 L5,0 L5,2 L-2,4 L-6,8 L-1,9 L1,5 L4,4 L2,8 L-1,17 L-4,20 L-9,20 L-8,15 L-5,11 L-8,8 L-7,4 Z " fill="#DBDBDB" transform="translate(18,4)"/>
<path d="M0,0 L4,0 L4,5 L1,8 L-4,8 L-3,3 Z " fill="#B5B5B5" transform="translate(13,16)"/>
<path d="M0,0 L2,1 L3,3 L-1,7 L-6,6 L-5,3 Z " fill="#1A1A1A" transform="translate(18,6)"/>
</svg>
