<?xml version="1.0" encoding="UTF-8"?>
<svg version="1.1" xmlns="http://www.w3.org/2000/svg" width="28" height="28">
<path d="M0,0 L28,0 L28,28 L0,28 Z " fill="#020202" transform="translate(0,0)"/>
<path d="M0,0 L6,0 L10,1 L10,4 L3,10 L3,17 L1,20 L-9,20 L-9,16 L-4,12 L-2,12 L-3,10 L-3,4 L-2,2 L0,2 Z " fill="#E3E3E3" transform="translate(14,4)"/>
<path d="M0,0 L4,1 L4,4 L1,6 L-3,6 L-5,8 L-5,4 Z " fill="#8D8D8D" transform="translate(10,16)"/>
<path d="M0,0 L1,4 L0,6 L-9,6 L-8,3 L0,2 Z " fill="#DFDFDF" transform="translate(15,18)"/>
<path d="M0,0 L5,0 L4,3 L-2,5 L-2,2 L0,2 Z " fill="#EAEAEA" transform="translate(14,4)"/>
<path d="M0,0 L3,1 L1,5 L-2,6 L-1,1 Z " fill="#2C2C2C" transform="translate(16,6)"/>
<path d="M0,0 L5,1 L5,4 L-1,5 Z " fill="#C9C9C9" transform="translate(19,4)"/>
</svg>
