<?xml version="1.0" encoding="UTF-8"?>
<svg version="1.1" xmlns="http://www.w3.org/2000/svg" width="28" height="28">
<path d="M0,0 L28,0 L28,28 L0,28 Z " fill="#010101" transform="translate(0,0)"/>
<path d="M0,0 L6,0 L11,1 L10,5 L4,10 L4,17 L0,20 L-7,20 L-6,14 L-3,11 L-1,11 L-3,8 L-2,3 Z " fill="#E3E3E3" transform="translate(13,5)"/>
<path d="M0,0 L6,0 L11,1 L6,5 L3,8 L0,7 L-2,3 Z " fill="#D9D9D9" transform="translate(13,5)"/>
<path d="M0,0 L5,0 L5,3 L3,3 L4,7 L-3,7 L-2,1 Z " fill="#898989" transform="translate(9,18)"/>
<path d="M0,0 L5,0 L1,5 L-2,4 L-2,1 Z " fill="#252525" transform="translate(15,8)"/>
</svg>
