<?xml version="1.0" encoding="UTF-8"?>
<svg version="1.1" xmlns="http://www.w3.org/2000/svg" width="28" height="28">
<path d="M0,0 L28,0 L28,28 L0,28 Z " fill="#010101" transform="translate(0,0)"/>
<path d="M0,0 L3,0 L3,2 L1,3 L1,7 L6,2 L4,7 L2,10 L0,19 L-4,20 L-5,15 L-3,12 L-2,2 Z " fill="#DCDCDC" transform="translate(15,5)"/>
<path d="M0,0 L1,0 L1,7 L-1,9 L-3,8 L-1,3 Z " fill="#ADADAD" transform="translate(15,15)"/>
<path d="M0,0 L1,4 L-3,8 L-3,3 L0,2 Z " fill="#202020" transform="translate(18,5)"/>
</svg>
