<?xml version="1.0" encoding="UTF-8"?>
<svg version="1.1" xmlns="http://www.w3.org/2000/svg" width="28" height="28">
<path d="M0,0 L28,0 L28,28 L0,28 Z " fill="#020202" transform="translate(0,0)"/>
<path d="M0,0 L7,0 L7,4 L2,7 L1,11 L7,16 L8,19 L7,20 L0,20 L-5,17 L-5,3 Z " fill="#D1D1D1" transform="translate(14,4)"/>
<path d="M0,0 L7,6 L9,10 L8,11 L1,11 L-4,8 L-3,3 L0,3 Z " fill="#D6D6D6" transform="translate(13,13)"/>
<path d="M0,0 L6,1 L2,6 L-2,7 L-2,2 Z " fill="#7E7E7E" transform="translate(11,5)"/>
<path d="M0,0 L5,1 L3,6 L0,6 L-1,10 Z " fill="#F0F0F0" transform="translate(10,10)"/>
<path d="M0,0 L4,2 L7,6 L0,5 Z " fill="#151515" transform="translate(11,16)"/>
</svg>
