<?xml version="1.0" encoding="UTF-8"?>
<svg version="1.1" xmlns="http://www.w3.org/2000/svg" width="28" height="28">
<path d="M0,0 L28,0 L28,28 L0,28 Z " fill="#020202" transform="translate(0,0)"/>
<path d="M0,0 L7,4 L8,7 L6,10 L4,16 L-1,19 L-10,20 L-9,15 L-4,11 L3,9 L0,3 Z " fill="#DADADA" transform="translate(14,3)"/>
<path d="M0,0 L7,4 L8,7 L6,10 L4,16 L1,17 L3,12 L-4,13 L-4,11 L3,9 L0,3 Z " fill="#E8E8E8" transform="translate(14,3)"/>
<path d="M0,0 L2,1 L-3,6 L-9,7 L-7,3 Z " fill="#1B1B1B" transform="translate(16,14)"/>
</svg>
