<?xml version="1.0" encoding="UTF-8"?>
<svg version="1.1" xmlns="http://www.w3.org/2000/svg" width="28" height="28">
<path d="M0,0 L28,0 L28,28 L0,28 Z " fill="#030303" transform="translate(0,0)"/>
<path d="M0,0 L5,0 L5,2 L-1,4 L-3,6 L-4,10 L1,9 L1,5 L4,5 L3,11 L5,13 L4,17 L-2,20 L-7,19 L-8,16 L-6,11 L-5,4 Z " fill="#DCDCDC" transform="translate(16,4)"/>
<path d="M0,0 L4,1 L4,4 L1,6 L-3,6 L-2,2 Z " fill="#1B1B1B" transform="translate(14,16)"/>
<path d="M0,0 L3,1 L2,5 L2,7 L-2,5 Z " fill="#C4C4C4" transform="translate(10,17)"/>
</svg>
