<?xml version="1.0" encoding="UTF-8"?>
<svg version="1.1" xmlns="http://www.w3.org/2000/svg" width="28" height="28">
<path d="M0,0 L28,0 L28,28 L0,28 Z " fill="#020202" transform="translate(0,0)"/>
<path d="M0,0 L7,0 L9,3 L8,8 L3,10 L3,15 L2,16 L-4,16 L-5,13 L0,9 L-3,6 L-3,4 L-8,7 L-11,10 L-9,5 L-4,1 Z " fill="#DADADA" transform="translate(14,7)"/>
<path d="M0,0 L8,0 L9,4 L6,7 L3,6 L-1,1 Z " fill="#0C0C0C" transform="translate(12,9)"/>
<path d="M0,0 L2,1 L3,5 L2,6 L-4,6 L-5,3 Z " fill="#9E9E9E" transform="translate(14,17)"/>
<path d="M0,0 L2,0 L1,3 L-4,6 L-7,9 L-5,4 Z " fill="#B7B7B7" transform="translate(10,8)"/>
</svg>
