<?xml version="1.0" encoding="UTF-8"?>
<svg version="1.1" xmlns="http://www.w3.org/2000/svg" width="28" height="28">
<path d="M0,0 L28,0 L28,28 L0,28 Z " fill="#020202" transform="translate(0,0)"/>
<path d="M0,0 L5,0 L6,1 L6,7 L3,10 L6,11 L5,16 L0,19 L-7,20 L-9,19 L-9,15 L-4,11 L-2,11 L-4,15 L-6,18 L3,14 L4,12 L-1,11 L-4,8 L-3,4 Z " fill="#E2E2E2" transform="translate(15,4)"/>
<path d="M0,0 L5,0 L6,1 L6,7 L3,9 L-1,8 L-2,2 Z " fill="#E1E1E1" transform="translate(15,4)"/>
<path d="M0,0 L7,3 L5,7 L0,9 L-3,9 L-1,5 Z " fill="#181818" transform="translate(12,13)"/>
<path d="M0,0 L2,0 L1,5 L-3,6 L-2,2 L0,2 Z " fill="#262626" transform="translate(17,6)"/>
</svg>
