<?xml version="1.0" encoding="UTF-8"?>
<svg version="1.1" xmlns="http://www.w3.org/2000/svg" width="28" height="28">
<path d="M0,0 L28,0 L28,28 L0,28 Z " fill="#030303" transform="translate(0,0)"/>
<path d="M0,0 L7,1 L8,6 L4,8 L4,10 L7,10 L8,15 L2,19 L-6,20 L-6,14 L-2,11 L-3,5 Z " fill="#E2E2E2" transform="translate(13,4)"/>
<path d="M0,0 L5,0 L4,5 L2,6 L-4,6 Z " fill="#191919" transform="translate(13,15)"/>
<path d="M0,0 L3,0 L4,5 L-3,9 L-8,8 L-8,7 L0,5 Z " fill="#CECECE" transform="translate(17,14)"/>
<path d="M0,0 L4,0 L3,4 L-1,4 Z " fill="#0C0C0C" transform="translate(14,7)"/>
</svg>
