<?xml version="1.0" encoding="UTF-8"?>
<svg version="1.1" xmlns="http://www.w3.org/2000/svg" width="28" height="28">
<path d="M0,0 L28,0 L28,28 L0,28 Z " fill="#020202" transform="translate(0,0)"/>
<path d="M0,0 L3,0 L4,5 L1,10 L-3,19 L-9,20 L-12,18 L-11,13 L-6,10 L-4,3 L-1,3 Z " fill="#BDBDBD" transform="translate(18,4)"/>
<path d="M0,0 L3,0 L4,5 L3,8 L1,8 L1,5 L-3,5 L-4,7 L-4,3 L-1,3 Z " fill="#DBDBDB" transform="translate(18,4)"/>
<path d="M0,0 L1,2 L7,2 L6,5 L0,4 Z " fill="#EBEBEB" transform="translate(7,19)"/>
<path d="M0,0 L3,0 L2,4 L-3,4 L-3,2 Z " fill="#181818" transform="translate(12,17)"/>
</svg>
