<?xml version="1.0" encoding="UTF-8"?>
<svg version="1.1" xmlns="http://www.w3.org/2000/svg" width="28" height="28">
<path d="M0,0 L28,0 L28,28 L0,28 Z " fill="#010101" transform="translate(0,0)"/>
<path d="M0,0 L4,3 L4,15 L2,18 L-5,18 L-8,15 L-8,10 L-5,6 L2,6 L2,4 L0,3 Z " fill="#BFBFBF" transform="translate(16,6)"/>
<path d="M0,0 L4,1 L4,5 L7,6 L6,9 L-1,9 L-3,8 L-2,1 Z " fill="#3B3B3B" transform="translate(12,4)"/>
<path d="M0,0 L7,0 L8,5 L6,6 L0,6 L-1,1 Z " fill="#070707" transform="translate(11,16)"/>
</svg>
