<?xml version="1.0" encoding="UTF-8"?>
<svg version="1.1" xmlns="http://www.w3.org/2000/svg" width="28" height="28">
<path d="M0,0 L28,0 L28,28 L0,28 Z " fill="#040404" transform="translate(0,0)"/>
<path d="M0,0 L4,0 L3,3 L-3,6 L-5,6 L-5,9 L-1,8 L-1,6 L4,4 L2,8 L-1,11 L0,17 L-2,19 L-5,18 L-3,14 L-6,13 L-12,17 L-8,20 L-13,20 L-14,16 L-8,11 L-7,4 L-3,1 Z " fill="#E5E5E5" transform="translate(18,5)"/>
<path d="M0,0 L3,1 L-2,3 L-2,5 L-6,6 L-6,3 Z " fill="#353535" transform="translate(19,8)"/>
</svg>
