<?xml version="1.0" encoding="UTF-8"?>
<svg version="1.1" xmlns="http://www.w3.org/2000/svg" width="28" height="28">
<path d="M0,0 L28,0 L28,28 L0,28 Z " fill="#020202" transform="translate(0,0)"/>
<path d="M0,0 L6,0 L7,6 L3,10 L5,10 L6,12 L6,18 L4,20 L0,19 L-4,13 L-4,7 L-1,7 L-2,1 Z " fill="#D5D5D5" transform="translate(13,5)"/>
<path d="M0,0 L6,0 L7,6 L4,8 L4,11 L2,11 L0,7 L4,3 L1,3 L0,5 L-2,5 L-2,1 Z " fill="#EBEBEB" transform="translate(13,5)"/>
<path d="M0,0 L3,0 L5,4 L4,8 L1,8 L-1,4 Z " fill="#0E0E0E" transform="translate(12,14)"/>
<path d="M0,0 L4,1 L0,6 L-4,9 L-4,5 L-2,5 Z " fill="#8F8F8F" transform="translate(14,7)"/>
</svg>
