<?xml version="1.0" encoding="UTF-8"?>
<svg version="1.1" xmlns="http://www.w3.org/2000/svg" width="28" height="28">
<path d="M0,0 L28,0 L28,28 L0,28 Z " fill="#020202" transform="translate(0,0)"/>
<path d="M0,0 L7,0 L4,3 L-1,5 L-1,7 L2,7 L3,5 L5,5 L5,3 L7,3 L6,7 L4,12 L4,18 L-1,20 L-7,20 L-6,15 L-1,9 L-4,8 L-4,3 Z " fill="#E4E4E4" transform="translate(14,5)"/>
<path d="M0,0 L2,2 L2,8 L-3,10 L-9,10 L-8,5 L-6,3 L0,2 Z " fill="#D4D4D4" transform="translate(16,15)"/>
<path d="M0,0 L1,2 L-1,2 L-1,4 L-3,4 L-4,7 L-8,6 L-7,3 Z " fill="#222222" transform="translate(20,6)"/>
<path d="M0,0 L2,0 L2,5 L-5,6 Z " fill="#151515" transform="translate(14,17)"/>
</svg>
