<?xml version="1.0" encoding="UTF-8"?>
<svg version="1.1" xmlns="http://www.w3.org/2000/svg" width="28" height="28">
<path d="M0,0 L28,0 L28,28 L0,28 Z " fill="#040404" transform="translate(0,0)"/>
<path d="M0,0 L10,1 L12,2 L12,4 L-1,3 L0,8 L5,8 L6,7 L12,7 L10,9 L7,10 L11,13 L10,17 L5,20 L-2,19 L-3,14 L-2,12 L0,12 L-5,7 L-4,3 Z " fill="#DADADA" transform="translate(11,4)"/>
<path d="M0,0 L10,1 L12,2 L12,4 L-1,3 L-1,8 L-4,8 L-5,4 Z " fill="#CECECE" transform="translate(11,4)"/>
<path d="M0,0 L6,1 L7,5 L1,6 L-2,5 Z " fill="#131313" transform="translate(12,16)"/>
</svg>
