<?xml version="1.0" encoding="UTF-8"?>
<svg version="1.1" xmlns="http://www.w3.org/2000/svg" width="28" height="28">
<path d="M0,0 L28,0 L28,28 L0,28 Z " fill="#020202" transform="translate(0,0)"/>
<path d="M0,0 L10,0 L12,5 L6,10 L4,10 L5,17 L2,20 L-4,19 L-3,14 L0,14 L-1,18 L2,17 L3,12 L1,12 L0,9 L-3,6 L-3,1 Z " fill="#B4B4B4" transform="translate(12,5)"/>
<path d="M0,0 L3,1 L2,5 L-4,9 L-8,5 L-7,1 Z " fill="#080808" transform="translate(19,6)"/>
<path d="M0,0 L3,1 L3,6 L-1,8 L-2,4 Z " fill="#202020" transform="translate(12,16)"/>
<path d="M0,0 L4,5 L7,8 L6,12 L6,10 L4,10 L3,7 L0,4 Z " fill="#E2E2E2" transform="translate(9,7)"/>
</svg>
