<?xml version="1.0" encoding="UTF-8"?>
<svg version="1.1" xmlns="http://www.w3.org/2000/svg" width="28" height="28">
<path d="M0,0 L28,0 L28,28 L0,28 Z " fill="#020202" transform="translate(0,0)"/>
<path d="M0,0 L6,1 L7,6 L0,12 L-1,19 L-5,19 L-7,17 L-6,13 L-3,8 L-2,2 Z " fill="#A6A6A6" transform="translate(15,5)"/>
<path d="M0,0 L6,1 L7,6 L1,7 L1,9 L-3,10 L-2,2 Z " fill="#CECECE" transform="translate(15,5)"/>
<path d="M0,0 L2,0 L2,2 L-4,7 L-7,7 L-8,10 L-10,8 L-6,4 L-3,4 L-3,2 Z " fill="#E9E9E9" transform="translate(19,10)"/>
<path d="M0,0 L4,1 L2,5 L0,5 L0,7 L-2,7 L-2,2 Z " fill="#181818" transform="translate(16,7)"/>
</svg>
