<?xml version="1.0" encoding="UTF-8"?>
<svg version="1.1" xmlns="http://www.w3.org/2000/svg" width="28" height="28">
<path d="M0,0 L28,0 L28,28 L0,28 Z " fill="#010101" transform="translate(0,0)"/>
<path d="M0,0 L5,1 L6,2 L6,9 L2,19 L-1,20 L-3,19 L-2,13 L-1,10 L-3,7 L-3,2 Z " fill="#CACACA" transform="translate(13,5)"/>
<path d="M0,0 L3,1 L2,10 L-1,11 L-3,10 L-2,4 Z " fill="#D6D6D6" transform="translate(13,14)"/>
<path d="M0,0 L3,0 L3,6 L-1,6 L-1,1 Z " fill="#090909" transform="translate(14,7)"/>
<path d="M0,0 L3,1 L3,7 L-1,5 Z " fill="#F5F5F5" transform="translate(13,14)"/>
</svg>
