<?xml version="1.0" encoding="UTF-8"?>
<svg version="1.1" xmlns="http://www.w3.org/2000/svg" width="28" height="28">
<path d="M0,0 L28,0 L28,28 L0,28 Z " fill="#010101" transform="translate(0,0)"/>
<path d="M0,0 L6,0 L6,2 L8,2 L8,7 L4,10 L6,15 L6,19 L4,20 L-3,20 L-5,17 L-4,13 L-2,9 L-4,7 L-3,2 Z " fill="#D7D7D7" transform="translate(13,5)"/>
<path d="M0,0 L6,0 L6,2 L8,2 L8,7 L6,7 L6,4 L2,6 L1,3 L-1,9 L-4,7 L-3,2 Z " fill="#E3E3E3" transform="translate(13,5)"/>
<path d="M0,0 L2,1 L0,4 L-1,9 L-4,7 L-3,2 Z " fill="#C2C2C2" transform="translate(13,5)"/>
<path d="M0,0 L2,1 L3,2 L5,2 L4,5 L-1,6 L-2,2 Z " fill="#171717" transform="translate(14,7)"/>
<path d="M0,0 L3,0 L4,5 L-1,5 Z " fill="#0D0D0D" transform="translate(12,18)"/>
</svg>
