<?xml version="1.0" encoding="UTF-8"?>
<svg version="1.1" xmlns="http://www.w3.org/2000/svg" width="28" height="28">
<path d="M0,0 L28,0 L28,28 L0,28 Z " fill="#020202" transform="translate(0,0)"/>
<path d="M0,0 L5,1 L4,7 L0,11 L0,19 L-5,20 L-7,19 L-7,14 L-4,13 L-5,10 L-5,3 Z " fill="#DFDFDF" transform="translate(16,5)"/>
<path d="M0,0 L2,0 L1,5 L-2,8 L-4,8 L-4,2 Z " fill="#262626" transform="translate(17,7)"/>
<path d="M0,0 L1,0 L1,6 L-4,7 L-5,2 L-2,1 L0,2 Z " fill="#848484" transform="translate(15,18)"/>
</svg>
