<?xml version="1.0" encoding="UTF-8"?>
<svg version="1.1" xmlns="http://www.w3.org/2000/svg" width="28" height="28">
<path d="M0,0 L28,0 L28,28 L0,28 Z " fill="#030303" transform="translate(0,0)"/>
<path d="M0,0 L8,0 L9,4 L1,10 L2,19 L-5,20 L-7,18 L-7,13 L-4,12 L-5,4 Z " fill="#DADADA" transform="translate(15,5)"/>
<path d="M0,0 L0,3 L-7,7 L-8,2 Z " fill="#2D2D2D" transform="translate(20,7)"/>
<path d="M0,0 L2,1 L3,5 L6,6 L3,7 L2,10 L0,9 L-1,1 Z " fill="#EDEDED" transform="translate(11,8)"/>
<path d="M0,0 L2,1 L3,6 L-2,5 L-1,1 Z " fill="#1A1A1A" transform="translate(12,17)"/>
</svg>
