<?xml version="1.0" encoding="UTF-8"?>
<svg version="1.1" xmlns="http://www.w3.org/2000/svg" width="28" height="28">
<path d="M0,0 L28,0 L28,28 L0,28 Z " fill="#020202" transform="translate(0,0)"/>
<path d="M0,0 L4,0 L4,2 L7,2 L5,6 L1,10 L1,19 L0,20 L-6,20 L-6,18 L-1,18 L-3,10 L-8,9 L-8,5 L-3,1 Z " fill="#E2E2E2" transform="translate(16,5)"/>
<path d="M0,0 L4,0 L2,4 L-1,7 L-6,6 L-5,3 Z " fill="#151515" transform="translate(16,7)"/>
<path d="M0,0 L2,0 L4,3 L4,8 L-2,9 L-2,4 L1,3 Z " fill="#C9C9C9" transform="translate(11,15)"/>
<path d="M0,0 L2,0 L2,5 L-2,5 L-1,1 Z " fill="#121212" transform="translate(13,18)"/>
</svg>
