<?xml version="1.0" encoding="UTF-8"?>
<svg version="1.1" xmlns="http://www.w3.org/2000/svg" width="28" height="28">
<path d="M0,0 L28,0 L28,28 L0,28 Z " fill="#030303" transform="translate(0,0)"/>
<path d="M0,0 L5,0 L5,2 L-4,4 L-1,6 L3,5 L7,3 L4,7 L6,11 L7,12 L7,17 L4,20 L0,19 L-1,18 L-1,10 L0,8 L-5,7 L-7,6 L-6,2 Z " fill="#D9D9D9" transform="translate(13,6)"/>
<path d="M0,0 L5,0 L5,2 L-4,4 L-1,6 L-1,8 L-7,6 L-6,2 Z " fill="#CACACA" transform="translate(13,6)"/>
<path d="M0,0 L4,2 L5,6 L3,8 L0,8 L-1,1 Z " fill="#151515" transform="translate(14,16)"/>
</svg>
