<?xml version="1.0" encoding="UTF-8"?>
<svg version="1.1" xmlns="http://www.w3.org/2000/svg" width="28" height="28">
<path d="M0,0 L28,0 L28,28 L0,28 Z " fill="#020202" transform="translate(0,0)"/>
<path d="M0,0 L3,0 L3,2 L5,2 L4,10 L-2,19 L-6,20 L-5,15 L-3,11 L-7,9 L-6,5 Z " fill="#ECECEC" transform="translate(16,5)"/>
<path d="M0,0 L3,0 L2,5 L-1,8 L-4,8 L-3,3 Z " fill="#E6E6E6" transform="translate(14,17)"/>
<path d="M0,0 L2,0 L1,5 L-1,7 L-4,7 L-3,3 Z " fill="#121212" transform="translate(16,7)"/>
<path d="M0,0 L3,1 L-3,6 L-5,9 L-7,8 L-5,4 Z " fill="#D3D3D3" transform="translate(16,5)"/>
</svg>
