<?xml version="1.0" encoding="UTF-8"?>
<svg version="1.1" xmlns="http://www.w3.org/2000/svg" width="28" height="28">
<path d="M0,0 L28,0 L28,28 L0,28 Z " fill="#020202" transform="translate(0,0)"/>
<path d="M0,0 L6,1 L8,2 L8,5 L1,9 L-1,12 L1,14 L1,18 L-2,20 L-6,20 L-6,11 L-8,9 L-7,4 Z " fill="#E2E2E2" transform="translate(16,5)"/>
<path d="M0,0 L4,0 L2,4 L-2,6 L-2,8 L-6,6 L-4,2 Z " fill="#1B1B1B" transform="translate(16,7)"/>
<path d="M0,0 L6,1 L6,5 L3,7 L-1,7 L-1,1 Z " fill="#BBBBBB" transform="translate(11,18)"/>
</svg>
