<?xml version="1.0" encoding="UTF-8"?>
<svg version="1.1" xmlns="http://www.w3.org/2000/svg" width="28" height="28">
<path d="M0,0 L28,0 L28,28 L0,28 Z " fill="#040404" transform="translate(0,0)"/>
<path d="M0,0 L6,1 L6,3 L0,4 L-1,9 L7,10 L7,0 L10,1 L9,11 L14,12 L16,14 L15,19 L10,19 L7,15 L7,12 L-1,12 L-4,9 L-3,4 L-2,2 L0,2 Z " fill="#B8B8B8" transform="translate(8,5)"/>
<path d="M0,0 L6,1 L6,3 L0,4 L-1,9 L6,10 L5,12 L-1,12 L-4,9 L-3,4 L-2,2 L0,2 Z " fill="#D9D9D9" transform="translate(8,5)"/>
<path d="M0,0 L3,1 L2,10 L0,9 Z " fill="#D2D2D2" transform="translate(15,5)"/>
</svg>
