<?xml version="1.0" encoding="UTF-8"?>
<svg version="1.1" xmlns="http://www.w3.org/2000/svg" width="28" height="28">
<path d="M0,0 L28,0 L28,28 L0,28 Z " fill="#010101" transform="translate(0,0)"/>
<path d="M0,0 L13,0 L13,3 L11,2 L3,2 L3,3 L9,4 L7,7 L6,11 L2,14 L-3,13 L-3,9 L2,5 L-6,3 L-4,1 Z " fill="#C6C6C6" transform="translate(11,9)"/>
<path d="M0,0 L13,0 L13,3 L11,2 L1,2 L1,4 L-6,3 L-4,1 Z " fill="#C2C2C2" transform="translate(11,9)"/>
<path d="M0,0 L9,0 L8,3 L0,3 L-2,1 Z " fill="#2E2E2E" transform="translate(14,10)"/>
<path d="M0,0 L2,0 L1,4 L-4,6 L-4,3 Z " fill="#171717" transform="translate(14,16)"/>
</svg>
