<?xml version="1.0" encoding="UTF-8"?>
<svg version="1.1" xmlns="http://www.w3.org/2000/svg" width="28" height="28">
<path d="M0,0 L28,0 L28,28 L0,28 Z " fill="#020202" transform="translate(0,0)"/>
<path d="M0,0 L4,0 L2,5 L4,6 L4,13 L0,18 L-4,20 L-10,20 L-11,17 L-7,10 L-4,8 L-6,7 L-6,5 L-4,5 L-2,1 Z " fill="#171717" transform="translate(17,4)"/>
<path d="M0,0 L1,0 L0,7 L-5,11 L-7,12 L-13,12 L-14,9 L-10,2 L-6,1 L-7,3 L-9,3 L-11,8 L-12,10 L-3,7 Z " fill="#D5D5D5" transform="translate(20,12)"/>
<path d="M0,0 L4,0 L2,5 L-1,6 L-2,9 L-6,7 L-6,5 L-4,5 L-2,1 Z " fill="#C7C7C7" transform="translate(17,4)"/>
</svg>
