<?xml version="1.0" encoding="UTF-8"?>
<svg version="1.1" xmlns="http://www.w3.org/2000/svg" width="28" height="28">
<path d="M0,0 L28,0 L28,28 L0,28 Z " fill="#020202" transform="translate(0,0)"/>
<path d="M0,0 L3,0 L3,2 L5,2 L3,8 L2,10 L5,11 L4,16 L0,20 L-3,20 L-2,9 L-4,8 L-3,3 Z " fill="#D3D3D3" transform="translate(14,4)"/>
<path d="M0,0 L3,0 L2,7 L-2,9 L-4,8 L-3,3 Z " fill="#676767" transform="translate(14,4)"/>
<path d="M0,0 L2,0 L1,5 L-3,9 L-6,9 L-5,5 L-5,7 L-1,3 Z " fill="#E9E9E9" transform="translate(17,15)"/>
<path d="M0,0 L3,0 L2,5 L-1,7 Z " fill="#1B1B1B" transform="translate(14,15)"/>
</svg>
