<?xml version="1.0" encoding="UTF-8"?>
<svg version="1.1" xmlns="http://www.w3.org/2000/svg" width="28" height="28">
<path d="M0,0 L28,0 L28,28 L0,28 Z " fill="#040404" transform="translate(0,0)"/>
<path d="M0,0 L3,0 L3,3 L6,2 L10,3 L10,9 L4,13 L2,13 L3,17 L0,20 L-7,19 L-8,14 L-5,13 L-6,6 L-1,1 Z " fill="#E6E6E6" transform="translate(14,4)"/>
<path d="M0,0 L2,0 L2,2 L5,1 L9,2 L9,8 L5,11 L3,11 L2,8 L6,7 L6,5 L0,6 L0,3 L-2,2 Z " fill="#EEEEEE" transform="translate(15,5)"/>
<path d="M0,0 L8,0 L8,2 L4,4 L0,3 Z " fill="#111111" transform="translate(13,10)"/>
</svg>
