<?xml version="1.0" encoding="UTF-8"?>
<svg version="1.1" xmlns="http://www.w3.org/2000/svg" width="28" height="28">
<path d="M0,0 L28,0 L28,28 L0,28 Z " fill="#030303" transform="translate(0,0)"/>
<path d="M0,0 L2,0 L4,8 L8,7 L8,4 L6,3 L7,0 L12,2 L12,7 L10,10 L7,10 L8,16 L7,19 L5,20 L-2,20 L-4,16 L1,11 L-1,1 Z " fill="#B1B1B1" transform="translate(11,4)"/>
<path d="M0,0 L3,1 L1,2 L2,4 L6,4 L6,2 L9,3 L8,7 L6,8 L-1,8 L-3,4 Z " fill="#E4E4E4" transform="translate(10,16)"/>
<path d="M0,0 L5,2 L5,7 L3,10 L0,10 L-1,12 L-1,10 L-3,9 L1,7 L1,4 L-1,3 Z " fill="#D5D5D5" transform="translate(18,4)"/>
</svg>
