<?xml version="1.0" encoding="UTF-8"?>
<svg version="1.1" xmlns="http://www.w3.org/2000/svg" width="28" height="28">
<path d="M0,0 L28,0 L28,28 L0,28 Z " fill="#050505" transform="translate(0,0)"/>
<path d="M0,0 L2,0 L1,4 L-7,10 L-6,11 L-6,17 L-10,20 L-14,19 L-16,17 L-16,11 L-13,7 L-15,7 L-15,5 L-17,5 L-16,1 L-7,1 L-6,4 Z " fill="#CFCFCF" transform="translate(24,6)"/>
<path d="M0,0 L1,0 L1,5 L-3,8 L-7,7 L-7,5 L0,3 Z " fill="#F1F1F1" transform="translate(17,18)"/>
<path d="M0,0 L3,1 L2,5 L-2,6 L-3,2 Z " fill="#131313" transform="translate(13,17)"/>
</svg>
