<?xml version="1.0" encoding="UTF-8"?>
<svg version="1.1" xmlns="http://www.w3.org/2000/svg" width="28" height="28">
<path d="M0,0 L28,0 L28,28 L0,28 Z " fill="#030303" transform="translate(0,0)"/>
<path d="M0,0 L6,1 L6,5 L4,4 L5,2 L-1,4 L-2,10 L2,9 L5,6 L7,7 L5,10 L3,10 L3,12 L6,13 L6,18 L4,20 L0,20 L-1,12 L-3,11 L-4,5 Z " fill="#A6A6A6" transform="translate(12,5)"/>
<path d="M0,0 L5,0 L6,1 L6,6 L4,8 L0,8 Z " fill="#777777" transform="translate(12,17)"/>
<path d="M0,0 L2,1 L0,4 L-2,4 L-1,7 L-5,6 L-2,1 Z " fill="#DEDEDE" transform="translate(17,11)"/>
</svg>
