<?xml version="1.0" encoding="UTF-8"?>
<svg version="1.1" xmlns="http://www.w3.org/2000/svg" width="28" height="28">
<path d="M0,0 L28,0 L28,28 L0,28 Z " fill="#040404" transform="translate(0,0)"/>
<path d="M0,0 L7,0 L9,2 L8,8 L6,9 L5,15 L3,15 L3,13 L-4,17 L1,17 L0,20 L-8,20 L-9,16 L-2,11 L-4,7 L-3,2 Z " fill="#E5E5E5" transform="translate(14,5)"/>
<path d="M0,0 L7,0 L9,2 L8,8 L7,6 L1,8 L-2,6 L-4,7 L-3,2 Z " fill="#DCDCDC" transform="translate(14,5)"/>
<path d="M0,0 L5,0 L5,4 L1,5 L-1,4 Z " fill="#101010" transform="translate(14,8)"/>
</svg>
