<?xml version="1.0" encoding="UTF-8"?>
<svg version="1.1" xmlns="http://www.w3.org/2000/svg" width="28" height="28">
<path d="M0,0 L28,0 L28,28 L0,28 Z " fill="#010101" transform="translate(0,0)"/>
<path d="M0,0 L6,0 L8,3 L7,11 L8,12 L8,17 L5,20 L-5,20 L-6,19 L-6,11 L-2,2 L0,2 Z " fill="#E5E5E5" transform="translate(13,4)"/>
<path d="M0,0 L5,1 L6,5 L3,7 L-4,7 L-5,6 L-5,1 L-2,2 Z " fill="#0D0D0D" transform="translate(14,15)"/>
<path d="M0,0 L5,0 L5,4 L1,5 L-2,4 Z " fill="#1A1A1A" transform="translate(14,7)"/>
<path d="M0,0 L1,4 L-2,7 L-9,7 L-5,5 L-1,3 Z " fill="#F5F5F5" transform="translate(20,17)"/>
<path d="M0,0 L2,4 L7,5 L3,7 L-1,6 Z " fill="#C6C6C6" transform="translate(8,17)"/>
<path d="M0,0 L3,1 L4,7 L2,6 L2,3 L-1,3 Z " fill="#CCCCCC" transform="translate(17,4)"/>
</svg>
