<?xml version="1.0" encoding="UTF-8"?>
<svg version="1.1" xmlns="http://www.w3.org/2000/svg" width="28" height="28">
<path d="M0,0 L28,0 L28,28 L0,28 Z " fill="#030303" transform="translate(0,0)"/>
<path d="M0,0 L6,1 L7,5 L3,6 L2,12 L3,17 L1,20 L-3,19 L-6,11 L-8,7 L-5,2 Z " fill="#DFDFDF" transform="translate(15,5)"/>
<path d="M0,0 L6,1 L7,5 L3,6 L2,9 L1,7 L2,3 L-3,4 Z " fill="#E7E7E7" transform="translate(15,5)"/>
<path d="M0,0 L2,1 L3,2 L4,5 L1,9 L-2,8 L-4,4 Z " fill="#DADADA" transform="translate(12,6)"/>
<path d="M0,0 L1,3 L-2,7 L-4,7 L-3,2 Z " fill="#121212" transform="translate(15,8)"/>
</svg>
