<?xml version="1.0" encoding="UTF-8"?>
<svg version="1.1" xmlns="http://www.w3.org/2000/svg" width="28" height="28">
<path d="M0,0 L28,0 L28,28 L0,28 Z " fill="#030303" transform="translate(0,0)"/>
<path d="M0,0 L7,1 L6,6 L5,2 L0,2 L1,5 L4,7 L8,6 L14,2 L12,6 L8,11 L11,15 L10,19 L9,20 L3,20 L0,17 L2,12 L4,9 L0,7 L-2,5 L-2,1 Z " fill="#D8D8D8" transform="translate(9,5)"/>
<path d="M0,0 L3,1 L1,1 L-1,6 L6,7 L4,3 L5,0 L8,4 L7,8 L6,9 L0,9 L-3,6 L-1,1 Z " fill="#DCDCDC" transform="translate(12,16)"/>
<path d="M0,0 L3,0 L5,3 L5,6 L-2,5 Z " fill="#1C1C1C" transform="translate(13,17)"/>
<path d="M0,0 L0,3 L-6,8 L-8,6 Z " fill="#D1D1D1" transform="translate(22,7)"/>
</svg>
