<?xml version="1.0" encoding="UTF-8"?>
<svg version="1.1" xmlns="http://www.w3.org/2000/svg" width="28" height="28">
<path d="M0,0 L28,0 L28,28 L0,28 Z " fill="#010101" transform="translate(0,0)"/>
<path d="M0,0 L5,0 L8,4 L10,14 L7,19 L-1,20 L-4,16 L-4,3 Z " fill="#E0E0E0" transform="translate(12,5)"/>
<path d="M0,0 L5,0 L7,4 L6,7 L-2,8 L-4,10 L-4,3 Z " fill="#D7D7D7" transform="translate(12,5)"/>
<path d="M0,0 L6,0 L7,3 L4,6 L-1,6 L-2,2 Z " fill="#151515" transform="translate(13,16)"/>
<path d="M0,0 L6,1 L6,4 L-2,5 L-2,2 L0,2 Z " fill="#1B1B1B" transform="translate(12,8)"/>
</svg>
