<?xml version="1.0" encoding="UTF-8"?>
<svg version="1.1" xmlns="http://www.w3.org/2000/svg" width="28" height="28">
<path d="M0,0 L28,0 L28,28 L0,28 Z " fill="#030303" transform="translate(0,0)"/>
<path d="M0,0 L5,0 L8,9 L9,11 L9,17 L5,20 L-1,20 L-3,18 L-4,11 L-7,8 L-7,3 L-5,1 Z " fill="#DFDFDF" transform="translate(13,5)"/>
<path d="M0,0 L2,0 L3,6 L9,7 L9,10 L6,12 L5,15 L11,14 L11,9 L11,6 L14,7 L15,9 L15,15 L11,18 L5,18 L3,16 L2,9 L-1,6 L-1,1 Z " fill="#EAEAEA" transform="translate(7,7)"/>
<path d="M0,0 L3,0 L3,3 L7,2 L6,5 L-1,6 L-3,2 Z " fill="#1E1E1E" transform="translate(11,8)"/>
<path d="M0,0 L3,0 L3,5 L2,6 L-4,6 L-3,2 Z " fill="#131313" transform="translate(16,16)"/>
</svg>
