<?xml version="1.0" encoding="UTF-8"?>
<svg version="1.1" xmlns="http://www.w3.org/2000/svg" width="28" height="28">
<path d="M0,0 L28,0 L28,28 L0,28 Z " fill="#010101" transform="translate(0,0)"/>
<path d="M0,0 L5,0 L7,2 L7,6 L13,5 L9,7 L14,14 L14,19 L13,20 L8,20 L4,16 L4,7 L0,4 Z " fill="#D6D6D6" transform="translate(7,4)"/>
<path d="M0,0 L1,2 L3,3 L1,4 L2,8 L9,10 L8,13 L3,13 L-1,9 L-1,2 Z " fill="#E2E2E2" transform="translate(12,11)"/>
<path d="M0,0 L4,2 L6,7 L1,6 L-1,4 Z " fill="#1F1F1F" transform="translate(13,14)"/>
</svg>
