<?xml version="1.0" encoding="UTF-8"?>
<svg version="1.1" xmlns="http://www.w3.org/2000/svg" width="28" height="28">
<path d="M0,0 L28,0 L28,28 L0,28 Z " fill="#030303" transform="translate(0,0)"/>
<path d="M0,0 L8,0 L8,2 L10,2 L8,8 L6,11 L6,17 L0,20 L-5,20 L-6,15 L-1,10 L-2,1 Z " fill="#CDCDCD" transform="translate(13,4)"/>
<path d="M0,0 L8,0 L9,3 L0,3 L1,9 L-2,6 L-2,1 Z " fill="#E5E5E5" transform="translate(13,4)"/>
<path d="M0,0 L7,0 L4,5 L2,5 Z " fill="#0D0D0D" transform="translate(13,7)"/>
</svg>
