<?xml version="1.0" encoding="UTF-8"?>
<svg version="1.1" xmlns="http://www.w3.org/2000/svg" width="28" height="28">
<path d="M0,0 L28,0 L28,28 L0,28 Z " fill="#020202" transform="translate(0,0)"/>
<path d="M0,0 L6,0 L6,4 L2,8 L4,13 L4,18 L2,20 L-5,19 L-7,17 L-7,12 L-4,7 L-6,7 L-5,3 Z " fill="#E9E9E9" transform="translate(15,5)"/>
<path d="M0,0 L5,0 L7,3 L6,7 L1,8 L-1,6 L-1,1 Z " fill="#D1D1D1" transform="translate(9,16)"/>
<path d="M0,0 L2,0 L2,2 L4,2 L4,4 L-1,6 L-2,4 L-4,6 L-3,2 Z " fill="#9B9B9B" transform="translate(13,6)"/>
<path d="M0,0 L3,0 L5,3 L5,6 L0,5 Z " fill="#0B0B0B" transform="translate(11,16)"/>
</svg>
