<?xml version="1.0" encoding="UTF-8"?>
<svg version="1.1" xmlns="http://www.w3.org/2000/svg" width="28" height="28">
<path d="M0,0 L28,0 L28,28 L0,28 Z " fill="#030303" transform="translate(0,0)"/>
<path d="M0,0 L8,0 L10,2 L15,2 L17,4 L17,7 L7,10 L7,16 L4,20 L0,19 L-1,14 L1,12 L0,6 L-1,1 Z " fill="#F0F0F0" transform="translate(8,6)"/>
<path d="M0,0 L6,0 L9,2 L9,4 L11,5 L5,8 L2,8 L-1,1 Z " fill="#C5C5C5" transform="translate(10,6)"/>
<path d="M0,0 L1,0 L1,6 L-2,10 L-6,9 L-7,4 L-2,3 L0,4 Z " fill="#C3C3C3" transform="translate(14,16)"/>
<path d="M0,0 L4,2 L2,3 L4,8 L7,9 L3,9 L2,11 L-1,4 Z " fill="#D9D9D9" transform="translate(8,6)"/>
<path d="M0,0 L6,0 L5,5 L2,5 Z " fill="#242424" transform="translate(10,9)"/>
</svg>
