<?xml version="1.0" encoding="UTF-8"?>
<svg version="1.1" xmlns="http://www.w3.org/2000/svg" width="28" height="28">
<path d="M0,0 L28,0 L28,28 L0,28 Z " fill="#020202" transform="translate(0,0)"/>
<path d="M0,0 L8,1 L11,4 L10,8 L10,11 L11,16 L8,18 L-3,18 L-8,15 L-9,10 L-6,7 L-5,3 Z " fill="#DBDBDB" transform="translate(13,5)"/>
<path d="M0,0 L13,0 L15,5 L14,6 L2,6 L-1,3 Z " fill="#0F0F0F" transform="translate(7,15)"/>
<path d="M0,0 L8,1 L9,5 L5,6 L3,5 L3,7 L-2,6 L-3,2 Z " fill="#0B0B0B" transform="translate(13,7)"/>
<path d="M0,0 L4,2 L5,6 L3,9 L5,12 L4,16 L2,17 L-9,17 L-6,15 L2,14 L0,7 L2,6 L2,3 L-1,1 Z " fill="#C2C2C2" transform="translate(19,6)"/>
</svg>
