<?xml version="1.0" encoding="UTF-8"?>
<svg version="1.1" xmlns="http://www.w3.org/2000/svg" width="28" height="28">
<path d="M0,0 L28,0 L28,28 L0,28 Z " fill="#020202" transform="translate(0,0)"/>
<path d="M0,0 L7,0 L9,1 L8,6 L6,10 L8,12 L8,17 L3,20 L-1,19 L-2,18 L-2,12 L-1,10 L-3,10 L-3,8 L0,7 L-2,5 L-2,1 Z " fill="#C6C6C6" transform="translate(12,5)"/>
<path d="M0,0 L4,2 L4,8 L-2,9 L-4,7 L-4,1 L-3,3 L-1,3 Z " fill="#D4D4D4" transform="translate(14,16)"/>
<path d="M0,0 L7,0 L11,4 L11,9 L8,9 L7,4 L5,4 L4,6 L2,6 L2,2 L0,2 Z " fill="#E8E8E8" transform="translate(9,13)"/>
<path d="M0,0 L4,2 L3,6 L-1,6 L-1,1 Z " fill="#161616" transform="translate(14,16)"/>
<path d="M0,0 L6,0 L5,4 L1,4 Z " fill="#0C0C0C" transform="translate(12,7)"/>
</svg>
