<?xml version="1.0" encoding="UTF-8"?>
<svg version="1.1" xmlns="http://www.w3.org/2000/svg" width="28" height="28">
<path d="M0,0 L28,0 L28,28 L0,28 Z " fill="#020202" transform="translate(0,0)"/>
<path d="M0,0 L7,1 L9,5 L1,3 L2,8 L10,6 L10,3 L13,3 L12,8 L7,10 L4,10 L4,19 L0,20 L0,18 L2,18 L2,12 L-1,14 L-3,17 L-3,11 L0,10 L-2,7 L-2,2 Z " fill="#EAEAEA" transform="translate(11,5)"/>
<path d="M0,0 L7,1 L9,5 L1,3 L0,6 L-2,7 L-2,2 Z " fill="#E8E8E8" transform="translate(11,5)"/>
<path d="M0,0 L2,0 L2,6 L0,6 L0,8 L-4,6 L-4,1 L-1,1 Z " fill="#737373" transform="translate(11,17)"/>
<path d="M0,0 L6,1 L8,2 L9,0 L9,3 L4,5 L1,5 Z " fill="#1B1B1B" transform="translate(12,8)"/>
<path d="M0,0 L5,2 L1,3 L0,6 L-2,7 L-2,2 Z " fill="#B5B5B5" transform="translate(11,5)"/>
</svg>
