<?xml version="1.0" encoding="UTF-8"?>
<svg version="1.1" xmlns="http://www.w3.org/2000/svg" width="28" height="28">
<path d="M0,0 L28,0 L28,28 L0,28 Z " fill="#010101" transform="translate(0,0)"/>
<path d="M0,0 L10,0 L11,2 L8,3 L8,10 L13,16 L13,20 L7,18 L4,14 L2,7 L-1,4 Z " fill="#E8E8E8" transform="translate(8,5)"/>
<path d="M0,0 L4,1 L6,2 L6,7 L1,6 L-1,4 Z " fill="#7B7B7B" transform="translate(8,5)"/>
<path d="M0,0 L4,2 L6,6 L2,6 L0,4 Z " fill="#A1A1A1" transform="translate(13,17)"/>
<path d="M0,0 L6,0 L7,2 L4,3 L3,7 L2,2 L-3,2 Z " fill="#D1D1D1" transform="translate(12,5)"/>
</svg>
