<?xml version="1.0" encoding="UTF-8"?>
<svg version="1.1" xmlns="http://www.w3.org/2000/svg" width="28" height="28">
<path d="M0,0 L28,0 L28,28 L0,28 Z " fill="#010101" transform="translate(0,0)"/>
<path d="M0,0 L7,1 L8,5 L1,11 L-1,11 L0,18 L-1,20 L-8,19 L-10,17 L-9,13 L-5,11 L-5,4 Z " fill="#C5C5C5" transform="translate(16,5)"/>
<path d="M0,0 L7,1 L8,5 L5,8 L2,8 Z " fill="#F2F2F2" transform="translate(16,5)"/>
<path d="M0,0 L2,2 L2,5 L4,6 L-1,8 L-1,6 L-3,6 L-2,2 Z " fill="#828282" transform="translate(16,8)"/>
</svg>
