<?xml version="1.0" encoding="UTF-8"?>
<svg version="1.1" xmlns="http://www.w3.org/2000/svg" width="28" height="28">
<path d="M0,0 L28,0 L28,28 L0,28 Z " fill="#020202" transform="translate(0,0)"/>
<path d="M0,0 L10,0 L12,7 L11,11 L9,12 L7,19 L3,20 L1,18 L5,18 L4,13 L2,12 L2,9 L0,9 L0,7 L-4,5 L-3,1 Z " fill="#DDDDDD" transform="translate(10,6)"/>
<path d="M0,0 L4,0 L4,2 L10,1 L10,4 L8,5 L6,12 L2,13 L0,11 L4,11 L3,6 L1,5 L1,2 L-1,1 Z " fill="#ECECEC" transform="translate(11,13)"/>
<path d="M0,0 L5,3 L4,7 L2,9 L-1,9 L-1,7 L-3,7 L-2,2 Z " fill="#BFBFBF" transform="translate(11,17)"/>
<path d="M0,0 L7,0 L8,3 L3,5 L3,3 L0,2 Z " fill="#101010" transform="translate(12,10)"/>
<path d="M0,0 L4,1 L3,5 L-1,4 Z " fill="#141414" transform="translate(12,19)"/>
</svg>
