<?xml version="1.0" encoding="UTF-8"?>
<svg version="1.1" xmlns="http://www.w3.org/2000/svg" width="28" height="28">
<path d="M0,0 L28,0 L28,28 L0,28 Z " fill="#020202" transform="translate(0,0)"/>
<path d="M0,0 L3,0 L3,5 L6,5 L5,10 L1,11 L-1,18 L-3,20 L-8,20 L-10,18 L-9,12 L-7,11 L-8,7 L-9,3 L-7,1 Z " fill="#E9E9E9" transform="translate(17,5)"/>
<path d="M0,0 L6,2 L6,5 L1,5 L-1,1 Z " fill="#EBEBEB" transform="translate(8,20)"/>
<path d="M0,0 L3,3 L2,6 L1,4 L-3,3 Z " fill="#6E6E6E" transform="translate(13,18)"/>
<path d="M0,0 L6,0 L4,4 L0,2 Z " fill="#161616" transform="translate(12,9)"/>
</svg>
