<?xml version="1.0" encoding="UTF-8"?>
<svg version="1.1" xmlns="http://www.w3.org/2000/svg" width="28" height="28">
<path d="M0,0 L28,0 L28,28 L0,28 Z " fill="#040404" transform="translate(0,0)"/>
<path d="M0,0 L9,1 L9,5 L1,4 L1,7 L9,7 L9,9 L5,10 L5,16 L4,18 L2,18 L2,20 L-6,19 L-6,13 L-3,10 L-1,10 L-4,5 L-2,1 Z " fill="#ECECEC" transform="translate(13,5)"/>
<path d="M0,0 L3,0 L3,6 L2,8 L-2,8 L-3,2 Z " fill="#8B8B8B" transform="translate(13,17)"/>
<path d="M0,0 L7,0 L7,2 L0,3 Z " fill="#272727" transform="translate(14,9)"/>
</svg>
