<?xml version="1.0" encoding="UTF-8"?>
<svg version="1.1" xmlns="http://www.w3.org/2000/svg" width="28" height="28">
<path d="M0,0 L28,0 L28,28 L0,28 Z " fill="#030303" transform="translate(0,0)"/>
<path d="M0,0 L9,0 L10,3 L7,3 L6,8 L5,11 L7,14 L7,18 L3,20 L-2,20 L-3,19 L-2,10 L-4,7 L-4,1 Z " fill="#D1D1D1" transform="translate(13,6)"/>
<path d="M0,0 L7,0 L8,3 L5,3 L4,8 L1,7 L1,3 L-1,3 Z M0,7 Z " fill="#EDEDED" transform="translate(15,6)"/>
<path d="M0,0 L1,4 L3,5 L-2,6 L-2,1 Z " fill="#EAEAEA" transform="translate(12,19)"/>
<path d="M0,0 L4,0 L3,5 L0,4 Z " fill="#191919" transform="translate(12,9)"/>
</svg>
