<?xml version="1.0" encoding="UTF-8"?>
<svg version="1.1" xmlns="http://www.w3.org/2000/svg" width="28" height="28">
<path d="M0,0 L28,0 L28,28 L0,28 Z " fill="#030303" transform="translate(0,0)"/>
<path d="M0,0 L5,1 L5,4 L-1,9 L-1,14 L-6,19 L-11,20 L-14,17 L-10,13 L-8,13 L-8,6 L-4,2 Z " fill="#B6B6B6" transform="translate(19,4)"/>
<path d="M0,0 L5,1 L5,4 L0,6 L-4,9 L-6,9 L-7,11 L-8,6 L-4,2 Z " fill="#D9D9D9" transform="translate(19,4)"/>
<path d="M0,0 L2,1 L-2,5 L-3,8 L-8,9 L-7,5 Z " fill="#E8E8E8" transform="translate(20,8)"/>
<path d="M0,0 L3,1 L-4,7 L-6,6 L-5,3 Z " fill="#2A2A2A" transform="translate(19,6)"/>
</svg>
