<?xml version="1.0" encoding="UTF-8"?>
<svg version="1.1" xmlns="http://www.w3.org/2000/svg" width="28" height="28">
<path d="M0,0 L28,0 L28,28 L0,28 Z " fill="#030303" transform="translate(0,0)"/>
<path d="M0,0 L8,0 L14,2 L13,5 L9,8 L14,12 L13,16 L10,18 L2,18 L-1,15 L0,10 L2,10 L2,8 L-3,7 L-6,4 L-5,1 Z " fill="#D5D5D5" transform="translate(10,6)"/>
<path d="M0,0 L7,1 L9,2 L8,5 L6,6 L0,6 L-2,5 L-1,1 Z " fill="#121212" transform="translate(13,16)"/>
<path d="M0,0 L5,1 L2,5 L-3,4 L-6,1 Z " fill="#0D0D0D" transform="translate(14,8)"/>
</svg>
