<?xml version="1.0" encoding="UTF-8"?>
<svg version="1.1" xmlns="http://www.w3.org/2000/svg" width="28" height="28">
<path d="M0,0 L28,0 L28,28 L0,28 Z " fill="#020202" transform="translate(0,0)"/>
<path d="M0,0 L6,0 L8,5 L3,4 L0,9 L5,6 L8,6 L7,10 L5,11 L6,20 L0,20 L-3,18 L-3,11 L-1,11 L-1,2 Z " fill="#E4E4E4" transform="translate(12,5)"/>
<path d="M0,0 L4,2 L6,3 L6,7 L0,7 L-3,5 L-2,2 L0,2 Z " fill="#D7D7D7" transform="translate(12,18)"/>
<path d="M0,0 L4,1 L4,3 L0,6 L-3,6 L-2,2 Z " fill="#1F1F1F" transform="translate(15,8)"/>
<path d="M0,0 L4,2 L5,5 L-1,4 Z " fill="#202020" transform="translate(12,18)"/>
</svg>
