<?xml version="1.0" encoding="UTF-8"?>
<svg version="1.1" xmlns="http://www.w3.org/2000/svg" width="28" height="28">
<path d="M0,0 L28,0 L28,28 L0,28 Z " fill="#020202" transform="translate(0,0)"/>
<path d="M0,0 L7,0 L9,4 L4,9 L2,13 L3,19 L-3,20 L-7,18 L-6,14 L-4,12 L-5,4 Z " fill="#DBDBDB" transform="translate(14,5)"/>
<path d="M0,0 L7,0 L9,4 L4,9 L1,11 L-1,9 L5,5 L6,2 L-2,3 L-3,6 L-5,4 Z " fill="#C1C1C1" transform="translate(14,5)"/>
<path d="M0,0 L6,0 L5,4 L1,7 L-2,7 L-3,4 L-2,1 Z " fill="#080808" transform="translate(14,7)"/>
<path d="M0,0 L3,1 L3,5 L-2,5 L-2,1 Z " fill="#131313" transform="translate(12,18)"/>
</svg>
