<?xml version="1.0" encoding="UTF-8"?>
<svg version="1.1" xmlns="http://www.w3.org/2000/svg" width="28" height="28">
<path d="M0,0 L28,0 L28,28 L0,28 Z " fill="#000000" transform="translate(0,0)"/>
<path d="M0,0 L4,0 L4,2 L6,2 L6,8 L5,10 L7,10 L6,15 L3,20 L-1,19 L1,10 L-3,8 L-2,2 Z " fill="#D4D4D4" transform="translate(12,5)"/>
<path d="M0,0 L2,1 L3,6 L2,8 L-3,8 L-2,2 Z " fill="#7F7F7F" transform="translate(12,5)"/>
<path d="M0,0 L1,2 L-2,7 L-6,6 L-4,1 L-1,1 Z " fill="#EBEBEB" transform="translate(17,18)"/>
</svg>
