<?xml version="1.0" encoding="UTF-8"?>
<svg version="1.1" xmlns="http://www.w3.org/2000/svg" width="28" height="28">
<path d="M0,0 L28,0 L28,28 L0,28 Z " fill="#020202" transform="translate(0,0)"/>
<path d="M0,0 L2,0 L2,2 L-3,5 L2,5 L7,0 L9,0 L7,4 L4,7 L1,16 L-2,20 L-5,20 L-5,14 L-1,9 L-6,7 L-6,4 L-4,4 L-4,2 Z " fill="#E1E1E1" transform="translate(15,5)"/>
<path d="M0,0 L3,0 L4,4 L0,10 L-3,10 L-3,4 Z " fill="#A3A3A3" transform="translate(13,15)"/>
<path d="M0,0 L2,0 L2,2 L-3,5 L1,7 L-5,8 L-6,4 L-4,4 L-4,2 Z " fill="#CBCBCB" transform="translate(15,5)"/>
<path d="M0,0 L2,0 L3,2 L5,1 L4,5 L0,6 Z " fill="#E5E5E5" transform="translate(10,19)"/>
</svg>
