<?xml version="1.0" encoding="UTF-8"?>
<svg version="1.1" xmlns="http://www.w3.org/2000/svg" width="28" height="28">
<path d="M0,0 L28,0 L28,28 L0,28 Z " fill="#020202" transform="translate(0,0)"/>
<path d="M0,0 L5,1 L6,2 L5,9 L3,10 L3,19 L-3,20 L-4,19 L-4,13 L-3,9 L-4,2 Z " fill="#EBEBEB" transform="translate(14,5)"/>
<path d="M0,0 L5,1 L6,2 L6,7 L4,3 L-2,4 L-1,7 L-4,7 L-4,2 Z " fill="#EEEEEE" transform="translate(14,5)"/>
<path d="M0,0 L3,1 L4,6 L1,7 L1,5 L-1,5 Z " fill="#676767" transform="translate(13,18)"/>
<path d="M0,0 L4,0 L2,5 L-2,3 L-2,1 Z " fill="#181818" transform="translate(14,8)"/>
</svg>
