<?xml version="1.0" encoding="UTF-8"?>
<svg version="1.1" xmlns="http://www.w3.org/2000/svg" width="28" height="28">
<path d="M0,0 L28,0 L28,28 L0,28 Z " fill="#020202" transform="translate(0,0)"/>
<path d="M0,0 L2,0 L3,6 L-1,7 L3,16 L3,19 L-3,20 L-7,16 L-7,10 L-6,5 L-6,1 Z " fill="#D7D7D7" transform="translate(17,5)"/>
<path d="M0,0 L4,4 L4,7 L-2,8 L-5,5 L-4,1 L-2,5 L1,6 Z " fill="#EBEBEB" transform="translate(16,17)"/>
<path d="M0,0 L3,3 L4,8 L0,7 L-1,2 Z " fill="#212121" transform="translate(13,15)"/>
</svg>
