<?xml version="1.0" encoding="UTF-8"?>
<svg version="1.1" xmlns="http://www.w3.org/2000/svg" width="28" height="28">
<path d="M0,0 L28,0 L28,28 L0,28 Z " fill="#020202" transform="translate(0,0)"/>
<path d="M0,0 L5,1 L6,2 L5,9 L2,12 L0,19 L-1,20 L-6,20 L-6,16 L-4,16 L-4,18 L-1,17 L0,14 L-2,14 L-4,8 L-4,2 Z " fill="#D8D8D8" transform="translate(15,5)"/>
<path d="M0,0 L3,0 L3,6 L1,8 L-2,8 L-4,1 Z " fill="#101010" transform="translate(16,7)"/>
<path d="M0,0 L3,1 L2,5 L-1,5 L-2,2 Z " fill="#686868" transform="translate(12,18)"/>
</svg>
