<?xml version="1.0" encoding="UTF-8"?>
<svg version="1.1" xmlns="http://www.w3.org/2000/svg" width="28" height="28">
<path d="M0,0 L28,0 L28,28 L0,28 Z " fill="#020202" transform="translate(0,0)"/>
<path d="M0,0 L5,0 L7,3 L6,8 L0,10 L2,14 L1,19 L0,20 L-6,20 L-7,19 L-7,12 L-4,9 L-6,8 L-5,5 L-2,7 L5,6 L4,3 L-4,4 Z " fill="#D8D8D8" transform="translate(15,5)"/>
<path d="M0,0 L1,2 L5,1 L8,7 L6,9 L0,9 L-1,8 L-1,1 Z " fill="#CDCDCD" transform="translate(9,16)"/>
<path d="M0,0 L4,1 L4,4 L0,6 L-5,5 L-7,2 Z " fill="#202020" transform="translate(16,7)"/>
<path d="M0,0 L4,2 L4,4 L7,5 L8,12 L5,8 L1,8 L2,4 L0,3 Z " fill="#EEEEEE" transform="translate(9,10)"/>
<path d="M0,0 L3,1 L2,6 L-2,6 L-1,1 Z " fill="#171717" transform="translate(12,17)"/>
</svg>
