<?xml version="1.0" encoding="UTF-8"?>
<svg version="1.1" xmlns="http://www.w3.org/2000/svg" width="28" height="28">
<path d="M0,0 L28,0 L28,28 L0,28 Z " fill="#020202" transform="translate(0,0)"/>
<path d="M0,0 L9,0 L11,2 L10,6 L8,8 L11,14 L6,19 L-1,20 L-4,18 L-4,12 L-1,8 L1,8 L1,6 L-3,6 L-2,1 Z " fill="#DCDCDC" transform="translate(11,5)"/>
<path d="M0,0 L3,3 L4,6 L-1,11 L-8,12 L-11,10 L-11,4 L-8,2 L-7,4 L-8,9 L-3,8 L1,7 Z " fill="#D8D8D8" transform="translate(18,13)"/>
<path d="M0,0 L4,1 L5,6 L-1,9 L-5,8 L-4,3 Z " fill="#171717" transform="translate(14,14)"/>
<path d="M0,0 L7,0 L5,4 L-1,2 Z " fill="#191919" transform="translate(11,7)"/>
</svg>
