<?xml version="1.0" encoding="UTF-8"?>
<svg version="1.1" xmlns="http://www.w3.org/2000/svg" width="28" height="28">
<path d="M0,0 L28,0 L28,28 L0,28 Z " fill="#030303" transform="translate(0,0)"/>
<path d="M0,0 L3,0 L3,2 L-4,5 L-2,6 L-1,4 L1,5 L2,10 L3,12 L3,18 L0,20 L-5,19 L-4,9 L-7,7 L-6,3 Z " fill="#CCCCCC" transform="translate(16,4)"/>
<path d="M0,0 L1,0 L1,6 L5,4 L7,1 L7,6 L4,8 L-1,7 L-1,1 Z " fill="#E8E8E8" transform="translate(12,16)"/>
<path d="M0,0 L3,1 L3,6 L-1,7 Z " fill="#0E0E0E" transform="translate(14,15)"/>
</svg>
