<?xml version="1.0" encoding="UTF-8"?>
<svg version="1.1" xmlns="http://www.w3.org/2000/svg" width="28" height="28">
<path d="M0,0 L28,0 L28,28 L0,28 Z " fill="#020202" transform="translate(0,0)"/>
<path d="M0,0 L6,1 L6,7 L0,12 L1,19 L0,20 L-8,20 L-10,19 L-9,14 L-6,13 L-7,5 L-4,1 Z " fill="#E5E5E5" transform="translate(17,4)"/>
<path d="M0,0 L6,1 L6,7 L3,8 L3,3 L-2,4 L0,5 L0,7 L-4,7 L-5,9 L-5,7 L-7,7 L-5,2 Z " fill="#D2D2D2" transform="translate(17,4)"/>
<path d="M0,0 L5,0 L4,5 L1,7 L-2,7 L-2,4 L2,4 L2,2 L-1,1 Z " fill="#111111" transform="translate(15,7)"/>
<path d="M0,0 L3,0 L2,5 L-6,5 L-6,3 L0,3 Z " fill="#EBEBEB" transform="translate(15,19)"/>
<path d="M0,0 L3,1 L3,4 L-2,4 L-2,1 Z " fill="#141414" transform="translate(12,18)"/>
</svg>
