<?xml version="1.0" encoding="UTF-8"?>
<svg version="1.1" xmlns="http://www.w3.org/2000/svg" width="28" height="28">
<path d="M0,0 L28,0 L28,28 L0,28 Z " fill="#070707" transform="translate(0,0)"/>
<path d="M0,0 L8,0 L12,4 L11,9 L9,14 L10,18 L7,20 L0,20 L-2,18 L-1,14 L1,11 L-1,8 L-1,1 Z " fill="#E5E5E5" transform="translate(9,5)"/>
<path d="M0,0 L4,2 L3,7 L-1,8 L-4,5 L-4,2 Z " fill="#121212" transform="translate(14,7)"/>
<path d="M0,0 L8,0 L8,2 L1,4 L2,8 L-1,8 L-1,1 Z " fill="#F3F3F3" transform="translate(9,5)"/>
<path d="M0,0 L5,1 L5,3 L-1,4 L-1,1 Z " fill="#282828" transform="translate(11,19)"/>
</svg>
