<?xml version="1.0" encoding="UTF-8"?>
<svg version="1.1" xmlns="http://www.w3.org/2000/svg" width="28" height="28">
<path d="M0,0 L28,0 L28,28 L0,28 Z " fill="#020202" transform="translate(0,0)"/>
<path d="M0,0 L5,1 L7,4 L6,8 L2,11 L2,19 L-5,20 L-9,18 L-8,14 L-5,12 L-5,5 Z " fill="#F1F1F1" transform="translate(15,5)"/>
<path d="M0,0 L5,1 L7,4 L6,8 L2,11 L0,14 L0,8 L2,6 L1,3 L-2,2 Z " fill="#E2E2E2" transform="translate(15,5)"/>
<path d="M0,0 L4,0 L5,2 L7,3 L3,5 L3,7 L0,7 L-1,9 L-2,2 Z " fill="#D9D9D9" transform="translate(12,8)"/>
<path d="M0,0 L3,1 L2,5 L-3,4 Z " fill="#292929" transform="translate(11,18)"/>
<path d="M0,0 L4,3 L0,6 L-2,6 L-1,1 Z " fill="#252525" transform="translate(15,8)"/>
<path d="M0,0 L2,2 L6,4 L6,6 L0,5 L-1,1 Z " fill="#CFCFCF" transform="translate(7,19)"/>
</svg>
