<?xml version="1.0" encoding="UTF-8"?>
<svg version="1.1" xmlns="http://www.w3.org/2000/svg" width="28" height="28">
<path d="M0,0 L28,0 L28,28 L0,28 Z " fill="#040404" transform="translate(0,0)"/>
<path d="M0,0 L3,0 L2,4 L-1,5 L-2,7 L4,7 L6,3 L10,1 L8,5 L6,10 L6,17 L3,20 L0,20 L0,13 L2,9 L-4,9 L-3,4 Z " fill="#EBEBEB" transform="translate(12,5)"/>
<path d="M0,0 L3,0 L4,8 L-1,9 L-1,2 Z " fill="#A9A9A9" transform="translate(13,16)"/>
<path d="M0,0 L2,0 L0,4 L-3,7 L-3,3 Z " fill="#D2D2D2" transform="translate(20,6)"/>
</svg>
