<?xml version="1.0" encoding="UTF-8"?>
<svg version="1.1" xmlns="http://www.w3.org/2000/svg" width="28" height="28">
<path d="M0,0 L28,0 L28,28 L0,28 Z " fill="#020202" transform="translate(0,0)"/>
<path d="M0,0 L7,0 L8,4 L1,9 L1,18 L-2,20 L-9,20 L-10,16 L-6,11 L-5,3 Z " fill="#E4E4E4" transform="translate(16,5)"/>
<path d="M0,0 L7,2 L2,6 L-2,11 L0,11 L1,15 L-1,17 L-5,17 L-7,13 L-4,10 L-3,2 Z " fill="#9E9E9E" transform="translate(14,6)"/>
<path d="M0,0 L5,0 L0,4 L-4,4 L-3,1 Z " fill="#141414" transform="translate(16,8)"/>
</svg>
