<?xml version="1.0" encoding="UTF-8"?>
<svg version="1.1" xmlns="http://www.w3.org/2000/svg" width="28" height="28">
<path d="M0,0 L28,0 L28,28 L0,28 Z " fill="#020202" transform="translate(0,0)"/>
<path d="M0,0 L5,1 L4,3 L-1,4 L-2,8 L0,8 L0,6 L5,4 L5,7 L-1,11 L-5,16 L-6,18 L-3,18 L-2,15 L-1,18 L-3,20 L-7,19 L-8,16 L-5,11 L-4,3 Z " fill="#DEDEDE" transform="translate(16,5)"/>
<path d="M0,0 L3,0 L1,4 L-1,4 L-1,6 L-4,7 L-3,2 Z " fill="#191919" transform="translate(17,7)"/>
<path d="M0,0 L1,4 L-1,7 L-4,7 L-2,2 L0,2 Z " fill="#353535" transform="translate(14,16)"/>
</svg>
