<?xml version="1.0" encoding="UTF-8"?>
<svg version="1.1" xmlns="http://www.w3.org/2000/svg" width="28" height="28">
<path d="M0,0 L28,0 L28,28 L0,28 Z " fill="#010101" transform="translate(0,0)"/>
<path d="M0,0 L3,0 L4,5 L-1,10 L-7,14 L-8,16 L-5,17 L-5,19 L-10,20 L-11,15 L-7,11 L-5,4 Z " fill="#DDDDDD" transform="translate(18,5)"/>
<path d="M0,0 L3,0 L2,5 L-3,9 L-5,9 L-6,5 Z " fill="#C2C2C2" transform="translate(18,5)"/>
<path d="M0,0 L2,1 L2,3 L5,4 L5,6 L0,7 L-1,2 Z " fill="#C2C2C2" transform="translate(8,18)"/>
<path d="M0,0 L3,0 L1,4 L-4,6 L-2,1 Z " fill="#1A1A1A" transform="translate(17,8)"/>
<path d="M0,0 L1,0 L1,6 L-4,5 L-2,1 Z " fill="#4C4C4C" transform="translate(13,17)"/>
</svg>
