<?xml version="1.0" encoding="UTF-8"?>
<svg version="1.1" xmlns="http://www.w3.org/2000/svg" width="28" height="28">
<path d="M0,0 L28,0 L28,28 L0,28 Z " fill="#030303" transform="translate(0,0)"/>
<path d="M0,0 L6,0 L10,3 L10,6 L7,5 L6,3 L1,3 L1,6 L3,7 L6,6 L5,10 L8,15 L6,20 L1,19 L-1,15 L-1,8 L-3,7 L-3,2 Z " fill="#DADADA" transform="translate(11,5)"/>
<path d="M0,0 L6,0 L10,3 L10,6 L7,5 L6,3 L1,3 L1,6 L-3,7 L-3,2 Z " fill="#DADADA" transform="translate(11,5)"/>
<path d="M0,0 L4,4 L4,6 L0,6 L-1,2 Z " fill="#0F0F0F" transform="translate(13,16)"/>
</svg>
