<?xml version="1.0" encoding="UTF-8"?>
<svg version="1.1" xmlns="http://www.w3.org/2000/svg" width="28" height="28">
<path d="M0,0 L28,0 L28,28 L0,28 Z " fill="#020202" transform="translate(0,0)"/>
<path d="M0,0 L8,0 L11,2 L9,8 L5,8 L8,13 L8,19 L4,20 L1,15 L1,9 L-1,6 L-1,1 Z " fill="#E7E7E7" transform="translate(10,6)"/>
<path d="M0,0 L4,1 L6,2 L4,8 L0,8 L-1,10 L-4,6 L-4,2 Z " fill="#D5D5D5" transform="translate(15,6)"/>
<path d="M0,0 L7,1 L7,2 L1,2 L3,7 L3,11 L-1,6 L-1,1 Z " fill="#E5E5E5" transform="translate(10,6)"/>
<path d="M0,0 L6,0 L4,5 L1,5 Z " fill="#1E1E1E" transform="translate(11,8)"/>
<path d="M0,0 L3,1 L4,6 L0,4 Z " fill="#3B3B3B" transform="translate(13,18)"/>
</svg>
