<?xml version="1.0" encoding="UTF-8"?>
<svg version="1.1" xmlns="http://www.w3.org/2000/svg" width="28" height="28">
<path d="M0,0 L28,0 L28,28 L0,28 Z " fill="#020202" transform="translate(0,0)"/>
<path d="M0,0 L4,1 L4,3 L6,3 L5,7 L1,8 L0,17 L-5,20 L-8,19 L-8,14 L-4,10 L-3,3 Z " fill="#B3B3B3" transform="translate(16,5)"/>
<path d="M0,0 L1,0 L1,6 L-4,9 L-7,8 L-6,4 L-3,2 L-3,5 L-1,4 Z " fill="#F6F6F6" transform="translate(15,16)"/>
<path d="M0,0 L4,1 L3,5 L-1,4 L-3,8 L-3,3 Z " fill="#E6E6E6" transform="translate(16,5)"/>
<path d="M0,0 L3,0 L5,0 L4,4 L0,5 L-2,4 L-2,1 Z " fill="#969696" transform="translate(17,8)"/>
<path d="M0,0 L1,0 L1,6 L-3,8 L-3,6 L-5,5 L-1,4 Z " fill="#DFDFDF" transform="translate(15,16)"/>
</svg>
