<?xml version="1.0" encoding="UTF-8"?>
<svg version="1.1" xmlns="http://www.w3.org/2000/svg" width="28" height="28">
<path d="M0,0 L28,0 L28,28 L0,28 Z " fill="#020202" transform="translate(0,0)"/>
<path d="M0,0 L3,0 L3,2 L-4,5 L-3,9 L5,3 L7,2 L6,6 L-1,11 L-1,17 L-4,20 L-9,19 L-9,14 L-7,12 L-7,4 Z " fill="#DBDBDB" transform="translate(17,5)"/>
<path d="M0,0 L3,0 L3,2 L-4,5 L-5,12 L-7,9 L-7,4 Z " fill="#D3D3D3" transform="translate(17,5)"/>
<path d="M0,0 L3,0 L3,5 L-2,4 Z " fill="#222222" transform="translate(11,18)"/>
</svg>
