<?xml version="1.0" encoding="UTF-8"?>
<svg version="1.1" xmlns="http://www.w3.org/2000/svg" width="28" height="28">
<path d="M0,0 L28,0 L28,28 L0,28 Z " fill="#020202" transform="translate(0,0)"/>
<path d="M0,0 L7,0 L11,1 L10,6 L4,11 L5,18 L2,20 L-3,20 L-6,17 L-5,12 L-1,10 L0,7 L-2,7 L-2,2 L0,2 Z " fill="#DFDFDF" transform="translate(12,5)"/>
<path d="M0,0 L7,0 L11,1 L10,6 L7,6 L6,2 L1,4 L0,7 L-2,7 L-2,2 L0,2 Z " fill="#F7F7F7" transform="translate(12,5)"/>
<path d="M0,0 L4,0 L4,4 L-1,6 L-2,2 Z " fill="#373737" transform="translate(14,7)"/>
<path d="M0,0 L7,2 L7,5 L2,5 L-1,1 Z " fill="#E8E8E8" transform="translate(7,20)"/>
<path d="M0,0 L3,0 L1,4 L0,7 L-2,7 L-2,2 L0,2 Z " fill="#CCCCCC" transform="translate(12,5)"/>
<path d="M0,0 L2,0 L2,5 L-3,4 Z " fill="#181818" transform="translate(12,17)"/>
</svg>
