<?xml version="1.0" encoding="UTF-8"?>
<svg version="1.1" xmlns="http://www.w3.org/2000/svg" width="28" height="28">
<path d="M0,0 L28,0 L28,28 L0,28 Z " fill="#010101" transform="translate(0,0)"/>
<path d="M0,0 L2,0 L1,5 L0,10 L3,14 L2,19 L-2,20 L-4,17 L-4,8 L-5,3 Z " fill="#D8D8D8" transform="translate(16,5)"/>
<path d="M0,0 L5,3 L4,8 L0,9 L-2,6 L-2,3 L0,3 Z " fill="#BEBEBE" transform="translate(14,16)"/>
<path d="M0,0 L2,1 L0,6 L-3,5 L-2,1 Z " fill="#6D6D6D" transform="translate(14,6)"/>
<path d="M0,0 L3,2 L3,7 L0,7 Z " fill="#121212" transform="translate(14,16)"/>
</svg>
