<?xml version="1.0" encoding="UTF-8"?>
<svg version="1.1" xmlns="http://www.w3.org/2000/svg" width="28" height="28">
<path d="M0,0 L28,0 L28,28 L0,28 Z " fill="#030303" transform="translate(0,0)"/>
<path d="M0,0 L7,0 L10,3 L8,8 L2,13 L-1,20 L-8,19 L-10,15 L-7,12 L-3,10 L-4,4 Z " fill="#E6E6E6" transform="translate(14,5)"/>
<path d="M0,0 L2,0 L1,4 L-2,11 L-9,10 L-11,6 L-8,3 Z " fill="#A8A8A8" transform="translate(15,14)"/>
<path d="M0,0 L2,0 L1,4 L-1,10 L-4,9 L-2,5 L-8,6 L-4,2 Z " fill="#F1F1F1" transform="translate(15,14)"/>
<path d="M0,0 L2,0 L3,4 L-2,8 L-4,6 L-3,1 Z " fill="#101010" transform="translate(17,7)"/>
<path d="M0,0 L2,1 L3,3 L0,4 L0,10 L-3,10 L-4,4 Z " fill="#C2C2C2" transform="translate(14,5)"/>
</svg>
