<?xml version="1.0" encoding="UTF-8"?>
<svg version="1.1" xmlns="http://www.w3.org/2000/svg" width="28" height="28">
<path d="M0,0 L28,0 L28,28 L0,28 Z " fill="#030303" transform="translate(0,0)"/>
<path d="M0,0 L5,0 L6,5 L2,9 L2,15 L-3,13 L-5,17 L-6,13 L-3,8 L-6,7 L-5,4 L-1,8 L4,3 L1,2 L-3,4 L-2,1 Z " fill="#D3D3D3" transform="translate(15,4)"/>
<path d="M0,0 L6,2 L6,7 L1,8 L-2,6 Z " fill="#C5C5C5" transform="translate(12,16)"/>
<path d="M0,0 L4,2 L4,6 L0,5 L-1,1 Z " fill="#0B0B0B" transform="translate(12,16)"/>
</svg>
