<?xml version="1.0" encoding="UTF-8"?>
<svg version="1.1" xmlns="http://www.w3.org/2000/svg" width="28" height="28">
<path d="M0,0 L28,0 L28,28 L0,28 Z " fill="#030303" transform="translate(0,0)"/>
<path d="M0,0 L5,1 L7,2 L7,5 L10,4 L9,7 L6,9 L6,18 L4,20 L-1,20 L-2,19 L-2,14 L1,11 L0,6 L-1,1 Z " fill="#C6C6C6" transform="translate(11,4)"/>
<path d="M0,0 L1,0 L1,6 L-3,7 L-2,2 Z " fill="#080808" transform="translate(14,15)"/>
<path d="M0,0 L5,0 L6,5 L3,5 L3,3 L1,3 Z " fill="#131313" transform="translate(11,6)"/>
</svg>
