<?xml version="1.0" encoding="UTF-8"?>
<svg version="1.1" xmlns="http://www.w3.org/2000/svg" width="28" height="28">
<path d="M0,0 L28,0 L28,28 L0,28 Z " fill="#020202" transform="translate(0,0)"/>
<path d="M0,0 L4,0 L4,2 L-3,5 L-4,7 L1,8 L1,6 L3,6 L3,4 L5,5 L4,7 L2,7 L2,10 L4,10 L3,17 L1,20 L-4,20 L-5,19 L-4,12 L-2,9 L-6,8 L-6,4 Z " fill="#DBDBDB" transform="translate(15,4)"/>
<path d="M0,0 L4,0 L4,2 L-3,5 L-4,7 L1,8 L-2,17 L-5,17 L-4,12 L-2,9 L-6,8 L-6,4 Z " fill="#DEDEDE" transform="translate(15,4)"/>
<path d="M0,0 L1,3 L-1,3 L-1,5 L-3,5 L-3,7 L-8,6 L-6,2 Z " fill="#1F1F1F" transform="translate(19,5)"/>
<path d="M0,0 L3,1 L2,6 L-1,6 L-1,1 Z " fill="#222222" transform="translate(14,15)"/>
</svg>
