<?xml version="1.0" encoding="UTF-8"?>
<svg version="1.1" xmlns="http://www.w3.org/2000/svg" width="28" height="28">
<path d="M0,0 L28,0 L28,28 L0,28 Z " fill="#020202" transform="translate(0,0)"/>
<path d="M0,0 L7,1 L8,2 L8,7 L8,10 L11,14 L11,18 L5,20 L-4,19 L-5,18 L-5,11 L-2,2 Z " fill="#E1E1E1" transform="translate(12,4)"/>
<path d="M0,0 L3,0 L5,3 L5,7 L2,8 L-5,8 L-6,3 L-4,1 Z " fill="#080808" transform="translate(15,14)"/>
<path d="M0,0 L4,1 L7,5 L7,9 L1,11 L-5,11 L-5,9 L4,8 L2,1 Z " fill="#CBCBCB" transform="translate(16,13)"/>
<path d="M0,0 L5,1 L4,5 L3,6 L-2,6 Z " fill="#151515" transform="translate(13,6)"/>
</svg>
