<?xml version="1.0" encoding="UTF-8"?>
<svg version="1.1" xmlns="http://www.w3.org/2000/svg" width="28" height="28">
<path d="M0,0 L28,0 L28,28 L0,28 Z " fill="#030303" transform="translate(0,0)"/>
<path d="M0,0 L6,1 L7,5 L6,9 L10,11 L11,16 L9,19 L2,19 L-2,15 L-2,9 L-8,7 L-9,3 L-8,2 L-2,2 L-2,5 L-5,5 L-4,6 L2,6 L4,3 L0,2 Z " fill="#DADADA" transform="translate(13,5)"/>
<path d="M0,0 L2,0 L5,5 L10,4 L10,0 L12,0 L13,5 L11,8 L4,8 L0,4 Z " fill="#E4E4E4" transform="translate(11,16)"/>
<path d="M0,0 L6,1 L8,4 L6,6 L1,5 L-1,1 Z " fill="#0E0E0E" transform="translate(14,16)"/>
<path d="M0,0 L3,1 L1,5 L-5,5 L-7,2 L-1,1 Z " fill="#1B1B1B" transform="translate(14,7)"/>
</svg>
