<?xml version="1.0" encoding="UTF-8"?>
<svg version="1.1" xmlns="http://www.w3.org/2000/svg" width="28" height="28">
<path d="M0,0 L28,0 L28,28 L0,28 Z " fill="#040404" transform="translate(0,0)"/>
<path d="M0,0 L7,0 L8,4 L5,4 L5,2 L2,2 L5,7 L10,3 L13,0 L12,4 L8,9 L6,10 L3,18 L1,20 L-4,20 L-5,19 L-4,12 L0,10 Z " fill="#B2B2B2" transform="translate(12,5)"/>
<path d="M0,0 L7,0 L8,4 L5,4 L5,2 L2,2 L3,8 L0,5 Z " fill="#E8E8E8" transform="translate(12,5)"/>
<path d="M0,0 L2,0 L1,4 L6,4 L7,2 L6,6 L5,7 L0,7 L-1,6 L-1,1 Z " fill="#F1F1F1" transform="translate(8,18)"/>
<path d="M0,0 L1,3 L-3,8 L-5,8 L-3,4 Z " fill="#E3E3E3" transform="translate(24,5)"/>
<path d="M0,0 L3,0 L3,2 L5,3 L5,5 L2,6 Z " fill="#292929" transform="translate(14,7)"/>
</svg>
