<?xml version="1.0" encoding="UTF-8"?>
<svg version="1.1" xmlns="http://www.w3.org/2000/svg" width="28" height="28">
<path d="M0,0 L28,0 L28,28 L0,28 Z " fill="#020202" transform="translate(0,0)"/>
<path d="M0,0 L6,0 L8,2 L7,5 L7,3 L0,2 L0,8 L2,6 L6,6 L6,8 L1,10 L-1,17 L-4,20 L-8,19 L-7,14 L-4,11 L-3,3 Z " fill="#E6E6E6" transform="translate(15,5)"/>
<path d="M0,0 L1,4 L-3,9 L-7,8 L-6,3 L-4,1 Z " fill="#ADADAD" transform="translate(14,16)"/>
<path d="M0,0 L6,0 L8,2 L7,5 L7,3 L0,2 L0,4 L-3,5 L-1,1 Z " fill="#CFCFCF" transform="translate(15,5)"/>
</svg>
