<?xml version="1.0" encoding="UTF-8"?>
<svg version="1.1" xmlns="http://www.w3.org/2000/svg" width="28" height="28">
<path d="M0,0 L28,0 L28,28 L0,28 Z " fill="#040404" transform="translate(0,0)"/>
<path d="M0,0 L6,0 L7,5 L5,10 L11,14 L10,17 L6,19 L-4,19 L-5,14 L-4,12 L-9,8 L-8,3 Z " fill="#E5E5E5" transform="translate(14,5)"/>
<path d="M0,0 L4,1 L-1,3 L-1,6 L3,7 L6,8 L4,12 L3,15 L12,14 L11,17 L1,17 L0,12 L1,10 L-4,6 L-3,1 Z " fill="#E5E5E5" transform="translate(9,7)"/>
<path d="M0,0 L4,0 L2,6 L-6,5 L-6,2 Z " fill="#141414" transform="translate(14,8)"/>
<path d="M0,0 L6,1 L8,3 L2,5 L-2,5 L-1,1 Z " fill="#181818" transform="translate(14,17)"/>
<path d="M0,0 L6,0 L7,5 L4,5 L4,3 L-3,4 L-3,1 Z " fill="#CFCFCF" transform="translate(14,5)"/>
</svg>
