<?xml version="1.0" encoding="UTF-8"?>
<svg version="1.1" xmlns="http://www.w3.org/2000/svg" width="28" height="28">
<path d="M0,0 L28,0 L28,28 L0,28 Z " fill="#020202" transform="translate(0,0)"/>
<path d="M0,0 L4,2 L4,7 L3,12 L2,17 L-3,20 L-8,20 L-7,15 L-3,10 L-5,6 L-6,1 Z " fill="#C0C0C0" transform="translate(16,5)"/>
<path d="M0,0 Z M-6,1 L0,1 L-2,5 L-2,8 L-6,5 Z " fill="#F1F1F1" transform="translate(16,5)"/>
<path d="M0,0 L1,2 L6,1 L3,4 L-2,4 Z " fill="#F3F3F3" transform="translate(10,21)"/>
<path d="M0,0 L2,0 L1,4 L-4,6 L-2,2 Z " fill="#2C2C2C" transform="translate(15,17)"/>
</svg>
