<?xml version="1.0" encoding="UTF-8"?>
<svg version="1.1" xmlns="http://www.w3.org/2000/svg" width="28" height="28">
<path d="M0,0 L28,0 L28,28 L0,28 Z " fill="#030303" transform="translate(0,0)"/>
<path d="M0,0 L10,0 L9,12 L8,18 L6,20 L-1,20 L-2,15 L4,8 L1,8 L2,4 L7,6 L7,3 L-2,5 L-1,1 Z " fill="#E8E8E8" transform="translate(10,5)"/>
<path d="M0,0 L4,1 L5,8 L3,10 L-4,10 L-5,5 Z " fill="#DBDBDB" transform="translate(13,15)"/>
<path d="M0,0 L2,0 L2,6 L-5,7 L-3,3 Z " fill="#1B1B1B" transform="translate(15,16)"/>
<path d="M0,0 L5,0 L7,3 L-2,5 L-1,1 Z " fill="#D0D0D0" transform="translate(10,5)"/>
</svg>
