<?xml version="1.0" encoding="UTF-8"?>
<svg version="1.1" xmlns="http://www.w3.org/2000/svg" width="28" height="28">
<path d="M0,0 L28,0 L28,28 L0,28 Z " fill="#030303" transform="translate(0,0)"/>
<path d="M0,0 L4,0 L3,4 L-2,9 L-4,18 L-5,20 L-10,20 L-10,14 L-6,9 L-8,5 L-13,3 L-13,1 L-5,3 Z " fill="#D3D3D3" transform="translate(19,6)"/>
<path d="M0,0 L4,0 L3,4 L-1,7 L1,3 L-5,4 L-3,1 Z " fill="#E0E0E0" transform="translate(19,6)"/>
<path d="M0,0 L1,3 L-2,8 L-4,8 L-3,3 Z " fill="#111111" transform="translate(14,17)"/>
<path d="M0,0 L3,1 L-1,5 L-4,4 L-4,2 Z " fill="#1B1B1B" transform="translate(18,8)"/>
</svg>
