<?xml version="1.0" encoding="UTF-8"?>
<svg version="1.1" xmlns="http://www.w3.org/2000/svg" width="28" height="28">
<path d="M0,0 L28,0 L28,28 L0,28 Z " fill="#010101" transform="translate(0,0)"/>
<path d="M0,0 L5,0 L8,2 L8,8 L6,18 L3,20 L-3,19 L-3,14 L2,11 L4,11 L2,4 L2,3 L0,3 Z " fill="#D5D5D5" transform="translate(11,5)"/>
<path d="M0,0 L2,0 L2,5 L-3,5 L-3,2 Z " fill="#0F0F0F" transform="translate(13,18)"/>
<path d="M0,0 L1,0 L1,6 L-1,8 L-3,5 L-3,2 L0,2 Z " fill="#959595" transform="translate(18,7)"/>
</svg>
