<?xml version="1.0" encoding="UTF-8"?>
<svg version="1.1" xmlns="http://www.w3.org/2000/svg" width="28" height="28">
<path d="M0,0 L28,0 L28,28 L0,28 Z " fill="#030303" transform="translate(0,0)"/>
<path d="M0,0 L9,1 L6,7 L3,7 L3,10 L6,11 L8,16 L5,20 L0,19 L-1,18 L-1,8 L-5,7 L-4,1 Z " fill="#C8C8C8" transform="translate(12,6)"/>
<path d="M0,0 L9,1 L6,7 L2,7 L4,2 L-3,3 L-4,6 L-5,3 L-4,1 Z " fill="#E8E8E8" transform="translate(12,6)"/>
<path d="M0,0 L2,0 L4,5 L1,9 L-4,8 L-5,7 L-5,2 L-4,6 L0,5 Z " fill="#E1E1E1" transform="translate(16,17)"/>
<path d="M0,0 L4,0 L2,4 L0,5 L-3,3 L-3,1 Z " fill="#292929" transform="translate(12,8)"/>
<path d="M0,0 L4,3 L3,6 L0,6 Z " fill="#070707" transform="translate(13,17)"/>
</svg>
