<?xml version="1.0" encoding="UTF-8"?>
<svg version="1.1" xmlns="http://www.w3.org/2000/svg" width="28" height="28">
<path d="M0,0 L28,0 L28,28 L0,28 Z " fill="#030303" transform="translate(0,0)"/>
<path d="M0,0 L5,0 L4,3 L-1,4 L-2,7 L5,4 L8,4 L6,8 L4,8 L4,18 L0,20 L-4,19 L-4,13 L-2,13 L-2,9 L-5,9 L-6,5 L-2,1 Z " fill="#CACACA" transform="translate(14,5)"/>
<path d="M0,0 L1,4 L6,0 L6,5 L2,7 L-2,6 L-1,1 Z " fill="#EAEAEA" transform="translate(12,18)"/>
<path d="M0,0 L5,0 L4,3 L-1,4 L-3,6 L-2,1 Z " fill="#E0E0E0" transform="translate(14,5)"/>
</svg>
