<?xml version="1.0" encoding="UTF-8"?>
<svg version="1.1" xmlns="http://www.w3.org/2000/svg" width="28" height="28">
<path d="M0,0 L28,0 L28,28 L0,28 Z " fill="#020202" transform="translate(0,0)"/>
<path d="M0,0 L2,1 L-3,5 L-4,8 L4,2 L6,3 L-3,11 L-2,12 L-2,17 L-7,20 L-10,19 L-10,14 L-8,12 L-6,4 Z " fill="#CBCBCB" transform="translate(18,5)"/>
<path d="M0,0 L2,3 L-6,9 L-7,7 L-2,2 Z " fill="#222222" transform="translate(20,5)"/>
<path d="M0,0 L1,0 L1,5 L5,4 L7,0 L6,5 L0,7 L-1,6 L-1,1 Z " fill="#D6D6D6" transform="translate(9,18)"/>
<path d="M0,0 L2,1 L-6,8 L-10,9 L-10,7 L-1,1 Z " fill="#DCDCDC" transform="translate(22,7)"/>
<path d="M0,0 L2,0 L3,3 L0,6 L-2,6 L-1,1 Z " fill="#0F0F0F" transform="translate(12,17)"/>
</svg>
