<?xml version="1.0" encoding="UTF-8"?>
<svg version="1.1" xmlns="http://www.w3.org/2000/svg" width="28" height="28">
<path d="M0,0 L28,0 L28,28 L0,28 Z " fill="#030303" transform="translate(0,0)"/>
<path d="M0,0 L6,0 L7,3 L-3,5 L-3,7 L4,8 L4,10 L1,11 L2,16 L-3,20 L-8,20 L-8,13 L-6,13 L-6,11 L-4,11 L-4,9 L-7,8 L-6,3 Z " fill="#9D9D9D" transform="translate(17,4)"/>
<path d="M0,0 L2,0 L4,3 L3,8 L-1,11 L-6,11 L-5,7 L-4,9 L-2,9 L-2,7 L0,6 L-1,4 L-1,1 Z " fill="#E3E3E3" transform="translate(15,13)"/>
<path d="M0,0 L6,0 L7,3 L-3,5 L-6,5 L-6,3 Z " fill="#D3D3D3" transform="translate(17,4)"/>
</svg>
