<?xml version="1.0" encoding="UTF-8"?>
<svg version="1.1" xmlns="http://www.w3.org/2000/svg" width="28" height="28">
<path d="M0,0 L28,0 L28,28 L0,28 Z " fill="#040404" transform="translate(0,0)"/>
<path d="M0,0 L7,0 L7,4 L0,3 L-3,3 L-2,6 L2,9 L6,7 L11,2 L13,2 L12,6 L7,10 L5,10 L7,14 L7,19 L6,20 L-1,19 L-2,14 L1,10 L-4,8 L-6,6 L-5,1 Z " fill="#DDDDDD" transform="translate(12,5)"/>
<path d="M0,0 L2,0 L1,4 L-4,8 L-6,8 L-7,10 L-6,6 Z " fill="#D4D4D4" transform="translate(23,7)"/>
<path d="M0,0 L2,0 L3,5 L-2,4 Z " fill="#1B1B1B" transform="translate(14,18)"/>
</svg>
