<?xml version="1.0" encoding="UTF-8"?>
<svg version="1.1" xmlns="http://www.w3.org/2000/svg" width="28" height="28">
<path d="M0,0 L28,0 L28,28 L0,28 Z " fill="#010101" transform="translate(0,0)"/>
<path d="M0,0 L8,0 L9,1 L9,6 L6,7 L4,11 L4,17 L0,20 L-5,20 L-6,16 L-1,10 L-3,7 L-2,2 Z " fill="#DDDDDD" transform="translate(13,5)"/>
<path d="M0,0 L5,1 L3,5 L-2,7 L-3,3 Z " fill="#8D8D8D" transform="translate(10,18)"/>
<path d="M0,0 L6,0 L4,4 L0,7 L-1,6 L-1,1 Z " fill="#0F0F0F" transform="translate(14,7)"/>
</svg>
