<?xml version="1.0" encoding="UTF-8"?>
<svg version="1.1" xmlns="http://www.w3.org/2000/svg" width="28" height="28">
<path d="M0,0 L28,0 L28,28 L0,28 Z " fill="#020202" transform="translate(0,0)"/>
<path d="M0,0 L5,0 L7,4 L10,3 L9,7 L6,11 L8,13 L7,18 L3,20 L-2,20 L-1,14 L1,11 L-4,10 L-7,8 L-6,3 Z " fill="#D3D3D3" transform="translate(12,5)"/>
<path d="M0,0 L2,0 L1,4 L-2,8 L0,10 L-1,15 L-5,17 L-10,17 L-9,11 L-7,7 L-2,2 Z " fill="#E6E6E6" transform="translate(20,8)"/>
<path d="M0,0 L5,0 L4,5 L0,7 L-5,7 L-4,3 L-3,4 Z " fill="#DEDEDE" transform="translate(15,18)"/>
<path d="M0,0 L6,0 L7,4 L3,7 L-3,5 L-2,1 Z " fill="#111111" transform="translate(11,8)"/>
<path d="M0,0 L3,1 L3,3 L0,5 L-3,4 Z " fill="#262626" transform="translate(15,18)"/>
</svg>
