<?xml version="1.0" encoding="UTF-8"?>
<svg version="1.1" xmlns="http://www.w3.org/2000/svg" width="28" height="28">
<path d="M0,0 L28,0 L28,28 L0,28 Z " fill="#020202" transform="translate(0,0)"/>
<path d="M0,0 L6,0 L6,2 L-1,4 L-2,7 L3,4 L5,4 L5,6 L1,10 L2,17 L-2,20 L-7,20 L-8,19 L-8,13 L-4,9 L-4,3 Z " fill="#D2D2D2" transform="translate(16,4)"/>
<path d="M0,0 L2,0 L1,5 L-2,7 L-7,7 L-8,2 L-7,5 L-1,3 Z " fill="#E1E1E1" transform="translate(16,17)"/>
<path d="M0,0 L2,1 L2,6 L-4,7 L-3,3 Z " fill="#0E0E0E" transform="translate(13,15)"/>
</svg>
