<?xml version="1.0" encoding="UTF-8"?>
<svg version="1.1" xmlns="http://www.w3.org/2000/svg" width="28" height="28">
<path d="M0,0 L28,0 L28,28 L0,28 Z " fill="#030303" transform="translate(0,0)"/>
<path d="M0,0 L5,1 L6,5 L0,10 L0,17 L-1,19 L-8,20 L-8,14 L-5,11 L-5,3 Z " fill="#ECECEC" transform="translate(16,5)"/>
<path d="M0,0 L5,1 L6,5 L0,10 L-3,9 L-4,5 L-1,3 L-2,1 Z " fill="#D8D8D8" transform="translate(16,5)"/>
<path d="M0,0 L2,0 L1,7 L-4,6 L-3,2 Z " fill="#7A7A7A" transform="translate(14,17)"/>
<path d="M0,0 L4,0 L3,3 L-2,6 L-3,2 Z " fill="#1C1C1C" transform="translate(15,8)"/>
<path d="M0,0 L3,1 L1,5 L4,6 L-1,7 L-1,1 Z " fill="#D5D5D5" transform="translate(9,18)"/>
</svg>
