<?xml version="1.0" encoding="UTF-8"?>
<svg version="1.1" xmlns="http://www.w3.org/2000/svg" width="28" height="28">
<path d="M0,0 L28,0 L28,28 L0,28 Z " fill="#020202" transform="translate(0,0)"/>
<path d="M0,0 L5,0 L7,2 L9,1 L8,6 L1,12 L1,18 L-1,20 L-6,20 L-8,16 L-7,14 L-5,14 L-5,12 L-3,12 L-4,10 L-4,4 Z " fill="#F7F7F7" transform="translate(15,5)"/>
<path d="M0,0 L5,0 L6,5 L1,9 L-1,9 L-2,5 L-3,10 L-4,10 L-4,4 Z " fill="#BFBFBF" transform="translate(15,5)"/>
<path d="M0,0 L6,2 L5,7 L4,8 L-1,8 L-3,4 L-2,2 L0,2 Z " fill="#DDDDDD" transform="translate(10,17)"/>
<path d="M0,0 L1,3 L-3,8 L-6,9 L-6,6 L-1,1 Z " fill="#DDDDDD" transform="translate(23,6)"/>
<path d="M0,0 L4,1 L2,5 L-1,6 Z " fill="#0E0E0E" transform="translate(15,8)"/>
<path d="M0,0 L4,0 L4,4 L-2,4 Z " fill="#7D7D7D" transform="translate(12,19)"/>
</svg>
