<?xml version="1.0" encoding="UTF-8"?>
<svg version="1.1" xmlns="http://www.w3.org/2000/svg" width="28" height="28">
<path d="M0,0 L28,0 L28,28 L0,28 Z " fill="#020202" transform="translate(0,0)"/>
<path d="M0,0 L5,0 L7,3 L10,0 L9,4 L5,9 L0,11 L0,17 L-4,20 L-8,20 L-8,15 L-5,12 L-3,12 L-3,3 Z " fill="#C5C5C5" transform="translate(15,5)"/>
<path d="M0,0 L2,0 L1,3 L-4,5 L-4,11 L-8,14 L-12,14 L-12,9 L-9,6 L-6,6 L-5,2 Z " fill="#DFDFDF" transform="translate(19,11)"/>
<path d="M0,0 L4,1 L3,5 L-2,6 L-2,2 Z " fill="#7E7E7E" transform="translate(10,17)"/>
<path d="M0,0 L3,0 L4,4 L0,7 L-2,7 L-2,2 Z " fill="#222222" transform="translate(16,7)"/>
</svg>
