<?xml version="1.0" encoding="UTF-8"?>
<svg version="1.1" xmlns="http://www.w3.org/2000/svg" width="28" height="28">
<path d="M0,0 L28,0 L28,28 L0,28 Z " fill="#020202" transform="translate(0,0)"/>
<path d="M0,0 L3,0 L4,2 L4,9 L2,13 L2,20 L-8,20 L-7,14 L-6,11 L-7,10 L-6,3 L-4,1 Z " fill="#E8E8E8" transform="translate(16,4)"/>
<path d="M0,0 L5,0 L5,5 L3,7 L-1,6 L-2,3 Z " fill="#1D1D1D" transform="translate(13,7)"/>
<path d="M0,0 L3,0 L3,5 L2,6 L-3,6 L-1,1 Z " fill="#141414" transform="translate(13,17)"/>
</svg>
