<?xml version="1.0" encoding="UTF-8"?>
<svg version="1.1" xmlns="http://www.w3.org/2000/svg" width="28" height="28">
<path d="M0,0 L28,0 L28,28 L0,28 Z " fill="#030303" transform="translate(0,0)"/>
<path d="M0,0 L5,1 L4,4 L0,4 L0,9 L3,9 L3,7 L9,3 L11,0 L12,5 L5,10 L3,10 L6,14 L5,20 L-1,20 L-4,17 L-3,12 L-2,8 L-3,3 L0,2 Z " fill="#D0D0D0" transform="translate(11,6)"/>
<path d="M0,0 L4,2 L4,6 L-2,6 L-3,3 Z " fill="#090909" transform="translate(11,18)"/>
<path d="M0,0 L5,1 L4,4 L-2,4 L-3,6 L-2,2 L0,2 Z " fill="#C1C1C1" transform="translate(11,6)"/>
</svg>
