<?xml version="1.0" encoding="UTF-8"?>
<svg version="1.1" xmlns="http://www.w3.org/2000/svg" width="28" height="28">
<path d="M0,0 L28,0 L28,28 L0,28 Z " fill="#020202" transform="translate(0,0)"/>
<path d="M0,0 L5,0 L6,4 L4,4 L4,2 L-1,4 L-2,7 L0,7 L0,9 L5,6 L8,4 L6,8 L2,10 L3,18 L1,20 L-4,19 L-4,14 L-2,10 L-5,6 L-3,2 Z " fill="#D3D3D3" transform="translate(14,5)"/>
<path d="M0,0 L2,0 L3,8 L1,10 L-4,9 L-4,4 Z " fill="#BABABA" transform="translate(14,15)"/>
<path d="M0,0 L4,0 L4,6 L0,7 L0,5 L-2,5 L-1,1 Z " fill="#222222" transform="translate(14,7)"/>
</svg>
