<?xml version="1.0" encoding="UTF-8"?>
<svg version="1.1" xmlns="http://www.w3.org/2000/svg" width="28" height="28">
<path d="M0,0 L28,0 L28,28 L0,28 Z " fill="#020202" transform="translate(0,0)"/>
<path d="M0,0 L8,1 L8,4 L4,5 L4,7 L2,8 L3,17 L1,20 L-4,19 L-4,13 L-3,8 L-4,3 Z " fill="#D2D2D2" transform="translate(14,5)"/>
<path d="M0,0 L4,0 L4,6 L2,9 L0,9 L-1,7 L-1,1 Z " fill="#757575" transform="translate(13,16)"/>
<path d="M0,0 L8,1 L8,4 L4,5 L5,3 L-2,3 Z " fill="#DEDEDE" transform="translate(14,5)"/>
<path d="M0,0 L5,0 L0,5 L-3,4 L-2,1 Z " fill="#0B0B0B" transform="translate(15,7)"/>
</svg>
