<?xml version="1.0" encoding="UTF-8"?>
<svg version="1.1" xmlns="http://www.w3.org/2000/svg" width="28" height="28">
<path d="M0,0 L28,0 L28,28 L0,28 Z " fill="#030303" transform="translate(0,0)"/>
<path d="M0,0 L6,2 L6,4 L-2,8 L-3,18 L-9,20 L-10,19 L-9,12 L-3,3 Z " fill="#C3C3C3" transform="translate(18,5)"/>
<path d="M0,0 L1,0 L2,9 L-4,11 L-5,10 L-4,3 L-2,1 Z " fill="#C3C3C3" transform="translate(13,14)"/>
<path d="M0,0 L1,0 L1,8 L-2,8 L-2,3 Z " fill="#191919" transform="translate(12,15)"/>
<path d="M0,0 L2,0 L1,10 L0,10 L-1,4 L-3,5 L-1,1 Z " fill="#F2F2F2" transform="translate(14,11)"/>
</svg>
