<?xml version="1.0" encoding="UTF-8"?>
<svg version="1.1" xmlns="http://www.w3.org/2000/svg" width="28" height="28">
<path d="M0,0 L28,0 L28,28 L0,28 Z " fill="#040404" transform="translate(0,0)"/>
<path d="M0,0 L8,0 L10,3 L9,5 L6,4 L7,2 L0,3 L1,5 L7,6 L12,4 L16,5 L10,8 L8,8 L10,11 L9,16 L7,18 L-1,18 L-3,14 L0,11 L0,8 L-4,6 L-4,2 Z " fill="#DBDBDB" transform="translate(10,6)"/>
<path d="M0,0 L6,0 L8,3 L7,5 L4,4 L5,2 L-1,2 Z " fill="#EAEAEA" transform="translate(12,6)"/>
<path d="M0,0 L8,3 L8,4 L0,4 Z " fill="#F3F3F3" transform="translate(9,20)"/>
<path d="M0,0 L3,1 L2,4 L-4,4 Z " fill="#1B1B1B" transform="translate(14,17)"/>
</svg>
