<?xml version="1.0" encoding="UTF-8"?>
<svg version="1.1" xmlns="http://www.w3.org/2000/svg" width="28" height="28">
<path d="M0,0 L28,0 L28,28 L0,28 Z " fill="#020202" transform="translate(0,0)"/>
<path d="M0,0 L8,0 L13,3 L13,6 L9,8 L11,12 L12,17 L9,20 L4,19 L1,18 L1,9 L-4,5 L-3,1 Z " fill="#E4E4E4" transform="translate(10,5)"/>
<path d="M0,0 L4,1 L5,6 L2,9 L-3,8 L-6,7 L-6,5 L1,5 Z " fill="#D8D8D8" transform="translate(17,16)"/>
<path d="M0,0 L9,1 L8,5 L4,6 L-1,3 Z " fill="#1F1F1F" transform="translate(10,7)"/>
<path d="M0,0 L5,0 L5,2 L0,3 L0,7 L-4,5 L-3,1 Z " fill="#F5F5F5" transform="translate(10,5)"/>
<path d="M0,0 L4,1 L5,5 L4,6 L-1,6 Z " fill="#191919" transform="translate(14,16)"/>
<path d="M0,0 L4,1 L8,4 L5,4 L5,6 L3,5 L4,3 L0,3 Z " fill="#B4B4B4" transform="translate(15,5)"/>
</svg>
