<?xml version="1.0" encoding="UTF-8"?>
<svg version="1.1" xmlns="http://www.w3.org/2000/svg" width="28" height="28">
<path d="M0,0 L28,0 L28,28 L0,28 Z " fill="#020202" transform="translate(0,0)"/>
<path d="M0,0 L8,0 L10,1 L8,5 L7,2 L0,2 L1,5 L5,6 L9,7 L7,9 L8,11 L8,17 L5,20 L-1,20 L-3,19 L-4,14 L0,9 L0,7 L-4,4 L-3,1 Z " fill="#E4E4E4" transform="translate(12,5)"/>
<path d="M0,0 L4,1 L4,6 L2,8 L-3,8 L-4,4 L-2,4 Z " fill="#1B1B1B" transform="translate(14,15)"/>
<path d="M0,0 L8,0 L10,1 L8,5 L7,2 L0,2 L-1,5 L-2,3 L-4,4 L-3,1 Z " fill="#CECECE" transform="translate(12,5)"/>
<path d="M0,0 L7,0 L8,4 L3,5 L0,3 Z " fill="#1C1C1C" transform="translate(12,7)"/>
</svg>
