<?xml version="1.0" encoding="UTF-8"?>
<svg version="1.1" xmlns="http://www.w3.org/2000/svg" width="28" height="28">
<path d="M0,0 L28,0 L28,28 L0,28 Z " fill="#030303" transform="translate(0,0)"/>
<path d="M0,0 L6,0 L7,4 L5,4 L3,8 L0,19 L-1,20 L-8,19 L-9,15 L-4,11 L-3,2 Z " fill="#B3B3B3" transform="translate(16,5)"/>
<path d="M0,0 L2,0 L0,6 L4,6 L4,8 L-2,7 L-3,3 Z " fill="#E6E6E6" transform="translate(10,17)"/>
<path d="M0,0 L4,0 L4,2 L-2,4 L-3,7 L-3,2 Z " fill="#E9E9E9" transform="translate(16,5)"/>
<path d="M0,0 L2,0 L2,5 L-2,5 L-1,1 Z " fill="#1E1E1E" transform="translate(12,18)"/>
</svg>
