<?xml version="1.0" encoding="UTF-8"?>
<svg version="1.1" xmlns="http://www.w3.org/2000/svg" width="28" height="28">
<path d="M0,0 L28,0 L28,28 L0,28 Z " fill="#020202" transform="translate(0,0)"/>
<path d="M0,0 L6,0 L8,2 L7,7 L0,12 L0,18 L-2,20 L-9,20 L-10,15 L-6,10 L-8,10 L-7,6 L-3,1 Z " fill="#DDDDDD" transform="translate(16,5)"/>
<path d="M0,0 L5,0 L3,4 L-2,7 L-6,6 L-6,4 Z " fill="#151515" transform="translate(17,8)"/>
<path d="M0,0 L6,0 L6,1 L1,2 L-3,7 L-5,7 L-6,9 L-7,6 L-3,1 Z " fill="#D5D5D5" transform="translate(16,5)"/>
<path d="M0,0 L2,1 L1,5 L-4,6 L-3,2 Z " fill="#212121" transform="translate(12,18)"/>
</svg>
