<?xml version="1.0" encoding="UTF-8"?>
<svg version="1.1" xmlns="http://www.w3.org/2000/svg" width="28" height="28">
<path d="M0,0 L28,0 L28,28 L0,28 Z " fill="#040404" transform="translate(0,0)"/>
<path d="M0,0 L5,2 L5,7 L3,7 L3,10 L-1,12 L0,15 L2,15 L2,18 L-3,20 L-11,20 L-11,14 L-8,11 L-9,10 L-9,5 L-5,1 Z " fill="#E3E3E3" transform="translate(18,4)"/>
<path d="M0,0 L7,0 L9,1 L9,4 L4,6 L-4,6 Z " fill="#D8D8D8" transform="translate(11,18)"/>
<path d="M0,0 L5,1 L4,5 L2,5 L1,7 L-5,6 L-4,3 Z " fill="#1C1C1C" transform="translate(16,6)"/>
<path d="M0,0 L5,1 L4,4 L-2,4 Z " fill="#151515" transform="translate(11,18)"/>
</svg>
