<?xml version="1.0" encoding="UTF-8"?>
<svg version="1.1" xmlns="http://www.w3.org/2000/svg" width="28" height="28">
<path d="M0,0 L28,0 L28,28 L0,28 Z " fill="#020202" transform="translate(0,0)"/>
<path d="M0,0 L5,1 L5,3 L7,4 L4,4 L4,2 L-7,5 L-7,7 L1,6 L4,5 L4,8 L7,9 L8,13 L5,18 L2,20 L-3,19 L-3,12 L-2,10 L-9,8 L-9,4 Z " fill="#E1E1E1" transform="translate(14,5)"/>
<path d="M0,0 L5,0 L6,4 L4,7 L-2,7 L-1,1 Z " fill="#111111" transform="translate(14,15)"/>
<path d="M0,0 L3,0 L3,2 L5,2 L4,5 L3,3 L-4,6 L-8,5 L-8,3 Z " fill="#222222" transform="translate(15,7)"/>
<path d="M0,0 L1,2 L-2,7 L-5,9 L-10,8 L-9,6 L-3,5 Z " fill="#CDCDCD" transform="translate(21,16)"/>
</svg>
