<?xml version="1.0" encoding="UTF-8"?>
<svg version="1.1" xmlns="http://www.w3.org/2000/svg" width="28" height="28">
<path d="M0,0 L28,0 L28,28 L0,28 Z " fill="#030303" transform="translate(0,0)"/>
<path d="M0,0 L5,0 L7,4 L5,4 L5,2 L1,4 L1,8 L11,7 L11,9 L3,12 L0,20 L-4,19 L-3,12 L-2,9 L-2,3 Z " fill="#EBEBEB" transform="translate(13,5)"/>
<path d="M0,0 L3,1 L1,7 L-3,6 L-3,1 Z " fill="#B6B6B6" transform="translate(12,18)"/>
<path d="M0,0 L5,0 L7,4 L5,4 L5,2 L1,4 L-1,9 L-2,9 L-2,3 Z " fill="#CFCFCF" transform="translate(13,5)"/>
</svg>
