<?xml version="1.0" encoding="UTF-8"?>
<svg version="1.1" xmlns="http://www.w3.org/2000/svg" width="28" height="28">
<path d="M0,0 L28,0 L28,28 L0,28 Z " fill="#030303" transform="translate(0,0)"/>
<path d="M0,0 L5,0 L6,3 L0,3 L1,5 L10,4 L10,6 L2,8 L2,16 L-3,20 L-6,19 L-6,12 L-4,12 L-4,9 L-2,8 L-1,1 Z " fill="#D3D3D3" transform="translate(14,5)"/>
<path d="M0,0 L1,4 L-3,7 L-6,6 L-6,1 L-5,4 L-1,2 Z " fill="#ECECEC" transform="translate(14,18)"/>
<path d="M0,0 L1,0 L1,5 L-3,7 L-2,2 Z " fill="#202020" transform="translate(13,15)"/>
</svg>
