<?xml version="1.0" encoding="UTF-8"?>
<svg version="1.1" xmlns="http://www.w3.org/2000/svg" width="28" height="28">
<path d="M0,0 L28,0 L28,28 L0,28 Z " fill="#040404" transform="translate(0,0)"/>
<path d="M0,0 L8,0 L10,5 L7,8 L5,8 L5,14 L2,17 L-6,18 L-10,16 L-9,12 L-6,6 Z " fill="#E1E1E1" transform="translate(15,5)"/>
<path d="M0,0 L6,0 L6,4 L3,6 L-4,6 L-2,2 Z " fill="#131313" transform="translate(16,7)"/>
<path d="M0,0 L2,0 L1,4 L-6,5 L-8,3 L-5,1 Z " fill="#1B1B1B" transform="translate(16,15)"/>
<path d="M0,0 L2,1 L-1,2 L-1,8 L-3,10 L-8,10 L-4,7 L-3,4 L-5,3 Z " fill="#F5F5F5" transform="translate(21,11)"/>
<path d="M0,0 L5,1 L12,3 L8,5 L2,4 L0,3 Z " fill="#C0C0C0" transform="translate(5,18)"/>
</svg>
