<?xml version="1.0" encoding="UTF-8"?>
<svg version="1.1" xmlns="http://www.w3.org/2000/svg" width="28" height="28">
<path d="M0,0 L28,0 L28,28 L0,28 Z " fill="#020202" transform="translate(0,0)"/>
<path d="M0,0 L6,0 L6,2 L8,2 L7,6 L3,12 L3,18 L2,20 L-3,20 L-6,17 L-5,11 L-2,11 L-2,2 Z " fill="#ECECEC" transform="translate(14,5)"/>
<path d="M0,0 L6,0 L6,2 L8,2 L7,6 L3,8 L0,8 L0,3 Z " fill="#DADADA" transform="translate(14,5)"/>
<path d="M0,0 L1,2 L4,2 L3,8 L-2,8 L-5,5 L-4,2 Z " fill="#E0E0E0" transform="translate(13,17)"/>
<path d="M0,0 L3,1 L2,6 L-1,6 L-1,1 Z " fill="#262626" transform="translate(15,7)"/>
<path d="M0,0 L2,2 L1,6 L-2,5 L-2,1 Z " fill="#2B2B2B" transform="translate(13,17)"/>
</svg>
