<?xml version="1.0" encoding="UTF-8"?>
<svg version="1.1" xmlns="http://www.w3.org/2000/svg" width="28" height="28">
<path d="M0,0 L28,0 L28,28 L0,28 Z " fill="#020202" transform="translate(0,0)"/>
<path d="M0,0 L6,0 L8,5 L7,9 L3,10 L3,19 L-3,20 L-6,18 L-6,13 L-1,10 L-1,1 Z " fill="#C9C9C9" transform="translate(13,5)"/>
<path d="M0,0 L2,0 L2,5 L-1,6 L-3,5 L-2,1 Z " fill="#121212" transform="translate(12,17)"/>
<path d="M0,0 L2,0 L2,7 L1,3 L-6,6 L-4,2 Z " fill="#F0F0F0" transform="translate(14,14)"/>
<path d="M0,0 L4,1 L3,6 L0,5 Z " fill="#1A1A1A" transform="translate(14,7)"/>
</svg>
