<?xml version="1.0" encoding="UTF-8"?>
<svg version="1.1" xmlns="http://www.w3.org/2000/svg" width="28" height="28">
<path d="M0,0 L28,0 L28,28 L0,28 Z " fill="#020202" transform="translate(0,0)"/>
<path d="M0,0 L6,0 L8,1 L7,6 L2,11 L2,18 L-2,20 L-6,20 L-6,18 L-1,16 L-5,14 L-7,11 L-6,5 L-2,1 Z " fill="#E9E9E9" transform="translate(15,5)"/>
<path d="M0,0 L6,0 L8,1 L7,6 L2,10 L-5,10 L-5,7 L-1,4 L2,4 L2,1 Z " fill="#CCCCCC" transform="translate(15,5)"/>
<path d="M0,0 L3,0 L1,4 L-3,7 L-7,7 L-7,4 Z " fill="#1E1E1E" transform="translate(17,8)"/>
<path d="M0,0 L5,0 L5,3 L-1,5 L-1,1 Z " fill="#6D6D6D" transform="translate(9,19)"/>
</svg>
