<?xml version="1.0" encoding="UTF-8"?>
<svg version="1.1" xmlns="http://www.w3.org/2000/svg" width="28" height="28">
<path d="M0,0 L28,0 L28,28 L0,28 Z " fill="#030303" transform="translate(0,0)"/>
<path d="M0,0 L3,1 L3,3 L1,3 L-2,12 L-5,19 L-11,20 L-11,14 L-8,13 L-9,5 L-3,1 Z " fill="#EDEDED" transform="translate(20,4)"/>
<path d="M0,0 L4,0 L4,6 L2,9 L-4,10 L-4,4 Z " fill="#F4F4F4" transform="translate(13,14)"/>
<path d="M0,0 L3,1 L3,3 L1,3 L-1,7 L-3,9 L-7,8 L-3,2 Z " fill="#7F7F7F" transform="translate(20,4)"/>
<path d="M0,0 L1,4 L-1,6 L-1,4 L-5,4 L-6,6 L-7,3 L-4,2 L-1,3 Z " fill="#CDCDCD" transform="translate(18,10)"/>
</svg>
