<?xml version="1.0" encoding="UTF-8"?>
<svg version="1.1" xmlns="http://www.w3.org/2000/svg" width="28" height="28">
<path d="M0,0 L28,0 L28,28 L0,28 Z " fill="#020202" transform="translate(0,0)"/>
<path d="M0,0 L3,0 L1,9 L-2,12 L-4,19 L-5,20 L-10,20 L-12,18 L-12,13 L-7,11 L-8,4 Z " fill="#B6B6B6" transform="translate(19,4)"/>
<path d="M0,0 L3,0 L2,5 L0,6 L0,3 L-2,3 L-2,5 L-5,7 L-8,9 L-8,4 Z " fill="#EEEEEE" transform="translate(19,4)"/>
<path d="M0,0 L2,1 L3,3 L0,5 L-3,7 L-3,2 Z " fill="#D2D2D2" transform="translate(14,6)"/>
</svg>
