<?xml version="1.0" encoding="UTF-8"?>
<svg version="1.1" xmlns="http://www.w3.org/2000/svg" width="28" height="28">
<path d="M0,0 L28,0 L28,28 L0,28 Z " fill="#030303" transform="translate(0,0)"/>
<path d="M0,0 L6,0 L8,2 L7,7 L3,11 L2,18 L0,18 L-1,16 L-2,20 L-7,20 L-7,17 L-3,13 L-4,4 Z " fill="#CACACA" transform="translate(14,4)"/>
<path d="M0,0 L2,0 L1,4 L-1,6 L-2,13 L-4,13 L-5,11 L-6,15 L-11,15 L-11,12 L-7,8 L-5,8 L-3,3 L-1,3 Z " fill="#E2E2E2" transform="translate(18,9)"/>
<path d="M0,0 L4,1 L1,6 L-1,6 L-1,8 L-3,8 L-3,2 Z " fill="#191919" transform="translate(16,6)"/>
</svg>
