<?xml version="1.0" encoding="UTF-8"?>
<svg version="1.1" xmlns="http://www.w3.org/2000/svg" width="28" height="28">
<path d="M0,0 L28,0 L28,28 L0,28 Z " fill="#010101" transform="translate(0,0)"/>
<path d="M0,0 L7,0 L8,3 L2,11 L2,18 L1,20 L-4,20 L-6,18 L-5,14 L-4,10 L-6,8 L-5,4 Z " fill="#D3D3D3" transform="translate(15,5)"/>
<path d="M0,0 L5,0 L3,4 L-2,8 L-4,4 Z " fill="#0A0A0A" transform="translate(15,7)"/>
<path d="M0,0 L2,3 L1,9 L-4,9 L-3,4 L-2,2 L0,2 Z " fill="#7B7B7B" transform="translate(15,16)"/>
<path d="M0,0 L7,0 L5,2 L-3,4 L-2,10 L-6,8 L-5,4 Z " fill="#C9C9C9" transform="translate(15,5)"/>
<path d="M0,0 L4,1 L3,3 L1,3 L-1,9 L-3,8 L-2,4 Z " fill="#EFEFEF" transform="translate(12,15)"/>
</svg>
