<?xml version="1.0" encoding="UTF-8"?>
<svg version="1.1" xmlns="http://www.w3.org/2000/svg" width="28" height="28">
<path d="M0,0 L28,0 L28,28 L0,28 Z " fill="#030303" transform="translate(0,0)"/>
<path d="M0,0 L5,0 L6,3 L3,9 L8,11 L11,13 L9,17 L4,20 L-1,20 L-3,18 L-2,12 L0,8 L-2,5 L-1,1 Z " fill="#DEDEDE" transform="translate(12,4)"/>
<path d="M0,0 L5,2 L7,3 L6,6 L1,8 L-2,7 L-1,2 Z " fill="#111111" transform="translate(13,14)"/>
<path d="M0,0 L5,0 L6,3 L5,6 L0,8 L-2,5 L-1,1 Z " fill="#AAAAAA" transform="translate(12,4)"/>
</svg>
