<?xml version="1.0" encoding="UTF-8"?>
<svg version="1.1" xmlns="http://www.w3.org/2000/svg" width="28" height="28">
<path d="M0,0 L28,0 L28,28 L0,28 Z " fill="#020202" transform="translate(0,0)"/>
<path d="M0,0 L11,1 L11,7 L6,8 L9,14 L8,19 L3,20 L-1,16 L0,8 L-5,4 L-4,1 Z " fill="#E6E6E6" transform="translate(11,6)"/>
<path d="M0,0 L11,1 L11,7 L5,9 L5,7 L3,6 L8,4 L0,3 L0,5 L2,6 L-1,7 L-5,4 L-4,1 Z " fill="#F2F2F2" transform="translate(11,6)"/>
<path d="M0,0 L2,0 L2,4 L7,5 L7,2 L10,2 L9,7 L4,8 L0,4 Z " fill="#E9E9E9" transform="translate(10,18)"/>
<path d="M0,0 L1,4 L1,6 L-5,8 L-5,6 L-7,5 L-1,2 Z " fill="#DCDCDC" transform="translate(21,7)"/>
<path d="M0,0 L9,0 L6,3 L0,2 Z " fill="#171717" transform="translate(11,9)"/>
<path d="M0,0 L2,0 L3,6 L-1,5 Z " fill="#232323" transform="translate(14,17)"/>
</svg>
