<?xml version="1.0" encoding="UTF-8"?>
<svg version="1.1" xmlns="http://www.w3.org/2000/svg" width="28" height="28">
<path d="M0,0 L28,0 L28,28 L0,28 Z " fill="#020202" transform="translate(0,0)"/>
<path d="M0,0 L7,0 L8,1 L8,6 L3,11 L4,12 L4,17 L1,20 L-6,20 L-7,15 L-5,10 L-7,5 Z " fill="#D8D8D8" transform="translate(15,5)"/>
<path d="M0,0 L7,0 L8,1 L8,6 L6,7 L4,5 L5,4 L0,4 L-2,1 Z " fill="#E1E1E1" transform="translate(15,5)"/>
<path d="M0,0 L5,1 L1,4 L-3,5 L-4,2 Z " fill="#141414" transform="translate(16,8)"/>
</svg>
