<?xml version="1.0" encoding="UTF-8"?>
<svg version="1.1" xmlns="http://www.w3.org/2000/svg" width="28" height="28">
<path d="M0,0 L28,0 L28,28 L0,28 Z " fill="#020202" transform="translate(0,0)"/>
<path d="M0,0 L5,1 L3,8 L6,12 L6,18 L4,20 L-2,19 L-4,17 L-4,12 L-3,11 L-6,9 L-6,4 L-4,2 L0,2 Z " fill="#ACACAC" transform="translate(14,5)"/>
<path d="M0,0 L5,1 L3,8 L6,12 L6,18 L4,14 L2,10 L-1,10 L1,6 L3,2 L-4,5 L-5,8 L-3,9 L-6,9 L-6,4 L-4,2 L0,2 Z " fill="#CCCCCC" transform="translate(14,5)"/>
<path d="M0,0 L4,2 L5,9 L-2,8 L-2,3 Z " fill="#0A0A0A" transform="translate(14,14)"/>
<path d="M0,0 L2,0 L0,5 L-1,6 L-6,6 L-5,2 Z " fill="#111111" transform="translate(15,7)"/>
</svg>
