<?xml version="1.0" encoding="UTF-8"?>
<svg version="1.1" xmlns="http://www.w3.org/2000/svg" width="28" height="28">
<path d="M0,0 L28,0 L28,28 L0,28 Z " fill="#010101" transform="translate(0,0)"/>
<path d="M0,0 L5,2 L3,7 L4,12 L5,19 L1,20 L-2,17 L-3,8 L-4,4 L-3,6 L1,5 L2,3 L-1,1 Z " fill="#F1F1F1" transform="translate(14,5)"/>
<path d="M0,0 L5,5 L7,7 L7,11 L3,12 L0,9 Z " fill="#8F8F8F" transform="translate(12,13)"/>
<path d="M0,0 L5,2 L2,7 L-2,7 L-3,3 Z " fill="#6E6E6E" transform="translate(12,5)"/>
<path d="M0,0 L5,2 L3,7 L1,9 L0,6 L2,3 L-1,1 Z " fill="#CFCFCF" transform="translate(14,5)"/>
</svg>
