<?xml version="1.0" encoding="UTF-8"?>
<svg version="1.1" xmlns="http://www.w3.org/2000/svg" width="28" height="28">
<path d="M0,0 L28,0 L28,28 L0,28 Z " fill="#010101" transform="translate(0,0)"/>
<path d="M0,0 L2,0 L0,6 L-4,10 L-4,18 L-7,20 L-12,19 L-12,14 L-10,12 L-11,5 L-10,4 L-2,3 Z " fill="#D8D8D8" transform="translate(21,4)"/>
<path d="M0,0 L3,0 L6,0 L7,0 L7,5 L4,7 L-1,6 L-1,1 Z " fill="#969696" transform="translate(10,17)"/>
<path d="M0,0 L5,0 L6,3 L2,7 L0,4 Z " fill="#848484" transform="translate(13,9)"/>
<path d="M0,0 L2,0 L3,7 L0,4 L-2,5 L-2,2 L0,2 Z " fill="#F0F0F0" transform="translate(13,14)"/>
</svg>
