<?xml version="1.0" encoding="UTF-8"?>
<svg version="1.1" xmlns="http://www.w3.org/2000/svg" width="28" height="28">
<path d="M0,0 L28,0 L28,28 L0,28 Z " fill="#030303" transform="translate(0,0)"/>
<path d="M0,0 L1,0 L0,7 L-3,10 L-5,10 L-5,18 L-7,20 L-13,20 L-14,15 L-9,11 L-11,5 L-9,2 L-3,2 L-1,3 Z " fill="#E9E9E9" transform="translate(21,4)"/>
<path d="M0,0 L6,0 L8,2 L7,4 L4,4 L3,7 L-2,5 Z " fill="#989898" transform="translate(12,6)"/>
<path d="M0,0 L4,1 L3,5 L-2,6 L-3,3 Z " fill="#9A9A9A" transform="translate(10,16)"/>
</svg>
