<?xml version="1.0" encoding="UTF-8"?>
<svg version="1.1" xmlns="http://www.w3.org/2000/svg" width="28" height="28">
<path d="M0,0 L28,0 L28,28 L0,28 Z " fill="#020202" transform="translate(0,0)"/>
<path d="M0,0 L9,0 L13,4 L12,8 L10,12 L9,18 L6,20 L-1,20 L-1,14 L2,11 L4,11 L-1,5 Z " fill="#E0E0E0" transform="translate(9,5)"/>
<path d="M0,0 L7,0 L11,4 L10,8 L7,8 L6,4 L0,1 Z " fill="#EBEBEB" transform="translate(11,5)"/>
<path d="M0,0 L2,1 L-1,7 L3,7 L3,9 L-3,9 L-3,3 Z " fill="#EEEEEE" transform="translate(11,16)"/>
<path d="M0,0 L5,0 L8,3 L8,5 L4,6 L0,1 Z " fill="#0B0B0B" transform="translate(11,7)"/>
<path d="M0,0 L4,1 L4,3 L-2,4 Z " fill="#151515" transform="translate(13,18)"/>
</svg>
