<?xml version="1.0" encoding="UTF-8"?>
<svg version="1.1" xmlns="http://www.w3.org/2000/svg" width="28" height="28">
<path d="M0,0 L28,0 L28,28 L0,28 Z " fill="#020202" transform="translate(0,0)"/>
<path d="M0,0 L8,0 L11,6 L7,9 L9,12 L8,18 L5,20 L-1,19 L-3,17 L-2,12 L0,8 L-4,7 L-5,3 Z " fill="#E1E1E1" transform="translate(11,5)"/>
<path d="M0,0 L4,1 L5,6 L-2,7 L-2,2 Z " fill="#161616" transform="translate(13,15)"/>
<path d="M0,0 L5,1 L6,3 L2,5 L-3,4 L-2,1 Z " fill="#1A1A1A" transform="translate(13,7)"/>
<path d="M0,0 L3,1 L3,4 L7,5 L8,7 L2,6 L0,4 Z " fill="#C0C0C0" transform="translate(8,18)"/>
</svg>
