<?xml version="1.0" encoding="UTF-8"?>
<svg version="1.1" xmlns="http://www.w3.org/2000/svg" width="28" height="28">
<path d="M0,0 L28,0 L28,28 L0,28 Z " fill="#020202" transform="translate(0,0)"/>
<path d="M0,0 L2,0 L2,7 L1,11 L2,12 L2,20 L-4,19 L-4,10 L-5,9 L-5,4 Z " fill="#F0F0F0" transform="translate(15,5)"/>
<path d="M0,0 L2,1 L6,0 L6,8 L0,7 Z " fill="#B6B6B6" transform="translate(11,17)"/>
<path d="M0,0 L2,0 L2,7 L-1,6 L-1,8 L-3,8 L-3,5 L-5,6 L-4,3 Z " fill="#C5C5C5" transform="translate(15,5)"/>
</svg>
