<?xml version="1.0" encoding="UTF-8"?>
<svg version="1.1" xmlns="http://www.w3.org/2000/svg" width="28" height="28">
<path d="M0,0 L28,0 L28,28 L0,28 Z " fill="#030303" transform="translate(0,0)"/>
<path d="M0,0 L6,1 L8,4 L2,2 L4,8 L15,6 L15,8 L11,10 L7,10 L8,17 L6,18 L0,18 L-5,15 L-4,11 L2,9 L0,4 Z " fill="#DFDFDF" transform="translate(11,5)"/>
<path d="M0,0 L4,0 L5,5 L-3,4 L-3,1 Z " fill="#101010" transform="translate(12,16)"/>
<path d="M0,0 L2,2 L2,6 L0,7 L-6,7 L-8,5 L-5,4 L0,5 L-1,1 Z " fill="#C1C1C1" transform="translate(17,16)"/>
<path d="M0,0 L2,0 L2,2 L-4,4 L-8,2 Z " fill="#CDCDCD" transform="translate(24,11)"/>
</svg>
