<?xml version="1.0" encoding="UTF-8"?>
<svg version="1.1" xmlns="http://www.w3.org/2000/svg" width="28" height="28">
<path d="M0,0 L28,0 L28,28 L0,28 Z " fill="#030303" transform="translate(0,0)"/>
<path d="M0,0 L2,1 L0,9 L1,17 L-4,20 L-8,19 L-7,14 L-6,12 L-11,9 L-12,5 L-5,1 Z " fill="#ECECEC" transform="translate(19,5)"/>
<path d="M0,0 L2,1 L0,9 L-2,11 L-2,4 L-8,6 L-5,10 L-8,11 L-12,7 L-11,4 L-5,1 Z " fill="#D4D4D4" transform="translate(19,5)"/>
<path d="M0,0 L3,0 L2,6 L-3,4 L-3,1 Z " fill="#181818" transform="translate(14,9)"/>
<path d="M0,0 L2,1 L0,9 L-2,11 L-2,5 L-1,3 L-4,2 Z " fill="#F4F4F4" transform="translate(19,5)"/>
<path d="M0,0 L4,1 L3,5 L-1,4 Z " fill="#A1A1A1" transform="translate(15,19)"/>
</svg>
