<?xml version="1.0" encoding="UTF-8"?>
<svg version="1.1" xmlns="http://www.w3.org/2000/svg" width="28" height="28">
<path d="M0,0 L28,0 L28,28 L0,28 Z " fill="#020202" transform="translate(0,0)"/>
<path d="M0,0 L6,0 L7,6 L4,9 L3,18 L1,20 L-4,19 L-3,14 L-2,10 L-3,3 Z " fill="#E2E2E2" transform="translate(13,5)"/>
<path d="M0,0 L6,0 L7,6 L3,9 L3,6 L5,2 L-1,4 L-1,1 Z " fill="#D9D9D9" transform="translate(13,5)"/>
<path d="M0,0 L4,0 L2,5 L-1,7 L-2,2 Z " fill="#131313" transform="translate(14,7)"/>
<path d="M0,0 L2,1 L1,7 L-4,6 L-4,3 L-1,2 Z " fill="#828282" transform="translate(13,18)"/>
</svg>
