<?xml version="1.0" encoding="UTF-8"?>
<svg version="1.1" xmlns="http://www.w3.org/2000/svg" width="28" height="28">
<path d="M0,0 L28,0 L28,28 L0,28 Z " fill="#020202" transform="translate(0,0)"/>
<path d="M0,0 L6,1 L8,3 L7,9 L9,11 L9,16 L5,20 L-2,19 L-3,14 L0,11 L3,11 L3,13 L0,14 L0,17 L6,16 L6,10 L-4,10 L-5,5 Z " fill="#CACACA" transform="translate(13,5)"/>
<path d="M0,0 L3,0 L3,2 L0,3 L0,6 L6,5 L8,4 L6,8 L5,9 L-2,8 L-3,3 Z " fill="#D7D7D7" transform="translate(13,16)"/>
<path d="M0,0 L2,0 L2,3 L4,3 L4,1 L6,1 L6,4 L2,6 L-3,6 L-1,1 Z " fill="#161616" transform="translate(13,7)"/>
<path d="M0,0 L5,1 L2,3 L-1,4 L-4,7 L-3,2 Z " fill="#E8E8E8" transform="translate(13,5)"/>
<path d="M0,0 L4,4 L4,9 L2,8 L1,3 L-4,3 L0,2 Z " fill="#A5A5A5" transform="translate(18,12)"/>
</svg>
