<?xml version="1.0" encoding="UTF-8"?>
<svg version="1.1" xmlns="http://www.w3.org/2000/svg" width="28" height="28">
<path d="M0,0 L28,0 L28,28 L0,28 Z " fill="#020202" transform="translate(0,0)"/>
<path d="M0,0 L6,0 L12,2 L7,6 L4,9 L5,18 L3,20 L-2,19 L-2,13 L-1,8 L-2,7 L-2,2 Z " fill="#E3E3E3" transform="translate(12,5)"/>
<path d="M0,0 L6,0 L12,2 L7,6 L3,8 L-2,7 L-2,2 Z " fill="#D8D8D8" transform="translate(12,5)"/>
<path d="M0,0 L1,3 L3,3 L3,9 L-2,10 L-2,4 Z " fill="#747474" transform="translate(12,14)"/>
<path d="M0,0 L6,0 L4,4 L3,6 L1,6 Z " fill="#101010" transform="translate(12,7)"/>
</svg>
