<?xml version="1.0" encoding="UTF-8"?>
<svg version="1.1" xmlns="http://www.w3.org/2000/svg" width="28" height="28">
<path d="M0,0 L28,0 L28,28 L0,28 Z " fill="#020202" transform="translate(0,0)"/>
<path d="M0,0 L6,1 L7,4 L3,8 L2,16 L-3,20 L-7,20 L-7,15 L-2,9 L-2,2 Z " fill="#D5D5D5" transform="translate(15,5)"/>
<path d="M0,0 L6,1 L5,4 L1,6 L-1,5 L-2,7 L-2,2 Z " fill="#8B8B8B" transform="translate(15,5)"/>
<path d="M0,0 L2,0 L0,5 L-2,6 L-3,12 L-5,8 L-6,3 L0,2 Z M-5,6 Z " fill="#E3E3E3" transform="translate(20,7)"/>
<path d="M0,0 L1,0 L1,5 L-4,7 L-3,3 Z " fill="#171717" transform="translate(14,16)"/>
</svg>
