<?xml version="1.0" encoding="UTF-8"?>
<svg version="1.1" xmlns="http://www.w3.org/2000/svg" width="28" height="28">
<path d="M0,0 L28,0 L28,28 L0,28 Z " fill="#040404" transform="translate(0,0)"/>
<path d="M0,0 L6,0 L7,4 L3,3 L4,5 L9,5 L9,9 L8,14 L2,19 L-5,20 L-6,15 L-2,10 L2,7 L0,5 Z " fill="#DEDEDE" transform="translate(12,4)"/>
<path d="M0,0 L3,1 L1,6 L-4,8 L-8,7 L-3,2 Z " fill="#101010" transform="translate(16,13)"/>
<path d="M0,0 L2,0 L0,4 L-5,6 L-10,5 L-9,3 L0,2 Z " fill="#C4C4C4" transform="translate(17,17)"/>
</svg>
