<?xml version="1.0" encoding="UTF-8"?>
<svg version="1.1" xmlns="http://www.w3.org/2000/svg" width="28" height="28">
<path d="M0,0 L28,0 L28,28 L0,28 Z " fill="#030303" transform="translate(0,0)"/>
<path d="M0,0 L1,3 L-4,5 L-5,8 L0,9 L4,7 L4,5 L2,5 L2,3 L6,5 L8,12 L8,17 L3,19 L-8,20 L-11,17 L-10,12 L-6,4 Z " fill="#E4E4E4" transform="translate(16,3)"/>
<path d="M0,0 L1,3 L-4,5 L-5,8 L-1,10 L-7,12 L5,12 L6,15 L-1,17 L-10,18 L-11,14 L-6,4 Z " fill="#BEBEBE" transform="translate(16,3)"/>
<path d="M0,0 L4,1 L4,3 L-3,5 L-10,5 L-9,1 Z " fill="#111111" transform="translate(18,15)"/>
<path d="M0,0 L1,0 L1,5 L-4,7 L-8,4 L-1,3 Z " fill="#C8C8C8" transform="translate(23,15)"/>
<path d="M0,0 L1,3 L-4,5 L-5,8 L-7,8 L-5,3 Z " fill="#DFDFDF" transform="translate(16,3)"/>
</svg>
