<?xml version="1.0" encoding="UTF-8"?>
<svg version="1.1" xmlns="http://www.w3.org/2000/svg" width="28" height="28">
<path d="M0,0 L28,0 L28,28 L0,28 Z " fill="#020202" transform="translate(0,0)"/>
<path d="M0,0 L7,0 L9,10 L5,16 L0,20 L-5,19 L-3,5 Z " fill="#DFDFDF" transform="translate(13,5)"/>
<path d="M0,0 L1,2 L1,3 L3,2 L3,5 L5,6 L4,11 L-2,17 L-5,17 L-3,11 L0,10 L1,8 L-4,8 L-1,1 Z " fill="#131313" transform="translate(15,6)"/>
<path d="M0,0 L1,2 L1,3 L3,2 L3,5 L5,7 L1,9 L-4,8 L-1,1 Z " fill="#6D6D6D" transform="translate(15,6)"/>
</svg>
