<?xml version="1.0" encoding="UTF-8"?>
<svg version="1.1" xmlns="http://www.w3.org/2000/svg" width="28" height="28">
<path d="M0,0 L28,0 L28,28 L0,28 Z " fill="#020202" transform="translate(0,0)"/>
<path d="M0,0 L6,0 L10,2 L11,6 L10,8 L8,8 L11,12 L9,18 L5,20 L-1,19 L-3,17 L-2,12 L1,9 L-2,6 L-1,1 Z " fill="#C9C9C9" transform="translate(10,5)"/>
<path d="M0,0 L5,0 L7,4 L4,9 L-3,10 L-7,7 L-6,2 L-2,1 Z " fill="#CDCDCD" transform="translate(14,15)"/>
<path d="M0,0 L6,2 L7,6 L6,8 L4,8 L4,11 L-2,12 L-5,12 L-3,7 L3,6 L2,3 L0,2 Z " fill="#D7D7D7" transform="translate(14,5)"/>
<path d="M0,0 L4,2 L3,7 L-4,7 L-3,2 Z " fill="#060606" transform="translate(14,15)"/>
<path d="M0,0 L5,0 L7,4 L3,5 L0,3 Z " fill="#181818" transform="translate(11,7)"/>
<path d="M0,0 L7,1 L7,4 L1,5 L-2,5 Z " fill="#F1F1F1" transform="translate(11,12)"/>
<path d="M0,0 L2,0 L2,5 L8,5 L8,6 L1,7 L-1,5 Z " fill="#B6B6B6" transform="translate(8,17)"/>
</svg>
