<?xml version="1.0" encoding="UTF-8"?>
<svg version="1.1" xmlns="http://www.w3.org/2000/svg" width="28" height="28">
<path d="M0,0 L28,0 L28,28 L0,28 Z " fill="#010101" transform="translate(0,0)"/>
<path d="M0,0 L5,0 L6,5 L8,5 L6,9 L7,14 L8,19 L7,20 L2,20 L0,18 L1,9 L-2,5 L-2,1 Z " fill="#B1B1B1" transform="translate(11,5)"/>
<path d="M0,0 L3,1 L4,6 L0,8 L-3,3 L-3,1 Z " fill="#141414" transform="translate(13,6)"/>
<path d="M0,0 L3,1 L4,7 L0,6 Z " fill="#020202" transform="translate(13,17)"/>
</svg>
