<?xml version="1.0" encoding="UTF-8"?>
<svg version="1.1" xmlns="http://www.w3.org/2000/svg" width="28" height="28">
<path d="M0,0 L28,0 L28,28 L0,28 Z " fill="#020202" transform="translate(0,0)"/>
<path d="M0,0 L5,0 L8,3 L9,10 L11,13 L11,18 L9,20 L3,20 L-2,17 L-3,4 Z " fill="#B8B8B8" transform="translate(11,5)"/>
<path d="M0,0 L2,0 L4,4 L4,9 L-3,9 L-6,6 L-5,1 Z " fill="#070707" transform="translate(16,14)"/>
<path d="M0,0 L5,0 L5,2 L-2,4 L-4,8 L-3,1 Z " fill="#E3E3E3" transform="translate(13,12)"/>
<path d="M0,0 L4,3 L4,5 L-4,5 L-3,1 L-2,3 L0,3 Z " fill="#171717" transform="translate(14,7)"/>
<path d="M0,0 L5,0 L8,3 L7,7 L4,3 L-1,2 Z " fill="#DADADA" transform="translate(11,5)"/>
</svg>
