<?xml version="1.0" encoding="UTF-8"?>
<svg version="1.1" xmlns="http://www.w3.org/2000/svg" width="28" height="28">
<path d="M0,0 L28,0 L28,28 L0,28 Z " fill="#030303" transform="translate(0,0)"/>
<path d="M0,0 L6,0 L9,3 L7,8 L4,9 L7,15 L6,19 L0,20 L-2,18 L-1,11 L-4,8 L-4,3 Z " fill="#E1E1E1" transform="translate(12,5)"/>
<path d="M0,0 L4,1 L5,5 L2,7 L-2,6 L-3,2 Z " fill="#1B1B1B" transform="translate(13,7)"/>
<path d="M0,0 L2,0 L4,5 L-1,6 L-2,2 Z " fill="#111111" transform="translate(13,17)"/>
</svg>
