<?xml version="1.0" encoding="UTF-8"?>
<svg version="1.1" xmlns="http://www.w3.org/2000/svg" width="28" height="28">
<path d="M0,0 L28,0 L28,28 L0,28 Z " fill="#030303" transform="translate(0,0)"/>
<path d="M0,0 L8,0 L11,4 L10,9 L6,10 L8,14 L7,19 L6,20 L0,20 L-2,16 L2,10 L-2,9 L-3,8 L-3,3 Z " fill="#E0E0E0" transform="translate(11,5)"/>
<path d="M0,0 L6,0 L8,2 L7,6 L2,8 L-2,6 L-1,1 Z " fill="#0F0F0F" transform="translate(12,7)"/>
<path d="M0,0 L3,1 L2,5 L-3,5 L-2,1 Z " fill="#1D1D1D" transform="translate(14,18)"/>
</svg>
