<?xml version="1.0" encoding="UTF-8"?>
<svg version="1.1" xmlns="http://www.w3.org/2000/svg" width="28" height="28">
<path d="M0,0 L28,0 L28,28 L0,28 Z " fill="#020202" transform="translate(0,0)"/>
<path d="M0,0 L6,0 L6,2 L8,2 L6,8 L9,9 L10,16 L7,19 L-2,20 L-4,18 L-3,11 L-1,7 L-6,7 L-6,2 Z " fill="#D9D9D9" transform="translate(13,5)"/>
<path d="M0,0 L3,1 L4,6 L1,9 L-4,9 L-4,4 Z " fill="#131313" transform="translate(16,14)"/>
<path d="M0,0 L1,0 L1,6 L7,6 L5,8 L0,8 L-2,6 L-2,1 Z " fill="#E4E4E4" transform="translate(11,17)"/>
<path d="M0,0 L2,1 L0,3 L-3,3 L-3,6 L0,7 L-6,7 L-6,2 Z " fill="#E9E9E9" transform="translate(13,5)"/>
<path d="M0,0 L5,0 L3,4 L-3,3 L-3,1 Z " fill="#181818" transform="translate(13,7)"/>
</svg>
