<?xml version="1.0" encoding="UTF-8"?>
<svg version="1.1" xmlns="http://www.w3.org/2000/svg" width="28" height="28">
<path d="M0,0 L28,0 L28,28 L0,28 Z " fill="#040404" transform="translate(0,0)"/>
<path d="M0,0 L3,0 L2,4 L-2,8 L2,6 L7,3 L13,3 L9,6 L4,9 L2,9 L2,11 L6,12 L7,17 L4,20 L-3,19 L-4,18 L-4,10 L-5,6 Z " fill="#EBEBEB" transform="translate(13,5)"/>
<path d="M0,0 L4,1 L5,6 L4,8 L-4,6 L-3,1 Z " fill="#C4C4C4" transform="translate(15,16)"/>
<path d="M0,0 L3,0 L2,4 L-3,6 L-3,3 Z " fill="#D8D8D8" transform="translate(13,5)"/>
<path d="M0,0 L5,1 L5,4 L-1,4 Z " fill="#151515" transform="translate(12,18)"/>
</svg>
