<?xml version="1.0" encoding="UTF-8"?>
<svg version="1.1" xmlns="http://www.w3.org/2000/svg" width="28" height="28">
<path d="M0,0 L28,0 L28,28 L0,28 Z " fill="#020202" transform="translate(0,0)"/>
<path d="M0,0 L7,0 L9,4 L5,9 L6,19 L1,20 L-4,18 L-4,14 L-1,9 L-4,5 L-3,1 Z " fill="#BDBDBD" transform="translate(13,5)"/>
<path d="M0,0 L7,0 L9,4 L8,6 L6,6 L6,3 L-1,3 L0,6 L-2,8 L-4,5 L-3,1 Z " fill="#E6E6E6" transform="translate(13,5)"/>
<path d="M0,0 L3,1 L2,6 L-3,5 L0,4 Z " fill="#F6F6F6" transform="translate(16,19)"/>
<path d="M0,0 L2,0 L3,5 L-2,4 L-2,2 L0,2 Z " fill="#191919" transform="translate(13,17)"/>
</svg>
