<?xml version="1.0" encoding="UTF-8"?>
<svg version="1.1" xmlns="http://www.w3.org/2000/svg" width="28" height="28">
<path d="M0,0 L28,0 L28,28 L0,28 Z " fill="#020202" transform="translate(0,0)"/>
<path d="M0,0 L4,1 L3,3 L0,4 L1,7 L6,3 L10,4 L5,8 L2,9 L3,17 L1,20 L-5,20 L-8,17 L-7,13 L-4,10 L-3,2 Z " fill="#E8E8E8" transform="translate(15,4)"/>
<path d="M0,0 L3,4 L8,0 L12,1 L7,5 L4,6 L4,12 L1,11 L0,8 Z " fill="#ECECEC" transform="translate(13,7)"/>
<path d="M0,0 L4,2 L5,5 L3,8 L-3,8 L-3,5 L-3,2 Z " fill="#DCDCDC" transform="translate(13,16)"/>
<path d="M0,0 L4,1 L3,3 L-1,4 L-2,10 L-3,10 L-3,2 Z " fill="#BEBEBE" transform="translate(15,4)"/>
<path d="M0,0 L4,2 L0,6 L-2,5 L-1,1 Z " fill="#1B1B1B" transform="translate(16,6)"/>
<path d="M0,0 L2,2 L2,5 L-3,5 L-3,2 Z " fill="#0F0F0F" transform="translate(13,16)"/>
</svg>
