<?xml version="1.0" encoding="UTF-8"?>
<svg version="1.1" xmlns="http://www.w3.org/2000/svg" width="28" height="28">
<path d="M0,0 L28,0 L28,28 L0,28 Z " fill="#020202" transform="translate(0,0)"/>
<path d="M0,0 L4,1 L4,3 L7,4 L7,10 L8,11 L8,17 L4,20 L-1,20 L-4,18 L-4,12 L-4,8 L-3,3 Z " fill="#D5D5D5" transform="translate(13,5)"/>
<path d="M0,0 L6,0 L7,6 L5,8 L-1,8 L-2,7 L-2,2 Z " fill="#111111" transform="translate(13,15)"/>
<path d="M0,0 L1,2 L0,4 L4,3 L4,7 L-3,7 L-2,2 Z " fill="#141414" transform="translate(14,6)"/>
</svg>
