<?xml version="1.0" encoding="UTF-8"?>
<svg version="1.1" xmlns="http://www.w3.org/2000/svg" width="28" height="28">
<path d="M0,0 L28,0 L28,28 L0,28 Z " fill="#030303" transform="translate(0,0)"/>
<path d="M0,0 L3,0 L3,2 L5,3 L1,5 L2,11 L7,13 L9,15 L9,20 L6,20 L6,15 L0,13 L-1,20 L-3,20 L-3,14 L-10,13 L-11,8 L-2,1 Z " fill="#CBCBCB" transform="translate(15,4)"/>
<path d="M0,0 L3,0 L3,2 L5,3 L0,3 L-3,4 L-4,7 L-8,8 L-7,12 L-11,12 L-10,7 Z " fill="#E2E2E2" transform="translate(15,4)"/>
<path d="M0,0 L2,1 L0,3 L-1,8 L-6,7 L-5,4 Z " fill="#080808" transform="translate(14,7)"/>
<path d="M0,0 L4,2 L5,3 L5,8 L2,8 L2,3 L-2,1 Z " fill="#EAEAEA" transform="translate(19,16)"/>
</svg>
