<?xml version="1.0" encoding="UTF-8"?>
<svg version="1.1" xmlns="http://www.w3.org/2000/svg" width="28" height="28">
<path d="M0,0 L28,0 L28,28 L0,28 Z " fill="#030303" transform="translate(0,0)"/>
<path d="M0,0 L7,0 L7,2 L-3,4 L-1,7 L4,5 L7,4 L5,8 L2,11 L1,16 L-2,20 L-7,19 L-8,14 L-4,10 L-5,7 L-7,6 L-5,2 Z " fill="#EAEAEA" transform="translate(16,5)"/>
<path d="M0,0 L5,0 L4,3 L-1,6 L-5,4 L-5,2 Z " fill="#2A2A2A" transform="translate(18,7)"/>
<path d="M0,0 L2,0 L3,6 L1,8 L-3,7 L-1,6 L-2,2 Z " fill="#868686" transform="translate(13,17)"/>
</svg>
