<?xml version="1.0" encoding="UTF-8"?>
<svg version="1.1" xmlns="http://www.w3.org/2000/svg" width="28" height="28">
<path d="M0,0 L28,0 L28,28 L0,28 Z " fill="#020202" transform="translate(0,0)"/>
<path d="M0,0 L4,1 L6,6 L-3,13 L-5,14 L-7,20 L-14,20 L-13,16 L-10,14 L-9,7 L-2,1 Z " fill="#F4F4F4" transform="translate(19,5)"/>
<path d="M0,0 L4,1 L6,6 L-3,13 L-7,11 L-1,8 L1,6 L1,3 L-6,7 L-6,4 Z " fill="#E1E1E1" transform="translate(19,5)"/>
<path d="M0,0 L1,4 L-5,9 L-8,9 L-7,5 L-2,1 Z " fill="#111111" transform="translate(20,7)"/>
<path d="M0,0 L4,0 L4,3 L6,4 L5,5 L-2,5 L-1,1 Z " fill="#A3A3A3" transform="translate(7,20)"/>
</svg>
