<?xml version="1.0" encoding="UTF-8"?>
<svg version="1.1" xmlns="http://www.w3.org/2000/svg" width="28" height="28">
<path d="M0,0 L28,0 L28,28 L0,28 Z " fill="#030303" transform="translate(0,0)"/>
<path d="M0,0 L10,1 L13,4 L11,8 L7,12 L4,13 L0,19 L-5,18 L-7,15 L-6,13 L-2,12 L-2,3 Z " fill="#E3E3E3" transform="translate(12,5)"/>
<path d="M0,0 L9,2 L8,7 L3,10 L-2,10 L-2,3 Z " fill="#D8D8D8" transform="translate(12,5)"/>
<path d="M0,0 L8,0 L7,3 L2,6 L0,6 Z " fill="#0E0E0E" transform="translate(13,9)"/>
</svg>
