<?xml version="1.0" encoding="UTF-8"?>
<svg version="1.1" xmlns="http://www.w3.org/2000/svg" width="28" height="28">
<path d="M0,0 L28,0 L28,28 L0,28 Z " fill="#030303" transform="translate(0,0)"/>
<path d="M0,0 L3,0 L2,4 L2,2 L0,3 L0,6 L6,8 L12,9 L12,10 L7,10 L9,14 L8,18 L5,20 L0,19 L-1,15 L2,10 L-4,6 L-3,2 Z " fill="#EFEFEF" transform="translate(11,4)"/>
<path d="M0,0 L3,0 L2,4 L2,2 L0,3 L0,6 L2,8 L0,9 L-4,6 L-3,2 Z " fill="#DFDFDF" transform="translate(11,4)"/>
<path d="M0,0 L4,2 L2,6 L-2,5 Z " fill="#242424" transform="translate(14,16)"/>
<path d="M0,0 L2,3 L5,4 L5,6 L0,5 L-1,1 Z M5,3 Z " fill="#D4D4D4" transform="translate(11,18)"/>
</svg>
