<?xml version="1.0" encoding="UTF-8"?>
<svg version="1.1" xmlns="http://www.w3.org/2000/svg" width="28" height="28">
<path d="M0,0 L28,0 L28,28 L0,28 Z " fill="#040404" transform="translate(0,0)"/>
<path d="M0,0 L3,0 L3,2 L7,3 L3,7 L-3,9 L0,13 L0,17 L-7,18 L-8,11 L-13,8 L-12,4 L-4,1 Z " fill="#DBDBDB" transform="translate(18,6)"/>
<path d="M0,0 L2,0 L2,2 L4,3 L-4,7 L-10,6 L-9,3 Z " fill="#171717" transform="translate(17,8)"/>
<path d="M0,0 L2,1 L5,4 L5,7 L0,9 L-1,2 Z " fill="#7A7A7A" transform="translate(11,15)"/>
</svg>
