<?xml version="1.0" encoding="UTF-8"?>
<svg version="1.1" xmlns="http://www.w3.org/2000/svg" width="28" height="28">
<path d="M0,0 L28,0 L28,28 L0,28 Z " fill="#020202" transform="translate(0,0)"/>
<path d="M0,0 L7,2 L11,1 L11,4 L4,9 L6,18 L3,20 L-2,20 L-5,16 L-4,11 L-2,8 L-2,2 Z " fill="#DADADA" transform="translate(13,5)"/>
<path d="M0,0 L2,0 L3,4 L0,6 L-3,6 L-3,4 L-1,3 Z " fill="#F3F3F3" transform="translate(16,19)"/>
<path d="M0,0 L2,0 L3,5 L-1,5 Z " fill="#181818" transform="translate(13,17)"/>
</svg>
