<?xml version="1.0" encoding="UTF-8"?>
<svg version="1.1" xmlns="http://www.w3.org/2000/svg" width="28" height="28">
<path d="M0,0 L28,0 L28,28 L0,28 Z " fill="#030303" transform="translate(0,0)"/>
<path d="M0,0 L3,0 L1,4 L-1,5 L-1,7 L5,5 L8,4 L8,2 L14,0 L12,4 L5,9 L3,9 L5,13 L5,18 L3,20 L-2,20 L-5,16 L-4,11 L-2,8 L-6,7 L-4,3 Z " fill="#E4E4E4" transform="translate(13,5)"/>
<path d="M0,0 L2,0 L3,7 L1,9 L-4,9 L-7,5 L-6,1 L-4,3 Z " fill="#DADADA" transform="translate(15,16)"/>
<path d="M0,0 L2,0 L2,5 L-2,5 L-1,1 Z " fill="#0B0B0B" transform="translate(13,17)"/>
</svg>
