<?xml version="1.0" encoding="UTF-8"?>
<svg version="1.1" xmlns="http://www.w3.org/2000/svg" width="28" height="28">
<path d="M0,0 L28,0 L28,28 L0,28 Z " fill="#010101" transform="translate(0,0)"/>
<path d="M0,0 L10,0 L7,3 L2,6 L0,6 L0,11 L-2,11 L-3,14 L-9,16 L-10,13 L-4,6 L-1,1 Z " fill="#E2E2E2" transform="translate(16,7)"/>
<path d="M0,0 L4,0 L3,3 L0,5 L-3,5 L-1,1 Z " fill="#8F8F8F" transform="translate(16,7)"/>
<path d="M0,0 L2,1 L1,5 L-2,6 L-3,2 Z " fill="#9D9D9D" transform="translate(12,16)"/>
</svg>
