<?xml version="1.0" encoding="UTF-8"?>
<svg version="1.1" xmlns="http://www.w3.org/2000/svg" width="28" height="28">
<path d="M0,0 L28,0 L28,28 L0,28 Z " fill="#010101" transform="translate(0,0)"/>
<path d="M0,0 L4,1 L7,5 L7,11 L11,13 L12,19 L7,20 L5,18 L4,12 L-2,8 L-2,2 Z " fill="#8E8E8E" transform="translate(10,5)"/>
<path d="M0,0 L4,1 L7,5 L7,10 L1,9 Z " fill="#CCCCCC" transform="translate(10,5)"/>
<path d="M0,0 L2,2 L2,8 L7,7 L9,11 L7,11 L6,15 L5,11 L-1,7 L-1,1 Z " fill="#E9E9E9" transform="translate(9,6)"/>
<path d="M0,0 L2,2 L4,3 L4,7 L0,7 L-1,1 Z " fill="#1D1D1D" transform="translate(11,7)"/>
</svg>
