<?xml version="1.0" encoding="UTF-8"?>
<svg version="1.1" xmlns="http://www.w3.org/2000/svg" width="28" height="28">
<path d="M0,0 L28,0 L28,28 L0,28 Z " fill="#010101" transform="translate(0,0)"/>
<path d="M0,0 L4,0 L5,2 L5,9 L3,11 L4,19 L3,20 L-3,20 L-4,15 L-3,11 L-4,4 Z " fill="#E3E3E3" transform="translate(14,4)"/>
<path d="M0,0 L5,3 L4,6 L-2,6 Z " fill="#9A9A9A" transform="translate(13,18)"/>
<path d="M0,0 L4,0 L3,5 L-1,5 Z " fill="#202020" transform="translate(13,7)"/>
<path d="M0,0 L1,0 L3,8 L0,9 L-1,2 Z " fill="#C1C1C1" transform="translate(11,6)"/>
</svg>
