<?xml version="1.0" encoding="UTF-8"?>
<svg version="1.1" xmlns="http://www.w3.org/2000/svg" width="28" height="28">
<path d="M0,0 L28,0 L28,28 L0,28 Z " fill="#020202" transform="translate(0,0)"/>
<path d="M0,0 L4,0 L5,6 L2,11 L4,18 L2,20 L-3,20 L-5,18 L-4,10 L-6,8 L-5,3 Z " fill="#F1F1F1" transform="translate(15,5)"/>
<path d="M0,0 L2,0 L2,6 L-2,8 L-3,2 Z " fill="#1C1C1C" transform="translate(15,7)"/>
<path d="M0,0 L3,4 L1,7 L-4,7 L-3,1 Z " fill="#868686" transform="translate(16,18)"/>
<path d="M0,0 L3,1 L1,3 L1,8 L-3,7 L-2,2 Z " fill="#D0D0D0" transform="translate(12,6)"/>
<path d="M0,0 L1,0 L2,8 L-2,7 L-1,2 Z " fill="#DCDCDC" transform="translate(12,16)"/>
</svg>
