<?xml version="1.0" encoding="UTF-8"?>
<svg version="1.1" xmlns="http://www.w3.org/2000/svg" width="28" height="28">
<path d="M0,0 L28,0 L28,28 L0,28 Z " fill="#020202" transform="translate(0,0)"/>
<path d="M0,0 L3,0 L3,2 L-3,4 L-4,7 L-3,9 L1,7 L3,3 L5,3 L4,7 L0,11 L0,19 L-1,20 L-6,20 L-8,18 L-7,14 L-5,11 L-7,8 L-6,4 L-3,1 Z " fill="#E3E3E3" transform="translate(16,5)"/>
<path d="M0,0 L1,3 L-2,8 L-6,10 L-8,6 L-6,3 L0,2 Z " fill="#191919" transform="translate(19,5)"/>
<path d="M0,0 L1,2 L3,2 L3,7 L-1,8 L-3,6 L-2,2 Z " fill="#777777" transform="translate(11,17)"/>
<path d="M0,0 L1,3 L-2,8 L-4,7 L-3,2 L0,2 Z " fill="#6B6B6B" transform="translate(19,5)"/>
</svg>
