<?xml version="1.0" encoding="UTF-8"?>
<svg version="1.1" xmlns="http://www.w3.org/2000/svg" width="28" height="28">
<path d="M0,0 L28,0 L28,28 L0,28 Z " fill="#020202" transform="translate(0,0)"/>
<path d="M0,0 L1,4 L-2,8 L-3,18 L-5,19 L-5,12 L-7,12 L-8,9 L-12,6 L-11,2 L-10,1 L-2,1 L0,2 Z " fill="#393939" transform="translate(21,5)"/>
<path d="M0,0 L7,0 L7,1 L0,2 L4,7 L6,8 L6,18 L5,18 L5,11 L3,11 L2,8 L-2,5 L-1,1 Z " fill="#D8D8D8" transform="translate(11,6)"/>
<path d="M0,0 L3,0 L4,8 L-1,7 L-3,6 L-2,2 Z " fill="#6C6C6C" transform="translate(13,17)"/>
</svg>
