<?xml version="1.0" encoding="UTF-8"?>
<svg version="1.1" xmlns="http://www.w3.org/2000/svg" width="28" height="28">
<path d="M0,0 L28,0 L28,28 L0,28 Z " fill="#030303" transform="translate(0,0)"/>
<path d="M0,0 L10,2 L12,9 L13,14 L6,20 L-1,20 L-2,19 L-2,13 L-1,12 L-5,9 L-5,4 Z " fill="#D2D2D2" transform="translate(11,5)"/>
<path d="M0,0 L5,1 L5,5 L0,9 L-7,9 L-6,5 L-3,1 Z " fill="#0E0E0E" transform="translate(17,14)"/>
<path d="M0,0 L4,0 L3,4 L-2,6 L-7,6 L-7,2 Z " fill="#131313" transform="translate(15,8)"/>
</svg>
