<?xml version="1.0" encoding="UTF-8"?>
<svg version="1.1" xmlns="http://www.w3.org/2000/svg" width="28" height="28">
<path d="M0,0 L28,0 L28,28 L0,28 Z " fill="#020202" transform="translate(0,0)"/>
<path d="M0,0 L3,0 L2,7 L-2,11 L-3,14 L-6,14 L-6,16 L-8,16 L-7,18 L-4,20 L-9,19 L-9,14 L-7,13 L-6,5 Z " fill="#E6E6E6" transform="translate(18,5)"/>
<path d="M0,0 L3,0 L1,5 L-2,9 L-5,9 L-6,5 Z " fill="#8A8A8A" transform="translate(18,5)"/>
<path d="M0,0 L1,0 L1,8 L-1,9 L-5,7 L-5,5 L-3,5 L-3,3 L0,3 Z " fill="#6C6C6C" transform="translate(15,16)"/>
</svg>
