<?xml version="1.0" encoding="UTF-8"?>
<svg version="1.1" xmlns="http://www.w3.org/2000/svg" width="28" height="28">
<path d="M0,0 L28,0 L28,28 L0,28 Z " fill="#030303" transform="translate(0,0)"/>
<path d="M0,0 L5,1 L6,4 L8,4 L7,7 L1,11 L-1,18 L-4,20 L-8,20 L-8,14 L-6,12 L-6,5 L-2,1 Z " fill="#D9D9D9" transform="translate(16,5)"/>
<path d="M0,0 L5,1 L6,4 L8,4 L7,7 L2,9 L2,6 L4,6 L4,3 L-2,3 Z " fill="#EBEBEB" transform="translate(16,5)"/>
<path d="M0,0 L5,0 L5,3 L1,5 L-3,4 Z " fill="#141414" transform="translate(15,8)"/>
</svg>
