<?xml version="1.0" encoding="UTF-8"?>
<svg version="1.1" xmlns="http://www.w3.org/2000/svg" width="28" height="28">
<path d="M0,0 L28,0 L28,28 L0,28 Z " fill="#010101" transform="translate(0,0)"/>
<path d="M0,0 L3,1 L0,9 L0,15 L-4,14 L-4,18 L0,18 L0,20 L-5,20 L-7,18 L-6,9 L-5,5 Z " fill="#979797" transform="translate(17,5)"/>
<path d="M0,0 L3,1 L0,8 L-1,6 L0,4 L-3,7 L-4,9 L-2,9 L-2,12 L-4,12 L-6,9 L-5,5 Z " fill="#D5D5D5" transform="translate(17,5)"/>
<path d="M0,0 L5,1 L5,7 L-1,5 Z " fill="#171717" transform="translate(13,18)"/>
</svg>
