<?xml version="1.0" encoding="UTF-8"?>
<svg version="1.1" xmlns="http://www.w3.org/2000/svg" width="28" height="28">
<path d="M0,0 L28,0 L28,28 L0,28 Z " fill="#020202" transform="translate(0,0)"/>
<path d="M0,0 L3,0 L3,2 L-2,5 L-1,8 L3,6 L1,10 L-2,14 L-4,15 L-5,18 L-1,18 L0,15 L0,20 L-6,20 L-7,15 L-4,11 L-4,4 Z " fill="#D0D0D0" transform="translate(17,4)"/>
<path d="M0,0 L1,0 L1,5 L-5,5 L-6,3 L-4,1 L-4,3 L0,3 Z " fill="#B0B0B0" transform="translate(16,19)"/>
<path d="M0,0 L3,0 L2,5 L-2,5 L-1,1 Z " fill="#1F1F1F" transform="translate(14,17)"/>
</svg>
