<?xml version="1.0" encoding="UTF-8"?>
<svg version="1.1" xmlns="http://www.w3.org/2000/svg" width="28" height="28">
<path d="M0,0 L28,0 L28,28 L0,28 Z " fill="#040404" transform="translate(0,0)"/>
<path d="M0,0 L5,1 L5,3 L1,4 L6,5 L10,2 L12,3 L9,6 L9,16 L5,20 L0,19 L1,12 L4,7 L-4,7 L-3,2 Z " fill="#D5D5D5" transform="translate(11,5)"/>
<path d="M0,0 L2,1 L-1,4 L-1,14 L-5,18 L-10,17 L-10,14 L-8,14 L-8,16 L-4,15 L-3,7 L-5,7 L-4,3 Z " fill="#EDEDED" transform="translate(21,7)"/>
<path d="M0,0 L5,1 L5,3 L0,4 L1,7 L-4,7 L-3,2 Z " fill="#E2E2E2" transform="translate(11,5)"/>
<path d="M0,0 L2,1 L1,7 L-3,8 L-2,2 Z " fill="#202020" transform="translate(16,15)"/>
</svg>
