<?xml version="1.0" encoding="UTF-8"?>
<svg version="1.1" xmlns="http://www.w3.org/2000/svg" width="28" height="28">
<path d="M0,0 L28,0 L28,28 L0,28 Z " fill="#020202" transform="translate(0,0)"/>
<path d="M0,0 L3,0 L3,6 L1,10 L-2,13 L1,17 L1,20 L-6,19 L-8,17 L-8,13 L-11,11 L-10,8 L-6,8 L-6,11 L-2,9 L0,6 L0,3 L-2,4 Z " fill="#E1E1E1" transform="translate(18,3)"/>
<path d="M0,0 L8,1 L9,6 L2,5 L0,3 Z " fill="#A9A9A9" transform="translate(10,17)"/>
<path d="M0,0 L4,0 L4,3 L6,4 L2,5 L-1,3 Z " fill="#C5C5C5" transform="translate(8,11)"/>
</svg>
