<?xml version="1.0" encoding="UTF-8"?>
<svg version="1.1" xmlns="http://www.w3.org/2000/svg" width="28" height="28">
<path d="M0,0 L28,0 L28,28 L0,28 Z " fill="#020202" transform="translate(0,0)"/>
<path d="M0,0 L11,0 L13,1 L13,8 L11,8 L14,12 L13,19 L6,20 L3,17 L3,11 L5,9 L0,4 Z " fill="#DDDDDD" transform="translate(7,5)"/>
<path d="M0,0 L4,2 L5,7 L0,8 L-2,7 L-2,2 Z " fill="#171717" transform="translate(14,15)"/>
<path d="M0,0 L8,0 L8,5 L2,4 L0,3 Z " fill="#1A1A1A" transform="translate(10,7)"/>
</svg>
