<?xml version="1.0" encoding="UTF-8"?>
<svg version="1.1" xmlns="http://www.w3.org/2000/svg" width="28" height="28">
<path d="M0,0 L28,0 L28,28 L0,28 Z " fill="#020202" transform="translate(0,0)"/>
<path d="M0,0 L9,1 L10,7 L6,11 L8,13 L8,19 L7,20 L2,20 L-1,18 L0,13 L1,10 L-2,7 L-2,2 Z " fill="#D9D9D9" transform="translate(11,5)"/>
<path d="M0,0 L9,1 L10,7 L5,10 L5,7 L8,6 L8,3 L-1,3 L-2,7 L-2,2 Z " fill="#DCDCDC" transform="translate(11,5)"/>
<path d="M0,0 L7,1 L7,4 L2,7 L-1,4 Z " fill="#0B0B0B" transform="translate(12,7)"/>
<path d="M0,0 L3,1 L3,5 L-2,4 Z " fill="#171717" transform="translate(14,18)"/>
</svg>
