<?xml version="1.0" encoding="UTF-8"?>
<svg version="1.1" xmlns="http://www.w3.org/2000/svg" width="28" height="28">
<path d="M0,0 L28,0 L28,28 L0,28 Z " fill="#010101" transform="translate(0,0)"/>
<path d="M0,0 L6,1 L8,4 L8,18 L6,20 L0,20 L-2,19 L-3,11 L-5,8 L-4,3 Z " fill="#D2D2D2" transform="translate(12,5)"/>
<path d="M0,0 L6,1 L7,4 L-1,4 L-1,8 L4,8 L3,11 L-1,13 L-5,8 L-4,3 Z " fill="#E6E6E6" transform="translate(12,5)"/>
<path d="M0,0 L5,1 L4,6 L-1,5 Z " fill="#0A0A0A" transform="translate(13,16)"/>
<path d="M0,0 L5,1 L3,5 L-2,5 L-2,1 Z " fill="#0F0F0F" transform="translate(13,8)"/>
<path d="M0,0 L2,1 L-2,5 L-5,3 L-5,1 Z " fill="#F4F4F4" transform="translate(14,13)"/>
<path d="M0,0 L4,0 L4,3 L7,4 L1,5 Z " fill="#BBBBBB" transform="translate(7,10)"/>
</svg>
