<?xml version="1.0" encoding="UTF-8"?>
<svg version="1.1" xmlns="http://www.w3.org/2000/svg" width="28" height="28">
<path d="M0,0 L28,0 L28,28 L0,28 Z " fill="#030303" transform="translate(0,0)"/>
<path d="M0,0 L6,0 L8,1 L8,3 L13,2 L16,3 L16,5 L8,5 L8,8 L13,9 L16,12 L15,17 L14,19 L5,20 L2,17 L1,11 L2,8 L-3,5 L-2,1 Z " fill="#D6D6D6" transform="translate(8,6)"/>
<path d="M0,0 L6,2 L9,4 L8,8 L6,10 L1,10 L-1,8 L-1,1 Z " fill="#0C0C0C" transform="translate(13,14)"/>
<path d="M0,0 L4,2 L6,4 L5,9 L4,11 L1,11 L3,7 L4,4 L-1,2 Z " fill="#D1D1D1" transform="translate(18,14)"/>
<path d="M0,0 L5,0 L6,3 L2,4 L-1,3 Z " fill="#262626" transform="translate(9,8)"/>
</svg>
