<?xml version="1.0" encoding="UTF-8"?>
<svg version="1.1" xmlns="http://www.w3.org/2000/svg" width="28" height="28">
<path d="M0,0 L28,0 L28,28 L0,28 Z " fill="#030303" transform="translate(0,0)"/>
<path d="M0,0 L7,0 L8,4 L4,8 L0,11 L-2,17 L-7,20 L-11,19 L-12,16 L-8,11 L-8,5 L-5,2 Z " fill="#D3D3D3" transform="translate(17,5)"/>
<path d="M0,0 L7,0 L8,4 L6,7 L-5,9 L-6,6 L-4,4 L-5,2 Z " fill="#CBCBCB" transform="translate(17,5)"/>
<path d="M0,0 L3,1 L1,4 L1,6 L6,4 L10,5 L6,8 L5,13 L3,13 L3,10 L-1,9 L-2,2 Z " fill="#EDEDED" transform="translate(11,8)"/>
<path d="M0,0 L0,3 L-6,7 L-9,7 L-10,4 L-6,1 L-4,2 Z " fill="#242424" transform="translate(21,7)"/>
<path d="M0,0 L2,0 L1,4 L-3,5 L-4,2 Z " fill="#1F1F1F" transform="translate(11,18)"/>
</svg>
