<?xml version="1.0" encoding="UTF-8"?>
<svg version="1.1" xmlns="http://www.w3.org/2000/svg" width="28" height="28">
<path d="M0,0 L28,0 L28,28 L0,28 Z " fill="#020202" transform="translate(0,0)"/>
<path d="M0,0 L4,1 L4,6 L2,8 L2,11 L5,14 L3,19 L0,20 L-3,18 L-3,10 L-7,10 L-7,4 L-4,2 L-5,8 L0,7 L2,2 L-1,1 Z " fill="#C2C2C2" transform="translate(15,5)"/>
<path d="M0,0 L4,1 L4,6 L2,8 L2,12 L-2,13 L-1,8 L2,2 L-1,1 Z " fill="#E8E8E8" transform="translate(15,5)"/>
<path d="M0,0 L3,0 L4,5 L0,5 L-1,2 Z " fill="#151515" transform="translate(14,17)"/>
</svg>
