<?xml version="1.0" encoding="UTF-8"?>
<svg version="1.1" xmlns="http://www.w3.org/2000/svg" width="28" height="28">
<path d="M0,0 L28,0 L28,28 L0,28 Z " fill="#030303" transform="translate(0,0)"/>
<path d="M0,0 L6,0 L9,6 L9,9 L5,8 L5,10 L9,12 L9,17 L5,20 L0,20 L-1,18 L0,9 L-3,8 L-3,3 Z " fill="#EBEBEB" transform="translate(11,5)"/>
<path d="M0,0 L3,1 L4,5 L-1,6 Z " fill="#0B0B0B" transform="translate(13,16)"/>
<path d="M0,0 L4,1 L0,5 L-2,4 L-2,1 Z " fill="#2D2D2D" transform="translate(12,8)"/>
<path d="M0,0 L4,4 L1,7 L-4,6 L0,4 Z " fill="#BFBFBF" transform="translate(16,17)"/>
</svg>
