<?xml version="1.0" encoding="UTF-8"?>
<svg version="1.1" xmlns="http://www.w3.org/2000/svg" width="28" height="28">
<path d="M0,0 L28,0 L28,28 L0,28 Z " fill="#030303" transform="translate(0,0)"/>
<path d="M0,0 L3,0 L3,2 L8,2 L12,6 L12,14 L8,19 L2,20 L-1,17 L-3,10 L-2,2 Z " fill="#EAEAEA" transform="translate(11,4)"/>
<path d="M0,0 L6,0 L9,4 L8,9 L5,12 L1,11 L-1,7 L-1,1 Z " fill="#0A0A0A" transform="translate(12,9)"/>
<path d="M0,0 L4,1 L7,4 L7,10 L5,10 L2,4 L-4,3 Z " fill="#CCCCCC" transform="translate(16,6)"/>
</svg>
