<?xml version="1.0" encoding="UTF-8"?>
<svg version="1.1" xmlns="http://www.w3.org/2000/svg" width="28" height="28">
<path d="M0,0 L28,0 L28,28 L0,28 Z " fill="#030303" transform="translate(0,0)"/>
<path d="M0,0 L3,1 L5,5 L4,14 L-2,19 L-10,20 L-13,17 L-12,11 L-2,1 Z " fill="#D4D4D4" transform="translate(18,4)"/>
<path d="M0,0 L3,1 L5,5 L5,11 L1,13 L3,6 L-1,7 L0,12 L-4,11 L-4,9 L-10,14 L-11,17 L-13,17 L-12,11 L-2,1 Z " fill="#ECECEC" transform="translate(18,4)"/>
<path d="M0,0 L2,0 L2,2 L6,3 L5,6 L1,8 L-4,8 L-3,3 Z " fill="#101010" transform="translate(12,13)"/>
<path d="M0,0 L4,0 L3,5 L0,5 L-1,1 Z " fill="#141414" transform="translate(17,10)"/>
</svg>
