<?xml version="1.0" encoding="UTF-8"?>
<svg version="1.1" xmlns="http://www.w3.org/2000/svg" width="28" height="28">
<path d="M0,0 L28,0 L28,28 L0,28 Z " fill="#010101" transform="translate(0,0)"/>
<path d="M0,0 L7,1 L9,4 L9,14 L7,14 L5,18 L0,20 L-3,17 L-3,6 Z " fill="#D1D1D1" transform="translate(12,4)"/>
<path d="M0,0 L1,0 L1,8 L-3,13 L-7,14 L-9,12 L-9,7 L-7,8 L-7,10 L-4,7 L-2,7 L-1,1 Z " fill="#EFEFEF" transform="translate(19,10)"/>
<path d="M0,0 L2,0 L3,7 L2,11 L0,11 L-1,14 L-3,14 L-4,11 L-1,1 Z " fill="#0E0E0E" transform="translate(15,6)"/>
</svg>
