<?xml version="1.0" encoding="UTF-8"?>
<svg version="1.1" xmlns="http://www.w3.org/2000/svg" width="28" height="28">
<path d="M0,0 L28,0 L28,28 L0,28 Z " fill="#040404" transform="translate(0,0)"/>
<path d="M0,0 L7,1 L11,6 L11,16 L7,20 L-1,19 L-3,17 L-3,6 Z " fill="#0D0D0D" transform="translate(11,4)"/>
<path d="M0,0 L7,1 L11,6 L11,16 L7,20 L-1,19 L-3,17 L-3,6 Z M1,4 L-1,8 L-1,15 L0,17 L7,17 L10,15 L9,8 L7,4 Z " fill="#DADADA" transform="translate(11,4)"/>
<path d="M0,0 L2,0 L2,13 L5,13 L4,16 L-1,13 L-1,2 Z " fill="#F8F8F8" transform="translate(9,8)"/>
</svg>
