<?xml version="1.0" encoding="UTF-8"?>
<svg version="1.1" xmlns="http://www.w3.org/2000/svg" width="28" height="28">
<path d="M0,0 L28,0 L28,28 L0,28 Z " fill="#030303" transform="translate(0,0)"/>
<path d="M0,0 L6,1 L9,5 L9,15 L2,20 L-5,19 L-6,17 L-6,8 Z " fill="#E9E9E9" transform="translate(13,4)"/>
<path d="M0,0 L3,1 L3,8 L-2,13 L-7,13 L-8,7 L-5,2 L0,2 Z " fill="#0A0A0A" transform="translate(17,8)"/>
<path d="M0,0 L3,0 L3,3 L-2,6 L-4,4 Z " fill="#CACACA" transform="translate(19,16)"/>
</svg>
