<?xml version="1.0" encoding="UTF-8"?>
<svg version="1.1" xmlns="http://www.w3.org/2000/svg" width="28" height="28">
<path d="M0,0 L28,0 L28,28 L0,28 Z " fill="#030303" transform="translate(0,0)"/>
<path d="M0,0 L6,0 L9,3 L9,13 L5,18 L0,20 L-5,19 L-7,17 L-7,9 Z " fill="#050505" transform="translate(14,4)"/>
<path d="M0,0 L6,0 L9,3 L9,13 L5,18 L0,20 L-5,19 L-7,17 L-7,9 Z M2,2 L-3,7 L-5,9 L-5,16 L-4,17 L2,17 L7,12 L7,4 Z " fill="#E3E3E3" transform="translate(14,4)"/>
<path d="M0,0 L2,0 L5,3 L5,13 L1,18 L-2,19 L-7,18 L-7,17 L0,15 L2,12 L2,4 L-2,2 L-3,4 L-3,1 Z " fill="#B7B7B7" transform="translate(18,4)"/>
<path d="M0,0 L1,3 L-4,8 L-10,7 L-10,6 L-3,4 Z " fill="#CECECE" transform="translate(21,15)"/>
</svg>
