<?xml version="1.0" encoding="UTF-8"?>
<svg version="1.1" xmlns="http://www.w3.org/2000/svg" width="28" height="28">
<path d="M0,0 L28,0 L28,28 L0,28 Z " fill="#020202" transform="translate(0,0)"/>
<path d="M0,0 L6,0 L12,4 L13,6 L13,12 L9,18 L7,19 L0,19 L-5,16 L-7,13 L-7,7 L-2,1 Z " fill="#060606" transform="translate(11,5)"/>
<path d="M0,0 L6,0 L12,4 L13,6 L13,12 L9,18 L7,19 L0,19 L-5,16 L-7,13 L-7,7 L-2,1 Z M0,2 L-5,8 L-4,14 L0,17 L7,17 L11,13 L11,7 L9,7 L9,4 L6,2 Z " fill="#D9D9D9" transform="translate(11,5)"/>
</svg>
