<?xml version="1.0" encoding="UTF-8"?>
<svg version="1.1" xmlns="http://www.w3.org/2000/svg" width="28" height="28">
<path d="M0,0 L28,0 L28,28 L0,28 Z " fill="#020202" transform="translate(0,0)"/>
<path d="M0,0 L5,1 L9,9 L10,14 L7,19 L5,20 L-2,20 L-6,17 L-6,9 L-3,2 Z " fill="#0A0A0A" transform="translate(13,5)"/>
<path d="M0,0 L5,1 L5,3 L-1,4 L-4,14 L-3,17 L6,17 L7,16 L7,7 L9,9 L10,14 L7,19 L5,20 L-2,20 L-6,17 L-6,9 L-3,2 Z " fill="#A2A2A2" transform="translate(13,5)"/>
<path d="M0,0 L5,1 L5,3 L-1,4 L-4,10 L-5,10 L-4,3 Z " fill="#D4D4D4" transform="translate(13,5)"/>
</svg>
