<?xml version="1.0" encoding="UTF-8"?>
<svg version="1.1" xmlns="http://www.w3.org/2000/svg" width="28" height="28">
<path d="M0,0 L28,0 L28,28 L0,28 Z " fill="#010101" transform="translate(0,0)"/>
<path d="M0,0 L5,0 L7,2 L7,9 L6,12 L4,12 L2,16 L-1,19 L-7,20 L-9,18 L-8,10 L-2,2 Z " fill="#E6E6E6" transform="translate(15,5)"/>
<path d="M0,0 L1,4 L-1,9 L4,6 L8,1 L10,5 L8,5 L6,9 L3,12 L-3,13 L-5,11 L-4,3 Z " fill="#E8E8E8" transform="translate(11,12)"/>
<path d="M0,0 L4,1 L2,6 L-3,11 L-5,11 L-4,6 Z " fill="#151515" transform="translate(15,10)"/>
</svg>
