<?xml version="1.0" encoding="UTF-8"?>
<svg version="1.1" xmlns="http://www.w3.org/2000/svg" width="28" height="28">
<path d="M0,0 L28,0 L28,28 L0,28 Z " fill="#020202" transform="translate(0,0)"/>
<path d="M0,0 L4,1 L6,6 L5,12 L-2,18 L-5,20 L-11,20 L-13,17 L-13,12 L-11,12 L-9,8 L-2,1 Z " fill="#E7E7E7" transform="translate(18,4)"/>
<path d="M0,0 L2,1 L2,6 L-5,12 L-11,13 L-10,9 L-8,8 L-6,8 L-4,3 Z " fill="#111111" transform="translate(19,8)"/>
<path d="M0,0 L1,4 L-4,9 L-6,7 Z " fill="#D1D1D1" transform="translate(23,10)"/>
<path d="M0,0 L5,2 L2,5 L-2,5 L-1,1 Z " fill="#282828" transform="translate(10,16)"/>
</svg>
