<?xml version="1.0" encoding="UTF-8"?>
<svg version="1.1" xmlns="http://www.w3.org/2000/svg" width="28" height="28">
<path d="M0,0 L28,0 L28,28 L0,28 Z " fill="#020202" transform="translate(0,0)"/>
<path d="M0,0 L5,1 L6,7 L0,14 L-8,18 L-13,18 L-14,17 L-14,11 L-9,6 L-4,2 Z " fill="#D7D7D7" transform="translate(19,6)"/>
<path d="M0,0 L4,0 L3,5 L-4,11 L-11,12 L-10,7 L-7,4 L-1,6 L-1,4 L-3,3 Z " fill="#0D0D0D" transform="translate(19,9)"/>
<path d="M0,0 L5,1 L6,4 L-2,4 L-1,9 L-7,8 L-11,11 L-11,8 L-4,2 Z " fill="#EDEDED" transform="translate(19,6)"/>
<path d="M0,0 L4,0 L3,5 L-1,6 L-1,4 L-3,3 Z " fill="#262626" transform="translate(19,9)"/>
</svg>
