<?xml version="1.0" encoding="UTF-8"?>
<svg version="1.1" xmlns="http://www.w3.org/2000/svg" width="28" height="28">
<path d="M0,0 L28,0 L28,28 L0,28 Z " fill="#020202" transform="translate(0,0)"/>
<path d="M0,0 L4,1 L7,5 L7,16 L3,20 L-2,19 L-5,15 L-5,6 Z " fill="#090909" transform="translate(14,5)"/>
<path d="M0,0 L4,1 L7,5 L7,16 L3,20 L-2,19 L-5,15 L-5,6 Z M0,3 L-3,7 L-3,15 L0,18 L4,17 L6,8 L5,5 L3,5 L3,3 Z " fill="#DDDDDD" transform="translate(14,5)"/>
<path d="M0,0 L1,0 L2,9 L7,9 L9,3 L11,6 L9,11 L3,12 L0,9 Z " fill="#BFBFBF" transform="translate(10,13)"/>
</svg>
