<?xml version="1.0" encoding="UTF-8"?>
<svg version="1.1" xmlns="http://www.w3.org/2000/svg" width="28" height="28">
<path d="M0,0 L28,0 L28,28 L0,28 Z " fill="#010101" transform="translate(0,0)"/>
<path d="M0,0 L7,1 L8,2 L8,14 L2,19 L-3,20 L-6,17 L-5,10 L-4,8 L-3,3 Z " fill="#DDDDDD" transform="translate(13,5)"/>
<path d="M0,0 L1,0 L1,11 L-4,15 L-9,16 L-12,13 L-12,8 L-9,7 L-8,12 L-2,11 Z " fill="#ECECEC" transform="translate(19,9)"/>
<path d="M0,0 L1,0 L1,8 L-3,12 L-6,12 L-6,6 L-1,1 Z " fill="#090909" transform="translate(17,10)"/>
<path d="M0,0 L4,2 L4,10 L3,10 L2,4 L-2,6 L-4,5 L-3,2 Z " fill="#939393" transform="translate(15,7)"/>
</svg>
