<?xml version="1.0" encoding="UTF-8"?>
<svg version="1.1" xmlns="http://www.w3.org/2000/svg" width="28" height="28">
<path d="M0,0 L28,0 L28,28 L0,28 Z " fill="#010101" transform="translate(0,0)"/>
<path d="M0,0 L5,1 L7,4 L8,14 L5,20 L-6,20 L-8,18 L-8,11 L-4,4 Z " fill="#E5E5E5" transform="translate(14,5)"/>
<path d="M0,0 L2,0 L3,2 L5,2 L5,11 L2,14 L-5,13 L-6,12 L-5,4 L-4,2 L0,2 Z " fill="#0A0A0A" transform="translate(14,10)"/>
<path d="M0,0 L2,1 L-1,5 L0,7 L-4,7 L-6,13 L-8,13 L-6,7 Z " fill="#BFBFBF" transform="translate(14,5)"/>
<path d="M0,0 L1,0 L2,9 L-1,12 L-3,10 L-1,8 Z " fill="#B1B1B1" transform="translate(19,13)"/>
</svg>
