<?xml version="1.0" encoding="UTF-8"?>
<svg version="1.1" xmlns="http://www.w3.org/2000/svg" width="28" height="28">
<path d="M0,0 L28,0 L28,28 L0,28 Z " fill="#020202" transform="translate(0,0)"/>
<path d="M0,0 L3,0 L3,9 L0,16 L-7,20 L-12,19 L-13,18 L-13,9 L-8,2 Z " fill="#E1E1E1" transform="translate(19,5)"/>
<path d="M0,0 L1,2 L-1,7 L0,11 L3,10 L8,4 L9,8 L8,11 L1,15 L-4,14 L-5,13 L-5,4 Z " fill="#E8E8E8" transform="translate(11,10)"/>
<path d="M0,0 L4,2 L0,11 L-5,13 L-6,8 L-4,3 L-2,3 L-2,1 Z " fill="#0E0E0E" transform="translate(15,9)"/>
</svg>
