<?xml version="1.0" encoding="UTF-8"?>
<svg version="1.1" xmlns="http://www.w3.org/2000/svg" width="28" height="28">
<path d="M0,0 L28,0 L28,28 L0,28 Z " fill="#030303" transform="translate(0,0)"/>
<path d="M0,0 L4,0 L6,5 L6,12 L4,16 L2,16 L1,19 L-5,20 L-9,18 L-10,9 L-7,4 L-4,1 Z " fill="#E8E8E8" transform="translate(16,5)"/>
<path d="M0,0 L1,3 L1,10 L4,11 L10,7 L10,11 L8,11 L7,14 L1,15 L-3,13 L-4,4 Z " fill="#EFEFEF" transform="translate(10,10)"/>
<path d="M0,0 L3,1 L3,6 L0,11 L-4,12 L-6,10 L-6,3 L-4,1 Z " fill="#161616" transform="translate(16,10)"/>
</svg>
