<?xml version="1.0" encoding="UTF-8"?>
<svg version="1.1" xmlns="http://www.w3.org/2000/svg" width="28" height="28">
<path d="M0,0 L28,0 L28,28 L0,28 Z " fill="#020202" transform="translate(0,0)"/>
<path d="M0,0 L5,0 L8,5 L6,14 L0,19 L-4,20 L-9,18 L-10,17 L-10,10 L-7,5 L-5,5 L-5,3 Z " fill="#0B0B0B" transform="translate(16,4)"/>
<path d="M0,0 L5,0 L8,5 L6,14 L0,19 L-4,20 L-9,18 L-10,17 L-10,10 L-7,5 L-5,5 L-5,3 Z M1,2 L-7,9 L-8,16 L-3,18 L2,15 L6,9 L5,2 Z " fill="#DCDCDC" transform="translate(16,4)"/>
<path d="M0,0 L4,2 L-1,5 L-4,8 L-6,7 L-3,2 Z " fill="#BDBDBD" transform="translate(16,4)"/>
</svg>
