<?xml version="1.0" encoding="UTF-8"?>
<svg version="1.1" xmlns="http://www.w3.org/2000/svg" width="28" height="28">
<path d="M0,0 L28,0 L28,28 L0,28 Z " fill="#030303" transform="translate(0,0)"/>
<path d="M0,0 L11,1 L16,5 L15,11 L11,14 L2,14 L-3,11 L-4,6 L-2,1 Z " fill="#E8E8E8" transform="translate(9,7)"/>
<path d="M0,0 L7,1 L9,6 L7,8 L-2,7 L-4,5 L-4,1 Z " fill="#0C0C0C" transform="translate(13,10)"/>
<path d="M0,0 L4,2 L5,7 L1,5 L0,3 L-3,1 Z " fill="#CFCFCF" transform="translate(20,9)"/>
</svg>
