<?xml version="1.0" encoding="UTF-8"?>
<svg version="1.1" xmlns="http://www.w3.org/2000/svg" width="28" height="28">
<path d="M0,0 L28,0 L28,28 L0,28 Z " fill="#040404" transform="translate(0,0)"/>
<path d="M0,0 L7,0 L8,3 L11,4 L11,15 L8,20 L-1,18 L-5,17 L-7,13 L-5,4 L-1,2 Z " fill="#F6F6F6" transform="translate(12,5)"/>
<path d="M0,0 L3,1 L3,8 L-3,7 L-5,6 L-3,1 Z " fill="#4D4D4D" transform="translate(15,11)"/>
<path d="M0,0 L3,0 L3,5 L-2,5 L-1,1 Z " fill="#080808" transform="translate(14,13)"/>
</svg>
