<?xml version="1.0" encoding="UTF-8"?>
<svg version="1.1" xmlns="http://www.w3.org/2000/svg" width="28" height="28">
<path d="M0,0 L28,0 L28,28 L0,28 Z " fill="#010101" transform="translate(0,0)"/>
<path d="M0,0 L7,0 L15,3 L18,6 L19,14 L14,20 L6,20 L1,16 L-1,12 L-1,1 Z " fill="#0A0A0A" transform="translate(6,5)"/>
<path d="M0,0 L7,0 L15,3 L18,6 L19,14 L14,20 L6,20 L1,16 L-1,12 L-1,1 Z M2,3 L2,12 L7,18 L14,17 L17,12 L16,7 L13,4 L9,5 L9,7 L7,7 L7,3 Z " fill="#E6E6E6" transform="translate(6,5)"/>
<path d="M0,0 L7,1 L7,4 L3,4 L2,6 L0,6 L0,2 L-5,2 L-6,6 L-6,1 Z " fill="#B5B5B5" transform="translate(13,6)"/>
</svg>
