<?xml version="1.0" encoding="UTF-8"?>
<svg version="1.1" xmlns="http://www.w3.org/2000/svg" width="28" height="28">
<path d="M0,0 L28,0 L28,28 L0,28 Z " fill="#010101" transform="translate(0,0)"/>
<path d="M0,0 L4,1 L6,4 L6,17 L3,20 L-3,19 L-5,13 L-4,5 Z " fill="#0D0D0D" transform="translate(14,3)"/>
<path d="M0,0 L4,1 L6,4 L5,8 L3,3 L0,4 L-1,6 L-1,15 L0,17 L3,18 L5,9 L6,9 L6,17 L3,20 L-3,19 L-5,13 L-4,5 Z " fill="#DEDEDE" transform="translate(14,3)"/>
<path d="M0,0 L4,1 L6,4 L5,8 L3,3 L0,4 L-2,14 L-3,14 L-4,5 Z " fill="#B5B5B5" transform="translate(14,3)"/>
</svg>
