<?xml version="1.0" encoding="UTF-8"?>
<svg version="1.1" xmlns="http://www.w3.org/2000/svg" width="28" height="28">
<path d="M0,0 L28,0 L28,28 L0,28 Z " fill="#020202" transform="translate(0,0)"/>
<path d="M0,0 L5,2 L9,6 L10,8 L10,15 L6,19 L4,20 L-2,20 L-7,16 L-7,9 L-1,1 Z " fill="#0B0B0B" transform="translate(13,4)"/>
<path d="M0,0 L5,2 L9,6 L10,8 L10,15 L6,19 L4,20 L-2,20 L-7,16 L-7,9 L-1,1 Z M1,3 L-4,8 L-4,16 L-2,18 L4,18 L9,14 L7,6 L4,3 Z " fill="#DFDFDF" transform="translate(13,4)"/>
<path d="M0,0 L3,0 L3,7 L0,7 Z " fill="#B6B6B6" transform="translate(6,13)"/>
</svg>
