<?xml version="1.0" encoding="UTF-8"?>
<svg version="1.1" xmlns="http://www.w3.org/2000/svg" width="28" height="28">
<path d="M0,0 L28,0 L28,28 L0,28 Z " fill="#020202" transform="translate(0,0)"/>
<path d="M0,0 L2,0 L5,8 L4,13 L1,18 L-1,20 L-6,20 L-7,19 L-7,11 L-3,1 Z " fill="#E8E8E8" transform="translate(16,4)"/>
<path d="M0,0 L2,0 L4,5 L3,10 L-1,14 L-3,14 L-2,4 Z " fill="#191919" transform="translate(15,7)"/>
<path d="M0,0 L2,3 L0,10 L-4,12 L-1,2 Z " fill="#D0D0D0" transform="translate(13,5)"/>
</svg>
