<?xml version="1.0" encoding="UTF-8"?>
<svg version="1.1" xmlns="http://www.w3.org/2000/svg" width="28" height="28">
<path d="M0,0 L28,0 L28,28 L0,28 Z " fill="#020202" transform="translate(0,0)"/>
<path d="M0,0 L5,1 L8,6 L8,14 L1,20 L-6,20 L-9,16 L-8,6 L-6,2 Z " fill="#0A0A0A" transform="translate(15,5)"/>
<path d="M0,0 L5,1 L8,6 L8,14 L1,20 L-6,20 L-9,16 L-8,6 L-6,2 Z M1,2 L-5,4 L-7,12 L-7,17 L-5,18 L1,18 L6,13 L6,6 L3,2 Z " fill="#DFDFDF" transform="translate(15,5)"/>
<path d="M0,0 L1,0 L1,8 L-1,10 L-4,9 L-2,7 Z " fill="#C3C3C3" transform="translate(22,11)"/>
</svg>
