<?xml version="1.0" encoding="UTF-8"?>
<svg version="1.1" xmlns="http://www.w3.org/2000/svg" width="28" height="28">
<path d="M0,0 L28,0 L28,28 L0,28 Z " fill="#020202" transform="translate(0,0)"/>
<path d="M0,0 L6,1 L10,5 L11,8 L11,15 L6,20 L0,20 L-5,14 L-5,8 Z " fill="#DFDFDF" transform="translate(12,4)"/>
<path d="M0,0 L5,0 L7,2 L8,10 L5,13 L-2,14 L-3,13 L-3,5 Z " fill="#0A0A0A" transform="translate(13,7)"/>
<path d="M0,0 L4,2 L5,5 L5,12 L0,17 L-6,17 L-3,13 L2,10 L1,2 Z " fill="#C8C8C8" transform="translate(18,7)"/>
</svg>
