<?xml version="1.0" encoding="UTF-8"?>
<svg version="1.1" xmlns="http://www.w3.org/2000/svg" width="28" height="28">
<path d="M0,0 L28,0 L28,28 L0,28 Z " fill="#030303" transform="translate(0,0)"/>
<path d="M0,0 L5,0 L8,5 L8,13 L4,18 L1,20 L-6,20 L-10,16 L-7,4 L-4,1 Z " fill="#090909" transform="translate(15,5)"/>
<path d="M0,0 L5,0 L8,5 L8,13 L4,18 L1,20 L-6,20 L-10,16 L-7,4 L-4,1 Z M1,2 L-6,8 L-7,17 L-1,18 L4,15 L5,13 L5,4 L4,2 Z " fill="#ECECEC" transform="translate(15,5)"/>
<path d="M0,0 L3,1 L3,9 L-1,14 L-4,16 L-7,15 L-4,12 L-1,9 Z " fill="#CDCDCD" transform="translate(20,9)"/>
</svg>
