<?xml version="1.0" encoding="UTF-8"?>
<svg version="1.1" xmlns="http://www.w3.org/2000/svg" width="28" height="28">
<path d="M0,0 L28,0 L28,28 L0,28 Z " fill="#020202" transform="translate(0,0)"/>
<path d="M0,0 L8,0 L13,3 L15,6 L15,11 L11,14 L2,14 L-4,9 L-5,5 Z " fill="#090909" transform="translate(10,7)"/>
<path d="M0,0 L8,0 L13,3 L15,6 L15,11 L11,14 L2,14 L-4,9 L-5,5 Z M1,2 L-2,5 L-1,9 L4,12 L11,12 L13,10 L12,5 L9,2 Z " fill="#D7D7D7" transform="translate(10,7)"/>
<path d="M0,0 L2,0 L4,5 L4,8 L-1,3 Z " fill="#EFEFEF" transform="translate(6,11)"/>
</svg>
