<?xml version="1.0" encoding="UTF-8"?>
<svg version="1.1" xmlns="http://www.w3.org/2000/svg" width="28" height="28">
<path d="M0,0 L28,0 L28,28 L0,28 Z " fill="#030303" transform="translate(0,0)"/>
<path d="M0,0 L4,1 L7,10 L7,17 L4,20 L-3,20 L-7,16 L-7,8 L-4,3 Z " fill="#0B0B0B" transform="translate(15,4)"/>
<path d="M0,0 L4,1 L7,10 L7,17 L4,20 L-3,20 L-7,16 L-7,8 L-4,3 Z M0,2 L-4,6 L-5,9 L-5,16 L-3,18 L3,18 L6,15 L4,8 L2,5 L2,2 Z " fill="#E4E4E4" transform="translate(15,4)"/>
<path d="M0,0 L3,1 L-3,6 L-5,15 L-6,15 L-7,8 L-4,3 Z " fill="#C9C9C9" transform="translate(15,4)"/>
</svg>
