<?xml version="1.0" encoding="UTF-8"?>
<svg version="1.1" xmlns="http://www.w3.org/2000/svg" width="28" height="28">
<path d="M0,0 L28,0 L28,28 L0,28 Z " fill="#020202" transform="translate(0,0)"/>
<path d="M0,0 L5,1 L6,2 L5,10 L-1,19 L-7,20 L-8,13 L-5,8 L-3,3 Z " fill="#D1D1D1" transform="translate(16,5)"/>
<path d="M0,0 L5,1 L5,6 L4,3 L0,5 L-2,11 L-5,14 L-8,18 L-7,11 L-3,3 Z " fill="#EBEBEB" transform="translate(16,5)"/>
<path d="M0,0 L2,0 L1,7 L-3,13 L-7,15 L-6,9 L-3,8 L-1,1 Z " fill="#161616" transform="translate(17,8)"/>
</svg>
