<?xml version="1.0" encoding="UTF-8"?>
<svg version="1.1" xmlns="http://www.w3.org/2000/svg" width="28" height="28">
<path d="M0,0 L28,0 L28,28 L0,28 Z " fill="#020202" transform="translate(0,0)"/>
<path d="M0,0 L6,1 L11,3 L19,9 L19,15 L16,18 L7,18 L2,15 L2,13 L0,13 L-1,1 Z " fill="#E8E8E8" transform="translate(6,5)"/>
<path d="M0,0 L4,1 L13,5 L15,7 L15,10 L13,11 L4,10 L1,7 Z " fill="#0B0B0B" transform="translate(8,9)"/>
<path d="M0,0 L1,0 L2,7 L7,8 L5,9 L5,11 L0,9 L0,7 L-2,7 L-1,3 Z " fill="#C5C5C5" transform="translate(8,11)"/>
</svg>
