<?xml version="1.0" encoding="UTF-8"?>
<svg version="1.1" xmlns="http://www.w3.org/2000/svg" width="28" height="28">
<path d="M0,0 L28,0 L28,28 L0,28 Z " fill="#020202" transform="translate(0,0)"/>
<path d="M0,0 L6,1 L11,4 L14,10 L14,15 L7,20 L1,20 L-1,18 L-1,3 Z " fill="#060606" transform="translate(10,4)"/>
<path d="M0,0 L6,1 L11,4 L14,10 L14,15 L7,20 L1,20 L-1,18 L-1,3 Z M1,3 L0,7 L0,16 L1,18 L7,18 L11,16 L12,9 L7,3 Z " fill="#C4C4C4" transform="translate(10,4)"/>
<path d="M0,0 L3,0 L2,4 L1,7 L-1,7 Z " fill="#CECECE" transform="translate(10,4)"/>
</svg>
