<?xml version="1.0" encoding="UTF-8"?>
<svg version="1.1" xmlns="http://www.w3.org/2000/svg" width="28" height="28">
<path d="M0,0 L28,0 L28,28 L0,28 Z " fill="#010101" transform="translate(0,0)"/>
<path d="M0,0 L9,0 L12,3 L12,5 L14,5 L15,13 L11,19 L3,20 L-2,15 L-3,13 L-3,3 Z " fill="#D8D8D8" transform="translate(9,5)"/>
<path d="M0,0 L7,0 L10,3 L11,11 L7,14 L1,13 L-1,9 L-1,1 Z " fill="#070707" transform="translate(10,8)"/>
<path d="M0,0 L6,0 L5,3 L0,3 Z " fill="#F1F1F1" transform="translate(12,22)"/>
</svg>
