<?xml version="1.0" encoding="UTF-8"?>
<svg version="1.1" xmlns="http://www.w3.org/2000/svg" width="28" height="28">
<path d="M0,0 L28,0 L28,28 L0,28 Z " fill="#040404" transform="translate(0,0)"/>
<path d="M0,0 L4,1 L6,6 L5,10 L0,18 L-7,20 L-8,15 L-4,7 L-2,1 Z " fill="#EDEDED" transform="translate(15,4)"/>
<path d="M0,0 L4,2 L4,0 L7,0 L6,5 L0,8 L-3,7 L-2,2 Z " fill="#F2F2F2" transform="translate(10,16)"/>
<path d="M0,0 L2,0 L1,5 L0,7 L-2,7 L-2,9 L-5,10 L-4,5 L-2,5 Z " fill="#313131" transform="translate(16,9)"/>
</svg>
