<?xml version="1.0" encoding="UTF-8"?>
<svg version="1.1" xmlns="http://www.w3.org/2000/svg" width="28" height="28">
<path d="M0,0 L28,0 L28,28 L0,28 Z " fill="#030303" transform="translate(0,0)"/>
<path d="M0,0 L4,1 L6,2 L6,10 L1,16 L-3,17 L-2,13 L4,5 L-2,6 L-3,11 L-5,11 L-6,16 L-4,17 L-4,19 L-8,20 L-8,17 L-10,17 L-9,10 L-5,4 L-1,3 Z " fill="#E9E9E9" transform="translate(16,5)"/>
<path d="M0,0 L3,1 L1,6 L-3,10 L-4,14 L-6,13 L-7,10 L-6,7 L-4,7 L-4,2 Z " fill="#1C1C1C" transform="translate(17,9)"/>
</svg>
