<?xml version="1.0" encoding="UTF-8"?>
<svg version="1.1" xmlns="http://www.w3.org/2000/svg" width="28" height="28">
<path d="M0,0 L28,0 L28,28 L0,28 Z " fill="#020202" transform="translate(0,0)"/>
<path d="M0,0 L5,0 L7,2 L6,12 L4,12 L2,16 L-2,20 L-8,20 L-10,19 L-10,11 L-8,11 L-6,6 L-2,1 Z " fill="#1B1B1B" transform="translate(15,5)"/>
<path d="M0,0 L5,0 L7,2 L6,12 L2,13 L2,10 L3,3 L1,2 L1,4 L-1,4 L-2,8 L-6,9 L-7,14 L-9,14 L-8,9 L-2,1 Z " fill="#E3E3E3" transform="translate(15,5)"/>
<path d="M0,0 L3,0 L1,4 L-2,6 L-8,6 L-8,2 L-7,4 L-1,3 Z " fill="#F1F1F1" transform="translate(15,19)"/>
<path d="M0,0 L5,0 L7,4 L4,5 L1,2 L0,4 L0,2 L-2,1 Z " fill="#C8C8C8" transform="translate(15,5)"/>
</svg>
