<?xml version="1.0" encoding="UTF-8"?>
<svg version="1.1" xmlns="http://www.w3.org/2000/svg" width="28" height="28">
<path d="M0,0 L28,0 L28,28 L0,28 Z " fill="#030303" transform="translate(0,0)"/>
<path d="M0,0 L3,0 L7,4 L7,11 L3,17 L-1,20 L-7,20 L-9,18 L-9,10 Z " fill="#E1E1E1" transform="translate(16,4)"/>
<path d="M0,0 L3,1 L3,7 L0,12 L-3,14 L-7,14 L-6,7 Z " fill="#0B0B0B" transform="translate(17,7)"/>
<path d="M0,0 L1,3 L-5,8 L-8,8 L-8,6 L-10,5 L-2,2 Z " fill="#CFCFCF" transform="translate(20,16)"/>
<path d="M0,0 L1,0 L1,8 L3,8 L3,10 L-1,9 L-2,8 L-2,2 Z " fill="#F9F9F9" transform="translate(9,14)"/>
</svg>
