<?xml version="1.0" encoding="UTF-8"?>
<svg version="1.1" xmlns="http://www.w3.org/2000/svg" width="28" height="28">
<path d="M0,0 L28,0 L28,28 L0,28 Z " fill="#030303" transform="translate(0,0)"/>
<path d="M0,0 L6,0 L8,3 L8,11 L3,17 L-2,20 L-7,20 L-9,17 L-3,3 Z " fill="#E3E3E3" transform="translate(14,4)"/>
<path d="M0,0 L2,1 L2,6 L-3,12 L-8,15 L-13,15 L-15,12 L-11,4 L-9,3 L-9,10 L-5,7 L-3,7 L-1,2 Z " fill="#ECECEC" transform="translate(20,9)"/>
<path d="M0,0 L3,1 L2,7 L-3,12 L-6,13 L-5,7 Z " fill="#0D0D0D" transform="translate(16,7)"/>
</svg>
