<?xml version="1.0" encoding="UTF-8"?>
<svg version="1.1" xmlns="http://www.w3.org/2000/svg" width="28" height="28">
<path d="M0,0 L28,0 L28,28 L0,28 Z " fill="#030303" transform="translate(0,0)"/>
<path d="M0,0 L10,0 L14,4 L14,11 L12,16 L7,20 L-1,20 L-4,15 L-4,5 Z " fill="#050505" transform="translate(9,5)"/>
<path d="M0,0 L10,0 L14,4 L14,11 L12,16 L7,20 L-1,20 L-4,15 L-4,5 Z M2,3 L-1,4 L-2,7 L-2,14 L0,18 L7,18 L11,13 L11,5 L9,3 Z " fill="#DBDBDB" transform="translate(9,5)"/>
<path d="M0,0 L6,0 L10,4 L9,8 L7,11 L5,4 L1,2 Z " fill="#C3C3C3" transform="translate(13,5)"/>
</svg>
