<?xml version="1.0" encoding="UTF-8"?>
<svg version="1.1" xmlns="http://www.w3.org/2000/svg" width="28" height="28">
<path d="M0,0 L28,0 L28,28 L0,28 Z " fill="#020202" transform="translate(0,0)"/>
<path d="M0,0 L4,0 L5,2 L5,12 L-2,18 L-5,20 L-10,19 L-9,15 L-4,5 L-2,1 Z " fill="#D4D4D4" transform="translate(16,4)"/>
<path d="M0,0 L3,1 L2,9 L-3,13 L-7,14 L-5,8 Z " fill="#111111" transform="translate(16,7)"/>
<path d="M0,0 L4,0 L5,2 L5,11 L3,11 L2,4 L-1,4 Z " fill="#EFEFEF" transform="translate(16,4)"/>
</svg>
