<?xml version="1.0" encoding="UTF-8"?>
<svg version="1.1" xmlns="http://www.w3.org/2000/svg" width="28" height="28">
<path d="M0,0 L28,0 L28,28 L0,28 Z " fill="#010101" transform="translate(0,0)"/>
<path d="M0,0 L4,0 L4,2 L10,1 L13,5 L14,13 L9,18 L6,20 L-1,20 L-4,17 L-4,9 L-2,2 Z " fill="#0D0D0D" transform="translate(10,4)"/>
<path d="M0,0 L4,0 L4,2 L10,1 L13,5 L14,13 L9,18 L6,20 L-1,20 L-4,17 L-4,9 L-2,2 Z M1,2 L-2,11 L-1,17 L0,18 L6,18 L12,13 L11,5 L3,2 Z " fill="#D7D7D7" transform="translate(10,4)"/>
</svg>
