<?xml version="1.0" encoding="UTF-8"?>
<svg version="1.1" xmlns="http://www.w3.org/2000/svg" width="28" height="28">
<path d="M0,0 L28,0 L28,28 L0,28 Z " fill="#020202" transform="translate(0,0)"/>
<path d="M0,0 L5,1 L7,2 L7,9 L1,17 L-5,20 L-10,20 L-11,15 L-6,8 L-7,4 Z " fill="#E4E4E4" transform="translate(16,4)"/>
<path d="M0,0 L1,4 L-3,10 L-10,14 L-15,14 L-16,9 L-11,4 L-10,7 L-11,9 L-3,4 L-2,2 L0,2 Z " fill="#E8E8E8" transform="translate(21,10)"/>
<path d="M0,0 L4,1 L2,6 L-4,10 L-6,10 L-4,5 Z " fill="#0A0A0A" transform="translate(16,9)"/>
</svg>
