<?xml version="1.0" encoding="UTF-8"?>
<svg version="1.1" xmlns="http://www.w3.org/2000/svg" width="28" height="28">
<path d="M0,0 L28,0 L28,28 L0,28 Z " fill="#030303" transform="translate(0,0)"/>
<path d="M0,0 L5,0 L5,3 L9,5 L12,9 L12,16 L7,20 L0,20 L-4,16 L-4,9 L-1,1 Z " fill="#080808" transform="translate(11,4)"/>
<path d="M0,0 L5,0 L5,3 L9,5 L12,9 L12,16 L7,20 L0,20 L-4,16 L-4,9 L-1,1 Z M1,3 L-2,9 L-1,16 L0,17 L8,17 L10,15 L10,9 L8,6 L3,6 L3,3 Z " fill="#E2E2E2" transform="translate(11,4)"/>
</svg>
