<?xml version="1.0" encoding="UTF-8"?>
<svg version="1.1" xmlns="http://www.w3.org/2000/svg" width="28" height="28">
<path d="M0,0 L28,0 L28,28 L0,28 Z " fill="#020202" transform="translate(0,0)"/>
<path d="M0,0 L6,1 L8,6 L8,9 L6,9 L4,3 L-1,4 L4,8 L4,14 L-1,19 L-9,20 L-12,16 L-11,11 L-4,3 Z " fill="#DDDDDD" transform="translate(17,5)"/>
<path d="M0,0 L5,1 L5,6 L0,11 L-5,11 L-6,10 L-6,4 L-3,4 Z " fill="#0A0A0A" transform="translate(14,12)"/>
<path d="M0,0 L5,1 L6,6 L2,5 L-2,2 Z " fill="#232323" transform="translate(17,7)"/>
<path d="M0,0 L1,0 L1,6 L-5,11 L-5,8 L-3,8 L-1,1 Z " fill="#BDBDBD" transform="translate(20,13)"/>
</svg>
