<?xml version="1.0" encoding="UTF-8"?>
<svg version="1.1" xmlns="http://www.w3.org/2000/svg" width="28" height="28">
<path d="M0,0 L28,0 L28,28 L0,28 Z " fill="#030303" transform="translate(0,0)"/>
<path d="M0,0 L2,1 L2,12 L-1,18 L-4,20 L-11,19 L-13,16 L-13,9 L-10,2 L-5,1 L-1,3 Z " fill="#0B0B0B" transform="translate(20,5)"/>
<path d="M0,0 L2,1 L2,12 L-1,18 L-4,20 L-11,19 L-13,16 L-13,9 L-10,2 L-5,1 L-1,3 Z M-8,3 L-11,10 L-10,17 L-9,18 L-3,18 L0,13 L0,6 L-4,3 Z " fill="#DBDBDB" transform="translate(20,5)"/>
</svg>
