<?xml version="1.0" encoding="UTF-8"?>
<svg version="1.1" xmlns="http://www.w3.org/2000/svg" width="28" height="28">
<path d="M0,0 L28,0 L28,28 L0,28 Z " fill="#010101" transform="translate(0,0)"/>
<path d="M0,0 L4,0 L5,5 L5,12 L1,18 L-3,20 L-8,20 L-9,19 L-9,11 L-2,2 Z " fill="#E6E6E6" transform="translate(16,4)"/>
<path d="M0,0 L1,0 L1,7 L-3,11 L-6,11 L-3,2 Z " fill="#121212" transform="translate(16,9)"/>
<path d="M0,0 L1,3 L-1,6 L-2,4 L-3,11 L-4,11 L-4,3 Z " fill="#C9C9C9" transform="translate(11,12)"/>
</svg>
