<?xml version="1.0" encoding="UTF-8"?>
<svg version="1.1" xmlns="http://www.w3.org/2000/svg" width="28" height="28">
<path d="M0,0 L28,0 L28,28 L0,28 Z " fill="#020202" transform="translate(0,0)"/>
<path d="M0,0 L5,1 L8,3 L9,10 L4,16 L0,18 L-6,18 L-11,13 L-10,6 L-6,2 Z " fill="#0A0A0A" transform="translate(16,6)"/>
<path d="M0,0 L5,1 L8,3 L9,10 L4,16 L0,18 L-6,18 L-11,13 L-10,6 L-6,2 Z M1,2 L-2,6 L-3,4 L-7,6 L-8,8 L-8,14 L-5,16 L2,15 L6,11 L7,7 L5,3 Z " fill="#D1D1D1" transform="translate(16,6)"/>
<path d="M0,0 L4,1 L0,5 L-2,7 L-2,3 L-7,4 L-5,1 Z " fill="#EAEAEA" transform="translate(15,7)"/>
<path d="M0,0 L3,1 L1,8 L-2,6 Z " fill="#C4C4C4" transform="translate(7,11)"/>
</svg>
