<?xml version="1.0" encoding="UTF-8"?>
<svg version="1.1" xmlns="http://www.w3.org/2000/svg" width="28" height="28">
<path d="M0,0 L28,0 L28,28 L0,28 Z " fill="#020202" transform="translate(0,0)"/>
<path d="M0,0 L5,1 L9,5 L10,8 L10,16 L7,20 L1,20 L-2,17 L-2,5 Z " fill="#E6E6E6" transform="translate(11,4)"/>
<path d="M0,0 L4,2 L6,5 L6,11 L3,15 L-1,14 L-2,13 L-2,2 Z " fill="#0F0F0F" transform="translate(13,7)"/>
<path d="M0,0 L1,3 L-2,7 L-8,7 L-8,5 L-4,4 Z " fill="#C7C7C7" transform="translate(20,17)"/>
</svg>
