<?xml version="1.0" encoding="UTF-8"?>
<svg version="1.1" xmlns="http://www.w3.org/2000/svg" width="28" height="28">
<path d="M0,0 L28,0 L28,28 L0,28 Z " fill="#030303" transform="translate(0,0)"/>
<path d="M0,0 L5,0 L9,3 L11,12 L8,17 L3,20 L-5,19 L-9,14 L-8,8 L-2,1 Z " fill="#0B0B0B" transform="translate(14,4)"/>
<path d="M0,0 L5,0 L9,3 L11,12 L8,17 L3,20 L-5,19 L-9,14 L-8,8 L-2,1 Z M0,2 L-5,8 L-6,15 L-2,18 L3,18 L8,14 L9,9 L6,3 L5,2 Z " fill="#D0D0D0" transform="translate(14,4)"/>
<path d="M0,0 L1,2 L-4,7 L-11,8 L-16,5 L-17,2 L-13,4 L-6,5 Z " fill="#E8E8E8" transform="translate(23,16)"/>
</svg>
