<?xml version="1.0" encoding="UTF-8"?>
<svg version="1.1" xmlns="http://www.w3.org/2000/svg" width="28" height="28">
<path d="M0,0 L28,0 L28,28 L0,28 Z " fill="#010101" transform="translate(0,0)"/>
<path d="M0,0 L4,1 L5,10 L-1,19 L-8,20 L-9,19 L-9,13 L-4,5 L-1,2 Z " fill="#DFDFDF" transform="translate(16,4)"/>
<path d="M0,0 L1,0 L0,8 L-4,13 L-11,14 L-11,9 L-9,8 L-9,10 L-3,5 Z " fill="#EDEDED" transform="translate(19,10)"/>
<path d="M0,0 L2,0 L1,6 L-4,11 L-6,11 L-4,5 Z " fill="#181818" transform="translate(16,9)"/>
</svg>
