<?xml version="1.0" encoding="UTF-8"?>
<svg version="1.1" xmlns="http://www.w3.org/2000/svg" width="28" height="28">
<path d="M0,0 L28,0 L28,28 L0,28 Z " fill="#020202" transform="translate(0,0)"/>
<path d="M0,0 L5,1 L8,5 L10,10 L10,15 L5,20 L-2,19 L-4,16 L-3,7 L-1,2 Z " fill="#DBDBDB" transform="translate(12,4)"/>
<path d="M0,0 L2,1 L4,5 L4,12 L2,14 L-3,14 L-4,13 L-3,4 L-2,2 L0,2 Z " fill="#0C0C0C" transform="translate(15,7)"/>
<path d="M0,0 L4,4 L7,6 L1,6 L0,5 Z " fill="#EDEDED" transform="translate(9,17)"/>
</svg>
