<?xml version="1.0" encoding="UTF-8"?>
<svg version="1.1" xmlns="http://www.w3.org/2000/svg" width="28" height="28">
<path d="M0,0 L28,0 L28,28 L0,28 Z " fill="#010101" transform="translate(0,0)"/>
<path d="M0,0 L4,1 L8,4 L7,11 L1,16 L-3,18 L-9,18 L-12,15 L-11,10 L-5,3 Z " fill="#E5E5E5" transform="translate(16,5)"/>
<path d="M0,0 L5,2 L6,4 L5,7 L-3,12 L-8,11 L-7,6 Z " fill="#0F0F0F" transform="translate(15,9)"/>
<path d="M0,0 L3,1 L4,5 L9,5 L9,6 L3,6 L0,3 Z " fill="#BDBDBD" transform="translate(4,17)"/>
</svg>
