<?xml version="1.0" encoding="UTF-8"?>
<svg version="1.1" xmlns="http://www.w3.org/2000/svg" width="28" height="28">
<path d="M0,0 L28,0 L28,28 L0,28 Z " fill="#010101" transform="translate(0,0)"/>
<path d="M0,0 L3,0 L3,4 L1,4 L1,13 L-6,19 L-12,20 L-13,19 L-12,12 L-8,6 Z " fill="#DADADA" transform="translate(19,4)"/>
<path d="M0,0 L1,3 L-3,9 L2,7 L6,5 L6,8 L-1,13 L-6,12 L-5,5 Z " fill="#DFDFDF" transform="translate(12,11)"/>
<path d="M0,0 L1,0 L1,6 L-5,11 L-8,10 L-3,2 Z " fill="#0E0E0E" transform="translate(16,10)"/>
</svg>
