<?xml version="1.0" encoding="UTF-8"?>
<svg version="1.1" xmlns="http://www.w3.org/2000/svg" width="28" height="28">
<path d="M0,0 L28,0 L28,28 L0,28 Z " fill="#030303" transform="translate(0,0)"/>
<path d="M0,0 L5,1 L6,5 L2,15 L-2,19 L-5,20 L-14,20 L-14,13 L-5,4 Z " fill="#EAEAEA" transform="translate(18,4)"/>
<path d="M0,0 L5,1 L6,5 L4,9 L3,4 L-1,7 L-3,7 L-3,9 L-9,14 L-12,14 L-11,10 Z " fill="#EDEDED" transform="translate(18,4)"/>
<path d="M0,0 L2,0 L1,4 L-3,10 L-7,12 L-10,12 L-8,7 L-5,4 L-3,4 L-3,2 Z " fill="#141414" transform="translate(18,9)"/>
<path d="M0,0 L3,0 L4,3 L3,5 L5,6 L1,6 L-1,8 L-1,1 Z " fill="#C3C3C3" transform="translate(5,16)"/>
</svg>
