<?xml version="1.0" encoding="UTF-8"?>
<svg version="1.1" xmlns="http://www.w3.org/2000/svg" width="28" height="28">
<path d="M0,0 L28,0 L28,28 L0,28 Z " fill="#020202" transform="translate(0,0)"/>
<path d="M0,0 L2,0 L2,7 L-3,15 L-8,18 L-16,17 L-18,16 L-17,11 L-9,5 Z " fill="#E4E4E4" transform="translate(22,5)"/>
<path d="M0,0 L2,0 L1,5 L-4,10 L-11,10 L-11,7 L-6,3 Z " fill="#0F0F0F" transform="translate(19,10)"/>
<path d="M0,0 Z M-2,1 L1,2 L-2,5 L-4,6 L-6,9 L-5,4 Z " fill="#D0D0D0" transform="translate(10,12)"/>
</svg>
