<?xml version="1.0" encoding="UTF-8"?>
<svg version="1.1" xmlns="http://www.w3.org/2000/svg" width="28" height="28">
<path d="M0,0 L28,0 L28,28 L0,28 Z " fill="#020202" transform="translate(0,0)"/>
<path d="M0,0 L2,0 L2,3 L0,3 L-1,9 L-2,6 L-9,10 L-11,10 L-11,13 L-13,13 L-13,15 L-15,15 L-15,17 L-7,15 L-7,11 L-1,11 L-1,13 L-3,13 L-3,15 L-9,19 L-15,20 L-17,19 L-16,12 L-12,10 L-11,7 Z " fill="#E0E0E0" transform="translate(22,4)"/>
<path d="M0,0 L3,0 L4,5 L-2,5 L-2,9 L-5,11 L-10,11 L-10,9 L-8,9 L-8,7 L-6,7 L-6,4 Z " fill="#202020" transform="translate(17,10)"/>
</svg>
