<?xml version="1.0" encoding="UTF-8"?>
<svg version="1.1" xmlns="http://www.w3.org/2000/svg" width="28" height="28">
<path d="M0,0 L28,0 L28,28 L0,28 Z " fill="#040404" transform="translate(0,0)"/>
<path d="M0,0 L2,0 L2,8 L-2,14 L-8,19 L-13,20 L-14,19 L-13,12 L-9,6 L-3,1 Z " fill="#E5E5E5" transform="translate(20,4)"/>
<path d="M0,0 L1,3 L-7,10 L-12,11 L-13,7 L-11,6 L-11,8 L-8,8 L-8,6 L-4,4 Z " fill="#F2F2F2" transform="translate(19,13)"/>
<path d="M0,0 L2,0 L0,6 L-5,9 L-7,9 L-5,5 Z " fill="#1D1D1D" transform="translate(16,11)"/>
</svg>
