<?xml version="1.0" encoding="UTF-8"?>
<svg version="1.1" xmlns="http://www.w3.org/2000/svg" width="28" height="28">
<path d="M0,0 L28,0 L28,28 L0,28 Z " fill="#050505" transform="translate(0,0)"/>
<path d="M0,0 L5,1 L6,4 L1,14 L-4,18 L-13,19 L-14,14 L-10,8 L-4,3 L-2,3 L-2,1 Z " fill="#E5E5E5" transform="translate(18,5)"/>
<path d="M0,0 L1,3 L-4,8 L-8,10 L-14,10 L-15,5 L-12,4 L-12,7 L-4,3 Z " fill="#F0F0F0" transform="translate(19,14)"/>
<path d="M0,0 L2,0 L0,5 L-5,9 L-9,9 L-7,4 Z " fill="#121212" transform="translate(17,11)"/>
</svg>
