<?xml version="1.0" encoding="UTF-8"?>
<svg version="1.1" xmlns="http://www.w3.org/2000/svg" width="28" height="28">
<path d="M0,0 L28,0 L28,28 L0,28 Z " fill="#030303" transform="translate(0,0)"/>
<path d="M0,0 L5,1 L12,6 L13,13 L8,17 L-3,17 L-7,14 L-7,7 L-3,2 Z " fill="#040404" transform="translate(12,5)"/>
<path d="M0,0 L5,1 L12,6 L13,13 L8,17 L-3,17 L-7,14 L-7,7 L-3,2 Z M1,3 L-3,5 L-4,7 L-4,13 L-2,15 L7,15 L10,13 L10,8 L6,4 Z " fill="#CDCDCD" transform="translate(12,5)"/>
<path d="M0,0 L3,0 L3,2 L-1,6 L-2,11 L-4,10 L-3,3 Z " fill="#EAEAEA" transform="translate(9,7)"/>
</svg>
