<?xml version="1.0" encoding="UTF-8"?>
<svg version="1.1" xmlns="http://www.w3.org/2000/svg" width="28" height="28">
<path d="M0,0 L28,0 L28,28 L0,28 Z " fill="#020202" transform="translate(0,0)"/>
<path d="M0,0 L6,0 L9,3 L8,10 L5,16 L0,19 L-7,19 L-11,16 L-10,9 L-6,4 L-4,4 L-4,2 Z " fill="#E4E4E4" transform="translate(16,5)"/>
<path d="M0,0 L5,0 L4,8 L0,12 L-8,13 L-9,8 L-4,3 L0,2 Z " fill="#0A0A0A" transform="translate(17,8)"/>
<path d="M0,0 L6,0 L9,3 L7,4 L6,6 L6,3 L1,3 Z " fill="#B9B9B9" transform="translate(16,5)"/>
</svg>
