<?xml version="1.0" encoding="UTF-8"?>
<svg version="1.1" xmlns="http://www.w3.org/2000/svg" width="28" height="28">
<path d="M0,0 L28,0 L28,28 L0,28 Z " fill="#020202" transform="translate(0,0)"/>
<path d="M0,0 L6,0 L9,2 L8,7 L-1,13 L-8,14 L-11,13 L-10,7 L-2,1 Z " fill="#DFDFDF" transform="translate(16,7)"/>
<path d="M0,0 L5,1 L3,5 L-4,9 L-10,9 L-8,5 L-3,1 Z " fill="#0B0B0B" transform="translate(18,9)"/>
<path d="M0,0 L6,0 L9,2 L8,7 L7,3 L0,1 Z " fill="#CECECE" transform="translate(16,7)"/>
</svg>
