<?xml version="1.0" encoding="UTF-8"?>
<svg version="1.1" xmlns="http://www.w3.org/2000/svg" width="28" height="28">
<path d="M0,0 L28,0 L28,28 L0,28 Z " fill="#010101" transform="translate(0,0)"/>
<path d="M0,0 L5,1 L9,7 L11,10 L10,17 L7,20 L0,20 L-5,14 L-5,7 L-2,1 Z " fill="#070707" transform="translate(12,4)"/>
<path d="M0,0 L5,1 L9,7 L11,10 L10,17 L7,20 L0,20 L-5,14 L-5,7 L-2,1 Z M1,2 L-2,7 L-2,14 L1,18 L7,18 L9,16 L9,10 L5,6 L3,6 L4,2 Z " fill="#C6C6C6" transform="translate(12,4)"/>
<path d="M0,0 L2,1 L1,8 L-2,11 L-9,11 L-12,8 L-11,6 L-8,8 L-2,8 L-1,7 Z " fill="#DEDEDE" transform="translate(21,13)"/>
</svg>
