<?xml version="1.0" encoding="UTF-8"?>
<svg version="1.1" xmlns="http://www.w3.org/2000/svg" width="28" height="28">
<path d="M0,0 L28,0 L28,28 L0,28 Z " fill="#010101" transform="translate(0,0)"/>
<path d="M0,0 L10,1 L15,6 L16,8 L16,16 L12,20 L4,20 L-2,16 L-4,13 L-4,5 Z " fill="#040404" transform="translate(8,4)"/>
<path d="M0,0 L10,1 L15,6 L16,8 L16,16 L12,20 L4,20 L-2,16 L-4,13 L-4,5 Z M2,2 L-2,8 L-1,14 L3,17 L12,17 L14,14 L13,7 L10,4 Z " fill="#D9D9D9" transform="translate(8,4)"/>
<path d="M0,0 L3,3 L4,10 L1,10 L0,8 Z " fill="#C4C4C4" transform="translate(4,9)"/>
</svg>
