<?xml version="1.0" encoding="UTF-8"?>
<svg version="1.1" xmlns="http://www.w3.org/2000/svg" width="28" height="28">
<path d="M0,0 L28,0 L28,28 L0,28 Z " fill="#020202" transform="translate(0,0)"/>
<path d="M0,0 L3,2 L2,12 L-4,20 L-10,20 L-12,18 L-12,11 L-8,5 L-5,2 Z " fill="#0A0A0A" transform="translate(19,4)"/>
<path d="M0,0 L3,2 L2,12 L-4,20 L-10,20 L-12,18 L-12,11 L-8,5 L-5,2 Z M-2,3 L-7,7 L-10,11 L-10,18 L-3,17 L1,10 L1,3 Z " fill="#C6C6C6" transform="translate(19,4)"/>
<path d="M0,0 L3,2 L2,12 L-1,15 L1,3 L-3,2 Z " fill="#E6E6E6" transform="translate(19,4)"/>
</svg>
