<?xml version="1.0" encoding="UTF-8"?>
<svg version="1.1" xmlns="http://www.w3.org/2000/svg" width="28" height="28">
<path d="M0,0 L28,0 L28,28 L0,28 Z " fill="#020202" transform="translate(0,0)"/>
<path d="M0,0 L5,1 L8,3 L7,12 L4,17 L-1,20 L-6,20 L-8,17 L-8,12 L-2,5 L1,3 Z " fill="#E4E4E4" transform="translate(14,4)"/>
<path d="M0,0 L1,2 L4,1 L3,7 L-1,10 L-5,10 L-4,5 Z " fill="#0D0D0D" transform="translate(14,11)"/>
<path d="M0,0 L5,1 L8,3 L7,12 L4,11 L3,6 L0,4 Z " fill="#BFBFBF" transform="translate(14,4)"/>
</svg>
