<?xml version="1.0" encoding="UTF-8"?>
<svg version="1.1" xmlns="http://www.w3.org/2000/svg" width="28" height="28">
<path d="M0,0 L28,0 L28,28 L0,28 Z " fill="#050505" transform="translate(0,0)"/>
<path d="M0,0 L6,1 L7,3 L5,4 L7,8 L6,14 L2,18 L0,19 L-10,19 L-13,14 L-11,7 L-5,2 Z " fill="#0F0F0F" transform="translate(17,5)"/>
<path d="M0,0 L6,1 L7,3 L5,4 L7,8 L6,14 L2,18 L0,19 L-10,19 L-13,14 L-11,7 L-5,2 Z M-5,5 L-11,11 L-10,16 L-7,18 L0,17 L3,14 L5,11 L4,7 L3,5 L-2,6 L-3,9 L-5,9 L-4,5 Z " fill="#D5D5D5" transform="translate(17,5)"/>
<path d="M0,0 L2,0 L2,6 L5,8 L13,8 L12,10 L2,10 L-1,5 Z " fill="#F4F4F4" transform="translate(5,14)"/>
</svg>
