<?xml version="1.0" encoding="UTF-8"?>
<svg version="1.1" xmlns="http://www.w3.org/2000/svg" width="28" height="28">
<path d="M0,0 L28,0 L28,28 L0,28 Z " fill="#020202" transform="translate(0,0)"/>
<path d="M0,0 L5,0 L5,2 L9,4 L11,8 L10,13 L5,18 L-2,20 L-8,17 L-9,13 L-5,3 Z " fill="#E5E5E5" transform="translate(13,4)"/>
<path d="M0,0 L3,4 L4,11 L0,15 L-6,14 L-7,13 L-6,6 L-5,3 Z " fill="#050505" transform="translate(15,6)"/>
<path d="M0,0 L5,0 L4,5 L2,3 L-3,5 L-5,14 L-8,12 L-5,3 Z " fill="#CBCBCB" transform="translate(13,4)"/>
</svg>
