<?xml version="1.0" encoding="UTF-8"?>
<svg version="1.1" xmlns="http://www.w3.org/2000/svg" width="28" height="28">
<path d="M0,0 L28,0 L28,28 L0,28 Z " fill="#020202" transform="translate(0,0)"/>
<path d="M0,0 L7,2 L7,5 L5,5 L6,7 L6,14 L1,20 L-4,20 L-6,18 L-6,10 L-3,2 Z " fill="#E3E3E3" transform="translate(15,4)"/>
<path d="M0,0 L5,1 L6,2 L6,9 L1,11 L0,13 L-2,12 L-1,9 L-1,2 Z " fill="#171717" transform="translate(13,9)"/>
<path d="M0,0 Z M-2,1 L0,2 L-2,12 L-4,8 L-3,3 Z " fill="#C5C5C5" transform="translate(14,5)"/>
</svg>
