<?xml version="1.0" encoding="UTF-8"?>
<svg version="1.1" xmlns="http://www.w3.org/2000/svg" width="28" height="28">
<path d="M0,0 L28,0 L28,28 L0,28 Z " fill="#030303" transform="translate(0,0)"/>
<path d="M0,0 L7,1 L12,9 L11,14 L6,19 L-3,20 L-8,16 L-8,7 Z " fill="#0A0A0A" transform="translate(14,4)"/>
<path d="M0,0 L7,1 L12,9 L11,14 L6,19 L-3,20 L-8,16 L-8,7 Z M2,2 L0,6 L-4,7 L-5,8 L-5,15 L-3,17 L5,17 L9,12 L8,6 L3,2 Z " fill="#EDEDED" transform="translate(14,4)"/>
<path d="M0,0 L7,1 L12,9 L11,14 L9,12 L6,5 L2,3 L0,5 L-3,4 Z " fill="#D5D5D5" transform="translate(14,4)"/>
</svg>
