<?xml version="1.0" encoding="UTF-8"?>
<svg version="1.1" xmlns="http://www.w3.org/2000/svg" width="28" height="28">
<path d="M0,0 L28,0 L28,28 L0,28 Z " fill="#010101" transform="translate(0,0)"/>
<path d="M0,0 L5,1 L8,4 L7,8 L0,12 L-10,13 L-12,12 L-11,7 L-2,1 Z " fill="#E5E5E5" transform="translate(16,8)"/>
<path d="M0,0 L3,0 L4,3 L-6,8 L-9,8 L-7,4 Z " fill="#0D0D0D" transform="translate(17,11)"/>
<path d="M0,0 L4,1 L1,2 L-3,6 L-9,11 L-10,10 L-12,12 L-11,7 L-2,1 Z " fill="#CFCFCF" transform="translate(16,8)"/>
</svg>
