<?xml version="1.0" encoding="UTF-8"?>
<svg version="1.1" xmlns="http://www.w3.org/2000/svg" width="28" height="28">
<path d="M0,0 L28,0 L28,28 L0,28 Z " fill="#020202" transform="translate(0,0)"/>
<path d="M0,0 L4,1 L6,2 L5,11 L3,11 L1,15 L-9,20 L-14,18 L-13,12 L-2,1 Z " fill="#D5D5D5" transform="translate(18,5)"/>
<path d="M0,0 L4,1 L3,7 L-2,11 L-6,13 L-10,13 L-10,8 L-2,1 Z " fill="#090909" transform="translate(17,9)"/>
<path d="M0,0 L2,3 L8,4 L4,7 L-1,5 Z " fill="#F0F0F0" transform="translate(5,18)"/>
</svg>
