<?xml version="1.0" encoding="UTF-8"?>
<svg version="1.1" xmlns="http://www.w3.org/2000/svg" width="28" height="28">
<path d="M0,0 L28,0 L28,28 L0,28 Z " fill="#030303" transform="translate(0,0)"/>
<path d="M0,0 L5,1 L6,6 L1,11 L-7,16 L-14,16 L-13,11 L-8,6 Z " fill="#E0E0E0" transform="translate(18,6)"/>
<path d="M0,0 L2,1 L1,4 L-6,10 L1,8 L2,10 L-3,13 L-10,13 L-9,8 L-4,3 Z " fill="#E9E9E9" transform="translate(14,9)"/>
<path d="M0,0 L2,0 L0,5 L-9,10 L-11,9 L-2,1 Z " fill="#1A1A1A" transform="translate(18,10)"/>
</svg>
