<?xml version="1.0" encoding="UTF-8"?>
<svg version="1.1" xmlns="http://www.w3.org/2000/svg" width="28" height="28">
<path d="M0,0 L28,0 L28,28 L0,28 Z " fill="#020202" transform="translate(0,0)"/>
<path d="M0,0 L4,1 L9,6 L9,12 L4,16 L-4,20 L-9,19 L-11,16 L-11,11 L-6,6 L-1,2 Z " fill="#EAEAEA" transform="translate(15,4)"/>
<path d="M0,0 L5,0 L6,1 L6,6 L-3,12 L-8,12 L-8,7 L-3,2 Z " fill="#141414" transform="translate(15,9)"/>
<path d="M0,0 L2,1 L1,4 L-1,4 L-2,6 L-6,9 L-5,5 Z " fill="#CECECE" transform="translate(10,9)"/>
</svg>
