<?xml version="1.0" encoding="UTF-8"?>
<svg version="1.1" xmlns="http://www.w3.org/2000/svg" width="28" height="28">
<path d="M0,0 L28,0 L28,28 L0,28 Z " fill="#020202" transform="translate(0,0)"/>
<path d="M0,0 L5,1 L7,3 L8,7 L8,14 L3,19 L2,20 L-4,20 L-8,17 L-9,12 L-6,5 Z " fill="#090909" transform="translate(14,4)"/>
<path d="M0,0 L5,1 L7,3 L8,7 L8,14 L3,19 L2,20 L-4,20 L-8,17 L-9,12 L-6,5 Z M0,2 L-6,10 L-6,16 L-4,18 L2,18 L5,14 L5,4 L3,2 Z " fill="#DFDFDF" transform="translate(14,4)"/>
<path d="M0,0 L1,0 L2,9 L-3,13 L-9,13 L-13,10 L-14,5 L-11,5 L-9,10 L-3,10 L-1,7 Z " fill="#C1C1C1" transform="translate(19,11)"/>
</svg>
