<?xml version="1.0" encoding="UTF-8"?>
<svg version="1.1" xmlns="http://www.w3.org/2000/svg" width="28" height="28">
<path d="M0,0 L28,0 L28,28 L0,28 Z " fill="#030303" transform="translate(0,0)"/>
<path d="M0,0 L6,1 L11,7 L10,14 L3,18 L-6,17 L-9,13 L-9,8 L-3,1 Z " fill="#ECECEC" transform="translate(14,5)"/>
<path d="M0,0 L3,0 L4,7 L-1,12 L-10,13 L-14,11 L-14,9 L-4,7 L-1,4 Z " fill="#EFEFEF" transform="translate(21,10)"/>
<path d="M0,0 L4,1 L3,7 L-2,10 L-8,10 L-7,5 L-3,2 L0,2 Z " fill="#0A0A0A" transform="translate(17,9)"/>
</svg>
