<?xml version="1.0" encoding="UTF-8"?>
<svg version="1.1" xmlns="http://www.w3.org/2000/svg" width="28" height="28">
<path d="M0,0 L28,0 L28,28 L0,28 Z " fill="#020202" transform="translate(0,0)"/>
<path d="M0,0 L4,0 L4,2 L7,3 L7,13 L2,18 L-3,20 L-10,19 L-12,15 L-11,10 L-6,3 Z " fill="#EAEAEA" transform="translate(17,4)"/>
<path d="M0,0 L5,0 L6,2 L6,8 L1,13 L0,14 L-6,14 L-8,10 L-7,7 L-5,7 L-5,5 L1,5 L1,3 L-1,3 Z " fill="#0D0D0D" transform="translate(16,7)"/>
<path d="M0,0 L4,0 L4,2 L7,3 L7,13 L5,9 L4,3 L-3,2 Z " fill="#CDCDCD" transform="translate(17,4)"/>
</svg>
