<?xml version="1.0" encoding="UTF-8"?>
<svg version="1.1" xmlns="http://www.w3.org/2000/svg" width="28" height="28">
<path d="M0,0 L28,0 L28,28 L0,28 Z " fill="#010101" transform="translate(0,0)"/>
<path d="M0,0 L5,1 L9,7 L8,16 L5,20 L0,19 L-2,16 L-2,4 Z " fill="#0B0B0B" transform="translate(12,4)"/>
<path d="M0,0 L5,1 L9,7 L8,16 L5,20 L0,19 L-2,16 L-2,4 Z M1,2 L-1,6 L-1,13 L1,18 L5,17 L7,14 L7,7 L5,2 Z " fill="#D1D1D1" transform="translate(12,4)"/>
<path d="M0,0 L5,1 L1,3 L0,6 L-2,6 Z " fill="#C8C8C8" transform="translate(12,4)"/>
</svg>
