<?xml version="1.0" encoding="UTF-8"?>
<svg version="1.1" xmlns="http://www.w3.org/2000/svg" width="28" height="28">
<path d="M0,0 L28,0 L28,28 L0,28 Z " fill="#030303" transform="translate(0,0)"/>
<path d="M0,0 L9,1 L12,5 L11,12 L8,17 L-1,20 L-6,19 L-7,18 L-7,11 L-3,2 Z " fill="#090909" transform="translate(13,5)"/>
<path d="M0,0 L9,1 L12,5 L11,12 L8,17 L-1,20 L-6,19 L-7,18 L-7,11 L-3,2 Z M4,3 L0,5 L0,8 L-3,9 L-5,14 L-5,17 L1,18 L6,16 L9,13 L10,7 L9,4 Z " fill="#E3E3E3" transform="translate(13,5)"/>
<path d="M0,0 L1,4 L-2,10 L-7,13 L-10,12 L-7,10 L-5,10 L-4,7 L-2,7 L-1,1 Z " fill="#C3C3C3" transform="translate(24,11)"/>
</svg>
