<?xml version="1.0" encoding="UTF-8"?>
<svg version="1.1" xmlns="http://www.w3.org/2000/svg" width="28" height="28">
<path d="M0,0 L28,0 L28,28 L0,28 Z " fill="#040404" transform="translate(0,0)"/>
<path d="M0,0 L6,0 L8,2 L8,14 L4,16 L4,18 L1,19 L-7,19 L-11,16 L-10,9 L-7,4 Z " fill="#E7E7E7" transform="translate(15,4)"/>
<path d="M0,0 L4,0 L6,6 L4,11 L2,13 L-4,14 L-7,13 L-7,5 Z " fill="#070707" transform="translate(15,7)"/>
<path d="M0,0 L2,1 L0,10 L-3,7 L-1,2 Z " fill="#C8C8C8" transform="translate(8,8)"/>
</svg>
