<?xml version="1.0" encoding="UTF-8"?>
<svg version="1.1" xmlns="http://www.w3.org/2000/svg" width="28" height="28">
<path d="M0,0 L28,0 L28,28 L0,28 Z " fill="#040404" transform="translate(0,0)"/>
<path d="M0,0 L5,1 L6,3 L6,12 L4,15 L2,15 L2,17 L-4,20 L-9,20 L-9,18 L-11,18 L-11,13 L-7,7 L-2,1 Z " fill="#F2F2F2" transform="translate(16,4)"/>
<path d="M0,0 L2,0 L2,10 L0,10 L0,12 L-6,13 L-8,12 L-7,6 L-5,3 L-2,3 L-2,1 Z " fill="#0B0B0B" transform="translate(16,8)"/>
<path d="M0,0 Z M-2,1 L2,3 L-2,5 L-2,7 L-5,7 L-8,16 L-9,14 L-11,13 L-7,7 Z " fill="#D6D6D6" transform="translate(16,4)"/>
</svg>
