<?xml version="1.0" encoding="UTF-8"?>
<svg version="1.1" xmlns="http://www.w3.org/2000/svg" width="28" height="28">
<path d="M0,0 L28,0 L28,28 L0,28 Z " fill="#020202" transform="translate(0,0)"/>
<path d="M0,0 L5,2 L7,4 L7,12 L3,17 L-3,20 L-8,19 L-10,17 L-10,8 L-7,2 Z " fill="#EFEFEF" transform="translate(16,5)"/>
<path d="M0,0 L1,2 L5,4 L6,10 L2,13 L-2,13 L-3,6 Z " fill="#111111" transform="translate(13,8)"/>
<path d="M0,0 L4,1 L3,4 L-1,4 L-3,5 L-2,1 Z " fill="#D3D3D3" transform="translate(11,6)"/>
</svg>
