<?xml version="1.0" encoding="UTF-8"?>
<svg version="1.1" xmlns="http://www.w3.org/2000/svg" width="28" height="28">
<path d="M0,0 L28,0 L28,28 L0,28 Z " fill="#030303" transform="translate(0,0)"/>
<path d="M0,0 L5,1 L10,6 L10,13 L7,18 L3,20 L-3,20 L-6,17 L-6,8 L-2,2 Z " fill="#060606" transform="translate(14,4)"/>
<path d="M0,0 L5,1 L10,6 L10,13 L7,18 L3,20 L-3,20 L-6,17 L-6,8 L-2,2 Z M0,2 L-4,7 L-4,16 L-2,18 L4,18 L8,14 L8,6 L5,3 Z " fill="#D0D0D0" transform="translate(14,4)"/>
<path d="M0,0 L2,0 L3,2 L3,9 L1,13 L-1,11 L0,10 Z " fill="#A9A9A9" transform="translate(21,8)"/>
</svg>
