<?xml version="1.0" encoding="UTF-8"?>
<svg version="1.1" xmlns="http://www.w3.org/2000/svg" width="28" height="28">
<path d="M0,0 L28,0 L28,28 L0,28 Z " fill="#010101" transform="translate(0,0)"/>
<path d="M0,0 L3,1 L5,6 L5,16 L2,19 L-3,20 L-7,17 L-7,9 L-3,5 L-1,5 Z " fill="#D9D9D9" transform="translate(15,4)"/>
<path d="M0,0 L3,0 L4,8 L2,11 L-3,11 L-5,6 L-4,3 L-2,3 L-2,1 Z " fill="#101010" transform="translate(14,10)"/>
<path d="M0,0 L1,0 L1,10 L-3,13 L-5,11 L-3,11 L-2,8 L0,8 Z " fill="#BBBBBB" transform="translate(19,10)"/>
<path d="M0,0 L3,4 L8,6 L4,8 L0,5 Z " fill="#F0F0F0" transform="translate(8,16)"/>
</svg>
