<?xml version="1.0" encoding="UTF-8"?>
<svg version="1.1" xmlns="http://www.w3.org/2000/svg" width="28" height="28">
<path d="M0,0 L28,0 L28,28 L0,28 Z " fill="#020202" transform="translate(0,0)"/>
<path d="M0,0 L5,0 L12,5 L12,12 L7,18 L3,20 L-4,19 L-6,17 L-6,8 Z " fill="#D4D4D4" transform="translate(12,5)"/>
<path d="M0,0 L7,2 L8,3 L7,10 L3,13 L-3,13 L-4,12 L-4,4 Z " fill="#030303" transform="translate(13,9)"/>
<path d="M0,0 L1,0 L1,7 L7,9 L3,11 L-1,8 L-1,1 Z " fill="#F4F4F4" transform="translate(7,14)"/>
</svg>
