<?xml version="1.0" encoding="UTF-8"?>
<svg version="1.1" xmlns="http://www.w3.org/2000/svg" width="28" height="28">
<path d="M0,0 L28,0 L28,28 L0,28 Z " fill="#020202" transform="translate(0,0)"/>
<path d="M0,0 L7,0 L12,5 L10,11 L5,15 L3,16 L-5,16 L-8,13 L-8,7 Z " fill="#E5E5E5" transform="translate(13,6)"/>
<path d="M0,0 L5,1 L7,2 L6,7 L1,11 L-6,12 L-7,11 L-7,6 L-4,5 L-2,1 Z " fill="#0D0D0D" transform="translate(15,8)"/>
<path d="M0,0 L2,1 L-1,4 L0,6 L-6,8 L-4,4 Z " fill="#CCCCCC" transform="translate(11,7)"/>
</svg>
