<?xml version="1.0" encoding="UTF-8"?>
<svg version="1.1" xmlns="http://www.w3.org/2000/svg" width="28" height="28">
<path d="M0,0 L28,0 L28,28 L0,28 Z " fill="#020202" transform="translate(0,0)"/>
<path d="M0,0 L7,0 L10,6 L9,13 L5,18 L2,20 L-5,19 L-8,16 L-7,7 L-2,2 Z " fill="#E7E7E7" transform="translate(14,5)"/>
<path d="M0,0 L7,1 L8,2 L7,9 L3,13 L-4,12 L-5,9 L-1,1 Z " fill="#050505" transform="translate(13,9)"/>
<path d="M0,0 L4,2 L5,8 L2,14 L-3,18 L-8,18 L-8,15 L0,13 L1,3 Z " fill="#D5D5D5" transform="translate(19,7)"/>
<path d="M0,0 L5,0 L5,3 L5,5 L0,4 L-2,2 Z " fill="#F4F4F4" transform="translate(16,5)"/>
<path d="M0,0 L2,1 L2,4 L-1,5 L-4,8 L-6,6 L-1,1 Z " fill="#CCCCCC" transform="translate(14,5)"/>
<path d="M0,0 L4,2 L5,8 L2,9 L1,2 Z " fill="#ADADAD" transform="translate(19,7)"/>
</svg>
