<?xml version="1.0" encoding="UTF-8"?>
<svg version="1.1" xmlns="http://www.w3.org/2000/svg" width="28" height="28">
<path d="M0,0 L28,0 L28,28 L0,28 Z " fill="#020202" transform="translate(0,0)"/>
<path d="M0,0 L6,0 L7,1 L7,7 L9,7 L9,17 L6,20 L-1,20 L-5,16 L-6,14 L-6,8 L-3,2 Z " fill="#CFCFCF" transform="translate(12,4)"/>
<path d="M0,0 L3,1 L5,5 L6,11 L4,15 L-1,16 L-4,13 L-4,4 Z " fill="#0D0D0D" transform="translate(13,6)"/>
<path d="M0,0 L4,4 L4,14 L1,17 L-6,17 L-7,15 L0,13 L1,7 L-2,1 Z " fill="#ECECEC" transform="translate(17,7)"/>
</svg>
