<?xml version="1.0" encoding="UTF-8"?>
<svg version="1.1" xmlns="http://www.w3.org/2000/svg" width="28" height="28">
<path d="M0,0 L28,0 L28,28 L0,28 Z " fill="#050505" transform="translate(0,0)"/>
<path d="M0,0 L2,1 L1,2 L8,5 L8,11 L4,16 L0,18 L-11,18 L-12,13 L-9,6 L-3,1 Z " fill="#F0F0F0" transform="translate(16,4)"/>
<path d="M0,0 L1,3 L7,3 L8,7 L3,10 L-4,11 L-6,10 L-5,5 Z " fill="#141414" transform="translate(13,8)"/>
<path d="M0,0 L2,1 L-2,5 L-6,7 L-9,13 L-11,9 L-6,3 Z " fill="#D2D2D2" transform="translate(16,4)"/>
</svg>
