<?xml version="1.0" encoding="UTF-8"?>
<svg version="1.1" xmlns="http://www.w3.org/2000/svg" width="28" height="28">
<path d="M0,0 L28,0 L28,28 L0,28 Z " fill="#030303" transform="translate(0,0)"/>
<path d="M0,0 L6,1 L9,4 L9,13 L6,18 L1,20 L-4,19 L-7,16 L-7,7 L-2,1 Z " fill="#070707" transform="translate(14,4)"/>
<path d="M0,0 L6,1 L9,4 L9,13 L6,18 L1,20 L-4,19 L-7,16 L-7,7 L-2,1 Z M1,2 L-4,7 L-5,13 L-3,17 L3,17 L6,14 L7,12 L7,5 L3,2 Z " fill="#E0E0E0" transform="translate(14,4)"/>
<path d="M0,0 L2,2 L1,7 L-3,11 L-9,12 L-9,9 L-2,8 Z " fill="#C8C8C8" transform="translate(21,12)"/>
</svg>
