<?xml version="1.0" encoding="UTF-8"?>
<svg version="1.1" xmlns="http://www.w3.org/2000/svg" width="28" height="28">
<path d="M0,0 L28,0 L28,28 L0,28 Z " fill="#020202" transform="translate(0,0)"/>
<path d="M0,0 L6,1 L7,3 L7,12 L3,19 L-3,20 L-7,17 L-6,3 Z " fill="#D9D9D9" transform="translate(15,5)"/>
<path d="M0,0 L2,0 L3,2 L3,11 L-1,15 L-6,14 L-5,4 L-3,4 L-3,2 Z " fill="#090909" transform="translate(17,7)"/>
<path d="M0,0 L2,0 L1,8 L-1,9 L-1,2 Z " fill="#F0F0F0" transform="translate(9,13)"/>
</svg>
