<?xml version="1.0" encoding="UTF-8"?>
<svg version="1.1" xmlns="http://www.w3.org/2000/svg" width="28" height="28">
<path d="M0,0 L28,0 L28,28 L0,28 Z " fill="#020202" transform="translate(0,0)"/>
<path d="M0,0 L6,1 L10,6 L11,8 L11,15 L6,20 L0,20 L-3,17 L-5,7 L-3,1 Z " fill="#070707" transform="translate(12,4)"/>
<path d="M0,0 L6,1 L10,6 L11,8 L11,15 L6,20 L0,20 L-3,17 L-5,7 L-3,1 L-1,1 L-2,10 L-2,16 L6,17 L8,14 L7,6 L3,3 L0,2 Z " fill="#D9D9D9" transform="translate(12,4)"/>
<path d="M0,0 L6,1 L10,6 L11,8 L11,15 L9,17 L8,14 L7,6 L3,3 L0,2 Z " fill="#C2C2C2" transform="translate(12,4)"/>
</svg>
