<?xml version="1.0" encoding="UTF-8"?>
<svg version="1.1" xmlns="http://www.w3.org/2000/svg" width="28" height="28">
<path d="M0,0 L28,0 L28,28 L0,28 Z " fill="#020202" transform="translate(0,0)"/>
<path d="M0,0 L5,1 L9,6 L9,15 L6,20 L-1,20 L-3,18 L-3,9 L-2,2 Z " fill="#E6E6E6" transform="translate(12,4)"/>
<path d="M0,0 L1,0 L1,8 L5,9 L6,6 L9,5 L8,11 L7,12 L0,12 L-2,10 L-2,1 Z " fill="#ECECEC" transform="translate(11,12)"/>
<path d="M0,0 L3,1 L3,9 L1,12 L-4,11 L-3,4 Z " fill="#0D0D0D" transform="translate(15,9)"/>
</svg>
