<?xml version="1.0" encoding="UTF-8"?>
<svg version="1.1" xmlns="http://www.w3.org/2000/svg" width="28" height="28">
<path d="M0,0 L28,0 L28,28 L0,28 Z " fill="#030303" transform="translate(0,0)"/>
<path d="M0,0 L4,1 L7,6 L7,13 L5,17 L0,20 L-6,20 L-7,19 L-7,7 L-2,1 Z " fill="#0D0D0D" transform="translate(15,4)"/>
<path d="M0,0 L4,1 L7,6 L7,13 L5,17 L0,20 L-6,20 L-7,19 L-7,7 L-2,1 Z M-1,3 L-5,8 L-5,18 L1,17 L5,13 L5,6 L3,3 Z " fill="#EAEAEA" transform="translate(15,4)"/>
<path d="M0,0 L4,2 L0,4 L-2,7 L-3,16 L-4,16 L-5,6 Z " fill="#C6C6C6" transform="translate(13,5)"/>
</svg>
