<?xml version="1.0" encoding="UTF-8"?>
<svg version="1.1" xmlns="http://www.w3.org/2000/svg" width="28" height="28">
<path d="M0,0 L28,0 L28,28 L0,28 Z " fill="#040404" transform="translate(0,0)"/>
<path d="M0,0 L5,0 L6,3 L3,12 L1,12 L1,14 L-6,18 L-12,17 L-14,16 L-13,11 L-8,5 Z " fill="#DFDFDF" transform="translate(18,6)"/>
<path d="M0,0 L5,0 L6,3 L3,12 L1,12 L1,14 L-6,18 L-12,17 L-14,16 L-12,12 L-11,15 L-2,12 L0,9 L1,3 L-1,2 Z " fill="#EFEFEF" transform="translate(18,6)"/>
<path d="M0,0 L1,0 L1,5 L-4,10 L-10,10 L-8,6 L-2,1 Z " fill="#0E0E0E" transform="translate(18,10)"/>
</svg>
