<?xml version="1.0" encoding="UTF-8"?>
<svg version="1.1" xmlns="http://www.w3.org/2000/svg" width="28" height="28">
<path d="M0,0 L28,0 L28,28 L0,28 Z " fill="#020202" transform="translate(0,0)"/>
<path d="M0,0 L7,1 L10,5 L10,12 L5,18 L0,20 L-7,19 L-9,18 L-10,9 L-6,3 Z " fill="#040404" transform="translate(14,5)"/>
<path d="M0,0 L7,1 L10,5 L10,12 L5,18 L0,20 L-7,19 L-9,18 L-10,9 L-6,3 Z M-2,3 L-7,8 L-7,16 L-1,18 L6,14 L7,12 L7,5 L4,3 L4,5 L1,5 L1,3 Z " fill="#D4D4D4" transform="translate(14,5)"/>
</svg>
