<?xml version="1.0" encoding="UTF-8"?>
<svg version="1.1" xmlns="http://www.w3.org/2000/svg" width="28" height="28">
<path d="M0,0 L28,0 L28,28 L0,28 Z " fill="#020202" transform="translate(0,0)"/>
<path d="M0,0 L6,0 L9,2 L10,10 L8,15 L1,18 L-7,18 L-10,15 L-9,9 L-4,3 Z " fill="#0B0B0B" transform="translate(14,5)"/>
<path d="M0,0 L6,0 L9,2 L10,10 L8,15 L1,18 L-7,18 L-10,15 L-9,9 L-4,3 Z M0,3 L-5,8 L-7,11 L-7,15 L2,16 L7,12 L7,4 L6,3 Z " fill="#D6D6D6" transform="translate(14,5)"/>
<path d="M0,0 L5,1 L7,2 L8,10 L6,12 L5,5 L-2,3 Z " fill="#F1F1F1" transform="translate(16,5)"/>
</svg>
