<?xml version="1.0" encoding="UTF-8"?>
<svg version="1.1" xmlns="http://www.w3.org/2000/svg" width="28" height="28">
<path d="M0,0 L28,0 L28,28 L0,28 Z " fill="#030303" transform="translate(0,0)"/>
<path d="M0,0 L4,1 L4,3 L7,4 L8,7 L8,14 L4,17 L-8,17 L-12,13 L-10,7 L-3,1 Z " fill="#EBEBEB" transform="translate(16,5)"/>
<path d="M0,0 L5,0 L7,2 L7,9 L3,11 L-4,11 L-7,9 L-5,4 L-3,2 L0,2 Z " fill="#080808" transform="translate(14,9)"/>
<path d="M0,0 L4,1 L4,3 L7,4 L8,7 L8,14 L4,17 L-3,16 L1,14 L4,13 L4,6 L0,4 Z " fill="#C4C4C4" transform="translate(16,5)"/>
<path d="M0,0 L4,1 L4,3 L6,4 L4,6 L0,4 Z " fill="#C3C3C3" transform="translate(16,5)"/>
<path d="M0,0 L2,0 L3,8 L1,8 Z " fill="#FAFAFA" transform="translate(21,9)"/>
</svg>
