<?xml version="1.0" encoding="UTF-8"?>
<svg version="1.1" xmlns="http://www.w3.org/2000/svg" width="28" height="28">
<path d="M0,0 L28,0 L28,28 L0,28 Z " fill="#030303" transform="translate(0,0)"/>
<path d="M0,0 L5,2 L7,4 L7,9 L2,17 L-3,20 L-7,18 L-5,8 L-1,3 Z " fill="#DCDCDC" transform="translate(15,4)"/>
<path d="M0,0 L1,4 L1,7 L6,2 L8,1 L7,5 L5,9 L0,12 L-4,10 L-3,2 Z " fill="#EAEAEA" transform="translate(12,12)"/>
<path d="M0,0 L2,0 L2,5 L0,5 L-2,10 L-5,12 L-4,5 Z " fill="#161616" transform="translate(17,8)"/>
</svg>
