<?xml version="1.0" encoding="UTF-8"?>
<svg version="1.1" xmlns="http://www.w3.org/2000/svg" width="28" height="28">
<path d="M0,0 L28,0 L28,28 L0,28 Z " fill="#020202" transform="translate(0,0)"/>
<path d="M0,0 L5,0 L9,4 L12,11 L11,18 L9,20 L3,20 L0,17 L-1,14 L-1,1 Z " fill="#C9C9C9" transform="translate(10,4)"/>
<path d="M0,0 L5,1 L8,6 L8,14 L2,14 L0,7 Z " fill="#090909" transform="translate(11,7)"/>
<path d="M0,0 L5,0 L6,4 L1,3 L2,16 L-1,14 L-1,1 Z " fill="#EAEAEA" transform="translate(10,4)"/>
<path d="M0,0 L1,0 L2,7 L0,9 L-4,9 L-4,7 L-1,6 Z " fill="#E4E4E4" transform="translate(19,15)"/>
</svg>
