<?xml version="1.0" encoding="UTF-8"?>
<svg version="1.1" xmlns="http://www.w3.org/2000/svg" width="28" height="28">
<path d="M0,0 L28,0 L28,28 L0,28 Z " fill="#030303" transform="translate(0,0)"/>
<path d="M0,0 L4,1 L3,3 L-3,4 L-5,8 L-6,15 L-4,16 L1,15 L3,8 L-3,9 L-1,5 L5,5 L6,6 L6,13 L-1,19 L-8,20 L-10,18 L-10,9 L-6,2 Z " fill="#ECECEC" transform="translate(17,4)"/>
<path d="M0,0 L2,2 L-2,4 L-3,6 L3,5 L2,10 L-1,13 L-5,14 L-7,12 L-6,5 L-3,1 Z " fill="#1A1A1A" transform="translate(17,7)"/>
<path d="M0,0 L6,0 L7,1 L7,8 L4,7 L4,3 L-2,4 Z " fill="#CACACA" transform="translate(16,9)"/>
</svg>
