<?xml version="1.0" encoding="UTF-8"?>
<svg version="1.1" xmlns="http://www.w3.org/2000/svg" width="28" height="28">
<path d="M0,0 L28,0 L28,28 L0,28 Z " fill="#020202" transform="translate(0,0)"/>
<path d="M0,0 L9,1 L12,5 L11,12 L7,16 L1,18 L-5,18 L-8,16 L-7,7 Z " fill="#070707" transform="translate(13,6)"/>
<path d="M0,0 L9,1 L12,5 L11,12 L7,16 L1,18 L-5,18 L-8,16 L-7,7 Z M3,3 L1,7 L2,9 L0,8 L-2,5 L-6,11 L-5,16 L4,15 L9,12 L10,11 L10,4 L9,3 Z " fill="#CECECE" transform="translate(13,6)"/>
<path d="M0,0 L8,1 L6,3 L2,4 L-1,4 L-3,3 Z " fill="#E4E4E4" transform="translate(13,6)"/>
</svg>
