<?xml version="1.0" encoding="UTF-8"?>
<svg version="1.1" xmlns="http://www.w3.org/2000/svg" width="28" height="28">
<path d="M0,0 L28,0 L28,28 L0,28 Z " fill="#030303" transform="translate(0,0)"/>
<path d="M0,0 L9,1 L16,9 L17,11 L17,19 L15,20 L9,20 L1,14 L-1,11 L-1,1 Z " fill="#E6E6E6" transform="translate(7,4)"/>
<path d="M0,0 L5,2 L9,7 L10,13 L3,13 L-3,9 L-4,3 Z " fill="#080808" transform="translate(12,7)"/>
<path d="M0,0 L4,2 L10,10 L9,14 L7,11 L3,5 L-1,2 Z " fill="#CECECE" transform="translate(14,5)"/>
</svg>
