<?xml version="1.0" encoding="UTF-8"?>
<svg version="1.1" xmlns="http://www.w3.org/2000/svg" width="28" height="28">
<path d="M0,0 L28,0 L28,28 L0,28 Z " fill="#030303" transform="translate(0,0)"/>
<path d="M0,0 L3,0 L3,4 L5,4 L5,12 L1,16 L-1,16 L-1,18 L-5,20 L-12,20 L-14,15 L-10,8 L-8,8 L-8,6 Z " fill="#EDEDED" transform="translate(18,4)"/>
<path d="M0,0 L3,4 L2,8 L-3,12 L-9,12 L-7,8 Z " fill="#111111" transform="translate(17,8)"/>
<path d="M0,0 L2,1 L0,6 L-7,13 L-11,14 L-9,9 L-8,7 L-6,7 L-6,5 Z M-12,14 Z " fill="#D7D7D7" transform="translate(16,5)"/>
</svg>
