<?xml version="1.0" encoding="UTF-8"?>
<svg version="1.1" xmlns="http://www.w3.org/2000/svg" width="28" height="28">
<path d="M0,0 L28,0 L28,28 L0,28 Z " fill="#020202" transform="translate(0,0)"/>
<path d="M0,0 L5,2 L9,6 L11,11 L11,16 L8,20 L1,19 L-5,10 L-5,3 Z " fill="#EAEAEA" transform="translate(12,5)"/>
<path d="M0,0 L1,2 L3,2 L7,6 L11,6 L12,2 L15,3 L15,8 L12,12 L5,11 L0,4 Z " fill="#EDEDED" transform="translate(8,13)"/>
<path d="M0,0 L5,2 L7,4 L6,9 L0,8 L-3,4 L-2,1 Z " fill="#141414" transform="translate(13,11)"/>
</svg>
