<?xml version="1.0" encoding="UTF-8"?>
<svg version="1.1" xmlns="http://www.w3.org/2000/svg" width="28" height="28">
<path d="M0,0 L28,0 L28,28 L0,28 Z " fill="#020202" transform="translate(0,0)"/>
<path d="M0,0 L4,2 L7,4 L7,12 L3,17 L-4,20 L-10,20 L-12,18 L-12,12 L-8,6 Z " fill="#0F0F0F" transform="translate(17,4)"/>
<path d="M0,0 L4,2 L7,4 L7,12 L3,17 L-4,20 L-10,20 L-12,18 L-12,12 L-8,6 Z M-1,3 L-8,11 L-9,17 L-4,18 L3,14 L5,12 L5,6 L2,5 L2,3 Z " fill="#DBDBDB" transform="translate(17,4)"/>
<path d="M0,0 L2,0 L2,6 L-1,9 L-1,6 Z " fill="#F8F8F8" transform="translate(22,10)"/>
<path d="M0,0 L5,3 L5,5 L0,4 L0,2 L-2,1 Z " fill="#CDCDCD" transform="translate(19,5)"/>
</svg>
