<?xml version="1.0" encoding="UTF-8"?>
<svg version="1.1" xmlns="http://www.w3.org/2000/svg" width="28" height="28">
<path d="M0,0 L28,0 L28,28 L0,28 Z " fill="#040404" transform="translate(0,0)"/>
<path d="M0,0 L6,1 L8,4 L8,12 L6,16 L4,16 L4,18 L1,20 L-6,20 L-11,15 L-11,10 L-6,4 Z " fill="#0A0A0A" transform="translate(16,4)"/>
<path d="M0,0 L6,1 L8,4 L8,12 L6,16 L4,16 L4,18 L1,20 L-6,20 L-11,15 L-11,10 L-6,4 Z M0,3 L-5,6 L-8,10 L-8,15 L-5,17 L1,17 L7,10 L6,5 L4,3 Z " fill="#E2E2E2" transform="translate(16,4)"/>
<path d="M0,0 L2,1 L3,3 L-4,6 L-6,4 Z " fill="#C6C6C6" transform="translate(16,4)"/>
</svg>
