<?xml version="1.0" encoding="UTF-8"?>
<svg version="1.1" xmlns="http://www.w3.org/2000/svg" width="28" height="28">
<path d="M0,0 L28,0 L28,28 L0,28 Z " fill="#020202" transform="translate(0,0)"/>
<path d="M0,0 L3,0 L3,12 L0,17 L-2,19 L-12,20 L-13,19 L-13,13 L-7,6 L-5,6 L-5,4 L-3,4 L-3,2 Z " fill="#E4E4E4" transform="translate(19,4)"/>
<path d="M0,0 L1,0 L1,5 L-2,8 L-12,9 L-13,4 L-9,1 L-9,4 L-3,4 Z " fill="#EEEEEE" transform="translate(19,15)"/>
<path d="M0,0 L3,0 L1,7 L0,8 L-7,8 L-4,3 Z " fill="#141414" transform="translate(16,12)"/>
</svg>
