<?xml version="1.0" encoding="UTF-8"?>
<svg version="1.1" xmlns="http://www.w3.org/2000/svg" width="28" height="28">
<path d="M0,0 L28,0 L28,28 L0,28 Z " fill="#010101" transform="translate(0,0)"/>
<path d="M0,0 L5,0 L5,2 L8,3 L10,6 L10,12 L2,19 L0,20 L-6,20 L-8,17 L-8,11 L-3,3 Z " fill="#CECECE" transform="translate(14,4)"/>
<path d="M0,0 L1,3 L5,1 L8,4 L7,8 L-1,12 L-4,12 L-3,5 Z " fill="#0B0B0B" transform="translate(13,9)"/>
<path d="M0,0 L1,0 L1,6 L10,5 L6,9 L0,9 L-2,6 L-1,1 Z " fill="#EDEDED" transform="translate(8,15)"/>
<path d="M0,0 L5,0 L6,7 L3,6 L2,2 L-1,1 Z " fill="#F2F2F2" transform="translate(17,7)"/>
<path d="M0,0 L2,0 L2,2 L4,3 L0,4 L2,5 L1,7 L-3,8 L-2,3 Z " fill="#9C9C9C" transform="translate(17,4)"/>
</svg>
