<?xml version="1.0" encoding="UTF-8"?>
<svg version="1.1" xmlns="http://www.w3.org/2000/svg" width="28" height="28">
<path d="M0,0 L28,0 L28,28 L0,28 Z " fill="#020202" transform="translate(0,0)"/>
<path d="M0,0 L5,1 L2,2 L5,7 L4,12 L3,15 L1,15 L1,17 L-4,20 L-9,20 L-11,18 L-10,13 L-6,5 Z " fill="#E4E4E4" transform="translate(17,4)"/>
<path d="M0,0 L5,1 L2,2 L5,7 L4,11 L2,11 L1,7 L-2,9 L-5,9 L-7,14 L-10,15 L-8,8 L-2,1 Z " fill="#ECECEC" transform="translate(17,4)"/>
<path d="M0,0 L1,3 L-2,9 L-5,11 L-8,11 L-7,5 L-6,3 Z " fill="#151515" transform="translate(18,10)"/>
</svg>
