<?xml version="1.0" encoding="UTF-8"?>
<svg version="1.1" xmlns="http://www.w3.org/2000/svg" width="28" height="28">
<path d="M0,0 L28,0 L28,28 L0,28 Z " fill="#030303" transform="translate(0,0)"/>
<path d="M0,0 L5,1 L8,6 L11,8 L12,14 L7,20 L2,20 L-2,15 L-4,7 L-2,2 Z " fill="#D6D6D6" transform="translate(11,4)"/>
<path d="M0,0 L4,0 L5,5 L9,6 L9,12 L6,15 L2,14 L-1,9 L-1,1 Z " fill="#080808" transform="translate(11,7)"/>
<path d="M0,0 L2,4 L6,12 L7,14 L3,13 L0,8 L-1,2 Z " fill="#EEEEEE" transform="translate(8,9)"/>
</svg>
