<?xml version="1.0" encoding="UTF-8"?>
<svg version="1.1" xmlns="http://www.w3.org/2000/svg" width="28" height="28">
<path d="M0,0 L28,0 L28,28 L0,28 Z " fill="#020202" transform="translate(0,0)"/>
<path d="M0,0 L6,2 L12,6 L12,15 L8,20 L1,20 L-3,16 L-4,14 L-4,6 L-1,1 Z " fill="#060606" transform="translate(11,4)"/>
<path d="M0,0 L6,2 L12,6 L12,15 L8,20 L1,20 L-3,16 L-4,14 L-4,6 L-1,1 Z M-1,4 L-2,6 L-2,13 L0,17 L7,18 L10,15 L10,6 L5,4 Z " fill="#D1D1D1" transform="translate(11,4)"/>
<path d="M0,0 L6,2 L7,4 L-1,4 L-2,15 L-4,14 L-4,6 L-1,1 Z " fill="#EBEBEB" transform="translate(11,4)"/>
</svg>
