<?xml version="1.0" encoding="UTF-8"?>
<svg version="1.1" xmlns="http://www.w3.org/2000/svg" width="28" height="28">
<path d="M0,0 L28,0 L28,28 L0,28 Z " fill="#030303" transform="translate(0,0)"/>
<path d="M0,0 L2,0 L7,5 L10,10 L10,18 L9,18 L8,12 L4,16 L-4,19 L-9,18 L-10,17 L-10,12 L-3,3 Z " fill="#CECECE" transform="translate(15,4)"/>
<path d="M0,0 L6,3 L5,8 L1,11 L-7,12 L-5,5 Z " fill="#090909" transform="translate(15,8)"/>
<path d="M0,0 L1,4 L8,4 L7,6 L0,7 L-2,5 L-1,1 Z " fill="#F7F7F7" transform="translate(7,16)"/>
<path d="M0,0 L2,0 L3,3 L0,5 L-6,8 L-4,4 Z " fill="#A6A6A6" transform="translate(15,4)"/>
</svg>
