<?xml version="1.0" encoding="UTF-8"?>
<svg version="1.1" xmlns="http://www.w3.org/2000/svg" width="28" height="28">
<path d="M0,0 L28,0 L28,28 L0,28 Z " fill="#040404" transform="translate(0,0)"/>
<path d="M0,0 L8,0 L11,1 L12,3 L12,11 L7,16 L5,16 L5,18 L0,20 L-5,20 L-6,19 L-5,10 L-3,10 L-3,8 L-1,8 L0,4 L2,3 L0,2 Z " fill="#E6E6E6" transform="translate(11,5)"/>
<path d="M0,0 L3,1 L4,7 L-3,13 L-10,14 L-7,7 Z " fill="#060606" transform="translate(17,8)"/>
<path d="M0,0 L3,1 L-1,5 L-3,5 L-3,7 L-7,5 L-1,1 Z " fill="#BDBDBD" transform="translate(19,16)"/>
</svg>
