<?xml version="1.0" encoding="UTF-8"?>
<svg version="1.1" xmlns="http://www.w3.org/2000/svg" width="28" height="28">
<path d="M0,0 L28,0 L28,28 L0,28 Z " fill="#030303" transform="translate(0,0)"/>
<path d="M0,0 L3,1 L1,4 L7,5 L11,7 L12,15 L8,19 L5,20 L-4,20 L-8,16 L-7,10 L-2,2 Z " fill="#EBEBEB" transform="translate(13,3)"/>
<path d="M0,0 L7,3 L10,5 L10,10 L6,12 L-3,12 L-4,8 Z " fill="#0D0D0D" transform="translate(12,8)"/>
<path d="M0,0 L3,1 L1,4 L4,5 L-1,6 L-4,14 L-5,19 L-8,16 L-7,10 L-2,2 Z " fill="#DFDFDF" transform="translate(13,3)"/>
<path d="M0,0 L3,1 L1,4 L4,5 L-2,5 L-4,6 L-2,2 Z " fill="#BEBEBE" transform="translate(13,3)"/>
</svg>
