<?xml version="1.0" encoding="UTF-8"?>
<svg version="1.1" xmlns="http://www.w3.org/2000/svg" width="28" height="28">
<path d="M0,0 L28,0 L28,28 L0,28 Z " fill="#020202" transform="translate(0,0)"/>
<path d="M0,0 L8,1 L12,5 L12,13 L8,18 L4,20 L-3,20 L-6,16 L-5,8 L-2,2 Z " fill="#090909" transform="translate(12,4)"/>
<path d="M0,0 L8,1 L12,5 L12,13 L8,18 L4,20 L-3,20 L-6,16 L-5,8 L-2,2 Z M1,2 L-4,11 L-3,17 L5,17 L10,12 L10,6 L6,2 L4,2 L4,4 L2,4 Z " fill="#D5D5D5" transform="translate(12,4)"/>
</svg>
