<?xml version="1.0" encoding="UTF-8"?>
<svg version="1.1" xmlns="http://www.w3.org/2000/svg" width="28" height="28">
<path d="M0,0 L28,0 L28,28 L0,28 Z " fill="#020202" transform="translate(0,0)"/>
<path d="M0,0 L9,0 L10,3 L12,3 L13,6 L13,13 L7,20 L1,20 L-3,16 L-4,14 L-4,5 L-2,1 Z " fill="#090909" transform="translate(10,5)"/>
<path d="M0,0 L9,0 L10,3 L12,3 L13,6 L13,13 L7,20 L1,20 L-3,16 L-4,14 L-4,5 L-2,1 Z M4,2 L-1,4 L-1,14 L1,17 L7,17 L11,11 L9,4 Z " fill="#E8E8E8" transform="translate(10,5)"/>
<path d="M0,0 L9,0 L10,3 L12,3 L13,7 L11,7 L10,9 L8,4 L4,3 L-1,5 L-2,6 L-3,14 L-4,14 L-4,5 L-2,1 Z " fill="#CECECE" transform="translate(10,5)"/>
</svg>
