<?xml version="1.0" encoding="UTF-8"?>
<svg version="1.1" xmlns="http://www.w3.org/2000/svg" width="28" height="28">
<path d="M0,0 L28,0 L28,28 L0,28 Z " fill="#020202" transform="translate(0,0)"/>
<path d="M0,0 L7,1 L10,5 L11,15 L6,20 L-1,20 L-5,18 L-5,16 L-7,16 L-9,13 L-8,8 L-5,3 Z " fill="#E1E1E1" transform="translate(13,4)"/>
<path d="M0,0 L2,1 L0,4 L2,2 L7,3 L8,6 L8,14 L1,15 L-5,10 L-4,4 Z " fill="#101010" transform="translate(12,6)"/>
<path d="M0,0 L7,1 L7,2 L-1,3 L-4,5 L-4,2 Z " fill="#B8B8B8" transform="translate(13,4)"/>
</svg>
