<?xml version="1.0" encoding="UTF-8"?>
<svg version="1.1" xmlns="http://www.w3.org/2000/svg" width="28" height="28">
<path d="M0,0 L28,0 L28,28 L0,28 Z " fill="#020202" transform="translate(0,0)"/>
<path d="M0,0 L4,1 L3,7 L-4,16 L-10,20 L-14,20 L-14,13 L-10,7 L-2,1 Z " fill="#DEDEDE" transform="translate(20,5)"/>
<path d="M0,0 L3,0 L1,5 L-5,12 L-11,15 L-10,9 L-6,4 L-1,6 L-1,4 L-3,4 L-2,1 Z " fill="#111111" transform="translate(19,8)"/>
<path d="M0,0 L3,0 L1,5 L-1,7 L-1,4 L-3,4 L-2,1 Z " fill="#2C2C2C" transform="translate(19,8)"/>
</svg>
