<?xml version="1.0" encoding="UTF-8"?>
<svg version="1.1" xmlns="http://www.w3.org/2000/svg" width="28" height="28">
<path d="M0,0 L28,0 L28,28 L0,28 Z " fill="#020202" transform="translate(0,0)"/>
<path d="M0,0 L5,1 L7,4 L6,12 L1,18 L-3,20 L-9,20 L-12,18 L-13,12 L-10,7 L-4,2 Z " fill="#090909" transform="translate(17,5)"/>
<path d="M0,0 L5,1 L7,4 L6,12 L1,18 L-3,20 L-9,20 L-12,18 L-13,12 L-10,7 L-4,2 Z M1,2 L-3,4 L-11,11 L-11,16 L-9,18 L-1,17 L3,12 L4,10 L4,3 Z " fill="#E5E5E5" transform="translate(17,5)"/>
<path d="M0,0 L1,0 L0,8 L-5,14 L-9,16 L-15,16 L-18,13 L-15,13 L-7,12 L-1,3 Z " fill="#CACACA" transform="translate(23,9)"/>
</svg>
