<?xml version="1.0" encoding="UTF-8"?>
<svg version="1.1" xmlns="http://www.w3.org/2000/svg" width="28" height="28">
<path d="M0,0 L28,0 L28,28 L0,28 Z " fill="#020202" transform="translate(0,0)"/>
<path d="M0,0 L8,0 L14,7 L15,13 L11,19 L3,20 L-2,16 L-3,12 L-3,3 Z " fill="#050505" transform="translate(9,4)"/>
<path d="M0,0 L8,0 L14,7 L15,13 L11,19 L3,20 L-2,16 L-3,12 L-3,3 Z M3,2 L0,4 L0,14 L2,17 L9,16 L11,15 L12,8 L7,2 Z " fill="#D9D9D9" transform="translate(9,4)"/>
<path d="M0,0 L1,0 L2,9 L4,12 L13,11 L10,16 L3,15 L0,12 L-1,8 L-1,1 Z " fill="#E7E7E7" transform="translate(7,8)"/>
<path d="M0,0 L2,1 L1,4 L0,13 L-1,13 L-2,5 L-2,2 Z " fill="#A3A3A3" transform="translate(9,4)"/>
</svg>
