<?xml version="1.0" encoding="UTF-8"?>
<svg version="1.1" xmlns="http://www.w3.org/2000/svg" width="28" height="28">
<path d="M0,0 L28,0 L28,28 L0,28 Z " fill="#020202" transform="translate(0,0)"/>
<path d="M0,0 L4,1 L6,3 L6,14 L2,18 L-2,20 L-7,20 L-11,15 L-10,7 L-6,3 L-3,4 Z " fill="#0E0E0E" transform="translate(17,4)"/>
<path d="M0,0 L4,1 L6,3 L6,14 L2,18 L-2,20 L-7,20 L-11,15 L-10,7 L-6,3 L-3,4 L-3,9 L-5,10 L-5,6 L-7,5 L-8,15 L-6,17 L1,16 L3,14 L4,6 L3,3 L0,3 L-2,5 L-1,1 Z " fill="#DADADA" transform="translate(17,4)"/>
</svg>
