<?xml version="1.0" encoding="UTF-8"?>
<svg version="1.1" xmlns="http://www.w3.org/2000/svg" width="28" height="28">
<path d="M0,0 L28,0 L28,28 L0,28 Z " fill="#010101" transform="translate(0,0)"/>
<path d="M0,0 L5,1 L6,4 L6,11 L4,16 L2,16 L2,18 L-4,20 L-9,19 L-10,18 L-10,13 L-4,4 Z " fill="#D7D7D7" transform="translate(16,4)"/>
<path d="M0,0 L2,0 L3,5 L-1,11 L-7,13 L-8,10 L-7,8 L-5,8 L-4,4 Z " fill="#101010" transform="translate(17,8)"/>
<path d="M0,0 L2,3 L7,3 L7,6 L0,7 L-1,6 L-1,1 Z " fill="#F0F0F0" transform="translate(8,17)"/>
</svg>
