<?xml version="1.0" encoding="UTF-8"?>
<svg version="1.1" xmlns="http://www.w3.org/2000/svg" width="28" height="28">
<path d="M0,0 L28,0 L28,28 L0,28 Z " fill="#040404" transform="translate(0,0)"/>
<path d="M0,0 L5,1 L8,4 L7,10 L4,15 L-2,18 L-11,18 L-12,17 L-11,9 L-9,9 L-7,5 Z " fill="#DEDEDE" transform="translate(16,5)"/>
<path d="M0,0 L1,0 L0,7 L-4,11 L-8,13 L-17,13 L-18,12 L-18,7 L-14,5 L-14,9 L-8,8 L-3,3 Z " fill="#E6E6E6" transform="translate(22,10)"/>
<path d="M0,0 L3,1 L2,5 L-3,10 L-9,11 L-10,8 L-8,8 L-6,4 Z " fill="#0C0C0C" transform="translate(17,9)"/>
</svg>
