<?xml version="1.0" encoding="UTF-8"?>
<svg version="1.1" xmlns="http://www.w3.org/2000/svg" width="28" height="28">
<path d="M0,0 L28,0 L28,28 L0,28 Z " fill="#040404" transform="translate(0,0)"/>
<path d="M0,0 L1,0 L1,10 L-2,16 L-8,20 L-14,20 L-16,17 L-16,12 L-10,4 L-7,2 L-2,2 L-1,3 Z " fill="#DFDFDF" transform="translate(22,4)"/>
<path d="M0,0 L4,0 L3,7 L-3,12 L-9,12 L-8,7 Z " fill="#0E0E0E" transform="translate(17,9)"/>
<path d="M0,0 L2,4 L5,5 L5,7 L0,6 L-1,1 Z " fill="#F7F7F7" transform="translate(7,17)"/>
</svg>
