<?xml version="1.0" encoding="UTF-8"?>
<svg version="1.1" xmlns="http://www.w3.org/2000/svg" width="28" height="28">
<path d="M0,0 L28,0 L28,28 L0,28 Z " fill="#030303" transform="translate(0,0)"/>
<path d="M0,0 L5,1 L7,2 L7,6 L5,6 L5,15 L1,19 L-6,20 L-11,18 L-13,16 L-12,9 L-4,2 Z " fill="#0A0A0A" transform="translate(17,4)"/>
<path d="M0,0 L5,1 L7,2 L7,6 L5,6 L5,15 L1,19 L-6,20 L-11,18 L-13,16 L-12,9 L-4,2 Z M0,3 L0,5 L-5,6 L-11,12 L-9,16 L-8,17 L1,17 L4,13 L4,4 Z " fill="#DADADA" transform="translate(17,4)"/>
</svg>
