<?xml version="1.0" encoding="UTF-8"?>
<svg version="1.1" xmlns="http://www.w3.org/2000/svg" width="28" height="28">
<path d="M0,0 L28,0 L28,28 L0,28 Z " fill="#030303" transform="translate(0,0)"/>
<path d="M0,0 L4,1 L4,3 L6,3 L6,12 L3,16 L-5,19 L-12,19 L-14,18 L-14,12 L-9,7 Z " fill="#E9E9E9" transform="translate(19,4)"/>
<path d="M0,0 L3,1 L4,6 L2,10 L-3,13 L-11,14 L-13,13 L-12,9 L-4,3 L-1,2 Z " fill="#0C0C0C" transform="translate(20,7)"/>
<path d="M0,0 L4,1 L5,6 L1,3 L0,6 L-6,7 L-5,4 Z " fill="#F3F3F3" transform="translate(19,4)"/>
<path d="M0,0 L1,0 L1,9 L-2,13 L-6,12 L-2,10 Z " fill="#A2A2A2" transform="translate(24,7)"/>
</svg>
