<?xml version="1.0" encoding="UTF-8"?>
<svg version="1.1" xmlns="http://www.w3.org/2000/svg" width="28" height="28">
<path d="M0,0 L28,0 L28,28 L0,28 Z " fill="#040404" transform="translate(0,0)"/>
<path d="M0,0 L6,0 L8,3 L7,12 L4,15 L-5,18 L-11,18 L-12,17 L-12,11 L-2,2 L0,2 Z " fill="#E3E3E3" transform="translate(16,5)"/>
<path d="M0,0 L2,0 L2,8 L-6,12 L-12,12 L-11,8 L-5,4 L-3,1 Z " fill="#080808" transform="translate(19,8)"/>
<path d="M0,0 L1,2 L-4,6 L-10,7 L-10,5 L-13,5 L-12,3 L-6,3 Z " fill="#CFCFCF" transform="translate(19,16)"/>
<path d="M0,0 L0,3 L-2,7 L1,7 L1,9 L-4,8 L-3,3 Z " fill="#F7F7F7" transform="translate(8,14)"/>
</svg>
