<?xml version="1.0" encoding="UTF-8"?>
<svg version="1.1" xmlns="http://www.w3.org/2000/svg" width="28" height="28">
<path d="M0,0 L28,0 L28,28 L0,28 Z " fill="#020202" transform="translate(0,0)"/>
<path d="M0,0 L5,1 L7,4 L6,14 L4,18 L0,20 L-5,19 L-6,17 L-6,8 L-4,3 L-2,3 L-2,1 Z " fill="#0D0D0D" transform="translate(14,5)"/>
<path d="M0,0 L5,1 L7,4 L6,14 L4,18 L0,20 L-5,19 L-6,17 L-6,8 L-4,3 L-2,3 L-2,1 Z M-1,3 L-4,9 L-4,16 L-2,18 L2,17 L5,13 L5,4 Z " fill="#D9D9D9" transform="translate(14,5)"/>
<path d="M0,0 L5,1 L1,2 L0,6 L-3,6 L-2,2 L0,2 Z " fill="#BEBEBE" transform="translate(12,6)"/>
<path d="M0,0 L5,1 L6,2 L6,7 L5,4 L3,4 L3,2 L0,2 Z " fill="#EAEAEA" transform="translate(14,5)"/>
</svg>
