<?xml version="1.0" encoding="UTF-8"?>
<svg version="1.1" xmlns="http://www.w3.org/2000/svg" width="28" height="28">
<path d="M0,0 L28,0 L28,28 L0,28 Z " fill="#030303" transform="translate(0,0)"/>
<path d="M0,0 L5,1 L3,8 L-1,12 L-8,15 L-14,15 L-15,11 L-9,4 L-4,1 Z " fill="#EAEAEA" transform="translate(20,7)"/>
<path d="M0,0 L2,0 L1,5 L-3,9 L-8,11 L-12,11 L-10,7 L-3,1 Z " fill="#0F0F0F" transform="translate(20,9)"/>
<path d="M0,0 L2,0 L0,7 L-4,11 L-9,13 L-11,11 L-4,8 Z " fill="#D1D1D1" transform="translate(23,8)"/>
</svg>
