<?xml version="1.0" encoding="UTF-8"?>
<svg version="1.1" xmlns="http://www.w3.org/2000/svg" width="28" height="28">
<path d="M0,0 L28,0 L28,28 L0,28 Z " fill="#020202" transform="translate(0,0)"/>
<path d="M0,0 L6,1 L9,5 L9,11 L4,15 L-2,18 L-10,18 L-11,11 L-9,11 L-8,8 L-1,2 Z " fill="#DBDBDB" transform="translate(15,5)"/>
<path d="M0,0 L3,0 L5,5 L0,10 L-2,11 L-9,11 L-8,8 L-6,8 L-6,6 L-4,6 L-4,4 L-2,4 Z " fill="#171717" transform="translate(17,8)"/>
<path d="M0,0 L5,3 L6,5 L6,11 L1,15 L-2,14 L3,8 L2,3 L-2,4 Z " fill="#F3F3F3" transform="translate(18,5)"/>
</svg>
