<?xml version="1.0" encoding="UTF-8"?>
<svg version="1.1" xmlns="http://www.w3.org/2000/svg" width="28" height="28">
<path d="M0,0 L28,0 L28,28 L0,28 Z " fill="#040404" transform="translate(0,0)"/>
<path d="M0,0 L6,0 L9,4 L10,12 L3,17 L0,17 L0,19 L-8,19 L-10,16 L-6,12 L-4,12 L-4,9 L-1,6 L1,6 L1,4 L-1,4 L-2,1 Z " fill="#E1E1E1" transform="translate(14,4)"/>
<path d="M0,0 L2,0 L0,6 L-3,9 L4,6 L9,5 L10,3 L10,6 L4,10 L1,10 L1,12 L-7,12 L-9,9 L-5,5 L-3,5 L-3,2 Z " fill="#EBEBEB" transform="translate(13,11)"/>
<path d="M0,0 L2,0 L3,7 L-4,11 L-8,11 L-7,8 L-5,8 L-4,4 Z " fill="#191919" transform="translate(18,9)"/>
</svg>
