<?xml version="1.0" encoding="UTF-8"?>
<svg version="1.1" xmlns="http://www.w3.org/2000/svg" width="28" height="28">
<path d="M0,0 L28,0 L28,28 L0,28 Z " fill="#030303" transform="translate(0,0)"/>
<path d="M0,0 L5,0 L7,2 L6,11 L3,18 L0,20 L-6,19 L-7,15 L-6,8 L-3,3 Z " fill="#EBEBEB" transform="translate(14,4)"/>
<path d="M0,0 L1,0 L0,9 L-3,14 L-5,14 L-6,8 L-2,1 Z " fill="#0D0D0D" transform="translate(16,7)"/>
<path d="M0,0 L2,1 L2,4 L-1,7 L-3,10 L-6,8 L-3,3 Z " fill="#C9C9C9" transform="translate(14,4)"/>
</svg>
