<?xml version="1.0" encoding="UTF-8"?>
<svg version="1.1" xmlns="http://www.w3.org/2000/svg" width="28" height="28">
<path d="M0,0 L28,0 L28,28 L0,28 Z " fill="#010101" transform="translate(0,0)"/>
<path d="M0,0 L5,0 L8,3 L9,6 L9,15 L5,20 L0,20 L-3,16 L-3,5 Z " fill="#080808" transform="translate(12,4)"/>
<path d="M0,0 L5,0 L8,3 L9,6 L9,15 L5,20 L0,20 L-3,16 L-3,5 Z M1,2 L1,6 L-1,6 L-1,15 L1,18 L5,17 L7,15 L7,6 L5,2 Z " fill="#E2E2E2" transform="translate(12,4)"/>
<path d="M0,0 L5,0 L8,3 L7,6 L5,3 L1,2 L1,6 L-1,6 L-1,13 L-2,13 L-3,5 Z " fill="#C2C2C2" transform="translate(12,4)"/>
</svg>
