<?xml version="1.0" encoding="UTF-8"?>
<svg version="1.1" xmlns="http://www.w3.org/2000/svg" width="28" height="28">
<path d="M0,0 L28,0 L28,28 L0,28 Z " fill="#020202" transform="translate(0,0)"/>
<path d="M0,0 L8,0 L9,4 L11,9 L10,14 L5,18 L-3,19 L-7,16 L-7,9 Z " fill="#D6D6D6" transform="translate(13,5)"/>
<path d="M0,0 L4,2 L6,4 L6,9 L3,12 L-4,13 L-6,11 L-5,5 Z " fill="#0F0F0F" transform="translate(15,8)"/>
<path d="M0,0 L1,0 L3,6 L10,5 L14,3 L14,6 L10,9 L2,10 L-1,8 L-1,1 Z " fill="#F0F0F0" transform="translate(8,14)"/>
<path d="M0,0 L2,3 L1,8 L-1,6 Z M-3,6 L-1,7 L-4,7 Z " fill="#CCCCCC" transform="translate(22,11)"/>
</svg>
