<?xml version="1.0" encoding="UTF-8"?>
<svg version="1.1" xmlns="http://www.w3.org/2000/svg" width="28" height="28">
<path d="M0,0 L28,0 L28,28 L0,28 Z " fill="#040404" transform="translate(0,0)"/>
<path d="M0,0 L4,1 L5,2 L5,12 L4,15 L-1,19 L-9,20 L-12,16 L-12,10 L-9,5 Z " fill="#171717" transform="translate(17,5)"/>
<path d="M0,0 L4,1 L5,2 L5,12 L4,15 L-1,19 L-9,20 L-12,16 L-12,10 L-9,5 Z M-3,4 L-9,9 L-10,14 L-8,18 L-1,17 L3,12 L4,4 L2,7 L1,4 Z " fill="#E5E5E5" transform="translate(17,5)"/>
</svg>
