<?xml version="1.0" encoding="UTF-8"?>
<svg version="1.1" xmlns="http://www.w3.org/2000/svg" width="28" height="28">
<path d="M0,0 L28,0 L28,28 L0,28 Z " fill="#030303" transform="translate(0,0)"/>
<path d="M0,0 L4,1 L11,4 L12,5 L11,15 L5,20 L0,19 L-3,16 L-4,13 L-4,4 Z " fill="#D3D3D3" transform="translate(11,5)"/>
<path d="M0,0 L1,3 L3,3 L3,1 L9,0 L11,2 L10,8 L7,13 L2,13 L-1,9 L-1,1 Z " fill="#060606" transform="translate(10,9)"/>
<path d="M0,0 L7,1 L8,3 L0,4 Z " fill="#F6F6F6" transform="translate(12,6)"/>
</svg>
