<?xml version="1.0" encoding="UTF-8"?>
<svg version="1.1" xmlns="http://www.w3.org/2000/svg" width="28" height="28">
<path d="M0,0 L28,0 L28,28 L0,28 Z " fill="#020202" transform="translate(0,0)"/>
<path d="M0,0 L3,1 L5,5 L5,11 L1,16 L-6,20 L-11,20 L-12,16 L-10,11 L-6,5 Z " fill="#E5E5E5" transform="translate(17,4)"/>
<path d="M0,0 L2,1 L2,6 L-6,12 L-13,13 L-14,9 L-10,5 L-11,9 L-3,5 Z " fill="#EAEAEA" transform="translate(19,11)"/>
<path d="M0,0 L5,0 L4,4 L-1,8 L-6,9 L-4,5 L-3,2 Z " fill="#161616" transform="translate(14,11)"/>
</svg>
