<?xml version="1.0" encoding="UTF-8"?>
<svg version="1.1" xmlns="http://www.w3.org/2000/svg" width="28" height="28">
<path d="M0,0 L28,0 L28,28 L0,28 Z " fill="#030303" transform="translate(0,0)"/>
<path d="M0,0 L5,0 L8,3 L7,11 L2,16 L-5,20 L-10,19 L-9,12 L-8,10 L-6,10 L-5,6 Z " fill="#E0E0E0" transform="translate(15,4)"/>
<path d="M0,0 L1,0 L0,8 L-5,13 L-12,17 L-16,17 L-16,14 L-9,11 L-6,10 L-4,6 L-1,5 Z " fill="#ECECEC" transform="translate(22,7)"/>
<path d="M0,0 L4,1 L2,6 L-3,11 L-8,12 L-6,6 L-4,6 L-2,1 Z " fill="#151515" transform="translate(16,8)"/>
</svg>
