<?xml version="1.0" encoding="UTF-8"?>
<svg version="1.1" xmlns="http://www.w3.org/2000/svg" width="28" height="28">
<path d="M0,0 L28,0 L28,28 L0,28 Z " fill="#020202" transform="translate(0,0)"/>
<path d="M0,0 L10,2 L14,6 L15,12 L10,17 L0,17 L-5,13 L-4,4 Z " fill="#060606" transform="translate(10,6)"/>
<path d="M0,0 L10,2 L14,6 L15,12 L10,17 L0,17 L-5,13 L-4,4 Z M1,4 L-3,7 L-3,12 L0,15 L10,15 L13,12 L12,7 L9,4 Z " fill="#CDCDCD" transform="translate(10,6)"/>
<path d="M0,0 L10,2 L10,3 L1,3 L1,5 L-2,7 L-3,11 L-5,11 L-4,4 Z " fill="#E4E4E4" transform="translate(10,6)"/>
</svg>
