<?xml version="1.0" encoding="UTF-8"?>
<svg version="1.1" xmlns="http://www.w3.org/2000/svg" width="28" height="28">
<path d="M0,0 L28,0 L28,28 L0,28 Z " fill="#020202" transform="translate(0,0)"/>
<path d="M0,0 L4,2 L4,9 L0,15 L-8,20 L-12,19 L-12,13 L-6,3 Z " fill="#E6E6E6" transform="translate(18,4)"/>
<path d="M0,0 L3,0 L2,6 L-5,12 L-9,13 L-6,4 L-1,1 Z " fill="#141414" transform="translate(17,7)"/>
<path d="M0,0 L4,2 L4,3 L-2,5 L-4,7 L-7,7 L-8,12 L-9,17 L-11,17 L-12,13 L-6,3 Z " fill="#C2C2C2" transform="translate(18,4)"/>
</svg>
