<?xml version="1.0" encoding="UTF-8"?>
<svg version="1.1" xmlns="http://www.w3.org/2000/svg" width="28" height="28">
<path d="M0,0 L28,0 L28,28 L0,28 Z " fill="#010101" transform="translate(0,0)"/>
<path d="M0,0 L4,1 L5,2 L4,10 L-2,15 L-5,15 L-5,17 L-9,19 L-15,18 L-14,12 L-8,7 L-3,2 Z " fill="#E7E7E7" transform="translate(19,4)"/>
<path d="M0,0 L3,0 L1,5 L-1,5 L-1,7 L-7,10 L-9,10 L-8,7 L-6,7 L-4,3 L-2,3 L-2,1 Z " fill="#0B0B0B" transform="translate(18,8)"/>
<path d="M0,0 L2,1 L0,2 Z M-2,2 L0,3 L-4,6 Z M-6,6 L-3,7 L-7,9 Z " fill="#353535" transform="translate(16,9)"/>
</svg>
