<?xml version="1.0" encoding="UTF-8"?>
<svg version="1.1" xmlns="http://www.w3.org/2000/svg" width="28" height="28">
<path d="M0,0 L28,0 L28,28 L0,28 Z " fill="#020202" transform="translate(0,0)"/>
<path d="M0,0 L3,0 L1,4 L-2,11 L-8,16 L-13,15 L-13,10 L-7,3 L-4,4 L-5,8 L-7,10 L-3,9 L-3,2 L-1,2 Z " fill="#E6E6E6" transform="translate(21,6)"/>
<path d="M0,0 L3,0 L1,4 L-1,8 L-3,2 L-1,2 Z M-3,7 Z " fill="#DCDCDC" transform="translate(21,6)"/>
<path d="M0,0 L2,0 L1,5 L-5,7 L-3,4 L-1,4 Z " fill="#292929" transform="translate(17,10)"/>
</svg>
