<?xml version="1.0" encoding="UTF-8"?>
<svg version="1.1" xmlns="http://www.w3.org/2000/svg" width="28" height="28">
<path d="M0,0 L28,0 L28,28 L0,28 Z " fill="#020202" transform="translate(0,0)"/>
<path d="M0,0 L4,1 L6,5 L6,11 L2,17 L-2,20 L-7,20 L-10,16 L-9,10 L-4,3 Z " fill="#E9E9E9" transform="translate(16,4)"/>
<path d="M0,0 L2,1 L2,8 L-3,13 L-8,12 L-7,6 L-3,1 Z " fill="#0A0A0A" transform="translate(17,8)"/>
<path d="M0,0 L2,4 L1,9 L-5,14 L-6,12 L-8,11 L-2,8 Z " fill="#CFCFCF" transform="translate(19,10)"/>
</svg>
