<?xml version="1.0" encoding="UTF-8"?>
<svg version="1.1" xmlns="http://www.w3.org/2000/svg" width="28" height="28">
<path d="M0,0 L28,0 L28,28 L0,28 Z " fill="#030303" transform="translate(0,0)"/>
<path d="M0,0 L4,1 L9,7 L8,13 L5,18 L1,20 L-4,19 L-7,16 L-6,7 Z " fill="#E3E3E3" transform="translate(14,5)"/>
<path d="M0,0 L7,0 L9,2 L8,6 L4,12 L-2,12 L-2,4 Z " fill="#0A0A0A" transform="translate(12,10)"/>
<path d="M0,0 L2,1 L1,7 L-1,9 L-3,9 Z " fill="#CDCDCD" transform="translate(21,11)"/>
</svg>
