<?xml version="1.0" encoding="UTF-8"?>
<svg version="1.1" xmlns="http://www.w3.org/2000/svg" width="28" height="28">
<path d="M0,0 L28,0 L28,28 L0,28 Z " fill="#020202" transform="translate(0,0)"/>
<path d="M0,0 L4,1 L10,6 L11,12 L8,18 L5,20 L-1,20 L-4,17 L-5,9 L-3,3 Z " fill="#E2E2E2" transform="translate(12,5)"/>
<path d="M0,0 L2,2 L3,0 L7,1 L7,3 L9,3 L9,9 L5,14 L0,13 L-1,11 L-1,2 Z " fill="#090909" transform="translate(11,9)"/>
<path d="M0,0 L2,2 L1,7 L-3,10 L-9,10 L-9,9 L-4,9 L-2,5 Z " fill="#C6C6C6" transform="translate(20,15)"/>
</svg>
