<?xml version="1.0" encoding="UTF-8"?>
<svg version="1.1" xmlns="http://www.w3.org/2000/svg" width="28" height="28">
<path d="M0,0 L28,0 L28,28 L0,28 Z " fill="#020202" transform="translate(0,0)"/>
<path d="M0,0 L5,1 L6,9 L2,15 L-3,20 L-9,20 L-12,17 L-12,11 L-5,3 Z " fill="#0C0C0C" transform="translate(18,4)"/>
<path d="M0,0 L5,1 L6,9 L2,15 L-3,20 L-9,20 L-12,17 L-12,11 L-5,3 Z M-1,3 L-7,8 L-7,10 L-9,10 L-10,14 L-7,18 L-2,16 L3,11 L4,10 L4,3 Z " fill="#DADADA" transform="translate(18,4)"/>
</svg>
