<?xml version="1.0" encoding="UTF-8"?>
<svg version="1.1" xmlns="http://www.w3.org/2000/svg" width="28" height="28">
<path d="M0,0 L28,0 L28,28 L0,28 Z " fill="#020202" transform="translate(0,0)"/>
<path d="M0,0 L4,0 L4,2 L8,3 L7,13 L4,18 L1,20 L-4,20 L-6,17 L-6,8 L-3,2 Z " fill="#E1E1E1" transform="translate(14,5)"/>
<path d="M0,0 L1,4 L-2,9 L-5,11 L-10,11 L-12,8 L-12,2 L-10,2 L-9,8 L-6,7 L-5,4 Z " fill="#E6E6E6" transform="translate(20,14)"/>
<path d="M0,0 L3,0 L2,6 L-1,7 L-2,11 L-5,11 L-4,2 Z " fill="#090909" transform="translate(16,11)"/>
</svg>
