<?xml version="1.0" encoding="UTF-8"?>
<svg version="1.1" xmlns="http://www.w3.org/2000/svg" width="28" height="28">
<path d="M0,0 L28,0 L28,28 L0,28 Z " fill="#030303" transform="translate(0,0)"/>
<path d="M0,0 L4,1 L6,4 L6,11 L2,18 L-2,20 L-7,19 L-8,17 L-8,10 L-5,5 Z " fill="#EEEEEE" transform="translate(15,5)"/>
<path d="M0,0 L1,0 L1,7 L-2,12 L-7,13 L-7,6 L-3,2 L0,2 Z " fill="#080808" transform="translate(17,9)"/>
<path d="M0,0 L2,2 L2,9 L-2,16 L-5,17 L-8,15 L-4,13 L-2,9 Z " fill="#D3D3D3" transform="translate(19,7)"/>
</svg>
