<?xml version="1.0" encoding="UTF-8"?>
<svg version="1.1" xmlns="http://www.w3.org/2000/svg" width="28" height="28">
<path d="M0,0 L28,0 L28,28 L0,28 Z " fill="#020202" transform="translate(0,0)"/>
<path d="M0,0 L9,0 L12,3 L11,11 L1,19 L-6,19 L-8,15 L-6,6 L-5,4 L-3,4 L-2,1 Z " fill="#060606" transform="translate(13,5)"/>
<path d="M0,0 L9,0 L12,3 L11,11 L1,19 L-6,19 L-8,15 L-6,6 L-5,4 L-3,4 L-2,1 Z M0,3 L-4,7 L-5,16 L0,17 L10,8 L9,3 Z " fill="#E4E4E4" transform="translate(13,5)"/>
<path d="M0,0 L9,2 L9,3 L-2,4 L-4,11 L-6,8 L-5,4 L-3,4 L-2,1 Z " fill="#C7C7C7" transform="translate(13,5)"/>
</svg>
