<?xml version="1.0" encoding="UTF-8"?>
<svg version="1.1" xmlns="http://www.w3.org/2000/svg" width="28" height="28">
<path d="M0,0 L28,0 L28,28 L0,28 Z " fill="#030303" transform="translate(0,0)"/>
<path d="M0,0 L5,0 L8,3 L8,13 L6,13 L6,15 L0,20 L-7,20 L-10,17 L-10,9 L-6,3 Z " fill="#EDEDED" transform="translate(15,5)"/>
<path d="M0,0 L5,2 L6,6 L2,12 L-5,13 L-6,6 L-4,6 L-3,2 Z " fill="#0D0D0D" transform="translate(14,9)"/>
<path d="M0,0 L2,1 L0,6 L-1,9 L-4,8 L-6,9 L-4,4 Z " fill="#D3D3D3" transform="translate(11,7)"/>
</svg>
