<?xml version="1.0" encoding="UTF-8"?>
<svg version="1.1" xmlns="http://www.w3.org/2000/svg" width="28" height="28">
<path d="M0,0 L28,0 L28,28 L0,28 Z " fill="#010101" transform="translate(0,0)"/>
<path d="M0,0 L6,1 L9,5 L9,15 L5,20 L-3,19 L-5,14 L-5,8 L-2,2 Z " fill="#0D0D0D" transform="translate(13,4)"/>
<path d="M0,0 L6,1 L9,5 L9,15 L5,20 L-3,19 L-5,14 L-5,8 L-2,2 Z M3,2 L3,4 L0,3 L-3,9 L-3,16 L-1,18 L6,17 L7,15 L7,5 L5,2 Z " fill="#C0C0C0" transform="translate(13,4)"/>
<path d="M0,0 L1,0 L3,6 L9,7 L9,9 L1,8 L-1,1 Z " fill="#E3E3E3" transform="translate(9,15)"/>
<path d="M0,0 L5,0 L7,2 L6,6 L4,2 L2,1 L2,3 L-1,2 Z " fill="#E2E2E2" transform="translate(14,5)"/>
</svg>
