<?xml version="1.0" encoding="UTF-8"?>
<svg version="1.1" xmlns="http://www.w3.org/2000/svg" width="28" height="28">
<path d="M0,0 L28,0 L28,28 L0,28 Z " fill="#030303" transform="translate(0,0)"/>
<path d="M0,0 L4,1 L4,3 L7,3 L6,10 L3,15 L-2,19 L-8,20 L-9,19 L-9,12 L-6,6 L-1,1 Z " fill="#E7E7E7" transform="translate(16,4)"/>
<path d="M0,0 L5,1 L4,8 L-1,12 L-5,13 L-4,5 Z " fill="#0D0D0D" transform="translate(15,8)"/>
<path d="M0,0 L4,1 L1,6 L-1,7 L-3,10 L-2,3 Z " fill="#C6C6C6" transform="translate(10,10)"/>
</svg>
