<?xml version="1.0" encoding="UTF-8"?>
<svg version="1.1" xmlns="http://www.w3.org/2000/svg" width="28" height="28">
<path d="M0,0 L28,0 L28,28 L0,28 Z " fill="#020202" transform="translate(0,0)"/>
<path d="M0,0 L5,1 L7,4 L7,11 L4,16 L-2,20 L-8,20 L-12,16 L-12,10 L-6,3 Z " fill="#E8E8E8" transform="translate(16,5)"/>
<path d="M0,0 L2,0 L4,3 L6,1 L7,6 L3,11 L-4,12 L-6,10 L-5,4 Z " fill="#080808" transform="translate(13,10)"/>
<path d="M0,0 L2,1 L2,4 L-5,7 L-8,9 L-6,5 Z " fill="#C5C5C5" transform="translate(13,6)"/>
</svg>
