<?xml version="1.0" encoding="UTF-8"?>
<svg version="1.1" xmlns="http://www.w3.org/2000/svg" width="28" height="28">
<path d="M0,0 L28,0 L28,28 L0,28 Z " fill="#020202" transform="translate(0,0)"/>
<path d="M0,0 L5,0 L8,2 L8,8 L3,17 L-2,20 L-7,19 L-8,15 L-2,5 Z " fill="#EBEBEB" transform="translate(14,5)"/>
<path d="M0,0 L1,3 L-3,10 L-9,12 L-8,7 L-5,3 L-3,3 L-3,1 Z " fill="#1A1A1A" transform="translate(18,10)"/>
<path d="M0,0 L1,0 L1,6 L-1,8 L-3,8 L-3,2 L-1,2 Z " fill="#C4C4C4" transform="translate(21,7)"/>
</svg>
