<?xml version="1.0" encoding="UTF-8"?>
<svg version="1.1" xmlns="http://www.w3.org/2000/svg" width="28" height="28">
<path d="M0,0 L28,0 L28,28 L0,28 Z " fill="#020202" transform="translate(0,0)"/>
<path d="M0,0 L5,0 L8,3 L8,13 L4,19 L3,20 L-9,20 L-10,19 L-10,10 L-7,3 L-1,1 Z " fill="#0D0D0D" transform="translate(15,5)"/>
<path d="M0,0 L5,0 L8,3 L8,13 L4,19 L3,20 L-9,20 L-10,19 L-10,10 L-7,3 L-4,3 L-7,10 L-7,16 L-6,18 L0,18 L4,14 L5,12 L5,5 L4,2 L0,5 L-2,9 L-2,2 Z " fill="#DFDFDF" transform="translate(15,5)"/>
</svg>
