<?xml version="1.0" encoding="UTF-8"?>
<svg version="1.1" xmlns="http://www.w3.org/2000/svg" width="28" height="28">
<path d="M0,0 L28,0 L28,28 L0,28 Z " fill="#010101" transform="translate(0,0)"/>
<path d="M0,0 L3,0 L3,2 L8,4 L9,5 L9,13 L6,18 L2,20 L-4,19 L-5,18 L-5,8 L-3,3 L-1,3 Z " fill="#D4D4D4" transform="translate(13,4)"/>
<path d="M0,0 L1,3 L6,4 L6,9 L2,13 L-3,14 L-4,13 L-3,4 Z " fill="#090909" transform="translate(14,7)"/>
<path d="M0,0 L1,0 L2,7 L10,6 L10,9 L6,11 L0,10 L-1,9 L-1,1 Z " fill="#EAEAEA" transform="translate(9,13)"/>
</svg>
