<?xml version="1.0" encoding="UTF-8"?>
<svg version="1.1" xmlns="http://www.w3.org/2000/svg" width="28" height="28">
<path d="M0,0 L28,0 L28,28 L0,28 Z " fill="#020202" transform="translate(0,0)"/>
<path d="M0,0 L2,0 L6,9 L6,15 L3,18 L-1,20 L-8,20 L-12,16 L-10,9 L-4,2 Z " fill="#060606" transform="translate(17,4)"/>
<path d="M0,0 L2,0 L6,9 L6,15 L3,18 L-1,20 L-8,20 L-12,16 L-10,9 L-4,2 Z M-1,3 L-7,8 L-9,12 L-8,17 L0,17 L4,15 L3,6 Z " fill="#C8C8C8" transform="translate(17,4)"/>
<path d="M0,0 L2,0 L4,5 L3,9 L3,6 L-1,4 L-4,6 L-7,5 L-2,1 Z " fill="#E3E3E3" transform="translate(17,4)"/>
<path d="M0,0 L4,1 L1,2 L-1,10 L-3,6 Z " fill="#B3B3B3" transform="translate(9,10)"/>
</svg>
