<?xml version="1.0" encoding="UTF-8"?>
<svg version="1.1" xmlns="http://www.w3.org/2000/svg" width="28" height="28">
<path d="M0,0 L28,0 L28,28 L0,28 Z " fill="#030303" transform="translate(0,0)"/>
<path d="M0,0 L7,0 L12,9 L12,16 L6,19 L-4,18 L-8,15 L-8,7 L-3,1 Z " fill="#060606" transform="translate(12,5)"/>
<path d="M0,0 L7,0 L12,9 L12,16 L6,19 L-4,18 L-8,15 L-8,7 L-3,1 Z M0,2 L-6,9 L-5,14 L-3,16 L7,16 L9,15 L9,8 L8,6 L6,6 L6,3 Z " fill="#CDCDCD" transform="translate(12,5)"/>
<path d="M0,0 L7,0 L10,5 L10,8 L8,8 L8,6 L6,6 L6,3 L0,3 L-5,9 L-6,12 L-8,12 L-7,5 L-3,1 Z " fill="#E5E5E5" transform="translate(12,5)"/>
</svg>
