<?xml version="1.0" encoding="UTF-8"?>
<svg version="1.1" xmlns="http://www.w3.org/2000/svg" width="28" height="28">
<path d="M0,0 L28,0 L28,28 L0,28 Z " fill="#020202" transform="translate(0,0)"/>
<path d="M0,0 L5,1 L6,2 L6,12 L2,17 L-4,20 L-9,19 L-11,17 L-10,11 L-5,4 Z " fill="#DCDCDC" transform="translate(17,4)"/>
<path d="M0,0 L2,1 L2,10 L-5,16 L-10,15 L-11,11 L-8,8 L-7,13 L-5,6 L-2,1 Z " fill="#080808" transform="translate(19,6)"/>
<path d="M0,0 L5,1 L5,7 L3,6 L2,3 L1,8 L-2,8 L-1,2 Z " fill="#C7C7C7" transform="translate(8,13)"/>
<path d="M0,0 L1,0 L2,5 L4,5 L4,8 L-1,7 L-2,3 Z " fill="#303030" transform="translate(10,14)"/>
<path d="M0,0 L2,1 L-3,4 L-8,3 L-9,1 L-2,1 Z " fill="#F2F2F2" transform="translate(16,20)"/>
</svg>
