<?xml version="1.0" encoding="UTF-8"?>
<svg version="1.1" xmlns="http://www.w3.org/2000/svg" width="28" height="28">
<path d="M0,0 L28,0 L28,28 L0,28 Z " fill="#030303" transform="translate(0,0)"/>
<path d="M0,0 L5,1 L4,11 L-1,17 L-4,19 L-13,19 L-15,17 L-14,12 L-10,7 Z " fill="#E6E6E6" transform="translate(19,4)"/>
<path d="M0,0 L3,0 L3,7 L-1,12 L-5,14 L-11,14 L-10,9 L-5,5 L-3,5 L0,4 Z " fill="#131313" transform="translate(18,7)"/>
<path d="M0,0 L2,0 L1,4 L-3,9 L-5,8 L-3,4 Z " fill="#CACACA" transform="translate(9,11)"/>
<path d="M0,0 L5,1 L5,6 L2,7 Z " fill="#BDBDBD" transform="translate(19,4)"/>
</svg>
