<?xml version="1.0" encoding="UTF-8"?>
<svg version="1.1" xmlns="http://www.w3.org/2000/svg" width="28" height="28">
<path d="M0,0 L28,0 L28,28 L0,28 Z " fill="#020202" transform="translate(0,0)"/>
<path d="M0,0 L7,0 L9,2 L10,6 L10,15 L5,20 L0,20 L-3,14 L-3,4 Z " fill="#EAEAEA" transform="translate(11,5)"/>
<path d="M0,0 L3,0 L4,4 L4,11 L2,14 L-3,13 L-4,11 L-4,3 L-3,1 Z " fill="#131313" transform="translate(15,8)"/>
<path d="M0,0 L5,4 L5,6 L0,6 L-1,2 Z " fill="#D9D9D9" transform="translate(11,19)"/>
</svg>
