<?xml version="1.0" encoding="UTF-8"?>
<svg version="1.1" xmlns="http://www.w3.org/2000/svg" width="28" height="28">
<path d="M0,0 L28,0 L28,28 L0,28 Z " fill="#020202" transform="translate(0,0)"/>
<path d="M0,0 L5,2 L6,14 L3,19 L1,20 L-6,20 L-7,19 L-7,9 L-5,7 L-3,2 Z " fill="#E0E0E0" transform="translate(15,4)"/>
<path d="M0,0 L2,0 L3,8 L0,13 L-2,14 L-9,14 L-10,13 L-10,7 L-7,7 L-7,10 L0,7 Z " fill="#E8E8E8" transform="translate(18,10)"/>
<path d="M0,0 L2,0 L4,8 L0,10 L-4,10 L-3,5 Z " fill="#0B0B0B" transform="translate(15,10)"/>
</svg>
