<?xml version="1.0" encoding="UTF-8"?>
<svg version="1.1" xmlns="http://www.w3.org/2000/svg" width="28" height="28">
<path d="M0,0 L28,0 L28,28 L0,28 Z " fill="#030303" transform="translate(0,0)"/>
<path d="M0,0 L6,0 L10,5 L11,10 L7,16 L2,20 L-2,19 L-7,11 L-6,6 L-1,1 Z " fill="#ECECEC" transform="translate(13,5)"/>
<path d="M0,0 L4,2 L5,8 L4,11 L-1,15 L-4,14 L-6,11 L-6,5 L-4,3 L0,3 Z " fill="#0E0E0E" transform="translate(16,7)"/>
<path d="M0,0 L2,1 L0,3 L3,3 L3,5 L-2,7 L-4,11 L-5,8 L-7,11 L-6,6 L-1,1 Z " fill="#D2D2D2" transform="translate(13,5)"/>
</svg>
