<?xml version="1.0" encoding="UTF-8"?>
<svg version="1.1" xmlns="http://www.w3.org/2000/svg" width="28" height="28">
<path d="M0,0 L28,0 L28,28 L0,28 Z " fill="#020202" transform="translate(0,0)"/>
<path d="M0,0 L5,0 L11,5 L11,7 L14,8 L16,11 L16,16 L12,20 L5,20 L-1,17 L-4,11 L-3,3 Z " fill="#070707" transform="translate(10,4)"/>
<path d="M0,0 L5,0 L11,5 L11,7 L14,8 L16,11 L16,16 L12,20 L5,20 L-1,17 L-4,11 L-3,3 Z M0,3 L-1,5 L-1,12 L3,17 L10,18 L14,15 L13,10 L4,3 Z " fill="#E3E3E3" transform="translate(10,4)"/>
</svg>
