<?xml version="1.0" encoding="UTF-8"?>
<svg version="1.1" xmlns="http://www.w3.org/2000/svg" width="28" height="28">
<path d="M0,0 L28,0 L28,28 L0,28 Z " fill="#020202" transform="translate(0,0)"/>
<path d="M0,0 L11,1 L16,6 L16,11 L9,17 L7,18 L1,18 L-4,14 L-4,7 L-1,1 Z " fill="#080808" transform="translate(9,6)"/>
<path d="M0,0 L11,1 L16,6 L16,11 L9,17 L7,18 L1,18 L-4,14 L-4,7 L-1,1 Z M2,3 L-1,5 L-2,11 L-1,14 L1,15 L9,15 L14,10 L13,5 L10,3 Z " fill="#EAEAEA" transform="translate(9,6)"/>
<path d="M0,0 L3,1 L-4,7 L-6,8 L-12,8 L-17,4 L-17,2 L-14,1 L-14,4 L-4,4 Z " fill="#D3D3D3" transform="translate(22,16)"/>
</svg>
