<?xml version="1.0" encoding="UTF-8"?>
<svg version="1.1" xmlns="http://www.w3.org/2000/svg" width="28" height="28">
<path d="M0,0 L28,0 L28,28 L0,28 Z " fill="#020202" transform="translate(0,0)"/>
<path d="M0,0 L7,1 L11,7 L11,14 L7,19 L5,20 L-3,20 L-8,15 L-9,14 L-9,8 L-7,8 L-6,4 L-1,3 Z " fill="#050505" transform="translate(13,4)"/>
<path d="M0,0 L7,1 L11,7 L11,14 L7,19 L5,20 L-3,20 L-8,15 L-9,14 L-9,8 L-7,8 L-6,4 L-1,3 Z M0,3 L-5,7 L-6,12 L-2,17 L5,17 L8,14 L8,6 L6,3 Z " fill="#E1E1E1" transform="translate(13,4)"/>
<path d="M0,0 L7,1 L11,7 L11,14 L8,12 L6,4 L0,4 L-4,6 L-4,3 L-1,3 Z " fill="#C8C8C8" transform="translate(13,4)"/>
</svg>
