<?xml version="1.0" encoding="UTF-8"?>
<svg version="1.1" xmlns="http://www.w3.org/2000/svg" width="28" height="28">
<path d="M0,0 L28,0 L28,28 L0,28 Z " fill="#040404" transform="translate(0,0)"/>
<path d="M0,0 L4,1 L12,8 L13,14 L10,17 L6,19 L-3,19 L-7,16 L-6,7 L-2,1 Z " fill="#0C0C0C" transform="translate(12,4)"/>
<path d="M0,0 L4,1 L12,8 L13,14 L10,17 L6,19 L-3,19 L-7,16 L-6,7 L-2,1 Z M-1,3 L-5,10 L-5,15 L-1,18 L5,18 L10,14 L10,9 L5,4 L4,3 Z " fill="#DFDFDF" transform="translate(12,4)"/>
</svg>
