<?xml version="1.0" encoding="UTF-8"?>
<svg version="1.1" xmlns="http://www.w3.org/2000/svg" width="28" height="28">
<path d="M0,0 L28,0 L28,28 L0,28 Z " fill="#030303" transform="translate(0,0)"/>
<path d="M0,0 L4,1 L7,9 L5,19 L-2,20 L-5,17 L-5,9 L-3,1 Z " fill="#E0E0E0" transform="translate(14,5)"/>
<path d="M0,0 L2,0 L2,8 L4,8 L2,13 L-3,14 L-3,4 Z " fill="#0C0C0C" transform="translate(15,8)"/>
<path d="M0,0 L1,0 L1,6 L6,4 L9,1 L8,8 L1,9 L-2,6 Z " fill="#C9C9C9" transform="translate(11,16)"/>
<path d="M0,0 L1,0 L0,10 L-2,9 L-2,3 Z " fill="#F7F7F7" transform="translate(11,11)"/>
</svg>
