<?xml version="1.0" encoding="UTF-8"?>
<svg version="1.1" xmlns="http://www.w3.org/2000/svg" width="28" height="28">
<path d="M0,0 L28,0 L28,28 L0,28 Z " fill="#020202" transform="translate(0,0)"/>
<path d="M0,0 L5,1 L8,4 L9,13 L5,18 L1,20 L-4,19 L-7,16 L-7,9 Z " fill="#D3D3D3" transform="translate(14,4)"/>
<path d="M0,0 L5,0 L7,2 L7,8 L2,12 L-4,12 L-5,8 Z " fill="#0B0B0B" transform="translate(14,8)"/>
<path d="M0,0 L5,1 L5,3 L0,5 L-5,15 L-6,15 L-6,8 Z " fill="#E7E7E7" transform="translate(14,4)"/>
<path d="M0,0 L2,0 L4,5 L4,11 L2,8 L0,3 L-4,1 Z " fill="#B4B4B4" transform="translate(19,6)"/>
<path d="M0,0 L1,4 L-2,8 L-4,8 L-5,5 Z " fill="#ECECEC" transform="translate(21,14)"/>
</svg>
