<?xml version="1.0" encoding="UTF-8"?>
<svg version="1.1" xmlns="http://www.w3.org/2000/svg" width="28" height="28">
<path d="M0,0 L28,0 L28,28 L0,28 Z " fill="#020202" transform="translate(0,0)"/>
<path d="M0,0 L6,1 L11,5 L13,15 L7,20 L-1,20 L-4,18 L-6,14 L-6,8 Z " fill="#0D0D0D" transform="translate(11,4)"/>
<path d="M0,0 L6,1 L11,5 L13,15 L7,20 L-1,20 L-4,18 L-6,14 L-6,8 Z M1,3 L-3,8 L-3,14 L-1,17 L6,18 L10,15 L10,8 L5,3 Z " fill="#E6E6E6" transform="translate(11,4)"/>
<path d="M0,0 L2,1 L0,5 L-4,9 L-5,14 L-6,14 L-6,8 Z " fill="#C3C3C3" transform="translate(11,4)"/>
</svg>
