<?xml version="1.0" encoding="UTF-8"?>
<svg version="1.1" xmlns="http://www.w3.org/2000/svg" width="28" height="28">
<path d="M0,0 L28,0 L28,28 L0,28 Z " fill="#020202" transform="translate(0,0)"/>
<path d="M0,0 L4,1 L6,3 L6,13 L2,19 L-5,20 L-7,18 L-6,7 L-3,1 Z " fill="#0C0C0C" transform="translate(15,4)"/>
<path d="M0,0 L4,1 L6,3 L6,13 L2,19 L-5,20 L-7,18 L-6,7 L-3,1 Z M0,2 L-3,5 L-5,11 L-5,17 L-1,18 L4,13 L5,6 L3,2 Z " fill="#E1E1E1" transform="translate(15,4)"/>
<path d="M0,0 L3,0 L3,2 L1,2 L-1,7 L-3,8 L-1,1 Z " fill="#BDBDBD" transform="translate(12,5)"/>
</svg>
