<?xml version="1.0" encoding="UTF-8"?>
<svg version="1.1" xmlns="http://www.w3.org/2000/svg" width="28" height="28">
<path d="M0,0 L28,0 L28,28 L0,28 Z " fill="#030303" transform="translate(0,0)"/>
<path d="M0,0 L6,0 L10,4 L7,11 L-2,19 L-7,20 L-10,18 L-10,11 L-4,3 Z " fill="#DADADA" transform="translate(15,5)"/>
<path d="M0,0 L6,0 L10,4 L8,9 L6,8 L6,3 L2,4 L0,9 L3,11 L-3,11 L-3,5 L-3,2 Z " fill="#ECECEC" transform="translate(15,5)"/>
<path d="M0,0 L1,4 L7,4 L7,6 L0,10 L-4,9 L-2,3 Z " fill="#151515" transform="translate(11,12)"/>
<path d="M0,0 L4,1 L4,6 L0,9 L-4,7 L-2,2 Z " fill="#181818" transform="translate(18,7)"/>
</svg>
