<?xml version="1.0" encoding="UTF-8"?>
<svg version="1.1" xmlns="http://www.w3.org/2000/svg" width="28" height="28">
<path d="M0,0 L28,0 L28,28 L0,28 Z " fill="#020202" transform="translate(0,0)"/>
<path d="M0,0 L8,1 L9,8 L5,13 L-2,17 L-9,17 L-11,16 L-10,10 L-3,2 L0,2 Z " fill="#E0E0E0" transform="translate(15,6)"/>
<path d="M0,0 L4,1 L4,6 L-4,11 L-10,11 L-8,6 L-3,2 L0,2 Z " fill="#0B0B0B" transform="translate(17,9)"/>
<path d="M0,0 L2,1 L2,4 L-3,7 L-5,5 Z " fill="#CBCBCB" transform="translate(12,8)"/>
</svg>
