<?xml version="1.0" encoding="UTF-8"?>
<svg version="1.1" xmlns="http://www.w3.org/2000/svg" width="28" height="28">
<path d="M0,0 L28,0 L28,28 L0,28 Z " fill="#030303" transform="translate(0,0)"/>
<path d="M0,0 L4,1 L8,6 L8,12 L4,18 L3,19 L-9,19 L-11,18 L-12,10 L-7,4 Z " fill="#070707" transform="translate(16,5)"/>
<path d="M0,0 L4,1 L8,6 L8,12 L4,18 L3,19 L-9,19 L-11,18 L-12,10 L-7,4 Z M-3,4 L-8,7 L-10,10 L-10,16 L-6,18 L2,17 L6,13 L6,6 L2,4 Z " fill="#DDDDDD" transform="translate(16,5)"/>
</svg>
