<?xml version="1.0" encoding="UTF-8"?>
<svg version="1.1" xmlns="http://www.w3.org/2000/svg" width="28" height="28">
<path d="M0,0 L28,0 L28,28 L0,28 Z " fill="#020202" transform="translate(0,0)"/>
<path d="M0,0 L10,0 L12,2 L11,9 L4,12 L-6,12 L-8,10 L-7,6 L-3,3 L-1,3 Z " fill="#CCCCCC" transform="translate(12,9)"/>
<path d="M0,0 L4,0 L4,5 L2,7 L-2,8 L-12,8 L-12,5 L-7,2 L0,2 Z " fill="#050505" transform="translate(18,11)"/>
<path d="M0,0 L2,0 L2,3 L3,1 L9,1 L6,2 L6,4 L-1,4 Z " fill="#ACACAC" transform="translate(12,9)"/>
</svg>
