<?xml version="1.0" encoding="UTF-8"?>
<svg version="1.1" xmlns="http://www.w3.org/2000/svg" width="28" height="28">
<path d="M0,0 L28,0 L28,28 L0,28 Z " fill="#030303" transform="translate(0,0)"/>
<path d="M0,0 L4,0 L5,2 L10,3 L10,9 L4,14 L-2,16 L-9,15 L-10,8 L-7,5 L-5,5 L-4,2 Z " fill="#0E0E0E" transform="translate(14,7)"/>
<path d="M0,0 L4,0 L4,2 L-5,7 L-7,9 L-8,14 L3,12 L7,8 L8,4 L3,4 L5,2 L10,3 L10,9 L4,14 L-2,16 L-9,15 L-10,8 L-7,5 L-5,5 L-4,2 Z " fill="#F2F2F2" transform="translate(14,7)"/>
<path d="M0,0 L4,0 L4,2 L-5,7 L-9,12 L-10,8 L-7,5 L-5,5 L-4,2 Z " fill="#D4D4D4" transform="translate(14,7)"/>
</svg>
