<?xml version="1.0" encoding="UTF-8"?>
<svg version="1.1" xmlns="http://www.w3.org/2000/svg" width="28" height="28">
<path d="M0,0 L28,0 L28,28 L0,28 Z " fill="#020202" transform="translate(0,0)"/>
<path d="M0,0 L2,0 L2,2 L6,3 L7,8 L3,13 L-5,16 L-12,16 L-13,10 L-8,5 L-3,1 Z " fill="#D2D2D2" transform="translate(17,6)"/>
<path d="M0,0 L8,1 L7,6 L2,9 L-8,9 L-7,5 Z " fill="#0B0B0B" transform="translate(14,10)"/>
<path d="M0,0 L2,0 L2,2 L6,3 L6,5 L-1,6 L-1,4 L-10,10 L-12,9 L-7,4 Z " fill="#D7D7D7" transform="translate(17,6)"/>
<path d="M0,0 L2,0 L2,3 L7,3 L8,6 L1,6 Z " fill="#8B8B8B" transform="translate(4,16)"/>
</svg>
