<?xml version="1.0" encoding="UTF-8"?>
<svg version="1.1" xmlns="http://www.w3.org/2000/svg" width="28" height="28">
<path d="M0,0 L28,0 L28,28 L0,28 Z " fill="#020202" transform="translate(0,0)"/>
<path d="M0,0 L6,2 L8,4 L8,15 L3,20 L0,20 L-1,18 L-1,11 L0,5 L-3,6 L-1,1 Z " fill="#DFDFDF" transform="translate(11,5)"/>
<path d="M0,0 L3,2 L3,9 L1,12 L-2,11 L-1,2 Z " fill="#252525" transform="translate(14,9)"/>
<path d="M0,0 L3,1 L3,12 L0,14 L0,10 Z " fill="#F0F0F0" transform="translate(16,8)"/>
<path d="M0,0 L6,2 L4,5 L2,6 L1,4 L-3,6 L-1,1 Z " fill="#C9C9C9" transform="translate(11,5)"/>
</svg>
