<?xml version="1.0" encoding="UTF-8"?>
<svg version="1.1" xmlns="http://www.w3.org/2000/svg" width="28" height="28">
<path d="M0,0 L28,0 L28,28 L0,28 Z " fill="#020202" transform="translate(0,0)"/>
<path d="M0,0 L4,1 L9,4 L9,11 L2,17 L4,18 L4,20 L0,19 L0,17 L-5,15 L-5,9 L-1,1 Z " fill="#E4E4E4" transform="translate(13,5)"/>
<path d="M0,0 L4,2 L6,3 L5,8 L1,11 L-3,11 L-2,2 Z " fill="#131313" transform="translate(14,8)"/>
<path d="M0,0 L4,1 L9,4 L9,6 L3,6 L2,3 L-2,2 Z " fill="#CDCDCD" transform="translate(13,5)"/>
</svg>
