<?xml version="1.0" encoding="UTF-8"?>
<svg version="1.1" xmlns="http://www.w3.org/2000/svg" width="28" height="28">
<path d="M0,0 L28,0 L28,28 L0,28 Z " fill="#030303" transform="translate(0,0)"/>
<path d="M0,0 L4,1 L7,4 L7,15 L4,20 L-1,20 L-3,17 L-2,7 L0,3 L-2,3 L-3,5 L-2,1 Z " fill="#CCCCCC" transform="translate(13,5)"/>
<path d="M0,0 L3,1 L4,8 L2,14 L-3,15 L-2,5 Z " fill="#0C0C0C" transform="translate(15,8)"/>
<path d="M0,0 L4,1 L2,2 L1,8 L-1,9 L0,3 L-2,3 L-3,5 L-2,1 Z " fill="#E3E3E3" transform="translate(13,5)"/>
</svg>
