<?xml version="1.0" encoding="UTF-8"?>
<svg version="1.1" xmlns="http://www.w3.org/2000/svg" width="28" height="28">
<path d="M0,0 L28,0 L28,28 L0,28 Z " fill="#030303" transform="translate(0,0)"/>
<path d="M0,0 L7,1 L10,5 L10,14 L3,20 L-6,20 L-9,17 L-10,12 L-7,6 Z " fill="#E9E9E9" transform="translate(14,4)"/>
<path d="M0,0 L4,1 L7,6 L5,13 L2,15 L-6,15 L-7,14 L-7,8 L-2,3 L0,3 Z " fill="#0A0A0A" transform="translate(15,6)"/>
<path d="M0,0 L2,1 L2,4 L-3,7 L-5,7 L-7,8 L-5,4 Z " fill="#CDCDCD" transform="translate(13,5)"/>
</svg>
