<?xml version="1.0" encoding="UTF-8"?>
<svg version="1.1" xmlns="http://www.w3.org/2000/svg" width="28" height="28">
<path d="M0,0 L28,0 L28,28 L0,28 Z " fill="#010101" transform="translate(0,0)"/>
<path d="M0,0 L3,1 L5,9 L5,16 L1,20 L-4,20 L-5,19 L-5,13 L-1,2 Z " fill="#E0E0E0" transform="translate(14,4)"/>
<path d="M0,0 L3,1 L4,8 L2,10 L0,8 L-3,15 L-4,11 L-1,2 Z " fill="#E4E4E4" transform="translate(14,4)"/>
<path d="M0,0 L3,3 L3,8 L1,10 L-2,10 L-1,1 Z " fill="#121212" transform="translate(14,11)"/>
<path d="M0,0 L3,1 L3,4 L5,5 L6,7 L1,7 L0,6 Z " fill="#C2C2C2" transform="translate(9,17)"/>
</svg>
