<?xml version="1.0" encoding="UTF-8"?>
<svg version="1.1" xmlns="http://www.w3.org/2000/svg" width="28" height="28">
<path d="M0,0 L28,0 L28,28 L0,28 Z " fill="#020202" transform="translate(0,0)"/>
<path d="M0,0 L5,1 L6,3 L6,10 L4,17 L1,20 L-5,20 L-6,19 L-5,10 L-1,1 Z " fill="#EEEEEE" transform="translate(14,4)"/>
<path d="M0,0 L2,0 L3,2 L3,9 L1,14 L-2,16 L-5,16 L-4,8 Z " fill="#171717" transform="translate(15,6)"/>
<path d="M0,0 L5,1 L6,7 L4,7 L3,2 L1,3 L-1,9 L-3,7 L-2,2 Z " fill="#D6D6D6" transform="translate(14,4)"/>
</svg>
