<?xml version="1.0" encoding="UTF-8"?>
<svg version="1.1" xmlns="http://www.w3.org/2000/svg" width="28" height="28">
<path d="M0,0 L28,0 L28,28 L0,28 Z " fill="#010101" transform="translate(0,0)"/>
<path d="M0,0 L3,1 L7,8 L7,16 L4,20 L-2,20 L-3,19 L-3,8 Z " fill="#E4E4E4" transform="translate(13,4)"/>
<path d="M0,0 L3,0 L5,3 L5,10 L4,12 L-1,12 L-1,3 Z " fill="#090909" transform="translate(13,10)"/>
<path d="M0,0 L1,0 L1,11 L5,12 L0,13 L-1,12 L-1,1 Z " fill="#C8C8C8" transform="translate(11,11)"/>
</svg>
