<?xml version="1.0" encoding="UTF-8"?>
<svg version="1.1" xmlns="http://www.w3.org/2000/svg" width="28" height="28">
<path d="M0,0 L28,0 L28,28 L0,28 Z " fill="#020202" transform="translate(0,0)"/>
<path d="M0,0 L2,0 L2,3 L6,5 L8,9 L8,16 L3,20 L-3,20 L-6,17 L-5,8 L-2,2 Z " fill="#EAEAEA" transform="translate(13,4)"/>
<path d="M0,0 L5,1 L7,4 L7,9 L4,12 L-2,12 L-3,6 Z " fill="#0C0C0C" transform="translate(12,10)"/>
<path d="M0,0 L2,0 L2,3 L4,4 L2,4 L2,6 L-1,7 L-3,12 L-6,13 L-3,3 Z " fill="#D4D4D4" transform="translate(13,4)"/>
</svg>
