<?xml version="1.0" encoding="UTF-8"?>
<svg version="1.1" xmlns="http://www.w3.org/2000/svg" width="28" height="28">
<path d="M0,0 L28,0 L28,28 L0,28 Z " fill="#010101" transform="translate(0,0)"/>
<path d="M0,0 L4,1 L7,5 L8,13 L6,18 L2,20 L-2,19 L-4,17 L-3,8 Z " fill="#D6D6D6" transform="translate(12,4)"/>
<path d="M0,0 L3,1 L4,11 L1,14 L-3,12 L-2,5 Z " fill="#141414" transform="translate(13,8)"/>
<path d="M0,0 L2,4 L0,9 L-2,9 L-2,14 L-3,14 L-2,5 Z " fill="#C3C3C3" transform="translate(11,7)"/>
<path d="M0,0 L2,4 L5,5 L8,6 L5,8 L1,7 L0,6 Z " fill="#F2F2F2" transform="translate(9,16)"/>
</svg>
