<?xml version="1.0" encoding="UTF-8"?>
<svg version="1.1" xmlns="http://www.w3.org/2000/svg" width="28" height="28">
<path d="M0,0 L28,0 L28,28 L0,28 Z " fill="#020202" transform="translate(0,0)"/>
<path d="M0,0 L5,1 L8,4 L8,16 L4,20 L-2,20 L-5,18 L-6,8 L-3,3 Z " fill="#D7D7D7" transform="translate(13,4)"/>
<path d="M0,0 L4,1 L5,2 L5,13 L3,15 L-2,14 L-3,13 L-3,4 Z " fill="#060606" transform="translate(13,7)"/>
<path d="M0,0 L4,1 L2,12 L1,12 Z " fill="#A8A8A8" transform="translate(17,7)"/>
<path d="M0,0 L1,3 L-2,9 L-3,9 L-3,3 Z " fill="#EFEFEF" transform="translate(11,6)"/>
</svg>
