<?xml version="1.0" encoding="UTF-8"?>
<svg version="1.1" xmlns="http://www.w3.org/2000/svg" width="28" height="28">
<path d="M0,0 L28,0 L28,28 L0,28 Z " fill="#020202" transform="translate(0,0)"/>
<path d="M0,0 L5,1 L9,3 L8,10 L2,15 L-3,17 L-9,17 L-11,15 L-11,8 L-3,1 Z " fill="#0D0D0D" transform="translate(16,6)"/>
<path d="M0,0 L5,1 L9,3 L8,10 L2,15 L-3,17 L-9,17 L-11,15 L-11,8 L-3,1 Z M-1,3 L-8,8 L-9,14 L-4,15 L4,11 L7,6 L4,3 Z " fill="#E4E4E4" transform="translate(16,6)"/>
<path d="M0,0 L3,1 L2,8 L0,4 L-1,1 Z " fill="#C1C1C1" transform="translate(22,8)"/>
</svg>
