<?xml version="1.0" encoding="UTF-8"?>
<svg version="1.1" xmlns="http://www.w3.org/2000/svg" width="28" height="28">
<path d="M0,0 L28,0 L28,28 L0,28 Z " fill="#010101" transform="translate(0,0)"/>
<path d="M0,0 L7,1 L10,3 L10,15 L8,20 L2,19 L-3,13 L-3,6 L-1,1 Z " fill="#E7E7E7" transform="translate(11,4)"/>
<path d="M0,0 L5,1 L5,8 L3,14 L-1,12 L-2,10 L-2,3 Z " fill="#0A0A0A" transform="translate(13,7)"/>
<path d="M0,0 L7,3 L5,4 L4,8 L4,4 L-1,3 Z " fill="#BBBBBB" transform="translate(14,4)"/>
</svg>
