<?xml version="1.0" encoding="UTF-8"?>
<svg version="1.1" xmlns="http://www.w3.org/2000/svg" width="28" height="28">
<path d="M0,0 L28,0 L28,28 L0,28 Z " fill="#020202" transform="translate(0,0)"/>
<path d="M0,0 L5,1 L8,4 L9,13 L4,19 L-3,20 L-6,17 L-7,10 L-3,2 Z " fill="#D6D6D6" transform="translate(14,5)"/>
<path d="M0,0 L2,0 L2,2 L0,2 L3,5 L4,3 L5,4 L5,11 L1,15 L-4,14 L-4,5 Z " fill="#090909" transform="translate(15,7)"/>
<path d="M0,0 L3,0 L3,2 L-2,7 L-4,16 L-5,14 L-7,14 L-6,8 L-3,2 Z " fill="#ECECEC" transform="translate(14,5)"/>
</svg>
