<?xml version="1.0" encoding="UTF-8"?>
<svg version="1.1" xmlns="http://www.w3.org/2000/svg" width="28" height="28">
<path d="M0,0 L28,0 L28,28 L0,28 Z " fill="#020202" transform="translate(0,0)"/>
<path d="M0,0 L9,1 L9,3 L11,3 L12,8 L9,15 L7,15 L6,19 L-1,20 L-4,18 L-4,6 Z " fill="#D8D8D8" transform="translate(11,5)"/>
<path d="M0,0 L5,1 L2,6 L-2,13 L3,8 L6,3 L8,3 L6,9 L1,14 L-3,14 L-4,7 L-2,2 Z " fill="#141414" transform="translate(13,8)"/>
<path d="M0,0 L2,0 L0,6 L-4,11 L-6,11 L-5,7 Z " fill="#E1E1E1" transform="translate(17,10)"/>
</svg>
