<?xml version="1.0" encoding="UTF-8"?>
<svg version="1.1" xmlns="http://www.w3.org/2000/svg" width="28" height="28">
<path d="M0,0 L28,0 L28,28 L0,28 Z " fill="#010101" transform="translate(0,0)"/>
<path d="M0,0 L5,0 L9,4 L9,10 L4,18 L1,20 L-4,20 L-7,15 L-6,9 Z " fill="#DFDFDF" transform="translate(13,4)"/>
<path d="M0,0 L1,3 L-1,11 L3,12 L3,9 L8,7 L7,11 L2,16 L-3,16 L-6,11 L-5,5 Z " fill="#EAEAEA" transform="translate(12,8)"/>
<path d="M0,0 L3,3 L2,10 L0,10 L0,13 L-5,12 L-2,2 Z " fill="#0B0B0B" transform="translate(15,7)"/>
</svg>
