<?xml version="1.0" encoding="UTF-8"?>
<svg version="1.1" xmlns="http://www.w3.org/2000/svg" width="28" height="28">
<path d="M0,0 L28,0 L28,28 L0,28 Z " fill="#020202" transform="translate(0,0)"/>
<path d="M0,0 L2,0 L2,2 L7,2 L12,8 L11,15 L1,20 L-4,20 L-6,17 L-6,11 L-3,4 Z " fill="#090909" transform="translate(12,4)"/>
<path d="M0,0 L2,0 L2,2 L7,2 L12,8 L11,15 L1,20 L-4,20 L-6,17 L-6,11 L-3,4 Z M0,4 L-2,6 L-3,10 L-3,18 L3,18 L9,14 L10,13 L10,8 L6,4 Z " fill="#D5D5D5" transform="translate(12,4)"/>
<path d="M0,0 L1,2 L0,10 L-2,11 L-3,9 L-3,3 Z " fill="#BEBEBE" transform="translate(9,12)"/>
</svg>
