<?xml version="1.0" encoding="UTF-8"?>
<svg version="1.1" xmlns="http://www.w3.org/2000/svg" width="28" height="28">
<path d="M0,0 L28,0 L28,28 L0,28 Z " fill="#030303" transform="translate(0,0)"/>
<path d="M0,0 L5,0 L8,5 L7,12 L0,19 L-10,19 L-12,17 L-12,11 L-9,6 L-4,2 Z " fill="#C9C9C9" transform="translate(17,4)"/>
<path d="M0,0 L5,0 L6,3 L4,8 L-3,14 L-9,14 L-9,8 L-4,3 Z " fill="#060606" transform="translate(17,7)"/>
<path d="M0,0 L3,0 L3,3 L-2,5 L-4,9 L-5,15 L2,15 L2,17 L-6,17 L-8,15 L-8,9 L-5,4 Z " fill="#DDDDDD" transform="translate(13,6)"/>
<path d="M0,0 L2,3 L2,5 L9,5 L9,7 L1,7 L-1,5 Z " fill="#FAFAFA" transform="translate(6,16)"/>
</svg>
