<?xml version="1.0" encoding="UTF-8"?>
<svg version="1.1" xmlns="http://www.w3.org/2000/svg" width="28" height="28">
<path d="M0,0 L28,0 L28,28 L0,28 Z " fill="#020202" transform="translate(0,0)"/>
<path d="M0,0 L6,1 L8,8 L6,15 L2,19 L0,20 L-6,20 L-8,18 L-8,11 L-4,4 Z " fill="#E6E6E6" transform="translate(14,4)"/>
<path d="M0,0 L2,0 L2,8 L0,12 L-3,14 L-8,14 L-8,7 L-5,2 L-3,2 L-3,4 L-1,4 Z " fill="#070707" transform="translate(17,7)"/>
<path d="M0,0 L3,1 L0,3 L2,4 L2,7 L0,7 L0,5 L-2,5 L-4,10 L-5,17 L-1,18 L-7,19 L-8,18 L-8,11 L-4,4 Z " fill="#D0D0D0" transform="translate(14,4)"/>
<path d="M0,0 L1,0 L1,8 L5,9 L-1,10 L-2,9 L-2,2 Z " fill="#BABABA" transform="translate(8,13)"/>
</svg>
