<?xml version="1.0" encoding="UTF-8"?>
<svg version="1.1" xmlns="http://www.w3.org/2000/svg" width="28" height="28">
<path d="M0,0 L28,0 L28,28 L0,28 Z " fill="#040404" transform="translate(0,0)"/>
<path d="M0,0 L7,1 L9,3 L9,9 L4,15 L-3,19 L-8,20 L-11,19 L-11,7 L-8,2 L-4,1 L-4,5 L-6,5 L-7,10 L-9,10 L-8,15 L1,15 L2,12 L4,12 L5,4 L0,2 Z " fill="#E8E8E8" transform="translate(16,4)"/>
<path d="M0,0 L2,0 L2,4 L0,4 L-1,9 L-3,7 L-5,10 L-4,5 L-2,1 Z " fill="#D0D0D0" transform="translate(10,5)"/>
</svg>
