<?xml version="1.0" encoding="UTF-8"?>
<svg version="1.1" xmlns="http://www.w3.org/2000/svg" width="28" height="28">
<path d="M0,0 L28,0 L28,28 L0,28 Z " fill="#020202" transform="translate(0,0)"/>
<path d="M0,0 L5,1 L8,5 L7,12 L0,19 L-7,20 L-8,19 L-8,12 L-5,6 Z " fill="#EEEEEE" transform="translate(15,4)"/>
<path d="M0,0 L5,1 L4,7 L-4,13 L-6,13 L-5,8 L-1,3 Z " fill="#141414" transform="translate(15,8)"/>
<path d="M0,0 L2,1 L1,2 L3,4 L0,5 L0,8 L-5,12 L-7,11 L-5,6 Z " fill="#D4D4D4" transform="translate(15,4)"/>
</svg>
