<?xml version="1.0" encoding="UTF-8"?>
<svg version="1.1" xmlns="http://www.w3.org/2000/svg" width="28" height="28">
<path d="M0,0 L28,0 L28,28 L0,28 Z " fill="#020202" transform="translate(0,0)"/>
<path d="M0,0 L10,1 L15,5 L16,7 L16,14 L12,19 L4,20 L-1,17 L-3,13 L-3,4 Z " fill="#060606" transform="translate(9,4)"/>
<path d="M0,0 L10,1 L15,5 L16,7 L16,14 L12,19 L4,20 L-1,17 L-3,13 L-3,4 Z M3,2 L0,4 L0,15 L3,17 L10,17 L13,15 L14,8 L9,3 Z " fill="#E8E8E8" transform="translate(9,4)"/>
<path d="M0,0 L3,1 L3,3 L1,4 L0,13 L-1,13 L-2,7 L-3,4 Z " fill="#C1C1C1" transform="translate(9,4)"/>
</svg>
