<?xml version="1.0" encoding="UTF-8"?>
<svg version="1.1" xmlns="http://www.w3.org/2000/svg" width="28" height="28">
<path d="M0,0 L28,0 L28,28 L0,28 Z " fill="#020202" transform="translate(0,0)"/>
<path d="M0,0 L5,1 L8,6 L8,12 L3,17 L-2,20 L-8,20 L-11,17 L-10,10 L-4,1 Z " fill="#D4D4D4" transform="translate(16,4)"/>
<path d="M0,0 L4,0 L5,7 L-1,13 L-8,14 L-7,8 L-2,1 Z " fill="#0D0D0D" transform="translate(16,7)"/>
<path d="M0,0 L5,3 L6,12 L1,17 L-3,19 L-6,18 L2,10 L1,3 L-1,1 Z " fill="#ECECEC" transform="translate(18,4)"/>
</svg>
