<?xml version="1.0" encoding="UTF-8"?>
<svg version="1.1" xmlns="http://www.w3.org/2000/svg" width="28" height="28">
<path d="M0,0 L28,0 L28,28 L0,28 Z " fill="#010101" transform="translate(0,0)"/>
<path d="M0,0 L2,0 L3,5 L1,12 L-3,18 L-6,20 L-10,20 L-11,14 L-8,8 L-3,2 Z " fill="#E4E4E4" transform="translate(18,4)"/>
<path d="M0,0 L1,0 L0,7 L-5,12 L-10,13 L-11,10 L-6,8 L-2,4 Z " fill="#EBEBEB" transform="translate(18,11)"/>
<path d="M0,0 L1,4 L-2,9 L-6,13 L-8,13 L-6,7 Z " fill="#1F1F1F" transform="translate(17,8)"/>
<path d="M0,0 L2,0 L3,5 L2,11 L0,7 L0,3 L-2,2 Z " fill="#C9C9C9" transform="translate(18,4)"/>
</svg>
