<?xml version="1.0" encoding="UTF-8"?>
<svg version="1.1" xmlns="http://www.w3.org/2000/svg" width="28" height="28">
<path d="M0,0 L28,0 L28,28 L0,28 Z " fill="#030303" transform="translate(0,0)"/>
<path d="M0,0 L8,0 L16,5 L17,12 L12,17 L2,16 L-3,10 L-3,3 Z " fill="#060606" transform="translate(7,6)"/>
<path d="M0,0 L8,0 L16,5 L17,12 L12,17 L2,16 L-3,10 L-3,3 Z M1,2 L-1,4 L-1,10 L1,13 L11,14 L15,12 L15,7 L12,4 L7,2 Z " fill="#E0E0E0" transform="translate(7,6)"/>
<path d="M0,0 L4,2 L0,4 L0,10 L1,14 L-3,10 L-3,3 Z " fill="#BABABA" transform="translate(7,6)"/>
</svg>
