<?xml version="1.0" encoding="UTF-8"?>
<svg version="1.1" xmlns="http://www.w3.org/2000/svg" width="28" height="28">
<path d="M0,0 L28,0 L28,28 L0,28 Z " fill="#040404" transform="translate(0,0)"/>
<path d="M0,0 L5,1 L11,5 L13,9 L12,16 L10,16 L10,18 L0,20 L-5,18 L-7,13 L-6,7 Z " fill="#070707" transform="translate(11,4)"/>
<path d="M0,0 L5,1 L11,5 L13,9 L12,16 L10,16 L10,18 L0,20 L-5,18 L-7,13 L-6,7 Z M1,3 L-4,7 L-5,12 L-2,17 L8,17 L10,15 L10,8 L8,5 Z " fill="#DDDDDD" transform="translate(11,4)"/>
</svg>
