<?xml version="1.0" encoding="UTF-8"?>
<svg version="1.1" xmlns="http://www.w3.org/2000/svg" width="28" height="28">
<path d="M0,0 L28,0 L28,28 L0,28 Z " fill="#030303" transform="translate(0,0)"/>
<path d="M0,0 L10,1 L13,3 L14,10 L11,17 L5,20 L-2,19 L-6,16 L-6,10 Z " fill="#0C0C0C" transform="translate(11,5)"/>
<path d="M0,0 L10,1 L13,3 L14,10 L11,17 L5,20 L-2,19 L-6,16 L-6,10 Z M4,3 L2,6 L0,6 L-4,11 L-3,16 L1,18 L7,17 L11,12 L11,6 L6,3 Z " fill="#E8E8E8" transform="translate(11,5)"/>
<path d="M0,0 L3,0 L4,9 L-1,14 L-8,15 L-9,13 L-2,11 L1,7 L2,1 Z " fill="#CACACA" transform="translate(20,10)"/>
<path d="M0,0 L3,0 L4,9 L1,11 L2,1 Z " fill="#AAAAAA" transform="translate(20,10)"/>
</svg>
