<?xml version="1.0" encoding="UTF-8"?>
<svg version="1.1" xmlns="http://www.w3.org/2000/svg" width="28" height="28">
<path d="M0,0 L28,0 L28,28 L0,28 Z " fill="#020202" transform="translate(0,0)"/>
<path d="M0,0 L6,1 L11,6 L10,13 L7,15 L-1,15 L-6,13 L-9,10 L-5,2 Z " fill="#0F0F0F" transform="translate(13,7)"/>
<path d="M0,0 L6,1 L11,6 L10,13 L7,15 L-1,15 L-6,13 L-9,10 L-5,2 Z M-2,3 L-5,7 L-4,12 L-1,13 L8,13 L9,9 L7,4 Z " fill="#E9E9E9" transform="translate(13,7)"/>
<path d="M0,0 L6,1 L11,6 L11,8 L8,9 L7,5 L-1,3 Z " fill="#C9C9C9" transform="translate(13,7)"/>
</svg>
