<?xml version="1.0" encoding="UTF-8"?>
<svg version="1.1" xmlns="http://www.w3.org/2000/svg" width="28" height="28">
<path d="M0,0 L28,0 L28,28 L0,28 Z " fill="#030303" transform="translate(0,0)"/>
<path d="M0,0 L5,0 L7,2 L6,8 L-1,16 L-6,20 L-11,20 L-11,14 L-7,12 L-8,16 L-3,13 L2,8 L3,5 L-3,4 L-3,2 Z " fill="#E8E8E8" transform="translate(17,5)"/>
<path d="M0,0 L10,1 L5,9 L0,13 L-3,13 L-3,10 L-5,11 L-2,2 Z " fill="#CECECE" transform="translate(12,8)"/>
<path d="M0,0 L2,1 L-3,8 L-8,12 L-11,12 L-9,8 L-4,3 Z " fill="#171717" transform="translate(20,9)"/>
</svg>
