<?xml version="1.0" encoding="UTF-8"?>
<svg version="1.1" xmlns="http://www.w3.org/2000/svg" width="28" height="28">
<path d="M0,0 L28,0 L28,28 L0,28 Z " fill="#030303" transform="translate(0,0)"/>
<path d="M0,0 L6,1 L9,6 L9,11 L5,17 L1,20 L-5,20 L-9,16 L-8,7 L-5,3 L-2,3 L-2,1 Z " fill="#0E0E0E" transform="translate(15,5)"/>
<path d="M0,0 L6,1 L9,6 L9,11 L5,17 L1,20 L-5,20 L-9,16 L-8,7 L-5,3 L-2,3 L-2,1 Z M0,3 L-5,8 L-6,10 L-6,16 L-4,18 L1,17 L4,15 L6,11 L6,4 L5,3 Z " fill="#E6E6E6" transform="translate(15,5)"/>
</svg>
