<?xml version="1.0" encoding="UTF-8"?>
<svg version="1.1" xmlns="http://www.w3.org/2000/svg" width="28" height="28">
<path d="M0,0 L28,0 L28,28 L0,28 Z " fill="#020202" transform="translate(0,0)"/>
<path d="M0,0 L5,1 L10,4 L11,10 L8,17 L2,20 L-4,20 L-7,17 L-7,10 L-4,5 L-3,1 Z " fill="#DADADA" transform="translate(13,5)"/>
<path d="M0,0 L6,0 L9,2 L9,8 L4,14 L-2,14 L-3,13 L-3,6 Z " fill="#070707" transform="translate(12,9)"/>
<path d="M0,0 L1,3 L7,4 L7,6 L2,6 L0,4 Z " fill="#F2F2F2" transform="translate(7,19)"/>
</svg>
