<?xml version="1.0" encoding="UTF-8"?>
<svg version="1.1" xmlns="http://www.w3.org/2000/svg" width="28" height="28">
<path d="M0,0 L28,0 L28,28 L0,28 Z " fill="#020202" transform="translate(0,0)"/>
<path d="M0,0 L3,1 L5,0 L14,1 L16,5 L15,12 L12,14 L5,14 L-2,11 L-4,9 L-3,3 Z " fill="#0B0B0B" transform="translate(8,8)"/>
<path d="M0,0 L1,2 L-1,8 L4,11 L12,11 L12,5 L11,2 L5,4 L2,5 L3,1 L5,0 L14,1 L16,5 L15,12 L12,14 L5,14 L-2,11 L-4,9 L-3,3 Z " fill="#C4C4C4" transform="translate(8,8)"/>
<path d="M0,0 L1,2 L-1,8 L3,12 L-2,11 L-4,9 L-3,3 Z " fill="#E6E6E6" transform="translate(8,8)"/>
<path d="M0,0 L3,3 L3,8 L1,9 L-1,1 Z " fill="#F2F2F2" transform="translate(21,10)"/>
</svg>
