<?xml version="1.0" encoding="UTF-8"?>
<svg version="1.1" xmlns="http://www.w3.org/2000/svg" width="28" height="28">
<path d="M0,0 L28,0 L28,28 L0,28 Z " fill="#020202" transform="translate(0,0)"/>
<path d="M0,0 L5,1 L6,3 L6,9 L2,15 L-7,20 L-12,20 L-14,17 L-14,12 L-6,3 Z " fill="#F1F1F1" transform="translate(19,4)"/>
<path d="M0,0 L5,0 L5,6 L0,12 L-5,13 L-5,5 Z " fill="#0A0A0A" transform="translate(17,7)"/>
<path d="M0,0 L1,0 L1,6 L6,5 L4,9 L-4,10 L-5,7 L-3,2 L-1,2 Z " fill="#D0D0D0" transform="translate(11,14)"/>
<path d="M0,0 L5,1 L6,3 L6,9 L2,15 L-3,17 L0,12 L2,9 L2,1 Z " fill="#D5D5D5" transform="translate(19,4)"/>
<path d="M0,0 L2,1 L1,6 L4,7 L-1,7 L-2,4 Z " fill="#8D8D8D" transform="translate(8,17)"/>
</svg>
