<?xml version="1.0" encoding="UTF-8"?>
<svg version="1.1" xmlns="http://www.w3.org/2000/svg" width="28" height="28">
<path d="M0,0 L28,0 L28,28 L0,28 Z " fill="#020202" transform="translate(0,0)"/>
<path d="M0,0 L4,1 L6,3 L7,11 L4,17 L0,20 L-5,19 L-5,9 L-1,1 Z " fill="#E7E7E7" transform="translate(14,4)"/>
<path d="M0,0 L3,0 L3,11 L0,14 L-3,14 L-3,6 Z " fill="#080808" transform="translate(15,7)"/>
<path d="M0,0 L4,1 L6,3 L5,10 L4,10 L4,3 L1,4 L-1,9 L-2,17 L-3,17 L-4,11 L-5,9 L-1,1 Z " fill="#C3C3C3" transform="translate(14,4)"/>
</svg>
