<?xml version="1.0" encoding="UTF-8"?>
<svg version="1.1" xmlns="http://www.w3.org/2000/svg" width="28" height="28">
<path d="M0,0 L28,0 L28,28 L0,28 Z " fill="#020202" transform="translate(0,0)"/>
<path d="M0,0 L2,0 L1,4 L0,6 L0,13 L5,8 L6,7 L2,5 L3,3 L8,4 L11,7 L11,15 L7,20 L1,20 L-2,17 L-3,15 L-3,4 Z " fill="#DFDFDF" transform="translate(11,4)"/>
<path d="M0,0 L2,0 L1,4 L0,6 L0,13 L1,15 L3,14 L3,17 L6,19 L1,20 L-2,17 L-3,15 L-3,4 Z " fill="#E4E4E4" transform="translate(11,4)"/>
<path d="M0,0 L2,0 L2,2 L6,4 L1,10 L-1,13 L-2,10 L-2,3 Z " fill="#1A1A1A" transform="translate(12,7)"/>
<path d="M0,0 L1,4 L-2,9 L-6,10 L-3,4 Z " fill="#161616" transform="translate(19,12)"/>
<path d="M0,0 L3,1 L2,5 L-1,8 L-3,7 L-4,5 L-1,3 Z " fill="#BEBEBE" transform="translate(19,16)"/>
</svg>
