<?xml version="1.0" encoding="UTF-8"?>
<svg version="1.1" xmlns="http://www.w3.org/2000/svg" width="28" height="28">
<path d="M0,0 L28,0 L28,28 L0,28 Z " fill="#020202" transform="translate(0,0)"/>
<path d="M0,0 L4,1 L8,7 L7,13 L2,19 L-6,20 L-9,18 L-9,12 L-7,9 L-5,9 L-5,7 L1,5 L1,3 L-1,3 Z " fill="#E8E8E8" transform="translate(14,4)"/>
<path d="M0,0 L2,0 L2,7 L-4,11 L-8,10 L-8,5 L-3,1 Z " fill="#111111" transform="translate(16,11)"/>
<path d="M0,0 L2,1 L3,3 L-3,6 L-5,11 L-8,13 L-8,7 L-6,4 L-4,4 L-4,2 Z " fill="#CFCFCF" transform="translate(13,9)"/>
<path d="M0,0 L3,4 L8,4 L7,7 L2,7 L0,5 Z " fill="#F7F7F7" transform="translate(6,17)"/>
<path d="M0,0 L1,0 L2,7 L-2,11 L-4,11 L-5,8 L-1,6 Z " fill="#D0D0D0" transform="translate(18,12)"/>
</svg>
