<?xml version="1.0" encoding="UTF-8"?>
<svg version="1.1" xmlns="http://www.w3.org/2000/svg" width="28" height="28">
<path d="M0,0 L28,0 L28,28 L0,28 Z " fill="#020202" transform="translate(0,0)"/>
<path d="M0,0 L8,1 L14,6 L14,11 L9,16 L4,18 L-3,17 L-6,13 L-6,7 L-2,1 Z " fill="#0A0A0A" transform="translate(11,6)"/>
<path d="M0,0 L8,1 L14,6 L14,11 L9,16 L4,18 L-3,17 L-6,13 L-6,7 L-2,1 Z M3,2 L2,5 L1,3 L-2,4 L-4,8 L-3,14 L-1,16 L5,16 L11,12 L12,11 L12,6 L6,2 Z " fill="#DADADA" transform="translate(11,6)"/>
</svg>
