<?xml version="1.0" encoding="UTF-8"?>
<svg version="1.1" xmlns="http://www.w3.org/2000/svg" width="28" height="28">
<path d="M0,0 L28,0 L28,28 L0,28 Z " fill="#020202" transform="translate(0,0)"/>
<path d="M0,0 L6,0 L9,2 L10,7 L7,13 L0,17 L-8,17 L-10,15 L-9,7 L-4,2 Z " fill="#D4D4D4" transform="translate(15,6)"/>
<path d="M0,0 L7,0 L8,5 L3,10 L1,11 L-6,11 L-5,5 Z " fill="#090909" transform="translate(14,9)"/>
<path d="M0,0 L6,0 L8,1 L9,6 L6,7 L4,2 Z " fill="#E7E7E7" transform="translate(16,7)"/>
<path d="M0,0 L1,4 L6,4 L2,5 L2,7 L-2,5 L-1,1 Z " fill="#BEBEBE" transform="translate(7,16)"/>
<path d="M0,0 L5,0 L2,3 L-4,3 L-4,1 Z " fill="#E8E8E8" transform="translate(13,20)"/>
</svg>
