<?xml version="1.0" encoding="UTF-8"?>
<svg version="1.1" xmlns="http://www.w3.org/2000/svg" width="28" height="28">
<path d="M0,0 L28,0 L28,28 L0,28 Z " fill="#030303" transform="translate(0,0)"/>
<path d="M0,0 L5,2 L8,5 L9,14 L4,19 L1,20 L-6,20 L-10,17 L-9,10 L-5,4 Z " fill="#080808" transform="translate(15,3)"/>
<path d="M0,0 L5,2 L8,5 L9,14 L4,19 L1,20 L-6,20 L-10,17 L-9,10 L-5,4 Z M0,3 L-6,8 L-7,10 L-7,16 L-5,18 L2,18 L7,15 L7,7 L4,3 Z " fill="#DDDDDD" transform="translate(15,3)"/>
<path d="M0,0 L2,0 L2,6 L-1,7 Z " fill="#C2C2C2" transform="translate(6,13)"/>
</svg>
