<?xml version="1.0" encoding="UTF-8"?>
<svg version="1.1" xmlns="http://www.w3.org/2000/svg" width="28" height="28">
<path d="M0,0 L28,0 L28,28 L0,28 Z " fill="#030303" transform="translate(0,0)"/>
<path d="M0,0 L8,0 L12,4 L11,12 L3,19 L-4,20 L-6,18 L-6,10 L-2,2 L0,2 Z " fill="#0B0B0B" transform="translate(12,4)"/>
<path d="M0,0 L8,0 L12,4 L11,12 L3,19 L-4,20 L-6,18 L-6,10 L-2,2 L0,2 Z M0,3 L-4,12 L-4,17 L0,18 L6,14 L10,10 L10,5 L8,3 Z " fill="#E9E9E9" transform="translate(12,4)"/>
<path d="M0,0 L8,0 L12,4 L11,6 L8,4 L-1,4 L-2,2 L0,2 Z " fill="#C7C7C7" transform="translate(12,4)"/>
</svg>
