<?xml version="1.0" encoding="UTF-8"?>
<svg version="1.1" xmlns="http://www.w3.org/2000/svg" width="28" height="28">
<path d="M0,0 L28,0 L28,28 L0,28 Z " fill="#020202" transform="translate(0,0)"/>
<path d="M0,0 L5,1 L6,6 L1,14 L-7,18 L-13,18 L-14,13 L-9,7 L-5,2 Z " fill="#E9E9E9" transform="translate(19,5)"/>
<path d="M0,0 L2,0 L3,5 L-2,10 L-7,13 L-12,13 L-6,5 Z " fill="#161616" transform="translate(20,7)"/>
<path d="M0,0 L1,3 L-4,7 L-8,8 L-13,7 L-13,6 L-4,3 Z " fill="#CECECE" transform="translate(21,14)"/>
</svg>
