<?xml version="1.0" encoding="UTF-8"?>
<svg version="1.1" xmlns="http://www.w3.org/2000/svg" width="28" height="28">
<path d="M0,0 L28,0 L28,28 L0,28 Z " fill="#020202" transform="translate(0,0)"/>
<path d="M0,0 L7,1 L9,2 L9,10 L6,16 L0,20 L-5,19 L-5,10 L-1,1 Z " fill="#EDEDED" transform="translate(13,4)"/>
<path d="M0,0 L5,0 L6,1 L6,7 L1,13 L-4,14 L-2,4 Z " fill="#080808" transform="translate(14,7)"/>
<path d="M0,0 L4,2 L1,3 L-2,14 L-5,14 L-4,7 L-1,1 Z " fill="#C5C5C5" transform="translate(13,4)"/>
<path d="M0,0 L1,4 L6,4 L6,6 L0,7 L-1,6 L-1,1 Z " fill="#F5F5F5" transform="translate(9,17)"/>
<path d="M0,0 L2,0 L1,4 L-3,8 L-7,6 L-2,3 Z " fill="#CDCDCD" transform="translate(19,14)"/>
</svg>
