<?xml version="1.0" encoding="UTF-8"?>
<svg version="1.1" xmlns="http://www.w3.org/2000/svg" width="28" height="28">
<path d="M0,0 L28,0 L28,28 L0,28 Z " fill="#010101" transform="translate(0,0)"/>
<path d="M0,0 L1,2 L3,2 L4,4 L4,12 L2,17 L-1,20 L-6,19 L-9,15 L-9,7 L-7,7 L-5,3 Z " fill="#E6E6E6" transform="translate(16,4)"/>
<path d="M0,0 L4,1 L4,7 L1,12 L-2,11 L-4,8 L-3,3 Z " fill="#0D0D0D" transform="translate(13,9)"/>
<path d="M0,0 L1,2 L-1,1 Z M-3,2 L-1,3 L-4,6 L-7,9 L-8,15 L-9,15 L-9,7 L-7,7 L-5,3 Z " fill="#CECECE" transform="translate(16,4)"/>
</svg>
