<?xml version="1.0" encoding="UTF-8"?>
<svg version="1.1" xmlns="http://www.w3.org/2000/svg" width="28" height="28">
<path d="M0,0 L28,0 L28,28 L0,28 Z " fill="#020202" transform="translate(0,0)"/>
<path d="M0,0 L5,1 L7,3 L7,13 L1,20 L-4,19 L-5,17 L-5,7 Z " fill="#DFDFDF" transform="translate(13,4)"/>
<path d="M0,0 L2,0 L2,2 L4,2 L3,12 L1,15 L-3,16 L-4,15 L-4,7 L-1,1 Z " fill="#090909" transform="translate(14,6)"/>
<path d="M0,0 L3,1 L-1,6 L-3,16 L-4,16 L-5,7 Z " fill="#C4C4C4" transform="translate(13,4)"/>
</svg>
