<?xml version="1.0" encoding="UTF-8"?>
<svg version="1.1" xmlns="http://www.w3.org/2000/svg" width="28" height="28">
<path d="M0,0 L28,0 L28,28 L0,28 Z " fill="#020202" transform="translate(0,0)"/>
<path d="M0,0 L4,1 L6,4 L6,14 L3,19 L-2,20 L-5,16 L-5,7 L-1,1 Z " fill="#EFEFEF" transform="translate(14,5)"/>
<path d="M0,0 L3,1 L3,10 L0,14 L-4,13 L-3,4 Z " fill="#0D0D0D" transform="translate(15,8)"/>
<path d="M0,0 L3,1 L1,3 L-2,10 L-4,16 L-5,16 L-5,7 L-1,1 Z " fill="#D6D6D6" transform="translate(14,5)"/>
</svg>
