<?xml version="1.0" encoding="UTF-8"?>
<svg version="1.1" xmlns="http://www.w3.org/2000/svg" width="28" height="28">
<path d="M0,0 L28,0 L28,28 L0,28 Z " fill="#030303" transform="translate(0,0)"/>
<path d="M0,0 L6,1 L7,6 L4,15 L-2,20 L-8,20 L-11,18 L-11,12 L-5,4 Z " fill="#E0E0E0" transform="translate(16,4)"/>
<path d="M0,0 L2,0 L2,6 L-1,12 L-6,15 L-11,14 L-10,8 L-6,6 L-4,2 Z " fill="#0D0D0D" transform="translate(18,7)"/>
<path d="M0,0 L4,1 L2,4 L-3,5 Z " fill="#F1F1F1" transform="translate(16,4)"/>
</svg>
