<?xml version="1.0" encoding="UTF-8"?>
<svg version="1.1" xmlns="http://www.w3.org/2000/svg" width="28" height="28">
<path d="M0,0 L28,0 L28,28 L0,28 Z " fill="#020202" transform="translate(0,0)"/>
<path d="M0,0 L4,1 L5,2 L5,9 L1,17 L-3,20 L-9,20 L-11,18 L-11,12 L-5,5 L1,4 L1,7 L-5,9 L-8,12 L-9,17 L-2,15 L1,10 L3,2 L-4,3 L-4,1 Z " fill="#DDDDDD" transform="translate(17,4)"/>
<path d="M0,0 L8,0 L7,8 L4,13 L2,15 L-4,15 L-4,10 L1,5 L6,5 L6,2 L0,2 Z " fill="#0C0C0C" transform="translate(12,6)"/>
<path d="M0,0 L8,0 L7,8 L6,6 L4,5 L6,5 L6,2 L0,2 Z " fill="#3C3C3C" transform="translate(12,6)"/>
</svg>
