<?xml version="1.0" encoding="UTF-8"?>
<svg version="1.1" xmlns="http://www.w3.org/2000/svg" width="28" height="28">
<path d="M0,0 L28,0 L28,28 L0,28 Z " fill="#010101" transform="translate(0,0)"/>
<path d="M0,0 L5,1 L6,2 L5,10 L2,16 L-4,20 L-12,20 L-11,14 L-10,12 L-8,12 L-6,6 L-2,1 Z " fill="#CBCBCB" transform="translate(17,5)"/>
<path d="M0,0 L2,2 L-1,10 L-5,14 L-10,15 L-12,13 L-11,10 L-6,5 Z " fill="#0A0A0A" transform="translate(19,8)"/>
<path d="M0,0 L5,1 L5,4 L-2,5 L-2,1 Z " fill="#E8E8E8" transform="translate(17,5)"/>
<path d="M0,0 L1,0 L0,8 L-3,14 L-5,11 L-1,2 Z " fill="#C0C0C0" transform="translate(22,7)"/>
<path d="M0,0 L2,0 L0,4 L-3,6 L-10,6 L-10,4 L0,2 Z " fill="#E6E6E6" transform="translate(16,19)"/>
</svg>
