<?xml version="1.0" encoding="UTF-8"?>
<svg version="1.1" xmlns="http://www.w3.org/2000/svg" width="28" height="28">
<path d="M0,0 L28,0 L28,28 L0,28 Z " fill="#040404" transform="translate(0,0)"/>
<path d="M0,0 L4,1 L5,3 L5,12 L2,17 L-3,20 L-7,17 L-7,9 L-3,2 Z " fill="#E5E5E5" transform="translate(15,5)"/>
<path d="M0,0 L4,0 L4,8 L1,12 L-3,12 L-2,4 Z " fill="#090909" transform="translate(13,10)"/>
<path d="M0,0 L3,0 L4,2 L4,11 L2,11 L2,3 L-2,2 Z " fill="#F7F7F7" transform="translate(16,6)"/>
<path d="M0,0 L3,0 L4,11 L0,12 L2,1 Z " fill="#C1C1C1" transform="translate(15,9)"/>
</svg>
