<?xml version="1.0" encoding="UTF-8"?>
<svg version="1.1" xmlns="http://www.w3.org/2000/svg" width="28" height="28">
<path d="M0,0 L28,0 L28,28 L0,28 Z " fill="#030303" transform="translate(0,0)"/>
<path d="M0,0 L6,1 L10,6 L10,15 L6,19 L-1,20 L-5,18 L-6,16 L-6,4 L-3,1 Z " fill="#0B0B0B" transform="translate(13,5)"/>
<path d="M0,0 L6,1 L10,6 L10,15 L6,19 L-1,20 L-5,18 L-6,16 L-6,4 L-3,1 Z M-2,2 L-4,8 L-5,9 L-4,16 L-1,18 L5,18 L9,14 L9,8 L7,4 L3,2 Z " fill="#EAEAEA" transform="translate(13,5)"/>
</svg>
