<?xml version="1.0" encoding="UTF-8"?>
<svg version="1.1" xmlns="http://www.w3.org/2000/svg" width="28" height="28">
<path d="M0,0 L28,0 L28,28 L0,28 Z " fill="#020202" transform="translate(0,0)"/>
<path d="M0,0 L6,2 L7,3 L7,12 L3,18 L-3,20 L-6,17 L-5,8 L-1,1 Z " fill="#D6D6D6" transform="translate(14,4)"/>
<path d="M0,0 L3,0 L2,9 L-2,13 L-5,13 L-5,6 L-3,1 L-2,3 L0,3 Z " fill="#090909" transform="translate(16,8)"/>
<path d="M0,0 L2,0 L2,7 L-1,7 L-3,17 L-4,17 L-5,8 L-1,1 Z " fill="#C3C3C3" transform="translate(14,4)"/>
<path d="M0,0 L2,0 L2,5 L8,5 L8,7 L3,8 L0,5 Z " fill="#F0F0F0" transform="translate(8,16)"/>
</svg>
