<?xml version="1.0" encoding="UTF-8"?>
<svg version="1.1" xmlns="http://www.w3.org/2000/svg" width="28" height="28">
<path d="M0,0 L28,0 L28,28 L0,28 Z " fill="#010101" transform="translate(0,0)"/>
<path d="M0,0 L7,1 L10,4 L11,13 L8,18 L6,20 L1,20 L-3,15 L-3,6 L-1,1 Z " fill="#D7D7D7" transform="translate(11,5)"/>
<path d="M0,0 L6,1 L7,2 L7,11 L5,14 L0,13 L-1,11 L-1,2 Z " fill="#090909" transform="translate(12,8)"/>
<path d="M0,0 L7,1 L10,4 L10,12 L8,12 L7,5 L1,3 L-1,13 L-2,13 L-2,2 Z " fill="#EDEDED" transform="translate(11,5)"/>
<path d="M0,0 L1,0 L0,9 L-4,10 L-2,5 L0,5 Z " fill="#BCBCBC" transform="translate(21,12)"/>
</svg>
