<?xml version="1.0" encoding="UTF-8"?>
<svg version="1.1" xmlns="http://www.w3.org/2000/svg" width="28" height="28">
<path d="M0,0 L28,0 L28,28 L0,28 Z " fill="#020202" transform="translate(0,0)"/>
<path d="M0,0 L6,0 L9,3 L10,13 L7,18 L4,18 L4,20 L-3,19 L-6,10 L-5,3 Z " fill="#EBEBEB" transform="translate(12,5)"/>
<path d="M0,0 L6,2 L6,9 L3,13 L-1,12 L-3,5 L-1,4 Z " fill="#111111" transform="translate(12,8)"/>
<path d="M0,0 L6,0 L6,1 L1,2 L0,7 L-5,8 L-5,3 Z " fill="#D1D1D1" transform="translate(12,5)"/>
</svg>
