<?xml version="1.0" encoding="UTF-8"?>
<svg version="1.1" xmlns="http://www.w3.org/2000/svg" width="28" height="28">
<path d="M0,0 L28,0 L28,28 L0,28 Z " fill="#030303" transform="translate(0,0)"/>
<path d="M0,0 L5,0 L7,4 L6,11 L1,16 L-5,18 L-11,18 L-13,15 L-12,7 L-9,4 L-3,2 Z " fill="#DFDFDF" transform="translate(18,5)"/>
<path d="M0,0 L4,1 L4,7 L-1,11 L-10,12 L-10,6 L-5,3 L-1,3 Z " fill="#060606" transform="translate(18,8)"/>
<path d="M0,0 L5,0 L7,6 L4,9 L3,4 L0,1 Z " fill="#CECECE" transform="translate(18,5)"/>
<path d="M0,0 L3,0 L1,5 L-6,5 L-5,3 Z " fill="#F2F2F2" transform="translate(16,6)"/>
<path d="M0,0 L2,1 L0,7 L-4,9 L-2,5 Z " fill="#F7F7F7" transform="translate(23,10)"/>
</svg>
