<?xml version="1.0" encoding="UTF-8"?>
<svg version="1.1" xmlns="http://www.w3.org/2000/svg" width="28" height="28">
<path d="M0,0 L28,0 L28,28 L0,28 Z " fill="#020202" transform="translate(0,0)"/>
<path d="M0,0 L7,1 L11,6 L11,14 L8,19 L6,20 L0,20 L-2,18 L-3,14 L-3,5 L-8,8 L-6,3 Z " fill="#080808" transform="translate(12,5)"/>
<path d="M0,0 L7,1 L11,6 L11,14 L8,19 L6,20 L0,20 L-2,18 L-3,14 L-3,5 L-8,8 L-6,3 Z M1,2 L-1,4 L-1,16 L2,18 L7,17 L9,14 L9,7 L4,2 Z " fill="#C4C4C4" transform="translate(12,5)"/>
<path d="M0,0 L7,1 L11,6 L11,14 L9,16 L8,14 L8,7 L4,3 L0,4 L-2,8 L-2,3 Z " fill="#E2E2E2" transform="translate(12,5)"/>
</svg>
