<?xml version="1.0" encoding="UTF-8"?>
<svg version="1.1" xmlns="http://www.w3.org/2000/svg" width="28" height="28">
<path d="M0,0 L28,0 L28,28 L0,28 Z " fill="#010101" transform="translate(0,0)"/>
<path d="M0,0 L3,0 L3,3 L8,4 L9,8 L4,13 L0,15 L-8,15 L-11,12 L-11,7 L-3,1 Z " fill="#E3E3E3" transform="translate(16,6)"/>
<path d="M0,0 L10,0 L11,4 L4,9 L-2,9 L-3,8 L-3,3 Z " fill="#060606" transform="translate(11,10)"/>
<path d="M0,0 L3,1 L1,1 L1,4 L-6,6 L-8,12 L-11,9 L-9,5 L-3,1 Z " fill="#BFBFBF" transform="translate(16,6)"/>
<path d="M0,0 L2,0 L2,2 L7,3 L8,7 L4,4 L0,3 Z " fill="#F1F1F1" transform="translate(17,7)"/>
<path d="M0,0 L3,1 L1,3 L0,8 L-3,5 L-1,1 Z " fill="#D5D5D5" transform="translate(8,10)"/>
</svg>
