<?xml version="1.0" encoding="UTF-8"?>
<svg version="1.1" xmlns="http://www.w3.org/2000/svg" width="28" height="28">
<path d="M0,0 L28,0 L28,28 L0,28 Z " fill="#020202" transform="translate(0,0)"/>
<path d="M0,0 L6,0 L11,3 L14,7 L14,14 L12,14 L10,18 L6,20 L0,20 L-4,15 L-4,6 L-1,1 Z " fill="#070707" transform="translate(10,5)"/>
<path d="M0,0 L6,0 L11,3 L14,7 L14,14 L12,14 L11,17 L10,15 L11,8 L6,3 L1,4 L-1,5 L-2,13 L1,17 L9,16 L9,19 L0,20 L-4,15 L-4,6 L-1,1 Z " fill="#CFCFCF" transform="translate(10,5)"/>
</svg>
