<?xml version="1.0" encoding="UTF-8"?>
<svg version="1.1" xmlns="http://www.w3.org/2000/svg" width="28" height="28">
<path d="M0,0 L28,0 L28,28 L0,28 Z " fill="#040404" transform="translate(0,0)"/>
<path d="M0,0 L5,2 L8,7 L8,14 L2,19 L0,20 L-6,20 L-8,19 L-8,10 L-4,2 Z " fill="#090909" transform="translate(15,4)"/>
<path d="M0,0 L5,2 L8,7 L8,14 L2,19 L0,20 L-6,20 L-8,19 L-8,10 L-4,2 Z M0,3 L-3,4 L-6,10 L-6,17 L-5,18 L2,17 L5,14 L5,6 L3,3 Z " fill="#E7E7E7" transform="translate(15,4)"/>
<path d="M0,0 L3,3 L1,7 L-3,10 L-5,10 L-5,8 L-1,5 Z " fill="#C9C9C9" transform="translate(20,13)"/>
</svg>
