<?xml version="1.0" encoding="UTF-8"?>
<svg version="1.1" xmlns="http://www.w3.org/2000/svg" width="28" height="28">
<path d="M0,0 L28,0 L28,28 L0,28 Z " fill="#030303" transform="translate(0,0)"/>
<path d="M0,0 L9,1 L12,4 L11,11 L6,16 L0,19 L-6,19 L-8,17 L-8,11 L-5,5 Z " fill="#0B0B0B" transform="translate(13,5)"/>
<path d="M0,0 L9,1 L12,4 L11,11 L6,16 L0,19 L-6,19 L-8,17 L-8,11 L-5,5 Z M-1,3 L-6,11 L-6,16 L-5,17 L1,17 L9,11 L10,4 L9,3 L2,4 Z " fill="#DCDCDC" transform="translate(13,5)"/>
</svg>
