<?xml version="1.0" encoding="UTF-8"?>
<svg version="1.1" xmlns="http://www.w3.org/2000/svg" width="28" height="28">
<path d="M0,0 L28,0 L28,28 L0,28 Z " fill="#010101" transform="translate(0,0)"/>
<path d="M0,0 L3,0 L6,7 L6,16 L3,20 L-3,20 L-4,19 L-4,8 L-2,6 L-1,10 L-1,17 L3,16 L3,11 L2,10 L2,3 L-2,4 Z " fill="#E5E5E5" transform="translate(14,4)"/>
<path d="M0,0 L2,0 L3,7 L4,8 L4,13 L-1,15 L-2,14 L-2,1 Z " fill="#181818" transform="translate(14,7)"/>
<path d="M0,0 L2,1 L1,11 L-1,8 L-1,2 Z " fill="#EAEAEA" transform="translate(11,10)"/>
<path d="M0,0 L1,0 L1,9 L-2,12 L-4,10 L-1,7 Z " fill="#C5C5C5" transform="translate(19,11)"/>
</svg>
