<?xml version="1.0" encoding="UTF-8"?>
<svg version="1.1" xmlns="http://www.w3.org/2000/svg" width="28" height="28">
<path d="M0,0 L28,0 L28,28 L0,28 Z " fill="#020202" transform="translate(0,0)"/>
<path d="M0,0 L5,0 L9,5 L9,14 L5,19 L3,20 L-3,20 L-5,18 L-5,5 L-3,1 Z " fill="#0B0B0B" transform="translate(13,5)"/>
<path d="M0,0 L5,0 L9,5 L9,14 L5,19 L3,20 L-3,20 L-5,18 L-5,5 L-3,1 Z M-1,2 L-3,5 L-3,15 L-1,18 L6,16 L8,13 L7,5 L5,2 Z " fill="#DDDDDD" transform="translate(13,5)"/>
<path d="M0,0 L4,1 L1,4 L0,16 L-2,15 L-2,4 Z " fill="#E5E5E5" transform="translate(10,6)"/>
<path d="M0,0 L4,2 L10,1 L6,5 L0,5 L-2,1 Z " fill="#B7B7B7" transform="translate(10,20)"/>
</svg>
