<?xml version="1.0" encoding="UTF-8"?>
<svg version="1.1" xmlns="http://www.w3.org/2000/svg" width="28" height="28">
<path d="M0,0 L28,0 L28,28 L0,28 Z " fill="#020202" transform="translate(0,0)"/>
<path d="M0,0 L6,0 L6,9 L2,13 L-4,15 L-13,15 L-14,14 L-14,9 L-5,2 Z " fill="#E4E4E4" transform="translate(18,6)"/>
<path d="M0,0 L2,0 L2,6 L-2,9 L-6,10 L-13,10 L-12,6 L-7,5 L-7,3 L-2,2 Z " fill="#0E0E0E" transform="translate(20,8)"/>
<path d="M0,0 L3,1 L2,4 L15,3 L15,5 L9,7 L0,7 L-1,6 L-1,1 Z " fill="#F5F5F5" transform="translate(5,14)"/>
<path d="M0,0 L2,1 L2,4 L-5,5 Z " fill="#C2C2C2" transform="translate(11,9)"/>
</svg>
