<?xml version="1.0" encoding="UTF-8"?>
<svg version="1.1" xmlns="http://www.w3.org/2000/svg" width="28" height="28">
<path d="M0,0 L28,0 L28,28 L0,28 Z " fill="#030303" transform="translate(0,0)"/>
<path d="M0,0 L4,1 L7,3 L8,9 L5,17 L3,19 L-6,20 L-10,16 L-9,7 L-2,1 Z " fill="#0C0C0C" transform="translate(16,4)"/>
<path d="M0,0 L4,1 L7,3 L8,9 L5,17 L3,19 L-6,20 L-10,16 L-9,7 L-2,1 Z M1,2 L-6,8 L-7,10 L-7,16 L-6,17 L1,17 L5,13 L6,11 L6,5 L1,6 L2,2 Z " fill="#E2E2E2" transform="translate(16,4)"/>
</svg>
