<?xml version="1.0" encoding="UTF-8"?>
<svg version="1.1" xmlns="http://www.w3.org/2000/svg" width="28" height="28">
<path d="M0,0 L28,0 L28,28 L0,28 Z " fill="#030303" transform="translate(0,0)"/>
<path d="M0,0 L7,1 L11,5 L12,8 L12,16 L9,20 L2,20 L-2,16 L-3,10 L-2,2 Z " fill="#F1F1F1" transform="translate(10,4)"/>
<path d="M0,0 L4,1 L8,5 L8,12 L6,14 L-1,13 L-2,12 L-2,5 L0,5 Z " fill="#171717" transform="translate(12,7)"/>
<path d="M0,0 L1,0 L2,13 L0,14 L-1,8 Z " fill="#D6D6D6" transform="translate(8,6)"/>
</svg>
