<?xml version="1.0" encoding="UTF-8"?>
<svg version="1.1" xmlns="http://www.w3.org/2000/svg" width="28" height="28">
<path d="M0,0 L28,0 L28,28 L0,28 Z " fill="#030303" transform="translate(0,0)"/>
<path d="M0,0 L5,1 L6,9 L5,15 L3,15 L1,19 L-1,20 L-7,20 L-11,15 L-10,9 L-6,4 Z " fill="#F0F0F0" transform="translate(16,4)"/>
<path d="M0,0 L1,0 L1,8 L-4,14 L-9,13 L-10,9 L-6,3 Z " fill="#0C0C0C" transform="translate(18,7)"/>
<path d="M0,0 L5,1 L4,9 L3,9 L2,4 L-5,8 L-7,12 L-9,12 L-9,15 L-11,15 L-10,9 L-6,4 Z " fill="#E0E0E0" transform="translate(16,4)"/>
<path d="M0,0 L5,1 L4,9 L3,9 L2,4 L-1,4 Z " fill="#C9C9C9" transform="translate(16,4)"/>
</svg>
