<?xml version="1.0" encoding="UTF-8"?>
<svg version="1.1" xmlns="http://www.w3.org/2000/svg" width="28" height="28">
<path d="M0,0 L28,0 L28,28 L0,28 Z " fill="#010101" transform="translate(0,0)"/>
<path d="M0,0 L3,0 L3,2 L8,4 L11,8 L10,15 L4,20 L-1,19 L-4,16 L-5,13 L-5,5 L-4,3 L-2,3 L-2,1 Z " fill="#050505" transform="translate(12,4)"/>
<path d="M0,0 L3,0 L3,2 L8,4 L11,8 L10,15 L4,20 L-1,19 L-4,16 L-5,13 L-5,5 L-4,3 L-2,3 L-2,1 Z M0,2 L-3,6 L-2,15 L1,18 L5,17 L8,15 L8,7 L2,2 Z " fill="#C6C6C6" transform="translate(12,4)"/>
<path d="M0,0 L2,0 L1,7 L-5,12 L-9,11 L-5,9 L-1,5 Z " fill="#D8D8D8" transform="translate(21,12)"/>
<path d="M0,0 L1,2 L6,4 L8,8 L7,13 L6,13 L4,6 L-1,1 Z " fill="#A8A8A8" transform="translate(14,4)"/>
</svg>
