<?xml version="1.0" encoding="UTF-8"?>
<svg version="1.1" xmlns="http://www.w3.org/2000/svg" width="28" height="28">
<path d="M0,0 L28,0 L28,28 L0,28 Z " fill="#020202" transform="translate(0,0)"/>
<path d="M0,0 L8,1 L10,3 L10,9 L4,14 L-7,14 L-10,11 L-10,6 L-4,1 Z " fill="#E7E7E7" transform="translate(15,7)"/>
<path d="M0,0 L2,0 L2,6 L-4,11 L-15,11 L-18,8 L-17,4 L-15,3 L-15,7 L-13,8 L-12,5 L-12,8 L-4,6 L-1,3 Z " fill="#E4E4E4" transform="translate(23,10)"/>
<path d="M0,0 L5,0 L3,5 L-1,7 L-7,7 L-7,4 Z " fill="#0B0B0B" transform="translate(18,11)"/>
<path d="M0,0 L2,1 L0,4 L-1,10 L-4,9 L-4,6 L-6,7 L-4,3 Z " fill="#888888" transform="translate(11,8)"/>
</svg>
