<?xml version="1.0" encoding="UTF-8"?>
<svg version="1.1" xmlns="http://www.w3.org/2000/svg" width="28" height="28">
<path d="M0,0 L28,0 L28,28 L0,28 Z " fill="#030303" transform="translate(0,0)"/>
<path d="M0,0 L9,1 L12,4 L11,11 L8,16 L3,20 L-4,19 L-8,14 L-8,8 L-2,1 Z " fill="#0E0E0E" transform="translate(12,5)"/>
<path d="M0,0 L9,1 L12,4 L11,11 L8,16 L3,20 L-4,19 L-8,14 L-8,8 L-2,1 Z M1,2 L0,4 L6,5 L-4,7 L-6,9 L-6,14 L-3,17 L4,17 L10,8 L9,4 L6,2 Z " fill="#DDDDDD" transform="translate(12,5)"/>
<path d="M0,0 L7,1 L10,4 L9,11 L6,16 L3,19 L-3,19 L0,17 L5,12 L7,8 L6,4 L-1,2 Z " fill="#EFEFEF" transform="translate(14,5)"/>
<path d="M0,0 L2,1 L1,3 L6,4 L6,5 L-4,5 L-2,1 Z " fill="#CACACA" transform="translate(12,5)"/>
</svg>
