<?xml version="1.0" encoding="UTF-8"?>
<svg version="1.1" xmlns="http://www.w3.org/2000/svg" width="28" height="28">
<path d="M0,0 L28,0 L28,28 L0,28 Z " fill="#040404" transform="translate(0,0)"/>
<path d="M0,0 L10,1 L12,3 L13,11 L12,14 L8,17 L0,18 L-5,16 L-7,14 L-7,7 L-5,4 L-3,4 L-3,2 Z " fill="#E8E8E8" transform="translate(12,6)"/>
<path d="M0,0 L6,0 L7,7 L3,10 L-6,11 L-8,10 L-8,5 L-5,4 L-3,1 Z " fill="#171717" transform="translate(16,10)"/>
<path d="M0,0 L1,4 L4,5 L4,7 L0,6 L-2,2 Z " fill="#C3C3C3" transform="translate(7,16)"/>
</svg>
