<?xml version="1.0" encoding="UTF-8"?>
<svg version="1.1" xmlns="http://www.w3.org/2000/svg" width="28" height="28">
<path d="M0,0 L28,0 L28,28 L0,28 Z " fill="#020202" transform="translate(0,0)"/>
<path d="M0,0 L6,0 L8,1 L11,6 L13,8 L12,13 L10,14 L-1,13 L-7,8 L-6,3 Z " fill="#E2E2E2" transform="translate(12,8)"/>
<path d="M0,0 L7,1 L11,5 L11,8 L7,9 L0,7 L-3,5 L-2,1 Z " fill="#0C0C0C" transform="translate(11,11)"/>
<path d="M0,0 L2,4 L0,5 L-6,5 L-8,4 L-8,2 L0,2 Z " fill="#C6C6C6" transform="translate(22,17)"/>
</svg>
