<?xml version="1.0" encoding="UTF-8"?>
<svg version="1.1" xmlns="http://www.w3.org/2000/svg" width="28" height="28">
<path d="M0,0 L28,0 L28,28 L0,28 Z " fill="#010101" transform="translate(0,0)"/>
<path d="M0,0 L5,1 L8,4 L7,13 L3,19 L-1,19 L-2,16 L-2,5 Z " fill="#CECECE" transform="translate(12,5)"/>
<path d="M0,0 L5,1 L4,10 L1,14 L-1,14 L-1,4 Z " fill="#0E0E0E" transform="translate(13,8)"/>
<path d="M0,0 L1,0 L0,7 L-4,12 L-7,11 L-6,8 L-3,7 Z " fill="#E9E9E9" transform="translate(18,13)"/>
</svg>
