<?xml version="1.0" encoding="UTF-8"?>
<svg version="1.1" xmlns="http://www.w3.org/2000/svg" width="28" height="28">
<path d="M0,0 L28,0 L28,28 L0,28 Z " fill="#030303" transform="translate(0,0)"/>
<path d="M0,0 L5,1 L8,4 L10,8 L9,13 L4,19 L-2,20 L-5,18 L-6,15 L-6,5 L-4,1 Z " fill="#090909" transform="translate(13,4)"/>
<path d="M0,0 L5,1 L8,4 L10,8 L9,13 L4,19 L-2,20 L-5,18 L-6,15 L-6,5 L-4,1 Z M2,2 L-3,4 L-4,5 L-4,12 L-3,16 L2,17 L7,11 L7,5 L5,5 L4,2 Z " fill="#D2D2D2" transform="translate(13,4)"/>
<path d="M0,0 L3,1 L1,3 L0,9 L-2,9 L-2,3 Z " fill="#F6F6F6" transform="translate(9,6)"/>
</svg>
