<?xml version="1.0" encoding="UTF-8"?>
<svg version="1.1" xmlns="http://www.w3.org/2000/svg" width="28" height="28">
<path d="M0,0 L28,0 L28,28 L0,28 Z " fill="#030303" transform="translate(0,0)"/>
<path d="M0,0 L10,2 L11,4 L11,14 L10,17 L8,17 L7,20 L0,19 L-3,16 L-3,4 Z " fill="#E5E5E5" transform="translate(11,5)"/>
<path d="M0,0 L4,2 L5,8 L3,14 L-2,14 L-5,9 L-4,2 Z " fill="#060606" transform="translate(15,8)"/>
<path d="M0,0 L3,4 L7,6 L4,6 L3,8 L-2,4 L-2,2 L0,2 Z " fill="#CBCBCB" transform="translate(10,17)"/>
</svg>
