<?xml version="1.0" encoding="UTF-8"?>
<svg version="1.1" xmlns="http://www.w3.org/2000/svg" width="28" height="28">
<path d="M0,0 L28,0 L28,28 L0,28 Z " fill="#010101" transform="translate(0,0)"/>
<path d="M0,0 L4,1 L7,6 L7,14 L2,19 L1,20 L-5,20 L-7,17 L-7,10 L-3,2 Z " fill="#060606" transform="translate(14,4)"/>
<path d="M0,0 L4,1 L7,6 L7,14 L2,19 L1,20 L-5,20 L-7,17 L-7,10 L-3,2 Z M0,2 L-5,9 L-5,17 L-4,18 L1,18 L5,14 L5,6 L1,5 L1,3 L3,2 Z " fill="#BCBCBC" transform="translate(14,4)"/>
<path d="M0,0 L1,4 L-4,9 L-9,9 L-5,7 L-1,3 Z " fill="#D5D5D5" transform="translate(19,15)"/>
</svg>
