<?xml version="1.0" encoding="UTF-8"?>
<svg version="1.1" xmlns="http://www.w3.org/2000/svg" width="28" height="28">
<path d="M0,0 L28,0 L28,28 L0,28 Z " fill="#020202" transform="translate(0,0)"/>
<path d="M0,0 L5,0 L9,6 L8,13 L3,18 L-1,20 L-7,19 L-7,17 L-9,17 L-9,10 Z " fill="#0D0D0D" transform="translate(15,4)"/>
<path d="M0,0 L5,0 L9,6 L8,13 L3,18 L-1,20 L-7,19 L-7,17 L-9,17 L-9,10 Z M1,2 L-6,9 L-7,15 L-5,18 L2,17 L6,12 L6,5 L3,4 L3,2 Z " fill="#DADADA" transform="translate(15,4)"/>
<path d="M0,0 L2,0 L3,6 L0,12 L-4,11 L-1,8 Z " fill="#C1C1C1" transform="translate(21,8)"/>
</svg>
