<?xml version="1.0" encoding="UTF-8"?>
<svg version="1.1" xmlns="http://www.w3.org/2000/svg" width="28" height="28">
<path d="M0,0 L28,0 L28,28 L0,28 Z " fill="#040404" transform="translate(0,0)"/>
<path d="M0,0 L1,3 L5,5 L7,9 L7,16 L4,19 L-1,19 L-6,14 L-7,13 L-7,4 Z " fill="#EAEAEA" transform="translate(15,5)"/>
<path d="M0,0 L5,2 L6,3 L6,10 L1,11 L-3,6 L-1,1 Z " fill="#0C0C0C" transform="translate(13,10)"/>
<path d="M0,0 L1,0 L1,5 L3,5 L1,9 L-3,10 L-3,7 L-1,6 Z " fill="#CFCFCF" transform="translate(19,14)"/>
</svg>
