<?xml version="1.0" encoding="UTF-8"?>
<svg version="1.1" xmlns="http://www.w3.org/2000/svg" width="28" height="28">
<path d="M0,0 L28,0 L28,28 L0,28 Z " fill="#020202" transform="translate(0,0)"/>
<path d="M0,0 L6,2 L8,7 L8,13 L6,18 L3,20 L-4,19 L-6,17 L-6,7 L-2,1 Z " fill="#0B0B0B" transform="translate(14,4)"/>
<path d="M0,0 L6,2 L8,7 L8,13 L6,18 L3,20 L-4,19 L-6,17 L-6,7 L-2,1 Z M0,2 L-4,8 L-4,16 L0,18 L4,17 L6,14 L6,6 L3,2 Z " fill="#C9C9C9" transform="translate(14,4)"/>
<path d="M0,0 L6,2 L7,4 L7,10 L5,6 L3,3 L-1,4 L-4,10 L-5,6 L-2,1 Z " fill="#E2E2E2" transform="translate(14,4)"/>
</svg>
