<?xml version="1.0" encoding="UTF-8"?>
<svg version="1.1" xmlns="http://www.w3.org/2000/svg" width="28" height="28">
<path d="M0,0 L28,0 L28,28 L0,28 Z " fill="#020202" transform="translate(0,0)"/>
<path d="M0,0 L4,0 L5,2 L5,10 L1,18 L-1,20 L-5,20 L-6,14 L-4,5 Z " fill="#D8D8D8" transform="translate(15,5)"/>
<path d="M0,0 L2,0 L1,9 L-3,15 L-8,16 L-9,10 L-8,5 L-6,5 L-5,12 L-1,6 Z " fill="#EAEAEA" transform="translate(18,9)"/>
<path d="M0,0 L5,1 L3,7 L-1,10 Z " fill="#1E1E1E" transform="translate(13,12)"/>
</svg>
