<?xml version="1.0" encoding="UTF-8"?>
<svg version="1.1" xmlns="http://www.w3.org/2000/svg" width="28" height="28">
<path d="M0,0 L28,0 L28,28 L0,28 Z " fill="#020202" transform="translate(0,0)"/>
<path d="M0,0 L6,0 L8,1 L9,4 L9,11 L6,16 L2,20 L-4,20 L-9,17 L-9,10 L-7,7 L-3,5 Z " fill="#E8E8E8" transform="translate(14,4)"/>
<path d="M0,0 L3,1 L0,10 L-3,11 L-7,10 L-7,7 L-5,7 L-4,3 Z " fill="#131313" transform="translate(17,9)"/>
<path d="M0,0 L3,1 L2,6 L-1,5 L-1,3 L-3,2 Z " fill="#3B3B3B" transform="translate(17,9)"/>
</svg>
