<?xml version="1.0" encoding="UTF-8"?>
<svg version="1.1" xmlns="http://www.w3.org/2000/svg" width="28" height="28">
<path d="M0,0 L28,0 L28,28 L0,28 Z " fill="#020202" transform="translate(0,0)"/>
<path d="M0,0 L3,0 L5,6 L5,18 L3,20 L-4,20 L-8,18 L-8,10 L-4,3 L-1,3 Z " fill="#ECECEC" transform="translate(15,4)"/>
<path d="M0,0 L3,1 L4,11 L3,12 L-3,12 L-4,7 Z " fill="#0D0D0D" transform="translate(14,9)"/>
<path d="M0,0 L1,0 L1,5 L-3,7 L-3,5 L-7,4 L-1,2 Z " fill="#CDCDCD" transform="translate(19,17)"/>
</svg>
