<?xml version="1.0" encoding="UTF-8"?>
<svg version="1.1" xmlns="http://www.w3.org/2000/svg" width="28" height="28">
<path d="M0,0 L28,0 L28,28 L0,28 Z " fill="#050505" transform="translate(0,0)"/>
<path d="M0,0 L2,0 L3,6 L7,8 L8,14 L4,19 L-11,19 L-12,16 L-7,6 L-5,2 Z " fill="#BDBDBD" transform="translate(17,3)"/>
<path d="M0,0 L5,1 L5,7 L2,9 L-5,9 L-7,7 L-6,3 L-4,1 Z " fill="#080808" transform="translate(17,11)"/>
<path d="M0,0 L3,2 L0,5 L1,9 L8,11 L8,12 L-5,12 L-6,9 L-2,1 Z " fill="#EEEEEE" transform="translate(11,10)"/>
<path d="M0,0 L4,1 L5,7 L1,12 L-7,11 L-7,10 L1,8 L2,2 L-1,1 Z " fill="#D5D5D5" transform="translate(20,10)"/>
</svg>
