<?xml version="1.0" encoding="UTF-8"?>
<svg version="1.1" xmlns="http://www.w3.org/2000/svg" width="28" height="28">
<path d="M0,0 L28,0 L28,28 L0,28 Z " fill="#030303" transform="translate(0,0)"/>
<path d="M0,0 L4,1 L7,7 L6,12 L4,16 L0,19 L-7,20 L-9,19 L-9,12 L-4,4 Z " fill="#E9E9E9" transform="translate(16,4)"/>
<path d="M0,0 L3,2 L3,11 L-2,14 L-6,14 L-5,6 Z " fill="#0C0C0C" transform="translate(16,7)"/>
<path d="M0,0 L3,0 L4,6 L1,11 L-3,13 L-5,11 L-1,9 Z " fill="#C5C5C5" transform="translate(19,9)"/>
</svg>
