<?xml version="1.0" encoding="UTF-8"?>
<svg version="1.1" xmlns="http://www.w3.org/2000/svg" width="28" height="28">
<path d="M0,0 L28,0 L28,28 L0,28 Z " fill="#030303" transform="translate(0,0)"/>
<path d="M0,0 L6,2 L10,6 L10,13 L5,18 L1,20 L-5,19 L-7,16 L-6,8 L-3,2 Z " fill="#0B0B0B" transform="translate(13,5)"/>
<path d="M0,0 L6,2 L10,6 L10,13 L5,18 L1,20 L-5,19 L-7,16 L-6,8 L-3,2 Z M0,3 L-3,7 L-4,16 L-2,18 L3,17 L8,14 L9,8 L7,4 Z " fill="#D6D6D6" transform="translate(13,5)"/>
<path d="M0,0 L6,2 L7,4 L3,5 L-1,2 Z " fill="#EFEFEF" transform="translate(13,5)"/>
</svg>
