<?xml version="1.0" encoding="UTF-8"?>
<svg version="1.1" xmlns="http://www.w3.org/2000/svg" width="28" height="28">
<path d="M0,0 L28,0 L28,28 L0,28 Z " fill="#020202" transform="translate(0,0)"/>
<path d="M0,0 L8,1 L9,5 L6,4 L6,11 L3,16 L0,19 L-9,20 L-10,15 L-2,6 Z " fill="#E5E5E5" transform="translate(15,4)"/>
<path d="M0,0 L1,3 L2,8 L-3,13 L-12,14 L-13,9 L-8,8 L-4,3 Z M-1,6 Z " fill="#E4E4E4" transform="translate(18,10)"/>
<path d="M0,0 L1,3 L-2,8 L-7,11 L-10,10 L-4,3 Z " fill="#1E1E1E" transform="translate(18,10)"/>
</svg>
