<?xml version="1.0" encoding="UTF-8"?>
<svg version="1.1" xmlns="http://www.w3.org/2000/svg" width="28" height="28">
<path d="M0,0 L28,0 L28,28 L0,28 Z " fill="#020202" transform="translate(0,0)"/>
<path d="M0,0 L6,1 L8,9 L5,15 L0,19 L-8,20 L-10,15 L-8,10 L-3,4 L-1,4 Z " fill="#0B0B0B" transform="translate(15,5)"/>
<path d="M0,0 L6,1 L8,9 L5,15 L0,19 L-8,20 L-10,15 L-8,10 L-3,4 L-1,4 Z M1,3 L-6,10 L-7,17 L-2,18 L4,13 L5,7 L4,3 Z " fill="#E1E1E1" transform="translate(15,5)"/>
<path d="M0,0 L3,0 L4,2 L7,3 L7,5 L2,5 Z " fill="#C1C1C1" transform="translate(5,20)"/>
</svg>
