<?xml version="1.0" encoding="UTF-8"?>
<svg version="1.1" xmlns="http://www.w3.org/2000/svg" width="28" height="28">
<path d="M0,0 L28,0 L28,28 L0,28 Z " fill="#030303" transform="translate(0,0)"/>
<path d="M0,0 L5,0 L9,0 L10,2 L10,10 L6,16 L-2,19 L-9,18 L-10,16 L-9,7 Z " fill="#070707" transform="translate(14,5)"/>
<path d="M0,0 L5,0 L9,0 L10,2 L10,10 L6,16 L-2,19 L-9,18 L-10,16 L-9,7 Z M2,2 L-7,9 L-8,15 L-7,16 L0,16 L5,14 L8,8 L8,3 L5,4 L5,2 Z " fill="#D8D8D8" transform="translate(14,5)"/>
</svg>
