<?xml version="1.0" encoding="UTF-8"?>
<svg version="1.1" xmlns="http://www.w3.org/2000/svg" width="28" height="28">
<path d="M0,0 L28,0 L28,28 L0,28 Z " fill="#020202" transform="translate(0,0)"/>
<path d="M0,0 L5,1 L7,2 L7,12 L3,18 L-1,20 L-7,20 L-11,17 L-11,11 L-8,5 Z " fill="#0A0A0A" transform="translate(16,4)"/>
<path d="M0,0 L5,1 L7,2 L7,12 L3,18 L-1,20 L-7,20 L-11,17 L-11,11 L-8,5 Z M0,3 L-7,8 L-9,12 L-8,16 L-5,18 L0,17 L2,13 L4,13 L5,7 L3,3 Z " fill="#E9E9E9" transform="translate(16,4)"/>
<path d="M0,0 L1,0 L1,10 L-3,16 L-8,16 L-4,11 L-2,11 L-2,6 L-1,6 Z " fill="#C2C2C2" transform="translate(22,6)"/>
</svg>
