<?xml version="1.0" encoding="UTF-8"?>
<svg version="1.1" xmlns="http://www.w3.org/2000/svg" width="28" height="28">
<path d="M0,0 L28,0 L28,28 L0,28 Z " fill="#020202" transform="translate(0,0)"/>
<path d="M0,0 L4,2 L6,3 L7,6 L7,13 L6,16 L4,16 L4,19 L0,20 L-7,20 L-11,18 L-11,16 L-13,16 L-13,7 L-7,2 Z " fill="#0B0B0B" transform="translate(17,4)"/>
<path d="M0,0 L4,2 L6,3 L7,6 L7,13 L6,16 L4,16 L4,19 L0,20 L-7,20 L-11,18 L-11,16 L-13,16 L-13,7 L-7,2 Z M0,4 L-7,6 L-10,8 L-11,14 L-6,18 L-1,18 L3,15 L4,12 L4,5 Z " fill="#E2E2E2" transform="translate(17,4)"/>
</svg>
