<?xml version="1.0" encoding="UTF-8"?>
<svg version="1.1" xmlns="http://www.w3.org/2000/svg" width="28" height="28">
<path d="M0,0 L28,0 L28,28 L0,28 Z " fill="#010101" transform="translate(0,0)"/>
<path d="M0,0 L5,1 L10,5 L10,12 L5,17 L1,20 L-5,19 L-6,17 L-6,9 L-2,1 Z " fill="#D8D8D8" transform="translate(13,4)"/>
<path d="M0,0 L6,3 L7,4 L7,9 L1,15 L-4,15 L-4,6 Z " fill="#0B0B0B" transform="translate(14,6)"/>
<path d="M0,0 L1,3 L-1,10 L-2,10 L-2,2 Z " fill="#EFEFEF" transform="translate(9,11)"/>
<path d="M0,0 L1,0 L1,7 L4,8 L2,8 L1,10 L-1,9 Z " fill="#B1B1B1" transform="translate(9,14)"/>
</svg>
