<?xml version="1.0" encoding="UTF-8"?>
<svg version="1.1" xmlns="http://www.w3.org/2000/svg" width="28" height="28">
<path d="M0,0 L28,0 L28,28 L0,28 Z " fill="#020202" transform="translate(0,0)"/>
<path d="M0,0 L6,1 L7,2 L6,12 L3,15 L-4,18 L-11,17 L-13,14 L-13,7 L-9,3 Z " fill="#0A0A0A" transform="translate(18,5)"/>
<path d="M0,0 L6,1 L7,2 L6,12 L3,15 L-4,18 L-11,17 L-13,14 L-13,7 L-9,3 Z M0,2 L0,4 L-5,4 L-11,9 L-10,14 L-9,15 L0,14 L4,10 L4,3 Z " fill="#E5E5E5" transform="translate(18,5)"/>
</svg>
