<?xml version="1.0" encoding="UTF-8"?>
<svg version="1.1" xmlns="http://www.w3.org/2000/svg" width="28" height="28">
<path d="M0,0 L28,0 L28,28 L0,28 Z " fill="#020202" transform="translate(0,0)"/>
<path d="M0,0 L6,0 L10,5 L10,13 L7,18 L3,20 L-2,20 L-5,16 L-4,6 Z " fill="#0C0C0C" transform="translate(12,4)"/>
<path d="M0,0 L6,0 L10,5 L10,13 L7,18 L3,20 L-2,20 L-5,16 L-4,6 Z M3,2 L0,3 L-3,11 L-2,16 L-1,17 L6,16 L8,12 L7,3 Z " fill="#DADADA" transform="translate(12,4)"/>
<path d="M0,0 L6,0 L9,4 L9,12 L7,13 L6,2 L0,2 Z " fill="#E8E8E8" transform="translate(13,5)"/>
<path d="M0,0 L2,4 L-2,7 L-8,6 L-8,5 L-1,3 Z " fill="#B6B6B6" transform="translate(19,16)"/>
</svg>
