<?xml version="1.0" encoding="UTF-8"?>
<svg version="1.1" xmlns="http://www.w3.org/2000/svg" width="28" height="28">
<path d="M0,0 L28,0 L28,28 L0,28 Z " fill="#020202" transform="translate(0,0)"/>
<path d="M0,0 L7,1 L9,4 L8,9 L3,14 L0,17 L-9,18 L-11,16 L-10,10 L-6,4 Z " fill="#E3E3E3" transform="translate(16,6)"/>
<path d="M0,0 L8,2 L6,6 L2,10 L-5,11 L-4,4 Z " fill="#0B0B0B" transform="translate(14,10)"/>
<path d="M0,0 L7,1 L6,6 L0,5 L-1,2 Z " fill="#C7C7C7" transform="translate(16,6)"/>
</svg>
