<?xml version="1.0" encoding="UTF-8"?>
<svg version="1.1" xmlns="http://www.w3.org/2000/svg" width="28" height="28">
<path d="M0,0 L28,0 L28,28 L0,28 Z " fill="#020202" transform="translate(0,0)"/>
<path d="M0,0 L6,0 L8,1 L9,5 L11,6 L10,14 L0,18 L-8,18 L-9,9 L-6,3 L-4,1 Z " fill="#E9E9E9" transform="translate(14,6)"/>
<path d="M0,0 L9,1 L12,4 L11,8 L9,8 L9,10 L4,12 L-2,12 L-4,10 L-3,4 Z " fill="#0C0C0C" transform="translate(11,10)"/>
<path d="M0,0 L2,4 L4,5 L3,13 L-7,17 L-15,17 L-12,15 L-1,13 L-1,11 L1,10 L1,5 L-1,4 Z " fill="#BEBEBE" transform="translate(21,7)"/>
<path d="M0,0 L2,4 L4,5 L3,12 L0,11 L1,7 L1,5 L-1,4 Z " fill="#D7D7D7" transform="translate(21,7)"/>
<path d="M0,0 L1,0 L3,9 L0,9 L-1,7 L-1,1 Z " fill="#F6F6F6" transform="translate(6,14)"/>
</svg>
