<?xml version="1.0" encoding="UTF-8"?>
<svg version="1.1" xmlns="http://www.w3.org/2000/svg" width="28" height="28">
<path d="M0,0 L28,0 L28,28 L0,28 Z " fill="#050505" transform="translate(0,0)"/>
<path d="M0,0 L5,1 L5,4 L7,4 L8,9 L5,17 L0,19 L-9,19 L-12,18 L-12,12 L-9,5 L-4,1 Z " fill="#090909" transform="translate(16,5)"/>
<path d="M0,0 L5,1 L5,4 L7,4 L8,9 L5,17 L0,19 L-9,19 L-12,18 L-12,12 L-10,11 L-8,16 L4,15 L4,6 L-3,6 L-9,9 L-11,8 L-7,3 Z " fill="#E8E8E8" transform="translate(16,5)"/>
<path d="M0,0 L2,3 L3,5 L15,4 L16,2 L16,6 L11,8 L2,8 L-1,7 L-1,1 Z " fill="#C9C9C9" transform="translate(5,16)"/>
</svg>
