<?xml version="1.0" encoding="UTF-8"?>
<svg version="1.1" xmlns="http://www.w3.org/2000/svg" width="28" height="28">
<path d="M0,0 L28,0 L28,28 L0,28 Z " fill="#020202" transform="translate(0,0)"/>
<path d="M0,0 L4,2 L9,7 L9,16 L4,20 L-3,19 L-6,17 L-6,11 L-2,2 Z " fill="#D3D3D3" transform="translate(13,4)"/>
<path d="M0,0 L2,0 L0,5 L1,4 L6,3 L7,5 L7,11 L3,15 L-3,14 L-3,5 Z " fill="#040404" transform="translate(13,7)"/>
<path d="M0,0 L1,3 L0,12 L6,13 L6,15 L0,14 L-3,12 L-3,6 Z " fill="#E1E1E1" transform="translate(10,9)"/>
<path d="M0,0 L1,0 L2,8 L-3,12 L-4,9 L-1,6 Z " fill="#B1B1B1" transform="translate(20,12)"/>
<path d="M0,0 L4,2 L2,5 L2,3 L0,4 L-2,7 L-3,3 Z " fill="#BABABA" transform="translate(13,4)"/>
<path d="M0,0 L2,0 L0,5 L0,8 L-3,9 L-2,4 Z " fill="#1E1E1E" transform="translate(13,7)"/>
</svg>
