<?xml version="1.0" encoding="UTF-8"?>
<svg version="1.1" xmlns="http://www.w3.org/2000/svg" width="28" height="28">
<path d="M0,0 L28,0 L28,28 L0,28 Z " fill="#020202" transform="translate(0,0)"/>
<path d="M0,0 L9,0 L12,4 L11,12 L5,19 L-1,20 L-7,16 L-8,14 L-8,8 L-4,3 L-1,3 Z " fill="#D7D7D7" transform="translate(12,6)"/>
<path d="M0,0 L2,0 L3,5 L0,11 L-3,14 L-8,14 L-12,10 L-12,5 L-7,2 L0,2 Z " fill="#090909" transform="translate(18,9)"/>
<path d="M0,0 L6,0 L7,2 L5,2 L5,4 L-1,4 L-1,6 L-5,8 L-5,13 L-2,16 L3,17 L2,19 L-4,18 L-8,14 L-8,8 L-4,3 L-1,3 Z " fill="#E7E7E7" transform="translate(12,6)"/>
<path d="M0,0 L6,0 L7,2 L5,2 L5,4 L-3,5 Z " fill="#FDFDFD" transform="translate(12,6)"/>
</svg>
