<?xml version="1.0" encoding="UTF-8"?>
<svg version="1.1" xmlns="http://www.w3.org/2000/svg" width="28" height="28">
<path d="M0,0 L28,0 L28,28 L0,28 Z " fill="#030303" transform="translate(0,0)"/>
<path d="M0,0 L5,0 L10,3 L12,7 L11,11 L8,14 L5,15 L-6,15 L-8,12 L-8,7 L-3,2 Z " fill="#E2E2E2" transform="translate(13,6)"/>
<path d="M0,0 L7,0 L9,2 L8,7 L4,9 L-4,9 L-5,4 L-3,2 L0,2 Z " fill="#0D0D0D" transform="translate(13,10)"/>
<path d="M0,0 L1,0 L2,5 L10,6 L10,8 L0,8 L-2,3 Z " fill="#F4F4F4" transform="translate(7,13)"/>
<path d="M0,0 L2,1 L1,2 L3,4 L-3,6 L-5,8 L-4,4 Z " fill="#C4C4C4" transform="translate(10,8)"/>
</svg>
