<?xml version="1.0" encoding="UTF-8"?>
<svg version="1.1" xmlns="http://www.w3.org/2000/svg" width="28" height="28">
<path d="M0,0 L28,0 L28,28 L0,28 Z " fill="#020202" transform="translate(0,0)"/>
<path d="M0,0 L6,0 L12,7 L11,14 L9,14 L8,17 L2,20 L-5,20 L-8,17 L-7,8 L-4,3 L0,2 Z " fill="#E7E7E7" transform="translate(13,4)"/>
<path d="M0,0 L5,1 L6,2 L6,8 L3,11 L-2,13 L-7,12 L-8,8 L-5,2 Z " fill="#0E0E0E" transform="translate(15,8)"/>
<path d="M0,0 L1,4 L3,4 L3,7 L1,7 L0,10 L-5,12 L-5,8 L-1,7 Z " fill="#CCCCCC" transform="translate(21,11)"/>
</svg>
