<?xml version="1.0" encoding="UTF-8"?>
<svg version="1.1" xmlns="http://www.w3.org/2000/svg" width="28" height="28">
<path d="M0,0 L28,0 L28,28 L0,28 Z " fill="#030303" transform="translate(0,0)"/>
<path d="M0,0 L5,1 L10,8 L10,14 L7,18 L4,19 L-5,19 L-9,16 L-10,9 L-7,4 Z " fill="#070707" transform="translate(15,4)"/>
<path d="M0,0 L5,1 L10,8 L10,14 L7,18 L4,19 L-5,19 L-9,16 L-10,9 L-7,4 Z M0,3 L-6,7 L-8,12 L-5,16 L5,16 L8,14 L7,7 L1,3 Z " fill="#D6D6D6" transform="translate(15,4)"/>
<path d="M0,0 L1,2 L0,6 L2,9 L12,11 L11,13 L2,13 L-2,10 L-3,3 Z " fill="#EEEEEE" transform="translate(8,10)"/>
<path d="M0,0 L2,1 L0,6 L-3,7 L-10,6 L-10,5 L-1,3 Z " fill="#BBBBBB" transform="translate(23,15)"/>
</svg>
