<?xml version="1.0" encoding="UTF-8"?>
<svg version="1.1" xmlns="http://www.w3.org/2000/svg" width="28" height="28">
<path d="M0,0 L28,0 L28,28 L0,28 Z " fill="#020202" transform="translate(0,0)"/>
<path d="M0,0 L4,1 L4,3 L7,4 L8,6 L8,12 L2,19 L-3,20 L-6,17 L-6,8 L-4,8 L-3,3 Z " fill="#0F0F0F" transform="translate(14,5)"/>
<path d="M0,0 L4,1 L4,3 L7,4 L8,6 L8,12 L2,19 L-3,20 L-6,17 L-6,8 L-4,8 L-3,3 Z M0,2 L-4,9 L-4,17 L0,18 L6,11 L6,6 L1,5 L1,3 L3,2 Z " fill="#DDDDDD" transform="translate(14,5)"/>
</svg>
