<?xml version="1.0" encoding="UTF-8"?>
<svg version="1.1" xmlns="http://www.w3.org/2000/svg" width="28" height="28">
<path d="M0,0 L28,0 L28,28 L0,28 Z " fill="#010101" transform="translate(0,0)"/>
<path d="M0,0 L4,2 L6,5 L6,12 L4,17 L1,20 L-6,19 L-8,17 L-8,12 L-2,2 Z " fill="#DADADA" transform="translate(15,4)"/>
<path d="M0,0 L2,0 L3,7 L1,12 L-1,14 L-6,13 L-5,5 L-3,2 L0,2 Z " fill="#0D0D0D" transform="translate(16,8)"/>
<path d="M0,0 L3,1 L1,7 L-1,6 L-1,1 Z " fill="#C3C3C3" transform="translate(8,15)"/>
<path d="M0,0 L1,3 L-1,3 L-3,8 L-5,8 L-3,2 Z " fill="#F3F3F3" transform="translate(14,7)"/>
</svg>
