<?xml version="1.0" encoding="UTF-8"?>
<svg version="1.1" xmlns="http://www.w3.org/2000/svg" width="28" height="28">
<path d="M0,0 L28,0 L28,28 L0,28 Z " fill="#010101" transform="translate(0,0)"/>
<path d="M0,0 L4,1 L9,9 L8,17 L4,20 L-3,20 L-6,17 L-7,11 L-3,2 Z " fill="#0C0C0C" transform="translate(14,4)"/>
<path d="M0,0 L4,1 L9,9 L8,17 L4,20 L-3,20 L-6,17 L-7,11 L-3,2 Z M0,3 L-2,4 L-4,10 L-3,17 L3,18 L7,14 L6,8 L2,3 Z " fill="#D0D0D0" transform="translate(14,4)"/>
<path d="M0,0 L1,4 L1,11 L9,12 L8,14 L1,14 L-2,11 L-3,5 Z " fill="#E8E8E8" transform="translate(10,10)"/>
</svg>
