<?xml version="1.0" encoding="UTF-8"?>
<svg version="1.1" xmlns="http://www.w3.org/2000/svg" width="28" height="28">
<path d="M0,0 L28,0 L28,28 L0,28 Z " fill="#020202" transform="translate(0,0)"/>
<path d="M0,0 L5,0 L7,2 L7,9 L1,16 L-7,20 L-12,19 L-13,12 L-8,4 L-5,1 Z " fill="#E2E2E2" transform="translate(18,5)"/>
<path d="M0,0 L3,1 L2,7 L-3,12 L-8,15 L-12,15 L-12,9 L-9,6 L-7,11 L-6,4 L-3,1 Z " fill="#101010" transform="translate(20,7)"/>
<path d="M0,0 L3,2 L3,8 L-2,4 L-2,1 Z " fill="#CCCCCC" transform="translate(11,11)"/>
</svg>
