<?xml version="1.0" encoding="UTF-8"?>
<svg version="1.1" xmlns="http://www.w3.org/2000/svg" width="28" height="28">
<path d="M0,0 L28,0 L28,28 L0,28 Z " fill="#030303" transform="translate(0,0)"/>
<path d="M0,0 L9,2 L14,7 L15,12 L13,16 L8,19 L-1,20 L-5,15 L-5,7 L-2,1 Z " fill="#0D0D0D" transform="translate(10,5)"/>
<path d="M0,0 L9,2 L14,7 L15,12 L13,16 L8,19 L-1,20 L-5,15 L-5,7 L-2,1 Z M1,2 L-3,8 L-3,15 L0,18 L7,17 L12,13 L11,6 L8,4 L2,5 Z " fill="#D1D1D1" transform="translate(10,5)"/>
<path d="M0,0 L9,2 L10,4 L2,5 L1,3 L-2,8 L-2,18 L-5,15 L-5,7 L-2,1 Z " fill="#E8E8E8" transform="translate(10,5)"/>
</svg>
