<?xml version="1.0" encoding="UTF-8"?>
<svg version="1.1" xmlns="http://www.w3.org/2000/svg" width="28" height="28">
<path d="M0,0 L28,0 L28,28 L0,28 Z " fill="#010101" transform="translate(0,0)"/>
<path d="M0,0 L6,1 L9,5 L11,15 L9,19 L7,20 L1,20 L-2,18 L-3,10 L-1,1 Z " fill="#E3E3E3" transform="translate(11,5)"/>
<path d="M0,0 L3,1 L5,6 L5,13 L3,15 L-2,15 L-3,14 L-3,7 Z " fill="#090909" transform="translate(14,8)"/>
<path d="M0,0 L2,4 L1,9 L-2,12 L-8,12 L-11,10 L-12,2 L-10,2 L-8,9 L-3,9 Z " fill="#C9C9C9" transform="translate(20,13)"/>
</svg>
