<?xml version="1.0" encoding="UTF-8"?>
<svg version="1.1" xmlns="http://www.w3.org/2000/svg" width="28" height="28">
<path d="M0,0 L28,0 L28,28 L0,28 Z " fill="#040404" transform="translate(0,0)"/>
<path d="M0,0 L7,1 L9,2 L9,4 L11,4 L12,12 L11,16 L9,16 L8,19 L6,20 L-3,19 L-6,15 L-6,7 L-5,4 Z " fill="#F1F1F1" transform="translate(12,5)"/>
<path d="M0,0 L3,0 L2,7 L4,8 L6,2 L8,4 L7,11 L3,15 L-2,14 L-4,13 L-4,5 Z " fill="#111111" transform="translate(13,8)"/>
<path d="M0,0 L5,2 L4,4 L0,5 L-3,8 L-3,6 L-5,6 L-5,4 Z " fill="#D1D1D1" transform="translate(12,5)"/>
<path d="M0,0 L1,2 L3,2 L3,5 L1,5 L0,8 L-3,9 L-4,6 L-2,6 Z " fill="#D5D5D5" transform="translate(20,16)"/>
</svg>
