<?xml version="1.0" encoding="UTF-8"?>
<svg version="1.1" xmlns="http://www.w3.org/2000/svg" width="28" height="28">
<path d="M0,0 L28,0 L28,28 L0,28 Z " fill="#020202" transform="translate(0,0)"/>
<path d="M0,0 L6,1 L7,2 L7,9 L6,13 L1,17 L-1,17 L-1,19 L-10,19 L-12,18 L-13,9 L-10,6 L-5,1 Z " fill="#E7E7E7" transform="translate(17,5)"/>
<path d="M0,0 L7,0 L6,5 L2,10 L-5,11 L-6,7 L-3,4 L3,4 Z " fill="#070707" transform="translate(14,9)"/>
<path d="M0,0 L4,1 L9,2 L9,3 L4,4 L1,5 L1,2 L-1,1 Z " fill="#BCBCBC" transform="translate(12,6)"/>
</svg>
