<?xml version="1.0" encoding="UTF-8"?>
<svg version="1.1" xmlns="http://www.w3.org/2000/svg" width="28" height="28">
<path d="M0,0 L28,0 L28,28 L0,28 Z " fill="#020202" transform="translate(0,0)"/>
<path d="M0,0 L6,0 L9,3 L8,10 L3,18 L0,20 L-9,20 L-8,12 L-3,2 Z " fill="#E3E3E3" transform="translate(14,5)"/>
<path d="M0,0 L3,1 L3,7 L1,11 L-1,11 L-3,15 L-6,17 L-9,17 L-8,10 L-3,3 Z " fill="#0E0E0E" transform="translate(17,7)"/>
<path d="M0,0 L2,2 L1,9 L-1,7 Z " fill="#BFBFBF" transform="translate(21,6)"/>
</svg>
