<?xml version="1.0" encoding="UTF-8"?>
<svg version="1.1" xmlns="http://www.w3.org/2000/svg" width="28" height="28">
<path d="M0,0 L28,0 L28,28 L0,28 Z " fill="#020202" transform="translate(0,0)"/>
<path d="M0,0 L8,1 L10,4 L9,12 L5,17 L-3,20 L-8,19 L-10,17 L-9,11 L-3,3 Z " fill="#E9E9E9" transform="translate(15,5)"/>
<path d="M0,0 L5,0 L5,6 L0,12 L-5,14 L-9,13 L-8,6 L-5,4 L-3,5 L-1,1 Z " fill="#0B0B0B" transform="translate(17,9)"/>
<path d="M0,0 L6,2 L7,8 L4,15 L-1,18 L-3,16 L2,12 L4,4 L1,4 Z " fill="#C4C4C4" transform="translate(18,5)"/>
</svg>
