<?xml version="1.0" encoding="UTF-8"?>
<svg version="1.1" xmlns="http://www.w3.org/2000/svg" width="28" height="28">
<path d="M0,0 L28,0 L28,28 L0,28 Z " fill="#020202" transform="translate(0,0)"/>
<path d="M0,0 L5,1 L10,6 L10,15 L6,19 L4,20 L-5,19 L-7,17 L-7,12 L-4,8 Z " fill="#DFDFDF" transform="translate(12,4)"/>
<path d="M0,0 L4,1 L4,3 L6,3 L8,6 L7,11 L2,14 L-4,14 L-5,10 Z " fill="#0D0D0D" transform="translate(13,7)"/>
<path d="M0,0 L5,1 L10,6 L10,13 L8,9 L7,6 L5,6 L4,4 L1,4 L0,7 L-2,7 L-1,1 Z " fill="#E9E9E9" transform="translate(12,4)"/>
<path d="M0,0 L2,4 L-1,11 L-4,12 L-4,7 L-1,3 Z " fill="#BCBCBC" transform="translate(9,9)"/>
</svg>
