<?xml version="1.0" encoding="UTF-8"?>
<svg version="1.1" xmlns="http://www.w3.org/2000/svg" width="28" height="28">
<path d="M0,0 L28,0 L28,28 L0,28 Z " fill="#030303" transform="translate(0,0)"/>
<path d="M0,0 L9,3 L9,9 L5,17 L3,19 L-6,20 L-8,17 L-7,11 L-3,3 Z " fill="#DADADA" transform="translate(13,5)"/>
<path d="M0,0 L2,1 L2,10 L3,12 L-3,11 L-2,5 Z " fill="#828282" transform="translate(8,11)"/>
<path d="M0,0 L1,4 L-1,7 L-5,6 L-4,1 Z " fill="#202020" transform="translate(15,14)"/>
<path d="M0,0 L1,2 L4,2 L4,4 L7,4 L6,7 L5,6 L0,6 L-1,1 Z " fill="#F2F2F2" transform="translate(10,9)"/>
<path d="M0,0 L4,2 L-1,6 L-3,3 Z " fill="#969696" transform="translate(13,5)"/>
</svg>
