<?xml version="1.0" encoding="UTF-8"?>
<svg version="1.1" xmlns="http://www.w3.org/2000/svg" width="28" height="28">
<path d="M0,0 L28,0 L28,28 L0,28 Z " fill="#020202" transform="translate(0,0)"/>
<path d="M0,0 L5,0 L12,6 L13,8 L13,15 L10,19 L1,20 L-5,16 L-6,15 L-6,7 L-3,2 Z " fill="#080808" transform="translate(11,5)"/>
<path d="M0,0 L5,0 L12,6 L13,8 L13,15 L10,19 L1,20 L-5,16 L-6,15 L-6,7 L-3,2 Z M0,3 L-3,6 L-3,15 L0,17 L9,17 L11,15 L11,8 L8,6 L7,7 L5,4 Z " fill="#D4D4D4" transform="translate(11,5)"/>
<path d="M0,0 L5,0 L12,6 L13,8 L13,15 L10,18 L10,15 L10,8 L9,7 L7,9 L5,5 L-1,3 Z " fill="#EAEAEA" transform="translate(11,5)"/>
<path d="M0,0 L3,1 L1,4 L0,12 L-1,12 L-2,3 Z " fill="#B3B3B3" transform="translate(8,7)"/>
</svg>
