<?xml version="1.0" encoding="UTF-8"?>
<svg version="1.1" xmlns="http://www.w3.org/2000/svg" width="28" height="28">
<path d="M0,0 L28,0 L28,28 L0,28 Z " fill="#030303" transform="translate(0,0)"/>
<path d="M0,0 L6,0 L12,5 L14,9 L13,16 L8,19 L-1,19 L-6,14 L-6,7 L-3,1 Z " fill="#0F0F0F" transform="translate(11,5)"/>
<path d="M0,0 L6,0 L12,5 L14,9 L13,16 L8,19 L-1,19 L-6,14 L-6,7 L-3,1 Z M-2,3 L-4,7 L-4,14 L-1,17 L8,17 L12,14 L11,7 L7,3 L5,3 L4,5 L3,3 Z " fill="#F1F1F1" transform="translate(11,5)"/>
<path d="M0,0 L6,0 L12,5 L14,9 L13,16 L9,18 L9,15 L12,14 L10,7 L5,3 L5,1 L0,1 Z " fill="#E4E4E4" transform="translate(11,5)"/>
<path d="M0,0 L6,0 L12,5 L12,7 L8,5 L5,3 L5,1 L0,1 Z " fill="#BEBEBE" transform="translate(11,5)"/>
</svg>
