<?xml version="1.0" encoding="UTF-8"?>
<svg version="1.1" xmlns="http://www.w3.org/2000/svg" width="28" height="28">
<path d="M0,0 L28,0 L28,28 L0,28 Z " fill="#030303" transform="translate(0,0)"/>
<path d="M0,0 L5,1 L6,10 L3,16 L-2,20 L-9,19 L-11,17 L-11,9 L-8,3 L-6,1 Z " fill="#E5E5E5" transform="translate(17,5)"/>
<path d="M0,0 L3,1 L4,7 L1,13 L-2,15 L-7,15 L-8,14 L-8,6 L-4,1 L0,2 Z " fill="#0B0B0B" transform="translate(17,7)"/>
<path d="M0,0 L1,0 L2,7 L6,9 L0,10 L-2,6 Z " fill="#C9C9C9" transform="translate(8,14)"/>
</svg>
