<?xml version="1.0" encoding="UTF-8"?>
<svg version="1.1" xmlns="http://www.w3.org/2000/svg" width="28" height="28">
<path d="M0,0 L28,0 L28,28 L0,28 Z " fill="#030303" transform="translate(0,0)"/>
<path d="M0,0 L10,0 L16,3 L17,9 L13,14 L8,16 L1,16 L-3,12 L-3,5 Z " fill="#0B0B0B" transform="translate(8,7)"/>
<path d="M0,0 L10,0 L16,3 L17,9 L13,14 L8,16 L1,16 L-3,12 L-3,5 Z M2,2 L-1,6 L-1,11 L2,14 L9,13 L14,10 L15,6 L10,2 L6,2 L5,5 Z " fill="#E4E4E4" transform="translate(8,7)"/>
<path d="M0,0 L6,2 L9,5 L8,9 L8,6 L4,4 L-2,2 L-3,6 L-4,3 L-3,1 Z " fill="#C1C1C1" transform="translate(16,7)"/>
</svg>
