<?xml version="1.0" encoding="UTF-8"?>
<svg version="1.1" xmlns="http://www.w3.org/2000/svg" width="28" height="28">
<path d="M0,0 L28,0 L28,28 L0,28 Z " fill="#020202" transform="translate(0,0)"/>
<path d="M0,0 L10,0 L15,3 L17,6 L16,11 L9,15 L1,15 L-2,12 L-3,3 Z " fill="#070707" transform="translate(9,7)"/>
<path d="M0,0 L10,0 L15,3 L17,6 L16,11 L9,15 L1,15 L-2,12 L-3,3 Z M7,2 L7,4 L0,3 L-1,4 L0,11 L2,13 L9,13 L15,9 L14,5 L12,3 Z " fill="#D3D3D3" transform="translate(9,7)"/>
<path d="M0,0 L7,0 L7,2 L1,3 L2,10 L9,13 L9,14 L2,14 L-1,11 L-2,2 Z " fill="#E4E4E4" transform="translate(8,8)"/>
<path d="M0,0 L10,0 L14,3 L12,4 L8,3 L5,3 L6,1 L0,1 Z " fill="#B0B0B0" transform="translate(9,7)"/>
</svg>
