<?xml version="1.0" encoding="UTF-8"?>
<svg version="1.1" xmlns="http://www.w3.org/2000/svg" width="28" height="28">
<path d="M0,0 L28,0 L28,28 L0,28 Z " fill="#030303" transform="translate(0,0)"/>
<path d="M0,0 L5,1 L8,5 L8,9 L10,9 L8,13 L1,19 L-6,20 L-9,18 L-9,10 L-7,9 L-4,4 Z " fill="#E7E7E7" transform="translate(15,4)"/>
<path d="M0,0 L3,1 L3,3 L6,4 L4,4 L3,9 L0,11 L-5,11 L-5,8 L-3,8 L-2,3 Z " fill="#060606" transform="translate(14,9)"/>
<path d="M0,0 L3,1 L3,3 L6,4 L0,4 L-2,5 Z M-3,5 Z " fill="#313131" transform="translate(14,9)"/>
</svg>
