<?xml version="1.0" encoding="UTF-8"?>
<svg version="1.1" xmlns="http://www.w3.org/2000/svg" width="28" height="28">
<path d="M0,0 L28,0 L28,28 L0,28 Z " fill="#020202" transform="translate(0,0)"/>
<path d="M0,0 L5,1 L10,6 L13,10 L13,17 L10,20 L4,20 L-2,15 L-3,12 L-3,4 Z " fill="#E3E3E3" transform="translate(10,4)"/>
<path d="M0,0 L3,0 L3,4 L8,5 L10,7 L10,13 L9,14 L2,13 L-1,7 Z " fill="#0B0B0B" transform="translate(10,7)"/>
<path d="M0,0 L7,6 L9,11 L6,14 L4,8 L-1,6 L-1,2 L-3,1 Z " fill="#C7C7C7" transform="translate(14,5)"/>
</svg>
