<?xml version="1.0" encoding="UTF-8"?>
<svg version="1.1" xmlns="http://www.w3.org/2000/svg" width="28" height="28">
<path d="M0,0 L28,0 L28,28 L0,28 Z " fill="#020202" transform="translate(0,0)"/>
<path d="M0,0 L4,1 L6,3 L5,11 L2,15 L0,15 L0,17 L-5,20 L-11,20 L-13,19 L-12,14 L-8,7 Z " fill="#D8D8D8" transform="translate(17,4)"/>
<path d="M0,0 L4,1 L5,6 L2,13 L-1,14 L-1,16 L-6,19 L-12,19 L-13,15 L-11,14 L-11,16 L-2,12 L-1,1 Z " fill="#E5E5E5" transform="translate(18,5)"/>
<path d="M0,0 L1,4 L-1,10 L-7,13 L-9,13 L-7,7 Z " fill="#090909" transform="translate(17,8)"/>
</svg>
