<?xml version="1.0" encoding="UTF-8"?>
<svg version="1.1" xmlns="http://www.w3.org/2000/svg" width="28" height="28">
<path d="M0,0 L28,0 L28,28 L0,28 Z " fill="#030303" transform="translate(0,0)"/>
<path d="M0,0 L6,1 L9,8 L8,15 L2,20 L-5,20 L-8,19 L-9,17 L-9,7 L-5,3 Z " fill="#EBEBEB" transform="translate(15,4)"/>
<path d="M0,0 L4,1 L5,2 L5,10 L1,14 L-6,13 L-7,12 L-7,5 L-2,4 Z " fill="#111111" transform="translate(16,7)"/>
<path d="M0,0 L2,0 L4,5 L3,10 L2,10 L0,3 L-2,1 Z " fill="#C2C2C2" transform="translate(19,5)"/>
</svg>
