<?xml version="1.0" encoding="UTF-8"?>
<svg version="1.1" xmlns="http://www.w3.org/2000/svg" width="28" height="28">
<path d="M0,0 L28,0 L28,28 L0,28 Z " fill="#030303" transform="translate(0,0)"/>
<path d="M0,0 L4,0 L4,10 L2,15 L0,15 L-1,18 L-6,20 L-11,20 L-13,18 L-12,10 L-10,10 L-8,5 L-5,4 L-5,2 Z " fill="#DADADA" transform="translate(18,4)"/>
<path d="M0,0 L1,0 L2,10 L-2,14 L-8,14 L-9,12 L-3,3 Z " fill="#0D0D0D" transform="translate(16,7)"/>
<path d="M0,0 L1,3 L0,6 L7,8 L4,10 L-1,10 L-3,8 L-3,3 Z M6,6 Z " fill="#F2F2F2" transform="translate(8,14)"/>
</svg>
