<?xml version="1.0" encoding="UTF-8"?>
<svg version="1.1" xmlns="http://www.w3.org/2000/svg" width="28" height="28">
<path d="M0,0 L28,0 L28,28 L0,28 Z " fill="#040404" transform="translate(0,0)"/>
<path d="M0,0 L6,0 L10,4 L11,12 L10,16 L8,16 L8,18 L4,20 L-4,20 L-9,17 L-8,8 L-2,2 L0,2 Z " fill="#EEEEEE" transform="translate(13,5)"/>
<path d="M0,0 L2,3 L5,0 L5,2 L7,2 L7,11 L0,14 L-5,14 L-7,10 L-1,1 Z " fill="#080808" transform="translate(14,9)"/>
<path d="M0,0 L2,3 L5,0 L5,2 L7,2 L7,9 L6,9 L6,3 L-1,8 L-3,3 Z " fill="#454545" transform="translate(14,9)"/>
</svg>
