<?xml version="1.0" encoding="UTF-8"?>
<svg version="1.1" xmlns="http://www.w3.org/2000/svg" width="28" height="28">
<path d="M0,0 L28,0 L28,28 L0,28 Z " fill="#020202" transform="translate(0,0)"/>
<path d="M0,0 L8,0 L12,4 L12,13 L6,20 L-2,20 L-7,14 L-6,7 L-2,1 Z " fill="#080808" transform="translate(12,5)"/>
<path d="M0,0 L8,0 L12,4 L12,13 L6,20 L-2,20 L-7,14 L-6,7 L-2,1 Z M0,3 L-3,6 L-4,13 L-3,16 L-1,17 L6,17 L10,12 L10,5 L6,3 L2,3 Z " fill="#DADADA" transform="translate(12,5)"/>
<path d="M0,0 L6,1 L8,4 L7,10 L6,10 L4,2 Z " fill="#C2C2C2" transform="translate(16,5)"/>
<path d="M0,0 L1,0 L1,6 L-3,11 L-5,11 L-3,7 Z " fill="#EDEDED" transform="translate(23,12)"/>
<path d="M0,0 L6,2 L3,5 L1,5 L1,2 L-1,1 Z " fill="#F5F5F5" transform="translate(14,5)"/>
</svg>
