<?xml version="1.0" encoding="UTF-8"?>
<svg version="1.1" xmlns="http://www.w3.org/2000/svg" width="28" height="28">
<path d="M0,0 L28,0 L28,28 L0,28 Z " fill="#010101" transform="translate(0,0)"/>
<path d="M0,0 L4,2 L6,5 L6,15 L1,20 L-4,18 L-4,7 L-2,7 L-2,2 Z " fill="#D5D5D5" transform="translate(14,4)"/>
<path d="M0,0 L3,3 L2,10 L1,12 L-3,11 L-2,3 Z " fill="#212121" transform="translate(15,8)"/>
<path d="M0,0 L1,3 L0,12 L-3,12 L-3,3 L-1,3 Z " fill="#ECECEC" transform="translate(13,8)"/>
</svg>
