<?xml version="1.0" encoding="UTF-8"?>
<svg version="1.1" xmlns="http://www.w3.org/2000/svg" width="28" height="28">
<path d="M0,0 L28,0 L28,28 L0,28 Z " fill="#030303" transform="translate(0,0)"/>
<path d="M0,0 L5,1 L7,6 L5,12 L-1,17 L-9,18 L-12,17 L-13,14 L-11,7 L-6,1 Z " fill="#E6E6E6" transform="translate(18,5)"/>
<path d="M0,0 L5,1 L6,5 L-1,6 L-5,7 L-5,12 L-12,12 L-11,7 L-6,1 Z " fill="#EEEEEE" transform="translate(18,5)"/>
<path d="M0,0 L3,0 L2,5 L0,5 L0,7 L-6,8 L-7,5 L-4,2 Z " fill="#121212" transform="translate(19,9)"/>
</svg>
