<?xml version="1.0" encoding="UTF-8"?>
<svg version="1.1" xmlns="http://www.w3.org/2000/svg" width="28" height="28">
<path d="M0,0 L28,0 L28,28 L0,28 Z " fill="#030303" transform="translate(0,0)"/>
<path d="M0,0 L6,1 L7,4 L9,4 L12,8 L12,16 L8,19 L4,20 L-3,19 L-6,14 L-6,6 L-3,2 L0,2 Z " fill="#EAEAEA" transform="translate(11,4)"/>
<path d="M0,0 L2,0 L1,5 L8,4 L9,5 L9,11 L7,13 L-1,13 L-3,11 L-3,3 Z " fill="#0E0E0E" transform="translate(11,7)"/>
<path d="M0,0 L4,1 L-2,6 L-3,14 L-6,11 L-6,6 L-3,2 L0,2 Z " fill="#CFCFCF" transform="translate(11,4)"/>
</svg>
