<?xml version="1.0" encoding="UTF-8"?>
<svg version="1.1" xmlns="http://www.w3.org/2000/svg" width="28" height="28">
<path d="M0,0 L28,0 L28,28 L0,28 Z " fill="#030303" transform="translate(0,0)"/>
<path d="M0,0 L9,2 L11,4 L10,13 L5,20 L-1,20 L-3,17 L-3,8 Z " fill="#D5D5D5" transform="translate(11,4)"/>
<path d="M0,0 L1,4 L1,10 L6,3 L8,3 L6,9 L2,14 L3,16 L8,13 L6,18 L0,18 L-2,15 L-2,6 Z " fill="#E8E8E8" transform="translate(10,6)"/>
<path d="M0,0 L1,0 L0,8 L-4,13 L-7,14 L-7,10 Z " fill="#1A1A1A" transform="translate(19,9)"/>
<path d="M0,0 L5,1 L3,6 L-2,11 L-2,4 Z " fill="#161616" transform="translate(12,6)"/>
</svg>
