<?xml version="1.0" encoding="UTF-8"?>
<svg version="1.1" xmlns="http://www.w3.org/2000/svg" width="28" height="28">
<path d="M0,0 L28,0 L28,28 L0,28 Z " fill="#030303" transform="translate(0,0)"/>
<path d="M0,0 L7,1 L10,4 L10,11 L4,18 L2,19 L-6,19 L-10,14 L-10,7 L-3,1 Z " fill="#DADADA" transform="translate(15,5)"/>
<path d="M0,0 L7,1 L7,8 L2,13 L-4,13 L-7,10 L-7,5 L-5,3 L-1,3 Z " fill="#070707" transform="translate(15,8)"/>
<path d="M0,0 L1,0 L3,7 L5,9 L9,10 L9,12 L2,12 L-2,7 L-2,2 Z " fill="#F0F0F0" transform="translate(7,12)"/>
</svg>
