<?xml version="1.0" encoding="UTF-8"?>
<svg version="1.1" xmlns="http://www.w3.org/2000/svg" width="28" height="28">
<path d="M0,0 L28,0 L28,28 L0,28 Z " fill="#020202" transform="translate(0,0)"/>
<path d="M0,0 L6,0 L9,3 L8,14 L4,19 L0,20 L-3,17 L-3,4 Z " fill="#EAEAEA" transform="translate(12,5)"/>
<path d="M0,0 L4,0 L5,8 L2,14 L-2,15 L-3,14 L-3,7 Z " fill="#0E0E0E" transform="translate(14,7)"/>
<path d="M0,0 L3,1 L4,3 L3,14 L-1,18 L-1,15 L1,10 L1,2 L-2,1 Z " fill="#D3D3D3" transform="translate(17,5)"/>
</svg>
