<?xml version="1.0" encoding="UTF-8"?>
<svg version="1.1" xmlns="http://www.w3.org/2000/svg" width="28" height="28">
<path d="M0,0 L28,0 L28,28 L0,28 Z " fill="#010101" transform="translate(0,0)"/>
<path d="M0,0 L5,0 L11,7 L12,9 L12,16 L7,20 L1,20 L-2,17 L-2,6 Z " fill="#080808" transform="translate(11,4)"/>
<path d="M0,0 L5,0 L11,7 L12,9 L12,16 L7,20 L1,20 L-2,17 L-2,6 Z M1,2 L0,5 L0,17 L1,18 L8,18 L10,16 L10,8 L5,2 Z " fill="#B8B8B8" transform="translate(11,4)"/>
<path d="M0,0 L3,1 L0,9 L-1,15 L-2,15 L-2,6 Z " fill="#E1E1E1" transform="translate(11,4)"/>
</svg>
