<?xml version="1.0" encoding="UTF-8"?>
<svg version="1.1" xmlns="http://www.w3.org/2000/svg" width="28" height="28">
<path d="M0,0 L28,0 L28,28 L0,28 Z " fill="#020202" transform="translate(0,0)"/>
<path d="M0,0 L5,2 L8,6 L7,11 L3,15 L-3,17 L-9,17 L-12,14 L-11,8 L-8,4 L-1,1 Z " fill="#EDEDED" transform="translate(16,5)"/>
<path d="M0,0 L4,0 L3,5 L-4,9 L-9,8 L-8,4 L-5,1 Z " fill="#0E0E0E" transform="translate(16,10)"/>
<path d="M0,0 L2,1 L1,2 L3,4 L-3,6 L-8,8 L-6,4 L-5,2 Z " fill="#D0D0D0" transform="translate(13,7)"/>
</svg>
