<?xml version="1.0" encoding="UTF-8"?>
<svg version="1.1" xmlns="http://www.w3.org/2000/svg" width="28" height="28">
<path d="M0,0 L28,0 L28,28 L0,28 Z " fill="#020202" transform="translate(0,0)"/>
<path d="M0,0 L9,3 L11,7 L10,14 L-1,20 L-8,20 L-9,19 L-9,10 L-4,3 Z " fill="#E8E8E8" transform="translate(14,4)"/>
<path d="M0,0 L9,3 L11,8 L2,7 L-6,12 L-9,15 L-9,10 L-4,3 Z " fill="#E9E9E9" transform="translate(14,4)"/>
<path d="M0,0 L5,0 L6,4 L-1,8 L-6,10 L-9,10 L-8,5 Z " fill="#101010" transform="translate(16,10)"/>
</svg>
