<?xml version="1.0" encoding="UTF-8"?>
<svg version="1.1" xmlns="http://www.w3.org/2000/svg" width="28" height="28">
<path d="M0,0 L28,0 L28,28 L0,28 Z " fill="#020202" transform="translate(0,0)"/>
<path d="M0,0 L7,0 L10,2 L10,9 L7,13 L3,15 L-6,15 L-10,12 L-8,5 L-5,4 L-5,2 Z " fill="#DBDBDB" transform="translate(14,7)"/>
<path d="M0,0 L8,0 L9,4 L4,9 L-5,9 L-4,4 Z " fill="#0D0D0D" transform="translate(13,10)"/>
<path d="M0,0 L7,0 L10,2 L10,9 L7,13 L4,12 L7,7 L7,4 L-3,4 Z " fill="#F2F2F2" transform="translate(14,7)"/>
</svg>
