<?xml version="1.0" encoding="UTF-8"?>
<svg version="1.1" xmlns="http://www.w3.org/2000/svg" width="28" height="28">
<path d="M0,0 L28,0 L28,28 L0,28 Z " fill="#020202" transform="translate(0,0)"/>
<path d="M0,0 L9,2 L12,6 L12,12 L10,15 L3,17 L-6,16 L-8,13 L-8,6 L-3,1 Z " fill="#E2E2E2" transform="translate(13,6)"/>
<path d="M0,0 L9,0 L11,3 L10,8 L7,10 L0,10 L-3,7 L-2,2 Z " fill="#060606" transform="translate(11,10)"/>
<path d="M0,0 L4,1 L5,4 L2,5 L1,3 L-5,2 L-5,1 Z " fill="#C5C5C5" transform="translate(19,8)"/>
</svg>
