<?xml version="1.0" encoding="UTF-8"?>
<svg version="1.1" xmlns="http://www.w3.org/2000/svg" width="28" height="28">
<path d="M0,0 L28,0 L28,28 L0,28 Z " fill="#040404" transform="translate(0,0)"/>
<path d="M0,0 L9,0 L13,3 L14,6 L14,14 L11,17 L2,18 L-3,15 L-6,11 L-6,6 L-1,1 Z " fill="#EFEFEF" transform="translate(10,6)"/>
<path d="M0,0 L5,1 L7,3 L7,9 L5,11 L-2,11 L-8,8 L-7,6 L-3,6 L-6,5 L-5,2 Z " fill="#0C0C0C" transform="translate(14,9)"/>
<path d="M0,0 L1,4 L3,4 L2,8 L-3,11 L-12,10 L-14,8 L-13,4 L-9,6 L-2,6 Z " fill="#D5D5D5" transform="translate(21,13)"/>
</svg>
