<?xml version="1.0" encoding="UTF-8"?>
<svg version="1.1" xmlns="http://www.w3.org/2000/svg" width="28" height="28">
<path d="M0,0 L28,0 L28,28 L0,28 Z " fill="#020202" transform="translate(0,0)"/>
<path d="M0,0 L7,2 L11,9 L11,16 L7,20 L0,20 L-4,17 L-5,8 Z " fill="#E4E4E4" transform="translate(12,4)"/>
<path d="M0,0 L4,1 L7,6 L7,13 L6,14 L-1,14 L-3,10 L-2,3 Z " fill="#080808" transform="translate(13,7)"/>
<path d="M0,0 L4,1 L4,3 L1,4 L-1,9 L-3,6 L-1,1 Z " fill="#C9C9C9" transform="translate(12,4)"/>
</svg>
