<?xml version="1.0" encoding="UTF-8"?>
<svg version="1.1" xmlns="http://www.w3.org/2000/svg" width="28" height="28">
<path d="M0,0 L28,0 L28,28 L0,28 Z " fill="#020202" transform="translate(0,0)"/>
<path d="M0,0 L7,0 L9,3 L9,10 L6,15 L4,16 L-3,16 L-8,13 L-11,10 L-10,5 L-8,2 Z " fill="#E9E9E9" transform="translate(15,7)"/>
<path d="M0,0 L8,0 L9,1 L9,7 L2,9 L-3,7 L-4,3 L-3,1 Z " fill="#050505" transform="translate(12,11)"/>
<path d="M0,0 L4,1 L8,3 L-1,4 L-4,4 L-3,1 Z " fill="#C1C1C1" transform="translate(10,8)"/>
</svg>
