<?xml version="1.0" encoding="UTF-8"?>
<svg version="1.1" xmlns="http://www.w3.org/2000/svg" width="28" height="28">
<path d="M0,0 L28,0 L28,28 L0,28 Z " fill="#030303" transform="translate(0,0)"/>
<path d="M0,0 L4,1 L6,3 L6,10 L3,15 L-5,20 L-11,20 L-13,18 L-12,13 L-8,7 Z " fill="#E4E4E4" transform="translate(17,4)"/>
<path d="M0,0 L3,0 L4,5 L1,10 L-6,14 L-10,13 L-7,7 L-4,6 L-2,2 Z " fill="#0A0A0A" transform="translate(17,7)"/>
<path d="M0,0 L2,2 L2,5 L6,9 L0,9 L-2,7 L-1,2 Z " fill="#C9C9C9" transform="translate(6,15)"/>
</svg>
