<?xml version="1.0" encoding="UTF-8"?>
<svg version="1.1" xmlns="http://www.w3.org/2000/svg" width="28" height="28">
<path d="M0,0 L28,0 L28,28 L0,28 Z " fill="#030303" transform="translate(0,0)"/>
<path d="M0,0 L6,1 L9,5 L9,14 L4,18 L-2,20 L-9,20 L-10,19 L-9,10 Z " fill="#ECECEC" transform="translate(15,3)"/>
<path d="M0,0 L2,0 L5,5 L4,11 L0,14 L-3,15 L-10,15 L-8,8 Z " fill="#0E0E0E" transform="translate(17,5)"/>
<path d="M0,0 L3,1 L4,3 L4,12 L-1,16 L-5,17 L-6,14 L0,11 L1,5 L-1,1 Z " fill="#E5E5E5" transform="translate(20,5)"/>
<path d="M0,0 L3,1 L4,3 L4,12 L3,12 L3,5 L1,5 L-1,1 Z " fill="#AFAFAF" transform="translate(20,5)"/>
</svg>
