<?xml version="1.0" encoding="UTF-8"?>
<svg version="1.1" xmlns="http://www.w3.org/2000/svg" width="28" height="28">
<path d="M0,0 L28,0 L28,28 L0,28 Z " fill="#020202" transform="translate(0,0)"/>
<path d="M0,0 L4,1 L6,6 L5,16 L1,20 L-6,20 L-8,15 L-7,5 L-4,1 Z " fill="#E1E1E1" transform="translate(16,5)"/>
<path d="M0,0 L2,1 L2,10 L-3,15 L-6,14 L-7,6 L-5,1 L-1,2 Z " fill="#090909" transform="translate(17,9)"/>
<path d="M0,0 L1,4 L2,12 L7,10 L10,3 L11,3 L11,10 L7,14 L0,14 L-2,9 L-1,1 Z " fill="#F1F1F1" transform="translate(10,11)"/>
<path d="M0,0 L2,1 L3,7 L1,7 L0,11 Z " fill="#B5B5B5" transform="translate(19,7)"/>
</svg>
