<?xml version="1.0" encoding="UTF-8"?>
<svg version="1.1" xmlns="http://www.w3.org/2000/svg" width="28" height="28">
<path d="M0,0 L28,0 L28,28 L0,28 Z " fill="#020202" transform="translate(0,0)"/>
<path d="M0,0 L6,0 L8,3 L5,4 L9,10 L8,14 L0,20 L-5,19 L-7,17 L-6,7 L-2,1 Z " fill="#DBDBDB" transform="translate(14,4)"/>
<path d="M0,0 L3,1 L3,3 L5,3 L6,10 L1,13 L-3,14 L-4,13 L-3,4 Z " fill="#0D0D0D" transform="translate(14,7)"/>
<path d="M0,0 L3,0 L1,5 L-1,9 L-1,15 L2,17 L-2,19 L-5,16 L-4,6 Z " fill="#E9E9E9" transform="translate(12,5)"/>
<path d="M0,0 L6,0 L8,3 L5,4 L6,6 L3,6 Z " fill="#C5C5C5" transform="translate(14,4)"/>
</svg>
