<?xml version="1.0" encoding="UTF-8"?>
<svg version="1.1" xmlns="http://www.w3.org/2000/svg" width="28" height="28">
<path d="M0,0 L28,0 L28,28 L0,28 Z " fill="#030303" transform="translate(0,0)"/>
<path d="M0,0 L7,0 L8,3 L8,10 L5,15 L2,18 L-5,19 L-8,16 L-8,9 L-2,1 Z " fill="#E9E9E9" transform="translate(14,5)"/>
<path d="M0,0 L4,0 L4,10 L0,13 L-6,13 L-6,7 Z " fill="#070707" transform="translate(15,7)"/>
<path d="M0,0 L1,3 L-4,8 L-11,9 L-12,6 L-5,4 Z " fill="#EDEDED" transform="translate(20,15)"/>
<path d="M0,0 L3,1 L1,9 L6,9 L6,10 L-1,11 L-2,10 L-2,3 Z " fill="#DCDCDC" transform="translate(8,11)"/>
<path d="M0,0 L1,0 L1,5 L6,5 L6,6 L-1,7 L-1,3 Z " fill="#AAAAAA" transform="translate(8,15)"/>
<path d="M0,0 L1,0 L1,7 L-2,8 L-2,2 Z " fill="#C8C8C8" transform="translate(21,8)"/>
</svg>
