<?xml version="1.0" encoding="UTF-8"?>
<svg version="1.1" xmlns="http://www.w3.org/2000/svg" width="28" height="28">
<path d="M0,0 L28,0 L28,28 L0,28 Z " fill="#030303" transform="translate(0,0)"/>
<path d="M0,0 L7,1 L7,3 L9,3 L9,9 L5,15 L0,18 L-10,18 L-11,12 L-3,4 Z " fill="#070707" transform="translate(15,5)"/>
<path d="M0,0 L7,1 L7,3 L9,3 L9,9 L5,15 L0,18 L-10,18 L-11,12 L-3,4 Z M1,2 L-6,10 L-9,13 L-9,16 L-1,16 L4,13 L7,9 L7,4 L5,2 Z " fill="#DADADA" transform="translate(15,5)"/>
<path d="M0,0 L1,0 L1,6 L-3,12 L-8,15 L-15,14 L-15,13 L-6,11 L-2,6 Z " fill="#BBBBBB" transform="translate(23,8)"/>
</svg>
