<?xml version="1.0" encoding="UTF-8"?>
<svg version="1.1" xmlns="http://www.w3.org/2000/svg" width="28" height="28">
<path d="M0,0 L28,0 L28,28 L0,28 Z " fill="#020202" transform="translate(0,0)"/>
<path d="M0,0 L4,4 L5,9 L0,19 L-4,19 L-7,15 L-6,7 L-3,2 L0,2 Z " fill="#E1E1E1" transform="translate(16,5)"/>
<path d="M0,0 L3,1 L2,9 L-2,13 L-5,12 L-5,6 L-2,1 Z " fill="#141414" transform="translate(16,9)"/>
<path d="M0,0 L2,1 L-1,8 L-3,7 L-1,1 Z " fill="#CDCDCD" transform="translate(13,7)"/>
</svg>
