<?xml version="1.0" encoding="UTF-8"?>
<svg version="1.1" xmlns="http://www.w3.org/2000/svg" width="28" height="28">
<path d="M0,0 L28,0 L28,28 L0,28 Z " fill="#040404" transform="translate(0,0)"/>
<path d="M0,0 L6,2 L6,9 L3,14 L0,17 L-7,20 L-12,19 L-12,15 L-9,9 L-3,2 Z " fill="#0A0A0A" transform="translate(17,4)"/>
<path d="M0,0 L6,2 L6,9 L3,14 L0,17 L-7,20 L-12,19 L-12,15 L-9,9 L-3,2 Z M0,3 L-7,10 L-7,12 L-9,12 L-10,18 L-5,17 L2,13 L4,9 L4,3 Z " fill="#DCDCDC" transform="translate(17,4)"/>
</svg>
