<?xml version="1.0" encoding="UTF-8"?>
<svg version="1.1" xmlns="http://www.w3.org/2000/svg" width="28" height="28">
<path d="M0,0 L28,0 L28,28 L0,28 Z " fill="#050505" transform="translate(0,0)"/>
<path d="M0,0 L8,1 L11,4 L12,11 L10,17 L6,19 L-4,19 L-7,16 L-8,12 L-6,5 Z " fill="#080808" transform="translate(13,5)"/>
<path d="M0,0 L8,1 L11,4 L12,11 L10,17 L6,19 L-4,19 L-7,16 L-8,12 L-6,5 Z M0,3 L-2,4 L-5,11 L-4,15 L-1,17 L5,17 L9,13 L9,6 L7,3 Z " fill="#DFDFDF" transform="translate(13,5)"/>
</svg>
