<?xml version="1.0" encoding="UTF-8"?>
<svg version="1.1" xmlns="http://www.w3.org/2000/svg" width="28" height="28">
<path d="M0,0 L28,0 L28,28 L0,28 Z " fill="#010101" transform="translate(0,0)"/>
<path d="M0,0 L7,0 L10,4 L8,10 L3,14 L-3,16 L-9,16 L-10,15 L-9,8 L-2,1 Z " fill="#E4E4E4" transform="translate(15,6)"/>
<path d="M0,0 L3,0 L3,5 L-1,7 L-1,9 L-4,10 L-11,10 L-10,6 L-5,2 Z " fill="#050505" transform="translate(19,9)"/>
<path d="M0,0 L4,2 L5,6 L2,8 L2,3 L0,3 Z " fill="#C9C9C9" transform="translate(20,6)"/>
</svg>
