<?xml version="1.0" encoding="UTF-8"?>
<svg version="1.1" xmlns="http://www.w3.org/2000/svg" width="28" height="28">
<path d="M0,0 L28,0 L28,28 L0,28 Z " fill="#030303" transform="translate(0,0)"/>
<path d="M0,0 L6,1 L8,3 L8,12 L3,18 L0,20 L-5,20 L-8,17 L-8,10 L-6,7 L-6,4 Z " fill="#090909" transform="translate(15,5)"/>
<path d="M0,0 L6,1 L8,3 L8,12 L3,18 L0,20 L-5,20 L-8,17 L-8,10 L-6,7 L-6,4 Z M1,1 L-2,6 L-6,12 L-5,18 L0,18 L5,12 L6,4 L3,1 Z " fill="#D8D8D8" transform="translate(15,5)"/>
</svg>
