<?xml version="1.0" encoding="UTF-8"?>
<svg version="1.1" xmlns="http://www.w3.org/2000/svg" width="28" height="28">
<path d="M0,0 L28,0 L28,28 L0,28 Z " fill="#030303" transform="translate(0,0)"/>
<path d="M0,0 L7,1 L8,10 L6,16 L3,19 L-3,20 L-8,16 L-7,6 Z " fill="#E2E2E2" transform="translate(14,5)"/>
<path d="M0,0 L4,0 L6,4 L6,11 L4,14 L-2,14 L-4,10 L-3,3 Z " fill="#070707" transform="translate(13,8)"/>
<path d="M0,0 L1,0 L2,7 L-3,11 L-7,9 L-2,8 Z " fill="#C5C5C5" transform="translate(19,13)"/>
</svg>
