<?xml version="1.0" encoding="UTF-8"?>
<svg version="1.1" xmlns="http://www.w3.org/2000/svg" width="28" height="28">
<path d="M0,0 L28,0 L28,28 L0,28 Z " fill="#020202" transform="translate(0,0)"/>
<path d="M0,0 L5,0 L8,4 L9,10 L6,15 L0,20 L-8,20 L-11,16 L-11,8 L-7,2 Z " fill="#070707" transform="translate(17,5)"/>
<path d="M0,0 L5,0 L8,4 L9,10 L6,15 L0,20 L-8,20 L-11,16 L-11,8 L-7,2 Z M0,2 L-6,7 L-8,7 L-9,16 L-7,18 L0,18 L5,15 L7,11 L6,4 L4,2 Z " fill="#D5D5D5" transform="translate(17,5)"/>
<path d="M0,0 L4,0 L2,4 L-1,6 L-1,1 Z " fill="#E5E5E5" transform="translate(12,7)"/>
</svg>
