<?xml version="1.0" encoding="UTF-8"?>
<svg version="1.1" xmlns="http://www.w3.org/2000/svg" width="28" height="28">
<path d="M0,0 L28,0 L28,28 L0,28 Z " fill="#030303" transform="translate(0,0)"/>
<path d="M0,0 L6,0 L9,3 L9,10 L4,18 L-1,20 L-8,19 L-8,12 L-3,3 Z " fill="#0D0D0D" transform="translate(14,3)"/>
<path d="M0,0 L4,1 L6,3 L6,10 L1,18 L-4,20 L-11,19 L-11,12 L-6,3 L-4,3 L-6,8 L-8,13 L-8,17 L-3,17 L0,16 L2,11 L3,3 L0,2 Z " fill="#D1D1D1" transform="translate(17,3)"/>
<path d="M0,0 L2,0 L0,5 L-2,10 L-2,14 L4,15 L2,17 L-5,16 L-5,9 Z " fill="#F3F3F3" transform="translate(11,6)"/>
<path d="M0,0 L2,0 L0,5 L-2,10 L-4,9 L-2,3 Z " fill="#DADADA" transform="translate(11,6)"/>
</svg>
