<?xml version="1.0" encoding="UTF-8"?>
<svg version="1.1" xmlns="http://www.w3.org/2000/svg" width="28" height="28">
<path d="M0,0 L28,0 L28,28 L0,28 Z " fill="#040404" transform="translate(0,0)"/>
<path d="M0,0 L5,1 L6,3 L6,10 L3,15 L-3,20 L-7,19 L-8,17 L-7,3 Z " fill="#DBDBDB" transform="translate(16,5)"/>
<path d="M0,0 L5,1 L6,3 L6,10 L4,9 L3,4 L-2,5 L-4,11 L-7,11 L-7,3 Z " fill="#EDEDED" transform="translate(16,5)"/>
<path d="M0,0 L3,0 L3,7 L0,8 L0,11 L-3,13 L-6,13 L-6,9 L-3,8 L-4,4 Z " fill="#101010" transform="translate(16,8)"/>
</svg>
