<?xml version="1.0" encoding="UTF-8"?>
<svg version="1.1" xmlns="http://www.w3.org/2000/svg" width="28" height="28">
<path d="M0,0 L28,0 L28,28 L0,28 Z " fill="#020202" transform="translate(0,0)"/>
<path d="M0,0 L4,0 L7,5 L6,10 L4,9 L3,5 L-1,4 L-1,8 L-6,8 L-9,15 L-4,15 L-5,18 L-11,18 L-13,14 L-11,9 L-7,4 Z " fill="#EBEBEB" transform="translate(17,5)"/>
<path d="M0,0 L5,1 L6,8 L-2,13 L-3,11 L-8,11 L-7,6 L-5,3 L-1,2 Z " fill="#DCDCDC" transform="translate(16,9)"/>
<path d="M0,0 L2,0 L2,2 L7,3 L7,5 L1,8 L-3,8 L-2,3 Z " fill="#111111" transform="translate(11,12)"/>
<path d="M0,0 L5,1 L4,6 L-1,3 Z " fill="#222222" transform="translate(16,9)"/>
</svg>
