<?xml version="1.0" encoding="UTF-8"?>
<svg version="1.1" xmlns="http://www.w3.org/2000/svg" width="28" height="28">
<path d="M0,0 L28,0 L28,28 L0,28 Z " fill="#020202" transform="translate(0,0)"/>
<path d="M0,0 L5,2 L5,13 L0,18 L-3,20 L-9,19 L-9,11 L-3,2 Z " fill="#E9E9E9" transform="translate(16,4)"/>
<path d="M0,0 L2,1 L2,9 L-3,14 L-7,15 L-7,7 L-3,3 Z " fill="#080808" transform="translate(17,7)"/>
<path d="M0,0 L5,1 L3,3 L0,6 L-1,13 L-4,15 L-4,7 Z " fill="#BEBEBE" transform="translate(11,8)"/>
</svg>
