<?xml version="1.0" encoding="UTF-8"?>
<svg version="1.1" xmlns="http://www.w3.org/2000/svg" width="28" height="28">
<path d="M0,0 L28,0 L28,28 L0,28 Z " fill="#040404" transform="translate(0,0)"/>
<path d="M0,0 L5,0 L10,6 L9,11 L2,16 L-6,18 L-10,17 L-10,11 L-3,2 Z " fill="#E9E9E9" transform="translate(15,6)"/>
<path d="M0,0 L4,2 L2,7 L-7,11 L-9,11 L-8,5 L-4,1 Z " fill="#0E0E0E" transform="translate(18,10)"/>
<path d="M0,0 L3,0 L2,7 L0,4 L-1,9 L-2,9 L-2,3 Z " fill="#CACACA" transform="translate(7,14)"/>
</svg>
