<?xml version="1.0" encoding="UTF-8"?>
<svg version="1.1" xmlns="http://www.w3.org/2000/svg" width="28" height="28">
<path d="M0,0 L28,0 L28,28 L0,28 Z " fill="#040404" transform="translate(0,0)"/>
<path d="M0,0 L5,1 L9,3 L10,6 L3,14 L-1,16 L-7,16 L-10,13 L-10,8 L-5,3 Z " fill="#181818" transform="translate(15,7)"/>
<path d="M0,0 L5,1 L9,3 L10,6 L3,14 L-1,16 L-7,16 L-10,13 L-10,8 L-5,3 Z M0,2 L-7,8 L-8,12 L-5,14 L1,13 L3,12 L3,10 L7,8 L8,4 L1,5 L3,4 L3,2 Z " fill="#E3E3E3" transform="translate(15,7)"/>
</svg>
