<?xml version="1.0" encoding="UTF-8"?>
<svg version="1.1" xmlns="http://www.w3.org/2000/svg" width="28" height="28">
<path d="M0,0 L28,0 L28,28 L0,28 Z " fill="#030303" transform="translate(0,0)"/>
<path d="M0,0 L10,1 L14,5 L13,11 L10,16 L4,19 L-4,19 L-6,17 L-5,10 L-2,6 L0,6 L-1,1 Z " fill="#070707" transform="translate(11,5)"/>
<path d="M0,0 L10,1 L14,5 L13,11 L10,16 L4,19 L-4,19 L-6,17 L-5,10 L-2,6 L0,6 L-1,1 Z M3,2 L0,8 L-3,12 L-3,17 L2,18 L9,14 L12,9 L11,4 Z " fill="#CFCFCF" transform="translate(11,5)"/>
<path d="M0,0 L1,0 L2,6 L7,7 L7,8 L0,8 L-2,6 L-2,1 Z " fill="#EAEAEA" transform="translate(7,16)"/>
<path d="M0,0 L2,2 L-3,7 L-7,8 L-8,6 L-2,3 Z " fill="#B9B9B9" transform="translate(21,16)"/>
<path d="M0,0 L4,1 L6,3 L5,9 L3,10 L3,2 L0,1 Z " fill="#F2F2F2" transform="translate(19,7)"/>
</svg>
