<?xml version="1.0" encoding="UTF-8"?>
<svg version="1.1" xmlns="http://www.w3.org/2000/svg" width="28" height="28">
<path d="M0,0 L28,0 L28,28 L0,28 Z " fill="#020202" transform="translate(0,0)"/>
<path d="M0,0 L5,1 L9,6 L9,11 L5,16 L-3,20 L-8,20 L-11,17 L-10,10 L-7,5 L-3,1 Z " fill="#0D0D0D" transform="translate(16,4)"/>
<path d="M0,0 L5,1 L9,6 L9,11 L5,16 L-3,20 L-8,20 L-11,17 L-10,10 L-7,5 L-3,1 Z M-1,3 L-3,7 L-7,9 L-9,13 L-8,17 L-1,17 L6,12 L7,8 L4,3 Z " fill="#DADADA" transform="translate(16,4)"/>
</svg>
