<?xml version="1.0" encoding="UTF-8"?>
<svg version="1.1" xmlns="http://www.w3.org/2000/svg" width="28" height="28">
<path d="M0,0 L28,0 L28,28 L0,28 Z " fill="#020202" transform="translate(0,0)"/>
<path d="M0,0 L7,0 L9,1 L9,7 L4,12 L1,13 L-9,13 L-11,11 L-10,6 L-8,3 Z " fill="#E6E6E6" transform="translate(15,8)"/>
<path d="M0,0 L7,0 L6,5 L1,8 L-7,8 L-8,6 L-7,4 L-5,4 L-5,2 Z " fill="#111111" transform="translate(14,11)"/>
<path d="M0,0 L7,0 L9,1 L9,7 L7,7 L6,3 L1,3 Z " fill="#CCCCCC" transform="translate(15,8)"/>
</svg>
