<?xml version="1.0" encoding="UTF-8"?>
<svg version="1.1" xmlns="http://www.w3.org/2000/svg" width="28" height="28">
<path d="M0,0 L28,0 L28,28 L0,28 Z " fill="#010101" transform="translate(0,0)"/>
<path d="M0,0 L11,0 L12,5 L6,10 L1,12 L-7,12 L-8,7 L-3,2 Z " fill="#D6D6D6" transform="translate(13,9)"/>
<path d="M0,0 L8,0 L6,4 L1,7 L-6,7 L-5,3 Z " fill="#0F0F0F" transform="translate(15,11)"/>
<path d="M0,0 L8,0 L8,1 L-1,4 L-6,8 L-5,3 Z " fill="#EAEAEA" transform="translate(12,10)"/>
<path d="M0,0 L3,0 L4,2 L8,3 L9,5 L1,5 Z " fill="#ADADAD" transform="translate(5,16)"/>
</svg>
