<?xml version="1.0" encoding="UTF-8"?>
<svg version="1.1" xmlns="http://www.w3.org/2000/svg" width="28" height="28">
<path d="M0,0 L28,0 L28,28 L0,28 Z " fill="#030303" transform="translate(0,0)"/>
<path d="M0,0 L4,2 L4,8 L0,13 L-6,15 L-14,15 L-16,13 L-15,8 L-10,3 Z " fill="#E3E3E3" transform="translate(21,6)"/>
<path d="M0,0 L2,0 L1,6 L-4,9 L-12,9 L-11,4 L-6,1 Z " fill="#0A0A0A" transform="translate(21,9)"/>
<path d="M0,0 L2,0 L2,5 L8,5 L8,6 L2,6 L2,8 L-2,6 L-1,1 Z " fill="#CBCBCB" transform="translate(7,13)"/>
</svg>
