<?xml version="1.0" encoding="UTF-8"?>
<svg version="1.1" xmlns="http://www.w3.org/2000/svg" width="28" height="28">
<path d="M0,0 L28,0 L28,28 L0,28 Z " fill="#040404" transform="translate(0,0)"/>
<path d="M0,0 L5,1 L7,6 L7,14 L6,17 L0,20 L-7,19 L-9,17 L-8,9 Z " fill="#0A0A0A" transform="translate(15,4)"/>
<path d="M0,0 L5,1 L7,6 L7,14 L6,17 L0,20 L-7,19 L-9,17 L-8,9 Z M0,3 L-6,10 L-6,17 L2,17 L5,14 L5,6 L3,3 Z " fill="#E6E6E6" transform="translate(15,4)"/>
<path d="M0,0 L1,4 L7,4 L3,5 L2,7 L-1,5 Z " fill="#CFCFCF" transform="translate(8,17)"/>
</svg>
