<?xml version="1.0" encoding="UTF-8"?>
<svg version="1.1" xmlns="http://www.w3.org/2000/svg" width="28" height="28">
<path d="M0,0 L28,0 L28,28 L0,28 Z " fill="#020202" transform="translate(0,0)"/>
<path d="M0,0 L2,0 L4,4 L4,12 L-1,17 L-9,20 L-14,19 L-14,14 L-8,6 Z " fill="#EDEDED" transform="translate(19,4)"/>
<path d="M0,0 L3,0 L3,6 L-1,10 L-6,12 L-9,11 L-5,5 Z " fill="#0D0D0D" transform="translate(17,9)"/>
<path d="M0,0 L3,1 L2,6 L-2,10 L-8,12 L-9,9 L-2,6 Z " fill="#DCDCDC" transform="translate(20,11)"/>
<path d="M0,0 L3,1 L2,6 L0,8 L-1,4 Z " fill="#B8B8B8" transform="translate(20,11)"/>
</svg>
