<?xml version="1.0" encoding="UTF-8"?>
<svg version="1.1" xmlns="http://www.w3.org/2000/svg" width="28" height="28">
<path d="M0,0 L28,0 L28,28 L0,28 Z " fill="#010101" transform="translate(0,0)"/>
<path d="M0,0 L3,0 L5,6 L4,14 L-3,20 L-8,20 L-9,19 L-8,11 L-1,1 Z " fill="#E0E0E0" transform="translate(16,4)"/>
<path d="M0,0 L2,0 L2,8 L-3,12 L-6,12 L-4,5 Z " fill="#080808" transform="translate(16,9)"/>
<path d="M0,0 L2,1 L1,9 L-4,14 L-10,13 L-9,11 L-4,10 L-2,8 L-1,1 Z " fill="#CDCDCD" transform="translate(19,9)"/>
<path d="M0,0 L2,1 L1,9 L-1,7 L-1,1 Z " fill="#B4B4B4" transform="translate(19,9)"/>
</svg>
