<?xml version="1.0" encoding="UTF-8"?>
<svg version="1.1" xmlns="http://www.w3.org/2000/svg" width="28" height="28">
<path d="M0,0 L28,0 L28,28 L0,28 Z " fill="#020202" transform="translate(0,0)"/>
<path d="M0,0 L6,2 L7,5 L7,12 L0,19 L-6,20 L-7,19 L-7,12 L-3,3 Z " fill="#E1E1E1" transform="translate(15,4)"/>
<path d="M0,0 L2,3 L2,9 L-3,14 L-6,15 L-5,8 L-2,2 L0,2 Z " fill="#090909" transform="translate(17,6)"/>
<path d="M0,0 L1,0 L1,7 L-3,8 L-2,1 Z " fill="#C3C3C3" transform="translate(21,9)"/>
</svg>
