<?xml version="1.0" encoding="UTF-8"?>
<svg version="1.1" xmlns="http://www.w3.org/2000/svg" width="28" height="28">
<path d="M0,0 L28,0 L28,28 L0,28 Z " fill="#010101" transform="translate(0,0)"/>
<path d="M0,0 L12,2 L16,6 L15,11 L8,17 L6,18 L0,18 L-4,14 L-4,5 L-2,2 L0,2 Z " fill="#F4F4F4" transform="translate(10,6)"/>
<path d="M0,0 L6,0 L8,1 L7,6 L6,9 L-2,12 L-4,11 L-5,5 L-4,3 L-2,3 L-2,1 Z " fill="#090909" transform="translate(14,10)"/>
<path d="M0,0 L5,1 L7,4 L6,9 L-1,15 L-3,16 L-9,16 L-6,15 L-6,13 L1,11 L2,7 L3,3 L-5,2 L-5,1 Z " fill="#DCDCDC" transform="translate(19,8)"/>
</svg>
