<?xml version="1.0" encoding="UTF-8"?>
<svg version="1.1" xmlns="http://www.w3.org/2000/svg" width="28" height="28">
<path d="M0,0 L28,0 L28,28 L0,28 Z " fill="#020202" transform="translate(0,0)"/>
<path d="M0,0 L2,0 L4,5 L2,12 L-2,18 L-5,20 L-10,20 L-10,13 L-6,6 Z " fill="#DFDFDF" transform="translate(18,4)"/>
<path d="M0,0 L3,1 L-1,7 L-4,9 L-9,9 L-9,4 L-7,3 L-7,7 L-2,3 Z " fill="#E8E8E8" transform="translate(17,15)"/>
<path d="M0,0 L1,0 L1,5 L-4,11 L-6,11 L-5,5 Z " fill="#161616" transform="translate(17,10)"/>
</svg>
