<?xml version="1.0" encoding="UTF-8"?>
<svg version="1.1" xmlns="http://www.w3.org/2000/svg" width="28" height="28">
<path d="M0,0 L28,0 L28,28 L0,28 Z " fill="#020202" transform="translate(0,0)"/>
<path d="M0,0 L4,1 L6,7 L6,13 L-1,19 L-7,20 L-8,19 L-7,12 L-1,4 Z " fill="#E0E0E0" transform="translate(15,4)"/>
<path d="M0,0 L1,2 L-5,12 L-3,12 L-3,14 L-7,15 L-8,14 L-7,7 L-2,2 Z " fill="#EEEEEE" transform="translate(15,9)"/>
<path d="M0,0 L1,0 L1,7 L-5,11 L-7,11 L-5,6 L-2,1 Z " fill="#181818" transform="translate(17,10)"/>
</svg>
