<?xml version="1.0" encoding="UTF-8"?>
<svg version="1.1" xmlns="http://www.w3.org/2000/svg" width="28" height="28">
<path d="M0,0 L28,0 L28,28 L0,28 Z " fill="#010101" transform="translate(0,0)"/>
<path d="M0,0 L1,3 L-3,10 L-2,16 L2,16 L2,9 L1,5 L6,8 L5,16 L2,20 L-3,19 L-6,15 L-5,7 L-1,1 Z " fill="#DDDDDD" transform="translate(15,3)"/>
<path d="M0,0 L3,1 L4,5 L4,12 L-1,13 L-3,10 L-2,3 Z " fill="#1A1A1A" transform="translate(14,7)"/>
<path d="M0,0 L1,3 L-4,11 L-6,15 L-5,7 L-1,1 Z " fill="#D2D2D2" transform="translate(15,3)"/>
</svg>
