<?xml version="1.0" encoding="UTF-8"?>
<svg version="1.1" xmlns="http://www.w3.org/2000/svg" width="28" height="28">
<path d="M0,0 L28,0 L28,28 L0,28 Z " fill="#030303" transform="translate(0,0)"/>
<path d="M0,0 L7,1 L11,6 L11,13 L7,19 L6,20 L-1,20 L-6,15 L-7,10 L-4,3 Z " fill="#070707" transform="translate(12,4)"/>
<path d="M0,0 L7,1 L11,6 L11,13 L7,19 L6,20 L-1,20 L-6,15 L-7,10 L-4,3 Z M0,2 L-4,8 L-4,15 L-1,18 L5,18 L3,17 L3,15 L8,14 L8,4 L6,2 Z " fill="#C7C7C7" transform="translate(12,4)"/>
<path d="M0,0 L2,1 L2,8 L-2,14 L-3,15 L-8,15 L-5,13 L-6,10 L-2,9 L-1,1 Z " fill="#E5E5E5" transform="translate(21,9)"/>
</svg>
