<?xml version="1.0" encoding="UTF-8"?>
<svg version="1.1" xmlns="http://www.w3.org/2000/svg" width="28" height="28">
<path d="M0,0 L28,0 L28,28 L0,28 Z " fill="#030303" transform="translate(0,0)"/>
<path d="M0,0 L5,1 L9,6 L8,11 L5,14 L0,16 L-8,16 L-11,13 L-9,7 L-6,6 L-6,4 L-3,2 L0,2 Z " fill="#D7D7D7" transform="translate(15,6)"/>
<path d="M0,0 L4,2 L6,6 L2,10 L-3,12 L-8,12 L-9,8 L-3,2 L0,2 Z " fill="#090909" transform="translate(16,8)"/>
<path d="M0,0 L2,4 L5,7 L0,6 L-2,2 Z " fill="#F7F7F7" transform="translate(6,15)"/>
</svg>
