<?xml version="1.0" encoding="UTF-8"?>
<svg version="1.1" xmlns="http://www.w3.org/2000/svg" width="28" height="28">
<path d="M0,0 L28,0 L28,28 L0,28 Z " fill="#010101" transform="translate(0,0)"/>
<path d="M0,0 L7,1 L11,5 L11,14 L9,18 L2,20 L-1,19 L-3,15 L-3,7 Z " fill="#DDDDDD" transform="translate(10,5)"/>
<path d="M0,0 L6,2 L8,5 L8,11 L7,13 L2,14 L-1,13 L-3,7 Z " fill="#080808" transform="translate(11,8)"/>
<path d="M0,0 L2,4 L1,8 L2,12 L5,13 L1,15 L-1,11 L-1,3 Z " fill="#C4C4C4" transform="translate(8,9)"/>
</svg>
