<?xml version="1.0" encoding="UTF-8"?>
<svg version="1.1" xmlns="http://www.w3.org/2000/svg" width="28" height="28">
<path d="M0,0 L28,0 L28,28 L0,28 Z " fill="#010101" transform="translate(0,0)"/>
<path d="M0,0 L5,1 L8,6 L10,12 L9,18 L6,20 L-1,20 L-6,15 L-5,6 Z " fill="#0B0B0B" transform="translate(12,4)"/>
<path d="M0,0 L5,1 L8,6 L10,12 L9,18 L6,20 L-1,20 L-6,15 L-5,6 Z M1,2 L-2,5 L-4,9 L-4,15 L-1,18 L6,18 L7,17 L7,8 L5,5 L3,5 L3,2 Z " fill="#DFDFDF" transform="translate(12,4)"/>
<path d="M0,0 L2,4 L1,10 L-2,10 Z " fill="#C0C0C0" transform="translate(20,12)"/>
</svg>
