<?xml version="1.0" encoding="UTF-8"?>
<svg version="1.1" xmlns="http://www.w3.org/2000/svg" width="28" height="28">
<path d="M0,0 L28,0 L28,28 L0,28 Z " fill="#010101" transform="translate(0,0)"/>
<path d="M0,0 L2,0 L1,3 L1,12 L3,16 L9,16 L9,10 L7,5 L7,0 L10,4 L12,9 L12,18 L9,20 L3,20 L-2,15 L-3,6 L-1,1 Z " fill="#E0E0E0" transform="translate(10,3)"/>
<path d="M0,0 L3,4 L5,9 L5,18 L2,20 L-4,20 L-4,19 L1,18 L2,16 L2,10 L0,5 Z " fill="#D3D3D3" transform="translate(17,3)"/>
<path d="M0,0 L3,4 L4,8 L1,8 Z " fill="#B4B4B4" transform="translate(17,3)"/>
</svg>
