<?xml version="1.0" encoding="UTF-8"?>
<svg version="1.1" xmlns="http://www.w3.org/2000/svg" width="28" height="28">
<path d="M0,0 L28,0 L28,28 L0,28 Z " fill="#030303" transform="translate(0,0)"/>
<path d="M0,0 L6,2 L9,4 L10,11 L6,15 L0,17 L-7,17 L-10,14 L-9,8 L-4,2 Z " fill="#101010" transform="translate(14,6)"/>
<path d="M0,0 L6,2 L9,4 L10,11 L6,15 L0,17 L-7,17 L-10,14 L-9,8 L-4,2 Z M2,3 L2,6 L0,6 L0,4 L-5,6 L-8,11 L-7,15 L0,15 L6,12 L7,11 L7,6 L4,3 Z " fill="#E5E5E5" transform="translate(14,6)"/>
</svg>
