<?xml version="1.0" encoding="UTF-8"?>
<svg version="1.1" xmlns="http://www.w3.org/2000/svg" width="28" height="28">
<path d="M0,0 L28,0 L28,28 L0,28 Z " fill="#030303" transform="translate(0,0)"/>
<path d="M0,0 L5,1 L9,2 L11,6 L11,13 L6,18 L2,20 L-4,20 L-7,17 L-7,8 L-4,5 L-3,2 Z " fill="#E8E8E8" transform="translate(12,5)"/>
<path d="M0,0 L6,1 L7,8 L3,13 L-4,13 L-5,12 L-5,4 L-3,4 L-2,1 Z " fill="#060606" transform="translate(13,9)"/>
<path d="M0,0 L1,0 L2,5 L7,6 L3,7 L3,9 L-1,7 Z " fill="#B3B3B3" transform="translate(7,16)"/>
</svg>
