<?xml version="1.0" encoding="UTF-8"?>
<svg version="1.1" xmlns="http://www.w3.org/2000/svg" width="28" height="28">
<path d="M0,0 L28,0 L28,28 L0,28 Z " fill="#030303" transform="translate(0,0)"/>
<path d="M0,0 L9,1 L14,6 L13,12 L9,16 L6,17 L-3,17 L-6,15 L-6,9 Z " fill="#E9E9E9" transform="translate(11,6)"/>
<path d="M0,0 L7,0 L10,2 L10,7 L5,11 L3,12 L-3,12 L-5,8 L-2,3 Z " fill="#0D0D0D" transform="translate(12,9)"/>
<path d="M0,0 L1,4 L-1,8 L-7,11 L-9,11 L-9,8 L-3,4 Z " fill="#CFCFCF" transform="translate(24,12)"/>
</svg>
