<?xml version="1.0" encoding="UTF-8"?>
<svg version="1.1" xmlns="http://www.w3.org/2000/svg" width="28" height="28">
<path d="M0,0 L28,0 L28,28 L0,28 Z " fill="#050505" transform="translate(0,0)"/>
<path d="M0,0 L8,0 L10,2 L10,7 L2,16 L-2,18 L-7,18 L-10,14 L-10,6 L-6,1 Z " fill="#DBDBDB" transform="translate(15,6)"/>
<path d="M0,0 L5,0 L3,3 L1,3 L-1,7 L-5,12 L-6,5 L-4,1 Z " fill="#111111" transform="translate(14,8)"/>
<path d="M0,0 L1,0 L2,9 L4,9 L5,6 L6,9 L9,8 L8,11 L1,12 L-2,8 L-1,1 Z " fill="#EEEEEE" transform="translate(7,12)"/>
<path d="M0,0 L2,1 L-1,8 L-6,12 L-8,12 L-6,7 Z " fill="#262626" transform="translate(21,9)"/>
<path d="M0,0 L5,1 L1,3 L-1,6 L-4,9 L-3,3 Z " fill="#D1D1D1" transform="translate(9,7)"/>
<path d="M0,0 L8,0 L10,2 L10,5 L8,5 L8,3 L5,3 L5,1 L-2,2 Z " fill="#FAFAFA" transform="translate(15,6)"/>
</svg>
