<?xml version="1.0" encoding="UTF-8"?>
<svg version="1.1" xmlns="http://www.w3.org/2000/svg" width="28" height="28">
<path d="M0,0 L28,0 L28,28 L0,28 Z " fill="#040404" transform="translate(0,0)"/>
<path d="M0,0 L6,1 L8,2 L8,4 L10,4 L10,11 L8,11 L6,5 L1,3 L0,11 L-1,15 L4,13 L7,13 L5,17 L1,20 L-4,19 L-5,14 L-3,8 L-1,2 Z " fill="#E7E7E7" transform="translate(13,4)"/>
<path d="M0,0 L4,0 L4,7 L2,7 Z " fill="#CDCDCD" transform="translate(19,8)"/>
<path d="M0,0 L3,3 L2,8 L-1,8 L-1,5 Z " fill="#B5B5B5" transform="translate(11,7)"/>
</svg>
