<?xml version="1.0" encoding="UTF-8"?>
<svg version="1.1" xmlns="http://www.w3.org/2000/svg" width="28" height="28">
<path d="M0,0 L28,0 L28,28 L0,28 Z " fill="#010101" transform="translate(0,0)"/>
<path d="M0,0 L12,3 L16,6 L16,13 L11,19 L8,20 L1,20 L-4,15 L-4,7 Z " fill="#0B0B0B" transform="translate(9,4)"/>
<path d="M0,0 L3,1 L0,7 L-1,16 L10,16 L13,11 L13,8 L9,6 L2,5 L3,3 L12,3 L16,6 L16,13 L11,19 L8,20 L1,20 L-4,15 L-4,7 Z " fill="#DBDBDB" transform="translate(9,4)"/>
<path d="M0,0 L2,0 L1,3 L-2,4 L-9,4 L-5,1 Z " fill="#C2C2C2" transform="translate(19,20)"/>
</svg>
