<?xml version="1.0" encoding="UTF-8"?>
<svg version="1.1" xmlns="http://www.w3.org/2000/svg" width="28" height="28">
<path d="M0,0 L28,0 L28,28 L0,28 Z " fill="#020202" transform="translate(0,0)"/>
<path d="M0,0 L11,0 L12,1 L12,7 L6,12 L2,14 L-6,14 L-8,12 L-7,5 Z " fill="#0C0C0C" transform="translate(13,8)"/>
<path d="M0,0 L11,0 L12,1 L12,7 L6,12 L2,14 L-6,14 L-8,12 L-7,5 Z M3,2 L-2,4 L-6,9 L-5,12 L2,12 L10,6 L10,2 Z " fill="#C7C7C7" transform="translate(13,8)"/>
<path d="M0,0 L2,1 L-4,8 L-4,11 L0,13 L-5,13 L-7,11 L-6,4 Z " fill="#EDEDED" transform="translate(12,9)"/>
</svg>
