<?xml version="1.0" encoding="UTF-8"?>
<svg version="1.1" xmlns="http://www.w3.org/2000/svg" width="28" height="28">
<path d="M0,0 L28,0 L28,28 L0,28 Z " fill="#020202" transform="translate(0,0)"/>
<path d="M0,0 L4,1 L7,3 L7,5 L9,5 L12,11 L10,17 L7,20 L-2,20 L-6,16 L-5,8 Z " fill="#C3C3C3" transform="translate(12,3)"/>
<path d="M0,0 L5,2 L8,6 L7,13 L5,14 L-3,14 L-5,9 L-4,7 L-1,7 Z " fill="#060606" transform="translate(13,6)"/>
<path d="M0,0 L1,3 L-1,3 L0,10 L7,12 L7,14 L0,14 L-4,10 L-3,2 Z " fill="#EBEBEB" transform="translate(10,9)"/>
<path d="M0,0 L4,1 L2,1 L1,8 L-2,7 L0,7 L-1,5 L-3,6 L-1,1 Z " fill="#B1B1B1" transform="translate(11,5)"/>
<path d="M0,0 L4,1 L7,3 L6,6 L3,4 L3,2 L-1,1 Z " fill="#E0E0E0" transform="translate(12,3)"/>
</svg>
