<?xml version="1.0" encoding="UTF-8"?>
<svg version="1.1" xmlns="http://www.w3.org/2000/svg" width="28" height="28">
<path d="M0,0 L28,0 L28,28 L0,28 Z " fill="#010101" transform="translate(0,0)"/>
<path d="M0,0 L5,1 L5,3 L9,5 L10,13 L6,17 L-4,18 L-9,15 L-10,13 L-10,7 L-3,1 Z " fill="#E5E5E5" transform="translate(14,5)"/>
<path d="M0,0 L6,2 L8,6 L7,11 L5,12 L-4,12 L-6,10 L-5,3 Z " fill="#020202" transform="translate(13,8)"/>
<path d="M0,0 L9,0 L9,2 L0,3 Z " fill="#C4C4C4" transform="translate(10,20)"/>
</svg>
