<?xml version="1.0" encoding="UTF-8"?>
<svg version="1.1" xmlns="http://www.w3.org/2000/svg" width="28" height="28">
<path d="M0,0 L28,0 L28,28 L0,28 Z " fill="#010101" transform="translate(0,0)"/>
<path d="M0,0 L6,0 L11,5 L11,13 L7,19 L5,20 L-1,20 L-5,16 L-5,6 Z " fill="#C8C8C8" transform="translate(11,5)"/>
<path d="M0,0 L5,0 L5,7 L3,11 L5,11 L5,9 L8,10 L5,15 L4,16 L-1,16 L-4,13 L-4,4 Z " fill="#090909" transform="translate(12,7)"/>
<path d="M0,0 L6,1 L8,4 L8,9 L4,10 L4,13 L2,13 L4,2 Z " fill="#E6E6E6" transform="translate(13,5)"/>
</svg>
