<?xml version="1.0" encoding="UTF-8"?>
<svg version="1.1" xmlns="http://www.w3.org/2000/svg" width="28" height="28">
<path d="M0,0 L28,0 L28,28 L0,28 Z " fill="#010101" transform="translate(0,0)"/>
<path d="M0,0 L4,1 L5,6 L7,6 L7,15 L2,19 L-3,20 L-5,17 L-4,7 L0,2 Z " fill="#E1E1E1" transform="translate(13,4)"/>
<path d="M0,0 L2,2 L2,11 L-1,14 L-4,14 L-5,9 L-2,2 Z " fill="#0C0C0C" transform="translate(15,8)"/>
<path d="M0,0 L4,1 L5,6 L7,6 L7,15 L4,14 L3,6 L-1,3 Z " fill="#C6C6C6" transform="translate(13,4)"/>
</svg>
