<?xml version="1.0" encoding="UTF-8"?>
<svg version="1.1" xmlns="http://www.w3.org/2000/svg" width="28" height="28">
<path d="M0,0 L28,0 L28,28 L0,28 Z " fill="#020202" transform="translate(0,0)"/>
<path d="M0,0 L5,1 L6,2 L6,12 L3,17 L-2,20 L-9,20 L-10,19 L-10,12 L-4,4 Z " fill="#E4E4E4" transform="translate(16,4)"/>
<path d="M0,0 L2,2 L1,10 L-4,14 L-10,14 L-9,8 L-5,3 L-2,3 L-2,1 Z " fill="#0F0F0F" transform="translate(18,7)"/>
<path d="M0,0 L3,2 L1,7 L-3,11 L-5,12 L-12,12 L-13,10 L-3,7 L-1,5 Z " fill="#C6C6C6" transform="translate(19,12)"/>
</svg>
