<?xml version="1.0" encoding="UTF-8"?>
<svg version="1.1" xmlns="http://www.w3.org/2000/svg" width="28" height="28">
<path d="M0,0 L28,0 L28,28 L0,28 Z " fill="#010101" transform="translate(0,0)"/>
<path d="M0,0 L7,0 L11,4 L13,13 L12,16 L8,17 L4,20 L-3,20 L-7,16 L-7,8 L-5,3 Z " fill="#E8E8E8" transform="translate(11,5)"/>
<path d="M0,0 L7,0 L8,8 L5,14 L-2,15 L-4,13 L-4,6 L-1,1 Z " fill="#030303" transform="translate(11,8)"/>
<path d="M0,0 L3,1 L6,3 L-1,5 L-3,9 L-4,15 L-7,11 L-6,5 L-2,1 Z " fill="#CBCBCB" transform="translate(11,5)"/>
</svg>
