<?xml version="1.0" encoding="UTF-8"?>
<svg version="1.1" xmlns="http://www.w3.org/2000/svg" width="28" height="28">
<path d="M0,0 L28,0 L28,28 L0,28 Z " fill="#020202" transform="translate(0,0)"/>
<path d="M0,0 L5,0 L5,3 L10,7 L11,14 L6,19 L4,20 L-4,20 L-7,17 L-7,6 Z " fill="#070707" transform="translate(13,4)"/>
<path d="M0,0 L5,0 L5,3 L10,7 L11,14 L6,19 L4,20 L-4,20 L-7,17 L-7,6 Z M-2,4 L-5,7 L-5,16 L-2,18 L4,18 L9,14 L8,9 L6,5 Z " fill="#DADADA" transform="translate(13,4)"/>
<path d="M0,0 L5,0 L5,3 L10,7 L11,10 L9,13 L6,7 L6,5 L-3,5 L-3,2 Z " fill="#C1C1C1" transform="translate(13,4)"/>
<path d="M0,0 L2,1 L0,5 L-1,11 L-2,11 L-2,2 Z " fill="#E1E1E1" transform="translate(8,8)"/>
</svg>
