<?xml version="1.0" encoding="UTF-8"?>
<svg version="1.1" xmlns="http://www.w3.org/2000/svg" width="28" height="28">
<path d="M0,0 L28,0 L28,28 L0,28 Z " fill="#010101" transform="translate(0,0)"/>
<path d="M0,0 L5,1 L8,5 L11,12 L10,18 L8,20 L-1,20 L-5,14 L-5,6 Z " fill="#080808" transform="translate(12,4)"/>
<path d="M0,0 L5,1 L8,5 L11,12 L10,18 L8,20 L-1,20 L-5,14 L-5,6 Z M-1,3 L-3,7 L-3,14 L2,19 L7,19 L9,16 L9,11 L6,8 L4,3 Z " fill="#C9C9C9" transform="translate(12,4)"/>
<path d="M0,0 L1,0 L3,9 L5,12 L1,11 L0,9 Z " fill="#E7E7E7" transform="translate(8,11)"/>
</svg>
