<?xml version="1.0" encoding="UTF-8"?>
<svg version="1.1" xmlns="http://www.w3.org/2000/svg" width="28" height="28">
<path d="M0,0 L28,0 L28,28 L0,28 Z " fill="#030303" transform="translate(0,0)"/>
<path d="M0,0 L5,1 L4,5 L8,6 L10,8 L9,14 L4,19 L-5,20 L-8,17 L-7,8 Z " fill="#0C0C0C" transform="translate(14,4)"/>
<path d="M0,0 L5,1 L4,5 L8,6 L10,8 L9,14 L4,19 L-5,20 L-8,17 L-7,8 Z M-2,5 L-6,10 L-6,17 L-5,18 L3,17 L8,12 L7,8 L1,5 Z " fill="#D6D6D6" transform="translate(14,4)"/>
<path d="M0,0 L4,1 L3,5 L7,6 L9,8 L8,14 L6,15 L6,9 L-3,5 L-1,3 L0,2 Z " fill="#ECECEC" transform="translate(15,4)"/>
</svg>
