<?xml version="1.0" encoding="UTF-8"?>
<svg version="1.1" xmlns="http://www.w3.org/2000/svg" width="28" height="28">
<path d="M0,0 L28,0 L28,28 L0,28 Z " fill="#010101" transform="translate(0,0)"/>
<path d="M0,0 L6,0 L11,3 L11,8 L4,12 L2,13 L-6,13 L-9,10 L-9,5 L-5,1 Z " fill="#040404" transform="translate(14,8)"/>
<path d="M0,0 L6,0 L11,3 L11,8 L4,12 L2,13 L-6,13 L-9,10 L-9,5 L-5,1 L-2,2 L-6,5 L-7,11 L3,10 L8,7 L8,4 L1,2 L1,4 L-1,4 Z " fill="#A7A7A7" transform="translate(14,8)"/>
<path d="M0,0 L3,1 L-1,4 L-2,10 L5,11 L5,12 L-1,12 L-4,9 L-4,4 Z " fill="#CACACA" transform="translate(9,9)"/>
</svg>
