<?xml version="1.0" encoding="UTF-8"?>
<svg version="1.1" xmlns="http://www.w3.org/2000/svg" width="28" height="28">
<path d="M0,0 L28,0 L28,28 L0,28 Z " fill="#020202" transform="translate(0,0)"/>
<path d="M0,0 L6,0 L8,1 L8,3 L11,4 L11,11 L7,18 L1,20 L-4,20 L-7,17 L-6,7 Z " fill="#070707" transform="translate(13,5)"/>
<path d="M0,0 L6,0 L8,1 L8,3 L11,4 L11,11 L7,18 L1,20 L-4,20 L-7,17 L-6,7 Z M1,2 L-4,7 L-5,16 L-1,18 L5,17 L9,12 L10,6 L4,2 Z " fill="#C9C9C9" transform="translate(13,5)"/>
</svg>
