<?xml version="1.0" encoding="UTF-8"?>
<svg version="1.1" xmlns="http://www.w3.org/2000/svg" width="28" height="28">
<path d="M0,0 L28,0 L28,28 L0,28 Z " fill="#020202" transform="translate(0,0)"/>
<path d="M0,0 L3,1 L5,9 L3,19 L-3,20 L-6,17 L-7,12 L-3,3 Z " fill="#E4E4E4" transform="translate(15,4)"/>
<path d="M0,0 L2,0 L3,7 L1,14 L-5,15 L-7,11 L-4,11 L-2,11 Z " fill="#F2F2F2" transform="translate(17,9)"/>
<path d="M0,0 L1,0 L2,9 L0,13 L-4,11 L-3,6 Z " fill="#1B1B1B" transform="translate(15,8)"/>
</svg>
