<?xml version="1.0" encoding="UTF-8"?>
<svg version="1.1" xmlns="http://www.w3.org/2000/svg" width="28" height="28">
<path d="M0,0 L28,0 L28,28 L0,28 Z " fill="#030303" transform="translate(0,0)"/>
<path d="M0,0 L11,0 L14,2 L13,9 L7,14 L0,16 L-5,16 L-6,9 L-3,3 Z " fill="#0F0F0F" transform="translate(11,7)"/>
<path d="M0,0 L11,0 L14,2 L13,9 L7,14 L0,16 L-5,16 L-6,9 L-3,3 Z M1,2 L-3,7 L-4,13 L8,11 L12,7 L11,2 Z " fill="#DBDBDB" transform="translate(11,7)"/>
<path d="M0,0 L6,0 L9,2 L8,9 L2,14 L-5,14 L-1,12 L4,9 L6,9 L6,3 L-2,3 L-2,1 Z " fill="#E8E8E8" transform="translate(16,7)"/>
<path d="M0,0 L1,4 L10,3 L9,6 L1,7 Z " fill="#C2C2C2" transform="translate(5,16)"/>
</svg>
