<?xml version="1.0" encoding="UTF-8"?>
<svg version="1.1" xmlns="http://www.w3.org/2000/svg" width="28" height="28">
<path d="M0,0 L28,0 L28,28 L0,28 Z " fill="#040404" transform="translate(0,0)"/>
<path d="M0,0 L3,1 L3,3 L0,3 L0,11 L6,12 L13,9 L15,4 L7,2 L8,0 L16,1 L17,2 L17,9 L12,14 L7,16 L-1,15 L-3,11 L-3,5 Z " fill="#D7D7D7" transform="translate(8,6)"/>
<path d="M0,0 L8,1 L9,6 L-1,2 Z " fill="#E0E0E0" transform="translate(16,6)"/>
<path d="M0,0 L3,1 L3,3 L0,3 L-1,10 L-3,8 L-2,3 Z " fill="#CACACA" transform="translate(8,6)"/>
</svg>
