<?xml version="1.0" encoding="UTF-8"?>
<svg version="1.1" xmlns="http://www.w3.org/2000/svg" width="28" height="28">
<path d="M0,0 L28,0 L28,28 L0,28 Z " fill="#030303" transform="translate(0,0)"/>
<path d="M0,0 L8,1 L11,5 L11,16 L8,19 L0,20 L-3,18 L-3,6 Z " fill="#080808" transform="translate(11,4)"/>
<path d="M0,0 L8,1 L11,5 L11,16 L8,19 L0,20 L-3,18 L-3,6 Z M5,2 L0,3 L-1,7 L-1,17 L0,18 L8,17 L9,15 L9,5 L7,2 Z " fill="#E0E0E0" transform="translate(11,4)"/>
<path d="M0,0 L1,0 L1,11 L-3,14 L-5,12 L-2,12 L-1,2 Z " fill="#C1C1C1" transform="translate(21,9)"/>
</svg>
