<?xml version="1.0" encoding="UTF-8"?>
<svg version="1.1" xmlns="http://www.w3.org/2000/svg" width="28" height="28">
<path d="M0,0 L28,0 L28,28 L0,28 Z " fill="#030303" transform="translate(0,0)"/>
<path d="M0,0 L5,1 L10,8 L10,18 L8,20 L3,19 L-1,13 L-1,1 Z " fill="#E2E2E2" transform="translate(10,5)"/>
<path d="M0,0 L4,1 L5,3 L5,10 L1,11 L-1,8 L-1,2 Z " fill="#0B0B0B" transform="translate(13,11)"/>
<path d="M0,0 L5,1 L8,6 L8,13 L6,14 L4,5 L-1,3 Z " fill="#DDDDDD" transform="translate(12,7)"/>
<path d="M0,0 L5,1 L5,4 L-1,3 Z " fill="#9B9B9B" transform="translate(12,7)"/>
</svg>
