<?xml version="1.0" encoding="UTF-8"?>
<svg version="1.1" xmlns="http://www.w3.org/2000/svg" width="28" height="28">
<path d="M0,0 L28,0 L28,28 L0,28 Z " fill="#020202" transform="translate(0,0)"/>
<path d="M0,0 L5,1 L4,8 L1,14 L-3,19 L-10,20 L-11,19 L-11,13 L-5,4 Z " fill="#E8E8E8" transform="translate(17,5)"/>
<path d="M0,0 L3,0 L2,5 L-2,12 L-5,14 L-8,14 L-7,8 L-6,5 Z " fill="#1A1A1A" transform="translate(16,9)"/>
<path d="M0,0 L2,1 L0,6 L-4,11 L-11,12 L-6,8 L-4,8 L-2,3 Z " fill="#CECECE" transform="translate(18,13)"/>
</svg>
