<?xml version="1.0" encoding="UTF-8"?>
<svg version="1.1" xmlns="http://www.w3.org/2000/svg" width="28" height="28">
<path d="M0,0 L28,0 L28,28 L0,28 Z " fill="#010101" transform="translate(0,0)"/>
<path d="M0,0 L5,1 L6,6 L7,8 L7,16 L2,20 L-4,20 L-7,17 L-7,8 L-4,3 Z " fill="#0A0A0A" transform="translate(15,4)"/>
<path d="M0,0 L5,1 L6,6 L7,8 L7,16 L2,20 L-4,20 L-7,17 L-7,8 L-4,3 Z M1,2 L-4,7 L-6,11 L-5,17 L-4,18 L2,18 L5,15 L4,7 L3,2 Z " fill="#CACACA" transform="translate(15,4)"/>
<path d="M0,0 L5,1 L5,3 L-1,4 L-5,11 L-4,17 L-3,19 L-7,17 L-7,8 L-4,3 Z " fill="#E0E0E0" transform="translate(15,4)"/>
</svg>
