<?xml version="1.0" encoding="UTF-8"?>
<svg version="1.1" xmlns="http://www.w3.org/2000/svg" width="28" height="28">
<path d="M0,0 L28,0 L28,28 L0,28 Z " fill="#020202" transform="translate(0,0)"/>
<path d="M0,0 L4,1 L9,8 L9,15 L4,20 L-9,20 L-10,19 L-10,13 L-4,3 Z " fill="#E7E7E7" transform="translate(15,4)"/>
<path d="M0,0 L3,0 L6,5 L6,11 L1,14 L-6,14 L-5,6 Z " fill="#050505" transform="translate(15,8)"/>
<path d="M0,0 L2,0 L1,10 L6,10 L6,11 L0,11 L-1,6 L-2,11 L-3,11 L-3,5 Z " fill="#AFAFAF" transform="translate(8,12)"/>
</svg>
