<?xml version="1.0" encoding="UTF-8"?>
<svg version="1.1" xmlns="http://www.w3.org/2000/svg" width="28" height="28">
<path d="M0,0 L28,0 L28,28 L0,28 Z " fill="#030303" transform="translate(0,0)"/>
<path d="M0,0 L5,1 L9,7 L8,15 L3,20 L-5,20 L-7,17 L-7,10 L-1,1 Z " fill="#0A0A0A" transform="translate(14,4)"/>
<path d="M0,0 L5,1 L9,7 L8,15 L3,20 L-5,20 L-7,17 L-7,10 L-1,1 Z M0,3 L-5,11 L-5,17 L1,18 L6,15 L7,13 L7,7 L2,3 Z " fill="#E2E2E2" transform="translate(14,4)"/>
<path d="M0,0 L5,1 L6,4 L4,5 L-2,3 Z " fill="#C9C9C9" transform="translate(14,4)"/>
</svg>
