<?xml version="1.0" encoding="UTF-8"?>
<svg version="1.1" xmlns="http://www.w3.org/2000/svg" width="28" height="28">
<path d="M0,0 L28,0 L28,28 L0,28 Z " fill="#020202" transform="translate(0,0)"/>
<path d="M0,0 L6,3 L6,10 L1,17 L-3,20 L-8,19 L-8,11 L-6,6 L-4,6 L-2,1 Z " fill="#CACACA" transform="translate(16,5)"/>
<path d="M0,0 L7,2 L5,7 L0,13 L-5,12 L-2,3 Z " fill="#080808" transform="translate(14,9)"/>
<path d="M0,0 L6,3 L6,8 L5,6 L-2,5 L-5,8 L-3,2 Z " fill="#E1E1E1" transform="translate(16,5)"/>
<path d="M0,0 L2,0 L0,5 L-4,9 L-4,6 Z " fill="#B3B3B3" transform="translate(20,13)"/>
</svg>
