<?xml version="1.0" encoding="UTF-8"?>
<svg version="1.1" xmlns="http://www.w3.org/2000/svg" width="28" height="28">
<path d="M0,0 L28,0 L28,28 L0,28 Z " fill="#020202" transform="translate(0,0)"/>
<path d="M0,0 L4,1 L9,6 L10,7 L10,13 L2,17 L-7,18 L-9,17 L-10,9 L-4,2 Z " fill="#070707" transform="translate(15,6)"/>
<path d="M0,0 L4,1 L9,6 L10,7 L10,13 L2,17 L-7,18 L-9,17 L-10,9 L-4,2 Z M-1,4 L-7,9 L-8,14 L-6,16 L2,16 L2,14 L7,13 L8,12 L8,7 L3,4 Z " fill="#DDDDDD" transform="translate(15,6)"/>
<path d="M0,0 L2,4 L-3,7 L-6,7 L-6,5 L-1,3 Z " fill="#B2B2B2" transform="translate(23,15)"/>
</svg>
