<?xml version="1.0" encoding="UTF-8"?>
<svg version="1.1" xmlns="http://www.w3.org/2000/svg" width="28" height="28">
<path d="M0,0 L28,0 L28,28 L0,28 Z " fill="#020202" transform="translate(0,0)"/>
<path d="M0,0 L4,2 L7,7 L7,14 L2,19 L-3,20 L-6,17 L-4,7 Z " fill="#E8E8E8" transform="translate(14,3)"/>
<path d="M0,0 L3,2 L3,9 L-1,12 L-5,12 L-3,4 Z " fill="#111111" transform="translate(16,7)"/>
<path d="M0,0 L4,2 L7,7 L7,9 L5,9 L3,5 L0,7 L-3,5 Z " fill="#D2D2D2" transform="translate(14,3)"/>
</svg>
