<?xml version="1.0" encoding="UTF-8"?>
<svg version="1.1" xmlns="http://www.w3.org/2000/svg" width="28" height="28">
<path d="M0,0 L28,0 L28,28 L0,28 Z " fill="#020202" transform="translate(0,0)"/>
<path d="M0,0 L4,1 L7,6 L7,13 L4,18 L1,20 L-7,20 L-9,18 L-8,11 L-6,7 L-4,7 L-2,2 Z " fill="#0A0A0A" transform="translate(15,4)"/>
<path d="M0,0 L4,1 L7,6 L7,13 L4,18 L1,20 L-7,20 L-9,18 L-8,11 L-6,7 L-4,7 L-2,2 Z M1,2 L1,4 L-2,5 L-7,13 L-7,17 L2,17 L5,15 L5,8 L3,3 Z " fill="#D4D4D4" transform="translate(15,4)"/>
<path d="M0,0 L1,4 L-1,10 L6,10 L4,11 L4,13 L-1,13 L-3,11 L-2,4 Z " fill="#BFBFBF" transform="translate(9,11)"/>
<path d="M0,0 L3,1 L1,1 L1,4 L-5,9 L-3,4 Z " fill="#F0F0F0" transform="translate(15,4)"/>
</svg>
