<?xml version="1.0" encoding="UTF-8"?>
<svg version="1.1" xmlns="http://www.w3.org/2000/svg" width="28" height="28">
<path d="M0,0 L28,0 L28,28 L0,28 Z " fill="#020202" transform="translate(0,0)"/>
<path d="M0,0 L5,1 L8,4 L9,10 L3,17 L-2,20 L-7,20 L-10,17 L-10,10 L-5,3 Z " fill="#0B0B0B" transform="translate(16,5)"/>
<path d="M0,0 L5,1 L8,4 L9,10 L3,17 L-2,20 L-7,20 L-10,17 L-10,10 L-5,3 Z M1,2 L1,9 L-1,9 L-2,5 L-5,6 L-7,10 L-7,17 L-1,17 L7,11 L6,4 L4,2 Z " fill="#D0D0D0" transform="translate(16,5)"/>
<path d="M0,0 L2,0 L0,5 L-3,13 L-4,13 L-4,6 Z " fill="#ECECEC" transform="translate(11,8)"/>
<path d="M0,0 L3,2 L3,7 L7,8 L2,9 L0,7 Z " fill="#B2B2B2" transform="translate(6,15)"/>
</svg>
