<?xml version="1.0" encoding="UTF-8"?>
<svg version="1.1" xmlns="http://www.w3.org/2000/svg" width="28" height="28">
<path d="M0,0 L28,0 L28,28 L0,28 Z " fill="#010101" transform="translate(0,0)"/>
<path d="M0,0 L4,1 L5,2 L5,13 L1,18 L-3,20 L-10,20 L-12,18 L-11,12 L-7,6 Z " fill="#0B0B0B" transform="translate(18,4)"/>
<path d="M0,0 L4,1 L5,2 L5,13 L1,18 L-3,20 L-10,20 L-12,18 L-11,12 L-7,6 Z M0,3 L-4,6 L-4,8 L-7,9 L-9,12 L-9,17 L0,17 L4,10 L4,5 Z " fill="#CCCCCC" transform="translate(18,4)"/>
<path d="M0,0 L4,1 L3,5 L0,4 L-5,5 Z " fill="#E9E9E9" transform="translate(18,4)"/>
</svg>
