<?xml version="1.0" encoding="UTF-8"?>
<svg version="1.1" xmlns="http://www.w3.org/2000/svg" width="28" height="28">
<path d="M0,0 L28,0 L28,28 L0,28 Z " fill="#040404" transform="translate(0,0)"/>
<path d="M0,0 L6,1 L12,8 L11,16 L5,20 L-2,19 L-4,17 L-4,14 L-6,14 L-6,8 L-3,2 Z " fill="#F0F0F0" transform="translate(12,4)"/>
<path d="M0,0 L5,0 L8,4 L8,10 L3,13 L-1,12 L-2,6 Z " fill="#0F0F0F" transform="translate(12,8)"/>
<path d="M0,0 L1,4 L-1,9 L-5,11 L-5,8 L-3,1 L-1,3 Z " fill="#D3D3D3" transform="translate(23,12)"/>
</svg>
