<?xml version="1.0" encoding="UTF-8"?>
<svg version="1.1" xmlns="http://www.w3.org/2000/svg" width="28" height="28">
<path d="M0,0 L28,0 L28,28 L0,28 Z " fill="#030303" transform="translate(0,0)"/>
<path d="M0,0 L11,1 L13,2 L14,7 L10,16 L6,19 L0,20 L-3,16 L-3,8 Z " fill="#E5E5E5" transform="translate(10,5)"/>
<path d="M0,0 L1,4 L2,2 L6,2 L4,6 L-1,13 L-3,12 L-3,6 Z " fill="#0A0A0A" transform="translate(12,6)"/>
<path d="M0,0 L1,0 L1,7 L-4,13 L-8,13 L-6,8 Z " fill="#121212" transform="translate(20,9)"/>
<path d="M0,0 L8,0 L10,1 L11,6 L8,7 L6,4 L1,2 L0,5 L-1,2 Z " fill="#C9C9C9" transform="translate(13,6)"/>
</svg>
