<?xml version="1.0" encoding="UTF-8"?>
<svg version="1.1" xmlns="http://www.w3.org/2000/svg" width="28" height="28">
<path d="M0,0 L28,0 L28,28 L0,28 Z " fill="#030303" transform="translate(0,0)"/>
<path d="M0,0 L3,0 L3,2 L5,2 L8,7 L7,12 L4,17 L-2,20 L-7,19 L-8,17 L-8,10 L-3,5 L-1,5 Z " fill="#E0E0E0" transform="translate(15,4)"/>
<path d="M0,0 L1,3 L0,7 L7,6 L7,4 L10,3 L9,8 L2,12 L-3,11 L-4,4 Z " fill="#EEEEEE" transform="translate(11,12)"/>
<path d="M0,0 L3,0 L4,6 L3,8 L-4,10 L-5,6 L-2,5 L-2,1 Z " fill="#131313" transform="translate(15,10)"/>
</svg>
