<?xml version="1.0" encoding="UTF-8"?>
<svg version="1.1" xmlns="http://www.w3.org/2000/svg" width="28" height="28">
<path d="M0,0 L28,0 L28,28 L0,28 Z " fill="#020202" transform="translate(0,0)"/>
<path d="M0,0 L5,2 L5,4 L7,4 L9,8 L9,13 L5,17 L-2,19 L-10,19 L-11,14 L-7,7 L-9,7 L-9,4 Z " fill="#E4E4E4" transform="translate(16,4)"/>
<path d="M0,0 L6,1 L7,2 L7,8 L3,11 L-2,13 L-7,13 L-6,8 L-5,6 L-3,6 L-1,1 Z " fill="#0F0F0F" transform="translate(15,8)"/>
<path d="M0,0 L5,2 L5,4 L7,4 L9,8 L9,13 L5,17 L2,16 L2,14 L5,12 L5,6 L0,4 Z " fill="#D4D4D4" transform="translate(16,4)"/>
<path d="M0,0 L5,2 L5,4 L7,5 L0,4 Z " fill="#BEBEBE" transform="translate(16,4)"/>
</svg>
