<?xml version="1.0" encoding="UTF-8"?>
<svg version="1.1" xmlns="http://www.w3.org/2000/svg" width="28" height="28">
<path d="M0,0 L28,0 L28,28 L0,28 Z " fill="#030303" transform="translate(0,0)"/>
<path d="M0,0 L5,1 L8,5 L8,11 L4,16 L-2,19 L-11,19 L-12,14 L-3,3 Z " fill="#0B0B0B" transform="translate(16,4)"/>
<path d="M0,0 L5,1 L8,5 L8,11 L4,16 L-2,19 L-11,19 L-12,14 L-3,3 Z M1,3 L-10,14 L-10,17 L-1,16 L5,12 L6,11 L6,5 L4,3 Z " fill="#E9E9E9" transform="translate(16,4)"/>
<path d="M0,0 L2,0 L0,4 L-5,6 L-8,4 Z " fill="#C9C9C9" transform="translate(20,16)"/>
</svg>
