<?xml version="1.0" encoding="UTF-8"?>
<svg version="1.1" xmlns="http://www.w3.org/2000/svg" width="28" height="28">
<path d="M0,0 L28,0 L28,28 L0,28 Z " fill="#030303" transform="translate(0,0)"/>
<path d="M0,0 L4,1 L3,2 L9,4 L11,6 L10,13 L2,19 L-5,20 L-8,18 L-7,13 L-4,9 L-2,3 Z " fill="#E2E2E2" transform="translate(13,4)"/>
<path d="M0,0 L6,0 L8,2 L7,8 L0,12 L-5,12 L-4,8 Z " fill="#0B0B0B" transform="translate(13,9)"/>
<path d="M0,0 L4,2 L4,5 L2,7 L0,3 Z " fill="#BEBEBE" transform="translate(19,7)"/>
</svg>
