<?xml version="1.0" encoding="UTF-8"?>
<svg version="1.1" xmlns="http://www.w3.org/2000/svg" width="28" height="28">
<path d="M0,0 L28,0 L28,28 L0,28 Z " fill="#040404" transform="translate(0,0)"/>
<path d="M0,0 L12,0 L14,1 L16,10 L12,14 L7,16 L-3,15 L-4,13 L-3,4 L-2,1 Z " fill="#EBEBEB" transform="translate(9,7)"/>
<path d="M0,0 L5,0 L6,7 L-2,9 L-8,9 L-9,4 L-5,3 L-5,1 Z " fill="#0C0C0C" transform="translate(16,10)"/>
<path d="M0,0 L1,2 L3,2 L1,7 L-6,10 L-9,9 L-7,9 L-8,5 L0,4 Z " fill="#D1D1D1" transform="translate(22,13)"/>
</svg>
