<?xml version="1.0" encoding="UTF-8"?>
<svg version="1.1" xmlns="http://www.w3.org/2000/svg" width="28" height="28">
<path d="M0,0 L28,0 L28,28 L0,28 Z " fill="#030303" transform="translate(0,0)"/>
<path d="M0,0 L4,0 L6,5 L5,12 L-3,19 L-9,20 L-11,18 L-11,12 L-7,4 Z " fill="#EDEDED" transform="translate(17,5)"/>
<path d="M0,0 L4,1 L5,5 L0,11 L-3,13 L-7,13 L-6,7 L-4,7 L-3,3 Z " fill="#0F0F0F" transform="translate(16,9)"/>
<path d="M0,0 L3,3 L3,5 L10,3 L10,6 L6,8 L1,7 L0,6 Z " fill="#CFCFCF" transform="translate(6,17)"/>
</svg>
