<?xml version="1.0" encoding="UTF-8"?>
<svg version="1.1" xmlns="http://www.w3.org/2000/svg" width="28" height="28">
<path d="M0,0 L28,0 L28,28 L0,28 Z " fill="#010101" transform="translate(0,0)"/>
<path d="M0,0 L6,0 L10,4 L10,10 L6,17 L4,17 L4,19 L-4,20 L-5,19 L-5,11 L-1,1 Z " fill="#0A0A0A" transform="translate(13,4)"/>
<path d="M0,0 L6,0 L10,4 L10,10 L6,17 L4,17 L4,19 L-4,20 L-5,19 L-5,11 L-1,1 Z M1,2 L-1,4 L-3,13 L-2,18 L2,17 L7,11 L8,5 L5,2 Z " fill="#E1E1E1" transform="translate(13,4)"/>
<path d="M0,0 L5,4 L5,10 L1,17 L-1,17 L-2,19 L-3,16 L1,11 L2,5 L0,3 Z " fill="#C5C5C5" transform="translate(18,4)"/>
</svg>
