<?xml version="1.0" encoding="UTF-8"?>
<svg version="1.1" xmlns="http://www.w3.org/2000/svg" width="28" height="28">
<path d="M0,0 L28,0 L28,28 L0,28 Z " fill="#030303" transform="translate(0,0)"/>
<path d="M0,0 L5,0 L8,7 L7,16 L-1,20 L-8,20 L-9,12 L-7,5 Z " fill="#D8D8D8" transform="translate(14,4)"/>
<path d="M0,0 L5,0 L7,4 L6,9 L0,11 L-5,9 L-5,4 L-2,4 L-2,1 Z " fill="#030303" transform="translate(13,9)"/>
<path d="M0,0 L10,1 L9,4 L5,5 L0,5 Z " fill="#F2F2F2" transform="translate(7,19)"/>
<path d="M0,0 L1,3 L3,3 L4,1 L4,4 L1,4 L1,9 L3,10 L0,10 L0,15 L-2,11 L-1,6 Z " fill="#888888" transform="translate(7,9)"/>
</svg>
