<?xml version="1.0" encoding="UTF-8"?>
<svg version="1.1" xmlns="http://www.w3.org/2000/svg" width="28" height="28">
<path d="M0,0 L28,0 L28,28 L0,28 Z " fill="#050505" transform="translate(0,0)"/>
<path d="M0,0 L4,1 L10,5 L11,10 L13,10 L13,16 L8,19 L-1,19 L-4,18 L-5,13 L-7,13 L-6,10 L-5,12 L-3,12 L0,16 L9,15 L9,10 L5,8 L4,3 L-4,7 L-5,9 L-7,9 L-5,3 L-3,3 L-3,1 Z " fill="#E2E2E2" transform="translate(11,4)"/>
<path d="M0,0 L1,2 L3,2 L6,6 L9,8 L5,9 L2,8 L1,3 L-1,3 Z " fill="#C8C8C8" transform="translate(5,14)"/>
</svg>
