<?xml version="1.0" encoding="UTF-8"?>
<svg version="1.1" xmlns="http://www.w3.org/2000/svg" width="28" height="28">
<path d="M0,0 L28,0 L28,28 L0,28 Z " fill="#030303" transform="translate(0,0)"/>
<path d="M0,0 L5,0 L7,3 L6,10 L5,12 L2,12 L1,16 L-4,16 L-6,11 L-4,5 L-2,1 Z " fill="#030303" transform="translate(13,6)"/>
<path d="M0,0 L6,0 L10,4 L10,13 L3,20 L-3,20 L-6,17 L-6,8 Z M1,2 L-2,5 L-4,8 L-5,15 L-3,18 L2,18 L3,14 L6,14 L8,8 L7,3 L6,2 Z " fill="#D7D7D7" transform="translate(12,4)"/>
<path d="M0,0 L6,0 L10,5 L7,8 L6,3 L-1,3 L-4,13 L-6,10 L-4,5 Z " fill="#BEBEBE" transform="translate(12,4)"/>
</svg>
