<?xml version="1.0" encoding="UTF-8"?>
<svg version="1.1" xmlns="http://www.w3.org/2000/svg" width="28" height="28">
<path d="M0,0 L28,0 L28,28 L0,28 Z " fill="#040404" transform="translate(0,0)"/>
<path d="M0,0 L5,1 L13,5 L15,8 L14,15 L10,18 L-3,18 L-5,16 L-5,6 Z " fill="#080808" transform="translate(10,4)"/>
<path d="M0,0 L5,1 L13,5 L15,8 L14,15 L10,18 L-3,18 L-5,16 L-5,6 Z M1,3 L-2,7 L-3,14 L0,16 L8,16 L12,13 L11,8 L4,3 Z " fill="#E4E4E4" transform="translate(10,4)"/>
<path d="M0,0 L2,3 L1,7 L-3,9 L-3,5 L-1,4 Z " fill="#D0D0D0" transform="translate(22,13)"/>
</svg>
