<?xml version="1.0" encoding="UTF-8"?>
<svg version="1.1" xmlns="http://www.w3.org/2000/svg" width="28" height="28">
<path d="M0,0 L28,0 L28,28 L0,28 Z " fill="#020202" transform="translate(0,0)"/>
<path d="M0,0 L4,1 L5,4 L5,11 L-2,19 L-8,20 L-9,15 L-6,7 L-4,7 L-2,3 Z " fill="#D0D0D0" transform="translate(17,4)"/>
<path d="M0,0 L3,0 L3,6 L-3,13 L-6,13 L-5,9 L-3,4 Z " fill="#121212" transform="translate(17,8)"/>
<path d="M0,0 L4,1 L4,10 L3,10 L3,4 L0,5 L-2,7 L-3,4 Z " fill="#E8E8E8" transform="translate(17,4)"/>
<path d="M0,0 L1,0 L1,7 L-6,15 L-8,13 L-2,6 L0,6 Z " fill="#C1C1C1" transform="translate(21,8)"/>
<path d="M0,0 L1,4 L4,5 L3,7 L-2,6 L-1,1 Z " fill="#E8E8E8" transform="translate(10,17)"/>
</svg>
