<?xml version="1.0" encoding="UTF-8"?>
<svg version="1.1" xmlns="http://www.w3.org/2000/svg" width="28" height="28">
<path d="M0,0 L28,0 L28,28 L0,28 Z " fill="#020202" transform="translate(0,0)"/>
<path d="M0,0 L4,1 L6,3 L5,9 L1,15 L-5,20 L-10,20 L-11,13 L-6,4 Z " fill="#DDDDDD" transform="translate(17,5)"/>
<path d="M0,0 L4,1 L7,0 L6,4 L1,10 L-4,11 L-3,4 Z " fill="#0F0F0F" transform="translate(13,11)"/>
<path d="M0,0 L1,2 L-4,12 L-5,12 L-4,4 Z " fill="#EFEFEF" transform="translate(12,10)"/>
<path d="M0,0 L2,1 L1,3 L3,3 L4,6 L1,7 L-3,5 L-5,4 Z " fill="#C4C4C4" transform="translate(15,6)"/>
</svg>
