<?xml version="1.0" encoding="UTF-8"?>
<svg version="1.1" xmlns="http://www.w3.org/2000/svg" width="28" height="28">
<path d="M0,0 L28,0 L28,28 L0,28 Z " fill="#020202" transform="translate(0,0)"/>
<path d="M0,0 L5,1 L6,2 L6,13 L1,19 L-6,20 L-9,16 L-8,9 L-3,4 Z " fill="#E9E9E9" transform="translate(15,4)"/>
<path d="M0,0 L4,0 L3,8 L1,11 L-4,12 L-5,11 L-5,5 Z " fill="#171717" transform="translate(15,9)"/>
<path d="M0,0 L2,0 L4,4 L6,5 L6,8 L1,8 L-2,4 L-2,1 Z " fill="#D2D2D2" transform="translate(8,16)"/>
</svg>
