<?xml version="1.0" encoding="UTF-8"?>
<svg version="1.1" xmlns="http://www.w3.org/2000/svg" width="28" height="28">
<path d="M0,0 L28,0 L28,28 L0,28 Z " fill="#020202" transform="translate(0,0)"/>
<path d="M0,0 L6,2 L7,4 L7,15 L2,20 L-5,19 L-7,16 L-7,8 L-3,2 Z " fill="#E9E9E9" transform="translate(14,4)"/>
<path d="M0,0 L6,1 L6,9 L2,13 L-3,12 L-4,11 L-3,4 Z " fill="#0E0E0E" transform="translate(13,8)"/>
<path d="M0,0 L1,3 L-2,7 L-4,7 L-5,4 L-3,4 L-3,2 Z " fill="#D4D4D4" transform="translate(20,16)"/>
</svg>
