<?xml version="1.0" encoding="UTF-8"?>
<svg version="1.1" xmlns="http://www.w3.org/2000/svg" width="28" height="28">
<path d="M0,0 L28,0 L28,28 L0,28 Z " fill="#010101" transform="translate(0,0)"/>
<path d="M0,0 L5,0 L5,2 L10,3 L14,7 L13,11 L12,12 L3,12 L-5,9 L-6,8 L-6,3 Z " fill="#C4C4C4" transform="translate(11,8)"/>
<path d="M0,0 L3,0 L8,0 L12,3 L11,7 L4,7 L-3,4 L-2,1 Z " fill="#0F0F0F" transform="translate(10,11)"/>
<path d="M0,0 L5,0 L5,2 L9,3 L7,4 L1,5 L-1,4 L-5,5 L-4,2 Z " fill="#E5E5E5" transform="translate(11,8)"/>
</svg>
