<?xml version="1.0" encoding="UTF-8"?>
<svg version="1.1" xmlns="http://www.w3.org/2000/svg" width="28" height="28">
<path d="M0,0 L28,0 L28,28 L0,28 Z " fill="#020202" transform="translate(0,0)"/>
<path d="M0,0 L4,1 L7,7 L7,14 L2,19 L-5,20 L-8,18 L-9,14 L-6,5 Z " fill="#D8D8D8" transform="translate(15,4)"/>
<path d="M0,0 L4,1 L5,8 L2,13 L-4,14 L-6,10 L-3,3 Z " fill="#0C0C0C" transform="translate(15,7)"/>
<path d="M0,0 L4,1 L6,4 L6,13 L4,14 L4,4 L-1,5 L-4,7 L-2,3 Z " fill="#EFEFEF" transform="translate(15,4)"/>
<path d="M0,0 L1,0 L1,7 L-2,11 L-4,11 L-3,7 L-1,6 Z " fill="#C2C2C2" transform="translate(21,11)"/>
</svg>
