<?xml version="1.0" encoding="UTF-8"?>
<svg version="1.1" xmlns="http://www.w3.org/2000/svg" width="28" height="28">
<path d="M0,0 L28,0 L28,28 L0,28 Z " fill="#020202" transform="translate(0,0)"/>
<path d="M0,0 L2,0 L2,10 L-2,17 L-6,20 L-11,19 L-10,13 L-4,3 Z " fill="#DBDBDB" transform="translate(18,4)"/>
<path d="M0,0 L2,0 L1,8 L-2,11 L-5,11 L-4,5 Z " fill="#131313" transform="translate(15,10)"/>
<path d="M0,0 L2,0 L0,5 L-5,9 L-8,16 L-10,15 L-8,9 L-2,1 Z " fill="#EDEDED" transform="translate(18,4)"/>
<path d="M0,0 L2,4 L1,10 L-1,8 L-2,2 L0,2 Z " fill="#B9B9B9" transform="translate(18,7)"/>
</svg>
