<?xml version="1.0" encoding="UTF-8"?>
<svg version="1.1" xmlns="http://www.w3.org/2000/svg" width="28" height="28">
<path d="M0,0 L28,0 L28,28 L0,28 Z " fill="#020202" transform="translate(0,0)"/>
<path d="M0,0 L5,1 L8,6 L7,16 L4,19 L-3,20 L-6,18 L-7,12 L-4,6 Z " fill="#DDDDDD" transform="translate(14,4)"/>
<path d="M0,0 L4,2 L4,11 L1,14 L-4,14 L-5,9 Z " fill="#0B0B0B" transform="translate(15,7)"/>
<path d="M0,0 L1,0 L0,10 L-3,10 L-2,1 Z " fill="#C9C9C9" transform="translate(21,10)"/>
<path d="M0,0 L3,0 L2,3 L-5,4 L-2,1 Z " fill="#EFEFEF" transform="translate(16,20)"/>
</svg>
