<?xml version="1.0" encoding="UTF-8"?>
<svg version="1.1" xmlns="http://www.w3.org/2000/svg" width="28" height="28">
<path d="M0,0 L28,0 L28,28 L0,28 Z " fill="#040404" transform="translate(0,0)"/>
<path d="M0,0 L5,1 L10,9 L10,15 L5,19 L2,20 L-7,20 L-8,19 L-8,12 L-5,8 L-3,2 Z " fill="#0F0F0F" transform="translate(14,4)"/>
<path d="M0,0 L5,1 L10,9 L10,15 L5,19 L2,20 L-7,20 L-8,19 L-8,12 L-5,8 L-3,2 Z M0,3 L0,6 L-2,6 L-6,14 L-5,18 L5,17 L7,16 L7,9 L3,3 Z " fill="#DADADA" transform="translate(14,4)"/>
<path d="M0,0 L1,3 L-3,11 L-2,15 L2,17 L-5,17 L-6,16 L-6,9 Z " fill="#F1F1F1" transform="translate(12,7)"/>
<path d="M0,0 L1,0 L1,6 L-4,10 L-9,11 L-13,9 L-2,7 L-2,2 Z " fill="#C4C4C4" transform="translate(23,13)"/>
<path d="M0,0 L3,0 L4,2 L4,9 L2,6 Z " fill="#F1F1F1" transform="translate(19,9)"/>
</svg>
