<?xml version="1.0" encoding="UTF-8"?>
<svg version="1.1" xmlns="http://www.w3.org/2000/svg" width="28" height="28">
<path d="M0,0 L28,0 L28,28 L0,28 Z " fill="#020202" transform="translate(0,0)"/>
<path d="M0,0 L5,0 L6,1 L6,9 L2,16 L-4,20 L-9,20 L-10,18 L-10,10 L-3,2 Z " fill="#0F0F0F" transform="translate(16,5)"/>
<path d="M0,0 L5,0 L6,1 L6,9 L2,16 L-4,20 L-9,20 L-10,18 L-10,10 L-3,2 Z M2,2 L2,5 L-3,6 L-8,11 L-9,17 L-8,18 L-3,18 L3,12 L4,2 Z " fill="#CFCFCF" transform="translate(16,5)"/>
<path d="M0,0 L3,0 L3,2 L6,2 L5,4 L0,5 L-5,7 Z " fill="#EBEBEB" transform="translate(13,7)"/>
</svg>
