<?xml version="1.0" encoding="UTF-8"?>
<svg version="1.1" xmlns="http://www.w3.org/2000/svg" width="28" height="28">
<path d="M0,0 L28,0 L28,28 L0,28 Z " fill="#020202" transform="translate(0,0)"/>
<path d="M0,0 L5,0 L8,4 L7,11 L0,19 L-2,20 L-8,20 L-10,18 L-10,12 L-4,3 Z " fill="#D0D0D0" transform="translate(16,4)"/>
<path d="M0,0 L5,1 L5,7 L0,14 L-7,15 L-7,9 L-1,1 Z " fill="#090909" transform="translate(16,6)"/>
<path d="M0,0 L2,1 L-5,9 L-7,18 L-3,19 L-8,20 L-10,18 L-10,12 L-4,3 Z " fill="#E6E6E6" transform="translate(16,4)"/>
</svg>
