<?xml version="1.0" encoding="UTF-8"?>
<svg version="1.1" xmlns="http://www.w3.org/2000/svg" width="28" height="28">
<path d="M0,0 L28,0 L28,28 L0,28 Z " fill="#030303" transform="translate(0,0)"/>
<path d="M0,0 L6,1 L8,3 L8,13 L5,18 L2,20 L-6,20 L-8,18 L-8,11 L-3,2 Z " fill="#070707" transform="translate(14,4)"/>
<path d="M0,0 L6,1 L8,3 L8,13 L5,18 L2,20 L-6,20 L-8,18 L-8,11 L-3,2 Z M2,2 L-3,8 L-5,11 L-5,18 L0,19 L5,15 L6,13 L6,3 Z " fill="#DDDDDD" transform="translate(14,4)"/>
<path d="M0,0 L1,0 L3,6 L9,7 L9,8 L1,8 L-1,6 L-1,1 Z " fill="#F8F8F8" transform="translate(7,16)"/>
</svg>
