<?xml version="1.0" encoding="UTF-8"?>
<svg version="1.1" xmlns="http://www.w3.org/2000/svg" width="28" height="28">
<path d="M0,0 L28,0 L28,28 L0,28 Z " fill="#020202" transform="translate(0,0)"/>
<path d="M0,0 L9,1 L14,5 L16,9 L16,16 L10,20 L1,20 L-3,16 L-4,13 L-4,5 Z " fill="#060606" transform="translate(9,4)"/>
<path d="M0,0 L9,1 L14,5 L16,9 L16,16 L10,20 L1,20 L-3,16 L-4,13 L-4,5 Z M0,3 L-1,5 L-1,14 L2,17 L10,17 L13,15 L13,7 L10,4 L7,3 Z " fill="#DCDCDC" transform="translate(9,4)"/>
<path d="M0,0 L1,0 L1,7 L-4,10 L-5,7 L-1,5 Z " fill="#B8B8B8" transform="translate(24,13)"/>
</svg>
