<?xml version="1.0" encoding="UTF-8"?>
<svg version="1.1" xmlns="http://www.w3.org/2000/svg" width="28" height="28">
<path d="M0,0 L28,0 L28,28 L0,28 Z " fill="#020202" transform="translate(0,0)"/>
<path d="M0,0 L10,0 L10,2 L13,3 L13,12 L10,17 L6,20 L-3,19 L-6,15 L-5,7 Z " fill="#080808" transform="translate(11,5)"/>
<path d="M0,0 L10,0 L10,2 L13,3 L13,12 L10,17 L6,20 L-3,19 L-6,15 L-5,7 Z M2,2 L-1,7 L-3,10 L-2,16 L0,18 L6,18 L10,13 L10,6 L9,3 Z " fill="#E3E3E3" transform="translate(11,5)"/>
<path d="M0,0 L8,2 L8,3 L2,3 L-2,4 Z " fill="#C3C3C3" transform="translate(11,5)"/>
</svg>
