<?xml version="1.0" encoding="UTF-8"?>
<svg version="1.1" xmlns="http://www.w3.org/2000/svg" width="28" height="28">
<path d="M0,0 L28,0 L28,28 L0,28 Z " fill="#040404" transform="translate(0,0)"/>
<path d="M0,0 L3,1 L6,6 L7,15 L1,19 L-2,20 L-9,20 L-11,18 L-10,10 L-5,4 L-3,4 L-3,1 Z " fill="#E3E3E3" transform="translate(16,3)"/>
<path d="M0,0 L4,2 L6,5 L6,10 L1,13 L-7,13 L-6,7 Z " fill="#0B0B0B" transform="translate(15,7)"/>
<path d="M0,0 L3,1 L3,5 L-3,4 L-3,1 Z " fill="#F9F9F9" transform="translate(16,3)"/>
</svg>
