<?xml version="1.0" encoding="UTF-8"?>
<svg version="1.1" xmlns="http://www.w3.org/2000/svg" width="28" height="28">
<path d="M0,0 L28,0 L28,28 L0,28 Z " fill="#010101" transform="translate(0,0)"/>
<path d="M0,0 L4,1 L7,6 L6,11 L2,17 L-3,20 L-7,19 L-9,18 L-8,9 L-6,9 L-5,5 L-1,3 Z " fill="#D8D8D8" transform="translate(16,4)"/>
<path d="M0,0 L3,0 L2,8 L-4,13 L-7,13 L-6,6 L-5,4 L-3,4 L-2,1 Z " fill="#080808" transform="translate(17,8)"/>
<path d="M0,0 L1,2 L-2,8 L-4,8 L-4,3 L-2,3 L-2,1 Z " fill="#F0F0F0" transform="translate(12,10)"/>
</svg>
