<?xml version="1.0" encoding="UTF-8"?>
<svg version="1.1" xmlns="http://www.w3.org/2000/svg" width="28" height="28">
<path d="M0,0 L28,0 L28,28 L0,28 Z " fill="#000000" transform="translate(0,0)"/>
<path d="M0,0 L7,1 L12,9 L12,16 L9,20 L3,20 L0,18 L-1,15 L-1,7 L-2,2 Z " fill="#CFCFCF" transform="translate(10,5)"/>
<path d="M0,0 L5,2 L8,7 L8,14 L3,15 L1,13 L1,6 L3,3 L0,3 Z " fill="#090909" transform="translate(11,7)"/>
<path d="M0,0 L7,1 L11,7 L11,15 L10,15 L8,9 L5,4 L1,2 L0,6 L-2,6 L-1,1 Z " fill="#E5E5E5" transform="translate(10,5)"/>
</svg>
