<?xml version="1.0" encoding="UTF-8"?>
<svg version="1.1" xmlns="http://www.w3.org/2000/svg" width="28" height="28">
<path d="M0,0 L28,0 L28,28 L0,28 Z " fill="#040404" transform="translate(0,0)"/>
<path d="M0,0 L5,1 L7,4 L7,14 L1,19 L-7,20 L-10,18 L-10,8 L-6,4 L1,3 L0,8 L-1,5 L-5,8 L-7,8 L-7,16 L0,15 L3,13 L3,3 L-1,1 Z " fill="#DBDBDB" transform="translate(15,4)"/>
<path d="M0,0 L5,0 L4,5 L3,2 L-1,5 L-3,5 L-5,15 L-6,15 L-6,5 L-2,1 Z " fill="#B9B9B9" transform="translate(11,7)"/>
<path d="M0,0 L1,0 L2,7 L6,10 L2,11 L0,10 Z M6,8 Z " fill="#F8F8F8" transform="translate(6,13)"/>
<path d="M0,0 L5,0 L4,5 L3,2 L0,3 L-2,1 Z " fill="#D5D5D5" transform="translate(11,7)"/>
</svg>
