<?xml version="1.0" encoding="UTF-8"?>
<svg version="1.1" xmlns="http://www.w3.org/2000/svg" width="28" height="28">
<path d="M0,0 L28,0 L28,28 L0,28 Z " fill="#040404" transform="translate(0,0)"/>
<path d="M0,0 L5,1 L12,3 L14,6 L14,13 L9,18 L0,20 L-4,16 L-5,7 L-3,2 Z " fill="#E2E2E2" transform="translate(10,5)"/>
<path d="M0,0 L1,2 L-1,7 L2,6 L3,3 L7,2 L9,3 L10,9 L6,13 L4,14 L-2,14 L-4,11 L-4,4 Z " fill="#0D0D0D" transform="translate(12,7)"/>
<path d="M0,0 L1,0 L1,9 L-1,9 L-2,3 Z " fill="#F6F6F6" transform="translate(7,9)"/>
</svg>
