<?xml version="1.0" encoding="UTF-8"?>
<svg version="1.1" xmlns="http://www.w3.org/2000/svg" width="28" height="28">
<path d="M0,0 L28,0 L28,28 L0,28 Z " fill="#020202" transform="translate(0,0)"/>
<path d="M0,0 L8,1 L11,4 L10,9 L3,13 L-5,13 L-9,10 L-8,4 L-4,1 Z " fill="#0B0B0B" transform="translate(14,7)"/>
<path d="M0,0 L8,1 L11,4 L10,9 L3,13 L-5,13 L-9,10 L-8,4 L-4,1 Z M-2,2 L-7,7 L-5,11 L3,11 L8,8 L9,4 L6,2 Z " fill="#DEDEDE" transform="translate(14,7)"/>
<path d="M0,0 L8,1 L11,4 L10,9 L4,12 L3,10 L8,7 L8,4 L0,1 Z " fill="#BBBBBB" transform="translate(14,7)"/>
</svg>
