<?xml version="1.0" encoding="UTF-8"?>
<svg version="1.1" xmlns="http://www.w3.org/2000/svg" width="28" height="28">
<path d="M0,0 L28,0 L28,28 L0,28 Z " fill="#020202" transform="translate(0,0)"/>
<path d="M0,0 L4,0 L3,9 L-2,18 L-4,20 L-9,19 L-10,12 L-6,6 L-2,1 Z " fill="#E6E6E6" transform="translate(17,4)"/>
<path d="M0,0 L1,2 L-4,11 L-6,13 L-11,12 L-11,6 L-8,5 L-8,7 Z " fill="#EEEEEE" transform="translate(19,11)"/>
<path d="M0,0 L1,3 L-3,8 L-5,8 L-3,3 Z " fill="#1C1C1C" transform="translate(16,10)"/>
</svg>
