<?xml version="1.0" encoding="UTF-8"?>
<svg version="1.1" xmlns="http://www.w3.org/2000/svg" width="28" height="28">
<path d="M0,0 L28,0 L28,28 L0,28 Z " fill="#020202" transform="translate(0,0)"/>
<path d="M0,0 L5,1 L7,4 L6,10 L4,15 L-1,20 L-7,19 L-7,9 L-4,3 L-2,3 L-4,17 L0,15 L3,9 L3,4 L-1,2 Z " fill="#DADADA" transform="translate(15,4)"/>
<path d="M0,0 L5,1 L7,4 L6,8 L4,8 L3,4 L-1,2 Z " fill="#C6C6C6" transform="translate(15,4)"/>
<path d="M0,0 L2,1 L2,3 L6,2 L5,6 L0,5 Z " fill="#F4F4F4" transform="translate(9,18)"/>
<path d="M0,0 L1,2 L3,2 L2,6 L0,10 Z " fill="#BCBCBC" transform="translate(8,13)"/>
</svg>
