<?xml version="1.0" encoding="UTF-8"?>
<svg version="1.1" xmlns="http://www.w3.org/2000/svg" width="28" height="28">
<path d="M0,0 L28,0 L28,28 L0,28 Z " fill="#030303" transform="translate(0,0)"/>
<path d="M0,0 L8,0 L11,6 L11,11 L6,14 L0,16 L-7,15 L-9,13 L-9,7 L-5,8 L-7,8 L-6,12 L4,12 L6,11 L7,4 L-1,5 L-4,6 L-5,3 Z " fill="#B0B0B0" transform="translate(13,7)"/>
<path d="M0,0 L8,0 L10,4 L10,10 L8,10 L7,4 L-1,5 L-4,6 L-5,3 Z " fill="#C1C1C1" transform="translate(13,7)"/>
<path d="M0,0 L4,1 L2,1 L4,6 L6,8 L1,7 L0,6 Z " fill="#C1C1C1" transform="translate(4,14)"/>
<path d="M0,0 L1,3 L3,4 L-4,6 L-5,3 Z " fill="#E2E2E2" transform="translate(13,7)"/>
<path d="M0,0 L9,0 L9,2 L3,3 Z " fill="#909090" transform="translate(8,20)"/>
</svg>
