<?xml version="1.0" encoding="UTF-8"?>
<svg version="1.1" xmlns="http://www.w3.org/2000/svg" width="28" height="28">
<path d="M0,0 L28,0 L28,28 L0,28 Z " fill="#030303" transform="translate(0,0)"/>
<path d="M0,0 L6,1 L8,4 L9,11 L7,18 L4,20 L-2,20 L-5,17 L-5,7 L-2,2 Z " fill="#EAEAEA" transform="translate(13,4)"/>
<path d="M0,0 L4,0 L6,4 L6,10 L2,13 L-3,12 L-3,4 Z " fill="#0A0A0A" transform="translate(14,8)"/>
<path d="M0,0 L1,0 L2,8 L9,7 L8,11 L7,12 L1,12 L-2,9 Z " fill="#D1D1D1" transform="translate(10,12)"/>
</svg>
