<?xml version="1.0" encoding="UTF-8"?>
<svg version="1.1" xmlns="http://www.w3.org/2000/svg" width="28" height="28">
<path d="M0,0 L28,0 L28,28 L0,28 Z " fill="#020202" transform="translate(0,0)"/>
<path d="M0,0 L6,0 L10,3 L11,11 L6,17 L4,18 L-4,18 L-8,16 L-9,9 L-3,4 L-1,2 Z " fill="#DDDDDD" transform="translate(13,5)"/>
<path d="M0,0 L6,0 L9,2 L8,6 L5,4 L5,6 L-3,11 L-6,11 L-7,13 L-8,8 L-3,4 L-1,2 Z " fill="#E4E4E4" transform="translate(13,5)"/>
<path d="M0,0 L3,1 L2,7 L0,7 L0,9 L-2,10 L-11,10 L-11,7 L-2,2 L0,2 Z " fill="#0F0F0F" transform="translate(18,9)"/>
</svg>
