<?xml version="1.0" encoding="UTF-8"?>
<svg version="1.1" xmlns="http://www.w3.org/2000/svg" width="28" height="28">
<path d="M0,0 L28,0 L28,28 L0,28 Z " fill="#010101" transform="translate(0,0)"/>
<path d="M0,0 L6,1 L10,6 L10,13 L5,19 L3,20 L-3,20 L-6,15 L-5,7 L-1,1 Z " fill="#0C0C0C" transform="translate(13,4)"/>
<path d="M0,0 L6,1 L10,6 L10,13 L5,19 L3,20 L-3,20 L-6,15 L-5,7 L-1,1 Z M1,2 L-3,7 L-4,16 L-3,18 L3,17 L7,14 L7,5 L4,2 Z " fill="#E5E5E5" transform="translate(13,4)"/>
<path d="M0,0 L6,1 L10,6 L10,13 L7,12 L6,5 L4,3 L-3,4 Z " fill="#C9C9C9" transform="translate(13,4)"/>
</svg>
