<?xml version="1.0" encoding="UTF-8"?>
<svg version="1.1" xmlns="http://www.w3.org/2000/svg" width="28" height="28">
<path d="M0,0 L28,0 L28,28 L0,28 Z " fill="#040404" transform="translate(0,0)"/>
<path d="M0,0 L4,1 L6,6 L5,14 L0,19 L-7,20 L-12,17 L-12,12 L-7,5 L-1,1 Z " fill="#EBEBEB" transform="translate(17,4)"/>
<path d="M0,0 L3,0 L3,7 L-2,12 L-7,12 L-8,7 L-5,4 L-4,2 Z " fill="#0C0C0C" transform="translate(16,9)"/>
<path d="M0,0 L0,3 L-2,8 L-7,10 L-5,6 L-2,1 Z " fill="#CFCFCF" transform="translate(12,8)"/>
</svg>
