<?xml version="1.0" encoding="UTF-8"?>
<svg version="1.1" xmlns="http://www.w3.org/2000/svg" width="28" height="28">
<path d="M0,0 L28,0 L28,28 L0,28 Z " fill="#020202" transform="translate(0,0)"/>
<path d="M0,0 L7,1 L12,6 L11,11 L6,15 L4,16 L-2,16 L-8,12 L-7,6 L-2,1 Z " fill="#EFEFEF" transform="translate(12,6)"/>
<path d="M0,0 L8,0 L10,4 L4,9 L-3,8 L-4,4 Z " fill="#090909" transform="translate(11,10)"/>
<path d="M0,0 L4,3 L11,2 L14,0 L12,6 L10,7 L4,7 L-2,3 L-1,1 Z " fill="#D1D1D1" transform="translate(6,15)"/>
<path d="M0,0 L3,1 L1,2 L5,4 L-3,5 L-2,1 Z " fill="#D3D3D3" transform="translate(12,6)"/>
</svg>
