<?xml version="1.0" encoding="UTF-8"?>
<svg version="1.1" xmlns="http://www.w3.org/2000/svg" width="28" height="28">
<path d="M0,0 L28,0 L28,28 L0,28 Z " fill="#020202" transform="translate(0,0)"/>
<path d="M0,0 L3,1 L6,7 L6,14 L2,19 L-4,20 L-7,16 L-6,8 L-2,2 Z " fill="#0C0C0C" transform="translate(15,4)"/>
<path d="M0,0 L3,1 L6,7 L6,14 L2,19 L-4,20 L-7,16 L-6,8 L-2,2 Z M0,2 L-4,8 L-4,17 L1,18 L4,15 L4,6 L1,5 L2,2 Z " fill="#D3D3D3" transform="translate(15,4)"/>
<path d="M0,0 L2,1 L0,12 L-1,12 L-2,4 Z " fill="#B1B1B1" transform="translate(11,8)"/>
</svg>
