<?xml version="1.0" encoding="UTF-8"?>
<svg version="1.1" xmlns="http://www.w3.org/2000/svg" width="28" height="28">
<path d="M0,0 L28,0 L28,28 L0,28 Z " fill="#030303" transform="translate(0,0)"/>
<path d="M0,0 L6,0 L12,7 L12,16 L9,19 L2,20 L-3,17 L-5,9 L-7,9 L-6,4 L-4,1 Z " fill="#090909" transform="translate(12,5)"/>
<path d="M0,0 L6,0 L12,7 L12,16 L9,19 L2,20 L-3,17 L-5,9 L-7,9 L-6,4 L-4,1 Z M0,2 L-3,4 L-3,11 L0,16 L7,17 L10,14 L9,7 L4,2 Z " fill="#EAEAEA" transform="translate(12,5)"/>
<path d="M0,0 L4,2 L8,7 L7,14 L6,14 L4,7 L0,3 Z " fill="#D2D2D2" transform="translate(16,5)"/>
</svg>
