<?xml version="1.0" encoding="UTF-8"?>
<svg version="1.1" xmlns="http://www.w3.org/2000/svg" width="28" height="28">
<path d="M0,0 L28,0 L28,28 L0,28 Z " fill="#020202" transform="translate(0,0)"/>
<path d="M0,0 L6,0 L8,3 L8,10 L2,14 L-3,16 L-10,16 L-12,14 L-11,8 L-8,7 L-8,5 Z " fill="#E3E3E3" transform="translate(16,6)"/>
<path d="M0,0 L3,0 L3,5 L0,8 L-5,10 L-11,10 L-10,6 L-3,1 Z " fill="#0C0C0C" transform="translate(18,9)"/>
<path d="M0,0 L1,0 L1,7 L-4,10 L-2,5 Z " fill="#C4C4C4" transform="translate(23,9)"/>
</svg>
