<?xml version="1.0" encoding="UTF-8"?>
<svg version="1.1" xmlns="http://www.w3.org/2000/svg" width="28" height="28">
<path d="M0,0 L28,0 L28,28 L0,28 Z " fill="#030303" transform="translate(0,0)"/>
<path d="M0,0 L3,0 L3,3 L5,3 L6,13 L0,18 L-4,20 L-11,20 L-14,17 L-13,11 L-8,6 L-3,2 Z " fill="#D5D5D5" transform="translate(18,4)"/>
<path d="M0,0 L2,0 L5,5 L4,10 L-1,13 L-9,13 L-9,8 L-4,3 Z " fill="#080808" transform="translate(16,8)"/>
<path d="M0,0 L4,0 L5,10 L-1,15 L-5,17 L-10,17 L-10,15 L0,11 L1,6 L-1,1 Z " fill="#EBEBEB" transform="translate(19,7)"/>
</svg>
