<?xml version="1.0" encoding="UTF-8"?>
<svg version="1.1" xmlns="http://www.w3.org/2000/svg" width="28" height="28">
<path d="M0,0 L28,0 L28,28 L0,28 Z " fill="#020202" transform="translate(0,0)"/>
<path d="M0,0 L5,0 L6,1 L5,10 L-2,18 L-7,20 L-10,18 L-9,11 L-7,6 Z " fill="#0E0E0E" transform="translate(17,4)"/>
<path d="M0,0 L5,0 L6,5 L4,4 L4,2 L-2,4 L-4,8 L-8,17 L0,13 L1,11 L3,11 L4,6 L5,10 L-2,18 L-7,20 L-10,18 L-9,11 L-7,6 Z " fill="#D1D1D1" transform="translate(17,4)"/>
<path d="M0,0 L2,0 L2,6 L2,9 L-1,7 Z " fill="#EBEBEB" transform="translate(8,15)"/>
</svg>
