<?xml version="1.0" encoding="UTF-8"?>
<svg version="1.1" xmlns="http://www.w3.org/2000/svg" width="28" height="28">
<path d="M0,0 L28,0 L28,28 L0,28 Z " fill="#010101" transform="translate(0,0)"/>
<path d="M0,0 L7,0 L12,5 L11,11 L4,19 L2,20 L-4,20 L-6,18 L-6,11 L-2,1 Z " fill="#D8D8D8" transform="translate(12,5)"/>
<path d="M0,0 L5,0 L7,2 L6,8 L0,14 L-5,14 L-6,11 L-3,4 Z " fill="#0B0B0B" transform="translate(14,8)"/>
<path d="M0,0 L3,3 L6,4 L6,6 L1,6 L-1,4 Z " fill="#F3F3F3" transform="translate(7,19)"/>
</svg>
