<?xml version="1.0" encoding="UTF-8"?>
<svg version="1.1" xmlns="http://www.w3.org/2000/svg" width="28" height="28">
<path d="M0,0 L28,0 L28,28 L0,28 Z " fill="#020202" transform="translate(0,0)"/>
<path d="M0,0 L4,1 L6,3 L7,11 L3,16 L-2,20 L-10,20 L-12,18 L-11,10 L-7,5 L-5,5 L-5,3 Z " fill="#080808" transform="translate(18,4)"/>
<path d="M0,0 L4,1 L6,3 L7,11 L3,16 L-2,20 L-10,20 L-12,18 L-11,10 L-7,5 L-5,5 L-5,3 Z M0,2 L-8,9 L-10,13 L-9,17 L-5,18 L2,15 L5,11 L4,7 L2,2 Z " fill="#CFCFCF" transform="translate(18,4)"/>
</svg>
