<?xml version="1.0" encoding="UTF-8"?>
<svg version="1.1" xmlns="http://www.w3.org/2000/svg" width="28" height="28">
<path d="M0,0 L28,0 L28,28 L0,28 Z " fill="#020202" transform="translate(0,0)"/>
<path d="M0,0 L4,2 L10,8 L10,16 L4,20 L-4,20 L-6,17 L-6,7 L-4,3 L-2,3 L-2,1 Z " fill="#090909" transform="translate(13,4)"/>
<path d="M0,0 L4,2 L10,8 L10,16 L4,20 L-4,20 L-6,17 L-6,7 L-4,3 L-2,3 L-2,1 Z M-1,4 L-4,9 L-4,15 L-2,18 L5,18 L8,14 L8,9 L3,4 Z " fill="#DFDFDF" transform="translate(13,4)"/>
</svg>
