<?xml version="1.0" encoding="UTF-8"?>
<svg version="1.1" xmlns="http://www.w3.org/2000/svg" width="28" height="28">
<path d="M0,0 L28,0 L28,28 L0,28 Z " fill="#040404" transform="translate(0,0)"/>
<path d="M0,0 L5,0 L5,2 L9,2 L12,7 L11,11 L7,16 L4,18 L-3,18 L-8,13 L-6,6 L-1,1 Z " fill="#060606" transform="translate(13,5)"/>
<path d="M0,0 L5,0 L5,2 L9,2 L12,7 L11,11 L7,16 L4,18 L-3,18 L-8,13 L-6,6 L-1,1 Z M0,3 L-5,9 L-4,14 L-3,15 L5,15 L9,10 L8,5 L5,3 Z " fill="#E7E7E7" transform="translate(13,5)"/>
<path d="M0,0 L2,0 L5,5 L4,9 L0,14 L-3,16 L-10,16 L-8,13 L-1,11 L1,8 L0,3 L-2,1 Z " fill="#D4D4D4" transform="translate(20,7)"/>
<path d="M0,0 L2,0 L2,2 L-1,4 L-8,4 L-6,1 Z " fill="#BEBEBE" transform="translate(18,19)"/>
</svg>
