<?xml version="1.0" encoding="UTF-8"?>
<svg version="1.1" xmlns="http://www.w3.org/2000/svg" width="28" height="28">
<path d="M0,0 L28,0 L28,28 L0,28 Z " fill="#030303" transform="translate(0,0)"/>
<path d="M0,0 L6,0 L8,4 L7,11 L2,15 L-4,17 L-10,17 L-12,15 L-11,8 L-6,4 Z " fill="#EAEAEA" transform="translate(16,6)"/>
<path d="M0,0 L3,0 L4,5 L-1,9 L-8,10 L-10,9 L-8,5 L-1,4 Z " fill="#0B0B0B" transform="translate(17,10)"/>
<path d="M0,0 L1,3 L-3,8 L-8,10 L-8,8 L-10,7 L-4,4 Z " fill="#D3D3D3" transform="translate(23,12)"/>
</svg>
