<?xml version="1.0" encoding="UTF-8"?>
<svg version="1.1" xmlns="http://www.w3.org/2000/svg" width="28" height="28">
<path d="M0,0 L28,0 L28,28 L0,28 Z " fill="#050505" transform="translate(0,0)"/>
<path d="M0,0 L8,0 L10,1 L11,5 L11,12 L10,16 L3,20 L-3,20 L-5,18 L-5,8 L-2,2 Z " fill="#F6F6F6" transform="translate(12,4)"/>
<path d="M0,0 L5,2 L5,10 L1,13 L-4,13 L-5,9 L-2,3 Z " fill="#121212" transform="translate(15,7)"/>
<path d="M0,0 L3,0 L3,2 L5,3 L3,3 L1,7 L-5,10 L-3,3 Z " fill="#DDDDDD" transform="translate(12,4)"/>
</svg>
