<?xml version="1.0" encoding="UTF-8"?>
<svg version="1.1" xmlns="http://www.w3.org/2000/svg" width="28" height="28">
<path d="M0,0 L28,0 L28,28 L0,28 Z " fill="#030303" transform="translate(0,0)"/>
<path d="M0,0 L2,1 L2,5 L0,5 L-1,9 L-3,9 L-2,11 L6,10 L4,6 L5,0 L10,2 L11,7 L13,7 L13,9 L11,9 L11,11 L3,15 L-4,15 L-7,12 L-7,7 Z " fill="#E7E7E7" transform="translate(12,7)"/>
<path d="M0,0 L2,3 L3,7 L-5,9 L-6,6 L-4,5 L-2,2 L-1,3 Z " fill="#212121" transform="translate(15,10)"/>
<path d="M0,0 L5,2 L6,5 L4,5 L4,7 L-1,6 Z " fill="#D0D0D0" transform="translate(17,7)"/>
</svg>
