<?xml version="1.0" encoding="UTF-8"?>
<svg version="1.1" xmlns="http://www.w3.org/2000/svg" width="28" height="28">
<path d="M0,0 L28,0 L28,28 L0,28 Z " fill="#040404" transform="translate(0,0)"/>
<path d="M0,0 L7,0 L10,2 L10,12 L3,18 L0,20 L-5,20 L-8,18 L-8,11 L-2,1 Z " fill="#DFDFDF" transform="translate(13,5)"/>
<path d="M0,0 L5,1 L5,7 L-1,14 L-6,15 L-8,14 L-7,8 Z " fill="#131313" transform="translate(15,8)"/>
<path d="M0,0 L1,2 L-4,7 L-7,9 L-12,9 L-15,7 L-15,2 L-13,3 L-13,6 L-6,5 Z " fill="#F6F6F6" transform="translate(20,16)"/>
</svg>
