<?xml version="1.0" encoding="UTF-8"?>
<svg version="1.1" xmlns="http://www.w3.org/2000/svg" width="28" height="28">
<path d="M0,0 L28,0 L28,28 L0,28 Z " fill="#020202" transform="translate(0,0)"/>
<path d="M0,0 L6,0 L10,4 L10,12 L4,20 L-3,19 L-4,18 L-4,7 L-1,1 Z " fill="#0F0F0F" transform="translate(12,5)"/>
<path d="M0,0 L6,0 L10,4 L10,12 L4,20 L-3,19 L-4,18 L-4,7 L-1,1 Z M1,2 L1,4 L-1,4 L-3,9 L-3,16 L-1,18 L4,18 L9,10 L9,5 L4,2 Z " fill="#EAEAEA" transform="translate(12,5)"/>
<path d="M0,0 L4,2 L6,4 L6,12 L0,20 L-4,18 L0,17 L4,10 L4,5 L0,2 Z " fill="#C1C1C1" transform="translate(16,5)"/>
</svg>
