<?xml version="1.0" encoding="UTF-8"?>
<svg version="1.1" xmlns="http://www.w3.org/2000/svg" width="28" height="28">
<path d="M0,0 L28,0 L28,28 L0,28 Z " fill="#020202" transform="translate(0,0)"/>
<path d="M0,0 L4,1 L7,3 L9,7 L9,13 L4,19 L-3,20 L-5,18 L-4,10 L-1,5 Z " fill="#D4D4D4" transform="translate(13,4)"/>
<path d="M0,0 L4,2 L5,9 L3,13 L-2,15 L-5,14 L-4,8 Z " fill="#0D0D0D" transform="translate(15,7)"/>
<path d="M0,0 L5,1 L7,5 L6,8 L3,3 Z " fill="#ECECEC" transform="translate(14,5)"/>
</svg>
