<?xml version="1.0" encoding="UTF-8"?>
<svg version="1.1" xmlns="http://www.w3.org/2000/svg" width="28" height="28">
<path d="M0,0 L28,0 L28,28 L0,28 Z " fill="#020202" transform="translate(0,0)"/>
<path d="M0,0 L6,0 L8,6 L8,14 L4,19 L2,20 L-4,20 L-8,16 L-8,10 L-3,2 Z " fill="#0A0A0A" transform="translate(14,4)"/>
<path d="M0,0 L6,0 L8,6 L8,14 L4,19 L2,20 L-4,20 L-8,16 L-8,10 L-3,2 Z M1,2 L-4,6 L-6,9 L-6,16 L-5,17 L3,17 L7,12 L7,7 L3,6 L5,2 Z " fill="#D2D2D2" transform="translate(14,4)"/>
<path d="M0,0 L2,0 L4,5 L4,13 L0,18 L-7,19 L-7,17 L0,14 L2,11 L3,6 L-1,5 Z " fill="#E8E8E8" transform="translate(18,5)"/>
</svg>
