<?xml version="1.0" encoding="UTF-8"?>
<svg version="1.1" xmlns="http://www.w3.org/2000/svg" width="28" height="28">
<path d="M0,0 L28,0 L28,28 L0,28 Z " fill="#020202" transform="translate(0,0)"/>
<path d="M0,0 L3,0 L3,3 L1,4 L1,12 L2,16 L7,15 L6,11 L2,7 L2,4 L7,6 L11,10 L11,16 L7,20 L2,20 L-2,16 L-3,13 L-3,2 Z " fill="#EAEAEA" transform="translate(11,3)"/>
<path d="M0,0 L2,4 L7,9 L6,13 L1,13 L-1,9 L-1,1 Z " fill="#202020" transform="translate(12,6)"/>
<path d="M0,0 L3,0 L3,3 L-3,5 L-2,1 Z " fill="#CDCDCD" transform="translate(11,3)"/>
</svg>
