<?xml version="1.0" encoding="UTF-8"?>
<svg version="1.1" xmlns="http://www.w3.org/2000/svg" width="28" height="28">
<path d="M0,0 L28,0 L28,28 L0,28 Z " fill="#020202" transform="translate(0,0)"/>
<path d="M0,0 L4,1 L6,7 L6,14 L2,19 L-5,20 L-8,17 L-7,8 Z " fill="#E6E6E6" transform="translate(15,4)"/>
<path d="M0,0 L3,0 L4,2 L4,10 L0,13 L-5,13 L-6,8 L-2,2 Z " fill="#0B0B0B" transform="translate(15,8)"/>
<path d="M0,0 L2,0 L3,2 L3,9 L-1,14 L-4,15 L-3,11 L0,9 Z " fill="#CFCFCF" transform="translate(18,9)"/>
</svg>
