<?xml version="1.0" encoding="UTF-8"?>
<svg version="1.1" xmlns="http://www.w3.org/2000/svg" width="28" height="28">
<path d="M0,0 L28,0 L28,28 L0,28 Z " fill="#030303" transform="translate(0,0)"/>
<path d="M0,0 L6,0 L11,3 L12,5 L11,14 L4,20 L-1,20 L-4,17 L-5,12 L-4,8 L-4,3 Z " fill="#E3E3E3" transform="translate(11,5)"/>
<path d="M0,0 L6,0 L9,2 L9,8 L4,14 L-1,14 L-2,7 L2,3 L4,2 L0,3 L-2,4 Z " fill="#0B0B0B" transform="translate(11,8)"/>
<path d="M0,0 L2,1 L-1,5 L-3,9 L-4,8 L-4,3 Z " fill="#C5C5C5" transform="translate(11,5)"/>
</svg>
