<?xml version="1.0" encoding="UTF-8"?>
<svg version="1.1" xmlns="http://www.w3.org/2000/svg" width="28" height="28">
<path d="M0,0 L28,0 L28,28 L0,28 Z " fill="#020202" transform="translate(0,0)"/>
<path d="M0,0 L11,1 L15,5 L16,7 L15,16 L9,20 L3,20 L-3,16 L-4,7 L-2,2 Z " fill="#080808" transform="translate(9,5)"/>
<path d="M0,0 L11,1 L15,5 L16,7 L15,16 L9,20 L3,20 L-3,16 L-4,7 L-2,2 Z M1,2 L-2,5 L-2,13 L4,18 L11,17 L14,14 L14,6 L11,3 L6,4 L5,2 Z " fill="#D6D6D6" transform="translate(9,5)"/>
</svg>
