<?xml version="1.0" encoding="UTF-8"?>
<svg version="1.1" xmlns="http://www.w3.org/2000/svg" width="28" height="28">
<path d="M0,0 L28,0 L28,28 L0,28 Z " fill="#010101" transform="translate(0,0)"/>
<path d="M0,0 L4,2 L6,8 L6,17 L4,20 L-1,20 L-3,17 L-2,2 Z " fill="#B5B5B5" transform="translate(13,4)"/>
<path d="M0,0 L2,2 L3,6 L3,15 L-1,16 L-2,15 L-1,2 Z " fill="#0D0D0D" transform="translate(14,6)"/>
<path d="M0,0 L1,0 L2,10 L5,10 L7,4 L8,4 L8,10 L6,13 L1,13 L-1,10 Z " fill="#D7D7D7" transform="translate(11,11)"/>
</svg>
