<?xml version="1.0" encoding="UTF-8"?>
<svg version="1.1" xmlns="http://www.w3.org/2000/svg" width="28" height="28">
<path d="M0,0 L28,0 L28,28 L0,28 Z " fill="#040404" transform="translate(0,0)"/>
<path d="M0,0 L5,2 L6,5 L6,12 L2,18 L-4,20 L-9,16 L-10,14 L-9,5 L-6,1 Z " fill="#E8E8E8" transform="translate(17,5)"/>
<path d="M0,0 L2,0 L3,5 L-1,11 L-4,12 L-8,10 L-7,3 Z " fill="#060606" transform="translate(18,9)"/>
<path d="M0,0 L2,3 L2,10 L0,12 L-2,11 L-1,2 Z " fill="#CACACA" transform="translate(21,7)"/>
</svg>
