<?xml version="1.0" encoding="UTF-8"?>
<svg version="1.1" xmlns="http://www.w3.org/2000/svg" width="28" height="28">
<path d="M0,0 L28,0 L28,28 L0,28 Z " fill="#030303" transform="translate(0,0)"/>
<path d="M0,0 L5,0 L10,6 L11,11 L6,18 L3,20 L-3,20 L-7,16 L-7,9 L-2,1 Z " fill="#090909" transform="translate(13,5)"/>
<path d="M0,0 L5,0 L10,6 L11,11 L6,18 L3,20 L-3,20 L-7,16 L-7,9 L-2,1 Z M1,2 L2,5 L-3,6 L-5,9 L-5,15 L-2,18 L4,17 L9,11 L8,5 L4,2 Z " fill="#DFDFDF" transform="translate(13,5)"/>
<path d="M0,0 L2,4 L4,6 L10,5 L14,4 L9,9 L3,9 L-1,4 Z " fill="#C6C6C6" transform="translate(7,16)"/>
</svg>
