<?xml version="1.0" encoding="UTF-8"?>
<svg version="1.1" xmlns="http://www.w3.org/2000/svg" width="28" height="28">
<path d="M0,0 L28,0 L28,28 L0,28 Z " fill="#020202" transform="translate(0,0)"/>
<path d="M0,0 L8,1 L9,5 L5,13 L-7,20 L-11,19 L-10,15 Z " fill="#CFCFCF" transform="translate(15,5)"/>
<path d="M0,0 L2,0 L1,6 L-6,12 L-10,14 L-13,14 L-11,9 L-5,2 Z " fill="#0E0E0E" transform="translate(20,8)"/>
<path d="M0,0 L6,1 L5,4 L0,6 L-1,8 L-4,8 L-2,3 Z " fill="#EAEAEA" transform="translate(15,5)"/>
</svg>
