<?xml version="1.0" encoding="UTF-8"?>
<svg version="1.1" xmlns="http://www.w3.org/2000/svg" width="28" height="28">
<path d="M0,0 L28,0 L28,28 L0,28 Z " fill="#020202" transform="translate(0,0)"/>
<path d="M0,0 L5,1 L4,8 L-3,14 L-9,16 L-15,15 L-14,10 L-9,3 L-7,3 L-7,1 Z " fill="#E8E8E8" transform="translate(20,7)"/>
<path d="M0,0 L5,0 L4,4 L2,4 L2,6 L-8,11 L-11,11 L-9,7 L-4,2 Z " fill="#131313" transform="translate(19,10)"/>
<path d="M0,0 L3,1 L-4,7 L-10,9 L-16,8 L-15,3 L-11,4 L-13,7 L-3,3 L0,2 Z " fill="#C8C8C8" transform="translate(21,14)"/>
</svg>
