<?xml version="1.0" encoding="UTF-8"?>
<svg version="1.1" xmlns="http://www.w3.org/2000/svg" width="28" height="28">
<path d="M0,0 L28,0 L28,28 L0,28 Z " fill="#020202" transform="translate(0,0)"/>
<path d="M0,0 L5,1 L4,8 L-2,15 L-12,20 L-15,20 L-14,15 L-10,11 L-7,5 Z " fill="#E6E6E6" transform="translate(19,5)"/>
<path d="M0,0 L1,3 L-2,9 L-7,13 L-13,16 L-15,15 L-6,4 Z " fill="#0F0F0F" transform="translate(21,7)"/>
<path d="M0,0 L1,0 L0,7 L-6,14 L-13,18 L-15,18 L-15,16 L-6,11 L-3,7 Z " fill="#B2B2B2" transform="translate(23,6)"/>
</svg>
