<?xml version="1.0" encoding="UTF-8"?>
<svg version="1.1" xmlns="http://www.w3.org/2000/svg" width="28" height="28">
<path d="M0,0 L28,0 L28,28 L0,28 Z " fill="#040404" transform="translate(0,0)"/>
<path d="M0,0 L8,0 L11,2 L11,10 L9,10 L7,14 L2,17 L-8,17 L-9,13 L-6,8 L-3,4 L-5,3 Z " fill="#0C0C0C" transform="translate(13,6)"/>
<path d="M0,0 L8,0 L11,2 L11,10 L9,10 L7,14 L2,17 L-8,17 L-9,13 L-6,8 L-3,4 L-5,3 Z M1,2 L-2,7 L-6,12 L-6,16 L2,15 L7,12 L9,8 L9,3 L7,2 Z " fill="#D2D2D2" transform="translate(13,6)"/>
<path d="M0,0 L6,0 L8,1 L7,4 L-1,2 Z " fill="#F5F5F5" transform="translate(15,6)"/>
</svg>
