<?xml version="1.0" encoding="UTF-8"?>
<svg version="1.1" xmlns="http://www.w3.org/2000/svg" width="28" height="28">
<path d="M0,0 L28,0 L28,28 L0,28 Z " fill="#020202" transform="translate(0,0)"/>
<path d="M0,0 L2,0 L3,2 L3,9 L-2,18 L-4,20 L-9,19 L-9,10 L-2,1 Z " fill="#D8D8D8" transform="translate(18,4)"/>
<path d="M0,0 L1,3 L-2,10 L-5,13 L-7,13 L-7,8 L-2,1 Z " fill="#0E0E0E" transform="translate(18,8)"/>
<path d="M0,0 L2,0 L3,7 L2,4 L-3,6 L-1,2 Z " fill="#EDEDED" transform="translate(18,4)"/>
</svg>
