<?xml version="1.0" encoding="UTF-8"?>
<svg version="1.1" xmlns="http://www.w3.org/2000/svg" width="28" height="28">
<path d="M0,0 L28,0 L28,28 L0,28 Z " fill="#030303" transform="translate(0,0)"/>
<path d="M0,0 L5,0 L7,3 L7,10 L3,16 L-2,19 L-7,20 L-8,19 L-7,12 L-3,6 L-9,10 L-7,5 Z " fill="#E0E0E0" transform="translate(16,5)"/>
<path d="M0,0 L3,1 L3,7 L-2,13 L-8,15 L-4,7 Z " fill="#191919" transform="translate(18,8)"/>
<path d="M0,0 L2,1 L0,4 L-1,6 L-5,8 L-7,9 L-5,4 Z " fill="#D4D4D4" transform="translate(14,6)"/>
<path d="M0,0 L2,3 L6,4 L2,6 L-2,5 L-1,1 Z " fill="#F7F7F7" transform="translate(10,19)"/>
</svg>
