<?xml version="1.0" encoding="UTF-8"?>
<svg version="1.1" xmlns="http://www.w3.org/2000/svg" width="28" height="28">
<path d="M0,0 L28,0 L28,28 L0,28 Z " fill="#010101" transform="translate(0,0)"/>
<path d="M0,0 L2,0 L5,5 L7,7 L7,15 L2,19 L-4,20 L-7,19 L-7,12 Z " fill="#080808" transform="translate(15,3)"/>
<path d="M0,0 L2,0 L5,5 L7,7 L7,15 L2,19 L-4,20 L-7,19 L-7,12 Z M0,3 L-4,10 L-5,11 L-5,18 L1,18 L5,14 L5,7 Z " fill="#CFCFCF" transform="translate(15,3)"/>
<path d="M0,0 L2,0 L5,5 L7,7 L7,15 L5,15 L4,7 L1,4 L-2,7 L-3,5 Z " fill="#B9B9B9" transform="translate(15,3)"/>
</svg>
