<?xml version="1.0" encoding="UTF-8"?>
<svg version="1.1" xmlns="http://www.w3.org/2000/svg" width="28" height="28">
<path d="M0,0 L28,0 L28,28 L0,28 Z " fill="#030303" transform="translate(0,0)"/>
<path d="M0,0 L6,0 L7,1 L7,8 L5,12 L3,12 L2,15 L-7,16 L-12,13 L-13,12 L-13,7 L-9,3 Z " fill="#E6E6E6" transform="translate(17,6)"/>
<path d="M0,0 L5,0 L4,8 L1,11 L-7,11 L-9,9 L-8,4 L-3,3 L-3,1 Z " fill="#090909" transform="translate(16,8)"/>
<path d="M0,0 L6,0 L7,1 L7,8 L4,12 L3,6 L4,2 L0,1 Z " fill="#C9C9C9" transform="translate(17,6)"/>
</svg>
