<?xml version="1.0" encoding="UTF-8"?>
<svg version="1.1" xmlns="http://www.w3.org/2000/svg" width="28" height="28">
<path d="M0,0 L28,0 L28,28 L0,28 Z " fill="#020202" transform="translate(0,0)"/>
<path d="M0,0 L3,0 L4,4 L0,15 L-2,15 L-4,19 L-10,20 L-11,18 L-11,12 L-7,6 L-3,2 Z " fill="#EAEAEA" transform="translate(18,4)"/>
<path d="M0,0 L1,3 L-1,8 L7,4 L7,7 L5,7 L3,11 L-3,12 L-4,10 L-4,4 Z " fill="#F0F0F0" transform="translate(11,12)"/>
<path d="M0,0 L2,4 L-1,9 L-5,10 L-4,5 Z " fill="#272727" transform="translate(15,10)"/>
</svg>
