<?xml version="1.0" encoding="UTF-8"?>
<svg version="1.1" xmlns="http://www.w3.org/2000/svg" width="28" height="28">
<path d="M0,0 L28,0 L28,28 L0,28 Z " fill="#030303" transform="translate(0,0)"/>
<path d="M0,0 L5,0 L6,4 L2,12 L-7,19 L-12,20 L-13,19 L-12,11 L-8,5 L-3,1 Z " fill="#E6E6E6" transform="translate(19,5)"/>
<path d="M0,0 L4,0 L2,4 L0,7 L0,10 L4,9 L5,5 L9,4 L8,8 L4,12 L-1,15 L-5,14 L-4,6 Z " fill="#E9E9E9" transform="translate(11,10)"/>
<path d="M0,0 L2,0 L0,5 L-3,8 L-4,11 L-9,13 L-8,7 L-4,2 Z " fill="#0D0D0D" transform="translate(19,8)"/>
<path d="M0,0 L5,0 L0,4 L-1,5 L-6,5 L-3,1 Z " fill="#C6C6C6" transform="translate(19,5)"/>
</svg>
