<?xml version="1.0" encoding="UTF-8"?>
<svg version="1.1" xmlns="http://www.w3.org/2000/svg" width="28" height="28">
<path d="M0,0 L28,0 L28,28 L0,28 Z " fill="#040404" transform="translate(0,0)"/>
<path d="M0,0 L4,1 L4,6 L2,6 L1,11 L-3,16 L-10,20 L-15,19 L-14,13 L-13,9 L-10,6 L-8,6 L-8,4 Z " fill="#E4E4E4" transform="translate(20,4)"/>
<path d="M0,0 L4,1 L4,6 L2,6 L1,11 L-3,15 L-5,14 L-4,9 L-1,6 L0,4 L-5,6 L-3,1 Z " fill="#F0F0F0" transform="translate(20,4)"/>
<path d="M0,0 L3,0 L3,4 L-5,11 L-8,12 L-7,7 L-5,7 L-3,3 Z " fill="#1C1C1C" transform="translate(17,8)"/>
</svg>
