<?xml version="1.0" encoding="UTF-8"?>
<svg version="1.1" xmlns="http://www.w3.org/2000/svg" width="28" height="28">
<path d="M0,0 L28,0 L28,28 L0,28 Z " fill="#030303" transform="translate(0,0)"/>
<path d="M0,0 L7,1 L10,6 L10,11 L12,12 L7,18 L5,19 L-4,19 L-8,16 L-7,8 Z " fill="#0B0B0B" transform="translate(13,3)"/>
<path d="M0,0 L7,1 L10,6 L10,11 L12,12 L7,18 L5,19 L-4,19 L-8,16 L-7,8 Z M1,2 L-5,9 L-6,15 L-2,16 L4,15 L8,12 L7,5 L5,2 Z " fill="#D8D8D8" transform="translate(13,3)"/>
<path d="M0,0 L2,0 L2,2 L4,3 L-1,9 L-3,10 L-9,10 L-8,7 L-1,3 Z " fill="#F4F4F4" transform="translate(21,12)"/>
</svg>
