<?xml version="1.0" encoding="UTF-8"?>
<svg version="1.1" xmlns="http://www.w3.org/2000/svg" width="28" height="28">
<path d="M0,0 L28,0 L28,28 L0,28 Z " fill="#020202" transform="translate(0,0)"/>
<path d="M0,0 L7,0 L5,6 L2,10 L0,10 L-1,13 L-3,13 L-3,15 L-9,18 L-13,17 L-12,10 L-9,6 L-7,6 L-6,3 Z " fill="#D7D7D7" transform="translate(18,6)"/>
<path d="M0,0 L7,1 L6,5 L4,5 L4,7 L2,7 L2,9 L-1,11 L-5,11 L-7,14 L-6,7 L-3,3 L-1,3 Z " fill="#CFCFCF" transform="translate(12,9)"/>
<path d="M0,0 L3,0 L2,4 L0,4 L0,6 L-2,6 L-2,8 L-6,9 L-5,5 Z " fill="#171717" transform="translate(16,10)"/>
<path d="M0,0 L7,0 L5,4 L0,5 L-1,1 Z " fill="#F1F1F1" transform="translate(7,19)"/>
</svg>
