<?xml version="1.0" encoding="UTF-8"?>
<svg version="1.1" xmlns="http://www.w3.org/2000/svg" width="28" height="28">
<path d="M0,0 L28,0 L28,28 L0,28 Z " fill="#020202" transform="translate(0,0)"/>
<path d="M0,0 L5,0 L6,5 L1,11 L-8,16 L-13,16 L-12,10 L-9,7 L-7,7 L-7,5 L-5,5 L-5,3 Z " fill="#DCDCDC" transform="translate(18,7)"/>
<path d="M0,0 L3,0 L3,2 L1,2 L-1,6 L-4,9 L-9,10 L-7,6 Z " fill="#1E1E1E" transform="translate(18,10)"/>
<path d="M0,0 L7,0 L4,3 L-1,3 Z " fill="#F4F4F4" transform="translate(6,20)"/>
</svg>
