<?xml version="1.0" encoding="UTF-8"?>
<svg version="1.1" xmlns="http://www.w3.org/2000/svg" width="28" height="28">
<path d="M0,0 L28,0 L28,28 L0,28 Z " fill="#020202" transform="translate(0,0)"/>
<path d="M0,0 L7,1 L9,3 L8,10 L2,15 L-3,17 L-9,17 L-11,15 L-10,10 L-3,2 Z " fill="#E0E0E0" transform="translate(16,6)"/>
<path d="M0,0 L4,0 L3,6 L-3,10 L-9,10 L-7,5 L-2,4 L-2,1 Z " fill="#0C0C0C" transform="translate(18,10)"/>
<path d="M0,0 L3,1 L0,7 L-4,4 Z " fill="#C9C9C9" transform="translate(9,13)"/>
</svg>
