<?xml version="1.0" encoding="UTF-8"?>
<svg version="1.1" xmlns="http://www.w3.org/2000/svg" width="28" height="28">
<path d="M0,0 L28,0 L28,28 L0,28 Z " fill="#010101" transform="translate(0,0)"/>
<path d="M0,0 L1,2 L5,3 L6,11 L3,18 L0,20 L-5,19 L-7,18 L-8,10 L-2,1 Z " fill="#DCDCDC" transform="translate(16,4)"/>
<path d="M0,0 L4,0 L5,9 L0,14 L-4,13 L-4,5 L-2,1 Z " fill="#0B0B0B" transform="translate(15,8)"/>
<path d="M0,0 L1,0 L2,7 L6,6 L8,4 L11,5 L6,10 L1,9 L0,8 Z " fill="#C3C3C3" transform="translate(10,14)"/>
</svg>
