<?xml version="1.0" encoding="UTF-8"?>
<svg version="1.1" xmlns="http://www.w3.org/2000/svg" width="28" height="28">
<path d="M0,0 L28,0 L28,28 L0,28 Z " fill="#040404" transform="translate(0,0)"/>
<path d="M0,0 L8,0 L12,4 L13,7 L13,14 L6,19 L-2,19 L-7,14 L-6,7 L-2,1 Z " fill="#E8E8E8" transform="translate(11,5)"/>
<path d="M0,0 L6,0 L7,2 L7,8 L4,11 L-4,12 L-7,10 L-6,4 L-3,1 Z " fill="#060606" transform="translate(14,9)"/>
<path d="M0,0 L3,2 L3,8 L-2,12 L-4,12 L-4,10 L-6,9 L-1,6 Z " fill="#C9C9C9" transform="translate(21,11)"/>
</svg>
