<?xml version="1.0" encoding="UTF-8"?>
<svg version="1.1" xmlns="http://www.w3.org/2000/svg" width="28" height="28">
<path d="M0,0 L28,0 L28,28 L0,28 Z " fill="#020202" transform="translate(0,0)"/>
<path d="M0,0 L6,2 L7,3 L7,9 L1,18 L-2,20 L-13,20 L-13,14 L-5,4 Z " fill="#0B0B0B" transform="translate(17,5)"/>
<path d="M0,0 L6,2 L7,3 L7,9 L1,18 L-2,20 L-13,20 L-13,14 L-5,4 Z M2,4 L-3,6 L-10,14 L-11,18 L-7,19 L0,16 L4,11 L5,4 Z " fill="#DEDEDE" transform="translate(17,5)"/>
<path d="M0,0 L1,2 L-3,8 L-6,10 L-17,10 L-17,9 L-5,6 Z " fill="#B7B7B7" transform="translate(21,15)"/>
</svg>
