<?xml version="1.0" encoding="UTF-8"?>
<svg version="1.1" xmlns="http://www.w3.org/2000/svg" width="28" height="28">
<path d="M0,0 L28,0 L28,28 L0,28 Z " fill="#030303" transform="translate(0,0)"/>
<path d="M0,0 L7,1 L12,6 L13,13 L8,18 L6,20 L-3,20 L-7,17 L-7,9 L-3,2 Z " fill="#050505" transform="translate(12,4)"/>
<path d="M0,0 L7,1 L12,6 L13,13 L8,18 L6,20 L-3,20 L-7,17 L-7,9 L-3,2 Z M0,3 L0,6 L-4,7 L-5,15 L-3,17 L6,17 L10,13 L9,6 L6,3 Z " fill="#E3E3E3" transform="translate(12,4)"/>
<path d="M0,0 L3,0 L2,5 L-3,10 L-4,11 L-13,11 L-17,8 L-16,2 L-14,6 L-13,7 L-4,7 L-1,4 Z " fill="#CDCDCD" transform="translate(22,13)"/>
</svg>
