<?xml version="1.0" encoding="UTF-8"?>
<svg version="1.1" xmlns="http://www.w3.org/2000/svg" width="28" height="28">
<path d="M0,0 L28,0 L28,28 L0,28 Z " fill="#020202" transform="translate(0,0)"/>
<path d="M0,0 L7,1 L11,6 L11,16 L7,20 L0,19 L-6,13 L-6,6 L-1,1 Z " fill="#E7E7E7" transform="translate(11,5)"/>
<path d="M0,0 L5,0 L8,3 L8,13 L7,15 L2,14 L-3,10 L-3,3 Z " fill="#090909" transform="translate(11,8)"/>
<path d="M0,0 L3,0 L1,4 L-1,5 L-2,11 L-3,11 L-3,4 Z " fill="#BDBDBD" transform="translate(8,7)"/>
</svg>
