<?xml version="1.0" encoding="UTF-8"?>
<svg version="1.1" xmlns="http://www.w3.org/2000/svg" width="28" height="28">
<path d="M0,0 L28,0 L28,28 L0,28 Z " fill="#020202" transform="translate(0,0)"/>
<path d="M0,0 L7,1 L8,6 L5,15 L3,15 L3,17 L0,20 L-5,19 L-6,17 L-6,7 L-4,1 Z " fill="#E1E1E1" transform="translate(14,5)"/>
<path d="M0,0 L5,1 L4,7 L0,13 L-3,13 L-3,3 Z " fill="#0E0E0E" transform="translate(14,8)"/>
<path d="M0,0 L2,0 L0,7 L-2,7 L-2,2 Z " fill="#F9F9F9" transform="translate(11,7)"/>
</svg>
