<?xml version="1.0" encoding="UTF-8"?>
<svg version="1.1" xmlns="http://www.w3.org/2000/svg" width="28" height="28">
<path d="M0,0 L28,0 L28,28 L0,28 Z " fill="#010101" transform="translate(0,0)"/>
<path d="M0,0 L6,1 L9,5 L9,12 L5,19 L1,20 L-3,16 L-3,6 Z " fill="#E2E2E2" transform="translate(12,5)"/>
<path d="M0,0 L5,1 L6,2 L6,10 L3,15 L-2,14 L-1,10 L-2,6 Z " fill="#0E0E0E" transform="translate(13,7)"/>
<path d="M0,0 L6,1 L9,5 L9,12 L7,9 L5,3 L-1,4 Z " fill="#CBCBCB" transform="translate(12,5)"/>
</svg>
