<?xml version="1.0" encoding="UTF-8"?>
<svg version="1.1" xmlns="http://www.w3.org/2000/svg" width="28" height="28">
<path d="M0,0 L28,0 L28,28 L0,28 Z " fill="#030303" transform="translate(0,0)"/>
<path d="M0,0 L4,1 L7,4 L7,10 L3,15 L-7,20 L-12,20 L-13,14 L-2,1 Z " fill="#D8D8D8" transform="translate(17,4)"/>
<path d="M0,0 L0,3 L-2,6 L-4,6 L-6,11 L4,7 L9,5 L7,9 L-3,14 L-8,14 L-9,8 Z " fill="#E2E2E2" transform="translate(13,10)"/>
<path d="M0,0 L1,0 L1,6 L-3,10 L-11,13 L-13,13 L-11,8 L-9,8 L-8,5 L-5,5 L-5,2 L-3,2 L-2,5 Z " fill="#0D0D0D" transform="translate(20,8)"/>
</svg>
