<?xml version="1.0" encoding="UTF-8"?>
<svg version="1.1" xmlns="http://www.w3.org/2000/svg" width="28" height="28">
<path d="M0,0 L28,0 L28,28 L0,28 Z " fill="#010101" transform="translate(0,0)"/>
<path d="M0,0 L2,0 L2,2 L5,3 L6,10 L2,16 L-3,20 L-9,20 L-10,19 L-10,13 L-2,3 L0,3 Z " fill="#D9D9D9" transform="translate(17,4)"/>
<path d="M0,0 L4,1 L3,6 L-1,12 L-8,13 L-7,8 Z " fill="#0B0B0B" transform="translate(17,9)"/>
<path d="M0,0 L2,0 L1,7 L4,9 L-1,9 L-2,8 L-2,2 Z " fill="#EEEEEE" transform="translate(9,15)"/>
<path d="M0,0 L2,1 L0,5 L-5,9 L-9,7 L-3,6 L-1,2 Z " fill="#C8C8C8" transform="translate(19,15)"/>
</svg>
