<?xml version="1.0" encoding="UTF-8"?>
<svg version="1.1" xmlns="http://www.w3.org/2000/svg" width="28" height="28">
<path d="M0,0 L28,0 L28,28 L0,28 Z " fill="#030303" transform="translate(0,0)"/>
<path d="M0,0 L1,2 L6,3 L7,9 L3,13 L-4,16 L-10,16 L-13,13 L-11,8 L-3,1 Z " fill="#E9E9E9" transform="translate(17,6)"/>
<path d="M0,0 L5,1 L7,3 L6,7 L2,8 L-6,8 L-6,4 Z " fill="#080808" transform="translate(14,10)"/>
<path d="M0,0 L2,0 L3,5 L-3,8 L-4,5 L0,4 Z " fill="#CACACA" transform="translate(20,12)"/>
</svg>
