<?xml version="1.0" encoding="UTF-8"?>
<svg version="1.1" xmlns="http://www.w3.org/2000/svg" width="28" height="28">
<path d="M0,0 L28,0 L28,28 L0,28 Z " fill="#020202" transform="translate(0,0)"/>
<path d="M0,0 L3,0 L4,4 L4,11 L-1,17 L-7,20 L-12,20 L-13,16 L-10,11 L-2,1 Z " fill="#DFDFDF" transform="translate(18,4)"/>
<path d="M0,0 L3,1 L2,8 L-4,13 L-8,13 L-7,8 L-4,4 L-2,4 Z " fill="#101010" transform="translate(17,8)"/>
<path d="M0,0 L2,0 L2,4 L5,4 L5,6 L0,6 L-1,2 Z " fill="#EBEBEB" transform="translate(6,18)"/>
</svg>
