<?xml version="1.0" encoding="UTF-8"?>
<svg version="1.1" xmlns="http://www.w3.org/2000/svg" width="28" height="28">
<path d="M0,0 L28,0 L28,28 L0,28 Z " fill="#020202" transform="translate(0,0)"/>
<path d="M0,0 L14,0 L17,4 L16,12 L9,14 L2,14 L-2,11 L-3,4 Z " fill="#070707" transform="translate(7,7)"/>
<path d="M0,0 L14,0 L17,4 L16,12 L9,14 L2,14 L-2,11 L-3,4 Z M3,1 L0,2 L0,4 L-2,4 L0,10 L3,12 L9,12 L15,9 L13,3 L8,3 L8,1 Z " fill="#BCBCBC" transform="translate(7,7)"/>
<path d="M0,0 L2,2 L3,5 L6,7 L12,7 L18,6 L18,8 L12,10 L5,10 L1,7 Z " fill="#DBDBDB" transform="translate(4,11)"/>
</svg>
