<?xml version="1.0" encoding="UTF-8"?>
<svg version="1.1" xmlns="http://www.w3.org/2000/svg" width="28" height="28">
<path d="M0,0 L28,0 L28,28 L0,28 Z " fill="#010101" transform="translate(0,0)"/>
<path d="M0,0 L4,1 L4,12 L-1,17 L-8,20 L-14,20 L-13,13 L-11,13 L-9,9 L-2,1 Z " fill="#DCDCDC" transform="translate(19,4)"/>
<path d="M0,0 L2,1 L2,8 L-2,13 L-7,15 L-12,15 L-10,10 Z " fill="#0D0D0D" transform="translate(19,7)"/>
<path d="M0,0 L2,3 L1,7 L-4,12 L-8,13 L-9,11 L-3,8 L-1,5 Z " fill="#C1C1C1" transform="translate(21,10)"/>
</svg>
