<?xml version="1.0" encoding="UTF-8"?>
<svg version="1.1" xmlns="http://www.w3.org/2000/svg" width="28" height="28">
<path d="M0,0 L28,0 L28,28 L0,28 Z " fill="#020202" transform="translate(0,0)"/>
<path d="M0,0 L6,1 L7,6 L3,12 L-5,18 L-12,19 L-13,18 L-12,11 L-5,3 Z " fill="#DFDFDF" transform="translate(18,5)"/>
<path d="M0,0 L4,1 L5,4 L2,8 L0,8 L0,10 L-5,13 L-9,13 L-8,8 L-3,2 Z " fill="#0C0C0C" transform="translate(17,8)"/>
<path d="M0,0 L4,1 L2,1 L2,3 L-3,5 L-4,2 Z " fill="#BEBEBE" transform="translate(18,5)"/>
</svg>
