<?xml version="1.0" encoding="UTF-8"?>
<svg version="1.1" xmlns="http://www.w3.org/2000/svg" width="28" height="28">
<path d="M0,0 L28,0 L28,28 L0,28 Z " fill="#030303" transform="translate(0,0)"/>
<path d="M0,0 L4,2 L5,9 L2,15 L-4,19 L-10,20 L-11,15 L-3,2 Z " fill="#0D0D0D" transform="translate(18,4)"/>
<path d="M0,0 L1,3 L-6,12 L-8,17 L1,14 L-3,18 L-9,19 L-10,14 L-2,1 Z " fill="#D6D6D6" transform="translate(17,5)"/>
<path d="M0,0 L4,2 L5,9 L2,15 L0,15 L2,8 L1,2 Z " fill="#CCCCCC" transform="translate(18,4)"/>
</svg>
