<?xml version="1.0" encoding="UTF-8"?>
<svg version="1.1" xmlns="http://www.w3.org/2000/svg" width="28" height="28">
<path d="M0,0 L28,0 L28,28 L0,28 Z " fill="#020202" transform="translate(0,0)"/>
<path d="M0,0 L2,0 L2,2 L0,2 L2,6 L2,12 L-5,20 L-10,19 L-11,14 L-8,9 L-2,1 Z " fill="#D6D6D6" transform="translate(18,4)"/>
<path d="M0,0 L2,2 L2,9 L-3,14 L-6,14 L-6,8 Z " fill="#0C0C0C" transform="translate(16,8)"/>
<path d="M0,0 L2,0 L2,2 L0,2 L2,6 L2,11 L0,8 L-2,5 L-7,12 L-8,9 L-2,1 Z " fill="#E4E4E4" transform="translate(18,4)"/>
<path d="M0,0 L1,0 L1,7 L-2,8 L-1,1 Z " fill="#BBBBBB" transform="translate(9,14)"/>
</svg>
