<?xml version="1.0" encoding="UTF-8"?>
<svg version="1.1" xmlns="http://www.w3.org/2000/svg" width="28" height="28">
<path d="M0,0 L28,0 L28,28 L0,28 Z " fill="#030303" transform="translate(0,0)"/>
<path d="M0,0 L5,1 L9,4 L9,12 L4,19 L-3,20 L-6,17 L-8,14 L-8,7 L-3,2 Z " fill="#111111" transform="translate(14,5)"/>
<path d="M0,0 L5,1 L9,4 L9,12 L4,19 L-3,20 L-6,17 L-8,14 L-8,7 L-3,2 Z M0,2 L-2,3 L-2,5 L-5,6 L-6,13 L-3,18 L3,17 L7,12 L8,8 L7,4 L5,4 L5,7 L3,7 L2,4 L1,7 L1,2 Z " fill="#E1E1E1" transform="translate(14,5)"/>
</svg>
