<?xml version="1.0" encoding="UTF-8"?>
<svg version="1.1" xmlns="http://www.w3.org/2000/svg" width="28" height="28">
<path d="M0,0 L28,0 L28,28 L0,28 Z " fill="#020202" transform="translate(0,0)"/>
<path d="M0,0 L3,0 L6,11 L4,17 L2,17 L2,19 L0,20 L-6,20 L-8,19 L-8,12 L-4,5 Z " fill="#E7E7E7" transform="translate(16,4)"/>
<path d="M0,0 L2,1 L2,9 L-1,11 L-7,11 L-6,6 L-2,4 Z " fill="#0C0C0C" transform="translate(17,10)"/>
<path d="M0,0 L2,0 L2,3 L0,4 L-6,4 L-7,2 Z " fill="#D1D1D1" transform="translate(16,20)"/>
</svg>
