<?xml version="1.0" encoding="UTF-8"?>
<svg version="1.1" xmlns="http://www.w3.org/2000/svg" width="28" height="28">
<path d="M0,0 L28,0 L28,28 L0,28 Z " fill="#020202" transform="translate(0,0)"/>
<path d="M0,0 L3,0 L4,2 L4,16 L0,20 L-5,19 L-7,17 L-7,11 L-2,2 Z " fill="#DDDDDD" transform="translate(15,4)"/>
<path d="M0,0 L3,1 L3,9 L0,16 L-4,16 L-4,8 Z " fill="#111111" transform="translate(15,6)"/>
<path d="M0,0 L3,0 L4,3 L0,2 L-2,7 L-4,16 L-7,17 L-7,11 L-2,2 Z " fill="#BEBEBE" transform="translate(15,4)"/>
</svg>
