<?xml version="1.0" encoding="UTF-8"?>
<svg version="1.1" xmlns="http://www.w3.org/2000/svg" width="28" height="28">
<path d="M0,0 L28,0 L28,28 L0,28 Z " fill="#060606" transform="translate(0,0)"/>
<path d="M0,0 L5,2 L8,5 L8,15 L6,19 L3,20 L-5,20 L-9,18 L-11,14 L-11,6 L-5,1 Z " fill="#EEEEEE" transform="translate(16,4)"/>
<path d="M0,0 L2,0 L2,7 L-3,10 L-8,9 L-7,5 Z " fill="#101010" transform="translate(18,11)"/>
<path d="M0,0 L5,1 L3,3 L-6,6 L-2,1 Z " fill="#282828" transform="translate(15,7)"/>
</svg>
