<?xml version="1.0" encoding="UTF-8"?>
<svg version="1.1" xmlns="http://www.w3.org/2000/svg" width="28" height="28">
<path d="M0,0 L28,0 L28,28 L0,28 Z " fill="#050505" transform="translate(0,0)"/>
<path d="M0,0 L2,0 L2,4 L6,2 L13,3 L15,5 L15,11 L10,16 L4,20 L-1,20 L-3,18 L-4,12 L-2,3 Z " fill="#EEEEEE" transform="translate(10,4)"/>
<path d="M0,0 L5,1 L7,4 L3,10 L-2,13 L-6,13 L-7,7 L-3,1 Z " fill="#0B0B0B" transform="translate(16,8)"/>
<path d="M0,0 L7,1 L9,3 L9,9 L6,8 L5,4 L0,3 L-4,4 L-4,2 Z " fill="#D4D4D4" transform="translate(16,6)"/>
</svg>
