<?xml version="1.0" encoding="UTF-8"?>
<svg version="1.1" xmlns="http://www.w3.org/2000/svg" width="28" height="28">
<path d="M0,0 L28,0 L28,28 L0,28 Z " fill="#040404" transform="translate(0,0)"/>
<path d="M0,0 L7,1 L12,6 L13,7 L13,16 L6,20 L-3,18 L-6,13 L-4,3 Z " fill="#E3E3E3" transform="translate(11,4)"/>
<path d="M0,0 L5,0 L9,4 L9,10 L5,14 L-1,13 L-3,11 L-3,5 Z " fill="#060606" transform="translate(12,7)"/>
<path d="M0,0 L5,2 L8,6 L6,12 L5,12 L3,5 L1,3 L-4,2 Z " fill="#CCCCCC" transform="translate(16,5)"/>
</svg>
