<?xml version="1.0" encoding="UTF-8"?>
<svg version="1.1" xmlns="http://www.w3.org/2000/svg" width="28" height="28">
<path d="M0,0 L28,0 L28,28 L0,28 Z " fill="#020202" transform="translate(0,0)"/>
<path d="M0,0 L5,1 L8,5 L8,12 L5,18 L2,20 L-3,19 L-6,16 L-6,7 L-3,2 Z " fill="#090909" transform="translate(14,5)"/>
<path d="M0,0 L5,1 L8,5 L8,12 L5,18 L2,20 L-3,19 L-6,16 L-6,7 L-3,2 Z M1,2 L-1,3 L-1,5 L-4,8 L-5,13 L-2,18 L4,17 L6,8 L4,3 Z " fill="#DEDEDE" transform="translate(14,5)"/>
<path d="M0,0 L5,1 L8,5 L8,12 L6,15 L5,8 L3,3 L0,2 Z " fill="#C5C5C5" transform="translate(14,5)"/>
</svg>
