<?xml version="1.0" encoding="UTF-8"?>
<svg version="1.1" xmlns="http://www.w3.org/2000/svg" width="28" height="28">
<path d="M0,0 L28,0 L28,28 L0,28 Z " fill="#030303" transform="translate(0,0)"/>
<path d="M0,0 L4,4 L4,13 L1,18 L-2,20 L-7,20 L-8,19 L-8,11 L-2,3 Z " fill="#E7E7E7" transform="translate(17,3)"/>
<path d="M0,0 L1,0 L1,7 L-1,11 L-4,13 L-7,13 L-6,7 Z " fill="#040404" transform="translate(18,7)"/>
<path d="M0,0 L4,4 L3,10 L2,10 L1,5 L-4,8 L-4,5 Z M-6,8 Z " fill="#C9C9C9" transform="translate(17,3)"/>
</svg>
