<?xml version="1.0" encoding="UTF-8"?>
<svg version="1.1" xmlns="http://www.w3.org/2000/svg" width="28" height="28">
<path d="M0,0 L28,0 L28,28 L0,28 Z " fill="#020202" transform="translate(0,0)"/>
<path d="M0,0 L8,0 L14,4 L16,7 L16,13 L12,16 L3,16 L-4,10 L-4,4 Z " fill="#111111" transform="translate(9,6)"/>
<path d="M0,0 L8,0 L14,4 L16,7 L16,13 L12,16 L3,16 L-4,10 L-4,4 Z M4,2 L-1,4 L-2,9 L3,13 L5,14 L11,14 L13,13 L13,6 L10,3 Z " fill="#D3D3D3" transform="translate(9,6)"/>
<path d="M0,0 L2,1 L-1,5 L0,10 L5,13 L11,14 L11,15 L2,15 L-4,10 L-4,4 Z M11,13 Z " fill="#EDEDED" transform="translate(9,6)"/>
</svg>
