<?xml version="1.0" encoding="UTF-8"?>
<svg version="1.1" xmlns="http://www.w3.org/2000/svg" width="28" height="28">
<path d="M0,0 L28,0 L28,28 L0,28 Z " fill="#030303" transform="translate(0,0)"/>
<path d="M0,0 L6,1 L9,4 L9,10 L5,12 L5,14 L-4,18 L-10,18 L-11,17 L-11,12 Z " fill="#DBDBDB" transform="translate(15,5)"/>
<path d="M0,0 L4,2 L5,7 L3,7 L3,9 L-2,12 L-8,12 L-7,7 Z " fill="#0A0A0A" transform="translate(16,8)"/>
<path d="M0,0 L1,2 L-1,7 L2,8 L-2,8 L-3,5 L-5,9 L-5,4 Z " fill="#BEBEBE" transform="translate(9,13)"/>
<path d="M0,0 L1,4 L6,4 L5,6 L-1,6 L-1,1 Z " fill="#F9F9F9" transform="translate(6,17)"/>
</svg>
