<?xml version="1.0" encoding="UTF-8"?>
<svg version="1.1" xmlns="http://www.w3.org/2000/svg" width="28" height="28">
<path d="M0,0 L28,0 L28,28 L0,28 Z " fill="#020202" transform="translate(0,0)"/>
<path d="M0,0 L2,0 L1,7 L-2,14 L-10,20 L-14,20 L-14,14 L-9,7 L-6,4 L-3,1 Z " fill="#E6E6E6" transform="translate(20,4)"/>
<path d="M0,0 L2,0 L1,6 L-8,13 L-12,13 L-11,8 L-9,9 L-5,7 L-1,3 Z " fill="#EAEAEA" transform="translate(18,11)"/>
<path d="M0,0 L1,3 L-1,7 L-7,12 L-9,12 L-8,8 L-3,3 Z " fill="#2A2A2A" transform="translate(18,8)"/>
<path d="M0,0 L3,1 L1,2 L0,7 L-3,6 L-1,1 Z " fill="#C9C9C9" transform="translate(9,14)"/>
</svg>
