<?xml version="1.0" encoding="UTF-8"?>
<svg version="1.1" xmlns="http://www.w3.org/2000/svg" width="28" height="28">
<path d="M0,0 L28,0 L28,28 L0,28 Z " fill="#010101" transform="translate(0,0)"/>
<path d="M0,0 L6,1 L8,3 L8,10 L2,18 L-3,20 L-8,20 L-10,18 L-9,12 L-1,1 Z " fill="#E2E2E2" transform="translate(15,4)"/>
<path d="M0,0 L6,0 L5,7 L0,12 L-1,13 L-7,13 L-6,8 L-4,4 Z " fill="#0C0C0C" transform="translate(15,8)"/>
<path d="M0,0 L3,1 L0,8 L3,9 L4,11 L-1,11 L-3,9 L-2,3 Z " fill="#CBCBCB" transform="translate(8,13)"/>
</svg>
