<?xml version="1.0" encoding="UTF-8"?>
<svg version="1.1" xmlns="http://www.w3.org/2000/svg" width="28" height="28">
<path d="M0,0 L28,0 L28,28 L0,28 Z " fill="#030303" transform="translate(0,0)"/>
<path d="M0,0 L8,0 L12,2 L12,9 L7,17 L4,19 L-5,19 L-7,18 L-8,14 L-6,8 L-4,8 L-3,2 Z " fill="#EDEDED" transform="translate(12,5)"/>
<path d="M0,0 L9,0 L9,6 L4,12 L-2,13 L-3,9 Z " fill="#101010" transform="translate(11,8)"/>
<path d="M0,0 L4,1 L3,3 L-3,5 L-3,2 Z " fill="#D3D3D3" transform="translate(12,5)"/>
</svg>
