<?xml version="1.0" encoding="UTF-8"?>
<svg version="1.1" xmlns="http://www.w3.org/2000/svg" width="28" height="28">
<path d="M0,0 L28,0 L28,28 L0,28 Z " fill="#030303" transform="translate(0,0)"/>
<path d="M0,0 L5,1 L7,5 L7,12 L3,18 L1,20 L-3,19 L-4,17 L-4,7 Z " fill="#E3E3E3" transform="translate(13,5)"/>
<path d="M0,0 L2,0 L3,7 L-1,15 L-4,15 L-4,6 Z " fill="#090909" transform="translate(15,7)"/>
<path d="M0,0 L1,0 L1,7 L-3,11 L-7,10 L-8,7 L-7,1 L-6,1 L-6,8 L-3,7 Z " fill="#DFDFDF" transform="translate(17,14)"/>
<path d="M0,0 L1,0 L1,7 L4,8 L4,10 L0,9 L-1,6 Z " fill="#AFAFAF" transform="translate(10,15)"/>
</svg>
