<?xml version="1.0" encoding="UTF-8"?>
<svg version="1.1" xmlns="http://www.w3.org/2000/svg" width="28" height="28">
<path d="M0,0 L28,0 L28,28 L0,28 Z " fill="#040404" transform="translate(0,0)"/>
<path d="M0,0 L3,1 L5,7 L4,14 L1,17 L-5,20 L-12,20 L-13,19 L-13,14 L-9,9 L-3,1 L-1,1 L-3,6 L-9,15 L-10,17 L-1,15 L2,11 L1,4 Z " fill="#D8D8D8" transform="translate(18,3)"/>
<path d="M0,0 L2,0 L0,6 L-2,6 L-4,10 L-4,5 Z " fill="#C3C3C3" transform="translate(9,12)"/>
<path d="M0,0 L1,4 L4,4 L4,6 L-1,6 L-1,1 Z " fill="#FCFCFC" transform="translate(7,17)"/>
</svg>
