<?xml version="1.0" encoding="UTF-8"?>
<svg version="1.1" xmlns="http://www.w3.org/2000/svg" width="28" height="28">
<path d="M0,0 L28,0 L28,28 L0,28 Z " fill="#030303" transform="translate(0,0)"/>
<path d="M0,0 L5,1 L6,3 L6,14 L3,17 L-5,20 L-10,19 L-10,13 L-5,6 L-3,6 L-2,1 Z " fill="#DBDBDB" transform="translate(16,3)"/>
<path d="M0,0 L3,1 L3,9 L-2,14 L-8,15 L-7,10 Z " fill="#101010" transform="translate(17,5)"/>
<path d="M0,0 L1,4 L9,2 L8,5 L3,7 L-2,6 L-1,1 Z " fill="#F3F3F3" transform="translate(8,16)"/>
</svg>
