<?xml version="1.0" encoding="UTF-8"?>
<svg version="1.1" xmlns="http://www.w3.org/2000/svg" width="28" height="28">
<path d="M0,0 L28,0 L28,28 L0,28 Z " fill="#010101" transform="translate(0,0)"/>
<path d="M0,0 L2,0 L4,5 L5,6 L5,12 L2,13 L2,15 L-7,18 L-14,17 L-15,13 L-10,8 Z " fill="#DBDBDB" transform="translate(19,5)"/>
<path d="M0,0 L6,0 L7,4 L3,8 L-1,9 L-8,9 L-6,5 Z " fill="#060606" transform="translate(15,11)"/>
<path d="M0,0 L2,4 L-1,5 L-1,7 L-10,10 L-17,9 L-18,5 L-15,5 L-15,7 L-4,5 L-1,2 Z " fill="#C0C0C0" transform="translate(22,13)"/>
</svg>
