<?xml version="1.0" encoding="UTF-8"?>
<svg version="1.1" xmlns="http://www.w3.org/2000/svg" width="28" height="28">
<path d="M0,0 L28,0 L28,28 L0,28 Z " fill="#010101" transform="translate(0,0)"/>
<path d="M0,0 L5,0 L8,3 L8,11 L4,17 L-1,20 L-5,19 L-6,18 L-6,8 Z " fill="#D9D9D9" transform="translate(14,5)"/>
<path d="M0,0 L2,0 L2,9 L-2,13 L-7,13 L-7,7 L-4,2 Z " fill="#0A0A0A" transform="translate(17,8)"/>
<path d="M0,0 L1,0 L1,8 L-4,13 L-7,14 L-7,11 L-2,7 Z " fill="#EEEEEE" transform="translate(20,10)"/>
<path d="M0,0 L1,4 L4,4 L4,8 L0,7 L-1,4 Z " fill="#C1C1C1" transform="translate(9,17)"/>
</svg>
