<?xml version="1.0" encoding="UTF-8"?>
<svg version="1.1" xmlns="http://www.w3.org/2000/svg" width="28" height="28">
<path d="M0,0 L28,0 L28,28 L0,28 Z " fill="#050505" transform="translate(0,0)"/>
<path d="M0,0 L4,0 L4,2 L7,0 L12,0 L16,5 L16,14 L12,18 L6,20 L1,19 L-2,11 L-2,3 Z " fill="#EEEEEE" transform="translate(8,5)"/>
<path d="M0,0 L3,1 L5,4 L5,10 L1,13 L-4,13 L-7,6 L-6,1 L-5,4 L-3,4 L-2,1 Z " fill="#0D0D0D" transform="translate(16,8)"/>
<path d="M0,0 L1,2 L4,0 L9,0 L5,4 L2,7 L0,7 L-1,2 Z " fill="#CDCDCD" transform="translate(11,5)"/>
</svg>
