<?xml version="1.0" encoding="UTF-8"?>
<svg version="1.1" xmlns="http://www.w3.org/2000/svg" width="28" height="28">
<path d="M0,0 L28,0 L28,28 L0,28 Z " fill="#020202" transform="translate(0,0)"/>
<path d="M0,0 L5,0 L7,2 L6,7 L4,13 L2,13 L1,16 L-7,20 L-12,19 L-11,12 L-4,3 L-3,1 Z " fill="#D9D9D9" transform="translate(17,5)"/>
<path d="M0,0 L3,0 L2,6 L-1,11 L-6,14 L-10,14 L-9,9 L-5,4 Z " fill="#0B0B0B" transform="translate(18,8)"/>
<path d="M0,0 L4,0 L3,5 L1,11 L-1,11 L-2,14 L-5,12 L-3,12 L-1,7 Z " fill="#D3D3D3" transform="translate(20,7)"/>
<path d="M0,0 L5,0 L5,3 L0,5 L-3,6 L-1,2 Z " fill="#F0F0F0" transform="translate(17,5)"/>
<path d="M0,0 L4,0 L3,5 L1,8 L0,1 Z " fill="#B9B9B9" transform="translate(20,7)"/>
</svg>
