<?xml version="1.0" encoding="UTF-8"?>
<svg version="1.1" xmlns="http://www.w3.org/2000/svg" width="28" height="28">
<path d="M0,0 L28,0 L28,28 L0,28 Z " fill="#010101" transform="translate(0,0)"/>
<path d="M0,0 L5,1 L8,7 L7,12 L4,17 L0,20 L-5,20 L-8,17 L-7,8 L-4,3 Z " fill="#E3E3E3" transform="translate(15,4)"/>
<path d="M0,0 L4,2 L5,7 L2,12 L0,14 L-5,13 L-5,6 Z " fill="#0A0A0A" transform="translate(15,7)"/>
<path d="M0,0 L2,3 L0,7 L-3,9 L-3,5 Z " fill="#CBCBCB" transform="translate(19,14)"/>
<path d="M0,0 L1,3 L0,7 L-3,8 L-2,2 Z " fill="#F9F9F9" transform="translate(10,10)"/>
</svg>
