<?xml version="1.0" encoding="UTF-8"?>
<svg version="1.1" xmlns="http://www.w3.org/2000/svg" width="28" height="28">
<path d="M0,0 L28,0 L28,28 L0,28 Z " fill="#030303" transform="translate(0,0)"/>
<path d="M0,0 L7,0 L13,4 L15,9 L14,15 L9,19 L-1,19 L-5,15 L-5,5 Z " fill="#0B0B0B" transform="translate(10,5)"/>
<path d="M0,0 L7,0 L13,4 L15,9 L14,15 L9,19 L-1,19 L-5,15 L-5,5 Z M4,3 L4,5 L0,6 L-2,8 L-2,15 L0,17 L7,17 L12,14 L13,9 L10,4 Z " fill="#EAEAEA" transform="translate(10,5)"/>
<path d="M0,0 L7,0 L9,2 L9,4 L4,3 L4,5 L-1,8 L-2,13 L-5,11 L-5,5 Z " fill="#D5D5D5" transform="translate(10,5)"/>
<path d="M0,0 L4,2 L0,6 L-2,6 L-1,1 Z " fill="#B7B7B7" transform="translate(7,7)"/>
</svg>
