<?xml version="1.0" encoding="UTF-8"?>
<svg version="1.1" xmlns="http://www.w3.org/2000/svg" width="28" height="28">
<path d="M0,0 L28,0 L28,28 L0,28 Z " fill="#020202" transform="translate(0,0)"/>
<path d="M0,0 L5,1 L10,4 L13,10 L12,15 L9,18 L4,20 L-5,18 L-7,15 L-7,8 L-3,2 Z " fill="#090909" transform="translate(12,4)"/>
<path d="M0,0 L5,1 L10,4 L13,10 L12,15 L9,18 L4,20 L-5,18 L-7,15 L-7,8 L-3,2 Z M0,3 L-4,7 L-5,13 L-2,16 L5,17 L9,15 L10,8 L5,3 Z " fill="#DFDFDF" transform="translate(12,4)"/>
<path d="M0,0 L2,0 L1,6 L-1,9 L-1,2 Z " fill="#C2C2C2" transform="translate(6,10)"/>
</svg>
