<?xml version="1.0" encoding="UTF-8"?>
<svg version="1.1" xmlns="http://www.w3.org/2000/svg" width="28" height="28">
<path d="M0,0 L28,0 L28,28 L0,28 Z " fill="#030303" transform="translate(0,0)"/>
<path d="M0,0 L5,0 L10,5 L11,6 L11,12 L8,18 L5,20 L-2,20 L-4,18 L-4,7 L-1,1 Z " fill="#CFCFCF" transform="translate(12,5)"/>
<path d="M0,0 L5,2 L5,11 L0,14 L-4,13 L-5,12 L-5,3 Z " fill="#090909" transform="translate(15,9)"/>
<path d="M0,0 L1,2 L1,11 L7,13 L7,15 L0,15 L-2,13 L-2,2 Z " fill="#EEEEEE" transform="translate(10,10)"/>
</svg>
