<?xml version="1.0" encoding="UTF-8"?>
<svg version="1.1" xmlns="http://www.w3.org/2000/svg" width="28" height="28">
<path d="M0,0 L28,0 L28,28 L0,28 Z " fill="#030303" transform="translate(0,0)"/>
<path d="M0,0 L4,1 L8,0 L14,4 L17,9 L16,14 L11,18 L4,18 L-2,13 L-3,3 Z " fill="#101010" transform="translate(8,6)"/>
<path d="M0,0 L3,0 L1,4 L1,11 L5,15 L12,14 L13,13 L13,8 L11,7 L11,5 L7,5 L3,5 L3,3 L5,3 L5,0 L10,1 L15,6 L17,9 L16,14 L11,18 L4,18 L-2,13 L-3,3 Z " fill="#E8E8E8" transform="translate(8,6)"/>
<path d="M0,0 L1,4 L-4,8 L-7,6 L-3,4 L-1,1 Z " fill="#CBCBCB" transform="translate(24,15)"/>
</svg>
