<?xml version="1.0" encoding="UTF-8"?>
<svg version="1.1" xmlns="http://www.w3.org/2000/svg" width="28" height="28">
<path d="M0,0 L28,0 L28,28 L0,28 Z " fill="#020202" transform="translate(0,0)"/>
<path d="M0,0 L5,1 L10,6 L10,15 L5,19 L-1,20 L-5,16 L-5,7 L-1,1 Z " fill="#E7E7E7" transform="translate(12,5)"/>
<path d="M0,0 L4,1 L6,5 L6,11 L2,14 L-3,14 L-4,12 L-4,3 Z " fill="#0D0D0D" transform="translate(14,8)"/>
<path d="M0,0 L1,2 L3,2 L4,10 L8,11 L3,12 L0,9 Z " fill="#CCCCCC" transform="translate(7,12)"/>
</svg>
