<?xml version="1.0" encoding="UTF-8"?>
<svg version="1.1" xmlns="http://www.w3.org/2000/svg" width="28" height="28">
<path d="M0,0 L28,0 L28,28 L0,28 Z " fill="#020202" transform="translate(0,0)"/>
<path d="M0,0 L3,0 L3,8 L1,16 L-5,20 L-10,20 L-11,19 L-11,12 L-8,7 Z " fill="#E4E4E4" transform="translate(18,4)"/>
<path d="M0,0 L1,0 L1,7 L-1,11 L-6,12 L-6,7 L-4,7 L-3,3 Z " fill="#161616" transform="translate(16,9)"/>
<path d="M0,0 L3,0 L3,8 L2,8 L1,2 L-5,9 L-7,12 L-8,10 L-10,12 L-9,8 L-4,4 Z " fill="#D1D1D1" transform="translate(18,4)"/>
<path d="M0,0 L1,0 L1,8 L-1,10 L-3,3 Z " fill="#FAFAFA" transform="translate(19,5)"/>
</svg>
