<?xml version="1.0" encoding="UTF-8"?>
<svg version="1.1" xmlns="http://www.w3.org/2000/svg" width="28" height="28">
<path d="M0,0 L28,0 L28,28 L0,28 Z " fill="#040404" transform="translate(0,0)"/>
<path d="M0,0 L8,0 L11,4 L9,11 L4,16 L0,18 L-7,18 L-8,17 L-8,11 L-6,6 L-4,6 L-4,4 Z " fill="#D6D6D6" transform="translate(13,5)"/>
<path d="M0,0 L4,0 L4,7 L-1,12 L-5,14 L-8,14 L-7,7 L-2,1 Z " fill="#080808" transform="translate(16,7)"/>
<path d="M0,0 L5,1 L0,5 L-4,11 L-5,16 L-6,16 L-7,9 L-6,6 L-4,6 L-4,4 Z M-8,11 Z " fill="#CCCCCC" transform="translate(13,5)"/>
<path d="M0,0 L1,0 L1,5 L8,4 L9,6 L7,7 L0,7 L-1,6 L-1,1 Z " fill="#F7F7F7" transform="translate(6,16)"/>
<path d="M0,0 L5,0 L8,4 L7,8 L5,8 L4,2 Z " fill="#F0F0F0" transform="translate(16,5)"/>
</svg>
