<?xml version="1.0" encoding="UTF-8"?>
<svg version="1.1" xmlns="http://www.w3.org/2000/svg" width="28" height="28">
<path d="M0,0 L28,0 L28,28 L0,28 Z " fill="#020202" transform="translate(0,0)"/>
<path d="M0,0 L5,1 L4,11 L2,16 L0,16 L0,18 L-3,20 L-9,20 L-11,16 L-10,11 L-4,3 Z " fill="#DEDEDE" transform="translate(17,4)"/>
<path d="M0,0 L5,1 L4,11 L1,11 L2,4 L-5,10 L-7,12 L-10,13 L-8,8 L-3,2 Z " fill="#EDEDED" transform="translate(17,4)"/>
<path d="M0,0 L2,0 L2,5 L-3,12 L-7,13 L-6,6 Z " fill="#0D0D0D" transform="translate(17,8)"/>
</svg>
