<?xml version="1.0" encoding="UTF-8"?>
<svg version="1.1" xmlns="http://www.w3.org/2000/svg" width="28" height="28">
<path d="M0,0 L28,0 L28,28 L0,28 Z " fill="#010101" transform="translate(0,0)"/>
<path d="M0,0 L8,0 L12,4 L14,14 L10,18 L6,20 L0,20 L-2,17 L-1,1 Z " fill="#1E1E1E" transform="translate(10,4)"/>
<path d="M0,0 L8,0 L12,4 L11,8 L7,3 L1,2 L2,4 L1,18 L8,18 L6,20 L0,20 L-2,17 L-1,1 Z " fill="#CBCBCB" transform="translate(10,4)"/>
<path d="M0,0 L1,0 L2,6 L9,7 L7,9 L1,9 L-1,6 L-1,1 Z " fill="#E8E8E8" transform="translate(9,15)"/>
</svg>
