<?xml version="1.0" encoding="UTF-8"?>
<svg version="1.1" xmlns="http://www.w3.org/2000/svg" width="28" height="28">
<path d="M0,0 L28,0 L28,28 L0,28 Z " fill="#040404" transform="translate(0,0)"/>
<path d="M0,0 L5,1 L9,6 L9,15 L4,19 L-2,20 L-7,16 L-7,3 L-6,1 Z " fill="#090909" transform="translate(14,4)"/>
<path d="M0,0 L5,1 L9,6 L9,15 L4,19 L-2,20 L-7,16 L-7,3 L-6,1 Z M-1,3 L-6,7 L-6,14 L-4,17 L5,16 L8,12 L7,6 L4,3 Z " fill="#E2E2E2" transform="translate(14,4)"/>
<path d="M0,0 L5,1 L9,7 L7,8 L4,4 L-6,3 L-6,1 Z " fill="#BEBEBE" transform="translate(14,4)"/>
</svg>
