<?xml version="1.0" encoding="UTF-8"?>
<svg version="1.1" xmlns="http://www.w3.org/2000/svg" width="28" height="28">
<path d="M0,0 L28,0 L28,28 L0,28 Z " fill="#030303" transform="translate(0,0)"/>
<path d="M0,0 L6,0 L9,2 L7,11 L-2,17 L-10,18 L-11,13 L-5,4 L-3,4 L-3,2 Z " fill="#E7E7E7" transform="translate(15,6)"/>
<path d="M0,0 L6,0 L9,2 L8,8 L6,7 L6,3 L-1,6 L-5,11 L-7,13 L-10,13 L-8,8 L-5,4 L-3,4 L-3,2 Z " fill="#EDEDED" transform="translate(15,6)"/>
<path d="M0,0 L5,0 L4,6 L2,6 L2,8 L-3,10 L-7,9 L-3,3 Z " fill="#111111" transform="translate(15,10)"/>
<path d="M0,0 L3,0 L4,8 L-1,10 L-1,7 L1,7 L2,1 Z " fill="#CDCDCD" transform="translate(18,9)"/>
</svg>
