<?xml version="1.0" encoding="UTF-8"?>
<svg version="1.1" xmlns="http://www.w3.org/2000/svg" width="28" height="28">
<path d="M0,0 L28,0 L28,28 L0,28 Z " fill="#020202" transform="translate(0,0)"/>
<path d="M0,0 L6,0 L10,3 L11,12 L7,17 L2,20 L-4,18 L-5,14 L-5,7 L-2,1 Z " fill="#0D0D0D" transform="translate(12,5)"/>
<path d="M0,0 L6,0 L10,3 L11,12 L7,17 L2,20 L-4,18 L-5,14 L-5,7 L-2,1 Z M1,2 L-2,5 L-3,11 L-1,17 L2,18 L9,12 L9,5 L6,2 Z " fill="#CECECE" transform="translate(12,5)"/>
<path d="M0,0 L1,4 L-4,9 L-9,11 L-11,9 L-4,6 L-1,3 Z " fill="#E9E9E9" transform="translate(21,14)"/>
</svg>
