<?xml version="1.0" encoding="UTF-8"?>
<svg version="1.1" xmlns="http://www.w3.org/2000/svg" width="28" height="28">
<path d="M0,0 L28,0 L28,28 L0,28 Z " fill="#040404" transform="translate(0,0)"/>
<path d="M0,0 L4,1 L7,6 L7,14 L4,19 L-1,20 L-3,18 L-3,7 Z " fill="#EEEEEE" transform="translate(13,4)"/>
<path d="M0,0 L2,2 L3,9 L0,14 L-4,14 L-4,4 L-3,1 Z " fill="#0C0C0C" transform="translate(16,7)"/>
<path d="M0,0 L4,1 L7,7 L5,8 L3,4 L0,4 L-1,7 L-2,3 Z " fill="#D5D5D5" transform="translate(13,4)"/>
</svg>
