<?xml version="1.0" encoding="UTF-8"?>
<svg version="1.1" xmlns="http://www.w3.org/2000/svg" width="28" height="28">
<path d="M0,0 L28,0 L28,28 L0,28 Z " fill="#020202" transform="translate(0,0)"/>
<path d="M0,0 L3,0 L2,3 L6,6 L6,12 L2,18 L-1,20 L-7,20 L-9,17 L-9,9 L-5,4 L-3,4 L-2,1 Z " fill="#E1E1E1" transform="translate(16,4)"/>
<path d="M0,0 L5,1 L6,2 L5,9 L0,13 L-4,13 L-4,5 Z " fill="#0C0C0C" transform="translate(14,9)"/>
<path d="M0,0 L1,4 L-4,9 L-5,9 L-6,16 L-7,16 L-7,8 L-3,3 L-1,3 Z " fill="#C6C6C6" transform="translate(14,5)"/>
</svg>
