<?xml version="1.0" encoding="UTF-8"?>
<svg version="1.1" xmlns="http://www.w3.org/2000/svg" width="28" height="28">
<path d="M0,0 L28,0 L28,28 L0,28 Z " fill="#030303" transform="translate(0,0)"/>
<path d="M0,0 L9,1 L12,4 L13,11 L9,16 L5,18 L-2,18 L-7,13 L-6,7 L-3,2 Z " fill="#EDEDED" transform="translate(11,6)"/>
<path d="M0,0 L8,0 L10,4 L9,9 L5,11 L-1,11 L-4,9 L-3,4 Z " fill="#070707" transform="translate(11,10)"/>
<path d="M0,0 L2,1 L1,2 L5,4 L-1,6 L-3,9 L-3,13 L4,15 L5,18 L-2,18 L-7,13 L-6,7 L-3,2 Z " fill="#D1D1D1" transform="translate(11,6)"/>
</svg>
