<?xml version="1.0" encoding="UTF-8"?>
<svg version="1.1" xmlns="http://www.w3.org/2000/svg" width="28" height="28">
<path d="M0,0 L28,0 L28,28 L0,28 Z " fill="#030303" transform="translate(0,0)"/>
<path d="M0,0 L7,1 L11,4 L12,12 L9,17 L4,20 L-3,19 L-4,17 L-4,10 Z " fill="#D7D7D7" transform="translate(11,4)"/>
<path d="M0,0 L6,0 L6,3 L0,12 L2,12 L4,7 L6,7 L8,3 L9,3 L9,10 L3,15 L-2,15 L-3,14 L-3,7 Z " fill="#131313" transform="translate(12,7)"/>
<path d="M0,0 L2,1 L-1,7 L-4,7 Z " fill="#EBEBEB" transform="translate(15,13)"/>
</svg>
