<?xml version="1.0" encoding="UTF-8"?>
<svg version="1.1" xmlns="http://www.w3.org/2000/svg" width="28" height="28">
<path d="M0,0 L28,0 L28,28 L0,28 Z " fill="#030303" transform="translate(0,0)"/>
<path d="M0,0 L7,1 L11,5 L12,7 L11,16 L7,19 L0,20 L-6,16 L-6,5 L-3,5 L-1,1 Z " fill="#ECECEC" transform="translate(11,5)"/>
<path d="M0,0 L9,0 L11,3 L11,9 L6,12 L1,12 L-2,9 L-2,2 Z " fill="#050505" transform="translate(9,10)"/>
<path d="M0,0 L2,1 L-3,7 L-3,14 L-1,16 L3,18 L-2,19 L-6,16 L-6,5 L-3,5 L-1,1 Z " fill="#CCCCCC" transform="translate(11,5)"/>
</svg>
