<?xml version="1.0" encoding="UTF-8"?>
<svg version="1.1" xmlns="http://www.w3.org/2000/svg" width="28" height="28">
<path d="M0,0 L28,0 L28,28 L0,28 Z " fill="#020202" transform="translate(0,0)"/>
<path d="M0,0 L5,1 L7,9 L7,15 L2,20 L-3,20 L-5,18 L-5,8 Z " fill="#141414" transform="translate(13,4)"/>
<path d="M0,0 L5,1 L5,4 L0,5 L-3,10 L-3,16 L0,17 L4,14 L5,5 L7,9 L7,15 L2,20 L-3,20 L-5,18 L-5,8 Z " fill="#EBEBEB" transform="translate(13,4)"/>
<path d="M0,0 L5,1 L5,4 L0,5 L-4,10 L-5,8 Z " fill="#D5D5D5" transform="translate(13,4)"/>
</svg>
