<?xml version="1.0" encoding="UTF-8"?>
<svg version="1.1" xmlns="http://www.w3.org/2000/svg" width="28" height="28">
<path d="M0,0 L28,0 L28,28 L0,28 Z " fill="#020202" transform="translate(0,0)"/>
<path d="M0,0 L7,0 L9,7 L9,14 L8,17 L4,20 L-5,20 L-9,16 L-8,11 L-5,4 Z " fill="#E1E1E1" transform="translate(14,4)"/>
<path d="M0,0 L3,2 L4,5 L4,12 L2,14 L-3,15 L-8,13 L-8,7 L-4,2 Z " fill="#0B0B0B" transform="translate(16,7)"/>
<path d="M0,0 L5,0 L7,7 L7,14 L6,16 L4,16 L2,5 L-3,4 Z " fill="#F1F1F1" transform="translate(16,4)"/>
<path d="M0,0 L3,2 L-1,5 L-5,4 L-5,2 Z " fill="#BDBDBD" transform="translate(19,19)"/>
</svg>
