<?xml version="1.0" encoding="UTF-8"?>
<svg version="1.1" xmlns="http://www.w3.org/2000/svg" width="28" height="28">
<path d="M0,0 L28,0 L28,28 L0,28 Z " fill="#020202" transform="translate(0,0)"/>
<path d="M0,0 L4,1 L6,2 L6,5 L8,5 L8,12 L3,18 L-4,20 L-7,17 L-7,10 L-2,2 L0,2 Z " fill="#E1E1E1" transform="translate(14,4)"/>
<path d="M0,0 L4,1 L5,2 L5,8 L3,8 L3,10 L0,12 L-5,12 L-5,5 Z " fill="#080808" transform="translate(15,8)"/>
<path d="M0,0 L2,0 L1,5 L-5,10 L-10,11 L-11,8 L-2,5 L-2,3 L0,3 Z " fill="#E8E8E8" transform="translate(20,13)"/>
<path d="M0,0 L3,1 L3,6 L6,7 L1,8 L0,7 Z " fill="#A0A0A0" transform="translate(7,14)"/>
</svg>
