<?xml version="1.0" encoding="UTF-8"?>
<svg version="1.1" xmlns="http://www.w3.org/2000/svg" width="28" height="28">
<path d="M0,0 L28,0 L28,28 L0,28 Z " fill="#030303" transform="translate(0,0)"/>
<path d="M0,0 L5,0 L7,6 L10,8 L10,15 L5,20 L-2,20 L-7,16 L-6,7 L-2,1 Z " fill="#E5E5E5" transform="translate(13,4)"/>
<path d="M0,0 L7,5 L7,11 L2,14 L-3,12 L-4,5 Z " fill="#0C0C0C" transform="translate(13,8)"/>
<path d="M0,0 L5,0 L4,4 L-1,6 L-3,8 L-5,7 L-3,2 Z " fill="#C8C8C8" transform="translate(13,4)"/>
</svg>
