<?xml version="1.0" encoding="UTF-8"?>
<svg version="1.1" xmlns="http://www.w3.org/2000/svg" width="28" height="28">
<path d="M0,0 L28,0 L28,28 L0,28 Z " fill="#020202" transform="translate(0,0)"/>
<path d="M0,0 L7,0 L11,3 L10,11 L6,15 L-1,20 L-7,19 L-7,12 L-3,6 L-1,1 Z " fill="#EBEBEB" transform="translate(13,5)"/>
<path d="M0,0 L5,1 L6,4 L4,8 L2,8 L1,11 L-5,14 L-8,13 L-6,8 L-5,5 L-3,5 L-2,1 Z " fill="#121212" transform="translate(16,8)"/>
<path d="M0,0 L1,4 L-1,10 L-5,8 L-3,8 L-1,2 Z " fill="#C9C9C9" transform="translate(23,8)"/>
</svg>
