<?xml version="1.0" encoding="UTF-8"?>
<svg version="1.1" xmlns="http://www.w3.org/2000/svg" width="28" height="28">
<path d="M0,0 L28,0 L28,28 L0,28 Z " fill="#030303" transform="translate(0,0)"/>
<path d="M0,0 L5,1 L7,2 L6,9 L4,9 L2,13 L-1,13 L-1,15 L-6,17 L-12,17 L-13,13 L-11,8 L-9,8 L-7,4 L-4,1 Z " fill="#DFDFDF" transform="translate(18,6)"/>
<path d="M0,0 L3,1 L-1,5 L-2,8 L6,7 L5,10 L0,12 L-6,12 L-7,8 L-5,3 Z " fill="#E6E6E6" transform="translate(12,11)"/>
<path d="M0,0 L5,0 L4,5 L-2,9 L-7,10 L-5,4 Z " fill="#161616" transform="translate(16,10)"/>
</svg>
