<?xml version="1.0" encoding="UTF-8"?>
<svg version="1.1" xmlns="http://www.w3.org/2000/svg" width="28" height="28">
<path d="M0,0 L28,0 L28,28 L0,28 Z " fill="#020202" transform="translate(0,0)"/>
<path d="M0,0 L7,0 L12,9 L11,14 L7,18 L0,19 L-6,14 L-8,7 L-4,2 Z " fill="#070707" transform="translate(12,5)"/>
<path d="M0,0 L7,0 L12,9 L11,14 L7,18 L0,19 L-6,14 L-8,7 L-4,2 Z M1,2 L-5,6 L-6,10 L-4,14 L-1,16 L6,15 L10,11 L8,6 L6,6 L6,4 L4,4 L4,2 Z " fill="#D9D9D9" transform="translate(12,5)"/>
</svg>
