<?xml version="1.0" encoding="UTF-8"?>
<svg version="1.1" xmlns="http://www.w3.org/2000/svg" width="28" height="28">
<path d="M0,0 L28,0 L28,28 L0,28 Z " fill="#030303" transform="translate(0,0)"/>
<path d="M0,0 L4,1 L6,9 L6,15 L1,20 L-5,19 L-7,17 L-7,11 L-3,3 Z " fill="#DDDDDD" transform="translate(15,4)"/>
<path d="M0,0 L2,1 L2,11 L0,13 L-4,13 L-4,6 L-3,3 L-1,3 Z " fill="#0C0C0C" transform="translate(16,8)"/>
<path d="M0,0 L1,0 L1,6 L4,7 L2,9 L-2,6 L-1,1 Z " fill="#F6F6F6" transform="translate(10,15)"/>
</svg>
