<?xml version="1.0" encoding="UTF-8"?>
<svg version="1.1" xmlns="http://www.w3.org/2000/svg" width="28" height="28">
<path d="M0,0 L28,0 L28,28 L0,28 Z " fill="#010101" transform="translate(0,0)"/>
<path d="M0,0 L5,1 L7,4 L7,11 L4,16 L0,20 L-5,20 L-7,18 L-7,10 L-2,4 Z " fill="#040404" transform="translate(15,4)"/>
<path d="M0,0 L5,1 L7,4 L7,11 L4,16 L0,20 L-5,20 L-7,18 L-7,10 L-2,4 Z M1,2 L-5,10 L-5,18 L0,18 L4,13 L5,11 L5,4 Z " fill="#CCCCCC" transform="translate(15,4)"/>
<path d="M0,0 L1,0 L1,7 L-2,12 L-5,12 L-2,7 Z " fill="#A7A7A7" transform="translate(21,8)"/>
</svg>
