<?xml version="1.0" encoding="UTF-8"?>
<svg version="1.1" xmlns="http://www.w3.org/2000/svg" width="28" height="28">
<path d="M0,0 L28,0 L28,28 L0,28 Z " fill="#020202" transform="translate(0,0)"/>
<path d="M0,0 L3,0 L8,9 L8,16 L4,20 L-4,20 L-8,16 L-8,9 L-4,1 Z " fill="#090909" transform="translate(15,4)"/>
<path d="M0,0 L3,0 L8,9 L8,16 L4,20 L-4,20 L-8,16 L-8,9 L-4,1 Z M-2,3 L-6,8 L-7,15 L-4,18 L4,18 L7,15 L6,8 L2,3 Z " fill="#D3D3D3" transform="translate(15,4)"/>
<path d="M0,0 L4,1 L-1,7 L-3,14 L-4,14 L-4,8 Z " fill="#E4E4E4" transform="translate(11,5)"/>
<path d="M0,0 L4,2 L10,3 L7,5 L2,4 Z " fill="#BDBDBD" transform="translate(7,19)"/>
</svg>
