<?xml version="1.0" encoding="UTF-8"?>
<svg version="1.1" xmlns="http://www.w3.org/2000/svg" width="28" height="28">
<path d="M0,0 L28,0 L28,28 L0,28 Z " fill="#020202" transform="translate(0,0)"/>
<path d="M0,0 L12,0 L15,2 L15,9 L11,15 L6,18 L-2,18 L-5,13 L-5,6 Z " fill="#080808" transform="translate(10,6)"/>
<path d="M0,0 L12,0 L15,2 L15,9 L11,15 L6,18 L-2,18 L-5,13 L-5,6 Z M7,2 L3,4 L0,4 L-3,8 L-2,15 L6,15 L11,12 L13,6 L11,2 Z " fill="#D2D2D2" transform="translate(10,6)"/>
<path d="M0,0 L7,1 L7,8 L3,14 L-2,17 L-10,17 L-10,15 L-2,13 L3,10 L4,5 L3,2 Z " fill="#E4E4E4" transform="translate(18,7)"/>
<path d="M0,0 L8,0 L4,2 L-1,5 L-1,1 Z " fill="#ACACAC" transform="translate(14,6)"/>
</svg>
