<?xml version="1.0" encoding="UTF-8"?>
<svg version="1.1" xmlns="http://www.w3.org/2000/svg" width="28" height="28">
<path d="M0,0 L28,0 L28,28 L0,28 Z " fill="#020202" transform="translate(0,0)"/>
<path d="M0,0 L6,1 L9,3 L9,10 L6,15 L4,18 L0,20 L-5,19 L-7,17 L-7,9 L-3,2 Z " fill="#E6E6E6" transform="translate(14,5)"/>
<path d="M0,0 L2,0 L2,3 L6,3 L5,9 L1,13 L-3,14 L-5,13 L-5,7 Z " fill="#0C0C0C" transform="translate(15,8)"/>
<path d="M0,0 L2,1 L-1,7 L-4,7 L-6,8 L-4,3 Z " fill="#D2D2D2" transform="translate(14,5)"/>
</svg>
