<?xml version="1.0" encoding="UTF-8"?>
<svg version="1.1" xmlns="http://www.w3.org/2000/svg" width="28" height="28">
<path d="M0,0 L28,0 L28,28 L0,28 Z " fill="#020202" transform="translate(0,0)"/>
<path d="M0,0 L7,0 L8,3 L1,11 L-8,18 L-12,17 L-12,8 L-9,5 L-1,1 Z " fill="#D6D6D6" transform="translate(18,6)"/>
<path d="M0,0 L6,0 L7,2 L0,10 L-9,17 L-13,16 L-12,10 L-8,8 L-9,13 L-1,7 L0,5 L2,5 L2,3 L-1,1 Z " fill="#E2E2E2" transform="translate(19,7)"/>
<path d="M0,0 L2,1 L1,3 L-1,3 L-3,7 L-10,12 L-11,10 L-4,2 Z " fill="#171717" transform="translate(20,9)"/>
</svg>
