<?xml version="1.0" encoding="UTF-8"?>
<svg version="1.1" xmlns="http://www.w3.org/2000/svg" width="28" height="28">
<path d="M0,0 L28,0 L28,28 L0,28 Z " fill="#020202" transform="translate(0,0)"/>
<path d="M0,0 L5,1 L7,3 L6,9 L5,11 L3,11 L4,6 L1,7 L0,9 L2,9 L2,11 L-3,11 L-3,19 L-6,19 L-7,15 L-3,3 Z " fill="#E7E7E7" transform="translate(14,5)"/>
<path d="M0,0 L3,0 L2,5 L4,6 L-2,14 L-6,13 L-5,8 L-4,5 L1,5 L1,3 L-1,3 Z " fill="#9F9F9F" transform="translate(15,11)"/>
<path d="M0,0 L5,0 L2,5 L-1,5 Z " fill="#111111" transform="translate(11,16)"/>
</svg>
