<?xml version="1.0" encoding="UTF-8"?>
<svg version="1.1" xmlns="http://www.w3.org/2000/svg" width="28" height="28">
<path d="M0,0 L28,0 L28,28 L0,28 Z " fill="#020202" transform="translate(0,0)"/>
<path d="M0,0 L5,1 L8,5 L8,13 L2,20 L-3,19 L-4,17 L-4,7 L-1,1 Z " fill="#070707" transform="translate(13,5)"/>
<path d="M0,0 L5,1 L8,5 L8,13 L2,20 L-3,19 L-4,17 L-4,7 L-1,1 Z M1,2 L-2,6 L-2,18 L3,17 L6,13 L6,6 L3,2 Z " fill="#BBBBBB" transform="translate(13,5)"/>
<path d="M0,0 L2,0 L0,16 L4,16 L4,18 L-1,17 L-2,15 L-2,5 Z " fill="#C4C4C4" transform="translate(11,7)"/>
<path d="M0,0 L2,0 L1,4 L-1,13 L-2,13 L-2,5 Z " fill="#F3F3F3" transform="translate(11,7)"/>
</svg>
