<?xml version="1.0" encoding="UTF-8"?>
<svg version="1.1" xmlns="http://www.w3.org/2000/svg" width="28" height="28">
<path d="M0,0 L28,0 L28,28 L0,28 Z " fill="#030303" transform="translate(0,0)"/>
<path d="M0,0 L5,1 L11,7 L12,14 L9,19 L8,20 L1,20 L-4,16 L-6,12 L-6,5 L-3,1 Z " fill="#0C0C0C" transform="translate(12,5)"/>
<path d="M0,0 L5,1 L11,7 L12,14 L9,19 L8,20 L1,20 L-4,16 L-6,12 L-6,5 L-3,1 Z M-2,4 L-4,8 L-3,13 L3,18 L8,17 L10,14 L9,8 L5,4 L1,5 L-1,6 Z " fill="#E5E5E5" transform="translate(12,5)"/>
<path d="M0,0 Z M-3,1 L1,2 L0,5 L-6,7 L-4,2 Z " fill="#CACACA" transform="translate(12,5)"/>
</svg>
