<?xml version="1.0" encoding="UTF-8"?>
<svg version="1.1" xmlns="http://www.w3.org/2000/svg" width="28" height="28">
<path d="M0,0 L28,0 L28,28 L0,28 Z " fill="#010101" transform="translate(0,0)"/>
<path d="M0,0 L6,2 L10,6 L9,12 L2,18 L-2,20 L-8,19 L-10,16 L-9,9 L-2,3 L0,3 Z " fill="#070707" transform="translate(15,4)"/>
<path d="M0,0 L6,2 L10,6 L9,12 L2,18 L-2,20 L-8,19 L-10,16 L-9,9 L-2,3 L0,3 Z M2,4 L-4,7 L-7,10 L-7,16 L-6,17 L1,17 L7,12 L8,7 L5,5 L4,6 Z " fill="#E2E2E2" transform="translate(15,4)"/>
<path d="M0,0 L2,0 L3,6 L7,8 L7,10 L1,9 L-1,6 L-1,1 Z " fill="#C3C3C3" transform="translate(6,14)"/>
</svg>
