<?xml version="1.0" encoding="UTF-8"?>
<svg version="1.1" xmlns="http://www.w3.org/2000/svg" width="28" height="28">
<path d="M0,0 L28,0 L28,28 L0,28 Z " fill="#020202" transform="translate(0,0)"/>
<path d="M0,0 L5,1 L11,11 L11,18 L9,20 L3,20 L-5,15 L-7,13 L-7,6 L-4,2 Z " fill="#060606" transform="translate(12,4)"/>
<path d="M0,0 L5,1 L11,11 L11,18 L9,20 L3,20 L-5,15 L-7,13 L-7,6 L-4,2 Z M-1,3 L-5,7 L-4,13 L1,17 L8,17 L7,8 L4,3 Z " fill="#DFDFDF" transform="translate(12,4)"/>
<path d="M0,0 L1,0 L1,7 L-1,9 L-7,9 L-7,6 L-2,6 L-2,1 Z " fill="#A2A2A2" transform="translate(22,15)"/>
</svg>
