<?xml version="1.0" encoding="UTF-8"?>
<svg version="1.1" xmlns="http://www.w3.org/2000/svg" width="28" height="28">
<path d="M0,0 L28,0 L28,28 L0,28 Z " fill="#030303" transform="translate(0,0)"/>
<path d="M0,0 L8,1 L9,6 L11,6 L11,14 L6,18 L-1,20 L-6,20 L-9,16 L-8,11 L-6,7 L-4,7 L-2,2 Z " fill="#0A0A0A" transform="translate(13,4)"/>
<path d="M0,0 L8,1 L9,6 L11,6 L11,14 L6,18 L-1,20 L-6,20 L-9,16 L-8,11 L-6,7 L-4,7 L-2,2 Z M2,2 L-6,11 L-6,16 L-5,17 L4,17 L8,14 L8,7 L4,2 Z " fill="#D5D5D5" transform="translate(13,4)"/>
<path d="M0,0 L3,1 L3,7 L-2,11 L-11,13 L-11,11 L-3,8 L-1,7 Z " fill="#EBEBEB" transform="translate(21,11)"/>
</svg>
