<?xml version="1.0" encoding="UTF-8"?>
<svg version="1.1" xmlns="http://www.w3.org/2000/svg" width="28" height="28">
<path d="M0,0 L28,0 L28,28 L0,28 Z " fill="#020202" transform="translate(0,0)"/>
<path d="M0,0 L2,0 L2,2 L4,2 L4,13 L-1,19 L-5,20 L-10,18 L-11,15 L-5,5 L-3,5 L-3,3 Z " fill="#E3E3E3" transform="translate(17,4)"/>
<path d="M0,0 L3,0 L3,11 L-2,17 L-6,18 L-7,15 L-2,12 L1,3 L-2,2 Z " fill="#F2F2F2" transform="translate(18,6)"/>
<path d="M0,0 L3,0 L2,6 L-2,11 L-6,11 L-5,5 Z " fill="#101010" transform="translate(16,10)"/>
</svg>
