<?xml version="1.0" encoding="UTF-8"?>
<svg version="1.1" xmlns="http://www.w3.org/2000/svg" width="28" height="28">
<path d="M0,0 L28,0 L28,28 L0,28 Z " fill="#050505" transform="translate(0,0)"/>
<path d="M0,0 L2,1 L0,8 L-3,8 L-3,16 L2,15 L6,10 L5,4 L4,0 L8,2 L9,11 L5,17 L-1,20 L-6,18 L-7,13 L-5,6 L-3,6 L-1,1 Z " fill="#E7E7E7" transform="translate(13,4)"/>
<path d="M0,0 L2,1 L0,8 L-3,8 L-4,16 L-7,15 L-5,6 L-3,6 L-1,1 Z " fill="#D3D3D3" transform="translate(13,4)"/>
<path d="M0,0 L7,1 L7,3 L3,4 L0,2 Z " fill="#F7F7F7" transform="translate(7,20)"/>
</svg>
