<?xml version="1.0" encoding="UTF-8"?>
<svg version="1.1" xmlns="http://www.w3.org/2000/svg" width="28" height="28">
<path d="M0,0 L28,0 L28,28 L0,28 Z " fill="#020202" transform="translate(0,0)"/>
<path d="M0,0 L3,1 L8,0 L13,3 L15,7 L15,13 L10,18 L6,19 L-2,19 L-5,15 L-5,7 L-1,1 Z " fill="#0A0A0A" transform="translate(10,4)"/>
<path d="M0,0 L2,0 L1,5 L-2,10 L-1,15 L6,15 L12,12 L12,7 L9,4 L4,3 L5,0 L10,1 L14,5 L15,7 L15,13 L10,18 L6,19 L-2,19 L-5,15 L-5,7 L-1,1 Z " fill="#E3E3E3" transform="translate(10,4)"/>
<path d="M0,0 L2,0 L1,5 L-3,10 L-5,9 L-3,3 Z " fill="#D3D3D3" transform="translate(10,4)"/>
<path d="M0,0 L1,0 L1,6 L0,8 L-5,8 L-1,3 Z " fill="#C1C1C1" transform="translate(24,11)"/>
</svg>
