<?xml version="1.0" encoding="UTF-8"?>
<svg version="1.1" xmlns="http://www.w3.org/2000/svg" width="28" height="28">
<path d="M0,0 L28,0 L28,28 L0,28 Z " fill="#020202" transform="translate(0,0)"/>
<path d="M0,0 L4,1 L6,4 L6,13 L0,20 L-7,20 L-9,18 L-9,11 L-6,5 L-6,2 Z " fill="#E1E1E1" transform="translate(16,4)"/>
<path d="M0,0 L2,0 L2,9 L-4,16 L-11,16 L-12,15 L-12,9 L-11,12 L-4,12 L-2,6 Z " fill="#E7E7E7" transform="translate(20,8)"/>
<path d="M0,0 L4,1 L3,6 L0,12 L-6,12 L-5,6 Z " fill="#0E0E0E" transform="translate(16,8)"/>
</svg>
