<?xml version="1.0" encoding="UTF-8"?>
<svg version="1.1" xmlns="http://www.w3.org/2000/svg" width="28" height="28">
<path d="M0,0 L28,0 L28,28 L0,28 Z " fill="#020202" transform="translate(0,0)"/>
<path d="M0,0 L6,0 L11,5 L12,12 L8,18 L5,20 L0,20 L-5,16 L-6,14 L-6,6 L-2,1 Z " fill="#080808" transform="translate(12,5)"/>
<path d="M0,0 L6,0 L11,5 L12,12 L8,18 L5,20 L0,20 L-5,16 L-6,14 L-6,6 L-2,1 Z M1,3 L-3,6 L-3,13 L0,17 L6,17 L6,15 L8,15 L9,13 L9,6 L6,3 Z " fill="#E5E5E5" transform="translate(12,5)"/>
<path d="M0,0 L3,1 L5,9 L12,11 L12,9 L14,9 L14,12 L11,14 L6,14 L1,10 L0,8 Z " fill="#CBCBCB" transform="translate(6,11)"/>
</svg>
