<?xml version="1.0" encoding="UTF-8"?>
<svg version="1.1" xmlns="http://www.w3.org/2000/svg" width="28" height="28">
<path d="M0,0 L28,0 L28,28 L0,28 Z " fill="#020202" transform="translate(0,0)"/>
<path d="M0,0 L6,0 L12,4 L14,7 L14,12 L5,18 L-1,18 L-6,14 L-6,7 L-4,3 L0,2 Z " fill="#0D0D0D" transform="translate(11,5)"/>
<path d="M0,0 L7,1 L12,5 L13,12 L4,18 L-2,18 L-7,14 L-7,7 L-5,3 L-1,2 L0,4 L-4,6 L-4,13 L2,14 L10,11 L9,6 L4,3 L0,2 Z " fill="#D3D3D3" transform="translate(12,5)"/>
<path d="M0,0 L3,1 L-2,6 L-3,11 L-4,11 L-3,2 Z " fill="#EFEFEF" transform="translate(9,7)"/>
<path d="M0,0 L1,3 L-5,7 L-7,6 L-3,2 Z " fill="#EBEBEB" transform="translate(23,15)"/>
<path d="M0,0 L4,1 L2,4 L-4,4 Z " fill="#C1C1C1" transform="translate(14,19)"/>
</svg>
