<?xml version="1.0" encoding="UTF-8"?>
<svg version="1.1" xmlns="http://www.w3.org/2000/svg" width="28" height="28">
<path d="M0,0 L28,0 L28,28 L0,28 Z " fill="#020202" transform="translate(0,0)"/>
<path d="M0,0 L6,0 L7,1 L6,10 L1,17 L-4,20 L-9,20 L-11,18 L-10,11 Z " fill="#E5E5E5" transform="translate(16,5)"/>
<path d="M0,0 L2,0 L2,6 L-3,13 L-11,14 L-7,6 Z " fill="#0A0A0A" transform="translate(18,8)"/>
<path d="M0,0 L2,0 L3,8 L-2,15 L-7,18 L-9,17 L-8,14 L-4,14 L-2,10 L0,7 Z " fill="#B4B4B4" transform="translate(19,7)"/>
<path d="M0,0 L3,0 L2,3 L-3,6 L-5,5 L-4,2 L0,2 Z " fill="#CCCCCC" transform="translate(15,19)"/>
<path d="M0,0 L4,1 L3,9 L2,9 L2,2 L-1,1 Z " fill="#F6F6F6" transform="translate(19,5)"/>
</svg>
