<?xml version="1.0" encoding="UTF-8"?>
<svg version="1.1" xmlns="http://www.w3.org/2000/svg" width="28" height="28">
<path d="M0,0 L28,0 L28,28 L0,28 Z " fill="#020202" transform="translate(0,0)"/>
<path d="M0,0 L4,0 L7,5 L6,12 L2,17 L-2,20 L-7,19 L-8,14 L-4,6 Z " fill="#0D0D0D" transform="translate(15,5)"/>
<path d="M0,0 L4,0 L7,5 L6,12 L2,17 L-2,20 L-7,19 L-8,14 L-4,6 Z M1,3 L-5,11 L-6,16 L-5,18 L-1,17 L6,9 L4,5 L3,3 Z " fill="#CECECE" transform="translate(15,5)"/>
<path d="M0,0 L2,2 L-2,7 L-6,10 L-11,9 L-9,6 L-9,8 L-4,5 Z " fill="#C1C1C1" transform="translate(19,15)"/>
<path d="M0,0 L4,0 L7,5 L7,10 L5,11 L4,6 L3,3 L0,4 Z " fill="#ECECEC" transform="translate(15,5)"/>
</svg>
