<?xml version="1.0" encoding="UTF-8"?>
<svg version="1.1" xmlns="http://www.w3.org/2000/svg" width="28" height="28">
<path d="M0,0 L28,0 L28,28 L0,28 Z " fill="#030303" transform="translate(0,0)"/>
<path d="M0,0 L7,0 L13,5 L13,12 L8,18 L4,20 L-5,19 L-7,17 L-7,10 Z " fill="#0A0A0A" transform="translate(11,4)"/>
<path d="M0,0 L7,0 L13,5 L13,12 L8,18 L4,20 L-5,19 L-7,17 L-7,10 Z M3,2 L-1,4 L-4,11 L-4,16 L-2,18 L4,18 L6,17 L6,15 L8,15 L10,11 L10,6 L7,3 Z " fill="#EBEBEB" transform="translate(11,4)"/>
<path d="M0,0 L7,0 L7,3 L0,3 Z " fill="#CECECE" transform="translate(11,4)"/>
</svg>
