<?xml version="1.0" encoding="UTF-8"?>
<svg version="1.1" xmlns="http://www.w3.org/2000/svg" width="28" height="28">
<path d="M0,0 L28,0 L28,28 L0,28 Z " fill="#010101" transform="translate(0,0)"/>
<path d="M0,0 L4,1 L6,2 L7,5 L7,16 L4,20 L-1,19 L-3,16 L-4,4 Z " fill="#101010" transform="translate(12,5)"/>
<path d="M0,0 L4,1 L6,2 L7,5 L7,16 L4,20 L-1,19 L-2,17 L-2,6 L-1,6 L0,18 L4,18 L4,5 L3,3 L-3,5 L-1,1 Z " fill="#C4C4C4" transform="translate(12,5)"/>
<path d="M0,0 L4,1 L4,4 L0,4 L-3,5 L-1,1 Z " fill="#DCDCDC" transform="translate(12,5)"/>
</svg>
