<?xml version="1.0" encoding="UTF-8"?>
<svg version="1.1" xmlns="http://www.w3.org/2000/svg" width="28" height="28">
<path d="M0,0 L28,0 L28,28 L0,28 Z " fill="#010101" transform="translate(0,0)"/>
<path d="M0,0 L2,0 L3,4 L3,11 L0,17 L-4,20 L-9,19 L-11,17 L-11,12 Z " fill="#D2D2D2" transform="translate(18,4)"/>
<path d="M0,0 L2,0 L1,7 L-2,12 L-6,13 L-7,8 Z " fill="#141414" transform="translate(17,9)"/>
<path d="M0,0 L1,2 L1,6 L6,4 L8,3 L7,7 L4,9 L-1,8 L-2,7 L-2,2 Z " fill="#F2F2F2" transform="translate(10,15)"/>
</svg>
