<?xml version="1.0" encoding="UTF-8"?>
<svg version="1.1" xmlns="http://www.w3.org/2000/svg" width="28" height="28">
<path d="M0,0 L28,0 L28,28 L0,28 Z " fill="#020202" transform="translate(0,0)"/>
<path d="M0,0 L3,1 L3,9 L1,14 L-1,14 L-3,18 L-7,20 L-11,19 L-12,12 L-6,4 Z " fill="#D8D8D8" transform="translate(19,4)"/>
<path d="M0,0 L2,0 L1,8 L-3,13 L-7,14 L-8,9 L-4,3 Z " fill="#090909" transform="translate(18,7)"/>
<path d="M0,0 L2,4 L7,2 L10,0 L8,5 L3,8 L-1,7 L-1,1 Z " fill="#EBEBEB" transform="translate(9,16)"/>
<path d="M0,0 L2,4 L0,11 L-2,8 Z " fill="#AFAFAF" transform="translate(20,7)"/>
</svg>
