<?xml version="1.0" encoding="UTF-8"?>
<svg version="1.1" xmlns="http://www.w3.org/2000/svg" width="28" height="28">
<path d="M0,0 L28,0 L28,28 L0,28 Z " fill="#020202" transform="translate(0,0)"/>
<path d="M0,0 L6,0 L11,4 L10,9 L6,14 L2,16 L-7,15 L-9,12 L-9,7 L-5,4 L-3,4 L-2,1 Z " fill="#0A0A0A" transform="translate(14,7)"/>
<path d="M0,0 L6,0 L11,4 L10,9 L6,14 L2,16 L-7,15 L-9,12 L-9,7 L-5,4 L-3,4 L-2,1 Z M2,3 L-5,6 L-6,7 L-6,12 L-3,14 L4,13 L9,8 L8,3 Z " fill="#E7E7E7" transform="translate(14,7)"/>
<path d="M0,0 L2,4 L9,5 L13,3 L15,1 L15,4 L9,8 L0,7 L-1,4 Z " fill="#CDCDCD" transform="translate(7,15)"/>
</svg>
