<?xml version="1.0" encoding="UTF-8"?>
<svg version="1.1" xmlns="http://www.w3.org/2000/svg" width="28" height="28">
<path d="M0,0 L28,0 L28,28 L0,28 Z " fill="#060606" transform="translate(0,0)"/>
<path d="M0,0 L6,0 L6,3 L8,3 L10,6 L10,14 L6,19 L-1,20 L-5,18 L-6,16 L-6,7 Z " fill="#070707" transform="translate(12,5)"/>
<path d="M0,0 L6,0 L6,3 L8,3 L10,6 L10,14 L6,19 L-1,20 L-5,18 L-6,16 L-6,7 Z M0,3 L-3,7 L-4,13 L-2,17 L4,17 L7,15 L8,8 L3,3 Z " fill="#DFDFDF" transform="translate(12,5)"/>
</svg>
