<?xml version="1.0" encoding="UTF-8"?>
<svg version="1.1" xmlns="http://www.w3.org/2000/svg" width="28" height="28">
<path d="M0,0 L28,0 L28,28 L0,28 Z " fill="#020202" transform="translate(0,0)"/>
<path d="M0,0 L5,0 L10,7 L10,14 L7,19 L5,20 L-3,20 L-6,17 L-6,9 Z " fill="#070707" transform="translate(13,4)"/>
<path d="M0,0 L5,0 L10,7 L10,14 L7,19 L5,20 L-3,20 L-6,17 L-6,9 Z M1,3 L0,5 L-4,9 L-4,16 L-1,18 L6,17 L8,15 L8,8 L5,3 Z " fill="#CFCFCF" transform="translate(13,4)"/>
<path d="M0,0 L2,1 L1,3 L1,10 L4,13 L-1,12 L-2,11 L-2,3 Z " fill="#E9E9E9" transform="translate(9,10)"/>
<path d="M0,0 L5,1 L5,5 L1,4 Z " fill="#3D3D3D" transform="translate(14,7)"/>
</svg>
