<?xml version="1.0" encoding="UTF-8"?>
<svg version="1.1" xmlns="http://www.w3.org/2000/svg" width="28" height="28">
<path d="M0,0 L28,0 L28,28 L0,28 Z " fill="#020202" transform="translate(0,0)"/>
<path d="M0,0 L6,1 L10,5 L11,11 L8,16 L6,16 L6,18 L2,20 L-4,20 L-7,17 L-7,10 L-4,3 Z " fill="#0D0D0D" transform="translate(13,4)"/>
<path d="M0,0 L6,1 L10,5 L11,11 L8,16 L6,16 L6,18 L2,20 L-4,20 L-7,17 L-7,10 L-4,3 Z M1,2 L-2,6 L-5,15 L-3,18 L3,17 L8,13 L9,8 L4,2 Z " fill="#DDDDDD" transform="translate(13,4)"/>
</svg>
