<?xml version="1.0" encoding="UTF-8"?>
<svg version="1.1" xmlns="http://www.w3.org/2000/svg" width="28" height="28">
<path d="M0,0 L28,0 L28,28 L0,28 Z " fill="#030303" transform="translate(0,0)"/>
<path d="M0,0 L4,0 L4,2 L9,3 L12,6 L12,12 L8,17 L2,20 L-5,20 L-7,18 L-7,10 L-2,1 Z " fill="#080808" transform="translate(13,5)"/>
<path d="M0,0 L4,0 L4,2 L9,3 L12,6 L12,12 L8,17 L2,20 L-5,20 L-7,18 L-7,10 L-2,1 Z M-1,4 L-4,10 L-4,18 L2,18 L9,13 L10,7 L6,4 L2,5 Z " fill="#DDDDDD" transform="translate(13,5)"/>
</svg>
