<?xml version="1.0" encoding="UTF-8"?>
<svg version="1.1" xmlns="http://www.w3.org/2000/svg" width="28" height="28">
<path d="M0,0 L28,0 L28,28 L0,28 Z " fill="#040404" transform="translate(0,0)"/>
<path d="M0,0 L7,1 L8,2 L8,10 L3,15 L0,17 L-8,18 L-12,13 L-11,6 L-6,2 Z " fill="#E3E3E3" transform="translate(17,6)"/>
<path d="M0,0 L4,1 L5,2 L5,7 L2,11 L-1,11 L-1,13 L-8,13 L-10,10 L-9,5 L-5,2 L-6,7 L-4,7 L-3,3 Z " fill="#0A0A0A" transform="translate(18,8)"/>
<path d="M0,0 L6,0 L7,5 L5,6 L3,2 Z " fill="#C6C6C6" transform="translate(18,7)"/>
</svg>
