<?xml version="1.0" encoding="UTF-8"?>
<svg version="1.1" xmlns="http://www.w3.org/2000/svg" width="28" height="28">
<path d="M0,0 L28,0 L28,28 L0,28 Z " fill="#030303" transform="translate(0,0)"/>
<path d="M0,0 L2,0 L4,5 L8,9 L8,15 L3,19 L-4,20 L-7,15 L-4,5 Z " fill="#E9E9E9" transform="translate(14,3)"/>
<path d="M0,0 L3,1 L5,5 L4,10 L0,12 L-3,12 L-2,4 Z " fill="#0C0C0C" transform="translate(14,8)"/>
<path d="M0,0 L1,2 L3,2 L1,6 L-3,8 L-3,6 L-5,5 L-1,3 Z " fill="#CFCFCF" transform="translate(19,14)"/>
</svg>
