<?xml version="1.0" encoding="UTF-8"?>
<svg version="1.1" xmlns="http://www.w3.org/2000/svg" width="28" height="28">
<path d="M0,0 L28,0 L28,28 L0,28 Z " fill="#030303" transform="translate(0,0)"/>
<path d="M0,0 L4,1 L6,3 L6,15 L0,20 L-5,20 L-8,17 L-9,8 L-4,3 Z " fill="#DCDCDC" transform="translate(15,4)"/>
<path d="M0,0 L3,1 L3,11 L1,14 L-4,13 L-6,10 L-5,4 Z " fill="#0B0B0B" transform="translate(15,7)"/>
<path d="M0,0 L2,0 L2,9 L-4,14 L-6,14 L-6,12 L-1,7 Z " fill="#F5F5F5" transform="translate(19,10)"/>
</svg>
