<?xml version="1.0" encoding="UTF-8"?>
<svg version="1.1" xmlns="http://www.w3.org/2000/svg" width="28" height="28">
<path d="M0,0 L28,0 L28,28 L0,28 Z " fill="#030303" transform="translate(0,0)"/>
<path d="M0,0 L7,0 L11,1 L15,7 L15,14 L13,18 L9,20 L0,19 L-3,15 L-3,7 L-1,3 L-3,3 L-3,1 Z " fill="#0B0B0B" transform="translate(9,5)"/>
<path d="M0,0 L7,0 L11,1 L15,7 L15,14 L13,18 L9,20 L0,19 L-3,15 L-3,7 L-1,3 L-3,3 L-3,1 Z M3,2 L0,4 L-1,14 L2,17 L9,18 L12,15 L12,7 L9,3 Z " fill="#DDDDDD" transform="translate(9,5)"/>
<path d="M0,0 L5,0 L1,4 L0,14 L2,16 L2,19 L-1,18 L-3,15 L-3,7 L-1,3 L-3,3 L-3,1 Z " fill="#C6C6C6" transform="translate(9,5)"/>
</svg>
