<?xml version="1.0" encoding="UTF-8"?>
<svg version="1.1" xmlns="http://www.w3.org/2000/svg" width="28" height="28">
<path d="M0,0 L28,0 L28,28 L0,28 Z " fill="#030303" transform="translate(0,0)"/>
<path d="M0,0 L4,1 L6,6 L5,13 L2,18 L-1,20 L-6,19 L-7,18 L-7,11 L-3,2 Z " fill="#D9D9D9" transform="translate(15,4)"/>
<path d="M0,0 L4,2 L4,8 L0,14 L-5,15 L-5,8 Z " fill="#141414" transform="translate(15,7)"/>
<path d="M0,0 L1,2 L0,9 L6,8 L4,11 L-1,10 L-2,9 L-2,2 Z " fill="#EFEFEF" transform="translate(10,13)"/>
</svg>
