<?xml version="1.0" encoding="UTF-8"?>
<svg version="1.1" xmlns="http://www.w3.org/2000/svg" width="28" height="28">
<path d="M0,0 L28,0 L28,28 L0,28 Z " fill="#020202" transform="translate(0,0)"/>
<path d="M0,0 L4,1 L7,5 L7,12 L4,18 L0,20 L-4,19 L-5,14 L-1,6 L0,3 Z " fill="#DBDBDB" transform="translate(13,4)"/>
<path d="M0,0 L1,0 L1,10 L0,13 L-4,14 L-5,13 L-4,6 Z " fill="#0E0E0E" transform="translate(16,8)"/>
<path d="M0,0 L3,0 L3,7 L0,13 L-1,9 Z " fill="#B7B7B7" transform="translate(17,9)"/>
</svg>
