<?xml version="1.0" encoding="UTF-8"?>
<svg version="1.1" xmlns="http://www.w3.org/2000/svg" width="28" height="28">
<path d="M0,0 L28,0 L28,28 L0,28 Z " fill="#030303" transform="translate(0,0)"/>
<path d="M0,0 L5,0 L7,2 L7,9 L4,16 L-1,20 L-7,20 L-9,18 L-9,9 L-7,5 Z " fill="#0D0D0D" transform="translate(16,5)"/>
<path d="M0,0 L5,0 L7,2 L7,9 L4,16 L-1,20 L-7,20 L-9,18 L-9,9 L-7,5 Z M-1,3 L-1,6 L-5,7 L-7,10 L-7,17 L-2,18 L3,13 L5,10 L5,4 L4,3 Z " fill="#DCDCDC" transform="translate(16,5)"/>
</svg>
