<?xml version="1.0" encoding="UTF-8"?>
<svg version="1.1" xmlns="http://www.w3.org/2000/svg" width="28" height="28">
<path d="M0,0 L28,0 L28,28 L0,28 Z " fill="#030303" transform="translate(0,0)"/>
<path d="M0,0 L5,1 L7,5 L6,14 L5,17 L1,20 L-3,19 L-4,16 L-4,9 L-3,6 L1,5 L-1,10 L-1,16 L2,16 L3,11 L3,4 L0,3 Z " fill="#B6B6B6" transform="translate(13,4)"/>
<path d="M0,0 L2,1 L0,5 L0,11 L4,10 L3,14 L0,15 L-2,14 L-3,11 L-3,4 L-2,1 Z " fill="#EEEEEE" transform="translate(12,9)"/>
<path d="M0,0 L5,1 L6,2 L6,9 L4,6 L3,4 L0,3 Z " fill="#E3E3E3" transform="translate(13,4)"/>
</svg>
