<?xml version="1.0" encoding="UTF-8"?>
<svg version="1.1" xmlns="http://www.w3.org/2000/svg" width="28" height="28">
<path d="M0,0 L28,0 L28,28 L0,28 Z " fill="#020202" transform="translate(0,0)"/>
<path d="M0,0 L5,1 L7,2 L6,10 L-1,16 L-4,17 L-11,17 L-13,15 L-12,9 L-6,4 Z " fill="#E5E5E5" transform="translate(17,6)"/>
<path d="M0,0 L5,1 L7,2 L6,7 L3,8 L3,4 L0,5 L-1,10 L-4,10 L-4,7 L-8,8 L-6,4 Z M2,8 Z " fill="#EDEDED" transform="translate(17,6)"/>
<path d="M0,0 L2,0 L2,3 L4,3 L4,6 L-4,7 L-3,3 Z " fill="#141414" transform="translate(11,13)"/>
<path d="M0,0 L3,0 L2,5 L-1,6 L-1,1 Z " fill="#212121" transform="translate(17,10)"/>
</svg>
