<?xml version="1.0" encoding="UTF-8"?>
<svg version="1.1" xmlns="http://www.w3.org/2000/svg" width="28" height="28">
<path d="M0,0 L28,0 L28,28 L0,28 Z " fill="#020202" transform="translate(0,0)"/>
<path d="M0,0 L3,0 L4,7 L1,12 L-7,19 L-14,20 L-16,18 L-15,13 L-12,9 L-10,9 L-8,5 Z " fill="#E5E5E5" transform="translate(20,4)"/>
<path d="M0,0 L4,1 L2,6 L-3,10 L-8,10 L-5,5 L-2,2 L0,2 Z " fill="#0C0C0C" transform="translate(16,10)"/>
<path d="M0,0 L2,0 L2,7 L-5,14 L-8,15 L-8,13 L-13,13 L-12,11 L-7,11 L-4,8 L-2,8 Z " fill="#C1C1C1" transform="translate(20,8)"/>
<path d="M0,0 L1,4 L0,6 L5,6 L4,9 L-1,9 L-3,7 L-2,2 Z " fill="#F8F8F8" transform="translate(7,15)"/>
</svg>
