<?xml version="1.0" encoding="UTF-8"?>
<svg version="1.1" xmlns="http://www.w3.org/2000/svg" width="28" height="28">
<path d="M0,0 L28,0 L28,28 L0,28 Z " fill="#040404" transform="translate(0,0)"/>
<path d="M0,0 L6,1 L11,4 L12,7 L12,14 L9,19 L4,20 L-1,18 L-4,12 L-3,3 Z " fill="#EBEBEB" transform="translate(11,5)"/>
<path d="M0,0 L8,2 L9,6 L6,11 L1,11 L-1,9 Z " fill="#0C0C0C" transform="translate(12,10)"/>
<path d="M0,0 L2,4 L-1,7 L-8,6 L-5,5 L-5,3 L-1,2 Z " fill="#D5D5D5" transform="translate(19,18)"/>
</svg>
