<?xml version="1.0" encoding="UTF-8"?>
<svg version="1.1" xmlns="http://www.w3.org/2000/svg" width="28" height="28">
<path d="M0,0 L28,0 L28,28 L0,28 Z " fill="#030303" transform="translate(0,0)"/>
<path d="M0,0 L7,2 L9,6 L5,12 L-1,16 L-10,17 L-11,10 L-8,7 L-6,7 L-4,3 Z " fill="#191919" transform="translate(15,5)"/>
<path d="M0,0 L4,4 L1,10 L-6,15 L-15,16 L-16,13 L-7,12 L-2,9 L1,4 L-1,3 Z " fill="#E1E1E1" transform="translate(20,6)"/>
<path d="M0,0 L1,3 L-8,11 L-10,11 L-8,7 L-6,7 L-4,3 Z " fill="#B7B7B7" transform="translate(15,5)"/>
</svg>
