<?xml version="1.0" encoding="UTF-8"?>
<svg version="1.1" xmlns="http://www.w3.org/2000/svg" width="28" height="28">
<path d="M0,0 L28,0 L28,28 L0,28 Z " fill="#020202" transform="translate(0,0)"/>
<path d="M0,0 L2,0 L3,3 L3,12 L-1,15 L-9,15 L-8,10 Z " fill="#D5D5D5" transform="translate(16,6)"/>
<path d="M0,0 L3,1 L3,10 L-1,13 L-5,12 L0,9 L1,2 L-1,1 Z " fill="#F0F0F0" transform="translate(16,8)"/>
<path d="M0,0 L2,0 L2,6 L-2,8 L-5,7 L-1,1 Z " fill="#1C1C1C" transform="translate(15,11)"/>
</svg>
