<?xml version="1.0" encoding="UTF-8"?>
<svg version="1.1" xmlns="http://www.w3.org/2000/svg" width="28" height="28">
<path d="M0,0 L28,0 L28,28 L0,28 Z " fill="#020202" transform="translate(0,0)"/>
<path d="M0,0 L3,1 L3,11 L0,17 L-4,20 L-9,19 L-10,14 L-4,3 Z " fill="#ECECEC" transform="translate(17,4)"/>
<path d="M0,0 L2,0 L2,8 L-3,13 L-6,13 L-5,8 L-2,7 L-1,3 Z " fill="#161616" transform="translate(16,8)"/>
<path d="M0,0 L2,3 L-3,7 L-8,6 L-9,1 L-8,4 L-1,3 Z " fill="#D2D2D2" transform="translate(16,17)"/>
</svg>
