<?xml version="1.0" encoding="UTF-8"?>
<svg version="1.1" xmlns="http://www.w3.org/2000/svg" width="28" height="28">
<path d="M0,0 L28,0 L28,28 L0,28 Z " fill="#020202" transform="translate(0,0)"/>
<path d="M0,0 L5,2 L6,11 L3,16 L-1,19 L-7,20 L-8,19 L-8,13 L-2,2 Z " fill="#E5E5E5" transform="translate(15,4)"/>
<path d="M0,0 L1,3 L-5,8 L-11,9 L-12,4 L-10,3 L-10,6 Z " fill="#F0F0F0" transform="translate(19,15)"/>
<path d="M0,0 L3,2 L2,7 L-3,10 L-5,10 L-4,5 Z " fill="#161616" transform="translate(15,10)"/>
</svg>
