<?xml version="1.0" encoding="UTF-8"?>
<svg version="1.1" xmlns="http://www.w3.org/2000/svg" width="28" height="28">
<path d="M0,0 L28,0 L28,28 L0,28 Z " fill="#020202" transform="translate(0,0)"/>
<path d="M0,0 L9,1 L11,3 L10,10 L5,14 L-1,16 L-8,15 L-9,14 L-9,9 L-2,1 Z " fill="#E4E4E4" transform="translate(13,7)"/>
<path d="M0,0 L2,0 L1,5 L-5,9 L-12,9 L-13,7 L-8,2 Z " fill="#070707" transform="translate(19,11)"/>
<path d="M0,0 L0,3 L0,5 L-2,6 L-13,6 L-13,5 L-4,3 Z " fill="#C9C9C9" transform="translate(20,15)"/>
</svg>
