<?xml version="1.0" encoding="UTF-8"?>
<svg version="1.1" xmlns="http://www.w3.org/2000/svg" width="28" height="28">
<path d="M0,0 L28,0 L28,28 L0,28 Z " fill="#010101" transform="translate(0,0)"/>
<path d="M0,0 L6,1 L7,2 L7,9 L1,18 L-1,20 L-6,19 L-7,18 L-7,10 L-2,2 Z " fill="#0B0B0B" transform="translate(15,5)"/>
<path d="M0,0 L6,1 L7,2 L7,9 L1,18 L-1,20 L-6,19 L-7,18 L-7,10 L-2,2 Z M-2,4 L-5,9 L-5,17 L-1,18 L4,12 L6,5 L1,4 L1,6 L-1,6 Z " fill="#C9C9C9" transform="translate(15,5)"/>
<path d="M0,0 L5,0 L2,3 L0,3 L0,5 L-2,5 Z " fill="#EEEEEE" transform="translate(16,6)"/>
</svg>
