<?xml version="1.0" encoding="UTF-8"?>
<svg version="1.1" xmlns="http://www.w3.org/2000/svg" width="28" height="28">
<path d="M0,0 L28,0 L28,28 L0,28 Z " fill="#030303" transform="translate(0,0)"/>
<path d="M0,0 L4,1 L4,4 L6,4 L6,12 L-1,18 L-5,20 L-11,20 L-13,18 L-12,12 L-7,5 L-4,2 L-1,2 Z " fill="#ECECEC" transform="translate(17,4)"/>
<path d="M0,0 L5,1 L5,6 L-1,11 L-8,12 L-7,8 L-4,3 Z " fill="#0F0F0F" transform="translate(15,9)"/>
<path d="M0,0 L4,1 L4,4 L6,4 L4,10 L3,6 L-2,6 L-5,8 L-7,8 L-9,9 L-7,5 L-4,2 L-1,2 Z " fill="#CFCFCF" transform="translate(17,4)"/>
</svg>
