<?xml version="1.0" encoding="UTF-8"?>
<svg version="1.1" xmlns="http://www.w3.org/2000/svg" width="28" height="28">
<path d="M0,0 L28,0 L28,28 L0,28 Z " fill="#030303" transform="translate(0,0)"/>
<path d="M0,0 L4,3 L4,5 L2,5 L1,13 L-5,20 L-9,19 L-10,18 L-10,10 L-5,4 Z " fill="#ECECEC" transform="translate(18,4)"/>
<path d="M0,0 L2,0 L2,6 L-2,11 L-4,11 L-4,5 Z " fill="#060606" transform="translate(15,10)"/>
<path d="M0,0 L0,3 L0,5 L0,10 L-1,6 L-7,11 L-8,8 L-3,3 Z " fill="#C7C7C7" transform="translate(18,4)"/>
</svg>
