<?xml version="1.0" encoding="UTF-8"?>
<svg version="1.1" xmlns="http://www.w3.org/2000/svg" width="28" height="28">
<path d="M0,0 L28,0 L28,28 L0,28 Z " fill="#020202" transform="translate(0,0)"/>
<path d="M0,0 L7,1 L7,3 L5,3 L2,12 L-4,16 L-12,17 L-13,12 L-11,8 L-4,2 Z " fill="#CECECE" transform="translate(18,6)"/>
<path d="M0,0 L3,0 L3,5 L-4,11 L-9,12 L-8,7 L-7,5 L-5,5 L-5,3 Z " fill="#0C0C0C" transform="translate(17,9)"/>
<path d="M0,0 L3,1 L2,3 L0,3 L-2,10 L3,10 L1,12 L-4,12 L-5,7 L-3,3 Z " fill="#D9D9D9" transform="translate(10,11)"/>
<path d="M0,0 L2,0 L3,2 L8,3 L6,5 L1,5 Z " fill="#F1F1F1" transform="translate(5,18)"/>
</svg>
