<?xml version="1.0" encoding="UTF-8"?>
<svg version="1.1" xmlns="http://www.w3.org/2000/svg" width="28" height="28">
<path d="M0,0 L28,0 L28,28 L0,28 Z " fill="#020202" transform="translate(0,0)"/>
<path d="M0,0 L5,0 L7,2 L7,13 L4,18 L0,20 L-6,20 L-9,17 L-9,11 L-4,1 Z " fill="#090909" transform="translate(16,5)"/>
<path d="M0,0 L5,0 L7,2 L7,13 L4,18 L0,20 L-6,20 L-9,17 L-9,11 L-4,1 Z M1,2 L-3,6 L-3,8 L-5,8 L-6,17 L-5,18 L2,17 L5,14 L5,4 L4,2 Z " fill="#E5E5E5" transform="translate(16,5)"/>
<path d="M0,0 L1,0 L1,11 L-2,16 L-6,18 L-12,18 L-12,16 L-4,14 L-2,12 L-1,2 Z " fill="#C9C9C9" transform="translate(22,7)"/>
</svg>
