<?xml version="1.0" encoding="UTF-8"?>
<svg version="1.1" xmlns="http://www.w3.org/2000/svg" width="28" height="28">
<path d="M0,0 L28,0 L28,28 L0,28 Z " fill="#030303" transform="translate(0,0)"/>
<path d="M0,0 L10,1 L12,3 L12,9 L7,14 L2,17 L-5,18 L-8,15 L-7,9 L-2,1 Z " fill="#D8D8D8" transform="translate(12,6)"/>
<path d="M0,0 L3,0 L5,2 L9,1 L8,7 L2,11 L-4,11 L-3,6 Z " fill="#0B0B0B" transform="translate(12,9)"/>
<path d="M0,0 L1,3 L9,2 L8,5 L1,6 L-1,4 Z " fill="#F2F2F2" transform="translate(6,18)"/>
</svg>
