<?xml version="1.0" encoding="UTF-8"?>
<svg version="1.1" xmlns="http://www.w3.org/2000/svg" width="28" height="28">
<path d="M0,0 L28,0 L28,28 L0,28 Z " fill="#020202" transform="translate(0,0)"/>
<path d="M0,0 L4,0 L5,5 L2,14 L-3,18 L-14,18 L-15,17 L-14,10 L-12,10 L-10,6 L-3,1 Z " fill="#DFDFDF" transform="translate(19,5)"/>
<path d="M0,0 L1,4 L-4,8 L-15,8 L-15,3 L-12,1 L-12,5 L-3,2 Z " fill="#EEEEEE" transform="translate(20,15)"/>
<path d="M0,0 L1,3 L-2,8 L-7,10 L-11,10 L-11,7 L-9,7 L-9,5 Z " fill="#131313" transform="translate(19,10)"/>
</svg>
