<?xml version="1.0" encoding="UTF-8"?>
<svg version="1.1" xmlns="http://www.w3.org/2000/svg" width="28" height="28">
<path d="M0,0 L28,0 L28,28 L0,28 Z " fill="#020202" transform="translate(0,0)"/>
<path d="M0,0 L2,2 L5,2 L6,5 L3,15 L0,18 L-4,20 L-11,20 L-13,16 L-9,7 L-4,4 Z " fill="#E0E0E0" transform="translate(18,4)"/>
<path d="M0,0 L3,4 L1,7 L-6,10 L-9,13 L-11,13 L-10,9 L-6,5 Z " fill="#EAEAEA" transform="translate(18,4)"/>
<path d="M0,0 L0,3 L-2,8 L-5,10 L-10,10 L-9,5 L-4,1 Z " fill="#0A0A0A" transform="translate(19,10)"/>
</svg>
