<?xml version="1.0" encoding="UTF-8"?>
<svg version="1.1" xmlns="http://www.w3.org/2000/svg" width="28" height="28">
<path d="M0,0 L28,0 L28,28 L0,28 Z " fill="#010101" transform="translate(0,0)"/>
<path d="M0,0 L5,0 L9,4 L9,11 L7,15 L5,15 L3,19 L-3,20 L-5,18 L-5,7 Z " fill="#D2D2D2" transform="translate(13,5)"/>
<path d="M0,0 L4,0 L4,9 L2,13 L-1,15 L-4,15 L-5,9 L-3,3 L-1,3 Z " fill="#0A0A0A" transform="translate(15,8)"/>
<path d="M0,0 L1,4 L-1,4 L-2,13 L-1,17 L-5,16 L-5,5 Z " fill="#E3E3E3" transform="translate(13,7)"/>
<path d="M0,0 L1,0 L2,9 L1,11 L-1,11 L-3,15 L-9,16 L-4,12 L-2,12 Z " fill="#BABABA" transform="translate(19,9)"/>
</svg>
