<?xml version="1.0" encoding="UTF-8"?>
<svg version="1.1" xmlns="http://www.w3.org/2000/svg" width="28" height="28">
<path d="M0,0 L28,0 L28,28 L0,28 Z " fill="#030303" transform="translate(0,0)"/>
<path d="M0,0 L5,0 L2,11 L-3,16 L-8,18 L-14,17 L-15,16 L-15,10 L-6,2 Z " fill="#E6E6E6" transform="translate(19,6)"/>
<path d="M0,0 L5,0 L2,11 L-3,16 L-6,17 L-5,12 L-3,11 L-1,5 L-5,7 L-9,6 L-4,1 Z " fill="#ECECEC" transform="translate(19,6)"/>
<path d="M0,0 L3,0 L1,7 L-2,9 L-7,9 L-8,7 L-4,2 Z " fill="#0D0D0D" transform="translate(15,11)"/>
<path d="M0,0 L2,1 L-1,6 L-4,7 L-5,12 L-6,12 L-6,6 Z " fill="#CDCDCD" transform="translate(10,10)"/>
</svg>
