<?xml version="1.0" encoding="UTF-8"?>
<svg version="1.1" xmlns="http://www.w3.org/2000/svg" width="28" height="28">
<path d="M0,0 L28,0 L28,28 L0,28 Z " fill="#030303" transform="translate(0,0)"/>
<path d="M0,0 L4,1 L6,5 L6,14 L2,19 L-1,20 L-9,20 L-12,17 L-12,10 L-9,3 L-7,1 L-4,1 L-3,3 Z " fill="#D4D4D4" transform="translate(18,4)"/>
<path d="M0,0 L2,1 L2,9 L-2,14 L-10,14 L-11,13 L-10,5 L-7,1 L-5,1 L-7,10 L-4,4 Z " fill="#0D0D0D" transform="translate(19,7)"/>
<path d="M0,0 L3,0 L3,3 L-1,7 L-2,15 L4,16 L3,19 L-2,19 L-5,16 L-5,9 L-2,2 Z " fill="#EAEAEA" transform="translate(11,5)"/>
</svg>
