<?xml version="1.0" encoding="UTF-8"?>
<svg version="1.1" xmlns="http://www.w3.org/2000/svg" width="28" height="28">
<path d="M0,0 L28,0 L28,28 L0,28 Z " fill="#030303" transform="translate(0,0)"/>
<path d="M0,0 L7,1 L13,6 L14,8 L14,15 L10,19 L8,20 L1,20 L-4,16 L-4,5 Z " fill="#0C0C0C" transform="translate(10,4)"/>
<path d="M0,0 L7,1 L13,6 L14,8 L14,15 L10,19 L8,20 L1,20 L-4,16 L-4,5 Z M1,2 L-2,5 L-2,15 L2,18 L9,17 L11,15 L11,7 L9,5 L5,5 L4,2 Z " fill="#EAEAEA" transform="translate(10,4)"/>
<path d="M0,0 L5,1 L7,4 L7,11 L4,11 L3,3 Z " fill="#C7C7C7" transform="translate(17,8)"/>
</svg>
