<?xml version="1.0" encoding="UTF-8"?>
<svg version="1.1" xmlns="http://www.w3.org/2000/svg" width="28" height="28">
<path d="M0,0 L28,0 L28,28 L0,28 Z " fill="#020202" transform="translate(0,0)"/>
<path d="M0,0 L6,0 L11,5 L13,7 L13,13 L10,16 L-1,16 L-6,12 L-7,7 L-2,1 Z " fill="#070707" transform="translate(11,6)"/>
<path d="M0,0 L6,0 L11,5 L13,7 L13,13 L10,16 L-1,16 L-6,12 L-7,7 L-2,1 Z M-1,3 L-4,6 L-5,10 L-2,13 L2,14 L9,14 L11,9 L8,4 Z " fill="#D4D4D4" transform="translate(11,6)"/>
<path d="M0,0 L3,1 L0,2 L-1,8 L0,12 L-4,8 L-3,3 Z " fill="#EAEAEA" transform="translate(8,8)"/>
</svg>
