<?xml version="1.0" encoding="UTF-8"?>
<svg version="1.1" xmlns="http://www.w3.org/2000/svg" width="28" height="28">
<path d="M0,0 L28,0 L28,28 L0,28 Z " fill="#010101" transform="translate(0,0)"/>
<path d="M0,0 L4,0 L5,3 L10,6 L10,13 L6,18 L2,20 L-5,19 L-7,17 L-7,9 L-1,1 Z " fill="#E7E7E7" transform="translate(13,4)"/>
<path d="M0,0 L7,2 L9,6 L6,11 L-1,12 L-3,11 L-2,2 Z " fill="#070707" transform="translate(12,9)"/>
<path d="M0,0 L2,0 L1,8 L-2,11 L-2,3 Z " fill="#B6B6B6" transform="translate(8,10)"/>
</svg>
