<?xml version="1.0" encoding="UTF-8"?>
<svg version="1.1" xmlns="http://www.w3.org/2000/svg" width="28" height="28">
<path d="M0,0 L28,0 L28,28 L0,28 Z " fill="#020202" transform="translate(0,0)"/>
<path d="M0,0 L5,1 L6,2 L6,11 L2,17 L-3,20 L-8,20 L-9,19 L-8,12 L-3,1 Z " fill="#E3E3E3" transform="translate(16,4)"/>
<path d="M0,0 L4,1 L3,9 L0,14 L-7,15 L-4,5 L-2,1 Z " fill="#0D0D0D" transform="translate(16,6)"/>
<path d="M0,0 L3,1 L1,7 L-2,9 Z " fill="#C9C9C9" transform="translate(19,12)"/>
</svg>
