<?xml version="1.0" encoding="UTF-8"?>
<svg version="1.1" xmlns="http://www.w3.org/2000/svg" width="28" height="28">
<path d="M0,0 L28,0 L28,28 L0,28 Z " fill="#030303" transform="translate(0,0)"/>
<path d="M0,0 L5,0 L7,4 L7,16 L2,19 L-4,20 L-6,18 L-6,8 L-2,1 Z " fill="#E1E1E1" transform="translate(14,4)"/>
<path d="M0,0 L4,1 L4,13 L-4,14 L-4,6 L-2,6 L-1,2 Z " fill="#090909" transform="translate(14,7)"/>
<path d="M0,0 L3,0 L3,12 L0,14 L-3,12 L0,12 Z " fill="#C5C5C5" transform="translate(18,8)"/>
<path d="M0,0 L1,0 L1,5 L3,5 L2,9 L0,10 L-3,8 L0,8 Z " fill="#AEAEAE" transform="translate(18,12)"/>
</svg>
