<?xml version="1.0" encoding="UTF-8"?>
<svg version="1.1" xmlns="http://www.w3.org/2000/svg" width="28" height="28">
<path d="M0,0 L28,0 L28,28 L0,28 Z " fill="#030303" transform="translate(0,0)"/>
<path d="M0,0 L7,0 L13,3 L13,11 L9,16 L3,20 L-1,20 L-5,16 L-6,10 L-4,4 Z " fill="#E9E9E9" transform="translate(11,5)"/>
<path d="M0,0 L7,0 L11,3 L9,7 L4,12 L0,14 L-3,11 L-3,5 Z " fill="#080808" transform="translate(11,8)"/>
<path d="M0,0 L7,2 L7,3 L0,4 L-2,7 L-5,7 L-3,2 Z " fill="#C9C9C9" transform="translate(11,5)"/>
</svg>
