<?xml version="1.0" encoding="UTF-8"?>
<svg version="1.1" xmlns="http://www.w3.org/2000/svg" width="28" height="28">
<path d="M0,0 L28,0 L28,28 L0,28 Z " fill="#020202" transform="translate(0,0)"/>
<path d="M0,0 L5,0 L6,5 L5,9 L4,12 L0,15 L-2,15 L-2,17 L-8,20 L-13,19 L-14,14 L-7,5 L-2,1 Z " fill="#0F0F0F" transform="translate(19,4)"/>
<path d="M0,0 L4,0 L3,3 L-2,5 L-10,13 L-11,16 L-9,17 L-3,14 L3,7 L4,5 L6,5 L5,9 L4,12 L0,15 L-2,15 L-2,17 L-8,20 L-13,19 L-14,14 L-7,5 L-2,1 Z " fill="#DEDEDE" transform="translate(19,4)"/>
<path d="M0,0 L2,0 L1,4 L0,7 L-5,10 L-5,7 L-1,2 Z " fill="#BEBEBE" transform="translate(23,9)"/>
<path d="M0,0 L2,1 L1,4 L2,6 L-1,7 L-2,2 Z " fill="#BFBFBF" transform="translate(7,16)"/>
</svg>
