<?xml version="1.0" encoding="UTF-8"?>
<svg version="1.1" xmlns="http://www.w3.org/2000/svg" width="28" height="28">
<path d="M0,0 L28,0 L28,28 L0,28 Z " fill="#020202" transform="translate(0,0)"/>
<path d="M0,0 L3,0 L3,2 L5,3 L3,3 L3,8 L0,14 L-4,18 L-12,19 L-15,16 L-14,12 L-8,5 L-4,3 L-3,1 Z " fill="#0F0F0F" transform="translate(21,4)"/>
<path d="M0,0 L3,0 L3,2 L-7,8 L-12,16 L-6,16 L1,6 L3,4 L2,9 L0,14 L-4,18 L-12,19 L-15,16 L-14,12 L-8,5 L-4,3 L-3,1 Z " fill="#D4D4D4" transform="translate(21,4)"/>
<path d="M0,0 L3,0 L3,2 L-6,7 L-8,5 L-4,3 L-3,1 Z " fill="#BABABA" transform="translate(21,4)"/>
</svg>
