<?xml version="1.0" encoding="UTF-8"?>
<svg version="1.1" xmlns="http://www.w3.org/2000/svg" width="28" height="28">
<path d="M0,0 L28,0 L28,28 L0,28 Z " fill="#030303" transform="translate(0,0)"/>
<path d="M0,0 L7,2 L9,4 L10,11 L7,16 L4,19 L-1,20 L-6,17 L-7,16 L-7,9 L-2,1 Z " fill="#0A0A0A" transform="translate(13,4)"/>
<path d="M0,0 L7,2 L9,4 L10,11 L7,16 L4,19 L-1,20 L-6,17 L-7,16 L-7,9 L-2,1 Z M0,3 L-2,4 L-4,9 L-4,15 L-2,17 L3,17 L3,15 L6,14 L7,6 L6,4 Z " fill="#DDDDDD" transform="translate(13,4)"/>
<path d="M0,0 L1,0 L1,5 L9,7 L9,5 L14,2 L13,6 L10,9 L5,10 L0,7 Z " fill="#EBEBEB" transform="translate(7,14)"/>
<path d="M0,0 L2,3 L1,9 L-2,10 L-2,3 Z " fill="#A9A9A9" transform="translate(8,10)"/>
</svg>
