<?xml version="1.0" encoding="UTF-8"?>
<svg version="1.1" xmlns="http://www.w3.org/2000/svg" width="28" height="28">
<path d="M0,0 L28,0 L28,28 L0,28 Z " fill="#030303" transform="translate(0,0)"/>
<path d="M0,0 L3,0 L6,4 L7,9 L5,13 L0,16 L-9,18 L-13,16 L-13,8 L-12,6 L-10,6 L-8,2 Z " fill="#E3E3E3" transform="translate(18,6)"/>
<path d="M0,0 L3,0 L6,4 L5,8 L5,6 L-4,7 L-5,9 L-9,9 L-11,10 L-10,4 L-8,2 Z " fill="#EDEDED" transform="translate(18,6)"/>
<path d="M0,0 L7,0 L6,4 L4,4 L4,6 L-3,8 L-9,7 L-8,3 L-4,1 L-2,1 Z " fill="#191919" transform="translate(16,12)"/>
</svg>
