<?xml version="1.0" encoding="UTF-8"?>
<svg version="1.1" xmlns="http://www.w3.org/2000/svg" width="28" height="28">
<path d="M0,0 L28,0 L28,28 L0,28 Z " fill="#030303" transform="translate(0,0)"/>
<path d="M0,0 L6,1 L11,8 L11,14 L6,19 L1,20 L-4,18 L-5,16 L-5,8 L-2,2 L0,2 Z " fill="#0F0F0F" transform="translate(12,4)"/>
<path d="M0,0 L6,1 L11,8 L11,14 L6,19 L1,20 L-4,18 L-5,16 L-5,8 L-2,2 L0,2 Z M3,3 L0,4 L-3,10 L-2,16 L-1,17 L6,17 L9,13 L9,8 L5,3 Z " fill="#DBDBDB" transform="translate(12,4)"/>
<path d="M0,0 L1,0 L3,7 L11,8 L10,10 L5,11 L0,9 L-1,7 L-1,1 Z " fill="#F5F5F5" transform="translate(8,13)"/>
<path d="M0,0 L4,2 L2,2 L0,8 L-3,8 L-1,2 Z " fill="#C8C8C8" transform="translate(10,6)"/>
</svg>
