<?xml version="1.0" encoding="UTF-8"?>
<svg version="1.1" xmlns="http://www.w3.org/2000/svg" width="28" height="28">
<path d="M0,0 L28,0 L28,28 L0,28 Z " fill="#020202" transform="translate(0,0)"/>
<path d="M0,0 L4,1 L3,7 L1,7 L-1,12 L-7,16 L-14,15 L-16,13 L-15,9 L-10,4 Z " fill="#BFBFBF" transform="translate(21,6)"/>
<path d="M0,0 L3,0 L1,6 L-3,10 L-8,11 L-11,10 L-10,5 Z " fill="#0A0A0A" transform="translate(19,9)"/>
<path d="M0,0 L3,1 L0,3 L-1,7 L7,6 L11,5 L7,9 L0,10 L-4,7 L-3,3 Z " fill="#D6D6D6" transform="translate(9,12)"/>
<path d="M0,0 L3,0 L4,5 L2,5 L1,9 L-2,8 L2,1 Z " fill="#A6A6A6" transform="translate(20,8)"/>
</svg>
