<?xml version="1.0" encoding="UTF-8"?>
<svg version="1.1" xmlns="http://www.w3.org/2000/svg" width="28" height="28">
<path d="M0,0 L28,0 L28,28 L0,28 Z " fill="#020202" transform="translate(0,0)"/>
<path d="M0,0 L3,0 L3,2 L7,4 L10,10 L9,16 L4,20 L-3,19 L-6,14 L-6,6 L-2,1 Z " fill="#0A0A0A" transform="translate(13,4)"/>
<path d="M0,0 L3,0 L3,2 L7,4 L10,10 L9,16 L4,20 L-3,19 L-6,14 L-6,6 L-2,1 Z M0,4 L-4,7 L-3,16 L-1,18 L4,17 L7,15 L7,7 L4,4 Z " fill="#D8D8D8" transform="translate(13,4)"/>
<path d="M0,0 L3,0 L3,2 L7,4 L10,10 L9,16 L7,14 L6,7 L4,5 L0,4 Z " fill="#C2C2C2" transform="translate(13,4)"/>
<path d="M0,0 L3,1 L2,4 L-3,7 L-2,2 Z " fill="#F2F2F2" transform="translate(11,5)"/>
</svg>
