<?xml version="1.0" encoding="UTF-8"?>
<svg version="1.1" xmlns="http://www.w3.org/2000/svg" width="28" height="28">
<path d="M0,0 L28,0 L28,28 L0,28 Z " fill="#020202" transform="translate(0,0)"/>
<path d="M0,0 L2,0 L7,7 L8,10 L8,17 L4,20 L-2,20 L-5,15 L-5,8 Z " fill="#060606" transform="translate(13,3)"/>
<path d="M0,0 L2,0 L7,7 L8,10 L8,17 L4,20 L-2,20 L-5,15 L-5,8 Z M1,3 L-3,7 L-3,16 L-2,18 L4,18 L7,15 L6,9 L2,3 Z " fill="#CECECE" transform="translate(13,3)"/>
<path d="M0,0 L2,0 L1,4 L-2,7 L-3,13 L-5,11 L-4,6 Z " fill="#AAAAAA" transform="translate(13,3)"/>
</svg>
