<?xml version="1.0" encoding="UTF-8"?>
<svg version="1.1" xmlns="http://www.w3.org/2000/svg" width="28" height="28">
<path d="M0,0 L28,0 L28,28 L0,28 Z " fill="#020202" transform="translate(0,0)"/>
<path d="M0,0 L4,1 L7,4 L7,12 L2,17 L-1,19 L-10,18 L-13,16 L-12,10 L-10,6 L-4,2 Z " fill="#E6E6E6" transform="translate(17,5)"/>
<path d="M0,0 L6,0 L7,1 L6,8 L2,11 L-6,11 L-7,6 Z " fill="#070707" transform="translate(14,10)"/>
<path d="M0,0 L1,3 L-5,7 L-9,7 L-9,5 L-11,4 L-3,2 Z " fill="#CFCFCF" transform="translate(21,17)"/>
</svg>
