<?xml version="1.0" encoding="UTF-8"?>
<svg version="1.1" xmlns="http://www.w3.org/2000/svg" width="28" height="28">
<path d="M0,0 L28,0 L28,28 L0,28 Z " fill="#020202" transform="translate(0,0)"/>
<path d="M0,0 L4,1 L5,4 L7,5 L7,14 L5,14 L4,17 L-1,20 L-8,20 L-11,16 L-10,9 L-4,2 Z " fill="#EAEAEA" transform="translate(17,4)"/>
<path d="M0,0 L2,0 L2,2 L4,2 L4,10 L1,13 L-7,14 L-8,9 Z " fill="#0E0E0E" transform="translate(17,7)"/>
<path d="M0,0 L3,1 L-2,6 L-4,7 L-3,3 Z " fill="#CDCDCD" transform="translate(17,4)"/>
</svg>
