<?xml version="1.0" encoding="UTF-8"?>
<svg version="1.1" xmlns="http://www.w3.org/2000/svg" width="28" height="28">
<path d="M0,0 L28,0 L28,28 L0,28 Z " fill="#030303" transform="translate(0,0)"/>
<path d="M0,0 L5,0 L8,4 L7,13 L-1,19 L-9,19 L-12,17 L-11,11 L-3,2 Z " fill="#0F0F0F" transform="translate(16,5)"/>
<path d="M0,0 L5,0 L8,4 L7,13 L-1,19 L-3,18 L-1,15 L3,13 L4,11 L4,4 L-2,5 L-8,13 L-9,16 L-4,17 L-5,19 L-11,18 L-12,13 L-6,5 Z " fill="#E9E9E9" transform="translate(16,5)"/>
<path d="M0,0 L3,0 L1,4 L-5,8 L-7,7 L-5,4 L-1,2 Z " fill="#C9C9C9" transform="translate(20,16)"/>
</svg>
