<?xml version="1.0" encoding="UTF-8"?>
<svg version="1.1" xmlns="http://www.w3.org/2000/svg" width="28" height="28">
<path d="M0,0 L28,0 L28,28 L0,28 Z " fill="#030303" transform="translate(0,0)"/>
<path d="M0,0 L2,0 L0,4 L-5,8 L-5,11 L-3,12 L6,11 L9,10 L8,4 L4,1 L8,0 L12,4 L11,11 L7,14 L4,15 L-4,15 L-8,11 L-7,6 Z " fill="#ACACAC" transform="translate(12,7)"/>
<path d="M0,0 L2,0 L0,4 L-5,8 L-5,11 L-1,14 L-6,13 L-8,11 L-7,6 Z " fill="#DCDCDC" transform="translate(12,7)"/>
<path d="M0,0 L4,1 L7,4 L7,9 L5,10 L3,4 L-1,1 Z " fill="#E7E7E7" transform="translate(17,7)"/>
</svg>
