<?xml version="1.0" encoding="UTF-8"?>
<svg version="1.1" xmlns="http://www.w3.org/2000/svg" width="28" height="28">
<path d="M0,0 L28,0 L28,28 L0,28 Z " fill="#020202" transform="translate(0,0)"/>
<path d="M0,0 L11,0 L8,1 L11,7 L11,17 L6,20 L1,20 L-5,17 L-7,12 L-6,6 L-2,1 Z " fill="#D5D5D5" transform="translate(13,5)"/>
<path d="M0,0 L4,2 L5,3 L5,11 L3,13 L-4,13 L-7,11 L-6,6 L-5,4 L-3,4 L-3,2 Z " fill="#080808" transform="translate(17,9)"/>
<path d="M0,0 L1,2 L3,2 L2,11 L-2,10 L-3,3 Z " fill="#EEEEEE" transform="translate(9,10)"/>
</svg>
