<?xml version="1.0" encoding="UTF-8"?>
<svg version="1.1" xmlns="http://www.w3.org/2000/svg" width="28" height="28">
<path d="M0,0 L28,0 L28,28 L0,28 Z " fill="#020202" transform="translate(0,0)"/>
<path d="M0,0 L6,1 L9,4 L10,7 L10,14 L7,19 L2,20 L-2,15 L-2,3 Z " fill="#E7E7E7" transform="translate(11,4)"/>
<path d="M0,0 L4,1 L6,3 L7,11 L4,16 L2,16 L-1,12 L-1,3 Z " fill="#0D0D0D" transform="translate(12,6)"/>
<path d="M0,0 L6,1 L9,4 L10,7 L10,14 L7,10 L5,4 L1,2 L0,5 Z " fill="#D4D4D4" transform="translate(11,4)"/>
<path d="M0,0 L2,3 L2,10 L-1,6 Z " fill="#BABABA" transform="translate(19,8)"/>
</svg>
