<?xml version="1.0" encoding="UTF-8"?>
<svg version="1.1" xmlns="http://www.w3.org/2000/svg" width="28" height="28">
<path d="M0,0 L28,0 L28,28 L0,28 Z " fill="#040404" transform="translate(0,0)"/>
<path d="M0,0 L5,2 L8,8 L7,14 L5,14 L5,16 L0,18 L1,20 L-4,20 L-6,17 L-6,8 L-2,2 Z " fill="#F3F3F3" transform="translate(14,5)"/>
<path d="M0,0 L4,1 L6,6 L4,9 L1,9 L1,11 L-4,10 L-3,3 Z " fill="#151515" transform="translate(14,10)"/>
<path d="M0,0 L1,3 L7,3 L7,1 L11,2 L8,4 L6,5 L7,7 L2,7 L0,4 Z " fill="#D2D2D2" transform="translate(8,18)"/>
</svg>
