<?xml version="1.0" encoding="UTF-8"?>
<svg version="1.1" xmlns="http://www.w3.org/2000/svg" width="28" height="28">
<path d="M0,0 L28,0 L28,28 L0,28 Z " fill="#020202" transform="translate(0,0)"/>
<path d="M0,0 L5,1 L7,2 L7,7 L2,12 L-3,14 L-11,14 L-13,10 Z " fill="#E7E7E7" transform="translate(17,7)"/>
<path d="M0,0 L2,0 L2,5 L-3,10 L-8,12 L-16,12 L-16,8 L-15,10 L-7,8 L-3,6 L-2,4 L0,4 Z " fill="#E7E7E7" transform="translate(22,9)"/>
<path d="M0,0 L4,0 L3,5 L-2,8 L-8,8 L-7,5 L-1,1 Z " fill="#0F0F0F" transform="translate(17,10)"/>
<path d="M0,0 L2,1 L0,5 L3,7 L-3,7 L-6,7 L-5,4 Z " fill="#CBCBCB" transform="translate(10,12)"/>
</svg>
