<?xml version="1.0" encoding="UTF-8"?>
<svg version="1.1" xmlns="http://www.w3.org/2000/svg" width="28" height="28">
<path d="M0,0 L28,0 L28,28 L0,28 Z " fill="#030303" transform="translate(0,0)"/>
<path d="M0,0 L5,0 L10,4 L11,6 L11,12 L7,16 L1,19 L-8,17 L-9,11 L-6,4 L-3,1 Z " fill="#EEEEEE" transform="translate(14,6)"/>
<path d="M0,0 L2,0 L2,4 L5,4 L5,2 L9,4 L9,7 L7,7 L7,11 L1,13 L-1,14 L-1,12 L-5,11 L-5,5 Z " fill="#0E0E0E" transform="translate(14,9)"/>
<path d="M0,0 L3,1 L4,7 L8,9 L10,7 L15,7 L16,3 L16,8 L9,12 L0,10 L-1,4 Z " fill="#CECECE" transform="translate(6,13)"/>
<path d="M0,0 L1,0 L1,5 L-6,9 L-8,8 L-5,4 L0,4 Z " fill="#707070" transform="translate(21,16)"/>
</svg>
