<?xml version="1.0" encoding="UTF-8"?>
<svg version="1.1" xmlns="http://www.w3.org/2000/svg" width="28" height="28">
<path d="M0,0 L28,0 L28,28 L0,28 Z " fill="#030303" transform="translate(0,0)"/>
<path d="M0,0 L7,1 L9,4 L9,8 L7,8 L5,12 L-4,13 L-6,11 L-5,4 Z " fill="#E5E5E5" transform="translate(13,8)"/>
<path d="M0,0 L7,1 L8,6 L1,5 L-3,6 L-4,9 L-6,8 L-4,3 Z " fill="#E6E6E6" transform="translate(13,8)"/>
<path d="M0,0 L5,0 L4,4 L0,6 L-4,6 L-4,2 Z " fill="#161616" transform="translate(14,12)"/>
<path d="M0,0 L1,4 L-1,4 L-3,8 L-5,8 L-5,4 Z " fill="#C6C6C6" transform="translate(21,12)"/>
</svg>
