<?xml version="1.0" encoding="UTF-8"?>
<svg version="1.1" xmlns="http://www.w3.org/2000/svg" width="28" height="28">
<path d="M0,0 L28,0 L28,28 L0,28 Z " fill="#040404" transform="translate(0,0)"/>
<path d="M0,0 L4,2 L5,4 L5,13 L0,18 L-3,20 L-11,20 L-14,17 L-13,10 L-10,5 L-4,1 Z " fill="#E8E8E8" transform="translate(19,4)"/>
<path d="M0,0 L4,2 L5,4 L5,13 L2,15 L0,6 L2,6 L2,4 L-6,11 L-7,8 L-9,8 L-7,3 Z " fill="#EEEEEE" transform="translate(19,4)"/>
<path d="M0,0 L2,0 L2,2 L0,2 L2,5 L2,10 L-2,12 L-10,12 L-9,4 L-7,4 L-6,6 Z " fill="#0F0F0F" transform="translate(19,8)"/>
</svg>
