<?xml version="1.0" encoding="UTF-8"?>
<svg version="1.1" xmlns="http://www.w3.org/2000/svg" width="28" height="28">
<path d="M0,0 L28,0 L28,28 L0,28 Z " fill="#020202" transform="translate(0,0)"/>
<path d="M0,0 L7,0 L11,2 L12,4 L12,13 L4,17 L-4,17 L-7,16 L-8,14 L-8,8 L-2,1 Z " fill="#0F0F0F" transform="translate(12,7)"/>
<path d="M0,0 L7,0 L11,2 L12,4 L12,13 L4,17 L-4,17 L-7,16 L-8,14 L-8,8 L-2,1 Z M1,4 L-3,5 L-5,8 L-5,14 L-4,15 L5,15 L9,13 L10,6 L9,4 Z " fill="#D6D6D6" transform="translate(12,7)"/>
<path d="M0,0 L7,0 L11,2 L12,5 L10,9 L9,4 L1,5 L-3,4 Z " fill="#ECECEC" transform="translate(12,7)"/>
</svg>
