<?xml version="1.0" encoding="UTF-8"?>
<svg version="1.1" xmlns="http://www.w3.org/2000/svg" width="28" height="28">
<path d="M0,0 L28,0 L28,28 L0,28 Z " fill="#010101" transform="translate(0,0)"/>
<path d="M0,0 L5,1 L7,3 L7,10 L5,15 L-1,20 L-6,19 L-7,18 L-7,9 L-1,1 Z " fill="#DCDCDC" transform="translate(15,4)"/>
<path d="M0,0 L3,0 L3,9 L-2,14 L-5,14 L-5,7 L-2,2 Z " fill="#0D0D0D" transform="translate(16,7)"/>
<path d="M0,0 L1,0 L1,6 L5,7 L4,9 L0,8 L-1,7 Z " fill="#F2F2F2" transform="translate(9,15)"/>
</svg>
