<?xml version="1.0" encoding="UTF-8"?>
<svg version="1.1" xmlns="http://www.w3.org/2000/svg" width="28" height="28">
<path d="M0,0 L28,0 L28,28 L0,28 Z " fill="#020202" transform="translate(0,0)"/>
<path d="M0,0 L5,1 L5,12 L-1,19 L-8,20 L-10,18 L-10,11 L-6,4 L-4,1 Z " fill="#C5C5C5" transform="translate(17,4)"/>
<path d="M0,0 L5,0 L6,3 L4,10 L-1,14 L-5,14 L-5,7 L-1,1 Z " fill="#060606" transform="translate(15,7)"/>
<path d="M0,0 L2,0 L0,4 L-3,10 L-4,15 L-5,15 L-5,6 Z " fill="#E9E9E9" transform="translate(13,6)"/>
</svg>
