<?xml version="1.0" encoding="UTF-8"?>
<svg version="1.1" xmlns="http://www.w3.org/2000/svg" width="28" height="28">
<path d="M0,0 L28,0 L28,28 L0,28 Z " fill="#030303" transform="translate(0,0)"/>
<path d="M0,0 L4,1 L7,10 L3,15 L0,19 L-7,20 L-9,18 L-9,11 L-7,8 L-5,8 L-5,5 L-2,5 L-2,2 L0,2 Z " fill="#E1E1E1" transform="translate(16,4)"/>
<path d="M0,0 L2,0 L0,9 L7,7 L8,4 L9,6 L5,12 L-2,13 L-4,11 L-4,4 Z " fill="#E9E9E9" transform="translate(11,11)"/>
<path d="M0,0 L2,0 L2,7 L-2,9 L-5,9 L-5,4 L-2,3 L-2,1 Z " fill="#1A1A1A" transform="translate(16,11)"/>
</svg>
