<?xml version="1.0" encoding="UTF-8"?>
<svg version="1.1" xmlns="http://www.w3.org/2000/svg" width="28" height="28">
<path d="M0,0 L28,0 L28,28 L0,28 Z " fill="#020202" transform="translate(0,0)"/>
<path d="M0,0 L5,1 L9,6 L9,11 L5,16 L-2,20 L-7,20 L-8,14 L-2,2 Z " fill="#EAEAEA" transform="translate(14,4)"/>
<path d="M0,0 L5,4 L5,7 L3,7 L3,10 L-5,13 L-6,11 L-1,1 Z " fill="#0C0C0C" transform="translate(15,8)"/>
<path d="M0,0 L2,3 L-1,6 L-6,5 L-3,3 L0,3 Z " fill="#CCCCCC" transform="translate(18,15)"/>
</svg>
