<?xml version="1.0" encoding="UTF-8"?>
<svg version="1.1" xmlns="http://www.w3.org/2000/svg" width="28" height="28">
<path d="M0,0 L28,0 L28,28 L0,28 Z " fill="#020202" transform="translate(0,0)"/>
<path d="M0,0 L4,1 L7,4 L8,6 L8,13 L5,19 L-1,20 L-5,16 L-4,9 L-1,4 L-2,1 Z " fill="#DADADA" transform="translate(13,4)"/>
<path d="M0,0 L4,1 L7,4 L8,6 L8,13 L7,16 L5,16 L4,6 L1,6 L-1,11 L-4,12 L-3,8 L-1,4 L-2,1 Z " fill="#EEEEEE" transform="translate(13,4)"/>
<path d="M0,0 L3,0 L4,7 L3,10 L-1,10 L-2,4 Z " fill="#0E0E0E" transform="translate(14,10)"/>
</svg>
