<?xml version="1.0" encoding="UTF-8"?>
<svg version="1.1" xmlns="http://www.w3.org/2000/svg" width="28" height="28">
<path d="M0,0 L28,0 L28,28 L0,28 Z " fill="#030303" transform="translate(0,0)"/>
<path d="M0,0 L5,0 L12,7 L12,14 L7,19 L6,20 L-1,19 L-3,18 L-3,16 L-6,15 L-7,6 L-2,1 Z " fill="#080808" transform="translate(12,5)"/>
<path d="M0,0 L5,0 L12,7 L12,14 L7,19 L6,20 L-1,19 L-3,18 L-3,16 L-6,15 L-7,6 L-2,1 Z M2,2 L-4,6 L-4,13 L1,18 L8,17 L10,14 L10,8 L5,3 Z " fill="#CDCDCD" transform="translate(12,5)"/>
<path d="M0,0 L5,0 L12,7 L12,13 L10,9 L8,5 L2,3 L-4,5 L-2,1 Z " fill="#E4E4E4" transform="translate(12,5)"/>
</svg>
