<?xml version="1.0" encoding="UTF-8"?>
<svg version="1.1" xmlns="http://www.w3.org/2000/svg" width="28" height="28">
<path d="M0,0 L28,0 L28,28 L0,28 Z " fill="#020202" transform="translate(0,0)"/>
<path d="M0,0 L4,1 L6,2 L7,7 L8,14 L2,19 L-1,20 L-8,20 L-12,16 L-11,10 L-6,4 Z " fill="#0B0B0B" transform="translate(16,3)"/>
<path d="M0,0 L4,1 L6,2 L6,4 L0,3 L-7,9 L-9,13 L-9,16 L0,17 L5,13 L4,8 L1,6 L5,5 L8,9 L8,14 L2,19 L-1,20 L-8,20 L-12,16 L-11,10 L-6,4 Z " fill="#D5D5D5" transform="translate(16,3)"/>
<path d="M0,0 L4,1 L6,2 L6,4 L0,3 L-6,8 L-9,7 Z " fill="#B8B8B8" transform="translate(16,3)"/>
</svg>
