<?xml version="1.0" encoding="UTF-8"?>
<svg version="1.1" xmlns="http://www.w3.org/2000/svg" width="28" height="28">
<path d="M0,0 L28,0 L28,28 L0,28 Z " fill="#050505" transform="translate(0,0)"/>
<path d="M0,0 L6,1 L11,4 L12,6 L12,12 L7,18 L4,20 L-5,20 L-6,19 L-6,10 L-1,1 Z " fill="#0C0C0C" transform="translate(12,4)"/>
<path d="M0,0 L6,1 L11,4 L12,6 L12,12 L7,18 L4,20 L-5,20 L-6,19 L-6,10 L-1,1 Z M2,3 L0,5 L0,8 L-3,8 L-5,12 L-5,17 L-4,18 L3,17 L8,14 L10,12 L10,6 L6,3 Z " fill="#F3F3F3" transform="translate(12,4)"/>
<path d="M0,0 L6,1 L11,4 L12,7 L10,10 L8,5 L2,4 L0,8 L-3,8 L-4,11 L-5,8 Z " fill="#DDDDDD" transform="translate(12,4)"/>
</svg>
