<?xml version="1.0" encoding="UTF-8"?>
<svg version="1.1" xmlns="http://www.w3.org/2000/svg" width="28" height="28">
<path d="M0,0 L28,0 L28,28 L0,28 Z " fill="#010101" transform="translate(0,0)"/>
<path d="M0,0 L5,1 L6,3 L6,12 L3,19 L-2,20 L-4,18 L-4,9 L-1,1 Z " fill="#0C0C0C" transform="translate(14,4)"/>
<path d="M0,0 L2,1 L-1,7 L-2,18 L1,17 L3,12 L3,1 L5,1 L6,3 L6,12 L3,19 L-2,20 L-4,18 L-4,9 L-1,1 Z " fill="#DADADA" transform="translate(14,4)"/>
<path d="M0,0 L2,0 L3,2 L3,11 L1,16 L-1,16 L0,11 Z " fill="#BBBBBB" transform="translate(17,5)"/>
</svg>
