<?xml version="1.0" encoding="UTF-8"?>
<svg version="1.1" xmlns="http://www.w3.org/2000/svg" width="28" height="28">
<path d="M0,0 L28,0 L28,28 L0,28 Z " fill="#030303" transform="translate(0,0)"/>
<path d="M0,0 L4,1 L6,3 L6,11 L1,16 L-8,19 L-12,18 L-14,16 L-13,9 L-8,5 L-1,1 Z " fill="#EAEAEA" transform="translate(19,4)"/>
<path d="M0,0 L2,0 L2,7 L-2,11 L-10,12 L-7,6 L-5,4 L-2,4 Z " fill="#0F0F0F" transform="translate(20,7)"/>
<path d="M0,0 L4,1 L6,5 L4,5 L3,9 L3,3 L0,2 Z " fill="#D2D2D2" transform="translate(19,4)"/>
</svg>
