<?xml version="1.0" encoding="UTF-8"?>
<svg version="1.1" xmlns="http://www.w3.org/2000/svg" width="28" height="28">
<path d="M0,0 L28,0 L28,28 L0,28 Z " fill="#020202" transform="translate(0,0)"/>
<path d="M0,0 L9,0 L14,4 L15,10 L11,16 L7,19 L-1,20 L-5,15 L-5,8 L-2,2 Z " fill="#050505" transform="translate(10,4)"/>
<path d="M0,0 L9,0 L14,4 L15,10 L11,16 L7,19 L-1,20 L-5,15 L-5,8 L-2,2 Z M1,2 L-3,8 L-3,14 L-1,17 L6,17 L11,13 L12,11 L12,5 L9,2 Z " fill="#D8D8D8" transform="translate(10,4)"/>
</svg>
