<?xml version="1.0" encoding="UTF-8"?>
<svg version="1.1" xmlns="http://www.w3.org/2000/svg" width="28" height="28">
<path d="M0,0 L28,0 L28,28 L0,28 Z " fill="#020202" transform="translate(0,0)"/>
<path d="M0,0 L8,1 L9,2 L9,11 L3,18 L0,20 L-7,20 L-10,16 L-7,7 L-3,2 Z " fill="#060606" transform="translate(15,4)"/>
<path d="M0,0 L8,1 L9,2 L9,11 L3,18 L0,20 L-7,20 L-10,16 L-7,7 L-3,2 Z M1,2 L-4,7 L-7,12 L-7,17 L0,17 L6,13 L7,10 L7,3 L3,2 Z " fill="#D0D0D0" transform="translate(15,4)"/>
<path d="M0,0 L3,1 L1,3 L-6,3 L-6,1 Z " fill="#E4E4E4" transform="translate(14,21)"/>
</svg>
