<?xml version="1.0" encoding="UTF-8"?>
<svg version="1.1" xmlns="http://www.w3.org/2000/svg" width="28" height="28">
<path d="M0,0 L28,0 L28,28 L0,28 Z " fill="#020202" transform="translate(0,0)"/>
<path d="M0,0 L3,0 L2,4 L4,4 L8,8 L9,14 L7,14 L6,17 L-1,20 L-7,20 L-9,16 L-8,9 L-5,3 Z " fill="#DDDDDD" transform="translate(15,4)"/>
<path d="M0,0 L5,0 L5,2 L9,3 L10,7 L6,10 L-2,10 L-1,3 Z " fill="#101010" transform="translate(11,10)"/>
<path d="M0,0 L3,0 L2,4 L4,4 L7,7 L7,10 L1,8 L1,6 L-4,6 L-5,8 L-5,3 Z " fill="#EBEBEB" transform="translate(15,4)"/>
<path d="M0,0 L2,3 L2,6 L0,6 L-1,9 L-4,11 L-7,11 L-5,7 L-2,5 L-2,2 L0,2 Z " fill="#C4C4C4" transform="translate(22,12)"/>
</svg>
