<?xml version="1.0" encoding="UTF-8"?>
<svg version="1.1" xmlns="http://www.w3.org/2000/svg" width="28" height="28">
<path d="M0,0 L28,0 L28,28 L0,28 Z " fill="#010101" transform="translate(0,0)"/>
<path d="M0,0 L4,1 L9,5 L11,10 L10,17 L5,20 L-2,20 L-7,15 L-7,8 L-2,1 Z " fill="#0B0B0B" transform="translate(13,5)"/>
<path d="M0,0 L4,1 L9,5 L11,10 L10,17 L5,20 L-2,20 L-7,15 L-7,8 L-2,1 Z M0,2 L-4,7 L-5,9 L-5,15 L-2,18 L5,18 L8,16 L9,9 L6,8 L4,5 L1,5 Z " fill="#D2D2D2" transform="translate(13,5)"/>
</svg>
