<?xml version="1.0" encoding="UTF-8"?>
<svg version="1.1" xmlns="http://www.w3.org/2000/svg" width="28" height="28">
<path d="M0,0 L28,0 L28,28 L0,28 Z " fill="#020202" transform="translate(0,0)"/>
<path d="M0,0 L4,1 L7,8 L7,15 L3,19 L1,20 L-10,20 L-13,16 L-12,11 L-10,7 L-8,7 L-8,5 Z " fill="#EEEEEE" transform="translate(17,3)"/>
<path d="M0,0 L4,1 L4,11 L1,12 L-9,12 L-10,8 L-8,8 L-7,5 Z " fill="#151515" transform="translate(17,7)"/>
<path d="M0,0 L2,0 L3,3 L3,10 L0,6 Z " fill="#C3C3C3" transform="translate(21,8)"/>
</svg>
