<?xml version="1.0" encoding="UTF-8"?>
<svg version="1.1" xmlns="http://www.w3.org/2000/svg" width="28" height="28">
<path d="M0,0 L28,0 L28,28 L0,28 Z " fill="#020202" transform="translate(0,0)"/>
<path d="M0,0 L5,0 L9,5 L8,13 L3,17 L1,18 L-6,18 L-10,13 L-11,8 L-8,1 L-6,1 L-5,3 Z " fill="#0C0C0C" transform="translate(15,5)"/>
<path d="M0,0 L5,0 L9,5 L8,13 L3,17 L1,18 L-6,18 L-10,13 L-11,8 L-8,1 L-6,1 L-5,3 Z M-1,3 L-8,8 L-8,13 L-6,15 L3,14 L7,11 L6,5 L4,3 Z " fill="#D6D6D6" transform="translate(15,5)"/>
</svg>
