<?xml version="1.0" encoding="UTF-8"?>
<svg version="1.1" xmlns="http://www.w3.org/2000/svg" width="28" height="28">
<path d="M0,0 L28,0 L28,28 L0,28 Z " fill="#020202" transform="translate(0,0)"/>
<path d="M0,0 L9,0 L16,6 L16,14 L12,17 L2,18 L-3,14 L-4,11 L-4,4 L-2,4 Z " fill="#0A0A0A" transform="translate(9,6)"/>
<path d="M0,0 L5,1 L4,5 L0,5 L-2,12 L0,12 L2,15 L9,15 L14,14 L13,7 L12,4 L6,2 L6,0 L10,1 L16,6 L16,14 L12,17 L2,18 L-3,14 L-4,11 L-4,4 L-2,4 Z " fill="#D3D3D3" transform="translate(9,6)"/>
</svg>
