<?xml version="1.0" encoding="UTF-8"?>
<svg version="1.1" xmlns="http://www.w3.org/2000/svg" width="28" height="28">
<path d="M0,0 L28,0 L28,28 L0,28 Z " fill="#030303" transform="translate(0,0)"/>
<path d="M0,0 L7,0 L10,3 L10,9 L7,11 L-3,11 L-4,10 L-4,4 Z " fill="#030303" transform="translate(12,9)"/>
<path d="M0,0 L10,1 L17,7 L16,14 L11,17 L0,17 L-3,14 L-3,7 L1,2 Z M4,4 L0,8 L0,14 L1,15 L11,15 L14,13 L14,7 L11,4 Z " fill="#BFBFBF" transform="translate(8,5)"/>
<path d="M0,0 L1,2 L1,8 L13,9 L11,11 L0,11 L-3,8 L-1,1 Z " fill="#E4E4E4" transform="translate(8,11)"/>
</svg>
