<?xml version="1.0" encoding="UTF-8"?>
<svg version="1.1" xmlns="http://www.w3.org/2000/svg" width="28" height="28">
<path d="M0,0 L28,0 L28,28 L0,28 Z " fill="#030303" transform="translate(0,0)"/>
<path d="M0,0 L3,1 L3,3 L9,2 L16,8 L16,13 L9,19 L7,20 L0,20 L-3,18 L-4,14 L-4,6 Z " fill="#E6E6E6" transform="translate(9,4)"/>
<path d="M0,0 L7,1 L9,3 L8,8 L4,10 L-2,10 L-4,7 L-3,2 Z " fill="#080808" transform="translate(12,10)"/>
<path d="M0,0 L3,1 L2,5 L-2,7 L-4,9 L-3,4 Z " fill="#C0C0C0" transform="translate(9,4)"/>
</svg>
