<?xml version="1.0" encoding="UTF-8"?>
<svg version="1.1" xmlns="http://www.w3.org/2000/svg" width="28" height="28">
<path d="M0,0 L28,0 L28,28 L0,28 Z " fill="#010101" transform="translate(0,0)"/>
<path d="M0,0 L4,1 L4,3 L9,5 L12,9 L11,17 L7,20 L1,19 L-2,13 L-2,5 Z " fill="#E4E4E4" transform="translate(10,4)"/>
<path d="M0,0 L4,2 L8,5 L7,11 L5,13 L0,12 L-1,11 L-1,2 Z " fill="#0E0E0E" transform="translate(11,8)"/>
<path d="M0,0 L7,1 L11,6 L10,14 L7,12 L7,6 L0,1 Z " fill="#CECECE" transform="translate(11,7)"/>
</svg>
