<?xml version="1.0" encoding="UTF-8"?>
<svg version="1.1" xmlns="http://www.w3.org/2000/svg" width="28" height="28">
<path d="M0,0 L28,0 L28,28 L0,28 Z " fill="#030303" transform="translate(0,0)"/>
<path d="M0,0 L5,1 L7,7 L4,12 L-3,16 L-5,17 L-12,17 L-13,16 L-12,7 L-2,1 Z " fill="#E7E7E7" transform="translate(18,5)"/>
<path d="M0,0 L4,0 L4,5 L-1,9 L-4,11 L-10,11 L-9,5 L-5,2 L0,3 Z " fill="#101010" transform="translate(18,8)"/>
<path d="M0,0 L4,2 L2,2 L2,5 L-2,4 L-2,1 Z " fill="#C2C2C2" transform="translate(16,6)"/>
</svg>
