<?xml version="1.0" encoding="UTF-8"?>
<svg version="1.1" xmlns="http://www.w3.org/2000/svg" width="28" height="28">
<path d="M0,0 L28,0 L28,28 L0,28 Z " fill="#010101" transform="translate(0,0)"/>
<path d="M0,0 L4,1 L4,4 L6,4 L6,12 L3,17 L-1,20 L-8,20 L-10,17 L-10,10 L-6,4 Z " fill="#0B0B0B" transform="translate(17,4)"/>
<path d="M0,0 L4,1 L4,4 L6,4 L6,12 L3,17 L-1,20 L-8,20 L-10,17 L-10,10 L-6,4 Z M0,2 L-6,7 L-8,11 L-8,18 L-2,18 L3,14 L5,10 L4,5 L2,5 L2,2 Z " fill="#DDDDDD" transform="translate(17,4)"/>
<path d="M0,0 L1,3 L3,3 L3,11 L0,16 L-4,19 L-9,18 L-5,16 L0,11 L1,4 L-1,3 Z " fill="#B6B6B6" transform="translate(20,5)"/>
</svg>
