<?xml version="1.0" encoding="UTF-8"?>
<svg version="1.1" xmlns="http://www.w3.org/2000/svg" width="28" height="28">
<path d="M0,0 L28,0 L28,28 L0,28 Z " fill="#030303" transform="translate(0,0)"/>
<path d="M0,0 L7,0 L7,3 L11,5 L12,11 L9,16 L7,16 L7,18 L0,20 L-5,20 L-7,17 L-6,8 L-3,3 L-1,3 Z " fill="#E8E8E8" transform="translate(13,4)"/>
<path d="M0,0 L6,1 L7,5 L4,9 L2,9 L2,11 L-7,12 L-8,9 L-5,2 Z " fill="#090909" transform="translate(16,9)"/>
<path d="M0,0 L3,1 L1,10 L-2,10 L-1,1 Z " fill="#D3D3D3" transform="translate(8,11)"/>
</svg>
