<?xml version="1.0" encoding="UTF-8"?>
<svg version="1.1" xmlns="http://www.w3.org/2000/svg" width="28" height="28">
<path d="M0,0 L28,0 L28,28 L0,28 Z " fill="#020202" transform="translate(0,0)"/>
<path d="M0,0 L5,2 L5,4 L8,4 L8,13 L-1,19 L-6,20 L-10,17 L-9,10 L-5,4 Z " fill="#EBEBEB" transform="translate(16,4)"/>
<path d="M0,0 L4,2 L3,7 L-1,11 L-7,12 L-7,7 Z " fill="#131313" transform="translate(17,8)"/>
<path d="M0,0 L1,0 L1,9 L-4,12 L-4,10 L-6,9 L-4,9 L-2,5 L-1,5 Z " fill="#BCBCBC" transform="translate(23,8)"/>
</svg>
