<?xml version="1.0" encoding="UTF-8"?>
<svg version="1.1" xmlns="http://www.w3.org/2000/svg" width="28" height="28">
<path d="M0,0 L28,0 L28,28 L0,28 Z " fill="#020202" transform="translate(0,0)"/>
<path d="M0,0 L4,1 L5,2 L5,10 L2,17 L-4,20 L-9,19 L-9,13 L-5,7 L-2,4 L0,4 L-1,1 Z " fill="#D7D7D7" transform="translate(16,5)"/>
<path d="M0,0 L2,1 L4,1 L3,8 L-3,14 L-6,13 L-5,7 L-1,1 Z " fill="#0F0F0F" transform="translate(15,10)"/>
<path d="M0,0 L2,0 L2,6 L4,8 L-1,7 L-1,1 Z " fill="#E5E5E5" transform="translate(8,17)"/>
<path d="M0,0 L3,1 L-2,6 L-5,5 Z " fill="#D0D0D0" transform="translate(17,18)"/>
<path d="M0,0 L4,1 L4,6 L0,4 L-1,1 Z " fill="#FAFAFA" transform="translate(16,5)"/>
<path d="M0,0 L2,1 L-1,6 L-4,6 L-1,1 Z " fill="#3A3A3A" transform="translate(15,10)"/>
</svg>
