<?xml version="1.0" encoding="UTF-8"?>
<svg version="1.1" xmlns="http://www.w3.org/2000/svg" width="28" height="28">
<path d="M0,0 L28,0 L28,28 L0,28 Z " fill="#010101" transform="translate(0,0)"/>
<path d="M0,0 L10,1 L14,4 L13,9 L5,14 L-5,14 L-6,12 L-6,6 L-2,1 Z " fill="#060606" transform="translate(11,7)"/>
<path d="M0,0 L10,1 L14,4 L13,9 L5,14 L-5,14 L-6,12 L-6,6 L-2,1 Z M1,3 L-3,5 L-4,11 L-3,12 L4,12 L10,9 L11,5 L9,3 Z " fill="#DDDDDD" transform="translate(11,7)"/>
<path d="M0,0 L7,0 L11,3 L10,8 L6,11 L1,11 L3,9 L7,7 L6,3 L0,1 Z " fill="#CECECE" transform="translate(14,8)"/>
<path d="M0,0 L2,4 L-2,7 L-7,7 L-5,5 L-1,3 Z " fill="#B5B5B5" transform="translate(22,12)"/>
</svg>
