<?xml version="1.0" encoding="UTF-8"?>
<svg version="1.1" xmlns="http://www.w3.org/2000/svg" width="28" height="28">
<path d="M0,0 L28,0 L28,28 L0,28 Z " fill="#040404" transform="translate(0,0)"/>
<path d="M0,0 L2,2 L5,3 L5,11 L2,18 L-1,20 L-6,19 L-7,17 L-7,8 L-4,3 Z " fill="#111111" transform="translate(16,4)"/>
<path d="M0,0 L2,2 L5,3 L5,11 L2,18 L-1,20 L-6,19 L-7,17 L-7,8 L-4,3 Z M1,4 L-2,6 L-5,7 L-6,9 L-6,16 L-4,18 L0,17 L4,8 L4,4 Z " fill="#CACACA" transform="translate(16,4)"/>
<path d="M0,0 L1,3 L-1,6 L-1,13 L4,15 L3,17 L-2,16 L-3,14 L-3,5 Z " fill="#F0F0F0" transform="translate(12,7)"/>
</svg>
