<?xml version="1.0" encoding="UTF-8"?>
<svg version="1.1" xmlns="http://www.w3.org/2000/svg" width="28" height="28">
<path d="M0,0 L28,0 L28,28 L0,28 Z " fill="#000000" transform="translate(0,0)"/>
<path d="M0,0 L3,0 L3,2 L8,3 L9,4 L9,12 L5,18 L2,20 L-4,20 L-5,18 L-5,11 L-1,1 Z " fill="#E4E4E4" transform="translate(13,4)"/>
<path d="M0,0 L5,1 L4,8 L0,12 L-3,11 L-1,1 Z " fill="#0A0A0A" transform="translate(14,9)"/>
<path d="M0,0 L3,0 L2,8 L-1,5 Z " fill="#CCCCCC" transform="translate(10,9)"/>
</svg>
