<?xml version="1.0" encoding="UTF-8"?>
<svg version="1.1" xmlns="http://www.w3.org/2000/svg" width="28" height="28">
<path d="M0,0 L28,0 L28,28 L0,28 Z " fill="#020202" transform="translate(0,0)"/>
<path d="M0,0 L5,0 L8,2 L8,10 L4,14 L-1,17 L-10,18 L-12,17 L-12,6 L-9,1 Z " fill="#E4E4E4" transform="translate(17,6)"/>
<path d="M0,0 L2,0 L3,4 L5,4 L6,1 L12,1 L13,5 L8,11 L3,13 L-3,13 L-3,7 Z " fill="#0C0C0C" transform="translate(10,8)"/>
<path d="M0,0 L8,0 L5,1 L4,3 L4,1 L2,1 L1,6 L-1,3 Z " fill="#BBBBBB" transform="translate(8,7)"/>
</svg>
