<?xml version="1.0" encoding="UTF-8"?>
<svg version="1.1" xmlns="http://www.w3.org/2000/svg" width="28" height="28">
<path d="M0,0 L28,0 L28,28 L0,28 Z " fill="#020202" transform="translate(0,0)"/>
<path d="M0,0 L5,5 L5,12 L1,18 L-2,20 L-7,20 L-9,17 L-8,9 L-2,1 Z " fill="#0D0D0D" transform="translate(16,4)"/>
<path d="M0,0 L5,5 L5,12 L1,18 L-2,20 L-7,20 L-9,17 L-8,9 L-2,1 Z M-1,3 L-6,9 L-7,11 L-7,18 L-2,18 L3,12 L3,6 Z " fill="#D4D4D4" transform="translate(16,4)"/>
<path d="M0,0 L5,5 L5,12 L2,15 L2,6 L-1,2 Z " fill="#EFEFEF" transform="translate(16,4)"/>
</svg>
