<?xml version="1.0" encoding="UTF-8"?>
<svg version="1.1" xmlns="http://www.w3.org/2000/svg" width="28" height="28">
<path d="M0,0 L28,0 L28,28 L0,28 Z " fill="#020202" transform="translate(0,0)"/>
<path d="M0,0 L6,0 L7,1 L7,8 L3,14 L-4,18 L-11,17 L-13,15 L-13,10 L-6,4 L-2,4 Z " fill="#0F0F0F" transform="translate(17,6)"/>
<path d="M0,0 L6,0 L5,2 L2,1 L2,3 L4,4 L-4,7 L-9,9 L-10,14 L-6,15 L0,13 L4,7 L5,3 L7,3 L7,8 L3,14 L-4,18 L-11,17 L-13,15 L-13,10 L-6,4 L-2,4 Z " fill="#D3D3D3" transform="translate(17,6)"/>
</svg>
