<?xml version="1.0" encoding="UTF-8"?>
<svg version="1.1" xmlns="http://www.w3.org/2000/svg" width="28" height="28">
<path d="M0,0 L28,0 L28,28 L0,28 Z " fill="#020202" transform="translate(0,0)"/>
<path d="M0,0 L5,2 L7,6 L7,17 L2,20 L-7,19 L-8,17 L-8,8 L-5,2 Z " fill="#E8E8E8" transform="translate(15,4)"/>
<path d="M0,0 L6,1 L6,11 L3,13 L-4,12 L-4,6 L-1,5 L-2,2 Z " fill="#0E0E0E" transform="translate(13,8)"/>
<path d="M0,0 L1,0 L1,7 L3,7 L3,10 L-3,13 L-3,9 L-1,8 Z " fill="#BFBFBF" transform="translate(19,11)"/>
</svg>
