<?xml version="1.0" encoding="UTF-8"?>
<svg version="1.1" xmlns="http://www.w3.org/2000/svg" width="28" height="28">
<path d="M0,0 L28,0 L28,28 L0,28 Z " fill="#010101" transform="translate(0,0)"/>
<path d="M0,0 L8,0 L12,9 L11,15 L5,20 L0,19 L-2,16 L-2,7 Z " fill="#D8D8D8" transform="translate(10,5)"/>
<path d="M0,0 L4,1 L4,10 L2,12 L-3,11 L-2,1 Z " fill="#070707" transform="translate(14,9)"/>
<path d="M0,0 L5,1 L4,5 L-1,4 Z " fill="#C5C5C5" transform="translate(11,20)"/>
<path d="M0,0 L2,0 L4,4 L4,7 L2,7 L1,3 L-2,2 Z " fill="#F9F9F9" transform="translate(16,5)"/>
</svg>
