<?xml version="1.0" encoding="UTF-8"?>
<svg version="1.1" xmlns="http://www.w3.org/2000/svg" width="28" height="28">
<path d="M0,0 L28,0 L28,28 L0,28 Z " fill="#020202" transform="translate(0,0)"/>
<path d="M0,0 L8,0 L13,4 L15,9 L14,14 L10,16 L1,16 L-4,13 L-5,11 L-5,5 Z " fill="#0E0E0E" transform="translate(9,7)"/>
<path d="M0,0 L8,0 L13,4 L15,9 L14,14 L10,16 L1,16 L-4,13 L-5,11 L-5,5 Z M2,2 L-3,6 L-3,12 L0,14 L8,14 L13,11 L12,6 L8,4 L7,9 L5,2 Z " fill="#D9D9D9" transform="translate(9,7)"/>
<path d="M0,0 L2,4 L4,5 L12,5 L16,3 L19,4 L16,7 L14,8 L5,8 L0,5 L-1,2 Z " fill="#C7C7C7" transform="translate(5,15)"/>
<path d="M0,0 L5,0 L-1,7 L-3,9 L-3,4 Z " fill="#EFEFEF" transform="translate(7,8)"/>
</svg>
