<?xml version="1.0" encoding="UTF-8"?>
<svg version="1.1" xmlns="http://www.w3.org/2000/svg" width="28" height="28">
<path d="M0,0 L28,0 L28,28 L0,28 Z " fill="#020202" transform="translate(0,0)"/>
<path d="M0,0 L7,0 L11,5 L12,16 L9,19 L7,20 L1,20 L-3,16 L-3,6 L-3,2 Z " fill="#E9E9E9" transform="translate(10,5)"/>
<path d="M0,0 L6,1 L7,4 L7,11 L6,14 L1,14 L-1,12 L-1,5 L1,2 L-1,1 Z " fill="#0C0C0C" transform="translate(11,8)"/>
<path d="M0,0 L2,0 L2,2 L4,3 L1,4 L1,7 L-3,6 L-3,2 Z " fill="#CFCFCF" transform="translate(10,5)"/>
</svg>
