<?xml version="1.0" encoding="UTF-8"?>
<svg version="1.1" xmlns="http://www.w3.org/2000/svg" width="28" height="28">
<path d="M0,0 L28,0 L28,28 L0,28 Z " fill="#030303" transform="translate(0,0)"/>
<path d="M0,0 L9,0 L13,4 L13,12 L7,17 L3,18 L-5,18 L-7,16 L-7,8 L-3,2 Z " fill="#080808" transform="translate(12,6)"/>
<path d="M0,0 L9,0 L13,4 L13,12 L7,17 L3,18 L-5,18 L-7,16 L-7,8 L-3,2 Z M0,3 L-5,8 L-6,14 L-4,16 L3,16 L8,14 L12,10 L12,5 L10,3 L5,3 L2,6 L2,3 Z " fill="#E2E2E2" transform="translate(12,6)"/>
<path d="M0,0 L2,2 L3,7 L6,10 L1,9 L0,8 Z " fill="#C1C1C1" transform="translate(5,14)"/>
</svg>
