<?xml version="1.0" encoding="UTF-8"?>
<svg version="1.1" xmlns="http://www.w3.org/2000/svg" width="28" height="28">
<path d="M0,0 L28,0 L28,28 L0,28 Z " fill="#040404" transform="translate(0,0)"/>
<path d="M0,0 L9,0 L14,5 L14,13 L10,18 L8,19 L-2,18 L-4,16 L-4,8 L-2,1 Z " fill="#E4E4E4" transform="translate(10,5)"/>
<path d="M0,0 L5,1 L10,4 L10,10 L7,13 L-1,13 L-3,12 L-3,4 Z " fill="#080808" transform="translate(12,7)"/>
<path d="M0,0 L2,3 L0,8 L-4,10 L-4,8 L-8,7 L-2,5 Z " fill="#CFCFCF" transform="translate(22,13)"/>
</svg>
