<?xml version="1.0" encoding="UTF-8"?>
<svg version="1.1" xmlns="http://www.w3.org/2000/svg" width="28" height="28">
<path d="M0,0 L28,0 L28,28 L0,28 Z " fill="#020202" transform="translate(0,0)"/>
<path d="M0,0 L4,2 L7,9 L7,17 L-2,20 L-7,19 L-8,18 L-8,11 L-2,2 Z " fill="#EAEAEA" transform="translate(15,4)"/>
<path d="M0,0 L3,0 L5,4 L5,12 L-4,13 L-5,12 L-4,5 Z " fill="#0E0E0E" transform="translate(14,9)"/>
<path d="M0,0 L4,1 L5,4 L5,12 L0,14 L-1,12 L2,12 L1,4 Z " fill="#D2D2D2" transform="translate(17,9)"/>
</svg>
