<?xml version="1.0" encoding="UTF-8"?>
<svg version="1.1" xmlns="http://www.w3.org/2000/svg" width="28" height="28">
<path d="M0,0 L28,0 L28,28 L0,28 Z " fill="#010101" transform="translate(0,0)"/>
<path d="M0,0 L5,0 L4,6 L0,12 L-6,16 L-15,16 L-13,11 L-6,4 Z " fill="#E9E9E9" transform="translate(18,6)"/>
<path d="M0,0 L2,1 L2,5 L-6,11 L-10,11 L-8,7 L-6,5 L-3,5 Z " fill="#1E1E1E" transform="translate(16,10)"/>
<path d="M0,0 L2,1 L2,5 L-1,7 L-2,2 Z " fill="#434343" transform="translate(16,10)"/>
</svg>
