<?xml version="1.0" encoding="UTF-8"?>
<svg version="1.1" xmlns="http://www.w3.org/2000/svg" width="28" height="28">
<path d="M0,0 L28,0 L28,28 L0,28 Z " fill="#040404" transform="translate(0,0)"/>
<path d="M0,0 L7,0 L10,4 L10,13 L7,18 L3,20 L-3,19 L-6,16 L-6,7 L-2,1 Z " fill="#070707" transform="translate(12,5)"/>
<path d="M0,0 L7,0 L10,4 L10,13 L7,18 L3,20 L-3,19 L-6,16 L-6,7 L-2,1 Z M0,2 L-2,3 L-4,8 L-4,16 L-1,18 L4,18 L8,13 L8,5 L6,7 L4,2 Z " fill="#DEDEDE" transform="translate(12,5)"/>
<path d="M0,0 L2,3 L0,11 L-1,11 L-2,4 Z " fill="#ADADAD" transform="translate(8,8)"/>
</svg>
