<?xml version="1.0" encoding="UTF-8"?>
<svg version="1.1" xmlns="http://www.w3.org/2000/svg" width="28" height="28">
<path d="M0,0 L28,0 L28,28 L0,28 Z " fill="#030303" transform="translate(0,0)"/>
<path d="M0,0 L8,1 L9,2 L9,9 L6,14 L2,16 L-5,16 L-10,15 L-10,10 Z " fill="#E6E6E6" transform="translate(14,7)"/>
<path d="M0,0 L5,0 L5,6 L0,10 L-5,11 L-8,10 L-7,5 Z " fill="#080808" transform="translate(15,11)"/>
<path d="M0,0 L1,0 L0,7 L-5,10 L-12,10 L-15,9 L-14,7 L-10,8 L-3,5 Z " fill="#C8C8C8" transform="translate(21,13)"/>
</svg>
