<?xml version="1.0" encoding="UTF-8"?>
<svg version="1.1" xmlns="http://www.w3.org/2000/svg" width="28" height="28">
<path d="M0,0 L28,0 L28,28 L0,28 Z " fill="#030303" transform="translate(0,0)"/>
<path d="M0,0 L3,1 L3,8 L-1,16 L-7,20 L-10,20 L-9,14 L-5,8 L-2,1 Z " fill="#EBEBEB" transform="translate(17,4)"/>
<path d="M0,0 L3,1 L3,8 L-4,8 L-3,3 Z " fill="#F1F1F1" transform="translate(17,4)"/>
<path d="M0,0 L3,0 L1,5 L0,8 L-2,8 L-3,6 L-5,7 L-3,2 Z " fill="#B2B2B2" transform="translate(14,11)"/>
</svg>
