<?xml version="1.0" encoding="UTF-8"?>
<svg version="1.1" xmlns="http://www.w3.org/2000/svg" width="28" height="28">
<path d="M0,0 L28,0 L28,28 L0,28 Z " fill="#040404" transform="translate(0,0)"/>
<path d="M0,0 L8,3 L11,9 L11,15 L5,20 L-1,20 L-4,16 L-3,5 L-5,5 L-4,2 Z " fill="#E2E2E2" transform="translate(12,4)"/>
<path d="M0,0 L5,1 L8,5 L8,11 L5,14 L0,14 L-2,12 L-2,5 Z " fill="#161616" transform="translate(12,8)"/>
<path d="M0,0 L1,4 L1,11 L8,13 L7,15 L1,15 L-2,11 L-1,1 Z " fill="#F8F8F8" transform="translate(10,9)"/>
</svg>
