<?xml version="1.0" encoding="UTF-8"?>
<svg version="1.1" xmlns="http://www.w3.org/2000/svg" width="28" height="28">
<path d="M0,0 L28,0 L28,28 L0,28 Z " fill="#020202" transform="translate(0,0)"/>
<path d="M0,0 L7,1 L12,2 L14,7 L9,13 L2,17 L-4,17 L-6,15 L-5,7 L-2,2 L0,2 Z " fill="#0A0A0A" transform="translate(12,6)"/>
<path d="M0,0 L7,1 L12,2 L14,7 L9,13 L2,17 L-4,17 L-6,15 L-5,7 L-2,2 L0,2 Z M6,3 L0,6 L-3,7 L-4,14 L1,15 L10,10 L12,5 L9,3 Z " fill="#CCCCCC" transform="translate(12,6)"/>
</svg>
