<?xml version="1.0" encoding="UTF-8"?>
<svg version="1.1" xmlns="http://www.w3.org/2000/svg" width="28" height="28">
<path d="M0,0 L28,0 L28,28 L0,28 Z " fill="#030303" transform="translate(0,0)"/>
<path d="M0,0 L4,1 L7,4 L8,11 L4,17 L0,20 L-9,20 L-12,17 L-11,12 L-8,7 L-3,2 Z " fill="#E6E6E6" transform="translate(16,4)"/>
<path d="M0,0 L1,2 L4,2 L4,0 L6,0 L5,7 L1,11 L-1,12 L-8,12 L-7,7 L-2,1 Z " fill="#070707" transform="translate(15,9)"/>
<path d="M0,0 L1,2 L7,2 L10,5 L1,5 L-1,4 Z " fill="#AAAAAA" transform="translate(6,19)"/>
</svg>
