<?xml version="1.0" encoding="UTF-8"?>
<svg version="1.1" xmlns="http://www.w3.org/2000/svg" width="28" height="28">
<path d="M0,0 L28,0 L28,28 L0,28 Z " fill="#030303" transform="translate(0,0)"/>
<path d="M0,0 L6,0 L9,3 L8,10 L3,15 L-1,18 L-9,18 L-11,15 L-10,9 L-3,1 Z " fill="#C8C8C8" transform="translate(15,5)"/>
<path d="M0,0 L5,0 L6,1 L6,6 L1,11 L-3,14 L-8,13 L-8,8 Z " fill="#050505" transform="translate(15,7)"/>
<path d="M0,0 L1,4 L3,5 L0,10 L-5,13 L-8,11 L-4,8 L-2,8 Z " fill="#C6C6C6" transform="translate(21,8)"/>
<path d="M0,0 L3,4 L11,4 L9,7 L1,7 L-1,4 Z " fill="#EEEEEE" transform="translate(5,16)"/>
<path d="M0,0 L6,0 L9,3 L9,7 L7,7 L7,3 L1,3 L-1,1 Z " fill="#E7E7E7" transform="translate(15,5)"/>
</svg>
