<?xml version="1.0" encoding="UTF-8"?>
<svg version="1.1" xmlns="http://www.w3.org/2000/svg" width="28" height="28">
<path d="M0,0 L28,0 L28,28 L0,28 Z " fill="#030303" transform="translate(0,0)"/>
<path d="M0,0 L6,1 L9,4 L9,12 L4,18 L0,20 L-7,20 L-9,18 L-9,11 L-4,2 Z " fill="#DDDDDD" transform="translate(15,4)"/>
<path d="M0,0 L3,1 L4,7 L2,11 L-7,15 L-10,14 L-9,8 L-7,3 Z " fill="#0C0C0C" transform="translate(18,7)"/>
<path d="M0,0 L1,0 L1,5 L5,6 L5,8 L0,7 L-1,6 L-1,1 Z " fill="#F7F7F7" transform="translate(7,16)"/>
</svg>
