<?xml version="1.0" encoding="UTF-8"?>
<svg version="1.1" xmlns="http://www.w3.org/2000/svg" width="28" height="28">
<path d="M0,0 L28,0 L28,28 L0,28 Z " fill="#040404" transform="translate(0,0)"/>
<path d="M0,0 L6,0 L10,5 L10,11 L7,16 L1,18 L-8,18 L-10,16 L-9,9 L-2,1 Z " fill="#0A0A0A" transform="translate(15,5)"/>
<path d="M0,0 L6,0 L10,5 L10,11 L7,16 L1,18 L-8,18 L-10,16 L-9,9 L-2,1 Z M1,2 L-7,9 L-8,15 L-7,16 L1,16 L7,14 L8,12 L8,5 L6,2 Z " fill="#D3D3D3" transform="translate(15,5)"/>
</svg>
