<?xml version="1.0" encoding="UTF-8"?>
<svg version="1.1" xmlns="http://www.w3.org/2000/svg" width="28" height="28">
<path d="M0,0 L28,0 L28,28 L0,28 Z " fill="#020202" transform="translate(0,0)"/>
<path d="M0,0 L6,2 L7,5 L7,13 L5,13 L3,17 L0,19 L-10,20 L-11,19 L-11,13 L-3,3 L-1,3 Z " fill="#E4E4E4" transform="translate(16,4)"/>
<path d="M0,0 L3,0 L3,8 L1,8 L-1,12 L-4,14 L-14,15 L-14,9 L-12,8 L-12,11 L-3,9 L-2,7 L0,7 Z " fill="#EBEBEB" transform="translate(20,9)"/>
<path d="M0,0 L3,1 L3,8 L1,8 L0,11 L-2,12 L-9,12 L-7,8 Z " fill="#151515" transform="translate(17,8)"/>
</svg>
