<?xml version="1.0" encoding="UTF-8"?>
<svg version="1.1" xmlns="http://www.w3.org/2000/svg" width="28" height="28">
<path d="M0,0 L28,0 L28,28 L0,28 Z " fill="#020202" transform="translate(0,0)"/>
<path d="M0,0 L5,0 L8,4 L9,13 L4,18 L-5,18 L-11,14 L-11,8 L-7,4 Z " fill="#0D0D0D" transform="translate(15,5)"/>
<path d="M0,0 L5,0 L8,4 L9,13 L4,18 L-5,18 L-11,14 L-11,8 L-7,4 Z M2,3 L-5,7 L-9,11 L-8,14 L-4,16 L3,16 L7,13 L6,5 Z " fill="#E8E8E8" transform="translate(15,5)"/>
<path d="M0,0 L3,0 L3,2 L1,3 L-8,3 L-4,1 Z " fill="#D2D2D2" transform="translate(18,20)"/>
</svg>
