<?xml version="1.0" encoding="UTF-8"?>
<svg version="1.1" xmlns="http://www.w3.org/2000/svg" width="28" height="28">
<path d="M0,0 L28,0 L28,28 L0,28 Z " fill="#020202" transform="translate(0,0)"/>
<path d="M0,0 L10,1 L13,4 L13,11 L6,17 L-3,17 L-7,13 L-6,8 Z " fill="#0A0A0A" transform="translate(11,6)"/>
<path d="M0,0 L10,1 L13,4 L13,11 L6,17 L-3,17 L-7,13 L-6,8 Z M4,3 L1,4 L0,6 L-4,8 L-5,12 L-2,15 L4,15 L10,11 L11,7 L10,4 Z " fill="#E1E1E1" transform="translate(11,6)"/>
<path d="M0,0 L4,2 L0,3 L1,7 L-3,7 L-2,2 Z " fill="#B1B1B1" transform="translate(11,6)"/>
</svg>
