<?xml version="1.0" encoding="UTF-8"?>
<svg version="1.1" xmlns="http://www.w3.org/2000/svg" width="28" height="28">
<path d="M0,0 L28,0 L28,28 L0,28 Z " fill="#020202" transform="translate(0,0)"/>
<path d="M0,0 L5,1 L7,5 L7,14 L4,19 L-3,20 L-7,16 L-6,11 L0,4 L0,3 L-3,2 Z " fill="#E8E8E8" transform="translate(14,4)"/>
<path d="M0,0 L1,0 L1,9 L-2,12 L-7,11 L-8,8 L-4,2 Z " fill="#0D0D0D" transform="translate(17,10)"/>
<path d="M0,0 L5,1 L7,5 L7,14 L4,14 L3,7 L-1,8 L-1,5 L2,3 L-3,3 Z " fill="#C7C7C7" transform="translate(14,4)"/>
</svg>
