<?xml version="1.0" encoding="UTF-8"?>
<svg version="1.1" xmlns="http://www.w3.org/2000/svg" width="28" height="28">
<path d="M0,0 L28,0 L28,28 L0,28 Z " fill="#030303" transform="translate(0,0)"/>
<path d="M0,0 L10,0 L14,2 L15,9 L12,14 L9,16 L1,16 L1,14 L-1,14 L-3,5 L-5,4 Z " fill="#DCDCDC" transform="translate(9,7)"/>
<path d="M0,0 L5,0 L7,6 L3,10 L-4,10 L-6,7 L-6,2 L-3,1 L0,2 Z " fill="#0A0A0A" transform="translate(15,10)"/>
<path d="M0,0 L2,0 L3,5 L0,10 L-2,11 L-8,11 L-6,9 L-1,6 L0,3 Z " fill="#EBEBEB" transform="translate(21,11)"/>
<path d="M0,0 L5,1 L5,3 L2,4 L2,2 L-3,2 L-3,4 L-6,3 L-4,3 L-4,1 Z " fill="#B1B1B1" transform="translate(18,8)"/>
</svg>
