<?xml version="1.0" encoding="UTF-8"?>
<svg version="1.1" xmlns="http://www.w3.org/2000/svg" width="28" height="28">
<path d="M0,0 L28,0 L28,28 L0,28 Z " fill="#040404" transform="translate(0,0)"/>
<path d="M0,0 L4,1 L2,3 L6,4 L7,11 L6,15 L3,15 L2,18 L-7,18 L-10,17 L-10,15 L-13,14 L-12,9 L-7,4 Z " fill="#D0D0D0" transform="translate(17,5)"/>
<path d="M0,0 L7,1 L8,6 L4,11 L-5,9 L-6,4 L-2,2 L0,2 Z " fill="#0B0B0B" transform="translate(13,11)"/>
<path d="M0,0 L6,0 L7,7 L6,11 L3,11 L3,4 L-2,3 L-2,1 Z " fill="#EEEEEE" transform="translate(17,9)"/>
</svg>
