<?xml version="1.0" encoding="UTF-8"?>
<svg version="1.1" xmlns="http://www.w3.org/2000/svg" width="28" height="28">
<path d="M0,0 L28,0 L28,28 L0,28 Z " fill="#030303" transform="translate(0,0)"/>
<path d="M0,0 L5,1 L10,7 L10,15 L6,19 L4,20 L-2,20 L-4,18 L-4,9 L-3,2 Z " fill="#070707" transform="translate(12,5)"/>
<path d="M0,0 L5,1 L10,7 L10,15 L6,19 L4,20 L-2,20 L-4,18 L-4,9 L-3,2 Z M2,2 L-2,10 L-3,15 L-2,18 L5,18 L8,14 L8,7 L4,2 Z " fill="#DEDEDE" transform="translate(12,5)"/>
<path d="M0,0 L2,3 L-3,6 L-9,6 L-11,3 L-9,1 L-9,4 L-2,3 Z " fill="#C0C0C0" transform="translate(19,19)"/>
</svg>
