<?xml version="1.0" encoding="UTF-8"?>
<svg version="1.1" xmlns="http://www.w3.org/2000/svg" width="28" height="28">
<path d="M0,0 L28,0 L28,28 L0,28 Z " fill="#030303" transform="translate(0,0)"/>
<path d="M0,0 L5,0 L10,6 L9,13 L5,19 L0,20 L-1,19 L-1,10 L2,5 L5,4 L5,2 L0,1 Z " fill="#CDCDCD" transform="translate(11,4)"/>
<path d="M0,0 L4,0 L3,9 L0,13 L-4,12 L-3,5 Z " fill="#0D0D0D" transform="translate(15,9)"/>
<path d="M0,0 L1,4 L1,8 L6,7 L4,11 L-1,10 L-1,1 Z " fill="#E4E4E4" transform="translate(11,13)"/>
</svg>
