<?xml version="1.0" encoding="UTF-8"?>
<svg version="1.1" xmlns="http://www.w3.org/2000/svg" width="28" height="28">
<path d="M0,0 L28,0 L28,28 L0,28 Z " fill="#020202" transform="translate(0,0)"/>
<path d="M0,0 L7,1 L7,7 L-1,16 L-8,20 L-12,19 L-12,13 L-9,8 L-7,8 L-5,4 Z " fill="#DADADA" transform="translate(17,5)"/>
<path d="M0,0 L7,1 L7,7 L0,15 L-2,14 L1,9 L1,4 L-3,7 L-5,6 L-4,3 Z " fill="#E6E6E6" transform="translate(17,5)"/>
<path d="M0,0 L2,0 L3,6 L-6,12 L-9,12 L-7,7 Z " fill="#121212" transform="translate(16,9)"/>
</svg>
