<?xml version="1.0" encoding="UTF-8"?>
<svg version="1.1" xmlns="http://www.w3.org/2000/svg" width="28" height="28">
<path d="M0,0 L28,0 L28,28 L0,28 Z " fill="#040404" transform="translate(0,0)"/>
<path d="M0,0 L2,2 L2,4 L6,0 L11,0 L12,1 L12,8 L2,16 L-2,18 L-7,18 L-8,12 L-2,2 Z " fill="#EAEAEA" transform="translate(13,6)"/>
<path d="M0,0 L4,1 L4,8 L-1,12 L-2,10 L-5,10 L-3,3 Z " fill="#E2E2E2" transform="translate(21,6)"/>
<path d="M0,0 L1,0 L2,7 L-4,9 L-1,1 Z " fill="#131313" transform="translate(12,12)"/>
<path d="M0,0 L2,0 L0,5 L-2,7 L-5,7 L-3,2 Z " fill="#1B1B1B" transform="translate(21,9)"/>
</svg>
