<?xml version="1.0" encoding="UTF-8"?>
<svg version="1.1" xmlns="http://www.w3.org/2000/svg" width="28" height="28">
<path d="M0,0 L28,0 L28,28 L0,28 Z " fill="#030303" transform="translate(0,0)"/>
<path d="M0,0 L4,1 L6,2 L5,7 L2,12 L-6,18 L-12,19 L-11,13 L-7,7 L-5,7 L-3,2 Z " fill="#E8E8E8" transform="translate(18,5)"/>
<path d="M0,0 L1,3 L-4,8 L-9,12 L-15,13 L-14,7 L-8,3 L-8,6 L-3,4 L-2,1 Z " fill="#EFEFEF" transform="translate(21,11)"/>
<path d="M0,0 L3,1 L-2,6 L-5,7 L-3,2 Z " fill="#2D2D2D" transform="translate(18,10)"/>
</svg>
