<?xml version="1.0" encoding="UTF-8"?>
<svg version="1.1" xmlns="http://www.w3.org/2000/svg" width="28" height="28">
<path d="M0,0 L28,0 L28,28 L0,28 Z " fill="#020202" transform="translate(0,0)"/>
<path d="M0,0 L8,1 L9,7 L4,12 L-4,16 L-10,16 L-11,15 L-11,10 L-2,1 Z " fill="#E1E1E1" transform="translate(15,7)"/>
<path d="M0,0 L8,1 L8,6 L-1,6 L-3,4 Z " fill="#FAFAFA" transform="translate(15,7)"/>
<path d="M0,0 L9,0 L7,3 L0,6 L-5,6 Z " fill="#161616" transform="translate(12,13)"/>
<path d="M0,0 L1,4 L-3,8 L-4,6 L-4,3 L-1,2 Z " fill="#C1C1C1" transform="translate(23,10)"/>
</svg>
