<?xml version="1.0" encoding="UTF-8"?>
<svg version="1.1" xmlns="http://www.w3.org/2000/svg" width="28" height="28">
<path d="M0,0 L28,0 L28,28 L0,28 Z " fill="#020202" transform="translate(0,0)"/>
<path d="M0,0 L4,0 L8,1 L11,4 L12,12 L9,19 L5,20 L2,14 L0,4 Z " fill="#DBDBDB" transform="translate(9,5)"/>
<path d="M0,0 L3,2 L3,10 L0,13 L-2,12 L-2,6 L0,5 Z " fill="#0F0F0F" transform="translate(15,8)"/>
<path d="M0,0 L1,0 L2,10 L-1,11 L-4,11 L-3,9 L-1,7 Z " fill="#C0C0C0" transform="translate(18,11)"/>
</svg>
