<?xml version="1.0" encoding="UTF-8"?>
<svg version="1.1" xmlns="http://www.w3.org/2000/svg" width="28" height="28">
<path d="M0,0 L28,0 L28,28 L0,28 Z " fill="#020202" transform="translate(0,0)"/>
<path d="M0,0 L2,0 L2,4 L6,6 L6,8 L8,9 L8,17 L6,19 L-2,20 L-6,18 L-6,11 L-1,1 Z " fill="#E5E5E5" transform="translate(14,3)"/>
<path d="M0,0 L4,1 L5,2 L5,11 L-2,12 L-4,10 L-3,4 Z " fill="#111111" transform="translate(14,9)"/>
<path d="M0,0 L3,1 L3,9 L0,7 Z " fill="#C5C5C5" transform="translate(19,11)"/>
</svg>
