<?xml version="1.0" encoding="UTF-8"?>
<svg version="1.1" xmlns="http://www.w3.org/2000/svg" width="28" height="28">
<path d="M0,0 L28,0 L28,28 L0,28 Z " fill="#010101" transform="translate(0,0)"/>
<path d="M0,0 L4,1 L3,17 L0,20 L-4,19 L-4,10 L-1,1 Z " fill="#D4D4D4" transform="translate(14,5)"/>
<path d="M0,0 L4,1 L3,15 L2,15 L1,5 L-1,5 L-2,8 L-1,1 Z " fill="#E7E7E7" transform="translate(14,5)"/>
<path d="M0,0 L2,0 L3,3 L3,10 L-1,12 L-1,5 Z " fill="#2B2B2B" transform="translate(13,10)"/>
</svg>
