<?xml version="1.0" encoding="UTF-8"?>
<svg version="1.1" xmlns="http://www.w3.org/2000/svg" width="28" height="28">
<path d="M0,0 L28,0 L28,28 L0,28 Z " fill="#030303" transform="translate(0,0)"/>
<path d="M0,0 L7,0 L12,3 L12,12 L10,16 L6,18 L-2,18 L-7,15 L-8,14 L-7,7 L-2,1 Z " fill="#E6E6E6" transform="translate(13,5)"/>
<path d="M0,0 L7,0 L11,2 L10,6 L8,4 L2,4 L2,7 L-2,11 L-6,15 L-8,14 L-7,7 L-2,1 Z " fill="#F0F0F0" transform="translate(13,5)"/>
<path d="M0,0 L4,1 L4,7 L1,11 L-7,11 L-7,6 L-3,4 L-3,1 Z " fill="#0E0E0E" transform="translate(18,8)"/>
</svg>
