<?xml version="1.0" encoding="UTF-8"?>
<svg version="1.1" xmlns="http://www.w3.org/2000/svg" width="28" height="28">
<path d="M0,0 L28,0 L28,28 L0,28 Z " fill="#020202" transform="translate(0,0)"/>
<path d="M0,0 L4,1 L4,7 L6,7 L6,14 L2,18 L-3,20 L-7,19 L-8,12 L-3,4 Z " fill="#EAEAEA" transform="translate(15,4)"/>
<path d="M0,0 L4,1 L5,8 L3,8 L0,14 L-5,15 L-3,10 L-1,7 L-6,10 L-4,5 Z " fill="#E3E3E3" transform="translate(15,4)"/>
<path d="M0,0 L3,0 L2,6 L0,8 L-4,8 L-2,3 Z " fill="#171717" transform="translate(14,11)"/>
</svg>
