<?xml version="1.0" encoding="UTF-8"?>
<svg version="1.1" xmlns="http://www.w3.org/2000/svg" width="28" height="28">
<path d="M0,0 L28,0 L28,28 L0,28 Z " fill="#030303" transform="translate(0,0)"/>
<path d="M0,0 L3,0 L3,2 L8,3 L9,4 L9,10 L4,16 L0,18 L-9,18 L-11,16 L-10,10 L-5,3 Z " fill="#040404" transform="translate(16,5)"/>
<path d="M0,0 L3,0 L3,2 L8,3 L9,4 L9,10 L4,16 L0,18 L-9,18 L-11,16 L-10,10 L-5,3 Z M-2,3 L-2,5 L-4,5 L-9,13 L-8,16 L-1,16 L5,12 L7,10 L7,5 L0,3 Z " fill="#D6D6D6" transform="translate(16,5)"/>
<path d="M0,0 L3,2 L3,8 L-2,14 L-8,16 L-13,15 L-13,14 L-5,12 L0,8 Z " fill="#C6C6C6" transform="translate(22,7)"/>
<path d="M0,0 L2,0 L4,3 L9,4 L9,5 L2,5 L0,3 Z " fill="#EFEFEF" transform="translate(5,18)"/>
</svg>
