<?xml version="1.0" encoding="UTF-8"?>
<svg version="1.1" xmlns="http://www.w3.org/2000/svg" width="28" height="28">
<path d="M0,0 L28,0 L28,28 L0,28 Z " fill="#000000" transform="translate(0,0)"/>
<path d="M0,0 L5,1 L10,6 L12,9 L12,15 L8,20 L1,20 L-3,16 L-4,13 L-4,5 Z " fill="#050505" transform="translate(11,4)"/>
<path d="M0,0 L5,1 L10,6 L12,9 L12,15 L8,20 L1,20 L-3,16 L-4,13 L-4,5 Z M1,2 L-1,5 L-1,14 L3,18 L8,17 L9,15 L9,7 L3,2 Z " fill="#C8C8C8" transform="translate(11,4)"/>
<path d="M0,0 L2,4 L4,8 L11,9 L13,2 L14,2 L14,9 L11,12 L4,12 L0,8 L-1,1 Z " fill="#E8E8E8" transform="translate(8,12)"/>
</svg>
