<?xml version="1.0" encoding="UTF-8"?>
<svg version="1.1" xmlns="http://www.w3.org/2000/svg" width="28" height="28">
<path d="M0,0 L28,0 L28,28 L0,28 Z " fill="#030303" transform="translate(0,0)"/>
<path d="M0,0 L9,0 L11,5 L11,11 L6,17 L1,19 L-6,19 L-9,17 L-8,10 L-6,6 L-1,1 Z " fill="#0A0A0A" transform="translate(14,5)"/>
<path d="M0,0 L9,0 L11,5 L11,11 L6,17 L1,19 L-6,19 L-9,17 L-8,10 L-6,6 L-1,1 Z M1,2 L-6,10 L-6,16 L-5,17 L2,17 L7,13 L9,10 L9,3 L8,2 Z " fill="#DBDBDB" transform="translate(14,5)"/>
</svg>
