<?xml version="1.0" encoding="UTF-8"?>
<svg version="1.1" xmlns="http://www.w3.org/2000/svg" width="28" height="28">
<path d="M0,0 L28,0 L28,28 L0,28 Z " fill="#020202" transform="translate(0,0)"/>
<path d="M0,0 L3,0 L3,2 L7,3 L12,9 L11,17 L8,20 L-1,19 L-4,15 L-4,5 Z " fill="#E9E9E9" transform="translate(11,4)"/>
<path d="M0,0 L5,1 L8,2 L9,4 L9,11 L7,13 L0,12 L-1,2 Z " fill="#0B0B0B" transform="translate(11,8)"/>
<path d="M0,0 L3,0 L3,2 L7,3 L12,9 L12,14 L9,12 L8,6 L3,5 L0,4 L-1,6 L-2,6 L-3,12 L-4,12 L-4,5 Z " fill="#CBCBCB" transform="translate(11,4)"/>
</svg>
