<?xml version="1.0" encoding="UTF-8"?>
<svg version="1.1" xmlns="http://www.w3.org/2000/svg" width="28" height="28">
<path d="M0,0 L28,0 L28,28 L0,28 Z " fill="#030303" transform="translate(0,0)"/>
<path d="M0,0 L7,1 L9,3 L10,8 L8,13 L6,13 L6,15 L3,15 L3,17 L-2,19 L-9,19 L-10,13 L-6,6 L-3,5 L-5,1 Z " fill="#0A0A0A" transform="translate(15,5)"/>
<path d="M0,0 L7,1 L9,3 L10,8 L8,13 L6,13 L6,15 L3,15 L3,17 L-2,19 L-9,19 L-10,13 L-6,6 L-3,5 L-5,1 Z M0,3 L-8,13 L-7,17 L0,16 L7,10 L7,3 Z " fill="#D6D6D6" transform="translate(15,5)"/>
</svg>
