<?xml version="1.0" encoding="UTF-8"?>
<svg version="1.1" xmlns="http://www.w3.org/2000/svg" width="28" height="28">
<path d="M0,0 L28,0 L28,28 L0,28 Z " fill="#010101" transform="translate(0,0)"/>
<path d="M0,0 L5,1 L7,5 L7,11 L2,19 L-6,20 L-9,17 L-9,6 Z " fill="#E4E4E4" transform="translate(16,5)"/>
<path d="M0,0 L4,1 L5,8 L1,14 L-3,15 L-4,14 L-4,6 Z " fill="#090909" transform="translate(15,8)"/>
<path d="M0,0 L5,1 L7,5 L7,11 L5,13 L2,4 L2,1 Z " fill="#C6C6C6" transform="translate(16,5)"/>
</svg>
