<?xml version="1.0" encoding="UTF-8"?>
<svg version="1.1" xmlns="http://www.w3.org/2000/svg" width="28" height="28">
<path d="M0,0 L28,0 L28,28 L0,28 Z " fill="#030303" transform="translate(0,0)"/>
<path d="M0,0 L15,0 L18,1 L18,8 L14,12 L10,14 L1,14 L-2,11 L-1,5 L1,3 Z " fill="#0B0B0B" transform="translate(7,8)"/>
<path d="M0,0 L15,0 L18,1 L18,8 L14,12 L10,14 L1,14 L-2,11 L-1,5 L1,3 Z M9,1 L2,5 L0,10 L3,13 L10,12 L16,7 L15,2 Z " fill="#D3D3D3" transform="translate(7,8)"/>
<path d="M0,0 L15,0 L12,2 L9,1 L8,3 L1,4 Z " fill="#CBCBCB" transform="translate(7,8)"/>
<path d="M0,0 L5,0 L5,7 L2,10 L0,8 L2,6 L2,2 Z " fill="#B7B7B7" transform="translate(20,9)"/>
<path d="M0,0 L9,0 L6,2 L3,1 L2,3 L-1,3 Z " fill="#F7F7F7" transform="translate(13,8)"/>
</svg>
