<?xml version="1.0" encoding="UTF-8"?>
<svg version="1.1" xmlns="http://www.w3.org/2000/svg" width="28" height="28">
<path d="M0,0 L28,0 L28,28 L0,28 Z " fill="#020202" transform="translate(0,0)"/>
<path d="M0,0 L5,0 L8,3 L9,9 L6,14 L-2,20 L-6,18 L-7,16 L-7,8 L-2,1 Z " fill="#C7C7C7" transform="translate(14,5)"/>
<path d="M0,0 L5,1 L5,9 L0,14 L-5,15 L-6,6 L-3,3 L3,3 L-1,1 Z " fill="#090909" transform="translate(15,7)"/>
<path d="M0,0 L4,1 L6,5 L5,11 L-3,18 L-7,19 L-8,15 L-3,15 L0,14 L2,10 L3,2 L0,2 Z " fill="#DFDFDF" transform="translate(17,6)"/>
</svg>
