<?xml version="1.0" encoding="UTF-8"?>
<svg version="1.1" xmlns="http://www.w3.org/2000/svg" width="28" height="28">
<path d="M0,0 L28,0 L28,28 L0,28 Z " fill="#020202" transform="translate(0,0)"/>
<path d="M0,0 L2,3 L4,8 L3,16 L-2,20 L-9,19 L-10,11 L-6,5 Z " fill="#070707" transform="translate(18,4)"/>
<path d="M0,0 L2,3 L4,8 L3,16 L-2,20 L-9,19 L-10,11 L-6,5 Z M-2,4 L-7,9 L-7,17 L-2,18 L1,16 L2,13 L2,6 Z " fill="#DDDDDD" transform="translate(18,4)"/>
<path d="M0,0 L1,4 L-1,9 L-5,12 L-12,11 L-11,3 L-10,3 L-9,9 L-3,8 Z " fill="#BCBCBC" transform="translate(21,12)"/>
</svg>
