<?xml version="1.0" encoding="UTF-8"?>
<svg version="1.1" xmlns="http://www.w3.org/2000/svg" width="28" height="28">
<path d="M0,0 L28,0 L28,28 L0,28 Z " fill="#040404" transform="translate(0,0)"/>
<path d="M0,0 L7,0 L10,2 L10,4 L12,4 L14,8 L14,15 L8,20 L1,20 L-4,16 L-5,6 L-2,1 Z " fill="#050505" transform="translate(11,4)"/>
<path d="M0,0 L7,0 L10,2 L10,4 L12,4 L14,8 L14,15 L8,20 L1,20 L-4,16 L-5,6 L-2,1 Z M1,2 L-1,3 L-2,6 L-2,15 L0,17 L9,17 L12,15 L12,7 L7,2 Z " fill="#D8D8D8" transform="translate(11,4)"/>
<path d="M0,0 L1,0 L2,9 L3,10 L10,11 L10,12 L2,13 L0,11 Z " fill="#BABABA" transform="translate(8,10)"/>
</svg>
