<?xml version="1.0" encoding="UTF-8"?>
<svg version="1.1" xmlns="http://www.w3.org/2000/svg" width="28" height="28">
<path d="M0,0 L28,0 L28,28 L0,28 Z " fill="#010101" transform="translate(0,0)"/>
<path d="M0,0 L3,1 L4,4 L4,13 L-1,18 L-5,20 L-11,19 L-10,15 L-6,9 Z " fill="#DBDBDB" transform="translate(17,3)"/>
<path d="M0,0 L1,3 L4,4 L2,7 L-4,6 L-3,2 Z " fill="#E6E6E6" transform="translate(10,16)"/>
<path d="M0,0 L4,1 L3,6 L2,8 L-3,9 L-3,7 L-1,7 Z " fill="#101010" transform="translate(14,10)"/>
</svg>
