<?xml version="1.0" encoding="UTF-8"?>
<svg version="1.1" xmlns="http://www.w3.org/2000/svg" width="28" height="28">
<path d="M0,0 L28,0 L28,28 L0,28 Z " fill="#030303" transform="translate(0,0)"/>
<path d="M0,0 L12,1 L17,6 L19,11 L14,18 L10,20 L4,20 L3,17 L1,17 L0,13 L0,6 L4,4 L0,2 Z " fill="#E2E2E2" transform="translate(6,4)"/>
<path d="M0,0 L6,0 L9,2 L9,9 L4,13 L1,13 L-1,9 L-1,2 Z " fill="#080808" transform="translate(11,8)"/>
<path d="M0,0 L5,1 L7,3 L3,4 L-3,3 Z " fill="#BBBBBB" transform="translate(14,5)"/>
</svg>
