<?xml version="1.0" encoding="UTF-8"?>
<svg version="1.1" xmlns="http://www.w3.org/2000/svg" width="28" height="28">
<path d="M0,0 L28,0 L28,28 L0,28 Z " fill="#020202" transform="translate(0,0)"/>
<path d="M0,0 L5,0 L7,4 L8,14 L4,19 L-4,20 L-7,17 L-6,10 L-2,2 Z " fill="#0C0C0C" transform="translate(14,4)"/>
<path d="M0,0 L5,0 L7,3 L0,3 L-2,8 L-3,17 L3,16 L5,12 L4,7 L3,5 L7,6 L8,14 L4,19 L-4,20 L-7,17 L-6,10 L-2,2 Z " fill="#E2E2E2" transform="translate(14,4)"/>
<path d="M0,0 L5,0 L7,3 L0,3 L-2,7 L-3,3 Z " fill="#CDCDCD" transform="translate(14,4)"/>
<path d="M0,0 L5,1 L4,3 L-3,5 L-2,1 Z " fill="#2F2F2F" transform="translate(16,6)"/>
</svg>
