<?xml version="1.0" encoding="UTF-8"?>
<svg version="1.1" xmlns="http://www.w3.org/2000/svg" width="28" height="28">
<path d="M0,0 L28,0 L28,28 L0,28 Z " fill="#030303" transform="translate(0,0)"/>
<path d="M0,0 L3,1 L3,9 L2,13 L0,13 L0,15 L-8,20 L-13,19 L-14,14 L-10,8 L-5,3 Z " fill="#E7E7E7" transform="translate(19,4)"/>
<path d="M0,0 L2,0 L1,6 L-2,10 L-8,11 L-6,6 L-1,1 Z " fill="#0C0C0C" transform="translate(17,9)"/>
<path d="M0,0 L2,4 L-4,8 L-6,8 L-6,4 L-2,4 Z " fill="#CBCBCB" transform="translate(17,15)"/>
</svg>
