<?xml version="1.0" encoding="UTF-8"?>
<svg version="1.1" xmlns="http://www.w3.org/2000/svg" width="28" height="28">
<path d="M0,0 L28,0 L28,28 L0,28 Z " fill="#020202" transform="translate(0,0)"/>
<path d="M0,0 L5,1 L8,6 L7,15 L3,20 L-3,20 L-7,16 L-8,8 L-5,2 Z " fill="#0B0B0B" transform="translate(14,4)"/>
<path d="M0,0 L5,1 L8,6 L7,15 L3,20 L-3,20 L-7,16 L-8,8 L-5,2 Z M1,3 L-4,4 L-4,7 L-6,7 L-6,14 L-3,18 L3,17 L5,12 L5,4 Z " fill="#E7E7E7" transform="translate(14,4)"/>
<path d="M0,0 L5,1 L8,6 L8,8 L6,8 L5,11 L4,4 L-4,4 L-5,7 L-6,3 Z " fill="#CBCBCB" transform="translate(14,4)"/>
</svg>
