<?xml version="1.0" encoding="UTF-8"?>
<svg version="1.1" xmlns="http://www.w3.org/2000/svg" width="28" height="28">
<path d="M0,0 L28,0 L28,28 L0,28 Z " fill="#020202" transform="translate(0,0)"/>
<path d="M0,0 L6,0 L8,4 L12,11 L11,16 L5,20 L-4,20 L-8,17 L-8,10 L-3,2 Z " fill="#EAEAEA" transform="translate(13,4)"/>
<path d="M0,0 L7,0 L10,2 L10,8 L7,10 L-3,10 L-3,4 Z " fill="#0E0E0E" transform="translate(11,10)"/>
<path d="M0,0 L1,3 L0,8 L-3,10 L-3,3 Z " fill="#C8C8C8" transform="translate(8,11)"/>
</svg>
