<?xml version="1.0" encoding="UTF-8"?>
<svg version="1.1" xmlns="http://www.w3.org/2000/svg" width="28" height="28">
<path d="M0,0 L28,0 L28,28 L0,28 Z " fill="#020202" transform="translate(0,0)"/>
<path d="M0,0 L3,0 L3,2 L7,3 L14,10 L15,16 L11,20 L4,20 L-2,15 L-3,13 L-3,5 Z " fill="#090909" transform="translate(9,4)"/>
<path d="M0,0 L3,0 L3,2 L0,2 L0,13 L4,17 L10,17 L12,16 L13,11 L9,9 L5,5 L2,3 L7,3 L14,10 L15,16 L11,20 L4,20 L-2,15 L-3,13 L-3,5 Z " fill="#D7D7D7" transform="translate(9,4)"/>
<path d="M0,0 L2,3 L-2,7 L-9,7 L-7,5 L-1,3 Z " fill="#B7B7B7" transform="translate(22,17)"/>
</svg>
