<?xml version="1.0" encoding="UTF-8"?>
<svg version="1.1" xmlns="http://www.w3.org/2000/svg" width="28" height="28">
<path d="M0,0 L28,0 L28,28 L0,28 Z " fill="#030303" transform="translate(0,0)"/>
<path d="M0,0 L5,1 L11,3 L10,12 L3,18 L0,19 L-7,19 L-9,17 L-9,10 L-3,2 Z " fill="#E5E5E5" transform="translate(14,4)"/>
<path d="M0,0 L5,2 L7,5 L6,10 L4,10 L4,12 L0,14 L-6,14 L-7,10 L-5,4 L-3,4 L-3,2 Z " fill="#070707" transform="translate(15,6)"/>
<path d="M0,0 L5,1 L8,3 L1,3 L-2,4 L-2,6 L-4,6 L-5,12 L-8,12 L-8,9 L-4,3 Z " fill="#D6D6D6" transform="translate(14,4)"/>
<path d="M0,0 L5,1 L8,3 L1,3 L-3,3 Z " fill="#A3A3A3" transform="translate(14,4)"/>
</svg>
