<?xml version="1.0" encoding="UTF-8"?>
<svg version="1.1" xmlns="http://www.w3.org/2000/svg" width="28" height="28">
<path d="M0,0 L28,0 L28,28 L0,28 Z " fill="#010101" transform="translate(0,0)"/>
<path d="M0,0 L2,0 L1,7 L-2,15 L-7,20 L-10,19 L-9,13 L-3,4 Z " fill="#CDCDCD" transform="translate(18,4)"/>
<path d="M0,0 L2,1 L0,6 L6,1 L5,5 L1,9 L-2,8 L-1,2 Z " fill="#DEDEDE" transform="translate(10,15)"/>
<path d="M0,0 L2,0 L0,6 L-3,10 L-5,10 L-3,4 Z " fill="#323232" transform="translate(15,11)"/>
</svg>
