<?xml version="1.0" encoding="UTF-8"?>
<svg version="1.1" xmlns="http://www.w3.org/2000/svg" width="28" height="28">
<path d="M0,0 L28,0 L28,28 L0,28 Z " fill="#020202" transform="translate(0,0)"/>
<path d="M0,0 L4,1 L5,4 L7,4 L8,6 L8,14 L0,20 L-5,19 L-7,16 L-7,10 L-2,2 Z " fill="#070707" transform="translate(14,4)"/>
<path d="M0,0 L4,1 L5,4 L7,4 L8,6 L8,14 L0,20 L-5,19 L-7,16 L-7,10 L-2,2 Z M0,3 L-4,9 L-4,16 L1,17 L7,12 L6,6 L2,5 L2,3 Z " fill="#CFCFCF" transform="translate(14,4)"/>
<path d="M0,0 L1,0 L1,7 L-7,13 L-12,12 L-13,6 L-10,9 L-4,8 L-1,5 Z " fill="#E1E1E1" transform="translate(21,11)"/>
<path d="M0,0 L2,1 L2,3 L4,3 L5,6 L3,7 L2,5 L-1,4 L-1,2 L-3,1 Z " fill="#B9B9B9" transform="translate(17,5)"/>
</svg>
