<?xml version="1.0" encoding="UTF-8"?>
<svg version="1.1" xmlns="http://www.w3.org/2000/svg" width="28" height="28">
<path d="M0,0 L28,0 L28,28 L0,28 Z " fill="#020202" transform="translate(0,0)"/>
<path d="M0,0 L4,1 L5,3 L5,9 L3,9 L3,12 L-7,16 L-13,16 L-15,14 L-14,9 L-6,4 Z " fill="#DCDCDC" transform="translate(19,6)"/>
<path d="M0,0 L4,1 L5,3 L5,9 L3,9 L3,12 L-2,13 L1,7 L2,4 L-1,3 L-2,7 L-9,9 L-8,5 Z " fill="#EFEFEF" transform="translate(19,6)"/>
<path d="M0,0 L4,1 L2,5 L-2,9 L-10,9 L-6,5 L-1,3 Z " fill="#202020" transform="translate(18,9)"/>
</svg>
