<?xml version="1.0" encoding="UTF-8"?>
<svg version="1.1" xmlns="http://www.w3.org/2000/svg" width="28" height="28">
<path d="M0,0 L28,0 L28,28 L0,28 Z " fill="#020202" transform="translate(0,0)"/>
<path d="M0,0 L5,1 L7,4 L6,10 L1,14 L-5,16 L-10,16 L-13,14 L-12,8 L-9,5 Z " fill="#E1E1E1" transform="translate(17,6)"/>
<path d="M0,0 L5,1 L7,4 L6,10 L1,14 L-4,15 L-4,11 L2,9 L3,6 L-5,6 L-2,1 Z " fill="#E6E6E6" transform="translate(17,6)"/>
<path d="M0,0 L5,0 L6,2 L2,6 L-7,7 L-7,5 L-5,5 L-5,3 Z " fill="#101010" transform="translate(15,11)"/>
</svg>
