<?xml version="1.0" encoding="UTF-8"?>
<svg version="1.1" xmlns="http://www.w3.org/2000/svg" width="28" height="28">
<path d="M0,0 L28,0 L28,28 L0,28 Z " fill="#010101" transform="translate(0,0)"/>
<path d="M0,0 L4,0 L7,4 L6,12 L-1,20 L-7,20 L-9,17 L-8,11 L-4,4 Z " fill="#E2E2E2" transform="translate(15,4)"/>
<path d="M0,0 L2,0 L2,7 L-2,12 L-8,13 L-7,7 L-2,1 Z " fill="#0B0B0B" transform="translate(17,8)"/>
<path d="M0,0 L2,4 L0,9 L-3,7 L-1,5 Z " fill="#C1C1C1" transform="translate(19,10)"/>
</svg>
