<?xml version="1.0" encoding="UTF-8"?>
<svg version="1.1" xmlns="http://www.w3.org/2000/svg" width="28" height="28">
<path d="M0,0 L28,0 L28,28 L0,28 Z " fill="#020202" transform="translate(0,0)"/>
<path d="M0,0 L6,1 L11,6 L12,13 L9,18 L7,19 L1,19 L-4,15 L-6,12 L-5,5 Z " fill="#0E0E0E" transform="translate(11,5)"/>
<path d="M0,0 L6,1 L11,6 L12,13 L9,18 L7,19 L1,19 L-4,15 L-6,12 L-5,5 Z M1,3 L-3,6 L-4,12 L1,17 L7,17 L10,12 L9,5 L4,3 Z " fill="#D0D0D0" transform="translate(11,5)"/>
<path d="M0,0 L6,1 L8,4 L1,4 L-4,7 L-3,2 Z " fill="#ECECEC" transform="translate(11,5)"/>
</svg>
