<?xml version="1.0" encoding="UTF-8"?>
<svg version="1.1" xmlns="http://www.w3.org/2000/svg" width="28" height="28">
<path d="M0,0 L28,0 L28,28 L0,28 Z " fill="#030303" transform="translate(0,0)"/>
<path d="M0,0 L3,0 L5,5 L4,12 L-6,19 L-12,20 L-14,18 L-13,13 L-9,8 L-1,1 Z " fill="#C9C9C9" transform="translate(19,4)"/>
<path d="M0,0 L3,0 L2,7 L-6,12 L-9,12 L-8,8 L-3,2 Z " fill="#161616" transform="translate(18,9)"/>
<path d="M0,0 L2,0 L0,5 L-3,10 L2,8 L5,9 L-1,13 L-6,12 L-7,8 L-2,1 Z " fill="#ECECEC" transform="translate(12,11)"/>
<path d="M0,0 L2,3 L1,7 L-4,10 L-6,8 L-1,6 Z " fill="#C6C6C6" transform="translate(21,10)"/>
<path d="M0,0 L1,3 L4,4 L4,8 L2,8 L1,5 L-4,5 Z " fill="#F5F5F5" transform="translate(20,5)"/>
</svg>
