<?xml version="1.0" encoding="UTF-8"?>
<svg version="1.1" xmlns="http://www.w3.org/2000/svg" width="28" height="28">
<path d="M0,0 L28,0 L28,28 L0,28 Z " fill="#050505" transform="translate(0,0)"/>
<path d="M0,0 L5,1 L7,3 L6,9 L1,14 L-4,18 L-12,18 L-12,11 L-4,2 Z " fill="#D7D7D7" transform="translate(18,5)"/>
<path d="M0,0 L3,0 L3,6 L-2,12 L-5,14 L-11,14 L-9,7 Z " fill="#0C0C0C" transform="translate(19,7)"/>
<path d="M0,0 L3,0 L3,2 L1,2 L-1,10 L3,11 L-3,11 L-3,4 Z " fill="#EDEDED" transform="translate(9,12)"/>
</svg>
