<?xml version="1.0" encoding="UTF-8"?>
<svg version="1.1" xmlns="http://www.w3.org/2000/svg" width="28" height="28">
<path d="M0,0 L28,0 L28,28 L0,28 Z " fill="#020202" transform="translate(0,0)"/>
<path d="M0,0 L3,0 L6,6 L4,13 L0,15 L0,17 L-6,20 L-13,20 L-14,19 L-14,14 L-10,9 L-5,5 L-4,3 L0,3 Z " fill="#EEEEEE" transform="translate(19,3)"/>
<path d="M0,0 L3,0 L3,6 L-3,11 L-9,12 L-8,8 L-5,5 L-3,5 L-1,1 Z " fill="#181818" transform="translate(18,8)"/>
<path d="M0,0 L3,0 L6,6 L5,11 L2,10 L2,5 L-4,5 L-4,3 L0,3 Z " fill="#C8C8C8" transform="translate(19,3)"/>
</svg>
