<?xml version="1.0" encoding="UTF-8"?>
<svg version="1.1" xmlns="http://www.w3.org/2000/svg" width="28" height="28">
<path d="M0,0 L28,0 L28,28 L0,28 Z " fill="#010101" transform="translate(0,0)"/>
<path d="M0,0 L6,0 L8,2 L8,10 L2,18 L-5,20 L-7,19 L-7,14 L-10,13 L-4,10 L1,6 L2,4 L5,5 L1,11 L-2,14 L-4,14 L-4,17 L1,16 L1,14 L3,14 L6,2 L0,2 Z " fill="#D5D5D5" transform="translate(14,4)"/>
<path d="M0,0 L1,0 L0,9 L-2,12 L-4,12 L-4,14 L-9,15 L-9,12 L-7,12 L-6,9 L-2,5 L-2,2 Z " fill="#242424" transform="translate(19,6)"/>
<path d="M0,0 L1,4 L4,4 L4,6 L0,7 L-2,6 L-1,1 Z " fill="#F6F6F6" transform="translate(9,17)"/>
</svg>
