<?xml version="1.0" encoding="UTF-8"?>
<svg version="1.1" xmlns="http://www.w3.org/2000/svg" width="28" height="28">
<path d="M0,0 L28,0 L28,28 L0,28 Z " fill="#030303" transform="translate(0,0)"/>
<path d="M0,0 L8,1 L13,4 L14,9 L12,14 L6,17 L-3,17 L-6,14 L-6,6 L-2,1 Z " fill="#0A0A0A" transform="translate(11,6)"/>
<path d="M0,0 L8,1 L13,4 L14,9 L12,14 L6,17 L-3,17 L-6,14 L-6,6 L-2,1 Z M6,3 L5,4 L-2,5 L-4,8 L-3,13 L-1,15 L5,15 L11,11 L11,5 Z " fill="#E6E6E6" transform="translate(11,6)"/>
</svg>
