<?xml version="1.0" encoding="UTF-8"?>
<svg version="1.1" xmlns="http://www.w3.org/2000/svg" width="28" height="28">
<path d="M0,0 L28,0 L28,28 L0,28 Z " fill="#020202" transform="translate(0,0)"/>
<path d="M0,0 L6,0 L7,5 L11,10 L10,16 L6,19 L-3,20 L-6,18 L-7,15 L-7,7 L-2,1 Z " fill="#E1E1E1" transform="translate(13,4)"/>
<path d="M0,0 L3,1 L1,1 L1,4 L5,6 L6,13 L0,16 L-5,14 L-6,13 L-6,5 L-2,1 Z " fill="#070707" transform="translate(15,6)"/>
<path d="M0,0 L6,0 L7,3 L0,4 L-3,7 L-4,14 L-7,10 L-6,5 Z " fill="#CACACA" transform="translate(13,4)"/>
</svg>
