<?xml version="1.0" encoding="UTF-8"?>
<svg version="1.1" xmlns="http://www.w3.org/2000/svg" width="28" height="28">
<path d="M0,0 L28,0 L28,28 L0,28 Z " fill="#030303" transform="translate(0,0)"/>
<path d="M0,0 L4,0 L4,3 L6,3 L6,5 L9,6 L10,12 L2,18 L-5,18 L-9,16 L-10,9 L-6,3 Z " fill="#111111" transform="translate(15,5)"/>
<path d="M0,0 L4,0 L4,3 L6,3 L6,5 L9,6 L10,12 L2,18 L-5,18 L-9,16 L-10,9 L-6,3 Z M-1,3 L-6,8 L-7,9 L-7,14 L-5,16 L4,15 L7,12 L7,7 L2,3 Z " fill="#E3E3E3" transform="translate(15,5)"/>
</svg>
