<?xml version="1.0" encoding="UTF-8"?>
<svg version="1.1" xmlns="http://www.w3.org/2000/svg" width="28" height="28">
<path d="M0,0 L28,0 L28,28 L0,28 Z " fill="#040404" transform="translate(0,0)"/>
<path d="M0,0 L5,1 L7,6 L7,8 L11,12 L10,17 L6,19 L-7,19 L-9,16 L-8,9 L-5,4 L-2,3 L-2,1 Z " fill="#0F0F0F" transform="translate(14,3)"/>
<path d="M0,0 L5,1 L5,4 L1,4 L-4,9 L-5,10 L-5,16 L1,17 L7,15 L6,11 L3,6 L7,8 L11,12 L10,17 L6,19 L-7,19 L-9,16 L-8,9 L-5,4 L-2,3 L-2,1 Z " fill="#E7E7E7" transform="translate(14,3)"/>
<path d="M0,0 L5,1 L5,4 L1,4 L0,2 L-2,1 Z " fill="#BEBEBE" transform="translate(14,3)"/>
</svg>
