<?xml version="1.0" encoding="UTF-8"?>
<svg version="1.1" xmlns="http://www.w3.org/2000/svg" width="28" height="28">
<path d="M0,0 L28,0 L28,28 L0,28 Z " fill="#030303" transform="translate(0,0)"/>
<path d="M0,0 L6,1 L11,7 L11,13 L6,18 L3,20 L-4,20 L-7,18 L-9,12 L-8,6 L-5,5 L-3,1 Z " fill="#DEDEDE" transform="translate(13,5)"/>
<path d="M0,0 L4,1 L6,4 L5,9 L1,13 L-5,13 L-8,10 L-8,3 Z " fill="#050505" transform="translate(15,9)"/>
<path d="M0,0 L5,2 L9,7 L9,13 L4,18 L3,19 L-4,19 L-5,17 L2,15 L5,12 L4,6 L3,3 L-1,2 Z " fill="#EBEBEB" transform="translate(15,5)"/>
<path d="M0,0 L1,0 L3,7 L5,10 L10,11 L10,12 L3,12 L0,10 L-1,6 Z " fill="#AFAFAF" transform="translate(6,13)"/>
</svg>
