<?xml version="1.0" encoding="UTF-8"?>
<svg version="1.1" xmlns="http://www.w3.org/2000/svg" width="28" height="28">
<path d="M0,0 L28,0 L28,28 L0,28 Z " fill="#050505" transform="translate(0,0)"/>
<path d="M0,0 L5,0 L7,4 L7,12 L3,17 L-2,19 L-7,19 L-11,15 L-12,10 L-8,4 L-5,1 Z " fill="#080808" transform="translate(16,5)"/>
<path d="M0,0 L5,0 L7,4 L7,12 L3,17 L-2,19 L-7,19 L-11,15 L-12,10 L-8,4 L-5,1 Z M0,2 L0,5 L-6,6 L-10,10 L-9,14 L-7,16 L0,16 L4,13 L4,3 Z " fill="#E0E0E0" transform="translate(16,5)"/>
<path d="M0,0 L3,0 L3,4 L-3,5 L-1,1 Z " fill="#EDEDED" transform="translate(13,6)"/>
</svg>
