<?xml version="1.0" encoding="UTF-8"?>
<svg version="1.1" xmlns="http://www.w3.org/2000/svg" width="28" height="28">
<path d="M0,0 L28,0 L28,28 L0,28 Z " fill="#050505" transform="translate(0,0)"/>
<path d="M0,0 L3,0 L3,2 L6,3 L6,5 L4,5 L4,3 L2,3 L2,5 L0,6 L-1,16 L6,15 L9,14 L7,6 L10,7 L12,11 L11,16 L7,19 L-1,20 L-4,17 L-3,3 L-1,3 Z " fill="#EBEBEB" transform="translate(12,3)"/>
<path d="M0,0 L3,0 L3,2 L6,3 L6,5 L4,5 L4,3 L2,3 L2,5 L-3,7 L-3,3 L-1,3 Z " fill="#D4D4D4" transform="translate(12,3)"/>
</svg>
