<?xml version="1.0" encoding="UTF-8"?>
<svg version="1.1" xmlns="http://www.w3.org/2000/svg" width="28" height="28">
<path d="M0,0 L28,0 L28,28 L0,28 Z " fill="#020202" transform="translate(0,0)"/>
<path d="M0,0 L2,0 L2,2 L9,2 L9,4 L11,4 L12,11 L8,17 L6,17 L5,20 L0,20 L-2,17 L-2,6 Z " fill="#ECECEC" transform="translate(11,4)"/>
<path d="M0,0 L7,1 L8,2 L7,11 L3,15 L1,15 L2,10 L4,6 L6,6 L6,3 L2,7 L0,9 Z " fill="#171717" transform="translate(12,7)"/>
<path d="M0,0 L2,0 L2,2 L9,2 L9,4 L11,4 L12,11 L9,14 L8,11 L8,5 L2,4 L1,12 L0,12 L-1,1 Z " fill="#D3D3D3" transform="translate(11,4)"/>
<path d="M0,0 L3,0 L2,7 L-1,7 Z " fill="#BABABA" transform="translate(20,10)"/>
<path d="M0,0 L2,0 L2,3 L0,3 L-1,7 L-3,6 L-1,1 Z " fill="#D5D5D5" transform="translate(16,10)"/>
</svg>
