<?xml version="1.0" encoding="UTF-8"?>
<svg version="1.1" xmlns="http://www.w3.org/2000/svg" width="28" height="28">
<path d="M0,0 L28,0 L28,28 L0,28 Z " fill="#030303" transform="translate(0,0)"/>
<path d="M0,0 L4,2 L5,4 L5,14 L1,19 L-1,20 L-7,20 L-9,18 L-9,10 L-4,4 Z " fill="#070707" transform="translate(16,4)"/>
<path d="M0,0 L4,2 L5,4 L5,14 L1,19 L-1,20 L-7,20 L-9,18 L-9,10 L-4,4 Z M0,3 L-7,10 L-8,16 L-6,18 L1,17 L3,14 L3,5 L2,3 Z " fill="#C7C7C7" transform="translate(16,4)"/>
<path d="M0,0 L2,1 L-4,7 L-5,13 L-2,16 L-7,15 L-7,7 L-2,1 Z " fill="#DFDFDF" transform="translate(14,7)"/>
</svg>
