<?xml version="1.0" encoding="UTF-8"?>
<svg version="1.1" xmlns="http://www.w3.org/2000/svg" width="28" height="28">
<path d="M0,0 L28,0 L28,28 L0,28 Z " fill="#020202" transform="translate(0,0)"/>
<path d="M0,0 L7,1 L11,6 L11,15 L7,20 L1,20 L-3,15 L-3,5 Z " fill="#0C0C0C" transform="translate(11,5)"/>
<path d="M0,0 L7,1 L11,6 L11,15 L7,20 L1,20 L-3,15 L-3,5 Z M2,2 L1,3 L1,9 L-1,8 L0,15 L1,17 L7,17 L10,13 L9,7 L7,3 Z " fill="#E0E0E0" transform="translate(11,5)"/>
<path d="M0,0 L2,4 L10,3 L8,7 L2,7 L-1,3 Z " fill="#CACACA" transform="translate(10,18)"/>
</svg>
