<?xml version="1.0" encoding="UTF-8"?>
<svg version="1.1" xmlns="http://www.w3.org/2000/svg" width="28" height="28">
<path d="M0,0 L28,0 L28,28 L0,28 Z " fill="#030303" transform="translate(0,0)"/>
<path d="M0,0 L2,1 L1,2 L6,5 L5,14 L0,20 L-6,20 L-8,19 L-8,9 L-4,3 Z " fill="#0A0A0A" transform="translate(16,4)"/>
<path d="M0,0 L2,1 L1,2 L6,5 L5,14 L0,20 L-6,20 L-8,19 L-8,9 L-4,3 Z M-3,5 L-6,10 L-6,18 L-2,19 L3,14 L4,12 L4,6 L3,5 Z " fill="#E7E7E7" transform="translate(16,4)"/>
<path d="M0,0 L2,2 L3,9 L8,9 L10,5 L12,3 L13,5 L8,11 L2,11 L0,10 Z " fill="#CFCFCF" transform="translate(8,13)"/>
</svg>
