<?xml version="1.0" encoding="UTF-8"?>
<svg version="1.1" xmlns="http://www.w3.org/2000/svg" width="28" height="28">
<path d="M0,0 L28,0 L28,28 L0,28 Z " fill="#020202" transform="translate(0,0)"/>
<path d="M0,0 L5,2 L9,8 L9,18 L3,20 L-1,16 L-1,1 Z " fill="#E2E2E2" transform="translate(11,4)"/>
<path d="M0,0 L5,2 L9,8 L8,10 L2,7 L2,16 L-1,15 L-1,1 Z " fill="#F2F2F2" transform="translate(11,4)"/>
<path d="M0,0 L4,2 L4,10 L1,10 L1,8 L-1,8 L-1,1 Z " fill="#1C1C1C" transform="translate(13,10)"/>
</svg>
