<?xml version="1.0" encoding="UTF-8"?>
<svg version="1.1" xmlns="http://www.w3.org/2000/svg" width="28" height="28">
<path d="M0,0 L28,0 L28,28 L0,28 Z " fill="#010101" transform="translate(0,0)"/>
<path d="M0,0 L5,1 L6,2 L6,11 L2,17 L-2,20 L-8,20 L-10,18 L-10,12 L-7,7 L-5,7 L-4,3 Z " fill="#E5E5E5" transform="translate(16,5)"/>
<path d="M0,0 L2,0 L3,6 L-1,13 L-8,14 L-8,9 L-4,5 Z " fill="#161616" transform="translate(17,8)"/>
<path d="M0,0 L3,1 L3,5 L8,5 L8,8 L2,8 L0,6 Z " fill="#CACACA" transform="translate(6,17)"/>
</svg>
