<?xml version="1.0" encoding="UTF-8"?>
<svg version="1.1" xmlns="http://www.w3.org/2000/svg" width="28" height="28">
<path d="M0,0 L28,0 L28,28 L0,28 Z " fill="#020202" transform="translate(0,0)"/>
<path d="M0,0 L2,0 L3,2 L2,11 L0,15 L-7,20 L-12,20 L-13,19 L-13,13 L-7,3 Z " fill="#D3D3D3" transform="translate(20,4)"/>
<path d="M0,0 L2,0 L1,7 L-3,13 L-9,15 L-10,10 L-6,3 L-4,3 L-4,1 Z " fill="#090909" transform="translate(19,7)"/>
<path d="M0,0 L2,0 L3,2 L3,8 L1,5 L1,3 L-5,4 L-6,6 L-7,3 Z " fill="#A2A2A2" transform="translate(20,4)"/>
</svg>
