<?xml version="1.0" encoding="UTF-8"?>
<svg version="1.1" xmlns="http://www.w3.org/2000/svg" width="28" height="28">
<path d="M0,0 L28,0 L28,28 L0,28 Z " fill="#040404" transform="translate(0,0)"/>
<path d="M0,0 L8,0 L10,7 L7,14 L3,18 L0,19 L-10,19 L-9,13 L-6,7 Z " fill="#D8D8D8" transform="translate(14,4)"/>
<path d="M0,0 L3,1 L4,6 L1,13 L-3,17 L-6,18 L-16,18 L-15,12 L-13,12 L-13,16 L-8,16 L-7,14 L-3,12 L0,8 L1,2 L-1,1 Z " fill="#E6E6E6" transform="translate(20,5)"/>
<path d="M0,0 L2,0 L2,6 L-3,12 L-6,11 L-5,5 Z " fill="#0C0C0C" transform="translate(18,8)"/>
<path d="M0,0 L3,1 L4,6 L2,11 L-1,11 L1,2 L-1,1 Z " fill="#F4F4F4" transform="translate(20,5)"/>
<path d="M0,0 L3,4 L3,6 L-2,6 L-1,2 Z " fill="#272727" transform="translate(9,15)"/>
</svg>
