<?xml version="1.0" encoding="UTF-8"?>
<svg version="1.1" xmlns="http://www.w3.org/2000/svg" width="28" height="28">
<path d="M0,0 L28,0 L28,28 L0,28 Z " fill="#010101" transform="translate(0,0)"/>
<path d="M0,0 L6,0 L10,5 L10,12 L2,19 L-5,20 L-8,16 L-7,9 L-4,3 L-2,3 L-2,1 Z " fill="#DEDEDE" transform="translate(14,5)"/>
<path d="M0,0 L5,0 L7,2 L6,8 L1,13 L-6,14 L-6,7 L-4,5 L-2,5 L-1,1 Z " fill="#070707" transform="translate(15,8)"/>
<path d="M0,0 L2,0 L0,4 L-3,6 L-8,6 L-3,2 Z " fill="#EAEAEA" transform="translate(19,18)"/>
<path d="M0,0 L1,0 L1,5 L5,6 L6,8 L1,8 L0,7 Z " fill="#B9B9B9" transform="translate(8,17)"/>
<path d="M0,0 L1,0 L1,7 L-2,9 L-3,6 Z " fill="#B0B0B0" transform="translate(23,10)"/>
</svg>
