<?xml version="1.0" encoding="UTF-8"?>
<svg version="1.1" xmlns="http://www.w3.org/2000/svg" width="28" height="28">
<path d="M0,0 L28,0 L28,28 L0,28 Z " fill="#020202" transform="translate(0,0)"/>
<path d="M0,0 L5,1 L6,2 L5,9 L-2,14 L-8,16 L-13,16 L-14,12 L-10,7 L-2,1 Z " fill="#D1D1D1" transform="translate(19,6)"/>
<path d="M0,0 L5,0 L4,5 L0,8 L-2,8 L-2,10 L-6,10 L-6,5 Z " fill="#0C0C0C" transform="translate(18,9)"/>
<path d="M0,0 L3,1 L-2,7 L-4,7 L-5,10 L0,10 L-2,12 L-7,12 L-8,8 L-4,3 Z " fill="#E9E9E9" transform="translate(13,10)"/>
<path d="M0,0 L3,0 L3,3 L7,3 L7,1 L10,0 L10,3 L4,5 L-1,4 Z " fill="#929292" transform="translate(9,16)"/>
</svg>
