<?xml version="1.0" encoding="UTF-8"?>
<svg version="1.1" xmlns="http://www.w3.org/2000/svg" width="28" height="28">
<path d="M0,0 L28,0 L28,28 L0,28 Z " fill="#010101" transform="translate(0,0)"/>
<path d="M0,0 L5,1 L4,6 L-1,12 L-10,16 L-15,15 L-14,11 L-3,1 Z " fill="#BEBEBE" transform="translate(20,6)"/>
<path d="M0,0 L3,0 L3,2 L-4,7 L-8,11 L-9,8 L-3,1 Z " fill="#EDEDED" transform="translate(20,6)"/>
<path d="M0,0 L2,0 L0,6 L-6,9 L-5,4 Z " fill="#181818" transform="translate(20,9)"/>
<path d="M0,0 L7,1 L6,3 L-1,4 L-1,1 Z " fill="#F3F3F3" transform="translate(7,18)"/>
</svg>
