<?xml version="1.0" encoding="UTF-8"?>
<svg version="1.1" xmlns="http://www.w3.org/2000/svg" width="28" height="28">
<path d="M0,0 L28,0 L28,28 L0,28 Z " fill="#020202" transform="translate(0,0)"/>
<path d="M0,0 L5,1 L9,9 L8,17 L6,17 L6,19 L-2,20 L-7,15 L-7,7 L-2,1 Z " fill="#070707" transform="translate(14,4)"/>
<path d="M0,0 L5,1 L9,9 L8,17 L6,17 L6,19 L-2,20 L-7,15 L-7,7 L-2,1 Z M0,3 L-4,7 L-4,15 L-2,17 L4,17 L7,14 L7,8 L4,3 Z " fill="#CCCCCC" transform="translate(14,4)"/>
<path d="M0,0 L4,0 L7,5 L7,7 L5,7 L2,2 Z " fill="#E3E3E3" transform="translate(15,5)"/>
</svg>
