<?xml version="1.0" encoding="UTF-8"?>
<svg version="1.1" xmlns="http://www.w3.org/2000/svg" width="28" height="28">
<path d="M0,0 L28,0 L28,28 L0,28 Z " fill="#020202" transform="translate(0,0)"/>
<path d="M0,0 L6,2 L7,7 L2,13 L-6,17 L-12,17 L-13,15 L-8,6 Z " fill="#C4C4C4" transform="translate(18,6)"/>
<path d="M0,0 L3,0 L2,6 L-8,11 L-11,11 L-9,7 L-7,6 L-5,7 L-3,2 Z " fill="#0E0E0E" transform="translate(19,10)"/>
<path d="M0,0 L0,3 L-1,5 L3,3 L8,3 L7,5 L3,7 L-3,7 L-4,5 L-2,1 Z " fill="#EBEBEB" transform="translate(9,16)"/>
<path d="M0,0 L5,2 L0,6 L-5,7 L-3,2 Z " fill="#E4E4E4" transform="translate(18,6)"/>
<path d="M0,0 L4,3 L0,5 L-3,5 L-1,1 Z " fill="#2A2A2A" transform="translate(11,16)"/>
</svg>
