<?xml version="1.0" encoding="UTF-8"?>
<svg version="1.1" xmlns="http://www.w3.org/2000/svg" width="28" height="28">
<path d="M0,0 L28,0 L28,28 L0,28 Z " fill="#030303" transform="translate(0,0)"/>
<path d="M0,0 L7,1 L12,7 L11,14 L6,20 L-2,20 L-6,15 L-8,9 L-7,3 L-4,1 Z " fill="#060606" transform="translate(12,5)"/>
<path d="M0,0 L7,1 L12,7 L11,14 L6,20 L-2,20 L-6,15 L-8,9 L-7,3 L-4,1 L-1,1 L-3,5 L-4,6 L-3,14 L-2,18 L4,16 L7,13 L8,6 L6,4 L0,2 Z " fill="#CBCBCB" transform="translate(12,5)"/>
<path d="M0,0 L1,3 L-3,7 L-10,7 L-5,3 Z " fill="#F1F1F1" transform="translate(21,18)"/>
<path d="M0,0 L3,0 L1,4 L-2,5 L-3,9 L-4,4 Z " fill="#EDEDED" transform="translate(8,6)"/>
</svg>
