<?xml version="1.0" encoding="UTF-8"?>
<svg version="1.1" xmlns="http://www.w3.org/2000/svg" width="28" height="28">
<path d="M0,0 L28,0 L28,28 L0,28 Z " fill="#020202" transform="translate(0,0)"/>
<path d="M0,0 L8,0 L8,5 L1,11 L-5,14 L-11,14 L-12,10 L-3,2 Z " fill="#E3E3E3" transform="translate(16,8)"/>
<path d="M0,0 L3,1 L2,5 L-5,9 L-11,10 L-9,6 Z " fill="#101010" transform="translate(18,10)"/>
<path d="M0,0 L1,0 L1,5 L-6,11 L-12,13 L-15,11 L-6,8 L-3,6 L-2,3 L-4,2 Z " fill="#B6B6B6" transform="translate(23,8)"/>
</svg>
