<?xml version="1.0" encoding="UTF-8"?>
<svg version="1.1" xmlns="http://www.w3.org/2000/svg" width="28" height="28">
<path d="M0,0 L28,0 L28,28 L0,28 Z " fill="#030303" transform="translate(0,0)"/>
<path d="M0,0 L4,1 L5,3 L12,6 L15,9 L15,16 L9,20 L2,20 L-2,16 L-3,9 Z " fill="#E6E6E6" transform="translate(9,4)"/>
<path d="M0,0 L9,3 L12,7 L11,11 L7,13 L0,12 L-1,4 Z " fill="#080808" transform="translate(10,8)"/>
<path d="M0,0 L1,0 L1,7 L-5,11 L-12,11 L-12,10 L-7,9 L-6,7 L0,5 Z " fill="#C5C5C5" transform="translate(23,13)"/>
</svg>
