<?xml version="1.0" encoding="UTF-8"?>
<svg version="1.1" xmlns="http://www.w3.org/2000/svg" width="28" height="28">
<path d="M0,0 L28,0 L28,28 L0,28 Z " fill="#020202" transform="translate(0,0)"/>
<path d="M0,0 L8,2 L12,7 L14,11 L14,17 L13,19 L7,20 L2,18 L-2,10 L-2,2 Z " fill="#D5D5D5" transform="translate(9,4)"/>
<path d="M0,0 L6,2 L11,10 L9,14 L2,13 L0,10 Z " fill="#0B0B0B" transform="translate(10,7)"/>
<path d="M0,0 L2,4 L4,12 L10,14 L10,16 L3,14 L0,9 Z " fill="#F0F0F0" transform="translate(8,8)"/>
</svg>
