<?xml version="1.0" encoding="UTF-8"?>
<svg version="1.1" xmlns="http://www.w3.org/2000/svg" width="28" height="28">
<path d="M0,0 L28,0 L28,28 L0,28 Z " fill="#030303" transform="translate(0,0)"/>
<path d="M0,0 L6,2 L9,7 L8,13 L3,19 L1,20 L-5,20 L-11,15 L-11,9 L-5,2 Z " fill="#E1E1E1" transform="translate(16,4)"/>
<path d="M0,0 L5,4 L5,10 L1,14 L-6,13 L-8,10 L-8,5 L-5,2 L0,3 Z " fill="#0C0C0C" transform="translate(17,7)"/>
<path d="M0,0 L2,3 L3,7 L10,8 L14,6 L12,10 L9,12 L3,12 L-2,7 L-2,2 Z " fill="#F1F1F1" transform="translate(8,12)"/>
<path d="M0,0 L5,0 L0,4 L-3,6 L-4,11 L-5,11 L-5,5 Z " fill="#C0C0C0" transform="translate(10,8)"/>
</svg>
