<?xml version="1.0" encoding="UTF-8"?>
<svg version="1.1" xmlns="http://www.w3.org/2000/svg" width="28" height="28">
<path d="M0,0 L28,0 L28,28 L0,28 Z " fill="#030303" transform="translate(0,0)"/>
<path d="M0,0 L5,0 L4,6 L0,12 L-8,17 L-14,18 L-15,13 L-11,6 L-3,1 Z " fill="#EAEAEA" transform="translate(19,6)"/>
<path d="M0,0 L2,1 L1,2 L4,3 L4,6 L-6,13 L-9,12 L-9,10 L-9,7 L-5,3 Z " fill="#E0E0E0" transform="translate(16,7)"/>
<path d="M0,0 L3,0 L1,4 L-6,9 L-9,8 L-4,2 Z " fill="#141414" transform="translate(16,11)"/>
</svg>
