<?xml version="1.0" encoding="UTF-8"?>
<svg version="1.1" xmlns="http://www.w3.org/2000/svg" width="28" height="28">
<path d="M0,0 L28,0 L28,28 L0,28 Z " fill="#030303" transform="translate(0,0)"/>
<path d="M0,0 L8,1 L11,5 L10,12 L4,17 L-1,20 L-8,19 L-9,13 L-5,4 Z " fill="#0A0A0A" transform="translate(15,5)"/>
<path d="M0,0 L8,1 L11,5 L10,12 L4,17 L-1,20 L-8,19 L-9,13 L-5,4 Z M0,3 L0,5 L-4,7 L-4,10 L-4,11 L-6,12 L-6,17 L3,16 L8,12 L9,6 L8,3 Z " fill="#DCDCDC" transform="translate(15,5)"/>
<path d="M0,0 L4,4 L3,11 L0,14 L-3,13 L0,11 L1,2 L-6,2 L-6,1 Z " fill="#BCBCBC" transform="translate(22,6)"/>
</svg>
