<?xml version="1.0" encoding="UTF-8"?>
<svg version="1.1" xmlns="http://www.w3.org/2000/svg" width="28" height="28">
<path d="M0,0 L28,0 L28,28 L0,28 Z " fill="#020202" transform="translate(0,0)"/>
<path d="M0,0 L4,1 L5,2 L5,8 L0,16 L-4,20 L-9,19 L-9,9 L-6,1 Z " fill="#101010" transform="translate(17,5)"/>
<path d="M0,0 L4,1 L5,2 L5,8 L0,16 L-4,20 L-9,19 L-9,9 L-6,1 Z M-1,2 L-5,6 L-5,8 L-7,8 L-8,18 L-3,17 L2,11 L3,2 Z " fill="#CECECE" transform="translate(17,5)"/>
<path d="M0,0 L2,0 L2,3 L0,3 L0,6 L2,7 L0,8 L0,13 L2,15 L-2,14 L-2,4 Z " fill="#E6E6E6" transform="translate(10,10)"/>
</svg>
