<?xml version="1.0" encoding="UTF-8"?>
<svg version="1.1" xmlns="http://www.w3.org/2000/svg" width="28" height="28">
<path d="M0,0 L28,0 L28,28 L0,28 Z " fill="#020202" transform="translate(0,0)"/>
<path d="M0,0 L4,1 L6,4 L6,13 L3,19 L-1,20 L-3,18 L-2,5 Z " fill="#D0D0D0" transform="translate(13,4)"/>
<path d="M0,0 L4,1 L4,8 L0,14 L-2,14 L-1,5 Z " fill="#1B1B1B" transform="translate(14,7)"/>
<path d="M0,0 L1,0 L1,9 L-2,15 L-6,16 L-4,12 L-1,7 Z " fill="#E7E7E7" transform="translate(18,8)"/>
</svg>
