<?xml version="1.0" encoding="UTF-8"?>
<svg version="1.1" xmlns="http://www.w3.org/2000/svg" width="28" height="28">
<path d="M0,0 L28,0 L28,28 L0,28 Z " fill="#020202" transform="translate(0,0)"/>
<path d="M0,0 L2,1 L5,0 L14,0 L15,5 L12,8 L7,10 L-3,10 L-5,8 L-4,3 Z " fill="#0A0A0A" transform="translate(10,10)"/>
<path d="M0,0 L2,1 L5,0 L14,0 L15,5 L12,8 L7,10 L-3,10 L-5,8 L-4,3 Z M6,1 L1,4 L0,7 L1,2 L-2,3 L-3,8 L-2,9 L5,9 L13,5 L14,2 L12,1 Z " fill="#C5C5C5" transform="translate(10,10)"/>
<path d="M0,0 L2,1 L1,5 L4,5 L4,7 L-1,7 L-2,3 Z " fill="#393939" transform="translate(9,12)"/>
</svg>
