<?xml version="1.0" encoding="UTF-8"?>
<svg version="1.1" xmlns="http://www.w3.org/2000/svg" width="28" height="28">
<path d="M0,0 L28,0 L28,28 L0,28 Z " fill="#030303" transform="translate(0,0)"/>
<path d="M0,0 L4,1 L7,4 L10,12 L9,18 L6,20 L0,20 L-5,16 L-6,14 L-6,8 L-2,2 Z " fill="#0C0C0C" transform="translate(13,4)"/>
<path d="M0,0 L4,1 L7,4 L10,12 L9,18 L6,20 L0,20 L-5,16 L-6,14 L-6,8 L-2,2 Z M0,2 L-4,8 L-4,14 L-1,18 L7,18 L8,13 L4,3 Z " fill="#E8E8E8" transform="translate(13,4)"/>
<path d="M0,0 L3,1 L4,9 L0,13 L-6,13 L-4,11 L1,10 Z " fill="#D1D1D1" transform="translate(19,11)"/>
</svg>
