<?xml version="1.0" encoding="UTF-8"?>
<svg version="1.1" xmlns="http://www.w3.org/2000/svg" width="28" height="28">
<path d="M0,0 L28,0 L28,28 L0,28 Z " fill="#020202" transform="translate(0,0)"/>
<path d="M0,0 L10,2 L12,5 L11,14 L6,19 L-2,20 L-6,16 L-6,7 L-2,1 Z " fill="#DFDFDF" transform="translate(12,5)"/>
<path d="M0,0 L4,2 L4,9 L-1,14 L-8,13 L-8,6 L-6,2 L-5,6 L-2,1 Z " fill="#080808" transform="translate(17,8)"/>
<path d="M0,0 L6,1 L8,4 L7,8 L5,9 L4,4 Z " fill="#C7C7C7" transform="translate(16,6)"/>
</svg>
