<?xml version="1.0" encoding="UTF-8"?>
<svg version="1.1" xmlns="http://www.w3.org/2000/svg" width="28" height="28">
<path d="M0,0 L28,0 L28,28 L0,28 Z " fill="#010101" transform="translate(0,0)"/>
<path d="M0,0 L6,1 L8,5 L8,16 L4,20 L-1,19 L-3,16 L-3,7 L-1,1 Z " fill="#0E0E0E" transform="translate(12,4)"/>
<path d="M0,0 L6,1 L8,5 L8,16 L4,20 L-1,19 L-3,16 L-3,7 L-1,1 Z M2,2 L0,4 L-1,15 L1,18 L5,17 L7,14 L7,6 L4,2 Z " fill="#E1E1E1" transform="translate(12,4)"/>
<path d="M0,0 L6,1 L5,4 L1,4 L0,9 L-2,6 L-1,1 Z " fill="#C7C7C7" transform="translate(12,4)"/>
</svg>
