<?xml version="1.0" encoding="UTF-8"?>
<svg version="1.1" xmlns="http://www.w3.org/2000/svg" width="28" height="28">
<path d="M0,0 L28,0 L28,28 L0,28 Z " fill="#030303" transform="translate(0,0)"/>
<path d="M0,0 L7,1 L8,8 L4,16 L2,16 L2,18 L-3,20 L-6,18 L-6,11 L-5,7 L-3,7 L-2,2 Z " fill="#E5E5E5" transform="translate(14,5)"/>
<path d="M0,0 L1,0 L1,5 L5,3 L6,1 L10,0 L9,5 L6,6 L6,8 L1,10 L-2,8 L-2,1 Z " fill="#F0F0F0" transform="translate(10,15)"/>
<path d="M0,0 L3,0 L2,7 L0,7 L-1,10 L-5,11 L-4,5 L-2,1 Z " fill="#141414" transform="translate(16,9)"/>
</svg>
