<?xml version="1.0" encoding="UTF-8"?>
<svg version="1.1" xmlns="http://www.w3.org/2000/svg" width="28" height="28">
<path d="M0,0 L28,0 L28,28 L0,28 Z " fill="#020202" transform="translate(0,0)"/>
<path d="M0,0 L5,1 L10,5 L11,7 L11,13 L6,18 L3,20 L-2,20 L-5,17 L-5,6 Z " fill="#DBDBDB" transform="translate(12,4)"/>
<path d="M0,0 L4,1 L7,4 L7,11 L2,15 L-3,15 L-3,5 Z " fill="#090909" transform="translate(13,6)"/>
<path d="M0,0 L1,0 L1,6 L-4,11 L-11,12 L-13,10 L-13,7 L-11,7 L-11,9 L-4,7 L-1,3 Z " fill="#EAEAEA" transform="translate(21,12)"/>
<path d="M0,0 L3,1 L4,3 L4,9 L1,7 Z " fill="#BABABA" transform="translate(19,8)"/>
</svg>
