<?xml version="1.0" encoding="UTF-8"?>
<svg version="1.1" xmlns="http://www.w3.org/2000/svg" width="28" height="28">
<path d="M0,0 L28,0 L28,28 L0,28 Z " fill="#050505" transform="translate(0,0)"/>
<path d="M0,0 L6,0 L12,4 L14,7 L14,14 L11,18 L6,20 L0,19 L-3,16 L-5,8 L-5,3 L-2,3 L0,3 Z " fill="#070707" transform="translate(9,4)"/>
<path d="M0,0 L6,0 L12,4 L14,7 L14,14 L11,18 L6,20 L0,19 L-3,16 L-5,8 L-5,3 L-3,2 L0,14 L0,16 L8,15 L11,12 L11,6 L8,5 L8,3 L0,3 Z " fill="#DFDFDF" transform="translate(9,4)"/>
</svg>
