<?xml version="1.0" encoding="UTF-8"?>
<svg version="1.1" xmlns="http://www.w3.org/2000/svg" width="28" height="28">
<path d="M0,0 L28,0 L28,28 L0,28 Z " fill="#010101" transform="translate(0,0)"/>
<path d="M0,0 L5,1 L8,3 L8,11 L2,18 L-1,20 L-5,19 L-6,15 L-1,1 Z " fill="#DBDBDB" transform="translate(14,4)"/>
<path d="M0,0 L1,0 L0,7 L-7,13 L-11,12 L-12,8 L-9,6 L-8,9 L-3,6 Z " fill="#E8E8E8" transform="translate(20,11)"/>
<path d="M0,0 L3,1 L2,8 L-1,11 L-3,7 L-2,2 Z " fill="#121212" transform="translate(17,7)"/>
<path d="M0,0 L1,2 L3,2 L5,5 L5,8 L0,11 L-2,6 Z " fill="#AFAFAF" transform="translate(11,10)"/>
</svg>
