<?xml version="1.0" encoding="UTF-8"?>
<svg version="1.1" xmlns="http://www.w3.org/2000/svg" width="28" height="28">
<path d="M0,0 L28,0 L28,28 L0,28 Z " fill="#030303" transform="translate(0,0)"/>
<path d="M0,0 L3,0 L3,3 L7,4 L10,8 L10,15 L7,19 L4,20 L-4,20 L-6,18 L-6,9 L-1,1 Z " fill="#E5E5E5" transform="translate(13,4)"/>
<path d="M0,0 L7,1 L8,2 L8,10 L6,12 L-2,13 L-3,6 Z " fill="#080808" transform="translate(12,9)"/>
<path d="M0,0 L4,4 L4,7 L2,7 L1,10 L0,3 L-2,1 Z " fill="#BEBEBE" transform="translate(19,8)"/>
<path d="M0,0 L1,2 L5,2 L5,4 L-1,5 L-3,3 Z " fill="#F0F0F0" transform="translate(14,5)"/>
</svg>
