<?xml version="1.0" encoding="UTF-8"?>
<svg version="1.1" xmlns="http://www.w3.org/2000/svg" width="28" height="28">
<path d="M0,0 L28,0 L28,28 L0,28 Z " fill="#020202" transform="translate(0,0)"/>
<path d="M0,0 L7,1 L11,6 L12,13 L8,18 L3,20 L-3,20 L-8,15 L-7,8 L-3,1 Z " fill="#E3E3E3" transform="translate(13,4)"/>
<path d="M0,0 L7,3 L9,7 L9,12 L7,12 L7,14 L1,15 L-3,13 L-3,5 Z " fill="#040404" transform="translate(12,6)"/>
<path d="M0,0 L2,0 L1,11 L0,11 L-1,6 L-2,4 Z " fill="#BFBFBF" transform="translate(8,8)"/>
</svg>
