<?xml version="1.0" encoding="UTF-8"?>
<svg version="1.1" xmlns="http://www.w3.org/2000/svg" width="28" height="28">
<path d="M0,0 L28,0 L28,28 L0,28 Z " fill="#050505" transform="translate(0,0)"/>
<path d="M0,0 L6,0 L6,2 L10,2 L10,4 L-1,4 L-3,14 L6,13 L8,10 L8,5 L11,6 L11,13 L6,17 L-2,18 L-6,16 L-6,6 L-1,1 Z " fill="#E0E0E0" transform="translate(13,5)"/>
<path d="M0,0 L3,1 L3,8 L-2,12 L-7,13 L-7,10 L-1,7 Z " fill="#ECECEC" transform="translate(21,10)"/>
<path d="M0,0 L6,0 L6,2 L10,2 L10,4 L-1,4 L-2,6 L-3,2 Z " fill="#4E4E4E" transform="translate(13,5)"/>
<path d="M0,0 L6,0 L5,3 L-3,3 Z " fill="#E7E7E7" transform="translate(13,5)"/>
</svg>
