<?xml version="1.0" encoding="UTF-8"?>
<svg version="1.1" xmlns="http://www.w3.org/2000/svg" width="28" height="28">
<path d="M0,0 L28,0 L28,28 L0,28 Z " fill="#020202" transform="translate(0,0)"/>
<path d="M0,0 L5,1 L4,8 L-1,16 L-6,20 L-11,19 L-11,12 L-5,2 Z " fill="#E7E7E7" transform="translate(18,4)"/>
<path d="M0,0 L4,0 L2,6 L-3,11 L-6,12 L-5,7 Z " fill="#131313" transform="translate(16,8)"/>
<path d="M0,0 L2,1 L1,2 L3,3 L2,6 L2,4 L-3,6 L-6,11 L-10,12 L-8,7 L-5,2 Z " fill="#CFCFCF" transform="translate(18,4)"/>
</svg>
