<?xml version="1.0" encoding="UTF-8"?>
<svg version="1.1" xmlns="http://www.w3.org/2000/svg" width="28" height="28">
<path d="M0,0 L28,0 L28,28 L0,28 Z " fill="#030303" transform="translate(0,0)"/>
<path d="M0,0 L7,1 L9,3 L9,13 L2,20 L-5,20 L-7,18 L-7,10 L-4,3 Z " fill="#ECECEC" transform="translate(14,4)"/>
<path d="M0,0 L5,0 L7,3 L7,9 L2,14 L-2,15 L-4,14 L-4,7 L-2,7 L-1,2 Z " fill="#0B0B0B" transform="translate(14,7)"/>
<path d="M0,0 L5,0 L1,2 L-2,10 L-4,10 L-4,16 L-7,12 L-4,3 Z " fill="#D1D1D1" transform="translate(14,4)"/>
</svg>
