<?xml version="1.0" encoding="UTF-8"?>
<svg version="1.1" xmlns="http://www.w3.org/2000/svg" width="28" height="28">
<path d="M0,0 L28,0 L28,28 L0,28 Z " fill="#020202" transform="translate(0,0)"/>
<path d="M0,0 L5,0 L8,4 L8,11 L4,17 L0,20 L-7,20 L-8,19 L-8,12 L-5,6 Z " fill="#878787" transform="translate(15,4)"/>
<path d="M0,0 L4,1 L6,4 L6,11 L3,11 L1,15 L-2,17 L-5,17 L-6,14 L-1,4 L1,4 L1,2 L-1,1 Z " fill="#DEDEDE" transform="translate(17,4)"/>
<path d="M0,0 L1,0 L0,9 L-6,14 L-13,14 L-14,13 L-14,8 L-12,7 L-12,11 L-10,11 L-9,9 L-9,11 L-3,9 Z " fill="#E6E6E6" transform="translate(21,10)"/>
<path d="M0,0 L1,4 L-1,8 L-4,10 L-7,9 L-4,2 Z " fill="#141414" transform="translate(19,11)"/>
<path d="M0,0 L2,1 L3,4 L-1,6 L-4,5 Z " fill="#B2B2B2" transform="translate(15,4)"/>
</svg>
