<?xml version="1.0" encoding="UTF-8"?>
<svg version="1.1" xmlns="http://www.w3.org/2000/svg" width="28" height="28">
<path d="M0,0 L28,0 L28,28 L0,28 Z " fill="#020202" transform="translate(0,0)"/>
<path d="M0,0 L6,1 L6,11 L4,14 L2,14 L0,18 L-3,20 L-8,20 L-9,19 L-9,12 L-5,4 Z " fill="#DDDDDD" transform="translate(16,4)"/>
<path d="M0,0 L4,2 L3,9 L-1,14 L-6,15 L-5,8 Z " fill="#111111" transform="translate(16,6)"/>
<path d="M0,0 L1,3 L-2,11 L-3,11 L-3,3 Z " fill="#F5F5F5" transform="translate(11,11)"/>
</svg>
