<?xml version="1.0" encoding="UTF-8"?>
<svg version="1.1" xmlns="http://www.w3.org/2000/svg" width="28" height="28">
<path d="M0,0 L28,0 L28,28 L0,28 Z " fill="#020202" transform="translate(0,0)"/>
<path d="M0,0 L5,1 L8,7 L8,16 L5,17 L5,19 L-2,20 L-4,17 L-4,9 Z " fill="#D9D9D9" transform="translate(13,4)"/>
<path d="M0,0 L5,1 L8,7 L8,14 L5,11 L4,9 L-3,9 L-2,3 Z " fill="#E6E6E6" transform="translate(13,4)"/>
<path d="M0,0 L5,1 L5,7 L0,8 L-1,4 Z " fill="#090909" transform="translate(13,12)"/>
</svg>
