<?xml version="1.0" encoding="UTF-8"?>
<svg version="1.1" xmlns="http://www.w3.org/2000/svg" width="28" height="28">
<path d="M0,0 L28,0 L28,28 L0,28 Z " fill="#020202" transform="translate(0,0)"/>
<path d="M0,0 L4,1 L9,8 L8,15 L2,19 L-5,20 L-8,18 L-9,11 L-5,4 Z " fill="#070707" transform="translate(15,4)"/>
<path d="M0,0 L4,1 L9,8 L8,15 L2,19 L-5,20 L-8,18 L-9,11 L-5,4 Z M0,2 L-3,5 L-3,7 L-5,7 L-7,11 L-6,17 L1,17 L7,14 L7,8 L2,4 Z " fill="#D7D7D7" transform="translate(15,4)"/>
<path d="M0,0 L1,4 L-2,9 L-9,12 L-14,11 L-16,10 L-15,7 L-14,9 L-4,7 L-1,6 L-1,1 Z " fill="#C0C0C0" transform="translate(23,12)"/>
</svg>
