<?xml version="1.0" encoding="UTF-8"?>
<svg version="1.1" xmlns="http://www.w3.org/2000/svg" width="28" height="28">
<path d="M0,0 L28,0 L28,28 L0,28 Z " fill="#040404" transform="translate(0,0)"/>
<path d="M0,0 L9,2 L15,9 L15,18 L11,20 L4,20 L-1,17 L-4,14 L-4,8 L-1,1 Z " fill="#090909" transform="translate(9,4)"/>
<path d="M0,0 L9,2 L15,9 L15,18 L11,20 L4,20 L-1,17 L-4,14 L-4,8 L-1,1 Z M1,3 L0,6 L0,14 L3,17 L10,18 L13,16 L12,9 L10,6 L8,6 L8,4 Z " fill="#E0E0E0" transform="translate(9,4)"/>
</svg>
