<?xml version="1.0" encoding="UTF-8"?>
<svg version="1.1" xmlns="http://www.w3.org/2000/svg" width="28" height="28">
<path d="M0,0 L28,0 L28,28 L0,28 Z " fill="#030303" transform="translate(0,0)"/>
<path d="M0,0 L3,0 L3,4 L1,5 L-2,15 L-7,20 L-13,20 L-15,18 L-14,12 L-8,5 Z " fill="#E0E0E0" transform="translate(21,4)"/>
<path d="M0,0 L2,0 L2,5 L-3,10 L-9,10 L-11,6 L-8,4 L-8,7 L-2,5 Z " fill="#EEEEEE" transform="translate(17,14)"/>
<path d="M0,0 L1,3 L-3,11 L-8,12 L-7,7 Z " fill="#1A1A1A" transform="translate(18,9)"/>
</svg>
