<?xml version="1.0" encoding="UTF-8"?>
<svg version="1.1" xmlns="http://www.w3.org/2000/svg" width="28" height="28">
<path d="M0,0 L28,0 L28,28 L0,28 Z " fill="#020202" transform="translate(0,0)"/>
<path d="M0,0 L7,1 L11,6 L11,14 L6,16 L5,19 L0,20 L-7,20 L-7,12 L-2,1 Z " fill="#DCDCDC" transform="translate(13,4)"/>
<path d="M0,0 L4,0 L4,2 L6,2 L7,9 L3,12 L-5,13 L-4,7 L-1,1 Z " fill="#0A0A0A" transform="translate(14,8)"/>
<path d="M0,0 L1,4 L0,8 L6,8 L6,10 L4,11 L-3,11 L-3,3 Z " fill="#F5F5F5" transform="translate(9,13)"/>
</svg>
