<?xml version="1.0" encoding="UTF-8"?>
<svg version="1.1" xmlns="http://www.w3.org/2000/svg" width="28" height="28">
<path d="M0,0 L28,0 L28,28 L0,28 Z " fill="#020202" transform="translate(0,0)"/>
<path d="M0,0 L5,1 L6,13 L2,18 L-2,20 L-7,20 L-8,19 L-7,12 L-1,3 Z " fill="#DDDDDD" transform="translate(15,4)"/>
<path d="M0,0 L2,0 L3,8 L-1,12 L-5,12 L-4,7 Z " fill="#0C0C0C" transform="translate(15,9)"/>
<path d="M0,0 L1,3 L6,2 L5,5 L0,5 L-1,1 Z " fill="#F6F6F6" transform="translate(8,19)"/>
</svg>
