<?xml version="1.0" encoding="UTF-8"?>
<svg version="1.1" xmlns="http://www.w3.org/2000/svg" width="28" height="28">
<path d="M0,0 L28,0 L28,28 L0,28 Z " fill="#020202" transform="translate(0,0)"/>
<path d="M0,0 L5,1 L6,2 L5,11 L-1,19 L-7,20 L-9,17 L-8,12 L-5,6 L-2,4 Z " fill="#E6E6E6" transform="translate(16,5)"/>
<path d="M0,0 L6,2 L4,7 L-1,11 L-3,11 L-2,2 Z " fill="#0C0C0C" transform="translate(13,12)"/>
<path d="M0,0 L3,0 L4,2 L4,9 L-2,17 L-5,15 L0,11 L2,7 L-1,6 Z " fill="#B5B5B5" transform="translate(17,7)"/>
<path d="M0,0 L3,0 L4,4 L2,6 L0,4 Z " fill="#161616" transform="translate(17,7)"/>
</svg>
