<?xml version="1.0" encoding="UTF-8"?>
<svg version="1.1" xmlns="http://www.w3.org/2000/svg" width="28" height="28">
<path d="M0,0 L28,0 L28,28 L0,28 Z " fill="#020202" transform="translate(0,0)"/>
<path d="M0,0 L5,0 L7,2 L7,7 L-1,13 L-10,16 L-13,14 L-12,6 L-9,3 Z " fill="#EAEAEA" transform="translate(17,7)"/>
<path d="M0,0 L6,0 L4,4 L-5,9 L-7,9 L-6,3 L-4,1 Z " fill="#141414" transform="translate(14,11)"/>
<path d="M0,0 L1,2 L-1,8 L2,8 L1,11 L-4,9 L-3,3 Z " fill="#F9F9F9" transform="translate(8,12)"/>
<path d="M0,0 L2,1 L2,3 L-4,5 L-6,6 L-4,2 Z " fill="#BBBBBB" transform="translate(11,9)"/>
</svg>
