<?xml version="1.0" encoding="UTF-8"?>
<svg version="1.1" xmlns="http://www.w3.org/2000/svg" width="28" height="28">
<path d="M0,0 L28,0 L28,28 L0,28 Z " fill="#030303" transform="translate(0,0)"/>
<path d="M0,0 L7,0 L9,3 L6,10 L1,15 L-2,16 L-2,18 L-5,20 L-9,20 L-8,13 L-2,2 Z " fill="#EAEAEA" transform="translate(15,5)"/>
<path d="M0,0 L7,0 L9,3 L7,7 L3,8 L5,3 L1,3 L-1,9 L-5,11 L-6,9 L-1,1 Z " fill="#EEEEEE" transform="translate(15,5)"/>
<path d="M0,0 L4,0 L2,6 L-3,11 L-5,11 L-4,7 Z " fill="#242424" transform="translate(16,8)"/>
</svg>
