<?xml version="1.0" encoding="UTF-8"?>
<svg version="1.1" xmlns="http://www.w3.org/2000/svg" width="28" height="28">
<path d="M0,0 L28,0 L28,28 L0,28 Z " fill="#030303" transform="translate(0,0)"/>
<path d="M0,0 L7,0 L13,5 L14,7 L14,16 L10,19 L-1,18 L-4,15 L-6,9 L-4,4 Z " fill="#E9E9E9" transform="translate(10,5)"/>
<path d="M0,0 L7,1 L10,8 L8,12 L1,13 L-2,11 L-1,1 Z " fill="#0C0C0C" transform="translate(12,8)"/>
<path d="M0,0 L2,1 L-1,5 L-3,10 L-6,9 L-4,4 Z " fill="#C8C8C8" transform="translate(10,5)"/>
</svg>
