<?xml version="1.0" encoding="UTF-8"?>
<svg version="1.1" xmlns="http://www.w3.org/2000/svg" width="28" height="28">
<path d="M0,0 L28,0 L28,28 L0,28 Z " fill="#010101" transform="translate(0,0)"/>
<path d="M0,0 L5,1 L6,2 L6,8 L0,17 L-5,20 L-11,20 L-12,15 L-5,6 Z " fill="#DFDFDF" transform="translate(17,4)"/>
<path d="M0,0 L1,3 L-4,10 L-9,13 L-15,13 L-14,9 L-7,7 Z " fill="#F3F3F3" transform="translate(21,11)"/>
<path d="M0,0 L1,3 L-3,9 L-8,13 L-11,13 L-9,9 L-7,6 L-4,6 L-2,2 Z " fill="#181818" transform="translate(20,7)"/>
</svg>
