<?xml version="1.0" encoding="UTF-8"?>
<svg version="1.1" xmlns="http://www.w3.org/2000/svg" width="28" height="28">
<path d="M0,0 L28,0 L28,28 L0,28 Z " fill="#020202" transform="translate(0,0)"/>
<path d="M0,0 L4,1 L5,3 L4,12 L-3,18 L-8,20 L-14,19 L-15,17 L-9,10 L-2,4 Z " fill="#E6E6E6" transform="translate(18,3)"/>
<path d="M0,0 L1,3 L-2,8 L-9,13 L-13,12 L-9,8 L-7,8 L-6,5 L-3,5 L-3,3 L-1,3 Z " fill="#0E0E0E" transform="translate(20,7)"/>
<path d="M0,0 L3,1 L-1,3 Z M-3,3 L-1,4 L-1,7 L-7,8 Z " fill="#2F2F2F" transform="translate(14,12)"/>
</svg>
