<?xml version="1.0" encoding="UTF-8"?>
<svg version="1.1" xmlns="http://www.w3.org/2000/svg" width="28" height="28">
<path d="M0,0 L28,0 L28,28 L0,28 Z " fill="#020202" transform="translate(0,0)"/>
<path d="M0,0 L6,0 L9,2 L8,9 L3,12 L-2,14 L-9,14 L-11,10 L-6,4 Z " fill="#E4E4E4" transform="translate(15,7)"/>
<path d="M0,0 L6,0 L9,2 L8,9 L3,12 L2,8 L5,6 L5,4 L0,5 L-4,7 L-2,3 Z " fill="#E8E8E8" transform="translate(15,7)"/>
<path d="M0,0 L4,1 L2,5 L-5,8 L-9,7 L-2,1 Z " fill="#111111" transform="translate(17,10)"/>
</svg>
