<?xml version="1.0" encoding="UTF-8"?>
<svg version="1.1" xmlns="http://www.w3.org/2000/svg" width="28" height="28">
<path d="M0,0 L28,0 L28,28 L0,28 Z " fill="#020202" transform="translate(0,0)"/>
<path d="M0,0 L5,3 L5,5 L8,6 L9,8 L9,14 L5,17 L1,18 L-6,18 L-11,14 L-11,6 L-5,1 Z " fill="#0B0B0B" transform="translate(16,5)"/>
<path d="M0,0 L5,3 L5,5 L8,6 L9,8 L9,14 L5,17 L1,18 L-6,18 L-11,14 L-11,6 L-5,1 Z M-2,3 L-7,5 L-8,6 L-8,14 L-7,15 L4,15 L7,13 L5,5 L3,3 Z " fill="#E3E3E3" transform="translate(16,5)"/>
<path d="M0,0 L1,0 L2,5 L10,6 L10,9 L3,9 L-2,5 L-1,2 Z " fill="#C9C9C9" transform="translate(7,14)"/>
</svg>
