<?xml version="1.0" encoding="UTF-8"?>
<svg version="1.1" xmlns="http://www.w3.org/2000/svg" width="28" height="28">
<path d="M0,0 L28,0 L28,28 L0,28 Z " fill="#020202" transform="translate(0,0)"/>
<path d="M0,0 L3,0 L2,4 L3,5 L3,11 L-1,17 L-8,20 L-12,20 L-12,14 L-3,3 L-1,3 Z " fill="#D7D7D7" transform="translate(18,3)"/>
<path d="M0,0 L2,0 L2,6 L-2,11 L-7,12 L-5,6 Z " fill="#0C0C0C" transform="translate(16,8)"/>
<path d="M0,0 L1,3 L5,2 L5,4 L-1,5 Z " fill="#F4F4F4" transform="translate(7,18)"/>
</svg>
