<?xml version="1.0" encoding="UTF-8"?>
<svg version="1.1" xmlns="http://www.w3.org/2000/svg" width="28" height="28">
<path d="M0,0 L28,0 L28,28 L0,28 Z " fill="#020202" transform="translate(0,0)"/>
<path d="M0,0 L4,1 L6,5 L4,13 L0,19 L-4,20 L-6,18 L-6,10 L-2,2 Z " fill="#090909" transform="translate(15,4)"/>
<path d="M0,0 L4,1 L6,5 L4,13 L0,19 L-4,20 L-6,18 L-6,10 L-2,2 Z M0,3 L-3,6 L-4,9 L-4,18 L0,17 L4,8 L4,3 Z " fill="#C9C9C9" transform="translate(15,4)"/>
<path d="M0,0 L1,0 L2,5 L6,5 L8,1 L9,3 L5,8 L1,7 L0,6 Z " fill="#E4E4E4" transform="translate(9,16)"/>
</svg>
