<?xml version="1.0" encoding="UTF-8"?>
<svg version="1.1" xmlns="http://www.w3.org/2000/svg" width="28" height="28">
<path d="M0,0 L28,0 L28,28 L0,28 Z " fill="#010101" transform="translate(0,0)"/>
<path d="M0,0 L6,4 L7,5 L7,11 L2,17 L-4,20 L-9,19 L-8,12 L-3,2 Z " fill="#E3E3E3" transform="translate(16,4)"/>
<path d="M0,0 L1,3 L-2,10 L2,9 L1,13 L-5,14 L-6,13 L-5,6 L-4,3 Z M2,8 Z " fill="#EAEAEA" transform="translate(13,10)"/>
<path d="M0,0 L4,2 L3,7 L-3,12 L-5,12 L-4,7 Z " fill="#111111" transform="translate(16,8)"/>
</svg>
