<?xml version="1.0" encoding="UTF-8"?>
<svg version="1.1" xmlns="http://www.w3.org/2000/svg" width="28" height="28">
<path d="M0,0 L28,0 L28,28 L0,28 Z " fill="#030303" transform="translate(0,0)"/>
<path d="M0,0 L3,1 L3,8 L0,13 L-6,18 L-11,20 L-16,19 L-15,14 L-8,6 Z " fill="#E9E9E9" transform="translate(20,4)"/>
<path d="M0,0 L3,1 L3,8 L0,13 L-6,18 L-8,15 L-3,13 L-3,11 L-1,11 L0,4 L-2,3 Z " fill="#EDEDED" transform="translate(20,4)"/>
<path d="M0,0 L1,0 L0,7 L-2,7 L-2,9 L-7,12 L-11,11 L-7,6 Z " fill="#141414" transform="translate(19,8)"/>
</svg>
