<?xml version="1.0" encoding="UTF-8"?>
<svg version="1.1" xmlns="http://www.w3.org/2000/svg" width="28" height="28">
<path d="M0,0 L28,0 L28,28 L0,28 Z " fill="#020202" transform="translate(0,0)"/>
<path d="M0,0 L6,1 L8,3 L8,12 L6,16 L0,19 L-8,19 L-12,15 L-10,8 L-5,3 Z " fill="#E9E9E9" transform="translate(16,5)"/>
<path d="M0,0 L2,1 L6,0 L8,0 L7,7 L4,12 L2,13 L-5,13 L-6,12 L-6,6 L-2,1 Z " fill="#0B0B0B" transform="translate(14,9)"/>
<path d="M0,0 L3,0 L2,5 L-2,9 L-3,6 Z " fill="#C6C6C6" transform="translate(21,14)"/>
</svg>
