<?xml version="1.0" encoding="UTF-8"?>
<svg version="1.1" xmlns="http://www.w3.org/2000/svg" width="28" height="28">
<path d="M0,0 L28,0 L28,28 L0,28 Z " fill="#010101" transform="translate(0,0)"/>
<path d="M0,0 L8,1 L12,7 L12,13 L7,18 L4,19 L-3,19 L-8,14 L-8,7 L-5,2 L-1,1 Z " fill="#030303" transform="translate(12,4)"/>
<path d="M0,0 L8,1 L12,7 L12,13 L7,18 L4,19 L-3,19 L-8,14 L-8,7 L-5,2 L-2,3 L-4,3 L-5,11 L-4,15 L1,16 L7,13 L8,8 L7,5 L1,3 L-1,3 Z " fill="#DFDFDF" transform="translate(12,4)"/>
<path d="M0,0 L8,1 L12,7 L12,13 L9,11 L7,5 L1,3 L-1,3 Z " fill="#BFBFBF" transform="translate(12,4)"/>
</svg>
