<?xml version="1.0" encoding="UTF-8"?>
<svg version="1.1" xmlns="http://www.w3.org/2000/svg" width="28" height="28">
<path d="M0,0 L28,0 L28,28 L0,28 Z " fill="#020202" transform="translate(0,0)"/>
<path d="M0,0 L2,0 L2,2 L6,4 L9,8 L9,16 L6,20 L-1,19 L-3,16 L-4,5 Z " fill="#080808" transform="translate(12,4)"/>
<path d="M0,0 L2,0 L2,2 L6,4 L9,8 L9,16 L6,20 L-1,19 L-3,16 L-4,5 Z M-1,4 L-2,11 L1,18 L6,17 L8,10 L5,5 L4,4 Z " fill="#CFCFCF" transform="translate(12,4)"/>
<path d="M0,0 L2,3 L0,8 L-3,9 L-5,7 L-2,6 Z " fill="#B2B2B2" transform="translate(19,15)"/>
</svg>
