<?xml version="1.0" encoding="UTF-8"?>
<svg version="1.1" xmlns="http://www.w3.org/2000/svg" width="28" height="28">
<path d="M0,0 L28,0 L28,28 L0,28 Z " fill="#040404" transform="translate(0,0)"/>
<path d="M0,0 L4,2 L5,12 L4,16 L2,16 L2,18 L-1,20 L-9,19 L-9,17 L-11,17 L-12,14 L-12,7 L-7,3 L-2,3 L-2,1 Z " fill="#F1F1F1" transform="translate(17,4)"/>
<path d="M0,0 L3,0 L3,11 L1,14 L-5,13 L-8,11 L-8,4 L-3,3 L-3,6 L-1,6 Z " fill="#101010" transform="translate(16,7)"/>
<path d="M0,0 L4,1 L3,3 L-1,4 L-2,11 L3,13 L5,15 L-2,16 L-2,14 L-4,14 L-5,11 L-5,4 Z " fill="#DDDDDD" transform="translate(10,7)"/>
<path d="M0,0 L4,1 L3,3 L-1,4 L-4,11 L-5,11 L-5,4 Z " fill="#B0B0B0" transform="translate(10,7)"/>
</svg>
