<?xml version="1.0" encoding="UTF-8"?>
<svg version="1.1" xmlns="http://www.w3.org/2000/svg" width="28" height="28">
<path d="M0,0 L28,0 L28,28 L0,28 Z " fill="#020202" transform="translate(0,0)"/>
<path d="M0,0 L5,1 L6,6 L3,15 L-4,20 L-9,20 L-12,16 L-11,11 L-5,3 Z " fill="#E6E6E6" transform="translate(17,4)"/>
<path d="M0,0 L3,1 L2,9 L-2,13 L-8,14 L-9,11 L-5,5 Z " fill="#0F0F0F" transform="translate(17,7)"/>
<path d="M0,0 L3,1 L4,6 L1,15 L-2,17 L-4,15 L-2,15 L0,9 Z " fill="#CFCFCF" transform="translate(19,4)"/>
</svg>
