<?xml version="1.0" encoding="UTF-8"?>
<svg version="1.1" xmlns="http://www.w3.org/2000/svg" width="28" height="28">
<path d="M0,0 L28,0 L28,28 L0,28 Z " fill="#030303" transform="translate(0,0)"/>
<path d="M0,0 L10,3 L13,7 L14,14 L9,18 L6,19 L-1,19 L-5,16 L-6,8 L-3,2 Z " fill="#E2E2E2" transform="translate(11,4)"/>
<path d="M0,0 L8,1 L12,7 L11,10 L8,12 L-1,12 L-3,10 L-3,4 L0,3 Z " fill="#050505" transform="translate(11,8)"/>
<path d="M0,0 L4,1 L6,5 L4,5 L3,7 L1,3 L-2,1 Z " fill="#C5C5C5" transform="translate(18,7)"/>
</svg>
