<?xml version="1.0" encoding="UTF-8"?>
<svg version="1.1" xmlns="http://www.w3.org/2000/svg" width="28" height="28">
<path d="M0,0 L28,0 L28,28 L0,28 Z " fill="#030303" transform="translate(0,0)"/>
<path d="M0,0 L10,0 L7,9 L3,14 L-5,16 L-10,13 L-9,8 L-4,3 Z " fill="#ECECEC" transform="translate(15,7)"/>
<path d="M0,0 L1,3 L-1,8 L-5,11 L-10,11 L-11,7 L-5,2 Z " fill="#0F0F0F" transform="translate(20,9)"/>
<path d="M0,0 L3,0 L2,4 L-2,9 L-5,8 L-3,5 L-1,5 Z " fill="#C1C1C1" transform="translate(20,12)"/>
</svg>
