<?xml version="1.0" encoding="UTF-8"?>
<svg version="1.1" xmlns="http://www.w3.org/2000/svg" width="28" height="28">
<path d="M0,0 L28,0 L28,28 L0,28 Z " fill="#020202" transform="translate(0,0)"/>
<path d="M0,0 L7,1 L8,2 L8,8 L2,17 L-2,20 L-10,20 L-12,18 L-12,12 L-5,3 Z " fill="#E9E9E9" transform="translate(17,5)"/>
<path d="M0,0 L1,0 L0,8 L-4,13 L-6,14 L-13,14 L-12,9 L-11,6 L-9,6 L-7,2 Z " fill="#0A0A0A" transform="translate(21,8)"/>
<path d="M0,0 L3,2 L2,6 L-2,13 L-7,17 L-9,17 L-9,15 L-13,14 L-5,12 L-2,8 Z " fill="#CBCBCB" transform="translate(22,8)"/>
</svg>
