<?xml version="1.0" encoding="UTF-8"?>
<svg version="1.1" xmlns="http://www.w3.org/2000/svg" width="28" height="28">
<path d="M0,0 L28,0 L28,28 L0,28 Z " fill="#010101" transform="translate(0,0)"/>
<path d="M0,0 L5,1 L10,7 L10,15 L6,19 L-2,20 L-4,19 L-5,12 Z " fill="#060606" transform="translate(12,4)"/>
<path d="M0,0 L5,1 L10,7 L10,15 L6,19 L-2,20 L-4,19 L-5,12 Z M2,3 L-3,10 L-3,16 L-2,17 L5,17 L8,14 L8,8 L4,3 Z " fill="#C3C3C3" transform="translate(12,4)"/>
<path d="M0,0 L1,0 L1,6 L-3,10 L-10,11 L-10,9 L-3,6 L-1,4 Z " fill="#E6E6E6" transform="translate(21,13)"/>
<path d="M0,0 L4,2 L5,6 L3,10 L1,3 Z " fill="#B2B2B2" transform="translate(17,7)"/>
<path d="M0,0 L5,1 L5,4 L0,4 Z " fill="#E3E3E3" transform="translate(12,4)"/>
</svg>
