<?xml version="1.0" encoding="UTF-8"?>
<svg version="1.1" xmlns="http://www.w3.org/2000/svg" width="28" height="28">
<path d="M0,0 L28,0 L28,28 L0,28 Z " fill="#040404" transform="translate(0,0)"/>
<path d="M0,0 L5,1 L5,12 L2,17 L-5,20 L-10,19 L-11,18 L-11,11 L-4,3 Z " fill="#050505" transform="translate(17,4)"/>
<path d="M0,0 L5,1 L5,12 L2,17 L-5,20 L-10,19 L-11,18 L-11,11 L-4,3 Z M-1,3 L-8,10 L-9,17 L-8,18 L-1,17 L2,13 L3,10 L3,3 Z " fill="#E4E4E4" transform="translate(17,4)"/>
<path d="M0,0 L2,1 L2,9 L-1,14 L-5,16 L-6,14 L-2,10 Z " fill="#C9C9C9" transform="translate(20,7)"/>
</svg>
