<?xml version="1.0" encoding="UTF-8"?>
<svg version="1.1" xmlns="http://www.w3.org/2000/svg" width="28" height="28">
<path d="M0,0 L28,0 L28,28 L0,28 Z " fill="#030303" transform="translate(0,0)"/>
<path d="M0,0 L10,2 L12,6 L11,14 L8,17 L-1,20 L-6,19 L-8,16 L-8,7 L-3,1 Z " fill="#E9E9E9" transform="translate(13,5)"/>
<path d="M0,0 L2,3 L6,4 L5,0 L11,2 L11,10 L6,13 L0,14 L-3,11 L-3,5 Z " fill="#0D0D0D" transform="translate(11,8)"/>
<path d="M0,0 L3,1 L2,5 L0,5 L-2,7 L-5,8 L-3,3 Z " fill="#C8C8C8" transform="translate(10,6)"/>
<path d="M0,0 L4,1 L5,6 L3,6 L2,10 L1,3 L-2,1 Z " fill="#CDCDCD" transform="translate(20,7)"/>
</svg>
