<?xml version="1.0" encoding="UTF-8"?>
<svg version="1.1" xmlns="http://www.w3.org/2000/svg" width="28" height="28">
<path d="M0,0 L28,0 L28,28 L0,28 Z " fill="#010101" transform="translate(0,0)"/>
<path d="M0,0 L6,0 L9,3 L9,9 L5,15 L0,18 L-8,18 L-11,16 L-11,10 L-5,3 Z " fill="#E1E1E1" transform="translate(15,6)"/>
<path d="M0,0 L2,0 L1,5 L-4,10 L-12,11 L-11,7 L-6,1 Z " fill="#111111" transform="translate(19,10)"/>
<path d="M0,0 L2,1 L-6,11 L-7,14 L-10,14 L-10,9 L-4,2 Z " fill="#F1F1F1" transform="translate(14,7)"/>
<path d="M0,0 L2,1 L1,2 L3,4 L-5,4 L-8,1 Z " fill="#BEBEBE" transform="translate(12,20)"/>
</svg>
