<?xml version="1.0" encoding="UTF-8"?>
<svg version="1.1" xmlns="http://www.w3.org/2000/svg" width="28" height="28">
<path d="M0,0 L28,0 L28,28 L0,28 Z " fill="#020202" transform="translate(0,0)"/>
<path d="M0,0 L8,1 L12,6 L12,14 L8,20 L1,19 L-2,16 L-4,13 L-4,5 L-3,2 Z " fill="#E6E6E6" transform="translate(11,5)"/>
<path d="M0,0 L4,1 L6,4 L6,11 L4,14 L-1,14 L-3,12 L-4,2 Z " fill="#0F0F0F" transform="translate(14,8)"/>
<path d="M0,0 L1,0 L1,8 L-3,14 L-8,14 L-7,11 L-4,10 L-2,2 Z " fill="#D0D0D0" transform="translate(22,11)"/>
</svg>
