<?xml version="1.0" encoding="UTF-8"?>
<svg version="1.1" xmlns="http://www.w3.org/2000/svg" width="28" height="28">
<path d="M0,0 L28,0 L28,28 L0,28 Z " fill="#040404" transform="translate(0,0)"/>
<path d="M0,0 L8,1 L11,5 L11,14 L6,19 L5,20 L-1,20 L-5,16 L-5,6 Z " fill="#050505" transform="translate(12,5)"/>
<path d="M0,0 L8,1 L11,5 L11,14 L6,19 L5,20 L-1,20 L-5,16 L-5,6 Z M1,2 L-3,6 L-3,16 L-1,18 L5,18 L9,14 L9,5 L6,2 Z " fill="#DADADA" transform="translate(12,5)"/>
<path d="M0,0 L1,0 L2,8 L-1,12 L-4,11 L-1,8 Z " fill="#AFAFAF" transform="translate(21,11)"/>
</svg>
