<?xml version="1.0" encoding="UTF-8"?>
<svg version="1.1" xmlns="http://www.w3.org/2000/svg" width="28" height="28">
<path d="M0,0 L28,0 L28,28 L0,28 Z " fill="#020202" transform="translate(0,0)"/>
<path d="M0,0 L4,1 L3,12 L-3,19 L-10,20 L-13,16 L-12,12 L-6,4 Z " fill="#E7E7E7" transform="translate(19,4)"/>
<path d="M0,0 L2,0 L2,6 L-3,12 L-6,12 L-5,6 L-4,4 L-2,4 L-2,2 L0,2 Z " fill="#0E0E0E" transform="translate(17,8)"/>
<path d="M0,0 L4,1 L4,4 L2,4 L2,7 L0,7 L-1,1 Z " fill="#CFCFCF" transform="translate(19,4)"/>
</svg>
