<?xml version="1.0" encoding="UTF-8"?>
<svg version="1.1" xmlns="http://www.w3.org/2000/svg" width="28" height="28">
<path d="M0,0 L28,0 L28,28 L0,28 Z " fill="#030303" transform="translate(0,0)"/>
<path d="M0,0 L5,1 L5,11 L1,17 L-4,20 L-9,19 L-11,16 L-11,13 L-9,13 L-7,8 L-2,3 Z " fill="#DEDEDE" transform="translate(17,4)"/>
<path d="M0,0 L1,3 L-1,3 L-1,8 L6,4 L8,3 L7,7 L3,11 L-3,12 L-6,8 L-6,5 L-4,5 L-4,3 Z " fill="#EDEDED" transform="translate(12,12)"/>
<path d="M0,0 L2,0 L2,6 L-3,12 L-6,12 L-6,7 L-4,7 L-2,2 Z " fill="#212121" transform="translate(17,8)"/>
</svg>
