<?xml version="1.0" encoding="UTF-8"?>
<svg version="1.1" xmlns="http://www.w3.org/2000/svg" width="28" height="28">
<path d="M0,0 L28,0 L28,28 L0,28 Z " fill="#020202" transform="translate(0,0)"/>
<path d="M0,0 L7,1 L10,6 L10,13 L6,18 L3,20 L-4,20 L-8,18 L-9,11 L-5,5 Z " fill="#E2E2E2" transform="translate(14,4)"/>
<path d="M0,0 L5,1 L6,2 L6,10 L-1,15 L-6,14 L-6,9 L-4,5 L-2,3 Z " fill="#0A0A0A" transform="translate(15,7)"/>
<path d="M0,0 L1,3 L-2,12 L5,12 L4,15 L-4,14 L-6,9 L-5,4 Z " fill="#F4F4F4" transform="translate(11,9)"/>
<path d="M0,0 L5,2 L1,4 L-1,8 L-3,6 L-7,8 L-1,1 Z " fill="#C9C9C9" transform="translate(14,4)"/>
</svg>
