<?xml version="1.0" encoding="UTF-8"?>
<svg version="1.1" xmlns="http://www.w3.org/2000/svg" width="28" height="28">
<path d="M0,0 L28,0 L28,28 L0,28 Z " fill="#030303" transform="translate(0,0)"/>
<path d="M0,0 L6,1 L14,6 L16,9 L16,16 L13,19 L3,19 L-4,13 L-4,5 L-3,3 L-1,3 Z " fill="#090909" transform="translate(9,4)"/>
<path d="M0,0 L6,1 L14,6 L16,9 L16,16 L13,19 L3,19 L-4,13 L-4,5 L-3,3 L-1,3 Z M2,2 L-2,8 L-1,14 L4,18 L10,18 L14,14 L14,8 L11,5 L5,6 L5,2 Z " fill="#CECECE" transform="translate(9,4)"/>
<path d="M0,0 L3,3 L3,10 L0,13 L-8,13 L-8,12 L0,10 Z " fill="#E1E1E1" transform="translate(22,10)"/>
<path d="M0,0 L8,4 L7,6 L2,5 L0,5 Z " fill="#A7A7A7" transform="translate(14,5)"/>
</svg>
