<?xml version="1.0" encoding="UTF-8"?>
<svg version="1.1" xmlns="http://www.w3.org/2000/svg" width="28" height="28">
<path d="M0,0 L28,0 L28,28 L0,28 Z " fill="#030303" transform="translate(0,0)"/>
<path d="M0,0 L5,1 L6,6 L6,13 L-2,17 L-13,17 L-14,14 L-12,9 L-5,3 Z " fill="#121212" transform="translate(19,4)"/>
<path d="M0,0 L4,0 L4,2 L-6,8 L-9,13 L-2,13 L4,10 L4,4 L7,5 L7,12 L-1,16 L-12,16 L-13,13 L-11,8 L-4,2 Z " fill="#E8E8E8" transform="translate(18,5)"/>
<path d="M0,0 L3,1 L3,8 L-1,7 L0,2 Z " fill="#BEBEBE" transform="translate(22,9)"/>
<path d="M0,0 L2,1 L-2,6 L-4,9 L-4,7 L-6,6 Z " fill="#CECECE" transform="translate(12,8)"/>
</svg>
