<?xml version="1.0" encoding="UTF-8"?>
<svg version="1.1" xmlns="http://www.w3.org/2000/svg" width="28" height="28">
<path d="M0,0 L28,0 L28,28 L0,28 Z " fill="#010101" transform="translate(0,0)"/>
<path d="M0,0 L5,0 L7,5 L6,17 L4,20 L-2,19 L-7,13 L-4,3 Z " fill="#E0E0E0" transform="translate(14,5)"/>
<path d="M0,0 L3,0 L3,12 L2,15 L-2,14 L-4,11 L-3,5 Z " fill="#0A0A0A" transform="translate(15,8)"/>
<path d="M0,0 L1,0 L2,13 L0,16 L-6,15 L-11,9 L-10,7 L-7,7 L-4,13 L-1,14 Z " fill="#C9C9C9" transform="translate(18,9)"/>
</svg>
