<?xml version="1.0" encoding="UTF-8"?>
<svg version="1.1" xmlns="http://www.w3.org/2000/svg" width="28" height="28">
<path d="M0,0 L28,0 L28,28 L0,28 Z " fill="#030303" transform="translate(0,0)"/>
<path d="M0,0 L4,1 L4,3 L2,4 L3,6 L3,13 L-2,18 L-6,20 L-12,20 L-14,18 L-13,12 L-6,4 Z " fill="#E1E1E1" transform="translate(19,4)"/>
<path d="M0,0 L4,1 L5,6 L0,11 L-9,12 L-8,8 L-3,2 Z " fill="#0E0E0E" transform="translate(16,9)"/>
<path d="M0,0 L1,3 L-7,8 L-12,6 L-12,5 L-3,2 Z " fill="#C6C6C6" transform="translate(20,16)"/>
<path d="M0,0 L2,0 L2,5 L6,7 L1,8 L-1,6 Z " fill="#F4F4F4" transform="translate(6,16)"/>
</svg>
