<?xml version="1.0" encoding="UTF-8"?>
<svg version="1.1" xmlns="http://www.w3.org/2000/svg" width="28" height="28">
<path d="M0,0 L28,0 L28,28 L0,28 Z " fill="#030303" transform="translate(0,0)"/>
<path d="M0,0 L3,1 L4,4 L4,11 L-4,18 L-15,19 L-16,15 L-10,8 Z " fill="#DADADA" transform="translate(20,4)"/>
<path d="M0,0 L1,0 L1,6 L-3,11 L-6,13 L-12,13 L-10,9 Z " fill="#0F0F0F" transform="translate(20,7)"/>
<path d="M0,0 L0,3 L-1,5 L4,5 L3,7 L-3,7 L-4,3 Z " fill="#F8F8F8" transform="translate(8,16)"/>
</svg>
