<?xml version="1.0" encoding="UTF-8"?>
<svg version="1.1" xmlns="http://www.w3.org/2000/svg" width="28" height="28">
<path d="M0,0 L28,0 L28,28 L0,28 Z " fill="#020202" transform="translate(0,0)"/>
<path d="M0,0 L5,0 L6,3 L13,4 L14,8 L11,15 L7,19 L0,20 L-5,16 L-6,9 L-2,2 Z " fill="#0C0C0C" transform="translate(11,5)"/>
<path d="M0,0 L5,0 L6,3 L13,4 L14,8 L11,15 L7,19 L0,20 L-5,16 L-6,9 L-2,2 Z M1,2 L-4,10 L-3,15 L-1,18 L6,17 L11,12 L12,6 L5,5 L2,5 L5,3 Z " fill="#C9C9C9" transform="translate(11,5)"/>
<path d="M0,0 L5,0 L5,2 L1,3 L-3,10 L-2,15 L1,18 L0,20 L-5,16 L-6,9 L-2,2 Z " fill="#D1D1D1" transform="translate(11,5)"/>
<path d="M0,0 L2,0 L3,7 L6,10 L5,12 L0,8 L-1,1 Z " fill="#E8E8E8" transform="translate(6,13)"/>
<path d="M0,0 L2,2 L-1,5 L-7,6 L-7,4 L-1,1 Z " fill="#B8B8B8" transform="translate(19,19)"/>
</svg>
