<?xml version="1.0" encoding="UTF-8"?>
<svg version="1.1" xmlns="http://www.w3.org/2000/svg" width="28" height="28">
<path d="M0,0 L28,0 L28,28 L0,28 Z " fill="#020202" transform="translate(0,0)"/>
<path d="M0,0 L3,0 L3,2 L7,4 L7,10 L3,16 L0,19 L-6,19 L-7,12 L-4,5 Z " fill="#E2E2E2" transform="translate(15,5)"/>
<path d="M0,0 L3,1 L3,7 L-3,14 L-7,13 L-6,6 L-4,5 L-2,1 Z " fill="#131313" transform="translate(17,8)"/>
<path d="M0,0 L3,0 L3,2 L7,4 L5,8 L5,4 L0,3 Z " fill="#C5C5C5" transform="translate(15,5)"/>
</svg>
