<?xml version="1.0" encoding="UTF-8"?>
<svg version="1.1" xmlns="http://www.w3.org/2000/svg" width="28" height="28">
<path d="M0,0 L28,0 L28,28 L0,28 Z " fill="#020202" transform="translate(0,0)"/>
<path d="M0,0 L9,0 L14,4 L14,11 L8,19 L-1,20 L-5,16 L-5,8 L-1,1 Z " fill="#0B0B0B" transform="translate(11,5)"/>
<path d="M0,0 L9,0 L14,4 L14,11 L8,19 L-1,20 L-5,16 L-5,8 L-1,1 Z M6,2 L6,4 L2,5 L1,3 L-3,9 L-2,16 L1,18 L6,17 L11,12 L12,11 L12,4 L9,2 Z " fill="#DADADA" transform="translate(11,5)"/>
</svg>
