<?xml version="1.0" encoding="UTF-8"?>
<svg version="1.1" xmlns="http://www.w3.org/2000/svg" width="28" height="28">
<path d="M0,0 L28,0 L28,28 L0,28 Z " fill="#030303" transform="translate(0,0)"/>
<path d="M0,0 L4,0 L5,9 L3,14 L-4,19 L-10,20 L-11,19 L-11,12 L-4,3 Z " fill="#F2F2F2" transform="translate(17,4)"/>
<path d="M0,0 L4,0 L3,6 L-2,10 L-8,12 L-7,8 Z " fill="#1A1A1A" transform="translate(16,9)"/>
<path d="M0,0 L2,1 L0,3 L3,5 L-2,7 L-7,13 L-11,14 L-9,9 L-4,3 Z " fill="#DBDBDB" transform="translate(17,4)"/>
</svg>
