<?xml version="1.0" encoding="UTF-8"?>
<svg version="1.1" xmlns="http://www.w3.org/2000/svg" width="28" height="28">
<path d="M0,0 L28,0 L28,28 L0,28 Z " fill="#020202" transform="translate(0,0)"/>
<path d="M0,0 L4,0 L4,13 L2,13 L2,16 L-6,20 L-13,20 L-14,19 L-14,13 L-9,7 L-7,7 L-7,5 L-5,5 L-4,2 Z " fill="#D7D7D7" transform="translate(19,4)"/>
<path d="M0,0 L2,0 L1,5 L-3,9 L-4,11 L4,8 L10,5 L9,10 L1,14 L-6,14 L-7,13 L-7,7 L-2,1 Z " fill="#E8E8E8" transform="translate(12,10)"/>
<path d="M0,0 L4,1 L3,5 L-3,10 L-9,11 L-7,6 Z " fill="#131313" transform="translate(17,10)"/>
</svg>
