<?xml version="1.0" encoding="UTF-8"?>
<svg version="1.1" xmlns="http://www.w3.org/2000/svg" width="28" height="28">
<path d="M0,0 L28,0 L28,28 L0,28 Z " fill="#040404" transform="translate(0,0)"/>
<path d="M0,0 L6,0 L7,3 L7,10 L3,14 L-1,17 L-12,18 L-13,13 L-6,5 Z " fill="#EBEBEB" transform="translate(17,5)"/>
<path d="M0,0 L5,0 L6,6 L-4,11 L-10,12 L-8,7 Z " fill="#0E0E0E" transform="translate(16,9)"/>
<path d="M0,0 L1,2 L1,9 L-3,13 L-7,16 L-14,15 L-11,13 L-3,9 L-1,9 L-2,3 Z " fill="#CACACA" transform="translate(23,6)"/>
</svg>
