<?xml version="1.0" encoding="UTF-8"?>
<svg version="1.1" xmlns="http://www.w3.org/2000/svg" width="28" height="28">
<path d="M0,0 L28,0 L28,28 L0,28 Z " fill="#030303" transform="translate(0,0)"/>
<path d="M0,0 L3,1 L3,11 L-3,18 L-9,20 L-13,20 L-12,13 L-4,5 L-3,3 L-1,3 Z " fill="#E7E7E7" transform="translate(19,3)"/>
<path d="M0,0 L3,0 L3,5 L-2,10 L-4,12 L-9,12 L-7,8 Z " fill="#121212" transform="translate(18,7)"/>
<path d="M0,0 L3,1 L-2,6 L-7,9 L-5,5 Z " fill="#D3D3D3" transform="translate(14,9)"/>
</svg>
