<?xml version="1.0" encoding="UTF-8"?>
<svg version="1.1" xmlns="http://www.w3.org/2000/svg" width="28" height="28">
<path d="M0,0 L28,0 L28,28 L0,28 Z " fill="#030303" transform="translate(0,0)"/>
<path d="M0,0 L7,1 L9,4 L7,4 L7,12 L2,16 L-3,18 L-10,18 L-11,14 L-9,9 L-2,3 Z " fill="#DCDCDC" transform="translate(15,5)"/>
<path d="M0,0 L5,0 L5,5 L0,9 L-7,10 L-8,6 Z " fill="#121212" transform="translate(15,10)"/>
<path d="M0,0 L7,1 L9,4 L7,4 L7,10 L5,6 L0,6 L-5,9 L-3,4 Z " fill="#EEEEEE" transform="translate(15,5)"/>
<path d="M0,0 L2,4 L0,8 L-4,6 L-1,4 Z " fill="#C9C9C9" transform="translate(20,11)"/>
</svg>
