<?xml version="1.0" encoding="UTF-8"?>
<svg version="1.1" xmlns="http://www.w3.org/2000/svg" width="28" height="28">
<path d="M0,0 L28,0 L28,28 L0,28 Z " fill="#020202" transform="translate(0,0)"/>
<path d="M0,0 L2,0 L2,2 L4,2 L4,11 L-1,17 L-7,20 L-13,19 L-14,18 L-14,13 L-12,13 L-10,9 L-7,8 L-6,5 L-1,3 Z " fill="#DBDBDB" transform="translate(19,3)"/>
<path d="M0,0 L2,0 L2,6 L-3,11 L-11,11 L-9,7 L-5,3 Z " fill="#0E0E0E" transform="translate(18,8)"/>
<path d="M0,0 L1,0 L1,7 L-4,13 L-9,15 L-9,13 L-14,13 L-14,12 L-7,11 L-3,7 L-2,2 Z " fill="#CBCBCB" transform="translate(22,7)"/>
<path d="M0,0 L2,0 L2,2 L4,2 L3,9 L1,6 L-2,6 Z " fill="#F1F1F1" transform="translate(19,3)"/>
<path d="M0,0 L1,0 L1,7 L-2,10 L-3,7 L-2,2 Z " fill="#ADADAD" transform="translate(22,7)"/>
</svg>
