<?xml version="1.0" encoding="UTF-8"?>
<svg version="1.1" xmlns="http://www.w3.org/2000/svg" width="28" height="28">
<path d="M0,0 L28,0 L28,28 L0,28 Z " fill="#030303" transform="translate(0,0)"/>
<path d="M0,0 L4,1 L8,3 L6,12 L1,17 L-5,19 L-12,18 L-12,13 L-9,10 L-7,10 L-7,8 L-1,4 L1,4 Z " fill="#E2E2E2" transform="translate(16,4)"/>
<path d="M0,0 L1,0 L1,7 L-4,10 L-11,10 L-10,6 L-5,2 Z " fill="#101010" transform="translate(18,10)"/>
<path d="M0,0 L3,2 L2,7 L-2,11 L-8,13 L-13,13 L-14,8 L-12,9 L-5,9 L-1,7 Z " fill="#EEEEEE" transform="translate(19,10)"/>
<path d="M0,0 L2,3 L-1,4 L-2,7 L-5,10 L-5,5 L-2,2 L0,2 Z " fill="#BEBEBE" transform="translate(9,12)"/>
</svg>
