<?xml version="1.0" encoding="UTF-8"?>
<svg version="1.1" xmlns="http://www.w3.org/2000/svg" width="28" height="28">
<path d="M0,0 L28,0 L28,28 L0,28 Z " fill="#040404" transform="translate(0,0)"/>
<path d="M0,0 L4,0 L4,2 L12,1 L14,3 L14,10 L10,16 L6,18 L-2,18 L-5,15 L-6,8 L-2,1 Z " fill="#050505" transform="translate(11,5)"/>
<path d="M0,0 L3,1 L-2,6 L-2,13 L-1,14 L6,14 L10,10 L10,4 L5,3 L7,1 L12,1 L14,3 L14,10 L10,16 L6,18 L-2,18 L-5,15 L-6,8 L-2,1 Z " fill="#E7E7E7" transform="translate(11,5)"/>
<path d="M0,0 L5,0 L6,2 L5,8 L4,8 L3,3 L-2,2 Z " fill="#C4C4C4" transform="translate(18,6)"/>
<path d="M0,0 L2,2 L7,3 L7,4 L-1,5 L-2,2 Z " fill="#565656" transform="translate(14,5)"/>
<path d="M0,0 L2,0 L2,7 L0,9 L-1,6 Z " fill="#F4F4F4" transform="translate(23,8)"/>
</svg>
