<?xml version="1.0" encoding="UTF-8"?>
<svg version="1.1" xmlns="http://www.w3.org/2000/svg" width="28" height="28">
<path d="M0,0 L28,0 L28,28 L0,28 Z " fill="#020202" transform="translate(0,0)"/>
<path d="M0,0 L5,2 L5,4 L8,5 L10,9 L9,16 L6,19 L-2,20 L-4,17 L-4,9 Z " fill="#0C0C0C" transform="translate(12,4)"/>
<path d="M0,0 L5,2 L5,4 L8,5 L10,9 L9,16 L6,19 L-2,20 L-4,17 L-4,9 Z M0,3 L0,7 L-2,7 L-2,17 L2,18 L8,14 L7,7 L2,3 Z " fill="#C9C9C9" transform="translate(12,4)"/>
<path d="M0,0 L1,0 L3,7 L8,6 L13,3 L12,7 L7,10 L2,10 L0,7 Z " fill="#E7E7E7" transform="translate(8,14)"/>
</svg>
