<?xml version="1.0" encoding="UTF-8"?>
<svg version="1.1" xmlns="http://www.w3.org/2000/svg" width="28" height="28">
<path d="M0,0 L28,0 L28,28 L0,28 Z " fill="#020202" transform="translate(0,0)"/>
<path d="M0,0 L5,1 L6,5 L7,15 L2,20 L-3,20 L-5,18 L-5,7 L-3,2 Z " fill="#E2E2E2" transform="translate(14,4)"/>
<path d="M0,0 L2,1 L3,5 L3,12 L1,15 L-3,15 L-4,13 L-4,6 Z " fill="#0B0B0B" transform="translate(15,6)"/>
<path d="M0,0 L5,1 L6,5 L5,13 L4,13 L2,3 L-3,4 L-3,2 Z " fill="#C0C0C0" transform="translate(14,4)"/>
</svg>
