<?xml version="1.0" encoding="UTF-8"?>
<svg version="1.1" xmlns="http://www.w3.org/2000/svg" width="28" height="28">
<path d="M0,0 L28,0 L28,28 L0,28 Z " fill="#020202" transform="translate(0,0)"/>
<path d="M0,0 L5,1 L10,6 L9,11 L1,15 L0,16 L-8,15 L-10,14 L-10,8 L-6,2 Z " fill="#E4E4E4" transform="translate(15,6)"/>
<path d="M0,0 L5,1 L7,6 L0,10 L-6,10 L-7,9 L-6,2 Z " fill="#0B0B0B" transform="translate(15,9)"/>
<path d="M0,0 L5,1 L4,3 L-4,4 L-1,3 Z " fill="#C4C4C4" transform="translate(15,6)"/>
</svg>
