<?xml version="1.0" encoding="UTF-8"?>
<svg version="1.1" xmlns="http://www.w3.org/2000/svg" width="28" height="28">
<path d="M0,0 L28,0 L28,28 L0,28 Z " fill="#030303" transform="translate(0,0)"/>
<path d="M0,0 L6,1 L9,4 L10,13 L5,18 L-1,20 L-8,19 L-10,17 L-10,10 L-6,5 L-2,2 L0,2 Z " fill="#0C0C0C" transform="translate(14,4)"/>
<path d="M0,0 L5,1 L8,4 L9,13 L4,18 L-2,20 L-9,19 L-11,17 L-11,10 L-7,5 L-2,2 L-2,5 L-7,10 L-8,16 L-7,17 L2,16 L6,12 L6,6 L2,2 Z " fill="#D7D7D7" transform="translate(15,4)"/>
</svg>
