<?xml version="1.0" encoding="UTF-8"?>
<svg version="1.1" xmlns="http://www.w3.org/2000/svg" width="28" height="28">
<path d="M0,0 L28,0 L28,28 L0,28 Z " fill="#030303" transform="translate(0,0)"/>
<path d="M0,0 L4,1 L7,5 L8,8 L8,16 L4,20 L-4,20 L-9,16 L-9,9 L-6,4 L-3,2 L0,2 Z " fill="#060606" transform="translate(14,3)"/>
<path d="M0,0 L4,1 L7,5 L8,8 L8,16 L4,20 L-4,20 L-9,16 L-9,9 L-6,4 L-3,2 L0,2 Z M2,3 L-4,5 L-7,9 L-7,15 L-5,17 L3,17 L6,15 L6,8 L3,3 Z " fill="#A9A9A9" transform="translate(14,3)"/>
<path d="M0,0 L4,2 L7,8 L7,16 L3,18 L4,15 L4,8 L1,3 Z " fill="#E7E7E7" transform="translate(15,3)"/>
<path d="M0,0 L2,4 L-4,6 L-6,9 L-8,16 L-9,16 L-9,9 L-6,4 L-3,2 L0,2 Z " fill="#A6A6A6" transform="translate(14,3)"/>
<path d="M0,0 L4,3 L10,4 L10,5 L2,5 L0,3 Z " fill="#E7E7E7" transform="translate(6,17)"/>
</svg>
