<?xml version="1.0" encoding="UTF-8"?>
<svg version="1.1" xmlns="http://www.w3.org/2000/svg" width="28" height="28">
<path d="M0,0 L28,0 L28,28 L0,28 Z " fill="#020202" transform="translate(0,0)"/>
<path d="M0,0 L4,2 L6,5 L6,13 L1,18 L-6,20 L-9,18 L-10,14 L-4,3 L-2,3 L-2,1 Z " fill="#EFEFEF" transform="translate(16,4)"/>
<path d="M0,0 L2,0 L3,9 L-4,13 L-7,13 L-6,6 L-3,1 Z " fill="#0C0C0C" transform="translate(17,8)"/>
<path d="M0,0 L4,2 L5,4 L4,9 L3,9 L3,4 L-2,5 L-2,1 Z " fill="#CBCBCB" transform="translate(16,4)"/>
</svg>
