<?xml version="1.0" encoding="UTF-8"?>
<svg version="1.1" xmlns="http://www.w3.org/2000/svg" width="28" height="28">
<path d="M0,0 L28,0 L28,28 L0,28 Z " fill="#020202" transform="translate(0,0)"/>
<path d="M0,0 L5,0 L7,3 L7,13 L4,18 L0,20 L-5,20 L-7,18 L-7,10 L-2,2 Z " fill="#090909" transform="translate(15,4)"/>
<path d="M0,0 L5,0 L7,3 L7,13 L4,18 L0,20 L-5,20 L-7,18 L-7,10 L-2,2 Z M0,2 L-1,6 L-4,7 L-5,10 L-5,18 L1,18 L5,13 L5,2 Z " fill="#C7C7C7" transform="translate(15,4)"/>
<path d="M0,0 L3,1 L1,2 L0,6 L-2,6 L-5,16 L-6,16 L-6,9 L-1,1 Z " fill="#E6E6E6" transform="translate(14,5)"/>
</svg>
