<?xml version="1.0" encoding="UTF-8"?>
<svg version="1.1" xmlns="http://www.w3.org/2000/svg" width="28" height="28">
<path d="M0,0 L28,0 L28,28 L0,28 Z " fill="#030303" transform="translate(0,0)"/>
<path d="M0,0 L7,0 L9,2 L9,12 L5,18 L2,20 L-7,20 L-7,13 L-5,8 L-3,8 L-2,4 Z " fill="#070707" transform="translate(13,4)"/>
<path d="M0,0 L7,0 L9,2 L9,12 L5,18 L2,20 L-7,20 L-7,13 L-5,8 L-3,8 L-2,4 Z M1,2 L-5,14 L-5,19 L1,18 L6,14 L7,12 L7,3 L6,2 Z " fill="#D6D6D6" transform="translate(13,4)"/>
</svg>
