<?xml version="1.0" encoding="UTF-8"?>
<svg version="1.1" xmlns="http://www.w3.org/2000/svg" width="28" height="28">
<path d="M0,0 L28,0 L28,28 L0,28 Z " fill="#020202" transform="translate(0,0)"/>
<path d="M0,0 L3,1 L6,6 L4,16 L-1,20 L-6,20 L-8,17 L-8,11 L-5,5 Z " fill="#E9E9E9" transform="translate(16,4)"/>
<path d="M0,0 L2,0 L3,8 L-1,13 L-5,13 L-4,5 L-3,3 L-1,3 Z " fill="#111111" transform="translate(16,8)"/>
<path d="M0,0 L2,1 L0,5 L-4,7 L-2,2 Z " fill="#D8D8D8" transform="translate(18,17)"/>
</svg>
