<?xml version="1.0" encoding="UTF-8"?>
<svg version="1.1" xmlns="http://www.w3.org/2000/svg" width="28" height="28">
<path d="M0,0 L28,0 L28,28 L0,28 Z " fill="#000000" transform="translate(0,0)"/>
<path d="M0,0 L5,0 L7,5 L8,15 L3,20 L-5,20 L-6,19 L-5,10 L-2,2 Z " fill="#D9D9D9" transform="translate(13,4)"/>
<path d="M0,0 L2,0 L4,12 L1,15 L-5,16 L-4,7 L-2,1 Z " fill="#0B0B0B" transform="translate(15,7)"/>
<path d="M0,0 L3,1 L1,12 L0,12 L-1,3 Z " fill="#B8B8B8" transform="translate(9,11)"/>
</svg>
