<?xml version="1.0" encoding="UTF-8"?>
<svg version="1.1" xmlns="http://www.w3.org/2000/svg" width="28" height="28">
<path d="M0,0 L28,0 L28,28 L0,28 Z " fill="#020202" transform="translate(0,0)"/>
<path d="M0,0 L5,1 L6,6 L6,13 L3,18 L1,20 L-5,20 L-6,18 L-6,11 L-1,1 Z " fill="#0F0F0F" transform="translate(14,5)"/>
<path d="M0,0 L5,1 L6,6 L6,13 L3,18 L1,20 L-5,20 L-6,18 L-6,11 L-1,1 Z M2,2 L-1,5 L-1,8 L-3,8 L-4,11 L-4,18 L-1,19 L4,14 L5,12 L4,3 Z " fill="#DBDBDB" transform="translate(14,5)"/>
</svg>
