<?xml version="1.0" encoding="UTF-8"?>
<svg version="1.1" xmlns="http://www.w3.org/2000/svg" width="28" height="28">
<path d="M0,0 L28,0 L28,28 L0,28 Z " fill="#010101" transform="translate(0,0)"/>
<path d="M0,0 L4,1 L5,3 L5,13 L1,18 L-3,20 L-8,20 L-9,19 L-9,13 L-5,6 L-5,3 Z " fill="#101010" transform="translate(16,4)"/>
<path d="M0,0 L4,1 L5,3 L5,13 L1,18 L-3,20 L-8,20 L-9,19 L-9,13 L-5,6 L-1,4 L-3,8 L-6,14 L-7,18 L0,16 L2,14 L2,3 L-3,4 L-6,4 Z " fill="#D7D7D7" transform="translate(16,4)"/>
<path d="M0,0 L4,1 L5,3 L5,13 L3,10 L2,3 L-3,4 L-6,4 Z " fill="#BCBCBC" transform="translate(16,4)"/>
</svg>
