<?xml version="1.0" encoding="UTF-8"?>
<svg version="1.1" xmlns="http://www.w3.org/2000/svg" width="28" height="28">
<path d="M0,0 L28,0 L28,28 L0,28 Z " fill="#020202" transform="translate(0,0)"/>
<path d="M0,0 L5,1 L11,5 L13,10 L10,14 L7,15 L-1,15 L-6,12 L-7,5 L-3,1 Z " fill="#090909" transform="translate(12,7)"/>
<path d="M0,0 L5,1 L11,5 L13,10 L10,14 L7,15 L-1,15 L-6,12 L-7,5 L-3,1 Z M-1,3 L-5,6 L-4,10 L-1,13 L7,13 L10,11 L10,6 L3,3 Z " fill="#CACACA" transform="translate(12,7)"/>
<path d="M0,0 L2,1 L-1,5 L0,9 L4,12 L8,14 L2,14 L-3,11 L-4,4 Z " fill="#E5E5E5" transform="translate(9,8)"/>
</svg>
