<?xml version="1.0" encoding="UTF-8"?>
<svg version="1.1" xmlns="http://www.w3.org/2000/svg" width="28" height="28">
<path d="M0,0 L28,0 L28,28 L0,28 Z " fill="#050505" transform="translate(0,0)"/>
<path d="M0,0 L6,0 L10,2 L11,8 L10,12 L8,12 L6,6 L-1,6 L-3,10 L-5,10 L-5,13 L2,13 L6,11 L7,9 L7,13 L5,13 L4,16 L-2,18 L-9,14 L-8,7 L-3,2 L0,2 Z " fill="#E6E6E6" transform="translate(14,6)"/>
<path d="M0,0 L1,4 L-1,4 L-2,7 L-8,9 L-9,5 L-3,3 L0,2 Z " fill="#C9C9C9" transform="translate(20,15)"/>
</svg>
