<?xml version="1.0" encoding="UTF-8"?>
<svg version="1.1" xmlns="http://www.w3.org/2000/svg" width="28" height="28">
<path d="M0,0 L28,0 L28,28 L0,28 Z " fill="#040404" transform="translate(0,0)"/>
<path d="M0,0 L7,1 L10,3 L11,11 L8,16 L4,19 L-6,19 L-9,15 L-8,11 L-3,6 L-3,2 Z " fill="#E4E4E4" transform="translate(13,4)"/>
<path d="M0,0 L3,0 L4,7 L-1,12 L-9,12 L-9,7 L-4,3 L0,2 Z " fill="#090909" transform="translate(17,8)"/>
<path d="M0,0 L7,1 L6,4 L4,4 L4,6 L1,7 L-4,5 L-3,2 Z " fill="#BBBBBB" transform="translate(13,4)"/>
</svg>
