<?xml version="1.0" encoding="UTF-8"?>
<svg version="1.1" xmlns="http://www.w3.org/2000/svg" width="28" height="28">
<path d="M0,0 L28,0 L28,28 L0,28 Z " fill="#020202" transform="translate(0,0)"/>
<path d="M0,0 L5,2 L7,6 L9,6 L10,11 L6,15 L2,16 L-6,16 L-10,14 L-10,8 L-6,4 L-4,4 L-3,1 Z " fill="#0A0A0A" transform="translate(15,5)"/>
<path d="M0,0 L5,2 L7,6 L9,6 L10,11 L6,15 L2,16 L-6,16 L-10,14 L-10,8 L-6,4 L-4,4 L-3,1 Z M0,2 L0,4 L-5,6 L-7,9 L-6,14 L4,13 L7,11 L6,5 L4,5 L4,3 Z " fill="#E8E8E8" transform="translate(15,5)"/>
<path d="M0,0 L5,3 L6,6 L8,6 L9,11 L5,15 L-1,14 L3,12 L5,11 L5,5 L3,5 L3,3 L0,2 Z " fill="#CBCBCB" transform="translate(16,5)"/>
</svg>
