<?xml version="1.0" encoding="UTF-8"?>
<svg version="1.1" xmlns="http://www.w3.org/2000/svg" width="28" height="28">
<path d="M0,0 L28,0 L28,28 L0,28 Z " fill="#020202" transform="translate(0,0)"/>
<path d="M0,0 L4,2 L5,5 L5,14 L0,20 L-5,20 L-7,18 L-7,8 Z " fill="#D7D7D7" transform="translate(16,4)"/>
<path d="M0,0 L2,3 L1,12 L-2,16 L-6,15 L-6,8 L-2,9 L-1,1 Z " fill="#0E0E0E" transform="translate(17,6)"/>
<path d="M0,0 L1,0 L2,7 L6,6 L9,0 L10,0 L10,5 L6,10 L1,10 L-1,8 L-1,1 Z " fill="#F0F0F0" transform="translate(10,14)"/>
</svg>
