<?xml version="1.0" encoding="UTF-8"?>
<svg version="1.1" xmlns="http://www.w3.org/2000/svg" width="28" height="28">
<path d="M0,0 L28,0 L28,28 L0,28 Z " fill="#030303" transform="translate(0,0)"/>
<path d="M0,0 L8,1 L14,5 L15,12 L10,16 L0,16 L-5,12 L-5,5 Z " fill="#090909" transform="translate(10,6)"/>
<path d="M0,0 L8,1 L14,5 L15,12 L10,16 L0,16 L-5,12 L-5,5 Z M3,2 L-2,5 L-3,10 L0,14 L6,15 L11,13 L13,11 L12,6 L6,2 Z " fill="#E5E5E5" transform="translate(10,6)"/>
<path d="M0,0 L7,4 L8,11 L3,15 L-1,13 L4,11 L5,6 L-1,2 Z " fill="#C8C8C8" transform="translate(17,7)"/>
</svg>
