<?xml version="1.0" encoding="UTF-8"?>
<svg version="1.1" xmlns="http://www.w3.org/2000/svg" width="28" height="28">
<path d="M0,0 L28,0 L28,28 L0,28 Z " fill="#020202" transform="translate(0,0)"/>
<path d="M0,0 L4,2 L6,9 L2,17 L-1,20 L-6,19 L-8,14 L-7,6 L-5,4 L1,4 Z " fill="#060606" transform="translate(16,5)"/>
<path d="M0,0 L4,2 L6,9 L2,17 L-1,20 L-6,19 L-8,14 L-7,6 L-5,4 L1,4 Z M-2,5 L-5,6 L-6,15 L-4,18 L0,17 L3,12 L3,5 Z " fill="#C3C3C3" transform="translate(16,5)"/>
<path d="M0,0 L4,2 L6,9 L4,10 L4,5 L-5,6 L-6,11 L-7,11 L-7,6 L-5,4 L1,4 Z " fill="#DBDBDB" transform="translate(16,5)"/>
</svg>
