<?xml version="1.0" encoding="UTF-8"?>
<svg version="1.1" xmlns="http://www.w3.org/2000/svg" width="28" height="28">
<path d="M0,0 L28,0 L28,28 L0,28 Z " fill="#030303" transform="translate(0,0)"/>
<path d="M0,0 L4,2 L7,4 L7,6 L9,6 L10,8 L10,15 L6,19 L-2,20 L-9,16 L-10,11 L-7,5 L-3,1 Z " fill="#0C0C0C" transform="translate(15,4)"/>
<path d="M0,0 L4,2 L7,4 L7,6 L9,6 L10,8 L10,15 L6,19 L-2,20 L-9,16 L-10,11 L-7,5 L-3,1 Z M-3,4 L-7,9 L-7,14 L-1,17 L5,16 L7,15 L8,9 L4,4 Z " fill="#E1E1E1" transform="translate(15,4)"/>
</svg>
