<?xml version="1.0" encoding="UTF-8"?>
<svg version="1.1" xmlns="http://www.w3.org/2000/svg" width="28" height="28">
<path d="M0,0 L28,0 L28,28 L0,28 Z " fill="#020202" transform="translate(0,0)"/>
<path d="M0,0 L9,0 L14,3 L14,9 L12,9 L12,11 L6,14 L-4,13 L-6,10 L-6,5 Z " fill="#E4E4E4" transform="translate(11,8)"/>
<path d="M0,0 L7,0 L9,3 L3,8 L-3,8 L-6,6 L-5,2 Z " fill="#090909" transform="translate(14,11)"/>
<path d="M0,0 L6,2 L7,3 L7,9 L6,5 L1,3 Z " fill="#C9C9C9" transform="translate(18,8)"/>
</svg>
