<?xml version="1.0" encoding="UTF-8"?>
<svg version="1.1" xmlns="http://www.w3.org/2000/svg" width="28" height="28">
<path d="M0,0 L28,0 L28,28 L0,28 Z " fill="#030303" transform="translate(0,0)"/>
<path d="M0,0 L9,1 L13,5 L14,8 L14,17 L11,20 L3,19 L-2,14 L-2,4 Z " fill="#070707" transform="translate(9,4)"/>
<path d="M0,0 L2,0 L2,16 L12,17 L11,8 L9,3 L4,2 L4,1 L9,1 L13,5 L14,8 L14,17 L11,20 L3,19 L-2,14 L-2,4 Z " fill="#DFDFDF" transform="translate(9,4)"/>
<path d="M0,0 L2,0 L1,14 L0,14 L-1,2 Z " fill="#C3C3C3" transform="translate(9,4)"/>
</svg>
