<?xml version="1.0" encoding="UTF-8"?>
<svg version="1.1" xmlns="http://www.w3.org/2000/svg" width="28" height="28">
<path d="M0,0 L28,0 L28,28 L0,28 Z " fill="#030303" transform="translate(0,0)"/>
<path d="M0,0 L5,1 L10,3 L10,11 L6,17 L1,20 L-4,19 L-7,15 L-6,7 L-3,2 Z " fill="#E8E8E8" transform="translate(13,5)"/>
<path d="M0,0 L1,2 L9,1 L9,6 L6,11 L3,13 L-2,13 L-3,11 L-3,5 Z " fill="#090909" transform="translate(12,9)"/>
<path d="M0,0 L2,0 L2,6 L-1,6 L-1,1 Z " fill="#BCBCBC" transform="translate(7,14)"/>
</svg>
