<?xml version="1.0" encoding="UTF-8"?>
<svg version="1.1" xmlns="http://www.w3.org/2000/svg" width="28" height="28">
<path d="M0,0 L28,0 L28,28 L0,28 Z " fill="#030303" transform="translate(0,0)"/>
<path d="M0,0 L8,0 L10,2 L9,10 L4,16 L-1,19 L-9,19 L-10,18 L-10,12 L-2,2 L0,2 Z " fill="#D1D1D1" transform="translate(15,5)"/>
<path d="M0,0 L3,1 L2,7 L-4,13 L-11,14 L-8,5 L-3,1 Z " fill="#0E0E0E" transform="translate(19,8)"/>
<path d="M0,0 L0,3 L-4,12 L7,8 L9,7 L7,11 L2,14 L-6,14 L-7,13 L-7,7 L-3,2 Z " fill="#EDEDED" transform="translate(12,10)"/>
</svg>
