<?xml version="1.0" encoding="UTF-8"?>
<svg version="1.1" xmlns="http://www.w3.org/2000/svg" width="28" height="28">
<path d="M0,0 L28,0 L28,28 L0,28 Z " fill="#000000" transform="translate(0,0)"/>
<path d="M0,0 L5,0 L8,6 L8,11 L1,19 L-6,20 L-8,14 L-7,8 L-2,1 Z " fill="#CBCBCB" transform="translate(15,5)"/>
<path d="M0,0 L3,1 L4,3 L4,9 L0,14 L-6,16 L-5,8 Z " fill="#0B0B0B" transform="translate(17,7)"/>
<path d="M0,0 L4,1 L2,6 L0,6 L-3,14 L-5,12 L-4,6 Z " fill="#969696" transform="translate(12,7)"/>
<path d="M0,0 L1,3 L-2,10 L-4,9 L-1,1 Z " fill="#DCDCDC" transform="translate(12,12)"/>
</svg>
