<?xml version="1.0" encoding="UTF-8"?>
<svg version="1.1" xmlns="http://www.w3.org/2000/svg" width="28" height="28">
<path d="M0,0 L28,0 L28,28 L0,28 Z " fill="#030303" transform="translate(0,0)"/>
<path d="M0,0 L5,1 L9,4 L8,12 L1,19 L-7,20 L-9,18 L-8,9 L-4,4 Z " fill="#060606" transform="translate(15,5)"/>
<path d="M0,0 L5,1 L9,4 L8,12 L1,19 L-7,20 L-9,18 L-8,9 L-4,4 Z M1,2 L0,4 L-5,7 L-8,14 L-7,18 L-1,18 L6,12 L7,5 L4,2 Z " fill="#B8B8B8" transform="translate(15,5)"/>
<path d="M0,0 L3,1 L1,1 L2,4 L-4,7 L-7,14 L-6,18 L-4,20 L-8,19 L-9,18 L-8,9 L-4,4 Z " fill="#D1D1D1" transform="translate(15,5)"/>
</svg>
