<?xml version="1.0" encoding="UTF-8"?>
<svg version="1.1" xmlns="http://www.w3.org/2000/svg" width="28" height="28">
<path d="M0,0 L28,0 L28,28 L0,28 Z " fill="#030303" transform="translate(0,0)"/>
<path d="M0,0 L4,2 L5,3 L5,11 L0,18 L-3,20 L-8,20 L-9,18 L-9,9 L-5,3 Z " fill="#070707" transform="translate(16,4)"/>
<path d="M0,0 L4,2 L5,3 L5,11 L0,18 L-3,20 L-8,20 L-9,18 L-9,9 L-5,3 Z M-2,2 L-7,8 L-8,16 L-7,18 L-2,17 L3,12 L4,7 L0,2 Z " fill="#CCCCCC" transform="translate(16,4)"/>
<path d="M0,0 L4,2 L5,3 L5,10 L3,7 L-1,1 Z " fill="#EBEBEB" transform="translate(16,4)"/>
</svg>
