<?xml version="1.0" encoding="UTF-8"?>
<svg version="1.1" xmlns="http://www.w3.org/2000/svg" width="28" height="28">
<path d="M0,0 L28,0 L28,28 L0,28 Z " fill="#030303" transform="translate(0,0)"/>
<path d="M0,0 L5,1 L10,3 L11,10 L7,16 L-1,20 L-6,19 L-9,16 L-8,9 L-3,2 Z " fill="#070707" transform="translate(14,4)"/>
<path d="M0,0 L5,1 L10,3 L11,10 L7,16 L-1,20 L-6,19 L-9,16 L-8,9 L-3,2 Z M1,2 L-2,5 L-2,7 L-4,7 L-6,16 L-5,17 L1,17 L8,12 L9,6 L6,3 Z " fill="#DBDBDB" transform="translate(14,4)"/>
</svg>
