<?xml version="1.0" encoding="UTF-8"?>
<svg version="1.1" xmlns="http://www.w3.org/2000/svg" width="28" height="28">
<path d="M0,0 L28,0 L28,28 L0,28 Z " fill="#020202" transform="translate(0,0)"/>
<path d="M0,0 L5,1 L7,3 L7,10 L4,16 L-2,20 L-8,20 L-10,18 L-10,12 L-6,4 L-3,1 Z " fill="#EFEFEF" transform="translate(16,5)"/>
<path d="M0,0 L4,0 L4,8 L-1,13 L-3,15 L-8,14 L-8,8 L-2,1 Z " fill="#101010" transform="translate(17,8)"/>
<path d="M0,0 L3,2 L4,5 L9,4 L13,0 L16,1 L12,6 L8,8 L2,8 L0,6 Z " fill="#D7D7D7" transform="translate(6,17)"/>
</svg>
