<?xml version="1.0" encoding="UTF-8"?>
<svg version="1.1" xmlns="http://www.w3.org/2000/svg" width="28" height="28">
<path d="M0,0 L28,0 L28,28 L0,28 Z " fill="#030303" transform="translate(0,0)"/>
<path d="M0,0 L5,1 L11,3 L14,7 L13,13 L8,18 L0,18 L-5,15 L-6,13 L-6,6 L-1,1 Z " fill="#060606" transform="translate(11,5)"/>
<path d="M0,0 L5,1 L4,4 L3,2 L0,2 L-2,6 L-2,13 L1,15 L8,14 L10,13 L10,4 L6,4 L6,2 L11,3 L14,7 L13,13 L8,18 L0,18 L-5,15 L-6,13 L-6,6 L-1,1 Z " fill="#DEDEDE" transform="translate(11,5)"/>
<path d="M0,0 L5,1 L4,4 L3,2 L0,2 L-2,6 L-3,13 L-6,9 L-5,4 Z " fill="#C7C7C7" transform="translate(11,5)"/>
</svg>
