<?xml version="1.0" encoding="UTF-8"?>
<svg version="1.1" xmlns="http://www.w3.org/2000/svg" width="28" height="28">
<path d="M0,0 L28,0 L28,28 L0,28 Z " fill="#030303" transform="translate(0,0)"/>
<path d="M0,0 L4,0 L6,9 L5,16 L1,20 L-4,19 L-6,16 L-5,6 L-3,2 Z " fill="#E3E3E3" transform="translate(14,4)"/>
<path d="M0,0 L2,0 L3,6 L1,11 L-2,13 L-7,12 L-9,9 L-9,3 L-6,2 L-5,8 L-2,8 Z " fill="#E9E9E9" transform="translate(17,11)"/>
<path d="M0,0 L3,1 L4,6 L2,11 L-2,10 L-1,3 Z " fill="#0A0A0A" transform="translate(13,9)"/>
</svg>
