<?xml version="1.0" encoding="UTF-8"?>
<svg version="1.1" xmlns="http://www.w3.org/2000/svg" width="28" height="28">
<path d="M0,0 L28,0 L28,28 L0,28 Z " fill="#030303" transform="translate(0,0)"/>
<path d="M0,0 L4,2 L6,5 L6,14 L5,16 L3,16 L3,18 L0,20 L-5,19 L-7,15 L-7,8 L-5,2 Z " fill="#E4E4E4" transform="translate(15,4)"/>
<path d="M0,0 L3,3 L2,10 L-2,14 L-5,14 L-6,8 L-4,1 Z " fill="#060606" transform="translate(16,7)"/>
<path d="M0,0 L4,2 L6,5 L6,14 L4,16 L0,15 L3,11 L2,4 L-1,4 L-3,1 Z " fill="#BBBBBB" transform="translate(15,4)"/>
</svg>
