<?xml version="1.0" encoding="UTF-8"?>
<svg version="1.1" xmlns="http://www.w3.org/2000/svg" width="28" height="28">
<path d="M0,0 L28,0 L28,28 L0,28 Z " fill="#030303" transform="translate(0,0)"/>
<path d="M0,0 L9,0 L13,2 L14,7 L10,14 L6,17 L0,18 L-5,13 L-6,8 L-3,2 Z " fill="#E6E6E6" transform="translate(11,7)"/>
<path d="M0,0 L5,1 L4,6 L-1,11 L-2,12 L-7,12 L-8,5 L-3,1 Z " fill="#060606" transform="translate(17,10)"/>
<path d="M0,0 L2,2 L1,6 L-2,9 L-2,7 L-4,6 L-2,6 Z " fill="#C7C7C7" transform="translate(22,12)"/>
</svg>
