<?xml version="1.0" encoding="UTF-8"?>
<svg version="1.1" xmlns="http://www.w3.org/2000/svg" width="28" height="28">
<path d="M0,0 L28,0 L28,28 L0,28 Z " fill="#030303" transform="translate(0,0)"/>
<path d="M0,0 L5,1 L7,3 L8,8 L8,17 L5,20 L-1,20 L-6,15 L-6,4 Z " fill="#0B0B0B" transform="translate(13,5)"/>
<path d="M0,0 L5,1 L7,3 L8,8 L8,17 L5,20 L-1,20 L-6,15 L-6,4 Z M1,3 L-2,7 L-4,7 L-4,15 L-2,18 L5,17 L6,16 L6,7 L4,3 Z " fill="#DDDDDD" transform="translate(13,5)"/>
<path d="M0,0 L4,2 L1,3 L-1,8 L-4,7 L-4,3 Z " fill="#CACACA" transform="translate(13,5)"/>
<path d="M0,0 L3,2 L1,2 L0,10 L-1,10 L-1,1 Z " fill="#F3F3F3" transform="translate(8,8)"/>
</svg>
