<?xml version="1.0" encoding="UTF-8"?>
<svg version="1.1" xmlns="http://www.w3.org/2000/svg" width="28" height="28">
<path d="M0,0 L28,0 L28,28 L0,28 Z " fill="#020202" transform="translate(0,0)"/>
<path d="M0,0 L6,1 L9,5 L9,16 L6,20 L-2,20 L-5,17 L-5,7 L-2,1 Z " fill="#0C0C0C" transform="translate(13,4)"/>
<path d="M0,0 L6,1 L9,5 L9,16 L6,20 L-2,20 L-5,17 L-5,7 L-2,1 Z M1,2 L-2,4 L-3,7 L-3,17 L-1,18 L5,18 L7,16 L7,6 L5,6 L4,2 Z " fill="#E9E9E9" transform="translate(13,4)"/>
<path d="M0,0 L1,0 L2,8 L-1,12 L-9,12 L-9,10 L-2,9 L-1,8 Z " fill="#C6C6C6" transform="translate(20,12)"/>
</svg>
