<?xml version="1.0" encoding="UTF-8"?>
<svg version="1.1" xmlns="http://www.w3.org/2000/svg" width="28" height="28">
<path d="M0,0 L28,0 L28,28 L0,28 Z " fill="#010101" transform="translate(0,0)"/>
<path d="M0,0 L5,1 L8,5 L8,15 L5,18 L0,20 L-10,20 L-10,12 L-9,10 L-7,10 L-5,5 Z " fill="#E2E2E2" transform="translate(15,4)"/>
<path d="M0,0 L1,4 L3,4 L4,2 L5,7 L3,11 L-1,13 L-9,13 L-7,7 L-2,1 Z " fill="#090909" transform="translate(16,8)"/>
<path d="M0,0 L1,2 L3,3 L1,7 L8,7 L9,10 L-1,10 L-1,2 Z " fill="#C3C3C3" transform="translate(6,14)"/>
</svg>
