<?xml version="1.0" encoding="UTF-8"?>
<svg version="1.1" xmlns="http://www.w3.org/2000/svg" width="28" height="28">
<path d="M0,0 L28,0 L28,28 L0,28 Z " fill="#020202" transform="translate(0,0)"/>
<path d="M0,0 L6,2 L7,4 L7,10 L2,16 L-2,18 L-9,17 L-13,13 L-13,8 L-7,3 Z " fill="#090909" transform="translate(17,6)"/>
<path d="M0,0 L6,2 L7,4 L7,10 L2,16 L-2,18 L-9,17 L-13,13 L-13,8 L-7,3 Z M-2,3 L-11,8 L-12,12 L-7,16 L0,15 L5,9 L5,4 L4,3 Z " fill="#DBDBDB" transform="translate(17,6)"/>
<path d="M0,0 L6,2 L4,4 L-3,2 Z " fill="#C2C2C2" transform="translate(17,6)"/>
</svg>
