<?xml version="1.0" encoding="UTF-8"?>
<svg version="1.1" xmlns="http://www.w3.org/2000/svg" width="28" height="28">
<path d="M0,0 L28,0 L28,28 L0,28 Z " fill="#020202" transform="translate(0,0)"/>
<path d="M0,0 L2,0 L2,3 L6,4 L8,6 L7,12 L1,16 L-5,18 L-10,17 L-12,15 L-11,8 L-3,1 Z " fill="#D4D4D4" transform="translate(17,5)"/>
<path d="M0,0 L7,0 L8,4 L4,8 L-2,11 L-7,11 L-8,6 L-5,2 L0,2 Z " fill="#0C0C0C" transform="translate(15,10)"/>
<path d="M0,0 L1,2 L-1,2 L0,5 L-4,6 L-4,3 L-3,1 Z " fill="#F3F3F3" transform="translate(17,5)"/>
</svg>
