<?xml version="1.0" encoding="UTF-8"?>
<svg version="1.1" xmlns="http://www.w3.org/2000/svg" width="28" height="28">
<path d="M0,0 L28,0 L28,28 L0,28 Z " fill="#030303" transform="translate(0,0)"/>
<path d="M0,0 L3,1 L4,6 L3,13 L-2,18 L-7,20 L-14,20 L-14,14 L-11,10 L-8,11 L-12,16 L-5,15 L-2,12 L0,12 L1,7 L2,5 L-5,7 L-3,3 L0,2 Z " fill="#E8E8E8" transform="translate(19,3)"/>
<path d="M0,0 L1,2 L8,0 L6,7 L4,7 L3,10 L-1,12 L-6,12 L-7,10 L-5,10 L-3,6 L-1,1 Z " fill="#242424" transform="translate(13,8)"/>
<path d="M0,0 L3,1 L-1,7 L-1,10 L-3,10 L-3,4 Z " fill="#DADADA" transform="translate(8,13)"/>
</svg>
