<?xml version="1.0" encoding="UTF-8"?>
<svg version="1.1" xmlns="http://www.w3.org/2000/svg" width="28" height="28">
<path d="M0,0 L28,0 L28,28 L0,28 Z " fill="#040404" transform="translate(0,0)"/>
<path d="M0,0 L4,0 L4,2 L1,3 L-1,7 L-1,15 L6,14 L11,11 L12,6 L6,5 L6,3 L12,4 L15,7 L14,12 L8,17 L6,18 L-1,18 L-4,15 L-5,8 Z " fill="#E5E5E5" transform="translate(10,4)"/>
<path d="M0,0 L6,1 L9,4 L8,9 L6,8 L6,3 L0,2 Z " fill="#C4C4C4" transform="translate(16,7)"/>
<path d="M0,0 L4,0 L4,2 L1,3 L-2,12 L-3,10 L-5,10 L-3,5 Z " fill="#CBCBCB" transform="translate(10,4)"/>
</svg>
