<?xml version="1.0" encoding="UTF-8"?>
<svg version="1.1" xmlns="http://www.w3.org/2000/svg" width="28" height="28">
<path d="M0,0 L28,0 L28,28 L0,28 Z " fill="#010101" transform="translate(0,0)"/>
<path d="M0,0 L5,1 L6,6 L4,13 L0,18 L-4,20 L-10,20 L-11,16 L-5,8 L-3,8 L-3,6 L-7,6 L-6,3 Z " fill="#D7D7D7" transform="translate(16,4)"/>
<path d="M0,0 L2,0 L0,4 L-2,8 L5,5 L7,2 L10,2 L8,7 L3,11 L1,12 L-5,12 L-6,8 Z " fill="#D8D8D8" transform="translate(11,12)"/>
<path d="M0,0 L1,0 L1,6 L-4,11 L-9,12 L-7,7 L-2,1 Z " fill="#0E0E0E" transform="translate(18,8)"/>
</svg>
