<?xml version="1.0" encoding="UTF-8"?>
<svg version="1.1" xmlns="http://www.w3.org/2000/svg" width="28" height="28">
<path d="M0,0 L28,0 L28,28 L0,28 Z " fill="#010101" transform="translate(0,0)"/>
<path d="M0,0 L5,1 L7,3 L7,9 L5,13 L-5,18 L-11,18 L-13,15 L-12,8 L-5,2 Z " fill="#E1E1E1" transform="translate(17,5)"/>
<path d="M0,0 L3,0 L4,5 L-1,10 L-5,12 L-11,12 L-11,7 L-5,1 Z " fill="#060606" transform="translate(18,8)"/>
<path d="M0,0 L3,1 L-1,6 L-2,11 L2,12 L3,14 L-3,14 L-5,11 L-4,4 Z " fill="#C3C3C3" transform="translate(9,9)"/>
</svg>
