<?xml version="1.0" encoding="UTF-8"?>
<svg version="1.1" xmlns="http://www.w3.org/2000/svg" width="28" height="28">
<path d="M0,0 L28,0 L28,28 L0,28 Z " fill="#030303" transform="translate(0,0)"/>
<path d="M0,0 L5,2 L7,7 L6,11 L4,16 L-2,20 L-9,20 L-13,17 L-11,8 L-8,7 L-6,3 Z " fill="#090909" transform="translate(18,4)"/>
<path d="M0,0 L2,1 L1,3 L1,9 L10,8 L13,5 L15,5 L14,9 L8,13 L1,13 L-3,10 L-1,1 Z " fill="#DEDEDE" transform="translate(8,11)"/>
<path d="M0,0 L5,2 L7,7 L6,11 L4,10 L4,5 L-2,4 L-6,7 L-8,7 L-6,3 Z " fill="#D6D6D6" transform="translate(18,4)"/>
</svg>
