<?xml version="1.0" encoding="UTF-8"?>
<svg version="1.1" xmlns="http://www.w3.org/2000/svg" width="28" height="28">
<path d="M0,0 L28,0 L28,28 L0,28 Z " fill="#030303" transform="translate(0,0)"/>
<path d="M0,0 L4,1 L7,5 L6,10 L3,15 L-4,20 L-9,19 L-11,17 L-10,11 L-2,1 Z " fill="#D5D5D5" transform="translate(16,4)"/>
<path d="M0,0 L4,2 L4,8 L-1,14 L-8,15 L-7,8 L-2,3 L0,3 Z " fill="#0B0B0B" transform="translate(16,6)"/>
<path d="M0,0 L2,0 L1,4 L-5,11 L-6,8 Z " fill="#F6F6F6" transform="translate(13,6)"/>
</svg>
