<?xml version="1.0" encoding="UTF-8"?>
<svg version="1.1" xmlns="http://www.w3.org/2000/svg" width="28" height="28">
<path d="M0,0 L28,0 L28,28 L0,28 Z " fill="#030303" transform="translate(0,0)"/>
<path d="M0,0 L4,2 L5,3 L5,9 L3,9 L1,14 L-9,19 L-14,19 L-15,18 L-15,13 L-12,9 L-9,9 L-7,5 L-2,2 L0,2 Z " fill="#0F0F0F" transform="translate(19,4)"/>
<path d="M0,0 L3,0 L3,2 L1,2 L-1,7 L5,5 L9,4 L9,2 L12,0 L15,0 L13,5 L3,10 L-2,10 L-3,9 L-3,4 Z " fill="#D7D7D7" transform="translate(7,13)"/>
<path d="M0,0 L4,2 L5,7 L2,7 L3,4 L-2,4 L-2,6 L-9,8 L-5,4 L0,2 Z " fill="#CFCFCF" transform="translate(19,4)"/>
</svg>
