<?xml version="1.0" encoding="UTF-8"?>
<svg version="1.1" xmlns="http://www.w3.org/2000/svg" width="28" height="28">
<path d="M0,0 L28,0 L28,28 L0,28 Z " fill="#040404" transform="translate(0,0)"/>
<path d="M0,0 L6,0 L8,4 L7,12 L3,14 L3,16 L-2,19 L-9,20 L-10,19 L-10,11 L-7,6 Z " fill="#111111" transform="translate(16,4)"/>
<path d="M0,0 L6,0 L8,4 L7,12 L3,14 L3,16 L-2,19 L-9,20 L-10,19 L-10,11 L-7,6 Z M0,3 L-8,10 L-9,17 L-1,16 L4,12 L6,9 L5,4 Z " fill="#DADADA" transform="translate(16,4)"/>
<path d="M0,0 L2,1 L-1,9 L8,6 L12,3 L14,3 L13,6 L11,6 L11,8 L6,11 L-1,12 L-2,11 L-2,3 Z " fill="#F0F0F0" transform="translate(8,12)"/>
</svg>
