<?xml version="1.0" encoding="UTF-8"?>
<svg version="1.1" xmlns="http://www.w3.org/2000/svg" width="28" height="28">
<path d="M0,0 L28,0 L28,28 L0,28 Z " fill="#030303" transform="translate(0,0)"/>
<path d="M0,0 L6,2 L8,6 L8,15 L4,19 L-2,20 L-7,15 L-7,10 L-4,2 Z " fill="#DCDCDC" transform="translate(14,5)"/>
<path d="M0,0 L3,0 L4,2 L4,10 L0,14 L-4,13 L-6,11 L-6,5 L-4,5 L-3,2 Z " fill="#0A0A0A" transform="translate(16,9)"/>
<path d="M0,0 L6,2 L7,7 L5,6 L5,4 L-1,5 L-1,3 L-4,6 L-4,2 Z " fill="#EBEBEB" transform="translate(14,5)"/>
<path d="M0,0 L3,1 L1,2 L2,4 L-2,7 L-4,6 L-3,2 Z " fill="#A6A6A6" transform="translate(13,7)"/>
</svg>
