<?xml version="1.0" encoding="UTF-8"?>
<svg version="1.1" xmlns="http://www.w3.org/2000/svg" width="28" height="28">
<path d="M0,0 L28,0 L28,28 L0,28 Z " fill="#030303" transform="translate(0,0)"/>
<path d="M0,0 L5,0 L6,1 L6,9 L0,17 L-4,18 L2,11 L4,2 L-3,5 L-10,12 L-9,18 L-14,18 L-13,11 L-7,3 Z " fill="#EEEEEE" transform="translate(19,6)"/>
<path d="M0,0 L5,0 L6,1 L6,9 L0,17 L-4,18 L2,11 L4,2 L-3,4 L-3,2 Z " fill="#C3C3C3" transform="translate(19,6)"/>
<path d="M0,0 L1,0 L3,7 L-2,7 L-2,2 Z " fill="#D0D0D0" transform="translate(7,17)"/>
</svg>
