<?xml version="1.0" encoding="UTF-8"?>
<svg version="1.1" xmlns="http://www.w3.org/2000/svg" width="28" height="28">
<path d="M0,0 L28,0 L28,28 L0,28 Z " fill="#020202" transform="translate(0,0)"/>
<path d="M0,0 L7,1 L8,2 L8,9 L4,12 L0,13 L-9,13 L-8,8 L-3,3 Z " fill="#ECECEC" transform="translate(15,7)"/>
<path d="M0,0 L4,1 L5,4 L2,7 L-3,10 L-8,10 L-8,6 L-3,2 Z " fill="#151515" transform="translate(17,9)"/>
<path d="M0,0 L7,1 L8,2 L8,9 L4,12 L0,10 L6,8 L5,3 L-1,2 Z " fill="#C9C9C9" transform="translate(15,7)"/>
</svg>
