<?xml version="1.0" encoding="UTF-8"?>
<svg version="1.1" xmlns="http://www.w3.org/2000/svg" width="28" height="28">
<path d="M0,0 L28,0 L28,28 L0,28 Z " fill="#020202" transform="translate(0,0)"/>
<path d="M0,0 L5,3 L7,6 L8,17 L5,20 L-4,19 L-8,14 L-7,5 L-3,1 Z " fill="#D2D2D2" transform="translate(14,4)"/>
<path d="M0,0 L5,1 L5,3 L7,3 L8,6 L8,14 L4,15 L0,13 L-1,11 L-1,3 Z " fill="#090909" transform="translate(11,7)"/>
<path d="M0,0 L1,0 L3,7 L4,9 L9,10 L11,9 L13,5 L13,12 L6,13 L1,11 L-2,7 L-2,2 Z " fill="#EAEAEA" transform="translate(8,11)"/>
</svg>
