<?xml version="1.0" encoding="UTF-8"?>
<svg version="1.1" xmlns="http://www.w3.org/2000/svg" width="28" height="28">
<path d="M0,0 L28,0 L28,28 L0,28 Z " fill="#030303" transform="translate(0,0)"/>
<path d="M0,0 L5,1 L4,3 L6,8 L4,12 L-3,14 L-10,14 L-13,13 L-12,8 L-10,8 L-10,6 L-5,4 L-4,1 Z " fill="#E0E0E0" transform="translate(18,7)"/>
<path d="M0,0 L4,2 L-1,6 L-3,9 L4,11 L1,13 L-6,13 L-9,12 L-8,7 L-6,7 L-6,5 L-1,3 Z " fill="#EDEDED" transform="translate(14,8)"/>
<path d="M0,0 L5,2 L4,6 L-3,7 L-5,6 L-3,2 Z " fill="#1C1C1C" transform="translate(16,11)"/>
</svg>
