<?xml version="1.0" encoding="UTF-8"?>
<svg version="1.1" xmlns="http://www.w3.org/2000/svg" width="28" height="28">
<path d="M0,0 L28,0 L28,28 L0,28 Z " fill="#020202" transform="translate(0,0)"/>
<path d="M0,0 L5,1 L7,4 L7,10 L-1,19 L-7,20 L-7,18 L-9,18 L-9,11 L-5,2 Z " fill="#D6D6D6" transform="translate(16,5)"/>
<path d="M0,0 L5,0 L7,2 L7,7 L2,13 L-2,13 L-2,4 Z " fill="#070707" transform="translate(13,8)"/>
<path d="M0,0 L5,1 L6,2 L6,9 L4,10 L2,4 L-2,1 Z " fill="#FBFBFB" transform="translate(16,5)"/>
<path d="M0,0 L1,0 L1,6 L-3,10 L-3,6 L-1,5 Z M-5,9 Z " fill="#C3C3C3" transform="translate(22,9)"/>
</svg>
