<?xml version="1.0" encoding="UTF-8"?>
<svg version="1.1" xmlns="http://www.w3.org/2000/svg" width="28" height="28">
<path d="M0,0 L28,0 L28,28 L0,28 Z " fill="#010101" transform="translate(0,0)"/>
<path d="M0,0 L7,2 L11,9 L10,17 L5,20 L-2,20 L-5,17 L-5,10 L-2,2 Z " fill="#050505" transform="translate(12,4)"/>
<path d="M0,0 L2,0 L2,3 L-1,5 L-3,17 L6,17 L8,14 L7,7 L3,3 L3,1 L7,2 L11,9 L10,17 L5,20 L-2,20 L-5,17 L-5,10 L-2,2 Z " fill="#D3D3D3" transform="translate(12,4)"/>
<path d="M0,0 L2,0 L2,3 L-1,5 L-3,15 L-5,12 L-3,3 Z " fill="#B8B8B8" transform="translate(12,4)"/>
</svg>
