<?xml version="1.0" encoding="UTF-8"?>
<svg version="1.1" xmlns="http://www.w3.org/2000/svg" width="28" height="28">
<path d="M0,0 L28,0 L28,28 L0,28 Z " fill="#030303" transform="translate(0,0)"/>
<path d="M0,0 L2,0 L2,2 L-2,3 L3,6 L4,11 L1,16 L-7,20 L-14,19 L-16,17 L-15,10 L-7,3 Z " fill="#0C0C0C" transform="translate(20,4)"/>
<path d="M0,0 L2,0 L2,2 L-2,3 L3,6 L4,11 L1,16 L-7,20 L-14,19 L-16,17 L-15,10 L-7,3 Z M-6,5 L-14,12 L-13,17 L-6,18 L0,14 L2,11 L1,7 L-3,6 L-4,7 Z " fill="#D7D7D7" transform="translate(20,4)"/>
</svg>
