<?xml version="1.0" encoding="UTF-8"?>
<svg version="1.1" xmlns="http://www.w3.org/2000/svg" width="28" height="28">
<path d="M0,0 L28,0 L28,28 L0,28 Z " fill="#030303" transform="translate(0,0)"/>
<path d="M0,0 L5,1 L8,6 L5,16 L1,20 L-4,20 L-6,18 L-6,12 L-3,7 L-1,7 L-1,5 L-3,4 L-3,6 L-5,6 L-5,3 Z " fill="#EDEDED" transform="translate(14,4)"/>
<path d="M0,0 L5,1 L5,7 L1,14 L-4,14 L-3,9 L1,4 L2,1 Z " fill="#1B1B1B" transform="translate(14,7)"/>
<path d="M0,0 L2,1 L3,3 L-3,4 L-3,6 L-5,6 L-5,3 Z " fill="#DADADA" transform="translate(14,4)"/>
</svg>
