<?xml version="1.0" encoding="UTF-8"?>
<svg version="1.1" xmlns="http://www.w3.org/2000/svg" width="28" height="28">
<path d="M0,0 L28,0 L28,28 L0,28 Z " fill="#020202" transform="translate(0,0)"/>
<path d="M0,0 L5,1 L8,5 L8,12 L5,17 L1,20 L-5,20 L-7,19 L-8,15 L-5,5 Z " fill="#CDCDCD" transform="translate(14,4)"/>
<path d="M0,0 L4,1 L5,2 L5,10 L3,13 L-5,14 L-5,9 L-1,7 L-2,2 Z " fill="#0A0A0A" transform="translate(14,7)"/>
<path d="M0,0 L2,0 L2,2 L-2,4 L-2,9 L-5,11 L-6,17 L-2,17 L-2,19 L-8,18 L-9,14 L-6,4 L-3,1 Z " fill="#ECECEC" transform="translate(15,5)"/>
<path d="M0,0 L2,0 L2,8 L-1,8 Z " fill="#606060" transform="translate(22,10)"/>
</svg>
