<?xml version="1.0" encoding="UTF-8"?>
<svg version="1.1" xmlns="http://www.w3.org/2000/svg" width="28" height="28">
<path d="M0,0 L28,0 L28,28 L0,28 Z " fill="#030303" transform="translate(0,0)"/>
<path d="M0,0 L7,2 L8,3 L8,8 L2,18 L-4,20 L-9,16 L-7,10 L-6,5 L-3,1 Z " fill="#DFDFDF" transform="translate(15,5)"/>
<path d="M0,0 L2,0 L1,6 L-3,10 L-7,11 L-12,7 L-11,2 L-8,2 L-8,8 L-3,4 Z " fill="#F0F0F0" transform="translate(18,14)"/>
<path d="M0,0 L4,1 L3,6 L-2,12 L-4,12 L-3,3 Z " fill="#161616" transform="translate(15,9)"/>
</svg>
