<?xml version="1.0" encoding="UTF-8"?>
<svg version="1.1" xmlns="http://www.w3.org/2000/svg" width="28" height="28">
<path d="M0,0 L28,0 L28,28 L0,28 Z " fill="#020202" transform="translate(0,0)"/>
<path d="M0,0 L3,0 L3,2 L1,2 L0,7 L-2,7 L-4,17 L-8,20 L-13,19 L-13,13 L-6,3 L-3,1 L0,2 Z " fill="#D9D9D9" transform="translate(21,4)"/>
<path d="M0,0 L1,3 L-5,13 L-6,13 L-6,6 L-1,1 Z " fill="#E8E8E8" transform="translate(15,9)"/>
<path d="M0,0 L1,2 L-4,12 L-6,12 L-5,7 L-1,1 Z " fill="#131313" transform="translate(17,10)"/>
</svg>
