<?xml version="1.0" encoding="UTF-8"?>
<svg version="1.1" xmlns="http://www.w3.org/2000/svg" width="28" height="28">
<path d="M0,0 L28,0 L28,28 L0,28 Z " fill="#020202" transform="translate(0,0)"/>
<path d="M0,0 L4,1 L4,12 L-1,20 L-7,19 L-8,18 L-8,10 L-1,1 Z " fill="#DCDCDC" transform="translate(16,4)"/>
<path d="M0,0 L1,2 L0,7 L4,6 L8,2 L7,7 L4,11 L-2,10 L-3,9 L-3,3 Z " fill="#EDEDED" transform="translate(11,13)"/>
<path d="M0,0 L2,0 L1,9 L-2,13 L-6,12 L-5,7 L-1,4 Z " fill="#101010" transform="translate(16,8)"/>
</svg>
