<?xml version="1.0" encoding="UTF-8"?>
<svg version="1.1" xmlns="http://www.w3.org/2000/svg" width="28" height="28">
<path d="M0,0 L28,0 L28,28 L0,28 Z " fill="#060606" transform="translate(0,0)"/>
<path d="M0,0 L9,1 L14,6 L15,15 L11,20 L3,19 L-2,17 L-3,12 L0,7 L3,5 L6,6 L3,9 L1,9 L1,14 L11,17 L11,9 L8,4 L-1,4 L-1,7 L-3,7 L-2,2 Z " fill="#EAEAEA" transform="translate(9,5)"/>
<path d="M0,0 L6,2 L6,3 L-1,4 L-1,7 L-3,7 L-2,2 Z " fill="#D4D4D4" transform="translate(9,5)"/>
<path d="M0,0 L3,1 L0,4 L-2,4 L-3,6 L-5,6 L-3,2 Z " fill="#D1D1D1" transform="translate(12,10)"/>
</svg>
