<?xml version="1.0" encoding="UTF-8"?>
<svg version="1.1" xmlns="http://www.w3.org/2000/svg" width="28" height="28">
<path d="M0,0 L28,0 L28,28 L0,28 Z " fill="#010101" transform="translate(0,0)"/>
<path d="M0,0 L5,1 L9,5 L11,9 L11,16 L8,20 L3,20 L0,16 L-1,11 L-1,2 Z " fill="#BCBCBC" transform="translate(10,5)"/>
<path d="M0,0 L6,2 L7,3 L7,10 L5,13 L1,12 L0,9 Z " fill="#030303" transform="translate(12,10)"/>
<path d="M0,0 L1,0 L2,8 L4,12 L7,12 L10,9 L9,14 L8,15 L3,15 L0,11 Z " fill="#E2E2E2" transform="translate(10,10)"/>
</svg>
