<?xml version="1.0" encoding="UTF-8"?>
<svg version="1.1" xmlns="http://www.w3.org/2000/svg" width="28" height="28">
<path d="M0,0 L28,0 L28,28 L0,28 Z " fill="#020202" transform="translate(0,0)"/>
<path d="M0,0 L2,0 L2,2 L6,4 L9,8 L8,13 L1,18 L-2,19 L-9,19 L-11,18 L-10,11 L-1,1 Z " fill="#060606" transform="translate(16,4)"/>
<path d="M0,0 L2,0 L2,2 L6,4 L9,8 L8,13 L1,18 L-2,19 L-9,19 L-11,18 L-10,11 L-1,1 Z M-1,3 L-9,13 L-9,17 L-2,17 L5,13 L7,11 L6,6 L2,3 Z " fill="#D9D9D9" transform="translate(16,4)"/>
<path d="M0,0 L2,2 L-5,7 L-10,8 L-13,6 L-4,3 Z " fill="#C1C1C1" transform="translate(22,15)"/>
</svg>
