<?xml version="1.0" encoding="UTF-8"?>
<svg version="1.1" xmlns="http://www.w3.org/2000/svg" width="28" height="28">
<path d="M0,0 L28,0 L28,28 L0,28 Z " fill="#020202" transform="translate(0,0)"/>
<path d="M0,0 L4,2 L6,5 L5,12 L1,17 L-4,20 L-8,20 L-8,13 L-3,5 Z " fill="#ECECEC" transform="translate(15,5)"/>
<path d="M0,0 L5,0 L4,5 L-1,10 L-5,12 L-4,6 Z " fill="#0D0D0D" transform="translate(14,11)"/>
<path d="M0,0 L3,1 L-1,10 L5,5 L7,5 L6,9 L1,12 L-3,12 L-3,5 Z " fill="#DDDDDD" transform="translate(10,13)"/>
<path d="M0,0 L3,1 L0,7 L-3,7 L-1,2 Z " fill="#C7C7C7" transform="translate(10,13)"/>
</svg>
