<?xml version="1.0" encoding="UTF-8"?>
<svg version="1.1" xmlns="http://www.w3.org/2000/svg" width="28" height="28">
<path d="M0,0 L28,0 L28,28 L0,28 Z " fill="#020202" transform="translate(0,0)"/>
<path d="M0,0 L3,0 L3,4 L9,7 L12,10 L11,15 L8,18 L3,20 L-2,19 L-5,14 L-5,7 L-2,1 Z " fill="#EEEEEE" transform="translate(12,4)"/>
<path d="M0,0 L1,2 L6,4 L8,5 L7,10 L4,13 L-1,13 L-2,12 L-2,2 Z " fill="#0D0D0D" transform="translate(12,8)"/>
<path d="M0,0 L3,0 L3,4 L9,7 L10,9 L8,12 L8,9 L3,7 L0,5 L-3,8 L-4,14 L-5,14 L-5,7 L-2,1 Z " fill="#C4C4C4" transform="translate(12,4)"/>
</svg>
