<?xml version="1.0" encoding="UTF-8"?>
<svg version="1.1" xmlns="http://www.w3.org/2000/svg" width="28" height="28">
<path d="M0,0 L28,0 L28,28 L0,28 Z " fill="#010101" transform="translate(0,0)"/>
<path d="M0,0 L8,0 L12,3 L11,10 L3,15 L-7,16 L-8,11 L-5,4 Z " fill="#EAEAEA" transform="translate(13,7)"/>
<path d="M0,0 L5,1 L6,2 L6,7 L-3,11 L-8,12 L-8,9 L-6,9 L-5,5 Z " fill="#0F0F0F" transform="translate(16,9)"/>
<path d="M0,0 L4,1 L3,8 L-5,13 L-9,12 L-8,10 L0,7 Z " fill="#CFCFCF" transform="translate(21,9)"/>
</svg>
