<?xml version="1.0" encoding="UTF-8"?>
<svg version="1.1" xmlns="http://www.w3.org/2000/svg" width="28" height="28">
<path d="M0,0 L28,0 L28,28 L0,28 Z " fill="#020202" transform="translate(0,0)"/>
<path d="M0,0 L7,0 L12,3 L13,8 L10,13 L7,15 L0,15 L-7,12 L-7,6 L-2,1 Z " fill="#080808" transform="translate(11,7)"/>
<path d="M0,0 L0,3 L-4,6 L-4,11 L-2,12 L7,12 L10,10 L10,5 L4,3 L2,3 L2,1 L11,2 L13,5 L12,11 L7,15 L0,15 L-7,12 L-7,6 L-2,1 Z " fill="#BCBCBC" transform="translate(11,7)"/>
<path d="M0,0 L9,1 L11,4 L10,9 L9,9 L7,3 L0,2 Z " fill="#D8D8D8" transform="translate(13,8)"/>
</svg>
