<?xml version="1.0" encoding="UTF-8"?>
<svg version="1.1" xmlns="http://www.w3.org/2000/svg" width="28" height="28">
<path d="M0,0 L28,0 L28,28 L0,28 Z " fill="#020202" transform="translate(0,0)"/>
<path d="M0,0 L3,0 L6,6 L8,9 L7,15 L3,19 L-4,20 L-7,16 L-7,9 L-1,1 Z " fill="#090909" transform="translate(14,4)"/>
<path d="M0,0 L3,0 L6,6 L8,9 L7,15 L3,19 L-4,20 L-7,16 L-7,9 L-1,1 Z M-1,4 L-5,9 L-5,15 L-3,18 L2,17 L6,13 L5,8 L1,4 Z " fill="#D0D0D0" transform="translate(14,4)"/>
<path d="M0,0 L1,2 L3,2 L7,8 L6,13 L4,9 L-1,2 Z " fill="#E9E9E9" transform="translate(15,5)"/>
</svg>
