<?xml version="1.0" encoding="UTF-8"?>
<svg version="1.1" xmlns="http://www.w3.org/2000/svg" width="28" height="28">
<path d="M0,0 L28,0 L28,28 L0,28 Z " fill="#020202" transform="translate(0,0)"/>
<path d="M0,0 L4,1 L9,6 L11,9 L11,16 L7,19 L-1,20 L-5,15 L-6,13 L-6,6 Z " fill="#EDEDED" transform="translate(12,4)"/>
<path d="M0,0 L6,1 L8,6 L8,11 L5,13 L0,13 L-2,10 L-1,1 Z " fill="#0C0C0C" transform="translate(11,8)"/>
<path d="M0,0 L3,1 L1,2 L2,4 L-1,5 L-2,14 L-1,16 L3,18 L4,20 L-1,20 L-5,15 L-6,13 L-6,6 Z " fill="#E0E0E0" transform="translate(12,4)"/>
<path d="M0,0 L3,1 L1,2 L2,4 L-1,5 L-3,9 L-4,7 L-5,13 L-6,13 L-6,6 Z " fill="#CACACA" transform="translate(12,4)"/>
</svg>
