<?xml version="1.0" encoding="UTF-8"?>
<svg version="1.1" xmlns="http://www.w3.org/2000/svg" width="28" height="28">
<path d="M0,0 L28,0 L28,28 L0,28 Z " fill="#020202" transform="translate(0,0)"/>
<path d="M0,0 L6,0 L10,2 L11,5 L11,13 L9,18 L6,20 L-1,19 L-6,14 L-5,6 Z " fill="#090909" transform="translate(11,5)"/>
<path d="M0,0 L6,0 L10,2 L11,5 L11,13 L9,18 L6,20 L-1,19 L-6,14 L-5,6 Z M2,3 L-3,6 L-3,14 L1,17 L6,17 L9,14 L9,4 L5,3 Z " fill="#CACACA" transform="translate(11,5)"/>
<path d="M0,0 L5,1 L7,2 L8,5 L8,13 L7,15 L5,14 L5,4 L-3,3 Z " fill="#E6E6E6" transform="translate(14,5)"/>
</svg>
