<?xml version="1.0" encoding="UTF-8"?>
<svg version="1.1" xmlns="http://www.w3.org/2000/svg" width="28" height="28">
<path d="M0,0 L28,0 L28,28 L0,28 Z " fill="#020202" transform="translate(0,0)"/>
<path d="M0,0 L6,1 L10,6 L10,13 L8,18 L4,20 L-3,20 L-6,19 L-8,15 L-7,7 Z " fill="#050505" transform="translate(13,4)"/>
<path d="M0,0 L6,1 L10,6 L10,13 L8,18 L4,20 L-3,20 L-6,19 L-8,15 L-7,7 Z M2,2 L-4,7 L-5,9 L-5,16 L-4,17 L5,17 L8,13 L7,5 L6,3 Z " fill="#DFDFDF" transform="translate(13,4)"/>
<path d="M0,0 L2,1 L1,5 L-2,6 L-9,5 L-9,4 L-2,3 Z " fill="#BCBCBC" transform="translate(20,17)"/>
<path d="M0,0 L2,2 L0,10 L-1,10 L-2,2 Z " fill="#C3C3C3" transform="translate(8,9)"/>
</svg>
