<?xml version="1.0" encoding="UTF-8"?>
<svg version="1.1" xmlns="http://www.w3.org/2000/svg" width="28" height="28">
<path d="M0,0 L28,0 L28,28 L0,28 Z " fill="#020202" transform="translate(0,0)"/>
<path d="M0,0 L7,1 L10,5 L10,13 L5,19 L3,20 L-3,20 L-6,17 L-6,9 L-2,1 Z " fill="#090909" transform="translate(13,4)"/>
<path d="M0,0 L1,3 L-3,10 L-2,17 L4,16 L7,13 L7,5 L3,2 L3,0 L8,2 L10,5 L10,13 L5,19 L3,20 L-3,20 L-6,17 L-6,9 L-2,1 Z " fill="#DADADA" transform="translate(13,4)"/>
<path d="M0,0 L5,2 L7,7 L5,11 L3,4 L0,2 Z " fill="#BDBDBD" transform="translate(16,4)"/>
</svg>
