<?xml version="1.0" encoding="UTF-8"?>
<svg version="1.1" xmlns="http://www.w3.org/2000/svg" width="28" height="28">
<path d="M0,0 L28,0 L28,28 L0,28 Z " fill="#020202" transform="translate(0,0)"/>
<path d="M0,0 L2,0 L2,10 L-2,16 L-9,20 L-14,20 L-15,15 L-12,10 L-4,3 Z " fill="#EEEEEE" transform="translate(20,3)"/>
<path d="M0,0 L2,0 L3,4 L0,9 L-5,12 L-10,12 L-7,7 L-2,2 Z " fill="#161616" transform="translate(17,8)"/>
<path d="M0,0 L2,0 L1,4 L-4,9 L-8,10 L-6,6 Z " fill="#D2D2D2" transform="translate(14,7)"/>
</svg>
