<?xml version="1.0" encoding="UTF-8"?>
<svg version="1.1" xmlns="http://www.w3.org/2000/svg" width="28" height="28">
<path d="M0,0 L28,0 L28,28 L0,28 Z " fill="#030303" transform="translate(0,0)"/>
<path d="M0,0 L6,0 L9,3 L10,9 L7,13 L2,16 L-7,17 L-10,15 L-10,9 L-5,3 Z " fill="#0D0D0D" transform="translate(15,6)"/>
<path d="M0,0 L6,0 L9,3 L10,9 L7,13 L2,16 L-7,17 L-10,15 L-10,9 L-5,3 Z M4,1 L-3,5 L-8,11 L-6,15 L1,14 L7,9 L6,2 Z " fill="#E1E1E1" transform="translate(15,6)"/>
<path d="M0,0 L1,2 L3,3 L0,7 L-5,7 L-1,3 Z " fill="#CBCBCB" transform="translate(22,12)"/>
</svg>
