<?xml version="1.0" encoding="UTF-8"?>
<svg version="1.1" xmlns="http://www.w3.org/2000/svg" width="28" height="28">
<path d="M0,0 L28,0 L28,28 L0,28 Z " fill="#010101" transform="translate(0,0)"/>
<path d="M0,0 L6,0 L9,3 L10,11 L7,16 L1,20 L-5,19 L-6,12 L-1,1 Z " fill="#DDDDDD" transform="translate(13,5)"/>
<path d="M0,0 L3,1 L3,3 L5,3 L6,0 L7,2 L7,9 L3,14 L-3,14 L-3,8 Z " fill="#020202" transform="translate(13,8)"/>
<path d="M0,0 L5,1 L5,3 L3,3 L3,6 L1,6 L-2,2 Z " fill="#EFEFEF" transform="translate(15,5)"/>
</svg>
