<?xml version="1.0" encoding="UTF-8"?>
<svg version="1.1" xmlns="http://www.w3.org/2000/svg" width="28" height="28">
<path d="M0,0 L28,0 L28,28 L0,28 Z " fill="#030303" transform="translate(0,0)"/>
<path d="M0,0 L2,0 L6,8 L6,14 L1,19 L-4,20 L-7,17 L-6,11 L-2,5 L0,5 L-2,10 L-4,17 L3,15 L2,6 Z " fill="#D9D9D9" transform="translate(15,3)"/>
<path d="M0,0 L2,0 L6,8 L6,14 L1,19 L-3,18 L3,15 L2,6 Z " fill="#E0E0E0" transform="translate(15,3)"/>
<path d="M0,0 L2,0 L0,5 L-2,12 L-3,12 L-4,6 Z " fill="#B0B0B0" transform="translate(13,8)"/>
</svg>
