<?xml version="1.0" encoding="UTF-8"?>
<svg version="1.1" xmlns="http://www.w3.org/2000/svg" width="28" height="28">
<path d="M0,0 L28,0 L28,28 L0,28 Z " fill="#020202" transform="translate(0,0)"/>
<path d="M0,0 L2,0 L2,15 L-1,19 L-8,20 L-9,17 L-7,11 L-1,3 Z " fill="#CECECE" transform="translate(17,3)"/>
<path d="M0,0 L1,0 L1,8 L-2,12 L-9,13 L-10,10 L-7,5 L-6,8 L-7,10 L-3,8 Z " fill="#E4E4E4" transform="translate(18,10)"/>
<path d="M0,0 L1,0 L0,9 L-2,11 L-5,11 L-2,2 Z " fill="#131313" transform="translate(16,9)"/>
</svg>
