<?xml version="1.0" encoding="UTF-8"?>
<svg version="1.1" xmlns="http://www.w3.org/2000/svg" width="28" height="28">
<path d="M0,0 L28,0 L28,28 L0,28 Z " fill="#030303" transform="translate(0,0)"/>
<path d="M0,0 L3,0 L4,7 L3,9 L2,10 L3,13 L1,13 L0,17 L-6,20 L-13,20 L-16,18 L-16,14 L-14,14 L-13,10 L-11,10 L-9,6 L-5,2 Z " fill="#E4E4E4" transform="translate(20,3)"/>
<path d="M0,0 L2,0 L1,7 L-3,12 L-6,14 L-11,13 L-10,8 L-6,4 L-4,4 L-4,2 Z " fill="#161616" transform="translate(19,7)"/>
<path d="M0,0 L2,0 L3,6 L1,8 L-1,1 Z " fill="#F5F5F5" transform="translate(21,4)"/>
</svg>
