<?xml version="1.0" encoding="UTF-8"?>
<svg version="1.1" xmlns="http://www.w3.org/2000/svg" width="28" height="28">
<path d="M0,0 L28,0 L28,28 L0,28 Z " fill="#020202" transform="translate(0,0)"/>
<path d="M0,0 L8,5 L11,9 L10,15 L7,19 L4,20 L-3,20 L-7,16 L-7,8 L-4,3 Z " fill="#080808" transform="translate(13,4)"/>
<path d="M0,0 L8,5 L11,9 L10,15 L7,19 L4,20 L-3,20 L-7,16 L-7,8 L-4,3 Z M-2,4 L-5,7 L-6,12 L-3,17 L-2,18 L6,18 L9,13 L8,8 L5,5 Z " fill="#E7E7E7" transform="translate(13,4)"/>
<path d="M0,0 L5,2 L9,7 L8,13 L6,11 L5,6 L0,1 Z " fill="#D1D1D1" transform="translate(15,6)"/>
</svg>
