<?xml version="1.0" encoding="UTF-8"?>
<svg version="1.1" xmlns="http://www.w3.org/2000/svg" width="28" height="28">
<path d="M0,0 L28,0 L28,28 L0,28 Z " fill="#020202" transform="translate(0,0)"/>
<path d="M0,0 L10,1 L16,8 L15,15 L13,17 L3,18 L-3,14 L-4,8 L0,3 L3,3 L3,1 Z " fill="#060606" transform="translate(8,6)"/>
<path d="M0,0 L10,1 L16,8 L15,15 L13,17 L3,18 L-3,14 L-4,8 L0,3 L3,3 L3,1 Z M4,3 L-1,6 L-2,12 L2,16 L11,16 L14,14 L13,7 L9,5 L9,3 Z " fill="#CECECE" transform="translate(8,6)"/>
</svg>
