<?xml version="1.0" encoding="UTF-8"?>
<svg version="1.1" xmlns="http://www.w3.org/2000/svg" width="28" height="28">
<path d="M0,0 L28,0 L28,28 L0,28 Z " fill="#020202" transform="translate(0,0)"/>
<path d="M0,0 L4,1 L7,5 L7,15 L5,19 L-1,20 L-4,16 L-4,7 L-1,1 Z " fill="#EAEAEA" transform="translate(13,4)"/>
<path d="M0,0 L4,2 L4,11 L2,14 L-2,13 L-3,7 Z " fill="#0E0E0E" transform="translate(14,7)"/>
<path d="M0,0 L1,0 L2,5 L4,9 L7,11 L7,13 L2,12 L0,9 Z " fill="#BBBBBB" transform="translate(9,11)"/>
<path d="M0,0 L4,1 L4,4 L-2,4 Z " fill="#D2D2D2" transform="translate(13,4)"/>
</svg>
