<?xml version="1.0" encoding="UTF-8"?>
<svg version="1.1" xmlns="http://www.w3.org/2000/svg" width="28" height="28">
<path d="M0,0 L28,0 L28,28 L0,28 Z " fill="#030303" transform="translate(0,0)"/>
<path d="M0,0 L5,1 L7,3 L7,10 L0,18 L-4,20 L-9,19 L-9,11 L-5,5 Z " fill="#EBEBEB" transform="translate(16,5)"/>
<path d="M0,0 L4,1 L4,6 L-1,12 L-4,14 L-8,14 L-7,7 L-3,2 L0,2 Z " fill="#0A0A0A" transform="translate(17,8)"/>
<path d="M0,0 L2,4 L-2,10 L-7,14 L-8,11 L-3,7 Z " fill="#D1D1D1" transform="translate(21,10)"/>
</svg>
