<?xml version="1.0" encoding="UTF-8"?>
<svg version="1.1" xmlns="http://www.w3.org/2000/svg" width="28" height="28">
<path d="M0,0 L28,0 L28,28 L0,28 Z " fill="#020202" transform="translate(0,0)"/>
<path d="M0,0 L2,0 L2,2 L7,3 L12,7 L12,13 L8,18 L5,20 L-1,20 L-4,17 L-4,8 L-1,1 Z " fill="#0A0A0A" transform="translate(11,4)"/>
<path d="M0,0 L2,0 L2,2 L7,3 L12,7 L12,13 L8,18 L5,20 L-1,20 L-4,17 L-4,8 L-1,1 Z M0,4 L-2,9 L-2,17 L-1,18 L5,18 L11,12 L10,7 L6,4 Z " fill="#D4D4D4" transform="translate(11,4)"/>
</svg>
