<?xml version="1.0" encoding="UTF-8"?>
<svg version="1.1" xmlns="http://www.w3.org/2000/svg" width="28" height="28">
<path d="M0,0 L28,0 L28,28 L0,28 Z " fill="#020202" transform="translate(0,0)"/>
<path d="M0,0 L4,1 L6,4 L5,11 L0,18 L-3,20 L-8,19 L-8,10 L-3,2 Z " fill="#E3E3E3" transform="translate(16,5)"/>
<path d="M0,0 L6,3 L4,7 L1,10 L-2,10 L-2,3 Z " fill="#181818" transform="translate(12,13)"/>
<path d="M0,0 L1,2 L-1,2 L-3,13 L2,10 L5,8 L3,13 L0,15 L-5,14 L-5,5 Z " fill="#EAEAEA" transform="translate(13,10)"/>
<path d="M0,0 L3,2 L3,7 L-1,7 L-2,3 L0,2 Z " fill="#1B1B1B" transform="translate(17,7)"/>
<path d="M0,0 L3,4 L7,5 L5,9 L4,6 L0,5 L-2,2 L0,2 Z " fill="#CACACA" transform="translate(14,10)"/>
</svg>
