<?xml version="1.0" encoding="UTF-8"?>
<svg version="1.1" xmlns="http://www.w3.org/2000/svg" width="28" height="28">
<path d="M0,0 L28,0 L28,28 L0,28 Z " fill="#020202" transform="translate(0,0)"/>
<path d="M0,0 L7,0 L10,4 L10,12 L8,18 L6,20 L1,19 L-3,13 L-3,4 L-1,4 Z " fill="#111111" transform="translate(11,5)"/>
<path d="M0,0 L3,1 L0,8 L0,15 L2,15 L2,17 L6,17 L7,12 L7,4 L4,2 L4,0 L8,1 L10,4 L10,12 L8,18 L6,20 L1,19 L-3,13 L-3,4 L-1,4 Z " fill="#D6D6D6" transform="translate(11,5)"/>
<path d="M0,0 L4,1 L6,4 L6,12 L4,12 L3,4 L0,2 Z " fill="#F0F0F0" transform="translate(15,5)"/>
</svg>
