<?xml version="1.0" encoding="UTF-8"?>
<svg version="1.1" xmlns="http://www.w3.org/2000/svg" width="28" height="28">
<path d="M0,0 L28,0 L28,28 L0,28 Z " fill="#020202" transform="translate(0,0)"/>
<path d="M0,0 L6,1 L7,7 L7,15 L4,19 L1,20 L-6,20 L-10,16 L-11,11 L-8,4 Z " fill="#E3E3E3" transform="translate(16,5)"/>
<path d="M0,0 L6,0 L8,3 L8,10 L5,12 L-1,12 L-4,9 L-3,3 Z " fill="#0A0A0A" transform="translate(12,10)"/>
<path d="M0,0 L1,0 L1,6 L-3,10 L-3,8 L-5,7 L-1,4 Z " fill="#C8C8C8" transform="translate(22,14)"/>
</svg>
