<?xml version="1.0" encoding="UTF-8"?>
<svg version="1.1" xmlns="http://www.w3.org/2000/svg" width="28" height="28">
<path d="M0,0 L28,0 L28,28 L0,28 Z " fill="#060606" transform="translate(0,0)"/>
<path d="M0,0 L6,0 L10,2 L11,4 L11,12 L6,16 L1,18 L-6,18 L-8,16 L-7,8 L-4,2 Z " fill="#F0F0F0" transform="translate(13,6)"/>
<path d="M0,0 L6,0 L9,2 L8,7 L2,10 L-3,10 L-2,5 Z " fill="#0D0D0D" transform="translate(12,11)"/>
<path d="M0,0 L2,1 L1,4 L-4,5 L-3,1 Z " fill="#D8D8D8" transform="translate(18,18)"/>
</svg>
