<?xml version="1.0" encoding="UTF-8"?>
<svg version="1.1" xmlns="http://www.w3.org/2000/svg" width="28" height="28">
<path d="M0,0 L28,0 L28,28 L0,28 Z " fill="#040404" transform="translate(0,0)"/>
<path d="M0,0 L5,1 L7,4 L7,10 L2,15 L-2,16 L-6,12 L-5,3 L-4,1 Z " fill="#030303" transform="translate(15,6)"/>
<path d="M0,0 L2,0 L2,2 L-1,5 L-2,14 L1,17 L7,15 L9,12 L9,6 L7,3 L4,1 L9,1 L9,3 L11,3 L13,8 L12,14 L6,19 L-1,20 L-5,16 L-6,14 L-6,7 L-2,1 Z " fill="#D9D9D9" transform="translate(12,4)"/>
<path d="M0,0 L2,0 L2,2 L-1,5 L-3,14 L-6,14 L-6,7 L-2,1 Z " fill="#C4C4C4" transform="translate(12,4)"/>
</svg>
