<?xml version="1.0" encoding="UTF-8"?>
<svg version="1.1" xmlns="http://www.w3.org/2000/svg" width="28" height="28">
<path d="M0,0 L28,0 L28,28 L0,28 Z " fill="#020202" transform="translate(0,0)"/>
<path d="M0,0 L9,2 L11,4 L10,11 L5,15 L-2,18 L-7,18 L-9,15 L-8,10 L-1,1 Z " fill="#EAEAEA" transform="translate(13,6)"/>
<path d="M0,0 L6,1 L5,7 L-2,10 L-8,10 L-7,4 L-4,4 L-3,1 Z " fill="#0D0D0D" transform="translate(15,11)"/>
<path d="M0,0 L2,0 L2,2 L-2,4 L-9,3 L-9,2 Z " fill="#D3D3D3" transform="translate(16,19)"/>
</svg>
