<?xml version="1.0" encoding="UTF-8"?>
<svg version="1.1" xmlns="http://www.w3.org/2000/svg" width="28" height="28">
<path d="M0,0 L28,0 L28,28 L0,28 Z " fill="#030303" transform="translate(0,0)"/>
<path d="M0,0 L8,0 L14,4 L13,12 L11,12 L11,14 L7,17 L-2,18 L-5,16 L-6,10 L-4,5 L0,2 Z " fill="#080808" transform="translate(11,5)"/>
<path d="M0,0 L7,0 L13,4 L12,12 L10,12 L10,14 L6,17 L-3,18 L-6,16 L-7,10 L-5,5 L-1,3 L-3,8 L-4,12 L-3,15 L5,14 L9,11 L10,6 L8,3 L1,2 Z " fill="#D2D2D2" transform="translate(12,5)"/>
<path d="M0,0 L2,0 L0,5 L-1,9 L0,12 L6,13 L4,15 L-1,14 L-3,13 L-4,7 L-2,2 Z " fill="#E4E4E4" transform="translate(9,8)"/>
<path d="M0,0 L2,1 L2,4 L0,4 L0,6 L-4,9 L-8,8 L-5,6 L-1,3 Z " fill="#B9B9B9" transform="translate(22,13)"/>
</svg>
