<?xml version="1.0" encoding="UTF-8"?>
<svg version="1.1" xmlns="http://www.w3.org/2000/svg" width="28" height="28">
<path d="M0,0 L28,0 L28,28 L0,28 Z " fill="#030303" transform="translate(0,0)"/>
<path d="M0,0 L2,0 L2,2 L4,3 L4,15 L-1,20 L-6,20 L-9,17 L-8,9 L-2,1 Z " fill="#E4E4E4" transform="translate(17,4)"/>
<path d="M0,0 L3,4 L2,11 L-1,14 L-6,13 L-3,4 Z " fill="#0E0E0E" transform="translate(17,7)"/>
<path d="M0,0 L1,4 L-1,7 L-2,6 L-4,10 L-3,2 Z " fill="#CBCBCB" transform="translate(12,11)"/>
</svg>
