<?xml version="1.0" encoding="UTF-8"?>
<svg version="1.1" xmlns="http://www.w3.org/2000/svg" width="28" height="28">
<path d="M0,0 L28,0 L28,28 L0,28 Z " fill="#020202" transform="translate(0,0)"/>
<path d="M0,0 L5,1 L11,8 L12,15 L8,20 L-2,20 L-7,15 L-8,7 L-3,1 Z " fill="#DCDCDC" transform="translate(13,5)"/>
<path d="M0,0 L9,1 L12,5 L12,10 L8,13 L1,12 L-2,7 L-2,2 Z " fill="#080808" transform="translate(10,10)"/>
<path d="M0,0 L5,1 L6,5 L0,7 L-1,4 L-3,3 Z " fill="#F4F4F4" transform="translate(13,5)"/>
<path d="M0,0 L1,0 L0,7 L-2,8 L-4,6 L-2,3 L0,3 Z " fill="#C1C1C1" transform="translate(24,15)"/>
</svg>
