<?xml version="1.0" encoding="UTF-8"?>
<svg version="1.1" xmlns="http://www.w3.org/2000/svg" width="28" height="28">
<path d="M0,0 L28,0 L28,28 L0,28 Z " fill="#020202" transform="translate(0,0)"/>
<path d="M0,0 L4,1 L5,2 L5,14 L0,19 L-4,20 L-7,18 L-7,10 Z " fill="#111111" transform="translate(15,4)"/>
<path d="M0,0 L4,1 L5,2 L5,14 L0,19 L-4,20 L-7,18 L-7,10 Z M0,3 L-5,12 L-5,17 L-1,17 L4,13 L4,3 Z " fill="#CDCDCD" transform="translate(15,4)"/>
<path d="M0,0 L1,0 L1,11 L-4,16 L-8,17 L-11,15 L-11,10 L-8,14 L-3,12 L-1,10 Z " fill="#E5E5E5" transform="translate(19,7)"/>
</svg>
