<?xml version="1.0" encoding="UTF-8"?>
<svg version="1.1" xmlns="http://www.w3.org/2000/svg" width="28" height="28">
<path d="M0,0 L28,0 L28,28 L0,28 Z " fill="#020202" transform="translate(0,0)"/>
<path d="M0,0 L4,1 L4,4 L9,5 L13,9 L14,14 L9,19 L7,20 L0,20 L-5,17 L-6,15 L-6,6 L-1,1 Z " fill="#B4B4B4" transform="translate(11,4)"/>
<path d="M0,0 L2,1 L3,6 L8,5 L10,8 L9,14 L7,15 L-1,15 L-4,12 L-4,5 Z " fill="#060606" transform="translate(12,6)"/>
<path d="M0,0 L5,1 L9,5 L10,10 L5,15 L-1,16 L-3,14 L6,12 L6,6 L5,4 L0,4 Z " fill="#E4E4E4" transform="translate(15,8)"/>
<path d="M0,0 L4,1 L4,4 L1,3 L-3,8 L-4,13 L-5,13 L-5,5 Z " fill="#E8E8E8" transform="translate(11,4)"/>
</svg>
