<?xml version="1.0" encoding="UTF-8"?>
<svg version="1.1" xmlns="http://www.w3.org/2000/svg" width="28" height="28">
<path d="M0,0 L28,0 L28,28 L0,28 Z " fill="#030303" transform="translate(0,0)"/>
<path d="M0,0 L4,0 L4,3 L8,4 L9,5 L8,12 L3,18 L0,20 L-6,20 L-7,19 L-7,10 L-2,2 Z " fill="#DFDFDF" transform="translate(14,5)"/>
<path d="M0,0 L5,0 L4,7 L-1,11 L-6,11 L-4,3 Z " fill="#090909" transform="translate(15,11)"/>
<path d="M0,0 L1,2 L3,3 L0,6 L-5,7 L-4,3 Z " fill="#EEEEEE" transform="translate(13,8)"/>
</svg>
