<?xml version="1.0" encoding="UTF-8"?>
<svg version="1.1" xmlns="http://www.w3.org/2000/svg" width="28" height="28">
<path d="M0,0 L28,0 L28,28 L0,28 Z " fill="#030303" transform="translate(0,0)"/>
<path d="M0,0 L5,0 L12,8 L11,14 L6,17 L2,18 L-5,18 L-8,15 L-7,8 L-2,4 Z " fill="#0C0C0C" transform="translate(13,5)"/>
<path d="M0,0 L5,0 L12,8 L11,14 L6,17 L2,18 L-5,18 L-8,15 L-7,8 L-2,4 Z M4,3 L3,6 L-1,5 L-5,10 L-5,15 L-4,16 L6,15 L10,12 L9,6 L6,3 Z " fill="#E2E2E2" transform="translate(13,5)"/>
</svg>
