<?xml version="1.0" encoding="UTF-8"?>
<svg version="1.1" xmlns="http://www.w3.org/2000/svg" width="28" height="28">
<path d="M0,0 L28,0 L28,28 L0,28 Z " fill="#050505" transform="translate(0,0)"/>
<path d="M0,0 L2,0 L2,2 L8,3 L12,6 L11,12 L9,16 L4,19 L0,18 L2,15 L7,14 L8,6 L2,6 L-1,7 L-4,14 L-5,19 L-8,18 L-7,11 L-5,6 Z " fill="#E7E7E7" transform="translate(13,5)"/>
<path d="M0,0 L2,0 L2,2 L0,2 L1,7 L-1,7 L-4,14 L-5,19 L-8,18 L-7,11 L-5,6 Z " fill="#F1F1F1" transform="translate(13,5)"/>
<path d="M0,0 L6,0 L11,4 L1,4 Z " fill="#C6C6C6" transform="translate(13,7)"/>
</svg>
