<?xml version="1.0" encoding="UTF-8"?>
<svg version="1.1" xmlns="http://www.w3.org/2000/svg" width="28" height="28">
<path d="M0,0 L28,0 L28,28 L0,28 Z " fill="#020202" transform="translate(0,0)"/>
<path d="M0,0 L3,0 L6,7 L6,15 L1,20 L-4,19 L-6,16 L-6,6 Z " fill="#0B0B0B" transform="translate(15,4)"/>
<path d="M0,0 L3,0 L6,7 L6,15 L1,20 L-4,19 L-6,16 L-6,6 Z M0,2 L-5,10 L-5,15 L-2,18 L2,17 L4,15 L4,6 L2,2 Z " fill="#D0D0D0" transform="translate(15,4)"/>
<path d="M0,0 L1,3 L1,8 L5,11 L5,13 L0,11 L-1,9 L-1,1 Z " fill="#F3F3F3" transform="translate(10,11)"/>
</svg>
