<?xml version="1.0" encoding="UTF-8"?>
<svg version="1.1" xmlns="http://www.w3.org/2000/svg" width="28" height="28">
<path d="M0,0 L28,0 L28,28 L0,28 Z " fill="#030303" transform="translate(0,0)"/>
<path d="M0,0 L5,1 L5,3 L9,5 L13,13 L10,18 L5,20 L-1,20 L-5,18 L-7,14 L-6,7 L-3,2 Z " fill="#090909" transform="translate(12,4)"/>
<path d="M0,0 L5,1 L5,3 L9,5 L13,13 L10,18 L5,20 L-1,20 L-5,18 L-7,14 L-6,7 L-3,2 Z M0,3 L-4,8 L-4,14 L-2,17 L6,17 L10,15 L9,10 L4,4 Z " fill="#E3E3E3" transform="translate(12,4)"/>
</svg>
