<?xml version="1.0" encoding="UTF-8"?>
<svg version="1.1" xmlns="http://www.w3.org/2000/svg" width="28" height="28">
<path d="M0,0 L28,0 L28,28 L0,28 Z " fill="#030303" transform="translate(0,0)"/>
<path d="M0,0 L6,0 L7,2 L7,9 L3,16 L-3,18 L-9,18 L-12,16 L-13,9 L-3,1 Z " fill="#DCDCDC" transform="translate(17,5)"/>
<path d="M0,0 L3,0 L3,7 L-2,12 L-3,13 L-10,13 L-11,9 L-6,4 Z " fill="#0C0C0C" transform="translate(18,7)"/>
<path d="M0,0 L1,0 L2,5 L11,5 L10,8 L8,9 L2,9 L-1,7 L-2,2 Z " fill="#F3F3F3" transform="translate(6,14)"/>
</svg>
