<?xml version="1.0" encoding="UTF-8"?>
<svg version="1.1" xmlns="http://www.w3.org/2000/svg" width="28" height="28">
<path d="M0,0 L28,0 L28,28 L0,28 Z " fill="#020202" transform="translate(0,0)"/>
<path d="M0,0 L6,2 L11,8 L11,15 L7,19 L-1,20 L-6,16 L-7,14 L-7,7 L-2,1 Z " fill="#080808" transform="translate(13,4)"/>
<path d="M0,0 L6,3 L10,8 L10,15 L6,19 L-2,20 L-7,16 L-8,14 L-8,7 L-3,1 L-1,2 L-1,5 L-4,6 L-5,8 L-5,14 L-1,17 L6,16 L7,15 L7,7 L3,5 L0,2 Z " fill="#DDDDDD" transform="translate(14,4)"/>
</svg>
