<?xml version="1.0" encoding="UTF-8"?>
<svg version="1.1" xmlns="http://www.w3.org/2000/svg" width="28" height="28">
<path d="M0,0 L28,0 L28,28 L0,28 Z " fill="#030303" transform="translate(0,0)"/>
<path d="M0,0 L2,0 L1,13 L-2,18 L-6,20 L-15,19 L-17,17 L-16,12 L-8,5 Z " fill="#F0F0F0" transform="translate(21,3)"/>
<path d="M0,0 L3,0 L3,6 L-1,10 L-7,10 L-9,9 L-7,5 Z " fill="#151515" transform="translate(16,10)"/>
<path d="M0,0 L2,1 L2,4 L-3,6 L-7,9 L-9,12 L-8,7 Z " fill="#CECECE" transform="translate(13,8)"/>
</svg>
