<?xml version="1.0" encoding="UTF-8"?>
<svg version="1.1" xmlns="http://www.w3.org/2000/svg" width="28" height="28">
<path d="M0,0 L28,0 L28,28 L0,28 Z " fill="#020202" transform="translate(0,0)"/>
<path d="M0,0 L3,0 L2,4 L0,4 L2,7 L1,16 L-4,20 L-12,20 L-16,16 L-15,12 L-10,7 L-3,1 Z " fill="#E3E3E3" transform="translate(20,4)"/>
<path d="M0,0 L2,0 L3,7 L-1,11 L-7,11 L-8,7 Z " fill="#070707" transform="translate(16,10)"/>
<path d="M0,0 L3,0 L2,4 L0,7 L-1,5 L-3,7 L-2,3 Z " fill="#C8C8C8" transform="translate(7,13)"/>
</svg>
