<?xml version="1.0" encoding="UTF-8"?>
<svg version="1.1" xmlns="http://www.w3.org/2000/svg" width="28" height="28">
<path d="M0,0 L28,0 L28,28 L0,28 Z " fill="#030303" transform="translate(0,0)"/>
<path d="M0,0 L4,1 L6,6 L6,15 L1,20 L-6,19 L-8,17 L-8,10 L-5,5 Z " fill="#E2E2E2" transform="translate(15,4)"/>
<path d="M0,0 L2,0 L2,6 L-3,11 L-10,10 L-12,8 L-12,3 L-10,2 L-10,7 L-3,5 Z " fill="#EBEBEB" transform="translate(19,13)"/>
<path d="M0,0 L3,0 L3,8 L-1,11 L-5,11 L-4,4 Z " fill="#040404" transform="translate(15,9)"/>
</svg>
