<?xml version="1.0" encoding="UTF-8"?>
<svg version="1.1" xmlns="http://www.w3.org/2000/svg" width="28" height="28">
<path d="M0,0 L28,0 L28,28 L0,28 Z " fill="#030303" transform="translate(0,0)"/>
<path d="M0,0 L3,0 L3,3 L6,3 L7,5 L7,13 L3,19 L2,20 L-5,19 L-6,13 L-4,6 L-1,1 Z " fill="#CDCDCD" transform="translate(14,4)"/>
<path d="M0,0 L1,2 L6,1 L6,9 L2,14 L-2,14 L-2,4 Z " fill="#0A0A0A" transform="translate(13,8)"/>
<path d="M0,0 L1,0 L1,8 L-3,14 L-4,15 L-11,14 L-12,8 L-10,5 L-9,13 L-4,11 L-1,6 Z " fill="#ECECEC" transform="translate(20,9)"/>
</svg>
