<?xml version="1.0" encoding="UTF-8"?>
<svg version="1.1" xmlns="http://www.w3.org/2000/svg" width="28" height="28">
<path d="M0,0 L28,0 L28,28 L0,28 Z " fill="#020202" transform="translate(0,0)"/>
<path d="M0,0 L6,1 L8,4 L8,13 L3,18 L-2,20 L-9,19 L-9,13 L-5,7 Z " fill="#E4E4E4" transform="translate(15,4)"/>
<path d="M0,0 L1,0 L1,5 L-5,9 L-13,10 L-14,9 L-14,4 L-12,3 L-12,5 L-3,3 Z " fill="#EFEFEF" transform="translate(21,14)"/>
<path d="M0,0 L3,1 L2,7 L0,10 L-8,11 L-8,8 L-6,8 L-4,4 L-3,2 L0,2 Z " fill="#0F0F0F" transform="translate(18,8)"/>
</svg>
