<?xml version="1.0" encoding="UTF-8"?>
<svg version="1.1" xmlns="http://www.w3.org/2000/svg" width="28" height="28">
<path d="M0,0 L28,0 L28,28 L0,28 Z " fill="#020202" transform="translate(0,0)"/>
<path d="M0,0 L11,0 L12,5 L9,8 L7,8 L5,12 L-2,18 L-7,18 L-8,17 L-7,7 L-2,1 Z " fill="#E2E2E2" transform="translate(13,7)"/>
<path d="M0,0 L2,1 L-1,2 L-1,4 L2,2 L5,3 L3,8 L0,11 L-5,12 L-4,3 Z " fill="#131313" transform="translate(13,10)"/>
<path d="M0,0 L11,0 L12,5 L7,9 L4,9 L4,7 L6,7 L5,3 L9,2 L0,2 Z " fill="#E5E5E5" transform="translate(13,7)"/>
<path d="M0,0 L5,0 L5,3 L2,3 L2,6 L-2,5 L-5,6 L-5,4 Z " fill="#838383" transform="translate(17,8)"/>
<path d="M0,0 L1,4 L5,3 L6,6 L-1,7 Z " fill="#B3B3B3" transform="translate(7,18)"/>
</svg>
