<?xml version="1.0" encoding="UTF-8"?>
<svg version="1.1" xmlns="http://www.w3.org/2000/svg" width="28" height="28">
<path d="M0,0 L28,0 L28,28 L0,28 Z " fill="#030303" transform="translate(0,0)"/>
<path d="M0,0 L4,1 L9,7 L8,14 L4,18 L0,20 L-7,20 L-9,18 L-8,11 L-5,4 Z " fill="#070707" transform="translate(14,4)"/>
<path d="M0,0 L4,1 L9,7 L8,14 L4,18 L0,20 L-7,20 L-9,18 L-8,11 L-5,4 Z M-2,3 L-5,8 L-6,17 L-1,18 L5,15 L6,8 L2,3 Z " fill="#DCDCDC" transform="translate(14,4)"/>
<path d="M0,0 L2,0 L2,13 L-2,11 L-1,4 Z " fill="#C6C6C6" transform="translate(7,11)"/>
</svg>
