<?xml version="1.0" encoding="UTF-8"?>
<svg version="1.1" xmlns="http://www.w3.org/2000/svg" width="28" height="28">
<path d="M0,0 L28,0 L28,28 L0,28 Z " fill="#020202" transform="translate(0,0)"/>
<path d="M0,0 L5,0 L4,8 L0,14 L-6,20 L-12,20 L-13,17 L-10,8 L-4,1 Z " fill="#D9D9D9" transform="translate(19,5)"/>
<path d="M0,0 L3,0 L1,7 L-4,14 L-6,14 L-6,16 L-10,16 L-9,10 L-5,3 Z " fill="#0B0B0B" transform="translate(19,7)"/>
<path d="M0,0 L5,0 L4,8 L1,8 L3,2 L0,1 Z " fill="#BFBFBF" transform="translate(19,5)"/>
<path d="M0,0 L5,0 L1,4 L-3,3 Z " fill="#E9E9E9" transform="translate(15,6)"/>
</svg>
