<?xml version="1.0" encoding="UTF-8"?>
<svg version="1.1" xmlns="http://www.w3.org/2000/svg" width="28" height="28">
<path d="M0,0 L28,0 L28,28 L0,28 Z " fill="#010101" transform="translate(0,0)"/>
<path d="M0,0 L6,0 L9,5 L9,15 L7,18 L4,18 L4,20 L-1,19 L-3,17 L-3,5 Z " fill="#CDCDCD" transform="translate(12,4)"/>
<path d="M0,0 L3,0 L5,4 L4,10 L2,13 L-1,13 L-2,9 L-1,1 Z " fill="#080808" transform="translate(14,7)"/>
<path d="M0,0 L1,0 L2,11 L5,10 L8,7 L9,11 L8,13 L5,13 L5,15 L0,14 L-1,13 L-1,1 Z " fill="#E7E7E7" transform="translate(11,9)"/>
</svg>
