<?xml version="1.0" encoding="UTF-8"?>
<svg version="1.1" xmlns="http://www.w3.org/2000/svg" width="28" height="28">
<path d="M0,0 L28,0 L28,28 L0,28 Z " fill="#010101" transform="translate(0,0)"/>
<path d="M0,0 L4,0 L3,8 L-1,16 L-7,20 L-12,19 L-11,14 L-7,8 L-3,6 L-1,1 Z " fill="#C0C0C0" transform="translate(18,4)"/>
<path d="M0,0 L4,0 L4,5 L2,6 L1,3 L-2,8 L-3,13 L-6,11 L-10,18 L-5,17 L-5,19 L-11,20 L-12,16 L-7,8 L-3,6 L-1,1 Z " fill="#DEDEDE" transform="translate(18,4)"/>
<path d="M0,0 L2,2 L1,6 L-1,8 L-4,8 L-2,3 Z " fill="#191919" transform="translate(12,14)"/>
<path d="M0,0 L1,4 L-2,10 L-3,10 L-3,4 Z " fill="#252525" transform="translate(19,6)"/>
<path d="M0,0 L3,0 L2,4 L1,3 L-1,6 L-3,6 L-1,1 Z " fill="#C2C2C2" transform="translate(11,12)"/>
</svg>
