<?xml version="1.0" encoding="UTF-8"?>
<svg version="1.1" xmlns="http://www.w3.org/2000/svg" width="28" height="28">
<path d="M0,0 L28,0 L28,28 L0,28 Z " fill="#020202" transform="translate(0,0)"/>
<path d="M0,0 L5,0 L7,4 L7,11 L3,16 L1,16 L1,18 L-3,20 L-9,20 L-9,12 L-3,2 Z " fill="#DDDDDD" transform="translate(15,4)"/>
<path d="M0,0 L2,0 L2,6 L-2,12 L-5,15 L-10,16 L-9,11 L-4,2 Z " fill="#161616" transform="translate(18,6)"/>
<path d="M0,0 L1,2 L0,5 L5,4 L4,7 L-2,7 L-1,1 Z " fill="#F2F2F2" transform="translate(8,17)"/>
</svg>
