<?xml version="1.0" encoding="UTF-8"?>
<svg version="1.1" xmlns="http://www.w3.org/2000/svg" width="28" height="28">
<path d="M0,0 L28,0 L28,28 L0,28 Z " fill="#030303" transform="translate(0,0)"/>
<path d="M0,0 L8,0 L14,6 L14,11 L10,15 L8,15 L7,18 L3,20 L-3,19 L-6,15 L-5,6 L-1,3 Z " fill="#E2E2E2" transform="translate(11,5)"/>
<path d="M0,0 L6,1 L8,4 L8,9 L4,14 L1,16 L-4,15 L-5,14 L-5,7 L-3,4 L2,4 L2,2 L0,2 Z " fill="#090909" transform="translate(13,7)"/>
<path d="M0,0 L8,0 L10,3 L8,4 L0,1 Z " fill="#BFBFBF" transform="translate(11,5)"/>
</svg>
