<?xml version="1.0" encoding="UTF-8"?>
<svg version="1.1" xmlns="http://www.w3.org/2000/svg" width="28" height="28">
<path d="M0,0 L28,0 L28,28 L0,28 Z " fill="#030303" transform="translate(0,0)"/>
<path d="M0,0 L3,0 L4,5 L4,13 L-2,20 L-7,20 L-10,18 L-10,11 L-4,3 Z " fill="#DFDFDF" transform="translate(17,4)"/>
<path d="M0,0 L1,2 L3,2 L3,8 L-2,13 L-6,13 L-7,8 L-2,1 Z " fill="#080808" transform="translate(16,8)"/>
<path d="M0,0 L2,0 L3,9 L1,10 L-1,1 Z " fill="#FFFFFF" transform="translate(18,5)"/>
</svg>
