<?xml version="1.0" encoding="UTF-8"?>
<svg version="1.1" xmlns="http://www.w3.org/2000/svg" width="28" height="28">
<path d="M0,0 L28,0 L28,28 L0,28 Z " fill="#030303" transform="translate(0,0)"/>
<path d="M0,0 L2,0 L2,2 L4,2 L5,4 L5,13 L0,19 L-7,20 L-9,18 L-9,10 L-5,4 Z " fill="#E9E9E9" transform="translate(16,4)"/>
<path d="M0,0 L4,2 L4,8 L0,14 L-5,15 L-6,14 L-6,7 Z " fill="#090909" transform="translate(15,7)"/>
<path d="M0,0 L1,0 L2,7 L-3,13 L-6,14 L-6,11 L-2,7 Z " fill="#D0D0D0" transform="translate(19,10)"/>
</svg>
