<?xml version="1.0" encoding="UTF-8"?>
<svg version="1.1" xmlns="http://www.w3.org/2000/svg" width="28" height="28">
<path d="M0,0 L28,0 L28,28 L0,28 Z " fill="#020202" transform="translate(0,0)"/>
<path d="M0,0 L4,2 L9,5 L10,7 L10,14 L6,18 L2,20 L-3,19 L-7,15 L-8,13 L-8,6 L-4,1 Z " fill="#070707" transform="translate(14,5)"/>
<path d="M0,0 L4,2 L9,5 L10,7 L10,14 L6,18 L2,20 L-3,19 L-7,15 L-8,13 L-8,6 L-4,1 Z M-3,3 L-6,6 L-6,13 L-2,18 L4,17 L8,13 L8,7 L4,4 L-1,4 Z " fill="#DADADA" transform="translate(14,5)"/>
</svg>
