<?xml version="1.0" encoding="UTF-8"?>
<svg version="1.1" xmlns="http://www.w3.org/2000/svg" width="28" height="28">
<path d="M0,0 L28,0 L28,28 L0,28 Z " fill="#020202" transform="translate(0,0)"/>
<path d="M0,0 L4,1 L5,7 L3,10 L1,10 L1,12 L-5,16 L-15,17 L-15,12 L-10,7 L-6,6 L-6,4 Z " fill="#D9D9D9" transform="translate(20,5)"/>
<path d="M0,0 L4,0 L4,2 L2,2 L2,4 L-5,9 L-1,10 L-1,12 L-3,13 L-9,13 L-9,8 L-4,3 L0,2 Z " fill="#E5E5E5" transform="translate(14,9)"/>
<path d="M0,0 L1,3 L-1,6 L-4,6 L-4,8 L-13,10 L-8,5 L-5,4 L-5,2 Z " fill="#161616" transform="translate(21,9)"/>
</svg>
