<?xml version="1.0" encoding="UTF-8"?>
<svg version="1.1" xmlns="http://www.w3.org/2000/svg" width="28" height="28">
<path d="M0,0 L28,0 L28,28 L0,28 Z " fill="#020202" transform="translate(0,0)"/>
<path d="M0,0 L2,2 L-5,11 L-6,13 L-3,13 L-3,11 L1,10 L-1,14 L-7,18 L-12,17 L-11,12 L-4,4 L-2,4 L-2,2 L0,2 Z " fill="#E9E9E9" transform="translate(18,5)"/>
<path d="M0,0 L3,4 L3,9 L1,12 L-1,12 L-2,14 L-2,12 L-6,13 L-6,15 L-9,15 L-7,10 L-2,4 L-2,2 L0,2 Z " fill="#BBBBBB" transform="translate(21,3)"/>
<path d="M0,0 L1,0 L1,5 L-1,5 L-2,8 L-4,8 L-4,10 L-7,10 L-5,5 Z " fill="#181818" transform="translate(19,8)"/>
</svg>
