<?xml version="1.0" encoding="UTF-8"?>
<svg version="1.1" xmlns="http://www.w3.org/2000/svg" width="28" height="28">
<path d="M0,0 L28,0 L28,28 L0,28 Z " fill="#030303" transform="translate(0,0)"/>
<path d="M0,0 L4,0 L4,3 L2,3 L1,8 L-3,13 L-6,13 L-6,15 L-15,16 L-16,13 L-10,6 L-3,1 Z " fill="#DEDEDE" transform="translate(21,6)"/>
<path d="M0,0 L4,0 L4,3 L2,3 L1,8 L-3,13 L-10,14 L-6,10 L-1,6 L-5,4 L-3,1 Z " fill="#E9E9E9" transform="translate(21,6)"/>
<path d="M0,0 L3,1 L-3,6 L-8,7 L-4,2 Z " fill="#0E0E0E" transform="translate(18,11)"/>
</svg>
