<?xml version="1.0" encoding="UTF-8"?>
<svg version="1.1" xmlns="http://www.w3.org/2000/svg" width="28" height="28">
<path d="M0,0 L28,0 L28,28 L0,28 Z " fill="#020202" transform="translate(0,0)"/>
<path d="M0,0 L3,0 L5,8 L0,13 L-5,17 L-8,17 L-8,19 L-14,20 L-14,15 L-2,1 Z " fill="#E0E0E0" transform="translate(19,4)"/>
<path d="M0,0 L3,1 L-2,6 L-6,7 L-6,9 L-12,10 L-12,5 L-8,2 L-6,3 L-3,2 Z " fill="#F1F1F1" transform="translate(17,14)"/>
<path d="M0,0 L3,1 L2,4 L-3,7 L-5,6 L-3,2 L0,2 Z " fill="#232323" transform="translate(17,10)"/>
</svg>
