<?xml version="1.0" encoding="UTF-8"?>
<svg version="1.1" xmlns="http://www.w3.org/2000/svg" width="28" height="28">
<path d="M0,0 L28,0 L28,28 L0,28 Z " fill="#020202" transform="translate(0,0)"/>
<path d="M0,0 L5,0 L9,9 L9,16 L5,20 L1,20 L1,18 L-4,17 L-5,16 L-5,5 L-3,2 L0,2 Z " fill="#DEDEDE" transform="translate(13,5)"/>
<path d="M0,0 L4,1 L6,3 L6,9 L5,11 L-2,10 L-2,2 Z " fill="#080808" transform="translate(13,10)"/>
<path d="M0,0 L1,3 L0,4 L-1,11 L-3,9 L-2,2 Z " fill="#F6F6F6" transform="translate(11,9)"/>
<path d="M0,0 L1,0 L1,7 L3,8 L0,10 L-2,8 L-1,5 Z " fill="#A8A8A8" transform="translate(10,13)"/>
</svg>
