<?xml version="1.0" encoding="UTF-8"?>
<svg version="1.1" xmlns="http://www.w3.org/2000/svg" width="28" height="28">
<path d="M0,0 L28,0 L28,28 L0,28 Z " fill="#020202" transform="translate(0,0)"/>
<path d="M0,0 L5,2 L6,4 L6,11 L3,18 L0,20 L-5,20 L-8,17 L-9,10 L-3,3 Z " fill="#070707" transform="translate(15,4)"/>
<path d="M0,0 L5,2 L6,4 L6,11 L3,18 L0,20 L-5,20 L-8,17 L-9,10 L-3,3 Z M0,3 L-5,7 L-7,13 L-4,18 L2,17 L5,7 L3,6 L2,3 Z " fill="#D4D4D4" transform="translate(15,4)"/>
<path d="M0,0 L5,2 L4,6 L0,4 L-4,7 L-6,6 L-1,2 Z " fill="#E1E1E1" transform="translate(15,4)"/>
<path d="M0,0 L2,0 L1,6 L3,11 L-1,10 L-2,3 Z " fill="#BCBCBC" transform="translate(8,11)"/>
</svg>
