<?xml version="1.0" encoding="UTF-8"?>
<svg version="1.1" xmlns="http://www.w3.org/2000/svg" width="28" height="28">
<path d="M0,0 L28,0 L28,28 L0,28 Z " fill="#020202" transform="translate(0,0)"/>
<path d="M0,0 L7,0 L10,3 L10,10 L5,14 L-1,16 L-8,16 L-10,14 L-9,7 L-4,1 Z " fill="#CFCFCF" transform="translate(14,6)"/>
<path d="M0,0 L5,0 L8,1 L8,7 L3,10 L-3,11 L-5,10 L-4,4 Z " fill="#0B0B0B" transform="translate(12,9)"/>
<path d="M0,0 L3,1 L-2,7 L-3,11 L8,11 L7,13 L3,14 L-4,14 L-6,12 L-5,5 Z " fill="#ECECEC" transform="translate(10,8)"/>
</svg>
