<?xml version="1.0" encoding="UTF-8"?>
<svg version="1.1" xmlns="http://www.w3.org/2000/svg" width="28" height="28">
<path d="M0,0 L28,0 L28,28 L0,28 Z " fill="#040404" transform="translate(0,0)"/>
<path d="M0,0 L5,0 L8,4 L9,12 L7,17 L1,20 L-8,19 L-9,14 L-5,7 L-1,5 Z " fill="#ECECEC" transform="translate(13,4)"/>
<path d="M0,0 L3,2 L3,9 L-2,14 L-7,14 L-8,9 L-7,6 L-5,6 L-5,4 Z " fill="#060606" transform="translate(15,8)"/>
<path d="M0,0 L2,2 L1,6 L-2,7 L-2,9 L-5,8 L-2,4 L0,4 Z " fill="#B6B6B6" transform="translate(12,5)"/>
</svg>
