<?xml version="1.0" encoding="UTF-8"?>
<svg version="1.1" xmlns="http://www.w3.org/2000/svg" width="28" height="28">
<path d="M0,0 L28,0 L28,28 L0,28 Z " fill="#030303" transform="translate(0,0)"/>
<path d="M0,0 L10,0 L11,1 L11,9 L7,14 L4,16 L-6,16 L-8,15 L-9,7 L-5,3 Z " fill="#E6E6E6" transform="translate(13,6)"/>
<path d="M0,0 L2,1 L0,10 L-7,13 L-11,12 L-12,11 L-12,6 L-7,2 Z " fill="#0A0A0A" transform="translate(19,7)"/>
<path d="M0,0 L6,1 L6,2 L-3,5 L-5,6 L-7,4 Z " fill="#CFCFCF" transform="translate(13,6)"/>
<path d="M0,0 L2,0 L2,8 L-2,7 L-2,2 Z " fill="#F5F5F5" transform="translate(6,11)"/>
</svg>
