<?xml version="1.0" encoding="UTF-8"?>
<svg version="1.1" xmlns="http://www.w3.org/2000/svg" width="28" height="28">
<path d="M0,0 L28,0 L28,28 L0,28 Z " fill="#010101" transform="translate(0,0)"/>
<path d="M0,0 L2,0 L2,2 L7,3 L9,5 L9,11 L3,19 L-2,20 L-3,19 L-3,12 Z " fill="#DCDCDC" transform="translate(12,4)"/>
<path d="M0,0 L4,1 L3,8 L-2,14 L-4,14 L-4,6 L-1,1 Z " fill="#101010" transform="translate(15,8)"/>
<path d="M0,0 L1,0 L1,6 L-3,11 L-3,7 Z " fill="#B2B2B2" transform="translate(20,9)"/>
</svg>
