<?xml version="1.0" encoding="UTF-8"?>
<svg version="1.1" xmlns="http://www.w3.org/2000/svg" width="28" height="28">
<path d="M0,0 L28,0 L28,28 L0,28 Z " fill="#030303" transform="translate(0,0)"/>
<path d="M0,0 L3,0 L3,3 L7,4 L11,9 L10,15 L5,19 L-6,19 L-9,16 L-9,9 L-3,2 Z " fill="#EDEDED" transform="translate(14,4)"/>
<path d="M0,0 L6,1 L9,5 L8,10 L6,12 L-1,13 L-5,11 L-5,6 Z " fill="#0B0B0B" transform="translate(13,8)"/>
<path d="M0,0 L2,1 L0,5 L-3,6 L-4,8 L-6,7 Z " fill="#CCCCCC" transform="translate(11,6)"/>
</svg>
