<?xml version="1.0" encoding="UTF-8"?>
<svg version="1.1" xmlns="http://www.w3.org/2000/svg" width="28" height="28">
<path d="M0,0 L28,0 L28,28 L0,28 Z " fill="#020202" transform="translate(0,0)"/>
<path d="M0,0 L5,0 L7,3 L7,16 L4,20 L-2,19 L-4,17 L-4,7 L-1,1 Z " fill="#131313" transform="translate(13,5)"/>
<path d="M0,0 L5,0 L7,3 L7,16 L4,20 L-2,19 L-4,17 L-4,7 L-1,1 Z M1,2 L-1,4 L-2,14 L0,18 L5,17 L6,13 L6,6 L4,2 Z " fill="#D2D2D2" transform="translate(13,5)"/>
<path d="M0,0 L2,0 L3,2 L3,15 L2,15 L1,5 Z " fill="#F2F2F2" transform="translate(17,6)"/>
</svg>
