<?xml version="1.0" encoding="UTF-8"?>
<svg version="1.1" xmlns="http://www.w3.org/2000/svg" width="28" height="28">
<path d="M0,0 L28,0 L28,28 L0,28 Z " fill="#020202" transform="translate(0,0)"/>
<path d="M0,0 L5,0 L6,2 L6,8 L-2,15 L-8,18 L-14,18 L-13,12 L-6,4 Z " fill="#D9D9D9" transform="translate(18,6)"/>
<path d="M0,0 L5,0 L6,2 L6,8 L4,10 L1,9 L4,4 L-3,7 L-6,11 L-10,10 L-2,1 Z " fill="#ECECEC" transform="translate(18,6)"/>
<path d="M0,0 L4,0 L2,5 L-6,11 L-11,12 L-10,8 L-7,7 L-2,1 Z " fill="#1A1A1A" transform="translate(18,10)"/>
</svg>
