<?xml version="1.0" encoding="UTF-8"?>
<svg version="1.1" xmlns="http://www.w3.org/2000/svg" width="28" height="28">
<path d="M0,0 L28,0 L28,28 L0,28 Z " fill="#030303" transform="translate(0,0)"/>
<path d="M0,0 L6,0 L12,5 L12,11 L5,19 L0,20 L-2,18 L-2,2 Z " fill="#0D0D0D" transform="translate(11,5)"/>
<path d="M0,0 L6,0 L12,5 L12,11 L5,19 L0,20 L-2,18 L-2,2 Z M1,2 L-1,5 L-1,17 L3,18 L8,14 L10,11 L10,5 L8,5 L8,3 Z " fill="#E9E9E9" transform="translate(11,5)"/>
<path d="M0,0 L6,0 L12,5 L12,11 L10,10 L10,5 L8,5 L8,3 L-2,3 Z " fill="#CECECE" transform="translate(11,5)"/>
</svg>
