<?xml version="1.0" encoding="UTF-8"?>
<svg version="1.1" xmlns="http://www.w3.org/2000/svg" width="28" height="28">
<path d="M0,0 L28,0 L28,28 L0,28 Z " fill="#010101" transform="translate(0,0)"/>
<path d="M0,0 L7,1 L10,8 L10,15 L8,19 L6,20 L-1,20 L-4,17 L-5,11 L-4,3 Z " fill="#090909" transform="translate(13,5)"/>
<path d="M0,0 L7,1 L10,8 L10,15 L8,19 L6,20 L-1,20 L-4,17 L-5,11 L-4,3 Z M1,2 L-2,6 L-3,16 L-1,18 L6,18 L9,14 L8,6 L6,2 Z " fill="#CACACA" transform="translate(13,5)"/>
<path d="M0,0 L5,0 L0,4 L-2,10 L-3,10 L-3,2 Z " fill="#EBEBEB" transform="translate(13,5)"/>
</svg>
