<?xml version="1.0" encoding="UTF-8"?>
<svg version="1.1" xmlns="http://www.w3.org/2000/svg" width="28" height="28">
<path d="M0,0 L28,0 L28,28 L0,28 Z " fill="#020202" transform="translate(0,0)"/>
<path d="M0,0 L5,1 L6,2 L6,9 L3,15 L-2,19 L-4,20 L-10,20 L-12,17 L-11,12 L-1,2 Z " fill="#E5E5E5" transform="translate(17,4)"/>
<path d="M0,0 L1,0 L1,9 L-3,13 L-11,14 L-10,10 L-5,4 Z " fill="#101010" transform="translate(19,7)"/>
<path d="M0,0 L1,0 L1,7 L-2,13 L-7,17 L-9,18 L-15,18 L-15,16 L-5,12 L-1,6 Z " fill="#C8C8C8" transform="translate(22,6)"/>
</svg>
