<?xml version="1.0" encoding="UTF-8"?>
<svg version="1.1" xmlns="http://www.w3.org/2000/svg" width="28" height="28">
<path d="M0,0 L28,0 L28,28 L0,28 Z " fill="#020202" transform="translate(0,0)"/>
<path d="M0,0 L6,0 L10,3 L10,9 L5,14 L-6,16 L-10,13 L-9,6 Z " fill="#090909" transform="translate(15,6)"/>
<path d="M0,0 L6,0 L10,3 L10,9 L5,14 L-6,16 L-10,13 L-9,6 Z M1,2 L1,4 L-4,5 L-7,8 L-7,13 L0,13 L7,10 L8,5 L7,3 Z " fill="#D1D1D1" transform="translate(15,6)"/>
<path d="M0,0 L3,0 L3,4 L6,5 L7,7 L2,6 L0,4 Z " fill="#B9B9B9" transform="translate(5,15)"/>
</svg>
