<?xml version="1.0" encoding="UTF-8"?>
<svg version="1.1" xmlns="http://www.w3.org/2000/svg" width="28" height="28">
<path d="M0,0 L28,0 L28,28 L0,28 Z " fill="#030303" transform="translate(0,0)"/>
<path d="M0,0 L6,1 L9,5 L10,8 L10,16 L6,20 L1,19 L-2,15 L-2,2 Z " fill="#060606" transform="translate(11,4)"/>
<path d="M0,0 L6,1 L9,5 L10,8 L10,16 L6,20 L1,19 L-2,15 L-2,2 Z M1,2 L0,3 L0,14 L2,17 L7,16 L8,15 L8,7 L6,3 Z " fill="#CECECE" transform="translate(11,4)"/>
<path d="M0,0 L1,0 L2,7 L-2,11 L-7,10 L-7,8 L-1,6 Z " fill="#BDBDBD" transform="translate(19,13)"/>
<path d="M0,0 L1,0 L3,9 L4,12 L1,12 L0,10 Z " fill="#E7E7E7" transform="translate(9,9)"/>
</svg>
