<?xml version="1.0" encoding="UTF-8"?>
<svg version="1.1" xmlns="http://www.w3.org/2000/svg" width="28" height="28">
<path d="M0,0 L28,0 L28,28 L0,28 Z " fill="#020202" transform="translate(0,0)"/>
<path d="M0,0 L6,1 L12,6 L12,13 L7,19 L-1,20 L-4,18 L-4,11 L0,1 Z " fill="#090909" transform="translate(11,4)"/>
<path d="M0,0 L6,1 L12,6 L12,13 L7,19 L-1,20 L-4,18 L-4,11 L0,1 Z M2,2 L-3,13 L-2,17 L-1,18 L5,18 L10,14 L11,7 L5,2 Z " fill="#C1C1C1" transform="translate(11,4)"/>
<path d="M0,0 L1,3 L-2,10 L-1,14 L5,15 L4,17 L-3,16 L-4,15 L-4,8 Z " fill="#E0E0E0" transform="translate(11,7)"/>
</svg>
