<?xml version="1.0" encoding="UTF-8"?>
<svg version="1.1" xmlns="http://www.w3.org/2000/svg" width="28" height="28">
<path d="M0,0 L28,0 L28,28 L0,28 Z " fill="#030303" transform="translate(0,0)"/>
<path d="M0,0 L6,1 L7,4 L10,5 L11,11 L8,17 L3,20 L-4,19 L-8,15 L-8,9 L-3,2 Z " fill="#E2E2E2" transform="translate(13,5)"/>
<path d="M0,0 L2,0 L2,3 L0,3 L0,7 L3,3 L6,3 L7,12 L4,14 L-2,14 L-5,12 L-4,4 Z " fill="#0E0E0E" transform="translate(13,8)"/>
<path d="M0,0 L4,1 L1,2 L-3,6 L-3,2 Z " fill="#C8C8C8" transform="translate(13,5)"/>
</svg>
