<?xml version="1.0" encoding="UTF-8"?>
<svg version="1.1" xmlns="http://www.w3.org/2000/svg" width="28" height="28">
<path d="M0,0 L28,0 L28,28 L0,28 Z " fill="#030303" transform="translate(0,0)"/>
<path d="M0,0 L5,1 L9,6 L10,13 L6,18 L0,20 L-5,19 L-6,18 L-6,10 L-4,2 Z " fill="#0C0C0C" transform="translate(13,4)"/>
<path d="M0,0 L5,1 L9,6 L10,13 L6,18 L0,20 L-5,19 L-6,18 L-6,10 L-4,2 Z M0,2 L-2,4 L-2,11 L-2,12 L-4,12 L-4,17 L0,18 L6,15 L8,13 L8,8 L3,2 Z " fill="#E9E9E9" transform="translate(13,4)"/>
<path d="M0,0 L2,1 L2,10 L4,13 L-3,11 L-1,1 Z " fill="#D0D0D0" transform="translate(10,5)"/>
</svg>
