<?xml version="1.0" encoding="UTF-8"?>
<svg version="1.1" xmlns="http://www.w3.org/2000/svg" width="28" height="28">
<path d="M0,0 L28,0 L28,28 L0,28 Z " fill="#030303" transform="translate(0,0)"/>
<path d="M0,0 L4,1 L8,5 L9,8 L9,15 L4,19 L-2,20 L-4,19 L-5,16 L-5,7 L-2,1 Z " fill="#0C0C0C" transform="translate(13,4)"/>
<path d="M0,0 L4,1 L8,5 L9,8 L9,15 L4,19 L-2,20 L-4,19 L-5,16 L-5,7 L-2,1 Z M1,2 L-3,8 L-3,16 L-2,17 L5,16 L8,13 L7,8 L3,2 Z " fill="#E0E0E0" transform="translate(13,4)"/>
</svg>
