<?xml version="1.0" encoding="UTF-8"?>
<svg version="1.1" xmlns="http://www.w3.org/2000/svg" width="28" height="28">
<path d="M0,0 L28,0 L28,28 L0,28 Z " fill="#020202" transform="translate(0,0)"/>
<path d="M0,0 L5,0 L5,2 L11,3 L15,6 L14,11 L9,14 L-1,14 L-4,12 L-5,6 Z " fill="#DFDFDF" transform="translate(10,7)"/>
<path d="M0,0 L3,2 L9,3 L11,7 L7,10 L-1,10 L-4,8 L-3,3 Z " fill="#060606" transform="translate(12,9)"/>
<path d="M0,0 L2,3 L0,3 L-1,10 L1,12 L-3,13 L-5,9 L-4,4 Z " fill="#C7C7C7" transform="translate(10,7)"/>
</svg>
