<?xml version="1.0" encoding="UTF-8"?>
<svg version="1.1" xmlns="http://www.w3.org/2000/svg" width="28" height="28">
<path d="M0,0 L28,0 L28,28 L0,28 Z " fill="#030303" transform="translate(0,0)"/>
<path d="M0,0 L6,0 L9,2 L9,4 L12,5 L12,14 L6,19 L-2,20 L-4,17 L-4,6 L-2,1 Z " fill="#060606" transform="translate(11,4)"/>
<path d="M0,0 L6,0 L9,2 L9,4 L12,5 L12,14 L6,19 L-2,20 L-4,17 L-4,6 L-2,1 Z M0,3 L-2,8 L-2,16 L-1,17 L6,16 L10,12 L9,6 L6,3 Z " fill="#EAEAEA" transform="translate(11,4)"/>
<path d="M0,0 L6,0 L9,2 L9,4 L12,5 L12,7 L9,8 L6,4 L0,3 L-2,15 L-3,15 L-4,6 L-2,1 Z " fill="#DCDCDC" transform="translate(11,4)"/>
<path d="M0,0 L2,4 L0,14 L-1,14 L-2,5 Z " fill="#B7B7B7" transform="translate(9,5)"/>
</svg>
