<?xml version="1.0" encoding="UTF-8"?>
<svg version="1.1" xmlns="http://www.w3.org/2000/svg" width="28" height="28">
<path d="M0,0 L28,0 L28,28 L0,28 Z " fill="#020202" transform="translate(0,0)"/>
<path d="M0,0 L2,0 L1,14 L-2,19 L-10,19 L-12,17 L-12,11 L-10,11 L-8,6 L-3,1 Z " fill="#F0F0F0" transform="translate(19,4)"/>
<path d="M0,0 L1,0 L1,7 L0,11 L-5,12 L-7,8 L-2,1 Z " fill="#191919" transform="translate(17,9)"/>
<path d="M0,0 L1,4 L-5,12 L-7,13 L-9,16 L-9,10 L-7,10 L-5,5 Z " fill="#D8D8D8" transform="translate(16,5)"/>
</svg>
