<?xml version="1.0" encoding="UTF-8"?>
<svg version="1.1" xmlns="http://www.w3.org/2000/svg" width="28" height="28">
<path d="M0,0 L28,0 L28,28 L0,28 Z " fill="#010101" transform="translate(0,0)"/>
<path d="M0,0 L2,0 L2,4 L5,5 L7,9 L7,18 L2,20 L-2,19 L-3,12 L-1,3 Z " fill="#D2D2D2" transform="translate(13,3)"/>
<path d="M0,0 L2,0 L2,4 L5,5 L6,14 L4,10 L1,7 L0,11 L-2,11 L-2,5 Z " fill="#E2E2E2" transform="translate(13,3)"/>
<path d="M0,0 L3,1 L3,8 L-1,9 L-1,2 Z " fill="#0D0D0D" transform="translate(14,10)"/>
</svg>
