<?xml version="1.0" encoding="UTF-8"?>
<svg version="1.1" xmlns="http://www.w3.org/2000/svg" width="28" height="28">
<path d="M0,0 L28,0 L28,28 L0,28 Z " fill="#020202" transform="translate(0,0)"/>
<path d="M0,0 L3,0 L3,2 L9,2 L14,7 L13,11 L4,17 L2,18 L-4,18 L-6,15 L-5,8 Z " fill="#060606" transform="translate(12,6)"/>
<path d="M0,0 L3,0 L3,2 L9,2 L14,7 L13,11 L4,17 L2,18 L-4,18 L-6,15 L-5,8 Z M3,3 L1,6 L-1,4 L-4,10 L-4,15 L-3,16 L3,16 L9,12 L12,9 L11,5 L7,3 Z " fill="#CBCBCB" transform="translate(12,6)"/>
</svg>
