<?xml version="1.0" encoding="UTF-8"?>
<svg version="1.1" xmlns="http://www.w3.org/2000/svg" width="28" height="28">
<path d="M0,0 L28,0 L28,28 L0,28 Z " fill="#020202" transform="translate(0,0)"/>
<path d="M0,0 L3,0 L4,4 L7,6 L8,12 L-3,16 L-10,15 L-12,13 L-12,8 L-3,1 Z " fill="#111111" transform="translate(16,6)"/>
<path d="M0,0 L3,0 L3,2 L-2,2 L-2,4 L-5,4 L-5,6 L-9,9 L-9,13 L-1,13 L5,10 L4,5 L7,6 L8,12 L-3,16 L-10,15 L-12,13 L-12,8 L-3,1 Z " fill="#CCCCCC" transform="translate(16,6)"/>
</svg>
