<?xml version="1.0" encoding="UTF-8"?>
<svg version="1.1" xmlns="http://www.w3.org/2000/svg" width="28" height="28">
<path d="M0,0 L28,0 L28,28 L0,28 Z " fill="#020202" transform="translate(0,0)"/>
<path d="M0,0 L6,2 L9,5 L11,15 L6,20 L1,20 L-3,15 L-3,5 Z " fill="#080808" transform="translate(12,4)"/>
<path d="M0,0 L6,2 L9,5 L11,15 L6,20 L1,20 L-3,15 L-3,5 Z M1,3 L-1,6 L-1,16 L1,18 L7,18 L9,16 L9,9 L5,3 Z " fill="#D9D9D9" transform="translate(12,4)"/>
<path d="M0,0 L6,2 L9,5 L11,15 L9,17 L7,7 L5,4 L0,4 Z " fill="#CCCCCC" transform="translate(12,4)"/>
<path d="M0,0 L2,0 L0,11 L-1,11 L-1,2 Z " fill="#F8F8F8" transform="translate(10,7)"/>
</svg>
