<?xml version="1.0" encoding="UTF-8"?>
<svg version="1.1" xmlns="http://www.w3.org/2000/svg" width="28" height="28">
<path d="M0,0 L28,0 L28,28 L0,28 Z " fill="#040404" transform="translate(0,0)"/>
<path d="M0,0 L2,0 L2,2 L9,3 L10,5 L10,15 L7,19 L-2,20 L-7,17 L-8,10 L-4,3 L-2,3 L-2,1 Z " fill="#0A0A0A" transform="translate(13,4)"/>
<path d="M0,0 L2,0 L2,2 L9,3 L10,5 L10,15 L7,19 L-2,20 L-7,17 L-8,10 L-4,3 L-2,3 L-2,1 Z M-1,4 L-5,9 L-4,16 L-2,17 L5,17 L8,14 L7,5 L6,4 Z " fill="#E3E3E3" transform="translate(13,4)"/>
</svg>
