<?xml version="1.0" encoding="UTF-8"?>
<svg version="1.1" xmlns="http://www.w3.org/2000/svg" width="28" height="28">
<path d="M0,0 L28,0 L28,28 L0,28 Z " fill="#020202" transform="translate(0,0)"/>
<path d="M0,0 L7,1 L8,4 L8,11 L4,17 L0,20 L-5,19 L-8,16 L-9,9 L-8,3 L-7,1 Z " fill="#0D0D0D" transform="translate(15,5)"/>
<path d="M0,0 L7,1 L8,4 L8,11 L4,17 L0,20 L-5,19 L-8,16 L-9,9 L-8,3 L-7,1 Z M0,2 L-3,5 L-2,9 L-4,8 L-6,5 L-7,11 L-4,18 L0,17 L5,12 L6,10 L6,3 L5,2 Z " fill="#D3D3D3" transform="translate(15,5)"/>
<path d="M0,0 L2,0 L1,4 L-4,8 L-9,7 L-8,5 L-4,4 Z " fill="#EDEDED" transform="translate(19,17)"/>
</svg>
