<?xml version="1.0" encoding="UTF-8"?>
<svg version="1.1" xmlns="http://www.w3.org/2000/svg" width="28" height="28">
<path d="M0,0 L28,0 L28,28 L0,28 Z " fill="#020202" transform="translate(0,0)"/>
<path d="M0,0 L6,0 L9,2 L11,7 L11,13 L6,19 L0,20 L-5,15 L-4,6 L-3,2 Z " fill="#E9E9E9" transform="translate(12,5)"/>
<path d="M0,0 L5,1 L7,4 L7,11 L2,16 L-2,14 L-3,7 Z " fill="#111111" transform="translate(13,7)"/>
<path d="M0,0 L4,5 L6,10 L9,11 L3,10 L0,6 Z " fill="#C9C9C9" transform="translate(7,14)"/>
</svg>
