<?xml version="1.0" encoding="UTF-8"?>
<svg version="1.1" xmlns="http://www.w3.org/2000/svg" width="28" height="28">
<path d="M0,0 L28,0 L28,28 L0,28 Z " fill="#020202" transform="translate(0,0)"/>
<path d="M0,0 L4,0 L6,5 L6,12 L1,17 L-5,20 L-10,19 L-11,18 L-11,13 L-4,4 Z " fill="#E5E5E5" transform="translate(17,4)"/>
<path d="M0,0 L4,0 L5,6 L-1,11 L-7,12 L-6,7 Z " fill="#0A0A0A" transform="translate(16,9)"/>
<path d="M0,0 L2,1 L-1,5 L-4,8 L-7,7 Z " fill="#D5D5D5" transform="translate(17,4)"/>
</svg>
