<?xml version="1.0" encoding="UTF-8"?>
<svg version="1.1" xmlns="http://www.w3.org/2000/svg" width="28" height="28">
<path d="M0,0 L28,0 L28,28 L0,28 Z " fill="#030303" transform="translate(0,0)"/>
<path d="M0,0 L5,1 L4,4 L9,6 L11,8 L11,15 L6,20 L0,20 L-5,16 L-6,8 L-2,2 Z " fill="#0B0B0B" transform="translate(12,4)"/>
<path d="M0,0 L5,1 L1,3 L-3,9 L-2,14 L1,17 L8,17 L8,10 L7,8 L3,6 L3,4 L8,5 L11,8 L11,15 L6,20 L0,20 L-5,16 L-6,8 L-2,2 Z " fill="#E2E2E2" transform="translate(12,4)"/>
<path d="M0,0 L5,1 L8,4 L7,10 L5,6 L4,4 L0,2 Z " fill="#D1D1D1" transform="translate(15,8)"/>
</svg>
