<?xml version="1.0" encoding="UTF-8"?>
<svg version="1.1" xmlns="http://www.w3.org/2000/svg" width="28" height="28">
<path d="M0,0 L28,0 L28,28 L0,28 Z " fill="#030303" transform="translate(0,0)"/>
<path d="M0,0 L2,0 L2,2 L5,3 L5,12 L1,18 L-2,20 L-8,19 L-12,16 L-12,8 L-5,2 Z " fill="#EBEBEB" transform="translate(18,4)"/>
<path d="M0,0 L4,1 L4,8 L3,11 L-4,12 L-5,11 L-5,5 L-4,3 L-1,2 Z " fill="#090909" transform="translate(15,8)"/>
<path d="M0,0 L2,0 L2,2 L5,3 L5,12 L1,18 L-7,17 L-7,16 L0,15 L0,3 L-2,2 Z " fill="#D5D5D5" transform="translate(18,4)"/>
</svg>
