<?xml version="1.0" encoding="UTF-8"?>
<svg version="1.1" xmlns="http://www.w3.org/2000/svg" width="28" height="28">
<path d="M0,0 L28,0 L28,28 L0,28 Z " fill="#010101" transform="translate(0,0)"/>
<path d="M0,0 L7,1 L11,7 L11,13 L7,18 L2,20 L-4,20 L-9,15 L-9,8 L-5,2 Z " fill="#0A0A0A" transform="translate(14,5)"/>
<path d="M0,0 L7,1 L11,7 L11,13 L7,18 L2,20 L-4,20 L-9,15 L-9,8 L-5,2 Z M-3,3 L-3,6 L-7,8 L-7,14 L-5,17 L5,17 L8,15 L9,9 L6,4 L5,3 Z " fill="#DDDDDD" transform="translate(14,5)"/>
<path d="M0,0 L2,2 L10,3 L9,6 L3,6 L0,4 Z " fill="#BFBFBF" transform="translate(7,19)"/>
</svg>
