<?xml version="1.0" encoding="UTF-8"?>
<svg version="1.1" xmlns="http://www.w3.org/2000/svg" width="28" height="28">
<path d="M0,0 L28,0 L28,28 L0,28 Z " fill="#030303" transform="translate(0,0)"/>
<path d="M0,0 L7,0 L10,5 L8,12 L3,17 L-4,20 L-9,20 L-10,14 L-3,3 L-1,3 Z " fill="#E2E2E2" transform="translate(14,4)"/>
<path d="M0,0 L5,1 L6,2 L6,8 L1,12 L-8,13 L-7,8 L-2,2 L0,2 Z " fill="#090909" transform="translate(15,7)"/>
<path d="M0,0 L2,0 L3,2 L8,3 L6,6 L1,6 Z " fill="#F5F5F5" transform="translate(4,18)"/>
<path d="M0,0 L2,3 L-3,9 L-5,13 L-6,9 Z " fill="#CCCCCC" transform="translate(11,7)"/>
</svg>
