<?xml version="1.0" encoding="UTF-8"?>
<svg version="1.1" xmlns="http://www.w3.org/2000/svg" width="28" height="28">
<path d="M0,0 L28,0 L28,28 L0,28 Z " fill="#030303" transform="translate(0,0)"/>
<path d="M0,0 L4,1 L8,8 L8,15 L4,19 L-2,20 L-8,17 L-9,16 L-9,10 L-5,4 Z " fill="#E5E5E5" transform="translate(14,4)"/>
<path d="M0,0 L1,2 L-1,2 L-3,9 L-1,9 L0,4 L2,4 L2,11 L6,7 L5,12 L1,14 L-4,13 L-7,8 L-2,1 Z " fill="#161616" transform="translate(14,7)"/>
<path d="M0,0 L1,3 L-1,6 L-5,7 L-4,3 L-2,3 Z " fill="#515151" transform="translate(19,14)"/>
</svg>
