<?xml version="1.0" encoding="UTF-8"?>
<svg version="1.1" xmlns="http://www.w3.org/2000/svg" width="28" height="28">
<path d="M0,0 L28,0 L28,28 L0,28 Z " fill="#020202" transform="translate(0,0)"/>
<path d="M0,0 L5,0 L8,4 L8,12 L5,17 L0,18 L0,20 L-7,19 L-9,18 L-8,9 L-6,9 L-4,5 L-3,3 L-1,3 Z " fill="#0C0C0C" transform="translate(15,5)"/>
<path d="M0,0 L5,0 L8,4 L8,9 L6,6 L5,4 L1,5 L-5,10 L-7,16 L-2,17 L-2,20 L-9,18 L-8,9 L-6,9 L-4,5 L-3,3 L-1,3 Z " fill="#CDCDCD" transform="translate(15,5)"/>
<path d="M0,0 L2,3 L1,7 L6,8 L6,11 L-1,9 Z " fill="#BCBCBC" transform="translate(7,14)"/>
<path d="M0,0 L4,1 L6,4 L6,9 L4,6 L3,4 L0,3 Z " fill="#E9E9E9" transform="translate(17,5)"/>
<path d="M0,0 L3,1 L-1,4 L-5,5 L-4,2 Z " fill="#BCBCBC" transform="translate(19,19)"/>
</svg>
