<?xml version="1.0" encoding="UTF-8"?>
<svg version="1.1" xmlns="http://www.w3.org/2000/svg" width="28" height="28">
<path d="M0,0 L28,0 L28,28 L0,28 Z " fill="#020202" transform="translate(0,0)"/>
<path d="M0,0 L3,1 L4,3 L4,14 L2,19 L0,20 L-6,20 L-8,17 L-8,10 L-5,5 Z " fill="#D0D0D0" transform="translate(16,4)"/>
<path d="M0,0 L3,1 L0,10 L-1,11 L-6,11 L-7,8 L-4,3 Z " fill="#0A0A0A" transform="translate(16,10)"/>
<path d="M0,0 L3,1 L3,5 L0,5 L0,7 L-5,11 L-7,17 L-8,17 L-8,10 L-5,5 Z " fill="#E7E7E7" transform="translate(16,4)"/>
</svg>
