<?xml version="1.0" encoding="UTF-8"?>
<svg version="1.1" xmlns="http://www.w3.org/2000/svg" width="28" height="28">
<path d="M0,0 L28,0 L28,28 L0,28 Z " fill="#020202" transform="translate(0,0)"/>
<path d="M0,0 L5,0 L8,5 L7,10 L1,17 L-5,20 L-10,19 L-10,12 L-3,3 Z " fill="#EDEDED" transform="translate(16,5)"/>
<path d="M0,0 L2,0 L1,7 L-5,12 L-9,13 L-8,8 L-3,2 Z " fill="#0F0F0F" transform="translate(18,9)"/>
<path d="M0,0 L1,0 L2,8 L-4,13 L-4,9 L-1,5 Z " fill="#D4D4D4" transform="translate(20,9)"/>
</svg>
