<?xml version="1.0" encoding="UTF-8"?>
<svg version="1.1" xmlns="http://www.w3.org/2000/svg" width="28" height="28">
<path d="M0,0 L28,0 L28,28 L0,28 Z " fill="#020202" transform="translate(0,0)"/>
<path d="M0,0 L9,2 L13,8 L12,14 L8,18 L6,19 L-2,19 L-7,14 L-6,6 L-2,1 Z " fill="#E8E8E8" transform="translate(12,5)"/>
<path d="M0,0 L6,1 L9,3 L10,9 L6,13 L-1,13 L-3,12 L-4,7 L-1,1 Z " fill="#0E0E0E" transform="translate(12,9)"/>
<path d="M0,0 L3,1 L-1,5 L-5,6 L-6,4 L-1,2 Z " fill="#BCBCBC" transform="translate(21,18)"/>
</svg>
