<?xml version="1.0" encoding="UTF-8"?>
<svg version="1.1" xmlns="http://www.w3.org/2000/svg" width="28" height="28">
<path d="M0,0 L28,0 L28,28 L0,28 Z " fill="#030303" transform="translate(0,0)"/>
<path d="M0,0 L5,0 L10,6 L10,15 L5,19 L-3,20 L-6,16 L-6,8 L-3,1 Z " fill="#060606" transform="translate(13,4)"/>
<path d="M0,0 L5,0 L10,6 L10,15 L5,19 L-3,20 L-6,16 L-6,8 L-3,1 Z M0,2 L-4,8 L-4,16 L-2,18 L5,17 L8,14 L8,7 L5,2 Z " fill="#E1E1E1" transform="translate(13,4)"/>
<path d="M0,0 L3,1 L4,3 L4,12 L-1,16 L-4,14 L1,11 L1,4 Z " fill="#C8C8C8" transform="translate(19,7)"/>
</svg>
