<?xml version="1.0" encoding="UTF-8"?>
<svg version="1.1" xmlns="http://www.w3.org/2000/svg" width="28" height="28">
<path d="M0,0 L28,0 L28,28 L0,28 Z " fill="#040404" transform="translate(0,0)"/>
<path d="M0,0 L5,0 L10,3 L12,7 L11,14 L7,17 L-4,17 L-7,13 L-6,7 L-2,2 L0,2 Z " fill="#0E0E0E" transform="translate(11,6)"/>
<path d="M0,0 L5,0 L10,3 L12,7 L11,14 L7,17 L-4,17 L-7,13 L-6,7 L-2,2 L0,2 Z M1,3 L-3,7 L-5,12 L-1,16 L6,15 L9,13 L9,7 L5,3 Z " fill="#DADADA" transform="translate(11,6)"/>
<path d="M0,0 L7,1 L10,6 L9,13 L7,15 L3,14 L6,12 L6,6 L3,3 L-1,1 Z " fill="#F2F2F2" transform="translate(13,7)"/>
</svg>
