<?xml version="1.0" encoding="UTF-8"?>
<svg version="1.1" xmlns="http://www.w3.org/2000/svg" width="28" height="28">
<path d="M0,0 L28,0 L28,28 L0,28 Z " fill="#030303" transform="translate(0,0)"/>
<path d="M0,0 L10,0 L12,7 L11,12 L8,17 L2,20 L-5,18 L-7,15 L-7,7 L-4,4 L-2,4 Z " fill="#EFEFEF" transform="translate(12,5)"/>
<path d="M0,0 L6,0 L8,6 L3,12 L-1,14 L-4,13 L-5,6 L-3,3 L-1,3 Z " fill="#0A0A0A" transform="translate(14,8)"/>
<path d="M0,0 L7,0 L8,3 L2,4 L-1,7 L-4,7 L-7,9 L-5,5 L-2,4 Z " fill="#CDCDCD" transform="translate(12,5)"/>
</svg>
