<?xml version="1.0" encoding="UTF-8"?>
<svg version="1.1" xmlns="http://www.w3.org/2000/svg" width="28" height="28">
<path d="M0,0 L28,0 L28,28 L0,28 Z " fill="#030303" transform="translate(0,0)"/>
<path d="M0,0 L4,2 L7,7 L5,16 L2,19 L-6,20 L-7,18 L-7,8 L-6,5 L-4,5 L-2,1 Z " fill="#D7D7D7" transform="translate(15,5)"/>
<path d="M0,0 L3,1 L4,7 L0,13 L-5,14 L-6,13 L-6,5 L-2,1 L-1,2 Z " fill="#0C0C0C" transform="translate(16,9)"/>
<path d="M0,0 L2,1 L1,5 L-3,8 L-4,4 L-2,4 Z " fill="#C2C2C2" transform="translate(13,6)"/>
<path d="M0,0 L4,2 L4,5 L1,4 L0,7 L0,4 L-2,3 Z " fill="#EDEDED" transform="translate(15,5)"/>
</svg>
