<?xml version="1.0" encoding="UTF-8"?>
<svg version="1.1" xmlns="http://www.w3.org/2000/svg" width="28" height="28">
<path d="M0,0 L28,0 L28,28 L0,28 Z " fill="#020202" transform="translate(0,0)"/>
<path d="M0,0 L5,1 L8,4 L9,8 L9,15 L7,15 L6,18 L2,20 L-3,19 L-5,16 L-5,8 L-2,2 Z " fill="#0C0C0C" transform="translate(13,4)"/>
<path d="M0,0 L5,1 L8,4 L9,8 L9,15 L7,15 L6,18 L2,20 L-3,19 L-5,16 L-5,8 L-2,2 Z M0,2 L-3,8 L-3,15 L-1,18 L4,17 L2,16 L2,14 L7,14 L6,5 L4,2 Z " fill="#D4D4D4" transform="translate(13,4)"/>
</svg>
