<?xml version="1.0" encoding="UTF-8"?>
<svg version="1.1" xmlns="http://www.w3.org/2000/svg" width="28" height="28">
<path d="M0,0 L28,0 L28,28 L0,28 Z " fill="#010101" transform="translate(0,0)"/>
<path d="M0,0 L3,0 L5,7 L6,9 L4,9 L3,14 L-1,20 L-7,20 L-9,15 L-7,8 Z " fill="#ECECEC" transform="translate(16,4)"/>
<path d="M0,0 L5,0 L5,5 L1,8 L-2,8 L-1,1 Z " fill="#141414" transform="translate(12,13)"/>
<path d="M0,0 L3,0 L3,5 L1,5 L0,8 L-2,8 L-3,6 L-5,7 L-3,3 Z " fill="#BFBFBF" transform="translate(16,4)"/>
</svg>
