<?xml version="1.0" encoding="UTF-8"?>
<svg version="1.1" xmlns="http://www.w3.org/2000/svg" width="28" height="28">
<path d="M0,0 L28,0 L28,28 L0,28 Z " fill="#040404" transform="translate(0,0)"/>
<path d="M0,0 L4,2 L9,6 L10,8 L10,15 L4,20 L-3,19 L-4,17 L-4,8 L-1,1 Z " fill="#DEDEDE" transform="translate(12,4)"/>
<path d="M0,0 L5,2 L7,6 L6,10 L2,12 L-2,12 L-1,2 Z " fill="#0D0D0D" transform="translate(13,9)"/>
<path d="M0,0 L2,0 L2,7 L-4,12 L-11,11 L-11,8 L-2,7 Z " fill="#F5F5F5" transform="translate(20,12)"/>
</svg>
