<?xml version="1.0" encoding="UTF-8"?>
<svg version="1.1" xmlns="http://www.w3.org/2000/svg" width="28" height="28">
<path d="M0,0 L28,0 L28,28 L0,28 Z " fill="#020202" transform="translate(0,0)"/>
<path d="M0,0 L7,1 L10,5 L10,15 L6,19 L4,20 L-2,20 L-6,17 L-6,10 L-3,5 L-2,1 Z " fill="#0A0A0A" transform="translate(13,5)"/>
<path d="M0,0 L7,1 L10,5 L10,15 L6,19 L4,20 L-2,20 L-6,17 L-6,10 L-3,5 L-2,1 Z M2,2 L-2,7 L-4,10 L-4,16 L-1,18 L5,18 L8,15 L9,13 L9,7 L5,2 Z " fill="#D5D5D5" transform="translate(13,5)"/>
</svg>
