<?xml version="1.0" encoding="UTF-8"?>
<svg version="1.1" xmlns="http://www.w3.org/2000/svg" width="28" height="28">
<path d="M0,0 L28,0 L28,28 L0,28 Z " fill="#030303" transform="translate(0,0)"/>
<path d="M0,0 L4,0 L8,8 L5,15 L-2,19 L-8,20 L-10,19 L-10,11 L-4,3 Z " fill="#E3E3E3" transform="translate(16,4)"/>
<path d="M0,0 L1,2 L6,3 L5,8 L0,12 L-7,13 L-6,7 L-3,3 L-1,3 Z " fill="#0F0F0F" transform="translate(15,8)"/>
<path d="M0,0 L1,2 L-1,8 L-3,7 L-3,2 Z " fill="#F6F6F6" transform="translate(9,13)"/>
</svg>
