<?xml version="1.0" encoding="UTF-8"?>
<svg version="1.1" xmlns="http://www.w3.org/2000/svg" width="28" height="28">
<path d="M0,0 L28,0 L28,28 L0,28 Z " fill="#020202" transform="translate(0,0)"/>
<path d="M0,0 L5,5 L5,15 L2,20 L-3,20 L-4,19 L-4,9 Z " fill="#D2D2D2" transform="translate(14,4)"/>
<path d="M0,0 L2,0 L3,2 L3,9 L1,14 L-2,14 L-3,8 Z " fill="#080808" transform="translate(14,8)"/>
<path d="M0,0 L1,0 L1,10 L-2,15 L-5,13 L-3,12 Z " fill="#A2A2A2" transform="translate(18,9)"/>
<path d="M0,0 L1,0 L3,8 L5,10 L0,9 Z " fill="#E8E8E8" transform="translate(10,14)"/>
</svg>
