<?xml version="1.0" encoding="UTF-8"?>
<svg version="1.1" xmlns="http://www.w3.org/2000/svg" width="28" height="28">
<path d="M0,0 L28,0 L28,28 L0,28 Z " fill="#020202" transform="translate(0,0)"/>
<path d="M0,0 L3,1 L9,1 L15,5 L17,10 L16,16 L11,20 L5,20 L0,15 L-1,12 L-1,1 Z " fill="#060606" transform="translate(7,4)"/>
<path d="M0,0 L3,1 L9,1 L15,5 L17,10 L16,16 L11,20 L5,20 L0,15 L-1,12 L-1,1 Z M1,4 L1,12 L5,17 L11,17 L15,14 L14,7 L10,4 Z " fill="#D5D5D5" transform="translate(7,4)"/>
<path d="M0,0 L3,3 L8,4 L5,5 L5,7 L1,5 L-1,2 Z " fill="#C7C7C7" transform="translate(9,17)"/>
</svg>
