<?xml version="1.0" encoding="UTF-8"?>
<svg version="1.1" xmlns="http://www.w3.org/2000/svg" width="28" height="28">
<path d="M0,0 L28,0 L28,28 L0,28 Z " fill="#020202" transform="translate(0,0)"/>
<path d="M0,0 L2,0 L3,5 L-1,15 L-7,20 L-11,19 L-10,11 L-6,3 Z " fill="#DFDFDF" transform="translate(19,4)"/>
<path d="M0,0 L1,0 L0,7 L-5,13 L-9,14 L-11,13 L-11,8 L-7,5 L-6,8 Z " fill="#EEEEEE" transform="translate(19,10)"/>
<path d="M0,0 L2,0 L1,5 L-4,10 L-2,4 Z " fill="#232323" transform="translate(16,9)"/>
</svg>
