<?xml version="1.0" encoding="UTF-8"?>
<svg version="1.1" xmlns="http://www.w3.org/2000/svg" width="28" height="28">
<path d="M0,0 L28,0 L28,28 L0,28 Z " fill="#040404" transform="translate(0,0)"/>
<path d="M0,0 L6,0 L12,5 L11,14 L1,20 L-3,19 L-4,18 L-4,6 Z " fill="#E9E9E9" transform="translate(11,5)"/>
<path d="M0,0 L3,0 L3,2 L1,2 L1,4 L7,2 L8,3 L8,8 L3,13 L-2,14 L-3,13 L-2,4 Z " fill="#121212" transform="translate(12,8)"/>
<path d="M0,0 L3,1 L0,7 L-3,6 L-1,1 Z " fill="#CDCDCD" transform="translate(11,5)"/>
</svg>
