<?xml version="1.0" encoding="UTF-8"?>
<svg version="1.1" xmlns="http://www.w3.org/2000/svg" width="28" height="28">
<path d="M0,0 L28,0 L28,28 L0,28 Z " fill="#030303" transform="translate(0,0)"/>
<path d="M0,0 L6,1 L11,7 L11,16 L7,20 L0,20 L-5,16 L-5,7 L-3,2 Z " fill="#E7E7E7" transform="translate(12,4)"/>
<path d="M0,0 L3,0 L6,4 L6,11 L2,14 L-4,13 L-4,6 L-3,2 Z " fill="#080808" transform="translate(14,7)"/>
<path d="M0,0 L4,1 L6,6 L4,6 L3,9 L1,3 Z " fill="#CBCBCB" transform="translate(17,7)"/>
</svg>
