<?xml version="1.0" encoding="UTF-8"?>
<svg version="1.1" xmlns="http://www.w3.org/2000/svg" width="28" height="28">
<path d="M0,0 L28,0 L28,28 L0,28 Z " fill="#010101" transform="translate(0,0)"/>
<path d="M0,0 L5,1 L9,7 L10,14 L8,18 L4,20 L-5,19 L-8,16 L-8,9 L-5,6 L-1,6 L-1,1 Z " fill="#0B0B0B" transform="translate(14,3)"/>
<path d="M0,0 L5,1 L9,7 L10,14 L8,18 L4,20 L-5,19 L-8,16 L-8,9 L-5,6 L0,7 L-1,9 L-4,10 L-4,15 L0,17 L5,16 L7,14 L6,9 L3,3 L0,2 L-1,5 Z " fill="#D3D3D3" transform="translate(14,3)"/>
</svg>
