<?xml version="1.0" encoding="UTF-8"?>
<svg version="1.1" xmlns="http://www.w3.org/2000/svg" width="28" height="28">
<path d="M0,0 L28,0 L28,28 L0,28 Z " fill="#030303" transform="translate(0,0)"/>
<path d="M0,0 L7,0 L13,4 L16,8 L16,15 L10,20 L1,20 L-2,19 L-4,15 L-3,2 Z " fill="#EAEAEA" transform="translate(9,4)"/>
<path d="M0,0 L5,2 L9,6 L10,11 L6,15 L-2,15 L-4,12 L-3,5 Z " fill="#060606" transform="translate(12,6)"/>
<path d="M0,0 L6,1 L11,5 L11,7 L8,8 L8,6 L4,4 L0,3 L-2,4 Z " fill="#DBDBDB" transform="translate(12,4)"/>
<path d="M0,0 L6,1 L4,3 L-2,4 Z " fill="#BCBCBC" transform="translate(12,4)"/>
</svg>
