<?xml version="1.0" encoding="UTF-8"?>
<svg version="1.1" xmlns="http://www.w3.org/2000/svg" width="28" height="28">
<path d="M0,0 L28,0 L28,28 L0,28 Z " fill="#010101" transform="translate(0,0)"/>
<path d="M0,0 L6,0 L9,2 L9,12 L3,20 L-2,19 L-4,16 L-4,9 L-1,2 Z " fill="#080808" transform="translate(12,5)"/>
<path d="M0,0 L6,0 L9,2 L9,12 L3,20 L-2,19 L-4,16 L-4,9 L-1,2 Z M1,2 L-1,7 L-1,17 L2,18 L6,14 L7,11 L7,3 L6,2 Z " fill="#D2D2D2" transform="translate(12,5)"/>
<path d="M0,0 L2,3 L3,13 L0,13 L-1,11 L-1,4 Z " fill="#BABABA" transform="translate(9,10)"/>
<path d="M0,0 L1,3 L-3,9 L-8,10 L-8,8 L-3,6 Z " fill="#EDEDED" transform="translate(19,15)"/>
</svg>
