<?xml version="1.0" encoding="UTF-8"?>
<svg version="1.1" xmlns="http://www.w3.org/2000/svg" width="28" height="28">
<path d="M0,0 L28,0 L28,28 L0,28 Z " fill="#020202" transform="translate(0,0)"/>
<path d="M0,0 L4,1 L3,12 L-2,17 L-6,20 L-11,19 L-12,18 L-12,12 L-8,6 L-2,1 Z " fill="#E7E7E7" transform="translate(18,5)"/>
<path d="M0,0 L3,0 L2,7 L-3,12 L-9,13 L-8,7 L-2,2 L0,2 Z " fill="#111111" transform="translate(17,9)"/>
<path d="M0,0 L2,0 L0,5 L-5,8 L-7,6 L-3,4 Z " fill="#B7B7B7" transform="translate(19,15)"/>
</svg>
