<?xml version="1.0" encoding="UTF-8"?>
<svg version="1.1" xmlns="http://www.w3.org/2000/svg" width="28" height="28">
<path d="M0,0 L28,0 L28,28 L0,28 Z " fill="#020202" transform="translate(0,0)"/>
<path d="M0,0 L7,0 L9,3 L8,9 L0,18 L-2,19 L-8,19 L-11,17 L-11,11 L-6,3 Z " fill="#EBEBEB" transform="translate(16,6)"/>
<path d="M0,0 L5,0 L5,5 L-2,12 L-9,13 L-11,12 L-10,7 L-3,1 Z " fill="#0E0E0E" transform="translate(18,9)"/>
<path d="M0,0 L1,2 L-5,9 L-7,10 L-13,10 L-9,9 L-9,7 L-3,3 Z " fill="#BDBDBD" transform="translate(21,15)"/>
</svg>
