<?xml version="1.0" encoding="UTF-8"?>
<svg version="1.1" xmlns="http://www.w3.org/2000/svg" width="28" height="28">
<path d="M0,0 L28,0 L28,28 L0,28 Z " fill="#020202" transform="translate(0,0)"/>
<path d="M0,0 L8,1 L12,6 L11,16 L5,20 L-1,20 L-5,16 L-6,10 L-2,2 Z " fill="#CDCDCD" transform="translate(11,4)"/>
<path d="M0,0 L6,2 L8,5 L8,12 L3,15 L-2,14 L-4,12 L-4,6 Z " fill="#0A0A0A" transform="translate(12,6)"/>
<path d="M0,0 L1,0 L1,8 L-5,12 L-11,12 L-15,8 L-15,3 L-9,8 L-4,7 L-1,6 Z " fill="#ECECEC" transform="translate(21,12)"/>
</svg>
