<?xml version="1.0" encoding="UTF-8"?>
<svg version="1.1" xmlns="http://www.w3.org/2000/svg" width="28" height="28">
<path d="M0,0 L28,0 L28,28 L0,28 Z " fill="#030303" transform="translate(0,0)"/>
<path d="M0,0 L3,0 L4,9 L1,18 L-6,20 L-11,20 L-13,15 L-11,10 L-9,10 L-7,6 L-3,1 Z " fill="#DFDFDF" transform="translate(18,3)"/>
<path d="M0,0 L2,0 L2,7 L0,11 L-4,13 L-9,12 L-8,8 L-7,6 L-5,6 L-3,2 Z " fill="#121212" transform="translate(17,7)"/>
<path d="M0,0 L1,2 L7,2 L10,2 L9,5 L1,6 L-1,1 Z " fill="#F0F0F0" transform="translate(6,17)"/>
<path d="M0,0 L1,0 L2,7 L0,12 L-5,12 L-1,5 Z " fill="#CCCCCC" transform="translate(19,9)"/>
</svg>
