<?xml version="1.0" encoding="UTF-8"?>
<svg version="1.1" xmlns="http://www.w3.org/2000/svg" width="28" height="28">
<path d="M0,0 L28,0 L28,28 L0,28 Z " fill="#020202" transform="translate(0,0)"/>
<path d="M0,0 L5,1 L10,6 L9,15 L4,20 L-3,19 L-8,16 L-9,11 L-3,3 Z " fill="#0B0B0B" transform="translate(14,4)"/>
<path d="M0,0 L5,1 L10,6 L9,15 L4,20 L-3,19 L-8,16 L-9,11 L-3,3 Z M1,3 L-4,7 L-4,9 L-6,9 L-6,14 L1,17 L4,17 L4,15 L6,15 L8,11 L7,6 L3,3 Z " fill="#DEDEDE" transform="translate(14,4)"/>
<path d="M0,0 L4,0 L5,2 L4,11 L1,9 L2,2 L-1,1 Z " fill="#C7C7C7" transform="translate(19,8)"/>
</svg>
