<?xml version="1.0" encoding="UTF-8"?>
<svg version="1.1" xmlns="http://www.w3.org/2000/svg" width="28" height="28">
<path d="M0,0 L28,0 L28,28 L0,28 Z " fill="#040404" transform="translate(0,0)"/>
<path d="M0,0 L7,0 L9,5 L10,6 L9,13 L3,17 L-4,18 L-9,16 L-10,11 L-9,7 L-7,7 L-5,3 Z " fill="#090909" transform="translate(15,5)"/>
<path d="M0,0 L7,0 L5,2 L-4,5 L-6,9 L-5,14 L2,14 L7,10 L6,4 L10,6 L9,13 L3,17 L-4,18 L-9,16 L-10,11 L-9,7 L-7,7 L-5,3 Z " fill="#E3E3E3" transform="translate(15,5)"/>
</svg>
