<?xml version="1.0" encoding="UTF-8"?>
<svg version="1.1" xmlns="http://www.w3.org/2000/svg" width="28" height="28">
<path d="M0,0 L28,0 L28,28 L0,28 Z " fill="#020202" transform="translate(0,0)"/>
<path d="M0,0 L6,1 L7,7 L5,13 L1,17 L-6,18 L-13,16 L-13,8 L-8,3 Z " fill="#D9D9D9" transform="translate(18,5)"/>
<path d="M0,0 L2,0 L1,8 L-3,11 L-10,12 L-14,10 L-13,5 L-10,2 Z " fill="#070707" transform="translate(21,8)"/>
<path d="M0,0 L2,3 L12,5 L9,8 L0,7 L-1,2 Z " fill="#E0E0E0" transform="translate(6,15)"/>
<path d="M0,0 L2,4 L0,8 L-3,11 L-8,9 L-4,7 L-1,5 Z " fill="#B4B4B4" transform="translate(22,11)"/>
<path d="M0,0 L3,1 L1,2 L0,6 L-2,6 L-3,8 L-2,3 Z " fill="#B9B9B9" transform="translate(8,9)"/>
</svg>
