<?xml version="1.0" encoding="UTF-8"?>
<svg version="1.1" xmlns="http://www.w3.org/2000/svg" width="28" height="28">
<path d="M0,0 L28,0 L28,28 L0,28 Z " fill="#020202" transform="translate(0,0)"/>
<path d="M0,0 L3,0 L3,4 L6,5 L5,13 L0,19 L-3,20 L-10,20 L-12,16 L-8,7 L-5,3 Z " fill="#D6D6D6" transform="translate(17,4)"/>
<path d="M0,0 L5,1 L5,7 L1,12 L-7,12 L-6,5 Z " fill="#080808" transform="translate(15,9)"/>
<path d="M0,0 L3,0 L3,4 L5,4 L4,7 L-2,6 L-6,8 L-7,6 L-5,3 Z " fill="#DADADA" transform="translate(17,4)"/>
<path d="M0,0 L1,0 L0,8 L-4,13 L-6,13 L-4,8 L-2,1 Z " fill="#BEBEBE" transform="translate(22,9)"/>
<path d="M0,0 L1,4 L3,4 L2,7 L0,6 L0,4 L-3,3 Z " fill="#FBFBFB" transform="translate(19,4)"/>
</svg>
