<?xml version="1.0" encoding="UTF-8"?>
<svg version="1.1" xmlns="http://www.w3.org/2000/svg" width="28" height="28">
<path d="M0,0 L28,0 L28,28 L0,28 Z " fill="#020202" transform="translate(0,0)"/>
<path d="M0,0 L6,1 L6,3 L10,4 L13,8 L12,14 L6,18 L-3,18 L-6,15 L-7,8 L-3,3 Z " fill="#0E0E0E" transform="translate(12,5)"/>
<path d="M0,0 L6,1 L6,3 L10,4 L13,8 L12,14 L6,18 L-3,18 L-6,15 L-7,8 L-3,3 Z M1,3 L-5,9 L-4,14 L1,17 L2,15 L6,16 L11,11 L9,6 Z " fill="#DBDBDB" transform="translate(12,5)"/>
</svg>
