<?xml version="1.0" encoding="UTF-8"?>
<svg version="1.1" xmlns="http://www.w3.org/2000/svg" width="28" height="28">
<path d="M0,0 L28,0 L28,28 L0,28 Z " fill="#010101" transform="translate(0,0)"/>
<path d="M0,0 L5,1 L6,4 L6,14 L4,19 L2,20 L-6,20 L-8,18 L-7,11 Z " fill="#E2E2E2" transform="translate(15,3)"/>
<path d="M0,0 L3,0 L2,12 L1,13 L-6,13 L-5,7 L-2,2 L0,2 Z " fill="#0C0C0C" transform="translate(16,7)"/>
<path d="M0,0 L5,1 L6,9 L4,7 L4,4 L1,4 L0,6 L-3,6 L-1,2 Z " fill="#C1C1C1" transform="translate(15,3)"/>
</svg>
