<?xml version="1.0" encoding="UTF-8"?>
<svg version="1.1" xmlns="http://www.w3.org/2000/svg" width="28" height="28">
<path d="M0,0 L28,0 L28,28 L0,28 Z " fill="#020202" transform="translate(0,0)"/>
<path d="M0,0 L5,2 L6,3 L5,11 L-1,18 L-6,20 L-11,19 L-14,16 L-14,7 L-12,4 L-7,3 Z " fill="#0B0B0B" transform="translate(19,4)"/>
<path d="M0,0 L5,2 L6,3 L5,11 L-1,18 L-6,20 L-11,19 L-14,16 L-14,7 L-12,4 L-8,5 L-10,5 L-11,14 L-10,17 L-1,14 L3,8 L3,3 L-4,4 L-3,7 L-6,7 L-6,2 Z " fill="#D9D9D9" transform="translate(19,4)"/>
</svg>
