<?xml version="1.0" encoding="UTF-8"?>
<svg version="1.1" xmlns="http://www.w3.org/2000/svg" width="28" height="28">
<path d="M0,0 L28,0 L28,28 L0,28 Z " fill="#020202" transform="translate(0,0)"/>
<path d="M0,0 L6,2 L8,3 L9,10 L7,10 L6,16 L3,19 L-5,19 L-10,17 L-11,12 L-7,6 L-4,5 L-4,2 Z " fill="#080808" transform="translate(15,4)"/>
<path d="M0,0 L6,2 L8,3 L9,10 L7,10 L6,16 L3,19 L-5,19 L-10,17 L-11,12 L-7,6 L-4,5 L-4,2 Z M-1,3 L-3,4 L-3,6 L-5,6 L-9,12 L-9,15 L1,17 L3,16 L3,14 L5,14 L7,7 L3,3 Z " fill="#DADADA" transform="translate(15,4)"/>
</svg>
