<?xml version="1.0" encoding="UTF-8"?>
<svg version="1.1" xmlns="http://www.w3.org/2000/svg" width="28" height="28">
<path d="M0,0 L28,0 L28,28 L0,28 Z " fill="#010101" transform="translate(0,0)"/>
<path d="M0,0 L4,1 L5,2 L5,8 L1,13 L-5,17 L-15,17 L-14,10 L-7,4 Z " fill="#CECECE" transform="translate(19,5)"/>
<path d="M0,0 L5,1 L2,6 L-3,10 L-7,12 L-11,11 L-8,5 Z " fill="#0E0E0E" transform="translate(17,9)"/>
<path d="M0,0 L2,3 L9,3 L9,5 L-1,5 Z " fill="#EBEBEB" transform="translate(5,17)"/>
</svg>
