<?xml version="1.0" encoding="UTF-8"?>
<svg version="1.1" xmlns="http://www.w3.org/2000/svg" width="28" height="28">
<path d="M0,0 L28,0 L28,28 L0,28 Z " fill="#010101" transform="translate(0,0)"/>
<path d="M0,0 L4,0 L2,11 L-5,17 L-9,19 L-14,19 L-16,17 L-15,11 L-9,6 L-1,2 Z " fill="#D0D0D0" transform="translate(20,4)"/>
<path d="M0,0 L2,0 L1,5 L-6,11 L-11,12 L-11,7 Z " fill="#121212" transform="translate(18,9)"/>
<path d="M0,0 L2,2 L7,1 L10,0 L10,3 L6,5 L1,5 L-1,1 Z " fill="#EEEEEE" transform="translate(5,18)"/>
<path d="M0,0 L2,0 L1,7 L-2,8 L-2,2 Z " fill="#F5F5F5" transform="translate(22,5)"/>
</svg>
