<?xml version="1.0" encoding="UTF-8"?>
<svg version="1.1" xmlns="http://www.w3.org/2000/svg" width="28" height="28">
<path d="M0,0 L28,0 L28,28 L0,28 Z " fill="#010101" transform="translate(0,0)"/>
<path d="M0,0 L9,0 L12,5 L11,16 L8,19 L-1,20 L-6,17 L-8,14 L-8,7 Z " fill="#E0E0E0" transform="translate(12,5)"/>
<path d="M0,0 L5,1 L6,9 L4,14 L3,15 L-3,15 L-8,12 L-7,5 Z " fill="#070707" transform="translate(15,7)"/>
<path d="M0,0 L2,1 L2,4 L-3,7 L-5,9 L-6,8 L-8,10 L-7,6 Z " fill="#CACACA" transform="translate(12,5)"/>
</svg>
