<?xml version="1.0" encoding="UTF-8"?>
<svg version="1.1" xmlns="http://www.w3.org/2000/svg" width="28" height="28">
<path d="M0,0 L28,0 L28,28 L0,28 Z " fill="#030303" transform="translate(0,0)"/>
<path d="M0,0 L5,1 L10,4 L12,7 L12,15 L8,19 L2,20 L-3,17 L-5,14 L-5,7 L-1,1 Z " fill="#0A0A0A" transform="translate(11,4)"/>
<path d="M0,0 L5,1 L10,4 L12,7 L12,15 L8,19 L2,20 L-3,17 L-5,14 L-5,7 L-1,1 Z M0,2 L-3,8 L-2,15 L2,18 L7,17 L11,13 L10,8 L8,4 Z " fill="#D5D5D5" transform="translate(11,4)"/>
</svg>
