<?xml version="1.0" encoding="UTF-8"?>
<svg version="1.1" xmlns="http://www.w3.org/2000/svg" width="28" height="28">
<path d="M0,0 L28,0 L28,28 L0,28 Z " fill="#010101" transform="translate(0,0)"/>
<path d="M0,0 L5,1 L4,9 L1,15 L-4,20 L-8,20 L-9,15 L-5,6 Z " fill="#E5E5E5" transform="translate(16,5)"/>
<path d="M0,0 L1,0 L1,5 L-5,11 L-9,11 L-10,6 L-6,3 L-7,8 L-5,8 L-3,4 L-2,1 Z " fill="#EBEBEB" transform="translate(17,14)"/>
<path d="M0,0 L1,3 L-5,13 L-7,13 L-6,7 L-4,7 L-2,2 Z " fill="#303030" transform="translate(17,9)"/>
</svg>
