<?xml version="1.0" encoding="UTF-8"?>
<svg version="1.1" xmlns="http://www.w3.org/2000/svg" width="28" height="28">
<path d="M0,0 L28,0 L28,28 L0,28 Z " fill="#030303" transform="translate(0,0)"/>
<path d="M0,0 L2,0 L2,3 L9,3 L10,10 L8,15 L1,20 L-4,19 L-5,17 L-4,8 L-2,2 L0,2 Z " fill="#E1E1E1" transform="translate(13,4)"/>
<path d="M0,0 L1,0 L2,10 L6,11 L3,14 L-2,13 L-3,11 L-2,2 Z " fill="#F4F4F4" transform="translate(11,10)"/>
<path d="M0,0 L6,2 L5,7 L3,9 L-2,8 L-1,1 Z " fill="#131313" transform="translate(14,10)"/>
</svg>
