<?xml version="1.0" encoding="UTF-8"?>
<svg version="1.1" xmlns="http://www.w3.org/2000/svg" width="28" height="28">
<path d="M0,0 L28,0 L28,28 L0,28 Z " fill="#020202" transform="translate(0,0)"/>
<path d="M0,0 L4,1 L5,2 L6,0 L9,1 L8,10 L4,16 L-2,20 L-7,18 L-7,9 L-3,3 Z " fill="#E4E4E4" transform="translate(14,5)"/>
<path d="M0,0 L4,2 L3,8 L-1,13 L-5,14 L-5,6 Z " fill="#090909" transform="translate(15,8)"/>
<path d="M0,0 L4,1 L5,2 L6,0 L9,1 L9,6 L7,5 L5,8 L5,5 L1,3 L-1,1 Z " fill="#BEBEBE" transform="translate(14,5)"/>
</svg>
