<?xml version="1.0" encoding="UTF-8"?>
<svg version="1.1" xmlns="http://www.w3.org/2000/svg" width="28" height="28">
<path d="M0,0 L28,0 L28,28 L0,28 Z " fill="#020202" transform="translate(0,0)"/>
<path d="M0,0 L4,1 L6,5 L6,13 L1,18 L-1,20 L-6,19 L-7,18 L-6,9 Z " fill="#DEDEDE" transform="translate(15,5)"/>
<path d="M0,0 L3,0 L4,5 L-1,11 L-6,11 L-6,5 L-3,2 Z " fill="#090909" transform="translate(16,11)"/>
<path d="M0,0 L3,1 L2,4 L0,4 L-1,9 L-3,9 L-5,11 L-6,9 Z " fill="#BCBCBC" transform="translate(15,5)"/>
</svg>
