<?xml version="1.0" encoding="UTF-8"?>
<svg version="1.1" xmlns="http://www.w3.org/2000/svg" width="28" height="28">
<path d="M0,0 L28,0 L28,28 L0,28 Z " fill="#010101" transform="translate(0,0)"/>
<path d="M0,0 L6,1 L7,3 L7,11 L2,18 L-2,20 L-8,20 L-10,18 L-9,11 L-5,5 L-2,4 Z " fill="#090909" transform="translate(16,4)"/>
<path d="M0,0 L6,1 L7,3 L7,11 L2,18 L-2,20 L-8,20 L-10,18 L-9,11 L-5,5 L-2,4 Z M0,2 L-7,11 L-8,18 L-2,18 L5,12 L6,10 L6,4 L4,2 Z " fill="#B5B5B5" transform="translate(16,4)"/>
<path d="M0,0 L2,1 L2,9 L-3,16 L-8,17 L-3,12 L0,8 Z " fill="#D8D8D8" transform="translate(21,6)"/>
</svg>
