<?xml version="1.0" encoding="UTF-8"?>
<svg version="1.1" xmlns="http://www.w3.org/2000/svg" width="28" height="28">
<path d="M0,0 L28,0 L28,28 L0,28 Z " fill="#010101" transform="translate(0,0)"/>
<path d="M0,0 L4,1 L5,5 L5,12 L-1,19 L-7,20 L-9,19 L-9,11 L-3,2 Z " fill="#E0E0E0" transform="translate(16,4)"/>
<path d="M0,0 L5,0 L6,5 L2,11 L0,13 L-4,12 L-4,6 Z " fill="#0E0E0E" transform="translate(13,9)"/>
<path d="M0,0 L4,1 L2,5 L-3,6 L-7,13 L-8,19 L-9,19 L-9,11 L-3,2 Z " fill="#C4C4C4" transform="translate(16,4)"/>
</svg>
