<?xml version="1.0" encoding="UTF-8"?>
<svg version="1.1" xmlns="http://www.w3.org/2000/svg" width="28" height="28">
<path d="M0,0 L28,0 L28,28 L0,28 Z " fill="#020202" transform="translate(0,0)"/>
<path d="M0,0 L5,0 L7,4 L6,12 L3,16 L1,16 L0,20 L-9,20 L-8,11 L-2,4 Z " fill="#E3E3E3" transform="translate(15,4)"/>
<path d="M0,0 L1,0 L1,6 L-2,10 L-4,10 L-5,14 L-14,14 L-14,8 L-9,4 L-10,10 L-4,9 L-2,3 L0,3 Z " fill="#E8E8E8" transform="translate(20,10)"/>
<path d="M0,0 L2,0 L1,7 L-3,11 L-7,12 L-8,10 L-4,4 Z " fill="#0F0F0F" transform="translate(17,9)"/>
</svg>
