<?xml version="1.0" encoding="UTF-8"?>
<svg version="1.1" xmlns="http://www.w3.org/2000/svg" width="28" height="28">
<path d="M0,0 L28,0 L28,28 L0,28 Z " fill="#040404" transform="translate(0,0)"/>
<path d="M0,0 L8,0 L12,4 L13,10 L9,14 L-1,18 L-6,17 L-7,16 L-7,10 L-2,2 Z " fill="#E9E9E9" transform="translate(12,5)"/>
<path d="M0,0 L4,1 L6,4 L5,9 L-4,13 L-8,13 L-8,8 L-4,2 Z " fill="#090909" transform="translate(16,7)"/>
<path d="M0,0 L2,3 L1,7 L-2,8 L-3,5 L-1,4 Z " fill="#D1D1D1" transform="translate(22,11)"/>
</svg>
