<?xml version="1.0" encoding="UTF-8"?>
<svg version="1.1" xmlns="http://www.w3.org/2000/svg" width="28" height="28">
<path d="M0,0 L28,0 L28,28 L0,28 Z " fill="#010101" transform="translate(0,0)"/>
<path d="M0,0 L7,1 L10,6 L10,13 L5,19 L-1,20 L-4,18 L-6,13 L-6,6 L-2,1 Z " fill="#D6D6D6" transform="translate(12,5)"/>
<path d="M0,0 L5,1 L6,3 L6,10 L2,14 L-3,13 L-4,5 L-2,1 Z " fill="#0B0B0B" transform="translate(13,8)"/>
<path d="M0,0 L7,1 L9,4 L9,10 L7,11 L5,4 L-3,5 Z " fill="#EEEEEE" transform="translate(12,5)"/>
</svg>
