<?xml version="1.0" encoding="UTF-8"?>
<svg version="1.1" xmlns="http://www.w3.org/2000/svg" width="28" height="28">
<path d="M0,0 L28,0 L28,28 L0,28 Z " fill="#030303" transform="translate(0,0)"/>
<path d="M0,0 L3,0 L3,2 L6,2 L8,5 L8,13 L4,18 L-1,20 L-6,19 L-8,16 L-8,10 L-2,2 Z " fill="#ECECEC" transform="translate(15,4)"/>
<path d="M0,0 L5,2 L6,6 L4,11 L0,14 L-5,13 L-5,8 Z " fill="#080808" transform="translate(15,7)"/>
<path d="M0,0 L5,0 L7,3 L7,11 L2,16 L-1,14 L3,11 L4,5 Z " fill="#D4D4D4" transform="translate(16,6)"/>
</svg>
