<?xml version="1.0" encoding="UTF-8"?>
<svg version="1.1" xmlns="http://www.w3.org/2000/svg" width="28" height="28">
<path d="M0,0 L28,0 L28,28 L0,28 Z " fill="#020202" transform="translate(0,0)"/>
<path d="M0,0 L5,1 L5,9 L3,14 L-4,20 L-9,20 L-12,17 L-12,11 L-10,11 L-8,5 L-5,4 L-2,1 Z " fill="#D5D5D5" transform="translate(17,4)"/>
<path d="M0,0 L2,0 L0,9 L-4,14 L-9,15 L-10,14 L-9,7 Z " fill="#0A0A0A" transform="translate(18,6)"/>
<path d="M0,0 L5,1 L5,8 L3,8 L3,2 L-1,3 Z " fill="#F8F8F8" transform="translate(17,4)"/>
<path d="M0,0 L1,3 L3,4 L1,9 L-2,9 L-2,6 Z " fill="#BFBFBF" transform="translate(19,9)"/>
</svg>
