<?xml version="1.0" encoding="UTF-8"?>
<svg version="1.1" xmlns="http://www.w3.org/2000/svg" width="28" height="28">
<path d="M0,0 L28,0 L28,28 L0,28 Z " fill="#020202" transform="translate(0,0)"/>
<path d="M0,0 L4,1 L5,2 L4,11 L-3,19 L-8,20 L-9,19 L-9,13 L-2,1 Z " fill="#E2E2E2" transform="translate(17,4)"/>
<path d="M0,0 L2,1 L1,8 L-5,15 L-7,15 L-6,8 Z " fill="#0C0C0C" transform="translate(18,6)"/>
<path d="M0,0 L3,1 L-3,12 L-3,17 L-5,17 L-5,14 L-7,14 L-5,9 Z " fill="#CBCBCB" transform="translate(15,5)"/>
</svg>
