<?xml version="1.0" encoding="UTF-8"?>
<svg version="1.1" xmlns="http://www.w3.org/2000/svg" width="28" height="28">
<path d="M0,0 L28,0 L28,28 L0,28 Z " fill="#040404" transform="translate(0,0)"/>
<path d="M0,0 L6,0 L12,3 L13,4 L13,11 L9,15 L6,16 L-3,16 L-7,10 L-7,5 L-5,2 Z " fill="#EFEFEF" transform="translate(11,6)"/>
<path d="M0,0 L5,0 L9,3 L9,8 L6,10 L0,10 L-3,8 L-3,2 Z " fill="#111111" transform="translate(11,9)"/>
<path d="M0,0 Z M-3,1 L0,2 L-1,9 L-3,5 L-5,6 Z " fill="#D9D9D9" transform="translate(9,7)"/>
</svg>
