<?xml version="1.0" encoding="UTF-8"?>
<svg version="1.1" xmlns="http://www.w3.org/2000/svg" width="28" height="28">
<path d="M0,0 L28,0 L28,28 L0,28 Z " fill="#020202" transform="translate(0,0)"/>
<path d="M0,0 L5,1 L7,6 L6,15 L1,20 L-4,19 L-7,15 L-7,8 L-3,2 Z " fill="#E6E6E6" transform="translate(14,4)"/>
<path d="M0,0 L2,0 L3,3 L3,11 L0,14 L-3,13 L-4,9 L-1,2 Z " fill="#0F0F0F" transform="translate(14,7)"/>
<path d="M0,0 L5,1 L6,6 L3,7 L2,3 L0,3 L-3,12 L-4,8 L-6,7 L-3,2 Z " fill="#D4D4D4" transform="translate(14,4)"/>
<path d="M0,0 L2,1 L2,5 L-1,6 L-3,1 Z " fill="#B7B7B7" transform="translate(18,5)"/>
</svg>
