<?xml version="1.0" encoding="UTF-8"?>
<svg version="1.1" xmlns="http://www.w3.org/2000/svg" width="28" height="28">
<path d="M0,0 L28,0 L28,28 L0,28 Z " fill="#040404" transform="translate(0,0)"/>
<path d="M0,0 L4,0 L6,4 L5,12 L2,17 L-2,20 L-9,19 L-10,12 L-6,5 Z " fill="#EDEDED" transform="translate(16,4)"/>
<path d="M0,0 L2,0 L2,8 L-3,13 L-6,13 L-6,7 Z " fill="#0C0C0C" transform="translate(16,8)"/>
<path d="M0,0 L2,0 L2,4 L-3,6 L-5,7 L-3,3 Z " fill="#353535" transform="translate(16,8)"/>
</svg>
