<?xml version="1.0" encoding="UTF-8"?>
<svg version="1.1" xmlns="http://www.w3.org/2000/svg" width="28" height="28">
<path d="M0,0 L28,0 L28,28 L0,28 Z " fill="#020202" transform="translate(0,0)"/>
<path d="M0,0 L5,2 L6,3 L5,10 L1,16 L-4,20 L-8,18 L-7,12 L-4,3 L-2,3 L-2,1 Z " fill="#E0E0E0" transform="translate(16,4)"/>
<path d="M0,0 L1,3 L-1,8 L-1,11 L5,4 L7,7 L1,14 L-3,15 L-5,13 L-4,7 Z " fill="#EBEBEB" transform="translate(13,9)"/>
<path d="M0,0 L3,0 L2,7 L-5,13 L-4,7 Z " fill="#161616" transform="translate(16,8)"/>
<path d="M0,0 L4,2 L0,1 Z M-2,1 L3,3 L-2,7 L-3,6 L-5,9 L-4,3 L-2,3 Z " fill="#C7C7C7" transform="translate(16,4)"/>
</svg>
