<?xml version="1.0" encoding="UTF-8"?>
<svg version="1.1" xmlns="http://www.w3.org/2000/svg" width="28" height="28">
<path d="M0,0 L28,0 L28,28 L0,28 Z " fill="#010101" transform="translate(0,0)"/>
<path d="M0,0 L5,1 L6,3 L6,10 L-1,19 L-5,20 L-6,19 L-6,12 L-3,3 Z " fill="#E0E0E0" transform="translate(15,5)"/>
<path d="M0,0 L4,1 L3,8 L-3,15 L-4,15 L-3,5 Z " fill="#101010" transform="translate(15,8)"/>
<path d="M0,0 L1,2 L0,11 L4,9 L2,13 L-2,14 L-3,13 L-3,6 L-1,1 Z " fill="#F6F6F6" transform="translate(12,11)"/>
</svg>
