<?xml version="1.0" encoding="UTF-8"?>
<svg version="1.1" xmlns="http://www.w3.org/2000/svg" width="28" height="28">
<path d="M0,0 L28,0 L28,28 L0,28 Z " fill="#040404" transform="translate(0,0)"/>
<path d="M0,0 L9,0 L11,1 L12,6 L10,11 L6,12 L6,14 L1,16 L-5,16 L-8,11 L-7,6 L-4,2 L-2,2 L-2,6 L-4,6 L-4,13 L5,10 L9,6 L7,4 L-1,2 Z " fill="#EEEEEE" transform="translate(13,7)"/>
<path d="M0,0 L2,0 L2,4 L0,4 L0,10 L-2,6 L-4,8 L-3,4 Z " fill="#C3C3C3" transform="translate(9,9)"/>
<path d="M0,0 L1,3 L-3,4 L-3,6 L-5,6 L-6,3 Z " fill="#D3D3D3" transform="translate(22,15)"/>
</svg>
