<?xml version="1.0" encoding="UTF-8"?>
<svg version="1.1" xmlns="http://www.w3.org/2000/svg" width="28" height="28">
<path d="M0,0 L28,0 L28,28 L0,28 Z " fill="#030303" transform="translate(0,0)"/>
<path d="M0,0 L4,1 L7,2 L9,5 L9,12 L4,17 L0,20 L-8,19 L-9,17 L-9,10 L-5,4 Z " fill="#0B0B0B" transform="translate(15,4)"/>
<path d="M0,0 L3,0 L3,2 L0,2 L-2,6 L-5,9 L-6,16 L0,16 L4,15 L6,10 L6,6 L2,6 L3,3 L8,4 L9,5 L9,12 L4,17 L0,20 L-8,19 L-9,17 L-9,10 L-5,4 Z " fill="#D8D8D8" transform="translate(15,4)"/>
<path d="M0,0 L2,4 L2,6 L7,6 L6,8 L0,7 L-1,1 Z " fill="#F7F7F7" transform="translate(7,16)"/>
</svg>
