<?xml version="1.0" encoding="UTF-8"?>
<svg version="1.1" xmlns="http://www.w3.org/2000/svg" width="28" height="28">
<path d="M0,0 L28,0 L28,28 L0,28 Z " fill="#030303" transform="translate(0,0)"/>
<path d="M0,0 L8,1 L11,5 L11,11 L6,15 L3,17 L-5,17 L-9,14 L-9,9 L-6,4 L-3,4 L-5,9 L-5,14 L5,12 L8,11 L6,4 L2,4 L2,2 L0,2 Z " fill="#EAEAEA" transform="translate(13,5)"/>
<path d="M0,0 L2,1 L2,3 L-3,6 L-5,6 L-5,4 L-9,3 L-1,1 Z " fill="#C9C9C9" transform="translate(19,16)"/>
<path d="M0,0 L8,1 L6,2 L6,4 L2,4 L2,2 L0,2 Z " fill="#D5D5D5" transform="translate(13,5)"/>
</svg>
