<?xml version="1.0" encoding="UTF-8"?>
<svg version="1.1" xmlns="http://www.w3.org/2000/svg" width="28" height="28">
<path d="M0,0 L28,0 L28,28 L0,28 Z " fill="#040404" transform="translate(0,0)"/>
<path d="M0,0 L6,0 L9,3 L9,12 L7,12 L7,14 L5,14 L5,16 L-1,20 L-6,20 L-9,16 L-8,6 L-6,2 Z " fill="#ECECEC" transform="translate(15,4)"/>
<path d="M0,0 L3,3 L2,8 L-3,13 L-8,13 L-9,8 L-6,2 Z " fill="#090909" transform="translate(18,7)"/>
<path d="M0,0 L2,1 L1,2 L3,4 L-6,7 L-8,8 L-6,2 Z " fill="#C4C4C4" transform="translate(15,4)"/>
</svg>
