<?xml version="1.0" encoding="UTF-8"?>
<svg version="1.1" xmlns="http://www.w3.org/2000/svg" width="28" height="28">
<path d="M0,0 L28,0 L28,28 L0,28 Z " fill="#020202" transform="translate(0,0)"/>
<path d="M0,0 L6,1 L7,3 L7,9 L2,11 L2,13 L-6,16 L-12,15 L-13,13 L-13,6 L-8,1 Z " fill="#E8E8E8" transform="translate(18,7)"/>
<path d="M0,0 L7,0 L8,5 L4,8 L-4,9 L-6,8 L-4,3 Z " fill="#141414" transform="translate(14,10)"/>
<path d="M0,0 L6,1 L7,7 L6,4 L-3,3 L-5,1 Z " fill="#D0D0D0" transform="translate(18,7)"/>
</svg>
