<?xml version="1.0" encoding="UTF-8"?>
<svg version="1.1" xmlns="http://www.w3.org/2000/svg" width="28" height="28">
<path d="M0,0 L28,0 L28,28 L0,28 Z " fill="#030303" transform="translate(0,0)"/>
<path d="M0,0 L7,1 L12,5 L14,8 L14,15 L10,19 L1,20 L-4,16 L-5,8 L-4,4 L-2,4 L-1,15 L3,17 L9,16 L12,13 L10,7 L5,3 L0,2 Z " fill="#E1E1E1" transform="translate(10,3)"/>
<path d="M0,0 L7,1 L12,6 L9,6 L5,3 L0,2 Z " fill="#BABABA" transform="translate(10,3)"/>
<path d="M0,0 L1,0 L2,8 L6,11 L2,12 L0,10 Z " fill="#B3B3B3" transform="translate(7,10)"/>
</svg>
