<?xml version="1.0" encoding="UTF-8"?>
<svg version="1.1" xmlns="http://www.w3.org/2000/svg" width="28" height="28">
<path d="M0,0 L28,0 L28,28 L0,28 Z " fill="#010101" transform="translate(0,0)"/>
<path d="M0,0 L6,0 L10,4 L9,11 L2,19 L0,20 L-6,20 L-10,16 L-9,9 L-6,5 L-4,5 L-3,2 Z " fill="#EAEAEA" transform="translate(14,5)"/>
<path d="M0,0 L4,0 L4,5 L1,7 L-2,7 L-2,2 Z " fill="#1E1E1E" transform="translate(10,14)"/>
<path d="M0,0 L4,0 L2,5 L-2,8 L-2,2 Z " fill="#141414" transform="translate(17,10)"/>
</svg>
