<?xml version="1.0" encoding="UTF-8"?>
<svg version="1.1" xmlns="http://www.w3.org/2000/svg" width="28" height="28">
<path d="M0,0 L28,0 L28,28 L0,28 Z " fill="#030303" transform="translate(0,0)"/>
<path d="M0,0 L6,0 L9,8 L8,14 L3,18 L-2,19 L-9,19 L-11,17 L-10,11 L-6,5 Z " fill="#070707" transform="translate(15,5)"/>
<path d="M0,0 L6,0 L9,8 L8,14 L3,18 L-2,19 L-9,19 L-11,17 L-10,11 L-6,5 Z M3,3 L-2,6 L-7,11 L-8,12 L-8,17 L0,17 L6,14 L7,7 L5,3 Z " fill="#E4E4E4" transform="translate(15,5)"/>
<path d="M0,0 L2,1 L0,3 L0,6 L-2,6 L-5,15 L-8,15 L-7,9 L-3,3 Z " fill="#CCCCCC" transform="translate(12,7)"/>
</svg>
