<?xml version="1.0" encoding="UTF-8"?>
<svg version="1.1" xmlns="http://www.w3.org/2000/svg" width="28" height="28">
<path d="M0,0 L28,0 L28,28 L0,28 Z " fill="#020202" transform="translate(0,0)"/>
<path d="M0,0 L5,0 L7,3 L7,11 L4,17 L-1,20 L-7,20 L-9,18 L-9,11 L-3,2 Z " fill="#ECECEC" transform="translate(15,4)"/>
<path d="M0,0 L6,0 L6,5 L2,10 L-2,12 L-6,11 L-6,7 L-4,7 L-2,3 Z " fill="#131313" transform="translate(14,9)"/>
<path d="M0,0 L1,0 L1,8 L-1,13 L-5,11 L-2,7 L0,7 Z " fill="#CBCBCB" transform="translate(21,7)"/>
</svg>
