<?xml version="1.0" encoding="UTF-8"?>
<svg version="1.1" xmlns="http://www.w3.org/2000/svg" width="28" height="28">
<path d="M0,0 L28,0 L28,28 L0,28 Z " fill="#040404" transform="translate(0,0)"/>
<path d="M0,0 L4,1 L8,6 L7,15 L3,18 L1,18 L1,20 L-5,20 L-9,18 L-9,15 L-11,15 L-11,9 L-9,5 L-7,5 L-6,2 Z " fill="#CDCDCD" transform="translate(16,4)"/>
<path d="M0,0 L5,1 L6,3 L6,10 L4,13 L-2,14 L-6,12 L-6,4 Z " fill="#060606" transform="translate(15,7)"/>
<path d="M0,0 L2,2 L4,1 L5,6 L9,7 L16,6 L16,8 L12,9 L12,11 L6,11 L2,9 L2,6 L0,6 Z " fill="#C2C2C2" transform="translate(5,13)"/>
<path d="M0,0 L0,3 L-2,8 L-4,7 L-3,1 Z " fill="#E7E7E7" transform="translate(10,8)"/>
<path d="M0,0 L2,0 L1,7 L-2,7 Z " fill="#F7F7F7" transform="translate(22,12)"/>
</svg>
