<?xml version="1.0" encoding="UTF-8"?>
<svg version="1.1" xmlns="http://www.w3.org/2000/svg" width="28" height="28">
<path d="M0,0 L28,0 L28,28 L0,28 Z " fill="#010101" transform="translate(0,0)"/>
<path d="M0,0 L4,1 L7,6 L7,14 L4,18 L2,18 L2,20 L-3,20 L-5,16 L-4,7 Z " fill="#E5E5E5" transform="translate(13,4)"/>
<path d="M0,0 L2,1 L2,9 L-2,14 L-4,14 L-3,5 Z " fill="#0A0A0A" transform="translate(15,7)"/>
<path d="M0,0 L1,4 L-1,12 L-4,12 L-3,3 Z " fill="#CBCBCB" transform="translate(12,8)"/>
</svg>
