<?xml version="1.0" encoding="UTF-8"?>
<svg version="1.1" xmlns="http://www.w3.org/2000/svg" width="28" height="28">
<path d="M0,0 L28,0 L28,28 L0,28 Z " fill="#020202" transform="translate(0,0)"/>
<path d="M0,0 L5,1 L6,3 L6,12 L0,17 L-4,18 L-11,18 L-14,16 L-13,10 L-4,2 Z " fill="#EAEAEA" transform="translate(18,5)"/>
<path d="M0,0 L2,0 L4,5 L3,10 L-4,13 L-11,13 L-10,8 L-2,2 L0,2 Z " fill="#121212" transform="translate(18,7)"/>
<path d="M0,0 L2,1 L1,4 L-3,5 L-3,3 L-5,2 Z " fill="#D4D4D4" transform="translate(19,17)"/>
</svg>
