<?xml version="1.0" encoding="UTF-8"?>
<svg version="1.1" xmlns="http://www.w3.org/2000/svg" width="28" height="28">
<path d="M0,0 L28,0 L28,28 L0,28 Z " fill="#030303" transform="translate(0,0)"/>
<path d="M0,0 L8,0 L11,2 L12,7 L8,13 L2,16 L-5,16 L-8,13 L-7,6 L-4,2 Z " fill="#080808" transform="translate(13,7)"/>
<path d="M0,0 L8,0 L11,2 L12,7 L8,13 L2,16 L-5,16 L-8,13 L-7,6 L-4,2 Z M4,2 L-1,3 L-5,6 L-6,12 L-5,14 L2,14 L9,9 L10,5 L8,2 Z " fill="#E4E4E4" transform="translate(13,7)"/>
<path d="M0,0 L4,0 L3,2 L0,4 L-1,12 L6,13 L6,14 L-1,14 L-4,11 L-3,4 Z " fill="#CECECE" transform="translate(9,9)"/>
</svg>
