<?xml version="1.0" encoding="UTF-8"?>
<svg version="1.1" xmlns="http://www.w3.org/2000/svg" width="28" height="28">
<path d="M0,0 L28,0 L28,28 L0,28 Z " fill="#020202" transform="translate(0,0)"/>
<path d="M0,0 L3,0 L3,2 L7,4 L12,10 L12,18 L7,20 L2,19 L-3,16 L-5,13 L-5,4 L-1,2 Z " fill="#F0F0F0" transform="translate(12,4)"/>
<path d="M0,0 L5,0 L11,6 L11,11 L2,10 L0,7 Z " fill="#171717" transform="translate(10,9)"/>
<path d="M0,0 L3,0 L3,2 L7,4 L12,10 L12,18 L9,15 L7,10 L3,6 L0,5 L-1,2 Z " fill="#D9D9D9" transform="translate(12,4)"/>
</svg>
