<?xml version="1.0" encoding="UTF-8"?>
<svg version="1.1" xmlns="http://www.w3.org/2000/svg" width="28" height="28">
<path d="M0,0 L28,0 L28,28 L0,28 Z " fill="#010101" transform="translate(0,0)"/>
<path d="M0,0 L4,0 L6,5 L6,13 L0,20 L-5,19 L-6,18 L-5,8 L-2,1 Z " fill="#E8E8E8" transform="translate(15,5)"/>
<path d="M0,0 L2,1 L2,6 L4,5 L3,10 L1,14 L-3,14 L-3,6 Z " fill="#171717" transform="translate(15,8)"/>
<path d="M0,0 L1,0 L1,8 L-4,14 L-8,12 L-4,12 L-2,6 L-1,6 Z " fill="#C1C1C1" transform="translate(20,10)"/>
<path d="M0,0 L2,4 L5,4 L5,6 L0,5 L-1,1 Z " fill="#FAFAFA" transform="translate(10,19)"/>
</svg>
