<?xml version="1.0" encoding="UTF-8"?>
<svg version="1.1" xmlns="http://www.w3.org/2000/svg" width="28" height="28">
<path d="M0,0 L28,0 L28,28 L0,28 Z " fill="#010101" transform="translate(0,0)"/>
<path d="M0,0 L3,0 L6,6 L6,13 L1,18 L-1,20 L-7,20 L-8,19 L-8,12 L-3,4 Z " fill="#CFCFCF" transform="translate(15,3)"/>
<path d="M0,0 L2,1 L2,9 L-4,14 L-6,14 L-5,7 Z " fill="#090909" transform="translate(16,6)"/>
<path d="M0,0 L3,0 L4,5 L1,4 L-4,11 L-6,11 L-4,5 Z " fill="#EBEBEB" transform="translate(15,3)"/>
</svg>
