<?xml version="1.0" encoding="UTF-8"?>
<svg version="1.1" xmlns="http://www.w3.org/2000/svg" width="28" height="28">
<path d="M0,0 L28,0 L28,28 L0,28 Z " fill="#030303" transform="translate(0,0)"/>
<path d="M0,0 L4,2 L5,4 L5,17 L2,20 L-2,19 L-5,13 L-5,6 L-4,3 L-1,3 Z " fill="#CFCFCF" transform="translate(14,5)"/>
<path d="M0,0 L4,1 L6,0 L6,8 L4,13 L1,13 L-1,8 L-1,1 Z " fill="#0D0D0D" transform="translate(12,10)"/>
<path d="M0,0 L4,2 L5,4 L5,15 L4,15 L3,5 L1,3 L-1,1 Z " fill="#EBEBEB" transform="translate(14,5)"/>
</svg>
