<?xml version="1.0" encoding="UTF-8"?>
<svg version="1.1" xmlns="http://www.w3.org/2000/svg" width="28" height="28">
<path d="M0,0 L28,0 L28,28 L0,28 Z " fill="#020202" transform="translate(0,0)"/>
<path d="M0,0 L6,1 L7,5 L9,8 L9,14 L6,19 L-1,20 L-5,16 L-5,8 L-3,2 Z " fill="#0B0B0B" transform="translate(13,5)"/>
<path d="M0,0 L6,1 L7,5 L9,8 L9,14 L6,19 L-1,20 L-5,16 L-5,8 L-3,2 Z M0,4 L-3,8 L-3,15 L1,18 L5,17 L8,13 L7,7 L4,4 Z " fill="#E0E0E0" transform="translate(13,5)"/>
<path d="M0,0 L1,0 L2,11 L5,14 L2,15 L-1,12 L-1,4 Z " fill="#C5C5C5" transform="translate(9,9)"/>
</svg>
