<?xml version="1.0" encoding="UTF-8"?>
<svg version="1.1" xmlns="http://www.w3.org/2000/svg" width="28" height="28">
<path d="M0,0 L28,0 L28,28 L0,28 Z " fill="#020202" transform="translate(0,0)"/>
<path d="M0,0 L5,0 L8,3 L9,8 L5,16 L-1,20 L-6,20 L-7,19 L-6,10 L-2,2 Z " fill="#F0F0F0" transform="translate(14,5)"/>
<path d="M0,0 L2,0 L1,7 L-3,12 L-8,13 L-7,6 L-3,6 L-2,2 Z " fill="#0E0E0E" transform="translate(18,9)"/>
<path d="M0,0 L3,2 L-1,10 L-5,13 L-11,12 L-10,8 L-10,11 L-4,8 Z " fill="#D5D5D5" transform="translate(20,11)"/>
</svg>
