<?xml version="1.0" encoding="UTF-8"?>
<svg version="1.1" xmlns="http://www.w3.org/2000/svg" width="28" height="28">
<path d="M0,0 L28,0 L28,28 L0,28 Z " fill="#020202" transform="translate(0,0)"/>
<path d="M0,0 L4,1 L8,6 L9,8 L9,15 L3,20 L-3,19 L-7,15 L-7,7 L-2,1 Z " fill="#070707" transform="translate(13,4)"/>
<path d="M0,0 L4,1 L8,6 L9,8 L9,15 L3,20 L-3,19 L-7,15 L-7,7 L-2,1 Z M-1,3 L-4,6 L-5,14 L-2,17 L4,17 L7,14 L6,7 L3,4 Z " fill="#D2D2D2" transform="translate(13,4)"/>
<path d="M0,0 L2,4 L10,4 L14,1 L13,5 L9,8 L3,7 L0,4 Z " fill="#EBEBEB" transform="translate(7,16)"/>
<path d="M0,0 L2,2 L-1,7 L-3,13 L-4,13 L-4,5 Z " fill="#B0B0B0" transform="translate(10,6)"/>
</svg>
