<?xml version="1.0" encoding="UTF-8"?>
<svg version="1.1" xmlns="http://www.w3.org/2000/svg" width="28" height="28">
<path d="M0,0 L28,0 L28,28 L0,28 Z " fill="#020202" transform="translate(0,0)"/>
<path d="M0,0 L3,0 L4,4 L4,11 L2,16 L-2,18 L-2,20 L-8,20 L-11,17 L-10,11 L-4,3 Z " fill="#D8D8D8" transform="translate(17,4)"/>
<path d="M0,0 L2,1 L1,10 L-4,15 L-8,14 L-7,8 Z " fill="#0F0F0F" transform="translate(17,7)"/>
<path d="M0,0 L3,0 L4,4 L4,11 L3,13 L1,13 L1,4 L-1,2 Z " fill="#EEEEEE" transform="translate(17,4)"/>
</svg>
