<?xml version="1.0" encoding="UTF-8"?>
<svg version="1.1" xmlns="http://www.w3.org/2000/svg" width="28" height="28">
<path d="M0,0 L28,0 L28,28 L0,28 Z " fill="#020202" transform="translate(0,0)"/>
<path d="M0,0 L5,0 L7,5 L6,11 L2,17 L-1,20 L-6,20 L-6,10 L-2,1 Z " fill="#CECECE" transform="translate(15,5)"/>
<path d="M0,0 L1,0 L0,7 L-5,12 L-10,12 L-10,2 L-8,2 L-7,7 L-6,2 L-5,2 L-5,7 L-3,7 L-1,1 Z " fill="#EBEBEB" transform="translate(19,13)"/>
<path d="M0,0 L2,0 L2,6 L-1,10 L-1,1 Z " fill="#171717" transform="translate(16,10)"/>
</svg>
