<?xml version="1.0" encoding="UTF-8"?>
<svg version="1.1" xmlns="http://www.w3.org/2000/svg" width="28" height="28">
<path d="M0,0 L28,0 L28,28 L0,28 Z " fill="#020202" transform="translate(0,0)"/>
<path d="M0,0 L7,2 L9,6 L8,13 L2,20 L-3,20 L-7,16 L-7,7 L-4,1 Z " fill="#EBEBEB" transform="translate(14,5)"/>
<path d="M0,0 L7,1 L8,2 L7,9 L4,12 L-1,12 L-2,11 L-2,2 Z " fill="#0A0A0A" transform="translate(12,9)"/>
<path d="M0,0 L3,2 L4,8 L11,8 L10,12 L9,13 L4,13 L0,9 Z " fill="#D5D5D5" transform="translate(7,12)"/>
</svg>
