<?xml version="1.0" encoding="UTF-8"?>
<svg version="1.1" xmlns="http://www.w3.org/2000/svg" width="28" height="28">
<path d="M0,0 L28,0 L28,28 L0,28 Z " fill="#030303" transform="translate(0,0)"/>
<path d="M0,0 L9,2 L14,6 L15,9 L15,16 L7,20 L0,20 L-4,15 L-3,5 Z " fill="#D5D5D5" transform="translate(10,4)"/>
<path d="M0,0 L6,2 L10,6 L11,11 L6,14 L-1,14 L-3,12 L-2,5 Z " fill="#060606" transform="translate(12,7)"/>
<path d="M0,0 L1,4 L0,11 L1,12 L9,13 L9,15 L7,16 L0,16 L-4,11 L-4,5 Z " fill="#EDEDED" transform="translate(10,8)"/>
</svg>
