<?xml version="1.0" encoding="UTF-8"?>
<svg version="1.1" xmlns="http://www.w3.org/2000/svg" width="28" height="28">
<path d="M0,0 L28,0 L28,28 L0,28 Z " fill="#030303" transform="translate(0,0)"/>
<path d="M0,0 L5,0 L13,4 L15,9 L14,15 L11,18 L2,18 L-4,13 L-5,6 L-3,2 Z " fill="#EAEAEA" transform="translate(9,5)"/>
<path d="M0,0 L9,2 L10,4 L10,10 L7,11 L0,8 L-1,7 L-1,1 Z " fill="#080808" transform="translate(9,9)"/>
<path d="M0,0 L2,1 L2,4 L0,5 L-1,10 L-4,6 L-3,2 Z M-5,6 Z " fill="#D2D2D2" transform="translate(9,5)"/>
</svg>
