<?xml version="1.0" encoding="UTF-8"?>
<svg version="1.1" xmlns="http://www.w3.org/2000/svg" width="28" height="28">
<path d="M0,0 L28,0 L28,28 L0,28 Z " fill="#030303" transform="translate(0,0)"/>
<path d="M0,0 L8,1 L11,6 L11,12 L7,18 L2,20 L-3,18 L-5,13 L-4,5 Z " fill="#E9E9E9" transform="translate(11,5)"/>
<path d="M0,0 L4,1 L5,2 L5,7 L0,12 L-4,11 L-5,10 L-5,4 L-3,1 Z " fill="#090909" transform="translate(14,9)"/>
<path d="M0,0 L1,0 L1,6 L-1,8 L-4,10 L-7,9 L-3,5 L-1,5 Z " fill="#C5C5C5" transform="translate(21,11)"/>
</svg>
