<?xml version="1.0" encoding="UTF-8"?>
<svg version="1.1" xmlns="http://www.w3.org/2000/svg" width="28" height="28">
<path d="M0,0 L28,0 L28,28 L0,28 Z " fill="#020202" transform="translate(0,0)"/>
<path d="M0,0 L7,0 L8,1 L8,7 L4,12 L-1,15 L-9,16 L-12,14 L-11,8 L-4,2 Z " fill="#E3E3E3" transform="translate(17,6)"/>
<path d="M0,0 L5,1 L4,6 L-2,10 L-10,11 L-10,7 L-2,1 Z " fill="#101010" transform="translate(18,8)"/>
<path d="M0,0 L3,1 L3,7 L1,9 L0,6 L1,3 L-1,2 Z " fill="#BFBFBF" transform="translate(22,6)"/>
</svg>
