<?xml version="1.0" encoding="UTF-8"?>
<svg version="1.1" xmlns="http://www.w3.org/2000/svg" width="28" height="28">
<path d="M0,0 L28,0 L28,28 L0,28 Z " fill="#030303" transform="translate(0,0)"/>
<path d="M0,0 L7,1 L9,4 L9,12 L3,20 L-2,20 L-5,17 L-5,10 L-3,4 Z " fill="#E3E3E3" transform="translate(13,5)"/>
<path d="M0,0 L4,0 L6,0 L7,4 L5,10 L2,13 L-2,12 L-2,4 Z " fill="#0A0A0A" transform="translate(13,9)"/>
<path d="M0,0 L2,1 L2,4 L0,4 L-1,7 L-2,6 L-4,8 L-3,4 Z " fill="#C8C8C8" transform="translate(13,5)"/>
</svg>
