<?xml version="1.0" encoding="UTF-8"?>
<svg version="1.1" xmlns="http://www.w3.org/2000/svg" width="28" height="28">
<path d="M0,0 L28,0 L28,28 L0,28 Z " fill="#020202" transform="translate(0,0)"/>
<path d="M0,0 L3,1 L2,10 L-2,14 L-5,14 L-5,16 L-9,17 L-16,17 L-17,14 L-12,8 L-4,2 Z " fill="#DADADA" transform="translate(21,5)"/>
<path d="M0,0 L2,0 L0,6 L-6,10 L-12,10 L-7,4 Z " fill="#0B0B0B" transform="translate(20,9)"/>
<path d="M0,0 L3,1 L0,5 L2,7 L-3,7 L-4,4 Z " fill="#BBBBBB" transform="translate(9,13)"/>
</svg>
