<?xml version="1.0" encoding="UTF-8"?>
<svg version="1.1" xmlns="http://www.w3.org/2000/svg" width="28" height="28">
<path d="M0,0 L28,0 L28,28 L0,28 Z " fill="#010101" transform="translate(0,0)"/>
<path d="M0,0 L2,1 L2,10 L0,15 L-5,20 L-9,19 L-10,18 L-9,10 L-4,3 L0,2 Z " fill="#C2C2C2" transform="translate(18,4)"/>
<path d="M0,0 L1,0 L0,8 L-3,13 L-7,14 L-6,7 Z " fill="#171717" transform="translate(17,8)"/>
<path d="M0,0 L3,0 L3,2 L-2,6 L-5,12 L-7,11 L-6,6 L-2,1 Z " fill="#E3E3E3" transform="translate(16,6)"/>
</svg>
