<?xml version="1.0" encoding="UTF-8"?>
<svg version="1.1" xmlns="http://www.w3.org/2000/svg" width="28" height="28">
<path d="M0,0 L28,0 L28,28 L0,28 Z " fill="#030303" transform="translate(0,0)"/>
<path d="M0,0 L6,2 L10,6 L9,13 L8,15 L6,15 L6,17 L0,20 L-5,19 L-7,17 L-6,8 L-3,3 Z " fill="#DBDBDB" transform="translate(13,4)"/>
<path d="M0,0 L5,1 L7,4 L7,9 L1,14 L-4,14 L-3,5 Z " fill="#0A0A0A" transform="translate(13,7)"/>
<path d="M0,0 L6,2 L9,5 L8,8 L3,4 L-2,3 Z " fill="#F2F2F2" transform="translate(13,4)"/>
</svg>
