<?xml version="1.0" encoding="UTF-8"?>
<svg version="1.1" xmlns="http://www.w3.org/2000/svg" width="28" height="28">
<path d="M0,0 L28,0 L28,28 L0,28 Z " fill="#030303" transform="translate(0,0)"/>
<path d="M0,0 L3,0 L4,8 L-1,13 L-10,18 L-16,17 L-16,11 L-6,3 Z " fill="#DBDBDB" transform="translate(20,5)"/>
<path d="M0,0 L5,0 L4,4 L0,8 L-4,10 L-10,10 L-10,7 Z " fill="#0F0F0F" transform="translate(17,9)"/>
<path d="M0,0 L3,0 L4,7 L2,7 L2,3 L-1,2 Z " fill="#F9F9F9" transform="translate(20,5)"/>
</svg>
