<?xml version="1.0" encoding="UTF-8"?>
<svg version="1.1" xmlns="http://www.w3.org/2000/svg" width="28" height="28">
<path d="M0,0 L28,0 L28,28 L0,28 Z " fill="#010101" transform="translate(0,0)"/>
<path d="M0,0 L2,0 L3,8 L-1,16 L-5,20 L-9,19 L-8,10 L-3,1 Z " fill="#D4D4D4" transform="translate(18,4)"/>
<path d="M0,0 L2,0 L1,5 L-3,9 L-7,8 L-7,3 L-4,1 L-3,5 Z " fill="#E5E5E5" transform="translate(16,15)"/>
<path d="M0,0 L1,0 L1,6 L-4,14 L-5,10 L-1,1 Z " fill="#131313" transform="translate(17,7)"/>
</svg>
