<?xml version="1.0" encoding="UTF-8"?>
<svg version="1.1" xmlns="http://www.w3.org/2000/svg" width="28" height="28">
<path d="M0,0 L28,0 L28,28 L0,28 Z " fill="#020202" transform="translate(0,0)"/>
<path d="M0,0 L4,1 L4,3 L6,5 L5,14 L1,16 L1,18 L-3,20 L-7,20 L-8,15 L-5,6 Z " fill="#DDDDDD" transform="translate(16,4)"/>
<path d="M0,0 L5,2 L4,7 L-1,12 L-4,12 L-3,4 Z " fill="#040404" transform="translate(15,9)"/>
<path d="M0,0 L4,1 L4,4 L-2,6 L-3,4 Z " fill="#C5C5C5" transform="translate(16,4)"/>
</svg>
