<?xml version="1.0" encoding="UTF-8"?>
<svg version="1.1" xmlns="http://www.w3.org/2000/svg" width="28" height="28">
<path d="M0,0 L28,0 L28,28 L0,28 Z " fill="#020202" transform="translate(0,0)"/>
<path d="M0,0 L5,1 L7,3 L7,10 L4,15 L-4,20 L-8,19 L-9,18 L-8,11 L-4,4 Z " fill="#E6E6E6" transform="translate(15,5)"/>
<path d="M0,0 L4,2 L3,9 L-1,13 L-6,14 L-5,7 Z " fill="#0A0A0A" transform="translate(15,8)"/>
<path d="M0,0 L3,0 L1,7 L-1,7 L-3,11 L-2,4 Z " fill="#C7C7C7" transform="translate(9,12)"/>
</svg>
