<?xml version="1.0" encoding="UTF-8"?>
<svg version="1.1" xmlns="http://www.w3.org/2000/svg" width="28" height="28">
<path d="M0,0 L28,0 L28,28 L0,28 Z " fill="#020202" transform="translate(0,0)"/>
<path d="M0,0 L6,1 L13,7 L14,11 L10,17 L6,20 L0,20 L-4,17 L-3,6 Z " fill="#070707" transform="translate(11,4)"/>
<path d="M0,0 L6,1 L13,7 L14,11 L10,17 L6,20 L0,20 L-4,17 L-3,6 Z M1,3 L-1,8 L-1,17 L0,18 L7,17 L10,15 L11,8 L6,4 Z " fill="#DDDDDD" transform="translate(11,4)"/>
<path d="M0,0 L1,4 L0,5 L-1,12 L-3,13 L-2,2 Z " fill="#ECECEC" transform="translate(10,8)"/>
</svg>
