<?xml version="1.0" encoding="UTF-8"?>
<svg version="1.1" xmlns="http://www.w3.org/2000/svg" width="28" height="28">
<path d="M0,0 L28,0 L28,28 L0,28 Z " fill="#020202" transform="translate(0,0)"/>
<path d="M0,0 L3,0 L7,6 L7,15 L2,20 L-1,20 L-3,15 L-2,5 Z " fill="#E7E7E7" transform="translate(12,4)"/>
<path d="M0,0 L3,1 L4,3 L4,9 L-1,14 L-2,13 L-2,2 Z " fill="#0C0C0C" transform="translate(13,8)"/>
<path d="M0,0 L1,0 L2,7 L8,2 L9,5 L4,10 L1,10 L0,8 Z " fill="#CFCFCF" transform="translate(10,14)"/>
</svg>
