<?xml version="1.0" encoding="UTF-8"?>
<svg version="1.1" xmlns="http://www.w3.org/2000/svg" width="28" height="28">
<path d="M0,0 L28,0 L28,28 L0,28 Z " fill="#020202" transform="translate(0,0)"/>
<path d="M0,0 L5,1 L7,4 L7,11 L4,17 L1,20 L-5,20 L-8,15 L-7,8 L-2,1 Z " fill="#E7E7E7" transform="translate(15,4)"/>
<path d="M0,0 L2,0 L2,9 L-2,14 L-5,15 L-6,14 L-6,7 L-2,1 Z " fill="#111111" transform="translate(17,7)"/>
<path d="M0,0 L2,0 L4,3 L4,10 L3,7 L1,7 Z " fill="#C2C2C2" transform="translate(18,5)"/>
</svg>
