<?xml version="1.0" encoding="UTF-8"?>
<svg version="1.1" xmlns="http://www.w3.org/2000/svg" width="28" height="28">
<path d="M0,0 L28,0 L28,28 L0,28 Z " fill="#030303" transform="translate(0,0)"/>
<path d="M0,0 L7,0 L12,2 L12,9 L5,17 L-1,20 L-6,19 L-7,18 L-7,7 L-3,2 Z " fill="#E5E5E5" transform="translate(13,5)"/>
<path d="M0,0 L6,1 L7,6 L3,11 L-2,15 L-7,15 L-8,14 L-7,6 L-5,5 L-3,6 L-4,2 Z " fill="#0D0D0D" transform="translate(16,7)"/>
<path d="M0,0 L2,0 L1,4 L-6,10 L-12,9 L-12,8 L-6,6 L-2,4 Z " fill="#D4D4D4" transform="translate(21,14)"/>
<path d="M0,0 L2,0 L2,10 L5,10 L5,12 L0,11 L-1,10 L-1,1 Z " fill="#F8F8F8" transform="translate(7,13)"/>
</svg>
