<?xml version="1.0" encoding="UTF-8"?>
<svg version="1.1" xmlns="http://www.w3.org/2000/svg" width="28" height="28">
<path d="M0,0 L28,0 L28,28 L0,28 Z " fill="#020202" transform="translate(0,0)"/>
<path d="M0,0 L6,2 L6,5 L4,5 L5,7 L5,13 L3,17 L-2,20 L-6,19 L-7,17 L-6,7 L-5,4 L-2,3 Z " fill="#E3E3E3" transform="translate(15,5)"/>
<path d="M0,0 L6,2 L6,5 L4,5 L4,11 L2,12 L2,5 L-1,8 L-3,8 L-5,17 L-7,17 L-6,7 L-5,4 L-2,3 Z " fill="#E9E9E9" transform="translate(15,5)"/>
<path d="M0,0 L2,0 L2,7 L-2,11 L-4,11 L-4,5 L-3,3 L-1,3 Z " fill="#141414" transform="translate(15,10)"/>
</svg>
