<?xml version="1.0" encoding="UTF-8"?>
<svg version="1.1" xmlns="http://www.w3.org/2000/svg" width="28" height="28">
<path d="M0,0 L28,0 L28,28 L0,28 Z " fill="#020202" transform="translate(0,0)"/>
<path d="M0,0 L3,1 L9,3 L12,6 L12,12 L8,18 L2,20 L-4,20 L-7,15 L-6,10 L-1,1 Z " fill="#D8D8D8" transform="translate(12,4)"/>
<path d="M0,0 L6,0 L9,4 L8,10 L4,14 L-3,14 L-3,7 Z " fill="#0B0B0B" transform="translate(12,8)"/>
<path d="M0,0 L7,1 L8,3 L8,9 L6,11 L2,2 Z " fill="#F1F1F1" transform="translate(16,7)"/>
<path d="M0,0 L3,1 L8,2 L4,4 L0,4 L-1,7 L-3,6 L-1,1 Z M-4,6 Z " fill="#C4C4C4" transform="translate(12,4)"/>
</svg>
