<?xml version="1.0" encoding="UTF-8"?>
<svg version="1.1" xmlns="http://www.w3.org/2000/svg" width="28" height="28">
<path d="M0,0 L28,0 L28,28 L0,28 Z " fill="#030303" transform="translate(0,0)"/>
<path d="M0,0 L6,1 L11,6 L10,13 L8,13 L8,15 L3,17 L-6,17 L-6,15 L-8,15 L-9,9 L-7,4 Z " fill="#D5D5D5" transform="translate(13,6)"/>
<path d="M0,0 L5,1 L5,6 L7,6 L7,8 L5,8 L5,10 L3,11 L-6,11 L-8,7 L-4,2 Z " fill="#070707" transform="translate(14,9)"/>
<path d="M0,0 L11,3 L11,5 L2,5 L2,3 L0,3 Z " fill="#EEEEEE" transform="translate(5,18)"/>
</svg>
