<?xml version="1.0" encoding="UTF-8"?>
<svg version="1.1" xmlns="http://www.w3.org/2000/svg" width="28" height="28">
<path d="M0,0 L28,0 L28,28 L0,28 Z " fill="#030303" transform="translate(0,0)"/>
<path d="M0,0 L3,0 L3,2 L7,0 L12,0 L15,5 L15,13 L10,18 L4,20 L-3,19 L-5,15 L-4,6 Z " fill="#060606" transform="translate(10,5)"/>
<path d="M0,0 L3,0 L3,2 L7,0 L12,0 L15,5 L15,13 L10,18 L4,20 L-3,19 L-5,15 L-4,6 Z M1,3 L-1,7 L-1,17 L5,18 L11,15 L13,13 L12,4 L7,3 L2,6 Z " fill="#D3D3D3" transform="translate(10,5)"/>
<path d="M0,0 L1,0 L2,7 L9,9 L7,11 L0,10 L-1,8 L-1,1 Z " fill="#F1F1F1" transform="translate(7,14)"/>
<path d="M0,0 L1,4 L0,13 L-1,13 L-2,7 L-3,12 L-4,12 L-3,3 Z " fill="#B6B6B6" transform="translate(9,8)"/>
</svg>
