<?xml version="1.0" encoding="UTF-8"?>
<svg version="1.1" xmlns="http://www.w3.org/2000/svg" width="28" height="28">
<path d="M0,0 L28,0 L28,28 L0,28 Z " fill="#020202" transform="translate(0,0)"/>
<path d="M0,0 L9,2 L11,7 L11,14 L8,18 L1,20 L-5,18 L-6,13 L-4,6 L-1,1 Z " fill="#E7E7E7" transform="translate(12,4)"/>
<path d="M0,0 L5,0 L7,3 L7,10 L3,12 L-4,12 L-4,5 Z " fill="#0F0F0F" transform="translate(13,8)"/>
<path d="M0,0 L3,0 L3,7 L0,11 L-7,13 L-13,11 L-14,6 L-11,6 L-11,9 L0,7 Z " fill="#DEDEDE" transform="translate(20,11)"/>
<path d="M0,0 L3,0 L3,7 L0,10 L0,8 L-2,7 L0,7 Z " fill="#B4B4B4" transform="translate(20,11)"/>
</svg>
