<?xml version="1.0" encoding="UTF-8"?>
<svg version="1.1" xmlns="http://www.w3.org/2000/svg" width="28" height="28">
<path d="M0,0 L28,0 L28,28 L0,28 Z " fill="#030303" transform="translate(0,0)"/>
<path d="M0,0 L2,0 L3,1 L5,0 L10,4 L12,9 L12,17 L10,17 L10,19 L7,20 L0,20 L-4,18 L-5,11 L-1,1 Z " fill="#0C0C0C" transform="translate(11,3)"/>
<path d="M0,0 L5,2 L8,7 L9,9 L9,17 L7,17 L7,19 L4,20 L-3,20 L-7,18 L-8,11 L-4,1 L-2,1 L-3,6 L-4,7 L-4,16 L-2,17 L5,17 L6,16 L5,8 L2,3 Z " fill="#E1E1E1" transform="translate(14,3)"/>
</svg>
