<?xml version="1.0" encoding="UTF-8"?>
<svg version="1.1" xmlns="http://www.w3.org/2000/svg" width="28" height="28">
<path d="M0,0 L28,0 L28,28 L0,28 Z " fill="#030303" transform="translate(0,0)"/>
<path d="M0,0 L6,1 L8,4 L8,13 L3,19 L-3,20 L-7,15 L-7,9 L-2,1 Z " fill="#E6E6E6" transform="translate(13,5)"/>
<path d="M0,0 L5,0 L5,5 L7,5 L7,8 L3,11 L-1,10 L-2,9 L-2,2 Z " fill="#080808" transform="translate(11,11)"/>
<path d="M0,0 L2,2 L-3,6 L-7,4 Z " fill="#D5D5D5" transform="translate(18,18)"/>
<path d="M0,0 L2,1 L2,8 L-1,8 L-1,3 Z " fill="#A2A2A2" transform="translate(17,8)"/>
</svg>
