<?xml version="1.0" encoding="UTF-8"?>
<svg version="1.1" xmlns="http://www.w3.org/2000/svg" width="28" height="28">
<path d="M0,0 L28,0 L28,28 L0,28 Z " fill="#030303" transform="translate(0,0)"/>
<path d="M0,0 L5,1 L6,2 L5,11 L-2,19 L-4,20 L-10,20 L-11,14 L-6,4 L-3,1 Z " fill="#EAEAEA" transform="translate(17,4)"/>
<path d="M0,0 L1,4 L-2,10 L4,7 L6,3 L9,2 L8,8 L1,14 L-5,14 L-6,8 L-4,3 Z " fill="#F0F0F0" transform="translate(12,10)"/>
<path d="M0,0 L3,1 L5,0 L4,5 L1,10 L-4,11 L-1,2 Z " fill="#1F1F1F" transform="translate(14,9)"/>
</svg>
