<?xml version="1.0" encoding="UTF-8"?>
<svg version="1.1" xmlns="http://www.w3.org/2000/svg" width="28" height="28">
<path d="M0,0 L28,0 L28,28 L0,28 Z " fill="#010101" transform="translate(0,0)"/>
<path d="M0,0 L4,0 L5,2 L10,3 L12,6 L11,13 L6,15 L-6,15 L-8,13 L-7,7 L-3,2 Z " fill="#0A0A0A" transform="translate(12,6)"/>
<path d="M0,0 L4,1 L-2,5 L-4,8 L-4,11 L8,11 L10,10 L9,5 L6,1 L11,2 L13,5 L12,12 L7,14 L-5,14 L-7,12 L-6,6 L-2,1 Z " fill="#DADADA" transform="translate(11,7)"/>
<path d="M0,0 L4,1 L-2,5 L-5,8 L-5,5 Z " fill="#CDCDCD" transform="translate(11,7)"/>
</svg>
