<?xml version="1.0" encoding="UTF-8"?>
<svg version="1.1" xmlns="http://www.w3.org/2000/svg" width="28" height="28">
<path d="M0,0 L28,0 L28,28 L0,28 Z " fill="#020202" transform="translate(0,0)"/>
<path d="M0,0 L4,1 L6,6 L6,13 L2,19 L-5,20 L-7,17 L-7,10 L-4,3 Z " fill="#E9E9E9" transform="translate(15,4)"/>
<path d="M0,0 L3,0 L5,3 L5,8 L0,12 L-3,12 L-3,4 Z " fill="#0C0C0C" transform="translate(14,9)"/>
<path d="M0,0 L3,3 L3,7 L5,8 L4,10 L1,9 L0,7 Z " fill="#CECECE" transform="translate(8,14)"/>
</svg>
