<?xml version="1.0" encoding="UTF-8"?>
<svg version="1.1" xmlns="http://www.w3.org/2000/svg" width="28" height="28">
<path d="M0,0 L28,0 L28,28 L0,28 Z " fill="#020202" transform="translate(0,0)"/>
<path d="M0,0 L6,1 L9,9 L9,16 L6,19 L4,20 L-4,20 L-8,17 L-9,10 L-6,4 Z " fill="#E2E2E2" transform="translate(14,4)"/>
<path d="M0,0 L4,1 L4,5 L7,6 L7,13 L1,15 L-4,13 L-5,11 L-5,5 Z " fill="#040404" transform="translate(13,7)"/>
<path d="M0,0 L1,0 L1,5 L3,6 L0,9 L-3,10 L-3,8 L-5,7 L-1,6 Z " fill="#C4C4C4" transform="translate(20,14)"/>
</svg>
