<?xml version="1.0" encoding="UTF-8"?>
<svg version="1.1" xmlns="http://www.w3.org/2000/svg" width="28" height="28">
<path d="M0,0 L28,0 L28,28 L0,28 Z " fill="#020202" transform="translate(0,0)"/>
<path d="M0,0 L2,0 L6,5 L6,15 L1,20 L-4,20 L-7,16 L-6,8 L-2,1 Z " fill="#E3E3E3" transform="translate(15,4)"/>
<path d="M0,0 L3,1 L3,3 L5,3 L5,10 L3,14 L-2,14 L-4,11 L-3,7 Z " fill="#101010" transform="translate(14,7)"/>
<path d="M0,0 L1,4 L8,6 L8,9 L3,9 L0,5 Z " fill="#C7C7C7" transform="translate(8,15)"/>
</svg>
