<?xml version="1.0" encoding="UTF-8"?>
<svg version="1.1" xmlns="http://www.w3.org/2000/svg" width="28" height="28">
<path d="M0,0 L28,0 L28,28 L0,28 Z " fill="#020202" transform="translate(0,0)"/>
<path d="M0,0 L5,0 L8,4 L8,12 L4,18 L1,20 L-4,19 L-6,16 L-6,10 Z " fill="#0C0C0C" transform="translate(14,5)"/>
<path d="M0,0 L5,0 L8,4 L8,12 L4,18 L1,20 L-4,19 L-6,16 L-6,10 Z M2,2 L2,5 L-1,5 L-4,11 L-3,18 L2,17 L5,13 L6,4 Z " fill="#E3E3E3" transform="translate(14,5)"/>
<path d="M0,0 L5,0 L8,4 L8,12 L5,16 L4,13 L5,4 L0,2 Z " fill="#CCCCCC" transform="translate(14,5)"/>
</svg>
