<?xml version="1.0" encoding="UTF-8"?>
<svg version="1.1" xmlns="http://www.w3.org/2000/svg" width="28" height="28">
<path d="M0,0 L28,0 L28,28 L0,28 Z " fill="#010101" transform="translate(0,0)"/>
<path d="M0,0 L11,1 L16,6 L16,13 L10,18 L2,20 L-3,17 L-4,16 L-4,5 Z " fill="#020202" transform="translate(10,5)"/>
<path d="M0,0 L11,1 L16,6 L16,13 L10,18 L2,20 L-3,17 L-4,16 L-4,5 Z M3,3 L-1,7 L-1,15 L2,17 L10,16 L14,12 L14,6 L11,3 Z " fill="#D8D8D8" transform="translate(10,5)"/>
<path d="M0,0 L7,0 L11,3 L11,11 L10,11 L8,4 L0,1 Z " fill="#F8F8F8" transform="translate(14,6)"/>
</svg>
