<?xml version="1.0" encoding="UTF-8"?>
<svg version="1.1" xmlns="http://www.w3.org/2000/svg" width="28" height="28">
<path d="M0,0 L28,0 L28,28 L0,28 Z " fill="#020202" transform="translate(0,0)"/>
<path d="M0,0 L6,0 L9,3 L9,10 L4,17 L0,18 L0,20 L-6,20 L-7,19 L-7,13 L-1,1 Z " fill="#DFDFDF" transform="translate(14,5)"/>
<path d="M0,0 L6,0 L9,3 L9,9 L7,9 L5,4 L3,4 L-2,12 L-6,13 L-4,7 L-1,1 Z " fill="#E7E7E7" transform="translate(14,5)"/>
<path d="M0,0 L3,1 L3,7 L-4,13 L-7,13 L-5,7 Z " fill="#080808" transform="translate(17,8)"/>
</svg>
