<?xml version="1.0" encoding="UTF-8"?>
<svg version="1.1" xmlns="http://www.w3.org/2000/svg" width="28" height="28">
<path d="M0,0 L28,0 L28,28 L0,28 Z " fill="#040404" transform="translate(0,0)"/>
<path d="M0,0 L7,0 L11,5 L11,10 L5,15 L-2,18 L-9,18 L-9,12 L-5,6 L-1,3 Z " fill="#E8E8E8" transform="translate(13,5)"/>
<path d="M0,0 L4,1 L6,6 L1,11 L-7,14 L-10,14 L-8,8 L-3,3 L0,3 Z " fill="#0C0C0C" transform="translate(16,7)"/>
<path d="M0,0 L1,2 L3,2 L3,5 L-2,8 L-6,14 L-9,18 L-9,12 L-5,6 L-1,3 Z " fill="#C9C9C9" transform="translate(13,5)"/>
</svg>
