<?xml version="1.0" encoding="UTF-8"?>
<svg version="1.1" xmlns="http://www.w3.org/2000/svg" width="28" height="28">
<path d="M0,0 L28,0 L28,28 L0,28 Z " fill="#030303" transform="translate(0,0)"/>
<path d="M0,0 L5,1 L10,9 L10,19 L8,20 L1,20 L-4,17 L-5,15 L-5,6 L-3,2 Z " fill="#0E0E0E" transform="translate(12,4)"/>
<path d="M0,0 L5,1 L10,9 L10,19 L8,20 L1,20 L-4,17 L-5,15 L-5,6 L-3,2 Z M0,2 L-3,6 L-3,15 L2,18 L8,18 L9,17 L9,10 L6,8 L4,2 Z " fill="#E2E2E2" transform="translate(12,4)"/>
<path d="M0,0 L1,0 L3,6 L12,9 L12,10 L5,10 L0,7 L-1,4 Z " fill="#C5C5C5" transform="translate(8,14)"/>
</svg>
