<?xml version="1.0" encoding="UTF-8"?>
<svg version="1.1" xmlns="http://www.w3.org/2000/svg" width="28" height="28">
<path d="M0,0 L28,0 L28,28 L0,28 Z " fill="#020202" transform="translate(0,0)"/>
<path d="M0,0 L6,0 L8,7 L8,13 L3,16 L0,17 L-7,17 L-11,16 L-12,10 L-7,5 L-2,2 L0,2 Z " fill="#E4E4E4" transform="translate(16,5)"/>
<path d="M0,0 L3,1 L3,8 L1,10 L-11,11 L-11,7 L-6,3 Z " fill="#0D0D0D" transform="translate(18,8)"/>
<path d="M0,0 L6,0 L7,4 L1,3 Z " fill="#C8C8C8" transform="translate(16,5)"/>
</svg>
