<?xml version="1.0" encoding="UTF-8"?>
<svg version="1.1" xmlns="http://www.w3.org/2000/svg" width="28" height="28">
<path d="M0,0 L28,0 L28,28 L0,28 Z " fill="#020202" transform="translate(0,0)"/>
<path d="M0,0 L5,2 L5,4 L9,6 L11,9 L10,16 L6,19 L-1,20 L-6,17 L-7,15 L-7,6 L-2,1 Z " fill="#E6E6E6" transform="translate(13,4)"/>
<path d="M0,0 L4,2 L7,5 L7,7 L9,7 L8,12 L6,13 L-1,13 L-3,11 L-2,2 L0,2 Z " fill="#080808" transform="translate(12,7)"/>
<path d="M0,0 L2,1 L1,4 L-1,4 L-2,12 L-5,9 L-4,3 Z " fill="#CFCFCF" transform="translate(11,5)"/>
</svg>
