<?xml version="1.0" encoding="UTF-8"?>
<svg version="1.1" xmlns="http://www.w3.org/2000/svg" width="28" height="28">
<path d="M0,0 L28,0 L28,28 L0,28 Z " fill="#030303" transform="translate(0,0)"/>
<path d="M0,0 L4,2 L5,8 L3,14 L-1,18 L-9,20 L-14,20 L-15,19 L-15,13 L-13,9 L-11,9 L-10,5 L-7,5 L-6,1 L-1,1 Z " fill="#E1E1E1" transform="translate(19,4)"/>
<path d="M0,0 L2,2 L0,8 L-4,12 L-12,14 L-17,14 L-18,9 L-15,8 L-3,7 L-1,2 Z " fill="#EDEDED" transform="translate(22,10)"/>
<path d="M0,0 L2,0 L3,6 L1,9 L-5,11 L-11,11 L-11,9 L-9,9 L-7,5 L-4,4 L-4,2 Z " fill="#171717" transform="translate(18,8)"/>
</svg>
