<?xml version="1.0" encoding="UTF-8"?>
<svg version="1.1" xmlns="http://www.w3.org/2000/svg" width="28" height="28">
<path d="M0,0 L28,0 L28,28 L0,28 Z " fill="#030303" transform="translate(0,0)"/>
<path d="M0,0 L3,0 L4,2 L4,10 L-2,17 L-9,20 L-16,19 L-16,14 L-11,8 L-6,5 L-4,5 L-4,2 Z " fill="#E9E9E9" transform="translate(20,3)"/>
<path d="M0,0 L3,1 L0,8 L-4,11 L-11,12 L-9,8 Z " fill="#101010" transform="translate(19,7)"/>
<path d="M0,0 L3,0 L3,5 L-3,12 L-5,12 L-3,7 Z " fill="#CDCDCD" transform="translate(21,8)"/>
</svg>
