<?xml version="1.0" encoding="UTF-8"?>
<svg version="1.1" xmlns="http://www.w3.org/2000/svg" width="28" height="28">
<path d="M0,0 L28,0 L28,28 L0,28 Z " fill="#020202" transform="translate(0,0)"/>
<path d="M0,0 L5,2 L7,5 L6,11 L-1,18 L-7,20 L-9,19 L-8,9 L-6,9 L-4,4 Z " fill="#DADADA" transform="translate(16,5)"/>
<path d="M0,0 L3,0 L5,5 L1,10 L-2,12 L-7,12 L-6,7 L-3,2 Z " fill="#0C0C0C" transform="translate(16,9)"/>
<path d="M0,0 L2,4 L4,5 L3,8 L-1,7 L-1,1 Z " fill="#EAEAEA" transform="translate(8,17)"/>
</svg>
