<?xml version="1.0" encoding="UTF-8"?>
<svg version="1.1" xmlns="http://www.w3.org/2000/svg" width="28" height="28">
<path d="M0,0 L28,0 L28,28 L0,28 Z " fill="#020202" transform="translate(0,0)"/>
<path d="M0,0 L5,1 L9,6 L9,13 L5,17 L0,20 L-6,20 L-7,14 L-2,2 Z " fill="#E4E4E4" transform="translate(13,4)"/>
<path d="M0,0 L5,1 L8,5 L8,12 L4,16 L0,17 L1,13 L5,12 L3,5 L-2,3 Z " fill="#EBEBEB" transform="translate(14,5)"/>
<path d="M0,0 L4,2 L5,9 L-1,12 L-5,12 L-4,7 L0,4 Z " fill="#121212" transform="translate(14,8)"/>
</svg>
