<?xml version="1.0" encoding="UTF-8"?>
<svg version="1.1" xmlns="http://www.w3.org/2000/svg" width="28" height="28">
<path d="M0,0 L28,0 L28,28 L0,28 Z " fill="#030303" transform="translate(0,0)"/>
<path d="M0,0 L6,0 L8,2 L8,9 L5,15 L-1,20 L-6,19 L-7,14 L-5,9 L-2,7 L1,8 L-2,9 L-3,17 L2,12 L4,12 L4,3 L1,4 L0,6 L-3,5 L-1,1 Z " fill="#E0E0E0" transform="translate(14,4)"/>
<path d="M0,0 L3,1 L0,2 L-1,10 L-3,8 L-5,10 L-4,4 Z " fill="#BCBCBC" transform="translate(12,11)"/>
<path d="M0,0 L6,0 L1,5 L-2,4 Z " fill="#E5E5E5" transform="translate(13,5)"/>
</svg>
