<?xml version="1.0" encoding="UTF-8"?>
<svg version="1.1" xmlns="http://www.w3.org/2000/svg" width="28" height="28">
<path d="M0,0 L28,0 L28,28 L0,28 Z " fill="#030303" transform="translate(0,0)"/>
<path d="M0,0 L7,1 L10,4 L10,10 L3,18 L-1,20 L-8,20 L-8,14 L-7,9 L-6,5 Z " fill="#DFDFDF" transform="translate(14,5)"/>
<path d="M0,0 L6,1 L7,6 L2,12 L-5,15 L-7,15 L-6,11 Z " fill="#0C0C0C" transform="translate(15,8)"/>
<path d="M0,0 L5,1 L4,3 L1,4 L-3,11 L-5,11 L-3,6 L-5,4 Z " fill="#EDEDED" transform="translate(14,5)"/>
<path d="M0,0 L4,1 L1,6 L3,7 L1,9 L-1,4 Z " fill="#B3B3B3" transform="translate(8,10)"/>
</svg>
