<?xml version="1.0" encoding="UTF-8"?>
<svg version="1.1" xmlns="http://www.w3.org/2000/svg" width="28" height="28">
<path d="M0,0 L28,0 L28,28 L0,28 Z " fill="#030303" transform="translate(0,0)"/>
<path d="M0,0 L7,0 L12,5 L11,12 L6,15 L2,16 L-6,16 L-8,14 L-7,8 L-5,8 L-5,6 L-2,4 Z " fill="#E5E5E5" transform="translate(12,6)"/>
<path d="M0,0 L4,2 L5,9 L1,11 L-9,11 L-8,7 L-3,3 Z " fill="#0A0A0A" transform="translate(16,8)"/>
<path d="M0,0 L7,0 L7,2 L4,2 L3,5 L-2,8 L-4,7 Z " fill="#F2F2F2" transform="translate(12,6)"/>
<path d="M0,0 L2,1 L0,7 L7,7 L7,8 L2,9 L-1,10 L-3,8 L-2,2 L0,2 Z " fill="#C9C9C9" transform="translate(7,12)"/>
</svg>
