<?xml version="1.0" encoding="UTF-8"?>
<svg version="1.1" xmlns="http://www.w3.org/2000/svg" width="28" height="28">
<path d="M0,0 L28,0 L28,28 L0,28 Z " fill="#010101" transform="translate(0,0)"/>
<path d="M0,0 L6,0 L11,4 L13,8 L13,14 L8,19 L2,20 L-4,18 L-7,14 L-7,6 Z " fill="#030303" transform="translate(12,4)"/>
<path d="M0,0 L6,0 L11,4 L13,8 L13,14 L8,19 L2,20 L-4,18 L-7,14 L-7,6 Z M3,3 L-2,4 L-5,8 L-5,14 L2,17 L9,15 L11,13 L11,7 L7,3 Z " fill="#DADADA" transform="translate(12,4)"/>
<path d="M0,0 L5,2 L9,8 L7,12 L5,6 L3,4 L-2,3 Z " fill="#C3C3C3" transform="translate(16,4)"/>
</svg>
