<?xml version="1.0" encoding="UTF-8"?>
<svg version="1.1" xmlns="http://www.w3.org/2000/svg" width="28" height="28">
<path d="M0,0 L28,0 L28,28 L0,28 Z " fill="#020202" transform="translate(0,0)"/>
<path d="M0,0 L5,1 L10,6 L9,11 L5,14 L2,15 L-9,15 L-10,14 L-9,7 L-2,1 Z " fill="#080808" transform="translate(15,6)"/>
<path d="M0,0 L5,1 L10,6 L9,11 L5,14 L2,15 L-9,15 L-10,14 L-9,7 L-2,1 Z M0,2 L-7,8 L-8,13 L2,13 L7,11 L8,6 L4,4 L3,5 L2,2 Z " fill="#D2D2D2" transform="translate(15,6)"/>
<path d="M0,0 L5,1 L7,4 L3,6 L2,2 L-1,3 L-2,1 Z " fill="#BEBEBE" transform="translate(15,6)"/>
<path d="M0,0 L2,0 L2,3 L10,4 L10,5 L1,5 Z " fill="#E9E9E9" transform="translate(5,16)"/>
</svg>
