<?xml version="1.0" encoding="UTF-8"?>
<svg version="1.1" xmlns="http://www.w3.org/2000/svg" width="28" height="28">
<path d="M0,0 L28,0 L28,28 L0,28 Z " fill="#020202" transform="translate(0,0)"/>
<path d="M0,0 L4,0 L4,2 L11,4 L13,7 L13,12 L8,17 L-3,17 L-7,12 L-7,5 L-3,1 Z " fill="#0F0F0F" transform="translate(12,5)"/>
<path d="M0,0 L4,0 L4,2 L11,4 L13,7 L13,12 L8,17 L-3,17 L-7,12 L-7,5 L-3,1 Z M0,2 L-1,5 L-4,5 L-5,11 L-1,15 L6,15 L11,12 L11,8 L9,8 L9,5 L4,4 L3,6 L2,2 Z " fill="#E6E6E6" transform="translate(12,5)"/>
<path d="M0,0 L4,0 L4,2 L11,4 L9,8 L9,5 L4,4 L5,7 L2,6 L2,2 L-1,5 L-7,7 L-5,3 Z " fill="#CFCFCF" transform="translate(12,5)"/>
<path d="M0,0 L1,2 L1,10 L-2,7 L-2,2 Z " fill="#F8F8F8" transform="translate(7,10)"/>
</svg>
