<?xml version="1.0" encoding="UTF-8"?>
<svg version="1.1" xmlns="http://www.w3.org/2000/svg" width="28" height="28">
<path d="M0,0 L28,0 L28,28 L0,28 Z " fill="#010101" transform="translate(0,0)"/>
<path d="M0,0 L5,1 L4,4 L5,6 L4,17 L1,20 L-6,19 L-7,17 L-7,8 L-3,2 Z " fill="#CBCBCB" transform="translate(15,4)"/>
<path d="M0,0 L2,0 L3,2 L2,13 L-1,16 L-8,15 L-9,10 L-7,4 L-6,4 L-5,12 L-2,12 L-1,10 Z " fill="#E4E4E4" transform="translate(17,8)"/>
<path d="M0,0 L2,0 L3,9 L1,12 L-3,11 L-3,5 Z " fill="#0B0B0B" transform="translate(14,9)"/>
</svg>
