<?xml version="1.0" encoding="UTF-8"?>
<svg version="1.1" xmlns="http://www.w3.org/2000/svg" width="28" height="28">
<path d="M0,0 L28,0 L28,28 L0,28 Z " fill="#020202" transform="translate(0,0)"/>
<path d="M0,0 L4,2 L6,4 L6,10 L2,18 L-1,20 L-5,19 L-5,8 L-2,2 Z " fill="#C5C5C5" transform="translate(15,4)"/>
<path d="M0,0 L3,0 L3,8 L0,14 L-3,14 L-3,6 Z " fill="#090909" transform="translate(15,7)"/>
<path d="M0,0 L4,2 L5,3 L5,9 L4,9 L3,4 L0,3 L-3,13 L-5,17 L-5,8 L-2,2 Z " fill="#E8E8E8" transform="translate(15,4)"/>
</svg>
