<?xml version="1.0" encoding="UTF-8"?>
<svg version="1.1" xmlns="http://www.w3.org/2000/svg" width="28" height="28">
<path d="M0,0 L28,0 L28,28 L0,28 Z " fill="#030303" transform="translate(0,0)"/>
<path d="M0,0 L4,0 L6,4 L9,5 L11,8 L10,13 L6,16 L-2,18 L-7,16 L-9,14 L-9,9 L-4,2 Z " fill="#0D0D0D" transform="translate(14,5)"/>
<path d="M0,0 L4,0 L6,4 L9,5 L11,8 L10,13 L6,16 L-2,18 L-7,16 L-9,14 L-9,9 L-4,2 Z M-2,4 L-6,9 L-7,13 L-4,16 L6,14 L6,12 L9,11 L7,7 L0,4 Z " fill="#DCDCDC" transform="translate(14,5)"/>
<path d="M0,0 L3,0 L5,5 L-1,4 Z " fill="#F2F2F2" transform="translate(15,6)"/>
</svg>
