<?xml version="1.0" encoding="UTF-8"?>
<svg version="1.1" xmlns="http://www.w3.org/2000/svg" width="28" height="28">
<path d="M0,0 L28,0 L28,28 L0,28 Z " fill="#040404" transform="translate(0,0)"/>
<path d="M0,0 L6,0 L11,7 L10,15 L5,19 L-6,19 L-9,17 L-8,8 L-4,2 Z " fill="#EEEEEE" transform="translate(14,5)"/>
<path d="M0,0 L4,4 L3,12 L1,13 L-9,13 L-10,8 L-9,5 L-4,4 L-3,1 Z " fill="#0E0E0E" transform="translate(18,8)"/>
<path d="M0,0 L1,0 L0,8 L-5,12 L-7,12 L-7,10 L-14,10 L-14,9 L-3,8 L-2,3 L0,3 Z " fill="#C1C1C1" transform="translate(24,12)"/>
</svg>
