<?xml version="1.0" encoding="UTF-8"?>
<svg version="1.1" xmlns="http://www.w3.org/2000/svg" width="28" height="28">
<path d="M0,0 L28,0 L28,28 L0,28 Z " fill="#020202" transform="translate(0,0)"/>
<path d="M0,0 L5,1 L7,5 L6,14 L-1,20 L-6,20 L-9,17 L-9,9 L-3,4 Z " fill="#E7E7E7" transform="translate(15,4)"/>
<path d="M0,0 L4,1 L4,7 L-1,13 L-7,14 L-9,10 L-3,3 Z " fill="#0B0B0B" transform="translate(16,7)"/>
<path d="M0,0 L2,1 L0,5 L-4,6 L-2,2 Z " fill="#CCCCCC" transform="translate(10,9)"/>
</svg>
