<?xml version="1.0" encoding="UTF-8"?>
<svg version="1.1" xmlns="http://www.w3.org/2000/svg" width="28" height="28">
<path d="M0,0 L28,0 L28,28 L0,28 Z " fill="#020202" transform="translate(0,0)"/>
<path d="M0,0 L8,2 L11,8 L11,15 L6,20 L0,20 L-6,16 L-7,15 L-7,8 L-3,1 Z " fill="#E9E9E9" transform="translate(13,5)"/>
<path d="M0,0 L4,1 L6,5 L5,11 L4,12 L-1,12 L-5,9 L-4,2 Z " fill="#060606" transform="translate(15,10)"/>
<path d="M0,0 L5,2 L5,9 L2,7 Z " fill="#C5C5C5" transform="translate(19,11)"/>
</svg>
