<?xml version="1.0" encoding="UTF-8"?>
<svg version="1.1" xmlns="http://www.w3.org/2000/svg" width="28" height="28">
<path d="M0,0 L28,0 L28,28 L0,28 Z " fill="#020202" transform="translate(0,0)"/>
<path d="M0,0 L7,0 L12,4 L11,11 L7,15 L1,17 L-6,17 L-8,16 L-8,9 L-1,1 Z " fill="#EFEFEF" transform="translate(13,6)"/>
<path d="M0,0 L5,1 L7,6 L3,10 L0,11 L-8,11 L-8,6 L-4,5 L-4,2 Z " fill="#0A0A0A" transform="translate(16,9)"/>
<path d="M0,0 L7,0 L7,1 L0,3 L-2,6 L-1,8 L-6,9 L-7,16 L-8,16 L-8,9 L-1,1 Z " fill="#C3C3C3" transform="translate(13,6)"/>
<path d="M0,0 L2,0 L0,4 L-6,5 L-11,4 L-11,3 L-1,1 Z " fill="#C6C6C6" transform="translate(20,17)"/>
</svg>
