<?xml version="1.0" encoding="UTF-8"?>
<svg version="1.1" xmlns="http://www.w3.org/2000/svg" width="28" height="28">
<path d="M0,0 L28,0 L28,28 L0,28 Z " fill="#020202" transform="translate(0,0)"/>
<path d="M0,0 L8,1 L12,5 L13,12 L12,14 L10,14 L9,17 L1,20 L-6,19 L-6,13 L0,5 L2,5 L2,3 L0,3 Z " fill="#DADADA" transform="translate(11,4)"/>
<path d="M0,0 L5,3 L6,7 L-2,11 L-7,10 L-5,6 Z " fill="#111111" transform="translate(15,9)"/>
<path d="M0,0 L2,2 L12,1 L11,5 L5,7 L0,7 L-1,6 L-1,1 Z " fill="#F2F2F2" transform="translate(7,17)"/>
</svg>
