<?xml version="1.0" encoding="UTF-8"?>
<svg version="1.1" xmlns="http://www.w3.org/2000/svg" width="28" height="28">
<path d="M0,0 L28,0 L28,28 L0,28 Z " fill="#010101" transform="translate(0,0)"/>
<path d="M0,0 L7,1 L9,3 L9,10 L2,18 L-1,20 L-7,20 L-10,15 L-9,8 L-4,2 Z " fill="#0A0A0A" transform="translate(15,5)"/>
<path d="M0,0 L7,1 L9,3 L9,10 L2,18 L-1,20 L-7,20 L-10,15 L-9,8 L-4,2 Z M2,2 L-1,3 L-1,6 L-4,5 L-8,10 L-7,17 L-6,18 L-1,18 L4,13 L8,8 L7,3 Z " fill="#DBDBDB" transform="translate(15,5)"/>
<path d="M0,0 L2,0 L0,4 L-5,10 L-7,8 L-5,8 L-3,4 Z " fill="#C0C0C0" transform="translate(22,13)"/>
</svg>
