<?xml version="1.0" encoding="UTF-8"?>
<svg version="1.1" xmlns="http://www.w3.org/2000/svg" width="28" height="28">
<path d="M0,0 L28,0 L28,28 L0,28 Z " fill="#020202" transform="translate(0,0)"/>
<path d="M0,0 L4,1 L9,4 L11,8 L10,17 L5,20 L-4,19 L-5,17 L-5,10 Z " fill="#E0E0E0" transform="translate(12,3)"/>
<path d="M0,0 L6,1 L8,8 L5,13 L-3,13 L-3,6 Z " fill="#080808" transform="translate(13,7)"/>
<path d="M0,0 L7,1 L9,5 L8,14 L3,17 L2,15 L-1,14 L5,12 L6,8 L5,2 L0,1 Z " fill="#CFCFCF" transform="translate(14,6)"/>
<path d="M0,0 L2,3 L2,5 L8,6 L8,8 L0,7 L-1,1 Z " fill="#F6F6F6" transform="translate(8,15)"/>
</svg>
