<?xml version="1.0" encoding="UTF-8"?>
<svg version="1.1" xmlns="http://www.w3.org/2000/svg" width="28" height="28">
<path d="M0,0 L28,0 L28,28 L0,28 Z " fill="#030303" transform="translate(0,0)"/>
<path d="M0,0 L5,1 L10,4 L10,11 L5,17 L-1,20 L-6,19 L-9,16 L-8,9 L-3,3 Z " fill="#E2E2E2" transform="translate(14,4)"/>
<path d="M0,0 L5,1 L7,5 L2,12 L-5,13 L-7,11 L-6,6 L-2,1 Z " fill="#0D0D0D" transform="translate(15,8)"/>
<path d="M0,0 L4,4 L7,6 L2,7 L-1,4 Z " fill="#FBFBFB" transform="translate(6,16)"/>
</svg>
