<?xml version="1.0" encoding="UTF-8"?>
<svg version="1.1" xmlns="http://www.w3.org/2000/svg" width="28" height="28">
<path d="M0,0 L28,0 L28,28 L0,28 Z " fill="#030303" transform="translate(0,0)"/>
<path d="M0,0 L2,0 L2,3 L5,2 L11,5 L14,8 L14,14 L8,19 L6,20 L0,20 L-4,16 L-4,6 Z " fill="#E5E5E5" transform="translate(11,4)"/>
<path d="M0,0 L6,0 L10,4 L9,9 L5,12 L-2,12 L-4,10 L-4,4 L-1,4 Z " fill="#080808" transform="translate(13,9)"/>
<path d="M0,0 L1,0 L3,6 L10,6 L14,3 L16,0 L17,4 L11,9 L9,10 L3,10 L-1,6 Z " fill="#D3D3D3" transform="translate(8,14)"/>
<path d="M0,0 L2,4 L-3,8 L-5,6 L-1,3 Z " fill="#BDBDBD" transform="translate(23,14)"/>
</svg>
