<?xml version="1.0" encoding="UTF-8"?>
<svg version="1.1" xmlns="http://www.w3.org/2000/svg" width="28" height="28">
<path d="M0,0 L28,0 L28,28 L0,28 Z " fill="#020202" transform="translate(0,0)"/>
<path d="M0,0 L5,1 L9,5 L9,11 L4,19 L-2,20 L-5,17 L-5,9 L-2,2 Z " fill="#E9E9E9" transform="translate(13,5)"/>
<path d="M0,0 L5,0 L6,6 L3,12 L-1,13 L-2,11 L-1,2 Z " fill="#101010" transform="translate(13,9)"/>
<path d="M0,0 L3,4 L3,6 L7,5 L6,9 L1,8 L0,7 Z " fill="#F7F7F7" transform="translate(9,16)"/>
<path d="M0,0 L1,2 L3,2 L2,9 L-1,12 L-1,4 Z " fill="#BBBBBB" transform="translate(9,10)"/>
</svg>
