<?xml version="1.0" encoding="UTF-8"?>
<svg version="1.1" xmlns="http://www.w3.org/2000/svg" width="28" height="28">
<path d="M0,0 L28,0 L28,28 L0,28 Z " fill="#020202" transform="translate(0,0)"/>
<path d="M0,0 L6,1 L12,10 L11,15 L6,19 L4,20 L-4,20 L-7,17 L-8,9 L-4,2 Z " fill="#0D0D0D" transform="translate(13,5)"/>
<path d="M0,0 L6,1 L12,10 L11,15 L6,19 L4,20 L-4,20 L-7,17 L-8,9 L-4,2 Z M-1,3 L-1,5 L-3,5 L-5,8 L-5,15 L-2,18 L4,18 L10,13 L8,7 L3,3 Z " fill="#DCDCDC" transform="translate(13,5)"/>
</svg>
