<?xml version="1.0" encoding="UTF-8"?>
<svg version="1.1" xmlns="http://www.w3.org/2000/svg" width="28" height="28">
<path d="M0,0 L28,0 L28,28 L0,28 Z " fill="#010101" transform="translate(0,0)"/>
<path d="M0,0 L4,1 L10,8 L11,14 L6,19 L4,20 L-2,20 L-4,19 L-5,12 L-1,1 Z " fill="#DFDFDF" transform="translate(12,4)"/>
<path d="M0,0 L4,1 L7,5 L6,9 L-1,12 L-4,12 L-4,3 Z " fill="#0B0B0B" transform="translate(14,9)"/>
<path d="M0,0 L2,3 L2,9 L0,11 L-1,4 Z " fill="#AAAAAA" transform="translate(8,12)"/>
</svg>
