<?xml version="1.0" encoding="UTF-8"?>
<svg version="1.1" xmlns="http://www.w3.org/2000/svg" width="28" height="28">
<path d="M0,0 L28,0 L28,28 L0,28 Z " fill="#020202" transform="translate(0,0)"/>
<path d="M0,0 L5,0 L7,5 L7,12 L5,17 L0,20 L-6,20 L-10,16 L-9,7 L-4,1 Z " fill="#060606" transform="translate(15,5)"/>
<path d="M0,0 L5,0 L7,5 L7,12 L5,17 L0,20 L-6,20 L-10,16 L-9,7 L-4,1 Z M-2,3 L-7,7 L-8,16 L-4,18 L2,17 L5,12 L5,4 L1,3 Z " fill="#CECECE" transform="translate(15,5)"/>
<path d="M0,0 L4,1 L-4,6 L-7,7 L-8,11 L-9,7 L-4,1 Z " fill="#DCDCDC" transform="translate(15,5)"/>
<path d="M0,0 L2,1 L3,6 L6,8 L2,9 L0,6 Z " fill="#989898" transform="translate(5,15)"/>
</svg>
