<?xml version="1.0" encoding="UTF-8"?>
<svg version="1.1" xmlns="http://www.w3.org/2000/svg" width="28" height="28">
<path d="M0,0 L28,0 L28,28 L0,28 Z " fill="#020202" transform="translate(0,0)"/>
<path d="M0,0 L4,2 L6,4 L6,13 L2,19 L-4,20 L-6,18 L-6,8 L-5,5 L-3,5 L-2,1 Z " fill="#090909" transform="translate(15,4)"/>
<path d="M0,0 L4,2 L6,4 L6,13 L2,19 L-4,20 L-6,18 L-6,8 L-5,5 L-3,5 L-2,1 Z M-1,3 L-4,8 L-5,14 L-3,18 L1,17 L4,12 L5,7 L4,4 Z " fill="#D3D3D3" transform="translate(15,4)"/>
</svg>
