<?xml version="1.0" encoding="UTF-8"?>
<svg version="1.1" xmlns="http://www.w3.org/2000/svg" width="28" height="28">
<path d="M0,0 L28,0 L28,28 L0,28 Z " fill="#020202" transform="translate(0,0)"/>
<path d="M0,0 L4,1 L6,9 L5,16 L1,20 L-4,20 L-6,17 L-5,10 L-3,3 Z " fill="#CCCCCC" transform="translate(14,4)"/>
<path d="M0,0 L2,0 L4,6 L3,13 L2,14 L-3,14 L-4,13 L-3,6 Z " fill="#080808" transform="translate(14,7)"/>
<path d="M0,0 L4,1 L5,10 L3,9 L2,3 L-2,2 Z " fill="#E3E3E3" transform="translate(14,4)"/>
</svg>
