<?xml version="1.0" encoding="UTF-8"?>
<svg version="1.1" xmlns="http://www.w3.org/2000/svg" width="28" height="28">
<path d="M0,0 L28,0 L28,28 L0,28 Z " fill="#020202" transform="translate(0,0)"/>
<path d="M0,0 L4,0 L9,9 L8,15 L6,18 L-1,20 L-7,20 L-11,16 L-10,9 L-3,1 Z " fill="#060606" transform="translate(16,5)"/>
<path d="M0,0 L4,0 L9,9 L8,15 L6,18 L-1,20 L-7,20 L-11,16 L-10,9 L-3,1 Z M1,4 L1,6 L-3,5 L-7,8 L-9,15 L-7,18 L-3,19 L4,17 L7,14 L7,9 L3,4 Z " fill="#CBCBCB" transform="translate(16,5)"/>
<path d="M0,0 L4,5 L3,11 L1,14 L-6,16 L-12,16 L-16,12 L-14,8 L-12,13 L-8,14 L-1,12 L1,10 L1,5 L-1,2 Z " fill="#D5D5D5" transform="translate(21,9)"/>
<path d="M0,0 L4,0 L5,6 L3,6 L3,4 L1,4 L1,6 L-1,6 L-1,4 L-3,3 Z " fill="#E2E2E2" transform="translate(16,5)"/>
<path d="M0,0 L4,5 L4,9 L2,9 L0,4 L-1,2 Z " fill="#888888" transform="translate(21,9)"/>
</svg>
