<?xml version="1.0" encoding="UTF-8"?>
<svg version="1.1" xmlns="http://www.w3.org/2000/svg" width="28" height="28">
<path d="M0,0 L28,0 L28,28 L0,28 Z " fill="#030303" transform="translate(0,0)"/>
<path d="M0,0 L5,1 L6,2 L6,8 L2,14 L-5,20 L-11,20 L-12,19 L-11,10 L-5,2 Z " fill="#DFDFDF" transform="translate(18,5)"/>
<path d="M0,0 L3,1 L3,7 L4,9 L1,9 L-1,6 L-4,12 L-5,16 L1,16 L0,18 L-6,18 L-7,17 L-6,8 Z " fill="#EDEDED" transform="translate(13,7)"/>
<path d="M0,0 L5,5 L3,9 L0,11 L-4,11 L-3,4 Z " fill="#171717" transform="translate(12,12)"/>
<path d="M0,0 L3,1 L3,6 L1,9 L-3,8 L-4,4 Z " fill="#1D1D1D" transform="translate(19,7)"/>
</svg>
