<?xml version="1.0" encoding="UTF-8"?>
<svg version="1.1" xmlns="http://www.w3.org/2000/svg" width="28" height="28">
<path d="M0,0 L28,0 L28,28 L0,28 Z " fill="#020202" transform="translate(0,0)"/>
<path d="M0,0 L6,0 L11,5 L12,7 L12,16 L8,19 L2,20 L-2,18 L-5,12 L-4,5 Z " fill="#101010" transform="translate(11,5)"/>
<path d="M0,0 L6,0 L11,5 L12,7 L12,16 L8,19 L2,20 L-2,18 L-5,12 L-4,5 Z M1,2 L-2,7 L-2,13 L1,17 L7,17 L10,15 L10,7 L5,6 L5,4 L7,4 L7,2 Z " fill="#E4E4E4" transform="translate(11,5)"/>
<path d="M0,0 L3,3 L3,12 L-1,14 L-1,11 L1,11 Z " fill="#C8C8C8" transform="translate(20,9)"/>
</svg>
