<?xml version="1.0" encoding="UTF-8"?>
<svg version="1.1" xmlns="http://www.w3.org/2000/svg" width="28" height="28">
<path d="M0,0 L28,0 L28,28 L0,28 Z " fill="#040404" transform="translate(0,0)"/>
<path d="M0,0 L4,0 L4,2 L-1,5 L-2,14 L6,13 L12,10 L12,5 L1,6 L4,3 L13,4 L15,6 L15,11 L9,16 L5,18 L-2,17 L-5,13 L-5,5 Z " fill="#D8D8D8" transform="translate(11,5)"/>
<path d="M0,0 L4,0 L4,2 L-1,5 L-2,14 L1,15 L0,17 L-4,15 L-5,13 L-5,5 Z " fill="#EAEAEA" transform="translate(11,5)"/>
<path d="M0,0 L9,1 L11,4 L9,6 L8,2 L-3,3 Z " fill="#C1C1C1" transform="translate(15,8)"/>
</svg>
