<?xml version="1.0" encoding="UTF-8"?>
<svg version="1.1" xmlns="http://www.w3.org/2000/svg" width="28" height="28">
<path d="M0,0 L28,0 L28,28 L0,28 Z " fill="#010101" transform="translate(0,0)"/>
<path d="M0,0 L10,1 L15,5 L15,10 L7,14 L-3,14 L-5,11 L-5,6 Z " fill="#DADADA" transform="translate(10,7)"/>
<path d="M0,0 L9,1 L11,3 L11,6 L3,8 L-2,8 L-3,4 Z " fill="#0A0A0A" transform="translate(11,10)"/>
<path d="M0,0 L10,1 L15,5 L15,7 L10,5 L1,4 L-2,7 L-5,8 L-3,3 Z " fill="#D0D0D0" transform="translate(10,7)"/>
<path d="M0,0 L2,4 L8,5 L7,8 L0,8 L-2,5 L-1,1 Z " fill="#F4F4F4" transform="translate(7,13)"/>
</svg>
