<?xml version="1.0" encoding="UTF-8"?>
<svg version="1.1" xmlns="http://www.w3.org/2000/svg" width="28" height="28">
<path d="M0,0 L28,0 L28,28 L0,28 Z " fill="#030303" transform="translate(0,0)"/>
<path d="M0,0 L7,0 L10,2 L9,9 L1,16 L-8,16 L-10,14 L-9,8 L-2,1 Z " fill="#090909" transform="translate(14,6)"/>
<path d="M0,0 L7,0 L10,2 L9,9 L1,16 L-8,16 L-10,14 L-9,8 L-2,1 Z M0,2 L0,4 L-4,6 L-5,9 L-7,9 L-7,14 L0,14 L6,10 L8,3 L7,2 Z " fill="#D0D0D0" transform="translate(14,6)"/>
<path d="M0,0 L3,1 L2,8 L-2,12 L-4,11 L-1,7 Z " fill="#E6E6E6" transform="translate(21,7)"/>
</svg>
