<?xml version="1.0" encoding="UTF-8"?>
<svg version="1.1" xmlns="http://www.w3.org/2000/svg" width="28" height="28">
<path d="M0,0 L28,0 L28,28 L0,28 Z " fill="#030303" transform="translate(0,0)"/>
<path d="M0,0 L7,1 L10,7 L10,15 L5,19 L1,20 L-6,20 L-9,17 L-10,11 L-4,4 L-1,4 Z " fill="#0C0C0C" transform="translate(14,4)"/>
<path d="M0,0 L7,1 L10,7 L10,15 L5,19 L1,20 L-6,20 L-9,17 L-10,11 L-4,4 L-1,4 Z M5,3 L4,6 L0,5 L-6,10 L-7,17 L-5,18 L3,18 L7,15 L7,5 Z " fill="#E4E4E4" transform="translate(14,4)"/>
</svg>
