<?xml version="1.0" encoding="UTF-8"?>
<svg version="1.1" xmlns="http://www.w3.org/2000/svg" width="28" height="28">
<path d="M0,0 L28,0 L28,28 L0,28 Z " fill="#020202" transform="translate(0,0)"/>
<path d="M0,0 L5,0 L10,6 L11,8 L11,14 L7,19 L-2,20 L-7,15 L-7,8 L-3,2 Z " fill="#0A0A0A" transform="translate(13,4)"/>
<path d="M0,0 L5,0 L10,6 L11,8 L11,14 L7,19 L-2,20 L-7,15 L-7,8 L-3,2 Z M1,2 L-4,7 L-5,14 L-2,18 L4,18 L8,15 L8,6 L4,5 L4,2 Z " fill="#E7E7E7" transform="translate(13,4)"/>
<path d="M0,0 L1,0 L1,6 L-3,11 L-12,12 L-13,10 L-4,8 L-2,2 Z " fill="#D1D1D1" transform="translate(23,12)"/>
</svg>
