<?xml version="1.0" encoding="UTF-8"?>
<svg version="1.1" xmlns="http://www.w3.org/2000/svg" width="28" height="28">
<path d="M0,0 L28,0 L28,28 L0,28 Z " fill="#010101" transform="translate(0,0)"/>
<path d="M0,0 L5,2 L7,4 L7,11 L1,19 L-2,20 L-5,18 L-5,8 L-2,2 Z " fill="#D1D1D1" transform="translate(14,4)"/>
<path d="M0,0 L5,0 L6,5 L3,11 L-1,12 L-2,6 Z " fill="#0D0D0D" transform="translate(13,8)"/>
<path d="M0,0 L3,4 L3,8 L7,8 L6,11 L3,12 L0,10 Z " fill="#C1C1C1" transform="translate(9,12)"/>
<path d="M0,0 L3,3 L0,4 L-3,14 L-4,14 L-4,6 L-1,1 Z " fill="#E8E8E8" transform="translate(14,4)"/>
</svg>
