<?xml version="1.0" encoding="UTF-8"?>
<svg version="1.1" xmlns="http://www.w3.org/2000/svg" width="28" height="28">
<path d="M0,0 L28,0 L28,28 L0,28 Z " fill="#020202" transform="translate(0,0)"/>
<path d="M0,0 L6,0 L12,7 L13,14 L9,19 L7,20 L-1,20 L-5,16 L-6,9 L-3,1 Z " fill="#0B0B0B" transform="translate(11,4)"/>
<path d="M0,0 L6,0 L12,7 L13,14 L9,19 L7,20 L-1,20 L-5,16 L-6,9 L-3,1 Z M1,3 L-2,5 L-3,14 L0,18 L7,17 L10,15 L9,7 L6,3 Z " fill="#D2D2D2" transform="translate(11,4)"/>
<path d="M0,0 L3,0 L1,6 L-2,10 L-2,3 Z " fill="#EBEBEB" transform="translate(8,6)"/>
<path d="M0,0 L6,0 L8,3 L0,4 L0,2 L-3,1 Z " fill="#B8B8B8" transform="translate(11,4)"/>
<path d="M0,0 L4,1 L6,4 L6,9 L3,7 Z " fill="#EFEFEF" transform="translate(17,7)"/>
</svg>
