<?xml version="1.0" encoding="UTF-8"?>
<svg version="1.1" xmlns="http://www.w3.org/2000/svg" width="28" height="28">
<path d="M0,0 L28,0 L28,28 L0,28 Z " fill="#020202" transform="translate(0,0)"/>
<path d="M0,0 L1,2 L7,3 L9,5 L9,13 L5,19 L-2,20 L-5,15 L-6,13 L-6,7 L-2,1 Z " fill="#D9D9D9" transform="translate(13,4)"/>
<path d="M0,0 L7,1 L8,8 L4,13 L-1,12 L-2,4 Z " fill="#0E0E0E" transform="translate(12,8)"/>
<path d="M0,0 L1,2 L7,3 L9,5 L9,12 L7,12 L6,5 L-2,5 Z " fill="#F1F1F1" transform="translate(13,4)"/>
</svg>
