<?xml version="1.0" encoding="UTF-8"?>
<svg version="1.1" xmlns="http://www.w3.org/2000/svg" width="28" height="28">
<path d="M0,0 L28,0 L28,28 L0,28 Z " fill="#030303" transform="translate(0,0)"/>
<path d="M0,0 L4,1 L4,3 L7,4 L8,8 L5,14 L-1,18 L-10,18 L-12,17 L-11,10 L-6,2 Z " fill="#ECECEC" transform="translate(17,5)"/>
<path d="M0,0 L5,2 L5,6 L3,9 L-1,11 L-7,11 L-6,5 Z " fill="#0F0F0F" transform="translate(16,9)"/>
<path d="M0,0 L3,1 L2,4 L0,5 L-9,5 L-9,4 L-2,2 Z " fill="#D7D7D7" transform="translate(16,18)"/>
</svg>
