<?xml version="1.0" encoding="UTF-8"?>
<svg version="1.1" xmlns="http://www.w3.org/2000/svg" width="28" height="28">
<path d="M0,0 L28,0 L28,28 L0,28 Z " fill="#030303" transform="translate(0,0)"/>
<path d="M0,0 L5,1 L6,3 L3,3 L3,12 L7,15 L16,14 L14,7 L13,6 L8,6 L6,7 L6,4 L13,3 L17,5 L17,7 L19,7 L19,13 L16,17 L13,18 L5,18 L0,13 L-1,10 L-1,2 Z " fill="#E1E1E1" transform="translate(6,5)"/>
<path d="M0,0 L5,1 L6,3 L3,3 L1,10 L-1,10 L-1,2 Z " fill="#CCCCCC" transform="translate(6,5)"/>
<path d="M0,0 L2,4 L0,7 L-6,6 L-2,4 L0,4 Z " fill="#B3B3B3" transform="translate(22,15)"/>
</svg>
