<?xml version="1.0" encoding="UTF-8"?>
<svg version="1.1" xmlns="http://www.w3.org/2000/svg" width="28" height="28">
<path d="M0,0 L28,0 L28,28 L0,28 Z " fill="#030303" transform="translate(0,0)"/>
<path d="M0,0 L7,1 L12,7 L12,13 L7,19 L5,20 L-4,20 L-6,18 L-6,9 L-2,5 Z " fill="#E8E8E8" transform="translate(12,3)"/>
<path d="M0,0 L6,1 L9,4 L9,11 L6,14 L-2,15 L-4,10 L0,5 L4,4 L0,2 Z " fill="#090909" transform="translate(12,5)"/>
<path d="M0,0 L7,1 L12,7 L12,13 L9,12 L8,4 L0,2 L0,4 L5,5 L4,7 L-1,9 L-6,11 L-5,7 L-2,5 Z " fill="#CBCBCB" transform="translate(12,3)"/>
</svg>
