<?xml version="1.0" encoding="UTF-8"?>
<svg version="1.1" xmlns="http://www.w3.org/2000/svg" width="28" height="28">
<path d="M0,0 L28,0 L28,28 L0,28 Z " fill="#040404" transform="translate(0,0)"/>
<path d="M0,0 L5,1 L8,4 L8,13 L7,15 L5,15 L5,17 L-1,20 L-6,20 L-8,18 L-8,8 L-6,8 L-5,4 Z " fill="#EDEDED" transform="translate(14,5)"/>
<path d="M0,0 L3,0 L3,7 L-3,13 L-8,13 L-8,6 L-4,2 Z " fill="#0D0D0D" transform="translate(16,9)"/>
<path d="M0,0 L2,3 L2,9 L5,10 L1,11 L0,10 Z " fill="#D2D2D2" transform="translate(6,13)"/>
</svg>
