<?xml version="1.0" encoding="UTF-8"?>
<svg version="1.1" xmlns="http://www.w3.org/2000/svg" width="28" height="28">
<path d="M0,0 L28,0 L28,28 L0,28 Z " fill="#030303" transform="translate(0,0)"/>
<path d="M0,0 L3,0 L3,2 L6,2 L6,9 L2,16 L-4,19 L-12,19 L-14,14 L-10,7 L-5,3 Z " fill="#090909" transform="translate(18,5)"/>
<path d="M0,0 L3,0 L2,4 L-4,7 L-9,11 L-12,17 L-3,15 L1,14 L1,11 L3,11 L4,2 L6,2 L6,9 L2,16 L-4,19 L-12,19 L-14,14 L-10,7 L-5,3 Z " fill="#DCDCDC" transform="translate(18,5)"/>
</svg>
