<?xml version="1.0" encoding="UTF-8"?>
<svg version="1.1" xmlns="http://www.w3.org/2000/svg" width="28" height="28">
<path d="M0,0 L28,0 L28,28 L0,28 Z " fill="#010101" transform="translate(0,0)"/>
<path d="M0,0 L3,0 L2,11 L-1,16 L-6,20 L-11,19 L-11,13 L-5,5 L-2,2 L0,2 Z " fill="#D8D8D8" transform="translate(18,4)"/>
<path d="M0,0 L1,0 L0,8 L-7,14 L-12,13 L-12,10 L-7,9 L-2,4 Z " fill="#E5E5E5" transform="translate(19,10)"/>
<path d="M0,0 L2,0 L2,5 L-2,10 L-7,12 L-7,8 L-5,8 L-3,4 Z " fill="#161616" transform="translate(16,9)"/>
<path d="M0,0 L3,0 L1,4 L-1,7 L-3,7 L-3,10 L-5,10 L-4,6 Z " fill="#A7A7A7" transform="translate(12,10)"/>
</svg>
