<?xml version="1.0" encoding="UTF-8"?>
<svg version="1.1" xmlns="http://www.w3.org/2000/svg" width="28" height="28">
<path d="M0,0 L28,0 L28,28 L0,28 Z " fill="#040404" transform="translate(0,0)"/>
<path d="M0,0 L4,1 L4,13 L-3,19 L-10,20 L-11,19 L-11,14 L-5,4 L0,2 Z " fill="#DCDCDC" transform="translate(17,4)"/>
<path d="M0,0 L3,0 L1,9 L-1,9 L-1,11 L-8,12 L-6,7 L-2,1 Z " fill="#0A0A0A" transform="translate(16,9)"/>
<path d="M0,0 L3,0 L3,10 L1,10 L0,4 L-2,2 Z " fill="#F7F7F7" transform="translate(18,5)"/>
</svg>
