<?xml version="1.0" encoding="UTF-8"?>
<svg version="1.1" xmlns="http://www.w3.org/2000/svg" width="28" height="28">
<path d="M0,0 L28,0 L28,28 L0,28 Z " fill="#030303" transform="translate(0,0)"/>
<path d="M0,0 L8,1 L13,6 L14,7 L14,15 L9,19 L1,18 L-5,13 L-6,6 L-4,2 Z " fill="#0A0A0A" transform="translate(10,5)"/>
<path d="M0,0 L8,1 L13,6 L14,7 L14,15 L9,19 L1,18 L-5,13 L-6,6 L-4,2 Z M-1,3 L-4,6 L-3,11 L-1,14 L2,15 L10,15 L12,13 L11,7 L7,3 Z " fill="#DDDDDD" transform="translate(10,5)"/>
</svg>
