<?xml version="1.0" encoding="UTF-8"?>
<svg version="1.1" xmlns="http://www.w3.org/2000/svg" width="28" height="28">
<path d="M0,0 L28,0 L28,28 L0,28 Z " fill="#020202" transform="translate(0,0)"/>
<path d="M0,0 L2,0 L3,4 L2,14 L-4,19 L-13,20 L-15,19 L-15,13 L-12,9 L-7,6 L-4,3 L0,2 Z " fill="#ECECEC" transform="translate(20,3)"/>
<path d="M0,0 L3,0 L2,5 L-3,10 L-9,11 L-8,7 Z " fill="#111111" transform="translate(17,9)"/>
<path d="M0,0 L1,2 L-1,4 L-6,9 L-9,12 L-11,15 L-13,15 L-12,9 L-5,4 L-2,1 Z " fill="#D5D5D5" transform="translate(18,5)"/>
</svg>
