<?xml version="1.0" encoding="UTF-8"?>
<svg version="1.1" xmlns="http://www.w3.org/2000/svg" width="28" height="28">
<path d="M0,0 L28,0 L28,28 L0,28 Z " fill="#040404" transform="translate(0,0)"/>
<path d="M0,0 L5,0 L15,4 L16,7 L16,15 L11,20 L5,20 L1,17 L1,15 L-2,14 L-3,10 L-3,3 Z " fill="#0B0B0B" transform="translate(8,5)"/>
<path d="M0,0 L5,0 L15,4 L16,7 L16,15 L11,20 L5,20 L1,17 L1,15 L-2,14 L-3,10 L-3,3 Z M0,3 L-1,4 L0,12 L5,18 L12,17 L14,14 L14,6 L11,4 L6,4 L6,6 L4,6 L4,3 Z " fill="#E1E1E1" transform="translate(8,5)"/>
</svg>
