<?xml version="1.0" encoding="UTF-8"?>
<svg version="1.1" xmlns="http://www.w3.org/2000/svg" width="28" height="28">
<path d="M0,0 L28,0 L28,28 L0,28 Z " fill="#030303" transform="translate(0,0)"/>
<path d="M0,0 L5,1 L7,4 L6,12 L1,17 L-4,19 L-11,19 L-13,17 L-12,11 Z " fill="#DDDDDD" transform="translate(17,4)"/>
<path d="M0,0 L4,0 L5,4 L0,10 L-2,11 L-9,11 L-8,7 L-3,2 Z " fill="#0A0A0A" transform="translate(16,9)"/>
<path d="M0,0 L5,1 L6,4 L-2,3 Z " fill="#F7F7F7" transform="translate(18,5)"/>
</svg>
