<?xml version="1.0" encoding="UTF-8"?>
<svg version="1.1" xmlns="http://www.w3.org/2000/svg" width="28" height="28">
<path d="M0,0 L28,0 L28,28 L0,28 Z " fill="#020202" transform="translate(0,0)"/>
<path d="M0,0 L4,1 L6,8 L4,15 L-1,20 L-5,19 L-6,18 L-5,6 Z " fill="#DDDDDD" transform="translate(15,4)"/>
<path d="M0,0 L2,1 L2,11 L-2,15 L-4,15 L-4,7 Z " fill="#0E0E0E" transform="translate(16,6)"/>
<path d="M0,0 L1,4 L-4,10 L-6,9 L-2,4 Z " fill="#F4F4F4" transform="translate(19,13)"/>
<path d="M0,0 L3,1 L3,5 L5,6 L5,8 L1,7 L0,6 Z " fill="#C6C6C6" transform="translate(9,16)"/>
</svg>
