<?xml version="1.0" encoding="UTF-8"?>
<svg version="1.1" xmlns="http://www.w3.org/2000/svg" width="28" height="28">
<path d="M0,0 L28,0 L28,28 L0,28 Z " fill="#010101" transform="translate(0,0)"/>
<path d="M0,0 L4,2 L5,3 L4,11 L-2,19 L-3,20 L-9,20 L-11,18 L-11,13 L-8,10 L-5,5 Z " fill="#E8E8E8" transform="translate(17,4)"/>
<path d="M0,0 L3,0 L2,6 L-3,12 L-7,12 L-6,8 Z " fill="#0E0E0E" transform="translate(16,9)"/>
<path d="M0,0 L3,0 L2,6 L1,4 L-3,6 L-1,1 Z " fill="#3D3D3D" transform="translate(16,9)"/>
</svg>
