<?xml version="1.0" encoding="UTF-8"?>
<svg version="1.1" xmlns="http://www.w3.org/2000/svg" width="28" height="28">
<path d="M0,0 L28,0 L28,28 L0,28 Z " fill="#020202" transform="translate(0,0)"/>
<path d="M0,0 L5,1 L8,5 L9,8 L9,16 L6,19 L3,20 L-4,20 L-9,15 L-10,9 L-7,3 L-5,1 Z " fill="#070707" transform="translate(15,4)"/>
<path d="M0,0 L5,1 L8,5 L9,8 L9,16 L6,19 L3,20 L-4,20 L-9,15 L-10,9 L-7,3 L-3,1 L-3,3 L-6,5 L-7,13 L-2,17 L5,16 L6,15 L6,7 L4,2 L1,3 L0,6 L-2,6 L-1,1 Z " fill="#D4D4D4" transform="translate(15,4)"/>
</svg>
