<?xml version="1.0" encoding="UTF-8"?>
<svg version="1.1" xmlns="http://www.w3.org/2000/svg" width="28" height="28">
<path d="M0,0 L28,0 L28,28 L0,28 Z " fill="#030303" transform="translate(0,0)"/>
<path d="M0,0 L4,2 L2,13 L-2,18 L-6,20 L-12,20 L-14,14 L-10,9 L-8,9 L-7,6 Z " fill="#E7E7E7" transform="translate(19,4)"/>
<path d="M0,0 L4,2 L2,11 L0,11 L0,6 L-8,13 L-13,15 L-11,11 L-10,9 L-8,9 L-7,6 Z " fill="#ECECEC" transform="translate(19,4)"/>
<path d="M0,0 L2,0 L1,6 L-3,10 L-8,11 L-7,7 L-2,3 Z " fill="#141414" transform="translate(17,10)"/>
</svg>
