<?xml version="1.0" encoding="UTF-8"?>
<svg version="1.1" xmlns="http://www.w3.org/2000/svg" width="28" height="28">
<path d="M0,0 L28,0 L28,28 L0,28 Z " fill="#010101" transform="translate(0,0)"/>
<path d="M0,0 L5,1 L9,8 L9,16 L4,20 L-2,20 L-5,16 L-5,6 Z " fill="#DEDEDE" transform="translate(13,4)"/>
<path d="M0,0 L3,1 L3,4 L6,5 L6,13 L3,15 L-1,14 L-3,12 L-3,5 Z " fill="#0D0D0D" transform="translate(13,7)"/>
<path d="M0,0 L2,1 L4,8 L8,9 L11,7 L13,4 L13,9 L9,12 L3,12 L0,8 Z " fill="#EAEAEA" transform="translate(8,12)"/>
<path d="M0,0 L5,2 L6,4 L6,12 L3,11 L2,4 L0,3 Z " fill="#C7C7C7" transform="translate(16,8)"/>
</svg>
