<?xml version="1.0" encoding="UTF-8"?>
<svg version="1.1" xmlns="http://www.w3.org/2000/svg" width="28" height="28">
<path d="M0,0 L28,0 L28,28 L0,28 Z " fill="#030303" transform="translate(0,0)"/>
<path d="M0,0 L2,2 L2,9 L-1,17 L-7,20 L-13,20 L-14,19 L-13,12 L-2,1 Z " fill="#E3E3E3" transform="translate(20,3)"/>
<path d="M0,0 Z M-2,1 L0,2 L-4,7 L-10,15 L-11,17 L-4,16 L-5,19 L-7,20 L-13,20 L-14,19 L-13,12 Z " fill="#F0F0F0" transform="translate(20,3)"/>
<path d="M0,0 L2,0 L3,3 L2,7 L0,7 L0,9 L-7,10 L-5,5 Z " fill="#121212" transform="translate(16,10)"/>
</svg>
