<?xml version="1.0" encoding="UTF-8"?>
<svg version="1.1" xmlns="http://www.w3.org/2000/svg" width="28" height="28">
<path d="M0,0 L28,0 L28,28 L0,28 Z " fill="#020202" transform="translate(0,0)"/>
<path d="M0,0 L7,1 L10,5 L10,11 L6,17 L3,20 L-2,20 L-3,19 L-3,7 L-4,3 Z " fill="#0D0D0D" transform="translate(12,5)"/>
<path d="M0,0 L7,1 L10,5 L10,11 L6,17 L3,20 L-2,20 L-3,19 L-3,8 L-1,4 L2,5 L0,6 L-1,16 L-1,18 L6,14 L8,10 L7,4 L-2,4 L-4,6 L-3,2 Z " fill="#DADADA" transform="translate(12,5)"/>
<path d="M0,0 L5,0 L5,3 L-2,4 L-4,6 L-3,2 Z " fill="#C1C1C1" transform="translate(12,5)"/>
</svg>
