<?xml version="1.0" encoding="UTF-8"?>
<svg version="1.1" xmlns="http://www.w3.org/2000/svg" width="28" height="28">
<path d="M0,0 L28,0 L28,28 L0,28 Z " fill="#020202" transform="translate(0,0)"/>
<path d="M0,0 L6,1 L11,4 L12,10 L7,15 L-3,16 L-7,14 L-8,8 L-4,2 Z " fill="#0E0E0E" transform="translate(13,6)"/>
<path d="M0,0 L6,1 L11,4 L12,10 L7,15 L-3,16 L-7,14 L-8,8 L-4,2 Z M0,2 L-5,6 L-6,11 L-3,14 L3,14 L9,11 L10,7 L6,3 Z " fill="#DDDDDD" transform="translate(13,6)"/>
<path d="M0,0 L3,1 L0,4 L-1,9 L4,13 L-3,12 L-4,6 Z " fill="#EFEFEF" transform="translate(9,8)"/>
<path d="M0,0 L4,0 L4,2 L-3,4 L-8,4 L-5,2 Z " fill="#C5C5C5" transform="translate(18,18)"/>
</svg>
