<?xml version="1.0" encoding="UTF-8"?>
<svg version="1.1" xmlns="http://www.w3.org/2000/svg" width="28" height="28">
<path d="M0,0 L28,0 L28,28 L0,28 Z " fill="#010101" transform="translate(0,0)"/>
<path d="M0,0 L4,1 L4,8 L0,14 L-6,18 L-13,19 L-16,17 L-15,11 L-9,3 L-6,1 L-1,1 Z " fill="#D6D6D6" transform="translate(20,5)"/>
<path d="M0,0 L7,0 L6,5 L1,9 L-6,11 L-6,6 L-4,6 L-4,4 L-2,4 Z " fill="#101010" transform="translate(14,10)"/>
<path d="M0,0 L2,0 L1,7 L7,6 L7,9 L0,10 L-3,8 L-2,2 Z " fill="#ECECEC" transform="translate(7,14)"/>
</svg>
