<?xml version="1.0" encoding="UTF-8"?>
<svg version="1.1" xmlns="http://www.w3.org/2000/svg" width="28" height="28">
<path d="M0,0 L28,0 L28,28 L0,28 Z " fill="#020202" transform="translate(0,0)"/>
<path d="M0,0 L10,3 L6,4 L4,14 L-1,18 L-7,18 L-8,15 L-10,15 L-9,7 L-7,7 L-5,3 L0,2 Z " fill="#D0D0D0" transform="translate(16,5)"/>
<path d="M0,0 L2,1 L2,8 L-3,13 L-8,12 L-8,6 L-3,1 Z " fill="#0A0A0A" transform="translate(17,8)"/>
<path d="M0,0 L10,3 L6,4 L4,14 L3,14 L2,4 L-2,2 L0,2 Z " fill="#BFBFBF" transform="translate(16,5)"/>
<path d="M0,0 L3,2 L-3,6 L-5,5 Z " fill="#F0F0F0" transform="translate(13,7)"/>
</svg>
