<?xml version="1.0" encoding="UTF-8"?>
<svg version="1.1" xmlns="http://www.w3.org/2000/svg" width="28" height="28">
<path d="M0,0 L28,0 L28,28 L0,28 Z " fill="#040404" transform="translate(0,0)"/>
<path d="M0,0 L5,1 L7,2 L7,12 L0,18 L-3,20 L-10,20 L-12,18 L-12,13 L-9,8 L-7,8 L-7,6 L-4,3 L1,3 L2,7 L-4,9 L-8,14 L-8,16 L-1,15 L3,11 L4,4 L0,2 Z " fill="#D8D8D8" transform="translate(16,4)"/>
<path d="M0,0 L3,0 L4,3 L9,7 L2,7 L0,5 Z " fill="#BCBCBC" transform="translate(4,17)"/>
<path d="M0,0 L2,0 L0,4 L-4,6 L-9,6 L-8,4 Z " fill="#EDEDED" transform="translate(18,17)"/>
</svg>
