<?xml version="1.0" encoding="UTF-8"?>
<svg version="1.1" xmlns="http://www.w3.org/2000/svg" width="28" height="28">
<path d="M0,0 L28,0 L28,28 L0,28 Z " fill="#030303" transform="translate(0,0)"/>
<path d="M0,0 L10,0 L16,3 L17,8 L14,14 L9,18 L2,18 L2,16 L0,16 L-3,13 L-3,6 Z " fill="#E4E4E4" transform="translate(8,6)"/>
<path d="M0,0 L9,0 L12,2 L11,7 L6,12 L0,12 L-1,10 L-1,3 Z " fill="#050505" transform="translate(10,9)"/>
<path d="M0,0 L7,0 L10,3 L-1,2 Z " fill="#F5F5F5" transform="translate(11,6)"/>
<path d="M0,0 L3,1 L8,2 L8,3 L2,3 L1,6 L0,4 L-2,5 Z " fill="#B0B0B0" transform="translate(8,6)"/>
</svg>
