<?xml version="1.0" encoding="UTF-8"?>
<svg version="1.1" xmlns="http://www.w3.org/2000/svg" width="28" height="28">
<path d="M0,0 L28,0 L28,28 L0,28 Z " fill="#040404" transform="translate(0,0)"/>
<path d="M0,0 L5,0 L7,4 L7,11 L5,14 L-1,14 L-3,12 L-3,5 Z " fill="#040404" transform="translate(13,7)"/>
<path d="M0,0 L7,2 L9,4 L9,15 L4,20 L-2,19 L-5,16 L-5,8 L-2,1 Z M0,3 L-3,8 L-3,15 L-1,17 L5,17 L7,14 L7,7 L5,3 Z " fill="#D2D2D2" transform="translate(13,4)"/>
<path d="M0,0 L3,1 L-1,5 L-3,15 L-5,16 L-5,8 L-2,1 Z " fill="#E8E8E8" transform="translate(13,4)"/>
</svg>
