<?xml version="1.0" encoding="UTF-8"?>
<svg version="1.1" xmlns="http://www.w3.org/2000/svg" width="28" height="28">
<path d="M0,0 L28,0 L28,28 L0,28 Z " fill="#020202" transform="translate(0,0)"/>
<path d="M0,0 L4,2 L5,9 L3,17 L-1,20 L-5,19 L-5,10 L-2,4 L0,4 Z " fill="#D8D8D8" transform="translate(14,4)"/>
<path d="M0,0 L1,0 L1,9 L-4,14 L-8,13 L-8,7 L-5,4 L-5,11 L-3,11 Z " fill="#EAEAEA" transform="translate(17,10)"/>
<path d="M0,0 L1,0 L1,9 L-1,12 L-3,12 L-2,3 Z " fill="#191919" transform="translate(15,9)"/>
</svg>
