<?xml version="1.0" encoding="UTF-8"?>
<svg version="1.1" xmlns="http://www.w3.org/2000/svg" width="28" height="28">
<path d="M0,0 L28,0 L28,28 L0,28 Z " fill="#030303" transform="translate(0,0)"/>
<path d="M0,0 L6,0 L11,5 L10,12 L4,16 L-6,16 L-9,14 L-9,8 L-3,4 L-1,4 Z " fill="#E7E7E7" transform="translate(13,6)"/>
<path d="M0,0 L4,2 L4,7 L-1,10 L-7,11 L-11,10 L-10,6 L-5,4 L-1,2 Z " fill="#0F0F0F" transform="translate(17,9)"/>
<path d="M0,0 L2,1 L0,7 L4,8 L2,8 L1,10 L-2,8 L-2,2 Z " fill="#CFCFCF" transform="translate(6,12)"/>
</svg>
