<?xml version="1.0" encoding="UTF-8"?>
<svg version="1.1" xmlns="http://www.w3.org/2000/svg" width="28" height="28">
<path d="M0,0 L28,0 L28,28 L0,28 Z " fill="#020202" transform="translate(0,0)"/>
<path d="M0,0 L8,1 L11,7 L10,13 L6,19 L5,20 L-2,20 L-6,16 L-6,7 L-2,1 Z " fill="#080808" transform="translate(12,4)"/>
<path d="M0,0 L8,1 L11,7 L10,13 L6,19 L5,20 L-2,20 L-6,16 L-6,7 L-2,1 Z M0,2 L-4,7 L-5,14 L-2,18 L4,18 L8,13 L9,7 L7,3 Z " fill="#D9D9D9" transform="translate(12,4)"/>
<path d="M0,0 L6,2 L8,7 L8,10 L6,10 L4,4 L-2,2 Z " fill="#B2B2B2" transform="translate(15,4)"/>
</svg>
