<?xml version="1.0" encoding="UTF-8"?>
<svg version="1.1" xmlns="http://www.w3.org/2000/svg" width="28" height="28">
<path d="M0,0 L28,0 L28,28 L0,28 Z " fill="#020202" transform="translate(0,0)"/>
<path d="M0,0 L3,1 L3,9 L0,16 L-4,20 L-7,19 L-8,17 L-8,11 L-5,5 Z " fill="#D0D0D0" transform="translate(16,5)"/>
<path d="M0,0 L1,0 L1,7 L-2,13 L-6,14 L-6,8 L-2,2 Z " fill="#101010" transform="translate(16,8)"/>
<path d="M0,0 L2,4 L6,2 L8,0 L7,4 L4,7 L1,6 Z " fill="#EEEEEE" transform="translate(8,18)"/>
</svg>
