<?xml version="1.0" encoding="UTF-8"?>
<svg version="1.1" xmlns="http://www.w3.org/2000/svg" width="28" height="28">
<path d="M0,0 L28,0 L28,28 L0,28 Z " fill="#020202" transform="translate(0,0)"/>
<path d="M0,0 L7,1 L10,4 L11,12 L6,18 L3,20 L-3,20 L-6,17 L-6,2 L-5,5 L-3,5 L-1,1 Z " fill="#070707" transform="translate(13,5)"/>
<path d="M0,0 L7,1 L10,4 L11,12 L6,18 L3,20 L-3,20 L-6,17 L-6,2 L-5,2 L-3,18 L6,15 L8,12 L8,6 L6,3 L-1,3 L-2,8 L-3,8 L-3,3 Z " fill="#CCCCCC" transform="translate(13,5)"/>
</svg>
