<?xml version="1.0" encoding="UTF-8"?>
<svg version="1.1" xmlns="http://www.w3.org/2000/svg" width="28" height="28">
<path d="M0,0 L28,0 L28,28 L0,28 Z " fill="#030303" transform="translate(0,0)"/>
<path d="M0,0 L5,2 L9,5 L10,13 L9,17 L5,20 L-1,20 L-7,16 L-7,7 L-4,7 L-4,2 Z " fill="#EBEBEB" transform="translate(13,4)"/>
<path d="M0,0 L5,1 L8,5 L8,12 L6,14 L-1,13 L-3,12 L-3,5 L-1,5 Z " fill="#0C0C0C" transform="translate(12,7)"/>
<path d="M0,0 L1,2 L0,8 L-2,8 L-3,10 L-3,1 Z " fill="#BBBBBB" transform="translate(9,10)"/>
</svg>
