<?xml version="1.0" encoding="UTF-8"?>
<svg version="1.1" xmlns="http://www.w3.org/2000/svg" width="28" height="28">
<path d="M0,0 L28,0 L28,28 L0,28 Z " fill="#030303" transform="translate(0,0)"/>
<path d="M0,0 L2,0 L2,3 L8,3 L11,6 L12,11 L5,19 L-2,20 L-7,15 L-7,9 L-4,3 Z " fill="#E2E2E2" transform="translate(13,4)"/>
<path d="M0,0 L7,1 L9,2 L9,7 L3,12 L-3,11 L-3,3 Z " fill="#080808" transform="translate(12,9)"/>
<path d="M0,0 L7,1 L9,5 L8,9 L5,8 L5,4 L0,3 Z " fill="#CACACA" transform="translate(16,7)"/>
</svg>
