<?xml version="1.0" encoding="UTF-8"?>
<svg version="1.1" xmlns="http://www.w3.org/2000/svg" width="28" height="28">
<path d="M0,0 L28,0 L28,28 L0,28 Z " fill="#020202" transform="translate(0,0)"/>
<path d="M0,0 L4,1 L5,4 L5,11 L-1,19 L-2,20 L-9,19 L-7,10 L-1,1 Z " fill="#E3E3E3" transform="translate(16,4)"/>
<path d="M0,0 L1,4 L0,7 L4,6 L4,3 L7,2 L6,7 L3,10 L-4,9 L-3,3 Z " fill="#EEEEEE" transform="translate(11,14)"/>
<path d="M0,0 L2,1 L-1,11 L-5,12 L-4,7 Z " fill="#1C1C1C" transform="translate(16,9)"/>
</svg>
