<?xml version="1.0" encoding="UTF-8"?>
<svg version="1.1" xmlns="http://www.w3.org/2000/svg" width="28" height="28">
<path d="M0,0 L28,0 L28,28 L0,28 Z " fill="#020202" transform="translate(0,0)"/>
<path d="M0,0 L5,0 L7,4 L7,13 L3,18 L-1,20 L-8,20 L-11,17 L-10,8 L-6,3 Z " fill="#131313" transform="translate(16,4)"/>
<path d="M0,0 L5,0 L7,4 L7,13 L3,18 L-1,20 L-8,20 L-11,17 L-10,8 L-6,3 Z M0,2 L-7,8 L-9,11 L-9,16 L-7,18 L0,18 L5,12 L5,6 L3,7 L2,10 L1,9 L3,2 Z " fill="#DBDBDB" transform="translate(16,4)"/>
<path d="M0,0 L1,2 L-1,5 L-1,10 L0,11 L9,11 L6,14 L-1,14 L-4,11 L-3,2 Z " fill="#F1F1F1" transform="translate(9,10)"/>
</svg>
