<?xml version="1.0" encoding="UTF-8"?>
<svg version="1.1" xmlns="http://www.w3.org/2000/svg" width="28" height="28">
<path d="M0,0 L28,0 L28,28 L0,28 Z " fill="#040404" transform="translate(0,0)"/>
<path d="M0,0 L4,0 L8,5 L8,13 L3,18 L-3,20 L-10,19 L-12,14 L-9,6 L-3,1 Z " fill="#E6E6E6" transform="translate(16,4)"/>
<path d="M0,0 L3,0 L3,2 L8,1 L9,6 L6,11 L3,13 L-5,13 L-6,12 L-5,5 L-3,5 L-1,1 Z " fill="#090909" transform="translate(13,8)"/>
<path d="M0,0 L2,3 L0,7 L-3,8 L-5,6 L-1,3 Z " fill="#CECECE" transform="translate(21,14)"/>
</svg>
