<?xml version="1.0" encoding="UTF-8"?>
<svg version="1.1" xmlns="http://www.w3.org/2000/svg" width="28" height="28">
<path d="M0,0 L28,0 L28,28 L0,28 Z " fill="#010101" transform="translate(0,0)"/>
<path d="M0,0 L4,0 L5,2 L9,3 L12,7 L12,14 L5,20 L-2,20 L-6,16 L-6,8 Z " fill="#E5E5E5" transform="translate(12,4)"/>
<path d="M0,0 L1,2 L8,1 L9,2 L9,9 L5,13 L-1,13 L-3,11 L-3,5 Z " fill="#050505" transform="translate(12,8)"/>
<path d="M0,0 L2,2 L6,3 L9,8 L3,6 L1,7 L-1,5 Z " fill="#CFCFCF" transform="translate(15,4)"/>
</svg>
