<?xml version="1.0" encoding="UTF-8"?>
<svg version="1.1" xmlns="http://www.w3.org/2000/svg" width="28" height="28">
<path d="M0,0 L28,0 L28,28 L0,28 Z " fill="#020202" transform="translate(0,0)"/>
<path d="M0,0 L4,1 L4,9 L2,16 L-6,20 L-11,19 L-12,13 L-11,10 L-9,10 L-9,8 L-1,2 Z " fill="#DFDFDF" transform="translate(18,4)"/>
<path d="M0,0 L1,0 L1,6 L-7,10 L-12,9 L-13,5 L-10,3 L-10,6 L-3,3 Z " fill="#E3E3E3" transform="translate(19,14)"/>
<path d="M0,0 L4,0 L3,5 L-1,8 L-5,8 L-3,3 Z " fill="#0A0A0A" transform="translate(14,12)"/>
</svg>
