<?xml version="1.0" encoding="UTF-8"?>
<svg version="1.1" xmlns="http://www.w3.org/2000/svg" width="28" height="28">
<path d="M0,0 L28,0 L28,28 L0,28 Z " fill="#020202" transform="translate(0,0)"/>
<path d="M0,0 L5,1 L5,3 L3,3 L2,14 L-3,19 L-4,20 L-11,20 L-11,18 L-13,18 L-13,12 L-7,8 L-8,12 L-9,16 L-3,13 L-1,4 L-3,3 Z " fill="#F1F1F1" transform="translate(19,4)"/>
<path d="M0,0 L2,1 L2,3 L2,10 L-3,15 L-6,15 L-5,8 L-9,11 L-8,7 L-6,7 L-4,3 Z " fill="#CDCDCD" transform="translate(16,5)"/>
<path d="M0,0 L1,0 L1,7 L-3,10 L-6,10 L-5,5 Z " fill="#131313" transform="translate(16,10)"/>
</svg>
