<?xml version="1.0" encoding="UTF-8"?>
<svg version="1.1" xmlns="http://www.w3.org/2000/svg" width="28" height="28">
<path d="M0,0 L28,0 L28,28 L0,28 Z " fill="#030303" transform="translate(0,0)"/>
<path d="M0,0 L4,1 L3,14 L-2,18 L-6,20 L-13,20 L-15,18 L-15,12 L-5,3 Z " fill="#EBEBEB" transform="translate(19,3)"/>
<path d="M0,0 L2,1 L-1,4 L-4,10 L-6,10 L-5,12 L3,11 L0,16 L-7,16 L-9,14 L-9,8 Z " fill="#EEEEEE" transform="translate(13,7)"/>
<path d="M0,0 L1,0 L0,8 L-4,11 L-10,12 L-11,9 L-9,9 L-7,5 L-4,4 L-4,2 Z " fill="#0E0E0E" transform="translate(18,8)"/>
</svg>
