<?xml version="1.0" encoding="UTF-8"?>
<svg version="1.1" xmlns="http://www.w3.org/2000/svg" width="28" height="28">
<path d="M0,0 L28,0 L28,28 L0,28 Z " fill="#020202" transform="translate(0,0)"/>
<path d="M0,0 L8,0 L9,1 L9,10 L5,16 L1,19 L-7,20 L-8,17 L-10,17 L-8,9 L-3,1 Z " fill="#080808" transform="translate(14,5)"/>
<path d="M0,0 L8,0 L9,1 L9,10 L5,16 L1,19 L-7,20 L-8,17 L-10,17 L-8,9 L-3,1 Z M0,3 L-7,11 L-7,17 L0,17 L6,12 L7,3 Z " fill="#E2E2E2" transform="translate(14,5)"/>
<path d="M0,0 L4,1 L3,7 L2,3 L-1,3 Z " fill="#BFBFBF" transform="translate(19,5)"/>
</svg>
