<?xml version="1.0" encoding="UTF-8"?>
<svg version="1.1" xmlns="http://www.w3.org/2000/svg" width="28" height="28">
<path d="M0,0 L28,0 L28,28 L0,28 Z " fill="#030303" transform="translate(0,0)"/>
<path d="M0,0 L7,0 L9,2 L9,13 L4,18 L-1,20 L-5,19 L-5,12 L-2,5 L-2,1 Z " fill="#D3D3D3" transform="translate(13,5)"/>
<path d="M0,0 L5,1 L6,6 L3,11 L0,14 L-5,14 L-4,7 Z " fill="#090909" transform="translate(15,8)"/>
<path d="M0,0 L2,2 L10,1 L12,0 L11,3 L4,6 L0,5 Z " fill="#F1F1F1" transform="translate(8,19)"/>
</svg>
