<?xml version="1.0" encoding="UTF-8"?>
<svg version="1.1" xmlns="http://www.w3.org/2000/svg" width="28" height="28">
<path d="M0,0 L28,0 L28,28 L0,28 Z " fill="#020202" transform="translate(0,0)"/>
<path d="M0,0 L5,1 L6,2 L6,12 L2,18 L-3,20 L-4,19 L-4,11 L2,2 L0,2 Z " fill="#D2D2D2" transform="translate(13,4)"/>
<path d="M0,0 L1,0 L0,9 L-3,12 L-5,12 L-4,5 Z " fill="#151515" transform="translate(16,9)"/>
<path d="M0,0 L1,0 L0,7 L-5,11 L-7,11 L-7,8 L-2,5 Z " fill="#EEEEEE" transform="translate(17,13)"/>
</svg>
