<?xml version="1.0" encoding="UTF-8"?>
<svg version="1.1" xmlns="http://www.w3.org/2000/svg" width="28" height="28">
<path d="M0,0 L28,0 L28,28 L0,28 Z " fill="#000000" transform="translate(0,0)"/>
<path d="M0,0 L5,1 L5,12 L1,18 L-1,20 L-6,19 L-7,18 L-6,10 Z " fill="#C4C4C4" transform="translate(15,5)"/>
<path d="M0,0 L1,0 L1,8 L-2,14 L-6,15 L-7,11 L-3,2 L-1,2 Z " fill="#111111" transform="translate(17,8)"/>
<path d="M0,0 L4,0 L4,7 L-1,5 L-2,8 L-3,5 Z " fill="#DFDFDF" transform="translate(15,5)"/>
</svg>
