<?xml version="1.0" encoding="UTF-8"?>
<svg version="1.1" xmlns="http://www.w3.org/2000/svg" width="28" height="28">
<path d="M0,0 L28,0 L28,28 L0,28 Z " fill="#020202" transform="translate(0,0)"/>
<path d="M0,0 L5,1 L5,12 L3,17 L1,19 L-5,20 L-8,18 L-8,9 Z " fill="#DADADA" transform="translate(15,5)"/>
<path d="M0,0 L1,3 L3,3 L3,9 L-1,14 L-6,13 L-5,7 L-3,3 L-1,3 Z " fill="#0C0C0C" transform="translate(15,8)"/>
<path d="M0,0 L3,0 L1,4 L-1,5 L-5,3 Z " fill="#BCBCBC" transform="translate(16,19)"/>
</svg>
