<?xml version="1.0" encoding="UTF-8"?>
<svg version="1.1" xmlns="http://www.w3.org/2000/svg" width="28" height="28">
<path d="M0,0 L28,0 L28,28 L0,28 Z " fill="#020202" transform="translate(0,0)"/>
<path d="M0,0 L6,1 L10,6 L9,13 L3,18 L-2,20 L-7,20 L-8,19 L-7,11 Z " fill="#0C0C0C" transform="translate(14,4)"/>
<path d="M0,0 L6,1 L10,6 L9,13 L3,18 L-2,20 L-7,20 L-8,19 L-7,11 Z M2,2 L1,5 L-2,6 L-6,14 L-6,18 L3,16 L8,11 L8,6 L4,2 Z " fill="#DBDBDB" transform="translate(14,4)"/>
<path d="M0,0 L1,0 L1,6 L3,5 L9,5 L5,8 L0,8 L-1,7 Z " fill="#EDEDED" transform="translate(7,16)"/>
<path d="M0,0 L2,0 L0,4 L-5,7 L-7,5 L-2,2 Z " fill="#C7C7C7" transform="translate(21,15)"/>
</svg>
