<?xml version="1.0" encoding="UTF-8"?>
<svg version="1.1" xmlns="http://www.w3.org/2000/svg" width="28" height="28">
<path d="M0,0 L28,0 L28,28 L0,28 Z " fill="#010101" transform="translate(0,0)"/>
<path d="M0,0 L4,2 L7,6 L7,13 L4,18 L1,20 L-4,20 L-5,18 L-5,10 L-1,1 Z " fill="#0A0A0A" transform="translate(14,4)"/>
<path d="M0,0 L4,2 L7,6 L7,13 L4,18 L1,20 L-4,20 L-5,18 L-5,10 L-1,1 Z M0,3 L-3,10 L-3,18 L2,17 L5,13 L5,6 L3,3 Z " fill="#DBDBDB" transform="translate(14,4)"/>
<path d="M0,0 L4,4 L4,11 L1,16 L-1,14 L1,11 L1,4 Z " fill="#C2C2C2" transform="translate(17,6)"/>
</svg>
