<?xml version="1.0" encoding="UTF-8"?>
<svg version="1.1" xmlns="http://www.w3.org/2000/svg" width="28" height="28">
<path d="M0,0 L28,0 L28,28 L0,28 Z " fill="#020202" transform="translate(0,0)"/>
<path d="M0,0 L5,1 L9,6 L10,15 L5,19 L-5,20 L-8,16 L-7,7 L-2,2 Z " fill="#E5E5E5" transform="translate(14,4)"/>
<path d="M0,0 L5,1 L7,5 L7,11 L3,14 L-4,14 L-5,13 L-5,6 L-2,2 L0,2 Z " fill="#0A0A0A" transform="translate(14,7)"/>
<path d="M0,0 L2,1 L3,3 L0,3 L0,5 L-2,5 L-3,8 L-7,9 L-5,4 Z " fill="#C8C8C8" transform="translate(14,4)"/>
</svg>
