<?xml version="1.0" encoding="UTF-8"?>
<svg version="1.1" xmlns="http://www.w3.org/2000/svg" width="28" height="28">
<path d="M0,0 L28,0 L28,28 L0,28 Z " fill="#030303" transform="translate(0,0)"/>
<path d="M0,0 L6,0 L10,6 L10,12 L5,17 L-1,20 L-7,19 L-8,18 L-8,9 L-2,1 Z " fill="#0E0E0E" transform="translate(14,4)"/>
<path d="M0,0 L6,0 L10,6 L10,12 L5,17 L-1,20 L-7,19 L-8,18 L-8,9 L-2,1 Z M0,3 L0,5 L-2,5 L-6,12 L-6,17 L1,17 L7,13 L7,5 L5,3 Z " fill="#D4D4D4" transform="translate(14,4)"/>
<path d="M0,0 L1,3 L0,8 L9,6 L15,2 L14,6 L7,10 L1,11 L-2,9 L-2,2 Z " fill="#EEEEEE" transform="translate(8,13)"/>
</svg>
