<?xml version="1.0" encoding="UTF-8"?>
<svg version="1.1" xmlns="http://www.w3.org/2000/svg" width="28" height="28">
<path d="M0,0 L28,0 L28,28 L0,28 Z " fill="#020202" transform="translate(0,0)"/>
<path d="M0,0 L5,1 L8,6 L8,13 L3,18 L0,20 L-7,20 L-9,16 L-8,11 L-5,6 L-2,1 Z " fill="#0A0A0A" transform="translate(15,4)"/>
<path d="M0,0 L5,1 L8,6 L8,13 L3,18 L0,20 L-7,20 L-9,16 L-8,11 L-5,6 L-2,1 Z M1,3 L-6,11 L-7,16 L-6,18 L1,17 L6,12 L5,5 L4,3 Z " fill="#E0E0E0" transform="translate(15,4)"/>
</svg>
