<?xml version="1.0" encoding="UTF-8"?>
<svg version="1.1" xmlns="http://www.w3.org/2000/svg" width="28" height="28">
<path d="M0,0 L28,0 L28,28 L0,28 Z " fill="#030303" transform="translate(0,0)"/>
<path d="M0,0 L8,0 L13,2 L15,4 L16,10 L11,15 L8,16 L0,16 L-4,11 L-3,4 Z " fill="#E6E6E6" transform="translate(9,7)"/>
<path d="M0,0 L4,1 L1,2 L1,4 L6,4 L6,2 L8,2 L10,5 L9,10 L7,12 L-2,12 L-4,10 L-3,3 Z " fill="#0E0E0E" transform="translate(12,8)"/>
<path d="M0,0 L2,0 L4,5 L11,7 L7,10 L3,9 L0,5 Z " fill="#CBCBCB" transform="translate(5,13)"/>
</svg>
