<?xml version="1.0" encoding="UTF-8"?>
<svg version="1.1" xmlns="http://www.w3.org/2000/svg" width="28" height="28">
<path d="M0,0 L28,0 L28,28 L0,28 Z " fill="#030303" transform="translate(0,0)"/>
<path d="M0,0 L7,0 L11,3 L12,6 L12,13 L9,16 L7,17 L-2,17 L-5,16 L-8,12 L-7,5 L-5,5 L-5,2 Z " fill="#D5D5D5" transform="translate(12,6)"/>
<path d="M0,0 L1,2 L5,3 L7,4 L6,1 L9,2 L9,10 L4,12 L-2,11 L-5,8 L-5,3 Z " fill="#070707" transform="translate(12,9)"/>
<path d="M0,0 L2,0 L4,7 L7,9 L15,10 L14,12 L5,12 L2,11 L-1,7 Z " fill="#EBEBEB" transform="translate(5,11)"/>
</svg>
