<?xml version="1.0" encoding="UTF-8"?>
<svg version="1.1" xmlns="http://www.w3.org/2000/svg" width="28" height="28">
<path d="M0,0 L28,0 L28,28 L0,28 Z " fill="#010101" transform="translate(0,0)"/>
<path d="M0,0 L6,0 L10,4 L9,11 L4,16 L-3,20 L-7,19 L-8,14 L-6,6 L-2,1 Z " fill="#E2E2E2" transform="translate(14,5)"/>
<path d="M0,0 L7,1 L8,5 L5,11 L0,15 L-5,16 L-6,14 L-4,8 L2,3 L4,3 L4,6 L6,6 L6,2 L1,2 L-2,3 L-2,1 Z " fill="#101010" transform="translate(14,7)"/>
<path d="M0,0 L5,1 L5,5 L3,5 L3,2 L-4,6 L-6,4 L-5,2 Z " fill="#C1C1C1" transform="translate(15,8)"/>
<path d="M0,0 L2,0 L1,7 L-2,7 Z " fill="#C3C3C3" transform="translate(22,9)"/>
</svg>
