<?xml version="1.0" encoding="UTF-8"?>
<svg version="1.1" xmlns="http://www.w3.org/2000/svg" width="28" height="28">
<path d="M0,0 L28,0 L28,28 L0,28 Z " fill="#030303" transform="translate(0,0)"/>
<path d="M0,0 L5,0 L8,4 L8,12 L1,18 L-2,20 L-9,20 L-11,18 L-10,11 L-7,6 L-2,1 Z " fill="#080808" transform="translate(16,5)"/>
<path d="M0,0 L5,0 L8,4 L8,12 L1,18 L-2,20 L-9,20 L-11,18 L-10,11 L-7,6 L-2,1 Z M2,3 L2,5 L-5,7 L-9,15 L-7,18 L2,15 L7,10 L7,5 L5,3 Z " fill="#E0E0E0" transform="translate(16,5)"/>
<path d="M0,0 L2,2 L-5,8 L-8,10 L-15,10 L-14,6 L-11,7 L-2,3 Z " fill="#C7C7C7" transform="translate(22,15)"/>
</svg>
