<?xml version="1.0" encoding="UTF-8"?>
<svg version="1.1" xmlns="http://www.w3.org/2000/svg" width="28" height="28">
<path d="M0,0 L28,0 L28,28 L0,28 Z " fill="#060606" transform="translate(0,0)"/>
<path d="M0,0 L7,0 L10,2 L11,11 L5,16 L1,18 L-8,18 L-9,14 L-8,7 L-6,7 L-6,5 Z " fill="#080808" transform="translate(14,5)"/>
<path d="M0,0 L7,0 L10,2 L11,11 L5,16 L1,18 L-8,18 L-9,14 L-8,7 L-6,7 L-6,5 Z M5,1 L3,3 L-2,5 L-6,9 L-6,16 L2,15 L7,12 L8,3 Z " fill="#E0E0E0" transform="translate(14,5)"/>
</svg>
