<?xml version="1.0" encoding="UTF-8"?>
<svg version="1.1" xmlns="http://www.w3.org/2000/svg" width="28" height="28">
<path d="M0,0 L28,0 L28,28 L0,28 Z " fill="#030303" transform="translate(0,0)"/>
<path d="M0,0 L3,1 L5,6 L5,13 L1,17 L-6,20 L-10,19 L-12,17 L-11,10 L-8,5 L-5,2 Z " fill="#080808" transform="translate(18,4)"/>
<path d="M0,0 L3,1 L5,6 L5,13 L1,17 L-6,20 L-10,19 L-12,17 L-11,10 L-8,5 L-5,2 Z M0,2 L0,4 L-5,5 L-8,9 L-9,16 L-4,17 L2,14 L3,8 L2,2 Z " fill="#E0E0E0" transform="translate(18,4)"/>
</svg>
