<?xml version="1.0" encoding="UTF-8"?>
<svg version="1.1" xmlns="http://www.w3.org/2000/svg" width="28" height="28">
<path d="M0,0 L28,0 L28,28 L0,28 Z " fill="#010101" transform="translate(0,0)"/>
<path d="M0,0 L5,0 L7,3 L6,12 L3,16 L-4,19 L-12,19 L-13,13 L-10,7 L-6,3 Z " fill="#DDDDDD" transform="translate(17,4)"/>
<path d="M0,0 L4,0 L4,8 L0,12 L-5,14 L-10,14 L-9,7 L-2,1 Z " fill="#030303" transform="translate(17,7)"/>
<path d="M0,0 L2,0 L1,8 L-2,12 L-9,15 L-15,15 L-15,13 L-5,10 L-1,5 Z " fill="#E8E8E8" transform="translate(22,8)"/>
<path d="M0,0 L5,0 L7,4 L5,4 L5,9 L4,9 L4,3 L-3,6 L-6,7 L-4,3 Z " fill="#E2E2E2" transform="translate(17,4)"/>
<path d="M0,0 L5,0 L7,4 L5,4 L5,9 L4,9 L4,3 L1,2 Z " fill="#A6A6A6" transform="translate(17,4)"/>
</svg>
