<?xml version="1.0" encoding="UTF-8"?>
<svg version="1.1" xmlns="http://www.w3.org/2000/svg" width="28" height="28">
<path d="M0,0 L28,0 L28,28 L0,28 Z " fill="#050505" transform="translate(0,0)"/>
<path d="M0,0 L3,0 L3,2 L8,3 L9,6 L9,14 L5,19 L-2,20 L-7,17 L-7,9 L-4,4 Z " fill="#ECECEC" transform="translate(13,4)"/>
<path d="M0,0 L5,2 L6,3 L6,11 L3,14 L-3,14 L-5,12 L-4,5 Z " fill="#0C0C0C" transform="translate(13,7)"/>
<path d="M0,0 L9,3 L5,5 L1,4 Z " fill="#CECECE" transform="translate(6,18)"/>
</svg>
