<?xml version="1.0" encoding="UTF-8"?>
<svg version="1.1" xmlns="http://www.w3.org/2000/svg" width="28" height="28">
<path d="M0,0 L28,0 L28,28 L0,28 Z " fill="#030303" transform="translate(0,0)"/>
<path d="M0,0 L2,0 L2,2 L8,2 L10,5 L10,10 L7,16 L-1,20 L-5,20 L-6,15 L-2,3 Z " fill="#E1E1E1" transform="translate(13,4)"/>
<path d="M0,0 L1,4 L0,8 L7,5 L11,3 L10,9 L2,13 L-2,13 L-3,8 Z " fill="#E8E8E8" transform="translate(10,11)"/>
<path d="M0,0 L6,0 L7,4 L1,9 L-3,9 L-2,4 Z " fill="#0D0D0D" transform="translate(13,10)"/>
</svg>
