<?xml version="1.0" encoding="UTF-8"?>
<svg version="1.1" xmlns="http://www.w3.org/2000/svg" width="28" height="28">
<path d="M0,0 L28,0 L28,28 L0,28 Z " fill="#020202" transform="translate(0,0)"/>
<path d="M0,0 L4,2 L5,3 L5,12 L-1,19 L-3,20 L-9,20 L-11,18 L-10,9 L-5,2 Z " fill="#0A0A0A" transform="translate(17,4)"/>
<path d="M0,0 L4,2 L5,3 L5,12 L-1,19 L-3,20 L-9,20 L-11,18 L-10,9 L-5,2 Z M-2,3 L-2,5 L-6,7 L-10,13 L-9,17 L-4,18 L2,13 L4,7 L2,3 Z " fill="#E5E5E5" transform="translate(17,4)"/>
</svg>
