<?xml version="1.0" encoding="UTF-8"?>
<svg version="1.1" xmlns="http://www.w3.org/2000/svg" width="28" height="28">
<path d="M0,0 L28,0 L28,28 L0,28 Z " fill="#020202" transform="translate(0,0)"/>
<path d="M0,0 L2,0 L3,2 L10,5 L13,11 L13,17 L9,20 L2,20 L-3,16 L-4,13 L-4,6 Z " fill="#E4E4E4" transform="translate(11,4)"/>
<path d="M0,0 L6,2 L7,3 L7,9 L5,10 L-2,10 L-4,8 L-3,1 Z " fill="#090909" transform="translate(14,10)"/>
<path d="M0,0 L2,1 L4,6 L4,12 L3,9 L1,9 L-1,2 Z " fill="#BBBBBB" transform="translate(20,9)"/>
</svg>
