<?xml version="1.0" encoding="UTF-8"?>
<svg version="1.1" xmlns="http://www.w3.org/2000/svg" width="28" height="28">
<path d="M0,0 L28,0 L28,28 L0,28 Z " fill="#030303" transform="translate(0,0)"/>
<path d="M0,0 L5,1 L6,2 L6,11 L2,17 L-1,20 L-5,20 L-6,18 L-6,11 Z " fill="#F0F0F0" transform="translate(14,4)"/>
<path d="M0,0 L4,0 L4,7 L-2,14 L-4,14 L-4,8 L-2,8 L-1,4 L2,4 L2,2 L0,2 Z " fill="#141414" transform="translate(14,7)"/>
<path d="M0,0 L4,2 L1,2 L1,4 L3,4 L3,6 L0,6 L-2,10 L-3,6 Z " fill="#C8C8C8" transform="translate(13,5)"/>
<path d="M0,0 L4,0 L4,7 L3,5 L1,4 L2,2 L0,2 Z " fill="#323232" transform="translate(14,7)"/>
</svg>
