<?xml version="1.0" encoding="UTF-8"?>
<svg version="1.1" xmlns="http://www.w3.org/2000/svg" width="28" height="28">
<path d="M0,0 L28,0 L28,28 L0,28 Z " fill="#020202" transform="translate(0,0)"/>
<path d="M0,0 L6,1 L8,3 L7,13 L5,13 L3,17 L-3,20 L-10,20 L-10,13 L-5,4 Z " fill="#DFDFDF" transform="translate(15,4)"/>
<path d="M0,0 L5,1 L4,8 L-1,13 L-7,14 L-6,8 Z " fill="#070707" transform="translate(15,7)"/>
<path d="M0,0 L3,1 L3,4 L5,4 L5,6 L7,7 L0,7 Z " fill="#C8C8C8" transform="translate(5,17)"/>
</svg>
