<?xml version="1.0" encoding="UTF-8"?>
<svg version="1.1" xmlns="http://www.w3.org/2000/svg" width="28" height="28">
<path d="M0,0 L28,0 L28,28 L0,28 Z " fill="#030303" transform="translate(0,0)"/>
<path d="M0,0 L4,0 L5,2 L8,3 L8,9 L6,12 L4,12 L4,14 L2,14 L1,17 L-2,19 L-11,19 L-12,14 L-8,7 Z " fill="#E7E7E7" transform="translate(16,5)"/>
<path d="M0,0 L7,0 L5,5 L-2,11 L-8,12 L-7,7 L-2,1 Z " fill="#101010" transform="translate(15,10)"/>
<path d="M0,0 L1,2 L3,3 L2,6 L11,3 L9,8 L0,8 L-1,3 Z " fill="#CCCCCC" transform="translate(5,16)"/>
</svg>
