<?xml version="1.0" encoding="UTF-8"?>
<svg version="1.1" xmlns="http://www.w3.org/2000/svg" width="28" height="28">
<path d="M0,0 L28,0 L28,28 L0,28 Z " fill="#040404" transform="translate(0,0)"/>
<path d="M0,0 L4,1 L4,7 L-2,16 L-4,16 L-4,18 L-8,20 L-13,19 L-14,18 L-14,12 L-9,7 Z " fill="#EBEBEB" transform="translate(19,4)"/>
<path d="M0,0 L2,1 L1,5 L0,7 L-2,7 L-2,9 L-6,11 L-11,10 L-12,6 L-9,4 L-9,7 L-2,5 Z " fill="#F4F4F4" transform="translate(17,13)"/>
<path d="M0,0 L2,0 L0,6 L-4,10 L-8,11 L-7,7 L-2,2 L0,2 Z " fill="#1D1D1D" transform="translate(17,9)"/>
<path d="M0,0 L1,2 L-1,9 L-3,7 L-5,8 L-4,3 Z " fill="#D2D2D2" transform="translate(10,11)"/>
</svg>
