<?xml version="1.0" encoding="UTF-8"?>
<svg version="1.1" xmlns="http://www.w3.org/2000/svg" width="28" height="28">
<path d="M0,0 L28,0 L28,28 L0,28 Z " fill="#030303" transform="translate(0,0)"/>
<path d="M0,0 L4,0 L5,5 L4,14 L-1,19 L-7,20 L-10,18 L-9,10 L-6,5 Z " fill="#EDEDED" transform="translate(17,4)"/>
<path d="M0,0 L1,3 L-2,7 L-3,11 L5,9 L4,13 L-1,15 L-6,14 L-7,13 L-6,5 L-4,3 Z " fill="#EFEFEF" transform="translate(14,9)"/>
<path d="M0,0 L3,1 L2,8 L-4,10 L-3,5 Z " fill="#131313" transform="translate(15,10)"/>
</svg>
