<?xml version="1.0" encoding="UTF-8"?>
<svg version="1.1" xmlns="http://www.w3.org/2000/svg" width="28" height="28">
<path d="M0,0 L28,0 L28,28 L0,28 Z " fill="#030303" transform="translate(0,0)"/>
<path d="M0,0 L7,0 L11,8 L9,14 L4,18 L-6,18 L-9,14 L-9,9 L-2,1 Z " fill="#E9E9E9" transform="translate(13,6)"/>
<path d="M0,0 L4,1 L9,4 L8,8 L2,11 L-4,11 L-6,7 L-3,2 Z " fill="#090909" transform="translate(12,11)"/>
<path d="M0,0 L2,0 L3,5 L-3,10 L-5,10 L-6,7 L0,4 Z " fill="#D0D0D0" transform="translate(20,14)"/>
</svg>
