<?xml version="1.0" encoding="UTF-8"?>
<svg version="1.1" xmlns="http://www.w3.org/2000/svg" width="28" height="28">
<path d="M0,0 L28,0 L28,28 L0,28 Z " fill="#010101" transform="translate(0,0)"/>
<path d="M0,0 L4,0 L8,6 L8,15 L4,19 L-5,20 L-7,18 L-7,13 L-3,9 L-1,9 L-1,7 L1,6 Z " fill="#D9D9D9" transform="translate(13,3)"/>
<path d="M0,0 L3,0 L4,3 L3,6 L-3,7 L-2,2 Z " fill="#0B0B0B" transform="translate(13,13)"/>
<path d="M0,0 L1,4 L6,4 L5,7 L0,7 L-1,6 L-1,1 Z " fill="#F2F2F2" transform="translate(8,16)"/>
</svg>
