<?xml version="1.0" encoding="UTF-8"?>
<svg version="1.1" xmlns="http://www.w3.org/2000/svg" width="28" height="28">
<path d="M0,0 L28,0 L28,28 L0,28 Z " fill="#030303" transform="translate(0,0)"/>
<path d="M0,0 L4,2 L3,7 L0,12 L-5,15 L-14,15 L-13,11 L-11,7 L-7,5 L-6,3 L-3,3 L-3,1 Z " fill="#F1F1F1" transform="translate(18,6)"/>
<path d="M0,0 L1,4 L-3,9 L-10,12 L-9,7 L-5,5 L-5,3 Z " fill="#0F0F0F" transform="translate(18,8)"/>
<path d="M0,0 L4,2 L3,4 L1,5 L0,3 L-5,5 L-5,7 L-9,10 L-11,13 L-13,11 L-11,7 L-7,5 L-6,3 L-3,3 L-3,1 Z " fill="#C0C0C0" transform="translate(18,6)"/>
<path d="M0,0 L2,1 L2,3 L0,4 L-9,4 L-9,1 L-4,2 Z " fill="#DADADA" transform="translate(13,17)"/>
</svg>
