<?xml version="1.0" encoding="UTF-8"?>
<svg version="1.1" xmlns="http://www.w3.org/2000/svg" width="28" height="28">
<path d="M0,0 L28,0 L28,28 L0,28 Z " fill="#040404" transform="translate(0,0)"/>
<path d="M0,0 L2,0 L2,2 L7,4 L9,7 L9,15 L5,19 L-1,20 L-5,17 L-5,7 L-2,1 Z " fill="#E8E8E8" transform="translate(13,4)"/>
<path d="M0,0 L1,2 L6,4 L7,11 L3,14 L-2,14 L-3,12 L-2,3 Z " fill="#0D0D0D" transform="translate(13,7)"/>
<path d="M0,0 L2,0 L2,2 L4,3 L0,5 L-3,5 L-2,1 Z " fill="#D0D0D0" transform="translate(13,4)"/>
</svg>
