<?xml version="1.0" encoding="UTF-8"?>
<svg version="1.1" xmlns="http://www.w3.org/2000/svg" width="28" height="28">
<path d="M0,0 L28,0 L28,28 L0,28 Z " fill="#020202" transform="translate(0,0)"/>
<path d="M0,0 L3,1 L5,5 L5,15 L0,20 L-6,20 L-8,17 L-7,9 L-1,1 Z " fill="#D3D3D3" transform="translate(16,4)"/>
<path d="M0,0 L4,1 L5,7 L2,14 L-4,15 L-4,8 Z " fill="#090909" transform="translate(15,7)"/>
<path d="M0,0 L2,0 L2,10 L-2,14 L-4,12 L-1,9 Z " fill="#C7C7C7" transform="translate(19,9)"/>
<path d="M0,0 L3,1 L4,5 L-1,3 L-3,8 L-6,8 L-2,2 Z " fill="#EAEAEA" transform="translate(16,4)"/>
</svg>
