<?xml version="1.0" encoding="UTF-8"?>
<svg version="1.1" xmlns="http://www.w3.org/2000/svg" width="28" height="28">
<path d="M0,0 L28,0 L28,28 L0,28 Z " fill="#020202" transform="translate(0,0)"/>
<path d="M0,0 L5,1 L9,8 L9,16 L5,20 L0,19 L-3,16 L-4,14 L-4,7 L-2,1 Z " fill="#080808" transform="translate(13,4)"/>
<path d="M0,0 L5,1 L9,8 L9,16 L5,20 L0,19 L-3,16 L-4,14 L-4,7 L-2,1 Z M1,2 L-2,7 L0,16 L2,18 L6,17 L7,16 L7,8 L4,2 Z " fill="#DCDCDC" transform="translate(13,4)"/>
<path d="M0,0 L5,1 L9,8 L8,15 L7,15 L5,6 L4,2 L0,3 L-2,1 Z " fill="#C1C1C1" transform="translate(13,4)"/>
<path d="M0,0 L2,0 L0,10 L-1,10 L-1,1 Z " fill="#F0F0F0" transform="translate(11,6)"/>
</svg>
