<?xml version="1.0" encoding="UTF-8"?>
<svg version="1.1" xmlns="http://www.w3.org/2000/svg" width="28" height="28">
<path d="M0,0 L28,0 L28,28 L0,28 Z " fill="#040404" transform="translate(0,0)"/>
<path d="M0,0 L3,0 L2,12 L-6,19 L-13,20 L-14,19 L-13,12 L-9,7 L-5,4 L-6,1 L-1,1 Z " fill="#D5D5D5" transform="translate(19,4)"/>
<path d="M0,0 L1,0 L1,6 L-6,12 L-13,13 L-14,12 L-13,5 L-8,2 L-10,7 L-11,10 L-4,7 L-2,5 Z " fill="#EDEDED" transform="translate(19,11)"/>
<path d="M0,0 L2,0 L2,6 L-4,11 L-8,11 L-7,6 Z " fill="#191919" transform="translate(16,10)"/>
</svg>
