<?xml version="1.0" encoding="UTF-8"?>
<svg version="1.1" xmlns="http://www.w3.org/2000/svg" width="28" height="28">
<path d="M0,0 L28,0 L28,28 L0,28 Z " fill="#020202" transform="translate(0,0)"/>
<path d="M0,0 L5,1 L7,3 L7,9 L1,17 L-4,20 L-9,20 L-11,18 L-10,10 L-4,2 Z " fill="#E8E8E8" transform="translate(17,4)"/>
<path d="M0,0 L3,1 L3,7 L-1,13 L-6,16 L-10,16 L-9,9 L-4,3 L-1,3 Z " fill="#0C0C0C" transform="translate(18,6)"/>
<path d="M0,0 L5,1 L7,3 L7,9 L1,17 L-2,15 L2,11 L3,9 L3,3 L-1,4 Z " fill="#D1D1D1" transform="translate(17,4)"/>
<path d="M0,0 L5,1 L6,3 L5,9 L4,9 L3,3 L-1,4 Z " fill="#AFAFAF" transform="translate(17,4)"/>
</svg>
