<?xml version="1.0" encoding="UTF-8"?>
<svg version="1.1" xmlns="http://www.w3.org/2000/svg" width="28" height="28">
<path d="M0,0 L28,0 L28,28 L0,28 Z " fill="#020202" transform="translate(0,0)"/>
<path d="M0,0 L5,0 L9,6 L9,14 L3,19 L1,20 L-6,20 L-10,16 L-9,9 L-8,6 L-6,6 L-6,4 Z " fill="#DFDFDF" transform="translate(15,5)"/>
<path d="M0,0 L6,0 L8,3 L8,9 L5,12 L2,13 L-5,13 L-6,7 L-5,4 L-3,4 Z " fill="#070707" transform="translate(14,9)"/>
<path d="M0,0 L4,0 L4,2 L0,4 L-7,4 L-4,1 Z " fill="#B3B3B3" transform="translate(16,21)"/>
<path d="M0,0 L3,2 L3,4 L9,5 L9,6 L2,6 L0,4 Z " fill="#F3F3F3" transform="translate(6,18)"/>
</svg>
