<?xml version="1.0" encoding="UTF-8"?>
<svg version="1.1" xmlns="http://www.w3.org/2000/svg" width="28" height="28">
<path d="M0,0 L28,0 L28,28 L0,28 Z " fill="#020202" transform="translate(0,0)"/>
<path d="M0,0 L5,2 L11,7 L13,14 L10,19 L7,20 L-2,20 L-7,15 L-6,7 Z " fill="#060606" transform="translate(11,4)"/>
<path d="M0,0 L5,2 L11,7 L13,14 L10,19 L7,20 L-2,20 L-7,15 L-6,7 Z M-1,4 L-4,8 L-5,15 L-2,18 L8,18 L11,13 L8,7 L6,7 L6,4 Z " fill="#C5C5C5" transform="translate(11,4)"/>
<path d="M0,0 L3,1 L3,3 L-2,6 L-4,5 Z " fill="#E6E6E6" transform="translate(11,4)"/>
</svg>
