<?xml version="1.0" encoding="UTF-8"?>
<svg version="1.1" xmlns="http://www.w3.org/2000/svg" width="28" height="28">
<path d="M0,0 L28,0 L28,28 L0,28 Z " fill="#020202" transform="translate(0,0)"/>
<path d="M0,0 L5,1 L6,6 L3,11 L-6,17 L-12,17 L-14,14 L-13,10 L-8,4 Z " fill="#DDDDDD" transform="translate(18,6)"/>
<path d="M0,0 L3,0 L2,5 L-5,11 L-10,12 L-11,9 L-8,4 Z " fill="#111111" transform="translate(18,9)"/>
<path d="M0,0 L2,3 L5,4 L5,6 L0,6 L-1,1 Z " fill="#F5F5F5" transform="translate(6,17)"/>
<path d="M0,0 L3,1 L1,5 L-1,6 L-3,4 Z " fill="#BDBDBD" transform="translate(20,12)"/>
</svg>
