<?xml version="1.0" encoding="UTF-8"?>
<svg version="1.1" xmlns="http://www.w3.org/2000/svg" width="28" height="28">
<path d="M0,0 L28,0 L28,28 L0,28 Z " fill="#040404" transform="translate(0,0)"/>
<path d="M0,0 L9,2 L12,5 L13,14 L8,19 L1,20 L-4,16 L-6,10 L-5,4 Z " fill="#0A0A0A" transform="translate(11,5)"/>
<path d="M0,0 L9,2 L12,5 L13,14 L8,19 L1,20 L-4,16 L-6,10 L-5,4 Z M-1,3 L-3,5 L-3,12 L1,17 L7,17 L11,13 L11,7 L7,5 L3,4 L2,7 L1,3 Z " fill="#E2E2E2" transform="translate(11,5)"/>
<path d="M0,0 L1,0 L3,8 L0,9 L-1,3 Z " fill="#F0F0F0" transform="translate(7,12)"/>
</svg>
