<?xml version="1.0" encoding="UTF-8"?>
<svg version="1.1" xmlns="http://www.w3.org/2000/svg" width="28" height="28">
<path d="M0,0 L28,0 L28,28 L0,28 Z " fill="#050505" transform="translate(0,0)"/>
<path d="M0,0 L8,2 L9,3 L9,14 L4,19 L1,20 L-6,20 L-10,19 L-10,13 L-4,3 Z " fill="#F0F0F0" transform="translate(14,4)"/>
<path d="M0,0 L7,0 L8,7 L4,12 L2,13 L-4,13 L-5,9 Z " fill="#0E0E0E" transform="translate(13,8)"/>
<path d="M0,0 L3,0 L2,4 L-1,11 L-3,9 L-5,10 L-3,4 Z " fill="#D3D3D3" transform="translate(9,9)"/>
</svg>
