<?xml version="1.0" encoding="UTF-8"?>
<svg version="1.1" xmlns="http://www.w3.org/2000/svg" width="28" height="28">
<path d="M0,0 L28,0 L28,28 L0,28 Z " fill="#020202" transform="translate(0,0)"/>
<path d="M0,0 L3,0 L4,2 L4,13 L-1,19 L-6,20 L-9,19 L-9,12 L-6,6 Z " fill="#E7E7E7" transform="translate(17,4)"/>
<path d="M0,0 L1,0 L1,7 L-3,12 L-8,13 L-11,12 L-11,5 L-8,4 L-8,9 L-3,8 L-2,4 Z " fill="#EDEDED" transform="translate(19,11)"/>
<path d="M0,0 L2,0 L2,5 L0,9 L-4,10 L-3,3 L-1,3 Z " fill="#141414" transform="translate(16,10)"/>
</svg>
