<?xml version="1.0" encoding="UTF-8"?>
<svg version="1.1" xmlns="http://www.w3.org/2000/svg" width="28" height="28">
<path d="M0,0 L28,0 L28,28 L0,28 Z " fill="#010101" transform="translate(0,0)"/>
<path d="M0,0 L3,0 L5,5 L5,14 L1,19 L-4,20 L-7,17 L-7,9 L-1,1 Z " fill="#E1E1E1" transform="translate(15,4)"/>
<path d="M0,0 L1,0 L1,10 L-4,14 L-7,12 L-6,4 L-2,3 Z " fill="#0E0E0E" transform="translate(17,8)"/>
<path d="M0,0 L3,0 L2,2 L1,6 L-1,8 L-3,6 L-2,2 Z " fill="#B3B3B3" transform="translate(15,4)"/>
</svg>
