<?xml version="1.0" encoding="UTF-8"?>
<svg version="1.1" xmlns="http://www.w3.org/2000/svg" width="28" height="28">
<path d="M0,0 L28,0 L28,28 L0,28 Z " fill="#010101" transform="translate(0,0)"/>
<path d="M0,0 L6,0 L12,4 L13,9 L9,11 L-4,11 L-7,8 L-6,4 L-3,2 L0,2 Z " fill="#080808" transform="translate(12,8)"/>
<path d="M0,0 L6,0 L12,4 L13,9 L9,11 L-4,11 L-7,8 L-6,4 L-3,2 L0,2 Z M2,1 L-4,5 L-4,9 L-2,10 L7,10 L11,9 L10,4 L4,1 Z " fill="#ADADAD" transform="translate(12,8)"/>
<path d="M0,0 L3,1 L-1,4 L-1,6 L1,7 L11,8 L11,9 L-1,9 L-4,6 L-3,2 Z " fill="#D7D7D7" transform="translate(9,10)"/>
</svg>
