<?xml version="1.0" encoding="UTF-8"?>
<svg version="1.1" xmlns="http://www.w3.org/2000/svg" width="28" height="28">
<path d="M0,0 L28,0 L28,28 L0,28 Z " fill="#030303" transform="translate(0,0)"/>
<path d="M0,0 L4,1 L9,11 L8,16 L5,19 L-5,20 L-9,17 L-9,10 L-2,4 L2,5 Z " fill="#090909" transform="translate(15,3)"/>
<path d="M0,0 L4,1 L9,11 L8,16 L5,19 L-5,20 L-9,17 L-9,10 L-2,4 L1,4 L1,8 L-4,9 L-6,11 L-5,16 L-4,17 L5,16 L5,8 L1,2 Z " fill="#D7D7D7" transform="translate(15,3)"/>
<path d="M0,0 L4,1 L8,8 L7,14 L6,14 L4,6 Z " fill="#C7C7C7" transform="translate(15,3)"/>
</svg>
