<?xml version="1.0" encoding="UTF-8"?>
<svg version="1.1" xmlns="http://www.w3.org/2000/svg" width="28" height="28">
<path d="M0,0 L28,0 L28,28 L0,28 Z " fill="#020202" transform="translate(0,0)"/>
<path d="M0,0 L3,0 L5,3 L5,14 L1,19 L-5,20 L-8,17 L-8,11 L-3,3 L-1,3 Z " fill="#D1D1D1" transform="translate(15,5)"/>
<path d="M0,0 L4,0 L6,2 L5,9 L1,13 L-3,12 L-3,5 Z " fill="#1D1D1D" transform="translate(13,10)"/>
<path d="M0,0 L3,0 L5,3 L5,11 L2,8 L2,5 L-3,7 L-4,9 L-6,9 L-4,4 L-1,3 Z " fill="#E8E8E8" transform="translate(15,5)"/>
</svg>
