<?xml version="1.0" encoding="UTF-8"?>
<svg version="1.1" xmlns="http://www.w3.org/2000/svg" width="28" height="28">
<path d="M0,0 L28,0 L28,28 L0,28 Z " fill="#010101" transform="translate(0,0)"/>
<path d="M0,0 L4,0 L4,2 L9,4 L12,8 L12,16 L7,20 L0,20 L-6,16 L-8,12 L-7,5 L-2,1 Z " fill="#060606" transform="translate(13,4)"/>
<path d="M0,0 L4,0 L4,2 L9,4 L12,8 L12,16 L7,20 L0,20 L-6,16 L-8,12 L-7,5 L-2,1 Z M0,2 L-4,4 L-6,7 L-6,13 L-2,17 L7,18 L11,14 L11,9 L7,5 L3,5 L3,2 Z " fill="#D7D7D7" transform="translate(13,4)"/>
</svg>
