<?xml version="1.0" encoding="UTF-8"?>
<svg version="1.1" xmlns="http://www.w3.org/2000/svg" width="28" height="28">
<path d="M0,0 L28,0 L28,28 L0,28 Z " fill="#020202" transform="translate(0,0)"/>
<path d="M0,0 L9,0 L13,3 L13,11 L6,18 L0,18 L-4,14 L-4,11 L-7,10 L-7,5 Z " fill="#E3E3E3" transform="translate(11,6)"/>
<path d="M0,0 L4,1 L2,9 L4,17 L0,16 L-3,13 L-3,10 L-6,9 L-6,4 Z " fill="#EFEFEF" transform="translate(10,7)"/>
<path d="M0,0 L5,1 L6,3 L6,9 L3,13 L0,12 L-2,7 Z " fill="#090909" transform="translate(13,8)"/>
</svg>
