<?xml version="1.0" encoding="UTF-8"?>
<svg version="1.1" xmlns="http://www.w3.org/2000/svg" width="28" height="28">
<path d="M0,0 L28,0 L28,28 L0,28 Z " fill="#030303" transform="translate(0,0)"/>
<path d="M0,0 L5,1 L6,6 L3,16 L0,19 L-3,20 L-10,20 L-12,18 L-11,11 L-8,7 L-6,7 L-5,4 L-3,4 L-3,2 Z " fill="#E1E1E1" transform="translate(17,4)"/>
<path d="M0,0 L2,0 L2,8 L-1,13 L-9,13 L-8,9 Z " fill="#101010" transform="translate(17,8)"/>
<path d="M0,0 L4,2 L3,11 L0,18 L-5,20 L-9,19 L-5,17 L-2,14 L0,4 L-3,5 L-1,1 Z " fill="#F1F1F1" transform="translate(19,4)"/>
<path d="M0,0 L2,0 L2,2 L8,2 L5,5 L0,4 Z " fill="#C8C8C8" transform="translate(6,19)"/>
</svg>
