<?xml version="1.0" encoding="UTF-8"?>
<svg version="1.1" xmlns="http://www.w3.org/2000/svg" width="28" height="28">
<path d="M0,0 L28,0 L28,28 L0,28 Z " fill="#030303" transform="translate(0,0)"/>
<path d="M0,0 L7,1 L10,3 L9,10 L6,15 L-1,20 L-6,20 L-8,18 L-8,8 L-5,2 Z " fill="#DBDBDB" transform="translate(15,5)"/>
<path d="M0,0 L4,0 L4,9 L-3,15 L-7,14 L-6,10 L-5,6 L-2,1 Z " fill="#101010" transform="translate(17,7)"/>
<path d="M0,0 L1,0 L1,5 L-1,8 L0,10 L-2,11 L-2,16 L1,16 L1,18 L-4,18 L-6,16 L-6,6 L-1,1 Z " fill="#F0F0F0" transform="translate(13,7)"/>
<path d="M0,0 L1,0 L2,8 L-5,14 L-10,13 L-7,11 L-1,6 Z " fill="#C3C3C3" transform="translate(21,10)"/>
</svg>
