<?xml version="1.0" encoding="UTF-8"?>
<svg version="1.1" xmlns="http://www.w3.org/2000/svg" width="28" height="28">
<path d="M0,0 L28,0 L28,28 L0,28 Z " fill="#030303" transform="translate(0,0)"/>
<path d="M0,0 L8,0 L11,1 L12,8 L7,16 L1,20 L-4,19 L-6,17 L-6,3 Z " fill="#EEEEEE" transform="translate(12,6)"/>
<path d="M0,0 L3,1 L2,8 L-5,14 L-7,14 L-6,6 L-4,3 L-2,3 L-2,5 L0,5 Z " fill="#171717" transform="translate(17,9)"/>
<path d="M0,0 L3,1 L2,8 L1,6 L-5,6 L-4,3 L-2,3 L-2,5 L0,5 Z " fill="#494949" transform="translate(17,9)"/>
</svg>
