<?xml version="1.0" encoding="UTF-8"?>
<svg version="1.1" xmlns="http://www.w3.org/2000/svg" width="28" height="28">
<path d="M0,0 L28,0 L28,28 L0,28 Z " fill="#020202" transform="translate(0,0)"/>
<path d="M0,0 L4,1 L6,3 L6,11 L5,13 L3,13 L1,17 L-3,20 L-8,19 L-9,18 L-9,12 L-2,2 Z " fill="#E6E6E6" transform="translate(16,4)"/>
<path d="M0,0 L2,0 L3,5 L-1,11 L-4,14 L-7,14 L-6,8 L-2,2 Z " fill="#0E0E0E" transform="translate(17,7)"/>
<path d="M0,0 L3,1 L2,5 L0,5 L-2,9 L-6,12 L-11,11 L-10,6 L-9,9 L-4,6 Z " fill="#CECECE" transform="translate(19,12)"/>
</svg>
