<?xml version="1.0" encoding="UTF-8"?>
<svg version="1.1" xmlns="http://www.w3.org/2000/svg" width="28" height="28">
<path d="M0,0 L28,0 L28,28 L0,28 Z " fill="#020202" transform="translate(0,0)"/>
<path d="M0,0 L6,0 L8,0 L11,0 L11,7 L5,14 L-1,18 L-8,17 L-9,16 L-9,9 L-3,2 Z " fill="#E6E6E6" transform="translate(14,6)"/>
<path d="M0,0 L5,0 L8,2 L6,6 L-1,12 L-6,12 L-5,5 Z " fill="#0C0C0C" transform="translate(14,9)"/>
<path d="M0,0 L4,2 L3,6 L-3,3 L0,2 Z " fill="#ADADAD" transform="translate(19,6)"/>
</svg>
