<?xml version="1.0" encoding="UTF-8"?>
<svg version="1.1" xmlns="http://www.w3.org/2000/svg" width="28" height="28">
<path d="M0,0 L28,0 L28,28 L0,28 Z " fill="#030303" transform="translate(0,0)"/>
<path d="M0,0 L5,1 L6,2 L6,11 L0,18 L-4,20 L-9,20 L-10,19 L-10,10 L-6,4 Z " fill="#E3E3E3" transform="translate(17,4)"/>
<path d="M0,0 L2,0 L2,9 L-2,14 L-8,16 L-8,8 L-2,1 Z " fill="#0A0A0A" transform="translate(18,6)"/>
<path d="M0,0 L5,1 L6,2 L6,11 L4,11 L3,3 L-2,5 L-7,10 L-9,10 L-7,5 Z " fill="#EDEDED" transform="translate(17,4)"/>
<path d="M0,0 L1,0 L2,10 L-5,16 L-9,14 L-3,11 L-1,8 Z " fill="#DFDFDF" transform="translate(20,7)"/>
<path d="M0,0 L1,0 L2,10 L-2,11 Z " fill="#AFAFAF" transform="translate(20,7)"/>
</svg>
