<?xml version="1.0" encoding="UTF-8"?>
<svg version="1.1" xmlns="http://www.w3.org/2000/svg" width="28" height="28">
<path d="M0,0 L28,0 L28,28 L0,28 Z " fill="#020202" transform="translate(0,0)"/>
<path d="M0,0 L6,1 L11,6 L15,13 L14,17 L9,20 L-2,20 L-5,16 L-5,9 L-3,4 Z " fill="#0A0A0A" transform="translate(10,4)"/>
<path d="M0,0 L6,1 L11,6 L15,13 L14,17 L9,20 L-2,20 L-5,16 L-5,9 L-3,4 Z M1,3 L1,5 L-2,6 L-2,15 L1,18 L9,17 L12,15 L11,11 L4,3 Z " fill="#DEDEDE" transform="translate(10,4)"/>
</svg>
