<?xml version="1.0" encoding="UTF-8"?>
<svg version="1.1" xmlns="http://www.w3.org/2000/svg" width="28" height="28">
<path d="M0,0 L28,0 L28,28 L0,28 Z " fill="#040404" transform="translate(0,0)"/>
<path d="M0,0 L6,1 L8,3 L8,10 L4,16 L0,19 L-5,20 L-10,18 L-10,8 L-5,3 Z " fill="#0D0D0D" transform="translate(16,5)"/>
<path d="M0,0 L6,1 L8,3 L8,10 L4,16 L0,19 L-5,20 L-10,18 L-10,8 L-5,3 Z M0,3 L-6,7 L-8,10 L-8,15 L-6,17 L0,16 L5,11 L6,5 L5,3 Z " fill="#E4E4E4" transform="translate(16,5)"/>
<path d="M0,0 L9,1 L9,3 L4,4 L0,2 Z " fill="#F4F4F4" transform="translate(7,21)"/>
</svg>
