<?xml version="1.0" encoding="UTF-8"?>
<svg version="1.1" xmlns="http://www.w3.org/2000/svg" width="28" height="28">
<path d="M0,0 L28,0 L28,28 L0,28 Z " fill="#020202" transform="translate(0,0)"/>
<path d="M0,0 L5,0 L6,1 L6,8 L2,14 L-5,20 L-11,20 L-11,12 L-5,4 Z " fill="#DCDCDC" transform="translate(18,4)"/>
<path d="M0,0 L3,0 L2,8 L-5,14 L-8,14 L-6,7 Z " fill="#0C0C0C" transform="translate(19,7)"/>
<path d="M0,0 L1,3 L3,3 L4,0 L4,3 L6,3 L6,5 L0,5 Z " fill="#FAFAFA" transform="translate(7,19)"/>
</svg>
