<?xml version="1.0" encoding="UTF-8"?>
<svg version="1.1" xmlns="http://www.w3.org/2000/svg" width="28" height="28">
<path d="M0,0 L28,0 L28,28 L0,28 Z " fill="#020202" transform="translate(0,0)"/>
<path d="M0,0 L7,1 L7,8 L3,14 L-3,19 L-9,20 L-12,16 L-11,11 L-8,6 L-5,2 Z " fill="#CDCDCD" transform="translate(17,5)"/>
<path d="M0,0 L1,0 L1,6 L-4,12 L-8,14 L-13,14 L-12,7 L-10,6 L-9,11 L-8,7 L-5,2 Z " fill="#0E0E0E" transform="translate(21,8)"/>
<path d="M0,0 L7,1 L7,8 L4,11 L4,4 L-2,6 L-5,5 L-5,2 Z " fill="#E3E3E3" transform="translate(17,5)"/>
</svg>
