<?xml version="1.0" encoding="UTF-8"?>
<svg version="1.1" xmlns="http://www.w3.org/2000/svg" width="28" height="28">
<path d="M0,0 L28,0 L28,28 L0,28 Z " fill="#020202" transform="translate(0,0)"/>
<path d="M0,0 L2,0 L3,7 L-1,17 L-4,20 L-8,20 L-9,16 L-3,4 Z " fill="#D3D3D3" transform="translate(17,4)"/>
<path d="M0,0 L1,4 L-3,14 L-6,15 L-7,12 L-2,3 Z " fill="#171717" transform="translate(17,7)"/>
<path d="M0,0 L1,3 L-1,9 L3,8 L1,12 L-3,12 L-4,8 Z " fill="#E9E9E9" transform="translate(12,12)"/>
</svg>
