<?xml version="1.0" encoding="UTF-8"?>
<svg version="1.1" xmlns="http://www.w3.org/2000/svg" width="28" height="28">
<path d="M0,0 L28,0 L28,28 L0,28 Z " fill="#020202" transform="translate(0,0)"/>
<path d="M0,0 L7,0 L10,3 L9,11 L4,16 L-2,19 L-8,19 L-10,18 L-9,12 L-3,3 Z " fill="#DFDFDF" transform="translate(15,5)"/>
<path d="M0,0 L5,1 L4,7 L-2,13 L-8,13 L-6,7 Z " fill="#080808" transform="translate(17,8)"/>
<path d="M0,0 L1,3 L-2,9 L5,9 L2,12 L-4,12 L-6,11 L-5,5 Z " fill="#EBEBEB" transform="translate(11,12)"/>
<path d="M0,0 L7,0 L6,3 L1,5 L-3,9 L-5,9 L-7,10 L-5,6 Z " fill="#C7C7C7" transform="translate(15,5)"/>
</svg>
