<?xml version="1.0" encoding="UTF-8"?>
<svg version="1.1" xmlns="http://www.w3.org/2000/svg" width="28" height="28">
<path d="M0,0 L28,0 L28,28 L0,28 Z " fill="#010101" transform="translate(0,0)"/>
<path d="M0,0 L3,0 L3,2 L8,3 L13,11 L12,16 L9,17 L9,19 L7,20 L-1,20 L-5,15 L-4,5 Z " fill="#0B0B0B" transform="translate(11,3)"/>
<path d="M0,0 L2,0 L0,4 L-1,7 L-1,15 L1,17 L8,16 L10,14 L9,8 L6,5 L3,4 L3,2 L8,3 L13,11 L12,16 L9,17 L9,19 L7,20 L-1,20 L-5,15 L-4,5 Z " fill="#CFCFCF" transform="translate(11,3)"/>
</svg>
