<?xml version="1.0" encoding="UTF-8"?>
<svg version="1.1" xmlns="http://www.w3.org/2000/svg" width="28" height="28">
<path d="M0,0 L28,0 L28,28 L0,28 Z " fill="#030303" transform="translate(0,0)"/>
<path d="M0,0 L4,0 L9,6 L10,8 L10,16 L4,20 L-5,20 L-7,18 L-6,8 L-3,2 Z " fill="#070707" transform="translate(13,4)"/>
<path d="M0,0 L4,0 L9,6 L10,8 L10,16 L4,20 L-5,20 L-7,18 L-6,8 L-3,2 Z M-1,3 L-4,9 L-5,17 L-4,18 L3,18 L8,15 L8,8 L7,5 Z " fill="#E2E2E2" transform="translate(13,4)"/>
<path d="M0,0 L1,0 L2,6 L-3,9 L-5,7 L-1,5 Z " fill="#C2C2C2" transform="translate(21,14)"/>
</svg>
