<?xml version="1.0" encoding="UTF-8"?>
<svg version="1.1" xmlns="http://www.w3.org/2000/svg" width="28" height="28">
<path d="M0,0 L28,0 L28,28 L0,28 Z " fill="#030303" transform="translate(0,0)"/>
<path d="M0,0 L2,0 L6,9 L5,15 L1,19 L-6,20 L-8,18 L-7,12 L-1,1 Z " fill="#E6E6E6" transform="translate(15,4)"/>
<path d="M0,0 L4,3 L3,9 L2,11 L-6,12 L-4,6 Z " fill="#101010" transform="translate(15,9)"/>
<path d="M0,0 L2,3 L1,5 L5,6 L2,6 L1,8 L-1,6 Z " fill="#CECECE" transform="translate(8,16)"/>
</svg>
