<?xml version="1.0" encoding="UTF-8"?>
<svg version="1.1" xmlns="http://www.w3.org/2000/svg" width="28" height="28">
<path d="M0,0 L28,0 L28,28 L0,28 Z " fill="#020202" transform="translate(0,0)"/>
<path d="M0,0 L3,0 L6,6 L7,14 L4,19 L3,20 L-4,20 L-5,19 L-4,10 Z " fill="#DBDBDB" transform="translate(13,4)"/>
<path d="M0,0 L3,2 L3,10 L-1,12 L-4,12 L-2,3 Z " fill="#0E0E0E" transform="translate(14,10)"/>
<path d="M0,0 L3,0 L6,6 L7,13 L5,13 L2,7 L-1,8 Z " fill="#EAEAEA" transform="translate(13,4)"/>
<path d="M0,0 L1,3 L3,4 L0,9 L-3,9 L-4,7 L-1,6 Z " fill="#B2B2B2" transform="translate(17,14)"/>
<path d="M0,0 L1,3 L6,3 L5,5 L0,5 L-1,1 Z " fill="#F9F9F9" transform="translate(9,19)"/>
</svg>
