<?xml version="1.0" encoding="UTF-8"?>
<svg version="1.1" xmlns="http://www.w3.org/2000/svg" width="28" height="28">
<path d="M0,0 L28,0 L28,28 L0,28 Z " fill="#020202" transform="translate(0,0)"/>
<path d="M0,0 L7,0 L10,2 L11,13 L7,19 L5,20 L-1,20 L-4,14 L-4,5 L-2,1 Z " fill="#090909" transform="translate(11,5)"/>
<path d="M0,0 L7,0 L10,2 L11,13 L7,19 L5,20 L-1,20 L-4,14 L-4,5 L-2,1 Z M-1,3 L-2,13 L0,17 L6,17 L9,14 L9,5 L7,3 Z " fill="#EAEAEA" transform="translate(11,5)"/>
<path d="M0,0 L3,1 L6,3 L-1,3 L-2,11 L-4,14 L-4,5 L-2,1 Z " fill="#CDCDCD" transform="translate(11,5)"/>
</svg>
