<?xml version="1.0" encoding="UTF-8"?>
<svg version="1.1" xmlns="http://www.w3.org/2000/svg" width="28" height="28">
<path d="M0,0 L28,0 L28,28 L0,28 Z " fill="#020202" transform="translate(0,0)"/>
<path d="M0,0 L7,1 L9,4 L8,10 L3,14 L1,15 L-10,15 L-11,9 L-8,5 L-6,5 L-6,3 Z " fill="#D5D5D5" transform="translate(15,6)"/>
<path d="M0,0 L0,3 L-2,7 L8,5 L12,2 L11,7 L6,10 L-5,10 L-5,5 Z " fill="#F0F0F0" transform="translate(10,11)"/>
<path d="M0,0 L1,4 L3,4 L3,2 L5,2 L4,7 L0,9 L-7,9 L-5,4 Z " fill="#161616" transform="translate(15,9)"/>
</svg>
