<?xml version="1.0" encoding="UTF-8"?>
<svg version="1.1" xmlns="http://www.w3.org/2000/svg" width="28" height="28">
<path d="M0,0 L28,0 L28,28 L0,28 Z " fill="#020202" transform="translate(0,0)"/>
<path d="M0,0 L4,1 L7,7 L7,14 L2,20 L-2,18 L-5,13 L-4,3 L-3,1 Z " fill="#0B0B0B" transform="translate(14,4)"/>
<path d="M0,0 L4,1 L7,7 L7,14 L2,20 L-2,18 L-5,13 L-4,3 L-3,1 Z M0,2 L-3,7 L-2,16 L2,18 L5,13 L4,4 L3,2 Z " fill="#D4D4D4" transform="translate(14,4)"/>
<path d="M0,0 L4,1 L5,5 L3,4 L3,2 L0,3 L-3,6 L-4,3 L-3,1 Z " fill="#C8C8C8" transform="translate(14,4)"/>
</svg>
