<?xml version="1.0" encoding="UTF-8"?>
<svg version="1.1" xmlns="http://www.w3.org/2000/svg" width="28" height="28">
<path d="M0,0 L28,0 L28,28 L0,28 Z " fill="#020202" transform="translate(0,0)"/>
<path d="M0,0 L7,2 L7,10 L1,15 L-4,18 L-11,17 L-11,11 L-6,5 L-4,5 L-4,3 Z " fill="#DCDCDC" transform="translate(16,5)"/>
<path d="M0,0 L2,0 L1,5 L-6,9 L-13,8 L-12,3 L-10,2 L-10,5 L-2,2 Z " fill="#E6E6E6" transform="translate(18,14)"/>
<path d="M0,0 L4,0 L3,5 L-3,9 L-7,8 Z " fill="#151515" transform="translate(15,10)"/>
</svg>
