<?xml version="1.0" encoding="UTF-8"?>
<svg version="1.1" xmlns="http://www.w3.org/2000/svg" width="28" height="28">
<path d="M0,0 L28,0 L28,28 L0,28 Z " fill="#020202" transform="translate(0,0)"/>
<path d="M0,0 L5,1 L9,7 L9,14 L4,20 L-2,20 L-6,16 L-6,9 L-3,3 Z " fill="#0E0E0E" transform="translate(13,4)"/>
<path d="M0,0 L5,1 L9,7 L9,14 L4,20 L-2,20 L-6,16 L-6,9 L-3,3 Z M0,3 L-4,11 L-3,17 L4,17 L7,13 L7,7 L3,3 Z " fill="#E5E5E5" transform="translate(13,4)"/>
<path d="M0,0 L2,2 L3,8 L8,8 L6,11 L2,10 L0,7 Z " fill="#C2C2C2" transform="translate(7,13)"/>
</svg>
