<?xml version="1.0" encoding="UTF-8"?>
<svg version="1.1" xmlns="http://www.w3.org/2000/svg" width="28" height="28">
<path d="M0,0 L28,0 L28,28 L0,28 Z " fill="#020202" transform="translate(0,0)"/>
<path d="M0,0 L5,0 L7,2 L7,12 L5,16 L3,16 L3,18 L0,20 L-5,19 L-7,16 L-7,10 L-3,1 Z " fill="#E9E9E9" transform="translate(14,5)"/>
<path d="M0,0 L1,0 L1,9 L5,9 L5,7 L8,7 L7,11 L4,13 L-1,12 L-3,9 L-3,3 Z " fill="#E9E9E9" transform="translate(10,12)"/>
<path d="M0,0 L4,0 L3,9 L1,9 L1,11 L-3,11 L-3,4 Z " fill="#080808" transform="translate(14,10)"/>
<path d="M0,0 L1,0 L1,10 L-2,14 L-3,9 L-1,9 Z " fill="#CCCCCC" transform="translate(20,7)"/>
</svg>
