<?xml version="1.0" encoding="UTF-8"?>
<svg version="1.1" xmlns="http://www.w3.org/2000/svg" width="28" height="28">
<path d="M0,0 L28,0 L28,28 L0,28 Z " fill="#020202" transform="translate(0,0)"/>
<path d="M0,0 L4,1 L7,4 L8,14 L6,18 L3,20 L-2,19 L-3,18 L-4,11 L-5,10 L-5,5 Z " fill="#ECECEC" transform="translate(13,4)"/>
<path d="M0,0 L4,2 L6,9 L3,15 L-1,14 L-2,3 Z " fill="#171717" transform="translate(13,7)"/>
<path d="M0,0 L4,1 L7,4 L7,6 L4,7 L0,3 L-1,6 L-3,6 L-5,10 L-5,5 Z " fill="#D5D5D5" transform="translate(13,4)"/>
</svg>
