<?xml version="1.0" encoding="UTF-8"?>
<svg version="1.1" xmlns="http://www.w3.org/2000/svg" width="28" height="28">
<path d="M0,0 L28,0 L28,28 L0,28 Z " fill="#030303" transform="translate(0,0)"/>
<path d="M0,0 L7,1 L13,5 L14,12 L10,17 L4,20 L-3,20 L-6,17 L-5,8 L1,3 Z " fill="#D5D5D5" transform="translate(11,4)"/>
<path d="M0,0 L6,2 L7,9 L1,14 L-7,14 L-7,7 L-2,2 L0,2 Z " fill="#060606" transform="translate(15,7)"/>
<path d="M0,0 L7,1 L8,3 L4,3 L4,5 L-2,10 L-4,17 L-6,17 L-5,8 L1,3 Z " fill="#DFDFDF" transform="translate(11,4)"/>
<path d="M0,0 L0,3 L-3,11 L-5,11 L-5,5 Z " fill="#F5F5F5" transform="translate(10,10)"/>
<path d="M0,0 L1,4 L8,4 L8,5 L3,6 L0,6 L-1,4 Z " fill="#B5B5B5" transform="translate(7,17)"/>
</svg>
