<?xml version="1.0" encoding="UTF-8"?>
<svg version="1.1" xmlns="http://www.w3.org/2000/svg" width="28" height="28">
<path d="M0,0 L28,0 L28,28 L0,28 Z " fill="#020202" transform="translate(0,0)"/>
<path d="M0,0 L5,1 L10,7 L9,14 L6,19 L2,20 L-1,18 L-1,1 Z " fill="#101010" transform="translate(11,5)"/>
<path d="M0,0 L5,1 L10,7 L9,14 L6,19 L2,20 L-1,18 L-1,1 Z M1,2 L1,6 L1,16 L3,18 L7,14 L8,7 L4,2 Z " fill="#E0E0E0" transform="translate(11,5)"/>
<path d="M0,0 L1,0 L3,7 L4,10 L-1,8 Z " fill="#BFBFBF" transform="translate(11,15)"/>
</svg>
