<?xml version="1.0" encoding="UTF-8"?>
<svg version="1.1" xmlns="http://www.w3.org/2000/svg" width="28" height="28">
<path d="M0,0 L28,0 L28,28 L0,28 Z " fill="#010101" transform="translate(0,0)"/>
<path d="M0,0 L8,0 L12,4 L13,6 L13,12 L9,18 L7,20 L1,20 L-4,15 L-5,6 L-3,2 Z " fill="#E1E1E1" transform="translate(10,5)"/>
<path d="M0,0 L1,0 L1,7 L0,10 L-3,12 L-7,11 L-9,9 L-9,5 L-3,4 L-1,3 Z " fill="#060606" transform="translate(18,10)"/>
<path d="M0,0 L3,0 L4,3 L1,5 L-3,4 Z " fill="#0E0E0E" transform="translate(11,8)"/>
</svg>
