<?xml version="1.0" encoding="UTF-8"?>
<svg version="1.1" xmlns="http://www.w3.org/2000/svg" width="28" height="28">
<path d="M0,0 L28,0 L28,28 L0,28 Z " fill="#020202" transform="translate(0,0)"/>
<path d="M0,0 L3,2 L3,13 L-2,18 L-5,20 L-14,19 L-16,15 L-15,9 L-11,4 Z " fill="#090909" transform="translate(20,4)"/>
<path d="M0,0 L3,2 L3,13 L-2,18 L-5,20 L-14,19 L-16,15 L-15,9 L-11,4 Z M-6,4 L-13,10 L-14,15 L-12,17 L-4,17 L0,13 L0,4 Z " fill="#D5D5D5" transform="translate(20,4)"/>
<path d="M0,0 L3,1 L3,8 L1,11 L1,3 L-1,3 Z " fill="#F7F7F7" transform="translate(20,5)"/>
</svg>
