<?xml version="1.0" encoding="UTF-8"?>
<svg version="1.1" xmlns="http://www.w3.org/2000/svg" width="28" height="28">
<path d="M0,0 L28,0 L28,28 L0,28 Z " fill="#010101" transform="translate(0,0)"/>
<path d="M0,0 L6,0 L12,8 L12,15 L7,20 L0,19 L-2,17 L-3,7 L-3,3 Z " fill="#D6D6D6" transform="translate(11,5)"/>
<path d="M0,0 L5,1 L7,4 L7,12 L6,14 L0,14 L-2,10 Z " fill="#070707" transform="translate(13,8)"/>
<path d="M0,0 L6,0 L3,1 L2,5 L-2,3 Z " fill="#F4F4F4" transform="translate(10,6)"/>
<path d="M0,0 L3,1 L4,3 L8,5 L2,6 L0,4 Z " fill="#BEBEBE" transform="translate(9,18)"/>
</svg>
