<?xml version="1.0" encoding="UTF-8"?>
<svg version="1.1" xmlns="http://www.w3.org/2000/svg" width="28" height="28">
<path d="M0,0 L28,0 L28,28 L0,28 Z " fill="#020202" transform="translate(0,0)"/>
<path d="M0,0 L5,0 L5,2 L8,3 L11,10 L10,16 L9,18 L7,18 L7,20 L1,20 L-4,14 L-5,5 Z " fill="#E3E3E3" transform="translate(12,5)"/>
<path d="M0,0 L3,1 L4,3 L4,11 L2,13 L-3,12 L-5,10 L-5,5 L-3,4 L-3,1 Z " fill="#0A0A0A" transform="translate(15,9)"/>
<path d="M0,0 L1,4 L3,4 L2,8 L0,8 L0,10 L-3,10 Z " fill="#C9C9C9" transform="translate(19,15)"/>
</svg>
