<?xml version="1.0" encoding="UTF-8"?>
<svg version="1.1" xmlns="http://www.w3.org/2000/svg" width="28" height="28">
<path d="M0,0 L28,0 L28,28 L0,28 Z " fill="#020202" transform="translate(0,0)"/>
<path d="M0,0 L5,0 L5,12 L1,18 L-2,20 L-7,19 L-8,10 L-6,5 Z " fill="#E8E8E8" transform="translate(15,5)"/>
<path d="M0,0 L5,1 L5,8 L1,13 L-3,14 L-4,7 L-1,1 Z " fill="#101010" transform="translate(13,9)"/>
<path d="M0,0 L2,1 L3,3 L-1,5 L-3,10 L-5,8 L-4,4 Z " fill="#CBCBCB" transform="translate(13,6)"/>
</svg>
