<?xml version="1.0" encoding="UTF-8"?>
<svg version="1.1" xmlns="http://www.w3.org/2000/svg" width="28" height="28">
<path d="M0,0 L28,0 L28,28 L0,28 Z " fill="#030303" transform="translate(0,0)"/>
<path d="M0,0 L5,3 L8,9 L7,14 L5,14 L5,16 L-5,20 L-10,19 L-10,13 L-5,5 L-2,2 L0,2 Z " fill="#0C0C0C" transform="translate(16,4)"/>
<path d="M0,0 L5,3 L8,9 L7,14 L5,14 L5,16 L-5,20 L-10,19 L-10,13 L-5,5 L-2,2 L0,2 Z M0,3 L-5,8 L-5,11 L-7,11 L-8,18 L-3,18 L6,12 L4,6 Z " fill="#DCDCDC" transform="translate(16,4)"/>
</svg>
