<?xml version="1.0" encoding="UTF-8"?>
<svg version="1.1" xmlns="http://www.w3.org/2000/svg" width="28" height="28">
<path d="M0,0 L28,0 L28,28 L0,28 Z " fill="#030303" transform="translate(0,0)"/>
<path d="M0,0 L5,5 L4,13 L1,14 L-1,18 L-4,20 L-13,20 L-12,13 L-4,3 L0,2 Z " fill="#D5D5D5" transform="translate(18,3)"/>
<path d="M0,0 L4,1 L3,6 L-2,13 L-6,15 L-9,15 L-9,10 Z " fill="#0E0E0E" transform="translate(17,7)"/>
<path d="M0,0 L5,5 L4,10 L2,11 L2,5 L-2,3 Z " fill="#F0F0F0" transform="translate(18,3)"/>
</svg>
