<?xml version="1.0" encoding="UTF-8"?>
<svg version="1.1" xmlns="http://www.w3.org/2000/svg" width="28" height="28">
<path d="M0,0 L28,0 L28,28 L0,28 Z " fill="#040404" transform="translate(0,0)"/>
<path d="M0,0 L5,2 L5,13 L0,19 L-5,20 L-11,18 L-11,10 L-4,2 Z " fill="#EBEBEB" transform="translate(17,4)"/>
<path d="M0,0 L3,0 L2,9 L-2,14 L-9,14 L-9,9 L-5,4 Z " fill="#121212" transform="translate(17,7)"/>
<path d="M0,0 L2,1 L-1,6 L-3,6 L-4,9 L-7,9 L-7,6 Z " fill="#D5D5D5" transform="translate(15,5)"/>
</svg>
