<?xml version="1.0" encoding="UTF-8"?>
<svg version="1.1" xmlns="http://www.w3.org/2000/svg" width="28" height="28">
<path d="M0,0 L28,0 L28,28 L0,28 Z " fill="#040404" transform="translate(0,0)"/>
<path d="M0,0 L5,0 L6,7 L3,14 L-4,19 L-9,19 L-10,17 L-10,11 L-6,5 Z " fill="#DDDDDD" transform="translate(17,5)"/>
<path d="M0,0 L4,1 L2,8 L-5,14 L-8,14 L-7,7 L-3,2 Z " fill="#0F0F0F" transform="translate(17,8)"/>
<path d="M0,0 L1,4 L7,3 L7,5 L0,6 L-1,1 Z " fill="#F9F9F9" transform="translate(8,18)"/>
</svg>
