<?xml version="1.0" encoding="UTF-8"?>
<svg version="1.1" xmlns="http://www.w3.org/2000/svg" width="28" height="28">
<path d="M0,0 L28,0 L28,28 L0,28 Z " fill="#020202" transform="translate(0,0)"/>
<path d="M0,0 L5,0 L10,5 L9,14 L1,20 L-4,20 L-6,17 L-6,8 Z " fill="#0B0B0B" transform="translate(13,4)"/>
<path d="M0,0 L5,0 L10,5 L9,14 L1,20 L-4,20 L-6,17 L-6,8 Z M2,2 L-3,8 L-4,16 L-3,17 L4,16 L8,10 L7,4 Z " fill="#D5D5D5" transform="translate(13,4)"/>
<path d="M0,0 L4,1 L8,5 L8,11 L6,13 L4,4 L0,3 L-4,5 Z " fill="#ECECEC" transform="translate(15,4)"/>
</svg>
