<?xml version="1.0" encoding="UTF-8"?>
<svg version="1.1" xmlns="http://www.w3.org/2000/svg" width="28" height="28">
<path d="M0,0 L28,0 L28,28 L0,28 Z " fill="#020202" transform="translate(0,0)"/>
<path d="M0,0 L7,1 L10,5 L10,11 L6,17 L0,20 L-6,19 L-8,17 L-8,11 L-3,3 Z " fill="#070707" transform="translate(14,4)"/>
<path d="M0,0 L3,1 L3,3 L-1,4 L-4,9 L-5,14 L-4,17 L2,16 L7,11 L7,5 L5,1 L9,3 L10,5 L10,11 L6,17 L0,20 L-6,19 L-8,17 L-8,11 L-3,3 Z " fill="#C3C3C3" transform="translate(14,4)"/>
<path d="M0,0 L3,1 L3,3 L-1,4 L-4,9 L-6,16 L-7,16 L-7,9 L-3,3 Z " fill="#E1E1E1" transform="translate(14,4)"/>
</svg>
