<?xml version="1.0" encoding="UTF-8"?>
<svg version="1.1" xmlns="http://www.w3.org/2000/svg" width="28" height="28">
<path d="M0,0 L28,0 L28,28 L0,28 Z " fill="#030303" transform="translate(0,0)"/>
<path d="M0,0 L4,1 L7,12 L3,18 L0,20 L-7,19 L-9,17 L-8,8 L-3,2 Z " fill="#0B0B0B" transform="translate(16,4)"/>
<path d="M0,0 L4,1 L7,12 L3,18 L0,20 L-7,19 L-9,17 L-8,8 L-3,2 Z M0,3 L-5,8 L-7,12 L-6,17 L1,17 L4,14 L4,7 Z " fill="#D1D1D1" transform="translate(16,4)"/>
<path d="M0,0 L1,2 L-1,6 L0,11 L4,13 L1,14 L-4,11 L-3,2 Z " fill="#ECECEC" transform="translate(11,10)"/>
</svg>
