<?xml version="1.0" encoding="UTF-8"?>
<svg version="1.1" xmlns="http://www.w3.org/2000/svg" width="28" height="28">
<path d="M0,0 L28,0 L28,28 L0,28 Z " fill="#020202" transform="translate(0,0)"/>
<path d="M0,0 L5,0 L6,3 L6,11 L4,11 L3,15 L1,15 L1,17 L-5,20 L-11,19 L-12,12 L-9,10 L-6,5 L-4,5 L-4,2 Z " fill="#E4E4E4" transform="translate(17,4)"/>
<path d="M0,0 L4,1 L1,1 L1,6 L6,5 L11,0 L13,0 L12,5 L10,5 L10,7 L4,10 L-2,9 L-3,2 Z " fill="#EAEAEA" transform="translate(8,14)"/>
<path d="M0,0 L2,0 L1,7 L-6,13 L-10,12 L-9,7 L-5,5 Z " fill="#1A1A1A" transform="translate(18,8)"/>
</svg>
