<?xml version="1.0" encoding="UTF-8"?>
<svg version="1.1" xmlns="http://www.w3.org/2000/svg" width="28" height="28">
<path d="M0,0 L28,0 L28,28 L0,28 Z " fill="#050505" transform="translate(0,0)"/>
<path d="M0,0 L7,0 L10,2 L10,4 L12,4 L12,11 L7,17 L4,18 L-4,18 L-8,13 L-7,7 L-2,1 Z " fill="#E6E6E6" transform="translate(13,5)"/>
<path d="M0,0 L4,1 L6,5 L4,10 L1,13 L-5,14 L-9,11 L-9,4 L-4,1 L-3,7 Z " fill="#0E0E0E" transform="translate(17,7)"/>
<path d="M0,0 L3,1 L3,6 L1,3 L-2,5 L-2,2 Z " fill="#CBCBCB" transform="translate(11,6)"/>
</svg>
