<?xml version="1.0" encoding="UTF-8"?>
<svg version="1.1" xmlns="http://www.w3.org/2000/svg" width="28" height="28">
<path d="M0,0 L28,0 L28,28 L0,28 Z " fill="#020202" transform="translate(0,0)"/>
<path d="M0,0 L6,1 L9,5 L9,13 L-1,20 L-6,20 L-7,19 L-7,12 L-2,3 Z " fill="#EFEFEF" transform="translate(14,4)"/>
<path d="M0,0 L4,1 L5,6 L0,11 L-3,13 L-6,13 L-5,7 L-2,1 Z " fill="#131313" transform="translate(16,8)"/>
<path d="M0,0 L6,1 L9,5 L9,13 L8,13 L8,6 L0,5 L-2,11 L-5,11 L-5,8 Z " fill="#D8D8D8" transform="translate(14,4)"/>
</svg>
