<?xml version="1.0" encoding="UTF-8"?>
<svg version="1.1" xmlns="http://www.w3.org/2000/svg" width="28" height="28">
<path d="M0,0 L28,0 L28,28 L0,28 Z " fill="#020202" transform="translate(0,0)"/>
<path d="M0,0 L6,1 L9,4 L7,11 L4,15 L2,15 L2,17 L-2,19 L-7,19 L-11,14 L-10,5 Z " fill="#E6E6E6" transform="translate(16,5)"/>
<path d="M0,0 L5,0 L6,5 L1,11 L-3,12 L-3,3 Z " fill="#080808" transform="translate(14,8)"/>
<path d="M0,0 L1,3 L-4,5 L-7,7 L-7,4 Z " fill="#CCCCCC" transform="translate(13,6)"/>
</svg>
