<?xml version="1.0" encoding="UTF-8"?>
<svg version="1.1" xmlns="http://www.w3.org/2000/svg" width="28" height="28">
<path d="M0,0 L28,0 L28,28 L0,28 Z " fill="#020202" transform="translate(0,0)"/>
<path d="M0,0 L3,0 L4,3 L8,6 L8,15 L5,20 L-9,20 L-8,11 L-5,6 L-3,6 L-1,1 Z " fill="#EBEBEB" transform="translate(14,4)"/>
<path d="M0,0 L7,0 L8,5 L3,10 L2,11 L-3,11 L-2,4 Z " fill="#0C0C0C" transform="translate(11,12)"/>
<path d="M0,0 L1,2 L3,3 L1,9 L-2,11 L-1,2 Z " fill="#D1D1D1" transform="translate(7,13)"/>
</svg>
