<?xml version="1.0" encoding="UTF-8"?>
<svg version="1.1" xmlns="http://www.w3.org/2000/svg" width="28" height="28">
<path d="M0,0 L28,0 L28,28 L0,28 Z " fill="#030303" transform="translate(0,0)"/>
<path d="M0,0 L5,0 L10,5 L8,15 L3,20 L-6,20 L-10,15 L-10,9 L-5,3 Z " fill="#0B0B0B" transform="translate(15,5)"/>
<path d="M0,0 L5,0 L10,5 L8,15 L3,20 L-6,20 L-10,15 L-10,9 L-5,3 Z M-1,4 L-6,9 L-7,15 L-4,18 L3,17 L6,14 L7,6 L5,6 L5,4 Z " fill="#EAEAEA" transform="translate(15,5)"/>
<path d="M0,0 L2,2 L0,4 L-9,4 L-7,2 Z " fill="#C6C6C6" transform="translate(18,21)"/>
</svg>
