<?xml version="1.0" encoding="UTF-8"?>
<svg version="1.1" xmlns="http://www.w3.org/2000/svg" width="28" height="28">
<path d="M0,0 L28,0 L28,28 L0,28 Z " fill="#020202" transform="translate(0,0)"/>
<path d="M0,0 L5,1 L7,5 L7,11 L4,17 L-1,20 L-5,20 L-5,13 L-3,9 L-2,2 Z " fill="#DEDEDE" transform="translate(14,4)"/>
<path d="M0,0 L1,0 L1,6 L-1,10 L-6,13 L-10,13 L-10,6 L-7,4 L-7,8 L-5,8 L-5,6 L-3,6 L-1,2 Z " fill="#EEEEEE" transform="translate(19,11)"/>
<path d="M0,0 L3,0 L3,5 L1,8 L-1,8 L-1,10 L-3,10 L-2,5 Z " fill="#1E1E1E" transform="translate(15,9)"/>
</svg>
