<?xml version="1.0" encoding="UTF-8"?>
<svg version="1.1" xmlns="http://www.w3.org/2000/svg" width="28" height="28">
<path d="M0,0 L28,0 L28,28 L0,28 Z " fill="#020202" transform="translate(0,0)"/>
<path d="M0,0 L6,0 L8,2 L8,12 L4,16 L-2,18 L-8,18 L-12,13 L-11,6 L-6,2 Z " fill="#E7E7E7" transform="translate(17,5)"/>
<path d="M0,0 L3,0 L3,9 L0,12 L-9,13 L-10,9 L-5,4 Z " fill="#0F0F0F" transform="translate(19,7)"/>
<path d="M0,0 L4,2 L3,6 L1,8 L1,2 L-1,1 Z " fill="#CBCBCB" transform="translate(21,5)"/>
</svg>
