<?xml version="1.0" encoding="UTF-8"?>
<svg version="1.1" xmlns="http://www.w3.org/2000/svg" width="28" height="28">
<path d="M0,0 L28,0 L28,28 L0,28 Z " fill="#020202" transform="translate(0,0)"/>
<path d="M0,0 L6,0 L10,4 L10,10 L2,16 L-2,17 L-9,17 L-10,16 L-10,10 L-7,7 L-4,7 L-3,3 Z " fill="#E9E9E9" transform="translate(15,6)"/>
<path d="M0,0 L6,0 L7,6 L1,10 L-8,11 L-7,7 L1,4 L-2,2 Z " fill="#171717" transform="translate(16,9)"/>
<path d="M0,0 L6,0 L6,1 L1,2 L-1,6 L-4,6 L-2,2 Z " fill="#D2D2D2" transform="translate(15,6)"/>
</svg>
