<?xml version="1.0" encoding="UTF-8"?>
<svg version="1.1" xmlns="http://www.w3.org/2000/svg" width="28" height="28">
<path d="M0,0 L28,0 L28,28 L0,28 Z " fill="#010101" transform="translate(0,0)"/>
<path d="M0,0 L4,2 L7,1 L12,6 L12,13 L9,18 L7,20 L-1,20 L-6,16 L-7,9 L-2,1 Z " fill="#0B0B0B" transform="translate(12,4)"/>
<path d="M0,0 L2,0 L2,6 L1,3 L-1,3 L-3,8 L-3,15 L-1,17 L6,17 L9,12 L8,4 L5,3 L5,1 L10,3 L12,6 L12,13 L9,18 L7,20 L-1,20 L-6,16 L-7,9 L-2,1 Z " fill="#D8D8D8" transform="translate(12,4)"/>
</svg>
