<?xml version="1.0" encoding="UTF-8"?>
<svg version="1.1" xmlns="http://www.w3.org/2000/svg" width="28" height="28">
<path d="M0,0 L28,0 L28,28 L0,28 Z " fill="#020202" transform="translate(0,0)"/>
<path d="M0,0 L6,0 L8,1 L8,9 L4,17 L-1,20 L-6,19 L-8,17 L-8,11 L-4,3 Z " fill="#D1D1D1" transform="translate(14,4)"/>
<path d="M0,0 L5,0 L5,7 L2,12 L-1,14 L-5,13 L-5,7 Z " fill="#0A0A0A" transform="translate(14,7)"/>
<path d="M0,0 L1,3 L-3,8 L-10,9 L-12,7 L-12,3 L-10,3 L-9,5 L-4,4 Z " fill="#EAEAEA" transform="translate(19,15)"/>
</svg>
