<?xml version="1.0" encoding="UTF-8"?>
<svg version="1.1" xmlns="http://www.w3.org/2000/svg" width="28" height="28">
<path d="M0,0 L28,0 L28,28 L0,28 Z " fill="#020202" transform="translate(0,0)"/>
<path d="M0,0 L7,2 L9,5 L8,15 L3,20 L-5,20 L-7,17 L-6,8 Z " fill="#E4E4E4" transform="translate(14,4)"/>
<path d="M0,0 L5,1 L5,8 L2,13 L-4,14 L-5,13 L-5,7 L-2,1 Z " fill="#0D0D0D" transform="translate(15,8)"/>
<path d="M0,0 L1,0 L2,9 L-1,11 L-2,8 Z " fill="#C3C3C3" transform="translate(20,10)"/>
</svg>
