<?xml version="1.0" encoding="UTF-8"?>
<svg version="1.1" xmlns="http://www.w3.org/2000/svg" width="28" height="28">
<path d="M0,0 L28,0 L28,28 L0,28 Z " fill="#030303" transform="translate(0,0)"/>
<path d="M0,0 L6,2 L7,3 L7,13 L5,13 L5,15 L-5,20 L-11,19 L-11,13 L-4,3 Z " fill="#E3E3E3" transform="translate(16,4)"/>
<path d="M0,0 L4,0 L5,6 L3,9 L1,9 L1,11 L-3,13 L-8,13 L-6,6 L-2,5 L-1,1 Z " fill="#090909" transform="translate(16,8)"/>
<path d="M0,0 L5,2 L5,7 L3,8 L2,3 L0,2 Z " fill="#C0C0C0" transform="translate(18,5)"/>
</svg>
