<?xml version="1.0" encoding="UTF-8"?>
<svg version="1.1" xmlns="http://www.w3.org/2000/svg" width="28" height="28">
<path d="M0,0 L28,0 L28,28 L0,28 Z " fill="#010101" transform="translate(0,0)"/>
<path d="M0,0 L6,0 L10,2 L13,7 L16,10 L15,15 L13,16 L3,15 L-3,11 L-4,9 L-4,3 Z " fill="#0D0D0D" transform="translate(9,6)"/>
<path d="M0,0 L6,0 L10,2 L13,7 L16,10 L15,15 L13,16 L3,15 L-3,11 L-4,9 L-4,3 Z M0,2 L-2,4 L-2,9 L4,13 L7,14 L14,14 L13,9 L4,2 Z " fill="#D3D3D3" transform="translate(9,6)"/>
</svg>
