<?xml version="1.0" encoding="UTF-8"?>
<svg version="1.1" xmlns="http://www.w3.org/2000/svg" width="28" height="28">
<path d="M0,0 L28,0 L28,28 L0,28 Z " fill="#020202" transform="translate(0,0)"/>
<path d="M0,0 L5,1 L10,7 L10,14 L6,19 L0,20 L-3,19 L-5,16 L-6,7 L-2,1 Z " fill="#E2E2E2" transform="translate(13,4)"/>
<path d="M0,0 L5,1 L7,5 L7,12 L4,14 L-1,14 L-3,12 L-3,3 Z " fill="#060606" transform="translate(13,7)"/>
<path d="M0,0 L3,0 L4,2 L4,9 L0,14 L-3,15 L-3,13 L-6,12 L0,10 Z " fill="#D9D9D9" transform="translate(19,9)"/>
<path d="M0,0 L3,0 L4,2 L4,9 L1,9 Z " fill="#B2B2B2" transform="translate(19,9)"/>
</svg>
