<?xml version="1.0" encoding="UTF-8"?>
<svg version="1.1" xmlns="http://www.w3.org/2000/svg" width="28" height="28">
<path d="M0,0 L28,0 L28,28 L0,28 Z " fill="#040404" transform="translate(0,0)"/>
<path d="M0,0 L6,1 L10,4 L10,13 L4,19 L-5,20 L-7,19 L-6,10 L-6,8 L-8,11 L-7,4 L-4,3 L-4,1 Z " fill="#D4D4D4" transform="translate(14,5)"/>
<path d="M0,0 L3,0 L4,2 L4,9 L-1,14 L-6,15 L-5,10 L-1,1 Z " fill="#070707" transform="translate(16,8)"/>
<path d="M0,0 L5,1 L5,3 L1,5 L-3,9 L-5,6 L-7,11 L-8,11 L-7,4 L-4,3 L-4,1 Z " fill="#F4F4F4" transform="translate(14,5)"/>
<path d="M0,0 L3,1 L0,5 L-2,7 L-4,10 L-3,3 L0,2 Z " fill="#D9D9D9" transform="translate(10,6)"/>
</svg>
