<?xml version="1.0" encoding="UTF-8"?>
<svg version="1.1" xmlns="http://www.w3.org/2000/svg" width="28" height="28">
<path d="M0,0 L28,0 L28,28 L0,28 Z " fill="#020202" transform="translate(0,0)"/>
<path d="M0,0 L6,0 L8,4 L7,13 L2,18 L-2,20 L-6,19 L-6,11 L-2,2 Z " fill="#DCDCDC" transform="translate(14,5)"/>
<path d="M0,0 L3,0 L4,9 L-1,14 L-6,15 L-4,7 L-2,7 Z " fill="#101010" transform="translate(16,7)"/>
<path d="M0,0 L3,1 L2,6 L-1,10 L-1,2 Z " fill="#C1C1C1" transform="translate(9,14)"/>
</svg>
