<?xml version="1.0" encoding="UTF-8"?>
<svg version="1.1" xmlns="http://www.w3.org/2000/svg" width="28" height="28">
<path d="M0,0 L28,0 L28,28 L0,28 Z " fill="#030303" transform="translate(0,0)"/>
<path d="M0,0 L4,1 L8,3 L10,8 L9,13 L5,19 L2,20 L-5,20 L-5,18 L-9,17 L-10,15 L-10,8 L-4,1 Z " fill="#0E0E0E" transform="translate(15,4)"/>
<path d="M0,0 L3,0 L3,3 L-4,6 L-6,10 L-5,15 L-4,16 L4,15 L6,10 L6,3 L8,3 L10,8 L9,13 L5,19 L2,20 L-5,20 L-5,18 L-9,17 L-10,15 L-10,8 L-4,1 Z " fill="#E9E9E9" transform="translate(15,4)"/>
</svg>
