<?xml version="1.0" encoding="UTF-8"?>
<svg version="1.1" xmlns="http://www.w3.org/2000/svg" width="28" height="28">
<path d="M0,0 L28,0 L28,28 L0,28 Z " fill="#010101" transform="translate(0,0)"/>
<path d="M0,0 L5,0 L9,3 L9,11 L6,17 L2,20 L-4,19 L-6,16 L-6,8 L-3,3 Z " fill="#D4D4D4" transform="translate(13,4)"/>
<path d="M0,0 L1,0 L1,6 L-3,12 L-7,13 L-7,9 L-4,4 L-2,4 Z " fill="#0E0E0E" transform="translate(19,9)"/>
<path d="M0,0 L5,1 L6,3 L2,5 L-2,11 L-3,11 L-2,2 Z " fill="#141414" transform="translate(13,6)"/>
</svg>
