<?xml version="1.0" encoding="UTF-8"?>
<svg version="1.1" xmlns="http://www.w3.org/2000/svg" width="28" height="28">
<path d="M0,0 L28,0 L28,28 L0,28 Z " fill="#020202" transform="translate(0,0)"/>
<path d="M0,0 L4,1 L6,3 L7,8 L7,16 L5,19 L-3,20 L-5,17 L-5,10 L-2,4 Z " fill="#050505" transform="translate(14,4)"/>
<path d="M0,0 L4,1 L6,3 L7,8 L7,16 L5,19 L-3,20 L-5,17 L-5,10 L-2,4 Z M1,3 L-2,8 L-3,10 L-3,17 L-2,18 L5,17 L5,7 L3,4 Z " fill="#BEBEBE" transform="translate(14,4)"/>
<path d="M0,0 L1,0 L2,9 L9,9 L10,2 L11,2 L11,8 L9,11 L1,12 L-1,9 L-1,2 Z " fill="#D6D6D6" transform="translate(10,12)"/>
</svg>
