<?xml version="1.0" encoding="UTF-8"?>
<svg version="1.1" xmlns="http://www.w3.org/2000/svg" width="28" height="28">
<path d="M0,0 L28,0 L28,28 L0,28 Z " fill="#020202" transform="translate(0,0)"/>
<path d="M0,0 L2,0 L2,12 L-6,19 L-12,20 L-11,14 L-7,8 L-5,8 L-3,4 L-1,4 Z " fill="#D9D9D9" transform="translate(18,3)"/>
<path d="M0,0 L2,1 L2,9 L-6,16 L-12,17 L-11,14 L-6,12 L-1,7 L-1,1 Z " fill="#ECECEC" transform="translate(18,6)"/>
<path d="M0,0 L2,0 L1,6 L-5,11 L-7,11 L-5,6 L-2,2 L0,2 Z " fill="#181818" transform="translate(16,9)"/>
</svg>
