<?xml version="1.0" encoding="UTF-8"?>
<svg version="1.1" xmlns="http://www.w3.org/2000/svg" width="28" height="28">
<path d="M0,0 L28,0 L28,28 L0,28 Z " fill="#030303" transform="translate(0,0)"/>
<path d="M0,0 L13,0 L15,3 L15,12 L14,15 L10,16 L10,18 L8,19 L0,19 L-5,15 L-5,7 L-3,2 Z " fill="#050505" transform="translate(10,5)"/>
<path d="M0,0 L13,0 L15,3 L15,12 L14,15 L10,16 L10,18 L8,19 L0,19 L-5,15 L-5,7 L-3,2 Z M1,2 L-2,7 L-3,11 L0,16 L9,16 L13,12 L13,5 L9,2 Z " fill="#D4D4D4" transform="translate(10,5)"/>
<path d="M0,0 L1,3 L3,11 L8,11 L7,13 L1,12 L-2,9 L-2,1 Z " fill="#F0F0F0" transform="translate(7,11)"/>
</svg>
