<?xml version="1.0" encoding="UTF-8"?>
<svg version="1.1" xmlns="http://www.w3.org/2000/svg" width="28" height="28">
<path d="M0,0 L28,0 L28,28 L0,28 Z " fill="#020202" transform="translate(0,0)"/>
<path d="M0,0 L5,0 L7,5 L10,7 L10,9 L12,9 L12,17 L8,20 L1,20 L-4,15 L-4,7 Z " fill="#E1E1E1" transform="translate(11,4)"/>
<path d="M0,0 L7,6 L9,12 L7,14 L0,14 L-3,10 L-2,3 Z " fill="#0A0A0A" transform="translate(12,7)"/>
<path d="M0,0 L3,0 L1,4 L-3,5 L-5,2 Z " fill="#C2C2C2" transform="translate(20,19)"/>
</svg>
