<?xml version="1.0" encoding="UTF-8"?>
<svg version="1.1" xmlns="http://www.w3.org/2000/svg" width="28" height="28">
<path d="M0,0 L28,0 L28,28 L0,28 Z " fill="#020202" transform="translate(0,0)"/>
<path d="M0,0 L10,2 L14,6 L15,14 L12,17 L7,18 L0,16 L-4,13 L-5,10 L-5,3 Z " fill="#0A0A0A" transform="translate(10,5)"/>
<path d="M0,0 L7,1 L7,2 L-1,4 L-1,11 L2,14 L8,15 L12,13 L13,7 L9,5 L8,3 L12,4 L15,9 L15,14 L12,17 L7,18 L0,16 L-4,13 L-5,10 L-5,3 Z " fill="#DDDDDD" transform="translate(10,5)"/>
<path d="M0,0 L7,1 L7,2 L-1,4 L-1,11 L1,14 L-4,13 L-5,10 L-5,3 Z " fill="#C0C0C0" transform="translate(10,5)"/>
</svg>
