<?xml version="1.0" encoding="UTF-8"?>
<svg version="1.1" xmlns="http://www.w3.org/2000/svg" width="28" height="28">
<path d="M0,0 L28,0 L28,28 L0,28 Z " fill="#020202" transform="translate(0,0)"/>
<path d="M0,0 L4,1 L6,3 L5,9 L-1,15 L-10,16 L-14,13 L-14,8 L-6,1 Z " fill="#E5E5E5" transform="translate(19,6)"/>
<path d="M0,0 L6,0 L5,5 L-1,10 L-7,10 L-8,6 L-6,3 L-2,2 Z " fill="#0B0B0B" transform="translate(16,9)"/>
<path d="M0,0 L2,1 L1,4 L-1,4 L-2,7 L-6,8 L-4,4 Z " fill="#D1D1D1" transform="translate(11,8)"/>
</svg>
