<?xml version="1.0" encoding="UTF-8"?>
<svg version="1.1" xmlns="http://www.w3.org/2000/svg" width="28" height="28">
<path d="M0,0 L28,0 L28,28 L0,28 Z " fill="#010101" transform="translate(0,0)"/>
<path d="M0,0 L8,0 L9,1 L8,8 L1,16 L-3,18 L-8,17 L-11,15 L-11,8 L-2,1 Z " fill="#DCDCDC" transform="translate(15,6)"/>
<path d="M0,0 L5,0 L4,4 L2,8 L0,8 L-1,11 L-8,12 L-10,7 L-3,1 Z " fill="#080808" transform="translate(16,9)"/>
<path d="M0,0 L6,0 L7,1 L7,6 L4,6 L4,2 L-1,2 Z " fill="#F0F0F0" transform="translate(17,6)"/>
</svg>
