<?xml version="1.0" encoding="UTF-8"?>
<svg version="1.1" xmlns="http://www.w3.org/2000/svg" width="28" height="28">
<path d="M0,0 L28,0 L28,28 L0,28 Z " fill="#020202" transform="translate(0,0)"/>
<path d="M0,0 L4,1 L4,4 L4,10 L2,14 L-7,20 L-12,19 L-12,14 L-5,5 Z " fill="#E3E3E3" transform="translate(18,4)"/>
<path d="M0,0 L2,0 L1,6 L-1,10 L-7,14 L-9,14 L-7,10 L-1,1 Z " fill="#141414" transform="translate(17,8)"/>
<path d="M0,0 L3,0 L3,6 L1,10 L-6,15 L-8,12 L-3,10 Z " fill="#CECECE" transform="translate(19,8)"/>
<path d="M0,0 L1,3 L5,2 L4,5 L-1,4 Z " fill="#F5F5F5" transform="translate(7,19)"/>
</svg>
