<?xml version="1.0" encoding="UTF-8"?>
<svg version="1.1" xmlns="http://www.w3.org/2000/svg" width="28" height="28">
<path d="M0,0 L28,0 L28,28 L0,28 Z " fill="#020202" transform="translate(0,0)"/>
<path d="M0,0 L6,0 L10,3 L8,8 L3,14 L1,15 L-7,15 L-10,12 L-9,5 L-6,2 Z " fill="#E1E1E1" transform="translate(15,7)"/>
<path d="M0,0 L2,0 L2,6 L-4,11 L-9,10 L-10,6 L-7,3 L-1,3 Z " fill="#101010" transform="translate(18,9)"/>
<path d="M0,0 L2,1 L1,5 L-1,9 L-3,11 L-4,10 L-3,3 Z " fill="#BDBDBD" transform="translate(9,9)"/>
<path d="M0,0 L3,0 L3,4 L-5,4 L-3,1 Z " fill="#F4F4F4" transform="translate(14,8)"/>
</svg>
