<?xml version="1.0" encoding="UTF-8"?>
<svg version="1.1" xmlns="http://www.w3.org/2000/svg" width="28" height="28">
<path d="M0,0 L28,0 L28,28 L0,28 Z " fill="#020202" transform="translate(0,0)"/>
<path d="M0,0 L4,1 L9,5 L12,11 L11,16 L9,19 L0,20 L-5,15 L-6,14 L-5,4 Z " fill="#D7D7D7" transform="translate(12,4)"/>
<path d="M0,0 L4,1 L1,4 L7,3 L10,7 L9,13 L8,14 L2,14 L-2,10 L-2,4 Z " fill="#151515" transform="translate(11,7)"/>
<path d="M0,0 L1,3 L1,9 L2,12 L9,14 L9,16 L3,16 L-2,11 L-3,10 L-3,4 Z " fill="#EDEDED" transform="translate(9,8)"/>
</svg>
