<?xml version="1.0" encoding="UTF-8"?>
<svg version="1.1" xmlns="http://www.w3.org/2000/svg" width="28" height="28">
<path d="M0,0 L28,0 L28,28 L0,28 Z " fill="#040404" transform="translate(0,0)"/>
<path d="M0,0 L6,0 L7,3 L13,7 L12,12 L6,17 L4,18 L-4,18 L-7,16 L-7,8 L-4,3 Z " fill="#090909" transform="translate(12,5)"/>
<path d="M0,0 L6,0 L7,3 L13,7 L12,12 L6,17 L4,18 L-4,18 L-7,16 L-7,8 L-4,3 Z M2,1 L-2,4 L-2,6 L-4,6 L-5,14 L-3,16 L4,16 L9,13 L11,8 L6,4 L4,4 L4,1 Z " fill="#E8E8E8" transform="translate(12,5)"/>
<path d="M0,0 L2,2 L4,7 L11,7 L14,6 L15,8 L11,10 L3,10 L0,8 Z " fill="#CDCDCD" transform="translate(5,13)"/>
</svg>
