<?xml version="1.0" encoding="UTF-8"?>
<svg version="1.1" xmlns="http://www.w3.org/2000/svg" width="28" height="28">
<path d="M0,0 L28,0 L28,28 L0,28 Z " fill="#010101" transform="translate(0,0)"/>
<path d="M0,0 L4,2 L5,3 L5,10 L0,15 L-3,18 L-11,20 L-13,18 L-12,12 L-5,4 Z " fill="#EBEBEB" transform="translate(18,4)"/>
<path d="M0,0 L2,0 L1,7 L-5,12 L-10,13 L-8,7 Z " fill="#131313" transform="translate(18,8)"/>
<path d="M0,0 L1,0 L1,7 L-4,12 L-7,14 L-5,9 L-2,5 L-1,5 Z " fill="#CCCCCC" transform="translate(22,7)"/>
</svg>
