<?xml version="1.0" encoding="UTF-8"?>
<svg version="1.1" xmlns="http://www.w3.org/2000/svg" width="28" height="28">
<path d="M0,0 L28,0 L28,28 L0,28 Z " fill="#030303" transform="translate(0,0)"/>
<path d="M0,0 L8,0 L9,1 L8,9 L0,15 L-9,16 L-11,14 L-11,8 L-5,1 Z " fill="#EFEFEF" transform="translate(16,7)"/>
<path d="M0,0 L6,0 L5,5 L3,5 L3,7 L-4,11 L-9,10 L-8,5 L-5,5 Z " fill="#181818" transform="translate(17,9)"/>
<path d="M0,0 L4,0 L3,3 L-4,8 L-5,6 L-2,2 L0,2 Z " fill="#D2D2D2" transform="translate(20,14)"/>
</svg>
