<?xml version="1.0" encoding="UTF-8"?>
<svg version="1.1" xmlns="http://www.w3.org/2000/svg" width="28" height="28">
<path d="M0,0 L28,0 L28,28 L0,28 Z " fill="#010101" transform="translate(0,0)"/>
<path d="M0,0 L5,2 L5,13 L3,10 L3,6 L0,9 L-2,17 L3,15 L1,20 L-4,20 L-6,14 L-4,8 L-2,5 L0,5 Z " fill="#E2E2E2" transform="translate(14,4)"/>
<path d="M0,0 L2,0 L3,4 L3,11 L0,11 L-3,11 L-3,5 Z " fill="#CACACA" transform="translate(15,10)"/>
<path d="M0,0 L2,0 L1,8 L-2,9 L-1,2 Z " fill="#080808" transform="translate(14,11)"/>
</svg>
