<?xml version="1.0" encoding="UTF-8"?>
<svg version="1.1" xmlns="http://www.w3.org/2000/svg" width="28" height="28">
<path d="M0,0 L28,0 L28,28 L0,28 Z " fill="#030303" transform="translate(0,0)"/>
<path d="M0,0 L6,1 L11,6 L13,10 L13,16 L8,20 L-2,20 L-5,17 L-5,7 L-1,1 Z " fill="#0E0E0E" transform="translate(11,5)"/>
<path d="M0,0 L6,1 L11,6 L13,10 L13,16 L8,20 L-2,20 L-5,17 L-5,7 L-1,1 Z M2,4 L2,7 L0,7 L0,5 L-2,5 L-4,9 L-3,17 L-1,19 L8,18 L12,15 L11,10 L8,5 L6,4 L7,8 L5,8 L4,4 Z " fill="#C9C9C9" transform="translate(11,5)"/>
<path d="M0,0 L1,3 L2,11 L3,12 L12,11 L15,9 L17,5 L17,10 L12,14 L2,14 L-1,11 L-1,1 Z " fill="#ECECEC" transform="translate(7,11)"/>
</svg>
