<?xml version="1.0" encoding="UTF-8"?>
<svg version="1.1" xmlns="http://www.w3.org/2000/svg" width="28" height="28">
<path d="M0,0 L28,0 L28,28 L0,28 Z " fill="#040404" transform="translate(0,0)"/>
<path d="M0,0 L4,1 L4,6 L2,10 L1,17 L-4,20 L-11,20 L-14,18 L-14,16 L-6,17 L-1,14 L0,10 L-7,11 L-6,8 L1,5 L-2,5 L-5,5 L-5,2 Z " fill="#D9D9D9" transform="translate(17,4)"/>
<path d="M0,0 L3,1 L1,2 L-1,5 L-5,5 L-5,2 Z " fill="#CACACA" transform="translate(17,4)"/>
<path d="M0,0 L9,2 L9,4 L3,4 L0,2 Z " fill="#EBEBEB" transform="translate(3,20)"/>
</svg>
