<?xml version="1.0" encoding="UTF-8"?>
<svg version="1.1" xmlns="http://www.w3.org/2000/svg" width="28" height="28">
<path d="M0,0 L28,0 L28,28 L0,28 Z " fill="#030303" transform="translate(0,0)"/>
<path d="M0,0 L0,3 L-1,7 L-1,14 L-4,17 L-4,9 L-9,11 L-7,7 L-5,5 L-10,7 L-9,4 Z " fill="#C3C3C3" transform="translate(20,4)"/>
<path d="M0,0 L11,2 L11,4 L3,5 L0,2 Z " fill="#DADADA" transform="translate(5,19)"/>
<path d="M0,0 L0,3 L-7,6 L-10,7 L-9,4 Z " fill="#E1E1E1" transform="translate(20,4)"/>
</svg>
