<?xml version="1.0" encoding="UTF-8"?>
<svg version="1.1" xmlns="http://www.w3.org/2000/svg" width="28" height="28">
<path d="M0,0 L28,0 L28,28 L0,28 Z " fill="#030303" transform="translate(0,0)"/>
<path d="M0,0 L7,0 L5,4 L0,9 L4,12 L7,13 L5,18 L1,20 L-2,20 L-2,17 L3,15 L-3,10 L-2,6 L-8,3 L-8,1 Z " fill="#D7D7D7" transform="translate(14,6)"/>
<path d="M0,0 L7,0 L5,4 L1,5 L1,3 L-1,3 L-1,5 L-8,3 L-8,1 Z " fill="#E4E4E4" transform="translate(14,6)"/>
<path d="M0,0 L1,4 L-1,7 L2,11 L-2,10 L-4,8 L-3,4 L-2,1 Z " fill="#B9B9B9" transform="translate(15,8)"/>
</svg>
