<?xml version="1.0" encoding="UTF-8"?>
<svg version="1.1" xmlns="http://www.w3.org/2000/svg" width="28" height="28">
<path d="M0,0 L28,0 L28,28 L0,28 Z " fill="#050505" transform="translate(0,0)"/>
<path d="M0,0 L11,0 L16,2 L15,5 L10,7 L18,9 L18,14 L14,18 L3,20 L1,17 L11,15 L14,14 L14,12 L5,10 L6,6 L11,4 L11,2 L6,3 L0,3 Z " fill="#EAEAEA" transform="translate(5,5)"/>
<path d="M0,0 L1,0 L1,5 L-3,9 L-14,11 L-16,8 L-6,6 L-3,5 L-3,3 L-7,1 L-1,1 Z " fill="#D2D2D2" transform="translate(22,14)"/>
</svg>
