<?xml version="1.0" encoding="UTF-8"?>
<svg version="1.1" xmlns="http://www.w3.org/2000/svg" width="28" height="28">
<path d="M0,0 L28,0 L28,28 L0,28 Z " fill="#030303" transform="translate(0,0)"/>
<path d="M0,0 L2,0 L3,7 L3,10 L5,14 L7,15 L2,19 L-6,20 L-9,18 L-8,15 L3,15 L1,11 L-5,11 L-4,8 L0,6 L1,4 L-4,7 L-6,7 L-4,3 Z " fill="#DCDCDC" transform="translate(16,3)"/>
<path d="M0,0 L10,0 L9,4 L2,5 L-1,3 Z " fill="#A6A6A6" transform="translate(8,18)"/>
<path d="M0,0 L2,0 L3,6 L2,4 L-4,7 L-6,7 L-4,3 Z " fill="#E9E9E9" transform="translate(16,3)"/>
<path d="M0,0 L9,0 L5,1 L5,3 L0,2 Z " fill="#EFEFEF" transform="translate(7,19)"/>
<path d="M0,0 L2,0 L2,2 L4,3 L-2,7 L-1,3 Z " fill="#C5C5C5" transform="translate(19,15)"/>
</svg>
