<?xml version="1.0" encoding="UTF-8"?>
<svg version="1.1" xmlns="http://www.w3.org/2000/svg" width="28" height="28">
<path d="M0,0 L28,0 L28,28 L0,28 Z " fill="#030303" transform="translate(0,0)"/>
<path d="M0,0 L3,1 L6,4 L6,7 L3,10 L6,10 L8,13 L8,18 L0,20 L-7,20 L-6,16 L5,14 L5,13 L-5,12 L-5,9 L0,7 L3,7 L3,5 L-5,6 L-3,2 Z " fill="#D7D7D7" transform="translate(14,3)"/>
<path d="M0,0 L3,1 L6,4 L6,7 L4,8 L3,11 L-5,11 L-5,9 L0,7 L3,7 L3,5 L-5,6 L-3,2 Z " fill="#F0F0F0" transform="translate(14,3)"/>
<path d="M0,0 L5,0 L5,2 L-1,4 L-1,2 L-3,1 Z " fill="#2B2B2B" transform="translate(12,8)"/>
</svg>
