<?xml version="1.0" encoding="UTF-8"?>
<svg version="1.1" xmlns="http://www.w3.org/2000/svg" width="28" height="28">
<path d="M0,0 L28,0 L28,28 L0,28 Z " fill="#040404" transform="translate(0,0)"/>
<path d="M0,0 L6,1 L6,5 L4,5 L4,7 L0,11 L2,11 L3,17 L1,20 L-6,20 L-12,18 L-13,14 L-9,16 L-7,17 L0,17 L0,13 L-6,13 L-6,11 L3,4 L-6,6 L-6,4 Z " fill="#DEDEDE" transform="translate(16,4)"/>
<path d="M0,0 L2,2 L1,8 L-1,9 L-3,7 L-1,6 L-1,1 Z " fill="#D2D2D2" transform="translate(17,15)"/>
<path d="M0,0 L3,1 L-1,5 L-4,5 L-4,3 Z " fill="#E8E8E8" transform="translate(14,5)"/>
</svg>
