<?xml version="1.0" encoding="UTF-8"?>
<svg version="1.1" xmlns="http://www.w3.org/2000/svg" width="28" height="28">
<path d="M0,0 L28,0 L28,28 L0,28 Z " fill="#020202" transform="translate(0,0)"/>
<path d="M0,0 L5,0 L7,5 L13,7 L13,10 L10,12 L2,11 L1,9 L8,9 L7,8 L0,7 L0,4 L2,3 L-6,4 L-7,1 Z " fill="#E2E2E2" transform="translate(10,9)"/>
<path d="M0,0 L5,0 L7,6 L4,6 L4,4 L-2,3 L-6,4 L-7,1 Z " fill="#C9C9C9" transform="translate(10,9)"/>
<path d="M0,0 L7,0 L9,2 L8,3 L1,2 Z " fill="#282828" transform="translate(10,16)"/>
</svg>
