<?xml version="1.0" encoding="UTF-8"?>
<svg version="1.1" xmlns="http://www.w3.org/2000/svg" width="28" height="28">
<path d="M0,0 L28,0 L28,28 L0,28 Z " fill="#010101" transform="translate(0,0)"/>
<path d="M0,0 L6,0 L7,7 L9,7 L10,15 L7,20 L2,18 L1,15 L7,17 L6,9 L1,10 L1,7 L3,6 L4,2 L-1,3 Z " fill="#D0D0D0" transform="translate(9,4)"/>
<path d="M0,0 L2,1 L1,9 L-3,11 L-7,8 L-7,6 L-1,8 Z " fill="#E4E4E4" transform="translate(17,13)"/>
<path d="M0,0 L6,0 L5,5 L4,2 L-1,3 Z " fill="#ACACAC" transform="translate(9,4)"/>
</svg>
