<?xml version="1.0" encoding="UTF-8"?>
<svg version="1.1" xmlns="http://www.w3.org/2000/svg" width="28" height="28">
<path d="M0,0 L28,0 L28,28 L0,28 Z " fill="#030303" transform="translate(0,0)"/>
<path d="M0,0 L3,0 L3,2 L7,4 L5,8 L4,12 L-4,12 L-4,9 L3,6 L4,4 L-6,6 L-4,2 Z " fill="#E8E8E8" transform="translate(14,3)"/>
<path d="M0,0 L15,0 L15,2 L8,5 L-1,5 L-2,1 Z " fill="#E1E1E1" transform="translate(9,18)"/>
<path d="M0,0 L0,3 L-2,7 L-2,8 L-10,8 L-10,5 L-1,1 Z " fill="#CECECE" transform="translate(20,7)"/>
</svg>
