<?xml version="1.0" encoding="UTF-8"?>
<svg version="1.1" xmlns="http://www.w3.org/2000/svg" width="28" height="28">
<path d="M0,0 L28,0 L28,28 L0,28 Z " fill="#020202" transform="translate(0,0)"/>
<path d="M0,0 L6,1 L8,3 L8,16 L5,20 L0,19 L-1,16 L4,17 L6,8 L-1,9 L-2,8 L-2,2 Z " fill="#C3C3C3" transform="translate(11,5)"/>
<path d="M0,0 L1,4 L7,4 L8,1 L8,15 L6,17 L1,16 L0,13 L5,14 L7,5 L0,6 Z " fill="#E9E9E9" transform="translate(10,8)"/>
<path d="M0,0 L4,1 L3,5 L-1,5 Z " fill="#131313" transform="translate(12,7)"/>
</svg>
