<?xml version="1.0" encoding="UTF-8"?>
<svg version="1.1" xmlns="http://www.w3.org/2000/svg" width="28" height="28">
<path d="M0,0 L28,0 L28,28 L0,28 Z " fill="#030303" transform="translate(0,0)"/>
<path d="M0,0 L10,0 L8,4 L5,7 L10,9 L11,10 L11,15 L6,20 L-3,20 L-3,19 L6,17 L8,15 L8,9 L2,9 L4,4 L5,3 L-1,2 Z " fill="#C8C8C8" transform="translate(9,5)"/>
<path d="M0,0 L1,3 L-3,7 L-12,7 L-12,6 L-3,4 Z " fill="#DDDDDD" transform="translate(18,18)"/>
<path d="M0,0 L6,3 L7,4 L7,9 L4,5 L4,3 L0,2 Z " fill="#A0A0A0" transform="translate(13,11)"/>
</svg>
