<?xml version="1.0" encoding="UTF-8"?>
<svg version="1.1" xmlns="http://www.w3.org/2000/svg" width="28" height="28">
<path d="M0,0 L28,0 L28,28 L0,28 Z " fill="#020202" transform="translate(0,0)"/>
<path d="M0,0 L5,0 L6,1 L6,6 L4,10 L6,10 L6,18 L4,20 L-1,20 L-5,16 L-5,14 L-1,15 L2,16 L3,11 L-3,13 L-4,9 L1,8 L3,3 L-3,7 L-6,7 L-5,3 Z " fill="#E6E6E6" transform="translate(14,5)"/>
<path d="M0,0 L2,0 L2,5 L-2,5 L-6,2 Z " fill="#1F1F1F" transform="translate(15,16)"/>
<path d="M0,0 L2,0 L0,5 L-4,6 L-7,4 L-1,1 Z " fill="#202020" transform="translate(15,8)"/>
</svg>
