<?xml version="1.0" encoding="UTF-8"?>
<svg version="1.1" xmlns="http://www.w3.org/2000/svg" width="28" height="28">
<path d="M0,0 L28,0 L28,28 L0,28 Z " fill="#040404" transform="translate(0,0)"/>
<path d="M0,0 L5,0 L8,2 L9,9 L12,13 L12,19 L10,20 L0,20 L-1,17 L9,17 L8,10 L1,10 L2,7 L5,6 L5,3 L-4,3 L-4,1 Z " fill="#EBEBEB" transform="translate(9,4)"/>
<path d="M0,0 L13,0 L13,2 L11,3 L1,3 Z " fill="#CACACA" transform="translate(8,21)"/>
<path d="M0,0 L1,3 L1,6 L-5,6 L-4,3 L-1,2 Z " fill="#C3C3C3" transform="translate(15,8)"/>
</svg>
