<?xml version="1.0" encoding="UTF-8"?>
<svg version="1.1" xmlns="http://www.w3.org/2000/svg" width="28" height="28">
<path d="M0,0 L28,0 L28,28 L0,28 Z " fill="#030303" transform="translate(0,0)"/>
<path d="M0,0 L8,0 L13,3 L13,8 L17,13 L16,17 L10,20 L2,19 L0,16 L12,16 L13,12 L8,6 L10,6 L10,3 L-1,3 Z " fill="#D3D3D3" transform="translate(5,4)"/>
<path d="M0,0 L8,0 L12,3 L10,5 L10,3 L-1,3 Z " fill="#C4C4C4" transform="translate(5,4)"/>
<path d="M0,0 L2,0 L2,5 L4,8 L1,8 L-3,3 Z " fill="#EBEBEB" transform="translate(16,7)"/>
</svg>
