<?xml version="1.0" encoding="UTF-8"?>
<svg version="1.1" xmlns="http://www.w3.org/2000/svg" width="28" height="28">
<path d="M0,0 L28,0 L28,28 L0,28 Z " fill="#020202" transform="translate(0,0)"/>
<path d="M0,0 L10,0 L16,8 L15,14 L9,18 L3,17 L3,8 L6,5 L10,5 L10,3 L0,3 L-2,6 L-4,6 L-3,2 Z " fill="#DBDBDB" transform="translate(7,6)"/>
<path d="M0,0 L3,1 L3,4 L-2,7 L-6,7 L-6,4 L-1,1 Z " fill="#151515" transform="translate(18,14)"/>
<path d="M0,0 L7,1 L7,2 L0,3 L-2,6 L-4,6 L-3,2 Z " fill="#B3B3B3" transform="translate(7,6)"/>
</svg>
