<?xml version="1.0" encoding="UTF-8"?>
<svg version="1.1" xmlns="http://www.w3.org/2000/svg" width="28" height="28">
<path d="M0,0 L28,0 L28,28 L0,28 Z " fill="#020202" transform="translate(0,0)"/>
<path d="M0,0 L8,0 L9,5 L9,8 L12,10 L12,17 L6,20 L1,19 L2,15 L4,15 L5,17 L8,16 L8,11 L3,9 L5,5 L6,3 L0,3 Z " fill="#C3C3C3" transform="translate(8,4)"/>
<path d="M0,0 L8,0 L9,5 L7,8 L6,7 L5,9 L3,9 L5,5 L6,3 L0,3 Z " fill="#BCBCBC" transform="translate(8,4)"/>
<path d="M0,0 L1,2 L6,4 L6,11 L4,11 L2,5 L-1,3 Z " fill="#ECECEC" transform="translate(14,10)"/>
</svg>
