<?xml version="1.0" encoding="UTF-8"?>
<svg version="1.1" xmlns="http://www.w3.org/2000/svg" width="28" height="28">
<path d="M0,0 L28,0 L28,28 L0,28 Z " fill="#030303" transform="translate(0,0)"/>
<path d="M0,0 L8,1 L7,6 L4,10 L9,14 L7,19 L5,20 L-2,20 L-6,17 L-5,14 L-3,15 L-3,16 L5,16 L4,13 L-1,11 L0,7 L5,4 L-3,4 L-7,5 L-6,2 Z " fill="#E6E6E6" transform="translate(12,5)"/>
<path d="M0,0 L5,2 L5,3 L-7,5 L-6,2 Z " fill="#C8C8C8" transform="translate(12,5)"/>
<path d="M0,0 L2,1 L2,2 L9,3 L9,4 L4,4 L3,6 L-1,3 Z " fill="#C1C1C1" transform="translate(7,19)"/>
</svg>
