<?xml version="1.0" encoding="UTF-8"?>
<svg version="1.1" xmlns="http://www.w3.org/2000/svg" width="28" height="28">
<path d="M0,0 L28,0 L28,28 L0,28 Z " fill="#040404" transform="translate(0,0)"/>
<path d="M0,0 L6,1 L11,4 L13,10 L15,11 L16,17 L13,20 L1,20 L1,16 L5,18 L12,17 L13,12 L3,12 L4,8 L9,8 L8,5 L1,2 Z " fill="#EBEBEB" transform="translate(7,3)"/>
<path d="M0,0 L6,1 L11,4 L9,7 L8,5 L1,2 Z " fill="#D9D9D9" transform="translate(7,3)"/>
<path d="M0,0 L5,3 L4,8 L3,4 L-2,3 L0,2 Z " fill="#C7C7C7" transform="translate(17,11)"/>
</svg>
