<?xml version="1.0" encoding="UTF-8"?>
<svg version="1.1" xmlns="http://www.w3.org/2000/svg" width="28" height="28">
<path d="M0,0 L28,0 L28,28 L0,28 Z " fill="#030303" transform="translate(0,0)"/>
<path d="M0,0 L8,1 L10,5 L7,8 L12,12 L12,17 L5,20 L-1,20 L-3,17 L6,17 L9,16 L8,13 L0,11 L1,8 L6,5 L7,3 L-1,4 Z " fill="#DADADA" transform="translate(9,4)"/>
<path d="M0,0 L2,0 L2,4 L-5,7 L-11,7 L-13,4 L-4,4 Z " fill="#ECECEC" transform="translate(19,17)"/>
<path d="M0,0 L7,4 L5,5 L4,7 L0,2 Z " fill="#B2B2B2" transform="translate(14,12)"/>
</svg>
