<?xml version="1.0" encoding="UTF-8"?>
<svg version="1.1" xmlns="http://www.w3.org/2000/svg" width="28" height="28">
<path d="M0,0 L28,0 L28,28 L0,28 Z " fill="#040404" transform="translate(0,0)"/>
<path d="M0,0 L10,1 L14,3 L13,8 L9,11 L12,13 L11,18 L7,20 L-3,19 L-4,15 L-2,15 L-2,17 L9,17 L8,14 L-2,11 L-2,8 L7,8 L11,7 L10,4 L1,3 Z " fill="#DDDDDD" transform="translate(9,4)"/>
<path d="M0,0 L10,1 L13,2 L13,5 L1,3 Z " fill="#F3F3F3" transform="translate(9,4)"/>
<path d="M0,0 L6,0 L7,4 L4,5 L3,1 Z " fill="#3D3D3D" transform="translate(13,7)"/>
</svg>
