<?xml version="1.0" encoding="UTF-8"?>
<svg version="1.1" xmlns="http://www.w3.org/2000/svg" width="28" height="28">
<path d="M0,0 L28,0 L28,28 L0,28 Z " fill="#030303" transform="translate(0,0)"/>
<path d="M0,0 L6,0 L7,4 L6,7 L10,9 L11,10 L11,16 L7,20 L-2,19 L-2,16 L7,16 L7,11 L1,10 L2,6 L3,3 L-3,4 L-2,1 Z " fill="#DEDEDE" transform="translate(10,5)"/>
<path d="M0,0 L5,2 L6,3 L6,9 L3,5 L-3,4 L-3,2 Z " fill="#F1F1F1" transform="translate(14,11)"/>
<path d="M0,0 L1,0 L1,6 L-2,9 L-7,8 L-3,6 L-1,2 Z " fill="#B7B7B7" transform="translate(20,15)"/>
</svg>
