<?xml version="1.0" encoding="UTF-8"?>
<svg version="1.1" xmlns="http://www.w3.org/2000/svg" width="28" height="28">
<path d="M0,0 L28,0 L28,28 L0,28 Z " fill="#030303" transform="translate(0,0)"/>
<path d="M0,0 L8,1 L10,8 L17,13 L16,17 L14,18 L5,17 L3,16 L3,14 L14,15 L14,13 L9,11 L2,9 L2,7 L6,3 L-2,4 L-2,1 Z " fill="#F3F3F3" transform="translate(7,5)"/>
<path d="M0,0 L6,1 L8,3 L7,7 L5,8 L-4,7 L-6,6 L-6,4 L5,5 L5,3 L0,1 Z " fill="#DADADA" transform="translate(16,15)"/>
<path d="M0,0 L5,0 L5,3 L-2,4 L-2,1 Z " fill="#D9D9D9" transform="translate(7,5)"/>
<path d="M0,0 L10,1 L10,2 L2,3 L0,2 Z " fill="#BABABA" transform="translate(10,19)"/>
</svg>
