<?xml version="1.0" encoding="UTF-8"?>
<svg version="1.1" xmlns="http://www.w3.org/2000/svg" width="28" height="28">
<path d="M0,0 L28,0 L28,28 L0,28 Z " fill="#040404" transform="translate(0,0)"/>
<path d="M0,0 L6,0 L9,3 L11,7 L14,9 L13,17 L6,20 L1,20 L-1,18 L0,10 L3,7 L7,7 L6,2 L-1,3 L-1,7 L-3,7 L-2,2 Z " fill="#131313" transform="translate(9,4)"/>
<path d="M0,0 L6,0 L9,3 L11,8 L5,12 L0,13 L1,9 L3,7 L7,7 L6,2 L-1,3 L-1,7 L-3,7 L-2,2 Z " fill="#E5E5E5" transform="translate(9,4)"/>
<path d="M0,0 L3,1 L2,9 L-5,12 L-10,12 L-12,10 L-12,7 L-10,7 L-10,9 L-2,8 L0,6 Z " fill="#E4E4E4" transform="translate(20,12)"/>
<path d="M0,0 L6,0 L8,3 L6,4 L6,2 L-1,3 L-1,7 L-3,7 L-2,2 Z " fill="#CECECE" transform="translate(9,4)"/>
</svg>
