<?xml version="1.0" encoding="UTF-8"?>
<svg version="1.1" xmlns="http://www.w3.org/2000/svg" width="28" height="28">
<path d="M0,0 L28,0 L28,28 L0,28 Z " fill="#020202" transform="translate(0,0)"/>
<path d="M0,0 L5,0 L7,4 L7,7 L10,9 L9,15 L4,20 L-2,20 L-4,19 L-4,16 L-2,16 L-2,18 L6,16 L7,9 L-1,10 L3,6 L4,3 L-3,5 L-3,3 Z " fill="#DEDEDE" transform="translate(11,5)"/>
<path d="M0,0 L1,0 L2,6 L-3,11 L-9,11 L-11,10 L-11,7 L-9,7 L-9,9 L-1,7 Z " fill="#ADADAD" transform="translate(18,14)"/>
<path d="M0,0 L5,0 L5,5 L4,3 L-3,5 L-3,3 Z " fill="#B8B8B8" transform="translate(11,5)"/>
</svg>
