<?xml version="1.0" encoding="UTF-8"?>
<svg version="1.1" xmlns="http://www.w3.org/2000/svg" width="28" height="28">
<path d="M0,0 L28,0 L28,28 L0,28 Z " fill="#010101" transform="translate(0,0)"/>
<path d="M0,0 L6,0 L8,3 L7,9 L12,11 L14,13 L13,18 L10,20 L4,19 L4,17 L10,16 L9,12 L4,11 L5,3 L-2,4 Z " fill="#C1C1C1" transform="translate(8,5)"/>
<path d="M0,0 L1,0 L1,5 L6,7 L7,11 L6,9 L-2,7 L-1,2 Z " fill="#E9E9E9" transform="translate(14,9)"/>
<path d="M0,0 L5,1 L1,4 L-2,4 Z " fill="#E1E1E1" transform="translate(8,5)"/>
</svg>
