<?xml version="1.0" encoding="UTF-8"?>
<svg version="1.1" xmlns="http://www.w3.org/2000/svg" width="28" height="28">
<path d="M0,0 L28,0 L28,28 L0,28 Z " fill="#030303" transform="translate(0,0)"/>
<path d="M0,0 L9,0 L10,6 L8,6 L8,8 L14,10 L15,14 L8,19 L-1,20 L-3,18 L7,15 L10,13 L-2,13 L-3,10 L6,5 L7,3 L-5,5 L-4,2 Z " fill="#D5D5D5" transform="translate(9,5)"/>
<path d="M0,0 L5,1 L6,5 L-1,10 L-10,11 L-12,9 L-2,6 L1,4 L-6,3 L-6,2 L0,1 Z " fill="#D6D6D6" transform="translate(18,14)"/>
<path d="M0,0 L3,0 L3,3 L8,4 L8,5 L-6,7 L-7,4 Z " fill="#EDEDED" transform="translate(13,11)"/>
<path d="M0,0 L5,1 L4,4 L-6,3 L-6,2 L0,1 Z " fill="#A6A6A6" transform="translate(18,14)"/>
</svg>
