<?xml version="1.0" encoding="UTF-8"?>
<svg version="1.1" xmlns="http://www.w3.org/2000/svg" width="28" height="28">
<path d="M0,0 L28,0 L28,28 L0,28 Z " fill="#030303" transform="translate(0,0)"/>
<path d="M0,0 L7,1 L9,5 L7,8 L5,8 L8,12 L8,18 L6,20 L-4,19 L-4,17 L6,18 L4,12 L0,11 L0,9 L5,6 L6,3 L-1,5 L-4,7 L-3,3 Z " fill="#D1D1D1" transform="translate(11,5)"/>
<path d="M0,0 L6,1 L2,3 L-4,7 L-3,3 Z " fill="#E9E9E9" transform="translate(11,5)"/>
<path d="M0,0 L3,2 L1,7 L-1,5 L0,2 L-4,1 Z " fill="#B9B9B9" transform="translate(17,6)"/>
</svg>
