<?xml version="1.0" encoding="UTF-8"?>
<svg version="1.1" xmlns="http://www.w3.org/2000/svg" width="28" height="28">
<path d="M0,0 L28,0 L28,28 L0,28 Z " fill="#040404" transform="translate(0,0)"/>
<path d="M0,0 L4,2 L5,1 L10,1 L19,9 L20,13 L18,17 L16,18 L8,18 L8,15 L16,14 L16,10 L13,9 L10,11 L7,11 L8,6 L9,5 L4,6 L3,8 L0,8 Z " fill="#EBEBEB" transform="translate(4,6)"/>
<path d="M0,0 L5,0 L7,3 L6,5 L1,3 Z " fill="#BEBEBE" transform="translate(9,7)"/>
<path d="M0,0 L4,1 L6,5 L4,5 L3,7 L2,3 L0,2 Z " fill="#D3D3D3" transform="translate(18,13)"/>
</svg>
