<?xml version="1.0" encoding="UTF-8"?>
<svg version="1.1" xmlns="http://www.w3.org/2000/svg" width="28" height="28">
<path d="M0,0 L28,0 L28,28 L0,28 Z " fill="#010101" transform="translate(0,0)"/>
<path d="M0,0 L4,1 L3,5 L2,6 L12,9 L13,13 L7,16 L2,16 L1,13 L10,12 L10,10 L-5,10 L-5,7 L0,4 L-7,5 L-6,2 Z " fill="#B6B6B6" transform="translate(12,6)"/>
<path d="M0,0 L12,1 L15,3 L14,7 L9,9 L4,9 L3,6 L12,5 L12,3 L-1,2 Z " fill="#DCDCDC" transform="translate(10,13)"/>
<path d="M0,0 L8,0 L6,3 L1,3 Z " fill="#B1B1B1" transform="translate(13,19)"/>
</svg>
