<?xml version="1.0" encoding="UTF-8"?>
<svg version="1.1" xmlns="http://www.w3.org/2000/svg" width="28" height="28">
<path d="M0,0 L28,0 L28,28 L0,28 Z " fill="#010101" transform="translate(0,0)"/>
<path d="M0,0 L5,1 L6,2 L5,11 L7,13 L6,19 L0,20 L-3,17 L-3,13 L-1,13 L0,17 L4,17 L3,13 L0,11 L0,9 L3,7 L3,3 L-3,4 L-2,1 Z " fill="#DEDEDE" transform="translate(12,4)"/>
<path d="M0,0 L5,3 L6,7 L1,8 L0,3 L-2,2 L0,2 Z " fill="#171717" transform="translate(11,14)"/>
<path d="M0,0 L4,4 L3,10 L1,8 L0,4 L-1,2 Z " fill="#C0C0C0" transform="translate(15,13)"/>
</svg>
