<?xml version="1.0" encoding="UTF-8"?>
<svg version="1.1" xmlns="http://www.w3.org/2000/svg" width="28" height="28">
<path d="M0,0 L28,0 L28,28 L0,28 Z " fill="#030303" transform="translate(0,0)"/>
<path d="M0,0 L7,0 L9,2 L9,7 L7,10 L12,12 L13,16 L9,20 L2,20 L-1,18 L0,15 L2,16 L9,16 L9,14 L0,11 L0,9 L6,6 L7,3 L-3,5 L-1,1 Z " fill="#F7F7F7" transform="translate(9,5)"/>
<path d="M0,0 L5,2 L6,6 L2,10 L-5,10 L-8,8 L-7,5 L-5,6 L2,6 L2,4 L-2,1 Z " fill="#CACACA" transform="translate(16,15)"/>
<path d="M0,0 L7,0 L6,3 L-3,5 L-1,1 Z " fill="#C8C8C8" transform="translate(9,5)"/>
<path d="M0,0 L8,2 L5,5 L0,4 Z " fill="#ADADAD" transform="translate(9,20)"/>
<path d="M0,0 L1,3 L-2,5 L-7,4 L-3,2 Z " fill="#EAEAEA" transform="translate(20,20)"/>
</svg>
