<?xml version="1.0" encoding="UTF-8"?>
<svg version="1.1" xmlns="http://www.w3.org/2000/svg" width="28" height="28">
<path d="M0,0 L28,0 L28,28 L0,28 Z " fill="#050505" transform="translate(0,0)"/>
<path d="M0,0 L7,0 L13,3 L14,7 L11,10 L15,14 L14,18 L11,20 L-1,20 L-5,17 L-4,14 L-2,17 L8,18 L12,16 L10,13 L0,12 L-1,9 L9,8 L11,7 L12,4 L2,2 L1,4 Z " fill="#C7C7C7" transform="translate(8,4)"/>
<path d="M0,0 L7,0 L13,3 L14,7 L9,11 L1,11 L1,10 L8,9 L11,7 L12,4 L2,2 L1,4 Z " fill="#E2E2E2" transform="translate(8,4)"/>
</svg>
