<?xml version="1.0" encoding="UTF-8"?>
<svg version="1.1" xmlns="http://www.w3.org/2000/svg" width="28" height="28">
<path d="M0,0 L28,0 L28,28 L0,28 Z " fill="#040404" transform="translate(0,0)"/>
<path d="M0,0 L6,0 L7,5 L5,8 L9,9 L10,10 L10,15 L5,19 L2,20 L-5,20 L-6,17 L2,17 L7,15 L7,11 L0,11 L-4,12 L-2,8 L4,5 L5,2 L-4,5 L-8,6 L-7,3 Z " fill="#DDDDDD" transform="translate(13,5)"/>
<path d="M0,0 L2,1 L1,2 L4,4 L-6,6 L-4,2 Z " fill="#CACACA" transform="translate(15,11)"/>
<path d="M0,0 L10,1 L8,3 L1,3 Z " fill="#F2F2F2" transform="translate(7,22)"/>
</svg>
