<?xml version="1.0" encoding="UTF-8"?>
<svg version="1.1" xmlns="http://www.w3.org/2000/svg" width="28" height="28">
<path d="M0,0 L28,0 L28,28 L0,28 Z " fill="#040404" transform="translate(0,0)"/>
<path d="M0,0 L10,0 L12,4 L14,8 L13,14 L7,18 L0,20 L-6,20 L-5,16 L-4,18 L8,14 L11,12 L12,9 L3,10 L-2,11 L-1,8 L8,4 L9,2 L5,3 L-3,3 L-3,1 Z " fill="#E5E5E5" transform="translate(10,5)"/>
<path d="M0,0 L4,3 L3,9 L-3,13 L-10,15 L-16,15 L-15,11 L-14,13 L-2,9 L1,7 L2,4 L-5,4 L-5,3 L0,2 Z " fill="#CECECE" transform="translate(20,10)"/>
</svg>
