<?xml version="1.0" encoding="UTF-8"?>
<svg version="1.1" xmlns="http://www.w3.org/2000/svg" width="28" height="28">
<path d="M0,0 L28,0 L28,28 L0,28 Z " fill="#020202" transform="translate(0,0)"/>
<path d="M0,0 L8,0 L12,2 L13,6 L16,9 L16,16 L10,20 L3,20 L0,18 L0,13 L3,13 L2,17 L11,16 L13,11 L11,9 L3,9 L3,6 L8,5 L8,3 L-2,4 Z " fill="#E2E2E2" transform="translate(7,5)"/>
<path d="M0,0 L3,0 L2,4 L8,4 L4,5 L3,7 L0,5 Z " fill="#C9C9C9" transform="translate(7,18)"/>
<path d="M0,0 L1,3 L-1,4 L-7,4 L-7,2 Z " fill="#F7F7F7" transform="translate(18,21)"/>
</svg>
