<?xml version="1.0" encoding="UTF-8"?>
<svg version="1.1" xmlns="http://www.w3.org/2000/svg" width="28" height="28">
<path d="M0,0 L28,0 L28,28 L0,28 Z " fill="#030303" transform="translate(0,0)"/>
<path d="M0,0 L6,0 L8,2 L7,7 L5,10 L6,17 L0,20 L-6,20 L-7,16 L-5,15 L-5,18 L3,16 L2,12 L-4,10 L-6,6 L-6,3 Z " fill="#E6E6E6" transform="translate(14,5)"/>
<path d="M0,0 L5,2 L5,5 L3,5 L3,7 L-4,5 L-4,2 Z " fill="#777777" transform="translate(12,6)"/>
<path d="M0,0 L1,3 L6,3 L6,5 L0,5 L-1,1 Z M6,2 Z " fill="#FFFFFF" transform="translate(8,20)"/>
</svg>
