<?xml version="1.0" encoding="UTF-8"?>
<svg version="1.1" xmlns="http://www.w3.org/2000/svg" width="28" height="28">
<path d="M0,0 L28,0 L28,28 L0,28 Z " fill="#040404" transform="translate(0,0)"/>
<path d="M0,0 L9,0 L12,2 L10,7 L7,9 L12,12 L11,17 L6,20 L-4,20 L-6,16 L6,16 L9,15 L9,13 L7,12 L-3,11 L-3,9 L9,4 L10,2 L-1,4 L-5,6 L-5,3 Z " fill="#D2D2D2" transform="translate(11,4)"/>
<path d="M0,0 L8,1 L8,2 L-1,4 L-5,6 L-5,3 Z " fill="#B6B6B6" transform="translate(11,4)"/>
<path d="M0,0 L6,0 L9,2 L7,7 L4,6 L7,2 L0,1 Z " fill="#D7D7D7" transform="translate(14,4)"/>
</svg>
