<?xml version="1.0" encoding="UTF-8"?>
<svg version="1.1" xmlns="http://www.w3.org/2000/svg" width="28" height="28">
<path d="M0,0 L28,0 L28,28 L0,28 Z " fill="#020202" transform="translate(0,0)"/>
<path d="M0,0 L6,0 L9,2 L8,8 L10,10 L9,16 L5,20 L2,19 L7,14 L6,10 L3,14 L1,14 L1,9 L-2,9 Z " fill="#DADADA" transform="translate(10,6)"/>
<path d="M0,0 L6,2 L5,7 L3,9 L-2,9 Z " fill="#D7D7D7" transform="translate(10,6)"/>
<path d="M0,0 L2,0 L1,5 L-3,7 L-2,2 Z " fill="#131313" transform="translate(14,8)"/>
</svg>
