<?xml version="1.0" encoding="UTF-8"?>
<svg version="1.1" xmlns="http://www.w3.org/2000/svg" width="28" height="28">
<path d="M0,0 L28,0 L28,28 L0,28 Z " fill="#020202" transform="translate(0,0)"/>
<path d="M0,0 L9,0 L10,4 L9,6 L15,8 L16,12 L11,18 L7,20 L0,20 L-4,18 L-4,16 L7,16 L11,13 L12,9 L5,11 L-1,11 L0,8 L5,5 L6,3 L1,3 L1,5 L-2,5 Z " fill="#E4E4E4" transform="translate(8,5)"/>
<path d="M0,0 L6,0 L7,4 L1,3 L1,5 L-2,5 Z " fill="#CCCCCC" transform="translate(8,5)"/>
<path d="M0,0 L5,0 L4,3 L-1,5 Z " fill="#1D1D1D" transform="translate(9,8)"/>
</svg>
