<?xml version="1.0" encoding="UTF-8"?>
<svg version="1.1" xmlns="http://www.w3.org/2000/svg" width="28" height="28">
<path d="M0,0 L28,0 L28,28 L0,28 Z " fill="#040404" transform="translate(0,0)"/>
<path d="M0,0 L8,0 L9,1 L9,6 L14,10 L14,16 L9,20 L-3,20 L-3,18 L10,15 L11,11 L4,11 L-2,12 L-1,9 L2,7 L5,7 L6,4 L-4,4 L-4,1 Z " fill="#E2E2E2" transform="translate(9,4)"/>
<path d="M0,0 L8,0 L7,3 L-4,4 L-4,1 Z " fill="#C1C1C1" transform="translate(9,4)"/>
<path d="M0,0 L3,0 L3,2 L7,3 L-5,3 L-5,1 Z " fill="#C6C6C6" transform="translate(11,21)"/>
</svg>
