<?xml version="1.0" encoding="UTF-8"?>
<svg version="1.1" xmlns="http://www.w3.org/2000/svg" width="28" height="28">
<path d="M0,0 L28,0 L28,28 L0,28 Z " fill="#030303" transform="translate(0,0)"/>
<path d="M0,0 L8,0 L9,5 L8,7 L10,7 L11,13 L8,16 L-1,16 L-2,13 L7,13 L8,10 L2,9 L2,7 L7,2 L3,3 L4,5 L0,4 L-4,3 L-4,1 Z " fill="#E2E2E2" transform="translate(10,7)"/>
<path d="M0,0 L6,1 L3,3 L4,5 L0,4 L-4,3 L-4,1 Z " fill="#C5C5C5" transform="translate(10,7)"/>
<path d="M0,0 L5,0 L3,4 L-1,4 L1,2 Z " fill="#2E2E2E" transform="translate(12,9)"/>
</svg>
