<?xml version="1.0" encoding="UTF-8"?>
<svg version="1.1" xmlns="http://www.w3.org/2000/svg" width="28" height="28">
<path d="M0,0 L28,0 L28,28 L0,28 Z " fill="#020202" transform="translate(0,0)"/>
<path d="M0,0 L7,0 L9,2 L8,6 L8,10 L7,17 L3,20 L-4,19 L-5,15 L-3,15 L-2,17 L5,16 L5,11 L0,11 L0,8 L5,6 L7,2 L-2,3 L-2,1 Z " fill="#BCBCBC" transform="translate(11,4)"/>
<path d="M0,0 L0,3 L-1,6 L-7,7 L-7,4 L-2,2 Z " fill="#E8E8E8" transform="translate(18,8)"/>
<path d="M0,0 L2,0 L3,2 L8,3 L8,5 L1,4 Z " fill="#D4D4D4" transform="translate(6,19)"/>
</svg>
