<?xml version="1.0" encoding="UTF-8"?>
<svg version="1.1" xmlns="http://www.w3.org/2000/svg" width="28" height="28">
<path d="M0,0 L28,0 L28,28 L0,28 Z " fill="#040404" transform="translate(0,0)"/>
<path d="M0,0 L5,0 L5,5 L5,8 L5,16 L2,19 L-1,20 L-11,20 L-15,16 L-15,13 L-6,15 L-3,16 L3,16 L3,9 L-7,11 L-7,8 L2,5 L3,3 L-5,5 L-9,5 L-9,2 Z " fill="#F1F1F1" transform="translate(18,4)"/>
<path d="M0,0 L2,1 L1,2 L3,4 L-5,5 L-5,2 Z " fill="#D1D1D1" transform="translate(16,10)"/>
<path d="M0,0 L4,1 L6,3 L-2,4 L-2,1 Z " fill="#CBCBCB" transform="translate(11,5)"/>
</svg>
