<?xml version="1.0" encoding="UTF-8"?>
<svg version="1.1" xmlns="http://www.w3.org/2000/svg" width="28" height="28">
<path d="M0,0 L28,0 L28,28 L0,28 Z " fill="#070707" transform="translate(0,0)"/>
<path d="M0,0 L13,0 L14,4 L12,6 L13,15 L11,20 L6,20 L9,17 L11,10 L0,11 L0,9 L7,6 L12,4 L12,2 L4,4 L-3,4 L-3,2 Z " fill="#E7E7E7" transform="translate(9,5)"/>
<path d="M0,0 L5,5 L5,7 L7,8 L-1,8 L-1,1 Z " fill="#EDEDED" transform="translate(6,17)"/>
<path d="M0,0 L2,0 L2,7 L0,10 L-5,10 L-2,7 Z " fill="#C4C4C4" transform="translate(20,15)"/>
</svg>
