<?xml version="1.0" encoding="UTF-8"?>
<svg version="1.1" xmlns="http://www.w3.org/2000/svg" width="28" height="28">
<path d="M0,0 L28,0 L28,28 L0,28 Z " fill="#020202" transform="translate(0,0)"/>
<path d="M0,0 L2,0 L3,6 L2,10 L1,17 L-5,20 L-14,19 L-17,17 L-17,13 L0,14 L-2,10 L-7,10 L-4,7 L0,5 L1,3 L-6,6 L-9,5 L-6,4 L-6,2 Z " fill="#B1B1B1" transform="translate(20,3)"/>
<path d="M0,0 L2,0 L3,6 L0,7 L0,9 L-7,10 L-4,7 L0,5 L1,3 L-6,6 L-9,5 L-6,4 L-6,2 Z " fill="#DBDBDB" transform="translate(20,3)"/>
<path d="M0,0 L2,0 L0,4 L-5,5 L-7,3 Z " fill="#2E2E2E" transform="translate(19,6)"/>
</svg>
