<?xml version="1.0" encoding="UTF-8"?>
<svg version="1.1" xmlns="http://www.w3.org/2000/svg" width="28" height="28">
<path d="M0,0 L28,0 L28,28 L0,28 Z " fill="#020202" transform="translate(0,0)"/>
<path d="M0,0 L11,0 L12,3 L7,8 L5,8 L5,10 L10,12 L11,13 L11,18 L8,20 L0,20 L-3,18 L-3,15 L0,14 L0,17 L8,16 L8,14 L2,11 L2,7 L7,4 L9,4 L9,2 L-5,5 L-4,1 Z " fill="#E3E3E3" transform="translate(10,5)"/>
<path d="M0,0 L11,0 L11,1 L5,2 L5,3 L-5,5 L-4,1 Z " fill="#BDBDBD" transform="translate(10,5)"/>
<path d="M0,0 L1,3 L8,3 L8,4 L-1,5 L-2,1 Z " fill="#B4B4B4" transform="translate(9,19)"/>
</svg>
