<?xml version="1.0" encoding="UTF-8"?>
<svg version="1.1" xmlns="http://www.w3.org/2000/svg" width="28" height="28">
<path d="M0,0 L28,0 L28,28 L0,28 Z " fill="#020202" transform="translate(0,0)"/>
<path d="M0,0 L6,1 L7,5 L4,8 L5,9 L4,17 L3,20 L-4,20 L-10,16 L-11,13 L-7,14 L-4,16 L3,16 L3,10 L-3,10 L-3,7 L4,5 L4,3 L-6,3 L-6,1 Z " fill="#D3D3D3" transform="translate(15,5)"/>
<path d="M0,0 L11,1 L11,3 L6,5 L6,3 L0,2 Z " fill="#383838" transform="translate(8,7)"/>
<path d="M0,0 L2,1 L2,3 L-6,3 L-6,1 Z " fill="#F4F4F4" transform="translate(15,5)"/>
</svg>
