<?xml version="1.0" encoding="UTF-8"?>
<svg version="1.1" xmlns="http://www.w3.org/2000/svg" width="28" height="28">
<path d="M0,0 L28,0 L28,28 L0,28 Z " fill="#030303" transform="translate(0,0)"/>
<path d="M0,0 L5,0 L7,2 L8,6 L13,10 L13,15 L7,20 L-1,20 L-2,14 L0,14 L0,17 L7,16 L9,14 L9,10 L2,10 L-3,11 L-3,8 L4,4 L-3,5 L-2,1 Z " fill="#E0E0E0" transform="translate(10,4)"/>
<path d="M0,0 L6,3 L6,6 L3,4 L-2,3 Z " fill="#F2F2F2" transform="translate(15,9)"/>
<path d="M0,0 L5,2 L5,3 L-3,5 L-2,1 Z " fill="#C5C5C5" transform="translate(10,4)"/>
<path d="M0,0 L2,0 L2,3 L7,3 L3,4 L3,6 L1,6 Z " fill="#C8C8C8" transform="translate(8,18)"/>
</svg>
