<?xml version="1.0" encoding="UTF-8"?>
<svg version="1.1" xmlns="http://www.w3.org/2000/svg" width="28" height="28">
<path d="M0,0 L28,0 L28,28 L0,28 Z " fill="#050505" transform="translate(0,0)"/>
<path d="M0,0 L10,1 L9,8 L12,9 L13,11 L13,18 L11,19 L4,19 L-5,16 L-5,14 L5,16 L11,16 L10,9 L4,9 L-2,10 L-2,7 L9,5 L9,2 L-7,4 L-7,2 Z " fill="#DCDCDC" transform="translate(11,5)"/>
<path d="M0,0 L6,0 L7,2 L5,3 L-7,4 L-7,2 Z " fill="#BEBEBE" transform="translate(11,5)"/>
<path d="M0,0 L5,1 L6,3 L6,10 L3,11 L1,9 L4,8 L3,1 Z " fill="#9F9F9F" transform="translate(18,13)"/>
</svg>
