<?xml version="1.0" encoding="UTF-8"?>
<svg version="1.1" xmlns="http://www.w3.org/2000/svg" width="28" height="28">
<path d="M0,0 L28,0 L28,28 L0,28 Z " fill="#030303" transform="translate(0,0)"/>
<path d="M0,0 L9,0 L11,1 L11,4 L7,5 L7,7 L9,7 L9,14 L-7,14 L-9,10 L-8,8 L-6,8 L-7,12 L-2,13 L-2,11 L6,12 L6,8 L2,7 L2,5 L8,3 L0,2 Z " fill="#C7C7C7" transform="translate(12,7)"/>
<path d="M0,0 L2,0 L1,4 L6,5 L6,3 L16,5 L16,6 L1,6 L-1,2 Z " fill="#E5E5E5" transform="translate(4,15)"/>
<path d="M0,0 L5,2 L6,4 L5,6 L0,5 Z " fill="#737373" transform="translate(5,14)"/>
</svg>
