<?xml version="1.0" encoding="UTF-8"?>
<svg version="1.1" xmlns="http://www.w3.org/2000/svg" width="28" height="28">
<path d="M0,0 L28,0 L28,28 L0,28 Z " fill="#040404" transform="translate(0,0)"/>
<path d="M0,0 L6,0 L7,1 L7,9 L10,13 L10,19 L8,20 L2,20 L-1,18 L0,15 L3,17 L8,18 L6,12 L4,10 L0,9 L0,7 L5,6 L5,2 L-2,4 Z " fill="#DADADA" transform="translate(10,4)"/>
<path d="M0,0 L4,4 L5,8 L3,10 L1,5 L-1,2 Z " fill="#C1C1C1" transform="translate(15,11)"/>
<path d="M0,0 L1,4 L-1,7 L-6,7 L-6,5 L-1,4 Z " fill="#F5F5F5" transform="translate(16,6)"/>
</svg>
