<?xml version="1.0" encoding="UTF-8"?>
<svg version="1.1" xmlns="http://www.w3.org/2000/svg" width="28" height="28">
<path d="M0,0 L28,0 L28,28 L0,28 Z " fill="#030303" transform="translate(0,0)"/>
<path d="M0,0 L6,0 L10,3 L11,7 L16,12 L16,17 L11,20 L4,20 L3,16 L5,15 L5,17 L13,16 L12,11 L8,9 L1,8 L1,6 L7,4 L0,2 Z " fill="#EBEBEB" transform="translate(6,4)"/>
<path d="M0,0 L3,0 L3,5 L-2,8 L-9,8 L-10,4 L-8,3 L-8,5 L0,4 Z " fill="#CDCDCD" transform="translate(19,16)"/>
<path d="M0,0 L6,0 L8,2 L1,3 Z " fill="#CFCFCF" transform="translate(6,4)"/>
</svg>
