<?xml version="1.0" encoding="UTF-8"?>
<svg version="1.1" xmlns="http://www.w3.org/2000/svg" width="28" height="28">
<path d="M0,0 L28,0 L28,28 L0,28 Z " fill="#040404" transform="translate(0,0)"/>
<path d="M0,0 L6,0 L8,1 L7,5 L6,8 L9,11 L9,16 L3,20 L-4,20 L-6,18 L-6,15 L-4,15 L-4,17 L5,15 L5,11 L0,11 L1,7 L4,5 L5,2 L0,2 Z " fill="#D9D9D9" transform="translate(11,4)"/>
<path d="M0,0 L2,0 L2,2 L9,2 L9,5 L2,5 L0,3 Z " fill="#CBCBCB" transform="translate(5,19)"/>
<path d="M0,0 L6,0 L8,1 L7,5 L5,6 L5,2 L0,2 Z " fill="#F9F9F9" transform="translate(11,4)"/>
<path d="M0,0 L1,4 L-2,6 L-5,6 L-5,4 L0,2 Z " fill="#F0F0F0" transform="translate(19,16)"/>
</svg>
