<?xml version="1.0" encoding="UTF-8"?>
<svg version="1.1" xmlns="http://www.w3.org/2000/svg" width="28" height="28">
<path d="M0,0 L28,0 L28,28 L0,28 Z " fill="#030303" transform="translate(0,0)"/>
<path d="M0,0 L5,0 L6,1 L6,9 L7,10 L7,15 L5,19 L1,20 L-2,18 L-1,15 L4,16 L3,13 L-2,12 L-1,9 L2,7 L3,4 L-3,5 L-1,1 Z " fill="#EEEEEE" transform="translate(12,5)"/>
<path d="M0,0 L5,0 L6,1 L5,8 L3,7 L3,4 L-3,5 L-1,1 Z M2,7 Z M1,8 Z M-1,9 L3,11 L3,12 L-2,12 Z " fill="#CBCBCB" transform="translate(12,5)"/>
</svg>
