<?xml version="1.0" encoding="UTF-8"?>
<svg version="1.1" xmlns="http://www.w3.org/2000/svg" width="28" height="28">
<path d="M0,0 L28,0 L28,28 L0,28 Z " fill="#030303" transform="translate(0,0)"/>
<path d="M0,0 L6,0 L6,5 L5,6 L11,7 L10,14 L1,20 L-2,20 L-2,18 L4,14 L8,10 L1,11 L0,7 L3,3 L-1,3 Z " fill="#F5F5F5" transform="translate(10,5)"/>
<path d="M0,0 L6,0 L6,5 L5,6 L11,7 L11,8 L2,8 L0,10 L1,6 L3,3 L-1,3 Z " fill="#C4C4C4" transform="translate(10,5)"/>
<path d="M0,0 L4,2 L-4,7 L-7,7 L-7,5 L-1,1 Z " fill="#D8D8D8" transform="translate(15,18)"/>
</svg>
