<?xml version="1.0" encoding="UTF-8"?>
<svg version="1.1" xmlns="http://www.w3.org/2000/svg" width="28" height="28">
<path d="M0,0 L28,0 L28,28 L0,28 Z " fill="#030303" transform="translate(0,0)"/>
<path d="M0,0 L7,1 L8,6 L7,9 L13,11 L13,16 L7,20 L2,20 L1,15 L4,15 L6,17 L9,16 L10,12 L0,13 L1,9 L4,6 L4,4 L0,3 Z " fill="#C9C9C9" transform="translate(9,4)"/>
<path d="M0,0 L1,2 L7,2 L8,4 L-3,5 L-1,1 Z " fill="#F5F5F5" transform="translate(13,12)"/>
<path d="M0,0 L7,1 L6,5 L6,3 L0,3 Z " fill="#E7E7E7" transform="translate(9,4)"/>
</svg>
