<?xml version="1.0" encoding="UTF-8"?>
<svg version="1.1" xmlns="http://www.w3.org/2000/svg" width="28" height="28">
<path d="M0,0 L28,0 L28,28 L0,28 Z " fill="#020202" transform="translate(0,0)"/>
<path d="M0,0 L7,0 L13,3 L12,7 L9,10 L12,13 L11,18 L9,20 L1,20 L0,18 L8,16 L7,13 L3,12 L4,8 L10,6 L10,4 L6,3 L-1,5 Z " fill="#D4D4D4" transform="translate(8,5)"/>
<path d="M0,0 L4,5 L0,6 L-4,5 L-3,1 Z " fill="#EAEAEA" transform="translate(15,12)"/>
<path d="M0,0 L7,0 L4,2 L2,2 L1,5 L-1,5 Z " fill="#C2C2C2" transform="translate(8,5)"/>
</svg>
