<?xml version="1.0" encoding="UTF-8"?>
<svg version="1.1" xmlns="http://www.w3.org/2000/svg" width="28" height="28">
<path d="M0,0 L28,0 L28,28 L0,28 Z " fill="#040404" transform="translate(0,0)"/>
<path d="M0,0 L10,0 L9,5 L7,7 L5,13 L1,16 L-9,16 L-10,14 L0,13 L2,12 L2,10 L-4,10 L-4,8 L6,5 L7,2 L-1,3 Z " fill="#C8C8C8" transform="translate(13,6)"/>
<path d="M0,0 L10,0 L9,5 L7,7 L5,11 L4,6 L6,5 L7,2 L-1,3 Z " fill="#BDBDBD" transform="translate(13,6)"/>
<path d="M0,0 L7,0 L7,5 L6,2 L4,3 L-2,3 L-2,1 Z " fill="#E8E8E8" transform="translate(11,13)"/>
</svg>
