<?xml version="1.0" encoding="UTF-8"?>
<svg version="1.1" xmlns="http://www.w3.org/2000/svg" width="28" height="28">
<path d="M0,0 L28,0 L28,28 L0,28 Z " fill="#030303" transform="translate(0,0)"/>
<path d="M0,0 L6,0 L8,4 L7,8 L7,15 L0,20 L-6,20 L-12,15 L-12,13 L-7,14 L-6,16 L-1,16 L2,13 L4,12 L5,8 L2,10 L-1,10 L0,6 L4,4 L5,2 L0,4 L-3,4 L-3,2 Z " fill="#DBDBDB" transform="translate(14,3)"/>
<path d="M0,0 L6,0 L8,4 L6,6 L4,4 L5,2 L0,4 L-3,4 L-3,2 Z " fill="#C2C2C2" transform="translate(14,3)"/>
</svg>
