<?xml version="1.0" encoding="UTF-8"?>
<svg version="1.1" xmlns="http://www.w3.org/2000/svg" width="28" height="28">
<path d="M0,0 L28,0 L28,28 L0,28 Z " fill="#030303" transform="translate(0,0)"/>
<path d="M0,0 L10,1 L13,3 L11,7 L9,9 L14,14 L14,19 L7,20 L2,16 L4,12 L2,8 L8,5 L10,5 L10,3 L0,3 Z " fill="#CCCCCC" transform="translate(7,4)"/>
<path d="M0,0 L3,1 L2,3 L10,4 L9,0 L11,1 L11,6 L4,7 L-1,3 Z " fill="#EBEBEB" transform="translate(10,17)"/>
<path d="M0,0 L10,1 L13,3 L11,7 L8,8 L8,5 L10,5 L10,3 L0,3 Z " fill="#DCDCDC" transform="translate(7,4)"/>
<path d="M0,0 L3,1 L3,3 L5,3 L5,5 L-1,5 L-3,4 L-2,1 Z " fill="#1B1B1B" transform="translate(15,16)"/>
</svg>
