<?xml version="1.0" encoding="UTF-8"?>
<svg version="1.1" xmlns="http://www.w3.org/2000/svg" width="28" height="28">
<path d="M0,0 L28,0 L28,28 L0,28 Z " fill="#030303" transform="translate(0,0)"/>
<path d="M0,0 L8,1 L9,5 L6,8 L3,9 L2,11 L6,12 L8,13 L8,15 L10,15 L9,19 L2,20 L-3,17 L-3,14 L-1,14 L-1,17 L8,18 L3,13 L-6,11 L-5,9 L4,6 L7,5 L6,3 L0,3 L-2,4 Z " fill="#B0B0B0" transform="translate(11,5)"/>
<path d="M0,0 L8,1 L9,5 L6,8 L1,9 L5,5 L7,5 L6,3 L0,3 L-2,4 Z " fill="#D0D0D0" transform="translate(11,5)"/>
</svg>
