<?xml version="1.0" encoding="UTF-8"?>
<svg version="1.1" xmlns="http://www.w3.org/2000/svg" width="28" height="28">
<path d="M0,0 L28,0 L28,28 L0,28 Z " fill="#020202" transform="translate(0,0)"/>
<path d="M0,0 L8,0 L11,5 L10,9 L13,11 L13,16 L9,20 L2,19 L6,17 L9,16 L9,12 L4,10 L5,7 L8,7 L8,4 L-1,4 Z " fill="#CCCCCC" transform="translate(7,5)"/>
<path d="M0,0 L8,0 L6,3 L-1,4 Z " fill="#ABABAB" transform="translate(7,5)"/>
<path d="M0,0 L5,1 L6,4 L4,7 L3,3 Z " fill="#EDEDED" transform="translate(12,6)"/>
</svg>
