<?xml version="1.0" encoding="UTF-8"?>
<svg version="1.1" xmlns="http://www.w3.org/2000/svg" width="28" height="28">
<path d="M0,0 L28,0 L28,28 L0,28 Z " fill="#030303" transform="translate(0,0)"/>
<path d="M0,0 L4,0 L4,6 L3,9 L4,15 L0,19 L-7,20 L-11,18 L-11,13 L-4,13 L1,14 L1,11 L-7,11 L-8,2 Z " fill="#E8E8E8" transform="translate(17,4)"/>
<path d="M0,0 L4,1 L1,6 L0,7 L-6,7 L-8,6 L-8,2 Z " fill="#DCDCDC" transform="translate(17,4)"/>
<path d="M0,0 L6,0 L7,4 L3,5 L-5,3 L-1,1 Z " fill="#2B2B2B" transform="translate(12,14)"/>
<path d="M0,0 L5,0 L3,3 L-3,3 Z " fill="#262626" transform="translate(15,7)"/>
</svg>
