<?xml version="1.0" encoding="UTF-8"?>
<svg version="1.1" xmlns="http://www.w3.org/2000/svg" width="28" height="28">
<path d="M0,0 L28,0 L28,28 L0,28 Z " fill="#020202" transform="translate(0,0)"/>
<path d="M0,0 L8,0 L10,2 L9,6 L8,10 L9,15 L5,19 L-2,20 L-6,18 L-6,14 L-4,14 L-3,16 L6,16 L5,11 L0,10 L1,7 L7,4 L-2,4 L-2,1 Z " fill="#D8D8D8" transform="translate(11,4)"/>
<path d="M0,0 L2,0 L3,2 L12,3 L11,5 L4,6 L0,4 Z " fill="#ECECEC" transform="translate(5,18)"/>
<path d="M0,0 L3,1 L7,3 L-2,4 L-2,1 Z " fill="#9B9B9B" transform="translate(11,4)"/>
</svg>
