<?xml version="1.0" encoding="UTF-8"?>
<svg version="1.1" xmlns="http://www.w3.org/2000/svg" width="28" height="28">
<path d="M0,0 L28,0 L28,28 L0,28 Z " fill="#030303" transform="translate(0,0)"/>
<path d="M0,0 L8,0 L9,3 L9,7 L12,10 L9,11 L-3,12 L-2,8 L4,5 L5,3 L-6,5 L-6,2 Z " fill="#E7E7E7" transform="translate(11,5)"/>
<path d="M0,0 L2,1 L1,5 L-4,8 L-13,8 L-14,4 L-5,4 L-2,3 Z " fill="#E6E6E6" transform="translate(22,17)"/>
<path d="M0,0 L2,1 L1,5 L-3,6 Z " fill="#CECECE" transform="translate(22,17)"/>
</svg>
