<?xml version="1.0" encoding="UTF-8"?>
<svg version="1.1" xmlns="http://www.w3.org/2000/svg" width="28" height="28">
<path d="M0,0 L28,0 L28,28 L0,28 Z " fill="#030303" transform="translate(0,0)"/>
<path d="M0,0 L14,0 L13,3 L9,6 L16,8 L16,10 L1,9 L1,7 L7,4 L9,4 L9,2 L1,3 Z " fill="#C0C0C0" transform="translate(6,5)"/>
<path d="M0,0 L2,0 L0,5 L-2,6 L-12,6 L-14,5 L-14,3 L-1,3 Z " fill="#D4D4D4" transform="translate(22,19)"/>
<path d="M0,0 L10,0 L11,2 L1,3 Z " fill="#D8D8D8" transform="translate(6,5)"/>
</svg>
