<?xml version="1.0" encoding="UTF-8"?>
<svg version="1.1" xmlns="http://www.w3.org/2000/svg" width="28" height="28">
<path d="M0,0 L28,0 L28,28 L0,28 Z " fill="#060606" transform="translate(0,0)"/>
<path d="M0,0 L10,1 L8,6 L4,10 L0,10 L1,7 L6,4 L0,3 Z " fill="#D9D9D9" transform="translate(9,5)"/>
<path d="M0,0 L1,0 L1,5 L-4,9 L-7,10 L-14,10 L-15,6 L-4,6 L0,4 Z " fill="#E1E1E1" transform="translate(23,15)"/>
<path d="M0,0 L1,0 L1,5 L-4,9 L-11,8 L-11,7 L-4,6 L0,4 Z " fill="#939393" transform="translate(23,15)"/>
</svg>
