<?xml version="1.0" encoding="UTF-8"?>
<svg version="1.1" xmlns="http://www.w3.org/2000/svg" width="28" height="28">
<path d="M0,0 L28,0 L28,28 L0,28 Z " fill="#020202" transform="translate(0,0)"/>
<path d="M0,0 L6,0 L8,2 L7,6 L6,10 L8,13 L7,18 L3,20 L-2,19 L-4,14 L0,12 L-1,16 L4,16 L3,11 L2,7 L5,3 L-3,4 L-3,1 Z " fill="#D5D5D5" transform="translate(12,5)"/>
<path d="M0,0 L2,3 L1,7 L2,12 L-3,7 L-2,3 Z " fill="#E6E6E6" transform="translate(17,8)"/>
<path d="M0,0 L3,0 L2,5 L-1,6 L-6,5 L-6,4 L-1,3 Z " fill="#B7B7B7" transform="translate(17,18)"/>
</svg>
