<?xml version="1.0" encoding="UTF-8"?>
<svg version="1.1" xmlns="http://www.w3.org/2000/svg" width="28" height="28">
<path d="M0,0 L28,0 L28,28 L0,28 Z " fill="#040404" transform="translate(0,0)"/>
<path d="M0,0 L2,0 L2,2 L11,2 L14,12 L15,13 L15,18 L13,20 L5,20 L-1,16 L0,12 L4,13 L2,15 L6,17 L12,18 L10,11 L3,10 L3,8 L10,8 L10,4 L-3,5 L-1,1 Z " fill="#DEDEDE" transform="translate(8,4)"/>
<path d="M0,0 L4,1 L2,3 L6,5 L12,6 L12,1 L15,1 L15,6 L13,8 L5,8 L-1,4 Z " fill="#C6C6C6" transform="translate(8,16)"/>
</svg>
