<?xml version="1.0" encoding="UTF-8"?>
<svg version="1.1" xmlns="http://www.w3.org/2000/svg" width="28" height="28">
<path d="M0,0 L28,0 L28,28 L0,28 Z " fill="#030303" transform="translate(0,0)"/>
<path d="M0,0 L7,0 L6,6 L4,8 L9,11 L8,15 L5,18 L-1,20 L-5,20 L-5,18 L4,15 L7,11 L0,11 L1,6 L3,4 L-2,4 L-2,1 Z " fill="#DEDEDE" transform="translate(11,5)"/>
<path d="M0,0 L7,0 L6,6 L3,8 L1,6 L3,4 L-2,4 L-2,1 Z " fill="#E0E0E0" transform="translate(11,5)"/>
<path d="M0,0 L5,0 L6,4 L3,6 L1,4 L3,2 Z " fill="#ABABAB" transform="translate(11,7)"/>
</svg>
