<?xml version="1.0" encoding="UTF-8"?>
<svg version="1.1" xmlns="http://www.w3.org/2000/svg" width="28" height="28">
<path d="M0,0 L28,0 L28,28 L0,28 Z " fill="#020202" transform="translate(0,0)"/>
<path d="M0,0 L7,1 L8,2 L8,8 L12,10 L14,12 L13,17 L8,20 L0,20 L-2,16 L0,14 L2,16 L9,15 L9,12 L7,11 L-2,11 L-2,7 L5,6 L5,3 L-4,5 L-3,1 Z " fill="#E5E5E5" transform="translate(10,4)"/>
<path d="M0,0 L3,1 L1,3 L-1,5 L-4,5 L-3,1 Z " fill="#CCCCCC" transform="translate(10,4)"/>
<path d="M0,0 L4,0 L4,3 L-2,4 L-2,1 Z " fill="#262626" transform="translate(11,7)"/>
</svg>
