<?xml version="1.0" encoding="UTF-8"?>
<svg version="1.1" xmlns="http://www.w3.org/2000/svg" width="28" height="28">
<path d="M0,0 L28,0 L28,28 L0,28 Z " fill="#030303" transform="translate(0,0)"/>
<path d="M0,0 L14,0 L14,4 L12,6 L14,7 L13,13 L11,13 L10,16 L5,20 L-2,19 L-2,15 L-1,17 L6,15 L10,11 L11,8 L4,8 L4,6 L9,5 L9,3 L0,3 Z " fill="#DEDEDE" transform="translate(7,6)"/>
<path d="M0,0 L8,0 L8,4 L5,5 L4,3 L0,2 Z " fill="#EBEBEB" transform="translate(13,6)"/>
<path d="M0,0 L6,0 L6,2 L11,2 L9,4 L0,3 Z " fill="#9B9B9B" transform="translate(7,6)"/>
</svg>
