<?xml version="1.0" encoding="UTF-8"?>
<svg version="1.1" xmlns="http://www.w3.org/2000/svg" width="28" height="28">
<path d="M0,0 L28,0 L28,28 L0,28 Z " fill="#040404" transform="translate(0,0)"/>
<path d="M0,0 L10,0 L11,3 L4,7 L3,10 L7,12 L7,17 L5,19 L-2,20 L-7,17 L-7,14 L-5,14 L-5,16 L4,16 L4,12 L1,12 L1,6 L3,4 L-2,3 L-2,1 Z " fill="#E2E2E2" transform="translate(12,4)"/>
<path d="M0,0 L10,0 L11,3 L5,6 L3,4 L-2,3 L-2,1 Z " fill="#D5D5D5" transform="translate(12,4)"/>
<path d="M0,0 L5,2 L5,5 L-2,3 L-2,1 Z " fill="#ABABAB" transform="translate(12,4)"/>
</svg>
