<?xml version="1.0" encoding="UTF-8"?>
<svg version="1.1" xmlns="http://www.w3.org/2000/svg" width="28" height="28">
<path d="M0,0 L28,0 L28,28 L0,28 Z " fill="#050505" transform="translate(0,0)"/>
<path d="M0,0 L10,0 L15,2 L15,4 L11,6 L8,6 L8,8 L15,10 L17,17 L12,20 L5,20 L0,18 L3,17 L15,17 L13,12 L4,9 L-1,9 L0,6 L9,3 L0,2 Z " fill="#D8D8D8" transform="translate(6,5)"/>
<path d="M0,0 L10,0 L15,2 L15,4 L11,6 L8,6 L8,8 L6,8 L6,6 L4,5 L9,3 L0,2 Z " fill="#C2C2C2" transform="translate(6,5)"/>
</svg>
