<?xml version="1.0" encoding="UTF-8"?>
<svg version="1.1" xmlns="http://www.w3.org/2000/svg" width="28" height="28">
<path d="M0,0 L28,0 L28,28 L0,28 Z " fill="#030303" transform="translate(0,0)"/>
<path d="M0,0 L11,0 L13,1 L11,5 L7,8 L5,8 L5,10 L7,10 L6,15 L1,18 L-6,18 L-7,12 L-5,11 L-4,14 L3,13 L4,11 L0,11 L0,8 L6,4 L-2,3 L-2,1 Z " fill="#E1E1E1" transform="translate(11,6)"/>
<path d="M0,0 L11,0 L9,1 L8,4 L-2,3 L-2,1 Z " fill="#C3C3C3" transform="translate(11,6)"/>
<path d="M0,0 L2,3 L6,5 L2,5 L2,7 L0,7 L-1,1 Z " fill="#B2B2B2" transform="translate(5,17)"/>
<path d="M0,0 L4,0 L2,4 L-2,5 Z " fill="#F1F1F1" transform="translate(20,7)"/>
</svg>
