<?xml version="1.0" encoding="UTF-8"?>
<svg version="1.1" xmlns="http://www.w3.org/2000/svg" width="28" height="28">
<path d="M0,0 L28,0 L28,28 L0,28 Z " fill="#030303" transform="translate(0,0)"/>
<path d="M0,0 L5,2 L5,14 L-1,19 L-3,20 L-10,20 L-11,16 L-7,16 L-7,18 L1,14 L2,10 L0,11 L-6,11 L-5,8 L2,6 L3,3 L-2,5 L-6,5 L-6,3 L-3,3 L-3,1 Z " fill="#DEDEDE" transform="translate(16,4)"/>
<path d="M0,0 L4,0 L3,4 L-2,5 Z " fill="#1D1D1D" transform="translate(15,7)"/>
<path d="M0,0 L2,1 L3,3 L-2,5 L-6,5 L-6,3 L-3,3 L-3,1 Z " fill="#D2D2D2" transform="translate(16,4)"/>
</svg>
