<?xml version="1.0" encoding="UTF-8"?>
<svg version="1.1" xmlns="http://www.w3.org/2000/svg" width="28" height="28">
<path d="M0,0 L28,0 L28,28 L0,28 Z " fill="#040404" transform="translate(0,0)"/>
<path d="M0,0 L7,1 L6,5 L4,9 L4,14 L0,18 L-4,20 L-11,20 L-13,19 L-12,14 L-7,15 L-2,16 L1,14 L2,10 L-5,10 L-5,8 L2,5 L3,4 L-7,5 L-6,2 Z " fill="#E1E1E1" transform="translate(16,4)"/>
<path d="M0,0 L5,1 L11,3 L8,6 L1,6 L-1,5 Z " fill="#BEBEBE" transform="translate(4,18)"/>
<path d="M0,0 L7,1 L7,4 L-2,4 L-7,5 L-6,2 Z " fill="#C9C9C9" transform="translate(16,4)"/>
</svg>
