<?xml version="1.0" encoding="UTF-8"?>
<svg version="1.1" xmlns="http://www.w3.org/2000/svg" width="28" height="28">
<path d="M0,0 L28,0 L28,28 L0,28 Z " fill="#040404" transform="translate(0,0)"/>
<path d="M0,0 L6,0 L6,5 L4,7 L3,14 L-1,18 L-5,20 L-11,20 L-13,19 L-11,15 L-3,16 L0,15 L1,9 L-5,11 L-9,11 L-8,8 L2,5 L4,2 L-5,4 L-4,1 Z " fill="#E1E1E1" transform="translate(17,4)"/>
<path d="M0,0 L3,2 L0,7 L-6,10 L-12,10 L-14,9 L-12,5 L-4,6 L-1,5 Z " fill="#C4C4C4" transform="translate(18,14)"/>
</svg>
