<?xml version="1.0" encoding="UTF-8"?>
<svg version="1.1" xmlns="http://www.w3.org/2000/svg" width="28" height="28">
<path d="M0,0 L28,0 L28,28 L0,28 Z " fill="#040404" transform="translate(0,0)"/>
<path d="M0,0 L14,0 L13,3 L9,5 L8,8 L10,8 L11,14 L6,18 L-2,18 L-6,16 L-6,14 L-2,15 L5,15 L8,10 L2,11 L4,7 L6,3 L0,3 Z " fill="#F1F1F1" transform="translate(9,6)"/>
<path d="M0,0 L1,4 L-4,8 L-12,8 L-16,6 L-16,4 L-12,5 L-5,5 Z " fill="#D3D3D3" transform="translate(19,16)"/>
<path d="M0,0 L3,0 L2,3 L-7,2 L-7,1 Z " fill="#DDDDDD" transform="translate(20,6)"/>
</svg>
