<?xml version="1.0" encoding="UTF-8"?>
<svg version="1.1" xmlns="http://www.w3.org/2000/svg" width="28" height="28">
<path d="M0,0 L28,0 L28,28 L0,28 Z " fill="#030303" transform="translate(0,0)"/>
<path d="M0,0 L8,0 L10,1 L8,5 L5,7 L2,7 L4,12 L-1,16 L-8,16 L-10,15 L-10,11 L-8,11 L-8,13 L1,12 L1,10 L-3,9 L0,6 L3,4 L6,4 L6,2 L0,2 Z " fill="#DDDDDD" transform="translate(13,7)"/>
<path d="M0,0 L8,0 L10,1 L8,5 L7,2 L0,2 Z " fill="#EFEFEF" transform="translate(13,7)"/>
<path d="M0,0 L2,0 L2,2 L9,4 L9,5 L2,5 L0,4 Z " fill="#C3C3C3" transform="translate(3,18)"/>
</svg>
