<?xml version="1.0" encoding="UTF-8"?>
<svg version="1.1" xmlns="http://www.w3.org/2000/svg" width="28" height="28">
<path d="M0,0 L28,0 L28,28 L0,28 Z " fill="#040404" transform="translate(0,0)"/>
<path d="M0,0 L6,0 L6,5 L3,8 L7,12 L7,17 L3,19 L-7,20 L-7,17 L3,15 L2,11 L-4,10 L-4,8 L1,5 L2,4 L-6,5 L-5,2 Z " fill="#E3E3E3" transform="translate(14,4)"/>
<path d="M0,0 L6,0 L3,3 L-6,5 L-5,2 Z " fill="#C1C1C1" transform="translate(14,4)"/>
<path d="M0,0 L5,0 L1,5 L-2,5 Z " fill="#212121" transform="translate(12,7)"/>
</svg>
