<?xml version="1.0" encoding="UTF-8"?>
<svg version="1.1" xmlns="http://www.w3.org/2000/svg" width="28" height="28">
<path d="M0,0 L28,0 L28,28 L0,28 Z " fill="#030303" transform="translate(0,0)"/>
<path d="M0,0 L6,0 L8,1 L7,6 L4,9 L7,12 L5,17 L-2,20 L-9,20 L-10,16 L-1,16 L3,14 L3,12 L-4,11 L-3,8 L3,5 L4,3 L-1,3 L-2,5 L-4,4 L-4,1 Z " fill="#D5D5D5" transform="translate(14,4)"/>
<path d="M0,0 L4,1 L4,3 L-3,3 L-3,1 Z " fill="#F2F2F2" transform="translate(14,11)"/>
<path d="M0,0 L5,1 L4,6 L2,2 L-1,1 Z " fill="#F1F1F1" transform="translate(17,4)"/>
</svg>
