<?xml version="1.0" encoding="UTF-8"?>
<svg version="1.1" xmlns="http://www.w3.org/2000/svg" width="28" height="28">
<path d="M0,0 L28,0 L28,28 L0,28 Z " fill="#020202" transform="translate(0,0)"/>
<path d="M0,0 L5,0 L7,2 L6,11 L8,14 L8,17 L4,20 L-2,20 L-2,17 L5,16 L3,12 L4,3 L-1,3 Z " fill="#D5D5D5" transform="translate(11,4)"/>
<path d="M0,0 L5,0 L7,2 L6,5 L4,5 L4,3 L-1,3 Z " fill="#C1C1C1" transform="translate(11,4)"/>
<path d="M0,0 L1,0 L0,10 L-2,9 L-2,3 Z " fill="#F8F8F8" transform="translate(16,7)"/>
</svg>
