<?xml version="1.0" encoding="UTF-8"?>
<svg version="1.1" xmlns="http://www.w3.org/2000/svg" width="28" height="28">
<path d="M0,0 L28,0 L28,28 L0,28 Z " fill="#030303" transform="translate(0,0)"/>
<path d="M0,0 L8,0 L10,2 L9,7 L7,11 L6,16 L0,20 L-5,20 L-6,15 L0,16 L4,15 L4,13 L-1,12 L4,8 L7,3 L-1,3 Z " fill="#E7E7E7" transform="translate(11,4)"/>
<path d="M0,0 L8,0 L10,2 L9,5 L7,5 L7,3 L-1,3 Z " fill="#D3D3D3" transform="translate(11,4)"/>
<path d="M0,0 L3,0 L3,2 L5,3 L0,7 L-2,6 L-2,4 L2,3 L2,1 Z " fill="#C4C4C4" transform="translate(13,16)"/>
</svg>
