<?xml version="1.0" encoding="UTF-8"?>
<svg version="1.1" xmlns="http://www.w3.org/2000/svg" width="28" height="28">
<path d="M0,0 L28,0 L28,28 L0,28 Z " fill="#030303" transform="translate(0,0)"/>
<path d="M0,0 L6,0 L7,3 L1,10 L3,12 L2,17 L-3,20 L-9,20 L-13,16 L-2,16 L0,12 L-5,12 L-4,9 L3,4 L4,2 L-5,4 L-4,1 Z " fill="#E5E5E5" transform="translate(16,4)"/>
<path d="M0,0 L10,1 L10,4 L4,4 Z " fill="#C8C8C8" transform="translate(3,20)"/>
<path d="M0,0 L4,1 L2,3 L-5,4 L-4,1 Z " fill="#CECECE" transform="translate(16,4)"/>
</svg>
