<?xml version="1.0" encoding="UTF-8"?>
<svg version="1.1" xmlns="http://www.w3.org/2000/svg" width="28" height="28">
<path d="M0,0 L28,0 L28,28 L0,28 Z " fill="#010101" transform="translate(0,0)"/>
<path d="M0,0 L6,1 L7,5 L5,8 L6,16 L2,20 L-2,19 L-4,15 L-2,14 L-2,17 L2,17 L1,9 L4,5 L4,3 L-2,4 Z " fill="#C0C0C0" transform="translate(12,4)"/>
<path d="M0,0 L2,4 L-1,7 L-5,6 L-7,2 L-5,1 L-5,4 L-1,4 Z " fill="#AFAFAF" transform="translate(15,17)"/>
<path d="M0,0 L4,5 L3,9 L1,5 L-1,1 Z " fill="#DEDEDE" transform="translate(14,12)"/>
</svg>
