<?xml version="1.0" encoding="UTF-8"?>
<svg version="1.1" xmlns="http://www.w3.org/2000/svg" width="28" height="28">
<path d="M0,0 L28,0 L28,28 L0,28 Z " fill="#030303" transform="translate(0,0)"/>
<path d="M0,0 L6,1 L9,7 L10,12 L3,20 L-1,18 L-2,14 L1,14 L3,16 L7,10 L0,12 L1,8 L4,4 L-2,5 L-3,2 Z " fill="#E0E0E0" transform="translate(11,5)"/>
<path d="M0,0 L2,4 L-2,6 L-1,8 L-6,10 L-5,6 L-3,4 L0,4 Z " fill="#C8C8C8" transform="translate(17,7)"/>
<path d="M0,0 L5,0 L6,4 L-1,2 Z " fill="#FAFAFA" transform="translate(15,12)"/>
</svg>
