<?xml version="1.0" encoding="UTF-8"?>
<svg version="1.1" xmlns="http://www.w3.org/2000/svg" width="28" height="28">
<path d="M0,0 L28,0 L28,28 L0,28 Z " fill="#020202" transform="translate(0,0)"/>
<path d="M0,0 L5,0 L5,7 L6,11 L-4,20 L-8,20 L-7,17 L0,13 L3,9 L-3,10 L-3,3 Z " fill="#EBEBEB" transform="translate(14,5)"/>
<path d="M0,0 L5,0 L3,1 L2,5 L-2,7 L-3,3 Z " fill="#878787" transform="translate(14,5)"/>
<path d="M0,0 L3,1 L-2,6 L-6,6 L-5,3 Z " fill="#D1D1D1" transform="translate(12,19)"/>
</svg>
