<?xml version="1.0" encoding="UTF-8"?>
<svg version="1.1" xmlns="http://www.w3.org/2000/svg" width="28" height="28">
<path d="M0,0 L28,0 L28,28 L0,28 Z " fill="#040404" transform="translate(0,0)"/>
<path d="M0,0 L12,0 L14,1 L13,5 L7,9 L8,16 L0,20 L-6,19 L-6,14 L-4,14 L-3,16 L2,15 L5,12 L-1,12 L0,9 L7,5 L9,5 L9,3 L-2,3 L-2,1 Z " fill="#EBEBEB" transform="translate(10,5)"/>
<path d="M0,0 L6,0 L6,2 L10,2 L9,4 L-2,3 L-2,1 Z " fill="#C9C9C9" transform="translate(10,5)"/>
<path d="M0,0 L2,0 L3,2 L6,4 L6,6 L0,5 Z " fill="#C1C1C1" transform="translate(4,19)"/>
</svg>
