<?xml version="1.0" encoding="UTF-8"?>
<svg version="1.1" xmlns="http://www.w3.org/2000/svg" width="28" height="28">
<path d="M0,0 L28,0 L28,28 L0,28 Z " fill="#020202" transform="translate(0,0)"/>
<path d="M0,0 L12,1 L15,3 L17,9 L18,12 L17,14 L7,14 L6,12 L15,12 L12,9 L6,8 L6,6 L10,5 L9,4 L-2,3 L-2,1 Z " fill="#E6E6E6" transform="translate(5,8)"/>
<path d="M0,0 L12,1 L13,5 L-2,3 L-2,1 Z " fill="#C6C6C6" transform="translate(5,8)"/>
<path d="M0,0 L6,1 L7,4 L-3,5 L-3,2 Z " fill="#2F2F2F" transform="translate(13,16)"/>
</svg>
