<?xml version="1.0" encoding="UTF-8"?>
<svg version="1.1" xmlns="http://www.w3.org/2000/svg" width="28" height="28">
<path d="M0,0 L28,0 L28,28 L0,28 Z " fill="#030303" transform="translate(0,0)"/>
<path d="M0,0 L8,0 L13,3 L14,7 L13,9 L18,10 L20,12 L19,17 L15,20 L6,20 L1,16 L1,14 L3,14 L3,16 L14,16 L16,15 L16,13 L14,12 L3,11 L3,8 L10,6 L11,4 L0,3 Z " fill="#E3E3E3" transform="translate(4,4)"/>
<path d="M0,0 L5,1 L4,5 L1,3 L-10,2 L-10,1 Z " fill="#BDBDBD" transform="translate(17,13)"/>
<path d="M0,0 L2,0 L2,2 L12,3 L12,4 L7,4 L7,6 L2,4 Z " fill="#C9C9C9" transform="translate(5,18)"/>
</svg>
