<?xml version="1.0" encoding="UTF-8"?>
<svg version="1.1" xmlns="http://www.w3.org/2000/svg" width="28" height="28">
<path d="M0,0 L28,0 L28,28 L0,28 Z " fill="#020202" transform="translate(0,0)"/>
<path d="M0,0 L5,0 L7,2 L6,7 L4,12 L5,16 L0,20 L-3,20 L-3,17 L2,15 L3,13 L0,12 L0,9 L3,7 L4,4 L-1,5 L-3,6 L-1,1 Z " fill="#D6D6D6" transform="translate(12,5)"/>
<path d="M0,0 L2,0 L2,2 L5,3 L4,7 L0,10 L-3,10 L-3,7 L2,5 L3,3 L0,2 Z " fill="#E3E3E3" transform="translate(12,15)"/>
<path d="M0,0 L5,0 L5,3 L-1,5 L-3,6 L-1,1 Z " fill="#B7B7B7" transform="translate(12,5)"/>
</svg>
