<?xml version="1.0" encoding="UTF-8"?>
<svg version="1.1" xmlns="http://www.w3.org/2000/svg" width="28" height="28">
<path d="M0,0 L28,0 L28,28 L0,28 Z " fill="#020202" transform="translate(0,0)"/>
<path d="M0,0 L7,1 L10,3 L12,8 L16,12 L15,18 L13,20 L8,20 L7,16 L13,16 L13,11 L5,10 L6,6 L8,6 L8,4 L0,3 Z " fill="#EBEBEB" transform="translate(5,4)"/>
<path d="M0,0 L7,1 L7,4 L0,3 Z " fill="#C7C7C7" transform="translate(5,4)"/>
<path d="M0,0 L3,1 L4,7 L1,6 L1,2 L-1,1 Z " fill="#D4D4D4" transform="translate(17,13)"/>
</svg>
