<?xml version="1.0" encoding="UTF-8"?>
<svg version="1.1" xmlns="http://www.w3.org/2000/svg" width="28" height="28">
<path d="M0,0 L28,0 L28,28 L0,28 Z " fill="#020202" transform="translate(0,0)"/>
<path d="M0,0 L3,0 L3,5 L2,7 L4,8 L3,13 L-2,19 L-7,20 L-7,18 L-1,14 L2,9 L-4,10 L-2,6 L0,3 L-4,4 Z " fill="#CCCCCC" transform="translate(15,5)"/>
<path d="M0,0 L3,0 L3,5 L2,8 L-1,7 L0,3 L-4,4 Z " fill="#D7D7D7" transform="translate(15,5)"/>
<path d="M0,0 L1,2 L5,4 L0,5 L-3,5 L-1,1 Z " fill="#AAAAAA" transform="translate(14,10)"/>
</svg>
