<?xml version="1.0" encoding="UTF-8"?>
<svg version="1.1" xmlns="http://www.w3.org/2000/svg" width="28" height="28">
<path d="M0,0 L28,0 L28,28 L0,28 Z " fill="#040404" transform="translate(0,0)"/>
<path d="M0,0 L3,0 L2,8 L3,12 L-1,18 L-4,20 L-12,20 L-14,19 L-14,15 L-10,14 L-9,16 L-11,16 L-11,18 L-3,16 L-1,10 L-6,10 L-6,8 L-1,6 L1,2 L-4,5 L-6,5 L-5,2 Z " fill="#E2E2E2" transform="translate(18,4)"/>
<path d="M0,0 L3,1 L4,2 L4,7 L3,3 L-2,3 L-2,1 Z " fill="#BEBEBE" transform="translate(14,11)"/>
</svg>
