<?xml version="1.0" encoding="UTF-8"?>
<svg version="1.1" xmlns="http://www.w3.org/2000/svg" width="28" height="28">
<path d="M0,0 L28,0 L28,28 L0,28 Z " fill="#030303" transform="translate(0,0)"/>
<path d="M0,0 L5,1 L7,7 L9,8 L9,15 L4,19 L-2,20 L-7,17 L-7,12 L-5,12 L-3,17 L3,17 L5,15 L6,9 L-1,9 L0,6 L3,3 L-3,4 L-2,1 Z " fill="#E5E5E5" transform="translate(12,4)"/>
<path d="M0,0 L1,0 L1,7 L-4,11 L-10,12 L-15,9 L-15,4 L-13,4 L-11,9 L-5,9 L-3,7 L-2,2 Z " fill="#CACACA" transform="translate(20,12)"/>
</svg>
