<?xml version="1.0" encoding="UTF-8"?>
<svg version="1.1" xmlns="http://www.w3.org/2000/svg" width="28" height="28">
<path d="M0,0 L28,0 L28,28 L0,28 Z " fill="#030303" transform="translate(0,0)"/>
<path d="M0,0 L9,0 L12,2 L11,7 L12,11 L4,10 L4,7 L9,7 L9,3 L-1,4 Z " fill="#F0F0F0" transform="translate(8,6)"/>
<path d="M0,0 L1,2 L8,4 L11,4 L11,6 L3,7 L3,5 L0,4 Z " fill="#D5D5D5" transform="translate(9,19)"/>
<path d="M0,0 L2,4 L3,8 L-5,7 L-5,4 L0,4 Z " fill="#D4D4D4" transform="translate(17,9)"/>
</svg>
