<?xml version="1.0" encoding="UTF-8"?>
<svg version="1.1" xmlns="http://www.w3.org/2000/svg" width="28" height="28">
<path d="M0,0 L28,0 L28,28 L0,28 Z " fill="#020202" transform="translate(0,0)"/>
<path d="M0,0 L8,1 L11,3 L11,8 L9,8 L9,11 L11,11 L11,17 L8,17 L8,13 L4,12 L4,8 L8,7 L8,5 L0,4 Z " fill="#E4E4E4" transform="translate(9,5)"/>
<path d="M0,0 L4,0 L7,3 L7,9 L4,9 L4,5 L0,4 Z " fill="#C5C5C5" transform="translate(13,13)"/>
<path d="M0,0 L9,3 L9,6 L1,5 Z " fill="#DADADA" transform="translate(7,19)"/>
</svg>
