<?xml version="1.0" encoding="UTF-8"?>
<svg version="1.1" xmlns="http://www.w3.org/2000/svg" width="28" height="28">
<path d="M0,0 L28,0 L28,28 L0,28 Z " fill="#040404" transform="translate(0,0)"/>
<path d="M0,0 L13,1 L14,7 L15,12 L16,13 L16,18 L13,20 L7,19 L1,15 L1,13 L4,13 L4,15 L12,16 L13,12 L6,11 L6,7 L10,6 L9,5 L0,3 Z " fill="#E0E0E0" transform="translate(6,5)"/>
<path d="M0,0 L9,1 L8,3 L0,3 Z " fill="#F8F8F8" transform="translate(6,5)"/>
<path d="M0,0 L3,0 L3,2 L9,3 L5,5 L0,2 Z " fill="#D0D0D0" transform="translate(7,18)"/>
</svg>
