<?xml version="1.0" encoding="UTF-8"?>
<svg version="1.1" xmlns="http://www.w3.org/2000/svg" width="28" height="28">
<path d="M0,0 L28,0 L28,28 L0,28 Z " fill="#030303" transform="translate(0,0)"/>
<path d="M0,0 L1,4 L-1,7 L3,8 L5,12 L4,17 L0,20 L-7,20 L-8,16 L-6,15 L-5,18 L0,17 L3,13 L-2,8 L-4,7 L-4,5 L-2,5 L-2,3 L-6,4 L-3,1 Z " fill="#C0C0C0" transform="translate(15,4)"/>
<path d="M0,0 L2,2 L1,7 L-3,10 L-10,10 L-11,6 L-9,5 L-8,8 L-3,7 L0,3 Z " fill="#D7D7D7" transform="translate(18,14)"/>
</svg>
