<?xml version="1.0" encoding="UTF-8"?>
<svg version="1.1" xmlns="http://www.w3.org/2000/svg" width="28" height="28">
<path d="M0,0 L28,0 L28,28 L0,28 Z " fill="#020202" transform="translate(0,0)"/>
<path d="M0,0 L1,0 L1,6 L-3,11 L-5,12 L-11,12 L-14,9 L-14,7 L-4,7 L-1,5 Z " fill="#DADADA" transform="translate(20,11)"/>
<path d="M0,0 L6,0 L9,2 L9,7 L11,8 L4,9 L4,6 L6,5 L7,2 L1,2 L1,4 L-1,4 Z " fill="#CBCBCB" transform="translate(9,3)"/>
<path d="M0,0 L4,4 L-3,5 L-3,2 Z " fill="#EAEAEA" transform="translate(16,7)"/>
</svg>
