<?xml version="1.0" encoding="UTF-8"?>
<svg version="1.1" xmlns="http://www.w3.org/2000/svg" width="28" height="28">
<path d="M0,0 L28,0 L28,28 L0,28 Z " fill="#010101" transform="translate(0,0)"/>
<path d="M0,0 L5,0 L9,3 L11,11 L11,16 L6,20 L1,20 L-1,18 L0,14 L2,16 L8,15 L9,10 L2,11 L4,7 L7,7 L7,3 L2,3 L-1,4 Z " fill="#D3D3D3" transform="translate(9,4)"/>
<path d="M0,0 L1,3 L-1,3 L-1,5 L-5,5 L-3,1 Z " fill="#DEDEDE" transform="translate(16,10)"/>
<path d="M0,0 L5,0 L6,2 L-1,4 Z " fill="#D4D4D4" transform="translate(9,4)"/>
</svg>
