<?xml version="1.0" encoding="UTF-8"?>
<svg version="1.1" xmlns="http://www.w3.org/2000/svg" width="28" height="28">
<path d="M0,0 L28,0 L28,28 L0,28 Z " fill="#030303" transform="translate(0,0)"/>
<path d="M0,0 L5,1 L4,9 L7,11 L6,16 L3,19 L-5,20 L-5,17 L2,15 L4,12 L-4,13 L-4,10 L2,6 L3,3 L-2,4 L-2,7 L-5,6 L-3,2 Z " fill="#E8E8E8" transform="translate(13,5)"/>
<path d="M0,0 L2,1 L3,3 L-2,4 L-2,7 L-5,6 L-3,2 Z " fill="#D8D8D8" transform="translate(13,5)"/>
<path d="M0,0 L3,0 L2,4 L-1,6 L-2,1 Z " fill="#292929" transform="translate(13,8)"/>
</svg>
