<?xml version="1.0" encoding="UTF-8"?>
<svg version="1.1" xmlns="http://www.w3.org/2000/svg" width="28" height="28">
<path d="M0,0 L28,0 L28,28 L0,28 Z " fill="#020202" transform="translate(0,0)"/>
<path d="M0,0 L13,0 L14,4 L11,8 L14,11 L14,20 L10,19 L11,13 L10,11 L0,11 L0,9 L7,5 L8,4 L0,3 Z " fill="#E7E7E7" transform="translate(6,7)"/>
<path d="M0,0 L13,0 L14,4 L11,7 L9,7 L8,4 L0,3 Z " fill="#DBDBDB" transform="translate(6,7)"/>
<path d="M0,0 L7,0 L5,1 L5,3 L0,3 Z " fill="#B6B6B6" transform="translate(6,7)"/>
</svg>
