<?xml version="1.0" encoding="UTF-8"?>
<svg version="1.1" xmlns="http://www.w3.org/2000/svg" width="28" height="28">
<path d="M0,0 L28,0 L28,28 L0,28 Z " fill="#030303" transform="translate(0,0)"/>
<path d="M0,0 L8,0 L11,1 L11,15 L6,19 L-3,20 L-5,18 L-5,14 L-1,12 L-2,17 L6,15 L8,11 L2,12 L1,9 L6,6 L7,4 L-5,5 L-6,2 Z " fill="#E7E7E7" transform="translate(10,5)"/>
<path d="M0,0 L7,0 L6,4 L3,6 L-3,6 L-1,2 Z " fill="#212121" transform="translate(11,16)"/>
<path d="M0,0 L1,2 L0,5 L3,6 L5,8 L-1,8 L-3,6 L-3,2 Z " fill="#CBCBCB" transform="translate(8,17)"/>
</svg>
