<?xml version="1.0" encoding="UTF-8"?>
<svg version="1.1" xmlns="http://www.w3.org/2000/svg" width="28" height="28">
<path d="M0,0 L28,0 L28,28 L0,28 Z " fill="#020202" transform="translate(0,0)"/>
<path d="M0,0 L5,0 L7,2 L7,16 L4,20 L-3,20 L-5,19 L-4,17 L3,17 L4,16 L4,11 L1,9 L2,6 L5,3 L-1,2 Z " fill="#D0D0D0" transform="translate(11,4)"/>
<path d="M0,0 L2,1 L1,7 L-1,9 L-8,9 L-10,8 L-9,6 L-2,6 Z " fill="#E5E5E5" transform="translate(16,15)"/>
<path d="M0,0 L5,0 L7,3 L1,3 L-1,1 Z " fill="#B3B3B3" transform="translate(11,4)"/>
</svg>
