<?xml version="1.0" encoding="UTF-8"?>
<svg version="1.1" xmlns="http://www.w3.org/2000/svg" width="28" height="28">
<path d="M0,0 L28,0 L28,28 L0,28 Z " fill="#040404" transform="translate(0,0)"/>
<path d="M0,0 L5,0 L7,2 L7,12 L3,17 L-1,19 L-6,18 L-13,12 L-13,10 L-10,11 L-10,13 L-5,15 L2,14 L5,9 L0,12 L-3,12 L-2,5 L-4,5 L-3,1 Z " fill="#EBEBEB" transform="translate(15,5)"/>
<path d="M0,0 L5,0 L7,2 L6,5 L-1,7 L-1,9 L-3,8 L-2,5 L-4,5 L-3,1 Z " fill="#AEAEAE" transform="translate(15,5)"/>
<path d="M0,0 L3,1 L3,3 L8,5 L14,5 L16,7 L12,9 L7,8 L0,2 Z " fill="#D0D0D0" transform="translate(2,15)"/>
</svg>
