<?xml version="1.0" encoding="UTF-8"?>
<svg version="1.1" xmlns="http://www.w3.org/2000/svg" width="28" height="28">
<path d="M0,0 L28,0 L28,28 L0,28 Z " fill="#040404" transform="translate(0,0)"/>
<path d="M0,0 L1,0 L1,6 L-2,10 L-3,17 L-6,19 L-15,20 L-18,16 L-17,13 L-15,13 L-13,17 L-6,16 L-7,13 L-10,13 L-9,9 L-3,7 L-1,4 L-7,7 L-10,7 L-8,3 L-5,1 Z " fill="#E5E5E5" transform="translate(21,4)"/>
<path d="M0,0 L2,0 L0,4 L-1,5 L-6,5 L-4,4 L-3,1 Z " fill="#1F1F1F" transform="translate(18,8)"/>
<path d="M0,0 L4,2 L0,5 L-3,5 L-1,1 Z " fill="#D9D9D9" transform="translate(14,6)"/>
</svg>
