<?xml version="1.0" encoding="UTF-8"?>
<svg version="1.1" xmlns="http://www.w3.org/2000/svg" width="28" height="28">
<path d="M0,0 L28,0 L28,28 L0,28 Z " fill="#030303" transform="translate(0,0)"/>
<path d="M0,0 L8,0 L9,1 L8,8 L12,8 L12,10 L14,10 L13,15 L8,19 L1,19 L-2,16 L1,15 L4,16 L10,13 L11,11 L1,13 L3,9 L5,7 L6,3 L-2,6 L-6,7 L-4,3 Z " fill="#DBDBDB" transform="translate(9,5)"/>
<path d="M0,0 L6,0 L5,3 L-2,6 L-4,4 L-4,2 Z " fill="#0A0A0A" transform="translate(14,16)"/>
<path d="M0,0 L7,0 L3,3 L-3,6 L-5,6 L-3,2 Z " fill="#F0F0F0" transform="translate(8,6)"/>
<path d="M0,0 L2,1 L0,3 L2,5 L-2,6 L-4,4 L-4,2 Z " fill="#2B2B2B" transform="translate(14,16)"/>
</svg>
