<?xml version="1.0" encoding="UTF-8"?>
<svg version="1.1" xmlns="http://www.w3.org/2000/svg" width="28" height="28">
<path d="M0,0 L28,0 L28,28 L0,28 Z " fill="#030303" transform="translate(0,0)"/>
<path d="M0,0 L7,0 L9,3 L5,8 L4,13 L0,16 L-3,17 L-10,17 L-11,14 L-4,14 L2,12 L2,9 L-1,11 L-4,11 L-4,8 L3,5 L4,4 L-4,3 L-3,1 Z " fill="#DADADA" transform="translate(14,6)"/>
<path d="M0,0 L7,0 L5,4 L-4,3 L-3,1 Z " fill="#B1B1B1" transform="translate(14,6)"/>
<path d="M0,0 L10,1 L8,3 L1,3 Z " fill="#F2F2F2" transform="translate(3,20)"/>
</svg>
