<?xml version="1.0" encoding="UTF-8"?>
<svg version="1.1" xmlns="http://www.w3.org/2000/svg" width="28" height="28">
<path d="M0,0 L28,0 L28,28 L0,28 Z " fill="#040404" transform="translate(0,0)"/>
<path d="M0,0 L6,0 L7,4 L5,8 L7,8 L7,15 L2,20 L-3,20 L-7,16 L-6,13 L-2,17 L3,16 L5,9 L0,12 L-3,12 L-3,10 L-1,10 L-1,8 L3,6 L5,2 L0,4 L-4,5 L-3,2 L0,2 Z " fill="#DDDDDD" transform="translate(13,4)"/>
<path d="M0,0 L6,0 L5,2 L0,4 L-4,5 L-3,2 L0,2 Z " fill="#AEAEAE" transform="translate(13,4)"/>
<path d="M0,0 L5,4 L5,6 L7,7 L3,6 L0,3 Z " fill="#DFDFDF" transform="translate(6,17)"/>
</svg>
