<?xml version="1.0" encoding="UTF-8"?>
<svg version="1.1" xmlns="http://www.w3.org/2000/svg" width="28" height="28">
<path d="M0,0 L28,0 L28,28 L0,28 Z " fill="#050505" transform="translate(0,0)"/>
<path d="M0,0 L6,0 L5,4 L4,8 L4,14 L2,14 L1,17 L-4,20 L-10,20 L-9,16 L-4,16 L1,11 L2,8 L-4,11 L-6,11 L-5,7 L0,4 L2,4 L2,2 L-2,4 L-5,4 L-4,1 Z " fill="#E7E7E7" transform="translate(16,5)"/>
<path d="M0,0 L2,0 L2,2 L0,2 L-1,5 L-6,8 L-12,8 L-11,4 L-6,4 Z " fill="#CFCFCF" transform="translate(18,17)"/>
</svg>
