<?xml version="1.0" encoding="UTF-8"?>
<svg version="1.1" xmlns="http://www.w3.org/2000/svg" width="28" height="28">
<path d="M0,0 L28,0 L28,28 L0,28 Z " fill="#030303" transform="translate(0,0)"/>
<path d="M0,0 L4,1 L6,3 L5,10 L7,15 L1,20 L-8,19 L-9,18 L-9,13 L-4,13 L-3,17 L2,17 L1,13 L-3,15 L-3,9 L1,8 L2,4 L-4,5 L-7,7 L-10,7 L-10,5 Z " fill="#DDDDDD" transform="translate(15,3)"/>
<path d="M0,0 L3,3 L4,7 L-2,12 L-11,11 L-12,10 L-12,5 L-7,5 L-6,9 L-1,9 L0,3 L-2,2 Z " fill="#EBEBEB" transform="translate(18,11)"/>
<path d="M0,0 L1,0 L1,5 L5,2 L7,3 L6,7 L1,8 L-1,5 L0,3 L-3,2 L0,2 Z " fill="#272727" transform="translate(11,13)"/>
<path d="M0,0 L4,2 L-3,5 L-8,6 L-8,4 Z " fill="#C2C2C2" transform="translate(13,4)"/>
</svg>
