<?xml version="1.0" encoding="UTF-8"?>
<svg version="1.1" xmlns="http://www.w3.org/2000/svg" width="28" height="28">
<path d="M0,0 L28,0 L28,28 L0,28 Z " fill="#030303" transform="translate(0,0)"/>
<path d="M0,0 L10,0 L11,5 L8,9 L10,11 L9,15 L6,18 L1,20 L-5,20 L-7,18 L-7,13 L-5,9 L6,6 L8,5 L8,3 L-2,3 L-2,1 Z " fill="#D8D8D8" transform="translate(12,5)"/>
<path d="M0,0 L5,1 L5,5 L-2,8 L-7,8 L-8,4 L-7,2 Z " fill="#080808" transform="translate(14,15)"/>
<path d="M0,0 L4,1 L4,3 L-3,4 L-3,1 Z " fill="#C7C7C7" transform="translate(10,13)"/>
</svg>
