<?xml version="1.0" encoding="UTF-8"?>
<svg version="1.1" xmlns="http://www.w3.org/2000/svg" width="28" height="28">
<path d="M0,0 L28,0 L28,28 L0,28 Z " fill="#060606" transform="translate(0,0)"/>
<path d="M0,0 L7,1 L9,6 L14,9 L17,13 L16,17 L14,17 L14,19 L8,20 L-3,14 L-1,12 L6,15 L13,16 L13,11 L11,10 L1,10 L0,7 L5,5 L6,3 L-3,4 L-2,1 Z " fill="#D5D5D5" transform="translate(8,5)"/>
<path d="M0,0 L7,1 L9,8 L4,10 L0,9 L0,7 L5,5 L6,3 L-3,4 L-2,1 Z " fill="#F4F4F4" transform="translate(8,5)"/>
<path d="M0,0 L8,3 L8,4 L0,3 Z " fill="#DFDFDF" transform="translate(6,17)"/>
</svg>
