<?xml version="1.0" encoding="UTF-8"?>
<svg version="1.1" xmlns="http://www.w3.org/2000/svg" width="28" height="28">
<path d="M0,0 L28,0 L28,28 L0,28 Z " fill="#040404" transform="translate(0,0)"/>
<path d="M0,0 L4,1 L3,5 L2,6 L11,7 L13,9 L12,14 L6,17 L-2,17 L-5,14 L-6,9 L1,4 L2,2 L-7,5 L-7,3 Z " fill="#CBCBCB" transform="translate(12,5)"/>
<path d="M0,0 L13,0 L12,4 L6,7 L0,6 L-2,4 L-2,1 Z " fill="#0A0A0A" transform="translate(10,14)"/>
<path d="M0,0 L4,1 L3,5 L2,2 L-7,5 L-7,3 Z " fill="#C0C0C0" transform="translate(12,5)"/>
<path d="M0,0 L1,2 L8,3 L8,4 L-3,5 Z " fill="#F7F7F7" transform="translate(13,9)"/>
</svg>
