<?xml version="1.0" encoding="UTF-8"?>
<svg version="1.1" xmlns="http://www.w3.org/2000/svg" width="28" height="28">
<path d="M0,0 L28,0 L28,28 L0,28 Z " fill="#040404" transform="translate(0,0)"/>
<path d="M0,0 L6,0 L8,1 L7,6 L7,10 L7,16 L2,20 L-7,20 L-10,18 L-9,15 L-8,17 L-1,17 L4,14 L5,11 L-3,11 L-6,10 L-4,6 L-1,1 Z " fill="#E0E0E0" transform="translate(14,4)"/>
<path d="M0,0 L2,0 L2,5 L-3,9 L-12,9 L-15,7 L-14,4 L-13,6 L-6,6 L-1,3 Z " fill="#DFDFDF" transform="translate(19,15)"/>
<path d="M0,0 L6,0 L4,5 L2,7 L-2,6 L-2,2 Z " fill="#898989" transform="translate(14,4)"/>
</svg>
