<?xml version="1.0" encoding="UTF-8"?>
<svg version="1.1" xmlns="http://www.w3.org/2000/svg" width="28" height="28">
<path d="M0,0 L28,0 L28,28 L0,28 Z " fill="#040404" transform="translate(0,0)"/>
<path d="M0,0 L6,0 L8,2 L8,7 L10,8 L10,16 L8,16 L8,18 L2,20 L-4,19 L-6,18 L-6,15 L-3,14 L-2,16 L7,15 L6,10 L-2,10 L-1,7 L3,5 L4,3 L-3,5 L-5,7 L-8,7 L-7,3 Z " fill="#E4E4E4" transform="translate(12,5)"/>
<path d="M0,0 L2,2 L7,3 L7,4 L0,5 L-2,4 L-2,1 Z " fill="#C3C3C3" transform="translate(8,19)"/>
</svg>
