<?xml version="1.0" encoding="UTF-8"?>
<svg version="1.1" xmlns="http://www.w3.org/2000/svg" width="28" height="28">
<path d="M0,0 L28,0 L28,28 L0,28 Z " fill="#020202" transform="translate(0,0)"/>
<path d="M0,0 L8,0 L11,2 L11,7 L15,11 L14,17 L10,20 L4,19 L1,17 L2,13 L5,14 L4,16 L10,17 L11,12 L8,11 L5,11 L7,7 L9,3 L0,3 Z " fill="#DBDBDB" transform="translate(7,4)"/>
<path d="M0,0 L4,2 L3,7 L-1,8 L-5,6 L-3,1 Z " fill="#1B1B1B" transform="translate(15,14)"/>
<path d="M0,0 L3,1 L2,3 L5,5 L2,6 L-1,4 Z " fill="#D3D3D3" transform="translate(9,17)"/>
</svg>
