<?xml version="1.0" encoding="UTF-8"?>
<svg version="1.1" xmlns="http://www.w3.org/2000/svg" width="28" height="28">
<path d="M0,0 L28,0 L28,28 L0,28 Z " fill="#030303" transform="translate(0,0)"/>
<path d="M0,0 L7,0 L12,6 L13,11 L16,13 L15,18 L11,20 L3,20 L3,17 L12,16 L11,13 L5,11 L5,9 L9,9 L7,4 L2,3 L-3,5 L-2,1 Z " fill="#DBDBDB" transform="translate(7,5)"/>
<path d="M0,0 L7,0 L3,2 L-1,5 L-3,5 L-2,1 Z " fill="#CACACA" transform="translate(7,5)"/>
<path d="M0,0 L6,0 L8,3 L0,3 Z " fill="#B6B6B6" transform="translate(10,22)"/>
</svg>
