<?xml version="1.0" encoding="UTF-8"?>
<svg version="1.1" xmlns="http://www.w3.org/2000/svg" width="28" height="28">
<path d="M0,0 L28,0 L28,28 L0,28 Z " fill="#030303" transform="translate(0,0)"/>
<path d="M0,0 L9,1 L12,3 L11,8 L10,10 L10,15 L0,20 L-6,20 L-5,16 L-2,17 L7,14 L7,11 L1,10 L1,8 L8,7 L9,3 L-1,3 Z " fill="#E3E3E3" transform="translate(10,4)"/>
<path d="M0,0 L9,1 L12,3 L11,8 L9,7 L9,3 L-1,3 Z " fill="#C0C0C0" transform="translate(10,4)"/>
<path d="M0,0 L7,2 L5,4 L-1,4 Z " fill="#BEBEBE" transform="translate(5,20)"/>
</svg>
