<?xml version="1.0" encoding="UTF-8"?>
<svg version="1.1" xmlns="http://www.w3.org/2000/svg" width="28" height="28">
<path d="M0,0 L28,0 L28,28 L0,28 Z " fill="#040404" transform="translate(0,0)"/>
<path d="M0,0 L8,3 L7,10 L9,10 L9,16 L11,17 L3,20 L-7,20 L-9,16 L-8,14 L6,16 L5,10 L0,8 L4,6 L5,4 L0,2 Z " fill="#D7D7D7" transform="translate(12,2)"/>
<path d="M0,0 L8,3 L7,7 L0,8 L4,6 L5,4 L0,2 Z " fill="#EFEFEF" transform="translate(12,2)"/>
<path d="M0,0 L3,1 L10,3 L10,4 L0,5 L-1,2 Z " fill="#7C7C7C" transform="translate(4,16)"/>
</svg>
