<?xml version="1.0" encoding="UTF-8"?>
<svg version="1.1" xmlns="http://www.w3.org/2000/svg" width="28" height="28">
<path d="M0,0 L28,0 L28,28 L0,28 Z " fill="#030303" transform="translate(0,0)"/>
<path d="M0,0 L9,1 L14,5 L14,11 L11,13 L12,19 L7,20 L9,15 L2,16 L1,13 L5,11 L3,4 L0,4 Z " fill="#EDEDED" transform="translate(7,5)"/>
<path d="M0,0 L4,0 L4,6 L1,8 L2,14 L-3,15 L-1,10 L-8,11 L-9,8 L1,4 L2,1 Z " fill="#E9E9E9" transform="translate(17,10)"/>
<path d="M0,0 L2,0 L1,4 L-3,5 L-2,1 Z " fill="#171717" transform="translate(17,11)"/>
<path d="M0,0 L9,1 L9,2 L0,4 Z " fill="#A9A9A9" transform="translate(7,5)"/>
</svg>
