<?xml version="1.0" encoding="UTF-8"?>
<svg version="1.1" xmlns="http://www.w3.org/2000/svg" width="28" height="28">
<path d="M0,0 L28,0 L28,28 L0,28 Z " fill="#040404" transform="translate(0,0)"/>
<path d="M0,0 L12,0 L11,5 L9,9 L12,11 L11,18 L9,20 L-2,20 L-4,16 L-1,14 L2,15 L0,18 L7,17 L8,12 L-1,10 L-1,8 L6,5 L7,3 L0,3 Z " fill="#EEEEEE" transform="translate(9,5)"/>
<path d="M0,0 L1,0 L0,7 L-2,9 L-13,9 L-15,5 L-12,3 L-9,4 L-11,7 L-4,6 L-2,4 Z " fill="#D5D5D5" transform="translate(20,16)"/>
</svg>
