<?xml version="1.0" encoding="UTF-8"?>
<svg version="1.1" xmlns="http://www.w3.org/2000/svg" width="28" height="28">
<path d="M0,0 L28,0 L28,28 L0,28 Z " fill="#040404" transform="translate(0,0)"/>
<path d="M0,0 L6,0 L8,2 L10,8 L12,11 L11,16 L8,19 L0,20 L-2,19 L-2,16 L7,15 L8,10 L-3,10 L-2,7 L6,5 L6,3 L-5,4 L-5,1 Z " fill="#E0E0E0" transform="translate(11,5)"/>
<path d="M0,0 L6,0 L6,3 L-5,4 L-5,1 Z " fill="#CACACA" transform="translate(11,5)"/>
<path d="M0,0 L7,1 L6,4 L0,3 Z " fill="#E4E4E4" transform="translate(9,21)"/>
</svg>
