<?xml version="1.0" encoding="UTF-8"?>
<svg version="1.1" xmlns="http://www.w3.org/2000/svg" width="28" height="28">
<path d="M0,0 L28,0 L28,28 L0,28 Z " fill="#030303" transform="translate(0,0)"/>
<path d="M0,0 L7,1 L8,4 L5,8 L3,8 L5,14 L2,18 L0,17 L2,15 L2,12 L-6,12 L-5,9 L3,6 L5,3 L-3,4 L-2,1 Z " fill="#DBDBDB" transform="translate(14,5)"/>
<path d="M0,0 L9,2 L8,4 L1,3 Z " fill="#C9C9C9" transform="translate(4,21)"/>
<path d="M0,0 L6,2 L5,4 L-3,4 L-2,1 Z " fill="#BCBCBC" transform="translate(14,5)"/>
</svg>
