<?xml version="1.0" encoding="UTF-8"?>
<svg version="1.1" xmlns="http://www.w3.org/2000/svg" width="28" height="28">
<path d="M0,0 L28,0 L28,28 L0,28 Z " fill="#020202" transform="translate(0,0)"/>
<path d="M0,0 L4,1 L5,5 L3,9 L4,10 L3,17 L-1,20 L-8,20 L-11,17 L-11,15 L-5,17 L1,16 L2,10 L-3,12 L-7,11 L-7,9 L2,6 L3,3 L-5,6 L-4,3 Z " fill="#D9D9D9" transform="translate(16,4)"/>
<path d="M0,0 L1,0 L1,6 L-3,9 L-10,9 L-13,6 L-13,4 L-7,6 L-1,5 Z " fill="#B5B5B5" transform="translate(18,15)"/>
<path d="M0,0 L3,0 L2,4 L-4,5 L-4,2 Z " fill="#202020" transform="translate(16,7)"/>
</svg>
