<?xml version="1.0" encoding="UTF-8"?>
<svg version="1.1" xmlns="http://www.w3.org/2000/svg" width="28" height="28">
<path d="M0,0 L28,0 L28,28 L0,28 Z " fill="#030303" transform="translate(0,0)"/>
<path d="M0,0 L6,1 L5,5 L5,8 L6,14 L1,19 L-1,20 L-9,20 L-10,15 L-8,15 L-8,17 L2,17 L3,10 L-2,10 L-5,11 L-4,8 L3,3 L-2,3 L-2,1 Z " fill="#E6E6E6" transform="translate(15,4)"/>
<path d="M0,0 L1,4 L-4,9 L-6,10 L-14,10 L-15,5 L-13,5 L-13,7 L-3,7 L-1,1 Z " fill="#C2C2C2" transform="translate(20,14)"/>
<path d="M0,0 L2,0 L2,2 L7,3 L7,5 L1,5 Z " fill="#DDDDDD" transform="translate(5,19)"/>
</svg>
