<?xml version="1.0" encoding="UTF-8"?>
<svg version="1.1" xmlns="http://www.w3.org/2000/svg" width="28" height="28">
<path d="M0,0 L28,0 L28,28 L0,28 Z " fill="#040404" transform="translate(0,0)"/>
<path d="M0,0 L6,2 L7,5 L5,9 L5,16 L7,16 L7,19 L2,19 L1,20 L-5,20 L-4,15 L3,15 L3,9 L-4,10 L-3,7 L3,6 L4,4 L-5,6 L-3,2 Z " fill="#E2E2E2" transform="translate(13,4)"/>
<path d="M0,0 L2,0 L2,8 L0,4 L-7,4 L-6,1 Z " fill="#F3F3F3" transform="translate(16,10)"/>
<path d="M0,0 L4,2 L3,4 L5,5 L-1,5 Z " fill="#CDCDCD" transform="translate(9,19)"/>
<path d="M0,0 L4,1 L5,4 L3,6 L2,3 L0,2 Z " fill="#BABABA" transform="translate(15,5)"/>
</svg>
