<?xml version="1.0" encoding="UTF-8"?>
<svg version="1.1" xmlns="http://www.w3.org/2000/svg" width="28" height="28">
<path d="M0,0 L28,0 L28,28 L0,28 Z " fill="#040404" transform="translate(0,0)"/>
<path d="M0,0 L5,1 L6,5 L7,10 L9,10 L9,15 L3,20 L-8,20 L-9,16 L-8,14 L5,14 L4,10 L3,9 L-5,8 L-5,6 L2,4 L-9,4 L-9,2 Z " fill="#ECECEC" transform="translate(14,4)"/>
<path d="M0,0 L4,1 L7,3 L3,6 L-1,5 Z " fill="#AAAAAA" transform="translate(6,18)"/>
<path d="M0,0 L4,1 L1,3 L-8,2 L-8,1 Z " fill="#444444" transform="translate(13,7)"/>
</svg>
