<?xml version="1.0" encoding="UTF-8"?>
<svg version="1.1" xmlns="http://www.w3.org/2000/svg" width="28" height="28">
<path d="M0,0 L28,0 L28,28 L0,28 Z " fill="#040404" transform="translate(0,0)"/>
<path d="M0,0 L6,0 L8,2 L7,6 L6,9 L7,11 L7,19 L-6,20 L-8,16 L-5,14 L4,14 L4,9 L-5,10 L-4,6 L-4,2 Z " fill="#ECECEC" transform="translate(14,4)"/>
<path d="M0,0 L6,0 L4,6 L-2,8 L-3,10 L-5,10 L-4,6 L-4,2 Z " fill="#DDDDDD" transform="translate(14,4)"/>
<path d="M0,0 L6,0 L7,4 L5,8 L3,9 L-4,9 L-2,5 L3,5 L4,1 Z " fill="#EFEFEF" transform="translate(15,5)"/>
<path d="M0,0 L9,1 L6,3 L8,5 L1,5 L-1,1 Z " fill="#A6A6A6" transform="translate(7,19)"/>
<path d="M0,0 L4,0 L3,4 L-3,4 Z " fill="#313131" transform="translate(15,6)"/>
</svg>
