<?xml version="1.0" encoding="UTF-8"?>
<svg version="1.1" xmlns="http://www.w3.org/2000/svg" width="28" height="28">
<path d="M0,0 L28,0 L28,28 L0,28 Z " fill="#040404" transform="translate(0,0)"/>
<path d="M0,0 L7,2 L6,9 L9,15 L9,17 L2,20 L-3,20 L-2,15 L5,15 L4,10 L-4,10 L-3,7 L5,6 L5,3 L0,5 L-3,4 Z " fill="#F2F2F2" transform="translate(12,4)"/>
<path d="M0,0 L1,3 L4,4 L4,6 L-3,9 L-8,9 L-7,4 L0,4 Z " fill="#B4B4B4" transform="translate(17,15)"/>
<path d="M0,0 L3,0 L3,3 L-6,5 L-5,2 Z " fill="#353535" transform="translate(14,7)"/>
<path d="M0,0 L6,0 L6,1 L1,1 L1,3 L6,3 L4,5 L-1,5 Z " fill="#EDEDED" transform="translate(10,19)"/>
<path d="M0,0 L6,1 L2,4 L-3,5 Z " fill="#C3C3C3" transform="translate(12,4)"/>
</svg>
