<?xml version="1.0" encoding="UTF-8"?>
<svg version="1.1" xmlns="http://www.w3.org/2000/svg" width="28" height="28">
<path d="M0,0 L28,0 L28,28 L0,28 Z " fill="#020202" transform="translate(0,0)"/>
<path d="M0,0 L4,0 L4,7 L4,10 L6,12 L5,19 L-3,20 L-7,16 L-6,12 L0,10 L2,3 L-4,5 L-3,2 Z " fill="#D7D7D7" transform="translate(14,3)"/>
<path d="M0,0 L6,0 L7,4 L5,6 L-1,6 L-2,1 Z " fill="#0E0E0E" transform="translate(11,15)"/>
<path d="M0,0 L4,0 L3,4 L3,2 L-3,4 L-2,1 Z " fill="#B6B6B6" transform="translate(13,4)"/>
</svg>
