<?xml version="1.0" encoding="UTF-8"?>
<svg version="1.1" xmlns="http://www.w3.org/2000/svg" width="28" height="28">
<path d="M0,0 L28,0 L28,28 L0,28 Z " fill="#040404" transform="translate(0,0)"/>
<path d="M0,0 L9,0 L12,2 L11,7 L10,9 L14,11 L14,16 L10,19 L7,20 L-2,20 L-4,19 L-3,16 L-1,17 L6,17 L9,16 L10,11 L2,11 L2,8 L9,6 L9,3 L0,4 L-2,2 Z " fill="#E0E0E0" transform="translate(8,4)"/>
<path d="M0,0 L9,0 L9,2 L0,4 L-2,2 Z " fill="#F0F0F0" transform="translate(8,4)"/>
<path d="M0,0 L2,1 L0,3 L2,5 L-5,5 L-5,2 Z " fill="#BDBDBD" transform="translate(15,10)"/>
</svg>
