<?xml version="1.0" encoding="UTF-8"?>
<svg version="1.1" xmlns="http://www.w3.org/2000/svg" width="28" height="28">
<path d="M0,0 L28,0 L28,28 L0,28 Z " fill="#030303" transform="translate(0,0)"/>
<path d="M0,0 L6,0 L8,7 L7,11 L8,12 L8,17 L4,20 L-6,20 L-8,19 L-8,17 L3,17 L5,16 L4,11 L1,10 L1,8 L6,7 L5,2 L3,3 L-5,3 L-5,1 Z " fill="#D1D1D1" transform="translate(12,5)"/>
<path d="M0,0 L1,0 L1,5 L-3,8 L-13,8 L-15,7 L-15,5 L-4,5 L-2,4 Z " fill="#C2C2C2" transform="translate(19,17)"/>
<path d="M0,0 L1,2 L1,7 L-5,4 L-5,2 Z " fill="#F0F0F0" transform="translate(18,11)"/>
</svg>
