<?xml version="1.0" encoding="UTF-8"?>
<svg version="1.1" xmlns="http://www.w3.org/2000/svg" width="28" height="28">
<path d="M0,0 L28,0 L28,28 L0,28 Z " fill="#030303" transform="translate(0,0)"/>
<path d="M0,0 L6,1 L7,5 L4,8 L4,14 L0,19 L-7,20 L-9,18 L-9,13 L-3,8 L3,5 L5,5 L4,3 L0,3 L-2,6 L-5,5 L-4,1 Z " fill="#D5D5D5" transform="translate(15,5)"/>
<path d="M0,0 L7,0 L8,4 L5,6 L-1,6 Z " fill="#0E0E0E" transform="translate(9,16)"/>
<path d="M0,0 L6,1 L7,5 L4,8 L0,7 L5,5 L4,3 L0,3 L-2,6 L-5,5 L-4,1 Z " fill="#E4E4E4" transform="translate(15,5)"/>
<path d="M0,0 L1,2 L0,6 L4,7 L-1,8 L-2,7 L-2,2 Z " fill="#959595" transform="translate(8,16)"/>
</svg>
