<?xml version="1.0" encoding="UTF-8"?>
<svg version="1.1" xmlns="http://www.w3.org/2000/svg" width="28" height="28">
<path d="M0,0 L28,0 L28,28 L0,28 Z " fill="#040404" transform="translate(0,0)"/>
<path d="M0,0 L3,0 L4,7 L3,9 L1,9 L1,17 L-4,20 L-11,20 L-15,17 L-15,15 L-11,16 L-4,16 L-1,12 L-9,13 L-9,10 L2,7 L2,4 L-4,7 L-7,6 L-5,3 Z " fill="#E8E8E8" transform="translate(18,4)"/>
<path d="M0,0 L3,1 L5,3 L-3,4 L-3,1 Z " fill="#D9D9D9" transform="translate(12,13)"/>
<path d="M0,0 L2,0 L2,3 L-4,5 L-3,1 Z " fill="#454545" transform="translate(18,8)"/>
</svg>
