<?xml version="1.0" encoding="UTF-8"?>
<svg version="1.1" xmlns="http://www.w3.org/2000/svg" width="28" height="28">
<path d="M0,0 L28,0 L28,28 L0,28 Z " fill="#030303" transform="translate(0,0)"/>
<path d="M0,0 L5,0 L6,1 L6,6 L5,8 L9,12 L7,17 L3,20 L-4,20 L-7,17 L-7,15 L-5,15 L-5,17 L3,16 L6,15 L5,12 L-3,12 L-2,8 L2,7 L3,3 L-4,4 L-4,6 L-6,6 L-5,3 Z " fill="#EBEBEB" transform="translate(13,4)"/>
<path d="M0,0 L5,0 L6,1 L6,6 L3,5 L3,3 L-4,4 L-4,6 L-6,6 L-5,3 Z " fill="#C4C4C4" transform="translate(13,4)"/>
<path d="M0,0 L2,0 L2,2 L9,2 L10,5 L3,5 L0,2 Z " fill="#C4C4C4" transform="translate(6,19)"/>
</svg>
