<?xml version="1.0" encoding="UTF-8"?>
<svg version="1.1" xmlns="http://www.w3.org/2000/svg" width="28" height="28">
<path d="M0,0 L28,0 L28,28 L0,28 Z " fill="#030303" transform="translate(0,0)"/>
<path d="M0,0 L6,1 L8,3 L8,7 L14,9 L15,13 L14,15 L12,15 L12,17 L10,18 L0,17 L-4,15 L-3,12 L1,12 L1,14 L11,14 L12,10 L-2,9 L-2,7 L5,6 L5,3 L-5,4 L-4,1 Z " fill="#C7C7C7" transform="translate(10,5)"/>
<path d="M0,0 L4,0 L4,2 L12,4 L12,5 L3,5 L-1,3 Z " fill="#D8D8D8" transform="translate(7,17)"/>
</svg>
