<?xml version="1.0" encoding="UTF-8"?>
<svg version="1.1" xmlns="http://www.w3.org/2000/svg" width="28" height="28">
<path d="M0,0 L28,0 L28,28 L0,28 Z " fill="#020202" transform="translate(0,0)"/>
<path d="M0,0 L5,1 L3,5 L3,9 L2,16 L-3,20 L-7,19 L-6,16 L-2,15 L0,13 L1,9 L-4,8 L0,3 L-2,3 L-2,1 Z " fill="#EAEAEA" transform="translate(15,5)"/>
<path d="M0,0 L4,1 L-1,5 L-5,4 L-4,1 Z " fill="#CCCCCC" transform="translate(13,20)"/>
<path d="M0,0 L5,1 L4,4 L-2,3 L-2,1 Z " fill="#D3D3D3" transform="translate(15,5)"/>
</svg>
