<?xml version="1.0" encoding="UTF-8"?>
<svg version="1.1" xmlns="http://www.w3.org/2000/svg" width="28" height="28">
<path d="M0,0 L28,0 L28,28 L0,28 Z " fill="#040404" transform="translate(0,0)"/>
<path d="M0,0 L8,0 L9,1 L8,15 L3,19 L-4,20 L-6,19 L-6,13 L-3,12 L-3,18 L4,15 L5,12 L-1,12 L-1,9 L6,6 L7,2 L1,5 L-2,5 Z " fill="#EFEFEF" transform="translate(12,5)"/>
<path d="M0,0 L1,2 L9,2 L8,7 L4,10 L-3,11 L-5,10 L-5,4 L-2,3 L-2,9 L5,6 L6,3 L0,3 Z " fill="#D4D4D4" transform="translate(11,14)"/>
</svg>
