<?xml version="1.0" encoding="UTF-8"?>
<svg version="1.1" xmlns="http://www.w3.org/2000/svg" width="28" height="28">
<path d="M0,0 L28,0 L28,28 L0,28 Z " fill="#020202" transform="translate(0,0)"/>
<path d="M0,0 L10,0 L10,4 L7,6 L11,8 L11,13 L3,20 L-2,20 L-2,17 L4,15 L7,14 L8,10 L1,10 L-1,9 L1,5 L6,3 L-1,3 Z " fill="#F0F0F0" transform="translate(9,6)"/>
<path d="M0,0 L5,1 L5,6 L-3,13 L-8,13 L-8,10 L-2,8 L1,7 L2,3 L-5,3 L-5,2 L0,1 Z " fill="#D6D6D6" transform="translate(15,13)"/>
<path d="M0,0 L5,0 L2,3 L-2,4 L-3,1 Z " fill="#2A2A2A" transform="translate(11,8)"/>
</svg>
