<?xml version="1.0" encoding="UTF-8"?>
<svg version="1.1" xmlns="http://www.w3.org/2000/svg" width="28" height="28">
<path d="M0,0 L28,0 L28,28 L0,28 Z " fill="#030303" transform="translate(0,0)"/>
<path d="M0,0 L7,0 L10,2 L9,7 L5,9 L7,15 L6,18 L3,20 L-4,20 L-4,18 L3,18 L3,13 L-2,11 L-2,9 L7,6 L7,3 L1,3 Z " fill="#EBEBEB" transform="translate(11,6)"/>
<path d="M0,0 L2,3 L2,5 L-1,7 L-8,7 L-8,5 L-1,5 Z " fill="#C9C9C9" transform="translate(15,19)"/>
<path d="M0,0 L3,1 L2,3 L0,3 L-1,5 L-5,2 Z " fill="#C8C8C8" transform="translate(16,12)"/>
</svg>
