<?xml version="1.0" encoding="UTF-8"?>
<svg version="1.1" xmlns="http://www.w3.org/2000/svg" width="28" height="28">
<path d="M0,0 L28,0 L28,28 L0,28 Z " fill="#040404" transform="translate(0,0)"/>
<path d="M0,0 L8,0 L12,6 L15,9 L14,15 L11,18 L8,20 L0,20 L-3,18 L-3,15 L-1,15 L-1,17 L8,16 L11,15 L11,9 L6,10 L3,12 L0,12 L1,7 L4,5 L7,5 L7,3 L1,3 L-1,6 L-2,8 L-3,3 Z " fill="#E1E1E1" transform="translate(9,5)"/>
<path d="M0,0 L6,1 L6,3 L0,6 L-2,10 L-2,7 L-4,7 L-2,2 Z " fill="#202020" transform="translate(10,7)"/>
</svg>
