<?xml version="1.0" encoding="UTF-8"?>
<svg version="1.1" xmlns="http://www.w3.org/2000/svg" width="28" height="28">
<path d="M0,0 L28,0 L28,28 L0,28 Z " fill="#030303" transform="translate(0,0)"/>
<path d="M0,0 L5,0 L6,4 L3,8 L7,10 L7,15 L1,19 L-6,20 L-4,16 L3,15 L5,11 L-3,11 L-1,7 L3,3 L-3,4 L-3,1 Z " fill="#EAEAEA" transform="translate(13,5)"/>
<path d="M0,0 L4,1 L5,3 L0,5 L-4,5 L-2,1 Z " fill="#C1C1C1" transform="translate(11,20)"/>
<path d="M0,0 L3,1 L3,4 L-3,4 L-3,1 Z " fill="#BEBEBE" transform="translate(13,5)"/>
</svg>
