<?xml version="1.0" encoding="UTF-8"?>
<svg version="1.1" xmlns="http://www.w3.org/2000/svg" width="28" height="28">
<path d="M0,0 L28,0 L28,28 L0,28 Z " fill="#030303" transform="translate(0,0)"/>
<path d="M0,0 L5,0 L8,3 L7,8 L6,11 L5,16 L0,20 L-5,19 L-5,18 L1,16 L3,12 L0,11 L0,8 L-3,7 L2,8 L4,9 L4,4 L-4,4 L-6,7 L-7,3 Z " fill="#E4E4E4" transform="translate(14,5)"/>
<path d="M0,0 L4,1 L5,4 L7,5 L6,9 L4,11 L-3,12 L-4,7 L0,4 Z " fill="#A2A2A2" transform="translate(10,12)"/>
<path d="M0,0 L2,0 L1,4 L0,5 L-6,5 L-6,2 Z " fill="#0E0E0E" transform="translate(15,17)"/>
<path d="M0,0 L3,1 L2,3 L7,4 L7,5 L0,6 L-1,1 Z " fill="#BDBDBD" transform="translate(7,18)"/>
<path d="M0,0 L4,1 L5,3 L2,4 L-3,3 Z " fill="#BCBCBC" transform="translate(16,5)"/>
</svg>
