<?xml version="1.0" encoding="UTF-8"?>
<svg version="1.1" xmlns="http://www.w3.org/2000/svg" width="28" height="28">
<path d="M0,0 L28,0 L28,28 L0,28 Z " fill="#040404" transform="translate(0,0)"/>
<path d="M0,0 L3,0 L3,5 L1,9 L3,11 L2,16 L-3,19 L-8,20 L-15,20 L-17,18 L-16,14 L-13,15 L-14,18 L-1,15 L0,11 L-6,12 L-4,8 L-1,5 L0,3 L-7,6 L-12,6 L-11,3 L-7,1 Z " fill="#CECECE" transform="translate(19,5)"/>
<path d="M0,0 L3,0 L3,5 L0,9 L-2,9 L0,3 L-7,6 L-12,6 L-11,3 L-7,1 Z M-3,9 Z " fill="#E8E8E8" transform="translate(19,5)"/>
</svg>
