<?xml version="1.0" encoding="UTF-8"?>
<svg version="1.1" xmlns="http://www.w3.org/2000/svg" width="28" height="28">
<path d="M0,0 L28,0 L28,28 L0,28 Z " fill="#030303" transform="translate(0,0)"/>
<path d="M0,0 L9,0 L8,5 L6,7 L9,10 L8,15 L5,18 L-3,20 L-10,20 L-10,17 L4,14 L5,10 L-3,9 L-2,6 L5,3 L-3,3 L-4,1 Z " fill="#E4E4E4" transform="translate(12,5)"/>
<path d="M0,0 L2,1 L2,3 L0,4 L-7,4 L-7,1 Z " fill="#C1C1C1" transform="translate(9,21)"/>
<path d="M0,0 L5,0 L3,3 L-3,3 L-4,1 Z " fill="#C9C9C9" transform="translate(12,5)"/>
</svg>
