<?xml version="1.0" encoding="UTF-8"?>
<svg version="1.1" xmlns="http://www.w3.org/2000/svg" width="28" height="28">
<path d="M0,0 L28,0 L28,28 L0,28 Z " fill="#040404" transform="translate(0,0)"/>
<path d="M0,0 L6,1 L4,5 L-1,10 L1,10 L1,15 L-3,18 L-10,18 L-14,16 L-14,14 L-4,15 L-2,15 L-2,10 L-8,11 L-8,9 L1,4 L-3,4 L-2,1 Z " fill="#DFDFDF" transform="translate(17,5)"/>
<path d="M0,0 L1,0 L1,5 L-3,8 L-10,8 L-14,6 L-14,4 L-4,5 L-2,5 L-1,1 Z " fill="#CDCDCD" transform="translate(17,15)"/>
<path d="M0,0 L5,1 L6,6 L4,3 L-2,3 L-2,1 Z " fill="#F7F7F7" transform="translate(11,13)"/>
</svg>
