<?xml version="1.0" encoding="UTF-8"?>
<svg version="1.1" xmlns="http://www.w3.org/2000/svg" width="28" height="28">
<path d="M0,0 L28,0 L28,28 L0,28 Z " fill="#030303" transform="translate(0,0)"/>
<path d="M0,0 L5,0 L4,5 L3,7 L8,8 L9,9 L9,15 L2,20 L-4,20 L-4,16 L-3,18 L5,16 L6,9 L-3,10 L-1,6 L2,3 L-3,5 L-8,6 L-9,3 Z " fill="#D4D4D4" transform="translate(13,6)"/>
<path d="M0,0 L1,0 L1,6 L-1,8 L-5,7 L-3,7 L-2,1 Z " fill="#C1C1C1" transform="translate(21,15)"/>
<path d="M0,0 L8,1 L8,6 L6,3 L-3,3 Z " fill="#F5F5F5" transform="translate(13,13)"/>
</svg>
