<?xml version="1.0" encoding="UTF-8"?>
<svg version="1.1" xmlns="http://www.w3.org/2000/svg" width="28" height="28">
<path d="M0,0 L28,0 L28,28 L0,28 Z " fill="#010101" transform="translate(0,0)"/>
<path d="M0,0 L6,0 L7,4 L6,8 L8,11 L7,17 L3,20 L-1,20 L-1,18 L4,15 L4,11 L-2,11 L-3,8 L2,5 L3,3 L-4,5 L-4,2 Z " fill="#EBEBEB" transform="translate(12,6)"/>
<path d="M0,0 L2,2 L1,5 L0,6 L-4,8 L-6,7 L-6,5 L-1,2 Z " fill="#CECECE" transform="translate(15,9)"/>
<path d="M0,0 L4,0 L2,4 L-2,5 L-3,2 Z " fill="#1D1D1D" transform="translate(11,9)"/>
</svg>
