<?xml version="1.0" encoding="UTF-8"?>
<svg version="1.1" xmlns="http://www.w3.org/2000/svg" width="28" height="28">
<path d="M0,0 L28,0 L28,28 L0,28 Z " fill="#030303" transform="translate(0,0)"/>
<path d="M0,0 L6,0 L8,3 L8,7 L10,7 L10,12 L3,18 L0,20 L-3,20 L-4,15 L3,14 L7,11 L2,12 L-1,13 L-1,9 L5,6 L5,4 L-4,5 L-3,1 Z " fill="#E7E7E7" transform="translate(12,5)"/>
<path d="M0,0 L4,1 L-1,5 L-3,5 L-4,2 Z " fill="#2E2E2E" transform="translate(16,15)"/>
<path d="M0,0 L5,1 L4,5 L1,5 Z " fill="#D1D1D1" transform="translate(8,20)"/>
</svg>
