<?xml version="1.0" encoding="UTF-8"?>
<svg version="1.1" xmlns="http://www.w3.org/2000/svg" width="28" height="28">
<path d="M0,0 L28,0 L28,28 L0,28 Z " fill="#050505" transform="translate(0,0)"/>
<path d="M0,0 L6,1 L7,6 L5,9 L8,13 L7,18 L0,20 L-6,19 L-6,16 L4,16 L3,11 L-4,11 L-3,8 L4,5 L4,3 L-3,4 L-5,5 L-5,2 Z " fill="#E3E3E3" transform="translate(13,4)"/>
<path d="M0,0 L1,2 L3,2 L2,5 L-5,7 L-11,6 L-11,3 L-1,3 Z " fill="#B2B2B2" transform="translate(18,17)"/>
<path d="M0,0 L10,2 L6,4 L0,3 Z " fill="#E4E4E4" transform="translate(7,20)"/>
</svg>
