<?xml version="1.0" encoding="UTF-8"?>
<svg version="1.1" xmlns="http://www.w3.org/2000/svg" width="28" height="28">
<path d="M0,0 L28,0 L28,28 L0,28 Z " fill="#020202" transform="translate(0,0)"/>
<path d="M0,0 L2,0 L2,2 L5,2 L6,8 L5,11 L4,17 L1,20 L-8,20 L-8,16 L-6,16 L-6,18 L2,16 L2,13 L-3,14 L-2,10 L3,7 L4,5 L0,7 L-3,7 L-1,1 Z " fill="#E2E2E2" transform="translate(14,4)"/>
<path d="M0,0 L2,0 L2,2 L10,1 L9,4 L0,4 Z " fill="#EEEEEE" transform="translate(6,20)"/>
<path d="M0,0 L1,4 L-2,7 L-4,5 L-2,5 L-3,1 Z " fill="#B9B9B9" transform="translate(18,15)"/>
</svg>
