<?xml version="1.0" encoding="UTF-8"?>
<svg version="1.1" xmlns="http://www.w3.org/2000/svg" width="28" height="28">
<path d="M0,0 L28,0 L28,28 L0,28 Z " fill="#020202" transform="translate(0,0)"/>
<path d="M0,0 L8,0 L9,3 L7,8 L8,9 L7,16 L2,20 L-2,19 L4,15 L5,10 L-3,10 L-3,8 L5,4 L6,2 L-1,4 Z " fill="#DEDEDE" transform="translate(11,6)"/>
<path d="M0,0 L3,1 L3,3 L-4,4 L-4,2 Z " fill="#BABABA" transform="translate(12,12)"/>
<path d="M0,0 L4,0 L2,4 L-2,5 Z " fill="#1E1E1E" transform="translate(13,8)"/>
</svg>
