<?xml version="1.0" encoding="UTF-8"?>
<svg version="1.1" xmlns="http://www.w3.org/2000/svg" width="28" height="28">
<path d="M0,0 L28,0 L28,28 L0,28 Z " fill="#020202" transform="translate(0,0)"/>
<path d="M0,0 L6,1 L7,5 L6,7 L10,9 L11,10 L11,17 L8,20 L1,20 L-1,18 L-1,15 L1,15 L2,17 L7,17 L8,16 L8,11 L7,10 L-2,10 L-1,7 L4,5 L4,3 L-1,4 L-5,6 L-3,2 Z " fill="#E1E1E1" transform="translate(11,5)"/>
<path d="M0,0 L5,2 L7,6 L3,4 L-6,4 L-5,1 Z " fill="#C5C5C5" transform="translate(15,11)"/>
<path d="M0,0 L5,1 L4,4 L-2,6 Z " fill="#1C1C1C" transform="translate(11,7)"/>
</svg>
