<?xml version="1.0" encoding="UTF-8"?>
<svg version="1.1" xmlns="http://www.w3.org/2000/svg" width="28" height="28">
<path d="M0,0 L28,0 L28,28 L0,28 Z " fill="#050505" transform="translate(0,0)"/>
<path d="M0,0 L6,0 L8,2 L8,5 L6,5 L6,7 L10,9 L10,16 L6,20 L-1,20 L-5,17 L-5,15 L-1,17 L5,17 L7,16 L7,10 L5,8 L1,6 L5,4 L6,2 L-2,3 Z " fill="#E2E2E2" transform="translate(11,4)"/>
<path d="M0,0 L1,0 L1,7 L-2,9 L-9,9 L-13,6 L-13,4 L-9,6 L-3,6 L-1,5 Z " fill="#C7C7C7" transform="translate(19,15)"/>
<path d="M0,0 L5,0 L4,3 L2,4 L4,6 L-1,6 Z " fill="#343434" transform="translate(12,6)"/>
</svg>
