<?xml version="1.0" encoding="UTF-8"?>
<svg version="1.1" xmlns="http://www.w3.org/2000/svg" width="28" height="28">
<path d="M0,0 L28,0 L28,28 L0,28 Z " fill="#020202" transform="translate(0,0)"/>
<path d="M0,0 L7,1 L7,7 L6,9 L10,12 L9,17 L4,20 L1,20 L2,17 L6,16 L7,12 L1,11 L3,7 L5,3 L1,4 Z " fill="#CCCCCC" transform="translate(10,5)"/>
<path d="M0,0 L2,0 L1,3 L-5,4 L-4,1 Z " fill="#E8E8E8" transform="translate(16,21)"/>
<path d="M0,0 L7,1 L6,5 L6,2 L0,3 Z " fill="#FBFBFB" transform="translate(10,5)"/>
</svg>
