<?xml version="1.0" encoding="UTF-8"?>
<svg version="1.1" xmlns="http://www.w3.org/2000/svg" width="28" height="28">
<path d="M0,0 L28,0 L28,28 L0,28 Z " fill="#030303" transform="translate(0,0)"/>
<path d="M0,0 L8,0 L11,3 L9,9 L11,11 L11,17 L9,20 L0,20 L-3,17 L-2,14 L0,14 L1,16 L8,17 L8,11 L0,10 L0,7 L8,5 L8,3 L-1,4 Z " fill="#EBEBEB" transform="translate(10,5)"/>
<path d="M0,0 L1,0 L1,6 L-1,9 L-10,9 L-13,6 L-12,3 L-10,3 L-9,5 L-2,6 L-2,1 Z " fill="#CACACA" transform="translate(20,16)"/>
<path d="M0,0 L4,1 L7,3 L-1,4 Z " fill="#C4C4C4" transform="translate(10,5)"/>
</svg>
