<?xml version="1.0" encoding="UTF-8"?>
<svg version="1.1" xmlns="http://www.w3.org/2000/svg" width="28" height="28">
<path d="M0,0 L28,0 L28,28 L0,28 Z " fill="#040404" transform="translate(0,0)"/>
<path d="M0,0 L7,1 L8,5 L6,8 L11,11 L12,18 L8,20 L2,20 L1,15 L3,17 L9,16 L7,12 L-2,11 L-2,9 L5,4 L-5,3 L-4,1 Z " fill="#D8D8D8" transform="translate(10,5)"/>
<path d="M0,0 L7,4 L8,7 L4,6 L3,5 L-5,4 L-5,3 L0,2 Z " fill="#BFBFBF" transform="translate(14,12)"/>
<path d="M0,0 L3,1 L1,1 L2,4 L-5,5 L-5,3 Z " fill="#F4F4F4" transform="translate(13,11)"/>
</svg>
