<?xml version="1.0" encoding="UTF-8"?>
<svg version="1.1" xmlns="http://www.w3.org/2000/svg" width="28" height="28">
<path d="M0,0 L28,0 L28,28 L0,28 Z " fill="#020202" transform="translate(0,0)"/>
<path d="M0,0 L7,0 L12,3 L12,8 L11,11 L10,16 L8,19 L-1,20 L-6,17 L-6,13 L-5,15 L6,16 L8,11 L-1,10 L0,7 L9,6 L9,4 L1,3 Z " fill="#DEDEDE" transform="translate(10,4)"/>
<path d="M0,0 L1,2 L8,3 L4,4 L4,6 L0,4 Z " fill="#C3C3C3" transform="translate(4,17)"/>
<path d="M0,0 L7,0 L5,3 L0,2 Z " fill="#F5F5F5" transform="translate(8,21)"/>
</svg>
