<?xml version="1.0" encoding="UTF-8"?>
<svg version="1.1" xmlns="http://www.w3.org/2000/svg" width="28" height="28">
<path d="M0,0 L28,0 L28,28 L0,28 Z " fill="#030303" transform="translate(0,0)"/>
<path d="M0,0 L7,0 L8,4 L5,8 L7,8 L7,10 L9,10 L9,14 L7,14 L7,16 L3,17 L3,19 L-4,20 L-8,16 L-8,13 L-6,12 L-6,8 L1,5 L1,4 L-8,6 L-9,2 L-8,1 Z " fill="#E8E8E8" transform="translate(14,6)"/>
<path d="M0,0 L5,0 L6,3 L2,6 L-4,6 L-3,2 Z " fill="#0C0C0C" transform="translate(13,16)"/>
<path d="M0,0 L0,3 L-4,5 L-7,5 L-6,1 Z " fill="#2B2B2B" transform="translate(15,9)"/>
<path d="M0,0 L4,1 L3,3 L7,4 L3,4 L2,6 L0,3 Z " fill="#C5C5C5" transform="translate(6,19)"/>
</svg>
