<?xml version="1.0" encoding="UTF-8"?>
<svg version="1.1" xmlns="http://www.w3.org/2000/svg" width="28" height="28">
<path d="M0,0 L28,0 L28,28 L0,28 Z " fill="#020202" transform="translate(0,0)"/>
<path d="M0,0 L7,0 L8,5 L5,8 L13,11 L14,12 L14,17 L10,20 L2,20 L-1,18 L-1,16 L11,16 L12,13 L1,12 L-1,11 L-1,8 L4,5 L5,3 L-1,3 Z " fill="#D2D2D2" transform="translate(9,4)"/>
<path d="M0,0 L2,0 L1,4 L-2,6 L-8,5 L-8,4 L-1,2 Z " fill="#EBEBEB" transform="translate(21,18)"/>
<path d="M0,0 L7,0 L5,1 L5,3 L-1,3 Z " fill="#BEBEBE" transform="translate(9,4)"/>
</svg>
