<?xml version="1.0" encoding="UTF-8"?>
<svg version="1.1" xmlns="http://www.w3.org/2000/svg" width="28" height="28">
<path d="M0,0 L28,0 L28,28 L0,28 Z " fill="#040404" transform="translate(0,0)"/>
<path d="M0,0 L10,0 L15,3 L13,7 L11,7 L14,10 L18,13 L18,15 L16,15 L15,18 L11,20 L6,19 L5,14 L8,12 L5,10 L6,7 L9,5 L2,5 L0,4 Z " fill="#E8E8E8" transform="translate(5,5)"/>
<path d="M0,0 L6,1 L7,6 L3,8 L-2,7 L-3,2 Z M5,3 Z " fill="#E1E1E1" transform="translate(13,17)"/>
<path d="M0,0 L5,1 L4,4 L-1,5 Z " fill="#272727" transform="translate(14,17)"/>
</svg>
