<?xml version="1.0" encoding="UTF-8"?>
<svg version="1.1" xmlns="http://www.w3.org/2000/svg" width="28" height="28">
<path d="M0,0 L28,0 L28,28 L0,28 Z " fill="#050505" transform="translate(0,0)"/>
<path d="M0,0 L4,0 L4,11 L7,15 L5,19 L3,20 L-4,20 L-12,17 L-12,14 L-4,16 L3,16 L1,12 L-5,11 L-5,8 L1,7 L1,4 L-1,3 Z " fill="#E9E9E9" transform="translate(15,3)"/>
<path d="M0,0 L4,4 L2,8 L-5,7 L-5,6 L0,5 L-1,1 Z " fill="#CACACA" transform="translate(18,14)"/>
<path d="M0,0 L4,0 L3,7 L-1,3 Z " fill="#DEDEDE" transform="translate(15,3)"/>
</svg>
