<?xml version="1.0" encoding="UTF-8"?>
<svg version="1.1" xmlns="http://www.w3.org/2000/svg" width="28" height="28">
<path d="M0,0 L28,0 L28,28 L0,28 Z " fill="#030303" transform="translate(0,0)"/>
<path d="M0,0 L7,0 L8,1 L8,8 L13,9 L15,11 L14,16 L12,18 L2,18 L3,14 L11,14 L10,11 L0,11 L0,8 L5,5 L6,2 L-5,5 L-3,1 Z " fill="#E8E8E8" transform="translate(9,5)"/>
<path d="M0,0 L1,4 L-2,7 L-12,7 L-11,3 L-3,3 Z " fill="#BFBFBF" transform="translate(23,16)"/>
<path d="M0,0 L8,1 L8,3 L0,3 Z " fill="#EDEDED" transform="translate(11,20)"/>
</svg>
