<?xml version="1.0" encoding="UTF-8"?>
<svg version="1.1" xmlns="http://www.w3.org/2000/svg" width="28" height="28">
<path d="M0,0 L28,0 L28,28 L0,28 Z " fill="#040404" transform="translate(0,0)"/>
<path d="M0,0 L8,1 L12,5 L15,10 L17,12 L17,17 L10,20 L4,19 L3,17 L11,17 L14,14 L13,11 L5,12 L5,8 L9,7 L9,4 L0,2 Z " fill="#DDDDDD" transform="translate(5,4)"/>
<path d="M0,0 L1,0 L1,5 L-6,8 L-12,7 L-13,5 L-5,5 L-2,2 L0,2 Z " fill="#EDEDED" transform="translate(21,16)"/>
<path d="M0,0 L8,1 L11,3 L10,8 L7,7 L9,7 L9,4 L0,2 Z " fill="#C7C7C7" transform="translate(5,4)"/>
</svg>
