<?xml version="1.0" encoding="UTF-8"?>
<svg version="1.1" xmlns="http://www.w3.org/2000/svg" width="28" height="28">
<path d="M0,0 L28,0 L28,28 L0,28 Z " fill="#020202" transform="translate(0,0)"/>
<path d="M0,0 L7,0 L8,4 L6,8 L11,9 L12,10 L11,17 L8,20 L4,19 L9,15 L9,10 L2,12 L-2,12 L4,5 L5,4 L-1,3 L-1,5 L-4,4 L-4,1 Z " fill="#DDDDDD" transform="translate(10,6)"/>
<path d="M0,0 L10,1 L10,2 L3,2 L3,4 L0,3 Z " fill="#A5A5A5" transform="translate(6,7)"/>
<path d="M0,0 L0,3 L-3,8 L-6,7 Z " fill="#C2C2C2" transform="translate(14,11)"/>
</svg>
