<?xml version="1.0" encoding="UTF-8"?>
<svg version="1.1" xmlns="http://www.w3.org/2000/svg" width="28" height="28">
<path d="M0,0 L28,0 L28,28 L0,28 Z " fill="#020202" transform="translate(0,0)"/>
<path d="M0,0 L11,1 L12,6 L8,7 L8,11 L10,11 L10,15 L7,16 L7,12 L0,11 L0,8 L6,7 L9,6 L9,4 L0,4 Z " fill="#C2C2C2" transform="translate(9,6)"/>
<path d="M0,0 L5,0 L8,3 L0,4 Z " fill="#D8D8D8" transform="translate(9,6)"/>
<path d="M0,0 L3,1 L2,3 L-5,4 L-5,1 Z " fill="#C7C7C7" transform="translate(12,22)"/>
</svg>
