<?xml version="1.0" encoding="UTF-8"?>
<svg version="1.1" xmlns="http://www.w3.org/2000/svg" width="28" height="28">
<path d="M0,0 L28,0 L28,28 L0,28 Z " fill="#040404" transform="translate(0,0)"/>
<path d="M0,0 L8,1 L9,6 L7,9 L8,13 L6,17 L3,17 L3,19 L-6,20 L-11,18 L-9,14 L-5,15 L-5,17 L3,14 L4,11 L-4,10 L-4,7 L5,7 L5,4 L-2,4 L-5,6 L-8,6 L-6,2 Z " fill="#EAEAEA" transform="translate(14,4)"/>
<path d="M0,0 L7,0 L8,2 L5,5 L-1,4 Z " fill="#202020" transform="translate(12,7)"/>
<path d="M0,0 L5,1 L5,2 L-2,4 L-6,5 L-4,1 Z " fill="#CDCDCD" transform="translate(12,5)"/>
</svg>
