<?xml version="1.0" encoding="UTF-8"?>
<svg version="1.1" xmlns="http://www.w3.org/2000/svg" width="28" height="28">
<path d="M0,0 L28,0 L28,28 L0,28 Z " fill="#030303" transform="translate(0,0)"/>
<path d="M0,0 L9,0 L7,9 L2,18 L1,19 L-11,20 L-11,16 L-5,14 L-5,16 L0,17 L2,11 L0,11 L-3,12 L-2,8 L4,6 L5,3 L-4,3 L-4,1 Z " fill="#DDDDDD" transform="translate(14,5)"/>
<path d="M0,0 L2,0 L2,2 L0,2 L0,4 L3,5 L-4,6 L-4,2 Z " fill="#BEBEBE" transform="translate(7,19)"/>
<path d="M0,0 L4,1 L3,3 L-4,3 L-4,1 Z " fill="#C8C8C8" transform="translate(14,5)"/>
</svg>
