<?xml version="1.0" encoding="UTF-8"?>
<svg version="1.1" xmlns="http://www.w3.org/2000/svg" width="28" height="28">
<path d="M0,0 L28,0 L28,28 L0,28 Z " fill="#030303" transform="translate(0,0)"/>
<path d="M0,0 L9,3 L11,6 L10,11 L1,13 L-5,13 L-2,11 L9,9 L8,6 L-1,3 L-2,1 Z " fill="#E0E0E0" transform="translate(10,11)"/>
<path d="M0,0 L6,1 L8,3 L7,7 L3,6 L6,3 L-2,4 Z " fill="#EAEAEA" transform="translate(11,4)"/>
<path d="M0,0 L9,3 L9,6 L0,4 L-2,1 Z " fill="#C8C8C8" transform="translate(10,11)"/>
</svg>
