<?xml version="1.0" encoding="UTF-8"?>
<svg version="1.1" xmlns="http://www.w3.org/2000/svg" width="28" height="28">
<path d="M0,0 L28,0 L28,28 L0,28 Z " fill="#010101" transform="translate(0,0)"/>
<path d="M0,0 L7,1 L8,4 L5,9 L9,11 L10,17 L5,20 L1,20 L1,18 L6,16 L6,12 L1,12 L0,8 L4,3 L0,3 Z " fill="#DEDEDE" transform="translate(10,5)"/>
<path d="M0,0 L7,1 L8,4 L5,8 L5,11 L0,11 L1,7 L4,3 L0,3 Z " fill="#E8E8E8" transform="translate(10,5)"/>
<path d="M0,0 L5,3 L5,5 L3,5 L2,7 L2,4 L-3,4 L0,2 Z " fill="#B6B6B6" transform="translate(14,13)"/>
</svg>
