<?xml version="1.0" encoding="UTF-8"?>
<svg version="1.1" xmlns="http://www.w3.org/2000/svg" width="28" height="28">
<path d="M0,0 L28,0 L28,28 L0,28 Z " fill="#050505" transform="translate(0,0)"/>
<path d="M0,0 L13,0 L18,2 L17,6 L13,8 L18,13 L17,17 L15,19 L10,20 L3,20 L1,18 L2,14 L9,13 L9,15 L6,16 L12,16 L14,15 L13,12 L7,8 L7,6 L14,4 L13,3 L3,2 L2,5 L0,3 Z " fill="#E5E5E5" transform="translate(5,5)"/>
<path d="M0,0 L4,0 L4,2 L1,3 L5,5 L2,7 L-3,6 L-4,2 Z " fill="#C3C3C3" transform="translate(10,18)"/>
</svg>
