<?xml version="1.0" encoding="UTF-8"?>
<svg version="1.1" xmlns="http://www.w3.org/2000/svg" width="28" height="28">
<path d="M0,0 L28,0 L28,28 L0,28 Z " fill="#010101" transform="translate(0,0)"/>
<path d="M0,0 L6,0 L8,1 L7,9 L9,9 L10,14 L5,20 L-1,20 L-4,17 L-3,14 L6,14 L6,12 L-1,12 L0,8 L4,4 L-2,6 L-1,1 Z " fill="#E4E4E4" transform="translate(11,4)"/>
<path d="M0,0 L1,3 L8,3 L8,5 L6,6 L-1,6 L-2,4 L0,4 Z " fill="#222222" transform="translate(9,13)"/>
<path d="M0,0 L4,0 L3,3 L-1,5 L-2,2 Z " fill="#262626" transform="translate(11,8)"/>
</svg>
