<?xml version="1.0" encoding="UTF-8"?>
<svg version="1.1" xmlns="http://www.w3.org/2000/svg" width="28" height="28">
<path d="M0,0 L28,0 L28,28 L0,28 Z " fill="#020202" transform="translate(0,0)"/>
<path d="M0,0 L7,0 L8,5 L6,8 L5,15 L2,19 L-2,20 L-10,20 L-11,19 L-11,14 L1,14 L2,11 L-2,12 L-1,8 L4,5 L5,3 L-4,5 L-3,1 Z " fill="#EBEBEB" transform="translate(15,4)"/>
<path d="M0,0 L5,0 L3,4 L-1,5 Z " fill="#1F1F1F" transform="translate(15,7)"/>
<path d="M0,0 L5,0 L5,4 L2,3 L0,5 Z " fill="#B1B1B1" transform="translate(4,18)"/>
<path d="M0,0 L2,1 L-1,5 L-4,5 L-3,1 Z " fill="#D6D6D6" transform="translate(15,4)"/>
</svg>
