<?xml version="1.0" encoding="UTF-8"?>
<svg version="1.1" xmlns="http://www.w3.org/2000/svg" width="28" height="28">
<path d="M0,0 L28,0 L28,28 L0,28 Z " fill="#020202" transform="translate(0,0)"/>
<path d="M0,0 L5,0 L6,4 L4,9 L3,14 L-3,20 L-8,20 L-8,14 L-5,14 L-1,14 L1,10 L-3,10 L-3,7 L2,6 L3,2 L0,2 Z " fill="#E7E7E7" transform="translate(15,4)"/>
<path d="M0,0 L6,1 L5,5 L1,6 L-1,5 Z " fill="#4E4E4E" transform="translate(12,5)"/>
<path d="M0,0 L5,0 L6,4 L3,4 L3,2 L0,2 Z " fill="#D3D3D3" transform="translate(15,4)"/>
</svg>
