<?xml version="1.0" encoding="UTF-8"?>
<svg version="1.1" xmlns="http://www.w3.org/2000/svg" width="28" height="28">
<path d="M0,0 L28,0 L28,28 L0,28 Z " fill="#030303" transform="translate(0,0)"/>
<path d="M0,0 L6,0 L8,4 L5,6 L3,12 L-3,16 L-10,16 L-12,14 L-11,10 L-8,10 L-9,13 L-4,12 L0,10 L1,7 L-4,7 L-3,5 L2,3 L0,2 Z " fill="#DDDDDD" transform="translate(15,6)"/>
<path d="M0,0 L6,0 L8,4 L3,6 L2,9 L2,7 L-4,7 L-3,5 L2,3 L0,2 Z " fill="#EAEAEA" transform="translate(15,6)"/>
<path d="M0,0 L1,4 L-4,9 L-7,6 L-3,4 L-1,1 Z " fill="#BDBDBD" transform="translate(18,12)"/>
</svg>
