<?xml version="1.0" encoding="UTF-8"?>
<svg version="1.1" xmlns="http://www.w3.org/2000/svg" width="28" height="28">
<path d="M0,0 L28,0 L28,28 L0,28 Z " fill="#040404" transform="translate(0,0)"/>
<path d="M0,0 L11,0 L14,1 L13,6 L11,7 L19,10 L18,15 L12,18 L-1,18 L-1,16 L12,15 L16,12 L3,9 L3,6 L12,4 L12,2 L0,3 Z " fill="#CFCFCF" transform="translate(5,5)"/>
<path d="M0,0 L5,0 L5,1 L14,3 L15,7 L6,4 L0,3 Z " fill="#D8D8D8" transform="translate(8,11)"/>
<path d="M0,0 L5,0 L9,3 L0,3 Z " fill="#FAFAFA" transform="translate(8,11)"/>
</svg>
