<?xml version="1.0" encoding="UTF-8"?>
<svg version="1.1" xmlns="http://www.w3.org/2000/svg" width="28" height="28">
<path d="M0,0 L28,0 L28,28 L0,28 Z " fill="#040404" transform="translate(0,0)"/>
<path d="M0,0 L8,0 L11,2 L10,7 L9,9 L12,10 L13,15 L10,19 L2,20 L-2,18 L-1,15 L1,15 L2,17 L7,17 L9,15 L9,12 L2,11 L-3,11 L-3,8 L7,6 L9,3 L0,3 Z " fill="#DDDDDD" transform="translate(9,4)"/>
<path d="M0,0 L2,0 L3,2 L9,3 L6,5 L0,4 Z " fill="#E9E9E9" transform="translate(8,19)"/>
<path d="M0,0 L8,0 L7,3 L0,3 Z " fill="#A5A5A5" transform="translate(9,4)"/>
</svg>
