<?xml version="1.0" encoding="UTF-8"?>
<svg version="1.1" xmlns="http://www.w3.org/2000/svg" width="28" height="28">
<path d="M0,0 L28,0 L28,28 L0,28 Z " fill="#020202" transform="translate(0,0)"/>
<path d="M0,0 L7,0 L9,2 L7,14 L2,19 L-5,20 L-4,16 L4,11 L-3,11 L-2,7 L5,5 L6,3 L0,3 Z " fill="#E8E8E8" transform="translate(12,4)"/>
<path d="M0,0 L7,0 L9,2 L7,14 L6,14 L5,5 L6,3 L0,3 Z " fill="#C8C8C8" transform="translate(12,4)"/>
<path d="M0,0 L5,0 L3,4 L-1,4 Z " fill="#D1D1D1" transform="translate(10,11)"/>
</svg>
