<?xml version="1.0" encoding="UTF-8"?>
<svg version="1.1" xmlns="http://www.w3.org/2000/svg" width="28" height="28">
<path d="M0,0 L28,0 L28,28 L0,28 Z " fill="#030303" transform="translate(0,0)"/>
<path d="M0,0 L7,0 L9,4 L9,8 L9,14 L4,19 L-4,20 L-5,16 L1,12 L7,11 L7,9 L-4,10 L-3,7 L5,3 L0,2 Z " fill="#C9C9C9" transform="translate(12,4)"/>
<path d="M0,0 L2,0 L3,2 L9,1 L8,4 L0,5 L-1,1 Z " fill="#E9E9E9" transform="translate(8,19)"/>
<path d="M0,0 L3,1 L7,3 L-3,4 L-2,1 Z " fill="#B6B6B6" transform="translate(11,10)"/>
</svg>
