<?xml version="1.0" encoding="UTF-8"?>
<svg version="1.1" xmlns="http://www.w3.org/2000/svg" width="28" height="28">
<path d="M0,0 L28,0 L28,28 L0,28 Z " fill="#020202" transform="translate(0,0)"/>
<path d="M0,0 L4,1 L5,5 L5,8 L8,11 L7,15 L-1,20 L-7,20 L-10,17 L-9,13 L-8,17 L2,15 L5,14 L4,10 L-2,8 L-1,5 L1,4 L-3,2 Z " fill="#D9D9D9" transform="translate(14,3)"/>
<path d="M0,0 L1,4 L9,4 L8,7 L2,7 L-1,4 Z M9,3 Z " fill="#C9C9C9" transform="translate(5,16)"/>
<path d="M0,0 L4,3 L3,7 L-3,11 L-3,8 L1,6 Z " fill="#F3F3F3" transform="translate(18,11)"/>
</svg>
