<?xml version="1.0" encoding="UTF-8"?>
<svg version="1.1" xmlns="http://www.w3.org/2000/svg" width="28" height="28">
<path d="M0,0 L28,0 L28,28 L0,28 Z " fill="#020202" transform="translate(0,0)"/>
<path d="M0,0 L5,0 L9,5 L8,10 L12,12 L11,17 L6,20 L-2,20 L-1,17 L7,16 L9,12 L-2,13 L-1,9 L0,8 L5,8 L4,4 L-3,5 L-3,2 Z " fill="#E0E0E0" transform="translate(10,4)"/>
<path d="M0,0 Z M-8,1 L0,1 L-1,4 L-9,4 Z " fill="#F0F0F0" transform="translate(17,20)"/>
<path d="M0,0 L5,0 L4,3 L-3,5 L-3,2 Z " fill="#C2C2C2" transform="translate(10,4)"/>
<path d="M0,0 L1,4 L-4,7 L-2,1 Z " fill="#CACACA" transform="translate(21,16)"/>
</svg>
