<?xml version="1.0" encoding="UTF-8"?>
<svg version="1.1" xmlns="http://www.w3.org/2000/svg" width="28" height="28">
<path d="M0,0 L28,0 L28,28 L0,28 Z " fill="#030303" transform="translate(0,0)"/>
<path d="M0,0 L3,0 L4,2 L4,9 L9,10 L9,16 L3,20 L-5,20 L-8,18 L-7,15 L-5,16 L4,16 L6,15 L6,12 L-3,11 L-3,8 L2,6 L3,3 L-6,4 L-3,1 Z " fill="#DDDDDD" transform="translate(13,3)"/>
<path d="M0,0 L9,2 L7,5 L0,4 Z " fill="#B7B7B7" transform="translate(6,18)"/>
<path d="M0,0 L3,0 L4,3 L-6,4 L-3,1 Z " fill="#C7C7C7" transform="translate(13,3)"/>
</svg>
