<?xml version="1.0" encoding="UTF-8"?>
<svg version="1.1" xmlns="http://www.w3.org/2000/svg" width="28" height="28">
<path d="M0,0 L28,0 L28,28 L0,28 Z " fill="#040404" transform="translate(0,0)"/>
<path d="M0,0 L9,0 L10,1 L10,7 L7,9 L14,13 L15,18 L12,20 L2,20 L0,18 L0,15 L2,15 L2,17 L12,17 L12,15 L10,15 L10,13 L1,12 L1,9 L7,5 L8,3 L-5,4 L-5,2 Z " fill="#D6D6D6" transform="translate(8,4)"/>
<path d="M0,0 L6,0 L7,3 L-5,4 L-5,2 Z " fill="#B6B6B6" transform="translate(8,4)"/>
<path d="M0,0 L2,0 L3,2 L10,3 L8,5 L2,5 L0,3 Z " fill="#EBEBEB" transform="translate(8,19)"/>
</svg>
