<?xml version="1.0" encoding="UTF-8"?>
<svg version="1.1" xmlns="http://www.w3.org/2000/svg" width="28" height="28">
<path d="M0,0 L28,0 L28,28 L0,28 Z " fill="#020202" transform="translate(0,0)"/>
<path d="M0,0 L10,0 L12,4 L8,8 L19,10 L20,14 L17,18 L9,18 L8,14 L10,14 L10,16 L16,15 L17,12 L3,12 L2,9 L8,4 L1,3 Z " fill="#E5E5E5" transform="translate(4,5)"/>
<path d="M0,0 L9,0 L11,1 L10,5 L4,5 L3,2 Z " fill="#181818" transform="translate(10,16)"/>
<path d="M0,0 L10,0 L10,3 L1,3 Z " fill="#BBBBBB" transform="translate(4,5)"/>
</svg>
