<?xml version="1.0" encoding="UTF-8"?>
<svg version="1.1" xmlns="http://www.w3.org/2000/svg" width="28" height="28">
<path d="M0,0 L28,0 L28,28 L0,28 Z " fill="#050505" transform="translate(0,0)"/>
<path d="M0,0 L7,0 L9,2 L9,7 L4,9 L15,11 L17,12 L16,18 L14,20 L8,19 L4,15 L4,13 L7,14 L7,16 L14,16 L13,13 L2,11 L2,7 L7,6 L6,3 L-1,2 L-2,4 L-3,1 Z " fill="#D6D6D6" transform="translate(7,5)"/>
<path d="M0,0 L3,1 L3,3 L10,4 L10,7 L4,6 L0,2 Z " fill="#C1C1C1" transform="translate(11,18)"/>
<path d="M0,0 L5,0 L2,2 L10,3 L10,4 L0,4 Z " fill="#EFEFEF" transform="translate(9,12)"/>
</svg>
