<?xml version="1.0" encoding="UTF-8"?>
<svg version="1.1" xmlns="http://www.w3.org/2000/svg" width="28" height="28">
<path d="M0,0 L28,0 L28,28 L0,28 Z " fill="#030303" transform="translate(0,0)"/>
<path d="M0,0 L4,0 L3,15 L-1,19 L-8,20 L-10,19 L-10,15 L-6,15 L-6,17 L0,15 L1,10 L-3,11 L-2,7 L1,4 L-5,5 L-3,1 Z " fill="#E0E0E0" transform="translate(16,4)"/>
<path d="M0,0 L4,0 L4,2 L8,3 L7,5 L0,4 Z " fill="#F1F1F1" transform="translate(6,19)"/>
<path d="M0,0 L2,3 L0,8 L-4,9 L-3,6 L-1,5 Z " fill="#CBCBCB" transform="translate(17,14)"/>
</svg>
