<?xml version="1.0" encoding="UTF-8"?>
<svg version="1.1" xmlns="http://www.w3.org/2000/svg" width="28" height="28">
<path d="M0,0 L28,0 L28,28 L0,28 Z " fill="#020202" transform="translate(0,0)"/>
<path d="M0,0 L5,2 L4,6 L3,11 L2,16 L-3,19 L-10,20 L-15,15 L-15,11 L-12,11 L-10,14 L-7,15 L-7,17 L-2,15 L0,11 L-6,12 L-6,9 L1,5 L2,3 L-2,5 L-5,5 L-5,2 Z " fill="#CCCCCC" transform="translate(18,3)"/>
<path d="M0,0 L3,0 L5,3 L8,5 L4,6 L3,8 L0,4 Z " fill="#E4E4E4" transform="translate(3,14)"/>
<path d="M0,0 L7,1 L7,4 L2,4 Z " fill="#B9B9B9" transform="translate(6,19)"/>
<path d="M0,0 L6,0 L6,2 L-1,4 L-1,1 Z " fill="#E4E4E4" transform="translate(13,11)"/>
</svg>
