<?xml version="1.0" encoding="UTF-8"?>
<svg version="1.1" xmlns="http://www.w3.org/2000/svg" width="28" height="28">
<path d="M0,0 L28,0 L28,28 L0,28 Z " fill="#040404" transform="translate(0,0)"/>
<path d="M0,0 L8,0 L14,3 L13,9 L17,10 L18,11 L17,18 L14,20 L7,19 L4,16 L5,13 L6,16 L15,17 L13,11 L4,9 L4,7 L12,6 L12,4 L0,2 Z " fill="#DFDFDF" transform="translate(4,5)"/>
<path d="M0,0 L1,3 L9,4 L9,5 L2,6 L-1,3 Z " fill="#B3B3B3" transform="translate(9,18)"/>
<path d="M0,0 L4,1 L5,4 L3,4 L2,7 Z " fill="#C8C8C8" transform="translate(17,14)"/>
</svg>
