<?xml version="1.0" encoding="UTF-8"?>
<svg version="1.1" xmlns="http://www.w3.org/2000/svg" width="28" height="28">
<path d="M0,0 L28,0 L28,28 L0,28 Z " fill="#040404" transform="translate(0,0)"/>
<path d="M0,0 L6,0 L12,3 L11,9 L15,12 L14,18 L13,19 L4,19 L-1,15 L-1,10 L1,11 L3,15 L4,16 L13,17 L12,12 L3,10 L3,8 L8,6 L8,4 L6,3 L0,3 L-4,5 L-3,2 Z " fill="#C2C2C2" transform="translate(8,5)"/>
<path d="M0,0 L4,0 L4,2 L9,4 L10,9 L8,10 L7,5 L-2,3 L-2,1 Z " fill="#DBDBDB" transform="translate(13,12)"/>
</svg>
