<?xml version="1.0" encoding="UTF-8"?>
<svg version="1.1" xmlns="http://www.w3.org/2000/svg" width="28" height="28">
<path d="M0,0 L28,0 L28,28 L0,28 Z " fill="#040404" transform="translate(0,0)"/>
<path d="M0,0 L7,0 L6,5 L1,9 L8,11 L9,16 L4,19 L2,20 L-6,20 L-6,17 L-1,18 L7,16 L7,13 L5,12 L-7,11 L-4,8 L3,4 L5,4 L5,2 L-5,3 L-5,5 L-7,5 L-6,2 Z " fill="#D0D0D0" transform="translate(13,5)"/>
<path d="M0,0 L7,0 L6,5 L1,10 L-4,9 L0,6 L5,4 L5,2 L-5,3 L-5,5 L-7,5 L-6,2 Z " fill="#B2B2B2" transform="translate(13,5)"/>
</svg>
