<?xml version="1.0" encoding="UTF-8"?>
<svg version="1.1" xmlns="http://www.w3.org/2000/svg" width="28" height="28">
<path d="M0,0 L28,0 L28,28 L0,28 Z " fill="#020202" transform="translate(0,0)"/>
<path d="M0,0 L6,0 L7,1 L7,6 L5,9 L9,11 L10,15 L5,20 L-8,20 L-10,18 L-9,14 L-5,10 L3,7 L5,3 L0,3 L-1,5 L-3,5 L-1,1 Z " fill="#101010" transform="translate(13,4)"/>
<path d="M0,0 L6,0 L7,1 L7,6 L5,9 L9,11 L10,15 L5,20 L-8,20 L-8,17 L-6,18 L3,18 L7,17 L7,12 L2,11 L-2,13 L-6,12 L-5,10 L3,7 L5,3 L0,3 L-1,5 L-3,5 L-1,1 Z " fill="#D0D0D0" transform="translate(13,4)"/>
<path d="M0,0 L6,0 L6,3 L0,3 L-1,5 L-3,5 L-1,1 Z " fill="#A8A8A8" transform="translate(13,4)"/>
</svg>
