<?xml version="1.0" encoding="UTF-8"?>
<svg version="1.1" xmlns="http://www.w3.org/2000/svg" width="28" height="28">
<path d="M0,0 L28,0 L28,28 L0,28 Z " fill="#030303" transform="translate(0,0)"/>
<path d="M0,0 L2,0 L0,5 L-1,7 L1,7 L2,15 L-3,20 L-10,20 L-14,17 L-13,13 L-11,17 L-2,17 L-1,16 L-1,9 L-7,10 L-7,8 L-5,7 L-12,6 L-11,2 L-10,5 L-2,2 Z " fill="#BEBEBE" transform="translate(19,5)"/>
<path d="M0,0 L2,0 L1,4 L-4,6 L-12,6 L-11,2 L-10,5 L-2,2 Z " fill="#D6D6D6" transform="translate(19,5)"/>
</svg>
