<?xml version="1.0" encoding="UTF-8"?>
<svg version="1.1" xmlns="http://www.w3.org/2000/svg" width="28" height="28">
<path d="M0,0 L28,0 L28,28 L0,28 Z " fill="#040404" transform="translate(0,0)"/>
<path d="M0,0 L7,0 L12,4 L12,7 L10,7 L10,11 L12,13 L12,17 L5,20 L-2,19 L-4,15 L-1,10 L7,6 L7,4 L-5,4 L-5,1 Z " fill="#DEDEDE" transform="translate(10,4)"/>
<path d="M0,0 L7,0 L12,4 L12,7 L8,8 L9,4 L-5,4 L-5,1 Z " fill="#EFEFEF" transform="translate(10,4)"/>
<path d="M0,0 L6,1 L6,5 L-2,5 L-2,1 Z " fill="#111111" transform="translate(12,16)"/>
<path d="M0,0 L7,0 L5,3 L-5,4 L-5,1 Z " fill="#C2C2C2" transform="translate(10,4)"/>
</svg>
