<?xml version="1.0" encoding="UTF-8"?>
<svg version="1.1" xmlns="http://www.w3.org/2000/svg" width="28" height="28">
<path d="M0,0 L28,0 L28,28 L0,28 Z " fill="#050505" transform="translate(0,0)"/>
<path d="M0,0 L7,1 L10,3 L9,10 L12,14 L11,19 L10,20 L3,20 L-4,17 L-5,14 L3,16 L9,16 L7,12 L-2,11 L-1,8 L6,7 L8,4 L0,3 Z " fill="#E6E6E6" transform="translate(10,3)"/>
<path d="M0,0 L6,0 L6,3 L-1,3 Z " fill="#D8D8D8" transform="translate(9,11)"/>
<path d="M0,0 L3,0 L1,4 L-6,4 L-3,1 Z " fill="#C2C2C2" transform="translate(19,19)"/>
</svg>
