<?xml version="1.0" encoding="UTF-8"?>
<svg version="1.1" xmlns="http://www.w3.org/2000/svg" width="28" height="28">
<path d="M0,0 L28,0 L28,28 L0,28 Z " fill="#030303" transform="translate(0,0)"/>
<path d="M0,0 L5,0 L6,5 L7,10 L7,18 L6,20 L-3,20 L-4,15 L-3,13 L1,14 L4,16 L4,10 L-3,11 L-1,7 L3,5 L4,2 L-1,4 L-4,4 L-4,2 Z " fill="#D7D7D7" transform="translate(12,4)"/>
<path d="M0,0 L3,1 L2,3 L7,5 L9,7 L0,7 L-1,2 Z " fill="#858585" transform="translate(9,17)"/>
<path d="M0,0 L1,0 L1,6 L-2,7 L-7,4 L-7,2 L-1,4 Z " fill="#F0F0F0" transform="translate(18,16)"/>
</svg>
