<?xml version="1.0" encoding="UTF-8"?>
<svg version="1.1" xmlns="http://www.w3.org/2000/svg" width="28" height="28">
<path d="M0,0 L28,0 L28,28 L0,28 Z " fill="#040404" transform="translate(0,0)"/>
<path d="M0,0 L5,1 L5,2 L0,3 L9,4 L10,5 L10,10 L8,12 L15,14 L14,18 L8,20 L9,17 L12,16 L4,15 L4,12 L7,9 L8,6 L-2,6 L-4,2 Z " fill="#EBEBEB" transform="translate(8,5)"/>
<path d="M0,0 L5,1 L5,2 L0,3 L0,4 L7,5 L7,6 L-2,6 L-4,2 Z " fill="#C2C2C2" transform="translate(8,5)"/>
<path d="M0,0 L3,1 L2,5 L-4,7 L-3,4 L0,3 L-5,2 L-5,1 Z " fill="#CDCDCD" transform="translate(20,18)"/>
</svg>
