<?xml version="1.0" encoding="UTF-8"?>
<svg version="1.1" xmlns="http://www.w3.org/2000/svg" width="28" height="28">
<path d="M0,0 L28,0 L28,28 L0,28 Z " fill="#030303" transform="translate(0,0)"/>
<path d="M0,0 L5,0 L6,4 L3,7 L7,11 L6,16 L1,20 L-6,20 L-9,17 L-8,15 L-6,17 L0,17 L3,15 L3,10 L-5,10 L-1,6 L3,4 L4,2 L-5,5 L-4,2 Z " fill="#DBDBDB" transform="translate(14,4)"/>
<path d="M0,0 L4,2 L-5,5 L-4,2 Z " fill="#CACACA" transform="translate(14,4)"/>
<path d="M0,0 L3,3 L2,7 L0,7 L-1,1 Z " fill="#BEBEBE" transform="translate(18,12)"/>
</svg>
