<?xml version="1.0" encoding="UTF-8"?>
<svg version="1.1" xmlns="http://www.w3.org/2000/svg" width="28" height="28">
<path d="M0,0 L28,0 L28,28 L0,28 Z " fill="#030303" transform="translate(0,0)"/>
<path d="M0,0 L6,0 L9,2 L9,8 L13,12 L12,17 L7,20 L-3,20 L-4,16 L-2,16 L-2,18 L8,16 L10,15 L9,11 L5,9 L2,9 L2,7 L6,5 L6,3 L-1,3 L-4,7 L-5,3 Z " fill="#DCDCDC" transform="translate(10,5)"/>
<path d="M0,0 L2,0 L1,3 L-3,5 L-13,5 L-14,1 L-12,1 L-12,3 L-2,1 Z " fill="#C5C5C5" transform="translate(20,20)"/>
</svg>
