<?xml version="1.0" encoding="UTF-8"?>
<svg version="1.1" xmlns="http://www.w3.org/2000/svg" width="28" height="28">
<path d="M0,0 L28,0 L28,28 L0,28 Z " fill="#060606" transform="translate(0,0)"/>
<path d="M0,0 L8,1 L14,3 L15,7 L13,7 L13,11 L3,10 L4,7 L10,6 L11,4 L2,3 L0,2 Z " fill="#DBDBDB" transform="translate(7,4)"/>
<path d="M0,0 L3,1 L2,5 L-2,6 L-2,8 L-5,9 L-14,9 L-15,6 L-6,5 L-1,3 Z " fill="#E8E8E8" transform="translate(20,15)"/>
<path d="M0,0 L3,1 L2,5 L-2,6 L-5,4 L-1,3 Z " fill="#D0D0D0" transform="translate(20,15)"/>
</svg>
