<?xml version="1.0" encoding="UTF-8"?>
<svg version="1.1" xmlns="http://www.w3.org/2000/svg" width="28" height="28">
<path d="M0,0 L28,0 L28,28 L0,28 Z " fill="#040404" transform="translate(0,0)"/>
<path d="M0,0 L7,0 L8,2 L16,4 L15,8 L12,9 L13,11 L3,10 L3,7 L10,6 L1,4 Z " fill="#BCBCBC" transform="translate(7,5)"/>
<path d="M0,0 L1,0 L1,5 L-5,9 L-13,9 L-14,7 L-6,5 L-2,5 Z " fill="#D1D1D1" transform="translate(20,16)"/>
<path d="M0,0 L7,0 L10,4 L1,4 Z " fill="#E9E9E9" transform="translate(7,5)"/>
<path d="M0,0 L7,0 L6,3 L0,3 Z " fill="#EBEBEB" transform="translate(10,12)"/>
</svg>
