<?xml version="1.0" encoding="UTF-8"?>
<svg version="1.1" xmlns="http://www.w3.org/2000/svg" width="28" height="28">
<path d="M0,0 L28,0 L28,28 L0,28 Z " fill="#020202" transform="translate(0,0)"/>
<path d="M0,0 L2,0 L1,5 L0,7 L-1,14 L-4,16 L-12,17 L-13,14 L-4,11 L-3,8 L-8,10 L-15,10 L-14,6 L-9,4 L-2,3 Z " fill="#E8E8E8" transform="translate(22,8)"/>
<path d="M0,0 L8,0 L11,2 L2,4 L1,6 L-5,6 L-4,1 Z " fill="#E3E3E3" transform="translate(12,5)"/>
<path d="M0,0 L6,1 L4,5 L-5,6 L-9,4 L-3,4 L-2,1 Z " fill="#1A1A1A" transform="translate(16,7)"/>
<path d="M0,0 L1,0 L0,7 L-5,9 L-4,5 L-1,3 Z " fill="#B9B9B9" transform="translate(21,15)"/>
</svg>
