<?xml version="1.0" encoding="UTF-8"?>
<svg version="1.1" xmlns="http://www.w3.org/2000/svg" width="28" height="28">
<path d="M0,0 L28,0 L28,28 L0,28 Z " fill="#060606" transform="translate(0,0)"/>
<path d="M0,0 L3,0 L3,5 L-2,9 L-9,10 L-10,8 L-2,5 L0,1 Z " fill="#EAEAEA" transform="translate(19,14)"/>
<path d="M0,0 L3,0 L3,4 L1,5 L3,8 L-8,9 L-7,6 L-2,3 L0,3 Z " fill="#BBBBBB" transform="translate(16,5)"/>
<path d="M0,0 L2,1 L0,5 L-6,6 L-5,3 Z " fill="#E3E3E3" transform="translate(14,8)"/>
<path d="M0,0 L3,0 L3,5 L0,7 L-2,5 L0,1 Z " fill="#C8C8C8" transform="translate(19,14)"/>
</svg>
