<?xml version="1.0" encoding="UTF-8"?>
<svg version="1.1" xmlns="http://www.w3.org/2000/svg" width="28" height="28">
<path d="M0,0 L28,0 L28,28 L0,28 Z " fill="#030303" transform="translate(0,0)"/>
<path d="M0,0 L7,0 L7,3 L4,4 L4,6 L10,8 L15,12 L16,17 L13,20 L1,20 L1,18 L14,17 L12,13 L6,9 L-2,7 L-2,5 L2,3 L-1,1 Z " fill="#DEDEDE" transform="translate(8,4)"/>
<path d="M0,0 L7,0 L7,3 L4,4 L4,6 L7,7 L3,8 L-2,7 L-2,5 L2,3 L-1,1 Z " fill="#E9E9E9" transform="translate(8,4)"/>
<path d="M0,0 L6,3 L8,6 L5,6 L-1,2 Z " fill="#C0C0C0" transform="translate(15,11)"/>
</svg>
