<?xml version="1.0" encoding="UTF-8"?>
<svg version="1.1" xmlns="http://www.w3.org/2000/svg" width="28" height="28">
<path d="M0,0 L28,0 L28,28 L0,28 Z " fill="#040404" transform="translate(0,0)"/>
<path d="M0,0 L5,0 L4,5 L2,8 L7,9 L6,16 L3,20 L-2,20 L3,15 L5,10 L-4,11 L-3,8 L2,3 L-2,5 L-5,5 L-4,2 Z " fill="#F4F4F4" transform="translate(13,6)"/>
<path d="M0,0 L5,0 L3,1 L2,4 L-5,5 L-4,2 Z " fill="#D7D7D7" transform="translate(13,6)"/>
<path d="M0,0 L4,1 L4,6 L1,6 L2,2 L-2,1 Z " fill="#D7D7D7" transform="translate(16,14)"/>
</svg>
