<?xml version="1.0" encoding="UTF-8"?>
<svg version="1.1" xmlns="http://www.w3.org/2000/svg" width="28" height="28">
<path d="M0,0 L28,0 L28,28 L0,28 Z " fill="#030303" transform="translate(0,0)"/>
<path d="M0,0 L7,0 L7,6 L5,8 L12,12 L12,17 L9,20 L-2,20 L-4,18 L-3,14 L-5,13 L-5,11 L2,8 L6,2 L-2,3 Z " fill="#DBDBDB" transform="translate(10,4)"/>
<path d="M0,0 L7,0 L9,2 L8,7 L6,8 L-1,8 L-3,4 Z " fill="#040404" transform="translate(11,15)"/>
<path d="M0,0 L6,0 L4,6 L4,9 L1,7 L2,3 L0,2 Z " fill="#8D8D8D" transform="translate(5,15)"/>
<path d="M0,0 L5,1 L8,4 L6,7 L4,3 L0,2 Z " fill="#B7B7B7" transform="translate(14,13)"/>
</svg>
