<?xml version="1.0" encoding="UTF-8"?>
<svg version="1.1" xmlns="http://www.w3.org/2000/svg" width="28" height="28">
<path d="M0,0 L28,0 L28,28 L0,28 Z " fill="#020202" transform="translate(0,0)"/>
<path d="M0,0 L9,1 L10,10 L11,11 L11,17 L8,20 L2,19 L0,17 L0,13 L3,13 L4,16 L7,16 L7,12 L-2,10 L-1,7 L6,7 L6,3 L1,5 L-3,4 L-2,1 Z " fill="#EBEBEB" transform="translate(10,5)"/>
<path d="M0,0 L5,0 L6,5 L2,6 L1,2 L-1,1 Z " fill="#1C1C1C" transform="translate(12,16)"/>
<path d="M0,0 L3,0 L3,4 L-3,4 L-5,2 Z " fill="#1A1A1A" transform="translate(13,8)"/>
</svg>
