<?xml version="1.0" encoding="UTF-8"?>
<svg version="1.1" xmlns="http://www.w3.org/2000/svg" width="28" height="28">
<path d="M0,0 L28,0 L28,28 L0,28 Z " fill="#020202" transform="translate(0,0)"/>
<path d="M0,0 L6,0 L9,3 L9,8 L5,10 L5,12 L11,14 L11,17 L4,20 L3,17 L8,17 L5,14 L1,12 L2,9 L5,9 L5,7 L7,7 L6,4 L1,3 L1,8 L-1,8 L-1,1 Z " fill="#E2E2E2" transform="translate(10,5)"/>
<path d="M0,0 L5,0 L6,4 L4,4 L4,6 L0,7 L-1,5 Z " fill="#1C1C1C" transform="translate(11,8)"/>
<path d="M0,0 L6,0 L4,3 L1,3 L1,8 L-1,8 L-1,1 Z " fill="#C7C7C7" transform="translate(10,5)"/>
</svg>
