<?xml version="1.0" encoding="UTF-8"?>
<svg version="1.1" xmlns="http://www.w3.org/2000/svg" width="28" height="28">
<path d="M0,0 L28,0 L28,28 L0,28 Z " fill="#040404" transform="translate(0,0)"/>
<path d="M0,0 L6,0 L8,1 L7,10 L9,11 L8,16 L5,19 L-5,20 L-8,17 L-8,15 L-5,16 L3,16 L7,14 L7,12 L-2,13 L-3,10 L3,8 L4,3 L-5,5 L-6,3 Z " fill="#E7E7E7" transform="translate(13,4)"/>
<path d="M0,0 L6,0 L5,7 L4,3 L-5,5 L-6,3 Z " fill="#CACACA" transform="translate(13,4)"/>
<path d="M0,0 L8,2 L8,5 L3,5 L0,2 Z " fill="#C9C9C9" transform="translate(5,19)"/>
</svg>
