<?xml version="1.0" encoding="UTF-8"?>
<svg version="1.1" xmlns="http://www.w3.org/2000/svg" width="28" height="28">
<path d="M0,0 L28,0 L28,28 L0,28 Z " fill="#030303" transform="translate(0,0)"/>
<path d="M0,0 L6,1 L8,3 L8,7 L6,7 L8,11 L7,18 L5,20 L-5,19 L-6,16 L-3,13 L-1,13 L-2,17 L3,16 L4,11 L-3,10 L-3,7 L-5,7 L-4,3 Z " fill="#C2C2C2" transform="translate(13,5)"/>
<path d="M0,0 L2,0 L1,4 L6,5 L7,7 L-2,6 L-3,3 Z " fill="#E7E7E7" transform="translate(10,18)"/>
<path d="M0,0 L4,1 L2,2 L0,6 L-4,5 Z " fill="#F6F6F6" transform="translate(13,5)"/>
</svg>
