<?xml version="1.0" encoding="UTF-8"?>
<svg version="1.1" xmlns="http://www.w3.org/2000/svg" width="28" height="28">
<path d="M0,0 L28,0 L28,28 L0,28 Z " fill="#020202" transform="translate(0,0)"/>
<path d="M0,0 L6,0 L8,1 L10,11 L10,16 L6,20 L1,20 L-3,15 L-2,6 L5,6 L5,3 L-1,5 L-5,5 L-4,1 Z " fill="#E6E6E6" transform="translate(12,5)"/>
<path d="M0,0 L7,1 L9,5 L6,11 L1,10 L-2,6 L-1,1 Z " fill="#D4D4D4" transform="translate(11,14)"/>
<path d="M0,0 L7,0 L7,4 L6,6 L2,6 L2,4 L0,4 Z " fill="#0C0C0C" transform="translate(12,16)"/>
<path d="M0,0 L5,0 L5,3 L-2,3 L-3,6 L-4,2 Z " fill="#1F1F1F" transform="translate(12,8)"/>
</svg>
