<?xml version="1.0" encoding="UTF-8"?>
<svg version="1.1" xmlns="http://www.w3.org/2000/svg" width="28" height="28">
<path d="M0,0 L28,0 L28,28 L0,28 Z " fill="#040404" transform="translate(0,0)"/>
<path d="M0,0 L6,0 L7,1 L7,6 L7,9 L9,11 L8,18 L5,20 L-3,20 L-5,17 L-2,17 L4,17 L5,16 L5,11 L-5,10 L-5,8 L2,6 L4,3 L-5,4 L-4,1 Z " fill="#EAEAEA" transform="translate(12,5)"/>
<path d="M0,0 L3,1 L5,2 L4,5 L4,3 L-5,4 L-4,1 Z " fill="#C0C0C0" transform="translate(12,5)"/>
<path d="M0,0 L1,0 L0,7 L-2,8 L-4,6 L-2,1 Z " fill="#CECECE" transform="translate(20,16)"/>
</svg>
