<?xml version="1.0" encoding="UTF-8"?>
<svg version="1.1" xmlns="http://www.w3.org/2000/svg" width="28" height="28">
<path d="M0,0 L28,0 L28,28 L0,28 Z " fill="#030303" transform="translate(0,0)"/>
<path d="M0,0 L5,1 L6,4 L5,7 L10,9 L12,12 L11,18 L8,20 L0,20 L-2,19 L-2,16 L7,16 L9,11 L3,11 L1,13 L-2,13 L-1,9 L3,5 L4,2 L-3,5 L-5,8 L-6,4 L-3,1 Z " fill="#E0E0E0" transform="translate(11,4)"/>
<path d="M0,0 L5,1 L6,4 L4,7 L3,5 L4,2 L-3,5 L-5,8 L-6,4 L-3,1 Z " fill="#CCCCCC" transform="translate(11,4)"/>
</svg>
