<?xml version="1.0" encoding="UTF-8"?>
<svg version="1.1" xmlns="http://www.w3.org/2000/svg" width="28" height="28">
<path d="M0,0 L28,0 L28,28 L0,28 Z " fill="#040404" transform="translate(0,0)"/>
<path d="M0,0 L8,1 L9,4 L8,7 L12,9 L13,10 L13,15 L8,19 L3,20 L-3,17 L-3,9 L2,8 L2,6 L5,3 L-5,6 L-5,2 Z " fill="#EDEDED" transform="translate(10,4)"/>
<path d="M0,0 L5,0 L6,4 L4,6 L-1,5 L-3,4 L-3,2 Z " fill="#1A1A1A" transform="translate(13,14)"/>
<path d="M0,0 L3,1 L1,2 L2,4 L-5,6 L-5,2 Z " fill="#C9C9C9" transform="translate(10,4)"/>
</svg>
