<?xml version="1.0" encoding="UTF-8"?>
<svg version="1.1" xmlns="http://www.w3.org/2000/svg" width="28" height="28">
<path d="M0,0 L28,0 L28,28 L0,28 Z " fill="#020202" transform="translate(0,0)"/>
<path d="M0,0 L7,0 L8,4 L4,10 L6,10 L7,12 L7,18 L5,20 L-2,20 L-2,18 L4,18 L5,13 L0,12 L-2,12 L-1,9 L3,8 L5,2 L-7,5 L-7,3 Z " fill="#B6B6B6" transform="translate(12,7)"/>
<path d="M0,0 L1,3 L-3,9 L-8,10 L-7,7 L-3,6 L-1,2 Z " fill="#D9D9D9" transform="translate(18,9)"/>
<path d="M0,0 L7,0 L8,4 L5,4 L5,2 L0,1 Z " fill="#B0B0B0" transform="translate(12,7)"/>
</svg>
