<?xml version="1.0" encoding="UTF-8"?>
<svg version="1.1" xmlns="http://www.w3.org/2000/svg" width="28" height="28">
<path d="M0,0 L28,0 L28,28 L0,28 Z " fill="#030303" transform="translate(0,0)"/>
<path d="M0,0 L7,0 L13,2 L15,9 L18,11 L18,16 L14,18 L9,17 L4,15 L2,10 L4,10 L4,7 L11,5 L-2,3 Z " fill="#E7E7E7" transform="translate(5,6)"/>
<path d="M0,0 L11,0 L14,3 L16,1 L16,6 L12,8 L7,7 L2,5 Z " fill="#D1D1D1" transform="translate(7,16)"/>
<path d="M0,0 L9,0 L11,2 L11,5 L4,4 Z " fill="#0D0D0D" transform="translate(9,16)"/>
<path d="M0,0 L7,0 L6,3 L-2,3 Z " fill="#C6C6C6" transform="translate(5,6)"/>
</svg>
