<?xml version="1.0" encoding="UTF-8"?>
<svg version="1.1" xmlns="http://www.w3.org/2000/svg" width="28" height="28">
<path d="M0,0 L28,0 L28,28 L0,28 Z " fill="#040404" transform="translate(0,0)"/>
<path d="M0,0 L15,0 L14,6 L19,10 L18,14 L15,16 L5,16 L0,15 L0,13 L13,13 L15,12 L15,10 L0,8 L0,5 L9,4 L11,3 L-1,3 Z " fill="#E4E4E4" transform="translate(5,7)"/>
<path d="M0,0 L8,0 L7,3 L0,3 Z " fill="#D9D9D9" transform="translate(5,12)"/>
<path d="M0,0 L4,1 L1,3 L-6,3 L-8,1 Z " fill="#212121" transform="translate(13,9)"/>
</svg>
