<?xml version="1.0" encoding="UTF-8"?>
<svg version="1.1" xmlns="http://www.w3.org/2000/svg" width="28" height="28">
<path d="M0,0 L28,0 L28,28 L0,28 Z " fill="#040404" transform="translate(0,0)"/>
<path d="M0,0 L6,0 L10,2 L10,6 L6,7 L6,9 L8,10 L-1,10 L-2,7 L7,4 L7,2 L-4,4 L-4,1 Z " fill="#D0D0D0" transform="translate(11,4)"/>
<path d="M0,0 L3,1 L4,7 L-1,9 L-8,10 L-14,9 L-14,6 L-4,6 L2,5 Z " fill="#EFEFEF" transform="translate(19,14)"/>
<path d="M0,0 L6,0 L6,2 L-1,5 L-3,5 L-3,1 Z " fill="#1A1A1A" transform="translate(12,6)"/>
<path d="M0,0 L3,1 L4,7 L0,8 L-4,6 L2,5 Z " fill="#C6C6C6" transform="translate(19,14)"/>
<path d="M0,0 L4,1 L-2,4 L-5,3 L-4,1 Z " fill="#DFDFDF" transform="translate(11,4)"/>
</svg>
