<?xml version="1.0" encoding="UTF-8"?>
<svg version="1.1" xmlns="http://www.w3.org/2000/svg" width="28" height="28">
<path d="M0,0 L28,0 L28,28 L0,28 Z " fill="#030303" transform="translate(0,0)"/>
<path d="M0,0 L9,0 L13,1 L13,6 L13,9 L15,11 L15,17 L11,20 L1,19 L-3,17 L-3,13 L2,13 L6,16 L11,15 L10,11 L5,9 L4,12 L3,10 L-1,9 L-1,5 L8,5 L10,4 L7,3 L0,3 Z " fill="#E4E4E4" transform="translate(8,4)"/>
<path d="M0,0 L5,1 L7,3 L6,7 L1,8 L-1,7 Z " fill="#212121" transform="translate(13,13)"/>
<path d="M0,0 L9,0 L13,2 L7,3 L0,3 Z " fill="#D2D2D2" transform="translate(8,4)"/>
<path d="M0,0 L4,2 L1,4 L-6,3 L-7,1 Z " fill="#242424" transform="translate(15,6)"/>
</svg>
