<?xml version="1.0" encoding="UTF-8"?>
<svg version="1.1" xmlns="http://www.w3.org/2000/svg" width="28" height="28">
<path d="M0,0 L28,0 L28,28 L0,28 Z " fill="#020202" transform="translate(0,0)"/>
<path d="M0,0 L5,1 L5,13 L2,19 L-7,20 L-9,19 L-9,14 L-5,12 L-2,16 L0,16 L2,10 L-6,10 L-5,7 L2,5 L3,3 L-5,5 L-5,2 Z " fill="#E2E2E2" transform="translate(16,4)"/>
<path d="M0,0 L7,0 L6,6 L2,6 Z " fill="#212121" transform="translate(11,14)"/>
<path d="M0,0 L4,0 L3,3 L-3,4 L-4,2 Z " fill="#292929" transform="translate(15,7)"/>
</svg>
