<?xml version="1.0" encoding="UTF-8"?>
<svg version="1.1" xmlns="http://www.w3.org/2000/svg" width="28" height="28">
<path d="M0,0 L28,0 L28,28 L0,28 Z " fill="#040404" transform="translate(0,0)"/>
<path d="M0,0 L6,0 L9,2 L8,8 L12,10 L11,17 L9,19 L0,20 L-3,19 L-4,14 L-1,17 L8,16 L9,11 L-1,11 L0,8 L5,6 L6,3 L-2,4 L-5,5 L-3,1 Z " fill="#DBDBDB" transform="translate(10,4)"/>
<path d="M0,0 L2,0 L1,7 L-1,9 L-10,10 L-13,9 L-14,4 L-11,7 L-2,6 Z " fill="#E7E7E7" transform="translate(20,14)"/>
<path d="M0,0 L6,0 L8,2 L6,5 L6,3 L-2,4 L-5,5 L-3,1 Z " fill="#BABABA" transform="translate(10,4)"/>
</svg>
