<?xml version="1.0" encoding="UTF-8"?>
<svg version="1.1" xmlns="http://www.w3.org/2000/svg" width="28" height="28">
<path d="M0,0 L28,0 L28,28 L0,28 Z " fill="#030303" transform="translate(0,0)"/>
<path d="M0,0 L8,0 L8,8 L13,7 L18,8 L19,13 L17,13 L15,17 L11,20 L5,20 L5,16 L13,14 L17,10 L5,11 L1,12 L0,8 L6,7 L6,3 L0,3 Z " fill="#DBDBDB" transform="translate(6,4)"/>
<path d="M0,0 L2,2 L2,5 L0,5 L-2,9 L-6,12 L-12,12 L-12,8 L-4,6 L0,2 L-8,2 L-8,1 Z " fill="#AFAFAF" transform="translate(23,12)"/>
<path d="M0,0 L8,0 L6,4 L0,4 Z " fill="#D8D8D8" transform="translate(11,20)"/>
</svg>
