<?xml version="1.0" encoding="UTF-8"?>
<svg version="1.1" xmlns="http://www.w3.org/2000/svg" width="28" height="28">
<path d="M0,0 L28,0 L28,28 L0,28 Z " fill="#030303" transform="translate(0,0)"/>
<path d="M0,0 L7,0 L10,2 L9,7 L13,8 L15,13 L9,20 L3,19 L2,15 L10,15 L11,10 L2,11 L3,7 L7,3 L-5,5 L-4,1 Z " fill="#E0E0E0" transform="translate(8,6)"/>
<path d="M0,0 L4,1 L1,2 L3,4 L-5,5 L-4,1 Z " fill="#BFBFBF" transform="translate(8,6)"/>
<path d="M0,0 L5,1 L4,4 L-4,3 L-3,1 Z " fill="#FBFBFB" transform="translate(12,6)"/>
</svg>
