<?xml version="1.0" encoding="UTF-8"?>
<svg version="1.1" xmlns="http://www.w3.org/2000/svg" width="28" height="28">
<path d="M0,0 L28,0 L28,28 L0,28 Z " fill="#020202" transform="translate(0,0)"/>
<path d="M0,0 L7,0 L9,4 L4,10 L8,11 L7,15 L2,20 L0,20 L2,16 L5,11 L1,11 L2,7 L5,3 L-1,3 Z " fill="#F0F0F0" transform="translate(10,6)"/>
<path d="M0,0 L7,0 L9,4 L6,6 L4,4 L5,3 L-1,3 Z " fill="#CACACA" transform="translate(10,6)"/>
<path d="M0,0 L1,2 L3,3 L-3,9 L-5,9 L-3,5 Z " fill="#D6D6D6" transform="translate(15,17)"/>
</svg>
