<?xml version="1.0" encoding="UTF-8"?>
<svg version="1.1" xmlns="http://www.w3.org/2000/svg" width="28" height="28">
<path d="M0,0 L28,0 L28,28 L0,28 Z " fill="#030303" transform="translate(0,0)"/>
<path d="M0,0 L5,2 L4,9 L6,9 L7,14 L4,19 L-2,20 L-3,16 L0,17 L3,15 L4,10 L-1,11 L-3,9 L1,6 L2,3 L-2,3 L-3,5 L-3,1 Z " fill="#E6E6E6" transform="translate(13,5)"/>
<path d="M0,0 L3,0 L1,4 L-5,5 L-6,1 L-3,2 Z " fill="#C5C5C5" transform="translate(16,20)"/>
<path d="M0,0 L2,0 L3,5 L2,3 L-2,3 L-3,5 L-3,1 Z " fill="#C7C7C7" transform="translate(13,5)"/>
</svg>
