<?xml version="1.0" encoding="UTF-8"?>
<svg version="1.1" xmlns="http://www.w3.org/2000/svg" width="28" height="28">
<path d="M0,0 L28,0 L28,28 L0,28 Z " fill="#020202" transform="translate(0,0)"/>
<path d="M0,0 L7,0 L8,1 L7,8 L6,9 L10,12 L9,19 L8,20 L1,20 L1,17 L3,17 L3,19 L7,17 L8,12 L1,12 L3,8 L5,6 L6,2 L-2,4 L-4,5 L-4,2 Z " fill="#E1E1E1" transform="translate(10,5)"/>
<path d="M0,0 L7,0 L8,1 L7,8 L5,6 L6,2 L-2,4 L-4,5 L-4,2 Z " fill="#BBBBBB" transform="translate(10,5)"/>
<path d="M0,0 L2,4 L0,7 L-7,7 L-7,4 L-5,4 L-5,6 L-1,4 Z " fill="#C7C7C7" transform="translate(18,18)"/>
</svg>
