<?xml version="1.0" encoding="UTF-8"?>
<svg version="1.1" xmlns="http://www.w3.org/2000/svg" width="28" height="28">
<path d="M0,0 L28,0 L28,28 L0,28 Z " fill="#040404" transform="translate(0,0)"/>
<path d="M0,0 L9,1 L10,6 L9,10 L2,12 L-3,12 L-3,8 L6,5 L0,3 Z " fill="#E8E8E8" transform="translate(12,3)"/>
<path d="M0,0 L1,0 L1,5 L-6,10 L-18,9 L-18,5 L-5,7 L-5,5 L-2,4 Z " fill="#DADADA" transform="translate(21,13)"/>
<path d="M0,0 L9,1 L8,5 L0,3 Z " fill="#868686" transform="translate(12,3)"/>
</svg>
