<?xml version="1.0" encoding="UTF-8"?>
<svg version="1.1" xmlns="http://www.w3.org/2000/svg" width="28" height="28">
<path d="M0,0 L28,0 L28,28 L0,28 Z " fill="#040404" transform="translate(0,0)"/>
<path d="M0,0 L10,0 L13,1 L14,5 L13,7 L15,7 L15,13 L10,18 L4,20 L-1,20 L-3,18 L-3,14 L0,15 L7,15 L12,12 L14,12 L14,10 L8,10 L3,11 L1,9 L3,6 L11,5 L11,3 L0,3 Z " fill="#EAEAEA" transform="translate(8,4)"/>
<path d="M0,0 L10,0 L13,1 L14,5 L9,6 L11,5 L11,3 L0,3 Z " fill="#D9D9D9" transform="translate(8,4)"/>
<path d="M0,0 L12,1 L12,3 L3,5 L3,2 L0,2 Z " fill="#202020" transform="translate(7,6)"/>
</svg>
