<?xml version="1.0" encoding="UTF-8"?>
<svg version="1.1" xmlns="http://www.w3.org/2000/svg" width="28" height="28">
<path d="M0,0 L28,0 L28,28 L0,28 Z " fill="#030303" transform="translate(0,0)"/>
<path d="M0,0 L9,0 L14,2 L16,6 L20,9 L19,14 L16,17 L6,18 L3,13 L7,15 L15,15 L17,10 L10,8 L12,7 L11,4 L6,2 L6,4 L1,3 Z " fill="#DDDDDD" transform="translate(3,6)"/>
<path d="M0,0 L9,0 L13,2 L8,3 L6,2 L6,4 L1,3 Z " fill="#B7B7B7" transform="translate(3,6)"/>
<path d="M0,0 L9,3 L9,5 L3,5 Z " fill="#C4C4C4" transform="translate(6,19)"/>
</svg>
