<?xml version="1.0" encoding="UTF-8"?>
<svg version="1.1" xmlns="http://www.w3.org/2000/svg" width="28" height="28">
<path d="M0,0 L28,0 L28,28 L0,28 Z " fill="#020202" transform="translate(0,0)"/>
<path d="M0,0 L10,0 L12,3 L11,7 L10,8 L17,11 L17,15 L10,18 L4,18 L4,15 L8,14 L15,14 L12,11 L3,9 L3,7 L9,6 L8,3 L-2,3 L-2,1 Z " fill="#C2C2C2" transform="translate(6,5)"/>
<path d="M0,0 L10,0 L12,3 L11,7 L10,9 L3,9 L3,7 L9,6 L8,3 L-2,3 L-2,1 Z " fill="#ECECEC" transform="translate(6,5)"/>
<path d="M0,0 L10,0 L9,3 L-2,3 L-2,1 Z " fill="#CBCBCB" transform="translate(6,5)"/>
</svg>
