<?xml version="1.0" encoding="UTF-8"?>
<svg version="1.1" xmlns="http://www.w3.org/2000/svg" width="28" height="28">
<path d="M0,0 L28,0 L28,28 L0,28 Z " fill="#030303" transform="translate(0,0)"/>
<path d="M0,0 L6,0 L10,2 L10,7 L10,10 L13,13 L12,18 L7,20 L0,19 L1,16 L2,17 L8,17 L9,13 L6,11 L0,10 L0,8 L7,5 L7,4 L-1,3 Z " fill="#E3E3E3" transform="translate(8,4)"/>
<path d="M0,0 L6,0 L10,2 L10,7 L8,8 L7,4 L-1,3 Z " fill="#E6E6E6" transform="translate(8,4)"/>
<path d="M0,0 L6,0 L6,3 L-1,3 Z " fill="#ABABAB" transform="translate(8,4)"/>
</svg>
