<?xml version="1.0" encoding="UTF-8"?>
<svg version="1.1" xmlns="http://www.w3.org/2000/svg" width="28" height="28">
<path d="M0,0 L28,0 L28,28 L0,28 Z " fill="#030303" transform="translate(0,0)"/>
<path d="M0,0 L7,1 L10,10 L10,18 L4,20 L-1,19 L-2,18 L-2,13 L3,12 L8,14 L7,9 L1,9 L1,6 L6,5 L0,4 Z " fill="#E6E6E6" transform="translate(10,4)"/>
<path d="M0,0 L4,1 L6,3 L6,6 L8,7 L1,8 L-1,6 L-1,1 Z " fill="#989898" transform="translate(9,16)"/>
<path d="M0,0 L7,1 L7,4 L0,4 Z " fill="#CFCFCF" transform="translate(10,4)"/>
</svg>
