<?xml version="1.0" encoding="UTF-8"?>
<svg version="1.1" xmlns="http://www.w3.org/2000/svg" width="28" height="28">
<path d="M0,0 L28,0 L28,28 L0,28 Z " fill="#020202" transform="translate(0,0)"/>
<path d="M0,0 L5,0 L7,2 L6,9 L4,11 L5,16 L-1,20 L-7,20 L-9,18 L-8,13 L-6,14 L-7,17 L2,14 L1,12 L-2,11 L-2,8 L1,8 L2,5 L2,7 L4,6 L5,3 L0,5 L-4,5 L-4,2 Z " fill="#E7E7E7" transform="translate(14,5)"/>
<path d="M0,0 L1,4 L-5,8 L-11,8 L-13,6 L-12,1 L-10,2 L-11,5 L0,2 Z " fill="#D0D0D0" transform="translate(18,17)"/>
<path d="M0,0 L4,0 L3,4 L-3,5 L-4,7 L-4,4 L-1,4 Z " fill="#3D3D3D" transform="translate(15,8)"/>
</svg>
