<?xml version="1.0" encoding="UTF-8"?>
<svg version="1.1" xmlns="http://www.w3.org/2000/svg" width="28" height="28">
<path d="M0,0 L28,0 L28,28 L0,28 Z " fill="#030303" transform="translate(0,0)"/>
<path d="M0,0 L8,0 L11,2 L11,7 L15,11 L13,16 L10,19 L1,20 L-3,16 L-3,14 L1,15 L0,17 L7,17 L12,15 L10,10 L3,10 L4,7 L7,6 L7,3 L0,4 Z " fill="#DADADA" transform="translate(8,4)"/>
<path d="M0,0 L8,0 L11,2 L10,6 L9,2 L3,3 L0,4 Z " fill="#E5E5E5" transform="translate(8,4)"/>
<path d="M0,0 L4,1 L3,3 L6,4 L4,6 L0,2 Z " fill="#CCCCCC" transform="translate(5,18)"/>
</svg>
