<?xml version="1.0" encoding="UTF-8"?>
<svg version="1.1" xmlns="http://www.w3.org/2000/svg" width="28" height="28">
<path d="M0,0 L28,0 L28,28 L0,28 Z " fill="#050505" transform="translate(0,0)"/>
<path d="M0,0 L2,0 L3,2 L4,1 L9,1 L10,9 L11,10 L11,17 L7,20 L4,20 L4,18 L8,15 L9,10 L3,15 L1,15 L1,10 L-1,10 Z " fill="#F4F4F4" transform="translate(9,5)"/>
<path d="M0,0 L2,0 L3,2 L6,1 L8,2 L7,7 L1,12 L1,10 L-1,10 Z " fill="#DBDBDB" transform="translate(9,5)"/>
<path d="M0,0 L2,3 L0,7 L-5,8 L-5,6 L-1,3 Z " fill="#C7C7C7" transform="translate(18,17)"/>
<path d="M0,0 L2,0 L2,4 L-3,6 L-2,2 Z " fill="#1B1B1B" transform="translate(14,8)"/>
</svg>
