<?xml version="1.0" encoding="UTF-8"?>
<svg version="1.1" xmlns="http://www.w3.org/2000/svg" width="28" height="28">
<path d="M0,0 L28,0 L28,28 L0,28 Z " fill="#050505" transform="translate(0,0)"/>
<path d="M0,0 L7,1 L7,6 L4,7 L4,9 L-4,10 L-5,7 L3,6 L5,3 L-5,4 L-4,1 Z " fill="#E4E4E4" transform="translate(12,5)"/>
<path d="M0,0 L3,1 L5,6 L5,10 L3,11 L-5,11 L-7,7 L-6,5 L-4,6 L-4,7 L2,8 Z " fill="#D8D8D8" transform="translate(16,14)"/>
<path d="M0,0 L4,1 L5,3 L-5,4 L-4,1 Z " fill="#C7C7C7" transform="translate(12,5)"/>
</svg>
