<?xml version="1.0" encoding="UTF-8"?>
<svg version="1.1" xmlns="http://www.w3.org/2000/svg" width="28" height="28">
<path d="M0,0 L28,0 L28,28 L0,28 Z " fill="#020202" transform="translate(0,0)"/>
<path d="M0,0 L7,0 L10,2 L9,7 L5,9 L7,12 L6,18 L1,20 L-6,20 L-9,17 L-9,14 L-5,16 L4,16 L4,11 L-3,12 L-2,8 L7,6 L7,3 L0,4 Z " fill="#DDDDDD" transform="translate(12,4)"/>
<path d="M0,0 L4,1 L1,2 L3,4 L-3,5 L-2,1 Z " fill="#BEBEBE" transform="translate(12,11)"/>
<path d="M0,0 L3,2 L2,8 L0,6 Z " fill="#9E9E9E" transform="translate(16,14)"/>
</svg>
