<?xml version="1.0" encoding="UTF-8"?>
<svg version="1.1" xmlns="http://www.w3.org/2000/svg" width="28" height="28">
<path d="M0,0 L28,0 L28,28 L0,28 Z " fill="#030303" transform="translate(0,0)"/>
<path d="M0,0 L4,0 L4,10 L5,11 L5,16 L1,20 L-5,20 L-6,15 L1,16 L2,11 L-4,11 L-4,8 L2,7 L3,2 L-5,4 L-5,6 L-7,6 L-6,2 Z " fill="#D0D0D0" transform="translate(15,4)"/>
<path d="M0,0 L7,3 L7,5 L1,5 Z " fill="#F1F1F1" transform="translate(9,19)"/>
<path d="M0,0 L1,0 L1,5 L-3,8 L-6,6 L-2,4 Z " fill="#B7B7B7" transform="translate(19,15)"/>
</svg>
