<?xml version="1.0" encoding="UTF-8"?>
<svg version="1.1" xmlns="http://www.w3.org/2000/svg" width="28" height="28">
<path d="M0,0 L28,0 L28,28 L0,28 Z " fill="#030303" transform="translate(0,0)"/>
<path d="M0,0 L5,1 L5,8 L6,15 L4,19 L1,20 L-7,20 L-8,15 L-6,17 L0,17 L3,13 L3,10 L-4,11 L-4,8 L2,5 L3,3 L-4,6 L-3,2 Z " fill="#D1D1D1" transform="translate(14,5)"/>
<path d="M0,0 L5,1 L4,5 L1,4 L-4,6 L-3,2 Z " fill="#E9E9E9" transform="translate(14,5)"/>
<path d="M0,0 L2,0 L1,3 L-5,5 L-5,2 Z " fill="#232323" transform="translate(15,8)"/>
</svg>
