<?xml version="1.0" encoding="UTF-8"?>
<svg version="1.1" xmlns="http://www.w3.org/2000/svg" width="28" height="28">
<path d="M0,0 L28,0 L28,28 L0,28 Z " fill="#070707" transform="translate(0,0)"/>
<path d="M0,0 L8,0 L9,1 L9,6 L5,10 L9,11 L11,14 L10,19 L8,20 L1,20 L1,18 L7,17 L7,13 L-1,10 L2,7 L6,3 L-4,4 L-3,1 Z " fill="#E8E8E8" transform="translate(10,5)"/>
<path d="M0,0 L8,0 L9,1 L9,6 L6,5 L6,3 L-4,4 L-3,1 Z " fill="#E2E2E2" transform="translate(10,5)"/>
<path d="M0,0 L3,1 L3,6 L0,5 L0,3 L-5,3 L-5,2 L0,1 Z " fill="#ABABAB" transform="translate(16,5)"/>
</svg>
