<?xml version="1.0" encoding="UTF-8"?>
<svg version="1.1" xmlns="http://www.w3.org/2000/svg" width="28" height="28">
<path d="M0,0 L28,0 L28,28 L0,28 Z " fill="#060606" transform="translate(0,0)"/>
<path d="M0,0 L6,0 L8,2 L8,8 L13,13 L12,18 L9,20 L4,20 L4,18 L10,16 L9,12 L0,11 L1,8 L5,7 L5,3 L-3,4 L-2,1 Z " fill="#DCDCDC" transform="translate(9,5)"/>
<path d="M0,0 L6,0 L8,2 L8,8 L7,10 L4,9 L5,3 L-3,4 L-2,1 Z " fill="#E3E3E3" transform="translate(9,5)"/>
<path d="M0,0 L8,1 L7,3 L-1,3 Z " fill="#ADADAD" transform="translate(10,13)"/>
</svg>
