<?xml version="1.0" encoding="UTF-8"?>
<svg version="1.1" xmlns="http://www.w3.org/2000/svg" width="28" height="28">
<path d="M0,0 L28,0 L28,28 L0,28 Z " fill="#030303" transform="translate(0,0)"/>
<path d="M0,0 L3,0 L3,2 L1,2 L-1,6 L-2,8 L5,7 L8,10 L7,15 L3,19 L-4,20 L-9,17 L-9,14 L-5,17 L2,17 L5,14 L5,10 L-2,10 L-6,13 L-8,13 L-7,9 L-3,4 L-10,4 L-9,2 Z " fill="#D5D5D5" transform="translate(16,4)"/>
<path d="M0,0 L3,0 L3,2 L1,2 L0,5 L-10,4 L-9,2 Z " fill="#B3B3B3" transform="translate(16,4)"/>
</svg>
