<?xml version="1.0" encoding="UTF-8"?>
<svg version="1.1" xmlns="http://www.w3.org/2000/svg" width="28" height="28">
<path d="M0,0 L28,0 L28,28 L0,28 Z " fill="#030303" transform="translate(0,0)"/>
<path d="M0,0 L6,0 L6,4 L1,6 L1,10 L0,14 L-9,20 L-13,20 L-13,17 L-6,15 L-3,12 L-10,12 L-8,8 L1,4 L-7,4 L-7,2 Z " fill="#E0E0E0" transform="translate(17,6)"/>
<path d="M0,0 L7,0 L4,3 L0,3 Z " fill="#C5C5C5" transform="translate(4,23)"/>
<path d="M0,0 L5,0 L3,3 L-1,4 L-1,2 L-3,1 Z " fill="#3A3A3A" transform="translate(14,9)"/>
</svg>
