<?xml version="1.0" encoding="UTF-8"?>
<svg version="1.1" xmlns="http://www.w3.org/2000/svg" width="28" height="28">
<path d="M0,0 L28,0 L28,28 L0,28 Z " fill="#040404" transform="translate(0,0)"/>
<path d="M0,0 L6,1 L8,3 L7,7 L7,10 L9,12 L8,18 L5,20 L-5,20 L-7,19 L-7,17 L5,17 L6,12 L-3,12 L-3,9 L4,6 L5,3 L-3,5 L-7,5 L-6,2 Z " fill="#E4E4E4" transform="translate(13,5)"/>
<path d="M0,0 L10,1 L10,3 L2,3 L0,2 Z " fill="#F0F0F0" transform="translate(6,22)"/>
<path d="M0,0 L2,1 L0,5 L-5,5 L-5,2 Z " fill="#CCCCCC" transform="translate(15,12)"/>
</svg>
