<?xml version="1.0" encoding="UTF-8"?>
<svg version="1.1" xmlns="http://www.w3.org/2000/svg" width="28" height="28">
<path d="M0,0 L28,0 L28,28 L0,28 Z " fill="#040404" transform="translate(0,0)"/>
<path d="M0,0 L8,1 L9,6 L6,9 L10,12 L9,17 L6,20 L-5,20 L-9,17 L-9,15 L5,16 L6,13 L-3,12 L-2,9 L4,6 L6,6 L5,4 L-3,4 L-3,1 Z " fill="#E6E6E6" transform="translate(12,3)"/>
<path d="M0,0 L2,4 L-1,7 L-3,7 L-3,5 L-8,5 L-8,4 L-1,2 Z " fill="#C6C6C6" transform="translate(19,16)"/>
<path d="M0,0 L7,2 L6,6 L0,1 Z " fill="#BABABA" transform="translate(14,3)"/>
</svg>
