<?xml version="1.0" encoding="UTF-8"?>
<svg version="1.1" xmlns="http://www.w3.org/2000/svg" width="28" height="28">
<path d="M0,0 L28,0 L28,28 L0,28 Z " fill="#030303" transform="translate(0,0)"/>
<path d="M0,0 L7,0 L8,1 L8,9 L12,11 L13,17 L9,20 L0,20 L-1,19 L-1,14 L1,16 L10,16 L9,12 L-3,12 L-2,8 L5,6 L5,3 L-3,4 L-2,1 Z " fill="#DCDCDC" transform="translate(10,4)"/>
<path d="M0,0 L6,4 L6,6 L1,6 L0,5 Z " fill="#E6E6E6" transform="translate(9,18)"/>
<path d="M0,0 L4,2 L3,7 L1,3 L-5,2 L-5,1 Z " fill="#AFAFAF" transform="translate(18,13)"/>
</svg>
