<?xml version="1.0" encoding="UTF-8"?>
<svg version="1.1" xmlns="http://www.w3.org/2000/svg" width="28" height="28">
<path d="M0,0 L28,0 L28,28 L0,28 Z " fill="#030303" transform="translate(0,0)"/>
<path d="M0,0 L4,1 L6,6 L3,8 L3,15 L-2,20 L-7,20 L-5,18 L-1,16 L1,11 L-6,9 L-6,7 L3,5 L3,3 L-7,5 L-7,2 Z " fill="#E6E6E6" transform="translate(15,6)"/>
<path d="M0,0 L3,0 L3,2 L-1,4 L-6,4 L-7,2 Z " fill="#202020" transform="translate(15,9)"/>
<path d="M0,0 L2,0 L1,3 L-3,6 L-3,3 L-5,2 Z " fill="#C8C8C8" transform="translate(19,10)"/>
</svg>
