<?xml version="1.0" encoding="UTF-8"?>
<svg version="1.1" xmlns="http://www.w3.org/2000/svg" width="28" height="28">
<path d="M0,0 L28,0 L28,28 L0,28 Z " fill="#030303" transform="translate(0,0)"/>
<path d="M0,0 L5,0 L6,4 L4,6 L4,15 L1,18 L-6,20 L-10,18 L-10,15 L-7,15 L-7,17 L1,14 L1,9 L-5,9 L-5,7 L2,4 L-5,5 L-5,1 Z " fill="#C7C7C7" transform="translate(15,5)"/>
<path d="M0,0 L5,0 L5,3 L-2,3 L-2,1 Z " fill="#E6E6E6" transform="translate(12,11)"/>
<path d="M0,0 L3,0 L4,2 L7,4 L4,5 L0,3 Z " fill="#E7E7E7" transform="translate(5,20)"/>
</svg>
