<?xml version="1.0" encoding="UTF-8"?>
<svg version="1.1" xmlns="http://www.w3.org/2000/svg" width="28" height="28">
<path d="M0,0 L28,0 L28,28 L0,28 Z " fill="#030303" transform="translate(0,0)"/>
<path d="M0,0 L10,0 L11,5 L8,8 L8,15 L2,19 L-4,20 L-8,18 L-8,13 L-3,14 L-3,16 L5,15 L4,11 L0,10 L0,7 L6,4 L0,4 Z " fill="#D4D4D4" transform="translate(12,5)"/>
<path d="M0,0 L4,0 L4,5 L-2,9 L-8,10 L-12,8 L-12,3 L-7,4 L-7,6 L1,5 Z " fill="#BDBDBD" transform="translate(16,15)"/>
<path d="M0,0 L0,3 L-1,9 L-2,5 L-8,5 L-8,2 Z " fill="#ECECEC" transform="translate(20,10)"/>
</svg>
