<?xml version="1.0" encoding="UTF-8"?>
<svg version="1.1" xmlns="http://www.w3.org/2000/svg" width="28" height="28">
<path d="M0,0 L28,0 L28,28 L0,28 Z " fill="#020202" transform="translate(0,0)"/>
<path d="M0,0 L8,1 L9,5 L6,7 L6,12 L1,17 L-2,18 L-9,18 L-11,17 L-10,13 L-7,15 L-1,15 L3,12 L4,9 L-4,9 L-4,7 L4,5 L6,4 L-4,4 L-4,2 Z " fill="#D0D0D0" transform="translate(15,6)"/>
<path d="M0,0 L8,4 L8,5 L2,5 L0,4 Z " fill="#E9E9E9" transform="translate(4,19)"/>
<path d="M0,0 L5,0 L6,4 L2,6 L1,4 L3,3 Z " fill="#B8B8B8" transform="translate(18,7)"/>
</svg>
