<?xml version="1.0" encoding="UTF-8"?>
<svg version="1.1" xmlns="http://www.w3.org/2000/svg" width="28" height="28">
<path d="M0,0 L28,0 L28,28 L0,28 Z " fill="#030303" transform="translate(0,0)"/>
<path d="M0,0 L7,1 L7,6 L5,8 L4,15 L0,19 L-9,20 L-9,16 L-1,16 L1,14 L2,10 L-4,10 L-4,7 L5,6 L5,4 L-4,4 L-4,1 Z " fill="#E6E6E6" transform="translate(15,5)"/>
<path d="M0,0 L2,2 L1,6 L-2,9 L-11,10 L-11,6 L-3,6 L-1,4 Z " fill="#C6C6C6" transform="translate(17,15)"/>
<path d="M0,0 L7,0 L6,3 L-3,4 Z " fill="#202020" transform="translate(14,8)"/>
</svg>
