<?xml version="1.0" encoding="UTF-8"?>
<svg version="1.1" xmlns="http://www.w3.org/2000/svg" width="28" height="28">
<path d="M0,0 L28,0 L28,28 L0,28 Z " fill="#030303" transform="translate(0,0)"/>
<path d="M0,0 L3,4 L3,9 L6,12 L5,17 L-1,20 L-7,20 L-8,15 L-6,15 L-5,17 L4,15 L4,11 L-3,11 L-2,8 L1,5 L-6,7 L-6,4 L-1,1 Z " fill="#DEDEDE" transform="translate(15,3)"/>
<path d="M0,0 L2,0 L3,2 L8,3 L7,5 L1,5 Z " fill="#E5E5E5" transform="translate(7,18)"/>
<path d="M0,0 L1,4 L-3,6 L-6,7 L-6,4 L-1,1 Z " fill="#CFCFCF" transform="translate(15,3)"/>
</svg>
