<?xml version="1.0" encoding="UTF-8"?>
<svg version="1.1" xmlns="http://www.w3.org/2000/svg" width="28" height="28">
<path d="M0,0 L28,0 L28,28 L0,28 Z " fill="#040404" transform="translate(0,0)"/>
<path d="M0,0 L8,0 L9,1 L9,7 L7,7 L7,9 L9,9 L9,15 L4,20 L-2,20 L-5,18 L-4,13 L-1,14 L-2,16 L5,16 L7,11 L1,12 L2,8 L7,5 L8,2 L1,4 L-2,5 L-1,1 Z " fill="#D9D9D9" transform="translate(12,4)"/>
<path d="M0,0 L3,1 L2,3 L9,3 L12,2 L10,6 L8,7 L2,7 L-1,5 Z " fill="#EAEAEA" transform="translate(8,17)"/>
<path d="M0,0 L8,0 L8,1 L2,2 L0,5 L-2,5 L-1,1 Z " fill="#BBBBBB" transform="translate(12,4)"/>
</svg>
