<?xml version="1.0" encoding="UTF-8"?>
<svg version="1.1" xmlns="http://www.w3.org/2000/svg" width="28" height="28">
<path d="M0,0 L28,0 L28,28 L0,28 Z " fill="#050505" transform="translate(0,0)"/>
<path d="M0,0 L16,0 L17,4 L14,6 L11,6 L13,9 L13,14 L8,16 L0,16 L-3,13 L-2,11 L0,11 L0,13 L10,12 L9,9 L4,7 L4,5 L12,3 L2,3 Z " fill="#D1D1D1" transform="translate(7,7)"/>
<path d="M0,0 L9,0 L8,3 L2,3 Z " fill="#CDCDCD" transform="translate(7,7)"/>
<path d="M0,0 L3,0 L3,2 L1,2 L1,4 L-5,3 L-5,1 Z " fill="#F8F8F8" transform="translate(16,11)"/>
<path d="M0,0 L2,0 L2,2 L9,3 L9,4 L0,4 L-1,2 Z " fill="#EDEDED" transform="translate(5,18)"/>
</svg>
