<?xml version="1.0" encoding="UTF-8"?>
<svg version="1.1" xmlns="http://www.w3.org/2000/svg" width="28" height="28">
<path d="M0,0 L28,0 L28,28 L0,28 Z " fill="#050505" transform="translate(0,0)"/>
<path d="M0,0 L8,1 L9,4 L8,6 L6,6 L6,9 L-2,10 L-1,7 L6,4 L7,2 L-2,4 L-4,5 L-2,1 Z " fill="#CCCCCC" transform="translate(9,5)"/>
<path d="M0,0 L6,0 L9,2 L8,6 L3,9 L-5,9 L-6,6 L4,5 L7,2 L0,1 Z " fill="#DDDDDD" transform="translate(16,13)"/>
<path d="M0,0 L4,0 L4,3 L-4,4 L-3,1 Z " fill="#E3E3E3" transform="translate(11,11)"/>
</svg>
