<?xml version="1.0" encoding="UTF-8"?>
<svg version="1.1" xmlns="http://www.w3.org/2000/svg" width="28" height="28">
<path d="M0,0 L28,0 L28,28 L0,28 Z " fill="#040404" transform="translate(0,0)"/>
<path d="M0,0 L9,0 L12,1 L11,5 L8,5 L8,7 L13,9 L12,13 L4,17 L-6,17 L-6,14 L2,14 L9,11 L5,9 L0,8 L0,6 L5,4 L0,3 L0,5 L-3,4 L-2,1 Z " fill="#E1E1E1" transform="translate(10,6)"/>
<path d="M0,0 L7,0 L3,3 L0,3 L0,5 L2,6 L-1,6 L-2,2 L0,2 Z " fill="#1D1D1D" transform="translate(10,9)"/>
<path d="M0,0 L4,0 L5,3 L-3,3 L-3,1 Z " fill="#FAFAFA" transform="translate(13,11)"/>
<path d="M0,0 L9,1 L9,2 L2,2 L2,4 L-1,3 Z " fill="#B6B6B6" transform="translate(8,7)"/>
</svg>
