<?xml version="1.0" encoding="UTF-8"?>
<svg version="1.1" xmlns="http://www.w3.org/2000/svg" width="28" height="28">
<path d="M0,0 L28,0 L28,28 L0,28 Z " fill="#030303" transform="translate(0,0)"/>
<path d="M0,0 L4,1 L3,7 L9,10 L10,11 L10,16 L5,20 L-1,20 L-2,19 L-2,14 L0,13 L0,17 L7,16 L8,11 L-1,10 L-4,9 L1,4 L2,2 L-3,4 L-3,6 L-5,6 L-3,2 Z " fill="#CBCBCB" transform="translate(12,4)"/>
<path d="M0,0 L2,1 L2,3 L4,5 L-5,6 Z " fill="#E8E8E8" transform="translate(13,8)"/>
<path d="M0,0 L2,0 L0,5 L-4,7 L-5,4 L-3,4 L-3,2 Z " fill="#212121" transform="translate(12,6)"/>
</svg>
