<?xml version="1.0" encoding="UTF-8"?>
<svg version="1.1" xmlns="http://www.w3.org/2000/svg" width="28" height="28">
<path d="M0,0 L28,0 L28,28 L0,28 Z " fill="#030303" transform="translate(0,0)"/>
<path d="M0,0 L8,0 L10,2 L9,6 L7,7 L12,11 L13,15 L11,18 L5,20 L-1,20 L-1,17 L10,15 L10,12 L-3,10 L-3,7 L5,4 L-5,4 L-5,1 Z " fill="#E6E6E6" transform="translate(10,6)"/>
<path d="M0,0 L8,0 L6,4 L-5,4 L-5,1 Z " fill="#D9D9D9" transform="translate(10,6)"/>
<path d="M0,0 L6,0 L5,2 L1,4 L-2,4 Z " fill="#1A1A1A" transform="translate(10,9)"/>
</svg>
