<?xml version="1.0" encoding="UTF-8"?>
<svg version="1.1" xmlns="http://www.w3.org/2000/svg" width="28" height="28">
<path d="M0,0 L28,0 L28,28 L0,28 Z " fill="#030303" transform="translate(0,0)"/>
<path d="M0,0 L6,0 L9,2 L9,7 L14,8 L17,12 L16,17 L12,20 L2,20 L0,16 L3,15 L3,17 L12,16 L14,11 L11,10 L4,10 L3,11 L-2,11 L-2,8 L5,6 L6,3 L-3,4 L-2,1 Z " fill="#DCDCDC" transform="translate(8,4)"/>
<path d="M0,0 L6,0 L5,3 L-3,4 L-2,1 Z " fill="#C3C3C3" transform="translate(8,4)"/>
<path d="M0,0 L3,1 L2,4 L-3,4 L-3,1 Z " fill="#CCCCCC" transform="translate(9,11)"/>
</svg>
