<?xml version="1.0" encoding="UTF-8"?>
<svg version="1.1" xmlns="http://www.w3.org/2000/svg" width="28" height="28">
<path d="M0,0 L28,0 L28,28 L0,28 Z " fill="#020202" transform="translate(0,0)"/>
<path d="M0,0 L5,1 L6,8 L4,8 L2,17 L-2,20 L-6,19 L-5,16 L-1,17 L-2,10 L2,8 L3,2 L0,2 Z " fill="#DEDEDE" transform="translate(14,4)"/>
<path d="M0,0 L3,0 L4,7 L0,10 L-4,9 L-3,6 L1,7 Z " fill="#E8E8E8" transform="translate(12,14)"/>
<path d="M0,0 L5,1 L6,8 L4,4 L0,2 Z " fill="#BEBEBE" transform="translate(14,4)"/>
</svg>
