<?xml version="1.0" encoding="UTF-8"?>
<svg version="1.1" xmlns="http://www.w3.org/2000/svg" width="28" height="28">
<path d="M0,0 L28,0 L28,28 L0,28 Z " fill="#030303" transform="translate(0,0)"/>
<path d="M0,0 L10,1 L11,5 L7,8 L8,16 L5,17 L5,20 L-4,19 L-5,16 L3,16 L3,11 L0,9 L0,7 L6,5 L-6,4 L-5,1 Z " fill="#DCDCDC" transform="translate(11,5)"/>
<path d="M0,0 L2,0 L2,3 L4,4 L1,5 L1,8 L-8,7 L-9,4 L-1,4 Z " fill="#EBEBEB" transform="translate(15,17)"/>
<path d="M0,0 L5,0 L5,1 L10,2 L10,3 L-1,3 Z " fill="#ABABAB" transform="translate(6,6)"/>
</svg>
