<?xml version="1.0" encoding="UTF-8"?>
<svg version="1.1" xmlns="http://www.w3.org/2000/svg" width="28" height="28">
<path d="M0,0 L28,0 L28,28 L0,28 Z " fill="#040404" transform="translate(0,0)"/>
<path d="M0,0 L14,0 L13,5 L11,7 L16,10 L16,17 L12,20 L5,20 L0,17 L0,14 L4,16 L9,17 L12,16 L12,11 L0,12 L2,9 L9,5 L10,4 L0,3 Z " fill="#D5D5D5" transform="translate(6,5)"/>
<path d="M0,0 L2,0 L4,7 L0,10 L-7,10 L-12,7 L-12,4 L-8,6 L-3,7 L0,6 Z " fill="#B7B7B7" transform="translate(18,15)"/>
<path d="M0,0 L1,2 L7,3 L8,4 L8,10 L6,9 L6,4 L-4,6 L-8,5 Z " fill="#F8F8F8" transform="translate(14,11)"/>
<path d="M0,0 L4,2 L9,4 L8,6 L3,5 L0,3 Z " fill="#D5D5D5" transform="translate(6,19)"/>
<path d="M0,0 L2,1 L1,4 L-6,5 L-4,2 Z " fill="#DADADA" transform="translate(12,12)"/>
</svg>
