<?xml version="1.0" encoding="UTF-8"?>
<svg version="1.1" xmlns="http://www.w3.org/2000/svg" width="28" height="28">
<path d="M0,0 L28,0 L28,28 L0,28 Z " fill="#030303" transform="translate(0,0)"/>
<path d="M0,0 L4,0 L4,6 L9,7 L9,13 L5,19 L3,20 L4,16 L6,10 L1,13 L-3,15 L-2,10 L1,4 L-2,4 L-2,6 L-5,6 L-3,2 Z " fill="#E0E0E0" transform="translate(12,6)"/>
<path d="M0,0 L1,0 L0,7 L-4,10 L-3,6 Z " fill="#E9E9E9" transform="translate(19,16)"/>
<path d="M0,0 L4,1 L4,7 L1,7 L1,4 L-1,3 L1,2 Z " fill="#AFAFAF" transform="translate(17,12)"/>
</svg>
