<?xml version="1.0" encoding="UTF-8"?>
<svg version="1.1" xmlns="http://www.w3.org/2000/svg" width="28" height="28">
<path d="M0,0 L28,0 L28,28 L0,28 Z " fill="#040404" transform="translate(0,0)"/>
<path d="M0,0 L7,0 L12,3 L11,7 L10,9 L18,10 L20,11 L19,15 L13,18 L10,18 L10,15 L17,13 L15,12 L3,12 L5,8 L9,6 L9,4 L0,1 Z " fill="#EEEEEE" transform="translate(4,5)"/>
<path d="M0,0 L9,2 L11,3 L10,7 L4,10 L1,10 L1,7 L8,5 L-1,2 Z " fill="#CDCDCD" transform="translate(13,13)"/>
<path d="M0,0 L7,0 L11,2 L9,4 L0,1 Z " fill="#D6D6D6" transform="translate(4,5)"/>
</svg>
