<?xml version="1.0" encoding="UTF-8"?>
<svg version="1.1" xmlns="http://www.w3.org/2000/svg" width="28" height="28">
<path d="M0,0 L28,0 L28,28 L0,28 Z " fill="#040404" transform="translate(0,0)"/>
<path d="M0,0 L3,3 L2,7 L0,9 L3,12 L3,17 L-4,20 L-10,19 L-11,15 L1,17 L-1,11 L-10,10 L-9,7 L-2,6 L-1,5 L-8,6 L-7,2 Z " fill="#E8E8E8" transform="translate(18,4)"/>
<path d="M0,0 L3,3 L2,7 L-1,8 L-1,5 L0,2 L-2,1 Z " fill="#C7C7C7" transform="translate(18,4)"/>
<path d="M0,0 L1,3 L5,1 L9,2 L7,4 L0,4 Z " fill="#252525" transform="translate(9,7)"/>
</svg>
