<?xml version="1.0" encoding="UTF-8"?>
<svg version="1.1" xmlns="http://www.w3.org/2000/svg" width="28" height="28">
<path d="M0,0 L28,0 L28,28 L0,28 Z " fill="#030303" transform="translate(0,0)"/>
<path d="M0,0 L8,0 L9,7 L11,10 L11,15 L3,20 L-6,20 L-7,17 L6,15 L9,14 L8,10 L-3,10 L-3,6 L5,4 L-2,4 L-2,1 Z " fill="#EAEAEA" transform="translate(11,5)"/>
<path d="M0,0 L5,0 L9,3 L0,4 Z " fill="#CECECE" transform="translate(8,11)"/>
<path d="M0,0 L7,0 L6,3 L1,3 Z " fill="#F5F5F5" transform="translate(4,22)"/>
<path d="M0,0 L5,0 L6,3 L0,4 Z " fill="#BEBEBE" transform="translate(10,21)"/>
</svg>
