<?xml version="1.0" encoding="UTF-8"?>
<svg version="1.1" xmlns="http://www.w3.org/2000/svg" width="28" height="28">
<path d="M0,0 L28,0 L28,28 L0,28 Z " fill="#040404" transform="translate(0,0)"/>
<path d="M0,0 L11,0 L16,2 L14,6 L10,6 L13,11 L12,16 L5,20 L-1,20 L-4,18 L-4,14 L0,16 L8,15 L10,14 L9,11 L-1,11 L0,7 L7,7 L8,4 L0,3 Z " fill="#D1D1D1" transform="translate(9,5)"/>
<path d="M0,0 L3,0 L5,5 L4,8 L2,6 L-8,6 L-7,2 L0,2 Z " fill="#F2F2F2" transform="translate(16,10)"/>
<path d="M0,0 L7,0 L8,2 L0,3 Z " fill="#E2E2E2" transform="translate(9,5)"/>
<path d="M0,0 L6,0 L2,2 L1,4 L-4,4 Z " fill="#313131" transform="translate(15,8)"/>
</svg>
