<?xml version="1.0" encoding="UTF-8"?>
<svg version="1.1" xmlns="http://www.w3.org/2000/svg" width="28" height="28">
<path d="M0,0 L28,0 L28,28 L0,28 Z " fill="#040404" transform="translate(0,0)"/>
<path d="M0,0 L5,0 L7,3 L6,8 L9,10 L9,16 L7,17 L7,12 L0,10 L0,7 L4,5 L4,3 L-1,4 L-4,4 Z " fill="#E2E2E2" transform="translate(12,4)"/>
<path d="M0,0 L4,3 L12,3 L12,5 L10,6 L3,6 L0,3 Z " fill="#D8D8D8" transform="translate(7,18)"/>
<path d="M0,0 L5,0 L7,3 L7,6 L4,5 L4,3 L-1,4 L-4,4 Z " fill="#CBCBCB" transform="translate(12,4)"/>
</svg>
