<?xml version="1.0" encoding="UTF-8"?>
<svg version="1.1" xmlns="http://www.w3.org/2000/svg" width="28" height="28">
<path d="M0,0 L28,0 L28,28 L0,28 Z " fill="#030303" transform="translate(0,0)"/>
<path d="M0,0 L5,0 L6,1 L6,6 L5,10 L6,11 L6,16 L1,19 L-6,20 L-5,17 L3,16 L3,12 L0,15 L-3,15 L-1,11 L2,6 L3,2 L-1,5 L-3,5 L-4,9 L-6,9 L-5,1 Z " fill="#D4D4D4" transform="translate(14,5)"/>
<path d="M0,0 L2,3 L1,7 L0,5 L-3,8 L-6,8 L-4,4 Z " fill="#EEEEEE" transform="translate(17,12)"/>
<path d="M0,0 L1,3 L0,5 L-6,6 L-6,4 L-3,4 L-2,1 Z " fill="#323232" transform="translate(17,16)"/>
</svg>
