<?xml version="1.0" encoding="UTF-8"?>
<svg version="1.1" xmlns="http://www.w3.org/2000/svg" width="28" height="28">
<path d="M0,0 L28,0 L28,28 L0,28 Z " fill="#040404" transform="translate(0,0)"/>
<path d="M0,0 L7,0 L11,2 L10,7 L9,9 L14,11 L17,14 L15,18 L10,20 L3,19 L3,15 L6,15 L6,17 L13,15 L10,12 L2,11 L3,7 L7,5 L8,3 L-1,3 Z " fill="#E7E7E7" transform="translate(6,4)"/>
<path d="M0,0 L3,0 L3,2 L6,3 L7,5 L0,4 Z " fill="#CCCCCC" transform="translate(9,19)"/>
<path d="M0,0 L7,0 L6,3 L-1,3 Z " fill="#C3C3C3" transform="translate(6,4)"/>
</svg>
