<?xml version="1.0" encoding="UTF-8"?>
<svg version="1.1" xmlns="http://www.w3.org/2000/svg" width="28" height="28">
<path d="M0,0 L28,0 L28,28 L0,28 Z " fill="#030303" transform="translate(0,0)"/>
<path d="M0,0 L7,1 L8,6 L7,8 L11,10 L13,13 L12,18 L8,20 L2,20 L-3,17 L-2,15 L3,17 L9,17 L10,13 L10,11 L3,10 L-3,11 L-5,7 L-4,3 Z " fill="#E6E6E6" transform="translate(11,5)"/>
<path d="M0,0 L7,1 L7,5 L5,7 L-3,7 L-4,10 L-5,4 Z " fill="#DADADA" transform="translate(11,5)"/>
<path d="M0,0 L5,1 L4,5 L-3,5 L-2,1 Z " fill="#2A2A2A" transform="translate(12,7)"/>
<path d="M0,0 L9,3 L5,5 L0,2 Z " fill="#C7C7C7" transform="translate(8,20)"/>
</svg>
