<?xml version="1.0" encoding="UTF-8"?>
<svg version="1.1" xmlns="http://www.w3.org/2000/svg" width="28" height="28">
<path d="M0,0 L28,0 L28,28 L0,28 Z " fill="#030303" transform="translate(0,0)"/>
<path d="M0,0 L3,1 L2,6 L1,7 L0,16 L-4,19 L-15,20 L-14,17 L-4,15 L-4,12 L-9,15 L-11,15 L-11,12 L-9,12 L-9,10 L-4,9 L-4,7 L0,3 L-11,6 L-10,2 Z " fill="#DBDBDB" transform="translate(20,4)"/>
<path d="M0,0 L1,4 L-2,6 L-10,6 L-10,5 L-5,5 L-4,2 Z " fill="#2D2D2D" transform="translate(16,15)"/>
<path d="M0,0 L8,0 L8,2 L-1,3 Z " fill="#F0F0F0" transform="translate(6,21)"/>
</svg>
