<?xml version="1.0" encoding="UTF-8"?>
<svg version="1.1" xmlns="http://www.w3.org/2000/svg" width="28" height="28">
<path d="M0,0 L28,0 L28,28 L0,28 Z " fill="#030303" transform="translate(0,0)"/>
<path d="M0,0 L9,0 L11,2 L10,6 L7,7 L8,12 L0,19 L-7,20 L-7,16 L1,15 L5,10 L-1,10 L0,8 L8,4 L1,4 L-2,4 L-2,1 Z " fill="#EAEAEA" transform="translate(12,5)"/>
<path d="M0,0 L9,0 L8,3 L1,4 L-2,4 L-2,1 Z " fill="#BFBFBF" transform="translate(12,5)"/>
<path d="M0,0 L3,0 L4,4 L-1,9 L-3,9 L-1,5 L2,1 Z " fill="#C3C3C3" transform="translate(15,14)"/>
</svg>
