<?xml version="1.0" encoding="UTF-8"?>
<svg version="1.1" xmlns="http://www.w3.org/2000/svg" width="28" height="28">
<path d="M0,0 L28,0 L28,28 L0,28 Z " fill="#030303" transform="translate(0,0)"/>
<path d="M0,0 L10,0 L9,4 L7,4 L4,17 L-9,16 L-10,13 L2,14 L3,9 L-1,11 L-4,11 L-3,8 L3,4 L6,4 L6,2 L-1,4 L-1,1 Z " fill="#DADADA" transform="translate(13,6)"/>
<path d="M0,0 L13,1 L13,3 L1,3 Z " fill="#E7E7E7" transform="translate(3,19)"/>
<path d="M0,0 L3,0 L2,5 L-4,5 Z " fill="#191919" transform="translate(13,15)"/>
</svg>
