<?xml version="1.0" encoding="UTF-8"?>
<svg version="1.1" xmlns="http://www.w3.org/2000/svg" width="28" height="28">
<path d="M0,0 L28,0 L28,28 L0,28 Z " fill="#050505" transform="translate(0,0)"/>
<path d="M0,0 L9,0 L11,1 L11,4 L8,7 L10,7 L10,14 L3,19 L-8,19 L-8,15 L-5,15 L-5,17 L4,14 L6,12 L7,8 L1,10 L-4,10 L-4,8 L2,5 L5,5 L5,3 L2,4 L-5,4 L-4,1 Z " fill="#E7E7E7" transform="translate(12,5)"/>
<path d="M0,0 L6,0 L6,1 L1,2 L2,4 L-5,4 L-4,1 Z " fill="#BEBEBE" transform="translate(12,5)"/>
</svg>
