<?xml version="1.0" encoding="UTF-8"?>
<svg version="1.1" xmlns="http://www.w3.org/2000/svg" width="28" height="28">
<path d="M0,0 L28,0 L28,28 L0,28 Z " fill="#040404" transform="translate(0,0)"/>
<path d="M0,0 L7,0 L8,1 L7,8 L3,11 L1,18 L-4,20 L-10,20 L-9,16 L-3,16 L0,13 L-3,13 L-3,9 L4,7 L6,3 L-3,5 L-2,1 Z " fill="#EEEEEE" transform="translate(14,5)"/>
<path d="M0,0 L4,0 L4,6 L-1,8 L-7,8 L-6,4 L0,4 L3,1 Z " fill="#E9E9E9" transform="translate(11,17)"/>
<path d="M0,0 L4,0 L4,6 L1,7 L0,4 L3,1 Z " fill="#B3B3B3" transform="translate(11,17)"/>
</svg>
