<?xml version="1.0" encoding="UTF-8"?>
<svg version="1.1" xmlns="http://www.w3.org/2000/svg" width="28" height="28">
<path d="M0,0 L28,0 L28,28 L0,28 Z " fill="#020202" transform="translate(0,0)"/>
<path d="M0,0 L8,0 L9,3 L5,8 L9,9 L10,10 L10,17 L6,20 L0,20 L-2,19 L-1,15 L0,17 L6,17 L7,16 L7,11 L6,10 L-1,9 L-1,7 L5,4 L6,2 L0,2 Z " fill="#C0C0C0" transform="translate(10,4)"/>
<path d="M0,0 L1,0 L1,6 L-3,9 L-9,9 L-11,8 L-10,4 L-9,6 L-3,6 L-1,4 Z " fill="#E0E0E0" transform="translate(19,15)"/>
</svg>
