<?xml version="1.0" encoding="UTF-8"?>
<svg version="1.1" xmlns="http://www.w3.org/2000/svg" width="28" height="28">
<path d="M0,0 L28,0 L28,28 L0,28 Z " fill="#030303" transform="translate(0,0)"/>
<path d="M0,0 L7,0 L9,5 L7,8 L12,9 L15,12 L14,17 L9,20 L-1,20 L-1,19 L8,17 L11,15 L12,12 L-3,11 L-3,9 L5,5 L6,3 L-2,4 Z " fill="#E3E3E3" transform="translate(8,5)"/>
<path d="M0,0 L7,0 L9,5 L6,5 L6,3 L-2,4 Z " fill="#D3D3D3" transform="translate(8,5)"/>
<path d="M0,0 L2,0 L1,3 L-9,3 L-9,2 Z " fill="#ECECEC" transform="translate(16,22)"/>
</svg>
