<?xml version="1.0" encoding="UTF-8"?>
<svg version="1.1" xmlns="http://www.w3.org/2000/svg" width="28" height="28">
<path d="M0,0 L28,0 L28,28 L0,28 Z " fill="#040404" transform="translate(0,0)"/>
<path d="M0,0 L10,1 L12,7 L11,13 L8,18 L2,20 L-6,20 L-8,17 L-7,16 L1,16 L6,14 L9,8 L-3,11 L-2,8 L7,5 L8,3 L-2,3 L-2,1 Z " fill="#DDDDDD" transform="translate(10,4)"/>
<path d="M0,0 L10,1 L8,5 L8,3 L-2,3 L-2,1 Z " fill="#CBCBCB" transform="translate(10,4)"/>
<path d="M0,0 L4,1 L3,3 L-6,5 L-5,2 Z " fill="#D6D6D6" transform="translate(13,10)"/>
</svg>
