<?xml version="1.0" encoding="UTF-8"?>
<svg version="1.1" xmlns="http://www.w3.org/2000/svg" width="28" height="28">
<path d="M0,0 L28,0 L28,28 L0,28 Z " fill="#040404" transform="translate(0,0)"/>
<path d="M0,0 L10,0 L10,2 L7,2 L8,8 L6,10 L4,17 L0,19 L-8,18 L-10,17 L-9,14 L2,15 L2,12 L-5,11 L-5,7 L5,8 L0,3 Z " fill="#EDEDED" transform="translate(14,5)"/>
<path d="M0,0 L1,0 L0,7 L-4,9 L-12,8 L-14,7 L-13,4 L-2,5 Z " fill="#DADADA" transform="translate(18,15)"/>
<path d="M0,0 L1,0 L0,7 L-3,8 L-3,6 L-6,5 L-2,5 Z " fill="#C2C2C2" transform="translate(18,15)"/>
</svg>
