<?xml version="1.0" encoding="UTF-8"?>
<svg version="1.1" xmlns="http://www.w3.org/2000/svg" width="28" height="28">
<path d="M0,0 L28,0 L28,28 L0,28 Z " fill="#030303" transform="translate(0,0)"/>
<path d="M0,0 L8,0 L13,2 L15,5 L14,9 L12,12 L12,14 L4,13 L3,10 L12,7 L11,5 L-1,5 Z " fill="#D3D3D3" transform="translate(7,5)"/>
<path d="M0,0 L2,0 L3,2 L13,3 L13,1 L15,1 L14,5 L6,6 L0,3 Z " fill="#EEEEEE" transform="translate(6,19)"/>
<path d="M0,0 L8,0 L12,2 L11,3 L-1,5 Z " fill="#ECECEC" transform="translate(7,5)"/>
<path d="M0,0 L2,0 L3,2 L13,3 L13,4 L3,5 L0,3 Z " fill="#9B9B9B" transform="translate(6,19)"/>
</svg>
