<?xml version="1.0" encoding="UTF-8"?>
<svg version="1.1" xmlns="http://www.w3.org/2000/svg" width="28" height="28">
<path d="M0,0 L28,0 L28,28 L0,28 Z " fill="#030303" transform="translate(0,0)"/>
<path d="M0,0 L2,1 L1,6 L0,9 L1,16 L-1,18 L-8,18 L-12,16 L-8,15 L-2,15 L-2,10 L-8,9 L-8,6 L-1,6 Z " fill="#C3C3C3" transform="translate(18,6)"/>
<path d="M0,0 L12,0 L11,3 L4,3 L0,1 Z " fill="#DADADA" transform="translate(6,21)"/>
<path d="M0,0 L6,0 L8,2 L0,4 Z " fill="#DDDDDD" transform="translate(9,4)"/>
</svg>
