<?xml version="1.0" encoding="UTF-8"?>
<svg version="1.1" xmlns="http://www.w3.org/2000/svg" width="28" height="28">
<path d="M0,0 L28,0 L28,28 L0,28 Z " fill="#040404" transform="translate(0,0)"/>
<path d="M0,0 L6,1 L8,3 L7,9 L10,12 L10,17 L3,20 L-5,20 L-8,18 L-8,16 L8,16 L4,12 L-3,11 L-2,7 L5,5 L5,3 L-8,5 L-8,2 Z " fill="#DFDFDF" transform="translate(12,5)"/>
<path d="M0,0 L6,1 L7,3 L5,5 L5,3 L-8,5 L-8,2 Z " fill="#E9E9E9" transform="translate(12,5)"/>
<path d="M0,0 L12,1 L11,4 L3,4 L0,2 Z " fill="#898989" transform="translate(4,21)"/>
</svg>
