<?xml version="1.0" encoding="UTF-8"?>
<svg version="1.1" xmlns="http://www.w3.org/2000/svg" width="28" height="28">
<path d="M0,0 L28,0 L28,28 L0,28 Z " fill="#040404" transform="translate(0,0)"/>
<path d="M0,0 L7,1 L9,2 L9,7 L13,9 L12,15 L9,18 L-2,18 L-2,15 L5,16 L10,14 L10,8 L1,13 L-2,12 L-1,8 L2,6 L6,6 L6,3 L-3,3 L-5,6 L-3,6 L-3,8 L-7,6 L-6,2 Z " fill="#E9E9E9" transform="translate(11,6)"/>
<path d="M0,0 L7,1 L7,6 L6,3 L-3,3 L-5,6 L-3,6 L-3,8 L-7,6 L-6,2 Z " fill="#C1C1C1" transform="translate(11,6)"/>
<path d="M0,0 L2,3 L1,7 L-1,9 L-12,9 L-12,6 L-5,7 L0,5 Z " fill="#CCCCCC" transform="translate(21,15)"/>
</svg>
