<?xml version="1.0" encoding="UTF-8"?>
<svg version="1.1" xmlns="http://www.w3.org/2000/svg" width="28" height="28">
<path d="M0,0 L28,0 L28,28 L0,28 Z " fill="#030303" transform="translate(0,0)"/>
<path d="M0,0 L8,1 L8,5 L7,7 L12,10 L11,17 L7,20 L-1,20 L-3,18 L-2,15 L-1,18 L8,16 L9,11 L-3,11 L-2,8 L4,4 L1,3 L-4,3 L-4,1 Z " fill="#C8C8C8" transform="translate(10,5)"/>
<path d="M0,0 L2,0 L2,2 L7,2 L7,3 L-5,5 L-4,2 Z " fill="#EDEDED" transform="translate(12,11)"/>
<path d="M0,0 L6,1 L6,2 L-4,3 L-4,1 Z " fill="#E3E3E3" transform="translate(10,5)"/>
</svg>
