<?xml version="1.0" encoding="UTF-8"?>
<svg version="1.1" xmlns="http://www.w3.org/2000/svg" width="28" height="28">
<path d="M0,0 L28,0 L28,28 L0,28 Z " fill="#030303" transform="translate(0,0)"/>
<path d="M0,0 L6,0 L8,2 L7,9 L7,16 L5,16 L5,18 L2,20 L-5,20 L-6,16 L2,16 L4,10 L-2,11 L-2,8 L4,6 L5,3 L-5,4 L-4,1 Z " fill="#CECECE" transform="translate(13,5)"/>
<path d="M0,0 L7,2 L8,4 L1,4 Z " fill="#BFBFBF" transform="translate(7,21)"/>
<path d="M0,0 L1,0 L0,7 L-4,8 L-6,6 L-1,3 Z " fill="#F1F1F1" transform="translate(18,16)"/>
</svg>
