<?xml version="1.0" encoding="UTF-8"?>
<svg version="1.1" xmlns="http://www.w3.org/2000/svg" width="28" height="28">
<path d="M0,0 L28,0 L28,28 L0,28 Z " fill="#020202" transform="translate(0,0)"/>
<path d="M0,0 L5,0 L6,1 L6,6 L3,10 L8,11 L8,15 L6,15 L5,18 L2,20 L-4,20 L-4,18 L4,14 L-3,13 L0,8 L3,4 L-2,3 L-3,5 L-3,2 Z " fill="#E5E5E5" transform="translate(12,4)"/>
<path d="M0,0 L1,4 L-1,4 L-2,7 L-5,9 L-11,9 L-11,7 L-1,2 Z " fill="#C9C9C9" transform="translate(19,15)"/>
<path d="M0,0 L3,1 L4,3 L-2,3 L-3,5 L-3,2 Z " fill="#CFCFCF" transform="translate(12,4)"/>
</svg>
