<?xml version="1.0" encoding="UTF-8"?>
<svg version="1.1" xmlns="http://www.w3.org/2000/svg" width="28" height="28">
<path d="M0,0 L28,0 L28,28 L0,28 Z " fill="#020202" transform="translate(0,0)"/>
<path d="M0,0 L2,0 L1,6 L3,8 L3,13 L0,12 L0,8 L-9,8 L-10,6 L-9,4 L-2,2 Z " fill="#DBDBDB" transform="translate(19,7)"/>
<path d="M0,0 L5,2 L13,1 L14,4 L11,4 L11,6 L4,6 L0,4 Z " fill="#DDDDDD" transform="translate(6,18)"/>
<path d="M0,0 L5,1 L7,3 L1,5 L-1,1 Z " fill="#D8D8D8" transform="translate(12,4)"/>
</svg>
