<?xml version="1.0" encoding="UTF-8"?>
<svg version="1.1" xmlns="http://www.w3.org/2000/svg" width="28" height="28">
<path d="M0,0 L28,0 L28,28 L0,28 Z " fill="#020202" transform="translate(0,0)"/>
<path d="M0,0 L2,0 L2,2 L5,3 L4,10 L5,11 L5,18 L1,20 L-4,20 L-6,16 L3,16 L3,11 L-2,11 L-2,8 L2,6 L3,4 L-2,4 Z " fill="#AFAFAF" transform="translate(13,4)"/>
<path d="M0,0 L2,0 L2,2 L5,3 L4,8 L2,8 L2,10 L-2,11 L-2,8 L2,6 L3,4 L-2,4 Z " fill="#DCDCDC" transform="translate(13,4)"/>
<path d="M0,0 L9,2 L7,4 L2,4 Z " fill="#E7E7E7" transform="translate(7,20)"/>
</svg>
