<?xml version="1.0" encoding="UTF-8"?>
<svg version="1.1" xmlns="http://www.w3.org/2000/svg" width="28" height="28">
<path d="M0,0 L28,0 L28,28 L0,28 Z " fill="#020202" transform="translate(0,0)"/>
<path d="M0,0 L7,1 L8,4 L3,7 L0,14 L-4,16 L-10,16 L-12,13 L-2,13 L0,8 L-4,10 L-8,9 L-5,6 L4,3 L-3,3 L-3,1 Z " fill="#D9D9D9" transform="translate(16,7)"/>
<path d="M0,0 L11,0 L8,3 L2,3 Z " fill="#BFBFBF" transform="translate(4,20)"/>
<path d="M0,0 L9,0 L7,3 L3,4 L3,2 L0,2 Z " fill="#353535" transform="translate(12,9)"/>
</svg>
