<?xml version="1.0" encoding="UTF-8"?>
<svg version="1.1" xmlns="http://www.w3.org/2000/svg" width="28" height="28">
<path d="M0,0 L28,0 L28,28 L0,28 Z " fill="#030303" transform="translate(0,0)"/>
<path d="M0,0 L8,0 L8,5 L6,8 L8,11 L7,16 L4,19 L1,20 L-10,20 L-11,17 L-8,15 L-8,17 L0,17 L5,14 L4,10 L-2,9 L-2,7 L5,4 L6,2 L-6,5 L-5,2 Z " fill="#E0E0E0" transform="translate(13,5)"/>
<path d="M0,0 L1,2 L11,2 L13,4 L10,5 L-1,5 L-2,2 Z " fill="#C2C2C2" transform="translate(4,20)"/>
<path d="M0,0 L7,1 L6,3 L-2,4 L-6,5 L-5,2 Z " fill="#C9C9C9" transform="translate(13,5)"/>
</svg>
