<?xml version="1.0" encoding="UTF-8"?>
<svg version="1.1" xmlns="http://www.w3.org/2000/svg" width="28" height="28">
<path d="M0,0 L28,0 L28,28 L0,28 Z " fill="#050505" transform="translate(0,0)"/>
<path d="M0,0 L8,1 L11,1 L13,6 L15,9 L15,15 L12,19 L9,20 L1,20 L-2,18 L-1,15 L2,17 L10,17 L11,16 L11,8 L4,9 L5,6 L8,4 L1,3 Z " fill="#CBCBCB" transform="translate(7,4)"/>
<path d="M0,0 L4,2 L12,3 L11,5 L3,5 L0,3 Z " fill="#EBEBEB" transform="translate(5,19)"/>
<path d="M0,0 L8,1 L11,1 L11,4 L1,3 Z " fill="#F4F4F4" transform="translate(7,4)"/>
</svg>
