<?xml version="1.0" encoding="UTF-8"?>
<svg version="1.1" xmlns="http://www.w3.org/2000/svg" width="28" height="28">
<path d="M0,0 L28,0 L28,28 L0,28 Z " fill="#030303" transform="translate(0,0)"/>
<path d="M0,0 L9,1 L9,6 L9,10 L10,14 L8,18 L1,20 L1,18 L7,15 L7,12 L2,9 L6,3 L2,2 L1,4 Z " fill="#D5D5D5" transform="translate(9,5)"/>
<path d="M0,0 L1,2 L5,4 L4,10 L-3,13 L-4,11 L2,8 L2,5 L-2,2 Z " fill="#E1E1E1" transform="translate(14,12)"/>
<path d="M0,0 L9,1 L6,3 L2,2 L1,4 Z " fill="#BABABA" transform="translate(9,5)"/>
</svg>
