<?xml version="1.0" encoding="UTF-8"?>
<svg version="1.1" xmlns="http://www.w3.org/2000/svg" width="28" height="28">
<path d="M0,0 L28,0 L28,28 L0,28 Z " fill="#010101" transform="translate(0,0)"/>
<path d="M0,0 L2,1 L1,3 L5,7 L6,11 L2,15 L0,15 L0,12 L2,11 L2,7 L-2,4 L-2,1 Z " fill="#D5D5D5" transform="translate(13,11)"/>
<path d="M0,0 L5,1 L4,5 L2,4 L3,2 L-3,4 L-5,8 L-6,4 L-3,1 Z " fill="#CFCFCF" transform="translate(13,6)"/>
<path d="M0,0 L4,0 L3,3 L-1,4 L-2,6 L-3,2 Z " fill="#1B1B1B" transform="translate(12,8)"/>
</svg>
