<?xml version="1.0" encoding="UTF-8"?>
<svg version="1.1" xmlns="http://www.w3.org/2000/svg" width="28" height="28">
<path d="M0,0 L28,0 L28,28 L0,28 Z " fill="#040404" transform="translate(0,0)"/>
<path d="M0,0 L9,0 L13,1 L13,8 L16,11 L16,17 L13,20 L3,19 L3,16 L13,16 L13,12 L4,8 L5,6 L9,5 L10,3 L-2,4 Z " fill="#D6D6D6" transform="translate(6,5)"/>
<path d="M0,0 L9,0 L13,1 L13,7 L10,5 L10,3 L-2,4 Z " fill="#D4D4D4" transform="translate(6,5)"/>
<path d="M0,0 L2,4 L1,6 L-6,5 L-6,2 Z " fill="#EFEFEF" transform="translate(17,9)"/>
<path d="M0,0 L4,0 L4,6 L1,4 L1,2 L-6,2 L-6,1 Z " fill="#AEAEAE" transform="translate(15,6)"/>
</svg>
