<?xml version="1.0" encoding="UTF-8"?>
<svg version="1.1" xmlns="http://www.w3.org/2000/svg" width="28" height="28">
<path d="M0,0 L28,0 L28,28 L0,28 Z " fill="#030303" transform="translate(0,0)"/>
<path d="M0,0 L5,0 L6,7 L4,7 L9,13 L9,20 L3,19 L2,15 L7,16 L5,12 L-4,7 L-4,2 Z " fill="#D3D3D3" transform="translate(11,5)"/>
<path d="M0,0 L5,0 L6,6 L-2,6 L-3,8 L-4,7 L-4,2 Z " fill="#D2D2D2" transform="translate(11,5)"/>
<path d="M0,0 L3,1 L1,2 L3,6 L-1,5 L-5,3 L-5,1 Z " fill="#ECECEC" transform="translate(14,10)"/>
<path d="M0,0 L4,1 L4,3 L2,4 L-4,4 Z " fill="#363636" transform="translate(12,7)"/>
</svg>
