<?xml version="1.0" encoding="UTF-8"?>
<svg version="1.1" xmlns="http://www.w3.org/2000/svg" width="28" height="28">
<path d="M0,0 L28,0 L28,28 L0,28 Z " fill="#040404" transform="translate(0,0)"/>
<path d="M0,0 L11,0 L15,4 L13,7 L11,7 L11,9 L14,10 L15,14 L14,17 L8,20 L2,20 L1,16 L2,13 L5,13 L5,15 L3,15 L3,17 L11,16 L11,11 L2,9 L2,7 L12,5 L11,3 L-1,3 Z " fill="#E2E2E2" transform="translate(7,5)"/>
<path d="M0,0 L3,0 L3,2 L1,2 L1,4 L6,4 L6,7 L0,7 L-1,3 Z " fill="#B0B0B0" transform="translate(9,18)"/>
<path d="M0,0 L11,0 L10,2 L-1,3 Z " fill="#CBCBCB" transform="translate(7,5)"/>
</svg>
