<?xml version="1.0" encoding="UTF-8"?>
<svg version="1.1" xmlns="http://www.w3.org/2000/svg" width="28" height="28">
<path d="M0,0 L28,0 L28,28 L0,28 Z " fill="#030303" transform="translate(0,0)"/>
<path d="M0,0 L7,0 L9,6 L14,9 L14,15 L9,19 L3,20 L-2,19 L-2,16 L2,15 L2,17 L11,15 L11,10 L0,10 L0,7 L5,5 L5,3 L-3,5 L-6,6 L-5,2 Z " fill="#E6E6E6" transform="translate(9,5)"/>
<path d="M0,0 L9,1 L8,3 L2,3 L-3,5 L-2,1 Z " fill="#B1B1B1" transform="translate(6,6)"/>
<path d="M0,0 L6,3 L5,9 L4,5 L-3,4 L0,2 Z " fill="#C6C6C6" transform="translate(16,10)"/>
</svg>
