<?xml version="1.0" encoding="UTF-8"?>
<svg version="1.1" xmlns="http://www.w3.org/2000/svg" width="28" height="28">
<path d="M0,0 L28,0 L28,28 L0,28 Z " fill="#040404" transform="translate(0,0)"/>
<path d="M0,0 L9,0 L11,2 L11,5 L15,7 L16,13 L12,17 L10,18 L1,18 L-3,14 L-2,12 L4,12 L5,14 L1,14 L1,16 L11,14 L13,12 L13,9 L8,8 L0,10 L0,7 L8,4 L9,2 L0,3 L-4,4 L-3,1 Z " fill="#DDDDDD" transform="translate(8,5)"/>
<path d="M0,0 L6,0 L7,2 L3,2 L3,4 L10,4 L10,5 L3,6 L-1,2 Z " fill="#D0D0D0" transform="translate(6,17)"/>
</svg>
