<?xml version="1.0" encoding="UTF-8"?>
<svg version="1.1" xmlns="http://www.w3.org/2000/svg" width="28" height="28">
<path d="M0,0 L28,0 L28,28 L0,28 Z " fill="#050505" transform="translate(0,0)"/>
<path d="M0,0 L4,1 L3,6 L2,8 L7,9 L9,10 L9,15 L4,19 L-5,20 L-10,18 L-11,14 L-9,12 L-6,12 L-7,16 L-1,17 L4,15 L6,11 L-6,11 L-6,8 L0,4 L-5,5 L-10,6 L-9,3 L-6,1 Z " fill="#E1E1E1" transform="translate(16,4)"/>
<path d="M0,0 L1,0 L1,5 L-4,9 L-5,6 L-1,1 Z " fill="#C7C7C7" transform="translate(24,14)"/>
</svg>
