<?xml version="1.0" encoding="UTF-8"?>
<svg version="1.1" xmlns="http://www.w3.org/2000/svg" width="28" height="28">
<path d="M0,0 L28,0 L28,28 L0,28 Z " fill="#020202" transform="translate(0,0)"/>
<path d="M0,0 L5,1 L6,5 L4,10 L3,15 L-1,19 L-10,20 L-14,18 L-13,15 L-9,16 L-2,16 L1,11 L-7,12 L-7,9 L-5,8 L-6,4 L-3,3 L-3,1 Z " fill="#B6B6B6" transform="translate(16,5)"/>
<path d="M0,0 L1,3 L1,9 L-4,14 L-13,15 L-17,13 L-16,10 L-12,11 L-5,11 L-3,6 L-3,3 Z " fill="#DFDFDF" transform="translate(19,10)"/>
<path d="M0,0 L4,1 L0,5 L-2,5 L-2,2 L0,2 Z " fill="#E9E9E9" transform="translate(13,6)"/>
</svg>
