<?xml version="1.0" encoding="UTF-8"?>
<svg version="1.1" xmlns="http://www.w3.org/2000/svg" width="28" height="28">
<path d="M0,0 L28,0 L28,28 L0,28 Z " fill="#030303" transform="translate(0,0)"/>
<path d="M0,0 L6,1 L7,2 L7,7 L5,8 L7,12 L8,17 L4,20 L-4,20 L-5,18 L4,16 L4,12 L1,10 L1,7 L5,3 L-1,2 Z " fill="#EFEFEF" transform="translate(11,4)"/>
<path d="M0,0 L3,1 L2,3 L-5,3 L-6,1 Z " fill="#C4C4C4" transform="translate(12,21)"/>
<path d="M0,0 L6,1 L6,4 L-1,2 Z " fill="#D1D1D1" transform="translate(11,4)"/>
</svg>
