<?xml version="1.0" encoding="UTF-8"?>
<svg version="1.1" xmlns="http://www.w3.org/2000/svg" width="28" height="28">
<path d="M0,0 L28,0 L28,28 L0,28 Z " fill="#050505" transform="translate(0,0)"/>
<path d="M0,0 L10,0 L14,2 L13,9 L18,11 L19,16 L13,20 L4,20 L1,16 L2,11 L12,6 L12,4 L0,2 Z " fill="#DEDEDE" transform="translate(5,4)"/>
<path d="M0,0 L9,0 L12,3 L4,7 L-2,6 L-3,1 Z " fill="#101010" transform="translate(11,15)"/>
<path d="M0,0 L10,0 L14,3 L12,4 L0,2 Z " fill="#CECECE" transform="translate(5,4)"/>
</svg>
