<?xml version="1.0" encoding="UTF-8"?>
<svg version="1.1" xmlns="http://www.w3.org/2000/svg" width="28" height="28">
<path d="M0,0 L28,0 L28,28 L0,28 Z " fill="#050505" transform="translate(0,0)"/>
<path d="M0,0 L9,1 L12,9 L12,15 L8,19 L6,20 L0,20 L-3,17 L-3,15 L5,16 L9,14 L10,11 L2,13 L3,9 L7,7 L8,4 L-2,4 Z " fill="#F6F6F6" transform="translate(9,4)"/>
<path d="M0,0 L9,1 L10,4 L8,6 L8,4 L-2,4 Z " fill="#CCCCCC" transform="translate(9,4)"/>
<path d="M0,0 L8,1 L12,0 L13,3 L9,5 L3,5 L0,2 Z " fill="#E0E0E0" transform="translate(6,19)"/>
</svg>
