<?xml version="1.0" encoding="UTF-8"?>
<svg version="1.1" xmlns="http://www.w3.org/2000/svg" width="28" height="28">
<path d="M0,0 L28,0 L28,28 L0,28 Z " fill="#030303" transform="translate(0,0)"/>
<path d="M0,0 L5,0 L5,9 L8,12 L7,17 L2,20 L-3,19 L-4,17 L-3,15 L-1,15 L-1,18 L4,16 L6,12 L-1,10 L-1,8 L2,7 L4,2 L-1,4 L-4,4 Z " fill="#D5D5D5" transform="translate(12,4)"/>
<path d="M0,0 L5,0 L5,10 L-1,10 L-1,8 L2,7 L4,2 L-1,4 L-4,4 Z " fill="#DFDFDF" transform="translate(12,4)"/>
<path d="M0,0 L4,1 L5,6 L2,8 L2,5 L3,2 L0,1 Z " fill="#BDBDBD" transform="translate(15,14)"/>
</svg>
