<?xml version="1.0" encoding="UTF-8"?>
<svg version="1.1" xmlns="http://www.w3.org/2000/svg" width="28" height="28">
<path d="M0,0 L28,0 L28,28 L0,28 Z " fill="#030303" transform="translate(0,0)"/>
<path d="M0,0 L7,0 L8,5 L6,9 L8,11 L8,16 L6,16 L6,18 L0,20 L-6,20 L-6,17 L1,17 L5,14 L4,11 L-6,13 L-6,11 L4,5 L5,2 L-1,3 L-1,5 L-3,5 L-3,1 Z " fill="#DEDEDE" transform="translate(13,5)"/>
<path d="M0,0 L1,0 L1,5 L-1,5 L-1,7 L-7,9 L-13,9 L-13,6 L-6,6 L-2,3 L0,3 Z " fill="#C8C8C8" transform="translate(20,16)"/>
</svg>
