<?xml version="1.0" encoding="UTF-8"?>
<svg version="1.1" xmlns="http://www.w3.org/2000/svg" width="28" height="28">
<path d="M0,0 L28,0 L28,28 L0,28 Z " fill="#050505" transform="translate(0,0)"/>
<path d="M0,0 L6,0 L8,2 L7,10 L12,13 L11,17 L7,20 L2,20 L0,16 L5,14 L4,17 L7,15 L7,13 L2,11 L4,5 L5,3 L-1,4 L0,7 L-4,8 L-3,3 Z " fill="#E3E3E3" transform="translate(10,5)"/>
<path d="M0,0 L3,1 L1,2 L2,4 L-1,4 L0,7 L-4,8 L-3,3 Z " fill="#CFCFCF" transform="translate(10,5)"/>
<path d="M0,0 L2,1 L1,3 L3,4 L-1,6 L-3,2 Z " fill="#E9E9E9" transform="translate(13,19)"/>
</svg>
