<?xml version="1.0" encoding="UTF-8"?>
<svg version="1.1" xmlns="http://www.w3.org/2000/svg" width="28" height="28">
<path d="M0,0 L28,0 L28,28 L0,28 Z " fill="#040404" transform="translate(0,0)"/>
<path d="M0,0 L7,0 L8,5 L6,8 L13,11 L13,16 L9,19 L1,20 L-1,19 L-1,16 L1,16 L1,14 L8,13 L8,15 L5,16 L10,15 L11,12 L2,10 L3,6 L5,2 L-1,6 L-4,7 L-4,3 Z " fill="#E1E1E1" transform="translate(9,4)"/>
<path d="M0,0 L4,0 L4,2 L1,3 L2,5 L0,7 L-5,6 L-5,3 L-3,3 L-3,1 Z " fill="#A8A8A8" transform="translate(13,17)"/>
<path d="M0,0 L5,0 L6,5 L4,5 L3,3 L-1,1 Z " fill="#F2F2F2" transform="translate(11,4)"/>
</svg>
