<?xml version="1.0" encoding="UTF-8"?>
<svg version="1.1" xmlns="http://www.w3.org/2000/svg" width="28" height="28">
<path d="M0,0 L28,0 L28,28 L0,28 Z " fill="#030303" transform="translate(0,0)"/>
<path d="M0,0 L5,0 L7,4 L6,7 L4,9 L9,12 L9,17 L2,20 L-2,19 L-4,17 L-3,13 L1,13 L1,15 L-1,15 L-1,17 L6,17 L6,13 L0,10 L2,6 L4,3 L-4,5 L-5,8 L-7,8 L-6,4 L-3,1 Z " fill="#DCDCDC" transform="translate(13,5)"/>
<path d="M0,0 L4,0 L4,2 L2,2 L2,4 L6,5 L4,5 L4,7 L0,5 L-1,1 Z " fill="#C0C0C0" transform="translate(10,18)"/>
</svg>
