<?xml version="1.0" encoding="UTF-8"?>
<svg version="1.1" xmlns="http://www.w3.org/2000/svg" width="28" height="28">
<path d="M0,0 L28,0 L28,28 L0,28 Z " fill="#040404" transform="translate(0,0)"/>
<path d="M0,0 L7,0 L9,1 L8,6 L5,7 L6,15 L1,19 L-5,20 L-7,19 L-6,15 L-6,17 L1,15 L3,11 L-4,11 L-3,8 L5,5 L6,2 L-2,4 L-3,1 Z " fill="#F2F2F2" transform="translate(13,5)"/>
<path d="M0,0 L2,2 L2,7 L-3,11 L-9,12 L-11,11 L-10,7 L-10,9 L-3,7 L0,6 Z " fill="#ECECEC" transform="translate(17,13)"/>
<path d="M0,0 L2,1 L1,2 L4,3 L3,7 L3,4 L-4,4 L-3,1 Z " fill="#ADADAD" transform="translate(13,12)"/>
<path d="M0,0 L5,0 L5,2 L-2,4 L-3,1 Z " fill="#CBCBCB" transform="translate(13,5)"/>
</svg>
