<?xml version="1.0" encoding="UTF-8"?>
<svg version="1.1" xmlns="http://www.w3.org/2000/svg" width="28" height="28">
<path d="M0,0 L28,0 L28,28 L0,28 Z " fill="#030303" transform="translate(0,0)"/>
<path d="M0,0 L3,0 L3,3 L7,5 L7,10 L6,13 L6,18 L1,20 L-7,20 L-9,19 L-9,16 L3,16 L3,14 L0,13 L1,9 L5,9 L4,6 L-3,6 L-3,3 Z " fill="#B9B9B9" transform="translate(14,3)"/>
<path d="M0,0 L1,4 L-3,6 L-11,6 L-13,5 L-13,2 L-1,2 Z " fill="#E9E9E9" transform="translate(18,17)"/>
<path d="M0,0 L1,2 L6,3 L6,7 L4,7 L3,4 L-2,3 Z " fill="#F0F0F0" transform="translate(15,5)"/>
</svg>
