<?xml version="1.0" encoding="UTF-8"?>
<svg version="1.1" xmlns="http://www.w3.org/2000/svg" width="28" height="28">
<path d="M0,0 L28,0 L28,28 L0,28 Z " fill="#040404" transform="translate(0,0)"/>
<path d="M0,0 L5,0 L5,5 L4,7 L4,13 L-1,18 L-4,20 L-11,20 L-13,18 L-13,15 L-5,16 L0,13 L1,11 L-1,12 L-7,12 L-6,9 L-2,8 L-2,6 L-5,6 L-5,3 Z " fill="#E1E1E1" transform="translate(16,4)"/>
<path d="M0,0 L3,1 L1,2 L2,5 L-5,6 L-5,3 Z " fill="#C1C1C1" transform="translate(16,4)"/>
<path d="M0,0 L6,2 L7,4 L1,4 Z " fill="#F8F8F8" transform="translate(3,19)"/>
</svg>
