<?xml version="1.0" encoding="UTF-8"?>
<svg version="1.1" xmlns="http://www.w3.org/2000/svg" width="28" height="28">
<path d="M0,0 L28,0 L28,28 L0,28 Z " fill="#040404" transform="translate(0,0)"/>
<path d="M0,0 L11,1 L10,7 L10,12 L5,17 L-1,20 L-6,19 L-6,16 L1,16 L6,12 L7,9 L-1,11 L0,7 L4,5 L-3,5 L-2,1 Z " fill="#E1E1E1" transform="translate(11,6)"/>
<path d="M0,0 L11,1 L11,2 L6,3 L2,5 L-3,5 L-2,1 Z " fill="#CCCCCC" transform="translate(11,6)"/>
<path d="M0,0 L3,1 L5,3 L-3,5 L-2,1 Z " fill="#D2D2D2" transform="translate(13,12)"/>
</svg>
