<?xml version="1.0" encoding="UTF-8"?>
<svg version="1.1" xmlns="http://www.w3.org/2000/svg" width="28" height="28">
<path d="M0,0 L28,0 L28,28 L0,28 Z " fill="#040404" transform="translate(0,0)"/>
<path d="M0,0 L2,0 L2,2 L11,1 L9,6 L9,9 L9,15 L3,20 L-2,19 L-3,15 L-1,15 L-1,18 L4,16 L6,14 L7,10 L-1,11 L0,8 L6,6 L6,4 L-3,5 L-1,1 Z " fill="#DFDFDF" transform="translate(11,5)"/>
<path d="M0,0 L2,0 L2,2 L8,2 L8,3 L-3,5 L-1,1 Z " fill="#E6E6E6" transform="translate(11,5)"/>
<path d="M0,0 L5,0 L3,5 L-3,3 Z " fill="#BCBCBC" transform="translate(17,6)"/>
</svg>
