<?xml version="1.0" encoding="UTF-8"?>
<svg version="1.1" xmlns="http://www.w3.org/2000/svg" width="28" height="28">
<path d="M0,0 L28,0 L28,28 L0,28 Z " fill="#030303" transform="translate(0,0)"/>
<path d="M0,0 L8,0 L7,5 L4,6 L5,8 L5,14 L1,19 L-7,20 L-11,17 L-10,14 L-8,14 L-7,16 L-1,16 L2,12 L3,9 L-3,9 L-3,7 L3,4 L-2,5 L-5,6 L-3,2 Z " fill="#DCDCDC" transform="translate(14,5)"/>
<path d="M0,0 L3,0 L3,2 L5,2 L5,5 L-1,4 L-5,6 L-3,2 Z " fill="#C1C1C1" transform="translate(14,5)"/>
<path d="M0,0 L5,0 L1,4 L-2,3 Z " fill="#191919" transform="translate(13,8)"/>
</svg>
