<?xml version="1.0" encoding="UTF-8"?>
<svg version="1.1" xmlns="http://www.w3.org/2000/svg" width="28" height="28">
<path d="M0,0 L28,0 L28,28 L0,28 Z " fill="#010101" transform="translate(0,0)"/>
<path d="M0,0 L6,0 L8,2 L7,7 L12,10 L13,12 L13,19 L11,20 L4,20 L0,17 L1,14 L1,16 L10,17 L9,12 L-1,10 L0,7 L5,6 L5,2 L-4,4 Z " fill="#E4E4E4" transform="translate(9,5)"/>
<path d="M0,0 L1,2 L9,4 L8,6 L2,5 L0,3 Z " fill="#CCCCCC" transform="translate(9,19)"/>
<path d="M0,0 L4,1 L3,4 L-6,2 L-6,1 Z " fill="#B4B4B4" transform="translate(17,14)"/>
</svg>
