<?xml version="1.0" encoding="UTF-8"?>
<svg version="1.1" xmlns="http://www.w3.org/2000/svg" width="28" height="28">
<path d="M0,0 L28,0 L28,28 L0,28 Z " fill="#030303" transform="translate(0,0)"/>
<path d="M0,0 L5,0 L6,1 L6,6 L3,10 L5,14 L3,18 L-1,20 L-6,19 L-8,17 L-8,13 L-1,13 L-1,11 L-3,11 L-3,9 L2,7 L3,3 L-1,5 L-4,5 L-4,2 Z " fill="#EFEFEF" transform="translate(15,4)"/>
<path d="M0,0 L2,1 L3,4 L5,4 L4,7 L0,9 L-5,8 L-7,6 L-7,2 L0,2 Z " fill="#E1E1E1" transform="translate(14,15)"/>
<path d="M0,0 L7,1 L6,4 L1,6 L1,4 L-2,3 L-2,1 Z " fill="#7B7B7B" transform="translate(12,18)"/>
<path d="M0,0 L4,2 L3,5 L3,3 L-1,5 L-4,5 L-4,2 Z " fill="#CDCDCD" transform="translate(15,4)"/>
</svg>
