<?xml version="1.0" encoding="UTF-8"?>
<svg version="1.1" xmlns="http://www.w3.org/2000/svg" width="28" height="28">
<path d="M0,0 L28,0 L28,28 L0,28 Z " fill="#010101" transform="translate(0,0)"/>
<path d="M0,0 L5,1 L7,2 L7,7 L4,10 L3,17 L-3,20 L-9,20 L-12,18 L-11,14 L-8,16 L-1,16 L1,12 L-4,13 L-4,10 L3,7 L3,5 L-4,4 L-4,2 Z " fill="#E2E2E2" transform="translate(15,4)"/>
<path d="M0,0 L3,2 L9,3 L5,6 L0,5 L-1,1 Z " fill="#BCBCBC" transform="translate(4,18)"/>
<path d="M0,0 L0,3 L-4,5 L-8,4 L-8,3 L-2,1 Z " fill="#FBFBFB" transform="translate(16,19)"/>
</svg>
