<?xml version="1.0" encoding="UTF-8"?>
<svg version="1.1" xmlns="http://www.w3.org/2000/svg" width="28" height="28">
<path d="M0,0 L28,0 L28,28 L0,28 Z " fill="#030303" transform="translate(0,0)"/>
<path d="M0,0 L7,0 L10,2 L9,9 L10,10 L10,18 L4,20 L-2,20 L-2,16 L9,15 L8,11 L1,11 L0,8 L7,4 L0,3 Z " fill="#E2E2E2" transform="translate(10,5)"/>
<path d="M0,0 L3,3 L3,11 L-3,13 L-9,13 L-9,9 L2,8 L0,3 Z " fill="#B3B3B3" transform="translate(17,12)"/>
<path d="M0,0 L8,0 L8,2 L6,3 L0,3 Z " fill="#E2E2E2" transform="translate(8,22)"/>
</svg>
