<?xml version="1.0" encoding="UTF-8"?>
<svg version="1.1" xmlns="http://www.w3.org/2000/svg" width="28" height="28">
<path d="M0,0 L28,0 L28,28 L0,28 Z " fill="#040404" transform="translate(0,0)"/>
<path d="M0,0 L2,0 L3,7 L-1,11 L-3,12 L-9,12 L-14,9 L-13,4 L-11,4 L-10,8 L-3,9 L1,6 Z " fill="#C7C7C7" transform="translate(17,13)"/>
<path d="M0,0 L9,0 L10,5 L7,7 L-1,7 L3,5 L8,5 L8,2 L6,2 L6,4 L-1,4 Z " fill="#E9E9E9" transform="translate(13,5)"/>
<path d="M0,0 L2,1 L1,6 L-1,7 L-9,7 L-5,5 L0,5 L-1,1 Z " fill="#D0D0D0" transform="translate(21,5)"/>
</svg>
