<?xml version="1.0" encoding="UTF-8"?>
<svg version="1.1" xmlns="http://www.w3.org/2000/svg" width="28" height="28">
<path d="M0,0 L28,0 L28,28 L0,28 Z " fill="#040404" transform="translate(0,0)"/>
<path d="M0,0 L8,0 L6,4 L-4,10 L7,10 L10,12 L9,16 L2,20 L-7,20 L-9,19 L-9,17 L0,17 L6,15 L7,12 L-8,14 L-7,10 L-2,6 L3,3 L-5,5 L-9,4 Z " fill="#CECECE" transform="translate(15,4)"/>
<path d="M0,0 L1,2 L11,2 L7,4 L-3,6 L-2,2 Z " fill="#EAEAEA" transform="translate(10,12)"/>
<path d="M0,0 L4,1 L-3,5 L-5,5 L-6,2 Z " fill="#1D1D1D" transform="translate(16,6)"/>
</svg>
