<?xml version="1.0" encoding="UTF-8"?>
<svg version="1.1" xmlns="http://www.w3.org/2000/svg" width="28" height="28">
<path d="M0,0 L28,0 L28,28 L0,28 Z " fill="#040404" transform="translate(0,0)"/>
<path d="M0,0 L5,0 L6,6 L5,10 L-1,10 L-1,7 L2,6 L3,3 L-1,3 L-2,5 L-2,1 Z " fill="#B9B9B9" transform="translate(11,4)"/>
<path d="M0,0 L3,1 L2,6 L0,6 L0,8 L-8,9 L-11,8 L-10,5 L-3,6 L0,4 Z " fill="#C7C7C7" transform="translate(19,15)"/>
<path d="M0,0 L1,0 L1,7 L-5,7 L-5,4 L0,3 Z " fill="#EEEEEE" transform="translate(15,7)"/>
</svg>
