<?xml version="1.0" encoding="UTF-8"?>
<svg version="1.1" xmlns="http://www.w3.org/2000/svg" width="28" height="28">
<path d="M0,0 L28,0 L28,28 L0,28 Z " fill="#030303" transform="translate(0,0)"/>
<path d="M0,0 L4,2 L3,7 L2,8 L-5,8 L-10,6 L-16,5 L-16,3 L-9,2 L-5,4 L1,5 Z " fill="#D8D8D8" transform="translate(18,15)"/>
<path d="M0,0 L9,0 L12,2 L11,6 L10,10 L3,9 L4,6 L9,5 L8,3 L0,2 Z " fill="#DDDDDD" transform="translate(8,5)"/>
<path d="M0,0 L4,2 L3,7 L2,8 L-5,8 L-1,5 L1,5 Z " fill="#BEBEBE" transform="translate(18,15)"/>
</svg>
