<?xml version="1.0" encoding="UTF-8"?>
<svg version="1.1" xmlns="http://www.w3.org/2000/svg" width="28" height="28">
<path d="M0,0 L28,0 L28,28 L0,28 Z " fill="#030303" transform="translate(0,0)"/>
<path d="M0,0 L8,0 L9,5 L1,12 L0,15 L4,15 L4,19 L1,20 L-6,20 L-6,16 L-3,17 L1,18 L1,16 L-2,16 L-1,11 L6,5 L7,2 L2,2 L2,4 L0,4 Z " fill="#DBDBDB" transform="translate(13,4)"/>
<path d="M0,0 L3,1 L7,4 L0,4 Z " fill="#AAAAAA" transform="translate(7,20)"/>
<path d="M0,0 L6,0 L7,2 L2,2 L2,4 L0,4 Z " fill="#B3B3B3" transform="translate(13,4)"/>
</svg>
