<?xml version="1.0" encoding="UTF-8"?>
<svg version="1.1" xmlns="http://www.w3.org/2000/svg" width="28" height="28">
<path d="M0,0 L28,0 L28,28 L0,28 Z " fill="#020202" transform="translate(0,0)"/>
<path d="M0,0 L5,1 L4,7 L2,9 L1,16 L-3,18 L-12,18 L-15,15 L-14,12 L-12,12 L-11,15 L-3,15 L-1,12 L-5,12 L-5,10 L1,6 L3,2 L-3,5 L-5,5 L-4,2 Z " fill="#D1D1D1" transform="translate(17,5)"/>
<path d="M0,0 L2,0 L3,3 L11,5 L11,6 L2,6 L-1,3 Z " fill="#AAAAAA" transform="translate(3,17)"/>
<path d="M0,0 L3,0 L3,6 L1,8 L-4,8 L0,6 L2,3 L-2,3 L-2,1 Z " fill="#E0E0E0" transform="translate(14,14)"/>
<path d="M0,0 L3,1 L1,3 L0,10 L-2,9 L-2,2 Z " fill="#A2A2A2" transform="translate(18,11)"/>
</svg>
