<?xml version="1.0" encoding="UTF-8"?>
<svg version="1.1" xmlns="http://www.w3.org/2000/svg" width="28" height="28">
<path d="M0,0 L28,0 L28,28 L0,28 Z " fill="#030303" transform="translate(0,0)"/>
<path d="M0,0 L10,1 L9,6 L5,8 L6,19 L3,20 L-2,19 L-2,17 L3,17 L1,13 L2,8 L6,3 L1,3 Z " fill="#DFDFDF" transform="translate(10,5)"/>
<path d="M0,0 L2,0 L2,3 L-1,4 L-6,3 L-6,1 Z " fill="#F0F0F0" transform="translate(14,21)"/>
<path d="M0,0 L5,0 L5,2 L7,2 L6,5 L6,3 L1,3 Z " fill="#BDBDBD" transform="translate(10,5)"/>
</svg>
