<?xml version="1.0" encoding="UTF-8"?>
<svg version="1.1" xmlns="http://www.w3.org/2000/svg" width="28" height="28">
<path d="M0,0 L28,0 L28,28 L0,28 Z " fill="#030303" transform="translate(0,0)"/>
<path d="M0,0 L10,2 L9,5 L0,9 L8,12 L7,17 L3,20 L0,19 L5,16 L6,13 L-3,11 L-4,8 L1,5 L4,5 L4,3 L0,2 Z " fill="#C3C3C3" transform="translate(13,5)"/>
<path d="M0,0 L10,2 L9,5 L5,5 L5,3 L0,2 Z " fill="#EAEAEA" transform="translate(13,5)"/>
<path d="M0,0 L6,2 L8,3 L8,5 L2,3 L0,2 Z " fill="#C3C3C3" transform="translate(3,20)"/>
</svg>
