<?xml version="1.0" encoding="UTF-8"?>
<svg version="1.1" xmlns="http://www.w3.org/2000/svg" width="28" height="28">
<path d="M0,0 L28,0 L28,28 L0,28 Z " fill="#030303" transform="translate(0,0)"/>
<path d="M0,0 L6,0 L7,1 L7,8 L8,9 L8,16 L2,20 L-3,19 L-3,17 L3,17 L5,15 L6,9 L-1,11 L0,8 L4,5 L5,2 L-1,4 L-4,4 Z " fill="#E1E1E1" transform="translate(11,5)"/>
<path d="M0,0 L1,3 L-3,5 L-8,4 L-8,2 L-2,2 Z " fill="#D1D1D1" transform="translate(16,20)"/>
<path d="M0,0 L3,1 L1,3 L-3,6 L-5,6 L-4,3 Z " fill="#C6C6C6" transform="translate(15,10)"/>
</svg>
