<?xml version="1.0" encoding="UTF-8"?>
<svg version="1.1" xmlns="http://www.w3.org/2000/svg" width="28" height="28">
<path d="M0,0 L28,0 L28,28 L0,28 Z " fill="#040404" transform="translate(0,0)"/>
<path d="M0,0 L8,0 L10,2 L10,7 L15,10 L16,11 L16,16 L13,19 L10,20 L3,20 L-1,18 L-1,16 L11,16 L13,15 L12,11 L6,10 L0,10 L1,7 L7,5 L8,3 L0,3 Z " fill="#EDEDED" transform="translate(7,4)"/>
<path d="M0,0 L12,1 L11,4 L4,4 L0,2 Z " fill="#C8C8C8" transform="translate(6,20)"/>
<path d="M0,0 L8,0 L7,3 L0,3 Z " fill="#CDCDCD" transform="translate(7,4)"/>
</svg>
