<?xml version="1.0" encoding="UTF-8"?>
<svg version="1.1" xmlns="http://www.w3.org/2000/svg" width="28" height="28">
<path d="M0,0 L28,0 L28,28 L0,28 Z " fill="#020202" transform="translate(0,0)"/>
<path d="M0,0 L2,0 L1,4 L-1,4 L2,9 L5,12 L5,17 L2,19 L-3,19 L-3,16 L3,16 L1,11 L-3,8 L-2,3 Z " fill="#D9D9D9" transform="translate(15,6)"/>
<path d="M0,0 L2,4 L-1,6 L-6,6 L-6,3 L0,3 Z " fill="#BBBBBB" transform="translate(18,19)"/>
<path d="M0,0 L9,0 L6,2 L2,3 L0,2 Z " fill="#B1B1B1" transform="translate(6,5)"/>
</svg>
