<?xml version="1.0" encoding="UTF-8"?>
<svg version="1.1" xmlns="http://www.w3.org/2000/svg" width="28" height="28">
<path d="M0,0 L28,0 L28,28 L0,28 Z " fill="#010101" transform="translate(0,0)"/>
<path d="M0,0 L7,1 L9,3 L10,16 L7,19 L0,20 L-4,18 L-3,13 L-1,13 L1,16 L4,16 L6,11 L4,12 L-2,12 L-1,8 L5,7 L2,4 L0,3 L0,5 L-4,4 L-3,1 Z " fill="#E8E8E8" transform="translate(11,4)"/>
<path d="M0,0 L2,0 L1,5 L-3,6 L-5,4 L-5,1 Z " fill="#242424" transform="translate(15,15)"/>
<path d="M0,0 L5,2 L5,4 L0,5 L-1,2 Z " fill="#202020" transform="translate(11,7)"/>
</svg>
