<?xml version="1.0" encoding="UTF-8"?>
<svg version="1.1" xmlns="http://www.w3.org/2000/svg" width="28" height="28">
<path d="M0,0 L28,0 L28,28 L0,28 Z " fill="#020202" transform="translate(0,0)"/>
<path d="M0,0 L9,1 L12,3 L11,10 L12,11 L12,19 L11,20 L-5,20 L-5,17 L7,17 L6,13 L4,14 L-2,14 L-1,9 L6,8 L6,5 L-3,6 L-4,3 Z " fill="#ECECEC" transform="translate(10,4)"/>
<path d="M0,0 L2,1 L1,6 L-10,5 L-7,4 L-7,2 Z " fill="#1D1D1D" transform="translate(16,16)"/>
<path d="M0,0 L5,1 L3,2 L3,4 L-2,4 L-2,1 Z " fill="#222222" transform="translate(13,8)"/>
</svg>
