<?xml version="1.0" encoding="UTF-8"?>
<svg version="1.1" xmlns="http://www.w3.org/2000/svg" width="28" height="28">
<path d="M0,0 L28,0 L28,28 L0,28 Z " fill="#030303" transform="translate(0,0)"/>
<path d="M0,0 L5,1 L4,5 L2,8 L4,12 L0,17 L-7,20 L-12,20 L-14,16 L-9,14 L-9,16 L-5,15 L-1,13 L0,10 L-7,10 L-7,7 L1,5 L1,3 L-4,3 L-4,1 Z " fill="#D3D3D3" transform="translate(17,4)"/>
<path d="M0,0 L1,3 L-3,6 L-6,5 Z " fill="#F2F2F2" transform="translate(18,16)"/>
<path d="M0,0 L5,1 L5,4 L2,4 L2,2 L-2,1 Z " fill="#F8F8F8" transform="translate(17,4)"/>
</svg>
