<?xml version="1.0" encoding="UTF-8"?>
<svg version="1.1" xmlns="http://www.w3.org/2000/svg" width="28" height="28">
<path d="M0,0 L28,0 L28,28 L0,28 Z " fill="#030303" transform="translate(0,0)"/>
<path d="M0,0 L5,1 L8,3 L6,9 L11,10 L13,14 L12,18 L9,20 L1,20 L-5,17 L-5,14 L-1,14 L-1,16 L10,17 L8,12 L-1,10 L-1,8 L4,5 L5,3 L-1,5 L-4,6 L-3,2 Z " fill="#E8E8E8" transform="translate(11,4)"/>
<path d="M0,0 L4,0 L4,2 L13,3 L14,6 L6,6 L0,3 Z " fill="#CFCFCF" transform="translate(6,18)"/>
<path d="M0,0 L5,0 L3,4 L-1,5 L-4,3 Z " fill="#343434" transform="translate(11,7)"/>
</svg>
