<?xml version="1.0" encoding="UTF-8"?>
<svg version="1.1" xmlns="http://www.w3.org/2000/svg" width="28" height="28">
<path d="M0,0 L28,0 L28,28 L0,28 Z " fill="#030303" transform="translate(0,0)"/>
<path d="M0,0 L7,0 L9,4 L7,8 L10,8 L13,12 L13,18 L11,18 L11,20 L-6,20 L-5,17 L7,18 L9,17 L9,12 L-3,12 L-4,10 L-1,7 L4,4 L-7,5 L-6,2 Z " fill="#EAEAEA" transform="translate(11,5)"/>
<path d="M0,0 L4,2 L5,3 L5,9 L2,8 L1,3 L-7,2 L-7,1 Z " fill="#C6C6C6" transform="translate(19,14)"/>
<path d="M0,0 L6,2 L5,4 L-7,5 L-6,2 Z " fill="#CACACA" transform="translate(11,5)"/>
</svg>
