<?xml version="1.0" encoding="UTF-8"?>
<svg version="1.1" xmlns="http://www.w3.org/2000/svg" width="28" height="28">
<path d="M0,0 L28,0 L28,28 L0,28 Z " fill="#030303" transform="translate(0,0)"/>
<path d="M0,0 L9,0 L11,1 L10,5 L6,8 L11,11 L12,16 L8,19 L0,20 L-2,19 L-2,16 L5,16 L8,15 L8,13 L2,9 L2,7 L8,3 L-1,2 Z " fill="#DBDBDB" transform="translate(9,5)"/>
<path d="M0,0 L9,0 L11,1 L10,5 L8,7 L5,6 L8,3 L-1,2 Z " fill="#E8E8E8" transform="translate(9,5)"/>
<path d="M0,0 L10,0 L12,2 L7,4 L0,3 Z " fill="#C5C5C5" transform="translate(7,21)"/>
</svg>
