<?xml version="1.0" encoding="UTF-8"?>
<svg version="1.1" xmlns="http://www.w3.org/2000/svg" width="28" height="28">
<path d="M0,0 L28,0 L28,28 L0,28 Z " fill="#030303" transform="translate(0,0)"/>
<path d="M0,0 L5,1 L5,16 L2,20 L-4,20 L-6,16 L-2,17 L2,18 L3,11 L-2,12 L-2,8 L3,8 L3,3 L0,5 L-3,5 L-1,1 Z " fill="#D2D2D2" transform="translate(13,5)"/>
<path d="M0,0 L5,1 L4,10 L1,10 L1,8 L3,8 L3,3 L0,5 L-3,5 L-1,1 Z " fill="#E0E0E0" transform="translate(13,5)"/>
<path d="M0,0 L4,1 L8,3 L8,4 L2,4 Z " fill="#BBBBBB" transform="translate(7,21)"/>
</svg>
