<?xml version="1.0" encoding="UTF-8"?>
<svg version="1.1" xmlns="http://www.w3.org/2000/svg" width="28" height="28">
<path d="M0,0 L28,0 L28,28 L0,28 Z " fill="#040404" transform="translate(0,0)"/>
<path d="M0,0 L8,0 L10,2 L9,8 L12,9 L13,16 L9,19 L2,20 L-2,19 L-2,16 L7,16 L9,15 L10,11 L0,11 L0,8 L4,8 L5,5 L7,5 L7,3 L-3,4 L-2,1 Z " fill="#F0F0F0" transform="translate(9,5)"/>
<path d="M0,0 L4,1 L7,3 L-3,4 L-2,1 Z " fill="#CECECE" transform="translate(9,5)"/>
<path d="M0,0 L4,2 L5,9 L2,6 L2,4 L0,3 Z " fill="#D2D2D2" transform="translate(17,12)"/>
</svg>
