<?xml version="1.0" encoding="UTF-8"?>
<svg version="1.1" xmlns="http://www.w3.org/2000/svg" width="28" height="28">
<path d="M0,0 L28,0 L28,28 L0,28 Z " fill="#030303" transform="translate(0,0)"/>
<path d="M0,0 L8,0 L11,4 L12,7 L16,10 L16,15 L9,18 L-2,18 L-2,15 L7,15 L13,14 L11,10 L5,13 L0,13 L1,9 L5,7 L9,7 L7,3 L0,3 L-4,5 L-3,1 Z " fill="#E1E1E1" transform="translate(8,5)"/>
<path d="M0,0 L8,0 L10,3 L7,3 L0,3 L-4,5 L-3,1 Z " fill="#C6C6C6" transform="translate(8,5)"/>
<path d="M0,0 L2,1 L0,6 L-5,6 L-4,2 Z " fill="#C4C4C4" transform="translate(13,12)"/>
</svg>
