<?xml version="1.0" encoding="UTF-8"?>
<svg version="1.1" xmlns="http://www.w3.org/2000/svg" width="28" height="28">
<path d="M0,0 L28,0 L28,28 L0,28 Z " fill="#050505" transform="translate(0,0)"/>
<path d="M0,0 L7,0 L9,1 L8,7 L6,9 L8,11 L7,16 L3,19 L0,20 L-7,20 L-10,17 L-8,13 L-4,14 L-7,15 L-6,17 L0,17 L4,15 L5,12 L2,11 L-3,12 L-3,9 L4,6 L6,3 L1,2 L0,4 Z " fill="#E5E5E5" transform="translate(13,4)"/>
<path d="M0,0 L4,1 L1,2 L4,5 L4,7 L0,6 L-2,2 Z " fill="#C5C5C5" transform="translate(5,17)"/>
</svg>
