<?xml version="1.0" encoding="UTF-8"?>
<svg version="1.1" xmlns="http://www.w3.org/2000/svg" width="28" height="28">
<path d="M0,0 L28,0 L28,28 L0,28 Z " fill="#020202" transform="translate(0,0)"/>
<path d="M0,0 L2,0 L2,2 L12,2 L13,4 L3,4 L3,10 L8,10 L11,13 L10,18 L8,20 L3,20 L3,17 L7,17 L8,12 L3,12 L3,15 L0,15 Z " fill="#D5D5D5" transform="translate(9,4)"/>
<path d="M0,0 L2,0 L2,2 L12,2 L13,4 L3,4 L4,11 L0,10 Z " fill="#C4C4C4" transform="translate(9,4)"/>
<path d="M0,0 L0,3 L-1,4 L-6,4 L-6,1 Z " fill="#EEEEEE" transform="translate(18,20)"/>
</svg>
