<?xml version="1.0" encoding="UTF-8"?>
<svg version="1.1" xmlns="http://www.w3.org/2000/svg" width="28" height="28">
<path d="M0,0 L28,0 L28,28 L0,28 Z " fill="#050505" transform="translate(0,0)"/>
<path d="M0,0 L10,1 L10,3 L1,3 L1,8 L8,7 L11,11 L10,16 L4,20 L-2,19 L-3,14 L-2,13 L-2,1 Z " fill="#DDDDDD" transform="translate(11,5)"/>
<path d="M0,0 L4,2 L4,6 L-1,9 L-5,9 L-4,3 Z " fill="#0E0E0E" transform="translate(15,14)"/>
<path d="M0,0 L3,1 L1,8 L-1,7 L-2,1 Z " fill="#F5F5F5" transform="translate(11,5)"/>
</svg>
