<?xml version="1.0" encoding="UTF-8"?>
<svg version="1.1" xmlns="http://www.w3.org/2000/svg" width="28" height="28">
<path d="M0,0 L28,0 L28,28 L0,28 Z " fill="#040404" transform="translate(0,0)"/>
<path d="M0,0 L5,0 L4,4 L-4,5 L3,9 L3,16 L-1,19 L-10,20 L-12,18 L-12,15 L-9,15 L-9,17 L-1,15 L-1,10 L-12,10 L-11,6 L-9,2 Z " fill="#E7E7E7" transform="translate(18,5)"/>
<path d="M0,0 L3,0 L3,2 L8,2 L7,5 L2,5 L0,3 Z " fill="#D3D3D3" transform="translate(6,20)"/>
<path d="M0,0 L5,0 L4,4 L-3,4 L0,1 Z " fill="#C7C7C7" transform="translate(18,5)"/>
</svg>
