<?xml version="1.0" encoding="UTF-8"?>
<svg version="1.1" xmlns="http://www.w3.org/2000/svg" width="28" height="28">
<path d="M0,0 L28,0 L28,28 L0,28 Z " fill="#030303" transform="translate(0,0)"/>
<path d="M0,0 L5,0 L4,2 L-5,4 L-6,6 L-3,8 L-4,13 L-8,16 L-15,15 L-15,12 L-6,12 L-5,8 L-12,9 L-10,5 L-5,1 Z " fill="#E3E3E3" transform="translate(21,7)"/>
<path d="M0,0 L5,0 L4,2 L-5,4 L-10,9 L-12,9 L-10,5 L-5,1 Z " fill="#E5E5E5" transform="translate(21,7)"/>
<path d="M0,0 L8,1 L7,4 L0,3 Z " fill="#AFAFAF" transform="translate(6,19)"/>
</svg>
