<?xml version="1.0" encoding="UTF-8"?>
<svg version="1.1" xmlns="http://www.w3.org/2000/svg" width="28" height="28">
<path d="M0,0 L28,0 L28,28 L0,28 Z " fill="#020202" transform="translate(0,0)"/>
<path d="M0,0 L4,1 L3,3 L-9,5 L-10,6 L-5,8 L-5,13 L-11,18 L-15,16 L-16,11 L-13,12 L-12,14 L-10,14 L-8,9 L-15,10 L-12,1 Z " fill="#E6E6E6" transform="translate(23,7)"/>
<path d="M0,0 L2,0 L1,5 L-3,5 L-4,1 Z " fill="#1B1B1B" transform="translate(13,16)"/>
<path d="M0,0 L5,0 L5,1 L12,2 L12,3 L1,4 L-1,5 Z " fill="#CACACA" transform="translate(11,8)"/>
</svg>
