<?xml version="1.0" encoding="UTF-8"?>
<svg version="1.1" xmlns="http://www.w3.org/2000/svg" width="28" height="28">
<path d="M0,0 L28,0 L28,28 L0,28 Z " fill="#040404" transform="translate(0,0)"/>
<path d="M0,0 L3,0 L3,6 L10,7 L11,13 L6,17 L-2,17 L-5,16 L-5,13 L8,13 L7,9 L-1,8 Z " fill="#E8E8E8" transform="translate(10,6)"/>
<path d="M0,0 L3,0 L3,6 L10,7 L9,12 L7,9 L-1,8 Z " fill="#D2D2D2" transform="translate(10,6)"/>
<path d="M0,0 L4,0 L4,3 L-4,4 L-3,1 Z " fill="#DEDEDE" transform="translate(20,3)"/>
</svg>
