<?xml version="1.0" encoding="UTF-8"?>
<svg version="1.1" xmlns="http://www.w3.org/2000/svg" width="28" height="28">
<path d="M0,0 L28,0 L28,28 L0,28 Z " fill="#030303" transform="translate(0,0)"/>
<path d="M0,0 L2,1 L3,3 L8,0 L12,0 L12,2 L2,7 L5,9 L4,14 L2,14 L1,17 L-6,18 L-8,14 L-2,14 L1,12 L1,10 L-5,10 L-5,7 Z " fill="#E6E6E6" transform="translate(14,6)"/>
<path d="M0,0 L5,2 L4,7 L2,7 L1,3 L-2,1 Z " fill="#C5C5C5" transform="translate(14,13)"/>
<path d="M0,0 L4,0 L4,2 L-3,5 L-4,2 Z " fill="#CCCCCC" transform="translate(22,6)"/>
</svg>
