<?xml version="1.0" encoding="UTF-8"?>
<svg version="1.1" xmlns="http://www.w3.org/2000/svg" width="28" height="28">
<path d="M0,0 L28,0 L28,28 L0,28 Z " fill="#030303" transform="translate(0,0)"/>
<path d="M0,0 L2,0 L1,4 L6,4 L8,6 L7,12 L3,15 L-4,14 L-5,10 L-2,10 L-2,12 L3,11 L5,7 L-3,7 L-2,2 Z " fill="#DADADA" transform="translate(11,9)"/>
<path d="M0,0 L3,0 L2,4 L-3,7 L-7,7 L-6,4 L-1,1 Z " fill="#DFDFDF" transform="translate(22,4)"/>
<path d="M0,0 L2,0 L2,4 L5,6 L-3,6 L-1,1 Z " fill="#F3F3F3" transform="translate(11,9)"/>
<path d="M0,0 L3,0 L3,2 L7,3 L4,3 L3,5 L0,3 Z " fill="#CBCBCB" transform="translate(6,19)"/>
</svg>
