<?xml version="1.0" encoding="UTF-8"?>
<svg version="1.1" xmlns="http://www.w3.org/2000/svg" width="28" height="28">
<path d="M0,0 L28,0 L28,28 L0,28 Z " fill="#020202" transform="translate(0,0)"/>
<path d="M0,0 L7,0 L7,3 L-5,5 L-6,8 L-2,10 L3,13 L3,18 L1,20 L-4,19 L-8,16 L-8,11 L-9,10 L-9,4 L-7,1 Z " fill="#D5D5D5" transform="translate(17,5)"/>
<path d="M0,0 L10,0 L11,1 L11,6 L9,8 L4,7 L0,4 Z " fill="#C5C5C5" transform="translate(9,17)"/>
<path d="M0,0 L1,4 L5,6 L7,8 L5,9 L-2,6 L-1,1 Z " fill="#F1F1F1" transform="translate(10,9)"/>
</svg>
