<?xml version="1.0" encoding="UTF-8"?>
<svg version="1.1" xmlns="http://www.w3.org/2000/svg" width="28" height="28">
<path d="M0,0 L28,0 L28,28 L0,28 Z " fill="#010101" transform="translate(0,0)"/>
<path d="M0,0 L2,0 L2,4 L6,8 L4,13 L-1,16 L-7,16 L-8,12 L-6,11 L-6,13 L1,11 L3,8 L-3,8 L-2,4 Z " fill="#DEDEDE" transform="translate(13,7)"/>
<path d="M0,0 L1,4 L-3,6 L-9,6 L-10,2 L-8,1 L-8,3 L-1,1 Z " fill="#C7C7C7" transform="translate(15,17)"/>
<path d="M0,0 L8,0 L8,2 L-1,3 Z " fill="#CCCCCC" transform="translate(17,5)"/>
</svg>
