<?xml version="1.0" encoding="UTF-8"?>
<svg version="1.1" xmlns="http://www.w3.org/2000/svg" width="28" height="28">
<path d="M0,0 L28,0 L28,28 L0,28 Z " fill="#020202" transform="translate(0,0)"/>
<path d="M0,0 L7,0 L11,2 L11,4 L3,4 L5,8 L5,11 L-1,15 L-8,16 L-9,13 L2,11 L2,9 L-5,9 L-5,5 L-3,1 Z " fill="#D9D9D9" transform="translate(14,7)"/>
<path d="M0,0 L2,0 L2,3 L-7,5 L-8,2 Z " fill="#CBCBCB" transform="translate(13,18)"/>
<path d="M0,0 L7,0 L10,1 L10,3 L-1,2 Z " fill="#E7E7E7" transform="translate(15,8)"/>
</svg>
