<?xml version="1.0" encoding="UTF-8"?>
<svg version="1.1" xmlns="http://www.w3.org/2000/svg" width="28" height="28">
<path d="M0,0 L28,0 L28,28 L0,28 Z " fill="#020202" transform="translate(0,0)"/>
<path d="M0,0 L3,0 L3,3 L-7,5 L-10,10 L-8,9 L-1,9 L0,13 L-5,18 L-11,20 L-11,16 L-6,15 L-4,13 L-10,13 L-15,14 L-13,9 L-9,1 Z " fill="#CECECE" transform="translate(21,5)"/>
<path d="M0,0 L7,0 L2,5 L0,5 L0,2 L-2,1 Z " fill="#1D1D1D" transform="translate(11,17)"/>
<path d="M0,0 L3,1 L0,4 L-5,5 L-5,1 Z " fill="#E4E4E4" transform="translate(15,20)"/>
<path d="M0,0 L5,1 L2,3 L-3,4 L-2,1 Z " fill="#EBEBEB" transform="translate(9,15)"/>
</svg>
