<?xml version="1.0" encoding="UTF-8"?>
<svg version="1.1" xmlns="http://www.w3.org/2000/svg" width="28" height="28">
<path d="M0,0 L28,0 L28,28 L0,28 Z " fill="#050505" transform="translate(0,0)"/>
<path d="M0,0 L11,0 L9,3 L3,2 L4,5 L13,6 L18,10 L17,16 L14,18 L2,18 L-2,16 L-2,12 L2,11 L1,15 L15,15 L15,10 L2,8 Z " fill="#CFCFCF" transform="translate(7,5)"/>
<path d="M0,0 L2,1 L1,4 L9,5 L9,6 L2,7 L-2,5 L-2,1 Z " fill="#B2B2B2" transform="translate(7,16)"/>
<path d="M0,0 L1,3 L-1,4 L-12,4 L-12,3 Z " fill="#E6E6E6" transform="translate(22,19)"/>
</svg>
