<?xml version="1.0" encoding="UTF-8"?>
<svg version="1.1" xmlns="http://www.w3.org/2000/svg" width="28" height="28">
<path d="M0,0 L28,0 L28,28 L0,28 Z " fill="#040404" transform="translate(0,0)"/>
<path d="M0,0 L7,0 L6,3 L-5,5 L2,6 L3,10 L-2,15 L-4,16 L-13,16 L-13,14 L-3,12 L-1,10 L-10,9 L-10,5 L-5,1 Z " fill="#E5E5E5" transform="translate(18,7)"/>
<path d="M0,0 L1,3 L-4,8 L-6,9 L-15,9 L-15,7 L-5,5 L-3,3 L-12,2 L-12,1 L-1,1 Z " fill="#BCBCBC" transform="translate(20,14)"/>
<path d="M0,0 L3,0 L2,3 L-7,3 L-7,1 Z " fill="#E7E7E7" transform="translate(12,20)"/>
</svg>
