<?xml version="1.0" encoding="UTF-8"?>
<svg version="1.1" xmlns="http://www.w3.org/2000/svg" width="28" height="28">
<path d="M0,0 L28,0 L28,28 L0,28 Z " fill="#020202" transform="translate(0,0)"/>
<path d="M0,0 L10,0 L9,2 L-2,4 L-3,9 L-1,12 L-1,17 L-3,20 L-7,19 L-7,16 L-4,16 L-6,10 L-6,4 Z " fill="#E1E1E1" transform="translate(16,6)"/>
<path d="M0,0 L10,0 L9,2 L-2,4 L-4,9 L-5,9 L-5,3 Z " fill="#F0F0F0" transform="translate(16,6)"/>
<path d="M0,0 L1,0 L1,5 L4,6 L3,11 L1,8 L0,6 Z " fill="#B9B9B9" transform="translate(10,10)"/>
</svg>
