<?xml version="1.0" encoding="UTF-8"?>
<svg version="1.1" xmlns="http://www.w3.org/2000/svg" width="28" height="28">
<path d="M0,0 L28,0 L28,28 L0,28 Z " fill="#040404" transform="translate(0,0)"/>
<path d="M0,0 L16,0 L15,2 L1,4 L11,8 L14,11 L14,17 L9,20 L0,18 L0,16 L10,16 L10,11 L3,8 L-3,6 L-2,2 Z " fill="#E9E9E9" transform="translate(8,6)"/>
<path d="M0,0 L1,3 L3,3 L2,6 L-2,8 L-11,6 L-11,4 L-1,4 Z " fill="#CACACA" transform="translate(19,18)"/>
<path d="M0,0 L11,0 L10,2 L-3,3 L-3,1 Z " fill="#F7F7F7" transform="translate(13,6)"/>
<path d="M0,0 L5,0 L2,1 L1,4 L-1,4 L-3,6 L-2,2 Z " fill="#CDCDCD" transform="translate(8,6)"/>
</svg>
