<?xml version="1.0" encoding="UTF-8"?>
<svg version="1.1" xmlns="http://www.w3.org/2000/svg" width="28" height="28">
<path d="M0,0 L28,0 L28,28 L0,28 Z " fill="#030303" transform="translate(0,0)"/>
<path d="M0,0 L4,1 L4,5 L2,5 L2,3 L-6,3 L-6,6 L3,7 L8,11 L6,16 L0,18 L-7,17 L-12,15 L-11,12 L-7,14 L3,14 L5,12 L-1,9 L-10,9 L-8,2 L-7,1 Z " fill="#D0D0D0" transform="translate(16,5)"/>
<path d="M0,0 L4,1 L4,5 L2,5 L2,3 L-6,3 L-6,6 L-1,6 L-1,7 L-7,8 L-10,9 L-8,2 L-7,1 Z " fill="#B7B7B7" transform="translate(16,5)"/>
</svg>
