<?xml version="1.0" encoding="UTF-8"?>
<svg version="1.1" xmlns="http://www.w3.org/2000/svg" width="28" height="28">
<path d="M0,0 L28,0 L28,28 L0,28 Z " fill="#030303" transform="translate(0,0)"/>
<path d="M0,0 L6,0 L10,2 L10,5 L3,3 L4,8 L13,10 L19,14 L17,18 L8,19 L3,15 L3,13 L7,13 L7,16 L14,15 L7,12 L1,10 L-1,4 Z " fill="#E0E0E0" transform="translate(6,4)"/>
<path d="M0,0 L6,0 L10,2 L10,5 L3,3 L2,6 L-1,4 Z " fill="#C9C9C9" transform="translate(6,4)"/>
<path d="M0,0 L4,0 L4,3 L10,3 L10,4 L3,5 L0,2 Z " fill="#BFBFBF" transform="translate(9,17)"/>
</svg>
