<?xml version="1.0" encoding="UTF-8"?>
<svg version="1.1" xmlns="http://www.w3.org/2000/svg" width="28" height="28">
<path d="M0,0 L28,0 L28,28 L0,28 Z " fill="#010101" transform="translate(0,0)"/>
<path d="M0,0 L2,0 L2,6 L4,11 L4,15 L2,16 L-6,16 L-8,15 L-7,11 L-5,12 L-5,14 L2,14 L-1,6 Z " fill="#D7D7D7" transform="translate(14,6)"/>
<path d="M0,0 L2,0 L2,6 L4,11 L4,13 L2,13 L-1,6 Z " fill="#8D8D8D" transform="translate(14,6)"/>
<path d="M0,0 L6,0 L6,2 L-4,4 Z " fill="#ABABAB" transform="translate(20,5)"/>
</svg>
