<?xml version="1.0" encoding="UTF-8"?>
<svg version="1.1" xmlns="http://www.w3.org/2000/svg" width="28" height="28">
<path d="M0,0 L28,0 L28,28 L0,28 Z " fill="#040404" transform="translate(0,0)"/>
<path d="M0,0 L1,4 L-1,8 L5,8 L7,10 L7,17 L6,19 L-1,19 L-4,17 L-4,14 L1,14 L4,15 L4,11 L-6,11 L-6,7 Z " fill="#E8E8E8" transform="translate(13,5)"/>
<path d="M0,0 L3,0 L3,3 L-1,5 L-6,5 L-5,2 Z " fill="#D9D9D9" transform="translate(21,4)"/>
<path d="M0,0 L1,4 L-2,8 L-4,8 L-7,10 L-5,6 Z " fill="#C8C8C8" transform="translate(13,5)"/>
</svg>
