<?xml version="1.0" encoding="UTF-8"?>
<svg version="1.1" xmlns="http://www.w3.org/2000/svg" width="28" height="28">
<path d="M0,0 L28,0 L28,28 L0,28 Z " fill="#020202" transform="translate(0,0)"/>
<path d="M0,0 L11,1 L10,4 L1,4 L1,8 L6,9 L8,12 L8,18 L5,20 L-2,19 L-3,15 L5,16 L6,14 L5,12 L-2,11 L-2,1 Z " fill="#DEDEDE" transform="translate(11,5)"/>
<path d="M0,0 L1,4 L-2,6 L-9,5 L-10,1 L-2,2 Z " fill="#E0E0E0" transform="translate(18,19)"/>
<path d="M0,0 L2,3 L2,5 L6,6 L-1,6 Z " fill="#B8B8B8" transform="translate(10,8)"/>
</svg>
