<?xml version="1.0" encoding="UTF-8"?>
<svg version="1.1" xmlns="http://www.w3.org/2000/svg" width="28" height="28">
<path d="M0,0 L28,0 L28,28 L0,28 Z " fill="#020202" transform="translate(0,0)"/>
<path d="M0,0 L2,0 L4,8 L2,10 L-6,10 L-6,5 L-4,4 L-4,8 L1,6 L0,5 Z " fill="#D6D6D6" transform="translate(11,12)"/>
<path d="M0,0 L3,0 L2,3 L-3,5 L-7,5 L-6,2 Z " fill="#D1D1D1" transform="translate(22,7)"/>
<path d="M0,0 L1,4 L7,5 L7,6 L-1,6 L-1,1 Z " fill="#A5A5A5" transform="translate(6,16)"/>
</svg>
