<?xml version="1.0" encoding="UTF-8"?>
<svg version="1.1" xmlns="http://www.w3.org/2000/svg" width="28" height="28">
<path d="M0,0 L28,0 L28,28 L0,28 Z " fill="#040404" transform="translate(0,0)"/>
<path d="M0,0 L14,0 L14,3 L10,5 L14,9 L14,11 L16,11 L16,17 L12,20 L4,20 L2,19 L2,16 L13,17 L11,11 L9,8 L5,9 L1,10 L0,9 Z " fill="#E5E5E5" transform="translate(7,5)"/>
<path d="M0,0 L2,0 L2,3 L-9,6 L-9,3 L-2,2 Z " fill="#9D9D9D" transform="translate(19,5)"/>
<path d="M0,0 L8,1 L10,4 L2,4 L0,3 Z " fill="#BABABA" transform="translate(9,21)"/>
<path d="M0,0 L1,3 L0,4 L-9,4 L-9,3 Z " fill="#FAFAFA" transform="translate(21,20)"/>
</svg>
