<?xml version="1.0" encoding="UTF-8"?>
<svg version="1.1" xmlns="http://www.w3.org/2000/svg" width="28" height="28">
<path d="M0,0 L28,0 L28,28 L0,28 Z " fill="#020202" transform="translate(0,0)"/>
<path d="M0,0 L6,0 L5,2 L-7,4 L-3,7 L-3,11 L-1,12 L-7,15 L-14,15 L-13,12 L-5,11 L-5,8 L-12,7 L-10,3 L-6,1 Z " fill="#D7D7D7" transform="translate(21,7)"/>
<path d="M0,0 L6,0 L5,2 L-7,4 L-9,8 L-12,7 L-10,3 L-6,1 Z " fill="#D7D7D7" transform="translate(21,7)"/>
<path d="M0,0 L6,0 L5,2 L-2,3 L-6,1 Z " fill="#ABABAB" transform="translate(21,7)"/>
</svg>
