<?xml version="1.0" encoding="UTF-8"?>
<svg version="1.1" xmlns="http://www.w3.org/2000/svg" width="28" height="28">
<path d="M0,0 L28,0 L28,28 L0,28 Z " fill="#030303" transform="translate(0,0)"/>
<path d="M0,0 L4,0 L3,3 L-7,6 L-8,8 L-3,9 L-2,14 L-6,18 L-10,20 L-15,20 L-15,17 L-7,15 L-5,11 L-13,12 L-14,9 L-9,3 Z " fill="#DDDDDD" transform="translate(21,5)"/>
<path d="M0,0 L1,2 L6,3 L7,8 L4,8 L4,5 L-1,5 Z " fill="#CACACA" transform="translate(12,11)"/>
<path d="M0,0 L3,0 L3,2 L1,2 L0,7 L-3,8 L-4,5 Z " fill="#EEEEEE" transform="translate(11,9)"/>
</svg>
