<?xml version="1.0" encoding="UTF-8"?>
<svg version="1.1" xmlns="http://www.w3.org/2000/svg" width="28" height="28">
<path d="M0,0 L28,0 L28,28 L0,28 Z " fill="#020202" transform="translate(0,0)"/>
<path d="M0,0 L4,0 L4,2 L-5,5 L-3,7 L-3,13 L-8,16 L-16,16 L-16,13 L-6,11 L-5,9 L-12,9 L-12,6 L-8,5 L-6,1 Z " fill="#DDDDDD" transform="translate(21,6)"/>
<path d="M0,0 L8,0 L8,3 L0,3 Z " fill="#B5B5B5" transform="translate(5,19)"/>
<path d="M0,0 L4,0 L4,2 L-4,3 L-4,1 Z " fill="#E3E3E3" transform="translate(21,6)"/>
</svg>
