<?xml version="1.0" encoding="UTF-8"?>
<svg version="1.1" xmlns="http://www.w3.org/2000/svg" width="28" height="28">
<path d="M0,0 L28,0 L28,28 L0,28 Z " fill="#020202" transform="translate(0,0)"/>
<path d="M0,0 L3,0 L2,3 L-9,4 L-10,6 L-6,6 L-6,11 L-11,14 L-17,13 L-17,11 L-9,10 L-8,7 L-15,7 L-11,1 Z " fill="#E9E9E9" transform="translate(23,8)"/>
<path d="M0,0 L3,0 L2,3 L-11,2 L-11,1 Z " fill="#A9A9A9" transform="translate(23,8)"/>
<path d="M0,0 L7,0 L9,2 L3,3 L0,2 Z " fill="#C3C3C3" transform="translate(6,19)"/>
</svg>
