<?xml version="1.0" encoding="UTF-8"?>
<svg version="1.1" xmlns="http://www.w3.org/2000/svg" width="28" height="28">
<path d="M0,0 L28,0 L28,28 L0,28 Z " fill="#030303" transform="translate(0,0)"/>
<path d="M0,0 L5,0 L7,2 L7,10 L5,13 L-2,14 L-6,12 L-5,9 L-3,10 L4,10 L5,9 L5,2 L-3,5 L-3,2 Z " fill="#E5E5E5" transform="translate(13,11)"/>
<path d="M0,0 L5,0 L6,3 L-2,5 L-5,7 L-3,2 Z " fill="#DDDDDD" transform="translate(14,5)"/>
<path d="M0,0 L5,0 L3,1 L3,3 L-4,5 L-5,7 L-4,3 Z " fill="#2B2B2B" transform="translate(14,8)"/>
</svg>
