<?xml version="1.0" encoding="UTF-8"?>
<svg version="1.1" xmlns="http://www.w3.org/2000/svg" width="28" height="28">
<path d="M0,0 L28,0 L28,28 L0,28 Z " fill="#030303" transform="translate(0,0)"/>
<path d="M0,0 L11,1 L12,3 L5,4 L4,8 L8,12 L8,18 L7,20 L2,19 L2,16 L6,17 L4,12 L-4,8 L-4,3 Z " fill="#A6A6A6" transform="translate(11,6)"/>
<path d="M0,0 L5,1 L9,5 L9,11 L8,13 L3,12 L3,9 L7,10 L5,5 Z " fill="#E3E3E3" transform="translate(10,13)"/>
<path d="M0,0 L10,1 L11,3 L1,4 L0,6 L-1,1 Z " fill="#E7E7E7" transform="translate(12,6)"/>
</svg>
