<?xml version="1.0" encoding="UTF-8"?>
<svg version="1.1" xmlns="http://www.w3.org/2000/svg" width="28" height="28">
<path d="M0,0 L28,0 L28,28 L0,28 Z " fill="#030303" transform="translate(0,0)"/>
<path d="M0,0 L3,1 L0,8 L3,9 L2,16 L-2,17 L-4,8 Z " fill="#B5B5B5" transform="translate(12,8)"/>
<path d="M0,0 L2,0 L1,7 L-3,8 L-3,2 L-1,4 Z " fill="#F4F4F4" transform="translate(13,17)"/>
<path d="M0,0 L3,0 L3,2 L-4,5 L-7,5 L-7,2 Z " fill="#E1E1E1" transform="translate(23,5)"/>
<path d="M0,0 L3,1 L0,8 L-3,8 L-1,2 Z " fill="#E5E5E5" transform="translate(12,8)"/>
</svg>
