<?xml version="1.0" encoding="UTF-8"?>
<svg version="1.1" xmlns="http://www.w3.org/2000/svg" width="28" height="28">
<path d="M0,0 L28,0 L28,28 L0,28 Z " fill="#030303" transform="translate(0,0)"/>
<path d="M0,0 L6,1 L6,3 L-6,6 L-5,11 L-4,12 L-4,18 L-7,20 L-12,20 L-12,18 L-6,17 L-8,12 L-10,10 L-9,5 L-3,1 Z " fill="#E2E2E2" transform="translate(19,6)"/>
<path d="M0,0 L1,4 L-2,6 L-7,6 L-7,4 L0,3 Z " fill="#EDEDED" transform="translate(14,20)"/>
<path d="M0,0 L4,5 L3,10 L1,6 L-2,3 L-1,1 Z " fill="#BFBFBF" transform="translate(11,13)"/>
</svg>
