<?xml version="1.0" encoding="UTF-8"?>
<svg version="1.1" xmlns="http://www.w3.org/2000/svg" width="28" height="28">
<path d="M0,0 L28,0 L28,28 L0,28 Z " fill="#020202" transform="translate(0,0)"/>
<path d="M0,0 L7,1 L8,4 L2,3 L2,9 L10,10 L11,18 L6,20 L0,18 L0,15 L8,16 L8,11 L0,12 L-1,10 L-1,2 Z " fill="#9F9F9F" transform="translate(10,4)"/>
<path d="M0,0 L2,2 L2,7 L-3,9 L-9,7 L-9,4 L0,6 Z " fill="#E7E7E7" transform="translate(19,15)"/>
<path d="M0,0 L7,1 L8,4 L4,3 L1,2 L1,10 L-1,10 L-1,2 Z " fill="#ECECEC" transform="translate(10,4)"/>
</svg>
