<?xml version="1.0" encoding="UTF-8"?>
<svg version="1.1" xmlns="http://www.w3.org/2000/svg" width="28" height="28">
<path d="M0,0 L28,0 L28,28 L0,28 Z " fill="#030303" transform="translate(0,0)"/>
<path d="M0,0 L16,0 L13,2 L1,3 L9,5 L11,9 L9,11 L-1,12 L-4,11 L-4,9 L9,9 L9,7 L-2,6 L-2,2 Z " fill="#D1D1D1" transform="translate(10,9)"/>
<path d="M0,0 L2,0 L0,4 L-10,5 L-13,4 L-13,2 L0,2 Z " fill="#F1F1F1" transform="translate(19,16)"/>
<path d="M0,0 L7,1 L7,3 L-2,4 L-2,1 Z " fill="#252525" transform="translate(12,15)"/>
</svg>
