<?xml version="1.0" encoding="UTF-8"?>
<svg version="1.1" xmlns="http://www.w3.org/2000/svg" width="28" height="28">
<path d="M0,0 L28,0 L28,28 L0,28 Z " fill="#030303" transform="translate(0,0)"/>
<path d="M0,0 L11,2 L9,5 L2,4 L0,8 L4,9 L9,13 L11,17 L11,20 L6,19 L0,14 L-4,9 L-2,4 Z " fill="#BABABA" transform="translate(11,5)"/>
<path d="M0,0 L11,2 L9,5 L2,4 L-3,7 L-1,3 Z " fill="#E3E3E3" transform="translate(11,5)"/>
<path d="M0,0 L5,3 L7,7 L7,10 L2,9 L1,6 L3,6 L0,2 Z " fill="#E4E4E4" transform="translate(15,15)"/>
</svg>
