<?xml version="1.0" encoding="UTF-8"?>
<svg version="1.1" xmlns="http://www.w3.org/2000/svg" width="28" height="28">
<path d="M0,0 L28,0 L28,28 L0,28 Z " fill="#050505" transform="translate(0,0)"/>
<path d="M0,0 L7,0 L6,4 L5,2 L-2,2 L-1,8 L10,8 L13,10 L13,15 L7,20 L0,20 L-5,17 L-3,1 Z " fill="#DEDEDE" transform="translate(12,4)"/>
<path d="M0,0 L7,0 L10,2 L9,7 L6,9 L-1,9 L-4,8 L-3,1 Z " fill="#0B0B0B" transform="translate(13,13)"/>
<path d="M0,0 L2,2 L0,6 L11,6 L12,8 L10,9 L3,9 L-2,6 L-1,1 Z " fill="#B2B2B2" transform="translate(9,15)"/>
</svg>
