<?xml version="1.0" encoding="UTF-8"?>
<svg version="1.1" xmlns="http://www.w3.org/2000/svg" width="28" height="28">
<path d="M0,0 L28,0 L28,28 L0,28 Z " fill="#020202" transform="translate(0,0)"/>
<path d="M0,0 L4,0 L4,3 L1,4 L-8,4 L-8,6 L-3,10 L-2,16 L-5,20 L-13,20 L-16,17 L-15,14 L-13,16 L-5,17 L-7,11 L-12,10 L-11,4 L-7,1 Z " fill="#CCCCCC" transform="translate(21,5)"/>
<path d="M0,0 L3,2 L10,3 L11,6 L3,6 L0,3 Z " fill="#BEBEBE" transform="translate(5,19)"/>
<path d="M0,0 L4,0 L4,3 L-7,3 L-7,1 Z " fill="#E1E1E1" transform="translate(21,5)"/>
</svg>
