<?xml version="1.0" encoding="UTF-8"?>
<svg version="1.1" xmlns="http://www.w3.org/2000/svg" width="28" height="28">
<path d="M0,0 L28,0 L28,28 L0,28 Z " fill="#040404" transform="translate(0,0)"/>
<path d="M0,0 L9,0 L11,3 L0,4 L2,8 L2,16 L0,18 L-9,17 L-8,14 L-1,15 L-1,10 L-3,7 L-2,2 Z " fill="#E0E0E0" transform="translate(14,7)"/>
<path d="M0,0 L9,0 L11,3 L-1,4 L-1,7 L-3,7 L-2,2 Z " fill="#EEEEEE" transform="translate(14,7)"/>
<path d="M0,0 L3,4 L2,10 L0,6 L-1,3 Z " fill="#C6C6C6" transform="translate(13,11)"/>
</svg>
