<?xml version="1.0" encoding="UTF-8"?>
<svg version="1.1" xmlns="http://www.w3.org/2000/svg" width="28" height="28">
<path d="M0,0 L28,0 L28,28 L0,28 Z " fill="#060606" transform="translate(0,0)"/>
<path d="M0,0 L8,0 L8,2 L0,4 L-1,7 L3,6 L12,6 L12,11 L5,17 L2,18 L-6,18 L-8,17 L-8,14 L0,15 L8,11 L9,8 L0,10 L-4,10 L-3,2 Z " fill="#E0E0E0" transform="translate(12,5)"/>
<path d="M0,0 L13,0 L13,1 L3,4 L-1,3 Z " fill="#F8F8F8" transform="translate(9,11)"/>
<path d="M0,0 L2,0 L2,5 L-1,5 L-1,2 L-5,1 Z " fill="#CBCBCB" transform="translate(22,11)"/>
</svg>
