<?xml version="1.0" encoding="UTF-8"?>
<svg version="1.1" xmlns="http://www.w3.org/2000/svg" width="28" height="28">
<path d="M0,0 L28,0 L28,28 L0,28 Z " fill="#030303" transform="translate(0,0)"/>
<path d="M0,0 L1,0 L0,8 L-2,9 L-9,9 L-12,6 L-11,2 L-9,5 L-3,5 Z " fill="#EBEBEB" transform="translate(19,15)"/>
<path d="M0,0 L3,0 L1,5 L8,6 L8,7 L-2,6 L-1,1 Z " fill="#9A9A9A" transform="translate(11,7)"/>
<path d="M0,0 L2,0 L2,3 L-3,5 L-7,5 L-6,2 Z " fill="#C8C8C8" transform="translate(22,4)"/>
<path d="M0,0 L1,0 L0,8 L-4,9 L-2,4 Z " fill="#797979" transform="translate(19,15)"/>
</svg>
