<?xml version="1.0" encoding="UTF-8"?>
<svg version="1.1" xmlns="http://www.w3.org/2000/svg" width="28" height="28">
<path d="M0,0 L28,0 L28,28 L0,28 Z " fill="#020202" transform="translate(0,0)"/>
<path d="M0,0 L9,0 L11,1 L11,3 L2,2 L1,4 L5,5 L4,9 L-1,12 L-9,12 L-9,10 L1,8 L2,7 L-8,7 L-8,5 Z " fill="#E2E2E2" transform="translate(15,9)"/>
<path d="M0,0 L3,1 L2,5 L-3,8 L-11,8 L-11,6 L-1,4 L0,3 L-5,2 L-5,1 Z " fill="#BEBEBE" transform="translate(17,13)"/>
<path d="M0,0 L9,0 L11,1 L11,3 L2,2 L0,4 L-1,1 Z " fill="#C6C6C6" transform="translate(15,9)"/>
</svg>
