<?xml version="1.0" encoding="UTF-8"?>
<svg version="1.1" xmlns="http://www.w3.org/2000/svg" width="28" height="28">
<path d="M0,0 L28,0 L28,28 L0,28 Z " fill="#040404" transform="translate(0,0)"/>
<path d="M0,0 L12,0 L12,3 L4,3 L-1,5 L-2,7 L6,5 L12,6 L15,8 L15,13 L6,18 L1,17 L1,15 L11,12 L11,9 L3,9 L-4,10 L-5,6 Z " fill="#D4D4D4" transform="translate(9,7)"/>
<path d="M0,0 L9,0 L9,3 L-2,2 Z " fill="#EAEAEA" transform="translate(12,7)"/>
<path d="M0,0 L3,1 L3,3 L-4,4 L-5,1 Z " fill="#CBCBCB" transform="translate(15,21)"/>
</svg>
