<?xml version="1.0" encoding="UTF-8"?>
<svg version="1.1" xmlns="http://www.w3.org/2000/svg" width="28" height="28">
<path d="M0,0 L28,0 L28,28 L0,28 Z " fill="#040404" transform="translate(0,0)"/>
<path d="M0,0 L14,0 L14,2 L0,3 L0,6 L7,6 L13,10 L15,12 L14,18 L11,20 L2,20 L-5,17 L-3,16 L-2,12 L0,16 L1,17 L10,17 L12,16 L11,11 L5,8 L-2,7 L-3,2 Z " fill="#C5C5C5" transform="translate(10,4)"/>
<path d="M0,0 L2,4 L3,5 L14,6 L13,8 L4,8 L-3,5 L-1,4 Z " fill="#E2E2E2" transform="translate(8,16)"/>
</svg>
