<?xml version="1.0" encoding="UTF-8"?>
<svg version="1.1" xmlns="http://www.w3.org/2000/svg" width="28" height="28">
<path d="M0,0 L28,0 L28,28 L0,28 Z " fill="#040404" transform="translate(0,0)"/>
<path d="M0,0 L6,0 L4,2 L-6,5 L-6,3 L-8,4 L-8,7 L1,8 L5,12 L5,17 L1,20 L-4,19 L-5,17 L1,18 L1,12 L-3,10 L-10,9 L-12,5 L-9,1 Z " fill="#E5E5E5" transform="translate(17,6)"/>
<path d="M0,0 L2,0 L2,2 L7,0 L5,3 L7,5 L0,5 L-1,1 Z " fill="#333333" transform="translate(9,9)"/>
<path d="M0,0 L2,0 L4,3 L4,8 L1,7 Z " fill="#C7C7C7" transform="translate(18,15)"/>
<path d="M0,0 L10,0 L11,3 L0,1 Z " fill="#F1F1F1" transform="translate(8,14)"/>
</svg>
