<?xml version="1.0" encoding="UTF-8"?>
<svg version="1.1" xmlns="http://www.w3.org/2000/svg" width="28" height="28">
<path d="M0,0 L28,0 L28,28 L0,28 Z " fill="#030303" transform="translate(0,0)"/>
<path d="M0,0 L4,1 L2,2 L9,3 L11,5 L10,11 L5,14 L1,13 L0,10 L2,8 L2,11 L8,9 L9,6 L0,6 L-2,2 Z " fill="#CACACA" transform="translate(8,10)"/>
<path d="M0,0 L10,0 L10,2 L1,3 L-3,4 L-2,1 Z " fill="#D7D7D7" transform="translate(16,8)"/>
<path d="M0,0 L5,1 L6,6 L5,8 L3,8 L4,3 L0,2 Z " fill="#F1F1F1" transform="translate(13,13)"/>
</svg>
