<?xml version="1.0" encoding="UTF-8"?>
<svg version="1.1" xmlns="http://www.w3.org/2000/svg" width="28" height="28">
<path d="M0,0 L28,0 L28,28 L0,28 Z " fill="#030303" transform="translate(0,0)"/>
<path d="M0,0 L5,0 L7,4 L2,3 L-1,4 L-6,10 L-1,15 L-2,19 L-7,20 L-12,18 L-13,16 L-4,17 L-4,15 L-8,13 L-10,11 L-9,4 L-4,3 Z " fill="#E4E4E4" transform="translate(19,4)"/>
<path d="M0,0 L5,0 L7,4 L2,3 L-1,4 L-6,9 L-10,8 L-8,3 L-4,3 Z " fill="#C1C1C1" transform="translate(19,4)"/>
<path d="M0,0 L5,0 L7,4 L2,3 L-3,5 L-3,2 Z " fill="#D7D7D7" transform="translate(19,4)"/>
</svg>
