<?xml version="1.0" encoding="UTF-8"?>
<svg version="1.1" xmlns="http://www.w3.org/2000/svg" width="28" height="28">
<path d="M0,0 L28,0 L28,28 L0,28 Z " fill="#030303" transform="translate(0,0)"/>
<path d="M0,0 L8,0 L7,3 L-2,4 L-2,9 L7,9 L9,11 L8,18 L4,20 L0,19 L-2,17 L-2,14 L0,14 L1,17 L6,16 L6,12 L-4,12 L-5,10 L-5,2 Z " fill="#DADADA" transform="translate(13,5)"/>
<path d="M0,0 L5,0 L6,5 L4,7 L-1,6 L-2,3 L-4,1 Z " fill="#232323" transform="translate(14,16)"/>
<path d="M0,0 L8,0 L7,3 L-3,4 L-4,1 Z " fill="#CDCDCD" transform="translate(13,5)"/>
<path d="M0,0 L2,0 L3,7 L6,10 L1,10 L0,8 Z " fill="#F3F3F3" transform="translate(8,7)"/>
</svg>
