<?xml version="1.0" encoding="UTF-8"?>
<svg version="1.1" xmlns="http://www.w3.org/2000/svg" width="28" height="28">
<path d="M0,0 L28,0 L28,28 L0,28 Z " fill="#040404" transform="translate(0,0)"/>
<path d="M0,0 L2,1 L2,3 L-10,4 L-10,8 L-3,9 L-1,11 L-2,16 L-6,19 L-13,20 L-15,19 L-14,16 L-8,15 L-5,12 L-13,12 L-14,5 L-12,1 Z " fill="#EBEBEB" transform="translate(22,5)"/>
<path d="M0,0 L2,1 L2,3 L-10,4 L-10,8 L-6,9 L-11,9 L-11,2 L-10,1 Z " fill="#D7D7D7" transform="translate(22,5)"/>
<path d="M0,0 L2,1 L2,4 L-5,5 L-7,4 L-6,1 Z " fill="#C9C9C9" transform="translate(14,20)"/>
</svg>
