<?xml version="1.0" encoding="UTF-8"?>
<svg version="1.1" xmlns="http://www.w3.org/2000/svg" width="28" height="28">
<path d="M0,0 L28,0 L28,28 L0,28 Z " fill="#010101" transform="translate(0,0)"/>
<path d="M0,0 L6,0 L7,3 L1,2 L2,7 L7,9 L9,11 L9,17 L6,20 L1,20 L-1,16 L2,10 L-1,9 L-1,1 Z " fill="#DDDDDD" transform="translate(11,4)"/>
<path d="M0,0 L6,0 L7,3 L1,2 L2,7 L6,9 L0,10 L-1,9 L-1,1 Z " fill="#CBCBCB" transform="translate(11,4)"/>
<path d="M0,0 L3,1 L3,6 L-2,7 L-2,2 Z " fill="#0B0B0B" transform="translate(15,15)"/>
<path d="M0,0 L1,3 L0,8 L3,8 L3,10 L-2,9 L-3,6 Z " fill="#C3C3C3" transform="translate(13,14)"/>
</svg>
