<?xml version="1.0" encoding="UTF-8"?>
<svg version="1.1" xmlns="http://www.w3.org/2000/svg" width="28" height="28">
<path d="M0,0 L28,0 L28,28 L0,28 Z " fill="#020202" transform="translate(0,0)"/>
<path d="M0,0 L7,0 L6,3 L-2,4 L-4,7 L1,7 L1,13 L-3,16 L-11,16 L-13,12 L-10,13 L-3,13 L-1,9 L-6,9 L-7,7 L-4,1 Z " fill="#D2D2D2" transform="translate(17,7)"/>
<path d="M0,0 L7,0 L6,3 L-2,4 L-3,8 L-7,7 L-4,1 Z " fill="#DFDFDF" transform="translate(17,7)"/>
<path d="M0,0 L9,2 L10,4 L2,4 Z " fill="#B1B1B1" transform="translate(4,19)"/>
</svg>
