<?xml version="1.0" encoding="UTF-8"?>
<svg version="1.1" xmlns="http://www.w3.org/2000/svg" width="28" height="28">
<path d="M0,0 L28,0 L28,28 L0,28 Z " fill="#020202" transform="translate(0,0)"/>
<path d="M0,0 L9,0 L10,2 L-1,4 L-1,6 L3,7 L4,11 L-3,19 L-7,20 L-6,17 L-1,13 L1,9 L-4,7 L-3,2 Z " fill="#D7D7D7" transform="translate(14,6)"/>
<path d="M0,0 L4,1 L3,6 L-5,13 L-7,13 L-6,10 L-1,6 Z " fill="#E0E0E0" transform="translate(14,13)"/>
<path d="M0,0 L9,0 L10,2 L-1,4 L1,2 Z " fill="#BBBBBB" transform="translate(14,6)"/>
</svg>
