<?xml version="1.0" encoding="UTF-8"?>
<svg version="1.1" xmlns="http://www.w3.org/2000/svg" width="28" height="28">
<path d="M0,0 L28,0 L28,28 L0,28 Z " fill="#040404" transform="translate(0,0)"/>
<path d="M0,0 L8,0 L14,1 L14,4 L7,4 L7,6 L12,7 L17,12 L16,18 L14,20 L4,19 L4,15 L10,15 L10,17 L14,16 L12,11 L9,9 L3,8 L2,6 L-1,5 Z " fill="#DFDFDF" transform="translate(6,5)"/>
<path d="M0,0 L6,0 L6,2 L9,3 L8,5 L0,4 Z " fill="#CBCBCB" transform="translate(10,20)"/>
<path d="M0,0 L2,0 L1,5 L-3,7 L-4,5 L-1,3 Z " fill="#F9F9F9" transform="translate(21,18)"/>
</svg>
