<?xml version="1.0" encoding="UTF-8"?>
<svg version="1.1" xmlns="http://www.w3.org/2000/svg" width="28" height="28">
<path d="M0,0 L28,0 L28,28 L0,28 Z " fill="#050505" transform="translate(0,0)"/>
<path d="M0,0 L12,0 L10,2 L3,4 L-1,7 L4,10 L5,14 L2,18 L-4,18 L-8,14 L-8,11 L-6,11 L-5,14 L3,14 L3,11 L-7,8 L-6,5 L0,3 Z " fill="#CCCCCC" transform="translate(14,6)"/>
<path d="M0,0 L2,0 L4,4 L8,6 L4,7 L0,3 Z " fill="#E2E2E2" transform="translate(6,17)"/>
<path d="M0,0 L11,0 L9,2 L1,4 Z " fill="#F1F1F1" transform="translate(15,6)"/>
</svg>
