<?xml version="1.0" encoding="UTF-8"?>
<svg version="1.1" xmlns="http://www.w3.org/2000/svg" width="28" height="28">
<path d="M0,0 L28,0 L28,28 L0,28 Z " fill="#030303" transform="translate(0,0)"/>
<path d="M0,0 L5,0 L5,4 L2,5 L-5,5 L-5,7 L-1,8 L1,10 L0,18 L-2,18 L-2,20 L-9,19 L-9,16 L-4,16 L-2,11 L-9,13 L-8,4 L-5,4 L-5,1 Z " fill="#CDCDCD" transform="translate(17,5)"/>
<path d="M0,0 L2,0 L1,6 L-1,6 L-1,8 L-8,7 L-8,4 L-3,4 Z " fill="#F1F1F1" transform="translate(16,17)"/>
<path d="M0,0 L5,0 L5,4 L-5,4 L-5,1 Z " fill="#E9E9E9" transform="translate(17,5)"/>
</svg>
