<?xml version="1.0" encoding="UTF-8"?>
<svg version="1.1" xmlns="http://www.w3.org/2000/svg" width="28" height="28">
<path d="M0,0 L28,0 L28,28 L0,28 Z " fill="#020202" transform="translate(0,0)"/>
<path d="M0,0 L7,2 L7,3 L0,4 L-3,6 L-1,10 L1,13 L1,16 L-3,18 L-13,17 L-12,13 L-2,14 L-2,11 L-9,9 L-7,5 L-2,3 L-2,1 Z " fill="#C9C9C9" transform="translate(18,5)"/>
<path d="M0,0 L10,1 L10,3 L-1,4 Z " fill="#B0B0B0" transform="translate(6,18)"/>
<path d="M0,0 L7,2 L7,3 L-4,4 L-2,3 L-2,1 Z " fill="#EAEAEA" transform="translate(18,5)"/>
</svg>
