<?xml version="1.0" encoding="UTF-8"?>
<svg version="1.1" xmlns="http://www.w3.org/2000/svg" width="28" height="28">
<path d="M0,0 L28,0 L28,28 L0,28 Z " fill="#040404" transform="translate(0,0)"/>
<path d="M0,0 L9,1 L10,4 L1,5 L6,8 L7,13 L5,16 L3,16 L3,18 L-5,18 L-10,13 L-9,11 L-7,11 L-7,14 L2,14 L4,12 L4,9 L-4,8 L-2,3 Z " fill="#E1E1E1" transform="translate(14,5)"/>
<path d="M0,0 L2,0 L2,3 L11,4 L12,7 L4,7 L-1,2 Z " fill="#D1D1D1" transform="translate(5,16)"/>
<path d="M0,0 L9,1 L9,3 L0,3 Z " fill="#F3F3F3" transform="translate(14,5)"/>
</svg>
