<?xml version="1.0" encoding="UTF-8"?>
<svg version="1.1" xmlns="http://www.w3.org/2000/svg" width="28" height="28">
<path d="M0,0 L28,0 L28,28 L0,28 Z " fill="#050505" transform="translate(0,0)"/>
<path d="M0,0 L14,0 L14,1 L3,2 L3,7 L12,7 L18,10 L19,15 L16,18 L10,19 L2,17 L0,16 L0,14 L5,15 L15,15 L16,13 L15,11 L12,10 L0,10 L-1,1 Z " fill="#D5D5D5" transform="translate(6,5)"/>
<path d="M0,0 L14,0 L14,1 L2,2 L2,10 L0,10 L-1,1 Z " fill="#EBEBEB" transform="translate(6,5)"/>
<path d="M0,0 L14,2 L14,3 L4,4 L0,2 Z " fill="#ACACAC" transform="translate(6,19)"/>
</svg>
