<?xml version="1.0" encoding="UTF-8"?>
<svg version="1.1" xmlns="http://www.w3.org/2000/svg" width="28" height="28">
<path d="M0,0 L28,0 L28,28 L0,28 Z " fill="#020202" transform="translate(0,0)"/>
<path d="M0,0 L3,1 L-1,3 L-7,4 L-9,7 L0,9 L2,11 L1,16 L-2,19 L-9,20 L-14,16 L-15,11 L-10,5 L-8,1 Z " fill="#BCBCBC" transform="translate(21,4)"/>
<path d="M0,0 L9,0 L11,1 L10,6 L6,8 L1,8 L-3,2 Z " fill="#0A0A0A" transform="translate(10,14)"/>
<path d="M0,0 L3,1 L-1,3 L-7,4 L-10,8 L-7,10 L-15,13 L-13,8 L-10,5 L-8,1 Z " fill="#D5D5D5" transform="translate(21,4)"/>
</svg>
