<?xml version="1.0" encoding="UTF-8"?>
<svg version="1.1" xmlns="http://www.w3.org/2000/svg" width="28" height="28">
<path d="M0,0 L28,0 L28,28 L0,28 Z " fill="#030303" transform="translate(0,0)"/>
<path d="M0,0 L6,0 L9,3 L0,3 L-2,7 L4,7 L8,11 L9,19 L4,20 L2,18 L6,18 L4,10 L-1,10 L-2,13 L-5,12 L-5,4 Z " fill="#D5D5D5" transform="translate(12,5)"/>
<path d="M0,0 L7,1 L3,4 L2,7 L0,7 Z " fill="#EDEDED" transform="translate(8,11)"/>
<path d="M0,0 L5,5 L4,10 L3,10 L1,3 L-3,1 Z " fill="#B8B8B8" transform="translate(15,12)"/>
</svg>
