<?xml version="1.0" encoding="UTF-8"?>
<svg version="1.1" xmlns="http://www.w3.org/2000/svg" width="28" height="28">
<path d="M0,0 L28,0 L28,28 L0,28 Z " fill="#040404" transform="translate(0,0)"/>
<path d="M0,0 L4,0 L4,2 L-4,4 L-4,8 L5,5 L9,9 L10,15 L6,19 L3,20 L-6,20 L-8,19 L-8,17 L4,17 L8,16 L7,10 L5,8 L0,9 L-3,10 L-3,13 L-5,13 L-8,2 Z " fill="#CECECE" transform="translate(14,4)"/>
<path d="M0,0 L4,0 L4,2 L-4,4 L-5,10 L-6,10 L-8,2 Z " fill="#C8C8C8" transform="translate(14,4)"/>
<path d="M0,0 L6,0 L4,3 L2,3 L2,6 L0,6 Z " fill="#F1F1F1" transform="translate(9,11)"/>
</svg>
