<?xml version="1.0" encoding="UTF-8"?>
<svg version="1.1" xmlns="http://www.w3.org/2000/svg" width="28" height="28">
<path d="M0,0 L28,0 L28,28 L0,28 Z " fill="#030303" transform="translate(0,0)"/>
<path d="M0,0 L7,0 L8,3 L1,3 L-3,5 L-4,7 L1,7 L1,9 L5,10 L7,13 L7,18 L4,20 L-3,20 L-4,17 L4,17 L1,11 L-4,10 L-6,10 L-6,4 Z " fill="#E2E2E2" transform="translate(14,5)"/>
<path d="M0,0 L7,0 L8,3 L0,3 L-2,1 Z " fill="#D1D1D1" transform="translate(14,5)"/>
<path d="M0,0 L8,0 L5,1 L5,3 L0,2 Z " fill="#B6B6B6" transform="translate(10,22)"/>
</svg>
