<?xml version="1.0" encoding="UTF-8"?>
<svg version="1.1" xmlns="http://www.w3.org/2000/svg" width="28" height="28">
<path d="M0,0 L28,0 L28,28 L0,28 Z " fill="#030303" transform="translate(0,0)"/>
<path d="M0,0 L12,2 L12,4 L3,6 L1,10 L5,11 L10,14 L10,19 L9,20 L1,19 L-2,16 L-2,14 L7,17 L6,15 L2,13 L-4,13 L-4,9 L-2,9 L0,3 Z " fill="#E6E6E6" transform="translate(11,4)"/>
<path d="M0,0 L5,1 L9,3 L9,5 L4,5 L3,1 Z " fill="#262626" transform="translate(9,16)"/>
<path d="M0,0 L4,2 L10,2 L10,4 L3,5 L0,2 Z " fill="#C6C6C6" transform="translate(9,18)"/>
</svg>
