<?xml version="1.0" encoding="UTF-8"?>
<svg version="1.1" xmlns="http://www.w3.org/2000/svg" width="28" height="28">
<path d="M0,0 L28,0 L28,28 L0,28 Z " fill="#030303" transform="translate(0,0)"/>
<path d="M0,0 L5,0 L5,2 L0,3 L-2,7 L1,9 L1,14 L-4,18 L-9,20 L-13,19 L-12,16 L-6,15 L-2,11 L-11,13 L-10,9 L-5,5 L-7,4 L-7,2 Z " fill="#E9E9E9" transform="translate(19,4)"/>
<path d="M0,0 L5,0 L5,2 L0,3 L-2,7 L-6,9 L-2,11 L-11,13 L-10,9 L-5,5 L-7,4 L-7,2 Z " fill="#D0D0D0" transform="translate(19,4)"/>
</svg>
