<?xml version="1.0" encoding="UTF-8"?>
<svg version="1.1" xmlns="http://www.w3.org/2000/svg" width="28" height="28">
<path d="M0,0 L28,0 L28,28 L0,28 Z " fill="#030303" transform="translate(0,0)"/>
<path d="M0,0 L6,1 L6,3 L-7,4 L-7,8 L-3,10 L-4,15 L-7,18 L-13,17 L-14,13 L-13,15 L-7,15 L-7,10 L-10,8 L-8,2 Z " fill="#D7D7D7" transform="translate(20,6)"/>
<path d="M0,0 L1,4 L-1,7 L-7,6 L-8,2 L-7,4 L-1,4 Z " fill="#C6C6C6" transform="translate(14,17)"/>
<path d="M0,0 L1,3 L5,5 L4,10 L2,9 L1,5 L-2,3 L-2,1 Z " fill="#F5F5F5" transform="translate(12,11)"/>
</svg>
