<?xml version="1.0" encoding="UTF-8"?>
<svg version="1.1" xmlns="http://www.w3.org/2000/svg" width="28" height="28">
<path d="M0,0 L28,0 L28,28 L0,28 Z " fill="#040404" transform="translate(0,0)"/>
<path d="M0,0 L9,0 L9,2 L2,3 L0,5 L5,8 L11,16 L10,20 L1,20 L-3,17 L-3,14 L0,14 L1,16 L8,17 L2,9 L-3,6 L-2,1 Z " fill="#E6E6E6" transform="translate(11,4)"/>
<path d="M0,0 L3,0 L4,2 L12,2 L12,4 L7,4 L7,6 L2,5 L0,3 Z " fill="#BABABA" transform="translate(8,18)"/>
<path d="M0,0 L2,0 L3,5 L2,6 L-4,6 L-4,4 L1,4 Z " fill="#FAFAFA" transform="translate(19,18)"/>
</svg>
