<?xml version="1.0" encoding="UTF-8"?>
<svg version="1.1" xmlns="http://www.w3.org/2000/svg" width="28" height="28">
<path d="M0,0 L28,0 L28,28 L0,28 Z " fill="#030303" transform="translate(0,0)"/>
<path d="M0,0 L4,0 L4,2 L-6,4 L-6,6 L-4,6 L-4,8 L-1,9 L0,15 L-1,16 L-13,16 L-16,13 L-16,11 L-14,11 L-14,13 L-3,13 L-3,10 L-11,7 L-10,4 L-8,4 L-7,1 Z " fill="#E5E5E5" transform="translate(20,6)"/>
<path d="M0,0 L3,1 L3,3 L6,4 L7,10 L4,11 L4,5 L-3,3 L0,2 Z " fill="#C6C6C6" transform="translate(13,11)"/>
</svg>
