<?xml version="1.0" encoding="UTF-8"?>
<svg version="1.1" xmlns="http://www.w3.org/2000/svg" width="28" height="28">
<path d="M0,0 L28,0 L28,28 L0,28 Z " fill="#030303" transform="translate(0,0)"/>
<path d="M0,0 L4,1 L3,3 L-7,7 L-8,9 L-3,10 L-1,13 L-1,18 L-4,20 L-13,20 L-14,16 L-4,17 L-5,13 L-12,12 L-13,8 L-9,3 Z " fill="#E7E7E7" transform="translate(20,4)"/>
<path d="M0,0 L4,1 L3,3 L-8,6 L-3,1 Z " fill="#ECECEC" transform="translate(20,4)"/>
<path d="M0,0 L4,1 L5,4 L3,4 L2,6 L1,3 L-6,2 L-6,1 Z " fill="#AAAAAA" transform="translate(14,14)"/>
</svg>
