<?xml version="1.0" encoding="UTF-8"?>
<svg version="1.1" xmlns="http://www.w3.org/2000/svg" width="28" height="28">
<path d="M0,0 L28,0 L28,28 L0,28 Z " fill="#040404" transform="translate(0,0)"/>
<path d="M0,0 L11,0 L10,4 L5,3 L-3,4 L-4,5 L4,6 L5,9 L7,9 L6,13 L2,16 L-5,16 L-7,15 L-7,12 L4,12 L3,9 L-9,8 L-7,3 Z " fill="#E9E9E9" transform="translate(15,7)"/>
<path d="M0,0 L11,0 L10,4 L5,3 L-3,3 L-3,1 Z " fill="#C0C0C0" transform="translate(15,7)"/>
<path d="M0,0 L4,1 L4,3 L9,3 L9,4 L2,4 L0,3 Z " fill="#BCBCBC" transform="translate(8,19)"/>
</svg>
