<?xml version="1.0" encoding="UTF-8"?>
<svg version="1.1" xmlns="http://www.w3.org/2000/svg" width="28" height="28">
<path d="M0,0 L28,0 L28,28 L0,28 Z " fill="#050505" transform="translate(0,0)"/>
<path d="M0,0 L8,0 L7,3 L-1,4 L-2,7 L5,7 L10,10 L11,15 L7,20 L-2,20 L-7,18 L-7,15 L-1,17 L6,16 L8,15 L7,11 L5,10 L-6,10 L-5,5 L-3,1 Z " fill="#ECECEC" transform="translate(13,4)"/>
<path d="M0,0 L1,3 L-3,8 L-5,8 L-6,5 L-2,3 Z " fill="#D2D2D2" transform="translate(23,16)"/>
<path d="M0,0 L8,0 L7,3 L0,3 Z " fill="#C2C2C2" transform="translate(13,4)"/>
</svg>
