<?xml version="1.0" encoding="UTF-8"?>
<svg version="1.1" xmlns="http://www.w3.org/2000/svg" width="28" height="28">
<path d="M0,0 L28,0 L28,28 L0,28 Z " fill="#020202" transform="translate(0,0)"/>
<path d="M0,0 L9,0 L12,1 L12,3 L1,3 L2,6 L11,6 L16,11 L16,17 L12,20 L2,20 L-1,18 L-1,15 L3,16 L12,16 L13,13 L10,9 L1,10 L-3,11 L-2,2 Z " fill="#D8D8D8" transform="translate(8,5)"/>
<path d="M0,0 L7,0 L10,1 L10,3 L-1,3 L-1,5 L-3,5 L-1,1 Z " fill="#DDDDDD" transform="translate(10,5)"/>
<path d="M0,0 L11,0 L8,1 L8,3 L-1,4 Z " fill="#1A1A1A" transform="translate(9,8)"/>
</svg>
