<?xml version="1.0" encoding="UTF-8"?>
<svg version="1.1" xmlns="http://www.w3.org/2000/svg" width="28" height="28">
<path d="M0,0 L28,0 L28,28 L0,28 Z " fill="#020202" transform="translate(0,0)"/>
<path d="M0,0 L9,0 L9,2 L2,3 L1,6 L8,5 L10,8 L9,15 L5,20 L1,19 L0,17 L6,15 L7,7 L3,9 L2,11 L-1,11 L-1,1 Z " fill="#E9E9E9" transform="translate(10,5)"/>
<path d="M0,0 L9,0 L9,2 L1,3 L0,11 L-1,11 L-1,1 Z " fill="#BBBBBB" transform="translate(10,5)"/>
<path d="M0,0 L5,1 L6,7 L3,8 L3,2 L0,1 Z " fill="#C8C8C8" transform="translate(14,10)"/>
</svg>
