<?xml version="1.0" encoding="UTF-8"?>
<svg version="1.1" xmlns="http://www.w3.org/2000/svg" width="28" height="28">
<path d="M0,0 L28,0 L28,28 L0,28 Z " fill="#040404" transform="translate(0,0)"/>
<path d="M0,0 L3,1 L3,3 L-2,5 L-6,5 L-6,8 L-1,7 L7,7 L11,9 L12,14 L11,17 L6,20 L-3,19 L-7,17 L-7,15 L7,16 L9,14 L9,11 L7,10 L-2,10 L-8,11 L-7,2 L-2,1 Z " fill="#E5E5E5" transform="translate(13,4)"/>
<path d="M0,0 L13,2 L13,5 L4,4 L0,2 Z " fill="#CFCFCF" transform="translate(6,19)"/>
<path d="M0,0 L2,1 L1,2 L7,3 L7,4 L-5,5 L-5,2 Z " fill="#2B2B2B" transform="translate(12,7)"/>
</svg>
