<?xml version="1.0" encoding="UTF-8"?>
<svg version="1.1" xmlns="http://www.w3.org/2000/svg" width="28" height="28">
<path d="M0,0 L28,0 L28,28 L0,28 Z " fill="#050505" transform="translate(0,0)"/>
<path d="M0,0 L5,1 L5,4 L-6,6 L8,7 L10,9 L9,16 L3,20 L-4,20 L-8,16 L-7,14 L-3,17 L6,15 L7,10 L-5,10 L-9,11 L-10,8 L-9,3 Z " fill="#D9D9D9" transform="translate(15,5)"/>
<path d="M0,0 L1,3 L4,2 L15,2 L15,4 L4,5 L0,6 L-1,3 Z " fill="#F3F3F3" transform="translate(6,10)"/>
<path d="M0,0 L8,2 L8,3 L1,4 L2,6 L-1,6 L-2,1 Z " fill="#BDBDBD" transform="translate(8,7)"/>
</svg>
