<?xml version="1.0" encoding="UTF-8"?>
<svg version="1.1" xmlns="http://www.w3.org/2000/svg" width="28" height="28">
<path d="M0,0 L28,0 L28,28 L0,28 Z " fill="#040404" transform="translate(0,0)"/>
<path d="M0,0 L11,0 L16,2 L16,3 L0,3 L-1,8 L7,8 L12,13 L12,16 L4,20 L-1,19 L-2,16 L5,16 L8,15 L7,12 L-2,10 L-3,5 Z " fill="#E7E7E7" transform="translate(10,6)"/>
<path d="M0,0 L6,0 L11,2 L11,3 L-1,3 Z " fill="#CECECE" transform="translate(15,6)"/>
<path d="M0,0 L9,0 L9,3 L2,4 Z " fill="#C4C4C4" transform="translate(8,22)"/>
</svg>
