<?xml version="1.0" encoding="UTF-8"?>
<svg version="1.1" xmlns="http://www.w3.org/2000/svg" width="28" height="28">
<path d="M0,0 L28,0 L28,28 L0,28 Z " fill="#050505" transform="translate(0,0)"/>
<path d="M0,0 L1,3 L-8,8 L2,7 L3,8 L2,15 L-3,19 L-5,20 L-11,20 L-12,16 L-5,16 L-1,15 L0,9 L-11,13 L-14,13 L-13,9 L-8,4 Z " fill="#D2D2D2" transform="translate(20,4)"/>
<path d="M0,0 L6,0 L7,1 L7,6 L5,5 L5,2 L-7,6 L-9,6 L-7,2 L-3,1 Z " fill="#F0F0F0" transform="translate(16,11)"/>
<path d="M0,0 L1,3 L-3,5 L-6,4 L-3,1 Z " fill="#E7E7E7" transform="translate(20,4)"/>
</svg>
