<?xml version="1.0" encoding="UTF-8"?>
<svg version="1.1" xmlns="http://www.w3.org/2000/svg" width="28" height="28">
<path d="M0,0 L28,0 L28,28 L0,28 Z " fill="#040404" transform="translate(0,0)"/>
<path d="M0,0 L2,0 L3,3 L11,5 L11,12 L7,15 L1,14 L-3,12 L-3,10 L1,9 L5,11 L7,10 L8,7 L1,6 L-1,5 Z " fill="#D7D7D7" transform="translate(8,9)"/>
<path d="M0,0 L14,1 L13,4 L3,4 L0,2 Z " fill="#D6D6D6" transform="translate(11,6)"/>
<path d="M0,0 L2,0 L3,3 L9,4 L8,6 L1,6 L-1,5 Z " fill="#EFEFEF" transform="translate(8,9)"/>
</svg>
