<?xml version="1.0" encoding="UTF-8"?>
<svg version="1.1" xmlns="http://www.w3.org/2000/svg" width="28" height="28">
<path d="M0,0 L28,0 L28,28 L0,28 Z " fill="#0C0C0C" transform="translate(0,0)"/>
<path d="M0,0 L2,1 L1,6 L8,8 L10,9 L10,15 L9,17 L0,17 L-4,15 L-4,13 L4,13 L8,14 L6,10 L1,9 L-3,9 L-2,1 Z " fill="#EDEDED" transform="translate(11,6)"/>
<path d="M0,0 L2,1 L1,6 L8,8 L10,9 L9,11 L4,9 L-3,9 L-2,1 Z " fill="#DEDEDE" transform="translate(11,6)"/>
<path d="M0,0 L2,1 L1,6 L3,7 L-1,6 L-3,9 L-2,1 Z " fill="#BDBDBD" transform="translate(11,6)"/>
</svg>
