<?xml version="1.0" encoding="UTF-8"?>
<svg version="1.1" xmlns="http://www.w3.org/2000/svg" width="28" height="28">
<path d="M0,0 L28,0 L28,28 L0,28 Z " fill="#040404" transform="translate(0,0)"/>
<path d="M0,0 L10,0 L10,2 L1,3 L0,7 L3,6 L13,6 L17,10 L16,17 L14,18 L6,18 L2,16 L2,13 L6,13 L7,15 L14,14 L13,9 L4,9 L-2,10 L-3,2 Z " fill="#D9D9D9" transform="translate(8,6)"/>
<path d="M0,0 L6,0 L10,4 L10,8 L8,8 L6,3 L0,1 Z " fill="#EFEFEF" transform="translate(15,12)"/>
<path d="M0,0 L3,1 L0,4 L-8,4 L-8,3 L-2,2 Z " fill="#C8C8C8" transform="translate(22,20)"/>
</svg>
