<?xml version="1.0" encoding="UTF-8"?>
<svg version="1.1" xmlns="http://www.w3.org/2000/svg" width="28" height="28">
<path d="M0,0 L28,0 L28,28 L0,28 Z " fill="#030303" transform="translate(0,0)"/>
<path d="M0,0 L8,0 L7,3 L0,4 L-3,9 L1,9 L0,16 L-5,20 L-10,20 L-12,18 L-12,15 L-5,16 L-2,13 L-8,12 L-6,6 L-3,1 Z " fill="#DDDDDD" transform="translate(17,5)"/>
<path d="M0,0 L8,0 L7,3 L2,3 L2,1 Z " fill="#CCCCCC" transform="translate(17,5)"/>
<path d="M0,0 L3,1 L6,3 L6,5 L1,4 Z " fill="#EBEBEB" transform="translate(5,20)"/>
</svg>
