<?xml version="1.0" encoding="UTF-8"?>
<svg version="1.1" xmlns="http://www.w3.org/2000/svg" width="28" height="28">
<path d="M0,0 L28,0 L28,28 L0,28 Z " fill="#030303" transform="translate(0,0)"/>
<path d="M0,0 L1,2 L12,2 L9,4 L0,4 L0,9 L10,11 L13,13 L13,15 L5,19 L-3,20 L-3,18 L9,15 L9,13 L-1,11 L-3,7 L-2,1 Z " fill="#DCDCDC" transform="translate(10,5)"/>
<path d="M0,0 L1,0 L1,5 L7,6 L4,8 L-1,6 Z " fill="#B1B1B1" transform="translate(9,9)"/>
<path d="M0,0 L4,2 L-2,4 L-6,4 L-6,2 Z " fill="#C1C1C1" transform="translate(13,21)"/>
</svg>
