<?xml version="1.0" encoding="UTF-8"?>
<svg version="1.1" xmlns="http://www.w3.org/2000/svg" width="28" height="28">
<path d="M0,0 L28,0 L28,28 L0,28 Z " fill="#010101" transform="translate(0,0)"/>
<path d="M0,0 L10,0 L13,1 L13,3 L1,3 L1,5 L7,7 L6,11 L-2,14 L-7,14 L-6,11 L3,9 L-3,8 L-2,4 Z " fill="#E1E1E1" transform="translate(13,8)"/>
<path d="M0,0 L10,0 L13,1 L13,3 L-1,4 Z " fill="#AEAEAE" transform="translate(13,8)"/>
<path d="M0,0 L7,0 L9,2 L0,3 Z " fill="#B3B3B3" transform="translate(6,19)"/>
</svg>
