<?xml version="1.0" encoding="UTF-8"?>
<svg version="1.1" xmlns="http://www.w3.org/2000/svg" width="28" height="28">
<path d="M0,0 L28,0 L28,28 L0,28 Z " fill="#040404" transform="translate(0,0)"/>
<path d="M0,0 L1,4 L7,7 L9,9 L9,15 L8,17 L2,16 L2,14 L7,14 L7,11 L-3,6 L-4,2 Z " fill="#D6D6D6" transform="translate(11,9)"/>
<path d="M0,0 L1,4 L1,6 L5,8 L-2,7 L-4,5 L-3,1 Z " fill="#F1F1F1" transform="translate(11,9)"/>
<path d="M0,0 L7,1 L10,4 L9,6 L0,3 Z " fill="#DEDEDE" transform="translate(12,6)"/>
</svg>
