<?xml version="1.0" encoding="UTF-8"?>
<svg version="1.1" xmlns="http://www.w3.org/2000/svg" width="28" height="28">
<path d="M0,0 L28,0 L28,28 L0,28 Z " fill="#0F0F0F" transform="translate(0,0)"/>
<path d="M0,0 L4,2 L4,5 L8,6 L8,12 L5,14 L1,14 L1,12 L5,10 L5,7 L-1,8 Z " fill="#EDEDED" transform="translate(9,12)"/>
<path d="M0,0 L4,1 L3,5 L-2,7 L-3,2 Z " fill="#262626" transform="translate(11,18)"/>
<path d="M0,0 L2,4 L-1,6 L-5,6 L-5,4 L-1,2 Z " fill="#BEBEBE" transform="translate(15,20)"/>
</svg>
