<?xml version="1.0" encoding="UTF-8"?>
<svg version="1.1" xmlns="http://www.w3.org/2000/svg" width="28" height="28">
<path d="M0,0 L28,0 L28,28 L0,28 Z " fill="#020202" transform="translate(0,0)"/>
<path d="M0,0 L10,0 L7,2 L0,4 L2,6 L2,11 L-3,14 L-9,14 L-9,10 L0,10 L0,8 L-6,8 L-4,4 Z " fill="#D9D9D9" transform="translate(16,8)"/>
<path d="M0,0 L10,0 L7,2 L-1,4 L-2,1 Z " fill="#E9E9E9" transform="translate(16,8)"/>
<path d="M0,0 L7,2 L6,4 L0,4 Z " fill="#C1C1C1" transform="translate(7,18)"/>
</svg>
