<?xml version="1.0" encoding="UTF-8"?>
<svg version="1.1" xmlns="http://www.w3.org/2000/svg" width="28" height="28">
<path d="M0,0 L28,0 L28,28 L0,28 Z " fill="#030303" transform="translate(0,0)"/>
<path d="M0,0 L2,0 L2,2 L9,4 L9,5 L-3,7 L-4,10 L4,14 L5,15 L5,20 L-2,20 L-8,17 L-9,15 L2,17 L2,15 L-5,13 L-7,11 L-7,6 Z " fill="#DADADA" transform="translate(16,4)"/>
<path d="M0,0 L10,0 L11,2 L-2,3 Z " fill="#E4E4E4" transform="translate(14,7)"/>
<path d="M0,0 L9,3 L7,5 L1,2 Z " fill="#D2D2D2" transform="translate(7,19)"/>
</svg>
