<?xml version="1.0" encoding="UTF-8"?>
<svg version="1.1" xmlns="http://www.w3.org/2000/svg" width="28" height="28">
<path d="M0,0 L28,0 L28,28 L0,28 Z " fill="#040404" transform="translate(0,0)"/>
<path d="M0,0 L11,0 L8,3 L2,3 L2,6 L9,7 L10,14 L6,20 L-1,20 L-1,17 L4,18 L7,14 L7,8 L3,8 L1,13 L-1,13 Z " fill="#CCCCCC" transform="translate(10,5)"/>
<path d="M0,0 L11,0 L10,2 L1,2 L2,11 L1,13 L-1,13 Z " fill="#ECECEC" transform="translate(10,5)"/>
<path d="M0,0 L7,0 L7,1 L1,1 L1,4 L8,5 L8,8 L6,8 L6,6 L2,6 L1,8 L0,7 Z " fill="#A9A9A9" transform="translate(11,7)"/>
</svg>
