<?xml version="1.0" encoding="UTF-8"?>
<svg version="1.1" xmlns="http://www.w3.org/2000/svg" width="28" height="28">
<path d="M0,0 L28,0 L28,28 L0,28 Z " fill="#020202" transform="translate(0,0)"/>
<path d="M0,0 L1,2 L6,1 L6,4 L0,5 L3,8 L3,14 L-2,18 L-4,19 L-12,19 L-14,16 L-13,12 L-9,13 L-5,15 L-1,14 L0,10 L-9,9 L-8,6 Z " fill="#CDCDCD" transform="translate(19,3)"/>
<path d="M0,0 L1,2 L6,1 L6,4 L0,5 L3,8 L3,10 L-9,9 L-8,6 Z " fill="#CACACA" transform="translate(19,3)"/>
<path d="M0,0 L2,0 L1,5 L-1,7 L-4,6 L-1,3 Z " fill="#EEEEEE" transform="translate(20,13)"/>
<path d="M0,0 L3,0 L3,3 L-3,3 Z M-5,3 L-3,4 L-6,4 Z " fill="#757575" transform="translate(22,4)"/>
</svg>
