<?xml version="1.0" encoding="UTF-8"?>
<svg version="1.1" xmlns="http://www.w3.org/2000/svg" width="28" height="28">
<path d="M0,0 L28,0 L28,28 L0,28 Z " fill="#020202" transform="translate(0,0)"/>
<path d="M0,0 L11,0 L10,3 L3,5 L2,7 L7,7 L11,11 L11,16 L4,20 L-4,19 L-8,16 L-7,12 L-2,11 L-1,1 Z " fill="#D0D0D0" transform="translate(12,4)"/>
<path d="M0,0 L5,0 L8,3 L8,8 L1,12 L-7,11 L-11,8 L-11,5 L-7,5 L-7,8 L0,8 L3,6 L4,2 Z " fill="#E9E9E9" transform="translate(15,12)"/>
<path d="M0,0 L4,0 L3,5 L0,7 L-7,6 L-6,3 Z " fill="#181818" transform="translate(15,14)"/>
</svg>
