<?xml version="1.0" encoding="UTF-8"?>
<svg version="1.1" xmlns="http://www.w3.org/2000/svg" width="28" height="28">
<path d="M0,0 L28,0 L28,28 L0,28 Z " fill="#030303" transform="translate(0,0)"/>
<path d="M0,0 L2,0 L2,2 L-8,4 L-9,5 L-2,8 L-2,12 L-8,15 L-17,15 L-17,11 L-16,13 L-4,11 L-5,9 L-13,8 L-13,5 L-9,1 Z " fill="#CCCCCC" transform="translate(22,7)"/>
<path d="M0,0 L2,1 L2,5 L-4,8 L-13,8 L-13,4 L-12,6 L0,4 L-1,1 Z " fill="#C5C5C5" transform="translate(18,14)"/>
<path d="M0,0 L1,2 L7,3 L7,4 L-2,4 L-2,1 Z " fill="#E7E7E7" transform="translate(11,11)"/>
<path d="M0,0 L1,2 L9,3 L9,4 L0,4 Z " fill="#ABABAB" transform="translate(5,18)"/>
</svg>
