<?xml version="1.0" encoding="UTF-8"?>
<svg version="1.1" xmlns="http://www.w3.org/2000/svg" width="28" height="28">
<path d="M0,0 L28,0 L28,28 L0,28 Z " fill="#030303" transform="translate(0,0)"/>
<path d="M0,0 L2,0 L0,4 L-2,4 L-2,6 L-8,7 L-11,6 L-11,9 L-5,11 L-5,18 L-7,20 L-10,19 L-8,17 L-7,12 L-14,12 L-14,6 L-12,3 L-4,3 Z " fill="#E5E5E5" transform="translate(22,6)"/>
<path d="M0,0 L2,0 L0,4 L-2,4 L-2,6 L-8,7 L-11,6 L-12,9 L-13,4 L-9,3 L-4,3 Z " fill="#CBCBCB" transform="translate(22,6)"/>
</svg>
