<?xml version="1.0" encoding="UTF-8"?>
<svg version="1.1" xmlns="http://www.w3.org/2000/svg" width="28" height="28">
<path d="M0,0 L28,0 L28,28 L0,28 Z " fill="#030303" transform="translate(0,0)"/>
<path d="M0,0 L13,0 L13,3 L0,3 L0,6 L4,5 L11,8 L13,10 L13,15 L8,20 L-4,20 L-6,19 L-4,15 L-2,15 L-2,18 L7,16 L10,15 L8,10 L-1,9 L-2,11 L-6,11 L-4,5 Z " fill="#E4E4E4" transform="translate(10,5)"/>
<path d="M0,0 L13,0 L13,3 L3,3 Z " fill="#BFBFBF" transform="translate(10,5)"/>
<path d="M0,0 L7,0 L6,3 L0,3 Z " fill="#242424" transform="translate(10,8)"/>
</svg>
