<?xml version="1.0" encoding="UTF-8"?>
<svg version="1.1" xmlns="http://www.w3.org/2000/svg" width="28" height="28">
<path d="M0,0 L28,0 L28,28 L0,28 Z " fill="#030303" transform="translate(0,0)"/>
<path d="M0,0 L9,1 L11,3 L0,3 L-4,5 L-4,7 L2,8 L8,11 L10,14 L10,19 L9,20 L1,20 L-3,18 L-2,14 L0,17 L7,17 L6,13 L3,11 L-7,10 L-6,5 L-2,1 Z " fill="#D9D9D9" transform="translate(13,4)"/>
<path d="M0,0 L3,1 L2,3 L0,3 L0,5 L4,6 L-3,7 L-1,1 Z " fill="#B9B9B9" transform="translate(9,6)"/>
<path d="M0,0 L2,3 L8,4 L4,6 L-1,4 Z " fill="#C4C4C4" transform="translate(11,18)"/>
</svg>
