<?xml version="1.0" encoding="UTF-8"?>
<svg version="1.1" xmlns="http://www.w3.org/2000/svg" width="28" height="28">
<path d="M0,0 L28,0 L28,28 L0,28 Z " fill="#040404" transform="translate(0,0)"/>
<path d="M0,0 L9,0 L11,2 L0,4 L0,7 L9,7 L13,11 L12,16 L9,19 L2,20 L-4,18 L-4,15 L-3,16 L7,16 L9,14 L10,9 L-4,11 L-3,3 Z " fill="#B9B9B9" transform="translate(11,4)"/>
<path d="M0,0 L9,0 L11,2 L0,4 L-1,8 L4,8 L1,10 L-4,11 L-3,3 Z " fill="#DFDFDF" transform="translate(11,4)"/>
<path d="M0,0 L2,1 L12,2 L11,5 L2,4 Z " fill="#D7D7D7" transform="translate(6,19)"/>
</svg>
