<?xml version="1.0" encoding="UTF-8"?>
<svg version="1.1" xmlns="http://www.w3.org/2000/svg" width="28" height="28">
<path d="M0,0 L28,0 L28,28 L0,28 Z " fill="#070707" transform="translate(0,0)"/>
<path d="M0,0 L13,0 L12,3 L1,3 L1,9 L8,8 L12,9 L12,11 L14,11 L14,17 L8,20 L1,20 L-1,17 L8,17 L11,12 L5,12 L0,13 L-2,11 L-2,3 Z " fill="#D0D0D0" transform="translate(9,4)"/>
<path d="M0,0 L2,0 L1,5 L-4,7 L-11,7 L-13,4 L-4,4 L0,3 Z " fill="#F6F6F6" transform="translate(21,17)"/>
<path d="M0,0 L2,2 L2,7 L6,9 L1,10 L0,9 Z " fill="#F1F1F1" transform="translate(8,7)"/>
<path d="M0,0 L2,0 L1,3 L-9,3 L-9,2 Z " fill="#F7F7F7" transform="translate(20,4)"/>
</svg>
