<?xml version="1.0" encoding="UTF-8"?>
<svg version="1.1" xmlns="http://www.w3.org/2000/svg" width="28" height="28">
<path d="M0,0 L28,0 L28,28 L0,28 Z " fill="#030303" transform="translate(0,0)"/>
<path d="M0,0 L5,1 L5,3 L-1,3 L-4,5 L-7,5 L-7,7 L-2,7 L-3,12 L-7,14 L-14,14 L-15,12 L-6,11 L-4,8 L-10,8 L-8,4 L-6,1 Z " fill="#D1D1D1" transform="translate(20,7)"/>
<path d="M0,0 L5,1 L5,3 L-1,3 L-6,5 L-7,3 L-6,1 Z " fill="#C7C7C7" transform="translate(20,7)"/>
<path d="M0,0 L2,1 L1,3 L6,3 L6,7 L4,7 L4,4 L-2,4 Z " fill="#ECECEC" transform="translate(12,11)"/>
</svg>
