<?xml version="1.0" encoding="UTF-8"?>
<svg version="1.1" xmlns="http://www.w3.org/2000/svg" width="28" height="28">
<path d="M0,0 L28,0 L28,28 L0,28 Z " fill="#050505" transform="translate(0,0)"/>
<path d="M0,0 L2,0 L2,3 L-1,6 L2,7 L3,5 L5,5 L5,7 L10,6 L13,7 L13,15 L9,18 L6,18 L8,14 L9,10 L-3,9 L-4,4 Z " fill="#F0F0F0" transform="translate(9,8)"/>
<path d="M0,0 L1,0 L1,8 L-3,11 L-6,11 L-4,7 L-2,4 L0,4 Z " fill="#BDBDBD" transform="translate(21,15)"/>
<path d="M0,0 L6,0 L6,3 L-3,4 L-3,1 Z " fill="#CCCCCC" transform="translate(15,6)"/>
<path d="M0,0 L2,0 L2,3 L-4,8 L-3,3 Z " fill="#BCBCBC" transform="translate(9,8)"/>
</svg>
