<?xml version="1.0" encoding="UTF-8"?>
<svg version="1.1" xmlns="http://www.w3.org/2000/svg" width="28" height="28">
<path d="M0,0 L28,0 L28,28 L0,28 Z " fill="#040404" transform="translate(0,0)"/>
<path d="M0,0 L6,0 L4,4 L-5,7 L-6,9 L1,10 L2,14 L-2,18 L-6,20 L-11,20 L-12,19 L-12,14 L-10,14 L-10,17 L-2,14 L-1,12 L-8,12 L-10,11 L-8,6 L-3,1 Z " fill="#E3E3E3" transform="translate(18,4)"/>
<path d="M0,0 L6,0 L4,4 L-3,4 Z " fill="#EBEBEB" transform="translate(18,4)"/>
<path d="M0,0 L2,0 L2,3 L6,5 L6,6 L1,6 L0,5 Z " fill="#C5C5C5" transform="translate(6,18)"/>
</svg>
