<?xml version="1.0" encoding="UTF-8"?>
<svg version="1.1" xmlns="http://www.w3.org/2000/svg" width="28" height="28">
<path d="M0,0 L28,0 L28,28 L0,28 Z " fill="#020202" transform="translate(0,0)"/>
<path d="M0,0 L6,0 L6,2 L-8,4 L-8,6 L4,6 L5,11 L3,12 L3,8 L-5,9 L-10,11 L-12,14 L-14,14 L-13,10 L-10,2 Z " fill="#B0B0B0" transform="translate(19,7)"/>
<path d="M0,0 L2,0 L3,4 L-1,9 L-3,9 L-2,5 Z " fill="#CECECE" transform="translate(8,12)"/>
<path d="M0,0 L2,0 L1,3 L-3,6 L-7,5 L-1,1 Z " fill="#AAAAAA" transform="translate(20,19)"/>
</svg>
