<?xml version="1.0" encoding="UTF-8"?>
<svg version="1.1" xmlns="http://www.w3.org/2000/svg" width="28" height="28">
<path d="M0,0 L28,0 L28,28 L0,28 Z " fill="#020202" transform="translate(0,0)"/>
<path d="M0,0 L4,1 L2,3 L-2,3 L-3,13 L-1,11 L5,12 L6,17 L3,20 L-3,19 L-3,16 L-6,15 L-5,3 Z " fill="#D4D4D4" transform="translate(15,3)"/>
<path d="M0,0 L4,1 L3,5 L-2,4 L-2,1 Z " fill="#161616" transform="translate(15,16)"/>
<path d="M0,0 L4,1 L2,3 L-2,3 L-3,6 L-4,2 Z " fill="#BEBEBE" transform="translate(15,3)"/>
</svg>
