<?xml version="1.0" encoding="UTF-8"?>
<svg version="1.1" xmlns="http://www.w3.org/2000/svg" width="28" height="28">
<path d="M0,0 L28,0 L28,28 L0,28 Z " fill="#020202" transform="translate(0,0)"/>
<path d="M0,0 L6,0 L3,2 L-5,5 L-7,10 L-1,10 L2,12 L2,17 L-1,20 L-6,19 L-5,16 L-1,17 L-2,12 L-10,11 L-9,5 L-6,2 Z " fill="#E0E0E0" transform="translate(17,5)"/>
<path d="M0,0 L6,0 L3,2 L-5,5 L-7,10 L-9,6 L-6,2 Z " fill="#BABABA" transform="translate(17,5)"/>
<path d="M0,0 L1,4 L-1,6 L-6,5 L-5,2 L-1,3 Z " fill="#C6C6C6" transform="translate(17,19)"/>
</svg>
