<?xml version="1.0" encoding="UTF-8"?>
<svg version="1.1" xmlns="http://www.w3.org/2000/svg" width="28" height="28">
<path d="M0,0 L28,0 L28,28 L0,28 Z " fill="#020202" transform="translate(0,0)"/>
<path d="M0,0 L13,0 L12,3 L3,3 L3,9 L9,9 L10,10 L9,17 L6,20 L0,20 L-3,17 L5,17 L8,11 L4,12 L2,16 L0,16 Z " fill="#EBEBEB" transform="translate(10,5)"/>
<path d="M0,0 L4,0 L3,4 L1,7 L-8,6 L-7,4 L-5,5 L-4,1 L-4,5 L-2,4 Z " fill="#292929" transform="translate(14,16)"/>
<path d="M0,0 L10,0 L9,3 L5,3 L5,1 L0,1 Z " fill="#C6C6C6" transform="translate(13,5)"/>
</svg>
