<?xml version="1.0" encoding="UTF-8"?>
<svg version="1.1" xmlns="http://www.w3.org/2000/svg" width="28" height="28">
<path d="M0,0 L28,0 L28,28 L0,28 Z " fill="#020202" transform="translate(0,0)"/>
<path d="M0,0 L2,0 L2,3 L-7,4 L-7,6 L-3,7 L-2,12 L-6,16 L-14,15 L-18,11 L-18,9 L-14,11 L-13,12 L-6,12 L-4,9 L-11,8 L-11,4 L-9,2 Z " fill="#D7D7D7" transform="translate(21,6)"/>
<path d="M0,0 L4,2 L10,4 L6,6 L2,4 Z " fill="#B7B7B7" transform="translate(3,15)"/>
<path d="M0,0 L2,0 L2,3 L-5,4 L-5,1 Z " fill="#EDEDED" transform="translate(21,6)"/>
</svg>
