<?xml version="1.0" encoding="UTF-8"?>
<svg version="1.1" xmlns="http://www.w3.org/2000/svg" width="28" height="28">
<path d="M0,0 L28,0 L28,28 L0,28 Z " fill="#040404" transform="translate(0,0)"/>
<path d="M0,0 L4,0 L4,2 L-5,2 L-5,9 L2,9 L3,10 L3,16 L0,20 L-8,20 L-8,19 L-1,17 L1,11 L-5,13 L-7,14 L-7,1 Z " fill="#CBCBCB" transform="translate(17,5)"/>
<path d="M0,0 L3,1 L3,7 L0,11 L-8,11 L-8,10 L-1,8 L1,2 L-2,1 Z " fill="#C0C0C0" transform="translate(17,14)"/>
<path d="M0,0 L1,0 L1,5 L7,4 L2,8 L0,9 Z " fill="#F7F7F7" transform="translate(10,10)"/>
</svg>
