<?xml version="1.0" encoding="UTF-8"?>
<svg version="1.1" xmlns="http://www.w3.org/2000/svg" width="28" height="28">
<path d="M0,0 L28,0 L28,28 L0,28 Z " fill="#040404" transform="translate(0,0)"/>
<path d="M0,0 L4,1 L2,4 L8,8 L11,11 L10,15 L-3,14 L-4,12 L4,12 L8,13 L5,8 L-2,5 L-1,1 Z " fill="#C8C8C8" transform="translate(12,10)"/>
<path d="M0,0 L7,0 L10,3 L3,3 L-4,4 L-4,2 Z " fill="#D8D8D8" transform="translate(12,5)"/>
<path d="M0,0 L4,1 L1,5 L-2,5 L-1,1 Z " fill="#E6E6E6" transform="translate(12,10)"/>
</svg>
