<?xml version="1.0" encoding="UTF-8"?>
<svg version="1.1" xmlns="http://www.w3.org/2000/svg" width="28" height="28">
<path d="M0,0 L28,0 L28,28 L0,28 Z " fill="#030303" transform="translate(0,0)"/>
<path d="M0,0 L14,1 L14,3 L11,4 L0,3 L-1,7 L8,7 L10,9 L10,16 L6,19 L-6,19 L-6,16 L6,15 L7,10 L-4,11 L-5,7 Z " fill="#CDCDCD" transform="translate(11,5)"/>
<path d="M0,0 L11,1 L11,3 L0,3 Z " fill="#F2F2F2" transform="translate(5,21)"/>
<path d="M0,0 L13,0 L13,2 L10,3 L0,1 Z " fill="#F1F1F1" transform="translate(12,6)"/>
</svg>
