<?xml version="1.0" encoding="UTF-8"?>
<svg version="1.1" xmlns="http://www.w3.org/2000/svg" width="28" height="28">
<path d="M0,0 L28,0 L28,28 L0,28 Z " fill="#050505" transform="translate(0,0)"/>
<path d="M0,0 L2,0 L2,4 L10,6 L12,9 L11,14 L10,16 L4,16 L1,13 L1,11 L6,12 L9,13 L8,8 L-1,7 L-2,3 Z " fill="#D6D6D6" transform="translate(8,8)"/>
<path d="M0,0 L9,0 L13,1 L12,4 L0,3 Z " fill="#DADADA" transform="translate(13,6)"/>
<path d="M0,0 L2,0 L2,4 L7,5 L7,7 L-1,7 L-2,3 Z " fill="#ECECEC" transform="translate(8,8)"/>
</svg>
