<?xml version="1.0" encoding="UTF-8"?>
<svg version="1.1" xmlns="http://www.w3.org/2000/svg" width="28" height="28">
<path d="M0,0 L28,0 L28,28 L0,28 Z " fill="#030303" transform="translate(0,0)"/>
<path d="M0,0 L3,1 L3,3 L-4,3 L-3,9 L1,10 L-4,13 L-6,13 L-6,1 Z " fill="#D2D2D2" transform="translate(17,4)"/>
<path d="M0,0 L2,1 L2,7 L-1,10 L-6,9 L-8,5 L-1,6 Z " fill="#EFEFEF" transform="translate(18,14)"/>
<path d="M0,0 L2,1 L2,7 L0,8 L-3,6 L-1,6 Z " fill="#CBCBCB" transform="translate(18,14)"/>
</svg>
