<?xml version="1.0" encoding="UTF-8"?>
<svg version="1.1" xmlns="http://www.w3.org/2000/svg" width="28" height="28">
<path d="M0,0 L28,0 L28,28 L0,28 Z " fill="#040404" transform="translate(0,0)"/>
<path d="M0,0 L3,0 L3,3 L5,2 L16,1 L16,3 L2,6 L3,7 L11,10 L10,17 L4,20 L-3,20 L-4,17 L5,15 L9,14 L5,10 L-2,8 L-3,3 Z " fill="#E3E3E3" transform="translate(10,5)"/>
<path d="M0,0 L2,1 L2,4 L-5,4 L-6,1 Z " fill="#D1D1D1" transform="translate(12,21)"/>
<path d="M0,0 L1,3 L6,2 L6,5 L0,4 Z " fill="#292929" transform="translate(11,8)"/>
</svg>
