<?xml version="1.0" encoding="UTF-8"?>
<svg version="1.1" xmlns="http://www.w3.org/2000/svg" width="28" height="28">
<path d="M0,0 L28,0 L28,28 L0,28 Z " fill="#020202" transform="translate(0,0)"/>
<path d="M0,0 L9,0 L10,4 L1,4 L1,9 L7,9 L8,10 L8,17 L5,20 L-2,20 L-4,18 L-4,15 L-2,15 L-2,17 L5,16 L6,11 L-1,12 L-1,1 Z " fill="#DADADA" transform="translate(11,5)"/>
<path d="M0,0 L9,0 L10,4 L1,4 L0,6 Z " fill="#E4E4E4" transform="translate(11,5)"/>
<path d="M0,0 L1,0 L2,8 L8,8 L9,10 L7,14 L7,10 L0,11 Z " fill="#BBBBBB" transform="translate(10,6)"/>
</svg>
