<?xml version="1.0" encoding="UTF-8"?>
<svg version="1.1" xmlns="http://www.w3.org/2000/svg" width="28" height="28">
<path d="M0,0 L28,0 L28,28 L0,28 Z " fill="#040404" transform="translate(0,0)"/>
<path d="M0,0 L7,1 L7,3 L1,3 L-1,9 L7,7 L12,7 L14,9 L13,14 L1,20 L-1,20 L-1,18 L9,13 L11,9 L-1,12 L-5,11 L-4,5 L-2,1 Z " fill="#D9D9D9" transform="translate(11,5)"/>
<path d="M0,0 L0,3 L-9,6 L-9,4 Z " fill="#E6E6E6" transform="translate(19,19)"/>
<path d="M0,0 L7,1 L7,3 L-1,3 L-3,4 L-2,1 Z " fill="#CACACA" transform="translate(11,5)"/>
</svg>
