<?xml version="1.0" encoding="UTF-8"?>
<svg version="1.1" xmlns="http://www.w3.org/2000/svg" width="28" height="28">
<path d="M0,0 L28,0 L28,28 L0,28 Z " fill="#040404" transform="translate(0,0)"/>
<path d="M0,0 L6,0 L4,2 L-3,4 L-8,4 L-8,6 L-3,7 L-1,9 L-2,14 L-7,18 L-14,17 L-14,15 L-4,13 L-4,9 L-10,9 L-13,10 L-12,5 L-9,2 Z " fill="#DCDCDC" transform="translate(20,6)"/>
<path d="M0,0 L6,0 L4,2 L-3,4 L-8,4 L-9,6 L-10,4 L-9,2 Z M-12,5 L-10,6 L-11,10 L-13,10 Z " fill="#D6D6D6" transform="translate(20,6)"/>
<path d="M0,0 L7,2 L8,6 L6,7 L6,4 L-2,4 Z " fill="#F7F7F7" transform="translate(10,11)"/>
<path d="M0,0 L6,0 L4,2 L-1,3 L-6,2 L-6,1 Z " fill="#BDBDBD" transform="translate(20,6)"/>
</svg>
