<?xml version="1.0" encoding="UTF-8"?>
<svg version="1.1" xmlns="http://www.w3.org/2000/svg" width="28" height="28">
<path d="M0,0 L28,0 L28,28 L0,28 Z " fill="#040404" transform="translate(0,0)"/>
<path d="M0,0 L6,0 L6,2 L-2,4 L-3,7 L6,6 L7,13 L2,18 L-5,20 L-9,20 L-9,17 L-2,16 L3,14 L4,9 L-5,12 L-8,12 L-6,2 Z " fill="#DEDEDE" transform="translate(16,5)"/>
<path d="M0,0 L6,0 L6,2 L-4,4 L-5,8 L-6,8 L-6,2 Z " fill="#E1E1E1" transform="translate(16,5)"/>
<path d="M0,0 L4,0 L5,7 L2,4 L-1,3 Z " fill="#ADADAD" transform="translate(18,11)"/>
</svg>
