<?xml version="1.0" encoding="UTF-8"?>
<svg version="1.1" xmlns="http://www.w3.org/2000/svg" width="28" height="28">
<path d="M0,0 L28,0 L28,28 L0,28 Z " fill="#050505" transform="translate(0,0)"/>
<path d="M0,0 L14,2 L12,4 L-1,4 L9,6 L10,11 L7,8 L1,7 L-6,7 L-5,3 Z " fill="#D1D1D1" transform="translate(11,9)"/>
<path d="M0,0 L9,0 L12,2 L11,6 L9,3 L0,1 Z " fill="#E7E7E7" transform="translate(9,14)"/>
<path d="M0,0 L2,2 L1,3 L4,5 L-3,5 L-2,1 Z " fill="#AEAEAE" transform="translate(8,11)"/>
</svg>
