<?xml version="1.0" encoding="UTF-8"?>
<svg version="1.1" xmlns="http://www.w3.org/2000/svg" width="28" height="28">
<path d="M0,0 L28,0 L28,28 L0,28 Z " fill="#070707" transform="translate(0,0)"/>
<path d="M0,0 L5,1 L2,3 L-4,5 L-6,5 L-6,7 L3,9 L5,14 L2,19 L-3,20 L-3,17 L2,17 L2,13 L-6,12 L-6,10 L-9,10 L-9,4 L-6,3 L-6,1 Z " fill="#CACACA" transform="translate(17,4)"/>
<path d="M0,0 L5,1 L2,3 L-4,5 L-6,5 L-8,7 L-8,3 L-6,3 L-6,1 Z " fill="#A4A4A4" transform="translate(17,4)"/>
<path d="M0,0 L12,3 L8,4 L8,6 L3,6 L3,4 L0,4 Z " fill="#E3E3E3" transform="translate(8,10)"/>
</svg>
