<?xml version="1.0" encoding="UTF-8"?>
<svg version="1.1" xmlns="http://www.w3.org/2000/svg" width="28" height="28">
<path d="M0,0 L28,0 L28,28 L0,28 Z " fill="#020202" transform="translate(0,0)"/>
<path d="M0,0 L6,0 L6,2 L-3,4 L-3,6 L2,7 L3,11 L-2,16 L-9,15 L-14,11 L-14,8 L-12,8 L-9,11 L-2,12 L0,9 L-7,8 L-6,4 L-3,1 Z " fill="#C4C4C4" transform="translate(17,7)"/>
<path d="M0,0 L6,0 L6,2 L-3,4 L-3,6 L-1,7 L-7,7 L-5,3 Z " fill="#EEEEEE" transform="translate(17,7)"/>
<path d="M0,0 L6,0 L6,2 L4,3 L-2,3 Z " fill="#D3D3D3" transform="translate(17,7)"/>
</svg>
