<?xml version="1.0" encoding="UTF-8"?>
<svg version="1.1" xmlns="http://www.w3.org/2000/svg" width="28" height="28">
<path d="M0,0 L28,0 L28,28 L0,28 Z " fill="#030303" transform="translate(0,0)"/>
<path d="M0,0 L2,0 L2,2 L13,0 L12,2 L1,5 L-1,8 L9,8 L12,11 L11,15 L6,19 L4,20 L-3,20 L-5,19 L-5,12 L-3,11 L-5,9 Z " fill="#0B0B0B" transform="translate(11,5)"/>
<path d="M0,0 L2,0 L2,2 L13,0 L12,2 L1,5 L-1,8 L9,8 L12,11 L11,15 L6,19 L4,20 L-3,20 L-5,19 L-5,13 L-3,17 L5,17 L9,14 L9,11 L7,10 L-5,10 Z " fill="#C9C9C9" transform="translate(11,5)"/>
</svg>
