<?xml version="1.0" encoding="UTF-8"?>
<svg version="1.1" xmlns="http://www.w3.org/2000/svg" width="28" height="28">
<path d="M0,0 L28,0 L28,28 L0,28 Z " fill="#030303" transform="translate(0,0)"/>
<path d="M0,0 L6,0 L6,3 L0,4 L-7,7 L-8,8 L1,11 L2,15 L-4,19 L-11,20 L-11,17 L-2,15 L-1,13 L-14,11 L-13,8 L-7,3 Z " fill="#D7D7D7" transform="translate(19,5)"/>
<path d="M0,0 L4,1 L1,4 L2,6 L-5,6 Z " fill="#E9E9E9" transform="translate(10,9)"/>
<path d="M0,0 L7,1 L3,3 L-7,2 L-7,1 Z " fill="#BABABA" transform="translate(12,14)"/>
</svg>
