<?xml version="1.0" encoding="UTF-8"?>
<svg version="1.1" xmlns="http://www.w3.org/2000/svg" width="28" height="28">
<path d="M0,0 L28,0 L28,28 L0,28 Z " fill="#030303" transform="translate(0,0)"/>
<path d="M0,0 L5,0 L5,2 L-4,5 L-5,7 L0,8 L4,11 L4,17 L-1,20 L-10,20 L-14,17 L-14,15 L-8,14 L2,16 L0,11 L-10,11 L-8,6 L-4,1 Z " fill="#C9C9C9" transform="translate(18,3)"/>
<path d="M0,0 L5,0 L5,2 L-4,5 L-5,7 L-2,8 L-6,8 L-6,3 L-4,1 Z " fill="#C1C1C1" transform="translate(18,3)"/>
<path d="M0,0 L1,4 L6,4 L6,5 L-3,7 L-1,2 Z " fill="#ECECEC" transform="translate(11,7)"/>
</svg>
