<?xml version="1.0" encoding="UTF-8"?>
<svg version="1.1" xmlns="http://www.w3.org/2000/svg" width="28" height="28">
<path d="M0,0 L28,0 L28,28 L0,28 Z " fill="#050505" transform="translate(0,0)"/>
<path d="M0,0 L12,0 L11,2 L1,4 L0,6 L5,7 L11,10 L15,14 L15,19 L14,20 L7,20 L2,18 L0,14 L5,16 L12,17 L12,14 L10,14 L10,12 L6,11 L-4,6 L-2,2 Z " fill="#ECECEC" transform="translate(8,5)"/>
<path d="M0,0 L6,2 L10,7 L8,7 L7,9 L7,6 L5,6 L5,4 L1,3 L-2,1 Z " fill="#CECECE" transform="translate(13,13)"/>
</svg>
