<?xml version="1.0" encoding="UTF-8"?>
<svg version="1.1" xmlns="http://www.w3.org/2000/svg" width="28" height="28">
<path d="M0,0 L28,0 L28,28 L0,28 Z " fill="#050505" transform="translate(0,0)"/>
<path d="M0,0 L3,1 L2,2 L-5,2 L-5,5 L0,5 L2,7 L2,13 L0,17 L-2,18 L-12,18 L-17,16 L-15,12 L-13,13 L-13,15 L-1,15 L0,7 L-10,9 L-9,4 L-6,1 Z " fill="#D1D1D1" transform="translate(20,5)"/>
<path d="M0,0 L2,1 L2,3 L11,4 L7,6 L0,5 L-2,4 Z " fill="#C3C3C3" transform="translate(5,17)"/>
<path d="M0,0 L1,0 L1,6 L-1,10 L-3,11 L-9,11 L-5,9 L-2,8 Z " fill="#E8E8E8" transform="translate(21,12)"/>
</svg>
