<?xml version="1.0" encoding="UTF-8"?>
<svg version="1.1" xmlns="http://www.w3.org/2000/svg" width="28" height="28">
<path d="M0,0 L28,0 L28,28 L0,28 Z " fill="#050505" transform="translate(0,0)"/>
<path d="M0,0 L12,0 L13,2 L4,2 L4,6 L17,8 L20,11 L19,16 L18,17 L6,17 L6,15 L15,14 L16,10 L3,9 L0,7 Z " fill="#DDDDDD" transform="translate(5,6)"/>
<path d="M0,0 L5,0 L7,2 L6,7 L5,8 L-7,8 L-7,6 L2,5 L3,1 Z " fill="#EFEFEF" transform="translate(18,15)"/>
<path d="M0,0 L9,1 L5,3 L-5,2 L-5,1 Z " fill="#C3C3C3" transform="translate(13,13)"/>
</svg>
