<?xml version="1.0" encoding="UTF-8"?>
<svg version="1.1" xmlns="http://www.w3.org/2000/svg" width="28" height="28">
<path d="M0,0 L28,0 L28,28 L0,28 Z " fill="#040404" transform="translate(0,0)"/>
<path d="M0,0 L5,0 L6,3 L-3,4 L-6,7 L-3,8 L0,12 L-1,17 L-5,20 L-12,19 L-11,16 L-6,17 L-4,17 L-4,10 L-12,9 L-10,5 L-3,1 Z " fill="#DCDCDC" transform="translate(19,5)"/>
<path d="M0,0 L3,1 L5,4 L-2,4 Z " fill="#F4F4F4" transform="translate(9,10)"/>
<path d="M0,0 L5,0 L6,3 L0,3 Z " fill="#CBCBCB" transform="translate(19,5)"/>
</svg>
