<?xml version="1.0" encoding="UTF-8"?>
<svg version="1.1" xmlns="http://www.w3.org/2000/svg" width="28" height="28">
<path d="M0,0 L28,0 L28,28 L0,28 Z " fill="#030303" transform="translate(0,0)"/>
<path d="M0,0 L4,1 L4,3 L-2,5 L0,7 L-1,13 L-6,17 L-14,17 L-16,13 L-9,14 L-3,11 L-2,8 L-11,10 L-10,6 L-8,1 Z " fill="#E8E8E8" transform="translate(20,6)"/>
<path d="M0,0 L4,1 L4,3 L-2,5 L-2,6 L-7,6 L-9,5 L-8,1 Z " fill="#C4C4C4" transform="translate(20,6)"/>
<path d="M0,0 L4,1 L4,3 L-5,3 L-4,1 Z " fill="#DEDEDE" transform="translate(20,6)"/>
</svg>
