<?xml version="1.0" encoding="UTF-8"?>
<svg version="1.1" xmlns="http://www.w3.org/2000/svg" width="28" height="28">
<path d="M0,0 L28,0 L28,28 L0,28 Z " fill="#030303" transform="translate(0,0)"/>
<path d="M0,0 L7,0 L6,3 L-6,4 L1,5 L3,10 L-2,16 L-6,18 L-11,18 L-11,14 L-4,13 L0,8 L-13,9 L-12,5 L-8,1 Z " fill="#E3E3E3" transform="translate(18,7)"/>
<path d="M0,0 L2,4 L-3,10 L-7,12 L-12,12 L-12,8 L-5,7 L-1,2 Z " fill="#C2C2C2" transform="translate(19,13)"/>
<path d="M0,0 L7,0 L6,3 L1,3 Z " fill="#DEDEDE" transform="translate(6,22)"/>
</svg>
