<?xml version="1.0" encoding="UTF-8"?>
<svg version="1.1" xmlns="http://www.w3.org/2000/svg" width="28" height="28">
<path d="M0,0 L28,0 L28,28 L0,28 Z " fill="#040404" transform="translate(0,0)"/>
<path d="M0,0 L17,0 L14,2 L6,3 L4,6 L11,7 L13,9 L14,14 L10,19 L3,20 L0,17 L0,13 L2,13 L3,17 L9,16 L10,15 L10,10 L4,9 L0,11 L-1,9 L3,2 L0,2 Z " fill="#CACACA" transform="translate(8,5)"/>
<path d="M0,0 L2,3 L-3,8 L-5,6 L-1,3 Z " fill="#E7E7E7" transform="translate(20,16)"/>
<path d="M0,0 L5,1 L0,5 L-2,3 Z " fill="#EBEBEB" transform="translate(9,11)"/>
</svg>
