<?xml version="1.0" encoding="UTF-8"?>
<svg version="1.1" xmlns="http://www.w3.org/2000/svg" width="28" height="28">
<path d="M0,0 L28,0 L28,28 L0,28 Z " fill="#020202" transform="translate(0,0)"/>
<path d="M0,0 L11,0 L11,2 L0,3 L-4,6 L-5,9 L3,10 L4,13 L1,18 L-2,20 L-7,19 L-7,16 L0,16 L0,12 L-6,12 L-8,10 L-7,4 L-3,1 Z " fill="#C4C4C4" transform="translate(16,5)"/>
<path d="M0,0 L0,3 L-1,6 L4,7 L4,8 L-3,8 L-4,4 L-2,4 Z " fill="#F5F5F5" transform="translate(12,8)"/>
<path d="M0,0 L8,0 L7,3 L2,4 L0,3 Z " fill="#E2E2E2" transform="translate(9,21)"/>
</svg>
