<?xml version="1.0" encoding="UTF-8"?>
<svg version="1.1" xmlns="http://www.w3.org/2000/svg" width="28" height="28">
<path d="M0,0 L28,0 L28,28 L0,28 Z " fill="#040404" transform="translate(0,0)"/>
<path d="M0,0 L2,0 L2,3 L9,4 L10,5 L10,12 L6,15 L-2,15 L-5,13 L-5,9 L5,10 L7,10 L6,8 L-1,8 L-2,5 Z " fill="#E6E6E6" transform="translate(10,8)"/>
<path d="M0,0 L8,0 L9,4 L-2,4 L-2,1 Z " fill="#F1F1F1" transform="translate(16,5)"/>
<path d="M0,0 L5,1 L5,3 L-2,4 L-3,1 Z " fill="#222222" transform="translate(12,15)"/>
</svg>
