<?xml version="1.0" encoding="UTF-8"?>
<svg version="1.1" xmlns="http://www.w3.org/2000/svg" width="28" height="28">
<path d="M0,0 L28,0 L28,28 L0,28 Z " fill="#040404" transform="translate(0,0)"/>
<path d="M0,0 L4,1 L7,4 L7,9 L4,12 L-1,13 L-2,10 L3,9 L4,4 L-4,5 L-3,1 Z " fill="#E7E7E7" transform="translate(11,12)"/>
<path d="M0,0 L2,2 L-10,6 L-12,6 L-10,2 Z " fill="#DDDDDD" transform="translate(22,5)"/>
<path d="M0,0 L1,0 L1,5 L-2,8 L-7,9 L-8,6 L-3,5 L-1,1 Z " fill="#CECECE" transform="translate(17,16)"/>
</svg>
