<?xml version="1.0" encoding="UTF-8"?>
<svg version="1.1" xmlns="http://www.w3.org/2000/svg" width="28" height="28">
<path d="M0,0 L28,0 L28,28 L0,28 Z " fill="#040404" transform="translate(0,0)"/>
<path d="M0,0 L2,0 L2,3 L-9,4 L-9,9 L-6,7 L-1,7 L2,10 L2,17 L-3,20 L-7,20 L-7,15 L-6,17 L0,16 L-2,10 L-10,11 L-11,2 L-10,1 Z " fill="#CFCFCF" transform="translate(19,5)"/>
<path d="M0,0 L1,2 L7,2 L7,4 L0,5 Z " fill="#EAEAEA" transform="translate(12,20)"/>
<path d="M0,0 L2,0 L2,3 L-9,3 L-9,2 Z " fill="#F1F1F1" transform="translate(19,5)"/>
</svg>
