<?xml version="1.0" encoding="UTF-8"?>
<svg version="1.1" xmlns="http://www.w3.org/2000/svg" width="28" height="28">
<path d="M0,0 L28,0 L28,28 L0,28 Z " fill="#010101" transform="translate(0,0)"/>
<path d="M0,0 L14,0 L13,4 L6,4 L2,3 L1,7 L7,7 L9,8 L8,15 L4,18 L-5,18 L-6,15 L-3,14 L-3,16 L4,15 L6,9 L-4,12 L-3,7 L0,2 Z " fill="#CFCFCF" transform="translate(11,6)"/>
<path d="M0,0 L3,0 L3,5 L1,7 L-6,7 L-7,4 L-5,4 L-5,2 Z " fill="#1E1E1E" transform="translate(14,15)"/>
<path d="M0,0 L1,0 L1,6 L-3,9 L-12,9 L-13,6 L-10,5 L-10,7 L-3,6 Z " fill="#EAEAEA" transform="translate(18,15)"/>
<path d="M0,0 L6,1 L6,6 L3,5 L3,2 L-1,1 Z " fill="#AEAEAE" transform="translate(14,13)"/>
</svg>
