<?xml version="1.0" encoding="UTF-8"?>
<svg version="1.1" xmlns="http://www.w3.org/2000/svg" width="28" height="28">
<path d="M0,0 L28,0 L28,28 L0,28 Z " fill="#040404" transform="translate(0,0)"/>
<path d="M0,0 L11,0 L13,1 L13,4 L4,3 L4,8 L7,8 L7,6 L12,8 L15,13 L15,17 L13,17 L13,19 L11,20 L3,20 L1,18 L2,14 L5,15 L5,17 L12,16 L11,11 L8,10 L3,12 L0,3 Z " fill="#D7D7D7" transform="translate(7,4)"/>
<path d="M0,0 L3,1 L3,3 L9,3 L9,6 L1,6 L-1,4 Z " fill="#E6E6E6" transform="translate(9,18)"/>
</svg>
