<?xml version="1.0" encoding="UTF-8"?>
<svg version="1.1" xmlns="http://www.w3.org/2000/svg" width="28" height="28">
<path d="M0,0 L28,0 L28,28 L0,28 Z " fill="#020202" transform="translate(0,0)"/>
<path d="M0,0 L10,0 L9,3 L0,3 L0,8 L6,9 L9,12 L9,17 L5,20 L-5,20 L-5,17 L6,16 L5,13 L-3,11 L-3,1 Z " fill="#C7C7C7" transform="translate(12,5)"/>
<path d="M0,0 L1,0 L1,5 L4,6 L4,8 L-1,8 L-1,1 Z " fill="#F9F9F9" transform="translate(10,8)"/>
<path d="M0,0 L3,0 L2,3 L-5,3 L-5,1 Z " fill="#F5F5F5" transform="translate(19,5)"/>
</svg>
