<?xml version="1.0" encoding="UTF-8"?>
<svg version="1.1" xmlns="http://www.w3.org/2000/svg" width="28" height="28">
<path d="M0,0 L28,0 L28,28 L0,28 Z " fill="#030303" transform="translate(0,0)"/>
<path d="M0,0 L5,0 L5,2 L-4,3 L-6,6 L-3,8 L-3,14 L-5,16 L-13,16 L-15,15 L-15,12 L-5,14 L-5,9 L-12,9 L-12,7 L-8,3 L-8,1 Z " fill="#CFCFCF" transform="translate(20,7)"/>
<path d="M0,0 L5,0 L5,2 L-4,3 L-6,4 L-8,3 L-8,1 Z " fill="#E2E2E2" transform="translate(20,7)"/>
<path d="M0,0 L9,2 L5,4 L0,3 Z " fill="#B3B3B3" transform="translate(5,19)"/>
</svg>
