<?xml version="1.0" encoding="UTF-8"?>
<svg version="1.1" xmlns="http://www.w3.org/2000/svg" width="28" height="28">
<path d="M0,0 L28,0 L28,28 L0,28 Z " fill="#050505" transform="translate(0,0)"/>
<path d="M0,0 L4,0 L4,2 L-6,4 L-6,6 L-1,7 L2,9 L1,18 L-5,20 L-11,19 L-10,15 L-8,13 L0,14 L0,10 L-10,10 L-9,6 L-8,2 Z " fill="#ECECEC" transform="translate(18,4)"/>
<path d="M0,0 L5,1 L6,3 L3,5 L-1,5 Z " fill="#9A9A9A" transform="translate(10,17)"/>
<path d="M0,0 L5,1 L5,4 L-2,5 L-1,1 Z " fill="#CECECE" transform="translate(10,9)"/>
</svg>
