<?xml version="1.0" encoding="UTF-8"?>
<svg version="1.1" xmlns="http://www.w3.org/2000/svg" width="28" height="28">
<path d="M0,0 L28,0 L28,28 L0,28 Z " fill="#030303" transform="translate(0,0)"/>
<path d="M0,0 L3,1 L1,2 L0,6 L10,9 L11,14 L8,17 L5,18 L-3,18 L-3,15 L-1,15 L-1,17 L8,13 L9,10 L0,8 L-3,6 L-2,2 Z " fill="#BDBDBD" transform="translate(9,6)"/>
<path d="M0,0 L11,0 L11,3 L1,3 L-3,4 L-2,1 Z " fill="#BDBDBD" transform="translate(14,6)"/>
<path d="M0,0 L1,3 L-4,6 L-12,6 L-12,3 L-10,3 L-10,5 L-1,1 Z " fill="#E7E7E7" transform="translate(18,18)"/>
</svg>
