<?xml version="1.0" encoding="UTF-8"?>
<svg version="1.1" xmlns="http://www.w3.org/2000/svg" width="28" height="28">
<path d="M0,0 L28,0 L28,28 L0,28 Z " fill="#030303" transform="translate(0,0)"/>
<path d="M0,0 L8,0 L8,3 L-1,3 L-2,7 L6,9 L9,12 L8,19 L0,20 L-4,16 L-3,12 L-2,11 L-6,10 L-4,1 Z " fill="#CCCCCC" transform="translate(13,4)"/>
<path d="M0,0 L8,0 L8,3 L-1,3 L-2,9 L-5,9 L-4,1 Z " fill="#DEDEDE" transform="translate(13,4)"/>
<path d="M0,0 L1,0 L0,7 L-8,8 L-11,5 L-10,1 L-9,4 L-2,4 Z " fill="#EBEBEB" transform="translate(21,16)"/>
<path d="M0,0 L5,1 L6,5 L5,6 L-2,5 L-2,1 Z " fill="#0F0F0F" transform="translate(14,15)"/>
</svg>
