<?xml version="1.0" encoding="UTF-8"?>
<svg version="1.1" xmlns="http://www.w3.org/2000/svg" width="28" height="28">
<path d="M0,0 L28,0 L28,28 L0,28 Z " fill="#030303" transform="translate(0,0)"/>
<path d="M0,0 L1,4 L-7,4 L-7,12 L-3,9 L2,10 L3,16 L-2,20 L-7,20 L-9,14 L-10,1 L0,2 Z " fill="#E4E4E4" transform="translate(19,4)"/>
<path d="M0,0 L1,4 L-7,4 L-8,8 L-10,7 L-10,1 L0,2 Z " fill="#D6D6D6" transform="translate(19,4)"/>
<path d="M0,0 L1,0 L1,5 L-1,7 L-5,7 L-5,3 Z " fill="#0E0E0E" transform="translate(18,15)"/>
<path d="M0,0 L5,1 L6,7 L2,8 L3,1 Z " fill="#C4C4C4" transform="translate(16,13)"/>
</svg>
