<?xml version="1.0" encoding="UTF-8"?>
<svg version="1.1" xmlns="http://www.w3.org/2000/svg" width="28" height="28">
<path d="M0,0 L28,0 L28,28 L0,28 Z " fill="#040404" transform="translate(0,0)"/>
<path d="M0,0 L14,0 L14,3 L2,3 L2,7 L9,7 L14,10 L15,18 L13,20 L7,20 L4,18 L4,15 L6,15 L6,17 L11,17 L10,11 L-1,10 Z " fill="#DCDCDC" transform="translate(7,5)"/>
<path d="M0,0 L14,0 L14,3 L2,4 L0,7 Z " fill="#F2F2F2" transform="translate(7,5)"/>
<path d="M0,0 L10,0 L11,3 L8,4 L7,2 L0,1 Z " fill="#B3B3B3" transform="translate(10,14)"/>
</svg>
