<?xml version="1.0" encoding="UTF-8"?>
<svg version="1.1" xmlns="http://www.w3.org/2000/svg" width="28" height="28">
<path d="M0,0 L28,0 L28,28 L0,28 Z " fill="#070707" transform="translate(0,0)"/>
<path d="M0,0 L2,0 L6,4 L13,3 L14,0 L15,5 L14,7 L5,7 L0,3 Z " fill="#B0B0B0" transform="translate(6,18)"/>
<path d="M0,0 L6,0 L6,2 L-3,5 L-5,6 L-11,5 L-10,2 Z " fill="#EBEBEB" transform="translate(20,5)"/>
<path d="M0,0 L2,2 L1,6 L-4,6 L-3,3 L0,3 Z " fill="#EBEBEB" transform="translate(19,18)"/>
<path d="M0,0 L6,0 L6,2 L0,3 L-3,1 Z " fill="#B6B6B6" transform="translate(20,5)"/>
</svg>
