<?xml version="1.0" encoding="UTF-8"?>
<svg version="1.1" xmlns="http://www.w3.org/2000/svg" width="28" height="28">
<path d="M0,0 L28,0 L28,28 L0,28 Z " fill="#020202" transform="translate(0,0)"/>
<path d="M0,0 L12,0 L10,3 L-1,4 L3,10 L2,15 L-8,15 L-8,11 L-6,11 L-6,13 L-1,13 L-1,9 L-6,8 L-5,4 Z " fill="#DFDFDF" transform="translate(14,8)"/>
<path d="M0,0 L3,1 L4,7 L3,8 L-7,8 L-7,4 L-5,4 L-5,6 L0,6 Z " fill="#D9D9D9" transform="translate(13,15)"/>
<path d="M0,0 L2,0 L2,2 L10,3 L10,4 L0,4 Z " fill="#7F7F7F" transform="translate(6,19)"/>
</svg>
