<?xml version="1.0" encoding="UTF-8"?>
<svg version="1.1" xmlns="http://www.w3.org/2000/svg" width="28" height="28">
<path d="M0,0 L28,0 L28,28 L0,28 Z " fill="#030303" transform="translate(0,0)"/>
<path d="M0,0 L10,0 L6,1 L6,3 L10,4 L11,10 L6,15 L4,16 L-3,16 L-8,14 L-9,10 L-6,10 L-5,12 L5,12 L7,10 L8,5 L0,6 L-4,8 L-8,7 L-7,3 Z " fill="#E3E3E3" transform="translate(13,7)"/>
<path d="M0,0 L3,3 L10,4 L10,5 L1,6 L-1,1 Z " fill="#C2C2C2" transform="translate(5,16)"/>
<path d="M0,0 L2,1 L1,5 L-4,6 L-3,2 Z " fill="#CACACA" transform="translate(9,8)"/>
</svg>
