<?xml version="1.0" encoding="UTF-8"?>
<svg version="1.1" xmlns="http://www.w3.org/2000/svg" width="28" height="28">
<path d="M0,0 L28,0 L28,28 L0,28 Z " fill="#050505" transform="translate(0,0)"/>
<path d="M0,0 L1,3 L-10,6 L-10,7 L0,8 L3,13 L2,18 L0,20 L-8,20 L-12,14 L-9,13 L-7,16 L0,16 L0,12 L-10,12 L-14,10 L-14,3 L-5,1 Z " fill="#D4D4D4" transform="translate(20,4)"/>
<path d="M0,0 L7,0 L10,4 L9,9 L7,11 L-1,11 L-5,5 L-2,4 L0,7 L7,7 L7,3 L2,3 L2,1 Z " fill="#EAEAEA" transform="translate(13,13)"/>
</svg>
