<?xml version="1.0" encoding="UTF-8"?>
<svg version="1.1" xmlns="http://www.w3.org/2000/svg" width="28" height="28">
<path d="M0,0 L28,0 L28,28 L0,28 Z " fill="#050505" transform="translate(0,0)"/>
<path d="M0,0 L2,0 L0,5 L2,4 L9,4 L13,6 L14,8 L14,14 L11,16 L3,16 L-6,12 L-4,11 L4,13 L10,13 L11,8 L10,7 L0,7 L0,9 L-2,9 L-2,2 Z " fill="#DDDDDD" transform="translate(9,7)"/>
<path d="M0,0 L7,0 L11,2 L12,4 L12,10 L10,8 L8,3 L0,1 Z " fill="#B8B8B8" transform="translate(11,11)"/>
<path d="M0,0 L4,0 L4,2 L-6,4 L-6,2 Z " fill="#DCDCDC" transform="translate(19,3)"/>
</svg>
