<?xml version="1.0" encoding="UTF-8"?>
<svg version="1.1" xmlns="http://www.w3.org/2000/svg" width="28" height="28">
<path d="M0,0 L28,0 L28,28 L0,28 Z " fill="#040404" transform="translate(0,0)"/>
<path d="M0,0 L3,1 L2,3 L-12,7 L-11,7 L-5,7 L-2,10 L-1,19 L-6,20 L-4,17 L-4,12 L-5,11 L-12,12 L-16,13 L-16,6 L-15,3 L-6,2 Z " fill="#DBDBDB" transform="translate(22,6)"/>
<path d="M0,0 L4,2 L6,6 L6,12 L1,13 L3,10 L3,5 L-2,3 L0,2 Z " fill="#CDCDCD" transform="translate(15,13)"/>
<path d="M0,0 L1,2 L4,0 L8,0 L8,2 L2,6 L-1,6 L-1,1 Z " fill="#F3F3F3" transform="translate(7,13)"/>
</svg>
