<?xml version="1.0" encoding="UTF-8"?>
<svg version="1.1" xmlns="http://www.w3.org/2000/svg" width="28" height="28">
<path d="M0,0 L28,0 L28,28 L0,28 Z " fill="#000000" transform="translate(0,0)"/>
<path d="M0,0 L4,0 L4,3 L-7,4 L-6,9 L-10,13 L-15,14 L-16,13 L-16,8 L-8,1 Z " fill="#858585" transform="translate(22,8)"/>
<path d="M0,0 L3,2 L2,7 L-3,10 L-7,9 L-7,4 L-5,4 L-5,7 L0,6 L0,4 L-3,3 Z " fill="#E0E0E0" transform="translate(13,12)"/>
<path d="M0,0 L4,0 L4,3 L-7,3 L-7,2 Z " fill="#E7E7E7" transform="translate(22,8)"/>
</svg>
