<?xml version="1.0" encoding="UTF-8"?>
<svg version="1.1" xmlns="http://www.w3.org/2000/svg" width="28" height="28">
<path d="M0,0 L28,0 L28,28 L0,28 Z " fill="#030303" transform="translate(0,0)"/>
<path d="M0,0 L4,1 L1,4 L-6,4 L-5,10 L-7,14 L-11,16 L-15,15 L-16,14 L-16,9 L-12,9 L-10,5 L-7,1 L-1,1 Z " fill="#E0E0E0" transform="translate(22,7)"/>
<path d="M0,0 L1,3 L-1,6 L-6,7 L-7,6 L-7,1 Z " fill="#D0D0D0" transform="translate(13,15)"/>
<path d="M0,0 L1,3 L-1,5 L-5,4 L-3,1 Z " fill="#131313" transform="translate(13,15)"/>
</svg>
