<?xml version="1.0" encoding="UTF-8"?>
<svg version="1.1" xmlns="http://www.w3.org/2000/svg" width="28" height="28">
<path d="M0,0 L28,0 L28,28 L0,28 Z " fill="#030303" transform="translate(0,0)"/>
<path d="M0,0 L3,0 L2,3 L-7,5 L-7,11 L-12,16 L-17,15 L-17,10 L-14,11 L-14,14 L-12,14 L-11,10 L-14,10 L-12,6 L-9,2 Z " fill="#DEDEDE" transform="translate(23,7)"/>
<path d="M0,0 L3,1 L3,4 L5,4 L7,0 L8,4 L5,6 L0,5 Z " fill="#CFCFCF" transform="translate(6,17)"/>
<path d="M0,0 L2,0 L2,2 L4,2 L3,8 L1,6 L-3,5 L-1,1 Z " fill="#F7F7F7" transform="translate(12,12)"/>
</svg>
