<?xml version="1.0" encoding="UTF-8"?>
<svg version="1.1" xmlns="http://www.w3.org/2000/svg" width="28" height="28">
<path d="M0,0 L28,0 L28,28 L0,28 Z " fill="#030303" transform="translate(0,0)"/>
<path d="M0,0 L13,0 L16,2 L15,4 L5,4 L0,5 L-1,7 L9,7 L10,11 L3,19 L-2,20 L-2,17 L4,14 L8,9 L-3,9 L-4,6 Z " fill="#F0F0F0" transform="translate(10,7)"/>
<path d="M0,0 L13,0 L16,2 L15,4 L0,4 Z " fill="#CACACA" transform="translate(10,7)"/>
<path d="M0,0 L3,1 L-5,8 L-8,8 L-8,5 L-2,2 Z " fill="#D6D6D6" transform="translate(16,19)"/>
</svg>
