<?xml version="1.0" encoding="UTF-8"?>
<svg version="1.1" xmlns="http://www.w3.org/2000/svg" width="28" height="28">
<path d="M0,0 L28,0 L28,28 L0,28 Z " fill="#040404" transform="translate(0,0)"/>
<path d="M0,0 L10,0 L11,3 L3,3 L0,2 L0,7 L10,7 L15,12 L13,19 L12,20 L3,20 L0,18 L0,16 L11,16 L12,12 L9,10 L1,10 L-2,11 L-3,1 Z " fill="#D0D0D0" transform="translate(9,4)"/>
<path d="M0,0 L10,0 L11,3 L3,3 L0,2 L1,8 L-1,8 L-1,6 L-3,6 L-3,1 Z " fill="#8D8D8D" transform="translate(9,4)"/>
<path d="M0,0 L2,1 L0,8 L-5,8 L-1,4 Z " fill="#E7E7E7" transform="translate(22,15)"/>
</svg>
