<?xml version="1.0" encoding="UTF-8"?>
<svg version="1.1" xmlns="http://www.w3.org/2000/svg" width="28" height="28">
<path d="M0,0 L28,0 L28,28 L0,28 Z " fill="#020202" transform="translate(0,0)"/>
<path d="M0,0 L8,0 L8,3 L1,3 L-4,8 L1,9 L3,10 L3,17 L-1,20 L-8,20 L-9,17 L-8,15 L-6,16 L-7,18 L-2,18 L0,16 L-1,10 L-6,9 L-5,5 Z " fill="#DADADA" transform="translate(15,5)"/>
<path d="M0,0 L2,0 L2,7 L-2,10 L-9,10 L-10,7 L-9,5 L-7,6 L-8,8 L-3,8 L-1,6 L-1,1 Z " fill="#AFAFAF" transform="translate(16,15)"/>
</svg>
