<?xml version="1.0" encoding="UTF-8"?>
<svg version="1.1" xmlns="http://www.w3.org/2000/svg" width="28" height="28">
<path d="M0,0 L28,0 L28,28 L0,28 Z " fill="#030303" transform="translate(0,0)"/>
<path d="M0,0 L4,1 L4,3 L-1,4 L-8,4 L-7,8 L-5,9 L-5,15 L-9,18 L-14,18 L-15,16 L-8,13 L-7,10 L-13,10 L-10,1 Z " fill="#DCDCDC" transform="translate(21,6)"/>
<path d="M0,0 L4,1 L4,3 L-3,4 L-3,2 L-6,1 Z " fill="#CBCBCB" transform="translate(21,6)"/>
<path d="M0,0 L7,1 L7,3 L-1,5 Z " fill="#F4F4F4" transform="translate(11,7)"/>
</svg>
