<?xml version="1.0" encoding="UTF-8"?>
<svg version="1.1" xmlns="http://www.w3.org/2000/svg" width="28" height="28">
<path d="M0,0 L28,0 L28,28 L0,28 Z " fill="#030303" transform="translate(0,0)"/>
<path d="M0,0 L1,3 L5,4 L9,8 L9,13 L4,17 L0,16 L-2,13 L-2,10 L0,10 L0,14 L6,13 L5,8 L-1,6 L-1,1 Z " fill="#C2C2C2" transform="translate(10,8)"/>
<path d="M0,0 L1,3 L5,4 L5,6 L-1,6 L-1,1 Z " fill="#E3E3E3" transform="translate(10,8)"/>
<path d="M0,0 L4,0 L4,3 L-4,4 L-3,1 Z " fill="#E7E7E7" transform="translate(17,5)"/>
</svg>
