<?xml version="1.0" encoding="UTF-8"?>
<svg version="1.1" xmlns="http://www.w3.org/2000/svg" width="28" height="28">
<path d="M0,0 L28,0 L28,28 L0,28 Z " fill="#010101" transform="translate(0,0)"/>
<path d="M0,0 L4,0 L4,2 L2,2 L2,4 L6,6 L5,11 L1,12 L1,10 L3,9 L1,5 L-1,4 Z " fill="#E1E1E1" transform="translate(8,11)"/>
<path d="M0,0 L7,0 L6,2 L-5,4 L-5,2 Z " fill="#BABABA" transform="translate(18,9)"/>
<path d="M0,0 L4,0 L4,2 L2,2 L2,4 L4,5 L-1,4 Z " fill="#ABABAB" transform="translate(8,11)"/>
</svg>
