<?xml version="1.0" encoding="UTF-8"?>
<svg version="1.1" xmlns="http://www.w3.org/2000/svg" width="28" height="28">
<path d="M0,0 L28,0 L28,28 L0,28 Z " fill="#050505" transform="translate(0,0)"/>
<path d="M0,0 L2,0 L6,4 L11,6 L11,7 L3,8 L1,7 L1,9 L5,10 L7,13 L7,19 L5,20 L-4,20 L-7,18 L-7,16 L-5,16 L-4,14 L-4,16 L4,17 L2,12 L-2,9 L-1,1 Z " fill="#EBEBEB" transform="translate(12,3)"/>
<path d="M0,0 L1,3 L8,4 L8,5 L1,6 L-2,4 L-2,2 L0,2 Z " fill="#B1B1B1" transform="translate(7,17)"/>
<path d="M0,0 L2,0 L4,3 L4,6 L1,6 L1,4 L-1,4 Z " fill="#DCDCDC" transform="translate(12,3)"/>
</svg>
