<?xml version="1.0" encoding="UTF-8"?>
<svg version="1.1" xmlns="http://www.w3.org/2000/svg" width="28" height="28">
<path d="M0,0 L28,0 L28,28 L0,28 Z " fill="#020202" transform="translate(0,0)"/>
<path d="M0,0 L4,1 L13,0 L14,2 L2,4 L3,6 L9,6 L12,10 L12,16 L9,20 L2,19 L-1,16 L-2,13 L2,15 L3,16 L8,16 L9,8 L2,9 L-1,6 L-1,1 Z " fill="#C7C7C7" transform="translate(9,5)"/>
<path d="M0,0 L2,1 L2,7 L-1,11 L-8,10 L-11,7 L-12,4 L-8,6 L-7,7 L-2,7 Z " fill="#E6E6E6" transform="translate(19,14)"/>
<path d="M0,0 L4,2 L9,4 L5,6 L2,5 Z " fill="#CFCFCF" transform="translate(7,18)"/>
</svg>
