<?xml version="1.0" encoding="UTF-8"?>
<svg version="1.1" xmlns="http://www.w3.org/2000/svg" width="28" height="28">
<path d="M0,0 L28,0 L28,28 L0,28 Z " fill="#030303" transform="translate(0,0)"/>
<path d="M0,0 L2,0 L2,2 L7,2 L7,4 L-1,5 L-3,9 L2,10 L2,17 L-2,20 L-5,19 L-4,16 L-2,17 L-1,12 L-5,11 L-6,7 L-4,3 Z " fill="#BABABA" transform="translate(15,5)"/>
<path d="M0,0 L4,0 L4,7 L0,10 L-3,9 L-2,6 L1,6 L2,1 Z " fill="#EDEDED" transform="translate(13,15)"/>
<path d="M0,0 L2,0 L2,2 L7,2 L7,4 L-3,5 L-1,1 Z " fill="#E7E7E7" transform="translate(15,5)"/>
</svg>
