<?xml version="1.0" encoding="UTF-8"?>
<svg version="1.1" xmlns="http://www.w3.org/2000/svg" width="28" height="28">
<path d="M0,0 L28,0 L28,28 L0,28 Z " fill="#040404" transform="translate(0,0)"/>
<path d="M0,0 L9,1 L9,3 L-4,3 L-5,7 L2,8 L4,10 L3,14 L-1,17 L-9,18 L-11,15 L-1,14 L2,10 L-8,10 L-7,2 Z " fill="#D4D4D4" transform="translate(17,6)"/>
<path d="M0,0 L9,1 L9,3 L-4,3 L-5,7 L-8,8 L-7,2 Z " fill="#BDBDBD" transform="translate(17,6)"/>
<path d="M0,0 L9,1 L10,5 L9,3 L-1,3 Z " fill="#EDEDED" transform="translate(10,13)"/>
</svg>
