<?xml version="1.0" encoding="UTF-8"?>
<svg version="1.1" xmlns="http://www.w3.org/2000/svg" width="28" height="28">
<path d="M0,0 L28,0 L28,28 L0,28 Z " fill="#040404" transform="translate(0,0)"/>
<path d="M0,0 L2,0 L2,5 L-7,4 L-6,12 L-4,12 L-4,10 L1,9 L3,11 L3,18 L0,20 L-7,19 L-10,16 L-9,4 L-8,2 L0,2 Z " fill="#D0D0D0" transform="translate(18,4)"/>
<path d="M0,0 L2,0 L2,5 L-7,4 L-7,13 L-4,14 L-8,17 L-9,14 L-9,4 L-8,2 L0,2 Z " fill="#F4F4F4" transform="translate(18,4)"/>
<path d="M0,0 L3,0 L3,5 L2,6 L-5,5 Z " fill="#151515" transform="translate(16,16)"/>
<path d="M0,0 L2,0 L2,5 L-8,3 L-8,2 L0,2 Z " fill="#D7D7D7" transform="translate(18,4)"/>
</svg>
