<?xml version="1.0" encoding="UTF-8"?>
<svg version="1.1" xmlns="http://www.w3.org/2000/svg" width="28" height="28">
<path d="M0,0 L28,0 L28,28 L0,28 Z " fill="#010101" transform="translate(0,0)"/>
<path d="M0,0 L4,0 L4,2 L-1,4 L-4,4 L-4,7 L1,7 L5,11 L5,17 L1,20 L-6,19 L-7,15 L-5,16 L3,16 L1,11 L-4,11 L-5,13 L-8,13 L-7,3 Z " fill="#E0E0E0" transform="translate(16,4)"/>
<path d="M0,0 L4,0 L4,2 L-1,4 L-4,4 L-4,7 L0,9 L-4,11 L-5,13 L-8,13 L-7,3 Z " fill="#C6C6C6" transform="translate(16,4)"/>
</svg>
