<?xml version="1.0" encoding="UTF-8"?>
<svg version="1.1" xmlns="http://www.w3.org/2000/svg" width="28" height="28">
<path d="M0,0 L28,0 L28,28 L0,28 Z " fill="#020202" transform="translate(0,0)"/>
<path d="M0,0 L5,2 L6,5 L1,3 L-1,9 L4,10 L4,19 L3,20 L-3,20 L-4,11 L-2,2 Z " fill="#F2F2F2" transform="translate(14,4)"/>
<path d="M0,0 L5,2 L6,5 L1,3 L-1,9 L-3,8 L-1,1 Z " fill="#CECECE" transform="translate(14,4)"/>
<path d="M0,0 L3,0 L3,6 L0,8 L-1,7 L-1,1 Z " fill="#161616" transform="translate(13,15)"/>
<path d="M0,0 L3,1 L3,10 L1,11 L-1,9 L1,2 L-1,1 Z " fill="#D2D2D2" transform="translate(15,13)"/>
</svg>
