<?xml version="1.0" encoding="UTF-8"?>
<svg version="1.1" xmlns="http://www.w3.org/2000/svg" width="28" height="28">
<path d="M0,0 L28,0 L28,28 L0,28 Z " fill="#050505" transform="translate(0,0)"/>
<path d="M0,0 L3,0 L2,3 L-7,5 L-8,7 L0,8 L3,11 L2,15 L-1,18 L-9,18 L-17,15 L-17,13 L-10,14 L-1,14 L0,10 L-12,9 L-11,3 L-9,1 L-2,1 Z " fill="#DDDDDD" transform="translate(20,5)"/>
<path d="M0,0 L7,1 L8,2 L15,3 L14,5 L8,5 L0,2 Z " fill="#E5E5E5" transform="translate(3,18)"/>
<path d="M0,0 L3,0 L2,3 L-3,4 L-7,3 L-6,1 Z " fill="#B7B7B7" transform="translate(20,5)"/>
</svg>
