<?xml version="1.0" encoding="UTF-8"?>
<svg version="1.1" xmlns="http://www.w3.org/2000/svg" width="28" height="28">
<path d="M0,0 L28,0 L28,28 L0,28 Z " fill="#040404" transform="translate(0,0)"/>
<path d="M0,0 L13,0 L11,2 L0,4 L-2,7 L6,7 L10,9 L10,14 L4,18 L-4,18 L-7,15 L-7,12 L-5,12 L-4,15 L4,15 L7,13 L7,10 L-5,9 L-4,5 Z " fill="#CDCDCD" transform="translate(12,6)"/>
<path d="M0,0 L13,0 L11,2 L0,4 L-2,7 L6,7 L6,8 L-5,9 L-4,5 Z " fill="#D8D8D8" transform="translate(12,6)"/>
<path d="M0,0 L9,0 L10,1 L10,6 L7,2 L0,1 Z " fill="#A0A0A0" transform="translate(12,14)"/>
</svg>
