<?xml version="1.0" encoding="UTF-8"?>
<svg version="1.1" xmlns="http://www.w3.org/2000/svg" width="28" height="28">
<path d="M0,0 L28,0 L28,28 L0,28 Z " fill="#040404" transform="translate(0,0)"/>
<path d="M0,0 L9,0 L10,3 L-4,3 L-4,6 L4,6 L8,10 L8,17 L2,20 L-3,20 L-6,18 L-6,16 L4,16 L5,12 L4,10 L-8,10 L-7,1 Z " fill="#E8E8E8" transform="translate(14,5)"/>
<path d="M0,0 L9,0 L10,3 L-4,3 L-6,2 L-7,6 L-7,1 Z " fill="#C1C1C1" transform="translate(14,5)"/>
<path d="M0,0 L5,1 L5,4 L-4,3 Z " fill="#C8C8C8" transform="translate(14,11)"/>
</svg>
