<?xml version="1.0" encoding="UTF-8"?>
<svg version="1.1" xmlns="http://www.w3.org/2000/svg" width="28" height="28">
<path d="M0,0 L28,0 L28,28 L0,28 Z " fill="#010101" transform="translate(0,0)"/>
<path d="M0,0 L2,0 L2,2 L6,3 L7,4 L6,11 L5,12 L0,12 L-3,9 L-2,7 L4,8 L5,5 L-2,5 L-1,1 Z " fill="#E8E8E8" transform="translate(10,13)"/>
<path d="M0,0 L5,1 L5,4 L-6,4 L-5,1 Z " fill="#DDDDDD" transform="translate(20,5)"/>
<path d="M0,0 L1,2 L8,2 L7,6 L1,5 L-1,4 Z " fill="#212121" transform="translate(7,16)"/>
<path d="M0,0 L9,1 L8,5 L3,5 L0,2 Z " fill="#CDCDCD" transform="translate(7,20)"/>
</svg>
