<?xml version="1.0" encoding="UTF-8"?>
<svg version="1.1" xmlns="http://www.w3.org/2000/svg" width="28" height="28">
<path d="M0,0 L28,0 L28,28 L0,28 Z " fill="#030303" transform="translate(0,0)"/>
<path d="M0,0 L1,3 L6,5 L7,6 L7,12 L4,15 L-3,14 L-6,12 L-6,10 L5,12 L4,7 L-3,6 L-2,2 Z " fill="#D0D0D0" transform="translate(12,9)"/>
<path d="M0,0 L6,0 L7,3 L-1,3 Z " fill="#EAEAEA" transform="translate(16,4)"/>
<path d="M0,0 L1,3 L3,3 L3,5 L-3,5 L-1,1 Z " fill="#E8E8E8" transform="translate(12,9)"/>
</svg>
