<?xml version="1.0" encoding="UTF-8"?>
<svg version="1.1" xmlns="http://www.w3.org/2000/svg" width="28" height="28">
<path d="M0,0 L28,0 L28,28 L0,28 Z " fill="#050505" transform="translate(0,0)"/>
<path d="M0,0 L10,0 L11,2 L-1,4 L-1,6 L6,5 L13,8 L16,12 L15,16 L12,18 L5,18 L2,16 L3,12 L6,15 L13,15 L11,11 L9,10 L-3,10 L-4,3 Z " fill="#E1E1E1" transform="translate(9,6)"/>
<path d="M0,0 L10,0 L11,2 L0,3 Z " fill="#D5D5D5" transform="translate(9,6)"/>
<path d="M0,0 L4,1 L6,3 L0,4 Z " fill="#353535" transform="translate(8,9)"/>
</svg>
