<?xml version="1.0" encoding="UTF-8"?>
<svg version="1.1" xmlns="http://www.w3.org/2000/svg" width="28" height="28">
<path d="M0,0 L28,0 L28,28 L0,28 Z " fill="#010101" transform="translate(0,0)"/>
<path d="M0,0 L9,1 L9,3 L2,4 L1,11 L5,11 L4,15 L-2,20 L-7,20 L-7,18 L-1,16 L2,15 L2,13 L-2,11 L-2,2 L0,2 Z " fill="#CFCFCF" transform="translate(14,5)"/>
<path d="M0,0 L2,0 L1,4 L-4,8 L-9,8 L-9,6 L-3,4 L0,3 Z " fill="#DADADA" transform="translate(16,17)"/>
<path d="M0,0 L2,0 L2,6 L6,6 L5,9 L5,7 L1,8 L-1,6 Z " fill="#B5B5B5" transform="translate(13,10)"/>
</svg>
