<?xml version="1.0" encoding="UTF-8"?>
<svg version="1.1" xmlns="http://www.w3.org/2000/svg" width="28" height="28">
<path d="M0,0 L28,0 L28,28 L0,28 Z " fill="#030303" transform="translate(0,0)"/>
<path d="M0,0 L7,0 L8,4 L2,4 L3,5 L10,6 L13,10 L13,18 L11,20 L2,20 L-1,18 L0,14 L2,16 L10,17 L9,8 L-3,9 L-3,3 Z " fill="#DDDDDD" transform="translate(9,5)"/>
<path d="M0,0 L1,3 L5,3 L5,5 L-2,6 L-1,1 Z " fill="#F2F2F2" transform="translate(8,8)"/>
<path d="M0,0 L2,2 L10,3 L10,4 L1,5 L-1,4 Z " fill="#B4B4B4" transform="translate(9,19)"/>
</svg>
