<?xml version="1.0" encoding="UTF-8"?>
<svg version="1.1" xmlns="http://www.w3.org/2000/svg" width="28" height="28">
<path d="M0,0 L28,0 L28,28 L0,28 Z " fill="#040404" transform="translate(0,0)"/>
<path d="M0,0 L3,0 L2,4 L9,4 L11,6 L11,11 L5,16 L-2,15 L-3,12 L4,13 L7,10 L8,5 L4,7 L0,6 Z " fill="#E2E2E2" transform="translate(9,9)"/>
<path d="M0,0 L10,0 L10,2 L-3,3 L-3,1 Z " fill="#DCDCDC" transform="translate(14,5)"/>
<path d="M0,0 L3,0 L2,4 L8,4 L4,7 L0,6 Z " fill="#ECECEC" transform="translate(9,9)"/>
<path d="M0,0 L8,2 L8,4 L1,3 Z " fill="#B9B9B9" transform="translate(6,21)"/>
</svg>
