<?xml version="1.0" encoding="UTF-8"?>
<svg version="1.1" xmlns="http://www.w3.org/2000/svg" width="28" height="28">
<path d="M0,0 L28,0 L28,28 L0,28 Z " fill="#020202" transform="translate(0,0)"/>
<path d="M0,0 L3,1 L3,4 L-8,7 L-11,7 L-11,9 L-6,10 L-5,15 L-7,17 L-14,17 L-17,14 L-17,13 L-8,13 L-11,11 L-16,10 L-16,7 L-14,7 L-14,5 L-11,5 L-11,3 L-1,1 Z " fill="#E6E6E6" transform="translate(23,6)"/>
<path d="M0,0 L2,0 L1,5 L0,6 L-7,6 L-10,3 L-10,2 L-1,2 Z " fill="#CDCDCD" transform="translate(16,17)"/>
</svg>
