<?xml version="1.0" encoding="UTF-8"?>
<svg version="1.1" xmlns="http://www.w3.org/2000/svg" width="28" height="28">
<path d="M0,0 L28,0 L28,28 L0,28 Z " fill="#040404" transform="translate(0,0)"/>
<path d="M0,0 L7,0 L8,2 L2,3 L-6,3 L-6,7 L-1,8 L4,13 L4,19 L1,20 L-6,20 L-10,18 L-10,15 L-8,15 L-8,17 L2,17 L1,12 L-1,12 L-1,10 L-9,9 L-9,5 L-7,1 Z " fill="#E7E7E7" transform="translate(17,4)"/>
<path d="M0,0 L7,0 L8,2 L2,3 L-6,3 L-7,7 L-10,8 L-8,2 L-7,1 Z " fill="#CBCBCB" transform="translate(17,4)"/>
<path d="M0,0 L2,0 L2,2 L6,3 L7,5 L1,4 Z " fill="#D3D3D3" transform="translate(7,19)"/>
</svg>
