<?xml version="1.0" encoding="UTF-8"?>
<svg version="1.1" xmlns="http://www.w3.org/2000/svg" width="28" height="28">
<path d="M0,0 L28,0 L28,28 L0,28 Z " fill="#030303" transform="translate(0,0)"/>
<path d="M0,0 L5,0 L3,4 L-6,6 L-6,9 L-1,12 L-1,16 L-6,18 L-14,18 L-14,14 L-13,16 L-4,14 L-3,13 L-9,11 L-10,7 L-5,2 Z " fill="#CCCCCC" transform="translate(19,6)"/>
<path d="M0,0 L5,0 L3,4 L-6,5 L-4,1 Z " fill="#EDEDED" transform="translate(19,6)"/>
<path d="M0,0 L1,2 L12,1 L11,3 L8,4 L0,4 Z " fill="#E2E2E2" transform="translate(5,20)"/>
</svg>
