<?xml version="1.0" encoding="UTF-8"?>
<svg version="1.1" xmlns="http://www.w3.org/2000/svg" width="28" height="28">
<path d="M0,0 L28,0 L28,28 L0,28 Z " fill="#020202" transform="translate(0,0)"/>
<path d="M0,0 L5,1 L5,3 L-8,5 L-9,9 L-2,9 L3,13 L2,18 L0,20 L-7,20 L-9,19 L-9,17 L1,16 L0,13 L-10,12 L-11,8 L-10,2 Z " fill="#B7B7B7" transform="translate(18,5)"/>
<path d="M0,0 L7,0 L10,3 L9,8 L7,10 L0,10 L-2,9 L-2,7 L8,6 L7,3 L0,1 Z " fill="#E0E0E0" transform="translate(11,15)"/>
<path d="M0,0 L5,1 L5,3 L1,4 L-9,4 L-5,2 Z " fill="#D8D8D8" transform="translate(18,5)"/>
</svg>
