<?xml version="1.0" encoding="UTF-8"?>
<svg version="1.1" xmlns="http://www.w3.org/2000/svg" width="28" height="28">
<path d="M0,0 L28,0 L28,28 L0,28 Z " fill="#050505" transform="translate(0,0)"/>
<path d="M0,0 L14,0 L14,3 L1,3 L0,5 L7,5 L12,10 L11,15 L10,17 L8,17 L8,19 L1,20 L-2,17 L-2,13 L1,13 L2,16 L7,15 L8,14 L8,9 L7,8 L-4,8 L-2,2 Z " fill="#E8E8E8" transform="translate(10,6)"/>
<path d="M0,0 L14,0 L14,3 L-1,2 Z " fill="#C8C8C8" transform="translate(10,6)"/>
<path d="M0,0 L3,0 L4,3 L8,7 L3,7 L0,4 Z " fill="#C9C9C9" transform="translate(8,19)"/>
</svg>
