<?xml version="1.0" encoding="UTF-8"?>
<svg version="1.1" xmlns="http://www.w3.org/2000/svg" width="28" height="28">
<path d="M0,0 L28,0 L28,28 L0,28 Z " fill="#020202" transform="translate(0,0)"/>
<path d="M0,0 L3,1 L-3,5 L-4,9 L3,10 L5,12 L4,17 L0,20 L-6,20 L-8,16 L-6,15 L-6,17 L1,16 L3,13 L-6,11 L-7,7 L-6,3 Z " fill="#DFDFDF" transform="translate(16,3)"/>
<path d="M0,0 L1,2 L6,2 L7,5 L1,5 L-1,1 Z " fill="#B9B9B9" transform="translate(9,18)"/>
<path d="M0,0 L7,1 L7,4 L-2,2 Z " fill="#B9B9B9" transform="translate(12,12)"/>
</svg>
