<?xml version="1.0" encoding="UTF-8"?>
<svg version="1.1" xmlns="http://www.w3.org/2000/svg" width="28" height="28">
<path d="M0,0 L28,0 L28,28 L0,28 Z " fill="#0B0B0B" transform="translate(0,0)"/>
<path d="M0,0 L6,1 L6,11 L2,15 L-2,14 L2,13 L4,2 L-2,2 Z " fill="#D9D9D9" transform="translate(15,11)"/>
<path d="M0,0 L3,0 L3,2 L1,2 L0,8 L-1,10 L3,7 L5,8 L1,12 L-3,12 L-2,5 Z " fill="#D6D6D6" transform="translate(8,6)"/>
<path d="M0,0 L3,1 L1,2 L1,4 L6,2 L6,4 L0,8 L-2,8 Z " fill="#2B2B2B" transform="translate(9,8)"/>
</svg>
