<?xml version="1.0" encoding="UTF-8"?>
<svg version="1.1" xmlns="http://www.w3.org/2000/svg" width="28" height="28">
<path d="M0,0 L28,0 L28,28 L0,28 Z " fill="#020202" transform="translate(0,0)"/>
<path d="M0,0 L4,0 L4,3 L-6,6 L-9,8 L-1,12 L0,14 L-12,11 L-12,6 L-6,2 Z " fill="#D2D2D2" transform="translate(21,4)"/>
<path d="M0,0 L2,1 L2,3 L-2,5 L-9,5 L-11,4 L-11,2 Z " fill="#C6C6C6" transform="translate(16,19)"/>
<path d="M0,0 L4,0 L4,3 L-3,4 L-6,2 Z " fill="#BABABA" transform="translate(21,4)"/>
</svg>
