<?xml version="1.0" encoding="UTF-8"?>
<svg version="1.1" xmlns="http://www.w3.org/2000/svg" width="28" height="28">
<path d="M0,0 L28,0 L28,28 L0,28 Z " fill="#020202" transform="translate(0,0)"/>
<path d="M0,0 L2,0 L2,5 L6,6 L6,8 L0,9 L-1,11 L3,13 L4,17 L1,20 L-5,20 L-7,16 L2,16 L2,14 L-3,12 L-2,7 Z " fill="#E3E3E3" transform="translate(14,3)"/>
<path d="M0,0 L2,0 L2,5 L5,6 L-1,7 Z " fill="#BABABA" transform="translate(14,3)"/>
<path d="M0,0 L7,1 L6,4 L1,3 Z " fill="#BFBFBF" transform="translate(7,19)"/>
</svg>
