<?xml version="1.0" encoding="UTF-8"?>
<svg version="1.1" xmlns="http://www.w3.org/2000/svg" width="28" height="28">
<path d="M0,0 L28,0 L28,28 L0,28 Z " fill="#050505" transform="translate(0,0)"/>
<path d="M0,0 L7,0 L7,2 L-2,4 L-6,8 L1,10 L2,15 L-3,18 L-13,18 L-13,16 L-1,14 L-1,12 L-10,10 L-9,6 L-5,2 Z " fill="#ECECEC" transform="translate(18,5)"/>
<path d="M0,0 L7,0 L7,2 L-2,4 L-5,6 L-5,2 Z " fill="#C5C5C5" transform="translate(18,5)"/>
<path d="M0,0 L2,2 L-2,4 L-12,4 L-12,2 Z " fill="#D0D0D0" transform="translate(17,19)"/>
</svg>
