<?xml version="1.0" encoding="UTF-8"?>
<svg version="1.1" xmlns="http://www.w3.org/2000/svg" width="28" height="28">
<path d="M0,0 L28,0 L28,28 L0,28 Z " fill="#030303" transform="translate(0,0)"/>
<path d="M0,0 L2,1 L1,3 L6,6 L6,12 L5,13 L0,13 L0,11 L3,10 L4,7 L-1,7 L-3,3 Z " fill="#EEEEEE" transform="translate(9,11)"/>
<path d="M0,0 L11,0 L11,2 L0,3 Z " fill="#E3E3E3" transform="translate(15,8)"/>
<path d="M0,0 L2,1 L1,3 L4,5 L-2,6 L-2,2 Z " fill="#D7D7D7" transform="translate(9,11)"/>
</svg>
