<?xml version="1.0" encoding="UTF-8"?>
<svg version="1.1" xmlns="http://www.w3.org/2000/svg" width="28" height="28">
<path d="M0,0 L28,0 L28,28 L0,28 Z " fill="#030303" transform="translate(0,0)"/>
<path d="M0,0 L6,1 L8,2 L7,4 L1,2 L1,12 L6,11 L8,13 L8,18 L6,20 L1,20 L0,18 L6,18 L4,14 L0,16 L-1,4 Z " fill="#DDDDDD" transform="translate(12,4)"/>
<path d="M0,0 L4,1 L5,2 L5,7 L3,9 L-2,9 L-3,7 L3,7 L1,3 Z " fill="#C6C6C6" transform="translate(15,15)"/>
<path d="M0,0 L2,1 L2,5 L-4,5 Z " fill="#191919" transform="translate(16,17)"/>
</svg>
