<?xml version="1.0" encoding="UTF-8"?>
<svg version="1.1" xmlns="http://www.w3.org/2000/svg" width="28" height="28">
<path d="M0,0 L28,0 L28,28 L0,28 Z " fill="#040404" transform="translate(0,0)"/>
<path d="M0,0 L5,1 L7,2 L7,4 L1,4 L-1,9 L5,9 L7,11 L7,17 L3,20 L-1,20 L-2,16 L3,16 L5,12 L-4,11 L-4,4 Z " fill="#DEDEDE" transform="translate(13,5)"/>
<path d="M0,0 L5,1 L7,2 L7,4 L1,4 L-2,5 L-3,11 L-4,11 L-4,4 Z " fill="#C6C6C6" transform="translate(13,5)"/>
<path d="M0,0 L1,0 L1,5 L4,6 L-1,7 L-1,1 Z " fill="#FBFBFB" transform="translate(11,9)"/>
</svg>
