<?xml version="1.0" encoding="UTF-8"?>
<svg version="1.1" xmlns="http://www.w3.org/2000/svg" width="28" height="28">
<path d="M0,0 L28,0 L28,28 L0,28 Z " fill="#030303" transform="translate(0,0)"/>
<path d="M0,0 L12,0 L11,3 L2,3 L3,7 L5,7 L5,9 L9,11 L12,15 L11,19 L10,20 L3,20 L-3,16 L-3,14 L9,16 L9,13 L4,11 L4,9 L1,8 L-1,4 Z " fill="#D4D4D4" transform="translate(9,4)"/>
<path d="M0,0 L10,2 L13,3 L13,1 L15,1 L14,5 L13,6 L6,6 L0,2 Z " fill="#E3E3E3" transform="translate(6,18)"/>
<path d="M0,0 L9,0 L8,3 L2,3 Z " fill="#B9B9B9" transform="translate(12,4)"/>
</svg>
