<?xml version="1.0" encoding="UTF-8"?>
<svg version="1.1" xmlns="http://www.w3.org/2000/svg" width="28" height="28">
<path d="M0,0 L28,0 L28,28 L0,28 Z " fill="#020202" transform="translate(0,0)"/>
<path d="M0,0 L6,0 L6,2 L-1,4 L-3,6 L3,10 L6,15 L5,19 L4,20 L-3,20 L-6,16 L4,17 L2,13 L0,12 L0,10 L-4,9 L-6,7 L-5,3 Z " fill="#CBCBCB" transform="translate(15,5)"/>
<path d="M0,0 L6,0 L6,2 L-1,4 L-3,6 L-5,8 L-6,4 Z " fill="#E5E5E5" transform="translate(15,5)"/>
<path d="M0,0 L10,1 L6,2 L6,4 L2,3 Z " fill="#959595" transform="translate(9,21)"/>
</svg>
