<?xml version="1.0" encoding="UTF-8"?>
<svg version="1.1" xmlns="http://www.w3.org/2000/svg" width="28" height="28">
<path d="M0,0 L28,0 L28,28 L0,28 Z " fill="#060606" transform="translate(0,0)"/>
<path d="M0,0 L18,0 L16,4 L14,5 L14,2 L1,2 L1,7 L13,10 L16,14 L14,18 L9,20 L2,20 L0,19 L1,16 L10,16 L13,14 L7,12 L-1,9 L-2,4 Z " fill="#D8D8D8" transform="translate(7,5)"/>
<path d="M0,0 L18,0 L16,4 L14,5 L14,2 L1,2 L0,6 L-1,2 Z " fill="#E7E7E7" transform="translate(7,5)"/>
<path d="M0,0 L8,1 L8,4 L1,4 L-1,3 Z " fill="#A3A3A3" transform="translate(8,21)"/>
</svg>
