<?xml version="1.0" encoding="UTF-8"?>
<svg version="1.1" xmlns="http://www.w3.org/2000/svg" width="28" height="28">
<path d="M0,0 L28,0 L28,28 L0,28 Z " fill="#050505" transform="translate(0,0)"/>
<path d="M0,0 L10,0 L11,2 L-2,3 L-2,6 L3,4 L8,5 L12,9 L12,16 L7,20 L-1,19 L-1,18 L6,17 L9,15 L9,10 L7,8 L1,8 L-6,12 L-5,3 L-4,1 Z " fill="#E3E3E3" transform="translate(11,6)"/>
<path d="M0,0 L2,0 L1,5 L-3,8 L-11,7 L-11,6 L-4,5 L-1,3 Z " fill="#E9E9E9" transform="translate(21,18)"/>
<path d="M0,0 L1,3 L4,2 L9,3 L9,4 L2,6 L0,7 L-1,3 Z " fill="#A4A4A4" transform="translate(8,9)"/>
</svg>
