<?xml version="1.0" encoding="UTF-8"?>
<svg version="1.1" xmlns="http://www.w3.org/2000/svg" width="28" height="28">
<path d="M0,0 L28,0 L28,28 L0,28 Z " fill="#020202" transform="translate(0,0)"/>
<path d="M0,0 L6,0 L7,3 L2,3 L1,5 L10,5 L12,8 L12,14 L8,20 L3,20 L-2,16 L-1,13 L3,16 L8,16 L9,15 L9,7 L-2,7 L-1,2 Z " fill="#DEDEDE" transform="translate(10,5)"/>
<path d="M0,0 L6,0 L7,3 L2,3 L0,5 L-1,2 Z " fill="#C1C1C1" transform="translate(10,5)"/>
<path d="M0,0 L1,0 L1,6 L-2,11 L-6,9 L-2,7 Z " fill="#BFBFBF" transform="translate(21,13)"/>
</svg>
