<?xml version="1.0" encoding="UTF-8"?>
<svg version="1.1" xmlns="http://www.w3.org/2000/svg" width="28" height="28">
<path d="M0,0 L28,0 L28,28 L0,28 Z " fill="#010101" transform="translate(0,0)"/>
<path d="M0,0 L1,2 L-10,5 L-11,12 L-16,15 L-19,15 L-18,7 L-15,3 Z " fill="#CDCDCD" transform="translate(27,7)"/>
<path d="M0,0 L1,2 L-10,5 L-12,9 L-12,6 L-15,6 L-15,3 Z " fill="#CECECE" transform="translate(27,7)"/>
<path d="M0,0 L2,1 L1,5 L4,6 L2,8 L-1,8 Z " fill="#E9E9E9" transform="translate(9,14)"/>
<path d="M0,0 L2,0 L1,5 L-2,5 L-2,1 Z " fill="#2D2D2D" transform="translate(12,14)"/>
</svg>
