<?xml version="1.0" encoding="UTF-8"?>
<svg version="1.1" xmlns="http://www.w3.org/2000/svg" width="28" height="28">
<path d="M0,0 L28,0 L28,28 L0,28 Z " fill="#030303" transform="translate(0,0)"/>
<path d="M0,0 L5,1 L4,5 L-1,5 L-4,7 L3,9 L4,14 L0,19 L-7,20 L-11,17 L-11,13 L-8,13 L-6,17 L-1,16 L0,11 L-7,10 L-8,6 L-2,2 L0,2 Z " fill="#D8D8D8" transform="translate(17,4)"/>
<path d="M0,0 L3,0 L5,5 L1,5 Z " fill="#D2D2D2" transform="translate(6,17)"/>
<path d="M0,0 L3,0 L3,2 L7,3 L1,4 Z " fill="#F4F4F4" transform="translate(9,10)"/>
</svg>
