<?xml version="1.0" encoding="UTF-8"?>
<svg version="1.1" xmlns="http://www.w3.org/2000/svg" width="28" height="28">
<path d="M0,0 L28,0 L28,28 L0,28 Z " fill="#040404" transform="translate(0,0)"/>
<path d="M0,0 L4,0 L4,2 L-3,4 L-10,4 L-11,8 L-6,6 L-2,7 L-3,13 L-6,15 L-16,14 L-14,7 L-12,2 L-10,1 Z " fill="#AAAAAA" transform="translate(22,7)"/>
<path d="M0,0 L4,0 L4,2 L-3,4 L-10,4 L-10,6 L-12,6 L-12,2 L-10,1 Z " fill="#E9E9E9" transform="translate(22,7)"/>
<path d="M0,0 L4,1 L3,7 L0,9 L-4,9 L-4,7 L0,5 L1,3 L-2,2 Z " fill="#E7E7E7" transform="translate(16,13)"/>
</svg>
