<?xml version="1.0" encoding="UTF-8"?>
<svg version="1.1" xmlns="http://www.w3.org/2000/svg" width="28" height="28">
<path d="M0,0 L28,0 L28,28 L0,28 Z " fill="#040404" transform="translate(0,0)"/>
<path d="M0,0 L2,0 L2,3 L-9,4 L-11,6 L-5,8 L-5,14 L-9,18 L-17,17 L-18,13 L-16,13 L-15,15 L-10,15 L-8,13 L-7,9 L-13,9 L-14,5 L-11,1 Z " fill="#CACACA" transform="translate(23,6)"/>
<path d="M0,0 L1,0 L1,5 L-3,9 L-11,8 L-12,4 L-10,4 L-9,6 L-4,6 L-1,3 Z " fill="#E3E3E3" transform="translate(17,15)"/>
</svg>
