<?xml version="1.0" encoding="UTF-8"?>
<svg version="1.1" xmlns="http://www.w3.org/2000/svg" width="28" height="28">
<path d="M0,0 L28,0 L28,28 L0,28 Z " fill="#030303" transform="translate(0,0)"/>
<path d="M0,0 L12,0 L12,3 L-3,3 L-3,6 L5,6 L12,10 L12,15 L7,19 L4,20 L-4,20 L-6,18 L-5,13 L-3,16 L4,16 L9,15 L8,11 L6,10 L-4,9 L-6,7 L-6,2 Z " fill="#E2E2E2" transform="translate(12,5)"/>
<path d="M0,0 L12,0 L12,3 L4,3 L4,1 Z " fill="#BCBCBC" transform="translate(12,5)"/>
<path d="M0,0 L5,0 L6,3 L-4,3 Z " fill="#B1B1B1" transform="translate(12,11)"/>
</svg>
