<?xml version="1.0" encoding="UTF-8"?>
<svg version="1.1" xmlns="http://www.w3.org/2000/svg" width="28" height="28">
<path d="M0,0 L28,0 L28,28 L0,28 Z " fill="#020202" transform="translate(0,0)"/>
<path d="M0,0 L4,1 L-3,6 L-10,9 L-6,12 L-7,19 L-11,20 L-14,18 L-16,13 L-15,9 L-9,4 Z " fill="#DFDFDF" transform="translate(23,4)"/>
<path d="M0,0 L1,2 L4,3 L0,4 L1,6 L7,5 L6,10 L2,11 L-1,9 L-2,2 Z " fill="#ECECEC" transform="translate(10,13)"/>
<path d="M0,0 L4,1 L5,4 L2,6 L-2,5 L-2,3 L0,1 Z " fill="#7B7B7B" transform="translate(12,14)"/>
</svg>
