<?xml version="1.0" encoding="UTF-8"?>
<svg version="1.1" xmlns="http://www.w3.org/2000/svg" width="28" height="28">
<path d="M0,0 L28,0 L28,28 L0,28 Z " fill="#030303" transform="translate(0,0)"/>
<path d="M0,0 L8,0 L8,2 L4,3 L-6,3 L-5,6 L1,9 L3,11 L3,17 L0,20 L-6,20 L-8,19 L-8,15 L-6,15 L-5,17 L-1,17 L0,12 L-9,7 L-9,2 L-8,1 Z " fill="#DADADA" transform="translate(16,6)"/>
<path d="M0,0 L3,1 L6,4 L9,6 L7,8 L0,4 Z " fill="#C8C8C8" transform="translate(7,9)"/>
<path d="M0,0 L4,2 L4,8 L2,9 Z " fill="#F3F3F3" transform="translate(15,15)"/>
</svg>
