<?xml version="1.0" encoding="UTF-8"?>
<svg version="1.1" xmlns="http://www.w3.org/2000/svg" width="28" height="28">
<path d="M0,0 L28,0 L28,28 L0,28 Z " fill="#040404" transform="translate(0,0)"/>
<path d="M0,0 L2,0 L1,3 L-9,4 L-10,8 L-3,8 L-2,13 L-7,17 L-16,17 L-18,15 L-18,11 L-16,11 L-16,15 L-7,14 L-5,13 L-4,10 L-14,10 L-12,5 L-10,2 Z " fill="#E8E8E8" transform="translate(22,6)"/>
<path d="M0,0 L3,1 L2,6 L-2,9 L-11,9 L-13,7 L-13,3 L-11,3 L-11,7 L-2,6 L0,5 L1,2 L-5,2 L-5,1 Z " fill="#CECECE" transform="translate(17,14)"/>
</svg>
