<?xml version="1.0" encoding="UTF-8"?>
<svg version="1.1" xmlns="http://www.w3.org/2000/svg" width="28" height="28">
<path d="M0,0 L28,0 L28,28 L0,28 Z " fill="#030303" transform="translate(0,0)"/>
<path d="M0,0 L12,0 L12,2 L2,2 L1,7 L6,6 L9,8 L9,15 L5,20 L-1,20 L-1,18 L-3,18 L-2,15 L4,15 L6,10 L1,10 L1,12 L-3,12 L-2,3 Z " fill="#DEDEDE" transform="translate(11,5)"/>
<path d="M0,0 L12,0 L12,2 L2,2 L1,7 L-2,5 Z " fill="#EDEDED" transform="translate(11,5)"/>
<path d="M0,0 L0,3 L0,6 L-6,6 L-6,4 L-8,4 L-7,1 L-1,1 Z " fill="#BBBBBB" transform="translate(16,19)"/>
</svg>
