<?xml version="1.0" encoding="UTF-8"?>
<svg version="1.1" xmlns="http://www.w3.org/2000/svg" width="28" height="28">
<path d="M0,0 L28,0 L28,28 L0,28 Z " fill="#030303" transform="translate(0,0)"/>
<path d="M0,0 L2,0 L1,4 L-7,4 L-7,6 L-3,7 L-2,8 L-3,15 L-9,19 L-15,20 L-16,19 L-16,14 L-9,15 L-5,13 L-5,10 L-10,10 L-10,3 L-8,1 Z " fill="#E0E0E0" transform="translate(22,4)"/>
<path d="M0,0 L4,1 L8,4 L1,6 L0,5 Z " fill="#EAEAEA" transform="translate(6,18)"/>
<path d="M0,0 L2,0 L1,4 L-4,4 L-5,1 Z " fill="#BABABA" transform="translate(22,4)"/>
</svg>
