<?xml version="1.0" encoding="UTF-8"?>
<svg version="1.1" xmlns="http://www.w3.org/2000/svg" width="28" height="28">
<path d="M0,0 L28,0 L28,28 L0,28 Z " fill="#040404" transform="translate(0,0)"/>
<path d="M0,0 L3,0 L3,3 L-1,5 L-8,5 L-8,8 L-3,7 L-1,8 L-1,15 L-7,20 L-15,20 L-15,15 L-7,16 L-6,11 L-12,12 L-11,4 L-4,2 Z " fill="#D7D7D7" transform="translate(21,4)"/>
<path d="M0,0 L4,1 L6,2 L5,5 L0,5 Z " fill="#F7F7F7" transform="translate(6,19)"/>
<path d="M0,0 L1,4 L4,4 L4,6 L-2,7 L-1,1 Z M4,3 Z " fill="#F4F4F4" transform="translate(11,9)"/>
</svg>
