<?xml version="1.0" encoding="UTF-8"?>
<svg version="1.1" xmlns="http://www.w3.org/2000/svg" width="28" height="28">
<path d="M0,0 L28,0 L28,28 L0,28 Z " fill="#040404" transform="translate(0,0)"/>
<path d="M0,0 L4,0 L4,2 L-2,5 L-4,9 L1,10 L2,17 L1,19 L-8,20 L-13,18 L-14,14 L-12,14 L-11,16 L-1,16 L0,13 L-10,11 L-10,8 L-8,5 L-5,5 L-5,2 Z " fill="#DEDEDE" transform="translate(19,3)"/>
<path d="M0,0 L2,0 L3,2 L12,3 L12,6 L2,5 L0,3 Z " fill="#CACACA" transform="translate(5,17)"/>
<path d="M0,0 L4,0 L4,2 L-3,5 L-3,1 Z " fill="#E0E0E0" transform="translate(19,3)"/>
</svg>
