<?xml version="1.0" encoding="UTF-8"?>
<svg version="1.1" xmlns="http://www.w3.org/2000/svg" width="28" height="28">
<path d="M0,0 L28,0 L28,28 L0,28 Z " fill="#030303" transform="translate(0,0)"/>
<path d="M0,0 L2,0 L2,3 L-11,6 L-12,9 L-5,10 L-1,14 L-1,17 L-5,20 L-15,20 L-17,17 L-8,17 L-5,16 L-5,12 L-13,12 L-16,9 L-15,4 Z " fill="#E6E6E6" transform="translate(23,4)"/>
<path d="M0,0 L5,2 L6,7 L2,10 L-8,10 L-10,7 L-1,7 L2,6 L2,2 L-4,2 Z " fill="#CECECE" transform="translate(16,14)"/>
<path d="M0,0 L2,0 L2,3 L-4,4 L-8,2 Z " fill="#CCCCCC" transform="translate(23,4)"/>
<path d="M0,0 L7,0 L7,1 L12,2 L12,3 L2,3 Z " fill="#A7A7A7" transform="translate(6,21)"/>
</svg>
