<?xml version="1.0" encoding="UTF-8"?>
<svg version="1.1" xmlns="http://www.w3.org/2000/svg" width="28" height="28">
<path d="M0,0 L28,0 L28,28 L0,28 Z " fill="#030303" transform="translate(0,0)"/>
<path d="M0,0 L9,1 L9,3 L0,5 L-1,7 L6,7 L8,9 L8,14 L2,18 L-6,18 L-11,16 L-10,14 L-5,15 L2,15 L5,13 L5,10 L-3,11 L-6,11 L-7,9 L-3,2 Z " fill="#E8E8E8" transform="translate(14,6)"/>
<path d="M0,0 L11,2 L12,4 L4,4 L-1,2 Z " fill="#B6B6B6" transform="translate(4,20)"/>
<path d="M0,0 L5,0 L1,3 L1,4 L-5,4 L-4,1 Z " fill="#272727" transform="translate(18,9)"/>
</svg>
