<?xml version="1.0" encoding="UTF-8"?>
<svg version="1.1" xmlns="http://www.w3.org/2000/svg" width="28" height="28">
<path d="M0,0 L28,0 L28,28 L0,28 Z " fill="#050505" transform="translate(0,0)"/>
<path d="M0,0 L8,0 L8,2 L2,2 L3,7 L8,6 L10,11 L10,16 L5,20 L1,19 L0,14 L2,14 L2,17 L6,16 L7,8 L2,11 L0,11 Z " fill="#C6C6C6" transform="translate(10,5)"/>
<path d="M0,0 L8,0 L8,2 L2,2 L3,7 L7,6 L7,8 L2,11 L0,11 Z " fill="#ECECEC" transform="translate(10,5)"/>
<path d="M0,0 L2,0 L2,3 L7,3 L7,5 L2,6 L0,4 Z " fill="#DEDEDE" transform="translate(10,19)"/>
</svg>
