<?xml version="1.0" encoding="UTF-8"?>
<svg version="1.1" xmlns="http://www.w3.org/2000/svg" width="28" height="28">
<path d="M0,0 L28,0 L28,28 L0,28 Z " fill="#030303" transform="translate(0,0)"/>
<path d="M0,0 L2,0 L1,5 L5,6 L6,11 L4,14 L-3,14 L-9,11 L-9,8 L-7,8 L-6,10 L2,11 L4,7 L-3,6 L-2,2 Z " fill="#DDDDDD" transform="translate(13,8)"/>
<path d="M0,0 L2,0 L0,6 L-3,6 L-2,2 Z " fill="#C4C4C4" transform="translate(13,8)"/>
<path d="M0,0 L7,0 L7,2 L-1,3 Z " fill="#DADADA" transform="translate(17,6)"/>
</svg>
