<?xml version="1.0" encoding="UTF-8"?>
<svg version="1.1" xmlns="http://www.w3.org/2000/svg" width="28" height="28">
<path d="M0,0 L28,0 L28,28 L0,28 Z " fill="#020202" transform="translate(0,0)"/>
<path d="M0,0 L12,0 L13,2 L8,4 L9,5 L10,18 L8,20 L5,20 L5,18 L7,18 L6,6 L4,7 L2,14 L-1,14 L0,3 L-2,2 Z " fill="#C8C8C8" transform="translate(10,7)"/>
<path d="M0,0 L2,1 L3,12 L1,14 L-2,14 L-2,12 L0,12 Z " fill="#E5E5E5" transform="translate(17,13)"/>
<path d="M0,0 L2,4 L2,9 L-1,9 Z " fill="#E2E2E2" transform="translate(10,12)"/>
</svg>
