<?xml version="1.0" encoding="UTF-8"?>
<svg version="1.1" xmlns="http://www.w3.org/2000/svg" width="28" height="28">
<path d="M0,0 L28,0 L28,28 L0,28 Z " fill="#020202" transform="translate(0,0)"/>
<path d="M0,0 L6,0 L10,4 L7,4 L1,3 L0,7 L6,9 L8,12 L7,18 L4,20 L-4,20 L-4,18 L5,16 L4,11 L-4,10 L-3,5 Z " fill="#E3E3E3" transform="translate(12,5)"/>
<path d="M0,0 L6,0 L10,4 L7,4 L1,3 L0,7 L2,8 L-2,8 L1,10 L-4,10 L-3,5 Z " fill="#CACACA" transform="translate(12,5)"/>
<path d="M0,0 L3,1 L2,3 L4,4 L0,4 L3,6 L-2,6 L-1,1 Z " fill="#A6A6A6" transform="translate(10,9)"/>
</svg>
