<?xml version="1.0" encoding="UTF-8"?>
<svg version="1.1" xmlns="http://www.w3.org/2000/svg" width="28" height="28">
<path d="M0,0 L28,0 L28,28 L0,28 Z " fill="#020202" transform="translate(0,0)"/>
<path d="M0,0 L5,0 L5,2 L-4,3 L-4,5 L-6,5 L-6,8 L1,8 L3,10 L3,15 L0,18 L-5,20 L-11,20 L-13,17 L-13,12 L-9,7 L-6,2 Z " fill="#C3C3C3" transform="translate(19,4)"/>
<path d="M0,0 L8,1 L6,6 L4,7 L-4,7 L-3,3 Z " fill="#030303" transform="translate(12,14)"/>
<path d="M0,0 L7,0 L8,1 L8,6 L5,9 L-2,11 L-2,9 L4,6 L6,2 L0,1 Z " fill="#E1E1E1" transform="translate(14,13)"/>
<path d="M0,0 L2,1 L1,4 L-1,4 L-3,8 L-4,6 L-1,1 Z " fill="#E1E1E1" transform="translate(14,5)"/>
</svg>
