<?xml version="1.0" encoding="UTF-8"?>
<svg version="1.1" xmlns="http://www.w3.org/2000/svg" width="28" height="28">
<path d="M0,0 L28,0 L28,28 L0,28 Z " fill="#060606" transform="translate(0,0)"/>
<path d="M0,0 L1,0 L1,5 L11,6 L15,9 L15,13 L13,13 L12,16 L10,17 L2,17 L1,13 L10,13 L12,9 L0,8 L-1,7 L-1,1 Z " fill="#DADADA" transform="translate(7,7)"/>
<path d="M0,0 L7,0 L7,2 L-4,4 L-9,4 L-9,2 Z " fill="#E0E0E0" transform="translate(19,5)"/>
<path d="M0,0 L6,1 L8,2 L8,4 L1,4 Z " fill="#EEEEEE" transform="translate(8,20)"/>
</svg>
