<?xml version="1.0" encoding="UTF-8"?>
<svg version="1.1" xmlns="http://www.w3.org/2000/svg" width="28" height="28">
<path d="M0,0 L28,0 L28,28 L0,28 Z " fill="#020202" transform="translate(0,0)"/>
<path d="M0,0 L6,0 L7,3 L2,3 L2,5 L-3,6 L-4,18 L-8,17 L-13,13 L-13,10 L-9,12 L-6,15 L-7,7 L-4,3 L-1,2 Z " fill="#EAEAEA" transform="translate(19,6)"/>
<path d="M0,0 L6,0 L7,3 L2,3 L1,5 Z " fill="#C4C4C4" transform="translate(19,6)"/>
<path d="M0,0 L1,0 L1,11 L-2,11 Z " fill="#CCCCCC" transform="translate(14,13)"/>
</svg>
