<?xml version="1.0" encoding="UTF-8"?>
<svg version="1.1" xmlns="http://www.w3.org/2000/svg" width="28" height="28">
<path d="M0,0 L28,0 L28,28 L0,28 Z " fill="#030303" transform="translate(0,0)"/>
<path d="M0,0 L5,0 L6,2 L-3,6 L-6,5 L-2,17 L-4,20 L-10,19 L-14,14 L-14,12 L-11,12 L-10,16 L-5,17 L-8,10 L-9,9 L-9,4 Z " fill="#E0E0E0" transform="translate(19,5)"/>
<path d="M0,0 L3,0 L4,4 L6,4 L7,6 L10,8 L4,7 L0,2 Z " fill="#C2C2C2" transform="translate(5,17)"/>
<path d="M0,0 L2,1 L3,3 L0,3 L-1,6 L-3,7 L-3,2 Z " fill="#BABABA" transform="translate(13,7)"/>
</svg>
