<?xml version="1.0" encoding="UTF-8"?>
<svg version="1.1" xmlns="http://www.w3.org/2000/svg" width="28" height="28">
<path d="M0,0 L28,0 L28,28 L0,28 Z " fill="#020202" transform="translate(0,0)"/>
<path d="M0,0 L4,1 L-6,7 L-2,10 L-3,15 L-5,16 L-16,16 L-16,14 L-5,13 L-5,10 L-13,10 L-11,6 L-3,1 Z " fill="#D1D1D1" transform="translate(21,6)"/>
<path d="M0,0 L1,4 L-2,6 L-13,6 L-13,4 L-2,3 L-1,1 Z " fill="#CACACA" transform="translate(18,16)"/>
<path d="M0,0 L4,1 L8,4 L7,6 L6,5 L-2,4 Z " fill="#F6F6F6" transform="translate(10,12)"/>
</svg>
