<?xml version="1.0" encoding="UTF-8"?>
<svg version="1.1" xmlns="http://www.w3.org/2000/svg" width="28" height="28">
<path d="M0,0 L28,0 L28,28 L0,28 Z " fill="#030303" transform="translate(0,0)"/>
<path d="M0,0 L5,0 L6,2 L-6,5 L-8,5 L-8,7 L-2,8 L-1,9 L-1,14 L-6,18 L-11,17 L-14,15 L-14,13 L-5,14 L-4,9 L-11,10 L-10,5 L-5,1 Z " fill="#E2E2E2" transform="translate(20,6)"/>
<path d="M0,0 L5,0 L6,2 L-6,5 L-9,4 L-5,1 Z " fill="#C2C2C2" transform="translate(20,6)"/>
<path d="M0,0 L10,2 L10,4 L4,5 L0,2 Z " fill="#C8C8C8" transform="translate(6,19)"/>
</svg>
