<?xml version="1.0" encoding="UTF-8"?>
<svg version="1.1" xmlns="http://www.w3.org/2000/svg" width="28" height="28">
<path d="M0,0 L28,0 L28,28 L0,28 Z " fill="#020202" transform="translate(0,0)"/>
<path d="M0,0 L5,0 L8,2 L7,4 L1,3 L-4,10 L4,12 L6,16 L0,20 L-8,20 L-7,16 L-6,18 L1,17 L4,16 L4,14 L-4,13 L-6,11 L-5,6 Z " fill="#D3D3D3" transform="translate(15,4)"/>
<path d="M0,0 L8,2 L7,4 L2,4 Z " fill="#ACACAC" transform="translate(9,13)"/>
<path d="M0,0 L1,2 L7,3 L7,4 L-1,4 Z " fill="#B7B7B7" transform="translate(8,20)"/>
</svg>
