<?xml version="1.0" encoding="UTF-8"?>
<svg version="1.1" xmlns="http://www.w3.org/2000/svg" width="28" height="28">
<path d="M0,0 L28,0 L28,28 L0,28 Z " fill="#030303" transform="translate(0,0)"/>
<path d="M0,0 L6,0 L6,2 L-2,5 L-6,7 L-8,9 L-3,10 L0,14 L0,17 L-3,19 L-10,19 L-14,17 L-14,15 L-5,15 L-5,13 L-12,11 L-11,6 L-3,1 Z " fill="#D1D1D1" transform="translate(20,5)"/>
<path d="M0,0 L10,1 L9,3 L1,3 Z " fill="#F0F0F0" transform="translate(6,20)"/>
<path d="M0,0 L1,3 L4,4 L3,5 L-2,5 L-1,1 Z " fill="#F7F7F7" transform="translate(11,11)"/>
</svg>
