<?xml version="1.0" encoding="UTF-8"?>
<svg version="1.1" xmlns="http://www.w3.org/2000/svg" width="28" height="28">
<path d="M0,0 L28,0 L28,28 L0,28 Z " fill="#020202" transform="translate(0,0)"/>
<path d="M0,0 L5,0 L5,2 L-1,3 L-1,6 L5,7 L7,10 L6,17 L3,20 L-2,20 L-1,16 L3,15 L4,9 L-5,11 L-4,1 Z " fill="#EEEEEE" transform="translate(13,5)"/>
<path d="M0,0 L5,0 L5,2 L-1,3 L0,7 L-2,7 L-4,4 L-4,1 Z " fill="#CFCFCF" transform="translate(13,5)"/>
<path d="M0,0 L1,4 L0,5 L-5,5 L-4,1 Z " fill="#CCCCCC" transform="translate(16,20)"/>
</svg>
