<?xml version="1.0" encoding="UTF-8"?>
<svg version="1.1" xmlns="http://www.w3.org/2000/svg" width="28" height="28">
<path d="M0,0 L28,0 L28,28 L0,28 Z " fill="#050505" transform="translate(0,0)"/>
<path d="M0,0 L10,0 L10,2 L3,4 L-2,4 L-2,6 L7,6 L10,11 L7,17 L3,20 L-2,20 L-4,16 L-4,13 L-2,13 L0,17 L5,15 L6,14 L6,9 L-4,7 L-3,3 Z " fill="#E8E8E8" transform="translate(12,6)"/>
<path d="M0,0 L2,0 L4,4 L8,4 L7,7 L2,7 L0,3 Z " fill="#D4D4D4" transform="translate(8,19)"/>
<path d="M0,0 L3,1 L0,4 L-8,4 L-8,2 Z " fill="#414141" transform="translate(18,8)"/>
</svg>
