<?xml version="1.0" encoding="UTF-8"?>
<svg version="1.1" xmlns="http://www.w3.org/2000/svg" width="28" height="28">
<path d="M0,0 L28,0 L28,28 L0,28 Z " fill="#030303" transform="translate(0,0)"/>
<path d="M0,0 L10,1 L10,3 L3,4 L-2,6 L-3,7 L7,8 L10,11 L9,16 L5,19 L-2,20 L-7,17 L-7,14 L-3,16 L4,16 L6,15 L5,11 L-7,11 L-6,6 Z " fill="#E5E5E5" transform="translate(13,4)"/>
<path d="M0,0 L10,1 L10,3 L3,4 L-2,6 L-3,7 L-1,9 L-1,11 L-7,11 L-6,6 Z " fill="#CCCCCC" transform="translate(13,4)"/>
<path d="M0,0 L1,2 L-6,3 L-6,6 L-14,6 L-11,2 Z " fill="#2A2A2A" transform="translate(23,6)"/>
</svg>
