<?xml version="1.0" encoding="UTF-8"?>
<svg version="1.1" xmlns="http://www.w3.org/2000/svg" width="28" height="28">
<path d="M0,0 L28,0 L28,28 L0,28 Z " fill="#030303" transform="translate(0,0)"/>
<path d="M0,0 L5,1 L8,4 L7,8 L-2,11 L-8,11 L-9,9 L4,7 L-1,1 Z " fill="#E1E1E1" transform="translate(14,13)"/>
<path d="M0,0 L2,1 L2,4 L0,4 L1,7 L-3,7 L-3,3 Z " fill="#D6D6D6" transform="translate(11,5)"/>
<path d="M0,0 L5,0 L4,3 L-1,5 L-2,1 Z " fill="#D0D0D0" transform="translate(18,4)"/>
<path d="M0,0 L5,1 L2,3 L-4,3 L-5,1 Z " fill="#C6C6C6" transform="translate(10,21)"/>
</svg>
