<?xml version="1.0" encoding="UTF-8"?>
<svg version="1.1" xmlns="http://www.w3.org/2000/svg" width="28" height="28">
<path d="M0,0 L28,0 L28,28 L0,28 Z " fill="#060606" transform="translate(0,0)"/>
<path d="M0,0 L1,3 L9,3 L13,7 L12,13 L9,15 L2,15 L1,11 L2,13 L9,11 L9,6 L8,5 L1,5 L-2,8 L-5,8 L-5,6 L-1,2 Z " fill="#CBCBCB" transform="translate(9,10)"/>
<path d="M0,0 L2,0 L2,3 L-12,4 L-12,1 Z " fill="#C5C5C5" transform="translate(22,5)"/>
<path d="M0,0 L1,3 L8,3 L8,4 L1,5 L-2,8 L-5,8 L-5,6 L-1,2 Z " fill="#E4E4E4" transform="translate(9,10)"/>
</svg>
