<?xml version="1.0" encoding="UTF-8"?>
<svg version="1.1" xmlns="http://www.w3.org/2000/svg" width="28" height="28">
<path d="M0,0 L28,0 L28,28 L0,28 Z " fill="#020202" transform="translate(0,0)"/>
<path d="M0,0 L0,3 L-2,6 L2,8 L2,16 L-2,20 L-7,19 L-8,16 L-4,17 L-1,15 L-1,10 L-7,11 L-6,6 L-3,1 Z " fill="#EDEDED" transform="translate(17,4)"/>
<path d="M0,0 L1,0 L1,8 L-3,12 L-8,11 L-9,8 L-5,9 L-2,7 Z " fill="#CACACA" transform="translate(18,12)"/>
<path d="M0,0 L0,3 L-2,6 L0,7 L-6,8 L-4,3 L-3,1 Z " fill="#D6D6D6" transform="translate(17,4)"/>
</svg>
