<?xml version="1.0" encoding="UTF-8"?>
<svg version="1.1" xmlns="http://www.w3.org/2000/svg" width="28" height="28">
<path d="M0,0 L28,0 L28,28 L0,28 Z " fill="#030303" transform="translate(0,0)"/>
<path d="M0,0 L5,0 L4,2 L-4,4 L-5,9 L6,9 L8,11 L7,17 L2,20 L-3,20 L-3,18 L4,15 L6,11 L-4,12 L-8,13 L-6,3 L-4,1 Z " fill="#BFBFBF" transform="translate(15,5)"/>
<path d="M0,0 L5,0 L4,2 L-4,4 L-6,10 L-2,11 L-5,13 L-8,13 L-6,3 L-4,1 Z " fill="#E1E1E1" transform="translate(15,5)"/>
<path d="M0,0 L3,1 L0,4 L-3,6 L-8,6 L-8,4 L-1,1 Z " fill="#D7D7D7" transform="translate(20,19)"/>
</svg>
