<?xml version="1.0" encoding="UTF-8"?>
<svg version="1.1" xmlns="http://www.w3.org/2000/svg" width="28" height="28">
<path d="M0,0 L28,0 L28,28 L0,28 Z " fill="#030303" transform="translate(0,0)"/>
<path d="M0,0 L4,1 L4,4 L1,6 L-4,7 L-5,11 L0,15 L-2,19 L-12,20 L-15,17 L-15,15 L-13,15 L-11,11 L-10,9 L-8,9 L-8,3 Z " fill="#E1E1E1" transform="translate(20,4)"/>
<path d="M0,0 L9,1 L9,3 L7,4 L1,4 Z " fill="#EEEEEE" transform="translate(7,20)"/>
<path d="M0,0 L5,0 L6,2 L-2,3 L-2,1 Z " fill="#353535" transform="translate(11,18)"/>
</svg>
