<?xml version="1.0" encoding="UTF-8"?>
<svg version="1.1" xmlns="http://www.w3.org/2000/svg" width="28" height="28">
<path d="M0,0 L28,0 L28,28 L0,28 Z " fill="#040404" transform="translate(0,0)"/>
<path d="M0,0 L9,1 L9,2 L0,3 L-1,6 L4,9 L5,15 L3,15 L1,19 L-1,20 L-8,20 L-9,16 L-3,17 L1,15 L2,10 L-4,8 L-5,4 Z " fill="#D8D8D8" transform="translate(15,4)"/>
<path d="M0,0 L1,3 L-4,8 L-11,8 L-12,4 L-6,5 L-1,2 Z " fill="#E8E8E8" transform="translate(18,16)"/>
<path d="M0,0 L5,0 L7,3 L6,7 L4,6 L4,2 Z " fill="#BABABA" transform="translate(13,12)"/>
</svg>
