<?xml version="1.0" encoding="UTF-8"?>
<svg version="1.1" xmlns="http://www.w3.org/2000/svg" width="28" height="28">
<path d="M0,0 L28,0 L28,28 L0,28 Z " fill="#010101" transform="translate(0,0)"/>
<path d="M0,0 L6,0 L8,2 L8,21 L-3,21 L-6,18 L-4,17 L-6,14 L-12,14 L-13,13 L-13,3 L-7,1 Z " fill="#070707" transform="translate(20,7)"/>
<path d="M0,0 L6,0 L7,3 L-11,4 L-11,11 L-4,11 L-2,13 L-2,19 L-6,18 L-4,17 L-6,14 L-12,14 L-13,13 L-13,3 L-7,1 Z " fill="#D8D8D8" transform="translate(20,7)"/>
</svg>
