<?xml version="1.0" encoding="UTF-8"?>
<svg version="1.1" xmlns="http://www.w3.org/2000/svg" width="28" height="28">
<path d="M0,0 L28,0 L28,28 L0,28 Z " fill="#050505" transform="translate(0,0)"/>
<path d="M0,0 L7,1 L7,3 L-2,4 L-4,9 L3,8 L6,11 L6,17 L2,20 L-5,19 L-8,17 L-8,15 L2,16 L4,11 L-5,12 L-6,11 L-5,4 Z " fill="#E7E7E7" transform="translate(15,5)"/>
<path d="M0,0 L1,0 L1,6 L-3,9 L-10,8 L-13,6 L-13,4 L-3,5 Z " fill="#BFBFBF" transform="translate(20,16)"/>
<path d="M0,0 L4,1 L9,3 L7,5 L0,2 Z " fill="#E4E4E4" transform="translate(7,20)"/>
</svg>
