<?xml version="1.0" encoding="UTF-8"?>
<svg version="1.1" xmlns="http://www.w3.org/2000/svg" width="28" height="28">
<path d="M0,0 L28,0 L28,28 L0,28 Z " fill="#030303" transform="translate(0,0)"/>
<path d="M0,0 L11,0 L12,2 L3,2 L1,7 L9,6 L11,9 L3,10 L0,11 L-2,3 Z " fill="#F4F4F4" transform="translate(8,5)"/>
<path d="M0,0 L2,0 L4,5 L3,10 L2,11 L-9,10 L-10,8 L1,8 Z " fill="#D9D9D9" transform="translate(19,14)"/>
<path d="M0,0 L5,0 L7,3 L0,3 Z " fill="#BDBDBD" transform="translate(12,11)"/>
</svg>
