<?xml version="1.0" encoding="UTF-8"?>
<svg version="1.1" xmlns="http://www.w3.org/2000/svg" width="28" height="28">
<path d="M0,0 L28,0 L28,28 L0,28 Z " fill="#030303" transform="translate(0,0)"/>
<path d="M0,0 L6,0 L6,3 L-4,5 L1,11 L1,18 L-1,20 L-9,20 L-10,19 L-10,14 L-8,14 L-8,17 L-1,17 L-4,10 L-9,8 L-6,3 Z " fill="#D1D1D1" transform="translate(17,4)"/>
<path d="M0,0 L2,0 L2,5 L0,7 L-8,7 L-9,6 L-9,1 L-7,1 L-7,4 L0,4 Z " fill="#EDEDED" transform="translate(16,17)"/>
<path d="M0,0 L6,0 L6,3 L-1,3 Z " fill="#E6E6E6" transform="translate(17,4)"/>
</svg>
