<?xml version="1.0" encoding="UTF-8"?>
<svg version="1.1" xmlns="http://www.w3.org/2000/svg" width="28" height="28">
<path d="M0,0 L28,0 L28,28 L0,28 Z " fill="#020202" transform="translate(0,0)"/>
<path d="M0,0 L8,0 L11,3 L1,3 L-4,6 L-6,5 L-5,7 L2,9 L2,14 L-7,16 L-9,12 L-3,13 L0,10 L-9,9 L-9,5 L-5,2 Z " fill="#CFCFCF" transform="translate(16,7)"/>
<path d="M0,0 L8,1 L7,4 L1,5 L-1,2 Z " fill="#1E1E1E" transform="translate(8,16)"/>
<path d="M0,0 L2,0 L2,5 L-7,7 L-9,3 L-3,4 L-1,3 Z " fill="#E5E5E5" transform="translate(16,16)"/>
</svg>
