<?xml version="1.0" encoding="UTF-8"?>
<svg version="1.1" xmlns="http://www.w3.org/2000/svg" width="28" height="28">
<path d="M0,0 L28,0 L28,28 L0,28 Z " fill="#040404" transform="translate(0,0)"/>
<path d="M0,0 L6,0 L6,2 L-4,4 L-3,7 L-2,6 L5,7 L6,8 L6,16 L3,19 L-5,20 L-6,15 L-5,17 L2,15 L4,9 L-3,10 L-7,12 L-6,2 Z " fill="#C8C8C8" transform="translate(14,5)"/>
<path d="M0,0 L6,0 L6,2 L4,3 L-6,3 L-2,1 Z " fill="#E9E9E9" transform="translate(14,5)"/>
<path d="M0,0 L1,0 L1,7 L-1,9 L-4,9 L-2,5 Z " fill="#EFEFEF" transform="translate(19,14)"/>
</svg>
