<?xml version="1.0" encoding="UTF-8"?>
<svg version="1.1" xmlns="http://www.w3.org/2000/svg" width="28" height="28">
<path d="M0,0 L28,0 L28,28 L0,28 Z " fill="#050505" transform="translate(0,0)"/>
<path d="M0,0 L2,0 L2,3 L-6,6 L-1,10 L-1,16 L-4,20 L-12,20 L-14,19 L-14,16 L-5,17 L-3,13 L-5,10 L-14,9 L-14,11 L-16,11 L-15,7 L-10,3 Z " fill="#CECECE" transform="translate(21,5)"/>
<path d="M0,0 L2,0 L2,3 L-4,5 L-10,5 L-10,3 Z " fill="#ECECEC" transform="translate(21,5)"/>
<path d="M0,0 L7,0 L10,3 L10,8 L6,3 L0,1 Z " fill="#F4F4F4" transform="translate(10,12)"/>
</svg>
