<?xml version="1.0" encoding="UTF-8"?>
<svg version="1.1" xmlns="http://www.w3.org/2000/svg" width="28" height="28">
<path d="M0,0 L28,0 L28,28 L0,28 Z " fill="#040404" transform="translate(0,0)"/>
<path d="M0,0 L5,0 L4,3 L-5,6 L-6,8 L3,7 L7,10 L6,17 L1,20 L-6,19 L-8,18 L-8,16 L2,16 L4,10 L-3,10 L-6,13 L-9,13 L-9,6 L-4,1 Z " fill="#DBDBDB" transform="translate(16,4)"/>
<path d="M0,0 L7,1 L9,3 L9,7 L7,7 L6,4 L-1,3 L-3,3 L-3,1 Z " fill="#F5F5F5" transform="translate(14,11)"/>
<path d="M0,0 L5,0 L4,3 L-4,2 Z " fill="#B4B4B4" transform="translate(16,4)"/>
</svg>
