<?xml version="1.0" encoding="UTF-8"?>
<svg version="1.1" xmlns="http://www.w3.org/2000/svg" width="28" height="28">
<path d="M0,0 L28,0 L28,28 L0,28 Z " fill="#040404" transform="translate(0,0)"/>
<path d="M0,0 L2,0 L2,6 L5,4 L10,4 L12,7 L12,15 L9,17 L3,17 L1,13 L10,13 L9,6 L2,9 L-2,10 Z " fill="#E6E6E6" transform="translate(8,8)"/>
<path d="M0,0 L14,1 L16,3 L0,3 Z " fill="#E2E2E2" transform="translate(10,5)"/>
<path d="M0,0 L5,0 L7,4 L-1,7 Z " fill="#1B1B1B" transform="translate(10,8)"/>
</svg>
