<?xml version="1.0" encoding="UTF-8"?>
<svg version="1.1" xmlns="http://www.w3.org/2000/svg" width="28" height="28">
<path d="M0,0 L28,0 L28,28 L0,28 Z " fill="#020202" transform="translate(0,0)"/>
<path d="M0,0 L9,0 L8,3 L1,4 L-1,9 L9,8 L10,9 L10,15 L5,20 L0,20 L-2,17 L-2,13 L7,16 L8,10 L-3,12 L-4,8 Z " fill="#D1D1D1" transform="translate(11,4)"/>
<path d="M0,0 L4,2 L9,4 L9,6 L2,7 L0,4 Z " fill="#EBEBEB" transform="translate(9,17)"/>
<path d="M0,0 L9,0 L8,3 L0,4 L-1,2 Z " fill="#AFAFAF" transform="translate(11,4)"/>
</svg>
