<?xml version="1.0" encoding="UTF-8"?>
<svg version="1.1" xmlns="http://www.w3.org/2000/svg" width="28" height="28">
<path d="M0,0 L28,0 L28,28 L0,28 Z " fill="#040404" transform="translate(0,0)"/>
<path d="M0,0 L10,2 L10,5 L2,4 L0,7 L1,11 L4,14 L3,18 L2,19 L-7,19 L-10,17 L-10,15 L1,16 L-4,11 L-5,8 Z " fill="#E6E6E6" transform="translate(15,4)"/>
<path d="M0,0 L11,1 L11,2 L5,3 L3,4 L0,2 Z " fill="#B8B8B8" transform="translate(5,19)"/>
<path d="M0,0 L2,3 L1,4 L-6,4 L-7,2 L0,2 Z " fill="#F1F1F1" transform="translate(16,19)"/>
<path d="M0,0 L2,0 L0,6 L-2,9 L-4,8 L-2,3 Z " fill="#CCCCCC" transform="translate(15,4)"/>
</svg>
