<?xml version="1.0" encoding="UTF-8"?>
<svg version="1.1" xmlns="http://www.w3.org/2000/svg" width="28" height="28">
<path d="M0,0 L28,0 L28,28 L0,28 Z " fill="#030303" transform="translate(0,0)"/>
<path d="M0,0 L2,0 L0,5 L6,5 L12,8 L12,16 L8,18 L-2,17 L-3,14 L0,13 L0,15 L8,14 L9,10 L8,9 L-3,7 L-4,4 Z " fill="#D4D4D4" transform="translate(9,6)"/>
<path d="M0,0 L4,0 L3,3 L0,4 L-7,4 L-7,2 Z " fill="#C6C6C6" transform="translate(21,4)"/>
<path d="M0,0 L2,0 L1,6 L-4,6 L-3,2 Z " fill="#E9E9E9" transform="translate(9,6)"/>
</svg>
