<?xml version="1.0" encoding="UTF-8"?>
<svg version="1.1" xmlns="http://www.w3.org/2000/svg" width="28" height="28">
<path d="M0,0 L28,0 L28,28 L0,28 Z " fill="#040404" transform="translate(0,0)"/>
<path d="M0,0 L2,0 L0,4 L-1,6 L3,7 L3,13 L2,14 L-3,14 L-5,11 L2,12 L2,9 L-3,8 L-3,4 Z " fill="#E8E8E8" transform="translate(12,9)"/>
<path d="M0,0 L6,0 L7,2 L-5,4 L-4,1 Z " fill="#D0D0D0" transform="translate(20,8)"/>
<path d="M0,0 L2,0 L0,4 L-1,8 L-4,7 L-2,3 Z " fill="#D0D0D0" transform="translate(12,9)"/>
</svg>
