<?xml version="1.0" encoding="UTF-8"?>
<svg version="1.1" xmlns="http://www.w3.org/2000/svg" width="28" height="28">
<path d="M0,0 L28,0 L28,28 L0,28 Z " fill="#030303" transform="translate(0,0)"/>
<path d="M0,0 L2,0 L1,3 L-2,4 L-13,4 L-13,7 L-8,7 L-8,8 L-16,8 L-16,5 L-14,2 Z " fill="#B7B7B7" transform="translate(23,7)"/>
<path d="M0,0 L3,1 L2,7 L1,8 L-9,8 L-11,6 L0,5 Z " fill="#C8C8C8" transform="translate(16,15)"/>
<path d="M0,0 L6,0 L6,1 L1,1 L1,4 L6,4 L6,5 L-2,5 L-2,2 Z " fill="#DEDEDE" transform="translate(9,10)"/>
</svg>
