<?xml version="1.0" encoding="UTF-8"?>
<svg version="1.1" xmlns="http://www.w3.org/2000/svg" width="28" height="28">
<path d="M0,0 L28,0 L28,28 L0,28 Z " fill="#020202" transform="translate(0,0)"/>
<path d="M0,0 L5,0 L9,3 L9,5 L3,3 L3,10 L8,10 L11,12 L11,18 L9,20 L4,20 L3,18 L8,18 L9,13 L0,10 Z " fill="#D3D3D3" transform="translate(9,5)"/>
<path d="M0,0 L5,0 L9,3 L9,5 L3,3 L3,9 L0,6 Z " fill="#B9B9B9" transform="translate(9,5)"/>
<path d="M0,0 L1,0 L2,7 L5,9 L0,9 L-1,4 Z " fill="#F0F0F0" transform="translate(10,7)"/>
</svg>
