<?xml version="1.0" encoding="UTF-8"?>
<svg version="1.1" xmlns="http://www.w3.org/2000/svg" width="28" height="28">
<path d="M0,0 L28,0 L28,28 L0,28 Z " fill="#040404" transform="translate(0,0)"/>
<path d="M0,0 L12,0 L12,1 L2,2 L-1,3 L-1,5 L4,6 L5,7 L5,12 L2,15 L-4,15 L-7,12 L-7,9 L-5,9 L-4,11 L2,11 L2,8 L-3,6 L-2,2 Z " fill="#BCBCBC" transform="translate(13,7)"/>
<path d="M0,0 L12,0 L12,1 L2,2 L-1,3 L-1,5 L1,6 L-3,6 L-2,2 Z " fill="#EBEBEB" transform="translate(13,7)"/>
<path d="M0,0 L2,0 L5,3 L8,5 L2,5 L0,3 Z " fill="#EFEFEF" transform="translate(6,16)"/>
</svg>
