<?xml version="1.0" encoding="UTF-8"?>
<svg version="1.1" xmlns="http://www.w3.org/2000/svg" width="28" height="28">
<path d="M0,0 L28,0 L28,28 L0,28 Z " fill="#020202" transform="translate(0,0)"/>
<path d="M0,0 L11,0 L11,1 L2,2 L0,4 L1,8 L2,13 L-2,16 L-7,16 L-9,13 L-8,10 L-8,12 L-1,13 L-2,8 L-5,4 Z " fill="#C5C5C5" transform="translate(16,6)"/>
<path d="M0,0 L1,2 L8,4 L7,6 L2,6 L0,3 Z " fill="#D7D7D7" transform="translate(7,16)"/>
<path d="M0,0 L11,0 L11,1 L2,2 L-1,2 Z M-2,3 L0,4 L-2,6 Z " fill="#828282" transform="translate(16,6)"/>
</svg>
