<?xml version="1.0" encoding="UTF-8"?>
<svg version="1.1" xmlns="http://www.w3.org/2000/svg" width="28" height="28">
<path d="M0,0 L28,0 L28,28 L0,28 Z " fill="#010101" transform="translate(0,0)"/>
<path d="M0,0 L11,1 L13,4 L-1,5 L-1,7 L7,8 L7,11 L-2,9 L-3,4 Z " fill="#D7D7D7" transform="translate(11,6)"/>
<path d="M0,0 L2,1 L0,3 L2,5 L-1,5 L-1,7 L7,8 L7,11 L-2,9 L-3,4 Z " fill="#B6B6B6" transform="translate(11,6)"/>
<path d="M0,0 L1,0 L1,5 L-1,8 L-5,9 L-10,6 L-9,4 L-3,5 L-1,5 Z " fill="#BFBFBF" transform="translate(19,17)"/>
</svg>
