<?xml version="1.0" encoding="UTF-8"?>
<svg version="1.1" xmlns="http://www.w3.org/2000/svg" width="28" height="28">
<path d="M0,0 L28,0 L28,28 L0,28 Z " fill="#030303" transform="translate(0,0)"/>
<path d="M0,0 L8,0 L10,2 L-4,5 L-4,7 L2,7 L5,10 L4,16 L0,18 L-10,19 L-9,16 L1,13 L0,10 L-9,9 L-7,5 L-3,1 Z " fill="#DBDBDB" transform="translate(16,5)"/>
<path d="M0,0 L8,0 L10,2 L-2,4 L-3,1 Z " fill="#B9B9B9" transform="translate(16,5)"/>
<path d="M0,0 L7,0 L7,2 L-1,3 Z " fill="#E3E3E3" transform="translate(7,21)"/>
</svg>
