<?xml version="1.0" encoding="UTF-8"?>
<svg version="1.1" xmlns="http://www.w3.org/2000/svg" width="28" height="28">
<path d="M0,0 L28,0 L28,28 L0,28 Z " fill="#030303" transform="translate(0,0)"/>
<path d="M0,0 L2,1 L-1,3 L-10,6 L-10,8 L-7,10 L-6,15 L-10,19 L-16,20 L-15,16 L-10,15 L-10,11 L-15,10 L-14,6 L-13,2 Z " fill="#D6D6D6" transform="translate(24,6)"/>
<path d="M0,0 L1,0 L1,5 L-3,7 L-7,7 L-6,3 L-1,2 Z " fill="#C4C4C4" transform="translate(15,19)"/>
<path d="M0,0 L2,1 L-1,3 L-11,5 L-11,3 L-13,2 Z " fill="#F0F0F0" transform="translate(24,6)"/>
</svg>
