<?xml version="1.0" encoding="UTF-8"?>
<svg version="1.1" xmlns="http://www.w3.org/2000/svg" width="28" height="28">
<path d="M0,0 L28,0 L28,28 L0,28 Z " fill="#020202" transform="translate(0,0)"/>
<path d="M0,0 L6,0 L2,2 L-1,6 L5,8 L6,13 L2,17 L0,18 L-10,18 L-12,12 L-8,15 L0,15 L3,13 L3,10 L-5,9 L-3,4 Z " fill="#C6C6C6" transform="translate(16,4)"/>
<path d="M0,0 L6,0 L2,2 L-1,6 L2,8 L-5,9 L-3,4 Z " fill="#CDCDCD" transform="translate(16,4)"/>
<path d="M0,0 L4,2 L3,8 L1,6 L1,3 L-5,2 L-5,1 Z " fill="#8F8F8F" transform="translate(18,11)"/>
</svg>
