<?xml version="1.0" encoding="UTF-8"?>
<svg version="1.1" xmlns="http://www.w3.org/2000/svg" width="28" height="28">
<path d="M0,0 L28,0 L28,28 L0,28 Z " fill="#030303" transform="translate(0,0)"/>
<path d="M0,0 L3,0 L2,3 L-7,7 L-1,11 L0,16 L-3,20 L-12,20 L-17,17 L-15,8 L-4,1 Z " fill="#D8D8D8" transform="translate(22,4)"/>
<path d="M0,0 L9,0 L10,4 L2,4 L0,3 Z " fill="#070707" transform="translate(8,16)"/>
<path d="M0,0 L3,0 L2,3 L-7,7 L-9,7 L-8,3 Z " fill="#EFEFEF" transform="translate(22,4)"/>
</svg>
