<?xml version="1.0" encoding="UTF-8"?>
<svg version="1.1" xmlns="http://www.w3.org/2000/svg" width="28" height="28">
<path d="M0,0 L28,0 L28,28 L0,28 Z " fill="#040404" transform="translate(0,0)"/>
<path d="M0,0 L3,1 L-1,5 L-10,5 L-10,8 L-1,8 L4,11 L3,16 L-1,20 L-10,20 L-12,19 L-14,13 L-13,5 L-11,1 L-1,1 Z " fill="#E7E7E7" transform="translate(20,5)"/>
<path d="M0,0 L7,0 L9,1 L8,6 L-1,8 L-2,4 L-4,3 Z " fill="#0A0A0A" transform="translate(12,15)"/>
<path d="M0,0 L1,4 L-4,9 L-13,9 L-15,8 L-15,3 L-13,3 L-12,6 L-3,5 L-2,3 Z " fill="#CFCFCF" transform="translate(23,16)"/>
<path d="M0,0 L7,0 L7,3 L-1,4 Z " fill="#1F1F1F" transform="translate(10,10)"/>
</svg>
