<?xml version="1.0" encoding="UTF-8"?>
<svg version="1.1" xmlns="http://www.w3.org/2000/svg" width="28" height="28">
<path d="M0,0 L28,0 L28,28 L0,28 Z " fill="#030303" transform="translate(0,0)"/>
<path d="M0,0 L12,1 L12,3 L3,4 L-1,5 L5,8 L6,13 L4,17 L-3,18 L-7,17 L-7,14 L2,14 L2,8 L-7,7 L-6,2 Z " fill="#CFCFCF" transform="translate(14,7)"/>
<path d="M0,0 L1,3 L5,5 L-3,5 L-1,1 Z " fill="#F9F9F9" transform="translate(10,9)"/>
<path d="M0,0 L6,1 L8,3 L0,3 Z " fill="#EDEDED" transform="translate(7,21)"/>
</svg>
