<?xml version="1.0" encoding="UTF-8"?>
<svg version="1.1" xmlns="http://www.w3.org/2000/svg" width="28" height="28">
<path d="M0,0 L28,0 L28,28 L0,28 Z " fill="#040404" transform="translate(0,0)"/>
<path d="M0,0 L2,0 L3,2 L8,4 L10,7 L9,12 L8,13 L-1,13 L0,9 L7,10 L6,6 L0,5 Z " fill="#E9E9E9" transform="translate(9,12)"/>
<path d="M0,0 L4,0 L3,3 L-11,6 L-12,2 Z " fill="#F0F0F0" transform="translate(22,5)"/>
<path d="M0,0 L4,0 L3,3 L-2,4 L-2,2 L-4,1 Z " fill="#D3D3D3" transform="translate(22,5)"/>
</svg>
