<?xml version="1.0" encoding="UTF-8"?>
<svg version="1.1" xmlns="http://www.w3.org/2000/svg" width="28" height="28">
<path d="M0,0 L28,0 L28,28 L0,28 Z " fill="#030303" transform="translate(0,0)"/>
<path d="M0,0 L7,0 L9,1 L9,3 L3,2 L3,10 L8,10 L11,13 L11,18 L9,20 L2,20 L-2,17 L-2,14 L0,14 L2,17 L8,17 L8,12 L1,14 L0,13 Z " fill="#BABABA" transform="translate(10,4)"/>
<path d="M0,0 L7,0 L9,1 L9,3 L3,2 L3,11 L1,11 Z " fill="#E3E3E3" transform="translate(10,4)"/>
<path d="M0,0 L2,0 L4,3 L12,3 L13,0 L12,5 L11,6 L4,6 L0,3 Z " fill="#D5D5D5" transform="translate(8,18)"/>
</svg>
