<?xml version="1.0" encoding="UTF-8"?>
<svg version="1.1" xmlns="http://www.w3.org/2000/svg" width="28" height="28">
<path d="M0,0 L28,0 L28,28 L0,28 Z " fill="#020202" transform="translate(0,0)"/>
<path d="M0,0 L2,0 L2,3 L-9,6 L-12,6 L-11,9 L-6,10 L-6,17 L-10,20 L-16,19 L-17,15 L-10,16 L-9,12 L-18,14 L-17,10 L-13,3 Z " fill="#DADADA" transform="translate(25,4)"/>
<path d="M0,0 L1,2 L6,2 L7,7 L5,5 L-1,5 L-4,6 L-3,2 Z " fill="#F5F5F5" transform="translate(11,12)"/>
<path d="M0,0 L6,0 L5,5 L0,4 L-2,2 Z " fill="#212121" transform="translate(10,16)"/>
<path d="M0,0 L1,2 L4,3 L1,3 L2,7 L-2,7 L-3,5 Z " fill="#BCBCBC" transform="translate(12,7)"/>
</svg>
