<?xml version="1.0" encoding="UTF-8"?>
<svg version="1.1" xmlns="http://www.w3.org/2000/svg" width="28" height="28">
<path d="M0,0 L28,0 L28,28 L0,28 Z " fill="#020202" transform="translate(0,0)"/>
<path d="M0,0 L6,1 L7,5 L-2,4 L-1,7 L6,11 L9,13 L8,17 L7,19 L-1,20 L-5,18 L-5,17 L5,16 L3,13 L-5,9 L-7,4 Z " fill="#E7E7E7" transform="translate(13,5)"/>
<path d="M0,0 L2,1 L1,4 L-7,3 L-8,1 Z " fill="#C6C6C6" transform="translate(16,21)"/>
<path d="M0,0 L6,1 L7,5 L1,4 L1,2 L-2,1 Z " fill="#CBCBCB" transform="translate(13,5)"/>
</svg>
