<?xml version="1.0" encoding="UTF-8"?>
<svg version="1.1" xmlns="http://www.w3.org/2000/svg" width="28" height="28">
<path d="M0,0 L28,0 L28,28 L0,28 Z " fill="#030303" transform="translate(0,0)"/>
<path d="M0,0 L10,0 L10,2 L8,3 L-1,3 L-1,5 L3,5 L2,8 L10,12 L11,17 L7,20 L0,20 L-3,18 L-2,15 L1,17 L7,16 L7,14 L1,11 L-3,5 L-2,1 Z " fill="#DEDEDE" transform="translate(11,4)"/>
<path d="M0,0 L10,0 L10,2 L8,3 L1,3 Z " fill="#9E9E9E" transform="translate(11,4)"/>
<path d="M0,0 L9,3 L8,5 L1,4 Z " fill="#EDEDED" transform="translate(8,19)"/>
</svg>
