<?xml version="1.0" encoding="UTF-8"?>
<svg version="1.1" xmlns="http://www.w3.org/2000/svg" width="28" height="28">
<path d="M0,0 L28,0 L28,28 L0,28 Z " fill="#040404" transform="translate(0,0)"/>
<path d="M0,0 L10,0 L11,3 L4,4 L3,8 L8,9 L8,11 L12,12 L14,15 L14,19 L8,20 L3,19 L2,14 L3,11 L-2,10 L-1,5 Z " fill="#EAEAEA" transform="translate(9,5)"/>
<path d="M0,0 L2,0 L2,2 L6,3 L8,6 L7,10 L7,7 L0,8 L-1,7 L-1,2 Z " fill="#C8C8C8" transform="translate(15,14)"/>
<path d="M0,0 L4,1 L6,5 L1,5 Z " fill="#1F1F1F" transform="translate(14,17)"/>
</svg>
