<?xml version="1.0" encoding="UTF-8"?>
<svg version="1.1" xmlns="http://www.w3.org/2000/svg" width="28" height="28">
<path d="M0,0 L28,0 L28,28 L0,28 Z " fill="#030303" transform="translate(0,0)"/>
<path d="M0,0 L11,0 L12,3 L3,3 L3,8 L9,10 L12,13 L11,18 L9,20 L2,20 L-2,17 L-1,15 L3,17 L9,16 L8,12 L0,11 Z " fill="#E0E0E0" transform="translate(9,5)"/>
<path d="M0,0 L11,0 L12,3 L3,3 L3,8 L0,11 Z " fill="#D7D7D7" transform="translate(9,5)"/>
<path d="M0,0 L11,0 L12,3 L6,3 L6,2 L0,1 Z " fill="#B3B3B3" transform="translate(9,5)"/>
</svg>
