<?xml version="1.0" encoding="UTF-8"?>
<svg version="1.1" xmlns="http://www.w3.org/2000/svg" width="28" height="28">
<path d="M0,0 L28,0 L28,28 L0,28 Z " fill="#020202" transform="translate(0,0)"/>
<path d="M0,0 L8,1 L8,3 L-1,4 L0,11 L-4,13 L-12,13 L-12,11 L-5,11 L-5,9 L-9,9 L-7,5 L-3,3 Z " fill="#AEAEAE" transform="translate(17,8)"/>
<path d="M0,0 L4,2 L3,5 L0,6 L-8,6 L-8,4 L-1,4 L-2,1 Z " fill="#7C7C7C" transform="translate(13,15)"/>
<path d="M0,0 L7,1 L6,4 L3,3 L-2,4 Z " fill="#E7E7E7" transform="translate(10,13)"/>
</svg>
