<?xml version="1.0" encoding="UTF-8"?>
<svg version="1.1" xmlns="http://www.w3.org/2000/svg" width="28" height="28">
<path d="M0,0 L28,0 L28,28 L0,28 Z " fill="#040404" transform="translate(0,0)"/>
<path d="M0,0 L9,0 L8,3 L-3,4 L-3,6 L4,6 L7,9 L7,14 L2,20 L-3,19 L-7,16 L-7,13 L-5,13 L-1,17 L1,17 L4,9 L-3,9 L-6,10 L-5,3 L-4,1 Z " fill="#D6D6D6" transform="translate(14,5)"/>
<path d="M0,0 L9,0 L8,3 L-3,4 L-2,7 L-4,7 L-5,3 L-4,1 Z " fill="#CACACA" transform="translate(14,5)"/>
<path d="M0,0 L1,3 L3,2 L9,2 L11,4 L10,9 L9,5 L2,5 L-1,6 Z " fill="#EDEDED" transform="translate(9,9)"/>
</svg>
