<?xml version="1.0" encoding="UTF-8"?>
<svg version="1.1" xmlns="http://www.w3.org/2000/svg" width="28" height="28">
<path d="M0,0 L28,0 L28,28 L0,28 Z " fill="#010101" transform="translate(0,0)"/>
<path d="M0,0 L6,0 L6,2 L-2,3 L-3,8 L1,9 L1,16 L-2,19 L-9,20 L-13,16 L-11,13 L-8,14 L-10,17 L-3,16 L-2,11 L-7,12 L-8,10 L-4,2 Z " fill="#CBCBCB" transform="translate(18,3)"/>
<path d="M0,0 L1,4 L-2,7 L-9,8 L-13,4 L-11,1 L-8,2 L-10,5 L-3,4 Z " fill="#D5D5D5" transform="translate(18,15)"/>
<path d="M0,0 L1,4 L-2,7 L-8,8 L-8,6 L-3,4 Z " fill="#F3F3F3" transform="translate(18,15)"/>
</svg>
