<?xml version="1.0" encoding="UTF-8"?>
<svg version="1.1" xmlns="http://www.w3.org/2000/svg" width="28" height="28">
<path d="M0,0 L28,0 L28,28 L0,28 Z " fill="#030303" transform="translate(0,0)"/>
<path d="M0,0 L9,0 L10,4 L-1,4 L-1,8 L7,9 L12,13 L12,20 L9,20 L8,13 L3,11 L-4,12 L-4,2 Z " fill="#E3E3E3" transform="translate(11,6)"/>
<path d="M0,0 L7,0 L8,4 L-1,2 Z " fill="#F3F3F3" transform="translate(13,6)"/>
<path d="M0,0 L7,2 L7,3 L-4,4 L-3,1 Z " fill="#BABABA" transform="translate(11,6)"/>
</svg>
