<?xml version="1.0" encoding="UTF-8"?>
<svg version="1.1" xmlns="http://www.w3.org/2000/svg" width="28" height="28">
<path d="M0,0 L28,0 L28,28 L0,28 Z " fill="#020202" transform="translate(0,0)"/>
<path d="M0,0 L5,0 L4,3 L-3,3 L-3,5 L0,6 L1,13 L-4,16 L-11,15 L-15,13 L-15,11 L-11,11 L-11,13 L-3,12 L-2,8 L-5,7 L-5,9 L-7,9 L-7,11 L-10,11 L-8,6 L-4,1 Z " fill="#DCDCDC" transform="translate(19,6)"/>
<path d="M0,0 L4,1 L3,5 L2,6 L-6,6 L-2,4 L-2,2 L0,2 Z " fill="#1B1B1B" transform="translate(14,13)"/>
</svg>
