<?xml version="1.0" encoding="UTF-8"?>
<svg version="1.1" xmlns="http://www.w3.org/2000/svg" width="28" height="28">
<path d="M0,0 L28,0 L28,28 L0,28 Z " fill="#050505" transform="translate(0,0)"/>
<path d="M0,0 L7,0 L6,3 L3,5 L-1,5 L-2,7 L6,8 L10,10 L10,16 L7,19 L4,20 L-4,20 L-6,18 L-6,15 L-3,15 L-3,17 L6,14 L3,12 L-5,9 L-6,5 Z " fill="#E9E9E9" transform="translate(13,4)"/>
<path d="M0,0 L7,0 L6,3 L3,5 L-1,5 L-2,7 L3,8 L3,10 L-4,10 L-6,8 L-5,4 Z " fill="#F5F5F5" transform="translate(13,4)"/>
<path d="M0,0 L4,1 L7,2 L7,8 L3,6 L0,4 L-3,2 L0,2 Z " fill="#CECECE" transform="translate(16,12)"/>
</svg>
