<?xml version="1.0" encoding="UTF-8"?>
<svg version="1.1" xmlns="http://www.w3.org/2000/svg" width="28" height="28">
<path d="M0,0 L28,0 L28,28 L0,28 Z " fill="#040404" transform="translate(0,0)"/>
<path d="M0,0 L2,0 L2,3 L9,6 L12,10 L12,15 L9,17 L2,17 L-2,14 L-2,11 L2,13 L5,14 L9,12 L6,8 L-1,6 Z " fill="#D3D3D3" transform="translate(9,7)"/>
<path d="M0,0 L7,0 L7,2 L3,3 L-5,3 L-5,1 Z " fill="#DEDEDE" transform="translate(16,4)"/>
<path d="M0,0 L2,0 L2,4 L5,6 L-1,6 Z " fill="#E9E9E9" transform="translate(9,7)"/>
</svg>
