<?xml version="1.0" encoding="UTF-8"?>
<svg version="1.1" xmlns="http://www.w3.org/2000/svg" width="28" height="28">
<path d="M0,0 L28,0 L28,28 L0,28 Z " fill="#020202" transform="translate(0,0)"/>
<path d="M0,0 L2,0 L2,2 L-7,4 L-7,7 L-2,8 L-1,10 L-1,17 L-5,20 L-10,19 L-10,17 L-4,17 L-4,10 L-10,10 L-10,4 L-8,2 Z " fill="#D1D1D1" transform="translate(20,5)"/>
<path d="M0,0 L2,0 L2,2 L-7,4 L-7,9 L-10,10 L-10,4 L-8,2 Z " fill="#E0E0E0" transform="translate(20,5)"/>
<path d="M0,0 L6,2 L7,6 L5,10 L4,4 L0,2 Z " fill="#ADADAD" transform="translate(12,11)"/>
</svg>
