<?xml version="1.0" encoding="UTF-8"?>
<svg version="1.1" xmlns="http://www.w3.org/2000/svg" width="28" height="28">
<path d="M0,0 L28,0 L28,28 L0,28 Z " fill="#040404" transform="translate(0,0)"/>
<path d="M0,0 L1,2 L-5,3 L-6,8 L-4,7 L6,7 L9,11 L9,19 L8,20 L-1,20 L-3,16 L0,16 L-1,18 L6,18 L6,11 L3,9 L-3,10 L-6,13 L-8,13 L-7,3 L-6,1 Z " fill="#D7D7D7" transform="translate(14,4)"/>
<path d="M0,0 L1,0 L1,6 L0,7 L-9,7 L-11,3 L-8,3 L-9,5 L-2,5 Z " fill="#E2E2E2" transform="translate(22,17)"/>
</svg>
