<?xml version="1.0" encoding="UTF-8"?>
<svg version="1.1" xmlns="http://www.w3.org/2000/svg" width="28" height="28">
<path d="M0,0 L28,0 L28,28 L0,28 Z " fill="#030303" transform="translate(0,0)"/>
<path d="M0,0 L15,0 L15,2 L2,2 L3,9 L12,9 L16,12 L16,18 L14,20 L5,20 L6,16 L7,18 L14,16 L14,13 L12,12 L2,12 L0,5 Z " fill="#C8C8C8" transform="translate(7,5)"/>
<path d="M0,0 L15,0 L15,2 L2,2 L2,10 L8,10 L4,12 L1,11 Z " fill="#D9D9D9" transform="translate(7,5)"/>
<path d="M0,0 L1,2 L8,3 L8,4 L-1,4 Z " fill="#B2B2B2" transform="translate(13,21)"/>
</svg>
