<?xml version="1.0" encoding="UTF-8"?>
<svg version="1.1" xmlns="http://www.w3.org/2000/svg" width="28" height="28">
<path d="M0,0 L28,0 L28,28 L0,28 Z " fill="#040404" transform="translate(0,0)"/>
<path d="M0,0 L10,0 L10,2 L-3,4 L-4,6 L1,5 L3,7 L3,14 L-1,20 L-3,20 L-1,15 L0,7 L-3,9 L-4,13 L-6,13 L-7,2 Z " fill="#E6E6E6" transform="translate(15,7)"/>
<path d="M0,0 L2,0 L2,6 L-2,12 L-4,12 L-2,7 Z " fill="#EFEFEF" transform="translate(16,15)"/>
<path d="M0,0 L2,0 L0,9 L-1,9 L-2,1 Z " fill="#BABABA" transform="translate(10,8)"/>
</svg>
