<?xml version="1.0" encoding="UTF-8"?>
<svg version="1.1" xmlns="http://www.w3.org/2000/svg" width="28" height="28">
<path d="M0,0 L28,0 L28,28 L0,28 Z " fill="#020202" transform="translate(0,0)"/>
<path d="M0,0 L6,1 L14,1 L14,5 L4,5 L6,9 L9,13 L8,18 L5,20 L0,19 L-5,15 L-5,13 L-1,14 L0,16 L6,16 L4,11 L-3,8 L-2,3 Z " fill="#D3D3D3" transform="translate(10,6)"/>
<path d="M0,0 L6,1 L14,1 L14,5 L4,5 L3,7 L-2,6 L-1,1 Z " fill="#E1E1E1" transform="translate(10,6)"/>
<path d="M0,0 L5,0 L6,3 L10,5 L11,7 L9,10 L7,6 L0,3 Z " fill="#C6C6C6" transform="translate(7,11)"/>
<path d="M0,0 L5,0 L6,3 L2,4 L0,3 Z " fill="#B0B0B0" transform="translate(7,11)"/>
</svg>
