<?xml version="1.0" encoding="UTF-8"?>
<svg version="1.1" xmlns="http://www.w3.org/2000/svg" width="28" height="28">
<path d="M0,0 L28,0 L28,28 L0,28 Z " fill="#030303" transform="translate(0,0)"/>
<path d="M0,0 L3,0 L2,3 L-4,5 L1,10 L0,17 L-2,19 L-9,20 L-11,19 L-10,15 L-8,14 L-8,16 L-3,17 L-2,9 L-6,9 L-8,13 L-9,13 L-10,7 L-5,1 Z " fill="#EBEBEB" transform="translate(19,4)"/>
<path d="M0,0 L3,0 L2,3 L-4,5 L-2,7 L-7,7 L-10,7 L-5,1 Z " fill="#CECECE" transform="translate(19,4)"/>
<path d="M0,0 L1,2 L5,4 L0,6 L-2,5 L-1,1 Z " fill="#C8C8C8" transform="translate(10,18)"/>
</svg>
