<?xml version="1.0" encoding="UTF-8"?>
<svg version="1.1" xmlns="http://www.w3.org/2000/svg" width="28" height="28">
<path d="M0,0 L28,0 L28,28 L0,28 Z " fill="#020202" transform="translate(0,0)"/>
<path d="M0,0 L6,0 L6,2 L-4,4 L-3,11 L-5,13 L-13,13 L-14,9 L-12,10 L-5,10 L-5,8 L-10,8 L-8,2 L-7,1 Z " fill="#EDEDED" transform="translate(20,8)"/>
<path d="M0,0 L2,1 L2,6 L0,8 L-8,8 L-9,4 L-7,5 L0,5 L-1,1 Z " fill="#C5C5C5" transform="translate(15,13)"/>
<path d="M0,0 L6,0 L6,2 L-2,3 L-7,2 L-7,1 Z " fill="#CACACA" transform="translate(20,8)"/>
</svg>
