<?xml version="1.0" encoding="UTF-8"?>
<svg version="1.1" xmlns="http://www.w3.org/2000/svg" width="28" height="28">
<path d="M0,0 L28,0 L28,28 L0,28 Z " fill="#030303" transform="translate(0,0)"/>
<path d="M0,0 L3,1 L-2,6 L-9,7 L-5,8 L-4,13 L-7,18 L-11,20 L-16,19 L-17,18 L-17,13 L-15,12 L-14,17 L-10,16 L-8,14 L-7,10 L-15,11 L-14,7 L-10,3 L-1,3 Z " fill="#D3D3D3" transform="translate(23,5)"/>
<path d="M0,0 L1,2 L6,2 L4,6 L4,4 L-4,5 Z " fill="#EDEDED" transform="translate(12,11)"/>
<path d="M0,0 L1,0 L2,5 L6,7 L1,8 L-1,6 L-1,1 Z " fill="#BCBCBC" transform="translate(7,17)"/>
<path d="M0,0 L3,1 L-1,5 L-8,5 L-4,3 L-1,3 Z " fill="#DBDBDB" transform="translate(23,5)"/>
</svg>
