<?xml version="1.0" encoding="UTF-8"?>
<svg version="1.1" xmlns="http://www.w3.org/2000/svg" width="28" height="28">
<path d="M0,0 L28,0 L28,28 L0,28 Z " fill="#030303" transform="translate(0,0)"/>
<path d="M0,0 L2,0 L2,3 L-7,4 L-7,6 L-1,6 L1,9 L1,15 L-2,20 L-7,20 L-11,17 L-11,13 L-9,13 L-7,16 L-2,15 L-1,9 L-8,10 L-9,5 L-7,1 Z " fill="#DADADA" transform="translate(18,5)"/>
<path d="M0,0 L2,0 L2,3 L-7,4 L-8,7 L-8,2 L-7,1 Z " fill="#E8E8E8" transform="translate(18,5)"/>
<path d="M0,0 L2,0 L6,6 L1,5 Z " fill="#CCCCCC" transform="translate(7,18)"/>
</svg>
