<?xml version="1.0" encoding="UTF-8"?>
<svg version="1.1" xmlns="http://www.w3.org/2000/svg" width="28" height="28">
<path d="M0,0 L28,0 L28,28 L0,28 Z " fill="#070707" transform="translate(0,0)"/>
<path d="M0,0 L15,1 L15,3 L5,3 L2,3 L1,5 L4,4 L8,5 L8,7 L12,9 L13,13 L8,18 L0,19 L-5,16 L-5,13 L-3,13 L-3,11 L-1,11 L-1,15 L5,15 L8,13 L9,9 L0,8 L-4,9 L-3,4 Z " fill="#E4E4E4" transform="translate(10,6)"/>
<path d="M0,0 L2,0 L2,7 L-2,5 L-2,2 L0,2 Z " fill="#C2C2C2" transform="translate(7,17)"/>
</svg>
