<?xml version="1.0" encoding="UTF-8"?>
<svg version="1.1" xmlns="http://www.w3.org/2000/svg" width="28" height="28">
<path d="M0,0 L28,0 L28,28 L0,28 Z " fill="#050505" transform="translate(0,0)"/>
<path d="M0,0 L9,0 L8,3 L1,3 L0,7 L11,7 L14,10 L14,15 L12,15 L11,18 L7,20 L1,20 L0,18 L8,16 L10,14 L11,10 L-4,10 L-2,1 Z " fill="#E4E4E4" transform="translate(9,5)"/>
<path d="M0,0 L9,0 L8,3 L1,3 L0,7 L5,7 L5,8 L-2,8 L-4,10 L-2,1 Z " fill="#D0D0D0" transform="translate(9,5)"/>
<path d="M0,0 L10,0 L11,2 L-1,3 Z " fill="#FCFCFC" transform="translate(7,12)"/>
</svg>
