<?xml version="1.0" encoding="UTF-8"?>
<svg version="1.1" xmlns="http://www.w3.org/2000/svg" width="28" height="28">
<path d="M0,0 L28,0 L28,28 L0,28 Z " fill="#040404" transform="translate(0,0)"/>
<path d="M0,0 L7,2 L7,3 L1,3 L1,6 L9,6 L11,8 L11,15 L9,17 L1,17 L0,13 L2,13 L2,15 L9,14 L8,9 L0,8 L-2,4 Z " fill="#DDDDDD" transform="translate(10,6)"/>
<path d="M0,0 L7,2 L7,3 L1,3 L1,6 L8,6 L8,7 L-1,7 L-2,4 Z " fill="#E4E4E4" transform="translate(10,6)"/>
<path d="M0,0 L3,3 L1,6 L0,3 L-8,2 L-8,1 Z " fill="#A4A4A4" transform="translate(18,12)"/>
</svg>
