<?xml version="1.0" encoding="UTF-8"?>
<svg version="1.1" xmlns="http://www.w3.org/2000/svg" width="28" height="28">
<path d="M0,0 L28,0 L28,28 L0,28 Z " fill="#030303" transform="translate(0,0)"/>
<path d="M0,0 L7,0 L7,2 L0,4 L-1,7 L4,7 L10,12 L11,17 L8,20 L0,20 L-2,19 L-2,16 L7,17 L6,12 L3,10 L-3,9 L-2,2 L0,2 Z " fill="#E3E3E3" transform="translate(11,4)"/>
<path d="M0,0 L7,0 L7,2 L-1,4 L-2,2 L0,2 Z " fill="#D1D1D1" transform="translate(11,4)"/>
<path d="M0,0 L5,1 L7,5 L5,8 L2,2 Z " fill="#C1C1C1" transform="translate(14,13)"/>
</svg>
