<?xml version="1.0" encoding="UTF-8"?>
<svg version="1.1" xmlns="http://www.w3.org/2000/svg" width="28" height="28">
<path d="M0,0 L28,0 L28,28 L0,28 Z " fill="#060606" transform="translate(0,0)"/>
<path d="M0,0 L13,0 L14,2 L4,3 L2,5 L1,9 L6,7 L10,8 L10,12 L5,15 L-6,17 L-6,14 L-1,12 L3,12 L4,11 L-1,11 L-1,3 Z " fill="#D7D7D7" transform="translate(11,7)"/>
<path d="M0,0 L13,0 L14,2 L4,3 L2,5 L1,9 L3,9 L3,11 L-1,11 L-1,3 Z " fill="#E6E6E6" transform="translate(11,7)"/>
<path d="M0,0 L1,0 L1,5 L3,5 L3,7 L-1,7 L-1,1 Z " fill="#FDFDFD" transform="translate(11,11)"/>
</svg>
