<?xml version="1.0" encoding="UTF-8"?>
<svg version="1.1" xmlns="http://www.w3.org/2000/svg" width="28" height="28">
<path d="M0,0 L28,0 L28,28 L0,28 Z " fill="#020202" transform="translate(0,0)"/>
<path d="M0,0 L11,0 L14,2 L14,4 L3,3 L3,9 L9,10 L10,16 L7,20 L3,19 L6,17 L7,12 L2,14 L-1,14 L-1,2 Z " fill="#F0F0F0" transform="translate(9,6)"/>
<path d="M0,0 L1,0 L1,6 L7,7 L8,13 L5,17 L1,16 L4,14 L5,9 L2,9 L2,7 L0,7 Z " fill="#CDCDCD" transform="translate(11,9)"/>
<path d="M0,0 L6,1 L7,4 L-4,3 Z " fill="#CCCCCC" transform="translate(16,6)"/>
</svg>
