<?xml version="1.0" encoding="UTF-8"?>
<svg version="1.1" xmlns="http://www.w3.org/2000/svg" width="28" height="28">
<path d="M0,0 L28,0 L28,28 L0,28 Z " fill="#020202" transform="translate(0,0)"/>
<path d="M0,0 L1,2 L10,0 L11,3 L3,5 L-1,5 L1,9 L0,16 L-2,18 L-7,18 L-7,16 L-9,16 L-8,13 L-3,14 L-1,9 L-7,10 L-6,6 Z " fill="#CECECE" transform="translate(15,7)"/>
<path d="M0,0 L4,1 L4,3 L-1,4 L-8,4 L-7,2 Z " fill="#EEEEEE" transform="translate(22,7)"/>
<path d="M0,0 L0,3 L3,5 L-1,5 L-2,7 L-4,7 L-4,10 L-7,10 L-6,6 Z " fill="#C5C5C5" transform="translate(15,7)"/>
<path d="M0,0 L1,2 L3,2 L4,8 L2,4 L-3,4 Z " fill="#F8F8F8" transform="translate(12,12)"/>
</svg>
