<?xml version="1.0" encoding="UTF-8"?>
<svg version="1.1" xmlns="http://www.w3.org/2000/svg" width="28" height="28">
<path d="M0,0 L28,0 L28,28 L0,28 Z " fill="#020202" transform="translate(0,0)"/>
<path d="M0,0 L14,1 L13,3 L2,4 L1,9 L6,9 L8,11 L8,16 L4,20 L-2,20 L2,18 L5,15 L6,12 L-2,13 L-1,2 Z " fill="#E5E5E5" transform="translate(11,6)"/>
<path d="M0,0 L14,1 L13,3 L2,4 L1,9 L6,9 L6,10 L0,10 L-1,2 Z " fill="#BCBCBC" transform="translate(11,6)"/>
<path d="M0,0 L2,3 L-2,7 L-8,7 L-4,5 Z " fill="#C8C8C8" transform="translate(17,19)"/>
</svg>
