<?xml version="1.0" encoding="UTF-8"?>
<svg version="1.1" xmlns="http://www.w3.org/2000/svg" width="28" height="28">
<path d="M0,0 L28,0 L28,28 L0,28 Z " fill="#040404" transform="translate(0,0)"/>
<path d="M0,0 L10,0 L12,2 L3,5 L2,9 L2,17 L-1,20 L-5,19 L-1,15 L-1,1 Z " fill="#F2F2F2" transform="translate(12,6)"/>
<path d="M0,0 L3,0 L3,11 L0,14 L-4,13 L0,9 Z " fill="#EAEAEA" transform="translate(11,12)"/>
<path d="M0,0 L9,0 L9,1 L2,1 L1,5 L-1,1 Z " fill="#939393" transform="translate(12,6)"/>
</svg>
