<?xml version="1.0" encoding="UTF-8"?>
<svg version="1.1" xmlns="http://www.w3.org/2000/svg" width="28" height="28">
<path d="M0,0 L28,0 L28,28 L0,28 Z " fill="#020202" transform="translate(0,0)"/>
<path d="M0,0 L7,0 L7,2 L-4,5 L-2,9 L0,14 L-5,16 L-11,15 L-13,14 L-12,12 L-2,14 L-3,11 L-9,6 L-9,3 Z " fill="#D6D6D6" transform="translate(18,7)"/>
<path d="M0,0 L5,5 L6,9 L1,11 L-5,10 L-7,9 L-6,7 L4,9 L3,6 L-2,1 Z " fill="#CCCCCC" transform="translate(12,12)"/>
<path d="M0,0 L5,5 L6,9 L4,9 L3,6 L-2,1 Z " fill="#B3B3B3" transform="translate(12,12)"/>
</svg>
