<?xml version="1.0" encoding="UTF-8"?>
<svg version="1.1" xmlns="http://www.w3.org/2000/svg" width="28" height="28">
<path d="M0,0 L28,0 L28,28 L0,28 Z " fill="#020202" transform="translate(0,0)"/>
<path d="M0,0 L2,0 L1,4 L-6,4 L-6,8 L-4,7 L2,7 L3,9 L3,15 L-4,20 L-11,19 L-10,16 L-4,16 L-1,14 L0,9 L-5,10 L-5,12 L-9,11 L-9,3 L-7,1 Z " fill="#D6D6D6" transform="translate(18,5)"/>
<path d="M0,0 L2,0 L1,4 L-6,4 L-5,9 L-7,9 L-9,6 L-8,2 L-7,1 Z " fill="#AAAAAA" transform="translate(18,5)"/>
<path d="M0,0 L2,0 L2,3 L-6,3 L-5,1 Z " fill="#F1F1F1" transform="translate(18,5)"/>
</svg>
