<?xml version="1.0" encoding="UTF-8"?>
<svg version="1.1" xmlns="http://www.w3.org/2000/svg" width="28" height="28">
<path d="M0,0 L28,0 L28,28 L0,28 Z " fill="#020202" transform="translate(0,0)"/>
<path d="M0,0 L7,0 L6,3 L1,4 L1,6 L8,7 L11,10 L10,16 L7,20 L0,20 L-2,18 L-1,14 L1,14 L1,18 L6,16 L7,15 L7,10 L-3,9 L-1,1 Z " fill="#E8E8E8" transform="translate(11,4)"/>
<path d="M0,0 L7,0 L6,3 L1,4 L1,6 L5,7 L0,7 L-2,6 L-1,1 Z " fill="#CACACA" transform="translate(11,4)"/>
<path d="M0,0 L2,0 L2,4 L5,5 L1,6 L-1,4 Z " fill="#D1D1D1" transform="translate(10,18)"/>
</svg>
