<?xml version="1.0" encoding="UTF-8"?>
<svg version="1.1" xmlns="http://www.w3.org/2000/svg" width="28" height="28">
<path d="M0,0 L28,0 L28,28 L0,28 Z " fill="#040404" transform="translate(0,0)"/>
<path d="M0,0 L8,0 L8,2 L-1,4 L-2,8 L4,7 L6,9 L5,15 L3,15 L1,19 L-6,20 L-8,19 L-8,16 L-5,16 L-8,11 L-7,6 L-3,1 Z " fill="#E8E8E8" transform="translate(15,4)"/>
<path d="M0,0 L4,1 L5,6 L4,8 L2,8 L0,12 L-7,13 L-9,12 L-9,9 L-6,9 L-5,6 L-2,7 Z " fill="#ECECEC" transform="translate(16,11)"/>
<path d="M0,0 L8,0 L8,2 L-3,5 L-8,9 L-6,5 L-3,1 Z " fill="#E6E6E6" transform="translate(15,4)"/>
<path d="M0,0 L6,0 L4,4 L0,2 Z " fill="#323232" transform="translate(10,15)"/>
</svg>
