<?xml version="1.0" encoding="UTF-8"?>
<svg version="1.1" xmlns="http://www.w3.org/2000/svg" width="28" height="28">
<path d="M0,0 L28,0 L28,28 L0,28 Z " fill="#040404" transform="translate(0,0)"/>
<path d="M0,0 L0,3 L-6,3 L-6,7 L0,8 L3,11 L2,18 L-1,20 L-10,20 L-11,16 L-7,15 L-8,18 L-2,17 L0,12 L-3,10 L-10,10 L-8,1 Z " fill="#E4E4E4" transform="translate(18,4)"/>
<path d="M0,0 L0,3 L-6,3 L-6,7 L-1,8 L-1,9 L-10,10 L-8,1 Z " fill="#FAFAFA" transform="translate(18,4)"/>
<path d="M0,0 L3,1 L2,3 L6,5 L0,5 L-1,1 Z " fill="#B1B1B1" transform="translate(8,19)"/>
</svg>
