<?xml version="1.0" encoding="UTF-8"?>
<svg version="1.1" xmlns="http://www.w3.org/2000/svg" width="28" height="28">
<path d="M0,0 L28,0 L28,28 L0,28 Z " fill="#020202" transform="translate(0,0)"/>
<path d="M0,0 L5,0 L4,2 L-6,4 L-6,8 L-3,7 L5,7 L6,11 L3,13 L4,8 L-8,12 L-12,15 L-11,10 L-9,8 L-8,3 Z " fill="#BEBEBE" transform="translate(17,6)"/>
<path d="M0,0 L2,1 L-4,5 L-6,6 L-5,1 Z " fill="#E2E2E2" transform="translate(11,15)"/>
<path d="M0,0 L2,1 L-2,6 L-6,7 L-4,4 L-2,4 Z " fill="#BEBEBE" transform="translate(18,19)"/>
</svg>
