<?xml version="1.0" encoding="UTF-8"?>
<svg version="1.1" xmlns="http://www.w3.org/2000/svg" width="28" height="28">
<path d="M0,0 L28,0 L28,28 L0,28 Z " fill="#020202" transform="translate(0,0)"/>
<path d="M0,0 L6,2 L7,5 L5,5 L8,9 L7,16 L3,20 L-2,19 L-3,15 L-1,14 L1,17 L6,13 L6,10 L0,9 Z " fill="#E5E5E5" transform="translate(11,4)"/>
<path d="M0,0 L6,2 L7,5 L5,5 L5,7 L1,7 Z " fill="#727272" transform="translate(11,4)"/>
<path d="M0,0 L3,3 L6,4 L5,6 L0,5 L-1,1 Z " fill="#B6B6B6" transform="translate(9,18)"/>
</svg>
