<?xml version="1.0" encoding="UTF-8"?>
<svg version="1.1" xmlns="http://www.w3.org/2000/svg" width="28" height="28">
<path d="M0,0 L28,0 L28,28 L0,28 Z " fill="#040404" transform="translate(0,0)"/>
<path d="M0,0 L3,1 L2,3 L-11,5 L-12,8 L-6,8 L-2,12 L-3,17 L-5,19 L-14,19 L-17,15 L-15,14 L-13,15 L-5,15 L-6,12 L-12,12 L-16,12 L-14,2 L-13,1 Z " fill="#F0F0F0" transform="translate(23,5)"/>
<path d="M0,0 L3,1 L2,3 L-11,5 L-12,8 L-10,9 L-16,11 L-14,2 L-13,1 Z " fill="#CFCFCF" transform="translate(23,5)"/>
<path d="M0,0 L1,4 L-2,7 L-5,6 L-8,4 L-1,2 Z " fill="#D3D3D3" transform="translate(20,17)"/>
<path d="M0,0 L2,3 L2,6 L4,7 L-2,9 Z " fill="#B9B9B9" transform="translate(9,7)"/>
</svg>
