<?xml version="1.0" encoding="UTF-8"?>
<svg version="1.1" xmlns="http://www.w3.org/2000/svg" width="28" height="28">
<path d="M0,0 L28,0 L28,28 L0,28 Z " fill="#050505" transform="translate(0,0)"/>
<path d="M0,0 L2,0 L2,4 L10,4 L14,7 L14,14 L11,15 L2,15 L-2,12 L-1,9 L1,11 L12,12 L12,8 L6,7 L0,8 L-1,5 Z " fill="#E3E3E3" transform="translate(7,8)"/>
<path d="M0,0 L9,0 L9,3 L-6,3 L-6,1 Z " fill="#DADADA" transform="translate(16,6)"/>
<path d="M0,0 L3,2 L8,3 L6,6 L1,4 Z " fill="#C4C4C4" transform="translate(5,17)"/>
</svg>
