<?xml version="1.0" encoding="UTF-8"?>
<svg version="1.1" xmlns="http://www.w3.org/2000/svg" width="28" height="28">
<path d="M0,0 L28,0 L28,28 L0,28 Z " fill="#030303" transform="translate(0,0)"/>
<path d="M0,0 L3,0 L3,2 L12,1 L13,4 L5,6 L11,9 L13,11 L13,17 L9,20 L-1,18 L0,15 L9,16 L10,12 L8,11 L2,11 L-1,12 Z " fill="#D6D6D6" transform="translate(9,5)"/>
<path d="M0,0 L1,2 L7,2 L7,4 L-2,6 L-1,1 Z " fill="#F8F8F8" transform="translate(10,11)"/>
<path d="M0,0 L5,1 L6,4 L-1,3 Z " fill="#D4D4D4" transform="translate(9,20)"/>
</svg>
