<?xml version="1.0" encoding="UTF-8"?>
<svg version="1.1" xmlns="http://www.w3.org/2000/svg" width="28" height="28">
<path d="M0,0 L28,0 L28,28 L0,28 Z " fill="#020202" transform="translate(0,0)"/>
<path d="M0,0 L5,1 L4,3 L-6,5 L-7,8 L0,9 L4,13 L3,18 L1,20 L-6,19 L-9,16 L1,17 L0,12 L-8,12 L-11,13 L-10,2 Z " fill="#CACACA" transform="translate(18,5)"/>
<path d="M0,0 L5,1 L4,3 L-6,5 L-7,8 L-2,8 L-2,9 L-10,9 L-10,2 Z " fill="#CECECE" transform="translate(18,5)"/>
<path d="M0,0 L6,1 L3,6 L8,6 L8,7 L0,7 Z " fill="#AEAEAE" transform="translate(8,7)"/>
<path d="M0,0 L1,4 L8,4 L8,5 L1,7 L-2,8 L-1,4 Z " fill="#F6F6F6" transform="translate(9,10)"/>
</svg>
