<?xml version="1.0" encoding="UTF-8"?>
<svg version="1.1" xmlns="http://www.w3.org/2000/svg" width="28" height="28">
<path d="M0,0 L28,0 L28,28 L0,28 Z " fill="#040404" transform="translate(0,0)"/>
<path d="M0,0 L10,0 L11,4 L1,4 L1,6 L9,6 L14,9 L15,16 L13,20 L0,19 L0,16 L11,17 L11,10 L-2,11 L-2,4 Z " fill="#E3E3E3" transform="translate(9,5)"/>
<path d="M0,0 L4,1 L5,8 L3,10 L1,9 L1,2 L-2,1 Z " fill="#CBCBCB" transform="translate(19,13)"/>
<path d="M0,0 L7,0 L4,3 L-1,3 Z " fill="#393939" transform="translate(10,9)"/>
</svg>
