<?xml version="1.0" encoding="UTF-8"?>
<svg version="1.1" xmlns="http://www.w3.org/2000/svg" width="28" height="28">
<path d="M0,0 L28,0 L28,28 L0,28 Z " fill="#050505" transform="translate(0,0)"/>
<path d="M0,0 L4,0 L4,2 L-4,4 L-8,4 L-8,7 L0,8 L6,15 L5,19 L4,20 L-4,20 L-12,17 L-12,14 L-2,17 L2,16 L1,12 L-3,10 L-11,10 L-12,3 L-9,1 Z " fill="#DEDEDE" transform="translate(18,5)"/>
<path d="M0,0 L4,0 L4,2 L-4,4 L-8,4 L-8,7 L-3,7 L-3,9 L-11,10 L-12,3 L-9,1 Z " fill="#EEEEEE" transform="translate(18,5)"/>
<path d="M0,0 L10,3 L16,5 L16,6 L8,6 L0,3 Z " fill="#B1B1B1" transform="translate(6,19)"/>
</svg>
