<?xml version="1.0" encoding="UTF-8"?>
<svg version="1.1" xmlns="http://www.w3.org/2000/svg" width="28" height="28">
<path d="M0,0 L28,0 L28,28 L0,28 Z " fill="#020202" transform="translate(0,0)"/>
<path d="M0,0 L4,1 L-2,8 L9,9 L9,14 L3,18 L-2,20 L-6,20 L-6,18 L6,13 L-3,12 L-5,10 L-4,6 Z " fill="#D4D4D4" transform="translate(13,4)"/>
<path d="M0,0 L4,1 L-2,8 L6,9 L7,11 L-4,11 L-5,7 Z " fill="#E0E0E0" transform="translate(13,4)"/>
<path d="M0,0 L3,0 L3,5 L0,6 L0,4 L-9,3 L-9,2 L0,1 Z " fill="#B6B6B6" transform="translate(19,13)"/>
</svg>
