<?xml version="1.0" encoding="UTF-8"?>
<svg version="1.1" xmlns="http://www.w3.org/2000/svg" width="28" height="28">
<path d="M0,0 L28,0 L28,28 L0,28 Z " fill="#030303" transform="translate(0,0)"/>
<path d="M0,0 L2,0 L2,2 L11,5 L9,10 L6,12 L0,12 L-3,10 L-3,7 L1,9 L9,8 L9,6 L0,3 Z " fill="#C4C4C4" transform="translate(9,11)"/>
<path d="M0,0 L14,0 L13,2 L9,4 L0,4 Z " fill="#D9D9D9" transform="translate(11,7)"/>
<path d="M0,0 L4,2 L7,3 L7,5 L1,4 Z " fill="#DEDEDE" transform="translate(6,18)"/>
</svg>
