<?xml version="1.0" encoding="UTF-8"?>
<svg version="1.1" xmlns="http://www.w3.org/2000/svg" width="28" height="28">
<path d="M0,0 L28,0 L28,28 L0,28 Z " fill="#020202" transform="translate(0,0)"/>
<path d="M0,0 L6,0 L5,2 L-3,4 L-4,7 L-6,9 L-3,11 L-3,16 L-5,18 L-11,17 L-14,14 L-5,15 L-5,12 L-12,11 L-10,7 Z " fill="#CECECE" transform="translate(20,5)"/>
<path d="M0,0 L7,1 L7,4 L-2,3 L0,2 Z " fill="#191919" transform="translate(8,16)"/>
<path d="M0,0 L4,2 L6,3 L5,6 L-2,4 Z " fill="#EAEAEA" transform="translate(10,12)"/>
</svg>
