<?xml version="1.0" encoding="UTF-8"?>
<svg version="1.1" xmlns="http://www.w3.org/2000/svg" width="28" height="28">
<path d="M0,0 L28,0 L28,28 L0,28 Z " fill="#040404" transform="translate(0,0)"/>
<path d="M0,0 L2,0 L1,3 L-6,6 L-11,7 L-2,11 L0,13 L-1,17 L-5,20 L-12,20 L-17,18 L-18,15 L-15,14 L-12,16 L-5,17 L-5,15 L-3,15 L-3,13 L-12,11 L-16,8 L-16,5 L-4,2 Z " fill="#E5E5E5" transform="translate(22,3)"/>
<path d="M0,0 L5,2 L11,3 L11,4 L4,5 L0,4 L-1,1 Z " fill="#C1C1C1" transform="translate(5,17)"/>
</svg>
