<?xml version="1.0" encoding="UTF-8"?>
<svg version="1.1" xmlns="http://www.w3.org/2000/svg" width="28" height="28">
<path d="M0,0 L28,0 L28,28 L0,28 Z " fill="#020202" transform="translate(0,0)"/>
<path d="M0,0 L2,0 L2,2 L6,3 L5,9 L3,9 L2,12 L-4,12 L-7,9 L1,8 L3,4 L-1,5 L-1,2 Z " fill="#BFBFBF" transform="translate(12,11)"/>
<path d="M0,0 L0,3 L-7,7 L-10,7 L-9,4 Z " fill="#C6C6C6" transform="translate(24,3)"/>
<path d="M0,0 L2,0 L2,2 L5,2 L4,6 L4,4 L-1,5 L-1,2 Z " fill="#E9E9E9" transform="translate(12,11)"/>
</svg>
