<?xml version="1.0" encoding="UTF-8"?>
<svg version="1.1" xmlns="http://www.w3.org/2000/svg" width="28" height="28">
<path d="M0,0 L28,0 L28,28 L0,28 Z " fill="#020202" transform="translate(0,0)"/>
<path d="M0,0 L14,0 L15,2 L1,2 L1,5 L8,6 L8,11 L4,14 L-1,13 L-2,9 L-5,9 L-3,4 Z " fill="#D3D3D3" transform="translate(11,8)"/>
<path d="M0,0 L14,0 L15,2 L1,2 L0,6 L5,6 L3,8 L-4,8 L-3,4 Z " fill="#E0E0E0" transform="translate(11,8)"/>
<path d="M0,0 L8,2 L8,7 L6,5 L1,7 L-1,5 L3,3 L0,2 Z " fill="#797979" transform="translate(11,12)"/>
<path d="M0,0 L1,2 L0,4 L5,4 L3,6 L-4,6 L-3,2 Z " fill="#F6F6F6" transform="translate(11,10)"/>
</svg>
