<?xml version="1.0" encoding="UTF-8"?>
<svg version="1.1" xmlns="http://www.w3.org/2000/svg" width="28" height="28">
<path d="M0,0 L28,0 L28,28 L0,28 Z " fill="#020202" transform="translate(0,0)"/>
<path d="M0,0 L5,0 L5,3 L-2,4 L-8,5 L-8,9 L-3,9 L-1,13 L-6,18 L-12,18 L-14,16 L-13,13 L-13,15 L-7,15 L-5,14 L-4,11 L-10,10 L-11,6 L-8,2 Z " fill="#C8C8C8" transform="translate(20,6)"/>
<path d="M0,0 L2,4 L-2,7 L-8,7 L-10,5 L-9,2 L-9,4 L-3,4 L-1,3 Z " fill="#C0C0C0" transform="translate(16,17)"/>
<path d="M0,0 L5,0 L5,3 L-9,4 L-8,2 Z " fill="#E6E6E6" transform="translate(20,6)"/>
</svg>
