<?xml version="1.0" encoding="UTF-8"?>
<svg version="1.1" xmlns="http://www.w3.org/2000/svg" width="28" height="28">
<path d="M0,0 L28,0 L28,28 L0,28 Z " fill="#030303" transform="translate(0,0)"/>
<path d="M0,0 L2,0 L2,2 L7,0 L11,0 L11,6 L6,11 L1,10 L5,8 L8,4 L-1,5 Z " fill="#DEDEDE" transform="translate(9,14)"/>
<path d="M0,0 L3,0 L2,3 L-4,5 L-9,5 L-10,3 L-3,1 Z " fill="#E1E1E1" transform="translate(19,5)"/>
<path d="M0,0 L4,0 L4,6 L2,3 L-2,4 L-2,1 Z " fill="#BCBCBC" transform="translate(16,14)"/>
</svg>
