<?xml version="1.0" encoding="UTF-8"?>
<svg version="1.1" xmlns="http://www.w3.org/2000/svg" width="28" height="28">
<path d="M0,0 L28,0 L28,28 L0,28 Z " fill="#030303" transform="translate(0,0)"/>
<path d="M0,0 L6,0 L3,2 L-3,5 L-6,10 L-3,12 L-3,18 L-5,20 L-10,19 L-13,15 L-12,12 L-10,16 L-6,18 L-7,13 L-10,8 L-9,4 L-7,2 Z " fill="#E8E8E8" transform="translate(20,5)"/>
<path d="M0,0 L2,4 L6,6 L7,4 L8,7 L3,8 L-1,3 Z " fill="#CBCBCB" transform="translate(8,17)"/>
<path d="M0,0 L2,1 L-1,9 L-3,6 L-2,2 Z " fill="#AFAFAF" transform="translate(13,7)"/>
</svg>
