<?xml version="1.0" encoding="UTF-8"?>
<svg version="1.1" xmlns="http://www.w3.org/2000/svg" width="28" height="28">
<path d="M0,0 L28,0 L28,28 L0,28 Z " fill="#020202" transform="translate(0,0)"/>
<path d="M0,0 L2,0 L2,3 L-7,8 L-8,10 L-4,10 L-5,16 L-9,20 L-13,19 L-13,17 L-8,15 L-7,13 L-11,14 L-10,7 L-6,3 Z " fill="#D7D7D7" transform="translate(21,4)"/>
<path d="M0,0 L2,0 L2,3 L-6,7 L-8,5 L-3,2 Z " fill="#C7C7C7" transform="translate(21,4)"/>
<path d="M0,0 L3,1 L1,5 L3,6 L-2,8 L-1,1 Z " fill="#F0F0F0" transform="translate(12,10)"/>
</svg>
