<?xml version="1.0" encoding="UTF-8"?>
<svg version="1.1" xmlns="http://www.w3.org/2000/svg" width="28" height="28">
<path d="M0,0 L28,0 L28,28 L0,28 Z " fill="#040404" transform="translate(0,0)"/>
<path d="M0,0 L10,0 L12,1 L12,3 L9,4 L0,4 L1,7 L8,10 L9,16 L6,19 L-3,20 L-6,18 L-6,14 L-4,14 L-4,16 L3,16 L5,13 L0,10 L-5,9 L-4,4 Z " fill="#E8E8E8" transform="translate(12,5)"/>
<path d="M0,0 L10,0 L12,1 L12,3 L9,4 L0,4 L-1,7 L-2,5 L-5,5 Z " fill="#B9B9B9" transform="translate(12,5)"/>
<path d="M0,0 L6,1 L6,3 L-6,3 L-5,1 Z " fill="#EDEDED" transform="translate(18,5)"/>
</svg>
