<?xml version="1.0" encoding="UTF-8"?>
<svg version="1.1" xmlns="http://www.w3.org/2000/svg" width="28" height="28">
<path d="M0,0 L28,0 L28,28 L0,28 Z " fill="#030303" transform="translate(0,0)"/>
<path d="M0,0 L3,0 L1,4 L-8,7 L-8,10 L-4,10 L-4,15 L-10,20 L-14,19 L-15,16 L-10,16 L-7,15 L-7,13 L-12,14 L-13,12 L-10,6 L-3,2 L0,2 Z " fill="#ECECEC" transform="translate(22,4)"/>
<path d="M0,0 L2,3 L-3,7 L-7,6 L-8,3 L-3,3 L0,2 Z " fill="#D6D6D6" transform="translate(15,17)"/>
<path d="M0,0 L3,0 L1,4 L-3,5 L-3,2 L0,2 Z " fill="#CBCBCB" transform="translate(22,4)"/>
</svg>
