<?xml version="1.0" encoding="UTF-8"?>
<svg version="1.1" xmlns="http://www.w3.org/2000/svg" width="28" height="28">
<path d="M0,0 L28,0 L28,28 L0,28 Z " fill="#020202" transform="translate(0,0)"/>
<path d="M0,0 L2,0 L4,3 L3,10 L0,13 L-6,12 L-9,9 L0,9 L0,6 L-4,8 L-3,4 Z " fill="#C8C8C8" transform="translate(14,9)"/>
<path d="M0,0 L1,4 L-1,6 L-7,6 L-5,2 L-3,2 Z " fill="#222222" transform="translate(15,13)"/>
<path d="M0,0 L2,0 L3,4 L-4,8 L-3,4 Z " fill="#DEDEDE" transform="translate(14,9)"/>
<path d="M0,0 L8,0 L7,2 L0,3 Z " fill="#E5E5E5" transform="translate(17,7)"/>
</svg>
