<?xml version="1.0" encoding="UTF-8"?>
<svg version="1.1" xmlns="http://www.w3.org/2000/svg" width="28" height="28">
<path d="M0,0 L28,0 L28,28 L0,28 Z " fill="#030303" transform="translate(0,0)"/>
<path d="M0,0 L9,1 L15,2 L15,3 L1,3 L0,5 L9,6 L13,10 L12,16 L3,20 L-4,19 L-4,17 L5,16 L10,15 L9,9 L-4,8 L-3,4 L-2,1 Z " fill="#C5C5C5" transform="translate(10,6)"/>
<path d="M0,0 L9,1 L15,2 L15,3 L1,3 L0,5 L6,6 L6,7 L-4,8 L-3,4 L-2,1 Z " fill="#EDEDED" transform="translate(10,6)"/>
<path d="M0,0 L14,1 L14,2 L6,2 L6,4 L-2,4 Z " fill="#363636" transform="translate(11,8)"/>
</svg>
