<?xml version="1.0" encoding="UTF-8"?>
<svg version="1.1" xmlns="http://www.w3.org/2000/svg" width="28" height="28">
<path d="M0,0 L28,0 L28,28 L0,28 Z " fill="#040404" transform="translate(0,0)"/>
<path d="M0,0 L5,1 L5,3 L2,4 L7,9 L8,10 L8,16 L3,20 L-4,20 L-6,17 L-5,12 L-3,15 L-3,17 L5,16 L3,9 L-3,5 L-2,1 Z " fill="#F0F0F0" transform="translate(13,4)"/>
<path d="M0,0 L2,3 L6,8 L1,8 L-1,5 Z " fill="#CFCFCF" transform="translate(8,16)"/>
<path d="M0,0 L3,3 L3,9 L0,8 L-1,2 Z " fill="#D8D8D8" transform="translate(18,11)"/>
</svg>
