<?xml version="1.0" encoding="UTF-8"?>
<svg version="1.1" xmlns="http://www.w3.org/2000/svg" width="28" height="28">
<path d="M0,0 L28,0 L28,28 L0,28 Z " fill="#060606" transform="translate(0,0)"/>
<path d="M0,0 L1,4 L8,4 L10,6 L1,6 L1,9 L8,10 L10,12 L9,17 L7,19 L4,18 L7,15 L6,12 L2,12 L0,15 L-2,15 L-1,4 Z " fill="#F7F7F7" transform="translate(12,3)"/>
<path d="M0,0 L5,1 L5,5 L3,5 L4,9 L-4,9 L-9,4 L-8,1 L-6,4 L-2,3 Z " fill="#C5C5C5" transform="translate(14,14)"/>
<path d="M0,0 L5,1 L5,5 L3,6 L-3,6 Z " fill="#0D0D0D" transform="translate(14,14)"/>
<path d="M0,0 L8,2 L10,4 L9,9 L7,11 L4,10 L7,7 L6,4 L0,2 Z " fill="#E1E1E1" transform="translate(12,11)"/>
</svg>
