<?xml version="1.0" encoding="UTF-8"?>
<svg version="1.1" xmlns="http://www.w3.org/2000/svg" width="28" height="28">
<path d="M0,0 L28,0 L28,28 L0,28 Z " fill="#050505" transform="translate(0,0)"/>
<path d="M0,0 L11,1 L11,3 L0,3 L0,5 L-4,7 L-5,9 L1,10 L6,13 L7,17 L5,19 L-5,19 L-7,17 L-6,13 L-5,11 L-9,10 L-8,5 L-3,3 L-3,1 Z " fill="#E4E4E4" transform="translate(15,4)"/>
<path d="M0,0 L4,1 L5,5 L3,7 L-5,7 L-5,5 L2,4 L2,2 L0,2 Z " fill="#F5F5F5" transform="translate(17,16)"/>
<path d="M0,0 L11,1 L11,3 L0,3 L0,5 L-2,5 L-3,1 Z " fill="#CACACA" transform="translate(15,4)"/>
<path d="M0,0 L6,1 L8,2 L8,4 L3,5 L0,4 Z " fill="#222222" transform="translate(11,16)"/>
</svg>
