<?xml version="1.0" encoding="UTF-8"?>
<svg version="1.1" xmlns="http://www.w3.org/2000/svg" width="28" height="28">
<path d="M0,0 L28,0 L28,28 L0,28 Z " fill="#050505" transform="translate(0,0)"/>
<path d="M0,0 L3,0 L3,3 L-8,6 L-11,6 L-11,8 L-3,10 L-2,16 L-6,19 L-15,19 L-17,18 L-16,14 L-14,13 L-14,16 L-6,16 L-4,12 L-15,11 L-14,7 L-11,4 Z " fill="#F3F3F3" transform="translate(22,4)"/>
<path d="M0,0 L3,0 L3,3 L-8,6 L-11,6 L-10,10 L-15,10 L-13,6 L-8,3 Z " fill="#D0D0D0" transform="translate(22,4)"/>
<path d="M0,0 L1,3 L8,4 L9,6 L0,6 L-2,5 L-1,1 Z " fill="#DDDDDD" transform="translate(7,17)"/>
</svg>
