<?xml version="1.0" encoding="UTF-8"?>
<svg version="1.1" xmlns="http://www.w3.org/2000/svg" width="28" height="28">
<path d="M0,0 L28,0 L28,28 L0,28 Z " fill="#020202" transform="translate(0,0)"/>
<path d="M0,0 L5,1 L1,3 L-9,6 L-10,7 L-3,8 L-2,13 L-6,15 L-15,15 L-15,13 L-4,12 L-4,10 L-15,10 L-12,5 L-8,1 L-2,1 Z " fill="#DBDBDB" transform="translate(22,7)"/>
<path d="M0,0 L11,0 L11,2 L9,3 L1,3 Z " fill="#1A1A1A" transform="translate(7,17)"/>
<path d="M0,0 L3,1 L2,4 L-2,6 L-5,5 Z " fill="#BCBCBC" transform="translate(14,8)"/>
</svg>
