<?xml version="1.0" encoding="UTF-8"?>
<svg version="1.1" xmlns="http://www.w3.org/2000/svg" width="28" height="28">
<path d="M0,0 L28,0 L28,28 L0,28 Z " fill="#050505" transform="translate(0,0)"/>
<path d="M0,0 L4,1 L4,3 L-6,5 L-8,4 L-8,6 L1,6 L7,9 L9,14 L4,19 L-3,20 L-8,17 L-8,15 L-5,16 L3,16 L6,13 L6,11 L3,10 L-11,9 L-10,4 L-8,1 Z " fill="#C7C7C7" transform="translate(16,5)"/>
<path d="M0,0 L4,1 L4,3 L-6,5 L-8,4 L-8,7 L0,7 L0,8 L-11,9 L-10,4 L-8,1 Z " fill="#E6E6E6" transform="translate(16,5)"/>
<path d="M0,0 L12,2 L12,4 L5,5 L0,2 Z " fill="#DEDEDE" transform="translate(8,20)"/>
</svg>
