<?xml version="1.0" encoding="UTF-8"?>
<svg version="1.1" xmlns="http://www.w3.org/2000/svg" width="28" height="28">
<path d="M0,0 L28,0 L28,28 L0,28 Z " fill="#040404" transform="translate(0,0)"/>
<path d="M0,0 L7,0 L7,2 L-2,4 L-6,7 L1,10 L0,15 L-4,18 L-12,18 L-13,15 L-5,15 L-2,13 L-2,11 L-11,10 L-9,6 L-4,2 Z " fill="#C7C7C7" transform="translate(18,5)"/>
<path d="M0,0 L7,0 L7,2 L-2,4 L-6,7 L-2,9 L-9,9 L-11,10 L-9,6 L-4,2 Z " fill="#BFBFBF" transform="translate(18,5)"/>
<path d="M0,0 L9,1 L10,5 L8,7 L7,3 L-1,2 Z " fill="#EDEDED" transform="translate(9,13)"/>
</svg>
