<?xml version="1.0" encoding="UTF-8"?>
<svg version="1.1" xmlns="http://www.w3.org/2000/svg" width="28" height="28">
<path d="M0,0 L28,0 L28,28 L0,28 Z " fill="#040404" transform="translate(0,0)"/>
<path d="M0,0 L12,0 L9,3 L1,3 L2,5 L7,7 L9,11 L8,16 L3,20 L-3,20 L-4,15 L-3,17 L5,16 L5,9 L-4,8 L-3,4 Z " fill="#DEDEDE" transform="translate(11,5)"/>
<path d="M0,0 L4,1 L1,3 L-8,3 L-7,1 Z " fill="#EBEBEB" transform="translate(19,5)"/>
<path d="M0,0 L2,1 L1,3 L2,6 L-2,6 L-4,8 L-3,4 Z " fill="#C8C8C8" transform="translate(11,5)"/>
</svg>
