<?xml version="1.0" encoding="UTF-8"?>
<svg version="1.1" xmlns="http://www.w3.org/2000/svg" width="28" height="28">
<path d="M0,0 L28,0 L28,28 L0,28 Z " fill="#030303" transform="translate(0,0)"/>
<path d="M0,0 L8,0 L8,2 L-1,5 L-2,7 L3,8 L3,12 L-2,15 L-10,15 L-11,12 L-2,12 L-3,11 L-6,11 L-4,4 Z " fill="#CDCDCD" transform="translate(16,6)"/>
<path d="M0,0 L8,0 L8,2 L-1,5 L-2,7 L2,8 L-3,8 L-4,4 Z " fill="#BCBCBC" transform="translate(16,6)"/>
<path d="M0,0 L12,0 L12,2 L9,3 L1,3 Z " fill="#E6E6E6" transform="translate(5,18)"/>
</svg>
