<?xml version="1.0" encoding="UTF-8"?>
<svg version="1.1" xmlns="http://www.w3.org/2000/svg" width="28" height="28">
<path d="M0,0 L28,0 L28,28 L0,28 Z " fill="#040404" transform="translate(0,0)"/>
<path d="M0,0 L2,2 L-4,6 L-12,8 L-5,10 L-4,15 L-7,18 L-10,19 L-17,19 L-16,16 L-7,14 L-6,12 L-18,12 L-15,7 L-12,4 L-2,2 Z " fill="#E7E7E7" transform="translate(24,4)"/>
<path d="M0,0 L8,1 L10,3 L9,8 L4,11 L-3,11 L-2,8 L7,6 L8,4 L3,4 L0,2 Z " fill="#DDDDDD" transform="translate(10,12)"/>
<path d="M0,0 L8,1 L10,4 L8,6 L8,4 L3,4 L0,2 Z " fill="#AFAFAF" transform="translate(10,12)"/>
</svg>
