<?xml version="1.0" encoding="UTF-8"?>
<svg version="1.1" xmlns="http://www.w3.org/2000/svg" width="28" height="28">
<path d="M0,0 L28,0 L28,28 L0,28 Z " fill="#020202" transform="translate(0,0)"/>
<path d="M0,0 L6,0 L7,3 L-1,4 L-4,7 L2,10 L2,16 L-2,19 L-11,18 L-13,17 L-13,15 L-2,15 L-1,11 L-6,11 L-8,7 L-3,1 Z " fill="#DFDFDF" transform="translate(17,4)"/>
<path d="M0,0 L6,0 L7,3 L-2,3 Z " fill="#C5C5C5" transform="translate(17,4)"/>
<path d="M0,0 L5,2 L5,8 L2,6 L2,3 L-3,3 Z " fill="#ACACAC" transform="translate(14,12)"/>
</svg>
