<?xml version="1.0" encoding="UTF-8"?>
<svg version="1.1" xmlns="http://www.w3.org/2000/svg" width="28" height="28">
<path d="M0,0 L28,0 L28,28 L0,28 Z " fill="#050505" transform="translate(0,0)"/>
<path d="M0,0 L2,0 L2,2 L6,0 L11,0 L11,2 L6,4 L-1,5 L5,6 L1,8 L-5,9 L-4,5 L-3,2 Z " fill="#E9E9E9" transform="translate(14,7)"/>
<path d="M0,0 L2,1 L1,5 L-5,10 L-13,10 L-15,6 L-13,5 L-13,7 L-6,7 L-1,4 Z " fill="#E9E9E9" transform="translate(20,13)"/>
<path d="M0,0 L5,0 L5,2 L0,4 L-5,4 L-2,3 L-2,1 Z " fill="#D1D1D1" transform="translate(20,7)"/>
<path d="M0,0 L2,1 L1,5 L-4,9 L-6,7 L-1,4 Z " fill="#C9C9C9" transform="translate(20,13)"/>
</svg>
