<?xml version="1.0" encoding="UTF-8"?>
<svg version="1.1" xmlns="http://www.w3.org/2000/svg" width="28" height="28">
<path d="M0,0 L28,0 L28,28 L0,28 Z " fill="#030303" transform="translate(0,0)"/>
<path d="M0,0 L4,1 L3,4 L2,2 L-3,5 L-4,8 L2,12 L1,17 L-3,20 L-14,20 L-14,18 L-2,16 L-1,13 L-8,9 L-7,3 Z " fill="#D5D5D5" transform="translate(18,4)"/>
<path d="M0,0 L4,1 L3,4 L2,2 L-3,5 L-5,8 L-7,8 L-7,3 Z " fill="#ECECEC" transform="translate(18,4)"/>
<path d="M0,0 L1,2 L6,3 L8,5 L5,6 L0,3 Z " fill="#CACACA" transform="translate(10,10)"/>
</svg>
