<?xml version="1.0" encoding="UTF-8"?>
<svg version="1.1" xmlns="http://www.w3.org/2000/svg" width="28" height="28">
<path d="M0,0 L28,0 L28,28 L0,28 Z " fill="#030303" transform="translate(0,0)"/>
<path d="M0,0 L2,0 L0,5 L5,5 L6,6 L6,12 L0,16 L-6,16 L-6,14 L3,11 L4,7 L-2,7 L-1,2 Z " fill="#DDDDDD" transform="translate(12,9)"/>
<path d="M0,0 L7,0 L7,3 L-2,3 L-2,1 Z " fill="#D7D7D7" transform="translate(16,5)"/>
<path d="M0,0 L2,0 L1,3 L-1,4 L-7,4 L-7,2 Z " fill="#C1C1C1" transform="translate(13,21)"/>
</svg>
