<?xml version="1.0" encoding="UTF-8"?>
<svg version="1.1" xmlns="http://www.w3.org/2000/svg" width="28" height="28">
<path d="M0,0 L28,0 L28,28 L0,28 Z " fill="#030303" transform="translate(0,0)"/>
<path d="M0,0 L3,1 L2,4 L-7,7 L-10,7 L-10,9 L-3,9 L-1,11 L-2,16 L-6,20 L-14,20 L-15,17 L-6,16 L-3,11 L-14,13 L-15,9 L-11,4 Z " fill="#D5D5D5" transform="translate(22,4)"/>
<path d="M0,0 L9,0 L9,3 L1,3 Z " fill="#EFEFEF" transform="translate(7,21)"/>
<path d="M0,0 L1,2 L7,2 L4,4 L-2,5 L-1,1 Z " fill="#E9E9E9" transform="translate(10,12)"/>
</svg>
