<?xml version="1.0" encoding="UTF-8"?>
<svg version="1.1" xmlns="http://www.w3.org/2000/svg" width="28" height="28">
<path d="M0,0 L28,0 L28,28 L0,28 Z " fill="#050505" transform="translate(0,0)"/>
<path d="M0,0 L10,0 L11,4 L2,5 L2,8 L10,8 L12,11 L12,16 L7,20 L-8,20 L-7,17 L-5,16 L9,15 L9,12 L-1,13 Z " fill="#E2E2E2" transform="translate(11,4)"/>
<path d="M0,0 L10,0 L11,4 L1,4 L0,8 Z " fill="#F6F6F6" transform="translate(11,4)"/>
<path d="M0,0 L11,0 L11,1 L1,2 L2,4 L-3,4 L-2,1 Z " fill="#AFAFAF" transform="translate(6,20)"/>
</svg>
