<?xml version="1.0" encoding="UTF-8"?>
<svg version="1.1" xmlns="http://www.w3.org/2000/svg" width="28" height="28">
<path d="M0,0 L28,0 L28,28 L0,28 Z " fill="#040404" transform="translate(0,0)"/>
<path d="M0,0 L10,0 L10,2 L3,2 L3,5 L10,6 L12,10 L11,16 L6,20 L-4,20 L-4,17 L4,17 L7,15 L8,8 L-1,10 Z " fill="#D4D4D4" transform="translate(10,5)"/>
<path d="M0,0 L10,0 L10,2 L3,2 L3,5 L8,5 L8,7 L-1,10 Z " fill="#F6F6F6" transform="translate(10,5)"/>
<path d="M0,0 L10,1 L10,3 L0,3 Z " fill="#EBEBEB" transform="translate(6,22)"/>
</svg>
