<?xml version="1.0" encoding="UTF-8"?>
<svg version="1.1" xmlns="http://www.w3.org/2000/svg" width="28" height="28">
<path d="M0,0 L28,0 L28,28 L0,28 Z " fill="#020202" transform="translate(0,0)"/>
<path d="M0,0 L10,0 L12,1 L12,3 L2,3 L2,7 L10,7 L13,9 L13,15 L8,20 L0,20 L-5,18 L-4,15 L10,16 L10,10 L0,10 L-2,3 L-2,1 Z " fill="#DEDEDE" transform="translate(10,4)"/>
<path d="M0,0 L1,0 L1,6 L-3,10 L-3,8 L-7,7 L-2,7 L-2,2 Z " fill="#AEAEAE" transform="translate(22,13)"/>
<path d="M0,0 L6,0 L8,2 L8,7 L5,3 L-1,2 Z " fill="#F7F7F7" transform="translate(14,11)"/>
</svg>
