<?xml version="1.0" encoding="UTF-8"?>
<svg version="1.1" xmlns="http://www.w3.org/2000/svg" width="28" height="28">
<path d="M0,0 L28,0 L28,28 L0,28 Z " fill="#020202" transform="translate(0,0)"/>
<path d="M0,0 L14,0 L14,2 L1,3 L4,6 L3,13 L2,15 L-2,14 L0,14 L1,7 L-1,7 L-1,9 L-4,9 L-3,4 Z " fill="#DDDDDD" transform="translate(13,8)"/>
<path d="M0,0 L2,0 L1,7 L2,9 L-4,8 L-5,3 L0,2 Z " fill="#C0C0C0" transform="translate(12,15)"/>
<path d="M0,0 L2,0 L2,5 L-2,6 L-2,2 L0,2 Z " fill="#141414" transform="translate(12,15)"/>
</svg>
