<?xml version="1.0" encoding="UTF-8"?>
<svg version="1.1" xmlns="http://www.w3.org/2000/svg" width="28" height="28">
<path d="M0,0 L28,0 L28,28 L0,28 Z " fill="#020202" transform="translate(0,0)"/>
<path d="M0,0 L4,1 L1,3 L-7,4 L-6,9 L-8,14 L-10,16 L-15,15 L-16,10 L-14,10 L-14,13 L-9,12 L-9,7 L-14,8 L-13,5 L-8,1 Z " fill="#E8E8E8" transform="translate(22,7)"/>
<path d="M0,0 L2,4 L0,8 L-5,9 L-7,7 L-7,3 L-5,3 L-5,6 L0,5 Z " fill="#D2D2D2" transform="translate(13,14)"/>
<path d="M0,0 L2,0 L2,5 L-3,6 L-4,2 L-1,2 Z " fill="#181818" transform="translate(11,14)"/>
</svg>
