<?xml version="1.0" encoding="UTF-8"?>
<svg version="1.1" xmlns="http://www.w3.org/2000/svg" width="28" height="28">
<path d="M0,0 L28,0 L28,28 L0,28 Z " fill="#040404" transform="translate(0,0)"/>
<path d="M0,0 L6,0 L6,2 L-7,4 L-9,8 L-11,11 L1,13 L4,16 L2,20 L-5,19 L-6,16 L-1,16 L-14,13 L-13,7 L-10,4 L-8,4 L-8,1 Z " fill="#DFDFDF" transform="translate(19,4)"/>
<path d="M0,0 L1,2 L4,3 L1,3 L-1,7 L-5,8 L-3,4 L0,3 Z " fill="#BBBBBB" transform="translate(11,5)"/>
<path d="M0,0 L7,1 L8,4 L1,3 Z " fill="#BCBCBC" transform="translate(13,20)"/>
</svg>
