<?xml version="1.0" encoding="UTF-8"?>
<svg version="1.1" xmlns="http://www.w3.org/2000/svg" width="28" height="28">
<path d="M0,0 L28,0 L28,28 L0,28 Z " fill="#030303" transform="translate(0,0)"/>
<path d="M0,0 L3,0 L1,4 L-2,9 L6,8 L8,9 L7,14 L-2,20 L-7,20 L-7,17 L2,14 L5,13 L5,11 L-3,12 L-5,11 L-4,4 Z " fill="#EFEFEF" transform="translate(14,3)"/>
<path d="M0,0 L3,0 L1,4 L-2,9 L0,10 L1,12 L-5,11 L-4,4 Z " fill="#C8C8C8" transform="translate(14,3)"/>
<path d="M0,0 L2,1 L-1,5 L-6,5 L-6,2 Z " fill="#BCBCBC" transform="translate(13,18)"/>
</svg>
