<?xml version="1.0" encoding="UTF-8"?>
<svg version="1.1" xmlns="http://www.w3.org/2000/svg" width="28" height="28">
<path d="M0,0 L28,0 L28,28 L0,28 Z " fill="#030303" transform="translate(0,0)"/>
<path d="M0,0 L7,0 L7,3 L-2,3 L-3,9 L5,9 L6,10 L6,15 L1,20 L-4,20 L-5,16 L1,17 L3,15 L4,11 L-3,11 L-6,9 L-6,2 Z " fill="#D1D1D1" transform="translate(14,6)"/>
<path d="M0,0 L2,3 L1,7 L7,7 L7,8 L-1,8 L-2,3 Z " fill="#E8E8E8" transform="translate(10,8)"/>
<path d="M0,0 L3,1 L3,6 L1,5 L1,2 L-6,2 L-6,1 Z " fill="#BDBDBD" transform="translate(17,15)"/>
</svg>
