<?xml version="1.0" encoding="UTF-8"?>
<svg version="1.1" xmlns="http://www.w3.org/2000/svg" width="28" height="28">
<path d="M0,0 L28,0 L28,28 L0,28 Z " fill="#010101" transform="translate(0,0)"/>
<path d="M0,0 L3,0 L3,3 L8,3 L11,6 L11,11 L8,14 L1,15 L-1,14 L0,11 L4,12 L7,10 L7,6 L0,7 Z " fill="#C0C0C0" transform="translate(8,10)"/>
<path d="M0,0 L9,0 L9,2 L0,4 L-3,4 L-2,1 Z " fill="#D9D9D9" transform="translate(14,5)"/>
<path d="M0,0 L2,0 L1,4 L-6,5 L-8,4 L-7,1 L-3,2 Z " fill="#D7D7D7" transform="translate(15,20)"/>
</svg>
