<?xml version="1.0" encoding="UTF-8"?>
<svg version="1.1" xmlns="http://www.w3.org/2000/svg" width="28" height="28">
<path d="M0,0 L28,0 L28,28 L0,28 Z " fill="#030303" transform="translate(0,0)"/>
<path d="M0,0 L6,0 L5,3 L-1,4 L-2,8 L6,8 L10,12 L10,18 L6,20 L-1,20 L-5,18 L-4,15 L0,15 L0,17 L6,16 L5,12 L-5,10 L-5,3 Z " fill="#E5E5E5" transform="translate(12,4)"/>
<path d="M0,0 L4,0 L4,2 L9,2 L7,5 L1,4 L-1,3 Z " fill="#CFCFCF" transform="translate(8,19)"/>
<path d="M0,0 L5,0 L4,3 L-3,3 Z " fill="#C6C6C6" transform="translate(13,12)"/>
</svg>
