<?xml version="1.0" encoding="UTF-8"?>
<svg version="1.1" xmlns="http://www.w3.org/2000/svg" width="28" height="28">
<path d="M0,0 L28,0 L28,28 L0,28 Z " fill="#030303" transform="translate(0,0)"/>
<path d="M0,0 L4,0 L4,2 L-7,4 L-7,6 L3,8 L4,12 L2,18 L-1,20 L-11,20 L-15,17 L-15,15 L-3,16 L1,14 L2,11 L-11,11 L-11,5 L-7,1 Z " fill="#D7D7D7" transform="translate(19,4)"/>
<path d="M0,0 L4,0 L4,2 L-7,4 L-8,6 L-11,7 L-9,3 L-7,1 Z " fill="#D4D4D4" transform="translate(19,4)"/>
<path d="M0,0 L4,0 L4,2 L-3,3 L-5,1 Z " fill="#FFFFFF" transform="translate(19,4)"/>
</svg>
