<?xml version="1.0" encoding="UTF-8"?>
<svg version="1.1" xmlns="http://www.w3.org/2000/svg" width="28" height="28">
<path d="M0,0 L28,0 L28,28 L0,28 Z " fill="#020202" transform="translate(0,0)"/>
<path d="M0,0 L6,0 L7,3 L1,4 L-1,9 L9,11 L11,13 L10,18 L7,20 L2,20 L-2,16 L-1,12 L-5,11 L-3,6 Z " fill="#D3D3D3" transform="translate(12,4)"/>
<path d="M0,0 L9,3 L7,7 L6,9 L1,8 L-2,5 Z " fill="#CBCBCB" transform="translate(12,15)"/>
<path d="M0,0 L7,2 L6,5 L0,5 L-1,1 Z " fill="#151515" transform="translate(14,16)"/>
<path d="M0,0 L5,0 L8,2 L7,4 L4,4 L4,2 L-1,2 Z " fill="#F3F3F3" transform="translate(9,13)"/>
</svg>
