<?xml version="1.0" encoding="UTF-8"?>
<svg version="1.1" xmlns="http://www.w3.org/2000/svg" width="28" height="28">
<path d="M0,0 L28,0 L28,28 L0,28 Z " fill="#040404" transform="translate(0,0)"/>
<path d="M0,0 L8,0 L7,3 L-3,5 L-4,7 L2,7 L4,9 L3,15 L-1,18 L-9,18 L-12,14 L-12,11 L-8,13 L-1,13 L1,10 L-9,9 L-7,5 L-5,1 Z " fill="#E8E8E8" transform="translate(17,5)"/>
<path d="M0,0 L4,1 L5,6 L2,5 L2,3 L-1,2 Z " fill="#CCCCCC" transform="translate(16,12)"/>
<path d="M0,0 L1,2 L6,3 L6,4 L-2,4 Z " fill="#FDFDFD" transform="translate(12,10)"/>
</svg>
