<?xml version="1.0" encoding="UTF-8"?>
<svg version="1.1" xmlns="http://www.w3.org/2000/svg" width="28" height="28">
<path d="M0,0 L28,0 L28,28 L0,28 Z " fill="#030303" transform="translate(0,0)"/>
<path d="M0,0 L12,0 L12,2 L1,3 L0,5 L5,8 L5,13 L2,16 L-8,15 L-7,12 L2,12 L2,9 L-4,9 L-4,3 Z " fill="#DADADA" transform="translate(14,7)"/>
<path d="M0,0 L2,1 L1,4 L3,6 L-3,7 L-1,1 Z " fill="#F4F4F4" transform="translate(13,9)"/>
<path d="M0,0 L4,1 L5,2 L5,7 L4,5 L2,5 L2,3 L-1,2 Z " fill="#C5C5C5" transform="translate(14,13)"/>
</svg>
