<?xml version="1.0" encoding="UTF-8"?>
<svg version="1.1" xmlns="http://www.w3.org/2000/svg" width="28" height="28">
<path d="M0,0 L28,0 L28,28 L0,28 Z " fill="#030303" transform="translate(0,0)"/>
<path d="M0,0 L2,0 L2,2 L7,2 L8,4 L0,4 L1,8 L4,6 L8,7 L10,9 L9,16 L4,20 L-2,20 L-4,18 L-4,13 L-2,14 L-2,17 L4,17 L7,13 L7,9 L2,10 L-2,11 L-2,3 Z " fill="#C3C3C3" transform="translate(12,5)"/>
<path d="M0,0 L2,0 L2,2 L7,2 L8,4 L0,4 L1,8 L3,9 L1,11 L-2,11 L-2,3 Z " fill="#E5E5E5" transform="translate(12,5)"/>
</svg>
