<?xml version="1.0" encoding="UTF-8"?>
<svg version="1.1" xmlns="http://www.w3.org/2000/svg" width="28" height="28">
<path d="M0,0 L28,0 L28,28 L0,28 Z " fill="#030303" transform="translate(0,0)"/>
<path d="M0,0 L3,0 L3,2 L-3,3 L-3,7 L-1,6 L5,6 L8,10 L8,16 L3,20 L-4,20 L-8,17 L-7,15 L-4,17 L3,17 L5,15 L5,9 L1,8 L-3,9 L-3,11 L-6,11 L-5,3 Z " fill="#D6D6D6" transform="translate(14,4)"/>
<path d="M0,0 L1,0 L1,6 L-4,10 L-11,10 L-15,7 L-14,5 L-11,7 L-4,7 L0,5 Z " fill="#BEBEBE" transform="translate(21,14)"/>
</svg>
