<?xml version="1.0" encoding="UTF-8"?>
<svg version="1.1" xmlns="http://www.w3.org/2000/svg" width="28" height="28">
<path d="M0,0 L28,0 L28,28 L0,28 Z " fill="#010101" transform="translate(0,0)"/>
<path d="M0,0 L8,0 L8,2 L6,3 L-4,3 L-5,7 L1,8 L2,12 L-1,14 L-8,14 L-12,13 L-11,10 L-2,11 L-7,7 L-6,2 Z " fill="#CCCCCC" transform="translate(17,7)"/>
<path d="M0,0 L8,0 L8,2 L6,3 L-5,2 L-5,1 Z " fill="#BEBEBE" transform="translate(17,7)"/>
<path d="M0,0 L6,3 L5,5 L-1,4 Z " fill="#1C1C1C" transform="translate(10,14)"/>
<path d="M0,0 L6,0 L2,1 L2,6 L-1,5 Z " fill="#EDEDED" transform="translate(11,9)"/>
</svg>
