<?xml version="1.0" encoding="UTF-8"?>
<svg version="1.1" xmlns="http://www.w3.org/2000/svg" width="28" height="28">
<path d="M0,0 L28,0 L28,28 L0,28 Z " fill="#020202" transform="translate(0,0)"/>
<path d="M0,0 L3,0 L3,3 L7,5 L9,7 L9,12 L4,15 L-2,14 L-3,8 L0,11 L5,11 L6,7 L1,5 Z " fill="#D0D0D0" transform="translate(9,9)"/>
<path d="M0,0 L10,0 L10,3 L-3,3 L-3,1 Z " fill="#C2C2C2" transform="translate(16,4)"/>
<path d="M0,0 L2,1 L2,6 L-2,8 L-2,5 L0,5 Z " fill="#F2F2F2" transform="translate(16,15)"/>
</svg>
