<?xml version="1.0" encoding="UTF-8"?>
<svg version="1.1" xmlns="http://www.w3.org/2000/svg" width="28" height="28">
<path d="M0,0 L28,0 L28,28 L0,28 Z " fill="#050505" transform="translate(0,0)"/>
<path d="M0,0 L11,0 L12,3 L0,4 L-1,7 L10,8 L10,10 L12,10 L13,15 L10,16 L9,14 L10,11 L-2,10 L-3,9 L-2,2 Z " fill="#CDCDCD" transform="translate(10,6)"/>
<path d="M0,0 L3,3 L14,2 L14,4 L7,6 L1,5 Z " fill="#B6B6B6" transform="translate(5,20)"/>
<path d="M0,0 L3,1 L3,3 L-9,3 L-8,1 Z " fill="#EBEBEB" transform="translate(19,6)"/>
</svg>
