<?xml version="1.0" encoding="UTF-8"?>
<svg version="1.1" xmlns="http://www.w3.org/2000/svg" width="28" height="28">
<path d="M0,0 L28,0 L28,28 L0,28 Z " fill="#030303" transform="translate(0,0)"/>
<path d="M0,0 L15,0 L16,2 L14,3 L1,4 L0,6 L8,7 L12,8 L12,10 L-1,8 L-2,7 L-2,2 Z " fill="#C3C3C3" transform="translate(9,6)"/>
<path d="M0,0 L2,0 L2,4 L0,4 L0,6 L-8,10 L-13,9 L-16,4 L-13,5 L-12,7 L-7,6 L-1,4 Z " fill="#B7B7B7" transform="translate(21,16)"/>
<path d="M0,0 L2,0 L1,5 L9,6 L13,7 L13,9 L0,7 L-1,6 L-1,1 Z " fill="#DCDCDC" transform="translate(8,7)"/>
<path d="M0,0 L2,0 L2,4 L0,4 L0,6 L-3,8 L-6,7 L-3,4 L-1,4 Z " fill="#DBDBDB" transform="translate(21,16)"/>
</svg>
