<?xml version="1.0" encoding="UTF-8"?>
<svg version="1.1" xmlns="http://www.w3.org/2000/svg" width="28" height="28">
<path d="M0,0 L28,0 L28,28 L0,28 Z " fill="#050505" transform="translate(0,0)"/>
<path d="M0,0 L4,1 L4,3 L-7,6 L-7,10 L-5,9 L3,9 L6,12 L5,17 L0,20 L-8,20 L-11,18 L-11,16 L-1,17 L3,13 L-6,13 L-10,14 L-10,6 L-9,3 Z " fill="#E2E2E2" transform="translate(17,4)"/>
<path d="M0,0 L1,4 L6,3 L6,5 L-1,7 Z " fill="#F7F7F7" transform="translate(8,11)"/>
<path d="M0,0 L8,0 L6,3 L2,3 L2,1 Z " fill="#CCCCCC" transform="translate(12,13)"/>
</svg>
