<?xml version="1.0" encoding="UTF-8"?>
<svg version="1.1" xmlns="http://www.w3.org/2000/svg" width="28" height="28">
<path d="M0,0 L28,0 L28,28 L0,28 Z " fill="#020202" transform="translate(0,0)"/>
<path d="M0,0 L6,0 L3,3 L-1,5 L0,12 L-5,17 L-6,18 L-13,18 L-13,15 L-4,14 L-3,8 L-7,10 L-8,12 L-11,11 L-9,7 L-7,7 L-6,2 Z " fill="#D8D8D8" transform="translate(19,6)"/>
<path d="M0,0 L6,0 L3,3 L-4,3 Z " fill="#DFDFDF" transform="translate(19,6)"/>
<path d="M0,0 L4,1 L6,3 L0,5 L-2,3 Z " fill="#A9A9A9" transform="translate(14,7)"/>
</svg>
