<?xml version="1.0" encoding="UTF-8"?>
<svg version="1.1" xmlns="http://www.w3.org/2000/svg" width="28" height="28">
<path d="M0,0 L28,0 L28,28 L0,28 Z " fill="#030303" transform="translate(0,0)"/>
<path d="M0,0 L4,1 L8,3 L8,5 L1,4 L-2,10 L7,11 L7,18 L4,20 L-1,19 L-3,15 L5,17 L5,13 L-3,13 L-5,11 L-4,5 Z " fill="#E4E4E4" transform="translate(13,4)"/>
<path d="M0,0 L4,1 L8,3 L8,5 L1,4 L-2,10 L-5,11 L-4,5 Z " fill="#CCCCCC" transform="translate(13,4)"/>
<path d="M0,0 L6,1 L6,5 L1,5 L-2,3 L-3,5 L-3,2 L0,2 Z " fill="#1D1D1D" transform="translate(12,16)"/>
</svg>
