<?xml version="1.0" encoding="UTF-8"?>
<svg version="1.1" xmlns="http://www.w3.org/2000/svg" width="28" height="28">
<path d="M0,0 L28,0 L28,28 L0,28 Z " fill="#040404" transform="translate(0,0)"/>
<path d="M0,0 L4,0 L4,2 L-7,5 L3,12 L4,18 L3,20 L-4,20 L-11,16 L-12,12 L-10,13 L-10,15 L-4,17 L1,17 L2,14 L-2,12 L-11,7 L-11,3 L-6,1 Z " fill="#E0E0E0" transform="translate(18,4)"/>
<path d="M0,0 L4,0 L4,2 L-7,5 L-9,6 L-8,2 Z " fill="#C3C3C3" transform="translate(18,4)"/>
<path d="M0,0 L2,1 L2,3 L8,5 L8,8 L1,4 Z " fill="#CACACA" transform="translate(6,16)"/>
</svg>
