<?xml version="1.0" encoding="UTF-8"?>
<svg version="1.1" xmlns="http://www.w3.org/2000/svg" width="28" height="28">
<path d="M0,0 L28,0 L28,28 L0,28 Z " fill="#040404" transform="translate(0,0)"/>
<path d="M0,0 L2,0 L1,3 L-6,5 L-11,5 L-11,7 L-3,7 L1,11 L0,17 L-4,20 L-12,20 L-15,17 L-14,15 L-11,17 L-4,17 L-2,11 L-4,10 L-13,10 L-16,11 L-14,7 L-12,3 Z " fill="#BFBFBF" transform="translate(21,5)"/>
<path d="M0,0 L2,0 L1,3 L-6,5 L-11,5 L-11,7 L-5,7 L-5,8 L-16,11 L-14,7 L-12,3 Z " fill="#E5E5E5" transform="translate(21,5)"/>
<path d="M0,0 L4,2 L13,2 L11,5 L3,5 L0,2 Z " fill="#E0E0E0" transform="translate(6,20)"/>
</svg>
