<?xml version="1.0" encoding="UTF-8"?>
<svg version="1.1" xmlns="http://www.w3.org/2000/svg" width="28" height="28">
<path d="M0,0 L28,0 L28,28 L0,28 Z " fill="#020202" transform="translate(0,0)"/>
<path d="M0,0 L8,0 L8,2 L-4,5 L-6,5 L-6,7 L-3,7 L-2,12 L-5,15 L-12,15 L-12,12 L-5,12 L-5,9 L-10,9 L-10,5 Z " fill="#D3D3D3" transform="translate(19,7)"/>
<path d="M0,0 L2,0 L0,4 L-1,5 L-8,5 L-8,2 L-1,1 Z " fill="#E0E0E0" transform="translate(15,17)"/>
<path d="M0,0 L8,0 L8,2 L0,3 Z " fill="#B8B8B8" transform="translate(19,7)"/>
</svg>
