<?xml version="1.0" encoding="UTF-8"?>
<svg version="1.1" xmlns="http://www.w3.org/2000/svg" width="28" height="28">
<path d="M0,0 L28,0 L28,28 L0,28 Z " fill="#030303" transform="translate(0,0)"/>
<path d="M0,0 L2,0 L2,5 L4,7 L4,14 L2,17 L-4,17 L-5,14 L1,15 L1,8 L-3,8 L-2,4 Z " fill="#DEDEDE" transform="translate(12,7)"/>
<path d="M0,0 L7,0 L7,2 L-5,4 L-5,1 Z " fill="#D5D5D5" transform="translate(20,8)"/>
<path d="M0,0 L2,0 L1,5 L-1,7 L-3,8 L-2,4 Z " fill="#C6C6C6" transform="translate(12,7)"/>
</svg>
