<?xml version="1.0" encoding="UTF-8"?>
<svg version="1.1" xmlns="http://www.w3.org/2000/svg" width="28" height="28">
<path d="M0,0 L28,0 L28,28 L0,28 Z " fill="#040404" transform="translate(0,0)"/>
<path d="M0,0 L8,0 L10,2 L0,4 L-2,8 L4,8 L5,9 L4,16 L2,19 L-6,20 L-8,19 L-7,17 L-1,17 L2,14 L3,10 L-6,12 L-5,4 Z " fill="#EAEAEA" transform="translate(15,5)"/>
<path d="M0,0 L8,0 L10,2 L-2,4 L-5,6 L-3,2 Z " fill="#CCCCCC" transform="translate(15,5)"/>
<path d="M0,0 L2,3 L-2,5 L-9,4 L-8,2 L-2,2 Z " fill="#D5D5D5" transform="translate(16,20)"/>
</svg>
