<?xml version="1.0" encoding="UTF-8"?>
<svg version="1.1" xmlns="http://www.w3.org/2000/svg" width="28" height="28">
<path d="M0,0 L28,0 L28,28 L0,28 Z " fill="#030303" transform="translate(0,0)"/>
<path d="M0,0 L8,2 L7,4 L1,3 L0,7 L7,9 L9,11 L8,18 L5,20 L-2,20 L-4,19 L-4,17 L5,17 L6,16 L6,11 L1,10 L-4,11 L-3,6 Z " fill="#D1D1D1" transform="translate(12,4)"/>
<path d="M0,0 L3,0 L3,9 L0,9 L-1,8 L-8,7 L-6,2 L0,2 Z " fill="#222222" transform="translate(19,5)"/>
<path d="M0,0 L10,0 L12,2 L11,5 L8,2 L0,3 Z " fill="#F0F0F0" transform="translate(8,12)"/>
</svg>
