<?xml version="1.0" encoding="UTF-8"?>
<svg version="1.1" xmlns="http://www.w3.org/2000/svg" width="28" height="28">
<path d="M0,0 L28,0 L28,28 L0,28 Z " fill="#040404" transform="translate(0,0)"/>
<path d="M0,0 L2,0 L2,5 L5,3 L10,3 L10,5 L3,6 L3,8 L6,9 L6,15 L3,18 L-2,20 L-8,20 L-7,16 L-1,17 L3,15 L3,10 L-6,9 L-4,5 Z " fill="#D7D7D7" transform="translate(14,5)"/>
<path d="M0,0 L9,1 L10,2 L10,8 L7,11 L2,13 L-4,13 L-3,9 L3,10 L7,8 L7,3 L-1,2 Z " fill="#D2D2D2" transform="translate(10,12)"/>
<path d="M0,0 L4,1 L4,3 L-3,3 L-5,4 L-4,1 Z " fill="#717171" transform="translate(13,10)"/>
<path d="M0,0 L9,1 L10,6 L7,3 L-1,2 Z " fill="#F0F0F0" transform="translate(10,12)"/>
</svg>
