<?xml version="1.0" encoding="UTF-8"?>
<svg version="1.1" xmlns="http://www.w3.org/2000/svg" width="28" height="28">
<path d="M0,0 L28,0 L28,28 L0,28 Z " fill="#050505" transform="translate(0,0)"/>
<path d="M0,0 L7,0 L7,3 L-1,5 L-7,6 L-7,8 L3,8 L7,12 L6,17 L2,20 L-8,19 L-7,15 L-5,15 L-5,17 L2,16 L3,12 L2,11 L-9,10 L-10,8 L-5,3 Z " fill="#E5E5E5" transform="translate(15,4)"/>
<path d="M0,0 L2,1 L1,4 L-6,4 L-6,2 Z " fill="#202020" transform="translate(14,8)"/>
<path d="M0,0 L4,0 L4,3 L-3,3 Z " fill="#EEEEEE" transform="translate(18,4)"/>
</svg>
