<?xml version="1.0" encoding="UTF-8"?>
<svg version="1.1" xmlns="http://www.w3.org/2000/svg" width="28" height="28">
<path d="M0,0 L28,0 L28,28 L0,28 Z " fill="#070707" transform="translate(0,0)"/>
<path d="M0,0 L2,1 L0,5 L8,4 L13,6 L16,9 L16,15 L12,18 L3,18 L-1,16 L0,11 L1,14 L12,14 L12,9 L11,8 L-1,8 L-2,3 Z " fill="#ECECEC" transform="translate(7,6)"/>
<path d="M0,0 L7,0 L10,1 L9,3 L3,3 L-2,4 Z " fill="#EAEAEA" transform="translate(12,4)"/>
<path d="M0,0 L1,3 L11,4 L11,5 L1,6 L-1,5 Z " fill="#D3D3D3" transform="translate(7,17)"/>
</svg>
