<?xml version="1.0" encoding="UTF-8"?>
<svg version="1.1" xmlns="http://www.w3.org/2000/svg" width="28" height="28">
<path d="M0,0 L28,0 L28,28 L0,28 Z " fill="#030303" transform="translate(0,0)"/>
<path d="M0,0 L1,3 L9,2 L15,6 L15,11 L10,14 L3,14 L2,10 L4,9 L4,12 L12,10 L11,6 L-2,6 L-1,1 Z " fill="#BBBBBB" transform="translate(8,10)"/>
<path d="M0,0 L2,0 L2,5 L-3,8 L-10,8 L-11,4 L-9,3 L-9,6 L-1,4 Z " fill="#ECECEC" transform="translate(21,16)"/>
<path d="M0,0 L5,1 L5,3 L-3,5 L-4,7 L-6,7 L-5,2 Z " fill="#C5C5C5" transform="translate(16,4)"/>
<path d="M0,0 L6,1 L9,4 L6,4 L-2,2 Z " fill="#D1D1D1" transform="translate(13,12)"/>
</svg>
