<?xml version="1.0" encoding="UTF-8"?>
<svg version="1.1" xmlns="http://www.w3.org/2000/svg" width="28" height="28">
<path d="M0,0 L28,0 L28,28 L0,28 Z " fill="#030303" transform="translate(0,0)"/>
<path d="M0,0 L3,1 L2,4 L9,4 L15,6 L17,9 L16,14 L14,16 L4,16 L0,13 L0,11 L4,10 L4,13 L11,13 L13,12 L12,8 L11,7 L-1,7 Z " fill="#EBEBEB" transform="translate(6,8)"/>
<path d="M0,0 L4,1 L3,3 L-7,5 L-10,5 L-9,2 Z " fill="#D2D2D2" transform="translate(20,4)"/>
<path d="M0,0 L2,0 L2,3 L5,3 L5,6 L0,5 L-2,1 Z " fill="#CFCFCF" transform="translate(8,18)"/>
</svg>
