<?xml version="1.0" encoding="UTF-8"?>
<svg version="1.1" xmlns="http://www.w3.org/2000/svg" width="28" height="28">
<path d="M0,0 L28,0 L28,28 L0,28 Z " fill="#030303" transform="translate(0,0)"/>
<path d="M0,0 L3,0 L2,3 L-6,4 L-2,8 L-2,14 L-5,17 L-12,18 L-17,15 L-16,12 L-12,13 L-12,15 L-5,12 L-6,9 L-10,8 L-9,3 Z " fill="#E3E3E3" transform="translate(21,5)"/>
<path d="M0,0 L3,0 L2,3 L-9,5 L-8,2 Z M-10,5 Z " fill="#EAEAEA" transform="translate(21,5)"/>
<path d="M0,0 L1,0 L1,6 L-2,9 L-4,9 L-2,4 L0,4 Z " fill="#C4C4C4" transform="translate(18,13)"/>
</svg>
