<?xml version="1.0" encoding="UTF-8"?>
<svg version="1.1" xmlns="http://www.w3.org/2000/svg" width="28" height="28">
<path d="M0,0 L28,0 L28,28 L0,28 Z " fill="#030303" transform="translate(0,0)"/>
<path d="M0,0 L10,0 L10,3 L2,3 L1,6 L9,5 L13,11 L13,17 L8,20 L2,20 L-5,17 L-4,15 L9,16 L8,7 L-2,8 L-2,2 Z " fill="#E7E7E7" transform="translate(9,4)"/>
<path d="M0,0 L10,0 L10,3 L2,3 L-1,8 L-2,8 L-2,2 Z " fill="#C6C6C6" transform="translate(9,4)"/>
<path d="M0,0 L6,1 L12,2 L9,3 L9,5 L4,4 L-1,2 Z " fill="#CCCCCC" transform="translate(5,19)"/>
</svg>
