<?xml version="1.0" encoding="UTF-8"?>
<svg version="1.1" xmlns="http://www.w3.org/2000/svg" width="28" height="28">
<path d="M0,0 L28,0 L28,28 L0,28 Z " fill="#020202" transform="translate(0,0)"/>
<path d="M0,0 L3,0 L2,3 L-4,5 L-5,7 L0,8 L1,12 L-3,18 L-5,20 L-10,20 L-11,15 L-6,16 L-3,13 L-2,10 L-11,11 L-9,6 L-6,1 Z " fill="#D5D5D5" transform="translate(19,5)"/>
<path d="M0,0 L1,2 L0,4 L4,5 L-5,7 L-3,2 Z " fill="#F0F0F0" transform="translate(13,9)"/>
<path d="M0,0 L6,2 L7,6 L4,6 L4,4 L0,3 Z " fill="#BDBDBD" transform="translate(13,11)"/>
</svg>
