<?xml version="1.0" encoding="UTF-8"?>
<svg version="1.1" xmlns="http://www.w3.org/2000/svg" width="28" height="28">
<path d="M0,0 L28,0 L28,28 L0,28 Z " fill="#030303" transform="translate(0,0)"/>
<path d="M0,0 L6,0 L6,2 L-2,3 L-4,7 L2,8 L1,14 L-5,19 L-10,20 L-12,16 L-9,16 L-4,15 L-1,10 L-10,11 L-9,7 L-5,5 L-5,1 Z " fill="#D1D1D1" transform="translate(18,5)"/>
<path d="M0,0 L6,0 L6,2 L-2,3 L-5,8 L-1,9 L-10,11 L-9,7 L-5,5 L-5,1 Z " fill="#EAEAEA" transform="translate(18,5)"/>
<path d="M0,0 L7,2 L7,6 L4,6 L4,4 L-1,4 Z " fill="#AFAFAF" transform="translate(13,11)"/>
</svg>
