<?xml version="1.0" encoding="UTF-8"?>
<svg version="1.1" xmlns="http://www.w3.org/2000/svg" width="28" height="28">
<path d="M0,0 L28,0 L28,28 L0,28 Z " fill="#020202" transform="translate(0,0)"/>
<path d="M0,0 L4,1 L1,3 L-4,4 L-5,6 L0,5 L2,7 L1,14 L-5,19 L-10,20 L-16,18 L-16,16 L-5,16 L-1,8 L-11,10 L-9,6 L-8,4 L-6,4 L-6,1 Z " fill="#DADADA" transform="translate(19,4)"/>
<path d="M0,0 L4,1 L5,6 L2,4 L-1,3 Z " fill="#A0A0A0" transform="translate(16,9)"/>
<path d="M0,0 L10,1 L10,2 L1,3 Z " fill="#B9B9B9" transform="translate(3,20)"/>
</svg>
