<?xml version="1.0" encoding="UTF-8"?>
<svg version="1.1" xmlns="http://www.w3.org/2000/svg" width="28" height="28">
<path d="M0,0 L28,0 L28,28 L0,28 Z " fill="#040404" transform="translate(0,0)"/>
<path d="M0,0 L10,0 L10,4 L0,5 L12,9 L14,11 L13,16 L9,18 L2,17 L2,14 L10,13 L8,11 L-4,9 L-6,8 L-5,3 L-2,3 L-2,1 Z " fill="#ECECEC" transform="translate(10,6)"/>
<path d="M0,0 L10,0 L10,4 L0,5 L3,7 L-3,7 L-4,6 L-6,8 L-5,3 L-2,3 L-2,1 Z " fill="#E2E2E2" transform="translate(10,6)"/>
<path d="M0,0 L7,0 L7,1 L0,3 L0,5 L3,7 L-3,7 L-4,6 L-6,8 L-5,3 L-2,3 L-2,1 Z " fill="#BABABA" transform="translate(10,6)"/>
</svg>
