<?xml version="1.0" encoding="UTF-8"?>
<svg version="1.1" xmlns="http://www.w3.org/2000/svg" width="28" height="28">
<path d="M0,0 L28,0 L28,28 L0,28 Z " fill="#040404" transform="translate(0,0)"/>
<path d="M0,0 L8,1 L9,6 L11,9 L10,17 L6,20 L1,19 L1,15 L7,15 L8,9 L3,11 L-2,11 L-3,10 L-3,3 Z " fill="#E8E8E8" transform="translate(10,5)"/>
<path d="M0,0 L8,1 L8,4 L0,5 L-1,7 L6,6 L5,10 L-2,11 L-3,10 L-3,3 Z " fill="#EDEDED" transform="translate(10,5)"/>
<path d="M0,0 L7,0 L10,3 L9,10 L8,10 L8,5 L5,5 L4,3 L-1,3 Z " fill="#BDBDBD" transform="translate(10,9)"/>
<path d="M0,0 L6,0 L4,3 L-1,3 Z " fill="#2C2C2C" transform="translate(10,9)"/>
</svg>
