<?xml version="1.0" encoding="UTF-8"?>
<svg version="1.1" xmlns="http://www.w3.org/2000/svg" width="28" height="28">
<path d="M0,0 L28,0 L28,28 L0,28 Z " fill="#030303" transform="translate(0,0)"/>
<path d="M0,0 L5,0 L5,2 L-2,5 L-7,5 L-7,8 L-1,8 L1,11 L1,17 L-4,20 L-11,20 L-12,17 L-2,15 L-3,12 L-9,10 L-11,9 L-10,5 L-8,1 L-1,1 Z " fill="#E5E5E5" transform="translate(19,4)"/>
<path d="M0,0 L4,1 L1,2 L0,4 L-5,4 L-5,1 Z " fill="#2B2B2B" transform="translate(17,8)"/>
<path d="M0,0 L5,0 L5,2 L2,4 L-1,4 Z " fill="#BCBCBC" transform="translate(19,4)"/>
</svg>
