<?xml version="1.0" encoding="UTF-8"?>
<svg version="1.1" xmlns="http://www.w3.org/2000/svg" width="28" height="28">
<path d="M0,0 L28,0 L28,28 L0,28 Z " fill="#020202" transform="translate(0,0)"/>
<path d="M0,0 L7,0 L4,2 L-9,6 L-9,9 L1,13 L1,16 L-3,18 L-12,18 L-13,14 L-11,14 L-11,16 L-3,15 L-12,10 L-13,5 L-5,1 Z " fill="#D9D9D9" transform="translate(20,5)"/>
<path d="M0,0 L2,0 L2,2 L8,2 L10,4 L1,4 Z " fill="#CACACA" transform="translate(7,19)"/>
<path d="M0,0 L7,0 L4,2 L-2,3 L-5,1 Z " fill="#B8B8B8" transform="translate(20,5)"/>
</svg>
