<?xml version="1.0" encoding="UTF-8"?>
<svg version="1.1" xmlns="http://www.w3.org/2000/svg" width="28" height="28">
<path d="M0,0 L28,0 L28,28 L0,28 Z " fill="#030303" transform="translate(0,0)"/>
<path d="M0,0 L9,0 L8,2 L3,2 L5,8 L3,12 L-4,16 L-11,16 L-10,10 L-7,8 L2,8 L2,6 L-6,5 L-6,3 Z " fill="#ECECEC" transform="translate(16,6)"/>
<path d="M0,0 L9,0 L8,2 L3,2 L5,8 L2,8 L2,6 L-6,5 L-6,3 Z " fill="#DEDEDE" transform="translate(16,6)"/>
<path d="M0,0 L8,0 L5,2 L6,4 L2,6 L-2,6 L-4,8 L-3,2 Z " fill="#999999" transform="translate(9,14)"/>
</svg>
