<?xml version="1.0" encoding="UTF-8"?>
<svg version="1.1" xmlns="http://www.w3.org/2000/svg" width="28" height="28">
<path d="M0,0 L28,0 L28,28 L0,28 Z " fill="#020202" transform="translate(0,0)"/>
<path d="M0,0 L3,1 L13,1 L10,4 L1,4 L0,5 L6,8 L6,13 L2,16 L-4,15 L-6,11 L-2,10 L3,13 L3,9 L-4,8 L-3,4 Z " fill="#E6E6E6" transform="translate(12,7)"/>
<path d="M0,0 L3,1 L13,1 L10,4 L2,4 Z " fill="#D3D3D3" transform="translate(12,7)"/>
<path d="M0,0 L6,1 L6,5 L2,4 Z " fill="#353535" transform="translate(9,15)"/>
</svg>
