<?xml version="1.0" encoding="UTF-8"?>
<svg version="1.1" xmlns="http://www.w3.org/2000/svg" width="28" height="28">
<path d="M0,0 L28,0 L28,28 L0,28 Z " fill="#040404" transform="translate(0,0)"/>
<path d="M0,0 L2,1 L-1,4 L-9,7 L-10,8 L-5,10 L-5,16 L-8,19 L-17,19 L-18,14 L-15,16 L-8,16 L-8,12 L-15,12 L-14,7 L-9,2 Z " fill="#F2F2F2" transform="translate(24,4)"/>
<path d="M0,0 L1,0 L1,6 L-2,9 L-11,9 L-12,4 L-9,6 L-2,6 L-2,2 L-9,2 L-9,1 L-1,1 Z " fill="#E6E6E6" transform="translate(18,14)"/>
<path d="M0,0 L1,0 L1,6 L-2,6 L-2,2 L-9,2 L-9,1 L-1,1 Z " fill="#B0B0B0" transform="translate(18,14)"/>
<path d="M0,0 L2,1 L-1,4 L-7,5 L-9,2 Z " fill="#DCDCDC" transform="translate(24,4)"/>
</svg>
