<?xml version="1.0" encoding="UTF-8"?>
<svg version="1.1" xmlns="http://www.w3.org/2000/svg" width="28" height="28">
<path d="M0,0 L28,0 L28,28 L0,28 Z " fill="#020202" transform="translate(0,0)"/>
<path d="M0,0 L3,0 L3,2 L-2,5 L3,10 L2,13 L-5,9 L-7,8 L-6,4 Z " fill="#C7C7C7" transform="translate(18,2)"/>
<path d="M0,0 L2,1 L2,2 L9,2 L12,0 L11,4 L7,6 L1,6 L-1,2 Z " fill="#D0D0D0" transform="translate(8,16)"/>
<path d="M0,0 L3,0 L3,2 L-2,5 L-2,7 L-6,6 L-7,8 L-6,4 Z " fill="#7C7C7C" transform="translate(18,2)"/>
</svg>
