<?xml version="1.0" encoding="UTF-8"?>
<svg version="1.1" xmlns="http://www.w3.org/2000/svg" width="28" height="28">
<path d="M0,0 L28,0 L28,28 L0,28 Z " fill="#020202" transform="translate(0,0)"/>
<path d="M0,0 L2,0 L1,3 L-9,5 L-9,7 L-5,9 L-5,15 L-8,19 L-15,19 L-18,16 L-18,14 L-14,16 L-8,16 L-7,10 L-14,10 L-12,6 L-8,2 Z " fill="#D8D8D8" transform="translate(23,5)"/>
<path d="M0,0 L2,0 L1,3 L-9,5 L-9,7 L-7,8 L-11,8 L-8,10 L-14,10 L-12,6 L-8,2 Z " fill="#CACACA" transform="translate(23,5)"/>
<path d="M0,0 L6,2 L5,7 L3,3 L-1,1 Z " fill="#EFEFEF" transform="translate(12,12)"/>
</svg>
