<?xml version="1.0" encoding="UTF-8"?>
<svg version="1.1" xmlns="http://www.w3.org/2000/svg" width="28" height="28">
<path d="M0,0 L28,0 L28,28 L0,28 Z " fill="#050505" transform="translate(0,0)"/>
<path d="M0,0 L3,0 L3,2 L-8,6 L-8,8 L0,9 L2,14 L1,18 L-2,20 L-13,20 L-16,18 L-16,16 L-2,16 L-2,12 L-10,11 L-11,6 L-8,2 L-1,1 Z " fill="#E9E9E9" transform="translate(20,3)"/>
<path d="M0,0 L3,0 L3,2 L-8,6 L-8,10 L-3,10 L-3,11 L-10,11 L-11,6 L-8,2 L-1,1 Z " fill="#D3D3D3" transform="translate(20,3)"/>
</svg>
