<?xml version="1.0" encoding="UTF-8"?>
<svg version="1.1" xmlns="http://www.w3.org/2000/svg" width="28" height="28">
<path d="M0,0 L28,0 L28,28 L0,28 Z " fill="#030303" transform="translate(0,0)"/>
<path d="M0,0 L5,0 L4,3 L-6,4 L-1,9 L1,11 L0,16 L-2,16 L-4,11 L-6,9 L-10,8 L-8,4 L-5,1 Z " fill="#D3D3D3" transform="translate(19,5)"/>
<path d="M0,0 L5,0 L4,3 L-6,4 L-5,7 L-7,7 L-6,2 Z " fill="#CACACA" transform="translate(19,5)"/>
<path d="M0,0 L12,1 L10,4 L2,3 Z " fill="#DADADA" transform="translate(4,19)"/>
<path d="M0,0 L1,3 L6,4 L3,6 L-2,4 Z " fill="#F1F1F1" transform="translate(11,9)"/>
</svg>
