<?xml version="1.0" encoding="UTF-8"?>
<svg version="1.1" xmlns="http://www.w3.org/2000/svg" width="28" height="28">
<path d="M0,0 L28,0 L28,28 L0,28 Z " fill="#030303" transform="translate(0,0)"/>
<path d="M0,0 L4,1 L9,0 L9,2 L5,4 L-1,4 L-2,6 L1,7 L0,13 L-1,16 L-9,17 L-11,13 L-2,15 L-2,8 L-7,8 L-7,6 Z " fill="#E4E4E4" transform="translate(16,6)"/>
<path d="M0,0 L4,1 L9,0 L9,2 L5,4 L-2,3 Z " fill="#AEAEAE" transform="translate(16,6)"/>
<path d="M0,0 L10,2 L7,4 L2,4 Z " fill="#B6B6B6" transform="translate(5,19)"/>
</svg>
