<?xml version="1.0" encoding="UTF-8"?>
<svg version="1.1" xmlns="http://www.w3.org/2000/svg" width="28" height="28">
<path d="M0,0 L28,0 L28,28 L0,28 Z " fill="#040404" transform="translate(0,0)"/>
<path d="M0,0 L3,0 L2,3 L-2,4 L-9,4 L-9,6 L-4,7 L0,11 L0,17 L-2,18 L-11,18 L-17,16 L-17,14 L-1,15 L-4,10 L-11,9 L-12,8 L-11,1 Z " fill="#E9E9E9" transform="translate(21,5)"/>
<path d="M0,0 L12,1 L9,2 L9,4 L0,2 Z " fill="#D2D2D2" transform="translate(4,19)"/>
<path d="M0,0 L3,1 L3,3 L8,4 L7,6 L1,6 L0,5 Z " fill="#C0C0C0" transform="translate(9,8)"/>
</svg>
