<?xml version="1.0" encoding="UTF-8"?>
<svg version="1.1" xmlns="http://www.w3.org/2000/svg" width="28" height="28">
<path d="M0,0 L28,0 L28,28 L0,28 Z " fill="#030303" transform="translate(0,0)"/>
<path d="M0,0 L6,0 L6,2 L-4,4 L-6,4 L-6,6 L0,6 L3,9 L2,14 L-3,18 L-10,18 L-13,17 L-14,13 L-9,12 L-8,15 L-2,13 L-1,9 L-9,8 L-9,6 L-12,5 L-8,1 Z " fill="#EDEDED" transform="translate(19,6)"/>
<path d="M0,0 L5,1 L5,3 L9,4 L10,6 L3,6 L0,5 L-1,1 Z " fill="#C2C2C2" transform="translate(6,18)"/>
<path d="M0,0 L6,0 L6,2 L0,3 L-8,2 L-8,1 Z " fill="#C6C6C6" transform="translate(19,6)"/>
</svg>
