<?xml version="1.0" encoding="UTF-8"?>
<svg version="1.1" xmlns="http://www.w3.org/2000/svg" width="28" height="28">
<path d="M0,0 L28,0 L28,28 L0,28 Z " fill="#030303" transform="translate(0,0)"/>
<path d="M0,0 L4,0 L4,2 L0,4 L-5,4 L-4,9 L3,8 L8,13 L8,19 L5,20 L-2,20 L-4,19 L-4,16 L5,17 L4,11 L-1,11 L-5,13 L-8,4 L-6,1 Z " fill="#DEDEDE" transform="translate(15,4)"/>
<path d="M0,0 L1,0 L1,6 L-2,7 L-9,7 L-11,6 L-11,3 L-2,4 L-1,1 Z " fill="#DBDBDB" transform="translate(22,17)"/>
<path d="M0,0 L1,0 L1,6 L-3,7 L-4,4 L-2,4 L-1,1 Z " fill="#B2B2B2" transform="translate(22,17)"/>
</svg>
