<?xml version="1.0" encoding="UTF-8"?>
<svg version="1.1" xmlns="http://www.w3.org/2000/svg" width="28" height="28">
<path d="M0,0 L28,0 L28,28 L0,28 Z " fill="#030303" transform="translate(0,0)"/>
<path d="M0,0 L2,1 L-3,6 L1,9 L0,13 L-5,16 L-8,14 L-7,10 L-6,14 L-3,12 L-3,10 L-6,9 L-5,4 Z " fill="#C8C8C8" transform="translate(15,8)"/>
<path d="M0,0 L5,0 L5,2 L-5,5 L-8,4 Z " fill="#D3D3D3" transform="translate(22,8)"/>
<path d="M0,0 L2,1 L-3,6 L-3,9 L-6,9 L-5,4 Z " fill="#E0E0E0" transform="translate(15,8)"/>
</svg>
