<?xml version="1.0" encoding="UTF-8"?>
<svg version="1.1" xmlns="http://www.w3.org/2000/svg" width="28" height="28">
<path d="M0,0 L28,0 L28,28 L0,28 Z " fill="#030303" transform="translate(0,0)"/>
<path d="M0,0 L10,0 L10,3 L1,4 L0,6 L5,8 L5,15 L3,15 L2,18 L-3,20 L-8,19 L-10,17 L-10,14 L-7,14 L-7,16 L1,15 L2,9 L-7,10 L-7,7 L-5,7 L-3,3 Z " fill="#D9D9D9" transform="translate(15,5)"/>
<path d="M0,0 L10,0 L10,3 L2,3 L0,3 L-3,6 L-5,5 Z " fill="#C7C7C7" transform="translate(15,5)"/>
<path d="M0,0 L0,3 L-2,8 L-8,9 L-8,6 L-2,2 Z " fill="#F6F6F6" transform="translate(16,6)"/>
</svg>
