<?xml version="1.0" encoding="UTF-8"?>
<svg version="1.1" xmlns="http://www.w3.org/2000/svg" width="28" height="28">
<path d="M0,0 L28,0 L28,28 L0,28 Z " fill="#040404" transform="translate(0,0)"/>
<path d="M0,0 L2,0 L2,2 L0,3 L-6,3 L-6,8 L-5,7 L2,8 L5,12 L5,18 L1,20 L-5,20 L-6,15 L-4,15 L-4,18 L2,16 L1,11 L-6,11 L-9,12 L-8,2 Z " fill="#DADADA" transform="translate(17,4)"/>
<path d="M0,0 L2,0 L2,2 L0,3 L-6,3 L-6,8 L-4,10 L-9,12 L-8,2 Z " fill="#E8E8E8" transform="translate(17,4)"/>
<path d="M0,0 L7,1 L8,6 L6,4 L0,2 Z " fill="#BFBFBF" transform="translate(12,11)"/>
</svg>
