<?xml version="1.0" encoding="UTF-8"?>
<svg version="1.1" xmlns="http://www.w3.org/2000/svg" width="28" height="28">
<path d="M0,0 L28,0 L28,28 L0,28 Z " fill="#020202" transform="translate(0,0)"/>
<path d="M0,0 L2,0 L3,3 L1,6 L5,11 L5,14 L3,15 L-6,15 L-8,14 L-8,12 L2,11 L-3,7 L-2,2 Z " fill="#DEDEDE" transform="translate(13,7)"/>
<path d="M0,0 L7,1 L8,4 L-1,3 Z " fill="#D8D8D8" transform="translate(17,6)"/>
<path d="M0,0 L8,0 L11,3 L2,3 L0,2 Z " fill="#BEBEBE" transform="translate(5,19)"/>
</svg>
