<?xml version="1.0" encoding="UTF-8"?>
<svg version="1.1" xmlns="http://www.w3.org/2000/svg" width="28" height="28">
<path d="M0,0 L28,0 L28,28 L0,28 Z " fill="#040404" transform="translate(0,0)"/>
<path d="M0,0 L11,0 L14,1 L14,3 L0,4 L-1,5 L5,7 L4,15 L1,18 L-4,18 L-6,13 L-1,12 L-3,13 L-3,16 L0,15 L2,8 L-5,8 L-4,3 Z " fill="#DCDCDC" transform="translate(13,7)"/>
<path d="M0,0 L1,2 L7,2 L8,7 L6,6 L6,3 L-2,4 Z " fill="#F1F1F1" transform="translate(10,11)"/>
<path d="M0,0 L4,0 L5,8 L3,10 L2,6 L3,1 Z " fill="#C3C3C3" transform="translate(12,14)"/>
</svg>
