<?xml version="1.0" encoding="UTF-8"?>
<svg version="1.1" xmlns="http://www.w3.org/2000/svg" width="28" height="28">
<path d="M0,0 L28,0 L28,28 L0,28 Z " fill="#040404" transform="translate(0,0)"/>
<path d="M0,0 L3,0 L2,3 L-7,4 L-7,7 L-5,6 L2,6 L7,9 L9,11 L9,17 L6,20 L0,20 L-1,18 L6,16 L5,9 L-5,9 L-9,11 L-10,3 Z " fill="#CFCFCF" transform="translate(14,6)"/>
<path d="M0,0 L3,0 L2,3 L-7,4 L-7,11 L-9,11 L-10,3 Z " fill="#D4D4D4" transform="translate(14,6)"/>
<path d="M0,0 L10,0 L10,1 L3,3 L0,4 Z " fill="#F0F0F0" transform="translate(6,12)"/>
<path d="M0,0 L2,0 L1,9 L-1,9 L-2,1 Z " fill="#ABABAB" transform="translate(6,8)"/>
</svg>
