<?xml version="1.0" encoding="UTF-8"?>
<svg version="1.1" xmlns="http://www.w3.org/2000/svg" width="28" height="28">
<path d="M0,0 L28,0 L28,28 L0,28 Z " fill="#030303" transform="translate(0,0)"/>
<path d="M0,0 L2,0 L2,2 L9,5 L8,9 L1,12 L-5,11 L-6,8 L0,9 L6,8 L5,6 L-1,4 Z " fill="#C9C9C9" transform="translate(11,10)"/>
<path d="M0,0 L8,0 L5,2 L-3,4 L-2,1 Z " fill="#D3D3D3" transform="translate(17,7)"/>
<path d="M0,0 L2,0 L2,2 L6,4 L6,5 L0,5 L-1,1 Z " fill="#E7E7E7" transform="translate(11,10)"/>
</svg>
