<?xml version="1.0" encoding="UTF-8"?>
<svg version="1.1" xmlns="http://www.w3.org/2000/svg" width="28" height="28">
<path d="M0,0 L28,0 L28,28 L0,28 Z " fill="#020202" transform="translate(0,0)"/>
<path d="M0,0 L7,0 L7,3 L-1,5 L-5,5 L-2,10 L-1,15 L-2,16 L-9,16 L-13,15 L-13,12 L-11,12 L-9,5 L-7,5 L-7,2 Z " fill="#EAEAEA" transform="translate(19,7)"/>
<path d="M0,0 L7,0 L7,3 L-1,5 L-7,5 L-7,2 Z " fill="#F4F4F4" transform="translate(19,7)"/>
<path d="M0,0 L1,3 L5,4 L5,6 L-1,7 L-3,8 L-3,5 L-1,5 Z " fill="#828282" transform="translate(9,14)"/>
<path d="M0,0 L7,0 L7,3 L0,4 Z " fill="#DADADA" transform="translate(19,7)"/>
</svg>
