<?xml version="1.0" encoding="UTF-8"?>
<svg version="1.1" xmlns="http://www.w3.org/2000/svg" width="28" height="28">
<path d="M0,0 L28,0 L28,28 L0,28 Z " fill="#040404" transform="translate(0,0)"/>
<path d="M0,0 L3,0 L3,3 L-8,7 L-4,10 L-4,15 L-6,18 L-16,18 L-17,16 L-16,9 L-10,4 Z " fill="#F2F2F2" transform="translate(23,5)"/>
<path d="M0,0 L3,0 L3,3 L-10,8 L-12,8 L-16,11 L-14,7 L-10,4 Z " fill="#E9E9E9" transform="translate(23,5)"/>
<path d="M0,0 L4,1 L2,6 L-3,6 L-2,2 Z " fill="#232323" transform="translate(12,15)"/>
<path d="M0,0 L3,1 L2,4 L6,5 L5,6 L0,6 L-1,4 Z " fill="#DADADA" transform="translate(7,17)"/>
</svg>
