<?xml version="1.0" encoding="UTF-8"?>
<svg version="1.1" xmlns="http://www.w3.org/2000/svg" width="28" height="28">
<path d="M0,0 L28,0 L28,28 L0,28 Z " fill="#040404" transform="translate(0,0)"/>
<path d="M0,0 L5,0 L3,3 L-8,4 L-11,7 L-2,7 L3,10 L3,18 L1,20 L-10,20 L-14,16 L-9,17 L-1,17 L0,13 L-2,10 L-9,10 L-15,11 L-14,6 L-9,1 Z " fill="#DEDEDE" transform="translate(19,5)"/>
<path d="M0,0 L5,1 L15,3 L15,4 L4,4 Z " fill="#ABABAB" transform="translate(5,21)"/>
<path d="M0,0 L2,0 L2,5 L1,6 L-5,6 L-2,4 Z " fill="#EBEBEB" transform="translate(20,18)"/>
<path d="M0,0 L5,0 L3,3 L-7,2 L-7,1 Z " fill="#CBCBCB" transform="translate(19,5)"/>
</svg>
