<?xml version="1.0" encoding="UTF-8"?>
<svg version="1.1" xmlns="http://www.w3.org/2000/svg" width="28" height="28">
<path d="M0,0 L28,0 L28,28 L0,28 Z " fill="#050505" transform="translate(0,0)"/>
<path d="M0,0 L5,0 L5,2 L3,3 L-5,3 L-7,8 L1,7 L-2,9 L-10,11 L-9,6 L-7,1 Z " fill="#C1C1C1" transform="translate(17,4)"/>
<path d="M0,0 L3,1 L5,7 L3,12 L-6,12 L-11,10 L-11,7 L-8,7 L-7,9 L3,9 L1,2 Z " fill="#DEDEDE" transform="translate(18,12)"/>
<path d="M0,0 L5,0 L5,2 L-5,4 L-6,2 Z " fill="#E3E3E3" transform="translate(17,4)"/>
</svg>
