<?xml version="1.0" encoding="UTF-8"?>
<svg version="1.1" xmlns="http://www.w3.org/2000/svg" width="28" height="28">
<path d="M0,0 L28,0 L28,28 L0,28 Z " fill="#040404" transform="translate(0,0)"/>
<path d="M0,0 L2,0 L1,3 L-6,4 L-7,7 L0,8 L2,12 L1,18 L-2,20 L-9,20 L-12,18 L-12,15 L-9,15 L-9,18 L-2,17 L-1,16 L-1,11 L-2,10 L-12,11 L-11,7 L-9,7 L-7,2 Z " fill="#DBDBDB" transform="translate(19,3)"/>
<path d="M0,0 L2,0 L3,7 L-1,11 L-8,11 L-11,9 L-11,6 L-8,6 L-8,9 L-1,8 L0,7 Z " fill="#E8E8E8" transform="translate(18,12)"/>
<path d="M0,0 L2,0 L1,3 L-6,4 L-7,6 L-7,2 Z " fill="#C4C4C4" transform="translate(19,3)"/>
</svg>
