<?xml version="1.0" encoding="UTF-8"?>
<svg version="1.1" xmlns="http://www.w3.org/2000/svg" width="28" height="28">
<path d="M0,0 L28,0 L28,28 L0,28 Z " fill="#040404" transform="translate(0,0)"/>
<path d="M0,0 L3,0 L3,2 L-4,3 L-4,6 L2,7 L6,12 L5,17 L1,20 L-6,20 L-8,16 L-6,17 L0,17 L4,16 L2,11 L0,9 L-10,9 L-10,7 L-7,5 L-5,1 Z " fill="#E0E0E0" transform="translate(16,4)"/>
<path d="M0,0 L3,0 L3,2 L-4,3 L-4,6 L0,7 L-1,8 L-10,9 L-10,7 L-7,5 L-5,1 Z " fill="#B4B4B4" transform="translate(16,4)"/>
<path d="M0,0 L3,0 L3,2 L-5,4 L-5,1 Z " fill="#D5D5D5" transform="translate(16,4)"/>
</svg>
