<?xml version="1.0" encoding="UTF-8"?>
<svg version="1.1" xmlns="http://www.w3.org/2000/svg" width="28" height="28">
<path d="M0,0 L28,0 L28,28 L0,28 Z " fill="#030303" transform="translate(0,0)"/>
<path d="M0,0 L3,0 L3,4 L8,5 L11,9 L11,15 L4,16 L2,12 L8,14 L7,6 L2,10 L-1,9 Z " fill="#E4E4E4" transform="translate(9,8)"/>
<path d="M0,0 L8,1 L11,3 L10,5 L5,3 L-1,2 Z " fill="#CCCCCC" transform="translate(11,4)"/>
<path d="M0,0 L3,0 L3,4 L7,5 L2,5 L1,4 L-1,6 Z " fill="#BBBBBB" transform="translate(9,8)"/>
</svg>
