<?xml version="1.0" encoding="UTF-8"?>
<svg version="1.1" xmlns="http://www.w3.org/2000/svg" width="28" height="28">
<path d="M0,0 L28,0 L28,28 L0,28 Z " fill="#020202" transform="translate(0,0)"/>
<path d="M0,0 L6,0 L6,2 L1,2 L0,8 L7,7 L9,8 L9,14 L4,19 L-1,20 L-5,16 L-5,13 L-2,13 L-1,16 L4,15 L6,10 L-3,11 L-2,2 Z " fill="#D5D5D5" transform="translate(13,4)"/>
<path d="M0,0 L4,0 L3,5 L1,7 L-4,6 L-4,3 L-6,2 Z " fill="#181818" transform="translate(15,14)"/>
<path d="M0,0 L6,0 L6,2 L1,2 L1,4 L-1,4 Z " fill="#EFEFEF" transform="translate(13,4)"/>
</svg>
