<?xml version="1.0" encoding="UTF-8"?>
<svg version="1.1" xmlns="http://www.w3.org/2000/svg" width="28" height="28">
<path d="M0,0 L28,0 L28,28 L0,28 Z " fill="#020202" transform="translate(0,0)"/>
<path d="M0,0 L5,1 L6,4 L-2,3 L-3,7 L-4,9 L0,11 L-1,18 L-5,20 L-5,16 L-3,16 L-3,12 L-8,11 L-7,6 L-4,2 Z " fill="#EEEEEE" transform="translate(17,5)"/>
<path d="M0,0 L5,1 L6,4 L-2,3 L-3,7 L-5,9 L-6,8 L-8,11 L-7,6 L-4,2 Z " fill="#E5E5E5" transform="translate(17,5)"/>
<path d="M0,0 L4,0 L2,5 L0,4 L-2,7 L-1,2 Z " fill="#C1C1C1" transform="translate(11,9)"/>
</svg>
