<?xml version="1.0" encoding="UTF-8"?>
<svg version="1.1" xmlns="http://www.w3.org/2000/svg" width="28" height="28">
<path d="M0,0 L28,0 L28,28 L0,28 Z " fill="#030303" transform="translate(0,0)"/>
<path d="M0,0 L2,0 L1,4 L10,8 L11,13 L9,16 L3,16 L-1,13 L-1,11 L7,12 L7,9 L-3,7 L-2,2 Z " fill="#CBCBCB" transform="translate(10,9)"/>
<path d="M0,0 L8,0 L10,1 L10,3 L-2,3 L-3,1 Z " fill="#D4D4D4" transform="translate(15,5)"/>
<path d="M0,0 L2,0 L1,4 L5,7 L-3,7 L-2,2 Z " fill="#E8E8E8" transform="translate(10,9)"/>
</svg>
