<?xml version="1.0" encoding="UTF-8"?>
<svg version="1.1" xmlns="http://www.w3.org/2000/svg" width="28" height="28">
<path d="M0,0 L28,0 L28,28 L0,28 Z " fill="#020202" transform="translate(0,0)"/>
<path d="M0,0 L3,0 L2,3 L-4,4 L-3,6 L-3,13 L-8,18 L-15,17 L-17,13 L-8,15 L-7,12 L-5,11 L-5,7 L-8,8 L-9,10 L-11,10 L-11,3 L-7,1 L-7,3 Z " fill="#DBDBDB" transform="translate(21,6)"/>
<path d="M0,0 L1,0 L1,7 L-4,12 L-11,11 L-13,7 L-4,9 L-3,6 L-1,5 Z " fill="#BEBEBE" transform="translate(17,12)"/>
</svg>
