<?xml version="1.0" encoding="UTF-8"?>
<svg version="1.1" xmlns="http://www.w3.org/2000/svg" width="28" height="28">
<path d="M0,0 L28,0 L28,28 L0,28 Z " fill="#020202" transform="translate(0,0)"/>
<path d="M0,0 L13,0 L13,2 L2,3 L-1,4 L-1,6 L4,8 L7,12 L5,16 L-6,16 L-7,13 L4,14 L3,10 L-4,7 L-4,3 Z " fill="#E2E2E2" transform="translate(12,7)"/>
<path d="M0,0 L4,2 L6,7 L4,9 L-7,9 L-8,6 L3,7 L2,3 L0,2 Z " fill="#C5C5C5" transform="translate(13,14)"/>
<path d="M0,0 L10,1 L6,3 L1,3 Z " fill="#999999" transform="translate(5,20)"/>
</svg>
