<?xml version="1.0" encoding="UTF-8"?>
<svg version="1.1" xmlns="http://www.w3.org/2000/svg" width="28" height="28">
<path d="M0,0 L28,0 L28,28 L0,28 Z " fill="#040404" transform="translate(0,0)"/>
<path d="M0,0 L11,1 L11,3 L2,3 L1,6 L-3,6 L-3,8 L3,9 L5,11 L5,17 L4,19 L1,20 L-6,20 L-7,17 L2,17 L2,12 L-3,11 L-6,10 L-5,6 Z " fill="#DDDDDD" transform="translate(14,6)"/>
<path d="M0,0 L10,0 L10,2 L-2,3 Z " fill="#F0F0F0" transform="translate(15,7)"/>
<path d="M0,0 L2,1 L0,3 L2,5 L-2,6 L-4,4 Z " fill="#CDCDCD" transform="translate(14,6)"/>
</svg>
