<?xml version="1.0" encoding="UTF-8"?>
<svg version="1.1" xmlns="http://www.w3.org/2000/svg" width="28" height="28">
<path d="M0,0 L28,0 L28,28 L0,28 Z " fill="#030303" transform="translate(0,0)"/>
<path d="M0,0 L6,0 L10,3 L-2,3 L-2,8 L2,7 L6,11 L6,18 L4,20 L0,20 L0,18 L-2,17 L1,16 L3,10 L-3,13 L-6,12 L-7,7 L-5,1 Z " fill="#DFDFDF" transform="translate(14,5)"/>
<path d="M0,0 L6,0 L10,3 L-2,3 L-5,1 Z " fill="#CCCCCC" transform="translate(14,5)"/>
<path d="M0,0 L1,0 L1,5 L-4,6 L-4,4 L-6,3 Z " fill="#F0F0F0" transform="translate(18,19)"/>
</svg>
