<?xml version="1.0" encoding="UTF-8"?>
<svg version="1.1" xmlns="http://www.w3.org/2000/svg" width="28" height="28">
<path d="M0,0 L28,0 L28,28 L0,28 Z " fill="#040404" transform="translate(0,0)"/>
<path d="M0,0 L5,0 L4,5 L2,4 L-4,4 L-7,7 L-2,9 L-1,12 L-2,18 L-11,20 L-13,16 L-6,16 L-4,11 L-10,9 L-9,4 L-7,1 Z " fill="#DFDFDF" transform="translate(19,5)"/>
<path d="M0,0 L3,1 L2,8 L-7,10 L-9,6 L-2,6 Z " fill="#EFEFEF" transform="translate(15,15)"/>
<path d="M0,0 L5,0 L4,5 L0,2 Z " fill="#C3C3C3" transform="translate(19,5)"/>
</svg>
