<?xml version="1.0" encoding="UTF-8"?>
<svg version="1.1" xmlns="http://www.w3.org/2000/svg" width="28" height="28">
<path d="M0,0 L28,0 L28,28 L0,28 Z " fill="#030303" transform="translate(0,0)"/>
<path d="M0,0 L11,1 L11,3 L-4,4 L-4,7 L1,9 L3,11 L3,16 L-3,17 L-8,15 L-9,13 L0,14 L0,12 L-8,10 L-7,2 Z " fill="#E8E8E8" transform="translate(16,6)"/>
<path d="M0,0 L11,1 L11,3 L0,4 L0,2 L-5,3 L-4,1 Z " fill="#E1E1E1" transform="translate(16,6)"/>
<path d="M0,0 L6,0 L2,2 L3,4 L0,4 L0,2 L-5,3 L-4,1 Z " fill="#9B9B9B" transform="translate(16,6)"/>
</svg>
