<?xml version="1.0" encoding="UTF-8"?>
<svg version="1.1" xmlns="http://www.w3.org/2000/svg" width="28" height="28">
<path d="M0,0 L28,0 L28,28 L0,28 Z " fill="#010101" transform="translate(0,0)"/>
<path d="M0,0 L4,0 L4,2 L-4,4 L-8,4 L-7,7 L-5,8 L-5,12 L-9,14 L-15,14 L-16,11 L-8,11 L-8,9 L-13,8 L-8,1 Z " fill="#DCDCDC" transform="translate(22,7)"/>
<path d="M0,0 L4,0 L4,2 L-4,4 L-8,4 L-9,7 L-11,5 L-8,1 Z " fill="#B4B4B4" transform="translate(22,7)"/>
<path d="M0,0 L8,1 L7,3 L1,3 Z " fill="#C0C0C0" transform="translate(6,18)"/>
</svg>
