<?xml version="1.0" encoding="UTF-8"?>
<svg version="1.1" xmlns="http://www.w3.org/2000/svg" width="28" height="28">
<path d="M0,0 L28,0 L28,28 L0,28 Z " fill="#030303" transform="translate(0,0)"/>
<path d="M0,0 L7,0 L8,2 L1,2 L2,12 L-2,15 L-10,15 L-12,11 L-8,11 L-8,12 L-1,11 L-1,7 L-7,9 L-5,5 Z " fill="#E2E2E2" transform="translate(17,6)"/>
<path d="M0,0 L7,0 L8,2 L1,2 L1,4 L-2,3 Z " fill="#C2C2C2" transform="translate(17,6)"/>
<path d="M0,0 L3,1 L7,4 L1,5 L-1,1 Z " fill="#B6B6B6" transform="translate(6,16)"/>
</svg>
