<?xml version="1.0" encoding="UTF-8"?>
<svg version="1.1" xmlns="http://www.w3.org/2000/svg" width="28" height="28">
<path d="M0,0 L28,0 L28,28 L0,28 Z " fill="#030303" transform="translate(0,0)"/>
<path d="M0,0 L8,0 L8,2 L1,3 L1,6 L4,11 L1,16 L-2,18 L-8,18 L-12,14 L-12,11 L-3,12 L0,14 L-1,8 L-6,9 L-9,10 L-9,7 L-3,3 Z " fill="#E7E7E7" transform="translate(17,5)"/>
<path d="M0,0 L9,1 L12,3 L13,1 L14,4 L10,7 L4,7 L0,3 Z " fill="#BEBEBE" transform="translate(5,16)"/>
<path d="M0,0 L5,1 L6,4 L5,7 L-6,4 L-2,2 Z " fill="#1D1D1D" transform="translate(12,12)"/>
<path d="M0,0 L9,1 L10,4 L4,4 L1,4 Z " fill="#E6E6E6" transform="translate(5,16)"/>
</svg>
