<?xml version="1.0" encoding="UTF-8"?>
<svg version="1.1" xmlns="http://www.w3.org/2000/svg" width="28" height="28">
<path d="M0,0 L28,0 L28,28 L0,28 Z " fill="#030303" transform="translate(0,0)"/>
<path d="M0,0 L9,0 L14,3 L12,7 L7,13 L5,19 L3,19 L2,16 L7,8 L11,3 L-6,4 L-4,1 Z " fill="#D6D6D6" transform="translate(9,8)"/>
<path d="M0,0 L9,0 L8,3 L-6,4 L-4,1 Z " fill="#C8C8C8" transform="translate(9,8)"/>
<path d="M0,0 L6,0 L8,4 L3,8 L4,4 L5,2 L0,1 Z " fill="#ECECEC" transform="translate(15,9)"/>
</svg>
