<?xml version="1.0" encoding="UTF-8"?>
<svg version="1.1" xmlns="http://www.w3.org/2000/svg" width="28" height="28">
<path d="M0,0 L28,0 L28,28 L0,28 Z " fill="#010101" transform="translate(0,0)"/>
<path d="M0,0 L7,0 L8,1 L7,12 L5,20 L3,19 L4,11 L5,3 L2,3 L1,8 L-1,5 Z " fill="#F0F0F0" transform="translate(10,7)"/>
<path d="M0,0 L4,1 L6,2 L6,7 L5,3 L2,3 L1,8 L-1,5 Z " fill="#B1B1B1" transform="translate(10,7)"/>
<path d="M0,0 L2,0 L1,9 L-1,8 Z " fill="#D1D1D1" transform="translate(14,18)"/>
</svg>
