<?xml version="1.0" encoding="UTF-8"?>
<svg version="1.1" xmlns="http://www.w3.org/2000/svg" width="28" height="28">
<path d="M0,0 L28,0 L28,28 L0,28 Z " fill="#020202" transform="translate(0,0)"/>
<path d="M0,0 L3,3 L10,2 L13,1 L11,16 L10,20 L8,20 L9,9 L9,6 L2,6 L0,5 L-1,11 L-3,12 L-3,4 L0,3 Z " fill="#E6E6E6" transform="translate(9,7)"/>
<path d="M0,0 L2,0 L0,15 L-1,19 L-3,19 L-2,8 L-1,4 L-3,2 Z " fill="#D4D4D4" transform="translate(20,8)"/>
<path d="M0,0 L2,4 L1,11 L-1,11 Z " fill="#AAAAAA" transform="translate(18,16)"/>
</svg>
