<?xml version="1.0" encoding="UTF-8"?>
<svg version="1.1" xmlns="http://www.w3.org/2000/svg" width="28" height="28">
<path d="M0,0 L28,0 L28,28 L0,28 Z " fill="#030303" transform="translate(0,0)"/>
<path d="M0,0 L5,2 L16,3 L15,10 L12,19 L8,20 L11,11 L13,6 L5,6 L0,3 Z " fill="#DDDDDD" transform="translate(5,7)"/>
<path d="M0,0 L10,3 L14,5 L13,7 L3,5 L0,3 Z " fill="#CFCFCF" transform="translate(5,7)"/>
<path d="M0,0 L6,0 L5,6 L3,6 L4,2 L-1,2 Z " fill="#F7F7F7" transform="translate(15,10)"/>
</svg>
