<?xml version="1.0" encoding="UTF-8"?>
<svg version="1.1" xmlns="http://www.w3.org/2000/svg" width="28" height="28">
<path d="M0,0 L28,0 L28,28 L0,28 Z " fill="#020202" transform="translate(0,0)"/>
<path d="M0,0 L9,3 L12,5 L10,9 L9,11 L12,13 L3,14 L1,20 L0,17 L0,9 L4,10 L7,9 L7,7 L9,7 L9,5 L1,4 Z " fill="#DBDBDB" transform="translate(10,5)"/>
<path d="M0,0 L7,1 L6,4 L3,7 L1,11 L0,8 Z " fill="#E3E3E3" transform="translate(10,14)"/>
<path d="M0,0 L2,4 L5,6 L-3,7 L-1,6 L-2,2 L0,2 Z " fill="#B3B3B3" transform="translate(17,12)"/>
</svg>
