<?xml version="1.0" encoding="UTF-8"?>
<svg version="1.1" xmlns="http://www.w3.org/2000/svg" width="28" height="28">
<path d="M0,0 L28,0 L28,28 L0,28 Z " fill="#030303" transform="translate(0,0)"/>
<path d="M0,0 L2,0 L1,4 L-5,12 L-9,16 L-11,16 L-11,18 L-14,17 L-14,15 L-8,10 L-6,7 L-4,7 L-4,5 L-11,6 L-15,10 L-18,10 L-16,5 L-12,2 L-3,2 Z " fill="#D7D7D7" transform="translate(23,7)"/>
<path d="M0,0 L3,0 L2,4 L-2,8 L-4,8 L-4,10 L-7,9 L-7,7 L-1,2 Z " fill="#DEDEDE" transform="translate(16,15)"/>
</svg>
