<?xml version="1.0" encoding="UTF-8"?>
<svg version="1.1" xmlns="http://www.w3.org/2000/svg" width="28" height="28">
<path d="M0,0 L28,0 L28,28 L0,28 Z " fill="#030303" transform="translate(0,0)"/>
<path d="M0,0 L13,0 L12,4 L5,14 L3,20 L1,20 L1,13 L7,4 L-3,5 L-4,3 L-3,1 Z " fill="#E3E3E3" transform="translate(10,8)"/>
<path d="M0,0 L3,0 L2,4 L-2,5 L-2,3 L-10,3 L-9,1 Z " fill="#F5F5F5" transform="translate(20,8)"/>
<path d="M0,0 L2,1 L1,2 L8,3 L7,5 L-3,5 L-4,3 L-3,1 Z " fill="#C0C0C0" transform="translate(10,8)"/>
</svg>
