<?xml version="1.0" encoding="UTF-8"?>
<svg version="1.1" xmlns="http://www.w3.org/2000/svg" width="28" height="28">
<path d="M0,0 L28,0 L28,28 L0,28 Z " fill="#030303" transform="translate(0,0)"/>
<path d="M0,0 L3,0 L2,7 L0,7 L0,10 L5,11 L5,13 L-2,12 L-4,19 L-8,19 L-6,15 L-5,12 L-11,12 L-11,10 L-3,10 L-1,3 L-9,4 L-9,6 L-11,6 L-11,1 Z " fill="#E6E6E6" transform="translate(18,6)"/>
<path d="M0,0 L3,0 L2,7 L-1,5 L-1,3 L-9,4 L-9,6 L-11,6 L-11,1 Z " fill="#CDCDCD" transform="translate(18,6)"/>
</svg>
