<?xml version="1.0" encoding="UTF-8"?>
<svg version="1.1" xmlns="http://www.w3.org/2000/svg" width="28" height="28">
<path d="M0,0 L28,0 L28,28 L0,28 Z " fill="#020202" transform="translate(0,0)"/>
<path d="M0,0 L7,0 L13,3 L13,9 L7,20 L5,20 L6,15 L11,5 L1,3 L0,8 L-3,9 L-3,4 L-1,4 Z " fill="#D8D8D8" transform="translate(8,7)"/>
<path d="M0,0 L7,0 L7,1 L2,1 L2,6 L-2,8 L-2,3 L0,3 Z " fill="#E4E4E4" transform="translate(7,8)"/>
<path d="M0,0 L7,0 L9,2 L8,4 L1,3 Z " fill="#A6A6A6" transform="translate(8,7)"/>
</svg>
