<?xml version="1.0" encoding="UTF-8"?>
<svg version="1.1" xmlns="http://www.w3.org/2000/svg" width="28" height="28">
<path d="M0,0 L28,0 L28,28 L0,28 Z " fill="#020202" transform="translate(0,0)"/>
<path d="M0,0 L15,0 L14,4 L13,8 L13,17 L-3,17 L-3,1 Z " fill="#010101" transform="translate(3,11)"/>
<path d="M0,0 L12,0 L15,2 L14,8 L13,10 L12,19 L9,19 L9,11 L12,3 L-5,4 L-5,2 Z " fill="#DDDDDD" transform="translate(6,8)"/>
<path d="M0,0 L12,0 L12,2 L10,3 L-5,4 L-5,2 Z " fill="#BEBEBE" transform="translate(6,8)"/>
</svg>
