<?xml version="1.0" encoding="UTF-8"?>
<svg version="1.1" xmlns="http://www.w3.org/2000/svg" width="28" height="28">
<path d="M0,0 L28,0 L28,28 L0,28 Z " fill="#040404" transform="translate(0,0)"/>
<path d="M0,0 L5,0 L3,7 L-2,12 L-8,16 L-10,16 L-10,19 L-15,19 L-13,15 L-2,8 L-1,6 L1,6 L1,3 L-10,5 L-14,5 L-14,3 Z " fill="#E0E0E0" transform="translate(20,7)"/>
<path d="M0,0 L5,0 L4,5 L2,5 L2,2 L-10,5 L-14,5 L-14,3 Z " fill="#EDEDED" transform="translate(20,7)"/>
<path d="M0,0 L2,0 L2,3 L4,4 L-1,9 L-2,6 L-1,4 L1,4 Z " fill="#C3C3C3" transform="translate(20,9)"/>
</svg>
