<?xml version="1.0" encoding="UTF-8"?>
<svg version="1.1" xmlns="http://www.w3.org/2000/svg" width="28" height="28">
<path d="M0,0 L28,0 L28,28 L0,28 Z " fill="#020202" transform="translate(0,0)"/>
<path d="M0,0 L11,0 L9,9 L11,9 L11,11 L8,12 L6,20 L4,20 L4,13 L-2,13 L2,11 L5,10 L7,4 L1,3 L0,8 L-1,11 L-3,11 L-1,2 Z " fill="#E5E5E5" transform="translate(10,6)"/>
<path d="M0,0 L6,1 L5,7 L1,9 L2,11 L-4,11 L-4,8 L-2,8 L-1,3 Z " fill="#1C1C1C" transform="translate(11,9)"/>
<path d="M0,0 L2,0 L1,5 L-2,6 L-2,4 L-6,3 L-5,1 Z " fill="#B9B9B9" transform="translate(19,6)"/>
</svg>
