<?xml version="1.0" encoding="UTF-8"?>
<svg version="1.1" xmlns="http://www.w3.org/2000/svg" width="28" height="28">
<path d="M0,0 L28,0 L28,28 L0,28 Z " fill="#030303" transform="translate(0,0)"/>
<path d="M0,0 L4,0 L4,2 L12,4 L12,7 L6,12 L1,17 L-3,20 L-5,20 L-5,18 L3,11 L7,9 L7,5 L1,3 L1,5 L-8,8 L-8,5 L-3,1 Z " fill="#C9C9C9" transform="translate(13,7)"/>
<path d="M0,0 L6,0 L4,4 L-5,7 L-5,4 Z " fill="#D6D6D6" transform="translate(10,8)"/>
<path d="M0,0 L5,0 L3,4 L-2,4 Z " fill="#F0F0F0" transform="translate(11,8)"/>
</svg>
