<?xml version="1.0" encoding="UTF-8"?>
<svg version="1.1" xmlns="http://www.w3.org/2000/svg" width="28" height="28">
<path d="M0,0 L28,0 L28,28 L0,28 Z " fill="#010101" transform="translate(0,0)"/>
<path d="M0,0 L8,1 L15,4 L17,6 L16,13 L13,18 L10,18 L11,14 L13,11 L14,6 L-3,3 L-3,1 Z " fill="#BFBFBF" transform="translate(5,7)"/>
<path d="M0,0 L4,2 L3,9 L0,14 L-3,14 L-2,10 L0,7 Z " fill="#E5E5E5" transform="translate(18,11)"/>
<path d="M0,0 L5,1 L4,4 L-3,3 L-3,1 Z " fill="#DDDDDD" transform="translate(5,7)"/>
</svg>
