<?xml version="1.0" encoding="UTF-8"?>
<svg version="1.1" xmlns="http://www.w3.org/2000/svg" width="28" height="28">
<path d="M0,0 L28,0 L28,28 L0,28 Z " fill="#020202" transform="translate(0,0)"/>
<path d="M0,0 L14,0 L13,6 L6,12 L1,17 L-1,20 L-4,19 L-2,15 L6,7 L10,3 L-3,4 L-4,1 Z " fill="#C3C3C3" transform="translate(10,7)"/>
<path d="M0,0 L1,3 L-5,8 L-10,13 L-12,16 L-15,15 L-13,11 L-5,3 Z " fill="#E9E9E9" transform="translate(21,11)"/>
<path d="M0,0 L11,0 L10,2 L1,3 Z " fill="#DCDCDC" transform="translate(6,8)"/>
</svg>
