<?xml version="1.0" encoding="UTF-8"?>
<svg version="1.1" xmlns="http://www.w3.org/2000/svg" width="28" height="28">
<path d="M0,0 L28,0 L28,28 L0,28 Z " fill="#030303" transform="translate(0,0)"/>
<path d="M0,0 L6,1 L7,8 L12,8 L12,10 L7,11 L5,20 L2,20 L3,13 L1,13 L2,10 L4,10 L4,3 L-4,5 L-4,2 Z " fill="#D8D8D8" transform="translate(10,6)"/>
<path d="M0,0 L1,3 L0,9 L-3,9 L-2,2 L-4,1 Z " fill="#CACACA" transform="translate(15,17)"/>
<path d="M0,0 L4,0 L4,2 L-3,3 L-4,5 L-7,3 Z " fill="#F6F6F6" transform="translate(18,14)"/>
</svg>
