<?xml version="1.0" encoding="UTF-8"?>
<svg version="1.1" xmlns="http://www.w3.org/2000/svg" width="28" height="28">
<path d="M0,0 L28,0 L28,28 L0,28 Z " fill="#040404" transform="translate(0,0)"/>
<path d="M0,0 L2,0 L0,11 L4,11 L4,13 L-1,14 L-2,18 L0,19 L-4,20 L-5,17 L-4,14 L-9,14 L-9,12 L-3,12 L-2,5 L-12,5 L-13,2 L-2,1 Z " fill="#D3D3D3" transform="translate(17,5)"/>
<path d="M0,0 L1,3 L6,3 L6,5 L1,6 L0,10 L2,11 L-2,12 L-3,9 L-2,6 L-7,6 L-7,4 L-1,4 Z " fill="#EDEDED" transform="translate(15,13)"/>
</svg>
