<?xml version="1.0" encoding="UTF-8"?>
<svg version="1.1" xmlns="http://www.w3.org/2000/svg" width="28" height="28">
<path d="M0,0 L28,0 L28,28 L0,28 Z " fill="#020202" transform="translate(0,0)"/>
<path d="M0,0 L10,0 L12,1 L12,7 L10,7 L8,13 L2,20 L0,20 L1,16 L8,6 L9,3 L0,2 Z " fill="#DEDEDE" transform="translate(8,7)"/>
<path d="M0,0 L10,0 L11,5 L10,3 L0,2 Z " fill="#F2F2F2" transform="translate(8,7)"/>
<path d="M0,0 L1,0 L1,6 L-1,6 L-1,8 L-5,9 L-2,2 Z " fill="#BFBFBF" transform="translate(19,8)"/>
</svg>
