<?xml version="1.0" encoding="UTF-8"?>
<svg version="1.1" xmlns="http://www.w3.org/2000/svg" width="28" height="28">
<path d="M0,0 L28,0 L28,28 L0,28 Z " fill="#020202" transform="translate(0,0)"/>
<path d="M0,0 L1,3 L-1,10 L5,10 L5,12 L-2,12 L-2,19 L-4,19 L-5,12 L-7,10 L-3,9 L-2,3 L-11,4 L-8,8 L-8,10 L-10,10 L-11,6 L-13,6 L-14,2 L-13,1 Z " fill="#CFCFCF" transform="translate(19,7)"/>
<path d="M0,0 L1,0 L1,5 L7,5 L7,7 L0,7 L0,14 L-2,14 L-3,7 L-5,5 L-1,4 Z " fill="#E1E1E1" transform="translate(17,12)"/>
<path d="M0,0 L1,3 L0,8 L-2,5 L-2,2 L-13,2 L-13,1 Z " fill="#AEAEAE" transform="translate(19,7)"/>
</svg>
