<?xml version="1.0" encoding="UTF-8"?>
<svg version="1.1" xmlns="http://www.w3.org/2000/svg" width="28" height="28">
<path d="M0,0 L28,0 L28,28 L0,28 Z " fill="#020202" transform="translate(0,0)"/>
<path d="M0,0 L6,0 L10,3 L10,9 L7,16 L6,20 L3,20 L4,13 L6,9 L7,3 L-6,6 L-5,1 Z " fill="#E0E0E0" transform="translate(11,7)"/>
<path d="M0,0 L3,1 L5,3 L-6,6 L-5,1 Z " fill="#C7C7C7" transform="translate(11,7)"/>
<path d="M0,0 L5,1 L6,2 L6,7 L4,8 L4,3 L-1,2 Z " fill="#F6F6F6" transform="translate(14,7)"/>
</svg>
