<?xml version="1.0" encoding="UTF-8"?>
<svg version="1.1" xmlns="http://www.w3.org/2000/svg" width="28" height="28">
<path d="M0,0 L28,0 L28,28 L0,28 Z " fill="#020202" transform="translate(0,0)"/>
<path d="M0,0 L6,0 L6,9 L8,10 L5,11 L4,20 L3,20 L3,12 L0,13 L0,10 L3,10 L3,3 L-4,4 L-4,2 Z " fill="#D7D7D7" transform="translate(12,6)"/>
<path d="M0,0 L1,0 L1,9 L-1,12 L-1,4 L-4,5 L-4,2 Z " fill="#F6F6F6" transform="translate(16,14)"/>
<path d="M0,0 L4,2 L4,7 L3,3 L-4,4 L-4,2 Z " fill="#B3B3B3" transform="translate(12,6)"/>
</svg>
