<?xml version="1.0" encoding="UTF-8"?>
<svg version="1.1" xmlns="http://www.w3.org/2000/svg" width="28" height="28">
<path d="M0,0 L28,0 L28,28 L0,28 Z " fill="#020202" transform="translate(0,0)"/>
<path d="M0,0 L7,0 L9,1 L10,11 L9,12 L8,20 L6,19 L6,11 L3,11 L3,9 L1,9 L-1,2 Z " fill="#989898" transform="translate(9,7)"/>
<path d="M0,0 L1,0 L2,9 L1,10 L0,18 L-2,17 L-2,9 L-5,9 L-5,7 L-1,7 Z " fill="#CDCDCD" transform="translate(17,9)"/>
<path d="M0,0 L4,0 L4,6 L0,6 Z " fill="#000000" transform="translate(12,10)"/>
<path d="M0,0 L6,1 L2,2 L2,8 L0,7 L-1,2 Z " fill="#D3D3D3" transform="translate(9,7)"/>
</svg>
