<?xml version="1.0" encoding="UTF-8"?>
<svg version="1.1" xmlns="http://www.w3.org/2000/svg" width="28" height="28">
<path d="M0,0 L28,0 L28,28 L0,28 Z " fill="#030303" transform="translate(0,0)"/>
<path d="M0,0 L10,1 L8,5 L-3,18 L-4,20 L-6,20 L-5,16 L3,6 L6,2 L-1,4 L-3,7 L-6,7 L-4,3 L-3,1 Z " fill="#DEDEDE" transform="translate(13,7)"/>
<path d="M0,0 L0,3 L-6,11 L-8,11 L-7,7 L-2,1 Z " fill="#EEEEEE" transform="translate(15,16)"/>
<path d="M0,0 L3,0 L1,4 L0,6 L-3,6 L-1,2 Z " fill="#CACACA" transform="translate(10,8)"/>
</svg>
