<?xml version="1.0" encoding="UTF-8"?>
<svg version="1.1" xmlns="http://www.w3.org/2000/svg" width="28" height="28">
<path d="M0,0 L28,0 L28,28 L0,28 Z " fill="#020202" transform="translate(0,0)"/>
<path d="M0,0 L7,0 L8,1 L7,9 L6,20 L3,20 L2,14 L4,7 L6,2 L-2,4 L-6,4 L-6,2 Z " fill="#F2F2F2" transform="translate(11,7)"/>
<path d="M0,0 L2,2 L2,13 L-1,13 L-2,7 Z M0,2 Z " fill="#C4C4C4" transform="translate(15,14)"/>
<path d="M0,0 L2,1 L3,3 L-6,4 L-6,2 Z " fill="#D9D9D9" transform="translate(11,7)"/>
</svg>
