<?xml version="1.0" encoding="UTF-8"?>
<svg version="1.1" xmlns="http://www.w3.org/2000/svg" width="28" height="28">
<path d="M0,0 L28,0 L28,28 L0,28 Z " fill="#030303" transform="translate(0,0)"/>
<path d="M0,0 L2,0 L2,2 L9,2 L12,1 L11,10 L7,20 L5,20 L7,11 L9,6 L3,5 L1,9 L-1,9 L-1,2 Z " fill="#F6F6F6" transform="translate(8,7)"/>
<path d="M0,0 L2,0 L2,2 L7,3 L10,5 L9,7 L3,5 L1,9 L-1,9 L-1,2 Z " fill="#C6C6C6" transform="translate(8,7)"/>
<path d="M0,0 L2,2 L1,6 L-1,12 L-3,12 L-1,3 Z " fill="#DADADA" transform="translate(16,15)"/>
</svg>
