<?xml version="1.0" encoding="UTF-8"?>
<svg version="1.1" xmlns="http://www.w3.org/2000/svg" width="28" height="28">
<path d="M0,0 L28,0 L28,28 L0,28 Z " fill="#020202" transform="translate(0,0)"/>
<path d="M0,0 L7,1 L10,4 L10,13 L12,13 L12,15 L10,15 L10,20 L6,19 L7,14 L0,14 L0,12 L7,11 L6,4 L-1,3 L-2,5 L-2,1 Z " fill="#E9E9E9" transform="translate(9,5)"/>
<path d="M0,0 L7,1 L10,4 L10,7 L8,7 L8,12 L2,12 L2,11 L7,11 L6,4 L-1,3 L-2,5 L-2,1 Z " fill="#BEBEBE" transform="translate(9,5)"/>
<path d="M0,0 L5,0 L5,2 L-1,3 L-2,5 L-2,1 Z " fill="#D5D5D5" transform="translate(9,5)"/>
</svg>
