<?xml version="1.0" encoding="UTF-8"?>
<svg version="1.1" xmlns="http://www.w3.org/2000/svg" width="28" height="28">
<path d="M0,0 L28,0 L28,28 L0,28 Z " fill="#030303" transform="translate(0,0)"/>
<path d="M0,0 L3,1 L-1,14 L-6,20 L-8,20 L-7,16 L-2,6 L-1,3 L-11,4 L-11,1 Z " fill="#DFDFDF" transform="translate(18,7)"/>
<path d="M0,0 L3,1 L1,8 L-1,7 L-1,3 L-11,4 L-11,1 Z " fill="#EEEEEE" transform="translate(18,7)"/>
<path d="M0,0 L2,1 L1,8 L-2,7 Z " fill="#C3C3C3" transform="translate(16,13)"/>
</svg>
