<?xml version="1.0" encoding="UTF-8"?>
<svg version="1.1" xmlns="http://www.w3.org/2000/svg" width="28" height="28">
<path d="M0,0 L28,0 L28,28 L0,28 Z " fill="#020202" transform="translate(0,0)"/>
<path d="M0,0 L14,0 L15,4 L9,12 L4,20 L2,19 L4,14 L8,7 L11,3 L-2,4 L-2,1 Z " fill="#E8E8E8" transform="translate(7,8)"/>
<path d="M0,0 L7,0 L12,2 L11,4 L-2,4 L-2,1 Z " fill="#C9C9C9" transform="translate(7,8)"/>
<path d="M0,0 L1,0 L1,6 L-2,9 L-3,6 Z " fill="#CDCDCD" transform="translate(12,19)"/>
</svg>
