<?xml version="1.0" encoding="UTF-8"?>
<svg version="1.1" xmlns="http://www.w3.org/2000/svg" width="28" height="28">
<path d="M0,0 L28,0 L28,28 L0,28 Z " fill="#030303" transform="translate(0,0)"/>
<path d="M0,0 L13,1 L11,6 L10,12 L6,12 L7,16 L4,20 L0,19 L1,13 L-1,10 Z " fill="#EEEEEE" transform="translate(10,6)"/>
<path d="M0,0 L13,1 L11,6 L9,8 L7,8 L5,10 L2,10 L1,5 L0,5 Z " fill="#E5E5E5" transform="translate(10,6)"/>
<path d="M0,0 L6,0 L3,6 L0,6 Z " fill="#161616" transform="translate(12,10)"/>
</svg>
