<?xml version="1.0" encoding="UTF-8"?>
<svg version="1.1" xmlns="http://www.w3.org/2000/svg" width="28" height="28">
<path d="M0,0 L28,0 L28,28 L0,28 Z " fill="#030303" transform="translate(0,0)"/>
<path d="M0,0 L12,0 L10,17 L-5,17 L-5,1 Z " fill="#000000" transform="translate(5,11)"/>
<path d="M0,0 L8,0 L14,2 L12,19 L8,19 L10,6 L11,3 L-4,3 L-4,1 Z " fill="#E7E7E7" transform="translate(6,8)"/>
<path d="M0,0 L4,1 L10,2 L10,3 L-4,3 L-4,1 Z " fill="#B1B1B1" transform="translate(6,8)"/>
<path d="M0,0 L1,0 L1,5 L-3,5 L-3,2 Z " fill="#C5C5C5" transform="translate(17,22)"/>
</svg>
