<?xml version="1.0" encoding="UTF-8"?>
<svg version="1.1" xmlns="http://www.w3.org/2000/svg" width="28" height="28">
<path d="M0,0 L28,0 L28,28 L0,28 Z " fill="#050505" transform="translate(0,0)"/>
<path d="M0,0 L14,1 L14,9 L17,9 L17,11 L14,11 L15,20 L13,20 L11,12 L5,11 L6,9 L11,9 L11,3 L3,3 L3,9 L1,9 Z " fill="#BEBEBE" transform="translate(5,7)"/>
<path d="M0,0 L14,1 L13,9 L12,9 L12,3 L3,3 L3,9 L1,9 Z " fill="#C6C6C6" transform="translate(5,7)"/>
<path d="M0,0 L4,0 L3,8 L2,8 L2,2 L-6,2 L-6,1 Z " fill="#F6F6F6" transform="translate(15,8)"/>
</svg>
