<?xml version="1.0" encoding="UTF-8"?>
<svg version="1.1" xmlns="http://www.w3.org/2000/svg" width="28" height="28">
<path d="M0,0 L28,0 L28,28 L0,28 Z " fill="#010101" transform="translate(0,0)"/>
<path d="M0,0 L2,1 L-4,10 L-8,19 L-11,20 L-8,11 L-4,3 L-11,3 L-10,1 Z " fill="#EBEBEB" transform="translate(20,6)"/>
<path d="M0,0 L2,1 L-2,5 L-4,5 L-4,3 L-11,3 L-10,1 Z " fill="#C5C5C5" transform="translate(20,6)"/>
<path d="M0,0 L1,4 L-2,8 L-4,8 L-2,2 Z " fill="#D3D3D3" transform="translate(13,18)"/>
</svg>
