<?xml version="1.0" encoding="UTF-8"?>
<svg version="1.1" xmlns="http://www.w3.org/2000/svg" width="28" height="28">
<path d="M0,0 L28,0 L28,28 L0,28 Z " fill="#020202" transform="translate(0,0)"/>
<path d="M0,0 L12,0 L10,7 L5,17 L4,20 L2,20 L3,14 L8,3 L1,4 L-4,9 L-3,4 Z " fill="#A7A7A7" transform="translate(10,8)"/>
<path d="M0,0 L1,3 L-4,15 L-6,15 L-5,9 Z " fill="#DCDCDC" transform="translate(18,13)"/>
<path d="M0,0 L10,0 L10,1 L2,3 L-3,8 L-2,3 Z " fill="#E2E2E2" transform="translate(9,9)"/>
</svg>
