<?xml version="1.0" encoding="UTF-8"?>
<svg version="1.1" xmlns="http://www.w3.org/2000/svg" width="28" height="28">
<path d="M0,0 L28,0 L28,28 L0,28 Z " fill="#020202" transform="translate(0,0)"/>
<path d="M0,0 L7,1 L6,9 L4,16 L5,19 L1,21 L-14,21 L-14,4 L-13,1 Z " fill="#030303" transform="translate(14,7)"/>
<path d="M0,0 L7,1 L6,9 L4,16 L5,19 L2,20 L0,19 L0,11 L2,9 L3,4 L-1,5 L-12,5 L-13,1 Z " fill="#E3E3E3" transform="translate(14,7)"/>
<path d="M0,0 L10,0 L10,1 L5,2 L4,4 L0,3 Z " fill="#ADADAD" transform="translate(1,8)"/>
<path d="M0,0 L2,1 L1,3 L-6,4 L-5,1 Z " fill="#F9F9F9" transform="translate(11,8)"/>
</svg>
