<?xml version="1.0" encoding="UTF-8"?>
<svg version="1.1" xmlns="http://www.w3.org/2000/svg" width="28" height="28">
<path d="M0,0 L28,0 L28,28 L0,28 Z " fill="#030303" transform="translate(0,0)"/>
<path d="M0,0 L10,0 L11,4 L8,13 L8,20 L6,20 L5,18 L5,11 L7,3 L2,3 L2,6 L-1,5 Z " fill="#BABABA" transform="translate(9,7)"/>
<path d="M0,0 L1,0 L1,12 L-1,12 L-2,10 L-2,3 Z " fill="#F8F8F8" transform="translate(16,15)"/>
<path d="M0,0 L6,0 L7,4 L6,6 L4,6 L4,2 L-2,2 Z " fill="#EFEFEF" transform="translate(13,7)"/>
</svg>
