<?xml version="1.0" encoding="UTF-8"?>
<svg version="1.1" xmlns="http://www.w3.org/2000/svg" width="28" height="28">
<path d="M0,0 L28,0 L28,28 L0,28 Z " fill="#010101" transform="translate(0,0)"/>
<path d="M0,0 L6,0 L7,1 L7,11 L5,20 L2,19 L3,13 L4,4 L-3,4 L-3,1 Z " fill="#DBDBDB" transform="translate(11,7)"/>
<path d="M0,0 L6,0 L7,4 L5,4 L4,8 L4,4 L-3,4 L-3,1 Z " fill="#CBCBCB" transform="translate(11,7)"/>
<path d="M0,0 L2,0 L2,7 L-1,10 Z " fill="#F5F5F5" transform="translate(16,11)"/>
</svg>
