<?xml version="1.0" encoding="UTF-8"?>
<svg version="1.1" xmlns="http://www.w3.org/2000/svg" width="28" height="28">
<path d="M0,0 L28,0 L28,28 L0,28 Z " fill="#020202" transform="translate(0,0)"/>
<path d="M0,0 L11,0 L10,10 L7,20 L5,20 L6,13 L8,2 L-3,4 L-8,9 L-7,5 L-3,1 Z " fill="#CBCBCB" transform="translate(10,7)"/>
<path d="M0,0 L1,4 L-2,14 L-4,14 L-3,7 Z " fill="#EAEAEA" transform="translate(19,13)"/>
<path d="M0,0 L4,1 L0,3 L-5,8 L-4,4 Z " fill="#ABABAB" transform="translate(7,8)"/>
</svg>
