<?xml version="1.0" encoding="UTF-8"?>
<svg version="1.1" xmlns="http://www.w3.org/2000/svg" width="28" height="28">
<path d="M0,0 L28,0 L28,28 L0,28 Z " fill="#010101" transform="translate(0,0)"/>
<path d="M0,0 L15,0 L14,7 L13,14 L14,20 L11,20 L10,17 L10,9 L11,4 L3,3 L0,2 Z " fill="#CFCFCF" transform="translate(4,7)"/>
<path d="M0,0 L2,4 L3,10 L0,10 L-1,1 Z " fill="#E1E1E1" transform="translate(15,17)"/>
<path d="M0,0 L12,1 L12,2 L3,3 L0,2 Z " fill="#B9B9B9" transform="translate(4,7)"/>
</svg>
