<?xml version="1.0" encoding="UTF-8"?>
<svg version="1.1" xmlns="http://www.w3.org/2000/svg" width="28" height="28">
<path d="M0,0 L28,0 L28,28 L0,28 Z " fill="#020202" transform="translate(0,0)"/>
<path d="M0,0 L13,0 L14,4 L8,16 L7,20 L4,20 L6,14 L10,6 L12,2 L8,3 L0,3 Z " fill="#EDEDED" transform="translate(7,8)"/>
<path d="M0,0 L13,0 L13,1 L8,2 L8,3 L0,3 Z " fill="#BEBEBE" transform="translate(7,8)"/>
<path d="M0,0 L2,4 L-1,11 L-4,11 L-2,5 Z " fill="#C3C3C3" transform="translate(15,17)"/>
</svg>
