<?xml version="1.0" encoding="UTF-8"?>
<svg version="1.1" xmlns="http://www.w3.org/2000/svg" width="28" height="28">
<path d="M0,0 L28,0 L28,28 L0,28 Z " fill="#020202" transform="translate(0,0)"/>
<path d="M0,0 L12,0 L13,1 L13,9 L11,18 L10,20 L8,20 L7,17 L10,3 L2,4 L1,7 L-1,7 Z " fill="#E7E7E7" transform="translate(7,7)"/>
<path d="M0,0 L1,0 L1,8 L-1,17 L-2,19 L-4,19 L-5,16 L-2,2 Z " fill="#A5A5A5" transform="translate(19,8)"/>
<path d="M0,0 L2,3 L2,9 L-1,10 L-2,7 Z " fill="#E6E6E6" transform="translate(16,17)"/>
</svg>
