<?xml version="1.0" encoding="UTF-8"?>
<svg version="1.1" xmlns="http://www.w3.org/2000/svg" width="28" height="28">
<path d="M0,0 L28,0 L28,28 L0,28 Z " fill="#030303" transform="translate(0,0)"/>
<path d="M0,0 L14,0 L15,3 L12,7 L9,7 L9,4 L0,5 L-1,1 Z " fill="#DADADA" transform="translate(8,8)"/>
<path d="M0,0 L3,1 L-2,9 L-4,9 L-4,12 L-7,11 L-4,5 Z " fill="#CFCFCF" transform="translate(15,16)"/>
<path d="M0,0 L1,2 L0,4 L-2,4 L-2,7 L-5,6 L-3,2 Z " fill="#EFEFEF" transform="translate(13,21)"/>
</svg>
