<?xml version="1.0" encoding="UTF-8"?>
<svg version="1.1" xmlns="http://www.w3.org/2000/svg" width="28" height="28">
<path d="M0,0 L28,0 L28,28 L0,28 Z " fill="#020202" transform="translate(0,0)"/>
<path d="M0,0 L1,3 L-2,10 L0,11 L-4,12 L-5,18 L-7,20 L-6,12 L-9,13 L-9,10 L-4,9 L-4,7 L-13,7 L-13,4 L-2,2 Z " fill="#D9D9D9" transform="translate(20,6)"/>
<path d="M0,0 L1,3 L-2,10 L-3,6 L-8,6 L-9,4 L-1,1 Z " fill="#EFEFEF" transform="translate(20,6)"/>
<path d="M0,0 L5,1 L10,2 L9,4 L0,3 Z " fill="#B8B8B8" transform="translate(7,10)"/>
</svg>
