<?xml version="1.0" encoding="UTF-8"?>
<svg version="1.1" xmlns="http://www.w3.org/2000/svg" width="28" height="28">
<path d="M0,0 L28,0 L28,28 L0,28 Z " fill="#020202" transform="translate(0,0)"/>
<path d="M0,0 L16,0 L14,5 L6,16 L3,15 L11,4 L0,3 L-2,9 L-4,8 L-3,3 Z " fill="#E7E7E7" transform="translate(8,9)"/>
<path d="M0,0 L13,1 L13,2 L1,2 L-1,8 L-3,7 L-2,2 Z " fill="#B7B7B7" transform="translate(7,10)"/>
<path d="M0,0 L12,0 L10,4 L9,1 L0,1 Z " fill="#AEAEAE" transform="translate(12,9)"/>
</svg>
