<?xml version="1.0" encoding="UTF-8"?>
<svg version="1.1" xmlns="http://www.w3.org/2000/svg" width="28" height="28">
<path d="M0,0 L28,0 L28,28 L0,28 Z " fill="#020202" transform="translate(0,0)"/>
<path d="M0,0 L14,1 L15,3 L4,17 L2,20 L-1,20 L0,17 L2,17 L4,12 L11,3 L1,3 Z " fill="#D3D3D3" transform="translate(8,7)"/>
<path d="M0,0 L14,1 L14,4 L12,4 L12,2 L1,3 Z " fill="#E8E8E8" transform="translate(8,7)"/>
<path d="M0,0 L8,0 L8,2 L10,3 L7,6 L4,5 L7,1 L0,1 Z " fill="#B9B9B9" transform="translate(12,9)"/>
</svg>
