<?xml version="1.0" encoding="UTF-8"?>
<svg version="1.1" xmlns="http://www.w3.org/2000/svg" width="28" height="28">
<path d="M0,0 L28,0 L28,28 L0,28 Z " fill="#030303" transform="translate(0,0)"/>
<path d="M0,0 L12,0 L14,1 L13,6 L8,16 L8,20 L4,19 L5,14 L10,2 L2,3 L0,2 Z " fill="#E4E4E4" transform="translate(7,6)"/>
<path d="M0,0 L1,3 L-2,9 L-2,13 L-6,12 L-5,7 L-2,1 Z " fill="#ECECEC" transform="translate(17,13)"/>
<path d="M0,0 L12,0 L12,1 L7,1 L7,3 L0,2 Z " fill="#B7B7B7" transform="translate(7,6)"/>
</svg>
