<?xml version="1.0" encoding="UTF-8"?>
<svg version="1.1" xmlns="http://www.w3.org/2000/svg" width="28" height="28">
<path d="M0,0 L28,0 L28,28 L0,28 Z " fill="#030303" transform="translate(0,0)"/>
<path d="M0,0 L8,0 L8,4 L1,15 L-2,20 L-4,20 L-3,16 L1,8 L4,2 L-2,5 L-4,7 L-7,7 L-5,3 Z " fill="#E2E2E2" transform="translate(14,7)"/>
<path d="M0,0 L1,2 L-3,9 L-5,9 L-4,5 L-2,1 Z " fill="#ECECEC" transform="translate(15,18)"/>
<path d="M0,0 L6,0 L6,4 L2,5 L3,1 Z " fill="#BCBCBC" transform="translate(16,7)"/>
</svg>
