<?xml version="1.0" encoding="UTF-8"?>
<svg version="1.1" xmlns="http://www.w3.org/2000/svg" width="28" height="28">
<path d="M0,0 L28,0 L28,28 L0,28 Z " fill="#030303" transform="translate(0,0)"/>
<path d="M0,0 L4,0 L3,8 L0,14 L-2,20 L-5,19 L-4,13 L-1,5 L-7,4 L-7,10 L-10,10 L-11,3 L-13,3 L-13,1 Z " fill="#DFDFDF" transform="translate(18,7)"/>
<path d="M0,0 L1,4 L-2,14 L-6,14 L-5,8 L-2,2 Z " fill="#EDEDED" transform="translate(19,12)"/>
<path d="M0,0 L4,0 L3,8 L1,6 L-1,7 L-1,5 L-5,3 L0,3 Z " fill="#C7C7C7" transform="translate(18,7)"/>
</svg>
