<?xml version="1.0" encoding="UTF-8"?>
<svg version="1.1" xmlns="http://www.w3.org/2000/svg" width="28" height="28">
<path d="M0,0 L28,0 L28,28 L0,28 Z " fill="#030303" transform="translate(0,0)"/>
<path d="M0,0 L2,0 L1,8 L-2,20 L-5,19 L-4,9 L-2,4 L-11,4 L-14,8 L-16,8 L-15,3 L-12,1 Z " fill="#D8D8D8" transform="translate(19,7)"/>
<path d="M0,0 L11,1 L11,2 L1,3 L-2,7 L-4,7 L-3,2 Z " fill="#CACACA" transform="translate(7,8)"/>
<path d="M0,0 L2,0 L1,5 L-1,4 L-1,2 L-9,2 L-9,1 Z " fill="#F6F6F6" transform="translate(19,7)"/>
</svg>
