<?xml version="1.0" encoding="UTF-8"?>
<svg version="1.1" xmlns="http://www.w3.org/2000/svg" width="28" height="28">
<path d="M0,0 L28,0 L28,28 L0,28 Z " fill="#030303" transform="translate(0,0)"/>
<path d="M0,0 L2,0 L1,9 L-1,18 L-4,20 L-3,11 L0,2 L-9,4 L-9,7 L-11,7 L-10,2 L-9,1 Z " fill="#D9D9D9" transform="translate(17,7)"/>
<path d="M0,0 L1,4 L-1,11 L-3,12 L-2,3 Z " fill="#EFEFEF" transform="translate(16,15)"/>
<path d="M0,0 L2,0 L1,9 L-2,9 L-1,4 Z " fill="#C1C1C1" transform="translate(17,7)"/>
</svg>
