<?xml version="1.0" encoding="UTF-8"?>
<svg version="1.1" xmlns="http://www.w3.org/2000/svg" width="28" height="28">
<path d="M0,0 L28,0 L28,28 L0,28 Z " fill="#030303" transform="translate(0,0)"/>
<path d="M0,0 L12,0 L13,3 L9,13 L8,16 L10,17 L6,20 L6,12 L10,2 L-3,4 L-4,8 L-6,8 L-6,2 Z " fill="#E4E4E4" transform="translate(10,7)"/>
<path d="M0,0 L10,0 L10,1 L0,3 L-1,7 L-3,7 L-3,1 Z " fill="#E7E7E7" transform="translate(7,8)"/>
<path d="M0,0 L12,0 L13,3 L11,6 L10,3 L0,1 Z " fill="#AEAEAE" transform="translate(10,7)"/>
</svg>
