<?xml version="1.0" encoding="UTF-8"?>
<svg version="1.1" xmlns="http://www.w3.org/2000/svg" width="28" height="28">
<path d="M0,0 L28,0 L28,28 L0,28 Z " fill="#020202" transform="translate(0,0)"/>
<path d="M0,0 L5,0 L5,2 L13,2 L11,7 L6,12 L4,15 L2,15 L0,19 L-4,20 L-2,15 L6,7 L8,7 L8,5 L-1,5 Z " fill="#D3D3D3" transform="translate(10,6)"/>
<path d="M0,0 L4,0 L2,5 L-3,7 L-3,5 L0,2 L-6,2 L-6,1 Z " fill="#F0F0F0" transform="translate(19,8)"/>
<path d="M0,0 L1,2 L-3,7 L-6,7 L-5,4 Z " fill="#E9E9E9" transform="translate(12,19)"/>
</svg>
