<?xml version="1.0" encoding="UTF-8"?>
<svg version="1.1" xmlns="http://www.w3.org/2000/svg" width="28" height="28">
<path d="M0,0 L28,0 L28,28 L0,28 Z " fill="#020202" transform="translate(0,0)"/>
<path d="M0,0 L13,2 L13,6 L8,18 L7,20 L5,20 L5,15 L8,10 L9,5 L1,4 L0,6 L-2,6 L-1,1 Z " fill="#EBEBEB" transform="translate(8,7)"/>
<path d="M0,0 L13,2 L10,4 L9,6 L1,4 L0,6 L-2,6 L-1,1 Z " fill="#E2E2E2" transform="translate(8,7)"/>
<path d="M0,0 L7,0 L4,2 L3,4 L-3,2 Z " fill="#BFBFBF" transform="translate(14,9)"/>
</svg>
