<?xml version="1.0" encoding="UTF-8"?>
<svg version="1.1" xmlns="http://www.w3.org/2000/svg" width="28" height="28">
<path d="M0,0 L28,0 L28,28 L0,28 Z " fill="#020202" transform="translate(0,0)"/>
<path d="M0,0 L4,1 L16,1 L16,3 L14,3 L12,19 L8,20 L9,9 L11,5 L2,4 L0,3 Z " fill="#E1E1E1" transform="translate(5,6)"/>
<path d="M0,0 L12,3 L12,4 L2,4 L0,3 Z " fill="#EFEFEF" transform="translate(5,6)"/>
<path d="M0,0 L3,0 L3,2 L1,2 L1,4 L-8,4 L-6,1 Z " fill="#C0C0C0" transform="translate(18,7)"/>
</svg>
