<?xml version="1.0" encoding="UTF-8"?>
<svg version="1.1" xmlns="http://www.w3.org/2000/svg" width="28" height="28">
<path d="M0,0 L28,0 L28,28 L0,28 Z " fill="#030303" transform="translate(0,0)"/>
<path d="M0,0 L7,1 L14,3 L16,20 L13,20 L12,17 L5,15 L6,12 L11,12 L11,4 L5,4 L4,8 L1,7 Z " fill="#DADADA" transform="translate(6,6)"/>
<path d="M0,0 L2,3 L4,15 L1,15 L0,12 L-7,10 L-7,8 L0,8 Z " fill="#F5F5F5" transform="translate(18,11)"/>
<path d="M0,0 L4,1 L4,6 L3,6 L2,11 L-4,11 L-4,10 L1,10 L1,2 L-2,1 Z " fill="#B3B3B3" transform="translate(16,8)"/>
</svg>
