<?xml version="1.0" encoding="UTF-8"?>
<svg version="1.1" xmlns="http://www.w3.org/2000/svg" width="28" height="28">
<path d="M0,0 L28,0 L28,28 L0,28 Z " fill="#020202" transform="translate(0,0)"/>
<path d="M0,0 L6,0 L6,3 L3,6 L1,6 L-1,11 L-4,20 L-7,18 L-5,12 L2,3 L-4,4 L-3,7 L-8,6 L-8,2 Z " fill="#D9D9D9" transform="translate(17,7)"/>
<path d="M0,0 L3,1 L-2,6 L-5,2 Z " fill="#323232" transform="translate(17,9)"/>
<path d="M0,0 L4,0 L5,5 L0,4 Z " fill="#E8E8E8" transform="translate(9,9)"/>
</svg>
