<?xml version="1.0" encoding="UTF-8"?>
<svg version="1.1" xmlns="http://www.w3.org/2000/svg" width="28" height="28">
<path d="M0,0 L28,0 L28,28 L0,28 Z " fill="#000000" transform="translate(0,0)"/>
<path d="M0,0 L3,0 L2,7 L1,16 L2,18 L-15,18 L-15,2 L-4,1 Z " fill="#000000" transform="translate(15,10)"/>
<path d="M0,0 L5,0 L4,10 L2,16 L4,17 L2,20 L-1,19 L0,10 L2,3 L-11,6 L-15,5 L-15,3 Z " fill="#DDDDDD" transform="translate(16,7)"/>
<path d="M0,0 L5,0 L5,3 L-4,4 L-5,1 Z " fill="#C7C7C7" transform="translate(6,9)"/>
</svg>
