<?xml version="1.0" encoding="UTF-8"?>
<svg version="1.1" xmlns="http://www.w3.org/2000/svg" width="28" height="28">
<path d="M0,0 L28,0 L28,28 L0,28 Z " fill="#020202" transform="translate(0,0)"/>
<path d="M0,0 L17,0 L17,4 L10,16 L9,20 L6,20 L8,14 L14,3 L3,3 L3,6 L-1,5 L-1,1 Z " fill="#E1E1E1" transform="translate(6,8)"/>
<path d="M0,0 L10,0 L10,3 L3,3 L3,6 L-1,5 L-1,1 Z " fill="#C9C9C9" transform="translate(6,8)"/>
<path d="M0,0 L7,0 L7,4 L5,5 L5,2 L-1,2 Z " fill="#F7F7F7" transform="translate(16,8)"/>
</svg>
