<?xml version="1.0" encoding="UTF-8"?>
<svg version="1.1" xmlns="http://www.w3.org/2000/svg" width="28" height="28">
<path d="M0,0 L28,0 L28,28 L0,28 Z " fill="#030303" transform="translate(0,0)"/>
<path d="M0,0 L2,0 L1,4 L-2,9 L0,10 L0,12 L-5,12 L-6,16 L-5,20 L-9,20 L-9,13 L-8,11 L-16,11 L-16,9 L-6,8 L-4,5 L-8,6 L-15,6 L-15,3 L-1,1 Z " fill="#F0F0F0" transform="translate(21,6)"/>
<path d="M0,0 L3,1 L1,4 L-10,4 L-10,1 Z " fill="#D2D2D2" transform="translate(16,8)"/>
<path d="M0,0 L1,4 L2,8 L-2,8 L-2,1 Z " fill="#D6D6D6" transform="translate(14,18)"/>
</svg>
