<?xml version="1.0" encoding="UTF-8"?>
<svg version="1.1" xmlns="http://www.w3.org/2000/svg" width="28" height="28">
<path d="M0,0 L28,0 L28,28 L0,28 Z " fill="#050505" transform="translate(0,0)"/>
<path d="M0,0 L3,1 L2,7 L-3,10 L-4,13 L-9,13 L-7,8 L-3,4 L-3,2 Z " fill="#E8E8E8" transform="translate(22,7)"/>
<path d="M0,0 L4,1 L7,1 L5,5 L-4,6 L-5,1 Z " fill="#E4E4E4" transform="translate(11,7)"/>
<path d="M0,0 L1,2 L3,3 L1,4 L0,7 L-5,7 L-3,2 Z " fill="#CACACA" transform="translate(18,13)"/>
<path d="M0,0 L1,4 L-2,3 L-1,6 L-5,7 L-6,3 Z " fill="#D5D5D5" transform="translate(11,20)"/>
</svg>
