<?xml version="1.0" encoding="UTF-8"?>
<svg version="1.1" xmlns="http://www.w3.org/2000/svg" width="28" height="28">
<path d="M0,0 L28,0 L28,28 L0,28 Z " fill="#050505" transform="translate(0,0)"/>
<path d="M0,0 L3,1 L3,3 L0,4 L-3,9 L-10,17 L-13,19 L-16,19 L-15,15 L-13,15 L-11,11 L-7,6 L-3,5 L-3,3 Z " fill="#E3E3E3" transform="translate(23,7)"/>
<path d="M0,0 L4,1 L3,4 L-2,6 L-5,6 L-5,2 Z " fill="#EAEAEA" transform="translate(14,6)"/>
<path d="M0,0 L3,1 L3,3 L0,4 L-2,8 L-3,6 L-5,5 L-3,5 L-3,3 Z " fill="#BDBDBD" transform="translate(23,7)"/>
</svg>
