<?xml version="1.0" encoding="UTF-8"?>
<svg version="1.1" xmlns="http://www.w3.org/2000/svg" width="28" height="28">
<path d="M0,0 L28,0 L28,28 L0,28 Z " fill="#030303" transform="translate(0,0)"/>
<path d="M0,0 L12,0 L9,9 L15,9 L15,10 L8,11 L4,20 L3,16 L5,11 L1,11 L1,9 L7,9 L8,2 L0,2 Z " fill="#C5C5C5" transform="translate(8,7)"/>
<path d="M0,0 L5,0 L6,4 L3,10 L2,6 L4,1 Z " fill="#AFAFAF" transform="translate(9,17)"/>
<path d="M0,0 L8,1 L8,2 L1,3 L-1,4 L-1,2 L-6,2 L-6,1 Z " fill="#F3F3F3" transform="translate(15,15)"/>
</svg>
