<?xml version="1.0" encoding="UTF-8"?>
<svg version="1.1" xmlns="http://www.w3.org/2000/svg" width="28" height="28">
<path d="M0,0 L28,0 L28,28 L0,28 Z " fill="#020202" transform="translate(0,0)"/>
<path d="M0,0 L10,1 L19,4 L16,13 L12,20 L10,20 L11,15 L16,5 L6,4 L0,2 Z " fill="#F1F1F1" transform="translate(3,7)"/>
<path d="M0,0 L10,1 L16,3 L16,5 L6,4 L0,2 Z " fill="#CECECE" transform="translate(3,7)"/>
<path d="M0,0 L2,1 L1,6 L-1,9 L-3,9 L-2,4 Z " fill="#DADADA" transform="translate(16,18)"/>
</svg>
