<?xml version="1.0" encoding="UTF-8"?>
<svg version="1.1" xmlns="http://www.w3.org/2000/svg" width="28" height="28">
<path d="M0,0 L28,0 L28,28 L0,28 Z " fill="#030303" transform="translate(0,0)"/>
<path d="M0,0 L18,1 L15,10 L14,16 L15,18 L0,18 Z " fill="#030303" transform="translate(0,10)"/>
<path d="M0,0 L15,0 L15,8 L12,15 L11,20 L8,18 L9,12 L12,4 L-3,3 L-3,1 Z " fill="#EBEBEB" transform="translate(5,8)"/>
<path d="M0,0 L8,0 L8,1 L13,2 L13,3 L-3,3 L-3,1 Z " fill="#CBCBCB" transform="translate(5,8)"/>
</svg>
