<?xml version="1.0" encoding="UTF-8"?>
<svg version="1.1" xmlns="http://www.w3.org/2000/svg" width="28" height="28">
<path d="M0,0 L28,0 L28,28 L0,28 Z " fill="#020202" transform="translate(0,0)"/>
<path d="M0,0 L6,1 L12,2 L12,7 L6,15 L3,20 L0,20 L2,15 L8,7 L9,5 L3,4 L3,9 L0,9 Z " fill="#CCCCCC" transform="translate(9,7)"/>
<path d="M0,0 L5,3 L2,4 L-1,3 L-1,8 L-2,8 L-2,2 Z " fill="#FAFAFA" transform="translate(12,7)"/>
<path d="M0,0 L0,3 L-3,8 L-6,8 L-4,3 Z " fill="#EFEFEF" transform="translate(15,19)"/>
</svg>
