<?xml version="1.0" encoding="UTF-8"?>
<svg version="1.1" xmlns="http://www.w3.org/2000/svg" width="28" height="28">
<path d="M0,0 L28,0 L28,28 L0,28 Z " fill="#010101" transform="translate(0,0)"/>
<path d="M0,0 L5,1 L11,6 L12,12 L9,18 L3,20 L4,18 L6,18 L8,14 L8,8 L3,3 Z " fill="#B6B6B6" transform="translate(7,5)"/>
<path d="M0,0 L1,0 L1,6 L-3,10 L-7,11 L-6,9 L-4,9 L-2,5 Z " fill="#E0E0E0" transform="translate(17,14)"/>
<path d="M0,0 L5,1 L9,5 L6,5 L0,1 Z " fill="#CFCFCF" transform="translate(7,5)"/>
</svg>
