<?xml version="1.0" encoding="UTF-8"?>
<svg version="1.1" xmlns="http://www.w3.org/2000/svg" width="28" height="28">
<path d="M0,0 L28,0 L28,28 L0,28 Z " fill="#020202" transform="translate(0,0)"/>
<path d="M0,0 L7,0 L6,10 L8,12 L3,13 L3,19 L-1,20 L0,13 L-2,13 L-2,10 L3,9 L4,2 L-4,4 L-3,1 Z " fill="#CDCDCD" transform="translate(12,6)"/>
<path d="M0,0 L2,1 L4,3 L5,9 L1,10 L2,3 L0,3 Z " fill="#B8B8B8" transform="translate(10,16)"/>
<path d="M0,0 L1,3 L5,5 L-2,6 L-4,4 L0,2 Z " fill="#EFEFEF" transform="translate(15,13)"/>
</svg>
