<?xml version="1.0" encoding="UTF-8"?>
<svg version="1.1" xmlns="http://www.w3.org/2000/svg" width="28" height="28">
<path d="M0,0 L28,0 L28,28 L0,28 Z " fill="#030303" transform="translate(0,0)"/>
<path d="M0,0 L5,1 L4,4 L-3,10 L-10,19 L-13,20 L-11,15 L-3,5 L-8,4 L-8,1 Z " fill="#C0C0C0" transform="translate(18,7)"/>
<path d="M0,0 L5,1 L4,4 L-1,7 L-1,4 L-8,3 L-8,1 Z " fill="#E5E5E5" transform="translate(18,7)"/>
<path d="M0,0 L0,3 L-4,8 L-7,9 L-5,4 Z " fill="#E2E2E2" transform="translate(12,18)"/>
</svg>
