<?xml version="1.0" encoding="UTF-8"?>
<svg version="1.1" xmlns="http://www.w3.org/2000/svg" width="28" height="28">
<path d="M0,0 L28,0 L28,28 L0,28 Z " fill="#020202" transform="translate(0,0)"/>
<path d="M0,0 L2,0 L2,2 L9,0 L8,4 L5,8 L9,10 L3,12 L1,18 L3,19 L-1,19 L0,13 L-2,13 L-2,11 L1,11 L3,6 L4,4 L0,4 Z " fill="#DDDDDD" transform="translate(11,6)"/>
<path d="M0,0 L1,2 L3,3 L1,4 L-1,10 L1,11 L-3,11 L-2,5 L-4,5 L-4,3 L-1,3 Z " fill="#E2E2E2" transform="translate(13,14)"/>
<path d="M0,0 L2,3 L1,5 L5,7 L1,8 L-2,5 Z " fill="#B0B0B0" transform="translate(15,9)"/>
</svg>
