<?xml version="1.0" encoding="UTF-8"?>
<svg version="1.1" xmlns="http://www.w3.org/2000/svg" width="28" height="28">
<path d="M0,0 L28,0 L28,28 L0,28 Z " fill="#050505" transform="translate(0,0)"/>
<path d="M0,0 L5,0 L6,1 L6,7 L-4,20 L-5,16 L-1,10 L3,3 L-7,3 L-7,8 L-10,7 L-9,2 L-8,1 Z " fill="#EDEDED" transform="translate(16,7)"/>
<path d="M0,0 L4,1 L4,7 L-1,8 L1,3 L-1,2 Z " fill="#D0D0D0" transform="translate(18,7)"/>
<path d="M0,0 L2,1 L1,7 L-2,6 L-1,1 Z " fill="#E0E0E0" transform="translate(8,8)"/>
</svg>
