<?xml version="1.0" encoding="UTF-8"?>
<svg version="1.1" xmlns="http://www.w3.org/2000/svg" width="28" height="28">
<path d="M0,0 L28,0 L28,28 L0,28 Z " fill="#030303" transform="translate(0,0)"/>
<path d="M0,0 L7,0 L5,4 L-5,15 L-5,18 L-10,20 L-9,15 L2,3 L-9,4 L-10,7 L-11,2 L-9,1 Z " fill="#E9E9E9" transform="translate(18,7)"/>
<path d="M0,0 L4,1 L-1,7 L-8,5 L-8,2 Z " fill="#1D1D1D" transform="translate(17,9)"/>
<path d="M0,0 L7,0 L8,2 L0,3 L-1,6 L-2,1 Z " fill="#C5C5C5" transform="translate(9,8)"/>
</svg>
