<?xml version="1.0" encoding="UTF-8"?>
<svg version="1.1" xmlns="http://www.w3.org/2000/svg" width="28" height="28">
<path d="M0,0 L28,0 L28,28 L0,28 Z " fill="#030303" transform="translate(0,0)"/>
<path d="M0,0 L4,0 L2,5 L3,8 L-4,10 L-6,14 L-9,19 L-12,18 L-9,13 L-7,10 L-10,10 L-10,8 L-2,5 L-2,1 Z " fill="#DCDCDC" transform="translate(20,8)"/>
<path d="M0,0 L8,1 L7,4 L-3,4 L-2,1 Z " fill="#CFCFCF" transform="translate(9,7)"/>
<path d="M0,0 L3,1 L0,6 L-3,5 Z " fill="#CECECE" transform="translate(11,21)"/>
</svg>
