<?xml version="1.0" encoding="UTF-8"?>
<svg version="1.1" xmlns="http://www.w3.org/2000/svg" width="28" height="28">
<path d="M0,0 L28,0 L28,28 L0,28 Z " fill="#050505" transform="translate(0,0)"/>
<path d="M0,0 L7,0 L8,3 L1,13 L-3,20 L-5,20 L-4,15 L4,4 L-2,4 L-6,5 L-4,1 Z " fill="#E0E0E0" transform="translate(13,7)"/>
<path d="M0,0 L10,0 L10,1 L1,4 L-2,4 Z " fill="#F1F1F1" transform="translate(9,8)"/>
<path d="M0,0 L7,0 L8,3 L6,5 L1,3 Z " fill="#A4A4A4" transform="translate(13,7)"/>
<path d="M0,0 L2,0 L1,5 L0,7 L-2,7 L-1,2 Z " fill="#C8C8C8" transform="translate(10,20)"/>
</svg>
