<?xml version="1.0" encoding="UTF-8"?>
<svg version="1.1" xmlns="http://www.w3.org/2000/svg" width="28" height="28">
<path d="M0,0 L28,0 L28,28 L0,28 Z " fill="#030303" transform="translate(0,0)"/>
<path d="M0,0 L4,0 L3,5 L0,9 L4,11 L-5,15 L-9,20 L-11,20 L-10,16 L-12,12 L-4,9 L0,4 L-10,5 L-14,7 L-14,3 L-10,1 Z " fill="#DCDCDC" transform="translate(19,6)"/>
<path d="M0,0 L7,0 L6,2 L-2,5 L-2,1 Z " fill="#EAEAEA" transform="translate(7,8)"/>
<path d="M0,0 L5,1 L2,6 L0,6 L1,2 Z " fill="#CCCCCC" transform="translate(8,20)"/>
</svg>
