<?xml version="1.0" encoding="UTF-8"?>
<svg version="1.1" xmlns="http://www.w3.org/2000/svg" width="28" height="28">
<path d="M0,0 L28,0 L28,28 L0,28 Z " fill="#020202" transform="translate(0,0)"/>
<path d="M0,0 L14,1 L13,5 L10,8 L9,10 L7,10 L5,15 L1,20 L-1,20 L0,16 L4,11 L-3,9 L-3,7 L8,6 L10,3 L1,4 L-3,5 L-1,1 Z " fill="#DADADA" transform="translate(10,7)"/>
<path d="M0,0 L7,0 L8,3 L1,3 Z " fill="#E7E7E7" transform="translate(7,14)"/>
<path d="M0,0 L9,1 L8,3 L6,2 L5,4 L-1,3 Z " fill="#9D9D9D" transform="translate(15,7)"/>
<path d="M0,0 L2,3 L-2,8 L-4,8 L-3,4 Z " fill="#C3C3C3" transform="translate(13,19)"/>
</svg>
