<?xml version="1.0" encoding="UTF-8"?>
<svg version="1.1" xmlns="http://www.w3.org/2000/svg" width="28" height="28">
<path d="M0,0 L28,0 L28,28 L0,28 Z " fill="#020202" transform="translate(0,0)"/>
<path d="M0,0 L5,0 L4,9 L3,18 L5,18 L5,20 L2,20 L0,16 L1,8 L3,2 L-8,5 L-12,6 L-11,3 L-6,1 Z " fill="#D4D4D4" transform="translate(15,7)"/>
<path d="M0,0 L7,1 L7,2 L-2,4 L-6,5 L-5,2 Z " fill="#BBBBBB" transform="translate(9,8)"/>
<path d="M0,0 L5,0 L5,5 L2,8 L3,2 L-2,2 Z " fill="#F2F2F2" transform="translate(15,7)"/>
</svg>
