<?xml version="1.0" encoding="UTF-8"?>
<svg version="1.1" xmlns="http://www.w3.org/2000/svg" width="28" height="28">
<path d="M0,0 L28,0 L28,28 L0,28 Z " fill="#020202" transform="translate(0,0)"/>
<path d="M0,0 L9,0 L12,2 L12,8 L9,14 L5,20 L2,20 L3,16 L8,7 L9,3 L0,3 Z " fill="#DBDBDB" transform="translate(8,6)"/>
<path d="M0,0 L9,0 L11,2 L9,6 L9,3 L0,3 Z " fill="#C4C4C4" transform="translate(8,6)"/>
<path d="M0,0 L2,0 L2,6 L0,9 L-2,9 L-1,4 Z " fill="#F1F1F1" transform="translate(18,8)"/>
</svg>
