<?xml version="1.0" encoding="UTF-8"?>
<svg version="1.1" xmlns="http://www.w3.org/2000/svg" width="28" height="28">
<path d="M0,0 L28,0 L28,28 L0,28 Z " fill="#040404" transform="translate(0,0)"/>
<path d="M0,0 L2,0 L3,2 L8,1 L8,3 L0,7 L-2,14 L-5,14 L-3,9 L-2,6 L-8,6 L-8,4 L-1,3 Z " fill="#E6E6E6" transform="translate(15,12)"/>
<path d="M0,0 L4,0 L3,5 L1,4 L2,2 L-3,4 L-8,4 L-8,1 Z " fill="#DEDEDE" transform="translate(17,6)"/>
<path d="M0,0 L2,0 L3,2 L8,1 L8,3 L3,5 L1,4 Z " fill="#B4B4B4" transform="translate(15,12)"/>
</svg>
