<?xml version="1.0" encoding="UTF-8"?>
<svg version="1.1" xmlns="http://www.w3.org/2000/svg" width="28" height="28">
<path d="M0,0 L28,0 L28,28 L0,28 Z " fill="#030303" transform="translate(0,0)"/>
<path d="M0,0 L5,0 L4,6 L2,12 L-1,20 L-3,20 L-2,14 L-4,13 L-1,12 L1,3 L-7,6 L-10,6 L-10,4 Z " fill="#E8E8E8" transform="translate(15,7)"/>
<path d="M0,0 L5,0 L4,6 L1,4 L-5,5 L-10,6 L-10,4 Z " fill="#C5C5C5" transform="translate(15,7)"/>
<path d="M0,0 L4,0 L4,2 L-1,4 L-4,4 L-4,2 Z " fill="#DFDFDF" transform="translate(9,9)"/>
</svg>
