<?xml version="1.0" encoding="UTF-8"?>
<svg version="1.1" xmlns="http://www.w3.org/2000/svg" width="28" height="28">
<path d="M0,0 L28,0 L28,28 L0,28 Z " fill="#020202" transform="translate(0,0)"/>
<path d="M0,0 L16,0 L17,2 L17,11 L15,20 L13,20 L13,13 L15,3 L2,4 L2,7 L0,7 Z " fill="#D3D3D3" transform="translate(4,8)"/>
<path d="M0,0 L12,0 L14,3 L2,4 L2,7 L0,7 Z " fill="#C4C4C4" transform="translate(4,8)"/>
<path d="M0,0 L4,0 L5,6 L2,3 L-1,1 Z " fill="#F1F1F1" transform="translate(16,8)"/>
</svg>
