<?xml version="1.0" encoding="UTF-8"?>
<svg version="1.1" xmlns="http://www.w3.org/2000/svg" width="28" height="28">
<path d="M0,0 L28,0 L28,28 L0,28 Z " fill="#030303" transform="translate(0,0)"/>
<path d="M0,0 L10,1 L9,8 L1,20 L-1,20 L0,16 L7,4 L0,5 L-3,9 L-5,9 L-4,5 Z " fill="#DFDFDF" transform="translate(11,7)"/>
<path d="M0,0 L9,1 L9,2 L2,2 L2,4 L-3,9 L-5,9 L-4,5 Z " fill="#D1D1D1" transform="translate(11,7)"/>
<path d="M0,0 L1,0 L1,5 L-1,5 L-1,3 L-7,3 L-7,1 Z " fill="#F9F9F9" transform="translate(20,8)"/>
</svg>
