<?xml version="1.0" encoding="UTF-8"?>
<svg version="1.1" xmlns="http://www.w3.org/2000/svg" width="28" height="28">
<path d="M0,0 L28,0 L28,28 L0,28 Z " fill="#010101" transform="translate(0,0)"/>
<path d="M0,0 L6,0 L9,2 L9,9 L4,20 L1,20 L4,11 L5,9 L5,3 L-1,3 L-2,6 L-3,2 Z " fill="#E6E6E6" transform="translate(10,6)"/>
<path d="M0,0 L6,0 L9,2 L9,4 L7,4 L6,7 L5,3 L-1,3 L-2,6 L-3,2 Z " fill="#DCDCDC" transform="translate(10,6)"/>
<path d="M0,0 L3,1 L2,3 L-1,3 L-2,6 L-3,2 Z " fill="#C1C1C1" transform="translate(10,6)"/>
</svg>
