<?xml version="1.0" encoding="UTF-8"?>
<svg version="1.1" xmlns="http://www.w3.org/2000/svg" width="28" height="28">
<path d="M0,0 L28,0 L28,28 L0,28 Z " fill="#020202" transform="translate(0,0)"/>
<path d="M0,0 L11,0 L11,8 L19,8 L17,10 L9,10 L8,18 L5,18 L6,11 L2,11 L3,8 L8,7 L9,2 L7,3 L-1,3 Z " fill="#ECECEC" transform="translate(6,7)"/>
<path d="M0,0 L4,1 L4,4 L6,4 L5,10 L2,10 L3,3 L-1,3 Z " fill="#C2C2C2" transform="translate(9,15)"/>
<path d="M0,0 L7,0 L7,3 L-1,3 Z " fill="#B5B5B5" transform="translate(6,7)"/>
</svg>
