<?xml version="1.0" encoding="UTF-8"?>
<svg version="1.1" xmlns="http://www.w3.org/2000/svg" width="28" height="28">
<path d="M0,0 L28,0 L28,28 L0,28 Z " fill="#030303" transform="translate(0,0)"/>
<path d="M0,0 L4,0 L3,7 L7,8 L2,9 L3,20 L1,19 L0,16 L0,9 L-10,9 L-11,8 L-11,1 Z " fill="#CCCCCC" transform="translate(16,8)"/>
<path d="M0,0 L11,0 L9,5 L0,5 Z " fill="#262626" transform="translate(7,10)"/>
<path d="M0,0 L4,0 L3,6 L1,4 L2,2 L-6,3 L-9,2 L-9,7 L-2,7 L-2,8 L-11,8 L-11,1 Z " fill="#E9E9E9" transform="translate(16,8)"/>
</svg>
