<?xml version="1.0" encoding="UTF-8"?>
<svg version="1.1" xmlns="http://www.w3.org/2000/svg" width="28" height="28">
<path d="M0,0 L28,0 L28,28 L0,28 Z " fill="#010101" transform="translate(0,0)"/>
<path d="M0,0 L9,0 L7,9 L5,18 L4,20 L2,20 L4,6 L5,3 L-7,3 L-7,1 Z " fill="#D2D2D2" transform="translate(11,8)"/>
<path d="M0,0 L1,0 L0,11 L-2,16 L-4,16 L-2,2 Z " fill="#E4E4E4" transform="translate(17,12)"/>
<path d="M0,0 L3,0 L2,6 L-1,5 L-1,3 L-5,2 Z " fill="#B0B0B0" transform="translate(17,8)"/>
</svg>
