<?xml version="1.0" encoding="UTF-8"?>
<svg version="1.1" xmlns="http://www.w3.org/2000/svg" width="28" height="28">
<path d="M0,0 L28,0 L28,28 L0,28 Z " fill="#020202" transform="translate(0,0)"/>
<path d="M0,0 L8,0 L14,1 L13,6 L7,15 L5,20 L3,20 L4,13 L8,8 L11,3 L-1,3 Z " fill="#D1D1D1" transform="translate(7,7)"/>
<path d="M0,0 L8,0 L12,1 L11,4 L1,3 L-1,3 Z " fill="#BFBFBF" transform="translate(7,7)"/>
<path d="M0,0 L2,0 L1,5 L-2,9 L-4,9 L-2,4 Z " fill="#E9E9E9" transform="translate(19,8)"/>
</svg>
