<?xml version="1.0" encoding="UTF-8"?>
<svg version="1.1" xmlns="http://www.w3.org/2000/svg" width="28" height="28">
<path d="M0,0 L28,0 L28,28 L0,28 Z " fill="#000000" transform="translate(0,0)"/>
<path d="M0,0 L15,0 L16,1 L16,8 L11,19 L7,20 L9,14 L11,11 L13,3 L0,3 Z " fill="#B2B2B2" transform="translate(4,7)"/>
<path d="M0,0 L1,0 L1,6 L-3,14 L-7,15 L-5,9 L-3,6 L-2,1 Z " fill="#E5E5E5" transform="translate(18,12)"/>
<path d="M0,0 L13,1 L13,2 L0,3 Z " fill="#ECECEC" transform="translate(4,7)"/>
</svg>
