<?xml version="1.0" encoding="UTF-8"?>
<svg version="1.1" xmlns="http://www.w3.org/2000/svg" width="28" height="28">
<path d="M0,0 L28,0 L28,28 L0,28 Z " fill="#020202" transform="translate(0,0)"/>
<path d="M0,0 L3,0 L2,5 L-5,20 L-8,20 L-7,14 L-3,8 L-2,5 L-8,5 L-9,8 L-11,8 L-10,3 L-3,1 Z " fill="#D9D9D9" transform="translate(18,7)"/>
<path d="M0,0 L3,1 L1,2 L-1,7 L-2,5 L-8,5 L-9,8 L-11,8 L-10,3 L-3,1 Z " fill="#CDCDCD" transform="translate(18,7)"/>
<path d="M0,0 L2,0 L-1,9 L-3,11 L-5,11 L-3,6 Z M-6,11 Z " fill="#EFEFEF" transform="translate(19,8)"/>
</svg>
