<?xml version="1.0" encoding="UTF-8"?>
<svg version="1.1" xmlns="http://www.w3.org/2000/svg" width="28" height="28">
<path d="M0,0 L28,0 L28,28 L0,28 Z " fill="#030303" transform="translate(0,0)"/>
<path d="M0,0 L8,0 L9,4 L5,12 L-1,20 L-4,20 L-2,16 L1,11 L5,7 L7,2 L0,5 L-4,7 L-4,4 L-2,4 Z " fill="#F0F0F0" transform="translate(12,7)"/>
<path d="M0,0 L5,0 L0,5 L-4,7 L-4,4 L-2,4 Z " fill="#C2C2C2" transform="translate(12,7)"/>
<path d="M0,0 L2,4 L-2,9 L-5,9 L-3,5 Z " fill="#C3C3C3" transform="translate(13,18)"/>
</svg>
