<?xml version="1.0" encoding="UTF-8"?>
<svg version="1.1" xmlns="http://www.w3.org/2000/svg" width="28" height="28">
<path d="M0,0 L28,0 L28,28 L0,28 Z " fill="#010101" transform="translate(0,0)"/>
<path d="M0,0 L12,1 L13,2 L13,16 L16,16 L15,20 L12,19 L10,16 L10,4 L1,3 Z " fill="#B3B3B3" transform="translate(4,6)"/>
<path d="M0,0 L2,0 L2,14 L5,14 L4,18 L1,17 L0,15 Z " fill="#F0F0F0" transform="translate(15,8)"/>
<path d="M0,0 L9,1 L8,3 L1,3 Z " fill="#F0F0F0" transform="translate(4,6)"/>
</svg>
