<?xml version="1.0" encoding="UTF-8"?>
<svg version="1.1" xmlns="http://www.w3.org/2000/svg" width="28" height="28">
<path d="M0,0 L28,0 L28,28 L0,28 Z " fill="#040404" transform="translate(0,0)"/>
<path d="M0,0 L4,1 L4,9 L-1,17 L1,18 L-14,18 L-14,2 Z " fill="#020202" transform="translate(14,10)"/>
<path d="M0,0 L9,0 L12,2 L11,12 L7,18 L4,17 L8,11 L8,3 L-8,3 L-8,1 Z " fill="#DFDFDF" transform="translate(9,8)"/>
<path d="M0,0 L5,1 L6,5 L4,5 L4,3 L-1,2 Z " fill="#F8F8F8" transform="translate(15,8)"/>
</svg>
