<?xml version="1.0" encoding="UTF-8"?>
<svg version="1.1" xmlns="http://www.w3.org/2000/svg" width="28" height="28">
<path d="M0,0 L28,0 L28,28 L0,28 Z " fill="#020202" transform="translate(0,0)"/>
<path d="M0,0 L6,0 L7,6 L4,13 L-2,20 L-5,20 L-3,15 L3,7 L4,3 L-4,6 L-5,5 L-7,8 L-9,8 L-8,4 Z " fill="#E2E2E2" transform="translate(14,6)"/>
<path d="M0,0 L6,0 L4,3 L-4,6 L-5,5 L-7,8 L-9,8 L-8,4 Z " fill="#CCCCCC" transform="translate(14,6)"/>
<path d="M0,0 L2,0 L3,3 L1,4 L0,3 L-2,6 L-4,6 L-3,2 Z " fill="#AAAAAA" transform="translate(9,8)"/>
</svg>
