<?xml version="1.0" encoding="UTF-8"?>
<svg version="1.1" xmlns="http://www.w3.org/2000/svg" width="28" height="28">
<path d="M0,0 L28,0 L28,28 L0,28 Z " fill="#020202" transform="translate(0,0)"/>
<path d="M0,0 L7,1 L9,2 L10,5 L10,12 L8,12 L8,18 L7,20 L4,20 L5,11 L6,5 L2,3 L3,8 L0,8 L-1,7 L-1,1 Z " fill="#E5E5E5" transform="translate(9,6)"/>
<path d="M0,0 L4,0 L4,3 L2,3 L2,9 L1,11 L-2,11 L-1,2 Z " fill="#C5C5C5" transform="translate(15,15)"/>
<path d="M0,0 L3,0 L2,5 L-1,5 Z " fill="#DCDCDC" transform="translate(14,21)"/>
</svg>
