<?xml version="1.0" encoding="UTF-8"?>
<svg version="1.1" xmlns="http://www.w3.org/2000/svg" width="28" height="28">
<path d="M0,0 L28,0 L28,28 L0,28 Z " fill="#040404" transform="translate(0,0)"/>
<path d="M0,0 L2,0 L1,4 L-4,12 L-4,15 L1,12 L6,12 L5,17 L0,20 L-5,20 L-7,17 L-7,11 Z " fill="#D5D5D5" transform="translate(16,2)"/>
<path d="M0,0 L2,0 L1,5 L-3,7 L-3,4 L-1,2 Z " fill="#EDEDED" transform="translate(20,14)"/>
<path d="M0,0 L1,2 L-2,9 L-3,9 L-3,3 Z " fill="#F7F7F7" transform="translate(12,10)"/>
</svg>
