<?xml version="1.0" encoding="UTF-8"?>
<svg version="1.1" xmlns="http://www.w3.org/2000/svg" width="28" height="28">
<path d="M0,0 L28,0 L28,28 L0,28 Z " fill="#010101" transform="translate(0,0)"/>
<path d="M0,0 L2,0 L0,4 L-4,10 L-6,16 L1,12 L7,12 L8,15 L4,19 L1,20 L-6,20 L-8,18 L-7,9 Z " fill="#C3C3C3" transform="translate(16,1)"/>
<path d="M0,0 L2,0 L0,4 L-4,10 L-6,16 L-2,15 L-3,18 L-1,20 L-6,20 L-8,18 L-7,9 Z " fill="#BBBBBB" transform="translate(16,1)"/>
<path d="M0,0 L2,0 L2,4 L6,3 L5,6 L7,8 L2,8 L0,6 Z " fill="#D5D5D5" transform="translate(8,13)"/>
<path d="M0,0 L4,0 L2,4 L-5,4 L-2,1 Z " fill="#101010" transform="translate(17,15)"/>
</svg>
