<?xml version="1.0" encoding="UTF-8"?>
<svg version="1.1" xmlns="http://www.w3.org/2000/svg" width="28" height="28">
<path d="M0,0 L28,0 L28,28 L0,28 Z " fill="#020202" transform="translate(0,0)"/>
<path d="M0,0 L3,0 L3,3 L0,3 L-2,7 L-3,9 L2,10 L3,13 L0,18 L-3,20 L-9,20 L-11,15 L-8,8 Z " fill="#E8E8E8" transform="translate(18,3)"/>
<path d="M0,0 L4,2 L2,7 L-1,10 L-2,8 L-6,8 L-5,3 L0,1 Z " fill="#DADADA" transform="translate(17,12)"/>
<path d="M0,0 L2,0 L1,5 L-4,6 L-3,1 Z " fill="#0E0E0E" transform="translate(15,14)"/>
</svg>
