<?xml version="1.0" encoding="UTF-8"?>
<svg version="1.1" xmlns="http://www.w3.org/2000/svg" width="28" height="28">
<path d="M0,0 L28,0 L28,28 L0,28 Z " fill="#030303" transform="translate(0,0)"/>
<path d="M0,0 L3,0 L2,4 L-3,9 L2,9 L4,11 L4,17 L-1,20 L-10,19 L-12,16 L-11,9 L-5,4 L0,2 Z " fill="#E9E9E9" transform="translate(18,3)"/>
<path d="M0,0 L3,0 L2,4 L-4,9 L-6,12 L-8,11 L-5,5 L-2,2 L0,2 Z " fill="#DDDDDD" transform="translate(18,3)"/>
<path d="M0,0 L5,1 L4,4 L-2,5 L-2,2 Z " fill="#1B1B1B" transform="translate(14,15)"/>
</svg>
