<?xml version="1.0" encoding="UTF-8"?>
<svg version="1.1" xmlns="http://www.w3.org/2000/svg" width="28" height="28">
<path d="M0,0 L28,0 L28,28 L0,28 Z " fill="#030303" transform="translate(0,0)"/>
<path d="M0,0 L2,0 L2,3 L-3,7 L-3,9 L3,8 L4,13 L2,16 L0,16 L0,18 L-4,20 L-9,20 L-10,19 L-9,12 L-8,8 L-6,8 L-4,4 Z " fill="#DFDFDF" transform="translate(18,3)"/>
<path d="M0,0 L2,0 L2,3 L-3,7 L-6,13 L-7,18 L-1,17 L-4,20 L-9,20 L-10,19 L-9,12 L-8,8 L-6,8 L-4,4 Z " fill="#E8E8E8" transform="translate(18,3)"/>
<path d="M0,0 L1,3 L6,2 L5,5 L0,8 L-2,8 L-1,1 Z " fill="#292929" transform="translate(13,13)"/>
</svg>
