<?xml version="1.0" encoding="UTF-8"?>
<svg version="1.1" xmlns="http://www.w3.org/2000/svg" width="28" height="28">
<path d="M0,0 L28,0 L28,28 L0,28 Z " fill="#020202" transform="translate(0,0)"/>
<path d="M0,0 L1,3 L-4,8 L-6,8 L-6,11 L-1,12 L-1,16 L-3,16 L-3,19 L-10,20 L-13,18 L-13,12 L-7,5 Z " fill="#E3E3E3" transform="translate(21,3)"/>
<path d="M0,0 L1,2 L0,5 L-7,6 L-9,5 L-9,3 L-2,2 Z " fill="#EFEFEF" transform="translate(18,17)"/>
<path d="M0,0 L5,0 L4,4 L-1,4 Z " fill="#181818" transform="translate(12,16)"/>
</svg>
