<?xml version="1.0" encoding="UTF-8"?>
<svg version="1.1" xmlns="http://www.w3.org/2000/svg" width="28" height="28">
<path d="M0,0 L28,0 L28,28 L0,28 Z " fill="#040404" transform="translate(0,0)"/>
<path d="M0,0 L2,0 L1,4 L-4,10 L-6,14 L2,9 L7,9 L8,13 L2,18 L-4,20 L-9,20 L-10,19 L-9,12 Z " fill="#E2E2E2" transform="translate(16,2)"/>
<path d="M0,0 L2,0 L1,4 L-4,10 L-7,13 L-7,9 Z " fill="#E4E4E4" transform="translate(16,2)"/>
<path d="M0,0 L3,1 L-3,5 L-6,4 L-3,1 Z " fill="#2B2B2B" transform="translate(18,14)"/>
</svg>
