<?xml version="1.0" encoding="UTF-8"?>
<svg version="1.1" xmlns="http://www.w3.org/2000/svg" width="28" height="28">
<path d="M0,0 L28,0 L28,28 L0,28 Z " fill="#020202" transform="translate(0,0)"/>
<path d="M0,0 L4,2 L3,5 L0,5 L-3,8 L-3,10 L5,11 L6,17 L2,20 L-3,20 L-6,17 L-7,12 L-5,5 Z " fill="#DADADA" transform="translate(15,3)"/>
<path d="M0,0 L4,2 L3,5 L0,5 L-3,8 L-3,10 L1,10 L1,12 L-3,14 L-3,18 L-6,17 L-7,12 L-5,5 Z " fill="#ECECEC" transform="translate(15,3)"/>
<path d="M0,0 L4,2 L3,5 L0,5 L-3,7 L-5,5 Z " fill="#C4C4C4" transform="translate(15,3)"/>
<path d="M0,0 L6,0 L4,4 L-1,3 Z " fill="#0C0C0C" transform="translate(12,16)"/>
</svg>
