<?xml version="1.0" encoding="UTF-8"?>
<svg version="1.1" xmlns="http://www.w3.org/2000/svg" width="28" height="28">
<path d="M0,0 L28,0 L28,28 L0,28 Z " fill="#020202" transform="translate(0,0)"/>
<path d="M0,0 L2,0 L2,10 L8,9 L10,11 L10,18 L8,20 L1,19 L-1,18 L-2,14 L-2,4 Z " fill="#F1F1F1" transform="translate(12,2)"/>
<path d="M0,0 L4,1 L3,6 L-1,5 L-2,1 Z " fill="#202020" transform="translate(16,14)"/>
<path d="M0,0 L2,0 L2,12 L0,12 L-1,7 L-2,4 Z " fill="#D5D5D5" transform="translate(12,2)"/>
<path d="M0,0 L4,1 L5,2 L5,9 L4,9 L4,4 L1,3 Z " fill="#D3D3D3" transform="translate(17,11)"/>
</svg>
