<?xml version="1.0" encoding="UTF-8"?>
<svg version="1.1" xmlns="http://www.w3.org/2000/svg" width="28" height="28">
<path d="M0,0 L28,0 L28,28 L0,28 Z " fill="#020202" transform="translate(0,0)"/>
<path d="M0,0 L4,1 L-6,10 L-6,11 L-1,11 L-2,15 L-7,19 L-12,20 L-12,14 L-3,3 Z " fill="#E4E4E4" transform="translate(20,3)"/>
<path d="M0,0 L3,1 L-1,6 L-5,8 L-8,8 L-8,2 L-7,4 L-5,4 L-4,1 Z " fill="#B8B8B8" transform="translate(16,15)"/>
<path d="M0,0 L4,1 L-5,9 L-6,6 L-1,2 Z " fill="#C3C3C3" transform="translate(20,3)"/>
<path d="M0,0 L0,3 L-4,6 L-7,5 L-4,1 Z " fill="#1F1F1F" transform="translate(16,15)"/>
</svg>
