<?xml version="1.0" encoding="UTF-8"?>
<svg version="1.1" xmlns="http://www.w3.org/2000/svg" width="28" height="28">
<path d="M0,0 L28,0 L28,28 L0,28 Z " fill="#020202" transform="translate(0,0)"/>
<path d="M0,0 L2,0 L0,5 L-2,11 L1,9 L5,9 L6,18 L4,20 L-1,20 L-4,17 L-4,7 Z " fill="#DEDEDE" transform="translate(14,2)"/>
<path d="M0,0 L4,0 L5,9 L3,11 L-2,11 L2,8 L3,2 L0,1 Z " fill="#C9C9C9" transform="translate(15,11)"/>
<path d="M0,0 L3,0 L3,6 L-1,7 L0,4 L-2,4 Z " fill="#090909" transform="translate(15,13)"/>
<path d="M0,0 L2,0 L0,5 L-2,14 L-3,14 L-4,7 Z " fill="#A8A8A8" transform="translate(14,2)"/>
</svg>
