<?xml version="1.0" encoding="UTF-8"?>
<svg version="1.1" xmlns="http://www.w3.org/2000/svg" width="28" height="28">
<path d="M0,0 L28,0 L28,28 L0,28 Z " fill="#030303" transform="translate(0,0)"/>
<path d="M0,0 L3,0 L1,4 L-4,10 L-5,12 L-1,10 L5,10 L7,14 L3,18 L-6,20 L-9,18 L-8,10 Z " fill="#EBEBEB" transform="translate(17,3)"/>
<path d="M0,0 L6,0 L8,4 L4,8 L-4,7 L-2,1 Z " fill="#DEDEDE" transform="translate(16,13)"/>
<path d="M0,0 L3,0 L1,4 L-6,5 L-4,1 Z " fill="#202020" transform="translate(18,15)"/>
</svg>
