<?xml version="1.0" encoding="UTF-8"?>
<svg version="1.1" xmlns="http://www.w3.org/2000/svg" width="28" height="28">
<path d="M0,0 L28,0 L28,28 L0,28 Z " fill="#040404" transform="translate(0,0)"/>
<path d="M0,0 L2,0 L1,10 L3,10 L4,7 L7,7 L7,15 L1,20 L-3,19 L-3,11 Z " fill="#F0F0F0" transform="translate(13,3)"/>
<path d="M0,0 L3,2 L2,6 L-3,7 Z " fill="#9B9B9B" transform="translate(17,13)"/>
<path d="M0,0 L3,0 L3,5 L1,6 L0,4 L-2,6 L-3,3 L-1,3 Z " fill="#E0E0E0" transform="translate(17,10)"/>
</svg>
