<?xml version="1.0" encoding="UTF-8"?>
<svg version="1.1" xmlns="http://www.w3.org/2000/svg" width="28" height="28">
<path d="M0,0 L28,0 L28,28 L0,28 Z " fill="#010101" transform="translate(0,0)"/>
<path d="M0,0 L2,0 L1,7 L0,10 L4,11 L5,16 L1,20 L-4,20 L-7,17 L-6,12 Z " fill="#F3F3F3" transform="translate(16,2)"/>
<path d="M0,0 L1,4 L-3,8 L-4,6 L-7,6 L-5,2 Z " fill="#949494" transform="translate(20,14)"/>
<path d="M0,0 L2,0 L1,7 L-2,10 L-4,10 L-2,4 Z " fill="#D8D8D8" transform="translate(16,2)"/>
</svg>
