<?xml version="1.0" encoding="UTF-8"?>
<svg version="1.1" xmlns="http://www.w3.org/2000/svg" width="28" height="28">
<path d="M0,0 L28,0 L28,28 L0,28 Z " fill="#020202" transform="translate(0,0)"/>
<path d="M0,0 L3,0 L1,6 L-1,9 L4,10 L5,17 L0,20 L-6,18 L-5,9 L-4,6 L-2,6 L-1,1 Z " fill="#D9D9D9" transform="translate(15,3)"/>
<path d="M0,0 L3,0 L1,6 L-1,9 L3,10 L0,11 L-2,15 L-5,14 L-4,6 L-2,6 L-1,1 Z " fill="#E0E0E0" transform="translate(15,3)"/>
<path d="M0,0 L3,1 L0,6 L-3,5 L-1,1 Z " fill="#0B0B0B" transform="translate(15,15)"/>
</svg>
