<?xml version="1.0" encoding="UTF-8"?>
<svg version="1.1" xmlns="http://www.w3.org/2000/svg" width="28" height="28">
<path d="M0,0 L28,0 L28,28 L0,28 Z " fill="#020202" transform="translate(0,0)"/>
<path d="M0,0 L1,3 L-2,7 L-2,13 L4,11 L9,11 L11,13 L11,18 L7,20 L0,20 L-5,16 L-6,9 L-3,3 Z " fill="#E2E2E2" transform="translate(13,2)"/>
<path d="M0,0 L5,0 L7,2 L7,7 L3,9 L0,9 L0,7 L-3,6 L-3,3 Z " fill="#CCCCCC" transform="translate(17,13)"/>
<path d="M0,0 L6,1 L6,4 L-1,5 L-2,1 Z " fill="#141414" transform="translate(16,15)"/>
</svg>
