<?xml version="1.0" encoding="UTF-8"?>
<svg version="1.1" xmlns="http://www.w3.org/2000/svg" width="28" height="28">
<path d="M0,0 L28,0 L28,28 L0,28 Z " fill="#020202" transform="translate(0,0)"/>
<path d="M0,0 L3,1 L0,5 L0,16 L4,10 L8,11 L9,12 L9,17 L6,20 L0,20 L-4,14 L-4,7 L-1,1 Z " fill="#DADADA" transform="translate(13,2)"/>
<path d="M0,0 L3,1 L0,5 L0,16 L2,18 L-1,19 L-4,14 L-4,7 L-1,1 Z " fill="#CCCCCC" transform="translate(13,2)"/>
<path d="M0,0 L4,0 L3,4 L-1,5 Z " fill="#272727" transform="translate(17,15)"/>
</svg>
