<?xml version="1.0" encoding="UTF-8"?>
<svg version="1.1" xmlns="http://www.w3.org/2000/svg" width="28" height="28">
<path d="M0,0 L28,0 L28,28 L0,28 Z " fill="#020202" transform="translate(0,0)"/>
<path d="M0,0 L2,0 L0,4 L-4,10 L3,10 L4,14 L3,17 L-2,20 L-7,20 L-8,18 L-8,12 L-3,2 Z " fill="#D2D2D2" transform="translate(17,3)"/>
<path d="M0,0 L2,0 L0,4 L-4,10 L-2,11 L-6,18 L-3,18 L-3,20 L-7,20 L-8,18 L-8,12 L-3,2 Z " fill="#DBDBDB" transform="translate(17,3)"/>
<path d="M0,0 L6,0 L3,4 L-2,4 Z " fill="#181818" transform="translate(13,16)"/>
</svg>
