<?xml version="1.0" encoding="UTF-8"?>
<svg version="1.1" xmlns="http://www.w3.org/2000/svg" width="28" height="28">
<path d="M0,0 L28,0 L28,28 L0,28 Z " fill="#010101" transform="translate(0,0)"/>
<path d="M0,0 L2,0 L0,4 L-2,4 L-5,14 L-2,12 L3,12 L5,16 L1,20 L-7,19 L-8,10 L-5,4 Z " fill="#CECECE" transform="translate(17,2)"/>
<path d="M0,0 L2,0 L2,5 L4,6 L1,6 L0,10 L-1,1 Z " fill="#B8B8B8" transform="translate(10,11)"/>
<path d="M0,0 L2,0 L2,5 L-3,5 L-3,1 Z " fill="#F6F6F6" transform="translate(14,16)"/>
</svg>
