<?xml version="1.0" encoding="UTF-8"?>
<svg version="1.1" xmlns="http://www.w3.org/2000/svg" width="28" height="28">
<path d="M0,0 L28,0 L28,28 L0,28 Z " fill="#020202" transform="translate(0,0)"/>
<path d="M0,0 L1,3 L-4,12 L2,12 L1,16 L-2,20 L-12,20 L-10,16 L-5,8 Z " fill="#CECECE" transform="translate(19,2)"/>
<path d="M0,0 L3,2 L-1,4 L-1,6 L7,3 L5,7 L-5,7 L-3,3 Z " fill="#DBDBDB" transform="translate(12,15)"/>
<path d="M0,0 L3,0 L1,4 L-5,5 L-5,3 Z " fill="#191919" transform="translate(16,16)"/>
</svg>
