<?xml version="1.0" encoding="UTF-8"?>
<svg version="1.1" xmlns="http://www.w3.org/2000/svg" width="28" height="28">
<path d="M0,0 L28,0 L28,28 L0,28 Z " fill="#020202" transform="translate(0,0)"/>
<path d="M0,0 L2,0 L2,2 L0,2 L-2,7 L-5,11 L-6,17 L-3,17 L-5,13 L-3,11 L3,11 L5,13 L4,18 L0,20 L-7,20 L-9,18 L-9,11 L-3,3 Z " fill="#E6E6E6" transform="translate(17,2)"/>
<path d="M0,0 L2,0 L2,2 L0,2 L-2,7 L-5,11 L-7,14 L-9,13 L-7,8 Z " fill="#D5D5D5" transform="translate(17,2)"/>
<path d="M0,0 L5,2 L5,6 L0,6 L-2,2 Z " fill="#787878" transform="translate(14,13)"/>
<path d="M0,0 L2,3 L2,7 L4,9 L-1,9 L-2,5 Z " fill="#202020" transform="translate(12,11)"/>
</svg>
