<?xml version="1.0" encoding="UTF-8"?>
<svg version="1.1" xmlns="http://www.w3.org/2000/svg" width="28" height="28">
<path d="M0,0 L28,0 L28,28 L0,28 Z " fill="#030303" transform="translate(0,0)"/>
<path d="M0,0 L1,3 L-4,9 L-4,12 L-2,10 L4,10 L5,15 L3,19 L1,20 L-7,20 L-10,17 L-10,12 L-4,3 Z " fill="#E2E2E2" transform="translate(17,2)"/>
<path d="M0,0 L6,0 L7,5 L5,9 L1,10 L1,8 L-2,8 L-2,2 Z " fill="#EAEAEA" transform="translate(15,12)"/>
<path d="M0,0 L1,3 L3,3 L3,1 L5,1 L4,6 L7,6 L7,8 L1,8 L-1,6 L-1,1 Z " fill="#F4F4F4" transform="translate(9,14)"/>
<path d="M0,0 L2,4 L2,8 L0,8 L-1,6 L-3,10 L-3,5 Z " fill="#BBBBBB" transform="translate(10,9)"/>
<path d="M0,0 L1,3 L0,5 L-5,5 L-3,1 Z " fill="#1A1A1A" transform="translate(18,14)"/>
<path d="M0,0 L3,2 L0,5 L-2,5 L-2,3 L-5,2 L0,2 Z " fill="#CACACA" transform="translate(18,17)"/>
</svg>
