<?xml version="1.0" encoding="UTF-8"?>
<svg version="1.1" xmlns="http://www.w3.org/2000/svg" width="28" height="28">
<path d="M0,0 L28,0 L28,28 L0,28 Z " fill="#020202" transform="translate(0,0)"/>
<path d="M0,0 L1,2 L-6,11 L1,10 L1,16 L-2,19 L-5,20 L-15,20 L-11,13 L-7,7 L-2,2 Z " fill="#F3F3F3" transform="translate(20,1)"/>
<path d="M0,0 L3,0 L3,6 L0,9 L-4,10 L-9,8 L-6,5 L-2,3 L-3,1 Z " fill="#CBCBCB" transform="translate(18,11)"/>
<path d="M0,0 L3,0 L1,4 L-6,6 L-6,3 Z " fill="#131313" transform="translate(16,14)"/>
<path d="M0,0 L1,2 L-6,11 L-6,13 L-8,13 L-9,10 Z " fill="#D1D1D1" transform="translate(20,1)"/>
</svg>
