<?xml version="1.0" encoding="UTF-8"?>
<svg version="1.1" xmlns="http://www.w3.org/2000/svg" width="28" height="28">
<path d="M0,0 L28,0 L28,28 L0,28 Z " fill="#020202" transform="translate(0,0)"/>
<path d="M0,0 L2,0 L1,4 L-5,13 L-4,18 L6,15 L4,18 L0,20 L-6,20 L-8,18 L-8,12 L-1,1 Z " fill="#E0E0E0" transform="translate(16,3)"/>
<path d="M0,0 L4,1 L4,6 L-2,9 L-6,9 L-8,4 L-4,1 Z " fill="#1B1B1B" transform="translate(18,12)"/>
<path d="M0,0 L4,1 L4,4 L-6,4 L-4,1 Z " fill="#BEBEBE" transform="translate(18,12)"/>
</svg>
