<?xml version="1.0" encoding="UTF-8"?>
<svg version="1.1" xmlns="http://www.w3.org/2000/svg" width="28" height="28">
<path d="M0,0 L28,0 L28,28 L0,28 Z " fill="#020202" transform="translate(0,0)"/>
<path d="M0,0 L2,0 L-1,9 L2,10 L3,13 L-3,14 L-6,15 L-4,17 L0,15 L3,16 L-1,19 L-7,20 L-9,18 L-8,13 L-7,11 L-5,11 L-4,7 L-1,1 Z " fill="#D7D7D7" transform="translate(17,3)"/>
<path d="M0,0 L3,1 L3,3 L-4,6 L-5,3 Z " fill="#212121" transform="translate(16,15)"/>
<path d="M0,0 L2,0 L-1,9 L-3,7 L-2,2 Z " fill="#CDCDCD" transform="translate(17,3)"/>
</svg>
