<?xml version="1.0" encoding="UTF-8"?>
<svg version="1.1" xmlns="http://www.w3.org/2000/svg" width="28" height="28">
<path d="M0,0 L28,0 L28,28 L0,28 Z " fill="#030303" transform="translate(0,0)"/>
<path d="M0,0 L3,0 L1,6 L-1,10 L-1,15 L2,11 L8,11 L9,14 L4,19 L-1,20 L-5,17 L-5,10 Z " fill="#E3E3E3" transform="translate(14,2)"/>
<path d="M0,0 L3,0 L1,6 L-1,10 L-1,17 L-3,17 L-3,12 L-5,12 L-3,7 Z " fill="#C8C8C8" transform="translate(14,2)"/>
<path d="M0,0 L6,0 L6,4 L5,1 L0,4 L-3,4 Z " fill="#EFEFEF" transform="translate(16,13)"/>
<path d="M0,0 L3,0 L3,3 L-3,6 L-2,2 Z " fill="#1F1F1F" transform="translate(18,14)"/>
<path d="M0,0 L3,0 L1,6 L-2,7 Z " fill="#F0F0F0" transform="translate(14,2)"/>
</svg>
