<?xml version="1.0" encoding="UTF-8"?>
<svg version="1.1" xmlns="http://www.w3.org/2000/svg" width="28" height="28">
<path d="M0,0 L28,0 L28,28 L0,28 Z " fill="#020202" transform="translate(0,0)"/>
<path d="M0,0 L2,0 L1,4 L-3,8 L-4,10 L-4,16 L-3,17 L5,17 L7,13 L-1,14 L-1,16 L1,17 L-3,16 L-1,12 L1,11 L8,11 L9,16 L4,20 L-4,20 L-7,16 L-6,7 Z " fill="#D7D7D7" transform="translate(15,2)"/>
<path d="M0,0 L7,0 L8,5 L3,9 L-3,8 L-3,7 L4,6 L6,2 L-2,3 L-2,5 L0,6 L-4,5 L-2,1 Z " fill="#C1C1C1" transform="translate(16,13)"/>
</svg>
