<?xml version="1.0" encoding="UTF-8"?>
<svg version="1.1" xmlns="http://www.w3.org/2000/svg" width="28" height="28">
<path d="M0,0 L28,0 L28,28 L0,28 Z " fill="#020202" transform="translate(0,0)"/>
<path d="M0,0 L5,1 L4,3 L0,4 L-3,9 L-3,11 L3,11 L4,12 L4,17 L1,20 L-5,20 L-8,17 L-7,9 L-1,1 Z " fill="#E0E0E0" transform="translate(16,3)"/>
<path d="M0,0 L3,2 L10,1 L10,4 L12,5 L9,8 L3,8 L0,5 Z " fill="#C1C1C1" transform="translate(8,15)"/>
<path d="M0,0 L4,1 L4,4 L-1,4 L-2,1 Z " fill="#070707" transform="translate(13,16)"/>
<path d="M0,0 L5,1 L4,3 L0,4 L-2,6 L-1,1 Z " fill="#D6D6D6" transform="translate(16,3)"/>
</svg>
