<?xml version="1.0" encoding="UTF-8"?>
<svg version="1.1" xmlns="http://www.w3.org/2000/svg" width="28" height="28">
<path d="M0,0 L28,0 L28,28 L0,28 Z " fill="#030303" transform="translate(0,0)"/>
<path d="M0,0 L2,0 L1,5 L-1,10 L4,10 L5,14 L0,20 L-5,20 L-6,15 L-1,1 Z " fill="#D2D2D2" transform="translate(16,3)"/>
<path d="M0,0 L2,0 L1,5 L-1,10 L1,12 L-5,17 L-6,15 L-1,1 Z " fill="#D9D9D9" transform="translate(16,3)"/>
<path d="M0,0 L4,2 L-2,7 L-3,5 L-2,1 Z " fill="#EFEFEF" transform="translate(13,13)"/>
<path d="M0,0 L3,0 L1,4 L-1,6 L-4,6 L-2,2 Z " fill="#191919" transform="translate(16,15)"/>
</svg>
