<?xml version="1.0" encoding="UTF-8"?>
<svg version="1.1" xmlns="http://www.w3.org/2000/svg" width="28" height="28">
<path d="M0,0 L28,0 L28,28 L0,28 Z " fill="#020202" transform="translate(0,0)"/>
<path d="M0,0 L1,4 L-2,13 L1,11 L5,11 L5,16 L-2,20 L-7,19 L-6,11 Z " fill="#EBEBEB" transform="translate(16,2)"/>
<path d="M0,0 L1,4 L-3,14 L4,13 L0,17 L-4,16 L-6,11 Z " fill="#C9C9C9" transform="translate(16,2)"/>
<path d="M0,0 L1,4 L8,3 L4,7 L0,6 L-2,1 Z " fill="#868686" transform="translate(12,12)"/>
</svg>
