<?xml version="1.0" encoding="UTF-8"?>
<svg version="1.1" xmlns="http://www.w3.org/2000/svg" width="28" height="28">
<path d="M0,0 L28,0 L28,28 L0,28 Z " fill="#020202" transform="translate(0,0)"/>
<path d="M0,0 L2,1 L0,5 L-2,8 L1,9 L1,14 L-3,19 L-6,20 L-8,19 L-8,11 L-4,4 Z " fill="#AAAAAA" transform="translate(18,4)"/>
<path d="M0,0 L2,3 L6,1 L5,5 L1,7 L-1,6 L-1,1 Z " fill="#F3F3F3" transform="translate(11,17)"/>
<path d="M0,0 L2,1 L0,5 L-3,8 L-5,7 L-3,3 Z " fill="#E7E7E7" transform="translate(18,4)"/>
</svg>
