<?xml version="1.0" encoding="UTF-8"?>
<svg version="1.1" xmlns="http://www.w3.org/2000/svg" width="28" height="28">
<path d="M0,0 L28,0 L28,28 L0,28 Z " fill="#020202" transform="translate(0,0)"/>
<path d="M0,0 L5,0 L7,2 L6,5 L5,2 L-1,5 L-4,12 L-3,11 L2,11 L4,13 L4,18 L1,20 L-6,19 L-7,18 L-7,8 L-3,2 Z " fill="#E3E3E3" transform="translate(16,4)"/>
<path d="M0,0 L5,0 L6,1 L6,6 L3,8 L-4,7 L-4,3 L0,2 Z " fill="#DDDDDD" transform="translate(14,16)"/>
<path d="M0,0 L3,1 L1,5 L-4,5 L-3,2 Z " fill="#242424" transform="translate(15,17)"/>
</svg>
