<?xml version="1.0" encoding="UTF-8"?>
<svg version="1.1" xmlns="http://www.w3.org/2000/svg" width="28" height="28">
<path d="M0,0 L28,0 L28,28 L0,28 Z " fill="#020202" transform="translate(0,0)"/>
<path d="M0,0 L1,3 L-2,8 L-2,13 L1,12 L1,10 L7,10 L7,12 L2,13 L1,17 L5,17 L5,19 L-2,20 L-5,17 L-6,11 L-3,4 Z " fill="#E0E0E0" transform="translate(14,2)"/>
<path d="M0,0 L4,0 L5,5 L1,9 L-3,8 L-2,3 L3,3 L3,1 Z " fill="#CACACA" transform="translate(18,11)"/>
<path d="M0,0 L5,0 L3,4 L-1,5 Z " fill="#111111" transform="translate(16,14)"/>
</svg>
