<?xml version="1.0" encoding="UTF-8"?>
<svg version="1.1" xmlns="http://www.w3.org/2000/svg" width="28" height="28">
<path d="M0,0 L28,0 L28,28 L0,28 Z " fill="#040404" transform="translate(0,0)"/>
<path d="M0,0 L2,0 L2,3 L-3,6 L-8,11 L-9,17 L-2,16 L-1,15 L-7,14 L-7,12 L-5,11 L2,11 L3,12 L3,17 L-4,20 L-10,19 L-10,17 L-12,17 L-11,10 L-4,2 Z " fill="#E2E2E2" transform="translate(19,3)"/>
<path d="M0,0 L1,0 L1,6 L7,6 L7,7 L0,8 L0,6 L-2,6 L-2,1 Z " fill="#C9C9C9" transform="translate(9,14)"/>
</svg>
