<?xml version="1.0" encoding="UTF-8"?>
<svg version="1.1" xmlns="http://www.w3.org/2000/svg" width="28" height="28">
<path d="M0,0 L28,0 L28,28 L0,28 Z " fill="#020202" transform="translate(0,0)"/>
<path d="M0,0 L2,0 L0,6 L-2,12 L3,12 L2,17 L-1,20 L-8,20 L-7,14 L-5,9 Z " fill="#D8D8D8" transform="translate(17,2)"/>
<path d="M0,0 L1,4 L-3,8 L-10,8 L-10,4 L-5,2 L0,2 Z " fill="#A2A2A2" transform="translate(19,14)"/>
<path d="M0,0 L1,2 L6,2 L6,4 L-3,6 L-1,1 Z " fill="#F0F0F0" transform="translate(13,12)"/>
</svg>
