<?xml version="1.0" encoding="UTF-8"?>
<svg version="1.1" xmlns="http://www.w3.org/2000/svg" width="28" height="28">
<path d="M0,0 L28,0 L28,28 L0,28 Z " fill="#020202" transform="translate(0,0)"/>
<path d="M0,0 L1,0 L0,7 L-1,10 L3,11 L2,16 L-1,20 L-8,20 L-5,11 L-1,1 Z " fill="#EDEDED" transform="translate(16,2)"/>
<path d="M0,0 L2,2 L1,6 L0,7 L-7,7 L-6,4 Z " fill="#C7C7C7" transform="translate(15,15)"/>
<path d="M0,0 L1,0 L0,7 L-2,9 L-3,6 Z " fill="#D7D7D7" transform="translate(16,2)"/>
</svg>
