<?xml version="1.0" encoding="UTF-8"?>
<svg version="1.1" xmlns="http://www.w3.org/2000/svg" width="28" height="28">
<path d="M0,0 L28,0 L28,28 L0,28 Z " fill="#010101" transform="translate(0,0)"/>
<path d="M0,0 L2,0 L1,4 L-4,11 L-2,11 L2,12 L1,17 L-2,20 L-9,20 L-8,12 L-2,2 Z " fill="#DBDBDB" transform="translate(18,2)"/>
<path d="M0,0 L4,1 L3,6 L0,9 L-7,9 L-7,4 L-3,4 L-2,6 L2,2 L0,2 Z " fill="#E8E8E8" transform="translate(16,13)"/>
<path d="M0,0 L6,1 L4,5 L1,4 L-1,6 Z " fill="#AFAFAF" transform="translate(12,14)"/>
</svg>
