<?xml version="1.0" encoding="UTF-8"?>
<svg version="1.1" xmlns="http://www.w3.org/2000/svg" width="28" height="28">
<path d="M0,0 L28,0 L28,28 L0,28 Z " fill="#020202" transform="translate(0,0)"/>
<path d="M0,0 L2,0 L2,2 L-2,6 L-6,15 L-2,11 L2,11 L1,15 L-4,20 L-8,20 L-8,12 L-2,2 Z " fill="#B5B5B5" transform="translate(18,2)"/>
<path d="M0,0 L4,0 L3,4 L-2,7 L-4,7 L-3,3 Z " fill="#7D7D7D" transform="translate(16,13)"/>
<path d="M0,0 L2,4 L7,2 L7,4 L4,6 L0,6 Z " fill="#D3D3D3" transform="translate(10,16)"/>
</svg>
