<?xml version="1.0" encoding="UTF-8"?>
<svg version="1.1" xmlns="http://www.w3.org/2000/svg" width="28" height="28">
<path d="M0,0 L28,0 L28,28 L0,28 Z " fill="#030303" transform="translate(0,0)"/>
<path d="M0,0 L3,0 L2,6 L-1,11 L0,17 L6,17 L13,11 L14,8 L8,12 L5,16 L5,11 L11,6 L16,7 L15,12 L11,17 L8,19 L-1,19 L-4,16 L-4,9 L-2,9 L-1,4 L0,2 L-2,1 Z " fill="#D6D6D6" transform="translate(9,3)"/>
<path d="M0,0 L2,0 L1,4 L-6,10 L-12,10 L-12,9 L-7,8 L-4,3 Z " fill="#1E1E1E" transform="translate(21,11)"/>
</svg>
