<?xml version="1.0" encoding="UTF-8"?>
<svg version="1.1" xmlns="http://www.w3.org/2000/svg" width="28" height="28">
<path d="M0,0 L28,0 L28,28 L0,28 Z " fill="#020202" transform="translate(0,0)"/>
<path d="M0,0 L2,0 L2,2 L-4,4 L-6,8 L-9,14 L-1,10 L3,11 L1,16 L-5,20 L-10,19 L-11,17 L-11,10 L-4,2 Z " fill="#D7D7D7" transform="translate(19,3)"/>
<path d="M0,0 L4,1 L2,6 L-2,9 L-7,8 L-6,5 L-4,3 Z " fill="#B4B4B4" transform="translate(18,13)"/>
<path d="M0,0 L3,0 L2,3 L-1,5 L-5,5 L-5,3 Z " fill="#161616" transform="translate(17,15)"/>
</svg>
