<?xml version="1.0" encoding="UTF-8"?>
<svg version="1.1" xmlns="http://www.w3.org/2000/svg" width="28" height="28">
<path d="M0,0 L28,0 L28,28 L0,28 Z " fill="#020202" transform="translate(0,0)"/>
<path d="M0,0 L3,1 L2,8 L-2,9 L-2,11 L4,11 L3,17 L-2,20 L-6,19 L-7,18 L-6,11 L-2,3 L0,3 Z " fill="#B5B5B5" transform="translate(16,3)"/>
<path d="M0,0 L3,1 L2,8 L-5,10 L-3,6 L-2,3 L0,3 Z " fill="#DDDDDD" transform="translate(16,3)"/>
<path d="M0,0 L5,0 L4,6 L2,8 L-1,7 L2,4 L2,2 L-1,1 Z " fill="#F4F4F4" transform="translate(15,14)"/>
</svg>
