<?xml version="1.0" encoding="UTF-8"?>
<svg version="1.1" xmlns="http://www.w3.org/2000/svg" width="28" height="28">
<path d="M0,0 L28,0 L28,28 L0,28 Z " fill="#010101" transform="translate(0,0)"/>
<path d="M0,0 L3,1 L-3,8 L-4,10 L1,11 L2,16 L-2,20 L-7,19 L-9,18 L-8,11 L-4,5 Z " fill="#DCDCDC" transform="translate(18,3)"/>
<path d="M0,0 L5,1 L4,6 L-1,7 L-2,2 Z " fill="#191919" transform="translate(13,14)"/>
<path d="M0,0 L3,2 L2,8 L-1,10 L-5,9 L0,6 Z " fill="#BFBFBF" transform="translate(17,13)"/>
</svg>
