<?xml version="1.0" encoding="UTF-8"?>
<svg version="1.1" xmlns="http://www.w3.org/2000/svg" width="28" height="28">
<path d="M0,0 L28,0 L28,28 L0,28 Z " fill="#030303" transform="translate(0,0)"/>
<path d="M0,0 L6,0 L6,2 L-1,4 L-4,7 L-5,16 L-3,17 L5,17 L5,15 L-4,16 L-4,14 L-1,13 L6,13 L8,14 L7,18 L2,20 L-4,20 L-9,15 L-9,10 L-5,4 Z " fill="#E5E5E5" transform="translate(15,3)"/>
<path d="M0,0 L3,1 L4,6 L6,8 L3,9 L0,5 Z " fill="#C0C0C0" transform="translate(6,13)"/>
<path d="M0,0 L5,0 L5,2 L3,3 L-3,3 L-4,1 Z " fill="#282828" transform="translate(15,18)"/>
</svg>
