<?xml version="1.0" encoding="UTF-8"?>
<svg version="1.1" xmlns="http://www.w3.org/2000/svg" width="28" height="28">
<path d="M0,0 L28,0 L28,28 L0,28 Z " fill="#020202" transform="translate(0,0)"/>
<path d="M0,0 L4,0 L4,2 L0,6 L-1,11 L6,11 L9,14 L8,18 L5,20 L-1,19 L-3,14 L-3,6 Z " fill="#DDDDDD" transform="translate(13,3)"/>
<path d="M0,0 L4,0 L4,2 L0,6 L-1,12 L-3,11 L-2,4 Z " fill="#DEDEDE" transform="translate(13,3)"/>
<path d="M0,0 L6,1 L5,4 L2,5 L0,3 Z " fill="#202020" transform="translate(13,16)"/>
</svg>
