<?xml version="1.0" encoding="UTF-8"?>
<svg version="1.1" xmlns="http://www.w3.org/2000/svg" width="28" height="28">
<path d="M0,0 L28,0 L28,28 L0,28 Z " fill="#020202" transform="translate(0,0)"/>
<path d="M0,0 L2,0 L0,4 L-4,10 L-5,13 L1,9 L6,10 L7,14 L4,19 L3,20 L-4,19 L-7,14 L-7,8 L-2,1 Z " fill="#D2D2D2" transform="translate(15,3)"/>
<path d="M0,0 L2,0 L0,4 L-4,10 L-5,13 L-3,14 L-7,14 L-7,8 L-2,1 Z " fill="#D0D0D0" transform="translate(15,3)"/>
<path d="M0,0 L4,0 L3,5 L-2,5 L-1,1 Z " fill="#141414" transform="translate(15,15)"/>
<path d="M0,0 L3,1 L1,5 L3,6 L3,8 L-1,7 L-3,2 L0,2 Z " fill="#ECECEC" transform="translate(12,15)"/>
</svg>
