<?xml version="1.0" encoding="UTF-8"?>
<svg version="1.1" xmlns="http://www.w3.org/2000/svg" width="28" height="28">
<path d="M0,0 L28,0 L28,28 L0,28 Z " fill="#020202" transform="translate(0,0)"/>
<path d="M0,0 L3,1 L2,5 L0,5 L-2,10 L-3,12 L1,10 L7,10 L8,14 L4,19 L-3,20 L-6,17 L-6,10 Z " fill="#E4E4E4" transform="translate(15,3)"/>
<path d="M0,0 L3,1 L2,5 L0,5 L-2,9 L-4,8 L-2,3 Z " fill="#DFDFDF" transform="translate(15,3)"/>
<path d="M0,0 L3,0 L1,4 L-4,5 L-3,2 Z " fill="#2D2D2D" transform="translate(17,15)"/>
</svg>
