<?xml version="1.0" encoding="UTF-8"?>
<svg version="1.1" xmlns="http://www.w3.org/2000/svg" width="28" height="28">
<path d="M0,0 L28,0 L28,28 L0,28 Z " fill="#010101" transform="translate(0,0)"/>
<path d="M0,0 L2,0 L0,5 L-2,10 L0,10 L1,17 L-1,20 L-5,19 L-6,18 L-5,9 Z " fill="#C5C5C5" transform="translate(17,2)"/>
<path d="M0,0 L3,1 L2,8 L-2,9 L-4,5 L1,7 Z " fill="#DADADA" transform="translate(15,13)"/>
<path d="M0,0 L3,2 L1,2 L2,9 L-1,8 L-1,2 Z " fill="#696969" transform="translate(14,11)"/>
</svg>
