<?xml version="1.0" encoding="UTF-8"?>
<svg version="1.1" xmlns="http://www.w3.org/2000/svg" width="28" height="28">
<path d="M0,0 L28,0 L28,28 L0,28 Z " fill="#030303" transform="translate(0,0)"/>
<path d="M0,0 L3,0 L2,6 L0,10 L5,9 L4,15 L-1,19 L-7,20 L-7,13 L-2,5 Z " fill="#F0F0F0" transform="translate(16,3)"/>
<path d="M0,0 L3,0 L2,6 L-1,13 L-2,16 L-4,16 L-5,10 Z " fill="#D9D9D9" transform="translate(16,3)"/>
<path d="M0,0 L1,0 L0,8 L-2,8 L-3,2 Z " fill="#BCBCBC" transform="translate(14,11)"/>
</svg>
