<?xml version="1.0" encoding="UTF-8"?>
<svg version="1.1" xmlns="http://www.w3.org/2000/svg" width="28" height="28">
<path d="M0,0 L28,0 L28,28 L0,28 Z " fill="#020202" transform="translate(0,0)"/>
<path d="M0,0 L3,0 L1,4 L-1,8 L3,11 L2,17 L-3,20 L-8,20 L-9,19 L-9,13 L-7,13 L-5,8 Z " fill="#E3E3E3" transform="translate(17,3)"/>
<path d="M0,0 L3,0 L1,4 L-1,8 L1,10 L-5,10 L-3,4 Z " fill="#D1D1D1" transform="translate(17,3)"/>
<path d="M0,0 L4,0 L3,4 L0,6 L-4,6 L-4,4 L-2,4 Z " fill="#0A0A0A" transform="translate(14,15)"/>
</svg>
