<?xml version="1.0" encoding="UTF-8"?>
<svg version="1.1" xmlns="http://www.w3.org/2000/svg" width="28" height="28">
<path d="M0,0 L28,0 L28,28 L0,28 Z " fill="#010101" transform="translate(0,0)"/>
<path d="M0,0 L4,0 L4,2 L-1,4 L-2,10 L2,11 L4,13 L3,18 L1,20 L-4,20 L-6,17 L-6,10 L-3,3 Z " fill="#DCDCDC" transform="translate(16,4)"/>
<path d="M0,0 L6,1 L5,6 L3,8 L-2,8 L-3,5 L-2,1 Z " fill="#C6C6C6" transform="translate(14,16)"/>
<path d="M0,0 L4,1 L3,5 L-1,5 Z " fill="#121212" transform="translate(14,16)"/>
</svg>
