<?xml version="1.0" encoding="UTF-8"?>
<svg version="1.1" xmlns="http://www.w3.org/2000/svg" width="28" height="28">
<path d="M0,0 L28,0 L28,28 L0,28 Z " fill="#030303" transform="translate(0,0)"/>
<path d="M0,0 L2,0 L1,4 L-6,11 L-7,15 L-4,15 L-2,11 L4,10 L7,13 L6,18 L3,20 L-5,20 L-9,18 L-10,16 L-10,10 Z " fill="#E1E1E1" transform="translate(17,2)"/>
<path d="M0,0 L2,0 L1,4 L-6,11 L-7,15 L-4,16 L-10,16 L-10,10 Z " fill="#E5E5E5" transform="translate(17,2)"/>
<path d="M0,0 L5,1 L6,5 L4,6 L4,3 L-1,3 Z " fill="#F2F2F2" transform="translate(17,12)"/>
<path d="M0,0 L4,0 L3,4 L-2,4 Z " fill="#232323" transform="translate(17,15)"/>
</svg>
