<?xml version="1.0" encoding="UTF-8"?>
<svg version="1.1" xmlns="http://www.w3.org/2000/svg" width="28" height="28">
<path d="M0,0 L28,0 L28,28 L0,28 Z " fill="#040404" transform="translate(0,0)"/>
<path d="M0,0 L3,0 L3,3 L-6,10 L-7,12 L-3,10 L3,10 L4,14 L0,19 L-8,20 L-12,18 L-13,13 L-9,8 L-1,1 Z " fill="#DFDFDF" transform="translate(19,2)"/>
<path d="M0,0 L5,1 L4,6 L1,9 L-7,10 L-11,8 L-10,3 L-8,2 L-7,4 L-4,4 L-5,7 L1,5 L2,3 L-1,3 Z " fill="#E9E9E9" transform="translate(18,12)"/>
<path d="M0,0 L4,0 L3,3 L-3,4 L-3,2 Z " fill="#232323" transform="translate(16,15)"/>
<path d="M0,0 L2,1 L-2,5 L-5,5 L-5,2 Z " fill="#ACACAC" transform="translate(16,12)"/>
</svg>
