<?xml version="1.0" encoding="UTF-8"?>
<svg version="1.1" xmlns="http://www.w3.org/2000/svg" width="28" height="28">
<path d="M0,0 L28,0 L28,28 L0,28 Z " fill="#030303" transform="translate(0,0)"/>
<path d="M0,0 L3,0 L2,3 L-4,8 L-7,15 L2,8 L7,8 L8,12 L4,19 L2,20 L-5,20 L-10,15 L-9,9 L-4,3 Z " fill="#DFDFDF" transform="translate(16,3)"/>
<path d="M0,0 L5,0 L6,4 L2,11 L0,11 L-1,9 L-5,9 L-5,7 L-7,6 Z " fill="#DBDBDB" transform="translate(18,11)"/>
<path d="M0,0 L3,0 L3,3 L1,3 L1,5 L-4,6 L-2,2 Z " fill="#181818" transform="translate(18,14)"/>
</svg>
