<?xml version="1.0" encoding="UTF-8"?>
<svg version="1.1" xmlns="http://www.w3.org/2000/svg" width="28" height="28">
<path d="M0,0 L28,0 L28,28 L0,28 Z " fill="#010101" transform="translate(0,0)"/>
<path d="M0,0 L3,0 L1,4 L-1,14 L2,12 L7,12 L8,13 L8,18 L5,20 L0,19 L-4,13 L-3,4 Z " fill="#EBEBEB" transform="translate(13,2)"/>
<path d="M0,0 L5,0 L6,1 L6,6 L3,7 L0,5 L0,1 Z " fill="#969696" transform="translate(15,14)"/>
<path d="M0,0 L3,0 L1,4 L-1,8 L-3,4 Z " fill="#C3C3C3" transform="translate(13,2)"/>
</svg>
