<?xml version="1.0" encoding="UTF-8"?>
<svg version="1.1" xmlns="http://www.w3.org/2000/svg" width="28" height="28">
<path d="M0,0 L28,0 L28,28 L0,28 Z " fill="#010101" transform="translate(0,0)"/>
<path d="M0,0 L3,1 L-2,6 L-9,13 L-9,15 L-7,16 L-6,12 L-1,8 L6,9 L6,14 L0,19 L-9,19 L-13,16 L-12,11 L-8,6 Z " fill="#E2E2E2" transform="translate(18,3)"/>
<path d="M0,0 L7,1 L7,6 L3,10 L1,10 L0,8 L-3,8 L-4,6 L-6,7 L-4,3 Z " fill="#DBDBDB" transform="translate(17,11)"/>
<path d="M0,0 Z M-2,1 L0,2 L-1,5 L-6,9 L-7,12 L-10,11 L-8,7 Z " fill="#171717" transform="translate(18,7)"/>
<path d="M0,0 L4,1 L1,4 L-4,5 L-2,1 Z " fill="#242424" transform="translate(18,14)"/>
</svg>
