<?xml version="1.0" encoding="UTF-8"?>
<svg version="1.1" xmlns="http://www.w3.org/2000/svg" width="28" height="28">
<path d="M0,0 L28,0 L28,28 L0,28 Z " fill="#030303" transform="translate(0,0)"/>
<path d="M0,0 L4,1 L-1,6 L-6,11 L-8,13 L-8,16 L-2,9 L0,8 L6,8 L6,13 L1,19 L-1,20 L-10,20 L-12,18 L-12,12 L-5,4 Z " fill="#E7E7E7" transform="translate(18,3)"/>
<path d="M0,0 L6,0 L6,5 L3,8 L-5,9 L-7,8 L-5,4 Z " fill="#DFDFDF" transform="translate(18,11)"/>
<path d="M0,0 L3,0 L1,4 L-5,6 L-4,3 Z " fill="#0B0B0B" transform="translate(18,14)"/>
</svg>
