<?xml version="1.0" encoding="UTF-8"?>
<svg version="1.1" xmlns="http://www.w3.org/2000/svg" width="28" height="28">
<path d="M0,0 L28,0 L28,28 L0,28 Z " fill="#020202" transform="translate(0,0)"/>
<path d="M0,0 L1,4 L-2,10 L-2,16 L0,17 L2,13 L5,11 L8,11 L9,16 L6,20 L-2,20 L-5,17 L-5,10 L-1,1 Z " fill="#E6E6E6" transform="translate(14,1)"/>
<path d="M0,0 L1,3 L-1,6 L-7,6 L-5,2 Z " fill="#777777" transform="translate(22,14)"/>
<path d="M0,0 L3,0 L3,3 L-2,5 L-5,4 Z " fill="#D5D5D5" transform="translate(19,12)"/>
</svg>
