<?xml version="1.0" encoding="UTF-8"?>
<svg version="1.1" xmlns="http://www.w3.org/2000/svg" width="28" height="28">
<path d="M0,0 L28,0 L28,28 L0,28 Z " fill="#020202" transform="translate(0,0)"/>
<path d="M0,0 L3,1 L3,3 L-2,5 L-4,9 L0,11 L0,17 L-3,20 L-10,19 L-11,14 L-8,8 L-2,1 Z " fill="#D1D1D1" transform="translate(19,3)"/>
<path d="M0,0 L2,0 L1,7 L6,6 L7,2 L4,1 L8,0 L9,1 L9,7 L6,10 L-1,9 L-2,4 Z " fill="#DCDCDC" transform="translate(10,13)"/>
<path d="M0,0 L1,2 L4,2 L3,7 L-2,7 L-2,2 Z " fill="#0B0B0B" transform="translate(13,13)"/>
<path d="M0,0 L2,1 L2,3 L4,4 L-1,5 L-3,3 Z " fill="#B1B1B1" transform="translate(13,9)"/>
</svg>
