<?xml version="1.0" encoding="UTF-8"?>
<svg version="1.1" xmlns="http://www.w3.org/2000/svg" width="28" height="28">
<path d="M0,0 L28,0 L28,28 L0,28 Z " fill="#020202" transform="translate(0,0)"/>
<path d="M0,0 L5,0 L6,3 L1,5 L-2,5 L-1,7 L4,8 L3,18 L1,20 L-5,20 L-7,16 L-6,9 L-1,1 Z " fill="#D9D9D9" transform="translate(15,4)"/>
<path d="M0,0 L1,0 L1,6 L-1,8 L-7,8 L-8,3 L-3,4 Z " fill="#EAEAEA" transform="translate(17,16)"/>
<path d="M0,0 L2,0 L1,6 L-3,6 L-2,2 Z " fill="#1A1A1A" transform="translate(14,14)"/>
<path d="M0,0 L5,1 L4,3 L-3,4 Z " fill="#F4F4F4" transform="translate(16,5)"/>
</svg>
