<?xml version="1.0" encoding="UTF-8"?>
<svg version="1.1" xmlns="http://www.w3.org/2000/svg" width="28" height="28">
<path d="M0,0 L28,0 L28,28 L0,28 Z " fill="#030303" transform="translate(0,0)"/>
<path d="M0,0 L3,1 L0,6 L-1,13 L2,8 L9,7 L11,9 L10,14 L5,19 L-2,20 L-4,19 L-5,10 Z " fill="#E4E4E4" transform="translate(13,3)"/>
<path d="M0,0 L5,0 L7,2 L6,7 L2,11 L-3,10 L-3,2 Z " fill="#D7D7D7" transform="translate(17,10)"/>
<path d="M0,0 L5,0 L2,5 L-3,7 L-2,2 Z " fill="#090909" transform="translate(17,13)"/>
</svg>
