<?xml version="1.0" encoding="UTF-8"?>
<svg version="1.1" xmlns="http://www.w3.org/2000/svg" width="28" height="28">
<path d="M0,0 L28,0 L28,28 L0,28 Z " fill="#010101" transform="translate(0,0)"/>
<path d="M0,0 L3,0 L1,5 L1,12 L10,12 L14,14 L13,19 L12,20 L5,20 L0,17 L-2,14 L-2,3 Z " fill="#E4E4E4" transform="translate(10,2)"/>
<path d="M0,0 L11,0 L10,5 L9,6 L2,6 L0,4 L-1,1 Z " fill="#CCCCCC" transform="translate(13,16)"/>
<path d="M0,0 L6,0 L8,1 L8,4 L2,4 L-1,1 Z " fill="#1B1B1B" transform="translate(13,16)"/>
<path d="M0,0 L3,0 L1,5 L0,11 L-1,11 L-2,3 Z " fill="#CBCBCB" transform="translate(10,2)"/>
</svg>
