<?xml version="1.0" encoding="UTF-8"?>
<svg version="1.1" xmlns="http://www.w3.org/2000/svg" width="28" height="28">
<path d="M0,0 L28,0 L28,28 L0,28 Z " fill="#020202" transform="translate(0,0)"/>
<path d="M0,0 L2,0 L0,4 L-3,12 L4,7 L9,7 L11,9 L10,16 L4,20 L-3,20 L-5,17 L-4,7 L-1,1 Z " fill="#DBDBDB" transform="translate(13,3)"/>
<path d="M0,0 L5,1 L6,3 L1,8 L-5,10 L-6,5 Z " fill="#0E0E0E" transform="translate(17,12)"/>
<path d="M0,0 L5,0 L7,2 L6,9 L2,11 L1,9 L5,5 L4,3 L-1,4 L-3,5 L-2,1 Z " fill="#BFBFBF" transform="translate(17,10)"/>
</svg>
