<?xml version="1.0" encoding="UTF-8"?>
<svg version="1.1" xmlns="http://www.w3.org/2000/svg" width="28" height="28">
<path d="M0,0 L28,0 L28,28 L0,28 Z " fill="#040404" transform="translate(0,0)"/>
<path d="M0,0 L4,0 L2,5 L-3,9 L-5,9 L-5,11 L-7,11 L-7,14 L-5,12 L-1,12 L-1,10 L4,9 L5,12 L4,15 L-1,18 L-5,19 L-12,19 L-15,18 L-14,12 L-7,6 L-5,6 L-3,2 Z " fill="#EEEEEE" transform="translate(19,3)"/>
<path d="M0,0 Z M-1,1 Z M-3,2 L-1,3 L-1,6 L-6,8 L-9,8 L-7,5 L-5,5 L-5,3 Z " fill="#252525" transform="translate(19,9)"/>
</svg>
