<?xml version="1.0" encoding="UTF-8"?>
<svg version="1.1" xmlns="http://www.w3.org/2000/svg" width="28" height="28">
<path d="M0,0 L28,0 L28,28 L0,28 Z " fill="#020202" transform="translate(0,0)"/>
<path d="M0,0 L2,0 L2,4 L-2,5 L-4,8 L-4,13 L-1,11 L5,12 L6,13 L6,18 L2,20 L-5,19 L-8,15 L-8,9 L-4,3 Z " fill="#DDDDDD" transform="translate(16,2)"/>
<path d="M0,0 L2,0 L2,4 L-2,5 L-4,8 L-4,16 L-3,19 L-7,17 L-8,15 L-8,9 L-4,3 Z " fill="#E6E6E6" transform="translate(16,2)"/>
<path d="M0,0 L3,1 L4,6 L-3,6 L-3,2 Z " fill="#838383" transform="translate(15,13)"/>
</svg>
