<?xml version="1.0" encoding="UTF-8"?>
<svg version="1.1" xmlns="http://www.w3.org/2000/svg" width="28" height="28">
<path d="M0,0 L28,0 L28,28 L0,28 Z " fill="#030303" transform="translate(0,0)"/>
<path d="M0,0 L2,0 L0,6 L-3,13 L1,12 L1,10 L6,10 L5,16 L3,16 L2,19 L-6,20 L-8,18 L-7,12 Z " fill="#EAEAEA" transform="translate(16,2)"/>
<path d="M0,0 L5,0 L4,6 L2,6 L1,9 L-4,8 L-2,4 Z " fill="#C9C9C9" transform="translate(17,12)"/>
<path d="M0,0 L3,0 L1,4 L-4,6 L-2,2 Z " fill="#101010" transform="translate(17,14)"/>
</svg>
