<?xml version="1.0" encoding="UTF-8"?>
<svg version="1.1" xmlns="http://www.w3.org/2000/svg" width="28" height="28">
<path d="M0,0 L28,0 L28,28 L0,28 Z " fill="#020202" transform="translate(0,0)"/>
<path d="M0,0 L2,1 L0,5 L-1,13 L1,13 L3,9 L5,7 L10,8 L12,11 L12,17 L8,20 L2,20 L-3,15 L-4,12 L-4,5 Z " fill="#E3E3E3" transform="translate(12,3)"/>
<path d="M0,0 L4,0 L5,6 L2,8 L-3,7 L-2,2 Z " fill="#0E0E0E" transform="translate(17,13)"/>
<path d="M0,0 L5,1 L7,4 L7,10 L4,6 L4,3 L1,3 Z " fill="#C3C3C3" transform="translate(17,10)"/>
</svg>
