<?xml version="1.0" encoding="UTF-8"?>
<svg version="1.1" xmlns="http://www.w3.org/2000/svg" width="28" height="28">
<path d="M0,0 L28,0 L28,28 L0,28 Z " fill="#030303" transform="translate(0,0)"/>
<path d="M0,0 L2,0 L2,2 L0,2 L-2,6 L-3,12 L1,9 L7,9 L9,11 L9,17 L7,20 L-5,20 L-7,18 L-7,9 L-2,1 Z " fill="#D7D7D7" transform="translate(15,2)"/>
<path d="M0,0 L2,0 L2,2 L0,2 L-2,6 L-3,10 L-5,10 L-5,16 L-3,16 L-3,18 L4,19 L4,20 L-5,20 L-7,18 L-7,9 L-2,1 Z " fill="#F0F0F0" transform="translate(15,2)"/>
<path d="M0,0 L4,0 L4,6 L2,8 L-4,7 L-3,3 Z " fill="#0D0D0D" transform="translate(17,13)"/>
<path d="M0,0 L1,4 L3,5 L1,8 L-2,8 Z " fill="#C9C9C9" transform="translate(21,14)"/>
</svg>
