<?xml version="1.0" encoding="UTF-8"?>
<svg version="1.1" xmlns="http://www.w3.org/2000/svg" width="28" height="28">
<path d="M0,0 L28,0 L28,28 L0,28 Z " fill="#030303" transform="translate(0,0)"/>
<path d="M0,0 L3,0 L1,4 L-2,8 L5,8 L4,13 L-4,18 L-11,20 L-14,18 L-13,13 L-8,8 Z " fill="#F0F0F0" transform="translate(19,3)"/>
<path d="M0,0 L3,0 L1,4 L-4,10 L-8,11 L-9,13 L-8,17 L-11,17 L-12,15 L-14,18 L-13,13 L-8,8 Z " fill="#BEBEBE" transform="translate(19,3)"/>
<path d="M0,0 L1,3 L4,3 L3,6 L-1,5 Z " fill="#F7F7F7" transform="translate(7,17)"/>
<path d="M0,0 L4,1 L-1,4 L-4,4 L-4,2 Z " fill="#313131" transform="translate(18,13)"/>
</svg>
