<?xml version="1.0" encoding="UTF-8"?>
<svg version="1.1" xmlns="http://www.w3.org/2000/svg" width="28" height="28">
<path d="M0,0 L28,0 L28,28 L0,28 Z " fill="#020202" transform="translate(0,0)"/>
<path d="M0,0 L4,1 L4,3 L-1,8 L-4,13 L2,9 L7,10 L9,12 L8,16 L3,20 L-4,20 L-7,17 L-6,8 Z " fill="#E6E6E6" transform="translate(14,3)"/>
<path d="M0,0 L6,0 L5,4 L0,8 L-2,8 L-2,6 L-5,4 Z " fill="#D9D9D9" transform="translate(17,15)"/>
<path d="M0,0 L3,0 L1,4 L-5,5 Z " fill="#181818" transform="translate(17,15)"/>
</svg>
