<?xml version="1.0" encoding="UTF-8"?>
<svg version="1.1" xmlns="http://www.w3.org/2000/svg" width="28" height="28">
<path d="M0,0 L28,0 L28,28 L0,28 Z " fill="#030303" transform="translate(0,0)"/>
<path d="M0,0 L2,0 L1,5 L-1,8 L4,10 L4,15 L-1,19 L-6,20 L-8,18 L-8,12 L-1,1 Z " fill="#F1F1F1" transform="translate(17,3)"/>
<path d="M0,0 L1,0 L1,5 L-4,9 L-7,10 L-7,8 L-9,7 L-7,3 L-4,1 Z " fill="#E7E7E7" transform="translate(20,13)"/>
<path d="M0,0 L3,0 L1,4 L-2,6 L-5,6 L-3,2 Z " fill="#171717" transform="translate(16,14)"/>
</svg>
