<?xml version="1.0" encoding="UTF-8"?>
<svg version="1.1" xmlns="http://www.w3.org/2000/svg" width="28" height="28">
<path d="M0,0 L28,0 L28,28 L0,28 Z " fill="#020202" transform="translate(0,0)"/>
<path d="M0,0 L5,1 L5,3 L-2,6 L0,10 L2,12 L2,17 L-1,20 L-7,19 L-10,16 L-9,10 L-4,2 Z " fill="#E9E9E9" transform="translate(17,4)"/>
<path d="M0,0 L2,0 L5,6 L7,3 L7,8 L4,11 L-2,10 Z " fill="#DCDCDC" transform="translate(12,13)"/>
<path d="M0,0 L2,0 L4,4 L4,7 L-1,8 Z " fill="#1E1E1E" transform="translate(12,13)"/>
</svg>
