<?xml version="1.0" encoding="UTF-8"?>
<svg version="1.1" xmlns="http://www.w3.org/2000/svg" width="28" height="28">
<path d="M0,0 L28,0 L28,28 L0,28 Z " fill="#020202" transform="translate(0,0)"/>
<path d="M0,0 L4,1 L2,5 L-2,10 L4,12 L5,16 L1,20 L-5,20 L-9,15 L-8,11 L-4,5 Z " fill="#E9E9E9" transform="translate(17,3)"/>
<path d="M0,0 L3,1 L4,5 L0,9 L-6,9 L-6,3 L0,2 Z " fill="#DCDCDC" transform="translate(18,14)"/>
<path d="M0,0 L4,0 L3,3 L-2,4 L-2,1 Z " fill="#222222" transform="translate(14,16)"/>
</svg>
