<?xml version="1.0" encoding="UTF-8"?>
<svg version="1.1" xmlns="http://www.w3.org/2000/svg" width="28" height="28">
<path d="M0,0 L28,0 L28,28 L0,28 Z " fill="#020202" transform="translate(0,0)"/>
<path d="M0,0 L3,0 L3,2 L0,3 L-3,8 L-4,12 L1,12 L4,16 L2,20 L-3,20 L-6,16 L-6,9 L-3,3 Z " fill="#B5B5B5" transform="translate(16,3)"/>
<path d="M0,0 L3,0 L3,2 L0,3 L-3,8 L-4,13 L-1,14 L-4,14 L-1,20 L-5,18 L-6,16 L-6,9 L-3,3 Z " fill="#E2E2E2" transform="translate(16,3)"/>
<path d="M0,0 L5,0 L6,4 L1,4 Z " fill="#0F0F0F" transform="translate(12,17)"/>
</svg>
