<?xml version="1.0" encoding="UTF-8"?>
<svg version="1.1" xmlns="http://www.w3.org/2000/svg" width="28" height="28">
<path d="M0,0 L28,0 L28,28 L0,28 Z " fill="#020202" transform="translate(0,0)"/>
<path d="M0,0 L1,2 L-1,6 L0,13 L4,16 L5,11 L12,12 L13,16 L10,20 L3,19 L-3,14 L-4,5 L-2,1 Z " fill="#DCDCDC" transform="translate(11,2)"/>
<path d="M0,0 L1,2 L-1,6 L0,13 L2,16 L-1,16 L-3,14 L-4,5 L-2,1 Z " fill="#CBCBCB" transform="translate(11,2)"/>
<path d="M0,0 L5,1 L4,5 L0,3 Z " fill="#161616" transform="translate(17,15)"/>
</svg>
