<?xml version="1.0" encoding="UTF-8"?>
<svg version="1.1" xmlns="http://www.w3.org/2000/svg" width="28" height="28">
<path d="M0,0 L28,0 L28,28 L0,28 Z " fill="#050505" transform="translate(0,0)"/>
<path d="M0,0 L4,0 L4,2 L-6,5 L-6,11 L-3,13 L6,7 L9,7 L9,13 L6,16 L-4,18 L-4,16 L-6,16 L-9,12 L-9,5 L-3,1 Z " fill="#C8C8C8" transform="translate(15,5)"/>
<path d="M0,0 L4,0 L4,2 L-6,5 L-6,11 L-3,15 L-7,14 L-9,12 L-9,5 L-3,1 Z " fill="#DDDDDD" transform="translate(15,5)"/>
<path d="M0,0 L3,0 L3,6 L0,9 L-9,10 L-7,6 L-6,8 L0,6 L1,3 L-2,3 L-2,1 Z " fill="#D9D9D9" transform="translate(21,12)"/>
<path d="M0,0 L2,0 L1,4 L-4,5 L-2,1 Z " fill="#1A1A1A" transform="translate(20,15)"/>
<path d="M0,0 L3,0 L3,6 L1,6 L1,3 L-2,3 L-2,1 Z " fill="#F5F5F5" transform="translate(21,12)"/>
</svg>
