<?xml version="1.0" encoding="UTF-8"?>
<svg version="1.1" xmlns="http://www.w3.org/2000/svg" width="28" height="28">
<path d="M0,0 L28,0 L28,28 L0,28 Z " fill="#020202" transform="translate(0,0)"/>
<path d="M0,0 L2,0 L0,5 L-2,12 L3,11 L6,14 L6,18 L2,20 L-2,19 L-4,17 L-4,6 Z " fill="#D4D4D4" transform="translate(15,3)"/>
<path d="M0,0 L2,0 L0,5 L-2,12 L0,13 L0,18 L-3,18 L-4,17 L-4,6 Z " fill="#E6E6E6" transform="translate(15,3)"/>
<path d="M0,0 L5,1 L4,5 L0,4 Z " fill="#1B1B1B" transform="translate(14,16)"/>
<path d="M0,0 L2,0 L0,5 L-1,8 L-4,9 L-3,4 Z " fill="#CFCFCF" transform="translate(15,3)"/>
</svg>
