<?xml version="1.0" encoding="UTF-8"?>
<svg version="1.1" xmlns="http://www.w3.org/2000/svg" width="28" height="28">
<path d="M0,0 L28,0 L28,28 L0,28 Z " fill="#040404" transform="translate(0,0)"/>
<path d="M0,0 L7,0 L8,4 L6,5 L6,2 L-1,4 L-4,7 L-3,15 L-1,16 L-1,18 L1,18 L1,10 L3,7 L9,7 L11,9 L10,14 L6,18 L3,20 L-2,20 L-6,14 L-7,7 L-4,2 Z " fill="#DADADA" transform="translate(13,4)"/>
<path d="M0,0 L6,0 L8,2 L7,7 L4,10 L0,9 L-1,1 Z " fill="#D0D0D0" transform="translate(16,11)"/>
<path d="M0,0 L2,0 L2,6 L6,7 L2,10 L-1,10 Z " fill="#F1F1F1" transform="translate(14,14)"/>
<path d="M0,0 L4,1 L2,6 L-2,7 L-2,2 Z " fill="#0F0F0F" transform="translate(18,13)"/>
</svg>
