<?xml version="1.0" encoding="UTF-8"?>
<svg version="1.1" xmlns="http://www.w3.org/2000/svg" width="28" height="28">
<path d="M0,0 L28,0 L28,28 L0,28 Z " fill="#020202" transform="translate(0,0)"/>
<path d="M0,0 L2,0 L0,6 L-3,11 L-3,12 L2,12 L3,17 L-1,20 L-6,19 L-7,18 L-6,9 L-1,1 Z " fill="#E2E2E2" transform="translate(17,3)"/>
<path d="M0,0 L3,3 L2,5 L6,1 L4,0 L9,1 L9,4 L5,7 L0,6 L-1,1 Z " fill="#EDEDED" transform="translate(11,16)"/>
<path d="M0,0 L5,0 L1,6 L-1,6 L-2,1 Z " fill="#7B7B7B" transform="translate(14,15)"/>
</svg>
