<?xml version="1.0" encoding="UTF-8"?>
<svg version="1.1" xmlns="http://www.w3.org/2000/svg" width="28" height="28">
<path d="M0,0 L28,0 L28,28 L0,28 Z " fill="#040404" transform="translate(0,0)"/>
<path d="M0,0 L3,0 L1,6 L-2,7 L-4,10 L-4,15 L1,11 L6,9 L10,10 L11,14 L6,19 L-3,20 L-7,18 L-7,9 L-3,3 Z " fill="#E3E3E3" transform="translate(14,2)"/>
<path d="M0,0 L4,1 L5,5 L0,10 L-2,10 L-2,8 L-7,8 L-8,5 L-5,2 Z " fill="#DBDBDB" transform="translate(20,11)"/>
<path d="M0,0 L4,0 L2,4 L1,5 L-5,5 Z " fill="#0C0C0C" transform="translate(18,14)"/>
</svg>
