<?xml version="1.0" encoding="UTF-8"?>
<svg version="1.1" xmlns="http://www.w3.org/2000/svg" width="28" height="28">
<path d="M0,0 L28,0 L28,28 L0,28 Z " fill="#040404" transform="translate(0,0)"/>
<path d="M0,0 L2,0 L1,4 L-7,12 L-8,15 L-3,12 L3,7 L9,6 L8,12 L5,15 L0,17 L-10,17 L-11,12 L-8,7 L-3,3 L-1,3 Z " fill="#E5E5E5" transform="translate(16,4)"/>
<path d="M0,0 L3,0 L2,6 L-2,9 L-6,8 L-5,5 Z " fill="#9A9A9A" transform="translate(22,10)"/>
<path d="M0,0 L2,1 L-2,5 L-4,8 L-5,4 Z " fill="#D3D3D3" transform="translate(19,11)"/>
</svg>
