<?xml version="1.0" encoding="UTF-8"?>
<svg version="1.1" xmlns="http://www.w3.org/2000/svg" width="28" height="28">
<path d="M0,0 L28,0 L28,28 L0,28 Z " fill="#030303" transform="translate(0,0)"/>
<path d="M0,0 L2,1 L-2,7 L-5,8 L-7,12 L-9,17 L-4,14 L3,8 L7,7 L8,12 L2,17 L-3,19 L-11,19 L-12,14 L-5,5 L-2,4 L-2,2 L0,2 Z " fill="#DCDCDC" transform="translate(17,3)"/>
<path d="M0,0 L3,1 L2,6 L-3,10 L-7,8 L-11,10 L-5,3 Z " fill="#B1B1B1" transform="translate(22,10)"/>
<path d="M0,0 L1,2 L3,3 L-1,5 L-7,5 L-7,3 L-1,1 Z " fill="#F5F5F5" transform="translate(15,17)"/>
<path d="M0,0 L3,1 L2,6 L1,3 L-3,4 L-2,1 Z " fill="#EBEBEB" transform="translate(22,10)"/>
</svg>
