<?xml version="1.0" encoding="UTF-8"?>
<svg version="1.1" xmlns="http://www.w3.org/2000/svg" width="28" height="28">
<path d="M0,0 L28,0 L28,28 L0,28 Z " fill="#050505" transform="translate(0,0)"/>
<path d="M0,0 L4,2 L3,9 L-2,11 L-3,13 L-12,10 L-14,6 L-10,8 L-5,10 L-4,3 Z " fill="#B9B9B9" transform="translate(20,8)"/>
<path d="M0,0 L3,0 L4,3 L1,8 L-2,8 L-2,2 Z " fill="#050505" transform="translate(19,10)"/>
<path d="M0,0 L4,2 L9,3 L10,5 L6,6 L0,2 Z " fill="#9E9E9E" transform="translate(6,14)"/>
</svg>
