<?xml version="1.0" encoding="UTF-8"?>
<svg version="1.1" xmlns="http://www.w3.org/2000/svg" width="28" height="28">
<path d="M0,0 L28,0 L28,28 L0,28 Z " fill="#030303" transform="translate(0,0)"/>
<path d="M0,0 L1,4 L-8,15 L-8,17 L0,10 L6,9 L5,13 L2,16 L-8,20 L-12,19 L-11,14 L-2,3 Z " fill="#DADADA" transform="translate(18,2)"/>
<path d="M0,0 L4,0 L3,4 L0,7 L-7,6 L-2,1 Z " fill="#8F8F8F" transform="translate(20,11)"/>
<path d="M0,0 L4,0 L3,4 L0,7 L-3,6 L1,3 L-1,1 Z " fill="#D8D8D8" transform="translate(20,11)"/>
</svg>
