<?xml version="1.0" encoding="UTF-8"?>
<svg version="1.1" xmlns="http://www.w3.org/2000/svg" width="28" height="28">
<path d="M0,0 L28,0 L28,28 L0,28 Z " fill="#010101" transform="translate(0,0)"/>
<path d="M0,0 L0,3 L-2,3 L-3,8 L-4,10 L3,11 L4,16 L2,19 L-4,20 L-7,17 L-6,7 L-2,1 Z " fill="#D5D5D5" transform="translate(17,3)"/>
<path d="M0,0 L0,3 L-2,3 L-3,8 L-4,10 L1,10 L1,12 L-6,13 L-6,7 L-2,1 Z " fill="#D6D6D6" transform="translate(17,3)"/>
<path d="M0,0 L4,0 L5,3 L1,6 L-2,5 L-1,1 Z " fill="#0A0A0A" transform="translate(14,15)"/>
<path d="M0,0 L2,0 L3,5 L1,8 L-3,6 L0,3 Z " fill="#B4B4B4" transform="translate(18,14)"/>
</svg>
