<?xml version="1.0" encoding="UTF-8"?>
<svg version="1.1" xmlns="http://www.w3.org/2000/svg" width="28" height="28">
<path d="M0,0 L28,0 L28,28 L0,28 Z " fill="#030303" transform="translate(0,0)"/>
<path d="M0,0 L2,0 L0,6 L-2,11 L-2,16 L1,17 L2,11 L7,6 L11,6 L11,12 L6,19 L-2,20 L-6,15 L-5,8 L-2,3 Z " fill="#D0D0D0" transform="translate(12,3)"/>
<path d="M0,0 L4,0 L4,6 L1,6 L2,2 L0,2 Z " fill="#F0F0F0" transform="translate(19,9)"/>
<path d="M0,0 L2,1 L-2,7 L-4,7 L-2,2 Z " fill="#1C1C1C" transform="translate(19,12)"/>
<path d="M0,0 L1,0 L3,8 L0,8 L-1,7 L-1,1 Z " fill="#EEEEEE" transform="translate(8,13)"/>
</svg>
