<?xml version="1.0" encoding="UTF-8"?>
<svg version="1.1" xmlns="http://www.w3.org/2000/svg" width="28" height="28">
<path d="M0,0 L28,0 L28,28 L0,28 Z " fill="#040404" transform="translate(0,0)"/>
<path d="M0,0 L2,0 L0,8 L-3,14 L3,12 L10,12 L11,15 L10,17 L8,17 L8,19 L5,20 L-2,20 L-5,18 L-5,9 Z " fill="#ECECEC" transform="translate(13,1)"/>
<path d="M0,0 L2,0 L0,8 L-2,10 L-5,11 L-3,6 Z " fill="#E3E3E3" transform="translate(13,1)"/>
<path d="M0,0 L4,0 L4,2 L1,4 L-4,4 L-4,2 Z " fill="#252525" transform="translate(17,15)"/>
</svg>
