<?xml version="1.0" encoding="UTF-8"?>
<svg version="1.1" xmlns="http://www.w3.org/2000/svg" width="28" height="28">
<path d="M0,0 L28,0 L28,28 L0,28 Z " fill="#050505" transform="translate(0,0)"/>
<path d="M0,0 L2,0 L3,10 L5,8 L13,8 L15,10 L14,16 L11,17 L11,19 L2,20 L-1,18 L-2,7 Z " fill="#EAEAEA" transform="translate(9,3)"/>
<path d="M0,0 L6,0 L8,2 L7,8 L3,7 L5,3 L-3,5 L-1,1 Z " fill="#F0F0F0" transform="translate(16,11)"/>
<path d="M0,0 L6,0 L5,4 L1,6 L-4,5 L-4,3 Z " fill="#262626" transform="translate(15,14)"/>
</svg>
