<?xml version="1.0" encoding="UTF-8"?>
<svg version="1.1" xmlns="http://www.w3.org/2000/svg" width="28" height="28">
<path d="M0,0 L28,0 L28,28 L0,28 Z " fill="#010101" transform="translate(0,0)"/>
<path d="M0,0 L2,1 L1,6 L-2,9 L-3,12 L3,12 L4,16 L3,14 L-3,14 L-1,19 L-5,17 L-5,9 L-1,4 Z " fill="#E0E0E0" transform="translate(15,2)"/>
<path d="M0,0 L1,4 L-1,7 L-7,7 L-5,6 L-7,1 L-1,1 Z " fill="#BABABA" transform="translate(19,15)"/>
<path d="M0,0 L6,0 L4,4 L0,2 Z " fill="#0E0E0E" transform="translate(12,16)"/>
</svg>
