<?xml version="1.0" encoding="UTF-8"?>
<svg version="1.1" xmlns="http://www.w3.org/2000/svg" width="28" height="28">
<path d="M0,0 L28,0 L28,28 L0,28 Z " fill="#010101" transform="translate(0,0)"/>
<path d="M0,0 L1,2 L-4,9 L2,11 L1,17 L-4,20 L-9,19 L-10,18 L-10,12 L-5,4 Z " fill="#C7C7C7" transform="translate(19,3)"/>
<path d="M0,0 L5,1 L5,4 L2,6 L-3,5 L-1,1 Z " fill="#1B1B1B" transform="translate(14,15)"/>
<path d="M0,0 L1,2 L-4,9 L-3,11 L-9,12 L-7,7 L-2,2 Z " fill="#C0C0C0" transform="translate(19,3)"/>
<path d="M0,0 L6,0 L6,2 L1,4 L-3,5 L-3,2 Z " fill="#F4F4F4" transform="translate(12,13)"/>
</svg>
