<?xml version="1.0" encoding="UTF-8"?>
<svg version="1.1" xmlns="http://www.w3.org/2000/svg" width="28" height="28">
<path d="M0,0 L28,0 L28,28 L0,28 Z " fill="#050505" transform="translate(0,0)"/>
<path d="M0,0 L2,0 L1,4 L-2,8 L-4,8 L-5,13 L0,12 L3,15 L2,19 L-7,20 L-9,17 L-9,11 L-5,5 Z " fill="#F0F0F0" transform="translate(18,3)"/>
<path d="M0,0 L2,0 L1,4 L-2,8 L-4,8 L-6,15 L-9,13 L-7,7 Z " fill="#EFEFEF" transform="translate(18,3)"/>
<path d="M0,0 L3,2 L2,6 L-2,5 L-4,4 L-3,1 Z " fill="#A4A4A4" transform="translate(18,16)"/>
</svg>
