<?xml version="1.0" encoding="UTF-8"?>
<svg version="1.1" xmlns="http://www.w3.org/2000/svg" width="28" height="28">
<path d="M0,0 L28,0 L28,28 L0,28 Z " fill="#030303" transform="translate(0,0)"/>
<path d="M0,0 L2,0 L0,5 L-3,9 L-2,14 L1,15 L3,11 L6,9 L10,10 L9,15 L5,18 L5,20 L1,19 L-6,14 L-5,7 Z " fill="#E4E4E4" transform="translate(13,3)"/>
<path d="M0,0 L2,0 L0,5 L-3,9 L-3,15 L-6,14 L-5,7 Z " fill="#DCDCDC" transform="translate(13,3)"/>
<path d="M0,0 L4,1 L3,6 L1,7 L-2,6 L-2,2 Z " fill="#989898" transform="translate(19,12)"/>
</svg>
