<?xml version="1.0" encoding="UTF-8"?>
<svg version="1.1" xmlns="http://www.w3.org/2000/svg" width="28" height="28">
<path d="M0,0 L28,0 L28,28 L0,28 Z " fill="#030303" transform="translate(0,0)"/>
<path d="M0,0 L3,0 L3,2 L-3,4 L-5,10 L-5,14 L-4,13 L2,13 L3,17 L-1,20 L-6,19 L-8,17 L-8,10 L-5,4 Z " fill="#E5E5E5" transform="translate(17,3)"/>
<path d="M0,0 L3,0 L3,2 L-3,4 L-6,14 L-8,17 L-8,10 L-5,4 Z " fill="#D6D6D6" transform="translate(17,3)"/>
<path d="M0,0 L4,1 L4,3 L-2,4 L-2,2 L0,2 Z " fill="#3A3A3A" transform="translate(14,17)"/>
</svg>
