<?xml version="1.0" encoding="UTF-8"?>
<svg version="1.1" xmlns="http://www.w3.org/2000/svg" width="28" height="28">
<path d="M0,0 L28,0 L28,28 L0,28 Z " fill="#030303" transform="translate(0,0)"/>
<path d="M0,0 L3,1 L3,3 L-2,7 L-5,14 L0,11 L4,12 L4,17 L0,20 L-6,20 L-8,17 L-8,10 L-2,1 Z " fill="#DFDFDF" transform="translate(17,2)"/>
<path d="M0,0 L4,1 L4,6 L0,9 L-2,9 L-3,5 Z " fill="#CFCFCF" transform="translate(17,13)"/>
<path d="M0,0 L1,3 L5,0 L7,1 L5,4 L6,6 L5,8 L0,7 L-1,1 Z " fill="#FAFAFA" transform="translate(10,14)"/>
</svg>
