<?xml version="1.0" encoding="UTF-8"?>
<svg version="1.1" xmlns="http://www.w3.org/2000/svg" width="28" height="28">
<path d="M0,0 L28,0 L28,28 L0,28 Z " fill="#030303" transform="translate(0,0)"/>
<path d="M0,0 L2,1 L-5,9 L-9,14 L-10,16 L-7,15 L-3,10 L4,9 L3,14 L-2,18 L-2,20 L-7,19 L-12,17 L-11,12 L-6,6 L-4,6 L-2,2 Z " fill="#E1E1E1" transform="translate(18,2)"/>
<path d="M0,0 L2,0 L3,3 L-3,7 L-6,6 L-4,2 Z " fill="#797979" transform="translate(19,12)"/>
<path d="M0,0 L2,1 L-3,7 L-6,6 L-4,6 L-2,2 Z " fill="#C4C4C4" transform="translate(18,2)"/>
</svg>
