<?xml version="1.0" encoding="UTF-8"?>
<svg version="1.1" xmlns="http://www.w3.org/2000/svg" width="28" height="28">
<path d="M0,0 L28,0 L28,28 L0,28 Z " fill="#030303" transform="translate(0,0)"/>
<path d="M0,0 L2,0 L1,5 L-2,9 L-2,13 L4,8 L10,7 L10,14 L5,19 L-2,20 L-5,17 L-6,12 L-4,5 Z " fill="#DEDEDE" transform="translate(13,3)"/>
<path d="M0,0 L2,0 L1,5 L-2,9 L-3,15 L1,12 L3,13 L0,17 L4,17 L4,19 L-2,20 L-5,17 L-6,12 L-4,5 Z " fill="#D5D5D5" transform="translate(13,3)"/>
<path d="M0,0 L1,3 L6,0 L8,1 L5,5 L9,5 L9,7 L3,8 L0,5 Z " fill="#F0F0F0" transform="translate(8,15)"/>
<path d="M0,0 L3,0 L1,4 L-4,5 L-2,1 Z " fill="#0D0D0D" transform="translate(18,14)"/>
</svg>
