<?xml version="1.0" encoding="UTF-8"?>
<svg version="1.1" xmlns="http://www.w3.org/2000/svg" width="28" height="28">
<path d="M0,0 L28,0 L28,28 L0,28 Z " fill="#020202" transform="translate(0,0)"/>
<path d="M0,0 L2,1 L0,6 L-1,10 L2,9 L4,12 L4,18 L3,20 L-6,20 L-7,12 L-2,2 Z " fill="#D8D8D8" transform="translate(16,2)"/>
<path d="M0,0 L3,3 L3,9 L2,11 L-3,11 L1,4 L-3,5 L-2,1 Z " fill="#E8E8E8" transform="translate(17,11)"/>
<path d="M0,0 L2,1 L0,6 L-2,8 L-5,9 L-3,4 Z " fill="#E3E3E3" transform="translate(16,2)"/>
<path d="M0,0 L6,0 L5,4 L0,5 Z " fill="#181818" transform="translate(12,15)"/>
</svg>
