<?xml version="1.0" encoding="UTF-8"?>
<svg version="1.1" xmlns="http://www.w3.org/2000/svg" width="28" height="28">
<path d="M0,0 L28,0 L28,28 L0,28 Z " fill="#020202" transform="translate(0,0)"/>
<path d="M0,0 L2,0 L2,5 L-1,9 L-1,11 L2,13 L2,18 L0,20 L-4,20 L-7,14 L-7,12 L-5,12 L-4,7 L0,3 Z " fill="#D7D7D7" transform="translate(16,3)"/>
<path d="M0,0 L3,1 L3,6 L1,8 L-3,7 L-3,4 L-3,1 Z " fill="#858585" transform="translate(15,15)"/>
<path d="M0,0 L2,3 L2,5 L-1,5 L0,10 L2,11 L-2,10 L-3,5 Z " fill="#F1F1F1" transform="translate(13,11)"/>
</svg>
