<?xml version="1.0" encoding="UTF-8"?>
<svg version="1.1" xmlns="http://www.w3.org/2000/svg" width="28" height="28">
<path d="M0,0 L28,0 L28,28 L0,28 Z " fill="#010101" transform="translate(0,0)"/>
<path d="M0,0 L2,0 L1,5 L-1,8 L4,9 L6,12 L6,16 L4,16 L4,18 L0,20 L-5,19 L-6,18 L-6,11 L-1,1 Z " fill="#D5D5D5" transform="translate(15,3)"/>
<path d="M0,0 L4,2 L4,6 L2,6 L2,8 L-2,10 L-6,10 L-5,7 L0,5 Z " fill="#DEDEDE" transform="translate(17,13)"/>
<path d="M0,0 L5,1 L4,5 L-1,7 L-2,2 Z " fill="#131313" transform="translate(13,14)"/>
</svg>
