<?xml version="1.0" encoding="UTF-8"?>
<svg version="1.1" xmlns="http://www.w3.org/2000/svg" width="28" height="28">
<path d="M0,0 L28,0 L28,28 L0,28 Z " fill="#020202" transform="translate(0,0)"/>
<path d="M0,0 L2,0 L1,4 L1,13 L4,15 L6,11 L12,9 L15,12 L14,17 L12,19 L6,20 L-2,15 L-3,13 L-3,5 Z " fill="#ECECEC" transform="translate(10,2)"/>
<path d="M0,0 L4,1 L5,7 L2,10 L-1,9 L-4,8 L-3,1 Z " fill="#D2D2D2" transform="translate(20,11)"/>
<path d="M0,0 L4,0 L3,4 L-3,5 L-2,1 Z " fill="#151515" transform="translate(19,14)"/>
<path d="M0,0 L2,0 L0,12 L-1,12 L-2,7 L-3,5 Z " fill="#BEBEBE" transform="translate(10,2)"/>
</svg>
