<?xml version="1.0" encoding="UTF-8"?>
<svg version="1.1" xmlns="http://www.w3.org/2000/svg" width="28" height="28">
<path d="M0,0 L28,0 L28,28 L0,28 Z " fill="#020202" transform="translate(0,0)"/>
<path d="M0,0 L3,1 L6,15 L11,17 L12,12 L16,13 L17,14 L17,19 L15,20 L8,20 L2,15 L0,8 Z " fill="#F3F3F3" transform="translate(6,1)"/>
<path d="M0,0 L3,1 L5,15 L2,15 L0,8 Z " fill="#D0D0D0" transform="translate(6,1)"/>
<path d="M0,0 L4,1 L5,3 L3,3 L3,5 L1,5 L-1,1 Z " fill="#CBCBCB" transform="translate(18,13)"/>
</svg>
