<?xml version="1.0" encoding="UTF-8"?>
<svg version="1.1" xmlns="http://www.w3.org/2000/svg" width="28" height="28">
<path d="M0,0 L28,0 L28,28 L0,28 Z " fill="#030303" transform="translate(0,0)"/>
<path d="M0,0 L6,0 L5,2 L1,3 L0,10 L8,9 L11,11 L10,19 L4,20 L-2,17 L-3,12 L-3,5 L-2,1 Z " fill="#E5E5E5" transform="translate(11,3)"/>
<path d="M0,0 L6,0 L5,2 L1,3 L-2,12 L-3,12 L-3,5 L-2,1 Z " fill="#D1D1D1" transform="translate(11,3)"/>
<path d="M0,0 L3,1 L2,5 L-3,6 L-4,2 Z " fill="#0E0E0E" transform="translate(17,14)"/>
<path d="M0,0 L1,3 L3,3 L4,1 L5,3 L8,5 L4,6 L0,4 Z " fill="#B1B1B1" transform="translate(9,16)"/>
</svg>
