<?xml version="1.0" encoding="UTF-8"?>
<svg version="1.1" xmlns="http://www.w3.org/2000/svg" width="28" height="28">
<path d="M0,0 L28,0 L28,28 L0,28 Z " fill="#020202" transform="translate(0,0)"/>
<path d="M0,0 L2,0 L-1,9 L-4,16 L3,11 L6,11 L7,16 L1,20 L-5,18 L-6,17 L-6,11 Z " fill="#A6A6A6" transform="translate(15,2)"/>
<path d="M0,0 L2,0 L-1,9 L-4,16 L-5,16 L-5,9 Z " fill="#E1E1E1" transform="translate(15,2)"/>
<path d="M0,0 L3,0 L4,5 L-2,9 L-5,8 L-4,5 L2,5 L2,2 L0,2 Z " fill="#E8E8E8" transform="translate(18,13)"/>
</svg>
