<?xml version="1.0" encoding="UTF-8"?>
<svg version="1.1" xmlns="http://www.w3.org/2000/svg" width="28" height="28">
<path d="M0,0 L28,0 L28,28 L0,28 Z " fill="#010101" transform="translate(0,0)"/>
<path d="M0,0 L4,0 L2,5 L-1,5 L-6,12 L-7,17 L-5,17 L-5,12 L-2,8 L3,8 L6,11 L5,17 L-1,20 L-8,19 L-10,17 L-10,11 L-4,3 Z " fill="#F4F4F4" transform="translate(17,3)"/>
<path d="M0,0 L4,0 L2,5 L-1,5 L-6,12 L-7,17 L-5,17 L-5,12 L-4,12 L-4,18 L-6,20 L-10,17 L-10,11 L-4,3 Z " fill="#DADADA" transform="translate(17,3)"/>
<path d="M0,0 L1,4 L-4,9 L-5,14 L-7,14 L-6,7 Z " fill="#232323" transform="translate(17,6)"/>
<path d="M0,0 L4,1 L3,6 L-1,7 L-1,1 Z " fill="#0E0E0E" transform="translate(16,13)"/>
<path d="M0,0 L1,4 L-3,8 L-8,7 L-7,5 L-3,4 L-1,1 Z " fill="#D5D5D5" transform="translate(22,14)"/>
</svg>
