<?xml version="1.0" encoding="UTF-8"?>
<svg version="1.1" xmlns="http://www.w3.org/2000/svg" width="28" height="28">
<path d="M0,0 L28,0 L28,28 L0,28 Z " fill="#020202" transform="translate(0,0)"/>
<path d="M0,0 L3,1 L0,5 L0,14 L7,13 L13,12 L16,15 L15,18 L11,20 L4,19 L-2,15 L-4,11 L-3,4 Z " fill="#9C9C9C" transform="translate(10,2)"/>
<path d="M0,0 L3,1 L0,5 L0,14 L5,15 L2,18 L-3,13 L-4,7 L-1,1 Z " fill="#DDDDDD" transform="translate(10,2)"/>
<path d="M0,0 L6,1 L7,5 L2,7 L4,2 L0,3 L-2,1 Z " fill="#E3E3E3" transform="translate(19,14)"/>
</svg>
