<?xml version="1.0" encoding="UTF-8"?>
<svg version="1.1" xmlns="http://www.w3.org/2000/svg" width="28" height="28">
<path d="M0,0 L28,0 L28,28 L0,28 Z " fill="#020202" transform="translate(0,0)"/>
<path d="M0,0 L2,0 L1,6 L-4,13 L2,13 L4,15 L3,19 L1,20 L-7,20 L-8,19 L-8,13 L-1,3 Z " fill="#DBDBDB" transform="translate(17,2)"/>
<path d="M0,0 L4,1 L5,5 L0,7 L-3,5 L-2,2 L0,2 Z " fill="#8E8E8E" transform="translate(16,15)"/>
<path d="M0,0 L2,0 L2,2 L-1,5 L3,6 L2,7 L-4,7 L-5,3 Z " fill="#F5F5F5" transform="translate(14,15)"/>
</svg>
