<?xml version="1.0" encoding="UTF-8"?>
<svg version="1.1" xmlns="http://www.w3.org/2000/svg" width="28" height="28">
<path d="M0,0 L28,0 L28,28 L0,28 Z " fill="#020202" transform="translate(0,0)"/>
<path d="M0,0 L2,0 L0,6 L-2,11 L2,12 L1,17 L-2,20 L-7,20 L-8,15 L-5,8 Z " fill="#858585" transform="translate(17,2)"/>
<path d="M0,0 L2,4 L0,7 L5,4 L7,2 L6,6 L3,9 L-2,9 L-3,4 Z " fill="#E9E9E9" transform="translate(12,13)"/>
<path d="M0,0 L2,0 L0,6 L-3,10 L-5,10 L-3,5 Z " fill="#DADADA" transform="translate(17,2)"/>
</svg>
