<?xml version="1.0" encoding="UTF-8"?>
<svg version="1.1" xmlns="http://www.w3.org/2000/svg" width="28" height="28">
<path d="M0,0 L28,0 L28,28 L0,28 Z " fill="#020202" transform="translate(0,0)"/>
<path d="M0,0 L2,0 L0,4 L-2,7 L-2,14 L0,14 L2,13 L8,13 L9,18 L7,20 L0,20 L-5,15 L-5,6 Z " fill="#DCDCDC" transform="translate(14,2)"/>
<path d="M0,0 L2,0 L0,4 L-2,7 L-4,15 L-5,15 L-5,6 Z " fill="#DADADA" transform="translate(14,2)"/>
<path d="M0,0 L4,2 L4,4 L-4,4 L-4,2 Z " fill="#191919" transform="translate(18,16)"/>
</svg>
