<?xml version="1.0" encoding="UTF-8"?>
<svg version="1.1" xmlns="http://www.w3.org/2000/svg" width="28" height="28">
<path d="M0,0 L28,0 L28,28 L0,28 Z " fill="#030303" transform="translate(0,0)"/>
<path d="M0,0 L1,3 L-4,8 L-6,16 L1,11 L5,12 L6,17 L2,20 L-5,20 L-8,17 L-8,10 L-4,4 Z " fill="#DFDFDF" transform="translate(16,2)"/>
<path d="M0,0 L1,3 L-4,8 L-6,15 L-8,13 L-7,8 Z " fill="#D3D3D3" transform="translate(16,2)"/>
<path d="M0,0 L4,1 L5,6 L3,6 L3,3 L-3,3 Z " fill="#E2E2E2" transform="translate(17,13)"/>
<path d="M0,0 L3,0 L3,3 L-3,4 L-2,1 Z " fill="#1F1F1F" transform="translate(17,16)"/>
</svg>
