<?xml version="1.0" encoding="UTF-8"?>
<svg version="1.1" xmlns="http://www.w3.org/2000/svg" width="28" height="28">
<path d="M0,0 L28,0 L28,28 L0,28 Z " fill="#030303" transform="translate(0,0)"/>
<path d="M0,0 L2,0 L1,4 L-2,8 L-2,11 L4,10 L7,12 L7,17 L3,20 L-5,19 L-7,18 L-7,10 L-2,2 Z " fill="#DFDFDF" transform="translate(15,2)"/>
<path d="M0,0 L2,0 L1,4 L-2,8 L-4,13 L-7,12 L-5,6 Z " fill="#D0D0D0" transform="translate(15,2)"/>
<path d="M0,0 L4,1 L4,5 L-4,5 L-3,2 Z " fill="#171717" transform="translate(15,14)"/>
<path d="M0,0 L2,2 L-1,4 L-6,4 L-7,1 Z " fill="#CBCBCB" transform="translate(19,18)"/>
<path d="M0,0 L1,3 L3,4 L4,8 L-1,7 L-1,1 Z " fill="#F7F7F7" transform="translate(9,13)"/>
</svg>
