<?xml version="1.0" encoding="UTF-8"?>
<svg version="1.1" xmlns="http://www.w3.org/2000/svg" width="28" height="28">
<path d="M0,0 L28,0 L28,28 L0,28 Z " fill="#030303" transform="translate(0,0)"/>
<path d="M0,0 L1,4 L-6,14 L-7,18 L-4,16 L-1,12 L5,11 L5,16 L-1,20 L-8,20 L-9,19 L-9,13 Z " fill="#E1E1E1" transform="translate(17,2)"/>
<path d="M0,0 L1,4 L-6,14 L-8,19 L-9,19 L-9,13 Z " fill="#E2E2E2" transform="translate(17,2)"/>
<path d="M0,0 L3,0 L3,5 L0,7 L-3,6 L-2,3 L0,3 Z " fill="#ADADAD" transform="translate(19,13)"/>
</svg>
