<?xml version="1.0" encoding="UTF-8"?>
<svg version="1.1" xmlns="http://www.w3.org/2000/svg" width="28" height="28">
<path d="M0,0 L28,0 L28,28 L0,28 Z " fill="#020202" transform="translate(0,0)"/>
<path d="M0,0 L4,0 L5,4 L2,5 L2,3 L-1,6 L-3,11 L-3,16 L2,12 L7,13 L8,18 L6,20 L-2,20 L-6,15 L-5,6 Z " fill="#EBEBEB" transform="translate(14,3)"/>
<path d="M0,0 L5,1 L6,6 L4,7 L-2,6 L-1,1 Z " fill="#CECECE" transform="translate(16,15)"/>
<path d="M0,0 L4,0 L5,4 L2,5 L2,3 L-1,6 L-3,11 L-5,8 L-3,3 Z " fill="#BEBEBE" transform="translate(14,3)"/>
<path d="M0,0 L4,1 L4,3 L-2,4 Z " fill="#161616" transform="translate(16,17)"/>
</svg>
