<?xml version="1.0" encoding="UTF-8"?>
<svg version="1.1" xmlns="http://www.w3.org/2000/svg" width="28" height="28">
<path d="M0,0 L28,0 L28,28 L0,28 Z " fill="#030303" transform="translate(0,0)"/>
<path d="M0,0 L4,0 L4,2 L-1,5 L-2,6 L7,8 L9,10 L9,16 L6,19 L-1,20 L-5,18 L-7,14 L-6,6 L-2,1 Z " fill="#E7E7E7" transform="translate(14,4)"/>
<path d="M0,0 L6,0 L8,2 L8,7 L7,8 L0,8 L-2,6 L-2,1 Z " fill="#080808" transform="translate(12,13)"/>
<path d="M0,0 L4,0 L4,2 L-1,5 L-4,5 L-2,1 Z M-5,5 Z " fill="#CDCDCD" transform="translate(14,4)"/>
<path d="M0,0 L4,1 L5,4 L3,4 L2,7 Z " fill="#C0C0C0" transform="translate(18,12)"/>
</svg>
