<?xml version="1.0" encoding="UTF-8"?>
<svg version="1.1" xmlns="http://www.w3.org/2000/svg" width="28" height="28">
<path d="M0,0 L28,0 L28,28 L0,28 Z " fill="#050505" transform="translate(0,0)"/>
<path d="M0,0 L5,0 L8,3 L8,5 L5,4 L5,2 L-1,5 L-3,9 L-3,16 L0,16 L0,11 L2,9 L7,10 L8,11 L8,18 L6,18 L6,20 L0,20 L-4,18 L-6,15 L-6,8 L-2,2 Z " fill="#E8E8E8" transform="translate(13,3)"/>
<path d="M0,0 L5,0 L5,7 L3,7 L3,9 L-1,9 L-1,1 Z " fill="#DADADA" transform="translate(16,14)"/>
<path d="M0,0 L3,0 L3,5 L-1,4 Z " fill="#0E0E0E" transform="translate(16,14)"/>
</svg>
