<?xml version="1.0" encoding="UTF-8"?>
<svg version="1.1" xmlns="http://www.w3.org/2000/svg" width="28" height="28">
<path d="M0,0 L28,0 L28,28 L0,28 Z " fill="#020202" transform="translate(0,0)"/>
<path d="M0,0 L2,0 L0,5 L-6,13 L-2,11 L3,11 L2,15 L-2,18 L-5,18 L-5,20 L-11,19 L-10,14 L-1,1 Z " fill="#CACACA" transform="translate(19,2)"/>
<path d="M0,0 L1,3 L-4,7 L-7,7 L-8,9 L-7,4 Z " fill="#909090" transform="translate(21,13)"/>
<path d="M0,0 L4,1 L-3,5 L-4,9 L-8,7 L-6,7 L-5,3 Z " fill="#EFEFEF" transform="translate(17,13)"/>
</svg>
