<?xml version="1.0" encoding="UTF-8"?>
<svg version="1.1" xmlns="http://www.w3.org/2000/svg" width="28" height="28">
<path d="M0,0 L28,0 L28,28 L0,28 Z " fill="#040404" transform="translate(0,0)"/>
<path d="M0,0 L2,0 L1,5 L-1,13 L0,16 L2,16 L1,10 L4,7 L9,7 L11,9 L10,17 L4,20 L-1,20 L-3,16 L-3,6 Z " fill="#E3E3E3" transform="translate(11,3)"/>
<path d="M0,0 L2,1 L1,9 L-2,9 L-2,7 L-5,6 L-5,2 Z " fill="#CDCDCD" transform="translate(20,11)"/>
<path d="M0,0 L5,0 L4,4 L0,4 Z " fill="#171717" transform="translate(15,13)"/>
</svg>
