<?xml version="1.0" encoding="UTF-8"?>
<svg version="1.1" xmlns="http://www.w3.org/2000/svg" width="28" height="28">
<path d="M0,0 L28,0 L28,28 L0,28 Z " fill="#010101" transform="translate(0,0)"/>
<path d="M0,0 L5,1 L7,3 L6,9 L10,10 L12,12 L12,18 L10,18 L10,20 L4,20 L0,17 L0,8 L4,6 L5,3 L0,3 Z " fill="#C6C6C6" transform="translate(9,3)"/>
<path d="M0,0 L5,1 L7,3 L7,11 L3,13 L2,17 L0,17 L0,8 L4,6 L5,3 L0,3 Z " fill="#E3E3E3" transform="translate(9,3)"/>
<path d="M0,0 L3,1 L4,6 L3,7 L-2,7 L-3,6 L-3,1 Z " fill="#101010" transform="translate(15,14)"/>
<path d="M0,0 L5,1 L7,3 L7,6 L5,6 L5,3 L0,3 Z " fill="#BABABA" transform="translate(9,3)"/>
</svg>
