<?xml version="1.0" encoding="UTF-8"?>
<svg version="1.1" xmlns="http://www.w3.org/2000/svg" width="28" height="28">
<path d="M0,0 L28,0 L28,28 L0,28 Z " fill="#030303" transform="translate(0,0)"/>
<path d="M0,0 L3,0 L3,2 L-2,7 L-3,11 L8,10 L9,15 L7,19 L4,20 L-3,20 L-6,16 L-6,7 L-4,3 Z " fill="#EDEDED" transform="translate(14,3)"/>
<path d="M0,0 L1,3 L12,2 L13,6 L11,6 L11,4 L2,5 L0,4 Z " fill="#EAEAEA" transform="translate(10,11)"/>
<path d="M0,0 L8,0 L7,3 L0,4 Z " fill="#0D0D0D" transform="translate(12,16)"/>
<path d="M0,0 L3,0 L3,2 L5,3 L3,7 L-3,8 L-1,4 L2,1 Z " fill="#C6C6C6" transform="translate(18,15)"/>
<path d="M0,0 L3,0 L3,2 L-3,7 L-5,7 L-4,3 Z " fill="#DEDEDE" transform="translate(14,3)"/>
</svg>
