<?xml version="1.0" encoding="UTF-8"?>
<svg version="1.1" xmlns="http://www.w3.org/2000/svg" width="28" height="28">
<path d="M0,0 L28,0 L28,28 L0,28 Z " fill="#030303" transform="translate(0,0)"/>
<path d="M0,0 L2,0 L1,7 L-2,12 L-2,14 L3,8 L7,8 L7,16 L2,20 L-4,20 L-6,19 L-5,11 L-1,2 Z " fill="#AFAFAF" transform="translate(14,2)"/>
<path d="M0,0 L2,0 L1,7 L-4,17 L-5,17 L-4,8 L-1,2 Z " fill="#E1E1E1" transform="translate(14,2)"/>
<path d="M0,0 L4,0 L4,6 L3,3 L-1,6 L-4,6 L-2,2 Z " fill="#ECECEC" transform="translate(17,10)"/>
</svg>
