<?xml version="1.0" encoding="UTF-8"?>
<svg version="1.1" xmlns="http://www.w3.org/2000/svg" width="28" height="28">
<path d="M0,0 L28,0 L28,28 L0,28 Z " fill="#020202" transform="translate(0,0)"/>
<path d="M0,0 L4,1 L0,3 L-3,5 L-5,11 L-1,9 L4,9 L5,10 L4,17 L-1,20 L-6,19 L-7,16 L-7,7 L-2,1 Z " fill="#C6C6C6" transform="translate(16,3)"/>
<path d="M0,0 L1,3 L3,3 L3,8 L8,7 L10,2 L12,2 L11,8 L6,11 L1,10 L0,7 Z " fill="#ECECEC" transform="translate(9,12)"/>
<path d="M0,0 L4,1 L3,5 L1,7 L-4,6 L-3,2 Z " fill="#191919" transform="translate(15,14)"/>
</svg>
