<?xml version="1.0" encoding="UTF-8"?>
<svg version="1.1" xmlns="http://www.w3.org/2000/svg" width="28" height="28">
<path d="M0,0 L28,0 L28,28 L0,28 Z " fill="#030303" transform="translate(0,0)"/>
<path d="M0,0 L7,0 L8,2 L-1,4 L-4,7 L-5,12 L4,13 L7,16 L5,20 L-3,20 L-6,17 L-8,14 L-7,6 L-2,1 Z " fill="#D8D8D8" transform="translate(16,3)"/>
<path d="M0,0 L1,3 L10,4 L11,1 L11,5 L10,6 L2,6 L-1,3 Z " fill="#E8E8E8" transform="translate(11,17)"/>
<path d="M0,0 L8,1 L9,4 L2,4 L0,3 Z " fill="#282828" transform="translate(12,17)"/>
<path d="M0,0 L7,0 L8,2 L-2,4 L-4,2 Z " fill="#BBBBBB" transform="translate(16,3)"/>
</svg>
