<?xml version="1.0" encoding="UTF-8"?>
<svg version="1.1" xmlns="http://www.w3.org/2000/svg" width="28" height="28">
<path d="M0,0 L28,0 L28,28 L0,28 Z " fill="#020202" transform="translate(0,0)"/>
<path d="M0,0 L2,0 L2,2 L0,2 L0,4 L-2,4 L-3,8 L-6,11 L-6,12 L1,12 L2,17 L-4,20 L-10,20 L-11,19 L-11,12 L-2,1 Z " fill="#D6D6D6" transform="translate(19,2)"/>
<path d="M0,0 L4,1 L5,4 L9,3 L10,1 L6,0 L13,0 L13,4 L7,7 L1,7 L0,6 Z " fill="#F3F3F3" transform="translate(8,15)"/>
<path d="M0,0 L9,0 L6,5 L2,6 L1,2 L-1,1 Z " fill="#6E6E6E" transform="translate(11,14)"/>
<path d="M0,0 L7,0 L7,4 L3,3 L4,1 Z " fill="#D9D9D9" transform="translate(14,15)"/>
</svg>
