<?xml version="1.0" encoding="UTF-8"?>
<svg version="1.1" xmlns="http://www.w3.org/2000/svg" width="28" height="28">
<path d="M0,0 L28,0 L28,28 L0,28 Z " fill="#020202" transform="translate(0,0)"/>
<path d="M0,0 L2,0 L1,4 L-4,9 L-8,14 L-3,11 L2,11 L1,18 L-2,20 L-11,20 L-13,18 L-12,13 L-1,2 Z " fill="#CDCDCD" transform="translate(19,2)"/>
<path d="M0,0 L2,0 L0,6 L-2,7 L-11,7 L-12,2 L-9,2 L-7,2 L-7,4 L-2,4 Z " fill="#EDEDED" transform="translate(19,15)"/>
<path d="M0,0 L2,0 L1,4 L-4,9 L-9,13 L-9,10 L-1,2 Z " fill="#DBDBDB" transform="translate(19,2)"/>
<path d="M0,0 L2,0 L0,5 L-6,5 L-2,1 Z " fill="#3E3E3E" transform="translate(17,15)"/>
</svg>
