<?xml version="1.0" encoding="UTF-8"?>
<svg version="1.1" xmlns="http://www.w3.org/2000/svg" width="28" height="28">
<path d="M0,0 L28,0 L28,28 L0,28 Z " fill="#030303" transform="translate(0,0)"/>
<path d="M0,0 L5,0 L6,4 L5,2 L0,4 L-2,6 L-2,15 L1,17 L7,17 L7,13 L4,13 L4,15 L6,16 L2,16 L2,12 L8,11 L9,12 L9,18 L7,20 L1,20 L-4,17 L-6,13 L-5,6 L-4,3 L-2,3 L-2,1 Z " fill="#DBDBDB" transform="translate(13,3)"/>
<path d="M0,0 L1,3 L3,2 L3,0 L6,0 L6,4 L0,5 L-2,3 L0,3 Z " fill="#242424" transform="translate(14,16)"/>
<path d="M0,0 L2,2 L2,8 L0,9 L-1,3 Z " fill="#BFBFBF" transform="translate(8,9)"/>
</svg>
