<?xml version="1.0" encoding="UTF-8"?>
<svg version="1.1" xmlns="http://www.w3.org/2000/svg" width="28" height="28">
<path d="M0,0 L28,0 L28,28 L0,28 Z " fill="#010101" transform="translate(0,0)"/>
<path d="M0,0 L2,0 L0,4 L-3,9 L-3,12 L3,13 L2,18 L-1,20 L-6,19 L-7,18 L-7,11 L-3,3 Z " fill="#E6E6E6" transform="translate(17,2)"/>
<path d="M0,0 L6,1 L5,6 L2,8 L-2,8 Z " fill="#8F8F8F" transform="translate(14,14)"/>
<path d="M0,0 L2,0 L0,4 L-4,9 L-5,6 Z " fill="#CBCBCB" transform="translate(17,2)"/>
</svg>
