<?xml version="1.0" encoding="UTF-8"?>
<svg version="1.1" xmlns="http://www.w3.org/2000/svg" width="28" height="28">
<path d="M0,0 L28,0 L28,28 L0,28 Z " fill="#030303" transform="translate(0,0)"/>
<path d="M0,0 L2,0 L0,6 L-4,12 L0,9 L4,10 L3,15 L-2,18 L-8,20 L-10,18 L-9,13 Z " fill="#D1D1D1" transform="translate(18,2)"/>
<path d="M0,0 L4,1 L3,6 L1,8 L-4,7 L-5,4 Z " fill="#DDDDDD" transform="translate(18,11)"/>
<path d="M0,0 L2,0 L2,3 L4,2 L4,4 L6,4 L6,6 L0,8 L-2,6 L-1,1 Z " fill="#F3F3F3" transform="translate(10,14)"/>
<path d="M0,0 L4,1 L2,5 L-3,4 Z " fill="#7C7C7C" transform="translate(17,14)"/>
</svg>
