<?xml version="1.0" encoding="UTF-8"?>
<svg version="1.1" xmlns="http://www.w3.org/2000/svg" width="28" height="28">
<path d="M0,0 L28,0 L28,28 L0,28 Z " fill="#040404" transform="translate(0,0)"/>
<path d="M0,0 L3,0 L1,5 L-6,13 L-2,11 L2,9 L7,9 L8,14 L6,15 L5,12 L1,13 L-3,16 L-3,20 L-9,20 L-11,18 L-10,13 L-1,3 Z " fill="#E8E8E8" transform="translate(16,2)"/>
<path d="M0,0 L4,1 L3,6 L-5,8 L-5,4 Z " fill="#CACACA" transform="translate(18,13)"/>
<path d="M0,0 L4,1 L2,4 L-3,6 L-6,5 Z " fill="#131313" transform="translate(18,13)"/>
</svg>
