<?xml version="1.0" encoding="UTF-8"?>
<svg version="1.1" xmlns="http://www.w3.org/2000/svg" width="28" height="28">
<path d="M0,0 L28,0 L28,28 L0,28 Z " fill="#020202" transform="translate(0,0)"/>
<path d="M0,0 L3,0 L4,4 L0,5 L-4,10 L3,10 L7,13 L6,17 L1,20 L-5,20 L-9,16 L-8,10 L-1,1 Z " fill="#D7D7D7" transform="translate(16,3)"/>
<path d="M0,0 L7,1 L7,4 L0,6 L-2,5 L-2,1 Z " fill="#1F1F1F" transform="translate(13,15)"/>
<path d="M0,0 L3,0 L4,4 L0,5 L-2,6 L-4,4 Z " fill="#C4C4C4" transform="translate(16,3)"/>
</svg>
