<?xml version="1.0" encoding="UTF-8"?>
<svg version="1.1" xmlns="http://www.w3.org/2000/svg" width="28" height="28">
<path d="M0,0 L28,0 L28,28 L0,28 Z " fill="#020202" transform="translate(0,0)"/>
<path d="M0,0 L2,0 L0,5 L-11,14 L-10,15 L0,9 L5,9 L4,14 L-1,19 L-3,20 L-11,20 L-15,18 L-15,14 L-13,14 L-11,10 L-5,5 L-3,5 L-1,1 Z " fill="#E0E0E0" transform="translate(19,2)"/>
<path d="M0,0 L5,0 L4,5 L-3,9 L-7,7 L-5,3 Z " fill="#DDDDDD" transform="translate(19,11)"/>
<path d="M0,0 L2,1 L-2,6 L-6,7 L-8,5 Z " fill="#191919" transform="translate(20,13)"/>
<path d="M0,0 L2,1 L2,4 L-7,9 L-6,5 Z " fill="#202020" transform="translate(14,10)"/>
</svg>
