<?xml version="1.0" encoding="UTF-8"?>
<svg version="1.1" xmlns="http://www.w3.org/2000/svg" width="28" height="28">
<path d="M0,0 L28,0 L28,28 L0,28 Z " fill="#030303" transform="translate(0,0)"/>
<path d="M0,0 L2,0 L2,3 L0,3 L-2,7 L-4,16 L4,11 L9,10 L11,12 L10,16 L6,20 L-2,20 L-7,16 L-6,7 L-3,2 Z " fill="#DCDCDC" transform="translate(14,2)"/>
<path d="M0,0 L4,2 L3,6 L-1,10 L-3,9 L-3,8 L-8,8 L-9,5 L-3,1 Z " fill="#E2E2E2" transform="translate(21,12)"/>
<path d="M0,0 L2,4 L5,5 L5,7 L12,6 L10,9 L4,9 L-1,5 Z " fill="#F6F6F6" transform="translate(8,13)"/>
<path d="M0,0 L5,0 L6,4 L1,6 L1,4 L-3,4 L-3,2 Z " fill="#848484" transform="translate(17,16)"/>
</svg>
