<?xml version="1.0" encoding="UTF-8"?>
<svg version="1.1" xmlns="http://www.w3.org/2000/svg" width="28" height="28">
<path d="M0,0 L28,0 L28,28 L0,28 Z " fill="#030303" transform="translate(0,0)"/>
<path d="M0,0 L3,0 L3,5 L0,6 L0,11 L5,10 L10,13 L9,18 L8,19 L2,19 L0,19 L-3,19 L-4,8 L-2,3 Z " fill="#F0F0F0" transform="translate(13,3)"/>
<path d="M0,0 L7,1 L9,3 L8,8 L6,9 L0,6 L-1,1 Z " fill="#D0D0D0" transform="translate(14,13)"/>
<path d="M0,0 L3,0 L3,5 L0,6 L-1,11 L-4,12 L-3,4 Z " fill="#D5D5D5" transform="translate(13,3)"/>
<path d="M0,0 L4,1 L5,5 L-1,5 L-2,1 Z " fill="#171717" transform="translate(16,15)"/>
</svg>
