<?xml version="1.0" encoding="UTF-8"?>
<svg version="1.1" xmlns="http://www.w3.org/2000/svg" width="28" height="28">
<path d="M0,0 L28,0 L28,28 L0,28 Z " fill="#030303" transform="translate(0,0)"/>
<path d="M0,0 L2,0 L0,5 L-6,12 L-4,12 L-4,10 L0,8 L5,8 L9,6 L7,10 L5,10 L4,15 L-4,18 L-11,17 L-10,12 Z " fill="#C0C0C0" transform="translate(17,3)"/>
<path d="M0,0 L0,3 L-3,4 L-4,9 L-12,12 L-18,11 L-17,7 L-14,7 L-14,10 L-5,8 L-6,5 L-13,7 L-12,4 L-8,2 L-3,2 Z " fill="#CCCCCC" transform="translate(25,9)"/>
<path d="M0,0 L2,1 L2,4 L9,3 L8,5 L0,6 L-2,5 L-1,1 Z " fill="#EAEAEA" transform="translate(9,15)"/>
<path d="M0,0 L3,1 L3,4 L1,5 L-5,5 Z " fill="#0A0A0A" transform="translate(17,13)"/>
</svg>
