<?xml version="1.0" encoding="UTF-8"?>
<svg version="1.1" xmlns="http://www.w3.org/2000/svg" width="28" height="28">
<path d="M0,0 L28,0 L28,28 L0,28 Z " fill="#020202" transform="translate(0,0)"/>
<path d="M0,0 L2,0 L0,5 L-2,11 L7,11 L7,16 L2,20 L-4,19 L-6,14 L-4,5 Z " fill="#E2E2E2" transform="translate(15,2)"/>
<path d="M0,0 L4,1 L1,4 L-4,3 L-3,1 Z " fill="#1F1F1F" transform="translate(16,15)"/>
<path d="M0,0 L2,0 L1,4 L-2,6 L-6,5 L-3,4 L-2,2 L0,2 Z " fill="#CFCFCF" transform="translate(19,16)"/>
</svg>
