<?xml version="1.0" encoding="UTF-8"?>
<svg version="1.1" xmlns="http://www.w3.org/2000/svg" width="28" height="28">
<path d="M0,0 L28,0 L28,28 L0,28 Z " fill="#030303" transform="translate(0,0)"/>
<path d="M0,0 L3,0 L1,5 L0,12 L4,11 L7,12 L7,18 L5,20 L0,19 L-1,16 L-4,16 L-4,14 L-2,14 L-2,4 Z " fill="#E1E1E1" transform="translate(13,3)"/>
<path d="M0,0 L3,0 L0,9 L-2,12 L-2,4 Z " fill="#DDDDDD" transform="translate(13,3)"/>
<path d="M0,0 L4,1 L3,5 L0,4 Z " fill="#1C1C1C" transform="translate(14,16)"/>
<path d="M0,0 L1,3 L5,2 L6,4 L-1,6 Z " fill="#F7F7F7" transform="translate(12,12)"/>
</svg>
