<?xml version="1.0" encoding="UTF-8"?>
<svg version="1.1" xmlns="http://www.w3.org/2000/svg" width="28" height="28">
<path d="M0,0 L28,0 L28,28 L0,28 Z " fill="#020202" transform="translate(0,0)"/>
<path d="M0,0 L3,0 L2,4 L-1,9 L5,9 L7,11 L7,18 L4,20 L-4,20 L-6,16 L-4,7 Z " fill="#E8E8E8" transform="translate(14,2)"/>
<path d="M0,0 L4,1 L5,2 L5,9 L0,11 L0,9 L-3,9 L-3,4 Z " fill="#E2E2E2" transform="translate(16,11)"/>
<path d="M0,0 L4,0 L3,5 L-1,4 Z " fill="#222222" transform="translate(14,14)"/>
</svg>
