<?xml version="1.0" encoding="UTF-8"?>
<svg version="1.1" xmlns="http://www.w3.org/2000/svg" width="28" height="28">
<path d="M0,0 L28,0 L28,28 L0,28 Z " fill="#020202" transform="translate(0,0)"/>
<path d="M0,0 L2,0 L2,4 L-2,8 L-3,10 L1,11 L2,15 L-1,18 L-6,20 L-10,20 L-10,11 L-4,4 L-2,4 Z " fill="#F2F2F2" transform="translate(18,3)"/>
<path d="M0,0 L2,0 L2,4 L-2,8 L-4,10 L-6,10 L-9,14 L-2,13 L-2,15 L-9,16 L-10,16 L-10,11 L-4,4 L-2,4 Z " fill="#B1B1B1" transform="translate(18,3)"/>
<path d="M0,0 L2,0 L2,4 L-2,4 Z M-4,4 L-2,5 L-6,8 Z " fill="#DCDCDC" transform="translate(18,3)"/>
</svg>
