<?xml version="1.0" encoding="UTF-8"?>
<svg version="1.1" xmlns="http://www.w3.org/2000/svg" width="28" height="28">
<path d="M0,0 L28,0 L28,28 L0,28 Z " fill="#020202" transform="translate(0,0)"/>
<path d="M0,0 L2,0 L0,4 L-6,12 L-2,13 L-1,18 L-4,20 L-10,20 L-11,19 L-11,14 L-4,4 Z " fill="#E7E7E7" transform="translate(19,2)"/>
<path d="M0,0 L7,0 L8,5 L7,6 L1,6 L0,5 Z " fill="#D0D0D0" transform="translate(8,16)"/>
<path d="M0,0 L2,0 L0,4 L-4,8 L-6,6 Z " fill="#CDCDCD" transform="translate(19,2)"/>
<path d="M0,0 L5,1 L4,4 L0,4 Z " fill="#191919" transform="translate(11,16)"/>
</svg>
