<?xml version="1.0" encoding="UTF-8"?>
<svg version="1.1" xmlns="http://www.w3.org/2000/svg" width="28" height="28">
<path d="M0,0 L28,0 L28,28 L0,28 Z " fill="#020202" transform="translate(0,0)"/>
<path d="M0,0 L4,0 L4,2 L0,4 L-2,14 L1,11 L6,11 L8,13 L7,17 L3,20 L-2,20 L-5,17 L-6,12 L-3,3 Z " fill="#EAEAEA" transform="translate(14,3)"/>
<path d="M0,0 L3,2 L2,6 L-2,9 L-6,7 L-4,3 Z " fill="#CCCCCC" transform="translate(19,14)"/>
<path d="M0,0 L4,0 L4,2 L0,4 L-2,11 L-5,9 L-3,3 Z " fill="#D0D0D0" transform="translate(14,3)"/>
<path d="M0,0 L3,0 L2,4 L-3,5 L-1,1 Z " fill="#161616" transform="translate(16,16)"/>
</svg>
