<?xml version="1.0" encoding="UTF-8"?>
<svg version="1.1" xmlns="http://www.w3.org/2000/svg" width="28" height="28">
<path d="M0,0 L28,0 L28,28 L0,28 Z " fill="#020202" transform="translate(0,0)"/>
<path d="M0,0 L3,0 L3,3 L1,3 L-1,9 L-3,16 L1,17 L2,12 L4,10 L9,11 L8,16 L4,20 L-3,20 L-7,16 L-5,9 Z " fill="#CECECE" transform="translate(14,2)"/>
<path d="M0,0 L5,1 L4,6 L3,8 L-1,8 L-3,4 Z " fill="#C8C8C8" transform="translate(18,12)"/>
<path d="M0,0 L3,0 L3,3 L1,3 L-1,8 L-2,4 Z " fill="#ECECEC" transform="translate(14,2)"/>
<path d="M0,0 L1,3 L3,4 L2,5 L-3,5 L-4,3 Z " fill="#F3F3F3" transform="translate(16,17)"/>
</svg>
