<?xml version="1.0" encoding="UTF-8"?>
<svg version="1.1" xmlns="http://www.w3.org/2000/svg" width="28" height="28">
<path d="M0,0 L28,0 L28,28 L0,28 Z " fill="#020202" transform="translate(0,0)"/>
<path d="M0,0 L3,0 L2,4 L0,10 L0,14 L4,9 L9,9 L8,14 L3,20 L-2,19 L-3,18 L-3,9 Z " fill="#F2F2F2" transform="translate(12,2)"/>
<path d="M0,0 L5,0 L4,5 L2,7 L-2,6 L-1,1 Z " fill="#CCCCCC" transform="translate(16,11)"/>
<path d="M0,0 L3,0 L2,4 L0,10 L-2,6 Z " fill="#DBDBDB" transform="translate(12,2)"/>
</svg>
