<?xml version="1.0" encoding="UTF-8"?>
<svg version="1.1" xmlns="http://www.w3.org/2000/svg" width="28" height="28">
<path d="M0,0 L28,0 L28,28 L0,28 Z " fill="#040404" transform="translate(0,0)"/>
<path d="M0,0 L2,0 L1,4 L-2,10 L-2,15 L3,17 L4,10 L6,7 L12,8 L12,14 L10,16 L12,17 L12,19 L-2,20 L-5,17 L-5,9 L-1,1 Z " fill="#DFDFDF" transform="translate(11,2)"/>
<path d="M0,0 L6,1 L6,7 L0,9 L-1,6 L-1,1 Z " fill="#D9D9D9" transform="translate(17,9)"/>
<path d="M0,0 L3,1 L1,5 L-2,7 L-3,4 Z " fill="#1F1F1F" transform="translate(19,11)"/>
</svg>
