<?xml version="1.0" encoding="UTF-8"?>
<svg version="1.1" xmlns="http://www.w3.org/2000/svg" width="28" height="28">
<path d="M0,0 L28,0 L28,28 L0,28 Z " fill="#020202" transform="translate(0,0)"/>
<path d="M0,0 L2,0 L2,2 L0,2 L-2,7 L-2,9 L2,10 L3,15 L-1,20 L-6,19 L-7,18 L-7,11 L-2,1 Z " fill="#DBDBDB" transform="translate(17,3)"/>
<path d="M0,0 L2,0 L2,2 L0,2 L-2,7 L-5,18 L-7,18 L-7,11 L-2,1 Z " fill="#F4F4F4" transform="translate(17,3)"/>
<path d="M0,0 L4,0 L3,4 L-2,5 L-2,2 L0,2 Z " fill="#121212" transform="translate(14,15)"/>
<path d="M0,0 L2,0 L2,2 L0,2 L-2,7 L-4,9 L-4,5 L-2,1 Z " fill="#D8D8D8" transform="translate(17,3)"/>
</svg>
