<?xml version="1.0" encoding="UTF-8"?>
<svg version="1.1" xmlns="http://www.w3.org/2000/svg" width="28" height="28">
<path d="M0,0 L28,0 L28,28 L0,28 Z " fill="#040404" transform="translate(0,0)"/>
<path d="M0,0 L1,3 L-4,12 L-4,16 L0,10 L5,9 L4,15 L0,19 L-6,20 L-7,19 L-7,11 L-2,2 Z " fill="#A8A8A8" transform="translate(16,3)"/>
<path d="M0,0 L1,3 L-4,12 L-5,18 L-7,18 L-7,11 L-2,2 Z " fill="#E6E6E6" transform="translate(16,3)"/>
<path d="M0,0 L3,0 L1,7 L-4,10 L-6,10 L-5,7 L-1,5 Z " fill="#ECECEC" transform="translate(18,13)"/>
</svg>
