<?xml version="1.0" encoding="UTF-8"?>
<svg version="1.1" xmlns="http://www.w3.org/2000/svg" width="28" height="28">
<path d="M0,0 L28,0 L28,28 L0,28 Z " fill="#030303" transform="translate(0,0)"/>
<path d="M0,0 L2,0 L1,5 L-3,6 L-5,11 L-5,14 L-1,10 L5,10 L6,11 L5,18 L2,20 L-5,20 L-8,17 L-8,10 L-4,4 Z " fill="#F1F1F1" transform="translate(16,2)"/>
<path d="M0,0 L2,0 L1,5 L-3,6 L-5,10 L-6,6 Z " fill="#DDDDDD" transform="translate(16,2)"/>
<path d="M0,0 L5,0 L4,4 L-2,3 Z " fill="#242424" transform="translate(15,15)"/>
<path d="M0,0 L6,0 L4,3 L-2,5 L-3,3 Z " fill="#CECECE" transform="translate(15,12)"/>
</svg>
