<?xml version="1.0" encoding="UTF-8"?>
<svg version="1.1" xmlns="http://www.w3.org/2000/svg" width="28" height="28">
<path d="M0,0 L28,0 L28,28 L0,28 Z " fill="#030303" transform="translate(0,0)"/>
<path d="M0,0 L2,0 L0,6 L-1,13 L3,14 L6,11 L11,12 L10,15 L10,13 L6,15 L5,17 L9,18 L5,20 L1,20 L-3,16 L-4,7 L-1,1 Z " fill="#D6D6D6" transform="translate(11,2)"/>
<path d="M0,0 L5,1 L4,4 L4,2 L0,4 L-1,6 L3,7 L-1,9 L-5,9 L-5,5 L-3,5 L-1,1 Z " fill="#F6F6F6" transform="translate(17,13)"/>
<path d="M0,0 L5,0 L4,4 L2,5 L-2,4 Z " fill="#777777" transform="translate(18,15)"/>
</svg>
