<?xml version="1.0" encoding="UTF-8"?>
<svg version="1.1" xmlns="http://www.w3.org/2000/svg" width="28" height="28">
<path d="M0,0 L28,0 L28,28 L0,28 Z " fill="#020202" transform="translate(0,0)"/>
<path d="M0,0 L2,0 L0,4 L-2,9 L3,10 L3,16 L0,20 L-4,20 L-5,18 L-5,6 Z " fill="#F7F7F7" transform="translate(16,3)"/>
<path d="M0,0 L4,0 L4,3 L6,4 L3,8 L-1,8 Z " fill="#E4E4E4" transform="translate(13,15)"/>
<path d="M0,0 L2,0 L0,4 L-2,9 L2,10 L-3,10 L-5,6 Z " fill="#DDDDDD" transform="translate(16,3)"/>
<path d="M0,0 L4,0 L3,5 L0,5 Z " fill="#202020" transform="translate(13,15)"/>
</svg>
