<?xml version="1.0" encoding="UTF-8"?>
<svg version="1.1" xmlns="http://www.w3.org/2000/svg" width="28" height="28">
<path d="M0,0 L28,0 L28,28 L0,28 Z " fill="#020202" transform="translate(0,0)"/>
<path d="M0,0 L2,0 L0,7 L-1,8 L-1,16 L2,13 L9,12 L10,17 L6,20 L-2,19 L-5,16 L-4,6 Z " fill="#E0E0E0" transform="translate(13,2)"/>
<path d="M0,0 L3,1 L1,6 L-4,6 L-6,5 L-4,1 Z " fill="#8F8F8F" transform="translate(19,14)"/>
<path d="M0,0 L2,0 L0,7 L-4,8 L-2,2 Z " fill="#C8C8C8" transform="translate(13,2)"/>
</svg>
