<?xml version="1.0" encoding="UTF-8"?>
<svg version="1.1" xmlns="http://www.w3.org/2000/svg" width="28" height="28">
<path d="M0,0 L28,0 L28,28 L0,28 Z " fill="#020202" transform="translate(0,0)"/>
<path d="M0,0 L2,0 L1,4 L-3,11 L-5,17 L-2,16 L1,11 L5,7 L10,8 L8,13 L0,19 L-6,20 L-7,19 L-7,12 L-3,3 Z " fill="#ECECEC" transform="translate(15,3)"/>
<path d="M0,0 L5,1 L3,6 L-1,8 L-4,7 L-6,9 L-5,5 Z " fill="#BEBEBE" transform="translate(20,10)"/>
<path d="M0,0 L2,0 L1,4 L-2,7 L-5,6 Z " fill="#D2D2D2" transform="translate(15,3)"/>
</svg>
