<?xml version="1.0" encoding="UTF-8"?>
<svg version="1.1" xmlns="http://www.w3.org/2000/svg" width="28" height="28">
<path d="M0,0 L28,0 L28,28 L0,28 Z " fill="#020202" transform="translate(0,0)"/>
<path d="M0,0 L3,1 L-1,9 L4,10 L9,16 L8,20 L-2,19 L-5,18 L-7,15 L-6,8 Z " fill="#DCDCDC" transform="translate(15,3)"/>
<path d="M0,0 L3,1 L-1,9 L2,9 L2,11 L-2,13 L-3,17 L-7,15 L-6,8 Z " fill="#EBEBEB" transform="translate(15,3)"/>
<path d="M0,0 L5,1 L7,5 L1,5 L-1,4 Z " fill="#101010" transform="translate(13,15)"/>
</svg>
