<?xml version="1.0" encoding="UTF-8"?>
<svg version="1.1" xmlns="http://www.w3.org/2000/svg" width="28" height="28">
<path d="M0,0 L28,0 L28,28 L0,28 Z " fill="#020202" transform="translate(0,0)"/>
<path d="M0,0 L3,0 L3,2 L1,2 L0,6 L-2,11 L5,11 L7,13 L6,18 L4,20 L-3,19 L-5,15 L-4,6 L-1,1 Z " fill="#CDCDCD" transform="translate(14,2)"/>
<path d="M0,0 L7,0 L10,0 L9,5 L7,7 L0,6 L-1,2 Z " fill="#E6E6E6" transform="translate(11,15)"/>
<path d="M0,0 L9,1 L10,5 L1,3 L1,5 L-1,5 Z " fill="#F6F6F6" transform="translate(10,12)"/>
<path d="M0,0 L6,0 L6,3 L1,4 Z " fill="#202020" transform="translate(12,15)"/>
<path d="M0,0 L1,4 L-2,7 L-4,7 L-5,4 L0,2 Z " fill="#CFCFCF" transform="translate(20,15)"/>
</svg>
