<?xml version="1.0" encoding="UTF-8"?>
<svg version="1.1" xmlns="http://www.w3.org/2000/svg" width="28" height="28">
<path d="M0,0 L28,0 L28,28 L0,28 Z " fill="#020202" transform="translate(0,0)"/>
<path d="M0,0 L3,0 L3,3 L-1,3 L-1,11 L1,15 L5,16 L6,11 L12,9 L15,11 L16,17 L11,20 L2,19 L-4,14 L-4,4 Z " fill="#D4D4D4" transform="translate(9,2)"/>
<path d="M0,0 L3,0 L3,3 L-1,3 L-1,11 L1,15 L6,15 L7,18 L0,18 L-4,14 L-4,4 Z " fill="#E1E1E1" transform="translate(9,2)"/>
<path d="M0,0 L3,0 L4,4 L-2,5 L-2,1 Z " fill="#202020" transform="translate(18,13)"/>
<path d="M0,0 L3,0 L3,3 L-1,3 L-2,7 L-4,8 L-3,3 Z " fill="#BDBDBD" transform="translate(9,2)"/>
</svg>
