<?xml version="1.0" encoding="UTF-8"?>
<svg version="1.1" xmlns="http://www.w3.org/2000/svg" width="28" height="28">
<path d="M0,0 L28,0 L28,28 L0,28 Z " fill="#030303" transform="translate(0,0)"/>
<path d="M0,0 L3,1 L2,6 L1,3 L-4,8 L-8,13 L-5,11 L0,11 L-1,16 L-4,20 L-11,19 L-12,14 L-6,5 Z " fill="#999999" transform="translate(20,3)"/>
<path d="M0,0 L3,1 L2,6 L1,3 L-4,8 L-9,12 L-8,7 Z " fill="#DFDFDF" transform="translate(20,3)"/>
<path d="M0,0 L5,0 L4,5 L2,8 L-2,7 L3,2 L-1,1 Z " fill="#ECECEC" transform="translate(15,14)"/>
<path d="M0,0 L3,1 L2,6 L1,3 L-3,2 Z " fill="#BFBFBF" transform="translate(20,3)"/>
</svg>
