<?xml version="1.0" encoding="UTF-8"?>
<svg version="1.1" xmlns="http://www.w3.org/2000/svg" width="28" height="28">
<path d="M0,0 L28,0 L28,28 L0,28 Z " fill="#020202" transform="translate(0,0)"/>
<path d="M0,0 L3,0 L3,2 L-3,5 L-6,9 L-8,9 L-8,12 L-3,13 L-4,18 L-7,20 L-12,19 L-13,14 L-9,7 L-2,1 Z " fill="#E1E1E1" transform="translate(21,3)"/>
<path d="M0,0 L3,1 L2,6 L-1,8 L-6,7 L-7,2 L-4,1 L-4,5 L0,4 L1,2 L-3,3 L-3,1 Z " fill="#E8E8E8" transform="translate(15,15)"/>
<path d="M0,0 L5,2 L2,3 L6,4 L5,7 L1,7 L-1,4 Z " fill="#888888" transform="translate(10,13)"/>
</svg>
