<?xml version="1.0" encoding="UTF-8"?>
<svg version="1.1" xmlns="http://www.w3.org/2000/svg" width="28" height="28">
<path d="M0,0 L28,0 L28,28 L0,28 Z " fill="#020202" transform="translate(0,0)"/>
<path d="M0,0 L3,0 L2,3 L-5,7 L-11,12 L-12,17 L-7,12 L0,11 L-1,16 L-6,19 L-13,20 L-15,18 L-15,13 L-7,5 Z " fill="#DBDBDB" transform="translate(21,2)"/>
<path d="M0,0 L4,0 L3,5 L0,3 L-5,6 L-7,6 L-6,3 Z " fill="#E2E2E2" transform="translate(17,13)"/>
<path d="M0,0 L2,1 L1,5 L-3,6 L-5,5 L-3,1 Z " fill="#7F7F7F" transform="translate(17,15)"/>
<path d="M0,0 L2,1 L-1,4 L0,6 L-3,9 L-1,10 L-5,9 L-4,4 Z " fill="#2B2B2B" transform="translate(13,10)"/>
</svg>
