<?xml version="1.0" encoding="UTF-8"?>
<svg version="1.1" xmlns="http://www.w3.org/2000/svg" width="28" height="28">
<path d="M0,0 L28,0 L28,28 L0,28 Z " fill="#020202" transform="translate(0,0)"/>
<path d="M0,0 L1,3 L1,10 L7,6 L12,6 L14,8 L14,15 L8,19 L-1,20 L-2,19 L-2,3 Z " fill="#CBCBCB" transform="translate(10,3)"/>
<path d="M0,0 L5,0 L6,5 L2,9 L-5,9 L-6,5 L-3,1 Z " fill="#0F0F0F" transform="translate(17,11)"/>
<path d="M0,0 L1,0 L1,6 L3,6 L1,11 L0,11 Z " fill="#F4F4F4" transform="translate(8,9)"/>
</svg>
