<?xml version="1.0" encoding="UTF-8"?>
<svg version="1.1" xmlns="http://www.w3.org/2000/svg" width="28" height="28">
<path d="M0,0 L28,0 L28,28 L0,28 Z " fill="#020202" transform="translate(0,0)"/>
<path d="M0,0 L2,0 L0,4 L-4,10 L3,12 L2,18 L-1,20 L-7,19 L-8,17 L-11,16 L-10,13 L-8,13 L-6,6 Z " fill="#D2D2D2" transform="translate(18,3)"/>
<path d="M0,0 L2,0 L0,4 L-4,10 L3,12 L2,15 L1,13 L-7,14 L-9,15 L-6,6 Z " fill="#F1F1F1" transform="translate(18,3)"/>
<path d="M0,0 L3,0 L2,5 L-2,6 L-4,2 Z " fill="#212121" transform="translate(16,15)"/>
<path d="M0,0 L2,0 L0,4 L-4,8 L-6,8 L-4,4 Z " fill="#CFCFCF" transform="translate(18,3)"/>
</svg>
