<?xml version="1.0" encoding="UTF-8"?>
<svg version="1.1" xmlns="http://www.w3.org/2000/svg" width="28" height="28">
<path d="M0,0 L28,0 L28,28 L0,28 Z " fill="#010101" transform="translate(0,0)"/>
<path d="M0,0 L2,0 L0,11 L6,11 L8,13 L7,17 L4,20 L-1,20 L-3,15 L-2,4 Z " fill="#DCDCDC" transform="translate(13,2)"/>
<path d="M0,0 L1,3 L-3,7 L-8,7 L-9,2 L-6,2 L-6,4 L-2,4 L-1,1 Z " fill="#DCDCDC" transform="translate(20,15)"/>
<path d="M0,0 L5,1 L5,4 L1,4 Z " fill="#1E1E1E" transform="translate(13,15)"/>
</svg>
