<?xml version="1.0" encoding="UTF-8"?>
<svg version="1.1" xmlns="http://www.w3.org/2000/svg" width="28" height="28">
<path d="M0,0 L28,0 L28,28 L0,28 Z " fill="#030303" transform="translate(0,0)"/>
<path d="M0,0 L3,0 L3,2 L-1,4 L-4,11 L-5,17 L-3,17 L-2,11 L1,9 L6,10 L5,15 L0,19 L-3,20 L-7,16 L-6,8 L-2,2 Z " fill="#C7C7C7" transform="translate(16,3)"/>
<path d="M0,0 L3,0 L3,2 L-1,4 L-4,11 L-5,17 L-3,17 L-2,12 L-1,14 L-1,19 L-3,20 L-7,16 L-6,8 L-2,2 Z " fill="#DADADA" transform="translate(16,3)"/>
<path d="M0,0 L4,0 L2,4 L-3,6 L-2,2 Z " fill="#141414" transform="translate(17,14)"/>
</svg>
