<?xml version="1.0" encoding="UTF-8"?>
<svg version="1.1" xmlns="http://www.w3.org/2000/svg" width="28" height="28">
<path d="M0,0 L28,0 L28,28 L0,28 Z " fill="#010101" transform="translate(0,0)"/>
<path d="M0,0 L3,0 L2,3 L0,3 L-2,9 L-3,11 L6,11 L8,13 L7,18 L3,20 L-3,20 L-6,16 L-5,7 Z " fill="#C6C6C6" transform="translate(15,2)"/>
<path d="M0,0 L2,0 L2,2 L6,3 L4,5 L3,8 L9,8 L9,10 L3,10 L0,6 Z " fill="#EAEAEA" transform="translate(9,12)"/>
<path d="M0,0 L7,0 L7,4 L-1,5 Z " fill="#191919" transform="translate(13,15)"/>
</svg>
