<?xml version="1.0" encoding="UTF-8"?>
<svg version="1.1" xmlns="http://www.w3.org/2000/svg" width="28" height="28">
<path d="M0,0 L28,0 L28,28 L0,28 Z " fill="#020202" transform="translate(0,0)"/>
<path d="M0,0 L4,0 L4,2 L-1,4 L-4,7 L-3,12 L0,13 L5,7 L12,6 L13,7 L13,12 L10,15 L6,16 L-2,16 L-7,11 L-6,5 Z " fill="#C9C9C9" transform="translate(12,5)"/>
<path d="M0,0 L3,0 L3,5 L-2,7 L-5,7 L-3,2 Z " fill="#111111" transform="translate(20,12)"/>
<path d="M0,0 L2,1 L-1,6 L4,6 L4,7 L-3,7 L-2,2 Z " fill="#E7E7E7" transform="translate(16,13)"/>
</svg>
