<?xml version="1.0" encoding="UTF-8"?>
<svg version="1.1" xmlns="http://www.w3.org/2000/svg" width="28" height="28">
<path d="M0,0 L28,0 L28,28 L0,28 Z " fill="#010101" transform="translate(0,0)"/>
<path d="M0,0 L0,3 L-3,7 L-5,14 L1,13 L5,16 L5,19 L3,20 L-3,20 L-7,17 L-7,9 L-2,1 Z " fill="#C1C1C1" transform="translate(16,2)"/>
<path d="M0,0 L0,3 L-3,7 L-5,14 L-7,12 L-6,8 L-2,1 Z " fill="#BFBFBF" transform="translate(16,2)"/>
<path d="M0,0 L5,0 L6,3 L0,3 Z " fill="#101010" transform="translate(13,17)"/>
</svg>
