<?xml version="1.0" encoding="UTF-8"?>
<svg version="1.1" xmlns="http://www.w3.org/2000/svg" width="28" height="28">
<path d="M0,0 L28,0 L28,28 L0,28 Z " fill="#040404" transform="translate(0,0)"/>
<path d="M0,0 L2,0 L2,9 L3,14 L7,12 L11,8 L15,8 L15,15 L10,20 L4,19 L-1,14 L-1,1 Z " fill="#E3E3E3" transform="translate(8,2)"/>
<path d="M0,0 L2,0 L1,12 L-1,11 L-1,1 Z " fill="#E2E2E2" transform="translate(8,2)"/>
<path d="M0,0 L4,0 L4,7 L2,7 L3,2 L-2,6 L-4,6 L-2,2 Z " fill="#F1F1F1" transform="translate(19,10)"/>
<path d="M0,0 L2,0 L1,4 L-1,7 L-4,7 L-3,3 Z " fill="#2E2E2E" transform="translate(20,12)"/>
</svg>
