<?xml version="1.0" encoding="UTF-8"?>
<svg version="1.1" xmlns="http://www.w3.org/2000/svg" width="28" height="28">
<path d="M0,0 L28,0 L28,28 L0,28 Z " fill="#030303" transform="translate(0,0)"/>
<path d="M0,0 L0,3 L-6,12 L-6,17 L-3,17 L-1,10 L5,5 L7,5 L6,12 L2,17 L-3,20 L-8,19 L-9,18 L-9,12 L-3,3 Z " fill="#D1D1D1" transform="translate(16,3)"/>
<path d="M0,0 L0,3 L-6,12 L-6,17 L-1,17 L-1,19 L-7,20 L-9,18 L-9,12 L-3,3 Z " fill="#D6D6D6" transform="translate(16,3)"/>
<path d="M0,0 L2,0 L0,6 L-4,8 L-2,2 Z " fill="#1F1F1F" transform="translate(19,11)"/>
</svg>
