<?xml version="1.0" encoding="UTF-8"?>
<svg version="1.1" xmlns="http://www.w3.org/2000/svg" width="28" height="28">
<path d="M0,0 L28,0 L28,28 L0,28 Z " fill="#010101" transform="translate(0,0)"/>
<path d="M0,0 L2,0 L1,6 L1,14 L3,17 L4,8 L6,6 L11,6 L12,13 L9,17 L11,19 L7,20 L0,18 L-2,15 L-2,5 Z " fill="#BABABA" transform="translate(10,3)"/>
<path d="M0,0 L3,1 L2,8 L-1,9 L-1,1 Z " fill="#0C0C0C" transform="translate(17,10)"/>
<path d="M0,0 L2,0 L0,13 L-2,15 L-2,5 Z " fill="#AFAFAF" transform="translate(10,3)"/>
<path d="M0,0 L6,5 L6,0 L8,4 L8,6 L2,6 L0,4 Z " fill="#E1E1E1" transform="translate(9,16)"/>
</svg>
