<?xml version="1.0" encoding="UTF-8"?>
<svg version="1.1" xmlns="http://www.w3.org/2000/svg" width="28" height="28">
<path d="M0,0 L28,0 L28,28 L0,28 Z " fill="#040404" transform="translate(0,0)"/>
<path d="M0,0 L2,0 L2,4 L-2,6 L-3,8 L-5,8 L-7,13 L-7,16 L-5,17 L-3,13 L0,11 L4,11 L5,18 L-3,20 L-10,18 L-11,13 L-8,6 L-5,6 L-3,2 Z " fill="#E4E4E4" transform="translate(18,2)"/>
<path d="M0,0 L4,0 L5,7 L-3,9 L-6,7 L-3,2 Z " fill="#E2E2E2" transform="translate(18,13)"/>
<path d="M0,0 L3,0 L5,4 L0,5 L-3,4 L-2,1 Z " fill="#767676" transform="translate(18,16)"/>
</svg>
