<?xml version="1.0" encoding="UTF-8"?>
<svg version="1.1" xmlns="http://www.w3.org/2000/svg" width="28" height="28">
<path d="M0,0 L28,0 L28,28 L0,28 Z " fill="#020202" transform="translate(0,0)"/>
<path d="M0,0 L3,1 L-3,5 L-7,11 L-7,14 L-4,11 L5,10 L6,14 L1,19 L-8,20 L-10,18 L-10,12 L-5,4 Z " fill="#BCBCBC" transform="translate(18,2)"/>
<path d="M0,0 L6,0 L7,4 L2,9 L-7,10 L-9,8 L-8,4 L-7,8 L2,6 L4,2 L-3,4 L-4,7 L-6,7 L-5,2 Z " fill="#CACACA" transform="translate(17,12)"/>
<path d="M0,0 L4,0 L3,4 L0,6 L-3,6 L-4,2 Z " fill="#090909" transform="translate(17,14)"/>
</svg>
