<?xml version="1.0" encoding="UTF-8"?>
<svg version="1.1" xmlns="http://www.w3.org/2000/svg" width="28" height="28">
<path d="M0,0 L28,0 L28,28 L0,28 Z " fill="#030303" transform="translate(0,0)"/>
<path d="M0,0 L4,0 L4,2 L0,4 L-6,16 L-3,16 L-1,12 L1,10 L6,10 L7,14 L3,13 L0,16 L4,15 L3,18 L0,20 L-7,19 L-9,17 L-9,11 L-3,2 Z " fill="#EBEBEB" transform="translate(16,2)"/>
<path d="M0,0 L4,0 L4,2 L0,4 L-5,13 L-9,11 L-3,2 Z " fill="#D3D3D3" transform="translate(16,2)"/>
<path d="M0,0 L4,2 L1,4 L-3,4 L-2,1 Z " fill="#6E6E6E" transform="translate(19,14)"/>
</svg>
