<?xml version="1.0" encoding="UTF-8"?>
<svg version="1.1" xmlns="http://www.w3.org/2000/svg" width="28" height="28">
<path d="M0,0 L28,0 L28,28 L0,28 Z " fill="#020202" transform="translate(0,0)"/>
<path d="M0,0 L2,0 L0,4 L-5,9 L-6,15 L-1,14 L3,11 L8,11 L8,16 L6,18 L-2,20 L-9,18 L-11,14 L-8,6 Z " fill="#E0E0E0" transform="translate(16,2)"/>
<path d="M0,0 L2,0 L2,4 L4,5 L4,7 L-1,7 L-1,1 Z " fill="#EDEDED" transform="translate(8,13)"/>
<path d="M0,0 L5,0 L5,5 L-1,5 L-1,3 L2,2 Z " fill="#A2A2A2" transform="translate(19,13)"/>
</svg>
