<?xml version="1.0" encoding="UTF-8"?>
<svg version="1.1" xmlns="http://www.w3.org/2000/svg" width="28" height="28">
<path d="M0,0 L28,0 L28,28 L0,28 Z " fill="#010101" transform="translate(0,0)"/>
<path d="M0,0 L3,0 L1,5 L0,9 L6,9 L7,10 L7,15 L2,20 L-3,20 L-5,17 L-3,7 Z " fill="#D3D3D3" transform="translate(14,2)"/>
<path d="M0,0 L3,0 L1,5 L-2,11 L0,11 L0,17 L-4,16 L-3,7 Z " fill="#E0E0E0" transform="translate(14,2)"/>
<path d="M0,0 L3,0 L3,5 L0,7 L-3,6 L-2,2 Z " fill="#151515" transform="translate(16,12)"/>
<path d="M0,0 L6,0 L7,1 L7,6 L5,4 L5,1 L0,3 Z " fill="#BDBDBD" transform="translate(14,11)"/>
</svg>
