<?xml version="1.0" encoding="UTF-8"?>
<svg version="1.1" xmlns="http://www.w3.org/2000/svg" width="28" height="28">
<path d="M0,0 L28,0 L28,28 L0,28 Z " fill="#050505" transform="translate(0,0)"/>
<path d="M0,0 L5,0 L5,3 L-2,6 L-4,10 L1,8 L6,12 L6,19 L-1,20 L-6,17 L-8,15 L-8,7 L-3,2 Z " fill="#EEEEEE" transform="translate(16,4)"/>
<path d="M0,0 L5,0 L5,3 L-2,6 L-6,10 L-8,10 L-7,5 Z " fill="#E9E9E9" transform="translate(16,4)"/>
<path d="M0,0 L4,1 L3,5 L-2,4 L-2,1 Z " fill="#2B2B2B" transform="translate(15,16)"/>
</svg>
