<?xml version="1.0" encoding="UTF-8"?>
<svg version="1.1" xmlns="http://www.w3.org/2000/svg" width="28" height="28">
<path d="M0,0 L28,0 L28,28 L0,28 Z " fill="#020202" transform="translate(0,0)"/>
<path d="M0,0 L3,0 L2,3 L-3,6 L-7,12 L-3,10 L3,10 L2,14 L-4,19 L-10,20 L-11,19 L-11,12 L-4,3 Z " fill="#DEDEDE" transform="translate(19,3)"/>
<path d="M0,0 L6,0 L5,4 L-1,9 L-2,7 L-5,6 L-2,1 Z " fill="#CACACA" transform="translate(16,13)"/>
<path d="M0,0 L3,0 L1,4 L-5,5 Z " fill="#212121" transform="translate(17,14)"/>
<path d="M0,0 L3,0 L2,3 L-4,6 L-4,3 Z " fill="#E7E7E7" transform="translate(19,3)"/>
</svg>
