<?xml version="1.0" encoding="UTF-8"?>
<svg version="1.1" xmlns="http://www.w3.org/2000/svg" width="28" height="28">
<path d="M0,0 L28,0 L28,28 L0,28 Z " fill="#020202" transform="translate(0,0)"/>
<path d="M0,0 L4,0 L3,3 L-2,6 L-6,11 L3,8 L5,10 L4,14 L-5,20 L-12,20 L-13,14 L-11,10 L-9,10 L-7,6 Z " fill="#EEEEEE" transform="translate(19,3)"/>
<path d="M0,0 L3,2 L2,6 L-2,8 L-8,8 L-9,7 L-10,9 L-12,9 L-11,5 L-10,3 Z " fill="#D6D6D6" transform="translate(21,11)"/>
<path d="M0,0 L2,0 L0,4 L-3,6 L-6,6 L-4,2 Z " fill="#121212" transform="translate(19,13)"/>
<path d="M0,0 L0,3 L-4,7 L-6,7 L-5,3 L-4,1 Z " fill="#ADADAD" transform="translate(15,13)"/>
</svg>
