<?xml version="1.0" encoding="UTF-8"?>
<svg version="1.1" xmlns="http://www.w3.org/2000/svg" width="28" height="28">
<path d="M0,0 L28,0 L28,28 L0,28 Z " fill="#010101" transform="translate(0,0)"/>
<path d="M0,0 L1,0 L2,13 L6,7 L11,6 L12,12 L10,18 L7,20 L2,19 L-1,16 L-2,12 L-2,4 Z " fill="#CFCFCF" transform="translate(10,3)"/>
<path d="M0,0 L1,0 L2,14 L4,15 L4,17 L10,14 L10,18 L7,20 L2,19 L-1,16 L-2,12 L-2,4 Z " fill="#EAEAEA" transform="translate(10,3)"/>
<path d="M0,0 L1,0 L1,14 L-1,14 L-2,12 L-2,4 Z " fill="#D1D1D1" transform="translate(10,3)"/>
<path d="M0,0 L2,0 L1,4 L-1,8 L-4,8 L-2,2 Z " fill="#222222" transform="translate(18,12)"/>
</svg>
