<?xml version="1.0" encoding="UTF-8"?>
<svg version="1.1" xmlns="http://www.w3.org/2000/svg" width="28" height="28">
<path d="M0,0 L28,0 L28,28 L0,28 Z " fill="#030303" transform="translate(0,0)"/>
<path d="M0,0 L2,0 L2,3 L-1,6 L4,6 L5,10 L-2,18 L-5,20 L-10,20 L-11,19 L-11,13 L-6,5 Z " fill="#D5D5D5" transform="translate(18,4)"/>
<path d="M0,0 L1,2 L3,3 L0,8 L4,10 L2,12 L-3,12 L-4,11 L-4,5 L-2,1 Z " fill="#E6E6E6" transform="translate(11,12)"/>
<path d="M0,0 L4,0 L2,4 L-3,8 L-6,7 L-3,2 Z " fill="#0B0B0B" transform="translate(16,13)"/>
</svg>
