<?xml version="1.0" encoding="UTF-8"?>
<svg version="1.1" xmlns="http://www.w3.org/2000/svg" width="28" height="28">
<path d="M0,0 L28,0 L28,28 L0,28 Z " fill="#030303" transform="translate(0,0)"/>
<path d="M0,0 L2,0 L-1,12 L5,9 L10,8 L13,9 L14,14 L8,20 L1,20 L-1,16 L-6,18 L-4,14 L-2,4 Z " fill="#D8D8D8" transform="translate(11,2)"/>
<path d="M0,0 L7,0 L7,3 L1,7 L-5,5 L-5,2 Z " fill="#0D0D0D" transform="translate(16,13)"/>
<path d="M0,0 L2,2 L9,5 L9,6 L2,6 L0,4 Z " fill="#BABABA" transform="translate(10,16)"/>
</svg>
