<?xml version="1.0" encoding="UTF-8"?>
<svg version="1.1" xmlns="http://www.w3.org/2000/svg" width="28" height="28">
<path d="M0,0 L28,0 L28,28 L0,28 Z " fill="#020202" transform="translate(0,0)"/>
<path d="M0,0 L2,1 L-2,10 L-2,16 L0,17 L2,12 L6,8 L11,9 L11,16 L9,19 L0,20 L-5,17 L-5,8 Z " fill="#EBEBEB" transform="translate(12,2)"/>
<path d="M0,0 L2,1 L-2,10 L-2,16 L0,17 L1,15 L1,18 L-3,19 L-5,17 L-5,8 Z " fill="#DBDBDB" transform="translate(12,2)"/>
<path d="M0,0 L2,0 L2,6 L0,8 L-4,8 L-3,3 Z " fill="#121212" transform="translate(19,12)"/>
<path d="M0,0 L5,1 L4,6 L3,2 L-2,6 L-4,9 L-5,6 Z " fill="#CBCBCB" transform="translate(18,10)"/>
<path d="M0,0 L2,1 L-2,10 L-4,6 Z " fill="#C0C0C0" transform="translate(12,2)"/>
</svg>
