<?xml version="1.0" encoding="UTF-8"?>
<svg version="1.1" xmlns="http://www.w3.org/2000/svg" width="28" height="28">
<path d="M0,0 L28,0 L28,28 L0,28 Z " fill="#020202" transform="translate(0,0)"/>
<path d="M0,0 L3,0 L3,7 L1,16 L3,16 L5,12 L9,9 L14,9 L15,13 L10,18 L2,20 L-3,16 L-2,10 Z " fill="#E8E8E8" transform="translate(10,2)"/>
<path d="M0,0 L1,3 L-4,8 L-8,6 L-3,1 Z " fill="#828282" transform="translate(24,12)"/>
<path d="M0,0 L3,0 L3,7 L0,7 L-1,5 Z " fill="#A7A7A7" transform="translate(10,2)"/>
</svg>
