<?xml version="1.0" encoding="UTF-8"?>
<svg version="1.1" xmlns="http://www.w3.org/2000/svg" width="28" height="28">
<path d="M0,0 L28,0 L28,28 L0,28 Z " fill="#010101" transform="translate(0,0)"/>
<path d="M0,0 L1,2 L-2,8 L5,10 L4,14 L0,19 L-4,20 L-6,19 L-6,11 L-1,1 Z " fill="#DCDCDC" transform="translate(16,3)"/>
<path d="M0,0 L5,1 L3,5 L-2,6 L-2,1 Z " fill="#0F0F0F" transform="translate(14,14)"/>
<path d="M0,0 L1,2 L-2,8 L-1,10 L-5,11 L-4,6 Z " fill="#C7C7C7" transform="translate(16,3)"/>
</svg>
