<?xml version="1.0" encoding="UTF-8"?>
<svg version="1.1" xmlns="http://www.w3.org/2000/svg" width="28" height="28">
<path d="M0,0 L28,0 L28,28 L0,28 Z " fill="#030303" transform="translate(0,0)"/>
<path d="M0,0 L2,0 L1,4 L-6,7 L-10,11 L-12,11 L-11,13 L-9,12 L0,12 L1,16 L0,14 L-9,15 L-13,19 L-8,19 L-8,20 L-16,20 L-16,14 L-11,8 Z " fill="#D6D6D6" transform="translate(22,2)"/>
<path d="M0,0 L9,0 L10,3 L6,5 L-4,5 L-2,1 Z " fill="#323232" transform="translate(13,16)"/>
<path d="M0,0 L2,1 L-2,5 L5,6 L5,7 L-4,8 L-8,9 L-7,6 Z " fill="#282828" transform="translate(17,7)"/>
</svg>
