<?xml version="1.0" encoding="UTF-8"?>
<svg version="1.1" xmlns="http://www.w3.org/2000/svg" width="28" height="28">
<path d="M0,0 L28,0 L28,28 L0,28 Z " fill="#030303" transform="translate(0,0)"/>
<path d="M0,0 L2,0 L1,4 L-7,13 L-8,17 L-6,17 L-5,13 L-4,12 L2,12 L3,17 L-1,20 L-8,19 L-10,15 L-9,11 L-7,11 L-5,7 L-1,2 Z " fill="#B4B4B4" transform="translate(18,2)"/>
<path d="M0,0 L5,1 L4,6 L1,8 L-3,7 L1,5 L3,5 L3,2 L-1,1 Z " fill="#DEDEDE" transform="translate(16,14)"/>
<path d="M0,0 L6,0 L2,2 L0,6 L-2,6 L-1,1 Z " fill="#242424" transform="translate(12,13)"/>
</svg>
