<?xml version="1.0" encoding="UTF-8"?>
<svg version="1.1" xmlns="http://www.w3.org/2000/svg" width="28" height="28">
<path d="M0,0 L28,0 L28,28 L0,28 Z " fill="#040404" transform="translate(0,0)"/>
<path d="M0,0 L3,0 L2,3 L0,3 L0,5 L-3,5 L-5,9 L-9,14 L-10,16 L-1,12 L4,12 L3,16 L-1,15 L-3,16 L2,17 L2,19 L-10,20 L-13,16 L-8,8 Z " fill="#E9E9E9" transform="translate(18,2)"/>
<path d="M0,0 L3,0 L2,3 L0,3 L0,5 L-3,5 L-5,9 L-9,14 L-10,16 L-8,17 L-12,18 L-13,16 L-8,8 Z " fill="#C8C8C8" transform="translate(18,2)"/>
<path d="M0,0 L3,0 L2,3 L0,3 L0,5 L-4,6 L-2,2 Z " fill="#E1E1E1" transform="translate(18,2)"/>
<path d="M0,0 L4,1 L3,4 L-3,3 Z " fill="#717171" transform="translate(17,16)"/>
</svg>
