<?xml version="1.0" encoding="UTF-8"?>
<svg version="1.1" xmlns="http://www.w3.org/2000/svg" width="28" height="28">
<path d="M0,0 L28,0 L28,28 L0,28 Z " fill="#020202" transform="translate(0,0)"/>
<path d="M0,0 L1,0 L0,18 L2,18 L3,11 L5,9 L9,10 L10,11 L10,16 L7,19 L0,20 L-2,18 L-3,11 L-1,1 Z " fill="#E6E6E6" transform="translate(12,2)"/>
<path d="M0,0 L1,0 L0,18 L2,19 L-1,19 L-3,14 L-1,1 Z " fill="#D5D5D5" transform="translate(12,2)"/>
<path d="M0,0 L3,1 L2,5 L-2,7 L-1,2 Z " fill="#272727" transform="translate(18,13)"/>
</svg>
