<?xml version="1.0" encoding="UTF-8"?>
<svg version="1.1" xmlns="http://www.w3.org/2000/svg" width="28" height="28">
<path d="M0,0 L28,0 L28,28 L0,28 Z " fill="#030303" transform="translate(0,0)"/>
<path d="M0,0 L3,1 L1,1 L1,3 L-1,3 L-2,15 L0,17 L5,18 L3,20 L-2,19 L-5,12 L-3,3 Z " fill="#E0E0E0" transform="translate(12,2)"/>
<path d="M0,0 L5,0 L7,3 L6,8 L2,9 L4,2 L-1,4 Z " fill="#CECECE" transform="translate(16,12)"/>
<path d="M0,0 L2,0 L2,5 L-1,7 L-4,5 L-2,4 L-2,1 Z " fill="#646464" transform="translate(18,14)"/>
</svg>
