<?xml version="1.0" encoding="UTF-8"?>
<svg version="1.1" xmlns="http://www.w3.org/2000/svg" width="28" height="28">
<path d="M0,0 L28,0 L28,28 L0,28 Z " fill="#010101" transform="translate(0,0)"/>
<path d="M0,0 L3,0 L3,2 L1,2 L-1,9 L2,12 L1,19 L-3,20 L-7,14 L-4,5 Z " fill="#A1A1A1" transform="translate(16,3)"/>
<path d="M0,0 L2,2 L2,5 L5,5 L5,0 L7,0 L6,7 L2,8 L-1,4 Z " fill="#E9E9E9" transform="translate(11,15)"/>
<path d="M0,0 L3,0 L3,2 L1,2 L-1,7 L-4,7 L-2,3 Z " fill="#C1C1C1" transform="translate(16,3)"/>
</svg>
