<?xml version="1.0" encoding="UTF-8"?>
<svg version="1.1" xmlns="http://www.w3.org/2000/svg" width="28" height="28">
<path d="M0,0 L28,0 L28,28 L0,28 Z " fill="#030303" transform="translate(0,0)"/>
<path d="M0,0 L4,0 L4,2 L-1,4 L-2,13 L3,9 L10,8 L12,9 L12,16 L5,20 L-2,20 L-5,17 L-6,10 L-3,3 Z " fill="#E2E2E2" transform="translate(13,2)"/>
<path d="M0,0 L4,0 L4,2 L-1,4 L-4,14 L-6,14 L-5,6 Z " fill="#EDEDED" transform="translate(13,2)"/>
<path d="M0,0 L6,0 L5,4 L1,6 L-3,5 L-2,1 Z " fill="#090909" transform="translate(17,13)"/>
<path d="M0,0 L6,1 L6,8 L3,6 L4,3 L-3,2 Z " fill="#BEBEBE" transform="translate(19,10)"/>
<path d="M0,0 L4,0 L4,2 L-4,6 L-2,2 Z " fill="#C4C4C4" transform="translate(13,2)"/>
</svg>
