<?xml version="1.0" encoding="UTF-8"?>
<svg version="1.1" xmlns="http://www.w3.org/2000/svg" width="28" height="28">
<path d="M0,0 L28,0 L28,28 L0,28 Z " fill="#020202" transform="translate(0,0)"/>
<path d="M0,0 L3,0 L2,3 L0,3 L-2,7 L-5,13 L5,10 L3,16 L-1,20 L-7,20 L-9,18 L-8,11 L-1,1 Z " fill="#E9E9E9" transform="translate(17,2)"/>
<path d="M0,0 L2,1 L-1,8 L-7,6 L-6,2 Z " fill="#C1C1C1" transform="translate(20,12)"/>
<path d="M0,0 L3,0 L2,3 L0,3 L-1,6 L-3,5 L-1,1 Z " fill="#C7C7C7" transform="translate(17,2)"/>
</svg>
