<?xml version="1.0" encoding="UTF-8"?>
<svg version="1.1" xmlns="http://www.w3.org/2000/svg" width="28" height="28">
<path d="M0,0 L28,0 L28,28 L0,28 Z " fill="#020202" transform="translate(0,0)"/>
<path d="M0,0 L2,0 L0,16 L2,16 L3,11 L8,10 L11,12 L10,17 L7,20 L1,20 L-3,16 L-3,8 Z " fill="#9C9C9C" transform="translate(12,2)"/>
<path d="M0,0 L2,0 L0,16 L3,15 L4,19 L-1,19 L-3,16 L-3,8 Z " fill="#E8E8E8" transform="translate(12,2)"/>
<path d="M0,0 L3,1 L2,6 L-1,8 Z " fill="#EFEFEF" transform="translate(20,13)"/>
</svg>
