<?xml version="1.0" encoding="UTF-8"?>
<svg version="1.1" xmlns="http://www.w3.org/2000/svg" width="28" height="28">
<path d="M0,0 L28,0 L28,28 L0,28 Z " fill="#030303" transform="translate(0,0)"/>
<path d="M0,0 L3,0 L2,3 L0,3 L0,12 L6,11 L10,13 L9,18 L6,20 L1,20 L-4,15 L-4,8 Z " fill="#DFDFDF" transform="translate(13,2)"/>
<path d="M0,0 L3,0 L2,3 L0,3 L-1,10 L-3,12 L-2,4 Z " fill="#E8E8E8" transform="translate(13,2)"/>
<path d="M0,0 L4,1 L4,4 L-1,4 Z " fill="#1F1F1F" transform="translate(16,15)"/>
</svg>
