<?xml version="1.0" encoding="UTF-8"?>
<svg version="1.1" xmlns="http://www.w3.org/2000/svg" width="28" height="28">
<path d="M0,0 L28,0 L28,28 L0,28 Z " fill="#020202" transform="translate(0,0)"/>
<path d="M0,0 L3,0 L1,5 L-4,11 L-4,13 L2,12 L3,14 L0,19 L-6,20 L-9,17 L-8,10 Z " fill="#CFCFCF" transform="translate(18,3)"/>
<path d="M0,0 L1,3 L3,3 L3,5 L7,4 L7,7 L1,8 L-2,5 L-2,1 Z " fill="#EFEFEF" transform="translate(11,15)"/>
<path d="M0,0 L3,0 L1,5 L-3,8 L-6,9 L-4,5 Z " fill="#E7E7E7" transform="translate(18,3)"/>
</svg>
