<?xml version="1.0" encoding="UTF-8"?>
<svg version="1.1" xmlns="http://www.w3.org/2000/svg" width="28" height="28">
<path d="M0,0 L28,0 L28,28 L0,28 Z " fill="#020202" transform="translate(0,0)"/>
<path d="M0,0 L3,1 L-3,9 L-3,15 L-1,15 L0,10 L3,11 L2,16 L4,10 L6,11 L5,17 L2,20 L-4,19 L-6,16 L-6,8 L-2,2 Z " fill="#E1E1E1" transform="translate(15,3)"/>
<path d="M0,0 L3,1 L-2,7 L-4,6 L-2,2 Z " fill="#CACACA" transform="translate(15,3)"/>
<path d="M0,0 L4,1 L2,7 L0,8 L1,2 Z " fill="#373737" transform="translate(16,12)"/>
</svg>
