<?xml version="1.0" encoding="UTF-8"?>
<svg version="1.1" xmlns="http://www.w3.org/2000/svg" width="28" height="28">
<path d="M0,0 L28,0 L28,28 L0,28 Z " fill="#020202" transform="translate(0,0)"/>
<path d="M0,0 L0,3 L-6,11 L1,13 L-1,18 L-5,20 L-10,19 L-11,14 L-5,5 Z " fill="#CCCCCC" transform="translate(20,2)"/>
<path d="M0,0 L3,0 L1,4 L-4,5 L-4,1 Z " fill="#0E0E0E" transform="translate(16,15)"/>
<path d="M0,0 L1,3 L3,4 L0,4 L-1,9 L-3,6 L-1,1 Z " fill="#E7E7E7" transform="translate(12,12)"/>
</svg>
