<?xml version="1.0" encoding="UTF-8"?>
<svg version="1.1" xmlns="http://www.w3.org/2000/svg" width="28" height="28">
<path d="M0,0 L28,0 L28,28 L0,28 Z " fill="#030303" transform="translate(0,0)"/>
<path d="M0,0 L1,4 L-3,9 L-2,10 L0,8 L4,9 L5,10 L5,16 L0,20 L-5,20 L-7,18 L-7,11 L-3,3 Z " fill="#EEEEEE" transform="translate(16,3)"/>
<path d="M0,0 L2,1 L0,6 L-4,6 L-2,2 Z " fill="#2A2A2A" transform="translate(17,13)"/>
<path d="M0,0 L1,0 L1,6 L-3,9 L-3,5 Z " fill="#C9C9C9" transform="translate(20,13)"/>
</svg>
