<?xml version="1.0" encoding="UTF-8"?>
<svg version="1.1" xmlns="http://www.w3.org/2000/svg" width="28" height="28">
<path d="M0,0 L28,0 L28,28 L0,28 Z " fill="#020202" transform="translate(0,0)"/>
<path d="M0,0 L1,3 L-1,7 L-1,16 L2,16 L3,12 L7,10 L10,13 L9,18 L5,20 L-2,19 L-4,17 L-4,7 Z " fill="#A6A6A6" transform="translate(12,1)"/>
<path d="M0,0 L1,3 L-1,7 L-1,16 L4,20 L-2,19 L-4,17 L-4,7 Z " fill="#B9B9B9" transform="translate(12,1)"/>
<path d="M0,0 L1,0 L3,7 L8,11 L2,10 L0,8 Z " fill="#E6E6E6" transform="translate(8,10)"/>
</svg>
