<?xml version="1.0" encoding="UTF-8"?>
<svg version="1.1" xmlns="http://www.w3.org/2000/svg" width="28" height="28">
<path d="M0,0 L28,0 L28,28 L0,28 Z " fill="#020202" transform="translate(0,0)"/>
<path d="M0,0 L3,0 L2,5 L0,5 L1,8 L5,8 L7,10 L6,16 L2,19 L-4,20 L-5,18 L-5,10 Z " fill="#F1F1F1" transform="translate(14,3)"/>
<path d="M0,0 L4,0 L3,6 L-1,9 L-7,10 L-8,7 L-6,7 L-6,5 L-4,5 L-3,2 Z " fill="#B6B6B6" transform="translate(17,13)"/>
<path d="M0,0 L3,0 L2,5 L0,5 L-1,8 L-4,9 L-2,4 Z " fill="#D8D8D8" transform="translate(14,3)"/>
</svg>
