<?xml version="1.0" encoding="UTF-8"?>
<svg version="1.1" xmlns="http://www.w3.org/2000/svg" width="28" height="28">
<path d="M0,0 L28,0 L28,28 L0,28 Z " fill="#030303" transform="translate(0,0)"/>
<path d="M0,0 L3,0 L1,6 L-1,6 L-1,9 L7,9 L8,14 L-1,20 L-7,20 L-8,19 L-8,12 L-1,1 Z " fill="#E2E2E2" transform="translate(15,3)"/>
<path d="M0,0 L5,1 L5,5 L-3,10 L-6,10 L-4,6 L0,3 Z " fill="#E7E7E7" transform="translate(18,12)"/>
<path d="M0,0 L3,1 L-2,5 L-5,4 L-3,1 Z " fill="#131313" transform="translate(15,15)"/>
</svg>
