<?xml version="1.0" encoding="UTF-8"?>
<svg version="1.1" xmlns="http://www.w3.org/2000/svg" width="28" height="28">
<path d="M0,0 L28,0 L28,28 L0,28 Z " fill="#020202" transform="translate(0,0)"/>
<path d="M0,0 L3,0 L1,5 L-1,10 L6,11 L7,12 L7,18 L3,20 L-2,19 L-4,15 L-4,8 Z " fill="#E7E7E7" transform="translate(13,2)"/>
<path d="M0,0 L3,0 L1,5 L-1,11 L-3,11 L-4,15 L-4,8 Z " fill="#C3C3C3" transform="translate(13,2)"/>
<path d="M0,0 L5,0 L4,5 L0,4 Z " fill="#1A1A1A" transform="translate(12,15)"/>
</svg>
