<?xml version="1.0" encoding="UTF-8"?>
<svg version="1.1" xmlns="http://www.w3.org/2000/svg" width="28" height="28">
<path d="M0,0 L28,0 L28,28 L0,28 Z " fill="#010101" transform="translate(0,0)"/>
<path d="M0,0 L2,0 L1,5 L-2,10 L-4,17 L-2,17 L-2,12 L1,8 L5,9 L6,14 L1,19 L-5,20 L-6,19 L-6,11 L-1,1 Z " fill="#E5E5E5" transform="translate(15,2)"/>
<path d="M0,0 L4,1 L5,6 L-1,7 L-3,9 L-3,4 Z " fill="#D4D4D4" transform="translate(16,10)"/>
<path d="M0,0 L2,4 L0,10 L-2,10 L-1,3 Z " fill="#3A3A3A" transform="translate(13,9)"/>
<path d="M0,0 L4,0 L3,4 L1,4 L-1,6 L-1,1 Z " fill="#8D8D8D" transform="translate(14,13)"/>
<path d="M0,0 L2,0 L1,5 L-3,6 L-1,1 Z " fill="#C1C1C1" transform="translate(15,2)"/>
</svg>
