<?xml version="1.0" encoding="UTF-8"?>
<svg version="1.1" xmlns="http://www.w3.org/2000/svg" width="28" height="28">
<path d="M0,0 L28,0 L28,28 L0,28 Z " fill="#030303" transform="translate(0,0)"/>
<path d="M0,0 L4,0 L4,2 L-1,3 L-3,7 L-7,11 L-7,15 L-5,13 L-1,12 L6,12 L7,14 L6,17 L-2,20 L-9,19 L-11,17 L-10,10 L-6,5 L-4,5 L-4,3 L-2,3 L-2,1 Z " fill="#DFDFDF" transform="translate(18,2)"/>
<path d="M0,0 L4,0 L4,2 L-1,3 L-3,7 L-6,9 L-8,7 L-4,5 L-4,3 L-2,3 L-2,1 Z " fill="#CCCCCC" transform="translate(18,2)"/>
<path d="M0,0 L5,1 L4,3 L-1,5 L-5,5 L-4,2 Z " fill="#111111" transform="translate(18,15)"/>
<path d="M0,0 L2,2 L1,5 L-5,7 L-6,5 L-1,3 L-2,1 Z " fill="#C1C1C1" transform="translate(23,14)"/>
</svg>
