<?xml version="1.0" encoding="UTF-8"?>
<svg version="1.1" xmlns="http://www.w3.org/2000/svg" width="28" height="28">
<path d="M0,0 L28,0 L28,28 L0,28 Z " fill="#020202" transform="translate(0,0)"/>
<path d="M0,0 L2,0 L0,5 L-5,12 L-1,9 L4,10 L3,14 L-2,18 L-8,20 L-8,12 L-4,5 Z " fill="#EEEEEE" transform="translate(17,3)"/>
<path d="M0,0 L5,1 L4,5 L0,6 L-2,6 L-1,1 Z " fill="#CCCCCC" transform="translate(16,12)"/>
<path d="M0,0 L2,0 L0,5 L-4,10 L-7,11 L-5,7 Z " fill="#D2D2D2" transform="translate(17,3)"/>
</svg>
