<?xml version="1.0" encoding="UTF-8"?>
<svg version="1.1" xmlns="http://www.w3.org/2000/svg" width="28" height="28">
<path d="M0,0 L28,0 L28,28 L0,28 Z " fill="#010101" transform="translate(0,0)"/>
<path d="M0,0 L2,0 L2,3 L0,3 L-1,8 L-2,11 L4,12 L5,13 L5,18 L2,20 L-4,20 L-5,18 L-5,9 L-6,7 L-2,3 Z " fill="#E4E4E4" transform="translate(15,2)"/>
<path d="M0,0 L2,0 L2,3 L0,3 L-1,8 L-2,11 L-4,11 L-6,7 L-2,3 Z " fill="#D0D0D0" transform="translate(15,2)"/>
<path d="M0,0 L6,1 L5,5 L1,5 Z " fill="#2E2E2E" transform="translate(12,15)"/>
</svg>
