<?xml version="1.0" encoding="UTF-8"?>
<svg version="1.1" xmlns="http://www.w3.org/2000/svg" width="28" height="28">
<path d="M0,0 L28,0 L28,28 L0,28 Z " fill="#020202" transform="translate(0,0)"/>
<path d="M0,0 L2,0 L1,10 L9,10 L11,12 L10,17 L8,20 L1,19 L-2,16 L-2,3 Z " fill="#BBBBBB" transform="translate(12,3)"/>
<path d="M0,0 L7,0 L9,2 L8,7 L6,10 L1,10 L0,8 L6,6 L5,2 L0,2 Z " fill="#DADADA" transform="translate(14,13)"/>
<path d="M0,0 L4,1 L5,5 L4,6 L-1,6 L-2,2 L0,2 Z " fill="#161616" transform="translate(16,14)"/>
<path d="M0,0 L2,0 L1,4 L-1,13 L-2,13 L-2,3 Z " fill="#E2E2E2" transform="translate(12,3)"/>
</svg>
