<?xml version="1.0" encoding="UTF-8"?>
<svg version="1.1" xmlns="http://www.w3.org/2000/svg" width="28" height="28">
<path d="M0,0 L28,0 L28,28 L0,28 Z " fill="#030303" transform="translate(0,0)"/>
<path d="M0,0 L4,1 L5,4 L1,3 L-6,9 L-2,10 L-1,15 L-6,20 L-11,20 L-12,19 L-12,13 L-8,7 L-3,2 Z " fill="#E4E4E4" transform="translate(20,4)"/>
<path d="M0,0 L4,1 L5,4 L1,3 L-6,9 L-7,11 L-5,12 L-12,15 L-10,9 L-5,3 Z " fill="#E4E4E4" transform="translate(20,4)"/>
<path d="M0,0 L4,1 L1,5 L-3,5 L-3,2 Z " fill="#1C1C1C" transform="translate(13,16)"/>
<path d="M0,0 L5,0 L6,5 L4,7 L2,5 L2,2 Z " fill="#CACACA" transform="translate(13,14)"/>
</svg>
