<?xml version="1.0" encoding="UTF-8"?>
<svg version="1.1" xmlns="http://www.w3.org/2000/svg" width="28" height="28">
<path d="M0,0 L28,0 L28,28 L0,28 Z " fill="#030303" transform="translate(0,0)"/>
<path d="M0,0 L3,1 L-2,6 L-3,12 L4,8 L11,8 L14,11 L13,16 L7,20 L-3,20 L-6,15 L-6,8 L-2,2 Z " fill="#D0D0D0" transform="translate(12,2)"/>
<path d="M0,0 L6,0 L8,2 L7,6 L4,8 L-4,8 L-7,7 L-5,3 Z " fill="#121212" transform="translate(16,12)"/>
<path d="M0,0 L2,1 L0,4 L3,4 L3,6 L7,7 L0,7 L-2,5 L-2,1 Z " fill="#EBEBEB" transform="translate(9,15)"/>
</svg>
