<?xml version="1.0" encoding="UTF-8"?>
<svg version="1.1" xmlns="http://www.w3.org/2000/svg" width="28" height="28">
<path d="M0,0 L28,0 L28,28 L0,28 Z " fill="#020202" transform="translate(0,0)"/>
<path d="M0,0 L1,3 L0,4 L-1,13 L8,9 L13,10 L13,15 L8,19 L0,20 L-3,18 L-4,15 L-4,8 L-1,1 Z " fill="#DBDBDB" transform="translate(12,2)"/>
<path d="M0,0 L3,0 L2,4 L-3,7 L-9,7 L-8,3 Z " fill="#111111" transform="translate(21,13)"/>
<path d="M0,0 L1,3 L0,4 L0,14 L-2,14 L-3,4 Z " fill="#B1B1B1" transform="translate(12,2)"/>
</svg>
