<?xml version="1.0" encoding="UTF-8"?>
<svg version="1.1" xmlns="http://www.w3.org/2000/svg" width="28" height="28">
<path d="M0,0 L28,0 L28,28 L0,28 Z " fill="#030303" transform="translate(0,0)"/>
<path d="M0,0 L3,0 L1,6 L-5,13 L-5,16 L-3,17 L-3,14 L-1,14 L0,11 L5,10 L7,12 L6,17 L1,20 L-7,19 L-9,17 L-9,11 L-2,3 Z " fill="#E8E8E8" transform="translate(16,2)"/>
<path d="M0,0 L4,1 L5,6 L2,8 L-2,7 L-3,2 Z " fill="#EBEBEB" transform="translate(18,12)"/>
<path d="M0,0 L3,1 L1,2 L1,6 L-2,7 L-3,2 Z " fill="#8F8F8F" transform="translate(18,12)"/>
</svg>
