<?xml version="1.0" encoding="UTF-8"?>
<svg version="1.1" xmlns="http://www.w3.org/2000/svg" width="28" height="28">
<path d="M0,0 L28,0 L28,28 L0,28 Z " fill="#020202" transform="translate(0,0)"/>
<path d="M0,0 L2,0 L1,6 L-3,12 L2,13 L1,17 L-5,20 L-10,18 L-9,13 L-3,5 Z " fill="#F9F9F9" transform="translate(18,2)"/>
<path d="M0,0 L2,0 L1,6 L-2,10 L-2,13 L-6,13 L-10,18 L-9,13 L-3,5 Z " fill="#DADADA" transform="translate(18,2)"/>
<path d="M0,0 L3,1 L2,5 L-1,5 L-1,2 Z " fill="#E1E1E1" transform="translate(17,14)"/>
</svg>
