<?xml version="1.0" encoding="UTF-8"?>
<svg version="1.1" xmlns="http://www.w3.org/2000/svg" width="28" height="28">
<path d="M0,0 L28,0 L28,28 L0,28 Z " fill="#010101" transform="translate(0,0)"/>
<path d="M0,0 L0,3 L-4,7 L-5,12 L3,12 L4,7 L7,4 L12,5 L13,9 L7,13 L3,14 L-4,14 L-7,12 L-6,6 L-2,1 Z " fill="#C1C1C1" transform="translate(12,6)"/>
<path d="M0,0 L0,3 L-4,7 L-5,12 L3,12 L3,14 L-4,14 L-7,12 L-6,6 L-2,1 Z " fill="#B0B0B0" transform="translate(12,6)"/>
<path d="M0,0 L4,0 L3,4 L-3,6 L-2,2 Z " fill="#131313" transform="translate(19,12)"/>
</svg>
