<?xml version="1.0" encoding="UTF-8"?>
<svg version="1.1" xmlns="http://www.w3.org/2000/svg" width="28" height="28">
<path d="M0,0 L28,0 L28,28 L0,28 Z " fill="#050505" transform="translate(0,0)"/>
<path d="M0,0 L3,0 L1,4 L-1,8 L-6,12 L-7,16 L-4,16 L-3,12 L-1,12 L-1,10 L4,10 L5,15 L2,18 L-1,18 L-1,20 L-7,19 L-10,16 L-10,11 L-8,11 L-6,7 Z " fill="#EDEDED" transform="translate(17,3)"/>
<path d="M0,0 L5,0 L6,5 L3,8 L0,8 L0,10 L-5,9 L-5,7 L-3,7 L-2,2 L0,2 Z " fill="#EFEFEF" transform="translate(16,13)"/>
<path d="M0,0 L3,0 L4,3 L0,6 L-3,5 L-1,1 Z " fill="#979797" transform="translate(18,15)"/>
<path d="M0,0 L3,0 L3,5 L6,6 L4,6 L3,8 L0,5 Z " fill="#D4D4D4" transform="translate(7,14)"/>
</svg>
