<?xml version="1.0" encoding="UTF-8"?>
<svg version="1.1" xmlns="http://www.w3.org/2000/svg" width="28" height="28">
<path d="M0,0 L28,0 L28,28 L0,28 Z " fill="#030303" transform="translate(0,0)"/>
<path d="M0,0 L1,4 L-7,15 L-8,18 L-5,18 L-4,12 L-2,10 L3,10 L3,15 L0,19 L-10,20 L-11,15 Z " fill="#B9B9B9" transform="translate(18,2)"/>
<path d="M0,0 L1,4 L-7,15 L-9,18 L-11,19 L-10,13 Z " fill="#DFDFDF" transform="translate(18,2)"/>
<path d="M0,0 L5,0 L5,5 L1,3 L-2,6 L-1,1 Z " fill="#ECECEC" transform="translate(16,12)"/>
<path d="M0,0 L2,1 L0,7 L-3,7 L-2,3 Z " fill="#252525" transform="translate(13,13)"/>
</svg>
