<?xml version="1.0" encoding="UTF-8"?>
<svg version="1.1" xmlns="http://www.w3.org/2000/svg" width="28" height="28">
<path d="M0,0 L28,0 L28,28 L0,28 Z " fill="#040404" transform="translate(0,0)"/>
<path d="M0,0 L3,1 L1,2 L0,7 L0,16 L2,16 L3,13 L3,17 L8,15 L8,10 L11,10 L11,16 L8,19 L1,20 L-3,16 L-3,5 Z " fill="#E5E5E5" transform="translate(12,2)"/>
<path d="M0,0 L4,1 L4,6 L2,8 L-4,7 L-3,2 Z " fill="#C6C6C6" transform="translate(17,11)"/>
<path d="M0,0 L2,1 L1,5 L-3,5 L-2,1 Z " fill="#040404" transform="translate(19,13)"/>
</svg>
