<?xml version="1.0" encoding="UTF-8"?>
<svg version="1.1" xmlns="http://www.w3.org/2000/svg" width="28" height="28">
<path d="M0,0 L28,0 L28,28 L0,28 Z " fill="#040404" transform="translate(0,0)"/>
<path d="M0,0 L3,1 L-4,5 L-7,14 L2,12 L8,15 L7,19 L-2,20 L-7,17 L-8,16 L-8,7 L-4,2 Z " fill="#D5D5D5" transform="translate(16,2)"/>
<path d="M0,0 L3,1 L-4,5 L-7,14 L0,13 L-2,15 L-5,15 L-5,17 L-2,18 L-6,18 L-8,16 L-8,7 L-4,2 Z " fill="#E3E3E3" transform="translate(16,2)"/>
<path d="M0,0 L7,1 L7,4 L0,4 L-3,3 L-3,1 Z " fill="#1B1B1B" transform="translate(14,16)"/>
</svg>
