<?xml version="1.0" encoding="UTF-8"?>
<svg version="1.1" xmlns="http://www.w3.org/2000/svg" width="28" height="28">
<path d="M0,0 L28,0 L28,28 L0,28 Z " fill="#030303" transform="translate(0,0)"/>
<path d="M0,0 L3,0 L0,9 L1,16 L3,9 L6,6 L11,7 L11,16 L8,19 L0,20 L-4,15 L-4,7 L-2,2 L0,2 Z " fill="#EDEDED" transform="translate(11,3)"/>
<path d="M0,0 L5,1 L5,10 L2,13 L0,13 L-2,10 L-3,3 Z " fill="#D7D7D7" transform="translate(17,9)"/>
<path d="M0,0 L3,0 L0,9 L-2,8 L-3,15 L-4,15 L-4,7 L-2,2 L0,2 Z " fill="#CCCCCC" transform="translate(11,3)"/>
<path d="M0,0 L2,0 L1,6 L-2,7 L-2,2 Z " fill="#090909" transform="translate(18,12)"/>
</svg>
