<?xml version="1.0" encoding="UTF-8"?>
<svg version="1.1" xmlns="http://www.w3.org/2000/svg" width="28" height="28">
<path d="M0,0 L28,0 L28,28 L0,28 Z " fill="#020202" transform="translate(0,0)"/>
<path d="M0,0 L3,1 L-9,10 L-10,12 L-7,11 L0,11 L-1,16 L-6,20 L-13,20 L-15,17 L-14,12 L-9,7 Z " fill="#EAEAEA" transform="translate(22,2)"/>
<path d="M0,0 L11,0 L10,5 L6,8 L0,7 Z " fill="#D6D6D6" transform="translate(11,13)"/>
<path d="M0,0 L5,0 L3,4 L-3,5 L-3,2 Z " fill="#0B0B0B" transform="translate(14,15)"/>
<path d="M0,0 L2,1 L-1,4 L3,6 L-6,7 L-5,4 Z " fill="#2B2B2B" transform="translate(18,7)"/>
<path d="M0,0 L3,1 L-2,5 L-6,4 Z " fill="#CDCDCD" transform="translate(22,2)"/>
</svg>
