<?xml version="1.0" encoding="UTF-8"?>
<svg version="1.1" xmlns="http://www.w3.org/2000/svg" width="28" height="28">
<path d="M0,0 L28,0 L28,28 L0,28 Z " fill="#020202" transform="translate(0,0)"/>
<path d="M0,0 L2,0 L0,4 L-2,8 L4,11 L3,16 L-2,20 L-7,20 L-8,13 L-3,4 Z " fill="#DFDFDF" transform="translate(17,3)"/>
<path d="M0,0 L7,0 L6,4 L3,6 L-1,5 Z " fill="#161616" transform="translate(12,15)"/>
<path d="M0,0 L2,0 L0,4 L-2,8 L-1,10 L-4,10 L-5,7 Z " fill="#CFCFCF" transform="translate(17,3)"/>
</svg>
