<?xml version="1.0" encoding="UTF-8"?>
<svg version="1.1" xmlns="http://www.w3.org/2000/svg" width="28" height="28">
<path d="M0,0 L28,0 L28,28 L0,28 Z " fill="#020202" transform="translate(0,0)"/>
<path d="M0,0 L1,3 L-6,13 L-7,18 L0,16 L2,12 L-6,16 L-4,12 L-1,10 L4,10 L5,13 L1,18 L-2,20 L-7,20 L-9,18 L-8,12 L-1,1 Z " fill="#C3C3C3" transform="translate(17,2)"/>
<path d="M0,0 L1,3 L-6,13 L-6,18 L-3,20 L-8,19 L-9,14 L-3,4 Z " fill="#E8E8E8" transform="translate(17,2)"/>
<path d="M0,0 L1,4 L5,1 L8,1 L7,5 L4,7 L-1,7 Z " fill="#191919" transform="translate(11,13)"/>
<path d="M0,0 L1,3 L-4,10 L-6,10 L-4,6 Z " fill="#CDCDCD" transform="translate(17,2)"/>
</svg>
