<?xml version="1.0" encoding="UTF-8"?>
<svg version="1.1" xmlns="http://www.w3.org/2000/svg" width="28" height="28">
<path d="M0,0 L28,0 L28,28 L0,28 Z " fill="#030303" transform="translate(0,0)"/>
<path d="M0,0 L2,0 L0,5 L-4,10 L-5,12 L0,11 L-3,14 L-5,18 L-2,20 L-7,19 L-8,18 L-7,9 Z " fill="#EAEAEA" transform="translate(17,2)"/>
<path d="M0,0 L5,0 L5,6 L1,10 L-4,8 L-2,7 L-1,3 L1,2 Z " fill="#CFCFCF" transform="translate(15,12)"/>
<path d="M0,0 L3,0 L2,4 L0,6 L-3,6 L-2,1 Z " fill="#191919" transform="translate(16,14)"/>
</svg>
