<?xml version="1.0" encoding="UTF-8"?>
<svg version="1.1" xmlns="http://www.w3.org/2000/svg" width="28" height="28">
<path d="M0,0 L28,0 L28,28 L0,28 Z " fill="#020202" transform="translate(0,0)"/>
<path d="M0,0 L1,0 L1,5 L-4,12 L0,10 L4,11 L4,16 L-1,20 L-6,20 L-8,18 L-8,12 L-1,2 Z " fill="#D3D3D3" transform="translate(17,2)"/>
<path d="M0,0 L1,0 L1,5 L-5,14 L-3,14 L-3,20 L-7,19 L-8,18 L-8,12 L-1,2 Z " fill="#E5E5E5" transform="translate(17,2)"/>
<path d="M0,0 L3,0 L4,2 L4,6 L0,5 L-1,1 Z " fill="#F8F8F8" transform="translate(10,16)"/>
<path d="M0,0 L2,0 L1,4 L-3,6 L-2,2 Z " fill="#191919" transform="translate(17,14)"/>
<path d="M0,0 L3,1 L1,7 L-2,6 L-1,2 Z " fill="#C4C4C4" transform="translate(11,11)"/>
</svg>
