<?xml version="1.0" encoding="UTF-8"?>
<svg version="1.1" xmlns="http://www.w3.org/2000/svg" width="28" height="28">
<path d="M0,0 L28,0 L28,28 L0,28 Z " fill="#040404" transform="translate(0,0)"/>
<path d="M0,0 L3,0 L4,4 L2,4 L3,12 L7,9 L12,10 L13,17 L12,19 L2,20 L-1,11 L-1,1 Z " fill="#E4E4E4" transform="translate(9,3)"/>
<path d="M0,0 L4,0 L5,6 L3,6 L2,3 L-2,2 Z " fill="#F9F9F9" transform="translate(17,13)"/>
<path d="M0,0 L3,1 L2,5 L-2,4 Z " fill="#171717" transform="translate(17,15)"/>
</svg>
