<?xml version="1.0" encoding="UTF-8"?>
<svg version="1.1" xmlns="http://www.w3.org/2000/svg" width="28" height="28">
<path d="M0,0 L28,0 L28,28 L0,28 Z " fill="#020202" transform="translate(0,0)"/>
<path d="M0,0 L2,0 L1,3 L-1,3 L-3,7 L-6,10 L-6,15 L-1,11 L6,10 L5,17 L0,20 L-8,19 L-10,16 L-9,9 L-4,3 Z " fill="#DEDEDE" transform="translate(17,2)"/>
<path d="M0,0 L5,0 L4,7 L0,9 L0,7 L-4,7 L-2,1 Z " fill="#C8C8C8" transform="translate(18,12)"/>
<path d="M0,0 L3,0 L1,4 L-3,4 L-2,1 Z " fill="#171717" transform="translate(17,15)"/>
</svg>
