<?xml version="1.0" encoding="UTF-8"?>
<svg version="1.1" xmlns="http://www.w3.org/2000/svg" width="28" height="28">
<path d="M0,0 L28,0 L28,28 L0,28 Z " fill="#030303" transform="translate(0,0)"/>
<path d="M0,0 L2,0 L3,10 L9,9 L11,12 L10,18 L7,20 L2,19 L-1,13 Z " fill="#D8D8D8" transform="translate(11,3)"/>
<path d="M0,0 L2,1 L1,7 L-2,9 L-7,8 L-8,4 L-6,4 L-6,7 L-2,5 Z " fill="#E7E7E7" transform="translate(20,14)"/>
<path d="M0,0 L3,1 L1,6 L-3,7 L-2,2 Z " fill="#111111" transform="translate(17,14)"/>
<path d="M0,0 L2,0 L2,10 L0,12 L-1,8 Z " fill="#F5F5F5" transform="translate(11,3)"/>
</svg>
