<?xml version="1.0" encoding="UTF-8"?>
<svg version="1.1" xmlns="http://www.w3.org/2000/svg" width="28" height="28">
<path d="M0,0 L28,0 L28,28 L0,28 Z " fill="#040404" transform="translate(0,0)"/>
<path d="M0,0 L2,0 L2,3 L-3,6 L-4,13 L-1,15 L0,11 L4,6 L10,7 L10,13 L9,9 L4,10 L0,17 L-5,16 L-7,14 L-7,7 L-2,1 Z " fill="#E1E1E1" transform="translate(13,4)"/>
<path d="M0,0 L1,0 L1,6 L-5,10 L-8,10 L-8,12 L-11,11 L-9,5 L-6,1 L-1,1 Z " fill="#C8C8C8" transform="translate(23,12)"/>
<path d="M0,0 L5,0 L4,5 L-2,7 L-1,1 Z " fill="#0F0F0F" transform="translate(17,13)"/>
</svg>
