<?xml version="1.0" encoding="UTF-8"?>
<svg version="1.1" xmlns="http://www.w3.org/2000/svg" width="28" height="28">
<path d="M0,0 L28,0 L28,28 L0,28 Z " fill="#030303" transform="translate(0,0)"/>
<path d="M0,0 L3,1 L2,7 L-2,12 L-3,16 L1,16 L2,11 L6,8 L10,9 L12,11 L12,16 L6,20 L-2,20 L-6,17 L-5,10 Z " fill="#E6E6E6" transform="translate(12,2)"/>
<path d="M0,0 L4,1 L6,3 L6,8 L3,8 L-4,9 L-8,8 L-5,8 L-4,3 Z " fill="#D7D7D7" transform="translate(18,10)"/>
<path d="M0,0 L4,1 L3,4 L-3,5 L-1,1 Z " fill="#242424" transform="translate(18,14)"/>
</svg>
