<?xml version="1.0" encoding="UTF-8"?>
<svg version="1.1" xmlns="http://www.w3.org/2000/svg" width="28" height="28">
<path d="M0,0 L28,0 L28,28 L0,28 Z " fill="#020202" transform="translate(0,0)"/>
<path d="M0,0 L3,1 L2,7 L-1,15 L3,17 L5,12 L6,11 L11,11 L13,13 L13,18 L8,20 L1,20 L-3,19 L-5,16 L-4,9 Z " fill="#D8D8D8" transform="translate(11,1)"/>
<path d="M0,0 L5,0 L7,2 L7,7 L4,8 L4,6 L-3,6 L-1,1 Z " fill="#E4E4E4" transform="translate(17,12)"/>
<path d="M0,0 L6,1 L6,3 L4,4 L-3,4 L-6,1 Z " fill="#EDEDED" transform="translate(15,17)"/>
<path d="M0,0 L2,1 L2,6 L-1,7 L-1,5 L-5,4 L-4,2 L0,2 Z " fill="#818181" transform="translate(22,13)"/>
<path d="M0,0 L3,1 L2,6 L-1,6 Z " fill="#CACACA" transform="translate(11,1)"/>
</svg>
