<?xml version="1.0" encoding="UTF-8"?>
<svg version="1.1" xmlns="http://www.w3.org/2000/svg" width="28" height="28">
<path d="M0,0 L28,0 L28,28 L0,28 Z " fill="#040404" transform="translate(0,0)"/>
<path d="M0,0 L2,0 L1,8 L-3,15 L1,15 L3,10 L5,8 L10,8 L12,10 L11,15 L2,19 L-6,19 L-7,18 L-7,13 L-3,7 Z " fill="#D9D9D9" transform="translate(13,2)"/>
<path d="M0,0 L4,1 L5,6 L3,8 L0,7 L1,5 L-3,5 L-1,1 Z " fill="#EDEDED" transform="translate(20,10)"/>
<path d="M0,0 L2,0 L1,8 L-2,11 L-5,12 L-3,7 Z " fill="#D8D8D8" transform="translate(13,2)"/>
</svg>
