<?xml version="1.0" encoding="UTF-8"?>
<svg version="1.1" xmlns="http://www.w3.org/2000/svg" width="28" height="28">
<path d="M0,0 L28,0 L28,28 L0,28 Z " fill="#020202" transform="translate(0,0)"/>
<path d="M0,0 L2,1 L1,5 L-2,10 L3,9 L6,12 L5,17 L0,20 L-6,20 L-8,17 L-8,11 Z " fill="#8C8C8C" transform="translate(16,2)"/>
<path d="M0,0 L5,1 L6,6 L3,10 L-5,9 L-3,2 Z " fill="#D1D1D1" transform="translate(16,11)"/>
<path d="M0,0 L1,3 L0,9 L2,9 L3,7 L3,9 L6,10 L5,11 L-1,11 L-3,8 L-3,2 Z " fill="#EBEBEB" transform="translate(11,11)"/>
<path d="M0,0 L4,0 L3,5 L-1,4 Z " fill="#0E0E0E" transform="translate(15,14)"/>
<path d="M0,0 L2,1 L1,5 L-2,7 L-3,4 Z " fill="#CFCFCF" transform="translate(16,2)"/>
</svg>
