<?xml version="1.0" encoding="UTF-8"?>
<svg version="1.1" xmlns="http://www.w3.org/2000/svg" width="28" height="28">
<path d="M0,0 L28,0 L28,28 L0,28 Z " fill="#010101" transform="translate(0,0)"/>
<path d="M0,0 L2,1 L-4,9 L-5,11 L-2,11 L-2,14 L-7,15 L-7,18 L-4,18 L-4,20 L-8,19 L-10,15 L-6,6 L-4,6 L-2,2 Z " fill="#DFDFDF" transform="translate(19,3)"/>
<path d="M0,0 L2,1 L-4,9 L-5,11 L-2,12 L-6,12 L-7,8 L-6,6 L-4,6 L-2,2 Z " fill="#B4B4B4" transform="translate(19,3)"/>
<path d="M0,0 L1,0 L1,5 L-2,7 L-5,6 L-5,3 L0,2 Z " fill="#6F6F6F" transform="translate(17,15)"/>
</svg>
