<?xml version="1.0" encoding="UTF-8"?>
<svg version="1.1" xmlns="http://www.w3.org/2000/svg" width="28" height="28">
<path d="M0,0 L28,0 L28,28 L0,28 Z " fill="#020202" transform="translate(0,0)"/>
<path d="M0,0 L2,0 L-1,11 L3,13 L3,18 L1,20 L-4,19 L-5,18 L-4,8 Z " fill="#F0F0F0" transform="translate(16,3)"/>
<path d="M0,0 L2,0 L2,2 L4,2 L5,0 L5,5 L3,7 L-1,6 L1,5 L-1,2 Z " fill="#9F9F9F" transform="translate(14,16)"/>
<path d="M0,0 L2,0 L-1,11 L-3,7 L-1,1 Z " fill="#D5D5D5" transform="translate(16,3)"/>
</svg>
