<?xml version="1.0" encoding="UTF-8"?>
<svg version="1.1" xmlns="http://www.w3.org/2000/svg" width="28" height="28">
<path d="M0,0 L28,0 L28,28 L0,28 Z " fill="#010101" transform="translate(0,0)"/>
<path d="M0,0 L2,0 L2,5 L0,5 L1,8 L7,8 L8,13 L3,19 L-2,20 L-4,19 L-4,10 L-1,1 Z " fill="#D7D7D7" transform="translate(14,3)"/>
<path d="M0,0 L3,0 L2,5 L-2,10 L-7,11 L-9,10 L-9,1 L-7,3 L-6,8 L-1,5 Z " fill="#DBDBDB" transform="translate(19,12)"/>
<path d="M0,0 L4,0 L2,5 L-3,8 L-4,3 L0,4 Z " fill="#181818" transform="translate(16,13)"/>
<path d="M0,0 L6,0 L4,2 L1,2 L1,6 L-3,4 L-2,1 Z " fill="#BBBBBB" transform="translate(15,11)"/>
</svg>
