<?xml version="1.0" encoding="UTF-8"?>
<svg version="1.1" xmlns="http://www.w3.org/2000/svg" width="28" height="28">
<path d="M0,0 L28,0 L28,28 L0,28 Z " fill="#030303" transform="translate(0,0)"/>
<path d="M0,0 L3,1 L2,4 L0,4 L-2,8 L-2,13 L2,16 L4,12 L11,11 L14,14 L14,18 L8,20 L2,20 L-4,16 L-6,13 L-5,6 Z " fill="#E7E7E7" transform="translate(12,2)"/>
<path d="M0,0 L3,1 L2,4 L0,4 L-2,8 L-2,13 L2,17 L0,19 L-5,15 L-6,9 L-3,3 Z " fill="#E4E4E4" transform="translate(12,2)"/>
<path d="M0,0 L6,2 L4,4 L-2,5 Z " fill="#191919" transform="translate(18,15)"/>
<path d="M0,0 L7,1 L5,3 L-2,2 Z " fill="#C6C6C6" transform="translate(18,13)"/>
</svg>
