<?xml version="1.0" encoding="UTF-8"?>
<svg version="1.1" xmlns="http://www.w3.org/2000/svg" width="28" height="28">
<path d="M0,0 L28,0 L28,28 L0,28 Z " fill="#030303" transform="translate(0,0)"/>
<path d="M0,0 L3,0 L3,3 L-2,5 L-5,10 L-6,16 L-2,16 L-1,12 L1,10 L6,10 L7,16 L1,20 L-5,19 L-9,16 L-8,8 L-2,1 Z " fill="#DFDFDF" transform="translate(16,3)"/>
<path d="M0,0 L5,0 L6,6 L3,8 L-2,7 L-3,3 Z " fill="#DDDDDD" transform="translate(17,13)"/>
<path d="M0,0 L4,1 L3,4 L-1,4 Z " fill="#151515" transform="translate(17,15)"/>
</svg>
