<?xml version="1.0" encoding="UTF-8"?>
<svg version="1.1" xmlns="http://www.w3.org/2000/svg" width="28" height="28">
<path d="M0,0 L28,0 L28,28 L0,28 Z " fill="#030303" transform="translate(0,0)"/>
<path d="M0,0 L2,0 L1,5 L0,8 L-2,8 L-2,17 L0,17 L2,12 L7,8 L10,8 L11,14 L4,20 L-2,20 L-5,18 L-5,6 Z " fill="#EDEDED" transform="translate(12,2)"/>
<path d="M0,0 L2,0 L1,5 L-3,7 L-5,11 L-5,6 Z " fill="#C7C7C7" transform="translate(12,2)"/>
<path d="M0,0 L2,1 L1,2 L3,3 L2,6 L-1,7 L-2,5 L-4,4 Z " fill="#9C9C9C" transform="translate(17,11)"/>
</svg>
