<?xml version="1.0" encoding="UTF-8"?>
<svg version="1.1" xmlns="http://www.w3.org/2000/svg" width="28" height="28">
<path d="M0,0 L28,0 L28,28 L0,28 Z " fill="#020202" transform="translate(0,0)"/>
<path d="M0,0 L3,0 L2,4 L-3,8 L-3,14 L-2,16 L1,17 L1,12 L4,8 L8,9 L8,16 L5,19 L-2,20 L-6,16 L-6,7 Z " fill="#F1F1F1" transform="translate(14,3)"/>
<path d="M0,0 L4,1 L3,6 L-1,8 L-3,4 Z " fill="#9B9B9B" transform="translate(18,11)"/>
<path d="M0,0 L3,0 L2,4 L-5,7 L-3,3 Z " fill="#CFCFCF" transform="translate(14,3)"/>
<path d="M0,0 L5,3 L5,5 L7,6 L0,5 L-1,2 Z " fill="#D4D4D4" transform="translate(10,17)"/>
</svg>
