<?xml version="1.0" encoding="UTF-8"?>
<svg version="1.1" xmlns="http://www.w3.org/2000/svg" width="28" height="28">
<path d="M0,0 L28,0 L28,28 L0,28 Z " fill="#020202" transform="translate(0,0)"/>
<path d="M0,0 L0,3 L-2,7 L-2,11 L0,8 L5,9 L4,14 L1,15 L4,20 L0,18 L-5,14 L-5,8 Z " fill="#BEBEBE" transform="translate(15,3)"/>
<path d="M0,0 L5,1 L4,6 L2,7 L0,6 L-1,1 Z " fill="#929292" transform="translate(15,11)"/>
<path d="M0,0 L1,3 L3,4 L5,9 L1,7 L-2,5 L-2,3 L0,3 Z " fill="#E5E5E5" transform="translate(14,14)"/>
</svg>
