<?xml version="1.0" encoding="UTF-8"?>
<svg version="1.1" xmlns="http://www.w3.org/2000/svg" width="28" height="28">
<path d="M0,0 L28,0 L28,28 L0,28 Z " fill="#010101" transform="translate(0,0)"/>
<path d="M0,0 L2,1 L1,5 L-3,9 L-5,18 L-3,17 L-2,13 L3,14 L4,18 L2,20 L-8,20 L-8,12 L-5,6 Z " fill="#DBDBDB" transform="translate(17,2)"/>
<path d="M0,0 L1,0 L1,5 L4,4 L5,0 L10,1 L11,5 L9,7 L0,7 Z " fill="#E9E9E9" transform="translate(10,15)"/>
<path d="M0,0 L3,0 L2,9 L-1,11 L-1,3 Z " fill="#B9B9B9" transform="translate(10,11)"/>
</svg>
