<?xml version="1.0" encoding="UTF-8"?>
<svg version="1.1" xmlns="http://www.w3.org/2000/svg" width="28" height="28">
<path d="M0,0 L28,0 L28,28 L0,28 Z " fill="#020202" transform="translate(0,0)"/>
<path d="M0,0 L3,1 L-1,5 L-3,5 L-4,10 L2,9 L3,13 L-2,19 L-7,18 L-8,17 L-7,9 L-4,3 Z " fill="#E3E3E3" transform="translate(17,4)"/>
<path d="M0,0 L3,1 L-1,5 L-3,5 L-3,11 L-5,11 L-6,6 L-1,1 Z " fill="#D3D3D3" transform="translate(17,4)"/>
<path d="M0,0 L3,1 L0,5 L-3,5 L-1,1 Z " fill="#1A1A1A" transform="translate(15,15)"/>
</svg>
