<?xml version="1.0" encoding="UTF-8"?>
<svg version="1.1" xmlns="http://www.w3.org/2000/svg" width="28" height="28">
<path d="M0,0 L28,0 L28,28 L0,28 Z " fill="#020202" transform="translate(0,0)"/>
<path d="M0,0 L2,0 L2,12 L5,10 L11,11 L13,13 L12,18 L9,20 L3,20 L1,18 L-1,11 L-1,1 Z " fill="#EFEFEF" transform="translate(10,3)"/>
<path d="M0,0 L3,1 L2,6 L-1,8 L-5,8 L-5,6 L0,5 Z " fill="#F2F2F2" transform="translate(20,15)"/>
<path d="M0,0 L5,0 L5,4 L0,5 L-1,2 Z " fill="#1E1E1E" transform="translate(15,16)"/>
<path d="M0,0 L6,1 L5,3 L0,3 L-1,5 Z " fill="#D1D1D1" transform="translate(15,13)"/>
</svg>
