<?xml version="1.0" encoding="UTF-8"?>
<svg version="1.1" xmlns="http://www.w3.org/2000/svg" width="28" height="28">
<path d="M0,0 L28,0 L28,28 L0,28 Z " fill="#020202" transform="translate(0,0)"/>
<path d="M0,0 L3,1 L5,10 L9,8 L17,9 L19,12 L18,16 L15,20 L7,20 L3,16 L0,9 L-1,2 Z " fill="#E9E9E9" transform="translate(6,2)"/>
<path d="M0,0 L8,1 L10,4 L9,8 L7,7 L7,5 L-1,3 Z " fill="#F0F0F0" transform="translate(15,10)"/>
<path d="M0,0 L5,2 L4,6 L-2,5 L-2,1 Z " fill="#191919" transform="translate(16,13)"/>
</svg>
