<?xml version="1.0" encoding="UTF-8"?>
<svg version="1.1" xmlns="http://www.w3.org/2000/svg" width="28" height="28">
<path d="M0,0 L28,0 L28,28 L0,28 Z " fill="#020202" transform="translate(0,0)"/>
<path d="M0,0 L2,0 L1,4 L-2,11 L4,9 L6,12 L5,16 L0,20 L-5,19 L-6,18 L-5,10 Z " fill="#D1D1D1" transform="translate(15,3)"/>
<path d="M0,0 L2,0 L1,4 L-2,11 L2,10 L-3,15 L-5,15 L-4,7 Z " fill="#D4D4D4" transform="translate(15,3)"/>
<path d="M0,0 L3,0 L2,5 L-3,6 L-3,2 Z " fill="#0A0A0A" transform="translate(15,15)"/>
<path d="M0,0 L2,2 L6,1 L1,6 L-1,6 L-1,1 Z " fill="#ECECEC" transform="translate(11,12)"/>
</svg>
