<?xml version="1.0" encoding="UTF-8"?>
<svg version="1.1" xmlns="http://www.w3.org/2000/svg" width="28" height="28">
<path d="M0,0 L28,0 L28,28 L0,28 Z " fill="#020202" transform="translate(0,0)"/>
<path d="M0,0 L1,3 L-2,13 L3,12 L4,13 L3,20 L-2,20 L-4,18 L-4,7 Z " fill="#EFEFEF" transform="translate(15,2)"/>
<path d="M0,0 L1,0 L0,7 L-5,7 L-6,4 L-4,4 L-3,1 Z " fill="#BEBEBE" transform="translate(18,15)"/>
<path d="M0,0 L1,3 L-1,10 L-3,7 L-2,3 Z " fill="#D8D8D8" transform="translate(15,2)"/>
</svg>
