<?xml version="1.0" encoding="UTF-8"?>
<svg version="1.1" xmlns="http://www.w3.org/2000/svg" width="28" height="28">
<path d="M0,0 L28,0 L28,28 L0,28 Z " fill="#010101" transform="translate(0,0)"/>
<path d="M0,0 L2,0 L0,5 L-3,12 L-1,10 L4,10 L5,15 L2,18 L-6,20 L-7,16 L-4,7 Z " fill="#BABABA" transform="translate(16,2)"/>
<path d="M0,0 L4,0 L3,5 L-2,6 L-2,2 Z " fill="#0D0D0D" transform="translate(15,14)"/>
<path d="M0,0 L5,0 L6,5 L5,7 L3,6 L4,2 L0,1 Z " fill="#A4A4A4" transform="translate(15,12)"/>
<path d="M0,0 L4,0 L6,1 L3,4 L1,4 L0,6 Z " fill="#DDDDDD" transform="translate(10,13)"/>
</svg>
