<?xml version="1.0" encoding="UTF-8"?>
<svg version="1.1" xmlns="http://www.w3.org/2000/svg" width="28" height="28">
<path d="M0,0 L28,0 L28,28 L0,28 Z " fill="#050505" transform="translate(0,0)"/>
<path d="M0,0 L5,0 L5,3 L-3,7 L-6,11 L-5,15 L-3,16 L-2,11 L2,8 L8,8 L8,14 L1,20 L-3,19 L-7,18 L-9,12 L-6,6 Z " fill="#E4E4E4" transform="translate(15,3)"/>
<path d="M0,0 L5,0 L5,3 L-3,7 L-6,11 L-7,16 L-9,12 L-6,6 Z " fill="#DCDCDC" transform="translate(15,3)"/>
<path d="M0,0 L4,0 L4,3 L-3,4 L-2,1 Z " fill="#0D0D0D" transform="translate(17,14)"/>
<path d="M0,0 L7,1 L6,4 L6,2 L-2,3 Z " fill="#BBBBBB" transform="translate(15,12)"/>
</svg>
