<?xml version="1.0" encoding="UTF-8"?>
<svg version="1.1" xmlns="http://www.w3.org/2000/svg" width="28" height="28">
<path d="M0,0 L28,0 L28,28 L0,28 Z " fill="#020202" transform="translate(0,0)"/>
<path d="M0,0 L2,0 L1,8 L-1,8 L-1,11 L5,13 L4,18 L1,20 L-4,20 L-4,18 L-6,18 L-5,11 L-1,2 Z " fill="#E7E7E7" transform="translate(15,2)"/>
<path d="M0,0 L6,1 L6,4 L5,7 L0,7 L0,5 L-2,5 L-1,1 Z " fill="#D8D8D8" transform="translate(11,15)"/>
<path d="M0,0 L2,0 L1,8 L-1,6 L-3,8 L-2,4 Z " fill="#B9B9B9" transform="translate(15,2)"/>
<path d="M0,0 L5,2 L2,5 L-1,4 Z " fill="#2C2C2C" transform="translate(13,15)"/>
</svg>
