<?xml version="1.0" encoding="UTF-8"?>
<svg version="1.1" xmlns="http://www.w3.org/2000/svg" width="28" height="28">
<path d="M0,0 L28,0 L28,28 L0,28 Z " fill="#020202" transform="translate(0,0)"/>
<path d="M0,0 L2,0 L-1,9 L-2,14 L0,12 L7,12 L6,17 L3,20 L-3,20 L-6,17 L-5,9 L-1,1 Z " fill="#ECECEC" transform="translate(15,2)"/>
<path d="M0,0 L7,0 L6,5 L3,8 L-3,8 L-1,7 L-2,4 Z " fill="#B7B7B7" transform="translate(15,14)"/>
<path d="M0,0 L2,0 L0,8 L-3,8 L-3,5 Z " fill="#D6D6D6" transform="translate(15,2)"/>
</svg>
