<?xml version="1.0" encoding="UTF-8"?>
<svg version="1.1" xmlns="http://www.w3.org/2000/svg" width="28" height="28">
<path d="M0,0 L28,0 L28,28 L0,28 Z " fill="#030303" transform="translate(0,0)"/>
<path d="M0,0 L2,2 L-6,7 L-9,11 L-10,15 L-3,9 L1,9 L1,15 L-4,20 L-8,19 L-12,15 L-11,9 L-4,2 Z " fill="#CACACA" transform="translate(20,3)"/>
<path d="M0,0 L2,2 L-6,7 L-9,11 L-8,18 L-11,17 L-12,12 L-9,7 L-2,1 Z " fill="#DDDDDD" transform="translate(20,3)"/>
<path d="M0,0 L2,0 L1,4 L-1,7 L-4,7 L-3,3 Z " fill="#181818" transform="translate(18,14)"/>
<path d="M0,0 L4,0 L4,5 L3,2 L-2,4 Z " fill="#E5E5E5" transform="translate(17,12)"/>
</svg>
