<?xml version="1.0" encoding="UTF-8"?>
<svg version="1.1" xmlns="http://www.w3.org/2000/svg" width="28" height="28">
<path d="M0,0 L28,0 L28,28 L0,28 Z " fill="#030303" transform="translate(0,0)"/>
<path d="M0,0 L3,1 L3,3 L-4,7 L-6,7 L-6,9 L-8,9 L-6,11 L-2,9 L2,10 L5,12 L4,17 L0,20 L-8,20 L-10,18 L-11,10 L-10,6 L-3,1 Z " fill="#E5E5E5" transform="translate(18,3)"/>
<path d="M0,0 L3,1 L3,3 L-4,7 L-6,7 L-7,9 L-10,9 L-10,6 L-3,1 Z " fill="#DFDFDF" transform="translate(18,3)"/>
<path d="M0,0 L7,0 L7,3 L3,5 L-3,5 L-1,1 Z " fill="#1B1B1B" transform="translate(14,15)"/>
</svg>
