<?xml version="1.0" encoding="UTF-8"?>
<svg version="1.1" xmlns="http://www.w3.org/2000/svg" width="28" height="28">
<path d="M0,0 L28,0 L28,28 L0,28 Z " fill="#010101" transform="translate(0,0)"/>
<path d="M0,0 L2,0 L2,5 L0,11 L4,9 L8,10 L9,11 L9,16 L4,20 L-1,20 L-3,17 L-2,6 Z " fill="#C9C9C9" transform="translate(13,2)"/>
<path d="M0,0 L2,0 L2,5 L-1,12 L1,12 L1,17 L5,19 L4,20 L-1,20 L-3,17 L-2,6 Z " fill="#EDEDED" transform="translate(13,2)"/>
<path d="M0,0 L5,0 L4,4 L2,6 L-2,5 L-1,1 Z " fill="#1E1E1E" transform="translate(15,14)"/>
<path d="M0,0 L2,0 L2,5 L0,10 L-2,6 Z " fill="#D4D4D4" transform="translate(13,2)"/>
</svg>
