<?xml version="1.0" encoding="UTF-8"?>
<svg version="1.1" xmlns="http://www.w3.org/2000/svg" width="28" height="28">
<path d="M0,0 L28,0 L28,28 L0,28 Z " fill="#040404" transform="translate(0,0)"/>
<path d="M0,0 L2,0 L0,5 L-1,6 L-1,11 L3,8 L7,8 L8,14 L6,16 L-2,16 L-4,20 L-4,5 Z " fill="#F8F8F8" transform="translate(14,4)"/>
<path d="M0,0 L2,1 L3,5 L2,6 L-5,5 Z " fill="#858585" transform="translate(17,12)"/>
<path d="M0,0 L2,0 L3,6 L0,8 L-4,6 L0,5 L1,2 L-1,1 Z " fill="#D7D7D7" transform="translate(19,12)"/>
<path d="M0,0 L2,0 L0,5 L-4,7 L-2,2 Z " fill="#D9D9D9" transform="translate(14,4)"/>
</svg>
