<?xml version="1.0" encoding="UTF-8"?>
<svg version="1.1" xmlns="http://www.w3.org/2000/svg" width="28" height="28">
<path d="M0,0 L28,0 L28,28 L0,28 Z " fill="#030303" transform="translate(0,0)"/>
<path d="M0,0 L2,0 L1,7 L1,18 L3,19 L2,12 L5,8 L9,9 L10,10 L10,16 L6,20 L-1,20 L-3,16 L-1,2 Z " fill="#EAEAEA" transform="translate(12,2)"/>
<path d="M0,0 L2,0 L0,17 L-3,16 L-1,2 Z " fill="#DCDCDC" transform="translate(12,2)"/>
<path d="M0,0 L3,1 L2,6 L-2,7 L-1,1 Z " fill="#0F0F0F" transform="translate(18,12)"/>
</svg>
