<?xml version="1.0" encoding="UTF-8"?>
<svg version="1.1" xmlns="http://www.w3.org/2000/svg" width="28" height="28">
<path d="M0,0 L28,0 L28,28 L0,28 Z " fill="#020202" transform="translate(0,0)"/>
<path d="M0,0 L4,0 L4,5 L3,2 L-1,3 L-3,10 L2,13 L2,18 L-1,20 L-5,19 L-7,17 L-6,8 L-2,1 Z " fill="#D6D6D6" transform="translate(17,4)"/>
<path d="M0,0 L4,0 L4,5 L3,2 L-1,3 L-3,7 L-3,3 Z " fill="#DEDEDE" transform="translate(17,4)"/>
<path d="M0,0 L4,0 L3,5 L0,4 Z " fill="#0A0A0A" transform="translate(13,17)"/>
<path d="M0,0 L2,1 L2,5 L4,7 L-1,6 Z " fill="#BABABA" transform="translate(12,9)"/>
</svg>
