<?xml version="1.0" encoding="UTF-8"?>
<svg version="1.1" xmlns="http://www.w3.org/2000/svg" width="28" height="28">
<path d="M0,0 L28,0 L28,28 L0,28 Z " fill="#020202" transform="translate(0,0)"/>
<path d="M0,0 L2,0 L2,3 L-2,5 L-5,10 L-4,11 L0,9 L5,10 L4,16 L0,18 L-1,20 L-6,19 L-9,16 L-8,8 L-6,4 Z " fill="#EBEBEB" transform="translate(17,3)"/>
<path d="M0,0 L5,1 L4,7 L0,8 L-4,7 L-5,3 Z " fill="#DCDCDC" transform="translate(17,12)"/>
<path d="M0,0 L4,1 L0,5 L-4,4 Z " fill="#303030" transform="translate(17,14)"/>
<path d="M0,0 L2,1 L-3,7 L-6,10 L-5,5 Z " fill="#1E1E1E" transform="translate(17,6)"/>
<path d="M0,0 L2,1 L2,7 L-1,8 Z " fill="#CFCFCF" transform="translate(9,11)"/>
</svg>
