<?xml version="1.0" encoding="UTF-8"?>
<svg version="1.1" xmlns="http://www.w3.org/2000/svg" width="28" height="28">
<path d="M0,0 L28,0 L28,28 L0,28 Z " fill="#010101" transform="translate(0,0)"/>
<path d="M0,0 L5,1 L5,3 L-1,5 L-6,9 L-6,11 L0,8 L6,9 L6,15 L2,19 L-1,20 L-8,20 L-11,16 L-11,10 L-6,4 Z " fill="#DDDDDD" transform="translate(17,3)"/>
<path d="M0,0 L5,1 L5,3 L-1,5 L-6,9 L-8,14 L-11,16 L-11,10 L-6,4 Z " fill="#C1C1C1" transform="translate(17,3)"/>
<path d="M0,0 L5,1 L5,3 L-1,5 L-5,7 L-3,2 Z " fill="#D7D7D7" transform="translate(17,3)"/>
<path d="M0,0 L7,0 L3,4 L-3,4 Z " fill="#090909" transform="translate(14,15)"/>
</svg>
