<?xml version="1.0" encoding="UTF-8"?>
<svg version="1.1" xmlns="http://www.w3.org/2000/svg" width="28" height="28">
<path d="M0,0 L28,0 L28,28 L0,28 Z " fill="#030303" transform="translate(0,0)"/>
<path d="M0,0 L1,3 L-3,12 L0,10 L5,10 L6,13 L2,17 L-2,20 L-5,20 L-6,17 L-6,10 Z " fill="#F5F5F5" transform="translate(16,2)"/>
<path d="M0,0 L1,2 L6,0 L8,4 L2,6 L2,4 L-1,3 Z " fill="#959595" transform="translate(12,12)"/>
<path d="M0,0 L1,3 L-2,9 L-4,13 L-6,13 L-5,8 Z " fill="#CACACA" transform="translate(16,2)"/>
</svg>
