<?xml version="1.0" encoding="UTF-8"?>
<svg version="1.1" xmlns="http://www.w3.org/2000/svg" width="28" height="28">
<path d="M0,0 L28,0 L28,28 L0,28 Z " fill="#020202" transform="translate(0,0)"/>
<path d="M0,0 L2,0 L0,6 L-2,10 L2,10 L2,16 L-3,20 L-8,19 L-8,12 L-4,7 Z " fill="#F0F0F0" transform="translate(17,2)"/>
<path d="M0,0 L3,0 L3,6 L0,8 L-4,7 L-2,3 Z " fill="#8A8A8A" transform="translate(16,12)"/>
<path d="M0,0 L2,0 L0,6 L-3,12 L-8,14 L-6,10 Z " fill="#CECECE" transform="translate(17,2)"/>
</svg>
