<?xml version="1.0" encoding="UTF-8"?>
<svg version="1.1" xmlns="http://www.w3.org/2000/svg" width="28" height="28">
<path d="M0,0 L28,0 L28,28 L0,28 Z " fill="#090909" transform="translate(0,0)"/>
<path d="M0,0 L3,1 L2,6 L0,11 L2,11 L4,4 L7,4 L7,10 L4,13 L-2,13 L-3,11 L-3,3 Z " fill="#EFEFEF" transform="translate(13,9)"/>
<path d="M0,0 L3,2 L1,2 L0,7 L-1,9 L-3,9 Z " fill="#434343" transform="translate(16,11)"/>
<path d="M0,0 L3,0 L3,6 L0,6 L-2,5 Z " fill="#D4D4D4" transform="translate(17,13)"/>
</svg>
