<?xml version="1.0" encoding="UTF-8"?>
<svg version="1.1" xmlns="http://www.w3.org/2000/svg" width="28" height="28">
<path d="M0,0 L28,0 L28,28 L0,28 Z " fill="#020202" transform="translate(0,0)"/>
<path d="M0,0 L3,0 L1,4 L-6,11 L2,10 L3,11 L3,16 L0,19 L-3,20 L-11,20 L-11,13 L-7,7 Z " fill="#EBEBEB" transform="translate(19,2)"/>
<path d="M0,0 L7,0 L6,4 L1,7 L0,5 L-4,5 L-4,3 Z " fill="#CDCDCD" transform="translate(15,15)"/>
<path d="M0,0 L5,0 L3,4 L-3,4 Z " fill="#232323" transform="translate(15,15)"/>
</svg>
