<?xml version="1.0" encoding="UTF-8"?>
<svg version="1.1" xmlns="http://www.w3.org/2000/svg" width="28" height="28">
<path d="M0,0 L28,0 L28,28 L0,28 Z " fill="#010101" transform="translate(0,0)"/>
<path d="M0,0 L3,0 L1,4 L-2,11 L3,11 L6,14 L7,18 L5,20 L-1,19 L-4,15 L-4,5 Z " fill="#F7F7F7" transform="translate(14,3)"/>
<path d="M0,0 L4,1 L7,6 L5,9 L1,8 L-1,5 Z " fill="#E9E9E9" transform="translate(14,14)"/>
<path d="M0,0 L3,0 L1,4 L-4,8 L-3,4 Z " fill="#CECECE" transform="translate(14,3)"/>
<path d="M0,0 L5,1 L5,5 L1,4 Z " fill="#141414" transform="translate(13,16)"/>
</svg>
