<?xml version="1.0" encoding="UTF-8"?>
<svg version="1.1" xmlns="http://www.w3.org/2000/svg" width="28" height="28">
<path d="M0,0 L28,0 L28,28 L0,28 Z " fill="#030303" transform="translate(0,0)"/>
<path d="M0,0 L2,0 L2,2 L-6,5 L-9,8 L-10,13 L-3,12 L0,15 L0,19 L-9,20 L-13,16 L-12,7 L-6,2 Z " fill="#E2E2E2" transform="translate(21,3)"/>
<path d="M0,0 L2,0 L2,2 L-6,5 L-9,8 L-9,14 L-11,15 L-12,7 L-6,2 Z " fill="#C2C2C2" transform="translate(21,3)"/>
<path d="M0,0 L5,0 L6,4 L0,4 L-2,2 Z " fill="#171717" transform="translate(13,17)"/>
</svg>
