<?xml version="1.0" encoding="UTF-8"?>
<svg version="1.1" xmlns="http://www.w3.org/2000/svg" width="28" height="28">
<path d="M0,0 L28,0 L28,28 L0,28 Z " fill="#020202" transform="translate(0,0)"/>
<path d="M0,0 L2,0 L1,5 L-2,11 L3,12 L3,18 L1,20 L-3,19 L-5,16 L-5,10 Z " fill="#F7F7F7" transform="translate(16,3)"/>
<path d="M0,0 L1,0 L1,6 L-1,8 L-4,7 L-4,2 Z " fill="#A0A0A0" transform="translate(18,15)"/>
<path d="M0,0 L2,0 L1,5 L-2,12 L-5,12 L-3,6 Z " fill="#DCDCDC" transform="translate(16,3)"/>
</svg>
