<?xml version="1.0" encoding="UTF-8"?>
<svg version="1.1" xmlns="http://www.w3.org/2000/svg" width="28" height="28">
<path d="M0,0 L28,0 L28,28 L0,28 Z " fill="#030303" transform="translate(0,0)"/>
<path d="M0,0 L3,0 L2,4 L-1,8 L-1,10 L1,10 L1,8 L6,9 L7,15 L3,20 L-3,20 L-5,17 L-5,9 L-2,3 Z " fill="#E9E9E9" transform="translate(14,3)"/>
<path d="M0,0 L3,0 L2,4 L-2,10 L-3,17 L-5,17 L-5,9 L-2,3 Z " fill="#EEEEEE" transform="translate(14,3)"/>
<path d="M0,0 L2,0 L1,5 L-2,8 L-6,8 L-6,6 L-2,4 Z " fill="#EFEFEF" transform="translate(19,15)"/>
<path d="M0,0 L3,1 L1,6 L-3,7 L-3,4 L0,5 L-1,1 Z " fill="#3A3A3A" transform="translate(16,14)"/>
<path d="M0,0 L2,4 L2,10 L-1,9 Z " fill="#CDCDCD" transform="translate(11,13)"/>
</svg>
