<?xml version="1.0" encoding="UTF-8"?>
<svg version="1.1" xmlns="http://www.w3.org/2000/svg" width="28" height="28">
<path d="M0,0 L28,0 L28,28 L0,28 Z " fill="#020202" transform="translate(0,0)"/>
<path d="M0,0 L1,0 L1,17 L3,17 L4,12 L8,8 L11,8 L12,15 L7,20 L0,19 L-2,16 L-2,5 Z " fill="#D9D9D9" transform="translate(10,2)"/>
<path d="M0,0 L3,0 L4,7 L1,9 L-3,8 L-3,10 L-6,9 L-4,4 Z " fill="#CACACA" transform="translate(18,10)"/>
<path d="M0,0 L2,2 L7,1 L5,5 L-2,6 L-4,5 L-4,3 L0,3 Z " fill="#F5F5F5" transform="translate(14,16)"/>
<path d="M0,0 L2,0 L2,5 L-2,6 L-2,2 Z " fill="#161616" transform="translate(18,13)"/>
</svg>
