<?xml version="1.0" encoding="UTF-8"?>
<svg version="1.1" xmlns="http://www.w3.org/2000/svg" width="28" height="28">
<path d="M0,0 L28,0 L28,28 L0,28 Z " fill="#030303" transform="translate(0,0)"/>
<path d="M0,0 L4,1 L0,3 L-3,7 L-3,12 L2,10 L11,10 L12,15 L7,19 L-2,20 L-6,16 L-6,7 L-4,3 Z " fill="#DEDEDE" transform="translate(14,2)"/>
<path d="M0,0 L5,1 L4,5 L0,7 L-6,7 L-8,4 L-4,1 Z " fill="#0E0E0E" transform="translate(19,13)"/>
<path d="M0,0 L9,0 L10,5 L8,6 L8,2 L-1,3 L-3,4 L-5,2 Z " fill="#C6C6C6" transform="translate(16,12)"/>
</svg>
