<?xml version="1.0" encoding="UTF-8"?>
<svg version="1.1" xmlns="http://www.w3.org/2000/svg" width="28" height="28">
<path d="M0,0 L28,0 L28,28 L0,28 Z " fill="#020202" transform="translate(0,0)"/>
<path d="M0,0 L3,3 L-3,8 L-5,12 L-1,13 L1,15 L0,19 L-1,20 L-6,20 L-10,15 L-9,10 L-3,2 Z " fill="#E6E6E6" transform="translate(18,4)"/>
<path d="M0,0 L7,1 L8,5 L6,7 L1,7 Z " fill="#EAEAEA" transform="translate(11,17)"/>
<path d="M0,0 L5,1 L4,5 L0,4 Z " fill="#343434" transform="translate(11,17)"/>
</svg>
