<?xml version="1.0" encoding="UTF-8"?>
<svg version="1.1" xmlns="http://www.w3.org/2000/svg" width="28" height="28">
<path d="M0,0 L28,0 L28,28 L0,28 Z " fill="#020202" transform="translate(0,0)"/>
<path d="M0,0 L2,0 L0,7 L-9,15 L-10,17 L-4,17 L-4,12 L0,9 L4,11 L3,16 L-2,20 L-10,20 L-12,17 L-11,13 L-6,8 L-4,8 L-2,4 Z " fill="#E4E4E4" transform="translate(18,2)"/>
<path d="M0,0 L5,0 L4,2 L-1,4 L-2,9 L-8,9 L-6,5 Z " fill="#1D1D1D" transform="translate(16,10)"/>
<path d="M0,0 L1,4 L-3,8 L-5,8 L-5,3 Z " fill="#A9A9A9" transform="translate(21,13)"/>
</svg>
