<?xml version="1.0" encoding="UTF-8"?>
<svg version="1.1" xmlns="http://www.w3.org/2000/svg" width="28" height="28">
<path d="M0,0 L28,0 L28,28 L0,28 Z " fill="#030303" transform="translate(0,0)"/>
<path d="M0,0 L2,0 L1,5 L-3,11 L-2,12 L3,10 L7,10 L8,16 L6,19 L-2,20 L-7,16 L-7,10 Z " fill="#E3E3E3" transform="translate(15,2)"/>
<path d="M0,0 L4,0 L5,6 L3,9 L-4,8 L-5,2 Z " fill="#E5E5E5" transform="translate(18,12)"/>
<path d="M0,0 L5,0 L4,4 L-2,4 Z " fill="#1E1E1E" transform="translate(16,15)"/>
</svg>
