<?xml version="1.0" encoding="UTF-8"?>
<svg version="1.1" xmlns="http://www.w3.org/2000/svg" width="28" height="28">
<path d="M0,0 L28,0 L28,28 L0,28 Z " fill="#020202" transform="translate(0,0)"/>
<path d="M0,0 L2,0 L1,4 L-1,4 L-3,8 L-4,14 L1,11 L8,12 L7,18 L2,20 L-4,19 L-6,16 L-6,6 L-2,1 Z " fill="#CFCFCF" transform="translate(15,3)"/>
<path d="M0,0 L2,0 L1,4 L-1,4 L-3,8 L-2,17 L4,18 L2,20 L-4,19 L-6,16 L-6,6 L-2,1 Z " fill="#DADADA" transform="translate(15,3)"/>
<path d="M0,0 L5,0 L4,4 L-3,5 L-3,2 Z " fill="#191919" transform="translate(16,16)"/>
</svg>
