<?xml version="1.0" encoding="UTF-8"?>
<svg version="1.1" xmlns="http://www.w3.org/2000/svg" width="28" height="28">
<path d="M0,0 L28,0 L28,28 L0,28 Z " fill="#030303" transform="translate(0,0)"/>
<path d="M0,0 L3,0 L3,4 L-2,5 L-5,15 L-2,14 L-2,17 L2,17 L3,14 L0,13 L4,12 L6,17 L3,20 L-5,19 L-8,15 L-6,6 L-2,1 Z " fill="#EFEFEF" transform="translate(16,3)"/>
<path d="M0,0 L3,0 L3,4 L-2,5 L-3,7 L-6,8 L-4,3 Z " fill="#D6D6D6" transform="translate(16,3)"/>
<path d="M0,0 L4,2 L3,6 L-1,5 Z " fill="#797979" transform="translate(15,15)"/>
</svg>
