<?xml version="1.0" encoding="UTF-8"?>
<svg version="1.1" xmlns="http://www.w3.org/2000/svg" width="28" height="28">
<path d="M0,0 L28,0 L28,28 L0,28 Z " fill="#020202" transform="translate(0,0)"/>
<path d="M0,0 L2,0 L0,4 L-8,14 L-9,17 L-5,17 L-3,12 L2,13 L1,18 L-1,20 L-8,20 L-11,18 L-10,11 L-4,4 L-2,4 Z " fill="#E8E8E8" transform="translate(18,2)"/>
<path d="M0,0 L3,1 L2,6 L0,8 L-5,8 L-4,5 L0,4 L-2,2 Z " fill="#F6F6F6" transform="translate(17,14)"/>
<path d="M0,0 L2,1 L1,2 L3,4 L-2,5 Z M-8,3 L-2,5 L-3,8 L-8,6 Z " fill="#CECECE" transform="translate(15,14)"/>
</svg>
