<?xml version="1.0" encoding="UTF-8"?>
<svg version="1.1" xmlns="http://www.w3.org/2000/svg" width="28" height="28">
<path d="M0,0 L28,0 L28,28 L0,28 Z " fill="#020202" transform="translate(0,0)"/>
<path d="M0,0 L3,1 L1,7 L-1,12 L1,13 L0,16 L2,15 L2,12 L5,12 L4,17 L0,20 L-5,19 L-4,10 Z " fill="#F0F0F0" transform="translate(15,2)"/>
<path d="M0,0 L1,2 L6,2 L3,7 L-1,8 L1,4 Z " fill="#737373" transform="translate(14,11)"/>
<path d="M0,0 L3,1 L1,7 L-3,8 L-1,2 Z " fill="#CECECE" transform="translate(15,2)"/>
</svg>
