<?xml version="1.0" encoding="UTF-8"?>
<svg version="1.1" xmlns="http://www.w3.org/2000/svg" width="28" height="28">
<path d="M0,0 L28,0 L28,28 L0,28 Z " fill="#010101" transform="translate(0,0)"/>
<path d="M0,0 L3,0 L2,7 L0,3 L-3,9 L-3,12 L2,11 L4,13 L4,18 L2,20 L-4,20 L-6,17 L-6,9 Z " fill="#A0A0A0" transform="translate(16,3)"/>
<path d="M0,0 L3,0 L2,7 L0,3 L-4,11 L-3,14 L-2,18 L0,20 L-5,19 L-6,17 L-6,9 Z " fill="#BABABA" transform="translate(16,3)"/>
<path d="M0,0 L4,1 L3,5 L-2,5 L-1,1 Z " fill="#050505" transform="translate(15,16)"/>
<path d="M0,0 L3,3 L4,7 L6,9 L1,8 L0,6 Z " fill="#E1E1E1" transform="translate(10,14)"/>
</svg>
