<?xml version="1.0" encoding="UTF-8"?>
<svg version="1.1" xmlns="http://www.w3.org/2000/svg" width="28" height="28">
<path d="M0,0 L28,0 L28,28 L0,28 Z " fill="#020202" transform="translate(0,0)"/>
<path d="M0,0 L3,0 L2,5 L-1,10 L-1,15 L2,16 L3,12 L7,9 L12,9 L13,13 L8,19 L6,20 L-1,20 L-5,16 L-4,8 Z " fill="#DBDBDB" transform="translate(11,2)"/>
<path d="M0,0 L5,0 L6,4 L2,8 L2,5 L3,3 L-3,5 L-3,2 Z " fill="#E7E7E7" transform="translate(18,11)"/>
<path d="M0,0 L3,0 L1,4 L-3,4 L-2,1 Z " fill="#232323" transform="translate(18,14)"/>
</svg>
