<?xml version="1.0" encoding="UTF-8"?>
<svg version="1.1" xmlns="http://www.w3.org/2000/svg" width="28" height="28">
<path d="M0,0 L28,0 L28,28 L0,28 Z " fill="#040404" transform="translate(0,0)"/>
<path d="M0,0 L1,0 L1,16 L6,18 L6,11 L9,8 L13,10 L14,16 L12,18 L13,20 L1,20 L-2,15 L-1,3 Z " fill="#E2E2E2" transform="translate(9,1)"/>
<path d="M0,0 L1,0 L1,16 L7,19 L7,20 L1,20 L-2,15 L-1,3 Z " fill="#D2D2D2" transform="translate(9,1)"/>
<path d="M0,0 L3,0 L4,4 L3,6 L-1,6 Z " fill="#222222" transform="translate(17,12)"/>
</svg>
