<?xml version="1.0" encoding="UTF-8"?>
<svg version="1.1" xmlns="http://www.w3.org/2000/svg" width="28" height="28">
<path d="M0,0 L28,0 L28,28 L0,28 Z " fill="#040404" transform="translate(0,0)"/>
<path d="M0,0 L2,0 L2,5 L-2,14 L-2,16 L2,18 L2,12 L7,8 L11,9 L10,12 L5,12 L4,18 L6,18 L6,20 L-1,20 L-4,18 L-4,9 Z " fill="#E7E7E7" transform="translate(12,2)"/>
<path d="M0,0 L1,0 L0,7 L-2,9 L-7,8 L-6,2 Z " fill="#CACACA" transform="translate(23,12)"/>
<path d="M0,0 L3,0 L2,4 L0,6 L-3,6 L-2,1 Z " fill="#101010" transform="translate(19,13)"/>
</svg>
