<?xml version="1.0" encoding="UTF-8"?>
<svg version="1.1" xmlns="http://www.w3.org/2000/svg" width="28" height="28">
<path d="M0,0 L28,0 L28,28 L0,28 Z " fill="#030303" transform="translate(0,0)"/>
<path d="M0,0 L3,0 L2,4 L-2,10 L-2,16 L1,17 L3,12 L4,11 L12,11 L12,15 L10,15 L10,17 L3,20 L-4,20 L-5,19 L-5,9 Z " fill="#EFEFEF" transform="translate(13,2)"/>
<path d="M0,0 L5,0 L5,4 L3,4 L3,6 L0,7 L-3,6 L-1,1 Z " fill="#9F9F9F" transform="translate(20,13)"/>
<path d="M0,0 L3,0 L2,4 L-2,9 L-4,9 L-2,4 Z " fill="#D3D3D3" transform="translate(13,2)"/>
<path d="M0,0 L3,1 L-1,6 L-3,6 L-1,1 Z " fill="#DBDBDB" transform="translate(17,13)"/>
</svg>
