<?xml version="1.0" encoding="UTF-8"?>
<svg version="1.1" xmlns="http://www.w3.org/2000/svg" width="28" height="28">
<path d="M0,0 L28,0 L28,28 L0,28 Z " fill="#030303" transform="translate(0,0)"/>
<path d="M0,0 L2,0 L1,4 L-1,7 L-3,7 L-3,9 L-5,9 L-5,16 L-2,17 L-2,15 L0,15 L2,11 L3,10 L9,10 L10,14 L3,20 L-5,20 L-8,18 L-7,8 L-4,7 L-2,3 Z " fill="#DADADA" transform="translate(14,2)"/>
<path d="M0,0 L2,0 L1,4 L-1,7 L-3,7 L-3,9 L-5,9 L-5,16 L-4,20 L-8,18 L-7,8 L-4,7 L-2,3 Z " fill="#DEDEDE" transform="translate(14,2)"/>
<path d="M0,0 L6,0 L7,4 L-2,3 Z " fill="#EAEAEA" transform="translate(17,12)"/>
<path d="M0,0 L4,1 L1,4 L-3,5 L-1,1 Z " fill="#151515" transform="translate(18,14)"/>
</svg>
