<?xml version="1.0" encoding="UTF-8"?>
<svg version="1.1" xmlns="http://www.w3.org/2000/svg" width="28" height="28">
<path d="M0,0 L28,0 L28,28 L0,28 Z " fill="#020202" transform="translate(0,0)"/>
<path d="M0,0 L4,0 L3,3 L-3,8 L-4,11 L1,11 L3,13 L2,18 L0,20 L-7,19 L-7,10 Z " fill="#C7C7C7" transform="translate(16,3)"/>
<path d="M0,0 L4,0 L3,3 L-3,8 L-5,17 L-2,20 L-7,19 L-7,10 Z " fill="#E5E5E5" transform="translate(16,3)"/>
<path d="M0,0 L5,0 L4,5 L-1,5 L-1,1 Z " fill="#0C0C0C" transform="translate(12,16)"/>
<path d="M0,0 L4,0 L3,3 L-3,7 L-3,4 Z " fill="#CFCFCF" transform="translate(16,3)"/>
</svg>
