<?xml version="1.0" encoding="UTF-8"?>
<svg version="1.1" xmlns="http://www.w3.org/2000/svg" width="28" height="28">
<path d="M0,0 L28,0 L28,28 L0,28 Z " fill="#030303" transform="translate(0,0)"/>
<path d="M0,0 L2,0 L1,4 L-3,13 L-3,16 L0,17 L1,12 L3,10 L10,10 L10,15 L5,19 L-4,20 L-6,17 L-5,10 Z " fill="#DADADA" transform="translate(13,2)"/>
<path d="M0,0 L2,0 L1,4 L-3,13 L-4,17 L-6,17 L-5,10 Z " fill="#DCDCDC" transform="translate(13,2)"/>
<path d="M0,0 L6,0 L6,2 L0,4 L-3,5 L-1,1 Z " fill="#EAEAEA" transform="translate(16,12)"/>
<path d="M0,0 L4,0 L4,2 L-1,5 L-3,5 L-1,1 Z " fill="#333333" transform="translate(17,14)"/>
</svg>
