<?xml version="1.0" encoding="UTF-8"?>
<svg version="1.1" xmlns="http://www.w3.org/2000/svg" width="28" height="28">
<path d="M0,0 L28,0 L28,28 L0,28 Z " fill="#040404" transform="translate(0,0)"/>
<path d="M0,0 L3,1 L2,4 L-3,9 L-5,12 L-5,17 L-3,16 L-1,12 L2,10 L8,10 L11,12 L9,16 L0,19 L-7,19 L-9,14 L-7,7 Z " fill="#EAEAEA" transform="translate(14,3)"/>
<path d="M0,0 L3,1 L2,4 L-3,9 L-5,12 L-5,17 L-2,18 L-7,19 L-9,14 L-7,7 Z " fill="#DCDCDC" transform="translate(14,3)"/>
<path d="M0,0 L6,0 L3,3 L-2,3 L-2,1 Z " fill="#1F1F1F" transform="translate(16,16)"/>
</svg>
