<?xml version="1.0" encoding="UTF-8"?>
<svg version="1.1" xmlns="http://www.w3.org/2000/svg" width="28" height="28">
<path d="M0,0 L28,0 L28,28 L0,28 Z " fill="#030303" transform="translate(0,0)"/>
<path d="M0,0 L4,1 L-1,6 L-4,7 L-4,14 L0,12 L0,10 L3,9 L10,9 L12,13 L10,16 L6,17 L-5,17 L-8,14 L-6,6 Z " fill="#D0D0D0" transform="translate(13,4)"/>
<path d="M0,0 L4,1 L5,4 L3,7 L-4,8 L-8,6 L-6,3 L0,1 Z " fill="#DADADA" transform="translate(20,13)"/>
<path d="M0,0 L6,1 L6,2 L-3,5 L0,8 L-8,8 L-9,5 L-3,3 L-3,1 Z " fill="#E8E8E8" transform="translate(16,13)"/>
<path d="M0,0 L5,1 L2,4 L-4,5 L-4,2 Z " fill="#1C1C1C" transform="translate(17,15)"/>
</svg>
