<?xml version="1.0" encoding="UTF-8"?>
<svg version="1.1" xmlns="http://www.w3.org/2000/svg" width="28" height="28">
<path d="M0,0 L28,0 L28,28 L0,28 Z " fill="#040404" transform="translate(0,0)"/>
<path d="M0,0 L3,1 L3,3 L-3,7 L-6,12 L-5,13 L5,11 L8,13 L7,17 L-1,20 L-9,19 L-10,18 L-10,12 L-6,5 Z " fill="#E4E4E4" transform="translate(17,2)"/>
<path d="M0,0 L4,1 L6,2 L5,6 L1,7 L-6,6 L-2,2 Z " fill="#D6D6D6" transform="translate(19,13)"/>
<path d="M0,0 L6,0 L6,2 L-3,3 Z " fill="#111111" transform="translate(16,16)"/>
</svg>
