<?xml version="1.0" encoding="UTF-8"?>
<svg version="1.1" xmlns="http://www.w3.org/2000/svg" width="28" height="28">
<path d="M0,0 L28,0 L28,28 L0,28 Z " fill="#020202" transform="translate(0,0)"/>
<path d="M0,0 L3,0 L1,4 L-3,8 L-5,16 L-3,16 L-1,12 L1,11 L7,11 L8,15 L3,18 L0,20 L-5,19 L-7,17 L-7,9 L-1,1 Z " fill="#E1E1E1" transform="translate(15,3)"/>
<path d="M0,0 L6,0 L7,4 L1,6 L-3,6 L-2,1 Z " fill="#CDCDCD" transform="translate(16,14)"/>
<path d="M0,0 L3,0 L1,4 L-3,8 L-5,15 L-7,11 L-5,6 Z " fill="#C9C9C9" transform="translate(15,3)"/>
<path d="M0,0 L5,1 L4,3 L-3,4 L-2,1 Z " fill="#171717" transform="translate(16,16)"/>
</svg>
