<?xml version="1.0" encoding="UTF-8"?>
<svg version="1.1" xmlns="http://www.w3.org/2000/svg" width="28" height="28">
<path d="M0,0 L28,0 L28,28 L0,28 Z " fill="#030303" transform="translate(0,0)"/>
<path d="M0,0 L6,0 L7,4 L3,9 L-4,11 L-10,10 L-11,4 L-8,5 L-8,8 L1,7 L5,3 L-3,4 L-2,1 Z " fill="#C2C2C2" transform="translate(17,12)"/>
<path d="M0,0 L3,0 L1,4 L-3,9 L-4,12 L-6,12 L-5,8 Z " fill="#CFCFCF" transform="translate(13,3)"/>
<path d="M0,0 L6,0 L4,3 L-3,4 L-2,1 Z " fill="#A5A5A5" transform="translate(17,12)"/>
</svg>
