<?xml version="1.0" encoding="UTF-8"?>
<svg version="1.1" xmlns="http://www.w3.org/2000/svg" width="28" height="28">
<path d="M0,0 L28,0 L28,28 L0,28 Z " fill="#030303" transform="translate(0,0)"/>
<path d="M0,0 L5,1 L1,3 L-4,11 L-2,10 L6,10 L7,15 L3,19 L1,20 L-5,20 L-7,17 L-7,9 L-4,3 L-2,3 L-2,1 Z " fill="#E1E1E1" transform="translate(15,3)"/>
<path d="M0,0 L7,0 L5,4 L4,5 L-2,5 L-1,1 Z " fill="#111111" transform="translate(13,15)"/>
<path d="M0,0 L2,1 L1,7 L-5,10 L-5,8 L-8,7 L-2,5 L0,2 L-3,1 Z " fill="#CBCBCB" transform="translate(20,13)"/>
</svg>
