<?xml version="1.0" encoding="UTF-8"?>
<svg version="1.1" xmlns="http://www.w3.org/2000/svg" width="28" height="28">
<path d="M0,0 L28,0 L28,28 L0,28 Z " fill="#040404" transform="translate(0,0)"/>
<path d="M0,0 L2,0 L0,4 L-6,11 L-6,16 L-4,17 L-2,13 L0,12 L8,12 L10,16 L5,19 L-5,20 L-9,18 L-10,13 L-7,7 Z " fill="#DFDFDF" transform="translate(15,2)"/>
<path d="M0,0 L8,0 L10,4 L5,7 L-2,6 L-3,2 Z " fill="#DDDDDD" transform="translate(15,14)"/>
<path d="M0,0 L2,0 L0,4 L-4,8 L-6,8 L-4,4 Z " fill="#EDEDED" transform="translate(15,2)"/>
<path d="M0,0 L6,0 L6,2 L4,3 L-3,3 Z " fill="#1F1F1F" transform="translate(16,16)"/>
</svg>
