<?xml version="1.0" encoding="UTF-8"?>
<svg version="1.1" xmlns="http://www.w3.org/2000/svg" width="28" height="28">
<path d="M0,0 L28,0 L28,28 L0,28 Z " fill="#030303" transform="translate(0,0)"/>
<path d="M0,0 L2,0 L1,4 L-6,12 L-5,13 L-1,10 L8,10 L10,15 L5,19 L-5,20 L-10,17 L-9,10 Z " fill="#F1F1F1" transform="translate(16,2)"/>
<path d="M0,0 L9,0 L11,5 L6,9 L2,8 L-3,7 L-2,4 L3,2 Z " fill="#D1D1D1" transform="translate(15,12)"/>
<path d="M0,0 L2,0 L1,4 L-6,12 L-8,16 L-10,12 L-4,4 Z " fill="#DBDBDB" transform="translate(16,2)"/>
<path d="M0,0 L8,0 L8,2 L-3,4 L-2,1 Z " fill="#171717" transform="translate(15,15)"/>
</svg>
