<?xml version="1.0" encoding="UTF-8"?>
<svg version="1.1" xmlns="http://www.w3.org/2000/svg" width="28" height="28">
<path d="M0,0 L28,0 L28,28 L0,28 Z " fill="#020202" transform="translate(0,0)"/>
<path d="M0,0 L1,3 L-3,9 L-3,15 L-1,11 L2,9 L7,10 L8,15 L4,19 L-2,20 L-6,16 L-6,9 L-2,2 Z " fill="#D1D1D1" transform="translate(14,2)"/>
<path d="M0,0 L1,3 L-3,9 L-3,15 L-1,14 L-1,17 L4,17 L4,19 L-2,20 L-6,16 L-6,9 L-2,2 Z " fill="#E2E2E2" transform="translate(14,2)"/>
<path d="M0,0 L4,0 L4,3 L0,5 L-3,5 L-1,1 Z " fill="#161616" transform="translate(16,14)"/>
</svg>
