<?xml version="1.0" encoding="UTF-8"?>
<svg version="1.1" xmlns="http://www.w3.org/2000/svg" width="28" height="28">
<path d="M0,0 L28,0 L28,28 L0,28 Z " fill="#020202" transform="translate(0,0)"/>
<path d="M0,0 L3,0 L2,5 L-3,12 L-4,17 L-1,17 L-1,11 L4,8 L10,9 L10,14 L4,19 L-5,20 L-7,17 L-6,10 Z " fill="#F0F0F0" transform="translate(13,2)"/>
<path d="M0,0 L6,1 L6,6 L5,4 L-2,8 L-3,3 L-3,1 Z " fill="#A6A6A6" transform="translate(17,10)"/>
<path d="M0,0 L3,0 L2,5 L-1,8 L-4,9 L-2,4 Z " fill="#D7D7D7" transform="translate(13,2)"/>
<path d="M0,0 L3,1 L1,8 L-2,8 L-2,3 Z " fill="#3D3D3D" transform="translate(11,11)"/>
</svg>
