<?xml version="1.0" encoding="UTF-8"?>
<svg version="1.1" xmlns="http://www.w3.org/2000/svg" width="28" height="28">
<path d="M0,0 L28,0 L28,28 L0,28 Z " fill="#010101" transform="translate(0,0)"/>
<path d="M0,0 L2,1 L-2,9 L-2,15 L2,10 L6,11 L7,16 L4,20 L-2,20 L-5,16 L-4,6 Z " fill="#C7C7C7" transform="translate(14,2)"/>
<path d="M0,0 L2,1 L-2,9 L-2,15 L0,15 L2,20 L-3,19 L-5,16 L-4,6 Z " fill="#D7D7D7" transform="translate(14,2)"/>
<path d="M0,0 L2,0 L1,6 L-3,6 L-2,2 Z " fill="#161616" transform="translate(17,14)"/>
</svg>
