<?xml version="1.0" encoding="UTF-8"?>
<svg version="1.1" xmlns="http://www.w3.org/2000/svg" width="28" height="28">
<path d="M0,0 L28,0 L28,28 L0,28 Z " fill="#050505" transform="translate(0,0)"/>
<path d="M0,0 L2,0 L1,5 L-5,12 L-5,15 L-1,11 L1,10 L10,10 L11,11 L11,16 L8,19 L4,20 L-6,20 L-8,18 L-8,11 L-4,5 Z " fill="#D8D8D8" transform="translate(14,2)"/>
<path d="M0,0 L5,0 L6,1 L6,6 L3,9 L-5,10 L-7,8 L4,5 L4,2 L-1,2 Z " fill="#F2F2F2" transform="translate(19,12)"/>
<path d="M0,0 L2,0 L1,5 L-4,11 L-6,7 Z " fill="#E3E3E3" transform="translate(14,2)"/>
<path d="M0,0 L5,0 L4,3 L2,4 L-6,4 L-3,1 Z " fill="#101010" transform="translate(17,15)"/>
</svg>
