<?xml version="1.0" encoding="UTF-8"?>
<svg version="1.1" xmlns="http://www.w3.org/2000/svg" width="28" height="28">
<path d="M0,0 L28,0 L28,28 L0,28 Z " fill="#020202" transform="translate(0,0)"/>
<path d="M0,0 L2,0 L3,11 L8,11 L10,13 L9,19 L2,20 L-2,17 L-1,1 Z " fill="#EEEEEE" transform="translate(12,2)"/>
<path d="M0,0 L5,0 L7,2 L6,8 L5,6 L0,6 L0,3 L2,2 Z " fill="#979797" transform="translate(15,13)"/>
<path d="M0,0 L2,0 L2,12 L1,12 L1,6 L-1,6 L-1,1 Z " fill="#BBBBBB" transform="translate(12,2)"/>
</svg>
