<?xml version="1.0" encoding="UTF-8"?>
<svg version="1.1" xmlns="http://www.w3.org/2000/svg" width="28" height="28">
<path d="M0,0 L28,0 L28,28 L0,28 Z " fill="#030303" transform="translate(0,0)"/>
<path d="M0,0 L5,1 L5,3 L-3,5 L-5,9 L-6,15 L-2,13 L-1,12 L6,13 L7,18 L5,20 L-5,19 L-9,16 L-9,9 L-3,2 Z " fill="#A9A9A9" transform="translate(16,3)"/>
<path d="M0,0 L5,1 L5,3 L-3,5 L-5,9 L-6,16 L-9,16 L-9,9 L-3,2 Z " fill="#E3E3E3" transform="translate(16,3)"/>
<path d="M0,0 L5,0 L6,5 L4,7 L-2,7 L-3,5 L2,4 L2,2 Z " fill="#ECECEC" transform="translate(17,16)"/>
</svg>
