<?xml version="1.0" encoding="UTF-8"?>
<svg version="1.1" xmlns="http://www.w3.org/2000/svg" width="28" height="28">
<path d="M0,0 L28,0 L28,28 L0,28 Z " fill="#020202" transform="translate(0,0)"/>
<path d="M0,0 L5,1 L5,3 L0,4 L0,14 L2,14 L2,11 L8,10 L9,15 L4,20 L0,19 L-3,11 L-3,3 Z " fill="#F0F0F0" transform="translate(12,3)"/>
<path d="M0,0 L4,0 L5,5 L4,7 L-2,8 L-2,5 L-4,4 L-2,4 L-2,1 Z " fill="#D4D4D4" transform="translate(16,13)"/>
<path d="M0,0 L5,1 L5,3 L0,4 L-2,11 L-3,11 L-3,3 Z " fill="#D1D1D1" transform="translate(12,3)"/>
<path d="M0,0 L2,0 L0,5 L-3,6 L-2,2 Z " fill="#1B1B1B" transform="translate(17,15)"/>
</svg>
