<?xml version="1.0" encoding="UTF-8"?>
<svg version="1.1" xmlns="http://www.w3.org/2000/svg" width="28" height="28">
<path d="M0,0 L28,0 L28,28 L0,28 Z " fill="#020202" transform="translate(0,0)"/>
<path d="M0,0 L2,0 L1,4 L-2,13 L0,11 L5,11 L5,16 L-1,20 L-5,19 L-6,18 L-5,9 Z " fill="#CFCFCF" transform="translate(15,2)"/>
<path d="M0,0 L5,0 L5,5 L1,7 L-1,6 L-2,2 Z " fill="#BDBDBD" transform="translate(15,13)"/>
<path d="M0,0 L2,2 L4,1 L4,4 L6,4 L6,6 L1,7 L0,6 Z " fill="#F7F7F7" transform="translate(10,15)"/>
</svg>
