<?xml version="1.0" encoding="UTF-8"?>
<svg version="1.1" xmlns="http://www.w3.org/2000/svg" width="28" height="28">
<path d="M0,0 L28,0 L28,28 L0,28 Z " fill="#020202" transform="translate(0,0)"/>
<path d="M0,0 L3,0 L1,4 L-5,13 L0,11 L4,12 L5,16 L2,19 L0,20 L-7,20 L-9,19 L-9,13 L-4,5 Z " fill="#EAEAEA" transform="translate(17,2)"/>
<path d="M0,0 L4,1 L5,5 L2,8 L-5,7 L-5,4 L-3,2 Z " fill="#D9D9D9" transform="translate(17,13)"/>
<path d="M0,0 L3,0 L1,4 L-4,9 L-6,9 L-4,5 Z " fill="#D3D3D3" transform="translate(17,2)"/>
<path d="M0,0 L6,1 L4,3 L-3,3 Z " fill="#191919" transform="translate(14,16)"/>
<path d="M0,0 L1,2 L-2,5 L-9,4 L-9,3 L-1,1 Z " fill="#BFBFBF" transform="translate(21,16)"/>
</svg>
