<?xml version="1.0" encoding="UTF-8"?>
<svg version="1.1" xmlns="http://www.w3.org/2000/svg" width="28" height="28">
<path d="M0,0 L28,0 L28,28 L0,28 Z " fill="#020202" transform="translate(0,0)"/>
<path d="M0,0 L2,0 L1,4 L-2,11 L-2,17 L-1,13 L1,11 L7,11 L8,16 L4,20 L-4,19 L-5,18 L-5,10 Z " fill="#C4C4C4" transform="translate(14,2)"/>
<path d="M0,0 L2,0 L1,4 L-2,11 L-2,17 L4,18 L4,20 L-4,19 L-5,18 L-5,10 Z " fill="#DDDDDD" transform="translate(14,2)"/>
<path d="M0,0 L3,0 L2,5 L-2,6 L-2,1 Z " fill="#1B1B1B" transform="translate(17,14)"/>
<path d="M0,0 L2,0 L1,4 L-2,11 L-4,7 Z " fill="#B9B9B9" transform="translate(14,2)"/>
</svg>
