<?xml version="1.0" encoding="UTF-8"?>
<svg version="1.1" xmlns="http://www.w3.org/2000/svg" width="28" height="28">
<path d="M0,0 L28,0 L28,28 L0,28 Z " fill="#030303" transform="translate(0,0)"/>
<path d="M0,0 L3,0 L3,5 L1,6 L0,3 L-4,9 L-5,16 L-4,17 L1,17 L3,15 L3,12 L-2,12 L-1,17 L-4,16 L-3,10 L4,9 L6,12 L5,17 L0,20 L-5,20 L-8,15 L-7,9 L-3,2 Z " fill="#D1D1D1" transform="translate(16,3)"/>
<path d="M0,0 L5,0 L7,3 L6,8 L3,7 L4,3 L-1,3 L0,8 L-3,7 L-2,1 Z " fill="#B9B9B9" transform="translate(15,12)"/>
</svg>
