<?xml version="1.0" encoding="UTF-8"?>
<svg version="1.1" xmlns="http://www.w3.org/2000/svg" width="28" height="28">
<path d="M0,0 L28,0 L28,28 L0,28 Z " fill="#030303" transform="translate(0,0)"/>
<path d="M0,0 L2,0 L0,4 L-7,13 L-9,18 L-7,18 L-6,13 L-3,11 L2,11 L3,15 L-3,20 L-9,20 L-11,16 L-7,8 Z " fill="#D9D9D9" transform="translate(18,2)"/>
<path d="M0,0 L5,0 L6,4 L1,8 L-2,7 L-1,3 Z " fill="#C6C6C6" transform="translate(15,13)"/>
<path d="M0,0 L4,1 L2,4 L-2,5 L-1,1 Z " fill="#141414" transform="translate(15,15)"/>
</svg>
