<?xml version="1.0" encoding="UTF-8"?>
<svg version="1.1" xmlns="http://www.w3.org/2000/svg" width="28" height="28">
<path d="M0,0 L28,0 L28,28 L0,28 Z " fill="#030303" transform="translate(0,0)"/>
<path d="M0,0 L4,0 L3,3 L-1,6 L-1,8 L3,10 L3,16 L-4,20 L-8,19 L-10,14 L-9,9 L-5,4 Z " fill="#E8E8E8" transform="translate(18,4)"/>
<path d="M0,0 L2,4 L6,5 L10,3 L8,7 L2,9 L-1,6 L-1,1 Z " fill="#F0F0F0" transform="translate(10,15)"/>
<path d="M0,0 L6,1 L5,5 L3,7 L-1,6 L-2,3 Z " fill="#1A1A1A" transform="translate(13,14)"/>
<path d="M0,0 L4,0 L3,3 L-2,8 L-6,8 L-8,9 L-6,5 Z " fill="#D1D1D1" transform="translate(18,4)"/>
</svg>
