<?xml version="1.0" encoding="UTF-8"?>
<svg version="1.1" xmlns="http://www.w3.org/2000/svg" width="28" height="28">
<path d="M0,0 L28,0 L28,28 L0,28 Z " fill="#030303" transform="translate(0,0)"/>
<path d="M0,0 L2,0 L1,6 L1,16 L4,17 L7,11 L8,10 L14,10 L15,15 L13,15 L11,19 L2,20 L-2,18 L-3,16 L-3,5 Z " fill="#F3F3F3" transform="translate(10,2)"/>
<path d="M0,0 L6,0 L7,5 L5,5 L3,9 L-2,8 L-3,4 Z " fill="#D0D0D0" transform="translate(18,12)"/>
<path d="M0,0 L2,0 L0,15 L-1,15 L-2,10 L-3,10 L-2,2 Z " fill="#C8C8C8" transform="translate(10,2)"/>
<path d="M0,0 L3,0 L1,4 L-3,5 L-1,1 Z " fill="#181818" transform="translate(20,14)"/>
</svg>
