<?xml version="1.0" encoding="UTF-8"?>
<svg version="1.1" xmlns="http://www.w3.org/2000/svg" width="28" height="28">
<path d="M0,0 L28,0 L28,28 L0,28 Z " fill="#040404" transform="translate(0,0)"/>
<path d="M0,0 L9,0 L9,2 L1,3 L1,9 L6,8 L15,8 L18,10 L17,14 L13,16 L3,16 L-1,14 L-2,9 L-2,2 Z " fill="#EFEFEF" transform="translate(8,5)"/>
<path d="M0,0 L3,1 L2,5 L-2,7 L-5,7 L-5,5 L-10,5 L-10,2 Z " fill="#DEDEDE" transform="translate(23,14)"/>
<path d="M0,0 L9,0 L9,2 L1,3 L0,7 L0,3 L-2,2 Z " fill="#D6D6D6" transform="translate(8,5)"/>
<path d="M0,0 L9,0 L8,2 L0,3 Z " fill="#313131" transform="translate(13,16)"/>
</svg>
