<?xml version="1.0" encoding="UTF-8"?>
<svg version="1.1" xmlns="http://www.w3.org/2000/svg" width="28" height="28">
<path d="M0,0 L28,0 L28,28 L0,28 Z " fill="#020202" transform="translate(0,0)"/>
<path d="M0,0 L3,1 L1,5 L-1,5 L-1,8 L4,9 L5,13 L4,19 L-3,20 L-6,18 L-7,12 L-3,3 Z " fill="#EFEFEF" transform="translate(15,3)"/>
<path d="M0,0 L2,0 L2,6 L-2,6 L-2,1 Z " fill="#161616" transform="translate(14,14)"/>
<path d="M0,0 L1,4 L3,4 L3,7 L-4,8 L-1,5 Z " fill="#D8D8D8" transform="translate(16,15)"/>
</svg>
