<?xml version="1.0" encoding="UTF-8"?>
<svg version="1.1" xmlns="http://www.w3.org/2000/svg" width="28" height="28">
<path d="M0,0 L28,0 L28,28 L0,28 Z " fill="#030303" transform="translate(0,0)"/>
<path d="M0,0 L3,1 L-2,7 L-3,13 L0,11 L5,11 L6,12 L6,18 L3,20 L-3,20 L-6,16 L-6,9 Z " fill="#C8C8C8" transform="translate(15,2)"/>
<path d="M0,0 L3,1 L-2,7 L-5,15 L-3,15 L1,20 L-4,19 L-6,16 L-6,9 Z " fill="#E6E6E6" transform="translate(15,2)"/>
<path d="M0,0 L4,1 L4,5 L-3,6 L-3,3 Z " fill="#191919" transform="translate(16,14)"/>
</svg>
