<?xml version="1.0" encoding="UTF-8"?>
<svg version="1.1" xmlns="http://www.w3.org/2000/svg" width="28" height="28">
<path d="M0,0 L28,0 L28,28 L0,28 Z " fill="#050505" transform="translate(0,0)"/>
<path d="M0,0 L3,0 L3,6 L3,9 L12,9 L13,10 L13,16 L5,20 L-3,20 L-5,18 L-5,12 Z " fill="#EFEFEF" transform="translate(12,2)"/>
<path d="M0,0 L6,0 L7,1 L7,7 L5,6 L3,7 L-4,7 L-2,3 Z " fill="#E3E3E3" transform="translate(18,11)"/>
<path d="M0,0 L6,1 L5,4 L-2,4 Z " fill="#171717" transform="translate(16,14)"/>
</svg>
