<?xml version="1.0" encoding="UTF-8"?>
<svg version="1.1" xmlns="http://www.w3.org/2000/svg" width="28" height="28">
<path d="M0,0 L28,0 L28,28 L0,28 Z " fill="#030303" transform="translate(0,0)"/>
<path d="M0,0 L2,0 L2,16 L8,18 L8,12 L10,9 L15,9 L16,13 L13,18 L9,20 L2,20 L-1,17 L-2,8 Z " fill="#A5A5A5" transform="translate(9,2)"/>
<path d="M0,0 L2,0 L2,16 L8,18 L8,20 L2,20 L-1,17 L-2,8 Z " fill="#DADADA" transform="translate(9,2)"/>
<path d="M0,0 L2,3 L5,6 L9,7 L9,9 L3,9 L0,6 Z " fill="#F3F3F3" transform="translate(8,13)"/>
<path d="M0,0 L5,0 L4,3 L1,4 L-1,7 Z " fill="#F4F4F4" transform="translate(19,11)"/>
</svg>
