<?xml version="1.0" encoding="UTF-8"?>
<svg version="1.1" xmlns="http://www.w3.org/2000/svg" width="28" height="28">
<path d="M0,0 L28,0 L28,28 L0,28 Z " fill="#040404" transform="translate(0,0)"/>
<path d="M0,0 L2,0 L1,6 L0,15 L2,15 L6,8 L13,9 L12,16 L7,20 L0,19 L-3,16 L-3,9 L-2,2 Z " fill="#ECECEC" transform="translate(11,2)"/>
<path d="M0,0 L7,1 L6,8 L5,9 L-1,9 L-3,4 Z " fill="#D7D7D7" transform="translate(17,10)"/>
<path d="M0,0 L4,0 L2,4 L-1,5 Z " fill="#111111" transform="translate(18,13)"/>
</svg>
