<?xml version="1.0" encoding="UTF-8"?>
<svg version="1.1" xmlns="http://www.w3.org/2000/svg" width="28" height="28">
<path d="M0,0 L28,0 L28,28 L0,28 Z " fill="#030303" transform="translate(0,0)"/>
<path d="M0,0 L1,3 L0,6 L0,13 L2,16 L5,17 L6,12 L8,10 L13,10 L15,14 L12,19 L10,20 L3,20 L-2,15 L-3,14 L-3,6 Z " fill="#E9E9E9" transform="translate(10,2)"/>
<path d="M0,0 L5,0 L7,4 L3,9 L-3,7 L-2,2 Z " fill="#DCDCDC" transform="translate(18,12)"/>
<path d="M0,0 L4,1 L2,5 L-1,6 L-1,1 Z " fill="#171717" transform="translate(19,14)"/>
</svg>
