<?xml version="1.0" encoding="UTF-8"?>
<svg version="1.1" xmlns="http://www.w3.org/2000/svg" width="28" height="28">
<path d="M0,0 L28,0 L28,28 L0,28 Z " fill="#030303" transform="translate(0,0)"/>
<path d="M0,0 L3,0 L3,2 L-2,6 L-4,6 L-4,8 L-6,8 L-7,14 L-4,17 L2,17 L4,16 L0,14 L1,11 L6,10 L8,12 L7,17 L2,20 L-5,20 L-9,18 L-10,16 L-10,10 L-5,4 Z " fill="#DEDEDE" transform="translate(16,2)"/>
<path d="M0,0 L3,1 L2,5 L-3,5 L-3,1 Z " fill="#A4A4A4" transform="translate(20,12)"/>
<path d="M0,0 L3,0 L3,2 L-2,6 L-4,6 L-5,8 L-6,6 L-1,1 Z " fill="#C8C8C8" transform="translate(16,2)"/>
</svg>
