<?xml version="1.0" encoding="UTF-8"?>
<svg version="1.1" xmlns="http://www.w3.org/2000/svg" width="28" height="28">
<path d="M0,0 L28,0 L28,28 L0,28 Z " fill="#040404" transform="translate(0,0)"/>
<path d="M0,0 L2,0 L1,14 L3,16 L8,17 L9,12 L12,9 L16,10 L17,14 L13,19 L11,20 L2,19 L-2,15 L-2,6 Z " fill="#E4E4E4" transform="translate(8,2)"/>
<path d="M0,0 L4,1 L5,5 L1,9 L-2,7 L-2,5 L-4,4 Z " fill="#B9B9B9" transform="translate(20,11)"/>
<path d="M0,0 L2,0 L5,3 L5,5 L0,5 Z " fill="#F7F7F7" transform="translate(16,16)"/>
</svg>
