<?xml version="1.0" encoding="UTF-8"?>
<svg version="1.1" xmlns="http://www.w3.org/2000/svg" width="28" height="28">
<path d="M0,0 L28,0 L28,28 L0,28 Z " fill="#020202" transform="translate(0,0)"/>
<path d="M0,0 L1,2 L0,15 L1,17 L4,11 L6,9 L10,10 L9,17 L6,20 L0,20 L-2,17 L-2,6 Z " fill="#D9D9D9" transform="translate(11,1)"/>
<path d="M0,0 L4,1 L4,6 L1,8 L-4,7 L-2,2 Z " fill="#C2C2C2" transform="translate(17,10)"/>
<path d="M0,0 L2,0 L2,5 L-2,6 L-1,1 Z " fill="#0C0C0C" transform="translate(17,12)"/>
</svg>
