<?xml version="1.0" encoding="UTF-8"?>
<svg version="1.1" xmlns="http://www.w3.org/2000/svg" width="28" height="28">
<path d="M0,0 L28,0 L28,28 L0,28 Z " fill="#030303" transform="translate(0,0)"/>
<path d="M0,0 L2,0 L1,16 L5,16 L8,11 L13,9 L15,11 L15,16 L11,19 L2,20 L-3,17 L-2,6 Z " fill="#DBDBDB" transform="translate(9,1)"/>
<path d="M0,0 L2,1 L2,4 L1,7 L-4,8 L-5,5 Z " fill="#888888" transform="translate(20,10)"/>
<path d="M0,0 L2,0 L0,10 L-2,14 L-3,11 Z " fill="#ECECEC" transform="translate(9,1)"/>
</svg>
