<?xml version="1.0" encoding="UTF-8"?>
<svg version="1.1" xmlns="http://www.w3.org/2000/svg" width="28" height="28">
<path d="M0,0 L28,0 L28,28 L0,28 Z " fill="#030303" transform="translate(0,0)"/>
<path d="M0,0 L2,0 L1,4 L-1,10 L-1,16 L4,18 L5,11 L10,9 L12,11 L12,16 L7,20 L-1,20 L-4,17 L-4,8 Z " fill="#878787" transform="translate(11,2)"/>
<path d="M0,0 L2,0 L1,4 L-1,10 L-1,16 L2,18 L-2,19 L-4,17 L-4,8 Z " fill="#E3E3E3" transform="translate(11,2)"/>
<path d="M0,0 L4,2 L3,6 L3,3 L-1,4 L-3,8 L-4,4 Z " fill="#E7E7E7" transform="translate(19,11)"/>
</svg>
