<?xml version="1.0" encoding="UTF-8"?>
<svg version="1.1" xmlns="http://www.w3.org/2000/svg" width="28" height="28">
<path d="M0,0 L28,0 L28,28 L0,28 Z " fill="#020202" transform="translate(0,0)"/>
<path d="M0,0 L3,1 L2,4 L-3,6 L-6,12 L-5,16 L-1,18 L-1,13 L1,11 L8,11 L9,16 L6,20 L-5,20 L-9,17 L-8,8 L-2,1 Z " fill="#CBCBCB" transform="translate(15,2)"/>
<path d="M0,0 L3,1 L2,4 L-3,6 L-6,12 L-5,16 L-4,19 L-8,18 L-9,17 L-8,8 L-2,1 Z " fill="#D5D5D5" transform="translate(15,2)"/>
<path d="M0,0 L7,0 L8,5 L5,9 L0,9 L1,7 L4,6 L5,2 L0,4 L-1,1 Z " fill="#DDDDDD" transform="translate(16,13)"/>
<path d="M0,0 L3,0 L2,5 L-2,4 Z " fill="#1B1B1B" transform="translate(18,15)"/>
</svg>
