<?xml version="1.0" encoding="UTF-8"?>
<svg version="1.1" xmlns="http://www.w3.org/2000/svg" width="28" height="28">
<path d="M0,0 L28,0 L28,28 L0,28 Z " fill="#020202" transform="translate(0,0)"/>
<path d="M0,0 L1,3 L-5,13 L-2,11 L2,12 L3,14 L0,19 L-7,20 L-9,18 L-8,12 L-4,5 Z " fill="#D4D4D4" transform="translate(18,2)"/>
<path d="M0,0 L4,1 L5,3 L2,8 L-2,7 L-1,3 Z " fill="#919191" transform="translate(16,13)"/>
<path d="M0,0 L2,2 L0,3 L-1,6 L2,7 L1,8 L-4,8 L-5,5 L-3,5 L-1,1 Z " fill="#EDEDED" transform="translate(15,14)"/>
</svg>
