<?xml version="1.0" encoding="UTF-8"?>
<svg version="1.1" xmlns="http://www.w3.org/2000/svg" width="28" height="28">
<path d="M0,0 L28,0 L28,28 L0,28 Z " fill="#030303" transform="translate(0,0)"/>
<path d="M0,0 L3,0 L1,4 L-5,13 L-5,15 L-3,15 L-1,11 L4,7 L7,7 L6,12 L0,19 L-6,20 L-9,19 L-9,13 L-2,2 Z " fill="#E5E5E5" transform="translate(16,3)"/>
<path d="M0,0 L3,0 L2,5 L0,6 L0,4 L-5,5 Z " fill="#ECECEC" transform="translate(20,10)"/>
<path d="M0,0 L1,2 L-2,5 L-5,4 L-4,1 Z " fill="#939393" transform="translate(18,14)"/>
</svg>
