<?xml version="1.0" encoding="UTF-8"?>
<svg version="1.1" xmlns="http://www.w3.org/2000/svg" width="28" height="28">
<path d="M0,0 L28,0 L28,28 L0,28 Z " fill="#020202" transform="translate(0,0)"/>
<path d="M0,0 L4,0 L4,2 L1,2 L-1,7 L-3,13 L-1,13 L1,9 L6,7 L8,8 L7,13 L2,19 L-1,20 L-5,16 L-6,9 L-3,3 Z " fill="#E5E5E5" transform="translate(14,3)"/>
<path d="M0,0 L4,1 L3,6 L0,9 L-3,8 L-3,5 L-5,4 Z " fill="#9D9D9D" transform="translate(18,10)"/>
<path d="M0,0 L1,2 L0,4 L3,5 L-1,9 L-5,6 L-5,4 Z " fill="#EEEEEE" transform="translate(15,14)"/>
<path d="M0,0 L4,0 L4,2 L1,2 L-1,7 L-4,6 L-2,2 Z " fill="#C1C1C1" transform="translate(14,3)"/>
</svg>
