<?xml version="1.0" encoding="UTF-8"?>
<svg version="1.1" xmlns="http://www.w3.org/2000/svg" width="28" height="28">
<path d="M0,0 L28,0 L28,28 L0,28 Z " fill="#030303" transform="translate(0,0)"/>
<path d="M0,0 L2,0 L2,3 L0,3 L-1,6 L-3,6 L-5,11 L-5,12 L0,11 L-1,17 L-5,20 L-10,19 L-10,13 L-6,7 Z " fill="#DBDBDB" transform="translate(19,2)"/>
<path d="M0,0 L2,0 L1,6 L-3,9 L-8,8 L-7,3 L-4,4 L-3,6 L0,3 Z " fill="#E2E2E2" transform="translate(17,13)"/>
<path d="M0,0 L2,1 L0,5 L-4,7 L-5,3 Z " fill="#878787" transform="translate(16,13)"/>
<path d="M0,0 L3,1 L3,6 L-1,5 Z " fill="#FBFBFB" transform="translate(10,16)"/>
</svg>
