<?xml version="1.0" encoding="UTF-8"?>
<svg version="1.1" xmlns="http://www.w3.org/2000/svg" width="28" height="28">
<path d="M0,0 L28,0 L28,28 L0,28 Z " fill="#010101" transform="translate(0,0)"/>
<path d="M0,0 L2,1 L-9,15 L-10,17 L-8,17 L-6,13 L-3,10 L0,10 L-1,16 L-7,20 L-12,19 L-12,14 L-5,5 Z " fill="#DFDFDF" transform="translate(20,3)"/>
<path d="M0,0 L3,0 L2,6 L-4,5 Z " fill="#C3C3C3" transform="translate(17,13)"/>
<path d="M0,0 L3,1 L-2,7 L-4,7 L-2,2 Z " fill="#1C1C1C" transform="translate(14,13)"/>
</svg>
