<?xml version="1.0" encoding="UTF-8"?>
<svg version="1.1" xmlns="http://www.w3.org/2000/svg" width="28" height="28">
<path d="M0,0 L28,0 L28,28 L0,28 Z " fill="#030303" transform="translate(0,0)"/>
<path d="M0,0 L2,0 L0,4 L-4,13 L-1,11 L5,11 L7,13 L6,17 L1,20 L-4,19 L-7,15 L-6,6 L-3,1 Z " fill="#F1F1F1" transform="translate(16,3)"/>
<path d="M0,0 L6,0 L8,2 L7,6 L5,8 L-1,7 L-2,5 Z " fill="#B0B0B0" transform="translate(15,14)"/>
<path d="M0,0 L2,0 L0,4 L-5,5 L-3,1 Z " fill="#D3D3D3" transform="translate(16,3)"/>
</svg>
