<?xml version="1.0" encoding="UTF-8"?>
<svg version="1.1" xmlns="http://www.w3.org/2000/svg" width="28" height="28">
<path d="M0,0 L28,0 L28,28 L0,28 Z " fill="#050505" transform="translate(0,0)"/>
<path d="M0,0 L2,0 L0,7 L1,14 L2,16 L3,12 L6,10 L12,10 L15,12 L14,17 L9,20 L3,20 L-2,16 L-3,14 L-3,5 Z " fill="#E4E4E4" transform="translate(10,2)"/>
<path d="M0,0 L2,0 L0,7 L1,15 L-2,16 L-3,14 L-3,5 Z " fill="#E5E5E5" transform="translate(10,2)"/>
<path d="M0,0 L6,0 L5,5 L-1,6 Z " fill="#181818" transform="translate(16,14)"/>
</svg>
