<?xml version="1.0" encoding="UTF-8"?>
<svg version="1.1" xmlns="http://www.w3.org/2000/svg" width="28" height="28">
<path d="M0,0 L28,0 L28,28 L0,28 Z " fill="#030303" transform="translate(0,0)"/>
<path d="M0,0 L3,1 L2,4 L-7,8 L-9,9 L-5,10 L-5,14 L-12,17 L-17,17 L-16,12 L-11,7 L-6,4 Z " fill="#DFDFDF" transform="translate(23,5)"/>
<path d="M0,0 L6,0 L6,4 L-1,7 L-6,7 L-5,3 Z " fill="#939393" transform="translate(12,15)"/>
<path d="M0,0 L5,0 L5,4 L0,5 Z " fill="#F0F0F0" transform="translate(13,15)"/>
<path d="M0,0 L3,1 L2,4 L-2,5 L-3,2 Z " fill="#CCCCCC" transform="translate(23,5)"/>
</svg>
