<?xml version="1.0" encoding="UTF-8"?>
<svg version="1.1" xmlns="http://www.w3.org/2000/svg" width="28" height="28">
<path d="M0,0 L28,0 L28,28 L0,28 Z " fill="#030303" transform="translate(0,0)"/>
<path d="M0,0 L1,3 L-5,13 L-5,15 L0,10 L4,10 L4,16 L-2,20 L-7,19 L-8,18 L-8,12 L-2,2 Z " fill="#EFEFEF" transform="translate(17,2)"/>
<path d="M0,0 L4,0 L4,6 L1,8 L-4,5 L-3,2 Z " fill="#E3E3E3" transform="translate(17,12)"/>
<path d="M0,0 L3,1 L2,5 L-1,5 L-3,3 Z " fill="#ABABAB" transform="translate(18,14)"/>
<path d="M0,0 L1,3 L-2,8 L-4,7 L-2,2 Z " fill="#D2D2D2" transform="translate(17,2)"/>
</svg>
