<?xml version="1.0" encoding="UTF-8"?>
<svg version="1.1" xmlns="http://www.w3.org/2000/svg" width="28" height="28">
<path d="M0,0 L28,0 L28,28 L0,28 Z " fill="#030303" transform="translate(0,0)"/>
<path d="M0,0 L1,4 L-2,8 L1,8 L1,6 L6,6 L7,7 L6,14 L2,18 L-2,20 L-8,20 L-9,19 L-9,13 L-5,7 Z " fill="#EFEFEF" transform="translate(16,3)"/>
<path d="M0,0 L2,0 L1,4 L-1,6 L-9,7 L-4,2 Z " fill="#212121" transform="translate(19,12)"/>
<path d="M0,0 L1,0 L0,7 L-4,11 L-6,11 L-4,7 L-1,2 Z " fill="#D2D2D2" transform="translate(22,10)"/>
</svg>
