<?xml version="1.0" encoding="UTF-8"?>
<svg version="1.1" xmlns="http://www.w3.org/2000/svg" width="28" height="28">
<path d="M0,0 L28,0 L28,28 L0,28 Z " fill="#010101" transform="translate(0,0)"/>
<path d="M0,0 L2,0 L2,2 L0,2 L-2,13 L3,12 L4,17 L0,15 L-1,19 L-4,18 L-5,12 L-2,2 Z " fill="#C5C5C5" transform="translate(15,2)"/>
<path d="M0,0 L4,1 L3,5 L2,3 L0,3 L-1,7 L-4,6 L-4,3 L-2,3 L-2,1 Z " fill="#E7E7E7" transform="translate(15,14)"/>
<path d="M0,0 L3,1 L4,4 L2,6 L-2,5 Z " fill="#717171" transform="translate(15,16)"/>
</svg>
