<?xml version="1.0" encoding="UTF-8"?>
<svg version="1.1" xmlns="http://www.w3.org/2000/svg" width="28" height="28">
<path d="M0,0 L28,0 L28,28 L0,28 Z " fill="#010101" transform="translate(0,0)"/>
<path d="M0,0 L1,2 L0,12 L2,9 L4,9 L3,13 L3,14 L4,18 L0,20 L-3,16 L-3,7 Z " fill="#C1C1C1" transform="translate(14,2)"/>
<path d="M0,0 L2,0 L1,4 L1,5 L2,9 L-2,11 L-4,8 L-2,8 L-1,1 Z " fill="#DDDDDD" transform="translate(16,11)"/>
<path d="M0,0 L3,0 L3,5 L-1,7 Z " fill="#535353" transform="translate(16,13)"/>
</svg>
