<?xml version="1.0" encoding="UTF-8"?>
<svg version="1.1" xmlns="http://www.w3.org/2000/svg" width="28" height="28">
<path d="M0,0 L28,0 L28,28 L0,28 Z " fill="#010101" transform="translate(0,0)"/>
<path d="M0,0 L2,0 L1,4 L-2,11 L0,9 L5,10 L6,11 L6,17 L1,20 L-4,20 L-6,17 L-6,10 L-2,2 Z " fill="#E3E3E3" transform="translate(15,2)"/>
<path d="M0,0 L5,1 L6,2 L6,8 L4,9 L-2,8 L-2,2 Z " fill="#CBCBCB" transform="translate(15,11)"/>
<path d="M0,0 L3,0 L2,4 L-2,4 L-2,1 Z " fill="#101010" transform="translate(15,15)"/>
</svg>
