<?xml version="1.0" encoding="UTF-8"?>
<svg version="1.1" xmlns="http://www.w3.org/2000/svg" width="28" height="28">
<path d="M0,0 L28,0 L28,28 L0,28 Z " fill="#030303" transform="translate(0,0)"/>
<path d="M0,0 L2,0 L1,5 L1,12 L2,14 L8,15 L8,10 L9,9 L17,9 L18,13 L15,16 L12,17 L2,17 L-2,12 L-2,4 Z " fill="#E1E1E1" transform="translate(8,3)"/>
<path d="M0,0 L8,0 L9,4 L6,7 L1,5 L-1,6 L-1,1 Z " fill="#D2D2D2" transform="translate(17,12)"/>
<path d="M0,0 L5,1 L4,4 L0,5 L-1,1 Z " fill="#1A1A1A" transform="translate(19,13)"/>
</svg>
