<?xml version="1.0" encoding="UTF-8"?>
<svg version="1.1" xmlns="http://www.w3.org/2000/svg" width="28" height="28">
<path d="M0,0 L28,0 L28,28 L0,28 Z " fill="#020202" transform="translate(0,0)"/>
<path d="M0,0 L3,0 L3,2 L-3,6 L-6,15 L-2,13 L2,14 L1,19 L0,20 L-5,20 L-7,18 L-7,8 L-4,2 Z " fill="#CCCCCC" transform="translate(17,3)"/>
<path d="M0,0 L4,1 L3,6 L-1,6 L-2,3 L-4,2 Z " fill="#9F9F9F" transform="translate(15,16)"/>
<path d="M0,0 L1,0 L1,6 L3,6 L5,10 L1,9 L0,8 Z " fill="#F1F1F1" transform="translate(10,13)"/>
</svg>
