<?xml version="1.0" encoding="UTF-8"?>
<svg version="1.1" xmlns="http://www.w3.org/2000/svg" width="28" height="28">
<path d="M0,0 L28,0 L28,28 L0,28 Z " fill="#040404" transform="translate(0,0)"/>
<path d="M0,0 L7,1 L7,3 L0,4 L-5,9 L-4,15 L5,18 L5,16 L9,15 L9,13 L3,13 L3,16 L0,15 L2,11 L5,9 L11,10 L11,17 L6,20 L-2,20 L-6,19 L-9,15 L-8,6 L-4,4 L-4,2 Z " fill="#E8E8E8" transform="translate(14,3)"/>
<path d="M0,0 L6,0 L6,2 L2,3 L2,5 L-3,4 L-2,2 L0,3 Z " fill="#2F2F2F" transform="translate(17,16)"/>
<path d="M0,0 L7,1 L7,3 L-1,4 Z " fill="#D0D0D0" transform="translate(14,3)"/>
<path d="M0,0 L2,1 L1,3 L-1,3 L-1,6 L-4,5 L-2,1 Z " fill="#F3F3F3" transform="translate(18,13)"/>
</svg>
