<?xml version="1.0" encoding="UTF-8"?>
<svg version="1.1" xmlns="http://www.w3.org/2000/svg" width="28" height="28">
<path d="M0,0 L28,0 L28,28 L0,28 Z " fill="#040404" transform="translate(0,0)"/>
<path d="M0,0 L2,1 L-6,10 L-7,15 L-7,18 L-5,18 L-5,13 L0,9 L4,10 L4,15 L-1,20 L-8,20 L-10,17 L-10,11 L-6,5 Z " fill="#E0E0E0" transform="translate(18,2)"/>
<path d="M0,0 L2,1 L-6,10 L-9,13 L-10,11 L-6,5 Z " fill="#E0E0E0" transform="translate(18,2)"/>
<path d="M0,0 L3,0 L2,4 L-2,6 L-3,4 Z " fill="#161616" transform="translate(17,14)"/>
</svg>
