<?xml version="1.0" encoding="UTF-8"?>
<svg version="1.1" xmlns="http://www.w3.org/2000/svg" width="28" height="28">
<path d="M0,0 L28,0 L28,28 L0,28 Z " fill="#020202" transform="translate(0,0)"/>
<path d="M0,0 L2,0 L0,4 L-3,8 L-4,12 L1,10 L10,10 L10,17 L6,20 L-2,20 L-6,16 L-6,8 L-3,3 L-1,3 Z " fill="#C8C8C8" transform="translate(14,2)"/>
<path d="M0,0 L4,1 L4,6 L3,7 L-5,7 L-8,5 L-7,2 Z " fill="#0A0A0A" transform="translate(18,13)"/>
<path d="M0,0 L2,0 L0,4 L-3,8 L-5,13 L-3,14 L-5,17 L-6,16 L-6,8 L-3,3 L-1,3 Z " fill="#D9D9D9" transform="translate(14,2)"/>
<path d="M0,0 L9,0 L8,5 L7,2 L-6,3 L-5,1 Z " fill="#9E9E9E" transform="translate(15,12)"/>
</svg>
