<?xml version="1.0" encoding="UTF-8"?>
<svg version="1.1" xmlns="http://www.w3.org/2000/svg" width="28" height="28">
<path d="M0,0 L28,0 L28,28 L0,28 Z " fill="#020202" transform="translate(0,0)"/>
<path d="M0,0 L1,3 L-5,11 L-5,13 L1,9 L5,10 L5,15 L0,19 L-7,20 L-10,17 L-9,12 L-1,1 Z " fill="#CCCCCC" transform="translate(17,2)"/>
<path d="M0,0 L1,3 L-5,11 L-8,10 Z " fill="#CFCFCF" transform="translate(17,2)"/>
<path d="M0,0 L4,0 L2,4 L-3,5 L-1,1 Z " fill="#0D0D0D" transform="translate(16,14)"/>
</svg>
