<?xml version="1.0" encoding="UTF-8"?>
<svg version="1.1" xmlns="http://www.w3.org/2000/svg" width="28" height="28">
<path d="M0,0 L28,0 L28,28 L0,28 Z " fill="#030303" transform="translate(0,0)"/>
<path d="M0,0 L3,1 L-1,5 L-6,10 L-7,12 L-3,14 L-2,19 L-3,20 L-8,20 L-10,17 L-13,15 L-10,10 L-6,4 Z " fill="#EEEEEE" transform="translate(20,4)"/>
<path d="M0,0 L3,1 L-1,5 L-6,10 L-10,12 L-8,6 L-2,1 Z " fill="#D6D6D6" transform="translate(20,4)"/>
<path d="M0,0 L4,2 L3,5 L5,6 L0,6 L-1,1 Z " fill="#818181" transform="translate(12,18)"/>
<path d="M0,0 L3,1 L-1,5 L-6,7 L-2,1 Z " fill="#F1F1F1" transform="translate(20,4)"/>
</svg>
