<?xml version="1.0" encoding="UTF-8"?>
<svg version="1.1" xmlns="http://www.w3.org/2000/svg" width="28" height="28">
<path d="M0,0 L28,0 L28,28 L0,28 Z " fill="#030303" transform="translate(0,0)"/>
<path d="M0,0 L2,0 L2,4 L-4,8 L-5,9 L2,12 L3,16 L0,19 L-8,20 L-11,17 L-10,9 L-3,2 Z " fill="#D9D9D9" transform="translate(19,3)"/>
<path d="M0,0 L2,3 L13,2 L12,5 L7,7 L0,6 Z " fill="#EAEAEA" transform="translate(9,16)"/>
<path d="M0,0 L2,0 L2,4 L-8,10 L-10,11 L-8,7 Z " fill="#EAEAEA" transform="translate(19,3)"/>
<path d="M0,0 L1,2 L3,2 L3,0 L8,1 L7,3 L0,4 Z " fill="#151515" transform="translate(11,16)"/>
</svg>
