<?xml version="1.0" encoding="UTF-8"?>
<svg version="1.1" xmlns="http://www.w3.org/2000/svg" width="28" height="28">
<path d="M0,0 L28,0 L28,28 L0,28 Z " fill="#020202" transform="translate(0,0)"/>
<path d="M0,0 L6,0 L7,2 L0,3 L-3,7 L-3,14 L1,17 L3,12 L6,9 L13,9 L14,10 L13,17 L6,20 L0,20 L-5,16 L-6,14 L-6,7 L-4,3 Z " fill="#B3B3B3" transform="translate(12,3)"/>
<path d="M0,0 L6,0 L7,2 L0,3 L-3,7 L-3,14 L0,17 L4,19 L-3,18 L-6,14 L-6,7 L-4,3 Z " fill="#D5D5D5" transform="translate(12,3)"/>
<path d="M0,0 L6,0 L6,5 L3,7 L-3,7 L-2,2 Z " fill="#090909" transform="translate(18,14)"/>
</svg>
