<?xml version="1.0" encoding="UTF-8"?>
<svg version="1.1" xmlns="http://www.w3.org/2000/svg" width="28" height="28">
<path d="M0,0 L28,0 L28,28 L0,28 Z " fill="#030303" transform="translate(0,0)"/>
<path d="M0,0 L4,0 L4,3 L-4,7 L-6,7 L-6,9 L-1,12 L1,14 L0,19 L-2,20 L-9,20 L-12,18 L-12,10 L-8,5 Z " fill="#EBEBEB" transform="translate(20,3)"/>
<path d="M0,0 L3,2 L2,7 L0,8 L-7,8 L-9,7 L-9,5 L-7,4 L-6,1 L-1,1 Z " fill="#EAEAEA" transform="translate(18,15)"/>
<path d="M0,0 L5,0 L6,3 L-1,4 Z " fill="#1B1B1B" transform="translate(12,16)"/>
</svg>
