<?xml version="1.0" encoding="UTF-8"?>
<svg version="1.1" xmlns="http://www.w3.org/2000/svg" width="28" height="28">
<path d="M0,0 L28,0 L28,28 L0,28 Z " fill="#020202" transform="translate(0,0)"/>
<path d="M0,0 L2,0 L0,4 L-4,9 L-4,13 L1,13 L0,18 L-2,20 L-8,19 L-8,11 L-6,6 L-1,1 Z " fill="#D4D4D4" transform="translate(18,3)"/>
<path d="M0,0 L5,0 L2,5 L-1,4 Z " fill="#9B9B9B" transform="translate(14,16)"/>
<path d="M0,0 L2,0 L0,4 L-5,8 L-3,3 Z " fill="#E3E3E3" transform="translate(18,3)"/>
</svg>
