<?xml version="1.0" encoding="UTF-8"?>
<svg version="1.1" xmlns="http://www.w3.org/2000/svg" width="28" height="28">
<path d="M0,0 L28,0 L28,28 L0,28 Z " fill="#030303" transform="translate(0,0)"/>
<path d="M0,0 L4,0 L4,2 L-1,4 L-3,9 L3,9 L5,11 L4,18 L2,20 L-3,19 L-5,15 L-5,5 Z " fill="#E5E5E5" transform="translate(15,4)"/>
<path d="M0,0 L4,0 L4,2 L-1,4 L-3,9 L3,9 L4,11 L-1,11 L-3,18 L-5,15 L-5,5 Z " fill="#F6F6F6" transform="translate(15,4)"/>
<path d="M0,0 L3,0 L3,7 L-1,7 L-2,2 Z " fill="#1C1C1C" transform="translate(14,14)"/>
<path d="M0,0 L4,0 L4,2 L-1,4 L-4,9 L-5,5 Z " fill="#DEDEDE" transform="translate(15,4)"/>
</svg>
