<?xml version="1.0" encoding="UTF-8"?>
<svg version="1.1" xmlns="http://www.w3.org/2000/svg" width="28" height="28">
<path d="M0,0 L28,0 L28,28 L0,28 Z " fill="#030303" transform="translate(0,0)"/>
<path d="M0,0 L2,0 L2,4 L-2,6 L-3,11 L-2,10 L3,10 L5,17 L4,19 L1,20 L-6,20 L-7,19 L-7,12 L-4,4 Z " fill="#CBCBCB" transform="translate(16,2)"/>
<path d="M0,0 L2,0 L2,4 L-2,6 L-5,15 L-7,19 L-7,12 L-4,4 Z " fill="#DFDFDF" transform="translate(16,2)"/>
<path d="M0,0 L4,1 L4,5 L-3,5 Z " fill="#1A1A1A" transform="translate(15,14)"/>
<path d="M0,0 L5,0 L4,3 L0,4 L-2,6 L-1,1 Z " fill="#E8E8E8" transform="translate(14,12)"/>
</svg>
