<?xml version="1.0" encoding="UTF-8"?>
<svg version="1.1" xmlns="http://www.w3.org/2000/svg" width="28" height="28">
<path d="M0,0 L28,0 L28,28 L0,28 Z " fill="#030303" transform="translate(0,0)"/>
<path d="M0,0 L2,0 L1,15 L8,10 L12,10 L12,16 L8,20 L0,19 L-3,12 L-2,5 Z " fill="#D6D6D6" transform="translate(10,2)"/>
<path d="M0,0 L4,0 L4,6 L0,10 L-1,8 L1,4 L-2,3 Z " fill="#E7E7E7" transform="translate(18,12)"/>
<path d="M0,0 L2,0 L0,6 L-5,5 L-3,4 L-2,1 Z " fill="#7C7C7C" transform="translate(17,16)"/>
</svg>
