<?xml version="1.0" encoding="UTF-8"?>
<svg version="1.1" xmlns="http://www.w3.org/2000/svg" width="28" height="28">
<path d="M0,0 L28,0 L28,28 L0,28 Z " fill="#020202" transform="translate(0,0)"/>
<path d="M0,0 L2,0 L0,5 L-7,15 L-8,17 L-3,12 L0,9 L4,9 L5,15 L0,19 L-3,20 L-11,20 L-11,14 L-7,8 Z " fill="#E2E2E2" transform="translate(18,2)"/>
<path d="M0,0 L4,0 L2,6 L-2,7 L-2,5 L-4,4 Z " fill="#8A8A8A" transform="translate(18,11)"/>
<path d="M0,0 L2,0 L1,5 L-3,7 L-6,6 L-5,4 L-1,3 Z " fill="#D8D8D8" transform="translate(21,13)"/>
</svg>
