<?xml version="1.0" encoding="UTF-8"?>
<svg version="1.1" xmlns="http://www.w3.org/2000/svg" width="28" height="28">
<path d="M0,0 L28,0 L28,28 L0,28 Z " fill="#030303" transform="translate(0,0)"/>
<path d="M0,0 L2,0 L2,6 L1,8 L1,14 L3,15 L6,10 L9,7 L13,7 L14,9 L14,16 L11,19 L3,20 L-1,18 L-2,16 L-2,6 Z " fill="#E8E8E8" transform="translate(9,2)"/>
<path d="M0,0 L4,0 L5,6 L0,9 L-3,9 L-5,5 Z " fill="#E2E2E2" transform="translate(18,9)"/>
<path d="M0,0 L2,0 L2,6 L1,8 L-1,8 L-2,10 L-1,1 Z " fill="#D1D1D1" transform="translate(9,2)"/>
<path d="M0,0 L3,0 L2,4 L-3,5 Z " fill="#0E0E0E" transform="translate(18,13)"/>
</svg>
