<?xml version="1.0" encoding="UTF-8"?>
<svg version="1.1" xmlns="http://www.w3.org/2000/svg" width="28" height="28">
<path d="M0,0 L28,0 L28,28 L0,28 Z " fill="#010101" transform="translate(0,0)"/>
<path d="M0,0 L2,1 L-3,11 L2,12 L1,17 L-1,20 L-6,19 L-5,8 Z " fill="#D0D0D0" transform="translate(17,3)"/>
<path d="M0,0 L4,0 L3,5 L0,8 L0,6 L-2,6 L-1,2 Z " fill="#848484" transform="translate(15,15)"/>
<path d="M0,0 L1,2 L3,2 L1,8 L3,8 L3,10 L-1,9 Z " fill="#EDEDED" transform="translate(12,13)"/>
</svg>
