<?xml version="1.0" encoding="UTF-8"?>
<svg version="1.1" xmlns="http://www.w3.org/2000/svg" width="28" height="28">
<path d="M0,0 L28,0 L28,28 L0,28 Z " fill="#030303" transform="translate(0,0)"/>
<path d="M0,0 L4,1 L0,3 L-3,7 L-5,14 L0,11 L5,12 L6,15 L2,20 L-3,19 L-8,14 L-7,9 L-4,3 Z " fill="#F3F3F3" transform="translate(16,3)"/>
<path d="M0,0 L5,1 L6,4 L2,9 L-2,8 L0,8 L0,6 L-2,6 L-1,3 L1,2 Z " fill="#929292" transform="translate(16,14)"/>
<path d="M0,0 L4,1 L0,3 L-3,7 L-4,10 L-6,11 L-8,14 L-7,9 L-4,3 Z " fill="#D5D5D5" transform="translate(16,3)"/>
</svg>
