<?xml version="1.0" encoding="UTF-8"?>
<svg version="1.1" xmlns="http://www.w3.org/2000/svg" width="28" height="28">
<path d="M0,0 L28,0 L28,28 L0,28 Z " fill="#030303" transform="translate(0,0)"/>
<path d="M0,0 L2,0 L1,4 L-6,14 L-7,17 L-3,17 L-2,13 L1,11 L6,11 L5,16 L0,20 L-9,19 L-10,14 L-3,3 L-1,3 Z " fill="#E8E8E8" transform="translate(17,2)"/>
<path d="M0,0 L2,0 L1,4 L-6,14 L-8,17 L-10,18 L-9,13 L-3,3 L-1,3 Z " fill="#D5D5D5" transform="translate(17,2)"/>
<path d="M0,0 L5,0 L4,4 L1,6 L-2,5 L-4,5 L-2,1 Z " fill="#8A8A8A" transform="translate(18,13)"/>
</svg>
