<?xml version="1.0" encoding="UTF-8"?>
<svg version="1.1" xmlns="http://www.w3.org/2000/svg" width="28" height="28">
<path d="M0,0 L28,0 L28,28 L0,28 Z " fill="#010101" transform="translate(0,0)"/>
<path d="M0,0 L2,0 L0,4 L-2,10 L1,13 L1,19 L0,20 L-5,20 L-7,17 L-7,10 L-2,2 Z " fill="#898989" transform="translate(17,3)"/>
<path d="M0,0 L2,1 L3,5 L5,6 L5,1 L7,1 L7,7 L6,8 L1,8 L-1,3 Z " fill="#E9E9E9" transform="translate(11,15)"/>
<path d="M0,0 L2,0 L0,4 L-3,10 L-6,10 L-4,4 Z " fill="#E5E5E5" transform="translate(17,3)"/>
</svg>
