<?xml version="1.0" encoding="UTF-8"?>
<svg version="1.1" xmlns="http://www.w3.org/2000/svg" width="28" height="28">
<path d="M0,0 L28,0 L28,28 L0,28 Z " fill="#010101" transform="translate(0,0)"/>
<path d="M0,0 L2,0 L1,5 L-2,12 L3,12 L5,14 L4,18 L2,20 L-5,19 L-5,10 Z " fill="#E9E9E9" transform="translate(15,2)"/>
<path d="M0,0 L5,0 L7,2 L6,6 L4,8 L-1,8 L1,6 L0,1 Z " fill="#AEAEAE" transform="translate(13,14)"/>
<path d="M0,0 L2,0 L1,5 L-1,8 L-2,3 Z " fill="#CCCCCC" transform="translate(15,2)"/>
</svg>
