<?xml version="1.0" encoding="UTF-8"?>
<svg version="1.1" xmlns="http://www.w3.org/2000/svg" width="28" height="28">
<path d="M0,0 L28,0 L28,28 L0,28 Z " fill="#040404" transform="translate(0,0)"/>
<path d="M0,0 L2,0 L0,4 L-7,11 L-9,15 L-3,12 L4,13 L4,16 L0,18 L-10,18 L-10,20 L-12,20 L-10,11 L-3,3 L0,2 Z " fill="#E6E6E6" transform="translate(19,2)"/>
<path d="M0,0 L2,0 L0,4 L-7,11 L-9,11 L-7,7 L-2,2 L0,2 Z " fill="#D2D2D2" transform="translate(19,2)"/>
<path d="M0,0 L1,3 L-5,5 L-9,4 L-9,2 Z " fill="#737373" transform="translate(22,15)"/>
<path d="M0,0 L5,1 L3,3 L-3,3 L-4,5 L-4,2 Z " fill="#C3C3C3" transform="translate(16,14)"/>
</svg>
