<?xml version="1.0" encoding="UTF-8"?>
<svg version="1.1" xmlns="http://www.w3.org/2000/svg" width="28" height="28">
<path d="M0,0 L28,0 L28,28 L0,28 Z " fill="#020202" transform="translate(0,0)"/>
<path d="M0,0 L2,0 L1,4 L-5,13 L0,12 L0,18 L-2,20 L-7,19 L-9,18 L-6,9 Z " fill="#E3E3E3" transform="translate(18,3)"/>
<path d="M0,0 L3,0 L3,6 L1,8 L-3,8 L-3,6 L1,4 L-1,2 Z " fill="#E8E8E8" transform="translate(15,15)"/>
<path d="M0,0 Z M-2,1 L3,2 L1,5 L-3,6 L-5,5 L-5,3 Z " fill="#A6A6A6" transform="translate(14,16)"/>
</svg>
