<?xml version="1.0" encoding="UTF-8"?>
<svg version="1.1" xmlns="http://www.w3.org/2000/svg" width="28" height="28">
<path d="M0,0 L28,0 L28,28 L0,28 Z " fill="#030303" transform="translate(0,0)"/>
<path d="M0,0 L4,0 L4,3 L-4,5 L-10,10 L-12,17 L-10,17 L-9,12 L-6,10 L0,10 L1,15 L-4,19 L-12,20 L-14,18 L-14,11 L-10,6 L-3,1 Z " fill="#E5E5E5" transform="translate(21,3)"/>
<path d="M0,0 L6,0 L7,5 L2,9 L1,7 L-3,8 L-4,3 Z " fill="#D7D7D7" transform="translate(15,13)"/>
<path d="M0,0 L1,0 L1,5 L3,5 L4,3 L5,5 L8,5 L8,7 L1,8 L-1,6 L-1,1 Z " fill="#EEEEEE" transform="translate(8,15)"/>
<path d="M0,0 L4,0 L4,3 L-6,4 L-3,1 Z " fill="#BDBDBD" transform="translate(21,3)"/>
<path d="M0,0 L3,0 L1,4 L-4,6 L-2,1 Z " fill="#121212" transform="translate(16,15)"/>
</svg>
