<?xml version="1.0" encoding="UTF-8"?>
<svg version="1.1" xmlns="http://www.w3.org/2000/svg" width="28" height="28">
<path d="M0,0 L28,0 L28,28 L0,28 Z " fill="#040404" transform="translate(0,0)"/>
<path d="M0,0 L3,1 L-3,9 L-7,16 L-2,11 L3,8 L9,8 L10,13 L5,17 L0,19 L-7,19 L-10,16 L-8,11 L-5,6 Z " fill="#E8E8E8" transform="translate(15,3)"/>
<path d="M0,0 L5,0 L4,4 L-5,7 L-4,3 Z " fill="#141414" transform="translate(18,13)"/>
<path d="M0,0 L6,0 L6,3 L0,3 L-5,6 L-5,3 Z " fill="#CDCDCD" transform="translate(18,11)"/>
</svg>
