<?xml version="1.0" encoding="UTF-8"?>
<svg version="1.1" xmlns="http://www.w3.org/2000/svg" width="28" height="28">
<path d="M0,0 L28,0 L28,28 L0,28 Z " fill="#030303" transform="translate(0,0)"/>
<path d="M0,0 L2,0 L1,5 L-1,9 L6,8 L10,10 L10,17 L6,20 L-1,19 L-4,15 L-4,8 Z " fill="#E1E1E1" transform="translate(12,3)"/>
<path d="M0,0 L2,0 L1,5 L-1,9 L5,9 L1,12 L-1,12 L-2,14 L-4,13 L-3,5 Z " fill="#EDEDED" transform="translate(12,3)"/>
<path d="M0,0 L7,1 L7,4 L4,6 L-1,5 L-2,1 Z " fill="#151515" transform="translate(13,14)"/>
</svg>
