<?xml version="1.0" encoding="UTF-8"?>
<svg version="1.1" xmlns="http://www.w3.org/2000/svg" width="28" height="28">
<path d="M0,0 L28,0 L28,28 L0,28 Z " fill="#030303" transform="translate(0,0)"/>
<path d="M0,0 L2,0 L2,3 L-3,8 L-6,12 L-7,17 L-2,17 L-2,11 L0,11 L0,9 L5,10 L6,15 L4,12 L1,12 L-1,19 L-7,20 L-10,17 L-9,10 L-5,4 L-3,4 L-2,1 Z " fill="#E5E5E5" transform="translate(17,2)"/>
<path d="M0,0 L4,1 L5,6 L-1,9 L-4,8 L-2,7 Z " fill="#D0D0D0" transform="translate(18,13)"/>
<path d="M0,0 L3,0 L2,5 L-1,6 L-1,1 Z " fill="#131313" transform="translate(18,13)"/>
</svg>
