<?xml version="1.0" encoding="UTF-8"?>
<svg version="1.1" xmlns="http://www.w3.org/2000/svg" width="28" height="28">
<path d="M0,0 L28,0 L28,28 L0,28 Z " fill="#030303" transform="translate(0,0)"/>
<path d="M0,0 L2,0 L1,5 L-4,12 L-6,12 L-7,17 L-5,17 L-3,12 L2,9 L8,10 L7,16 L2,20 L-7,20 L-10,18 L-9,12 L-2,4 Z " fill="#E6E6E6" transform="translate(16,2)"/>
<path d="M0,0 L2,0 L1,5 L-4,12 L-6,12 L-7,17 L-10,16 L-8,11 L-1,2 Z " fill="#E1E1E1" transform="translate(16,2)"/>
<path d="M0,0 L4,1 L2,5 L-5,6 L-3,2 Z " fill="#222222" transform="translate(18,13)"/>
<path d="M0,0 L1,4 L-3,9 L-8,10 L-9,7 L-2,4 L-2,1 Z " fill="#C7C7C7" transform="translate(23,12)"/>
<path d="M0,0 L1,3 L-2,8 L-4,8 L-3,3 L-1,3 Z " fill="#2A2A2A" transform="translate(13,11)"/>
</svg>
