<?xml version="1.0" encoding="UTF-8"?>
<svg version="1.1" xmlns="http://www.w3.org/2000/svg" width="28" height="28">
<path d="M0,0 L28,0 L28,28 L0,28 Z " fill="#010101" transform="translate(0,0)"/>
<path d="M0,0 L3,0 L2,3 L0,3 L-1,7 L-3,12 L1,11 L5,13 L6,17 L3,20 L-3,20 L-6,16 L-5,8 Z " fill="#CDCDCD" transform="translate(15,2)"/>
<path d="M0,0 L6,2 L7,6 L4,9 L-2,9 L-3,5 L3,6 L4,3 L-1,2 Z " fill="#DBDBDB" transform="translate(14,13)"/>
<path d="M0,0 L3,0 L2,3 L0,3 L-1,7 L-3,9 L-4,6 Z " fill="#C9C9C9" transform="translate(15,2)"/>
<path d="M0,0 L4,1 L3,5 L-2,4 Z " fill="#1B1B1B" transform="translate(14,15)"/>
</svg>
