<?xml version="1.0" encoding="UTF-8"?>
<svg version="1.1" xmlns="http://www.w3.org/2000/svg" width="28" height="28">
<path d="M0,0 L28,0 L28,28 L0,28 Z " fill="#040404" transform="translate(0,0)"/>
<path d="M0,0 L3,0 L2,4 L-4,9 L-9,17 L-7,17 L-6,14 L-1,11 L5,11 L4,16 L-4,20 L-10,20 L-12,19 L-12,13 Z " fill="#E1E1E1" transform="translate(18,3)"/>
<path d="M0,0 L6,0 L5,5 L1,7 L-6,5 L-2,1 Z " fill="#D4D4D4" transform="translate(17,14)"/>
<path d="M0,0 L2,0 L2,3 L-5,5 L-5,3 Z " fill="#202020" transform="translate(19,15)"/>
</svg>
