<?xml version="1.0" encoding="UTF-8"?>
<svg version="1.1" xmlns="http://www.w3.org/2000/svg" width="28" height="28">
<path d="M0,0 L28,0 L28,28 L0,28 Z " fill="#030303" transform="translate(0,0)"/>
<path d="M0,0 L2,0 L1,5 L-3,12 L-3,15 L4,10 L8,10 L8,17 L4,20 L-5,20 L-6,19 L-6,9 L-3,4 L-1,4 Z " fill="#F0F0F0" transform="translate(14,2)"/>
<path d="M0,0 L4,0 L4,7 L1,9 L-6,8 L-7,5 Z " fill="#D9D9D9" transform="translate(18,12)"/>
<path d="M0,0 L2,0 L1,5 L-2,10 L-6,9 L-3,4 L-1,4 Z " fill="#D3D3D3" transform="translate(14,2)"/>
<path d="M0,0 L3,0 L2,5 L1,6 L-4,6 L-2,2 Z " fill="#1A1A1A" transform="translate(17,14)"/>
</svg>
