<?xml version="1.0" encoding="UTF-8"?>
<svg version="1.1" xmlns="http://www.w3.org/2000/svg" width="28" height="28">
<path d="M0,0 L28,0 L28,28 L0,28 Z " fill="#030303" transform="translate(0,0)"/>
<path d="M0,0 L4,1 L-1,3 L-5,11 L-5,14 L0,12 L3,15 L1,19 L-5,20 L-8,18 L-8,8 L-6,8 L-5,3 Z " fill="#E0E0E0" transform="translate(18,3)"/>
<path d="M0,0 L4,1 L-1,3 L-5,11 L-5,17 L-8,16 L-8,8 L-6,8 L-5,3 Z " fill="#E1E1E1" transform="translate(18,3)"/>
<path d="M0,0 L3,0 L2,3 L-2,5 L-5,3 L-4,1 Z " fill="#7F7F7F" transform="translate(15,18)"/>
</svg>
