<?xml version="1.0" encoding="UTF-8"?>
<svg version="1.1" xmlns="http://www.w3.org/2000/svg" width="28" height="28">
<path d="M0,0 L28,0 L28,28 L0,28 Z " fill="#010101" transform="translate(0,0)"/>
<path d="M0,0 L3,0 L2,5 L0,10 L6,11 L6,17 L2,20 L-3,19 L-4,17 L-4,10 Z " fill="#DFDFDF" transform="translate(14,3)"/>
<path d="M0,0 L3,0 L2,5 L0,10 L3,11 L1,13 L-2,13 L-3,15 L-3,7 Z " fill="#EDEDED" transform="translate(14,3)"/>
<path d="M0,0 L2,3 L7,3 L5,7 L2,7 L1,9 L0,7 Z " fill="#929292" transform="translate(10,13)"/>
</svg>
