<?xml version="1.0" encoding="UTF-8"?>
<svg version="1.1" xmlns="http://www.w3.org/2000/svg" width="28" height="28">
<path d="M0,0 L28,0 L28,28 L0,28 Z " fill="#020202" transform="translate(0,0)"/>
<path d="M0,0 L3,1 L2,3 L-1,4 L-4,10 L0,11 L0,16 L-4,20 L-8,20 L-9,15 L-7,8 L-2,1 Z " fill="#E8E8E8" transform="translate(18,3)"/>
<path d="M0,0 L3,1 L2,3 L-1,4 L-4,10 L-1,11 L-7,10 L-5,6 L-2,1 Z " fill="#C3C3C3" transform="translate(18,3)"/>
<path d="M0,0 L4,1 L2,5 L-1,6 L-1,1 Z " fill="#171717" transform="translate(13,15)"/>
<path d="M0,0 L1,2 L3,3 L2,8 L-1,8 Z " fill="#C3C3C3" transform="translate(10,13)"/>
</svg>
