<?xml version="1.0" encoding="UTF-8"?>
<svg version="1.1" xmlns="http://www.w3.org/2000/svg" width="28" height="28">
<path d="M0,0 L28,0 L28,28 L0,28 Z " fill="#030303" transform="translate(0,0)"/>
<path d="M0,0 L4,1 L-4,10 L1,13 L2,17 L-5,20 L-11,20 L-13,18 L-12,14 L-1,1 Z " fill="#E3E3E3" transform="translate(19,2)"/>
<path d="M0,0 L4,1 L-4,10 L-8,12 L-10,13 L-8,9 Z M-11,13 Z " fill="#E2E2E2" transform="translate(19,2)"/>
<path d="M0,0 L1,2 L9,2 L6,5 L0,5 L-1,1 Z " fill="#F2F2F2" transform="translate(8,17)"/>
<path d="M0,0 L4,1 L5,3 L3,4 L-3,4 L-2,1 Z " fill="#161616" transform="translate(13,15)"/>
</svg>
