<?xml version="1.0" encoding="UTF-8"?>
<svg version="1.1" xmlns="http://www.w3.org/2000/svg" width="28" height="28">
<path d="M0,0 L28,0 L28,28 L0,28 Z " fill="#020202" transform="translate(0,0)"/>
<path d="M0,0 L2,0 L1,5 L-1,8 L4,11 L2,16 L-4,20 L-9,20 L-10,15 L-5,9 Z " fill="#D5D5D5" transform="translate(17,2)"/>
<path d="M0,0 L2,0 L1,5 L-1,8 L4,11 L4,13 L-4,13 L-7,16 L-9,16 L-7,11 L-1,2 Z " fill="#E1E1E1" transform="translate(17,2)"/>
<path d="M0,0 L5,0 L1,5 L-2,4 Z " fill="#0F0F0F" transform="translate(13,14)"/>
</svg>
