<?xml version="1.0" encoding="UTF-8"?>
<svg version="1.1" xmlns="http://www.w3.org/2000/svg" width="28" height="28">
<path d="M0,0 L28,0 L28,28 L0,28 Z " fill="#030303" transform="translate(0,0)"/>
<path d="M0,0 L2,0 L0,4 L-4,10 L1,13 L1,17 L-5,20 L-10,20 L-10,14 L-4,4 Z " fill="#E8E8E8" transform="translate(19,2)"/>
<path d="M0,0 L4,2 L4,6 L-5,7 L-5,5 L-3,4 L-3,2 Z " fill="#D3D3D3" transform="translate(16,13)"/>
<path d="M0,0 L4,1 L2,5 L-2,5 L-2,3 L0,2 Z " fill="#262626" transform="translate(13,15)"/>
</svg>
