<?xml version="1.0" encoding="UTF-8"?>
<svg version="1.1" xmlns="http://www.w3.org/2000/svg" width="28" height="28">
<path d="M0,0 L28,0 L28,28 L0,28 Z " fill="#020202" transform="translate(0,0)"/>
<path d="M0,0 L3,1 L2,4 L-1,7 L-1,10 L5,9 L8,11 L8,18 L5,20 L-1,19 L-1,17 L-3,17 L-4,15 L-4,6 L-3,3 L-1,3 Z " fill="#DDDDDD" transform="translate(13,3)"/>
<path d="M0,0 L1,0 L1,5 L-2,7 L-8,6 L-8,4 L-10,3 L-7,2 L-6,3 L-1,3 Z " fill="#E7E7E7" transform="translate(20,16)"/>
<path d="M0,0 L6,1 L7,4 L6,5 L1,5 L-1,1 Z " fill="#171717" transform="translate(13,15)"/>
</svg>
