<?xml version="1.0" encoding="UTF-8"?>
<svg version="1.1" xmlns="http://www.w3.org/2000/svg" width="28" height="28">
<path d="M0,0 L28,0 L28,28 L0,28 Z " fill="#030303" transform="translate(0,0)"/>
<path d="M0,0 L2,0 L-1,9 L-2,14 L0,14 L1,11 L4,9 L10,10 L11,12 L11,18 L9,20 L1,20 L-3,18 L-5,14 L-4,5 Z " fill="#E6E6E6" transform="translate(12,2)"/>
<path d="M0,0 L5,0 L7,5 L2,6 L-1,4 Z " fill="#171717" transform="translate(15,14)"/>
<path d="M0,0 L6,1 L6,3 L-1,3 L-2,5 L-4,5 L-3,2 Z " fill="#D5D5D5" transform="translate(16,11)"/>
</svg>
