<?xml version="1.0" encoding="UTF-8"?>
<svg version="1.1" xmlns="http://www.w3.org/2000/svg" width="28" height="28">
<path d="M0,0 L28,0 L28,28 L0,28 Z " fill="#010101" transform="translate(0,0)"/>
<path d="M0,0 L4,0 L4,2 L-3,7 L-5,11 L1,8 L11,8 L12,12 L5,15 L-5,16 L-6,13 L-8,13 L-7,7 Z " fill="#D5D5D5" transform="translate(14,5)"/>
<path d="M0,0 L10,0 L11,4 L7,6 L-3,5 L-2,3 L2,2 Z " fill="#CACACA" transform="translate(15,13)"/>
<path d="M0,0 L7,0 L6,2 L3,3 L-5,3 L-4,1 Z " fill="#111111" transform="translate(17,15)"/>
</svg>
