<?xml version="1.0" encoding="UTF-8"?>
<svg version="1.1" xmlns="http://www.w3.org/2000/svg" width="28" height="28">
<path d="M0,0 L28,0 L28,28 L0,28 Z " fill="#020202" transform="translate(0,0)"/>
<path d="M0,0 L2,0 L2,10 L7,13 L9,8 L12,6 L18,7 L19,12 L16,15 L9,16 L3,14 L-1,10 L-1,3 Z " fill="#CCCCCC" transform="translate(6,4)"/>
<path d="M0,0 L6,1 L7,6 L4,9 L-3,10 L-4,8 L5,6 L4,3 L-2,3 L-2,1 Z " fill="#E1E1E1" transform="translate(18,10)"/>
<path d="M0,0 L5,1 L5,4 L3,5 L-3,5 L-1,1 Z " fill="#0F0F0F" transform="translate(18,12)"/>
</svg>
