<?xml version="1.0" encoding="UTF-8"?>
<svg version="1.1" xmlns="http://www.w3.org/2000/svg" width="28" height="28">
<path d="M0,0 L28,0 L28,28 L0,28 Z " fill="#030303" transform="translate(0,0)"/>
<path d="M0,0 L2,0 L0,4 L-6,12 L-8,18 L-3,18 L-2,14 L3,12 L8,12 L7,17 L-4,20 L-9,20 L-10,19 L-10,11 L-3,3 Z " fill="#DDDDDD" transform="translate(17,2)"/>
<path d="M0,0 L5,0 L4,5 L-1,6 L-6,5 L-5,2 Z " fill="#C3C3C3" transform="translate(20,14)"/>
<path d="M0,0 L2,2 L7,2 L9,1 L12,3 L6,5 L1,5 Z " fill="#F5F5F5" transform="translate(7,17)"/>
</svg>
