<?xml version="1.0" encoding="UTF-8"?>
<svg version="1.1" xmlns="http://www.w3.org/2000/svg" width="28" height="28">
<path d="M0,0 L28,0 L28,28 L0,28 Z " fill="#020202" transform="translate(0,0)"/>
<path d="M0,0 L3,0 L3,3 L-2,6 L-4,12 L-4,15 L-6,15 L-6,17 L-1,14 L1,14 L1,12 L-1,12 L-1,10 L4,10 L3,15 L-3,20 L-8,19 L-9,18 L-8,11 L-5,5 Z " fill="#EBEBEB" transform="translate(17,3)"/>
<path d="M0,0 L2,0 L2,2 L4,2 L4,4 L-1,7 L-3,7 L-3,5 L-1,5 L-2,1 Z " fill="#747474" transform="translate(14,13)"/>
</svg>
