<?xml version="1.0" encoding="UTF-8"?>
<svg version="1.1" xmlns="http://www.w3.org/2000/svg" width="28" height="28">
<path d="M0,0 L28,0 L28,28 L0,28 Z " fill="#020202" transform="translate(0,0)"/>
<path d="M0,0 L2,1 L-1,10 L-1,12 L3,7 L7,7 L8,12 L2,19 L-5,20 L-6,18 L-5,9 Z " fill="#CDCDCD" transform="translate(14,3)"/>
<path d="M0,0 L4,0 L5,5 L0,10 L-2,9 L-1,5 L-1,1 Z " fill="#BABABA" transform="translate(17,10)"/>
<path d="M0,0 L3,1 L1,5 L3,5 L2,8 L-3,9 L-3,7 L-1,7 L-1,1 Z " fill="#F4F4F4" transform="translate(14,14)"/>
</svg>
