<?xml version="1.0" encoding="UTF-8"?>
<svg version="1.1" xmlns="http://www.w3.org/2000/svg" width="28" height="28">
<path d="M0,0 L28,0 L28,28 L0,28 Z " fill="#030303" transform="translate(0,0)"/>
<path d="M0,0 L2,0 L0,4 L-4,10 L2,10 L2,15 L-4,20 L-8,20 L-9,14 L-5,6 Z " fill="#E0E0E0" transform="translate(18,2)"/>
<path d="M0,0 L5,1 L3,5 L-1,8 L-5,8 L-6,4 L-2,3 L-2,1 Z " fill="#E2E2E2" transform="translate(15,14)"/>
<path d="M0,0 L3,0 L2,4 L-4,5 L-4,3 L-2,3 L-2,1 Z " fill="#131313" transform="translate(15,14)"/>
</svg>
