<?xml version="1.0" encoding="UTF-8"?>
<svg version="1.1" xmlns="http://www.w3.org/2000/svg" width="28" height="28">
<path d="M0,0 L28,0 L28,28 L0,28 Z " fill="#020202" transform="translate(0,0)"/>
<path d="M0,0 L2,0 L2,3 L0,3 L-2,8 L-4,12 L-6,12 L-7,17 L-3,13 L0,10 L6,9 L7,13 L3,17 L-2,20 L-10,20 L-11,16 L-5,5 Z " fill="#E2E2E2" transform="translate(17,2)"/>
<path d="M0,0 L5,1 L4,6 L-2,7 L-4,7 L-5,4 L-2,1 Z " fill="#DFDFDF" transform="translate(19,11)"/>
<path d="M0,0 L4,2 L0,6 L-2,6 L-3,3 Z " fill="#898989" transform="translate(17,12)"/>
<path d="M0,0 L2,3 L-1,7 L-3,7 L-2,2 L0,2 Z " fill="#323232" transform="translate(13,12)"/>
</svg>
