<?xml version="1.0" encoding="UTF-8"?>
<svg version="1.1" xmlns="http://www.w3.org/2000/svg" width="28" height="28">
<path d="M0,0 L28,0 L28,28 L0,28 Z " fill="#020202" transform="translate(0,0)"/>
<path d="M0,0 L4,0 L4,5 L2,5 L2,3 L-3,6 L-6,11 L2,12 L5,14 L4,18 L0,20 L-6,19 L-9,14 L-7,7 L-5,3 Z " fill="#E7E7E7" transform="translate(16,3)"/>
<path d="M0,0 L4,0 L4,5 L2,5 L2,3 L-3,6 L-6,11 L-1,11 L-1,12 L-7,12 L-8,8 L-5,3 Z " fill="#BDBDBD" transform="translate(16,3)"/>
<path d="M0,0 L6,0 L9,2 L9,4 L2,4 Z " fill="#232323" transform="translate(9,16)"/>
<path d="M0,0 L3,0 L2,4 L-1,5 L-5,3 L0,3 Z " fill="#C6C6C6" transform="translate(18,17)"/>
</svg>
