<?xml version="1.0" encoding="UTF-8"?>
<svg version="1.1" xmlns="http://www.w3.org/2000/svg" width="28" height="28">
<path d="M0,0 L28,0 L28,28 L0,28 Z " fill="#020202" transform="translate(0,0)"/>
<path d="M0,0 L1,0 L1,11 L7,11 L10,5 L11,4 L16,4 L18,6 L17,11 L10,14 L2,14 L-2,10 L-2,3 Z " fill="#D3D3D3" transform="translate(7,6)"/>
<path d="M0,0 L5,0 L7,2 L6,7 L3,8 L-1,7 L-1,1 Z " fill="#D4D4D4" transform="translate(18,10)"/>
<path d="M0,0 L4,0 L3,4 L-2,5 Z " fill="#141414" transform="translate(19,12)"/>
</svg>
