<?xml version="1.0" encoding="UTF-8"?>
<svg version="1.1" xmlns="http://www.w3.org/2000/svg" width="28" height="28">
<path d="M0,0 L28,0 L28,28 L0,28 Z " fill="#020202" transform="translate(0,0)"/>
<path d="M0,0 L2,1 L-4,10 L-4,13 L-1,11 L4,11 L5,15 L1,19 L-1,20 L-7,20 L-9,16 L-8,10 L-2,1 Z " fill="#E8E8E8" transform="translate(17,2)"/>
<path d="M0,0 L2,2 L5,0 L10,0 L11,4 L9,7 L2,7 L2,4 L0,4 Z " fill="#C2C2C2" transform="translate(11,13)"/>
<path d="M0,0 L2,1 L-2,6 L-6,8 L-4,4 Z " fill="#C2C2C2" transform="translate(17,2)"/>
<path d="M0,0 L2,0 L1,4 L-4,5 L-2,1 Z " fill="#0B0B0B" transform="translate(17,15)"/>
</svg>
