<?xml version="1.0" encoding="UTF-8"?>
<svg version="1.1" xmlns="http://www.w3.org/2000/svg" width="28" height="28">
<path d="M0,0 L28,0 L28,28 L0,28 Z " fill="#020202" transform="translate(0,0)"/>
<path d="M0,0 L2,0 L1,4 L-5,11 L6,11 L7,14 L5,14 L4,17 L0,18 L0,20 L-7,20 L-9,17 L-8,9 L-1,1 Z " fill="#E5E5E5" transform="translate(17,2)"/>
<path d="M0,0 L4,1 L4,3 L2,3 L1,6 L-2,7 L-1,1 Z " fill="#EAEAEA" transform="translate(20,13)"/>
<path d="M0,0 L8,0 L7,2 L1,3 Z " fill="#0C0C0C" transform="translate(11,16)"/>
</svg>
