<?xml version="1.0" encoding="UTF-8"?>
<svg version="1.1" xmlns="http://www.w3.org/2000/svg" width="28" height="28">
<path d="M0,0 L28,0 L28,28 L0,28 Z " fill="#020202" transform="translate(0,0)"/>
<path d="M0,0 L1,3 L-5,13 L-1,10 L4,11 L4,16 L2,16 L1,19 L-6,20 L-8,17 L-8,11 L-2,2 Z " fill="#E5E5E5" transform="translate(17,2)"/>
<path d="M0,0 L1,3 L-4,11 L-4,14 L-6,14 L-7,9 L-1,1 Z " fill="#E0E0E0" transform="translate(17,2)"/>
<path d="M0,0 L4,1 L1,2 L3,3 L1,7 L-3,6 L-1,1 Z " fill="#7C7C7C" transform="translate(16,12)"/>
</svg>
