<?xml version="1.0" encoding="UTF-8"?>
<svg version="1.1" xmlns="http://www.w3.org/2000/svg" width="28" height="28">
<path d="M0,0 L28,0 L28,28 L0,28 Z " fill="#020202" transform="translate(0,0)"/>
<path d="M0,0 L5,0 L4,4 L4,8 L6,6 L11,7 L12,9 L12,16 L8,19 L3,18 L0,14 Z " fill="#EDEDED" transform="translate(9,4)"/>
<path d="M0,0 L5,0 L4,4 L3,5 L3,13 L0,14 Z " fill="#D7D7D7" transform="translate(9,4)"/>
<path d="M0,0 L4,0 L4,5 L-1,7 Z " fill="#1A1A1A" transform="translate(15,13)"/>
<path d="M0,0 L5,1 L6,5 L4,6 L4,3 L0,3 L-1,5 L-2,2 Z " fill="#CDCDCD" transform="translate(15,10)"/>
</svg>
