<?xml version="1.0" encoding="UTF-8"?>
<svg version="1.1" xmlns="http://www.w3.org/2000/svg" width="28" height="28">
<path d="M0,0 L28,0 L28,28 L0,28 Z " fill="#020202" transform="translate(0,0)"/>
<path d="M0,0 L5,0 L6,3 L0,5 L-3,12 L-1,11 L8,11 L11,13 L10,18 L6,20 L-1,20 L-5,15 L-6,8 L-3,3 Z " fill="#E2E2E2" transform="translate(13,3)"/>
<path d="M0,0 L5,0 L6,3 L0,5 L-4,12 L-6,12 L-5,5 Z " fill="#DCDCDC" transform="translate(13,3)"/>
<path d="M0,0 L6,0 L6,2 L-3,3 L-3,1 Z " fill="#1B1B1B" transform="translate(15,17)"/>
</svg>
