<?xml version="1.0" encoding="UTF-8"?>
<svg version="1.1" xmlns="http://www.w3.org/2000/svg" width="28" height="28">
<path d="M0,0 L28,0 L28,28 L0,28 Z " fill="#020202" transform="translate(0,0)"/>
<path d="M0,0 L2,0 L0,4 L-4,10 L-4,13 L1,11 L3,12 L2,17 L-3,20 L-7,19 L-7,9 L-1,1 Z " fill="#C8C8C8" transform="translate(17,2)"/>
<path d="M0,0 L4,1 L3,6 L0,8 L-3,6 L-2,1 Z " fill="#949494" transform="translate(16,13)"/>
<path d="M0,0 L3,0 L6,1 L4,2 L4,4 L6,6 L1,7 L0,6 Z " fill="#EAEAEA" transform="translate(10,15)"/>
</svg>
