<?xml version="1.0" encoding="UTF-8"?>
<svg version="1.1" xmlns="http://www.w3.org/2000/svg" width="28" height="28">
<path d="M0,0 L28,0 L28,28 L0,28 Z " fill="#030303" transform="translate(0,0)"/>
<path d="M0,0 L5,1 L5,3 L-2,5 L-4,9 L-4,14 L1,10 L6,10 L7,11 L7,16 L5,19 L-3,20 L-7,18 L-8,11 L-4,3 L0,2 Z " fill="#D2D2D2" transform="translate(15,2)"/>
<path d="M0,0 L4,1 L4,6 L2,8 L-4,8 L0,6 L2,3 L-2,2 Z " fill="#F1F1F1" transform="translate(18,12)"/>
<path d="M0,0 L3,0 L1,4 L-3,4 L-2,1 Z " fill="#272727" transform="translate(17,15)"/>
</svg>
