<?xml version="1.0" encoding="UTF-8"?>
<svg version="1.1" xmlns="http://www.w3.org/2000/svg" width="28" height="28">
<path d="M0,0 L28,0 L28,28 L0,28 Z " fill="#030303" transform="translate(0,0)"/>
<path d="M0,0 L2,0 L2,3 L-3,8 L-4,10 L-4,16 L-2,12 L2,10 L6,11 L7,16 L4,20 L-3,20 L-7,17 L-7,10 L-2,2 Z " fill="#E8E8E8" transform="translate(15,2)"/>
<path d="M0,0 L4,1 L5,6 L2,10 L-3,8 L-4,2 Z " fill="#C9C9C9" transform="translate(17,12)"/>
<path d="M0,0 L4,0 L2,5 L-2,5 L-2,1 Z " fill="#121212" transform="translate(16,15)"/>
</svg>
