<?xml version="1.0" encoding="UTF-8"?>
<svg version="1.1" xmlns="http://www.w3.org/2000/svg" width="28" height="28">
<path d="M0,0 L28,0 L28,28 L0,28 Z " fill="#010101" transform="translate(0,0)"/>
<path d="M0,0 L2,0 L0,4 L-5,10 L-6,16 L-4,17 L-3,12 L0,10 L5,10 L7,12 L6,18 L3,20 L-5,20 L-9,16 L-8,7 L-6,7 L-6,5 L-4,5 L-3,2 Z " fill="#E6E6E6" transform="translate(16,2)"/>
<path d="M0,0 L5,0 L7,2 L6,8 L1,10 L1,8 L-2,7 L-2,4 L3,3 L3,1 Z " fill="#C6C6C6" transform="translate(16,12)"/>
<path d="M0,0 L5,1 L4,4 L-1,5 L-2,1 Z " fill="#151515" transform="translate(16,15)"/>
<path d="M0,0 L2,2 L1,9 L-2,8 L-1,2 Z " fill="#303030" transform="translate(11,10)"/>
<path d="M0,0 L2,0 L0,4 L-4,7 L-6,5 L-4,5 L-3,2 Z " fill="#C9C9C9" transform="translate(16,2)"/>
</svg>
