<?xml version="1.0" encoding="UTF-8"?>
<svg version="1.1" xmlns="http://www.w3.org/2000/svg" width="28" height="28">
<path d="M0,0 L28,0 L28,28 L0,28 Z " fill="#020202" transform="translate(0,0)"/>
<path d="M0,0 L2,0 L1,4 L-4,9 L-4,12 L1,8 L4,8 L5,15 L0,20 L-5,20 L-8,17 L-8,8 L-3,2 Z " fill="#E0E0E0" transform="translate(16,3)"/>
<path d="M0,0 L2,0 L1,4 L-4,9 L-6,16 L-7,16 L-8,8 L-3,2 Z " fill="#E5E5E5" transform="translate(16,3)"/>
<path d="M0,0 L2,0 L1,5 L-1,7 L-4,7 L-3,3 Z " fill="#1E1E1E" transform="translate(17,14)"/>
<path d="M0,0 L3,1 L-3,6 L-5,4 Z " fill="#C7C7C7" transform="translate(17,11)"/>
</svg>
