<?xml version="1.0" encoding="UTF-8"?>
<svg version="1.1" xmlns="http://www.w3.org/2000/svg" width="28" height="28">
<path d="M0,0 L28,0 L28,28 L0,28 Z " fill="#030303" transform="translate(0,0)"/>
<path d="M0,0 L2,0 L0,4 L-5,12 L-2,10 L5,10 L6,11 L6,16 L2,20 L-5,20 L-8,17 L-8,9 L-4,3 Z " fill="#E2E2E2" transform="translate(16,3)"/>
<path d="M0,0 L5,0 L6,1 L6,6 L2,10 L-3,10 L-4,5 Z " fill="#E4E4E4" transform="translate(16,13)"/>
<path d="M0,0 L4,0 L3,4 L1,6 L-4,6 L-3,2 Z " fill="#1F1F1F" transform="translate(16,15)"/>
</svg>
