<?xml version="1.0" encoding="UTF-8"?>
<svg version="1.1" xmlns="http://www.w3.org/2000/svg" width="28" height="28">
<path d="M0,0 L28,0 L28,28 L0,28 Z " fill="#040404" transform="translate(0,0)"/>
<path d="M0,0 L4,0 L4,2 L-1,7 L-2,14 L-1,16 L2,16 L2,11 L4,9 L11,9 L12,10 L12,15 L9,18 L4,20 L-3,19 L-6,16 L-6,8 L-2,2 Z " fill="#E2E2E2" transform="translate(13,3)"/>
<path d="M0,0 L4,0 L4,2 L-1,7 L-3,9 L-5,8 L-3,3 Z " fill="#E0E0E0" transform="translate(13,3)"/>
<path d="M0,0 L4,0 L2,4 L0,5 L-2,4 Z " fill="#161616" transform="translate(19,14)"/>
</svg>
