<?xml version="1.0" encoding="UTF-8"?>
<svg version="1.1" xmlns="http://www.w3.org/2000/svg" width="28" height="28">
<path d="M0,0 L28,0 L28,28 L0,28 Z " fill="#030303" transform="translate(0,0)"/>
<path d="M0,0 L1,3 L-4,8 L-7,13 L-7,16 L-5,17 L-3,13 L-2,12 L3,12 L3,17 L-2,20 L-7,19 L-9,17 L-9,11 L-5,4 Z " fill="#DADADA" transform="translate(18,2)"/>
<path d="M0,0 L1,3 L-4,8 L-8,16 L-9,16 L-8,9 L-5,4 Z " fill="#E3E3E3" transform="translate(18,2)"/>
<path d="M0,0 L1,0 L1,5 L-3,7 L-5,6 L-3,2 L0,2 Z " fill="#6F6F6F" transform="translate(20,14)"/>
</svg>
