<?xml version="1.0" encoding="UTF-8"?>
<svg version="1.1" xmlns="http://www.w3.org/2000/svg" width="28" height="28">
<path d="M0,0 L28,0 L28,28 L0,28 Z " fill="#030303" transform="translate(0,0)"/>
<path d="M0,0 L3,0 L1,4 L-1,15 L1,17 L6,11 L13,12 L13,17 L11,19 L7,20 L0,20 L-3,18 L-3,7 Z " fill="#D5D5D5" transform="translate(11,1)"/>
<path d="M0,0 L7,1 L7,6 L5,6 L5,2 L0,4 L-2,7 L-5,6 Z " fill="#DEDEDE" transform="translate(17,12)"/>
<path d="M0,0 L3,0 L1,4 L-1,14 L-2,14 L-3,7 Z " fill="#B9B9B9" transform="translate(11,1)"/>
<path d="M0,0 L4,0 L4,3 L1,5 L-3,4 Z " fill="#0C0C0C" transform="translate(18,14)"/>
</svg>
