<?xml version="1.0" encoding="UTF-8"?>
<svg version="1.1" xmlns="http://www.w3.org/2000/svg" width="28" height="28">
<path d="M0,0 L28,0 L28,28 L0,28 Z " fill="#020202" transform="translate(0,0)"/>
<path d="M0,0 L4,1 L-1,5 L-2,6 L-2,12 L-1,14 L4,13 L11,12 L12,16 L8,20 L2,20 L-2,18 L-4,14 L-4,5 Z " fill="#C7C7C7" transform="translate(12,2)"/>
<path d="M0,0 L4,1 L-1,5 L-2,6 L-2,12 L-1,16 L1,16 L1,18 L3,19 L-2,18 L-4,14 L-4,5 Z " fill="#DADADA" transform="translate(12,2)"/>
<path d="M0,0 L5,0 L3,4 L-3,4 L-3,2 Z " fill="#0E0E0E" transform="translate(17,16)"/>
</svg>
