<?xml version="1.0" encoding="UTF-8"?>
<svg version="1.1" xmlns="http://www.w3.org/2000/svg" width="28" height="28">
<path d="M0,0 L28,0 L28,28 L0,28 Z " fill="#020202" transform="translate(0,0)"/>
<path d="M0,0 L2,0 L1,10 L8,9 L10,10 L10,17 L6,20 L-1,20 L-3,17 L-3,6 Z " fill="#E9E9E9" transform="translate(12,2)"/>
<path d="M0,0 L7,1 L7,8 L5,10 L1,9 L4,6 L4,4 L-1,4 Z " fill="#EFEFEF" transform="translate(15,11)"/>
<path d="M0,0 L5,1 L3,5 L-2,4 Z " fill="#141414" transform="translate(15,14)"/>
</svg>
