<?xml version="1.0" encoding="UTF-8"?>
<svg version="1.1" xmlns="http://www.w3.org/2000/svg" width="28" height="28">
<path d="M0,0 L28,0 L28,28 L0,28 Z " fill="#020202" transform="translate(0,0)"/>
<path d="M0,0 L2,1 L-2,10 L8,9 L13,12 L12,17 L6,20 L-1,19 L-5,14 L-4,5 Z " fill="#D8D8D8" transform="translate(12,2)"/>
<path d="M0,0 L6,0 L8,2 L8,5 L4,7 L-2,7 L-4,4 L-4,1 Z " fill="#090909" transform="translate(15,13)"/>
<path d="M0,0 L6,0 L7,2 L-2,3 L-4,1 Z " fill="#B9B9B9" transform="translate(14,11)"/>
</svg>
