<?xml version="1.0" encoding="UTF-8"?>
<svg version="1.1" xmlns="http://www.w3.org/2000/svg" width="28" height="28">
<path d="M0,0 L28,0 L28,28 L0,28 Z " fill="#020202" transform="translate(0,0)"/>
<path d="M0,0 L3,0 L2,4 L-4,14 L-5,17 L-2,17 L-1,12 L6,11 L7,12 L7,17 L0,20 L-6,20 L-8,18 L-7,13 L-5,8 L-3,8 L-2,3 Z " fill="#E1E1E1" transform="translate(15,2)"/>
<path d="M0,0 L3,0 L3,2 L-2,6 L-8,6 L-4,4 Z " fill="#7D7D7D" transform="translate(17,16)"/>
<path d="M0,0 L1,4 L0,8 L-3,8 L-2,4 Z " fill="#252525" transform="translate(13,11)"/>
</svg>
