<?xml version="1.0" encoding="UTF-8"?>
<svg version="1.1" xmlns="http://www.w3.org/2000/svg" width="28" height="28">
<path d="M0,0 L28,0 L28,28 L0,28 Z " fill="#030303" transform="translate(0,0)"/>
<path d="M0,0 L2,0 L2,10 L3,11 L8,6 L14,4 L17,7 L16,13 L12,18 L5,18 L0,14 L-1,12 L-1,3 L-3,2 Z " fill="#E6E6E6" transform="translate(8,5)"/>
<path d="M0,0 L2,0 L2,10 L5,11 L5,15 L11,16 L10,18 L3,17 L-1,12 L-1,3 L-3,2 Z " fill="#E3E3E3" transform="translate(8,5)"/>
<path d="M0,0 L5,0 L4,5 L1,8 L-4,8 L-3,3 Z " fill="#0B0B0B" transform="translate(18,12)"/>
<path d="M0,0 L1,4 L-2,7 L-7,5 L-3,3 L-1,3 Z " fill="#BEBEBE" transform="translate(22,16)"/>
<path d="M0,0 L3,1 L0,8 L-2,4 Z " fill="#CCCCCC" transform="translate(14,12)"/>
</svg>
