<?xml version="1.0" encoding="UTF-8"?>
<svg version="1.1" xmlns="http://www.w3.org/2000/svg" width="28" height="28">
<path d="M0,0 L28,0 L28,28 L0,28 Z " fill="#020202" transform="translate(0,0)"/>
<path d="M0,0 L3,0 L1,4 L-3,9 L-6,14 L-6,16 L0,16 L1,14 L-4,14 L-3,11 L3,11 L3,17 L0,20 L-7,20 L-10,17 L-9,11 L-3,3 Z " fill="#E6E6E6" transform="translate(18,3)"/>
<path d="M0,0 L2,1 L1,3 L6,3 L5,6 L-1,6 L-2,3 Z " fill="#191919" transform="translate(13,14)"/>
<path d="M0,0 L6,0 L4,4 L-1,3 Z " fill="#D1D1D1" transform="translate(15,14)"/>
</svg>
