<?xml version="1.0" encoding="UTF-8"?>
<svg version="1.1" xmlns="http://www.w3.org/2000/svg" width="28" height="28">
<path d="M0,0 L28,0 L28,28 L0,28 Z " fill="#030303" transform="translate(0,0)"/>
<path d="M0,0 L3,0 L2,4 L-2,12 L-3,16 L-1,16 L0,13 L4,11 L9,11 L12,14 L11,18 L8,20 L0,20 L-6,18 L-5,9 L-1,3 Z " fill="#DEDEDE" transform="translate(13,1)"/>
<path d="M0,0 L3,0 L2,4 L-2,12 L-3,16 L1,15 L1,18 L5,19 L0,20 L-6,18 L-5,9 L-1,3 Z " fill="#E8E8E8" transform="translate(13,1)"/>
<path d="M0,0 L4,0 L4,4 L-2,4 L-2,1 Z " fill="#1C1C1C" transform="translate(17,15)"/>
</svg>
