<?xml version="1.0" encoding="UTF-8"?>
<svg version="1.1" xmlns="http://www.w3.org/2000/svg" width="28" height="28">
<path d="M0,0 L28,0 L28,28 L0,28 Z " fill="#050505" transform="translate(0,0)"/>
<path d="M0,0 L2,0 L0,5 L-5,13 L-2,11 L4,11 L6,13 L5,18 L-5,20 L-8,17 L-8,11 L-1,1 Z " fill="#E0E0E0" transform="translate(16,2)"/>
<path d="M0,0 L6,0 L8,2 L7,7 L3,8 L3,6 L-2,6 Z " fill="#F3F3F3" transform="translate(14,13)"/>
<path d="M0,0 L2,2 L5,1 L4,4 L8,5 L8,7 L1,8 L-1,5 Z " fill="#F9F9F9" transform="translate(9,14)"/>
<path d="M0,0 L5,1 L4,4 L-3,4 Z " fill="#1A1A1A" transform="translate(15,15)"/>
</svg>
