<?xml version="1.0" encoding="UTF-8"?>
<svg version="1.1" xmlns="http://www.w3.org/2000/svg" width="28" height="28">
<path d="M0,0 L28,0 L28,28 L0,28 Z " fill="#010101" transform="translate(0,0)"/>
<path d="M0,0 L2,0 L0,5 L-2,10 L2,7 L8,7 L7,13 L2,19 L-3,20 L-6,15 L-6,9 Z " fill="#D8D8D8" transform="translate(14,3)"/>
<path d="M0,0 L6,0 L5,6 L2,9 L-3,9 L-2,5 L0,1 Z " fill="#D7D7D7" transform="translate(16,10)"/>
<path d="M0,0 L1,3 L-3,7 L-5,7 L-4,3 Z " fill="#0A0A0A" transform="translate(18,12)"/>
</svg>
