<?xml version="1.0" encoding="UTF-8"?>
<svg version="1.1" xmlns="http://www.w3.org/2000/svg" width="28" height="28">
<path d="M0,0 L28,0 L28,28 L0,28 Z " fill="#020202" transform="translate(0,0)"/>
<path d="M0,0 L2,0 L0,4 L-3,9 L-3,13 L1,10 L6,10 L8,12 L8,17 L5,20 L-3,20 L-6,17 L-6,8 L-2,2 Z " fill="#C9C9C9" transform="translate(15,2)"/>
<path d="M0,0 L2,0 L0,4 L-3,9 L-3,13 L0,11 L1,13 L-1,13 L0,17 L-1,18 L3,20 L-3,20 L-6,17 L-6,8 L-2,2 Z " fill="#ECECEC" transform="translate(15,2)"/>
<path d="M0,0 L5,1 L4,6 L1,6 L1,4 L-2,4 L-2,1 Z " fill="#101010" transform="translate(16,14)"/>
<path d="M0,0 L2,0 L0,4 L-3,9 L-6,10 L-4,4 Z " fill="#D4D4D4" transform="translate(15,2)"/>
</svg>
