<?xml version="1.0" encoding="UTF-8"?>
<svg version="1.1" xmlns="http://www.w3.org/2000/svg" width="28" height="28">
<path d="M0,0 L28,0 L28,28 L0,28 Z " fill="#010101" transform="translate(0,0)"/>
<path d="M0,0 L5,1 L5,3 L-1,4 L-3,8 L-7,13 L-2,14 L-1,18 L-4,20 L-10,20 L-12,19 L-13,14 Z " fill="#DCDCDC" transform="translate(20,3)"/>
<path d="M0,0 L5,2 L5,5 L2,7 L-1,7 L-3,3 Z M-1,4 Z " fill="#C3C3C3" transform="translate(14,16)"/>
<path d="M0,0 L3,4 L0,6 L1,9 L-4,8 L-3,3 Z M1,6 Z " fill="#F4F4F4" transform="translate(12,14)"/>
</svg>
