<?xml version="1.0" encoding="UTF-8"?>
<svg version="1.1" xmlns="http://www.w3.org/2000/svg" width="28" height="28">
<path d="M0,0 L28,0 L28,28 L0,28 Z " fill="#020202" transform="translate(0,0)"/>
<path d="M0,0 L2,0 L1,7 L-1,9 L4,12 L3,17 L-1,20 L-5,19 L-8,16 L-6,10 L-1,5 Z " fill="#C7C7C7" transform="translate(16,2)"/>
<path d="M0,0 L3,1 L1,6 L-3,6 L-4,3 L-3,1 Z " fill="#0A0A0A" transform="translate(15,14)"/>
<path d="M0,0 L2,0 L3,5 L9,4 L6,7 L2,6 L-1,3 Z " fill="#E6E6E6" transform="translate(9,15)"/>
</svg>
