<?xml version="1.0" encoding="UTF-8"?>
<svg version="1.1" xmlns="http://www.w3.org/2000/svg" width="28" height="28">
<path d="M0,0 L28,0 L28,28 L0,28 Z " fill="#020202" transform="translate(0,0)"/>
<path d="M0,0 L4,1 L-2,5 L-5,9 L-6,12 L1,14 L1,19 L-6,20 L-11,15 L-9,10 L-5,4 Z " fill="#C6C6C6" transform="translate(19,3)"/>
<path d="M0,0 L1,3 L3,3 L3,5 L8,5 L8,2 L3,1 L3,0 L9,0 L10,1 L10,6 L3,7 L0,4 Z " fill="#DADADA" transform="translate(10,16)"/>
<path d="M0,0 L4,1 L-2,5 L-6,8 L-5,4 Z " fill="#DDDDDD" transform="translate(19,3)"/>
<path d="M0,0 L6,1 L6,4 L1,4 Z " fill="#0F0F0F" transform="translate(12,17)"/>
</svg>
