<?xml version="1.0" encoding="UTF-8"?>
<svg version="1.1" xmlns="http://www.w3.org/2000/svg" width="28" height="28">
<path d="M0,0 L28,0 L28,28 L0,28 Z " fill="#020202" transform="translate(0,0)"/>
<path d="M0,0 L2,2 L-4,10 L1,13 L0,18 L-3,20 L-8,19 L-9,18 L-9,11 Z " fill="#DCDCDC" transform="translate(19,3)"/>
<path d="M0,0 L5,0 L6,4 L0,5 L-1,1 Z " fill="#080808" transform="translate(12,16)"/>
<path d="M0,0 L5,1 L6,6 L3,8 L2,6 L4,6 L3,3 L-2,2 Z " fill="#C6C6C6" transform="translate(14,14)"/>
</svg>
