<?xml version="1.0" encoding="UTF-8"?>
<svg version="1.1" xmlns="http://www.w3.org/2000/svg" width="28" height="28">
<path d="M0,0 L28,0 L28,28 L0,28 Z " fill="#020202" transform="translate(0,0)"/>
<path d="M0,0 L2,1 L2,3 L-2,7 L-3,14 L5,8 L9,8 L10,13 L4,17 L2,17 L1,20 L-2,19 L-7,12 L-5,6 Z " fill="#AAAAAA" transform="translate(13,3)"/>
<path d="M0,0 L1,2 L4,3 L1,4 L0,7 L-3,6 L-2,2 Z " fill="#E6E6E6" transform="translate(14,16)"/>
<path d="M0,0 L2,1 L2,3 L-3,8 L-5,9 L-4,5 Z " fill="#DFDFDF" transform="translate(13,3)"/>
<path d="M0,0 L4,1 L3,5 L-1,6 L0,4 L2,4 L2,2 L-1,1 Z " fill="#E8E8E8" transform="translate(19,12)"/>
</svg>
