<?xml version="1.0" encoding="UTF-8"?>
<svg version="1.1" xmlns="http://www.w3.org/2000/svg" width="28" height="28">
<path d="M0,0 L28,0 L28,28 L0,28 Z " fill="#010101" transform="translate(0,0)"/>
<path d="M0,0 L3,1 L-3,8 L-4,10 L0,11 L-1,16 L-7,20 L-11,19 L-10,12 L-3,3 Z " fill="#D5D5D5" transform="translate(19,3)"/>
<path d="M0,0 L3,1 L-3,8 L-5,11 L-2,12 L-7,12 L-9,18 L-10,18 L-10,12 L-3,3 Z " fill="#E1E1E1" transform="translate(19,3)"/>
<path d="M0,0 L5,0 L3,4 L-2,5 Z " fill="#1F1F1F" transform="translate(12,15)"/>
</svg>
