<?xml version="1.0" encoding="UTF-8"?>
<svg version="1.1" xmlns="http://www.w3.org/2000/svg" width="28" height="28">
<path d="M0,0 L28,0 L28,28 L0,28 Z " fill="#030303" transform="translate(0,0)"/>
<path d="M0,0 L3,0 L3,2 L-2,6 L-3,9 L2,9 L3,10 L3,19 L-2,20 L-7,15 L-8,12 L-5,4 Z " fill="#EDEDED" transform="translate(16,4)"/>
<path d="M0,0 L2,0 L2,3 L4,3 L4,9 L-1,10 L-5,7 L-3,1 Z " fill="#E2E2E2" transform="translate(15,14)"/>
<path d="M0,0 L2,0 L1,8 L-3,6 L-4,2 Z " fill="#202020" transform="translate(15,14)"/>
</svg>
