<?xml version="1.0" encoding="UTF-8"?>
<svg version="1.1" xmlns="http://www.w3.org/2000/svg" width="28" height="28">
<path d="M0,0 L28,0 L28,28 L0,28 Z " fill="#030303" transform="translate(0,0)"/>
<path d="M0,0 L2,0 L0,7 L-2,11 L0,10 L10,10 L13,13 L12,18 L10,20 L4,20 L-3,14 L-3,6 L-1,1 Z " fill="#DADADA" transform="translate(11,3)"/>
<path d="M0,0 L6,0 L9,2 L8,7 L2,7 L-2,2 Z " fill="#0D0D0D" transform="translate(13,14)"/>
<path d="M0,0 L2,0 L0,7 L-3,8 L-1,1 Z " fill="#D5D5D5" transform="translate(11,3)"/>
</svg>
