<?xml version="1.0" encoding="UTF-8"?>
<svg version="1.1" xmlns="http://www.w3.org/2000/svg" width="28" height="28">
<path d="M0,0 L28,0 L28,28 L0,28 Z " fill="#020202" transform="translate(0,0)"/>
<path d="M0,0 L4,0 L4,2 L-1,5 L-4,8 L1,11 L2,17 L-2,20 L-9,19 L-10,17 L-10,11 L-4,3 Z " fill="#DEDEDE" transform="translate(18,3)"/>
<path d="M0,0 L4,0 L4,2 L-1,5 L-4,8 L-2,10 L-8,10 L-6,5 Z " fill="#D4D4D4" transform="translate(18,3)"/>
<path d="M0,0 L4,1 L4,5 L-2,5 L-3,2 Z " fill="#101010" transform="translate(13,15)"/>
</svg>
