<?xml version="1.0" encoding="UTF-8"?>
<svg version="1.1" xmlns="http://www.w3.org/2000/svg" width="28" height="28">
<path d="M0,0 L28,0 L28,28 L0,28 Z " fill="#010101" transform="translate(0,0)"/>
<path d="M0,0 L1,2 L-1,14 L2,12 L7,13 L8,17 L5,20 L0,19 L-4,15 L-4,7 L-1,1 Z " fill="#E2E2E2" transform="translate(14,2)"/>
<path d="M0,0 L2,4 L0,6 L-4,4 L-3,1 Z " fill="#828282" transform="translate(20,15)"/>
<path d="M0,0 L1,0 L1,6 L3,6 L3,8 L-2,7 L-2,5 L0,5 Z " fill="#BDBDBD" transform="translate(12,10)"/>
</svg>
