<?xml version="1.0" encoding="UTF-8"?>
<svg version="1.1" xmlns="http://www.w3.org/2000/svg" width="28" height="28">
<path d="M0,0 L28,0 L28,28 L0,28 Z " fill="#020202" transform="translate(0,0)"/>
<path d="M0,0 L3,0 L2,3 L-3,8 L-4,12 L2,11 L3,12 L3,17 L-1,20 L-7,20 L-10,18 L-9,11 L-3,2 Z " fill="#E6E6E6" transform="translate(18,3)"/>
<path d="M0,0 L3,0 L2,3 L-3,8 L-5,14 L-9,14 L-8,9 L-2,1 Z " fill="#D6D6D6" transform="translate(18,3)"/>
<path d="M0,0 L3,0 L2,4 L-3,5 L-3,2 Z " fill="#292929" transform="translate(16,16)"/>
</svg>
