<?xml version="1.0" encoding="UTF-8"?>
<svg version="1.1" xmlns="http://www.w3.org/2000/svg" width="28" height="28">
<path d="M0,0 L28,0 L28,28 L0,28 Z " fill="#020202" transform="translate(0,0)"/>
<path d="M0,0 L2,0 L1,5 L-3,11 L-3,14 L3,10 L7,10 L6,17 L1,20 L-8,20 L-7,14 L-3,4 Z " fill="#CDCDCD" transform="translate(15,2)"/>
<path d="M0,0 L4,0 L3,7 L-1,8 L-5,8 L-6,4 Z " fill="#CBCBCB" transform="translate(18,12)"/>
<path d="M0,0 L1,3 L6,2 L6,4 L4,5 L-5,5 L-5,1 Z " fill="#E7E7E7" transform="translate(12,17)"/>
<path d="M0,0 L3,0 L1,4 L-4,5 L-3,2 Z " fill="#1A1A1A" transform="translate(17,15)"/>
</svg>
