<?xml version="1.0" encoding="UTF-8"?>
<svg version="1.1" xmlns="http://www.w3.org/2000/svg" width="28" height="28">
<path d="M0,0 L28,0 L28,28 L0,28 Z " fill="#040404" transform="translate(0,0)"/>
<path d="M0,0 L2,0 L2,4 L-2,8 L-4,11 L-4,16 L-1,17 L0,12 L2,12 L3,8 L6,6 L11,6 L10,13 L5,18 L1,20 L-5,20 L-7,17 L-7,10 L-3,4 Z " fill="#DFDFDF" transform="translate(13,3)"/>
<path d="M0,0 L2,0 L2,4 L-2,8 L-4,11 L-4,16 L3,18 L1,20 L-5,20 L-7,17 L-7,10 L-3,4 Z " fill="#DEDEDE" transform="translate(13,3)"/>
<path d="M0,0 L2,0 L1,4 L-4,9 L-5,6 Z " fill="#191919" transform="translate(20,11)"/>
<path d="M0,0 L3,4 L7,4 L3,7 L-1,5 Z " fill="#C6C6C6" transform="translate(13,15)"/>
</svg>
