<?xml version="1.0" encoding="UTF-8"?>
<svg version="1.1" xmlns="http://www.w3.org/2000/svg" width="28" height="28">
<path d="M0,0 L28,0 L28,28 L0,28 Z " fill="#010101" transform="translate(0,0)"/>
<path d="M0,0 L2,1 L0,3 L-1,7 L-1,15 L1,16 L3,12 L9,12 L11,13 L10,18 L8,20 L-1,19 L-5,14 L-4,5 Z " fill="#DADADA" transform="translate(13,1)"/>
<path d="M0,0 L2,1 L0,3 L-2,17 L-5,14 L-4,5 Z " fill="#CDCDCD" transform="translate(13,1)"/>
<path d="M0,0 L5,1 L4,4 L-1,3 Z " fill="#131313" transform="translate(17,15)"/>
</svg>
