<?xml version="1.0" encoding="UTF-8"?>
<svg version="1.1" xmlns="http://www.w3.org/2000/svg" width="28" height="28">
<path d="M0,0 L28,0 L28,28 L0,28 Z " fill="#010101" transform="translate(0,0)"/>
<path d="M0,0 L2,0 L-1,9 L4,10 L3,16 L-1,20 L-6,19 L-5,10 L-1,1 Z " fill="#C0C0C0" transform="translate(16,3)"/>
<path d="M0,0 L2,0 L3,5 L-1,9 L-6,8 L-6,2 L-4,5 L-2,5 Z " fill="#A9A9A9" transform="translate(16,14)"/>
<path d="M0,0 L4,1 L3,5 L2,2 L0,2 L-2,7 L-4,7 L-5,9 L-5,4 Z " fill="#F1F1F1" transform="translate(16,12)"/>
</svg>
