<?xml version="1.0" encoding="UTF-8"?>
<svg version="1.1" xmlns="http://www.w3.org/2000/svg" width="28" height="28">
<path d="M0,0 L28,0 L28,28 L0,28 Z " fill="#030303" transform="translate(0,0)"/>
<path d="M0,0 L3,1 L0,12 L2,15 L3,10 L8,5 L13,6 L15,8 L14,16 L10,19 L2,20 L-3,16 L-4,7 Z " fill="#ECECEC" transform="translate(10,3)"/>
<path d="M0,0 L5,1 L7,3 L6,11 L1,14 L0,10 L-3,9 L-3,2 Z " fill="#DEDEDE" transform="translate(18,8)"/>
<path d="M0,0 L5,0 L6,5 L2,7 L-2,5 Z " fill="#141414" transform="translate(17,12)"/>
<path d="M0,0 L3,1 L0,9 L-3,9 L-4,7 Z " fill="#D5D5D5" transform="translate(10,3)"/>
</svg>
