<?xml version="1.0" encoding="UTF-8"?>
<svg version="1.1" xmlns="http://www.w3.org/2000/svg" width="28" height="28">
<path d="M0,0 L28,0 L28,28 L0,28 Z " fill="#020202" transform="translate(0,0)"/>
<path d="M0,0 L2,1 L2,3 L-1,5 L-1,14 L1,16 L5,12 L12,11 L13,15 L9,19 L2,20 L-2,18 L-5,13 L-5,7 L-1,1 Z " fill="#E8E8E8" transform="translate(12,2)"/>
<path d="M0,0 L2,1 L2,3 L-1,5 L-1,14 L1,17 L-2,18 L-5,13 L-5,7 L-1,1 Z " fill="#CDCDCD" transform="translate(12,2)"/>
<path d="M0,0 L3,0 L4,4 L0,7 L-5,7 L-3,3 Z " fill="#797979" transform="translate(21,13)"/>
</svg>
