<?xml version="1.0" encoding="UTF-8"?>
<svg version="1.1" xmlns="http://www.w3.org/2000/svg" width="28" height="28">
<path d="M0,0 L28,0 L28,28 L0,28 Z " fill="#020202" transform="translate(0,0)"/>
<path d="M0,0 L2,0 L4,12 L5,14 L9,7 L13,8 L15,10 L15,17 L12,20 L5,19 L1,12 Z " fill="#E2E2E2" transform="translate(7,2)"/>
<path d="M0,0 L3,1 L3,7 L-2,6 L-1,1 Z " fill="#0F0F0F" transform="translate(17,12)"/>
<path d="M0,0 L4,1 L6,3 L5,9 L4,9 L3,4 L-1,3 Z " fill="#CBCBCB" transform="translate(16,9)"/>
</svg>
