<?xml version="1.0" encoding="UTF-8"?>
<svg version="1.1" xmlns="http://www.w3.org/2000/svg" width="28" height="28">
<path d="M0,0 L28,0 L28,28 L0,28 Z " fill="#020202" transform="translate(0,0)"/>
<path d="M0,0 L2,1 L-4,10 L-4,16 L-3,17 L2,11 L6,10 L8,12 L7,17 L4,20 L-4,20 L-7,16 L-6,9 L-2,2 Z " fill="#D3D3D3" transform="translate(15,1)"/>
<path d="M0,0 L4,2 L3,7 L-4,8 L-5,4 Z " fill="#CECECE" transform="translate(19,11)"/>
<path d="M0,0 L5,0 L4,4 L-1,5 Z " fill="#151515" transform="translate(17,14)"/>
</svg>
