<?xml version="1.0" encoding="UTF-8"?>
<svg version="1.1" xmlns="http://www.w3.org/2000/svg" width="28" height="28">
<path d="M0,0 L28,0 L28,28 L0,28 Z " fill="#030303" transform="translate(0,0)"/>
<path d="M0,0 L2,1 L-2,13 L1,11 L5,11 L5,16 L0,19 L-6,20 L-3,5 Z " fill="#989898" transform="translate(15,2)"/>
<path d="M0,0 L4,0 L4,5 L-1,8 L-5,7 L1,4 L-2,4 Z " fill="#E4E4E4" transform="translate(16,13)"/>
<path d="M0,0 L2,1 L-3,14 L-4,14 L-3,5 Z " fill="#EBEBEB" transform="translate(15,2)"/>
</svg>
