<?xml version="1.0" encoding="UTF-8"?>
<svg version="1.1" xmlns="http://www.w3.org/2000/svg" width="28" height="28">
<path d="M0,0 L28,0 L28,28 L0,28 Z " fill="#020202" transform="translate(0,0)"/>
<path d="M0,0 L2,0 L0,4 L-1,9 L3,10 L4,14 L1,19 L-4,20 L-6,15 L-3,4 Z " fill="#E8E8E8" transform="translate(16,2)"/>
<path d="M0,0 L2,0 L0,4 L-1,11 L-4,10 L-3,4 Z " fill="#C2C2C2" transform="translate(16,2)"/>
<path d="M0,0 L3,1 L1,5 L-3,5 L-2,1 Z " fill="#131313" transform="translate(15,14)"/>
<path d="M0,0 L4,1 L5,5 L3,8 Z " fill="#C2C2C2" transform="translate(15,11)"/>
</svg>
