<?xml version="1.0" encoding="UTF-8"?>
<svg version="1.1" xmlns="http://www.w3.org/2000/svg" width="28" height="28">
<path d="M0,0 L28,0 L28,28 L0,28 Z " fill="#030303" transform="translate(0,0)"/>
<path d="M0,0 L3,0 L3,3 L0,3 L0,5 L-2,5 L-4,9 L-5,15 L-4,17 L0,17 L4,11 L7,9 L11,10 L12,14 L9,19 L7,20 L-6,20 L-8,17 L-8,10 L-4,4 Z " fill="#EFEFEF" transform="translate(14,2)"/>
<path d="M0,0 L3,0 L3,3 L0,3 L0,5 L-2,5 L-4,9 L-5,15 L-4,17 L0,19 L-6,20 L-8,17 L-8,10 L-4,4 Z " fill="#E4E4E4" transform="translate(14,2)"/>
<path d="M0,0 L2,0 L1,5 L-1,7 L-5,7 L-3,2 Z " fill="#222222" transform="translate(21,14)"/>
<path d="M0,0 L4,1 L5,5 L2,10 L-1,11 L1,7 L1,2 Z " fill="#C7C7C7" transform="translate(21,11)"/>
<path d="M0,0 L1,3 L8,5 L4,7 L1,6 Z " fill="#BFBFBF" transform="translate(6,15)"/>
</svg>
