<?xml version="1.0" encoding="UTF-8"?>
<svg version="1.1" xmlns="http://www.w3.org/2000/svg" width="28" height="28">
<path d="M0,0 L28,0 L28,28 L0,28 Z " fill="#050505" transform="translate(0,0)"/>
<path d="M0,0 L1,3 L-1,6 L-3,6 L-4,11 L-5,16 L-4,18 L0,19 L1,17 L6,17 L9,14 L10,11 L4,13 L0,15 L2,11 L4,8 L9,7 L11,9 L11,16 L6,20 L-6,20 L-7,19 L-7,9 L-2,1 Z " fill="#DDDDDD" transform="translate(13,3)"/>
<path d="M0,0 L2,0 L0,4 L-3,6 L-6,6 L-6,4 L-1,1 Z " fill="#BCBCBC" transform="translate(22,17)"/>
</svg>
