<?xml version="1.0" encoding="UTF-8"?>
<svg version="1.1" xmlns="http://www.w3.org/2000/svg" width="28" height="28">
<path d="M0,0 L28,0 L28,28 L0,28 Z " fill="#030303" transform="translate(0,0)"/>
<path d="M0,0 L2,0 L1,4 L-7,13 L-8,17 L-3,16 L-1,12 L2,10 L7,11 L8,16 L0,20 L-8,20 L-10,17 L-9,11 L-1,1 Z " fill="#DEDEDE" transform="translate(16,2)"/>
<path d="M0,0 L2,2 L1,6 L-6,9 L-14,9 L-14,8 L-8,7 L-3,1 Z " fill="#C7C7C7" transform="translate(22,13)"/>
<path d="M0,0 L3,1 L3,4 L-4,5 Z " fill="#1D1D1D" transform="translate(19,14)"/>
<path d="M0,0 L2,0 L1,4 L-2,6 L-4,4 Z " fill="#D7D7D7" transform="translate(16,2)"/>
</svg>
