<?xml version="1.0" encoding="UTF-8"?>
<svg version="1.1" xmlns="http://www.w3.org/2000/svg" width="28" height="28">
<path d="M0,0 L28,0 L28,28 L0,28 Z " fill="#040404" transform="translate(0,0)"/>
<path d="M0,0 L2,0 L1,5 L-5,12 L-5,15 L-1,16 L3,8 L9,7 L11,9 L11,17 L4,20 L-4,20 L-7,17 L-7,9 Z " fill="#DCDCDC" transform="translate(13,3)"/>
<path d="M0,0 L5,1 L6,2 L6,10 L1,10 L1,8 L4,6 L4,4 L0,5 L-2,8 L-4,8 L-3,2 Z " fill="#EAEAEA" transform="translate(18,10)"/>
<path d="M0,0 L2,0 L1,5 L-5,12 L-6,17 L-7,17 L-7,9 Z " fill="#E8E8E8" transform="translate(13,3)"/>
<path d="M0,0 L3,1 L1,5 L-5,6 L-2,1 Z " fill="#2C2C2C" transform="translate(20,13)"/>
</svg>
