<?xml version="1.0" encoding="UTF-8"?>
<svg version="1.1" xmlns="http://www.w3.org/2000/svg" width="28" height="28">
<path d="M0,0 L28,0 L28,28 L0,28 Z " fill="#030303" transform="translate(0,0)"/>
<path d="M0,0 L3,0 L3,2 L1,2 L1,4 L-4,9 L-5,15 L0,10 L6,10 L7,11 L7,16 L4,19 L1,20 L-6,20 L-9,17 L-8,8 L-4,3 Z " fill="#E6E6E6" transform="translate(16,2)"/>
<path d="M0,0 L6,0 L7,1 L7,6 L3,9 L-3,8 L-2,1 Z " fill="#DFDFDF" transform="translate(16,12)"/>
<path d="M0,0 L3,1 L1,5 L-5,6 L-3,2 Z " fill="#252525" transform="translate(18,14)"/>
</svg>
