<?xml version="1.0" encoding="UTF-8"?>
<svg version="1.1" xmlns="http://www.w3.org/2000/svg" width="28" height="28">
<path d="M0,0 L28,0 L28,28 L0,28 Z " fill="#010101" transform="translate(0,0)"/>
<path d="M0,0 L3,1 L-3,10 L-5,18 L-3,17 L-3,12 L0,12 L-1,18 L-3,20 L-6,20 L-7,14 L-5,7 Z " fill="#D3D3D3" transform="translate(17,3)"/>
<path d="M0,0 L3,1 L-3,10 L-5,13 L-6,9 Z " fill="#BBBBBB" transform="translate(17,3)"/>
<path d="M0,0 L3,1 L2,5 L1,8 L-1,8 Z " fill="#282828" transform="translate(13,13)"/>
</svg>
