<?xml version="1.0" encoding="UTF-8"?>
<svg version="1.1" xmlns="http://www.w3.org/2000/svg" width="28" height="28">
<path d="M0,0 L28,0 L28,28 L0,28 Z " fill="#030303" transform="translate(0,0)"/>
<path d="M0,0 L2,1 L1,17 L3,17 L5,13 L7,10 L14,9 L14,15 L11,17 L13,19 L10,20 L-1,20 L-2,19 L-2,12 Z " fill="#E3E3E3" transform="translate(9,1)"/>
<path d="M0,0 L4,0 L4,6 L3,7 L-5,7 L-7,8 L-5,4 L-3,1 Z " fill="#E1E1E1" transform="translate(19,10)"/>
<path d="M0,0 L2,1 L1,17 L-2,14 Z " fill="#CDCDCD" transform="translate(9,1)"/>
<path d="M0,0 L2,1 L2,2 L5,3 L1,6 L-4,7 L-2,3 Z " fill="#848484" transform="translate(16,11)"/>
</svg>
