<?xml version="1.0" encoding="UTF-8"?>
<svg version="1.1" xmlns="http://www.w3.org/2000/svg" width="28" height="28">
<path d="M0,0 L28,0 L28,28 L0,28 Z " fill="#030303" transform="translate(0,0)"/>
<path d="M0,0 L1,3 L-3,8 L-4,14 L-2,15 L0,11 L4,7 L8,8 L9,13 L5,17 L-2,17 L-3,20 L-7,15 L-6,8 Z " fill="#AFAFAF" transform="translate(14,3)"/>
<path d="M0,0 L1,3 L-3,8 L-4,14 L2,16 L-2,17 L-3,20 L-7,15 L-6,8 Z " fill="#D8D8D8" transform="translate(14,3)"/>
<path d="M0,0 L3,0 L3,4 L-4,5 L-2,1 Z " fill="#0E0E0E" transform="translate(18,13)"/>
<path d="M0,0 L4,1 L3,4 L-2,5 L-5,7 L-3,2 Z " fill="#DFDFDF" transform="translate(18,10)"/>
</svg>
