<?xml version="1.0" encoding="UTF-8"?>
<svg version="1.1" xmlns="http://www.w3.org/2000/svg" width="28" height="28">
<path d="M0,0 L28,0 L28,28 L0,28 Z " fill="#030303" transform="translate(0,0)"/>
<path d="M0,0 L2,0 L0,4 L-3,9 L-5,12 L-5,16 L0,15 L6,10 L10,11 L9,17 L3,20 L-6,19 L-8,16 L-7,10 Z " fill="#C4C4C4" transform="translate(14,2)"/>
<path d="M0,0 L2,0 L0,4 L-3,9 L-5,12 L-4,17 L-2,19 L-7,18 L-8,13 L-3,4 Z " fill="#D9D9D9" transform="translate(14,2)"/>
<path d="M0,0 L1,3 L-4,6 L-6,6 L-4,2 Z " fill="#101010" transform="translate(21,14)"/>
</svg>
