<?xml version="1.0" encoding="UTF-8"?>
<svg version="1.1" xmlns="http://www.w3.org/2000/svg" width="28" height="28">
<path d="M0,0 L28,0 L28,28 L0,28 Z " fill="#030303" transform="translate(0,0)"/>
<path d="M0,0 L3,1 L-1,6 L-4,13 L1,11 L7,11 L8,15 L4,19 L-3,20 L-5,19 L-6,15 L-4,6 Z " fill="#EBEBEB" transform="translate(15,2)"/>
<path d="M0,0 L3,1 L1,5 L0,6 L-7,6 L-7,3 Z " fill="#121212" transform="translate(18,14)"/>
<path d="M0,0 L6,0 L7,4 L3,8 L-1,9 L-2,7 L3,5 L5,2 L-2,3 L-2,1 Z " fill="#BEBEBE" transform="translate(16,13)"/>
<path d="M0,0 L3,1 L-1,6 L-3,9 L-3,5 Z " fill="#C9C9C9" transform="translate(15,2)"/>
</svg>
