<?xml version="1.0" encoding="UTF-8"?>
<svg version="1.1" xmlns="http://www.w3.org/2000/svg" width="28" height="28">
<path d="M0,0 L28,0 L28,28 L0,28 Z " fill="#020202" transform="translate(0,0)"/>
<path d="M0,0 L4,0 L3,3 L-2,8 L-3,11 L6,11 L5,15 L1,17 L1,19 L-6,20 L-8,17 L-7,9 Z " fill="#B2B2B2" transform="translate(16,3)"/>
<path d="M0,0 L5,0 L4,4 L0,6 L0,8 L-7,9 L-8,5 L0,5 L0,3 L-3,3 L-3,1 Z " fill="#E6E6E6" transform="translate(17,14)"/>
<path d="M0,0 L4,0 L3,3 L-2,8 L-6,10 L-4,5 Z " fill="#E3E3E3" transform="translate(16,3)"/>
</svg>
