<?xml version="1.0" encoding="UTF-8"?>
<svg version="1.1" xmlns="http://www.w3.org/2000/svg" width="28" height="28">
<path d="M0,0 L28,0 L28,28 L0,28 Z " fill="#030303" transform="translate(0,0)"/>
<path d="M0,0 L1,3 L-3,9 L-3,15 L-2,16 L1,11 L7,10 L7,16 L5,20 L-4,20 L-6,18 L-6,11 L-3,4 Z " fill="#D9D9D9" transform="translate(14,1)"/>
<path d="M0,0 L1,3 L-3,9 L-4,17 L-5,17 L-5,7 Z " fill="#E4E4E4" transform="translate(14,1)"/>
<path d="M0,0 L2,0 L1,5 L-4,7 L-3,3 Z " fill="#212121" transform="translate(18,13)"/>
</svg>
