<?xml version="1.0" encoding="UTF-8"?>
<svg version="1.1" xmlns="http://www.w3.org/2000/svg" width="28" height="28">
<path d="M0,0 L28,0 L28,28 L0,28 Z " fill="#030303" transform="translate(0,0)"/>
<path d="M0,0 L2,0 L0,4 L-5,13 L-4,12 L-1,8 L3,8 L3,14 L-2,20 L-8,18 L-7,10 Z " fill="#D8D8D8" transform="translate(17,3)"/>
<path d="M0,0 L2,0 L0,4 L-6,14 L-8,18 L-7,10 Z " fill="#C0C0C0" transform="translate(17,3)"/>
<path d="M0,0 L1,4 L-4,8 L-3,3 Z " fill="#202020" transform="translate(18,12)"/>
</svg>
