<?xml version="1.0" encoding="UTF-8"?>
<svg version="1.1" xmlns="http://www.w3.org/2000/svg" width="28" height="28">
<path d="M0,0 L28,0 L28,28 L0,28 Z " fill="#020202" transform="translate(0,0)"/>
<path d="M0,0 L2,0 L0,5 L-2,8 L-3,17 L0,15 L1,9 L3,9 L4,14 L1,19 L-4,20 L-6,18 L-5,7 Z " fill="#D4D4D4" transform="translate(16,3)"/>
<path d="M0,0 L2,0 L0,5 L-2,8 L-3,17 L-4,17 L-5,7 Z " fill="#C4C4C4" transform="translate(16,3)"/>
<path d="M0,0 L2,0 L3,5 L2,8 L0,8 Z " fill="#EEEEEE" transform="translate(17,12)"/>
</svg>
