<?xml version="1.0" encoding="UTF-8"?>
<svg version="1.1" xmlns="http://www.w3.org/2000/svg" width="28" height="28">
<path d="M0,0 L28,0 L28,28 L0,28 Z " fill="#020202" transform="translate(0,0)"/>
<path d="M0,0 L2,0 L0,4 L-2,8 L-2,15 L4,18 L4,16 L1,16 L1,11 L6,10 L7,11 L7,17 L3,20 L-1,19 L-5,15 L-5,8 L-2,2 Z " fill="#DEDEDE" transform="translate(14,3)"/>
<path d="M0,0 L3,2 L3,6 L-1,6 L-1,1 Z " fill="#878787" transform="translate(16,13)"/>
<path d="M0,0 L1,4 L4,4 L4,6 L-1,5 L-2,1 Z " fill="#2B2B2B" transform="translate(14,15)"/>
</svg>
