<?xml version="1.0" encoding="UTF-8"?>
<svg version="1.1" xmlns="http://www.w3.org/2000/svg" width="28" height="28">
<path d="M0,0 L28,0 L28,28 L0,28 Z " fill="#030303" transform="translate(0,0)"/>
<path d="M0,0 L1,3 L-3,12 L-3,15 L1,10 L8,10 L9,14 L7,17 L-2,19 L-5,20 L-5,17 L-7,17 L-6,11 L-1,1 Z " fill="#E2E2E2" transform="translate(15,2)"/>
<path d="M0,0 L7,0 L8,4 L6,7 L-1,6 L-1,1 Z " fill="#D2D2D2" transform="translate(16,12)"/>
<path d="M0,0 L4,1 L3,4 L-3,5 L-1,1 Z " fill="#222222" transform="translate(18,13)"/>
</svg>
