<?xml version="1.0" encoding="UTF-8"?>
<svg version="1.1" xmlns="http://www.w3.org/2000/svg" width="28" height="28">
<path d="M0,0 L28,0 L28,28 L0,28 Z " fill="#020202" transform="translate(0,0)"/>
<path d="M0,0 L2,1 L2,4 L0,4 L0,14 L6,11 L11,11 L13,13 L12,17 L8,20 L2,20 L-3,14 L-4,8 L-2,2 Z " fill="#E3E3E3" transform="translate(11,2)"/>
<path d="M0,0 L5,0 L7,2 L6,6 L3,8 L-3,6 L-2,1 Z " fill="#D3D3D3" transform="translate(17,13)"/>
<path d="M0,0 L4,1 L1,5 L-4,4 L-3,1 Z " fill="#222222" transform="translate(18,15)"/>
</svg>
