<?xml version="1.0" encoding="UTF-8"?>
<svg version="1.1" xmlns="http://www.w3.org/2000/svg" width="28" height="28">
<path d="M0,0 L28,0 L28,28 L0,28 Z " fill="#040404" transform="translate(0,0)"/>
<path d="M0,0 L2,0 L0,5 L-7,17 L-3,15 L1,11 L8,11 L9,15 L5,19 L2,20 L-6,20 L-9,18 L-8,12 L-1,1 Z " fill="#DFDFDF" transform="translate(15,1)"/>
<path d="M0,0 L5,0 L6,4 L2,8 L-1,9 L-9,9 L-5,5 L-5,7 L3,4 L4,1 Z " fill="#E9E9E9" transform="translate(18,12)"/>
<path d="M0,0 L5,0 L3,4 L-4,5 Z " fill="#111111" transform="translate(17,14)"/>
</svg>
