<?xml version="1.0" encoding="UTF-8"?>
<svg version="1.1" xmlns="http://www.w3.org/2000/svg" width="28" height="28">
<path d="M0,0 L28,0 L28,28 L0,28 Z " fill="#020202" transform="translate(0,0)"/>
<path d="M0,0 L1,4 L-4,11 L1,10 L4,14 L3,18 L-1,20 L-9,20 L-10,17 L-7,9 L-3,4 L-1,4 Z " fill="#EFEFEF" transform="translate(18,2)"/>
<path d="M0,0 L1,4 L-4,10 L-5,14 L-7,13 L-6,8 L-3,4 L-1,4 Z " fill="#CECECE" transform="translate(18,2)"/>
<path d="M0,0 L2,2 L1,6 L-5,7 L-3,3 Z " fill="#1D1D1D" transform="translate(17,13)"/>
<path d="M0,0 L3,1 L5,4 L4,8 L1,9 L-1,7 L1,6 Z " fill="#C0C0C0" transform="translate(17,12)"/>
</svg>
