<?xml version="1.0" encoding="UTF-8"?>
<svg version="1.1" xmlns="http://www.w3.org/2000/svg" width="28" height="28">
<path d="M0,0 L28,0 L28,28 L0,28 Z " fill="#010101" transform="translate(0,0)"/>
<path d="M0,0 L2,0 L1,6 L-1,9 L6,11 L7,15 L1,19 L-8,20 L-9,15 L-1,2 Z " fill="#DBDBDB" transform="translate(16,2)"/>
<path d="M0,0 L1,3 L2,5 L1,7 L6,8 L5,10 L-4,11 L-5,6 L-2,1 Z " fill="#EFEFEF" transform="translate(12,11)"/>
<path d="M0,0 L5,1 L3,5 L-4,6 L-1,1 Z " fill="#121212" transform="translate(16,13)"/>
</svg>
