<?xml version="1.0" encoding="UTF-8"?>
<svg version="1.1" xmlns="http://www.w3.org/2000/svg" width="28" height="28">
<path d="M0,0 L28,0 L28,28 L0,28 Z " fill="#040404" transform="translate(0,0)"/>
<path d="M0,0 L1,0 L0,15 L5,10 L8,7 L12,8 L12,14 L8,19 L-1,20 L-2,19 L-2,6 Z " fill="#DCDCDC" transform="translate(11,2)"/>
<path d="M0,0 L1,4 L-3,9 L-6,8 L-3,3 Z " fill="#0B0B0B" transform="translate(20,11)"/>
<path d="M0,0 L4,1 L3,5 L3,2 L-1,5 L-4,4 Z " fill="#E9E9E9" transform="translate(19,9)"/>
<path d="M0,0 L2,3 L0,7 L-3,10 L-3,7 Z " fill="#B6B6B6" transform="translate(21,11)"/>
</svg>
