<?xml version="1.0" encoding="UTF-8"?>
<svg version="1.1" xmlns="http://www.w3.org/2000/svg" width="28" height="28">
<path d="M0,0 L28,0 L28,28 L0,28 Z " fill="#040404" transform="translate(0,0)"/>
<path d="M0,0 L2,0 L3,14 L4,16 L5,9 L8,6 L13,7 L12,15 L7,20 L3,19 L0,15 Z " fill="#CECECE" transform="translate(9,3)"/>
<path d="M0,0 L2,0 L3,14 L4,16 L6,15 L6,17 L10,15 L8,19 L4,20 L0,15 Z " fill="#EFEFEF" transform="translate(9,3)"/>
<path d="M0,0 L2,0 L1,7 L-2,9 L-2,3 Z " fill="#0F0F0F" transform="translate(18,11)"/>
</svg>
