<?xml version="1.0" encoding="UTF-8"?>
<svg version="1.1" xmlns="http://www.w3.org/2000/svg" width="28" height="28">
<path d="M0,0 L28,0 L28,28 L0,28 Z " fill="#010101" transform="translate(0,0)"/>
<path d="M0,0 L2,1 L-4,11 L-4,14 L-1,11 L3,12 L3,17 L-1,20 L-6,19 L-7,17 L-7,11 L-1,1 Z " fill="#C4C4C4" transform="translate(17,2)"/>
<path d="M0,0 L4,1 L4,6 L0,9 L-5,8 L-6,2 L-5,5 L-3,5 L-3,7 L2,5 L3,2 L-2,3 Z " fill="#DCDCDC" transform="translate(16,13)"/>
<path d="M0,0 L3,0 L2,4 L-3,5 Z " fill="#121212" transform="translate(16,15)"/>
</svg>
