<?xml version="1.0" encoding="UTF-8"?>
<svg version="1.1" xmlns="http://www.w3.org/2000/svg" width="28" height="28">
<path d="M0,0 L28,0 L28,28 L0,28 Z " fill="#030303" transform="translate(0,0)"/>
<path d="M0,0 L5,1 L4,8 L2,8 L3,2 L0,2 L-2,7 L-4,14 L-1,11 L4,12 L3,18 L0,20 L-5,19 L-7,17 L-7,10 L-1,1 Z " fill="#E6E6E6" transform="translate(16,4)"/>
<path d="M0,0 L5,1 L4,8 L2,8 L3,2 L0,2 L-2,7 L-5,13 L-7,13 L-6,8 Z " fill="#DDDDDD" transform="translate(16,4)"/>
<path d="M0,0 L2,0 L1,5 L-4,4 Z " fill="#191919" transform="translate(16,17)"/>
<path d="M0,0 L5,1 L4,7 L2,8 L3,2 L0,1 Z " fill="#C6C6C6" transform="translate(15,15)"/>
<path d="M0,0 L2,0 L1,6 L-2,7 L-1,2 Z " fill="#C1C1C1" transform="translate(11,10)"/>
</svg>
