<?xml version="1.0" encoding="UTF-8"?>
<svg version="1.1" xmlns="http://www.w3.org/2000/svg" width="28" height="28">
<path d="M0,0 L28,0 L28,28 L0,28 Z " fill="#020202" transform="translate(0,0)"/>
<path d="M0,0 L2,0 L1,8 L-2,13 L-1,14 L4,10 L9,11 L8,15 L3,20 L-4,20 L-6,18 L-5,11 L-1,4 Z " fill="#A5A5A5" transform="translate(14,2)"/>
<path d="M0,0 L2,0 L1,8 L-4,17 L-5,17 L-5,11 L-1,4 Z " fill="#E8E8E8" transform="translate(14,2)"/>
<path d="M0,0 L5,1 L4,5 L1,8 L-1,6 L2,3 L-4,6 L-4,3 Z " fill="#E0E0E0" transform="translate(18,12)"/>
</svg>
