<?xml version="1.0" encoding="UTF-8"?>
<svg version="1.1" xmlns="http://www.w3.org/2000/svg" width="28" height="28">
<path d="M0,0 L28,0 L28,28 L0,28 Z " fill="#030303" transform="translate(0,0)"/>
<path d="M0,0 L2,0 L3,3 L-1,7 L-3,15 L-1,15 L0,11 L3,8 L8,7 L10,9 L10,14 L6,18 L5,20 L0,19 L-5,17 L-6,15 L-6,9 Z " fill="#EBEBEB" transform="translate(13,3)"/>
<path d="M0,0 L4,0 L4,5 L0,9 L-2,11 L-2,6 L-4,6 L-3,2 Z " fill="#D0D0D0" transform="translate(19,12)"/>
<path d="M0,0 L1,4 L-4,6 L-3,2 Z " fill="#252525" transform="translate(19,12)"/>
</svg>
