<?xml version="1.0" encoding="UTF-8"?>
<svg version="1.1" xmlns="http://www.w3.org/2000/svg" width="28" height="28">
<path d="M0,0 L28,0 L28,28 L0,28 Z " fill="#060606" transform="translate(0,0)"/>
<path d="M0,0 L2,0 L3,3 L-2,6 L-5,13 L-2,10 L8,9 L8,15 L3,20 L-4,20 L-6,19 L-7,10 L-3,3 Z " fill="#E2E2E2" transform="translate(15,2)"/>
<path d="M0,0 L2,0 L3,3 L-2,6 L-5,13 L-3,14 L-7,14 L-6,7 Z " fill="#EBEBEB" transform="translate(15,2)"/>
<path d="M0,0 L4,0 L4,6 L2,6 L2,3 L-5,4 L-5,2 Z " fill="#F5F5F5" transform="translate(19,11)"/>
<path d="M0,0 L3,0 L2,4 L-2,4 L-2,1 Z " fill="#171717" transform="translate(17,14)"/>
</svg>
