<?xml version="1.0" encoding="UTF-8"?>
<svg version="1.1" xmlns="http://www.w3.org/2000/svg" width="28" height="28">
<path d="M0,0 L28,0 L28,28 L0,28 Z " fill="#030303" transform="translate(0,0)"/>
<path d="M0,0 L2,0 L1,16 L7,11 L13,10 L14,16 L13,19 L6,20 L0,18 L-2,14 L-1,7 Z " fill="#999999" transform="translate(9,1)"/>
<path d="M0,0 L3,0 L4,6 L3,9 L-4,10 L-4,8 L1,6 L2,4 L-6,5 L-5,2 Z " fill="#EAEAEA" transform="translate(19,11)"/>
<path d="M0,0 L2,0 L1,16 L-1,17 L-2,9 Z " fill="#CBCBCB" transform="translate(9,1)"/>
</svg>
