<?xml version="1.0" encoding="UTF-8"?>
<svg version="1.1" xmlns="http://www.w3.org/2000/svg" width="28" height="28">
<path d="M0,0 L28,0 L28,28 L0,28 Z " fill="#020202" transform="translate(0,0)"/>
<path d="M0,0 L2,0 L2,14 L5,9 L11,8 L12,10 L12,17 L8,20 L1,20 L-3,16 L-3,9 Z " fill="#EAEAEA" transform="translate(10,2)"/>
<path d="M0,0 L4,0 L5,5 L2,6 L2,8 L-1,9 L-2,5 L-4,6 L-2,1 Z " fill="#A5A5A5" transform="translate(17,10)"/>
<path d="M0,0 L2,0 L1,16 L0,16 L-1,9 L-2,5 Z " fill="#C7C7C7" transform="translate(10,2)"/>
</svg>
