<?xml version="1.0" encoding="UTF-8"?>
<svg version="1.1" xmlns="http://www.w3.org/2000/svg" width="28" height="28">
<path d="M0,0 L28,0 L28,28 L0,28 Z " fill="#030303" transform="translate(0,0)"/>
<path d="M0,0 L4,0 L3,3 L-2,6 L-4,9 L3,10 L4,11 L4,16 L2,16 L1,19 L-5,20 L-9,19 L-10,17 L-10,11 L-4,3 Z " fill="#E5E5E5" transform="translate(18,3)"/>
<path d="M0,0 L4,0 L3,3 L-2,6 L-4,9 L-2,11 L-8,10 L-6,5 Z " fill="#E5E5E5" transform="translate(18,3)"/>
<path d="M0,0 L4,1 L2,5 L-5,5 L-4,2 L-2,2 Z " fill="#212121" transform="translate(16,15)"/>
</svg>
