<?xml version="1.0" encoding="UTF-8"?>
<svg version="1.1" xmlns="http://www.w3.org/2000/svg" width="28" height="28">
<path d="M0,0 L28,0 L28,28 L0,28 Z " fill="#040404" transform="translate(0,0)"/>
<path d="M0,0 L3,0 L2,4 L-3,10 L-2,14 L3,16 L9,17 L8,14 L5,13 L4,15 L-1,14 L0,10 L9,10 L12,13 L12,19 L11,20 L2,20 L-5,16 L-6,14 L-6,7 Z " fill="#EBEBEB" transform="translate(12,2)"/>
<path d="M0,0 L5,2 L5,5 L-5,4 L-3,2 L0,3 Z " fill="#333333" transform="translate(16,14)"/>
<path d="M0,0 L4,1 L6,5 L4,5 L3,7 L2,4 L-1,2 Z " fill="#D6D6D6" transform="translate(18,12)"/>
</svg>
