<?xml version="1.0" encoding="UTF-8"?>
<svg version="1.1" xmlns="http://www.w3.org/2000/svg" width="28" height="28">
<path d="M0,0 L28,0 L28,28 L0,28 Z " fill="#040404" transform="translate(0,0)"/>
<path d="M0,0 L2,0 L0,4 L-2,7 L-2,12 L2,7 L9,7 L11,9 L11,15 L6,17 L5,20 L-4,15 L-6,10 L-3,3 Z " fill="#ECECEC" transform="translate(12,3)"/>
<path d="M0,0 L6,0 L7,3 L6,4 L0,4 Z " fill="#282828" transform="translate(14,13)"/>
<path d="M0,0 L2,0 L0,4 L-3,7 L-3,3 Z " fill="#D6D6D6" transform="translate(12,3)"/>
</svg>
