<?xml version="1.0" encoding="UTF-8"?>
<svg version="1.1" xmlns="http://www.w3.org/2000/svg" width="28" height="28">
<path d="M0,0 L28,0 L28,28 L0,28 Z " fill="#010101" transform="translate(0,0)"/>
<path d="M0,0 L2,0 L2,14 L7,9 L11,10 L10,16 L6,18 L6,20 L3,20 L3,17 L0,17 L-1,15 Z " fill="#C4C4C4" transform="translate(10,2)"/>
<path d="M0,0 L4,1 L4,5 L-2,7 L-3,3 Z " fill="#858585" transform="translate(17,11)"/>
<path d="M0,0 L1,3 L6,1 L4,5 L2,5 L2,7 L-1,7 L-1,4 L-3,3 L0,3 Z " fill="#E7E7E7" transform="translate(14,15)"/>
</svg>
