<?xml version="1.0" encoding="UTF-8"?>
<svg version="1.1" xmlns="http://www.w3.org/2000/svg" width="28" height="28">
<path d="M0,0 L28,0 L28,28 L0,28 Z " fill="#020202" transform="translate(0,0)"/>
<path d="M0,0 L1,0 L0,8 L-1,13 L6,12 L8,14 L7,19 L5,20 L-3,20 L-4,11 L-1,1 Z " fill="#DFDFDF" transform="translate(14,2)"/>
<path d="M0,0 L1,0 L0,8 L-2,14 L-3,14 L-2,3 Z " fill="#EAEAEA" transform="translate(14,2)"/>
<path d="M0,0 L4,1 L3,3 L5,4 L1,5 L1,3 L-1,3 Z " fill="#717171" transform="translate(16,17)"/>
</svg>
