<?xml version="1.0" encoding="UTF-8"?>
<svg version="1.1" xmlns="http://www.w3.org/2000/svg" width="28" height="28">
<path d="M0,0 L28,0 L28,28 L0,28 Z " fill="#030303" transform="translate(0,0)"/>
<path d="M0,0 L2,0 L0,5 L-5,15 L-5,17 L-2,18 L0,13 L3,9 L8,9 L7,14 L2,18 L-1,20 L-6,20 L-8,18 L-6,9 Z " fill="#E0E0E0" transform="translate(15,2)"/>
<path d="M0,0 L5,0 L4,5 L0,8 L-3,6 L-1,2 Z " fill="#DDDDDD" transform="translate(18,11)"/>
<path d="M0,0 L3,1 L1,5 L-1,6 L-3,4 Z " fill="#939393" transform="translate(19,13)"/>
</svg>
