<?xml version="1.0" encoding="UTF-8"?>
<svg version="1.1" xmlns="http://www.w3.org/2000/svg" width="28" height="28">
<path d="M0,0 L28,0 L28,28 L0,28 Z " fill="#040404" transform="translate(0,0)"/>
<path d="M0,0 L2,0 L0,5 L-5,13 L-7,18 L0,17 L1,10 L5,6 L8,6 L9,11 L5,16 L7,18 L-3,20 L-8,20 L-9,15 L-3,4 Z " fill="#D6D6D6" transform="translate(14,2)"/>
<path d="M0,0 L2,0 L0,5 L-5,13 L-7,18 L-2,18 L-3,20 L-8,20 L-9,15 L-3,4 Z " fill="#EAEAEA" transform="translate(14,2)"/>
<path d="M0,0 L3,0 L4,5 L-2,8 L-1,1 Z " fill="#858585" transform="translate(19,8)"/>
<path d="M0,0 L2,0 L0,5 L-4,10 L-4,6 Z " fill="#D3D3D3" transform="translate(14,2)"/>
</svg>
