<?xml version="1.0" encoding="UTF-8"?>
<svg version="1.1" xmlns="http://www.w3.org/2000/svg" width="28" height="28">
<path d="M0,0 L28,0 L28,28 L0,28 Z " fill="#010101" transform="translate(0,0)"/>
<path d="M0,0 L3,1 L0,4 L-1,12 L2,9 L7,9 L8,10 L8,15 L2,20 L-2,19 L-4,16 L-4,9 L-1,1 Z " fill="#C8C8C8" transform="translate(14,2)"/>
<path d="M0,0 L3,0 L2,5 L-3,7 L-3,2 Z " fill="#0F0F0F" transform="translate(17,13)"/>
<path d="M0,0 L5,0 L6,1 L6,6 L3,7 L4,2 L-3,4 Z " fill="#B9B9B9" transform="translate(16,11)"/>
<path d="M0,0 L1,0 L1,5 L7,3 L3,7 L-1,6 L-2,1 Z " fill="#E1E1E1" transform="translate(13,15)"/>
</svg>
