<?xml version="1.0" encoding="UTF-8"?>
<svg version="1.1" xmlns="http://www.w3.org/2000/svg" width="28" height="28">
<path d="M0,0 L28,0 L28,28 L0,28 Z " fill="#020202" transform="translate(0,0)"/>
<path d="M0,0 L4,0 L4,6 L-1,11 L-7,11 L-6,6 L-2,1 Z " fill="#C9C9C9" transform="translate(20,11)"/>
<path d="M0,0 L2,0 L0,4 L-4,10 L-5,18 L-3,20 L-8,19 L-8,10 Z " fill="#CBCBCB" transform="translate(14,2)"/>
<path d="M0,0 L2,0 L1,5 L-2,8 L-4,8 L-3,4 Z " fill="#101010" transform="translate(20,13)"/>
<path d="M0,0 L2,0 L2,4 L7,2 L5,5 L-1,5 Z " fill="#E8E8E8" transform="translate(14,17)"/>
<path d="M0,0 L2,0 L0,4 L-4,8 L-3,3 Z " fill="#E3E3E3" transform="translate(14,2)"/>
</svg>
