<?xml version="1.0" encoding="UTF-8"?>
<svg version="1.1" xmlns="http://www.w3.org/2000/svg" width="28" height="28">
<path d="M0,0 L28,0 L28,28 L0,28 Z " fill="#030303" transform="translate(0,0)"/>
<path d="M0,0 L3,0 L1,4 L-5,12 L-5,16 L2,8 L7,7 L9,8 L8,15 L1,20 L-6,20 L-9,17 L-8,11 L-2,2 Z " fill="#DFDFDF" transform="translate(15,3)"/>
<path d="M0,0 L3,0 L1,4 L-5,12 L-6,16 L-9,17 L-8,11 L-2,2 Z " fill="#DFDFDF" transform="translate(15,3)"/>
<path d="M0,0 L2,0 L1,5 L-2,8 L-7,9 L-6,5 Z " fill="#1D1D1D" transform="translate(20,12)"/>
</svg>
