<?xml version="1.0" encoding="UTF-8"?>
<svg version="1.1" xmlns="http://www.w3.org/2000/svg" width="28" height="28">
<path d="M0,0 L28,0 L28,28 L0,28 Z " fill="#030303" transform="translate(0,0)"/>
<path d="M0,0 L2,0 L0,4 L-3,11 L-3,14 L2,11 L6,12 L7,16 L3,20 L-3,19 L-5,17 L-5,8 L-2,2 L0,2 Z " fill="#E7E7E7" transform="translate(15,2)"/>
<path d="M0,0 L2,0 L2,2 L4,3 L0,7 L-6,6 L-2,1 Z " fill="#CECECE" transform="translate(18,15)"/>
<path d="M0,0 L2,0 L0,4 L-3,11 L-5,10 L-3,3 L0,2 Z " fill="#CBCBCB" transform="translate(15,2)"/>
<path d="M0,0 L2,0 L2,4 L-4,5 L-2,1 Z " fill="#151515" transform="translate(18,15)"/>
</svg>
