<?xml version="1.0" encoding="UTF-8"?>
<svg version="1.1" xmlns="http://www.w3.org/2000/svg" width="28" height="28">
<path d="M0,0 L28,0 L28,28 L0,28 Z " fill="#010101" transform="translate(0,0)"/>
<path d="M0,0 L2,0 L2,3 L0,3 L-2,8 L-2,16 L0,17 L1,11 L3,9 L6,9 L7,16 L4,20 L-3,19 L-5,17 L-5,8 Z " fill="#D0D0D0" transform="translate(14,2)"/>
<path d="M0,0 L2,0 L2,3 L0,3 L-2,8 L-2,16 L0,18 L-3,19 L-5,17 L-5,8 Z " fill="#CECECE" transform="translate(14,2)"/>
<path d="M0,0 L3,0 L2,5 L-1,6 Z " fill="#181818" transform="translate(17,13)"/>
</svg>
