<?xml version="1.0" encoding="UTF-8"?>
<svg version="1.1" xmlns="http://www.w3.org/2000/svg" width="28" height="28">
<path d="M0,0 L28,0 L28,28 L0,28 Z " fill="#030303" transform="translate(0,0)"/>
<path d="M0,0 L5,0 L5,2 L-2,5 L-6,13 L-1,9 L6,8 L8,10 L8,17 L5,20 L-3,20 L-8,15 L-8,7 L-4,2 Z " fill="#E3E3E3" transform="translate(15,3)"/>
<path d="M0,0 L5,0 L5,2 L-2,5 L-5,11 L-7,11 L-8,15 L-8,7 L-4,2 Z " fill="#DEDEDE" transform="translate(15,3)"/>
<path d="M0,0 L5,1 L4,6 L-1,7 L-4,5 L-4,3 L-2,3 L-2,1 Z " fill="#0F0F0F" transform="translate(16,14)"/>
</svg>
