<?xml version="1.0" encoding="UTF-8"?>
<svg version="1.1" xmlns="http://www.w3.org/2000/svg" width="28" height="28">
<path d="M0,0 L28,0 L28,28 L0,28 Z " fill="#020202" transform="translate(0,0)"/>
<path d="M0,0 L4,1 L1,3 L-3,4 L-6,13 L-4,12 L5,12 L6,16 L0,20 L-8,19 L-9,13 L-6,5 L-2,1 Z " fill="#DBDBDB" transform="translate(17,2)"/>
<path d="M0,0 L4,1 L1,3 L-3,4 L-5,10 L-7,9 L-5,4 L-2,1 Z " fill="#D6D6D6" transform="translate(17,2)"/>
<path d="M0,0 L4,1 L3,5 L-2,8 L-6,8 L-6,6 L1,4 L2,2 L0,2 Z " fill="#E3E3E3" transform="translate(19,14)"/>
<path d="M0,0 L6,0 L5,3 L-2,4 L-3,1 Z " fill="#181818" transform="translate(15,16)"/>
</svg>
