<?xml version="1.0" encoding="UTF-8"?>
<svg version="1.1" xmlns="http://www.w3.org/2000/svg" width="28" height="28">
<path d="M0,0 L28,0 L28,28 L0,28 Z " fill="#030303" transform="translate(0,0)"/>
<path d="M0,0 L2,0 L2,7 L1,9 L1,16 L3,17 L5,8 L6,7 L11,7 L12,8 L11,15 L7,19 L1,20 L-2,15 L-1,7 Z " fill="#D3D3D3" transform="translate(10,3)"/>
<path d="M0,0 L5,0 L5,2 L0,6 L-2,8 L-1,1 Z " fill="#E4E4E4" transform="translate(16,10)"/>
<path d="M0,0 L1,0 L1,5 L-2,8 L-4,8 L-3,3 Z " fill="#181818" transform="translate(19,12)"/>
</svg>
