<?xml version="1.0" encoding="UTF-8"?>
<svg version="1.1" xmlns="http://www.w3.org/2000/svg" width="28" height="28">
<path d="M0,0 L28,0 L28,28 L0,28 Z " fill="#010101" transform="translate(0,0)"/>
<path d="M0,0 L4,1 L2,5 L7,7 L8,12 L5,18 L3,18 L3,20 L-2,20 L-5,18 L-6,14 L-2,4 Z " fill="#E1E1E1" transform="translate(14,4)"/>
<path d="M0,0 L4,1 L3,7 L0,10 L-4,9 L-3,3 L-1,3 Z " fill="#0F0F0F" transform="translate(15,12)"/>
<path d="M0,0 L2,2 L1,6 L-1,6 L-1,8 L-3,7 L-1,3 Z " fill="#C0C0C0" transform="translate(18,16)"/>
</svg>
