<?xml version="1.0" encoding="UTF-8"?>
<svg version="1.1" xmlns="http://www.w3.org/2000/svg" width="28" height="28">
<path d="M0,0 L28,0 L28,28 L0,28 Z " fill="#040404" transform="translate(0,0)"/>
<path d="M0,0 L3,1 L2,8 L-1,12 L-3,12 L-4,16 L3,11 L8,11 L7,16 L1,20 L-6,18 L-5,11 L-2,7 L0,7 Z " fill="#E6E6E6" transform="translate(14,2)"/>
<path d="M0,0 L3,1 L2,8 L-1,12 L-5,11 L-2,7 L0,7 Z " fill="#CACACA" transform="translate(14,2)"/>
<path d="M0,0 L2,0 L3,3 L-3,7 L-6,4 L-3,3 L-3,1 Z " fill="#919191" transform="translate(18,15)"/>
<path d="M0,0 L3,1 L2,8 L0,8 Z " fill="#EEEEEE" transform="translate(14,2)"/>
</svg>
