<?xml version="1.0" encoding="UTF-8"?>
<svg version="1.1" xmlns="http://www.w3.org/2000/svg" width="28" height="28">
<path d="M0,0 L28,0 L28,28 L0,28 Z " fill="#040404" transform="translate(0,0)"/>
<path d="M0,0 L2,0 L1,4 L-4,9 L-5,12 L-1,11 L5,11 L5,16 L0,20 L-7,20 L-9,18 L-9,11 L-3,3 Z " fill="#EAEAEA" transform="translate(17,2)"/>
<path d="M0,0 L6,0 L6,5 L3,8 L1,8 L1,6 L-5,6 L-5,2 Z " fill="#EDEDED" transform="translate(16,13)"/>
<path d="M0,0 L4,0 L5,4 L1,6 L1,4 L-2,3 Z " fill="#828282" transform="translate(16,15)"/>
</svg>
