<?xml version="1.0" encoding="UTF-8"?>
<svg version="1.1" xmlns="http://www.w3.org/2000/svg" width="28" height="28">
<path d="M0,0 L28,0 L28,28 L0,28 Z " fill="#030303" transform="translate(0,0)"/>
<path d="M0,0 L1,3 L-3,9 L-3,11 L3,11 L5,12 L5,17 L1,20 L-5,19 L-7,17 L-7,10 Z " fill="#E5E5E5" transform="translate(16,2)"/>
<path d="M0,0 L6,0 L8,1 L8,6 L5,8 L-1,6 L-2,3 L2,2 Z " fill="#CCCCCC" transform="translate(13,13)"/>
<path d="M0,0 L2,0 L2,2 L4,2 L4,4 L-3,4 L-4,1 Z " fill="#111111" transform="translate(15,15)"/>
</svg>
