<?xml version="1.0" encoding="UTF-8"?>
<svg version="1.1" xmlns="http://www.w3.org/2000/svg" width="28" height="28">
<path d="M0,0 L28,0 L28,28 L0,28 Z " fill="#020202" transform="translate(0,0)"/>
<path d="M0,0 L4,0 L4,2 L1,2 L-4,11 L-1,12 L-1,18 L-3,20 L-7,19 L-8,15 L-4,6 Z " fill="#CECECE" transform="translate(18,3)"/>
<path d="M0,0 L3,0 L3,6 L1,8 L-3,7 L-4,3 L-1,2 L-1,6 L1,6 L2,1 Z " fill="#E8E8E8" transform="translate(14,15)"/>
<path d="M0,0 L2,0 L2,3 L4,4 L3,9 L1,9 L1,5 L-1,5 Z " fill="#838383" transform="translate(12,12)"/>
</svg>
