<?xml version="1.0" encoding="UTF-8"?>
<svg version="1.1" xmlns="http://www.w3.org/2000/svg" width="28" height="28">
<path d="M0,0 L28,0 L28,28 L0,28 Z " fill="#020202" transform="translate(0,0)"/>
<path d="M0,0 L3,0 L3,3 L-2,6 L-3,8 L1,10 L0,18 L-3,20 L-8,20 L-10,18 L-10,10 L-2,1 Z " fill="#E3E3E3" transform="translate(18,3)"/>
<path d="M0,0 L3,0 L3,3 L-4,6 L-7,6 Z " fill="#D8D8D8" transform="translate(18,3)"/>
<path d="M0,0 L4,0 L3,5 L0,6 Z " fill="#0C0C0C" transform="translate(12,14)"/>
</svg>
