<?xml version="1.0" encoding="UTF-8"?>
<svg version="1.1" xmlns="http://www.w3.org/2000/svg" width="28" height="28">
<path d="M0,0 L28,0 L28,28 L0,28 Z " fill="#030303" transform="translate(0,0)"/>
<path d="M0,0 L3,0 L3,3 L-1,7 L-3,12 L-1,11 L6,11 L8,12 L8,18 L5,20 L-3,20 L-6,16 L-7,12 L-4,3 Z " fill="#ECECEC" transform="translate(15,3)"/>
<path d="M0,0 L2,0 L2,6 L-2,8 L-2,6 L-8,6 L-7,2 Z " fill="#D4D4D4" transform="translate(21,15)"/>
<path d="M0,0 L6,0 L4,4 L-1,4 Z " fill="#0B0B0B" transform="translate(14,17)"/>
</svg>
