<?xml version="1.0" encoding="UTF-8"?>
<svg version="1.1" xmlns="http://www.w3.org/2000/svg" width="28" height="28">
<path d="M0,0 L28,0 L28,28 L0,28 Z " fill="#020202" transform="translate(0,0)"/>
<path d="M0,0 L2,0 L1,4 L-1,8 L-1,15 L5,10 L10,10 L9,15 L4,18 L-2,20 L-5,15 L-5,8 Z " fill="#BCBCBC" transform="translate(13,3)"/>
<path d="M0,0 L5,0 L4,5 L1,7 L-3,6 L-4,3 Z " fill="#ADADAD" transform="translate(18,13)"/>
<path d="M0,0 L2,0 L2,2 L6,3 L-2,6 L-3,2 Z " fill="#EFEFEF" transform="translate(13,17)"/>
<path d="M0,0 L2,0 L1,4 L-2,9 L-3,5 Z " fill="#DEDEDE" transform="translate(13,3)"/>
</svg>
