<?xml version="1.0" encoding="UTF-8"?>
<svg version="1.1" xmlns="http://www.w3.org/2000/svg" width="28" height="28">
<path d="M0,0 L28,0 L28,28 L0,28 Z " fill="#020202" transform="translate(0,0)"/>
<path d="M0,0 L2,0 L2,3 L-3,8 L-5,17 L-3,17 L-2,11 L0,9 L5,9 L6,10 L6,15 L2,19 L-5,20 L-8,17 L-8,9 L-3,2 Z " fill="#D2D2D2" transform="translate(16,3)"/>
<path d="M0,0 L5,0 L6,1 L6,6 L3,6 L1,8 L-2,8 L-3,4 Z " fill="#D4D4D4" transform="translate(16,12)"/>
<path d="M0,0 L4,4 L5,2 L5,4 L10,1 L12,0 L11,4 L6,7 L1,6 L0,5 Z " fill="#EDEDED" transform="translate(9,16)"/>
<path d="M0,0 L3,1 L1,5 L-2,6 L-1,2 Z " fill="#151515" transform="translate(17,14)"/>
</svg>
