<?xml version="1.0" encoding="UTF-8"?>
<svg version="1.1" xmlns="http://www.w3.org/2000/svg" width="28" height="28">
<path d="M0,0 L28,0 L28,28 L0,28 Z " fill="#040404" transform="translate(0,0)"/>
<path d="M0,0 L3,0 L2,6 L-3,13 L-2,14 L3,11 L9,11 L10,15 L3,19 L-2,20 L-6,17 L-5,10 Z " fill="#F0F0F0" transform="translate(13,2)"/>
<path d="M0,0 L6,0 L7,4 L3,7 L-4,6 L-3,1 Z " fill="#E6E6E6" transform="translate(16,13)"/>
<path d="M0,0 L3,0 L2,6 L-2,11 L-5,12 L-3,7 Z " fill="#D1D1D1" transform="translate(13,2)"/>
<path d="M0,0 L4,0 L4,2 L0,4 L-4,3 Z " fill="#333333" transform="translate(16,15)"/>
</svg>
