<?xml version="1.0" encoding="UTF-8"?>
<svg version="1.1" xmlns="http://www.w3.org/2000/svg" width="28" height="28">
<path d="M0,0 L28,0 L28,28 L0,28 Z " fill="#020202" transform="translate(0,0)"/>
<path d="M0,0 L1,3 L-5,10 L-5,15 L-1,13 L12,13 L11,16 L7,18 L-5,18 L-8,13 L-6,6 Z " fill="#CBCBCB" transform="translate(14,2)"/>
<path d="M0,0 L13,0 L12,3 L8,5 L2,4 Z " fill="#3C3C3C" transform="translate(13,15)"/>
<path d="M0,0 L9,0 L8,3 L3,4 L5,2 L0,1 Z " fill="#E7E7E7" transform="translate(17,15)"/>
</svg>
