<?xml version="1.0" encoding="UTF-8"?>
<svg version="1.1" xmlns="http://www.w3.org/2000/svg" width="28" height="28">
<path d="M0,0 L28,0 L28,28 L0,28 Z " fill="#030303" transform="translate(0,0)"/>
<path d="M0,0 L2,0 L0,6 L-4,11 L-5,17 L2,17 L4,15 L1,12 L7,13 L6,18 L3,20 L-6,20 L-8,18 L-8,13 L-1,1 Z " fill="#DFDFDF" transform="translate(15,1)"/>
<path d="M0,0 L5,2 L5,5 L3,6 L-4,6 L-1,1 Z " fill="#939393" transform="translate(14,13)"/>
<path d="M0,0 L5,0 L5,3 L-1,3 Z " fill="#0D0D0D" transform="translate(14,15)"/>
</svg>
