<?xml version="1.0" encoding="UTF-8"?>
<svg version="1.1" xmlns="http://www.w3.org/2000/svg" width="28" height="28">
<path d="M0,0 L28,0 L28,28 L0,28 Z " fill="#030303" transform="translate(0,0)"/>
<path d="M0,0 L5,0 L3,5 L1,5 L-1,9 L-3,15 L1,11 L7,10 L8,11 L8,17 L6,18 L0,18 L0,20 L-5,18 L-7,17 L-6,12 L0,4 Z " fill="#D8D8D8" transform="translate(14,2)"/>
<path d="M0,0 L5,0 L3,5 L1,5 L-1,9 L-3,15 L-2,17 L-5,18 L-7,17 L-6,12 L0,4 Z " fill="#CECECE" transform="translate(14,2)"/>
<path d="M0,0 L3,1 L3,7 L-4,8 L0,5 L0,3 L-2,1 Z " fill="#EDEDED" transform="translate(19,12)"/>
<path d="M0,0 L2,1 L1,4 L-5,4 L-2,1 Z " fill="#111111" transform="translate(18,14)"/>
</svg>
