<?xml version="1.0" encoding="UTF-8"?>
<svg version="1.1" xmlns="http://www.w3.org/2000/svg" width="28" height="28">
<path d="M0,0 L28,0 L28,28 L0,28 Z " fill="#030303" transform="translate(0,0)"/>
<path d="M0,0 L2,1 L1,3 L1,9 L4,6 L11,5 L14,9 L13,15 L8,19 L1,20 L-3,11 L-2,2 Z " fill="#D4D4D4" transform="translate(10,3)"/>
<path d="M0,0 L5,1 L6,6 L2,10 L-3,10 L-4,9 L-4,4 Z " fill="#080808" transform="translate(16,10)"/>
<path d="M0,0 L3,0 L3,6 L8,7 L6,9 L2,8 L0,3 Z " fill="#EFEFEF" transform="translate(8,14)"/>
</svg>
