<?xml version="1.0" encoding="UTF-8"?>
<svg version="1.1" xmlns="http://www.w3.org/2000/svg" width="28" height="28">
<path d="M0,0 L28,0 L28,28 L0,28 Z " fill="#030303" transform="translate(0,0)"/>
<path d="M0,0 L2,0 L1,4 L-4,8 L-6,14 L-4,15 L-3,11 L0,9 L9,9 L11,13 L6,16 L1,18 L-5,18 L-9,16 L-9,10 L-2,2 Z " fill="#D2D2D2" transform="translate(15,3)"/>
<path d="M0,0 L4,1 L5,4 L0,7 L-7,6 L-6,3 Z " fill="#DEDEDE" transform="translate(21,12)"/>
<path d="M0,0 L6,0 L2,3 L-1,6 L4,6 L2,8 L-4,8 L-2,3 Z " fill="#F5F5F5" transform="translate(15,12)"/>
<path d="M0,0 L5,0 L2,3 L-3,4 L-2,1 Z " fill="#242424" transform="translate(17,14)"/>
</svg>
