<?xml version="1.0" encoding="UTF-8"?>
<svg version="1.1" xmlns="http://www.w3.org/2000/svg" width="28" height="28">
<path d="M0,0 L28,0 L28,28 L0,28 Z " fill="#020202" transform="translate(0,0)"/>
<path d="M0,0 L4,1 L1,3 L-1,3 L-3,9 L-5,13 L-1,11 L3,12 L2,17 L-3,20 L-8,19 L-8,12 L-2,2 Z " fill="#C8C8C8" transform="translate(17,3)"/>
<path d="M0,0 L3,0 L2,5 L-3,8 L-7,7 L-6,4 L-6,6 L-1,4 Z " fill="#DDDDDD" transform="translate(17,15)"/>
<path d="M0,0 L3,0 L1,4 L-4,5 L-3,2 L-1,3 Z " fill="#111111" transform="translate(15,16)"/>
</svg>
