<?xml version="1.0" encoding="UTF-8"?>
<svg version="1.1" xmlns="http://www.w3.org/2000/svg" width="28" height="28">
<path d="M0,0 L28,0 L28,28 L0,28 Z " fill="#030303" transform="translate(0,0)"/>
<path d="M0,0 L2,0 L3,2 L3,11 L5,11 L6,5 L8,4 L14,4 L18,10 L18,17 L16,19 L7,20 L1,15 L-1,9 L-1,1 Z " fill="#EBEBEB" transform="translate(6,3)"/>
<path d="M0,0 L2,0 L2,10 L-1,9 L-1,1 Z " fill="#F7F7F7" transform="translate(6,3)"/>
<path d="M0,0 L5,2 L4,5 L-2,4 Z " fill="#1C1C1C" transform="translate(16,12)"/>
</svg>
