<?xml version="1.0" encoding="UTF-8"?>
<svg version="1.1" xmlns="http://www.w3.org/2000/svg" width="28" height="28">
<path d="M0,0 L28,0 L28,28 L0,28 Z " fill="#050505" transform="translate(0,0)"/>
<path d="M0,0 L3,0 L1,5 L-6,14 L-2,11 L8,11 L10,12 L10,16 L4,19 L-5,20 L-10,18 L-9,13 Z " fill="#E3E3E3" transform="translate(15,2)"/>
<path d="M0,0 L3,0 L1,5 L-7,15 L-9,15 L-7,10 Z M-10,15 Z " fill="#E7E7E7" transform="translate(15,2)"/>
<path d="M0,0 L7,0 L9,1 L9,4 L6,4 L6,2 L-1,3 Z " fill="#F0F0F0" transform="translate(16,13)"/>
<path d="M0,0 L6,0 L5,3 L-3,3 Z " fill="#2B2B2B" transform="translate(16,15)"/>
</svg>
