<?xml version="1.0" encoding="UTF-8"?>
<svg version="1.1" xmlns="http://www.w3.org/2000/svg" width="28" height="28">
<path d="M0,0 L28,0 L28,28 L0,28 Z " fill="#020202" transform="translate(0,0)"/>
<path d="M0,0 L2,0 L1,4 L-3,10 L-3,14 L1,10 L7,10 L8,15 L5,19 L-3,20 L-8,17 L-8,11 L-5,5 Z " fill="#E9E9E9" transform="translate(15,2)"/>
<path d="M0,0 L5,1 L5,5 L2,5 L2,3 L-3,4 Z " fill="#F2F2F2" transform="translate(18,12)"/>
<path d="M0,0 L2,0 L2,2 L4,3 L1,6 L0,4 L-4,3 L-3,1 Z " fill="#868686" transform="translate(18,15)"/>
<path d="M0,0 L2,0 L1,4 L-3,6 L-6,8 L-4,4 Z " fill="#CDCDCD" transform="translate(15,2)"/>
</svg>
