<?xml version="1.0" encoding="UTF-8"?>
<svg version="1.1" xmlns="http://www.w3.org/2000/svg" width="28" height="28">
<path d="M0,0 L28,0 L28,28 L0,28 Z " fill="#020202" transform="translate(0,0)"/>
<path d="M0,0 L3,0 L2,4 L-6,11 L2,11 L4,12 L3,16 L-2,20 L-10,20 L-13,17 L-12,13 L-5,5 Z " fill="#E8E8E8" transform="translate(19,2)"/>
<path d="M0,0 L3,0 L13,0 L11,6 L3,6 L0,3 Z " fill="#D7D7D7" transform="translate(6,16)"/>
<path d="M0,0 L10,0 L7,3 L0,3 Z " fill="#292929" transform="translate(9,16)"/>
</svg>
