<?xml version="1.0" encoding="UTF-8"?>
<svg version="1.1" xmlns="http://www.w3.org/2000/svg" width="28" height="28">
<path d="M0,0 L28,0 L28,28 L0,28 Z " fill="#030303" transform="translate(0,0)"/>
<path d="M0,0 L2,0 L1,4 L-7,13 L-8,16 L-2,16 L-3,11 L0,8 L7,7 L10,10 L9,14 L3,18 L0,19 L-7,19 L-10,16 L-9,11 Z " fill="#D8D8D8" transform="translate(15,3)"/>
<path d="M0,0 L5,1 L7,3 L6,7 L1,10 L1,8 L-4,7 L-3,4 L-1,4 L-1,2 L-3,1 Z " fill="#E0E0E0" transform="translate(18,10)"/>
<path d="M0,0 L3,0 L3,2 L0,5 L5,6 L4,9 L-1,10 L-2,2 Z " fill="#F0F0F0" transform="translate(14,12)"/>
<path d="M0,0 L4,1 L3,4 L3,7 L-3,7 L-2,3 Z " fill="#1B1B1B" transform="translate(10,12)"/>
<path d="M0,0 L5,0 L5,2 L3,2 L3,4 L-2,5 L-4,4 L-3,1 Z " fill="#161616" transform="translate(18,13)"/>
</svg>
