<?xml version="1.0" encoding="UTF-8"?>
<svg version="1.1" xmlns="http://www.w3.org/2000/svg" width="28" height="28">
<path d="M0,0 L28,0 L28,28 L0,28 Z " fill="#020202" transform="translate(0,0)"/>
<path d="M0,0 L2,0 L0,4 L-6,11 L3,10 L6,12 L5,17 L-1,20 L-9,20 L-12,17 L-11,12 L-4,4 Z " fill="#EFEFEF" transform="translate(18,2)"/>
<path d="M0,0 L2,0 L0,4 L-6,12 L-10,14 L-12,15 L-10,10 L-5,5 Z " fill="#CFCFCF" transform="translate(18,2)"/>
<path d="M0,0 L4,1 L-1,6 L-7,6 L-6,2 Z " fill="#101010" transform="translate(18,14)"/>
<path d="M0,0 L6,0 L9,2 L8,7 L5,5 L6,3 L-1,4 L-2,1 Z " fill="#D2D2D2" transform="translate(15,12)"/>
</svg>
