<?xml version="1.0" encoding="UTF-8"?>
<svg version="1.1" xmlns="http://www.w3.org/2000/svg" width="28" height="28">
<path d="M0,0 L28,0 L28,28 L0,28 Z " fill="#040404" transform="translate(0,0)"/>
<path d="M0,0 L3,0 L2,3 L-3,8 L-6,12 L2,12 L5,14 L5,17 L-1,20 L-9,20 L-11,19 L-11,13 L-4,3 Z " fill="#EAEAEA" transform="translate(18,2)"/>
<path d="M0,0 L4,1 L4,4 L-2,7 L-7,7 L-8,2 Z " fill="#DDDDDD" transform="translate(19,15)"/>
<path d="M0,0 L6,0 L6,2 L4,3 L-2,3 L-2,1 Z " fill="#292929" transform="translate(13,16)"/>
</svg>
