<?xml version="1.0" encoding="UTF-8"?>
<svg version="1.1" xmlns="http://www.w3.org/2000/svg" width="28" height="28">
<path d="M0,0 L28,0 L28,28 L0,28 Z " fill="#030303" transform="translate(0,0)"/>
<path d="M0,0 L3,0 L1,4 L-8,13 L-9,15 L-2,10 L5,11 L8,14 L7,17 L4,18 L-7,18 L-12,15 L-11,11 L-6,6 L-4,6 L-3,3 Z " fill="#DBDBDB" transform="translate(17,3)"/>
<path d="M0,0 L8,0 L9,4 L5,6 L-6,6 L-3,4 L-2,1 Z " fill="#DEDEDE" transform="translate(16,15)"/>
<path d="M0,0 L7,1 L7,3 L1,3 L-2,6 L5,6 L5,7 L-6,7 L-3,2 Z " fill="#F5F5F5" transform="translate(15,13)"/>
<path d="M0,0 L5,1 L5,3 L-3,4 L-2,1 Z " fill="#272727" transform="translate(16,15)"/>
</svg>
