<?xml version="1.0" encoding="UTF-8"?>
<svg version="1.1" xmlns="http://www.w3.org/2000/svg" width="28" height="28">
<path d="M0,0 L28,0 L28,28 L0,28 Z " fill="#020202" transform="translate(0,0)"/>
<path d="M0,0 L2,0 L-1,10 L-2,15 L2,11 L6,12 L7,18 L4,20 L-1,20 L-4,16 L-3,5 Z " fill="#E6E6E6" transform="translate(14,2)"/>
<path d="M0,0 L4,1 L5,7 L1,9 L1,7 L-2,6 L-1,2 Z " fill="#A5A5A5" transform="translate(16,13)"/>
<path d="M0,0 L2,0 L0,7 L-3,8 L-2,3 Z " fill="#CBCBCB" transform="translate(14,2)"/>
</svg>
