<?xml version="1.0" encoding="UTF-8"?>
<svg version="1.1" xmlns="http://www.w3.org/2000/svg" width="28" height="28">
<path d="M0,0 L28,0 L28,28 L0,28 Z " fill="#030303" transform="translate(0,0)"/>
<path d="M0,0 L4,1 L4,6 L0,6 L-2,6 L-2,10 L5,11 L5,17 L0,20 L-6,19 L-8,17 L-7,8 L-4,3 L-2,3 L-2,1 Z " fill="#EFEFEF" transform="translate(16,3)"/>
<path d="M0,0 L4,1 L4,6 L0,6 L-2,6 L-3,14 L2,14 L2,16 L-4,16 L-5,12 L-5,9 L-7,10 L-5,6 L-4,3 L-2,3 L-2,1 Z " fill="#D8D8D8" transform="translate(16,3)"/>
<path d="M0,0 L1,3 L6,3 L6,5 L0,5 L-1,1 Z " fill="#3E3E3E" transform="translate(12,14)"/>
</svg>
