<?xml version="1.0" encoding="UTF-8"?>
<svg version="1.1" xmlns="http://www.w3.org/2000/svg" width="28" height="28">
<path d="M0,0 L28,0 L28,28 L0,28 Z " fill="#020202" transform="translate(0,0)"/>
<path d="M0,0 L2,1 L-4,8 L-6,14 L2,13 L3,17 L0,20 L-6,20 L-9,18 L-9,11 L-6,5 Z " fill="#C8C8C8" transform="translate(18,1)"/>
<path d="M0,0 L1,3 L4,3 L4,6 L8,6 L7,2 L10,1 L11,5 L8,8 L2,8 L-1,6 L-1,1 Z " fill="#EEEEEE" transform="translate(10,13)"/>
<path d="M0,0 L3,1 L3,5 L-1,5 Z " fill="#8B8B8B" transform="translate(15,14)"/>
</svg>
