<?xml version="1.0" encoding="UTF-8"?>
<svg version="1.1" xmlns="http://www.w3.org/2000/svg" width="28" height="28">
<path d="M0,0 L28,0 L28,28 L0,28 Z " fill="#020202" transform="translate(0,0)"/>
<path d="M0,0 L3,1 L-4,8 L-8,14 L-7,15 L2,12 L3,16 L-1,19 L-10,20 L-11,14 L-7,7 Z " fill="#CCCCCC" transform="translate(19,2)"/>
<path d="M0,0 L3,1 L2,5 L-2,6 L-6,6 L-7,3 Z " fill="#7E7E7E" transform="translate(19,14)"/>
<path d="M0,0 L2,3 L4,3 L4,5 L10,4 L9,6 L0,7 L-1,1 Z " fill="#E4E4E4" transform="translate(9,15)"/>
</svg>
