<?xml version="1.0" encoding="UTF-8"?>
<svg version="1.1" xmlns="http://www.w3.org/2000/svg" width="28" height="28">
<path d="M0,0 L28,0 L28,28 L0,28 Z " fill="#030303" transform="translate(0,0)"/>
<path d="M0,0 L0,3 L-3,9 L-2,15 L2,17 L3,12 L7,9 L11,10 L12,14 L5,20 L-2,19 L-5,16 L-5,6 L-2,1 Z " fill="#ACACAC" transform="translate(12,2)"/>
<path d="M0,0 L0,3 L-3,9 L-4,14 L-5,14 L-5,6 L-2,1 Z " fill="#D9D9D9" transform="translate(12,2)"/>
<path d="M0,0 L4,1 L3,4 L-2,5 L-4,6 L-4,3 Z " fill="#E5E5E5" transform="translate(19,11)"/>
</svg>
