<?xml version="1.0" encoding="UTF-8"?>
<svg version="1.1" xmlns="http://www.w3.org/2000/svg" width="28" height="28">
<path d="M0,0 L28,0 L28,28 L0,28 Z " fill="#050505" transform="translate(0,0)"/>
<path d="M0,0 L3,1 L2,5 L0,5 L0,16 L8,12 L13,12 L13,16 L10,16 L10,18 L6,20 L-2,19 L-3,17 L-3,9 Z " fill="#E3E3E3" transform="translate(11,2)"/>
<path d="M0,0 L3,1 L2,5 L0,5 L0,12 L-3,11 L-1,1 Z " fill="#E8E8E8" transform="translate(11,2)"/>
<path d="M0,0 L5,0 L5,4 L1,4 L1,2 L-3,3 L-3,1 Z " fill="#F1F1F1" transform="translate(19,14)"/>
<path d="M0,0 L5,1 L2,4 L-3,3 Z " fill="#767676" transform="translate(14,16)"/>
</svg>
