<?xml version="1.0" encoding="UTF-8"?>
<svg version="1.1" xmlns="http://www.w3.org/2000/svg" width="28" height="28">
<path d="M0,0 L28,0 L28,28 L0,28 Z " fill="#030303" transform="translate(0,0)"/>
<path d="M0,0 L3,1 L-3,7 L-4,14 L-2,12 L4,12 L6,14 L5,18 L1,20 L-5,20 L-8,16 L-7,8 L-3,2 Z " fill="#BBBBBB" transform="translate(16,2)"/>
<path d="M0,0 L3,1 L-3,7 L-6,14 L-7,14 L-7,8 L-3,2 Z " fill="#E6E6E6" transform="translate(16,2)"/>
<path d="M0,0 L5,1 L6,5 L4,6 L2,4 L2,1 Z " fill="#E4E4E4" transform="translate(16,14)"/>
</svg>
