<?xml version="1.0" encoding="UTF-8"?>
<svg version="1.1" xmlns="http://www.w3.org/2000/svg" width="28" height="28">
<path d="M0,0 L28,0 L28,28 L0,28 Z " fill="#050505" transform="translate(0,0)"/>
<path d="M0,0 L2,0 L1,5 L-2,13 L-2,16 L1,9 L4,6 L10,7 L12,10 L12,17 L10,20 L-5,20 L-6,19 L-6,11 L-3,4 Z " fill="#F7F7F7" transform="translate(12,2)"/>
<path d="M0,0 L6,1 L8,4 L8,11 L6,8 L2,12 L0,12 L0,8 L-4,7 L-3,3 Z " fill="#E4E4E4" transform="translate(16,8)"/>
<path d="M0,0 L3,0 L4,6 L-1,8 L-2,2 Z " fill="#212121" transform="translate(17,12)"/>
<path d="M0,0 L2,0 L1,5 L-1,8 L-3,8 L-5,9 L-3,4 Z " fill="#DDDDDD" transform="translate(12,2)"/>
</svg>
