<?xml version="1.0" encoding="UTF-8"?>
<svg version="1.1" xmlns="http://www.w3.org/2000/svg" width="28" height="28">
<path d="M0,0 L28,0 L28,28 L0,28 Z " fill="#020202" transform="translate(0,0)"/>
<path d="M0,0 L1,3 L-5,11 L-8,18 L-6,17 L-3,12 L2,10 L1,17 L-3,20 L-8,20 L-10,18 L-9,11 Z " fill="#DFDFDF" transform="translate(18,2)"/>
<path d="M0,0 L1,3 L-4,9 L-5,6 Z " fill="#EDEDED" transform="translate(18,2)"/>
<path d="M0,0 L2,1 L2,5 L-1,6 L-3,5 L-1,1 Z " fill="#B6B6B6" transform="translate(16,13)"/>
</svg>
