<?xml version="1.0" encoding="UTF-8"?>
<svg version="1.1" xmlns="http://www.w3.org/2000/svg" width="28" height="28">
<path d="M0,0 L28,0 L28,28 L0,28 Z " fill="#040404" transform="translate(0,0)"/>
<path d="M0,0 L2,0 L1,7 L0,9 L0,16 L3,17 L2,12 L7,7 L13,7 L14,12 L12,16 L5,20 L-1,20 L-4,17 L-4,10 Z " fill="#E2E2E2" transform="translate(11,3)"/>
<path d="M0,0 L2,0 L1,7 L0,9 L0,16 L4,16 L4,18 L2,20 L-2,19 L-4,17 L-4,10 Z " fill="#CDCDCD" transform="translate(11,3)"/>
<path d="M0,0 L4,1 L2,6 L-3,7 L-2,2 Z " fill="#121212" transform="translate(19,12)"/>
<path d="M0,0 L2,0 L1,7 L-1,10 L-3,10 Z " fill="#E6E6E6" transform="translate(11,3)"/>
</svg>
