<?xml version="1.0" encoding="UTF-8"?>
<svg version="1.1" xmlns="http://www.w3.org/2000/svg" width="28" height="28">
<path d="M0,0 L28,0 L28,28 L0,28 Z " fill="#030303" transform="translate(0,0)"/>
<path d="M0,0 L3,0 L1,4 L-2,6 L-3,9 L2,8 L6,10 L6,18 L2,20 L-4,19 L-6,17 L-6,8 Z " fill="#D1D1D1" transform="translate(15,3)"/>
<path d="M0,0 L7,1 L8,5 L6,7 L0,7 L-2,5 L-1,1 Z " fill="#101010" transform="translate(12,13)"/>
<path d="M0,0 L6,1 L2,4 L3,9 L0,9 Z " fill="#EBEBEB" transform="translate(9,11)"/>
</svg>
