<?xml version="1.0" encoding="UTF-8"?>
<svg version="1.1" xmlns="http://www.w3.org/2000/svg" width="28" height="28">
<path d="M0,0 L28,0 L28,28 L0,28 Z " fill="#030303" transform="translate(0,0)"/>
<path d="M0,0 L2,0 L0,6 L-5,15 L-3,14 L1,12 L6,13 L4,17 L-1,20 L-7,20 L-8,19 L-8,13 Z " fill="#E1E1E1" transform="translate(16,2)"/>
<path d="M0,0 L2,0 L0,6 L-5,15 L-7,17 L-8,13 Z " fill="#D5D5D5" transform="translate(16,2)"/>
<path d="M0,0 L1,2 L-3,6 L-7,6 L-5,2 Z " fill="#848484" transform="translate(18,16)"/>
</svg>
