<?xml version="1.0" encoding="UTF-8"?>
<svg version="1.1" xmlns="http://www.w3.org/2000/svg" width="28" height="28">
<path d="M0,0 L28,0 L28,28 L0,28 Z " fill="#030303" transform="translate(0,0)"/>
<path d="M0,0 L1,2 L-2,9 L-1,16 L1,17 L2,12 L4,11 L10,11 L12,12 L11,18 L5,20 L-2,19 L-2,17 L-4,17 L-5,15 L-5,6 L-2,1 Z " fill="#E5E5E5" transform="translate(12,2)"/>
<path d="M0,0 L1,2 L-2,9 L-1,16 L1,18 L-2,19 L-2,17 L-4,17 L-5,15 L-5,6 L-2,1 Z " fill="#DEDEDE" transform="translate(12,2)"/>
<path d="M0,0 L5,0 L6,2 L5,4 L-1,4 Z " fill="#191919" transform="translate(16,15)"/>
<path d="M0,0 L1,2 L-2,9 L-5,8 L-3,3 Z " fill="#C6C6C6" transform="translate(12,2)"/>
<path d="M0,0 L2,0 L3,3 L0,6 L-6,5 L-6,4 L0,4 Z " fill="#C9C9C9" transform="translate(21,15)"/>
</svg>
