<?xml version="1.0" encoding="UTF-8"?>
<svg version="1.1" xmlns="http://www.w3.org/2000/svg" width="28" height="28">
<path d="M0,0 L28,0 L28,28 L0,28 Z " fill="#040404" transform="translate(0,0)"/>
<path d="M0,0 L1,0 L0,11 L2,12 L2,10 L6,7 L14,5 L16,7 L15,13 L13,16 L10,17 L-1,17 L-3,15 L-4,8 L-1,1 Z " fill="#E5E5E5" transform="translate(9,4)"/>
<path d="M0,0 L4,2 L3,8 L2,10 L-2,9 L0,6 L-6,6 L-6,8 L-8,8 L-6,4 Z " fill="#EBEBEB" transform="translate(21,9)"/>
<path d="M0,0 L5,1 L3,4 L-4,4 L-2,3 L-2,1 Z " fill="#2E2E2E" transform="translate(17,14)"/>
</svg>
