<?xml version="1.0" encoding="UTF-8"?>
<svg version="1.1" xmlns="http://www.w3.org/2000/svg" width="28" height="28">
<path d="M0,0 L28,0 L28,28 L0,28 Z " fill="#030303" transform="translate(0,0)"/>
<path d="M0,0 L2,0 L1,4 L-1,7 L-2,17 L4,17 L2,14 L3,9 L7,6 L14,5 L15,10 L11,16 L4,20 L-1,20 L-4,17 L-5,8 Z " fill="#D0D0D0" transform="translate(10,3)"/>
<path d="M0,0 L5,1 L4,7 L-1,12 L-3,13 L-1,8 L2,5 L3,2 L-4,6 L-7,10 L-8,6 L-3,1 Z " fill="#E1E1E1" transform="translate(20,8)"/>
<path d="M0,0 L3,0 L2,4 L-2,8 L-6,8 L-4,3 Z " fill="#1B1B1B" transform="translate(20,10)"/>
</svg>
