<?xml version="1.0" encoding="UTF-8"?>
<svg version="1.1" xmlns="http://www.w3.org/2000/svg" width="28" height="28">
<path d="M0,0 L28,0 L28,28 L0,28 Z " fill="#030303" transform="translate(0,0)"/>
<path d="M0,0 L3,0 L1,5 L-4,10 L-8,15 L-9,17 L-4,14 L3,13 L2,18 L-3,20 L-10,20 L-11,15 L-7,8 L-2,3 Z " fill="#DADADA" transform="translate(18,1)"/>
<path d="M0,0 L2,0 L1,4 L-4,6 L-8,6 L-7,3 L0,3 Z " fill="#EAEAEA" transform="translate(19,15)"/>
<path d="M0,0 L3,1 L1,1 L1,4 L-5,5 L-3,3 L-4,1 Z " fill="#929292" transform="translate(18,14)"/>
</svg>
