<?xml version="1.0" encoding="UTF-8"?>
<svg version="1.1" xmlns="http://www.w3.org/2000/svg" width="28" height="28">
<path d="M0,0 L28,0 L28,28 L0,28 Z " fill="#030303" transform="translate(0,0)"/>
<path d="M0,0 L2,0 L0,4 L-1,6 L-3,6 L-5,11 L-7,15 L2,9 L6,11 L4,15 L-3,18 L-6,18 L-7,20 L-7,17 L-9,17 L-10,14 L-3,3 L-1,3 Z " fill="#E3E3E3" transform="translate(17,3)"/>
<path d="M0,0 L2,0 L0,4 L-1,6 L-3,6 L-5,11 L-7,15 L-5,16 L-7,20 L-7,17 L-9,17 L-10,14 L-3,3 L-1,3 Z " fill="#DDDDDD" transform="translate(17,3)"/>
<path d="M0,0 L4,2 L2,6 L-4,6 L-3,4 L-1,4 Z " fill="#9D9D9D" transform="translate(19,12)"/>
</svg>
