<?xml version="1.0" encoding="UTF-8"?>
<svg version="1.1" xmlns="http://www.w3.org/2000/svg" width="28" height="28">
<path d="M0,0 L28,0 L28,28 L0,28 Z " fill="#030303" transform="translate(0,0)"/>
<path d="M0,0 L2,0 L-1,9 L-3,17 L6,10 L9,10 L8,16 L-2,20 L-5,17 L-5,10 Z " fill="#EBEBEB" transform="translate(14,2)"/>
<path d="M0,0 L3,0 L2,6 L-4,7 L-5,4 Z " fill="#DFDFDF" transform="translate(20,12)"/>
<path d="M0,0 L2,0 L-1,9 L-3,12 L-4,7 Z " fill="#BBBBBB" transform="translate(14,2)"/>
<path d="M0,0 L4,2 L1,5 L-1,5 L-2,2 Z " fill="#9A9A9A" transform="translate(17,14)"/>
</svg>
