<?xml version="1.0" encoding="UTF-8"?>
<svg version="1.1" xmlns="http://www.w3.org/2000/svg" width="28" height="28">
<path d="M0,0 L28,0 L28,28 L0,28 Z " fill="#020202" transform="translate(0,0)"/>
<path d="M0,0 L3,0 L1,5 L-5,12 L-6,15 L2,11 L6,12 L5,17 L2,19 L-8,20 L-9,14 L-4,6 Z " fill="#D9D9D9" transform="translate(16,2)"/>
<path d="M0,0 L4,1 L3,6 L0,8 L-6,8 L-5,6 L1,5 L1,3 L-3,5 L-6,5 L-6,3 Z " fill="#E3E3E3" transform="translate(18,13)"/>
<path d="M0,0 L8,1 L12,0 L12,2 L3,6 L1,6 Z " fill="#A4A4A4" transform="translate(7,16)"/>
</svg>
