<?xml version="1.0" encoding="UTF-8"?>
<svg version="1.1" xmlns="http://www.w3.org/2000/svg" width="28" height="28">
<path d="M0,0 L28,0 L28,28 L0,28 Z " fill="#020202" transform="translate(0,0)"/>
<path d="M0,0 L0,3 L-2,11 L4,12 L5,17 L2,20 L-3,20 L-5,17 L-5,8 L-1,1 Z " fill="#EAEAEA" transform="translate(16,2)"/>
<path d="M0,0 L6,1 L5,5 L1,5 Z " fill="#1C1C1C" transform="translate(13,15)"/>
<path d="M0,0 L0,3 L-2,11 L-4,7 L-2,2 Z " fill="#CCCCCC" transform="translate(16,2)"/>
<path d="M0,0 L4,1 L3,7 L1,5 L2,2 L-1,1 Z " fill="#CECECE" transform="translate(17,14)"/>
</svg>
