<?xml version="1.0" encoding="UTF-8"?>
<svg version="1.1" xmlns="http://www.w3.org/2000/svg" width="28" height="28">
<path d="M0,0 L28,0 L28,28 L0,28 Z " fill="#030303" transform="translate(0,0)"/>
<path d="M0,0 L2,0 L0,5 L-1,6 L-1,14 L2,16 L4,11 L11,10 L12,11 L12,17 L9,20 L1,20 L-4,15 L-4,6 L-1,1 Z " fill="#EAEAEA" transform="translate(11,2)"/>
<path d="M0,0 L2,0 L0,5 L-2,12 L-4,8 L-2,2 Z " fill="#D4D4D4" transform="translate(11,2)"/>
<path d="M0,0 L3,1 L2,5 L-3,6 L-2,2 Z " fill="#1C1C1C" transform="translate(18,14)"/>
</svg>
