<?xml version="1.0" encoding="UTF-8"?>
<svg version="1.1" xmlns="http://www.w3.org/2000/svg" width="28" height="28">
<path d="M0,0 L28,0 L28,28 L0,28 Z " fill="#020202" transform="translate(0,0)"/>
<path d="M0,0 L4,1 L4,3 L-1,5 L-4,12 L0,10 L5,10 L6,11 L6,16 L0,20 L-5,20 L-8,18 L-7,11 L-4,3 L-2,3 L-2,1 Z " fill="#DDDDDD" transform="translate(16,3)"/>
<path d="M0,0 L5,0 L6,1 L6,6 L2,9 L-2,8 L3,5 L4,2 L-4,4 Z " fill="#E9E9E9" transform="translate(16,13)"/>
<path d="M0,0 L4,1 L4,3 L-1,5 L-4,11 L-6,11 L-5,6 L-4,3 L-2,3 L-2,1 Z M-7,11 Z " fill="#E4E4E4" transform="translate(16,3)"/>
<path d="M0,0 L2,0 L1,4 L-6,5 L-4,1 Z " fill="#121212" transform="translate(18,15)"/>
</svg>
