<?xml version="1.0" encoding="UTF-8"?>
<svg version="1.1" xmlns="http://www.w3.org/2000/svg" width="28" height="28">
<path d="M0,0 L28,0 L28,28 L0,28 Z " fill="#030303" transform="translate(0,0)"/>
<path d="M0,0 L2,0 L2,3 L-4,7 L-9,15 L-10,18 L-4,16 L-4,14 L-8,16 L-6,12 L-5,11 L0,11 L-2,16 L-6,19 L-11,20 L-12,19 L-11,11 L-4,3 Z " fill="#DFDFDF" transform="translate(20,3)"/>
<path d="M0,0 L7,0 L7,1 L1,3 L1,4 L3,4 L3,6 L-3,8 L-2,3 Z " fill="#4A4A4A" transform="translate(13,13)"/>
<path d="M0,0 L2,0 L2,3 L-5,7 L-4,3 Z " fill="#EAEAEA" transform="translate(20,3)"/>
</svg>
