<?xml version="1.0" encoding="UTF-8"?>
<svg version="1.1" xmlns="http://www.w3.org/2000/svg" width="28" height="28">
<path d="M0,0 L28,0 L28,28 L0,28 Z " fill="#030303" transform="translate(0,0)"/>
<path d="M0,0 L3,0 L3,2 L-4,8 L-3,14 L-7,19 L-14,20 L-15,16 L-6,6 Z " fill="#DEDEDE" transform="translate(22,3)"/>
<path d="M0,0 L4,0 L2,6 L-5,7 L-6,3 L0,2 Z " fill="#DEDEDE" transform="translate(13,16)"/>
<path d="M0,0 L3,1 L4,5 L0,9 L2,4 L-2,4 L-2,6 L-7,8 L-7,6 Z " fill="#F7F7F7" transform="translate(15,12)"/>
<path d="M0,0 L4,0 L2,4 L-3,4 L-2,2 L0,2 Z " fill="#484848" transform="translate(13,16)"/>
</svg>
