<?xml version="1.0" encoding="UTF-8"?>
<svg version="1.1" xmlns="http://www.w3.org/2000/svg" width="28" height="28">
<path d="M0,0 L28,0 L28,28 L0,28 Z " fill="#020202" transform="translate(0,0)"/>
<path d="M0,0 L2,0 L2,14 L4,15 L5,11 L7,8 L12,9 L14,12 L13,19 L12,20 L5,20 L1,18 L1,16 L-1,16 L-2,13 L-2,5 Z " fill="#EAEAEA" transform="translate(10,2)"/>
<path d="M0,0 L5,1 L7,4 L6,11 L3,12 L3,9 L-2,9 L-2,3 Z " fill="#D9D9D9" transform="translate(17,10)"/>
<path d="M0,0 L3,0 L4,6 L3,7 L-3,7 L-1,2 Z " fill="#121212" transform="translate(18,12)"/>
</svg>
