<?xml version="1.0" encoding="UTF-8"?>
<svg version="1.1" xmlns="http://www.w3.org/2000/svg" width="28" height="28">
<path d="M0,0 L28,0 L28,28 L0,28 Z " fill="#030303" transform="translate(0,0)"/>
<path d="M0,0 L9,0 L9,2 L1,3 L-3,8 L-2,13 L3,15 L4,10 L6,8 L12,8 L14,11 L13,16 L11,18 L1,18 L-5,14 L-6,7 L-2,1 Z " fill="#DDDDDD" transform="translate(11,4)"/>
<path d="M0,0 L9,0 L9,2 L1,3 L-4,8 L-4,4 Z " fill="#D7D7D7" transform="translate(11,4)"/>
<path d="M0,0 L4,1 L3,5 L-3,6 L-2,1 Z " fill="#1D1D1D" transform="translate(19,14)"/>
</svg>
