<?xml version="1.0" encoding="UTF-8"?>
<svg version="1.1" xmlns="http://www.w3.org/2000/svg" width="28" height="28">
<path d="M0,0 L28,0 L28,28 L0,28 Z " fill="#020202" transform="translate(0,0)"/>
<path d="M0,0 L2,0 L1,4 L0,11 L4,7 L9,7 L11,9 L11,16 L5,20 L-1,20 L-3,18 L-3,4 Z " fill="#D6D6D6" transform="translate(12,3)"/>
<path d="M0,0 L2,0 L1,4 L0,6 L0,13 L2,12 L3,16 L5,17 L5,20 L-1,20 L-3,18 L-3,4 Z " fill="#E9E9E9" transform="translate(12,3)"/>
<path d="M0,0 L2,0 L1,5 L-4,6 L-2,1 Z " fill="#080808" transform="translate(18,13)"/>
</svg>
