<?xml version="1.0" encoding="UTF-8"?>
<svg version="1.1" xmlns="http://www.w3.org/2000/svg" width="28" height="28">
<path d="M0,0 L28,0 L28,28 L0,28 Z " fill="#020202" transform="translate(0,0)"/>
<path d="M0,0 L2,0 L2,15 L4,9 L5,8 L11,8 L14,11 L13,16 L11,19 L3,20 L-1,16 L-2,8 L-1,1 Z " fill="#EAEAEA" transform="translate(9,2)"/>
<path d="M0,0 L2,0 L2,16 L-1,16 L-2,8 L-1,1 Z " fill="#C1C1C1" transform="translate(9,2)"/>
<path d="M0,0 L4,1 L4,5 L2,7 L-2,7 L-1,1 Z " fill="#181818" transform="translate(16,12)"/>
<path d="M0,0 L1,0 L2,9 L-1,9 L-1,2 Z " fill="#D9D9D9" transform="translate(9,9)"/>
</svg>
