<?xml version="1.0" encoding="UTF-8"?>
<svg version="1.1" xmlns="http://www.w3.org/2000/svg" width="28" height="28">
<path d="M0,0 L28,0 L28,28 L0,28 Z " fill="#030303" transform="translate(0,0)"/>
<path d="M0,0 L3,1 L2,7 L2,15 L4,16 L5,9 L7,7 L14,8 L15,14 L11,19 L3,20 L-1,17 L-1,4 Z " fill="#E6E6E6" transform="translate(8,2)"/>
<path d="M0,0 L5,1 L6,7 L4,10 L2,9 L3,4 L-1,3 L-2,5 L-1,1 Z " fill="#F3F3F3" transform="translate(17,9)"/>
<path d="M0,0 L5,1 L4,5 L-1,6 Z " fill="#161616" transform="translate(16,12)"/>
<path d="M0,0 L3,1 L2,7 L-1,8 Z " fill="#CECECE" transform="translate(8,2)"/>
</svg>
