<?xml version="1.0" encoding="UTF-8"?>
<svg version="1.1" xmlns="http://www.w3.org/2000/svg" width="28" height="28">
<path d="M0,0 L28,0 L28,28 L0,28 Z " fill="#030303" transform="translate(0,0)"/>
<path d="M0,0 L3,1 L0,11 L0,15 L2,11 L5,9 L9,10 L10,15 L5,20 L0,20 L-2,18 L-2,7 Z " fill="#F3F3F3" transform="translate(12,2)"/>
<path d="M0,0 L4,1 L5,6 L4,8 L-1,8 L-4,6 L-3,2 Z " fill="#DFDFDF" transform="translate(17,11)"/>
<path d="M0,0 L3,1 L0,11 L-2,10 Z " fill="#D7D7D7" transform="translate(12,2)"/>
<path d="M0,0 L3,0 L4,5 L-1,5 L-2,2 L0,2 Z " fill="#737373" transform="translate(17,14)"/>
</svg>
