<?xml version="1.0" encoding="UTF-8"?>
<svg version="1.1" xmlns="http://www.w3.org/2000/svg" width="28" height="28">
<path d="M0,0 L28,0 L28,28 L0,28 Z " fill="#030303" transform="translate(0,0)"/>
<path d="M0,0 L2,0 L0,5 L-2,8 L-2,16 L1,17 L2,10 L9,9 L10,10 L10,16 L7,19 L-2,20 L-5,17 L-5,7 Z " fill="#DEDEDE" transform="translate(13,2)"/>
<path d="M0,0 L2,0 L0,5 L-2,8 L-2,16 L5,17 L4,20 L-2,20 L-5,17 L-5,7 Z " fill="#E8E8E8" transform="translate(13,2)"/>
<path d="M0,0 L4,0 L3,4 L-1,5 Z " fill="#161616" transform="translate(17,14)"/>
</svg>
