<?xml version="1.0" encoding="UTF-8"?>
<svg version="1.1" xmlns="http://www.w3.org/2000/svg" width="28" height="28">
<path d="M0,0 L28,0 L28,28 L0,28 Z " fill="#030303" transform="translate(0,0)"/>
<path d="M0,0 L2,0 L2,3 L-3,5 L-8,11 L-8,13 L-2,11 L5,12 L6,17 L0,20 L-6,20 L-11,17 L-11,11 L-4,3 Z " fill="#C8C8C8" transform="translate(18,3)"/>
<path d="M0,0 L7,0 L9,1 L8,4 L6,5 L-3,4 L-2,1 Z " fill="#121212" transform="translate(13,16)"/>
<path d="M0,0 L2,0 L2,3 L-3,5 L-8,11 L-8,13 L-2,12 L-5,14 L-10,16 L-10,9 L-2,1 Z " fill="#E5E5E5" transform="translate(18,3)"/>
</svg>
