<?xml version="1.0" encoding="UTF-8"?>
<svg version="1.1" xmlns="http://www.w3.org/2000/svg" width="28" height="28">
<path d="M0,0 L28,0 L28,28 L0,28 Z " fill="#000000" transform="translate(0,0)"/>
<path d="M0,0 L3,0 L3,2 L-4,6 L-8,11 L-1,11 L-1,13 L-6,13 L-6,15 L-9,15 L-9,17 L-5,18 L-5,20 L-10,19 L-12,16 L-11,8 L-2,1 Z " fill="#DCDCDC" transform="translate(20,3)"/>
<path d="M0,0 L2,1 L1,5 L-1,7 L-6,6 L-8,5 L-8,3 L-5,3 L-5,1 Z " fill="#C4C4C4" transform="translate(19,15)"/>
<path d="M0,0 L4,1 L3,4 L-3,4 L-3,2 L0,2 Z " fill="#060606" transform="translate(14,16)"/>
</svg>
