<?xml version="1.0" encoding="UTF-8"?>
<svg version="1.1" xmlns="http://www.w3.org/2000/svg" width="28" height="28">
<path d="M0,0 L28,0 L28,28 L0,28 Z " fill="#030303" transform="translate(0,0)"/>
<path d="M0,0 L2,0 L1,4 L-1,9 L4,7 L9,7 L11,9 L11,15 L5,20 L0,19 L-3,14 L-4,6 Z " fill="#F4F4F4" transform="translate(11,3)"/>
<path d="M0,0 L5,0 L7,2 L7,8 L1,13 L-4,12 L-6,10 L-5,6 L-5,8 L-3,8 L-3,10 L4,6 L5,3 L-2,3 Z " fill="#EEEEEE" transform="translate(15,10)"/>
<path d="M0,0 L5,0 L4,4 L0,7 L-3,7 L-4,2 Z " fill="#151515" transform="translate(15,13)"/>
<path d="M0,0 L2,0 L1,4 L0,7 L-2,8 L-4,11 L-3,4 Z " fill="#CCCCCC" transform="translate(11,3)"/>
</svg>
