<?xml version="1.0" encoding="UTF-8"?>
<svg version="1.1" xmlns="http://www.w3.org/2000/svg" width="28" height="28">
<path d="M0,0 L28,0 L28,28 L0,28 Z " fill="#030303" transform="translate(0,0)"/>
<path d="M0,0 L5,1 L5,4 L-1,6 L-2,12 L0,12 L0,14 L2,14 L3,8 L10,5 L14,6 L15,11 L10,17 L8,18 L1,18 L-4,13 L-5,12 L-4,3 Z " fill="#E7E7E7" transform="translate(10,4)"/>
<path d="M0,0 L4,1 L5,6 L3,8 L0,8 L-4,9 L-3,3 Z " fill="#E3E3E3" transform="translate(20,9)"/>
<path d="M0,0 L3,0 L1,5 L-3,6 L-2,2 Z " fill="#1C1C1C" transform="translate(19,12)"/>
</svg>
