<?xml version="1.0" encoding="UTF-8"?>
<svg version="1.1" xmlns="http://www.w3.org/2000/svg" width="28" height="28">
<path d="M0,0 L28,0 L28,28 L0,28 Z " fill="#020202" transform="translate(0,0)"/>
<path d="M0,0 L2,2 L0,2 L-2,6 L-5,11 L-5,17 L-1,19 L0,12 L3,9 L7,10 L6,17 L1,20 L-5,20 L-8,17 L-8,11 L-2,2 Z " fill="#CDCDCD" transform="translate(15,2)"/>
<path d="M0,0 L4,1 L3,8 L-1,9 L-3,9 L-4,5 Z " fill="#C1C1C1" transform="translate(18,11)"/>
<path d="M0,0 L2,1 L0,6 L-4,7 L-2,2 Z " fill="#1E1E1E" transform="translate(19,13)"/>
</svg>
