<?xml version="1.0" encoding="UTF-8"?>
<svg version="1.1" xmlns="http://www.w3.org/2000/svg" width="28" height="28">
<path d="M0,0 L28,0 L28,28 L0,28 Z " fill="#020202" transform="translate(0,0)"/>
<path d="M0,0 L5,0 L5,2 L-3,7 L-4,8 L1,10 L0,17 L-4,20 L-9,20 L-11,17 L-10,10 L-2,1 Z " fill="#F2F2F2" transform="translate(19,4)"/>
<path d="M0,0 L3,0 L3,3 L5,4 L0,9 L-5,9 L-7,6 L-6,2 L-6,4 L-4,4 L-4,2 Z " fill="#DCDCDC" transform="translate(15,15)"/>
<path d="M0,0 L3,0 L2,4 L-3,7 L-4,2 Z " fill="#191919" transform="translate(15,15)"/>
<path d="M0,0 L5,0 L5,2 L-2,5 L-2,1 Z " fill="#D4D4D4" transform="translate(19,4)"/>
</svg>
