<?xml version="1.0" encoding="UTF-8"?>
<svg version="1.1" xmlns="http://www.w3.org/2000/svg" width="28" height="28">
<path d="M0,0 L28,0 L28,28 L0,28 Z " fill="#040404" transform="translate(0,0)"/>
<path d="M0,0 L5,1 L5,3 L1,4 L-3,10 L2,7 L7,7 L8,11 L5,16 L-5,20 L-12,18 L-11,12 L-8,11 L-6,7 Z " fill="#E4E4E4" transform="translate(17,3)"/>
<path d="M0,0 L3,1 L2,7 L-3,10 L-3,8 L-9,9 L-4,4 L-2,4 Z M-3,7 Z " fill="#DBDBDB" transform="translate(22,10)"/>
<path d="M0,0 L2,1 L-3,6 L-7,5 Z " fill="#262626" transform="translate(20,13)"/>
</svg>
