<?xml version="1.0" encoding="UTF-8"?>
<svg version="1.1" xmlns="http://www.w3.org/2000/svg" width="28" height="28">
<path d="M0,0 L28,0 L28,28 L0,28 Z " fill="#030303" transform="translate(0,0)"/>
<path d="M0,0 L6,0 L6,2 L-1,5 L-6,11 L-7,13 L1,9 L5,9 L4,16 L0,18 L-4,18 L-4,20 L-7,20 L-9,15 L-9,9 L-3,2 Z " fill="#E2E2E2" transform="translate(17,4)"/>
<path d="M0,0 L4,0 L3,7 L-2,9 L-2,7 L-6,6 L-8,4 Z " fill="#DFDFDF" transform="translate(18,13)"/>
<path d="M0,0 L6,0 L6,2 L-1,5 L-4,7 L-6,5 Z " fill="#CBCBCB" transform="translate(17,4)"/>
<path d="M0,0 L2,0 L1,4 L-5,5 L-4,2 Z " fill="#303030" transform="translate(18,15)"/>
</svg>
