<?xml version="1.0" encoding="UTF-8"?>
<svg version="1.1" xmlns="http://www.w3.org/2000/svg" width="28" height="28">
<path d="M0,0 L28,0 L28,28 L0,28 Z " fill="#020202" transform="translate(0,0)"/>
<path d="M0,0 L1,2 L1,10 L6,15 L6,8 L9,5 L14,5 L18,9 L18,15 L15,17 L6,17 L0,14 L-2,11 L-2,2 Z " fill="#B1B1B1" transform="translate(7,4)"/>
<path d="M0,0 L4,2 L6,4 L6,9 L-1,9 L-2,8 L-2,2 Z " fill="#060606" transform="translate(17,10)"/>
<path d="M0,0 L1,2 L1,10 L4,14 L8,14 L8,16 L12,17 L3,16 L-2,11 L-2,2 Z " fill="#D4D4D4" transform="translate(7,4)"/>
</svg>
