<?xml version="1.0" encoding="UTF-8"?>
<svg version="1.1" xmlns="http://www.w3.org/2000/svg" width="28" height="28">
<path d="M0,0 L28,0 L28,28 L0,28 Z " fill="#020202" transform="translate(0,0)"/>
<path d="M0,0 L2,1 L2,4 L0,5 L-1,9 L4,11 L3,19 L-3,20 L-6,17 L-6,11 L-3,4 Z " fill="#D6D6D6" transform="translate(16,3)"/>
<path d="M0,0 L2,1 L2,4 L0,5 L-1,9 L1,10 L-4,13 L-6,14 L-4,5 Z " fill="#E5E5E5" transform="translate(16,3)"/>
<path d="M0,0 L5,2 L5,6 L1,5 Z " fill="#0C0C0C" transform="translate(12,15)"/>
</svg>
