<?xml version="1.0" encoding="UTF-8"?>
<svg version="1.1" xmlns="http://www.w3.org/2000/svg" width="28" height="28">
<path d="M0,0 L28,0 L28,28 L0,28 Z " fill="#040404" transform="translate(0,0)"/>
<path d="M0,0 L3,0 L3,2 L-2,7 L-4,13 L1,9 L7,9 L8,13 L4,17 L-3,20 L-8,17 L-9,13 L-5,5 Z " fill="#DEDEDE" transform="translate(16,3)"/>
<path d="M0,0 L6,0 L7,4 L3,8 L-3,10 L-3,8 L3,5 L4,2 L-3,5 L-3,2 Z M-5,4 Z " fill="#EAEAEA" transform="translate(17,12)"/>
<path d="M0,0 L3,0 L2,4 L-1,6 L-4,6 L-3,2 Z " fill="#171717" transform="translate(18,14)"/>
</svg>
