<?xml version="1.0" encoding="UTF-8"?>
<svg version="1.1" xmlns="http://www.w3.org/2000/svg" width="28" height="28">
<path d="M0,0 L28,0 L28,28 L0,28 Z " fill="#010101" transform="translate(0,0)"/>
<path d="M0,0 L2,0 L0,10 L-1,12 L5,11 L8,14 L6,19 L4,20 L-2,20 L-4,18 L-3,8 Z " fill="#E5E5E5" transform="translate(14,2)"/>
<path d="M0,0 L4,1 L6,5 L2,9 L-1,8 L-3,7 L-2,3 Z " fill="#C7C7C7" transform="translate(16,13)"/>
<path d="M0,0 L4,0 L4,4 L-2,5 L-1,1 Z " fill="#282828" transform="translate(15,15)"/>
</svg>
