<?xml version="1.0" encoding="UTF-8"?>
<svg version="1.1" xmlns="http://www.w3.org/2000/svg" width="28" height="28">
<path d="M0,0 L28,0 L28,28 L0,28 Z " fill="#020202" transform="translate(0,0)"/>
<path d="M0,0 L3,1 L-2,5 L-4,5 L-4,9 L1,9 L2,10 L2,16 L-2,20 L-7,20 L-9,18 L-9,10 L-5,3 Z " fill="#DCDCDC" transform="translate(18,3)"/>
<path d="M0,0 L2,0 L2,5 L0,5 L-1,8 L-5,8 L-5,3 Z " fill="#090909" transform="translate(16,13)"/>
<path d="M0,0 L3,1 L-2,5 L-4,5 L-4,12 L-7,13 L-7,6 L-2,1 Z " fill="#BDBDBD" transform="translate(18,3)"/>
</svg>
