<?xml version="1.0" encoding="UTF-8"?>
<svg version="1.1" xmlns="http://www.w3.org/2000/svg" width="28" height="28">
<path d="M0,0 L28,0 L28,28 L0,28 Z " fill="#030303" transform="translate(0,0)"/>
<path d="M0,0 L3,1 L0,5 L-1,8 L-1,16 L6,18 L6,16 L8,16 L8,14 L2,14 L2,16 L0,16 L2,12 L3,11 L8,11 L10,13 L9,18 L6,20 L0,20 L-4,17 L-4,7 L-1,1 Z " fill="#DDDDDD" transform="translate(13,2)"/>
<path d="M0,0 L4,1 L4,3 L2,3 L2,5 L-4,5 L-4,3 L-2,3 L-2,1 Z " fill="#595959" transform="translate(17,15)"/>
</svg>
