<?xml version="1.0" encoding="UTF-8"?>
<svg version="1.1" xmlns="http://www.w3.org/2000/svg" width="28" height="28">
<path d="M0,0 L28,0 L28,28 L0,28 Z " fill="#030303" transform="translate(0,0)"/>
<path d="M0,0 L3,0 L2,3 L-3,4 L-3,5 L2,7 L3,14 L0,19 L-7,20 L-10,16 L-9,7 L-3,1 Z " fill="#E2E2E2" transform="translate(18,4)"/>
<path d="M0,0 L4,1 L4,8 L3,9 L-2,9 L-4,6 L-4,3 L-2,3 L-2,1 Z " fill="#070707" transform="translate(14,12)"/>
<path d="M0,0 L5,2 L6,9 L3,14 L-2,13 L2,11 L2,4 L-2,2 Z " fill="#D8D8D8" transform="translate(15,9)"/>
<path d="M0,0 L1,0 L2,7 L-2,9 L-5,7 L-1,6 Z " fill="#9A9A9A" transform="translate(18,14)"/>
</svg>
