<?xml version="1.0" encoding="UTF-8"?>
<svg version="1.1" xmlns="http://www.w3.org/2000/svg" width="28" height="28">
<path d="M0,0 L28,0 L28,28 L0,28 Z " fill="#020202" transform="translate(0,0)"/>
<path d="M0,0 L1,0 L1,7 L0,11 L4,12 L0,13 L0,17 L3,19 L-3,20 L-4,13 L-1,1 Z " fill="#E3E3E3" transform="translate(14,2)"/>
<path d="M0,0 L6,0 L7,5 L3,9 L-2,7 L-1,3 L1,2 Z " fill="#D2D2D2" transform="translate(15,12)"/>
<path d="M0,0 L4,0 L3,4 L2,5 L-3,5 L-2,1 Z " fill="#131313" transform="translate(16,14)"/>
</svg>
