<?xml version="1.0" encoding="UTF-8"?>
<svg version="1.1" xmlns="http://www.w3.org/2000/svg" width="28" height="28">
<path d="M0,0 L28,0 L28,28 L0,28 Z " fill="#040404" transform="translate(0,0)"/>
<path d="M0,0 L3,0 L3,3 L1,3 L1,16 L7,16 L7,12 L7,5 L10,3 L16,4 L17,10 L14,15 L8,19 L2,19 L-2,16 L-3,13 L-3,6 Z " fill="#E6E6E6" transform="translate(8,4)"/>
<path d="M0,0 L5,1 L4,5 L3,7 L0,7 L-1,1 Z " fill="#252525" transform="translate(18,10)"/>
<path d="M0,0 L3,0 L3,3 L1,3 L0,13 L-3,9 L-2,4 Z " fill="#C8C8C8" transform="translate(8,4)"/>
</svg>
