<?xml version="1.0" encoding="UTF-8"?>
<svg version="1.1" xmlns="http://www.w3.org/2000/svg" width="28" height="28">
<path d="M0,0 L28,0 L28,28 L0,28 Z " fill="#020202" transform="translate(0,0)"/>
<path d="M0,0 L2,1 L-3,7 L-4,11 L2,12 L5,15 L3,19 L2,20 L-4,20 L-7,15 L-5,5 Z " fill="#CECECE" transform="translate(16,2)"/>
<path d="M0,0 L2,1 L-3,7 L-4,11 L1,12 L-1,13 L-6,13 L-6,7 L-2,1 Z " fill="#E8E8E8" transform="translate(16,2)"/>
<path d="M0,0 L4,1 L7,3 L6,6 L1,6 L0,5 Z " fill="#131313" transform="translate(12,14)"/>
</svg>
