<?xml version="1.0" encoding="UTF-8"?>
<svg version="1.1" xmlns="http://www.w3.org/2000/svg" width="28" height="28">
<path d="M0,0 L28,0 L28,28 L0,28 Z " fill="#020202" transform="translate(0,0)"/>
<path d="M0,0 L2,0 L0,5 L-1,13 L2,10 L7,11 L9,13 L8,18 L5,20 L0,19 L-3,16 L-4,8 Z " fill="#E2E2E2" transform="translate(13,2)"/>
<path d="M0,0 L2,0 L0,5 L-1,13 L0,16 L-3,16 L-4,8 Z " fill="#C4C4C4" transform="translate(13,2)"/>
<path d="M0,0 L4,2 L4,6 L-1,7 L-2,4 Z " fill="#171717" transform="translate(16,13)"/>
</svg>
