<?xml version="1.0" encoding="UTF-8"?>
<svg version="1.1" xmlns="http://www.w3.org/2000/svg" width="28" height="28">
<path d="M0,0 L28,0 L28,28 L0,28 Z " fill="#020202" transform="translate(0,0)"/>
<path d="M0,0 L2,0 L1,5 L-1,12 L7,13 L10,15 L9,19 L7,20 L0,20 L-3,18 L-4,9 Z " fill="#D4D4D4" transform="translate(13,2)"/>
<path d="M0,0 L4,1 L3,5 L-4,6 L-5,4 L0,3 Z " fill="#E4E4E4" transform="translate(19,16)"/>
<path d="M0,0 L8,1 L7,4 L2,4 Z " fill="#1E1E1E" transform="translate(12,16)"/>
<path d="M0,0 L2,0 L1,5 L-2,8 L-1,2 Z " fill="#EEEEEE" transform="translate(13,2)"/>
</svg>
