<?xml version="1.0" encoding="UTF-8"?>
<svg version="1.1" xmlns="http://www.w3.org/2000/svg" width="28" height="28">
<path d="M0,0 L28,0 L28,28 L0,28 Z " fill="#030303" transform="translate(0,0)"/>
<path d="M0,0 L3,0 L1,4 L-1,4 L-3,16 L-1,16 L-1,14 L1,13 L11,13 L12,17 L7,20 L-2,20 L-6,16 L-6,8 Z " fill="#E5E5E5" transform="translate(13,2)"/>
<path d="M0,0 L2,1 L1,5 L-3,7 L-12,7 L-9,6 L-9,3 L-7,2 L0,2 Z " fill="#C8C8C8" transform="translate(23,15)"/>
<path d="M0,0 L6,0 L3,3 L-2,3 L-2,1 Z " fill="#252525" transform="translate(16,17)"/>
</svg>
