<?xml version="1.0" encoding="UTF-8"?>
<svg version="1.1" xmlns="http://www.w3.org/2000/svg" width="28" height="28">
<path d="M0,0 L28,0 L28,28 L0,28 Z " fill="#020202" transform="translate(0,0)"/>
<path d="M0,0 L2,0 L1,5 L-6,14 L-6,17 L-4,18 L-2,14 L2,9 L5,10 L4,15 L-2,20 L-7,20 L-9,18 L-8,11 L-2,4 Z " fill="#E1E1E1" transform="translate(17,3)"/>
<path d="M0,0 L2,0 L1,5 L-6,14 L-9,15 L-7,10 L-2,4 Z " fill="#DFDFDF" transform="translate(17,3)"/>
<path d="M0,0 L3,1 L-2,7 L-4,6 L-2,2 Z " fill="#8B8B8B" transform="translate(19,15)"/>
</svg>
