<?xml version="1.0" encoding="UTF-8"?>
<svg version="1.1" xmlns="http://www.w3.org/2000/svg" width="28" height="28">
<path d="M0,0 L28,0 L28,28 L0,28 Z " fill="#020202" transform="translate(0,0)"/>
<path d="M0,0 L4,0 L4,2 L-1,5 L-4,11 L-3,10 L6,11 L6,16 L1,20 L-5,20 L-8,18 L-7,9 L-3,3 Z " fill="#D0D0D0" transform="translate(16,3)"/>
<path d="M0,0 L4,0 L4,2 L-1,5 L-4,11 L-3,10 L3,10 L5,12 L3,13 L-2,13 L-5,16 L-5,14 L-8,15 L-6,7 Z " fill="#E4E4E4" transform="translate(16,3)"/>
<path d="M0,0 L5,0 L4,5 L-2,6 L-3,4 Z " fill="#292929" transform="translate(14,15)"/>
</svg>
