<?xml version="1.0" encoding="UTF-8"?>
<svg version="1.1" xmlns="http://www.w3.org/2000/svg" width="28" height="28">
<path d="M0,0 L28,0 L28,28 L0,28 Z " fill="#030303" transform="translate(0,0)"/>
<path d="M0,0 L2,0 L0,4 L-2,4 L-2,6 L-6,8 L-1,10 L-2,15 L-9,18 L-16,17 L-18,13 L-8,6 Z " fill="#E5E5E5" transform="translate(22,4)"/>
<path d="M0,0 L4,2 L4,3 L10,2 L10,4 L5,6 L1,6 L1,8 L-4,7 L-4,3 Z " fill="#ADADAD" transform="translate(9,13)"/>
<path d="M0,0 L2,1 L1,6 L-6,9 L-9,9 L-9,6 L0,4 L0,2 L-2,1 Z " fill="#CDCDCD" transform="translate(19,13)"/>
<path d="M0,0 L4,0 L4,2 L-1,4 L-4,3 Z " fill="#292929" transform="translate(15,15)"/>
</svg>
