<?xml version="1.0" encoding="UTF-8"?>
<svg version="1.1" xmlns="http://www.w3.org/2000/svg" width="28" height="28">
<path d="M0,0 L28,0 L28,28 L0,28 Z " fill="#020202" transform="translate(0,0)"/>
<path d="M0,0 L3,0 L1,4 L-3,9 L3,10 L4,15 L1,18 L-4,20 L-10,20 L-12,18 L-11,11 Z " fill="#DBDBDB" transform="translate(19,3)"/>
<path d="M0,0 L3,0 L1,4 L-4,9 L0,11 L-7,15 L-9,17 L-11,16 L-11,11 Z " fill="#EAEAEA" transform="translate(19,3)"/>
<path d="M0,0 L5,0 L4,4 L2,5 L-4,5 L-2,1 Z " fill="#1B1B1B" transform="translate(15,15)"/>
</svg>
