<?xml version="1.0" encoding="UTF-8"?>
<svg version="1.1" xmlns="http://www.w3.org/2000/svg" width="28" height="28">
<path d="M0,0 L28,0 L28,28 L0,28 Z " fill="#010101" transform="translate(0,0)"/>
<path d="M0,0 L2,1 L-3,9 L-6,13 L-1,14 L-1,18 L-4,20 L-11,20 L-12,15 L-10,12 L-8,12 L-6,8 Z " fill="#A5A5A5" transform="translate(20,2)"/>
<path d="M0,0 L1,0 L1,5 L6,3 L5,7 L-2,7 L-3,2 Z " fill="#E6E6E6" transform="translate(11,15)"/>
<path d="M0,0 L2,1 L-3,9 L-5,11 L-8,10 L-3,4 Z " fill="#CFCFCF" transform="translate(20,2)"/>
</svg>
