<?xml version="1.0" encoding="UTF-8"?>
<svg version="1.1" xmlns="http://www.w3.org/2000/svg" width="28" height="28">
<path d="M0,0 L28,0 L28,28 L0,28 Z " fill="#010101" transform="translate(0,0)"/>
<path d="M0,0 L3,0 L3,2 L-1,3 L-2,9 L1,12 L2,16 L-2,20 L-7,19 L-8,14 L-5,7 L-1,1 Z " fill="#D5D5D5" transform="translate(17,3)"/>
<path d="M0,0 L2,1 L3,7 L-1,8 L-1,1 Z " fill="#151515" transform="translate(13,13)"/>
<path d="M0,0 L2,2 L2,8 L-1,8 Z " fill="#BEBEBE" transform="translate(10,13)"/>
</svg>
