<?xml version="1.0" encoding="UTF-8"?>
<svg version="1.1" xmlns="http://www.w3.org/2000/svg" width="28" height="28">
<path d="M0,0 L28,0 L28,28 L0,28 Z " fill="#020202" transform="translate(0,0)"/>
<path d="M0,0 L2,0 L0,4 L-4,10 L-4,12 L-1,14 L-1,19 L-6,20 L-8,19 L-8,11 L-7,8 L-5,8 L-3,3 Z " fill="#D1D1D1" transform="translate(18,3)"/>
<path d="M0,0 L4,2 L4,7 L2,8 L-2,5 L-2,1 Z " fill="#8D8D8D" transform="translate(13,15)"/>
<path d="M0,0 L1,2 L0,5 L-2,5 L0,10 L2,12 L-3,11 L-3,3 Z " fill="#F1F1F1" transform="translate(13,11)"/>
</svg>
