<?xml version="1.0" encoding="UTF-8"?>
<svg version="1.1" xmlns="http://www.w3.org/2000/svg" width="28" height="28">
<path d="M0,0 L28,0 L28,28 L0,28 Z " fill="#020202" transform="translate(0,0)"/>
<path d="M0,0 L2,1 L-2,8 L-3,17 L-1,17 L2,12 L7,10 L9,11 L8,16 L4,20 L-4,20 L-7,15 L-6,10 L-2,2 Z " fill="#D4D4D4" transform="translate(14,2)"/>
<path d="M0,0 L2,1 L-2,8 L-3,18 L-5,19 L-7,15 L-6,10 L-2,2 Z " fill="#D2D2D2" transform="translate(14,2)"/>
<path d="M0,0 L4,1 L3,4 L-3,7 L-3,2 Z " fill="#868686" transform="translate(19,12)"/>
</svg>
