<?xml version="1.0" encoding="UTF-8"?>
<svg version="1.1" xmlns="http://www.w3.org/2000/svg" width="28" height="28">
<path d="M0,0 L28,0 L28,28 L0,28 Z " fill="#070707" transform="translate(0,0)"/>
<path d="M0,0 L1,3 L-5,11 L0,11 L1,16 L-2,19 L-10,20 L-11,16 L-9,11 Z " fill="#E6E6E6" transform="translate(18,2)"/>
<path d="M0,0 L7,0 L5,4 L4,5 L-1,5 Z " fill="#0D0D0D" transform="translate(10,15)"/>
<path d="M0,0 L3,1 L2,6 L-3,9 L-6,7 L-1,5 L1,2 L-2,1 Z " fill="#C3C3C3" transform="translate(16,13)"/>
</svg>
