<?xml version="1.0" encoding="UTF-8"?>
<svg version="1.1" xmlns="http://www.w3.org/2000/svg" width="28" height="28">
<path d="M0,0 L28,0 L28,28 L0,28 Z " fill="#020202" transform="translate(0,0)"/>
<path d="M0,0 L2,0 L0,6 L-2,10 L4,10 L5,11 L5,16 L0,20 L-6,19 L-5,9 L-2,3 Z " fill="#E3E3E3" transform="translate(15,3)"/>
<path d="M0,0 L2,0 L0,6 L-2,10 L4,10 L4,13 L-3,12 L-4,17 L-5,17 L-5,9 L-2,3 Z " fill="#F8F8F8" transform="translate(15,3)"/>
<path d="M0,0 L2,0 L0,6 L-5,11 L-3,4 Z " fill="#DBDBDB" transform="translate(15,3)"/>
<path d="M0,0 L6,0 L4,4 L0,5 Z " fill="#161616" transform="translate(12,15)"/>
<path d="M0,0 L3,2 L3,4 L5,5 L6,7 L0,6 Z " fill="#B7B7B7" transform="translate(9,16)"/>
</svg>
