<?xml version="1.0" encoding="UTF-8"?>
<svg version="1.1" xmlns="http://www.w3.org/2000/svg" width="28" height="28">
<path d="M0,0 L28,0 L28,28 L0,28 Z " fill="#020202" transform="translate(0,0)"/>
<path d="M0,0 L3,0 L3,2 L-2,7 L-3,9 L2,11 L3,15 L-2,19 L-4,20 L-10,20 L-11,19 L-11,14 L-2,3 Z " fill="#CBCBCB" transform="translate(18,2)"/>
<path d="M0,0 L3,0 L3,2 L-2,7 L-3,9 L2,11 L1,14 L1,12 L-7,14 L-9,16 L-8,10 L-2,3 Z " fill="#D3D3D3" transform="translate(18,2)"/>
<path d="M0,0 L4,0 L3,4 L-4,6 L-3,1 Z " fill="#101010" transform="translate(14,14)"/>
<path d="M0,0 L8,1 L7,4 L7,2 L-1,4 L-3,6 L-3,2 Z " fill="#F5F5F5" transform="translate(12,12)"/>
</svg>
