<?xml version="1.0" encoding="UTF-8"?>
<svg version="1.1" xmlns="http://www.w3.org/2000/svg" width="28" height="28">
<path d="M0,0 L28,0 L28,28 L0,28 Z " fill="#020202" transform="translate(0,0)"/>
<path d="M0,0 L3,0 L2,4 L-1,9 L4,9 L5,10 L5,17 L2,20 L-2,19 L-5,15 L-5,10 Z " fill="#EFEFEF" transform="translate(14,3)"/>
<path d="M0,0 L3,0 L2,4 L-2,10 L-5,12 L-3,5 Z " fill="#E0E0E0" transform="translate(14,3)"/>
<path d="M0,0 L3,0 L3,5 L-1,6 L-2,1 Z " fill="#131313" transform="translate(14,14)"/>
<path d="M0,0 L2,2 L6,2 L7,5 L2,6 L0,4 Z " fill="#D4D4D4" transform="translate(11,17)"/>
</svg>
