<?xml version="1.0" encoding="UTF-8"?>
<svg version="1.1" xmlns="http://www.w3.org/2000/svg" width="28" height="28">
<path d="M0,0 L28,0 L28,28 L0,28 Z " fill="#030303" transform="translate(0,0)"/>
<path d="M0,0 L2,0 L2,3 L-2,7 L-2,9 L3,10 L3,18 L0,20 L-4,20 L-6,16 L-5,9 L-2,2 Z " fill="#E8E8E8" transform="translate(16,4)"/>
<path d="M0,0 L3,0 L4,5 L0,7 L-2,5 L-1,1 Z " fill="#121212" transform="translate(14,15)"/>
<path d="M0,0 L3,3 L8,2 L7,5 L1,6 Z " fill="#C9C9C9" transform="translate(11,18)"/>
</svg>
