<?xml version="1.0" encoding="UTF-8"?>
<svg version="1.1" xmlns="http://www.w3.org/2000/svg" width="28" height="28">
<path d="M0,0 L28,0 L28,28 L0,28 Z " fill="#040404" transform="translate(0,0)"/>
<path d="M0,0 L2,0 L2,3 L-3,5 L-8,13 L-1,12 L1,14 L0,18 L-4,20 L-11,19 L-12,14 L-8,7 Z " fill="#B9B9B9" transform="translate(19,2)"/>
<path d="M0,0 L1,2 L3,3 L1,3 L1,6 L8,4 L8,1 L11,2 L10,6 L6,8 L-1,7 L-2,2 Z " fill="#D7D7D7" transform="translate(9,14)"/>
<path d="M0,0 L2,0 L2,3 L-3,5 L-7,9 L-6,5 Z " fill="#CACACA" transform="translate(19,2)"/>
<path d="M0,0 L3,0 L2,3 L-5,4 L-5,1 Z " fill="#131313" transform="translate(15,16)"/>
</svg>
