<?xml version="1.0" encoding="UTF-8"?>
<svg version="1.1" xmlns="http://www.w3.org/2000/svg" width="28" height="28">
<path d="M0,0 L28,0 L28,28 L0,28 Z " fill="#020202" transform="translate(0,0)"/>
<path d="M0,0 L2,0 L1,5 L-4,10 L2,12 L1,17 L-3,20 L-10,19 L-11,15 L-2,4 Z " fill="#D9D9D9" transform="translate(18,2)"/>
<path d="M0,0 L2,0 L1,5 L-4,10 L-5,14 L-9,16 L-9,12 L-1,3 Z " fill="#EEEEEE" transform="translate(18,2)"/>
<path d="M0,0 L3,1 L2,5 L1,6 L-5,6 L-5,3 Z " fill="#151515" transform="translate(15,14)"/>
<path d="M0,0 L2,0 L1,5 L-1,7 L-4,6 L-1,3 Z " fill="#D1D1D1" transform="translate(18,2)"/>
</svg>
