<?xml version="1.0" encoding="UTF-8"?>
<svg version="1.1" xmlns="http://www.w3.org/2000/svg" width="28" height="28">
<path d="M0,0 L28,0 L28,28 L0,28 Z " fill="#020202" transform="translate(0,0)"/>
<path d="M0,0 L3,1 L4,5 L-1,4 L-3,6 L-5,15 L0,11 L4,12 L3,16 L-1,19 L-5,20 L-8,18 L-7,9 L-4,3 Z " fill="#D4D4D4" transform="translate(17,3)"/>
<path d="M0,0 L4,1 L3,5 L1,6 L-3,5 L-2,1 Z " fill="#B1B1B1" transform="translate(17,14)"/>
<path d="M0,0 L1,2 L5,2 L5,4 L-1,6 L-3,5 L-3,3 L-1,3 Z " fill="#F7F7F7" transform="translate(13,17)"/>
</svg>
