<?xml version="1.0" encoding="UTF-8"?>
<svg version="1.1" xmlns="http://www.w3.org/2000/svg" width="28" height="28">
<path d="M0,0 L28,0 L28,28 L0,28 Z " fill="#020202" transform="translate(0,0)"/>
<path d="M0,0 L2,0 L1,4 L-1,8 L-1,16 L4,18 L3,11 L6,7 L10,8 L11,9 L10,16 L12,17 L5,20 L-1,20 L-4,17 L-4,7 Z " fill="#DADADA" transform="translate(12,2)"/>
<path d="M0,0 L4,1 L2,9 L-1,9 L-1,6 L-3,6 L-1,1 Z " fill="#BFBFBF" transform="translate(18,9)"/>
<path d="M0,0 L1,0 L0,7 L2,8 L-4,10 L-1,1 Z " fill="#C5C5C5" transform="translate(22,11)"/>
<path d="M0,0 L2,0 L2,3 L4,4 L2,7 L-3,7 L-3,5 L1,5 Z " fill="#F0F0F0" transform="translate(15,15)"/>
<path d="M0,0 L2,0 L1,7 L-2,7 Z " fill="#1B1B1B" transform="translate(19,11)"/>
</svg>
