<?xml version="1.0" encoding="UTF-8"?>
<svg version="1.1" xmlns="http://www.w3.org/2000/svg" width="28" height="28">
<path d="M0,0 L28,0 L28,28 L0,28 Z " fill="#030303" transform="translate(0,0)"/>
<path d="M0,0 L2,0 L2,11 L5,8 L10,8 L11,13 L8,18 L6,20 L2,19 L-1,15 L-1,1 Z " fill="#EAEAEA" transform="translate(11,3)"/>
<path d="M0,0 L2,0 L2,5 L0,7 L-3,7 L-2,2 Z " fill="#151515" transform="translate(17,13)"/>
<path d="M0,0 L2,0 L1,10 L-1,8 L-1,1 Z " fill="#D9D9D9" transform="translate(11,3)"/>
</svg>
