<?xml version="1.0" encoding="UTF-8"?>
<svg version="1.1" xmlns="http://www.w3.org/2000/svg" width="28" height="28">
<path d="M0,0 L28,0 L28,28 L0,28 Z " fill="#030303" transform="translate(0,0)"/>
<path d="M0,0 L1,0 L1,12 L6,9 L10,9 L10,15 L6,19 L-1,20 L-2,19 L-2,8 L-1,1 Z " fill="#CECECE" transform="translate(12,2)"/>
<path d="M0,0 L1,0 L1,18 L-2,19 L-2,8 L-1,1 Z " fill="#DBDBDB" transform="translate(12,2)"/>
<path d="M0,0 L3,0 L1,5 L-5,6 L-3,2 Z " fill="#101010" transform="translate(18,13)"/>
</svg>
