<?xml version="1.0" encoding="UTF-8"?>
<svg version="1.1" xmlns="http://www.w3.org/2000/svg" width="28" height="28">
<path d="M0,0 L28,0 L28,28 L0,28 Z " fill="#020202" transform="translate(0,0)"/>
<path d="M0,0 L3,0 L2,4 L0,4 L0,15 L3,12 L10,13 L12,15 L11,19 L8,20 L1,20 L-3,16 L-4,8 L-1,1 Z " fill="#E2E2E2" transform="translate(12,2)"/>
<path d="M0,0 L5,2 L6,6 L0,8 L-3,6 L-2,2 Z " fill="#CFCFCF" transform="translate(18,14)"/>
<path d="M0,0 L5,1 L5,4 L-1,4 Z " fill="#0C0C0C" transform="translate(16,16)"/>
<path d="M0,0 L3,0 L2,4 L0,4 L-1,6 L-2,2 Z " fill="#CDCDCD" transform="translate(12,2)"/>
</svg>
