<?xml version="1.0" encoding="UTF-8"?>
<svg version="1.1" xmlns="http://www.w3.org/2000/svg" width="28" height="28">
<path d="M0,0 L28,0 L28,28 L0,28 Z " fill="#010101" transform="translate(0,0)"/>
<path d="M0,0 L1,3 L-1,11 L-1,15 L2,11 L7,12 L10,15 L9,19 L8,20 L0,20 L-4,16 L-4,6 Z " fill="#E6E6E6" transform="translate(13,2)"/>
<path d="M0,0 L4,1 L5,5 L0,6 L-1,1 Z " fill="#151515" transform="translate(16,15)"/>
<path d="M0,0 L1,3 L-1,11 L-4,10 L-3,5 Z " fill="#C6C6C6" transform="translate(13,2)"/>
<path d="M0,0 L4,0 L4,2 L1,3 L0,6 L-3,5 Z " fill="#CBCBCB" transform="translate(15,13)"/>
</svg>
