<?xml version="1.0" encoding="UTF-8"?>
<svg version="1.1" xmlns="http://www.w3.org/2000/svg" width="28" height="28">
<path d="M0,0 L28,0 L28,28 L0,28 Z " fill="#010101" transform="translate(0,0)"/>
<path d="M0,0 L2,0 L0,7 L0,12 L1,11 L6,11 L10,16 L8,20 L1,20 L-4,16 L-4,7 Z " fill="#C0C0C0" transform="translate(13,2)"/>
<path d="M0,0 L5,0 L9,5 L7,9 L3,7 L6,7 L4,3 L0,2 L-1,6 L-1,1 Z " fill="#DCDCDC" transform="translate(14,13)"/>
<path d="M0,0 L2,0 L-1,11 L-3,15 L-3,5 Z " fill="#E8E8E8" transform="translate(13,2)"/>
<path d="M0,0 L5,1 L6,5 L0,5 Z " fill="#111111" transform="translate(14,15)"/>
</svg>
