<?xml version="1.0" encoding="UTF-8"?>
<svg version="1.1" xmlns="http://www.w3.org/2000/svg" width="28" height="28">
<path d="M0,0 L28,0 L28,28 L0,28 Z " fill="#030303" transform="translate(0,0)"/>
<path d="M0,0 L3,0 L1,6 L-5,14 L-6,19 L-3,19 L-1,15 L1,13 L5,13 L5,20 L-9,20 L-9,14 L-3,5 Z " fill="#DEDEDE" transform="translate(16,2)"/>
<path d="M0,0 L4,0 L4,7 L-3,7 L-3,3 Z " fill="#E9E9E9" transform="translate(17,15)"/>
<path d="M0,0 L3,0 L4,4 L-2,4 Z " fill="#818181" transform="translate(17,18)"/>
</svg>
