<?xml version="1.0" encoding="UTF-8"?>
<svg version="1.1" xmlns="http://www.w3.org/2000/svg" width="28" height="28">
<path d="M0,0 L28,0 L28,28 L0,28 Z " fill="#040404" transform="translate(0,0)"/>
<path d="M0,0 L3,0 L2,4 L-2,9 L-3,15 L0,15 L2,10 L5,6 L10,6 L12,9 L12,15 L8,19 L1,20 L-5,16 L-6,15 L-5,6 L-4,4 L-2,4 Z " fill="#E7E7E7" transform="translate(12,3)"/>
<path d="M0,0 L5,0 L7,3 L7,9 L3,13 L1,13 L1,11 L-2,10 L-4,5 Z " fill="#D8D8D8" transform="translate(17,9)"/>
<path d="M0,0 L3,0 L2,4 L-3,9 L-5,8 L-4,4 L-2,4 Z " fill="#CBCBCB" transform="translate(12,3)"/>
<path d="M0,0 L2,1 L2,6 L1,7 L-4,7 L-2,2 Z " fill="#090909" transform="translate(19,12)"/>
</svg>
