<?xml version="1.0" encoding="UTF-8"?>
<svg version="1.1" xmlns="http://www.w3.org/2000/svg" width="28" height="28">
<path d="M0,0 L28,0 L28,28 L0,28 Z " fill="#010101" transform="translate(0,0)"/>
<path d="M0,0 L3,0 L3,2 L0,5 L-3,12 L-3,17 L2,17 L4,15 L-1,17 L1,13 L2,12 L7,12 L6,17 L2,20 L-4,20 L-5,18 L-5,9 L-1,1 Z " fill="#D4D4D4" transform="translate(15,2)"/>
<path d="M0,0 L3,0 L3,2 L0,5 L-2,10 L-4,9 L-2,3 Z " fill="#BCBCBC" transform="translate(15,2)"/>
<path d="M0,0 L4,4 L6,2 L9,3 L6,6 L1,6 L0,5 Z " fill="#292929" transform="translate(11,14)"/>
</svg>
