<?xml version="1.0" encoding="UTF-8"?>
<svg version="1.1" xmlns="http://www.w3.org/2000/svg" width="28" height="28">
<path d="M0,0 L28,0 L28,28 L0,28 Z " fill="#010101" transform="translate(0,0)"/>
<path d="M0,0 L2,1 L0,6 L-4,12 L-4,17 L-3,12 L-1,12 L-1,10 L2,10 L2,12 L0,12 L-1,17 L1,17 L2,13 L4,13 L2,18 L0,20 L-6,20 L-8,17 L-7,10 L-6,8 L-4,8 L-2,2 Z " fill="#E0E0E0" transform="translate(17,3)"/>
<path d="M0,0 L6,0 L5,6 L4,8 L2,8 L3,3 L5,3 L5,1 L2,1 L2,3 L0,3 L0,9 L-2,8 L-1,1 Z " fill="#121212" transform="translate(14,12)"/>
<path d="M0,0 L3,0 L2,6 L1,8 L-1,8 L0,3 L2,3 L2,1 Z " fill="#707070" transform="translate(17,12)"/>
</svg>
