<?xml version="1.0" encoding="UTF-8"?>
<svg version="1.1" xmlns="http://www.w3.org/2000/svg" width="28" height="28">
<path d="M0,0 L28,0 L28,28 L0,28 Z " fill="#020202" transform="translate(0,0)"/>
<path d="M0,0 L2,0 L2,3 L-2,7 L-2,15 L-1,16 L6,16 L8,15 L7,12 L2,12 L2,15 L-1,14 L0,10 L3,8 L8,9 L11,13 L10,18 L6,20 L0,20 L-5,15 L-5,6 Z " fill="#D8D8D8" transform="translate(12,2)"/>
<path d="M0,0 L5,0 L7,4 L4,6 L-3,6 Z " fill="#1F1F1F" transform="translate(14,13)"/>
<path d="M0,0 L1,0 L3,7 L8,8 L6,9 L6,11 L2,9 L-1,6 Z " fill="#B8B8B8" transform="translate(8,11)"/>
<path d="M0,0 L3,0 L2,3 L-4,4 L-4,2 Z " fill="#ECECEC" transform="translate(18,18)"/>
</svg>
