<?xml version="1.0" encoding="UTF-8"?>
<svg version="1.1" xmlns="http://www.w3.org/2000/svg" width="28" height="28">
<path d="M0,0 L28,0 L28,28 L0,28 Z " fill="#030303" transform="translate(0,0)"/>
<path d="M0,0 L2,0 L1,4 L-1,4 L-2,7 L-6,11 L-8,11 L-10,15 L-12,18 L-9,18 L-7,14 L-4,11 L-1,11 L-2,16 L-7,20 L-14,20 L-14,15 L-3,3 Z " fill="#D4D4D4" transform="translate(21,2)"/>
<path d="M0,0 L3,0 L2,5 L-1,8 L-5,7 L-1,4 L-1,3 Z " fill="#F1F1F1" transform="translate(17,13)"/>
<path d="M0,0 L1,4 L-1,4 L-3,8 L-4,10 L-7,10 L-5,6 Z " fill="#1C1C1C" transform="translate(16,10)"/>
</svg>
