<?xml version="1.0" encoding="UTF-8"?>
<svg version="1.1" xmlns="http://www.w3.org/2000/svg" width="28" height="28">
<path d="M0,0 L28,0 L28,28 L0,28 Z " fill="#010101" transform="translate(0,0)"/>
<path d="M0,0 L2,0 L0,6 L-7,16 L-8,18 L-6,17 L-3,12 L1,11 L2,14 L-2,19 L-10,20 L-9,13 Z " fill="#E4E4E4" transform="translate(18,2)"/>
<path d="M0,0 L3,1 L1,6 L-1,7 L-4,5 L-2,1 Z " fill="#C1C1C1" transform="translate(17,13)"/>
<path d="M0,0 L2,0 L0,6 L-4,10 L-6,10 L-4,5 Z " fill="#C6C6C6" transform="translate(18,2)"/>
</svg>
