<?xml version="1.0" encoding="UTF-8"?>
<svg version="1.1" xmlns="http://www.w3.org/2000/svg" width="28" height="28">
<path d="M0,0 L28,0 L28,28 L0,28 Z " fill="#030303" transform="translate(0,0)"/>
<path d="M0,0 L2,0 L1,4 L-3,9 L2,9 L3,13 L-2,18 L-5,20 L-10,20 L-11,15 L-5,6 Z " fill="#E4E4E4" transform="translate(18,2)"/>
<path d="M0,0 L3,1 L2,6 L-3,9 L-5,8 L-5,6 L-3,6 L-3,4 L-8,6 L-5,1 Z " fill="#9F9F9F" transform="translate(18,11)"/>
<path d="M0,0 L3,1 L2,5 L1,3 L-4,3 L-3,1 Z " fill="#F0F0F0" transform="translate(18,11)"/>
</svg>
