<?xml version="1.0" encoding="UTF-8"?>
<svg version="1.1" xmlns="http://www.w3.org/2000/svg" width="28" height="28">
<path d="M0,0 L28,0 L28,28 L0,28 Z " fill="#030303" transform="translate(0,0)"/>
<path d="M0,0 L2,0 L2,3 L0,3 L-1,7 L-3,7 L-3,11 L-1,9 L2,9 L1,15 L-4,18 L-5,20 L-7,20 L-8,13 L-4,5 Z " fill="#D7D7D7" transform="translate(18,3)"/>
<path d="M0,0 L3,0 L2,6 L-1,8 L-5,6 L-4,3 Z " fill="#ACACAC" transform="translate(17,12)"/>
<path d="M0,0 L4,0 L4,2 L6,3 L3,6 L1,6 Z " fill="#EFEFEF" transform="translate(10,17)"/>
</svg>
