<?xml version="1.0" encoding="UTF-8"?>
<svg version="1.1" xmlns="http://www.w3.org/2000/svg" width="28" height="28">
<path d="M0,0 L28,0 L28,28 L0,28 Z " fill="#020202" transform="translate(0,0)"/>
<path d="M0,0 L2,0 L0,5 L-2,8 L4,10 L5,14 L3,18 L-1,20 L-7,20 L-8,19 L-8,12 L-1,1 Z " fill="#E4E4E4" transform="translate(17,3)"/>
<path d="M0,0 L5,1 L5,5 L-3,7 L-3,1 Z " fill="#0B0B0B" transform="translate(14,14)"/>
<path d="M0,0 L6,1 L7,5 L5,9 L2,10 L-2,8 L4,7 L3,3 Z " fill="#CACACA" transform="translate(15,12)"/>
</svg>
