<?xml version="1.0" encoding="UTF-8"?>
<svg version="1.1" xmlns="http://www.w3.org/2000/svg" width="28" height="28">
<path d="M0,0 L28,0 L28,28 L0,28 Z " fill="#030303" transform="translate(0,0)"/>
<path d="M0,0 L3,0 L3,3 L-1,5 L-4,12 L-5,17 L-2,17 L-1,15 L-1,18 L4,15 L5,13 L2,11 L7,10 L7,15 L2,20 L-4,20 L-7,17 L-7,8 L-3,2 Z " fill="#E4E4E4" transform="translate(15,3)"/>
<path d="M0,0 L5,2 L2,7 L-2,8 L-6,7 L-5,5 Z " fill="#C2C2C2" transform="translate(16,13)"/>
<path d="M0,0 L4,1 L1,5 L-2,5 L-1,1 Z " fill="#1A1A1A" transform="translate(17,15)"/>
</svg>
