<?xml version="1.0" encoding="UTF-8"?>
<svg version="1.1" xmlns="http://www.w3.org/2000/svg" width="28" height="28">
<path d="M0,0 L28,0 L28,28 L0,28 Z " fill="#020202" transform="translate(0,0)"/>
<path d="M0,0 L2,0 L1,10 L0,17 L2,17 L4,11 L7,8 L14,7 L15,12 L10,18 L6,20 L-1,19 L-3,16 L-1,2 Z " fill="#DCDCDC" transform="translate(10,2)"/>
<path d="M0,0 L2,0 L1,10 L0,17 L2,18 L-1,19 L-3,16 L-1,2 Z " fill="#D1D1D1" transform="translate(10,2)"/>
<path d="M0,0 L3,0 L2,4 L-1,5 L-1,7 L-5,6 L-2,1 Z " fill="#0E0E0E" transform="translate(19,12)"/>
<path d="M0,0 L1,2 L-1,6 L2,7 L1,8 L-4,8 L-5,6 L-3,6 L-2,1 Z " fill="#EEEEEE" transform="translate(15,14)"/>
<path d="M0,0 L6,1 L5,4 L5,2 L0,3 L-1,5 L-3,5 L-1,1 Z " fill="#B4B4B4" transform="translate(17,10)"/>
<path d="M0,0 L2,0 L1,10 L-1,6 Z " fill="#B4B4B4" transform="translate(10,2)"/>
</svg>
