<?xml version="1.0" encoding="UTF-8"?>
<svg version="1.1" xmlns="http://www.w3.org/2000/svg" width="28" height="28">
<path d="M0,0 L28,0 L28,28 L0,28 Z " fill="#030303" transform="translate(0,0)"/>
<path d="M0,0 L2,0 L2,13 L6,9 L11,9 L13,11 L13,17 L8,20 L1,20 L-1,18 L-1,9 Z " fill="#E3E3E3" transform="translate(10,2)"/>
<path d="M0,0 L5,0 L7,4 L5,4 L4,7 L-2,8 L-4,4 Z " fill="#E7E7E7" transform="translate(16,11)"/>
<path d="M0,0 L4,1 L3,4 L-3,5 L-1,1 Z " fill="#1E1E1E" transform="translate(17,14)"/>
</svg>
