<?xml version="1.0" encoding="UTF-8"?>
<svg version="1.1" xmlns="http://www.w3.org/2000/svg" width="28" height="28">
<path d="M0,0 L28,0 L28,28 L0,28 Z " fill="#020202" transform="translate(0,0)"/>
<path d="M0,0 L2,0 L1,5 L-2,12 L-2,16 L1,15 L5,10 L10,11 L11,12 L11,18 L8,20 L0,20 L-5,17 L-5,10 Z " fill="#DADADA" transform="translate(12,1)"/>
<path d="M0,0 L5,1 L6,2 L6,8 L1,10 L-4,5 Z " fill="#DDDDDD" transform="translate(17,11)"/>
<path d="M0,0 L4,0 L4,4 L-2,4 Z " fill="#1D1D1D" transform="translate(17,14)"/>
</svg>
