<?xml version="1.0" encoding="UTF-8"?>
<svg version="1.1" xmlns="http://www.w3.org/2000/svg" width="28" height="28">
<path d="M0,0 L28,0 L28,28 L0,28 Z " fill="#020202" transform="translate(0,0)"/>
<path d="M0,0 L3,0 L2,4 L0,4 L-2,8 L-2,11 L0,10 L6,10 L7,12 L7,18 L5,20 L-1,20 L-6,15 L-6,8 Z " fill="#BFBFBF" transform="translate(14,3)"/>
<path d="M0,0 L3,0 L2,4 L0,4 L-3,10 L-4,15 L-6,15 L-6,8 Z " fill="#DFDFDF" transform="translate(14,3)"/>
<path d="M0,0 L4,0 L4,5 L-3,5 L-2,1 Z " fill="#0F0F0F" transform="translate(15,15)"/>
<path d="M0,0 L6,0 L7,6 L5,3 L-1,3 L-2,5 L-2,1 Z " fill="#E4E4E4" transform="translate(14,13)"/>
</svg>
