<?xml version="1.0" encoding="UTF-8"?>
<svg version="1.1" xmlns="http://www.w3.org/2000/svg" width="28" height="28">
<path d="M0,0 L28,0 L28,28 L0,28 Z " fill="#010101" transform="translate(0,0)"/>
<path d="M0,0 L3,0 L2,4 L0,9 L0,15 L3,16 L4,11 L9,9 L11,11 L10,17 L5,20 L-1,19 L-3,16 L-3,9 Z " fill="#BFBFBF" transform="translate(11,2)"/>
<path d="M0,0 L4,2 L3,8 L-2,8 L-3,2 Z " fill="#9E9E9E" transform="translate(18,11)"/>
<path d="M0,0 L2,0 L4,3 L6,5 L2,7 L-4,6 L-4,4 L0,4 Z " fill="#E8E8E8" transform="translate(14,15)"/>
</svg>
