<?xml version="1.0" encoding="UTF-8"?>
<svg version="1.1" xmlns="http://www.w3.org/2000/svg" width="28" height="28">
<path d="M0,0 L28,0 L28,28 L0,28 Z " fill="#020202" transform="translate(0,0)"/>
<path d="M0,0 L1,0 L2,11 L4,8 L9,8 L12,11 L11,16 L5,20 L1,19 L-2,14 L-2,3 Z " fill="#EAEAEA" transform="translate(11,3)"/>
<path d="M0,0 L5,0 L8,3 L7,8 L1,12 L-3,11 L-4,8 L2,8 L4,6 L4,3 Z " fill="#DFDFDF" transform="translate(15,11)"/>
<path d="M0,0 L3,1 L2,5 L0,7 L-4,6 L-2,1 Z " fill="#121212" transform="translate(17,13)"/>
<path d="M0,0 L1,0 L1,12 L0,12 L-1,6 L-2,3 Z " fill="#B1B1B1" transform="translate(11,3)"/>
</svg>
