<?xml version="1.0" encoding="UTF-8"?>
<svg version="1.1" xmlns="http://www.w3.org/2000/svg" width="28" height="28">
<path d="M0,0 L28,0 L28,28 L0,28 Z " fill="#020202" transform="translate(0,0)"/>
<path d="M0,0 L2,0 L1,15 L4,15 L5,11 L7,11 L7,9 L10,9 L11,16 L7,20 L1,19 L-1,16 L-1,1 Z " fill="#EEEEEE" transform="translate(10,2)"/>
<path d="M0,0 L3,0 L4,3 L1,7 L-3,6 L-2,2 L0,2 Z " fill="#8C8C8C" transform="translate(17,11)"/>
<path d="M0,0 L2,0 L1,11 L-1,12 L-1,1 Z " fill="#B2B2B2" transform="translate(10,2)"/>
</svg>
