<?xml version="1.0" encoding="UTF-8"?>
<svg version="1.1" xmlns="http://www.w3.org/2000/svg" width="28" height="28">
<path d="M0,0 L28,0 L28,28 L0,28 Z " fill="#050505" transform="translate(0,0)"/>
<path d="M0,0 L2,0 L1,5 L0,14 L2,17 L5,18 L5,12 L10,7 L14,8 L15,9 L15,16 L14,18 L12,18 L12,20 L0,20 L-3,16 L-3,6 L-1,1 Z " fill="#E1E1E1" transform="translate(9,2)"/>
<path d="M0,0 L2,0 L1,5 L0,14 L2,17 L7,16 L7,18 L10,18 L10,20 L0,20 L-3,16 L-3,6 L-1,1 Z " fill="#ECECEC" transform="translate(9,2)"/>
<path d="M0,0 L3,0 L2,5 L0,7 L-3,7 L-1,1 Z " fill="#1E1E1E" transform="translate(19,13)"/>
</svg>
