<?xml version="1.0" encoding="UTF-8"?>
<svg version="1.1" xmlns="http://www.w3.org/2000/svg" width="28" height="28">
<path d="M0,0 L28,0 L28,28 L0,28 Z " fill="#050505" transform="translate(0,0)"/>
<path d="M0,0 L2,0 L1,7 L0,13 L2,11 L7,11 L8,16 L6,19 L-2,20 L-4,17 L-2,4 Z " fill="#E2E2E2" transform="translate(13,3)"/>
<path d="M0,0 L2,0 L1,7 L-1,15 L-3,15 L-3,8 Z " fill="#E4E4E4" transform="translate(13,3)"/>
<path d="M0,0 L3,0 L2,4 L-2,5 Z " fill="#1F1F1F" transform="translate(16,16)"/>
</svg>
