<?xml version="1.0" encoding="UTF-8"?>
<svg version="1.1" xmlns="http://www.w3.org/2000/svg" width="28" height="28">
<path d="M0,0 L28,0 L28,28 L0,28 Z " fill="#040404" transform="translate(0,0)"/>
<path d="M0,0 L2,1 L-1,7 L-1,16 L2,17 L2,11 L5,8 L10,9 L10,15 L7,19 L-1,20 L-4,16 L-4,7 L-1,1 Z " fill="#E6E6E6" transform="translate(12,2)"/>
<path d="M0,0 L5,1 L5,7 L3,9 L2,7 L3,2 L0,2 L-1,8 L-3,6 L-2,2 Z " fill="#E0E0E0" transform="translate(17,10)"/>
<path d="M0,0 L2,1 L1,6 L0,8 L-3,8 L-2,1 Z " fill="#191919" transform="translate(19,11)"/>
</svg>
