<?xml version="1.0" encoding="UTF-8"?>
<svg version="1.1" xmlns="http://www.w3.org/2000/svg" width="28" height="28">
<path d="M0,0 L28,0 L28,28 L0,28 Z " fill="#020202" transform="translate(0,0)"/>
<path d="M0,0 L3,1 L2,10 L1,15 L5,10 L10,10 L10,17 L7,20 L-1,20 L-2,19 L-2,9 Z " fill="#F3F3F3" transform="translate(12,2)"/>
<path d="M0,0 L5,0 L3,2 L3,7 L-2,8 L-5,7 Z " fill="#D0D0D0" transform="translate(17,12)"/>
<path d="M0,0 L3,1 L2,10 L0,12 L-2,12 Z " fill="#CBCBCB" transform="translate(12,2)"/>
<path d="M0,0 L2,0 L2,5 L-2,6 L-1,1 Z " fill="#282828" transform="translate(18,14)"/>
</svg>
