<?xml version="1.0" encoding="UTF-8"?>
<svg version="1.1" xmlns="http://www.w3.org/2000/svg" width="28" height="28">
<path d="M0,0 L28,0 L28,28 L0,28 Z " fill="#030303" transform="translate(0,0)"/>
<path d="M0,0 L3,0 L2,4 L-1,16 L2,15 L6,9 L11,9 L10,15 L4,20 L2,20 L2,18 L-3,17 L-4,16 L-3,7 Z " fill="#D6D6D6" transform="translate(12,3)"/>
<path d="M0,0 L5,0 L5,3 L1,3 L-2,6 L-3,4 Z " fill="#F1F1F1" transform="translate(18,12)"/>
<path d="M0,0 L4,2 L0,6 L-2,5 Z " fill="#989898" transform="translate(19,14)"/>
<path d="M0,0 L3,0 L2,4 L1,6 L-1,6 Z " fill="#DADADA" transform="translate(12,3)"/>
</svg>
