<?xml version="1.0" encoding="UTF-8"?>
<svg version="1.1" xmlns="http://www.w3.org/2000/svg" width="28" height="28">
<path d="M0,0 L28,0 L28,28 L0,28 Z " fill="#040404" transform="translate(0,0)"/>
<path d="M0,0 L2,0 L1,5 L-1,9 L-1,14 L3,16 L5,12 L9,9 L14,10 L15,15 L12,18 L8,19 L1,19 L-4,16 L-5,9 L-1,1 Z " fill="#ECECEC" transform="translate(11,2)"/>
<path d="M0,0 L5,1 L6,6 L3,9 L0,9 L0,7 L-3,7 L-1,3 L1,2 Z " fill="#D2D2D2" transform="translate(20,11)"/>
<path d="M0,0 L4,0 L3,3 L-2,4 Z " fill="#2A2A2A" transform="translate(19,14)"/>
</svg>
