<?xml version="1.0" encoding="UTF-8"?>
<svg version="1.1" xmlns="http://www.w3.org/2000/svg" width="28" height="28">
<path d="M0,0 L28,0 L28,28 L0,28 Z " fill="#020202" transform="translate(0,0)"/>
<path d="M0,0 L3,0 L1,6 L-1,12 L3,11 L3,17 L-1,20 L-5,20 L-5,12 Z " fill="#CDCDCD" transform="translate(16,2)"/>
<path d="M0,0 L2,0 L2,5 L-2,8 L-6,8 L-6,2 L-3,3 L-2,5 Z " fill="#ECECEC" transform="translate(17,14)"/>
<path d="M0,0 L3,1 L1,3 L-1,7 L-4,5 L-2,1 Z " fill="#868686" transform="translate(16,13)"/>
</svg>
