<?xml version="1.0" encoding="UTF-8"?>
<svg version="1.1" xmlns="http://www.w3.org/2000/svg" width="28" height="28">
<path d="M0,0 L28,0 L28,28 L0,28 Z " fill="#020202" transform="translate(0,0)"/>
<path d="M0,0 L2,0 L1,15 L3,11 L6,9 L11,10 L12,11 L12,16 L9,19 L3,20 L-2,16 L-1,1 Z " fill="#F4F4F4" transform="translate(11,2)"/>
<path d="M0,0 L2,0 L1,11 L-2,11 L-1,1 Z " fill="#E2E2E2" transform="translate(11,2)"/>
<path d="M0,0 L3,0 L2,5 L-1,6 L-2,2 Z " fill="#0B0B0B" transform="translate(17,14)"/>
<path d="M0,0 L5,1 L6,2 L6,7 L3,6 L3,3 L1,2 Z " fill="#B5B5B5" transform="translate(17,11)"/>
</svg>
