<?xml version="1.0" encoding="UTF-8"?>
<svg version="1.1" xmlns="http://www.w3.org/2000/svg" width="28" height="28">
<path d="M0,0 L28,0 L28,28 L0,28 Z " fill="#040404" transform="translate(0,0)"/>
<path d="M0,0 L5,1 L5,8 L3,7 L3,3 L-2,7 L-3,13 L1,15 L2,11 L7,8 L12,8 L13,14 L9,19 L0,19 L-6,16 L-7,15 L-6,6 L-1,1 Z " fill="#E6E6E6" transform="translate(12,3)"/>
<path d="M0,0 L5,1 L5,8 L3,7 L3,3 L-2,7 L-3,13 L-2,15 L-3,17 L-7,15 L-6,6 L-1,1 Z " fill="#E2E2E2" transform="translate(12,3)"/>
<path d="M0,0 L4,0 L4,3 L-2,4 Z " fill="#131313" transform="translate(18,14)"/>
<path d="M0,0 L5,0 L6,6 L3,6 L3,1 Z " fill="#D0D0D0" transform="translate(19,11)"/>
</svg>
