<?xml version="1.0" encoding="UTF-8"?>
<svg version="1.1" xmlns="http://www.w3.org/2000/svg" width="28" height="28">
<path d="M0,0 L28,0 L28,28 L0,28 Z " fill="#020202" transform="translate(0,0)"/>
<path d="M0,0 L3,1 L2,4 L2,12 L5,13 L5,11 L7,10 L15,10 L18,13 L18,19 L6,19 L0,15 L-2,10 L-2,3 Z " fill="#E3E3E3" transform="translate(7,2)"/>
<path d="M0,0 L3,1 L2,4 L2,13 L-1,12 L-2,10 L-2,3 Z " fill="#F2F2F2" transform="translate(7,2)"/>
<path d="M0,0 L5,0 L6,3 L-1,2 Z " fill="#474747" transform="translate(16,15)"/>
</svg>
