<?xml version="1.0" encoding="UTF-8"?>
<svg version="1.1" xmlns="http://www.w3.org/2000/svg" width="28" height="28">
<path d="M0,0 L28,0 L28,28 L0,28 Z " fill="#020202" transform="translate(0,0)"/>
<path d="M0,0 L2,0 L2,2 L0,2 L-2,6 L-4,11 L1,11 L2,15 L-3,20 L-8,19 L-8,12 L-3,3 Z " fill="#D3D3D3" transform="translate(18,3)"/>
<path d="M0,0 L3,0 L2,4 L0,6 L-4,6 L-3,2 Z " fill="#121212" transform="translate(15,15)"/>
<path d="M0,0 L1,4 L-3,7 L-7,6 L-1,2 Z " fill="#B5B5B5" transform="translate(18,16)"/>
</svg>
