<?xml version="1.0" encoding="UTF-8"?>
<svg version="1.1" xmlns="http://www.w3.org/2000/svg" width="28" height="28">
<path d="M0,0 L28,0 L28,28 L0,28 Z " fill="#040404" transform="translate(0,0)"/>
<path d="M0,0 L3,0 L1,4 L-3,5 L-3,7 L-11,13 L-12,17 L-7,17 L-6,13 L-4,11 L2,11 L1,15 L-3,19 L-5,20 L-13,20 L-15,18 L-15,13 L-7,5 Z " fill="#E6E6E6" transform="translate(20,2)"/>
<path d="M0,0 L3,1 L-1,5 L-2,8 L-4,8 L-3,3 Z " fill="#F6F6F6" transform="translate(10,10)"/>
<path d="M0,0 L1,3 L3,3 L4,5 L7,7 L2,7 L0,5 Z " fill="#B5B5B5" transform="translate(5,15)"/>
<path d="M0,0 L2,1 L2,5 L-2,5 L-2,2 Z " fill="#B8B8B8" transform="translate(16,13)"/>
</svg>
