<?xml version="1.0" encoding="UTF-8"?>
<svg version="1.1" xmlns="http://www.w3.org/2000/svg" width="28" height="28">
<path d="M0,0 L28,0 L28,28 L0,28 Z " fill="#030303" transform="translate(0,0)"/>
<path d="M0,0 L3,0 L1,5 L-6,11 L-8,11 L-10,16 L-5,11 L0,11 L1,17 L-7,20 L-13,18 L-14,16 L-10,10 Z " fill="#E1E1E1" transform="translate(20,2)"/>
<path d="M0,0 L5,0 L6,6 L3,7 L3,5 L-1,6 L-3,5 L-1,1 Z " fill="#E3E3E3" transform="translate(15,13)"/>
<path d="M0,0 L1,4 L-2,5 L-2,3 L-5,2 Z " fill="#909090" transform="translate(20,15)"/>
</svg>
