<?xml version="1.0" encoding="UTF-8"?>
<svg version="1.1" xmlns="http://www.w3.org/2000/svg" width="28" height="28">
<path d="M0,0 L28,0 L28,28 L0,28 Z " fill="#030303" transform="translate(0,0)"/>
<path d="M0,0 L2,0 L0,5 L-6,13 L-3,11 L2,12 L4,13 L3,17 L-6,20 L-12,19 L-11,13 L-3,4 Z " fill="#E3E3E3" transform="translate(19,2)"/>
<path d="M0,0 L2,0 L0,5 L-6,12 L-8,12 L-6,7 Z " fill="#E7E7E7" transform="translate(19,2)"/>
<path d="M0,0 L3,0 L2,4 L-1,5 L-5,4 L-4,1 Z " fill="#929292" transform="translate(20,15)"/>
<path d="M0,0 L3,1 L2,6 L0,6 L-2,2 Z " fill="#888888" transform="translate(10,13)"/>
</svg>
