<?xml version="1.0" encoding="UTF-8"?>
<svg version="1.1" xmlns="http://www.w3.org/2000/svg" width="28" height="28">
<path d="M0,0 L28,0 L28,28 L0,28 Z " fill="#020202" transform="translate(0,0)"/>
<path d="M0,0 L3,0 L2,3 L-11,12 L-12,15 L-8,13 L-6,11 L-1,11 L0,15 L-3,18 L-9,20 L-13,20 L-16,16 L-15,12 L-6,4 Z " fill="#E7E7E7" transform="translate(21,3)"/>
<path d="M0,0 L2,1 L0,3 L2,5 L-3,7 L-6,10 L-9,9 L-7,5 Z " fill="#242424" transform="translate(17,9)"/>
<path d="M0,0 L4,1 L3,5 L1,6 L-2,4 Z " fill="#C3C3C3" transform="translate(17,14)"/>
</svg>
