<?xml version="1.0" encoding="UTF-8"?>
<svg version="1.1" xmlns="http://www.w3.org/2000/svg" width="28" height="28">
<path d="M0,0 L28,0 L28,28 L0,28 Z " fill="#040404" transform="translate(0,0)"/>
<path d="M0,0 L8,1 L8,4 L-2,5 L-2,6 L3,7 L5,10 L5,17 L3,20 L-3,19 L-6,15 L-6,5 Z " fill="#E7E7E7" transform="translate(15,5)"/>
<path d="M0,0 L5,1 L5,8 L0,8 L-2,6 L-1,1 Z " fill="#151515" transform="translate(13,14)"/>
<path d="M0,0 L4,2 L5,5 L4,10 L3,10 L2,4 L-1,3 Z " fill="#CECECE" transform="translate(15,11)"/>
</svg>
