<?xml version="1.0" encoding="UTF-8"?>
<svg version="1.1" xmlns="http://www.w3.org/2000/svg" width="28" height="28">
<path d="M0,0 L28,0 L28,28 L0,28 Z " fill="#050505" transform="translate(0,0)"/>
<path d="M0,0 L2,0 L1,4 L-2,9 L-2,14 L2,12 L9,10 L12,12 L13,16 L9,20 L-1,19 L-5,16 L-5,7 Z " fill="#D6D6D6" transform="translate(12,2)"/>
<path d="M0,0 L2,0 L1,4 L-2,9 L-2,16 L2,15 L3,17 L10,18 L9,20 L-1,19 L-5,16 L-5,7 Z " fill="#EEEEEE" transform="translate(12,2)"/>
<path d="M0,0 L5,0 L4,4 L-2,4 Z " fill="#101010" transform="translate(17,15)"/>
</svg>
