<?xml version="1.0" encoding="UTF-8"?>
<svg version="1.1" xmlns="http://www.w3.org/2000/svg" width="28" height="28">
<path d="M0,0 L28,0 L28,28 L0,28 Z " fill="#010101" transform="translate(0,0)"/>
<path d="M0,0 L4,0 L2,5 L0,8 L-5,9 L-7,15 L-1,10 L3,11 L2,16 L-3,20 L-9,19 L-10,18 L-9,10 L-4,3 Z " fill="#D1D1D1" transform="translate(18,3)"/>
<path d="M0,0 L2,0 L2,2 L4,3 L-2,8 L-4,7 L-4,3 Z " fill="#7E7E7E" transform="translate(17,15)"/>
<path d="M0,0 L4,2 L-1,7 L-4,10 L-3,4 Z " fill="#2F2F2F" transform="translate(14,10)"/>
<path d="M0,0 L4,0 L3,3 L-4,6 L-4,3 Z " fill="#E2E2E2" transform="translate(18,3)"/>
</svg>
