<?xml version="1.0" encoding="UTF-8"?>
<svg version="1.1" xmlns="http://www.w3.org/2000/svg" width="28" height="28">
<path d="M0,0 L28,0 L28,28 L0,28 Z " fill="#020202" transform="translate(0,0)"/>
<path d="M0,0 L2,0 L0,16 L3,18 L3,16 L8,16 L12,11 L11,17 L9,19 L2,20 L-1,19 L-3,16 L-2,8 Z " fill="#CECECE" transform="translate(10,1)"/>
<path d="M0,0 L5,0 L6,5 L3,8 L-2,7 L-2,9 L-4,8 L-2,2 Z " fill="#BDBDBD" transform="translate(15,10)"/>
<path d="M0,0 L4,0 L3,5 L0,6 L-2,5 L-1,1 Z " fill="#080808" transform="translate(16,12)"/>
</svg>
