<?xml version="1.0" encoding="UTF-8"?>
<svg version="1.1" xmlns="http://www.w3.org/2000/svg" width="28" height="28">
<path d="M0,0 L28,0 L28,28 L0,28 Z " fill="#020202" transform="translate(0,0)"/>
<path d="M0,0 L2,0 L2,2 L-8,9 L-9,15 L-8,16 L-3,16 L1,11 L5,12 L4,17 L2,18 L3,20 L-8,20 L-13,15 L-11,9 L-2,1 Z " fill="#DEDEDE" transform="translate(18,2)"/>
<path d="M0,0 L4,1 L3,6 L0,7 L-2,6 L-1,1 Z " fill="#B3B3B3" transform="translate(19,13)"/>
<path d="M0,0 L2,1 L1,3 L3,3 L3,5 L5,6 L-5,5 L-1,4 Z " fill="#EFEFEF" transform="translate(16,16)"/>
<path d="M0,0 L8,1 L8,4 L1,3 Z " fill="#C0C0C0" transform="translate(7,18)"/>
</svg>
