<?xml version="1.0" encoding="UTF-8"?>
<svg version="1.1" xmlns="http://www.w3.org/2000/svg" width="28" height="28">
<path d="M0,0 L28,0 L28,28 L0,28 Z " fill="#020202" transform="translate(0,0)"/>
<path d="M0,0 L4,0 L4,2 L1,2 L-1,8 L0,12 L6,7 L10,8 L12,13 L7,19 L5,20 L-2,20 L-4,16 L-4,7 Z " fill="#CBCBCB" transform="translate(12,3)"/>
<path d="M0,0 L4,0 L4,2 L1,2 L-1,8 L0,12 L2,12 L1,19 L-3,19 L-4,16 L-4,7 Z " fill="#D4D4D4" transform="translate(12,3)"/>
<path d="M0,0 L4,0 L4,5 L1,7 L-5,7 L-3,3 Z " fill="#090909" transform="translate(17,13)"/>
<path d="M0,0 L5,0 L4,7 L0,7 Z " fill="#F5F5F5" transform="translate(9,15)"/>
</svg>
