<?xml version="1.0" encoding="UTF-8"?>
<svg version="1.1" xmlns="http://www.w3.org/2000/svg" width="28" height="28">
<path d="M0,0 L28,0 L28,28 L0,28 Z " fill="#020202" transform="translate(0,0)"/>
<path d="M0,0 L1,4 L0,9 L5,7 L8,7 L8,9 L10,9 L10,14 L5,19 L4,20 L-3,19 L-5,15 L-4,7 Z " fill="#D6D6D6" transform="translate(13,3)"/>
<path d="M0,0 L1,4 L0,9 L5,10 L2,11 L0,16 L-1,18 L-4,17 L-5,10 Z " fill="#E7E7E7" transform="translate(13,3)"/>
<path d="M0,0 L3,0 L2,4 L-2,7 L-6,6 L-3,1 Z " fill="#0B0B0B" transform="translate(18,13)"/>
<path d="M0,0 L1,4 L-1,14 L-3,14 L-3,9 L-4,7 Z " fill="#BDBDBD" transform="translate(13,3)"/>
</svg>
