<?xml version="1.0" encoding="UTF-8"?>
<svg version="1.1" xmlns="http://www.w3.org/2000/svg" width="28" height="28">
<path d="M0,0 L28,0 L28,28 L0,28 Z " fill="#030303" transform="translate(0,0)"/>
<path d="M0,0 L3,0 L3,2 L0,5 L-1,11 L4,8 L9,10 L11,12 L11,17 L6,20 L-1,19 L-5,15 L-4,6 Z " fill="#CFCFCF" transform="translate(13,2)"/>
<path d="M0,0 L5,0 L7,4 L5,7 L-1,7 L-3,4 L-1,3 Z " fill="#131313" transform="translate(15,13)"/>
<path d="M0,0 L4,2 L12,2 L9,5 L2,4 L0,3 Z " fill="#EDEDED" transform="translate(10,17)"/>
</svg>
