<?xml version="1.0" encoding="UTF-8"?>
<svg version="1.1" xmlns="http://www.w3.org/2000/svg" width="28" height="28">
<path d="M0,0 L28,0 L28,28 L0,28 Z " fill="#030303" transform="translate(0,0)"/>
<path d="M0,0 L5,0 L6,4 L4,3 L4,1 L-2,5 L-5,9 L1,10 L7,14 L8,19 L7,20 L-2,19 L-7,15 L-7,13 L-9,13 L-7,6 Z " fill="#E2E2E2" transform="translate(15,4)"/>
<path d="M0,0 L5,0 L9,2 L9,4 L11,4 L10,8 L3,6 L0,3 Z " fill="#121212" transform="translate(10,15)"/>
<path d="M0,0 L3,1 L6,6 L13,8 L15,10 L6,9 L1,5 L1,3 L-1,3 Z " fill="#C9C9C9" transform="translate(7,14)"/>
</svg>
