<?xml version="1.0" encoding="UTF-8"?>
<svg version="1.1" xmlns="http://www.w3.org/2000/svg" width="28" height="28">
<path d="M0,0 L28,0 L28,28 L0,28 Z " fill="#020202" transform="translate(0,0)"/>
<path d="M0,0 L3,0 L3,2 L-2,5 L-3,7 L2,9 L3,14 L-1,20 L-5,19 L-7,16 L-7,7 L-4,2 Z " fill="#ECECEC" transform="translate(17,4)"/>
<path d="M0,0 L5,0 L7,3 L6,8 L1,9 L-1,5 L1,3 L4,3 L4,1 Z " fill="#CBCBCB" transform="translate(13,12)"/>
<path d="M0,0 L3,0 L3,2 L-2,5 L-6,11 L-7,7 L-4,2 Z " fill="#D5D5D5" transform="translate(17,4)"/>
<path d="M0,0 L3,0 L2,5 L-1,5 L-2,2 Z " fill="#191919" transform="translate(14,15)"/>
</svg>
