<?xml version="1.0" encoding="UTF-8"?>
<svg version="1.1" xmlns="http://www.w3.org/2000/svg" width="28" height="28">
<path d="M0,0 L28,0 L28,28 L0,28 Z " fill="#020202" transform="translate(0,0)"/>
<path d="M0,0 L1,3 L-5,13 L0,9 L4,9 L4,15 L-2,20 L-4,20 L-3,17 L1,16 L1,12 L-6,20 L-9,20 L-9,14 L-4,5 Z " fill="#E6E6E6" transform="translate(17,2)"/>
<path d="M0,0 L1,3 L-7,16 L-9,20 L-9,14 L-4,5 Z " fill="#D0D0D0" transform="translate(17,2)"/>
<path d="M0,0 L1,3 L-2,6 L-6,9 L-5,5 Z " fill="#3E3E3E" transform="translate(18,13)"/>
<path d="M0,0 L2,0 L0,5 L-3,6 L-2,1 Z " fill="#F1F1F1" transform="translate(12,16)"/>
</svg>
