<?xml version="1.0" encoding="UTF-8"?>
<svg version="1.1" xmlns="http://www.w3.org/2000/svg" width="28" height="28">
<path d="M0,0 L28,0 L28,28 L0,28 Z " fill="#030303" transform="translate(0,0)"/>
<path d="M0,0 L4,0 L4,2 L-1,5 L-5,11 L-5,16 L3,12 L8,13 L7,17 L1,20 L-5,20 L-8,18 L-8,9 L-4,3 Z " fill="#AFAFAF" transform="translate(15,2)"/>
<path d="M0,0 L4,0 L4,2 L-1,5 L-6,12 L-8,16 L-8,9 L-4,3 Z " fill="#E5E5E5" transform="translate(15,2)"/>
<path d="M0,0 L5,1 L4,5 L1,7 L-4,7 L-2,5 L1,4 L-2,2 Z " fill="#E5E5E5" transform="translate(18,14)"/>
</svg>
