<?xml version="1.0" encoding="UTF-8"?>
<svg version="1.1" xmlns="http://www.w3.org/2000/svg" width="28" height="28">
<path d="M0,0 L28,0 L28,28 L0,28 Z " fill="#030303" transform="translate(0,0)"/>
<path d="M0,0 L2,0 L1,4 L-2,9 L-2,11 L4,10 L5,15 L0,20 L-6,20 L-7,19 L-7,10 L-3,3 Z " fill="#EEEEEE" transform="translate(16,2)"/>
<path d="M0,0 L2,0 L1,4 L-2,9 L-2,17 L-5,17 L-7,14 L-6,7 Z " fill="#E6E6E6" transform="translate(16,2)"/>
<path d="M0,0 L1,0 L2,9 L-1,9 L-3,6 L-2,1 Z " fill="#B7B7B7" transform="translate(12,10)"/>
</svg>
