<?xml version="1.0" encoding="UTF-8"?>
<svg version="1.1" xmlns="http://www.w3.org/2000/svg" width="28" height="28">
<path d="M0,0 L28,0 L28,28 L0,28 Z " fill="#030303" transform="translate(0,0)"/>
<path d="M0,0 L2,0 L1,4 L1,7 L6,9 L8,11 L8,17 L7,19 L2,20 L-3,17 L-4,15 L-4,6 Z " fill="#C6C6C6" transform="translate(13,3)"/>
<path d="M0,0 L2,0 L1,4 L-1,8 L-1,14 L1,16 L8,15 L7,19 L2,20 L-3,17 L-4,15 L-4,6 Z " fill="#E8E8E8" transform="translate(13,3)"/>
<path d="M0,0 L6,2 L6,7 L1,6 L0,5 Z " fill="#030303" transform="translate(12,13)"/>
</svg>
