<?xml version="1.0" encoding="UTF-8"?>
<svg version="1.1" xmlns="http://www.w3.org/2000/svg" width="28" height="28">
<path d="M0,0 L28,0 L28,28 L0,28 Z " fill="#020202" transform="translate(0,0)"/>
<path d="M0,0 L2,0 L0,5 L-7,13 L-2,9 L3,10 L1,15 L-5,20 L-9,19 L-11,17 L-11,12 Z " fill="#E4E4E4" transform="translate(19,3)"/>
<path d="M0,0 L5,1 L3,6 L-1,9 L-3,8 L-3,4 Z " fill="#E4E4E4" transform="translate(17,12)"/>
<path d="M0,0 L2,3 L-2,6 L-4,5 L-2,1 Z " fill="#8D8D8D" transform="translate(18,15)"/>
</svg>
