<?xml version="1.0" encoding="UTF-8"?>
<svg version="1.1" xmlns="http://www.w3.org/2000/svg" width="28" height="28">
<path d="M0,0 L28,0 L28,28 L0,28 Z " fill="#020202" transform="translate(0,0)"/>
<path d="M0,0 L3,0 L3,13 L4,15 L8,8 L10,8 L9,15 L11,15 L12,13 L14,13 L12,18 L10,20 L4,20 L0,15 L-1,11 L-1,4 Z " fill="#E4E4E4" transform="translate(8,3)"/>
<path d="M0,0 L4,2 L4,8 L1,8 L0,11 L-3,10 L-2,2 Z " fill="#C3C3C3" transform="translate(19,8)"/>
<path d="M0,0 L3,0 L2,6 L-2,6 Z " fill="#1A1A1A" transform="translate(18,12)"/>
</svg>
