<?xml version="1.0" encoding="UTF-8"?>
<svg version="1.1" xmlns="http://www.w3.org/2000/svg" width="28" height="28">
<path d="M0,0 L28,0 L28,28 L0,28 Z " fill="#020202" transform="translate(0,0)"/>
<path d="M0,0 L2,0 L2,3 L-3,4 L-4,14 L0,17 L1,13 L5,8 L9,9 L10,16 L8,19 L-1,20 L-6,15 L-6,5 Z " fill="#D6D6D6" transform="translate(13,2)"/>
<path d="M0,0 L4,0 L4,5 L-3,7 L-1,1 Z " fill="#0B0B0B" transform="translate(17,13)"/>
<path d="M0,0 L2,0 L2,3 L-3,4 L-5,15 L-6,15 L-6,5 Z " fill="#B3B3B3" transform="translate(13,2)"/>
<path d="M0,0 L1,0 L0,7 L-3,8 L-6,6 L-2,5 Z " fill="#A9A9A9" transform="translate(22,13)"/>
</svg>
