<?xml version="1.0" encoding="UTF-8"?>
<svg version="1.1" xmlns="http://www.w3.org/2000/svg" width="28" height="28">
<path d="M0,0 L28,0 L28,28 L0,28 Z " fill="#020202" transform="translate(0,0)"/>
<path d="M0,0 L2,0 L0,4 L-7,11 L-6,12 L-1,8 L3,8 L2,13 L-5,19 L-9,20 L-12,17 L-12,12 L-8,7 Z " fill="#C2C2C2" transform="translate(19,3)"/>
<path d="M0,0 L2,0 L0,4 L-8,12 L-8,9 Z " fill="#E3E3E3" transform="translate(19,3)"/>
<path d="M0,0 L7,0 L3,2 L-4,7 L-3,3 Z " fill="#3C3C3C" transform="translate(15,10)"/>
<path d="M0,0 L4,0 L4,3 L-1,4 L-4,4 Z " fill="#EEEEEE" transform="translate(18,11)"/>
</svg>
