<?xml version="1.0" encoding="UTF-8"?>
<svg version="1.1" xmlns="http://www.w3.org/2000/svg" width="28" height="28">
<path d="M0,0 L28,0 L28,28 L0,28 Z " fill="#030303" transform="translate(0,0)"/>
<path d="M0,0 L2,0 L1,7 L-1,17 L3,17 L3,11 L5,9 L9,10 L8,16 L7,17 L11,19 L10,20 L-1,19 L-4,16 L-3,11 L-1,1 Z " fill="#D6D6D6" transform="translate(12,2)"/>
<path d="M0,0 L4,1 L3,7 L1,8 L1,6 L-1,6 L-2,2 Z " fill="#A8A8A8" transform="translate(17,11)"/>
<path d="M0,0 L2,0 L1,7 L-1,11 L-2,8 L-1,1 Z " fill="#EEEEEE" transform="translate(12,2)"/>
</svg>
