<?xml version="1.0" encoding="UTF-8"?>
<svg version="1.1" xmlns="http://www.w3.org/2000/svg" width="28" height="28">
<path d="M0,0 L28,0 L28,28 L0,28 Z " fill="#010101" transform="translate(0,0)"/>
<path d="M0,0 L3,0 L1,4 L-3,10 L3,11 L4,16 L-1,20 L-7,20 L-8,19 L-8,11 L-3,3 Z " fill="#DCDCDC" transform="translate(17,3)"/>
<path d="M0,0 L3,0 L1,4 L-3,9 L-6,15 L-8,15 L-7,9 L-3,3 Z " fill="#E9E9E9" transform="translate(17,3)"/>
<path d="M0,0 L1,2 L5,2 L3,6 L-1,6 L-1,1 Z " fill="#171717" transform="translate(13,14)"/>
</svg>
