<?xml version="1.0" encoding="UTF-8"?>
<svg version="1.1" xmlns="http://www.w3.org/2000/svg" width="28" height="28">
<path d="M0,0 L28,0 L28,28 L0,28 Z " fill="#030303" transform="translate(0,0)"/>
<path d="M0,0 L1,4 L-5,14 L-5,17 L0,17 L0,10 L5,6 L8,7 L8,12 L5,16 L6,20 L-5,20 L-8,17 L-7,11 Z " fill="#C9C9C9" transform="translate(15,3)"/>
<path d="M0,0 L1,4 L-5,14 L-6,19 L-8,17 L-7,11 Z " fill="#DDDDDD" transform="translate(15,3)"/>
<path d="M0,0 L3,1 L3,6 L1,7 L2,2 L-2,5 L-3,10 L-5,10 L-5,4 Z " fill="#D1D1D1" transform="translate(20,9)"/>
<path d="M0,0 L2,0 L0,6 L-3,8 L-3,3 Z " fill="#1F1F1F" transform="translate(20,11)"/>
</svg>
