<?xml version="1.0" encoding="UTF-8"?>
<svg version="1.1" xmlns="http://www.w3.org/2000/svg" width="28" height="28">
<path d="M0,0 L28,0 L28,28 L0,28 Z " fill="#020202" transform="translate(0,0)"/>
<path d="M0,0 L2,0 L0,6 L-2,9 L6,8 L8,11 L7,16 L4,19 L-1,20 L-6,17 L-6,8 L-2,2 Z " fill="#E6E6E6" transform="translate(14,3)"/>
<path d="M0,0 L2,0 L0,6 L-2,9 L1,10 L-2,12 L-2,16 L3,17 L3,19 L-1,20 L-6,17 L-6,8 L-2,2 Z " fill="#E8E8E8" transform="translate(14,3)"/>
<path d="M0,0 L5,1 L7,2 L5,6 L0,6 L-1,1 Z " fill="#171717" transform="translate(12,14)"/>
</svg>
