<?xml version="1.0" encoding="UTF-8"?>
<svg version="1.1" xmlns="http://www.w3.org/2000/svg" width="28" height="28">
<path d="M0,0 L28,0 L28,28 L0,28 Z " fill="#020202" transform="translate(0,0)"/>
<path d="M0,0 L6,0 L8,2 L1,3 L-6,11 L3,11 L5,12 L5,18 L2,20 L-4,20 L-9,17 L-10,11 L-4,3 Z " fill="#E2E2E2" transform="translate(17,3)"/>
<path d="M0,0 L6,0 L8,2 L1,3 L-5,8 L-7,6 Z " fill="#D7D7D7" transform="translate(17,3)"/>
<path d="M0,0 L6,0 L6,4 L0,4 L-1,2 Z " fill="#292929" transform="translate(13,16)"/>
</svg>
