<?xml version="1.0" encoding="UTF-8"?>
<svg version="1.1" xmlns="http://www.w3.org/2000/svg" width="28" height="28">
<path d="M0,0 L28,0 L28,28 L0,28 Z " fill="#030303" transform="translate(0,0)"/>
<path d="M0,0 L2,0 L1,17 L9,10 L14,12 L13,17 L9,20 L-3,20 L-4,15 L-2,3 Z " fill="#ECECEC" transform="translate(11,1)"/>
<path d="M0,0 L4,2 L2,6 L-2,7 L-4,7 L-7,7 Z " fill="#8D8D8D" transform="translate(18,12)"/>
<path d="M0,0 L5,2 L4,7 L0,7 L2,3 L-1,2 Z " fill="#E2E2E2" transform="translate(20,11)"/>
</svg>
