<?xml version="1.0" encoding="UTF-8"?>
<svg version="1.1" xmlns="http://www.w3.org/2000/svg" width="28" height="28">
<path d="M0,0 L28,0 L28,28 L0,28 Z " fill="#040404" transform="translate(0,0)"/>
<path d="M0,0 L2,0 L2,3 L0,3 L-2,14 L3,13 L7,11 L12,12 L11,17 L6,20 L-2,20 L-6,15 L-5,5 Z " fill="#EBEBEB" transform="translate(13,2)"/>
<path d="M0,0 L5,1 L4,6 L-1,9 L-2,7 L-4,7 L-4,5 L-2,5 L-2,1 Z " fill="#E9E9E9" transform="translate(20,13)"/>
<path d="M0,0 L4,0 L4,5 L0,6 L0,4 L-2,4 L-2,2 L0,2 Z " fill="#888888" transform="translate(18,16)"/>
</svg>
