<?xml version="1.0" encoding="UTF-8"?>
<svg version="1.1" xmlns="http://www.w3.org/2000/svg" width="28" height="28">
<path d="M0,0 L28,0 L28,28 L0,28 Z " fill="#020202" transform="translate(0,0)"/>
<path d="M0,0 L4,1 L4,3 L2,3 L1,5 L1,15 L5,17 L5,12 L9,9 L15,9 L15,14 L10,18 L6,20 L1,20 L-3,15 L-3,5 Z " fill="#EEEEEE" transform="translate(10,2)"/>
<path d="M0,0 L6,0 L6,5 L0,7 L-2,7 L-3,9 L-6,8 L-4,8 L-4,3 Z " fill="#D8D8D8" transform="translate(19,11)"/>
<path d="M0,0 L4,1 L4,3 L2,3 L1,5 L0,14 L-1,14 L-2,9 L-3,5 Z " fill="#C7C7C7" transform="translate(10,2)"/>
<path d="M0,0 L2,0 L0,4 L-3,5 L-4,7 L-7,6 L-5,6 L-5,1 Z " fill="#737373" transform="translate(20,13)"/>
</svg>
