<?xml version="1.0" encoding="UTF-8"?>
<svg version="1.1" xmlns="http://www.w3.org/2000/svg" width="28" height="28">
<path d="M0,0 L28,0 L28,28 L0,28 Z " fill="#020202" transform="translate(0,0)"/>
<path d="M0,0 L3,0 L1,4 L-6,13 L1,12 L2,17 L0,19 L-9,20 L-10,19 L-10,13 L-1,1 Z " fill="#B1B1B1" transform="translate(18,2)"/>
<path d="M0,0 L3,0 L1,4 L-6,13 L-8,12 L-6,7 Z " fill="#DDDDDD" transform="translate(18,2)"/>
<path d="M0,0 L5,0 L6,5 L2,6 L4,2 L0,3 Z " fill="#E7E7E7" transform="translate(14,14)"/>
</svg>
