<?xml version="1.0" encoding="UTF-8"?>
<svg version="1.1" xmlns="http://www.w3.org/2000/svg" width="28" height="28">
<path d="M0,0 L28,0 L28,28 L0,28 Z " fill="#020202" transform="translate(0,0)"/>
<path d="M0,0 L3,0 L2,4 L-2,10 L5,9 L6,14 L1,20 L-4,19 L-6,17 L-5,7 Z " fill="#ECECEC" transform="translate(15,3)"/>
<path d="M0,0 L5,0 L6,5 L1,11 L-3,10 L-3,8 L2,5 L3,3 L-1,2 Z " fill="#EFEFEF" transform="translate(15,12)"/>
<path d="M0,0 L3,0 L2,4 L-3,7 L-3,4 Z " fill="#C9C9C9" transform="translate(15,3)"/>
<path d="M0,0 L4,0 L2,4 L-2,5 L-2,1 Z " fill="#1C1C1C" transform="translate(14,15)"/>
</svg>
