<?xml version="1.0" encoding="UTF-8"?>
<svg version="1.1" xmlns="http://www.w3.org/2000/svg" width="28" height="28">
<path d="M0,0 L28,0 L28,28 L0,28 Z " fill="#020202" transform="translate(0,0)"/>
<path d="M0,0 L3,1 L-3,9 L2,11 L3,15 L-2,20 L-6,20 L-8,14 L-4,5 Z " fill="#D4D4D4" transform="translate(17,3)"/>
<path d="M0,0 L6,0 L8,2 L7,7 L3,10 L-1,10 L-2,5 L3,7 L6,6 L6,3 L1,4 Z " fill="#E0E0E0" transform="translate(12,13)"/>
<path d="M0,0 L1,2 L6,1 L6,4 L1,6 L-1,3 Z " fill="#1D1D1D" transform="translate(12,15)"/>
</svg>
