<?xml version="1.0" encoding="UTF-8"?>
<svg version="1.1" xmlns="http://www.w3.org/2000/svg" width="28" height="28">
<path d="M0,0 L28,0 L28,28 L0,28 Z " fill="#010101" transform="translate(0,0)"/>
<path d="M0,0 L3,1 L-1,8 L4,8 L6,10 L5,16 L1,20 L-2,20 L-2,18 L-4,18 L-4,10 Z " fill="#C6C6C6" transform="translate(14,3)"/>
<path d="M0,0 L3,1 L-1,8 L4,8 L5,13 L3,11 L-1,10 L-2,17 L-3,17 L-3,6 Z " fill="#DEDEDE" transform="translate(14,3)"/>
<path d="M0,0 L4,0 L4,5 L0,7 L-1,3 Z " fill="#151515" transform="translate(13,13)"/>
</svg>
