<?xml version="1.0" encoding="UTF-8"?>
<svg version="1.1" xmlns="http://www.w3.org/2000/svg" width="28" height="28">
<path d="M0,0 L28,0 L28,28 L0,28 Z " fill="#030303" transform="translate(0,0)"/>
<path d="M0,0 L1,0 L1,10 L5,7 L12,6 L17,9 L16,13 L11,18 L4,18 L1,17 L-2,11 L-3,4 Z " fill="#EBEBEB" transform="translate(9,4)"/>
<path d="M0,0 L5,1 L8,3 L7,7 L3,11 L2,9 L-1,8 L-3,3 L-5,2 Z " fill="#DDDDDD" transform="translate(18,10)"/>
<path d="M0,0 L5,1 L5,4 L3,6 L0,5 L-2,1 Z " fill="#1F1F1F" transform="translate(17,13)"/>
</svg>
