<?xml version="1.0" encoding="UTF-8"?>
<svg version="1.1" xmlns="http://www.w3.org/2000/svg" width="28" height="28">
<path d="M0,0 L28,0 L28,28 L0,28 Z " fill="#020202" transform="translate(0,0)"/>
<path d="M0,0 L3,0 L3,2 L-2,5 L-4,9 L-4,12 L0,9 L5,9 L8,12 L7,18 L3,20 L-4,20 L-8,14 L-7,6 L-3,1 Z " fill="#D4D4D4" transform="translate(16,3)"/>
<path d="M0,0 L3,0 L3,2 L-2,5 L-5,14 L-3,14 L-2,17 L4,18 L3,20 L-4,20 L-8,14 L-7,6 L-3,1 Z " fill="#D5D5D5" transform="translate(16,3)"/>
<path d="M0,0 L4,1 L4,5 L2,7 L-3,7 L-4,5 Z " fill="#121212" transform="translate(17,14)"/>
<path d="M0,0 L1,4 L4,4 L5,7 L11,8 L10,10 L3,10 L-1,4 Z " fill="#F1F1F1" transform="translate(9,13)"/>
</svg>
