<?xml version="1.0" encoding="UTF-8"?>
<svg version="1.1" xmlns="http://www.w3.org/2000/svg" width="28" height="28">
<path d="M0,0 L28,0 L28,28 L0,28 Z " fill="#040404" transform="translate(0,0)"/>
<path d="M0,0 L5,1 L6,5 L1,3 L-2,9 L4,9 L6,11 L6,17 L4,20 L-1,19 L-4,15 L-4,5 Z " fill="#EAEAEA" transform="translate(14,4)"/>
<path d="M0,0 L5,1 L6,5 L1,3 L-3,9 L-4,5 Z " fill="#E1E1E1" transform="translate(14,4)"/>
<path d="M0,0 L3,0 L4,7 L0,6 L-1,1 Z " fill="#1B1B1B" transform="translate(14,14)"/>
</svg>
