<?xml version="1.0" encoding="UTF-8"?>
<svg version="1.1" xmlns="http://www.w3.org/2000/svg" width="28" height="28">
<path d="M0,0 L28,0 L28,28 L0,28 Z " fill="#040404" transform="translate(0,0)"/>
<path d="M0,0 L3,1 L1,2 L0,7 L0,14 L1,17 L7,17 L6,10 L10,7 L15,8 L17,10 L16,15 L12,18 L2,19 L-2,16 L-3,8 Z " fill="#E0E0E0" transform="translate(8,3)"/>
<path d="M0,0 L3,1 L1,2 L0,7 L0,14 L1,17 L8,18 L8,19 L2,19 L-2,16 L-3,8 Z " fill="#D8D8D8" transform="translate(8,3)"/>
<path d="M0,0 L5,1 L4,6 L-2,7 L-2,2 Z " fill="#111111" transform="translate(18,12)"/>
</svg>
