<?xml version="1.0" encoding="UTF-8"?>
<svg version="1.1" xmlns="http://www.w3.org/2000/svg" width="28" height="28">
<path d="M0,0 L28,0 L28,28 L0,28 Z " fill="#020202" transform="translate(0,0)"/>
<path d="M0,0 L2,0 L0,4 L-4,8 L-5,12 L0,12 L1,8 L7,5 L13,5 L10,10 L0,14 L-6,14 L-7,9 L-3,3 Z " fill="#B6B6B6" transform="translate(13,6)"/>
<path d="M0,0 L2,0 L0,4 L-4,8 L-5,12 L-7,12 L-6,7 Z " fill="#D5D5D5" transform="translate(13,6)"/>
<path d="M0,0 L2,1 L-4,5 L-7,4 L-2,1 Z " fill="#191919" transform="translate(22,12)"/>
</svg>
