<?xml version="1.0" encoding="UTF-8"?>
<svg version="1.1" xmlns="http://www.w3.org/2000/svg" width="28" height="28">
<path d="M0,0 L28,0 L28,28 L0,28 Z " fill="#040404" transform="translate(0,0)"/>
<path d="M0,0 L1,2 L-1,8 L-1,16 L4,17 L5,12 L11,7 L14,8 L14,13 L10,17 L11,19 L5,20 L-2,18 L-4,16 L-4,9 L-1,1 Z " fill="#DADADA" transform="translate(10,2)"/>
<path d="M0,0 L1,2 L-1,8 L-1,16 L2,18 L-3,17 L-4,16 L-4,9 L-1,1 Z " fill="#E5E5E5" transform="translate(10,2)"/>
<path d="M0,0 L4,1 L3,5 L-2,7 L-3,3 Z " fill="#7F7F7F" transform="translate(18,11)"/>
</svg>
