<?xml version="1.0" encoding="UTF-8"?>
<svg version="1.1" xmlns="http://www.w3.org/2000/svg" width="28" height="28">
<path d="M0,0 L28,0 L28,28 L0,28 Z " fill="#040404" transform="translate(0,0)"/>
<path d="M0,0 L3,0 L3,2 L1,2 L1,4 L-1,4 L-3,8 L-6,13 L-1,11 L4,12 L5,17 L-1,20 L-8,20 L-9,19 L-9,13 L-4,4 Z " fill="#F5F5F5" transform="translate(17,2)"/>
<path d="M0,0 L5,1 L6,6 L-1,9 L-2,7 L-4,6 L0,4 Z " fill="#BABABA" transform="translate(16,13)"/>
<path d="M0,0 L3,0 L3,2 L1,2 L1,4 L-1,4 L-2,7 L-5,5 Z " fill="#DBDBDB" transform="translate(17,2)"/>
</svg>
