<?xml version="1.0" encoding="UTF-8"?>
<svg version="1.1" xmlns="http://www.w3.org/2000/svg" width="28" height="28">
<path d="M0,0 L28,0 L28,28 L0,28 Z " fill="#010101" transform="translate(0,0)"/>
<path d="M0,0 L2,0 L0,5 L-3,10 L2,9 L3,10 L2,17 L-2,20 L-7,19 L-8,14 L-2,2 Z " fill="#BDBDBD" transform="translate(17,3)"/>
<path d="M0,0 L2,0 L0,5 L-4,11 L-2,12 L-5,13 L-5,18 L-4,20 L-8,18 L-7,11 L-1,1 Z " fill="#D5D5D5" transform="translate(17,3)"/>
<path d="M0,0 L4,0 L3,4 L1,6 L-3,6 L-2,1 Z " fill="#121212" transform="translate(14,15)"/>
</svg>
