<?xml version="1.0" encoding="UTF-8"?>
<svg version="1.1" xmlns="http://www.w3.org/2000/svg" width="28" height="28">
<path d="M0,0 L28,0 L28,28 L0,28 Z " fill="#020202" transform="translate(0,0)"/>
<path d="M0,0 L4,0 L4,2 L-2,5 L-4,9 L3,10 L4,16 L1,19 L-1,20 L-7,20 L-8,19 L-7,8 L-3,2 Z " fill="#E8E8E8" transform="translate(17,3)"/>
<path d="M0,0 L5,2 L5,7 L-1,8 L-2,3 Z " fill="#121212" transform="translate(13,13)"/>
<path d="M0,0 L4,0 L4,2 L-2,5 L-7,10 L-5,4 Z " fill="#D8D8D8" transform="translate(17,3)"/>
</svg>
