<?xml version="1.0" encoding="UTF-8"?>
<svg version="1.1" xmlns="http://www.w3.org/2000/svg" width="28" height="28">
<path d="M0,0 L28,0 L28,28 L0,28 Z " fill="#020202" transform="translate(0,0)"/>
<path d="M0,0 L2,0 L0,5 L-5,13 L-5,15 L-1,11 L3,12 L2,17 L-1,20 L-7,20 L-9,19 L-9,12 Z " fill="#D4D4D4" transform="translate(17,2)"/>
<path d="M0,0 L4,1 L3,6 L0,9 L-2,9 L-4,4 Z " fill="#C6C6C6" transform="translate(16,13)"/>
<path d="M0,0 L4,1 L5,5 L0,4 Z " fill="#F8F8F8" transform="translate(9,17)"/>
</svg>
