<?xml version="1.0" encoding="UTF-8"?>
<svg version="1.1" xmlns="http://www.w3.org/2000/svg" width="28" height="28">
<path d="M0,0 L28,0 L28,28 L0,28 Z " fill="#010101" transform="translate(0,0)"/>
<path d="M0,0 L2,0 L0,5 L-1,12 L3,13 L5,8 L8,8 L7,11 L13,9 L10,12 L4,14 L-3,14 L-4,13 L-4,7 Z " fill="#B9B9B9" transform="translate(10,6)"/>
<path d="M0,0 L5,0 L6,4 L-3,8 L-5,7 Z " fill="#0F0F0F" transform="translate(20,10)"/>
<path d="M0,0 L5,0 L6,4 L3,4 L4,2 L-2,3 Z " fill="#A4A4A4" transform="translate(20,10)"/>
</svg>
