<?xml version="1.0" encoding="UTF-8"?>
<svg version="1.1" xmlns="http://www.w3.org/2000/svg" width="28" height="28">
<path d="M0,0 L28,0 L28,28 L0,28 Z " fill="#020202" transform="translate(0,0)"/>
<path d="M0,0 L3,0 L1,5 L-4,10 L-4,11 L-2,12 L-5,16 L0,16 L2,12 L1,18 L-2,20 L-10,20 L-12,16 L-7,8 L-5,8 L-4,5 L-2,5 Z " fill="#E4E4E4" transform="translate(19,2)"/>
<path d="M0,0 L7,2 L6,6 L5,5 L2,8 L-2,7 L0,3 L-2,2 Z " fill="#9E9E9E" transform="translate(15,11)"/>
<path d="M0,0 L4,0 L4,3 L-2,4 Z " fill="#0C0C0C" transform="translate(15,15)"/>
</svg>
