<?xml version="1.0" encoding="UTF-8"?>
<svg version="1.1" xmlns="http://www.w3.org/2000/svg" width="28" height="28">
<path d="M0,0 L28,0 L28,28 L0,28 Z " fill="#010101" transform="translate(0,0)"/>
<path d="M0,0 L2,0 L1,6 L-1,10 L3,12 L1,17 L-3,18 L-4,20 L-7,18 L-6,12 Z " fill="#919191" transform="translate(16,3)"/>
<path d="M0,0 L4,1 L2,6 L-2,7 L-3,9 L-6,7 L-6,3 L-3,4 L-1,2 L0,4 L2,4 L2,1 Z " fill="#ECECEC" transform="translate(15,14)"/>
<path d="M0,0 L2,0 L1,6 L-2,10 L-3,7 Z " fill="#E3E3E3" transform="translate(16,3)"/>
</svg>
