<?xml version="1.0" encoding="UTF-8"?>
<svg version="1.1" xmlns="http://www.w3.org/2000/svg" width="28" height="28">
<path d="M0,0 L28,0 L28,28 L0,28 Z " fill="#040404" transform="translate(0,0)"/>
<path d="M0,0 L3,0 L3,3 L-3,8 L-8,15 L-5,12 L0,12 L0,17 L-5,20 L-10,19 L-11,14 L-2,3 Z " fill="#E6E6E6" transform="translate(19,3)"/>
<path d="M0,0 L3,0 L3,3 L-3,8 L-8,14 L-10,18 L-11,14 L-2,3 Z " fill="#E2E2E2" transform="translate(19,3)"/>
<path d="M0,0 L3,1 L2,5 L-2,6 L-3,3 Z " fill="#7A7A7A" transform="translate(14,15)"/>
</svg>
