<?xml version="1.0" encoding="UTF-8"?>
<svg version="1.1" xmlns="http://www.w3.org/2000/svg" width="28" height="28">
<path d="M0,0 L28,0 L28,28 L0,28 Z " fill="#030303" transform="translate(0,0)"/>
<path d="M0,0 L2,2 L-2,9 L-2,16 L1,17 L2,13 L5,10 L10,11 L9,18 L5,20 L-1,20 L-5,16 L-4,7 Z " fill="#9B9B9B" transform="translate(13,2)"/>
<path d="M0,0 L2,2 L-2,9 L-2,17 L-4,18 L-5,16 L-4,7 Z " fill="#E3E3E3" transform="translate(13,2)"/>
<path d="M0,0 L5,1 L5,6 L4,2 L-2,5 L-2,2 Z " fill="#DCDCDC" transform="translate(18,12)"/>
</svg>
