<?xml version="1.0" encoding="UTF-8"?>
<svg version="1.1" xmlns="http://www.w3.org/2000/svg" width="28" height="28">
<path d="M0,0 L28,0 L28,28 L0,28 Z " fill="#020202" transform="translate(0,0)"/>
<path d="M0,0 L2,0 L1,5 L-1,8 L-3,8 L-3,10 L4,11 L3,16 L1,19 L-6,20 L-8,18 L-7,11 L-3,3 Z " fill="#ECECEC" transform="translate(17,3)"/>
<path d="M0,0 L2,0 L1,5 L-1,8 L-3,8 L-4,10 L-6,10 L-4,5 Z " fill="#EDEDED" transform="translate(17,3)"/>
<path d="M0,0 L1,4 L-2,8 L-7,7 L-5,3 L-1,2 Z " fill="#8C8C8C" transform="translate(20,14)"/>
</svg>
