<?xml version="1.0" encoding="UTF-8"?>
<svg version="1.1" xmlns="http://www.w3.org/2000/svg" width="28" height="28">
<path d="M0,0 L28,0 L28,28 L0,28 Z " fill="#030303" transform="translate(0,0)"/>
<path d="M0,0 L2,1 L-7,13 L-6,14 L-3,11 L1,11 L0,16 L-6,18 L-7,20 L-10,17 L-9,11 Z " fill="#ECECEC" transform="translate(19,3)"/>
<path d="M0,0 L2,1 L-7,13 L-9,17 L-10,13 L-2,2 Z " fill="#E2E2E2" transform="translate(19,3)"/>
<path d="M0,0 L4,1 L0,5 L-2,5 L-1,1 Z " fill="#787878" transform="translate(16,14)"/>
</svg>
