<?xml version="1.0" encoding="UTF-8"?>
<svg version="1.1" xmlns="http://www.w3.org/2000/svg" width="28" height="28">
<path d="M0,0 L28,0 L28,28 L0,28 Z " fill="#030303" transform="translate(0,0)"/>
<path d="M0,0 L3,0 L2,3 L-3,7 L-5,13 L-2,10 L4,11 L6,13 L5,18 L2,20 L-5,20 L-8,17 L-8,10 L-4,4 Z " fill="#DDDDDD" transform="translate(16,2)"/>
<path d="M0,0 L3,0 L2,3 L-3,7 L-5,13 L-3,13 L-3,20 L-7,18 L-8,17 L-8,10 L-4,4 Z " fill="#EAEAEA" transform="translate(16,2)"/>
<path d="M0,0 L4,1 L3,4 L-2,4 Z " fill="#0F0F0F" transform="translate(15,15)"/>
</svg>
