<?xml version="1.0" encoding="UTF-8"?>
<svg version="1.1" xmlns="http://www.w3.org/2000/svg" width="28" height="28">
<path d="M0,0 L28,0 L28,28 L0,28 Z " fill="#020202" transform="translate(0,0)"/>
<path d="M0,0 L5,1 L5,2 L-1,4 L-5,10 L-4,11 L3,10 L5,12 L4,17 L0,20 L-5,20 L-8,17 L-8,10 L-2,1 Z " fill="#CCCCCC" transform="translate(16,3)"/>
<path d="M0,0 L5,1 L5,2 L-1,4 L-5,10 L-4,11 L0,12 L-4,14 L-7,14 L-8,17 L-8,10 L-2,1 Z " fill="#DADADA" transform="translate(16,3)"/>
<path d="M0,0 L4,1 L2,5 L-2,6 L-5,3 L-3,3 L-3,1 Z " fill="#141414" transform="translate(15,15)"/>
</svg>
