<?xml version="1.0" encoding="UTF-8"?>
<svg version="1.1" xmlns="http://www.w3.org/2000/svg" width="28" height="28">
<path d="M0,0 L28,0 L28,28 L0,28 Z " fill="#030303" transform="translate(0,0)"/>
<path d="M0,0 L0,3 L-5,10 L-5,18 L-3,18 L-3,12 L1,7 L6,7 L4,16 L-1,20 L-6,19 L-8,17 L-8,10 L-2,1 Z " fill="#D0D0D0" transform="translate(16,3)"/>
<path d="M0,0 L0,3 L-5,10 L-5,18 L-3,18 L-3,13 L-1,17 L1,18 L-1,20 L-6,19 L-8,17 L-8,10 L-2,1 Z " fill="#E0E0E0" transform="translate(16,3)"/>
<path d="M0,0 L1,3 L-1,8 L-5,10 L-4,4 Z " fill="#1D1D1D" transform="translate(19,11)"/>
</svg>
