<?xml version="1.0" encoding="UTF-8"?>
<svg version="1.1" xmlns="http://www.w3.org/2000/svg" width="28" height="28">
<path d="M0,0 L28,0 L28,28 L0,28 Z " fill="#020202" transform="translate(0,0)"/>
<path d="M0,0 L2,0 L1,5 L-7,12 L-10,15 L-7,16 L-5,12 L1,11 L3,13 L2,17 L-4,20 L-12,20 L-13,13 L-8,7 Z " fill="#E7E7E7" transform="translate(19,2)"/>
<path d="M0,0 L4,2 L3,6 L0,8 L-3,7 L-4,6 L-2,1 Z " fill="#D2D2D2" transform="translate(18,13)"/>
<path d="M0,0 L2,1 L-2,5 L0,7 L-5,9 L-6,11 L-10,10 Z " fill="#232323" transform="translate(18,7)"/>
</svg>
