<?xml version="1.0" encoding="UTF-8"?>
<svg version="1.1" xmlns="http://www.w3.org/2000/svg" width="28" height="28">
<path d="M0,0 L28,0 L28,28 L0,28 Z " fill="#010101" transform="translate(0,0)"/>
<path d="M0,0 L2,0 L2,5 L0,5 L0,7 L-5,9 L-5,11 L-8,14 L-10,14 L-10,17 L-7,17 L-5,13 L-1,11 L3,12 L3,16 L-1,17 L-2,20 L-10,20 L-13,18 L-12,13 L-7,7 L-3,3 L-1,3 Z " fill="#E6E6E6" transform="translate(19,2)"/>
<path d="M0,0 L4,1 L4,5 L0,6 L-1,9 L-3,8 L-2,2 Z " fill="#CFCFCF" transform="translate(18,13)"/>
<path d="M0,0 L2,1 L0,3 L1,5 L-4,8 L-5,10 L-8,10 L-8,7 L-6,7 L-5,4 L-3,4 L-3,2 Z " fill="#2B2B2B" transform="translate(17,9)"/>
</svg>
