<?xml version="1.0" encoding="UTF-8"?>
<svg version="1.1" xmlns="http://www.w3.org/2000/svg" width="28" height="28">
<path d="M0,0 L28,0 L28,28 L0,28 Z " fill="#030303" transform="translate(0,0)"/>
<path d="M0,0 L4,0 L3,3 L-6,7 L-9,9 L-10,15 L-5,12 L0,12 L2,14 L1,19 L-4,20 L-12,20 L-14,11 L-9,5 Z " fill="#E4E4E4" transform="translate(20,3)"/>
<path d="M0,0 L5,0 L7,2 L6,7 L-2,6 L-2,4 L-4,3 Z " fill="#DADADA" transform="translate(15,15)"/>
<path d="M0,0 L4,1 L4,3 L-3,4 Z " fill="#1E1E1E" transform="translate(16,17)"/>
</svg>
