<?xml version="1.0" encoding="UTF-8"?>
<svg version="1.1" xmlns="http://www.w3.org/2000/svg" width="28" height="28">
<path d="M0,0 L28,0 L28,28 L0,28 Z " fill="#030303" transform="translate(0,0)"/>
<path d="M0,0 L2,0 L1,4 L-8,13 L-10,17 L-7,17 L-7,14 L1,9 L4,11 L3,17 L-3,20 L-10,20 L-12,18 L-12,13 L-3,3 Z " fill="#E2E2E2" transform="translate(18,2)"/>
<path d="M0,0 L3,2 L2,8 L-1,10 L-5,9 L-2,6 L-6,7 L-4,2 Z " fill="#E4E4E4" transform="translate(19,11)"/>
<path d="M0,0 Z M5,0 L6,2 L2,3 L2,7 L-5,7 L-4,4 L-2,4 L-2,1 L2,1 Z " fill="#A9A9A9" transform="translate(13,15)"/>
</svg>
