<?xml version="1.0" encoding="UTF-8"?>
<svg version="1.1" xmlns="http://www.w3.org/2000/svg" width="28" height="28">
<path d="M0,0 L28,0 L28,28 L0,28 Z " fill="#030303" transform="translate(0,0)"/>
<path d="M0,0 L2,0 L1,4 L-9,15 L-10,17 L-5,17 L-4,12 L-2,9 L1,9 L2,14 L0,18 L-5,20 L-12,19 L-12,14 L-8,8 L-3,3 Z " fill="#E0E0E0" transform="translate(19,2)"/>
<path d="M0,0 L3,0 L4,5 L-1,7 L-3,5 Z " fill="#C7C7C7" transform="translate(17,11)"/>
<path d="M0,0 L2,0 L2,5 L-3,5 L-1,1 Z " fill="#090909" transform="translate(12,14)"/>
</svg>
