<?xml version="1.0" encoding="UTF-8"?>
<svg version="1.1" xmlns="http://www.w3.org/2000/svg" width="28" height="28">
<path d="M0,0 L28,0 L28,28 L0,28 Z " fill="#040404" transform="translate(0,0)"/>
<path d="M0,0 L1,0 L1,7 L-1,14 L9,7 L13,8 L15,11 L14,17 L11,20 L2,19 L-2,18 L-3,7 Z " fill="#F3F3F3" transform="translate(10,2)"/>
<path d="M0,0 L6,0 L5,6 L3,8 L-5,7 L-4,3 Z " fill="#0C0C0C" transform="translate(17,12)"/>
<path d="M0,0 L2,1 L1,7 L-2,10 L-6,8 L-2,6 Z " fill="#C5C5C5" transform="translate(23,12)"/>
<path d="M0,0 L4,1 L4,3 L-5,5 L-5,3 Z " fill="#D0D0D0" transform="translate(19,9)"/>
<path d="M0,0 L1,0 L1,7 L-3,9 Z " fill="#CDCDCD" transform="translate(10,2)"/>
</svg>
