<?xml version="1.0" encoding="UTF-8"?>
<svg version="1.1" xmlns="http://www.w3.org/2000/svg" width="28" height="28">
<path d="M0,0 L28,0 L28,28 L0,28 Z " fill="#030303" transform="translate(0,0)"/>
<path d="M0,0 L2,0 L2,11 L6,7 L13,8 L13,14 L8,20 L3,19 L0,16 L-1,12 L-1,1 Z " fill="#DDDDDD" transform="translate(10,3)"/>
<path d="M0,0 L2,0 L2,12 L4,12 L6,19 L2,18 L0,16 L-1,12 L-1,1 Z " fill="#EEEEEE" transform="translate(10,3)"/>
<path d="M0,0 L3,0 L2,5 L0,5 L0,7 L-3,7 L-3,5 L-5,4 Z " fill="#1E1E1E" transform="translate(18,13)"/>
</svg>
