<?xml version="1.0" encoding="UTF-8"?>
<svg version="1.1" xmlns="http://www.w3.org/2000/svg" width="28" height="28">
<path d="M0,0 L28,0 L28,28 L0,28 Z " fill="#020202" transform="translate(0,0)"/>
<path d="M0,0 L2,1 L0,5 L-5,11 L-5,13 L-2,10 L2,11 L2,16 L-1,19 L-9,20 L-10,13 L-1,1 Z " fill="#BABABA" transform="translate(18,2)"/>
<path d="M0,0 L4,1 L4,6 L2,7 L2,4 L-3,6 L-1,1 Z " fill="#EFEFEF" transform="translate(16,12)"/>
<path d="M0,0 L2,1 L0,5 L-5,10 L-7,9 Z " fill="#E1E1E1" transform="translate(18,2)"/>
</svg>
