<?xml version="1.0" encoding="UTF-8"?>
<svg version="1.1" xmlns="http://www.w3.org/2000/svg" width="28" height="28">
<path d="M0,0 L28,0 L28,28 L0,28 Z " fill="#030303" transform="translate(0,0)"/>
<path d="M0,0 L2,0 L1,3 L-5,8 L-9,15 L-10,17 L-3,13 L0,13 L0,18 L-2,20 L-11,20 L-12,14 L-6,6 L-1,1 Z " fill="#D9D9D9" transform="translate(20,2)"/>
<path d="M0,0 L2,0 L1,3 L-5,8 L-9,15 L-9,19 L-12,18 L-11,13 L-7,7 L-3,2 Z " fill="#DDDDDD" transform="translate(20,2)"/>
<path d="M0,0 L5,1 L5,3 L0,3 L-1,5 L-4,4 L-2,4 Z " fill="#888888" transform="translate(13,17)"/>
</svg>
