<?xml version="1.0" encoding="UTF-8"?>
<svg version="1.1" xmlns="http://www.w3.org/2000/svg" width="28" height="28">
<path d="M0,0 L28,0 L28,28 L0,28 Z " fill="#020202" transform="translate(0,0)"/>
<path d="M0,0 L2,0 L0,13 L1,16 L5,18 L6,12 L10,8 L15,10 L15,15 L9,20 L1,20 L-3,16 L-3,7 Z " fill="#DDDDDD" transform="translate(10,2)"/>
<path d="M0,0 L5,2 L5,7 L0,11 L-3,10 L-2,4 L-2,1 Z " fill="#C8C8C8" transform="translate(20,10)"/>
<path d="M0,0 L3,1 L2,5 L0,7 L-3,7 L-2,2 Z " fill="#212121" transform="translate(20,12)"/>
</svg>
