<?xml version="1.0" encoding="UTF-8"?>
<svg version="1.1" xmlns="http://www.w3.org/2000/svg" width="28" height="28">
<path d="M0,0 L28,0 L28,28 L0,28 Z " fill="#040404" transform="translate(0,0)"/>
<path d="M0,0 L3,0 L2,4 L0,5 L-1,13 L3,9 L6,8 L13,8 L15,10 L14,15 L11,17 L2,18 L-5,15 L-5,7 L-3,3 L-1,3 Z " fill="#EDEDED" transform="translate(11,4)"/>
<path d="M0,0 L3,0 L2,4 L0,5 L-1,13 L1,12 L1,15 L-3,16 L-5,15 L-5,7 L-3,3 L-1,3 Z " fill="#CFCFCF" transform="translate(11,4)"/>
<path d="M0,0 L5,0 L5,4 L-3,5 L-4,2 Z " fill="#1E1E1E" transform="translate(18,14)"/>
<path d="M0,0 L7,0 L9,2 L8,7 L5,8 L3,6 L6,5 L6,3 L0,1 Z " fill="#D5D5D5" transform="translate(17,12)"/>
<path d="M0,0 L3,0 L2,4 L-2,6 L-3,3 L-1,3 Z " fill="#EBEBEB" transform="translate(11,4)"/>
</svg>
