<?xml version="1.0" encoding="UTF-8"?>
<svg version="1.1" xmlns="http://www.w3.org/2000/svg" width="28" height="28">
<path d="M0,0 L28,0 L28,28 L0,28 Z " fill="#020202" transform="translate(0,0)"/>
<path d="M0,0 L2,0 L2,4 L0,4 L-1,12 L3,9 L9,10 L10,15 L4,20 L-3,19 L-4,17 L-4,8 Z " fill="#D4D4D4" transform="translate(13,2)"/>
<path d="M0,0 L5,1 L3,5 L2,6 L-3,6 L-3,2 Z " fill="#0C0C0C" transform="translate(16,13)"/>
<path d="M0,0 L6,1 L7,3 L0,3 L-2,4 L-2,1 Z " fill="#BCBCBC" transform="translate(16,11)"/>
</svg>
