<?xml version="1.0" encoding="UTF-8"?>
<svg version="1.1" xmlns="http://www.w3.org/2000/svg" width="28" height="28">
<path d="M0,0 L28,0 L28,28 L0,28 Z " fill="#030303" transform="translate(0,0)"/>
<path d="M0,0 L6,0 L4,2 L-1,4 L-2,5 L-2,13 L1,15 L2,10 L4,8 L10,8 L13,11 L13,18 L10,20 L3,20 L-3,16 L-6,12 L-5,5 Z " fill="#C8C8C8" transform="translate(11,2)"/>
<path d="M0,0 L6,0 L4,2 L-1,4 L-2,5 L-2,13 L3,17 L5,19 L-1,18 L-6,12 L-5,5 Z " fill="#DEDEDE" transform="translate(11,2)"/>
<path d="M0,0 L5,0 L7,2 L7,6 L1,6 L-2,4 Z " fill="#0F0F0F" transform="translate(15,12)"/>
<path d="M0,0 L4,1 L4,8 L-1,9 L-4,7 L3,7 L1,2 Z " fill="#E8E8E8" transform="translate(19,11)"/>
<path d="M0,0 L6,0 L4,2 L-1,4 L-4,4 Z " fill="#A5A5A5" transform="translate(11,2)"/>
</svg>
