<?xml version="1.0" encoding="UTF-8"?>
<svg version="1.1" xmlns="http://www.w3.org/2000/svg" width="28" height="28">
<path d="M0,0 L28,0 L28,28 L0,28 Z " fill="#030303" transform="translate(0,0)"/>
<path d="M0,0 L3,0 L1,4 L-3,5 L-3,12 L4,7 L12,8 L13,13 L11,13 L11,15 L8,16 L-4,16 L-6,15 L-7,8 Z " fill="#EAEAEA" transform="translate(13,4)"/>
<path d="M0,0 L8,1 L9,6 L7,6 L7,8 L4,7 L-4,7 L-2,1 Z " fill="#D1D1D1" transform="translate(17,11)"/>
<path d="M0,0 L8,0 L7,3 L5,4 L-3,4 Z " fill="#242424" transform="translate(16,14)"/>
</svg>
