<?xml version="1.0" encoding="UTF-8"?>
<svg version="1.1" xmlns="http://www.w3.org/2000/svg" width="28" height="28">
<path d="M0,0 L28,0 L28,28 L0,28 Z " fill="#030303" transform="translate(0,0)"/>
<path d="M0,0 L3,1 L1,5 L-1,10 L-2,17 L3,17 L4,12 L9,7 L10,8 L10,16 L6,20 L-2,20 L-5,18 L-4,9 Z " fill="#D2D2D2" transform="translate(12,2)"/>
<path d="M0,0 L2,0 L3,5 L-1,9 L-9,9 L-5,7 L-1,2 Z " fill="#B4B4B4" transform="translate(19,13)"/>
<path d="M0,0 L2,3 L7,4 L6,6 L1,6 L0,5 Z M8,1 Z M7,3 Z " fill="#F8F8F8" transform="translate(8,15)"/>
</svg>
