<?xml version="1.0" encoding="UTF-8"?>
<svg version="1.1" xmlns="http://www.w3.org/2000/svg" width="28" height="28">
<path d="M0,0 L28,0 L28,28 L0,28 Z " fill="#020202" transform="translate(0,0)"/>
<path d="M0,0 L1,0 L0,7 L-4,17 L-2,17 L1,9 L4,6 L8,7 L9,8 L9,15 L4,20 L-3,20 L-5,19 L-5,12 Z " fill="#DCDCDC" transform="translate(13,2)"/>
<path d="M0,0 L3,0 L2,6 L0,8 L-3,8 L-2,3 Z " fill="#151515" transform="translate(17,11)"/>
<path d="M0,0 L4,1 L1,6 L0,11 L-3,10 L-2,4 Z " fill="#191919" transform="translate(12,9)"/>
</svg>
