<?xml version="1.0" encoding="UTF-8"?>
<svg version="1.1" xmlns="http://www.w3.org/2000/svg" width="28" height="28">
<path d="M0,0 L28,0 L28,28 L0,28 Z " fill="#030303" transform="translate(0,0)"/>
<path d="M0,0 L2,0 L1,10 L4,5 L8,4 L10,7 L10,15 L8,18 L6,18 L6,20 L-1,20 L-3,17 L-3,8 Z " fill="#F3F3F3" transform="translate(11,3)"/>
<path d="M0,0 L3,1 L4,3 L4,11 L2,14 L0,14 L0,16 L-3,15 L-1,15 L-2,12 L1,9 L2,4 L-4,5 L-2,1 Z " fill="#E1E1E1" transform="translate(17,7)"/>
<path d="M0,0 L3,0 L2,7 L-3,9 L-2,3 Z " fill="#171717" transform="translate(16,11)"/>
<path d="M0,0 L2,0 L1,14 L-1,15 L-3,13 L-2,6 Z " fill="#999999" transform="translate(11,3)"/>
<path d="M0,0 L2,0 L1,7 L-1,8 L-1,2 Z " fill="#E8E8E8" transform="translate(11,3)"/>
</svg>
