<?xml version="1.0" encoding="UTF-8"?>
<svg version="1.1" xmlns="http://www.w3.org/2000/svg" width="28" height="28">
<path d="M0,0 L28,0 L28,28 L0,28 Z " fill="#020202" transform="translate(0,0)"/>
<path d="M0,0 L2,0 L3,11 L4,14 L10,14 L11,10 L14,7 L18,9 L18,14 L12,16 L13,20 L11,20 L10,16 L4,16 L1,13 L0,11 Z " fill="#C4C4C4" transform="translate(6,3)"/>
<path d="M0,0 L2,0 L3,11 L4,14 L9,15 L9,16 L2,15 L0,11 Z " fill="#DFDFDF" transform="translate(6,3)"/>
<path d="M0,0 L5,1 L5,3 L-2,6 L-5,4 L-1,4 Z " fill="#7A7A7A" transform="translate(17,13)"/>
<path d="M0,0 L5,0 L1,2 L2,6 L0,6 L-1,1 Z " fill="#E2E2E2" transform="translate(17,17)"/>
</svg>
