<?xml version="1.0" encoding="UTF-8"?>
<svg version="1.1" xmlns="http://www.w3.org/2000/svg" width="28" height="28">
<path d="M0,0 L28,0 L28,28 L0,28 Z " fill="#050505" transform="translate(0,0)"/>
<path d="M0,0 L2,0 L0,9 L0,16 L5,17 L5,10 L8,5 L13,4 L15,6 L15,13 L13,16 L15,17 L15,19 L1,20 L-3,18 L-4,11 L-1,1 Z " fill="#F0F0F0" transform="translate(9,2)"/>
<path d="M0,0 L2,0 L0,9 L0,16 L5,17 L5,20 L-2,19 L-4,16 L-3,7 Z " fill="#E8E8E8" transform="translate(9,2)"/>
<path d="M0,0 L4,0 L3,6 L-1,9 L-3,9 L-2,2 Z " fill="#191919" transform="translate(19,9)"/>
<path d="M0,0 L4,1 L5,2 L5,9 L2,12 L2,9 L4,3 L-3,3 Z " fill="#D5D5D5" transform="translate(19,6)"/>
</svg>
