<?xml version="1.0" encoding="UTF-8"?>
<svg version="1.1" xmlns="http://www.w3.org/2000/svg" width="28" height="28">
<path d="M0,0 L28,0 L28,28 L0,28 Z " fill="#020202" transform="translate(0,0)"/>
<path d="M0,0 L4,0 L4,2 L-1,3 L-3,7 L-4,13 L5,12 L10,15 L9,20 L2,20 L-3,18 L-6,13 L-6,7 L-2,1 Z " fill="#C2C2C2" transform="translate(13,2)"/>
<path d="M0,0 L8,1 L10,3 L9,8 L3,7 L6,5 L0,2 Z " fill="#EAEAEA" transform="translate(13,14)"/>
<path d="M0,0 L6,1 L9,4 L3,4 L0,2 Z " fill="#171717" transform="translate(11,16)"/>
</svg>
