<?xml version="1.0" encoding="UTF-8"?>
<svg version="1.1" xmlns="http://www.w3.org/2000/svg" width="28" height="28">
<path d="M0,0 L28,0 L28,28 L0,28 Z " fill="#030303" transform="translate(0,0)"/>
<path d="M0,0 L2,0 L0,9 L0,14 L8,7 L13,7 L14,12 L11,17 L6,20 L0,20 L-3,16 L-3,7 Z " fill="#DDDDDD" transform="translate(10,3)"/>
<path d="M0,0 L3,0 L2,4 L-3,9 L-7,9 L-5,4 Z " fill="#161616" transform="translate(19,12)"/>
<path d="M0,0 L5,0 L6,5 L4,4 L4,2 L-1,3 Z " fill="#F4F4F4" transform="translate(18,10)"/>
</svg>
