<?xml version="1.0" encoding="UTF-8"?>
<svg version="1.1" xmlns="http://www.w3.org/2000/svg" width="28" height="28">
<path d="M0,0 L28,0 L28,28 L0,28 Z " fill="#020202" transform="translate(0,0)"/>
<path d="M0,0 L2,0 L0,7 L-2,7 L-3,13 L2,12 L5,14 L4,19 L-2,20 L-5,19 L-5,9 Z " fill="#E4E4E4" transform="translate(15,2)"/>
<path d="M0,0 L2,0 L0,7 L-2,7 L-4,11 L-5,9 Z " fill="#D0D0D0" transform="translate(15,2)"/>
<path d="M0,0 L3,1 L2,4 L-3,3 Z " fill="#121212" transform="translate(15,16)"/>
</svg>
