<?xml version="1.0" encoding="UTF-8"?>
<svg version="1.1" xmlns="http://www.w3.org/2000/svg" width="28" height="28">
<path d="M0,0 L28,0 L28,28 L0,28 Z " fill="#040404" transform="translate(0,0)"/>
<path d="M0,0 L2,0 L2,2 L-4,6 L-6,8 L-6,11 L-4,12 L7,12 L8,8 L11,9 L10,14 L5,16 L-5,16 L-9,14 L-8,5 L-3,1 Z " fill="#E0E0E0" transform="translate(14,4)"/>
<path d="M0,0 L4,1 L3,6 L2,7 L-7,7 L-5,3 Z " fill="#C0C0C0" transform="translate(19,10)"/>
<path d="M0,0 L4,1 L2,4 L-5,4 L-5,2 Z " fill="#0D0D0D" transform="translate(19,13)"/>
</svg>
