<?xml version="1.0" encoding="UTF-8"?>
<svg version="1.1" xmlns="http://www.w3.org/2000/svg" width="28" height="28">
<path d="M0,0 L28,0 L28,28 L0,28 Z " fill="#040404" transform="translate(0,0)"/>
<path d="M0,0 L2,0 L2,2 L0,2 L0,4 L-5,8 L-6,14 L-3,15 L-1,11 L3,8 L8,8 L10,10 L9,15 L3,18 L-9,18 L-10,17 L-10,9 L-4,2 Z " fill="#E7E7E7" transform="translate(16,3)"/>
<path d="M0,0 L5,0 L7,2 L6,7 L3,8 L-2,7 L-2,2 Z " fill="#E4E4E4" transform="translate(19,11)"/>
<path d="M0,0 L4,1 L2,4 L-2,4 Z " fill="#2B2B2B" transform="translate(19,14)"/>
</svg>
