<?xml version="1.0" encoding="UTF-8"?>
<svg version="1.1" xmlns="http://www.w3.org/2000/svg" width="28" height="28">
<path d="M0,0 L28,0 L28,28 L0,28 Z " fill="#020202" transform="translate(0,0)"/>
<path d="M0,0 L3,0 L2,4 L-1,7 L-1,11 L3,9 L7,10 L7,17 L3,20 L-2,19 L-5,16 L-5,7 L-2,2 Z " fill="#E5E5E5" transform="translate(14,3)"/>
<path d="M0,0 L3,0 L2,4 L-1,7 L-1,13 L-3,13 L-5,7 L-2,2 Z " fill="#CECECE" transform="translate(14,3)"/>
<path d="M0,0 L2,1 L0,6 L-4,6 L-4,2 Z " fill="#141414" transform="translate(18,14)"/>
</svg>
