<?xml version="1.0" encoding="UTF-8"?>
<svg version="1.1" xmlns="http://www.w3.org/2000/svg" width="28" height="28">
<path d="M0,0 L28,0 L28,28 L0,28 Z " fill="#020202" transform="translate(0,0)"/>
<path d="M0,0 L3,0 L1,4 L-5,9 L-1,12 L-2,16 L-7,20 L-12,20 L-13,15 L-9,9 L-3,3 L-5,1 Z " fill="#C1C1C1" transform="translate(20,4)"/>
<path d="M0,0 L7,2 L6,6 L1,10 L-4,10 L-5,5 L-4,3 L-2,3 L-3,8 L3,5 L3,3 L-1,1 Z " fill="#DFDFDF" transform="translate(12,14)"/>
<path d="M0,0 L5,0 L3,4 L-2,5 L-1,1 Z " fill="#0C0C0C" transform="translate(11,17)"/>
<path d="M0,0 L3,0 L1,4 L-3,5 L-3,3 L-5,1 Z " fill="#D9D9D9" transform="translate(20,4)"/>
</svg>
