<?xml version="1.0" encoding="UTF-8"?>
<svg version="1.1" xmlns="http://www.w3.org/2000/svg" width="28" height="28">
<path d="M0,0 L28,0 L28,28 L0,28 Z " fill="#020202" transform="translate(0,0)"/>
<path d="M0,0 L5,0 L5,2 L-5,9 L-8,13 L-3,13 L-2,18 L-5,20 L-11,20 L-13,19 L-12,13 L-4,4 Z " fill="#DEDEDE" transform="translate(20,3)"/>
<path d="M0,0 L5,0 L5,2 L-5,9 L-8,12 L-10,11 L-4,4 Z " fill="#DEDEDE" transform="translate(20,3)"/>
<path d="M0,0 L1,4 L-3,6 L-3,4 L-7,4 L-7,1 L-1,1 Z " fill="#737373" transform="translate(17,17)"/>
</svg>
