<?xml version="1.0" encoding="UTF-8"?>
<svg version="1.1" xmlns="http://www.w3.org/2000/svg" width="28" height="28">
<path d="M0,0 L28,0 L28,28 L0,28 Z " fill="#030303" transform="translate(0,0)"/>
<path d="M0,0 L2,0 L2,3 L-2,4 L-4,8 L-6,11 L-1,12 L0,13 L0,18 L-6,20 L-11,20 L-12,19 L-11,12 L-6,4 Z " fill="#ECECEC" transform="translate(20,3)"/>
<path d="M0,0 L2,0 L2,3 L-2,4 L-4,8 L-8,11 L-10,10 L-6,4 Z " fill="#E2E2E2" transform="translate(20,3)"/>
<path d="M0,0 L5,1 L3,5 L-2,5 L-3,3 Z " fill="#232323" transform="translate(13,16)"/>
</svg>
