<?xml version="1.0" encoding="UTF-8"?>
<svg version="1.1" xmlns="http://www.w3.org/2000/svg" width="28" height="28">
<path d="M0,0 L28,0 L28,28 L0,28 Z " fill="#020202" transform="translate(0,0)"/>
<path d="M0,0 L3,0 L2,3 L-7,9 L-3,11 L-3,14 L-11,18 L-17,17 L-16,12 L-7,4 Z " fill="#D4D4D4" transform="translate(23,5)"/>
<path d="M0,0 L3,0 L2,3 L-7,9 L-9,9 L-8,12 L-13,12 L-7,4 Z " fill="#D9D9D9" transform="translate(23,5)"/>
<path d="M0,0 L2,1 L0,3 L6,4 L6,6 L4,7 L-2,7 L-5,7 L-3,3 Z " fill="#7C7C7C" transform="translate(11,13)"/>
<path d="M0,0 L3,1 L1,4 L-1,4 L0,7 L-5,7 Z " fill="#F1F1F1" transform="translate(15,10)"/>
</svg>
