<?xml version="1.0" encoding="UTF-8"?>
<svg version="1.1" xmlns="http://www.w3.org/2000/svg" width="28" height="28">
<path d="M0,0 L28,0 L28,28 L0,28 Z " fill="#020202" transform="translate(0,0)"/>
<path d="M0,0 L3,0 L3,3 L-5,9 L-1,13 L-2,17 L-8,20 L-14,20 L-16,16 L-10,8 L-8,8 L-8,6 Z " fill="#E6E6E6" transform="translate(21,3)"/>
<path d="M0,0 L3,0 L4,5 L-2,8 L-7,6 L-5,2 Z " fill="#CBCBCB" transform="translate(16,14)"/>
<path d="M0,0 L6,0 L5,3 L-2,4 Z " fill="#171717" transform="translate(11,16)"/>
</svg>
