<?xml version="1.0" encoding="UTF-8"?>
<svg version="1.1" xmlns="http://www.w3.org/2000/svg" width="28" height="28">
<path d="M0,0 L28,0 L28,28 L0,28 Z " fill="#030303" transform="translate(0,0)"/>
<path d="M0,0 L5,0 L4,3 L-2,6 L-4,6 L-4,8 L-6,8 L-6,10 L-2,11 L1,13 L0,18 L-3,20 L-11,19 L-13,18 L-12,10 L-5,3 Z " fill="#E6E6E6" transform="translate(20,4)"/>
<path d="M0,0 L4,0 L9,1 L10,7 L9,8 L1,7 L-1,6 L-1,1 Z " fill="#D0D0D0" transform="translate(8,16)"/>
<path d="M0,0 L5,1 L6,5 L-2,4 Z " fill="#161616" transform="translate(12,16)"/>
</svg>
