<?xml version="1.0" encoding="UTF-8"?>
<svg version="1.1" xmlns="http://www.w3.org/2000/svg" width="28" height="28">
<path d="M0,0 L28,0 L28,28 L0,28 Z " fill="#020202" transform="translate(0,0)"/>
<path d="M0,0 L0,3 L-5,9 L-6,11 L-1,12 L0,13 L0,18 L-2,20 L-6,20 L-10,11 L-4,3 Z " fill="#CFCFCF" transform="translate(19,3)"/>
<path d="M0,0 L0,3 L-5,9 L-6,11 L-3,12 L-6,13 L-8,15 L-10,11 L-4,3 Z " fill="#DBDBDB" transform="translate(19,3)"/>
<path d="M0,0 L5,0 L4,5 L1,4 Z " fill="#101010" transform="translate(12,16)"/>
</svg>
