<?xml version="1.0" encoding="UTF-8"?>
<svg version="1.1" xmlns="http://www.w3.org/2000/svg" width="28" height="28">
<path d="M0,0 L28,0 L28,28 L0,28 Z " fill="#020202" transform="translate(0,0)"/>
<path d="M0,0 L4,0 L4,7 L2,7 L2,3 L-2,7 L-2,12 L0,12 L0,10 L6,9 L7,10 L7,17 L5,17 L4,20 L-4,20 L-5,19 L-5,6 L-2,2 L0,2 Z " fill="#D6D6D6" transform="translate(14,3)"/>
<path d="M0,0 L4,0 L4,7 L2,7 L2,3 L-3,8 L-5,8 L-3,3 L0,2 Z " fill="#D1D1D1" transform="translate(14,3)"/>
<path d="M0,0 L5,0 L3,5 L-2,5 L-2,2 Z " fill="#0F0F0F" transform="translate(15,15)"/>
</svg>
