<?xml version="1.0" encoding="UTF-8"?>
<svg version="1.1" xmlns="http://www.w3.org/2000/svg" width="28" height="28">
<path d="M0,0 L28,0 L28,28 L0,28 Z " fill="#010101" transform="translate(0,0)"/>
<path d="M0,0 L3,1 L2,3 L0,3 L-2,10 L2,11 L4,15 L3,19 L2,20 L-3,20 L-6,18 L-6,10 L-3,3 L-1,3 Z " fill="#CCCCCC" transform="translate(16,3)"/>
<path d="M0,0 L3,4 L7,4 L8,1 L9,5 L7,7 L2,7 L0,5 Z " fill="#EDEDED" transform="translate(11,16)"/>
<path d="M0,0 L3,0 L4,5 L0,5 Z " fill="#1D1D1D" transform="translate(13,15)"/>
<path d="M0,0 L3,1 L2,3 L0,3 L-2,8 L-3,6 Z " fill="#ECECEC" transform="translate(16,3)"/>
</svg>
