<?xml version="1.0" encoding="UTF-8"?>
<svg version="1.1" xmlns="http://www.w3.org/2000/svg" width="28" height="28">
<path d="M0,0 L28,0 L28,28 L0,28 Z " fill="#030303" transform="translate(0,0)"/>
<path d="M0,0 L2,0 L0,4 L-3,10 L-2,17 L0,10 L2,8 L7,9 L6,11 L3,11 L1,17 L4,18 L2,20 L-3,20 L-6,13 L-5,6 Z " fill="#CECECE" transform="translate(14,3)"/>
<path d="M0,0 L4,1 L3,6 L1,8 L-2,7 Z " fill="#6A6A6A" transform="translate(17,13)"/>
<path d="M0,0 L1,0 L1,5 L4,6 L2,8 L-2,8 L-2,6 L0,6 Z " fill="#FBFBFB" transform="translate(14,15)"/>
</svg>
