<?xml version="1.0" encoding="UTF-8"?>
<svg version="1.1" xmlns="http://www.w3.org/2000/svg" width="28" height="28">
<path d="M0,0 L28,0 L28,28 L0,28 Z " fill="#020202" transform="translate(0,0)"/>
<path d="M0,0 L2,0 L1,5 L-1,9 L2,12 L1,17 L-2,20 L-7,20 L-11,18 L-9,13 L-3,4 Z " fill="#F0F0F0" transform="translate(18,2)"/>
<path d="M0,0 L4,1 L5,2 L5,7 L-2,8 L-6,5 L-1,5 Z " fill="#DEDEDE" transform="translate(13,14)"/>
<path d="M0,0 L2,0 L1,5 L-1,9 L-5,10 L-7,11 L-5,6 Z " fill="#CECECE" transform="translate(18,2)"/>
<path d="M0,0 L4,1 L4,5 L0,6 L-1,2 Z " fill="#141414" transform="translate(13,14)"/>
</svg>
