<?xml version="1.0" encoding="UTF-8"?>
<svg version="1.1" xmlns="http://www.w3.org/2000/svg" width="28" height="28">
<path d="M0,0 L28,0 L28,28 L0,28 Z " fill="#020202" transform="translate(0,0)"/>
<path d="M0,0 L2,0 L3,11 L7,16 L12,17 L11,12 L14,5 L18,4 L20,6 L20,13 L17,18 L15,19 L7,19 L2,15 L0,11 Z " fill="#C8C8C8" transform="translate(4,3)"/>
<path d="M0,0 L2,0 L2,8 L0,11 L-3,10 L-3,4 Z " fill="#070707" transform="translate(20,9)"/>
<path d="M0,0 L4,1 L5,5 L3,7 L3,2 L-1,4 L-1,1 Z " fill="#A9A9A9" transform="translate(19,7)"/>
</svg>
