<?xml version="1.0" encoding="UTF-8"?>
<svg version="1.1" xmlns="http://www.w3.org/2000/svg" width="28" height="28">
<path d="M0,0 L28,0 L28,28 L0,28 Z " fill="#040404" transform="translate(0,0)"/>
<path d="M0,0 L2,1 L-3,11 L5,11 L4,17 L-3,20 L-5,20 L-7,17 L-7,9 L-2,1 Z " fill="#ECECEC" transform="translate(16,3)"/>
<path d="M0,0 L2,1 L-3,11 L-1,12 L-4,12 L-5,10 L-7,12 L-6,8 L-2,1 Z " fill="#DCDCDC" transform="translate(16,3)"/>
<path d="M0,0 L5,0 L4,6 L3,3 L-1,2 Z " fill="#F0F0F0" transform="translate(16,14)"/>
<path d="M0,0 L7,1 L7,3 L0,3 Z " fill="#212121" transform="translate(12,16)"/>
</svg>
