<?xml version="1.0" encoding="UTF-8"?>
<svg version="1.1" xmlns="http://www.w3.org/2000/svg" width="28" height="28">
<path d="M0,0 L28,0 L28,28 L0,28 Z " fill="#020202" transform="translate(0,0)"/>
<path d="M0,0 L1,4 L-1,6 L-2,11 L1,12 L1,18 L-2,20 L-7,19 L-8,14 L-4,5 Z " fill="#F1F1F1" transform="translate(17,3)"/>
<path d="M0,0 L4,1 L5,5 L2,7 L-3,6 L-4,1 L-3,3 L-1,3 Z " fill="#9F9F9F" transform="translate(13,16)"/>
<path d="M0,0 L1,4 L-1,6 L-3,10 L-5,6 Z " fill="#D6D6D6" transform="translate(17,3)"/>
</svg>
