<?xml version="1.0" encoding="UTF-8"?>
<svg version="1.1" xmlns="http://www.w3.org/2000/svg" width="28" height="28">
<path d="M0,0 L28,0 L28,28 L0,28 Z " fill="#040404" transform="translate(0,0)"/>
<path d="M0,0 L2,0 L0,5 L-3,10 L3,10 L5,14 L3,18 L0,20 L-5,20 L-7,18 L-6,9 L-3,3 Z " fill="#D9D9D9" transform="translate(16,3)"/>
<path d="M0,0 L2,0 L0,5 L-3,10 L1,11 L-6,11 L-4,4 Z " fill="#D3D3D3" transform="translate(16,3)"/>
<path d="M0,0 L8,0 L7,3 L2,5 L0,4 Z " fill="#151515" transform="translate(11,16)"/>
<path d="M0,0 L5,1 L1,3 L0,7 L3,8 L3,10 L-1,9 L-2,8 L-2,2 Z " fill="#F4F4F4" transform="translate(11,13)"/>
</svg>
