<?xml version="1.0" encoding="UTF-8"?>
<svg version="1.1" xmlns="http://www.w3.org/2000/svg" width="28" height="28">
<path d="M0,0 L28,0 L28,28 L0,28 Z " fill="#040404" transform="translate(0,0)"/>
<path d="M0,0 L3,0 L3,5 L0,5 L0,7 L-4,11 L1,8 L6,9 L5,17 L0,20 L-7,19 L-9,16 L-8,10 L-2,2 Z " fill="#ECECEC" transform="translate(16,3)"/>
<path d="M0,0 L3,0 L3,5 L0,5 L0,7 L-4,11 L-6,16 L-8,12 L-6,7 Z " fill="#E3E3E3" transform="translate(16,3)"/>
<path d="M0,0 L3,0 L2,7 L0,8 L-1,2 Z " fill="#B1B1B1" transform="translate(9,11)"/>
</svg>
