<?xml version="1.0" encoding="UTF-8"?>
<svg version="1.1" xmlns="http://www.w3.org/2000/svg" width="28" height="28">
<path d="M0,0 L28,0 L28,28 L0,28 Z " fill="#040404" transform="translate(0,0)"/>
<path d="M0,0 L6,1 L7,3 L0,4 L-3,10 L7,10 L14,14 L15,18 L12,20 L3,20 L-2,17 L-4,13 L-5,5 Z " fill="#E6E6E6" transform="translate(11,3)"/>
<path d="M0,0 L6,1 L7,3 L0,4 L-4,10 L-5,10 L-5,5 Z " fill="#DADADA" transform="translate(11,3)"/>
<path d="M0,0 L7,0 L11,2 L11,4 L4,4 L0,2 Z " fill="#121212" transform="translate(11,16)"/>
</svg>
