<?xml version="1.0" encoding="UTF-8"?>
<svg version="1.1" xmlns="http://www.w3.org/2000/svg" width="28" height="28">
<path d="M0,0 L28,0 L28,28 L0,28 Z " fill="#030303" transform="translate(0,0)"/>
<path d="M0,0 L3,0 L2,4 L1,5 L1,14 L5,11 L10,11 L11,16 L8,19 L2,20 L-2,16 L-3,14 L-3,5 Z " fill="#F4F4F4" transform="translate(12,2)"/>
<path d="M0,0 L5,0 L6,5 L4,7 L-2,7 L-3,2 Z " fill="#E0E0E0" transform="translate(17,13)"/>
<path d="M0,0 L3,0 L2,4 L1,5 L0,12 L-1,12 L-2,7 L-3,5 Z " fill="#CCCCCC" transform="translate(12,2)"/>
<path d="M0,0 L4,0 L2,5 L-1,5 Z " fill="#1F1F1F" transform="translate(17,15)"/>
</svg>
