<?xml version="1.0" encoding="UTF-8"?>
<svg version="1.1" xmlns="http://www.w3.org/2000/svg" width="28" height="28">
<path d="M0,0 L28,0 L28,28 L0,28 Z " fill="#030303" transform="translate(0,0)"/>
<path d="M0,0 L3,1 L3,7 L1,12 L4,10 L11,11 L12,17 L10,19 L4,20 L-1,17 L-2,11 L-1,1 Z " fill="#E1E1E1" transform="translate(11,3)"/>
<path d="M0,0 L3,1 L3,7 L1,12 L3,12 L3,17 L8,18 L4,20 L-1,17 L-2,11 L-1,1 Z " fill="#F3F3F3" transform="translate(11,3)"/>
<path d="M0,0 L5,0 L6,2 L5,4 L-1,5 L-2,1 Z " fill="#181818" transform="translate(15,16)"/>
<path d="M0,0 L3,1 L3,7 L1,9 L1,6 L-1,6 L-1,1 Z " fill="#CCCCCC" transform="translate(11,3)"/>
</svg>
