<?xml version="1.0" encoding="UTF-8"?>
<svg version="1.1" xmlns="http://www.w3.org/2000/svg" width="28" height="28">
<path d="M0,0 L28,0 L28,28 L0,28 Z " fill="#040404" transform="translate(0,0)"/>
<path d="M0,0 L3,0 L1,4 L-2,9 L-2,11 L0,8 L7,9 L6,16 L3,20 L-2,19 L-5,17 L-5,7 L-1,1 Z " fill="#ECECEC" transform="translate(14,3)"/>
<path d="M0,0 L5,0 L5,4 L1,7 L-1,6 L-1,1 Z " fill="#A9A9A9" transform="translate(14,11)"/>
<path d="M0,0 L3,0 L1,4 L-3,5 L-1,1 Z " fill="#D1D1D1" transform="translate(14,3)"/>
</svg>
