<?xml version="1.0" encoding="UTF-8"?>
<svg version="1.1" xmlns="http://www.w3.org/2000/svg" width="28" height="28">
<path d="M0,0 L28,0 L28,28 L0,28 Z " fill="#020202" transform="translate(0,0)"/>
<path d="M0,0 L3,0 L1,5 L-2,10 L4,10 L7,13 L6,17 L2,20 L-2,19 L-4,18 L-4,16 L-6,16 L-6,9 Z " fill="#E0E0E0" transform="translate(15,3)"/>
<path d="M0,0 L3,0 L1,5 L-2,10 L0,12 L-3,16 L-6,16 L-6,9 Z " fill="#D5D5D5" transform="translate(15,3)"/>
<path d="M0,0 L1,2 L4,3 L1,7 L-2,7 Z " fill="#F7F7F7" transform="translate(11,12)"/>
<path d="M0,0 L4,0 L4,3 L-1,4 L-2,1 Z " fill="#2B2B2B" transform="translate(15,16)"/>
</svg>
