<?xml version="1.0" encoding="UTF-8"?>
<svg version="1.1" xmlns="http://www.w3.org/2000/svg" width="28" height="28">
<path d="M0,0 L28,0 L28,28 L0,28 Z " fill="#020202" transform="translate(0,0)"/>
<path d="M0,0 L2,0 L0,5 L-2,14 L4,9 L9,10 L8,14 L3,17 L2,19 L-3,17 L-5,14 L-4,6 Z " fill="#9A9A9A" transform="translate(14,3)"/>
<path d="M0,0 L2,0 L0,5 L-2,14 L-2,17 L-5,14 L-4,6 Z " fill="#C5C5C5" transform="translate(14,3)"/>
<path d="M0,0 L1,0 L3,8 L0,8 L-1,1 Z " fill="#DBDBDB" transform="translate(10,11)"/>
</svg>
