<?xml version="1.0" encoding="UTF-8"?>
<svg version="1.1" xmlns="http://www.w3.org/2000/svg" width="28" height="28">
<path d="M0,0 L28,0 L28,28 L0,28 Z " fill="#020202" transform="translate(0,0)"/>
<path d="M0,0 L0,3 L-7,10 L-9,18 L-1,16 L-2,12 L-7,17 L-6,12 L-4,10 L1,11 L2,16 L-3,20 L-10,20 L-12,15 L-10,10 L-8,7 L-6,7 L-4,3 Z " fill="#E1E1E1" transform="translate(20,2)"/>
<path d="M0,0 L3,2 L2,6 L0,7 L-6,7 L-6,2 L-3,3 Z " fill="#212121" transform="translate(17,13)"/>
<path d="M0,0 L0,3 L-7,10 L-9,17 L-11,14 L-10,10 L-8,7 L-6,7 L-4,3 Z " fill="#CACACA" transform="translate(20,2)"/>
</svg>
