<?xml version="1.0" encoding="UTF-8"?>
<svg version="1.1" xmlns="http://www.w3.org/2000/svg" width="28" height="28">
<path d="M0,0 L28,0 L28,28 L0,28 Z " fill="#020202" transform="translate(0,0)"/>
<path d="M0,0 L2,0 L0,9 L-1,12 L6,12 L8,13 L7,18 L3,20 L-2,20 L-4,18 L-3,8 Z " fill="#CFCFCF" transform="translate(14,2)"/>
<path d="M0,0 L2,0 L0,9 L-1,13 L1,14 L-2,14 L1,20 L-3,19 L-4,18 L-3,8 Z " fill="#E3E3E3" transform="translate(14,2)"/>
<path d="M0,0 L7,0 L6,4 L1,4 Z " fill="#101010" transform="translate(12,16)"/>
<path d="M0,0 L4,1 L1,1 L4,7 L0,6 L-1,1 Z " fill="#F9F9F9" transform="translate(11,15)"/>
</svg>
