<?xml version="1.0" encoding="UTF-8"?>
<svg version="1.1" xmlns="http://www.w3.org/2000/svg" width="28" height="28">
<path d="M0,0 L28,0 L28,28 L0,28 Z " fill="#020202" transform="translate(0,0)"/>
<path d="M0,0 L5,1 L5,3 L0,4 L-2,8 L-2,16 L2,17 L3,12 L6,9 L9,9 L10,15 L5,20 L-4,19 L-6,17 L-6,9 L-1,1 Z " fill="#DFDFDF" transform="translate(13,3)"/>
<path d="M0,0 L3,0 L4,3 L2,3 L1,7 L-3,8 L-4,5 Z " fill="#8E8E8E" transform="translate(19,12)"/>
<path d="M0,0 L2,0 L2,9 L-1,6 Z " fill="#A8A8A8" transform="translate(8,10)"/>
</svg>
