<?xml version="1.0" encoding="UTF-8"?>
<svg version="1.1" xmlns="http://www.w3.org/2000/svg" width="28" height="28">
<path d="M0,0 L28,0 L28,28 L0,28 Z " fill="#040404" transform="translate(0,0)"/>
<path d="M0,0 L2,0 L3,13 L6,16 L7,9 L11,6 L16,7 L16,15 L14,15 L12,20 L4,19 L0,14 L-1,12 Z " fill="#ECECEC" transform="translate(7,3)"/>
<path d="M0,0 L4,0 L3,5 L-3,7 L-2,2 Z " fill="#1C1C1C" transform="translate(18,12)"/>
<path d="M0,0 L5,1 L4,3 L-1,3 L-4,5 L-2,1 Z " fill="#CDCDCD" transform="translate(18,9)"/>
</svg>
