<?xml version="1.0" encoding="UTF-8"?>
<svg version="1.1" xmlns="http://www.w3.org/2000/svg" width="28" height="28">
<path d="M0,0 L28,0 L28,28 L0,28 Z " fill="#010101" transform="translate(0,0)"/>
<path d="M0,0 L2,0 L2,2 L-3,7 L-3,15 L-1,16 L1,12 L7,12 L9,14 L8,19 L7,20 L0,20 L-6,16 L-7,8 L-3,2 Z " fill="#CECECE" transform="translate(14,2)"/>
<path d="M0,0 L6,0 L8,2 L7,7 L4,7 L0,5 L0,1 Z " fill="#C0C0C0" transform="translate(15,14)"/>
<path d="M0,0 L3,1 L2,4 L6,6 L5,7 L-2,6 L-3,4 L0,4 Z " fill="#E9E9E9" transform="translate(14,15)"/>
<path d="M0,0 L1,0 L2,7 L4,8 L5,6 L5,9 L1,10 L-1,6 Z " fill="#B2B2B2" transform="translate(9,10)"/>
<path d="M0,0 L4,0 L4,4 L-1,3 Z " fill="#181818" transform="translate(16,16)"/>
</svg>
