<?xml version="1.0" encoding="UTF-8"?>
<svg version="1.1" xmlns="http://www.w3.org/2000/svg" width="28" height="28">
<path d="M0,0 L28,0 L28,28 L0,28 Z " fill="#040404" transform="translate(0,0)"/>
<path d="M0,0 L3,0 L1,4 L-2,12 L-2,17 L0,18 L-1,14 L1,11 L3,11 L3,9 L13,9 L13,13 L5,18 L2,20 L-4,20 L-5,19 L-5,10 Z " fill="#E4E4E4" transform="translate(12,2)"/>
<path d="M0,0 L10,0 L10,4 L3,7 L-1,7 Z " fill="#D3D3D3" transform="translate(15,11)"/>
<path d="M0,0 L6,0 L1,5 L-3,5 L-3,2 Z " fill="#161616" transform="translate(17,13)"/>
</svg>
