<?xml version="1.0" encoding="UTF-8"?>
<svg version="1.1" xmlns="http://www.w3.org/2000/svg" width="28" height="28">
<path d="M0,0 L28,0 L28,28 L0,28 Z " fill="#020202" transform="translate(0,0)"/>
<path d="M0,0 L1,3 L-3,8 L-4,10 L1,8 L2,13 L-1,19 L-6,20 L-8,18 L-7,9 L-3,2 Z " fill="#CECECE" transform="translate(18,3)"/>
<path d="M0,0 L1,3 L-3,8 L-4,10 L1,8 L1,11 L-5,13 L-5,15 L-7,15 L-7,9 L-3,2 Z " fill="#E5E5E5" transform="translate(18,3)"/>
<path d="M0,0 L1,2 L-1,6 L-5,6 L-4,2 Z " fill="#0F0F0F" transform="translate(17,14)"/>
</svg>
