<?xml version="1.0" encoding="UTF-8"?>
<svg version="1.1" xmlns="http://www.w3.org/2000/svg" width="28" height="28">
<path d="M0,0 L28,0 L28,28 L0,28 Z " fill="#030303" transform="translate(0,0)"/>
<path d="M0,0 L4,1 L3,4 L-2,9 L-3,11 L4,10 L9,15 L8,19 L-1,20 L-6,17 L-7,15 L-7,9 L-5,9 L-3,3 Z " fill="#DDDDDD" transform="translate(14,2)"/>
<path d="M0,0 L8,0 L13,5 L12,9 L3,10 L2,7 L10,7 L8,4 L1,4 Z " fill="#E6E6E6" transform="translate(10,12)"/>
<path d="M0,0 L4,1 L3,4 L-3,9 L-5,9 L-3,3 Z " fill="#DFDFDF" transform="translate(14,2)"/>
<path d="M0,0 L5,0 L7,4 L-2,3 L-3,1 Z " fill="#303030" transform="translate(13,15)"/>
</svg>
