<?xml version="1.0" encoding="UTF-8"?>
<svg version="1.1" xmlns="http://www.w3.org/2000/svg" width="28" height="28">
<path d="M0,0 L28,0 L28,28 L0,28 Z " fill="#020202" transform="translate(0,0)"/>
<path d="M0,0 L4,1 L3,5 L-1,4 L-5,10 L0,12 L1,13 L1,19 L-3,20 L-8,15 L-8,8 L-5,3 Z " fill="#DCDCDC" transform="translate(17,5)"/>
<path d="M0,0 L4,1 L3,5 L-1,4 L-5,8 L-7,7 L-5,3 Z " fill="#D5D5D5" transform="translate(17,5)"/>
<path d="M0,0 L6,1 L6,4 L2,4 Z " fill="#151515" transform="translate(11,18)"/>
</svg>
