<?xml version="1.0" encoding="UTF-8"?>
<svg version="1.1" xmlns="http://www.w3.org/2000/svg" width="28" height="28">
<path d="M0,0 L28,0 L28,28 L0,28 Z " fill="#030303" transform="translate(0,0)"/>
<path d="M0,0 L1,0 L1,13 L2,14 L6,8 L10,9 L11,14 L8,18 L3,19 L-1,16 L-1,5 Z " fill="#E9E9E9" transform="translate(10,2)"/>
<path d="M0,0 L3,0 L3,3 L-2,5 L-1,1 Z " fill="#292929" transform="translate(16,13)"/>
<path d="M0,0 L4,1 L5,6 L3,7 L3,3 L0,2 Z " fill="#D2D2D2" transform="translate(16,10)"/>
</svg>
