<?xml version="1.0" encoding="UTF-8"?>
<svg version="1.1" xmlns="http://www.w3.org/2000/svg" width="28" height="28">
<path d="M0,0 L28,0 L28,28 L0,28 Z " fill="#030303" transform="translate(0,0)"/>
<path d="M0,0 L2,0 L1,13 L2,15 L6,9 L11,9 L14,11 L14,16 L11,19 L3,19 L-1,15 L-1,2 Z " fill="#B1B1B1" transform="translate(10,3)"/>
<path d="M0,0 L4,1 L3,5 L-3,6 L-2,2 Z " fill="#090909" transform="translate(18,14)"/>
<path d="M0,0 L5,0 L7,3 L2,3 L-2,6 L-1,1 Z " fill="#E2E2E2" transform="translate(16,12)"/>
<path d="M0,0 L2,0 L0,15 L-1,15 L-1,2 Z " fill="#E0E0E0" transform="translate(10,3)"/>
</svg>
