<?xml version="1.0" encoding="UTF-8"?>
<svg version="1.1" xmlns="http://www.w3.org/2000/svg" width="28" height="28">
<path d="M0,0 L28,0 L28,28 L0,28 Z " fill="#020202" transform="translate(0,0)"/>
<path d="M0,0 L3,1 L3,3 L-3,8 L-3,10 L-1,9 L5,9 L6,14 L-2,20 L-7,20 L-8,19 L-8,10 L-2,2 Z " fill="#D7D7D7" transform="translate(16,3)"/>
<path d="M0,0 L5,1 L4,6 L-3,11 L-8,11 L-9,10 L-9,3 L-7,2 L-7,9 L-1,6 L2,3 L-1,1 Z " fill="#E6E6E6" transform="translate(17,12)"/>
<path d="M0,0 L3,1 L-2,6 L-7,7 L-7,4 Z " fill="#1C1C1C" transform="translate(17,14)"/>
</svg>
