<?xml version="1.0" encoding="UTF-8"?>
<svg version="1.1" xmlns="http://www.w3.org/2000/svg" width="28" height="28">
<path d="M0,0 L28,0 L28,28 L0,28 Z " fill="#030303" transform="translate(0,0)"/>
<path d="M0,0 L2,0 L1,4 L1,12 L2,16 L4,16 L5,11 L8,8 L12,9 L14,11 L13,17 L9,20 L3,20 L-2,14 L-2,2 Z " fill="#D5D5D5" transform="translate(9,2)"/>
<path d="M0,0 L3,1 L3,3 L5,3 L3,8 L0,10 L-3,10 L-4,5 Z " fill="#D5D5D5" transform="translate(18,12)"/>
<path d="M0,0 L2,0 L1,6 L-4,7 L-2,2 Z " fill="#161616" transform="translate(18,12)"/>
<path d="M0,0 L2,0 L0,6 L-1,13 L-2,13 L-2,2 Z " fill="#ECECEC" transform="translate(9,2)"/>
</svg>
