<?xml version="1.0" encoding="UTF-8"?>
<svg version="1.1" xmlns="http://www.w3.org/2000/svg" width="28" height="28">
<path d="M0,0 L28,0 L28,28 L0,28 Z " fill="#020202" transform="translate(0,0)"/>
<path d="M0,0 L2,0 L1,5 L-2,14 L-3,17 L-1,17 L0,12 L5,11 L7,16 L5,20 L-3,20 L-5,18 L-5,11 Z " fill="#E1E1E1" transform="translate(14,2)"/>
<path d="M0,0 L2,0 L1,5 L-2,14 L-4,11 L-1,2 Z " fill="#DBDBDB" transform="translate(14,2)"/>
<path d="M0,0 L2,1 L3,5 L1,7 L-2,7 L-2,2 Z " fill="#7E7E7E" transform="translate(15,13)"/>
</svg>
