<?xml version="1.0" encoding="UTF-8"?>
<svg version="1.1" xmlns="http://www.w3.org/2000/svg" width="28" height="28">
<path d="M0,0 L28,0 L28,28 L0,28 Z " fill="#030303" transform="translate(0,0)"/>
<path d="M0,0 L2,0 L1,5 L-1,11 L-1,16 L5,16 L8,9 L10,8 L13,10 L12,19 L-1,20 L-5,17 L-5,11 L-1,2 Z " fill="#DFDFDF" transform="translate(11,1)"/>
<path d="M0,0 L4,2 L3,8 L-1,8 L-3,4 Z " fill="#A9A9A9" transform="translate(20,9)"/>
<path d="M0,0 L1,3 L4,2 L5,6 L-6,7 L-7,5 L-1,5 Z " fill="#F7F7F7" transform="translate(18,14)"/>
<path d="M0,0 L3,2 L4,5 L11,5 L11,7 L6,8 L4,9 L0,6 Z " fill="#B2B2B2" transform="translate(6,12)"/>
</svg>
