<?xml version="1.0" encoding="UTF-8"?>
<svg version="1.1" xmlns="http://www.w3.org/2000/svg" width="28" height="28">
<path d="M0,0 L28,0 L28,28 L0,28 Z " fill="#010101" transform="translate(0,0)"/>
<path d="M0,0 L3,0 L3,2 L1,2 L1,19 L4,18 L6,12 L11,8 L15,9 L16,14 L12,19 L9,20 L0,20 L-3,15 L-1,1 Z " fill="#ECECEC" transform="translate(9,2)"/>
<path d="M0,0 L3,0 L3,2 L1,2 L1,18 L-2,18 L-3,14 L-1,1 Z " fill="#CDCDCD" transform="translate(9,2)"/>
<path d="M0,0 L4,0 L3,4 L0,7 L-4,6 L-1,1 Z " fill="#070707" transform="translate(19,13)"/>
<path d="M0,0 L4,1 L5,3 L3,5 L3,3 L-2,5 L-5,6 L-6,8 L-5,4 Z " fill="#C7C7C7" transform="translate(20,10)"/>
</svg>
