<?xml version="1.0" encoding="UTF-8"?>
<svg version="1.1" xmlns="http://www.w3.org/2000/svg" width="28" height="28">
<path d="M0,0 L28,0 L28,28 L0,28 Z " fill="#020202" transform="translate(0,0)"/>
<path d="M0,0 L2,0 L1,4 L-3,5 L-5,9 L-6,11 L-8,11 L-7,15 L-3,11 L5,10 L9,12 L8,17 L2,20 L-8,20 L-11,16 L-10,10 L-3,2 Z " fill="#DCDCDC" transform="translate(16,2)"/>
<path d="M0,0 L6,1 L7,6 L3,8 L3,6 L-5,7 L-4,4 L1,2 Z " fill="#D0D0D0" transform="translate(18,12)"/>
<path d="M0,0 L5,1 L3,3 L-4,4 L-3,1 Z " fill="#0C0C0C" transform="translate(17,15)"/>
</svg>
