<?xml version="1.0" encoding="UTF-8"?>
<svg version="1.1" xmlns="http://www.w3.org/2000/svg" width="28" height="28">
<path d="M0,0 L28,0 L28,28 L0,28 Z " fill="#040404" transform="translate(0,0)"/>
<path d="M0,0 L3,0 L3,4 L-2,7 L-4,11 L-1,9 L6,9 L8,11 L7,16 L3,19 L-7,20 L-10,17 L-9,10 L-3,2 Z " fill="#B6B6B6" transform="translate(16,3)"/>
<path d="M0,0 L7,0 L9,2 L8,7 L4,10 L-4,9 L-4,8 L1,8 L1,6 L-1,6 L-1,4 L2,1 Z " fill="#E7E7E7" transform="translate(15,12)"/>
<path d="M0,0 L3,0 L3,4 L-2,7 L-6,13 L-9,14 L-8,8 L-3,2 Z " fill="#EBEBEB" transform="translate(16,3)"/>
<path d="M0,0 L3,0 L2,3 L0,3 L0,5 L2,6 L-3,6 L-2,1 Z " fill="#EDEDED" transform="translate(14,13)"/>
<path d="M0,0 L5,0 L4,3 L0,4 L-2,3 L-2,1 Z " fill="#282828" transform="translate(16,15)"/>
</svg>
