<?xml version="1.0" encoding="UTF-8"?>
<svg version="1.1" xmlns="http://www.w3.org/2000/svg" width="28" height="28">
<path d="M0,0 L28,0 L28,28 L0,28 Z " fill="#040404" transform="translate(0,0)"/>
<path d="M0,0 L5,0 L4,4 L2,3 L-4,8 L6,10 L7,16 L-1,20 L-8,20 L-10,19 L-10,11 L-6,5 Z " fill="#EDEDED" transform="translate(17,3)"/>
<path d="M0,0 L9,0 L7,4 L2,6 L-3,5 L-2,3 Z " fill="#1E1E1E" transform="translate(12,15)"/>
<path d="M0,0 L9,0 L12,3 L11,7 L9,3 L2,3 Z " fill="#BABABA" transform="translate(12,12)"/>
<path d="M0,0 L1,3 L-3,6 L-8,7 L-6,3 Z " fill="#D7D7D7" transform="translate(22,16)"/>
</svg>
