<?xml version="1.0" encoding="UTF-8"?>
<svg version="1.1" xmlns="http://www.w3.org/2000/svg" width="28" height="28">
<path d="M0,0 L28,0 L28,28 L0,28 Z " fill="#020202" transform="translate(0,0)"/>
<path d="M0,0 L4,0 L3,4 L-1,5 L-5,10 L-6,12 L-4,11 L2,11 L4,13 L3,17 L0,19 L-11,20 L-12,15 L-7,6 Z " fill="#E3E3E3" transform="translate(18,2)"/>
<path d="M0,0 L6,0 L8,2 L7,6 L3,7 L-2,6 L-2,4 L2,2 Z " fill="#D2D2D2" transform="translate(14,13)"/>
<path d="M0,0 L5,0 L5,2 L-2,3 L-2,1 Z " fill="#383838" transform="translate(14,16)"/>
</svg>
