<?xml version="1.0" encoding="UTF-8"?>
<svg version="1.1" xmlns="http://www.w3.org/2000/svg" width="28" height="28">
<path d="M0,0 L28,0 L28,28 L0,28 Z " fill="#010101" transform="translate(0,0)"/>
<path d="M0,0 L3,0 L3,3 L1,3 L-1,7 L-2,9 L4,12 L3,17 L0,20 L-5,20 L-8,16 L-7,10 L-3,3 L-1,3 Z " fill="#E9E9E9" transform="translate(17,3)"/>
<path d="M0,0 L4,1 L3,6 L0,9 L-5,9 L-5,5 L-5,2 Z " fill="#E3E3E3" transform="translate(17,14)"/>
<path d="M0,0 L3,0 L3,3 L1,3 L-1,7 L-4,7 L-3,3 L-1,3 Z M-5,7 Z " fill="#CDCDCD" transform="translate(17,3)"/>
<path d="M0,0 L4,1 L2,5 L-1,6 L-2,1 Z " fill="#252525" transform="translate(14,15)"/>
</svg>
