<?xml version="1.0" encoding="UTF-8"?>
<svg version="1.1" xmlns="http://www.w3.org/2000/svg" width="28" height="28">
<path d="M0,0 L28,0 L28,28 L0,28 Z " fill="#020202" transform="translate(0,0)"/>
<path d="M0,0 L2,0 L0,4 L-3,9 L1,10 L2,11 L2,17 L-1,20 L-6,19 L-8,14 L-7,10 L-4,4 Z " fill="#D2D2D2" transform="translate(17,3)"/>
<path d="M0,0 L5,0 L4,5 L0,5 Z " fill="#0A0A0A" transform="translate(12,15)"/>
<path d="M0,0 L1,3 L4,4 L0,5 L-1,10 L-3,7 L-2,3 Z " fill="#FBFBFB" transform="translate(12,10)"/>
</svg>
