<?xml version="1.0" encoding="UTF-8"?>
<svg version="1.1" xmlns="http://www.w3.org/2000/svg" width="28" height="28">
<path d="M0,0 L28,0 L28,28 L0,28 Z " fill="#020202" transform="translate(0,0)"/>
<path d="M0,0 L2,1 L-1,6 L-1,9 L4,11 L5,16 L2,19 L-5,20 L-6,19 L-7,11 Z " fill="#D1D1D1" transform="translate(16,3)"/>
<path d="M0,0 L6,0 L6,4 L3,6 L0,6 Z " fill="#040404" transform="translate(12,15)"/>
<path d="M0,0 L4,2 L3,7 L0,9 L-2,7 L1,5 L1,3 L-5,2 L-5,1 Z " fill="#C2C2C2" transform="translate(17,13)"/>
<path d="M0,0 L2,0 L2,2 L6,3 L1,3 L0,6 L-2,3 Z " fill="#F1F1F1" transform="translate(11,11)"/>
</svg>
