<?xml version="1.0" encoding="UTF-8"?>
<svg version="1.1" xmlns="http://www.w3.org/2000/svg" width="28" height="28">
<path d="M0,0 L28,0 L28,28 L0,28 Z " fill="#030303" transform="translate(0,0)"/>
<path d="M0,0 L2,0 L2,5 L-3,9 L0,12 L-1,16 L-8,20 L-13,20 L-14,15 L-7,8 L-1,4 Z " fill="#E4E4E4" transform="translate(20,2)"/>
<path d="M0,0 L2,0 L2,5 L-3,9 L-2,11 L-5,11 L-5,9 L-7,8 L-1,4 Z " fill="#D2D2D2" transform="translate(20,2)"/>
<path d="M0,0 L6,0 L3,3 L-1,5 L-4,5 L-2,1 Z " fill="#1F1F1F" transform="translate(12,15)"/>
</svg>
