<?xml version="1.0" encoding="UTF-8"?>
<svg version="1.1" xmlns="http://www.w3.org/2000/svg" width="28" height="28">
<path d="M0,0 L28,0 L28,28 L0,28 Z " fill="#020202" transform="translate(0,0)"/>
<path d="M0,0 L2,0 L0,5 L-1,11 L3,15 L1,19 L0,20 L-6,20 L-6,12 Z " fill="#E5E5E5" transform="translate(16,3)"/>
<path d="M0,0 L4,2 L3,6 L-1,6 Z " fill="#0F0F0F" transform="translate(12,15)"/>
<path d="M0,0 L3,0 L1,4 L0,5 L-6,5 L-5,3 L-1,2 Z " fill="#C0C0C0" transform="translate(16,18)"/>
<path d="M0,0 L2,0 L0,5 L-2,11 L-4,7 Z " fill="#C8C8C8" transform="translate(16,3)"/>
</svg>
