<?xml version="1.0" encoding="UTF-8"?>
<svg version="1.1" xmlns="http://www.w3.org/2000/svg" width="28" height="28">
<path d="M0,0 L28,0 L28,28 L0,28 Z " fill="#020202" transform="translate(0,0)"/>
<path d="M0,0 L3,0 L2,5 L-2,9 L-4,15 L1,9 L6,10 L6,15 L1,18 L-3,20 L-8,19 L-7,13 L-5,8 L-1,3 Z " fill="#DEDEDE" transform="translate(16,2)"/>
<path d="M0,0 L5,1 L5,6 L2,8 L-3,7 L-5,8 L-3,3 Z " fill="#DFDFDF" transform="translate(17,11)"/>
<path d="M0,0 L1,0 L1,5 L-2,7 L-6,5 L-4,2 L-1,3 Z " fill="#7E7E7E" transform="translate(21,12)"/>
</svg>
