<?xml version="1.0" encoding="UTF-8"?>
<svg version="1.1" xmlns="http://www.w3.org/2000/svg" width="28" height="28">
<path d="M0,0 L28,0 L28,28 L0,28 Z " fill="#020202" transform="translate(0,0)"/>
<path d="M0,0 L3,0 L3,2 L0,5 L-1,14 L4,13 L3,19 L-2,20 L-4,19 L-4,9 Z " fill="#ECECEC" transform="translate(15,2)"/>
<path d="M0,0 L2,1 L7,0 L7,4 L2,5 L2,3 L0,3 Z " fill="#979797" transform="translate(12,15)"/>
<path d="M0,0 L3,0 L3,2 L0,5 L-1,11 L-3,8 L-1,1 Z " fill="#C5C5C5" transform="translate(15,2)"/>
</svg>
