<?xml version="1.0" encoding="UTF-8"?>
<svg version="1.1" xmlns="http://www.w3.org/2000/svg" width="28" height="28">
<path d="M0,0 L28,0 L28,28 L0,28 Z " fill="#020202" transform="translate(0,0)"/>
<path d="M0,0 L2,0 L2,2 L-3,7 L-3,10 L2,10 L5,13 L4,18 L2,20 L-6,19 L-6,17 L-8,17 L-8,11 L-4,3 Z " fill="#C7C7C7" transform="translate(17,3)"/>
<path d="M0,0 L4,1 L5,5 L-2,6 L-3,2 Z " fill="#151515" transform="translate(15,15)"/>
<path d="M0,0 L2,0 L2,2 L-3,7 L-6,16 L-7,16 L-7,9 L-4,3 Z " fill="#EAEAEA" transform="translate(17,3)"/>
<path d="M0,0 L1,3 L-2,6 L-9,5 L-9,4 L-1,2 Z " fill="#F0F0F0" transform="translate(21,17)"/>
</svg>
