<?xml version="1.0" encoding="UTF-8"?>
<svg version="1.1" xmlns="http://www.w3.org/2000/svg" width="28" height="28">
<path d="M0,0 L28,0 L28,28 L0,28 Z " fill="#020202" transform="translate(0,0)"/>
<path d="M0,0 L3,1 L1,9 L4,9 L4,18 L-1,20 L-3,18 L-3,11 Z " fill="#CFCFCF" transform="translate(14,3)"/>
<path d="M0,0 L1,0 L1,8 L-4,10 L-6,8 L-5,4 L-2,6 Z " fill="#EBEBEB" transform="translate(17,13)"/>
<path d="M0,0 L4,0 L3,6 L0,6 L-2,5 L-2,1 Z " fill="#A7A7A7" transform="translate(13,13)"/>
</svg>
