<?xml version="1.0" encoding="UTF-8"?>
<svg version="1.1" xmlns="http://www.w3.org/2000/svg" width="28" height="28">
<path d="M0,0 L28,0 L28,28 L0,28 Z " fill="#010101" transform="translate(0,0)"/>
<path d="M0,0 L1,0 L1,6 L0,8 L4,9 L7,15 L5,20 L0,20 L-3,17 L-3,10 Z " fill="#A0A0A0" transform="translate(13,3)"/>
<path d="M0,0 L5,1 L6,8 L2,9 L0,7 Z " fill="#080808" transform="translate(12,13)"/>
<path d="M0,0 L1,0 L1,6 L0,8 L4,9 L3,11 L-2,11 L-1,3 Z " fill="#BBBBBB" transform="translate(13,3)"/>
</svg>
