<?xml version="1.0" encoding="UTF-8"?>
<svg version="1.1" xmlns="http://www.w3.org/2000/svg" width="28" height="28">
<path d="M0,0 L28,0 L28,28 L0,28 Z " fill="#010101" transform="translate(0,0)"/>
<path d="M0,0 L2,0 L0,4 L-4,12 L0,10 L5,11 L4,16 L-1,20 L-6,20 L-7,19 L-7,13 L-2,2 Z " fill="#E0E0E0" transform="translate(16,2)"/>
<path d="M0,0 L5,1 L4,6 L0,9 L-6,8 L-5,4 L1,3 Z " fill="#D1D1D1" transform="translate(16,12)"/>
<path d="M0,0 L4,1 L-1,5 L-5,5 L-4,1 Z " fill="#101010" transform="translate(15,15)"/>
<path d="M0,0 L2,0 L0,4 L-4,12 L-6,11 L-2,2 Z " fill="#C6C6C6" transform="translate(16,2)"/>
</svg>
