<?xml version="1.0" encoding="UTF-8"?>
<svg version="1.1" xmlns="http://www.w3.org/2000/svg" width="28" height="28">
<path d="M0,0 L28,0 L28,28 L0,28 Z " fill="#020202" transform="translate(0,0)"/>
<path d="M0,0 L1,3 L-2,10 L4,10 L5,11 L5,16 L0,20 L-5,20 L-7,13 L-1,1 Z " fill="#E2E2E2" transform="translate(16,3)"/>
<path d="M0,0 L6,0 L5,5 L-1,6 L-1,1 Z " fill="#080808" transform="translate(13,15)"/>
<path d="M0,0 L1,0 L1,5 L-4,9 L-9,9 L-10,7 L-8,3 L-8,7 L-2,5 Z " fill="#C4C4C4" transform="translate(20,14)"/>
</svg>
