<?xml version="1.0" encoding="UTF-8"?>
<svg version="1.1" xmlns="http://www.w3.org/2000/svg" width="28" height="28">
<path d="M0,0 L28,0 L28,28 L0,28 Z " fill="#030303" transform="translate(0,0)"/>
<path d="M0,0 L2,0 L-1,9 L-1,16 L1,16 L2,12 L7,11 L8,17 L6,20 L-2,20 L-4,18 L-4,6 Z " fill="#E9E9E9" transform="translate(14,2)"/>
<path d="M0,0 L2,0 L-1,9 L-1,16 L0,20 L-4,18 L-4,6 Z " fill="#E9E9E9" transform="translate(14,2)"/>
<path d="M0,0 L4,1 L4,5 L-1,6 Z " fill="#8F8F8F" transform="translate(16,14)"/>
<path d="M0,0 L2,0 L0,6 L-4,9 L-3,5 Z " fill="#D2D2D2" transform="translate(14,2)"/>
</svg>
