<?xml version="1.0" encoding="UTF-8"?>
<svg version="1.1" xmlns="http://www.w3.org/2000/svg" width="28" height="28">
<path d="M0,0 L28,0 L28,28 L0,28 Z " fill="#020202" transform="translate(0,0)"/>
<path d="M0,0 L3,0 L3,2 L-2,7 L-3,12 L2,11 L9,11 L8,16 L3,20 L-4,20 L-6,18 L-6,10 L-3,3 Z " fill="#B7B7B7" transform="translate(14,2)"/>
<path d="M0,0 L5,0 L4,5 L-1,9 L-8,9 L-9,8 L-9,3 L-7,6 L-1,6 L3,2 L-1,1 Z " fill="#DBDBDB" transform="translate(18,13)"/>
<path d="M0,0 L4,0 L2,4 L0,5 L-6,5 L-5,1 Z " fill="#1E1E1E" transform="translate(17,15)"/>
<path d="M0,0 L5,0 L4,5 L0,7 L3,2 L-1,1 Z " fill="#F1F1F1" transform="translate(18,13)"/>
<path d="M0,0 L3,0 L3,2 L-3,7 L-4,5 Z " fill="#D2D2D2" transform="translate(14,2)"/>
</svg>
