<?xml version="1.0" encoding="UTF-8"?>
<svg version="1.1" xmlns="http://www.w3.org/2000/svg" width="28" height="28">
<path d="M0,0 L28,0 L28,28 L0,28 Z " fill="#020202" transform="translate(0,0)"/>
<path d="M0,0 L1,3 L-3,12 L3,9 L7,9 L6,16 L3,19 L-4,20 L-6,18 L-5,8 Z " fill="#E4E4E4" transform="translate(15,2)"/>
<path d="M0,0 L4,0 L3,7 L-6,8 L-6,5 L-4,5 L-3,1 Z " fill="#D9D9D9" transform="translate(18,11)"/>
<path d="M0,0 L2,0 L0,4 L-6,5 L-6,2 Z " fill="#1D1D1D" transform="translate(18,14)"/>
</svg>
