<?xml version="1.0" encoding="UTF-8"?>
<svg version="1.1" xmlns="http://www.w3.org/2000/svg" width="28" height="28">
<path d="M0,0 L28,0 L28,28 L0,28 Z " fill="#020202" transform="translate(0,0)"/>
<path d="M0,0 L3,1 L1,5 L-1,8 L6,9 L8,12 L7,19 L1,20 L-4,17 L-6,14 L-5,6 Z " fill="#D8D8D8" transform="translate(14,3)"/>
<path d="M0,0 L7,1 L9,4 L8,11 L2,12 L0,10 L6,8 L5,4 L-1,3 Z " fill="#EDEDED" transform="translate(13,11)"/>
<path d="M0,0 L5,0 L7,2 L6,6 L0,6 L-2,1 Z " fill="#131313" transform="translate(13,14)"/>
</svg>
