<?xml version="1.0" encoding="UTF-8"?>
<svg version="1.1" xmlns="http://www.w3.org/2000/svg" width="28" height="28">
<path d="M0,0 L28,0 L28,28 L0,28 Z " fill="#020202" transform="translate(0,0)"/>
<path d="M0,0 L2,0 L2,5 L-1,5 L-2,11 L0,10 L6,10 L5,15 L-1,20 L-4,19 L-6,13 L-2,3 Z " fill="#DADADA" transform="translate(15,3)"/>
<path d="M0,0 L2,0 L2,5 L-1,5 L-2,13 L-2,18 L0,19 L-4,19 L-6,13 L-2,3 Z " fill="#EFEFEF" transform="translate(15,3)"/>
<path d="M0,0 L4,1 L-1,6 L-3,4 L-3,1 Z " fill="#1E1E1E" transform="translate(15,15)"/>
<path d="M0,0 L2,0 L2,5 L-1,5 L-2,8 L-4,7 Z " fill="#D3D3D3" transform="translate(15,3)"/>
</svg>
