<?xml version="1.0" encoding="UTF-8"?>
<svg version="1.1" xmlns="http://www.w3.org/2000/svg" width="28" height="28">
<path d="M0,0 L28,0 L28,28 L0,28 Z " fill="#040404" transform="translate(0,0)"/>
<path d="M0,0 L3,0 L3,2 L-1,6 L-2,13 L1,11 L7,11 L9,13 L9,18 L5,20 L-1,19 L-4,16 L-5,14 L-5,7 L-1,1 Z " fill="#EFEFEF" transform="translate(13,2)"/>
<path d="M0,0 L4,2 L4,7 L1,8 L-4,6 L-3,2 Z " fill="#DBDBDB" transform="translate(18,13)"/>
<path d="M0,0 L5,1 L5,4 L-1,4 Z " fill="#1C1C1C" transform="translate(15,15)"/>
</svg>
