<?xml version="1.0" encoding="UTF-8"?>
<svg version="1.1" xmlns="http://www.w3.org/2000/svg" width="28" height="28">
<path d="M0,0 L28,0 L28,28 L0,28 Z " fill="#030303" transform="translate(0,0)"/>
<path d="M0,0 L2,0 L0,4 L-4,13 L-4,17 L-2,18 L-1,14 L3,8 L8,8 L7,14 L0,20 L-5,20 L-7,17 L-6,8 L-2,2 Z " fill="#E7E7E7" transform="translate(15,2)"/>
<path d="M0,0 L5,0 L4,6 L-3,12 L-5,11 Z " fill="#9F9F9F" transform="translate(18,10)"/>
<path d="M0,0 L2,0 L0,4 L-4,13 L-6,10 L-4,4 Z " fill="#BFBFBF" transform="translate(15,2)"/>
</svg>
