<?xml version="1.0" encoding="UTF-8"?>
<svg version="1.1" xmlns="http://www.w3.org/2000/svg" width="28" height="28">
<path d="M0,0 L28,0 L28,28 L0,28 Z " fill="#040404" transform="translate(0,0)"/>
<path d="M0,0 L2,0 L0,4 L-3,10 L6,10 L9,13 L9,15 L7,15 L6,18 L1,20 L-5,20 L-8,17 L-7,10 L-2,2 Z " fill="#D8D8D8" transform="translate(15,3)"/>
<path d="M0,0 L10,0 L10,3 L4,5 L0,5 Z " fill="#090909" transform="translate(10,16)"/>
<path d="M0,0 L4,1 L6,5 L4,5 L3,8 L0,9 L0,6 L2,6 L2,3 L-6,3 L-6,2 L0,1 Z " fill="#C1C1C1" transform="translate(18,13)"/>
</svg>
