<?xml version="1.0" encoding="UTF-8"?>
<svg version="1.1" xmlns="http://www.w3.org/2000/svg" width="28" height="28">
<path d="M0,0 L28,0 L28,28 L0,28 Z " fill="#020202" transform="translate(0,0)"/>
<path d="M0,0 L0,3 L-4,8 L-4,14 L-3,16 L4,15 L7,12 L11,12 L9,17 L5,20 L-2,20 L-7,15 L-7,8 L-3,2 Z " fill="#B6B6B6" transform="translate(14,1)"/>
<path d="M0,0 L4,0 L2,5 L-2,8 L-7,8 L-8,6 L-4,6 L-2,2 Z " fill="#DEDEDE" transform="translate(21,13)"/>
<path d="M0,0 L0,3 L-5,9 L-6,6 L-1,1 Z " fill="#DDDDDD" transform="translate(14,1)"/>
</svg>
