<?xml version="1.0" encoding="UTF-8"?>
<svg version="1.1" xmlns="http://www.w3.org/2000/svg" width="28" height="28">
<path d="M0,0 L28,0 L28,28 L0,28 Z " fill="#030303" transform="translate(0,0)"/>
<path d="M0,0 L2,0 L1,5 L-3,12 L6,11 L7,16 L4,19 L-1,20 L-3,20 L-7,19 L-7,11 Z " fill="#DCDCDC" transform="translate(15,2)"/>
<path d="M0,0 L6,0 L7,5 L4,8 L1,9 L-2,4 L1,2 Z " fill="#E4E4E4" transform="translate(15,13)"/>
<path d="M0,0 L4,1 L1,4 L3,8 L-1,7 L-4,8 L-4,2 Z " fill="#F6F6F6" transform="translate(13,14)"/>
<path d="M0,0 L3,0 L3,4 L-2,4 L-2,1 Z " fill="#282828" transform="translate(16,15)"/>
</svg>
