<?xml version="1.0" encoding="UTF-8"?>
<svg version="1.1" xmlns="http://www.w3.org/2000/svg" width="28" height="28">
<path d="M0,0 L28,0 L28,28 L0,28 Z " fill="#040404" transform="translate(0,0)"/>
<path d="M0,0 L2,2 L-2,7 L-3,10 L-3,17 L1,18 L2,13 L5,10 L10,10 L9,17 L3,20 L-4,20 L-6,18 L-6,11 L-3,4 Z " fill="#E2E2E2" transform="translate(13,2)"/>
<path d="M0,0 L5,0 L4,7 L0,9 L-4,5 L-2,1 Z " fill="#D9D9D9" transform="translate(18,12)"/>
<path d="M0,0 L4,0 L2,4 L-3,5 L-1,1 Z " fill="#1D1D1D" transform="translate(18,14)"/>
</svg>
