<?xml version="1.0" encoding="UTF-8"?>
<svg version="1.1" xmlns="http://www.w3.org/2000/svg" width="28" height="28">
<path d="M0,0 L28,0 L28,28 L0,28 Z " fill="#020202" transform="translate(0,0)"/>
<path d="M0,0 L3,0 L1,4 L-2,8 L-2,11 L3,9 L11,9 L14,12 L12,18 L10,19 L-1,19 L-6,14 L-5,6 Z " fill="#D0D0D0" transform="translate(12,2)"/>
<path d="M0,0 L8,0 L11,3 L9,9 L7,10 L-2,10 L-2,8 L8,6 L7,3 L0,3 L-1,5 L1,7 L-4,6 L-5,2 Z " fill="#DEDEDE" transform="translate(15,11)"/>
<path d="M0,0 L7,0 L9,4 L6,6 L1,6 L1,4 L-2,3 Z " fill="#0F0F0F" transform="translate(15,13)"/>
<path d="M0,0 L5,1 L8,3 L5,3 L5,5 L0,3 Z " fill="#B3B3B3" transform="translate(8,16)"/>
</svg>
