<?xml version="1.0" encoding="UTF-8"?>
<svg version="1.1" xmlns="http://www.w3.org/2000/svg" width="28" height="28">
<path d="M0,0 L28,0 L28,28 L0,28 Z " fill="#040404" transform="translate(0,0)"/>
<path d="M0,0 L3,0 L1,5 L-3,10 L5,9 L6,12 L2,17 L-2,19 L-14,19 L-11,13 L-2,3 Z " fill="#EDEDED" transform="translate(18,2)"/>
<path d="M0,0 L5,0 L6,3 L2,8 L-1,9 L-1,7 L-6,8 L-2,4 L-2,1 Z " fill="#ECECEC" transform="translate(18,11)"/>
<path d="M0,0 L3,1 L-1,4 L-6,5 L-2,1 Z " fill="#3E3E3E" transform="translate(18,14)"/>
</svg>
