<?xml version="1.0" encoding="UTF-8"?>
<svg version="1.1" xmlns="http://www.w3.org/2000/svg" width="28" height="28">
<path d="M0,0 L28,0 L28,28 L0,28 Z " fill="#020202" transform="translate(0,0)"/>
<path d="M0,0 L5,0 L9,3 L9,5 L2,4 L1,9 L5,12 L5,14 L2,14 L2,12 L-2,12 L-2,17 L4,17 L3,19 L-3,19 L-5,16 L-5,7 L-2,2 Z " fill="#E9E9E9" transform="translate(14,4)"/>
<path d="M0,0 L4,0 L4,2 L9,3 L8,8 L1,8 L5,6 L0,5 Z " fill="#CECECE" transform="translate(12,16)"/>
<path d="M0,0 L4,0 L6,5 L0,5 Z " fill="#191919" transform="translate(12,16)"/>
</svg>
