<?xml version="1.0" encoding="UTF-8"?>
<svg version="1.1" xmlns="http://www.w3.org/2000/svg" width="28" height="28">
<path d="M0,0 L28,0 L28,28 L0,28 Z " fill="#010101" transform="translate(0,0)"/>
<path d="M0,0 L2,0 L1,5 L-2,13 L-1,12 L5,12 L6,16 L2,20 L-4,20 L-6,18 L-5,10 L-1,1 Z " fill="#EBEBEB" transform="translate(15,2)"/>
<path d="M0,0 L6,0 L7,4 L5,7 L0,5 L-1,1 Z " fill="#B5B5B5" transform="translate(14,14)"/>
<path d="M0,0 L3,2 L1,10 L-2,8 Z " fill="#D1D1D1" transform="translate(11,9)"/>
</svg>
