<?xml version="1.0" encoding="UTF-8"?>
<svg version="1.1" xmlns="http://www.w3.org/2000/svg" width="28" height="28">
<path d="M0,0 L28,0 L28,28 L0,28 Z " fill="#030303" transform="translate(0,0)"/>
<path d="M0,0 L2,0 L1,6 L1,14 L8,10 L12,12 L12,17 L9,20 L2,20 L-2,16 L-3,8 Z " fill="#B7B7B7" transform="translate(11,2)"/>
<path d="M0,0 L4,2 L4,7 L2,9 L-3,9 L0,6 L2,6 L2,3 L-2,3 L-2,1 Z " fill="#EFEFEF" transform="translate(19,12)"/>
<path d="M0,0 L2,0 L0,9 L-2,11 L-2,4 Z " fill="#E7E7E7" transform="translate(11,2)"/>
</svg>
