<?xml version="1.0" encoding="UTF-8"?>
<svg version="1.1" xmlns="http://www.w3.org/2000/svg" width="28" height="28">
<path d="M0,0 L28,0 L28,28 L0,28 Z " fill="#040404" transform="translate(0,0)"/>
<path d="M0,0 L1,0 L0,15 L2,17 L6,18 L6,11 L8,8 L12,9 L13,10 L12,17 L8,20 L-1,19 L-3,17 L-3,8 L-1,1 Z " fill="#D9D9D9" transform="translate(10,2)"/>
<path d="M0,0 L4,1 L5,2 L4,9 L2,10 L-1,8 L-2,3 Z " fill="#949494" transform="translate(18,10)"/>
<path d="M0,0 L4,4 L4,6 L2,7 L-4,7 L-6,5 L-4,4 L0,5 Z " fill="#F5F5F5" transform="translate(16,15)"/>
</svg>
