<?xml version="1.0" encoding="UTF-8"?>
<svg version="1.1" xmlns="http://www.w3.org/2000/svg" width="28" height="28">
<path d="M0,0 L28,0 L28,28 L0,28 Z " fill="#010101" transform="translate(0,0)"/>
<path d="M0,0 L2,0 L0,7 L-2,11 L3,10 L6,12 L5,17 L2,20 L-4,20 L-6,17 L-5,10 Z " fill="#C5C5C5" transform="translate(15,3)"/>
<path d="M0,0 L4,1 L3,5 L2,6 L-3,6 L-4,3 L-3,1 Z " fill="#141414" transform="translate(15,15)"/>
<path d="M0,0 L2,0 L0,7 L-2,12 L-4,16 L-5,16 L-5,10 Z " fill="#E2E2E2" transform="translate(15,3)"/>
</svg>
