<?xml version="1.0" encoding="UTF-8"?>
<svg version="1.1" xmlns="http://www.w3.org/2000/svg" width="28" height="28">
<path d="M0,0 L28,0 L28,28 L0,28 Z " fill="#030303" transform="translate(0,0)"/>
<path d="M0,0 L2,0 L1,4 L0,7 L0,17 L9,16 L8,12 L3,12 L3,14 L5,14 L5,16 L1,14 L2,10 L9,9 L11,11 L11,16 L6,20 L0,20 L-4,15 L-4,7 Z " fill="#EBEBEB" transform="translate(12,2)"/>
<path d="M0,0 L1,0 L2,8 L8,8 L8,11 L2,11 L-1,8 Z " fill="#C4C4C4" transform="translate(10,11)"/>
<path d="M0,0 L4,1 L4,5 L1,6 L0,3 L-2,3 L-2,1 Z " fill="#1E1E1E" transform="translate(17,13)"/>
<path d="M0,0 L2,1 L1,3 L-1,3 L-1,5 L1,5 L1,7 L-3,5 L-2,1 Z " fill="#D3D3D3" transform="translate(16,11)"/>
</svg>
