<?xml version="1.0" encoding="UTF-8"?>
<svg version="1.1" xmlns="http://www.w3.org/2000/svg" width="28" height="28">
<path d="M0,0 L28,0 L28,28 L0,28 Z " fill="#030303" transform="translate(0,0)"/>
<path d="M0,0 L3,1 L-3,8 L-5,12 L-1,9 L5,10 L6,14 L1,19 L-1,20 L-7,20 L-7,18 L-9,18 L-10,12 L-6,5 L-4,5 L-2,1 Z " fill="#E4E4E4" transform="translate(17,3)"/>
<path d="M0,0 L3,1 L-3,8 L-8,13 L-10,16 L-9,11 L-6,5 L-4,5 L-2,1 Z " fill="#D4D4D4" transform="translate(17,3)"/>
<path d="M0,0 L5,0 L6,4 L1,9 L-4,9 L1,5 L2,2 Z " fill="#EDEDED" transform="translate(17,13)"/>
<path d="M0,0 L5,0 L2,5 L-2,5 Z " fill="#191919" transform="translate(15,15)"/>
</svg>
