<?xml version="1.0" encoding="UTF-8"?>
<svg version="1.1" xmlns="http://www.w3.org/2000/svg" width="28" height="28">
<path d="M0,0 L28,0 L28,28 L0,28 Z " fill="#020202" transform="translate(0,0)"/>
<path d="M0,0 L2,0 L1,5 L-5,17 L-3,17 L-2,12 L3,9 L6,9 L6,17 L1,20 L-6,19 L-6,11 Z " fill="#C9C9C9" transform="translate(15,2)"/>
<path d="M0,0 L3,0 L3,8 L-1,9 L-4,9 L-4,7 L-6,7 L-5,3 Z " fill="#AFAFAF" transform="translate(18,11)"/>
<path d="M0,0 L2,0 L1,5 L5,4 L5,6 L10,5 L7,8 L0,7 Z " fill="#E5E5E5" transform="translate(9,14)"/>
</svg>
