<?xml version="1.0" encoding="UTF-8"?>
<svg version="1.1" xmlns="http://www.w3.org/2000/svg" width="28" height="28">
<path d="M0,0 L28,0 L28,28 L0,28 Z " fill="#030303" transform="translate(0,0)"/>
<path d="M0,0 L2,0 L0,5 L-4,12 L6,12 L7,17 L2,20 L-6,20 L-9,19 L-9,13 L-6,7 L-4,7 L-3,2 Z " fill="#EDEDED" transform="translate(16,2)"/>
<path d="M0,0 L11,1 L12,6 L9,8 L2,7 L1,5 L3,5 L3,2 L0,2 Z " fill="#E0E0E0" transform="translate(11,13)"/>
<path d="M0,0 L3,0 L3,4 L-3,4 L-4,2 Z " fill="#171717" transform="translate(16,16)"/>
</svg>
