<?xml version="1.0" encoding="UTF-8"?>
<svg version="1.1" xmlns="http://www.w3.org/2000/svg" width="28" height="28">
<path d="M0,0 L28,0 L28,28 L0,28 Z " fill="#020202" transform="translate(0,0)"/>
<path d="M0,0 L3,1 L-2,5 L-4,6 L-4,11 L2,12 L4,8 L8,5 L13,5 L14,9 L6,14 L-2,14 L-6,10 L-6,5 Z " fill="#C3C3C3" transform="translate(11,6)"/>
<path d="M0,0 L3,1 L-2,5 L-4,6 L-4,11 L2,12 L3,10 L3,13 L6,14 L-2,14 L-6,10 L-6,5 Z " fill="#A9A9A9" transform="translate(11,6)"/>
<path d="M0,0 L4,0 L3,3 L-1,5 L-4,5 L-2,1 Z " fill="#121212" transform="translate(19,13)"/>
<path d="M0,0 L3,1 L-2,5 L-4,6 L-6,10 L-6,5 Z " fill="#D2D2D2" transform="translate(11,6)"/>
</svg>
