<?xml version="1.0" encoding="UTF-8"?>
<svg version="1.1" xmlns="http://www.w3.org/2000/svg" width="28" height="28">
<path d="M0,0 L28,0 L28,28 L0,28 Z " fill="#010101" transform="translate(0,0)"/>
<path d="M0,0 L2,0 L1,6 L1,8 L5,9 L4,15 L-2,20 L-7,19 L-7,14 L-1,4 Z " fill="#CDCDCD" transform="translate(16,2)"/>
<path d="M0,0 L2,0 L1,6 L1,8 L4,8 L3,11 L-2,13 L-2,16 L-5,16 L-6,18 L-5,11 L-1,4 Z " fill="#DEDEDE" transform="translate(16,2)"/>
<path d="M0,0 L2,0 L1,4 L-3,8 L-6,8 L-6,6 L-4,5 L-3,2 Z " fill="#262626" transform="translate(17,12)"/>
</svg>
