<?xml version="1.0" encoding="UTF-8"?>
<svg version="1.1" xmlns="http://www.w3.org/2000/svg" width="28" height="28">
<path d="M0,0 L28,0 L28,28 L0,28 Z " fill="#010101" transform="translate(0,0)"/>
<path d="M0,0 L2,0 L0,5 L-2,6 L-3,9 L-1,9 L-2,15 L-5,19 L-10,20 L-10,13 L-7,6 L-5,6 L-5,4 Z " fill="#D6D6D6" transform="translate(19,4)"/>
<path d="M0,0 L2,0 L3,4 L0,8 L-5,9 L-5,2 Z " fill="#CCCCCC" transform="translate(14,15)"/>
<path d="M0,0 L1,2 L4,2 L3,6 L2,4 L0,5 L-2,8 L-4,4 Z " fill="#EFEFEF" transform="translate(14,11)"/>
</svg>
