<?xml version="1.0" encoding="UTF-8"?>
<svg version="1.1" xmlns="http://www.w3.org/2000/svg" width="28" height="28">
<path d="M0,0 L28,0 L28,28 L0,28 Z " fill="#030303" transform="translate(0,0)"/>
<path d="M0,0 L3,0 L1,4 L-3,11 L-2,12 L1,10 L7,10 L7,15 L2,19 L-3,20 L-7,18 L-7,10 L-4,3 Z " fill="#F3F3F3" transform="translate(15,3)"/>
<path d="M0,0 L6,0 L6,5 L2,8 L1,6 L-2,6 L-3,2 Z " fill="#E2E2E2" transform="translate(16,13)"/>
<path d="M0,0 L3,0 L1,4 L-3,11 L-5,11 L-7,13 L-6,9 L-4,3 Z " fill="#D9D9D9" transform="translate(15,3)"/>
<path d="M0,0 L2,1 L2,5 L-2,6 L-3,2 Z " fill="#8C8C8C" transform="translate(16,13)"/>
</svg>
