<?xml version="1.0" encoding="UTF-8"?>
<svg version="1.1" xmlns="http://www.w3.org/2000/svg" width="28" height="28">
<path d="M0,0 L28,0 L28,28 L0,28 Z " fill="#040404" transform="translate(0,0)"/>
<path d="M0,0 L2,0 L2,14 L3,11 L9,7 L13,9 L12,14 L8,19 L2,20 L-1,16 L-1,2 Z " fill="#E7E7E7" transform="translate(10,3)"/>
<path d="M0,0 L2,0 L1,5 L-3,9 L-6,8 L-3,3 Z " fill="#161616" transform="translate(19,12)"/>
<path d="M0,0 L4,2 L4,5 L2,5 L2,2 L-3,6 L-6,6 L-6,4 Z " fill="#D0D0D0" transform="translate(19,10)"/>
</svg>
