<?xml version="1.0" encoding="UTF-8"?>
<svg version="1.1" xmlns="http://www.w3.org/2000/svg" width="28" height="28">
<path d="M0,0 L28,0 L28,28 L0,28 Z " fill="#030303" transform="translate(0,0)"/>
<path d="M0,0 L4,1 L3,3 L1,3 L0,13 L6,12 L6,15 L8,16 L4,20 L-3,19 L-4,15 L-1,1 Z " fill="#D4D4D4" transform="translate(13,2)"/>
<path d="M0,0 L8,1 L4,6 L-3,5 L-4,1 Z " fill="#DCDCDC" transform="translate(13,16)"/>
<path d="M0,0 L1,4 L8,3 L7,6 L-1,6 Z " fill="#F1F1F1" transform="translate(11,11)"/>
<path d="M0,0 L5,0 L5,3 L-1,4 Z " fill="#202020" transform="translate(13,16)"/>
</svg>
