<?xml version="1.0" encoding="UTF-8"?>
<svg version="1.1" xmlns="http://www.w3.org/2000/svg" width="28" height="28">
<path d="M0,0 L28,0 L28,28 L0,28 Z " fill="#030303" transform="translate(0,0)"/>
<path d="M0,0 L3,0 L3,3 L-1,4 L-5,10 L-5,17 L-2,17 L2,10 L7,6 L10,6 L9,11 L4,17 L2,20 L-6,20 L-8,18 L-8,9 Z " fill="#ACACAC" transform="translate(14,3)"/>
<path d="M0,0 L3,0 L3,3 L-1,4 L-5,10 L-5,17 L-2,18 L-2,20 L-7,19 L-8,18 L-8,9 Z " fill="#D3D3D3" transform="translate(14,3)"/>
<path d="M0,0 L3,0 L2,5 L-2,9 L-4,8 L-2,5 L-6,7 L-5,4 Z " fill="#DFDFDF" transform="translate(21,9)"/>
<path d="M0,0 L2,3 L3,5 L6,6 L6,8 L1,7 L0,6 Z " fill="#EDEDED" transform="translate(6,15)"/>
</svg>
