<?xml version="1.0" encoding="UTF-8"?>
<svg version="1.1" xmlns="http://www.w3.org/2000/svg" width="28" height="28">
<path d="M0,0 L28,0 L28,28 L0,28 Z " fill="#030303" transform="translate(0,0)"/>
<path d="M0,0 L2,0 L2,2 L0,2 L-2,7 L-3,9 L3,11 L4,16 L0,20 L-7,19 L-9,14 L-9,10 L-5,6 L-2,1 Z " fill="#D5D5D5" transform="translate(17,3)"/>
<path d="M0,0 L6,1 L7,5 L6,6 L0,6 Z " fill="#090909" transform="translate(12,14)"/>
<path d="M0,0 L2,1 L1,4 L0,9 L-2,9 L-3,2 Z " fill="#EFEFEF" transform="translate(11,11)"/>
</svg>
