<?xml version="1.0" encoding="UTF-8"?>
<svg version="1.1" xmlns="http://www.w3.org/2000/svg" width="28" height="28">
<path d="M0,0 L28,0 L28,28 L0,28 Z " fill="#030303" transform="translate(0,0)"/>
<path d="M0,0 L2,0 L-1,9 L-1,12 L4,8 L10,7 L11,12 L8,16 L3,19 L-4,18 L-5,16 L-5,9 Z " fill="#E7E7E7" transform="translate(13,3)"/>
<path d="M0,0 L4,1 L3,7 L0,9 L-7,9 L-5,2 Z " fill="#D6D6D6" transform="translate(20,10)"/>
<path d="M0,0 L2,0 L1,4 L-6,6 L-2,1 Z " fill="#222222" transform="translate(19,13)"/>
</svg>
