<?xml version="1.0" encoding="UTF-8"?>
<svg version="1.1" xmlns="http://www.w3.org/2000/svg" width="28" height="28">
<path d="M0,0 L28,0 L28,28 L0,28 Z " fill="#020202" transform="translate(0,0)"/>
<path d="M0,0 L1,2 L-4,10 L-3,11 L2,12 L3,17 L0,20 L-6,20 L-9,15 L-5,6 L-2,1 Z " fill="#DCDCDC" transform="translate(17,2)"/>
<path d="M0,0 L5,1 L6,6 L1,7 L0,2 Z " fill="#A0A0A0" transform="translate(14,13)"/>
<path d="M0,0 L2,1 L2,5 L4,5 L6,3 L5,7 L4,8 L-2,8 L-2,6 L0,6 L-1,3 Z " fill="#F3F3F3" transform="translate(13,14)"/>
</svg>
