<?xml version="1.0" encoding="UTF-8"?>
<svg version="1.1" xmlns="http://www.w3.org/2000/svg" width="28" height="28">
<path d="M0,0 L28,0 L28,28 L0,28 Z " fill="#020202" transform="translate(0,0)"/>
<path d="M0,0 L1,4 L-1,4 L-2,13 L3,9 L8,9 L10,12 L9,19 L4,20 L-1,17 L-4,13 L-4,6 Z " fill="#DEDEDE" transform="translate(12,2)"/>
<path d="M0,0 L4,0 L4,5 L-2,5 L-1,1 Z " fill="#0A0A0A" transform="translate(16,14)"/>
<path d="M0,0 L2,4 L-1,7 L-5,6 L-2,4 L0,4 Z " fill="#C0C0C0" transform="translate(20,15)"/>
</svg>
