<?xml version="1.0" encoding="UTF-8"?>
<svg version="1.1" xmlns="http://www.w3.org/2000/svg" width="28" height="28">
<path d="M0,0 L28,0 L28,28 L0,28 Z " fill="#030303" transform="translate(0,0)"/>
<path d="M0,0 L2,0 L2,7 L4,5 L9,6 L14,9 L15,14 L10,19 L8,20 L2,20 L-1,15 L-1,2 Z " fill="#E7E7E7" transform="translate(9,3)"/>
<path d="M0,0 L7,1 L9,3 L8,7 L6,9 L-1,9 L-2,4 Z " fill="#0A0A0A" transform="translate(13,11)"/>
<path d="M0,0 L5,1 L9,3 L8,6 L5,4 L0,4 L-2,7 L-3,3 Z " fill="#C8C8C8" transform="translate(13,8)"/>
</svg>
