<?xml version="1.0" encoding="UTF-8"?>
<svg version="1.1" xmlns="http://www.w3.org/2000/svg" width="28" height="28">
<path d="M0,0 L28,0 L28,28 L0,28 Z " fill="#030303" transform="translate(0,0)"/>
<path d="M0,0 L2,1 L1,5 L-1,5 L-2,13 L0,13 L3,8 L4,7 L10,7 L14,12 L12,16 L7,18 L-1,17 L-5,13 L-6,8 L-4,3 L-2,3 L-2,1 Z " fill="#DADADA" transform="translate(11,4)"/>
<path d="M0,0 L2,1 L1,5 L-1,5 L-2,13 L0,14 L-4,15 L-6,11 L-5,6 L-4,3 L-2,3 L-2,1 Z " fill="#E3E3E3" transform="translate(11,4)"/>
<path d="M0,0 L2,1 L0,5 L-5,7 L-10,7 L-10,3 L-1,2 Z " fill="#E9E9E9" transform="translate(23,15)"/>
<path d="M0,0 L5,0 L6,4 L-1,5 Z " fill="#212121" transform="translate(16,14)"/>
</svg>
