<?xml version="1.0" encoding="UTF-8"?>
<svg version="1.1" xmlns="http://www.w3.org/2000/svg" width="28" height="28">
<path d="M0,0 L28,0 L28,28 L0,28 Z " fill="#020202" transform="translate(0,0)"/>
<path d="M0,0 L3,0 L3,2 L-3,5 L-5,12 L2,9 L7,10 L8,14 L3,20 L-3,20 L-8,15 L-8,7 L-5,2 Z " fill="#E8E8E8" transform="translate(16,3)"/>
<path d="M0,0 L5,1 L6,5 L1,11 L-1,11 L-5,3 L-4,1 Z " fill="#D7D7D7" transform="translate(18,12)"/>
<path d="M0,0 L5,0 L3,4 L-1,4 L-2,1 Z " fill="#242424" transform="translate(16,15)"/>
</svg>
