<?xml version="1.0" encoding="UTF-8"?>
<svg version="1.1" xmlns="http://www.w3.org/2000/svg" width="28" height="28">
<path d="M0,0 L28,0 L28,28 L0,28 Z " fill="#010101" transform="translate(0,0)"/>
<path d="M0,0 L2,0 L0,4 L-4,9 L-1,12 L-3,18 L-6,20 L-10,19 L-11,18 L-10,11 L-6,5 L-2,2 L0,2 Z " fill="#B0B0B0" transform="translate(20,3)"/>
<path d="M0,0 L2,0 L0,4 L-5,10 L-8,10 L-6,5 L-2,2 L0,2 Z " fill="#D9D9D9" transform="translate(20,3)"/>
<path d="M0,0 L1,3 L7,0 L8,2 L4,6 L0,5 Z " fill="#E8E8E8" transform="translate(10,17)"/>
</svg>
