<?xml version="1.0" encoding="UTF-8"?>
<svg version="1.1" xmlns="http://www.w3.org/2000/svg" width="28" height="28">
<path d="M0,0 L28,0 L28,28 L0,28 Z " fill="#020202" transform="translate(0,0)"/>
<path d="M0,0 L1,2 L-1,9 L-2,17 L1,17 L2,10 L4,8 L8,9 L10,11 L9,16 L5,20 L-2,20 L-4,18 L-4,8 L-1,1 Z " fill="#9E9E9E" transform="translate(13,2)"/>
<path d="M0,0 L4,1 L5,5 L2,10 L-4,11 L-3,8 L0,8 L1,2 Z " fill="#DDDDDD" transform="translate(18,11)"/>
<path d="M0,0 L1,2 L-1,9 L-1,18 L-4,18 L-4,8 L-1,1 Z " fill="#DCDCDC" transform="translate(13,2)"/>
<path d="M0,0 L1,0 L2,9 L-1,9 L-1,1 Z " fill="#FBFBFB" transform="translate(10,11)"/>
</svg>
