<?xml version="1.0" encoding="UTF-8"?>
<svg version="1.1" xmlns="http://www.w3.org/2000/svg" width="28" height="28">
<path d="M0,0 L28,0 L28,28 L0,28 Z " fill="#020202" transform="translate(0,0)"/>
<path d="M0,0 L5,1 L1,3 L-4,7 L-7,12 L1,11 L3,13 L2,18 L-2,20 L-8,20 L-10,16 L-9,9 L-2,1 Z " fill="#E4E4E4" transform="translate(18,3)"/>
<path d="M0,0 L9,0 L8,4 L2,5 Z " fill="#232323" transform="translate(10,16)"/>
<path d="M0,0 L2,1 L1,6 L-5,8 L-5,5 L-1,4 Z " fill="#CDCDCD" transform="translate(19,15)"/>
</svg>
