<?xml version="1.0" encoding="UTF-8"?>
<svg version="1.1" xmlns="http://www.w3.org/2000/svg" width="28" height="28">
<path d="M0,0 L28,0 L28,28 L0,28 Z " fill="#040404" transform="translate(0,0)"/>
<path d="M0,0 L2,0 L1,4 L-1,7 L6,9 L7,10 L7,15 L0,20 L-7,19 L-12,17 L-11,12 L-5,7 Z " fill="#E4E4E4" transform="translate(17,2)"/>
<path d="M0,0 L5,0 L7,2 L7,7 L3,9 L3,4 L-1,3 Z " fill="#EDEDED" transform="translate(17,10)"/>
<path d="M0,0 L5,1 L5,3 L1,5 L-4,5 L-3,1 Z " fill="#0E0E0E" transform="translate(16,13)"/>
</svg>
