<?xml version="1.0" encoding="UTF-8"?>
<svg version="1.1" xmlns="http://www.w3.org/2000/svg" width="28" height="28">
<path d="M0,0 L28,0 L28,28 L0,28 Z " fill="#020202" transform="translate(0,0)"/>
<path d="M0,0 L3,0 L2,5 L-4,14 L-4,16 L1,17 L1,12 L4,9 L9,9 L13,12 L12,16 L9,19 L4,20 L-3,20 L-7,17 L-6,10 L-1,4 Z " fill="#E1E1E1" transform="translate(12,2)"/>
<path d="M0,0 L3,0 L2,5 L-4,14 L-4,16 L2,16 L2,18 L4,20 L-3,20 L-7,17 L-6,10 L-1,4 Z " fill="#CACACA" transform="translate(12,2)"/>
<path d="M0,0 L6,1 L6,4 L2,6 L-2,6 L-1,1 Z " fill="#191919" transform="translate(17,13)"/>
</svg>
