<?xml version="1.0" encoding="UTF-8"?>
<svg version="1.1" xmlns="http://www.w3.org/2000/svg" width="28" height="28">
<path d="M0,0 L28,0 L28,28 L0,28 Z " fill="#020202" transform="translate(0,0)"/>
<path d="M0,0 L2,0 L1,4 L-3,10 L1,11 L1,16 L-1,16 L-1,18 L-5,20 L-10,20 L-10,14 L-8,14 L-9,11 L-4,6 Z " fill="#D6D6D6" transform="translate(18,3)"/>
<path d="M0,0 L4,1 L3,5 L1,7 L-3,7 L-2,2 Z " fill="#161616" transform="translate(13,14)"/>
<path d="M0,0 L2,0 L1,4 L-3,10 L-5,7 Z " fill="#C6C6C6" transform="translate(18,3)"/>
</svg>
