<?xml version="1.0" encoding="UTF-8"?>
<svg version="1.1" xmlns="http://www.w3.org/2000/svg" width="28" height="28">
<path d="M0,0 L28,0 L28,28 L0,28 Z " fill="#020202" transform="translate(0,0)"/>
<path d="M0,0 L3,1 L1,5 L-2,9 L4,11 L5,15 L-1,20 L-7,20 L-7,11 L-2,3 Z " fill="#D1D1D1" transform="translate(16,3)"/>
<path d="M0,0 L3,1 L1,5 L-3,11 L-5,12 L-6,18 L1,17 L-1,20 L-7,20 L-7,11 L-2,3 Z " fill="#DDDDDD" transform="translate(16,3)"/>
<path d="M0,0 L4,1 L2,5 L-4,6 L-3,1 Z " fill="#090909" transform="translate(15,15)"/>
</svg>
