<?xml version="1.0" encoding="UTF-8"?>
<svg version="1.1" xmlns="http://www.w3.org/2000/svg" width="28" height="28">
<path d="M0,0 L28,0 L28,28 L0,28 Z " fill="#040404" transform="translate(0,0)"/>
<path d="M0,0 L3,1 L-3,8 L-5,12 L-1,11 L-1,13 L-5,14 L-4,19 L-9,17 L-6,8 L-2,2 Z " fill="#EDEDED" transform="translate(17,3)"/>
<path d="M0,0 L4,1 L3,6 L0,9 L-4,8 L-4,3 L0,2 Z " fill="#D6D6D6" transform="translate(16,14)"/>
<path d="M0,0 L4,0 L3,4 L-2,5 L-2,1 Z " fill="#181818" transform="translate(14,16)"/>
</svg>
