<?xml version="1.0" encoding="UTF-8"?>
<svg version="1.1" xmlns="http://www.w3.org/2000/svg" width="28" height="28">
<path d="M0,0 L28,0 L28,28 L0,28 Z " fill="#020202" transform="translate(0,0)"/>
<path d="M0,0 L3,1 L-3,8 L-5,15 L-1,12 L5,12 L6,17 L5,19 L-3,20 L-8,16 L-6,7 Z " fill="#DBDBDB" transform="translate(16,2)"/>
<path d="M0,0 L3,1 L-3,8 L-5,15 L-5,17 L-8,16 L-6,7 Z " fill="#E4E4E4" transform="translate(16,2)"/>
<path d="M0,0 L5,0 L4,4 L-1,4 L-1,1 Z " fill="#1C1C1C" transform="translate(15,16)"/>
<path d="M0,0 L4,2 L-1,4 L-2,7 L-5,6 L-2,1 Z " fill="#BEBEBE" transform="translate(15,14)"/>
</svg>
