<?xml version="1.0" encoding="UTF-8"?>
<svg version="1.1" xmlns="http://www.w3.org/2000/svg" width="28" height="28">
<path d="M0,0 L28,0 L28,28 L0,28 Z " fill="#010101" transform="translate(0,0)"/>
<path d="M0,0 L2,0 L0,5 L-5,12 L0,13 L2,17 L-1,20 L-9,20 L-10,19 L-10,12 L-5,7 Z " fill="#AFAFAF" transform="translate(19,2)"/>
<path d="M0,0 L2,0 L0,5 L-5,12 L-3,13 L-7,14 L-7,18 L-3,20 L-9,20 L-10,19 L-10,12 L-5,7 Z " fill="#D8D8D8" transform="translate(19,2)"/>
<path d="M0,0 L6,0 L8,3 L7,4 L0,4 Z " fill="#080808" transform="translate(11,16)"/>
</svg>
