<?xml version="1.0" encoding="UTF-8"?>
<svg version="1.1" xmlns="http://www.w3.org/2000/svg" width="28" height="28">
<path d="M0,0 L28,0 L28,28 L0,28 Z " fill="#030303" transform="translate(0,0)"/>
<path d="M0,0 L3,0 L1,5 L-1,10 L5,10 L7,16 L6,18 L1,20 L-7,20 L-5,9 L-3,9 L-3,4 Z " fill="#E5E5E5" transform="translate(15,2)"/>
<path d="M0,0 L5,1 L7,5 L6,6 L-1,6 L-1,1 Z " fill="#191919" transform="translate(13,13)"/>
<path d="M0,0 L2,2 L2,5 L6,6 L-1,6 Z M-2,6 Z " fill="#B7B7B7" transform="translate(10,14)"/>
</svg>
