<?xml version="1.0" encoding="UTF-8"?>
<svg version="1.1" xmlns="http://www.w3.org/2000/svg" width="28" height="28">
<path d="M0,0 L28,0 L28,28 L0,28 Z " fill="#030303" transform="translate(0,0)"/>
<path d="M0,0 L2,1 L-3,7 L-5,11 L0,12 L2,14 L1,18 L-2,20 L-6,19 L-8,18 L-8,9 L-5,4 L-3,4 L-2,1 Z " fill="#E7E7E7" transform="translate(18,3)"/>
<path d="M0,0 L2,1 L-3,7 L-6,11 L-8,11 L-6,6 L-5,4 L-3,4 L-2,1 Z " fill="#D7D7D7" transform="translate(18,3)"/>
<path d="M0,0 L5,1 L3,4 L0,4 L-1,1 Z " fill="#222222" transform="translate(13,17)"/>
</svg>
