<?xml version="1.0" encoding="UTF-8"?>
<svg version="1.1" xmlns="http://www.w3.org/2000/svg" width="28" height="28">
<path d="M0,0 L28,0 L28,28 L0,28 Z " fill="#030303" transform="translate(0,0)"/>
<path d="M0,0 L0,3 L-6,12 L-7,15 L-5,15 L-5,13 L-1,10 L5,10 L6,15 L3,20 L-2,20 L-10,16 L-9,11 L-5,5 Z " fill="#DEDEDE" transform="translate(17,2)"/>
<path d="M0,0 L6,0 L7,5 L4,8 L4,6 L-1,6 Z " fill="#C8C8C8" transform="translate(16,12)"/>
<path d="M0,0 L4,0 L4,4 L-1,4 Z " fill="#070707" transform="translate(16,14)"/>
</svg>
