<?xml version="1.0" encoding="UTF-8"?>
<svg version="1.1" xmlns="http://www.w3.org/2000/svg" width="28" height="28">
<path d="M0,0 L28,0 L28,28 L0,28 Z " fill="#020202" transform="translate(0,0)"/>
<path d="M0,0 L2,0 L0,4 L-6,9 L-7,14 L-4,13 L5,13 L5,18 L2,20 L-4,20 L-9,15 L-9,8 L-4,3 Z " fill="#E5E5E5" transform="translate(17,2)"/>
<path d="M0,0 L9,0 L9,5 L5,7 L5,5 L0,4 L0,2 L-3,1 Z " fill="#BFBFBF" transform="translate(13,15)"/>
<path d="M0,0 L6,0 L6,3 L-1,2 Z " fill="#0F0F0F" transform="translate(14,17)"/>
</svg>
