<?xml version="1.0" encoding="UTF-8"?>
<svg version="1.1" xmlns="http://www.w3.org/2000/svg" width="28" height="28">
<path d="M0,0 L28,0 L28,28 L0,28 Z " fill="#030303" transform="translate(0,0)"/>
<path d="M0,0 L1,4 L-4,14 L-5,17 L-1,16 L2,11 L5,11 L5,16 L2,20 L-6,20 L-8,16 Z " fill="#E6E6E6" transform="translate(16,2)"/>
<path d="M0,0 L3,0 L3,5 L0,8 L-5,8 L-5,6 L-1,2 Z " fill="#EEEEEE" transform="translate(18,13)"/>
<path d="M0,0 L2,0 L2,4 L4,4 L4,6 L9,6 L9,7 L1,7 L-1,3 Z " fill="#C7C7C7" transform="translate(9,15)"/>
</svg>
