<?xml version="1.0" encoding="UTF-8"?>
<svg version="1.1" xmlns="http://www.w3.org/2000/svg" width="28" height="28">
<path d="M0,0 L28,0 L28,28 L0,28 Z " fill="#020202" transform="translate(0,0)"/>
<path d="M0,0 L4,0 L2,6 L-2,17 L0,17 L1,12 L6,8 L10,9 L9,15 L2,20 L-4,20 L-6,18 L-5,12 Z " fill="#E4E4E4" transform="translate(13,2)"/>
<path d="M0,0 L4,1 L3,7 L-1,9 L-1,7 L-5,6 L-3,2 Z " fill="#E2E2E2" transform="translate(19,10)"/>
<path d="M0,0 L2,1 L2,5 L-2,5 L-2,2 Z " fill="#BDBDBD" transform="translate(17,11)"/>
</svg>
