<?xml version="1.0" encoding="UTF-8"?>
<svg version="1.1" xmlns="http://www.w3.org/2000/svg" width="28" height="28">
<path d="M0,0 L28,0 L28,28 L0,28 Z " fill="#030303" transform="translate(0,0)"/>
<path d="M0,0 L6,0 L6,2 L0,4 L-4,7 L-5,13 L8,12 L10,14 L10,18 L7,20 L-3,20 L-9,17 L-8,8 L-3,2 Z " fill="#CACACA" transform="translate(15,2)"/>
<path d="M0,0 L7,0 L9,2 L9,6 L6,8 L-3,8 L-3,7 L7,5 L7,2 L-3,3 L-5,1 Z " fill="#DFDFDF" transform="translate(16,14)"/>
<path d="M0,0 L7,0 L7,3 L5,4 L-3,4 L-5,3 L-5,1 Z " fill="#111111" transform="translate(16,16)"/>
</svg>
