<?xml version="1.0" encoding="UTF-8"?>
<svg version="1.1" xmlns="http://www.w3.org/2000/svg" width="28" height="28">
<path d="M0,0 L28,0 L28,28 L0,28 Z " fill="#040404" transform="translate(0,0)"/>
<path d="M0,0 L4,0 L3,4 L-1,7 L-1,13 L2,14 L4,9 L7,7 L14,8 L15,14 L9,18 L0,18 L-4,15 L-5,7 L-2,2 Z " fill="#E8E8E8" transform="translate(10,4)"/>
<path d="M0,0 L7,1 L8,4 L2,8 L-5,7 L-3,2 Z " fill="#DFDFDF" transform="translate(17,11)"/>
<path d="M0,0 L5,0 L3,4 L2,5 L-3,5 Z " fill="#131313" transform="translate(17,14)"/>
</svg>
