<?xml version="1.0" encoding="UTF-8"?>
<svg version="1.1" xmlns="http://www.w3.org/2000/svg" width="28" height="28">
<path d="M0,0 L28,0 L28,28 L0,28 Z " fill="#020202" transform="translate(0,0)"/>
<path d="M0,0 L2,1 L1,4 L-2,7 L-2,16 L3,13 L6,11 L10,12 L12,16 L9,19 L1,20 L-5,16 L-6,14 L-5,5 Z " fill="#DCDCDC" transform="translate(13,2)"/>
<path d="M0,0 L6,0 L4,4 L0,5 L-3,2 Z M1,2 Z " fill="#9A9A9A" transform="translate(19,16)"/>
<path d="M0,0 L2,1 L1,4 L-2,7 L-4,10 L-5,5 Z " fill="#E5E5E5" transform="translate(13,2)"/>
</svg>
