<?xml version="1.0" encoding="UTF-8"?>
<svg version="1.1" xmlns="http://www.w3.org/2000/svg" width="28" height="28">
<path d="M0,0 L28,0 L28,28 L0,28 Z " fill="#020202" transform="translate(0,0)"/>
<path d="M0,0 L2,1 L-2,8 L-3,12 L3,11 L5,12 L5,17 L0,20 L-5,19 L-6,18 L-6,11 L-2,3 Z " fill="#B4B4B4" transform="translate(15,2)"/>
<path d="M0,0 L5,1 L5,6 L0,9 L-5,8 L-6,7 L-6,2 L-5,5 L3,6 L3,3 L-2,2 Z " fill="#E1E1E1" transform="translate(15,13)"/>
<path d="M0,0 L7,1 L7,4 L2,5 L0,3 Z " fill="#0B0B0B" transform="translate(11,15)"/>
</svg>
