<?xml version="1.0" encoding="UTF-8"?>
<svg version="1.1" xmlns="http://www.w3.org/2000/svg" width="28" height="28">
<path d="M0,0 L28,0 L28,28 L0,28 Z " fill="#020202" transform="translate(0,0)"/>
<path d="M0,0 L2,0 L0,6 L-2,10 L-5,13 L-1,11 L4,12 L4,16 L-3,20 L-8,20 L-9,13 Z " fill="#DEDEDE" transform="translate(17,2)"/>
<path d="M0,0 L2,0 L0,6 L-2,9 L-5,9 L-3,5 Z " fill="#E9E9E9" transform="translate(17,2)"/>
<path d="M0,0 L3,0 L1,4 L-5,5 L-5,3 Z " fill="#202020" transform="translate(16,15)"/>
</svg>
