<?xml version="1.0" encoding="UTF-8"?>
<svg version="1.1" xmlns="http://www.w3.org/2000/svg" width="28" height="28">
<path d="M0,0 L28,0 L28,28 L0,28 Z " fill="#010101" transform="translate(0,0)"/>
<path d="M0,0 L3,0 L3,3 L1,3 L1,15 L5,14 L11,9 L16,10 L17,15 L12,19 L2,20 L-3,15 L-3,8 Z " fill="#E5E5E5" transform="translate(9,2)"/>
<path d="M0,0 L5,1 L6,6 L1,9 L1,7 L-4,8 L-2,4 Z " fill="#D5D5D5" transform="translate(20,11)"/>
<path d="M0,0 L3,0 L3,3 L-4,5 L-2,1 Z " fill="#101010" transform="translate(20,14)"/>
</svg>
