<?xml version="1.0" encoding="UTF-8"?>
<svg version="1.1" xmlns="http://www.w3.org/2000/svg" width="28" height="28">
<path d="M0,0 L28,0 L28,28 L0,28 Z " fill="#020202" transform="translate(0,0)"/>
<path d="M0,0 L2,0 L0,6 L-5,13 L-2,11 L2,12 L1,17 L-6,20 L-10,20 L-9,13 L-2,4 Z " fill="#D6D6D6" transform="translate(18,2)"/>
<path d="M0,0 L2,2 L0,4 L2,6 L-3,7 L-3,2 Z " fill="#EEEEEE" transform="translate(11,15)"/>
<path d="M0,0 L2,0 L0,6 L-3,9 L-4,6 Z " fill="#CDCDCD" transform="translate(18,2)"/>
<path d="M0,0 L4,0 L4,2 L-1,4 L-4,3 Z " fill="#262626" transform="translate(14,16)"/>
</svg>
