<?xml version="1.0" encoding="UTF-8"?>
<svg version="1.1" xmlns="http://www.w3.org/2000/svg" width="28" height="28">
<path d="M0,0 L28,0 L28,28 L0,28 Z " fill="#020202" transform="translate(0,0)"/>
<path d="M0,0 L3,0 L3,2 L0,2 L-2,7 L-2,13 L2,11 L7,12 L8,17 L6,19 L-1,20 L-6,16 L-6,7 Z " fill="#D6D6D6" transform="translate(15,2)"/>
<path d="M0,0 L3,0 L3,2 L0,2 L-2,7 L-4,14 L-6,12 L-5,5 Z " fill="#E5E5E5" transform="translate(15,2)"/>
<path d="M0,0 L5,0 L5,3 L-1,3 Z " fill="#0B0B0B" transform="translate(15,16)"/>
</svg>
