<?xml version="1.0" encoding="UTF-8"?>
<svg version="1.1" xmlns="http://www.w3.org/2000/svg" width="28" height="28">
<path d="M0,0 L28,0 L28,28 L0,28 Z " fill="#060606" transform="translate(0,0)"/>
<path d="M0,0 L5,0 L7,4 L3,3 L-3,6 L-6,9 L-7,15 L-5,15 L-3,11 L3,9 L8,10 L9,16 L6,19 L3,20 L-5,20 L-10,15 L-9,7 L-4,2 Z " fill="#E8E8E8" transform="translate(15,3)"/>
<path d="M0,0 L5,1 L6,7 L3,10 L2,8 L-2,9 L-5,8 L-3,4 L-2,1 Z " fill="#E2E2E2" transform="translate(18,12)"/>
<path d="M0,0 L7,0 L5,4 L1,5 L-2,4 Z " fill="#161616" transform="translate(15,16)"/>
</svg>
