<?xml version="1.0" encoding="UTF-8"?>
<svg version="1.1" xmlns="http://www.w3.org/2000/svg" width="28" height="28">
<path d="M0,0 L28,0 L28,28 L0,28 Z " fill="#020202" transform="translate(0,0)"/>
<path d="M0,0 L0,3 L-6,11 L-7,14 L-1,13 L-2,18 L-8,18 L-8,20 L-10,20 L-10,12 L-4,3 Z " fill="#DEDEDE" transform="translate(20,3)"/>
<path d="M0,0 L3,0 L2,5 L-4,5 L-4,7 L-6,7 L-5,2 L2,3 L2,1 Z " fill="#EBEBEB" transform="translate(16,16)"/>
<path d="M0,0 L8,2 L8,4 L5,5 L5,3 L2,4 L0,6 Z " fill="#929292" transform="translate(10,15)"/>
</svg>
