<?xml version="1.0" encoding="UTF-8"?>
<svg version="1.1" xmlns="http://www.w3.org/2000/svg" width="28" height="28">
<path d="M0,0 L28,0 L28,28 L0,28 Z " fill="#030303" transform="translate(0,0)"/>
<path d="M0,0 L3,0 L1,4 L-4,12 L-1,10 L3,11 L5,14 L1,19 L-1,20 L-7,20 L-8,19 L-7,9 Z " fill="#EEEEEE" transform="translate(17,2)"/>
<path d="M0,0 L4,1 L6,4 L1,9 L-5,7 L-3,6 L-2,2 Z " fill="#DEDEDE" transform="translate(16,12)"/>
<path d="M0,0 L3,0 L1,4 L-3,8 L-5,8 L-3,4 Z " fill="#D5D5D5" transform="translate(17,2)"/>
<path d="M0,0 L3,0 L3,3 L0,5 L-5,4 L-2,3 L-2,1 Z " fill="#2E2E2E" transform="translate(16,15)"/>
</svg>
