<?xml version="1.0" encoding="UTF-8"?>
<svg version="1.1" xmlns="http://www.w3.org/2000/svg" width="28" height="28">
<path d="M0,0 L28,0 L28,28 L0,28 Z " fill="#020202" transform="translate(0,0)"/>
<path d="M0,0 L3,0 L1,4 L-1,6 L-3,12 L1,13 L-1,14 L-1,16 L3,17 L3,14 L5,14 L4,19 L-1,20 L-4,17 L-5,15 L-5,7 Z " fill="#F0F0F0" transform="translate(15,3)"/>
<path d="M0,0 L6,2 L7,4 L6,7 L1,6 L2,3 L0,2 Z " fill="#727272" transform="translate(12,13)"/>
<path d="M0,0 L2,0 L1,5 L-4,6 L-3,3 L0,3 Z " fill="#CCCCCC" transform="translate(18,17)"/>
</svg>
