<?xml version="1.0" encoding="UTF-8"?>
<svg version="1.1" xmlns="http://www.w3.org/2000/svg" width="28" height="28">
<path d="M0,0 L28,0 L28,28 L0,28 Z " fill="#020202" transform="translate(0,0)"/>
<path d="M0,0 L1,2 L-2,5 L-2,14 L2,10 L6,10 L7,14 L4,19 L-1,20 L-4,18 L-5,8 L-2,1 Z " fill="#BFBFBF" transform="translate(15,3)"/>
<path d="M0,0 L4,0 L5,4 L3,6 L3,2 L-3,7 L-2,3 Z " fill="#C0C0C0" transform="translate(17,13)"/>
<path d="M0,0 L2,0 L1,5 L-2,6 L-1,1 Z " fill="#0B0B0B" transform="translate(18,15)"/>
</svg>
