<?xml version="1.0" encoding="UTF-8"?>
<svg version="1.1" xmlns="http://www.w3.org/2000/svg" width="28" height="28">
<path d="M0,0 L28,0 L28,28 L0,28 Z " fill="#040404" transform="translate(0,0)"/>
<path d="M0,0 L3,0 L2,5 L0,9 L3,8 L10,8 L13,10 L12,14 L4,19 L-1,20 L-6,17 L-6,10 L-1,2 Z " fill="#DEDEDE" transform="translate(12,3)"/>
<path d="M0,0 L2,1 L1,4 L-5,7 L-8,7 L-7,3 L-5,1 Z " fill="#151515" transform="translate(19,13)"/>
<path d="M0,0 L5,1 L6,5 L4,7 L1,7 Z " fill="#F2F2F2" transform="translate(19,11)"/>
</svg>
