<?xml version="1.0" encoding="UTF-8"?>
<svg version="1.1" xmlns="http://www.w3.org/2000/svg" width="28" height="28">
<path d="M0,0 L28,0 L28,28 L0,28 Z " fill="#030303" transform="translate(0,0)"/>
<path d="M0,0 L3,0 L2,4 L0,13 L1,15 L6,12 L12,13 L13,18 L10,20 L1,19 L-3,15 L-4,10 L-1,1 Z " fill="#E7E7E7" transform="translate(11,2)"/>
<path d="M0,0 L6,1 L7,3 L5,6 L-2,5 L-2,1 Z " fill="#DBDBDB" transform="translate(17,14)"/>
<path d="M0,0 L6,0 L6,3 L1,3 Z " fill="#202020" transform="translate(16,17)"/>
</svg>
