<?xml version="1.0" encoding="UTF-8"?>
<svg version="1.1" xmlns="http://www.w3.org/2000/svg" width="28" height="28">
<path d="M0,0 L28,0 L28,28 L0,28 Z " fill="#030303" transform="translate(0,0)"/>
<path d="M0,0 L2,0 L2,6 L0,15 L0,17 L2,17 L2,12 L5,10 L9,11 L10,12 L10,18 L6,20 L-1,19 L-3,16 L-3,9 Z " fill="#EBEBEB" transform="translate(12,2)"/>
<path d="M0,0 L2,0 L2,6 L0,15 L-1,18 L-3,16 L-3,9 Z " fill="#D5D5D5" transform="translate(12,2)"/>
<path d="M0,0 L4,1 L5,3 L3,7 L-1,7 L-3,2 Z " fill="#D7D7D7" transform="translate(17,12)"/>
<path d="M0,0 L4,0 L3,4 L-1,4 Z " fill="#1D1D1D" transform="translate(17,15)"/>
</svg>
