<?xml version="1.0" encoding="UTF-8"?>
<svg version="1.1" xmlns="http://www.w3.org/2000/svg" width="28" height="28">
<path d="M0,0 L28,0 L28,28 L0,28 Z " fill="#020202" transform="translate(0,0)"/>
<path d="M0,0 L2,0 L1,7 L-1,16 L1,12 L8,12 L10,14 L9,19 L7,20 L-1,20 L-5,16 L-2,6 Z " fill="#D6D6D6" transform="translate(13,1)"/>
<path d="M0,0 L7,0 L9,2 L8,7 L1,8 L1,6 L6,5 L6,3 L0,4 Z " fill="#E4E4E4" transform="translate(14,13)"/>
<path d="M0,0 L2,0 L1,7 L-3,14 L-4,11 Z " fill="#DFDFDF" transform="translate(13,1)"/>
<path d="M0,0 L4,1 L3,4 L-2,4 Z " fill="#181818" transform="translate(17,15)"/>
</svg>
