<?xml version="1.0" encoding="UTF-8"?>
<svg version="1.1" xmlns="http://www.w3.org/2000/svg" width="28" height="28">
<path d="M0,0 L28,0 L28,28 L0,28 Z " fill="#030303" transform="translate(0,0)"/>
<path d="M0,0 L4,0 L5,4 L0,2 L-2,8 L-4,14 L5,11 L11,13 L12,18 L8,20 L-2,20 L-7,14 L-6,8 L-2,1 Z " fill="#E2E2E2" transform="translate(13,2)"/>
<path d="M0,0 L4,1 L5,6 L-1,8 L0,6 L-7,5 L-7,3 L0,2 Z " fill="#DADADA" transform="translate(20,14)"/>
<path d="M0,0 L6,0 L6,3 L-2,3 L-2,1 Z " fill="#262626" transform="translate(15,16)"/>
</svg>
