<?xml version="1.0" encoding="UTF-8"?>
<svg version="1.1" xmlns="http://www.w3.org/2000/svg" width="28" height="28">
<path d="M0,0 L28,0 L28,28 L0,28 Z " fill="#040404" transform="translate(0,0)"/>
<path d="M0,0 L4,1 L2,5 L-6,13 L-7,16 L-1,11 L4,12 L3,16 L0,19 L-4,20 L-11,20 L-12,15 L-3,5 Z " fill="#F3F3F3" transform="translate(18,2)"/>
<path d="M0,0 L4,1 L2,5 L-3,8 L-8,13 L-10,12 L-2,4 Z " fill="#D7D7D7" transform="translate(18,2)"/>
<path d="M0,0 L2,1 L2,5 L-3,6 L-4,3 Z " fill="#C2C2C2" transform="translate(17,13)"/>
</svg>
