<?xml version="1.0" encoding="UTF-8"?>
<svg version="1.1" xmlns="http://www.w3.org/2000/svg" width="28" height="28">
<path d="M0,0 L28,0 L28,28 L0,28 Z " fill="#030303" transform="translate(0,0)"/>
<path d="M0,0 L2,0 L1,4 L-5,12 L-6,17 L-4,17 L-2,13 L5,12 L4,17 L-1,20 L-8,19 L-9,18 L-8,10 Z " fill="#E4E4E4" transform="translate(17,2)"/>
<path d="M0,0 L2,1 L1,5 L-4,6 L-3,2 Z " fill="#787878" transform="translate(17,14)"/>
<path d="M0,0 L2,0 L1,4 L-2,7 L-2,3 Z " fill="#E7E7E7" transform="translate(17,2)"/>
</svg>
