<?xml version="1.0" encoding="UTF-8"?>
<svg version="1.1" xmlns="http://www.w3.org/2000/svg" width="28" height="28">
<path d="M0,0 L28,0 L28,28 L0,28 Z " fill="#030303" transform="translate(0,0)"/>
<path d="M0,0 L5,0 L5,4 L2,5 L1,9 L9,9 L13,12 L12,17 L7,20 L0,19 L-3,16 L-5,7 L-2,1 Z " fill="#EDEDED" transform="translate(12,4)"/>
<path d="M0,0 L6,1 L8,3 L7,8 L2,11 L-2,9 L-5,6 L-5,2 L0,1 Z " fill="#D8D8D8" transform="translate(17,13)"/>
<path d="M0,0 L9,1 L8,5 L2,5 L0,3 Z " fill="#111111" transform="translate(13,16)"/>
</svg>
