<?xml version="1.0" encoding="UTF-8"?>
<svg version="1.1" xmlns="http://www.w3.org/2000/svg" width="28" height="28">
<path d="M0,0 L28,0 L28,28 L0,28 Z " fill="#020202" transform="translate(0,0)"/>
<path d="M0,0 L2,0 L2,2 L0,2 L-1,10 L-2,16 L3,12 L7,13 L7,18 L5,20 L-1,20 L-4,15 L-4,8 Z " fill="#E6E6E6" transform="translate(14,2)"/>
<path d="M0,0 L2,0 L2,2 L0,2 L-1,10 L-2,15 L-4,15 L-4,8 Z " fill="#D4D4D4" transform="translate(14,2)"/>
<path d="M0,0 L3,1 L2,5 L-3,6 L-3,3 Z " fill="#7B7B7B" transform="translate(17,14)"/>
</svg>
