<?xml version="1.0" encoding="UTF-8"?>
<svg version="1.1" xmlns="http://www.w3.org/2000/svg" width="28" height="28">
<path d="M0,0 L28,0 L28,28 L0,28 Z " fill="#030303" transform="translate(0,0)"/>
<path d="M0,0 L2,0 L1,15 L5,8 L10,6 L12,8 L11,15 L6,19 L-1,20 L-2,19 L-2,9 Z " fill="#D1D1D1" transform="translate(11,2)"/>
<path d="M0,0 L2,0 L1,15 L2,19 L-2,19 L-2,9 Z " fill="#C9C9C9" transform="translate(11,2)"/>
<path d="M0,0 L1,0 L1,6 L-4,10 L-6,10 L-5,5 Z " fill="#0D0D0D" transform="translate(20,10)"/>
</svg>
