<?xml version="1.0" encoding="UTF-8"?>
<svg version="1.1" xmlns="http://www.w3.org/2000/svg" width="28" height="28">
<path d="M0,0 L28,0 L28,28 L0,28 Z " fill="#020202" transform="translate(0,0)"/>
<path d="M0,0 L3,0 L3,3 L-2,7 L-5,13 L-3,13 L-3,11 L1,10 L3,12 L2,17 L-1,20 L-6,20 L-8,17 L-8,10 L-3,2 Z " fill="#DDDDDD" transform="translate(17,3)"/>
<path d="M0,0 L3,0 L3,3 L-2,7 L-5,12 L-6,16 L-7,16 L-7,8 L-3,2 Z " fill="#E8E8E8" transform="translate(17,3)"/>
<path d="M0,0 L1,0 L2,5 L8,4 L7,10 L2,10 L0,7 Z " fill="#A6A6A6" transform="translate(9,13)"/>
</svg>
