<?xml version="1.0" encoding="UTF-8"?>
<svg version="1.1" xmlns="http://www.w3.org/2000/svg" width="28" height="28">
<path d="M0,0 L28,0 L28,28 L0,28 Z " fill="#030303" transform="translate(0,0)"/>
<path d="M0,0 L2,0 L2,11 L8,5 L13,6 L12,13 L5,20 L1,19 L-1,17 L-1,7 Z " fill="#D5D5D5" transform="translate(10,3)"/>
<path d="M0,0 L1,4 L-2,9 L-7,14 L-11,13 L-13,11 L-13,3 L-12,3 L-10,11 L-4,8 Z " fill="#E6E6E6" transform="translate(22,9)"/>
<path d="M0,0 L2,0 L1,6 L-4,10 L-6,10 L-5,5 Z " fill="#0F0F0F" transform="translate(19,10)"/>
</svg>
