<?xml version="1.0" encoding="UTF-8"?>
<svg version="1.1" xmlns="http://www.w3.org/2000/svg" width="28" height="28">
<path d="M0,0 L28,0 L28,28 L0,28 Z " fill="#030303" transform="translate(0,0)"/>
<path d="M0,0 L4,0 L3,6 L0,7 L0,4 L-5,10 L-9,18 L-5,18 L-5,13 L-2,11 L5,11 L4,16 L-1,19 L-3,20 L-11,20 L-12,16 L-6,5 Z " fill="#E2E2E2" transform="translate(17,3)"/>
<path d="M0,0 L5,2 L0,7 L-2,7 L-3,2 Z " fill="#828282" transform="translate(15,14)"/>
<path d="M0,0 L4,1 L2,1 L2,6 L-2,6 L-1,1 Z " fill="#202020" transform="translate(10,15)"/>
</svg>
