<?xml version="1.0" encoding="UTF-8"?>
<svg version="1.1" xmlns="http://www.w3.org/2000/svg" width="28" height="28">
<path d="M0,0 L28,0 L28,28 L0,28 Z " fill="#030303" transform="translate(0,0)"/>
<path d="M0,0 L3,0 L2,3 L-3,6 L-8,11 L-10,15 L-3,11 L2,12 L0,16 L-6,19 L-13,20 L-13,13 L-4,3 Z " fill="#D0D0D0" transform="translate(20,3)"/>
<path d="M0,0 L5,1 L3,5 L-2,7 L-6,5 L-2,1 Z " fill="#C4C4C4" transform="translate(17,14)"/>
<path d="M0,0 L4,1 L-1,4 L-5,3 Z " fill="#171717" transform="translate(16,16)"/>
</svg>
