<?xml version="1.0" encoding="UTF-8"?>
<svg version="1.1" xmlns="http://www.w3.org/2000/svg" width="28" height="28">
<path d="M0,0 L28,0 L28,28 L0,28 Z " fill="#020202" transform="translate(0,0)"/>
<path d="M0,0 L3,0 L1,9 L1,16 L4,17 L5,11 L8,7 L13,7 L15,9 L14,15 L12,17 L12,20 L2,20 L-3,17 L-3,8 Z " fill="#C8C8C8" transform="translate(9,2)"/>
<path d="M0,0 L5,0 L7,2 L6,8 L5,9 L-1,9 L-2,2 Z " fill="#BFBFBF" transform="translate(17,9)"/>
<path d="M0,0 L2,0 L2,5 L7,5 L8,8 L3,9 L-1,7 Z " fill="#F4F4F4" transform="translate(14,13)"/>
<path d="M0,0 L4,0 L3,4 L1,6 L-2,6 L-1,1 Z " fill="#050505" transform="translate(18,12)"/>
</svg>
