<?xml version="1.0" encoding="UTF-8"?>
<svg version="1.1" xmlns="http://www.w3.org/2000/svg" width="28" height="28">
<path d="M0,0 L28,0 L28,28 L0,28 Z " fill="#020202" transform="translate(0,0)"/>
<path d="M0,0 L3,0 L3,3 L-1,4 L-7,9 L-8,11 L-3,12 L-4,16 L-11,20 L-16,19 L-14,14 L-7,5 Z " fill="#D0D0D0" transform="translate(22,3)"/>
<path d="M0,0 L2,2 L-2,5 L1,7 L-4,8 L-5,5 Z " fill="#DFDFDF" transform="translate(11,15)"/>
<path d="M0,0 L4,0 L3,3 L-5,5 Z " fill="#282828" transform="translate(13,16)"/>
</svg>
