<?xml version="1.0" encoding="UTF-8"?>
<svg version="1.1" xmlns="http://www.w3.org/2000/svg" width="28" height="28">
<path d="M0,0 L28,0 L28,28 L0,28 Z " fill="#020202" transform="translate(0,0)"/>
<path d="M0,0 L2,0 L0,6 L-1,8 L-1,14 L4,10 L8,11 L9,17 L4,20 L-1,20 L-5,16 L-5,9 L-2,2 Z " fill="#E3E3E3" transform="translate(13,2)"/>
<path d="M0,0 L4,1 L5,7 L3,9 L0,8 L-3,7 L-4,3 Z " fill="#E4E4E4" transform="translate(17,12)"/>
<path d="M0,0 L4,2 L4,5 L-1,6 L-2,2 Z " fill="#757575" transform="translate(15,13)"/>
</svg>
