<?xml version="1.0" encoding="UTF-8"?>
<svg version="1.1" xmlns="http://www.w3.org/2000/svg" width="28" height="28">
<path d="M0,0 L28,0 L28,28 L0,28 Z " fill="#030303" transform="translate(0,0)"/>
<path d="M0,0 L2,0 L-1,9 L-2,11 L6,12 L7,17 L5,19 L-1,20 L-5,18 L-5,10 Z " fill="#F2F2F2" transform="translate(15,2)"/>
<path d="M0,0 L7,1 L8,5 L2,6 L0,4 Z " fill="#0F0F0F" transform="translate(12,14)"/>
<path d="M0,0 L2,0 L-1,9 L-3,11 L-4,8 Z " fill="#C4C4C4" transform="translate(15,2)"/>
<path d="M0,0 L6,1 L7,6 L4,8 L3,6 L5,6 L4,3 L0,2 Z " fill="#D5D5D5" transform="translate(15,13)"/>
</svg>
