<?xml version="1.0" encoding="UTF-8"?>
<svg version="1.1" xmlns="http://www.w3.org/2000/svg" width="28" height="28">
<path d="M0,0 L28,0 L28,28 L0,28 Z " fill="#010101" transform="translate(0,0)"/>
<path d="M0,0 L5,1 L5,3 L-2,4 L-3,11 L2,10 L6,15 L5,19 L2,20 L-4,17 L-6,14 L-6,5 L-2,1 Z " fill="#D2D2D2" transform="translate(15,4)"/>
<path d="M0,0 L5,1 L5,3 L-2,4 L-4,13 L-6,13 L-6,5 L-2,1 Z " fill="#E1E1E1" transform="translate(15,4)"/>
<path d="M0,0 L3,3 L2,7 L-1,8 L-5,6 L-5,5 L1,5 Z " fill="#E3E3E3" transform="translate(18,16)"/>
<path d="M0,0 L5,0 L6,4 L1,4 Z " fill="#0F0F0F" transform="translate(13,17)"/>
</svg>
