<?xml version="1.0" encoding="UTF-8"?>
<svg version="1.1" xmlns="http://www.w3.org/2000/svg" width="28" height="28">
<path d="M0,0 L28,0 L28,28 L0,28 Z " fill="#030303" transform="translate(0,0)"/>
<path d="M0,0 L11,1 L12,5 L5,4 L2,3 L3,9 L10,8 L14,12 L15,18 L12,20 L3,19 L-1,7 L-1,1 Z " fill="#E1E1E1" transform="translate(8,4)"/>
<path d="M0,0 L11,1 L12,5 L5,4 L2,3 L3,8 L1,8 L0,10 L-1,1 Z " fill="#DCDCDC" transform="translate(8,4)"/>
<path d="M0,0 L4,1 L5,6 L3,7 L-1,6 L-1,1 Z " fill="#0D0D0D" transform="translate(15,15)"/>
</svg>
