<?xml version="1.0" encoding="UTF-8"?>
<svg version="1.1" xmlns="http://www.w3.org/2000/svg" width="28" height="28">
<path d="M0,0 L28,0 L28,28 L0,28 Z " fill="#020202" transform="translate(0,0)"/>
<path d="M0,0 L1,3 L0,14 L3,10 L8,11 L9,12 L9,18 L7,20 L0,20 L-3,17 L-3,6 Z " fill="#DFDFDF" transform="translate(13,2)"/>
<path d="M0,0 L1,3 L0,14 L1,18 L-2,19 L-3,17 L-3,6 Z " fill="#B8B8B8" transform="translate(13,2)"/>
<path d="M0,0 L3,1 L4,6 L1,8 L-2,8 L-2,2 Z " fill="#101010" transform="translate(17,13)"/>
</svg>
