<?xml version="1.0" encoding="UTF-8"?>
<svg version="1.1" xmlns="http://www.w3.org/2000/svg" width="28" height="28">
<path d="M0,0 L28,0 L28,28 L0,28 Z " fill="#020202" transform="translate(0,0)"/>
<path d="M0,0 L0,3 L-3,10 L1,10 L2,15 L-1,19 L-7,20 L-8,15 L-3,1 Z " fill="#E1E1E1" transform="translate(18,3)"/>
<path d="M0,0 L1,3 L-2,7 L-8,8 L-9,3 L-6,2 L-6,5 L-2,3 Z " fill="#E6E6E6" transform="translate(19,15)"/>
<path d="M0,0 L4,1 L1,5 L-2,5 L-1,1 Z " fill="#2B2B2B" transform="translate(15,15)"/>
</svg>
