<?xml version="1.0" encoding="UTF-8"?>
<svg version="1.1" xmlns="http://www.w3.org/2000/svg" width="28" height="28">
<path d="M0,0 L28,0 L28,28 L0,28 Z " fill="#030303" transform="translate(0,0)"/>
<path d="M0,0 L3,0 L3,2 L-1,3 L-3,7 L-5,10 L-5,13 L1,8 L7,8 L8,9 L8,15 L1,20 L-4,19 L-8,15 L-8,9 L-4,3 L-2,3 L-2,1 Z " fill="#DBDBDB" transform="translate(15,3)"/>
<path d="M0,0 L4,0 L3,5 L1,7 L-4,6 L-3,2 Z " fill="#171717" transform="translate(17,13)"/>
<path d="M0,0 L3,0 L3,2 L-1,3 L-2,6 L-6,7 L-4,3 L-2,3 L-2,1 Z " fill="#C2C2C2" transform="translate(15,3)"/>
</svg>
