<?xml version="1.0" encoding="UTF-8"?>
<svg version="1.1" xmlns="http://www.w3.org/2000/svg" width="28" height="28">
<path d="M0,0 L28,0 L28,28 L0,28 Z " fill="#020202" transform="translate(0,0)"/>
<path d="M0,0 L2,0 L0,11 L5,8 L9,9 L9,17 L7,20 L0,19 L-4,13 L-3,4 Z " fill="#ECECEC" transform="translate(12,3)"/>
<path d="M0,0 L4,1 L3,6 L1,10 L-3,9 L-1,8 L-2,4 Z " fill="#DBDBDB" transform="translate(17,11)"/>
<path d="M0,0 L2,0 L1,4 L1,14 L-1,14 L-2,6 L-3,4 Z " fill="#B6B6B6" transform="translate(12,3)"/>
<path d="M0,0 L2,0 L1,7 L-3,6 L-1,5 L-2,1 Z " fill="#1B1B1B" transform="translate(17,14)"/>
</svg>
