<?xml version="1.0" encoding="UTF-8"?>
<svg version="1.1" xmlns="http://www.w3.org/2000/svg" width="28" height="28">
<path d="M0,0 L28,0 L28,28 L0,28 Z " fill="#010101" transform="translate(0,0)"/>
<path d="M0,0 L2,1 L-4,11 L-5,13 L-1,11 L3,12 L1,17 L-3,20 L-8,19 L-8,13 L-1,1 Z " fill="#A1A1A1" transform="translate(18,2)"/>
<path d="M0,0 L2,1 L-4,11 L-5,13 L-3,14 L-6,15 L-6,19 L-4,20 L-8,19 L-8,13 L-1,1 Z " fill="#C3C3C3" transform="translate(18,2)"/>
<path d="M0,0 L4,0 L2,4 L-3,5 L-3,2 Z " fill="#0F0F0F" transform="translate(15,15)"/>
</svg>
