<?xml version="1.0" encoding="UTF-8"?>
<svg version="1.1" xmlns="http://www.w3.org/2000/svg" width="28" height="28">
<path d="M0,0 L28,0 L28,28 L0,28 Z " fill="#020202" transform="translate(0,0)"/>
<path d="M0,0 L2,1 L-5,9 L-7,15 L-4,13 L3,13 L4,17 L0,20 L-10,20 L-9,11 L-5,5 Z " fill="#B0B0B0" transform="translate(18,2)"/>
<path d="M0,0 L2,1 L-5,9 L-8,16 L-6,17 L-8,20 L-10,20 L-9,11 L-5,5 Z " fill="#D8D8D8" transform="translate(18,2)"/>
<path d="M0,0 L4,0 L3,4 L-4,4 L-3,1 Z " fill="#090909" transform="translate(16,16)"/>
</svg>
