<?xml version="1.0" encoding="UTF-8"?>
<svg version="1.1" xmlns="http://www.w3.org/2000/svg" width="28" height="28">
<path d="M0,0 L28,0 L28,28 L0,28 Z " fill="#030303" transform="translate(0,0)"/>
<path d="M0,0 L4,0 L3,3 L-2,6 L-5,10 L0,9 L2,11 L1,15 L-4,20 L-9,19 L-10,13 L-7,7 L-3,2 Z " fill="#E2E2E2" transform="translate(18,4)"/>
<path d="M0,0 L4,0 L3,3 L-2,6 L-4,7 L-3,2 Z " fill="#E7E7E7" transform="translate(18,4)"/>
<path d="M0,0 L2,1 L0,5 L-4,6 L-2,1 Z " fill="#262626" transform="translate(16,15)"/>
</svg>
