<?xml version="1.0" encoding="UTF-8"?>
<svg version="1.1" xmlns="http://www.w3.org/2000/svg" width="28" height="28">
<path d="M0,0 L28,0 L28,28 L0,28 Z " fill="#040404" transform="translate(0,0)"/>
<path d="M0,0 L3,0 L3,3 L0,3 L-3,15 L0,15 L0,13 L2,13 L2,11 L9,10 L12,12 L11,17 L4,20 L-2,20 L-5,17 L-6,15 L-6,8 L-2,1 Z " fill="#F5F5F5" transform="translate(13,2)"/>
<path d="M0,0 L6,1 L7,6 L2,9 L-4,8 L-2,4 L-1,2 L-3,1 Z " fill="#DEDEDE" transform="translate(18,12)"/>
<path d="M0,0 L3,0 L3,3 L0,3 L-2,9 L-4,9 L-6,11 L-5,6 L-2,1 Z " fill="#D5D5D5" transform="translate(13,2)"/>
<path d="M0,0 L4,0 L3,3 L-5,5 L-3,1 Z " fill="#181818" transform="translate(19,15)"/>
</svg>
