<?xml version="1.0" encoding="UTF-8"?>
<svg version="1.1" xmlns="http://www.w3.org/2000/svg" width="28" height="28">
<path d="M0,0 L28,0 L28,28 L0,28 Z " fill="#020202" transform="translate(0,0)"/>
<path d="M0,0 L3,0 L3,6 L-2,14 L-3,17 L-1,17 L0,14 L0,17 L5,15 L7,12 L4,10 L9,9 L11,10 L10,15 L6,19 L2,20 L-5,20 L-7,15 L-1,3 Z " fill="#E9E9E9" transform="translate(13,2)"/>
<path d="M0,0 L6,2 L2,7 L-5,7 L-4,2 Z " fill="#B8B8B8" transform="translate(15,12)"/>
<path d="M0,0 L6,1 L5,6 L1,10 L-1,10 L0,6 L2,3 L-1,1 Z " fill="#CBCBCB" transform="translate(18,11)"/>
<path d="M0,0 L5,0 L1,5 L-2,5 L-1,1 Z " fill="#1D1D1D" transform="translate(16,14)"/>
</svg>
