<?xml version="1.0" encoding="UTF-8"?>
<svg version="1.1" xmlns="http://www.w3.org/2000/svg" width="28" height="28">
<path d="M0,0 L28,0 L28,28 L0,28 Z " fill="#010101" transform="translate(0,0)"/>
<path d="M0,0 L2,1 L1,6 L-3,13 L4,10 L9,10 L10,13 L8,13 L6,17 L4,19 L-5,20 L-8,17 L-7,11 L-6,9 L-4,9 L-2,3 Z " fill="#E7E7E7" transform="translate(15,2)"/>
<path d="M0,0 L5,0 L6,3 L4,3 L2,7 L-2,9 L-2,7 L-7,7 L-4,4 L-4,1 Z " fill="#D5D5D5" transform="translate(19,12)"/>
<path d="M0,0 L4,1 L1,4 L-5,4 L-2,1 Z " fill="#181818" transform="translate(17,15)"/>
</svg>
