<?xml version="1.0" encoding="UTF-8"?>
<svg version="1.1" xmlns="http://www.w3.org/2000/svg" width="28" height="28">
<path d="M0,0 L28,0 L28,28 L0,28 Z " fill="#020202" transform="translate(0,0)"/>
<path d="M0,0 L3,1 L-1,7 L-2,10 L3,10 L4,11 L3,18 L0,20 L-5,20 L-7,17 L-6,8 Z " fill="#E4E4E4" transform="translate(16,3)"/>
<path d="M0,0 L5,1 L5,6 L-2,7 L-3,3 Z " fill="#D8D8D8" transform="translate(15,13)"/>
<path d="M0,0 L4,0 L3,5 L0,5 L-1,1 Z " fill="#101010" transform="translate(13,15)"/>
</svg>
