<?xml version="1.0" encoding="UTF-8"?>
<svg version="1.1" xmlns="http://www.w3.org/2000/svg" width="28" height="28">
<path d="M0,0 L28,0 L28,28 L0,28 Z " fill="#030303" transform="translate(0,0)"/>
<path d="M0,0 L2,0 L1,5 L-5,12 L-6,17 L-4,16 L-3,12 L2,9 L5,10 L6,15 L0,20 L-8,19 L-10,17 L-9,11 L-2,2 Z " fill="#E7E7E7" transform="translate(17,3)"/>
<path d="M0,0 L3,1 L4,6 L1,8 L1,6 L-6,7 L-5,3 Z " fill="#E0E0E0" transform="translate(19,12)"/>
<path d="M0,0 L4,1 L2,5 L1,3 L-3,4 Z " fill="#949494" transform="translate(19,15)"/>
</svg>
