<?xml version="1.0" encoding="UTF-8"?>
<svg version="1.1" xmlns="http://www.w3.org/2000/svg" width="28" height="28">
<path d="M0,0 L28,0 L28,28 L0,28 Z " fill="#030303" transform="translate(0,0)"/>
<path d="M0,0 L4,0 L4,2 L0,3 L-1,8 L6,9 L8,11 L8,19 L6,20 L0,20 L-3,17 L-5,10 L-3,3 Z " fill="#D6D6D6" transform="translate(13,3)"/>
<path d="M0,0 L3,0 L3,2 L1,2 L5,7 L9,8 L10,2 L11,2 L11,10 L9,11 L3,11 L0,8 L-2,1 Z " fill="#EAEAEA" transform="translate(10,12)"/>
<path d="M0,0 L6,0 L7,5 L2,4 Z " fill="#0B0B0B" transform="translate(12,15)"/>
<path d="M0,0 L4,0 L4,2 L0,3 L0,6 L-2,6 L-3,8 L-3,3 Z " fill="#F1F1F1" transform="translate(13,3)"/>
</svg>
