<?xml version="1.0" encoding="UTF-8"?>
<svg version="1.1" xmlns="http://www.w3.org/2000/svg" width="28" height="28">
<path d="M0,0 L28,0 L28,28 L0,28 Z " fill="#020202" transform="translate(0,0)"/>
<path d="M0,0 L1,0 L1,17 L3,18 L3,12 L5,9 L9,9 L9,16 L4,20 L-1,19 L-2,17 L-2,8 L-1,1 Z " fill="#C2C2C2" transform="translate(12,2)"/>
<path d="M0,0 L4,0 L4,7 L1,9 L-1,8 L-2,3 Z " fill="#8B8B8B" transform="translate(17,11)"/>
<path d="M0,0 L1,4 L3,5 L1,7 L-4,6 L-4,1 L0,5 Z " fill="#E1E1E1" transform="translate(15,15)"/>
</svg>
