<?xml version="1.0" encoding="UTF-8"?>
<svg version="1.1" xmlns="http://www.w3.org/2000/svg" width="28" height="28">
<path d="M0,0 L28,0 L28,28 L0,28 Z " fill="#010101" transform="translate(0,0)"/>
<path d="M0,0 L2,0 L1,5 L0,9 L5,9 L6,14 L2,19 L-4,20 L-6,18 L-5,11 L-1,1 Z " fill="#DBDBDB" transform="translate(15,3)"/>
<path d="M0,0 L2,0 L1,5 L-1,10 L1,10 L1,12 L-3,13 L-4,16 L-5,11 L-1,1 Z " fill="#E7E7E7" transform="translate(15,3)"/>
<path d="M0,0 L4,0 L2,5 L-2,5 L-2,1 Z " fill="#161616" transform="translate(14,15)"/>
</svg>
