<?xml version="1.0" encoding="UTF-8"?>
<svg version="1.1" xmlns="http://www.w3.org/2000/svg" width="28" height="28">
<path d="M0,0 L28,0 L28,28 L0,28 Z " fill="#020202" transform="translate(0,0)"/>
<path d="M0,0 L3,0 L1,4 L0,11 L0,13 L5,9 L13,9 L16,12 L15,17 L13,18 L4,18 L-1,15 L-4,11 L-3,4 Z " fill="#E2E2E2" transform="translate(10,3)"/>
<path d="M0,0 L8,0 L11,3 L10,8 L2,6 L0,5 L0,3 L2,2 Z " fill="#D0D0D0" transform="translate(15,12)"/>
<path d="M0,0 L5,0 L6,4 L2,5 L-2,3 L-2,1 Z " fill="#181818" transform="translate(17,14)"/>
</svg>
