<?xml version="1.0" encoding="UTF-8"?>
<svg version="1.1" xmlns="http://www.w3.org/2000/svg" width="28" height="28">
<path d="M0,0 L28,0 L28,28 L0,28 Z " fill="#020202" transform="translate(0,0)"/>
<path d="M0,0 L2,0 L0,9 L-1,11 L-1,17 L2,18 L3,13 L9,8 L11,8 L11,13 L5,20 L-3,20 L-4,18 L-4,11 L-1,2 Z " fill="#B7B7B7" transform="translate(12,2)"/>
<path d="M0,0 L2,0 L2,5 L-1,8 L-6,9 L-6,5 Z " fill="#A3A3A3" transform="translate(21,10)"/>
<path d="M0,0 L2,1 L-1,5 L-8,4 L-4,3 L-3,1 Z " fill="#F9F9F9" transform="translate(18,17)"/>
</svg>
