<?xml version="1.0" encoding="UTF-8"?>
<svg version="1.1" xmlns="http://www.w3.org/2000/svg" width="28" height="28">
<path d="M0,0 L28,0 L28,28 L0,28 Z " fill="#030303" transform="translate(0,0)"/>
<path d="M0,0 L4,1 L0,4 L-1,12 L9,8 L16,8 L15,15 L9,18 L0,17 L-4,13 L-4,5 L-3,2 Z " fill="#D4D4D4" transform="translate(10,4)"/>
<path d="M0,0 L4,1 L0,4 L-1,13 L-4,13 L-4,5 L-3,2 Z " fill="#EBEBEB" transform="translate(10,4)"/>
<path d="M0,0 L3,0 L2,4 L0,5 L-6,5 L-4,1 Z " fill="#101010" transform="translate(20,14)"/>
<path d="M0,0 L7,0 L7,4 L5,4 L5,2 L-3,3 Z " fill="#F4F4F4" transform="translate(19,12)"/>
</svg>
