<?xml version="1.0" encoding="UTF-8"?>
<svg version="1.1" xmlns="http://www.w3.org/2000/svg" width="28" height="28">
<path d="M0,0 L28,0 L28,28 L0,28 Z " fill="#030303" transform="translate(0,0)"/>
<path d="M0,0 L4,0 L4,2 L0,4 L-1,6 L-1,12 L4,10 L7,13 L6,18 L4,20 L-2,19 L-4,17 L-5,8 L-2,2 Z " fill="#F3F3F3" transform="translate(14,3)"/>
<path d="M0,0 L4,2 L5,7 L1,10 L-3,7 L-3,2 Z " fill="#CACACA" transform="translate(16,13)"/>
<path d="M0,0 L3,1 L2,5 L-2,4 L-2,1 Z " fill="#151515" transform="translate(15,16)"/>
<path d="M0,0 L4,0 L4,2 L0,4 L-2,6 L-2,2 Z " fill="#D8D8D8" transform="translate(14,3)"/>
</svg>
