<?xml version="1.0" encoding="UTF-8"?>
<svg version="1.1" xmlns="http://www.w3.org/2000/svg" width="28" height="28">
<path d="M0,0 L28,0 L28,28 L0,28 Z " fill="#030303" transform="translate(0,0)"/>
<path d="M0,0 L2,0 L0,4 L-5,11 L-6,17 L-1,17 L0,13 L2,11 L9,11 L10,12 L10,17 L8,19 L4,20 L-6,20 L-8,18 L-7,9 Z " fill="#DDDDDD" transform="translate(14,1)"/>
<path d="M0,0 L2,0 L0,4 L-5,11 L-6,17 L-1,17 L-4,18 L-4,20 L-8,18 L-7,9 Z " fill="#D8D8D8" transform="translate(14,1)"/>
<path d="M0,0 L5,0 L5,3 L-2,4 Z " fill="#101010" transform="translate(17,14)"/>
</svg>
