<?xml version="1.0" encoding="UTF-8"?>
<svg version="1.1" xmlns="http://www.w3.org/2000/svg" width="28" height="28">
<path d="M0,0 L28,0 L28,28 L0,28 Z " fill="#030303" transform="translate(0,0)"/>
<path d="M0,0 L3,0 L1,4 L-3,10 L-4,17 L-1,16 L0,11 L4,8 L11,9 L12,11 L12,17 L5,20 L-3,20 L-7,16 L-6,8 Z " fill="#DEDEDE" transform="translate(12,2)"/>
<path d="M0,0 L3,0 L1,4 L-4,12 L-5,16 L-7,16 L-6,8 Z " fill="#DFDFDF" transform="translate(12,2)"/>
<path d="M0,0 L5,0 L6,4 L2,6 L-3,5 L-1,1 Z " fill="#101010" transform="translate(16,13)"/>
<path d="M0,0 L7,1 L8,4 L6,6 L2,2 Z " fill="#C1C1C1" transform="translate(16,10)"/>
</svg>
