<?xml version="1.0" encoding="UTF-8"?>
<svg version="1.1" xmlns="http://www.w3.org/2000/svg" width="28" height="28">
<path d="M0,0 L28,0 L28,28 L0,28 Z " fill="#020202" transform="translate(0,0)"/>
<path d="M0,0 L2,0 L2,4 L0,4 L-1,8 L-3,12 L3,12 L4,17 L0,20 L-5,20 L-7,18 L-6,9 Z " fill="#F7F7F7" transform="translate(16,2)"/>
<path d="M0,0 L4,1 L3,6 L-1,8 L-1,6 L-4,6 L-3,2 Z " fill="#A7A7A7" transform="translate(16,14)"/>
<path d="M0,0 L2,0 L2,4 L0,4 L-1,8 L-3,10 L-6,11 L-4,6 Z " fill="#DADADA" transform="translate(16,2)"/>
</svg>
