<?xml version="1.0" encoding="UTF-8"?>
<svg version="1.1" xmlns="http://www.w3.org/2000/svg" width="28" height="28">
<path d="M0,0 L28,0 L28,28 L0,28 Z " fill="#030303" transform="translate(0,0)"/>
<path d="M0,0 L1,4 L-2,9 L-3,17 L1,17 L1,12 L5,9 L9,10 L9,16 L6,19 L-3,20 L-5,18 L-5,9 Z " fill="#D3D3D3" transform="translate(13,2)"/>
<path d="M0,0 L4,1 L4,6 L3,2 L-2,5 L-4,7 L-3,2 Z " fill="#EFEFEF" transform="translate(18,11)"/>
<path d="M0,0 L3,0 L2,4 L-3,5 L-1,1 Z " fill="#252525" transform="translate(18,13)"/>
</svg>
