<?xml version="1.0" encoding="UTF-8"?>
<svg version="1.1" xmlns="http://www.w3.org/2000/svg" width="28" height="28">
<path d="M0,0 L28,0 L28,28 L0,28 Z " fill="#020202" transform="translate(0,0)"/>
<path d="M0,0 L2,0 L1,4 L-2,10 L-1,11 L2,9 L7,9 L7,15 L1,20 L-3,19 L-5,17 L-5,9 Z " fill="#DCDCDC" transform="translate(14,3)"/>
<path d="M0,0 L5,0 L5,6 L1,7 L-3,8 L-5,5 Z " fill="#C7C7C7" transform="translate(16,12)"/>
<path d="M0,0 L2,0 L1,4 L-4,6 L-3,2 Z " fill="#131313" transform="translate(17,14)"/>
</svg>
