<?xml version="1.0" encoding="UTF-8"?>
<svg version="1.1" xmlns="http://www.w3.org/2000/svg" width="28" height="28">
<path d="M0,0 L28,0 L28,28 L0,28 Z " fill="#030303" transform="translate(0,0)"/>
<path d="M0,0 L2,0 L0,5 L-5,12 L4,11 L5,16 L1,19 L-6,20 L-6,18 L3,16 L3,14 L-5,16 L-10,17 L-9,12 L-1,1 Z " fill="#E7E7E7" transform="translate(18,2)"/>
<path d="M0,0 L6,0 L6,2 L2,4 L-3,4 L-3,6 L-8,6 L-8,3 Z " fill="#BEBEBE" transform="translate(15,16)"/>
<path d="M0,0 L6,0 L6,2 L4,3 L-3,3 Z " fill="#1C1C1C" transform="translate(15,16)"/>
</svg>
