<?xml version="1.0" encoding="UTF-8"?>
<svg version="1.1" xmlns="http://www.w3.org/2000/svg" width="28" height="28">
<path d="M0,0 L28,0 L28,28 L0,28 Z " fill="#030303" transform="translate(0,0)"/>
<path d="M0,0 L3,0 L3,4 L-1,5 L-5,11 L-4,12 L-2,11 L5,11 L7,13 L6,17 L1,20 L-8,20 L-9,18 L-8,9 L-2,1 Z " fill="#DEDEDE" transform="translate(16,3)"/>
<path d="M0,0 L3,0 L3,4 L-1,5 L-5,11 L-6,14 L-4,14 L-4,20 L-8,20 L-9,18 L-8,9 L-2,1 Z " fill="#DFDFDF" transform="translate(16,3)"/>
<path d="M0,0 L1,4 L3,4 L3,10 L-1,10 L-2,8 L-2,2 Z " fill="#F5F5F5" transform="translate(9,13)"/>
<path d="M0,0 L5,0 L5,3 L-3,4 L-2,1 Z " fill="#181818" transform="translate(14,17)"/>
</svg>
