<?xml version="1.0" encoding="UTF-8"?>
<svg version="1.1" xmlns="http://www.w3.org/2000/svg" width="28" height="28">
<path d="M0,0 L28,0 L28,28 L0,28 Z " fill="#040404" transform="translate(0,0)"/>
<path d="M0,0 L4,1 L4,3 L-1,6 L-2,8 L6,8 L10,11 L9,17 L0,20 L-6,18 L-6,7 Z " fill="#E5E5E5" transform="translate(14,3)"/>
<path d="M0,0 L4,1 L4,3 L-1,6 L-2,8 L6,8 L5,11 L-4,12 L-4,17 L-6,17 L-6,7 Z " fill="#F0F0F0" transform="translate(14,3)"/>
<path d="M0,0 L6,2 L5,6 L-2,7 L-4,6 L-3,2 Z " fill="#0D0D0D" transform="translate(15,13)"/>
<path d="M0,0 L4,1 L4,3 L-2,6 L-5,7 L-3,3 Z " fill="#C6C6C6" transform="translate(14,3)"/>
<path d="M0,0 L2,1 L1,4 L7,5 L6,8 L-2,6 L0,5 Z " fill="#CCCCCC" transform="translate(10,15)"/>
</svg>
