<?xml version="1.0" encoding="UTF-8"?>
<svg version="1.1" xmlns="http://www.w3.org/2000/svg" width="28" height="28">
<path d="M0,0 L28,0 L28,28 L0,28 Z " fill="#020202" transform="translate(0,0)"/>
<path d="M0,0 L2,0 L2,2 L0,2 L1,11 L6,8 L11,8 L13,10 L13,16 L9,20 L3,19 L2,16 L0,16 L-2,7 L-2,1 Z " fill="#E0E0E0" transform="translate(10,3)"/>
<path d="M0,0 L4,1 L3,6 L1,8 L-3,7 L-4,3 Z " fill="#111111" transform="translate(17,13)"/>
<path d="M0,0 L2,0 L2,2 L0,2 L1,10 L-1,12 L-2,1 Z " fill="#C7C7C7" transform="translate(10,3)"/>
</svg>
