<?xml version="1.0" encoding="UTF-8"?>
<svg version="1.1" xmlns="http://www.w3.org/2000/svg" width="28" height="28">
<path d="M0,0 L28,0 L28,28 L0,28 Z " fill="#020202" transform="translate(0,0)"/>
<path d="M0,0 L2,0 L2,2 L-3,7 L-5,11 L-1,13 L-2,18 L-6,20 L-10,19 L-10,13 L-4,3 Z " fill="#D5D5D5" transform="translate(19,3)"/>
<path d="M0,0 L2,0 L2,2 L-3,7 L-7,12 L-7,8 L-4,3 Z " fill="#DEDEDE" transform="translate(19,3)"/>
<path d="M0,0 L4,0 L5,3 L1,5 L-2,4 L-2,1 Z " fill="#747474" transform="translate(13,17)"/>
<path d="M0,0 L1,2 L0,5 L3,6 L-1,7 L-2,2 Z " fill="#F7F7F7" transform="translate(11,16)"/>
</svg>
