<?xml version="1.0" encoding="UTF-8"?>
<svg version="1.1" xmlns="http://www.w3.org/2000/svg" width="28" height="28">
<path d="M0,0 L28,0 L28,28 L0,28 Z " fill="#040404" transform="translate(0,0)"/>
<path d="M0,0 L4,1 L4,3 L0,3 L-2,7 L-6,15 L1,12 L8,13 L7,17 L1,20 L-5,19 L-8,16 L-7,9 L-1,1 Z " fill="#EBEBEB" transform="translate(15,2)"/>
<path d="M0,0 L7,1 L6,5 L4,6 L-2,4 Z " fill="#ADADAD" transform="translate(16,14)"/>
<path d="M0,0 L4,1 L4,3 L0,3 L-2,7 L-4,6 L-2,2 Z " fill="#D2D2D2" transform="translate(15,2)"/>
</svg>
