<?xml version="1.0" encoding="UTF-8"?>
<svg version="1.1" xmlns="http://www.w3.org/2000/svg" width="28" height="28">
<path d="M0,0 L28,0 L28,28 L0,28 Z " fill="#020202" transform="translate(0,0)"/>
<path d="M0,0 L3,1 L2,3 L-2,5 L-5,12 L2,12 L4,13 L3,18 L0,20 L-6,20 L-8,17 L-7,10 L-4,3 L-2,3 L-2,1 Z " fill="#C4C4C4" transform="translate(17,3)"/>
<path d="M0,0 L3,1 L2,3 L-2,5 L-5,12 L-3,14 L-5,15 L-7,18 L-8,17 L-7,10 L-4,3 L-2,3 L-2,1 Z " fill="#E1E1E1" transform="translate(17,3)"/>
<path d="M0,0 L4,1 L4,4 L-2,6 L-4,2 Z " fill="#101010" transform="translate(15,16)"/>
</svg>
