<?xml version="1.0" encoding="UTF-8"?>
<svg version="1.1" xmlns="http://www.w3.org/2000/svg" width="28" height="28">
<path d="M0,0 L28,0 L28,28 L0,28 Z " fill="#020202" transform="translate(0,0)"/>
<path d="M0,0 L0,3 L-4,9 L-1,9 L-2,17 L-5,20 L-9,20 L-9,13 L-4,4 Z " fill="#C3C3C3" transform="translate(19,3)"/>
<path d="M0,0 L0,3 L-4,9 L-2,10 L-7,15 L-8,19 L-6,20 L-9,20 L-9,13 L-4,4 Z " fill="#E4E4E4" transform="translate(19,3)"/>
<path d="M0,0 L2,0 L1,6 L-3,7 L-2,2 Z " fill="#181818" transform="translate(14,14)"/>
</svg>
