<?xml version="1.0" encoding="UTF-8"?>
<svg version="1.1" xmlns="http://www.w3.org/2000/svg" width="28" height="28">
<path d="M0,0 L28,0 L28,28 L0,28 Z " fill="#020202" transform="translate(0,0)"/>
<path d="M0,0 L2,0 L0,4 L-6,11 L-3,13 L-4,18 L-7,20 L-12,19 L-11,12 L-6,5 Z " fill="#E8E8E8" transform="translate(20,3)"/>
<path d="M0,0 L2,0 L0,4 L-7,12 L-11,14 L-9,10 L-6,5 Z " fill="#D4D4D4" transform="translate(20,3)"/>
<path d="M0,0 L3,0 L3,3 L-1,4 L-2,6 L-3,1 Z " fill="#767676" transform="translate(11,17)"/>
</svg>
