<?xml version="1.0" encoding="UTF-8"?>
<svg version="1.1" xmlns="http://www.w3.org/2000/svg" width="28" height="28">
<path d="M0,0 L28,0 L28,28 L0,28 Z " fill="#010101" transform="translate(0,0)"/>
<path d="M0,0 L2,0 L0,4 L-5,10 L-3,11 L-4,16 L-8,20 L-12,20 L-11,14 L-3,3 L-1,3 Z " fill="#9E9E9E" transform="translate(21,3)"/>
<path d="M0,0 L4,0 L3,5 L-1,9 L-5,9 L-4,4 L0,6 L1,2 L-1,1 Z " fill="#E2E2E2" transform="translate(14,14)"/>
<path d="M0,0 L2,0 L0,4 L-4,9 L-7,8 L-3,3 L-1,3 Z " fill="#C9C9C9" transform="translate(21,3)"/>
</svg>
