<?xml version="1.0" encoding="UTF-8"?>
<svg version="1.1" xmlns="http://www.w3.org/2000/svg" width="28" height="28">
<path d="M0,0 L28,0 L28,28 L0,28 Z " fill="#020202" transform="translate(0,0)"/>
<path d="M0,0 L2,0 L0,4 L-4,11 L-2,11 L-3,18 L-5,20 L-8,20 L-7,12 L-2,2 Z " fill="#D0D0D0" transform="translate(18,3)"/>
<path d="M0,0 L4,0 L3,5 L-1,8 Z " fill="#969696" transform="translate(11,15)"/>
<path d="M0,0 L4,1 L3,8 L-1,10 L0,7 L2,7 L3,2 L0,2 Z " fill="#F6F6F6" transform="translate(12,13)"/>
</svg>
