<?xml version="1.0" encoding="UTF-8"?>
<svg version="1.1" xmlns="http://www.w3.org/2000/svg" width="28" height="28">
<path d="M0,0 L28,0 L28,28 L0,28 Z " fill="#030303" transform="translate(0,0)"/>
<path d="M0,0 L4,2 L0,4 L-3,9 L-3,15 L0,10 L7,9 L8,13 L4,19 L-2,20 L-6,17 L-6,9 Z " fill="#E5E5E5" transform="translate(14,3)"/>
<path d="M0,0 L4,2 L0,4 L-3,9 L-5,17 L-6,17 L-6,9 Z " fill="#BDBDBD" transform="translate(14,3)"/>
<path d="M0,0 L5,0 L4,4 L2,6 L-2,6 L-1,1 Z " fill="#0B0B0B" transform="translate(15,14)"/>
<path d="M0,0 L2,4 L-2,10 L-6,8 L-1,5 Z " fill="#C2C2C2" transform="translate(20,12)"/>
</svg>
