<?xml version="1.0" encoding="UTF-8"?>
<svg version="1.1" xmlns="http://www.w3.org/2000/svg" width="28" height="28">
<path d="M0,0 L28,0 L28,28 L0,28 Z " fill="#030303" transform="translate(0,0)"/>
<path d="M0,0 L3,0 L1,4 L-4,11 L4,11 L4,16 L1,19 L-7,20 L-10,18 L-10,12 Z " fill="#E4E4E4" transform="translate(17,2)"/>
<path d="M0,0 L3,0 L1,4 L-4,10 L-6,17 L-8,17 L-8,13 L-10,14 L-8,10 Z " fill="#A1A1A1" transform="translate(17,2)"/>
<path d="M0,0 L2,0 L2,5 L-4,6 L-3,1 Z " fill="#828282" transform="translate(19,13)"/>
<path d="M0,0 L3,0 L1,4 L-2,7 L-3,4 Z " fill="#D7D7D7" transform="translate(17,2)"/>
</svg>
