<?xml version="1.0" encoding="UTF-8"?>
<svg version="1.1" xmlns="http://www.w3.org/2000/svg" width="28" height="28">
<path d="M0,0 L28,0 L28,28 L0,28 Z " fill="#030303" transform="translate(0,0)"/>
<path d="M0,0 L2,0 L2,5 L-4,14 L-5,17 L-3,17 L-1,13 L3,10 L7,11 L7,16 L0,20 L-5,20 L-8,18 L-7,13 L-1,3 Z " fill="#D2D2D2" transform="translate(15,2)"/>
<path d="M0,0 L4,1 L3,5 L-2,8 L-6,7 L-4,3 Z " fill="#909090" transform="translate(18,12)"/>
<path d="M0,0 L1,4 L-3,7 L-10,7 L-8,5 L-4,4 L0,3 Z " fill="#F0F0F0" transform="translate(21,14)"/>
</svg>
