<?xml version="1.0" encoding="UTF-8"?>
<svg version="1.1" xmlns="http://www.w3.org/2000/svg" width="28" height="28">
<path d="M0,0 L28,0 L28,28 L0,28 Z " fill="#030303" transform="translate(0,0)"/>
<path d="M0,0 L0,3 L-3,7 L-7,18 L-3,18 L-2,13 L3,8 L6,9 L3,16 L-1,20 L-8,20 L-8,13 L-4,4 Z " fill="#DADADA" transform="translate(16,2)"/>
<path d="M0,0 L3,1 L0,8 L-5,9 L-5,5 Z " fill="#949494" transform="translate(19,10)"/>
<path d="M0,0 L0,3 L-3,7 L-5,14 L-7,10 L-2,1 Z " fill="#BEBEBE" transform="translate(16,2)"/>
</svg>
