<?xml version="1.0" encoding="UTF-8"?>
<svg version="1.1" xmlns="http://www.w3.org/2000/svg" width="28" height="28">
<path d="M0,0 L28,0 L28,28 L0,28 Z " fill="#020202" transform="translate(0,0)"/>
<path d="M0,0 L2,0 L1,6 L-3,12 L3,12 L3,18 L0,20 L-6,20 L-8,18 L-7,12 L-3,6 Z " fill="#D7D7D7" transform="translate(17,2)"/>
<path d="M0,0 L4,0 L4,5 L1,7 L-5,7 L-6,2 L-2,1 L-2,4 L3,3 L3,1 Z " fill="#EFEFEF" transform="translate(16,15)"/>
<path d="M0,0 L5,0 L4,4 L-2,6 Z " fill="#969696" transform="translate(15,14)"/>
</svg>
