<?xml version="1.0" encoding="UTF-8"?>
<svg version="1.1" xmlns="http://www.w3.org/2000/svg" width="28" height="28">
<path d="M0,0 L28,0 L28,28 L0,28 Z " fill="#020202" transform="translate(0,0)"/>
<path d="M0,0 L4,1 L3,3 L0,2 L-2,8 L-3,10 L4,11 L5,12 L5,17 L0,20 L-5,20 L-7,18 L-7,11 L-3,2 Z " fill="#D4D4D4" transform="translate(16,3)"/>
<path d="M0,0 L2,1 L2,6 L-1,8 L-6,7 L-7,2 Z " fill="#CFCFCF" transform="translate(19,14)"/>
<path d="M0,0 L8,0 L8,1 L2,2 L2,6 L5,9 L0,9 L-2,7 L-2,2 Z " fill="#ECECEC" transform="translate(11,14)"/>
<path d="M0,0 L7,0 L6,3 L0,4 Z " fill="#040404" transform="translate(12,16)"/>
</svg>
