<?xml version="1.0" encoding="UTF-8"?>
<svg version="1.1" xmlns="http://www.w3.org/2000/svg" width="28" height="28">
<path d="M0,0 L28,0 L28,28 L0,28 Z " fill="#030303" transform="translate(0,0)"/>
<path d="M0,0 L3,0 L1,6 L-2,7 L-4,11 L-6,16 L-4,17 L-3,13 L1,11 L6,11 L6,16 L3,20 L-6,20 L-9,19 L-10,14 L-9,11 L-7,11 L-5,7 L-1,3 Z " fill="#C9C9C9" transform="translate(16,2)"/>
<path d="M0,0 L5,0 L5,5 L1,9 L1,6 L-3,5 L-3,1 Z " fill="#A4A4A4" transform="translate(17,13)"/>
<path d="M0,0 L2,3 L5,4 L5,7 L-1,6 L-1,1 Z " fill="#F3F3F3" transform="translate(13,15)"/>
<path d="M0,0 L2,0 L1,4 L-1,7 L-3,7 L-2,2 Z " fill="#ECECEC" transform="translate(11,9)"/>
</svg>
