<?xml version="1.0" encoding="UTF-8"?>
<svg version="1.1" xmlns="http://www.w3.org/2000/svg" width="28" height="28">
<path d="M0,0 L28,0 L28,28 L0,28 Z " fill="#030303" transform="translate(0,0)"/>
<path d="M0,0 L3,0 L3,2 L-1,3 L-2,12 L7,10 L9,12 L8,17 L4,20 L-3,20 L-5,18 L-5,9 L-2,2 Z " fill="#BEBEBE" transform="translate(15,2)"/>
<path d="M0,0 L3,0 L3,2 L-1,3 L-2,9 L-4,14 L-2,15 L-2,17 L3,19 L3,20 L-3,20 L-5,18 L-5,9 L-2,2 Z " fill="#F4F4F4" transform="translate(15,2)"/>
<path d="M0,0 L4,1 L0,6 L-6,6 L-7,3 Z " fill="#121212" transform="translate(19,14)"/>
<path d="M0,0 L3,0 L3,2 L-1,3 L-2,9 L-4,5 Z " fill="#C0C0C0" transform="translate(15,2)"/>
</svg>
