<?xml version="1.0" encoding="UTF-8"?>
<svg version="1.1" xmlns="http://www.w3.org/2000/svg" width="28" height="28">
<path d="M0,0 L28,0 L28,28 L0,28 Z " fill="#020202" transform="translate(0,0)"/>
<path d="M0,0 L2,0 L2,3 L-2,4 L-2,6 L-7,10 L-7,12 L-5,10 L1,10 L2,11 L2,17 L-3,20 L-9,20 L-12,18 L-11,9 L-8,6 Z " fill="#E8E8E8" transform="translate(20,2)"/>
<path d="M0,0 L6,0 L7,1 L7,7 L3,9 L-2,7 L-5,6 L-5,4 Z " fill="#E3E3E3" transform="translate(15,12)"/>
<path d="M0,0 L4,0 L3,4 L-2,5 L-1,1 Z " fill="#181818" transform="translate(16,15)"/>
<path d="M0,0 L6,0 L6,1 L1,2 L-1,7 L-5,6 L-5,4 Z " fill="#BBBBBB" transform="translate(15,12)"/>
<path d="M0,0 L2,1 L0,2 Z M-2,2 L0,3 L-6,10 L-7,8 Z " fill="#181818" transform="translate(18,6)"/>
</svg>
