<?xml version="1.0" encoding="UTF-8"?>
<svg version="1.1" xmlns="http://www.w3.org/2000/svg" width="28" height="28">
<path d="M0,0 L28,0 L28,28 L0,28 Z " fill="#030303" transform="translate(0,0)"/>
<path d="M0,0 L3,0 L1,4 L-4,10 L-4,11 L0,8 L5,9 L5,14 L1,18 L-1,18 L-1,20 L-7,19 L-9,17 L-9,11 L-5,5 Z " fill="#E0E0E0" transform="translate(17,3)"/>
<path d="M0,0 L3,0 L1,4 L-4,10 L-6,12 L-8,11 L-6,6 Z " fill="#DDDDDD" transform="translate(17,3)"/>
<path d="M0,0 L5,1 L5,6 L2,8 L2,4 L-1,2 Z " fill="#EBEBEB" transform="translate(17,11)"/>
<path d="M0,0 L5,0 L3,4 L0,4 Z " fill="#1A1A1A" transform="translate(15,15)"/>
</svg>
