<?xml version="1.0" encoding="UTF-8"?>
<svg version="1.1" xmlns="http://www.w3.org/2000/svg" width="28" height="28">
<path d="M0,0 L28,0 L28,28 L0,28 Z " fill="#020202" transform="translate(0,0)"/>
<path d="M0,0 L3,0 L1,4 L-3,9 L-3,13 L0,11 L5,11 L5,16 L0,20 L-5,20 L-8,17 L-8,11 L-2,3 Z " fill="#A4A4A4" transform="translate(16,2)"/>
<path d="M0,0 L3,0 L1,4 L-3,9 L-6,16 L-7,16 L-7,10 L-3,4 Z " fill="#D4D4D4" transform="translate(16,2)"/>
<path d="M0,0 L5,0 L5,5 L2,8 L-2,7 L3,5 L3,2 L-1,3 Z " fill="#E9E9E9" transform="translate(16,13)"/>
<path d="M0,0 L1,2 L-2,9 L-3,9 L-3,3 Z " fill="#EDEDED" transform="translate(12,9)"/>
</svg>
