<?xml version="1.0" encoding="UTF-8"?>
<svg version="1.1" xmlns="http://www.w3.org/2000/svg" width="28" height="28">
<path d="M0,0 L28,0 L28,28 L0,28 Z " fill="#020202" transform="translate(0,0)"/>
<path d="M0,0 L2,0 L1,4 L-2,8 L-4,8 L-6,13 L2,12 L1,16 L-2,19 L-8,20 L-10,18 L-9,11 L-2,2 Z " fill="#F4F4F4" transform="translate(19,2)"/>
<path d="M0,0 L5,0 L4,4 L1,7 L0,5 L-4,3 Z " fill="#D1D1D1" transform="translate(16,14)"/>
<path d="M0,0 L2,0 L1,4 L-2,8 L-8,11 L-6,7 Z " fill="#DADADA" transform="translate(19,2)"/>
</svg>
