<?xml version="1.0" encoding="UTF-8"?>
<svg version="1.1" xmlns="http://www.w3.org/2000/svg" width="28" height="28">
<path d="M0,0 L28,0 L28,28 L0,28 Z " fill="#040404" transform="translate(0,0)"/>
<path d="M0,0 L4,0 L4,2 L0,3 L-2,7 L-5,13 L-5,17 L0,17 L0,11 L3,9 L9,9 L10,10 L10,15 L5,19 L2,20 L-6,20 L-9,16 L-8,10 L-1,1 Z " fill="#DEDEDE" transform="translate(15,2)"/>
<path d="M0,0 L6,0 L7,1 L7,6 L4,8 L-1,7 L-3,8 L-3,2 Z " fill="#E8E8E8" transform="translate(18,11)"/>
<path d="M0,0 L4,2 L6,2 L6,4 L1,6 L-5,6 L-5,4 L0,4 Z " fill="#F4F4F4" transform="translate(16,16)"/>
<path d="M0,0 L4,0 L3,4 L-1,6 L-2,2 Z " fill="#171717" transform="translate(19,13)"/>
<path d="M0,0 L5,0 L5,5 L2,7 L2,4 L3,1 Z " fill="#C7C7C7" transform="translate(20,12)"/>
</svg>
