<?xml version="1.0" encoding="UTF-8"?>
<svg version="1.1" xmlns="http://www.w3.org/2000/svg" width="28" height="28">
<path d="M0,0 L28,0 L28,28 L0,28 Z " fill="#020202" transform="translate(0,0)"/>
<path d="M0,0 L3,0 L3,2 L0,4 L-2,10 L3,9 L6,11 L6,18 L2,20 L-2,19 L-4,17 L-4,8 L-1,1 Z " fill="#E4E4E4" transform="translate(14,3)"/>
<path d="M0,0 L3,0 L3,6 L-2,7 L-3,3 L-1,3 Z " fill="#1A1A1A" transform="translate(15,14)"/>
<path d="M0,0 L5,1 L6,2 L6,9 L4,8 L4,2 L0,3 L-2,1 Z " fill="#C8C8C8" transform="translate(14,12)"/>
</svg>
