<?xml version="1.0" encoding="UTF-8"?>
<svg version="1.1" xmlns="http://www.w3.org/2000/svg" width="28" height="28">
<path d="M0,0 L28,0 L28,28 L0,28 Z " fill="#030303" transform="translate(0,0)"/>
<path d="M0,0 L2,0 L-1,10 L0,15 L7,12 L12,11 L13,12 L13,17 L8,20 L1,20 L-4,16 L-4,8 Z " fill="#E9E9E9" transform="translate(11,1)"/>
<path d="M0,0 L5,1 L5,6 L0,9 L-4,7 L-4,5 L-2,5 L-3,2 Z " fill="#DDDDDD" transform="translate(19,12)"/>
<path d="M0,0 L2,1 L1,2 L3,3 L3,5 L-1,7 L-4,7 L-4,5 L-2,5 L-3,2 Z " fill="#949494" transform="translate(19,12)"/>
</svg>
