<?xml version="1.0" encoding="UTF-8"?>
<svg version="1.1" xmlns="http://www.w3.org/2000/svg" width="28" height="28">
<path d="M0,0 L28,0 L28,28 L0,28 Z " fill="#020202" transform="translate(0,0)"/>
<path d="M0,0 L4,1 L0,3 L-3,9 L-3,13 L-1,11 L4,11 L6,15 L2,19 L-4,20 L-6,15 L-6,8 Z " fill="#D6D6D6" transform="translate(16,3)"/>
<path d="M0,0 L4,1 L0,3 L-3,9 L-5,15 L-6,15 L-6,8 Z " fill="#C2C2C2" transform="translate(16,3)"/>
<path d="M0,0 L4,0 L3,5 L-2,5 L-1,1 Z " fill="#0F0F0F" transform="translate(16,15)"/>
</svg>
