<?xml version="1.0" encoding="UTF-8"?>
<svg version="1.1" xmlns="http://www.w3.org/2000/svg" width="28" height="28">
<path d="M0,0 L28,0 L28,28 L0,28 Z " fill="#020202" transform="translate(0,0)"/>
<path d="M0,0 L2,0 L1,3 L-2,6 L-2,9 L1,11 L0,17 L-3,20 L-8,19 L-8,11 L-2,1 Z " fill="#D7D7D7" transform="translate(18,3)"/>
<path d="M0,0 L1,4 L4,4 L7,2 L6,6 L4,8 L-1,7 L-1,1 Z " fill="#E6E6E6" transform="translate(11,15)"/>
<path d="M0,0 L4,0 L3,4 L-1,6 L-2,4 Z " fill="#1B1B1B" transform="translate(13,15)"/>
</svg>
