<?xml version="1.0" encoding="UTF-8"?>
<svg version="1.1" xmlns="http://www.w3.org/2000/svg" width="28" height="28">
<path d="M0,0 L28,0 L28,28 L0,28 Z " fill="#050505" transform="translate(0,0)"/>
<path d="M0,0 L2,0 L1,6 L-1,8 L-1,14 L4,16 L5,10 L9,7 L14,7 L15,11 L13,14 L7,17 L-3,17 L-5,14 L-4,8 L-1,4 Z " fill="#EBEBEB" transform="translate(10,4)"/>
<path d="M0,0 L2,0 L1,6 L-1,8 L-1,14 L0,17 L-4,16 L-5,10 L-1,4 Z " fill="#D9D9D9" transform="translate(10,4)"/>
<path d="M0,0 L4,1 L-1,6 L-3,5 Z " fill="#1A1A1A" transform="translate(19,13)"/>
<path d="M0,0 L1,2 L-1,5 L-8,8 L-8,6 L-3,3 Z " fill="#D0D0D0" transform="translate(24,13)"/>
</svg>
