<?xml version="1.0" encoding="UTF-8"?>
<svg version="1.1" xmlns="http://www.w3.org/2000/svg" width="28" height="28">
<path d="M0,0 L28,0 L28,28 L0,28 Z " fill="#030303" transform="translate(0,0)"/>
<path d="M0,0 L3,0 L2,8 L0,12 L1,16 L2,12 L4,11 L12,11 L13,12 L13,17 L7,20 L-1,20 L-1,18 L-3,18 L-3,9 L-1,9 L-1,2 Z " fill="#D8D8D8" transform="translate(11,2)"/>
<path d="M0,0 L8,0 L9,1 L9,6 L5,8 L5,6 L-1,5 L-2,1 Z " fill="#DDDDDD" transform="translate(15,13)"/>
<path d="M0,0 L1,2 L7,3 L7,5 L5,6 L-1,6 L-2,4 L0,4 L-1,1 Z " fill="#F9F9F9" transform="translate(13,16)"/>
<path d="M0,0 L6,0 L6,3 L0,4 Z " fill="#121212" transform="translate(16,15)"/>
</svg>
