<?xml version="1.0" encoding="UTF-8"?>
<svg version="1.1" xmlns="http://www.w3.org/2000/svg" width="28" height="28">
<path d="M0,0 L28,0 L28,28 L0,28 Z " fill="#020202" transform="translate(0,0)"/>
<path d="M0,0 L2,0 L-1,9 L-2,11 L5,7 L6,12 L2,16 L0,16 L1,19 L-2,20 L-6,16 L-5,10 Z " fill="#E2E2E2" transform="translate(15,3)"/>
<path d="M0,0 L0,3 L-1,6 L-3,6 L-2,9 L-5,10 L-7,5 L-7,2 L-3,3 Z " fill="#9A9A9A" transform="translate(18,13)"/>
<path d="M0,0 L1,3 L0,6 L2,7 L-2,7 L-1,1 Z " fill="#EFEFEF" transform="translate(11,12)"/>
</svg>
