<?xml version="1.0" encoding="UTF-8"?>
<svg version="1.1" xmlns="http://www.w3.org/2000/svg" width="28" height="28">
<path d="M0,0 L28,0 L28,28 L0,28 Z " fill="#040404" transform="translate(0,0)"/>
<path d="M0,0 L2,0 L1,5 L-2,11 L-3,16 L2,14 L5,9 L8,9 L8,15 L3,20 L-3,18 L-5,16 L-4,6 Z " fill="#9B9B9B" transform="translate(14,3)"/>
<path d="M0,0 L2,0 L1,5 L-2,11 L-2,16 L0,18 L-4,17 L-5,12 L-3,5 Z " fill="#F4F4F4" transform="translate(14,3)"/>
<path d="M0,0 L2,1 L2,7 L-1,9 L0,5 L-2,5 L-1,1 Z " fill="#E3E3E3" transform="translate(20,11)"/>
<path d="M0,0 L2,0 L1,5 L-2,8 L-4,6 Z " fill="#CBCBCB" transform="translate(14,3)"/>
</svg>
