<?xml version="1.0" encoding="UTF-8"?>
<svg version="1.1" xmlns="http://www.w3.org/2000/svg" width="28" height="28">
<path d="M0,0 L28,0 L28,28 L0,28 Z " fill="#030303" transform="translate(0,0)"/>
<path d="M0,0 L3,0 L3,2 L-4,8 L-7,14 L-2,11 L4,10 L7,12 L6,18 L3,20 L-10,20 L-10,12 L-7,6 Z " fill="#E3E3E3" transform="translate(17,2)"/>
<path d="M0,0 L5,2 L4,8 L-1,10 L-1,8 L-7,7 L-7,3 Z " fill="#DFDFDF" transform="translate(19,12)"/>
<path d="M0,0 L5,1 L4,4 L-5,4 Z " fill="#121212" transform="translate(17,15)"/>
<path d="M0,0 L2,0 L0,5 L-4,6 L-4,4 L-8,3 L-1,3 Z " fill="#C4C4C4" transform="translate(22,16)"/>
</svg>
