<?xml version="1.0" encoding="UTF-8"?>
<svg version="1.1" xmlns="http://www.w3.org/2000/svg" width="28" height="28">
<path d="M0,0 L28,0 L28,28 L0,28 Z " fill="#020202" transform="translate(0,0)"/>
<path d="M0,0 L1,3 L-6,12 L-1,9 L3,9 L4,15 L-1,19 L-3,20 L-9,20 L-10,19 L-9,11 Z " fill="#D0D0D0" transform="translate(18,2)"/>
<path d="M0,0 L1,4 L-4,8 L-6,9 L-12,9 L-13,8 L-13,3 L-9,3 L-10,7 L-2,4 Z " fill="#E3E3E3" transform="translate(21,13)"/>
<path d="M0,0 L4,0 L2,5 L-3,7 L-6,7 L-4,3 Z " fill="#1B1B1B" transform="translate(17,13)"/>
</svg>
