<?xml version="1.0" encoding="UTF-8"?>
<svg version="1.1" xmlns="http://www.w3.org/2000/svg" width="28" height="28">
<path d="M0,0 L28,0 L28,28 L0,28 Z " fill="#020202" transform="translate(0,0)"/>
<path d="M0,0 L2,0 L0,4 L-4,9 L-4,12 L2,9 L6,11 L5,16 L2,18 L-6,18 L-8,20 L-7,9 Z " fill="#D1D1D1" transform="translate(16,3)"/>
<path d="M0,0 L4,0 L4,3 L-3,4 L-2,1 Z " fill="#191919" transform="translate(16,15)"/>
<path d="M0,0 L3,1 L2,5 L2,3 L-3,4 L-3,1 Z " fill="#B1B1B1" transform="translate(18,12)"/>
</svg>
