<?xml version="1.0" encoding="UTF-8"?>
<svg version="1.1" xmlns="http://www.w3.org/2000/svg" width="28" height="28">
<path d="M0,0 L28,0 L28,28 L0,28 Z " fill="#020202" transform="translate(0,0)"/>
<path d="M0,0 L0,3 L-4,6 L-3,11 L1,12 L3,7 L8,4 L13,5 L11,10 L6,13 L-1,14 L-6,12 L-7,6 Z " fill="#CACACA" transform="translate(12,6)"/>
<path d="M0,0 L0,3 L-4,6 L-3,11 L1,13 L-5,13 L-7,10 L-6,5 Z M6,5 L10,6 L4,10 L1,12 L3,7 Z " fill="#D4D4D4" transform="translate(12,6)"/>
<path d="M0,0 L3,0 L1,4 L-3,6 L-6,5 Z " fill="#171717" transform="translate(20,12)"/>
</svg>
