<?xml version="1.0" encoding="UTF-8"?>
<svg version="1.1" xmlns="http://www.w3.org/2000/svg" width="28" height="28">
<path d="M0,0 L28,0 L28,28 L0,28 Z " fill="#020202" transform="translate(0,0)"/>
<path d="M0,0 L2,0 L2,10 L4,14 L9,11 L15,12 L15,17 L12,20 L6,20 L0,15 L-1,13 L-1,2 Z " fill="#E3E3E3" transform="translate(9,2)"/>
<path d="M0,0 L6,1 L6,6 L3,8 L-3,6 L-3,4 L-5,3 Z " fill="#CFCFCF" transform="translate(18,13)"/>
<path d="M0,0 L3,1 L1,5 L-4,4 Z " fill="#121212" transform="translate(19,15)"/>
</svg>
