<?xml version="1.0" encoding="UTF-8"?>
<svg version="1.1" xmlns="http://www.w3.org/2000/svg" width="28" height="28">
<path d="M0,0 L28,0 L28,28 L0,28 Z " fill="#020202" transform="translate(0,0)"/>
<path d="M0,0 L2,0 L1,4 L-6,10 L0,12 L1,15 L-3,20 L-11,20 L-13,18 L-12,11 Z " fill="#CDCDCD" transform="translate(20,3)"/>
<path d="M0,0 L2,0 L1,4 L-7,10 L-8,14 L-11,15 L-9,19 L-13,18 L-12,11 Z " fill="#CBCBCB" transform="translate(20,3)"/>
<path d="M0,0 L5,0 L5,4 L0,5 L-3,4 L-3,2 Z " fill="#1E1E1E" transform="translate(12,16)"/>
<path d="M0,0 L2,3 L-2,5 L0,9 L-4,8 L-3,2 Z " fill="#F4F4F4" transform="translate(11,13)"/>
<path d="M0,0 L2,0 L1,4 L-4,7 L-3,3 Z " fill="#E4E4E4" transform="translate(20,3)"/>
</svg>
