<?xml version="1.0" encoding="UTF-8"?>
<svg version="1.1" xmlns="http://www.w3.org/2000/svg" width="28" height="28">
<path d="M0,0 L28,0 L28,28 L0,28 Z " fill="#040404" transform="translate(0,0)"/>
<path d="M0,0 L2,0 L0,4 L-7,11 L-4,10 L3,9 L5,10 L4,15 L3,17 L0,18 L-10,18 L-12,16 L-11,12 L-7,6 Z " fill="#E7E7E7" transform="translate(18,3)"/>
<path d="M0,0 L7,1 L6,6 L5,8 L0,9 L0,8 L-5,7 L-4,2 Z " fill="#DCDCDC" transform="translate(16,12)"/>
<path d="M0,0 L5,0 L4,4 L-5,5 L-5,3 Z " fill="#202020" transform="translate(16,14)"/>
</svg>
