<?xml version="1.0" encoding="UTF-8"?>
<svg version="1.1" xmlns="http://www.w3.org/2000/svg" width="28" height="28">
<path d="M0,0 L28,0 L28,28 L0,28 Z " fill="#040404" transform="translate(0,0)"/>
<path d="M0,0 L4,2 L3,5 L0,4 L-4,10 L-5,16 L-1,16 L-2,12 L4,7 L9,8 L9,13 L4,18 L-1,20 L-8,19 L-9,14 L-6,7 L-2,1 Z " fill="#DEDEDE" transform="translate(15,3)"/>
<path d="M0,0 L5,1 L3,6 L-2,10 L-6,8 L-5,4 Z " fill="#CECECE" transform="translate(19,10)"/>
<path d="M0,0 L1,3 L-4,8 L-9,10 L-12,10 L-12,8 L-5,5 Z " fill="#EEEEEE" transform="translate(23,13)"/>
<path d="M0,0 L4,0 L3,4 L-2,6 L-3,3 Z " fill="#181818" transform="translate(18,13)"/>
</svg>
