<?xml version="1.0" encoding="UTF-8"?>
<svg version="1.1" xmlns="http://www.w3.org/2000/svg" width="28" height="28">
<path d="M0,0 L28,0 L28,28 L0,28 Z " fill="#020202" transform="translate(0,0)"/>
<path d="M0,0 L2,0 L1,4 L-7,9 L-9,9 L-9,11 L-4,13 L-2,18 L-5,20 L-14,19 L-14,11 L-12,8 L-10,8 L-10,6 Z " fill="#E7E7E7" transform="translate(22,3)"/>
<path d="M0,0 L6,0 L8,5 L-1,5 Z " fill="#D8D8D8" transform="translate(11,15)"/>
<path d="M0,0 L1,3 L5,3 L5,5 L-1,5 Z " fill="#313131" transform="translate(11,15)"/>
</svg>
