<?xml version="1.0" encoding="UTF-8"?>
<svg version="1.1" xmlns="http://www.w3.org/2000/svg" width="28" height="28">
<path d="M0,0 L28,0 L28,28 L0,28 Z " fill="#020202" transform="translate(0,0)"/>
<path d="M0,0 L2,0 L4,12 L7,16 L8,9 L10,7 L14,8 L17,14 L15,19 L10,20 L3,17 L0,10 L-1,3 Z " fill="#B4B4B4" transform="translate(7,2)"/>
<path d="M0,0 L2,0 L4,12 L9,17 L14,18 L13,20 L6,19 L2,15 L0,10 L-1,3 Z " fill="#D5D5D5" transform="translate(7,2)"/>
<path d="M0,0 L3,2 L3,8 L-1,8 L-1,1 Z " fill="#080808" transform="translate(18,11)"/>
<path d="M0,0 L4,2 L7,4 L12,5 L11,7 L4,6 L0,2 Z " fill="#ECECEC" transform="translate(9,15)"/>
<path d="M0,0 L4,1 L5,6 L1,3 L-1,8 L-2,8 L-2,2 Z " fill="#E0E0E0" transform="translate(17,9)"/>
</svg>
