<?xml version="1.0" encoding="UTF-8"?>
<svg version="1.1" xmlns="http://www.w3.org/2000/svg" width="28" height="28">
<path d="M0,0 L28,0 L28,28 L0,28 Z " fill="#020202" transform="translate(0,0)"/>
<path d="M0,0 L0,3 L-2,10 L-2,17 L0,17 L0,13 L4,10 L8,11 L9,16 L5,20 L-1,20 L-4,18 L-5,15 L-5,6 Z " fill="#D3D3D3" transform="translate(14,2)"/>
<path d="M0,0 L0,3 L-2,10 L-3,17 L-5,15 L-5,6 Z " fill="#DADADA" transform="translate(14,2)"/>
<path d="M0,0 L4,0 L3,4 L-1,4 Z " fill="#1A1A1A" transform="translate(17,15)"/>
</svg>
