<?xml version="1.0" encoding="UTF-8"?>
<svg version="1.1" xmlns="http://www.w3.org/2000/svg" width="28" height="28">
<path d="M0,0 L28,0 L28,28 L0,28 Z " fill="#020202" transform="translate(0,0)"/>
<path d="M0,0 L2,0 L0,4 L-7,11 L-8,17 L-6,17 L-4,12 L1,8 L5,9 L4,15 L-2,20 L-8,20 L-11,17 L-10,10 Z " fill="#E0E0E0" transform="translate(18,2)"/>
<path d="M0,0 L2,0 L0,4 L-7,11 L-8,17 L-6,18 L-9,19 L-11,17 L-10,10 Z " fill="#D6D6D6" transform="translate(18,2)"/>
<path d="M0,0 L3,0 L2,5 L0,7 L-4,7 L-2,3 Z " fill="#1E1E1E" transform="translate(18,12)"/>
</svg>
