<?xml version="1.0" encoding="UTF-8"?>
<svg version="1.1" xmlns="http://www.w3.org/2000/svg" width="28" height="28">
<path d="M0,0 L28,0 L28,28 L0,28 Z " fill="#020202" transform="translate(0,0)"/>
<path d="M0,0 L2,0 L1,4 L-5,9 L0,11 L1,16 L-4,19 L-12,19 L-14,20 L-13,15 L-6,6 Z " fill="#DDDDDD" transform="translate(20,2)"/>
<path d="M0,0 L3,1 L4,6 L2,7 L-6,6 L-1,1 Z " fill="#D4D4D4" transform="translate(17,12)"/>
<path d="M0,0 L5,0 L0,5 L-3,5 L-2,1 Z " fill="#F6F6F6" transform="translate(12,12)"/>
<path d="M0,0 L2,2 L-1,4 L-6,4 L-3,1 Z " fill="#161616" transform="translate(17,14)"/>
</svg>
