<?xml version="1.0" encoding="UTF-8"?>
<svg version="1.1" xmlns="http://www.w3.org/2000/svg" width="28" height="28">
<path d="M0,0 L28,0 L28,28 L0,28 Z " fill="#030303" transform="translate(0,0)"/>
<path d="M0,0 L2,0 L0,4 L-9,12 L-7,12 L-4,12 L-5,18 L-6,20 L-13,20 L-16,17 L-10,9 L-2,1 Z " fill="#EFEFEF" transform="translate(22,2)"/>
<path d="M0,0 L2,0 L0,4 L-8,11 L-10,9 L-2,1 Z M-11,10 Z " fill="#E9E9E9" transform="translate(22,2)"/>
<path d="M0,0 L3,0 L2,6 L-4,6 L-4,4 L-2,4 L-2,1 Z " fill="#A5A5A5" transform="translate(15,14)"/>
</svg>
