<?xml version="1.0" encoding="UTF-8"?>
<svg version="1.1" xmlns="http://www.w3.org/2000/svg" width="28" height="28">
<path d="M0,0 L28,0 L28,28 L0,28 Z " fill="#010101" transform="translate(0,0)"/>
<path d="M0,0 L2,0 L1,4 L0,7 L7,8 L10,11 L9,16 L5,20 L-1,20 L-6,15 L-5,9 L-1,1 Z " fill="#EAEAEA" transform="translate(13,3)"/>
<path d="M0,0 L6,1 L6,6 L5,7 L-2,7 L-3,2 Z " fill="#0B0B0B" transform="translate(14,13)"/>
<path d="M0,0 L8,2 L11,5 L10,8 L8,8 L8,5 L3,4 L0,2 Z " fill="#C1C1C1" transform="translate(12,9)"/>
</svg>
