<?xml version="1.0" encoding="UTF-8"?>
<svg version="1.1" xmlns="http://www.w3.org/2000/svg" width="28" height="28">
<path d="M0,0 L28,0 L28,28 L0,28 Z " fill="#050505" transform="translate(0,0)"/>
<path d="M0,0 L2,0 L0,6 L-1,15 L1,15 L1,13 L7,9 L13,10 L14,15 L12,18 L1,20 L-2,18 L-2,15 L-4,15 L-4,9 Z " fill="#EFEFEF" transform="translate(11,2)"/>
<path d="M0,0 L6,1 L7,6 L6,3 L4,3 L3,7 L-4,8 L-3,2 Z " fill="#DADADA" transform="translate(18,11)"/>
<path d="M0,0 L2,0 L1,4 L-6,5 L-5,2 Z " fill="#222222" transform="translate(20,14)"/>
</svg>
