<?xml version="1.0" encoding="UTF-8"?>
<svg version="1.1" xmlns="http://www.w3.org/2000/svg" width="28" height="28">
<path d="M0,0 L28,0 L28,28 L0,28 Z " fill="#030303" transform="translate(0,0)"/>
<path d="M0,0 L2,0 L0,17 L5,17 L5,10 L9,5 L13,4 L15,6 L14,13 L10,18 L13,19 L10,20 L5,19 L0,20 L-3,17 L-3,8 Z " fill="#DADADA" transform="translate(9,3)"/>
<path d="M0,0 L4,2 L3,9 L-1,12 L-4,11 L-3,5 L-2,1 Z " fill="#CDCDCD" transform="translate(20,7)"/>
<path d="M0,0 L1,0 L1,6 L-4,8 L-4,3 Z " fill="#141414" transform="translate(21,9)"/>
</svg>
