<?xml version="1.0" encoding="UTF-8"?>
<svg version="1.1" xmlns="http://www.w3.org/2000/svg" width="28" height="28">
<path d="M0,0 L28,0 L28,28 L0,28 Z " fill="#030303" transform="translate(0,0)"/>
<path d="M0,0 L2,0 L0,4 L-1,5 L-1,13 L4,16 L7,12 L12,13 L11,18 L7,20 L-1,17 L-4,14 L-5,9 L-3,3 Z " fill="#DDDDDD" transform="translate(12,2)"/>
<path d="M0,0 L5,1 L4,5 L-2,4 Z " fill="#B7B7B7" transform="translate(19,14)"/>
<path d="M0,0 L1,2 L5,1 L3,5 L-2,3 Z " fill="#F0F0F0" transform="translate(18,17)"/>
</svg>
