<?xml version="1.0" encoding="UTF-8"?>
<svg version="1.1" xmlns="http://www.w3.org/2000/svg" width="28" height="28">
<path d="M0,0 L28,0 L28,28 L0,28 Z " fill="#030303" transform="translate(0,0)"/>
<path d="M0,0 L2,0 L2,12 L6,16 L8,11 L11,8 L15,9 L14,16 L9,20 L4,19 L0,15 L-1,13 L-1,1 Z " fill="#E9E9E9" transform="translate(9,2)"/>
<path d="M0,0 L4,1 L3,8 L-4,10 L-5,6 Z " fill="#DEDEDE" transform="translate(20,10)"/>
<path d="M0,0 L1,3 L-1,7 L-4,8 L-3,3 Z " fill="#262626" transform="translate(21,12)"/>
</svg>
