<?xml version="1.0" encoding="UTF-8"?>
<svg version="1.1" xmlns="http://www.w3.org/2000/svg" width="28" height="28">
<path d="M0,0 L28,0 L28,28 L0,28 Z " fill="#030303" transform="translate(0,0)"/>
<path d="M0,0 L2,0 L0,4 L-7,13 L-7,16 L-2,17 L-1,12 L2,10 L6,10 L7,16 L3,19 L0,20 L-7,20 L-10,18 L-10,12 L-3,3 Z " fill="#DCDCDC" transform="translate(16,2)"/>
<path d="M0,0 L4,0 L5,6 L3,7 L-4,5 L-2,1 Z " fill="#BEBEBE" transform="translate(18,12)"/>
<path d="M0,0 L1,2 L6,2 L6,4 L1,6 L-4,6 L-5,4 L-1,4 Z " fill="#F3F3F3" transform="translate(15,16)"/>
</svg>
