<?xml version="1.0" encoding="UTF-8"?>
<svg version="1.1" xmlns="http://www.w3.org/2000/svg" width="28" height="28">
<path d="M0,0 L28,0 L28,28 L0,28 Z " fill="#030303" transform="translate(0,0)"/>
<path d="M0,0 L2,0 L0,6 L-4,11 L-6,11 L-8,17 L-5,16 L-1,12 L4,12 L3,18 L0,20 L-8,20 L-10,18 L-10,13 L-2,4 Z " fill="#D9D9D9" transform="translate(17,1)"/>
<path d="M0,0 L5,0 L4,6 L2,7 L-2,5 L-3,2 Z " fill="#B0B0B0" transform="translate(16,13)"/>
<path d="M0,0 L5,4 L4,5 L-3,5 L-3,3 L0,3 Z " fill="#F6F6F6" transform="translate(13,16)"/>
<path d="M0,0 L2,0 L0,6 L-3,8 L-3,5 Z " fill="#C2C2C2" transform="translate(17,1)"/>
</svg>
