<?xml version="1.0" encoding="UTF-8"?>
<svg version="1.1" xmlns="http://www.w3.org/2000/svg" width="28" height="28">
<path d="M0,0 L28,0 L28,28 L0,28 Z " fill="#030303" transform="translate(0,0)"/>
<path d="M0,0 L2,0 L2,18 L4,18 L4,12 L7,8 L10,9 L11,11 L11,18 L7,20 L2,20 L-1,17 Z " fill="#E3E3E3" transform="translate(10,2)"/>
<path d="M0,0 L1,0 L1,7 L-2,7 L-2,2 Z " fill="#0B0B0B" transform="translate(18,12)"/>
<path d="M0,0 L3,1 L4,5 L2,8 L1,3 L-2,2 Z " fill="#C7C7C7" transform="translate(17,10)"/>
</svg>
