<?xml version="1.0" encoding="UTF-8"?>
<svg version="1.1" xmlns="http://www.w3.org/2000/svg" width="28" height="28">
<path d="M0,0 L28,0 L28,28 L0,28 Z " fill="#020202" transform="translate(0,0)"/>
<path d="M0,0 L2,0 L1,8 L-1,17 L3,17 L4,11 L7,8 L11,8 L12,15 L7,19 L1,20 L-4,17 L-4,9 Z " fill="#DBDBDB" transform="translate(11,2)"/>
<path d="M0,0 L2,0 L1,8 L-1,17 L2,18 L-2,19 L-4,17 L-4,9 Z " fill="#D0D0D0" transform="translate(11,2)"/>
<path d="M0,0 L1,0 L1,8 L4,9 L0,10 L-1,9 L-1,1 Z " fill="#F0F0F0" transform="translate(9,11)"/>
<path d="M0,0 L2,0 L1,5 L-2,6 L-1,1 Z " fill="#252525" transform="translate(19,12)"/>
</svg>
