<?xml version="1.0" encoding="UTF-8"?>
<svg version="1.1" xmlns="http://www.w3.org/2000/svg" width="28" height="28">
<path d="M0,0 L28,0 L28,28 L0,28 Z " fill="#020202" transform="translate(0,0)"/>
<path d="M0,0 L2,0 L0,9 L-1,11 L5,10 L6,11 L6,17 L4,16 L4,12 L1,14 L1,17 L3,19 L-3,20 L-4,19 L-4,7 Z " fill="#F5F5F5" transform="translate(14,2)"/>
<path d="M0,0 L2,0 L0,9 L-2,8 L-4,11 L-3,6 Z " fill="#D2D2D2" transform="translate(14,2)"/>
<path d="M0,0 L2,0 L3,6 L1,7 L-2,5 L-1,1 Z " fill="#747474" transform="translate(16,14)"/>
</svg>
