<?xml version="1.0" encoding="UTF-8"?>
<svg version="1.1" xmlns="http://www.w3.org/2000/svg" width="28" height="28">
<path d="M0,0 L28,0 L28,28 L0,28 Z " fill="#030303" transform="translate(0,0)"/>
<path d="M0,0 L2,1 L0,5 L-2,8 L-3,16 L-1,16 L0,12 L5,8 L9,9 L9,15 L5,19 L-1,20 L-4,19 L-6,16 L-6,7 Z " fill="#D2D2D2" transform="translate(14,2)"/>
<path d="M0,0 L4,1 L4,7 L2,9 L-3,9 L-6,7 L-4,3 Z " fill="#E9E9E9" transform="translate(19,10)"/>
<path d="M0,0 L2,2 L6,4 L2,6 L-2,5 L-3,3 L-1,3 Z " fill="#F8F8F8" transform="translate(14,16)"/>
<path d="M0,0 L2,0 L2,4 L0,4 L0,6 L-3,6 L-2,1 Z " fill="#1C1C1C" transform="translate(19,13)"/>
</svg>
