<?xml version="1.0" encoding="UTF-8"?>
<svg version="1.1" xmlns="http://www.w3.org/2000/svg" width="28" height="28">
<path d="M0,0 L28,0 L28,28 L0,28 Z " fill="#010101" transform="translate(0,0)"/>
<path d="M0,0 L3,1 L1,5 L-2,8 L-2,10 L3,13 L2,18 L-1,20 L-6,19 L-8,14 L-5,6 Z " fill="#DFDFDF" transform="translate(17,3)"/>
<path d="M0,0 L4,1 L3,6 L0,8 L-5,7 L-7,2 L-4,1 L-4,5 L1,5 Z " fill="#E6E6E6" transform="translate(16,15)"/>
<path d="M0,0 L3,1 L1,5 L-4,6 L-2,2 Z " fill="#C9C9C9" transform="translate(17,3)"/>
<path d="M0,0 L4,1 L4,4 L-1,4 Z " fill="#1E1E1E" transform="translate(13,16)"/>
</svg>
