<?xml version="1.0" encoding="UTF-8"?>
<svg version="1.1" xmlns="http://www.w3.org/2000/svg" width="28" height="28">
<path d="M0,0 L28,0 L28,28 L0,28 Z " fill="#010101" transform="translate(0,0)"/>
<path d="M0,0 L1,2 L-2,11 L-2,16 L3,8 L7,9 L7,16 L4,19 L-2,20 L-5,16 L-5,9 L-2,2 Z " fill="#C7C7C7" transform="translate(14,2)"/>
<path d="M0,0 L4,1 L4,7 L1,4 L-2,9 L-4,9 L-2,4 Z " fill="#D9D9D9" transform="translate(17,10)"/>
<path d="M0,0 L1,2 L-3,13 L-5,13 L-4,5 Z " fill="#C6C6C6" transform="translate(14,2)"/>
<path d="M0,0 L1,0 L1,6 L-3,6 L-1,1 Z " fill="#151515" transform="translate(18,13)"/>
</svg>
