<?xml version="1.0" encoding="UTF-8"?>
<svg version="1.1" xmlns="http://www.w3.org/2000/svg" width="28" height="28">
<path d="M0,0 L28,0 L28,28 L0,28 Z " fill="#010101" transform="translate(0,0)"/>
<path d="M0,0 L2,0 L-1,11 L-2,18 L4,10 L9,11 L8,17 L6,20 L-4,20 L-5,14 L-1,1 Z " fill="#C2C2C2" transform="translate(13,2)"/>
<path d="M0,0 L3,0 L2,5 L-3,6 L-1,1 Z " fill="#101010" transform="translate(17,15)"/>
<path d="M0,0 L5,1 L4,7 L1,10 L3,3 L1,2 Z " fill="#A5A5A5" transform="translate(17,12)"/>
<path d="M0,0 L2,1 L-3,8 L1,9 L-4,9 L-4,4 Z " fill="#E5E5E5" transform="translate(17,13)"/>
</svg>
