<?xml version="1.0" encoding="UTF-8"?>
<svg version="1.1" xmlns="http://www.w3.org/2000/svg" width="28" height="28">
<path d="M0,0 L28,0 L28,28 L0,28 Z " fill="#020202" transform="translate(0,0)"/>
<path d="M0,0 L1,4 L-2,10 L-3,17 L5,10 L8,8 L11,8 L11,14 L6,18 L-2,20 L-6,17 L-6,11 Z " fill="#D9D9D9" transform="translate(13,2)"/>
<path d="M0,0 L3,0 L3,6 L-2,10 L-6,9 L-6,7 L-4,7 L-3,2 Z " fill="#C5C5C5" transform="translate(21,10)"/>
<path d="M0,0 L2,1 L1,3 L-1,3 L-1,5 L2,6 L-5,8 L-5,5 Z " fill="#E3E3E3" transform="translate(16,14)"/>
<path d="M0,0 L3,1 L4,7 L0,6 Z " fill="#B6B6B6" transform="translate(7,13)"/>
<path d="M0,0 L2,0 L1,4 L-4,5 L-3,2 Z " fill="#151515" transform="translate(20,13)"/>
</svg>
