<?xml version="1.0" encoding="UTF-8"?>
<svg version="1.1" xmlns="http://www.w3.org/2000/svg" width="28" height="28">
<path d="M0,0 L28,0 L28,28 L0,28 Z " fill="#030303" transform="translate(0,0)"/>
<path d="M0,0 L4,1 L8,4 L8,6 L-1,5 L-2,9 L8,14 L10,16 L9,20 L2,20 L-4,16 L-4,14 L-6,14 L-6,16 L-8,16 L-7,12 L-5,12 L-5,6 Z " fill="#C4C4C4" transform="translate(14,4)"/>
<path d="M0,0 L4,1 L8,4 L8,6 L-1,5 L-2,9 L2,11 L-2,13 L-4,15 L-6,14 L-6,16 L-8,16 L-7,12 L-5,12 L-5,6 Z " fill="#DDDDDD" transform="translate(14,4)"/>
<path d="M0,0 L5,1 L10,4 L10,6 L3,6 L0,3 Z " fill="#141414" transform="translate(12,16)"/>
</svg>
