<?xml version="1.0" encoding="UTF-8"?>
<svg version="1.1" xmlns="http://www.w3.org/2000/svg" width="28" height="28">
<path d="M0,0 L28,0 L28,28 L0,28 Z " fill="#040404" transform="translate(0,0)"/>
<path d="M0,0 L7,1 L7,3 L2,3 L-1,5 L-1,11 L2,9 L11,9 L15,11 L14,15 L8,18 L0,17 L-5,12 L-5,6 Z " fill="#DFDFDF" transform="translate(11,4)"/>
<path d="M0,0 L8,0 L7,3 L5,4 L-3,4 L-2,1 Z " fill="#080808" transform="translate(15,15)"/>
<path d="M0,0 L8,0 L9,4 L6,6 L3,4 L6,1 L0,1 Z " fill="#C7C7C7" transform="translate(17,14)"/>
</svg>
