<?xml version="1.0" encoding="UTF-8"?>
<svg version="1.1" xmlns="http://www.w3.org/2000/svg" width="28" height="28">
<path d="M0,0 L28,0 L28,28 L0,28 Z " fill="#020202" transform="translate(0,0)"/>
<path d="M0,0 L3,0 L2,4 L-3,6 L-6,11 L-5,12 L-3,9 L3,11 L4,16 L-2,20 L-7,19 L-10,14 L-9,7 L-7,7 L-5,3 L-3,3 L-3,1 Z " fill="#E9E9E9" transform="translate(18,3)"/>
<path d="M0,0 L7,2 L8,7 L6,6 L1,7 L1,9 L-3,7 Z " fill="#AFAFAF" transform="translate(14,12)"/>
<path d="M0,0 L2,1 L-1,5 L-4,11 L-5,7 L-2,2 Z " fill="#272727" transform="translate(16,7)"/>
</svg>
