<?xml version="1.0" encoding="UTF-8"?>
<svg version="1.1" xmlns="http://www.w3.org/2000/svg" width="28" height="28">
<path d="M0,0 L28,0 L28,28 L0,28 Z " fill="#020202" transform="translate(0,0)"/>
<path d="M0,0 L5,1 L1,2 L1,12 L9,12 L12,14 L11,19 L4,20 L-1,14 L-2,11 L-2,3 Z " fill="#DDDDDD" transform="translate(11,3)"/>
<path d="M0,0 L6,0 L9,2 L8,7 L1,8 L1,6 L6,6 L6,2 L0,2 Z " fill="#E7E7E7" transform="translate(14,15)"/>
<path d="M0,0 L5,1 L1,2 L0,12 L-2,11 L-2,3 Z " fill="#EAEAEA" transform="translate(11,3)"/>
<path d="M0,0 L6,0 L6,4 L1,3 Z " fill="#292929" transform="translate(14,17)"/>
</svg>
