<?xml version="1.0" encoding="UTF-8"?>
<svg version="1.1" xmlns="http://www.w3.org/2000/svg" width="28" height="28">
<path d="M0,0 L28,0 L28,28 L0,28 Z " fill="#040404" transform="translate(0,0)"/>
<path d="M0,0 L1,4 L-1,10 L0,14 L3,9 L9,8 L10,9 L10,15 L6,20 L-1,19 L-4,16 L-5,9 L-1,1 Z " fill="#E0E0E0" transform="translate(12,2)"/>
<path d="M0,0 L1,4 L-2,16 L-4,16 L-5,9 L-1,1 Z " fill="#EBEBEB" transform="translate(12,2)"/>
<path d="M0,0 L5,1 L5,7 L2,11 L-1,10 L2,6 L3,2 L0,3 Z " fill="#F2F2F2" transform="translate(17,10)"/>
<path d="M0,0 L2,0 L1,6 L-3,7 L-2,3 Z " fill="#1A1A1A" transform="translate(18,12)"/>
</svg>
