<?xml version="1.0" encoding="UTF-8"?>
<svg version="1.1" xmlns="http://www.w3.org/2000/svg" width="28" height="28">
<path d="M0,0 L28,0 L28,28 L0,28 Z " fill="#020202" transform="translate(0,0)"/>
<path d="M0,0 L2,0 L-1,9 L-2,15 L5,11 L10,12 L11,17 L7,20 L-1,20 L-5,17 L-5,10 Z " fill="#E9E9E9" transform="translate(13,2)"/>
<path d="M0,0 L4,0 L5,4 L1,7 L-7,7 L-5,6 L-4,2 Z " fill="#D4D4D4" transform="translate(19,15)"/>
<path d="M0,0 L2,0 L-1,9 L-3,11 L-4,17 L-5,17 L-5,10 Z " fill="#CBCBCB" transform="translate(13,2)"/>
<path d="M0,0 L3,1 L2,4 L-5,5 L-3,1 Z " fill="#202020" transform="translate(19,15)"/>
</svg>
