<?xml version="1.0" encoding="UTF-8"?>
<svg version="1.1" xmlns="http://www.w3.org/2000/svg" width="28" height="28">
<path d="M0,0 L28,0 L28,28 L0,28 Z " fill="#020202" transform="translate(0,0)"/>
<path d="M0,0 L2,0 L1,3 L-3,7 L-4,14 L5,13 L5,18 L2,20 L-3,20 L-7,14 L-6,5 Z " fill="#D5D5D5" transform="translate(16,2)"/>
<path d="M0,0 L5,0 L5,5 L2,7 L-3,7 L-1,3 L-3,1 Z " fill="#CBCBCB" transform="translate(16,15)"/>
<path d="M0,0 L3,4 L6,6 L6,9 L1,8 L0,6 Z " fill="#F5F5F5" transform="translate(10,12)"/>
</svg>
