<?xml version="1.0" encoding="UTF-8"?>
<svg version="1.1" xmlns="http://www.w3.org/2000/svg" width="28" height="28">
<path d="M0,0 L28,0 L28,28 L0,28 Z " fill="#020202" transform="translate(0,0)"/>
<path d="M0,0 L2,0 L2,3 L0,3 L-2,8 L-3,9 L-3,14 L1,11 L7,11 L9,13 L8,18 L6,20 L-4,20 L-7,16 L-6,9 L-2,1 Z " fill="#E2E2E2" transform="translate(15,2)"/>
<path d="M0,0 L6,0 L8,4 L6,4 L5,7 L-2,7 L-4,3 Z " fill="#C8C8C8" transform="translate(16,13)"/>
<path d="M0,0 L5,0 L4,4 L-3,4 L-3,1 Z " fill="#212121" transform="translate(17,16)"/>
</svg>
