<?xml version="1.0" encoding="UTF-8"?>
<svg version="1.1" xmlns="http://www.w3.org/2000/svg" width="28" height="28">
<path d="M0,0 L28,0 L28,28 L0,28 Z " fill="#010101" transform="translate(0,0)"/>
<path d="M0,0 L2,0 L1,4 L-3,10 L-2,11 L4,10 L8,13 L8,18 L6,20 L-3,20 L-7,18 L-8,12 L-4,4 Z " fill="#DEDEDE" transform="translate(15,2)"/>
<path d="M0,0 L2,0 L1,4 L-3,8 L-6,9 L-4,4 Z " fill="#D4D4D4" transform="translate(15,2)"/>
<path d="M0,0 L7,0 L6,3 L-2,3 Z " fill="#050505" transform="translate(14,16)"/>
<path d="M0,0 L2,0 L1,4 L-2,4 L-2,2 L-6,1 Z " fill="#C3C3C3" transform="translate(20,18)"/>
</svg>
