<?xml version="1.0" encoding="UTF-8"?>
<svg version="1.1" xmlns="http://www.w3.org/2000/svg" width="28" height="28">
<path d="M0,0 L28,0 L28,28 L0,28 Z " fill="#020202" transform="translate(0,0)"/>
<path d="M0,0 L1,3 L-3,10 L7,11 L6,17 L2,20 L-5,20 L-7,18 L-7,11 L-1,1 Z " fill="#EEEEEE" transform="translate(16,2)"/>
<path d="M0,0 L9,0 L8,3 L4,5 L0,4 Z " fill="#151515" transform="translate(12,15)"/>
<path d="M0,0 L1,3 L-3,11 L-5,16 L-7,14 L-6,10 L-3,4 Z " fill="#CFCFCF" transform="translate(16,2)"/>
<path d="M0,0 L1,3 L-3,6 L-6,5 L-3,2 Z " fill="#D3D3D3" transform="translate(21,16)"/>
</svg>
