<?xml version="1.0" encoding="UTF-8"?>
<svg version="1.1" xmlns="http://www.w3.org/2000/svg" width="28" height="28">
<path d="M0,0 L28,0 L28,28 L0,28 Z " fill="#020202" transform="translate(0,0)"/>
<path d="M0,0 L2,1 L2,11 L7,10 L8,12 L4,13 L5,15 L2,15 L2,17 L8,17 L9,13 L9,18 L6,20 L1,19 L-2,14 L-2,3 Z " fill="#D6D6D6" transform="translate(12,2)"/>
<path d="M0,0 L2,1 L2,6 L-6,6 L-4,1 Z " fill="#626262" transform="translate(20,13)"/>
<path d="M0,0 L1,0 L1,5 L-2,7 L-7,6 L-8,3 L0,4 Z " fill="#E4E4E4" transform="translate(20,15)"/>
</svg>
