<?xml version="1.0" encoding="UTF-8"?>
<svg version="1.1" xmlns="http://www.w3.org/2000/svg" width="28" height="28">
<path d="M0,0 L28,0 L28,28 L0,28 Z " fill="#010101" transform="translate(0,0)"/>
<path d="M0,0 L3,0 L1,4 L-2,9 L-3,13 L3,12 L4,17 L0,20 L-4,20 L-6,17 L-5,7 L-1,1 Z " fill="#D3D3D3" transform="translate(16,3)"/>
<path d="M0,0 L5,1 L4,6 L1,8 L-3,7 L-2,4 L1,2 Z " fill="#A7A7A7" transform="translate(15,15)"/>
<path d="M0,0 L1,2 L6,1 L4,4 L2,4 L3,7 L0,6 Z " fill="#F7F7F7" transform="translate(11,15)"/>
</svg>
