<?xml version="1.0" encoding="UTF-8"?>
<svg version="1.1" xmlns="http://www.w3.org/2000/svg" width="28" height="28">
<path d="M0,0 L28,0 L28,28 L0,28 Z " fill="#020202" transform="translate(0,0)"/>
<path d="M0,0 L2,0 L1,4 L-1,8 L3,12 L2,18 L-1,20 L-8,20 L-10,18 L-9,11 L-3,3 Z " fill="#EAEAEA" transform="translate(18,3)"/>
<path d="M0,0 L4,2 L5,6 L3,8 L-2,7 Z " fill="#141414" transform="translate(13,13)"/>
<path d="M0,0 L1,2 L3,2 L3,6 L6,8 L0,8 L-1,3 Z " fill="#D5D5D5" transform="translate(9,14)"/>
</svg>
