<?xml version="1.0" encoding="UTF-8"?>
<svg version="1.1" xmlns="http://www.w3.org/2000/svg" width="28" height="28">
<path d="M0,0 L28,0 L28,28 L0,28 Z " fill="#030303" transform="translate(0,0)"/>
<path d="M0,0 L2,1 L-5,9 L-7,14 L-2,11 L2,13 L1,18 L-3,20 L-10,20 L-10,12 L-3,2 Z " fill="#D9D9D9" transform="translate(19,2)"/>
<path d="M0,0 L2,1 L-5,9 L-8,12 L-8,9 L-2,1 Z " fill="#D5D5D5" transform="translate(19,2)"/>
<path d="M0,0 L4,0 L2,4 L-3,4 L-3,2 Z " fill="#0F0F0F" transform="translate(15,16)"/>
</svg>
