<?xml version="1.0" encoding="UTF-8"?>
<svg version="1.1" xmlns="http://www.w3.org/2000/svg" width="28" height="28">
<path d="M0,0 L28,0 L28,28 L0,28 Z " fill="#020202" transform="translate(0,0)"/>
<path d="M0,0 L2,0 L2,9 L5,6 L9,7 L9,15 L5,20 L1,19 L-2,9 Z " fill="#D1D1D1" transform="translate(11,4)"/>
<path d="M0,0 L2,0 L2,11 L4,10 L4,16 L0,15 L-2,6 Z " fill="#E1E1E1" transform="translate(11,4)"/>
<path d="M0,0 L2,0 L1,7 L-1,10 L-4,9 L-2,2 Z " fill="#272727" transform="translate(17,12)"/>
</svg>
