<?xml version="1.0" encoding="UTF-8"?>
<svg version="1.1" xmlns="http://www.w3.org/2000/svg" width="28" height="28">
<path d="M0,0 L28,0 L28,28 L0,28 Z " fill="#030303" transform="translate(0,0)"/>
<path d="M0,0 L2,1 L-2,6 L-5,15 L2,12 L7,13 L6,18 L1,20 L-5,20 L-7,18 L-7,11 L-3,2 Z " fill="#E4E4E4" transform="translate(16,2)"/>
<path d="M0,0 L3,0 L2,3 L0,4 L-7,4 L-7,2 Z " fill="#141414" transform="translate(18,16)"/>
<path d="M0,0 L5,1 L4,6 L0,7 L0,5 L3,2 L-2,3 L-3,1 Z " fill="#C0C0C0" transform="translate(18,14)"/>
</svg>
