<?xml version="1.0" encoding="UTF-8"?>
<svg version="1.1" xmlns="http://www.w3.org/2000/svg" width="28" height="28">
<path d="M0,0 L28,0 L28,28 L0,28 Z " fill="#010101" transform="translate(0,0)"/>
<path d="M0,0 L2,0 L2,3 L-1,4 L-2,8 L1,9 L2,15 L1,17 L-1,17 L-1,12 L-6,12 L-7,9 L-4,3 Z " fill="#DDDDDD" transform="translate(17,4)"/>
<path d="M0,0 L7,1 L8,3 L8,8 L5,10 L1,9 L0,8 Z " fill="#BABABA" transform="translate(9,14)"/>
<path d="M0,0 L5,1 L3,6 L0,7 Z " fill="#060606" transform="translate(12,15)"/>
</svg>
