<?xml version="1.0" encoding="UTF-8"?>
<svg version="1.1" xmlns="http://www.w3.org/2000/svg" width="28" height="28">
<path d="M0,0 L28,0 L28,28 L0,28 Z " fill="#030303" transform="translate(0,0)"/>
<path d="M0,0 L2,0 L1,17 L2,17 L3,10 L7,6 L10,6 L10,14 L5,19 L0,20 L-2,19 L-3,16 L-3,9 Z " fill="#ECECEC" transform="translate(12,3)"/>
<path d="M0,0 L2,0 L1,9 L-1,19 L-3,16 L-3,9 Z " fill="#DDDDDD" transform="translate(12,3)"/>
<path d="M0,0 L4,0 L3,5 L1,8 L-1,8 L-3,4 Z " fill="#878787" transform="translate(17,11)"/>
</svg>
