<?xml version="1.0" encoding="UTF-8"?>
<svg version="1.1" xmlns="http://www.w3.org/2000/svg" width="28" height="28">
<path d="M0,0 L28,0 L28,28 L0,28 Z " fill="#050505" transform="translate(0,0)"/>
<path d="M0,0 L4,1 L0,5 L0,13 L2,17 L5,18 L5,10 L10,5 L15,6 L16,7 L15,14 L10,19 L8,20 L1,19 L-2,15 L-2,3 Z " fill="#B5B5B5" transform="translate(9,3)"/>
<path d="M0,0 L4,0 L4,6 L0,10 L-3,10 L-3,3 Z " fill="#070707" transform="translate(19,10)"/>
<path d="M0,0 L4,1 L0,5 L0,13 L2,17 L5,18 L5,12 L6,12 L7,19 L1,19 L-2,15 L-2,3 Z " fill="#E7E7E7" transform="translate(9,3)"/>
</svg>
