<?xml version="1.0" encoding="UTF-8"?>
<svg version="1.1" xmlns="http://www.w3.org/2000/svg" width="28" height="28">
<path d="M0,0 L28,0 L28,28 L0,28 Z " fill="#030303" transform="translate(0,0)"/>
<path d="M0,0 L2,0 L1,7 L0,8 L0,13 L1,11 L3,11 L4,8 L9,9 L8,16 L2,20 L-2,19 L-4,16 L-4,10 Z " fill="#ECECEC" transform="translate(13,2)"/>
<path d="M0,0 L4,1 L2,6 L-1,7 L-3,7 L-5,9 L-6,5 L-4,5 L-3,3 L-1,3 Z " fill="#9F9F9F" transform="translate(17,10)"/>
<path d="M0,0 L2,0 L1,7 L-1,11 L-4,12 L-1,1 Z " fill="#D8D8D8" transform="translate(13,2)"/>
</svg>
