<?xml version="1.0" encoding="UTF-8"?>
<svg version="1.1" xmlns="http://www.w3.org/2000/svg" width="28" height="28">
<path d="M0,0 L28,0 L28,28 L0,28 Z " fill="#020202" transform="translate(0,0)"/>
<path d="M0,0 L2,0 L1,12 L4,8 L9,8 L8,15 L3,20 L-1,19 L-3,17 L-3,10 Z " fill="#F0F0F0" transform="translate(12,2)"/>
<path d="M0,0 L5,0 L4,7 L1,9 L-2,8 L-1,4 L-1,1 Z " fill="#A2A2A2" transform="translate(16,10)"/>
<path d="M0,0 L2,0 L1,8 L-3,13 L-2,5 Z " fill="#D3D3D3" transform="translate(12,2)"/>
</svg>
