<?xml version="1.0" encoding="UTF-8"?>
<svg version="1.1" xmlns="http://www.w3.org/2000/svg" width="28" height="28">
<path d="M0,0 L28,0 L28,28 L0,28 Z " fill="#020202" transform="translate(0,0)"/>
<path d="M0,0 L3,0 L3,2 L1,2 L0,7 L-3,12 L7,11 L8,13 L3,18 L0,20 L-6,19 L-7,18 L-7,11 L-6,8 L-4,8 L-2,3 Z " fill="#D7D7D7" transform="translate(16,3)"/>
<path d="M0,0 L3,0 L3,2 L1,2 L0,7 L-3,9 L-3,5 Z M-6,8 L-4,9 L-6,10 Z " fill="#D4D4D4" transform="translate(16,3)"/>
<path d="M0,0 L5,0 L1,4 L-4,4 L-3,1 Z " fill="#1A1A1A" transform="translate(16,16)"/>
</svg>
