<?xml version="1.0" encoding="UTF-8"?>
<svg version="1.1" xmlns="http://www.w3.org/2000/svg" width="28" height="28">
<path d="M0,0 L28,0 L28,28 L0,28 Z " fill="#020202" transform="translate(0,0)"/>
<path d="M0,0 L2,0 L1,4 L-4,9 L-6,13 L-2,9 L3,9 L4,10 L3,17 L-1,20 L-7,20 L-10,18 L-10,11 L-1,1 Z " fill="#E2E2E2" transform="translate(17,2)"/>
<path d="M0,0 Z M-2,1 L0,2 L-2,6 L-4,6 L-6,12 L-7,12 L-7,7 Z " fill="#262626" transform="translate(17,6)"/>
<path d="M0,0 L3,1 L3,6 L1,5 L1,3 L-3,2 Z " fill="#F5F5F5" transform="translate(18,11)"/>
<path d="M0,0 L4,0 L2,4 L-2,3 Z " fill="#232323" transform="translate(15,14)"/>
</svg>
