<?xml version="1.0" encoding="UTF-8"?>
<svg version="1.1" xmlns="http://www.w3.org/2000/svg" width="28" height="28">
<path d="M0,0 L28,0 L28,28 L0,28 Z " fill="#020202" transform="translate(0,0)"/>
<path d="M0,0 L4,2 L3,5 L1,3 L-3,9 L-3,16 L-1,16 L-1,11 L6,10 L8,12 L7,18 L3,20 L-3,20 L-6,16 L-6,9 Z " fill="#D6D6D6" transform="translate(14,3)"/>
<path d="M0,0 L4,2 L3,5 L1,3 L-4,10 L-5,7 Z " fill="#D9D9D9" transform="translate(14,3)"/>
<path d="M0,0 L2,1 L3,7 L8,8 L8,9 L2,10 L0,7 Z " fill="#B5B5B5" transform="translate(8,12)"/>
<path d="M0,0 L5,0 L4,5 L0,4 Z " fill="#181818" transform="translate(15,15)"/>
</svg>
