<?xml version="1.0" encoding="UTF-8"?>
<svg version="1.1" xmlns="http://www.w3.org/2000/svg" width="28" height="28">
<path d="M0,0 L28,0 L28,28 L0,28 Z " fill="#030303" transform="translate(0,0)"/>
<path d="M0,0 L3,1 L0,6 L-5,11 L-9,17 L-5,17 L-5,14 L0,14 L2,11 L-1,10 L3,8 L6,10 L5,14 L3,14 L2,18 L-4,20 L-10,20 L-11,19 L-11,13 L-7,7 L-2,2 Z " fill="#DDDDDD" transform="translate(17,3)"/>
<path d="M0,0 L4,1 L6,2 L4,6 L-1,5 L-1,8 L-5,8 L-3,3 Z " fill="#8D8D8D" transform="translate(13,12)"/>
<path d="M0,0 L0,3 L-4,8 L-4,10 L-2,11 L-2,13 L-7,12 L-7,6 Z " fill="#F3F3F3" transform="translate(13,10)"/>
<path d="M0,0 L2,1 L-1,8 L-5,8 L-3,3 Z " fill="#242424" transform="translate(13,12)"/>
</svg>
