<?xml version="1.0" encoding="UTF-8"?>
<svg version="1.1" xmlns="http://www.w3.org/2000/svg" width="28" height="28">
<path d="M0,0 L28,0 L28,28 L0,28 Z " fill="#030303" transform="translate(0,0)"/>
<path d="M0,0 L4,1 L4,3 L-2,5 L-5,8 L-6,11 L4,10 L4,15 L-1,19 L-7,20 L-10,18 L-10,11 L-5,3 Z " fill="#E5E5E5" transform="translate(18,3)"/>
<path d="M0,0 L4,1 L4,3 L-2,5 L-5,8 L-5,12 L-9,11 L-7,6 L-2,1 Z " fill="#CDCDCD" transform="translate(18,3)"/>
<path d="M0,0 L4,1 L0,5 L-5,4 L-3,1 Z " fill="#1D1D1D" transform="translate(16,15)"/>
</svg>
