<?xml version="1.0" encoding="UTF-8"?>
<svg version="1.1" xmlns="http://www.w3.org/2000/svg" width="28" height="28">
<path d="M0,0 L28,0 L28,28 L0,28 Z " fill="#020202" transform="translate(0,0)"/>
<path d="M0,0 L2,0 L1,4 L-3,9 L-9,14 L-10,17 L-4,16 L-4,12 L-1,13 L-2,15 L4,13 L4,11 L0,10 L1,9 L6,9 L5,14 L-1,20 L-11,20 L-13,19 L-12,13 L-4,5 L-2,5 Z " fill="#E3E3E3" transform="translate(18,2)"/>
<path d="M0,0 L2,0 L1,4 L-4,9 L-6,7 L-2,5 Z " fill="#C8C8C8" transform="translate(18,2)"/>
<path d="M0,0 L5,2 L5,4 L2,6 L-1,6 L-2,2 Z " fill="#6A6A6A" transform="translate(17,11)"/>
</svg>
