<?xml version="1.0" encoding="UTF-8"?>
<svg version="1.1" xmlns="http://www.w3.org/2000/svg" width="28" height="28">
<path d="M0,0 L28,0 L28,28 L0,28 Z " fill="#030303" transform="translate(0,0)"/>
<path d="M0,0 L4,0 L5,4 L3,4 L3,2 L-1,5 L-3,12 L1,10 L5,11 L6,16 L5,19 L-3,20 L-5,17 L-5,9 L-1,1 Z " fill="#BFBFBF" transform="translate(15,3)"/>
<path d="M0,0 L5,0 L4,7 L-4,8 L-5,4 L0,2 Z " fill="#C5C5C5" transform="translate(16,15)"/>
<path d="M0,0 L4,1 L3,3 L0,2 L0,4 L-4,7 L-6,7 L-6,1 L-5,3 Z " fill="#E5E5E5" transform="translate(16,13)"/>
<path d="M0,0 L3,0 L2,5 L-3,5 L-2,2 L0,2 Z " fill="#121212" transform="translate(16,15)"/>
</svg>
