<?xml version="1.0" encoding="UTF-8"?>
<svg version="1.1" xmlns="http://www.w3.org/2000/svg" width="28" height="28">
<path d="M0,0 L28,0 L28,28 L0,28 Z " fill="#020202" transform="translate(0,0)"/>
<path d="M0,0 L2,0 L1,5 L0,8 L5,9 L4,16 L2,16 L2,18 L-1,20 L-6,19 L-7,14 Z " fill="#F0F0F0" transform="translate(15,3)"/>
<path d="M0,0 L2,0 L3,5 L1,5 L1,7 L-2,9 L-7,8 L-8,3 L-2,1 Z " fill="#AFAFAF" transform="translate(16,14)"/>
<path d="M0,0 L2,0 L1,5 L-1,7 L-3,7 L-1,1 Z " fill="#D6D6D6" transform="translate(15,3)"/>
</svg>
