<?xml version="1.0" encoding="UTF-8"?>
<svg version="1.1" xmlns="http://www.w3.org/2000/svg" width="28" height="28">
<path d="M0,0 L28,0 L28,28 L0,28 Z " fill="#060606" transform="translate(0,0)"/>
<path d="M0,0 L0,3 L-6,11 L-8,17 L1,16 L1,14 L4,11 L-2,13 L-3,15 L-2,11 L3,8 L5,8 L5,14 L-2,20 L-9,19 L-10,14 L-7,7 Z " fill="#ECECEC" transform="translate(18,3)"/>
<path d="M0,0 L0,3 L-6,11 L-8,13 L-9,10 L-2,2 Z " fill="#B7B7B7" transform="translate(18,3)"/>
<path d="M0,0 L3,0 L2,3 L0,3 L0,5 L-6,6 L-4,2 Z " fill="#333333" transform="translate(19,14)"/>
<path d="M0,0 L2,0 L2,6 L-2,7 L1,3 L-5,5 L-6,7 L-5,3 Z " fill="#D5D5D5" transform="translate(21,11)"/>
</svg>
