<?xml version="1.0" encoding="UTF-8"?>
<svg version="1.1" xmlns="http://www.w3.org/2000/svg" width="28" height="28">
<path d="M0,0 L28,0 L28,28 L0,28 Z " fill="#020202" transform="translate(0,0)"/>
<path d="M0,0 L2,0 L0,11 L5,13 L6,17 L3,20 L-2,19 L-4,16 L-4,11 L-2,5 Z " fill="#DFDFDF" transform="translate(14,3)"/>
<path d="M0,0 L1,2 L6,4 L7,8 L5,10 L5,8 L1,9 L-1,6 Z " fill="#C2C2C2" transform="translate(13,12)"/>
<path d="M0,0 L4,1 L4,4 L0,4 Z " fill="#212121" transform="translate(13,16)"/>
</svg>
