<?xml version="1.0" encoding="UTF-8"?>
<svg version="1.1" xmlns="http://www.w3.org/2000/svg" width="28" height="28">
<path d="M0,0 L28,0 L28,28 L0,28 Z " fill="#020202" transform="translate(0,0)"/>
<path d="M0,0 L5,1 L3,4 L3,2 L1,2 L1,14 L3,13 L9,13 L10,18 L7,20 L1,20 L-3,16 L-3,4 Z " fill="#E5E5E5" transform="translate(12,2)"/>
<path d="M0,0 L3,1 L2,6 L-1,7 L-1,5 L-3,5 L-3,2 Z " fill="#C3C3C3" transform="translate(19,15)"/>
<path d="M0,0 L5,1 L3,4 L3,2 L1,2 L0,4 L-2,4 Z " fill="#CACACA" transform="translate(12,2)"/>
</svg>
