<?xml version="1.0" encoding="UTF-8"?>
<svg version="1.1" xmlns="http://www.w3.org/2000/svg" width="28" height="28">
<path d="M0,0 L28,0 L28,28 L0,28 Z " fill="#080808" transform="translate(0,0)"/>
<path d="M0,0 L5,1 L3,6 L-4,10 L-10,9 L-11,3 L-9,1 L-8,7 L-4,2 Z " fill="#AEAEAE" transform="translate(18,12)"/>
<path d="M0,0 L3,1 L0,4 L-3,6 L-6,6 L-5,3 Z " fill="#121212" transform="translate(18,14)"/>
<path d="M0,0 L4,0 L4,2 L-3,5 L-7,8 L-6,4 Z " fill="#D7D7D7" transform="translate(18,12)"/>
</svg>
