<?xml version="1.0" encoding="UTF-8"?>
<svg version="1.1" xmlns="http://www.w3.org/2000/svg" width="28" height="28">
<path d="M0,0 L28,0 L28,28 L0,28 Z " fill="#020202" transform="translate(0,0)"/>
<path d="M0,0 L2,0 L1,3 L-7,10 L-9,12 L-9,17 L-5,18 L-5,13 L2,9 L5,9 L5,14 L-1,19 L-3,20 L-10,20 L-12,18 L-11,11 L-8,7 L-6,7 L-6,5 Z " fill="#D7D7D7" transform="translate(18,2)"/>
<path d="M0,0 L2,0 L1,3 L-7,10 L-9,12 L-9,17 L-7,18 L-7,20 L-11,19 L-12,18 L-11,11 L-8,7 L-6,7 L-6,5 Z " fill="#C4C4C4" transform="translate(18,2)"/>
<path d="M0,0 L3,0 L1,4 L-1,4 L-1,6 L-5,6 L-3,2 Z " fill="#141414" transform="translate(19,13)"/>
<path d="M0,0 L3,0 L2,4 L2,2 L-4,5 L-7,8 L-6,3 Z " fill="#B0B0B0" transform="translate(20,11)"/>
</svg>
