<?xml version="1.0" encoding="UTF-8"?>
<svg version="1.1" xmlns="http://www.w3.org/2000/svg" width="28" height="28">
<path d="M0,0 L28,0 L28,28 L0,28 Z " fill="#080808" transform="translate(0,0)"/>
<path d="M0,0 L5,0 L6,4 L1,9 L-1,10 L-8,10 L-10,8 L-10,3 L-8,2 L-8,7 L-6,7 L-4,3 Z " fill="#BABABA" transform="translate(17,12)"/>
<path d="M0,0 L1,0 L2,5 L11,5 L8,8 L1,8 L-1,6 L-1,1 Z " fill="#C9C9C9" transform="translate(8,14)"/>
<path d="M0,0 L4,0 L2,4 L1,5 L-4,5 L-2,1 Z " fill="#0C0C0C" transform="translate(17,14)"/>
</svg>
