<?xml version="1.0" encoding="UTF-8"?>
<svg version="1.1" xmlns="http://www.w3.org/2000/svg" width="28" height="28">
<path d="M0,0 L28,0 L28,28 L0,28 Z " fill="#030303" transform="translate(0,0)"/>
<path d="M0,0 L2,0 L0,5 L-3,10 L-4,15 L1,11 L5,12 L5,18 L3,20 L-6,20 L-7,18 L-6,9 L-3,3 Z " fill="#E8E8E8" transform="translate(16,2)"/>
<path d="M0,0 L4,1 L4,7 L1,9 L-4,7 L-2,1 Z " fill="#E0E0E0" transform="translate(17,13)"/>
<path d="M0,0 L3,1 L1,5 L-4,5 Z " fill="#1C1C1C" transform="translate(17,15)"/>
</svg>
