<?xml version="1.0" encoding="UTF-8"?>
<svg version="1.1" xmlns="http://www.w3.org/2000/svg" width="28" height="28">
<path d="M0,0 L28,0 L28,28 L0,28 Z " fill="#020202" transform="translate(0,0)"/>
<path d="M0,0 L1,3 L-4,13 L-1,11 L4,12 L3,19 L2,20 L-8,20 L-9,14 L-3,5 Z " fill="#CFCFCF" transform="translate(17,2)"/>
<path d="M0,0 L1,3 L-5,15 L-3,16 L-5,20 L-8,20 L-9,14 L-3,5 Z " fill="#DBDBDB" transform="translate(17,2)"/>
<path d="M0,0 L2,0 L1,5 L0,6 L-5,6 L-2,1 Z " fill="#101010" transform="translate(17,15)"/>
</svg>
