<?xml version="1.0" encoding="UTF-8"?>
<svg version="1.1" xmlns="http://www.w3.org/2000/svg" width="28" height="28">
<path d="M0,0 L28,0 L28,28 L0,28 Z " fill="#010101" transform="translate(0,0)"/>
<path d="M0,0 L2,0 L1,4 L-3,12 L-2,13 L4,12 L-1,16 L-3,19 L-7,19 L-7,12 Z " fill="#D0D0D0" transform="translate(16,2)"/>
<path d="M0,0 L6,1 L5,7 L4,9 L-8,9 L-4,8 L-2,4 L1,2 Z " fill="#B8B8B8" transform="translate(17,13)"/>
<path d="M0,0 L3,0 L1,6 L-5,6 L-3,2 Z " fill="#0E0E0E" transform="translate(18,15)"/>
<path d="M0,0 L4,1 L-2,5 L-3,7 L-7,7 L-6,3 L-2,1 Z " fill="#F0F0F0" transform="translate(16,14)"/>
</svg>
