<?xml version="1.0" encoding="UTF-8"?>
<svg version="1.1" xmlns="http://www.w3.org/2000/svg" width="28" height="28">
<path d="M0,0 L28,0 L28,28 L0,28 Z " fill="#020202" transform="translate(0,0)"/>
<path d="M0,0 L2,0 L1,5 L-5,14 L1,10 L5,11 L4,17 L0,20 L-9,20 L-9,14 L-1,3 Z " fill="#D3D3D3" transform="translate(17,2)"/>
<path d="M0,0 L2,0 L1,5 L-5,13 L-6,10 L-1,3 Z " fill="#DFDFDF" transform="translate(17,2)"/>
<path d="M0,0 L3,0 L1,4 L-2,6 L-5,6 L-3,2 Z " fill="#111111" transform="translate(17,15)"/>
<path d="M0,0 L2,0 L2,2 L4,2 L4,5 L7,6 L0,6 Z " fill="#EDEDED" transform="translate(8,16)"/>
<path d="M0,0 L3,0 L4,3 L-1,8 L-3,8 L-3,6 L2,1 Z " fill="#A8A8A8" transform="translate(18,14)"/>
</svg>
