<?xml version="1.0" encoding="UTF-8"?>
<svg version="1.1" xmlns="http://www.w3.org/2000/svg" width="28" height="28">
<path d="M0,0 L28,0 L28,28 L0,28 Z " fill="#040404" transform="translate(0,0)"/>
<path d="M0,0 L2,0 L0,5 L0,14 L3,17 L4,12 L7,9 L11,9 L11,16 L8,20 L2,20 L-3,16 L-3,5 Z " fill="#D5D5D5" transform="translate(11,2)"/>
<path d="M0,0 L2,0 L0,5 L0,14 L3,17 L4,15 L6,20 L0,19 L-3,16 L-3,5 Z " fill="#E7E7E7" transform="translate(11,2)"/>
<path d="M0,0 L2,0 L1,6 L-3,8 L-2,2 Z " fill="#161616" transform="translate(19,12)"/>
</svg>
