<?xml version="1.0" encoding="UTF-8"?>
<svg version="1.1" xmlns="http://www.w3.org/2000/svg" width="28" height="28">
<path d="M0,0 L28,0 L28,28 L0,28 Z " fill="#020202" transform="translate(0,0)"/>
<path d="M0,0 L2,0 L2,5 L-3,10 L-4,13 L0,14 L2,18 L-1,20 L-8,20 L-13,17 L-11,13 L-3,6 Z " fill="#CDCDCD" transform="translate(19,1)"/>
<path d="M0,0 L1,2 L11,3 L10,5 L3,5 L0,4 Z " fill="#E9E9E9" transform="translate(8,16)"/>
<path d="M0,0 L5,1 L6,3 L-3,3 L-2,1 Z " fill="#242424" transform="translate(12,15)"/>
</svg>
