<?xml version="1.0" encoding="UTF-8"?>
<svg version="1.1" xmlns="http://www.w3.org/2000/svg" width="28" height="28">
<path d="M0,0 L28,0 L28,28 L0,28 Z " fill="#020202" transform="translate(0,0)"/>
<path d="M0,0 L2,1 L-4,11 L-5,13 L1,11 L3,13 L2,17 L-6,20 L-10,18 L-9,13 L-3,3 Z " fill="#8A8A8A" transform="translate(18,2)"/>
<path d="M0,0 L4,2 L3,6 L-5,9 L-8,8 L-7,3 L-5,2 L-3,4 L1,3 L-1,1 Z " fill="#E6E6E6" transform="translate(17,13)"/>
<path d="M0,0 L2,1 L-5,12 L-7,10 L-2,2 Z " fill="#E3E3E3" transform="translate(18,2)"/>
</svg>
