<?xml version="1.0" encoding="UTF-8"?>
<svg version="1.1" xmlns="http://www.w3.org/2000/svg" width="28" height="28">
<path d="M0,0 L28,0 L28,28 L0,28 Z " fill="#040404" transform="translate(0,0)"/>
<path d="M0,0 L2,0 L0,5 L-5,11 L-8,13 L0,14 L1,19 L-7,20 L-12,17 L-11,12 L-5,5 Z " fill="#ECECEC" transform="translate(20,2)"/>
<path d="M0,0 L2,0 L0,5 L-5,11 L-12,15 L-10,11 L-5,5 Z " fill="#E4E4E4" transform="translate(20,2)"/>
<path d="M0,0 L3,0 L4,5 L3,3 L-5,3 L-5,1 Z " fill="#797979" transform="translate(17,16)"/>
</svg>
