<?xml version="1.0" encoding="UTF-8"?>
<svg version="1.1" xmlns="http://www.w3.org/2000/svg" width="28" height="28">
<path d="M0,0 L28,0 L28,28 L0,28 Z " fill="#020202" transform="translate(0,0)"/>
<path d="M0,0 L2,0 L1,6 L-5,13 L-1,14 L1,18 L-2,20 L-9,19 L-11,15 L-4,7 L-1,3 Z " fill="#B0B0B0" transform="translate(19,2)"/>
<path d="M0,0 L2,0 L1,6 L-5,12 L-8,11 L-1,3 Z " fill="#DEDEDE" transform="translate(19,2)"/>
<path d="M0,0 L4,0 L5,2 L9,3 L9,5 L2,4 Z " fill="#DBDBDB" transform="translate(8,17)"/>
</svg>
