<?xml version="1.0" encoding="UTF-8"?>
<svg version="1.1" xmlns="http://www.w3.org/2000/svg" width="28" height="28">
<path d="M0,0 L28,0 L28,28 L0,28 Z " fill="#050505" transform="translate(0,0)"/>
<path d="M0,0 L2,1 L-6,8 L-13,16 L-11,17 L-10,14 L-7,12 L0,12 L1,17 L-11,20 L-16,19 L-16,14 L-13,13 L-11,9 L-3,1 Z " fill="#D7D7D7" transform="translate(21,2)"/>
<path d="M0,0 L7,0 L8,5 L-1,7 L-2,4 L-4,3 Z " fill="#828282" transform="translate(14,14)"/>
<path d="M0,0 L5,1 L5,5 L-2,6 L-1,4 L2,2 Z " fill="#ECECEC" transform="translate(17,14)"/>
<path d="M0,0 L2,1 L-6,8 L-8,6 L-3,1 Z " fill="#EAEAEA" transform="translate(21,2)"/>
</svg>
