<?xml version="1.0" encoding="UTF-8"?>
<svg version="1.1" xmlns="http://www.w3.org/2000/svg" width="28" height="28">
<path d="M0,0 L28,0 L28,28 L0,28 Z " fill="#040404" transform="translate(0,0)"/>
<path d="M0,0 L4,0 L4,3 L1,3 L-1,7 L-3,13 L-3,16 L0,11 L3,9 L6,9 L6,15 L1,20 L-5,18 L-7,13 L-3,4 L-2,2 L0,2 Z " fill="#E8E8E8" transform="translate(15,3)"/>
<path d="M0,0 L3,0 L3,6 L-1,7 L-3,8 L-1,2 Z " fill="#C1C1C1" transform="translate(18,12)"/>
<path d="M0,0 L4,0 L4,3 L1,3 L0,6 L-3,4 L-2,2 L0,2 Z " fill="#CDCDCD" transform="translate(15,3)"/>
</svg>
