<?xml version="1.0" encoding="UTF-8"?>
<svg version="1.1" xmlns="http://www.w3.org/2000/svg" width="28" height="28">
<path d="M0,0 L28,0 L28,28 L0,28 Z " fill="#020202" transform="translate(0,0)"/>
<path d="M0,0 L2,0 L2,3 L0,3 L-2,8 L-6,12 L0,12 L3,15 L-1,18 L-6,20 L-12,20 L-12,15 L-2,3 Z " fill="#D4D4D4" transform="translate(19,2)"/>
<path d="M0,0 L3,1 L2,3 L0,3 L-1,6 L-3,7 L-9,7 L-9,2 L-2,1 Z " fill="#8F8F8F" transform="translate(16,15)"/>
<path d="M0,0 L5,1 L4,3 L2,3 L1,6 L1,3 L-2,2 Z " fill="#EEEEEE" transform="translate(10,14)"/>
</svg>
