<?xml version="1.0" encoding="UTF-8"?>
<svg version="1.1" xmlns="http://www.w3.org/2000/svg" width="28" height="28">
<path d="M0,0 L28,0 L28,28 L0,28 Z " fill="#020202" transform="translate(0,0)"/>
<path d="M0,0 L4,1 L3,4 L0,3 L-3,5 L-2,8 L5,5 L11,5 L13,7 L12,11 L3,16 L-4,16 L-7,13 L-7,7 L-2,1 Z M-5,8 Z " fill="#0C0C0C" transform="translate(13,6)"/>
<path d="M0,0 L6,0 L8,2 L7,6 L-2,11 L-9,11 L-10,9 L1,7 L6,4 L6,3 L-2,3 L-5,5 L-8,4 Z " fill="#C3C3C3" transform="translate(18,11)"/>
<path d="M0,0 L4,1 L3,4 L0,3 L-3,5 L-5,14 L-7,13 L-7,7 L-2,1 Z " fill="#CECECE" transform="translate(13,6)"/>
<path d="M0,0 L2,1 L1,9 L-1,8 L-1,2 Z " fill="#B7B7B7" transform="translate(7,11)"/>
</svg>
