<?xml version="1.0" encoding="UTF-8"?>
<svg version="1.1" xmlns="http://www.w3.org/2000/svg" width="28" height="28">
<path d="M0,0 L28,0 L28,28 L0,28 Z " fill="#020202" transform="translate(0,0)"/>
<path d="M0,0 L2,0 L2,13 L7,17 L9,18 L9,12 L12,9 L17,9 L18,10 L18,16 L13,20 L6,20 L-1,14 L-2,5 Z " fill="#D4D4D4" transform="translate(7,2)"/>
<path d="M0,0 L3,0 L2,5 L0,7 L-3,7 L-2,1 Z " fill="#131313" transform="translate(20,13)"/>
<path d="M0,0 L5,0 L6,1 L6,7 L3,9 L2,7 L4,2 Z " fill="#B6B6B6" transform="translate(19,11)"/>
</svg>
