<?xml version="1.0" encoding="UTF-8"?>
<svg version="1.1" xmlns="http://www.w3.org/2000/svg" width="28" height="28">
<path d="M0,0 L28,0 L28,28 L0,28 Z " fill="#020202" transform="translate(0,0)"/>
<path d="M0,0 L0,3 L-4,9 L-4,14 L2,11 L7,11 L9,13 L8,18 L5,20 L-2,20 L-6,18 L-7,16 L-7,9 L-3,3 Z " fill="#C1C1C1" transform="translate(15,2)"/>
<path d="M0,0 L0,3 L-4,9 L-5,15 L-3,15 L-1,19 L-6,18 L-7,16 L-7,9 L-3,3 Z " fill="#D6D6D6" transform="translate(15,2)"/>
<path d="M0,0 L3,2 L3,5 L1,6 L-6,6 L-6,3 Z " fill="#030303" transform="translate(19,14)"/>
</svg>
