<?xml version="1.0" encoding="UTF-8"?>
<svg version="1.1" xmlns="http://www.w3.org/2000/svg" width="28" height="28">
<path d="M0,0 L28,0 L28,28 L0,28 Z " fill="#010101" transform="translate(0,0)"/>
<path d="M0,0 L3,1 L3,12 L6,9 L10,11 L9,19 L8,20 L3,20 L0,16 Z " fill="#E0E0E0" transform="translate(10,2)"/>
<path d="M0,0 L1,4 L-1,9 L-6,9 L-6,6 L-3,1 Z " fill="#CBCBCB" transform="translate(19,13)"/>
<path d="M0,0 L5,4 L2,6 L0,10 L-1,1 Z " fill="#393939" transform="translate(13,7)"/>
<path d="M0,0 L3,1 L2,4 L0,3 L-2,7 L-2,2 Z M-3,7 Z M-4,8 Z " fill="#F8F8F8" transform="translate(16,11)"/>
</svg>
