<?xml version="1.0" encoding="UTF-8"?>
<svg version="1.1" xmlns="http://www.w3.org/2000/svg" width="28" height="28">
<path d="M0,0 L28,0 L28,28 L0,28 Z " fill="#020202" transform="translate(0,0)"/>
<path d="M0,0 L3,0 L2,4 L-1,8 L-2,13 L5,11 L12,12 L12,17 L6,20 L-1,20 L-5,18 L-7,18 L-5,8 Z " fill="#E7E7E7" transform="translate(13,2)"/>
<path d="M0,0 L8,0 L8,2 L5,3 L-2,3 L-2,1 Z " fill="#121212" transform="translate(15,16)"/>
<path d="M0,0 L3,0 L2,4 L-1,7 L-3,7 L-1,1 Z " fill="#C6C6C6" transform="translate(13,2)"/>
<path d="M0,0 L5,0 L5,3 L-2,3 L-4,1 Z " fill="#CECECE" transform="translate(18,13)"/>
</svg>
