<?xml version="1.0" encoding="UTF-8"?>
<svg version="1.1" xmlns="http://www.w3.org/2000/svg" width="28" height="28">
<path d="M0,0 L28,0 L28,28 L0,28 Z " fill="#050505" transform="translate(0,0)"/>
<path d="M0,0 L2,0 L1,12 L6,17 L10,17 L10,9 L15,7 L18,12 L17,17 L12,20 L3,19 L-1,15 L-2,2 Z " fill="#ECECEC" transform="translate(7,2)"/>
<path d="M0,0 L2,0 L1,12 L4,16 L3,19 L-1,15 L-2,2 Z " fill="#D5D5D5" transform="translate(7,2)"/>
<path d="M0,0 L4,1 L3,6 L0,7 L-1,3 Z " fill="#0A0A0A" transform="translate(19,12)"/>
<path d="M0,0 L4,2 L2,4 L-1,3 L-2,6 L-3,2 Z " fill="#CECECE" transform="translate(20,9)"/>
</svg>
