<?xml version="1.0" encoding="UTF-8"?>
<svg version="1.1" xmlns="http://www.w3.org/2000/svg" width="28" height="28">
<path d="M0,0 L28,0 L28,28 L0,28 Z " fill="#030303" transform="translate(0,0)"/>
<path d="M0,0 L2,0 L2,2 L-4,7 L-7,15 L-2,15 L-1,11 L8,10 L11,12 L9,16 L-2,18 L-8,16 L-9,11 L-8,7 Z " fill="#D2D2D2" transform="translate(15,3)"/>
<path d="M0,0 L2,0 L2,2 L-4,7 L-7,15 L-2,15 L-1,12 L2,15 L4,17 L-2,18 L-8,16 L-9,11 L-8,7 Z " fill="#D7D7D7" transform="translate(15,3)"/>
<path d="M0,0 L4,1 L3,4 L-4,4 L-5,1 Z " fill="#0F0F0F" transform="translate(19,14)"/>
</svg>
