<?xml version="1.0" encoding="UTF-8"?>
<svg version="1.1" xmlns="http://www.w3.org/2000/svg" width="28" height="28">
<path d="M0,0 L28,0 L28,28 L0,28 Z " fill="#030303" transform="translate(0,0)"/>
<path d="M0,0 L5,1 L5,4 L1,4 L0,10 L0,12 L9,11 L7,12 L7,14 L11,14 L12,12 L10,11 L14,10 L15,14 L13,18 L2,18 L-3,17 L-5,10 L-5,5 Z " fill="#EFEFEF" transform="translate(11,3)"/>
<path d="M0,0 L5,1 L5,4 L1,4 L-1,6 L-3,6 L-5,7 L-3,2 Z " fill="#C9C9C9" transform="translate(11,3)"/>
<path d="M0,0 L4,1 L2,2 L2,6 L-4,6 L-2,5 L-2,1 Z " fill="#676767" transform="translate(20,12)"/>
</svg>
