<?xml version="1.0" encoding="UTF-8"?>
<svg version="1.1" xmlns="http://www.w3.org/2000/svg" width="28" height="28">
<path d="M0,0 L28,0 L28,28 L0,28 Z " fill="#030303" transform="translate(0,0)"/>
<path d="M0,0 L3,0 L3,2 L-2,7 L-4,12 L2,11 L3,12 L3,17 L-1,20 L-6,18 L-7,17 L-6,8 L-3,2 Z " fill="#E7E7E7" transform="translate(17,3)"/>
<path d="M0,0 L1,3 L8,2 L10,6 L6,9 L1,7 L0,6 Z " fill="#DBDBDB" transform="translate(10,14)"/>
<path d="M0,0 L5,1 L5,3 L-1,4 Z " fill="#1B1B1B" transform="translate(14,16)"/>
</svg>
