<?xml version="1.0" encoding="UTF-8"?>
<svg version="1.1" xmlns="http://www.w3.org/2000/svg" width="28" height="28">
<path d="M0,0 L28,0 L28,28 L0,28 Z " fill="#030303" transform="translate(0,0)"/>
<path d="M0,0 L3,1 L2,10 L1,12 L7,10 L12,12 L10,18 L6,20 L-1,20 L-2,19 L-2,12 Z " fill="#EBEBEB" transform="translate(11,2)"/>
<path d="M0,0 L6,2 L4,8 L1,9 L1,7 L-4,7 L-2,3 L0,3 Z " fill="#E8E8E8" transform="translate(17,12)"/>
<path d="M0,0 L5,1 L3,4 L-2,4 Z " fill="#141414" transform="translate(15,15)"/>
</svg>
