<?xml version="1.0" encoding="UTF-8"?>
<svg version="1.1" xmlns="http://www.w3.org/2000/svg" width="28" height="28">
<path d="M0,0 L28,0 L28,28 L0,28 Z " fill="#030303" transform="translate(0,0)"/>
<path d="M0,0 L4,0 L4,2 L-2,5 L-4,12 L2,8 L8,8 L8,15 L6,19 L-3,20 L-6,17 L-6,5 Z " fill="#EDEDED" transform="translate(15,3)"/>
<path d="M0,0 L5,0 L3,6 L-1,7 L-3,3 Z " fill="#0E0E0E" transform="translate(16,14)"/>
<path d="M0,0 L4,0 L4,2 L-2,5 L-3,12 L-5,14 L-6,5 Z " fill="#BCBCBC" transform="translate(15,3)"/>
<path d="M0,0 L4,0 L5,5 L2,9 L1,6 L3,1 Z " fill="#A5A5A5" transform="translate(18,13)"/>
<path d="M0,0 L6,0 L5,4 L5,2 L0,3 L-2,1 Z " fill="#CACACA" transform="translate(17,11)"/>
</svg>
