<?xml version="1.0" encoding="UTF-8"?>
<svg version="1.1" xmlns="http://www.w3.org/2000/svg" width="28" height="28">
<path d="M0,0 L28,0 L28,28 L0,28 Z " fill="#010101" transform="translate(0,0)"/>
<path d="M0,0 L6,1 L6,3 L1,2 L-1,6 L-2,9 L2,11 L3,15 L-3,10 L-2,17 L3,17 L2,20 L-3,20 L-6,15 L-5,7 Z " fill="#D6D6D6" transform="translate(16,4)"/>
<path d="M0,0 L4,2 L6,4 L7,8 L1,8 L0,7 Z " fill="#1E1E1E" transform="translate(13,14)"/>
<path d="M0,0 L1,0 L2,6 L7,6 L6,9 L1,9 L-1,5 Z " fill="#BABABA" transform="translate(12,15)"/>
</svg>
