<?xml version="1.0" encoding="UTF-8"?>
<svg version="1.1" xmlns="http://www.w3.org/2000/svg" width="28" height="28">
<path d="M0,0 L28,0 L28,28 L0,28 Z " fill="#030303" transform="translate(0,0)"/>
<path d="M0,0 L2,0 L2,11 L-1,17 L1,17 L3,12 L10,11 L12,13 L11,18 L7,20 L-2,20 L-4,18 L-3,12 L-1,7 Z " fill="#DFDFDF" transform="translate(12,1)"/>
<path d="M0,0 L5,1 L7,0 L6,5 L2,7 L-7,7 L-4,5 L-2,5 Z " fill="#D5D5D5" transform="translate(17,14)"/>
<path d="M0,0 L5,0 L6,4 L0,3 L-2,7 L-8,8 L-7,3 L-6,6 L-4,6 L-2,1 Z " fill="#F5F5F5" transform="translate(17,12)"/>
<path d="M0,0 L4,0 L3,4 L-2,5 Z " fill="#2C2C2C" transform="translate(17,14)"/>
</svg>
