<?xml version="1.0" encoding="UTF-8"?>
<svg version="1.1" xmlns="http://www.w3.org/2000/svg" width="28" height="28">
<path d="M0,0 L28,0 L28,28 L0,28 Z " fill="#030303" transform="translate(0,0)"/>
<path d="M0,0 L2,0 L1,4 L-6,11 L-7,14 L-3,11 L3,11 L4,15 L0,18 L-4,18 L-4,20 L-11,19 L-12,15 L-6,6 Z " fill="#EAEAEA" transform="translate(19,2)"/>
<path d="M0,0 L6,0 L7,4 L3,6 L3,4 L-2,5 Z " fill="#AEAEAE" transform="translate(16,13)"/>
<path d="M0,0 L2,0 L1,4 L-5,9 L-8,8 Z " fill="#D0D0D0" transform="translate(19,2)"/>
</svg>
