<?xml version="1.0" encoding="UTF-8"?>
<svg version="1.1" xmlns="http://www.w3.org/2000/svg" width="28" height="28">
<path d="M0,0 L28,0 L28,28 L0,28 Z " fill="#020202" transform="translate(0,0)"/>
<path d="M0,0 L2,1 L-1,8 L-1,16 L4,17 L5,12 L8,9 L13,9 L12,15 L7,20 L-1,20 L-5,16 L-5,8 Z " fill="#DDDDDD" transform="translate(12,2)"/>
<path d="M0,0 L5,0 L4,6 L0,7 L-2,7 L-3,3 Z " fill="#E2E2E2" transform="translate(20,11)"/>
<path d="M0,0 L2,0 L0,4 L-3,5 L-4,1 Z " fill="#888888" transform="translate(21,13)"/>
</svg>
