<?xml version="1.0" encoding="UTF-8"?>
<svg version="1.1" xmlns="http://www.w3.org/2000/svg" width="28" height="28">
<path d="M0,0 L28,0 L28,28 L0,28 Z " fill="#030303" transform="translate(0,0)"/>
<path d="M0,0 L2,0 L1,4 L-6,15 L-7,17 L-5,17 L-4,13 L0,10 L4,10 L4,15 L-1,19 L-10,20 L-10,14 L-2,3 Z " fill="#E2E2E2" transform="translate(17,2)"/>
<path d="M0,0 L2,0 L1,4 L-6,15 L-8,17 L-10,16 L-8,12 L-1,1 Z " fill="#D5D5D5" transform="translate(17,2)"/>
<path d="M0,0 L1,2 L7,0 L8,4 L-1,5 Z " fill="#F8F8F8" transform="translate(8,17)"/>
</svg>
