<?xml version="1.0" encoding="UTF-8"?>
<svg version="1.1" xmlns="http://www.w3.org/2000/svg" width="28" height="28">
<path d="M0,0 L28,0 L28,28 L0,28 Z " fill="#020202" transform="translate(0,0)"/>
<path d="M0,0 L2,0 L1,6 L-1,9 L-1,14 L4,9 L8,9 L7,15 L2,19 L-3,20 L-4,17 L-4,10 Z " fill="#D3D3D3" transform="translate(13,2)"/>
<path d="M0,0 L2,0 L1,6 L-1,9 L-1,14 L5,12 L3,16 L-1,17 L-3,16 L-4,10 Z " fill="#8F8F8F" transform="translate(13,2)"/>
<path d="M0,0 L1,4 L6,4 L9,2 L7,6 L1,8 Z " fill="#ECECEC" transform="translate(9,14)"/>
</svg>
