<?xml version="1.0" encoding="UTF-8"?>
<svg version="1.1" xmlns="http://www.w3.org/2000/svg" width="28" height="28">
<path d="M0,0 L28,0 L28,28 L0,28 Z " fill="#030303" transform="translate(0,0)"/>
<path d="M0,0 L2,0 L1,5 L-3,12 L1,10 L6,10 L5,16 L3,18 L0,18 L0,20 L-6,20 L-6,13 L-1,1 Z " fill="#ACACAC" transform="translate(15,2)"/>
<path d="M0,0 L2,0 L1,5 L-4,13 L-5,10 Z M-6,13 Z " fill="#D9D9D9" transform="translate(15,2)"/>
<path d="M0,0 L5,0 L4,5 L3,3 L-3,5 L-2,1 Z " fill="#E8E8E8" transform="translate(16,12)"/>
</svg>
