<?xml version="1.0" encoding="UTF-8"?>
<svg version="1.1" xmlns="http://www.w3.org/2000/svg" width="28" height="28">
<path d="M0,0 L28,0 L28,28 L0,28 Z " fill="#040404" transform="translate(0,0)"/>
<path d="M0,0 L3,1 L0,9 L0,14 L7,15 L8,9 L12,3 L16,4 L17,7 L14,13 L8,17 L6,19 L6,17 L0,18 L-3,14 L-2,3 Z " fill="#D5D5D5" transform="translate(8,4)"/>
<path d="M0,0 L3,1 L0,9 L0,14 L5,16 L4,18 L-1,17 L-3,14 L-2,3 Z " fill="#F1F1F1" transform="translate(8,4)"/>
<path d="M0,0 L4,1 L5,4 L3,6 L2,4 L-2,5 L-1,1 Z " fill="#EAEAEA" transform="translate(20,7)"/>
<path d="M0,0 L1,3 L-2,6 L-4,6 L-3,1 Z " fill="#2C2C2C" transform="translate(22,10)"/>
<path d="M0,0 L3,1 L1,7 L-2,6 L-1,1 Z " fill="#CBCBCB" transform="translate(8,4)"/>
</svg>
