<?xml version="1.0" encoding="UTF-8"?>
<svg version="1.1" xmlns="http://www.w3.org/2000/svg" width="28" height="28">
<path d="M0,0 L28,0 L28,28 L0,28 Z " fill="#020202" transform="translate(0,0)"/>
<path d="M0,0 L5,0 L6,5 L3,6 L2,3 L-2,7 L-3,12 L3,13 L6,16 L5,19 L-2,20 L-6,17 L-6,7 Z " fill="#DCDCDC" transform="translate(15,4)"/>
<path d="M0,0 L7,1 L8,5 L7,6 L2,6 L-2,2 L0,2 Z " fill="#CFCFCF" transform="translate(11,18)"/>
<path d="M0,0 L6,0 L6,3 L0,2 Z " fill="#2A2A2A" transform="translate(12,19)"/>
</svg>
