<?xml version="1.0" encoding="UTF-8"?>
<svg version="1.1" xmlns="http://www.w3.org/2000/svg" width="28" height="28">
<path d="M0,0 L28,0 L28,28 L0,28 Z " fill="#010101" transform="translate(0,0)"/>
<path d="M0,0 L4,0 L2,5 L-2,4 L-7,8 L-9,12 L-2,11 L0,16 L-3,20 L-9,20 L-12,17 L-12,10 L-6,3 Z " fill="#C3C3C3" transform="translate(20,4)"/>
<path d="M0,0 L2,0 L2,7 L8,7 L9,3 L3,4 L3,2 L10,1 L12,6 L9,10 L3,10 L0,7 Z " fill="#D9D9D9" transform="translate(8,14)"/>
<path d="M0,0 L5,0 L4,5 L-1,4 Z " fill="#0E0E0E" transform="translate(12,17)"/>
</svg>
