<?xml version="1.0" encoding="UTF-8"?>
<svg version="1.1" xmlns="http://www.w3.org/2000/svg" width="28" height="28">
<path d="M0,0 L28,0 L28,28 L0,28 Z " fill="#060606" transform="translate(0,0)"/>
<path d="M0,0 L5,1 L4,3 L0,3 L0,5 L-4,6 L-4,8 L-8,11 L-10,11 L-10,15 L-5,14 L1,10 L5,10 L4,14 L-1,19 L-4,20 L-11,20 L-13,18 L-13,12 L-11,8 L-7,6 L-6,4 L-1,2 Z " fill="#E9E9E9" transform="translate(19,3)"/>
<path d="M0,0 L5,1 L4,3 L0,3 L0,5 L-4,6 L-4,8 L-8,11 L-10,11 L-10,16 L-13,18 L-13,12 L-11,8 L-7,6 L-6,4 L-1,2 Z " fill="#D2D2D2" transform="translate(19,3)"/>
</svg>
