<?xml version="1.0" encoding="UTF-8"?>
<svg version="1.1" xmlns="http://www.w3.org/2000/svg" width="28" height="28">
<path d="M0,0 L28,0 L28,28 L0,28 Z " fill="#030303" transform="translate(0,0)"/>
<path d="M0,0 L5,1 L7,3 L8,10 L10,9 L17,9 L20,11 L19,18 L3,18 L2,17 L2,12 L3,11 L3,4 L0,3 Z " fill="#E4E4E4" transform="translate(5,3)"/>
<path d="M0,0 L7,1 L8,2 L7,9 L-6,9 L-3,2 L-2,2 L-2,7 L3,7 L4,3 L-1,2 Z " fill="#EDEDED" transform="translate(17,12)"/>
<path d="M0,0 L5,1 L4,5 L0,6 L-2,5 L-2,1 Z " fill="#181818" transform="translate(17,14)"/>
<path d="M0,0 L2,1 L2,3 L-1,3 L-3,8 L-5,7 L-4,2 Z " fill="#8A8A8A" transform="translate(15,12)"/>
</svg>
