<?xml version="1.0" encoding="UTF-8"?>
<svg version="1.1" xmlns="http://www.w3.org/2000/svg" width="28" height="28">
<path d="M0,0 L28,0 L28,28 L0,28 Z " fill="#020202" transform="translate(0,0)"/>
<path d="M0,0 L2,0 L2,13 L4,13 L5,7 L8,3 L11,3 L13,6 L12,13 L8,18 L8,20 L4,18 L0,13 L-1,4 Z " fill="#D7D7D7" transform="translate(9,4)"/>
<path d="M0,0 L3,0 L5,3 L4,10 L-2,12 L-2,6 L-3,4 Z " fill="#C6C6C6" transform="translate(17,7)"/>
<path d="M0,0 L2,0 L2,5 L-1,9 L-3,9 L-2,2 Z " fill="#161616" transform="translate(18,10)"/>
</svg>
