<?xml version="1.0" encoding="UTF-8"?>
<svg version="1.1" xmlns="http://www.w3.org/2000/svg" width="28" height="28">
<path d="M0,0 L28,0 L28,28 L0,28 Z " fill="#020202" transform="translate(0,0)"/>
<path d="M0,0 L4,1 L3,5 L2,3 L-1,4 L-3,11 L2,12 L2,18 L0,20 L-5,19 L-6,18 L-6,9 L-3,3 Z " fill="#CBCBCB" transform="translate(16,4)"/>
<path d="M0,0 L4,1 L3,5 L7,5 L6,8 L1,7 L0,6 Z " fill="#ECECEC" transform="translate(10,16)"/>
<path d="M0,0 L2,1 L1,6 L-3,5 L-2,1 Z " fill="#1B1B1B" transform="translate(15,16)"/>
</svg>
