<?xml version="1.0" encoding="UTF-8"?>
<svg version="1.1" xmlns="http://www.w3.org/2000/svg" width="28" height="28">
<path d="M0,0 L28,0 L28,28 L0,28 Z " fill="#030303" transform="translate(0,0)"/>
<path d="M0,0 L3,0 L1,4 L-1,8 L-1,14 L1,14 L3,11 L11,10 L12,15 L7,20 L0,20 L-5,15 L-5,9 L-1,1 Z " fill="#D9D9D9" transform="translate(12,2)"/>
<path d="M0,0 L3,0 L1,4 L-3,13 L-4,13 L-3,4 Z " fill="#E5E5E5" transform="translate(12,2)"/>
<path d="M0,0 L5,0 L6,5 L4,4 L4,2 L-1,4 L-4,6 L-3,1 Z " fill="#F2F2F2" transform="translate(18,12)"/>
<path d="M0,0 L4,0 L2,4 L-2,5 L-1,1 Z " fill="#232323" transform="translate(18,14)"/>
</svg>
