<?xml version="1.0" encoding="UTF-8"?>
<svg version="1.1" xmlns="http://www.w3.org/2000/svg" width="28" height="28">
<path d="M0,0 L28,0 L28,28 L0,28 Z " fill="#030303" transform="translate(0,0)"/>
<path d="M0,0 L2,0 L0,11 L1,16 L4,9 L8,5 L11,6 L11,13 L6,18 L2,20 L-2,18 L-3,11 L-1,2 Z " fill="#E0E0E0" transform="translate(11,3)"/>
<path d="M0,0 L2,0 L0,11 L1,16 L2,18 L-1,19 L-3,16 L-2,5 Z " fill="#D7D7D7" transform="translate(11,3)"/>
<path d="M0,0 L2,0 L1,5 L-2,9 L-4,8 L-1,1 Z " fill="#161616" transform="translate(18,11)"/>
<path d="M0,0 L2,0 L3,6 L-2,11 L-2,8 L0,5 Z " fill="#B5B5B5" transform="translate(19,10)"/>
</svg>
