<?xml version="1.0" encoding="UTF-8"?>
<svg version="1.1" xmlns="http://www.w3.org/2000/svg" width="28" height="28">
<path d="M0,0 L28,0 L28,28 L0,28 Z " fill="#030303" transform="translate(0,0)"/>
<path d="M0,0 L2,3 L-6,8 L0,10 L0,17 L-7,20 L-12,19 L-12,9 L-8,7 L-6,3 Z " fill="#E7E7E7" transform="translate(20,3)"/>
<path d="M0,0 L2,3 L-6,8 L-6,11 L-9,11 L-9,13 L-2,13 L-2,15 L-9,17 L-11,15 L-12,9 L-8,7 L-6,3 Z " fill="#D2D2D2" transform="translate(20,3)"/>
<path d="M0,0 L2,3 L-6,7 L-6,3 Z " fill="#DFDFDF" transform="translate(20,3)"/>
<path d="M0,0 L7,0 L7,2 L0,4 Z " fill="#242424" transform="translate(11,16)"/>
</svg>
