<?xml version="1.0" encoding="UTF-8"?>
<svg version="1.1" xmlns="http://www.w3.org/2000/svg" width="28" height="28">
<path d="M0,0 L28,0 L28,28 L0,28 Z " fill="#030303" transform="translate(0,0)"/>
<path d="M0,0 L4,1 L-1,6 L-3,13 L1,10 L8,10 L9,11 L9,17 L4,20 L-3,19 L-6,15 L-5,7 Z " fill="#CCCCCC" transform="translate(14,3)"/>
<path d="M0,0 L4,1 L-1,6 L-4,14 L-2,14 L-1,17 L5,18 L4,20 L-3,19 L-6,15 L-5,7 Z " fill="#DADADA" transform="translate(14,3)"/>
<path d="M0,0 L5,0 L4,5 L-3,6 L-3,2 Z " fill="#080808" transform="translate(16,15)"/>
<path d="M0,0 L4,1 L-1,6 L-3,8 L-4,6 Z " fill="#E6E6E6" transform="translate(14,3)"/>
</svg>
