<?xml version="1.0" encoding="UTF-8"?>
<svg version="1.1" xmlns="http://www.w3.org/2000/svg" width="28" height="28">
<path d="M0,0 L28,0 L28,28 L0,28 Z " fill="#030303" transform="translate(0,0)"/>
<path d="M0,0 L3,0 L3,4 L1,4 L-1,8 L-1,12 L3,12 L7,8 L9,8 L10,6 L15,9 L14,13 L11,15 L-2,16 L-5,13 L-4,7 L-1,1 Z " fill="#E0E0E0" transform="translate(10,5)"/>
<path d="M0,0 L6,3 L5,7 L2,9 L-6,10 L-4,6 L3,6 L3,4 L-3,4 L-2,2 L0,2 Z " fill="#E3E3E3" transform="translate(19,11)"/>
<path d="M0,0 L8,0 L8,2 L1,3 L-1,6 L-6,6 L-4,3 L-1,2 Z " fill="#8A8A8A" transform="translate(14,15)"/>
</svg>
