<?xml version="1.0" encoding="UTF-8"?>
<svg version="1.1" xmlns="http://www.w3.org/2000/svg" width="28" height="28">
<path d="M0,0 L28,0 L28,28 L0,28 Z " fill="#010101" transform="translate(0,0)"/>
<path d="M0,0 L2,0 L2,14 L7,10 L12,11 L12,16 L7,20 L1,20 L-2,17 L-2,8 Z " fill="#EAEAEA" transform="translate(11,2)"/>
<path d="M0,0 L5,1 L5,6 L0,10 L-1,8 L-4,8 L-4,3 Z " fill="#D0D0D0" transform="translate(18,12)"/>
<path d="M0,0 L2,0 L1,15 L0,15 L-1,2 Z " fill="#CACACA" transform="translate(11,2)"/>
<path d="M0,0 L4,0 L2,4 L-3,5 L-1,1 Z " fill="#0E0E0E" transform="translate(17,15)"/>
</svg>
