<?xml version="1.0" encoding="UTF-8"?>
<svg version="1.1" xmlns="http://www.w3.org/2000/svg" width="28" height="28">
<path d="M0,0 L28,0 L28,28 L0,28 Z " fill="#030303" transform="translate(0,0)"/>
<path d="M0,0 L2,0 L0,5 L-3,12 L-2,14 L1,11 L6,10 L7,11 L7,17 L3,20 L-2,20 L-5,17 L-5,8 Z " fill="#D4D4D4" transform="translate(14,2)"/>
<path d="M0,0 L2,0 L0,5 L-3,12 L-2,14 L-1,18 L-4,18 L-5,17 L-5,8 Z " fill="#C2C2C2" transform="translate(14,2)"/>
<path d="M0,0 L4,0 L3,5 L-1,6 L-2,2 Z " fill="#0B0B0B" transform="translate(16,14)"/>
</svg>
