<?xml version="1.0" encoding="UTF-8"?>
<svg version="1.1" xmlns="http://www.w3.org/2000/svg" width="28" height="28">
<path d="M0,0 L28,0 L28,28 L0,28 Z " fill="#030303" transform="translate(0,0)"/>
<path d="M0,0 L2,0 L2,2 L-2,6 L-2,10 L-1,9 L11,9 L14,12 L13,16 L10,18 L1,18 L-4,14 L-4,12 L-6,12 L-6,6 L-4,2 Z " fill="#E3E3E3" transform="translate(12,4)"/>
<path d="M0,0 L2,0 L2,2 L-2,6 L-3,11 L0,11 L2,15 L6,18 L-1,17 L-4,14 L-4,12 L-6,12 L-6,6 L-4,2 Z " fill="#E4E4E4" transform="translate(12,4)"/>
<path d="M0,0 L10,0 L10,4 L8,5 L1,5 L-1,1 Z " fill="#0F0F0F" transform="translate(13,15)"/>
<path d="M0,0 L3,1 L-1,4 L-7,3 L-7,2 Z " fill="#C9C9C9" transform="translate(23,18)"/>
</svg>
