<?xml version="1.0" encoding="UTF-8"?>
<svg version="1.1" xmlns="http://www.w3.org/2000/svg" width="28" height="28">
<path d="M0,0 L28,0 L28,28 L0,28 Z " fill="#010101" transform="translate(0,0)"/>
<path d="M0,0 L2,0 L0,5 L-1,7 L-1,15 L5,10 L9,11 L10,16 L6,20 L0,20 L-4,16 L-4,8 L-2,2 L0,2 Z " fill="#CACACA" transform="translate(13,2)"/>
<path d="M0,0 L2,0 L0,5 L-2,15 L-4,16 L-4,8 L-2,2 L0,2 Z " fill="#B6B6B6" transform="translate(13,2)"/>
<path d="M0,0 L3,0 L2,5 L-4,6 L-2,2 Z " fill="#0C0C0C" transform="translate(18,14)"/>
</svg>
