<?xml version="1.0" encoding="UTF-8"?>
<svg version="1.1" xmlns="http://www.w3.org/2000/svg" width="28" height="28">
<path d="M0,0 L28,0 L28,28 L0,28 Z " fill="#020202" transform="translate(0,0)"/>
<path d="M0,0 L2,0 L2,2 L-3,4 L-3,6 L-6,9 L-7,15 L1,11 L6,11 L8,13 L7,17 L1,20 L-6,20 L-10,15 L-9,7 L-2,1 Z " fill="#D5D5D5" transform="translate(17,2)"/>
<path d="M0,0 L2,0 L2,2 L-3,4 L-3,6 L-6,9 L-7,15 L-2,12 L2,13 L-5,17 L-9,17 L-10,11 L-8,6 Z " fill="#D9D9D9" transform="translate(17,2)"/>
<path d="M0,0 L5,1 L5,3 L3,4 L-5,4 L-2,1 Z " fill="#1B1B1B" transform="translate(18,15)"/>
</svg>
