<?xml version="1.0" encoding="UTF-8"?>
<svg version="1.1" xmlns="http://www.w3.org/2000/svg" width="28" height="28">
<path d="M0,0 L28,0 L28,28 L0,28 Z " fill="#030303" transform="translate(0,0)"/>
<path d="M0,0 L2,0 L1,5 L0,7 L-2,7 L-2,13 L3,8 L7,9 L8,14 L3,19 L2,20 L-5,19 L-6,12 L-3,5 Z " fill="#EDEDED" transform="translate(14,2)"/>
<path d="M0,0 L4,1 L5,6 L1,6 L1,8 L-2,8 L-2,4 L-4,3 Z " fill="#A4A4A4" transform="translate(17,10)"/>
<path d="M0,0 L2,0 L1,5 L0,7 L-2,7 L-3,11 L-5,10 L-3,5 Z " fill="#D2D2D2" transform="translate(14,2)"/>
</svg>
