<?xml version="1.0" encoding="UTF-8"?>
<svg version="1.1" xmlns="http://www.w3.org/2000/svg" width="28" height="28">
<path d="M0,0 L28,0 L28,28 L0,28 Z " fill="#010101" transform="translate(0,0)"/>
<path d="M0,0 L2,1 L0,5 L-4,9 L1,11 L2,16 L-2,20 L-8,19 L-10,14 L-8,8 L-4,4 Z " fill="#DEDEDE" transform="translate(18,3)"/>
<path d="M0,0 L4,1 L5,6 L1,10 L-3,9 L-3,7 L-4,3 L-3,1 Z " fill="#D5D5D5" transform="translate(15,13)"/>
<path d="M0,0 L5,2 L4,6 L-1,5 Z " fill="#040404" transform="translate(12,14)"/>
</svg>
