<?xml version="1.0" encoding="UTF-8"?>
<svg version="1.1" xmlns="http://www.w3.org/2000/svg" width="28" height="28">
<path d="M0,0 L28,0 L28,28 L0,28 Z " fill="#020202" transform="translate(0,0)"/>
<path d="M0,0 L1,4 L-2,9 L-2,15 L1,10 L5,9 L7,11 L6,17 L1,20 L-3,19 L-5,18 L-5,8 Z " fill="#C7C7C7" transform="translate(15,3)"/>
<path d="M0,0 L1,4 L-2,9 L-4,16 L-5,16 L-5,8 Z " fill="#D8D8D8" transform="translate(15,3)"/>
<path d="M0,0 L3,0 L2,5 L-2,6 L-1,1 Z " fill="#0B0B0B" transform="translate(17,14)"/>
</svg>
