<?xml version="1.0" encoding="UTF-8"?>
<svg version="1.1" xmlns="http://www.w3.org/2000/svg" width="28" height="28">
<path d="M0,0 L28,0 L28,28 L0,28 Z " fill="#020202" transform="translate(0,0)"/>
<path d="M0,0 L2,0 L2,2 L0,3 L-1,6 L-1,13 L6,12 L6,18 L3,20 L-1,19 L-4,14 L-3,3 Z " fill="#D4D4D4" transform="translate(14,2)"/>
<path d="M0,0 L5,0 L5,6 L3,7 L-1,5 L-1,3 L-3,3 L-2,1 Z " fill="#919191" transform="translate(15,14)"/>
<path d="M0,0 L1,4 L3,4 L4,6 L7,8 L3,9 L0,5 Z " fill="#EFEFEF" transform="translate(11,13)"/>
</svg>
