<?xml version="1.0" encoding="UTF-8"?>
<svg version="1.1" xmlns="http://www.w3.org/2000/svg" width="28" height="28">
<path d="M0,0 L28,0 L28,28 L0,28 Z " fill="#030303" transform="translate(0,0)"/>
<path d="M0,0 L2,0 L1,4 L-5,11 L1,7 L5,9 L6,14 L4,18 L-1,20 L-7,20 L-10,18 L-10,10 Z " fill="#EBEBEB" transform="translate(17,3)"/>
<path d="M0,0 L4,2 L5,7 L3,11 L-3,13 L-5,8 L-2,1 Z " fill="#E1E1E1" transform="translate(18,10)"/>
<path d="M0,0 L3,0 L3,5 L-3,5 L-2,1 Z " fill="#121212" transform="translate(16,15)"/>
</svg>
