<?xml version="1.0" encoding="UTF-8"?>
<svg version="1.1" xmlns="http://www.w3.org/2000/svg" width="28" height="28">
<path d="M0,0 L28,0 L28,28 L0,28 Z " fill="#040404" transform="translate(0,0)"/>
<path d="M0,0 L2,0 L4,7 L10,8 L12,10 L14,9 L13,15 L9,20 L1,20 L-2,17 L-2,9 L-1,8 Z " fill="#EEEEEE" transform="translate(10,2)"/>
<path d="M0,0 L2,3 L8,4 L10,6 L12,5 L11,11 L9,13 L7,13 L2,14 L3,10 L1,10 Z " fill="#D7D7D7" transform="translate(12,6)"/>
<path d="M0,0 L5,0 L6,1 L6,6 L4,8 L0,7 L1,4 L-1,4 Z " fill="#171717" transform="translate(14,12)"/>
</svg>
