<?xml version="1.0" encoding="UTF-8"?>
<svg version="1.1" xmlns="http://www.w3.org/2000/svg" width="28" height="28">
<path d="M0,0 L28,0 L28,28 L0,28 Z " fill="#030303" transform="translate(0,0)"/>
<path d="M0,0 L3,1 L0,4 L1,8 L4,6 L13,6 L17,9 L16,13 L13,14 L3,14 L-2,10 L-3,5 Z " fill="#DEDEDE" transform="translate(9,6)"/>
<path d="M0,0 L8,0 L10,3 L9,4 L-1,4 Z " fill="#090909" transform="translate(14,14)"/>
<path d="M0,0 L9,0 L12,3 L9,3 L0,3 Z " fill="#CDCDCD" transform="translate(13,12)"/>
<path d="M0,0 L3,1 L0,4 L0,8 L-2,8 L-3,5 Z " fill="#F1F1F1" transform="translate(9,6)"/>
</svg>
