<?xml version="1.0" encoding="UTF-8"?>
<svg version="1.1" xmlns="http://www.w3.org/2000/svg" width="28" height="28">
<path d="M0,0 L28,0 L28,28 L0,28 Z " fill="#020202" transform="translate(0,0)"/>
<path d="M0,0 L2,1 L1,8 L0,12 L2,11 L8,11 L8,17 L4,20 L-1,19 L-3,17 L-3,9 Z " fill="#C4C4C4" transform="translate(13,2)"/>
<path d="M0,0 L4,0 L4,6 L-1,9 L1,4 L2,2 L-1,1 Z " fill="#EFEFEF" transform="translate(17,13)"/>
<path d="M0,0 L2,1 L1,8 L-2,9 L-1,1 Z " fill="#E1E1E1" transform="translate(13,2)"/>
</svg>
