<?xml version="1.0" encoding="UTF-8"?>
<svg version="1.1" xmlns="http://www.w3.org/2000/svg" width="28" height="28">
<path d="M0,0 L28,0 L28,28 L0,28 Z " fill="#020202" transform="translate(0,0)"/>
<path d="M0,0 L2,0 L2,3 L-3,8 L-5,11 L3,11 L4,15 L-2,20 L-9,20 L-10,19 L-10,13 L-4,4 Z " fill="#E7E7E7" transform="translate(18,2)"/>
<path d="M0,0 L5,0 L6,4 L2,8 L0,8 L0,6 L-5,6 L-2,4 Z " fill="#ABABAB" transform="translate(16,13)"/>
<path d="M0,0 L2,0 L2,3 L-3,8 L-5,11 L-3,12 L-8,11 L-6,6 L-2,1 Z " fill="#CBCBCB" transform="translate(18,2)"/>
</svg>
