<?xml version="1.0" encoding="UTF-8"?>
<svg version="1.1" xmlns="http://www.w3.org/2000/svg" width="28" height="28">
<path d="M0,0 L28,0 L28,28 L0,28 Z " fill="#040404" transform="translate(0,0)"/>
<path d="M0,0 L2,0 L3,2 L3,10 L0,18 L5,19 L5,12 L9,10 L14,10 L17,13 L16,18 L14,20 L-2,20 L-3,15 L-2,12 L-1,1 Z " fill="#E9E9E9" transform="translate(9,1)"/>
<path d="M0,0 L2,0 L3,2 L3,10 L0,18 L3,18 L3,20 L-2,20 L-3,15 L-2,12 L-1,1 Z " fill="#DADADA" transform="translate(9,1)"/>
<path d="M0,0 L5,0 L8,3 L7,8 L5,10 L2,10 L4,6 L5,3 L-1,4 Z " fill="#F1F1F1" transform="translate(18,11)"/>
<path d="M0,0 L1,4 L0,7 L3,7 L3,9 L-2,9 L-3,4 L-2,1 Z " fill="#F2F2F2" transform="translate(9,12)"/>
<path d="M0,0 L4,0 L3,4 L-1,6 L-2,1 Z " fill="#111111" transform="translate(19,14)"/>
</svg>
