<?xml version="1.0" encoding="UTF-8"?>
<svg version="1.1" xmlns="http://www.w3.org/2000/svg" width="28" height="28">
<path d="M0,0 L28,0 L28,28 L0,28 Z " fill="#020202" transform="translate(0,0)"/>
<path d="M0,0 L2,0 L1,5 L-3,10 L7,8 L10,12 L8,16 L2,17 L2,19 L-8,20 L-10,18 L-9,11 L-3,3 L-1,3 Z " fill="#F3F3F3" transform="translate(16,2)"/>
<path d="M0,0 L4,2 L5,6 L0,9 L-3,8 L-4,9 L-9,8 L-7,7 L-6,1 Z " fill="#E5E5E5" transform="translate(21,10)"/>
<path d="M0,0 L5,0 L5,2 L1,3 L1,5 L-4,4 L-2,3 L-2,1 Z " fill="#202020" transform="translate(16,14)"/>
</svg>
