<?xml version="1.0" encoding="UTF-8"?>
<svg version="1.1" xmlns="http://www.w3.org/2000/svg" width="28" height="28">
<path d="M0,0 L28,0 L28,28 L0,28 Z " fill="#040404" transform="translate(0,0)"/>
<path d="M0,0 L3,1 L3,4 L1,4 L0,14 L4,13 L5,10 L7,9 L14,9 L16,12 L16,15 L6,14 L6,16 L11,16 L8,19 L0,19 L-3,16 L-4,8 Z " fill="#ECECEC" transform="translate(9,2)"/>
<path d="M0,0 L3,1 L3,4 L1,4 L0,15 L-3,16 L-4,8 Z " fill="#D5D5D5" transform="translate(9,2)"/>
<path d="M0,0 L5,0 L7,3 L3,5 L3,3 L-2,3 L-2,1 Z " fill="#707070" transform="translate(17,15)"/>
</svg>
