<?xml version="1.0" encoding="UTF-8"?>
<svg version="1.1" xmlns="http://www.w3.org/2000/svg" width="28" height="28">
<path d="M0,0 L28,0 L28,28 L0,28 Z " fill="#020202" transform="translate(0,0)"/>
<path d="M0,0 L2,1 L0,6 L-3,11 L3,10 L6,14 L5,18 L0,20 L-5,19 L-7,17 L-6,9 Z " fill="#F2F2F2" transform="translate(16,2)"/>
<path d="M0,0 L4,1 L6,6 L3,9 L-4,7 L-4,4 L-2,4 Z " fill="#DBDBDB" transform="translate(16,12)"/>
<path d="M0,0 L2,1 L0,6 L-2,11 L-5,11 L-5,8 Z " fill="#D7D7D7" transform="translate(16,2)"/>
<path d="M0,0 L5,0 L5,4 L-2,4 L-2,1 Z " fill="#212121" transform="translate(14,15)"/>
</svg>
