<?xml version="1.0" encoding="UTF-8"?>
<svg version="1.1" xmlns="http://www.w3.org/2000/svg" width="28" height="28">
<path d="M0,0 L28,0 L28,28 L0,28 Z " fill="#020202" transform="translate(0,0)"/>
<path d="M0,0 L3,0 L4,6 L2,10 L2,15 L6,16 L5,10 L9,6 L15,7 L18,10 L17,15 L12,18 L1,18 L-2,16 L-1,9 Z " fill="#E9E9E9" transform="translate(8,3)"/>
<path d="M0,0 L5,0 L6,4 L3,6 L-1,5 Z " fill="#0F0F0F" transform="translate(17,12)"/>
<path d="M0,0 L6,1 L4,3 L0,4 L-1,8 L-4,8 L-3,3 Z " fill="#D7D7D7" transform="translate(17,9)"/>
<path d="M0,0 L4,0 L5,6 L0,5 Z " fill="#212121" transform="translate(9,13)"/>
</svg>
