<?xml version="1.0" encoding="UTF-8"?>
<svg version="1.1" xmlns="http://www.w3.org/2000/svg" width="28" height="28">
<path d="M0,0 L28,0 L28,28 L0,28 Z " fill="#020202" transform="translate(0,0)"/>
<path d="M0,0 L1,3 L-6,10 L-7,13 L-2,13 L-1,17 L-5,20 L-12,20 L-13,19 L-13,14 L-3,2 Z " fill="#E8E8E8" transform="translate(21,2)"/>
<path d="M0,0 L1,3 L-6,10 L-9,16 L-11,15 L-10,10 L-3,2 Z " fill="#D3D3D3" transform="translate(21,2)"/>
<path d="M0,0 L2,0 L1,6 L-2,6 L-1,1 Z " fill="#BABABA" transform="translate(12,11)"/>
</svg>
