<?xml version="1.0" encoding="UTF-8"?>
<svg version="1.1" xmlns="http://www.w3.org/2000/svg" width="28" height="28">
<path d="M0,0 L28,0 L28,28 L0,28 Z " fill="#040404" transform="translate(0,0)"/>
<path d="M0,0 L7,0 L10,2 L9,5 L9,3 L1,3 L-2,6 L-2,13 L0,17 L2,18 L1,13 L3,10 L8,11 L9,12 L9,17 L5,20 L0,20 L-4,15 L-4,5 Z " fill="#E1E1E1" transform="translate(12,4)"/>
<path d="M0,0 L5,1 L6,2 L6,7 L3,9 L0,7 L-1,1 Z " fill="#CECECE" transform="translate(15,14)"/>
<path d="M0,0 L7,0 L10,2 L9,5 L9,3 L1,3 L-2,5 L-2,2 Z " fill="#C9C9C9" transform="translate(12,4)"/>
<path d="M0,0 L4,1 L3,5 L-1,5 Z " fill="#1A1A1A" transform="translate(16,16)"/>
</svg>
