<?xml version="1.0" encoding="UTF-8"?>
<svg version="1.1" xmlns="http://www.w3.org/2000/svg" width="28" height="28">
<path d="M0,0 L28,0 L28,28 L0,28 Z " fill="#030303" transform="translate(0,0)"/>
<path d="M0,0 L4,1 L5,3 L2,4 L2,12 L5,13 L6,9 L10,6 L17,6 L18,9 L14,13 L7,16 L1,16 L-2,12 L-2,5 Z " fill="#EBEBEB" transform="translate(8,5)"/>
<path d="M0,0 L4,1 L5,3 L2,4 L2,12 L5,13 L6,10 L7,16 L1,16 L-2,12 L-2,5 Z " fill="#DADADA" transform="translate(8,5)"/>
<path d="M0,0 L3,0 L2,3 L-3,6 L-6,6 L-4,2 Z " fill="#232323" transform="translate(21,12)"/>
<path d="M0,0 L4,1 L5,3 L2,4 L1,11 L-2,7 Z " fill="#C3C3C3" transform="translate(8,5)"/>
</svg>
