<?xml version="1.0" encoding="UTF-8"?>
<svg version="1.1" xmlns="http://www.w3.org/2000/svg" width="28" height="28">
<path d="M0,0 L28,0 L28,28 L0,28 Z " fill="#010101" transform="translate(0,0)"/>
<path d="M0,0 L2,0 L1,5 L-1,11 L3,10 L8,12 L8,17 L6,17 L6,19 L0,20 L-1,17 L-3,17 L-4,14 L-4,7 L-2,2 Z " fill="#F0F0F0" transform="translate(14,3)"/>
<path d="M0,0 L7,2 L7,7 L0,8 L-1,4 Z " fill="#BEBEBE" transform="translate(15,13)"/>
<path d="M0,0 L3,0 L4,3 L10,2 L9,5 L3,6 L2,3 L0,3 Z " fill="#CECECE" transform="translate(11,17)"/>
<path d="M0,0 L6,0 L5,3 L1,4 Z " fill="#131313" transform="translate(14,17)"/>
<path d="M0,0 L2,0 L1,5 L-2,5 L-2,2 Z " fill="#D0D0D0" transform="translate(14,3)"/>
</svg>
