<?xml version="1.0" encoding="UTF-8"?>
<svg version="1.1" xmlns="http://www.w3.org/2000/svg" width="28" height="28">
<path d="M0,0 L28,0 L28,28 L0,28 Z " fill="#030303" transform="translate(0,0)"/>
<path d="M0,0 L3,1 L4,7 L2,16 L5,18 L5,13 L9,10 L14,10 L17,13 L17,18 L14,20 L0,20 L-2,17 L-2,11 L-1,9 Z " fill="#EBEBEB" transform="translate(8,1)"/>
<path d="M0,0 L3,1 L4,7 L1,16 L-2,15 L-1,9 Z " fill="#E3E3E3" transform="translate(8,1)"/>
<path d="M0,0 L5,1 L5,4 L0,5 L-1,1 Z " fill="#1F1F1F" transform="translate(17,14)"/>
</svg>
