<?xml version="1.0" encoding="UTF-8"?>
<svg version="1.1" xmlns="http://www.w3.org/2000/svg" width="28" height="28">
<path d="M0,0 L28,0 L28,28 L0,28 Z " fill="#040404" transform="translate(0,0)"/>
<path d="M0,0 L5,0 L6,2 L-1,5 L-6,10 L-7,15 L0,10 L6,10 L8,12 L8,17 L0,20 L-8,19 L-11,16 L-11,10 L-10,8 L-8,8 L-7,5 L-5,5 L-4,2 L0,2 Z " fill="#C8C8C8" transform="translate(16,3)"/>
<path d="M0,0 L6,0 L8,2 L8,7 L2,9 L-3,8 L-4,6 L-6,7 L-4,3 Z " fill="#D4D4D4" transform="translate(16,13)"/>
<path d="M0,0 L1,0 L3,6 L6,5 L6,8 L11,8 L9,10 L1,9 L-1,7 L-1,1 Z " fill="#F1F1F1" transform="translate(7,13)"/>
<path d="M0,0 L5,1 L4,4 L1,6 L-4,6 L-2,1 Z " fill="#181818" transform="translate(17,15)"/>
</svg>
