<?xml version="1.0" encoding="UTF-8"?>
<svg version="1.1" xmlns="http://www.w3.org/2000/svg" width="28" height="28">
<path d="M0,0 L28,0 L28,28 L0,28 Z " fill="#030303" transform="translate(0,0)"/>
<path d="M0,0 L1,0 L1,13 L3,13 L4,10 L8,8 L13,9 L14,13 L10,18 L1,20 L-2,19 L-3,15 L-3,5 Z " fill="#E9E9E9" transform="translate(10,2)"/>
<path d="M0,0 L1,0 L1,8 L4,8 L4,10 L9,10 L8,13 L2,14 L-1,13 L-1,1 Z " fill="#EFEFEF" transform="translate(9,8)"/>
<path d="M0,0 L1,0 L2,14 L0,14 L-1,7 L-2,15 L-3,15 L-3,5 Z " fill="#B1B1B1" transform="translate(10,2)"/>
<path d="M0,0 L3,1 L2,5 L-2,7 L-3,5 L-5,3 Z " fill="#989898" transform="translate(19,14)"/>
</svg>
