<?xml version="1.0" encoding="UTF-8"?>
<svg version="1.1" xmlns="http://www.w3.org/2000/svg" width="28" height="28">
<path d="M0,0 L28,0 L28,28 L0,28 Z " fill="#010101" transform="translate(0,0)"/>
<path d="M0,0 L2,0 L1,9 L-1,15 L0,16 L1,12 L6,11 L7,14 L4,19 L-1,20 L-4,17 L-3,9 Z " fill="#E9E9E9" transform="translate(13,2)"/>
<path d="M0,0 L2,0 L1,9 L-2,18 L-4,17 L-3,9 Z " fill="#D1D1D1" transform="translate(13,2)"/>
<path d="M0,0 L2,0 L2,6 L0,6 L-2,8 L-1,1 Z " fill="#BBBBBB" transform="translate(13,2)"/>
</svg>
