<?xml version="1.0" encoding="UTF-8"?>
<svg version="1.1" xmlns="http://www.w3.org/2000/svg" width="28" height="28">
<path d="M0,0 L28,0 L28,28 L0,28 Z " fill="#020202" transform="translate(0,0)"/>
<path d="M0,0 L3,1 L1,7 L-1,11 L-1,14 L1,14 L2,11 L5,12 L5,17 L0,20 L-4,19 L-5,11 Z " fill="#DFDFDF" transform="translate(15,2)"/>
<path d="M0,0 L2,0 L2,5 L-3,8 L-7,7 L-7,5 L-2,3 L0,4 L-1,1 Z " fill="#F6F6F6" transform="translate(18,14)"/>
<path d="M0,0 L2,1 L1,5 L-5,6 L-4,2 L-1,3 Z " fill="#C6C6C6" transform="translate(17,13)"/>
</svg>
