<?xml version="1.0" encoding="UTF-8"?>
<svg version="1.1" xmlns="http://www.w3.org/2000/svg" width="28" height="28">
<path d="M0,0 L28,0 L28,28 L0,28 Z " fill="#040404" transform="translate(0,0)"/>
<path d="M0,0 L3,1 L1,10 L0,15 L1,16 L4,9 L9,8 L10,13 L7,19 L2,20 L-2,16 L-4,9 Z " fill="#F1F1F1" transform="translate(12,3)"/>
<path d="M0,0 L4,1 L4,5 L-2,7 L-2,5 L-3,3 Z " fill="#C6C6C6" transform="translate(18,11)"/>
<path d="M0,0 L3,1 L1,10 L-2,7 Z " fill="#D2D2D2" transform="translate(12,3)"/>
</svg>
