<?xml version="1.0" encoding="UTF-8"?>
<svg version="1.1" xmlns="http://www.w3.org/2000/svg" width="28" height="28">
<path d="M0,0 L28,0 L28,28 L0,28 Z " fill="#030303" transform="translate(0,0)"/>
<path d="M0,0 L2,1 L-1,7 L-1,12 L5,9 L10,10 L11,16 L5,20 L-2,19 L-6,14 L-4,5 Z " fill="#D7D7D7" transform="translate(13,2)"/>
<path d="M0,0 L5,1 L6,5 L4,6 L4,4 L-2,4 L-3,2 Z " fill="#E6E6E6" transform="translate(18,11)"/>
<path d="M0,0 L6,1 L3,4 L-2,4 Z " fill="#131313" transform="translate(15,15)"/>
</svg>
