<?xml version="1.0" encoding="UTF-8"?>
<svg version="1.1" xmlns="http://www.w3.org/2000/svg" width="28" height="28">
<path d="M0,0 L28,0 L28,28 L0,28 Z " fill="#010101" transform="translate(0,0)"/>
<path d="M0,0 L3,1 L2,4 L-1,4 L-4,10 L-4,12 L1,12 L2,17 L-1,20 L-6,20 L-7,19 L-7,11 L-3,3 Z " fill="#C6C6C6" transform="translate(17,3)"/>
<path d="M0,0 L5,1 L4,6 L2,8 L-3,8 L-4,4 L-2,2 L-2,6 L3,4 L3,2 Z " fill="#DDDDDD" transform="translate(14,15)"/>
<path d="M0,0 L4,1 L2,5 L-2,5 L-1,1 Z " fill="#141414" transform="translate(14,16)"/>
</svg>
