<?xml version="1.0" encoding="UTF-8"?>
<svg version="1.1" xmlns="http://www.w3.org/2000/svg" width="28" height="28">
<path d="M0,0 L28,0 L28,28 L0,28 Z " fill="#020202" transform="translate(0,0)"/>
<path d="M0,0 L5,1 L1,3 L-4,13 L3,14 L2,19 L-2,20 L-5,18 L-6,11 L-4,6 Z " fill="#C8C8C8" transform="translate(16,3)"/>
<path d="M0,0 L1,4 L-1,6 L-6,5 L-7,2 Z " fill="#9B9B9B" transform="translate(18,17)"/>
<path d="M0,0 L1,4 L6,4 L6,7 L0,7 L-1,2 Z " fill="#EDEDED" transform="translate(11,12)"/>
</svg>
