<?xml version="1.0" encoding="UTF-8"?>
<svg version="1.1" xmlns="http://www.w3.org/2000/svg" width="28" height="28">
<path d="M0,0 L28,0 L28,28 L0,28 Z " fill="#020202" transform="translate(0,0)"/>
<path d="M0,0 L2,0 L2,2 L0,2 L-2,6 L-6,14 L-6,17 L-3,18 L-2,13 L3,10 L7,11 L5,17 L0,20 L-7,20 L-9,17 L-9,12 L-3,4 Z " fill="#AAAAAA" transform="translate(16,2)"/>
<path d="M0,0 L2,0 L2,2 L0,2 L-2,6 L-6,14 L-5,18 L3,17 L0,20 L-7,20 L-9,17 L-9,12 L-3,4 Z " fill="#D3D3D3" transform="translate(16,2)"/>
<path d="M0,0 L3,0 L2,4 L-3,5 L-3,2 Z " fill="#0B0B0B" transform="translate(18,14)"/>
</svg>
