<?xml version="1.0" encoding="UTF-8"?>
<svg version="1.1" xmlns="http://www.w3.org/2000/svg" width="28" height="28">
<path d="M0,0 L28,0 L28,28 L0,28 Z " fill="#030303" transform="translate(0,0)"/>
<path d="M0,0 L2,0 L3,2 L3,9 L1,12 L2,16 L3,11 L6,9 L12,9 L15,11 L14,17 L12,19 L8,20 L-1,20 L-3,17 L-3,12 L-1,9 Z " fill="#D9D9D9" transform="translate(10,2)"/>
<path d="M0,0 L6,0 L9,2 L8,8 L4,10 L4,8 L-1,6 L-2,4 L-4,7 L-3,2 Z " fill="#DCDCDC" transform="translate(16,11)"/>
<path d="M0,0 L2,3 L7,4 L6,7 L-1,8 L-2,6 L0,6 L-1,1 Z " fill="#F3F3F3" transform="translate(14,14)"/>
<path d="M0,0 L4,1 L3,5 L-2,5 L-2,1 Z " fill="#161616" transform="translate(18,13)"/>
</svg>
