<?xml version="1.0" encoding="UTF-8"?>
<svg version="1.1" xmlns="http://www.w3.org/2000/svg" width="28" height="28">
<path d="M0,0 L28,0 L28,28 L0,28 Z " fill="#020202" transform="translate(0,0)"/>
<path d="M0,0 L3,0 L4,13 L8,17 L9,8 L12,5 L15,5 L16,12 L13,20 L6,20 L1,15 L0,12 Z " fill="#DEDEDE" transform="translate(7,3)"/>
<path d="M0,0 L3,1 L2,9 L0,12 L-2,12 L-3,3 Z " fill="#CCCCCC" transform="translate(19,8)"/>
<path d="M0,0 L2,0 L2,6 L-1,8 Z " fill="#1B1B1B" transform="translate(19,11)"/>
</svg>
