<?xml version="1.0" encoding="UTF-8"?>
<svg version="1.1" xmlns="http://www.w3.org/2000/svg" width="28" height="28">
<path d="M0,0 L28,0 L28,28 L0,28 Z " fill="#020202" transform="translate(0,0)"/>
<path d="M0,0 L2,0 L2,2 L5,2 L7,6 L9,0 L12,0 L13,5 L8,8 L3,10 L-5,10 L-4,7 L0,6 L-1,1 Z " fill="#E9E9E9" transform="translate(10,11)"/>
<path d="M0,0 L3,0 L4,5 L-1,8 L-6,9 L-5,5 L-2,4 L-1,3 Z " fill="#9F9F9F" transform="translate(19,11)"/>
<path d="M0,0 L3,1 L2,4 L0,4 L-2,8 L-6,9 L-5,6 L-3,6 L-2,2 L0,2 Z " fill="#8F8F8F" transform="translate(18,1)"/>
<path d="M0,0 L2,1 L2,3 L8,2 L8,8 L4,7 L4,4 L1,4 Z " fill="#474747" transform="translate(11,9)"/>
<path d="M0,0 L3,0 L4,5 L0,5 L-1,3 Z " fill="#E1E1E1" transform="translate(19,11)"/>
</svg>
