<?xml version="1.0" encoding="UTF-8"?>
<svg version="1.1" xmlns="http://www.w3.org/2000/svg" width="28" height="28">
<path d="M0,0 L28,0 L28,28 L0,28 Z " fill="#020202" transform="translate(0,0)"/>
<path d="M0,0 L2,1 L1,10 L8,9 L10,11 L9,16 L4,20 L-1,19 L-4,17 L-4,10 L-1,5 Z " fill="#DCDCDC" transform="translate(13,2)"/>
<path d="M0,0 L4,1 L2,5 L-4,6 L-4,2 Z " fill="#212121" transform="translate(18,13)"/>
<path d="M0,0 L2,1 L0,10 L-4,15 L-4,10 L-1,5 Z " fill="#E5E5E5" transform="translate(13,2)"/>
<path d="M0,0 L2,0 L1,6 L-1,8 L-3,7 L-1,2 Z " fill="#B0B0B0" transform="translate(12,12)"/>
</svg>
