<?xml version="1.0" encoding="UTF-8"?>
<svg version="1.1" xmlns="http://www.w3.org/2000/svg" width="28" height="28">
<path d="M0,0 L28,0 L28,28 L0,28 Z " fill="#030303" transform="translate(0,0)"/>
<path d="M0,0 L3,0 L2,6 L0,9 L-2,9 L-3,15 L5,12 L12,12 L11,17 L2,20 L-5,19 L-7,13 L-2,4 Z " fill="#E8E8E8" transform="translate(13,2)"/>
<path d="M0,0 L7,0 L6,5 L0,7 L-4,6 L-4,4 L0,2 Z " fill="#EAEAEA" transform="translate(18,14)"/>
<path d="M0,0 L7,0 L4,1 L4,4 L-3,5 L0,1 Z " fill="#7E7E7E" transform="translate(18,14)"/>
</svg>
