<?xml version="1.0" encoding="UTF-8"?>
<svg version="1.1" xmlns="http://www.w3.org/2000/svg" width="28" height="28">
<path d="M0,0 L28,0 L28,28 L0,28 Z " fill="#030303" transform="translate(0,0)"/>
<path d="M0,0 L3,1 L1,5 L-5,10 L-4,11 L3,9 L8,9 L10,13 L6,17 L2,18 L-7,18 L-10,14 L-9,10 L-2,2 Z " fill="#DDDDDD" transform="translate(15,3)"/>
<path d="M0,0 L5,0 L7,4 L3,8 L-1,9 L-10,9 L-10,8 L-3,7 L-6,5 L0,1 Z " fill="#D2D2D2" transform="translate(18,12)"/>
<path d="M0,0 L1,2 L3,2 L3,5 L9,5 L9,6 L0,6 L-2,2 Z " fill="#FBFBFB" transform="translate(7,14)"/>
<path d="M0,0 L6,0 L4,3 L0,4 L-3,2 Z " fill="#101010" transform="translate(15,15)"/>
</svg>
