<?xml version="1.0" encoding="UTF-8"?>
<svg version="1.1" xmlns="http://www.w3.org/2000/svg" width="28" height="28">
<path d="M0,0 L28,0 L28,28 L0,28 Z " fill="#040404" transform="translate(0,0)"/>
<path d="M0,0 L2,0 L1,4 L-5,13 L-6,17 L-2,17 L0,12 L4,9 L9,10 L9,13 L5,17 L-1,20 L-9,19 L-10,15 Z " fill="#B5B5B5" transform="translate(15,2)"/>
<path d="M0,0 L2,0 L1,4 L-5,13 L-6,17 L-3,19 L-6,20 L-10,18 L-9,13 L-2,3 Z " fill="#DBDBDB" transform="translate(15,2)"/>
<path d="M0,0 L5,1 L5,4 L1,8 L-1,8 L0,4 L-2,3 Z " fill="#E3E3E3" transform="translate(19,11)"/>
<path d="M0,0 L2,0 L2,5 L5,7 L2,8 L-2,6 L-1,1 Z " fill="#F3F3F3" transform="translate(7,14)"/>
</svg>
