<?xml version="1.0" encoding="UTF-8"?>
<svg version="1.1" xmlns="http://www.w3.org/2000/svg" width="28" height="28">
<path d="M0,0 L28,0 L28,28 L0,28 Z " fill="#030303" transform="translate(0,0)"/>
<path d="M0,0 L2,0 L2,3 L-1,6 L-4,11 L-3,12 L1,9 L5,9 L3,16 L-2,20 L-7,19 L-7,10 Z " fill="#E0E0E0" transform="translate(16,3)"/>
<path d="M0,0 L4,0 L2,7 L-3,11 L-7,10 L-5,10 L-4,5 L0,3 Z " fill="#C8C8C8" transform="translate(17,12)"/>
<path d="M0,0 L2,0 L0,5 L-5,7 L-4,3 Z " fill="#121212" transform="translate(17,14)"/>
</svg>
