<?xml version="1.0" encoding="UTF-8"?>
<svg version="1.1" xmlns="http://www.w3.org/2000/svg" width="28" height="28">
<path d="M0,0 L28,0 L28,28 L0,28 Z " fill="#030303" transform="translate(0,0)"/>
<path d="M0,0 L3,0 L2,3 L0,3 L-1,7 L-4,11 L-3,12 L2,8 L8,8 L8,13 L4,18 L-1,20 L-6,20 L-8,17 L-8,10 L-3,4 L-2,1 Z " fill="#E5E5E5" transform="translate(15,3)"/>
<path d="M0,0 L6,0 L6,5 L2,10 L0,10 L0,8 L-3,8 L-1,4 Z " fill="#E2E2E2" transform="translate(17,11)"/>
<path d="M0,0 L3,0 L1,4 L-3,5 L-1,1 Z " fill="#282828" transform="translate(17,14)"/>
</svg>
