<?xml version="1.0" encoding="UTF-8"?>
<svg version="1.1" xmlns="http://www.w3.org/2000/svg" width="28" height="28">
<path d="M0,0 L28,0 L28,28 L0,28 Z " fill="#030303" transform="translate(0,0)"/>
<path d="M0,0 L3,0 L4,3 L-1,3 L-3,7 L-6,18 L-1,16 L-1,14 L-3,16 L-2,10 L2,8 L3,9 L2,16 L-2,20 L-7,19 L-7,9 L-3,2 Z " fill="#D7D7D7" transform="translate(17,3)"/>
<path d="M0,0 L1,2 L3,3 L3,5 L6,2 L5,7 L3,9 L-1,9 Z " fill="#202020" transform="translate(12,12)"/>
<path d="M0,0 L3,0 L4,3 L-1,3 L-2,6 L-4,4 Z " fill="#C9C9C9" transform="translate(17,3)"/>
</svg>
