<?xml version="1.0" encoding="UTF-8"?>
<svg version="1.1" xmlns="http://www.w3.org/2000/svg" width="28" height="28">
<path d="M0,0 L28,0 L28,28 L0,28 Z " fill="#030303" transform="translate(0,0)"/>
<path d="M0,0 L1,2 L-1,6 L-1,14 L6,9 L10,10 L11,15 L6,20 L-1,20 L-5,15 L-5,4 Z " fill="#F2F2F2" transform="translate(13,2)"/>
<path d="M0,0 L4,1 L5,6 L2,10 L0,10 L0,8 L-3,8 L-1,3 L-3,2 Z M0,7 Z " fill="#B1B1B1" transform="translate(19,11)"/>
<path d="M0,0 L1,2 L-2,6 L-3,5 L-5,7 L-4,3 Z " fill="#D8D8D8" transform="translate(13,2)"/>
</svg>
