<?xml version="1.0" encoding="UTF-8"?>
<svg version="1.1" xmlns="http://www.w3.org/2000/svg" width="28" height="28">
<path d="M0,0 L28,0 L28,28 L0,28 Z " fill="#030303" transform="translate(0,0)"/>
<path d="M0,0 L2,0 L0,5 L-4,12 L-3,13 L0,10 L6,10 L7,14 L2,19 L1,20 L-4,20 L-7,17 L-6,10 Z " fill="#C6C6C6" transform="translate(16,2)"/>
<path d="M0,0 L2,0 L0,5 L-4,12 L-2,17 L-1,19 L-6,18 L-7,17 L-6,10 Z " fill="#EFEFEF" transform="translate(16,2)"/>
<path d="M0,0 L5,0 L4,4 L-2,6 L-3,4 Z " fill="#090909" transform="translate(16,14)"/>
<path d="M0,0 L2,0 L0,5 L-3,10 L-5,10 L-3,4 Z " fill="#D4D4D4" transform="translate(16,2)"/>
</svg>
