<?xml version="1.0" encoding="UTF-8"?>
<svg version="1.1" xmlns="http://www.w3.org/2000/svg" width="28" height="28">
<path d="M0,0 L28,0 L28,28 L0,28 Z " fill="#020202" transform="translate(0,0)"/>
<path d="M0,0 L2,0 L1,5 L-1,9 L3,10 L4,15 L2,19 L-3,20 L-4,19 L-4,8 Z " fill="#DADADA" transform="translate(15,3)"/>
<path d="M0,0 L2,0 L1,5 L-1,9 L3,10 L4,15 L2,15 L1,12 L-3,12 L-3,6 Z " fill="#E5E5E5" transform="translate(15,3)"/>
<path d="M0,0 L3,1 L2,6 L-1,7 L-2,2 Z " fill="#242424" transform="translate(14,14)"/>
</svg>
