<?xml version="1.0" encoding="UTF-8"?>
<svg version="1.1" xmlns="http://www.w3.org/2000/svg" width="28" height="28">
<path d="M0,0 L28,0 L28,28 L0,28 Z " fill="#040404" transform="translate(0,0)"/>
<path d="M0,0 L2,0 L1,4 L-10,12 L-10,14 L-5,12 L0,12 L1,16 L-3,18 L-9,18 L-9,20 L-13,20 L-14,13 L-11,9 L-9,9 L-9,7 L-7,7 L-7,5 L-2,2 Z " fill="#EEEEEE" transform="translate(21,3)"/>
<path d="M0,0 L5,0 L6,4 L0,6 L-5,5 L-4,1 Z " fill="#AEAEAE" transform="translate(16,15)"/>
<path d="M0,0 L2,0 L1,4 L-8,11 L-9,7 L-7,7 L-7,5 L-2,2 Z " fill="#D7D7D7" transform="translate(21,3)"/>
</svg>
