<?xml version="1.0" encoding="UTF-8"?>
<svg version="1.1" xmlns="http://www.w3.org/2000/svg" width="28" height="28">
<path d="M0,0 L28,0 L28,28 L0,28 Z " fill="#050505" transform="translate(0,0)"/>
<path d="M0,0 L2,0 L1,3 L-4,7 L-6,7 L-8,11 L-11,17 L-5,17 L-4,12 L-2,9 L5,9 L6,13 L1,17 L-8,20 L-14,18 L-13,13 L-9,7 L-7,7 L-7,5 Z " fill="#CFCFCF" transform="translate(19,2)"/>
<path d="M0,0 L7,0 L8,4 L4,7 L-2,7 L-2,3 Z " fill="#C5C5C5" transform="translate(17,11)"/>
<path d="M0,0 L7,0 L4,3 L-3,5 L-8,4 L-8,2 L0,2 Z " fill="#ECECEC" transform="translate(14,17)"/>
<path d="M0,0 L5,0 L4,3 L-2,4 L-2,2 L0,2 Z " fill="#212121" transform="translate(18,13)"/>
</svg>
