<?xml version="1.0" encoding="UTF-8"?>
<svg version="1.1" xmlns="http://www.w3.org/2000/svg" width="28" height="28">
<path d="M0,0 L28,0 L28,28 L0,28 Z " fill="#020202" transform="translate(0,0)"/>
<path d="M0,0 L2,0 L0,4 L-4,6 L-6,10 L-10,18 L-6,18 L-7,13 L-3,8 L1,8 L2,14 L-5,20 L-11,20 L-12,19 L-11,12 L-7,6 Z " fill="#E8E8E8" transform="translate(19,3)"/>
<path d="M0,0 L4,0 L5,6 L0,10 L-4,8 L-3,4 Z " fill="#DADADA" transform="translate(16,11)"/>
<path d="M0,0 Z M-2,1 L3,2 L-1,4 L-4,8 L-4,13 L-8,13 L-7,8 Z " fill="#202020" transform="translate(17,8)"/>
<path d="M0,0 L3,0 L1,5 L-2,5 Z " fill="#171717" transform="translate(16,14)"/>
</svg>
