<?xml version="1.0" encoding="UTF-8"?>
<svg version="1.1" xmlns="http://www.w3.org/2000/svg" width="28" height="28">
<path d="M0,0 L28,0 L28,28 L0,28 Z " fill="#020202" transform="translate(0,0)"/>
<path d="M0,0 L4,0 L4,2 L-1,3 L-1,5 L-3,5 L-4,9 L-5,13 L-2,13 L0,9 L3,7 L11,7 L12,12 L7,15 L4,16 L-4,16 L-8,13 L-6,6 L-2,1 Z " fill="#C2C2C2" transform="translate(13,5)"/>
<path d="M0,0 L8,0 L9,5 L4,8 L-5,8 L-4,6 L5,4 L6,3 L0,2 Z " fill="#DFDFDF" transform="translate(16,12)"/>
<path d="M0,0 L4,0 L4,2 L-1,3 L-1,5 L-3,5 L-5,15 L-8,13 L-6,6 L-2,1 Z " fill="#DDDDDD" transform="translate(13,5)"/>
<path d="M0,0 L5,1 L1,4 L-4,4 L-4,2 Z " fill="#090909" transform="translate(18,14)"/>
<path d="M0,0 L4,0 L4,2 L-1,3 L-2,5 L-4,3 Z " fill="#C3C3C3" transform="translate(13,5)"/>
</svg>
