<?xml version="1.0" encoding="UTF-8"?>
<svg version="1.1" xmlns="http://www.w3.org/2000/svg" width="28" height="28">
<path d="M0,0 L28,0 L28,28 L0,28 Z " fill="#050505" transform="translate(0,0)"/>
<path d="M0,0 L3,0 L3,2 L-1,6 L-3,6 L-6,18 L2,17 L2,10 L4,9 L10,9 L10,14 L4,19 L0,20 L-8,20 L-9,15 L-6,6 L-4,6 L-2,2 Z " fill="#DCDCDC" transform="translate(14,2)"/>
<path d="M0,0 L6,0 L6,5 L0,10 L-5,9 L-2,8 L-2,1 Z " fill="#919191" transform="translate(18,11)"/>
<path d="M0,0 L6,0 L6,5 L1,9 L1,6 L4,2 L-1,2 Z " fill="#E7E7E7" transform="translate(18,11)"/>
</svg>
