<?xml version="1.0" encoding="UTF-8"?>
<svg version="1.1" xmlns="http://www.w3.org/2000/svg" width="28" height="28">
<path d="M0,0 L28,0 L28,28 L0,28 Z " fill="#030303" transform="translate(0,0)"/>
<path d="M0,0 L2,0 L1,4 L-1,4 L-2,13 L-2,15 L2,16 L12,16 L13,11 L5,12 L4,14 L6,14 L6,16 L2,15 L3,10 L6,8 L13,8 L15,9 L15,15 L9,20 L3,20 L-3,17 L-5,14 L-5,6 Z " fill="#E0E0E0" transform="translate(11,3)"/>
<path d="M0,0 L5,1 L4,6 L2,7 L-6,7 L-5,5 L-2,6 L-2,4 L-4,4 L-3,1 Z " fill="#1B1B1B" transform="translate(19,13)"/>
</svg>
