<?xml version="1.0" encoding="UTF-8"?>
<svg version="1.1" xmlns="http://www.w3.org/2000/svg" width="28" height="28">
<path d="M0,0 L28,0 L28,28 L0,28 Z " fill="#030303" transform="translate(0,0)"/>
<path d="M0,0 L2,0 L1,14 L7,12 L13,12 L14,17 L10,20 L-1,20 L-2,16 L-2,5 Z " fill="#F3F3F3" transform="translate(10,1)"/>
<path d="M0,0 L6,0 L7,5 L3,8 L-4,8 L-4,7 L1,6 L-3,5 L-2,1 Z " fill="#BEBEBE" transform="translate(17,13)"/>
<path d="M0,0 L2,0 L2,15 L0,15 L-1,7 L-2,5 Z " fill="#BCBCBC" transform="translate(10,1)"/>
</svg>
