<?xml version="1.0" encoding="UTF-8"?>
<svg version="1.1" xmlns="http://www.w3.org/2000/svg" width="28" height="28">
<path d="M0,0 L28,0 L28,28 L0,28 Z " fill="#030303" transform="translate(0,0)"/>
<path d="M0,0 L6,1 L7,4 L1,3 L-3,8 L-3,14 L0,8 L4,7 L6,8 L7,12 L2,20 L-4,18 L-7,14 L-6,7 L-2,1 Z " fill="#D2D2D2" transform="translate(15,4)"/>
<path d="M0,0 L5,1 L3,7 L-1,9 L-2,2 Z " fill="#BBBBBB" transform="translate(16,11)"/>
<path d="M0,0 L2,2 L-3,10 L-8,8 L-6,1 L-5,1 L-5,6 L-1,3 Z " fill="#E9E9E9" transform="translate(20,14)"/>
<path d="M0,0 L2,0 L1,5 L-2,6 L-1,1 Z " fill="#0C0C0C" transform="translate(17,14)"/>
</svg>
