<?xml version="1.0" encoding="UTF-8"?>
<svg version="1.1" xmlns="http://www.w3.org/2000/svg" width="28" height="28">
<path d="M0,0 L28,0 L28,28 L0,28 Z " fill="#020202" transform="translate(0,0)"/>
<path d="M0,0 L3,0 L3,2 L-1,6 L-4,13 L-1,11 L1,12 L-1,17 L0,20 L-6,19 L-6,9 Z " fill="#C9C9C9" transform="translate(16,2)"/>
<path d="M0,0 L4,3 L3,7 L-1,9 L-3,4 Z " fill="#B6B6B6" transform="translate(17,13)"/>
<path d="M0,0 L2,1 L0,6 L1,9 L-4,8 L-2,7 L-2,2 Z " fill="#EFEFEF" transform="translate(15,13)"/>
<path d="M0,0 L4,1 L3,5 L-1,4 Z " fill="#060606" transform="translate(15,15)"/>
</svg>
