<?xml version="1.0" encoding="UTF-8"?>
<svg version="1.1" xmlns="http://www.w3.org/2000/svg" width="28" height="28">
<path d="M0,0 L28,0 L28,28 L0,28 Z " fill="#010101" transform="translate(0,0)"/>
<path d="M0,0 L2,0 L0,14 L5,11 L10,10 L10,16 L8,18 L3,18 L2,20 L-2,15 L-2,5 Z " fill="#E8E8E8" transform="translate(11,2)"/>
<path d="M0,0 L4,0 L4,6 L2,7 L-2,5 Z " fill="#9E9E9E" transform="translate(17,12)"/>
<path d="M0,0 L2,0 L0,12 L-2,10 L-1,1 Z " fill="#AEAEAE" transform="translate(11,2)"/>
</svg>
