<?xml version="1.0" encoding="UTF-8"?>
<svg version="1.1" xmlns="http://www.w3.org/2000/svg" width="28" height="28">
<path d="M0,0 L28,0 L28,28 L0,28 Z " fill="#020202" transform="translate(0,0)"/>
<path d="M0,0 L2,0 L2,3 L0,3 L-2,9 L-4,11 L-4,17 L0,17 L1,13 L2,12 L7,12 L6,17 L-1,20 L-6,20 L-7,19 L-7,11 Z " fill="#CDCDCD" transform="translate(15,2)"/>
<path d="M0,0 L5,0 L4,5 L2,5 L2,3 L0,2 L-1,4 Z " fill="#E4E4E4" transform="translate(17,14)"/>
<path d="M0,0 L5,0 L4,4 L0,5 L-2,3 L0,3 Z " fill="#A9A9A9" transform="translate(15,16)"/>
</svg>
