<?xml version="1.0" encoding="UTF-8"?>
<svg version="1.1" xmlns="http://www.w3.org/2000/svg" width="28" height="28">
<path d="M0,0 L28,0 L28,28 L0,28 Z " fill="#030303" transform="translate(0,0)"/>
<path d="M0,0 L6,1 L7,4 L5,4 L5,2 L0,4 L-2,6 L-3,13 L2,10 L8,10 L9,11 L9,18 L6,20 L1,20 L-5,15 L-5,6 Z " fill="#C8C8C8" transform="translate(13,3)"/>
<path d="M0,0 L6,1 L7,4 L5,4 L5,2 L0,4 L-2,6 L-3,14 L-1,14 L-1,16 L7,18 L6,20 L1,20 L-5,15 L-5,6 Z " fill="#E8E8E8" transform="translate(13,3)"/>
<path d="M0,0 L5,0 L5,5 L0,6 L-2,2 Z " fill="#0E0E0E" transform="translate(15,15)"/>
</svg>
