<?xml version="1.0" encoding="UTF-8"?>
<svg version="1.1" xmlns="http://www.w3.org/2000/svg" width="28" height="28">
<path d="M0,0 L28,0 L28,28 L0,28 Z " fill="#030303" transform="translate(0,0)"/>
<path d="M0,0 L2,0 L3,6 L2,13 L5,16 L6,12 L8,10 L12,11 L13,15 L8,20 L3,19 L-1,15 Z " fill="#DFDFDF" transform="translate(10,2)"/>
<path d="M0,0 L1,3 L-3,6 L-7,5 L-6,2 L-2,1 Z " fill="#F4F4F4" transform="translate(21,16)"/>
<path d="M0,0 L4,1 L5,5 L-1,6 Z " fill="#959595" transform="translate(18,12)"/>
</svg>
