<?xml version="1.0" encoding="UTF-8"?>
<svg version="1.1" xmlns="http://www.w3.org/2000/svg" width="28" height="28">
<path d="M0,0 L28,0 L28,28 L0,28 Z " fill="#020202" transform="translate(0,0)"/>
<path d="M0,0 L2,0 L2,4 L0,5 L1,12 L3,12 L8,7 L14,7 L15,8 L15,13 L12,16 L9,18 L10,20 L5,19 L-2,14 L-3,12 L-3,5 Z " fill="#E6E6E6" transform="translate(9,3)"/>
<path d="M0,0 L6,0 L7,1 L7,6 L3,9 L-3,8 L-4,3 Z " fill="#D8D8D8" transform="translate(17,10)"/>
<path d="M0,0 L5,1 L5,4 L1,6 L-3,6 L-2,2 Z " fill="#191919" transform="translate(17,12)"/>
<path d="M0,0 L2,0 L2,4 L0,5 L-2,12 L-3,12 L-3,5 Z " fill="#CFCFCF" transform="translate(9,3)"/>
</svg>
