<?xml version="1.0" encoding="UTF-8"?>
<svg version="1.1" xmlns="http://www.w3.org/2000/svg" width="28" height="28">
<path d="M0,0 L28,0 L28,28 L0,28 Z " fill="#010101" transform="translate(0,0)"/>
<path d="M0,0 L2,0 L0,4 L-5,11 L-1,12 L0,16 L-5,20 L-10,19 L-10,13 L-2,1 Z " fill="#D0D0D0" transform="translate(19,2)"/>
<path d="M0,0 L2,4 L-3,8 L-8,7 L-8,1 L-6,5 L-5,2 L0,2 Z " fill="#C2C2C2" transform="translate(17,14)"/>
<path d="M0,0 L5,0 L5,3 L0,3 L-1,7 L-2,7 L-2,2 Z " fill="#FBFBFB" transform="translate(12,13)"/>
</svg>
