<?xml version="1.0" encoding="UTF-8"?>
<svg version="1.1" xmlns="http://www.w3.org/2000/svg" width="28" height="28">
<path d="M0,0 L28,0 L28,28 L0,28 Z " fill="#010101" transform="translate(0,0)"/>
<path d="M0,0 L2,0 L-1,9 L-1,15 L5,10 L9,10 L10,14 L6,19 L-2,20 L-4,17 L-4,8 L-1,1 Z " fill="#D3D3D3" transform="translate(13,2)"/>
<path d="M0,0 L2,0 L-1,9 L-2,16 L-4,17 L-4,8 L-1,1 Z " fill="#D0D0D0" transform="translate(13,2)"/>
<path d="M0,0 L3,0 L2,5 L-5,6 L-2,1 Z " fill="#141414" transform="translate(18,14)"/>
</svg>
