<?xml version="1.0" encoding="UTF-8"?>
<svg version="1.1" xmlns="http://www.w3.org/2000/svg" width="28" height="28">
<path d="M0,0 L28,0 L28,28 L0,28 Z " fill="#020202" transform="translate(0,0)"/>
<path d="M0,0 L2,0 L0,4 L-1,7 L-1,16 L1,11 L7,10 L8,11 L7,18 L3,20 L-2,19 L-4,16 L-4,7 L-1,1 Z " fill="#D8D8D8" transform="translate(13,2)"/>
<path d="M0,0 L2,0 L0,4 L-1,7 L-1,16 L-1,19 L-4,16 L-4,7 L-1,1 Z " fill="#DDDDDD" transform="translate(13,2)"/>
<path d="M0,0 L3,0 L2,5 L-1,5 Z " fill="#0D0D0D" transform="translate(16,14)"/>
</svg>
