<?xml version="1.0" encoding="UTF-8"?>
<svg version="1.1" xmlns="http://www.w3.org/2000/svg" width="28" height="28">
<path d="M0,0 L28,0 L28,28 L0,28 Z " fill="#020202" transform="translate(0,0)"/>
<path d="M0,0 L4,1 L3,6 L1,5 L2,2 L-2,3 L-4,7 L-6,9 L-7,13 L-3,11 L5,11 L4,18 L1,20 L-5,20 L-9,17 L-9,10 L-3,2 Z " fill="#D1D1D1" transform="translate(17,3)"/>
<path d="M0,0 L6,0 L4,4 L3,5 L-2,5 L-2,1 Z " fill="#060606" transform="translate(15,16)"/>
<path d="M0,0 L4,1 L3,6 L1,5 L2,2 L-2,3 L-4,7 L-6,7 L-4,3 Z " fill="#B2B2B2" transform="translate(17,3)"/>
<path d="M0,0 L2,1 L-1,7 L1,7 L1,11 L4,12 L-1,11 L-2,10 L-2,3 Z " fill="#E9E9E9" transform="translate(10,10)"/>
<path d="M0,0 L6,1 L6,2 L-1,4 L-1,7 L-3,7 L-3,3 L-5,3 L-4,1 Z " fill="#A1A1A1" transform="translate(14,14)"/>
</svg>
