<?xml version="1.0" encoding="UTF-8"?>
<svg version="1.1" xmlns="http://www.w3.org/2000/svg" width="28" height="28">
<path d="M0,0 L28,0 L28,28 L0,28 Z " fill="#050505" transform="translate(0,0)"/>
<path d="M0,0 L3,0 L1,4 L0,13 L3,16 L5,16 L6,10 L10,5 L15,6 L15,15 L12,19 L5,20 L-2,17 L-4,14 L-4,7 Z " fill="#DDDDDD" transform="translate(9,3)"/>
<path d="M0,0 L5,1 L5,10 L2,13 L-4,8 L-3,3 Z " fill="#E9E9E9" transform="translate(19,8)"/>
<path d="M0,0 L2,0 L3,7 L-1,8 L-2,3 Z " fill="#1C1C1C" transform="translate(19,11)"/>
<path d="M0,0 L3,0 L1,4 L-2,13 L-3,13 L-3,6 Z " fill="#F3F3F3" transform="translate(9,3)"/>
</svg>
