<?xml version="1.0" encoding="UTF-8"?>
<svg version="1.1" xmlns="http://www.w3.org/2000/svg" width="28" height="28">
<path d="M0,0 L28,0 L28,28 L0,28 Z " fill="#010101" transform="translate(0,0)"/>
<path d="M0,0 L2,0 L1,5 L0,6 L-2,16 L-6,20 L-9,20 L-9,14 L-5,8 Z " fill="#BDBDBD" transform="translate(19,3)"/>
<path d="M0,0 L1,4 L-5,11 L1,8 L-1,12 L-3,14 L-6,14 L-6,8 L-2,2 Z " fill="#EAEAEA" transform="translate(16,9)"/>
<path d="M0,0 L2,0 L0,5 L-4,6 L-3,3 L-1,3 Z " fill="#1C1C1C" transform="translate(15,14)"/>
</svg>
