<?xml version="1.0" encoding="UTF-8"?>
<svg version="1.1" xmlns="http://www.w3.org/2000/svg" width="28" height="28">
<path d="M0,0 L28,0 L28,28 L0,28 Z " fill="#020202" transform="translate(0,0)"/>
<path d="M0,0 L2,0 L2,3 L-5,9 L-6,11 L-3,12 L-2,18 L-5,20 L-10,20 L-11,19 L-10,11 L-1,1 Z " fill="#A2A2A2" transform="translate(20,3)"/>
<path d="M0,0 L2,0 L3,6 L0,8 L-5,8 L-6,4 L-3,2 L-3,5 L0,4 Z " fill="#EBEBEB" transform="translate(15,15)"/>
<path d="M0,0 L2,0 L2,3 L-6,10 L-7,7 Z " fill="#EDEDED" transform="translate(20,3)"/>
</svg>
