<?xml version="1.0" encoding="UTF-8"?>
<svg version="1.1" xmlns="http://www.w3.org/2000/svg" width="28" height="28">
<path d="M0,0 L28,0 L28,28 L0,28 Z " fill="#030303" transform="translate(0,0)"/>
<path d="M0,0 L3,1 L3,3 L-1,4 L-3,8 L-6,11 L-7,14 L-5,14 L-5,12 L2,13 L1,16 L-3,15 L-5,15 L-5,18 L0,18 L-2,20 L-11,20 L-10,11 Z " fill="#DADADA" transform="translate(19,3)"/>
<path d="M0,0 L7,1 L6,4 L2,3 L0,3 L0,6 L5,6 L2,8 L-4,7 L-4,2 L0,2 Z " fill="#2F2F2F" transform="translate(14,15)"/>
<path d="M0,0 L7,1 L6,4 L2,3 L-2,5 Z " fill="#DDDDDD" transform="translate(14,15)"/>
</svg>
