<?xml version="1.0" encoding="UTF-8"?>
<svg version="1.1" xmlns="http://www.w3.org/2000/svg" width="28" height="28">
<path d="M0,0 L28,0 L28,28 L0,28 Z " fill="#020202" transform="translate(0,0)"/>
<path d="M0,0 L3,1 L-2,5 L-5,10 L-2,13 L-2,18 L-6,20 L-10,16 L-10,10 L-6,4 L-3,1 Z " fill="#A6A6A6" transform="translate(19,4)"/>
<path d="M0,0 L3,1 L-2,5 L-6,9 L-8,8 L-6,4 L-3,1 Z " fill="#E5E5E5" transform="translate(19,4)"/>
<path d="M0,0 L3,2 L3,7 L-1,9 L-2,7 L0,6 Z " fill="#F7F7F7" transform="translate(14,15)"/>
</svg>
