<?xml version="1.0" encoding="UTF-8"?>
<svg version="1.1" xmlns="http://www.w3.org/2000/svg" width="28" height="28">
<path d="M0,0 L28,0 L28,28 L0,28 Z " fill="#020202" transform="translate(0,0)"/>
<path d="M0,0 L2,0 L0,4 L-2,4 L-2,6 L-4,7 L-3,16 L-8,20 L-13,20 L-13,12 L-9,10 L-7,6 Z " fill="#D8D8D8" transform="translate(21,3)"/>
<path d="M0,0 L5,0 L4,4 L2,6 L-3,6 L-1,1 Z " fill="#1C1C1C" transform="translate(12,15)"/>
<path d="M0,0 L2,1 L-1,8 L1,8 L1,10 L-2,10 L-2,2 Z " fill="#F4F4F4" transform="translate(10,13)"/>
</svg>
