<?xml version="1.0" encoding="UTF-8"?>
<svg version="1.1" xmlns="http://www.w3.org/2000/svg" width="28" height="28">
<path d="M0,0 L28,0 L28,28 L0,28 Z " fill="#020202" transform="translate(0,0)"/>
<path d="M0,0 L5,0 L6,3 L0,3 L-4,8 L-4,14 L1,10 L7,10 L8,15 L3,20 L-3,20 L-7,17 L-7,7 L-2,1 Z " fill="#D1D1D1" transform="translate(15,3)"/>
<path d="M0,0 L6,0 L7,5 L2,10 L-4,10 L-2,8 L-2,4 Z " fill="#CCCCCC" transform="translate(16,13)"/>
<path d="M0,0 L5,0 L4,4 L2,6 L-3,5 L-1,1 Z " fill="#212121" transform="translate(16,15)"/>
<path d="M0,0 L3,1 L-1,4 L0,8 L-5,8 L-6,5 L-3,5 L-3,2 Z " fill="#F1F1F1" transform="translate(15,14)"/>
</svg>
