<?xml version="1.0" encoding="UTF-8"?>
<svg version="1.1" xmlns="http://www.w3.org/2000/svg" width="28" height="28">
<path d="M0,0 L28,0 L28,28 L0,28 Z " fill="#020202" transform="translate(0,0)"/>
<path d="M0,0 L5,1 L0,5 L-3,10 L-2,9 L0,7 L5,8 L6,10 L6,16 L4,19 L-1,20 L-6,16 L-6,8 L-2,2 Z " fill="#E0E0E0" transform="translate(15,4)"/>
<path d="M0,0 L5,1 L0,5 L-3,10 L-5,14 L-6,13 L-5,6 Z " fill="#F1F1F1" transform="translate(15,4)"/>
<path d="M0,0 L5,1 L6,3 L6,9 L4,7 L3,2 L-2,4 Z " fill="#F3F3F3" transform="translate(15,11)"/>
<path d="M0,0 L2,1 L0,3 L2,5 L-3,7 L-5,11 L-6,8 L-2,2 Z " fill="#404040" transform="translate(17,6)"/>
<path d="M0,0 L2,0 L2,7 L-1,8 L-1,1 Z " fill="#191919" transform="translate(16,13)"/>
</svg>
