<?xml version="1.0" encoding="UTF-8"?>
<svg version="1.1" xmlns="http://www.w3.org/2000/svg" width="28" height="28">
<path d="M0,0 L28,0 L28,28 L0,28 Z " fill="#030303" transform="translate(0,0)"/>
<path d="M0,0 L2,0 L2,4 L-2,6 L-3,11 L1,13 L5,8 L12,7 L14,11 L11,14 L4,16 L3,19 L0,19 L0,15 L-5,14 L-6,13 L-6,7 Z " fill="#DADADA" transform="translate(12,4)"/>
<path d="M0,0 L2,0 L2,4 L-2,6 L-3,12 L-6,13 L-6,7 Z " fill="#D9D9D9" transform="translate(12,4)"/>
<path d="M0,0 L4,2 L3,5 L2,2 L-6,5 L-6,2 Z " fill="#E3E3E3" transform="translate(22,11)"/>
<path d="M0,0 L4,0 L4,2 L-3,5 L-3,2 Z " fill="#272727" transform="translate(20,13)"/>
</svg>
