<?xml version="1.0" encoding="UTF-8"?>
<svg version="1.1" xmlns="http://www.w3.org/2000/svg" width="28" height="28">
<path d="M0,0 L28,0 L28,28 L0,28 Z " fill="#010101" transform="translate(0,0)"/>
<path d="M0,0 L1,3 L-2,10 L3,10 L5,14 L5,19 L4,20 L-3,19 L-5,13 L-2,2 Z " fill="#BBBBBB" transform="translate(15,3)"/>
<path d="M0,0 L1,3 L-2,10 L2,11 L-2,13 L-3,15 L-5,15 L-3,5 Z " fill="#E9E9E9" transform="translate(15,3)"/>
<path d="M0,0 L4,2 L4,7 L-1,6 L-2,2 Z " fill="#0B0B0B" transform="translate(14,14)"/>
</svg>
