<?xml version="1.0" encoding="UTF-8"?>
<svg version="1.1" xmlns="http://www.w3.org/2000/svg" width="28" height="28">
<path d="M0,0 L28,0 L28,28 L0,28 Z " fill="#030303" transform="translate(0,0)"/>
<path d="M0,0 L3,0 L2,4 L-2,10 L-1,11 L3,8 L8,9 L10,12 L9,16 L6,19 L-4,20 L-6,16 L-5,7 Z " fill="#D9D9D9" transform="translate(14,3)"/>
<path d="M0,0 L3,0 L2,4 L-2,10 L-1,11 L1,13 L-2,17 L0,18 L-2,18 L-2,20 L-4,20 L-6,16 L-5,7 Z " fill="#EFEFEF" transform="translate(14,3)"/>
<path d="M0,0 L5,0 L4,4 L-1,6 L-4,5 L-2,1 Z " fill="#161616" transform="translate(16,15)"/>
</svg>
