<?xml version="1.0" encoding="UTF-8"?>
<svg version="1.1" xmlns="http://www.w3.org/2000/svg" width="28" height="28">
<path d="M0,0 L28,0 L28,28 L0,28 Z " fill="#020202" transform="translate(0,0)"/>
<path d="M0,0 L4,1 L2,6 L1,15 L3,15 L4,11 L6,9 L11,10 L12,15 L9,18 L4,20 L-1,17 L-2,15 L-2,7 Z " fill="#ACACAC" transform="translate(11,3)"/>
<path d="M0,0 L5,1 L6,6 L2,8 L3,3 L-1,4 Z " fill="#E1E1E1" transform="translate(17,12)"/>
<path d="M0,0 L4,1 L2,6 L-1,6 Z " fill="#DBDBDB" transform="translate(11,3)"/>
</svg>
