<?xml version="1.0" encoding="UTF-8"?>
<svg version="1.1" xmlns="http://www.w3.org/2000/svg" width="28" height="28">
<path d="M0,0 L28,0 L28,28 L0,28 Z " fill="#010101" transform="translate(0,0)"/>
<path d="M0,0 L2,0 L0,4 L-2,12 L3,12 L3,17 L0,18 L0,20 L-4,20 L-4,17 L-6,17 L-3,5 Z " fill="#EAEAEA" transform="translate(16,2)"/>
<path d="M0,0 L4,0 L5,3 L2,4 L2,6 L-2,6 L-1,2 Z " fill="#A3A3A3" transform="translate(14,16)"/>
<path d="M0,0 L2,0 L0,4 L-1,13 L-3,13 L-4,7 L-1,1 Z " fill="#A9A9A9" transform="translate(16,2)"/>
</svg>
