<?xml version="1.0" encoding="UTF-8"?>
<svg version="1.1" xmlns="http://www.w3.org/2000/svg" width="28" height="28">
<path d="M0,0 L28,0 L28,28 L0,28 Z " fill="#030303" transform="translate(0,0)"/>
<path d="M0,0 L2,0 L1,4 L-1,4 L-3,9 L2,10 L5,13 L4,19 L-2,20 L-6,15 L-7,12 L-3,3 Z " fill="#ECECEC" transform="translate(16,3)"/>
<path d="M0,0 L5,0 L9,4 L8,8 L6,8 L2,7 L0,5 Z " fill="#E4E4E4" transform="translate(12,12)"/>
<path d="M0,0 L5,2 L6,7 L2,6 L0,4 Z " fill="#1E1E1E" transform="translate(12,13)"/>
</svg>
