<?xml version="1.0" encoding="UTF-8"?>
<svg version="1.1" xmlns="http://www.w3.org/2000/svg" width="28" height="28">
<path d="M0,0 L28,0 L28,28 L0,28 Z " fill="#030303" transform="translate(0,0)"/>
<path d="M0,0 L3,1 L-2,6 L-5,14 L3,10 L8,9 L10,11 L9,16 L3,18 L-4,19 L-6,20 L-8,11 L-4,4 Z " fill="#E7E7E7" transform="translate(14,3)"/>
<path d="M0,0 L4,2 L3,7 L-1,8 L-7,7 L-7,5 L-2,2 L0,2 Z " fill="#DEDEDE" transform="translate(20,12)"/>
<path d="M0,0 L4,0 L3,3 L-4,4 L-4,2 Z " fill="#252525" transform="translate(17,15)"/>
</svg>
