<?xml version="1.0" encoding="UTF-8"?>
<svg version="1.1" xmlns="http://www.w3.org/2000/svg" width="28" height="28">
<path d="M0,0 L28,0 L28,28 L0,28 Z " fill="#030303" transform="translate(0,0)"/>
<path d="M0,0 L1,2 L1,9 L4,10 L7,5 L10,3 L15,4 L15,10 L9,15 L2,14 L-2,10 L-2,3 Z " fill="#DCDCDC" transform="translate(8,8)"/>
<path d="M0,0 L5,0 L5,3 L0,7 L-3,7 L-2,2 Z " fill="#1C1C1C" transform="translate(17,14)"/>
<path d="M0,0 L5,1 L5,7 L0,11 L-1,9 L1,9 L2,6 L4,6 L4,3 L-3,3 Z " fill="#C4C4C4" transform="translate(18,11)"/>
<path d="M0,0 L4,1 L5,4 L0,3 L-5,5 L-3,1 Z " fill="#D0D0D0" transform="translate(14,3)"/>
</svg>
