<?xml version="1.0" encoding="UTF-8"?>
<svg version="1.1" xmlns="http://www.w3.org/2000/svg" width="28" height="28">
<path d="M0,0 L28,0 L28,28 L0,28 Z " fill="#020202" transform="translate(0,0)"/>
<path d="M0,0 L2,0 L1,4 L-2,9 L-2,15 L2,10 L6,9 L8,11 L7,16 L3,20 L-4,20 L-6,18 L-6,11 L-1,1 Z " fill="#D4D4D4" transform="translate(14,2)"/>
<path d="M0,0 L4,2 L3,7 L-1,11 L-4,10 L-3,5 L-1,3 L-2,1 Z " fill="#939393" transform="translate(18,11)"/>
<path d="M0,0 L3,1 L0,5 L0,8 L-2,9 L-4,7 L-1,1 Z " fill="#E7E7E7" transform="translate(15,13)"/>
</svg>
