<?xml version="1.0" encoding="UTF-8"?>
<svg version="1.1" xmlns="http://www.w3.org/2000/svg" width="28" height="28">
<path d="M0,0 L28,0 L28,28 L0,28 Z " fill="#030303" transform="translate(0,0)"/>
<path d="M0,0 L3,0 L3,3 L-1,4 L-3,14 L2,10 L6,11 L5,18 L0,20 L-5,19 L-6,17 L-6,9 L-4,4 Z " fill="#E6E6E6" transform="translate(15,2)"/>
<path d="M0,0 L4,2 L2,2 L1,6 L-4,7 L-3,2 Z " fill="#7F7F7F" transform="translate(17,12)"/>
<path d="M0,0 L2,0 L1,6 L-2,7 L-3,4 L-1,3 Z " fill="#DCDCDC" transform="translate(19,14)"/>
</svg>
