<?xml version="1.0" encoding="UTF-8"?>
<svg version="1.1" xmlns="http://www.w3.org/2000/svg" width="28" height="28">
<path d="M0,0 L28,0 L28,28 L0,28 Z " fill="#030303" transform="translate(0,0)"/>
<path d="M0,0 L1,4 L-4,11 L-4,14 L0,10 L5,10 L5,16 L1,19 L-5,20 L-7,18 L-7,11 L-3,4 Z " fill="#A0A0A0" transform="translate(16,2)"/>
<path d="M0,0 L1,4 L-4,11 L-6,18 L-7,18 L-7,11 L-3,4 Z " fill="#DDDDDD" transform="translate(16,2)"/>
<path d="M0,0 L4,1 L-1,5 L-3,6 L-2,1 Z " fill="#E7E7E7" transform="translate(16,12)"/>
</svg>
