<?xml version="1.0" encoding="UTF-8"?>
<svg version="1.1" xmlns="http://www.w3.org/2000/svg" width="28" height="28">
<path d="M0,0 L28,0 L28,28 L0,28 Z " fill="#020202" transform="translate(0,0)"/>
<path d="M0,0 L2,0 L1,4 L-4,9 L-6,13 L-6,17 L-4,14 L-2,15 L-3,17 L3,15 L3,12 L0,12 L0,10 L4,11 L5,15 L0,19 L-2,20 L-8,20 L-9,18 L-8,9 L-4,3 Z " fill="#E6E6E6" transform="translate(17,2)"/>
<path d="M0,0 L5,1 L5,4 L2,6 L-1,6 L-2,2 Z " fill="#717171" transform="translate(15,13)"/>
<path d="M0,0 L4,1 L5,5 L1,8 L1,5 L3,5 L3,2 L0,2 Z " fill="#D2D2D2" transform="translate(17,12)"/>
</svg>
