<?xml version="1.0" encoding="UTF-8"?>
<svg version="1.1" xmlns="http://www.w3.org/2000/svg" width="28" height="28">
<path d="M0,0 L28,0 L28,28 L0,28 Z " fill="#030303" transform="translate(0,0)"/>
<path d="M0,0 L1,3 L-2,4 L-4,10 L-5,14 L-2,12 L2,12 L4,17 L1,20 L-5,20 L-8,17 L-8,10 L-4,3 L-2,3 L-2,1 Z " fill="#E6E6E6" transform="translate(17,2)"/>
<path d="M0,0 L1,3 L-2,4 L-4,10 L-6,15 L-8,14 L-7,8 L-4,3 L-2,3 L-2,1 Z " fill="#E1E1E1" transform="translate(17,2)"/>
<path d="M0,0 L4,0 L6,5 L-2,6 L-3,2 Z " fill="#949494" transform="translate(15,14)"/>
</svg>
