<?xml version="1.0" encoding="UTF-8"?>
<svg version="1.1" xmlns="http://www.w3.org/2000/svg" width="28" height="28">
<path d="M0,0 L28,0 L28,28 L0,28 Z " fill="#020202" transform="translate(0,0)"/>
<path d="M0,0 L5,1 L1,3 L-1,3 L-3,13 L2,12 L3,17 L1,20 L-3,19 L-5,18 L-7,13 L-6,6 Z " fill="#CACACA" transform="translate(16,3)"/>
<path d="M0,0 L3,0 L4,5 L2,8 L-2,7 L-3,1 Z " fill="#B2B2B2" transform="translate(15,15)"/>
<path d="M0,0 L2,0 L3,11 L1,11 L-1,6 Z " fill="#E8E8E8" transform="translate(10,10)"/>
</svg>
