<?xml version="1.0" encoding="UTF-8"?>
<svg version="1.1" xmlns="http://www.w3.org/2000/svg" width="28" height="28">
<path d="M0,0 L28,0 L28,28 L0,28 Z " fill="#060606" transform="translate(0,0)"/>
<path d="M0,0 L1,2 L-1,6 L-1,14 L7,14 L12,13 L13,6 L7,9 L5,9 L6,12 L3,12 L4,8 L10,4 L15,5 L15,11 L11,15 L8,16 L-3,16 L-5,13 L-4,6 L-1,1 Z " fill="#C8C8C8" transform="translate(10,6)"/>
<path d="M0,0 L3,0 L2,7 L-3,9 L-11,9 L-11,8 L-6,7 L-5,3 Z " fill="#1D1D1D" transform="translate(20,12)"/>
<path d="M0,0 L2,4 L3,5 L11,6 L11,7 L1,7 L0,6 Z " fill="#F4F4F4" transform="translate(6,15)"/>
</svg>
