<?xml version="1.0" encoding="UTF-8"?>
<svg version="1.1" xmlns="http://www.w3.org/2000/svg" width="28" height="28">
<path d="M0,0 L28,0 L28,28 L0,28 Z " fill="#050505" transform="translate(0,0)"/>
<path d="M0,0 L2,0 L2,3 L-2,4 L-5,14 L-1,11 L4,12 L5,17 L0,20 L-6,20 L-8,17 L-7,8 Z " fill="#D8D8D8" transform="translate(16,2)"/>
<path d="M0,0 L4,1 L3,6 L-2,7 L-1,5 L2,5 L2,2 L0,2 Z " fill="#F0F0F0" transform="translate(17,14)"/>
<path d="M0,0 L3,1 L3,4 L-4,4 Z " fill="#272727" transform="translate(16,15)"/>
</svg>
