<?xml version="1.0" encoding="UTF-8"?>
<svg version="1.1" xmlns="http://www.w3.org/2000/svg" width="28" height="28">
<path d="M0,0 L28,0 L28,28 L0,28 Z " fill="#030303" transform="translate(0,0)"/>
<path d="M0,0 L4,1 L6,5 L3,4 L3,2 L1,3 L0,12 L3,10 L8,10 L10,14 L9,18 L5,20 L1,18 L-2,11 L-2,3 Z " fill="#F1F1F1" transform="translate(12,4)"/>
<path d="M0,0 L3,0 L5,4 L4,8 L1,10 L1,8 L-2,7 L-1,1 Z " fill="#D5D5D5" transform="translate(17,14)"/>
<path d="M0,0 L4,1 L3,5 L-1,4 Z " fill="#181818" transform="translate(16,17)"/>
<path d="M0,0 L4,1 L6,5 L3,4 L3,2 L-2,5 Z " fill="#D1D1D1" transform="translate(12,4)"/>
</svg>
