<?xml version="1.0" encoding="UTF-8"?>
<svg version="1.1" xmlns="http://www.w3.org/2000/svg" width="28" height="28">
<path d="M0,0 L28,0 L28,28 L0,28 Z " fill="#040404" transform="translate(0,0)"/>
<path d="M0,0 L3,1 L2,6 L0,11 L-1,16 L4,17 L3,10 L6,7 L11,7 L14,11 L12,17 L6,20 L0,20 L-2,19 L-2,17 L-4,17 L-4,11 L0,1 Z " fill="#DCDCDC" transform="translate(10,2)"/>
<path d="M0,0 L3,1 L2,6 L-1,14 L-3,14 L-2,6 Z " fill="#E8E8E8" transform="translate(10,2)"/>
<path d="M0,0 L4,1 L6,6 L3,10 L3,8 L1,7 L3,7 L3,2 L-1,3 Z " fill="#DFDFDF" transform="translate(18,9)"/>
<path d="M0,0 L3,0 L3,5 L-2,6 L-1,1 Z " fill="#1C1C1C" transform="translate(18,11)"/>
</svg>
