<?xml version="1.0" encoding="UTF-8"?>
<svg version="1.1" xmlns="http://www.w3.org/2000/svg" width="28" height="28">
<path d="M0,0 L28,0 L28,28 L0,28 Z " fill="#030303" transform="translate(0,0)"/>
<path d="M0,0 L2,0 L2,4 L0,4 L-1,12 L5,11 L6,15 L0,20 L-4,19 L-4,9 Z " fill="#E2E2E2" transform="translate(15,3)"/>
<path d="M0,0 L2,0 L2,4 L0,4 L-1,15 L-3,15 L-4,17 L-4,9 Z " fill="#E2E2E2" transform="translate(15,3)"/>
<path d="M0,0 L5,1 L5,3 L2,5 L-1,4 Z " fill="#7E7E7E" transform="translate(14,15)"/>
<path d="M0,0 L1,0 L2,7 L0,7 L-1,9 L-1,1 Z " fill="#F8F8F8" transform="translate(12,11)"/>
</svg>
