<?xml version="1.0" encoding="UTF-8"?>
<svg version="1.1" xmlns="http://www.w3.org/2000/svg" width="28" height="28">
<path d="M0,0 L28,0 L28,28 L0,28 Z " fill="#040404" transform="translate(0,0)"/>
<path d="M0,0 L4,1 L-1,5 L-2,14 L3,9 L10,8 L13,10 L13,16 L10,19 L7,20 L-1,20 L-6,14 L-5,6 Z " fill="#DFDFDF" transform="translate(11,2)"/>
<path d="M0,0 L4,1 L-1,5 L-2,14 L1,13 L3,17 L9,17 L9,19 L7,20 L-1,20 L-6,14 L-5,6 Z " fill="#ECECEC" transform="translate(11,2)"/>
<path d="M0,0 L7,1 L6,5 L3,7 L-2,6 L-2,2 Z " fill="#101010" transform="translate(15,13)"/>
<path d="M0,0 L4,1 L-1,5 L-4,16 L-6,14 L-5,6 Z " fill="#D5D5D5" transform="translate(11,2)"/>
</svg>
