<?xml version="1.0" encoding="UTF-8"?>
<svg version="1.1" xmlns="http://www.w3.org/2000/svg" width="28" height="28">
<path d="M0,0 L28,0 L28,28 L0,28 Z " fill="#040404" transform="translate(0,0)"/>
<path d="M0,0 L3,0 L1,5 L-1,5 L-3,9 L-6,14 L-4,14 L-3,11 L1,9 L6,10 L7,15 L6,17 L-1,20 L-9,20 L-11,18 L-10,12 L-6,6 L-3,5 L-1,1 Z " fill="#E7E7E7" transform="translate(17,2)"/>
<path d="M0,0 L5,1 L6,6 L5,8 L-1,9 L-5,7 L-9,8 L-8,5 L-5,5 L-4,2 Z " fill="#E2E2E2" transform="translate(18,11)"/>
<path d="M0,0 L7,2 L4,5 L-1,5 L-5,6 L-4,3 L-1,3 Z " fill="#868686" transform="translate(14,13)"/>
</svg>
