<?xml version="1.0" encoding="UTF-8"?>
<svg version="1.1" xmlns="http://www.w3.org/2000/svg" width="28" height="28">
<path d="M0,0 L28,0 L28,28 L0,28 Z " fill="#020202" transform="translate(0,0)"/>
<path d="M0,0 L2,0 L1,8 L-1,11 L-1,14 L4,9 L10,9 L9,17 L4,20 L-3,19 L-5,18 L-5,11 L-3,11 L-2,5 Z " fill="#B0B0B0" transform="translate(12,2)"/>
<path d="M0,0 L6,0 L5,7 L3,6 L3,3 L0,3 L1,6 L-2,6 L-3,8 L-6,7 L-3,2 Z " fill="#DFDFDF" transform="translate(16,11)"/>
<path d="M0,0 L2,0 L1,8 L-3,15 L-4,11 Z " fill="#DADADA" transform="translate(12,2)"/>
<path d="M0,0 L4,0 L3,7 L1,6 L1,2 L-1,1 Z " fill="#F6F6F6" transform="translate(18,11)"/>
<path d="M0,0 L1,3 L-2,9 L-3,5 Z " fill="#F4F4F4" transform="translate(11,8)"/>
</svg>
