<?xml version="1.0" encoding="UTF-8"?>
<svg version="1.1" xmlns="http://www.w3.org/2000/svg" width="28" height="28">
<path d="M0,0 L28,0 L28,28 L0,28 Z " fill="#030303" transform="translate(0,0)"/>
<path d="M0,0 L1,0 L0,10 L-1,17 L2,18 L2,12 L5,8 L9,9 L9,16 L5,20 L-1,20 L-4,18 L-2,8 Z " fill="#E9E9E9" transform="translate(12,1)"/>
<path d="M0,0 L1,0 L0,10 L-1,18 L-4,18 L-2,8 Z " fill="#CDCDCD" transform="translate(12,1)"/>
<path d="M0,0 L3,0 L3,5 L1,7 L-2,7 L-1,2 Z " fill="#151515" transform="translate(17,11)"/>
</svg>
