<?xml version="1.0" encoding="UTF-8"?>
<svg version="1.1" xmlns="http://www.w3.org/2000/svg" width="28" height="28">
<path d="M0,0 L28,0 L28,28 L0,28 Z " fill="#030303" transform="translate(0,0)"/>
<path d="M0,0 L3,0 L1,4 L-1,4 L-3,8 L-6,12 L-5,16 L-1,18 L-1,14 L2,12 L9,12 L10,16 L6,20 L-6,20 L-10,15 L-9,9 Z " fill="#E6E6E6" transform="translate(15,2)"/>
<path d="M0,0 L3,1 L2,6 L-2,8 L-2,6 L-6,5 L-4,2 L0,2 Z " fill="#D0D0D0" transform="translate(22,14)"/>
<path d="M0,0 L4,0 L2,4 L-2,3 Z " fill="#1E1E1E" transform="translate(18,16)"/>
</svg>
