<?xml version="1.0" encoding="UTF-8"?>
<svg version="1.1" xmlns="http://www.w3.org/2000/svg" width="28" height="28">
<path d="M0,0 L28,0 L28,28 L0,28 Z " fill="#040404" transform="translate(0,0)"/>
<path d="M0,0 L2,1 L1,7 L0,16 L4,16 L3,10 L6,6 L13,6 L16,9 L16,14 L11,18 L7,20 L0,19 L-2,17 L-2,2 Z " fill="#E2E2E2" transform="translate(9,3)"/>
<path d="M0,0 L2,1 L1,7 L0,16 L-2,16 L-2,2 Z " fill="#E0E0E0" transform="translate(9,3)"/>
<path d="M0,0 L6,0 L5,5 L0,6 L-1,1 Z " fill="#0C0C0C" transform="translate(16,12)"/>
</svg>
