<?xml version="1.0" encoding="UTF-8"?>
<svg version="1.1" xmlns="http://www.w3.org/2000/svg" width="28" height="28">
<path d="M0,0 L28,0 L28,28 L0,28 Z " fill="#010101" transform="translate(0,0)"/>
<path d="M0,0 L3,0 L1,4 L-6,12 L2,11 L3,16 L0,19 L-9,20 L-11,18 L-11,13 L-5,5 L-1,3 Z " fill="#D5D5D5" transform="translate(18,2)"/>
<path d="M0,0 L4,0 L5,5 L2,8 L-7,9 L-8,8 L-8,3 L-6,4 L-5,2 L-3,3 L-3,5 L2,4 L3,2 L0,2 Z " fill="#E4E4E4" transform="translate(16,13)"/>
<path d="M0,0 L5,0 L5,2 L8,2 L7,5 L2,6 Z " fill="#878787" transform="translate(11,13)"/>
</svg>
