<?xml version="1.0" encoding="UTF-8"?>
<svg version="1.1" xmlns="http://www.w3.org/2000/svg" width="28" height="28">
<path d="M0,0 L28,0 L28,28 L0,28 Z " fill="#020202" transform="translate(0,0)"/>
<path d="M0,0 L5,0 L5,3 L0,4 L-4,10 L-5,13 L-1,10 L6,11 L7,12 L6,19 L-2,20 L-7,15 L-7,9 L-3,3 Z " fill="#D2D2D2" transform="translate(15,3)"/>
<path d="M0,0 L5,0 L5,3 L0,4 L-4,10 L-5,14 L-3,14 L-3,17 L5,18 L3,20 L-4,19 L-7,15 L-7,9 L-3,3 Z " fill="#E1E1E1" transform="translate(15,3)"/>
<path d="M0,0 L5,1 L5,5 L0,6 L-2,5 L-2,1 Z " fill="#161616" transform="translate(15,15)"/>
</svg>
