<?xml version="1.0" encoding="UTF-8"?>
<svg version="1.1" xmlns="http://www.w3.org/2000/svg" width="28" height="28">
<path d="M0,0 L28,0 L28,28 L0,28 Z " fill="#020202" transform="translate(0,0)"/>
<path d="M0,0 L2,1 L-4,11 L1,12 L1,16 L-3,20 L-10,20 L-9,14 L-3,5 Z " fill="#C5C5C5" transform="translate(18,2)"/>
<path d="M0,0 L2,1 L-4,11 L0,12 L-5,15 L-6,17 L-9,17 L-10,19 L-9,14 L-3,5 Z " fill="#DDDDDD" transform="translate(18,2)"/>
<path d="M0,0 L4,0 L2,4 L-2,4 Z " fill="#0B0B0B" transform="translate(14,15)"/>
</svg>
