<?xml version="1.0" encoding="UTF-8"?>
<svg version="1.1" xmlns="http://www.w3.org/2000/svg" width="28" height="28">
<path d="M0,0 L28,0 L28,28 L0,28 Z " fill="#020202" transform="translate(0,0)"/>
<path d="M0,0 L2,0 L1,5 L0,7 L-1,16 L1,16 L2,11 L8,10 L10,12 L9,17 L3,20 L-2,19 L-4,16 L-3,6 Z " fill="#F4F4F4" transform="translate(13,1)"/>
<path d="M0,0 L5,1 L6,6 L3,8 L-2,7 L-3,3 Z " fill="#A1A1A1" transform="translate(17,11)"/>
<path d="M0,0 L2,0 L1,5 L0,7 L-1,16 L-4,12 L-2,4 Z " fill="#BEBEBE" transform="translate(13,1)"/>
</svg>
