<?xml version="1.0" encoding="UTF-8"?>
<svg version="1.1" xmlns="http://www.w3.org/2000/svg" width="28" height="28">
<path d="M0,0 L28,0 L28,28 L0,28 Z " fill="#030303" transform="translate(0,0)"/>
<path d="M0,0 L1,2 L-2,7 L-5,11 L0,13 L1,18 L-1,19 L-11,19 L-10,13 Z " fill="#DDDDDD" transform="translate(19,2)"/>
<path d="M0,0 L5,0 L7,4 L5,5 L-5,5 L-4,2 L-2,3 L-2,1 Z " fill="#CECECE" transform="translate(13,16)"/>
<path d="M0,0 L5,0 L5,3 L-1,3 Z " fill="#1E1E1E" transform="translate(13,16)"/>
</svg>
