<?xml version="1.0" encoding="UTF-8"?>
<svg version="1.1" xmlns="http://www.w3.org/2000/svg" width="28" height="28">
<path d="M0,0 L28,0 L28,28 L0,28 Z " fill="#030303" transform="translate(0,0)"/>
<path d="M0,0 L2,0 L0,4 L-6,13 L0,13 L-1,18 L-4,20 L-9,20 L-8,11 Z " fill="#CCCCCC" transform="translate(19,2)"/>
<path d="M0,0 L5,0 L4,5 L2,6 L-2,4 Z " fill="#878787" transform="translate(14,15)"/>
<path d="M0,0 L4,2 L2,4 L5,6 L4,7 L-1,7 L-1,1 Z " fill="#ECECEC" transform="translate(11,15)"/>
</svg>
