<?xml version="1.0" encoding="UTF-8"?>
<svg version="1.1" xmlns="http://www.w3.org/2000/svg" width="28" height="28">
<path d="M0,0 L28,0 L28,28 L0,28 Z " fill="#020202" transform="translate(0,0)"/>
<path d="M0,0 L2,0 L0,6 L-2,10 L3,10 L4,18 L2,20 L-2,19 L-4,17 L-4,6 L-1,1 Z " fill="#F1F1F1" transform="translate(15,3)"/>
<path d="M0,0 L2,3 L2,8 L0,9 L-3,8 L-4,3 L0,2 Z " fill="#848484" transform="translate(17,13)"/>
<path d="M0,0 L2,0 L0,6 L-4,8 L-2,2 Z " fill="#CCCCCC" transform="translate(15,3)"/>
</svg>
