<?xml version="1.0" encoding="UTF-8"?>
<svg version="1.1" xmlns="http://www.w3.org/2000/svg" width="28" height="28">
<path d="M0,0 L28,0 L28,28 L0,28 Z " fill="#040404" transform="translate(0,0)"/>
<path d="M0,0 L2,0 L1,4 L-7,13 L-5,12 L2,12 L0,17 L-5,20 L-10,19 L-10,12 L-1,2 Z " fill="#AAAAAA" transform="translate(19,2)"/>
<path d="M0,0 L2,0 L1,4 L-7,13 L-9,13 L-7,9 Z " fill="#DDDDDD" transform="translate(19,2)"/>
<path d="M0,0 L7,0 L6,2 L-1,4 Z " fill="#E0E0E0" transform="translate(14,14)"/>
</svg>
