<?xml version="1.0" encoding="UTF-8"?>
<svg version="1.1" xmlns="http://www.w3.org/2000/svg" width="28" height="28">
<path d="M0,0 L28,0 L28,28 L0,28 Z " fill="#030303" transform="translate(0,0)"/>
<path d="M0,0 L3,0 L1,4 L-7,14 L-8,16 L-3,12 L3,11 L6,13 L5,17 L0,18 L0,20 L-7,20 L-11,17 L-10,12 L-6,6 L-2,2 L0,2 Z " fill="#E4E4E4" transform="translate(17,2)"/>
<path d="M0,0 L3,1 L2,5 L-3,6 L-3,4 L-1,3 L-2,1 Z " fill="#ECECEC" transform="translate(20,14)"/>
<path d="M0,0 L3,0 L2,5 L-2,4 Z " fill="#9C9C9C" transform="translate(17,13)"/>
</svg>
