<?xml version="1.0" encoding="UTF-8"?>
<svg version="1.1" xmlns="http://www.w3.org/2000/svg" width="28" height="28">
<path d="M0,0 L28,0 L28,28 L0,28 Z " fill="#030303" transform="translate(0,0)"/>
<path d="M0,0 L2,0 L1,4 L-3,9 L-5,13 L-3,12 L4,12 L7,14 L6,20 L-2,20 L-2,18 L5,18 L4,16 L-5,15 L-5,17 L-8,17 L-8,11 L-3,3 L-1,3 Z " fill="#D8D8D8" transform="translate(16,2)"/>
<path d="M0,0 L1,2 L4,2 L4,0 L13,0 L14,3 L5,4 L0,3 Z " fill="#616161" transform="translate(7,17)"/>
<path d="M0,0 L8,0 L9,5 L8,7 L0,7 L0,5 L7,5 L5,2 L0,1 Z " fill="#F5F5F5" transform="translate(14,15)"/>
</svg>
