<?xml version="1.0" encoding="UTF-8"?>
<svg version="1.1" xmlns="http://www.w3.org/2000/svg" width="28" height="28">
<path d="M0,0 L28,0 L28,28 L0,28 Z " fill="#020202" transform="translate(0,0)"/>
<path d="M0,0 L2,0 L-1,9 L-1,12 L3,11 L7,13 L8,17 L6,20 L-3,19 L-6,16 L-5,10 L-4,7 L-2,7 L-1,1 Z " fill="#DDDDDD" transform="translate(14,2)"/>
<path d="M0,0 L5,1 L8,4 L6,8 L-1,7 L-2,2 Z " fill="#C9C9C9" transform="translate(14,13)"/>
<path d="M0,0 L5,0 L5,4 L-1,4 L-1,1 Z " fill="#191919" transform="translate(14,16)"/>
</svg>
