<?xml version="1.0" encoding="UTF-8"?>
<svg version="1.1" xmlns="http://www.w3.org/2000/svg" width="28" height="28">
<path d="M0,0 L28,0 L28,28 L0,28 Z " fill="#020202" transform="translate(0,0)"/>
<path d="M0,0 L2,0 L0,6 L-2,12 L4,11 L5,12 L5,19 L-2,20 L-6,16 L-5,9 L-1,1 Z " fill="#DBDBDB" transform="translate(15,2)"/>
<path d="M0,0 L2,0 L0,6 L-5,16 L-6,12 L-2,3 Z " fill="#D2D2D2" transform="translate(15,2)"/>
<path d="M0,0 L4,2 L3,5 L-3,4 L-3,2 Z " fill="#212121" transform="translate(15,15)"/>
</svg>
