<?xml version="1.0" encoding="UTF-8"?>
<svg version="1.1" xmlns="http://www.w3.org/2000/svg" width="28" height="28">
<path d="M0,0 L28,0 L28,28 L0,28 Z " fill="#030303" transform="translate(0,0)"/>
<path d="M0,0 L2,0 L1,4 L0,6 L-2,6 L-4,10 L-6,16 L0,11 L8,11 L9,16 L6,19 L-6,20 L-9,17 L-8,12 L-4,5 L-2,5 Z " fill="#E1E1E1" transform="translate(15,1)"/>
<path d="M0,0 L8,0 L9,5 L5,8 L-2,7 L-2,4 L4,3 L4,1 Z " fill="#C4C4C4" transform="translate(15,12)"/>
<path d="M0,0 L6,0 L5,3 L-4,3 L-3,1 Z " fill="#0D0D0D" transform="translate(16,15)"/>
</svg>
