<?xml version="1.0" encoding="UTF-8"?>
<svg version="1.1" xmlns="http://www.w3.org/2000/svg" width="28" height="28">
<path d="M0,0 L28,0 L28,28 L0,28 Z " fill="#030303" transform="translate(0,0)"/>
<path d="M0,0 L2,0 L0,4 L-6,11 L2,12 L2,18 L0,20 L-10,20 L-12,18 L-11,13 L-3,3 L-1,3 Z " fill="#CFCFCF" transform="translate(19,2)"/>
<path d="M0,0 L8,0 L8,6 L6,8 L-4,8 L-6,6 L-6,3 L-3,3 L-3,5 L7,5 L7,2 L0,1 Z " fill="#E8E8E8" transform="translate(13,14)"/>
<path d="M0,0 L4,1 L4,4 L-3,5 L-5,4 L-4,1 Z " fill="#131313" transform="translate(16,15)"/>
</svg>
