<?xml version="1.0" encoding="UTF-8"?>
<svg version="1.1" xmlns="http://www.w3.org/2000/svg" width="28" height="28">
<path d="M0,0 L28,0 L28,28 L0,28 Z " fill="#020202" transform="translate(0,0)"/>
<path d="M0,0 L1,0 L0,7 L2,8 L2,10 L7,11 L6,15 L3,20 L-9,20 L-9,14 L-2,4 Z " fill="#DEDEDE" transform="translate(16,2)"/>
<path d="M0,0 L5,1 L6,3 L4,7 L-3,7 L-3,3 Z " fill="#121212" transform="translate(15,13)"/>
<path d="M0,0 L1,0 L0,7 L2,9 L-2,9 L-3,5 Z " fill="#C5C5C5" transform="translate(16,2)"/>
</svg>
