<?xml version="1.0" encoding="UTF-8"?>
<svg version="1.1" xmlns="http://www.w3.org/2000/svg" width="28" height="28">
<path d="M0,0 L28,0 L28,28 L0,28 Z " fill="#020202" transform="translate(0,0)"/>
<path d="M0,0 L2,0 L0,6 L-1,18 L1,18 L0,12 L3,9 L8,9 L9,10 L9,16 L5,19 L-2,20 L-3,19 L-3,6 Z " fill="#C9C9C9" transform="translate(13,2)"/>
<path d="M0,0 L2,0 L0,6 L-1,18 L4,18 L2,20 L-3,19 L-3,6 Z " fill="#DFDFDF" transform="translate(13,2)"/>
<path d="M0,0 L4,0 L4,5 L-1,6 L-1,1 Z " fill="#060606" transform="translate(16,13)"/>
</svg>
