<?xml version="1.0" encoding="UTF-8"?>
<svg version="1.1" xmlns="http://www.w3.org/2000/svg" width="28" height="28">
<path d="M0,0 L28,0 L28,28 L0,28 Z " fill="#010101" transform="translate(0,0)"/>
<path d="M0,0 L4,1 L5,3 L0,4 L-5,10 L0,8 L3,10 L2,17 L-3,20 L-8,19 L-9,18 L-9,11 L-2,1 Z " fill="#E6E6E6" transform="translate(18,3)"/>
<path d="M0,0 L4,2 L3,9 L1,11 L-2,10 L-6,8 L-5,5 L-4,7 Z " fill="#CFCFCF" transform="translate(17,11)"/>
<path d="M0,0 L4,0 L2,5 L-3,6 L-4,2 L-2,4 Z " fill="#060606" transform="translate(15,14)"/>
<path d="M0,0 L4,1 L5,3 L0,4 L-3,4 L-2,1 Z M-4,4 Z " fill="#CCCCCC" transform="translate(18,3)"/>
</svg>
