<?xml version="1.0" encoding="UTF-8"?>
<svg version="1.1" xmlns="http://www.w3.org/2000/svg" width="28" height="28">
<path d="M0,0 L28,0 L28,28 L0,28 Z " fill="#030303" transform="translate(0,0)"/>
<path d="M0,0 L2,0 L0,5 L-2,5 L-2,7 L-4,9 L2,9 L3,14 L-2,18 L-6,20 L-10,19 L1,13 L2,11 L-7,13 L-9,13 L-13,18 L-12,12 L-1,2 Z " fill="#DEDEDE" transform="translate(20,3)"/>
<path d="M0,0 L2,1 L4,0 L10,0 L8,4 L-3,9 L-5,7 L-2,2 Z " fill="#131313" transform="translate(12,14)"/>
<path d="M0,0 L2,3 L-2,9 L-5,7 L-2,2 Z " fill="#787878" transform="translate(12,14)"/>
</svg>
