<?xml version="1.0" encoding="UTF-8"?>
<svg version="1.1" xmlns="http://www.w3.org/2000/svg" width="28" height="28">
<path d="M0,0 L28,0 L28,28 L0,28 Z " fill="#030303" transform="translate(0,0)"/>
<path d="M0,0 L2,0 L1,5 L-3,11 L3,10 L6,11 L7,15 L-1,20 L-7,20 L-9,16 L-6,8 Z " fill="#EEEEEE" transform="translate(16,2)"/>
<path d="M0,0 L2,0 L1,5 L-3,11 L3,10 L3,15 L-3,17 L-2,13 L-5,10 L-7,11 L-5,6 Z " fill="#E4E4E4" transform="translate(16,2)"/>
<path d="M0,0 L7,0 L7,5 L1,7 L2,3 L0,2 Z " fill="#808080" transform="translate(12,12)"/>
</svg>
