<?xml version="1.0" encoding="UTF-8"?>
<svg version="1.1" xmlns="http://www.w3.org/2000/svg" width="28" height="28">
<path d="M0,0 L28,0 L28,28 L0,28 Z " fill="#030303" transform="translate(0,0)"/>
<path d="M0,0 L2,1 L-6,8 L-15,15 L-16,17 L-12,17 L-10,13 L-5,10 L1,10 L0,15 L-6,18 L-9,18 L-9,20 L-17,19 L-17,14 L-12,9 Z " fill="#E1E1E1" transform="translate(22,2)"/>
<path d="M0,0 L6,0 L5,5 L-2,8 L-6,6 L-2,1 Z " fill="#C9C9C9" transform="translate(17,12)"/>
<path d="M0,0 L2,1 L0,5 L-4,9 L-8,9 L-6,5 Z " fill="#232323" transform="translate(14,10)"/>
<path d="M0,0 L3,1 L-3,5 L-7,4 L-3,1 Z " fill="#191919" transform="translate(18,14)"/>
</svg>
