<?xml version="1.0" encoding="UTF-8"?>
<svg version="1.1" xmlns="http://www.w3.org/2000/svg" width="28" height="28">
<path d="M0,0 L28,0 L28,28 L0,28 Z " fill="#020202" transform="translate(0,0)"/>
<path d="M0,0 L2,0 L0,4 L-10,13 L-10,16 L-3,10 L2,10 L3,14 L-2,18 L-12,20 L-13,13 L-8,8 Z " fill="#D9D9D9" transform="translate(20,2)"/>
<path d="M0,0 L5,0 L6,4 L1,8 L-5,7 L-3,4 L-1,4 L-2,1 Z " fill="#D5D5D5" transform="translate(17,12)"/>
<path d="M0,0 Z M-2,1 L0,2 L-5,8 L-10,13 L-9,8 Z " fill="#1D1D1D" transform="translate(19,6)"/>
<path d="M0,0 L4,0 L3,3 L-1,5 L-5,4 Z " fill="#202020" transform="translate(17,14)"/>
</svg>
