<?xml version="1.0" encoding="UTF-8"?>
<svg version="1.1" xmlns="http://www.w3.org/2000/svg" width="28" height="28">
<path d="M0,0 L28,0 L28,28 L0,28 Z " fill="#020202" transform="translate(0,0)"/>
<path d="M0,0 L2,1 L-2,7 L-2,10 L2,10 L3,16 L-2,20 L-7,19 L-8,15 L-1,1 Z " fill="#D4D4D4" transform="translate(17,2)"/>
<path d="M0,0 L3,0 L1,4 L-1,6 L-4,6 L-3,2 Z " fill="#0E0E0E" transform="translate(16,14)"/>
<path d="M0,0 L4,0 L4,2 L-1,4 L-4,4 L-4,2 Z " fill="#E6E6E6" transform="translate(15,12)"/>
</svg>
