<?xml version="1.0" encoding="UTF-8"?>
<svg version="1.1" xmlns="http://www.w3.org/2000/svg" width="28" height="28">
<path d="M0,0 L28,0 L28,28 L0,28 Z " fill="#040404" transform="translate(0,0)"/>
<path d="M0,0 L3,0 L2,5 L-1,11 L-1,16 L0,16 L0,10 L2,8 L8,8 L8,15 L3,20 L-2,19 L-4,17 L-4,9 Z " fill="#E8E8E8" transform="translate(13,3)"/>
<path d="M0,0 L3,0 L2,5 L-1,11 L0,19 L-4,17 L-4,9 Z " fill="#DDDDDD" transform="translate(13,3)"/>
<path d="M0,0 L1,0 L3,9 L-1,7 L-1,1 Z " fill="#F7F7F7" transform="translate(10,13)"/>
<path d="M0,0 L2,0 L1,5 L-2,6 L-1,1 Z " fill="#212121" transform="translate(17,13)"/>
</svg>
