<?xml version="1.0" encoding="UTF-8"?>
<svg version="1.1" xmlns="http://www.w3.org/2000/svg" width="28" height="28">
<path d="M0,0 L28,0 L28,28 L0,28 Z " fill="#040404" transform="translate(0,0)"/>
<path d="M0,0 L3,1 L2,3 L-1,4 L-2,6 L-4,6 L-2,12 L3,8 L10,8 L12,9 L13,14 L12,16 L9,17 L-1,17 L-6,14 L-7,6 L-2,1 Z " fill="#D0D0D0" transform="translate(12,4)"/>
<path d="M0,0 L7,1 L8,6 L7,8 L4,9 L-6,9 L-5,5 L-3,4 L-3,7 L5,6 L5,3 L-2,3 Z " fill="#EEEEEE" transform="translate(17,12)"/>
<path d="M0,0 L3,1 L2,3 L-1,4 L-2,6 L-4,6 L-3,12 L-7,11 L-7,6 L-2,1 Z " fill="#F5F5F5" transform="translate(12,4)"/>
<path d="M0,0 L5,1 L5,4 L-2,5 L-1,1 Z " fill="#212121" transform="translate(17,14)"/>
<path d="M0,0 L3,1 L2,3 L-1,4 L-3,6 L-4,2 Z " fill="#DEDEDE" transform="translate(12,4)"/>
</svg>
