<?xml version="1.0" encoding="UTF-8"?>
<svg version="1.1" xmlns="http://www.w3.org/2000/svg" width="28" height="28">
<path d="M0,0 L28,0 L28,28 L0,28 Z " fill="#020202" transform="translate(0,0)"/>
<path d="M0,0 L1,0 L1,14 L6,10 L13,11 L12,17 L7,20 L1,20 L-3,15 L-3,8 Z " fill="#D0D0D0" transform="translate(11,2)"/>
<path d="M0,0 L1,0 L1,16 L3,15 L3,18 L8,18 L7,20 L1,20 L-3,15 L-3,8 Z " fill="#F1F1F1" transform="translate(11,2)"/>
<path d="M0,0 L5,1 L3,5 L-2,6 L-1,1 Z " fill="#151515" transform="translate(17,14)"/>
<path d="M0,0 L1,0 L0,14 L-3,11 L-1,1 Z " fill="#D1D1D1" transform="translate(11,2)"/>
</svg>
