<?xml version="1.0" encoding="UTF-8"?>
<svg version="1.1" xmlns="http://www.w3.org/2000/svg" width="28" height="28">
<path d="M0,0 L28,0 L28,28 L0,28 Z " fill="#030303" transform="translate(0,0)"/>
<path d="M0,0 L2,0 L1,5 L-3,12 L-4,16 L-2,16 L-1,11 L2,8 L8,8 L8,13 L3,18 L2,20 L-5,19 L-6,18 L-6,11 L-2,4 Z " fill="#DBDBDB" transform="translate(14,3)"/>
<path d="M0,0 L6,0 L6,5 L1,9 L-2,8 L-3,3 Z " fill="#D5D5D5" transform="translate(16,11)"/>
<path d="M0,0 L1,3 L-4,7 L-5,4 Z " fill="#1B1B1B" transform="translate(19,12)"/>
</svg>
