<?xml version="1.0" encoding="UTF-8"?>
<svg version="1.1" xmlns="http://www.w3.org/2000/svg" width="28" height="28">
<path d="M0,0 L28,0 L28,28 L0,28 Z " fill="#020202" transform="translate(0,0)"/>
<path d="M0,0 L2,0 L1,4 L0,17 L2,17 L3,11 L6,11 L6,16 L1,20 L-2,19 L-3,9 L-1,2 Z " fill="#C7C7C7" transform="translate(13,3)"/>
<path d="M0,0 L2,1 L2,6 L-3,10 L-5,10 L-5,7 L-2,7 L-1,1 Z " fill="#ECECEC" transform="translate(17,13)"/>
<path d="M0,0 L2,0 L0,9 L-2,7 L-1,2 Z " fill="#E1E1E1" transform="translate(13,3)"/>
</svg>
