<?xml version="1.0" encoding="UTF-8"?>
<svg version="1.1" xmlns="http://www.w3.org/2000/svg" width="28" height="28">
<path d="M0,0 L28,0 L28,28 L0,28 Z " fill="#040404" transform="translate(0,0)"/>
<path d="M0,0 L2,0 L1,4 L-3,9 L-7,16 L-6,15 L-1,10 L4,10 L5,15 L0,19 L-3,20 L-10,20 L-12,16 L-7,7 Z " fill="#ECECEC" transform="translate(18,2)"/>
<path d="M0,0 L2,0 L1,4 L-3,6 L-7,8 L-1,1 Z " fill="#C2C2C2" transform="translate(18,2)"/>
<path d="M0,0 L2,0 L3,4 L0,6 L0,4 L-2,4 Z " fill="#8D8D8D" transform="translate(19,14)"/>
</svg>
