<?xml version="1.0" encoding="UTF-8"?>
<svg version="1.1" xmlns="http://www.w3.org/2000/svg" width="28" height="28">
<path d="M0,0 L28,0 L28,28 L0,28 Z " fill="#030303" transform="translate(0,0)"/>
<path d="M0,0 L4,0 L3,4 L1,4 L0,14 L2,14 L3,11 L5,11 L5,9 L12,8 L13,9 L13,17 L8,19 L0,20 L-3,14 L-3,6 Z " fill="#DFDFDF" transform="translate(10,3)"/>
<path d="M0,0 L5,1 L5,9 L0,11 L-4,10 L-1,8 L2,5 L-1,4 L-3,3 Z " fill="#E7E7E7" transform="translate(18,11)"/>
<path d="M0,0 L4,0 L3,4 L1,4 L-1,12 L-3,12 L-3,6 Z " fill="#E9E9E9" transform="translate(10,3)"/>
<path d="M0,0 L4,1 L2,5 L-4,5 Z " fill="#1B1B1B" transform="translate(17,14)"/>
</svg>
