<?xml version="1.0" encoding="UTF-8"?>
<svg version="1.1" xmlns="http://www.w3.org/2000/svg" width="28" height="28">
<path d="M0,0 L28,0 L28,28 L0,28 Z " fill="#040404" transform="translate(0,0)"/>
<path d="M0,0 L4,1 L4,4 L0,4 L-2,7 L-2,15 L0,8 L4,7 L7,10 L7,18 L3,20 L-3,19 L-5,16 L-5,6 L-2,1 Z " fill="#F1F1F1" transform="translate(14,3)"/>
<path d="M0,0 L4,1 L6,3 L6,11 L3,12 L0,11 L-2,2 Z " fill="#D0D0D0" transform="translate(15,10)"/>
<path d="M0,0 L4,1 L4,4 L0,4 L-5,9 L-4,4 Z " fill="#D4D4D4" transform="translate(14,3)"/>
<path d="M0,0 L3,2 L3,7 L-1,8 L-1,1 Z " fill="#040404" transform="translate(16,12)"/>
<path d="M0,0 L1,0 L1,8 L-2,9 L-5,7 L-2,6 Z " fill="#B6B6B6" transform="translate(20,13)"/>
</svg>
