<?xml version="1.0" encoding="UTF-8"?>
<svg version="1.1" xmlns="http://www.w3.org/2000/svg" width="28" height="28">
<path d="M0,0 L28,0 L28,28 L0,28 Z " fill="#020202" transform="translate(0,0)"/>
<path d="M0,0 L2,0 L0,4 L-3,10 L2,12 L2,18 L0,20 L-6,19 L-7,14 L-4,5 Z " fill="#C6C6C6" transform="translate(17,3)"/>
<path d="M0,0 L1,0 L1,7 L4,7 L4,3 L2,1 L7,2 L7,8 L5,10 L-1,9 L-2,4 Z " fill="#E6E6E6" transform="translate(12,13)"/>
<path d="M0,0 L3,0 L2,5 L-2,4 Z " fill="#131313" transform="translate(14,16)"/>
</svg>
