<?xml version="1.0" encoding="UTF-8"?>
<svg version="1.1" xmlns="http://www.w3.org/2000/svg" width="28" height="28">
<path d="M0,0 L28,0 L28,28 L0,28 Z " fill="#030303" transform="translate(0,0)"/>
<path d="M0,0 L2,0 L0,5 L-6,13 L-7,17 L-5,17 L-3,12 L2,9 L7,9 L8,10 L8,16 L5,19 L1,20 L-8,20 L-10,18 L-10,12 L-2,2 Z " fill="#E7E7E7" transform="translate(16,2)"/>
<path d="M0,0 L2,0 L0,5 L-6,13 L-8,9 Z " fill="#EAEAEA" transform="translate(16,2)"/>
<path d="M0,0 L5,0 L4,4 L0,6 L-3,6 L-2,2 Z " fill="#1B1B1B" transform="translate(17,14)"/>
<path d="M0,0 L5,0 L3,3 L-2,5 L-5,9 L-6,4 Z " fill="#D9D9D9" transform="translate(18,11)"/>
</svg>
