<?xml version="1.0" encoding="UTF-8"?>
<svg version="1.1" xmlns="http://www.w3.org/2000/svg" width="28" height="28">
<path d="M0,0 L28,0 L28,28 L0,28 Z " fill="#030303" transform="translate(0,0)"/>
<path d="M0,0 L3,0 L1,4 L-6,12 L-5,13 L-1,10 L6,11 L6,16 L2,19 L-6,20 L-9,18 L-10,13 L-5,5 Z " fill="#E9E9E9" transform="translate(17,3)"/>
<path d="M0,0 L3,0 L1,4 L-5,11 L-8,11 L-6,6 Z " fill="#E4E4E4" transform="translate(17,3)"/>
<path d="M0,0 L4,1 L3,4 L-4,5 Z " fill="#171717" transform="translate(17,15)"/>
<path d="M0,0 L7,1 L7,6 L4,3 L-2,2 Z " fill="#D3D3D3" transform="translate(16,13)"/>
</svg>
