<?xml version="1.0" encoding="UTF-8"?>
<svg version="1.1" xmlns="http://www.w3.org/2000/svg" width="28" height="28">
<path d="M0,0 L28,0 L28,28 L0,28 Z " fill="#010101" transform="translate(0,0)"/>
<path d="M0,0 L2,0 L0,4 L-3,18 L3,16 L6,14 L7,11 L0,13 L-1,15 L1,16 L-2,16 L-1,11 L0,10 L8,10 L8,15 L1,20 L-4,20 L-5,19 L-5,11 L-1,1 Z " fill="#D2D2D2" transform="translate(14,2)"/>
<path d="M0,0 L5,0 L4,4 L-1,7 L-3,5 L-2,1 Z " fill="#202020" transform="translate(16,13)"/>
<path d="M0,0 L2,1 L2,7 L5,8 L1,9 L0,8 Z " fill="#9E9E9E" transform="translate(9,13)"/>
</svg>
