<?xml version="1.0" encoding="UTF-8"?>
<svg version="1.1" xmlns="http://www.w3.org/2000/svg" width="28" height="28">
<path d="M0,0 L28,0 L28,28 L0,28 Z " fill="#020202" transform="translate(0,0)"/>
<path d="M0,0 L3,1 L-1,7 L-2,10 L1,8 L5,9 L4,15 L-1,19 L-6,20 L-7,19 L-7,12 L-1,1 Z " fill="#989898" transform="translate(16,3)"/>
<path d="M0,0 L3,1 L-2,8 L-5,18 L-3,18 L-3,16 L1,16 L1,18 L-3,20 L-7,19 L-7,12 L-1,1 Z " fill="#EAEAEA" transform="translate(16,3)"/>
<path d="M0,0 L3,1 L-1,7 L-4,6 Z " fill="#CECECE" transform="translate(16,3)"/>
</svg>
