<?xml version="1.0" encoding="UTF-8"?>
<svg version="1.1" xmlns="http://www.w3.org/2000/svg" width="28" height="28">
<path d="M0,0 L28,0 L28,28 L0,28 Z " fill="#040404" transform="translate(0,0)"/>
<path d="M0,0 L2,0 L1,4 L-5,13 L-6,17 L-2,16 L2,11 L7,11 L8,15 L2,19 L-7,20 L-9,17 L-8,11 L-4,5 Z " fill="#D9D9D9" transform="translate(16,2)"/>
<path d="M0,0 L5,0 L6,4 L2,6 L-1,5 L-2,2 Z M-3,3 Z " fill="#C9C9C9" transform="translate(18,13)"/>
<path d="M0,0 L1,2 L4,3 L2,5 L-5,6 L-5,4 L-2,4 Z " fill="#F9F9F9" transform="translate(16,16)"/>
</svg>
