<?xml version="1.0" encoding="UTF-8"?>
<svg version="1.1" xmlns="http://www.w3.org/2000/svg" width="28" height="28">
<path d="M0,0 L28,0 L28,28 L0,28 Z " fill="#020202" transform="translate(0,0)"/>
<path d="M0,0 L7,1 L8,3 L7,5 L5,5 L5,3 L-1,5 L-3,8 L-3,11 L5,13 L8,16 L4,20 L0,19 L-5,14 L-6,8 L-3,2 Z " fill="#DDDDDD" transform="translate(14,4)"/>
<path d="M0,0 L7,1 L8,3 L7,5 L5,5 L5,3 L-1,5 L-3,7 L-4,3 Z " fill="#D9D9D9" transform="translate(14,4)"/>
<path d="M0,0 L7,0 L9,2 L5,4 L0,1 Z " fill="#7B7B7B" transform="translate(13,19)"/>
</svg>
