<?xml version="1.0" encoding="UTF-8"?>
<svg version="1.1" xmlns="http://www.w3.org/2000/svg" width="28" height="28">
<path d="M0,0 L28,0 L28,28 L0,28 Z " fill="#030303" transform="translate(0,0)"/>
<path d="M0,0 L2,0 L2,4 L-2,8 L-2,11 L2,8 L5,9 L5,15 L0,20 L-8,20 L-7,12 L-2,2 Z " fill="#E2E2E2" transform="translate(16,3)"/>
<path d="M0,0 L2,0 L2,4 L-2,8 L-3,13 L-7,14 L-5,7 Z " fill="#DCDCDC" transform="translate(16,3)"/>
<path d="M0,0 L2,0 L1,4 L-4,8 L-6,8 L-5,4 Z " fill="#161616" transform="translate(17,14)"/>
</svg>
