<?xml version="1.0" encoding="UTF-8"?>
<svg version="1.1" xmlns="http://www.w3.org/2000/svg" width="28" height="28">
<path d="M0,0 L28,0 L28,28 L0,28 Z " fill="#020202" transform="translate(0,0)"/>
<path d="M0,0 L2,0 L2,2 L0,2 L-1,6 L-3,11 L2,10 L3,13 L-1,18 L-5,20 L-9,19 L-9,13 L-2,2 Z " fill="#EBEBEB" transform="translate(18,2)"/>
<path d="M0,0 L4,1 L2,6 L-3,9 L-3,7 L-5,6 L-4,1 Z " fill="#DADADA" transform="translate(17,12)"/>
<path d="M0,0 L2,0 L1,5 L-2,6 L-2,4 L-4,3 Z " fill="#979797" transform="translate(16,15)"/>
</svg>
