<?xml version="1.0" encoding="UTF-8"?>
<svg version="1.1" xmlns="http://www.w3.org/2000/svg" width="28" height="28">
<path d="M0,0 L28,0 L28,28 L0,28 Z " fill="#030303" transform="translate(0,0)"/>
<path d="M0,0 L2,0 L0,5 L-3,10 L3,9 L4,10 L4,15 L-4,20 L-8,19 L-8,12 L-2,2 Z " fill="#E5E5E5" transform="translate(17,3)"/>
<path d="M0,0 L2,0 L0,5 L-3,9 L-3,12 L-5,12 L-6,8 Z " fill="#D9D9D9" transform="translate(17,3)"/>
<path d="M0,0 L3,0 L2,4 L-4,6 L-3,2 Z " fill="#181818" transform="translate(16,14)"/>
</svg>
