<?xml version="1.0" encoding="UTF-8"?>
<svg version="1.1" xmlns="http://www.w3.org/2000/svg" width="28" height="28">
<path d="M0,0 L28,0 L28,28 L0,28 Z " fill="#030303" transform="translate(0,0)"/>
<path d="M0,0 L4,0 L4,2 L0,6 L-2,10 L-3,18 L2,15 L4,11 L-2,12 L0,9 L5,9 L6,14 L1,19 L-4,20 L-6,18 L-5,8 Z " fill="#E4E4E4" transform="translate(15,3)"/>
<path d="M0,0 L1,0 L2,5 L4,6 L4,8 L0,7 L-1,6 L-1,1 Z " fill="#FFFFFF" transform="translate(10,15)"/>
<path d="M0,0 L2,0 L0,10 L-1,10 L-2,1 Z M-3,5 Z " fill="#C6C6C6" transform="translate(12,10)"/>
</svg>
