<?xml version="1.0" encoding="UTF-8"?>
<svg version="1.1" xmlns="http://www.w3.org/2000/svg" width="28" height="28">
<path d="M0,0 L28,0 L28,28 L0,28 Z " fill="#010101" transform="translate(0,0)"/>
<path d="M0,0 L3,0 L3,2 L1,2 L0,8 L4,9 L3,16 L-1,20 L-5,19 L-6,18 L-5,9 L-1,1 Z " fill="#E9E9E9" transform="translate(16,3)"/>
<path d="M0,0 L6,2 L5,9 L-1,10 L-1,6 L2,4 L0,3 Z " fill="#868686" transform="translate(14,10)"/>
<path d="M0,0 L4,4 L8,5 L5,8 L1,7 L0,6 Z " fill="#C7C7C7" transform="translate(10,15)"/>
<path d="M0,0 L3,0 L3,2 L1,2 L-1,6 L-3,6 L-1,1 Z " fill="#CECECE" transform="translate(16,3)"/>
</svg>
