<?xml version="1.0" encoding="UTF-8"?>
<svg version="1.1" xmlns="http://www.w3.org/2000/svg" width="28" height="28">
<path d="M0,0 L28,0 L28,28 L0,28 Z " fill="#020202" transform="translate(0,0)"/>
<path d="M0,0 L3,0 L3,3 L0,3 L-2,10 L4,11 L5,16 L-2,14 L2,18 L2,20 L-2,19 L-5,16 L-6,11 L-4,5 L-2,1 Z " fill="#EBEBEB" transform="translate(15,3)"/>
<path d="M0,0 L3,0 L3,3 L0,3 L-2,10 L2,11 L-3,11 L-5,6 L-2,1 Z " fill="#CCCCCC" transform="translate(15,3)"/>
<path d="M0,0 L5,0 L8,0 L7,5 L4,6 L4,4 L0,2 Z " fill="#686868" transform="translate(13,17)"/>
</svg>
