<?xml version="1.0" encoding="UTF-8"?>
<svg version="1.1" xmlns="http://www.w3.org/2000/svg" width="28" height="28">
<path d="M0,0 L28,0 L28,28 L0,28 Z " fill="#010101" transform="translate(0,0)"/>
<path d="M0,0 L3,1 L1,7 L-2,12 L-2,13 L7,12 L10,15 L9,18 L4,20 L-5,19 L-7,16 L-6,11 L-2,5 L-4,2 Z " fill="#ECECEC" transform="translate(14,1)"/>
<path d="M0,0 L3,1 L1,7 L-2,12 L-4,16 L-6,11 L-2,5 L-4,2 Z " fill="#DFDFDF" transform="translate(14,1)"/>
<path d="M0,0 L3,1 L1,5 L-4,3 Z " fill="#C5C5C5" transform="translate(14,1)"/>
</svg>
