<?xml version="1.0" encoding="UTF-8"?>
<svg version="1.1" xmlns="http://www.w3.org/2000/svg" width="28" height="28">
<path d="M0,0 L28,0 L28,28 L0,28 Z " fill="#010101" transform="translate(0,0)"/>
<path d="M0,0 L1,3 L-1,12 L5,12 L4,18 L1,20 L-3,20 L-5,15 L-2,3 Z " fill="#EFEFEF" transform="translate(15,2)"/>
<path d="M0,0 L1,3 L-2,13 L-4,13 L-3,7 Z " fill="#DBDBDB" transform="translate(15,2)"/>
<path d="M0,0 L3,0 L1,4 L-3,5 L-2,1 Z " fill="#161616" transform="translate(16,15)"/>
<path d="M0,0 L1,3 L7,1 L6,4 L0,5 Z " fill="#D5D5D5" transform="translate(12,17)"/>
</svg>
