<?xml version="1.0" encoding="UTF-8"?>
<svg version="1.1" xmlns="http://www.w3.org/2000/svg" width="28" height="28">
<path d="M0,0 L28,0 L28,28 L0,28 Z " fill="#030303" transform="translate(0,0)"/>
<path d="M0,0 L4,0 L2,4 L-2,9 L-2,16 L0,16 L1,11 L5,8 L10,8 L11,9 L11,16 L6,19 L-1,20 L-6,14 L-5,7 Z " fill="#EBEBEB" transform="translate(13,3)"/>
<path d="M0,0 L5,0 L6,1 L6,8 L2,10 L2,8 L-3,9 L-3,5 L-5,4 Z " fill="#D7D7D7" transform="translate(18,11)"/>
<path d="M0,0 L4,0 L3,4 L0,6 L-3,6 L-2,2 Z " fill="#131313" transform="translate(18,14)"/>
</svg>
