<?xml version="1.0" encoding="UTF-8"?>
<svg version="1.1" xmlns="http://www.w3.org/2000/svg" width="28" height="28">
<path d="M0,0 L28,0 L28,28 L0,28 Z " fill="#020202" transform="translate(0,0)"/>
<path d="M0,0 L2,0 L1,3 L-2,5 L-3,8 L-3,15 L-1,11 L6,10 L8,12 L8,18 L5,20 L-1,20 L-6,16 L-7,14 L-7,8 L-3,2 Z " fill="#C8C8C8" transform="translate(15,3)"/>
<path d="M0,0 L2,0 L1,3 L-2,5 L-3,8 L-3,15 L-1,12 L1,13 L-1,18 L2,19 L-3,19 L-7,14 L-7,8 L-3,2 Z " fill="#DCDCDC" transform="translate(15,3)"/>
<path d="M0,0 L3,0 L3,5 L2,6 L-4,6 L-3,1 Z " fill="#0F0F0F" transform="translate(18,15)"/>
<path d="M0,0 L2,1 L0,6 L3,7 L-2,7 L-4,4 L-1,4 Z " fill="#F2F2F2" transform="translate(14,15)"/>
</svg>
