<?xml version="1.0" encoding="UTF-8"?>
<svg version="1.1" xmlns="http://www.w3.org/2000/svg" width="28" height="28">
<path d="M0,0 L28,0 L28,28 L0,28 Z " fill="#010101" transform="translate(0,0)"/>
<path d="M0,0 L3,0 L3,2 L1,2 L-1,8 L-2,10 L1,11 L1,17 L-2,20 L-6,19 L-6,12 L-3,4 Z " fill="#DBDBDB" transform="translate(17,3)"/>
<path d="M0,0 L5,3 L3,7 L0,7 Z " fill="#E4E4E4" transform="translate(12,16)"/>
<path d="M0,0 L1,0 L1,6 L-4,4 L-3,1 Z " fill="#808080" transform="translate(17,14)"/>
</svg>
