<?xml version="1.0" encoding="UTF-8"?>
<svg version="1.1" xmlns="http://www.w3.org/2000/svg" width="28" height="28">
<path d="M0,0 L28,0 L28,28 L0,28 Z " fill="#030303" transform="translate(0,0)"/>
<path d="M0,0 L0,3 L-6,5 L-8,10 L-1,11 L1,12 L0,16 L-5,19 L-12,20 L-14,18 L-14,11 L-8,3 L-5,1 Z " fill="#D7D7D7" transform="translate(21,3)"/>
<path d="M0,0 L9,2 L11,3 L10,7 L5,10 L-2,11 L-1,9 L4,6 L5,4 L1,3 Z " fill="#EEEEEE" transform="translate(11,12)"/>
<path d="M0,0 L6,2 L4,6 L-1,5 Z " fill="#161616" transform="translate(10,14)"/>
</svg>
