<?xml version="1.0" encoding="UTF-8"?>
<svg version="1.1" xmlns="http://www.w3.org/2000/svg" width="28" height="28">
<path d="M0,0 L28,0 L28,28 L0,28 Z " fill="#040404" transform="translate(0,0)"/>
<path d="M0,0 L3,1 L0,4 L1,10 L4,12 L4,7 L6,6 L15,6 L17,10 L13,14 L2,14 L-3,9 L-3,3 Z " fill="#B6B6B6" transform="translate(9,6)"/>
<path d="M0,0 L3,1 L0,4 L1,10 L4,12 L5,9 L6,12 L12,13 L12,14 L2,14 L-3,9 L-3,3 Z " fill="#E4E4E4" transform="translate(9,6)"/>
<path d="M0,0 L7,0 L7,4 L-1,4 Z " fill="#060606" transform="translate(16,14)"/>
</svg>
