<?xml version="1.0" encoding="UTF-8"?>
<svg version="1.1" xmlns="http://www.w3.org/2000/svg" width="28" height="28">
<path d="M0,0 L28,0 L28,28 L0,28 Z " fill="#020202" transform="translate(0,0)"/>
<path d="M0,0 L5,0 L5,2 L2,4 L0,8 L0,16 L4,17 L4,12 L0,15 L1,10 L5,9 L6,11 L6,18 L4,20 L-3,19 L-4,18 L-4,8 Z " fill="#E3E3E3" transform="translate(14,4)"/>
<path d="M0,0 L2,3 L2,6 L5,3 L6,7 L5,9 L0,8 Z " fill="#242424" transform="translate(13,12)"/>
<path d="M0,0 L5,0 L5,2 L2,4 L0,7 L-2,3 Z " fill="#DCDCDC" transform="translate(14,4)"/>
</svg>
