<?xml version="1.0" encoding="UTF-8"?>
<svg version="1.1" xmlns="http://www.w3.org/2000/svg" width="28" height="28">
<path d="M0,0 L28,0 L28,28 L0,28 Z " fill="#010101" transform="translate(0,0)"/>
<path d="M0,0 L2,0 L0,7 L5,9 L4,15 L0,20 L-7,20 L-8,19 L-8,13 L-1,1 Z " fill="#DDDDDD" transform="translate(16,3)"/>
<path d="M0,0 L2,0 L0,7 L5,9 L4,15 L2,11 L-7,13 L-5,7 Z " fill="#EDEDED" transform="translate(16,3)"/>
<path d="M0,0 L2,0 L0,7 L3,9 L-2,9 L-5,9 L-3,4 Z " fill="#CECECE" transform="translate(16,3)"/>
<path d="M0,0 L4,0 L3,4 L1,6 L-2,6 L-2,1 Z " fill="#0A0A0A" transform="translate(14,14)"/>
</svg>
