<?xml version="1.0" encoding="UTF-8"?>
<svg version="1.1" xmlns="http://www.w3.org/2000/svg" width="28" height="28">
<path d="M0,0 L28,0 L28,28 L0,28 Z " fill="#010101" transform="translate(0,0)"/>
<path d="M0,0 L3,0 L2,4 L-6,11 L-6,12 L-2,10 L2,11 L4,13 L3,18 L0,20 L-9,20 L-11,17 L-10,11 L-9,9 L-7,9 L-5,5 L-2,2 L0,2 Z " fill="#DADADA" transform="translate(18,2)"/>
<path d="M0,0 L4,1 L5,5 L-2,4 Z " fill="#EDEDED" transform="translate(16,12)"/>
<path d="M0,0 L2,1 L0,5 L-4,6 L-4,8 L-6,7 Z " fill="#262626" transform="translate(16,8)"/>
</svg>
