<?xml version="1.0" encoding="UTF-8"?>
<svg version="1.1" xmlns="http://www.w3.org/2000/svg" width="28" height="28">
<path d="M0,0 L28,0 L28,28 L0,28 Z " fill="#030303" transform="translate(0,0)"/>
<path d="M0,0 L4,1 L5,4 L1,7 L-8,8 L-11,6 L-11,2 L-8,2 L-8,5 L-4,1 Z " fill="#D9D9D9" transform="translate(18,14)"/>
<path d="M0,0 L2,0 L2,3 L0,3 L0,5 L-3,8 L-5,8 L-7,12 L-9,13 L-8,8 L-3,3 Z " fill="#DCDCDC" transform="translate(18,2)"/>
<path d="M0,0 L4,1 L5,4 L2,6 L-3,6 L-3,4 L0,4 Z " fill="#ABABAB" transform="translate(18,14)"/>
</svg>
