<?xml version="1.0" encoding="UTF-8"?>
<svg version="1.1" xmlns="http://www.w3.org/2000/svg" width="28" height="28">
<path d="M0,0 L28,0 L28,28 L0,28 Z " fill="#030303" transform="translate(0,0)"/>
<path d="M0,0 L2,0 L0,5 L-6,13 L-5,14 L-1,11 L4,11 L5,12 L5,17 L0,20 L-9,20 L-10,14 L-2,3 Z " fill="#B2B2B2" transform="translate(17,1)"/>
<path d="M0,0 L2,0 L0,5 L-6,13 L-7,17 L-10,17 L-9,12 Z " fill="#DBDBDB" transform="translate(17,1)"/>
<path d="M0,0 L4,0 L4,5 L2,7 L-4,7 L-3,5 L1,5 Z " fill="#ECECEC" transform="translate(18,13)"/>
</svg>
