<?xml version="1.0" encoding="UTF-8"?>
<svg version="1.1" xmlns="http://www.w3.org/2000/svg" width="28" height="28">
<path d="M0,0 L28,0 L28,28 L0,28 Z " fill="#030303" transform="translate(0,0)"/>
<path d="M0,0 L3,0 L3,3 L-2,8 L-3,10 L2,11 L3,15 L-1,19 L-7,20 L-9,18 L-9,11 L-7,11 L-6,7 Z " fill="#D4D4D4" transform="translate(17,3)"/>
<path d="M0,0 L1,3 L-3,7 L-4,5 L-9,4 L-9,2 L-1,1 Z " fill="#898989" transform="translate(19,15)"/>
<path d="M0,0 L3,1 L2,4 L-6,4 L-7,7 L-7,2 Z " fill="#F8F8F8" transform="translate(16,13)"/>
</svg>
