<?xml version="1.0" encoding="UTF-8"?>
<svg version="1.1" xmlns="http://www.w3.org/2000/svg" width="28" height="28">
<path d="M0,0 L28,0 L28,28 L0,28 Z " fill="#020202" transform="translate(0,0)"/>
<path d="M0,0 L0,3 L-3,8 L-3,16 L-2,17 L0,12 L2,10 L7,10 L8,11 L8,17 L3,20 L-4,19 L-6,16 L-6,8 L-2,2 Z " fill="#E4E4E4" transform="translate(14,2)"/>
<path d="M0,0 L4,0 L3,5 L-1,6 L-2,2 Z " fill="#151515" transform="translate(16,14)"/>
<path d="M0,0 L0,3 L-3,8 L-4,15 L-5,15 L-6,8 L-2,2 Z " fill="#BBBBBB" transform="translate(14,2)"/>
<path d="M0,0 L5,0 L6,1 L6,7 L4,6 L4,2 L-1,2 Z " fill="#BABABA" transform="translate(16,12)"/>
</svg>
