<?xml version="1.0" encoding="UTF-8"?>
<svg version="1.1" xmlns="http://www.w3.org/2000/svg" width="28" height="28">
<path d="M0,0 L28,0 L28,28 L0,28 Z " fill="#030303" transform="translate(0,0)"/>
<path d="M0,0 L2,0 L2,3 L-5,9 L-8,14 L-7,17 L-2,12 L3,12 L5,14 L5,17 L-1,20 L-9,20 L-11,19 L-11,11 L-2,1 Z " fill="#E9E9E9" transform="translate(18,2)"/>
<path d="M0,0 L5,0 L7,2 L7,5 L1,8 L-1,8 L-2,4 L0,3 Z " fill="#E0E0E0" transform="translate(16,14)"/>
<path d="M0,0 L3,0 L3,4 L0,6 L-2,6 L-3,2 Z " fill="#818181" transform="translate(17,16)"/>
</svg>
