<?xml version="1.0" encoding="UTF-8"?>
<svg version="1.1" xmlns="http://www.w3.org/2000/svg" width="28" height="28">
<path d="M0,0 L28,0 L28,28 L0,28 Z " fill="#030303" transform="translate(0,0)"/>
<path d="M0,0 L4,0 L4,2 L1,3 L-2,8 L-2,15 L1,17 L4,17 L5,13 L2,13 L3,16 L0,15 L2,11 L7,12 L7,18 L5,20 L-2,19 L-5,15 L-5,7 L-2,2 Z " fill="#E5E5E5" transform="translate(14,3)"/>
<path d="M0,0 L4,0 L4,2 L1,3 L-2,7 L-2,5 L-4,4 Z " fill="#C9C9C9" transform="translate(14,3)"/>
<path d="M0,0 L3,0 L2,5 L-2,4 L-1,2 Z " fill="#2D2D2D" transform="translate(16,16)"/>
</svg>
