<?xml version="1.0" encoding="UTF-8"?>
<svg version="1.1" xmlns="http://www.w3.org/2000/svg" width="28" height="28">
<path d="M0,0 L28,0 L28,28 L0,28 Z " fill="#030303" transform="translate(0,0)"/>
<path d="M0,0 L2,0 L0,8 L9,8 L10,9 L10,15 L4,19 L-1,19 L-4,15 L-4,13 L-6,13 L-4,8 Z " fill="#EEEEEE" transform="translate(13,3)"/>
<path d="M0,0 L7,0 L6,4 L4,6 L-3,6 L-3,1 Z " fill="#111111" transform="translate(15,13)"/>
<path d="M0,0 L2,0 L0,8 L2,9 L-4,10 L-2,4 Z " fill="#CECECE" transform="translate(13,3)"/>
<path d="M0,0 L8,0 L5,3 L0,3 Z " fill="#C7C7C7" transform="translate(12,19)"/>
</svg>
