<?xml version="1.0" encoding="UTF-8"?>
<svg version="1.1" xmlns="http://www.w3.org/2000/svg" width="28" height="28">
<path d="M0,0 L28,0 L28,28 L0,28 Z " fill="#030303" transform="translate(0,0)"/>
<path d="M0,0 L2,0 L1,11 L6,9 L11,9 L11,11 L13,11 L12,18 L4,20 L-2,18 L-4,14 L-4,5 L-2,1 Z " fill="#E9E9E9" transform="translate(11,2)"/>
<path d="M0,0 L5,0 L5,2 L7,2 L6,9 L2,10 L1,8 L-3,7 L-1,1 Z " fill="#E6E6E6" transform="translate(17,11)"/>
<path d="M0,0 L3,0 L4,3 L0,5 L-4,4 L-3,1 Z " fill="#171717" transform="translate(18,14)"/>
</svg>
