<?xml version="1.0" encoding="UTF-8"?>
<svg version="1.1" xmlns="http://www.w3.org/2000/svg" width="28" height="28">
<path d="M0,0 L28,0 L28,28 L0,28 Z " fill="#020202" transform="translate(0,0)"/>
<path d="M0,0 L2,0 L1,4 L-2,13 L4,10 L9,11 L10,16 L4,20 L-4,20 L-6,16 L-5,7 L-1,1 Z " fill="#ECECEC" transform="translate(14,2)"/>
<path d="M0,0 L2,1 L3,5 L0,7 L-5,6 L-7,4 Z " fill="#DFDFDF" transform="translate(18,12)"/>
<path d="M0,0 L2,0 L1,4 L-2,13 L-5,10 L-4,5 Z " fill="#D4D4D4" transform="translate(14,2)"/>
<path d="M0,0 L4,0 L3,3 L-3,4 Z " fill="#131313" transform="translate(17,15)"/>
</svg>
