<?xml version="1.0" encoding="UTF-8"?>
<svg version="1.1" xmlns="http://www.w3.org/2000/svg" width="28" height="28">
<path d="M0,0 L28,0 L28,28 L0,28 Z " fill="#020202" transform="translate(0,0)"/>
<path d="M0,0 L5,0 L8,4 L0,4 L0,9 L4,10 L6,13 L6,18 L4,20 L-1,20 L-6,15 L-6,8 L-2,2 Z " fill="#E2E2E2" transform="translate(14,5)"/>
<path d="M0,0 L5,0 L8,4 L0,4 L0,9 L-3,10 L-5,6 Z " fill="#E4E4E4" transform="translate(14,5)"/>
<path d="M0,0 L6,1 L7,5 L6,6 L1,6 L0,5 Z " fill="#141414" transform="translate(11,16)"/>
</svg>
