<?xml version="1.0" encoding="UTF-8"?>
<svg version="1.1" xmlns="http://www.w3.org/2000/svg" width="28" height="28">
<path d="M0,0 L28,0 L28,28 L0,28 Z " fill="#020202" transform="translate(0,0)"/>
<path d="M0,0 L4,1 L0,7 L-2,7 L-2,11 L5,12 L4,17 L0,20 L-5,20 L-7,18 L-6,10 L-1,1 Z " fill="#E1E1E1" transform="translate(16,3)"/>
<path d="M0,0 L4,1 L0,7 L-2,7 L-2,11 L0,12 L-5,14 L-5,16 L-7,16 L-5,7 Z " fill="#D1D1D1" transform="translate(16,3)"/>
<path d="M0,0 L1,4 L3,5 L-1,6 L-1,8 L-3,8 L-1,1 Z M3,3 Z " fill="#F5F5F5" transform="translate(12,11)"/>
<path d="M0,0 L5,1 L5,3 L-1,4 Z " fill="#1C1C1C" transform="translate(13,16)"/>
<path d="M0,0 L1,3 L4,4 L5,6 L0,6 L-2,2 L0,2 Z " fill="#BABABA" transform="translate(11,17)"/>
</svg>
