<?xml version="1.0" encoding="UTF-8"?>
<svg version="1.1" xmlns="http://www.w3.org/2000/svg" width="28" height="28">
<path d="M0,0 L28,0 L28,28 L0,28 Z " fill="#020202" transform="translate(0,0)"/>
<path d="M0,0 L3,0 L3,2 L0,2 L-2,6 L-4,10 L3,12 L3,17 L-1,20 L-7,20 L-9,17 L-8,10 L-2,1 Z " fill="#D8D8D8" transform="translate(18,3)"/>
<path d="M0,0 L5,1 L3,5 L-2,4 L-2,1 Z " fill="#191919" transform="translate(14,16)"/>
<path d="M0,0 L3,1 L3,3 L1,4 L-1,7 L-2,6 L-2,1 Z " fill="#F5F5F5" transform="translate(11,14)"/>
</svg>
