<?xml version="1.0" encoding="UTF-8"?>
<svg version="1.1" xmlns="http://www.w3.org/2000/svg" width="28" height="28">
<path d="M0,0 L28,0 L28,28 L0,28 Z " fill="#040404" transform="translate(0,0)"/>
<path d="M0,0 L2,0 L1,5 L-2,11 L-3,17 L4,17 L9,14 L10,10 L5,13 L4,16 L1,16 L2,12 L7,8 L11,9 L11,15 L6,19 L3,20 L-4,20 L-6,17 L-5,9 L-1,1 Z " fill="#E0E0E0" transform="translate(13,3)"/>
<path d="M0,0 L3,0 L2,5 L-3,8 L-8,8 L-3,3 Z " fill="#1C1C1C" transform="translate(20,13)"/>
<path d="M0,0 L2,0 L1,5 L-1,8 L-3,8 L-1,1 Z " fill="#EBEBEB" transform="translate(13,3)"/>
<path d="M0,0 L1,4 L7,6 L7,7 L0,7 L-1,4 Z " fill="#B1B1B1" transform="translate(9,16)"/>
</svg>
