<?xml version="1.0" encoding="UTF-8"?>
<svg version="1.1" xmlns="http://www.w3.org/2000/svg" width="28" height="28">
<path d="M0,0 L28,0 L28,28 L0,28 Z " fill="#030303" transform="translate(0,0)"/>
<path d="M0,0 L3,1 L-1,7 L-5,11 L-7,17 L-4,17 L-3,13 L0,11 L6,11 L7,16 L0,20 L-6,20 L-9,18 L-9,11 Z " fill="#B8B8B8" transform="translate(16,2)"/>
<path d="M0,0 L3,1 L-1,7 L-5,11 L-7,17 L-5,17 L-6,20 L-9,18 L-9,11 Z " fill="#E1E1E1" transform="translate(16,2)"/>
<path d="M0,0 L6,0 L7,5 L4,7 L1,6 L5,2 L-4,5 L-2,1 Z " fill="#E0E0E0" transform="translate(16,13)"/>
<path d="M0,0 L4,0 L3,3 L-2,4 L-2,1 Z " fill="#1A1A1A" transform="translate(17,15)"/>
</svg>
