<?xml version="1.0" encoding="UTF-8"?>
<svg version="1.1" xmlns="http://www.w3.org/2000/svg" width="28" height="28">
<path d="M0,0 L28,0 L28,28 L0,28 Z " fill="#020202" transform="translate(0,0)"/>
<path d="M0,0 L1,4 L-3,6 L-5,10 L-5,14 L-3,11 L4,11 L6,12 L7,17 L1,20 L-6,19 L-9,16 L-9,9 L-4,2 Z " fill="#EAEAEA" transform="translate(17,2)"/>
<path d="M0,0 L1,4 L-3,6 L-6,15 L-9,16 L-9,9 L-4,2 Z " fill="#DFDFDF" transform="translate(17,2)"/>
<path d="M0,0 L7,0 L9,1 L10,6 L7,7 L1,6 L1,3 L3,2 Z " fill="#909090" transform="translate(14,13)"/>
</svg>
