<?xml version="1.0" encoding="UTF-8"?>
<svg version="1.1" xmlns="http://www.w3.org/2000/svg" width="28" height="28">
<path d="M0,0 L28,0 L28,28 L0,28 Z " fill="#030303" transform="translate(0,0)"/>
<path d="M0,0 L3,0 L2,3 L-1,7 L-3,12 L-3,17 L0,18 L1,14 L4,11 L10,11 L11,16 L4,20 L-4,20 L-6,18 L-6,10 Z " fill="#E1E1E1" transform="translate(13,2)"/>
<path d="M0,0 L6,0 L7,5 L1,8 L-2,7 L0,3 Z " fill="#D8D8D8" transform="translate(17,13)"/>
<path d="M0,0 L5,0 L1,4 L-2,4 Z " fill="#242424" transform="translate(17,16)"/>
</svg>
