<?xml version="1.0" encoding="UTF-8"?>
<svg version="1.1" xmlns="http://www.w3.org/2000/svg" width="28" height="28">
<path d="M0,0 L28,0 L28,28 L0,28 Z " fill="#020202" transform="translate(0,0)"/>
<path d="M0,0 L5,0 L7,2 L7,8 L4,12 L-3,13 L-4,6 L-1,1 Z " fill="#B4B4B4" transform="translate(18,9)"/>
<path d="M0,0 L4,1 L4,7 L1,10 L-3,10 L-2,2 Z " fill="#060606" transform="translate(19,10)"/>
<path d="M0,0 L1,3 L1,17 L4,20 L-1,19 L-2,15 L-2,5 Z " fill="#D7D7D7" transform="translate(9,2)"/>
</svg>
