<?xml version="1.0" encoding="UTF-8"?>
<svg version="1.1" xmlns="http://www.w3.org/2000/svg" width="28" height="28">
<path d="M0,0 L28,0 L28,28 L0,28 Z " fill="#020202" transform="translate(0,0)"/>
<path d="M0,0 L3,1 L-2,8 L-1,11 L4,7 L10,8 L10,13 L5,19 L-3,18 L-6,12 L-6,7 L-4,3 L0,2 Z " fill="#F4F4F4" transform="translate(13,3)"/>
<path d="M0,0 L5,2 L4,6 L0,7 L-3,5 L-1,1 Z " fill="#838383" transform="translate(15,11)"/>
<path d="M0,0 L3,1 L-2,8 L-4,8 L-6,12 L-6,7 L-4,3 L0,2 Z " fill="#D3D3D3" transform="translate(13,3)"/>
<path d="M0,0 L6,1 L6,6 L4,9 L2,9 L3,3 L0,2 Z " fill="#D5D5D5" transform="translate(17,10)"/>
</svg>
