<?xml version="1.0" encoding="UTF-8"?>
<svg version="1.1" xmlns="http://www.w3.org/2000/svg" width="28" height="28">
<path d="M0,0 L28,0 L28,28 L0,28 Z " fill="#030303" transform="translate(0,0)"/>
<path d="M0,0 L3,0 L3,3 L-8,10 L-11,14 L-13,14 L-13,16 L-7,14 L-7,12 L-1,9 L2,10 L1,14 L-5,19 L-13,20 L-15,19 L-15,13 L-11,7 L-3,1 Z " fill="#EBEBEB" transform="translate(21,3)"/>
<path d="M0,0 Z M-2,1 L0,2 L-3,5 L-2,7 L-5,9 L-8,9 L-8,7 L-6,7 L-4,3 Z " fill="#222222" transform="translate(16,10)"/>
</svg>
