<?xml version="1.0" encoding="UTF-8"?>
<svg version="1.1" xmlns="http://www.w3.org/2000/svg" width="28" height="28">
<path d="M0,0 L28,0 L28,28 L0,28 Z " fill="#010101" transform="translate(0,0)"/>
<path d="M0,0 L1,0 L1,6 L5,7 L6,8 L5,16 L0,20 L-3,19 L-4,17 L-4,9 L-1,1 Z " fill="#E8E8E8" transform="translate(14,3)"/>
<path d="M0,0 L4,0 L4,2 L6,3 L3,8 L-2,10 L-3,6 L0,4 L-1,2 Z " fill="#E6E6E6" transform="translate(14,13)"/>
<path d="M0,0 L4,0 L2,5 L-2,6 L0,4 L-1,2 Z " fill="#2D2D2D" transform="translate(14,13)"/>
</svg>
