<?xml version="1.0" encoding="UTF-8"?>
<svg version="1.1" xmlns="http://www.w3.org/2000/svg" width="28" height="28">
<path d="M0,0 L28,0 L28,28 L0,28 Z " fill="#030303" transform="translate(0,0)"/>
<path d="M0,0 L3,1 L-1,9 L-2,14 L6,12 L8,14 L7,18 L5,20 L0,20 L-3,18 L-4,8 Z " fill="#A3A3A3" transform="translate(13,2)"/>
<path d="M0,0 L3,1 L-1,9 L-2,14 L-4,14 L-3,5 Z " fill="#D2D2D2" transform="translate(13,2)"/>
<path d="M0,0 L0,3 L-1,4 L-6,4 L-8,1 L-1,1 Z " fill="#F6F6F6" transform="translate(19,18)"/>
</svg>
