<?xml version="1.0" encoding="UTF-8"?>
<svg version="1.1" xmlns="http://www.w3.org/2000/svg" width="28" height="28">
<path d="M0,0 L28,0 L28,28 L0,28 Z " fill="#020202" transform="translate(0,0)"/>
<path d="M0,0 L1,2 L-1,5 L-2,10 L3,11 L5,12 L4,19 L-1,20 L-5,15 L-5,7 L-1,1 Z " fill="#EAEAEA" transform="translate(15,2)"/>
<path d="M0,0 L4,2 L3,9 L1,9 L1,7 L-3,5 L-3,3 L-1,3 Z " fill="#E1E1E1" transform="translate(16,12)"/>
<path d="M0,0 L1,2 L-1,5 L-2,10 L0,11 L-5,10 L-4,5 Z " fill="#CCCCCC" transform="translate(15,2)"/>
<path d="M0,0 L3,1 L3,5 L-1,4 L-2,1 Z " fill="#1A1A1A" transform="translate(15,14)"/>
</svg>
