<?xml version="1.0" encoding="UTF-8"?>
<svg version="1.1" xmlns="http://www.w3.org/2000/svg" width="28" height="28">
<path d="M0,0 L28,0 L28,28 L0,28 Z " fill="#030303" transform="translate(0,0)"/>
<path d="M0,0 L3,1 L0,4 L-3,13 L1,11 L7,12 L6,17 L1,20 L-5,20 L-5,6 Z " fill="#F6F6F6" transform="translate(15,2)"/>
<path d="M0,0 L6,1 L5,6 L1,8 L1,6 L-2,6 L-2,4 L1,2 Z " fill="#A5A5A5" transform="translate(16,13)"/>
<path d="M0,0 L3,1 L0,4 L-2,9 L-5,9 L-4,5 Z " fill="#DCDCDC" transform="translate(15,2)"/>
</svg>
