<?xml version="1.0" encoding="UTF-8"?>
<svg version="1.1" xmlns="http://www.w3.org/2000/svg" width="28" height="28">
<path d="M0,0 L28,0 L28,28 L0,28 Z " fill="#020202" transform="translate(0,0)"/>
<path d="M0,0 L1,3 L0,5 L0,14 L3,17 L5,12 L10,12 L11,16 L9,19 L3,20 L-2,17 L-3,14 L-3,6 L-1,1 Z " fill="#E1E1E1" transform="translate(12,2)"/>
<path d="M0,0 L1,3 L0,5 L0,14 L3,17 L4,15 L4,18 L0,19 L-3,14 L-3,6 L-1,1 Z " fill="#DFDFDF" transform="translate(12,2)"/>
<path d="M0,0 L4,1 L3,5 L0,5 L-1,2 Z " fill="#9C9C9C" transform="translate(17,14)"/>
</svg>
