<?xml version="1.0" encoding="UTF-8"?>
<svg version="1.1" xmlns="http://www.w3.org/2000/svg" width="28" height="28">
<path d="M0,0 L28,0 L28,28 L0,28 Z " fill="#020202" transform="translate(0,0)"/>
<path d="M0,0 L3,0 L3,2 L1,2 L-1,6 L-1,12 L1,11 L7,11 L6,16 L1,20 L-4,20 L-5,19 L-5,9 L-3,3 Z " fill="#EEEEEE" transform="translate(15,2)"/>
<path d="M0,0 L4,0 L3,5 L-2,9 L-3,5 L0,4 L1,2 L-1,1 Z " fill="#E5E5E5" transform="translate(18,13)"/>
<path d="M0,0 L2,3 L6,2 L7,6 L1,8 L2,6 L0,5 Z " fill="#8E8E8E" transform="translate(12,11)"/>
<path d="M0,0 L3,0 L3,2 L1,2 L-1,6 L-4,6 L-2,2 Z " fill="#C3C3C3" transform="translate(15,2)"/>
</svg>
