<?xml version="1.0" encoding="UTF-8"?>
<svg version="1.1" xmlns="http://www.w3.org/2000/svg" width="28" height="28">
<path d="M0,0 L28,0 L28,28 L0,28 Z " fill="#030303" transform="translate(0,0)"/>
<path d="M0,0 L2,0 L2,16 L4,16 L6,11 L10,8 L16,8 L17,13 L13,17 L15,19 L14,20 L7,20 L1,18 L-1,14 L-1,6 Z " fill="#DCDCDC" transform="translate(7,2)"/>
<path d="M0,0 L2,0 L2,16 L4,16 L5,14 L6,19 L1,18 L-1,14 L-1,6 Z " fill="#E1E1E1" transform="translate(7,2)"/>
<path d="M0,0 L3,0 L1,4 L-3,6 L-6,6 L-4,2 Z " fill="#1C1C1C" transform="translate(19,12)"/>
</svg>
