<?xml version="1.0" encoding="UTF-8"?>
<svg version="1.1" xmlns="http://www.w3.org/2000/svg" width="28" height="28">
<path d="M0,0 L28,0 L28,28 L0,28 Z " fill="#010101" transform="translate(0,0)"/>
<path d="M0,0 L2,0 L1,8 L1,11 L3,9 L7,10 L9,14 L5,19 L-1,20 L-3,18 L-3,7 Z " fill="#ECECEC" transform="translate(13,2)"/>
<path d="M0,0 L4,1 L6,5 L4,7 L-1,6 L-1,1 Z " fill="#9D9D9D" transform="translate(16,11)"/>
<path d="M0,0 L2,0 L1,8 L-1,10 L-3,9 Z " fill="#CBCBCB" transform="translate(13,2)"/>
</svg>
