<?xml version="1.0" encoding="UTF-8"?>
<svg version="1.1" xmlns="http://www.w3.org/2000/svg" width="28" height="28">
<path d="M0,0 L28,0 L28,28 L0,28 Z " fill="#020202" transform="translate(0,0)"/>
<path d="M0,0 L2,0 L0,5 L-3,12 L-3,15 L0,11 L4,12 L3,17 L-1,20 L-6,19 L-6,12 Z " fill="#E2E2E2" transform="translate(16,2)"/>
<path d="M0,0 L4,1 L3,6 L-1,9 L-5,8 L-3,7 L-2,2 Z " fill="#D4D4D4" transform="translate(16,13)"/>
<path d="M0,0 L2,0 L0,5 L-2,11 L-4,7 Z " fill="#C6C6C6" transform="translate(16,2)"/>
<path d="M0,0 L2,0 L0,5 L-5,6 Z " fill="#8A8A8A" transform="translate(16,16)"/>
</svg>
