<?xml version="1.0" encoding="UTF-8"?>
<svg version="1.1" xmlns="http://www.w3.org/2000/svg" width="28" height="28">
<path d="M0,0 L28,0 L28,28 L0,28 Z " fill="#020202" transform="translate(0,0)"/>
<path d="M0,0 L1,3 L0,13 L3,16 L6,10 L11,8 L13,10 L13,17 L8,20 L2,20 L-3,14 L-3,4 Z " fill="#BABABA" transform="translate(10,2)"/>
<path d="M0,0 L4,2 L4,9 L1,11 L-3,9 L-1,4 Z " fill="#B6B6B6" transform="translate(19,10)"/>
<path d="M0,0 L2,1 L-1,6 L-1,8 L2,10 L-4,11 L-5,9 L-3,9 L-3,3 Z " fill="#EFEFEF" transform="translate(18,11)"/>
<path d="M0,0 L2,1 L1,6 L-3,6 L-1,1 Z " fill="#161616" transform="translate(19,13)"/>
<path d="M0,0 L1,3 L-1,13 L-2,13 L-2,2 Z " fill="#E9E9E9" transform="translate(10,2)"/>
</svg>
