<?xml version="1.0" encoding="UTF-8"?>
<svg version="1.1" xmlns="http://www.w3.org/2000/svg" width="28" height="28">
<path d="M0,0 L28,0 L28,28 L0,28 Z " fill="#030303" transform="translate(0,0)"/>
<path d="M0,0 L2,0 L-1,9 L-1,12 L5,8 L9,9 L9,14 L4,19 L-2,19 L-5,14 L-2,3 Z " fill="#C7C7C7" transform="translate(13,3)"/>
<path d="M0,0 L2,0 L-1,9 L-1,16 L4,17 L4,19 L-2,19 L-5,14 L-2,3 Z " fill="#E3E3E3" transform="translate(13,3)"/>
<path d="M0,0 L2,0 L1,5 L-4,7 L-3,2 Z " fill="#171717" transform="translate(18,13)"/>
</svg>
