<?xml version="1.0" encoding="UTF-8"?>
<svg version="1.1" xmlns="http://www.w3.org/2000/svg" width="28" height="28">
<path d="M0,0 L28,0 L28,28 L0,28 Z " fill="#020202" transform="translate(0,0)"/>
<path d="M0,0 L5,0 L2,2 L-3,6 L-7,14 L0,11 L3,11 L2,16 L-4,20 L-11,20 L-10,13 L-3,2 Z " fill="#D4D4D4" transform="translate(19,2)"/>
<path d="M0,0 L3,0 L2,5 L-2,8 L-8,7 L-7,5 L-5,5 L-5,2 Z " fill="#BBBBBB" transform="translate(19,13)"/>
<path d="M0,0 L5,0 L2,2 L-3,6 L-5,9 L-7,8 L-2,1 Z " fill="#BEBEBE" transform="translate(19,2)"/>
<path d="M0,0 L2,0 L2,2 L-3,5 L-7,4 Z " fill="#111111" transform="translate(18,15)"/>
</svg>
