<?xml version="1.0" encoding="UTF-8"?>
<svg version="1.1" xmlns="http://www.w3.org/2000/svg" width="28" height="28">
<path d="M0,0 L28,0 L28,28 L0,28 Z " fill="#020202" transform="translate(0,0)"/>
<path d="M0,0 L4,1 L0,3 L-4,8 L-4,13 L6,13 L8,14 L7,18 L3,20 L-3,20 L-7,18 L-7,10 L-4,3 Z " fill="#C5C5C5" transform="translate(16,2)"/>
<path d="M0,0 L4,1 L0,3 L-4,8 L-4,13 L4,13 L1,15 L-4,15 L-4,17 L-7,16 L-6,6 L-1,1 Z " fill="#D2D2D2" transform="translate(16,2)"/>
<path d="M0,0 L5,1 L5,3 L3,4 L-4,4 L-5,1 Z " fill="#0D0D0D" transform="translate(17,16)"/>
</svg>
