<?xml version="1.0" encoding="UTF-8"?>
<svg version="1.1" xmlns="http://www.w3.org/2000/svg" width="28" height="28">
<path d="M0,0 L28,0 L28,28 L0,28 Z " fill="#020202" transform="translate(0,0)"/>
<path d="M0,0 L3,0 L3,3 L-1,5 L-2,7 L-4,7 L1,15 L0,20 L-6,19 L-9,16 L-10,12 L-7,6 L-2,1 Z " fill="#CCCCCC" transform="translate(18,4)"/>
<path d="M0,0 L3,0 L3,3 L-1,5 L-6,11 L-8,11 L-7,6 L-2,1 Z " fill="#E6E6E6" transform="translate(18,4)"/>
<path d="M0,0 L3,3 L5,7 L4,9 L-2,8 L-1,2 Z " fill="#787878" transform="translate(13,12)"/>
<path d="M0,0 L2,0 L1,5 L-4,4 L-4,2 L0,2 Z " fill="#EDEDED" transform="translate(17,19)"/>
</svg>
