<?xml version="1.0" encoding="UTF-8"?>
<svg version="1.1" xmlns="http://www.w3.org/2000/svg" width="28" height="28">
<path d="M0,0 L28,0 L28,28 L0,28 Z " fill="#010101" transform="translate(0,0)"/>
<path d="M0,0 L2,0 L0,5 L-4,12 L1,13 L2,18 L-1,20 L-6,19 L-8,17 L-8,11 L-3,3 Z " fill="#E9E9E9" transform="translate(17,2)"/>
<path d="M0,0 L2,0 L0,5 L-4,12 L-2,13 L-6,14 L-6,7 Z " fill="#BABABA" transform="translate(17,2)"/>
<path d="M0,0 L2,0 L0,5 L-4,6 L-2,2 Z " fill="#E8E8E8" transform="translate(17,2)"/>
</svg>
