<?xml version="1.0" encoding="UTF-8"?>
<svg version="1.1" xmlns="http://www.w3.org/2000/svg" width="28" height="28">
<path d="M0,0 L28,0 L28,28 L0,28 Z " fill="#030303" transform="translate(0,0)"/>
<path d="M0,0 L3,0 L1,14 L6,15 L6,10 L10,6 L15,7 L15,12 L13,15 L19,15 L15,17 L2,18 L-1,15 L-1,7 Z " fill="#D1D1D1" transform="translate(8,3)"/>
<path d="M0,0 L3,0 L1,14 L3,14 L4,17 L0,16 L-1,15 L-1,7 Z " fill="#EDEDED" transform="translate(8,3)"/>
<path d="M0,0 L5,1 L5,6 L2,9 L2,6 L3,2 L-1,3 Z " fill="#EBEBEB" transform="translate(18,9)"/>
<path d="M0,0 L2,0 L1,5 L-2,6 L-1,1 Z " fill="#222222" transform="translate(19,11)"/>
</svg>
