<?xml version="1.0" encoding="UTF-8"?>
<svg version="1.1" xmlns="http://www.w3.org/2000/svg" width="28" height="28">
<path d="M0,0 L28,0 L28,28 L0,28 Z " fill="#020202" transform="translate(0,0)"/>
<path d="M0,0 L5,0 L7,3 L1,2 L1,11 L10,10 L15,12 L17,16 L14,18 L6,18 L-1,15 L-3,10 L-3,4 Z " fill="#E0E0E0" transform="translate(9,4)"/>
<path d="M0,0 L5,0 L7,3 L1,2 L1,11 L9,11 L5,13 L3,13 L3,15 L6,16 L3,17 L-1,15 L-3,10 L-3,4 Z " fill="#E4E4E4" transform="translate(9,4)"/>
<path d="M0,0 L7,0 L9,4 L1,4 L-2,3 L-2,1 Z " fill="#262626" transform="translate(14,16)"/>
</svg>
