<?xml version="1.0" encoding="UTF-8"?>
<svg version="1.1" xmlns="http://www.w3.org/2000/svg" width="28" height="28">
<path d="M0,0 L28,0 L28,28 L0,28 Z " fill="#020202" transform="translate(0,0)"/>
<path d="M0,0 L3,0 L3,4 L-2,6 L-3,10 L4,11 L5,19 L4,20 L-5,20 L-8,18 L-7,11 L-4,4 L0,3 Z " fill="#E8E8E8" transform="translate(16,2)"/>
<path d="M0,0 L3,0 L3,4 L-2,6 L-3,10 L-1,11 L-3,11 L-3,14 L1,15 L1,18 L-4,17 L-5,5 L-3,3 L0,3 Z " fill="#C3C3C3" transform="translate(16,2)"/>
<path d="M0,0 L5,2 L5,5 L0,4 Z " fill="#0F0F0F" transform="translate(12,15)"/>
</svg>
