<?xml version="1.0" encoding="UTF-8"?>
<svg version="1.1" xmlns="http://www.w3.org/2000/svg" width="28" height="28">
<path d="M0,0 L28,0 L28,28 L0,28 Z " fill="#020202" transform="translate(0,0)"/>
<path d="M0,0 L2,0 L1,5 L-3,12 L-1,12 L0,9 L5,7 L7,10 L7,16 L3,20 L-3,20 L-6,14 L-5,8 Z " fill="#DDDDDD" transform="translate(14,3)"/>
<path d="M0,0 L3,1 L4,3 L4,9 L2,9 L2,3 L-4,7 L-6,5 L-4,5 L-3,2 Z " fill="#E6E6E6" transform="translate(17,10)"/>
<path d="M0,0 L2,0 L2,5 L0,7 L-5,6 Z " fill="#202020" transform="translate(17,13)"/>
</svg>
