<?xml version="1.0" encoding="UTF-8"?>
<svg version="1.1" xmlns="http://www.w3.org/2000/svg" width="28" height="28">
<path d="M0,0 L28,0 L28,28 L0,28 Z " fill="#030303" transform="translate(0,0)"/>
<path d="M0,0 L2,0 L1,4 L-1,7 L-2,12 L2,10 L6,11 L6,16 L2,20 L-3,20 L-6,18 L-4,5 Z " fill="#F2F2F2" transform="translate(15,2)"/>
<path d="M0,0 L4,1 L4,6 L0,10 L-3,9 L-2,8 L-4,7 L-4,5 L-2,5 L-2,1 Z " fill="#ACACAC" transform="translate(17,12)"/>
<path d="M0,0 L1,0 L2,7 L-2,7 L-2,2 Z " fill="#D6D6D6" transform="translate(12,8)"/>
</svg>
