<?xml version="1.0" encoding="UTF-8"?>
<svg version="1.1" xmlns="http://www.w3.org/2000/svg" width="28" height="28">
<path d="M0,0 L28,0 L28,28 L0,28 Z " fill="#030303" transform="translate(0,0)"/>
<path d="M0,0 L3,0 L3,2 L1,2 L1,4 L-1,4 L-1,7 L1,8 L0,13 L-2,15 L-5,15 L-4,18 L-16,17 L-16,13 L-7,5 L-3,4 L-3,2 Z " fill="#E5E5E5" transform="translate(21,4)"/>
<path d="M0,0 L3,0 L3,2 L12,2 L11,5 L8,5 L9,8 L-3,7 L-3,3 Z " fill="#E6E6E6" transform="translate(8,14)"/>
<path d="M0,0 L7,0 L7,2 L5,3 L-2,3 L0,2 Z " fill="#0F0F0F" transform="translate(12,14)"/>
<path d="M0,0 L4,2 L3,7 L1,6 L1,4 L-4,4 L0,2 Z " fill="#C1C1C1" transform="translate(18,10)"/>
</svg>
