<?xml version="1.0" encoding="UTF-8"?>
<svg version="1.1" xmlns="http://www.w3.org/2000/svg" width="28" height="28">
<path d="M0,0 L28,0 L28,28 L0,28 Z " fill="#020202" transform="translate(0,0)"/>
<path d="M0,0 L2,0 L0,4 L-8,11 L-9,14 L-6,11 L0,10 L0,16 L-3,19 L-13,20 L-15,16 L-9,7 Z " fill="#E7E7E7" transform="translate(21,2)"/>
<path d="M0,0 L2,1 L-2,5 L-1,7 L-6,10 L-9,13 L-8,8 Z " fill="#1D1D1D" transform="translate(19,6)"/>
<path d="M0,0 L2,1 L2,5 L-1,6 L-1,4 L-3,3 Z " fill="#8C8C8C" transform="translate(15,13)"/>
<path d="M0,0 L2,4 L1,6 L-3,4 L-3,2 Z " fill="#BCBCBC" transform="translate(9,16)"/>
</svg>
