<?xml version="1.0" encoding="UTF-8"?>
<svg version="1.1" xmlns="http://www.w3.org/2000/svg" width="28" height="28">
<path d="M0,0 L28,0 L28,28 L0,28 Z " fill="#030303" transform="translate(0,0)"/>
<path d="M0,0 L3,0 L2,4 L0,11 L7,11 L8,16 L3,20 L-2,20 L-4,17 L-4,9 Z " fill="#E4E4E4" transform="translate(13,3)"/>
<path d="M0,0 L3,0 L2,4 L0,11 L-3,9 Z " fill="#EDEDED" transform="translate(13,3)"/>
<path d="M0,0 L4,1 L3,6 L-1,8 L-1,5 L1,5 Z " fill="#ECECEC" transform="translate(17,14)"/>
<path d="M0,0 L5,0 L5,3 L0,4 Z " fill="#1D1D1D" transform="translate(13,16)"/>
</svg>
