<?xml version="1.0" encoding="UTF-8"?>
<svg version="1.1" xmlns="http://www.w3.org/2000/svg" width="28" height="28">
<path d="M0,0 L28,0 L28,28 L0,28 Z " fill="#040404" transform="translate(0,0)"/>
<path d="M0,0 L2,0 L1,5 L-7,12 L-9,17 L-3,17 L-6,17 L-6,13 L-4,12 L2,12 L3,16 L-4,20 L-9,20 L-11,18 L-11,12 L-4,4 Z " fill="#F1F1F1" transform="translate(19,3)"/>
<path d="M0,0 L6,0 L7,4 L3,7 L1,7 L2,4 L-2,5 L-2,1 Z " fill="#CFCFCF" transform="translate(15,15)"/>
<path d="M0,0 L2,0 L1,5 L-4,7 L-8,11 L-10,10 Z " fill="#D6D6D6" transform="translate(19,3)"/>
</svg>
