<?xml version="1.0" encoding="UTF-8"?>
<svg version="1.1" xmlns="http://www.w3.org/2000/svg" width="28" height="28">
<path d="M0,0 L28,0 L28,28 L0,28 Z " fill="#030303" transform="translate(0,0)"/>
<path d="M0,0 L2,0 L1,4 L-6,13 L-2,11 L5,10 L5,17 L3,19 L-2,20 L-9,20 L-10,19 L-10,13 L-5,5 L-2,4 Z " fill="#ECECEC" transform="translate(17,2)"/>
<path d="M0,0 L2,0 L3,5 L-2,6 L-3,2 Z " fill="#BBBBBB" transform="translate(18,15)"/>
<path d="M0,0 L1,2 L5,3 L-2,6 L-4,7 L-2,3 Z " fill="#3F3F3F" transform="translate(14,10)"/>
</svg>
