<?xml version="1.0" encoding="UTF-8"?>
<svg version="1.1" xmlns="http://www.w3.org/2000/svg" width="28" height="28">
<path d="M0,0 L28,0 L28,28 L0,28 Z " fill="#030303" transform="translate(0,0)"/>
<path d="M0,0 L2,0 L2,2 L0,2 L-2,8 L-4,15 L-3,17 L0,18 L0,11 L3,9 L8,9 L8,14 L3,19 L2,20 L-4,20 L-7,17 L-6,10 L-1,1 Z " fill="#C9C9C9" transform="translate(14,2)"/>
<path d="M0,0 L5,0 L5,5 L2,8 L-1,8 L-3,2 Z " fill="#D5D5D5" transform="translate(17,11)"/>
<path d="M0,0 L3,3 L5,3 L5,5 L2,7 L-3,7 L0,6 Z " fill="#F2F2F2" transform="translate(14,15)"/>
<path d="M0,0 L2,0 L1,4 L-2,7 L-2,2 Z " fill="#1A1A1A" transform="translate(18,12)"/>
</svg>
