<?xml version="1.0" encoding="UTF-8"?>
<svg version="1.1" xmlns="http://www.w3.org/2000/svg" width="28" height="28">
<path d="M0,0 L28,0 L28,28 L0,28 Z " fill="#040404" transform="translate(0,0)"/>
<path d="M0,0 L1,3 L-4,9 L-6,12 L-5,17 L-2,18 L-2,12 L2,9 L5,10 L5,17 L0,20 L-6,20 L-9,17 L-8,9 Z " fill="#E1E1E1" transform="translate(16,2)"/>
<path d="M0,0 L1,3 L-4,9 L-6,12 L-5,17 L-4,20 L-8,19 L-9,12 L-5,5 Z " fill="#DFDFDF" transform="translate(16,2)"/>
<path d="M0,0 L3,0 L2,4 L-2,4 Z " fill="#2D2D2D" transform="translate(17,14)"/>
</svg>
