<?xml version="1.0" encoding="UTF-8"?>
<svg version="1.1" xmlns="http://www.w3.org/2000/svg" width="28" height="28">
<path d="M0,0 L28,0 L28,28 L0,28 Z " fill="#040404" transform="translate(0,0)"/>
<path d="M0,0 L3,0 L3,3 L-2,5 L-2,7 L-8,12 L-9,16 L-4,11 L1,9 L6,9 L7,14 L3,18 L-7,20 L-12,19 L-13,18 L-13,13 L-11,10 L-9,10 L-7,5 L-3,3 L-3,1 Z " fill="#EAEAEA" transform="translate(18,2)"/>
<path d="M0,0 L2,1 L-1,4 L-4,10 L-6,9 L-4,4 Z " fill="#313131" transform="translate(14,9)"/>
<path d="M0,0 L3,0 L3,4 L1,6 L-3,5 L-2,1 Z M-1,3 Z " fill="#898989" transform="translate(18,15)"/>
</svg>
