<?xml version="1.0" encoding="UTF-8"?>
<svg version="1.1" xmlns="http://www.w3.org/2000/svg" width="28" height="28">
<path d="M0,0 L28,0 L28,28 L0,28 Z " fill="#040404" transform="translate(0,0)"/>
<path d="M0,0 L2,0 L2,4 L-4,9 L3,10 L5,14 L0,19 L-12,20 L-13,16 L-12,11 L-5,5 Z " fill="#E7E7E7" transform="translate(19,2)"/>
<path d="M0,0 L4,1 L5,4 L1,8 L-5,6 L-5,4 L0,3 Z " fill="#A1A1A1" transform="translate(19,12)"/>
<path d="M0,0 L2,0 L2,4 L-3,7 L-2,2 Z " fill="#DFDFDF" transform="translate(19,2)"/>
</svg>
