<?xml version="1.0" encoding="UTF-8"?>
<svg version="1.1" xmlns="http://www.w3.org/2000/svg" width="28" height="28">
<path d="M0,0 L28,0 L28,28 L0,28 Z " fill="#020202" transform="translate(0,0)"/>
<path d="M0,0 L2,0 L0,5 L-3,9 L-3,11 L0,14 L0,18 L-5,20 L-10,19 L-11,14 L-3,4 Z " fill="#CFCFCF" transform="translate(19,3)"/>
<path d="M0,0 L2,0 L0,5 L-3,9 L-2,13 L-8,14 L-8,10 Z " fill="#E2E2E2" transform="translate(19,3)"/>
<path d="M0,0 L4,4 L3,5 L-2,5 L-1,1 Z " fill="#111111" transform="translate(13,15)"/>
</svg>
