<?xml version="1.0" encoding="UTF-8"?>
<svg version="1.1" xmlns="http://www.w3.org/2000/svg" width="28" height="28">
<path d="M0,0 L28,0 L28,28 L0,28 Z " fill="#030303" transform="translate(0,0)"/>
<path d="M0,0 L2,0 L1,4 L-2,9 L-2,11 L4,10 L5,11 L5,16 L0,19 L-6,20 L-8,18 L-7,12 Z " fill="#A4A4A4" transform="translate(16,2)"/>
<path d="M0,0 L2,0 L2,5 L-3,8 L-9,9 L-10,4 L-6,3 L-6,5 L-1,4 Z " fill="#F1F1F1" transform="translate(19,13)"/>
<path d="M0,0 L2,0 L1,4 L-2,8 L-4,8 L-2,3 Z " fill="#E9E9E9" transform="translate(16,2)"/>
</svg>
