<?xml version="1.0" encoding="UTF-8"?>
<svg version="1.1" xmlns="http://www.w3.org/2000/svg" width="28" height="28">
<path d="M0,0 L28,0 L28,28 L0,28 Z " fill="#040404" transform="translate(0,0)"/>
<path d="M0,0 L3,0 L2,4 L1,6 L-1,6 L-3,11 L-4,13 L2,9 L8,9 L10,11 L9,16 L7,16 L7,18 L3,20 L-4,19 L-6,17 L-6,8 Z " fill="#F0F0F0" transform="translate(14,3)"/>
<path d="M0,0 L3,0 L2,4 L1,6 L-1,6 L-2,9 L-6,10 L-4,5 Z " fill="#E0E0E0" transform="translate(14,3)"/>
<path d="M0,0 L3,0 L2,4 L-1,6 L-6,6 L-4,2 Z " fill="#1F1F1F" transform="translate(18,14)"/>
<path d="M0,0 L1,4 L-2,5 L-2,7 L-6,8 L-6,5 Z " fill="#DADADA" transform="translate(23,14)"/>
</svg>
