<?xml version="1.0" encoding="UTF-8"?>
<svg version="1.1" xmlns="http://www.w3.org/2000/svg" width="28" height="28">
<path d="M0,0 L28,0 L28,28 L0,28 Z " fill="#020202" transform="translate(0,0)"/>
<path d="M0,0 L2,1 L4,13 L5,15 L9,7 L11,5 L15,6 L13,15 L9,17 L10,20 L5,19 L1,14 L0,11 Z " fill="#BFBFBF" transform="translate(8,3)"/>
<path d="M0,0 L2,1 L4,13 L5,15 L8,13 L8,16 L10,17 L10,20 L5,19 L1,14 L0,11 Z " fill="#D6D6D6" transform="translate(8,3)"/>
<path d="M0,0 L1,0 L1,5 L-1,8 L-3,8 L-2,3 Z " fill="#0F0F0F" transform="translate(20,10)"/>
</svg>
