<?xml version="1.0" encoding="UTF-8"?>
<svg version="1.1" xmlns="http://www.w3.org/2000/svg" width="28" height="28">
<path d="M0,0 L28,0 L28,28 L0,28 Z " fill="#010101" transform="translate(0,0)"/>
<path d="M0,0 L2,1 L0,4 L-2,12 L3,13 L3,19 L-2,20 L-5,15 L-5,13 L-3,13 L-3,6 L-1,1 Z " fill="#BDBDBD" transform="translate(15,3)"/>
<path d="M0,0 L2,1 L0,4 L-3,16 L-5,15 L-5,13 L-3,13 L-3,6 L-1,1 Z " fill="#CBCBCB" transform="translate(15,3)"/>
<path d="M0,0 L4,1 L3,5 L0,4 Z " fill="#0D0D0D" transform="translate(13,17)"/>
</svg>
