<?xml version="1.0" encoding="UTF-8"?>
<svg version="1.1" xmlns="http://www.w3.org/2000/svg" width="28" height="28">
<path d="M0,0 L28,0 L28,28 L0,28 Z " fill="#020202" transform="translate(0,0)"/>
<path d="M0,0 L4,1 L0,2 L-2,11 L5,12 L4,18 L0,20 L-4,19 L-6,16 L-5,9 L-1,1 Z " fill="#D7D7D7" transform="translate(15,3)"/>
<path d="M0,0 L4,1 L0,2 L-2,11 L2,12 L-3,12 L-5,11 L-2,2 Z " fill="#C7C7C7" transform="translate(15,3)"/>
<path d="M0,0 L6,0 L5,4 L0,5 Z " fill="#252525" transform="translate(12,16)"/>
<path d="M0,0 L1,2 L8,2 L7,4 L1,3 L1,5 L-1,5 Z " fill="#FCFCFC" transform="translate(11,13)"/>
</svg>
