<?xml version="1.0" encoding="UTF-8"?>
<svg version="1.1" xmlns="http://www.w3.org/2000/svg" width="28" height="28">
<path d="M0,0 L28,0 L28,28 L0,28 Z " fill="#020202" transform="translate(0,0)"/>
<path d="M0,0 L2,1 L2,3 L0,3 L-1,7 L-2,9 L2,11 L-4,14 L-5,17 L0,14 L2,14 L0,18 L-3,20 L-8,19 L-7,12 L-6,9 L-4,9 L-3,4 Z " fill="#E4E4E4" transform="translate(16,3)"/>
<path d="M0,0 L4,1 L2,5 L-7,8 L-6,4 L-1,2 Z " fill="#D0D0D0" transform="translate(18,12)"/>
<path d="M0,0 L4,1 L-1,5 L-3,5 L-2,1 Z " fill="#171717" transform="translate(14,15)"/>
</svg>
