<?xml version="1.0" encoding="UTF-8"?>
<svg version="1.1" xmlns="http://www.w3.org/2000/svg" width="28" height="28">
<path d="M0,0 L28,0 L28,28 L0,28 Z " fill="#020202" transform="translate(0,0)"/>
<path d="M0,0 L4,2 L3,4 L1,4 L-2,10 L6,10 L6,15 L2,19 L-2,20 L-6,18 L-6,9 L-1,1 Z " fill="#D7D7D7" transform="translate(15,3)"/>
<path d="M0,0 L4,2 L3,4 L1,4 L-2,10 L4,10 L4,12 L-3,13 L-5,17 L-6,15 L-6,9 L-1,1 Z " fill="#EBEBEB" transform="translate(15,3)"/>
<path d="M0,0 L7,0 L5,4 L0,5 Z " fill="#0C0C0C" transform="translate(12,15)"/>
<path d="M0,0 L4,2 L3,4 L-3,5 L-1,1 Z " fill="#CDCDCD" transform="translate(15,3)"/>
</svg>
