<?xml version="1.0" encoding="UTF-8"?>
<svg version="1.1" xmlns="http://www.w3.org/2000/svg" width="28" height="28">
<path d="M0,0 L28,0 L28,28 L0,28 Z " fill="#030303" transform="translate(0,0)"/>
<path d="M0,0 L2,0 L2,3 L-1,3 L-3,8 L-4,13 L1,16 L2,11 L3,9 L7,9 L8,15 L4,17 L4,20 L2,20 L2,18 L-3,18 L-7,13 L-6,7 L-2,1 Z " fill="#DADADA" transform="translate(14,3)"/>
<path d="M0,0 L4,0 L5,6 L1,8 L1,11 L-1,11 L-2,7 L2,5 L1,3 L-1,5 Z " fill="#E9E9E9" transform="translate(17,12)"/>
<path d="M0,0 L2,1 L1,4 L-3,5 L-2,2 Z M-7,5 L-3,5 L-3,7 L-7,7 Z " fill="#878787" transform="translate(18,14)"/>
</svg>
