<?xml version="1.0" encoding="UTF-8"?>
<svg version="1.1" xmlns="http://www.w3.org/2000/svg" width="28" height="28">
<path d="M0,0 L28,0 L28,28 L0,28 Z " fill="#050505" transform="translate(0,0)"/>
<path d="M0,0 L4,1 L3,4 L-3,5 L-5,8 L-6,14 L-2,13 L-2,11 L2,9 L7,10 L8,15 L6,18 L0,20 L-7,18 L-8,15 L-8,7 L-5,2 Z " fill="#ECECEC" transform="translate(15,3)"/>
<path d="M0,0 L4,1 L3,4 L-3,5 L-6,8 L-6,4 L-3,1 Z " fill="#E3E3E3" transform="translate(15,3)"/>
<path d="M0,0 L4,0 L4,3 L-3,4 L-3,2 Z " fill="#262626" transform="translate(17,15)"/>
</svg>
