<?xml version="1.0" encoding="UTF-8"?>
<svg version="1.1" xmlns="http://www.w3.org/2000/svg" width="28" height="28">
<path d="M0,0 L28,0 L28,28 L0,28 Z " fill="#020202" transform="translate(0,0)"/>
<path d="M0,0 L3,0 L1,4 L0,8 L6,8 L7,9 L7,14 L2,20 L-2,19 L-5,14 L-3,3 Z " fill="#DEDEDE" transform="translate(14,4)"/>
<path d="M0,0 L3,0 L1,4 L-1,9 L2,10 L0,11 L-1,15 L-5,14 L-3,3 Z " fill="#F0F0F0" transform="translate(14,4)"/>
<path d="M0,0 L5,0 L3,5 L0,7 L-1,6 L-1,1 Z " fill="#1D1D1D" transform="translate(14,14)"/>
</svg>
