<?xml version="1.0" encoding="UTF-8"?>
<svg version="1.1" xmlns="http://www.w3.org/2000/svg" width="28" height="28">
<path d="M0,0 L28,0 L28,28 L0,28 Z " fill="#030303" transform="translate(0,0)"/>
<path d="M0,0 L5,1 L4,3 L-1,4 L-3,6 L-3,12 L0,14 L4,14 L4,9 L6,7 L13,7 L14,12 L10,16 L-2,16 L-6,12 L-5,5 Z " fill="#BDBDBD" transform="translate(11,5)"/>
<path d="M0,0 L5,1 L4,3 L-1,4 L-3,6 L-3,12 L0,14 L8,15 L8,16 L-2,16 L-6,12 L-5,5 Z " fill="#CFCFCF" transform="translate(11,5)"/>
<path d="M0,0 L5,0 L6,3 L3,6 L-2,5 Z " fill="#0D0D0D" transform="translate(18,13)"/>
</svg>
