<?xml version="1.0" encoding="UTF-8"?>
<svg version="1.1" xmlns="http://www.w3.org/2000/svg" width="28" height="28">
<path d="M0,0 L28,0 L28,28 L0,28 Z " fill="#010101" transform="translate(0,0)"/>
<path d="M0,0 L3,1 L3,5 L1,6 L1,11 L2,14 L9,16 L13,15 L9,12 L6,11 L6,13 L3,12 L3,7 L9,8 L15,12 L17,15 L16,19 L14,20 L4,19 L-2,14 L-3,12 L-3,4 Z " fill="#E5E5E5" transform="translate(9,3)"/>
<path d="M0,0 L4,2 L2,2 L3,7 L5,8 L5,6 L10,7 L13,11 L8,12 L1,9 L-1,6 L-1,1 Z " fill="#151515" transform="translate(10,8)"/>
<path d="M0,0 L4,2 L2,2 L3,8 L1,9 L-1,6 L-1,1 Z " fill="#434343" transform="translate(10,8)"/>
</svg>
