<?xml version="1.0" encoding="UTF-8"?>
<svg version="1.1" xmlns="http://www.w3.org/2000/svg" width="28" height="28">
<path d="M0,0 L28,0 L28,28 L0,28 Z " fill="#030303" transform="translate(0,0)"/>
<path d="M0,0 L4,1 L3,4 L-1,6 L-2,9 L-1,8 L4,8 L6,10 L5,16 L0,20 L-6,20 L-8,18 L-7,9 Z " fill="#D8D8D8" transform="translate(16,3)"/>
<path d="M0,0 L5,0 L7,2 L6,8 L3,11 L-1,11 L-1,9 L3,6 L4,2 L-1,5 L-3,5 L-1,1 Z " fill="#DCDCDC" transform="translate(15,11)"/>
<path d="M0,0 L3,0 L2,5 L0,7 L-5,7 L-5,1 L-4,3 Z " fill="#090909" transform="translate(16,13)"/>
<path d="M0,0 L4,1 L3,4 L-1,5 L-3,3 Z " fill="#C1C1C1" transform="translate(16,3)"/>
</svg>
