<?xml version="1.0" encoding="UTF-8"?>
<svg version="1.1" xmlns="http://www.w3.org/2000/svg" width="28" height="28">
<path d="M0,0 L28,0 L28,28 L0,28 Z " fill="#030303" transform="translate(0,0)"/>
<path d="M0,0 L3,1 L-2,12 L1,9 L6,10 L7,15 L2,19 L-4,20 L-4,18 L-6,18 L-7,13 L-2,3 Z " fill="#CECECE" transform="translate(15,3)"/>
<path d="M0,0 L3,1 L4,6 L1,9 L-4,8 L-2,3 Z " fill="#929292" transform="translate(18,12)"/>
<path d="M0,0 L2,1 L-2,8 L1,8 L1,10 L-5,11 L-5,9 L-7,9 L-6,4 L-5,6 L-3,6 L-2,2 Z " fill="#F0F0F0" transform="translate(16,12)"/>
<path d="M0,0 L3,1 L1,6 L-2,6 L-1,2 Z " fill="#EBEBEB" transform="translate(15,3)"/>
</svg>
