<?xml version="1.0" encoding="UTF-8"?>
<svg version="1.1" xmlns="http://www.w3.org/2000/svg" width="28" height="28">
<path d="M0,0 L28,0 L28,28 L0,28 Z " fill="#020202" transform="translate(0,0)"/>
<path d="M0,0 L3,0 L3,3 L-1,5 L-3,9 L2,11 L4,16 L3,18 L1,18 L1,20 L-5,20 L-8,16 L-7,10 L-3,2 Z " fill="#E3E3E3" transform="translate(17,3)"/>
<path d="M0,0 L5,1 L4,5 L-1,5 Z " fill="#1C1C1C" transform="translate(13,15)"/>
<path d="M0,0 L2,1 L1,5 L-1,5 L-1,7 L-3,7 L-3,5 L-5,4 L0,3 Z " fill="#C9C9C9" transform="translate(19,16)"/>
</svg>
