<?xml version="1.0" encoding="UTF-8"?>
<svg version="1.1" xmlns="http://www.w3.org/2000/svg" width="28" height="28">
<path d="M0,0 L28,0 L28,28 L0,28 Z " fill="#030303" transform="translate(0,0)"/>
<path d="M0,0 L2,0 L1,5 L-4,13 L-5,17 L-3,17 L-2,12 L-1,11 L4,11 L6,13 L5,17 L3,19 L-5,20 L-8,16 L-7,11 Z " fill="#E8E8E8" transform="translate(16,2)"/>
<path d="M0,0 L5,0 L7,2 L6,6 L2,8 L-1,7 L-2,2 Z " fill="#EAEAEA" transform="translate(15,13)"/>
<path d="M0,0 L4,0 L3,5 L-2,4 Z " fill="#8F8F8F" transform="translate(16,16)"/>
</svg>
