<?xml version="1.0" encoding="UTF-8"?>
<svg version="1.1" xmlns="http://www.w3.org/2000/svg" width="28" height="28">
<path d="M0,0 L28,0 L28,28 L0,28 Z " fill="#030303" transform="translate(0,0)"/>
<path d="M0,0 L2,0 L1,4 L-1,7 L-3,7 L-5,11 L-1,11 L6,12 L7,15 L5,18 L-4,20 L-9,20 L-12,18 L-11,12 L-5,4 L-3,4 L-2,1 Z " fill="#DFDFDF" transform="translate(18,2)"/>
<path d="M0,0 L7,1 L7,5 L5,5 L5,3 L-3,3 Z " fill="#ECECEC" transform="translate(17,13)"/>
<path d="M0,0 L5,0 L5,2 L0,4 L-6,3 L-4,1 Z " fill="#1D1D1D" transform="translate(16,16)"/>
<path d="M0,0 L1,2 L3,3 L-2,5 L-5,5 L-5,3 L0,2 Z " fill="#BEBEBE" transform="translate(21,16)"/>
</svg>
