<?xml version="1.0" encoding="UTF-8"?>
<svg version="1.1" xmlns="http://www.w3.org/2000/svg" width="28" height="28">
<path d="M0,0 L28,0 L28,28 L0,28 Z " fill="#010101" transform="translate(0,0)"/>
<path d="M0,0 L3,1 L0,6 L-3,11 L3,10 L5,13 L5,16 L-1,19 L-7,20 L-7,10 L-1,1 Z " fill="#EEEEEE" transform="translate(16,3)"/>
<path d="M0,0 L3,1 L4,6 L0,8 L-5,7 Z " fill="#8F8F8F" transform="translate(17,13)"/>
<path d="M0,0 L3,1 L0,6 L-2,8 L-3,13 L-6,10 L-4,5 Z " fill="#D3D3D3" transform="translate(16,3)"/>
</svg>
