<?xml version="1.0" encoding="UTF-8"?>
<svg version="1.1" xmlns="http://www.w3.org/2000/svg" width="28" height="28">
<path d="M0,0 L28,0 L28,28 L0,28 Z " fill="#030303" transform="translate(0,0)"/>
<path d="M0,0 L3,0 L3,3 L-1,7 L3,8 L5,10 L5,16 L-4,20 L-9,18 L-9,12 L-2,2 Z " fill="#ECECEC" transform="translate(17,3)"/>
<path d="M0,0 L5,1 L6,2 L6,8 L2,10 L-2,9 L0,3 L2,3 L2,1 Z " fill="#DDDDDD" transform="translate(16,11)"/>
<path d="M0,0 L4,0 L3,4 L-2,6 Z " fill="#272727" transform="translate(16,14)"/>
</svg>
