<?xml version="1.0" encoding="UTF-8"?>
<svg version="1.1" xmlns="http://www.w3.org/2000/svg" width="28" height="28">
<path d="M0,0 L28,0 L28,28 L0,28 Z " fill="#010101" transform="translate(0,0)"/>
<path d="M0,0 L2,0 L0,7 L0,12 L6,12 L8,13 L8,19 L7,20 L-2,20 L-3,19 L-3,8 Z " fill="#D6D6D6" transform="translate(13,1)"/>
<path d="M0,0 L1,0 L1,6 L0,7 L-9,7 L-5,5 L-7,4 L-7,2 Z " fill="#BEBEBE" transform="translate(20,14)"/>
<path d="M0,0 L4,0 L3,4 L-2,3 L-2,1 Z " fill="#1B1B1B" transform="translate(15,15)"/>
</svg>
