<?xml version="1.0" encoding="UTF-8"?>
<svg version="1.1" xmlns="http://www.w3.org/2000/svg" width="28" height="28">
<path d="M0,0 L28,0 L28,28 L0,28 Z " fill="#010101" transform="translate(0,0)"/>
<path d="M0,0 L5,1 L1,3 L-2,8 L-3,10 L4,11 L5,18 L3,20 L-3,20 L-6,17 L-6,10 L-3,3 Z " fill="#E7E7E7" transform="translate(16,3)"/>
<path d="M0,0 L5,1 L6,5 L5,6 L-1,6 L-2,1 Z " fill="#141414" transform="translate(14,15)"/>
<path d="M0,0 L5,1 L1,3 L-2,8 L-4,11 L-5,6 Z " fill="#C3C3C3" transform="translate(16,3)"/>
</svg>
