<?xml version="1.0" encoding="UTF-8"?>
<svg version="1.1" xmlns="http://www.w3.org/2000/svg" width="28" height="28">
<path d="M0,0 L28,0 L28,28 L0,28 Z " fill="#020202" transform="translate(0,0)"/>
<path d="M0,0 L1,0 L2,11 L9,5 L14,5 L16,7 L15,16 L9,19 L1,20 L-2,13 L-2,5 Z " fill="#ECECEC" transform="translate(9,3)"/>
<path d="M0,0 L5,1 L4,8 L1,10 L-6,9 L-5,5 Z " fill="#0E0E0E" transform="translate(18,10)"/>
<path d="M0,0 L5,0 L7,3 L5,6 L4,3 L-1,4 L-6,8 L-6,5 Z " fill="#C9C9C9" transform="translate(18,8)"/>
<path d="M0,0 L1,0 L1,12 L-2,13 L-2,5 Z " fill="#CECECE" transform="translate(9,3)"/>
</svg>
