<?xml version="1.0" encoding="UTF-8"?>
<svg version="1.1" xmlns="http://www.w3.org/2000/svg" width="28" height="28">
<path d="M0,0 L28,0 L28,28 L0,28 Z " fill="#030303" transform="translate(0,0)"/>
<path d="M0,0 L2,0 L0,5 L-6,13 L-8,17 L-5,17 L-3,13 L1,11 L4,11 L3,18 L-3,20 L-8,20 L-10,18 L-9,13 L-7,9 L-5,9 L-3,4 Z " fill="#B9B9B9" transform="translate(17,1)"/>
<path d="M0,0 L2,0 L0,5 L-6,13 L-8,17 L-5,18 L-5,20 L-9,19 L-10,14 L-7,9 L-5,9 L-3,4 Z " fill="#D7D7D7" transform="translate(17,1)"/>
</svg>
