<?xml version="1.0" encoding="UTF-8"?>
<svg version="1.1" xmlns="http://www.w3.org/2000/svg" width="28" height="28">
<path d="M0,0 L28,0 L28,28 L0,28 Z " fill="#010101" transform="translate(0,0)"/>
<path d="M0,0 L2,0 L-1,9 L-3,16 L-3,18 L1,16 L2,14 L-2,15 L0,11 L5,12 L4,16 L0,20 L-5,19 L-5,11 L-3,3 L-1,3 Z " fill="#DCDCDC" transform="translate(15,2)"/>
<path d="M0,0 L2,0 L-1,9 L-3,12 L-4,7 L-3,3 L-1,3 Z " fill="#B9B9B9" transform="translate(15,2)"/>
<path d="M0,0 L3,0 L6,1 L2,5 L0,5 L-1,1 Z " fill="#414141" transform="translate(12,15)"/>
</svg>
