<?xml version="1.0" encoding="UTF-8"?>
<svg version="1.1" xmlns="http://www.w3.org/2000/svg" width="28" height="28">
<path d="M0,0 L28,0 L28,28 L0,28 Z " fill="#040404" transform="translate(0,0)"/>
<path d="M0,0 L3,1 L4,11 L12,13 L12,8 L14,6 L19,7 L20,11 L18,14 L18,16 L5,16 L1,11 Z " fill="#F1F1F1" transform="translate(5,4)"/>
<path d="M0,0 L7,1 L7,2 L12,3 L12,4 L2,4 Z " fill="#B6B6B6" transform="translate(8,16)"/>
<path d="M0,0 L3,1 L2,6 L0,6 L-2,2 Z " fill="#A4A4A4" transform="translate(19,10)"/>
</svg>
