<?xml version="1.0" encoding="UTF-8"?>
<svg version="1.1" xmlns="http://www.w3.org/2000/svg" width="28" height="28">
<path d="M0,0 L28,0 L28,28 L0,28 Z " fill="#020202" transform="translate(0,0)"/>
<path d="M0,0 L2,1 L1,6 L0,8 L5,8 L6,9 L6,15 L1,20 L-3,19 L-5,16 L-5,9 Z " fill="#E4E4E4" transform="translate(14,3)"/>
<path d="M0,0 L2,1 L1,6 L0,8 L2,10 L-1,14 L-3,14 L-4,17 L-5,16 L-5,9 Z " fill="#EAEAEA" transform="translate(14,3)"/>
<path d="M0,0 L2,0 L0,5 L-4,6 L-4,4 L-2,4 L-2,1 Z " fill="#292929" transform="translate(16,14)"/>
</svg>
