<?xml version="1.0" encoding="UTF-8"?>
<svg version="1.1" xmlns="http://www.w3.org/2000/svg" width="28" height="28">
<path d="M0,0 L28,0 L28,28 L0,28 Z " fill="#020202" transform="translate(0,0)"/>
<path d="M0,0 L4,0 L4,9 L5,12 L7,12 L12,6 L17,6 L19,8 L19,13 L16,16 L11,18 L6,17 L1,14 L-1,10 L-1,2 Z " fill="#E9E9E9" transform="translate(6,4)"/>
<path d="M0,0 L2,1 L5,5 L2,8 L-2,8 L-4,4 Z " fill="#DEDEDE" transform="translate(18,10)"/>
<path d="M0,0 L4,1 L5,2 L5,7 L2,10 L-3,10 L2,4 L-1,1 Z " fill="#F2F2F2" transform="translate(20,10)"/>
<path d="M0,0 L4,0 L3,8 L2,8 L1,3 L0,10 L-1,10 L-1,2 Z " fill="#979797" transform="translate(6,4)"/>
<path d="M0,0 L4,1 L1,5 L-2,5 L-1,1 Z " fill="#1B1B1B" transform="translate(19,13)"/>
</svg>
