<?xml version="1.0" encoding="UTF-8"?>
<svg version="1.1" xmlns="http://www.w3.org/2000/svg" width="28" height="28">
<path d="M0,0 L28,0 L28,28 L0,28 Z " fill="#020202" transform="translate(0,0)"/>
<path d="M0,0 L2,0 L0,9 L-2,9 L-1,13 L1,11 L6,11 L6,17 L2,20 L-4,20 L-4,11 Z " fill="#E6E6E6" transform="translate(14,2)"/>
<path d="M0,0 L1,0 L1,6 L-1,7 L-5,6 L-5,4 L0,2 Z " fill="#7C7C7C" transform="translate(19,13)"/>
<path d="M0,0 L2,0 L0,9 L-2,5 Z " fill="#C8C8C8" transform="translate(14,2)"/>
</svg>
