<?xml version="1.0" encoding="UTF-8"?>
<svg version="1.1" xmlns="http://www.w3.org/2000/svg" width="28" height="28">
<path d="M0,0 L28,0 L28,28 L0,28 Z " fill="#010101" transform="translate(0,0)"/>
<path d="M0,0 L2,0 L2,6 L2,10 L7,11 L8,12 L8,17 L4,20 L-3,20 L-4,13 L-3,7 L-1,7 Z " fill="#ECECEC" transform="translate(13,1)"/>
<path d="M0,0 L2,2 L6,1 L4,3 L7,6 L4,8 L1,8 L0,6 Z " fill="#868686" transform="translate(12,10)"/>
<path d="M0,0 L2,0 L2,6 L0,9 L-2,9 L-3,11 L-3,7 L-1,7 Z " fill="#C7C7C7" transform="translate(13,1)"/>
</svg>
