<?xml version="1.0" encoding="UTF-8"?>
<svg version="1.1" xmlns="http://www.w3.org/2000/svg" width="28" height="28">
<path d="M0,0 L28,0 L28,28 L0,28 Z " fill="#040404" transform="translate(0,0)"/>
<path d="M0,0 L4,1 L0,5 L-5,10 L1,11 L4,14 L4,18 L1,20 L-6,19 L-9,15 L-9,8 L-2,2 L0,2 Z " fill="#EEEEEE" transform="translate(17,3)"/>
<path d="M0,0 L5,2 L7,4 L7,8 L2,10 L2,8 L-3,5 L-1,1 Z " fill="#E6E6E6" transform="translate(14,13)"/>
<path d="M0,0 L4,1 L6,2 L5,5 L0,4 Z " fill="#262626" transform="translate(12,15)"/>
</svg>
