<?xml version="1.0" encoding="UTF-8"?>
<svg version="1.1" xmlns="http://www.w3.org/2000/svg" width="28" height="28">
<path d="M0,0 L28,0 L28,28 L0,28 Z " fill="#020202" transform="translate(0,0)"/>
<path d="M0,0 L1,3 L-1,7 L-1,15 L3,10 L8,11 L8,17 L3,20 L-2,19 L-4,14 L-4,7 L-1,1 Z " fill="#ECECEC" transform="translate(13,2)"/>
<path d="M0,0 L1,3 L-1,7 L-1,16 L-3,18 L-4,14 L-4,7 L-1,1 Z " fill="#D7D7D7" transform="translate(13,2)"/>
<path d="M0,0 L3,1 L2,5 L-3,6 L-1,1 Z " fill="#1B1B1B" transform="translate(17,14)"/>
<path d="M0,0 L5,1 L5,7 L3,5 L3,3 L-1,2 Z " fill="#D0D0D0" transform="translate(16,12)"/>
</svg>
