<?xml version="1.0" encoding="UTF-8"?>
<svg version="1.1" xmlns="http://www.w3.org/2000/svg" width="28" height="28">
<path d="M0,0 L28,0 L28,28 L0,28 Z " fill="#040404" transform="translate(0,0)"/>
<path d="M0,0 L3,0 L3,4 L0,7 L-1,10 L-3,10 L-3,13 L3,8 L9,8 L11,10 L10,15 L6,18 L0,20 L-5,20 L-7,18 L-7,11 L-3,5 Z " fill="#E7E7E7" transform="translate(14,3)"/>
<path d="M0,0 L3,1 L2,6 L-3,9 L-3,7 L-8,7 L-6,3 Z " fill="#D1D1D1" transform="translate(22,12)"/>
<path d="M0,0 L4,0 L2,4 L-4,5 L-2,1 Z " fill="#151515" transform="translate(18,14)"/>
</svg>
