<?xml version="1.0" encoding="UTF-8"?>
<svg version="1.1" xmlns="http://www.w3.org/2000/svg" width="28" height="28">
<path d="M0,0 L28,0 L28,28 L0,28 Z " fill="#030303" transform="translate(0,0)"/>
<path d="M0,0 L2,0 L1,7 L0,14 L7,11 L12,12 L13,15 L9,19 L6,20 L-1,20 L-4,15 L-3,7 Z " fill="#E2E2E2" transform="translate(11,1)"/>
<path d="M0,0 L2,0 L1,7 L-1,16 L1,16 L1,18 L8,18 L6,20 L-1,20 L-4,15 L-3,7 Z " fill="#E7E7E7" transform="translate(11,1)"/>
<path d="M0,0 L4,0 L3,4 L-4,4 Z " fill="#202020" transform="translate(17,14)"/>
</svg>
