<?xml version="1.0" encoding="UTF-8"?>
<svg version="1.1" xmlns="http://www.w3.org/2000/svg" width="28" height="28">
<path d="M0,0 L28,0 L28,28 L0,28 Z " fill="#020202" transform="translate(0,0)"/>
<path d="M0,0 L2,0 L0,4 L-4,12 L-3,13 L-1,11 L4,11 L4,17 L2,20 L-4,20 L-6,16 L-6,9 Z " fill="#D0D0D0" transform="translate(16,2)"/>
<path d="M0,0 L3,0 L1,6 L-3,5 L-1,1 Z " fill="#181818" transform="translate(16,15)"/>
<path d="M0,0 L2,0 L0,4 L-4,12 L-6,9 Z " fill="#C3C3C3" transform="translate(16,2)"/>
<path d="M0,0 L1,0 L1,5 L4,6 L4,8 L7,10 L2,10 L0,6 Z " fill="#F1F1F1" transform="translate(10,12)"/>
</svg>
