<?xml version="1.0" encoding="UTF-8"?>
<svg version="1.1" xmlns="http://www.w3.org/2000/svg" width="28" height="28">
<path d="M0,0 L28,0 L28,28 L0,28 Z " fill="#010101" transform="translate(0,0)"/>
<path d="M0,0 L2,1 L-3,13 L2,12 L3,13 L3,18 L1,20 L-6,19 L-5,10 L-4,6 L-2,6 L-1,1 Z " fill="#B7B7B7" transform="translate(16,2)"/>
<path d="M0,0 L1,2 L3,3 L1,6 L6,5 L5,1 L8,1 L8,6 L6,8 L-1,7 L-1,1 Z " fill="#D4D4D4" transform="translate(11,14)"/>
<path d="M0,0 L3,1 L2,4 L-3,4 L-2,1 Z " fill="#111111" transform="translate(15,16)"/>
</svg>
