<?xml version="1.0" encoding="UTF-8"?>
<svg version="1.1" xmlns="http://www.w3.org/2000/svg" width="28" height="28">
<path d="M0,0 L28,0 L28,28 L0,28 Z " fill="#020202" transform="translate(0,0)"/>
<path d="M0,0 L3,0 L2,9 L0,17 L3,17 L4,13 L7,11 L11,12 L14,14 L14,19 L12,20 L0,20 L-3,17 L-2,10 Z " fill="#E4E4E4" transform="translate(10,1)"/>
<path d="M0,0 L4,1 L7,3 L7,8 L6,6 L-1,7 L-2,4 Z " fill="#E2E2E2" transform="translate(17,12)"/>
<path d="M0,0 L3,0 L2,9 L-1,9 Z " fill="#CCCCCC" transform="translate(10,1)"/>
<path d="M0,0 L5,0 L6,3 L0,4 Z " fill="#181818" transform="translate(16,15)"/>
</svg>
