<?xml version="1.0" encoding="UTF-8"?>
<svg version="1.1" xmlns="http://www.w3.org/2000/svg" width="28" height="28">
<path d="M0,0 L28,0 L28,28 L0,28 Z " fill="#040404" transform="translate(0,0)"/>
<path d="M0,0 L3,0 L2,7 L0,14 L1,16 L4,17 L4,12 L8,11 L15,13 L16,17 L4,20 L-2,18 L-4,15 L-2,4 Z " fill="#F2F2F2" transform="translate(10,2)"/>
<path d="M0,0 L7,1 L5,5 L-3,5 L-3,1 Z " fill="#A2A2A2" transform="translate(17,13)"/>
<path d="M0,0 L3,0 L2,7 L-2,8 L-1,1 Z " fill="#D3D3D3" transform="translate(10,2)"/>
</svg>
