<?xml version="1.0" encoding="UTF-8"?>
<svg version="1.1" xmlns="http://www.w3.org/2000/svg" width="28" height="28">
<path d="M0,0 L28,0 L28,28 L0,28 Z " fill="#020202" transform="translate(0,0)"/>
<path d="M0,0 L3,1 L3,10 L2,18 L6,18 L7,13 L10,12 L14,15 L12,19 L10,20 L2,20 L0,19 L-1,13 L0,9 Z " fill="#E4E4E4" transform="translate(10,1)"/>
<path d="M0,0 L3,1 L3,19 L0,19 L-1,13 L0,9 Z " fill="#EBEBEB" transform="translate(10,1)"/>
<path d="M0,0 L3,2 L1,6 L-1,6 L-1,4 L-3,4 L-2,1 Z " fill="#A4A4A4" transform="translate(21,14)"/>
</svg>
