<?xml version="1.0" encoding="UTF-8"?>
<svg version="1.1" xmlns="http://www.w3.org/2000/svg" width="28" height="28">
<path d="M0,0 L28,0 L28,28 L0,28 Z " fill="#040404" transform="translate(0,0)"/>
<path d="M0,0 L2,0 L1,16 L6,11 L8,9 L15,9 L17,12 L17,18 L16,19 L2,20 L-2,16 L-1,4 Z " fill="#DBDBDB" transform="translate(8,1)"/>
<path d="M0,0 L4,2 L4,5 L2,6 L-5,6 L-3,2 Z " fill="#141414" transform="translate(19,12)"/>
<path d="M0,0 L1,2 L9,2 L9,4 L4,5 L-3,5 L-4,2 Z " fill="#F7F7F7" transform="translate(13,16)"/>
</svg>
