<?xml version="1.0" encoding="UTF-8"?>
<svg version="1.1" xmlns="http://www.w3.org/2000/svg" width="28" height="28">
<path d="M0,0 L28,0 L28,28 L0,28 Z " fill="#020202" transform="translate(0,0)"/>
<path d="M0,0 L2,1 L-6,12 L-6,17 L-5,13 L-2,10 L3,11 L2,17 L-2,20 L-7,20 L-9,18 L-9,12 L-5,6 Z " fill="#BBBBBB" transform="translate(18,2)"/>
<path d="M0,0 L2,1 L-6,12 L-6,17 L-1,18 L-2,20 L-7,20 L-9,18 L-9,12 L-5,6 Z " fill="#D5D5D5" transform="translate(18,2)"/>
<path d="M0,0 L2,0 L1,5 L-2,5 L-2,1 Z " fill="#111111" transform="translate(17,14)"/>
</svg>
