<?xml version="1.0" encoding="UTF-8"?>
<svg version="1.1" xmlns="http://www.w3.org/2000/svg" width="28" height="28">
<path d="M0,0 L28,0 L28,28 L0,28 Z " fill="#020202" transform="translate(0,0)"/>
<path d="M0,0 L5,1 L4,3 L1,5 L1,10 L8,9 L9,14 L7,19 L2,20 L-3,18 L-4,8 Z " fill="#E5E5E5" transform="translate(13,3)"/>
<path d="M0,0 L5,0 L6,5 L3,6 L2,8 L-2,8 L-2,4 L0,2 Z " fill="#E4E4E4" transform="translate(16,12)"/>
<path d="M0,0 L5,1 L4,3 L1,5 L0,11 L-3,8 L-2,3 Z " fill="#C4C4C4" transform="translate(13,3)"/>
<path d="M0,0 L2,0 L1,6 L-3,6 L-3,2 Z " fill="#242424" transform="translate(17,14)"/>
</svg>
