<?xml version="1.0" encoding="UTF-8"?>
<svg version="1.1" xmlns="http://www.w3.org/2000/svg" width="28" height="28">
<path d="M0,0 L28,0 L28,28 L0,28 Z " fill="#020202" transform="translate(0,0)"/>
<path d="M0,0 L2,0 L1,4 L-6,11 L-7,17 L0,17 L2,14 L-4,14 L-4,16 L-6,16 L-5,12 L-3,11 L3,11 L5,13 L5,17 L-1,20 L-8,20 L-11,17 L-10,11 L-6,5 Z " fill="#E6E6E6" transform="translate(18,3)"/>
<path d="M0,0 L2,2 L1,5 L3,5 L3,3 L9,3 L7,7 L0,7 L-1,2 Z " fill="#383838" transform="translate(11,14)"/>
<path d="M0,0 L6,0 L5,3 L0,3 Z " fill="#1A1A1A" transform="translate(14,17)"/>
</svg>
