<?xml version="1.0" encoding="UTF-8"?>
<svg version="1.1" xmlns="http://www.w3.org/2000/svg" width="28" height="28">
<path d="M0,0 L28,0 L28,28 L0,28 Z " fill="#030303" transform="translate(0,0)"/>
<path d="M0,0 L2,0 L1,3 L-3,7 L-4,13 L1,8 L5,9 L4,11 L1,12 L-1,17 L5,15 L7,13 L6,18 L3,20 L-4,20 L-7,15 L-7,8 L-3,2 Z " fill="#D5D5D5" transform="translate(15,2)"/>
<path d="M0,0 L6,2 L5,6 L3,6 L2,7 L-3,7 L-2,2 Z " fill="#1D1D1D" transform="translate(17,12)"/>
<path d="M0,0 L1,4 L-3,7 L-7,6 L-3,4 Z " fill="#ECECEC" transform="translate(21,15)"/>
</svg>
