<?xml version="1.0" encoding="UTF-8"?>
<svg version="1.1" xmlns="http://www.w3.org/2000/svg" width="28" height="28">
<path d="M0,0 L28,0 L28,28 L0,28 Z " fill="#020202" transform="translate(0,0)"/>
<path d="M0,0 L2,0 L0,5 L-3,8 L2,10 L1,16 L-2,18 L-8,18 L-9,20 L-10,12 Z " fill="#D6D6D6" transform="translate(18,3)"/>
<path d="M0,0 L2,0 L0,5 L-3,8 L-4,13 L-7,12 L-9,17 L-10,17 L-10,12 Z " fill="#DCDCDC" transform="translate(18,3)"/>
<path d="M0,0 L1,2 L4,0 L7,0 L7,3 L1,6 L-2,6 L-1,1 Z " fill="#262626" transform="translate(11,14)"/>
</svg>
