<?xml version="1.0" encoding="UTF-8"?>
<svg version="1.1" xmlns="http://www.w3.org/2000/svg" width="28" height="28">
<path d="M0,0 L28,0 L28,28 L0,28 Z " fill="#020202" transform="translate(0,0)"/>
<path d="M0,0 L2,0 L1,4 L-1,4 L-3,8 L-3,11 L-3,18 L-9,20 L-14,19 L-13,13 L-3,3 Z " fill="#DDDDDD" transform="translate(21,2)"/>
<path d="M0,0 L2,0 L1,4 L-1,4 L-3,8 L-6,10 L-5,12 L-8,15 L-11,15 L-10,10 L-3,3 Z " fill="#E5E5E5" transform="translate(21,2)"/>
<path d="M0,0 L3,2 L2,7 L-3,8 L-2,5 L0,5 L-1,1 Z " fill="#747474" transform="translate(15,11)"/>
</svg>
