<?xml version="1.0" encoding="UTF-8"?>
<svg version="1.1" xmlns="http://www.w3.org/2000/svg" width="28" height="28">
<path d="M0,0 L28,0 L28,28 L0,28 Z " fill="#020202" transform="translate(0,0)"/>
<path d="M0,0 L3,1 L-2,7 L-2,10 L-1,11 L-1,17 L-5,20 L-9,19 L-9,11 L-7,11 L-5,5 Z " fill="#EAEAEA" transform="translate(19,3)"/>
<path d="M0,0 L3,1 L-2,7 L-6,11 L-7,9 L-3,3 Z M-9,11 L-7,12 L-9,15 Z " fill="#D8D8D8" transform="translate(19,3)"/>
<path d="M0,0 L4,0 L3,4 L-1,6 Z " fill="#1D1D1D" transform="translate(13,15)"/>
</svg>
