<?xml version="1.0" encoding="UTF-8"?>
<svg version="1.1" xmlns="http://www.w3.org/2000/svg" width="28" height="28">
<path d="M0,0 L28,0 L28,28 L0,28 Z " fill="#030303" transform="translate(0,0)"/>
<path d="M0,0 L3,1 L1,6 L-2,10 L-2,18 L4,17 L4,12 L-1,13 L-1,11 L5,10 L7,11 L7,17 L4,18 L4,20 L-2,20 L-5,15 L-4,8 L-2,3 L0,3 Z " fill="#D4D4D4" transform="translate(14,3)"/>
<path d="M0,0 L6,1 L6,7 L1,8 L3,7 L3,2 L-2,3 L-2,1 Z " fill="#A2A2A2" transform="translate(15,13)"/>
<path d="M0,0 L5,1 L4,5 L4,2 L-2,3 L-2,1 Z " fill="#D6D6D6" transform="translate(15,13)"/>
</svg>
