<?xml version="1.0" encoding="UTF-8"?>
<svg version="1.1" xmlns="http://www.w3.org/2000/svg" width="28" height="28">
<path d="M0,0 L28,0 L28,28 L0,28 Z " fill="#010101" transform="translate(0,0)"/>
<path d="M0,0 L2,0 L0,5 L-3,9 L-3,11 L4,10 L6,12 L6,16 L-1,20 L-7,20 L-8,18 L-8,12 L-1,1 Z " fill="#E1E1E1" transform="translate(16,2)"/>
<path d="M0,0 L2,0 L0,5 L-3,9 L-3,11 L2,11 L-1,14 L-6,15 L-7,18 L-8,18 L-8,12 L-1,1 Z " fill="#CACACA" transform="translate(16,2)"/>
<path d="M0,0 L5,0 L2,3 L-3,4 L-4,7 L-5,3 Z " fill="#EDEDED" transform="translate(13,13)"/>
<path d="M0,0 L4,0 L4,2 L1,4 L-4,4 L-4,2 Z " fill="#111111" transform="translate(15,15)"/>
<path d="M0,0 L4,1 L5,6 L2,5 L2,3 L0,2 Z " fill="#ACACAC" transform="translate(17,12)"/>
</svg>
