<?xml version="1.0" encoding="UTF-8"?>
<svg version="1.1" xmlns="http://www.w3.org/2000/svg" width="28" height="28">
<path d="M0,0 L28,0 L28,28 L0,28 Z " fill="#040404" transform="translate(0,0)"/>
<path d="M0,0 L5,0 L4,4 L1,11 L1,13 L4,14 L5,10 L12,5 L18,5 L17,10 L9,15 L7,16 L0,16 L-2,14 L-2,8 L1,3 Z " fill="#E4E4E4" transform="translate(8,6)"/>
<path d="M0,0 L1,2 L3,3 L0,6 L-7,9 L-9,8 L-7,4 Z " fill="#CFCFCF" transform="translate(23,12)"/>
<path d="M0,0 L0,3 L-7,7 L-9,6 L-3,1 Z " fill="#2F2F2F" transform="translate(23,12)"/>
</svg>
