<?xml version="1.0" encoding="UTF-8"?>
<svg version="1.1" xmlns="http://www.w3.org/2000/svg" width="28" height="28">
<path d="M0,0 L28,0 L28,28 L0,28 Z " fill="#030303" transform="translate(0,0)"/>
<path d="M0,0 L2,0 L2,2 L0,2 L0,9 L2,15 L5,6 L8,4 L12,5 L12,13 L11,16 L8,18 L10,20 L4,19 L-1,16 L-2,13 L-2,2 Z " fill="#BCBCBC" transform="translate(10,3)"/>
<path d="M0,0 L3,0 L3,6 L-1,11 L-3,11 L-2,2 Z " fill="#040404" transform="translate(18,9)"/>
<path d="M0,0 L1,0 L1,8 L3,8 L3,10 L6,11 L0,10 L-1,8 Z " fill="#F3F3F3" transform="translate(14,12)"/>
</svg>
