<?xml version="1.0" encoding="UTF-8"?>
<svg version="1.1" xmlns="http://www.w3.org/2000/svg" width="28" height="28">
<path d="M0,0 L28,0 L28,28 L0,28 Z " fill="#010101" transform="translate(0,0)"/>
<path d="M0,0 L2,0 L2,2 L-4,7 L-7,13 L-8,18 L-6,17 L-6,12 L-2,8 L3,9 L2,15 L-3,19 L-9,20 L-11,18 L-10,12 L-4,3 Z " fill="#CECECE" transform="translate(18,3)"/>
<path d="M0,0 L5,1 L4,7 L-2,8 L-2,2 Z " fill="#CECECE" transform="translate(16,11)"/>
<path d="M0,0 L1,0 L1,5 L6,3 L4,7 L-1,6 L-1,1 Z " fill="#EAEAEA" transform="translate(13,14)"/>
<path d="M0,0 L2,3 L0,5 L0,11 L-3,11 L-2,4 Z " fill="#1B1B1B" transform="translate(13,10)"/>
<path d="M0,0 L2,0 L0,5 L-3,6 L-2,1 Z " fill="#161616" transform="translate(17,13)"/>
</svg>
