<?xml version="1.0" encoding="UTF-8"?>
<svg version="1.1" xmlns="http://www.w3.org/2000/svg" width="28" height="28">
<path d="M0,0 L28,0 L28,28 L0,28 Z " fill="#020202" transform="translate(0,0)"/>
<path d="M0,0 L2,1 L0,6 L-2,10 L5,10 L7,12 L6,17 L1,20 L-4,19 L-6,16 L-6,10 L-1,1 Z " fill="#CCCCCC" transform="translate(14,2)"/>
<path d="M0,0 L6,0 L8,2 L7,7 L2,10 L-3,9 L-2,6 L5,5 L5,3 L-1,4 Z " fill="#EDEDED" transform="translate(13,12)"/>
<path d="M0,0 L4,1 L3,4 L-4,5 L-3,1 Z " fill="#292929" transform="translate(15,14)"/>
</svg>
