<?xml version="1.0" encoding="UTF-8"?>
<svg version="1.1" xmlns="http://www.w3.org/2000/svg" width="28" height="28">
<path d="M0,0 L28,0 L28,28 L0,28 Z " fill="#040404" transform="translate(0,0)"/>
<path d="M0,0 L4,0 L2,4 L-1,8 L8,8 L7,12 L3,17 L-3,20 L-9,20 L-10,19 L-10,12 L-1,2 Z " fill="#E1E1E1" transform="translate(16,3)"/>
<path d="M0,0 L7,0 L6,4 L2,9 L-1,10 L-1,6 L3,2 L-1,1 Z " fill="#ECECEC" transform="translate(17,11)"/>
<path d="M0,0 L3,0 L1,4 L-5,7 L-7,7 L-7,5 L-5,5 L-5,2 Z " fill="#111111" transform="translate(17,13)"/>
</svg>
