<?xml version="1.0" encoding="UTF-8"?>
<svg version="1.1" xmlns="http://www.w3.org/2000/svg" width="28" height="28">
<path d="M0,0 L28,0 L28,28 L0,28 Z " fill="#030303" transform="translate(0,0)"/>
<path d="M0,0 L3,0 L3,2 L1,2 L1,4 L-5,9 L-7,9 L-7,11 L-13,16 L-7,17 L-5,13 L-3,11 L1,12 L0,17 L-5,20 L-14,20 L-17,19 L-16,14 L-8,7 Z " fill="#CFCFCF" transform="translate(21,2)"/>
<path d="M0,0 L1,3 L-2,5 L-12,5 L-12,4 L-2,2 Z " fill="#ECECEC" transform="translate(20,16)"/>
<path d="M0,0 L8,1 L11,4 L2,4 L-1,3 Z " fill="#B0B0B0" transform="translate(5,18)"/>
</svg>
