<?xml version="1.0" encoding="UTF-8"?>
<svg version="1.1" xmlns="http://www.w3.org/2000/svg" width="28" height="28">
<path d="M0,0 L28,0 L28,28 L0,28 Z " fill="#010101" transform="translate(0,0)"/>
<path d="M0,0 L3,0 L2,5 L0,10 L5,11 L6,12 L6,19 L-1,20 L-4,17 L-5,11 Z " fill="#DEDEDE" transform="translate(14,3)"/>
<path d="M0,0 L2,0 L2,5 L-5,6 L-7,5 L-7,3 L-2,3 Z " fill="#E9E9E9" transform="translate(18,17)"/>
<path d="M0,0 L2,0 L3,4 L-1,6 L-3,5 L-3,2 Z " fill="#262626" transform="translate(15,15)"/>
</svg>
