<?xml version="1.0" encoding="UTF-8"?>
<svg version="1.1" xmlns="http://www.w3.org/2000/svg" width="28" height="28">
<path d="M0,0 L28,0 L28,28 L0,28 Z " fill="#030303" transform="translate(0,0)"/>
<path d="M0,0 L3,0 L1,4 L-3,10 L-3,13 L-1,11 L4,12 L3,19 L-2,20 L-6,17 L-6,10 L-3,3 Z " fill="#B2B2B2" transform="translate(16,3)"/>
<path d="M0,0 L3,0 L1,4 L-3,10 L-4,15 L-6,14 L-5,9 L-3,3 Z " fill="#F3F3F3" transform="translate(16,3)"/>
<path d="M0,0 L3,1 L2,8 L-2,7 L0,6 L1,2 L-1,1 Z " fill="#F5F5F5" transform="translate(17,14)"/>
<path d="M0,0 L3,0 L1,4 L-2,5 L-4,7 L-3,3 Z " fill="#D6D6D6" transform="translate(16,3)"/>
</svg>
