<?xml version="1.0" encoding="UTF-8"?>
<svg version="1.1" xmlns="http://www.w3.org/2000/svg" width="28" height="28">
<path d="M0,0 L28,0 L28,28 L0,28 Z " fill="#020202" transform="translate(0,0)"/>
<path d="M0,0 L2,0 L1,3 L-1,3 L-3,7 L-4,11 L-1,13 L-2,17 L-6,20 L-12,20 L-11,14 L-2,1 Z " fill="#D2D2D2" transform="translate(20,3)"/>
<path d="M0,0 L5,0 L6,4 L4,8 L-2,8 L-1,2 Z " fill="#DCDCDC" transform="translate(10,15)"/>
<path d="M0,0 L6,3 L5,7 L1,9 L0,7 L2,6 L2,2 L-2,1 Z " fill="#E8E8E8" transform="translate(13,13)"/>
<path d="M0,0 L4,1 L3,4 L-2,5 Z " fill="#1F1F1F" transform="translate(12,16)"/>
</svg>
