<?xml version="1.0" encoding="UTF-8"?>
<svg version="1.1" xmlns="http://www.w3.org/2000/svg" width="28" height="28">
<path d="M0,0 L28,0 L28,28 L0,28 Z " fill="#040404" transform="translate(0,0)"/>
<path d="M0,0 L2,1 L-7,10 L-7,14 L-2,10 L3,10 L5,12 L4,17 L-3,20 L-8,19 L-11,16 L-10,9 L-2,1 Z " fill="#CCCCCC" transform="translate(18,2)"/>
<path d="M0,0 L2,1 L-8,11 L-9,16 L-7,16 L-7,18 L2,17 L1,19 L-6,20 L-10,18 L-11,11 L-4,3 Z " fill="#EEEEEE" transform="translate(18,2)"/>
<path d="M0,0 L5,1 L3,5 L-5,6 L-5,3 Z " fill="#1A1A1A" transform="translate(17,14)"/>
<path d="M0,0 L2,1 L-5,8 L-6,5 Z " fill="#D3D3D3" transform="translate(18,2)"/>
</svg>
