<?xml version="1.0" encoding="UTF-8"?>
<svg version="1.1" xmlns="http://www.w3.org/2000/svg" width="28" height="28">
<path d="M0,0 L28,0 L28,28 L0,28 Z " fill="#020202" transform="translate(0,0)"/>
<path d="M0,0 L2,0 L3,14 L7,9 L13,10 L14,15 L12,18 L9,18 L9,20 L5,19 L0,15 Z " fill="#D4D4D4" transform="translate(9,2)"/>
<path d="M0,0 L4,0 L4,5 L3,6 L-2,6 L-1,1 Z " fill="#1A1A1A" transform="translate(17,13)"/>
<path d="M0,0 L1,0 L1,5 L6,5 L4,6 L4,8 L0,7 L-1,3 Z " fill="#F0F0F0" transform="translate(14,14)"/>
</svg>
