<?xml version="1.0" encoding="UTF-8"?>
<svg version="1.1" xmlns="http://www.w3.org/2000/svg" width="28" height="28">
<path d="M0,0 L28,0 L28,28 L0,28 Z " fill="#010101" transform="translate(0,0)"/>
<path d="M0,0 L2,0 L4,12 L6,14 L11,10 L17,11 L18,15 L15,17 L10,17 L11,20 L7,19 L7,17 L3,15 L1,13 L0,9 Z " fill="#D6D6D6" transform="translate(7,2)"/>
<path d="M0,0 L2,0 L4,12 L6,15 L3,15 L1,13 L0,9 Z " fill="#E6E6E6" transform="translate(7,2)"/>
<path d="M0,0 L5,1 L2,4 L-2,4 Z " fill="#151515" transform="translate(18,14)"/>
</svg>
