<?xml version="1.0" encoding="UTF-8"?>
<svg version="1.1" xmlns="http://www.w3.org/2000/svg" width="28" height="28">
<path d="M0,0 L28,0 L28,28 L0,28 Z " fill="#030303" transform="translate(0,0)"/>
<path d="M0,0 L2,0 L0,7 L0,16 L3,19 L-1,18 L-3,16 L-3,6 Z M6,10 L10,11 L11,12 L11,17 L8,13 L5,14 L3,18 L3,13 Z " fill="#CDCDCD" transform="translate(11,2)"/>
<path d="M0,0 L4,2 L4,7 L-5,8 L-3,6 L-1,1 Z " fill="#C3C3C3" transform="translate(17,14)"/>
<path d="M0,0 L4,1 L5,2 L5,7 L2,3 L-1,4 L-3,8 L-3,3 Z M-8,5 L-3,9 L-7,8 Z " fill="#EFEFEF" transform="translate(17,12)"/>
<path d="M0,0 L3,1 L2,6 L-1,6 L-1,1 Z " fill="#0C0C0C" transform="translate(17,14)"/>
</svg>
