<?xml version="1.0" encoding="UTF-8"?>
<svg version="1.1" xmlns="http://www.w3.org/2000/svg" width="28" height="28">
<path d="M0,0 L28,0 L28,28 L0,28 Z " fill="#040404" transform="translate(0,0)"/>
<path d="M0,0 L5,0 L0,5 L-1,9 L5,7 L12,8 L13,13 L6,20 L-1,19 L-5,16 L-5,6 L-3,2 Z " fill="#E3E3E3" transform="translate(12,4)"/>
<path d="M0,0 L5,0 L0,5 L-2,10 L1,10 L1,13 L-1,13 L0,17 L7,17 L6,20 L-1,19 L-5,16 L-5,6 L-3,2 Z " fill="#E3E3E3" transform="translate(12,4)"/>
<path d="M0,0 L5,0 L5,4 L3,6 L-4,7 L-5,3 Z " fill="#070707" transform="translate(16,14)"/>
<path d="M0,0 L1,4 L-5,9 L-9,7 L-4,5 L-3,1 Z " fill="#C8C8C8" transform="translate(24,13)"/>
</svg>
