<?xml version="1.0" encoding="UTF-8"?>
<svg version="1.1" xmlns="http://www.w3.org/2000/svg" width="28" height="28">
<path d="M0,0 L28,0 L28,28 L0,28 Z " fill="#010101" transform="translate(0,0)"/>
<path d="M0,0 L3,0 L1,16 L6,16 L3,14 L3,9 L7,7 L10,10 L10,16 L5,20 L-1,19 L-2,18 L-2,8 Z " fill="#E6E6E6" transform="translate(11,3)"/>
<path d="M0,0 L3,0 L1,16 L1,18 L6,18 L5,20 L-1,19 L-2,18 L-2,8 Z " fill="#F6F6F6" transform="translate(11,3)"/>
<path d="M0,0 L1,0 L2,6 L5,8 L4,9 L-1,9 L-2,4 Z " fill="#171717" transform="translate(13,11)"/>
<path d="M0,0 L3,0 L1,12 L-2,10 Z " fill="#D8D8D8" transform="translate(11,3)"/>
<path d="M0,0 L2,0 L2,4 L4,5 L0,8 L-5,7 L-5,6 L0,5 L-2,3 L0,2 Z " fill="#A4A4A4" transform="translate(17,14)"/>
</svg>
