<?xml version="1.0" encoding="UTF-8"?>
<svg version="1.1" xmlns="http://www.w3.org/2000/svg" width="28" height="28">
<path d="M0,0 L28,0 L28,28 L0,28 Z " fill="#020202" transform="translate(0,0)"/>
<path d="M0,0 L4,1 L0,3 L-4,9 L-5,14 L3,11 L8,12 L9,15 L6,19 L-2,20 L-7,19 L-7,8 L-3,2 Z " fill="#E2E2E2" transform="translate(15,2)"/>
<path d="M0,0 L4,1 L0,3 L-4,9 L-5,14 L-7,12 L-6,6 L-2,1 Z " fill="#CDCDCD" transform="translate(15,2)"/>
<path d="M0,0 L6,0 L2,4 L-3,4 L-4,1 Z " fill="#1F1F1F" transform="translate(16,16)"/>
<path d="M0,0 L5,1 L6,4 L3,8 L0,7 L3,4 L0,3 Z " fill="#C0C0C0" transform="translate(18,13)"/>
</svg>
