<?xml version="1.0" encoding="UTF-8"?>
<svg version="1.1" xmlns="http://www.w3.org/2000/svg" width="28" height="28">
<path d="M0,0 L28,0 L28,28 L0,28 Z " fill="#010101" transform="translate(0,0)"/>
<path d="M0,0 L3,0 L3,3 L0,6 L-2,16 L1,16 L2,14 L2,17 L7,17 L7,14 L4,13 L9,12 L10,18 L7,20 L0,20 L-4,17 L-4,5 L-2,2 L0,2 Z " fill="#E9E9E9" transform="translate(13,2)"/>
<path d="M0,0 L1,0 L1,5 L7,4 L9,6 L9,9 L4,9 L0,8 Z " fill="#707070" transform="translate(11,10)"/>
<path d="M0,0 L3,0 L3,3 L0,6 L-1,8 L-4,8 L-3,4 L-2,2 L0,2 Z " fill="#CCCCCC" transform="translate(13,2)"/>
</svg>
