<?xml version="1.0" encoding="UTF-8"?>
<svg version="1.1" xmlns="http://www.w3.org/2000/svg" width="28" height="28">
<path d="M0,0 L28,0 L28,28 L0,28 Z " fill="#040404" transform="translate(0,0)"/>
<path d="M0,0 L3,0 L1,6 L1,11 L3,11 L8,7 L12,8 L12,15 L8,20 L1,19 L-2,14 L-2,4 Z " fill="#D9D9D9" transform="translate(10,3)"/>
<path d="M0,0 L2,0 L2,6 L1,8 L-5,8 L-5,4 Z " fill="#121212" transform="translate(18,12)"/>
<path d="M0,0 L4,1 L4,7 L2,3 L-3,5 L-5,6 L-3,2 Z " fill="#E9E9E9" transform="translate(18,10)"/>
</svg>
