<?xml version="1.0" encoding="UTF-8"?>
<svg version="1.1" xmlns="http://www.w3.org/2000/svg" width="28" height="28">
<path d="M0,0 L28,0 L28,28 L0,28 Z " fill="#020202" transform="translate(0,0)"/>
<path d="M0,0 L2,0 L1,4 L-1,7 L-1,13 L4,9 L9,9 L10,10 L10,16 L6,20 L-1,19 L-4,15 L-4,6 L-1,1 Z " fill="#E9E9E9" transform="translate(12,2)"/>
<path d="M0,0 L4,1 L3,5 L1,7 L-4,6 L-3,2 Z " fill="#1F1F1F" transform="translate(17,13)"/>
<path d="M0,0 L2,0 L1,4 L-1,7 L-2,13 L-3,13 L-4,6 L-1,1 Z " fill="#CACACA" transform="translate(12,2)"/>
</svg>
