<?xml version="1.0" encoding="UTF-8"?>
<svg version="1.1" xmlns="http://www.w3.org/2000/svg" width="28" height="28">
<path d="M0,0 L28,0 L28,28 L0,28 Z " fill="#020202" transform="translate(0,0)"/>
<path d="M0,0 L2,0 L0,4 L-5,12 L-5,16 L-2,16 L0,11 L4,7 L9,7 L10,8 L9,15 L3,20 L-4,20 L-7,19 L-9,13 L-6,6 L-2,1 Z " fill="#E6E6E6" transform="translate(14,3)"/>
<path d="M0,0 L2,0 L0,4 L-4,10 L-8,11 L-6,6 L-2,1 Z " fill="#DFDFDF" transform="translate(14,3)"/>
<path d="M0,0 L4,1 L0,6 L-3,7 L-3,2 Z " fill="#0B0B0B" transform="translate(19,13)"/>
</svg>
