<?xml version="1.0" encoding="UTF-8"?>
<svg version="1.1" xmlns="http://www.w3.org/2000/svg" width="28" height="28">
<path d="M0,0 L28,0 L28,28 L0,28 Z " fill="#020202" transform="translate(0,0)"/>
<path d="M0,0 L3,0 L2,3 L-5,8 L-9,14 L-5,12 L0,12 L1,17 L-5,20 L-12,20 L-12,12 L-5,4 Z " fill="#DADADA" transform="translate(20,2)"/>
<path d="M0,0 L5,0 L6,5 L-1,8 L-1,6 L-4,6 L-3,1 Z " fill="#8C8C8C" transform="translate(15,14)"/>
<path d="M0,0 L3,0 L2,3 L-4,6 L-2,2 Z " fill="#E5E5E5" transform="translate(20,2)"/>
<path d="M0,0 L4,1 L4,5 L-1,6 L2,1 Z " fill="#D7D7D7" transform="translate(17,14)"/>
</svg>
