<?xml version="1.0" encoding="UTF-8"?>
<svg version="1.1" xmlns="http://www.w3.org/2000/svg" width="28" height="28">
<path d="M0,0 L28,0 L28,28 L0,28 Z " fill="#030303" transform="translate(0,0)"/>
<path d="M0,0 L3,0 L1,4 L-3,6 L-5,10 L-8,14 L-9,17 L-7,17 L-6,13 L-3,10 L3,9 L4,14 L-2,19 L-11,20 L-12,15 L-8,8 L-2,2 L0,2 Z " fill="#BBBBBB" transform="translate(18,2)"/>
<path d="M0,0 L3,0 L1,4 L-3,6 L-5,10 L-9,15 L-11,15 L-10,11 L-2,2 L0,2 Z " fill="#E6E6E6" transform="translate(18,2)"/>
<path d="M0,0 L4,1 L0,2 L-2,8 L-4,8 L-3,3 Z " fill="#282828" transform="translate(13,11)"/>
<path d="M0,0 L2,1 L-5,7 L-4,2 Z " fill="#EEEEEE" transform="translate(17,11)"/>
</svg>
