<?xml version="1.0" encoding="UTF-8"?>
<svg version="1.1" xmlns="http://www.w3.org/2000/svg" width="28" height="28">
<path d="M0,0 L28,0 L28,28 L0,28 Z " fill="#030303" transform="translate(0,0)"/>
<path d="M0,0 L2,0 L0,5 L-7,13 L-3,11 L1,12 L0,16 L-2,18 L-5,18 L-5,20 L-10,18 L-10,12 L-1,1 Z " fill="#EAEAEA" transform="translate(19,3)"/>
<path d="M0,0 L4,1 L3,5 L1,6 L-2,4 Z " fill="#BDBDBD" transform="translate(16,14)"/>
<path d="M0,0 L2,0 L0,5 L-3,7 L-3,3 Z " fill="#D4D4D4" transform="translate(19,3)"/>
</svg>
