<?xml version="1.0" encoding="UTF-8"?>
<svg version="1.1" xmlns="http://www.w3.org/2000/svg" width="28" height="28">
<path d="M0,0 L28,0 L28,28 L0,28 Z " fill="#030303" transform="translate(0,0)"/>
<path d="M0,0 L6,0 L5,3 L0,4 L-1,12 L4,8 L10,8 L13,10 L12,15 L8,19 L-2,20 L-5,16 L-5,7 L-2,1 Z " fill="#E9E9E9" transform="translate(12,3)"/>
<path d="M0,0 L6,0 L5,3 L0,4 L-1,7 L-4,7 L-2,1 Z " fill="#E9E9E9" transform="translate(12,3)"/>
<path d="M0,0 L3,0 L3,3 L-4,4 Z " fill="#2B2B2B" transform="translate(18,14)"/>
</svg>
