<?xml version="1.0" encoding="UTF-8"?>
<svg version="1.1" xmlns="http://www.w3.org/2000/svg" width="28" height="28">
<path d="M0,0 L28,0 L28,28 L0,28 Z " fill="#030303" transform="translate(0,0)"/>
<path d="M0,0 L4,0 L3,3 L-1,5 L-3,9 L-3,12 L2,9 L8,10 L9,11 L8,18 L5,20 L-5,20 L-6,18 L-6,8 L-3,2 Z " fill="#E3E3E3" transform="translate(14,3)"/>
<path d="M0,0 L6,0 L6,5 L1,6 L-2,5 L-1,1 Z " fill="#0C0C0C" transform="translate(14,15)"/>
<path d="M0,0 L1,0 L0,7 L-4,9 L-4,7 L-6,6 L-2,6 L-1,2 Z " fill="#BBBBBB" transform="translate(22,14)"/>
</svg>
