<?xml version="1.0" encoding="UTF-8"?>
<svg version="1.1" xmlns="http://www.w3.org/2000/svg" width="28" height="28">
<path d="M0,0 L28,0 L28,28 L0,28 Z " fill="#020202" transform="translate(0,0)"/>
<path d="M0,0 L4,1 L5,4 L1,3 L0,9 L3,7 L8,7 L10,9 L10,15 L7,19 L-1,20 L-4,17 L-3,7 Z " fill="#E2E2E2" transform="translate(12,3)"/>
<path d="M0,0 L4,0 L3,5 L1,7 L-4,7 L-2,2 Z " fill="#060606" transform="translate(16,13)"/>
<path d="M0,0 L5,0 L7,4 L1,3 Z " fill="#C4C4C4" transform="translate(15,10)"/>
</svg>
