<?xml version="1.0" encoding="UTF-8"?>
<svg version="1.1" xmlns="http://www.w3.org/2000/svg" width="28" height="28">
<path d="M0,0 L28,0 L28,28 L0,28 Z " fill="#030303" transform="translate(0,0)"/>
<path d="M0,0 L5,1 L0,5 L-3,12 L-2,16 L2,11 L6,9 L11,10 L12,11 L12,16 L10,18 L2,20 L-4,19 L-6,17 L-5,7 Z " fill="#D6D6D6" transform="translate(13,3)"/>
<path d="M0,0 L5,1 L0,5 L-3,12 L-2,16 L4,18 L2,20 L-4,19 L-6,17 L-5,7 Z " fill="#D9D9D9" transform="translate(13,3)"/>
<path d="M0,0 L4,0 L3,4 L2,5 L-5,5 L-3,1 Z " fill="#0F0F0F" transform="translate(19,15)"/>
</svg>
