<?xml version="1.0" encoding="UTF-8"?>
<svg version="1.1" xmlns="http://www.w3.org/2000/svg" width="28" height="28">
<path d="M0,0 L28,0 L28,28 L0,28 Z " fill="#030303" transform="translate(0,0)"/>
<path d="M0,0 L2,0 L1,4 L-3,9 L-3,13 L2,7 L8,7 L11,10 L11,16 L5,20 L-3,20 L-7,15 L-7,8 Z " fill="#E9E9E9" transform="translate(13,3)"/>
<path d="M0,0 L2,0 L1,4 L-4,9 L-5,9 L-6,15 L-7,15 L-7,8 Z " fill="#D3D3D3" transform="translate(13,3)"/>
<path d="M0,0 L3,0 L2,4 L-5,7 L-3,3 Z " fill="#1D1D1D" transform="translate(18,13)"/>
<path d="M0,0 L2,0 L1,4 L-5,7 L-3,3 Z " fill="#EDEDED" transform="translate(13,3)"/>
</svg>
