<?xml version="1.0" encoding="UTF-8"?>
<svg version="1.1" xmlns="http://www.w3.org/2000/svg" width="28" height="28">
<path d="M0,0 L28,0 L28,28 L0,28 Z " fill="#020202" transform="translate(0,0)"/>
<path d="M0,0 L3,0 L3,5 L0,6 L-3,11 L-5,11 L-7,16 L-5,16 L-3,12 L-1,11 L-1,16 L0,11 L2,12 L2,17 L-1,20 L-7,20 L-7,18 L-9,18 L-9,12 L-2,3 Z " fill="#F0F0F0" transform="translate(17,2)"/>
<path d="M0,0 L3,0 L3,5 L0,6 L-3,11 L-5,11 L-6,13 L-9,14 L-7,10 Z " fill="#D6D6D6" transform="translate(17,2)"/>
<path d="M0,0 L2,2 L-2,4 Z M-3,4 L1,5 L0,8 L-2,13 L-3,10 L-4,9 L-6,12 L-8,12 L-6,7 L-4,7 Z " fill="#555555" transform="translate(18,6)"/>
</svg>
