<?xml version="1.0" encoding="UTF-8"?>
<svg version="1.1" xmlns="http://www.w3.org/2000/svg" width="28" height="28">
<path d="M0,0 L28,0 L28,28 L0,28 Z " fill="#020202" transform="translate(0,0)"/>
<path d="M0,0 L2,0 L1,5 L-2,10 L7,10 L7,15 L4,18 L0,20 L-4,20 L-4,18 L-6,18 L-6,12 L-3,6 Z " fill="#D6D6D6" transform="translate(15,2)"/>
<path d="M0,0 L6,0 L6,5 L3,8 L-1,9 L1,5 L4,4 L5,2 L0,2 Z " fill="#E6E6E6" transform="translate(16,12)"/>
<path d="M0,0 L3,0 L2,3 L-5,5 L-4,1 Z " fill="#222222" transform="translate(18,14)"/>
</svg>
