<?xml version="1.0" encoding="UTF-8"?>
<svg version="1.1" xmlns="http://www.w3.org/2000/svg" width="28" height="28">
<path d="M0,0 L28,0 L28,28 L0,28 Z " fill="#010101" transform="translate(0,0)"/>
<path d="M0,0 L0,3 L-4,11 L-1,9 L3,9 L4,15 L-1,20 L-6,20 L-8,18 L-8,12 L-1,1 Z " fill="#9C9C9C" transform="translate(17,1)"/>
<path d="M0,0 L4,0 L5,6 L0,11 L-5,11 L-6,8 L0,8 L3,7 L4,3 L-4,5 L-3,2 Z " fill="#CFCFCF" transform="translate(16,10)"/>
<path d="M0,0 L5,0 L4,4 L-2,5 L-1,1 Z " fill="#0E0E0E" transform="translate(15,13)"/>
<path d="M0,0 L0,3 L-3,5 L-8,5 L-9,2 L-3,2 Z " fill="#E8E8E8" transform="translate(19,16)"/>
</svg>
