<?xml version="1.0" encoding="UTF-8"?>
<svg version="1.1" xmlns="http://www.w3.org/2000/svg" width="28" height="28">
<path d="M0,0 L28,0 L28,28 L0,28 Z " fill="#020202" transform="translate(0,0)"/>
<path d="M0,0 L3,0 L3,6 L0,6 L-1,15 L2,12 L6,12 L5,18 L2,20 L-3,19 L-4,18 L-4,11 L-2,4 L0,4 Z " fill="#C8C8C8" transform="translate(14,2)"/>
<path d="M0,0 L4,0 L3,6 L0,7 L-3,5 L-1,1 Z " fill="#DADADA" transform="translate(16,14)"/>
<path d="M0,0 L1,4 L5,5 L5,7 L0,6 L-1,2 Z " fill="#E0E0E0" transform="translate(11,15)"/>
<path d="M0,0 L2,1 L1,5 L-3,5 L-1,1 Z " fill="#949494" transform="translate(16,14)"/>
</svg>
