<?xml version="1.0" encoding="UTF-8"?>
<svg version="1.1" xmlns="http://www.w3.org/2000/svg" width="28" height="28">
<path d="M0,0 L28,0 L28,28 L0,28 Z " fill="#020202" transform="translate(0,0)"/>
<path d="M0,0 L2,0 L2,2 L0,2 L-2,7 L-6,14 L-6,17 L-1,18 L0,13 L6,11 L7,12 L7,17 L2,20 L-7,20 L-9,18 L-8,11 L-2,1 Z " fill="#E1E1E1" transform="translate(16,2)"/>
<path d="M0,0 L3,1 L3,6 L-2,9 L-5,9 L-5,3 Z " fill="#989898" transform="translate(20,13)"/>
<path d="M0,0 L2,0 L2,2 L0,2 L-2,7 L-5,5 Z " fill="#BDBDBD" transform="translate(16,2)"/>
</svg>
