<?xml version="1.0" encoding="UTF-8"?>
<svg version="1.1" xmlns="http://www.w3.org/2000/svg" width="28" height="28">
<path d="M0,0 L28,0 L28,28 L0,28 Z " fill="#010101" transform="translate(0,0)"/>
<path d="M0,0 L3,0 L3,2 L-1,6 L-5,13 L-1,10 L3,11 L4,14 L-1,19 L-7,20 L-8,19 L-8,13 Z " fill="#C6C6C6" transform="translate(17,2)"/>
<path d="M0,0 L4,1 L5,4 L0,9 L-6,10 L-6,7 L-1,7 L2,2 L-4,6 L-2,2 Z " fill="#D6D6D6" transform="translate(16,12)"/>
<path d="M0,0 L2,0 L1,4 L-1,6 L-4,5 Z " fill="#171717" transform="translate(16,14)"/>
</svg>
