<?xml version="1.0" encoding="UTF-8"?>
<svg version="1.1" xmlns="http://www.w3.org/2000/svg" width="28" height="28">
<path d="M0,0 L28,0 L28,28 L0,28 Z " fill="#030303" transform="translate(0,0)"/>
<path d="M0,0 L3,0 L3,2 L-2,5 L-6,10 L1,9 L3,11 L3,15 L-3,19 L-11,20 L-13,17 L-11,11 L-2,1 Z " fill="#D4D4D4" transform="translate(20,3)"/>
<path d="M0,0 L3,0 L3,2 L-2,5 L-7,10 L-9,18 L-11,18 L-12,12 L-2,1 Z " fill="#B9B9B9" transform="translate(20,3)"/>
<path d="M0,0 L4,1 L3,5 L0,7 L-5,7 L-3,3 Z " fill="#121212" transform="translate(17,13)"/>
</svg>
