<?xml version="1.0" encoding="UTF-8"?>
<svg version="1.1" xmlns="http://www.w3.org/2000/svg" width="28" height="28">
<path d="M0,0 L28,0 L28,28 L0,28 Z " fill="#020202" transform="translate(0,0)"/>
<path d="M0,0 L3,0 L3,2 L0,5 L-4,14 L-5,17 L0,12 L3,9 L8,9 L9,14 L4,18 L0,20 L-6,19 L-7,18 L-7,11 Z " fill="#E6E6E6" transform="translate(14,2)"/>
<path d="M0,0 L3,0 L3,2 L0,5 L-4,14 L-5,17 L-2,16 L-2,18 L-6,19 L-7,18 L-7,11 Z " fill="#CBCBCB" transform="translate(14,2)"/>
<path d="M0,0 L4,0 L2,4 L-4,6 L-1,1 Z " fill="#1C1C1C" transform="translate(17,13)"/>
<path d="M0,0 L5,0 L6,5 L2,8 L2,5 L4,2 Z " fill="#CDCDCD" transform="translate(17,11)"/>
</svg>
