<?xml version="1.0" encoding="UTF-8"?>
<svg version="1.1" xmlns="http://www.w3.org/2000/svg" width="28" height="28">
<path d="M0,0 L28,0 L28,28 L0,28 Z " fill="#020202" transform="translate(0,0)"/>
<path d="M0,0 L2,0 L0,6 L-1,8 L6,10 L7,11 L7,17 L2,20 L-3,20 L-6,17 L-5,8 Z " fill="#E4E4E4" transform="translate(15,3)"/>
<path d="M0,0 L7,0 L8,4 L7,5 L0,5 Z " fill="#0F0F0F" transform="translate(12,15)"/>
<path d="M0,0 L5,2 L5,8 L2,10 L-3,9 L-3,8 L2,7 L2,4 L-3,4 Z " fill="#CECECE" transform="translate(17,12)"/>
</svg>
