<?xml version="1.0" encoding="UTF-8"?>
<svg version="1.1" xmlns="http://www.w3.org/2000/svg" width="28" height="28">
<path d="M0,0 L28,0 L28,28 L0,28 Z " fill="#020202" transform="translate(0,0)"/>
<path d="M0,0 L2,1 L-1,8 L6,8 L8,9 L8,16 L3,20 L-4,20 L-6,18 L-6,11 L-3,4 Z " fill="#D4D4D4" transform="translate(14,2)"/>
<path d="M0,0 L5,0 L4,7 L-4,7 L-5,2 L0,1 Z " fill="#121212" transform="translate(15,12)"/>
<path d="M0,0 L1,0 L1,6 L-4,10 L-9,9 L-5,7 L-2,7 Z " fill="#F2F2F2" transform="translate(21,12)"/>
</svg>
