<?xml version="1.0" encoding="UTF-8"?>
<svg version="1.1" xmlns="http://www.w3.org/2000/svg" width="28" height="28">
<path d="M0,0 L28,0 L28,28 L0,28 Z " fill="#010101" transform="translate(0,0)"/>
<path d="M0,0 L1,3 L-2,10 L3,11 L4,12 L4,17 L0,20 L-6,19 L-6,15 L-8,14 L-2,2 Z " fill="#E6E6E6" transform="translate(16,2)"/>
<path d="M0,0 L1,2 L6,3 L7,4 L7,9 L3,12 L-1,12 L-1,10 L5,9 L3,4 L0,3 Z " fill="#DFDFDF" transform="translate(13,10)"/>
<path d="M0,0 L5,1 L5,5 L0,6 L-1,1 Z " fill="#121212" transform="translate(13,14)"/>
<path d="M0,0 L1,3 L-1,8 L-4,7 L-2,2 Z " fill="#BDBDBD" transform="translate(16,2)"/>
</svg>
