<?xml version="1.0" encoding="UTF-8"?>
<svg version="1.1" xmlns="http://www.w3.org/2000/svg" width="28" height="28">
<path d="M0,0 L28,0 L28,28 L0,28 Z " fill="#040404" transform="translate(0,0)"/>
<path d="M0,0 L2,0 L2,5 L-3,12 L-4,16 L-2,16 L0,11 L1,10 L8,10 L9,15 L6,18 L-3,20 L-7,17 L-7,11 L-5,11 L-3,5 Z " fill="#D1D1D1" transform="translate(14,2)"/>
<path d="M0,0 L7,0 L8,5 L5,8 L1,9 L1,7 L-1,7 L-2,3 Z M-3,4 Z " fill="#E6E6E6" transform="translate(15,12)"/>
<path d="M0,0 L1,2 L0,6 L4,4 L4,7 L6,7 L6,9 L1,10 L-2,7 L-2,2 Z " fill="#F8F8F8" transform="translate(10,12)"/>
<path d="M0,0 L4,1 L-1,5 L-3,5 L-1,1 Z " fill="#202020" transform="translate(17,14)"/>
</svg>
