<?xml version="1.0" encoding="UTF-8"?>
<svg version="1.1" xmlns="http://www.w3.org/2000/svg" width="28" height="28">
<path d="M0,0 L28,0 L28,28 L0,28 Z " fill="#040404" transform="translate(0,0)"/>
<path d="M0,0 L2,0 L1,4 L-4,11 L-5,16 L-1,14 L3,9 L8,8 L10,9 L10,15 L5,19 L-4,20 L-8,16 L-7,9 L-1,1 Z " fill="#DFDFDF" transform="translate(14,2)"/>
<path d="M0,0 L3,1 L3,7 L-2,11 L-9,12 L-7,8 L-7,10 L-1,8 L-1,4 L-5,6 L-3,2 Z " fill="#ECECEC" transform="translate(21,10)"/>
<path d="M0,0 L2,0 L1,4 L-5,13 L-7,12 L-6,7 Z M-8,12 Z " fill="#E8E8E8" transform="translate(14,2)"/>
<path d="M0,0 L1,3 L-2,6 L-5,7 L-4,3 Z " fill="#242424" transform="translate(20,13)"/>
</svg>
