<?xml version="1.0" encoding="UTF-8"?>
<svg version="1.1" xmlns="http://www.w3.org/2000/svg" width="28" height="28">
<path d="M0,0 L28,0 L28,28 L0,28 Z " fill="#030303" transform="translate(0,0)"/>
<path d="M0,0 L3,0 L2,5 L-1,12 L-1,17 L1,17 L4,12 L8,9 L13,9 L14,13 L10,18 L1,20 L-5,18 L-6,17 L-5,9 L-2,3 Z " fill="#E3E3E3" transform="translate(12,2)"/>
<path d="M0,0 L5,0 L6,4 L1,7 L-3,8 L-4,6 L-6,7 L-4,3 Z " fill="#DCDCDC" transform="translate(20,11)"/>
<path d="M0,0 L3,0 L1,4 L-3,5 L-1,1 Z " fill="#2D2D2D" transform="translate(20,14)"/>
</svg>
