<?xml version="1.0" encoding="UTF-8"?>
<svg version="1.1" xmlns="http://www.w3.org/2000/svg" width="28" height="28">
<path d="M0,0 L28,0 L28,28 L0,28 Z " fill="#020202" transform="translate(0,0)"/>
<path d="M0,0 L2,0 L1,5 L-4,11 L-4,15 L0,13 L4,10 L10,10 L12,12 L11,16 L6,19 L-1,20 L-7,17 L-8,10 Z " fill="#DEDEDE" transform="translate(14,2)"/>
<path d="M0,0 L2,0 L1,5 L-5,12 L-7,16 L-8,15 L-7,8 Z " fill="#E6E6E6" transform="translate(14,2)"/>
<path d="M0,0 L5,0 L4,4 L-3,5 L-1,1 Z " fill="#191919" transform="translate(18,14)"/>
</svg>
