<?xml version="1.0" encoding="UTF-8"?>
<svg version="1.1" xmlns="http://www.w3.org/2000/svg" width="28" height="28">
<path d="M0,0 L28,0 L28,28 L0,28 Z " fill="#040404" transform="translate(0,0)"/>
<path d="M0,0 L4,1 L-2,6 L-5,11 L-5,16 L-4,13 L-2,13 L-2,11 L5,10 L6,11 L6,16 L-2,20 L-8,19 L-9,18 L-9,13 L-4,4 Z " fill="#DEDEDE" transform="translate(16,2)"/>
<path d="M0,0 L5,1 L5,6 L1,8 L-5,6 L-5,3 L-3,3 L-3,1 Z " fill="#DBDBDB" transform="translate(17,12)"/>
<path d="M0,0 L2,0 L1,4 L-5,5 L-3,1 Z " fill="#1F1F1F" transform="translate(18,14)"/>
</svg>
