<?xml version="1.0" encoding="UTF-8"?>
<svg version="1.1" xmlns="http://www.w3.org/2000/svg" width="28" height="28">
<path d="M0,0 L28,0 L28,28 L0,28 Z " fill="#030303" transform="translate(0,0)"/>
<path d="M0,0 L3,1 L0,5 L-2,5 L-4,9 L-7,17 L1,11 L6,11 L7,15 L3,19 L-1,20 L-8,20 L-9,19 L-9,12 L-3,3 Z " fill="#D5D5D5" transform="translate(16,2)"/>
<path d="M0,0 L5,0 L6,4 L2,8 L-3,9 L-5,8 L-3,2 Z " fill="#D3D3D3" transform="translate(17,13)"/>
<path d="M0,0 L0,3 L-1,5 L1,6 L-5,6 L-5,3 Z " fill="#EDEDED" transform="translate(13,16)"/>
<path d="M0,0 L0,3 L-3,5 L-6,5 L-6,3 Z " fill="#232323" transform="translate(19,15)"/>
</svg>
