<?xml version="1.0" encoding="UTF-8"?>
<svg version="1.1" xmlns="http://www.w3.org/2000/svg" width="28" height="28">
<path d="M0,0 L28,0 L28,28 L0,28 Z " fill="#030303" transform="translate(0,0)"/>
<path d="M0,0 L2,1 L-7,13 L-8,17 L-6,18 L-5,13 L-2,10 L4,9 L5,15 L0,19 L-8,20 L-11,19 L-10,12 L-7,7 L-5,7 L-3,3 Z " fill="#DADADA" transform="translate(18,2)"/>
<path d="M0,0 L2,1 L-7,13 L-8,17 L-2,18 L-5,20 L-11,19 L-10,12 L-7,7 L-5,7 L-3,3 Z " fill="#DCDCDC" transform="translate(18,2)"/>
<path d="M0,0 L3,0 L2,4 L-1,6 L-4,6 L-3,2 Z " fill="#191919" transform="translate(18,13)"/>
<path d="M0,0 L2,3 L8,4 L5,6 L-1,5 Z " fill="#F8F8F8" transform="translate(8,16)"/>
<path d="M0,0 L2,3 L0,8 L-3,7 Z " fill="#343434" transform="translate(12,12)"/>
</svg>
