<?xml version="1.0" encoding="UTF-8"?>
<svg version="1.1" xmlns="http://www.w3.org/2000/svg" width="28" height="28">
<path d="M0,0 L28,0 L28,28 L0,28 Z " fill="#020202" transform="translate(0,0)"/>
<path d="M0,0 L2,0 L1,4 L-8,14 L-10,17 L-8,17 L-6,13 L-1,11 L4,12 L3,16 L-3,20 L-11,20 L-12,19 L-12,13 L-1,2 Z " fill="#D1D1D1" transform="translate(19,2)"/>
<path d="M0,0 L2,0 L1,4 L-8,14 L-9,19 L-12,19 L-12,13 L-1,2 Z " fill="#DADADA" transform="translate(19,2)"/>
<path d="M0,0 L5,1 L5,4 L-1,6 L-5,5 L0,2 Z " fill="#7D7D7D" transform="translate(18,13)"/>
<path d="M0,0 L4,1 L-3,4 L-6,3 L-4,1 Z " fill="#EBEBEB" transform="translate(17,14)"/>
</svg>
