<?xml version="1.0" encoding="UTF-8"?>
<svg version="1.1" xmlns="http://www.w3.org/2000/svg" width="28" height="28">
<path d="M0,0 L28,0 L28,28 L0,28 Z " fill="#030303" transform="translate(0,0)"/>
<path d="M0,0 L2,1 L-3,8 L3,8 L5,10 L5,13 L-3,17 L-9,17 L-10,12 L-6,6 Z " fill="#E7E7E7" transform="translate(17,4)"/>
<path d="M0,0 L2,1 L-3,8 L3,8 L3,9 L-4,9 L-6,9 L-8,10 L-6,6 Z " fill="#C9C9C9" transform="translate(17,4)"/>
<path d="M0,0 L9,0 L8,2 L3,4 L-2,4 Z " fill="#242424" transform="translate(11,15)"/>
</svg>
