<?xml version="1.0" encoding="UTF-8"?>
<svg version="1.1" xmlns="http://www.w3.org/2000/svg" width="28" height="28">
<path d="M0,0 L28,0 L28,28 L0,28 Z " fill="#020202" transform="translate(0,0)"/>
<path d="M0,0 L2,0 L0,5 L-5,12 L4,11 L5,15 L0,19 L-10,20 L-11,19 L-11,14 L-1,1 Z " fill="#EEEEEE" transform="translate(18,2)"/>
<path d="M0,0 L2,0 L0,5 L-5,12 L0,12 L2,15 L-2,17 L-7,17 L-4,15 L-9,13 L-7,9 Z " fill="#AEAEAE" transform="translate(18,2)"/>
<path d="M0,0 L2,0 L0,5 L-3,8 L-6,9 L-4,5 Z " fill="#D7D7D7" transform="translate(18,2)"/>
</svg>
