<?xml version="1.0" encoding="UTF-8"?>
<svg version="1.1" xmlns="http://www.w3.org/2000/svg" width="28" height="28">
<path d="M0,0 L28,0 L28,28 L0,28 Z " fill="#020202" transform="translate(0,0)"/>
<path d="M0,0 L2,1 L-2,9 L-2,11 L3,12 L5,14 L4,18 L1,20 L-4,20 L-7,17 L-6,9 L-1,1 Z " fill="#E4E4E4" transform="translate(16,2)"/>
<path d="M0,0 L3,1 L2,5 L-3,7 L-5,4 L-5,1 Z M-2,4 Z " fill="#DBDBDB" transform="translate(18,15)"/>
<path d="M0,0 L2,1 L-2,9 L-5,9 L-3,3 Z " fill="#CECECE" transform="translate(16,2)"/>
<path d="M0,0 L5,0 L5,3 L1,4 Z " fill="#1D1D1D" transform="translate(13,16)"/>
</svg>
