<?xml version="1.0" encoding="UTF-8"?>
<svg version="1.1" xmlns="http://www.w3.org/2000/svg" width="28" height="28">
<path d="M0,0 L28,0 L28,28 L0,28 Z " fill="#020202" transform="translate(0,0)"/>
<path d="M0,0 L2,0 L0,4 L-4,10 L3,11 L5,14 L4,18 L0,18 L2,14 L-4,14 L-7,17 L-8,10 L-2,1 Z " fill="#E2E2E2" transform="translate(17,2)"/>
<path d="M0,0 L3,3 L5,1 L11,1 L11,5 L10,8 L3,8 L0,7 Z " fill="#D0D0D0" transform="translate(8,14)"/>
<path d="M0,0 L6,0 L6,4 L-2,4 Z " fill="#0F0F0F" transform="translate(13,15)"/>
</svg>
