<?xml version="1.0" encoding="UTF-8"?>
<svg version="1.1" xmlns="http://www.w3.org/2000/svg" width="28" height="28">
<path d="M0,0 L28,0 L28,28 L0,28 Z " fill="#020202" transform="translate(0,0)"/>
<path d="M0,0 L0,3 L-5,12 L-2,10 L4,10 L6,11 L6,17 L2,20 L-5,20 L-8,17 L-8,10 L-1,1 Z " fill="#C6C6C6" transform="translate(16,2)"/>
<path d="M0,0 L0,3 L-5,12 L-3,18 L0,20 L-7,19 L-8,17 L-8,10 L-1,1 Z " fill="#CDCDCD" transform="translate(16,2)"/>
<path d="M0,0 L6,1 L6,4 L-1,5 Z " fill="#0C0C0C" transform="translate(14,15)"/>
<path d="M0,0 L2,3 L4,2 L5,6 L8,8 L1,7 Z " fill="#F2F2F2" transform="translate(8,14)"/>
</svg>
