<?xml version="1.0" encoding="UTF-8"?>
<svg version="1.1" xmlns="http://www.w3.org/2000/svg" width="28" height="28">
<path d="M0,0 L28,0 L28,28 L0,28 Z " fill="#010101" transform="translate(0,0)"/>
<path d="M0,0 L1,4 L-2,9 L3,10 L5,12 L4,17 L-1,20 L-6,19 L-7,18 L-7,11 L-2,2 Z " fill="#DCDCDC" transform="translate(16,3)"/>
<path d="M0,0 L1,4 L-2,9 L3,10 L4,14 L-6,13 L-5,7 L-1,1 Z " fill="#F0F0F0" transform="translate(16,3)"/>
<path d="M0,0 L1,4 L-2,9 L2,10 L-3,10 L-5,9 L-3,3 Z " fill="#D7D7D7" transform="translate(16,3)"/>
<path d="M0,0 L5,1 L4,5 L-1,6 L-1,1 Z " fill="#0E0E0E" transform="translate(13,15)"/>
</svg>
