<?xml version="1.0" encoding="UTF-8"?>
<svg version="1.1" xmlns="http://www.w3.org/2000/svg" width="28" height="28">
<path d="M0,0 L28,0 L28,28 L0,28 Z " fill="#020202" transform="translate(0,0)"/>
<path d="M0,0 L3,1 L-2,6 L-6,12 L-3,11 L3,10 L7,13 L6,18 L3,20 L-6,20 L-9,16 L-8,10 Z " fill="#E3E3E3" transform="translate(16,2)"/>
<path d="M0,0 L5,1 L6,4 L4,6 L-4,6 L-3,1 Z " fill="#0D0D0D" transform="translate(15,14)"/>
<path d="M0,0 L6,1 L8,3 L7,8 L4,10 L-2,9 L-2,8 L5,6 L5,3 L-1,3 L-2,1 Z " fill="#CBCBCB" transform="translate(15,12)"/>
</svg>
