<?xml version="1.0" encoding="UTF-8"?>
<svg version="1.1" xmlns="http://www.w3.org/2000/svg" width="28" height="28">
<path d="M0,0 L28,0 L28,28 L0,28 Z " fill="#030303" transform="translate(0,0)"/>
<path d="M0,0 L0,3 L-4,10 L3,11 L4,16 L-1,20 L-7,20 L-9,18 L-9,12 L-5,6 Z " fill="#D6D6D6" transform="translate(18,2)"/>
<path d="M0,0 L6,1 L6,5 L4,6 L-2,6 L-1,1 Z " fill="#121212" transform="translate(13,14)"/>
<path d="M0,0 L2,3 L0,5 L-1,9 L6,9 L5,11 L-1,11 L-3,9 L-3,3 Z " fill="#EFEFEF" transform="translate(12,11)"/>
</svg>
