<?xml version="1.0" encoding="UTF-8"?>
<svg version="1.1" xmlns="http://www.w3.org/2000/svg" width="28" height="28">
<path d="M0,0 L28,0 L28,28 L0,28 Z " fill="#030303" transform="translate(0,0)"/>
<path d="M0,0 L2,0 L1,4 L-4,9 L-7,16 L-1,12 L6,11 L7,15 L4,18 L-2,20 L-8,20 L-10,18 L-9,12 L-4,4 Z " fill="#E2E2E2" transform="translate(16,2)"/>
<path d="M0,0 L2,0 L1,4 L-4,9 L-6,8 L-4,4 Z " fill="#DDDDDD" transform="translate(16,2)"/>
<path d="M0,0 L0,3 L-8,5 L-8,3 Z " fill="#272727" transform="translate(19,15)"/>
</svg>
