<?xml version="1.0" encoding="UTF-8"?>
<svg version="1.1" xmlns="http://www.w3.org/2000/svg" width="28" height="28">
<path d="M0,0 L28,0 L28,28 L0,28 Z " fill="#020202" transform="translate(0,0)"/>
<path d="M0,0 L2,0 L1,4 L-6,8 L-8,14 L-8,17 L0,16 L0,13 L-6,13 L-3,10 L1,11 L3,15 L5,16 L-2,20 L-9,20 L-11,17 L-11,10 L-4,2 Z " fill="#DFDFDF" transform="translate(19,3)"/>
<path d="M0,0 Z M-2,1 L0,2 L-2,4 L0,6 L4,7 L4,10 L-1,12 L-5,11 L-4,3 Z " fill="#0C0C0C" transform="translate(15,9)"/>
<path d="M0,0 Z M-2,1 L0,2 L-2,4 L1,7 L-2,8 L-2,10 L-4,10 L-5,6 Z " fill="#292929" transform="translate(15,9)"/>
</svg>
