<?xml version="1.0" encoding="UTF-8"?>
<svg version="1.1" xmlns="http://www.w3.org/2000/svg" width="28" height="28">
<path d="M0,0 L28,0 L28,28 L0,28 Z " fill="#030303" transform="translate(0,0)"/>
<path d="M0,0 L3,0 L3,3 L-4,7 L-7,11 L3,11 L5,13 L4,17 L-2,20 L-10,20 L-12,18 L-12,14 L-15,13 L-11,11 L-9,7 L-2,1 Z " fill="#E8E8E8" transform="translate(19,3)"/>
<path d="M0,0 L4,1 L5,5 L0,8 L0,6 L-9,6 L-9,2 L-1,1 Z " fill="#C0C0C0" transform="translate(19,14)"/>
<path d="M0,0 L11,0 L11,2 L1,3 Z " fill="#131313" transform="translate(9,17)"/>
</svg>
