<?xml version="1.0" encoding="UTF-8"?>
<svg version="1.1" xmlns="http://www.w3.org/2000/svg" width="28" height="28">
<path d="M0,0 L28,0 L28,28 L0,28 Z " fill="#030303" transform="translate(0,0)"/>
<path d="M0,0 L4,1 L3,3 L1,3 L-1,10 L5,10 L6,14 L5,17 L1,20 L-5,20 L-8,17 L-7,11 L-3,5 Z " fill="#EEEEEE" transform="translate(16,2)"/>
<path d="M0,0 L4,1 L3,3 L1,3 L-1,10 L1,11 L0,12 L3,14 L-2,16 L-5,14 L-5,11 L-6,9 Z " fill="#EBEBEB" transform="translate(16,2)"/>
<path d="M0,0 L4,1 L3,2 L6,4 L1,6 L-2,4 Z " fill="#949494" transform="translate(13,12)"/>
</svg>
