<?xml version="1.0" encoding="UTF-8"?>
<svg version="1.1" xmlns="http://www.w3.org/2000/svg" width="28" height="28">
<path d="M0,0 L28,0 L28,28 L0,28 Z " fill="#020202" transform="translate(0,0)"/>
<path d="M0,0 L2,0 L1,5 L-1,9 L-3,9 L-4,14 L-5,17 L-3,17 L-2,13 L1,9 L7,9 L8,12 L3,17 L-1,20 L-7,20 L-8,19 L-7,12 Z " fill="#E2E2E2" transform="translate(15,2)"/>
<path d="M0,0 L6,0 L7,3 L5,5 L3,5 L-2,8 L-3,4 Z " fill="#9D9D9D" transform="translate(16,11)"/>
<path d="M0,0 L2,0 L2,2 L6,4 L6,5 L0,5 L-1,1 Z " fill="#C6C6C6" transform="translate(8,17)"/>
</svg>
