<?xml version="1.0" encoding="UTF-8"?>
<svg version="1.1" xmlns="http://www.w3.org/2000/svg" width="28" height="28">
<path d="M0,0 L28,0 L28,28 L0,28 Z " fill="#030303" transform="translate(0,0)"/>
<path d="M0,0 L4,1 L5,8 L3,8 L3,4 L-2,6 L-4,11 L-7,13 L-8,17 L-6,17 L-6,13 L-1,10 L3,11 L3,17 L-2,20 L-8,20 L-11,18 L-10,10 L-6,5 L-4,5 L-4,3 Z " fill="#E9E9E9" transform="translate(18,3)"/>
<path d="M0,0 L4,0 L4,3 L-1,6 L-3,10 L-2,2 Z " fill="#C6C6C6" transform="translate(10,11)"/>
<path d="M0,0 L4,2 L4,5 L0,5 L0,3 L-2,3 L-2,1 Z " fill="#969696" transform="translate(14,15)"/>
<path d="M0,0 Z M-2,1 L1,2 L-4,7 L-5,5 L-4,3 L-2,3 Z " fill="#EFEFEF" transform="translate(16,5)"/>
</svg>
