<?xml version="1.0" encoding="UTF-8"?>
<svg version="1.1" xmlns="http://www.w3.org/2000/svg" width="28" height="28">
<path d="M0,0 L28,0 L28,28 L0,28 Z " fill="#030303" transform="translate(0,0)"/>
<path d="M0,0 L3,0 L2,4 L-2,13 L2,11 L8,12 L8,17 L-1,20 L-8,18 L-7,14 L-2,4 Z " fill="#CCCCCC" transform="translate(15,2)"/>
<path d="M0,0 L3,0 L2,4 L-3,14 L-5,13 L-4,7 Z M-6,13 Z " fill="#EFEFEF" transform="translate(15,2)"/>
<path d="M0,0 L6,1 L6,6 L4,7 L-2,7 L2,5 L3,3 L-1,2 Z " fill="#EBEBEB" transform="translate(17,13)"/>
</svg>
