<?xml version="1.0" encoding="UTF-8"?>
<svg version="1.1" xmlns="http://www.w3.org/2000/svg" width="28" height="28">
<path d="M0,0 L28,0 L28,28 L0,28 Z " fill="#030303" transform="translate(0,0)"/>
<path d="M0,0 L3,0 L3,4 L1,4 L0,9 L0,12 L1,11 L6,11 L7,18 L3,20 L-4,20 L-5,19 L-5,12 Z " fill="#F3F3F3" transform="translate(14,2)"/>
<path d="M0,0 L5,0 L6,7 L1,9 L0,4 L-3,4 L-4,6 L-3,2 Z " fill="#C3C3C3" transform="translate(15,13)"/>
<path d="M0,0 L3,0 L3,4 L1,4 L0,9 L-2,5 Z " fill="#DDDDDD" transform="translate(14,2)"/>
</svg>
