<?xml version="1.0" encoding="UTF-8"?>
<svg version="1.1" xmlns="http://www.w3.org/2000/svg" width="28" height="28">
<path d="M0,0 L28,0 L28,28 L0,28 Z " fill="#030303" transform="translate(0,0)"/>
<path d="M0,0 L2,1 L0,5 L-1,13 L5,11 L7,12 L8,17 L4,20 L-1,20 L-4,17 L-4,9 L-1,1 Z " fill="#F0F0F0" transform="translate(14,2)"/>
<path d="M0,0 L2,3 L1,6 L-2,8 L-7,8 L-9,5 L-7,5 L-7,3 L0,2 Z " fill="#DADADA" transform="translate(20,14)"/>
<path d="M0,0 L5,1 L5,3 L-1,4 L-2,1 Z " fill="#1F1F1F" transform="translate(15,16)"/>
<path d="M0,0 L2,1 L0,5 L-1,11 L-3,8 L-2,2 Z " fill="#DADADA" transform="translate(14,2)"/>
</svg>
