<?xml version="1.0" encoding="UTF-8"?>
<svg version="1.1" xmlns="http://www.w3.org/2000/svg" width="28" height="28">
<path d="M0,0 L28,0 L28,28 L0,28 Z " fill="#030303" transform="translate(0,0)"/>
<path d="M0,0 L4,1 L2,5 L-7,9 L-14,10 L-13,5 L-12,7 L-3,5 L-6,5 L-5,2 Z " fill="#D1D1D1" transform="translate(20,12)"/>
<path d="M0,0 L0,3 L-12,15 L-12,12 L-9,8 L-7,8 L-7,6 Z " fill="#DEDEDE" transform="translate(21,2)"/>
<path d="M0,0 L1,3 L6,2 L4,4 L-2,6 L-6,5 Z " fill="#1A1A1A" transform="translate(13,14)"/>
</svg>
