<?xml version="1.0" encoding="UTF-8"?>
<svg version="1.1" xmlns="http://www.w3.org/2000/svg" width="28" height="28">
<path d="M0,0 L28,0 L28,28 L0,28 Z " fill="#020202" transform="translate(0,0)"/>
<path d="M0,0 L2,0 L0,4 L-5,10 L-8,13 L-9,18 L0,15 L-2,14 L-2,16 L-5,16 L-3,12 L4,11 L3,16 L-2,19 L-12,20 L-11,12 L-6,6 L-1,1 Z " fill="#CCCCCC" transform="translate(19,2)"/>
<path d="M0,0 L4,0 L3,5 L-2,8 L-5,7 L-1,5 L0,4 L-2,3 L-2,5 L-5,5 L-3,1 Z " fill="#B2B2B2" transform="translate(19,13)"/>
</svg>
