<?xml version="1.0" encoding="UTF-8"?>
<svg version="1.1" xmlns="http://www.w3.org/2000/svg" width="28" height="28">
<path d="M0,0 L28,0 L28,28 L0,28 Z " fill="#020202" transform="translate(0,0)"/>
<path d="M0,0 L3,0 L2,4 L-2,6 L-8,15 L-9,18 L-5,18 L-5,12 L-2,8 L3,9 L2,14 L-4,19 L-11,20 L-11,13 L-4,4 Z " fill="#D8D8D8" transform="translate(18,3)"/>
<path d="M0,0 L5,1 L4,6 L0,10 L-3,9 L-2,2 Z " fill="#B7B7B7" transform="translate(16,11)"/>
<path d="M0,0 L3,1 L0,3 L1,5 L-3,7 L-5,15 L-9,15 L-8,10 L-1,1 Z " fill="#212121" transform="translate(18,6)"/>
<path d="M0,0 L1,4 L6,3 L6,5 L-1,6 L-1,1 Z " fill="#F4F4F4" transform="translate(8,17)"/>
</svg>
