<?xml version="1.0" encoding="UTF-8"?>
<svg version="1.1" xmlns="http://www.w3.org/2000/svg" width="28" height="28">
<path d="M0,0 L28,0 L28,28 L0,28 Z " fill="#020202" transform="translate(0,0)"/>
<path d="M0,0 L2,1 L-2,8 L-3,16 L-1,16 L1,12 L4,10 L9,10 L10,13 L8,18 L5,20 L-3,20 L-6,15 L-5,7 Z " fill="#D3D3D3" transform="translate(14,2)"/>
<path d="M0,0 L3,0 L2,4 L-1,6 L-5,6 L-3,2 Z " fill="#2B2B2B" transform="translate(19,14)"/>
<path d="M0,0 L5,0 L6,3 L5,6 L3,5 L4,2 L-1,3 Z " fill="#EDEDED" transform="translate(18,12)"/>
</svg>
