<?xml version="1.0" encoding="UTF-8"?>
<svg version="1.1" xmlns="http://www.w3.org/2000/svg" width="28" height="28">
<path d="M0,0 L28,0 L28,28 L0,28 Z " fill="#020202" transform="translate(0,0)"/>
<path d="M0,0 L1,3 L-5,15 L-5,18 L-3,19 L-3,13 L2,8 L7,8 L8,10 L6,15 L2,17 L1,20 L-7,20 L-8,14 L-1,1 Z " fill="#CFCFCF" transform="translate(16,2)"/>
<path d="M0,0 L1,3 L-5,15 L-5,19 L-8,18 L-7,12 L-1,1 Z " fill="#DADADA" transform="translate(16,2)"/>
<path d="M0,0 L4,0 L2,5 L0,7 L-3,7 L-2,2 Z " fill="#060606" transform="translate(18,12)"/>
<path d="M0,0 L3,1 L2,7 L-1,6 Z " fill="#353535" transform="translate(11,14)"/>
</svg>
