<?xml version="1.0" encoding="UTF-8"?>
<svg version="1.1" xmlns="http://www.w3.org/2000/svg" width="28" height="28">
<path d="M0,0 L28,0 L28,28 L0,28 Z " fill="#010101" transform="translate(0,0)"/>
<path d="M0,0 L4,1 L4,4 L0,5 L-1,9 L4,10 L5,13 L1,20 L-4,20 L-7,17 L-7,9 L-3,3 Z " fill="#D9D9D9" transform="translate(16,4)"/>
<path d="M0,0 L4,1 L4,4 L0,5 L-3,11 L-3,14 L-5,14 L-6,16 L-6,8 L-3,3 Z " fill="#EAEAEA" transform="translate(16,4)"/>
<path d="M0,0 L2,1 L0,5 L-4,5 Z " fill="#1B1B1B" transform="translate(16,15)"/>
</svg>
