<?xml version="1.0" encoding="UTF-8"?>
<svg version="1.1" xmlns="http://www.w3.org/2000/svg" width="28" height="28">
<path d="M0,0 L28,0 L28,28 L0,28 Z " fill="#030303" transform="translate(0,0)"/>
<path d="M0,0 L2,0 L1,9 L0,11 L4,12 L5,13 L5,18 L3,20 L-2,20 L-4,18 L-3,11 L-5,10 L-2,10 L0,1 Z " fill="#D1D1D1" transform="translate(14,3)"/>
<path d="M0,0 L2,0 L1,9 L0,11 L2,12 L-1,13 L-3,15 L-3,11 L-5,10 L-2,10 L0,1 Z " fill="#EAEAEA" transform="translate(14,3)"/>
<path d="M0,0 L5,2 L4,6 L-1,6 L-1,1 Z " fill="#161616" transform="translate(13,15)"/>
</svg>
