<?xml version="1.0" encoding="UTF-8"?>
<svg version="1.1" xmlns="http://www.w3.org/2000/svg" width="28" height="28">
<path d="M0,0 L28,0 L28,28 L0,28 Z " fill="#020202" transform="translate(0,0)"/>
<path d="M0,0 L2,0 L1,7 L1,10 L4,7 L8,8 L8,14 L4,18 L-3,20 L-5,18 L-4,9 L-1,1 Z " fill="#CFCFCF" transform="translate(13,3)"/>
<path d="M0,0 L4,1 L4,7 L0,11 L-3,12 L-4,8 Z " fill="#B4B4B4" transform="translate(17,10)"/>
<path d="M0,0 L1,3 L-1,6 L0,8 L-3,11 L-6,10 L-6,4 L-3,4 Z " fill="#F7F7F7" transform="translate(15,12)"/>
</svg>
