<?xml version="1.0" encoding="UTF-8"?>
<svg version="1.1" xmlns="http://www.w3.org/2000/svg" width="28" height="28">
<path d="M0,0 L28,0 L28,28 L0,28 Z " fill="#020202" transform="translate(0,0)"/>
<path d="M0,0 L3,1 L-3,9 L-4,11 L3,10 L4,13 L0,18 L-4,20 L-8,19 L-8,12 L-3,3 Z " fill="#DADADA" transform="translate(17,3)"/>
<path d="M0,0 L3,1 L-3,9 L-3,12 L-7,11 L-5,7 L-1,1 Z " fill="#CFCFCF" transform="translate(17,3)"/>
<path d="M0,0 L4,0 L2,4 L-1,6 L-4,6 L-4,2 Z " fill="#292929" transform="translate(15,15)"/>
</svg>
