<?xml version="1.0" encoding="UTF-8"?>
<svg version="1.1" xmlns="http://www.w3.org/2000/svg" width="28" height="28">
<path d="M0,0 L28,0 L28,28 L0,28 Z " fill="#020202" transform="translate(0,0)"/>
<path d="M0,0 L1,2 L-3,12 L2,7 L6,8 L6,13 L1,17 L-3,18 L-3,20 L-5,20 L-7,17 L-6,8 L-2,1 Z " fill="#F0F0F0" transform="translate(16,3)"/>
<path d="M0,0 L4,1 L4,6 L-1,10 L-3,6 L-1,3 L-3,2 Z " fill="#E1E1E1" transform="translate(18,10)"/>
<path d="M0,0 L1,2 L-3,11 L-5,12 L-6,17 L-7,17 L-6,8 L-2,1 Z " fill="#D0D0D0" transform="translate(16,3)"/>
<path d="M0,0 L3,1 L0,6 L-3,6 L-1,3 L-3,2 Z " fill="#8D8D8D" transform="translate(18,10)"/>
</svg>
