<?xml version="1.0" encoding="UTF-8"?>
<svg version="1.1" xmlns="http://www.w3.org/2000/svg" width="28" height="28">
<path d="M0,0 L28,0 L28,28 L0,28 Z " fill="#030303" transform="translate(0,0)"/>
<path d="M0,0 L3,0 L3,2 L1,2 L-1,6 L-4,11 L-4,17 L2,17 L6,13 L1,14 L1,16 L-1,16 L0,12 L3,10 L8,11 L7,18 L3,20 L-4,20 L-7,18 L-8,9 L-5,5 L-3,5 L-2,2 L0,2 Z " fill="#EAEAEA" transform="translate(15,2)"/>
<path d="M0,0 L3,0 L3,2 L1,2 L-1,6 L-5,11 L-8,11 L-6,6 L-3,5 L-2,2 L0,2 Z " fill="#D0D0D0" transform="translate(15,2)"/>
<path d="M0,0 L1,3 L3,3 L3,1 L8,0 L6,4 L1,5 L-2,3 L0,3 Z " fill="#333333" transform="translate(13,15)"/>
</svg>
