<?xml version="1.0" encoding="UTF-8"?>
<svg version="1.1" xmlns="http://www.w3.org/2000/svg" width="28" height="28">
<path d="M0,0 L28,0 L28,28 L0,28 Z " fill="#020202" transform="translate(0,0)"/>
<path d="M0,0 L2,0 L0,4 L-7,11 L-5,11 L0,10 L2,14 L-2,19 L-9,20 L-12,17 L-12,12 L-5,4 L-3,4 L-3,2 Z " fill="#E3E3E3" transform="translate(20,3)"/>
<path d="M0,0 L2,0 L0,4 L-6,9 L-9,10 L-7,6 L-3,4 L-3,2 Z M-10,10 Z " fill="#E3E3E3" transform="translate(20,3)"/>
<path d="M0,0 L6,0 L4,4 L0,3 Z " fill="#1B1B1B" transform="translate(13,17)"/>
<path d="M0,0 L4,2 L3,5 L-3,4 L0,1 Z " fill="#BCBCBC" transform="translate(18,13)"/>
</svg>
