<?xml version="1.0" encoding="UTF-8"?>
<svg version="1.1" xmlns="http://www.w3.org/2000/svg" width="28" height="28">
<path d="M0,0 L28,0 L28,28 L0,28 Z " fill="#020202" transform="translate(0,0)"/>
<path d="M0,0 L2,0 L0,4 L-3,10 L-3,13 L-2,12 L5,12 L7,13 L6,17 L1,20 L-5,20 L-7,17 L-6,8 Z " fill="#E7E7E7" transform="translate(16,2)"/>
<path d="M0,0 L2,0 L0,4 L-4,14 L-7,15 L-6,8 Z " fill="#DCDCDC" transform="translate(16,2)"/>
<path d="M0,0 L4,0 L3,3 L-2,4 L-2,1 Z " fill="#333333" transform="translate(16,16)"/>
</svg>
