<?xml version="1.0" encoding="UTF-8"?>
<svg version="1.1" xmlns="http://www.w3.org/2000/svg" width="28" height="28">
<path d="M0,0 L28,0 L28,28 L0,28 Z " fill="#020202" transform="translate(0,0)"/>
<path d="M0,0 L5,1 L5,3 L-1,5 L-1,8 L4,9 L6,12 L5,19 L-1,20 L-4,17 L-5,14 L-5,5 Z " fill="#EFEFEF" transform="translate(15,4)"/>
<path d="M0,0 L5,1 L7,4 L6,11 L0,12 L-2,11 L-2,8 L4,10 L3,4 L0,2 Z " fill="#E0E0E0" transform="translate(14,12)"/>
<path d="M0,0 L4,1 L4,7 L0,6 L-1,1 Z " fill="#242424" transform="translate(14,15)"/>
<path d="M0,0 L5,1 L5,3 L-1,5 L-5,7 L-3,2 Z " fill="#CECECE" transform="translate(15,4)"/>
</svg>
