<?xml version="1.0" encoding="UTF-8"?>
<svg version="1.1" xmlns="http://www.w3.org/2000/svg" width="28" height="28">
<path d="M0,0 L28,0 L28,28 L0,28 Z " fill="#020202" transform="translate(0,0)"/>
<path d="M0,0 L3,0 L2,3 L-3,8 L-4,11 L2,12 L3,16 L-1,20 L-6,20 L-7,18 L-7,11 L-3,3 Z " fill="#DFDFDF" transform="translate(17,3)"/>
<path d="M0,0 L3,0 L2,3 L-3,8 L-4,11 L-1,12 L-5,12 L-6,8 Z " fill="#D1D1D1" transform="translate(17,3)"/>
<path d="M0,0 L5,1 L4,4 L0,3 Z " fill="#0B0B0B" transform="translate(12,17)"/>
</svg>
