<?xml version="1.0" encoding="UTF-8"?>
<svg version="1.1" xmlns="http://www.w3.org/2000/svg" width="28" height="28">
<path d="M0,0 L28,0 L28,28 L0,28 Z " fill="#040404" transform="translate(0,0)"/>
<path d="M0,0 L2,0 L2,3 L-3,4 L-5,8 L-5,14 L-3,15 L-3,12 L5,10 L10,12 L9,16 L2,18 L2,20 L-3,19 L-3,17 L-7,16 L-8,14 L-8,6 L-4,1 Z " fill="#EAEAEA" transform="translate(15,3)"/>
<path d="M0,0 L7,2 L6,6 L-5,6 L-6,2 Z " fill="#D5D5D5" transform="translate(18,13)"/>
<path d="M0,0 L2,0 L2,3 L-3,4 L-6,8 L-8,8 L-6,3 L-4,1 Z " fill="#D1D1D1" transform="translate(15,3)"/>
<path d="M0,0 L5,1 L2,4 L-4,3 L-3,1 Z " fill="#1C1C1C" transform="translate(18,15)"/>
</svg>
