<?xml version="1.0" encoding="UTF-8"?>
<svg version="1.1" xmlns="http://www.w3.org/2000/svg" width="28" height="28">
<path d="M0,0 L28,0 L28,28 L0,28 Z " fill="#030303" transform="translate(0,0)"/>
<path d="M0,0 L3,1 L-3,8 L-5,12 L0,9 L4,9 L4,15 L1,18 L-4,20 L-9,20 L-10,19 L-10,13 L-4,4 L-2,4 Z " fill="#EBEBEB" transform="translate(18,2)"/>
<path d="M0,0 L4,0 L4,6 L1,9 L-5,8 L-2,4 L-2,1 Z " fill="#E6E6E6" transform="translate(18,11)"/>
<path d="M0,0 L3,0 L1,4 L-4,5 Z " fill="#3A3A3A" transform="translate(17,14)"/>
</svg>
