<?xml version="1.0" encoding="UTF-8"?>
<svg version="1.1" xmlns="http://www.w3.org/2000/svg" width="28" height="28">
<path d="M0,0 L28,0 L28,28 L0,28 Z " fill="#020202" transform="translate(0,0)"/>
<path d="M0,0 L7,1 L7,3 L0,4 L0,10 L6,9 L11,13 L12,17 L9,20 L3,20 L-2,16 L-3,13 L-3,4 Z " fill="#E2E2E2" transform="translate(12,3)"/>
<path d="M0,0 L7,1 L7,3 L0,4 L0,14 L-3,13 L-3,4 Z " fill="#F5F5F5" transform="translate(12,3)"/>
<path d="M0,0 L5,1 L6,2 L6,7 L1,6 L-2,4 L-2,1 Z " fill="#121212" transform="translate(15,14)"/>
<path d="M0,0 L7,1 L7,3 L0,3 Z " fill="#CBCBCB" transform="translate(12,3)"/>
<path d="M0,0 L2,4 L-1,7 L-4,5 L-1,5 Z " fill="#B7B7B7" transform="translate(22,16)"/>
</svg>
