<?xml version="1.0" encoding="UTF-8"?>
<svg version="1.1" xmlns="http://www.w3.org/2000/svg" width="28" height="28">
<path d="M0,0 L28,0 L28,28 L0,28 Z " fill="#020202" transform="translate(0,0)"/>
<path d="M0,0 L3,0 L2,5 L-3,10 L-3,14 L-1,16 L2,16 L3,12 L7,9 L12,10 L12,17 L7,20 L-2,20 L-5,18 L-5,16 L-7,16 L-7,8 Z " fill="#EAEAEA" transform="translate(13,2)"/>
<path d="M0,0 L5,1 L5,8 L0,10 L-2,9 L-2,4 L-2,1 Z " fill="#E3E3E3" transform="translate(20,11)"/>
<path d="M0,0 L3,0 L2,5 L-4,10 L-7,10 L-5,5 Z " fill="#D4D4D4" transform="translate(13,2)"/>
<path d="M0,0 L3,0 L2,4 L-2,4 L-2,1 Z " fill="#212121" transform="translate(20,14)"/>
</svg>
