<?xml version="1.0" encoding="UTF-8"?>
<svg version="1.1" xmlns="http://www.w3.org/2000/svg" width="28" height="28">
<path d="M0,0 L28,0 L28,28 L0,28 Z " fill="#040404" transform="translate(0,0)"/>
<path d="M0,0 L2,0 L1,4 L-1,6 L-1,14 L2,17 L3,10 L4,9 L11,10 L12,17 L10,20 L1,20 L-4,15 L-4,5 Z " fill="#DFDFDF" transform="translate(11,2)"/>
<path d="M0,0 L2,0 L1,4 L-1,6 L-1,14 L2,17 L2,12 L4,12 L5,18 L7,20 L1,20 L-4,15 L-4,5 Z " fill="#ECECEC" transform="translate(11,2)"/>
<path d="M0,0 L4,2 L3,6 L-2,7 L-1,1 Z " fill="#121212" transform="translate(17,13)"/>
</svg>
