<?xml version="1.0" encoding="UTF-8"?>
<svg version="1.1" xmlns="http://www.w3.org/2000/svg" width="28" height="28">
<path d="M0,0 L28,0 L28,28 L0,28 Z " fill="#020202" transform="translate(0,0)"/>
<path d="M0,0 L2,0 L0,5 L-1,10 L2,13 L1,18 L-5,20 L-6,19 L-6,12 Z " fill="#CDCDCD" transform="translate(17,3)"/>
<path d="M0,0 L3,2 L2,7 L-1,8 L-3,7 L-3,2 Z " fill="#7B7B7B" transform="translate(16,14)"/>
<path d="M0,0 L3,1 L1,2 L0,7 L2,8 L-2,8 L-2,2 Z " fill="#F1F1F1" transform="translate(13,14)"/>
</svg>
