<?xml version="1.0" encoding="UTF-8"?>
<svg version="1.1" xmlns="http://www.w3.org/2000/svg" width="28" height="28">
<path d="M0,0 L28,0 L28,28 L0,28 Z " fill="#010101" transform="translate(0,0)"/>
<path d="M0,0 L2,0 L0,4 L-3,10 L2,11 L1,17 L-1,20 L-6,19 L-7,18 L-6,9 Z " fill="#DDDDDD" transform="translate(17,3)"/>
<path d="M0,0 L6,2 L5,8 L3,11 L1,11 L1,9 L-1,9 L0,4 L2,3 L0,2 Z " fill="#CECECE" transform="translate(13,12)"/>
<path d="M0,0 L2,0 L0,5 L-3,5 L-2,1 Z " fill="#1E1E1E" transform="translate(15,15)"/>
</svg>
