<?xml version="1.0" encoding="UTF-8"?>
<svg version="1.1" xmlns="http://www.w3.org/2000/svg" width="28" height="28">
<path d="M0,0 L28,0 L28,28 L0,28 Z " fill="#020202" transform="translate(0,0)"/>
<path d="M0,0 L3,1 L-2,7 L-3,10 L3,10 L5,14 L4,19 L0,20 L-4,15 L-5,11 L-3,3 Z " fill="#D5D5D5" transform="translate(15,3)"/>
<path d="M0,0 L3,1 L-2,7 L-3,11 L-1,11 L-1,13 L-3,13 L-4,15 L-5,11 L-3,3 Z " fill="#E0E0E0" transform="translate(15,3)"/>
<path d="M0,0 L5,0 L4,5 L0,3 Z " fill="#0A0A0A" transform="translate(13,16)"/>
</svg>
