<?xml version="1.0" encoding="UTF-8"?>
<svg version="1.1" xmlns="http://www.w3.org/2000/svg" width="28" height="28">
<path d="M0,0 L28,0 L28,28 L0,28 Z " fill="#020202" transform="translate(0,0)"/>
<path d="M0,0 L2,0 L0,6 L-5,14 L-1,11 L4,12 L3,16 L-1,20 L-7,20 L-8,19 L-7,11 Z " fill="#DFDFDF" transform="translate(17,2)"/>
<path d="M0,0 L5,1 L4,5 L0,9 L-2,8 L-1,3 Z " fill="#949494" transform="translate(16,13)"/>
<path d="M0,0 L0,3 L-1,8 L-4,7 L-2,2 Z " fill="#F0F0F0" transform="translate(15,14)"/>
<path d="M0,0 L2,0 L0,6 L-3,6 L-1,1 Z " fill="#C7C7C7" transform="translate(17,2)"/>
</svg>
