<?xml version="1.0" encoding="UTF-8"?>
<svg version="1.1" xmlns="http://www.w3.org/2000/svg" width="28" height="28">
<path d="M0,0 L28,0 L28,28 L0,28 Z " fill="#010101" transform="translate(0,0)"/>
<path d="M0,0 L2,0 L1,6 L-3,12 L3,12 L3,16 L0,19 L-6,20 L-8,18 L-7,13 L-2,5 Z " fill="#EBEBEB" transform="translate(17,2)"/>
<path d="M0,0 L2,0 L1,6 L-3,13 L-5,14 L-6,11 L-2,5 Z " fill="#D0D0D0" transform="translate(17,2)"/>
<path d="M0,0 L5,0 L3,4 L0,6 L-4,4 Z " fill="#7A7A7A" transform="translate(16,15)"/>
</svg>
