<?xml version="1.0" encoding="UTF-8"?>
<svg version="1.1" xmlns="http://www.w3.org/2000/svg" width="28" height="28">
<path d="M0,0 L28,0 L28,28 L0,28 Z " fill="#020202" transform="translate(0,0)"/>
<path d="M0,0 L1,3 L-4,13 L2,9 L4,9 L3,15 L-1,19 L-7,20 L-8,15 L-3,6 L-3,3 L-1,3 Z " fill="#B0B0B0" transform="translate(17,3)"/>
<path d="M0,0 L1,3 L-3,11 L-4,14 L-4,17 L-2,19 L-7,20 L-8,15 L-3,6 L-3,3 L-1,3 Z " fill="#DCDCDC" transform="translate(17,3)"/>
<path d="M0,0 L2,1 L-3,7 L-6,6 Z " fill="#1F1F1F" transform="translate(18,14)"/>
</svg>
