<?xml version="1.0" encoding="UTF-8"?>
<svg version="1.1" xmlns="http://www.w3.org/2000/svg" width="28" height="28">
<path d="M0,0 L28,0 L28,28 L0,28 Z " fill="#020202" transform="translate(0,0)"/>
<path d="M0,0 L2,0 L1,5 L-6,14 L-6,17 L0,11 L5,11 L6,16 L3,20 L-10,20 L-11,17 L-7,9 Z " fill="#CFCFCF" transform="translate(17,2)"/>
<path d="M0,0 L2,0 L1,5 L-6,14 L-7,18 L-4,18 L-4,20 L-10,20 L-11,17 L-7,9 Z " fill="#D9D9D9" transform="translate(17,2)"/>
<path d="M0,0 L4,1 L3,6 L1,9 L-3,8 L1,5 L2,2 L-1,1 Z " fill="#EAEAEA" transform="translate(19,13)"/>
<path d="M0,0 L2,0 L1,4 L-2,6 L-5,5 Z " fill="#1E1E1E" transform="translate(19,15)"/>
</svg>
