<?xml version="1.0" encoding="UTF-8"?>
<svg version="1.1" xmlns="http://www.w3.org/2000/svg" width="28" height="28">
<path d="M0,0 L28,0 L28,28 L0,28 Z " fill="#030303" transform="translate(0,0)"/>
<path d="M0,0 L2,1 L-5,12 L-5,17 L-1,18 L1,13 L4,10 L9,10 L8,14 L3,15 L3,18 L2,20 L-6,20 L-8,18 L-8,11 L-1,1 Z " fill="#E2E2E2" transform="translate(15,2)"/>
<path d="M0,0 L4,1 L-1,6 L-4,4 Z " fill="#5E5E5E" transform="translate(20,15)"/>
<path d="M0,0 L2,2 L3,6 L7,7 L8,5 L8,8 L2,9 L0,7 Z " fill="#C9C9C9" transform="translate(7,13)"/>
</svg>
