<?xml version="1.0" encoding="UTF-8"?>
<svg version="1.1" xmlns="http://www.w3.org/2000/svg" width="28" height="28">
<path d="M0,0 L28,0 L28,28 L0,28 Z " fill="#030303" transform="translate(0,0)"/>
<path d="M0,0 L2,1 L-3,9 L-4,17 L0,17 L1,12 L6,10 L8,12 L7,17 L4,20 L-3,20 L-7,16 L-6,8 Z " fill="#E5E5E5" transform="translate(14,2)"/>
<path d="M0,0 L2,1 L4,4 L2,6 L-2,5 Z " fill="#808080" transform="translate(16,13)"/>
<path d="M0,0 L1,2 L5,3 L9,5 L2,5 L-1,3 Z " fill="#B7B7B7" transform="translate(9,17)"/>
</svg>
