<?xml version="1.0" encoding="UTF-8"?>
<svg version="1.1" xmlns="http://www.w3.org/2000/svg" width="28" height="28">
<path d="M0,0 L28,0 L28,28 L0,28 Z " fill="#010101" transform="translate(0,0)"/>
<path d="M0,0 L3,0 L2,3 L-1,6 L-1,11 L0,10 L6,10 L9,12 L8,17 L5,20 L-1,20 L-5,15 L-5,8 L-2,2 Z " fill="#E7E7E7" transform="translate(14,3)"/>
<path d="M0,0 L5,0 L6,3 L4,6 L-2,5 L-1,1 Z " fill="#0A0A0A" transform="translate(15,15)"/>
<path d="M0,0 L3,0 L2,3 L-1,6 L-2,13 L-5,12 L-4,5 Z " fill="#C6C6C6" transform="translate(14,3)"/>
</svg>
