<?xml version="1.0" encoding="UTF-8"?>
<svg version="1.1" xmlns="http://www.w3.org/2000/svg" width="28" height="28">
<path d="M0,0 L28,0 L28,28 L0,28 Z " fill="#020202" transform="translate(0,0)"/>
<path d="M0,0 L2,1 L0,4 L-2,4 L-4,8 L-8,13 L-6,11 L-2,11 L-3,16 L-7,20 L-12,19 L-12,13 L-3,3 Z " fill="#C5C5C5" transform="translate(21,3)"/>
<path d="M0,0 L4,0 L3,5 L-1,9 L-6,8 L-5,4 L-3,5 L-3,7 L1,3 L-1,3 Z " fill="#DDDDDD" transform="translate(15,14)"/>
<path d="M0,0 L2,0 L2,3 L5,4 L3,8 L-1,7 L-2,3 Z " fill="#898989" transform="translate(11,13)"/>
</svg>
