<?xml version="1.0" encoding="UTF-8"?>
<svg version="1.1" xmlns="http://www.w3.org/2000/svg" width="28" height="28">
<path d="M0,0 L28,0 L28,28 L0,28 Z " fill="#020202" transform="translate(0,0)"/>
<path d="M0,0 L4,1 L-1,6 L-2,8 L5,7 L8,11 L8,18 L6,20 L1,19 L-4,14 L-4,4 Z " fill="#E7E7E7" transform="translate(13,4)"/>
<path d="M0,0 L5,1 L6,8 L1,8 L-1,6 L-1,1 Z " fill="#151515" transform="translate(13,13)"/>
<path d="M0,0 L4,1 L-2,6 L-4,6 L-2,2 Z " fill="#D8D8D8" transform="translate(13,4)"/>
</svg>
