<?xml version="1.0" encoding="UTF-8"?>
<svg version="1.1" xmlns="http://www.w3.org/2000/svg" width="28" height="28">
<path d="M0,0 L28,0 L28,28 L0,28 Z " fill="#020202" transform="translate(0,0)"/>
<path d="M0,0 L3,2 L3,4 L-1,5 L-4,11 L1,13 L1,18 L-1,20 L-6,20 L-9,15 L-7,8 L-2,1 Z " fill="#E3E3E3" transform="translate(18,3)"/>
<path d="M0,0 L3,2 L3,4 L-1,5 L-4,11 L-2,12 L-5,12 L-7,8 L-2,1 Z " fill="#D1D1D1" transform="translate(18,3)"/>
<path d="M0,0 L4,1 L3,5 L0,4 Z " fill="#202020" transform="translate(13,16)"/>
</svg>
