<?xml version="1.0" encoding="UTF-8"?>
<svg version="1.1" xmlns="http://www.w3.org/2000/svg" width="28" height="28">
<path d="M0,0 L28,0 L28,28 L0,28 Z " fill="#030303" transform="translate(0,0)"/>
<path d="M0,0 L3,0 L2,5 L-3,14 L2,9 L7,10 L6,14 L5,17 L0,20 L-5,20 L-7,15 L-1,4 Z " fill="#D3D3D3" transform="translate(15,2)"/>
<path d="M0,0 L5,1 L4,5 L0,8 L-6,9 L-3,2 Z " fill="#CFCFCF" transform="translate(17,11)"/>
<path d="M0,0 L1,3 L-4,6 L-9,6 L-10,3 L-2,2 Z " fill="#F2F2F2" transform="translate(19,16)"/>
<path d="M0,0 L2,0 L1,4 L-4,5 Z " fill="#232323" transform="translate(18,13)"/>
</svg>
