<?xml version="1.0" encoding="UTF-8"?>
<svg version="1.1" xmlns="http://www.w3.org/2000/svg" width="28" height="28">
<path d="M0,0 L28,0 L28,28 L0,28 Z " fill="#020202" transform="translate(0,0)"/>
<path d="M0,0 L2,0 L0,4 L-5,11 L-3,9 L1,9 L1,14 L-5,20 L-9,19 L-10,14 L-1,1 Z " fill="#BABABA" transform="translate(19,3)"/>
<path d="M0,0 L2,0 L0,4 L-8,15 L-9,12 Z " fill="#D1D1D1" transform="translate(19,3)"/>
<path d="M0,0 L2,0 L0,4 L-4,7 L-3,3 Z " fill="#212121" transform="translate(17,14)"/>
</svg>
