<?xml version="1.0" encoding="UTF-8"?>
<svg version="1.1" xmlns="http://www.w3.org/2000/svg" width="28" height="28">
<path d="M0,0 L28,0 L28,28 L0,28 Z " fill="#030303" transform="translate(0,0)"/>
<path d="M0,0 L3,1 L-6,9 L-9,16 L-7,16 L-6,12 L-2,9 L4,10 L5,15 L0,19 L-6,20 L-11,17 L-11,12 L-4,3 Z " fill="#C0C0C0" transform="translate(18,3)"/>
<path d="M0,0 L3,1 L-6,9 L-9,16 L-7,16 L-6,14 L-6,18 L-3,19 L-6,20 L-11,17 L-11,12 L-4,3 Z " fill="#D4D4D4" transform="translate(18,3)"/>
<path d="M0,0 L6,0 L5,4 L2,6 L-3,6 L-2,2 Z " fill="#090909" transform="translate(15,15)"/>
</svg>
