<?xml version="1.0" encoding="UTF-8"?>
<svg version="1.1" xmlns="http://www.w3.org/2000/svg" width="28" height="28">
<path d="M0,0 L28,0 L28,28 L0,28 Z " fill="#030303" transform="translate(0,0)"/>
<path d="M0,0 L3,1 L-2,6 L-6,12 L-5,16 L1,16 L2,13 L-1,13 L-1,16 L-4,16 L-3,12 L-1,10 L5,10 L6,15 L1,20 L-7,19 L-10,16 L-9,9 L-8,6 L-6,6 L-6,4 Z " fill="#E1E1E1" transform="translate(17,3)"/>
<path d="M0,0 L3,1 L3,4 L6,4 L6,1 L10,0 L9,4 L8,5 L2,5 L0,3 Z " fill="#1E1E1E" transform="translate(10,15)"/>
</svg>
