<?xml version="1.0" encoding="UTF-8"?>
<svg version="1.1" xmlns="http://www.w3.org/2000/svg" width="28" height="28">
<path d="M0,0 L28,0 L28,28 L0,28 Z " fill="#030303" transform="translate(0,0)"/>
<path d="M0,0 L2,1 L-1,7 L-3,10 L5,10 L6,15 L4,19 L1,20 L-7,20 L-9,19 L-9,14 L-6,11 L-1,1 Z " fill="#D6D6D6" transform="translate(16,2)"/>
<path d="M0,0 L8,0 L7,5 L5,6 L-2,6 L-2,2 L0,2 Z " fill="#111111" transform="translate(12,14)"/>
<path d="M0,0 L5,0 L1,2 L-2,5 L-4,8 L-4,3 Z " fill="#F7F7F7" transform="translate(12,12)"/>
</svg>
