<?xml version="1.0" encoding="UTF-8"?>
<svg version="1.1" xmlns="http://www.w3.org/2000/svg" width="28" height="28">
<path d="M0,0 L28,0 L28,28 L0,28 Z " fill="#030303" transform="translate(0,0)"/>
<path d="M0,0 L2,1 L-4,8 L-5,15 L-1,18 L0,13 L2,11 L8,11 L9,16 L6,20 L-1,20 L-6,18 L-7,16 L-7,8 Z " fill="#B9B9B9" transform="translate(14,2)"/>
<path d="M0,0 L2,1 L-4,8 L-5,15 L-1,19 L-6,18 L-7,16 L-7,8 Z " fill="#D7D7D7" transform="translate(14,2)"/>
<path d="M0,0 L5,0 L4,4 L-1,5 Z " fill="#0B0B0B" transform="translate(16,15)"/>
<path d="M0,0 L1,3 L-2,7 L-8,6 L-7,4 L-2,3 Z " fill="#D7D7D7" transform="translate(22,15)"/>
</svg>
