<?xml version="1.0" encoding="UTF-8"?>
<svg version="1.1" xmlns="http://www.w3.org/2000/svg" width="28" height="28">
<path d="M0,0 L28,0 L28,28 L0,28 Z " fill="#030303" transform="translate(0,0)"/>
<path d="M0,0 L3,1 L3,5 L1,5 L1,3 L-2,6 L-4,6 L-6,10 L-7,12 L0,12 L4,15 L3,19 L-6,20 L-11,17 L-11,12 L-5,4 Z " fill="#CBCBCB" transform="translate(18,3)"/>
<path d="M0,0 L3,1 L3,5 L1,5 L1,3 L-2,6 L-4,6 L-6,10 L-7,12 L0,12 L4,16 L-8,14 L-10,16 L-9,9 L-4,3 Z " fill="#D7D7D7" transform="translate(18,3)"/>
<path d="M0,0 L2,0 L2,3 L9,3 L13,7 L1,5 L-1,7 Z " fill="#F2F2F2" transform="translate(9,12)"/>
<path d="M0,0 L10,2 L10,4 L6,5 L0,4 Z " fill="#1A1A1A" transform="translate(10,16)"/>
</svg>
