<?xml version="1.0" encoding="UTF-8"?>
<svg version="1.1" xmlns="http://www.w3.org/2000/svg" width="28" height="28">
<path d="M0,0 L28,0 L28,28 L0,28 Z " fill="#020202" transform="translate(0,0)"/>
<path d="M0,0 L2,1 L-7,12 L-4,11 L1,12 L0,16 L-4,20 L-11,20 L-12,16 L-8,8 Z " fill="#E9E9E9" transform="translate(20,2)"/>
<path d="M0,0 L2,1 L-7,12 L-9,18 L-11,14 L-7,7 Z " fill="#D7D7D7" transform="translate(20,2)"/>
<path d="M0,0 L5,1 L4,5 L-3,6 L-2,1 Z " fill="#888888" transform="translate(16,13)"/>
</svg>
