<?xml version="1.0" encoding="UTF-8"?>
<svg version="1.1" xmlns="http://www.w3.org/2000/svg" width="28" height="28">
<path d="M0,0 L28,0 L28,28 L0,28 Z " fill="#020202" transform="translate(0,0)"/>
<path d="M0,0 L5,2 L2,4 L0,5 L-1,8 L-3,8 L-4,17 L3,15 L4,13 L1,14 L0,16 L-3,16 L-2,12 L1,10 L6,11 L6,16 L3,19 L-4,20 L-7,17 L-7,10 L-3,4 Z " fill="#E1E1E1" transform="translate(15,3)"/>
<path d="M0,0 L1,2 L4,3 L1,5 L0,8 L3,8 L4,5 L7,5 L5,9 L-1,9 Z " fill="#2D2D2D" transform="translate(12,11)"/>
</svg>
