<?xml version="1.0" encoding="UTF-8"?>
<svg version="1.1" xmlns="http://www.w3.org/2000/svg" width="28" height="28">
<path d="M0,0 L28,0 L28,28 L0,28 Z " fill="#030303" transform="translate(0,0)"/>
<path d="M0,0 L1,0 L3,10 L5,7 L8,6 L15,6 L16,7 L16,14 L11,20 L5,20 L0,15 L-2,11 L-2,2 Z " fill="#EAEAEA" transform="translate(8,3)"/>
<path d="M0,0 L7,0 L8,1 L8,8 L5,8 L4,5 L-2,4 Z " fill="#EFEFEF" transform="translate(16,9)"/>
<path d="M0,0 L5,0 L6,5 L0,6 L-1,1 Z " fill="#1E1E1E" transform="translate(15,13)"/>
</svg>
