<?xml version="1.0" encoding="UTF-8"?>
<svg version="1.1" xmlns="http://www.w3.org/2000/svg" width="28" height="28">
<path d="M0,0 L28,0 L28,28 L0,28 Z " fill="#020202" transform="translate(0,0)"/>
<path d="M0,0 L3,1 L3,3 L0,3 L-1,11 L9,11 L11,14 L9,18 L3,20 L-2,20 L-5,17 L-5,10 L-2,2 Z " fill="#D9D9D9" transform="translate(13,2)"/>
<path d="M0,0 L5,0 L7,3 L5,7 L-4,9 L-4,7 L2,5 L3,3 L-5,3 L-2,1 Z " fill="#E8E8E8" transform="translate(17,13)"/>
<path d="M0,0 L3,1 L3,3 L0,3 L-1,11 L-4,8 L-2,2 Z " fill="#CECECE" transform="translate(13,2)"/>
<path d="M0,0 L7,0 L6,3 L-1,3 Z " fill="#171717" transform="translate(13,16)"/>
</svg>
