<?xml version="1.0" encoding="UTF-8"?>
<svg version="1.1" xmlns="http://www.w3.org/2000/svg" width="28" height="28">
<path d="M0,0 L28,0 L28,28 L0,28 Z " fill="#020202" transform="translate(0,0)"/>
<path d="M0,0 L2,1 L3,16 L8,17 L11,16 L12,11 L6,14 L3,15 L5,11 L9,8 L13,9 L14,14 L10,19 L5,20 L0,17 Z " fill="#E8E8E8" transform="translate(9,2)"/>
<path d="M0,0 L3,0 L2,5 L-1,7 L-6,6 L-6,3 L-2,1 Z " fill="#1D1D1D" transform="translate(18,13)"/>
<path d="M0,0 L1,0 L2,8 L2,11 L-1,9 Z " fill="#BEBEBE" transform="translate(10,10)"/>
</svg>
