<?xml version="1.0" encoding="UTF-8"?>
<svg version="1.1" xmlns="http://www.w3.org/2000/svg" width="28" height="28">
<path d="M0,0 L28,0 L28,28 L0,28 Z " fill="#040404" transform="translate(0,0)"/>
<path d="M0,0 L1,4 L-1,10 L1,10 L1,8 L10,8 L11,15 L5,19 L-1,20 L-6,17 L-6,9 L-2,1 Z " fill="#D5D5D5" transform="translate(13,2)"/>
<path d="M0,0 L1,0 L1,10 L8,10 L13,8 L12,11 L4,14 L-2,12 L-3,11 L-3,3 Z " fill="#F6F6F6" transform="translate(10,8)"/>
<path d="M0,0 L2,1 L1,4 L-1,4 L-1,6 L-8,6 L-8,4 L-5,1 Z " fill="#171717" transform="translate(19,13)"/>
<path d="M0,0 L1,4 L0,5 L-1,12 L-3,11 L-3,7 L-5,8 L-3,2 Z " fill="#B8B8B8" transform="translate(13,2)"/>
</svg>
