<?xml version="1.0" encoding="UTF-8"?>
<svg version="1.1" xmlns="http://www.w3.org/2000/svg" width="28" height="28">
<path d="M0,0 L28,0 L28,28 L0,28 Z " fill="#020202" transform="translate(0,0)"/>
<path d="M0,0 L4,0 L3,5 L0,5 L-3,14 L2,11 L7,11 L8,15 L3,20 L-2,20 L-5,17 L-6,11 L-4,4 Z " fill="#E6E6E6" transform="translate(14,3)"/>
<path d="M0,0 L5,0 L6,4 L2,8 L-2,7 Z " fill="#DDDDDD" transform="translate(16,14)"/>
<path d="M0,0 L2,1 L3,5 L-2,6 Z " fill="#818181" transform="translate(16,14)"/>
</svg>
