<?xml version="1.0" encoding="UTF-8"?>
<svg version="1.1" xmlns="http://www.w3.org/2000/svg" width="28" height="28">
<path d="M0,0 L28,0 L28,28 L0,28 Z " fill="#020202" transform="translate(0,0)"/>
<path d="M0,0 L3,0 L3,2 L1,2 L-1,6 L-3,11 L-3,15 L1,10 L5,11 L4,17 L0,20 L-5,19 L-7,17 L-7,10 L-4,4 Z " fill="#E0E0E0" transform="translate(16,3)"/>
<path d="M0,0 L3,0 L3,2 L1,2 L-1,6 L-5,16 L-6,16 L-6,9 L-4,4 Z " fill="#F5F5F5" transform="translate(16,3)"/>
<path d="M0,0 L4,1 L3,7 L1,8 L-2,7 L-3,3 Z " fill="#AFAFAF" transform="translate(17,13)"/>
<path d="M0,0 L3,0 L3,2 L1,2 L0,5 L-5,7 L-3,3 Z " fill="#D8D8D8" transform="translate(16,3)"/>
</svg>
