<?xml version="1.0" encoding="UTF-8"?>
<svg version="1.1" xmlns="http://www.w3.org/2000/svg" width="28" height="28">
<path d="M0,0 L28,0 L28,28 L0,28 Z " fill="#030303" transform="translate(0,0)"/>
<path d="M0,0 L2,0 L0,5 L-1,8 L-3,8 L-2,12 L3,9 L10,9 L11,16 L6,20 L-1,20 L-6,15 L-6,9 Z " fill="#DDDDDD" transform="translate(13,2)"/>
<path d="M0,0 L5,1 L4,5 L3,6 L-5,6 L-4,2 Z " fill="#151515" transform="translate(17,13)"/>
<path d="M0,0 L7,0 L8,5 L7,3 L-2,3 L-2,1 Z " fill="#F2F2F2" transform="translate(16,11)"/>
<path d="M0,0 L2,4 L-3,8 L-8,6 L-8,5 L-1,3 Z " fill="#C4C4C4" transform="translate(22,14)"/>
</svg>
