<?xml version="1.0" encoding="UTF-8"?>
<svg version="1.1" xmlns="http://www.w3.org/2000/svg" width="28" height="28">
<path d="M0,0 L28,0 L28,28 L0,28 Z " fill="#020202" transform="translate(0,0)"/>
<path d="M0,0 L2,0 L1,4 L-4,11 L-6,17 L-2,17 L-2,11 L2,8 L6,9 L6,16 L-1,20 L-7,20 L-9,15 L-4,6 Z " fill="#E6E6E6" transform="translate(16,2)"/>
<path d="M0,0 L2,0 L1,4 L-4,11 L-6,14 L-7,12 L-4,6 Z " fill="#DDDDDD" transform="translate(16,2)"/>
<path d="M0,0 L3,0 L3,6 L-1,6 Z " fill="#1C1C1C" transform="translate(11,13)"/>
<path d="M0,0 L3,0 L2,4 L-3,5 Z " fill="#131313" transform="translate(18,13)"/>
<path d="M0,0 L2,0 L2,3 L-3,5 L-3,2 Z " fill="#C6C6C6" transform="translate(18,10)"/>
</svg>
