<?xml version="1.0" encoding="UTF-8"?>
<svg version="1.1" xmlns="http://www.w3.org/2000/svg" width="28" height="28">
<path d="M0,0 L28,0 L28,28 L0,28 Z " fill="#020202" transform="translate(0,0)"/>
<path d="M0,0 L3,1 L-1,8 L6,14 L5,19 L4,20 L-3,19 L-6,14 L-4,5 L-2,2 L0,2 Z " fill="#E5E5E5" transform="translate(15,3)"/>
<path d="M0,0 L3,1 L2,6 L1,7 L-4,7 L-4,5 L-1,4 Z " fill="#F2F2F2" transform="translate(18,16)"/>
<path d="M0,0 L4,2 L3,6 L-1,5 L-2,3 Z " fill="#202020" transform="translate(14,15)"/>
</svg>
