<?xml version="1.0" encoding="UTF-8"?>
<svg version="1.1" xmlns="http://www.w3.org/2000/svg" width="28" height="28">
<path d="M0,0 L28,0 L28,28 L0,28 Z " fill="#020202" transform="translate(0,0)"/>
<path d="M0,0 L1,3 L-1,7 L-1,12 L5,12 L6,16 L3,20 L-2,19 L-4,17 L-4,6 Z " fill="#ECECEC" transform="translate(15,2)"/>
<path d="M0,0 L1,3 L-1,7 L-3,17 L-4,17 L-4,6 Z " fill="#D5D5D5" transform="translate(15,2)"/>
<path d="M0,0 L4,0 L5,4 L3,6 L-1,6 L-1,1 Z " fill="#7D7D7D" transform="translate(15,16)"/>
</svg>
