<?xml version="1.0" encoding="UTF-8"?>
<svg version="1.1" xmlns="http://www.w3.org/2000/svg" width="28" height="28">
<path d="M0,0 L28,0 L28,28 L0,28 Z " fill="#030303" transform="translate(0,0)"/>
<path d="M0,0 L2,0 L1,6 L-1,10 L-1,16 L4,17 L5,12 L10,8 L13,9 L13,13 L11,13 L9,17 L7,17 L7,19 L-1,20 L-5,15 L-4,8 Z " fill="#E7E7E7" transform="translate(11,2)"/>
<path d="M0,0 L3,1 L3,5 L1,5 L-1,9 L-4,6 L-6,7 L-4,3 Z " fill="#DADADA" transform="translate(21,10)"/>
<path d="M0,0 L2,1 L2,5 L-1,6 L-4,6 L-2,2 Z " fill="#B0B0B0" transform="translate(19,11)"/>
</svg>
