<?xml version="1.0" encoding="UTF-8"?>
<svg version="1.1" xmlns="http://www.w3.org/2000/svg" width="28" height="28">
<path d="M0,0 L28,0 L28,28 L0,28 Z " fill="#030303" transform="translate(0,0)"/>
<path d="M0,0 L4,1 L5,4 L0,4 L-3,9 L-4,15 L-1,12 L1,7 L3,7 L3,5 L6,6 L6,11 L1,16 L1,20 L-1,20 L-1,17 L-6,16 L-7,10 Z " fill="#D1D1D1" transform="translate(15,5)"/>
<path d="M0,0 L3,1 L3,6 L-1,10 L-2,9 L-2,2 L0,2 Z " fill="#A2A2A2" transform="translate(18,10)"/>
<path d="M0,0 L2,4 L1,10 L-1,10 L-1,7 L-5,7 L-5,5 L-2,4 Z " fill="#E8E8E8" transform="translate(15,15)"/>
</svg>
