<?xml version="1.0" encoding="UTF-8"?>
<svg version="1.1" xmlns="http://www.w3.org/2000/svg" width="28" height="28">
<path d="M0,0 L28,0 L28,28 L0,28 Z " fill="#030303" transform="translate(0,0)"/>
<path d="M0,0 L2,0 L0,6 L-1,8 L-1,14 L4,9 L9,9 L10,10 L10,15 L5,20 L0,20 L-4,15 L-4,8 Z " fill="#DDDDDD" transform="translate(13,2)"/>
<path d="M0,0 L2,0 L0,6 L-1,8 L-1,14 L1,17 L6,18 L5,20 L0,20 L-4,15 L-4,8 Z " fill="#ECECEC" transform="translate(13,2)"/>
<path d="M0,0 L2,0 L1,5 L-2,7 L-5,7 L-4,3 Z " fill="#151515" transform="translate(19,13)"/>
<path d="M0,0 L2,0 L0,6 L-4,10 L-2,3 Z " fill="#CECECE" transform="translate(13,2)"/>
</svg>
