<?xml version="1.0" encoding="UTF-8"?>
<svg version="1.1" xmlns="http://www.w3.org/2000/svg" width="28" height="28">
<path d="M0,0 L28,0 L28,28 L0,28 Z " fill="#030303" transform="translate(0,0)"/>
<path d="M0,0 L6,1 L10,5 L1,4 L-3,10 L-3,11 L5,11 L7,13 L7,18 L5,20 L-1,20 L-6,14 L-6,7 L-2,1 Z " fill="#F0F0F0" transform="translate(14,4)"/>
<path d="M0,0 L6,1 L10,5 L1,4 L-3,6 L-4,3 Z M-5,6 Z " fill="#DADADA" transform="translate(14,4)"/>
<path d="M0,0 L5,1 L5,5 L4,6 L-1,6 L-3,2 Z " fill="#1C1C1C" transform="translate(14,16)"/>
</svg>
