<?xml version="1.0" encoding="UTF-8"?>
<svg version="1.1" xmlns="http://www.w3.org/2000/svg" width="28" height="28">
<path d="M0,0 L28,0 L28,28 L0,28 Z " fill="#030303" transform="translate(0,0)"/>
<path d="M0,0 L2,0 L-1,10 L-1,16 L2,16 L4,12 L7,11 L14,11 L15,15 L9,19 L0,20 L-5,17 L-5,6 Z " fill="#D7D7D7" transform="translate(11,2)"/>
<path d="M0,0 L7,0 L8,4 L2,8 L-3,7 L-1,5 L4,3 L-3,4 Z " fill="#EFEFEF" transform="translate(18,13)"/>
<path d="M0,0 L2,0 L-1,10 L-3,13 L-4,5 Z " fill="#E9E9E9" transform="translate(11,2)"/>
<path d="M0,0 L4,1 L2,3 L-4,4 L-4,2 Z " fill="#3A3A3A" transform="translate(19,15)"/>
</svg>
