<?xml version="1.0" encoding="UTF-8"?>
<svg version="1.1" xmlns="http://www.w3.org/2000/svg" width="28" height="28">
<path d="M0,0 L28,0 L28,28 L0,28 Z " fill="#030303" transform="translate(0,0)"/>
<path d="M0,0 L2,0 L1,6 L1,9 L2,8 L7,8 L8,9 L8,16 L6,19 L-1,20 L-4,16 L-4,7 L-2,2 Z " fill="#C6C6C6" transform="translate(13,3)"/>
<path d="M0,0 L4,1 L4,8 L2,11 L-5,12 L-8,8 L-7,3 L-3,4 L-3,9 L1,6 L2,2 L-1,1 Z " fill="#ECECEC" transform="translate(17,11)"/>
<path d="M0,0 L2,0 L1,6 L-1,10 L-3,10 L-3,3 Z " fill="#DFDFDF" transform="translate(13,3)"/>
<path d="M0,0 L2,0 L1,5 L-2,6 L-2,1 Z " fill="#1F1F1F" transform="translate(17,13)"/>
</svg>
