<?xml version="1.0" encoding="UTF-8"?>
<svg version="1.1" xmlns="http://www.w3.org/2000/svg" width="28" height="28">
<path d="M0,0 L28,0 L28,28 L0,28 Z " fill="#030303" transform="translate(0,0)"/>
<path d="M0,0 L6,0 L7,3 L-1,5 L-3,8 L-3,14 L-1,12 L8,11 L9,12 L9,17 L4,20 L-4,19 L-7,16 L-7,9 L-4,3 Z " fill="#D0D0D0" transform="translate(14,3)"/>
<path d="M0,0 L1,0 L1,5 L-4,8 L-8,8 L-9,3 L-5,1 L0,2 Z " fill="#D1D1D1" transform="translate(22,15)"/>
<path d="M0,0 L5,0 L5,3 L-4,4 L-3,9 L-8,7 L-9,4 L-4,1 Z " fill="#EAEAEA" transform="translate(17,14)"/>
<path d="M0,0 L3,0 L2,4 L-4,4 L-4,2 Z " fill="#1D1D1D" transform="translate(17,16)"/>
</svg>
