<?xml version="1.0" encoding="UTF-8"?>
<svg version="1.1" xmlns="http://www.w3.org/2000/svg" width="28" height="28">
<path d="M0,0 L28,0 L28,28 L0,28 Z " fill="#030303" transform="translate(0,0)"/>
<path d="M0,0 L5,0 L7,2 L6,7 L4,7 L3,3 L-2,5 L-3,6 L-4,13 L0,10 L5,11 L6,12 L6,17 L2,20 L-3,20 L-7,14 L-7,7 L-4,2 Z " fill="#E6E6E6" transform="translate(15,4)"/>
<path d="M0,0 L5,0 L7,2 L6,7 L4,7 L3,3 L-2,5 L-4,8 L-5,14 L-7,14 L-7,7 L-4,2 Z " fill="#ECECEC" transform="translate(15,4)"/>
<path d="M0,0 L5,1 L5,5 L-1,6 Z " fill="#757575" transform="translate(15,14)"/>
<path d="M0,0 L4,2 L3,7 L1,7 L-1,1 Z " fill="#CDCDCD" transform="translate(18,4)"/>
</svg>
