<?xml version="1.0" encoding="UTF-8"?>
<svg version="1.1" xmlns="http://www.w3.org/2000/svg" width="28" height="28">
<path d="M0,0 L28,0 L28,28 L0,28 Z " fill="#010101" transform="translate(0,0)"/>
<path d="M0,0 L1,0 L1,9 L0,13 L6,9 L11,10 L10,17 L6,20 L0,19 L-2,15 L-2,7 Z " fill="#D1D1D1" transform="translate(11,2)"/>
<path d="M0,0 L5,1 L4,8 L0,10 L2,6 L2,3 L-5,7 L-3,2 Z " fill="#DDDDDD" transform="translate(17,11)"/>
<path d="M0,0 L1,4 L-3,7 L-7,6 L-2,1 Z " fill="#1E1E1E" transform="translate(19,13)"/>
</svg>
