<?xml version="1.0" encoding="UTF-8"?>
<svg version="1.1" xmlns="http://www.w3.org/2000/svg" width="28" height="28">
<path d="M0,0 L28,0 L28,28 L0,28 Z " fill="#010101" transform="translate(0,0)"/>
<path d="M0,0 L2,1 L0,6 L-2,9 L2,11 L3,12 L2,19 L1,20 L-4,20 L-6,18 L-5,9 Z " fill="#D0D0D0" transform="translate(16,3)"/>
<path d="M0,0 L2,1 L0,6 L-2,9 L2,11 L3,12 L3,17 L1,17 L0,13 L-5,11 L-3,5 Z " fill="#DCDCDC" transform="translate(16,3)"/>
<path d="M0,0 L4,2 L4,6 L0,7 L-1,6 L-1,1 Z " fill="#111111" transform="translate(13,14)"/>
</svg>
