<?xml version="1.0" encoding="UTF-8"?>
<svg version="1.1" xmlns="http://www.w3.org/2000/svg" width="28" height="28">
<path d="M0,0 L28,0 L28,28 L0,28 Z " fill="#020202" transform="translate(0,0)"/>
<path d="M0,0 L5,0 L5,2 L-1,5 L-3,5 L-5,12 L0,11 L2,13 L2,20 L-4,19 L-8,16 L-9,10 L-5,4 Z " fill="#DBDBDB" transform="translate(17,3)"/>
<path d="M0,0 L5,1 L6,2 L6,9 L0,8 L-3,6 L-3,3 L-1,3 L-1,5 L4,6 L3,4 L0,3 Z " fill="#E9E9E9" transform="translate(13,14)"/>
<path d="M0,0 L4,4 L4,6 L8,7 L8,9 L3,8 L3,6 L1,6 L0,8 L-1,2 Z " fill="#8F8F8F" transform="translate(9,11)"/>
</svg>
