<?xml version="1.0" encoding="UTF-8"?>
<svg version="1.1" xmlns="http://www.w3.org/2000/svg" width="28" height="28">
<path d="M0,0 L28,0 L28,28 L0,28 Z " fill="#030303" transform="translate(0,0)"/>
<path d="M0,0 L3,0 L3,2 L-1,6 L-2,11 L2,9 L8,9 L9,14 L5,19 L-1,20 L-5,16 L-5,8 L-2,2 Z " fill="#D7D7D7" transform="translate(14,3)"/>
<path d="M0,0 L3,0 L3,2 L-1,6 L-2,11 L2,9 L7,9 L4,11 L-2,14 L-3,16 L-5,16 L-5,8 L-2,2 Z " fill="#DFDFDF" transform="translate(14,3)"/>
<path d="M0,0 L5,0 L4,4 L1,7 L-3,6 L-4,2 Z " fill="#0F0F0F" transform="translate(16,14)"/>
</svg>
