<?xml version="1.0" encoding="UTF-8"?>
<svg version="1.1" xmlns="http://www.w3.org/2000/svg" width="28" height="28">
<path d="M0,0 L28,0 L28,28 L0,28 Z " fill="#040404" transform="translate(0,0)"/>
<path d="M0,0 L2,0 L2,3 L0,3 L0,14 L1,15 L2,11 L4,8 L13,7 L17,11 L16,16 L11,19 L8,20 L0,20 L-3,16 L-3,4 Z " fill="#DDDDDD" transform="translate(10,2)"/>
<path d="M0,0 L7,0 L9,1 L8,7 L7,8 L-3,7 L-2,2 Z " fill="#0F0F0F" transform="translate(16,11)"/>
<path d="M0,0 L6,0 L10,4 L9,9 L7,11 L0,11 L-1,9 L6,9 L8,3 L-1,3 L-3,5 L-5,9 L-6,5 L-3,1 Z " fill="#C2C2C2" transform="translate(17,9)"/>
</svg>
