<?xml version="1.0" encoding="UTF-8"?>
<svg version="1.1" xmlns="http://www.w3.org/2000/svg" width="28" height="28">
<path d="M0,0 L28,0 L28,28 L0,28 Z " fill="#030303" transform="translate(0,0)"/>
<path d="M0,0 L2,0 L1,6 L1,15 L3,16 L3,10 L7,7 L14,8 L16,11 L15,17 L10,20 L4,20 L-2,15 L-2,5 Z " fill="#D6D6D6" transform="translate(8,2)"/>
<path d="M0,0 L6,0 L7,6 L4,8 L-2,8 L-3,3 Z " fill="#0C0C0C" transform="translate(15,11)"/>
<path d="M0,0 L2,0 L0,14 L-2,15 L-2,5 Z " fill="#B2B2B2" transform="translate(8,2)"/>
</svg>
