<?xml version="1.0" encoding="UTF-8"?>
<svg version="1.1" xmlns="http://www.w3.org/2000/svg" width="28" height="28">
<path d="M0,0 L28,0 L28,28 L0,28 Z " fill="#030303" transform="translate(0,0)"/>
<path d="M0,0 L1,2 L-2,9 L-2,14 L1,16 L4,11 L6,9 L11,10 L10,16 L8,19 L0,20 L-5,15 L-4,7 Z " fill="#DEDEDE" transform="translate(12,1)"/>
<path d="M0,0 L5,1 L4,7 L1,10 L-2,9 L-1,4 Z " fill="#D8D8D8" transform="translate(18,10)"/>
<path d="M0,0 L3,0 L2,4 L-2,6 L-1,1 Z " fill="#111111" transform="translate(18,13)"/>
</svg>
