<?xml version="1.0" encoding="UTF-8"?>
<svg version="1.1" xmlns="http://www.w3.org/2000/svg" width="28" height="28">
<path d="M0,0 L28,0 L28,28 L0,28 Z " fill="#020202" transform="translate(0,0)"/>
<path d="M0,0 L1,3 L-4,11 L-4,15 L-2,16 L-1,9 L1,7 L5,8 L5,15 L0,20 L-5,19 L-7,17 L-7,10 L-2,2 Z " fill="#E8E8E8" transform="translate(16,3)"/>
<path d="M0,0 L4,1 L4,6 L-1,8 L-2,2 Z " fill="#A8A8A8" transform="translate(17,10)"/>
<path d="M0,0 L1,2 L-1,9 L-4,8 L-3,2 Z " fill="#1E1E1E" transform="translate(15,10)"/>
</svg>
