<?xml version="1.0" encoding="UTF-8"?>
<svg version="1.1" xmlns="http://www.w3.org/2000/svg" width="28" height="28">
<path d="M0,0 L28,0 L28,28 L0,28 Z " fill="#030303" transform="translate(0,0)"/>
<path d="M0,0 L6,0 L8,1 L8,5 L4,3 L-1,4 L-3,8 L3,7 L6,10 L5,15 L0,18 L-1,20 L-5,18 L-6,16 L-6,7 L-2,1 Z " fill="#E3E3E3" transform="translate(15,5)"/>
<path d="M0,0 L5,1 L4,5 L-1,7 L-3,3 Z " fill="#101010" transform="translate(14,14)"/>
<path d="M0,0 L5,1 L7,3 L6,8 L3,10 L1,8 L4,6 L4,3 L-3,2 Z " fill="#D2D2D2" transform="translate(14,12)"/>
</svg>
