<?xml version="1.0" encoding="UTF-8"?>
<svg version="1.1" xmlns="http://www.w3.org/2000/svg" width="28" height="28">
<path d="M0,0 L28,0 L28,28 L0,28 Z " fill="#030303" transform="translate(0,0)"/>
<path d="M0,0 L2,0 L2,3 L-4,7 L-7,14 L0,11 L4,11 L4,16 L-2,20 L-7,20 L-11,15 L-9,8 L-4,3 L-2,3 L-2,1 Z " fill="#E8E8E8" transform="translate(18,2)"/>
<path d="M0,0 L2,0 L2,3 L-4,7 L-8,13 L-10,14 L-10,9 L-5,4 L-2,3 L-2,1 Z " fill="#DEDEDE" transform="translate(18,2)"/>
<path d="M0,0 L4,0 L4,5 L2,6 L-5,6 L-6,3 Z " fill="#969696" transform="translate(18,13)"/>
</svg>
