<?xml version="1.0" encoding="UTF-8"?>
<svg version="1.1" xmlns="http://www.w3.org/2000/svg" width="28" height="28">
<path d="M0,0 L28,0 L28,28 L0,28 Z " fill="#030303" transform="translate(0,0)"/>
<path d="M0,0 L2,0 L2,13 L3,14 L8,9 L12,7 L17,8 L17,14 L11,19 L2,20 L-2,16 L-2,7 Z " fill="#E1E1E1" transform="translate(8,2)"/>
<path d="M0,0 L5,1 L5,7 L0,10 L1,6 L3,6 L3,3 L-3,6 L-6,5 L-2,1 Z " fill="#ECECEC" transform="translate(20,9)"/>
<path d="M0,0 L3,0 L3,3 L-3,6 L-6,5 Z " fill="#1E1E1E" transform="translate(20,12)"/>
</svg>
