<?xml version="1.0" encoding="UTF-8"?>
<svg version="1.1" xmlns="http://www.w3.org/2000/svg" width="28" height="28">
<path d="M0,0 L28,0 L28,28 L0,28 Z " fill="#010101" transform="translate(0,0)"/>
<path d="M0,0 L2,0 L0,5 L-2,9 L3,9 L5,12 L4,16 L-1,20 L-6,20 L-7,19 L-7,12 Z " fill="#DADADA" transform="translate(16,3)"/>
<path d="M0,0 L5,0 L4,5 L-3,6 L-3,2 Z " fill="#101010" transform="translate(14,14)"/>
<path d="M0,0 L1,2 L5,2 L5,5 L0,5 L-1,2 Z " fill="#AEAEAE" transform="translate(10,18)"/>
</svg>
