<?xml version="1.0" encoding="UTF-8"?>
<svg version="1.1" xmlns="http://www.w3.org/2000/svg" width="28" height="28">
<path d="M0,0 L28,0 L28,28 L0,28 Z " fill="#050505" transform="translate(0,0)"/>
<path d="M0,0 L6,0 L5,4 L1,5 L-3,9 L-1,16 L2,16 L1,11 L2,10 L9,10 L11,12 L11,17 L5,20 L-2,19 L-6,15 L-6,8 Z " fill="#E8E8E8" transform="translate(12,3)"/>
<path d="M0,0 L7,0 L8,2 L5,7 L-2,8 L0,6 L-1,1 Z " fill="#D9D9D9" transform="translate(14,13)"/>
<path d="M0,0 L5,1 L3,5 L0,4 Z " fill="#282828" transform="translate(16,15)"/>
</svg>
