<?xml version="1.0" encoding="UTF-8"?>
<svg version="1.1" xmlns="http://www.w3.org/2000/svg" width="28" height="28">
<path d="M0,0 L28,0 L28,28 L0,28 Z " fill="#030303" transform="translate(0,0)"/>
<path d="M0,0 L3,0 L1,5 L-1,10 L-1,13 L2,11 L7,12 L5,17 L-3,19 L-5,16 L-5,9 L-1,1 Z " fill="#DCDCDC" transform="translate(15,3)"/>
<path d="M0,0 L6,3 L6,5 L1,6 Z " fill="#F6F6F6" transform="translate(11,16)"/>
<path d="M0,0 L4,1 L3,4 L0,5 L0,3 L-2,2 Z " fill="#ABABAB" transform="translate(17,16)"/>
</svg>
