<?xml version="1.0" encoding="UTF-8"?>
<svg version="1.1" xmlns="http://www.w3.org/2000/svg" width="28" height="28">
<path d="M0,0 L28,0 L28,28 L0,28 Z " fill="#020202" transform="translate(0,0)"/>
<path d="M0,0 L1,3 L-3,7 L-4,9 L0,12 L0,17 L-2,19 L-9,20 L-9,12 L-2,1 Z " fill="#CBCBCB" transform="translate(19,3)"/>
<path d="M0,0 L2,0 L3,6 L7,4 L9,1 L8,6 L3,8 L0,8 Z " fill="#D9D9D9" transform="translate(10,15)"/>
<path d="M0,0 L4,1 L3,6 L0,6 Z " fill="#070707" transform="translate(13,15)"/>
</svg>
