<?xml version="1.0" encoding="UTF-8"?>
<svg version="1.1" xmlns="http://www.w3.org/2000/svg" width="28" height="28">
<path d="M0,0 L28,0 L28,28 L0,28 Z " fill="#020202" transform="translate(0,0)"/>
<path d="M0,0 L2,0 L0,5 L-3,10 L-2,11 L4,9 L8,11 L7,18 L3,20 L-4,20 L-7,17 L-6,9 L-1,1 Z " fill="#DBDBDB" transform="translate(15,2)"/>
<path d="M0,0 L2,0 L0,5 L-3,10 L-4,16 L-7,17 L-6,9 L-1,1 Z " fill="#D0D0D0" transform="translate(15,2)"/>
<path d="M0,0 L5,0 L6,4 L2,6 L-2,5 Z " fill="#121212" transform="translate(15,14)"/>
<path d="M0,0 L1,0 L2,5 L7,6 L6,8 L-1,8 L-3,6 L-3,1 Z " fill="#F7F7F7" transform="translate(12,14)"/>
</svg>
