<?xml version="1.0" encoding="UTF-8"?>
<svg version="1.1" xmlns="http://www.w3.org/2000/svg" width="28" height="28">
<path d="M0,0 L28,0 L28,28 L0,28 Z " fill="#030303" transform="translate(0,0)"/>
<path d="M0,0 L1,0 L1,5 L0,9 L5,9 L6,10 L6,15 L2,19 L-2,20 L-5,19 L-6,17 L-5,8 L-2,2 Z " fill="#E9E9E9" transform="translate(15,3)"/>
<path d="M0,0 L2,2 L9,0 L9,4 L6,6 L5,9 L1,8 L0,6 Z " fill="#DDDDDD" transform="translate(9,14)"/>
<path d="M0,0 L1,4 L-5,5 L-5,2 Z " fill="#1F1F1F" transform="translate(17,14)"/>
</svg>
