<?xml version="1.0" encoding="UTF-8"?>
<svg version="1.1" xmlns="http://www.w3.org/2000/svg" width="28" height="28">
<path d="M0,0 L28,0 L28,28 L0,28 Z " fill="#030303" transform="translate(0,0)"/>
<path d="M0,0 L3,1 L3,3 L0,3 L-2,9 L-2,13 L3,9 L9,10 L10,17 L5,20 L-3,20 L-7,16 L-6,9 L-3,2 Z " fill="#E8E8E8" transform="translate(14,2)"/>
<path d="M0,0 L6,1 L7,8 L2,10 L2,8 L-2,8 L-3,5 L-5,6 L-3,2 Z " fill="#E1E1E1" transform="translate(17,11)"/>
<path d="M0,0 L4,0 L4,4 L-2,5 L-1,1 Z " fill="#161616" transform="translate(17,14)"/>
</svg>
