<?xml version="1.0" encoding="UTF-8"?>
<svg version="1.1" xmlns="http://www.w3.org/2000/svg" width="28" height="28">
<path d="M0,0 L28,0 L28,28 L0,28 Z " fill="#020202" transform="translate(0,0)"/>
<path d="M0,0 L3,0 L0,12 L3,10 L7,10 L7,15 L5,18 L-2,20 L-4,17 L-3,6 Z " fill="#E4E4E4" transform="translate(14,3)"/>
<path d="M0,0 L3,0 L0,11 L0,14 L-2,14 L-3,6 Z " fill="#D3D3D3" transform="translate(14,3)"/>
<path d="M0,0 L4,0 L4,5 L-3,7 L-3,2 Z " fill="#7E7E7E" transform="translate(17,13)"/>
</svg>
