<?xml version="1.0" encoding="UTF-8"?>
<svg version="1.1" xmlns="http://www.w3.org/2000/svg" width="28" height="28">
<path d="M0,0 L28,0 L28,28 L0,28 Z " fill="#010101" transform="translate(0,0)"/>
<path d="M0,0 L3,0 L1,4 L-4,11 L-5,17 L-3,17 L-2,10 L0,8 L5,9 L5,15 L1,19 L-6,20 L-8,18 L-7,10 L-1,1 Z " fill="#D7D7D7" transform="translate(16,3)"/>
<path d="M0,0 L5,1 L5,7 L1,10 L-1,8 L-2,2 Z " fill="#A1A1A1" transform="translate(16,11)"/>
<path d="M0,0 L2,0 L4,7 L-3,8 L-4,5 L0,5 Z " fill="#EDEDED" transform="translate(13,15)"/>
<path d="M0,0 L5,0 L0,5 L-1,10 L-3,10 L-3,4 Z " fill="#1C1C1C" transform="translate(14,10)"/>
</svg>
