<?xml version="1.0" encoding="UTF-8"?>
<svg version="1.1" xmlns="http://www.w3.org/2000/svg" width="28" height="28">
<path d="M0,0 L28,0 L28,28 L0,28 Z " fill="#030303" transform="translate(0,0)"/>
<path d="M0,0 L2,0 L1,5 L-5,9 L-7,9 L-8,11 L-10,10 L-9,5 L-7,1 L-5,1 L-7,6 L-2,1 Z " fill="#D9D9D9" transform="translate(18,12)"/>
<path d="M0,0 L2,0 L1,4 L-7,10 L-5,6 L-4,4 L-2,4 Z " fill="#979797" transform="translate(20,3)"/>
<path d="M0,0 L2,0 L2,4 L-4,6 L-2,1 Z " fill="#A9A9A9" transform="translate(18,12)"/>
</svg>
