<?xml version="1.0" encoding="UTF-8"?>
<svg version="1.1" xmlns="http://www.w3.org/2000/svg" width="28" height="28">
<path d="M0,0 L28,0 L28,28 L0,28 Z " fill="#010101" transform="translate(0,0)"/>
<path d="M0,0 L3,0 L3,2 L-5,8 L-6,13 L-4,11 L1,12 L2,18 L-1,20 L-6,19 L-9,17 L-9,9 L-4,3 Z " fill="#CDCDCD" transform="translate(18,3)"/>
<path d="M0,0 L2,0 L1,5 L-5,6 L-7,3 L-1,3 Z " fill="#DEDEDE" transform="translate(18,17)"/>
<path d="M0,0 L3,0 L4,4 L0,5 L-2,4 Z " fill="#2D2D2D" transform="translate(14,16)"/>
</svg>
