<?xml version="1.0" encoding="UTF-8"?>
<svg version="1.1" xmlns="http://www.w3.org/2000/svg" width="28" height="28">
<path d="M0,0 L28,0 L28,28 L0,28 Z " fill="#020202" transform="translate(0,0)"/>
<path d="M0,0 L2,0 L1,6 L-1,6 L-1,13 L2,15 L3,9 L6,7 L12,7 L15,9 L15,15 L13,18 L9,20 L0,19 L-4,16 L-5,9 Z " fill="#E8E8E8" transform="translate(10,2)"/>
<path d="M0,0 L6,0 L9,2 L8,6 L6,6 L6,8 L4,9 L-2,9 L-4,8 L-3,2 Z " fill="#DEDEDE" transform="translate(16,9)"/>
<path d="M0,0 L2,0 L1,6 L-1,6 L-2,10 L-3,13 L-5,13 L-4,6 Z " fill="#CECECE" transform="translate(10,2)"/>
<path d="M0,0 L5,0 L6,4 L0,5 L-1,1 Z " fill="#0F0F0F" transform="translate(16,13)"/>
</svg>
