<?xml version="1.0" encoding="UTF-8"?>
<svg version="1.1" xmlns="http://www.w3.org/2000/svg" width="28" height="28">
<path d="M0,0 L28,0 L28,28 L0,28 Z " fill="#040404" transform="translate(0,0)"/>
<path d="M0,0 L3,0 L2,4 L1,5 L1,14 L2,17 L4,17 L5,11 L7,9 L12,10 L13,11 L13,17 L10,20 L2,19 L-3,15 L-3,4 Z " fill="#F0F0F0" transform="translate(11,3)"/>
<path d="M0,0 L5,1 L6,2 L6,8 L3,11 L-1,10 L-3,4 Z " fill="#D0D0D0" transform="translate(18,12)"/>
<path d="M0,0 L2,2 L2,6 L-3,6 L-1,1 Z " fill="#171717" transform="translate(20,15)"/>
<path d="M0,0 L3,0 L2,4 L-2,5 Z " fill="#DADADA" transform="translate(11,3)"/>
</svg>
