<?xml version="1.0" encoding="UTF-8"?>
<svg version="1.1" xmlns="http://www.w3.org/2000/svg" width="28" height="28">
<path d="M0,0 L28,0 L28,28 L0,28 Z " fill="#020202" transform="translate(0,0)"/>
<path d="M0,0 L2,0 L1,8 L1,11 L4,9 L9,10 L9,16 L8,12 L3,14 L2,18 L6,19 L0,20 L-4,16 L-4,5 Z " fill="#E8E8E8" transform="translate(13,3)"/>
<path d="M0,0 L1,0 L1,7 L-1,7 L-1,9 L-7,8 L-6,3 L-1,2 Z " fill="#9D9D9D" transform="translate(22,13)"/>
<path d="M0,0 L4,0 L4,4 L-1,4 Z " fill="#111111" transform="translate(16,16)"/>
</svg>
