<?xml version="1.0" encoding="UTF-8"?>
<svg version="1.1" xmlns="http://www.w3.org/2000/svg" width="28" height="28">
<path d="M0,0 L28,0 L28,28 L0,28 Z " fill="#020202" transform="translate(0,0)"/>
<path d="M0,0 L2,0 L1,5 L-7,15 L-7,17 L-2,11 L2,11 L1,16 L-4,20 L-11,20 L-10,14 Z " fill="#E2E2E2" transform="translate(18,2)"/>
<path d="M0,0 L3,1 L1,5 L-4,6 L-2,2 Z M-5,6 Z " fill="#C6C6C6" transform="translate(16,13)"/>
<path d="M0,0 L3,1 L-3,8 L-4,6 Z " fill="#353535" transform="translate(13,13)"/>
</svg>
