<?xml version="1.0" encoding="UTF-8"?>
<svg version="1.1" xmlns="http://www.w3.org/2000/svg" width="28" height="28">
<path d="M0,0 L28,0 L28,28 L0,28 Z " fill="#030303" transform="translate(0,0)"/>
<path d="M0,0 L2,0 L1,8 L-3,16 L0,17 L1,14 L5,11 L10,11 L11,14 L9,18 L6,20 L-5,20 L-7,19 L-7,14 L-3,8 Z " fill="#E4E4E4" transform="translate(13,1)"/>
<path d="M0,0 L5,0 L6,3 L1,6 L-5,5 Z " fill="#9E9E9E" transform="translate(18,12)"/>
<path d="M0,0 L2,0 L1,8 L-2,6 Z " fill="#C7C7C7" transform="translate(13,1)"/>
</svg>
