<?xml version="1.0" encoding="UTF-8"?>
<svg version="1.1" xmlns="http://www.w3.org/2000/svg" width="28" height="28">
<path d="M0,0 L28,0 L28,28 L0,28 Z " fill="#020202" transform="translate(0,0)"/>
<path d="M0,0 L1,0 L2,12 L3,15 L5,16 L5,10 L9,8 L11,14 L8,20 L2,17 L-1,11 L-1,2 Z " fill="#C9C9C9" transform="translate(10,2)"/>
<path d="M0,0 L3,1 L4,6 L-1,8 L-2,2 Z " fill="#9F9F9F" transform="translate(17,10)"/>
<path d="M0,0 L1,2 L5,1 L3,6 L-2,4 L-2,2 L0,2 Z " fill="#EDEDED" transform="translate(15,16)"/>
</svg>
