<?xml version="1.0" encoding="UTF-8"?>
<svg version="1.1" xmlns="http://www.w3.org/2000/svg" width="28" height="28">
<path d="M0,0 L28,0 L28,28 L0,28 Z " fill="#020202" transform="translate(0,0)"/>
<path d="M0,0 L2,0 L0,4 L-3,7 L-5,7 L-7,11 L-11,16 L-12,18 L-9,17 L-5,11 L0,12 L-2,16 L-8,20 L-13,20 L-14,15 L-7,7 Z " fill="#CACACA" transform="translate(21,2)"/>
<path d="M0,0 L2,0 L0,4 L-3,7 L-5,7 L-7,11 L-11,14 L-10,10 Z " fill="#E0E0E0" transform="translate(21,2)"/>
<path d="M0,0 L5,1 L3,5 L0,7 L-2,5 L1,2 Z " fill="#A8A8A8" transform="translate(16,13)"/>
<path d="M0,0 L3,1 L0,4 L0,7 L-4,6 Z " fill="#EBEBEB" transform="translate(15,14)"/>
</svg>
