<?xml version="1.0" encoding="UTF-8"?>
<svg version="1.1" xmlns="http://www.w3.org/2000/svg" width="28" height="28">
<path d="M0,0 L28,0 L28,28 L0,28 Z " fill="#030303" transform="translate(0,0)"/>
<path d="M0,0 L1,4 L-1,4 L-3,9 L-9,17 L-6,17 L-5,14 L-3,14 L-3,12 L-1,11 L5,11 L6,16 L3,19 L0,20 L-9,20 L-12,18 L-11,13 L-2,2 L0,2 Z " fill="#E6E6E6" transform="translate(18,1)"/>
<path d="M0,0 L6,0 L7,5 L4,5 L0,7 L-5,6 L-4,3 L-2,3 L-2,1 Z " fill="#CECECE" transform="translate(17,12)"/>
<path d="M0,0 L4,0 L3,3 L-3,5 L-2,1 Z " fill="#212121" transform="translate(18,14)"/>
</svg>
