<?xml version="1.0" encoding="UTF-8"?>
<svg version="1.1" xmlns="http://www.w3.org/2000/svg" width="28" height="28">
<path d="M0,0 L28,0 L28,28 L0,28 Z " fill="#010101" transform="translate(0,0)"/>
<path d="M0,0 L1,2 L0,4 L3,5 L2,8 L2,6 L-3,10 L-4,12 L2,10 L-1,14 L-5,13 L-4,7 Z " fill="#909090" transform="translate(14,9)"/>
<path d="M0,0 L2,0 L3,4 L-4,6 L-2,2 Z " fill="#292929" transform="translate(14,15)"/>
<path d="M0,0 L1,3 L0,5 L6,3 L3,7 L-1,6 Z " fill="#C0C0C0" transform="translate(10,16)"/>
<path d="M0,0 L3,1 L3,3 L-1,6 L-3,6 L-1,1 Z " fill="#8C8C8C" transform="translate(18,3)"/>
</svg>
