<?xml version="1.0" encoding="UTF-8"?>
<svg version="1.1" xmlns="http://www.w3.org/2000/svg" width="28" height="28">
<path d="M0,0 L28,0 L28,28 L0,28 Z " fill="#030303" transform="translate(0,0)"/>
<path d="M0,0 L2,0 L0,9 L-2,17 L1,16 L4,11 L6,11 L7,8 L13,8 L13,13 L8,19 L6,20 L-1,20 L-5,16 L-4,8 Z " fill="#E7E7E7" transform="translate(11,2)"/>
<path d="M0,0 L6,0 L6,5 L2,9 L-4,9 L-7,9 L-3,3 L-1,3 Z " fill="#D9D9D9" transform="translate(18,10)"/>
<path d="M0,0 L2,0 L0,5 L-4,6 L-2,2 Z " fill="#262626" transform="translate(19,13)"/>
</svg>
