<?xml version="1.0" encoding="UTF-8"?>
<svg version="1.1" xmlns="http://www.w3.org/2000/svg" width="28" height="28">
<path d="M0,0 L28,0 L28,28 L0,28 Z " fill="#010101" transform="translate(0,0)"/>
<path d="M0,0 L1,2 L-2,8 L-2,11 L4,12 L3,17 L-2,20 L-6,18 L-6,11 L-4,4 Z " fill="#ECECEC" transform="translate(17,3)"/>
<path d="M0,0 L2,2 L8,3 L7,8 L4,10 L1,9 Z " fill="#BABABA" transform="translate(13,12)"/>
<path d="M0,0 L1,2 L-2,8 L-5,8 L-3,3 Z " fill="#D5D5D5" transform="translate(17,3)"/>
<path d="M0,0 L4,0 L2,4 L-1,5 Z " fill="#1D1D1D" transform="translate(15,16)"/>
</svg>
