<?xml version="1.0" encoding="UTF-8"?>
<svg version="1.1" xmlns="http://www.w3.org/2000/svg" width="28" height="28">
<path d="M0,0 L28,0 L28,28 L0,28 Z " fill="#050505" transform="translate(0,0)"/>
<path d="M0,0 L2,1 L-1,6 L-7,14 L-8,16 L-3,13 L-1,11 L7,10 L9,13 L9,19 L7,15 L2,19 L-8,20 L-11,18 L-10,11 L-3,4 Z " fill="#E0E0E0" transform="translate(16,2)"/>
<path d="M0,0 L3,1 L6,3 L3,6 L-3,7 L-4,4 Z " fill="#C7C7C7" transform="translate(15,13)"/>
<path d="M0,0 L4,1 L1,4 L-4,4 Z " fill="#161616" transform="translate(17,15)"/>
</svg>
