<?xml version="1.0" encoding="UTF-8"?>
<svg version="1.1" xmlns="http://www.w3.org/2000/svg" width="28" height="28">
<path d="M0,0 L28,0 L28,28 L0,28 Z " fill="#010101" transform="translate(0,0)"/>
<path d="M0,0 L2,1 L0,10 L4,11 L8,15 L7,19 L1,20 L-2,15 L-2,5 Z " fill="#D2D2D2" transform="translate(13,2)"/>
<path d="M0,0 L2,1 L1,11 L1,17 L4,18 L4,20 L0,19 L-2,15 L-2,5 Z " fill="#FCFCFC" transform="translate(13,2)"/>
<path d="M0,0 L2,1 L0,9 L-2,10 L-1,1 Z " fill="#C2C2C2" transform="translate(13,2)"/>
<path d="M0,0 L4,2 L5,5 L0,5 Z " fill="#0A0A0A" transform="translate(13,14)"/>
</svg>
