<?xml version="1.0" encoding="UTF-8"?>
<svg version="1.1" xmlns="http://www.w3.org/2000/svg" width="28" height="28">
<path d="M0,0 L28,0 L28,28 L0,28 Z " fill="#010101" transform="translate(0,0)"/>
<path d="M0,0 L1,2 L-1,6 L-3,6 L-4,14 L4,10 L7,11 L7,16 L2,20 L-3,20 L-4,17 L-6,17 L-6,10 L-2,2 Z " fill="#BFBFBF" transform="translate(15,1)"/>
<path d="M0,0 L3,1 L1,5 L-4,6 L-3,2 Z " fill="#121212" transform="translate(18,13)"/>
<path d="M0,0 L3,1 L3,6 L0,6 L1,3 L-3,4 L-5,2 Z " fill="#CCCCCC" transform="translate(19,11)"/>
</svg>
