<?xml version="1.0" encoding="UTF-8"?>
<svg version="1.1" xmlns="http://www.w3.org/2000/svg" width="28" height="28">
<path d="M0,0 L28,0 L28,28 L0,28 Z " fill="#020202" transform="translate(0,0)"/>
<path d="M0,0 L1,3 L-5,13 L-1,12 L1,13 L0,18 L-3,20 L-10,20 L-12,19 L-12,16 L-10,16 L-8,12 Z " fill="#7D7D7D" transform="translate(19,1)"/>
<path d="M0,0 L5,1 L4,6 L1,8 L-6,8 L-8,7 L-8,4 L-4,3 L-3,5 L2,4 L3,2 L-1,1 Z " fill="#DADADA" transform="translate(15,13)"/>
<path d="M0,0 L1,3 L-5,12 L-8,12 Z " fill="#DBDBDB" transform="translate(19,1)"/>
</svg>
