<?xml version="1.0" encoding="UTF-8"?>
<svg version="1.1" xmlns="http://www.w3.org/2000/svg" width="28" height="28">
<path d="M0,0 L28,0 L28,28 L0,28 Z " fill="#020202" transform="translate(0,0)"/>
<path d="M0,0 L2,0 L1,5 L-1,7 L4,8 L5,1 L7,1 L7,10 L4,14 L3,19 L0,20 L1,13 L2,10 L-7,12 L-7,8 Z " fill="#EAEAEA" transform="translate(14,5)"/>
<path d="M0,0 L2,0 L1,5 L-1,7 L0,9 L-4,8 L-8,11 L-6,7 Z " fill="#CDCDCD" transform="translate(14,5)"/>
<path d="M0,0 L3,1 L2,8 L-4,8 Z " fill="#202020" transform="translate(16,5)"/>
</svg>
