<?xml version="1.0" encoding="UTF-8"?>
<svg version="1.1" xmlns="http://www.w3.org/2000/svg" width="28" height="28">
<path d="M0,0 L28,0 L28,28 L0,28 Z " fill="#040404" transform="translate(0,0)"/>
<path d="M0,0 L5,0 L4,8 L7,10 L7,12 L2,13 L-1,20 L-3,20 L-2,13 L-7,15 L-13,15 L-12,11 L-4,3 Z " fill="#EFEFEF" transform="translate(17,5)"/>
<path d="M0,0 L3,1 L1,2 L2,6 L-1,11 L-8,12 L-7,10 L-5,10 L-5,8 L-2,8 L-1,4 L-9,11 L-13,13 L-7,6 Z " fill="#C7C7C7" transform="translate(17,5)"/>
<path d="M0,0 L1,3 L-1,7 L-8,8 L-7,6 L-5,6 L-5,4 L-2,4 Z " fill="#323232" transform="translate(17,9)"/>
</svg>
