<?xml version="1.0" encoding="UTF-8"?>
<svg version="1.1" xmlns="http://www.w3.org/2000/svg" width="28" height="28">
<path d="M0,0 L28,0 L28,28 L0,28 Z " fill="#020202" transform="translate(0,0)"/>
<path d="M0,0 L2,0 L1,8 L4,8 L4,10 L-1,11 L-2,18 L-3,20 L-5,20 L-4,11 L-6,12 L-12,12 L-10,8 L-5,3 Z " fill="#E6E6E6" transform="translate(18,6)"/>
<path d="M0,0 L3,1 L1,1 L0,5 L-2,9 L-4,9 L-5,6 Z " fill="#EFEFEF" transform="translate(15,7)"/>
<path d="M0,0 L2,0 L2,5 L0,2 Z M-2,2 L0,2 L-2,8 L-6,9 Z " fill="#8F8F8F" transform="translate(18,6)"/>
</svg>
