<?xml version="1.0" encoding="UTF-8"?>
<svg version="1.1" xmlns="http://www.w3.org/2000/svg" width="28" height="28">
<path d="M0,0 L28,0 L28,28 L0,28 Z " fill="#020202" transform="translate(0,0)"/>
<path d="M0,0 L2,0 L-1,10 L2,11 L1,13 L-2,13 L-5,20 L-7,20 L-6,13 L-9,12 L-7,7 L-4,4 L-2,4 Z " fill="#EBEBEB" transform="translate(18,5)"/>
<path d="M0,0 L2,0 L-1,10 L-7,8 L-5,4 L-2,4 Z " fill="#C2C2C2" transform="translate(18,5)"/>
<path d="M0,0 L3,0 L2,5 L1,7 L-1,7 Z " fill="#BBBBBB" transform="translate(12,18)"/>
</svg>
