<?xml version="1.0" encoding="UTF-8"?>
<svg version="1.1" xmlns="http://www.w3.org/2000/svg" width="28" height="28">
<path d="M0,0 L28,0 L28,28 L0,28 Z " fill="#020202" transform="translate(0,0)"/>
<path d="M0,0 L3,0 L4,9 L10,9 L10,11 L4,12 L4,18 L2,18 L0,13 L-9,14 L-9,10 Z " fill="#E4E4E4" transform="translate(15,5)"/>
<path d="M0,0 L2,3 L2,10 L-7,12 L-8,9 L-1,1 Z " fill="#B7B7B7" transform="translate(15,5)"/>
<path d="M0,0 L1,0 L1,6 L0,7 L-6,7 Z " fill="#111111" transform="translate(15,9)"/>
</svg>
