<?xml version="1.0" encoding="UTF-8"?>
<svg version="1.1" xmlns="http://www.w3.org/2000/svg" width="28" height="28">
<path d="M0,0 L28,0 L28,28 L0,28 Z " fill="#030303" transform="translate(0,0)"/>
<path d="M0,0 L2,0 L-1,10 L4,8 L8,8 L9,6 L8,10 L3,12 L-1,12 L-1,15 L-10,13 L-11,9 L-5,1 L-3,1 L-5,6 L-9,11 L-4,11 L-2,1 Z " fill="#EBEBEB" transform="translate(17,6)"/>
<path d="M0,0 L1,0 L0,8 L-5,8 L-3,4 Z " fill="#1E1E1E" transform="translate(13,9)"/>
<path d="M0,0 L2,0 L0,8 L-4,10 L-2,1 Z " fill="#C9C9C9" transform="translate(17,6)"/>
<path d="M0,0 L1,3 L-5,6 L-7,6 L-7,4 L-4,2 L0,2 Z " fill="#CBCBCB" transform="translate(25,12)"/>
</svg>
