<?xml version="1.0" encoding="UTF-8"?>
<svg version="1.1" xmlns="http://www.w3.org/2000/svg" width="28" height="28">
<path d="M0,0 L28,0 L28,28 L0,28 Z " fill="#020202" transform="translate(0,0)"/>
<path d="M0,0 L2,1 L0,11 L3,10 L3,12 L0,13 L-3,20 L-4,20 L-3,13 L-13,12 L-12,9 L-3,3 L-1,3 Z " fill="#CFCFCF" transform="translate(18,5)"/>
<path d="M0,0 L1,3 L4,2 L4,4 L1,5 L-2,12 L-3,12 L-2,5 L-12,4 L-11,1 L-7,1 L-7,3 L-1,3 Z " fill="#D2D2D2" transform="translate(17,13)"/>
<path d="M0,0 L1,0 L1,6 L-4,6 L-2,2 Z " fill="#1A1A1A" transform="translate(15,10)"/>
<path d="M0,0 L4,0 L4,2 L7,3 L-1,3 Z " fill="#EAEAEA" transform="translate(6,14)"/>
</svg>
