<?xml version="1.0" encoding="UTF-8"?>
<svg version="1.1" xmlns="http://www.w3.org/2000/svg" width="28" height="28">
<path d="M0,0 L28,0 L28,28 L0,28 Z " fill="#040404" transform="translate(0,0)"/>
<path d="M0,0 L2,0 L2,8 L0,13 L-1,19 L-4,20 L-3,12 L-8,13 L-15,13 L-16,8 L-12,1 L-9,2 L-13,10 L-10,9 L-2,9 L-1,1 Z " fill="#E5E5E5" transform="translate(20,5)"/>
<path d="M0,0 L3,1 L-1,9 L-3,9 L-2,3 Z " fill="#F1F1F1" transform="translate(8,6)"/>
<path d="M0,0 L1,2 L5,3 L8,5 L1,5 Z " fill="#B8B8B8" transform="translate(4,13)"/>
</svg>
