<?xml version="1.0" encoding="UTF-8"?>
<svg version="1.1" xmlns="http://www.w3.org/2000/svg" width="28" height="28">
<path d="M0,0 L28,0 L28,28 L0,28 Z " fill="#030303" transform="translate(0,0)"/>
<path d="M0,0 L2,0 L-1,11 L-3,11 L-5,16 L-7,16 L-8,20 L-10,20 L-9,16 L-6,12 L-14,11 L-14,7 L-10,6 L-9,3 L-7,4 L-8,7 L-10,7 L-10,9 L-4,8 Z " fill="#E3E3E3" transform="translate(21,5)"/>
<path d="M0,0 L2,1 L1,4 L-1,4 L0,7 L-3,6 L-5,8 L-5,4 L-1,3 Z " fill="#C2C2C2" transform="translate(12,8)"/>
<path d="M0,0 L3,1 L2,3 L0,3 L-1,7 L-3,7 L-2,3 Z " fill="#C3C3C3" transform="translate(14,18)"/>
</svg>
