<?xml version="1.0" encoding="UTF-8"?>
<svg version="1.1" xmlns="http://www.w3.org/2000/svg" width="28" height="28">
<path d="M0,0 L28,0 L28,28 L0,28 Z " fill="#020202" transform="translate(0,0)"/>
<path d="M0,0 L2,0 L3,6 L0,13 L4,13 L6,4 L8,4 L7,14 L12,15 L12,16 L6,16 L6,20 L4,20 L4,16 L-8,18 L-8,15 L-3,13 L-1,8 Z " fill="#DCDCDC" transform="translate(12,3)"/>
<path d="M0,0 L4,0 L3,7 L0,8 L-2,7 Z " fill="#1E1E1E" transform="translate(14,9)"/>
<path d="M0,0 L2,0 L3,6 L1,11 L-1,11 Z " fill="#C3C3C3" transform="translate(12,3)"/>
</svg>
