<?xml version="1.0" encoding="UTF-8"?>
<svg version="1.1" xmlns="http://www.w3.org/2000/svg" width="28" height="28">
<path d="M0,0 L28,0 L28,28 L0,28 Z " fill="#020202" transform="translate(0,0)"/>
<path d="M0,0 L2,0 L1,9 L-1,17 L-2,20 L-5,19 L-5,17 L-11,17 L-10,12 L-8,8 L-7,12 L-8,14 L-3,12 Z " fill="#E2E2E2" transform="translate(19,2)"/>
<path d="M0,0 L1,4 L0,6 L3,7 L1,9 L-3,9 L-2,4 Z " fill="#F1F1F1" transform="translate(11,10)"/>
<path d="M0,0 L2,0 L1,9 L-1,6 Z " fill="#B1B1B1" transform="translate(19,2)"/>
</svg>
