<?xml version="1.0" encoding="UTF-8"?>
<svg version="1.1" xmlns="http://www.w3.org/2000/svg" width="28" height="28">
<path d="M0,0 L28,0 L28,28 L0,28 Z " fill="#040404" transform="translate(0,0)"/>
<path d="M0,0 L2,0 L-1,12 L4,11 L11,1 L12,5 L8,14 L6,20 L4,20 L4,15 L3,16 L-2,16 L-4,14 L-4,7 L-1,1 Z " fill="#D7D7D7" transform="translate(11,4)"/>
<path d="M0,0 L1,4 L-1,10 L-3,10 L-2,2 Z " fill="#F3F3F3" transform="translate(18,14)"/>
<path d="M0,0 L2,4 L2,6 L4,6 L4,8 L0,7 L-1,6 L-1,1 Z " fill="#F5F5F5" transform="translate(8,12)"/>
</svg>
