<?xml version="1.0" encoding="UTF-8"?>
<svg version="1.1" xmlns="http://www.w3.org/2000/svg" width="28" height="28">
<path d="M0,0 L28,0 L28,28 L0,28 Z " fill="#030303" transform="translate(0,0)"/>
<path d="M0,0 L2,0 L3,8 L6,8 L4,20 L2,20 L1,13 L-3,14 L-12,14 L-13,13 L-13,2 L-10,2 L-10,11 L0,10 L-1,1 Z " fill="#E7E7E7" transform="translate(18,5)"/>
<path d="M0,0 L2,1 L2,9 L-1,10 L-1,1 Z " fill="#D6D6D6" transform="translate(6,6)"/>
<path d="M0,0 L2,0 L3,6 L1,6 L0,10 L-1,1 Z " fill="#C6C6C6" transform="translate(18,5)"/>
</svg>
