<?xml version="1.0" encoding="UTF-8"?>
<svg version="1.1" xmlns="http://www.w3.org/2000/svg" width="28" height="28">
<path d="M0,0 L28,0 L28,28 L0,28 Z " fill="#030303" transform="translate(0,0)"/>
<path d="M0,0 L3,0 L3,6 L2,8 L5,9 L5,12 L-1,14 L-4,20 L-6,20 L-5,15 L-4,13 L-11,13 L-10,8 Z " fill="#DADADA" transform="translate(17,5)"/>
<path d="M0,0 L5,1 L5,4 L-1,6 L-4,12 L-6,12 L-5,7 L-4,5 L-11,5 L-11,2 L-2,1 Z " fill="#E8E8E8" transform="translate(17,13)"/>
<path d="M0,0 L1,3 L-1,6 L-7,7 L-3,2 Z " fill="#141414" transform="translate(16,9)"/>
</svg>
