<?xml version="1.0" encoding="UTF-8"?>
<svg version="1.1" xmlns="http://www.w3.org/2000/svg" width="28" height="28">
<path d="M0,0 L28,0 L28,28 L0,28 Z " fill="#010101" transform="translate(0,0)"/>
<path d="M0,0 L2,1 L-3,6 L-6,8 L-1,9 L0,5 L3,2 L5,2 L3,6 L2,8 L8,10 L8,12 L-2,12 L-4,18 L-7,18 L-5,12 L-11,12 L-11,8 Z " fill="#C9C9C9" transform="translate(17,6)"/>
<path d="M0,0 L2,1 L-3,6 L-8,8 L-8,10 L-3,10 L-3,11 L-12,11 L-10,7 Z " fill="#D8D8D8" transform="translate(17,6)"/>
<path d="M0,0 L2,2 L-1,5 L-2,8 L-8,8 L-4,4 Z " fill="#1D1D1D" transform="translate(18,7)"/>
<path d="M0,0 L3,1 L2,3 L7,3 L7,4 L-2,4 Z " fill="#F9F9F9" transform="translate(7,13)"/>
</svg>
