<?xml version="1.0" encoding="UTF-8"?>
<svg version="1.1" xmlns="http://www.w3.org/2000/svg" width="28" height="28">
<path d="M0,0 L28,0 L28,28 L0,28 Z " fill="#030303" transform="translate(0,0)"/>
<path d="M0,0 L2,0 L1,4 L-1,4 L-1,9 L-5,10 L-7,16 L-9,16 L-9,19 L-12,19 L-11,14 L-9,10 L-18,10 L-17,6 L-15,6 L-15,4 L-10,2 L-9,4 L-11,4 L-11,6 L-6,6 L-1,1 Z " fill="#E8E8E8" transform="translate(23,6)"/>
<path d="M0,0 L3,1 L3,4 L1,4 L1,7 L-2,7 L-1,2 Z " fill="#D1D1D1" transform="translate(13,18)"/>
</svg>
