<?xml version="1.0" encoding="UTF-8"?>
<svg version="1.1" xmlns="http://www.w3.org/2000/svg" width="28" height="28">
<path d="M0,0 L28,0 L28,28 L0,28 Z " fill="#020202" transform="translate(0,0)"/>
<path d="M0,0 L3,1 L-5,14 L-8,20 L-10,20 L-9,14 L-8,12 L-15,11 L-14,6 L-11,3 L-9,3 L-10,7 L-4,7 L-4,5 L-2,5 Z " fill="#F4F4F4" transform="translate(22,5)"/>
<path d="M0,0 L2,0 L1,4 L6,4 L3,7 L-2,5 L-4,6 L-2,2 Z " fill="#BFBFBF" transform="translate(11,8)"/>
<path d="M0,0 L3,1 L-2,9 L-4,5 L-2,5 Z " fill="#C8C8C8" transform="translate(22,5)"/>
<path d="M0,0 L2,0 L2,5 L0,8 L-2,8 L-1,2 Z " fill="#DCDCDC" transform="translate(14,17)"/>
</svg>
