<?xml version="1.0" encoding="UTF-8"?>
<svg version="1.1" xmlns="http://www.w3.org/2000/svg" width="28" height="28">
<path d="M0,0 L28,0 L28,28 L0,28 Z " fill="#020202" transform="translate(0,0)"/>
<path d="M0,0 L2,1 L-1,5 L0,6 L0,12 L3,13 L-1,13 L-3,20 L-4,20 L-4,15 L-13,13 L-13,11 L-7,7 Z " fill="#171717" transform="translate(18,5)"/>
<path d="M0,0 L1,0 L1,6 L4,7 L0,7 L-2,14 L-3,14 L-3,9 L-12,7 L-12,5 L-8,4 L-8,5 L-1,6 Z " fill="#C0C0C0" transform="translate(17,11)"/>
<path d="M0,0 L2,1 L-2,6 L-4,6 L-4,8 L-9,10 L-3,3 Z " fill="#C7C7C7" transform="translate(18,5)"/>
</svg>
