<?xml version="1.0" encoding="UTF-8"?>
<svg version="1.1" xmlns="http://www.w3.org/2000/svg" width="28" height="28">
<path d="M0,0 L28,0 L28,28 L0,28 Z " fill="#010101" transform="translate(0,0)"/>
<path d="M0,0 L3,1 L5,15 L5,20 L2,19 L2,14 L-9,14 L-11,12 L-11,5 L-9,5 L-8,1 L-6,1 L-8,11 L0,11 Z " fill="#E8E8E8" transform="translate(17,5)"/>
<path d="M0,0 L2,0 L0,10 L8,10 L9,6 L9,11 L3,12 L-1,13 L-3,11 L-3,4 L-1,4 Z " fill="#9F9F9F" transform="translate(9,6)"/>
<path d="M0,0 L2,0 L1,5 L-1,10 L-2,10 L-2,4 Z " fill="#CFCFCF" transform="translate(9,6)"/>
</svg>
