<?xml version="1.0" encoding="UTF-8"?>
<svg version="1.1" xmlns="http://www.w3.org/2000/svg" width="28" height="28">
<path d="M0,0 L28,0 L28,28 L0,28 Z " fill="#020202" transform="translate(0,0)"/>
<path d="M0,0 L2,0 L2,8 L1,10 L4,10 L4,13 L2,13 L2,20 L0,20 L0,12 L-8,12 L-14,10 L-10,6 Z " fill="#CCCCCC" transform="translate(17,6)"/>
<path d="M0,0 L2,0 L2,8 L0,9 L-1,4 L-7,8 L-7,9 L-1,10 L-1,11 L-11,11 L-14,9 L-6,4 Z " fill="#DFDFDF" transform="translate(17,6)"/>
<path d="M0,0 L1,0 L1,6 L0,7 L-9,6 L-5,3 Z " fill="#212121" transform="translate(16,9)"/>
<path d="M0,0 L2,0 L2,8 L0,9 L-1,1 Z " fill="#EEEEEE" transform="translate(17,6)"/>
</svg>
