<?xml version="1.0" encoding="UTF-8"?>
<svg version="1.1" xmlns="http://www.w3.org/2000/svg" width="28" height="28">
<path d="M0,0 L28,0 L28,28 L0,28 Z " fill="#040404" transform="translate(0,0)"/>
<path d="M0,0 L2,0 L1,5 L-3,13 L-7,19 L-9,19 L-8,14 L-14,14 L-15,10 L-10,1 L-7,1 L-8,5 L-10,10 L-5,8 L-3,4 L-1,4 Z " fill="#F3F3F3" transform="translate(21,5)"/>
<path d="M0,0 L2,0 L1,5 L-1,10 L-4,10 L-7,9 L-4,6 L-3,4 L-1,4 Z " fill="#DDDDDD" transform="translate(21,5)"/>
<path d="M0,0 L3,0 L2,4 L0,9 L-2,7 L-4,8 L-2,3 Z " fill="#D7D7D7" transform="translate(11,6)"/>
</svg>
