<?xml version="1.0" encoding="UTF-8"?>
<svg version="1.1" xmlns="http://www.w3.org/2000/svg" width="28" height="28">
<path d="M0,0 L28,0 L28,28 L0,28 Z " fill="#050505" transform="translate(0,0)"/>
<path d="M0,0 L3,0 L3,10 L9,10 L10,12 L3,12 L3,18 L2,18 L1,12 L-9,11 L-10,8 L-6,8 L-5,4 L-2,3 L-2,1 Z " fill="#E4E4E4" transform="translate(15,6)"/>
<path d="M0,0 L3,0 L3,9 L-5,9 L-5,6 L-3,6 L-4,3 L-2,3 L-2,1 Z " fill="#DADADA" transform="translate(15,6)"/>
<path d="M0,0 L4,0 L4,5 L-2,5 L-2,2 L0,2 Z " fill="#161616" transform="translate(12,10)"/>
</svg>
