<?xml version="1.0" encoding="UTF-8"?>
<svg version="1.1" xmlns="http://www.w3.org/2000/svg" width="28" height="28">
<path d="M0,0 L28,0 L28,28 L0,28 Z " fill="#040404" transform="translate(0,0)"/>
<path d="M0,0 L1,0 L1,7 L0,12 L2,13 L0,13 L0,20 L-2,20 L-2,13 L-15,12 L-16,9 L-12,9 L-13,3 L-10,4 L-10,10 L-1,11 L-1,2 Z " fill="#CCCCCC" transform="translate(20,4)"/>
<path d="M0,0 L1,0 L1,7 L0,12 L2,13 L0,13 L0,20 L-2,20 L-2,13 L-5,12 L-2,11 L-1,2 Z " fill="#EFEFEF" transform="translate(20,4)"/>
</svg>
