<?xml version="1.0" encoding="UTF-8"?>
<svg version="1.1" xmlns="http://www.w3.org/2000/svg" width="28" height="28">
<path d="M0,0 L28,0 L28,28 L0,28 Z " fill="#040404" transform="translate(0,0)"/>
<path d="M0,0 L3,0 L1,4 L1,13 L7,14 L7,16 L2,17 L0,20 L-1,17 L-9,15 L-11,14 L-11,9 L-7,6 L-5,6 L-5,4 Z " fill="#DADADA" transform="translate(17,4)"/>
<path d="M0,0 L2,3 L5,3 L6,5 L14,4 L16,5 L16,7 L11,8 L9,11 L8,8 L0,6 L-2,5 L-1,1 Z " fill="#E8E8E8" transform="translate(8,13)"/>
<path d="M0,0 L3,0 L4,3 L3,5 L1,5 L0,7 L0,4 L-4,5 L-4,2 L0,2 Z " fill="#1A1A1A" transform="translate(13,12)"/>
</svg>
