<?xml version="1.0" encoding="UTF-8"?>
<svg version="1.1" xmlns="http://www.w3.org/2000/svg" width="28" height="28">
<path d="M0,0 L28,0 L28,28 L0,28 Z " fill="#020202" transform="translate(0,0)"/>
<path d="M0,0 L3,0 L3,2 L1,2 L3,7 L3,11 L8,11 L8,14 L3,14 L3,20 L1,20 L0,15 L-10,14 L-10,10 L-7,7 L-5,7 L-4,3 L-2,3 L-2,1 Z " fill="#D5D5D5" transform="translate(16,5)"/>
<path d="M0,0 L3,0 L3,2 L1,2 L2,4 L2,11 L1,11 L0,4 L-2,4 L-2,6 L-4,6 L-5,9 L-6,7 L-4,3 L-2,3 L-2,1 Z " fill="#EBEBEB" transform="translate(16,5)"/>
<path d="M0,0 L2,0 L2,7 L-4,7 L-2,2 L0,2 Z " fill="#0E0E0E" transform="translate(14,9)"/>
<path d="M0,0 L2,3 L7,4 L7,5 L0,5 L-2,5 L-4,6 L-2,2 Z " fill="#A8A8A8" transform="translate(9,12)"/>
</svg>
