<?xml version="1.0" encoding="UTF-8"?>
<svg version="1.1" xmlns="http://www.w3.org/2000/svg" width="28" height="28">
<path d="M0,0 L28,0 L28,28 L0,28 Z " fill="#030303" transform="translate(0,0)"/>
<path d="M0,0 L4,0 L5,5 L4,9 L11,8 L12,3 L15,3 L15,20 L12,19 L12,12 L-1,13 Z " fill="#EFEFEF" transform="translate(7,5)"/>
<path d="M0,0 L4,0 L5,5 L4,9 L10,9 L10,10 L3,10 L2,7 L0,8 Z " fill="#BABABA" transform="translate(7,5)"/>
<path d="M0,0 L4,0 L5,5 L2,5 L2,2 L0,2 Z " fill="#D5D5D5" transform="translate(7,5)"/>
</svg>
