<?xml version="1.0" encoding="UTF-8"?>
<svg version="1.1" xmlns="http://www.w3.org/2000/svg" width="28" height="28">
<path d="M0,0 L28,0 L28,28 L0,28 Z " fill="#010101" transform="translate(0,0)"/>
<path d="M0,0 L3,0 L3,11 L5,11 L4,19 L1,20 L1,13 L-7,13 L-5,8 L-2,4 Z " fill="#B7B7B7" transform="translate(14,5)"/>
<path d="M0,0 L1,0 L1,6 L0,4 L-2,4 L-4,9 L0,11 L-2,12 L-8,12 L-6,7 Z " fill="#F0F0F0" transform="translate(15,6)"/>
<path d="M0,0 L2,0 L3,5 L2,6 L-3,6 Z " fill="#2F2F2F" transform="translate(13,10)"/>
<path d="M0,0 L3,0 L2,8 L0,9 Z " fill="#DDDDDD" transform="translate(16,16)"/>
</svg>
