<?xml version="1.0" encoding="UTF-8"?>
<svg version="1.1" xmlns="http://www.w3.org/2000/svg" width="28" height="28">
<path d="M0,0 L28,0 L28,28 L0,28 Z " fill="#030303" transform="translate(0,0)"/>
<path d="M0,0 L1,0 L1,7 L6,7 L6,9 L-2,12 L-5,18 L-7,18 L-6,12 L-13,11 L-14,8 L-11,4 L-9,4 L-10,8 L-3,8 L-2,4 Z " fill="#EFEFEF" transform="translate(19,6)"/>
<path d="M0,0 L2,0 L1,4 L7,4 L7,5 L-1,5 L-3,6 L-1,1 Z " fill="#CFCFCF" transform="translate(8,10)"/>
<path d="M0,0 L1,0 L1,7 L3,8 L0,8 L0,6 L-3,7 L-1,1 Z " fill="#C2C2C2" transform="translate(19,6)"/>
</svg>
