<?xml version="1.0" encoding="UTF-8"?>
<svg version="1.1" xmlns="http://www.w3.org/2000/svg" width="28" height="28">
<path d="M0,0 L28,0 L28,28 L0,28 Z " fill="#020202" transform="translate(0,0)"/>
<path d="M0,0 L2,0 L0,11 L2,11 L1,14 L-3,15 L-3,20 L-5,20 L-5,15 L-10,14 L-13,12 L-12,8 L-9,2 L-7,2 L-8,7 L-9,11 L-4,12 L-1,2 Z " fill="#CECECE" transform="translate(19,4)"/>
<path d="M0,0 L2,0 L1,5 L0,9 L5,10 L1,12 L-4,10 L-3,6 Z " fill="#B9B9B9" transform="translate(10,6)"/>
<path d="M0,0 L1,2 L3,3 L0,4 L0,9 L-2,9 L-2,4 L-5,4 L-5,2 Z " fill="#EAEAEA" transform="translate(16,15)"/>
<path d="M0,0 L2,0 L1,5 L-2,9 L-1,1 Z " fill="#D3D3D3" transform="translate(10,6)"/>
</svg>
