<?xml version="1.0" encoding="UTF-8"?>
<svg version="1.1" xmlns="http://www.w3.org/2000/svg" width="28" height="28">
<path d="M0,0 L28,0 L28,28 L0,28 Z " fill="#030303" transform="translate(0,0)"/>
<path d="M0,0 L2,1 L0,6 L-2,6 L-2,11 L4,13 L5,8 L8,0 L10,0 L9,6 L7,12 L11,12 L11,10 L13,10 L12,13 L7,15 L6,20 L4,20 L3,15 L-4,14 L-5,13 L-4,6 Z " fill="#D0D0D0" transform="translate(11,4)"/>
<path d="M0,0 L2,0 L2,3 L4,4 L2,8 L2,10 L0,10 L-1,4 L-5,3 L0,3 Z " fill="#E8E8E8" transform="translate(15,14)"/>
</svg>
