<?xml version="1.0" encoding="UTF-8"?>
<svg version="1.1" xmlns="http://www.w3.org/2000/svg" width="28" height="28">
<path d="M0,0 L28,0 L28,28 L0,28 Z " fill="#010101" transform="translate(0,0)"/>
<path d="M0,0 L2,0 L-1,9 L-7,20 L-9,20 L-8,15 L-6,11 L-12,12 L-10,4 L-7,4 L-8,8 L-3,8 L-1,1 Z " fill="#E8E8E8" transform="translate(20,5)"/>
<path d="M0,0 L2,0 L-1,9 L-9,9 L-8,7 L-3,8 L-1,1 Z " fill="#BFBFBF" transform="translate(20,5)"/>
<path d="M0,0 L5,1 L4,6 L2,10 L0,10 L1,5 L3,1 Z " fill="#C4C4C4" transform="translate(11,15)"/>
</svg>
