<?xml version="1.0" encoding="UTF-8"?>
<svg version="1.1" xmlns="http://www.w3.org/2000/svg" width="28" height="28">
<path d="M0,0 L28,0 L28,28 L0,28 Z " fill="#040404" transform="translate(0,0)"/>
<path d="M0,0 L3,1 L3,9 L9,9 L8,11 L2,11 L2,17 L4,17 L4,19 L1,19 L0,12 L-10,13 L-10,9 L-2,2 L0,2 Z " fill="#DFDFDF" transform="translate(16,6)"/>
<path d="M0,0 L2,0 L2,7 L8,7 L7,9 L1,9 L1,15 L3,15 L3,17 L0,17 L-1,10 L-6,10 L-3,7 L-1,7 L-1,1 Z " fill="#EBEBEB" transform="translate(17,8)"/>
<path d="M0,0 L2,0 L2,4 L-4,5 Z " fill="#232323" transform="translate(14,11)"/>
</svg>
