<?xml version="1.0" encoding="UTF-8"?>
<svg version="1.1" xmlns="http://www.w3.org/2000/svg" width="28" height="28">
<path d="M0,0 L28,0 L28,28 L0,28 Z " fill="#030303" transform="translate(0,0)"/>
<path d="M0,0 L1,3 L-1,10 L1,10 L1,12 L-2,12 L-3,17 L-1,18 L-3,20 L-6,20 L-5,12 L-13,12 L-15,11 L-15,4 L-14,2 L-12,2 L-12,8 L-4,8 L-1,1 Z " fill="#CACACA" transform="translate(21,5)"/>
<path d="M0,0 L2,0 L2,6 L9,8 L9,9 L-1,9 L-1,2 Z " fill="#F2F2F2" transform="translate(7,7)"/>
<path d="M0,0 L1,4 L3,5 L1,7 L-2,7 L-1,1 Z " fill="#E8E8E8" transform="translate(17,18)"/>
</svg>
