<?xml version="1.0" encoding="UTF-8"?>
<svg version="1.1" xmlns="http://www.w3.org/2000/svg" width="28" height="28">
<path d="M0,0 L28,0 L28,28 L0,28 Z " fill="#020202" transform="translate(0,0)"/>
<path d="M0,0 L1,0 L0,13 L-3,13 L-5,20 L-6,16 L-5,14 L-11,14 L-10,7 L-8,6 L-9,12 L-4,12 L-1,3 Z " fill="#E8E8E8" transform="translate(19,4)"/>
<path d="M0,0 L1,0 L0,13 L-3,9 Z " fill="#B0B0B0" transform="translate(19,4)"/>
<path d="M0,0 L1,3 L0,6 L3,7 L-2,8 L-1,1 Z " fill="#B6B6B6" transform="translate(10,10)"/>
</svg>
