<?xml version="1.0" encoding="UTF-8"?>
<svg version="1.1" xmlns="http://www.w3.org/2000/svg" width="28" height="28">
<path d="M0,0 L28,0 L28,28 L0,28 Z " fill="#020202" transform="translate(0,0)"/>
<path d="M0,0 L2,1 L-4,7 L-3,9 L-9,12 L-16,20 L-18,20 L-16,15 L-14,12 L-17,9 L-12,4 L-9,3 L-9,5 L-13,9 L-8,7 Z " fill="#EAEAEA" transform="translate(24,5)"/>
<path d="M0,0 L2,0 L2,2 L-2,6 L1,7 L-5,8 L-5,5 Z " fill="#BEBEBE" transform="translate(13,8)"/>
<path d="M0,0 L2,0 L3,3 L-2,9 L-4,9 L-2,4 Z " fill="#C8C8C8" transform="translate(10,16)"/>
</svg>
