<?xml version="1.0" encoding="UTF-8"?>
<svg version="1.1" xmlns="http://www.w3.org/2000/svg" width="28" height="28">
<path d="M0,0 L28,0 L28,28 L0,28 Z " fill="#030303" transform="translate(0,0)"/>
<path d="M0,0 L3,0 L2,5 L0,9 L6,8 L3,11 L-3,16 L-5,16 L-5,18 L-8,17 L-5,13 L-14,14 L-13,10 Z " fill="#C0C0C0" transform="translate(19,6)"/>
<path d="M0,0 L3,0 L2,3 L1,2 L0,4 L-5,7 L-9,10 L-3,10 L-5,13 L-14,14 L-13,10 Z " fill="#D3D3D3" transform="translate(19,6)"/>
<path d="M0,0 L3,1 L1,6 L-7,7 L-2,2 Z " fill="#171717" transform="translate(16,10)"/>
</svg>
