<?xml version="1.0" encoding="UTF-8"?>
<svg version="1.1" xmlns="http://www.w3.org/2000/svg" width="28" height="28">
<path d="M0,0 L28,0 L28,28 L0,28 Z " fill="#030303" transform="translate(0,0)"/>
<path d="M0,0 L2,0 L1,8 L7,8 L6,10 L-1,10 L-3,16 L-6,17 L-5,13 L-4,11 L-12,12 L-12,9 L-3,3 Z " fill="#B5B5B5" transform="translate(18,6)"/>
<path d="M0,0 L2,0 L1,8 L7,8 L6,10 L-2,10 L0,4 L-2,4 Z " fill="#E2E2E2" transform="translate(18,6)"/>
<path d="M0,0 L2,1 L0,4 L2,5 L-7,7 L-7,4 Z " fill="#EBEBEB" transform="translate(13,11)"/>
</svg>
