<?xml version="1.0" encoding="UTF-8"?>
<svg version="1.1" xmlns="http://www.w3.org/2000/svg" width="28" height="28">
<path d="M0,0 L28,0 L28,28 L0,28 Z " fill="#040404" transform="translate(0,0)"/>
<path d="M0,0 L3,0 L1,4 L-2,7 L-4,7 L-4,12 L-9,15 L-14,20 L-13,16 L-12,14 L-10,14 L-10,12 L-17,11 L-16,6 L-14,4 L-11,4 L-11,7 L-14,9 L-9,10 L-2,2 L0,2 Z " fill="#DBDBDB" transform="translate(22,5)"/>
<path d="M0,0 L3,0 L3,3 L0,5 L3,7 L-1,8 L-3,7 L-2,2 Z " fill="#C2C2C2" transform="translate(8,9)"/>
</svg>
