<?xml version="1.0" encoding="UTF-8"?>
<svg version="1.1" xmlns="http://www.w3.org/2000/svg" width="28" height="28">
<path d="M0,0 L28,0 L28,28 L0,28 Z " fill="#010101" transform="translate(0,0)"/>
<path d="M0,0 L2,0 L0,4 L-3,9 L-5,10 L-3,12 L-9,15 L-13,20 L-12,15 L-10,12 L-14,10 L-12,6 L-8,7 L-8,9 L-6,9 L-4,5 Z " fill="#CCCCCC" transform="translate(22,5)"/>
<path d="M0,0 L4,1 L5,4 L4,5 L-1,5 L-1,1 Z " fill="#656565" transform="translate(10,11)"/>
<path d="M0,0 L2,0 L0,4 L-4,9 L-5,6 Z " fill="#A3A3A3" transform="translate(22,5)"/>
</svg>
