<?xml version="1.0" encoding="UTF-8"?>
<svg version="1.1" xmlns="http://www.w3.org/2000/svg" width="28" height="28">
<path d="M0,0 L28,0 L28,28 L0,28 Z " fill="#040404" transform="translate(0,0)"/>
<path d="M0,0 L2,0 L3,7 L7,9 L6,11 L4,11 L4,18 L1,17 L1,11 L-6,12 L-13,12 L-13,10 L-5,6 L-3,6 L-3,4 L-1,4 Z " fill="#EDEDED" transform="translate(16,5)"/>
<path d="M0,0 L6,1 L5,3 L3,3 L3,10 L0,9 L0,3 L-3,2 Z " fill="#F7F7F7" transform="translate(17,13)"/>
<path d="M0,0 L2,0 L3,7 L6,9 L-3,9 Z " fill="#C0C0C0" transform="translate(16,5)"/>
</svg>
