<?xml version="1.0" encoding="UTF-8"?>
<svg version="1.1" xmlns="http://www.w3.org/2000/svg" width="28" height="28">
<path d="M0,0 L28,0 L28,28 L0,28 Z " fill="#020202" transform="translate(0,0)"/>
<path d="M0,0 L3,0 L3,2 L1,2 L1,13 L4,14 L0,15 L-1,19 L-1,16 L-15,16 L-15,12 L-11,10 L-10,8 L-7,8 L-7,6 L-3,3 L-1,3 Z " fill="#C9C9C9" transform="translate(20,4)"/>
<path d="M0,0 L1,4 L1,8 L-8,8 L-3,3 Z " fill="#181818" transform="translate(18,9)"/>
<path d="M0,0 L1,0 L1,10 L5,11 L1,12 L0,16 L0,12 L-5,12 L-3,10 L0,10 L-1,1 Z " fill="#F3F3F3" transform="translate(19,7)"/>
</svg>
