<?xml version="1.0" encoding="UTF-8"?>
<svg version="1.1" xmlns="http://www.w3.org/2000/svg" width="28" height="28">
<path d="M0,0 L28,0 L28,28 L0,28 Z " fill="#010101" transform="translate(0,0)"/>
<path d="M0,0 L3,1 L4,11 L4,20 L2,20 L2,11 L-8,11 L-8,7 Z " fill="#B6B6B6" transform="translate(15,6)"/>
<path d="M0,0 L3,1 L4,11 L4,20 L2,20 L2,10 L-5,10 L-5,9 L2,9 Z " fill="#E0E0E0" transform="translate(15,6)"/>
<path d="M0,0 L2,2 L2,6 L-5,6 L-4,3 L-2,3 L-2,1 Z " fill="#1B1B1B" transform="translate(15,9)"/>
</svg>
