<?xml version="1.0" encoding="UTF-8"?>
<svg version="1.1" xmlns="http://www.w3.org/2000/svg" width="28" height="28">
<path d="M0,0 L28,0 L28,28 L0,28 Z " fill="#020202" transform="translate(0,0)"/>
<path d="M0,0 L1,0 L0,7 L-3,19 L-6,20 L-6,13 L-11,12 L-12,8 L-11,4 L-9,4 L-8,2 L-8,10 L-4,7 L-1,1 Z " fill="#B8B8B8" transform="translate(20,5)"/>
<path d="M0,0 L1,3 L-1,12 L-4,13 L-3,3 Z " fill="#E8E8E8" transform="translate(18,12)"/>
<path d="M0,0 L1,4 L0,9 L3,9 L3,11 L-2,10 L-3,6 L-2,2 L0,2 Z " fill="#E5E5E5" transform="translate(11,7)"/>
</svg>
