<?xml version="1.0" encoding="UTF-8"?>
<svg version="1.1" xmlns="http://www.w3.org/2000/svg" width="28" height="28">
<path d="M0,0 L28,0 L28,28 L0,28 Z " fill="#020202" transform="translate(0,0)"/>
<path d="M0,0 L3,1 L1,8 L1,11 L-2,11 L-3,20 L-6,19 L-5,13 L-13,13 L-12,7 L-10,4 L-8,4 L-9,10 L-3,9 Z " fill="#E9E9E9" transform="translate(20,4)"/>
<path d="M0,0 L2,0 L2,7 L-2,7 L-3,5 Z " fill="#D4D4D4" transform="translate(10,8)"/>
<path d="M0,0 L3,1 L1,7 L-2,6 Z " fill="#CACACA" transform="translate(20,4)"/>
</svg>
