<?xml version="1.0" encoding="UTF-8"?>
<svg version="1.1" xmlns="http://www.w3.org/2000/svg" width="28" height="28">
<path d="M0,0 L28,0 L28,28 L0,28 Z " fill="#040404" transform="translate(0,0)"/>
<path d="M0,0 L2,0 L1,4 L-1,4 L-3,9 L-13,20 L-16,20 L-14,16 L-11,13 L-18,11 L-16,8 L-14,8 L-12,4 L-9,3 L-11,8 L-12,9 L-7,9 L-5,6 L-3,6 L-1,1 Z " fill="#E8E8E8" transform="translate(24,5)"/>
<path d="M0,0 L3,0 L4,3 L-1,9 L-4,9 L-2,5 L1,2 Z " fill="#C5C5C5" transform="translate(12,16)"/>
<path d="M0,0 L2,0 L1,4 L-1,4 L-3,9 L-6,11 L-6,8 L-5,6 L-3,6 L-1,1 Z " fill="#D2D2D2" transform="translate(24,5)"/>
</svg>
