<?xml version="1.0" encoding="UTF-8"?>
<svg version="1.1" xmlns="http://www.w3.org/2000/svg" width="28" height="28">
<path d="M0,0 L28,0 L28,28 L0,28 Z " fill="#040404" transform="translate(0,0)"/>
<path d="M0,0 L2,0 L1,7 L7,7 L7,8 L0,8 L-2,19 L-4,20 L-3,9 L-9,10 L-10,6 Z " fill="#C8C8C8" transform="translate(17,6)"/>
<path d="M0,0 L2,0 L1,7 L7,7 L7,8 L0,8 L-2,19 L-4,20 L-3,11 L0,3 L-2,3 L-2,1 Z " fill="#EAEAEA" transform="translate(17,6)"/>
<path d="M0,0 L4,1 L2,5 L-2,5 L-3,2 Z " fill="#676767" transform="translate(13,8)"/>
</svg>
