<?xml version="1.0" encoding="UTF-8"?>
<svg version="1.1" xmlns="http://www.w3.org/2000/svg" width="28" height="28">
<path d="M0,0 L28,0 L28,28 L0,28 Z " fill="#020202" transform="translate(0,0)"/>
<path d="M0,0 L2,0 L2,5 L-1,10 L-1,12 L-6,17 L-7,20 L-10,20 L-9,14 L-17,15 L-18,12 L-13,3 L-11,4 L-12,9 L-5,9 L-3,5 Z " fill="#E6E6E6" transform="translate(23,4)"/>
<path d="M0,0 L2,0 L2,5 L-4,9 L-4,6 Z " fill="#CECECE" transform="translate(23,4)"/>
<path d="M0,0 L7,1 L6,7 L5,5 L2,4 L4,3 L0,2 Z " fill="#9E9E9E" transform="translate(9,13)"/>
</svg>
