<?xml version="1.0" encoding="UTF-8"?>
<svg version="1.1" xmlns="http://www.w3.org/2000/svg" width="28" height="28">
<path d="M0,0 L28,0 L28,28 L0,28 Z " fill="#040404" transform="translate(0,0)"/>
<path d="M0,0 L2,1 L1,6 L0,11 L-2,11 L-4,17 L-6,20 L-8,20 L-7,15 L-6,12 L-13,12 L-14,10 L-10,2 L-7,2 L-9,8 L-4,8 Z " fill="#E1E1E1" transform="translate(20,5)"/>
<path d="M0,0 L2,1 L1,6 L0,8 L-2,8 L-1,2 Z " fill="#EEEEEE" transform="translate(20,5)"/>
<path d="M0,0 L2,1 L0,7 L-3,6 L-1,1 Z " fill="#D5D5D5" transform="translate(11,6)"/>
</svg>
