<?xml version="1.0" encoding="UTF-8"?>
<svg version="1.1" xmlns="http://www.w3.org/2000/svg" width="28" height="28">
<path d="M0,0 L28,0 L28,28 L0,28 Z " fill="#040404" transform="translate(0,0)"/>
<path d="M0,0 L2,0 L1,5 L0,12 L-2,13 L-2,18 L-4,20 L-7,20 L-7,14 L-14,14 L-13,7 L-11,3 L-9,4 L-10,8 L-11,11 L-4,10 L-1,1 Z " fill="#F0F0F0" transform="translate(21,4)"/>
<path d="M0,0 L2,4 L0,6 L-3,6 L-3,1 Z " fill="#B9B9B9" transform="translate(17,18)"/>
<path d="M0,0 L2,0 L1,5 L-1,8 L-3,7 L-1,1 Z " fill="#D2D2D2" transform="translate(21,4)"/>
</svg>
