<?xml version="1.0" encoding="UTF-8"?>
<svg version="1.1" xmlns="http://www.w3.org/2000/svg" width="28" height="28">
<path d="M0,0 L28,0 L28,28 L0,28 Z " fill="#040404" transform="translate(0,0)"/>
<path d="M0,0 L5,1 L3,3 L2,11 L5,12 L3,12 L3,19 L1,20 L1,12 L-8,11 L-10,10 L-9,7 L-2,3 L0,3 Z " fill="#CFCFCF" transform="translate(15,5)"/>
<path d="M0,0 L1,0 L1,6 L4,7 L2,7 L2,14 L0,15 L0,7 L-4,6 L0,6 Z " fill="#EBEBEB" transform="translate(16,10)"/>
<path d="M0,0 L2,0 L2,5 L-5,4 L-2,1 Z " fill="#090909" transform="translate(13,10)"/>
</svg>
