<?xml version="1.0" encoding="UTF-8"?>
<svg version="1.1" xmlns="http://www.w3.org/2000/svg" width="28" height="28">
<path d="M0,0 L28,0 L28,28 L0,28 Z " fill="#030303" transform="translate(0,0)"/>
<path d="M0,0 L3,0 L1,6 L-1,6 L-1,9 L3,10 L3,11 L-3,13 L-7,20 L-9,20 L-8,16 L-6,11 L-14,11 L-12,7 L-10,4 L-7,4 L-7,7 L-3,5 Z " fill="#F0F0F0" transform="translate(19,5)"/>
<path d="M0,0 L3,0 L3,3 L6,3 L6,5 L1,5 L-1,5 L-4,7 L-2,3 Z " fill="#BABABA" transform="translate(9,9)"/>
<path d="M0,0 L3,0 L1,6 L-2,5 Z M-3,5 Z " fill="#D1D1D1" transform="translate(19,5)"/>
</svg>
