<?xml version="1.0" encoding="UTF-8"?>
<svg version="1.1" xmlns="http://www.w3.org/2000/svg" width="28" height="28">
<path d="M0,0 L28,0 L28,28 L0,28 Z " fill="#030303" transform="translate(0,0)"/>
<path d="M0,0 L1,3 L0,7 L0,16 L2,20 L-2,19 L-2,13 L-7,14 L-10,13 L-10,8 L-4,4 Z " fill="#E7E7E7" transform="translate(18,5)"/>
<path d="M0,0 L2,0 L2,6 L4,10 L0,9 L0,3 L-3,2 Z " fill="#E9E9E9" transform="translate(16,15)"/>
<path d="M0,0 L1,3 L-1,2 Z M-4,1 L-2,1 L-1,4 L-6,7 L-7,3 Z " fill="#787878" transform="translate(17,12)"/>
</svg>
