<?xml version="1.0" encoding="UTF-8"?>
<svg version="1.1" xmlns="http://www.w3.org/2000/svg" width="28" height="28">
<path d="M0,0 L28,0 L28,28 L0,28 Z " fill="#030303" transform="translate(0,0)"/>
<path d="M0,0 L3,2 L8,0 L2,11 L4,13 L-1,13 L-3,19 L-6,19 L-3,12 L-7,10 L-8,6 L-2,1 Z " fill="#E5E5E5" transform="translate(16,6)"/>
<path d="M0,0 L2,1 L1,7 L-1,10 L-8,9 L-7,5 L-2,1 Z " fill="#DBDBDB" transform="translate(16,6)"/>
<path d="M0,0 L2,0 L0,5 L-1,7 L-5,6 L-5,3 Z " fill="#1C1C1C" transform="translate(16,9)"/>
</svg>
