<?xml version="1.0" encoding="UTF-8"?>
<svg version="1.1" xmlns="http://www.w3.org/2000/svg" width="28" height="28">
<path d="M0,0 L28,0 L28,28 L0,28 Z " fill="#020202" transform="translate(0,0)"/>
<path d="M0,0 L2,1 L-4,10 L-3,12 L-7,12 L-9,16 L-12,18 L-10,13 L-17,11 L-18,7 L-14,3 L-13,6 L-15,9 L-7,10 L-1,1 Z " fill="#BEBEBE" transform="translate(23,6)"/>
<path d="M0,0 L2,1 L-4,10 L-3,12 L-7,12 L-7,14 L-9,14 L-9,11 L-6,8 Z " fill="#EEEEEE" transform="translate(23,6)"/>
<path d="M0,0 L2,1 L-2,7 L-5,6 Z " fill="#C6C6C6" transform="translate(23,6)"/>
</svg>
