<?xml version="1.0" encoding="UTF-8"?>
<svg version="1.1" xmlns="http://www.w3.org/2000/svg" width="28" height="28">
<path d="M0,0 L28,0 L28,28 L0,28 Z " fill="#030303" transform="translate(0,0)"/>
<path d="M0,0 L6,2 L7,4 L7,12 L12,13 L11,15 L6,15 L6,18 L4,18 L4,15 L-8,16 L-7,12 L-1,5 Z " fill="#D2D2D2" transform="translate(13,4)"/>
<path d="M0,0 L3,2 L3,7 L8,8 L7,10 L2,10 L2,13 L0,13 L0,10 L-11,11 L-9,7 L-7,6 L-7,8 L0,7 Z " fill="#EDEDED" transform="translate(17,9)"/>
<path d="M0,0 L2,1 L2,8 L-4,9 L-2,4 Z " fill="#151515" transform="translate(15,8)"/>
</svg>
