<?xml version="1.0" encoding="UTF-8"?>
<svg version="1.1" xmlns="http://www.w3.org/2000/svg" width="28" height="28">
<path d="M0,0 L28,0 L28,28 L0,28 Z " fill="#020202" transform="translate(0,0)"/>
<path d="M0,0 L2,1 L3,4 L3,11 L7,10 L4,13 L3,20 L1,20 L1,14 L-9,14 L-7,10 L-3,6 L-1,1 Z " fill="#D9D9D9" transform="translate(15,4)"/>
<path d="M0,0 L2,1 L3,4 L3,11 L7,10 L4,13 L3,20 L1,20 L1,13 L-3,12 L0,11 L0,6 L-1,6 L-1,1 Z " fill="#ECECEC" transform="translate(15,4)"/>
<path d="M0,0 L1,0 L1,6 L0,7 L-5,7 Z " fill="#3B3B3B" transform="translate(15,9)"/>
</svg>
