<?xml version="1.0" encoding="UTF-8"?>
<svg version="1.1" xmlns="http://www.w3.org/2000/svg" width="28" height="28">
<path d="M0,0 L28,0 L28,28 L0,28 Z " fill="#020202" transform="translate(0,0)"/>
<path d="M0,0 L3,0 L2,6 L4,7 L5,1 L9,0 L6,10 L9,10 L9,12 L5,12 L4,19 L1,20 L2,10 L-3,9 L-2,4 Z " fill="#ECECEC" transform="translate(11,6)"/>
<path d="M0,0 L3,0 L2,6 L3,8 L-1,7 L-3,9 L-2,4 Z " fill="#CDCDCD" transform="translate(11,6)"/>
<path d="M0,0 L2,0 L0,8 L-3,6 L-2,1 Z " fill="#C7C7C7" transform="translate(18,6)"/>
</svg>
