<?xml version="1.0" encoding="UTF-8"?>
<svg version="1.1" xmlns="http://www.w3.org/2000/svg" width="28" height="28">
<path d="M0,0 L28,0 L28,28 L0,28 Z " fill="#020202" transform="translate(0,0)"/>
<path d="M0,0 L1,3 L1,8 L5,9 L0,10 L-1,20 L-3,20 L-3,12 L-12,13 L-12,10 L-10,10 L-10,8 Z " fill="#D1D1D1" transform="translate(18,5)"/>
<path d="M0,0 L1,4 L-1,5 L1,6 L1,15 L0,15 L0,7 L-9,8 L-9,5 L-7,5 L-7,3 L-2,1 Z " fill="#A2A2A2" transform="translate(15,10)"/>
<path d="M0,0 L1,4 L3,5 L1,5 L0,15 L-1,15 L-1,6 L-6,6 L-3,4 L-1,3 Z " fill="#F6F6F6" transform="translate(17,10)"/>
</svg>
