<?xml version="1.0" encoding="UTF-8"?>
<svg version="1.1" xmlns="http://www.w3.org/2000/svg" width="28" height="28">
<path d="M0,0 L28,0 L28,28 L0,28 Z " fill="#020202" transform="translate(0,0)"/>
<path d="M0,0 L2,0 L2,7 L1,9 L5,8 L5,10 L0,11 L0,20 L-3,19 L-2,12 L-9,13 L-8,1 L-6,1 L-6,10 L-1,10 Z " fill="#D9D9D9" transform="translate(17,5)"/>
<path d="M0,0 L4,1 L4,9 L1,8 L2,1 Z " fill="#B1B1B1" transform="translate(13,16)"/>
<path d="M0,0 L2,0 L2,7 L-1,8 Z " fill="#C5C5C5" transform="translate(17,5)"/>
</svg>
