<?xml version="1.0" encoding="UTF-8"?>
<svg version="1.1" xmlns="http://www.w3.org/2000/svg" width="28" height="28">
<path d="M0,0 L28,0 L28,28 L0,28 Z " fill="#020202" transform="translate(0,0)"/>
<path d="M0,0 L3,1 L3,4 L7,3 L8,20 L5,20 L4,14 L-1,14 L-3,11 L-3,4 Z " fill="#EDEDED" transform="translate(11,5)"/>
<path d="M0,0 L3,1 L1,9 L-1,5 L-2,11 L-3,11 L-3,4 Z " fill="#C2C2C2" transform="translate(11,5)"/>
<path d="M0,0 L2,0 L1,8 L-1,9 L-1,3 Z " fill="#2B2B2B" transform="translate(13,5)"/>
</svg>
