<?xml version="1.0" encoding="UTF-8"?>
<svg version="1.1" xmlns="http://www.w3.org/2000/svg" width="28" height="28">
<path d="M0,0 L28,0 L28,28 L0,28 Z " fill="#020202" transform="translate(0,0)"/>
<path d="M0,0 L2,0 L1,10 L4,10 L3,13 L-1,13 L-2,20 L-4,20 L-3,13 L-10,13 L-9,7 L-7,4 L-6,8 L-7,10 L-2,10 Z " fill="#E8E8E8" transform="translate(17,4)"/>
<path d="M0,0 L2,1 L1,6 L6,6 L6,7 L-1,7 Z " fill="#C2C2C2" transform="translate(9,8)"/>
<path d="M0,0 L2,0 L1,10 L-1,7 Z " fill="#C8C8C8" transform="translate(17,4)"/>
</svg>
