<?xml version="1.0" encoding="UTF-8"?>
<svg version="1.1" xmlns="http://www.w3.org/2000/svg" width="28" height="28">
<path d="M0,0 L28,0 L28,28 L0,28 Z " fill="#030303" transform="translate(0,0)"/>
<path d="M0,0 L3,0 L4,8 L10,8 L9,11 L4,11 L4,15 L1,15 L1,11 L-10,11 L-9,8 L-7,8 L-6,5 Z " fill="#BFBFBF" transform="translate(15,7)"/>
<path d="M0,0 L3,0 L4,8 L2,8 L2,4 L-5,8 L-6,10 L1,10 L1,11 L-10,11 L-9,8 L-7,8 L-6,5 Z " fill="#DFDFDF" transform="translate(15,7)"/>
<path d="M0,0 L2,0 L2,5 L-5,6 L-3,2 Z " fill="#212121" transform="translate(14,11)"/>
<path d="M0,0 L3,1 L1,4 L8,4 L8,5 L-3,5 L-2,2 L0,2 Z " fill="#F6F6F6" transform="translate(8,13)"/>
</svg>
