<?xml version="1.0" encoding="UTF-8"?>
<svg version="1.1" xmlns="http://www.w3.org/2000/svg" width="28" height="28">
<path d="M0,0 L28,0 L28,28 L0,28 Z " fill="#030303" transform="translate(0,0)"/>
<path d="M0,0 L4,1 L3,7 L5,14 L4,20 L2,20 L2,14 L-9,14 L-12,13 L-10,9 Z " fill="#E0E0E0" transform="translate(17,5)"/>
<path d="M0,0 L3,4 L2,12 L0,12 L0,6 L-11,6 L-13,4 L-9,1 L-8,3 L0,3 Z " fill="#E8E8E8" transform="translate(19,13)"/>
<path d="M0,0 L2,0 L3,7 L-5,8 L-6,5 L-3,4 Z " fill="#1D1D1D" transform="translate(16,9)"/>
</svg>
