<?xml version="1.0" encoding="UTF-8"?>
<svg version="1.1" xmlns="http://www.w3.org/2000/svg" width="28" height="28">
<path d="M0,0 L28,0 L28,28 L0,28 Z " fill="#010101" transform="translate(0,0)"/>
<path d="M0,0 L2,0 L2,9 L10,9 L8,12 L2,12 L2,18 L-1,17 L-1,13 L-10,13 L-10,10 L-8,10 L-6,6 L-4,6 L-2,2 Z " fill="#E5E5E5" transform="translate(15,6)"/>
<path d="M0,0 L2,0 L1,4 L0,5 L0,10 L-5,10 L-8,10 L-6,6 L-4,6 L-2,2 Z M-10,10 L-8,11 L-10,12 Z " fill="#AEAEAE" transform="translate(15,6)"/>
<path d="M0,0 L6,1 L6,7 L3,6 L3,2 Z " fill="#B4B4B4" transform="translate(11,17)"/>
</svg>
