<?xml version="1.0" encoding="UTF-8"?>
<svg version="1.1" xmlns="http://www.w3.org/2000/svg" width="28" height="28">
<path d="M0,0 L28,0 L28,28 L0,28 Z " fill="#030303" transform="translate(0,0)"/>
<path d="M0,0 L3,1 L1,11 L7,11 L7,14 L1,14 L0,20 L-1,20 L-1,14 L-10,16 L-9,11 L-2,2 Z " fill="#EBEBEB" transform="translate(16,4)"/>
<path d="M0,0 L3,1 L1,11 L-6,11 L-4,4 Z " fill="#E0E0E0" transform="translate(16,4)"/>
<path d="M0,0 L2,0 L1,6 L-4,6 Z " fill="#1C1C1C" transform="translate(14,9)"/>
</svg>
