<?xml version="1.0" encoding="UTF-8"?>
<svg version="1.1" xmlns="http://www.w3.org/2000/svg" width="28" height="28">
<path d="M0,0 L28,0 L28,28 L0,28 Z " fill="#020202" transform="translate(0,0)"/>
<path d="M0,0 L2,1 L2,10 L6,9 L7,7 L9,7 L8,12 L1,13 L0,17 L-1,14 L-11,14 L-10,10 L-1,2 Z " fill="#EAEAEA" transform="translate(16,5)"/>
<path d="M0,0 L2,1 L2,10 L-5,10 L-2,6 L-2,3 Z " fill="#898989" transform="translate(16,5)"/>
<path d="M0,0 L2,0 L1,5 L-5,6 L-1,2 Z " fill="#B7B7B7" transform="translate(23,12)"/>
</svg>
