<?xml version="1.0" encoding="UTF-8"?>
<svg version="1.1" xmlns="http://www.w3.org/2000/svg" width="28" height="28">
<path d="M0,0 L28,0 L28,28 L0,28 Z " fill="#010101" transform="translate(0,0)"/>
<path d="M0,0 L3,1 L5,8 L7,8 L11,3 L12,18 L11,20 L9,20 L8,18 L8,11 L3,11 L0,7 Z " fill="#C1C1C1" transform="translate(8,5)"/>
<path d="M0,0 L1,0 L2,15 L1,17 L-1,17 L-3,7 L-1,7 Z " fill="#B2B2B2" transform="translate(18,8)"/>
<path d="M0,0 L2,0 L2,11 L1,11 L1,4 L-5,5 L-5,3 L-1,2 Z " fill="#EEEEEE" transform="translate(16,11)"/>
</svg>
