<?xml version="1.0" encoding="UTF-8"?>
<svg version="1.1" xmlns="http://www.w3.org/2000/svg" width="28" height="28">
<path d="M0,0 L28,0 L28,28 L0,28 Z " fill="#030303" transform="translate(0,0)"/>
<path d="M0,0 L2,0 L2,6 L0,10 L2,10 L4,1 L6,1 L6,14 L5,20 L3,19 L3,14 L-3,16 L-7,17 L-6,12 L-1,5 Z " fill="#E8E8E8" transform="translate(13,4)"/>
<path d="M0,0 L2,0 L2,6 L0,10 L3,10 L3,12 L-2,12 L-5,12 L-3,8 L-1,5 Z " fill="#D2D2D2" transform="translate(13,4)"/>
<path d="M0,0 L2,0 L1,9 L-3,10 Z " fill="#272727" transform="translate(15,5)"/>
</svg>
