<?xml version="1.0" encoding="UTF-8"?>
<svg version="1.1" xmlns="http://www.w3.org/2000/svg" width="28" height="28">
<path d="M0,0 L28,0 L28,28 L0,28 Z " fill="#010101" transform="translate(0,0)"/>
<path d="M0,0 L3,0 L3,6 L1,10 L8,10 L7,12 L0,12 L-1,17 L-2,20 L-4,20 L-3,12 L-7,11 L-8,7 Z " fill="#DDDDDD" transform="translate(15,5)"/>
<path d="M0,0 L3,0 L3,6 L1,8 L-1,7 L-1,10 L-6,10 L-6,5 Z " fill="#D2D2D2" transform="translate(15,5)"/>
<path d="M0,0 L2,0 L1,6 L-4,6 L-2,2 Z " fill="#171717" transform="translate(13,9)"/>
</svg>
