<?xml version="1.0" encoding="UTF-8"?>
<svg version="1.1" xmlns="http://www.w3.org/2000/svg" width="28" height="28">
<path d="M0,0 L28,0 L28,28 L0,28 Z " fill="#040404" transform="translate(0,0)"/>
<path d="M0,0 L2,0 L2,2 L-1,2 L-1,10 L3,11 L0,13 L0,19 L-3,19 L-3,12 L-7,13 L-14,12 L-13,8 L-7,3 Z " fill="#EFEFEF" transform="translate(19,5)"/>
<path d="M0,0 L2,0 L2,2 L-1,2 L-1,9 L-2,10 L-10,10 L-10,8 L-8,8 L-7,3 Z " fill="#D5D5D5" transform="translate(19,5)"/>
<path d="M0,0 L4,0 L4,4 L-3,4 L-3,2 Z " fill="#161616" transform="translate(12,11)"/>
</svg>
