<?xml version="1.0" encoding="UTF-8"?>
<svg version="1.1" xmlns="http://www.w3.org/2000/svg" width="28" height="28">
<path d="M0,0 L28,0 L28,28 L0,28 Z " fill="#030303" transform="translate(0,0)"/>
<path d="M0,0 L3,1 L-1,8 L-8,16 L-10,20 L-13,19 L-10,12 L-16,12 L-17,8 L-11,1 L-8,2 L-10,7 L-11,9 L-6,9 L-5,6 L-3,6 L-1,1 Z " fill="#ECECEC" transform="translate(23,6)"/>
<path d="M0,0 L3,1 L1,5 L-3,6 L-1,1 Z M-5,6 L-3,7 L-6,7 Z " fill="#CDCDCD" transform="translate(23,6)"/>
<path d="M0,0 L3,0 L1,6 L-2,5 Z " fill="#D3D3D3" transform="translate(12,20)"/>
</svg>
