<?xml version="1.0" encoding="UTF-8"?>
<svg version="1.1" xmlns="http://www.w3.org/2000/svg" width="28" height="28">
<path d="M0,0 L28,0 L28,28 L0,28 Z " fill="#030303" transform="translate(0,0)"/>
<path d="M0,0 L3,0 L2,10 L9,12 L6,13 L1,12 L0,18 L-2,19 L-1,13 L-10,10 L-11,7 Z " fill="#E2E2E2" transform="translate(16,6)"/>
<path d="M0,0 L3,0 L2,7 L-7,6 L-3,2 Z " fill="#191919" transform="translate(14,9)"/>
<path d="M0,0 L3,0 L2,10 L4,11 L1,11 L0,6 L1,3 L-5,4 Z " fill="#C1C1C1" transform="translate(16,6)"/>
</svg>
