<?xml version="1.0" encoding="UTF-8"?>
<svg version="1.1" xmlns="http://www.w3.org/2000/svg" width="28" height="28">
<path d="M0,0 L28,0 L28,28 L0,28 Z " fill="#020202" transform="translate(0,0)"/>
<path d="M0,0 L2,0 L0,4 L-5,7 L-6,9 L-11,12 L-16,18 L-18,18 L-16,13 L-14,9 L-14,5 L-6,1 L-2,1 Z " fill="#EFEFEF" transform="translate(24,7)"/>
<path d="M0,0 L2,0 L0,4 L-5,7 L-7,9 L-7,6 L-12,8 L-12,6 L-9,4 L-9,2 L-6,1 L-2,1 Z " fill="#B4B4B4" transform="translate(24,7)"/>
<path d="M0,0 L2,3 L-3,9 L-5,9 L-3,4 Z " fill="#C8C8C8" transform="translate(11,16)"/>
</svg>
