<?xml version="1.0" encoding="UTF-8"?>
<svg version="1.1" xmlns="http://www.w3.org/2000/svg" width="28" height="28">
<path d="M0,0 L28,0 L28,28 L0,28 Z " fill="#020202" transform="translate(0,0)"/>
<path d="M0,0 L1,0 L0,9 L5,9 L6,3 L8,0 L10,0 L8,11 L7,12 L6,20 L3,20 L3,14 L4,12 L-5,12 L-4,7 Z " fill="#CCCCCC" transform="translate(12,6)"/>
<path d="M0,0 L1,0 L0,9 L4,11 L-5,11 L-3,6 Z " fill="#DEDEDE" transform="translate(12,6)"/>
<path d="M0,0 L1,2 L6,3 L6,4 L-3,4 L-3,2 Z " fill="#F5F5F5" transform="translate(10,13)"/>
</svg>
