<?xml version="1.0" encoding="UTF-8"?>
<svg version="1.1" xmlns="http://www.w3.org/2000/svg" width="28" height="28">
<path d="M0,0 L28,0 L28,28 L0,28 Z " fill="#030303" transform="translate(0,0)"/>
<path d="M0,0 L3,0 L1,4 L-1,9 L8,7 L9,8 L9,13 L7,18 L10,19 L5,20 L4,16 L6,10 L1,12 L-4,11 L-3,4 Z " fill="#E0E0E0" transform="translate(12,4)"/>
<path d="M0,0 L1,3 L0,7 L3,8 L-2,9 L-3,5 L-2,1 Z " fill="#EFEFEF" transform="translate(19,15)"/>
<path d="M0,0 L4,1 L4,6 L1,5 L1,3 L-4,2 Z " fill="#C8C8C8" transform="translate(17,11)"/>
</svg>
