<?xml version="1.0" encoding="UTF-8"?>
<svg version="1.1" xmlns="http://www.w3.org/2000/svg" width="28" height="28">
<path d="M0,0 L28,0 L28,28 L0,28 Z " fill="#020202" transform="translate(0,0)"/>
<path d="M0,0 L2,0 L1,6 L1,20 L-3,20 L-4,14 L-12,12 L-11,7 L-2,2 Z " fill="#FAFAFA" transform="translate(19,5)"/>
<path d="M0,0 L2,0 L1,6 L-1,5 L-2,10 L-12,10 L-10,6 L-2,2 Z " fill="#D0D0D0" transform="translate(19,5)"/>
<path d="M0,0 L3,0 L3,4 L-5,4 Z " fill="#0D0D0D" transform="translate(14,11)"/>
<path d="M0,0 L2,0 L2,3 L4,3 L5,7 L1,7 Z " fill="#AEAEAE" transform="translate(15,18)"/>
</svg>
