<?xml version="1.0" encoding="UTF-8"?>
<svg version="1.1" xmlns="http://www.w3.org/2000/svg" width="28" height="28">
<path d="M0,0 L28,0 L28,28 L0,28 Z " fill="#020202" transform="translate(0,0)"/>
<path d="M0,0 L2,0 L1,5 L-1,9 L4,9 L3,11 L-2,12 L-5,16 L-6,13 L-5,11 L-11,11 L-9,5 L-6,1 L-4,2 L-7,9 L-4,9 L-2,5 Z " fill="#D9D9D9" transform="translate(17,7)"/>
<path d="M0,0 L2,0 L1,3 L-1,3 L-2,9 L-8,9 L-7,5 L-4,2 Z " fill="#1B1B1B" transform="translate(24,7)"/>
<path d="M0,0 L2,1 L-1,8 L2,9 L-3,8 L-2,2 Z " fill="#B7B7B7" transform="translate(11,8)"/>
<path d="M0,0 L2,0 L1,3 L-1,3 L-2,8 L-4,7 L-2,2 Z " fill="#C7C7C7" transform="translate(24,7)"/>
</svg>
