<?xml version="1.0" encoding="UTF-8"?>
<svg version="1.1" xmlns="http://www.w3.org/2000/svg" width="28" height="28">
<path d="M0,0 L28,0 L28,28 L0,28 Z " fill="#020202" transform="translate(0,0)"/>
<path d="M0,0 L3,0 L2,4 L2,8 L3,10 L-1,10 L-1,20 L-5,18 L-5,12 L-9,11 L-10,6 L-7,2 L-5,2 L-7,8 L-2,8 L-1,3 Z " fill="#EEEEEE" transform="translate(18,6)"/>
<path d="M0,0 L4,0 L4,2 L6,2 L7,9 L3,7 L3,1 Z " fill="#B7B7B7" transform="translate(10,17)"/>
<path d="M0,0 L2,0 L0,6 L3,7 L-3,8 L-2,3 Z " fill="#CCCCCC" transform="translate(11,8)"/>
</svg>
