<?xml version="1.0" encoding="UTF-8"?>
<svg version="1.1" xmlns="http://www.w3.org/2000/svg" width="28" height="28">
<path d="M0,0 L28,0 L28,28 L0,28 Z " fill="#040404" transform="translate(0,0)"/>
<path d="M0,0 L4,1 L-1,6 L-1,9 L-6,12 L-9,16 L-12,16 L-10,11 L-15,9 L-13,5 L-9,1 L-6,1 L-6,3 L-10,7 L-5,6 L-4,4 L-2,4 Z " fill="#E5E5E5" transform="translate(21,7)"/>
<path d="M0,0 L6,0 L5,7 L2,7 L4,2 Z " fill="#D4D4D4" transform="translate(7,16)"/>
<path d="M0,0 L4,1 L-2,6 L-4,4 L-2,4 Z " fill="#DBDBDB" transform="translate(21,7)"/>
</svg>
