<?xml version="1.0" encoding="UTF-8"?>
<svg version="1.1" xmlns="http://www.w3.org/2000/svg" width="28" height="28">
<path d="M0,0 L28,0 L28,28 L0,28 Z " fill="#020202" transform="translate(0,0)"/>
<path d="M0,0 L2,0 L0,5 L-3,11 L-9,20 L-11,20 L-10,14 L-9,13 L-14,13 L-13,9 L-8,2 L-6,2 L-8,7 L-9,9 L-5,9 L-3,4 Z " fill="#E9E9E9" transform="translate(21,5)"/>
<path d="M0,0 L2,0 L0,5 L-1,7 L2,8 L-1,11 L-6,11 L-5,7 Z " fill="#C9C9C9" transform="translate(13,7)"/>
<path d="M0,0 L2,0 L0,5 L-2,10 L-4,7 L-2,2 Z " fill="#CFCFCF" transform="translate(21,5)"/>
</svg>
