<?xml version="1.0" encoding="UTF-8"?>
<svg version="1.1" xmlns="http://www.w3.org/2000/svg" width="28" height="28">
<path d="M0,0 L28,0 L28,28 L0,28 Z " fill="#030303" transform="translate(0,0)"/>
<path d="M0,0 L2,0 L4,4 L4,8 L11,8 L11,10 L5,10 L5,16 L2,15 L2,11 L-9,11 L-8,7 L-2,3 Z " fill="#E9E9E9" transform="translate(14,6)"/>
<path d="M0,0 L2,0 L2,3 L0,3 L0,5 L4,5 L4,7 L-5,7 L-4,3 Z " fill="#EEEEEE" transform="translate(10,10)"/>
<path d="M0,0 L2,0 L3,4 L2,9 L-4,9 L-4,7 L-2,7 L-1,1 Z " fill="#979797" transform="translate(14,6)"/>
</svg>
