<?xml version="1.0" encoding="UTF-8"?>
<svg version="1.1" xmlns="http://www.w3.org/2000/svg" width="28" height="28">
<path d="M0,0 L28,0 L28,28 L0,28 Z " fill="#030303" transform="translate(0,0)"/>
<path d="M0,0 L2,0 L1,9 L7,10 L8,2 L10,2 L10,10 L9,11 L8,19 L5,19 L6,12 L0,12 L-2,10 L-2,4 Z " fill="#F6F6F6" transform="translate(10,5)"/>
<path d="M0,0 L2,0 L1,9 L7,10 L7,11 L0,12 L-2,10 L-2,4 Z " fill="#CACACA" transform="translate(10,5)"/>
<path d="M0,0 L2,1 L2,7 L-1,7 Z " fill="#D5D5D5" transform="translate(16,17)"/>
</svg>
