<?xml version="1.0" encoding="UTF-8"?>
<svg version="1.1" xmlns="http://www.w3.org/2000/svg" width="28" height="28">
<path d="M0,0 L28,0 L28,28 L0,28 Z " fill="#040404" transform="translate(0,0)"/>
<path d="M0,0 L2,0 L2,3 L4,3 L4,10 L7,11 L3,14 L1,20 L0,20 L0,13 L-10,15 L-11,11 L-6,6 Z " fill="#DCDCDC" transform="translate(16,5)"/>
<path d="M0,0 L2,0 L0,4 L-1,5 L5,6 L2,8 L-4,9 L-5,5 Z " fill="#EEEEEE" transform="translate(10,11)"/>
<path d="M0,0 L2,0 L1,6 L-7,7 L-2,2 Z " fill="#171717" transform="translate(15,10)"/>
</svg>
