<?xml version="1.0" encoding="UTF-8"?>
<svg version="1.1" xmlns="http://www.w3.org/2000/svg" width="28" height="28">
<path d="M0,0 L28,0 L28,28 L0,28 Z " fill="#030303" transform="translate(0,0)"/>
<path d="M0,0 L4,1 L6,3 L6,8 L12,7 L13,9 L5,10 L4,17 L2,18 L2,11 L-7,9 L-6,5 Z " fill="#E6E6E6" transform="translate(13,7)"/>
<path d="M0,0 L4,1 L3,8 L-4,8 L-5,7 L-7,9 L-6,5 Z " fill="#CECECE" transform="translate(13,7)"/>
<path d="M0,0 L3,0 L3,5 L-3,5 L-1,1 Z " fill="#030303" transform="translate(13,10)"/>
</svg>
