<?xml version="1.0" encoding="UTF-8"?>
<svg version="1.1" xmlns="http://www.w3.org/2000/svg" width="28" height="28">
<path d="M0,0 L28,0 L28,28 L0,28 Z " fill="#030303" transform="translate(0,0)"/>
<path d="M0,0 L2,1 L3,10 L11,9 L11,1 L13,2 L16,12 L16,15 L18,15 L17,20 L15,19 L14,13 L1,15 L0,14 Z " fill="#EAEAEA" transform="translate(6,4)"/>
<path d="M0,0 L2,1 L3,10 L7,11 L0,12 Z " fill="#C5C5C5" transform="translate(6,4)"/>
<path d="M0,0 L2,4 L2,7 L4,7 L3,12 L1,11 L0,8 Z " fill="#CECECE" transform="translate(20,12)"/>
</svg>
