<?xml version="1.0" encoding="UTF-8"?>
<svg version="1.1" xmlns="http://www.w3.org/2000/svg" width="28" height="28">
<path d="M0,0 L28,0 L28,28 L0,28 Z " fill="#030303" transform="translate(0,0)"/>
<path d="M0,0 L2,0 L2,2 L4,2 L2,10 L8,8 L6,12 L-1,16 L-2,19 L-4,19 L-4,15 L-9,15 L-12,13 L-11,9 L-9,9 L-8,6 L-6,6 L-6,4 Z " fill="#DCDCDC" transform="translate(17,5)"/>
<path d="M0,0 L2,0 L0,4 L-5,9 L-8,10 L-8,12 L-2,12 L-3,14 L-10,14 L-12,13 L-11,9 L-9,9 L-8,6 L-6,6 L-6,4 Z " fill="#E5E5E5" transform="translate(17,5)"/>
<path d="M0,0 L1,3 L-2,7 L-3,10 L-9,10 L-9,8 L-1,1 Z " fill="#1A1A1A" transform="translate(18,7)"/>
</svg>
