<?xml version="1.0" encoding="UTF-8"?>
<svg version="1.1" xmlns="http://www.w3.org/2000/svg" width="28" height="28">
<path d="M0,0 L28,0 L28,28 L0,28 Z " fill="#020202" transform="translate(0,0)"/>
<path d="M0,0 L2,1 L2,8 L1,11 L4,11 L4,6 L6,6 L8,13 L8,20 L6,20 L4,14 L-2,13 L-3,10 L-1,6 Z " fill="#D5D5D5" transform="translate(12,4)"/>
<path d="M0,0 L2,1 L2,8 L0,12 L-3,11 L-1,6 Z " fill="#F0F0F0" transform="translate(12,4)"/>
<path d="M0,0 L1,3 L3,4 L2,9 L-1,9 Z " fill="#202020" transform="translate(14,6)"/>
</svg>
