<?xml version="1.0" encoding="UTF-8"?>
<svg version="1.1" xmlns="http://www.w3.org/2000/svg" width="28" height="28">
<path d="M0,0 L28,0 L28,28 L0,28 Z " fill="#030303" transform="translate(0,0)"/>
<path d="M0,0 L2,0 L1,13 L-2,20 L-3,20 L-2,13 L-12,14 L-12,9 L-10,9 L-10,1 L-7,1 L-9,11 L-1,11 Z " fill="#E1E1E1" transform="translate(19,5)"/>
<path d="M0,0 L3,0 L1,10 L3,11 L-2,12 L-2,8 L0,8 Z " fill="#C1C1C1" transform="translate(9,6)"/>
<path d="M0,0 L2,0 L1,10 L-1,10 Z " fill="#C5C5C5" transform="translate(19,5)"/>
</svg>
