<?xml version="1.0" encoding="UTF-8"?>
<svg version="1.1" xmlns="http://www.w3.org/2000/svg" width="28" height="28">
<path d="M0,0 L28,0 L28,28 L0,28 Z " fill="#030303" transform="translate(0,0)"/>
<path d="M0,0 L4,1 L4,3 L2,3 L3,10 L7,9 L8,2 L13,3 L10,4 L14,19 L11,20 L9,12 L3,12 L0,3 Z " fill="#DEDEDE" transform="translate(7,6)"/>
<path d="M0,0 L2,2 L5,14 L2,15 L0,5 Z " fill="#E2E2E2" transform="translate(16,11)"/>
<path d="M0,0 L5,1 L2,3 L2,10 L-1,7 Z " fill="#ACACAC" transform="translate(15,8)"/>
</svg>
