<?xml version="1.0" encoding="UTF-8"?>
<svg version="1.1" xmlns="http://www.w3.org/2000/svg" width="28" height="28">
<path d="M0,0 L28,0 L28,28 L0,28 Z " fill="#020202" transform="translate(0,0)"/>
<path d="M0,0 L2,1 L2,13 L0,13 L-1,20 L-4,20 L-4,12 L-10,13 L-8,9 L-3,2 Z " fill="#CACACA" transform="translate(17,5)"/>
<path d="M0,0 L1,2 L3,3 L2,6 L-1,5 L-5,6 L-3,2 Z " fill="#F1F1F1" transform="translate(12,12)"/>
<path d="M0,0 L2,1 L1,7 L-1,7 L-1,5 L-3,5 L-3,2 Z " fill="#EEEEEE" transform="translate(17,5)"/>
</svg>
