<?xml version="1.0" encoding="UTF-8"?>
<svg version="1.1" xmlns="http://www.w3.org/2000/svg" width="28" height="28">
<path d="M0,0 L28,0 L28,28 L0,28 Z " fill="#030303" transform="translate(0,0)"/>
<path d="M0,0 L2,0 L-1,9 L-1,14 L-4,16 L-5,20 L-7,20 L-6,13 L-14,12 L-12,8 L-9,3 L-8,6 L-10,10 L-4,12 L-2,3 Z " fill="#D9D9D9" transform="translate(21,5)"/>
<path d="M0,0 L1,3 L-1,7 L3,9 L1,10 L-5,9 L-3,5 Z " fill="#DCDCDC" transform="translate(12,8)"/>
<path d="M0,0 L2,0 L-1,9 L-3,13 L-3,6 Z " fill="#ACACAC" transform="translate(21,5)"/>
</svg>
