<?xml version="1.0" encoding="UTF-8"?>
<svg version="1.1" xmlns="http://www.w3.org/2000/svg" width="28" height="28">
<path d="M0,0 L28,0 L28,28 L0,28 Z " fill="#020202" transform="translate(0,0)"/>
<path d="M0,0 L2,0 L1,8 L0,10 L3,10 L3,7 L5,7 L4,11 L3,12 L-2,12 L-4,18 L-7,20 L-6,15 L-5,13 L-13,13 L-13,11 L-6,6 L-2,1 Z " fill="#D6D6D6" transform="translate(18,5)"/>
<path d="M0,0 L2,0 L2,5 L1,2 L-2,9 L-3,11 L-8,11 L-9,8 L-4,3 Z " fill="#C6C6C6" transform="translate(18,5)"/>
<path d="M0,0 L1,4 L-1,7 L-6,7 Z " fill="#1C1C1C" transform="translate(16,9)"/>
</svg>
