<?xml version="1.0" encoding="UTF-8"?>
<svg version="1.1" xmlns="http://www.w3.org/2000/svg" width="28" height="28">
<path d="M0,0 L28,0 L28,28 L0,28 Z " fill="#020202" transform="translate(0,0)"/>
<path d="M0,0 L2,1 L0,3 L0,10 L3,10 L3,13 L1,13 L2,19 L0,20 L-2,16 L-12,15 L-14,14 L-14,12 L-11,11 L-9,7 L-4,4 Z " fill="#DADADA" transform="translate(18,4)"/>
<path d="M0,0 L3,0 L4,6 L1,10 L-5,10 L-7,9 L-7,7 L-4,6 L-2,2 Z " fill="#CBCBCB" transform="translate(11,9)"/>
<path d="M0,0 L2,0 L3,4 L1,6 L-3,6 L-1,2 Z " fill="#0A0A0A" transform="translate(12,11)"/>
</svg>
