<?xml version="1.0" encoding="UTF-8"?>
<svg version="1.1" xmlns="http://www.w3.org/2000/svg" width="28" height="28">
<path d="M0,0 L28,0 L28,28 L0,28 Z " fill="#040404" transform="translate(0,0)"/>
<path d="M0,0 L2,0 L1,5 L-1,9 L7,8 L8,3 L12,4 L9,14 L9,20 L5,20 L7,11 L-1,13 L-6,13 L-5,9 Z " fill="#DBDBDB" transform="translate(11,5)"/>
<path d="M0,0 L1,0 L1,11 L-3,11 L-1,1 Z " fill="#EFEFEF" transform="translate(19,14)"/>
<path d="M0,0 L9,1 L5,3 L-2,4 Z " fill="#F4F4F4" transform="translate(8,14)"/>
</svg>
