<?xml version="1.0" encoding="UTF-8"?>
<svg version="1.1" xmlns="http://www.w3.org/2000/svg" width="28" height="28">
<path d="M0,0 L28,0 L28,28 L0,28 Z " fill="#050505" transform="translate(0,0)"/>
<path d="M0,0 L2,0 L0,8 L8,7 L8,0 L10,0 L11,7 L14,8 L14,10 L11,10 L11,18 L9,18 L9,9 L0,11 L-4,11 L-1,1 Z " fill="#EDEDED" transform="translate(9,7)"/>
<path d="M0,0 L2,0 L0,8 L5,7 L8,9 L0,11 L-4,11 L-1,1 Z " fill="#E0E0E0" transform="translate(9,7)"/>
<path d="M0,0 L2,0 L1,9 L-1,9 L-2,4 Z " fill="#BCBCBC" transform="translate(9,7)"/>
</svg>
