<?xml version="1.0" encoding="UTF-8"?>
<svg version="1.1" xmlns="http://www.w3.org/2000/svg" width="28" height="28">
<path d="M0,0 L28,0 L28,28 L0,28 Z " fill="#040404" transform="translate(0,0)"/>
<path d="M0,0 L2,0 L0,8 L4,7 L4,10 L-1,10 L-3,20 L-5,19 L-3,10 L-12,10 L-11,6 L-9,2 L-7,2 L-8,7 L-2,8 Z " fill="#C7C7C7" transform="translate(18,6)"/>
<path d="M0,0 L2,0 L0,7 L6,7 L6,8 L-3,8 L-2,4 Z " fill="#E9E9E9" transform="translate(9,8)"/>
<path d="M0,0 L2,1 L0,10 L-2,9 Z " fill="#E7E7E7" transform="translate(15,16)"/>
</svg>
