<?xml version="1.0" encoding="UTF-8"?>
<svg version="1.1" xmlns="http://www.w3.org/2000/svg" width="28" height="28">
<path d="M0,0 L28,0 L28,28 L0,28 Z " fill="#020202" transform="translate(0,0)"/>
<path d="M0,0 L2,0 L3,8 L8,8 L8,10 L1,11 L1,20 L-1,20 L-1,12 L-9,13 L-9,9 Z " fill="#CACACA" transform="translate(16,6)"/>
<path d="M0,0 L2,0 L1,8 L0,4 L-2,4 L-4,8 L-5,9 L-3,11 L-4,13 L-9,13 L-9,9 Z " fill="#D5D5D5" transform="translate(16,6)"/>
<path d="M0,0 L2,0 L1,8 L0,4 L-2,4 L-2,6 L-5,5 Z " fill="#F1F1F1" transform="translate(16,6)"/>
<path d="M0,0 L2,0 L0,6 L-4,5 Z " fill="#222222" transform="translate(14,10)"/>
</svg>
