<?xml version="1.0" encoding="UTF-8"?>
<svg version="1.1" xmlns="http://www.w3.org/2000/svg" width="28" height="28">
<path d="M0,0 L28,0 L28,28 L0,28 Z " fill="#010101" transform="translate(0,0)"/>
<path d="M0,0 L2,1 L1,11 L5,11 L5,13 L0,13 L0,20 L-3,20 L-3,13 L-13,12 L-13,9 L-3,5 Z " fill="#C8C8C8" transform="translate(18,4)"/>
<path d="M0,0 L2,0 L2,2 L0,3 L3,6 L-8,6 L-8,3 Z " fill="#DEDEDE" transform="translate(13,10)"/>
<path d="M0,0 L2,1 L1,11 L0,11 L-1,7 L-1,10 L-7,10 L-3,8 L-2,4 Z " fill="#8F8F8F" transform="translate(18,4)"/>
</svg>
