<?xml version="1.0" encoding="UTF-8"?>
<svg version="1.1" xmlns="http://www.w3.org/2000/svg" width="28" height="28">
<path d="M0,0 L28,0 L28,28 L0,28 Z " fill="#020202" transform="translate(0,0)"/>
<path d="M0,0 L2,1 L4,8 L4,11 L7,12 L7,14 L4,14 L4,20 L2,20 L1,16 L-6,14 L-7,10 L-1,1 Z " fill="#E6E6E6" transform="translate(14,5)"/>
<path d="M0,0 L2,1 L4,7 L1,9 L1,6 L-1,6 L-2,8 L-4,8 L-2,2 Z " fill="#EDEDED" transform="translate(14,5)"/>
<path d="M0,0 L2,0 L2,6 L-2,6 Z " fill="#424242" transform="translate(13,11)"/>
</svg>
