<?xml version="1.0" encoding="UTF-8"?>
<svg version="1.1" xmlns="http://www.w3.org/2000/svg" width="28" height="28">
<path d="M0,0 L28,0 L28,28 L0,28 Z " fill="#000000" transform="translate(0,0)"/>
<path d="M0,0 L2,0 L3,12 L2,20 L-1,19 L0,11 L-7,12 L-6,6 L-4,1 L-2,1 L-3,6 L-5,10 L0,10 Z " fill="#C4C4C4" transform="translate(16,6)"/>
<path d="M0,0 L3,1 L3,10 L-2,10 L-1,6 Z " fill="#191919" transform="translate(13,6)"/>
<path d="M0,0 L2,0 L1,5 L-1,11 L-3,11 L-2,5 Z " fill="#E6E6E6" transform="translate(12,7)"/>
</svg>
