<?xml version="1.0" encoding="UTF-8"?>
<svg version="1.1" xmlns="http://www.w3.org/2000/svg" width="28" height="28">
<path d="M0,0 L28,0 L28,28 L0,28 Z " fill="#010101" transform="translate(0,0)"/>
<path d="M0,0 L1,3 L-1,9 L3,9 L3,11 L-3,12 L-8,20 L-10,20 L-9,15 L-7,12 L-14,12 L-13,7 L-9,1 L-7,2 L-9,7 L-10,9 L-4,9 L-3,4 Z " fill="#E4E4E4" transform="translate(20,5)"/>
<path d="M0,0 L1,2 L8,2 L8,4 L10,5 L6,11 L4,11 L5,6 L7,3 L0,3 Z " fill="#B5B5B5" transform="translate(6,14)"/>
<path d="M0,0 L2,1 L0,6 L-2,8 L-4,8 L-2,4 Z " fill="#D1D1D1" transform="translate(11,6)"/>
</svg>
