<?xml version="1.0" encoding="UTF-8"?>
<svg version="1.1" xmlns="http://www.w3.org/2000/svg" width="28" height="28">
<path d="M0,0 L28,0 L28,28 L0,28 Z " fill="#020202" transform="translate(0,0)"/>
<path d="M0,0 L4,0 L3,10 L12,10 L9,12 L3,12 L3,17 L1,17 L1,12 L-7,12 L-7,9 Z " fill="#CDCDCD" transform="translate(14,6)"/>
<path d="M0,0 L4,0 L4,2 L2,2 L1,6 L1,4 L-1,4 L-3,8 L-3,11 L-8,11 L-4,5 Z " fill="#DADADA" transform="translate(14,6)"/>
<path d="M0,0 L2,0 L2,6 L-4,6 Z " fill="#1E1E1E" transform="translate(13,10)"/>
</svg>
