<?xml version="1.0" encoding="UTF-8"?>
<svg version="1.1" xmlns="http://www.w3.org/2000/svg" width="28" height="28">
<path d="M0,0 L28,0 L28,28 L0,28 Z " fill="#020202" transform="translate(0,0)"/>
<path d="M0,0 L2,0 L0,4 L-1,6 L5,6 L5,1 L7,1 L8,18 L5,19 L4,17 L4,9 L-8,9 L-7,5 L-2,2 L0,2 Z " fill="#F4F4F4" transform="translate(13,7)"/>
<path d="M0,0 L3,0 L3,2 L5,2 L5,7 L-1,7 L1,3 L2,1 Z " fill="#353535" transform="translate(13,6)"/>
<path d="M0,0 L1,0 L2,11 L-1,12 L-2,5 L-1,5 Z " fill="#C3C3C3" transform="translate(19,14)"/>
</svg>
