<?xml version="1.0" encoding="UTF-8"?>
<svg version="1.1" xmlns="http://www.w3.org/2000/svg" width="28" height="28">
<path d="M0,0 L28,0 L28,28 L0,28 Z " fill="#020202" transform="translate(0,0)"/>
<path d="M0,0 L1,3 L-3,10 L-1,11 L-7,15 L-11,20 L-13,20 L-11,16 L-9,13 L-14,13 L-13,9 L-9,4 L-7,4 L-9,8 L-9,11 L-7,11 L-2,4 Z " fill="#E2E2E2" transform="translate(22,4)"/>
<path d="M0,0 L1,3 L-3,10 L-1,11 L-3,12 L-6,9 L-2,4 Z " fill="#BCBCBC" transform="translate(22,4)"/>
<path d="M0,0 L2,0 L0,4 L0,7 L-3,9 L-5,9 L-4,5 Z " fill="#BFBFBF" transform="translate(13,8)"/>
</svg>
