<?xml version="1.0" encoding="UTF-8"?>
<svg version="1.1" xmlns="http://www.w3.org/2000/svg" width="28" height="28">
<path d="M0,0 L28,0 L28,28 L0,28 Z " fill="#020202" transform="translate(0,0)"/>
<path d="M0,0 L3,1 L2,12 L4,12 L3,20 L1,20 L1,15 L-9,14 L-12,11 L-12,8 Z " fill="#D3D3D3" transform="translate(17,5)"/>
<path d="M0,0 L1,0 L1,10 L-9,8 L-9,6 Z " fill="#0F0F0F" transform="translate(16,8)"/>
<path d="M0,0 L2,3 L2,7 L4,7 L3,15 L1,15 L1,10 L-5,9 L-5,8 L0,8 Z " fill="#EAEAEA" transform="translate(17,10)"/>
</svg>
