<?xml version="1.0" encoding="UTF-8"?>
<svg version="1.1" xmlns="http://www.w3.org/2000/svg" width="28" height="28">
<path d="M0,0 L28,0 L28,28 L0,28 Z " fill="#030303" transform="translate(0,0)"/>
<path d="M0,0 L4,2 L3,9 L9,9 L9,11 L3,12 L0,18 L-1,18 L-1,12 L-3,13 L-10,13 L-10,9 L-5,4 Z " fill="#EBEBEB" transform="translate(16,6)"/>
<path d="M0,0 L1,3 L-1,6 L-6,9 L-7,10 L0,10 L-3,13 L-10,13 L-10,9 L-5,4 Z M1,7 L1,10 Z " fill="#F2F2F2" transform="translate(16,6)"/>
<path d="M0,0 L1,2 L0,7 L-8,8 L-4,3 Z " fill="#1D1D1D" transform="translate(16,9)"/>
<path d="M0,0 L1,3 L-1,6 L-9,8 L-4,3 Z " fill="#DBDBDB" transform="translate(16,6)"/>
<path d="M0,0 L2,0 L1,7 L3,8 L0,8 L-2,6 L-1,1 Z " fill="#D3D3D3" transform="translate(18,8)"/>
</svg>
