<?xml version="1.0" encoding="UTF-8"?>
<svg version="1.1" xmlns="http://www.w3.org/2000/svg" width="28" height="28">
<path d="M0,0 L28,0 L28,28 L0,28 Z " fill="#020202" transform="translate(0,0)"/>
<path d="M0,0 L3,1 L0,8 L3,9 L-3,11 L-5,19 L-9,20 L-7,13 L-13,14 L-13,9 L-11,7 L-10,3 L-8,3 L-9,9 L-3,9 Z " fill="#E2E2E2" transform="translate(20,5)"/>
<path d="M0,0 L2,0 L3,6 L0,9 L-2,9 Z " fill="#C6C6C6" transform="translate(13,16)"/>
<path d="M0,0 L3,1 L0,8 L-2,7 Z " fill="#CFCFCF" transform="translate(20,5)"/>
</svg>
