<?xml version="1.0" encoding="UTF-8"?>
<svg version="1.1" xmlns="http://www.w3.org/2000/svg" width="28" height="28">
<path d="M0,0 L28,0 L28,28 L0,28 Z " fill="#020202" transform="translate(0,0)"/>
<path d="M0,0 L2,0 L0,6 L-5,11 L-13,19 L-15,18 L-10,12 L-18,12 L-18,9 L-12,4 L-11,2 L-9,2 L-11,7 L-5,7 L-1,2 Z " fill="#D5D5D5" transform="translate(23,5)"/>
<path d="M0,0 L2,0 L0,5 L5,6 L5,7 L-3,7 L-4,10 L-7,10 L-7,7 L-1,2 Z " fill="#B8B8B8" transform="translate(12,7)"/>
<path d="M0,0 L9,1 L8,4 L6,4 L6,2 L-2,3 Z " fill="#F6F6F6" transform="translate(9,13)"/>
</svg>
