<?xml version="1.0" encoding="UTF-8"?>
<svg version="1.1" xmlns="http://www.w3.org/2000/svg" width="28" height="28">
<path d="M0,0 L28,0 L28,28 L0,28 Z " fill="#020202" transform="translate(0,0)"/>
<path d="M0,0 L2,0 L2,2 L4,2 L4,9 L8,10 L4,11 L4,20 L2,20 L0,13 L-11,14 L-11,12 L-3,5 Z " fill="#E0E0E0" transform="translate(15,5)"/>
<path d="M0,0 L2,0 L2,5 L-1,7 L-6,7 L-4,9 L-10,9 L-10,7 L-5,3 L-1,2 Z " fill="#D5D5D5" transform="translate(14,10)"/>
<path d="M0,0 L2,0 L2,5 L-4,6 Z " fill="#141414" transform="translate(14,10)"/>
</svg>
