<?xml version="1.0" encoding="UTF-8"?>
<svg version="1.1" xmlns="http://www.w3.org/2000/svg" width="28" height="28">
<path d="M0,0 L28,0 L28,28 L0,28 Z " fill="#030303" transform="translate(0,0)"/>
<path d="M0,0 L2,2 L1,7 L0,10 L5,9 L6,2 L8,2 L9,8 L13,9 L13,11 L8,14 L7,20 L4,20 L4,12 L2,13 L-5,13 L-4,8 Z " fill="#DDDDDD" transform="translate(11,5)"/>
<path d="M0,0 L1,2 L6,1 L4,5 L-3,5 L-1,1 Z " fill="#F3F3F3" transform="translate(9,13)"/>
<path d="M0,0 L2,0 L2,6 L-1,6 L-1,1 Z " fill="#C5C5C5" transform="translate(16,19)"/>
</svg>
