<?xml version="1.0" encoding="UTF-8"?>
<svg version="1.1" xmlns="http://www.w3.org/2000/svg" width="28" height="28">
<path d="M0,0 L28,0 L28,28 L0,28 Z " fill="#010101" transform="translate(0,0)"/>
<path d="M0,0 L2,0 L3,10 L4,12 L1,12 L0,20 L-2,20 L-2,14 L-10,13 L-9,9 L-3,1 L-1,1 L-2,5 L-6,9 L-7,12 L-2,11 Z " fill="#DDDDDD" transform="translate(17,5)"/>
<path d="M0,0 L1,3 L-1,9 L-6,9 L-5,5 L-2,4 Z " fill="#1A1A1A" transform="translate(16,8)"/>
<path d="M0,0 L2,0 L3,11 L-1,10 Z " fill="#B2B2B2" transform="translate(17,5)"/>
</svg>
