<?xml version="1.0" encoding="UTF-8"?>
<svg version="1.1" xmlns="http://www.w3.org/2000/svg" width="28" height="28">
<path d="M0,0 L28,0 L28,28 L0,28 Z " fill="#040404" transform="translate(0,0)"/>
<path d="M0,0 L3,0 L3,2 L1,2 L1,6 L-1,6 L-1,11 L2,12 L-2,15 L-5,16 L-7,20 L-10,20 L-8,14 L-14,14 L-12,8 L-10,3 L-8,3 L-9,11 L-6,11 L-4,6 Z " fill="#F0F0F0" transform="translate(20,4)"/>
<path d="M0,0 L3,0 L3,2 L1,2 L1,6 L-1,6 L-2,12 L-4,10 L-5,12 L-10,12 L-9,10 L-6,11 L-4,6 Z " fill="#DBDBDB" transform="translate(20,4)"/>
<path d="M0,0 L3,3 L1,6 L0,4 L-1,6 L-6,6 L-5,4 L-2,5 Z " fill="#A8A8A8" transform="translate(16,10)"/>
</svg>
