<?xml version="1.0" encoding="UTF-8"?>
<svg version="1.1" xmlns="http://www.w3.org/2000/svg" width="28" height="28">
<path d="M0,0 L28,0 L28,28 L0,28 Z " fill="#020202" transform="translate(0,0)"/>
<path d="M0,0 L3,0 L3,2 L1,2 L-1,10 L3,10 L3,12 L-2,13 L-5,20 L-6,20 L-6,14 L-13,13 L-13,9 L-5,2 L-3,2 L-5,6 L-10,10 L-4,11 L-2,4 Z " fill="#D6D6D6" transform="translate(19,5)"/>
<path d="M0,0 L2,0 L-1,9 L-8,9 L-4,4 Z " fill="#181818" transform="translate(16,7)"/>
<path d="M0,0 L3,0 L3,2 L1,2 L-1,11 L-3,8 L-2,4 Z " fill="#CACACA" transform="translate(19,5)"/>
<path d="M0,0 L2,0 L0,4 L-4,7 L-6,7 L-4,3 Z " fill="#E7E7E7" transform="translate(14,7)"/>
</svg>
