<?xml version="1.0" encoding="UTF-8"?>
<svg version="1.1" xmlns="http://www.w3.org/2000/svg" width="28" height="28">
<path d="M0,0 L28,0 L28,28 L0,28 Z " fill="#020202" transform="translate(0,0)"/>
<path d="M0,0 L2,2 L2,10 L11,9 L11,11 L9,12 L2,12 L2,18 L0,18 L0,13 L-8,13 L-8,9 L-4,7 L-5,1 L-2,3 Z " fill="#C6C6C6" transform="translate(15,5)"/>
<path d="M0,0 L1,0 L1,5 L10,4 L10,6 L8,7 L1,7 L1,13 L-1,13 L-1,8 L-9,8 L-8,5 L-1,5 Z " fill="#E3E3E3" transform="translate(16,10)"/>
<path d="M0,0 L2,0 L2,5 L-4,5 Z " fill="#373737" transform="translate(13,11)"/>
</svg>
