<?xml version="1.0" encoding="UTF-8"?>
<svg version="1.1" xmlns="http://www.w3.org/2000/svg" width="28" height="28">
<path d="M0,0 L28,0 L28,28 L0,28 Z " fill="#010101" transform="translate(0,0)"/>
<path d="M0,0 L3,1 L3,12 L9,12 L8,14 L3,14 L3,20 L1,20 L1,15 L-4,15 L-5,10 L-1,5 Z " fill="#BDBDBD" transform="translate(13,4)"/>
<path d="M0,0 L7,0 L6,2 L1,2 L1,8 L-1,8 L-1,1 Z " fill="#CBCBCB" transform="translate(15,16)"/>
<path d="M0,0 L1,0 L1,6 L-4,7 Z " fill="#222222" transform="translate(14,9)"/>
<path d="M0,0 L3,1 L3,10 L2,10 L2,5 L0,5 Z " fill="#D9D9D9" transform="translate(13,4)"/>
</svg>
