<?xml version="1.0" encoding="UTF-8"?>
<svg version="1.1" xmlns="http://www.w3.org/2000/svg" width="28" height="28">
<path d="M0,0 L28,0 L28,28 L0,28 Z " fill="#010101" transform="translate(0,0)"/>
<path d="M0,0 L2,0 L3,6 L4,13 L6,13 L6,15 L4,16 L4,20 L2,20 L2,17 L-5,17 L-7,14 L-7,6 L-3,5 L-1,7 Z " fill="#BDBDBD" transform="translate(15,4)"/>
<path d="M0,0 L4,1 L4,4 L1,2 L2,9 L6,11 L1,12 L-1,9 L-1,1 Z " fill="#CDCDCD" transform="translate(9,9)"/>
<path d="M0,0 L3,1 L3,3 L5,3 L5,8 L0,7 Z " fill="#111111" transform="translate(10,11)"/>
</svg>
