<?xml version="1.0" encoding="UTF-8"?>
<svg version="1.1" xmlns="http://www.w3.org/2000/svg" width="28" height="28">
<path d="M0,0 L28,0 L28,28 L0,28 Z " fill="#030303" transform="translate(0,0)"/>
<path d="M0,0 L2,0 L2,7 L0,12 L4,12 L5,4 L6,0 L9,0 L7,12 L12,11 L11,14 L6,15 L5,20 L1,20 L2,15 L-4,16 L-3,8 Z " fill="#EEEEEE" transform="translate(11,4)"/>
<path d="M0,0 L2,0 L2,7 L0,12 L3,13 L-2,12 L-4,13 L-1,1 Z " fill="#D3D3D3" transform="translate(11,4)"/>
<path d="M0,0 L2,0 L2,7 L0,5 L-2,6 Z " fill="#B6B6B6" transform="translate(11,4)"/>
</svg>
