<?xml version="1.0" encoding="UTF-8"?>
<svg version="1.1" xmlns="http://www.w3.org/2000/svg" width="28" height="28">
<path d="M0,0 L28,0 L28,28 L0,28 Z " fill="#020202" transform="translate(0,0)"/>
<path d="M0,0 L3,0 L0,9 L-5,20 L-8,20 L-7,15 L-5,9 L-12,12 L-16,13 L-14,8 L-10,2 L-7,2 L-7,5 L-2,6 Z " fill="#E7E7E7" transform="translate(20,5)"/>
<path d="M0,0 L3,0 L3,3 L8,4 L8,5 L1,5 L-1,4 Z " fill="#C7C7C7" transform="translate(10,7)"/>
<path d="M0,0 L3,0 L2,5 L-2,6 Z " fill="#D2D2D2" transform="translate(20,5)"/>
</svg>
