<?xml version="1.0" encoding="UTF-8"?>
<svg version="1.1" xmlns="http://www.w3.org/2000/svg" width="28" height="28">
<path d="M0,0 L28,0 L28,28 L0,28 Z " fill="#020202" transform="translate(0,0)"/>
<path d="M0,0 L2,1 L-1,9 L1,10 L-2,10 L-4,19 L-6,20 L-7,15 L-6,12 L-12,11 L-11,3 L-10,1 L-8,1 L-9,8 L-4,8 L-3,3 Z " fill="#E6E6E6" transform="translate(20,6)"/>
<path d="M0,0 L2,0 L1,7 L5,8 L0,8 L-1,2 Z " fill="#9F9F9F" transform="translate(10,7)"/>
<path d="M0,0 L2,1 L-1,9 L-3,5 L-1,1 Z " fill="#CBCBCB" transform="translate(20,6)"/>
</svg>
