<?xml version="1.0" encoding="UTF-8"?>
<svg version="1.1" xmlns="http://www.w3.org/2000/svg" width="28" height="28">
<path d="M0,0 L28,0 L28,28 L0,28 Z " fill="#020202" transform="translate(0,0)"/>
<path d="M0,0 L2,0 L0,4 L-5,10 L-7,10 L-9,14 L-11,18 L-14,19 L-13,14 L-12,12 L-17,10 L-16,6 L-11,1 L-7,1 L-7,3 L-12,7 L-7,7 L-4,4 L-3,1 Z " fill="#E6E6E6" transform="translate(23,6)"/>
<path d="M0,0 L4,0 L4,2 L-1,6 L4,7 L4,8 L-3,8 L-6,8 L-4,4 Z " fill="#B1B1B1" transform="translate(12,7)"/>
<path d="M0,0 L3,0 L4,4 L2,8 L-1,9 L0,4 L0,1 Z " fill="#CFCFCF" transform="translate(10,16)"/>
</svg>
