<?xml version="1.0" encoding="UTF-8"?>
<svg version="1.1" xmlns="http://www.w3.org/2000/svg" width="28" height="28">
<path d="M0,0 L28,0 L28,28 L0,28 Z " fill="#020202" transform="translate(0,0)"/>
<path d="M0,0 L2,0 L2,14 L1,20 L-2,19 L-2,11 L-3,12 L-8,12 L-9,11 L-9,4 L-8,1 L-5,2 L-6,9 L-1,7 Z " fill="#E7E7E7" transform="translate(17,5)"/>
<path d="M0,0 L3,1 L3,10 L5,11 L0,11 L-1,10 L-1,3 Z " fill="#A4A4A4" transform="translate(9,6)"/>
<path d="M0,0 L3,1 L1,9 L0,9 Z " fill="#E5E5E5" transform="translate(9,6)"/>
</svg>
