<?xml version="1.0" encoding="UTF-8"?>
<svg version="1.1" xmlns="http://www.w3.org/2000/svg" width="28" height="28">
<path d="M0,0 L28,0 L28,28 L0,28 Z " fill="#010101" transform="translate(0,0)"/>
<path d="M0,0 L2,0 L1,11 L4,11 L4,13 L-1,14 L-2,20 L-4,20 L-4,14 L-8,14 L-7,6 L-5,6 L-5,12 L-2,12 L-1,2 Z " fill="#C1C1C1" transform="translate(17,4)"/>
<path d="M0,0 L2,0 L1,7 L0,11 L-2,11 L-1,2 Z " fill="#E8E8E8" transform="translate(17,4)"/>
<path d="M0,0 L5,0 L4,2 L1,2 L0,8 L-1,8 L-1,1 Z " fill="#DDDDDD" transform="translate(15,16)"/>
</svg>
