<?xml version="1.0" encoding="UTF-8"?>
<svg version="1.1" xmlns="http://www.w3.org/2000/svg" width="28" height="28">
<path d="M0,0 L28,0 L28,28 L0,28 Z " fill="#030303" transform="translate(0,0)"/>
<path d="M0,0 L2,0 L3,9 L5,20 L2,20 L2,14 L-7,14 L-7,9 L-3,5 L-2,1 Z " fill="#E0E0E0" transform="translate(15,4)"/>
<path d="M0,0 L2,0 L3,8 L-5,8 L-5,3 Z " fill="#DADADA" transform="translate(13,10)"/>
<path d="M0,0 L2,0 L4,11 L1,11 L-1,3 Z " fill="#F8F8F8" transform="translate(16,13)"/>
<path d="M0,0 L2,0 L2,6 L-3,6 L-3,4 L-1,4 Z " fill="#1B1B1B" transform="translate(13,10)"/>
</svg>
