<?xml version="1.0" encoding="UTF-8"?>
<svg version="1.1" xmlns="http://www.w3.org/2000/svg" width="28" height="28">
<path d="M0,0 L28,0 L28,28 L0,28 Z " fill="#040404" transform="translate(0,0)"/>
<path d="M0,0 L2,0 L1,5 L-8,17 L-9,14 L-14,11 L-13,6 L-9,2 L-7,3 L-11,8 L-11,10 L-7,11 L-4,6 L-2,6 Z " fill="#CDCDCD" transform="translate(21,6)"/>
<path d="M0,0 L2,1 L-2,6 L-2,8 L1,10 L-4,10 L-5,6 Z " fill="#E4E4E4" transform="translate(12,8)"/>
<path d="M0,0 L4,1 L-1,6 L-1,3 L-4,1 Z " fill="#A1A1A1" transform="translate(13,17)"/>
</svg>
