<?xml version="1.0" encoding="UTF-8"?>
<svg version="1.1" xmlns="http://www.w3.org/2000/svg" width="28" height="28">
<path d="M0,0 L28,0 L28,28 L0,28 Z " fill="#010101" transform="translate(0,0)"/>
<path d="M0,0 L4,1 L2,7 L0,11 L4,7 L6,0 L9,1 L6,11 L4,14 L3,20 L0,19 L1,13 L-2,12 L-1,2 Z " fill="#D6D6D6" transform="translate(12,6)"/>
<path d="M0,0 L3,1 L0,7 L-3,8 L-2,4 Z " fill="#1B1B1B" transform="translate(15,9)"/>
<path d="M0,0 L4,1 L2,5 L-1,4 Z " fill="#B1B1B1" transform="translate(12,6)"/>
</svg>
