<?xml version="1.0" encoding="UTF-8"?>
<svg version="1.1" xmlns="http://www.w3.org/2000/svg" width="28" height="28">
<path d="M0,0 L28,0 L28,28 L0,28 Z " fill="#020202" transform="translate(0,0)"/>
<path d="M0,0 L2,0 L0,7 L-4,15 L-5,20 L-8,20 L-8,15 L-7,14 L-14,14 L-13,10 L-10,5 L-8,5 L-10,10 L-5,10 L-1,1 Z " fill="#CFCFCF" transform="translate(21,4)"/>
<path d="M0,0 L3,1 L2,6 L-1,6 L-1,1 Z " fill="#ACACAC" transform="translate(14,18)"/>
<path d="M0,0 L2,0 L0,5 L-4,9 L-3,5 Z " fill="#CACACA" transform="translate(11,9)"/>
</svg>
