<?xml version="1.0" encoding="UTF-8"?>
<svg version="1.1" xmlns="http://www.w3.org/2000/svg" width="28" height="28">
<path d="M0,0 L28,0 L28,28 L0,28 Z " fill="#030303" transform="translate(0,0)"/>
<path d="M0,0 L2,0 L1,4 L-2,8 L5,6 L7,3 L9,3 L10,0 L13,0 L11,4 L3,13 L-3,20 L-4,17 L-1,12 L-6,11 L-5,6 Z " fill="#EAEAEA" transform="translate(13,6)"/>
<path d="M0,0 L3,0 L3,2 L5,2 L3,6 L-1,9 L0,4 L2,1 Z " fill="#D2D2D2" transform="translate(10,17)"/>
<path d="M0,0 L3,0 L1,4 L-2,6 L-3,3 L-1,3 Z " fill="#D3D3D3" transform="translate(23,6)"/>
</svg>
