<?xml version="1.0" encoding="UTF-8"?>
<svg version="1.1" xmlns="http://www.w3.org/2000/svg" width="28" height="28">
<path d="M0,0 L28,0 L28,28 L0,28 Z " fill="#030303" transform="translate(0,0)"/>
<path d="M0,0 L2,0 L-1,9 L-8,20 L-10,20 L-8,15 L-7,13 L-9,13 L-9,11 L-14,12 L-13,9 L-8,4 L-6,1 L-4,1 L-5,5 L-7,10 L-4,9 Z " fill="#DCDCDC" transform="translate(20,5)"/>
<path d="M0,0 L2,0 L-1,9 L-4,9 Z " fill="#EEEEEE" transform="translate(20,5)"/>
<path d="M0,0 L3,0 L1,6 L-2,6 L-1,1 Z " fill="#1E1E1E" transform="translate(15,9)"/>
</svg>
