<?xml version="1.0" encoding="UTF-8"?>
<svg version="1.1" xmlns="http://www.w3.org/2000/svg" width="28" height="28">
<path d="M0,0 L28,0 L28,28 L0,28 Z " fill="#020202" transform="translate(0,0)"/>
<path d="M0,0 L2,0 L2,9 L1,15 L6,14 L6,12 L8,12 L9,20 L6,19 L6,16 L4,16 L4,18 L0,19 L-1,18 L-1,8 Z " fill="#D6D6D6" transform="translate(12,2)"/>
<path d="M0,0 L2,0 L2,9 L1,15 L3,16 L0,16 L-1,8 Z " fill="#CCCCCC" transform="translate(12,2)"/>
<path d="M0,0 L1,0 L1,5 L5,4 L5,7 L1,8 L0,7 Z " fill="#F4F4F4" transform="translate(11,13)"/>
</svg>
