<?xml version="1.0" encoding="UTF-8"?>
<svg version="1.1" xmlns="http://www.w3.org/2000/svg" width="28" height="28">
<path d="M0,0 L28,0 L28,28 L0,28 Z " fill="#030303" transform="translate(0,0)"/>
<path d="M0,0 L2,0 L1,9 L-4,20 L-5,20 L-4,13 L-10,12 L-14,14 L-12,10 L-9,6 L-9,10 L-2,10 Z " fill="#C4C4C4" transform="translate(19,4)"/>
<path d="M0,0 L2,0 L1,9 L-1,11 L-2,7 Z " fill="#A6A6A6" transform="translate(19,4)"/>
<path d="M0,0 L1,0 L1,5 L-2,11 L-3,11 L-2,4 Z " fill="#DADADA" transform="translate(17,13)"/>
</svg>
