<?xml version="1.0" encoding="UTF-8"?>
<svg version="1.1" xmlns="http://www.w3.org/2000/svg" width="28" height="28">
<path d="M0,0 L28,0 L28,28 L0,28 Z " fill="#020202" transform="translate(0,0)"/>
<path d="M0,0 L2,0 L3,19 L0,19 L0,13 L-17,13 L-16,9 L-11,2 L-8,2 L-8,5 L-11,8 L-1,10 L-1,1 Z " fill="#DDDDDD" transform="translate(20,5)"/>
<path d="M0,0 L2,0 L2,2 L10,2 L7,4 L-2,5 L-1,1 Z " fill="#EBEBEB" transform="translate(5,13)"/>
<path d="M0,0 L3,0 L3,3 L0,6 L8,7 L8,8 L-2,8 L-2,6 L-4,5 Z " fill="#B7B7B7" transform="translate(9,7)"/>
</svg>
