<?xml version="1.0" encoding="UTF-8"?>
<svg version="1.1" xmlns="http://www.w3.org/2000/svg" width="28" height="28">
<path d="M0,0 L28,0 L28,28 L0,28 Z " fill="#040404" transform="translate(0,0)"/>
<path d="M0,0 L3,1 L1,5 L-3,12 L-5,12 L-7,16 L-11,20 L-12,17 L-9,12 L-15,10 L-15,8 L-13,8 L-11,3 L-7,1 L-8,6 L-10,6 L-10,8 L-5,7 Z " fill="#DDDDDD" transform="translate(21,6)"/>
<path d="M0,0 L3,1 L1,5 L-2,7 L-2,3 Z " fill="#EAEAEA" transform="translate(21,6)"/>
<path d="M0,0 L1,2 L6,3 L6,4 L-2,4 L-2,2 L0,2 Z " fill="#F3F3F3" transform="translate(8,12)"/>
</svg>
