<?xml version="1.0" encoding="UTF-8"?>
<svg version="1.1" xmlns="http://www.w3.org/2000/svg" width="28" height="28">
<path d="M0,0 L28,0 L28,28 L0,28 Z " fill="#040404" transform="translate(0,0)"/>
<path d="M0,0 L4,2 L4,11 L8,10 L7,12 L4,12 L6,20 L3,19 L2,14 L-8,14 L-7,9 L0,1 Z " fill="#E5E5E5" transform="translate(14,4)"/>
<path d="M0,0 L1,3 L0,5 L9,3 L13,4 L9,5 L11,13 L8,12 L7,7 L-3,7 L-2,2 Z " fill="#E4E4E4" transform="translate(9,11)"/>
<path d="M0,0 L1,0 L2,6 L-5,7 L-3,2 Z " fill="#0C0C0C" transform="translate(14,9)"/>
<path d="M0,0 L1,0 L1,7 L-1,3 L-4,4 L-5,6 L-4,2 Z " fill="#A8A8A8" transform="translate(15,7)"/>
</svg>
