<?xml version="1.0" encoding="UTF-8"?>
<svg version="1.1" xmlns="http://www.w3.org/2000/svg" width="28" height="28">
<path d="M0,0 L28,0 L28,28 L0,28 Z " fill="#020202" transform="translate(0,0)"/>
<path d="M0,0 L2,0 L0,6 L-1,8 L3,7 L4,1 L6,1 L7,9 L5,9 L4,18 L3,20 L1,20 L2,14 L3,10 L-2,12 L-5,12 L-4,6 Z " fill="#DFDFDF" transform="translate(13,6)"/>
<path d="M0,0 L2,0 L0,6 L-1,8 L1,9 L-3,10 L-4,6 Z " fill="#B0B0B0" transform="translate(13,6)"/>
<path d="M0,0 L2,0 L3,4 L1,11 L-1,11 Z " fill="#C3C3C3" transform="translate(15,15)"/>
</svg>
