<?xml version="1.0" encoding="UTF-8"?>
<svg version="1.1" xmlns="http://www.w3.org/2000/svg" width="28" height="28">
<path d="M0,0 L28,0 L28,28 L0,28 Z " fill="#030303" transform="translate(0,0)"/>
<path d="M0,0 L2,0 L-1,9 L-2,12 L4,11 L5,4 L7,4 L7,10 L3,20 L1,19 L2,14 L-7,16 L-5,11 Z " fill="#D6D6D6" transform="translate(14,3)"/>
<path d="M0,0 L2,0 L-1,9 L-2,12 L0,13 L-4,12 L-3,7 Z " fill="#AFAFAF" transform="translate(14,3)"/>
<path d="M0,0 L1,2 L6,3 L3,5 L-3,6 L-1,1 Z " fill="#F0F0F0" transform="translate(10,13)"/>
</svg>
