<?xml version="1.0" encoding="UTF-8"?>
<svg version="1.1" xmlns="http://www.w3.org/2000/svg" width="28" height="28">
<path d="M0,0 L28,0 L28,28 L0,28 Z " fill="#030303" transform="translate(0,0)"/>
<path d="M0,0 L3,2 L3,11 L7,11 L7,13 L3,14 L2,20 L0,20 L0,14 L-10,14 L-10,10 Z " fill="#DCDCDC" transform="translate(16,4)"/>
<path d="M0,0 L1,0 L1,6 L6,6 L6,8 L2,9 L1,15 L-1,15 L-1,9 L-11,9 L-10,6 L0,7 Z " fill="#EFEFEF" transform="translate(17,9)"/>
<path d="M0,0 L2,0 L2,6 L1,7 L-5,7 L-3,3 Z " fill="#181818" transform="translate(14,9)"/>
</svg>
