<?xml version="1.0" encoding="UTF-8"?>
<svg version="1.1" xmlns="http://www.w3.org/2000/svg" width="28" height="28">
<path d="M0,0 L28,0 L28,28 L0,28 Z " fill="#020202" transform="translate(0,0)"/>
<path d="M0,0 L4,1 L4,3 L1,4 L0,7 L2,7 L1,10 L-3,10 L-4,19 L-7,20 L-7,14 L-6,12 L-14,12 L-13,7 L-9,5 L-8,2 L-6,2 L-7,6 L-10,9 L-5,8 L-2,2 Z " fill="#E3E3E3" transform="translate(20,6)"/>
<path d="M0,0 L3,3 L-1,7 L-5,6 Z " fill="#202020" transform="translate(14,9)"/>
<path d="M0,0 L4,1 L4,3 L1,4 L-1,6 L-3,5 L-1,1 Z " fill="#C7C7C7" transform="translate(20,6)"/>
</svg>
