<?xml version="1.0" encoding="UTF-8"?>
<svg version="1.1" xmlns="http://www.w3.org/2000/svg" width="28" height="28">
<path d="M0,0 L28,0 L28,28 L0,28 Z " fill="#020202" transform="translate(0,0)"/>
<path d="M0,0 L3,1 L5,11 L6,13 L5,20 L2,20 L2,14 L-5,14 L-8,13 L-7,3 L-4,3 L-4,11 L1,11 Z " fill="#EAEAEA" transform="translate(15,4)"/>
<path d="M0,0 L3,1 L2,12 L-5,12 L-4,10 L1,11 Z " fill="#BDBDBD" transform="translate(15,4)"/>
<path d="M0,0 L3,0 L3,7 L0,7 Z " fill="#DBDBDB" transform="translate(8,7)"/>
</svg>
