<?xml version="1.0" encoding="UTF-8"?>
<svg version="1.1" xmlns="http://www.w3.org/2000/svg" width="28" height="28">
<path d="M0,0 L28,0 L28,28 L0,28 Z " fill="#020202" transform="translate(0,0)"/>
<path d="M0,0 L2,0 L1,7 L5,7 L5,9 L-1,11 L-2,19 L-5,20 L-4,12 L-9,13 L-8,5 L-6,2 L-4,2 L-6,8 L-7,10 L-4,9 Z " fill="#E8E8E8" transform="translate(18,5)"/>
<path d="M0,0 L2,0 L1,7 L3,8 L-3,9 Z " fill="#B1B1B1" transform="translate(18,5)"/>
<path d="M0,0 L3,0 L2,5 L-2,6 Z " fill="#262626" transform="translate(13,9)"/>
</svg>
