<?xml version="1.0" encoding="UTF-8"?>
<svg version="1.1" xmlns="http://www.w3.org/2000/svg" width="28" height="28">
<path d="M0,0 L28,0 L28,28 L0,28 Z " fill="#030303" transform="translate(0,0)"/>
<path d="M0,0 L3,1 L1,6 L-2,11 L5,11 L7,12 L10,0 L12,0 L10,14 L7,20 L5,18 L6,15 L-6,15 L-5,9 Z " fill="#DFDFDF" transform="translate(11,4)"/>
<path d="M0,0 L3,1 L1,6 L-2,11 L5,11 L5,12 L-3,12 L-4,7 Z " fill="#C4C4C4" transform="translate(11,4)"/>
<path d="M0,0 L2,0 L2,3 L10,3 L10,5 L-1,5 Z " fill="#FAFAFA" transform="translate(6,13)"/>
</svg>
