<?xml version="1.0" encoding="UTF-8"?>
<svg version="1.1" xmlns="http://www.w3.org/2000/svg" width="28" height="28">
<path d="M0,0 L28,0 L28,28 L0,28 Z " fill="#020202" transform="translate(0,0)"/>
<path d="M0,0 L1,4 L-3,12 L1,13 L0,15 L-5,15 L-9,20 L-11,19 L-8,14 L-13,14 L-11,8 L-7,3 L-5,3 L-7,8 L-9,12 L-6,12 L-4,6 Z " fill="#E2E2E2" transform="translate(20,4)"/>
<path d="M0,0 L3,1 L0,7 L-3,7 L-2,3 Z " fill="#252525" transform="translate(14,9)"/>
<path d="M0,0 L2,0 L0,5 L-4,7 L-2,2 Z " fill="#C8C8C8" transform="translate(13,7)"/>
</svg>
