<?xml version="1.0" encoding="UTF-8"?>
<svg version="1.1" xmlns="http://www.w3.org/2000/svg" width="28" height="28">
<path d="M0,0 L28,0 L28,28 L0,28 Z " fill="#040404" transform="translate(0,0)"/>
<path d="M0,0 L2,0 L0,6 L-2,9 L2,11 L1,13 L-6,15 L-11,20 L-13,19 L-12,17 L-10,17 L-9,14 L-15,12 L-16,9 L-13,4 L-9,3 L-9,5 L-12,7 L-13,10 L-5,9 Z " fill="#F7F7F7" transform="translate(21,4)"/>
<path d="M0,0 L7,0 L8,3 L3,8 L1,7 L2,5 L4,5 L5,2 L0,1 Z " fill="#C9C9C9" transform="translate(7,16)"/>
<path d="M0,0 L3,0 L3,2 L0,4 L-2,7 L-3,3 Z " fill="#CBCBCB" transform="translate(9,7)"/>
<path d="M0,0 L2,0 L0,6 L-3,7 L-1,1 Z " fill="#D8D8D8" transform="translate(21,4)"/>
</svg>
