<?xml version="1.0" encoding="UTF-8"?>
<svg version="1.1" xmlns="http://www.w3.org/2000/svg" width="28" height="28">
<path d="M0,0 L28,0 L28,28 L0,28 Z " fill="#030303" transform="translate(0,0)"/>
<path d="M0,0 L1,0 L1,5 L-2,10 L0,9 L10,9 L10,1 L13,1 L12,10 L8,18 L6,18 L7,12 L-7,13 L-5,7 Z " fill="#CECECE" transform="translate(11,5)"/>
<path d="M0,0 L1,0 L1,5 L-2,10 L6,10 L2,12 L-7,13 L-5,7 Z " fill="#F5F5F5" transform="translate(11,5)"/>
<path d="M0,0 L1,0 L1,5 L-3,10 L-3,8 L-5,7 Z " fill="#CCCCCC" transform="translate(11,5)"/>
</svg>
