<?xml version="1.0" encoding="UTF-8"?>
<svg version="1.1" xmlns="http://www.w3.org/2000/svg" width="28" height="28">
<path d="M0,0 L28,0 L28,28 L0,28 Z " fill="#040404" transform="translate(0,0)"/>
<path d="M0,0 L2,2 L0,8 L9,8 L8,3 L10,4 L12,12 L16,11 L14,16 L11,15 L10,10 L-1,12 L-4,13 L-2,4 Z " fill="#EBEBEB" transform="translate(10,6)"/>
<path d="M0,0 L2,2 L0,8 L-3,9 L-2,4 Z " fill="#C8C8C8" transform="translate(10,6)"/>
<path d="M0,0 L1,2 L5,1 L3,6 L0,5 L-1,1 Z " fill="#CDCDCD" transform="translate(21,16)"/>
</svg>
