<?xml version="1.0" encoding="UTF-8"?>
<svg version="1.1" xmlns="http://www.w3.org/2000/svg" width="28" height="28">
<path d="M0,0 L28,0 L28,28 L0,28 Z " fill="#040404" transform="translate(0,0)"/>
<path d="M0,0 L2,0 L1,4 L0,10 L-3,11 L-5,15 L-5,17 L-8,20 L-11,20 L-10,15 L-8,11 L-17,11 L-16,6 L-15,4 L-13,4 L-12,1 L-9,1 L-11,6 L-12,8 L-5,6 Z " fill="#ECECEC" transform="translate(22,5)"/>
<path d="M0,0 L3,0 L1,5 L0,7 L6,7 L6,8 L-3,8 L-5,10 L-4,5 L-3,3 L-1,3 Z " fill="#CECECE" transform="translate(10,6)"/>
</svg>
