<?xml version="1.0" encoding="UTF-8"?>
<svg version="1.1" xmlns="http://www.w3.org/2000/svg" width="28" height="28">
<path d="M0,0 L28,0 L28,28 L0,28 Z " fill="#040404" transform="translate(0,0)"/>
<path d="M0,0 L3,1 L3,3 L-3,5 L-5,10 L2,11 L4,6 L9,1 L11,1 L10,5 L6,11 L8,11 L9,9 L9,13 L-1,20 L-3,20 L-3,16 L-1,16 L-1,14 L-7,12 L-8,7 L-7,5 L-5,5 L-3,1 Z " fill="#E5E5E5" transform="translate(13,5)"/>
<path d="M0,0 L2,0 L1,4 L-1,6 L-3,6 L-5,7 L-3,3 Z M-6,7 Z M-7,8 Z " fill="#D7D7D7" transform="translate(22,6)"/>
</svg>
