<?xml version="1.0" encoding="UTF-8"?>
<svg version="1.1" xmlns="http://www.w3.org/2000/svg" width="28" height="28">
<path d="M0,0 L28,0 L28,28 L0,28 Z " fill="#030303" transform="translate(0,0)"/>
<path d="M0,0 L2,0 L0,7 L-2,10 L2,10 L2,13 L-3,13 L-7,20 L-9,20 L-9,16 L-14,16 L-13,12 L-10,7 L-8,2 L-6,2 L-7,8 L-8,12 L-4,8 L-2,2 Z " fill="#E3E3E3" transform="translate(20,4)"/>
<path d="M0,0 L2,0 L0,7 L-2,10 L2,10 L2,13 L-4,12 L-3,3 Z " fill="#D9D9D9" transform="translate(20,4)"/>
<path d="M0,0 L2,1 L0,6 L-4,8 L-3,3 Z " fill="#242424" transform="translate(15,9)"/>
<path d="M0,0 L2,0 L1,6 L-1,8 L-1,1 Z " fill="#EDEDED" transform="translate(12,6)"/>
</svg>
