<?xml version="1.0" encoding="UTF-8"?>
<svg version="1.1" xmlns="http://www.w3.org/2000/svg" width="28" height="28">
<path d="M0,0 L28,0 L28,28 L0,28 Z " fill="#010101" transform="translate(0,0)"/>
<path d="M0,0 L1,0 L0,8 L-2,13 L1,13 L2,7 L4,8 L5,19 L2,20 L1,15 L-3,14 L-5,10 L-3,10 Z " fill="#C9C9C9" transform="translate(14,3)"/>
<path d="M0,0 L2,1 L3,12 L0,13 L1,6 L-1,6 Z " fill="#E8E8E8" transform="translate(16,10)"/>
<path d="M0,0 L2,3 L1,8 L-2,8 L-1,3 Z " fill="#222222" transform="translate(14,8)"/>
</svg>
