<?xml version="1.0" encoding="UTF-8"?>
<svg version="1.1" xmlns="http://www.w3.org/2000/svg" width="28" height="28">
<path d="M0,0 L28,0 L28,28 L0,28 Z " fill="#030303" transform="translate(0,0)"/>
<path d="M0,0 L3,0 L0,10 L5,9 L10,0 L13,0 L13,6 L9,11 L4,16 L0,20 L1,16 L3,12 L-1,11 L-2,6 Z " fill="#C9C9C9" transform="translate(10,7)"/>
<path d="M0,0 L3,0 L3,6 L1,9 L-2,9 L0,3 Z " fill="#7A7A7A" transform="translate(20,7)"/>
<path d="M0,0 L3,0 L1,5 L0,11 L-2,9 Z " fill="#E1E1E1" transform="translate(10,7)"/>
</svg>
