<?xml version="1.0" encoding="UTF-8"?>
<svg version="1.1" xmlns="http://www.w3.org/2000/svg" width="28" height="28">
<path d="M0,0 L28,0 L28,28 L0,28 Z " fill="#030303" transform="translate(0,0)"/>
<path d="M0,0 L2,0 L-1,9 L-2,13 L-4,13 L-5,18 L-8,18 L-7,13 L-17,15 L-16,11 L-13,2 L-11,2 L-11,9 L-12,11 L-5,9 Z " fill="#E2E2E2" transform="translate(22,5)"/>
<path d="M0,0 L2,0 L-1,9 L-3,13 L-4,11 L-8,10 L-5,9 Z " fill="#CECECE" transform="translate(22,5)"/>
<path d="M0,0 L4,2 L3,6 L0,6 Z " fill="#CBCBCB" transform="translate(14,17)"/>
</svg>
