<?xml version="1.0" encoding="UTF-8"?>
<svg version="1.1" xmlns="http://www.w3.org/2000/svg" width="28" height="28">
<path d="M0,0 L28,0 L28,28 L0,28 Z " fill="#030303" transform="translate(0,0)"/>
<path d="M0,0 L2,0 L2,3 L0,3 L-1,10 L-1,14 L-3,14 L-3,16 L-8,20 L-11,19 L-7,13 L-12,12 L-14,11 L-13,6 L-10,1 L-7,1 L-9,9 L-5,9 L-3,2 Z " fill="#ECECEC" transform="translate(21,5)"/>
<path d="M0,0 L3,0 L1,9 L-1,9 L-2,7 L-4,8 L-2,3 Z " fill="#D1D1D1" transform="translate(11,6)"/>
<path d="M0,0 L2,0 L2,3 L0,3 L-1,6 L-3,6 L-3,2 Z " fill="#D0D0D0" transform="translate(21,5)"/>
</svg>
