<?xml version="1.0" encoding="UTF-8"?>
<svg version="1.1" xmlns="http://www.w3.org/2000/svg" width="28" height="28">
<path d="M0,0 L28,0 L28,28 L0,28 Z " fill="#010101" transform="translate(0,0)"/>
<path d="M0,0 L2,1 L2,8 L1,10 L5,9 L5,13 L1,13 L2,19 L-2,19 L-2,13 L-10,14 L-9,9 L-6,4 L-5,1 L-3,1 L-3,7 L-5,10 L-1,10 L-1,1 Z " fill="#E3E3E3" transform="translate(16,5)"/>
<path d="M0,0 L2,1 L2,8 L-1,8 L-1,1 Z " fill="#C6C6C6" transform="translate(16,5)"/>
<path d="M0,0 L2,2 L2,8 L-2,8 Z " fill="#171717" transform="translate(13,7)"/>
</svg>
