<?xml version="1.0" encoding="UTF-8"?>
<svg version="1.1" xmlns="http://www.w3.org/2000/svg" width="28" height="28">
<path d="M0,0 L28,0 L28,28 L0,28 Z " fill="#020202" transform="translate(0,0)"/>
<path d="M0,0 L1,0 L2,10 L4,15 L4,20 L1,17 L1,14 L-4,16 L-11,16 L-16,11 L-16,3 L-14,3 L-13,10 L-11,12 L0,12 L-1,9 L-1,2 Z " fill="#E2E2E2" transform="translate(19,3)"/>
<path d="M0,0 L2,0 L3,7 L4,9 L0,8 Z " fill="#B6B6B6" transform="translate(3,6)"/>
<path d="M0,0 L5,1 L2,3 L-1,4 L-1,2 L-6,2 L-6,1 Z " fill="#BABABA" transform="translate(15,15)"/>
</svg>
