<?xml version="1.0" encoding="UTF-8"?>
<svg version="1.1" xmlns="http://www.w3.org/2000/svg" width="28" height="28">
<path d="M0,0 L28,0 L28,28 L0,28 Z " fill="#020202" transform="translate(0,0)"/>
<path d="M0,0 L3,0 L3,12 L0,12 L-2,20 L-5,20 L-3,12 L-8,13 L-9,11 L-6,4 L-4,4 L-5,10 L-2,9 Z " fill="#E5E5E5" transform="translate(17,5)"/>
<path d="M0,0 L2,0 L1,7 L3,8 L-2,9 L-3,7 Z " fill="#F1F1F1" transform="translate(11,9)"/>
<path d="M0,0 L3,0 L3,6 L1,5 L-1,8 Z " fill="#B0B0B0" transform="translate(17,5)"/>
</svg>
