<?xml version="1.0" encoding="UTF-8"?>
<svg version="1.1" xmlns="http://www.w3.org/2000/svg" width="28" height="28">
<path d="M0,0 L28,0 L28,28 L0,28 Z " fill="#040404" transform="translate(0,0)"/>
<path d="M0,0 L1,3 L-3,10 L-1,11 L-6,14 L-9,19 L-12,20 L-10,15 L-9,13 L-18,13 L-18,11 L-13,6 L-11,4 L-8,4 L-8,6 L-11,6 L-12,10 L-7,10 L-2,1 Z " fill="#EAEAEA" transform="translate(22,5)"/>
<path d="M0,0 L3,0 L3,2 L0,2 L-2,6 L-2,2 Z M-4,5 Z M-5,6 Z M-7,7 L-5,8 L-7,9 Z " fill="#D4D4D4" transform="translate(11,9)"/>
</svg>
