<?xml version="1.0" encoding="UTF-8"?>
<svg version="1.1" xmlns="http://www.w3.org/2000/svg" width="28" height="28">
<path d="M0,0 L28,0 L28,28 L0,28 Z " fill="#020202" transform="translate(0,0)"/>
<path d="M0,0 L3,0 L1,9 L-1,15 L-3,15 L-5,20 L-7,20 L-7,15 L-13,14 L-12,9 L-8,4 L-5,5 L-7,9 L-9,12 L-4,12 L-1,2 Z " fill="#EEEEEE" transform="translate(19,4)"/>
<path d="M0,0 L3,1 L1,5 L-2,8 L-3,7 L-5,10 L-4,5 Z " fill="#CDCDCD" transform="translate(11,8)"/>
<path d="M0,0 L3,0 L2,6 L-2,7 Z " fill="#C9C9C9" transform="translate(19,4)"/>
</svg>
