<?xml version="1.0" encoding="UTF-8"?>
<svg version="1.1" xmlns="http://www.w3.org/2000/svg" width="28" height="28">
<path d="M0,0 L28,0 L28,28 L0,28 Z " fill="#040404" transform="translate(0,0)"/>
<path d="M0,0 L2,0 L2,7 L-1,11 L2,11 L2,13 L-3,13 L-3,15 L-6,18 L-7,20 L-9,20 L-8,14 L-14,14 L-12,8 L-8,3 L-6,3 L-8,8 L-10,12 L-4,10 L-1,4 Z " fill="#E5E5E5" transform="translate(20,4)"/>
<path d="M0,0 L2,0 L0,5 L-3,9 L-4,5 Z " fill="#C5C5C5" transform="translate(12,7)"/>
<path d="M0,0 L2,0 L2,7 L-2,8 Z " fill="#BEBEBE" transform="translate(20,4)"/>
</svg>
