<?xml version="1.0" encoding="UTF-8"?>
<svg version="1.1" xmlns="http://www.w3.org/2000/svg" width="28" height="28">
<path d="M0,0 L28,0 L28,28 L0,28 Z " fill="#010101" transform="translate(0,0)"/>
<path d="M0,0 L3,0 L3,13 L2,20 L-1,20 L0,12 L-7,12 L-6,8 Z " fill="#CCCCCC" transform="translate(15,5)"/>
<path d="M0,0 L1,0 L1,14 L-2,14 L-1,6 L-8,6 L-7,2 L-4,2 L-5,4 L-1,3 Z " fill="#EBEBEB" transform="translate(16,11)"/>
<path d="M0,0 L1,0 L1,5 L-4,6 L-2,2 Z " fill="#1F1F1F" transform="translate(15,9)"/>
<path d="M0,0 L2,1 L2,7 L-1,7 Z " fill="#BDBDBD" transform="translate(15,18)"/>
</svg>
