<?xml version="1.0" encoding="UTF-8"?>
<svg version="1.1" xmlns="http://www.w3.org/2000/svg" width="28" height="28">
<path d="M0,0 L28,0 L28,28 L0,28 Z " fill="#020202" transform="translate(0,0)"/>
<path d="M0,0 L2,0 L0,5 L-1,8 L6,6 L7,3 L11,2 L10,7 L5,15 L3,20 L0,20 L3,11 L-3,10 L-5,9 L-4,5 L-2,1 Z " fill="#ECECEC" transform="translate(12,6)"/>
<path d="M0,0 L4,0 L5,5 L3,10 L0,10 L3,1 Z " fill="#D1D1D1" transform="translate(12,16)"/>
<path d="M0,0 L2,0 L0,5 L-2,7 L-3,2 Z " fill="#D5D5D5" transform="translate(12,6)"/>
</svg>
