<?xml version="1.0" encoding="UTF-8"?>
<svg version="1.1" xmlns="http://www.w3.org/2000/svg" width="28" height="28">
<path d="M0,0 L28,0 L28,28 L0,28 Z " fill="#010101" transform="translate(0,0)"/>
<path d="M0,0 L3,0 L2,6 L-1,10 L4,11 L4,0 L6,0 L7,14 L6,20 L4,20 L3,14 L-5,15 L-6,12 L-4,12 L-3,8 Z " fill="#E8E8E8" transform="translate(12,5)"/>
<path d="M0,0 L3,0 L2,6 L-3,12 L-4,9 L-1,4 Z M-6,12 L-4,13 L-6,14 Z " fill="#CACACA" transform="translate(12,5)"/>
<path d="M0,0 L2,0 L2,8 L-4,8 Z " fill="#212121" transform="translate(14,8)"/>
</svg>
