<?xml version="1.0" encoding="UTF-8"?>
<svg version="1.1" xmlns="http://www.w3.org/2000/svg" width="28" height="28">
<path d="M0,0 L28,0 L28,28 L0,28 Z " fill="#010101" transform="translate(0,0)"/>
<path d="M0,0 L3,0 L2,6 L-2,20 L-4,20 L-4,13 L-2,8 L-11,8 L-9,3 L-6,1 L-6,4 L-4,4 L-4,6 L-1,3 Z " fill="#E5E5E5" transform="translate(17,6)"/>
<path d="M0,0 L1,3 L3,3 L5,7 L-4,7 L-2,2 Z " fill="#C3C3C3" transform="translate(10,7)"/>
<path d="M0,0 L1,3 L-1,10 L-3,10 L-3,3 Z " fill="#CCCCCC" transform="translate(16,16)"/>
</svg>
