<?xml version="1.0" encoding="UTF-8"?>
<svg version="1.1" xmlns="http://www.w3.org/2000/svg" width="28" height="28">
<path d="M0,0 L28,0 L28,28 L0,28 Z " fill="#020202" transform="translate(0,0)"/>
<path d="M0,0 L2,0 L2,4 L0,4 L-2,9 L-8,18 L-11,18 L-9,13 L-8,11 L-18,10 L-16,4 L-14,4 L-13,1 L-11,1 L-12,6 L-4,6 L-2,2 L0,2 Z " fill="#E9E9E9" transform="translate(23,6)"/>
<path d="M0,0 L2,0 L1,5 L8,6 L8,7 L-2,7 L-3,3 L-1,3 Z " fill="#BABABA" transform="translate(10,7)"/>
<path d="M0,0 L2,0 L2,4 L0,4 L-1,6 L-3,6 L-2,2 L0,2 Z " fill="#CFCFCF" transform="translate(23,6)"/>
</svg>
