<?xml version="1.0" encoding="UTF-8"?>
<svg version="1.1" xmlns="http://www.w3.org/2000/svg" width="28" height="28">
<path d="M0,0 L28,0 L28,28 L0,28 Z " fill="#020202" transform="translate(0,0)"/>
<path d="M0,0 L2,3 L2,7 L4,9 L1,10 L3,20 L1,20 L-1,10 L-6,10 L-7,9 L-7,2 L-5,2 L-5,8 L-1,8 L-1,2 Z " fill="#E5E5E5" transform="translate(15,5)"/>
<path d="M0,0 L2,0 L2,6 L6,7 L1,8 L0,7 Z " fill="#BDBDBD" transform="translate(8,7)"/>
<path d="M0,0 L2,3 L1,8 L-1,8 L-1,2 Z " fill="#B9B9B9" transform="translate(15,5)"/>
</svg>
