<?xml version="1.0" encoding="UTF-8"?>
<svg version="1.1" xmlns="http://www.w3.org/2000/svg" width="28" height="28">
<path d="M0,0 L28,0 L28,28 L0,28 Z " fill="#030303" transform="translate(0,0)"/>
<path d="M0,0 L1,2 L-4,14 L2,14 L1,16 L-6,18 L-7,20 L-9,20 L-9,18 L-14,16 L-15,13 L-8,7 L-6,8 L-11,14 L-7,15 L-5,8 Z " fill="#E3E3E3" transform="translate(21,3)"/>
<path d="M0,0 L1,2 L-4,14 L2,14 L0,16 L-5,15 L-6,11 L-1,1 Z " fill="#C9C9C9" transform="translate(21,3)"/>
<path d="M0,0 L2,0 L1,5 L0,7 L-5,6 Z " fill="#1A1A1A" transform="translate(14,11)"/>
</svg>
