<?xml version="1.0" encoding="UTF-8"?>
<svg version="1.1" xmlns="http://www.w3.org/2000/svg" width="28" height="28">
<path d="M0,0 L28,0 L28,28 L0,28 Z " fill="#060606" transform="translate(0,0)"/>
<path d="M0,0 L2,0 L-1,11 L2,11 L2,13 L-3,13 L-5,18 L-8,17 L-6,14 L-14,15 L-13,11 L-11,8 L-12,5 L-7,5 L-8,10 L-4,11 L-1,1 Z " fill="#E1E1E1" transform="translate(19,4)"/>
<path d="M0,0 L5,0 L4,7 L0,8 L-2,9 L0,5 L0,2 Z " fill="#CACACA" transform="translate(7,9)"/>
<path d="M0,0 L6,0 L5,2 L0,4 L-3,3 Z " fill="#F8F8F8" transform="translate(8,15)"/>
</svg>
