<?xml version="1.0" encoding="UTF-8"?>
<svg version="1.1" xmlns="http://www.w3.org/2000/svg" width="28" height="28">
<path d="M0,0 L28,0 L28,28 L0,28 Z " fill="#010101" transform="translate(0,0)"/>
<path d="M0,0 L2,0 L1,5 L-2,10 L5,8 L8,2 L12,1 L11,5 L4,16 L3,20 L1,20 L2,13 L-6,13 L-5,8 L-2,2 L0,2 Z " fill="#C3C3C3" transform="translate(12,6)"/>
<path d="M0,0 L2,0 L1,5 L-3,11 L3,11 L3,12 L-6,12 L-5,8 L-2,2 L0,2 Z " fill="#E6E6E6" transform="translate(12,6)"/>
<path d="M0,0 L2,0 L1,4 L-2,7 L-2,1 Z " fill="#E1E1E1" transform="translate(22,7)"/>
</svg>
