<?xml version="1.0" encoding="UTF-8"?>
<svg version="1.1" xmlns="http://www.w3.org/2000/svg" width="28" height="28">
<path d="M0,0 L28,0 L28,28 L0,28 Z " fill="#030303" transform="translate(0,0)"/>
<path d="M0,0 L3,1 L1,1 L-1,5 L-3,8 L-1,8 L-1,10 L-6,11 L-13,20 L-15,20 L-13,16 L-10,12 L-17,12 L-13,7 L-11,7 L-11,5 L-6,3 L-6,5 L-10,9 L-6,9 L-4,4 Z " fill="#E9E9E9" transform="translate(23,5)"/>
<path d="M0,0 L3,1 L1,1 L-1,5 L-2,9 L-4,9 L-5,5 Z " fill="#CDCDCD" transform="translate(23,5)"/>
<path d="M0,0 L3,1 L-3,8 L-5,8 L-3,4 Z " fill="#D2D2D2" transform="translate(13,17)"/>
<path d="M0,0 L3,1 L1,7 L-3,7 L-1,3 L1,3 Z " fill="#272727" transform="translate(16,7)"/>
</svg>
