<?xml version="1.0" encoding="UTF-8"?>
<svg version="1.1" xmlns="http://www.w3.org/2000/svg" width="28" height="28">
<path d="M0,0 L28,0 L28,28 L0,28 Z " fill="#040404" transform="translate(0,0)"/>
<path d="M0,0 L2,0 L1,5 L0,8 L-2,8 L-4,13 L-6,17 L-1,14 L3,3 L5,3 L5,1 L8,1 L6,7 L3,15 L9,16 L9,18 L1,19 L-2,20 L-9,19 L-10,15 L-9,12 L-7,12 L-5,7 Z " fill="#EAEAEA" transform="translate(15,3)"/>
<path d="M0,0 L3,0 L0,9 L-4,12 L-6,12 L-5,8 L-2,3 L0,3 Z " fill="#1D1D1D" transform="translate(15,8)"/>
<path d="M0,0 L7,2 L7,4 L1,4 Z " fill="#BCBCBC" transform="translate(17,17)"/>
</svg>
