<?xml version="1.0" encoding="UTF-8"?>
<svg version="1.1" xmlns="http://www.w3.org/2000/svg" width="28" height="28">
<path d="M0,0 L28,0 L28,28 L0,28 Z " fill="#020202" transform="translate(0,0)"/>
<path d="M0,0 L3,0 L4,10 L8,10 L9,13 L4,13 L4,19 L1,20 L1,14 L-6,15 L-7,10 L-4,9 L-3,5 Z " fill="#F1F1F1" transform="translate(14,5)"/>
<path d="M0,0 L3,0 L3,8 L2,11 L-3,11 L-4,6 Z M-6,9 L-4,10 L-7,12 Z " fill="#C8C8C8" transform="translate(14,5)"/>
<path d="M0,0 L1,0 L1,6 L-2,7 L-2,1 Z " fill="#D8D8D8" transform="translate(17,18)"/>
</svg>
