<?xml version="1.0" encoding="UTF-8"?>
<svg version="1.1" xmlns="http://www.w3.org/2000/svg" width="28" height="28">
<path d="M0,0 L28,0 L28,28 L0,28 Z " fill="#000000" transform="translate(0,0)"/>
<path d="M0,0 L2,0 L4,5 L4,11 L10,10 L10,12 L4,13 L4,19 L1,20 L1,15 L-7,15 L-6,10 L-3,6 L-1,6 Z " fill="#BEBEBE" transform="translate(14,4)"/>
<path d="M0,0 L2,0 L3,2 L3,11 L0,7 L-4,13 L-1,14 L-2,15 L-7,15 L-6,10 L-3,6 L-1,6 Z M-1,12 Z " fill="#EBEBEB" transform="translate(14,4)"/>
<path d="M0,0 L1,0 L1,6 L-4,7 L-2,3 Z " fill="#1C1C1C" transform="translate(14,10)"/>
</svg>
