<?xml version="1.0" encoding="UTF-8"?>
<svg version="1.1" xmlns="http://www.w3.org/2000/svg" width="28" height="28">
<path d="M0,0 L28,0 L28,28 L0,28 Z " fill="#030303" transform="translate(0,0)"/>
<path d="M0,0 L2,0 L1,7 L5,7 L5,2 L7,2 L8,9 L6,20 L4,19 L3,10 L0,10 L-1,13 L-5,13 L-4,8 Z " fill="#ECECEC" transform="translate(12,6)"/>
<path d="M0,0 L2,0 L3,7 L1,18 L-1,17 L-2,6 Z " fill="#F2F2F2" transform="translate(17,8)"/>
<path d="M0,0 L2,0 L2,8 L-3,7 Z " fill="#BFBFBF" transform="translate(12,6)"/>
</svg>
