<?xml version="1.0" encoding="UTF-8"?>
<svg version="1.1" xmlns="http://www.w3.org/2000/svg" width="28" height="28">
<path d="M0,0 L28,0 L28,28 L0,28 Z " fill="#020202" transform="translate(0,0)"/>
<path d="M0,0 L2,0 L2,19 L-1,20 L-1,12 L-9,13 L-11,12 L-10,8 L-6,6 L-6,9 L-1,9 L-1,1 Z " fill="#E8E8E8" transform="translate(17,4)"/>
<path d="M0,0 L2,0 L3,4 L7,6 L-1,7 L-3,6 L-2,2 Z " fill="#BFBFBF" transform="translate(9,10)"/>
<path d="M0,0 L1,0 L1,8 L-2,9 L-2,4 L0,4 Z " fill="#D1D1D1" transform="translate(18,15)"/>
</svg>
