<?xml version="1.0" encoding="UTF-8"?>
<svg version="1.1" xmlns="http://www.w3.org/2000/svg" width="28" height="28">
<path d="M0,0 L28,0 L28,28 L0,28 Z " fill="#020202" transform="translate(0,0)"/>
<path d="M0,0 L3,1 L2,10 L10,10 L9,12 L3,12 L2,16 L1,12 L-7,12 L-10,11 L-9,7 Z " fill="#C0C0C0" transform="translate(16,7)"/>
<path d="M0,0 L3,1 L3,3 L-3,6 L-7,10 L-1,10 L-1,11 L-10,11 L-9,7 Z " fill="#DDDDDD" transform="translate(16,7)"/>
<path d="M0,0 L2,0 L2,5 L-5,5 Z " fill="#040404" transform="translate(14,11)"/>
</svg>
