<?xml version="1.0" encoding="UTF-8"?>
<svg version="1.1" xmlns="http://www.w3.org/2000/svg" width="28" height="28">
<path d="M0,0 L28,0 L28,28 L0,28 Z " fill="#020202" transform="translate(0,0)"/>
<path d="M0,0 L2,0 L4,8 L10,8 L10,2 L12,2 L14,15 L15,20 L13,20 L10,13 L10,11 L3,13 L0,14 Z " fill="#F8F8F8" transform="translate(7,5)"/>
<path d="M0,0 L2,0 L4,8 L9,8 L9,9 L2,10 L0,11 Z " fill="#CDCDCD" transform="translate(7,5)"/>
<path d="M0,0 L1,0 L2,9 L3,14 L1,14 L-2,7 Z " fill="#C6C6C6" transform="translate(19,11)"/>
</svg>
