<?xml version="1.0" encoding="UTF-8"?>
<svg version="1.1" xmlns="http://www.w3.org/2000/svg" width="28" height="28">
<path d="M0,0 L28,0 L28,28 L0,28 Z " fill="#020202" transform="translate(0,0)"/>
<path d="M0,0 L2,0 L2,8 L9,9 L8,2 L10,1 L12,2 L13,20 L10,20 L8,12 L1,11 L0,10 Z " fill="#D5D5D5" transform="translate(7,5)"/>
<path d="M0,0 L1,0 L2,18 L-1,18 L-2,16 L-2,10 L-1,10 Z " fill="#C9C9C9" transform="translate(18,7)"/>
<path d="M0,0 L2,1 L2,12 L-4,9 L0,8 L-1,1 Z " fill="#EFEFEF" transform="translate(16,6)"/>
</svg>
