<?xml version="1.0" encoding="UTF-8"?>
<svg version="1.1" xmlns="http://www.w3.org/2000/svg" width="28" height="28">
<path d="M0,0 L28,0 L28,28 L0,28 Z " fill="#040404" transform="translate(0,0)"/>
<path d="M0,0 L3,0 L2,4 L-4,13 L-1,13 L1,8 L6,1 L7,4 L2,12 L4,15 L-1,17 L-3,20 L-4,18 L-3,15 L-6,14 L-5,9 L0,3 Z " fill="#E2E2E2" transform="translate(14,5)"/>
<path d="M0,0 L1,3 L-4,11 L-3,13 L-7,12 L-5,7 Z " fill="#C9C9C9" transform="translate(20,6)"/>
<path d="M0,0 L2,0 L0,5 L-3,10 L-6,10 L-4,5 Z " fill="#1A1A1A" transform="translate(16,8)"/>
</svg>
