<?xml version="1.0" encoding="UTF-8"?>
<svg version="1.1" xmlns="http://www.w3.org/2000/svg" width="28" height="28">
<path d="M0,0 L28,0 L28,28 L0,28 Z " fill="#030303" transform="translate(0,0)"/>
<path d="M0,0 L2,0 L1,7 L-1,10 L2,10 L2,12 L-2,13 L-6,20 L-8,20 L-6,13 L-11,13 L-12,8 L-9,3 L-7,3 L-9,11 L-4,11 L-3,7 Z " fill="#ECECEC" transform="translate(19,5)"/>
<path d="M0,0 L2,0 L1,7 L-4,10 L-1,1 Z " fill="#CDCDCD" transform="translate(19,5)"/>
<path d="M0,0 L2,0 L0,8 L-3,7 L-1,1 Z " fill="#D5D5D5" transform="translate(10,8)"/>
</svg>
