<?xml version="1.0" encoding="UTF-8"?>
<svg version="1.1" xmlns="http://www.w3.org/2000/svg" width="28" height="28">
<path d="M0,0 L28,0 L28,28 L0,28 Z " fill="#030303" transform="translate(0,0)"/>
<path d="M0,0 L1,3 L-1,9 L9,11 L11,6 L14,3 L11,13 L7,20 L5,20 L7,13 L-2,12 L-4,10 L-4,5 Z " fill="#E1E1E1" transform="translate(10,5)"/>
<path d="M0,0 L1,3 L-1,9 L5,10 L8,12 L7,14 L-2,12 L-4,10 L-4,5 Z " fill="#C1C1C1" transform="translate(10,5)"/>
<path d="M0,0 L1,3 L-2,8 L-4,7 L-2,3 Z " fill="#D7D7D7" transform="translate(10,5)"/>
</svg>
