<?xml version="1.0" encoding="UTF-8"?>
<svg version="1.1" xmlns="http://www.w3.org/2000/svg" width="28" height="28">
<path d="M0,0 L28,0 L28,28 L0,28 Z " fill="#030303" transform="translate(0,0)"/>
<path d="M0,0 L1,3 L-1,9 L1,11 L-3,12 L-8,20 L-10,20 L-8,15 L-7,13 L-14,12 L-12,8 L-10,4 L-7,5 L-9,10 L-4,8 Z " fill="#ECECEC" transform="translate(21,5)"/>
<path d="M0,0 L3,1 L1,6 L5,7 L0,7 L-2,7 L-4,8 L-2,4 Z " fill="#C9C9C9" transform="translate(11,9)"/>
<path d="M0,0 L3,1 L-1,7 L-3,7 L-1,2 Z " fill="#DCDCDC" transform="translate(14,18)"/>
</svg>
