<?xml version="1.0" encoding="UTF-8"?>
<svg version="1.1" xmlns="http://www.w3.org/2000/svg" width="28" height="28">
<path d="M0,0 L28,0 L28,28 L0,28 Z " fill="#020202" transform="translate(0,0)"/>
<path d="M0,0 L2,0 L1,6 L-2,11 L-2,14 L-5,15 L-9,20 L-11,20 L-9,15 L-14,13 L-14,11 L-10,10 L-9,6 L-7,6 L-7,10 L-9,10 L-9,12 L-5,12 L-4,8 Z " fill="#D4D4D4" transform="translate(20,4)"/>
<path d="M0,0 L2,0 L1,6 L-2,11 L-5,11 L-3,6 Z " fill="#C6C6C6" transform="translate(20,4)"/>
<path d="M0,0 L2,4 L-1,5 L-5,10 L-7,10 L-5,5 Z " fill="#EAEAEA" transform="translate(16,14)"/>
</svg>
