<?xml version="1.0" encoding="UTF-8"?>
<svg version="1.1" xmlns="http://www.w3.org/2000/svg" width="28" height="28">
<path d="M0,0 L28,0 L28,28 L0,28 Z " fill="#040404" transform="translate(0,0)"/>
<path d="M0,0 L2,1 L-2,9 L-3,13 L-6,13 L-8,17 L-10,20 L-12,20 L-11,15 L-9,15 L-9,13 L-14,13 L-15,8 L-10,2 L-8,2 L-9,6 L-11,11 L-7,11 L-1,1 Z " fill="#EEEEEE" transform="translate(22,5)"/>
<path d="M0,0 L2,1 L-2,9 L-3,13 L-5,12 L-5,7 Z " fill="#CCCCCC" transform="translate(22,5)"/>
<path d="M0,0 L2,0 L1,4 L-3,9 L-3,7 L-5,6 Z " fill="#D2D2D2" transform="translate(12,7)"/>
</svg>
