<?xml version="1.0" encoding="UTF-8"?>
<svg version="1.1" xmlns="http://www.w3.org/2000/svg" width="28" height="28">
<path d="M0,0 L28,0 L28,28 L0,28 Z " fill="#020202" transform="translate(0,0)"/>
<path d="M0,0 L2,0 L3,10 L8,10 L5,13 L3,20 L1,19 L1,13 L-9,15 L-10,12 L-3,4 Z " fill="#E7E7E7" transform="translate(16,4)"/>
<path d="M0,0 L3,0 L3,2 L5,2 L6,0 L6,3 L11,3 L8,6 L6,13 L4,12 L3,6 L-4,5 Z " fill="#D1D1D1" transform="translate(13,11)"/>
<path d="M0,0 L3,0 L3,4 L-4,5 Z " fill="#222222" transform="translate(13,11)"/>
</svg>
