<?xml version="1.0" encoding="UTF-8"?>
<svg version="1.1" xmlns="http://www.w3.org/2000/svg" width="28" height="28">
<path d="M0,0 L28,0 L28,28 L0,28 Z " fill="#020202" transform="translate(0,0)"/>
<path d="M0,0 L2,0 L1,13 L-2,16 L-3,20 L-6,20 L-5,15 L-4,13 L-11,13 L-16,12 L-15,7 L-13,3 L-10,3 L-12,9 L-3,10 Z " fill="#E5E5E5" transform="translate(21,4)"/>
<path d="M0,0 L3,0 L1,6 L3,7 L-1,7 L-3,9 L-2,4 Z " fill="#BFBFBF" transform="translate(8,7)"/>
<path d="M0,0 L2,0 L0,11 L-3,10 Z " fill="#CECECE" transform="translate(21,4)"/>
</svg>
