<?xml version="1.0" encoding="UTF-8"?>
<svg version="1.1" xmlns="http://www.w3.org/2000/svg" width="28" height="28">
<path d="M0,0 L28,0 L28,28 L0,28 Z " fill="#030303" transform="translate(0,0)"/>
<path d="M0,0 L3,3 L3,10 L1,20 L-1,20 L-1,12 L-11,14 L-16,13 L-16,9 L-9,3 L-3,2 L-3,4 L-11,8 L-13,10 L-5,10 L0,9 Z " fill="#E5E5E5" transform="translate(20,5)"/>
<path d="M0,0 L4,0 L4,2 L-4,6 L-10,10 L-8,6 L-2,1 Z " fill="#C3C3C3" transform="translate(13,7)"/>
<path d="M0,0 L3,3 L3,10 L0,9 Z " fill="#BDBDBD" transform="translate(20,5)"/>
</svg>
