<?xml version="1.0" encoding="UTF-8"?>
<svg version="1.1" xmlns="http://www.w3.org/2000/svg" width="28" height="28">
<path d="M0,0 L28,0 L28,28 L0,28 Z " fill="#020202" transform="translate(0,0)"/>
<path d="M0,0 L2,0 L-1,10 L-3,10 L-5,19 L-9,20 L-6,10 L-11,10 L-12,7 L-8,2 L-6,2 L-8,7 L-4,7 L-1,1 Z " fill="#E6E6E6" transform="translate(20,5)"/>
<path d="M0,0 L2,0 L0,5 L3,6 L-3,5 L-1,1 Z " fill="#B9B9B9" transform="translate(12,7)"/>
<path d="M0,0 L2,0 L0,6 L-3,6 L-1,1 Z " fill="#CFCFCF" transform="translate(20,5)"/>
</svg>
