<?xml version="1.0" encoding="UTF-8"?>
<svg version="1.1" xmlns="http://www.w3.org/2000/svg" width="28" height="28">
<path d="M0,0 L28,0 L28,28 L0,28 Z " fill="#020202" transform="translate(0,0)"/>
<path d="M0,0 L2,1 L1,5 L0,7 L6,9 L8,10 L8,3 L9,0 L11,0 L10,20 L7,17 L7,11 L-4,12 L-5,9 Z " fill="#DDDDDD" transform="translate(11,6)"/>
<path d="M0,0 L2,0 L1,20 L-1,18 L-1,3 Z " fill="#B2B2B2" transform="translate(20,6)"/>
<path d="M0,0 L2,1 L1,5 L-1,7 L-3,7 L-1,1 Z " fill="#CBCBCB" transform="translate(11,6)"/>
</svg>
