<?xml version="1.0" encoding="UTF-8"?>
<svg version="1.1" xmlns="http://www.w3.org/2000/svg" width="28" height="28">
<path d="M0,0 L28,0 L28,28 L0,28 Z " fill="#020202" transform="translate(0,0)"/>
<path d="M0,0 L2,0 L1,4 L-1,4 L-3,8 L-4,10 L-1,11 L-5,13 L-9,13 L-11,17 L-14,18 L-14,16 L-12,16 L-12,14 L-18,14 L-17,10 L-13,6 L-11,6 L-13,10 L-14,12 L-7,9 L-2,2 L0,2 Z " fill="#C7C7C7" transform="translate(23,5)"/>
<path d="M0,0 L4,2 L0,4 L-7,3 L-3,1 Z " fill="#ADADAD" transform="translate(18,14)"/>
</svg>
