<?xml version="1.0" encoding="UTF-8"?>
<svg version="1.1" xmlns="http://www.w3.org/2000/svg" width="28" height="28">
<path d="M0,0 L28,0 L28,28 L0,28 Z " fill="#020202" transform="translate(0,0)"/>
<path d="M0,0 L2,0 L2,7 L1,10 L4,11 L1,11 L0,18 L-1,20 L-3,20 L-2,12 L-9,12 L-9,8 L-4,3 L-6,8 L-7,10 L-2,9 Z " fill="#CDCDCD" transform="translate(17,5)"/>
<path d="M0,0 L1,2 L-2,7 L3,7 L1,9 L-4,9 L-4,5 Z " fill="#E6E6E6" transform="translate(12,8)"/>
<path d="M0,0 L2,0 L2,7 L-1,9 L-1,2 Z " fill="#B6B6B6" transform="translate(17,5)"/>
</svg>
