<?xml version="1.0" encoding="UTF-8"?>
<svg version="1.1" xmlns="http://www.w3.org/2000/svg" width="28" height="28">
<path d="M0,0 L28,0 L28,28 L0,28 Z " fill="#020202" transform="translate(0,0)"/>
<path d="M0,0 L1,3 L0,8 L2,8 L2,10 L-2,10 L-3,20 L-6,20 L-6,14 L-5,12 L-10,11 L-9,2 L-6,2 L-7,6 L-8,9 L-4,9 L-2,2 Z " fill="#D1D1D1" transform="translate(19,5)"/>
<path d="M0,0 L1,3 L0,8 L2,8 L2,10 L-2,10 L-3,14 L-4,11 L-7,10 L-4,10 L-3,6 L-1,1 Z " fill="#E1E1E1" transform="translate(19,5)"/>
<path d="M0,0 L1,0 L1,7 L-2,7 L-2,1 Z " fill="#B6B6B6" transform="translate(15,18)"/>
</svg>
