<?xml version="1.0" encoding="UTF-8"?>
<svg version="1.1" xmlns="http://www.w3.org/2000/svg" width="28" height="28">
<path d="M0,0 L28,0 L28,28 L0,28 Z " fill="#020202" transform="translate(0,0)"/>
<path d="M0,0 L2,0 L0,6 L-2,6 L-4,12 L-6,12 L-7,16 L-10,16 L-10,14 L-8,14 L-8,12 L-18,12 L-17,8 L-7,9 L-2,3 Z " fill="#CECECE" transform="translate(23,6)"/>
<path d="M0,0 L2,0 L0,6 L-2,6 L-3,9 L-5,7 Z " fill="#A6A6A6" transform="translate(23,6)"/>
<path d="M0,0 L2,0 L2,3 L-3,4 L-4,7 L-5,5 Z " fill="#B5B5B5" transform="translate(12,6)"/>
</svg>
