<?xml version="1.0" encoding="UTF-8"?>
<svg version="1.1" xmlns="http://www.w3.org/2000/svg" width="28" height="28">
<path d="M0,0 L28,0 L28,28 L0,28 Z " fill="#040404" transform="translate(0,0)"/>
<path d="M0,0 L2,1 L3,20 L1,20 L-1,16 L0,14 L-9,16 L-15,16 L-17,13 L-13,9 L-5,5 L-3,1 Z " fill="#DDDDDD" transform="translate(19,4)"/>
<path d="M0,0 L2,1 L3,20 L1,20 L-1,16 L0,14 L-3,13 L-1,12 L0,6 L-6,9 L-4,3 L-3,1 Z " fill="#EFEFEF" transform="translate(19,4)"/>
<path d="M0,0 L1,0 L1,5 L-1,6 L-8,6 L-3,2 Z " fill="#171717" transform="translate(17,10)"/>
</svg>
