<?xml version="1.0" encoding="UTF-8"?>
<svg version="1.1" xmlns="http://www.w3.org/2000/svg" width="28" height="28">
<path d="M0,0 L28,0 L28,28 L0,28 Z " fill="#040404" transform="translate(0,0)"/>
<path d="M0,0 L1,3 L-4,9 L4,8 L6,4 L9,0 L11,0 L9,4 L5,11 L0,16 L-4,20 L-3,15 L0,11 L-7,11 L-6,7 Z " fill="#EAEAEA" transform="translate(14,5)"/>
<path d="M0,0 L2,0 L0,4 L-4,11 L-5,9 L-7,8 L-5,8 L-3,4 Z " fill="#CACACA" transform="translate(23,5)"/>
<path d="M0,0 L1,3 L-4,9 L-5,5 Z " fill="#D0D0D0" transform="translate(14,5)"/>
</svg>
