<?xml version="1.0" encoding="UTF-8"?>
<svg version="1.1" xmlns="http://www.w3.org/2000/svg" width="28" height="28">
<path d="M0,0 L28,0 L28,28 L0,28 Z " fill="#030303" transform="translate(0,0)"/>
<path d="M0,0 L2,0 L2,13 L0,14 L0,19 L-4,20 L-4,15 L-9,17 L-14,17 L-15,16 L-14,8 L-11,4 L-9,4 L-10,10 L-11,13 L-3,12 L-1,3 Z " fill="#EFEFEF" transform="translate(20,3)"/>
<path d="M0,0 L2,0 L1,11 L-2,8 Z " fill="#D8D8D8" transform="translate(20,3)"/>
<path d="M0,0 L2,0 L1,6 L-2,6 L-2,3 Z " fill="#D4D4D4" transform="translate(9,7)"/>
</svg>
