<?xml version="1.0" encoding="UTF-8"?>
<svg version="1.1" xmlns="http://www.w3.org/2000/svg" width="28" height="28">
<path d="M0,0 L28,0 L28,28 L0,28 Z " fill="#020202" transform="translate(0,0)"/>
<path d="M0,0 L5,2 L5,8 L8,7 L7,10 L4,10 L3,20 L1,20 L1,13 L2,11 L-5,12 L-7,11 L-6,5 Z " fill="#DCDCDC" transform="translate(14,6)"/>
<path d="M0,0 L1,0 L1,7 L-5,7 L-3,2 Z " fill="#0A0A0A" transform="translate(15,8)"/>
<path d="M0,0 L4,2 L3,9 L2,9 L1,3 L-4,7 L-6,7 L-4,3 Z " fill="#C0C0C0" transform="translate(14,6)"/>
</svg>
