<?xml version="1.0" encoding="UTF-8"?>
<svg version="1.1" xmlns="http://www.w3.org/2000/svg" width="28" height="28">
<path d="M0,0 L28,0 L28,28 L0,28 Z " fill="#030303" transform="translate(0,0)"/>
<path d="M0,0 L2,1 L0,4 L-2,4 L-4,9 L-4,13 L-10,16 L-13,20 L-16,20 L-14,16 L-14,12 L-15,8 L-12,5 L-10,5 L-10,3 L-5,2 L-4,4 Z " fill="#D1D1D1" transform="translate(23,5)"/>
<path d="M0,0 L2,0 L2,2 L5,3 L-1,6 L-4,10 L-7,10 L-5,6 L-5,2 L-5,1 Z " fill="#ECECEC" transform="translate(14,15)"/>
<path d="M0,0 L2,1 L-1,6 L-4,6 L-3,2 Z " fill="#141414" transform="translate(15,10)"/>
</svg>
