<?xml version="1.0" encoding="UTF-8"?>
<svg version="1.1" xmlns="http://www.w3.org/2000/svg" width="28" height="28">
<path d="M0,0 L28,0 L28,28 L0,28 Z " fill="#020202" transform="translate(0,0)"/>
<path d="M0,0 L2,0 L1,4 L-1,7 L-1,11 L-6,14 L-11,20 L-13,20 L-11,15 L-8,11 L-13,10 L-11,4 L-8,1 L-3,1 L-6,4 L-8,4 L-10,9 L-5,8 Z " fill="#E7E7E7" transform="translate(21,6)"/>
<path d="M0,0 L2,2 L-2,8 L-7,8 L-5,3 Z " fill="#1F1F1F" transform="translate(18,7)"/>
<path d="M0,0 L5,0 L2,3 L0,3 L-1,5 L-3,3 Z " fill="#C4C4C4" transform="translate(13,7)"/>
</svg>
