<?xml version="1.0" encoding="UTF-8"?>
<svg version="1.1" xmlns="http://www.w3.org/2000/svg" width="28" height="28">
<path d="M0,0 L28,0 L28,28 L0,28 Z " fill="#020202" transform="translate(0,0)"/>
<path d="M0,0 L2,0 L1,4 L0,8 L0,19 L-2,20 L-3,16 L-8,15 L-7,8 L-4,4 L-1,4 Z " fill="#949494" transform="translate(18,5)"/>
<path d="M0,0 L1,0 L2,14 L0,15 L-1,11 L-6,10 L-6,5 L-4,4 L-4,8 L-1,8 Z " fill="#E4E4E4" transform="translate(16,10)"/>
<path d="M0,0 L2,0 L1,4 L-1,8 L-1,5 L-4,4 L-1,4 Z " fill="#BABABA" transform="translate(18,5)"/>
</svg>
