<?xml version="1.0" encoding="UTF-8"?>
<svg version="1.1" xmlns="http://www.w3.org/2000/svg" width="28" height="28">
<path d="M0,0 L28,0 L28,28 L0,28 Z " fill="#040404" transform="translate(0,0)"/>
<path d="M0,0 L3,0 L2,8 L1,10 L7,10 L10,1 L12,1 L11,10 L10,11 L9,19 L6,20 L6,13 L-4,14 L-3,8 Z " fill="#E6E6E6" transform="translate(10,5)"/>
<path d="M0,0 L3,0 L2,8 L1,10 L3,11 L-1,10 L-3,10 Z " fill="#AFAFAF" transform="translate(10,5)"/>
<path d="M0,0 L1,0 L1,9 L-2,10 L-1,1 Z " fill="#F3F3F3" transform="translate(18,15)"/>
<path d="M0,0 L3,0 L3,5 L0,6 Z " fill="#D8D8D8" transform="translate(10,5)"/>
</svg>
