<?xml version="1.0" encoding="UTF-8"?>
<svg version="1.1" xmlns="http://www.w3.org/2000/svg" width="28" height="28">
<path d="M0,0 L28,0 L28,28 L0,28 Z " fill="#030303" transform="translate(0,0)"/>
<path d="M0,0 L1,4 L0,6 L7,8 L8,0 L11,1 L9,11 L6,20 L4,20 L4,13 L6,10 L-4,10 L-5,8 Z " fill="#FBFBFB" transform="translate(10,6)"/>
<path d="M0,0 L1,4 L0,6 L3,8 L4,10 L-4,10 L-5,8 Z " fill="#BEBEBE" transform="translate(10,6)"/>
<path d="M0,0 L3,1 L1,11 L-1,7 Z " fill="#CDCDCD" transform="translate(18,6)"/>
<path d="M0,0 L2,0 L1,8 L-1,8 L-1,1 Z " fill="#E4E4E4" transform="translate(15,18)"/>
</svg>
