<?xml version="1.0" encoding="UTF-8"?>
<svg version="1.1" xmlns="http://www.w3.org/2000/svg" width="28" height="28">
<path d="M0,0 L28,0 L28,28 L0,28 Z " fill="#020202" transform="translate(0,0)"/>
<path d="M0,0 L2,0 L1,6 L0,8 L5,9 L5,1 L8,2 L8,20 L6,20 L5,18 L5,11 L-4,12 L-4,8 L-1,4 Z " fill="#D9D9D9" transform="translate(11,5)"/>
<path d="M0,0 L2,0 L1,6 L0,8 L4,10 L-4,12 L-4,8 L-1,4 Z " fill="#E7E7E7" transform="translate(11,5)"/>
<path d="M0,0 L3,1 L3,7 L0,7 Z " fill="#B8B8B8" transform="translate(16,6)"/>
</svg>
