<?xml version="1.0" encoding="UTF-8"?>
<svg version="1.1" xmlns="http://www.w3.org/2000/svg" width="28" height="28">
<path d="M0,0 L28,0 L28,28 L0,28 Z " fill="#010101" transform="translate(0,0)"/>
<path d="M0,0 L7,0 L9,7 L8,19 L5,20 L5,13 L6,11 L-4,11 L-5,7 L-3,4 L-1,4 Z " fill="#D2D2D2" transform="translate(11,7)"/>
<path d="M0,0 L7,0 L8,1 L8,6 L6,6 L6,8 L4,7 L5,2 L1,6 L0,8 L3,9 L1,10 L-5,10 L-4,6 L-3,4 L-1,4 Z " fill="#E6E6E6" transform="translate(11,7)"/>
<path d="M0,0 L2,0 L2,5 L-3,6 L-1,1 Z " fill="#1A1A1A" transform="translate(14,9)"/>
</svg>
