<?xml version="1.0" encoding="UTF-8"?>
<svg version="1.1" xmlns="http://www.w3.org/2000/svg" width="28" height="28">
<path d="M0,0 L28,0 L28,28 L0,28 Z " fill="#040404" transform="translate(0,0)"/>
<path d="M0,0 L1,4 L-1,10 L5,10 L4,12 L0,13 L-2,20 L-4,20 L-4,12 L-13,11 L-11,7 L-2,2 Z " fill="#DBDBDB" transform="translate(18,5)"/>
<path d="M0,0 L1,4 L-1,9 L-3,6 L-8,9 L-3,10 L-3,11 L-13,11 L-11,7 L-2,2 Z " fill="#DBDBDB" transform="translate(18,5)"/>
<path d="M0,0 L1,4 L0,5 L-6,5 L-2,1 Z " fill="#383838" transform="translate(15,10)"/>
<path d="M0,0 L3,0 L3,2 L9,2 L9,3 L-1,3 Z " fill="#F4F4F4" transform="translate(6,13)"/>
</svg>
