<?xml version="1.0" encoding="UTF-8"?>
<svg version="1.1" xmlns="http://www.w3.org/2000/svg" width="28" height="28">
<path d="M0,0 L28,0 L28,28 L0,28 Z " fill="#030303" transform="translate(0,0)"/>
<path d="M0,0 L0,3 L-2,5 L5,5 L10,0 L12,0 L12,3 L7,8 L3,11 L1,11 L-1,15 L-4,16 L-2,12 L0,9 L-8,10 L-7,6 Z " fill="#D1D1D1" transform="translate(14,7)"/>
<path d="M0,0 L0,3 L-2,5 L2,7 L-8,10 L-7,6 Z " fill="#DCDCDC" transform="translate(14,7)"/>
<path d="M0,0 L6,1 L4,3 L-3,4 Z " fill="#F7F7F7" transform="translate(10,12)"/>
</svg>
