<?xml version="1.0" encoding="UTF-8"?>
<svg version="1.1" xmlns="http://www.w3.org/2000/svg" width="28" height="28">
<path d="M0,0 L28,0 L28,28 L0,28 Z " fill="#020202" transform="translate(0,0)"/>
<path d="M0,0 L0,3 L-1,9 L5,9 L4,11 L-1,11 L0,20 L-3,19 L-3,11 L-9,10 L-9,7 L-1,1 Z " fill="#BEBEBE" transform="translate(17,5)"/>
<path d="M0,0 L0,3 L-1,7 L-6,7 L-5,10 L-9,10 L-9,7 L-1,1 Z " fill="#EDEDED" transform="translate(17,5)"/>
<path d="M0,0 L2,1 L3,8 L0,7 Z " fill="#E4E4E4" transform="translate(14,17)"/>
</svg>
