<?xml version="1.0" encoding="UTF-8"?>
<svg version="1.1" xmlns="http://www.w3.org/2000/svg" width="28" height="28">
<path d="M0,0 L28,0 L28,28 L0,28 Z " fill="#060606" transform="translate(0,0)"/>
<path d="M0,0 L2,0 L1,6 L0,9 L5,10 L7,3 L10,0 L11,4 L8,10 L10,10 L11,8 L12,12 L6,14 L1,20 L-1,20 L0,15 L2,12 L-3,12 L-6,13 L-5,8 Z " fill="#F2F2F2" transform="translate(11,5)"/>
<path d="M0,0 L2,1 L1,7 L-3,8 L-2,3 Z " fill="#DBDBDB" transform="translate(20,5)"/>
<path d="M0,0 L2,0 L1,6 L-1,8 L-4,8 L-2,4 Z " fill="#DDDDDD" transform="translate(11,5)"/>
</svg>
