<?xml version="1.0" encoding="UTF-8"?>
<svg version="1.1" xmlns="http://www.w3.org/2000/svg" width="28" height="28">
<path d="M0,0 L28,0 L28,28 L0,28 Z " fill="#010101" transform="translate(0,0)"/>
<path d="M0,0 L3,0 L4,7 L4,20 L1,20 L1,15 L-10,15 L-11,14 L-10,1 L-7,1 L-7,11 L0,11 Z " fill="#DADADA" transform="translate(17,4)"/>
<path d="M0,0 L2,0 L3,2 L3,15 L0,15 L0,10 L-6,9 L-6,7 L0,7 Z " fill="#F1F1F1" transform="translate(18,9)"/>
<path d="M0,0 L3,0 L3,5 L1,5 L1,12 L-5,12 L-5,11 L0,11 Z " fill="#B8B8B8" transform="translate(17,4)"/>
</svg>
