<?xml version="1.0" encoding="UTF-8"?>
<svg version="1.1" xmlns="http://www.w3.org/2000/svg" width="28" height="28">
<path d="M0,0 L28,0 L28,28 L0,28 Z " fill="#020202" transform="translate(0,0)"/>
<path d="M0,0 L4,0 L4,2 L0,5 L-1,9 L5,8 L9,1 L12,0 L12,2 L10,2 L9,7 L12,9 L7,10 L6,15 L4,20 L2,20 L4,12 L-3,11 L-4,7 L-1,1 Z " fill="#E1E1E1" transform="translate(11,6)"/>
<path d="M0,0 L4,0 L4,2 L0,5 L-1,9 L3,10 L5,11 L4,13 L-3,11 L-4,7 L-1,1 Z " fill="#BABABA" transform="translate(11,6)"/>
<path d="M0,0 L4,0 L4,2 L0,5 L-2,5 L-1,1 Z " fill="#D1D1D1" transform="translate(11,6)"/>
</svg>
