<?xml version="1.0" encoding="UTF-8"?>
<svg version="1.1" xmlns="http://www.w3.org/2000/svg" width="28" height="28">
<path d="M0,0 L28,0 L28,28 L0,28 Z " fill="#020202" transform="translate(0,0)"/>
<path d="M0,0 L1,3 L-1,8 L3,8 L4,2 L6,0 L9,0 L9,2 L6,5 L5,7 L10,7 L9,9 L4,10 L1,20 L0,20 L1,10 L-3,9 L-2,4 Z " fill="#DEDEDE" transform="translate(12,6)"/>
<path d="M0,0 L3,0 L3,2 L0,5 L-1,7 L4,7 L3,9 L-3,7 L-1,1 Z " fill="#B0B0B0" transform="translate(18,6)"/>
<path d="M0,0 L1,3 L-1,8 L2,9 L-2,10 L-3,5 Z " fill="#BEBEBE" transform="translate(12,6)"/>
</svg>
