<?xml version="1.0" encoding="UTF-8"?>
<svg version="1.1" xmlns="http://www.w3.org/2000/svg" width="28" height="28">
<path d="M0,0 L28,0 L28,28 L0,28 Z " fill="#070707" transform="translate(0,0)"/>
<path d="M0,0 L2,0 L0,6 L-1,11 L-17,13 L-17,9 L-12,5 L-10,1 L-7,1 L-8,5 L-11,8 L-6,7 L-1,2 Z " fill="#C3C3C3" transform="translate(23,5)"/>
<path d="M0,0 L2,0 L0,6 L-1,11 L-10,12 L-11,10 L-6,7 L-1,2 Z " fill="#F5F5F5" transform="translate(23,5)"/>
<path d="M0,0 L2,0 L0,6 L-5,9 L-7,8 L-2,4 Z " fill="#BABABA" transform="translate(23,5)"/>
</svg>
