<?xml version="1.0" encoding="UTF-8"?>
<svg version="1.1" xmlns="http://www.w3.org/2000/svg" width="28" height="28">
<path d="M0,0 L28,0 L28,28 L0,28 Z " fill="#020202" transform="translate(0,0)"/>
<path d="M0,0 L2,0 L2,2 L0,2 L-2,6 L-3,8 L3,8 L3,10 L-6,12 L-13,20 L-15,20 L-13,16 L-10,12 L-15,11 L-15,9 L-11,7 L-8,7 L-7,9 L-2,1 Z " fill="#D7D7D7" transform="translate(21,5)"/>
<path d="M0,0 L2,0 L2,2 L0,2 L-2,6 L-3,8 L3,8 L3,10 L-5,10 L-6,7 L-2,1 Z " fill="#B7B7B7" transform="translate(21,5)"/>
<path d="M0,0 L1,2 L6,2 L6,3 L-3,5 L-3,2 Z " fill="#F0F0F0" transform="translate(15,13)"/>
</svg>
