<?xml version="1.0" encoding="UTF-8"?>
<svg version="1.1" xmlns="http://www.w3.org/2000/svg" width="28" height="28">
<path d="M0,0 L28,0 L28,28 L0,28 Z " fill="#030303" transform="translate(0,0)"/>
<path d="M0,0 L2,0 L2,11 L8,11 L8,13 L1,14 L-1,20 L-3,20 L-3,14 L-12,15 L-10,10 L-4,3 L-1,3 Z " fill="#DDDDDD" transform="translate(17,4)"/>
<path d="M0,0 L1,3 L8,3 L8,5 L1,6 L-1,12 L-3,12 L-2,5 L-6,4 L-2,3 Z " fill="#F4F4F4" transform="translate(17,12)"/>
<path d="M0,0 L3,1 L1,6 L-4,6 Z " fill="#262626" transform="translate(14,10)"/>
</svg>
