<?xml version="1.0" encoding="UTF-8"?>
<svg version="1.1" xmlns="http://www.w3.org/2000/svg" width="28" height="28">
<path d="M0,0 L28,0 L28,28 L0,28 Z " fill="#010101" transform="translate(0,0)"/>
<path d="M0,0 L2,0 L1,10 L-3,12 L-8,20 L-10,20 L-8,15 L-6,12 L-12,11 L-7,6 L-3,3 L-1,3 Z " fill="#DADADA" transform="translate(19,5)"/>
<path d="M0,0 L2,0 L1,10 L-3,11 L-3,9 L-6,8 L-5,4 L-1,3 Z M-3,8 Z " fill="#CFCFCF" transform="translate(19,5)"/>
<path d="M0,0 L2,1 L0,6 L-3,5 L-2,1 Z " fill="#8C8C8C" transform="translate(16,8)"/>
</svg>
