<?xml version="1.0" encoding="UTF-8"?>
<svg version="1.1" xmlns="http://www.w3.org/2000/svg" width="28" height="28">
<path d="M0,0 L28,0 L28,28 L0,28 Z " fill="#030303" transform="translate(0,0)"/>
<path d="M0,0 L3,0 L2,7 L2,10 L-2,14 L-5,20 L-7,20 L-6,15 L-4,12 L-11,12 L-9,8 L-1,1 Z " fill="#A5A5A5" transform="translate(17,6)"/>
<path d="M0,0 L3,1 L-2,6 L-5,12 L-7,12 L-6,7 L-4,4 L-2,4 Z " fill="#D8D8D8" transform="translate(17,14)"/>
<path d="M0,0 L1,3 L-4,8 L-1,9 L-9,10 L-7,6 Z " fill="#F3F3F3" transform="translate(15,8)"/>
</svg>
