<?xml version="1.0" encoding="UTF-8"?>
<svg version="1.1" xmlns="http://www.w3.org/2000/svg" width="28" height="28">
<path d="M0,0 L28,0 L28,28 L0,28 Z " fill="#010101" transform="translate(0,0)"/>
<path d="M0,0 L2,0 L1,12 L-2,12 L-3,20 L-6,20 L-5,15 L-4,12 L-10,13 L-9,9 L-2,3 L-2,6 L-4,6 L-4,8 L-6,9 L-2,10 Z " fill="#D3D3D3" transform="translate(18,5)"/>
<path d="M0,0 L3,0 L4,3 L3,9 L0,9 L1,4 L2,1 Z " fill="#AFAFAF" transform="translate(12,16)"/>
<path d="M0,0 L2,0 L0,7 L-5,7 L-4,5 L-2,5 L-2,3 L0,3 Z " fill="#404040" transform="translate(16,8)"/>
</svg>
