<?xml version="1.0" encoding="UTF-8"?>
<svg version="1.1" xmlns="http://www.w3.org/2000/svg" width="28" height="28">
<path d="M0,0 L28,0 L28,28 L0,28 Z " fill="#010101" transform="translate(0,0)"/>
<path d="M0,0 L4,1 L1,4 L0,7 L7,6 L8,2 L10,2 L9,7 L7,13 L7,20 L3,20 L4,9 L-2,10 L-3,9 L-2,2 Z " fill="#E6E6E6" transform="translate(11,6)"/>
<path d="M0,0 L4,1 L1,4 L0,7 L4,6 L5,12 L4,9 L-2,10 L-3,9 L-2,2 Z " fill="#B8B8B8" transform="translate(11,6)"/>
<path d="M0,0 L4,1 L-1,7 L-2,7 L-2,2 Z " fill="#E3E3E3" transform="translate(11,6)"/>
</svg>
