<?xml version="1.0" encoding="UTF-8"?>
<svg version="1.1" xmlns="http://www.w3.org/2000/svg" width="28" height="28">
<path d="M0,0 L28,0 L28,28 L0,28 Z " fill="#030303" transform="translate(0,0)"/>
<path d="M0,0 L1,2 L-2,10 L2,9 L2,11 L-2,13 L-4,18 L-1,19 L-5,20 L-6,15 L-11,15 L-11,6 L-9,3 L-6,4 L-8,4 L-9,13 L-6,12 L-2,3 Z " fill="#E6E6E6" transform="translate(20,4)"/>
<path d="M0,0 L1,2 L-2,10 L2,9 L2,11 L-1,12 L-4,9 L-2,3 Z " fill="#B5B5B5" transform="translate(20,4)"/>
<path d="M0,0 L3,1 L1,1 L0,10 L-2,6 L-1,1 Z " fill="#C6C6C6" transform="translate(11,7)"/>
</svg>
