<?xml version="1.0" encoding="UTF-8"?>
<svg version="1.1" xmlns="http://www.w3.org/2000/svg" width="28" height="28">
<path d="M0,0 L28,0 L28,28 L0,28 Z " fill="#020202" transform="translate(0,0)"/>
<path d="M0,0 L2,0 L1,10 L7,10 L12,5 L15,3 L13,20 L11,20 L11,11 L5,14 L-1,13 L-3,10 L-3,4 Z " fill="#DBDBDB" transform="translate(8,4)"/>
<path d="M0,0 L2,0 L1,10 L6,11 L3,14 L-2,12 L-3,10 L-3,4 Z " fill="#CFCFCF" transform="translate(8,4)"/>
<path d="M0,0 L1,0 L2,5 L7,6 L4,9 L-1,7 Z " fill="#AFAFAF" transform="translate(7,9)"/>
</svg>
