<?xml version="1.0" encoding="UTF-8"?>
<svg version="1.1" xmlns="http://www.w3.org/2000/svg" width="28" height="28">
<path d="M0,0 L28,0 L28,28 L0,28 Z " fill="#040404" transform="translate(0,0)"/>
<path d="M0,0 L2,0 L3,8 L7,8 L7,10 L1,12 L1,19 L-3,20 L-3,16 L-1,16 L-1,13 L-11,14 L-7,10 L-2,9 L-2,6 L-4,6 L-2,1 Z " fill="#E8E8E8" transform="translate(16,5)"/>
<path d="M0,0 L1,2 L5,0 L4,5 L-2,7 L-6,9 L-4,5 Z " fill="#CBCBCB" transform="translate(11,9)"/>
<path d="M0,0 L1,3 L-1,6 L-5,7 L-3,3 Z " fill="#141414" transform="translate(15,9)"/>
</svg>
