<?xml version="1.0" encoding="UTF-8"?>
<svg version="1.1" xmlns="http://www.w3.org/2000/svg" width="28" height="28">
<path d="M0,0 L28,0 L28,28 L0,28 Z " fill="#020202" transform="translate(0,0)"/>
<path d="M0,0 L2,0 L0,4 L-4,9 L-5,13 L-2,13 L0,8 L4,3 L7,4 L5,4 L3,9 L1,12 L7,12 L7,14 L-2,15 L-2,20 L-4,20 L-4,15 L-8,13 L-7,9 L-3,3 L0,2 Z " fill="#CFCFCF" transform="translate(16,4)"/>
<path d="M0,0 L2,0 L0,4 L-4,9 L-4,15 L-8,13 L-7,9 L-3,3 L0,2 Z " fill="#BCBCBC" transform="translate(16,4)"/>
<path d="M0,0 L2,0 L0,4 L-4,8 L-5,5 L-2,2 L0,2 Z " fill="#A1A1A1" transform="translate(16,4)"/>
</svg>
