<?xml version="1.0" encoding="UTF-8"?>
<svg version="1.1" xmlns="http://www.w3.org/2000/svg" width="28" height="28">
<path d="M0,0 L28,0 L28,28 L0,28 Z " fill="#030303" transform="translate(0,0)"/>
<path d="M0,0 L5,0 L4,7 L3,9 L9,9 L9,11 L2,11 L0,20 L-3,19 L-1,11 L-9,13 L-7,8 L-2,1 Z " fill="#EAEAEA" transform="translate(15,6)"/>
<path d="M0,0 L2,1 L2,3 L1,9 L-4,9 L-6,8 L-4,3 Z " fill="#B5B5B5" transform="translate(15,6)"/>
<path d="M0,0 L3,0 L2,6 L-1,5 Z " fill="#CFCFCF" transform="translate(13,20)"/>
</svg>
