<?xml version="1.0" encoding="UTF-8"?>
<svg version="1.1" xmlns="http://www.w3.org/2000/svg" width="28" height="28">
<path d="M0,0 L28,0 L28,28 L0,28 Z " fill="#030303" transform="translate(0,0)"/>
<path d="M0,0 L2,0 L1,4 L-3,9 L4,8 L4,11 L3,12 L-6,13 L-6,17 L-9,19 L-12,19 L-11,14 L-15,11 L-13,6 L-9,1 L-6,2 L-9,7 L-11,10 L-6,7 Z " fill="#ECECEC" transform="translate(21,5)"/>
<path d="M0,0 L2,0 L1,4 L-3,7 L-5,5 Z " fill="#CECECE" transform="translate(21,5)"/>
<path d="M0,0 L3,1 L1,5 L-3,7 L-5,8 L-3,4 Z " fill="#D1D1D1" transform="translate(12,6)"/>
<path d="M0,0 L1,3 L-2,6 L-5,6 L-3,2 Z " fill="#212121" transform="translate(15,9)"/>
</svg>
