<?xml version="1.0" encoding="UTF-8"?>
<svg version="1.1" xmlns="http://www.w3.org/2000/svg" width="28" height="28">
<path d="M0,0 L28,0 L28,28 L0,28 Z " fill="#030303" transform="translate(0,0)"/>
<path d="M0,0 L2,0 L2,10 L10,9 L12,0 L16,2 L15,7 L14,11 L14,20 L11,19 L10,12 L1,13 L-2,10 L-2,3 Z " fill="#EFEFEF" transform="translate(7,5)"/>
<path d="M0,0 L2,0 L1,10 L0,10 L-1,5 L-2,3 Z " fill="#C5C5C5" transform="translate(7,5)"/>
<path d="M0,0 L4,2 L3,7 L1,6 Z " fill="#C4C4C4" transform="translate(19,5)"/>
</svg>
