<?xml version="1.0" encoding="UTF-8"?>
<svg version="1.1" xmlns="http://www.w3.org/2000/svg" width="28" height="28">
<path d="M0,0 L28,0 L28,28 L0,28 Z " fill="#010101" transform="translate(0,0)"/>
<path d="M0,0 L2,0 L4,15 L3,20 L0,20 L0,14 L-8,14 L-7,10 L-5,8 L-4,4 L-2,4 L-2,9 L-3,11 L1,12 L0,8 Z " fill="#E8E8E8" transform="translate(16,4)"/>
<path d="M0,0 L1,0 L2,7 L1,12 L-2,12 L-2,6 Z " fill="#BCBCBC" transform="translate(18,12)"/>
<path d="M0,0 L2,0 L2,5 L-2,8 L0,10 L-4,10 L-3,6 L-1,4 Z " fill="#D1D1D1" transform="translate(12,8)"/>
<path d="M0,0 L3,4 L3,8 L-2,7 Z " fill="#1F1F1F" transform="translate(14,8)"/>
</svg>
