<?xml version="1.0" encoding="UTF-8"?>
<svg version="1.1" xmlns="http://www.w3.org/2000/svg" width="28" height="28">
<path d="M0,0 L28,0 L28,28 L0,28 Z " fill="#010101" transform="translate(0,0)"/>
<path d="M0,0 L3,1 L3,14 L1,14 L1,20 L-2,20 L-2,15 L-9,16 L-5,9 Z " fill="#D6D6D6" transform="translate(16,4)"/>
<path d="M0,0 L1,4 L4,5 L4,7 L2,7 L2,13 L-1,13 L-1,7 L-4,7 L-2,3 Z " fill="#959595" transform="translate(15,11)"/>
<path d="M0,0 L2,1 L0,4 L3,5 L-4,6 L-1,1 Z " fill="#EDEDED" transform="translate(11,14)"/>
</svg>
