<?xml version="1.0" encoding="UTF-8"?>
<svg version="1.1" xmlns="http://www.w3.org/2000/svg" width="28" height="28">
<path d="M0,0 L28,0 L28,28 L0,28 Z " fill="#040404" transform="translate(0,0)"/>
<path d="M0,0 L2,0 L0,7 L-1,14 L-3,15 L-5,20 L-6,20 L-6,14 L-15,14 L-13,10 L-9,4 L-6,4 L-8,8 L-10,12 L-4,12 L-2,3 Z " fill="#EDEDED" transform="translate(20,4)"/>
<path d="M0,0 L3,0 L1,4 L-4,10 L-6,10 L-4,6 Z " fill="#C5C5C5" transform="translate(11,8)"/>
<path d="M0,0 L2,0 L0,7 L-2,11 L-4,11 L-1,2 Z " fill="#D0D0D0" transform="translate(20,4)"/>
</svg>
