<?xml version="1.0" encoding="UTF-8"?>
<svg version="1.1" xmlns="http://www.w3.org/2000/svg" width="28" height="28">
<path d="M0,0 L28,0 L28,28 L0,28 Z " fill="#030303" transform="translate(0,0)"/>
<path d="M0,0 L2,0 L1,9 L3,10 L1,12 L-2,12 L-4,18 L-8,20 L-6,15 L-5,13 L-10,13 L-9,7 L-5,1 L-3,1 L-5,7 L-7,10 L-3,9 Z " fill="#EDEDED" transform="translate(18,5)"/>
<path d="M0,0 L2,0 L0,6 L-2,9 L2,10 L-5,10 L-3,5 Z " fill="#D2D2D2" transform="translate(13,6)"/>
<path d="M0,0 L3,1 L2,6 L-3,7 L-1,2 Z " fill="#1E1E1E" transform="translate(14,8)"/>
</svg>
