<?xml version="1.0" encoding="UTF-8"?>
<svg version="1.1" xmlns="http://www.w3.org/2000/svg" width="28" height="28">
<path d="M0,0 L28,0 L28,28 L0,28 Z " fill="#020202" transform="translate(0,0)"/>
<path d="M0,0 L2,0 L0,10 L3,11 L0,20 L-2,18 L-2,12 L-8,13 L-10,12 L-9,8 Z " fill="#EBEBEB" transform="translate(17,5)"/>
<path d="M0,0 L2,1 L0,7 L-5,8 L-7,7 L-6,3 L-1,1 Z " fill="#818181" transform="translate(14,10)"/>
<path d="M0,0 L2,0 L0,7 L-3,6 L-5,8 L-8,7 Z " fill="#D0D0D0" transform="translate(17,5)"/>
</svg>
