<?xml version="1.0" encoding="UTF-8"?>
<svg version="1.1" xmlns="http://www.w3.org/2000/svg" width="28" height="28">
<path d="M0,0 L28,0 L28,28 L0,28 Z " fill="#020202" transform="translate(0,0)"/>
<path d="M0,0 L4,1 L2,8 L6,9 L6,11 L1,11 L-4,17 L-7,17 L-7,14 L-4,14 L-3,10 L-7,11 L-14,11 L-14,9 L-3,3 Z " fill="#DADADA" transform="translate(17,6)"/>
<path d="M0,0 L1,2 L0,4 L4,5 L-1,6 L-8,6 L-8,4 Z " fill="#EFEFEF" transform="translate(11,11)"/>
<path d="M0,0 L3,1 L0,3 L0,6 L-1,8 L-5,8 L-5,4 Z " fill="#959595" transform="translate(17,6)"/>
<path d="M0,0 L3,0 L1,6 L-2,7 L-2,3 Z " fill="#F0F0F0" transform="translate(18,7)"/>
</svg>
