<?xml version="1.0" encoding="UTF-8"?>
<svg version="1.1" xmlns="http://www.w3.org/2000/svg" width="28" height="28">
<path d="M0,0 L28,0 L28,28 L0,28 Z " fill="#020202" transform="translate(0,0)"/>
<path d="M0,0 L2,0 L1,19 L-2,20 L-2,10 L-10,10 L-8,4 L-6,1 L-4,2 L-7,8 L-1,7 Z " fill="#E3E3E3" transform="translate(17,5)"/>
<path d="M0,0 L2,1 L-1,7 L4,7 L3,9 L-4,9 L-2,3 Z " fill="#EBEBEB" transform="translate(11,6)"/>
<path d="M0,0 L2,0 L1,7 L-2,11 L-4,7 L-1,7 Z " fill="#BEBEBE" transform="translate(17,5)"/>
</svg>
