<?xml version="1.0" encoding="UTF-8"?>
<svg version="1.1" xmlns="http://www.w3.org/2000/svg" width="28" height="28">
<path d="M0,0 L28,0 L28,28 L0,28 Z " fill="#020202" transform="translate(0,0)"/>
<path d="M0,0 L2,1 L1,9 L8,9 L9,2 L12,0 L11,9 L13,10 L10,11 L10,20 L7,20 L7,12 L1,12 L-1,10 L-1,2 Z " fill="#DADADA" transform="translate(8,5)"/>
<path d="M0,0 L1,0 L0,9 L2,10 L-1,10 L-3,5 Z " fill="#C8C8C8" transform="translate(19,5)"/>
<path d="M0,0 L2,4 L-2,8 L-2,5 L-6,4 L-1,4 Z " fill="#F9F9F9" transform="translate(17,11)"/>
</svg>
