<?xml version="1.0" encoding="UTF-8"?>
<svg version="1.1" xmlns="http://www.w3.org/2000/svg" width="28" height="28">
<path d="M0,0 L28,0 L28,28 L0,28 Z " fill="#030303" transform="translate(0,0)"/>
<path d="M0,0 L2,1 L1,10 L-2,20 L-4,20 L-4,14 L-3,12 L-6,14 L-10,13 L-11,10 L-8,1 L-6,1 L-6,9 L-3,8 Z " fill="#EDEDED" transform="translate(18,5)"/>
<path d="M0,0 L2,0 L2,8 L4,9 L2,13 L-2,12 L-3,9 Z " fill="#DADADA" transform="translate(10,6)"/>
<path d="M0,0 L4,3 L2,7 L-2,6 L-2,3 Z " fill="#C3C3C3" transform="translate(10,12)"/>
</svg>
