<?xml version="1.0" encoding="UTF-8"?>
<svg version="1.1" xmlns="http://www.w3.org/2000/svg" width="28" height="28">
<path d="M0,0 L28,0 L28,28 L0,28 Z " fill="#040404" transform="translate(0,0)"/>
<path d="M0,0 L3,1 L3,9 L5,10 L3,11 L0,20 L-2,20 L0,10 L-7,12 L-11,14 L-9,10 L-4,5 Z " fill="#E1E1E1" transform="translate(16,5)"/>
<path d="M0,0 L2,0 L1,7 L-4,7 Z " fill="#2F2F2F" transform="translate(16,7)"/>
<path d="M0,0 L7,1 L7,2 L0,3 L-3,6 L-5,6 L-3,2 Z M7,0 Z " fill="#F4F4F4" transform="translate(10,13)"/>
<path d="M0,0 L2,0 L2,2 L0,2 L-2,7 L-5,8 L-3,4 Z " fill="#C6C6C6" transform="translate(16,5)"/>
</svg>
