<?xml version="1.0" encoding="UTF-8"?>
<svg version="1.1" xmlns="http://www.w3.org/2000/svg" width="28" height="28">
<path d="M0,0 L28,0 L28,28 L0,28 Z " fill="#030303" transform="translate(0,0)"/>
<path d="M0,0 L5,0 L4,11 L6,12 L2,13 L1,19 L-2,20 L0,12 L-10,13 L-14,14 L-13,11 L-2,2 Z " fill="#D7D7D7" transform="translate(16,5)"/>
<path d="M0,0 L1,3 L-1,8 L-11,8 L-6,3 L-4,1 Z " fill="#404040" transform="translate(18,8)"/>
<path d="M0,0 L2,0 L2,5 L-5,5 Z " fill="#080808" transform="translate(16,10)"/>
</svg>
