<?xml version="1.0" encoding="UTF-8"?>
<svg version="1.1" xmlns="http://www.w3.org/2000/svg" width="28" height="28">
<path d="M0,0 L28,0 L28,28 L0,28 Z " fill="#010101" transform="translate(0,0)"/>
<path d="M0,0 L1,0 L0,9 L-4,18 L-6,20 L-6,16 L-4,10 L-15,10 L-14,4 L-11,1 L-12,7 L-2,7 L-1,1 Z " fill="#B9B9B9" transform="translate(21,6)"/>
<path d="M0,0 L1,4 L0,6 L8,7 L8,8 L-3,9 L-2,3 Z " fill="#E3E3E3" transform="translate(9,7)"/>
<path d="M0,0 L1,0 L1,6 L-2,8 L-1,1 Z M-3,8 Z " fill="#D9D9D9" transform="translate(21,6)"/>
</svg>
