<?xml version="1.0" encoding="UTF-8"?>
<svg version="1.1" xmlns="http://www.w3.org/2000/svg" width="28" height="28">
<path d="M0,0 L28,0 L28,28 L0,28 Z " fill="#020202" transform="translate(0,0)"/>
<path d="M0,0 L4,1 L4,3 L4,6 L2,5 L1,14 L5,14 L5,16 L0,16 L-1,20 L-3,20 L-3,15 L-11,14 L-14,12 L-13,9 L-3,2 Z " fill="#D1D1D1" transform="translate(17,5)"/>
<path d="M0,0 L4,1 L3,3 L1,2 L0,11 L4,11 L4,13 L-1,13 L-2,17 L-4,17 L-3,6 Z " fill="#DBDBDB" transform="translate(18,8)"/>
<path d="M0,0 L2,0 L0,9 L-8,8 L-9,6 Z " fill="#101010" transform="translate(15,9)"/>
</svg>
