<?xml version="1.0" encoding="UTF-8"?>
<svg version="1.1" xmlns="http://www.w3.org/2000/svg" width="28" height="28">
<path d="M0,0 L28,0 L28,28 L0,28 Z " fill="#020202" transform="translate(0,0)"/>
<path d="M0,0 L4,0 L4,7 L3,9 L6,10 L5,12 L2,11 L1,18 L0,20 L-2,20 L-1,13 L0,10 L-10,11 L-10,9 L-2,2 Z " fill="#E7E7E7" transform="translate(15,6)"/>
<path d="M0,0 L4,0 L4,7 L2,7 L1,9 L-5,9 L-6,6 Z " fill="#D1D1D1" transform="translate(15,6)"/>
<path d="M0,0 L2,0 L1,5 L-4,5 Z " fill="#161616" transform="translate(15,9)"/>
</svg>
