<?xml version="1.0" encoding="UTF-8"?>
<svg version="1.1" xmlns="http://www.w3.org/2000/svg" width="28" height="28">
<path d="M0,0 L28,0 L28,28 L0,28 Z " fill="#030303" transform="translate(0,0)"/>
<path d="M0,0 L2,0 L2,3 L4,3 L4,5 L2,5 L2,20 L0,20 L-1,14 L-8,17 L-12,17 L-11,12 L-5,4 Z " fill="#DCDCDC" transform="translate(18,4)"/>
<path d="M0,0 L2,0 L2,3 L4,3 L4,5 L2,5 L1,7 L-3,7 L-8,12 L-10,15 L-7,16 L-12,17 L-11,12 L-5,4 Z " fill="#E3E3E3" transform="translate(18,4)"/>
<path d="M0,0 L2,1 L1,7 L-4,9 L-7,9 L-5,5 Z " fill="#151515" transform="translate(16,9)"/>
</svg>
