<?xml version="1.0" encoding="UTF-8"?>
<svg version="1.1" xmlns="http://www.w3.org/2000/svg" width="28" height="28">
<path d="M0,0 L28,0 L28,28 L0,28 Z " fill="#020202" transform="translate(0,0)"/>
<path d="M0,0 L2,0 L1,11 L5,12 L1,13 L1,20 L-2,20 L-1,13 L-9,14 L-8,7 L-7,3 Z " fill="#DEDEDE" transform="translate(17,5)"/>
<path d="M0,0 L2,0 L1,8 L-4,9 L-4,4 Z " fill="#121212" transform="translate(15,8)"/>
<path d="M0,0 L5,0 L4,2 L1,2 L1,9 L-2,9 L-1,1 Z " fill="#D0D0D0" transform="translate(17,16)"/>
</svg>
