<?xml version="1.0" encoding="UTF-8"?>
<svg version="1.1" xmlns="http://www.w3.org/2000/svg" width="28" height="28">
<path d="M0,0 L28,0 L28,28 L0,28 Z " fill="#030303" transform="translate(0,0)"/>
<path d="M0,0 L1,3 L-2,8 L-4,12 L-9,15 L-11,15 L-12,18 L-14,18 L-15,20 L-14,16 L-12,14 L-15,12 L-13,7 L-10,6 L-9,2 L-7,2 L-7,6 L-9,6 L-10,9 L-6,8 L-4,5 L-2,5 Z " fill="#E0E0E0" transform="translate(23,5)"/>
<path d="M0,0 L2,0 L2,4 L0,4 L-1,7 L-4,5 L-1,4 Z " fill="#C2C2C2" transform="translate(14,7)"/>
</svg>
