<?xml version="1.0" encoding="UTF-8"?>
<svg version="1.1" xmlns="http://www.w3.org/2000/svg" width="28" height="28">
<path d="M0,0 L28,0 L28,28 L0,28 Z " fill="#040404" transform="translate(0,0)"/>
<path d="M0,0 L3,1 L-2,6 L-4,9 L5,7 L10,0 L11,3 L10,7 L10,9 L8,9 L8,20 L5,19 L4,12 L4,11 L-7,11 L-6,6 L-2,1 Z " fill="#EAEAEA" transform="translate(12,6)"/>
<path d="M0,0 L3,1 L-2,6 L-4,9 L-2,10 L-7,11 L-6,6 L-2,1 Z " fill="#C8C8C8" transform="translate(12,6)"/>
<path d="M0,0 L1,0 L2,9 L-1,8 L-2,1 Z " fill="#D4D4D4" transform="translate(18,17)"/>
</svg>
