<?xml version="1.0" encoding="UTF-8"?>
<svg version="1.1" xmlns="http://www.w3.org/2000/svg" width="28" height="28">
<path d="M0,0 L28,0 L28,28 L0,28 Z " fill="#030303" transform="translate(0,0)"/>
<path d="M0,0 L1,4 L0,6 L5,6 L12,0 L12,3 L2,17 L0,20 L-2,20 L-1,15 L2,10 L-6,11 L-5,7 Z " fill="#E8E8E8" transform="translate(13,6)"/>
<path d="M0,0 L2,2 L-3,7 L-8,8 L-3,3 Z " fill="#CACACA" transform="translate(24,6)"/>
<path d="M0,0 L2,1 L1,6 L-2,7 L-1,2 Z " fill="#CACACA" transform="translate(13,19)"/>
</svg>
