<?xml version="1.0" encoding="UTF-8"?>
<svg version="1.1" xmlns="http://www.w3.org/2000/svg" width="28" height="28">
<path d="M0,0 L28,0 L28,28 L0,28 Z " fill="#030303" transform="translate(0,0)"/>
<path d="M0,0 L3,0 L3,2 L1,2 L-1,11 L4,11 L4,12 L-1,13 L-2,20 L-4,20 L-4,13 L-14,9 L-14,6 L-4,2 Z " fill="#D0D0D0" transform="translate(19,6)"/>
<path d="M0,0 L3,0 L3,2 L1,2 L-1,11 L4,11 L4,12 L-1,13 L-2,20 L-4,20 L-4,13 L-1,4 L-5,3 L-4,1 Z " fill="#E3E3E3" transform="translate(19,6)"/>
<path d="M0,0 L3,0 L1,6 L-8,4 L-6,2 Z " fill="#0F0F0F" transform="translate(15,10)"/>
</svg>
