<?xml version="1.0" encoding="UTF-8"?>
<svg version="1.1" xmlns="http://www.w3.org/2000/svg" width="28" height="28">
<path d="M0,0 L28,0 L28,28 L0,28 Z " fill="#020202" transform="translate(0,0)"/>
<path d="M0,0 L3,1 L4,11 L10,10 L10,12 L5,13 L6,19 L3,19 L2,14 L-7,15 L-8,11 L-5,7 L-3,7 L-1,3 Z " fill="#DDDDDD" transform="translate(14,4)"/>
<path d="M0,0 L2,0 L2,2 L7,2 L7,4 L0,5 L-1,1 Z " fill="#E9E9E9" transform="translate(7,14)"/>
<path d="M0,0 L2,1 L2,5 L-4,5 Z " fill="#222222" transform="translate(13,11)"/>
</svg>
