<?xml version="1.0" encoding="UTF-8"?>
<svg version="1.1" xmlns="http://www.w3.org/2000/svg" width="28" height="28">
<path d="M0,0 L28,0 L28,28 L0,28 Z " fill="#020202" transform="translate(0,0)"/>
<path d="M0,0 L3,1 L2,8 L0,11 L5,10 L5,7 L7,7 L6,11 L3,13 L0,13 L-2,19 L-6,20 L-4,12 L-9,14 L-8,10 L-5,7 L-4,4 L-1,5 Z " fill="#E9E9E9" transform="translate(16,4)"/>
<path d="M0,0 L2,0 L3,5 L2,7 L-2,7 L-5,9 L-3,5 Z " fill="#C0C0C0" transform="translate(12,8)"/>
<path d="M0,0 L3,1 L2,8 L-1,8 Z " fill="#CBCBCB" transform="translate(16,4)"/>
</svg>
