<?xml version="1.0" encoding="UTF-8"?>
<svg version="1.1" xmlns="http://www.w3.org/2000/svg" width="28" height="28">
<path d="M0,0 L28,0 L28,28 L0,28 Z " fill="#030303" transform="translate(0,0)"/>
<path d="M0,0 L2,0 L0,9 L3,10 L-1,12 L-4,19 L-5,15 L-4,11 L-15,11 L-14,7 L-7,2 Z " fill="#BCBCBC" transform="translate(20,6)"/>
<path d="M0,0 L1,0 L1,5 L4,6 L0,8 L-3,15 L-4,11 L-3,7 L-14,7 L-13,3 L-11,3 L-11,5 L-1,5 Z " fill="#DFDFDF" transform="translate(19,10)"/>
<path d="M0,0 L2,0 L2,2 L9,2 L9,4 L-1,4 Z " fill="#FAFAFA" transform="translate(6,13)"/>
<path d="M0,0 L3,0 L3,4 L-5,4 L-3,1 Z " fill="#060606" transform="translate(15,10)"/>
</svg>
