<?xml version="1.0" encoding="UTF-8"?>
<svg version="1.1" xmlns="http://www.w3.org/2000/svg" width="28" height="28">
<path d="M0,0 L28,0 L28,28 L0,28 Z " fill="#020202" transform="translate(0,0)"/>
<path d="M0,0 L2,0 L1,10 L3,9 L5,3 L8,4 L8,9 L6,9 L6,20 L3,20 L3,13 L-2,14 L-2,6 Z " fill="#D0D0D0" transform="translate(12,5)"/>
<path d="M0,0 L2,0 L0,11 L2,11 L1,14 L-2,14 L-2,6 Z " fill="#F2F2F2" transform="translate(12,5)"/>
<path d="M0,0 L1,0 L2,10 L-1,10 L-1,1 Z " fill="#EDEDED" transform="translate(16,15)"/>
</svg>
