<?xml version="1.0" encoding="UTF-8"?>
<svg version="1.1" xmlns="http://www.w3.org/2000/svg" width="28" height="28">
<path d="M0,0 L28,0 L28,28 L0,28 Z " fill="#020202" transform="translate(0,0)"/>
<path d="M0,0 L2,0 L1,11 L-3,20 L-5,20 L-4,14 L-9,14 L-10,9 L-7,1 L-5,1 L-8,11 L-3,10 Z " fill="#C9C9C9" transform="translate(18,5)"/>
<path d="M0,0 L2,0 L1,11 L-2,9 Z " fill="#CACACA" transform="translate(18,5)"/>
<path d="M0,0 L2,1 L0,5 L-7,4 L-3,2 Z " fill="#F9F9F9" transform="translate(16,14)"/>
</svg>
