<?xml version="1.0" encoding="UTF-8"?>
<svg version="1.1" xmlns="http://www.w3.org/2000/svg" width="28" height="28">
<path d="M0,0 L28,0 L28,28 L0,28 Z " fill="#020202" transform="translate(0,0)"/>
<path d="M0,0 L2,0 L2,3 L0,3 L-2,8 L-2,13 L-6,15 L-9,20 L-12,20 L-10,16 L-10,13 L-15,15 L-15,11 L-13,11 L-11,7 L-10,5 L-7,5 L-7,8 L-9,8 L-9,11 L-6,10 L-2,2 Z " fill="#DDDDDD" transform="translate(22,4)"/>
<path d="M0,0 L3,0 L3,3 L1,3 L0,6 L-3,6 L-1,2 Z M-5,6 L-3,7 L-6,7 Z " fill="#C3C3C3" transform="translate(12,9)"/>
</svg>
