<?xml version="1.0" encoding="UTF-8"?>
<svg version="1.1" xmlns="http://www.w3.org/2000/svg" width="28" height="28">
<path d="M0,0 L28,0 L28,28 L0,28 Z " fill="#030303" transform="translate(0,0)"/>
<path d="M0,0 L2,0 L2,3 L0,3 L-2,8 L-3,10 L5,8 L1,12 L-7,13 L-9,18 L-11,18 L-9,13 L-14,11 L-15,8 L-10,4 L-8,5 L-11,11 L-7,10 Z " fill="#DCDCDC" transform="translate(20,5)"/>
<path d="M0,0 L2,0 L2,3 L0,3 L-2,8 L-3,10 L5,8 L1,12 L-4,11 L-6,10 L-4,5 Z " fill="#CACACA" transform="translate(20,5)"/>
<path d="M0,0 L2,3 L-2,4 L-4,9 L-6,9 L-4,2 Z " fill="#F6F6F6" transform="translate(15,14)"/>
</svg>
