<?xml version="1.0" encoding="UTF-8"?>
<svg version="1.1" xmlns="http://www.w3.org/2000/svg" width="28" height="28">
<path d="M0,0 L28,0 L28,28 L0,28 Z " fill="#020202" transform="translate(0,0)"/>
<path d="M0,0 L1,2 L-1,8 L3,7 L3,9 L-2,10 L-4,20 L-6,20 L-4,11 L-10,11 L-11,10 L-11,5 L-7,3 L-9,9 L-4,8 L-1,1 Z " fill="#CCCCCC" transform="translate(19,6)"/>
<path d="M0,0 L1,2 L-1,8 L3,7 L3,9 L0,10 L-2,9 L-3,4 Z " fill="#B4B4B4" transform="translate(19,6)"/>
<path d="M0,0 L2,0 L1,7 L-2,7 L-2,2 Z " fill="#E3E3E3" transform="translate(10,9)"/>
</svg>
