<?xml version="1.0" encoding="UTF-8"?>
<svg version="1.1" xmlns="http://www.w3.org/2000/svg" width="28" height="28">
<path d="M0,0 L28,0 L28,28 L0,28 Z " fill="#030303" transform="translate(0,0)"/>
<path d="M0,0 L3,1 L1,10 L3,10 L3,13 L0,14 L-2,20 L-4,19 L-3,14 L-13,14 L-12,10 L-8,4 L-5,4 L-7,8 L-9,11 L-3,11 L-2,10 L-1,1 Z " fill="#BBBBBB" transform="translate(18,5)"/>
<path d="M0,0 L3,0 L1,4 L-1,7 L5,8 L5,9 L-5,9 L-3,4 Z " fill="#E5E5E5" transform="translate(10,9)"/>
<path d="M0,0 L3,0 L3,2 L1,3 L-1,9 L-3,8 L-2,4 Z " fill="#E3E3E3" transform="translate(17,16)"/>
</svg>
