<?xml version="1.0" encoding="UTF-8"?>
<svg version="1.1" xmlns="http://www.w3.org/2000/svg" width="28" height="28">
<path d="M0,0 L28,0 L28,28 L0,28 Z " fill="#020202" transform="translate(0,0)"/>
<path d="M0,0 L4,1 L2,3 L1,11 L6,11 L5,13 L0,13 L-1,20 L-3,20 L-3,14 L-8,12 L-7,7 L-6,5 L-4,5 L-6,10 L-2,10 L-1,2 Z " fill="#C2C2C2" transform="translate(16,5)"/>
<path d="M0,0 L2,0 L0,5 L3,6 L3,7 L-2,7 L-1,2 Z " fill="#E5E5E5" transform="translate(10,10)"/>
<path d="M0,0 L4,1 L1,5 L-1,9 L-1,2 Z " fill="#E2E2E2" transform="translate(16,5)"/>
</svg>
