<?xml version="1.0" encoding="UTF-8"?>
<svg version="1.1" xmlns="http://www.w3.org/2000/svg" width="28" height="28">
<path d="M0,0 L28,0 L28,28 L0,28 Z " fill="#020202" transform="translate(0,0)"/>
<path d="M0,0 L3,0 L3,2 L-2,7 L-3,9 L2,8 L1,10 L-6,11 L-8,15 L-12,18 L-10,13 L-9,11 L-17,12 L-15,8 L-10,3 L-7,3 L-9,8 L-5,7 Z " fill="#E0E0E0" transform="translate(22,6)"/>
<path d="M0,0 L6,0 L8,3 L2,8 L4,3 L5,1 L0,1 Z " fill="#AEAEAE" transform="translate(8,16)"/>
<path d="M0,0 L3,0 L3,2 L-2,7 L-4,9 L-5,7 Z " fill="#BBBBBB" transform="translate(22,6)"/>
</svg>
