<?xml version="1.0" encoding="UTF-8"?>
<svg version="1.1" xmlns="http://www.w3.org/2000/svg" width="28" height="28">
<path d="M0,0 L28,0 L28,28 L0,28 Z " fill="#040404" transform="translate(0,0)"/>
<path d="M0,0 L2,0 L0,6 L-3,9 L0,9 L-1,12 L-4,12 L-7,20 L-10,20 L-10,18 L-8,18 L-7,11 L-17,13 L-16,7 L-14,1 L-12,1 L-13,9 L-6,8 L-5,6 L-3,6 L-3,3 L-1,3 Z " fill="#E7E7E7" transform="translate(22,5)"/>
<path d="M0,0 L2,0 L2,5 L0,5 L-1,9 L-2,11 L0,12 L-3,12 L-2,6 Z " fill="#C6C6C6" transform="translate(8,6)"/>
</svg>
