<?xml version="1.0" encoding="UTF-8"?>
<svg version="1.1" xmlns="http://www.w3.org/2000/svg" width="28" height="28">
<path d="M0,0 L28,0 L28,28 L0,28 Z " fill="#020202" transform="translate(0,0)"/>
<path d="M0,0 L2,0 L0,8 L-1,10 L4,10 L1,12 L-3,12 L-4,19 L-6,20 L-5,13 L-11,15 L-10,10 L-9,7 L-7,7 L-7,11 L-3,9 Z " fill="#E0E0E0" transform="translate(18,4)"/>
<path d="M0,0 L2,0 L1,5 L3,6 L-2,8 L-1,3 Z " fill="#DCDCDC" transform="translate(9,11)"/>
<path d="M0,0 L4,2 L5,6 L3,10 L2,10 L2,3 L0,2 Z " fill="#ADADAD" transform="translate(10,14)"/>
<path d="M0,0 L2,0 L0,8 L-2,7 L-1,2 Z " fill="#C0C0C0" transform="translate(18,4)"/>
</svg>
