<?xml version="1.0" encoding="UTF-8"?>
<svg version="1.1" xmlns="http://www.w3.org/2000/svg" width="28" height="28">
<path d="M0,0 L28,0 L28,28 L0,28 Z " fill="#030303" transform="translate(0,0)"/>
<path d="M0,0 L3,1 L-1,11 L6,9 L10,2 L12,2 L11,7 L14,8 L10,11 L9,15 L6,15 L6,13 L-4,14 L-3,7 Z " fill="#F1F1F1" transform="translate(11,5)"/>
<path d="M0,0 L2,0 L1,5 L4,6 L0,6 L-2,5 Z " fill="#BFBFBF" transform="translate(21,7)"/>
<path d="M0,0 L3,1 L1,7 L-2,6 Z " fill="#B3B3B3" transform="translate(11,5)"/>
</svg>
