<?xml version="1.0" encoding="UTF-8"?>
<svg version="1.1" xmlns="http://www.w3.org/2000/svg" width="28" height="28">
<path d="M0,0 L28,0 L28,28 L0,28 Z " fill="#030303" transform="translate(0,0)"/>
<path d="M0,0 L2,0 L1,6 L-1,11 L8,9 L12,2 L14,2 L13,8 L15,10 L10,13 L11,16 L7,17 L6,13 L-5,14 L-3,5 Z " fill="#DEDEDE" transform="translate(10,5)"/>
<path d="M0,0 L2,0 L1,6 L-1,11 L5,11 L5,12 L-2,12 L-4,8 Z " fill="#D8D8D8" transform="translate(10,5)"/>
<path d="M0,0 L2,0 L1,6 L-3,7 L-1,1 Z " fill="#BABABA" transform="translate(10,5)"/>
</svg>
