<?xml version="1.0" encoding="UTF-8"?>
<svg version="1.1" xmlns="http://www.w3.org/2000/svg" width="28" height="28">
<path d="M0,0 L28,0 L28,28 L0,28 Z " fill="#030303" transform="translate(0,0)"/>
<path d="M0,0 L2,0 L2,2 L-3,7 L-5,9 L2,10 L4,0 L6,0 L6,7 L5,10 L8,10 L8,13 L2,13 L0,18 L-2,19 L-1,13 L-12,13 L-10,9 L-4,4 L-2,4 Z " fill="#C6C6C6" transform="translate(16,5)"/>
<path d="M0,0 L2,0 L2,2 L-3,7 L-7,9 L-7,11 L0,11 L0,12 L-12,12 L-6,5 L-2,4 Z " fill="#E7E7E7" transform="translate(16,5)"/>
</svg>
