<?xml version="1.0" encoding="UTF-8"?>
<svg version="1.1" xmlns="http://www.w3.org/2000/svg" width="28" height="28">
<path d="M0,0 L28,0 L28,28 L0,28 Z " fill="#020202" transform="translate(0,0)"/>
<path d="M0,0 L1,0 L0,7 L-1,11 L1,11 L0,14 L-3,14 L-4,20 L-6,20 L-5,14 L-12,14 L-13,10 L-6,4 L-4,1 Z " fill="#D0D0D0" transform="translate(19,5)"/>
<path d="M0,0 L2,0 L1,6 L3,6 L2,9 L-1,9 L-2,15 L-4,15 L-3,9 L-10,9 L-9,5 L-2,7 Z " fill="#E3E3E3" transform="translate(17,10)"/>
<path d="M0,0 L1,3 L-1,9 L-6,9 L-6,6 L-1,1 Z " fill="#212121" transform="translate(16,8)"/>
</svg>
