<?xml version="1.0" encoding="UTF-8"?>
<svg version="1.1" xmlns="http://www.w3.org/2000/svg" width="28" height="28">
<path d="M0,0 L28,0 L28,28 L0,28 Z " fill="#030303" transform="translate(0,0)"/>
<path d="M0,0 L5,1 L3,8 L3,14 L0,17 L-3,20 L-2,13 L-13,14 L-11,10 L-2,3 Z " fill="#DADADA" transform="translate(17,5)"/>
<path d="M0,0 L2,1 L0,7 L0,13 L-3,16 L-6,19 L-5,12 L-14,12 L-12,10 L-4,10 Z " fill="#EAEAEA" transform="translate(20,6)"/>
<path d="M0,0 L1,3 L-1,9 L-8,9 L-2,2 Z " fill="#151515" transform="translate(18,7)"/>
<path d="M0,0 L9,2 L9,3 L0,3 L2,5 L-3,5 L-1,1 Z " fill="#BBBBBB" transform="translate(7,14)"/>
</svg>
