<?xml version="1.0" encoding="UTF-8"?>
<svg version="1.1" xmlns="http://www.w3.org/2000/svg" width="28" height="28">
<path d="M0,0 L28,0 L28,28 L0,28 Z " fill="#030303" transform="translate(0,0)"/>
<path d="M0,0 L3,0 L1,10 L5,11 L5,13 L-1,14 L-4,20 L-6,20 L-5,16 L-4,12 L-9,11 L-11,9 Z " fill="#D9D9D9" transform="translate(17,5)"/>
<path d="M0,0 L3,0 L2,7 L0,7 L-1,5 L-5,8 L-7,8 L-7,11 L-11,9 Z " fill="#E9E9E9" transform="translate(17,5)"/>
<path d="M0,0 L1,3 L-1,6 L-5,5 Z " fill="#1C1C1C" transform="translate(16,9)"/>
</svg>
