<?xml version="1.0" encoding="UTF-8"?>
<svg version="1.1" xmlns="http://www.w3.org/2000/svg" width="28" height="28">
<path d="M0,0 L28,0 L28,28 L0,28 Z " fill="#030303" transform="translate(0,0)"/>
<path d="M0,0 L0,3 L-4,7 L0,9 L1,6 L2,10 L5,11 L1,12 L-1,18 L-3,18 L-2,13 L-1,11 L-11,10 L-10,7 Z " fill="#E5E5E5" transform="translate(16,7)"/>
<path d="M0,0 L1,0 L1,12 L-1,12 L-2,9 L-3,11 L-8,10 L-2,2 Z " fill="#BDBDBD" transform="translate(19,5)"/>
<path d="M0,0 L2,0 L1,6 L-4,5 Z " fill="#181818" transform="translate(15,10)"/>
</svg>
