<?xml version="1.0" encoding="UTF-8"?>
<svg version="1.1" xmlns="http://www.w3.org/2000/svg" width="28" height="28">
<path d="M0,0 L28,0 L28,28 L0,28 Z " fill="#040404" transform="translate(0,0)"/>
<path d="M0,0 L3,1 L1,8 L-3,14 L-5,14 L-7,19 L-10,20 L-9,16 L-7,13 L-17,14 L-16,8 L-9,3 L-8,1 L-6,1 L-7,5 L-11,9 L-13,9 L-13,11 L-4,10 Z " fill="#E8E8E8" transform="translate(22,5)"/>
<path d="M0,0 L3,1 L1,8 L-3,9 Z " fill="#CACACA" transform="translate(22,5)"/>
<path d="M0,0 L4,0 L5,4 L2,8 L0,8 L1,4 L3,1 Z " fill="#CECECE" transform="translate(12,17)"/>
</svg>
