<?xml version="1.0" encoding="UTF-8"?>
<svg version="1.1" xmlns="http://www.w3.org/2000/svg" width="28" height="28">
<path d="M0,0 L28,0 L28,28 L0,28 Z " fill="#020202" transform="translate(0,0)"/>
<path d="M0,0 L1,4 L-10,20 L-11,20 L-11,15 L-10,12 L-14,10 L-12,6 L-9,3 L-7,3 L-8,7 L-9,9 L-6,8 Z " fill="#EBEBEB" transform="translate(21,5)"/>
<path d="M0,0 L2,0 L1,4 L-5,7 L-3,3 Z " fill="#D6D6D6" transform="translate(12,8)"/>
<path d="M0,0 L1,2 L3,3 L0,7 L-3,6 Z " fill="#292929" transform="translate(14,8)"/>
</svg>
