<?xml version="1.0" encoding="UTF-8"?>
<svg version="1.1" xmlns="http://www.w3.org/2000/svg" width="28" height="28">
<path d="M0,0 L28,0 L28,28 L0,28 Z " fill="#020202" transform="translate(0,0)"/>
<path d="M0,0 L1,0 L0,9 L5,9 L5,11 L-1,11 L-1,19 L-3,20 L-3,11 L-13,11 L-12,8 L-4,3 Z " fill="#DCDCDC" transform="translate(18,5)"/>
<path d="M0,0 L1,0 L0,9 L-8,9 L-4,4 Z " fill="#C4C4C4" transform="translate(18,5)"/>
<path d="M0,0 L1,2 L0,5 L-6,5 L-2,1 Z " fill="#212121" transform="translate(16,9)"/>
</svg>
