<?xml version="1.0" encoding="UTF-8"?>
<svg version="1.1" xmlns="http://www.w3.org/2000/svg" width="28" height="28">
<path d="M0,0 L28,0 L28,28 L0,28 Z " fill="#040404" transform="translate(0,0)"/>
<path d="M0,0 L1,0 L3,14 L5,20 L2,19 L1,14 L-8,15 L-13,10 L-14,8 L-14,1 L-11,1 L-10,9 L-8,11 L-1,12 L-2,4 Z " fill="#DFDFDF" transform="translate(19,5)"/>
<path d="M0,0 L9,2 L9,5 L4,5 L0,2 Z " fill="#C7C7C7" transform="translate(7,15)"/>
<path d="M0,0 L1,0 L1,9 L-2,9 L-1,1 Z " fill="#CACACA" transform="translate(19,5)"/>
<path d="M0,0 L3,0 L2,4 L-5,5 L-2,3 L0,3 Z " fill="#F9F9F9" transform="translate(18,14)"/>
</svg>
