<?xml version="1.0" encoding="UTF-8"?>
<svg version="1.1" xmlns="http://www.w3.org/2000/svg" width="28" height="28">
<path d="M0,0 L28,0 L28,28 L0,28 Z " fill="#020202" transform="translate(0,0)"/>
<path d="M0,0 L2,0 L2,2 L-4,6 L-9,10 L-16,18 L-16,15 L-13,11 L-18,11 L-17,7 L-12,4 L-14,8 L-9,7 Z " fill="#ACACAC" transform="translate(25,6)"/>
<path d="M0,0 L0,3 L-3,4 L-3,6 L1,7 L-5,7 L-4,3 Z " fill="#D9D9D9" transform="translate(12,10)"/>
<path d="M0,0 L2,0 L2,2 L-4,6 L-7,7 L-6,4 Z " fill="#C7C7C7" transform="translate(25,6)"/>
</svg>
