<?xml version="1.0" encoding="UTF-8"?>
<svg version="1.1" xmlns="http://www.w3.org/2000/svg" width="28" height="28">
<path d="M0,0 L28,0 L28,28 L0,28 Z " fill="#010101" transform="translate(0,0)"/>
<path d="M0,0 L2,0 L4,6 L4,10 L10,10 L10,12 L5,12 L5,20 L2,20 L2,13 L0,14 L-7,14 L-8,9 Z " fill="#C0C0C0" transform="translate(14,5)"/>
<path d="M0,0 L2,0 L3,8 L1,8 L1,4 L-4,9 L-6,12 L1,12 L0,14 L-7,14 L-8,9 Z " fill="#E0E0E0" transform="translate(14,5)"/>
<path d="M0,0 L2,0 L3,7 L-5,7 Z " fill="#121212" transform="translate(13,9)"/>
</svg>
