<?xml version="1.0" encoding="UTF-8"?>
<svg version="1.1" xmlns="http://www.w3.org/2000/svg" width="28" height="28">
<path d="M0,0 L28,0 L28,28 L0,28 Z " fill="#020202" transform="translate(0,0)"/>
<path d="M0,0 L2,0 L1,5 L-3,12 L0,11 L0,13 L-5,14 L-7,20 L-8,17 L-7,14 L-11,16 L-10,12 L-6,4 L-5,7 L-7,13 L-5,13 L-3,7 Z " fill="#D0D0D0" transform="translate(19,4)"/>
<path d="M0,0 L3,0 L2,5 L-3,7 L-1,2 Z " fill="#393939" transform="translate(19,9)"/>
<path d="M0,0 L2,0 L3,6 L1,10 L-1,10 Z " fill="#2A2A2A" transform="translate(13,7)"/>
</svg>
