<?xml version="1.0" encoding="UTF-8"?>
<svg version="1.1" xmlns="http://www.w3.org/2000/svg" width="28" height="28">
<path d="M0,0 L28,0 L28,28 L0,28 Z " fill="#010101" transform="translate(0,0)"/>
<path d="M0,0 L3,0 L1,7 L4,8 L5,1 L8,1 L8,10 L6,17 L5,20 L2,20 L2,13 L3,10 L-4,12 L-4,8 Z " fill="#E0E0E0" transform="translate(12,6)"/>
<path d="M0,0 L4,0 L3,7 L0,7 Z " fill="#C7C7C7" transform="translate(14,19)"/>
<path d="M0,0 L1,0 L0,7 L-4,6 L-2,1 Z " fill="#2E2E2E" transform="translate(16,7)"/>
</svg>
