<?xml version="1.0" encoding="UTF-8"?>
<svg version="1.1" xmlns="http://www.w3.org/2000/svg" width="28" height="28">
<path d="M0,0 L28,0 L28,28 L0,28 Z " fill="#020202" transform="translate(0,0)"/>
<path d="M0,0 L2,0 L1,6 L-2,20 L-4,20 L-3,12 L-8,13 L-9,12 L-9,1 L-7,1 L-6,10 L-2,6 Z " fill="#E1E1E1" transform="translate(18,6)"/>
<path d="M0,0 L2,0 L3,9 L7,10 L6,12 L1,12 L0,11 Z " fill="#BDBDBD" transform="translate(9,7)"/>
<path d="M0,0 L2,0 L1,6 L-3,9 Z " fill="#C0C0C0" transform="translate(18,6)"/>
</svg>
