<?xml version="1.0" encoding="UTF-8"?>
<svg version="1.1" xmlns="http://www.w3.org/2000/svg" width="28" height="28">
<path d="M0,0 L28,0 L28,28 L0,28 Z " fill="#020202" transform="translate(0,0)"/>
<path d="M0,0 L2,0 L2,7 L1,11 L6,10 L4,13 L1,13 L2,19 L-1,20 L-2,15 L-10,15 L-9,10 L-5,2 L-3,2 L-4,7 L-6,12 L-1,12 Z " fill="#D0D0D0" transform="translate(17,4)"/>
<path d="M0,0 L2,0 L1,5 L-1,10 L3,11 L-2,11 L-3,6 Z " fill="#B1B1B1" transform="translate(12,6)"/>
<path d="M0,0 L2,1 L3,6 L0,7 L-1,2 L-6,2 L-6,1 Z " fill="#B1B1B1" transform="translate(16,17)"/>
<path d="M0,0 L2,2 L2,5 L-3,5 L-3,2 Z " fill="#1C1C1C" transform="translate(14,11)"/>
</svg>
