<?xml version="1.0" encoding="UTF-8"?>
<svg version="1.1" xmlns="http://www.w3.org/2000/svg" width="28" height="28">
<path d="M0,0 L28,0 L28,28 L0,28 Z " fill="#030303" transform="translate(0,0)"/>
<path d="M0,0 L3,1 L5,3 L5,11 L6,12 L6,18 L8,18 L8,20 L3,18 L2,17 L2,11 L-2,10 L-9,5 L-9,2 L-5,3 L-3,4 L-3,6 L-1,6 L-1,1 Z " fill="#E6E6E6" transform="translate(13,5)"/>
<path d="M0,0 L3,1 L4,5 L1,5 L1,8 L-1,8 L-2,10 L-9,5 L-9,2 L-5,3 L-3,4 L-3,6 L-1,6 L-1,1 Z " fill="#D9D9D9" transform="translate(13,5)"/>
<path d="M0,0 L3,1 L4,5 L1,5 L1,8 L-2,8 L-1,1 Z " fill="#AEAEAE" transform="translate(13,5)"/>
</svg>
