<?xml version="1.0" encoding="UTF-8"?>
<svg version="1.1" xmlns="http://www.w3.org/2000/svg" width="28" height="28">
<path d="M0,0 L28,0 L28,28 L0,28 Z " fill="#010101" transform="translate(0,0)"/>
<path d="M0,0 L3,0 L2,5 L-2,10 L-3,13 L-5,13 L-7,18 L-9,20 L-12,20 L-10,15 L-9,13 L-16,12 L-15,8 L-9,3 L-8,6 L-10,9 L-5,8 L-4,6 L-2,6 Z " fill="#D5D5D5" transform="translate(21,5)"/>
<path d="M0,0 L2,1 L0,5 L-2,5 L-6,9 L-5,5 Z " fill="#BABABA" transform="translate(11,8)"/>
<path d="M0,0 L1,3 L0,4 L3,6 L-4,6 L-2,2 Z " fill="#F5F5F5" transform="translate(10,11)"/>
</svg>
