<?xml version="1.0" encoding="UTF-8"?>
<svg version="1.1" xmlns="http://www.w3.org/2000/svg" width="28" height="28">
<path d="M0,0 L28,0 L28,28 L0,28 Z " fill="#030303" transform="translate(0,0)"/>
<path d="M0,0 L1,4 L-1,11 L-5,13 L-8,19 L-12,20 L-10,14 L-9,12 L-15,11 L-14,7 L-9,1 L-6,1 L-8,5 L-10,9 L-5,8 Z " fill="#EBEBEB" transform="translate(22,5)"/>
<path d="M0,0 L3,0 L1,4 L-2,8 L-6,7 Z " fill="#C8C8C8" transform="translate(13,6)"/>
<path d="M0,0 L1,4 L-1,11 L-2,11 L-3,4 Z " fill="#CACACA" transform="translate(22,5)"/>
</svg>
