<?xml version="1.0" encoding="UTF-8"?>
<svg version="1.1" xmlns="http://www.w3.org/2000/svg" width="28" height="28">
<path d="M0,0 L28,0 L28,28 L0,28 Z " fill="#010101" transform="translate(0,0)"/>
<path d="M0,0 L3,1 L5,11 L9,11 L9,14 L6,16 L6,20 L4,20 L3,15 L-2,15 L-1,1 Z " fill="#D0D0D0" transform="translate(12,4)"/>
<path d="M0,0 L3,1 L4,8 L1,7 L1,12 L0,12 Z " fill="#F2F2F2" transform="translate(12,4)"/>
<path d="M0,0 L6,0 L6,2 L3,4 L3,8 L1,8 L-1,1 Z " fill="#EDEDED" transform="translate(15,16)"/>
<path d="M0,0 L4,2 L4,4 L8,5 L0,5 Z " fill="#A0A0A0" transform="translate(13,11)"/>
</svg>
