<?xml version="1.0" encoding="UTF-8"?>
<svg version="1.1" xmlns="http://www.w3.org/2000/svg" width="28" height="28">
<path d="M0,0 L28,0 L28,28 L0,28 Z " fill="#020202" transform="translate(0,0)"/>
<path d="M0,0 L4,0 L4,9 L4,13 L-1,16 L-5,20 L-9,20 L-9,18 L-4,16 L-4,13 L-8,12 L-7,7 L-3,2 Z " fill="#DADADA" transform="translate(16,5)"/>
<path d="M0,0 L4,0 L4,6 L2,6 L3,2 L-2,6 L-5,11 L-1,12 L-3,14 L-8,12 L-7,7 L-3,2 Z " fill="#EEEEEE" transform="translate(16,5)"/>
<path d="M0,0 L2,0 L1,6 L-1,6 L-1,9 L-6,9 L-4,4 Z " fill="#1E1E1E" transform="translate(17,7)"/>
<path d="M0,0 L2,1 L-2,9 L-4,5 Z " fill="#C8C8C8" transform="translate(13,7)"/>
</svg>
