<?xml version="1.0" encoding="UTF-8"?>
<svg version="1.1" xmlns="http://www.w3.org/2000/svg" width="28" height="28">
<path d="M0,0 L28,0 L28,28 L0,28 Z " fill="#020202" transform="translate(0,0)"/>
<path d="M0,0 L4,0 L3,11 L5,12 L2,14 L2,19 L-2,19 L-1,14 L-6,14 L-7,13 L-7,6 L-5,2 L-2,2 L-3,6 L-5,12 L-1,11 L0,3 Z " fill="#E3E3E3" transform="translate(15,5)"/>
<path d="M0,0 L3,0 L2,4 L0,6 L-2,6 Z " fill="#BEBEBE" transform="translate(10,7)"/>
<path d="M0,0 L4,0 L4,6 L1,5 Z " fill="#C8C8C8" transform="translate(15,5)"/>
</svg>
