<?xml version="1.0" encoding="UTF-8"?>
<svg version="1.1" xmlns="http://www.w3.org/2000/svg" width="28" height="28">
<path d="M0,0 L28,0 L28,28 L0,28 Z " fill="#050505" transform="translate(0,0)"/>
<path d="M0,0 L2,0 L1,4 L-3,11 L2,10 L5,2 L8,1 L7,6 L6,9 L9,11 L4,13 L1,20 L-1,20 L0,14 L-6,13 L-5,8 Z " fill="#DEDEDE" transform="translate(13,5)"/>
<path d="M0,0 L2,2 L1,10 L0,11 L-5,11 L-3,6 Z " fill="#1C1C1C" transform="translate(15,5)"/>
<path d="M0,0 L2,0 L1,5 L-1,8 L-2,2 Z " fill="#C4C4C4" transform="translate(19,6)"/>
</svg>
