<?xml version="1.0" encoding="UTF-8"?>
<svg version="1.1" xmlns="http://www.w3.org/2000/svg" width="28" height="28">
<path d="M0,0 L28,0 L28,28 L0,28 Z " fill="#020202" transform="translate(0,0)"/>
<path d="M0,0 L2,0 L1,8 L6,8 L7,1 L10,0 L9,4 L8,7 L11,7 L11,9 L8,9 L8,20 L6,20 L5,18 L5,10 L-2,10 L-1,2 Z " fill="#CBCBCB" transform="translate(10,6)"/>
<path d="M0,0 L2,0 L1,4 L0,7 L3,7 L3,9 L-1,8 L-2,3 Z " fill="#C0C0C0" transform="translate(18,6)"/>
<path d="M0,0 L2,3 L1,8 L-1,7 L-1,3 L-5,2 L0,2 Z " fill="#FCFCFC" transform="translate(16,12)"/>
</svg>
