<?xml version="1.0" encoding="UTF-8"?>
<svg version="1.1" xmlns="http://www.w3.org/2000/svg" width="28" height="28">
<path d="M0,0 L28,0 L28,28 L0,28 Z " fill="#020202" transform="translate(0,0)"/>
<path d="M0,0 L3,0 L3,9 L9,7 L8,10 L2,12 L-1,20 L-4,20 L-3,12 L-9,12 L-8,7 Z " fill="#D0D0D0" transform="translate(15,6)"/>
<path d="M0,0 L1,3 L3,4 L1,5 L-2,13 L-5,13 L-4,5 L-8,4 L-4,3 L-2,1 L-2,3 L0,3 Z " fill="#CDCDCD" transform="translate(16,13)"/>
<path d="M0,0 L1,3 L3,4 L-2,6 L-8,5 L-4,3 L-2,1 L-2,3 L0,3 Z " fill="#F9F9F9" transform="translate(16,13)"/>
<path d="M0,0 L1,2 L0,6 L-5,6 L-3,2 Z " fill="#1C1C1C" transform="translate(13,10)"/>
</svg>
