<?xml version="1.0" encoding="UTF-8"?>
<svg version="1.1" xmlns="http://www.w3.org/2000/svg" width="28" height="28">
<path d="M0,0 L28,0 L28,28 L0,28 Z " fill="#040404" transform="translate(0,0)"/>
<path d="M0,0 L1,0 L1,6 L-1,10 L8,11 L9,3 L11,3 L10,11 L6,19 L4,18 L6,13 L-7,15 L-5,11 L-2,5 Z " fill="#D4D4D4" transform="translate(12,4)"/>
<path d="M0,0 L1,0 L1,6 L-1,10 L0,12 L-4,11 L-1,1 Z " fill="#C1C1C1" transform="translate(12,4)"/>
<path d="M0,0 L5,1 L5,3 L-2,4 Z " fill="#EBEBEB" transform="translate(7,15)"/>
</svg>
