<?xml version="1.0" encoding="UTF-8"?>
<svg version="1.1" xmlns="http://www.w3.org/2000/svg" width="28" height="28">
<path d="M0,0 L28,0 L28,28 L0,28 Z " fill="#020202" transform="translate(0,0)"/>
<path d="M0,0 L2,0 L2,7 L1,11 L7,9 L10,3 L13,3 L14,19 L11,19 L9,11 L4,14 L-1,13 L-2,7 Z " fill="#CECECE" transform="translate(8,5)"/>
<path d="M0,0 L3,0 L4,16 L1,16 L0,6 L-1,3 Z " fill="#F2F2F2" transform="translate(18,8)"/>
<path d="M0,0 L1,0 L2,12 L-1,12 L-1,5 Z " fill="#D2D2D2" transform="translate(20,12)"/>
<path d="M0,0 L3,1 L2,4 L-3,6 L-6,4 L-1,2 Z " fill="#AFAFAF" transform="translate(16,12)"/>
<path d="M0,0 L2,3 L5,5 L0,6 L-1,2 Z " fill="#EAEAEA" transform="translate(8,13)"/>
</svg>
