<?xml version="1.0" encoding="UTF-8"?>
<svg version="1.1" xmlns="http://www.w3.org/2000/svg" width="28" height="28">
<path d="M0,0 L28,0 L28,28 L0,28 Z " fill="#020202" transform="translate(0,0)"/>
<path d="M0,0 L2,0 L0,8 L5,9 L4,11 L-2,12 L-6,20 L-8,20 L-7,15 L-6,12 L-13,11 L-12,7 L-9,1 L-7,1 L-8,8 L-4,7 Z " fill="#BDBDBD" transform="translate(19,5)"/>
<path d="M0,0 L2,0 L1,6 L0,8 L3,9 L-3,9 L-2,5 Z " fill="#EAEAEA" transform="translate(10,6)"/>
<path d="M0,0 L2,0 L-1,9 L-3,8 L-2,3 Z " fill="#E5E5E5" transform="translate(19,5)"/>
<path d="M0,0 L1,3 L-1,7 L-3,7 L-2,2 Z " fill="#E7E7E7" transform="translate(14,18)"/>
</svg>
