<?xml version="1.0" encoding="UTF-8"?>
<svg version="1.1" xmlns="http://www.w3.org/2000/svg" width="28" height="28">
<path d="M0,0 L28,0 L28,28 L0,28 Z " fill="#040404" transform="translate(0,0)"/>
<path d="M0,0 L4,1 L7,5 L7,12 L6,14 L10,16 L10,19 L4,17 L0,20 L-5,19 L-6,18 L-6,12 L-5,11 L4,12 L3,4 L0,4 L-1,6 L-4,6 L-2,1 Z " fill="#EDEDED" transform="translate(13,3)"/>
<path d="M0,0 L4,1 L7,5 L7,12 L4,10 L3,4 L0,4 L-1,6 L-4,6 L-2,1 Z " fill="#E0E0E0" transform="translate(13,3)"/>
<path d="M0,0 L6,0 L7,5 L6,6 L1,6 L-1,4 Z " fill="#888888" transform="translate(8,14)"/>
</svg>
