<?xml version="1.0" encoding="UTF-8"?>
<svg version="1.1" xmlns="http://www.w3.org/2000/svg" width="28" height="28">
<path d="M0,0 L28,0 L28,28 L0,28 Z " fill="#020202" transform="translate(0,0)"/>
<path d="M0,0 L7,1 L11,6 L10,13 L14,15 L6,17 L0,20 L-4,19 L-3,14 L7,11 L8,4 L-1,2 Z " fill="#D9D9D9" transform="translate(10,3)"/>
<path d="M0,0 L1,2 L-2,2 L-4,6 L-9,7 L-10,3 Z " fill="#838383" transform="translate(17,14)"/>
<path d="M0,0 L7,1 L11,6 L11,11 L8,10 L8,4 L-1,2 Z " fill="#BCBCBC" transform="translate(10,3)"/>
</svg>
