<?xml version="1.0" encoding="UTF-8"?>
<svg version="1.1" xmlns="http://www.w3.org/2000/svg" width="28" height="28">
<path d="M0,0 L28,0 L28,28 L0,28 Z " fill="#030303" transform="translate(0,0)"/>
<path d="M0,0 L8,1 L11,2 L10,13 L13,15 L12,18 L10,16 L6,15 L4,19 L-1,20 L-2,15 L-1,13 L7,11 L9,3 L-2,3 L-2,5 L-4,5 L-2,1 Z " fill="#D4D4D4" transform="translate(10,4)"/>
<path d="M0,0 L7,0 L6,5 L3,7 L-1,6 Z " fill="#A4A4A4" transform="translate(9,17)"/>
<path d="M0,0 L6,0 L11,3 L10,6 L8,4 L4,3 L4,1 Z " fill="#BEBEBE" transform="translate(12,16)"/>
</svg>
