<?xml version="1.0" encoding="UTF-8"?>
<svg version="1.1" xmlns="http://www.w3.org/2000/svg" width="28" height="28">
<path d="M0,0 L28,0 L28,28 L0,28 Z " fill="#030303" transform="translate(0,0)"/>
<path d="M0,0 L3,0 L2,7 L-2,12 L-3,20 L-5,20 L-5,16 L-8,19 L-15,19 L-14,14 L-8,11 L-2,5 L-7,9 L-9,9 L-7,5 L-3,1 Z " fill="#5B5B5B" transform="translate(20,3)"/>
<path d="M0,0 L6,0 L6,8 L4,8 L4,4 L1,7 L-6,7 L-5,2 Z " fill="#EBEBEB" transform="translate(11,15)"/>
<path d="M0,0 L3,1 L2,4 L-5,5 L-6,7 L-5,2 Z " fill="#A7A7A7" transform="translate(11,15)"/>
<path d="M0,0 L3,1 L3,3 L-3,8 L-5,8 L-3,4 Z " fill="#DFDFDF" transform="translate(16,4)"/>
</svg>
