<?xml version="1.0" encoding="UTF-8"?>
<svg version="1.1" xmlns="http://www.w3.org/2000/svg" width="28" height="28">
<path d="M0,0 L28,0 L28,28 L0,28 Z " fill="#030303" transform="translate(0,0)"/>
<path d="M0,0 L5,1 L7,3 L7,9 L5,13 L9,11 L8,15 L-3,18 L-7,20 L-11,19 L-10,14 L-7,11 L1,11 L3,7 L3,4 L-4,5 L-5,2 Z " fill="#E4E4E4" transform="translate(15,4)"/>
<path d="M0,0 L4,1 L1,2 L0,6 L-4,5 L-4,1 Z " fill="#8F8F8F" transform="translate(8,18)"/>
<path d="M0,0 L5,2 L4,4 L0,4 L-2,6 L-3,3 Z " fill="#D2D2D2" transform="translate(8,15)"/>
</svg>
