<?xml version="1.0" encoding="UTF-8"?>
<svg version="1.1" xmlns="http://www.w3.org/2000/svg" width="28" height="28">
<path d="M0,0 L28,0 L28,28 L0,28 Z " fill="#020202" transform="translate(0,0)"/>
<path d="M0,0 L5,1 L7,5 L5,9 L9,10 L9,12 L-3,15 L-10,15 L-11,11 L-9,8 L0,9 L4,3 L-5,5 L-5,1 Z " fill="#DEDEDE" transform="translate(15,6)"/>
<path d="M0,0 L5,1 L7,5 L5,7 L4,3 L-5,5 L-5,1 Z " fill="#E1E1E1" transform="translate(15,6)"/>
<path d="M0,0 L5,1 L5,5 L0,5 L-1,1 Z " fill="#909090" transform="translate(6,14)"/>
</svg>
