<?xml version="1.0" encoding="UTF-8"?>
<svg version="1.1" xmlns="http://www.w3.org/2000/svg" width="28" height="28">
<path d="M0,0 L28,0 L28,28 L0,28 Z " fill="#030303" transform="translate(0,0)"/>
<path d="M0,0 L5,0 L5,2 L7,2 L7,14 L15,17 L15,18 L3,17 L0,20 L-5,20 L-4,16 L-1,14 L3,14 L3,3 L-2,3 Z " fill="#F3F3F3" transform="translate(11,3)"/>
<path d="M0,0 L3,1 L1,6 L-4,6 L-3,2 Z " fill="#BCBCBC" transform="translate(10,17)"/>
<path d="M0,0 L5,0 L5,2 L7,2 L7,4 L5,4 L5,10 L4,10 L3,3 L-2,3 Z " fill="#B8B8B8" transform="translate(11,3)"/>
<path d="M0,0 L4,3 L10,5 L10,6 L1,5 L-1,4 Z " fill="#D8D8D8" transform="translate(16,15)"/>
</svg>
