<?xml version="1.0" encoding="UTF-8"?>
<svg version="1.1" xmlns="http://www.w3.org/2000/svg" width="28" height="28">
<path d="M0,0 L28,0 L28,28 L0,28 Z " fill="#030303" transform="translate(0,0)"/>
<path d="M0,0 L3,1 L2,8 L-1,11 L-1,18 L-4,18 L-4,15 L-15,19 L-17,19 L-16,15 L-15,17 L-8,13 L-13,13 L-13,11 L-10,9 L-3,9 L-1,6 L-2,2 Z " fill="#D7D7D7" transform="translate(20,4)"/>
<path d="M0,0 L1,2 L3,3 L-8,7 L-10,7 L-9,3 L-8,5 Z " fill="#C7C7C7" transform="translate(13,16)"/>
<path d="M0,0 L4,1 L-2,5 L-4,5 L-4,1 Z " fill="#2E2E2E" transform="translate(9,16)"/>
<path d="M0,0 L3,1 L3,5 L1,5 L1,3 L-1,3 L-2,6 L-1,1 Z " fill="#F3F3F3" transform="translate(20,4)"/>
</svg>
