<?xml version="1.0" encoding="UTF-8"?>
<svg version="1.1" xmlns="http://www.w3.org/2000/svg" width="28" height="28">
<path d="M0,0 L28,0 L28,28 L0,28 Z " fill="#050505" transform="translate(0,0)"/>
<path d="M0,0 L5,1 L3,10 L-1,14 L0,18 L3,17 L2,20 L-2,19 L-3,17 L-7,18 L-10,20 L-13,20 L-12,15 L-10,13 L-3,11 L-1,7 L2,4 L3,2 L-2,5 L-5,5 L-3,1 Z " fill="#E1E1E1" transform="translate(17,3)"/>
<path d="M0,0 L7,2 L2,6 L-3,7 L-2,2 Z " fill="#D1D1D1" transform="translate(7,16)"/>
<path d="M0,0 L3,1 L2,4 L-3,5 L-1,1 Z " fill="#969696" transform="translate(7,16)"/>
</svg>
