<?xml version="1.0" encoding="UTF-8"?>
<svg version="1.1" xmlns="http://www.w3.org/2000/svg" width="28" height="28">
<path d="M0,0 L28,0 L28,28 L0,28 Z " fill="#040404" transform="translate(0,0)"/>
<path d="M0,0 L5,2 L4,7 L0,11 L0,18 L-2,18 L-2,14 L-11,20 L-13,20 L-12,15 L-8,12 L-1,9 L3,3 L-1,5 L-4,5 L-3,2 Z " fill="#D8D8D8" transform="translate(18,4)"/>
<path d="M0,0 L5,2 L4,7 L0,9 L3,3 L-1,5 L-4,5 L-3,2 Z " fill="#DCDCDC" transform="translate(18,4)"/>
<path d="M0,0 L1,3 L-4,7 L-6,7 L-5,2 Z " fill="#B2B2B2" transform="translate(11,17)"/>
</svg>
