<?xml version="1.0" encoding="UTF-8"?>
<svg version="1.1" xmlns="http://www.w3.org/2000/svg" width="28" height="28">
<path d="M0,0 L28,0 L28,28 L0,28 Z " fill="#030303" transform="translate(0,0)"/>
<path d="M0,0 L4,1 L5,7 L13,7 L13,8 L5,10 L1,15 L-2,14 L3,9 L1,8 L3,8 L2,3 L0,3 L-3,6 L-1,1 Z " fill="#D7D7D7" transform="translate(12,6)"/>
<path d="M0,0 L4,1 L2,5 L0,8 L-4,7 L-3,2 Z " fill="#A7A7A7" transform="translate(11,14)"/>
<path d="M0,0 L0,3 L-2,5 L-6,4 L-3,1 Z " fill="#181818" transform="translate(14,15)"/>
</svg>
