<?xml version="1.0" encoding="UTF-8"?>
<svg version="1.1" xmlns="http://www.w3.org/2000/svg" width="28" height="28">
<path d="M0,0 L28,0 L28,28 L0,28 Z " fill="#010101" transform="translate(0,0)"/>
<path d="M0,0 L6,0 L11,3 L11,9 L5,16 L10,19 L10,20 L-1,20 L-3,19 L-2,16 L5,12 L7,10 L7,4 L0,1 Z " fill="#E5E5E5" transform="translate(9,3)"/>
<path d="M0,0 L6,0 L11,3 L9,4 L9,9 L8,9 L6,3 L0,1 Z " fill="#B7B7B7" transform="translate(9,3)"/>
<path d="M0,0 L5,0 L7,3 L-4,3 L0,2 Z " fill="#B7B7B7" transform="translate(12,20)"/>
</svg>
