<?xml version="1.0" encoding="UTF-8"?>
<svg version="1.1" xmlns="http://www.w3.org/2000/svg" width="28" height="28">
<path d="M0,0 L28,0 L28,28 L0,28 Z " fill="#020202" transform="translate(0,0)"/>
<path d="M0,0 L4,2 L7,7 L7,15 L10,15 L10,18 L4,18 L0,20 L-7,19 L-6,14 L-4,12 L5,13 L3,6 L0,3 Z " fill="#CCCCCC" transform="translate(12,2)"/>
<path d="M0,0 L6,0 L6,3 L-1,4 Z " fill="#1D1D1D" transform="translate(8,16)"/>
<path d="M0,0 L4,2 L7,7 L7,12 L5,9 L2,4 L0,3 Z " fill="#E3E3E3" transform="translate(12,2)"/>
</svg>
