<?xml version="1.0" encoding="UTF-8"?>
<svg version="1.1" xmlns="http://www.w3.org/2000/svg" width="28" height="28">
<path d="M0,0 L28,0 L28,28 L0,28 Z " fill="#030303" transform="translate(0,0)"/>
<path d="M0,0 L4,1 L5,2 L5,16 L6,18 L1,19 L-1,20 L-7,20 L-8,15 L-7,14 L2,14 L2,3 L0,2 L-1,5 L-2,3 Z " fill="#DBDBDB" transform="translate(15,2)"/>
<path d="M0,0 L4,1 L5,2 L5,16 L6,18 L1,17 L2,12 L2,3 L0,2 L-1,5 L-2,3 Z " fill="#D7D7D7" transform="translate(15,2)"/>
<path d="M0,0 L4,1 L5,5 L3,9 L2,3 L0,2 L-1,5 L-2,3 Z " fill="#BEBEBE" transform="translate(15,2)"/>
<path d="M0,0 L5,0 L6,2 L-1,3 Z " fill="#1C1C1C" transform="translate(9,17)"/>
</svg>
