<?xml version="1.0" encoding="UTF-8"?>
<svg version="1.1" xmlns="http://www.w3.org/2000/svg" width="28" height="28">
<path d="M0,0 L28,0 L28,28 L0,28 Z " fill="#030303" transform="translate(0,0)"/>
<path d="M0,0 L4,1 L6,3 L7,17 L3,18 L1,20 L-4,19 L-5,13 L-3,11 L4,12 L3,2 L-1,1 Z " fill="#DCDCDC" transform="translate(13,3)"/>
<path d="M0,0 L5,1 L4,5 L0,4 Z " fill="#171717" transform="translate(10,16)"/>
<path d="M0,0 L4,1 L6,5 L5,11 L4,11 L3,2 L-1,1 Z " fill="#B6B6B6" transform="translate(13,3)"/>
</svg>
