<?xml version="1.0" encoding="UTF-8"?>
<svg version="1.1" xmlns="http://www.w3.org/2000/svg" width="28" height="28">
<path d="M0,0 L28,0 L28,28 L0,28 Z " fill="#030303" transform="translate(0,0)"/>
<path d="M0,0 L5,1 L7,2 L8,5 L8,15 L7,17 L9,17 L9,19 L-2,20 L-6,16 L-5,11 L2,12 L5,13 L5,6 L3,3 L-1,3 Z " fill="#E3E3E3" transform="translate(12,3)"/>
<path d="M0,0 L7,1 L8,6 L3,7 L-1,5 Z " fill="#D2D2D2" transform="translate(7,14)"/>
<path d="M0,0 L6,2 L6,4 L1,5 Z " fill="#252525" transform="translate(9,16)"/>
</svg>
