<?xml version="1.0" encoding="UTF-8"?>
<svg version="1.1" xmlns="http://www.w3.org/2000/svg" width="28" height="28">
<path d="M0,0 L28,0 L28,28 L0,28 Z " fill="#040404" transform="translate(0,0)"/>
<path d="M0,0 L5,1 L10,6 L10,13 L8,18 L12,19 L7,20 L-1,20 L-6,16 L-7,12 L-2,11 L5,15 L7,12 L7,6 L0,2 Z " fill="#EAEAEA" transform="translate(11,2)"/>
<path d="M0,0 L5,1 L10,6 L7,6 L0,2 Z " fill="#DFDFDF" transform="translate(11,2)"/>
<path d="M0,0 L6,3 L6,5 L1,4 Z " fill="#262626" transform="translate(7,15)"/>
<path d="M0,0 L2,1 L3,5 L5,7 L2,7 L-1,3 Z " fill="#CECECE" transform="translate(5,13)"/>
</svg>
