<?xml version="1.0" encoding="UTF-8"?>
<svg version="1.1" xmlns="http://www.w3.org/2000/svg" width="28" height="28">
<path d="M0,0 L28,0 L28,28 L0,28 Z " fill="#030303" transform="translate(0,0)"/>
<path d="M0,0 L5,0 L9,4 L11,10 L8,17 L5,20 L0,20 L-1,19 L-1,14 L5,10 L8,10 L6,5 L3,4 L-4,5 L-4,2 Z " fill="#E5E5E5" transform="translate(10,5)"/>
<path d="M0,0 L5,0 L4,4 L2,9 L-3,9 L-4,8 L-4,3 Z " fill="#D3D3D3" transform="translate(13,16)"/>
<path d="M0,0 L2,0 L1,4 L-4,5 Z " fill="#232323" transform="translate(15,17)"/>
</svg>
