<?xml version="1.0" encoding="UTF-8"?>
<svg version="1.1" xmlns="http://www.w3.org/2000/svg" width="28" height="28">
<path d="M0,0 L28,0 L28,28 L0,28 Z " fill="#030303" transform="translate(0,0)"/>
<path d="M0,0 L7,0 L5,5 L-5,13 L-7,14 L2,14 L2,18 L-13,18 L-12,13 L0,5 L3,3 L-2,4 L-8,5 L-8,2 Z " fill="#EAEAEA" transform="translate(17,5)"/>
<path d="M0,0 L11,0 L11,4 L-4,4 L0,2 Z " fill="#C5C5C5" transform="translate(8,19)"/>
<path d="M0,0 L2,1 L2,3 L-3,6 L-7,5 Z " fill="#CECECE" transform="translate(14,12)"/>
</svg>
