<?xml version="1.0" encoding="UTF-8"?>
<svg version="1.1" xmlns="http://www.w3.org/2000/svg" width="28" height="28">
<path d="M0,0 L28,0 L28,28 L0,28 Z " fill="#030303" transform="translate(0,0)"/>
<path d="M0,0 L4,1 L7,5 L7,11 L12,11 L12,13 L7,14 L2,19 L-2,19 L-4,17 L-4,11 L-2,10 L5,10 L4,3 L1,3 L-1,7 L-3,7 L-2,2 Z " fill="#E4E4E4" transform="translate(12,4)"/>
<path d="M0,0 L3,1 L1,3 L-1,7 L-3,7 L-2,2 Z " fill="#B7B7B7" transform="translate(12,4)"/>
<path d="M0,0 L1,3 L-3,6 L-6,5 L-6,3 Z " fill="#EEEEEE" transform="translate(16,18)"/>
<path d="M0,0 L5,0 L4,3 L0,4 Z " fill="#212121" transform="translate(11,17)"/>
</svg>
