<?xml version="1.0" encoding="UTF-8"?>
<svg version="1.1" xmlns="http://www.w3.org/2000/svg" width="28" height="28">
<path d="M0,0 L28,0 L28,28 L0,28 Z " fill="#030303" transform="translate(0,0)"/>
<path d="M0,0 L7,3 L12,9 L11,13 L7,17 L6,19 L3,18 L1,19 L-8,19 L-8,13 L-4,11 L2,12 L6,13 L9,11 L7,6 L0,3 Z " fill="#E9E9E9" transform="translate(12,2)"/>
<path d="M0,0 L7,3 L12,9 L11,13 L6,16 L7,12 L9,11 L7,6 L0,3 Z " fill="#D8D8D8" transform="translate(12,2)"/>
<path d="M0,0 L6,0 L6,2 L1,4 L-3,4 L-2,1 Z " fill="#0F0F0F" transform="translate(8,16)"/>
<path d="M0,0 L6,1 L6,3 L-2,4 L-4,2 Z " fill="#C9C9C9" transform="translate(8,13)"/>
<path d="M0,0 L7,3 L7,5 L0,3 Z " fill="#919191" transform="translate(12,2)"/>
</svg>
