<?xml version="1.0" encoding="UTF-8"?>
<svg version="1.1" xmlns="http://www.w3.org/2000/svg" width="28" height="28">
<path d="M0,0 L28,0 L28,28 L0,28 Z " fill="#040404" transform="translate(0,0)"/>
<path d="M0,0 L5,1 L11,5 L13,9 L12,17 L15,17 L15,19 L8,18 L3,20 L-2,20 L-3,18 L-3,12 L-1,10 L3,11 L7,13 L10,13 L10,8 L4,4 L0,3 Z " fill="#E2E2E2" transform="translate(9,2)"/>
<path d="M0,0 L4,1 L8,4 L6,4 L6,7 L0,8 L-1,10 L-2,8 L-2,2 Z " fill="#BCBCBC" transform="translate(8,12)"/>
<path d="M0,0 L5,1 L6,4 L0,4 Z " fill="#050505" transform="translate(8,15)"/>
</svg>
