<?xml version="1.0" encoding="UTF-8"?>
<svg version="1.1" xmlns="http://www.w3.org/2000/svg" width="28" height="28">
<path d="M0,0 L28,0 L28,28 L0,28 Z " fill="#040404" transform="translate(0,0)"/>
<path d="M0,0 L10,1 L15,4 L16,9 L13,14 L13,17 L15,18 L15,20 L12,20 L10,17 L6,18 L-1,19 L-3,16 L-3,12 L-1,12 L0,9 L7,9 L12,12 L12,5 L3,3 L0,2 Z " fill="#D2D2D2" transform="translate(8,4)"/>
<path d="M0,0 L6,2 L7,5 L6,9 L-1,10 L-3,7 L-3,3 L-1,3 Z " fill="#EDEDED" transform="translate(8,13)"/>
<path d="M0,0 L5,0 L9,3 L9,6 L3,8 L4,3 L-1,2 Z " fill="#F1F1F1" transform="translate(10,13)"/>
<path d="M0,0 L5,1 L4,4 L-2,5 L-1,1 Z " fill="#161616" transform="translate(10,15)"/>
<path d="M0,0 L2,1 L0,7 L-3,7 L-3,3 L-1,3 Z " fill="#BFBFBF" transform="translate(8,13)"/>
</svg>
