<?xml version="1.0" encoding="UTF-8"?>
<svg version="1.1" xmlns="http://www.w3.org/2000/svg" width="28" height="28">
<path d="M0,0 L28,0 L28,28 L0,28 Z " fill="#040404" transform="translate(0,0)"/>
<path d="M0,0 L5,0 L11,4 L11,10 L8,14 L6,14 L8,20 L2,18 L0,19 L-7,19 L-8,13 L-6,11 L5,12 L8,9 L9,5 L2,4 Z " fill="#E0E0E0" transform="translate(12,3)"/>
<path d="M0,0 L2,1 L7,0 L9,2 L8,4 L10,5 L8,6 L1,6 Z " fill="#CECECE" transform="translate(4,16)"/>
<path d="M0,0 L5,1 L2,4 L-2,4 L-2,1 Z " fill="#101010" transform="translate(8,16)"/>
</svg>
