<?xml version="1.0" encoding="UTF-8"?>
<svg version="1.1" xmlns="http://www.w3.org/2000/svg" width="28" height="28">
<path d="M0,0 L28,0 L28,28 L0,28 Z " fill="#030303" transform="translate(0,0)"/>
<path d="M0,0 L5,1 L7,4 L7,14 L9,15 L9,17 L4,19 L-1,20 L-3,16 L-1,13 L4,13 L4,5 L0,3 L-2,4 Z " fill="#BCBCBC" transform="translate(11,3)"/>
<path d="M0,0 L5,1 L7,4 L7,13 L5,13 L4,5 L0,3 L-2,4 Z " fill="#E3E3E3" transform="translate(11,3)"/>
<path d="M0,0 L5,1 L1,2 L2,6 L-2,5 Z " fill="#DFDFDF" transform="translate(10,16)"/>
</svg>
