<?xml version="1.0" encoding="UTF-8"?>
<svg version="1.1" xmlns="http://www.w3.org/2000/svg" width="28" height="28">
<path d="M0,0 L28,0 L28,28 L0,28 Z " fill="#030303" transform="translate(0,0)"/>
<path d="M0,0 L7,1 L11,5 L10,12 L7,14 L7,16 L11,20 L6,18 L2,17 L-4,18 L-5,17 L-5,11 L-4,10 L1,10 L6,13 L6,11 L8,11 L8,5 L0,2 Z " fill="#D1D1D1" transform="translate(11,4)"/>
<path d="M0,0 L5,0 L7,2 L6,5 L5,3 L1,3 L0,6 L5,5 L6,7 L0,8 L-1,7 L-1,1 Z " fill="#E5E5E5" transform="translate(7,14)"/>
<path d="M0,0 L5,1 L5,3 L-1,4 Z " fill="#2F2F2F" transform="translate(8,16)"/>
</svg>
