<?xml version="1.0" encoding="UTF-8"?>
<svg version="1.1" xmlns="http://www.w3.org/2000/svg" width="28" height="28">
<path d="M0,0 L28,0 L28,28 L0,28 Z " fill="#050505" transform="translate(0,0)"/>
<path d="M0,0 L8,0 L11,2 L10,13 L12,17 L5,16 L0,20 L-5,19 L-6,11 L-3,8 L7,7 L8,3 L-2,4 Z " fill="#ECECEC" transform="translate(11,4)"/>
<path d="M0,0 L8,0 L11,2 L10,9 L8,6 L8,3 L-2,4 Z " fill="#D0D0D0" transform="translate(11,4)"/>
<path d="M0,0 L7,1 L5,5 L4,7 L-1,6 L-1,1 Z " fill="#191919" transform="translate(9,14)"/>
</svg>
