<?xml version="1.0" encoding="UTF-8"?>
<svg version="1.1" xmlns="http://www.w3.org/2000/svg" width="28" height="28">
<path d="M0,0 L28,0 L28,28 L0,28 Z " fill="#040404" transform="translate(0,0)"/>
<path d="M0,0 L5,1 L6,6 L3,10 L1,10 L1,17 L-4,17 L-9,20 L-13,20 L-14,15 L-12,12 L-10,12 L-10,10 L-1,12 L0,7 L2,6 L3,3 L-3,6 L-5,7 L-4,2 Z " fill="#D4D4D4" transform="translate(18,4)"/>
<path d="M0,0 L3,1 L5,4 L4,9 L-3,10 L-4,5 L-2,2 L0,2 Z " fill="#E2E2E2" transform="translate(8,14)"/>
<path d="M0,0 L7,0 L8,6 L2,6 L1,3 L-2,1 Z " fill="#EDEDED" transform="translate(11,15)"/>
<path d="M0,0 L5,0 L4,5 L2,5 L2,3 L-1,3 Z " fill="#818181" transform="translate(8,18)"/>
</svg>
