<?xml version="1.0" encoding="UTF-8"?>
<svg version="1.1" xmlns="http://www.w3.org/2000/svg" width="28" height="28">
<path d="M0,0 L28,0 L28,28 L0,28 Z " fill="#040404" transform="translate(0,0)"/>
<path d="M0,0 L9,1 L11,2 L12,7 L8,15 L17,18 L17,19 L1,20 L0,16 L5,11 L7,9 L8,4 L2,5 L0,3 Z " fill="#E9E9E9" transform="translate(8,3)"/>
<path d="M0,0 L9,1 L11,2 L12,7 L7,12 L4,14 L6,10 L8,4 L2,5 L0,3 Z " fill="#D7D7D7" transform="translate(8,3)"/>
<path d="M0,0 L4,2 L8,4 L2,5 L0,3 Z " fill="#A0A0A0" transform="translate(8,3)"/>
</svg>
