<?xml version="1.0" encoding="UTF-8"?>
<svg version="1.1" xmlns="http://www.w3.org/2000/svg" width="28" height="28">
<path d="M0,0 L28,0 L28,28 L0,28 Z " fill="#020202" transform="translate(0,0)"/>
<path d="M0,0 L5,1 L6,3 L6,10 L3,16 L7,16 L6,19 L-7,20 L-7,17 L0,14 L2,11 L3,3 L-2,4 Z " fill="#E1E1E1" transform="translate(13,3)"/>
<path d="M0,0 L2,0 L2,2 L7,2 L6,5 L-7,6 L-7,3 Z " fill="#E6E6E6" transform="translate(13,17)"/>
<path d="M0,0 L1,0 L2,8 L-1,12 L-2,9 Z " fill="#AFAFAF" transform="translate(16,7)"/>
</svg>
