<?xml version="1.0" encoding="UTF-8"?>
<svg version="1.1" xmlns="http://www.w3.org/2000/svg" width="28" height="28">
<path d="M0,0 L28,0 L28,28 L0,28 Z " fill="#020202" transform="translate(0,0)"/>
<path d="M0,0 L7,1 L10,4 L12,9 L12,13 L14,13 L16,17 L11,15 L9,19 L7,18 L9,13 L5,12 L10,12 L7,4 L6,3 L-1,3 Z " fill="#C7C7C7" transform="translate(7,3)"/>
<path d="M0,0 L7,0 L6,7 L0,7 L-1,6 L-1,1 Z " fill="#A7A7A7" transform="translate(9,16)"/>
<path d="M0,0 L6,0 L5,4 L0,4 Z " fill="#080808" transform="translate(10,17)"/>
</svg>
