<?xml version="1.0" encoding="UTF-8"?>
<svg version="1.1" xmlns="http://www.w3.org/2000/svg" width="28" height="28">
<path d="M0,0 L28,0 L28,28 L0,28 Z " fill="#030303" transform="translate(0,0)"/>
<path d="M0,0 L6,0 L9,3 L11,13 L18,12 L17,15 L10,16 L8,16 L7,18 L1,17 L0,12 L3,9 L7,9 L5,4 L0,3 L-2,4 L-2,1 Z " fill="#DDDDDD" transform="translate(8,5)"/>
<path d="M0,0 L6,0 L9,3 L10,6 L10,13 L9,11 L7,10 L5,4 L0,3 L-2,4 L-2,1 Z " fill="#D1D1D1" transform="translate(8,5)"/>
<path d="M0,0 L6,0 L6,4 L1,5 Z " fill="#717171" transform="translate(8,17)"/>
</svg>
