<?xml version="1.0" encoding="UTF-8"?>
<svg version="1.1" xmlns="http://www.w3.org/2000/svg" width="28" height="28">
<path d="M0,0 L28,0 L28,28 L0,28 Z " fill="#020202" transform="translate(0,0)"/>
<path d="M0,0 L8,0 L12,5 L12,11 L10,15 L15,17 L15,18 L1,20 L1,18 L6,15 L9,11 L9,5 L6,3 L0,2 Z " fill="#E5E5E5" transform="translate(7,4)"/>
<path d="M0,0 L8,0 L9,2 L6,3 L0,2 Z " fill="#C5C5C5" transform="translate(7,4)"/>
<path d="M0,0 L1,3 L0,5 L4,7 L-2,7 L-3,4 Z " fill="#C8C8C8" transform="translate(17,14)"/>
</svg>
