<?xml version="1.0" encoding="UTF-8"?>
<svg version="1.1" xmlns="http://www.w3.org/2000/svg" width="28" height="28">
<path d="M0,0 L28,0 L28,28 L0,28 Z " fill="#030303" transform="translate(0,0)"/>
<path d="M0,0 L7,1 L9,3 L8,13 L11,15 L11,18 L7,17 L3,16 L-2,20 L-7,19 L-6,14 L-1,10 L5,9 L6,4 L-6,4 L-5,1 Z " fill="#E9E9E9" transform="translate(12,4)"/>
<path d="M0,0 L4,1 L2,5 L-2,8 L-7,7 L-6,2 L-2,1 Z " fill="#E4E4E4" transform="translate(12,16)"/>
<path d="M0,0 L7,1 L9,5 L7,5 L6,8 L6,4 L-6,4 L-5,1 Z " fill="#CDCDCD" transform="translate(12,4)"/>
<path d="M0,0 L2,0 L0,4 L-5,5 Z " fill="#1D1D1D" transform="translate(12,16)"/>
</svg>
