<?xml version="1.0" encoding="UTF-8"?>
<svg version="1.1" xmlns="http://www.w3.org/2000/svg" width="28" height="28">
<path d="M0,0 L28,0 L28,28 L0,28 Z " fill="#030303" transform="translate(0,0)"/>
<path d="M0,0 L6,0 L7,5 L0,16 L-5,20 L-9,20 L-9,11 L-7,11 L-7,9 L-1,9 L1,10 L4,2 L-1,3 Z " fill="#EBEBEB" transform="translate(16,4)"/>
<path d="M0,0 L6,0 L7,2 L5,6 L3,6 L3,8 L0,8 L-2,5 L-2,2 L0,2 Z " fill="#D2D2D2" transform="translate(9,13)"/>
<path d="M0,0 L6,0 L7,5 L3,10 L3,6 L4,2 L-1,3 Z " fill="#CDCDCD" transform="translate(16,4)"/>
<path d="M0,0 L4,1 L3,4 L1,4 L1,6 L-2,6 L-1,2 Z " fill="#191919" transform="translate(11,15)"/>
</svg>
