<?xml version="1.0" encoding="UTF-8"?>
<svg version="1.1" xmlns="http://www.w3.org/2000/svg" width="28" height="28">
<path d="M0,0 L28,0 L28,28 L0,28 Z " fill="#030303" transform="translate(0,0)"/>
<path d="M0,0 L6,0 L10,3 L12,8 L13,15 L14,17 L8,20 L3,19 L0,16 L1,12 L9,13 L8,4 L2,3 L-3,6 L-2,2 Z " fill="#DEDEDE" transform="translate(8,4)"/>
<path d="M0,0 L2,1 L3,8 L4,10 L-2,13 L-7,12 L-10,9 L-9,5 L-5,7 L-7,7 L-6,9 L-2,10 L-3,7 L0,7 Z " fill="#E4E4E4" transform="translate(18,11)"/>
<path d="M0,0 L1,0 L1,7 L-1,8 L-1,10 L-6,9 L-6,5 L0,6 Z " fill="#7C7C7C" transform="translate(17,11)"/>
</svg>
