<?xml version="1.0" encoding="UTF-8"?>
<svg version="1.1" xmlns="http://www.w3.org/2000/svg" width="28" height="28">
<path d="M0,0 L28,0 L28,28 L0,28 Z " fill="#030303" transform="translate(0,0)"/>
<path d="M0,0 L5,1 L9,7 L10,14 L13,18 L13,20 L11,20 L7,16 L6,19 L1,20 L0,14 L2,12 L7,12 L5,5 L3,3 L-1,4 L-2,6 L-4,6 L-3,2 Z " fill="#DBDBDB" transform="translate(10,3)"/>
<path d="M0,0 L5,1 L6,5 L3,7 L0,7 L-1,1 Z " fill="#868686" transform="translate(11,16)"/>
<path d="M0,0 L5,1 L3,3 L-1,4 L-2,6 L-4,6 L-3,2 Z " fill="#C1C1C1" transform="translate(10,3)"/>
</svg>
