<?xml version="1.0" encoding="UTF-8"?>
<svg version="1.1" xmlns="http://www.w3.org/2000/svg" width="28" height="28">
<path d="M0,0 L28,0 L28,28 L0,28 Z " fill="#030303" transform="translate(0,0)"/>
<path d="M0,0 L6,2 L10,6 L11,13 L10,17 L12,19 L1,20 L-2,17 L-3,11 L-1,8 L2,8 L7,13 L5,6 L0,3 Z " fill="#EDEDED" transform="translate(10,3)"/>
<path d="M0,0 L6,2 L10,6 L11,13 L7,13 L5,6 L0,3 Z " fill="#E9E9E9" transform="translate(10,3)"/>
<path d="M0,0 L3,0 L6,5 L5,9 L1,7 L-2,5 Z " fill="#AAAAAA" transform="translate(9,11)"/>
</svg>
