<?xml version="1.0" encoding="UTF-8"?>
<svg version="1.1" xmlns="http://www.w3.org/2000/svg" width="28" height="28">
<path d="M0,0 L28,0 L28,28 L0,28 Z " fill="#020202" transform="translate(0,0)"/>
<path d="M0,0 L6,1 L9,7 L8,16 L-3,15 L-4,17 L-3,13 L2,12 L7,13 L5,4 L0,3 L-4,5 L-2,1 Z " fill="#D4D4D4" transform="translate(11,4)"/>
<path d="M0,0 L7,1 L11,3 L10,5 L6,5 L-1,6 L-3,3 Z " fill="#BDBDBD" transform="translate(10,18)"/>
<path d="M0,0 L6,1 L3,5 L-1,4 Z " fill="#0D0D0D" transform="translate(10,18)"/>
</svg>
