<?xml version="1.0" encoding="UTF-8"?>
<svg version="1.1" xmlns="http://www.w3.org/2000/svg" width="28" height="28">
<path d="M0,0 L28,0 L28,28 L0,28 Z " fill="#020202" transform="translate(0,0)"/>
<path d="M0,0 L6,0 L8,1 L7,5 L3,7 L3,9 L8,9 L10,4 L13,3 L12,7 L7,12 L-3,11 L-7,11 L-6,7 L4,4 L5,2 L-2,3 L-2,1 Z " fill="#DFDFDF" transform="translate(11,8)"/>
<path d="M0,0 L2,0 L1,4 L-4,9 L-7,8 L-7,6 L-3,6 L-1,1 Z " fill="#C7C7C7" transform="translate(22,11)"/>
<path d="M0,0 L1,2 L3,3 L0,8 L-5,8 L-5,6 L-1,3 Z " fill="#212121" transform="translate(19,9)"/>
</svg>
