<?xml version="1.0" encoding="UTF-8"?>
<svg version="1.1" xmlns="http://www.w3.org/2000/svg" width="28" height="28">
<path d="M0,0 L28,0 L28,28 L0,28 Z " fill="#020202" transform="translate(0,0)"/>
<path d="M0,0 L6,0 L7,1 L7,7 L3,12 L3,14 L5,15 L5,18 L2,17 L1,15 L-7,17 L-12,17 L-13,16 L-12,9 L-9,6 L-3,6 L1,8 L4,3 L-5,4 L-5,1 Z " fill="#EAEAEA" transform="translate(17,5)"/>
<path d="M0,0 L6,0 L7,1 L7,7 L4,7 L3,5 L4,3 L-5,4 L-5,1 Z " fill="#E1E1E1" transform="translate(17,5)"/>
<path d="M0,0 L3,0 L1,5 L0,7 L2,8 L1,10 L-3,9 L-2,2 Z " fill="#F0F0F0" transform="translate(7,12)"/>
<path d="M0,0 L4,0 L2,5 L-2,5 L-6,2 Z " fill="#1F1F1F" transform="translate(17,8)"/>
<path d="M0,0 L4,2 L4,4 L-4,6 L-2,1 Z " fill="#2A2A2A" transform="translate(11,13)"/>
</svg>
