<?xml version="1.0" encoding="UTF-8"?>
<svg version="1.1" xmlns="http://www.w3.org/2000/svg" width="28" height="28">
<path d="M0,0 L28,0 L28,28 L0,28 Z " fill="#040404" transform="translate(0,0)"/>
<path d="M0,0 L5,1 L4,6 L-1,12 L0,20 L-2,20 L-3,14 L-9,17 L-13,16 L-14,10 L-11,7 L-6,8 L-2,8 L2,3 L-3,6 L-6,5 L-5,2 Z " fill="#EEEEEE" transform="translate(19,5)"/>
<path d="M0,0 L5,1 L2,8 L4,9 L-1,10 L-3,7 L-2,1 Z " fill="#CDCDCD" transform="translate(8,12)"/>
<path d="M0,0 L5,1 L5,3 L-2,5 L-6,5 L-5,2 Z " fill="#D0D0D0" transform="translate(19,5)"/>
<path d="M0,0 L5,1 L3,6 L1,6 Z " fill="#757575" transform="translate(8,12)"/>
</svg>
