<?xml version="1.0" encoding="UTF-8"?>
<svg version="1.1" xmlns="http://www.w3.org/2000/svg" width="28" height="28">
<path d="M0,0 L28,0 L28,28 L0,28 Z " fill="#030303" transform="translate(0,0)"/>
<path d="M0,0 L5,1 L11,10 L10,17 L7,20 L2,20 L-1,17 L-1,12 L3,11 L9,15 L7,8 L3,4 L3,2 L0,2 L0,4 L-2,4 Z " fill="#E5E5E5" transform="translate(10,3)"/>
<path d="M0,0 L5,1 L7,5 L7,7 L2,6 L1,4 L-1,6 L-1,1 Z " fill="#C9C9C9" transform="translate(10,14)"/>
<path d="M0,0 L3,3 L7,5 L7,6 L2,6 L0,4 Z " fill="#E2E2E2" transform="translate(10,17)"/>
<path d="M0,0 L4,2 L6,3 L6,5 L1,4 Z " fill="#252525" transform="translate(11,16)"/>
</svg>
