<?xml version="1.0" encoding="UTF-8"?>
<svg version="1.1" xmlns="http://www.w3.org/2000/svg" width="28" height="28">
<path d="M0,0 L28,0 L28,28 L0,28 Z " fill="#020202" transform="translate(0,0)"/>
<path d="M0,0 L6,1 L7,11 L5,16 L1,20 L-6,19 L-8,13 L-7,9 L4,9 L4,4 L-1,6 L-3,7 L-2,2 Z " fill="#E5E5E5" transform="translate(14,4)"/>
<path d="M0,0 L6,1 L7,8 L5,10 L4,9 L4,4 L-1,6 L-3,7 L-2,2 Z " fill="#E4E4E4" transform="translate(14,4)"/>
<path d="M0,0 L7,0 L5,4 L1,3 Z " fill="#212121" transform="translate(9,17)"/>
</svg>
