<?xml version="1.0" encoding="UTF-8"?>
<svg version="1.1" xmlns="http://www.w3.org/2000/svg" width="28" height="28">
<path d="M0,0 L28,0 L28,28 L0,28 Z " fill="#020202" transform="translate(0,0)"/>
<path d="M0,0 L5,0 L7,3 L7,11 L14,12 L18,11 L18,13 L14,15 L4,14 L2,18 L-2,17 L-1,13 L5,11 L4,2 L-2,3 L-2,1 Z " fill="#E1E1E1" transform="translate(9,4)"/>
<path d="M0,0 L7,1 L11,0 L11,2 L7,4 L-2,3 L0,2 Z " fill="#BDBDBD" transform="translate(16,15)"/>
<path d="M0,0 L5,2 L3,5 L-1,4 Z " fill="#C1C1C1" transform="translate(8,17)"/>
</svg>
