<?xml version="1.0" encoding="UTF-8"?>
<svg version="1.1" xmlns="http://www.w3.org/2000/svg" width="28" height="28">
<path d="M0,0 L28,0 L28,28 L0,28 Z " fill="#020202" transform="translate(0,0)"/>
<path d="M0,0 L5,1 L8,4 L9,11 L7,14 L9,16 L-1,20 L-6,20 L-8,18 L-7,14 L-6,13 L4,13 L5,12 L5,5 L0,2 Z " fill="#E2E2E2" transform="translate(13,2)"/>
<path d="M0,0 L7,1 L7,3 L1,3 L1,4 L7,5 L5,7 L0,7 L-2,5 L-1,1 Z " fill="#E7E7E7" transform="translate(7,15)"/>
<path d="M0,0 L1,2 L4,4 L-3,6 L-10,4 L-9,2 L-3,3 L-3,1 Z " fill="#818181" transform="translate(17,15)"/>
</svg>
