<?xml version="1.0" encoding="UTF-8"?>
<svg version="1.1" xmlns="http://www.w3.org/2000/svg" width="28" height="28">
<path d="M0,0 L28,0 L28,28 L0,28 Z " fill="#040404" transform="translate(0,0)"/>
<path d="M0,0 L3,1 L2,6 L1,8 L-1,8 L-3,12 L-7,17 L7,15 L6,18 L1,20 L-9,20 L-10,16 L-1,5 L0,3 L-8,5 L-11,6 L-9,2 Z " fill="#DADADA" transform="translate(17,4)"/>
<path d="M0,0 L3,0 L2,3 L0,4 L-10,4 L-8,2 Z " fill="#E9E9E9" transform="translate(21,19)"/>
<path d="M0,0 L6,1 L6,2 L11,3 L11,4 L1,4 Z " fill="#AFAFAF" transform="translate(7,20)"/>
</svg>
