<?xml version="1.0" encoding="UTF-8"?>
<svg version="1.1" xmlns="http://www.w3.org/2000/svg" width="28" height="28">
<path d="M0,0 L28,0 L28,28 L0,28 Z " fill="#020202" transform="translate(0,0)"/>
<path d="M0,0 L4,1 L5,6 L1,11 L-1,11 L0,18 L-3,15 L-8,16 L-15,17 L-14,13 L-10,10 L0,8 L2,3 L-7,5 L-7,3 Z " fill="#DDDDDD" transform="translate(18,5)"/>
<path d="M0,0 L4,2 L3,5 L-4,6 L-3,2 Z " fill="#BEBEBE" transform="translate(7,16)"/>
<path d="M0,0 L2,3 L0,7 L-1,8 L-12,8 L-12,7 L-2,5 Z " fill="#B5B5B5" transform="translate(20,8)"/>
</svg>
