<?xml version="1.0" encoding="UTF-8"?>
<svg version="1.1" xmlns="http://www.w3.org/2000/svg" width="28" height="28">
<path d="M0,0 L28,0 L28,28 L0,28 Z " fill="#040404" transform="translate(0,0)"/>
<path d="M0,0 L8,0 L9,5 L5,12 L2,16 L10,15 L8,18 L1,18 L-2,17 L-2,15 L-8,14 L-8,19 L-5,20 L-9,20 L-10,14 L-8,12 L-3,12 L1,14 L3,9 L7,2 L-3,3 Z " fill="#EDEDED" transform="translate(14,3)"/>
<path d="M0,0 L8,0 L9,5 L5,12 L2,12 L7,2 L-3,3 Z " fill="#DCDCDC" transform="translate(14,3)"/>
<path d="M0,0 L6,1 L7,4 L3,6 L0,5 Z " fill="#737373" transform="translate(6,17)"/>
<path d="M0,0 L2,4 L-3,9 L-4,7 Z " fill="#C6C6C6" transform="translate(20,7)"/>
</svg>
