<?xml version="1.0" encoding="UTF-8"?>
<svg version="1.1" xmlns="http://www.w3.org/2000/svg" width="28" height="28">
<path d="M0,0 L28,0 L28,28 L0,28 Z " fill="#030303" transform="translate(0,0)"/>
<path d="M0,0 L4,0 L4,7 L3,14 L5,16 L4,20 L0,18 L-1,16 L-3,18 L-11,18 L-10,12 L-3,9 L1,7 L2,3 L-2,6 L-4,6 L-2,1 Z " fill="#D4D4D4" transform="translate(16,4)"/>
<path d="M0,0 L4,0 L4,7 L2,9 L1,7 L2,3 L-2,6 L-4,6 L-2,1 Z " fill="#E6E6E6" transform="translate(16,4)"/>
<path d="M0,0 L2,0 L1,4 L-4,6 L-3,2 Z " fill="#141414" transform="translate(12,15)"/>
</svg>
