<?xml version="1.0" encoding="UTF-8"?>
<svg version="1.1" xmlns="http://www.w3.org/2000/svg" width="28" height="28">
<path d="M0,0 L28,0 L28,28 L0,28 Z " fill="#040404" transform="translate(0,0)"/>
<path d="M0,0 L6,1 L5,8 L3,11 L5,12 L4,16 L2,15 L2,13 L-3,16 L-9,18 L-13,16 L-13,12 L-12,10 L0,9 L2,7 L2,4 L-5,4 L-5,1 Z " fill="#E0E0E0" transform="translate(17,5)"/>
<path d="M0,0 L4,1 L4,2 L9,2 L8,7 L1,8 L-2,5 Z " fill="#DEDEDE" transform="translate(5,15)"/>
<path d="M0,0 L5,0 L2,3 L-2,4 L-2,1 Z " fill="#181818" transform="translate(9,17)"/>
</svg>
