<?xml version="1.0" encoding="UTF-8"?>
<svg version="1.1" xmlns="http://www.w3.org/2000/svg" width="28" height="28">
<path d="M0,0 L28,0 L28,28 L0,28 Z " fill="#020202" transform="translate(0,0)"/>
<path d="M0,0 L6,1 L6,7 L1,15 L4,15 L4,17 L-5,19 L-12,19 L-14,17 L-13,12 L-1,12 L3,4 L-8,5 L-7,2 Z " fill="#D1D1D1" transform="translate(18,4)"/>
<path d="M0,0 L4,0 L4,2 L8,3 L2,5 L-5,5 L-3,1 Z " fill="#7A7A7A" transform="translate(11,18)"/>
<path d="M0,0 L10,0 L10,2 L13,2 L13,4 L6,3 L6,1 L0,1 Z " fill="#F4F4F4" transform="translate(9,17)"/>
</svg>
