<?xml version="1.0" encoding="UTF-8"?>
<svg version="1.1" xmlns="http://www.w3.org/2000/svg" width="28" height="28">
<path d="M0,0 L28,0 L28,28 L0,28 Z " fill="#030303" transform="translate(0,0)"/>
<path d="M0,0 L4,1 L5,5 L2,11 L2,13 L5,15 L5,17 L-2,15 L-8,19 L-14,19 L-15,15 L-10,11 L-1,10 L3,3 L-4,4 L-8,4 L-8,2 Z " fill="#C5C5C5" transform="translate(18,4)"/>
<path d="M0,0 L6,1 L7,5 L2,8 L-4,8 L-5,4 Z " fill="#C4C4C4" transform="translate(8,15)"/>
<path d="M0,0 L8,0 L8,2 L13,4 L13,6 L6,4 L4,4 L4,1 Z " fill="#E6E6E6" transform="translate(10,15)"/>
<path d="M0,0 L6,0 L3,3 L-3,5 L-2,1 Z " fill="#0D0D0D" transform="translate(8,17)"/>
</svg>
