<?xml version="1.0" encoding="UTF-8"?>
<svg version="1.1" xmlns="http://www.w3.org/2000/svg" width="28" height="28">
<path d="M0,0 L28,0 L28,28 L0,28 Z " fill="#020202" transform="translate(0,0)"/>
<path d="M0,0 L5,1 L6,2 L6,9 L2,16 L-4,20 L-9,19 L-10,18 L-10,13 L-6,10 L3,10 L3,4 L-1,3 Z " fill="#DEDEDE" transform="translate(16,4)"/>
<path d="M0,0 L2,2 L1,8 L-5,8 L-6,2 Z " fill="#3E3E3E" transform="translate(18,6)"/>
<path d="M0,0 L3,1 L1,5 L1,7 L6,6 L6,8 L0,9 L-2,7 L-2,2 Z " fill="#EEEEEE" transform="translate(8,15)"/>
<path d="M0,0 L5,0 L3,4 L-2,6 L-3,2 Z " fill="#191919" transform="translate(11,16)"/>
</svg>
