<?xml version="1.0" encoding="UTF-8"?>
<svg version="1.1" xmlns="http://www.w3.org/2000/svg" width="28" height="28">
<path d="M0,0 L28,0 L28,28 L0,28 Z " fill="#030303" transform="translate(0,0)"/>
<path d="M0,0 L4,1 L3,8 L1,11 L-1,11 L2,14 L6,16 L5,18 L1,17 L-4,16 L-9,20 L-12,19 L-12,14 L-9,13 L-9,11 L-1,8 L2,3 L-1,5 L-4,4 Z " fill="#DADADA" transform="translate(17,3)"/>
<path d="M0,0 L4,1 L2,5 L-2,7 L-3,3 L0,2 Z " fill="#9E9E9E" transform="translate(8,14)"/>
<path d="M0,0 L2,0 L0,4 L-5,6 L-6,2 L-5,4 Z " fill="#EEEEEE" transform="translate(11,17)"/>
</svg>
