<?xml version="1.0" encoding="UTF-8"?>
<svg version="1.1" xmlns="http://www.w3.org/2000/svg" width="28" height="28">
<path d="M0,0 L28,0 L28,28 L0,28 Z " fill="#030303" transform="translate(0,0)"/>
<path d="M0,0 L4,0 L5,4 L0,12 L7,14 L7,15 L-4,15 L-8,18 L-13,17 L-12,13 L-7,11 L-1,9 L1,4 L-4,6 L-2,2 Z " fill="#E2E2E2" transform="translate(17,5)"/>
<path d="M0,0 L4,0 L5,4 L2,9 L0,9 L0,5 L-4,6 L-2,2 Z " fill="#E1E1E1" transform="translate(17,5)"/>
<path d="M0,0 L6,1 L5,5 L-1,6 L-2,2 Z " fill="#959595" transform="translate(6,17)"/>
</svg>
