<?xml version="1.0" encoding="UTF-8"?>
<svg version="1.1" xmlns="http://www.w3.org/2000/svg" width="28" height="28">
<path d="M0,0 L28,0 L28,28 L0,28 Z " fill="#050505" transform="translate(0,0)"/>
<path d="M0,0 L6,0 L6,5 L3,10 L5,10 L5,17 L3,17 L3,11 L-8,17 L-9,18 L-14,18 L-14,13 L-7,8 L2,8 L4,1 L-2,5 L-7,7 L-7,4 Z " fill="#E7E7E7" transform="translate(17,5)"/>
<path d="M0,0 L6,0 L6,5 L3,10 L5,10 L5,17 L3,17 L3,11 L1,10 L4,1 L-2,5 L-7,7 L-7,4 Z " fill="#D7D7D7" transform="translate(17,5)"/>
<path d="M0,0 L5,0 L2,3 L-3,6 L-5,5 Z " fill="#1F1F1F" transform="translate(10,15)"/>
<path d="M0,0 L5,0 L5,3 L0,3 L-3,5 L-3,2 Z " fill="#D0D0D0" transform="translate(10,13)"/>
</svg>
