<?xml version="1.0" encoding="UTF-8"?>
<svg version="1.1" xmlns="http://www.w3.org/2000/svg" width="28" height="28">
<path d="M0,0 L28,0 L28,28 L0,28 Z " fill="#030303" transform="translate(0,0)"/>
<path d="M0,0 L1,2 L0,7 L2,7 L2,10 L-4,8 L-9,10 L-13,10 L-13,5 L-9,1 L-4,2 L-1,3 Z " fill="#CCCCCC" transform="translate(19,13)"/>
<path d="M0,0 L5,1 L7,3 L7,10 L6,10 L4,4 L0,3 L-2,3 L-2,5 L-4,5 L-2,1 Z " fill="#D7D7D7" transform="translate(14,3)"/>
<path d="M0,0 L1,2 L3,3 L-4,6 L-7,6 L-7,4 L-1,2 Z " fill="#DDDDDD" transform="translate(14,17)"/>
<path d="M0,0 L4,1 L3,4 L-2,4 Z " fill="#101010" transform="translate(10,16)"/>
</svg>
