<?xml version="1.0" encoding="UTF-8"?>
<svg version="1.1" xmlns="http://www.w3.org/2000/svg" width="28" height="28">
<path d="M0,0 L28,0 L28,28 L0,28 Z " fill="#040404" transform="translate(0,0)"/>
<path d="M0,0 L2,0 L2,2 L7,2 L7,7 L3,12 L3,14 L6,16 L6,18 L1,16 L-4,17 L-10,20 L-13,19 L-12,14 L-9,12 L0,11 L3,7 L4,3 L-1,6 L-5,9 L-8,9 L-7,5 Z " fill="#C9C9C9" transform="translate(17,4)"/>
<path d="M0,0 L2,0 L2,2 L6,2 L5,6 L4,4 L0,5 L-5,9 L-8,9 L-7,5 Z " fill="#E4E4E4" transform="translate(17,4)"/>
<path d="M0,0 L1,0 L1,5 L-4,10 L-4,6 Z " fill="#B8B8B8" transform="translate(23,6)"/>
<path d="M0,0 L2,0 L2,2 L6,2 L6,4 L1,5 Z " fill="#EEEEEE" transform="translate(4,19)"/>
</svg>
