<?xml version="1.0" encoding="UTF-8"?>
<svg version="1.1" xmlns="http://www.w3.org/2000/svg" width="28" height="28">
<path d="M0,0 L28,0 L28,28 L0,28 Z " fill="#020202" transform="translate(0,0)"/>
<path d="M0,0 L1,2 L-3,7 L-1,9 L-1,14 L-3,14 L-4,10 L-10,11 L-12,12 L-18,12 L-14,10 L-12,9 L-18,10 L-17,7 L-5,5 Z " fill="#CFCFCF" transform="translate(22,9)"/>
<path d="M0,0 L5,2 L3,7 L0,9 L-7,9 L-5,7 L-8,5 Z " fill="#0E0E0E" transform="translate(17,6)"/>
<path d="M0,0 L5,2 L5,3 L-4,6 L-8,5 Z " fill="#D4D4D4" transform="translate(17,6)"/>
<path d="M0,0 L9,0 L5,3 L-1,3 L-4,4 L-3,1 Z " fill="#B6B6B6" transform="translate(8,15)"/>
<path d="M0,0 L2,1 L9,0 L5,3 L0,4 Z " fill="#535353" transform="translate(3,17)"/>
</svg>
