<?xml version="1.0" encoding="UTF-8"?>
<svg version="1.1" xmlns="http://www.w3.org/2000/svg" width="28" height="28">
<path d="M0,0 L28,0 L28,28 L0,28 Z " fill="#030303" transform="translate(0,0)"/>
<path d="M0,0 L3,1 L2,6 L0,8 L0,14 L-3,14 L-3,11 L-12,14 L-17,14 L-16,10 L-11,7 L-3,7 L0,5 Z " fill="#DCDCDC" transform="translate(21,7)"/>
<path d="M0,0 L6,1 L5,3 L0,5 L-5,4 L-2,1 Z " fill="#A1A1A1" transform="translate(10,14)"/>
<path d="M0,0 L5,1 L1,3 L-3,5 L-6,5 L-5,2 Z " fill="#DEDEDE" transform="translate(16,5)"/>
</svg>
