<?xml version="1.0" encoding="UTF-8"?>
<svg version="1.1" xmlns="http://www.w3.org/2000/svg" width="28" height="28">
<path d="M0,0 L28,0 L28,28 L0,28 Z " fill="#030303" transform="translate(0,0)"/>
<path d="M0,0 L7,0 L7,5 L2,11 L5,12 L-3,11 L-3,9 L2,6 L5,2 L-2,3 L-2,1 Z " fill="#D1D1D1" transform="translate(16,6)"/>
<path d="M0,0 L7,0 L3,2 L0,2 L0,4 L7,4 L6,6 L-1,6 L-2,2 Z " fill="#D8D8D8" transform="translate(5,14)"/>
<path d="M0,0 L1,3 L5,4 L0,5 L-7,4 L-7,2 Z " fill="#636363" transform="translate(12,14)"/>
<path d="M0,0 L3,1 L1,4 L4,5 L-4,4 L-4,2 Z " fill="#F2F2F2" transform="translate(17,13)"/>
</svg>
