<?xml version="1.0" encoding="UTF-8"?>
<svg version="1.1" xmlns="http://www.w3.org/2000/svg" width="28" height="28">
<path d="M0,0 L28,0 L28,28 L0,28 Z " fill="#040404" transform="translate(0,0)"/>
<path d="M0,0 L5,1 L9,5 L9,13 L8,17 L9,20 L-2,18 L-4,15 L-3,10 L2,9 L6,13 L6,5 L4,3 L-3,4 L-2,1 Z " fill="#EAEAEA" transform="translate(11,3)"/>
<path d="M0,0 L5,1 L5,7 L-1,8 L-2,3 Z " fill="#D2D2D2" transform="translate(9,12)"/>
<path d="M0,0 L5,1 L9,5 L8,10 L7,10 L5,4 L0,3 L-3,4 L-2,1 Z " fill="#D4D4D4" transform="translate(11,3)"/>
<path d="M0,0 L3,1 L4,5 L-1,4 Z " fill="#181818" transform="translate(10,14)"/>
</svg>
