<?xml version="1.0" encoding="UTF-8"?>
<svg version="1.1" xmlns="http://www.w3.org/2000/svg" width="28" height="28">
<path d="M0,0 L28,0 L28,28 L0,28 Z " fill="#030303" transform="translate(0,0)"/>
<path d="M0,0 L4,0 L5,2 L5,8 L4,10 L12,10 L11,13 L-7,13 L-8,9 L-3,7 L2,8 L2,3 L-1,4 Z " fill="#F0F0F0" transform="translate(13,6)"/>
<path d="M0,0 L7,1 L3,4 L-1,5 L-3,4 L-2,1 Z " fill="#C7C7C7" transform="translate(8,13)"/>
<path d="M0,0 L4,1 L3,7 L2,3 L-1,4 Z " fill="#D4D4D4" transform="translate(13,6)"/>
</svg>
