<?xml version="1.0" encoding="UTF-8"?>
<svg version="1.1" xmlns="http://www.w3.org/2000/svg" width="28" height="28">
<path d="M0,0 L28,0 L28,28 L0,28 Z " fill="#040404" transform="translate(0,0)"/>
<path d="M0,0 L6,1 L8,4 L7,12 L9,13 L6,16 L2,20 L-1,20 L-3,17 L-3,11 L5,9 L4,4 L0,3 L1,6 L-2,6 L-1,1 Z " fill="#EEEEEE" transform="translate(12,4)"/>
<path d="M0,0 L6,1 L8,6 L6,8 L4,4 L0,3 L1,6 L-2,6 L-1,1 Z " fill="#DCDCDC" transform="translate(12,4)"/>
<path d="M0,0 L5,0 L3,4 L-1,3 Z " fill="#2B2B2B" transform="translate(11,17)"/>
</svg>
