<?xml version="1.0" encoding="UTF-8"?>
<svg version="1.1" xmlns="http://www.w3.org/2000/svg" width="28" height="28">
<path d="M0,0 L28,0 L28,28 L0,28 Z " fill="#030303" transform="translate(0,0)"/>
<path d="M0,0 L7,0 L12,2 L13,4 L14,15 L15,18 L10,17 L5,20 L1,19 L0,14 L4,11 L10,11 L9,4 L2,3 L0,3 Z " fill="#EBEBEB" transform="translate(7,4)"/>
<path d="M0,0 L6,0 L6,4 L3,8 L-1,7 L-2,2 Z " fill="#DCDCDC" transform="translate(9,16)"/>
<path d="M0,0 L7,0 L12,2 L11,11 L10,11 L9,4 L2,3 L0,3 Z " fill="#C8C8C8" transform="translate(7,4)"/>
<path d="M0,0 L4,1 L2,5 L-3,5 L-1,1 Z " fill="#202020" transform="translate(12,16)"/>
</svg>
