<?xml version="1.0" encoding="UTF-8"?>
<svg version="1.1" xmlns="http://www.w3.org/2000/svg" width="28" height="28">
<path d="M0,0 L28,0 L28,28 L0,28 Z " fill="#030303" transform="translate(0,0)"/>
<path d="M0,0 L4,1 L9,5 L15,13 L17,14 L17,16 L11,15 L7,19 L1,20 L-2,19 L-3,14 L0,9 L6,7 L0,3 Z " fill="#E5E5E5" transform="translate(9,3)"/>
<path d="M0,0 L6,0 L4,4 L2,4 L2,8 L-4,7 L-5,2 Z " fill="#CCCCCC" transform="translate(11,15)"/>
<path d="M0,0 L6,0 L4,4 L-1,4 Z " fill="#0E0E0E" transform="translate(11,15)"/>
</svg>
