<?xml version="1.0" encoding="UTF-8"?>
<svg version="1.1" xmlns="http://www.w3.org/2000/svg" width="28" height="28">
<path d="M0,0 L28,0 L28,28 L0,28 Z " fill="#030303" transform="translate(0,0)"/>
<path d="M0,0 L4,2 L6,6 L6,15 L2,18 L-5,18 L-6,17 L-6,10 L-4,9 L2,9 L4,10 Z " fill="#B6B6B6" transform="translate(15,6)"/>
<path d="M0,0 L5,1 L4,6 L-2,7 L-3,3 Z " fill="#0D0D0D" transform="translate(13,16)"/>
<path d="M0,0 L2,0 L3,4 L-1,7 L-8,7 L-9,6 L-9,1 L-7,4 L-7,6 L-1,5 Z " fill="#D3D3D3" transform="translate(18,17)"/>
<path d="M0,0 L7,0 L8,2 L1,3 L0,5 L-2,5 L-1,1 Z " fill="#B0B0B0" transform="translate(7,4)"/>
</svg>
