<?xml version="1.0" encoding="UTF-8"?>
<svg version="1.1" xmlns="http://www.w3.org/2000/svg" width="28" height="28">
<path d="M0,0 L28,0 L28,28 L0,28 Z " fill="#050505" transform="translate(0,0)"/>
<path d="M0,0 L6,0 L10,8 L11,10 L8,10 L6,14 L3,16 L-6,15 L-8,13 L-7,9 L-5,8 L5,8 L4,3 L0,2 Z " fill="#F1F1F1" transform="translate(12,5)"/>
<path d="M0,0 L9,2 L8,5 L3,7 L-2,6 L-3,2 Z " fill="#DDDDDD" transform="translate(7,13)"/>
<path d="M0,0 L6,0 L5,3 L-1,4 L-2,1 Z " fill="#181818" transform="translate(10,15)"/>
</svg>
