<?xml version="1.0" encoding="UTF-8"?>
<svg version="1.1" xmlns="http://www.w3.org/2000/svg" width="28" height="28">
<path d="M0,0 L28,0 L28,28 L0,28 Z " fill="#030303" transform="translate(0,0)"/>
<path d="M0,0 L13,0 L17,2 L16,7 L7,13 L-2,14 L-3,10 L6,7 L14,6 L14,3 L12,2 L-1,2 Z " fill="#B7B7B7" transform="translate(8,8)"/>
<path d="M0,0 L13,0 L17,2 L16,7 L12,10 L10,10 L10,8 L14,6 L14,3 L12,2 L-1,2 Z " fill="#CCCCCC" transform="translate(8,8)"/>
<path d="M0,0 L4,1 L-2,4 L-6,4 L-5,1 Z " fill="#0D0D0D" transform="translate(13,17)"/>
</svg>
