<?xml version="1.0" encoding="UTF-8"?>
<svg version="1.1" xmlns="http://www.w3.org/2000/svg" width="28" height="28">
<path d="M0,0 L28,0 L28,28 L0,28 Z " fill="#030303" transform="translate(0,0)"/>
<path d="M0,0 L6,0 L10,3 L11,8 L10,10 L8,10 L9,16 L10,20 L7,19 L6,15 L0,18 L-5,17 L-5,11 L-3,11 L-3,9 L3,9 L7,9 L8,5 L6,3 L-1,3 L-2,5 L-1,1 Z " fill="#D8D8D8" transform="translate(11,4)"/>
<path d="M0,0 L6,2 L7,6 L3,9 L-2,8 L-2,2 L0,2 Z " fill="#C8C8C8" transform="translate(8,13)"/>
<path d="M0,0 L4,1 L3,5 L-2,6 L-1,1 Z " fill="#131313" transform="translate(10,14)"/>
</svg>
