<?xml version="1.0" encoding="UTF-8"?>
<svg version="1.1" xmlns="http://www.w3.org/2000/svg" width="28" height="28">
<path d="M0,0 L28,0 L28,28 L0,28 Z " fill="#030303" transform="translate(0,0)"/>
<path d="M0,0 L4,1 L4,7 L3,11 L5,14 L0,13 L0,15 L-2,15 L-4,19 L-8,20 L-11,18 L-9,12 L-7,11 L-7,16 L-4,14 L-3,10 L-5,9 L0,9 L1,3 L-4,4 L-3,7 L-8,6 L-7,3 Z " fill="#E8E8E8" transform="translate(18,4)"/>
<path d="M0,0 L3,0 L2,6 L-1,7 L-2,12 L-5,13 L-7,7 L-2,3 L-2,1 Z M-9,9 L-7,10 L-8,15 L-9,15 Z " fill="#7A7A7A" transform="translate(16,7)"/>
<path d="M0,0 L3,0 L2,6 L-2,5 L-2,1 Z " fill="#303030" transform="translate(16,7)"/>
</svg>
