<?xml version="1.0" encoding="UTF-8"?>
<svg version="1.1" xmlns="http://www.w3.org/2000/svg" width="28" height="28">
<path d="M0,0 L28,0 L28,28 L0,28 Z " fill="#050505" transform="translate(0,0)"/>
<path d="M0,0 L7,0 L12,3 L15,6 L16,17 L11,20 L2,19 L1,12 L6,10 L11,11 L11,5 L3,4 L-1,3 Z " fill="#E9E9E9" transform="translate(6,4)"/>
<path d="M0,0 L2,2 L0,3 L0,6 L2,7 L2,9 L-3,9 L-4,2 Z " fill="#ECECEC" transform="translate(11,14)"/>
<path d="M0,0 L5,0 L5,4 L0,3 Z " fill="#212121" transform="translate(10,17)"/>
</svg>
