<?xml version="1.0" encoding="UTF-8"?>
<svg version="1.1" xmlns="http://www.w3.org/2000/svg" width="28" height="28">
<path d="M0,0 L28,0 L28,28 L0,28 Z " fill="#040404" transform="translate(0,0)"/>
<path d="M0,0 L8,0 L10,2 L10,20 L6,19 L6,16 L-2,20 L-8,18 L-9,17 L-9,12 L-4,9 L3,9 L6,10 L6,5 L3,4 L3,6 L-3,7 L-4,4 Z " fill="#E7E7E7" transform="translate(12,4)"/>
<path d="M0,0 L2,2 L1,7 L-8,6 L-8,4 L-2,3 L-2,1 Z " fill="#1D1D1D" transform="translate(17,7)"/>
<path d="M0,0 L5,1 L3,4 L-1,4 Z " fill="#090909" transform="translate(8,16)"/>
</svg>
