<?xml version="1.0" encoding="UTF-8"?>
<svg version="1.1" xmlns="http://www.w3.org/2000/svg" width="28" height="28">
<path d="M0,0 L28,0 L28,28 L0,28 Z " fill="#030303" transform="translate(0,0)"/>
<path d="M0,0 L6,1 L8,7 L6,19 L-6,20 L-8,19 L-7,14 L-4,12 L2,12 L4,13 L5,5 L5,2 L-2,4 L-4,7 L-6,7 L-4,2 Z " fill="#CDCDCD" transform="translate(14,4)"/>
<path d="M0,0 L6,1 L8,7 L7,13 L5,12 L5,2 L-2,4 L-4,7 L-6,7 L-4,2 Z " fill="#C3C3C3" transform="translate(14,4)"/>
<path d="M0,0 L5,1 L5,4 L2,6 L-3,5 L-3,2 Z " fill="#111111" transform="translate(11,17)"/>
</svg>
