<?xml version="1.0" encoding="UTF-8"?>
<svg version="1.1" xmlns="http://www.w3.org/2000/svg" width="28" height="28">
<path d="M0,0 L28,0 L28,28 L0,28 Z " fill="#020202" transform="translate(0,0)"/>
<path d="M0,0 L7,0 L6,7 L5,9 L10,10 L11,12 L1,12 L-2,14 L-9,13 L-9,7 L-7,6 L2,6 L3,4 L0,3 Z " fill="#E2E2E2" transform="translate(14,7)"/>
<path d="M0,0 L7,0 L5,2 L7,4 L5,8 L-2,7 L-2,1 Z " fill="#D3D3D3" transform="translate(7,13)"/>
<path d="M0,0 L7,1 L4,4 L0,4 Z " fill="#232323" transform="translate(7,15)"/>
</svg>
