<?xml version="1.0" encoding="UTF-8"?>
<svg version="1.1" xmlns="http://www.w3.org/2000/svg" width="28" height="28">
<path d="M0,0 L28,0 L28,28 L0,28 Z " fill="#030303" transform="translate(0,0)"/>
<path d="M0,0 L7,1 L11,6 L12,14 L17,19 L10,17 L8,19 L3,19 L1,17 L2,13 L3,12 L9,12 L7,4 L6,3 L0,3 L-3,6 L-2,1 Z " fill="#CACACA" transform="translate(8,4)"/>
<path d="M0,0 L1,0 L2,6 L7,11 L0,9 L-2,11 L-7,11 L-6,9 L-2,8 L-2,5 L0,5 Z " fill="#E1E1E1" transform="translate(18,12)"/>
<path d="M0,0 L6,0 L4,4 L1,4 Z " fill="#161616" transform="translate(11,18)"/>
</svg>
