<?xml version="1.0" encoding="UTF-8"?>
<svg version="1.1" xmlns="http://www.w3.org/2000/svg" width="28" height="28">
<path d="M0,0 L28,0 L28,28 L0,28 Z " fill="#030303" transform="translate(0,0)"/>
<path d="M0,0 L5,0 L10,6 L10,8 L17,9 L16,12 L10,11 L9,15 L0,20 L-3,19 L-3,13 L0,10 L4,8 L8,8 L5,4 L0,4 Z " fill="#E5E5E5" transform="translate(9,4)"/>
<path d="M0,0 L4,1 L3,5 L-3,8 L-7,7 L-7,5 L-4,2 Z " fill="#CACACA" transform="translate(13,12)"/>
<path d="M0,0 L3,1 L-4,5 L-6,4 L-3,1 Z " fill="#121212" transform="translate(14,15)"/>
</svg>
