<?xml version="1.0" encoding="UTF-8"?>
<svg version="1.1" xmlns="http://www.w3.org/2000/svg" width="28" height="28">
<path d="M0,0 L28,0 L28,28 L0,28 Z " fill="#030303" transform="translate(0,0)"/>
<path d="M0,0 L5,2 L6,8 L7,12 L9,16 L5,15 L2,14 L0,18 L-2,20 L-6,19 L-7,18 L-7,12 L-2,8 L3,8 L2,4 L-5,4 L-4,1 Z " fill="#DEDEDE" transform="translate(14,4)"/>
<path d="M0,0 L2,0 L0,7 L3,7 L3,5 L8,3 L5,8 L3,10 L-1,9 L-2,8 L-2,2 Z " fill="#E8E8E8" transform="translate(9,14)"/>
<path d="M0,0 L4,1 L1,6 L-2,6 L-1,1 Z " fill="#1F1F1F" transform="translate(11,15)"/>
</svg>
