<?xml version="1.0" encoding="UTF-8"?>
<svg version="1.1" xmlns="http://www.w3.org/2000/svg" width="28" height="28">
<path d="M0,0 L28,0 L28,28 L0,28 Z " fill="#050505" transform="translate(0,0)"/>
<path d="M0,0 L2,3 L6,5 L2,6 L-12,7 L-14,5 L-14,2 L-11,1 L-1,1 Z " fill="#E9E9E9" transform="translate(19,15)"/>
<path d="M0,0 L6,1 L7,2 L7,12 L5,12 L5,4 L0,3 L-8,5 L-8,3 Z " fill="#D4D4D4" transform="translate(15,3)"/>
<path d="M0,0 L6,1 L2,3 L5,6 L0,6 L-2,4 L-2,1 Z " fill="#EAEAEA" transform="translate(7,16)"/>
<path d="M0,0 L5,0 L1,1 L1,3 L3,4 L-1,5 L-5,1 Z " fill="#ACACAC" transform="translate(13,17)"/>
</svg>
