<?xml version="1.0" encoding="UTF-8"?>
<svg version="1.1" xmlns="http://www.w3.org/2000/svg" width="28" height="28">
<path d="M0,0 L28,0 L28,28 L0,28 Z " fill="#020202" transform="translate(0,0)"/>
<path d="M0,0 L3,0 L5,5 L4,12 L2,12 L1,15 L-8,16 L-4,14 L0,12 L-1,11 L-12,11 L-15,13 L-13,9 L3,9 L2,3 L-3,3 L-3,1 Z " fill="#B9B9B9" transform="translate(17,5)"/>
<path d="M0,0 L11,0 L13,2 L8,5 L2,6 L-2,4 Z " fill="#0A0A0A" transform="translate(5,15)"/>
<path d="M0,0 L11,0 L11,1 L1,2 L2,5 L-2,4 Z " fill="#525252" transform="translate(5,15)"/>
</svg>
