<?xml version="1.0" encoding="UTF-8"?>
<svg version="1.1" xmlns="http://www.w3.org/2000/svg" width="28" height="28">
<path d="M0,0 L28,0 L28,28 L0,28 Z " fill="#030303" transform="translate(0,0)"/>
<path d="M0,0 L3,0 L3,3 L9,5 L10,9 L6,12 L6,14 L10,17 L5,16 L1,15 L-4,17 L-9,16 L-10,12 L-6,10 L0,10 L3,11 L8,9 L7,6 L-3,4 L-2,1 Z " fill="#D5D5D5" transform="translate(14,4)"/>
<path d="M0,0 L3,0 L3,3 L9,5 L10,9 L6,12 L6,14 L10,17 L5,16 L3,14 L3,11 L8,9 L7,6 L-3,4 L-2,1 Z " fill="#B7B7B7" transform="translate(14,4)"/>
<path d="M0,0 L5,1 L5,3 L-3,4 L-2,1 Z " fill="#161616" transform="translate(9,15)"/>
<path d="M0,0 L3,0 L3,3 L5,4 L-3,4 L-2,1 Z " fill="#D2D2D2" transform="translate(14,4)"/>
</svg>
