<?xml version="1.0" encoding="UTF-8"?>
<svg version="1.1" xmlns="http://www.w3.org/2000/svg" width="28" height="28">
<path d="M0,0 L28,0 L28,28 L0,28 Z " fill="#010101" transform="translate(0,0)"/>
<path d="M0,0 L3,0 L4,5 L2,12 L-2,18 L-6,20 L-12,20 L-14,18 L-13,11 L-9,11 L-4,13 L-5,15 L-12,13 L-11,17 L-5,17 L-1,12 L1,3 L-4,4 L-4,7 L-7,6 L-3,2 Z " fill="#D7D7D7" transform="translate(19,3)"/>
<path d="M0,0 L3,0 L4,5 L1,7 L1,3 L-4,4 L-4,7 L-7,6 L-3,2 Z " fill="#BBBBBB" transform="translate(19,3)"/>
</svg>
