<?xml version="1.0" encoding="UTF-8"?>
<svg version="1.1" xmlns="http://www.w3.org/2000/svg" width="28" height="28">
<path d="M0,0 L28,0 L28,28 L0,28 Z " fill="#040404" transform="translate(0,0)"/>
<path d="M0,0 L11,0 L14,3 L13,8 L10,12 L12,13 L5,14 L-3,15 L-6,12 L-5,8 L9,8 L11,4 L11,2 L1,2 L0,5 L-1,1 Z " fill="#D7D7D7" transform="translate(10,7)"/>
<path d="M0,0 L11,0 L14,3 L13,8 L10,12 L12,13 L5,12 L5,10 L10,7 L11,2 L1,2 L0,5 L-1,1 Z " fill="#DBDBDB" transform="translate(10,7)"/>
<path d="M0,0 L8,0 L8,2 L1,3 Z " fill="#292929" transform="translate(6,17)"/>
</svg>
