<?xml version="1.0" encoding="UTF-8"?>
<svg version="1.1" xmlns="http://www.w3.org/2000/svg" width="28" height="28">
<path d="M0,0 L28,0 L28,28 L0,28 Z " fill="#020202" transform="translate(0,0)"/>
<path d="M0,0 L5,0 L8,4 L8,12 L10,15 L10,20 L8,20 L6,16 L5,18 L0,17 L0,15 L-2,15 L-1,9 L6,9 L4,3 L1,2 L0,6 L-1,1 Z " fill="#A0A0A0" transform="translate(10,4)"/>
<path d="M0,0 L5,0 L8,4 L8,9 L5,12 L0,11 L0,15 L-2,15 L-1,9 L6,9 L4,3 L1,2 L0,6 L-1,1 Z " fill="#DBDBDB" transform="translate(10,4)"/>
</svg>
