<?xml version="1.0" encoding="UTF-8"?>
<svg version="1.1" xmlns="http://www.w3.org/2000/svg" width="28" height="28">
<path d="M0,0 L28,0 L28,28 L0,28 Z " fill="#030303" transform="translate(0,0)"/>
<path d="M0,0 L7,0 L9,3 L9,13 L14,16 L15,18 L6,15 L4,19 L1,20 L-2,18 L-1,14 L1,12 L6,12 L6,4 L5,3 L-2,4 L-3,6 L-5,6 L-3,2 Z " fill="#E0E0E0" transform="translate(10,4)"/>
<path d="M0,0 L5,0 L2,5 L0,6 L0,4 L-2,4 L-3,6 L-2,2 Z " fill="#8F8F8F" transform="translate(11,16)"/>
<path d="M0,0 L6,3 L8,6 L-1,3 Z " fill="#D3D3D3" transform="translate(17,16)"/>
</svg>
