<?xml version="1.0" encoding="UTF-8"?>
<svg version="1.1" xmlns="http://www.w3.org/2000/svg" width="28" height="28">
<path d="M0,0 L28,0 L28,28 L0,28 Z " fill="#020202" transform="translate(0,0)"/>
<path d="M0,0 L5,1 L7,3 L7,10 L13,12 L13,14 L6,14 L2,20 L-3,19 L-4,14 L0,12 L4,12 L4,4 L0,3 L0,5 L-3,5 L-2,1 Z " fill="#DEDEDE" transform="translate(11,4)"/>
<path d="M0,0 L2,1 L7,0 L6,6 L1,5 Z " fill="#808080" transform="translate(7,18)"/>
<path d="M0,0 L5,1 L3,3 L0,3 L0,5 L-3,5 L-2,1 Z " fill="#C3C3C3" transform="translate(11,4)"/>
</svg>
