<?xml version="1.0" encoding="UTF-8"?>
<svg version="1.1" xmlns="http://www.w3.org/2000/svg" width="28" height="28">
<path d="M0,0 L28,0 L28,28 L0,28 Z " fill="#030303" transform="translate(0,0)"/>
<path d="M0,0 L7,1 L9,4 L9,14 L11,15 L11,17 L5,16 L1,20 L-2,19 L-1,13 L2,11 L6,11 L6,5 L0,2 Z " fill="#E3E3E3" transform="translate(10,4)"/>
<path d="M0,0 L7,1 L9,4 L9,10 L7,10 L5,4 L0,2 Z " fill="#E6E6E6" transform="translate(10,4)"/>
<path d="M0,0 L5,1 L0,6 L-1,2 Z " fill="#858585" transform="translate(9,17)"/>
</svg>
