<?xml version="1.0" encoding="UTF-8"?>
<svg version="1.1" xmlns="http://www.w3.org/2000/svg" width="28" height="28">
<path d="M0,0 L28,0 L28,28 L0,28 Z " fill="#020202" transform="translate(0,0)"/>
<path d="M0,0 L5,1 L6,2 L6,13 L7,16 L3,15 L-2,20 L-5,19 L-5,14 L0,10 L3,10 L3,3 L-1,4 L-3,8 L-4,4 Z " fill="#E1E1E1" transform="translate(14,4)"/>
<path d="M0,0 L2,1 L2,3 L4,3 L3,7 L-2,9 L-3,8 L-3,3 Z " fill="#D8D8D8" transform="translate(12,15)"/>
<path d="M0,0 L4,0 L3,4 L0,5 L-1,2 Z " fill="#C0C0C0" transform="translate(12,18)"/>
<path d="M0,0 L2,1 L-2,7 L-3,3 Z " fill="#E7E7E7" transform="translate(13,5)"/>
</svg>
