<?xml version="1.0" encoding="UTF-8"?>
<svg version="1.1" xmlns="http://www.w3.org/2000/svg" width="28" height="28">
<path d="M0,0 L28,0 L28,28 L0,28 Z " fill="#030303" transform="translate(0,0)"/>
<path d="M0,0 L8,2 L11,5 L11,11 L9,16 L13,17 L13,19 L8,19 L5,19 L3,20 L-3,20 L-5,18 L-4,13 L1,12 L6,12 L7,6 L3,5 L1,7 L-3,6 Z " fill="#CACACA" transform="translate(11,3)"/>
<path d="M0,0 L6,1 L6,3 L1,7 L-3,6 Z " fill="#E7E7E7" transform="translate(11,3)"/>
<path d="M0,0 L1,3 L5,4 L4,6 L-1,5 Z " fill="#EEEEEE" transform="translate(8,17)"/>
</svg>
