<?xml version="1.0" encoding="UTF-8"?>
<svg version="1.1" xmlns="http://www.w3.org/2000/svg" width="28" height="28">
<path d="M0,0 L28,0 L28,28 L0,28 Z " fill="#030303" transform="translate(0,0)"/>
<path d="M0,0 L9,2 L13,9 L14,15 L13,17 L17,18 L16,19 L4,20 L0,17 L0,13 L8,14 L11,15 L7,5 L4,4 L3,8 L-1,7 L-1,1 Z " fill="#ECECEC" transform="translate(8,3)"/>
<path d="M0,0 L8,1 L6,2 L7,5 L0,4 Z " fill="#BEBEBE" transform="translate(8,16)"/>
<path d="M0,0 L3,1 L5,6 L3,6 L2,8 L0,3 L-3,2 L-4,4 L-4,1 Z " fill="#CFCFCF" transform="translate(15,5)"/>
</svg>
