<?xml version="1.0" encoding="UTF-8"?>
<svg version="1.1" xmlns="http://www.w3.org/2000/svg" width="28" height="28">
<path d="M0,0 L28,0 L28,28 L0,28 Z " fill="#040404" transform="translate(0,0)"/>
<path d="M0,0 L5,1 L7,3 L7,12 L11,13 L11,15 L2,15 L-3,18 L-7,17 L-9,11 L-7,9 L1,9 L3,10 L4,4 L-2,5 L-2,1 Z " fill="#E7E7E7" transform="translate(14,5)"/>
<path d="M0,0 L9,0 L7,4 L8,6 L3,7 L0,2 Z " fill="#DADADA" transform="translate(5,16)"/>
<path d="M0,0 L6,0 L4,4 L0,4 Z " fill="#202020" transform="translate(8,16)"/>
</svg>
