<?xml version="1.0" encoding="UTF-8"?>
<svg version="1.1" xmlns="http://www.w3.org/2000/svg" width="28" height="28">
<path d="M0,0 L28,0 L28,28 L0,28 Z " fill="#020202" transform="translate(0,0)"/>
<path d="M0,0 L6,2 L10,8 L9,15 L13,15 L13,17 L5,19 L4,20 L-6,20 L-7,15 L-6,14 L7,14 L5,7 L0,6 L-3,9 L-6,9 L-5,3 Z " fill="#D8D8D8" transform="translate(13,4)"/>
<path d="M0,0 L6,2 L7,5 L0,6 L-3,9 L-6,9 L-5,3 Z " fill="#E6E6E6" transform="translate(13,4)"/>
<path d="M0,0 L4,1 L9,2 L9,4 L0,5 L-1,1 Z " fill="#888888" transform="translate(7,18)"/>
</svg>
