<?xml version="1.0" encoding="UTF-8"?>
<svg version="1.1" xmlns="http://www.w3.org/2000/svg" width="28" height="28">
<path d="M0,0 L28,0 L28,28 L0,28 Z " fill="#030303" transform="translate(0,0)"/>
<path d="M0,0 L7,2 L11,6 L11,13 L9,18 L3,20 L-4,20 L-9,18 L-8,14 L-7,13 L3,13 L7,14 L8,7 L5,4 L1,4 L-1,7 L-4,6 L-3,2 Z " fill="#E9E9E9" transform="translate(12,3)"/>
<path d="M0,0 L10,0 L13,2 L11,2 L10,5 L3,7 L-2,5 L-1,1 Z " fill="#CBCBCB" transform="translate(5,16)"/>
<path d="M0,0 L9,0 L11,2 L10,3 L2,3 L0,2 Z " fill="#161616" transform="translate(5,18)"/>
</svg>
