<?xml version="1.0" encoding="UTF-8"?>
<svg version="1.1" xmlns="http://www.w3.org/2000/svg" width="28" height="28">
<path d="M0,0 L28,0 L28,28 L0,28 Z " fill="#040404" transform="translate(0,0)"/>
<path d="M0,0 L6,0 L7,1 L7,10 L5,13 L5,19 L2,19 L-9,20 L-11,19 L-11,13 L-8,11 L2,11 L5,3 L-9,5 L-8,2 Z " fill="#E1E1E1" transform="translate(16,4)"/>
<path d="M0,0 L6,0 L7,1 L7,10 L4,10 L5,3 L-9,5 L-8,2 Z " fill="#E9E9E9" transform="translate(16,4)"/>
<path d="M0,0 L8,1 L8,4 L7,8 L1,8 L-1,7 L-1,1 Z " fill="#D7D7D7" transform="translate(6,16)"/>
<path d="M0,0 L5,1 L3,4 L-3,4 L-3,1 Z " fill="#111111" transform="translate(10,17)"/>
</svg>
