<?xml version="1.0" encoding="UTF-8"?>
<svg version="1.1" xmlns="http://www.w3.org/2000/svg" width="28" height="28">
<path d="M0,0 L28,0 L28,28 L0,28 Z " fill="#030303" transform="translate(0,0)"/>
<path d="M0,0 L5,1 L6,3 L6,10 L10,12 L10,14 L6,13 L4,12 L-2,15 L-8,15 L-10,11 L-9,8 L-2,7 L4,8 L3,3 Z " fill="#E2E2E2" transform="translate(14,5)"/>
<path d="M0,0 L10,1 L7,4 L0,5 L-1,1 Z " fill="#1E1E1E" transform="translate(7,14)"/>
<path d="M0,0 L11,1 L9,3 L3,3 Z " fill="#949494" transform="translate(7,12)"/>
</svg>
