<?xml version="1.0" encoding="UTF-8"?>
<svg version="1.1" xmlns="http://www.w3.org/2000/svg" width="28" height="28">
<path d="M0,0 L28,0 L28,28 L0,28 Z " fill="#030303" transform="translate(0,0)"/>
<path d="M0,0 L6,1 L9,5 L14,7 L14,9 L8,9 L6,14 L0,18 L-5,18 L-6,14 L-2,9 L3,7 L6,7 L6,4 L0,3 L-3,3 Z " fill="#DDDDDD" transform="translate(11,5)"/>
<path d="M0,0 L3,1 L0,5 L6,2 L10,0 L9,4 L4,7 L-1,7 L-2,3 Z " fill="#E6E6E6" transform="translate(7,16)"/>
<path d="M0,0 L2,1 L-4,6 L-7,6 L-5,2 Z " fill="#131313" transform="translate(14,15)"/>
</svg>
