<?xml version="1.0" encoding="UTF-8"?>
<svg version="1.1" xmlns="http://www.w3.org/2000/svg" width="28" height="28">
<path d="M0,0 L28,0 L28,28 L0,28 Z " fill="#030303" transform="translate(0,0)"/>
<path d="M0,0 L5,1 L6,6 L3,13 L1,19 L-3,19 L-11,19 L-12,14 L-9,11 L-3,11 L1,11 L3,3 L-3,4 L-2,1 Z " fill="#EBEBEB" transform="translate(17,3)"/>
<path d="M0,0 L4,2 L6,3 L6,5 L3,6 L5,8 L-2,8 L-3,3 Z " fill="#A0A0A0" transform="translate(8,14)"/>
<path d="M0,0 L5,1 L6,6 L4,8 L4,2 L-3,4 L-2,1 Z " fill="#EDEDED" transform="translate(17,3)"/>
<path d="M0,0 L3,0 L4,8 L0,12 L0,9 L2,1 Z " fill="#AAAAAA" transform="translate(18,5)"/>
</svg>
