<?xml version="1.0" encoding="UTF-8"?>
<svg version="1.1" xmlns="http://www.w3.org/2000/svg" width="28" height="28">
<path d="M0,0 L28,0 L28,28 L0,28 Z " fill="#040404" transform="translate(0,0)"/>
<path d="M0,0 L6,0 L9,3 L9,9 L6,13 L4,13 L4,18 L-1,16 L-9,16 L-11,14 L-10,10 L-8,11 L-8,13 L1,14 L1,12 L6,9 L6,3 L-2,3 L-2,1 Z " fill="#E3E3E3" transform="translate(14,5)"/>
<path d="M0,0 L8,0 L11,3 L10,5 L1,5 Z " fill="#C2C2C2" transform="translate(5,14)"/>
<path d="M0,0 L7,0 L9,2 L8,3 L1,3 Z " fill="#131313" transform="translate(5,16)"/>
</svg>
