<?xml version="1.0" encoding="UTF-8"?>
<svg version="1.1" xmlns="http://www.w3.org/2000/svg" width="28" height="28">
<path d="M0,0 L28,0 L28,28 L0,28 Z " fill="#030303" transform="translate(0,0)"/>
<path d="M0,0 L6,0 L10,3 L10,10 L7,13 L7,20 L4,19 L5,16 L-2,19 L-8,19 L-9,14 L-4,10 L6,10 L7,9 L7,4 L2,3 L-1,4 L-1,1 Z " fill="#D3D3D3" transform="translate(13,3)"/>
<path d="M0,0 L6,0 L10,3 L10,10 L8,12 L4,11 L7,9 L7,4 L2,3 L-1,4 L-1,1 Z " fill="#D1D1D1" transform="translate(13,3)"/>
<path d="M0,0 L7,0 L6,3 L1,5 L-3,5 L-1,1 Z " fill="#131313" transform="translate(9,15)"/>
<path d="M0,0 L5,1 L5,9 L2,8 L3,4 L0,3 Z " fill="#F5F5F5" transform="translate(15,14)"/>
</svg>
