<?xml version="1.0" encoding="UTF-8"?>
<svg version="1.1" xmlns="http://www.w3.org/2000/svg" width="28" height="28">
<path d="M0,0 L28,0 L28,28 L0,28 Z " fill="#030303" transform="translate(0,0)"/>
<path d="M0,0 L5,2 L6,3 L5,15 L5,20 L2,20 L3,15 L-1,18 L-7,18 L-8,13 L-4,10 L3,10 L3,2 L-2,5 L-5,5 L-3,1 Z " fill="#EAEAEA" transform="translate(15,4)"/>
<path d="M0,0 L5,1 L4,5 L-3,8 L-4,3 Z " fill="#D5D5D5" transform="translate(11,14)"/>
<path d="M0,0 L5,2 L6,3 L6,8 L3,9 L3,2 L-2,5 L-5,5 L-3,1 Z " fill="#E3E3E3" transform="translate(15,4)"/>
<path d="M0,0 L5,0 L4,3 L-2,4 L-2,1 Z " fill="#1F1F1F" transform="translate(11,16)"/>
<path d="M0,0 L3,0 L3,5 L0,6 Z " fill="#BDBDBD" transform="translate(18,7)"/>
</svg>
