<?xml version="1.0" encoding="UTF-8"?>
<svg version="1.1" xmlns="http://www.w3.org/2000/svg" width="28" height="28">
<path d="M0,0 L28,0 L28,28 L0,28 Z " fill="#040404" transform="translate(0,0)"/>
<path d="M0,0 L7,0 L9,2 L9,7 L6,13 L6,15 L11,16 L10,19 L5,19 L1,18 L-2,20 L-9,19 L-8,15 L-5,13 L2,12 L6,2 L-3,5 L-7,5 L-7,3 Z " fill="#E9E9E9" transform="translate(13,3)"/>
<path d="M0,0 L3,1 L3,3 L-3,5 L-7,5 L-7,3 Z " fill="#C6C6C6" transform="translate(13,3)"/>
<path d="M0,0 L3,1 L3,4 L-1,5 L-1,3 L-3,2 Z " fill="#9F9F9F" transform="translate(8,16)"/>
</svg>
