<?xml version="1.0" encoding="UTF-8"?>
<svg version="1.1" xmlns="http://www.w3.org/2000/svg" width="28" height="28">
<path d="M0,0 L28,0 L28,28 L0,28 Z " fill="#030303" transform="translate(0,0)"/>
<path d="M0,0 L4,0 L4,10 L7,12 L13,13 L12,16 L5,15 L2,13 L-6,14 L-7,10 L-4,7 L0,7 L0,5 L-2,5 L-1,1 Z " fill="#EFEFEF" transform="translate(13,5)"/>
<path d="M0,0 L4,0 L3,3 L3,1 L1,3 L0,7 L0,5 L-2,5 L-1,1 Z " fill="#D3D3D3" transform="translate(13,5)"/>
<path d="M0,0 L6,0 L5,3 L0,3 Z " fill="#CECECE" transform="translate(20,18)"/>
</svg>
