<?xml version="1.0" encoding="UTF-8"?>
<svg version="1.1" xmlns="http://www.w3.org/2000/svg" width="28" height="28">
<path d="M0,0 L28,0 L28,28 L0,28 Z " fill="#030303" transform="translate(0,0)"/>
<path d="M0,0 L6,0 L8,2 L7,7 L2,15 L0,15 L0,17 L-9,20 L-10,16 L-8,10 L-9,7 L-4,2 Z " fill="#161616" transform="translate(16,5)"/>
<path d="M0,0 L6,0 L8,2 L7,7 L2,15 L0,15 L0,17 L-9,20 L-10,16 L-8,10 L-6,9 L1,9 L1,10 L-6,12 L-7,18 L-1,14 L3,9 L5,2 L-3,5 L-7,9 L-9,9 L-8,5 Z " fill="#DDDDDD" transform="translate(16,5)"/>
<path d="M0,0 L3,1 L-2,5 L-5,8 L-7,8 L-6,4 Z " fill="#CFCFCF" transform="translate(14,6)"/>
</svg>
