<?xml version="1.0" encoding="UTF-8"?>
<svg version="1.1" xmlns="http://www.w3.org/2000/svg" width="28" height="28">
<path d="M0,0 L28,0 L28,28 L0,28 Z " fill="#020202" transform="translate(0,0)"/>
<path d="M0,0 L5,1 L7,6 L7,15 L9,15 L9,13 L12,13 L11,18 L5,18 L3,20 L-1,20 L-3,14 L-1,9 L4,8 L3,3 L0,4 L-1,6 L-3,6 L-2,2 Z " fill="#EEEEEE" transform="translate(11,3)"/>
<path d="M0,0 L2,1 L4,4 L3,10 L0,10 L-1,12 L-3,6 L-1,1 Z " fill="#C7C7C7" transform="translate(11,11)"/>
<path d="M0,0 L5,1 L6,4 L3,5 L3,3 L0,4 L-1,6 L-3,6 L-2,2 Z " fill="#D0D0D0" transform="translate(11,3)"/>
<path d="M0,0 L3,0 L2,5 L-2,5 L-2,2 L0,2 Z " fill="#D0D0D0" transform="translate(20,16)"/>
<path d="M0,0 L4,1 L3,6 L1,6 Z " fill="#212121" transform="translate(11,14)"/>
</svg>
