<?xml version="1.0" encoding="UTF-8"?>
<svg version="1.1" xmlns="http://www.w3.org/2000/svg" width="28" height="28">
<path d="M0,0 L28,0 L28,28 L0,28 Z " fill="#020202" transform="translate(0,0)"/>
<path d="M0,0 L5,0 L6,1 L7,15 L9,19 L6,19 L3,18 L2,20 L-3,20 L-5,14 L-2,11 L4,10 L3,3 L1,3 L0,6 L2,6 L2,8 L-3,7 L-2,2 Z " fill="#E6E6E6" transform="translate(13,3)"/>
<path d="M0,0 L4,1 L2,1 L1,6 L-3,7 L-5,6 L-4,2 Z " fill="#A6A6A6" transform="translate(13,13)"/>
<path d="M0,0 L3,1 L3,8 L1,4 L-1,4 Z " fill="#2E2E2E" transform="translate(14,5)"/>
</svg>
