<?xml version="1.0" encoding="UTF-8"?>
<svg version="1.1" xmlns="http://www.w3.org/2000/svg" width="28" height="28">
<path d="M0,0 L28,0 L28,28 L0,28 Z " fill="#030303" transform="translate(0,0)"/>
<path d="M0,0 L5,0 L8,4 L8,14 L13,17 L13,20 L8,18 L4,16 L1,18 L-4,17 L-3,12 L-1,10 L4,10 L5,9 L5,4 L0,3 L-2,2 Z " fill="#D8D8D8" transform="translate(11,3)"/>
<path d="M0,0 L5,0 L8,4 L8,10 L6,11 L5,4 L0,3 L-2,2 Z " fill="#D6D6D6" transform="translate(11,3)"/>
<path d="M0,0 L4,4 L7,5 L7,8 L2,6 L0,4 Z " fill="#CECECE" transform="translate(17,15)"/>
<path d="M0,0 L3,1 L1,5 L-2,5 L-1,1 Z " fill="#151515" transform="translate(11,14)"/>
</svg>
