<?xml version="1.0" encoding="UTF-8"?>
<svg version="1.1" xmlns="http://www.w3.org/2000/svg" width="28" height="28">
<path d="M0,0 L28,0 L28,28 L0,28 Z " fill="#070707" transform="translate(0,0)"/>
<path d="M0,0 L2,1 L2,9 L6,16 L3,15 L1,11 L-3,13 L-6,15 L-11,15 L-12,11 L-8,8 L-1,7 Z " fill="#C0C0C0" transform="translate(18,7)"/>
<path d="M0,0 L2,1 L2,9 L6,16 L3,15 L1,11 L-6,10 L-10,9 L-1,7 Z " fill="#C6C6C6" transform="translate(18,7)"/>
<path d="M0,0 L4,1 L0,4 L-4,4 L-4,1 Z " fill="#222222" transform="translate(12,16)"/>
</svg>
