<?xml version="1.0" encoding="UTF-8"?>
<svg version="1.1" xmlns="http://www.w3.org/2000/svg" width="28" height="28">
<path d="M0,0 L28,0 L28,28 L0,28 Z " fill="#040404" transform="translate(0,0)"/>
<path d="M0,0 L7,0 L11,3 L11,8 L9,11 L18,12 L19,15 L6,15 L4,12 L9,4 L0,4 Z " fill="#E9E9E9" transform="translate(6,6)"/>
<path d="M0,0 L1,2 L13,2 L13,4 L0,4 L-2,1 Z " fill="#FAFAFA" transform="translate(12,17)"/>
<path d="M0,0 L3,0 L1,5 L10,6 L10,7 L-1,7 L-3,6 L-1,2 Z " fill="#BDBDBD" transform="translate(14,12)"/>
</svg>
