<?xml version="1.0" encoding="UTF-8"?>
<svg version="1.1" xmlns="http://www.w3.org/2000/svg" width="28" height="28">
<path d="M0,0 L28,0 L28,28 L0,28 Z " fill="#040404" transform="translate(0,0)"/>
<path d="M0,0 L4,1 L5,2 L5,16 L0,20 L-3,19 L-3,13 L-2,11 L1,11 L1,13 L3,13 L3,3 L0,3 L0,6 L-2,6 L-1,1 Z " fill="#F5F5F5" transform="translate(13,4)"/>
<path d="M0,0 L3,0 L3,8 L-1,8 L-1,2 Z " fill="#C9C9C9" transform="translate(11,15)"/>
<path d="M0,0 L4,1 L4,4 L0,3 L0,6 L-2,6 L-1,1 Z " fill="#DFDFDF" transform="translate(13,4)"/>
</svg>
