<?xml version="1.0" encoding="UTF-8"?>
<svg version="1.1" xmlns="http://www.w3.org/2000/svg" width="28" height="28">
<path d="M0,0 L28,0 L28,28 L0,28 Z " fill="#030303" transform="translate(0,0)"/>
<path d="M0,0 L5,1 L7,5 L7,14 L10,16 L10,18 L3,18 L-2,20 L-7,20 L-9,17 L-8,12 L-3,9 L4,10 L3,3 L-5,5 L-4,1 Z " fill="#DBDBDB" transform="translate(14,3)"/>
<path d="M0,0 L5,1 L7,5 L7,14 L10,16 L10,18 L5,17 L2,16 L0,10 L4,10 L3,3 L-5,5 L-4,1 Z " fill="#E3E3E3" transform="translate(14,3)"/>
<path d="M0,0 L5,1 L3,5 L-3,5 L-2,1 Z " fill="#0D0D0D" transform="translate(11,15)"/>
</svg>
