<?xml version="1.0" encoding="UTF-8"?>
<svg version="1.1" xmlns="http://www.w3.org/2000/svg" width="28" height="28">
<path d="M0,0 L28,0 L28,28 L0,28 Z " fill="#030303" transform="translate(0,0)"/>
<path d="M0,0 L5,0 L7,2 L7,9 L14,14 L14,16 L10,14 L4,12 L1,15 L-6,16 L-6,11 L-1,8 L4,8 L4,4 L-2,5 L-2,2 Z " fill="#DBDBDB" transform="translate(12,5)"/>
<path d="M0,0 L5,0 L6,4 L-2,5 L-2,2 Z " fill="#E7E7E7" transform="translate(12,5)"/>
<path d="M0,0 L3,0 L4,3 L-1,5 L-3,4 L-2,1 Z " fill="#A6A6A6" transform="translate(9,14)"/>
</svg>
