<?xml version="1.0" encoding="UTF-8"?>
<svg version="1.1" xmlns="http://www.w3.org/2000/svg" width="28" height="28">
<path d="M0,0 L28,0 L28,28 L0,28 Z " fill="#030303" transform="translate(0,0)"/>
<path d="M0,0 L9,0 L12,2 L12,8 L5,15 L3,16 L13,18 L13,20 L4,20 L-1,18 L1,14 L9,7 L9,3 L1,3 L-3,5 L-2,1 Z " fill="#DBDBDB" transform="translate(9,4)"/>
<path d="M0,0 L9,1 L9,3 L0,3 Z " fill="#C1C1C1" transform="translate(13,21)"/>
<path d="M0,0 L2,0 L3,5 L-2,4 Z " fill="#F3F3F3" transform="translate(10,18)"/>
</svg>
