<?xml version="1.0" encoding="UTF-8"?>
<svg version="1.1" xmlns="http://www.w3.org/2000/svg" width="28" height="28">
<path d="M0,0 L28,0 L28,28 L0,28 Z " fill="#030303" transform="translate(0,0)"/>
<path d="M0,0 L6,1 L9,4 L9,11 L6,16 L5,20 L4,17 L-3,20 L-10,20 L-11,19 L-11,14 L-6,11 L1,11 L4,12 L5,10 L5,4 L-4,5 L-4,2 Z " fill="#EFEFEF" transform="translate(15,3)"/>
<path d="M0,0 L4,1 L7,4 L2,7 L-2,7 L-2,9 L-5,8 L-5,3 Z " fill="#DFDFDF" transform="translate(9,14)"/>
<path d="M0,0 L6,1 L9,4 L9,11 L7,13 L5,4 L-4,5 L-4,2 Z " fill="#CDCDCD" transform="translate(15,3)"/>
<path d="M0,0 L6,1 L2,4 L-2,4 L-2,1 Z " fill="#E7E7E7" transform="translate(13,4)"/>
<path d="M0,0 L7,0 L6,2 L-2,3 L-2,1 Z " fill="#212121" transform="translate(9,17)"/>
</svg>
