<?xml version="1.0" encoding="UTF-8"?>
<svg version="1.1" xmlns="http://www.w3.org/2000/svg" width="28" height="28">
<path d="M0,0 L28,0 L28,28 L0,28 Z " fill="#020202" transform="translate(0,0)"/>
<path d="M0,0 L8,0 L11,3 L12,5 L12,14 L17,15 L16,18 L9,16 L9,18 L6,20 L1,20 L-1,18 L0,14 L2,12 L10,13 L9,5 L7,3 L-1,3 L-3,4 L-2,1 Z " fill="#D4D4D4" transform="translate(8,3)"/>
<path d="M0,0 L8,0 L11,3 L12,5 L12,13 L10,13 L9,5 L7,3 L-1,3 L-3,4 L-2,1 Z " fill="#D0D0D0" transform="translate(8,3)"/>
<path d="M0,0 L5,1 L2,4 L-1,4 Z " fill="#121212" transform="translate(11,17)"/>
</svg>
