<?xml version="1.0" encoding="UTF-8"?>
<svg version="1.1" xmlns="http://www.w3.org/2000/svg" width="28" height="28">
<path d="M0,0 L28,0 L28,28 L0,28 Z " fill="#020202" transform="translate(0,0)"/>
<path d="M0,0 L5,0 L10,5 L12,15 L5,20 L0,20 L-4,15 L-4,11 L0,11 L0,13 L8,13 L7,6 L4,3 L-3,4 L-2,1 Z " fill="#DDDDDD" transform="translate(10,3)"/>
<path d="M0,0 L4,0 L4,2 L6,3 L10,6 L6,9 L2,7 L0,4 Z " fill="#CDCDCD" transform="translate(6,14)"/>
<path d="M0,0 L9,3 L8,5 L3,5 Z " fill="#282828" transform="translate(7,16)"/>
</svg>
