<?xml version="1.0" encoding="UTF-8"?>
<svg version="1.1" xmlns="http://www.w3.org/2000/svg" width="28" height="28">
<path d="M0,0 L28,0 L28,28 L0,28 Z " fill="#040404" transform="translate(0,0)"/>
<path d="M0,0 L7,1 L11,3 L12,6 L12,13 L15,13 L15,15 L7,18 L4,18 L4,20 L-1,20 L-3,18 L-2,11 L-1,10 L9,10 L6,5 L-1,4 L-3,2 Z " fill="#E7E7E7" transform="translate(9,4)"/>
<path d="M0,0 L6,0 L4,7 L-1,7 L-3,5 L-3,2 L0,2 Z " fill="#DEDEDE" transform="translate(9,17)"/>
<path d="M0,0 L6,0 L5,3 L1,4 Z " fill="#202020" transform="translate(9,17)"/>
</svg>
