<?xml version="1.0" encoding="UTF-8"?>
<svg version="1.1" xmlns="http://www.w3.org/2000/svg" width="28" height="28">
<path d="M0,0 L28,0 L28,28 L0,28 Z " fill="#020202" transform="translate(0,0)"/>
<path d="M0,0 L5,1 L5,9 L4,13 L7,14 L9,18 L4,16 L2,15 L-2,20 L-7,19 L-6,12 L-2,10 L1,10 L3,3 L0,4 L-1,6 L-3,6 L-3,2 Z " fill="#E6E6E6" transform="translate(14,3)"/>
<path d="M0,0 L3,1 L-1,8 L-3,7 L-4,2 Z " fill="#898989" transform="translate(12,13)"/>
<path d="M0,0 L2,1 L3,3 L0,4 L-1,6 L-3,6 L-3,2 Z " fill="#BABABA" transform="translate(14,3)"/>
</svg>
