<?xml version="1.0" encoding="UTF-8"?>
<svg version="1.1" xmlns="http://www.w3.org/2000/svg" width="28" height="28">
<path d="M0,0 L28,0 L28,28 L0,28 Z " fill="#030303" transform="translate(0,0)"/>
<path d="M0,0 L7,1 L8,2 L8,9 L7,13 L8,19 L5,16 L1,18 L-3,20 L-7,19 L-6,13 L-4,13 L-4,11 L5,9 L6,2 L0,3 L-6,6 L-4,2 Z " fill="#C5C5C5" transform="translate(13,4)"/>
<path d="M0,0 L7,1 L8,6 L6,2 L0,3 L-6,6 L-4,2 Z " fill="#D3D3D3" transform="translate(13,4)"/>
<path d="M0,0 L5,0 L2,5 L-3,6 L-2,2 Z " fill="#131313" transform="translate(11,16)"/>
<path d="M0,0 L4,0 L6,5 L5,8 L1,4 Z " fill="#EAEAEA" transform="translate(15,15)"/>
</svg>
