<?xml version="1.0" encoding="UTF-8"?>
<svg version="1.1" xmlns="http://www.w3.org/2000/svg" width="28" height="28">
<path d="M0,0 L28,0 L28,28 L0,28 Z " fill="#010101" transform="translate(0,0)"/>
<path d="M0,0 L6,0 L7,1 L7,11 L8,18 L4,18 L2,16 L-1,19 L-6,20 L-7,16 L-5,11 L-1,8 L4,8 L4,3 L0,3 L-2,7 L-5,7 L-3,2 Z " fill="#DDDDDD" transform="translate(13,4)"/>
<path d="M0,0 L4,0 L4,5 L-2,6 L-1,2 Z " fill="#202020" transform="translate(13,7)"/>
<path d="M0,0 L4,1 L1,5 L-2,5 Z " fill="#E4E4E4" transform="translate(10,6)"/>
</svg>
