<?xml version="1.0" encoding="UTF-8"?>
<svg version="1.1" xmlns="http://www.w3.org/2000/svg" width="28" height="28">
<path d="M0,0 L28,0 L28,28 L0,28 Z " fill="#020202" transform="translate(0,0)"/>
<path d="M0,0 L5,0 L8,2 L8,10 L15,11 L18,13 L7,13 L4,15 L1,15 L3,10 L6,10 L5,2 L-2,3 Z " fill="#C1C1C1" transform="translate(8,6)"/>
<path d="M0,0 L9,2 L5,3 L-2,3 L-4,4 L-6,2 Z " fill="#B2B2B2" transform="translate(17,16)"/>
<path d="M0,0 L1,0 L2,6 L-3,7 L-3,10 L-6,10 L-4,5 L0,5 Z " fill="#EEEEEE" transform="translate(15,11)"/>
</svg>
