<?xml version="1.0" encoding="UTF-8"?>
<svg version="1.1" xmlns="http://www.w3.org/2000/svg" width="28" height="28">
<path d="M0,0 L28,0 L28,28 L0,28 Z " fill="#040404" transform="translate(0,0)"/>
<path d="M0,0 L5,0 L8,3 L7,10 L5,15 L5,17 L8,18 L8,20 L4,19 L1,17 L-3,20 L-8,20 L-9,17 L-6,12 L-1,10 L3,12 L3,9 L5,9 L5,3 L-2,6 L-5,6 L-3,2 Z " fill="#DADADA" transform="translate(14,4)"/>
<path d="M0,0 L5,0 L8,3 L8,8 L5,9 L5,3 L-2,6 L-5,6 L-3,2 Z " fill="#E6E6E6" transform="translate(14,4)"/>
<path d="M0,0 L2,1 L2,3 L3,5 L-1,8 L0,10 L-5,10 L-6,7 L-3,2 Z " fill="#A3A3A3" transform="translate(11,14)"/>
<path d="M0,0 L5,2 L4,6 L0,8 L-3,7 L1,3 L-1,1 Z " fill="#F1F1F1" transform="translate(12,15)"/>
</svg>
