<?xml version="1.0" encoding="UTF-8"?>
<svg version="1.1" xmlns="http://www.w3.org/2000/svg" width="28" height="28">
<path d="M0,0 L28,0 L28,28 L0,28 Z " fill="#030303" transform="translate(0,0)"/>
<path d="M0,0 L5,0 L7,2 L7,9 L4,14 L3,20 L1,20 L0,18 L-9,19 L-10,16 L-6,11 L2,11 L4,8 L4,4 L-1,3 Z " fill="#DADADA" transform="translate(15,3)"/>
<path d="M0,0 L7,0 L5,6 L-1,6 L-2,3 Z " fill="#D7D7D7" transform="translate(7,16)"/>
<path d="M0,0 L4,0 L3,3 L-3,4 L-3,2 Z " fill="#1C1C1C" transform="translate(10,16)"/>
</svg>
