<?xml version="1.0" encoding="UTF-8"?>
<svg version="1.1" xmlns="http://www.w3.org/2000/svg" width="28" height="28">
<path d="M0,0 L28,0 L28,28 L0,28 Z " fill="#030303" transform="translate(0,0)"/>
<path d="M0,0 L5,0 L7,2 L6,9 L4,14 L7,17 L7,19 L4,19 L1,16 L-2,19 L-7,20 L-6,15 L-2,11 L2,10 L4,2 L-3,3 L-3,1 Z " fill="#D7D7D7" transform="translate(14,4)"/>
<path d="M0,0 L4,1 L-1,4 L-3,7 L-1,8 L-5,9 L-4,4 Z " fill="#E5E5E5" transform="translate(12,15)"/>
<path d="M0,0 L2,0 L3,3 L-1,6 L-3,5 L-1,1 Z " fill="#9B9B9B" transform="translate(12,17)"/>
</svg>
