<?xml version="1.0" encoding="UTF-8"?>
<svg version="1.1" xmlns="http://www.w3.org/2000/svg" width="28" height="28">
<path d="M0,0 L28,0 L28,28 L0,28 Z " fill="#030303" transform="translate(0,0)"/>
<path d="M0,0 L5,1 L8,5 L10,13 L14,16 L10,19 L8,18 L8,16 L3,20 L-2,19 L-4,17 L-4,11 L0,7 L4,7 L0,3 Z " fill="#E3E3E3" transform="translate(11,3)"/>
<path d="M0,0 L1,0 L3,6 L6,7 L5,10 L0,9 L-2,7 L-2,1 Z " fill="#EAEAEA" transform="translate(9,13)"/>
<path d="M0,0 L2,1 L2,6 L-2,6 L-3,2 Z " fill="#131313" transform="translate(13,13)"/>
</svg>
