<?xml version="1.0" encoding="UTF-8"?>
<svg version="1.1" xmlns="http://www.w3.org/2000/svg" width="28" height="28">
<path d="M0,0 L28,0 L28,28 L0,28 Z " fill="#020202" transform="translate(0,0)"/>
<path d="M0,0 L7,0 L8,1 L8,14 L11,16 L10,19 L5,15 L4,19 L-2,20 L-3,16 L0,13 L4,12 L5,2 L0,2 Z " fill="#BDBDBD" transform="translate(10,3)"/>
<path d="M0,0 L4,1 L5,4 L2,7 L-3,6 L-2,2 Z " fill="#676767" transform="translate(10,16)"/>
<path d="M0,0 L2,1 L4,7 L6,8 L5,11 L2,8 L-1,8 L-1,6 L-3,5 L-1,4 Z " fill="#D8D8D8" transform="translate(15,11)"/>
<path d="M0,0 L2,1 L0,4 L4,5 L-1,6 L-2,2 Z " fill="#E2E2E2" transform="translate(9,17)"/>
</svg>
