<?xml version="1.0" encoding="UTF-8"?>
<svg version="1.1" xmlns="http://www.w3.org/2000/svg" width="28" height="28">
<path d="M0,0 L28,0 L28,28 L0,28 Z " fill="#040404" transform="translate(0,0)"/>
<path d="M0,0 L7,0 L9,4 L6,11 L5,16 L9,18 L8,20 L3,18 L0,18 L-4,20 L-9,19 L-8,14 L-5,11 L3,12 L6,2 L-3,4 L-2,1 Z " fill="#E3E3E3" transform="translate(14,3)"/>
<path d="M0,0 L7,0 L9,4 L6,11 L3,15 L3,13 L1,12 L3,12 L6,2 L-3,4 L-2,1 Z " fill="#E1E1E1" transform="translate(14,3)"/>
<path d="M0,0 L5,1 L2,4 L-2,5 Z " fill="#191919" transform="translate(9,16)"/>
</svg>
