<?xml version="1.0" encoding="UTF-8"?>
<svg version="1.1" xmlns="http://www.w3.org/2000/svg" width="28" height="28">
<path d="M0,0 L28,0 L28,28 L0,28 Z " fill="#020202" transform="translate(0,0)"/>
<path d="M0,0 L6,0 L7,1 L6,9 L3,14 L1,14 L1,16 L8,16 L8,17 L-1,19 L-5,20 L-4,17 L1,12 L5,2 L-2,4 Z " fill="#B4B4B4" transform="translate(12,4)"/>
<path d="M0,0 L2,1 L1,3 L8,3 L8,4 L-1,6 L-5,7 L-4,4 Z " fill="#DFDFDF" transform="translate(12,17)"/>
<path d="M0,0 L6,0 L5,2 L-2,4 Z " fill="#CCCCCC" transform="translate(12,4)"/>
</svg>
