<?xml version="1.0" encoding="UTF-8"?>
<svg version="1.1" xmlns="http://www.w3.org/2000/svg" width="28" height="28">
<path d="M0,0 L28,0 L28,28 L0,28 Z " fill="#030303" transform="translate(0,0)"/>
<path d="M0,0 L5,1 L6,6 L4,15 L4,18 L0,17 L-4,20 L-9,19 L-9,14 L-6,11 L1,12 L3,3 L-3,4 L-3,1 Z " fill="#DDDDDD" transform="translate(15,3)"/>
<path d="M0,0 L5,1 L6,6 L5,9 L3,9 L3,3 L-3,4 L-3,1 Z " fill="#DFDFDF" transform="translate(15,3)"/>
<path d="M0,0 L4,1 L0,5 L-2,5 Z " fill="#131313" transform="translate(10,16)"/>
</svg>
