<?xml version="1.0" encoding="UTF-8"?>
<svg version="1.1" xmlns="http://www.w3.org/2000/svg" width="28" height="28">
<path d="M0,0 L28,0 L28,28 L0,28 Z " fill="#020202" transform="translate(0,0)"/>
<path d="M0,0 L6,1 L8,3 L8,20 L6,20 L6,15 L-1,19 L-4,18 L-4,13 L0,9 L5,8 L5,2 L-1,3 Z " fill="#747474" transform="translate(11,4)"/>
<path d="M0,0 L6,1 L8,3 L8,20 L6,20 L6,14 L4,14 L5,2 L-1,3 Z " fill="#D8D8D8" transform="translate(11,4)"/>
<path d="M0,0 L2,0 L1,4 L6,3 L6,5 L0,7 L-1,6 L-1,1 Z " fill="#D2D2D2" transform="translate(8,16)"/>
</svg>
