<?xml version="1.0" encoding="UTF-8"?>
<svg version="1.1" xmlns="http://www.w3.org/2000/svg" width="28" height="28">
<path d="M0,0 L28,0 L28,28 L0,28 Z " fill="#040404" transform="translate(0,0)"/>
<path d="M0,0 L5,1 L6,2 L6,10 L5,14 L10,18 L10,20 L4,18 L2,16 L-2,20 L-7,20 L-8,15 L-4,11 L3,11 L3,3 L-4,4 L-4,1 Z " fill="#E8E8E8" transform="translate(14,3)"/>
<path d="M0,0 L5,1 L6,2 L6,10 L3,14 L3,12 L1,11 L3,11 L3,3 L-4,4 L-4,1 Z " fill="#E2E2E2" transform="translate(14,3)"/>
<path d="M0,0 L4,0 L5,3 L1,7 L-4,7 L-2,2 Z " fill="#DCDCDC" transform="translate(11,16)"/>
<path d="M0,0 L3,0 L1,4 L-3,5 L-1,1 Z " fill="#161616" transform="translate(11,16)"/>
</svg>
