<?xml version="1.0" encoding="UTF-8"?>
<svg version="1.1" xmlns="http://www.w3.org/2000/svg" width="28" height="28">
<path d="M0,0 L28,0 L28,28 L0,28 Z " fill="#030303" transform="translate(0,0)"/>
<path d="M0,0 L5,1 L6,8 L4,15 L6,17 L0,19 L-5,20 L-7,18 L-7,13 L-5,11 L0,12 L2,13 L2,3 L-2,2 Z " fill="#DEDEDE" transform="translate(14,3)"/>
<path d="M0,0 L7,2 L7,4 L9,5 L4,8 L0,7 L-1,6 L-1,1 Z " fill="#CCCCCC" transform="translate(8,15)"/>
<path d="M0,0 L4,1 L2,5 L-1,5 Z " fill="#101010" transform="translate(10,16)"/>
</svg>
