<?xml version="1.0" encoding="UTF-8"?>
<svg version="1.1" xmlns="http://www.w3.org/2000/svg" width="28" height="28">
<path d="M0,0 L28,0 L28,28 L0,28 Z " fill="#030303" transform="translate(0,0)"/>
<path d="M0,0 L6,0 L7,2 L7,14 L11,15 L11,17 L3,17 L0,20 L-7,20 L-7,15 L-3,12 L3,12 L4,3 L-1,6 L-5,5 Z " fill="#DEDEDE" transform="translate(13,4)"/>
<path d="M0,0 L4,1 L4,4 L2,4 L2,6 L-4,8 L-4,3 Z " fill="#A5A5A5" transform="translate(10,16)"/>
<path d="M0,0 L3,1 L3,8 L1,8 Z " fill="#F8F8F8" transform="translate(17,5)"/>
</svg>
