<?xml version="1.0" encoding="UTF-8"?>
<svg version="1.1" xmlns="http://www.w3.org/2000/svg" width="28" height="28">
<path d="M0,0 L28,0 L28,28 L0,28 Z " fill="#020202" transform="translate(0,0)"/>
<path d="M0,0 L7,0 L8,6 L6,11 L10,9 L10,7 L16,7 L14,11 L9,14 L4,14 L2,13 L-4,14 L-4,9 L0,7 L3,7 L5,2 L2,4 L-1,4 Z " fill="#E8E8E8" transform="translate(10,6)"/>
<path d="M0,0 L3,1 L1,3 L0,5 L-2,5 L-4,7 L-4,2 Z " fill="#C7C7C7" transform="translate(10,13)"/>
<path d="M0,0 L6,0 L4,4 L0,2 Z " fill="#D7D7D7" transform="translate(20,13)"/>
</svg>
