<?xml version="1.0" encoding="UTF-8"?>
<svg version="1.1" xmlns="http://www.w3.org/2000/svg" width="28" height="28">
<path d="M0,0 L28,0 L28,28 L0,28 Z " fill="#030303" transform="translate(0,0)"/>
<path d="M0,0 L4,1 L5,2 L7,11 L10,11 L10,9 L14,11 L14,14 L6,15 L2,13 L2,15 L-3,14 L-4,10 L-1,8 L2,8 L2,3 L-2,6 L-5,6 L-3,2 Z " fill="#EAEAEA" transform="translate(11,5)"/>
<path d="M0,0 L4,1 L3,8 L2,8 L2,3 L-2,6 L-5,6 L-3,2 Z " fill="#CCCCCC" transform="translate(11,5)"/>
<path d="M0,0 L4,2 L4,5 L-2,4 Z " fill="#CDCDCD" transform="translate(21,14)"/>
</svg>
