<?xml version="1.0" encoding="UTF-8"?>
<svg version="1.1" xmlns="http://www.w3.org/2000/svg" width="28" height="28">
<path d="M0,0 L28,0 L28,28 L0,28 Z " fill="#030303" transform="translate(0,0)"/>
<path d="M0,0 L5,2 L8,4 L7,12 L11,16 L10,18 L7,16 L4,16 L0,20 L-6,20 L-8,18 L-7,13 L-4,11 L3,10 L3,4 L-5,4 L-4,1 Z " fill="#E5E5E5" transform="translate(13,3)"/>
<path d="M0,0 L5,0 L6,3 L2,7 L-4,7 L-5,5 L-3,5 L-1,1 Z " fill="#D2D2D2" transform="translate(11,16)"/>
<path d="M0,0 L5,2 L8,4 L7,6 L3,4 L-5,4 L-4,1 Z " fill="#D6D6D6" transform="translate(13,3)"/>
<path d="M0,0 L5,0 L4,3 L-2,4 Z " fill="#0F0F0F" transform="translate(10,17)"/>
</svg>
