<?xml version="1.0" encoding="UTF-8"?>
<svg version="1.1" xmlns="http://www.w3.org/2000/svg" width="28" height="28">
<path d="M0,0 L28,0 L28,28 L0,28 Z " fill="#020202" transform="translate(0,0)"/>
<path d="M0,0 L5,1 L6,7 L1,16 L1,20 L-9,20 L-10,15 L-8,13 L-1,14 L3,8 L4,3 L0,4 L-1,10 L-3,10 L-3,4 Z " fill="#C2C2C2" transform="translate(16,3)"/>
<path d="M0,0 L3,1 L5,5 L7,5 L8,3 L9,7 L-1,7 L-2,2 Z " fill="#B7B7B7" transform="translate(8,16)"/>
<path d="M0,0 L2,1 L-2,8 L-4,8 L-4,10 L-6,10 L-6,8 L-10,6 L-4,6 Z " fill="#E6E6E6" transform="translate(19,11)"/>
</svg>
