<?xml version="1.0" encoding="UTF-8"?>
<svg version="1.1" xmlns="http://www.w3.org/2000/svg" width="28" height="28">
<path d="M0,0 L28,0 L28,28 L0,28 Z " fill="#030303" transform="translate(0,0)"/>
<path d="M0,0 L7,0 L10,3 L11,13 L15,17 L14,20 L10,18 L7,16 L3,19 L-1,19 L-1,13 L2,11 L8,11 L6,4 L-3,4 L-2,1 Z " fill="#DCDCDC" transform="translate(9,4)"/>
<path d="M0,0 L4,2 L3,7 L-1,7 L-1,1 Z " fill="#C2C2C2" transform="translate(9,16)"/>
<path d="M0,0 L5,0 L6,2 L-3,4 L-2,1 Z " fill="#F4F4F4" transform="translate(9,4)"/>
</svg>
