<?xml version="1.0" encoding="UTF-8"?>
<svg version="1.1" xmlns="http://www.w3.org/2000/svg" width="28" height="28">
<path d="M0,0 L28,0 L28,28 L0,28 Z " fill="#040404" transform="translate(0,0)"/>
<path d="M0,0 L5,1 L7,4 L8,15 L2,20 L-4,20 L-7,17 L-6,13 L0,11 L5,11 L3,4 L-1,3 L-3,10 L-6,11 L-5,7 L-2,1 Z " fill="#F2F2F2" transform="translate(14,4)"/>
<path d="M0,0 L4,1 L9,1 L10,6 L7,8 L1,8 L-2,5 L-1,1 Z " fill="#D4D4D4" transform="translate(9,16)"/>
<path d="M0,0 L5,1 L6,4 L-1,3 L-3,10 L-6,11 L-5,7 L-2,1 Z " fill="#D7D7D7" transform="translate(14,4)"/>
<path d="M0,0 L5,0 L4,4 L-2,5 L-3,1 Z " fill="#151515" transform="translate(13,17)"/>
</svg>
