<?xml version="1.0" encoding="UTF-8"?>
<svg version="1.1" xmlns="http://www.w3.org/2000/svg" width="28" height="28">
<path d="M0,0 L28,0 L28,28 L0,28 Z " fill="#030303" transform="translate(0,0)"/>
<path d="M0,0 L6,1 L8,5 L8,14 L10,16 L9,20 L8,16 L4,17 L2,20 L-3,20 L-5,17 L-4,12 L-3,11 L6,11 L5,4 L1,3 L-1,3 L-2,6 L-3,3 Z " fill="#E8E8E8" transform="translate(12,3)"/>
<path d="M0,0 L6,1 L8,5 L7,13 L2,12 L6,11 L5,4 L1,3 L-1,3 L-2,6 L-3,3 Z " fill="#D6D6D6" transform="translate(12,3)"/>
<path d="M0,0 L5,0 L3,4 L-1,4 Z " fill="#252525" transform="translate(10,16)"/>
</svg>
