<?xml version="1.0" encoding="UTF-8"?>
<svg version="1.1" xmlns="http://www.w3.org/2000/svg" width="28" height="28">
<path d="M0,0 L28,0 L28,28 L0,28 Z " fill="#030303" transform="translate(0,0)"/>
<path d="M0,0 L5,1 L10,8 L10,12 L14,13 L16,14 L16,17 L14,17 L14,15 L9,15 L6,18 L0,18 L-2,16 L-1,11 L7,10 L4,4 L4,2 L1,3 L-2,7 L-4,7 L-2,2 Z " fill="#D2D2D2" transform="translate(10,4)"/>
<path d="M0,0 L1,4 L5,5 L7,6 L7,9 L5,9 L5,7 L-8,8 L-9,5 L-2,3 Z " fill="#CCCCCC" transform="translate(19,12)"/>
<path d="M0,0 L5,1 L1,3 L-2,7 L-4,7 L-2,2 Z " fill="#E7E7E7" transform="translate(10,4)"/>
<path d="M0,0 L2,0 L0,4 L-5,3 L-5,1 Z " fill="#191919" transform="translate(15,16)"/>
</svg>
