<?xml version="1.0" encoding="UTF-8"?>
<svg version="1.1" xmlns="http://www.w3.org/2000/svg" width="28" height="28">
<path d="M0,0 L28,0 L28,28 L0,28 Z " fill="#040404" transform="translate(0,0)"/>
<path d="M0,0 L5,0 L8,4 L9,16 L3,20 L-3,20 L-6,17 L-5,11 L0,9 L6,10 L4,2 L-1,5 L-5,7 L-3,3 Z " fill="#E7E7E7" transform="translate(12,4)"/>
<path d="M0,0 L5,0 L8,4 L9,16 L6,15 L5,11 L7,11 L4,2 L-1,5 L-5,7 L-3,3 Z " fill="#E1E1E1" transform="translate(12,4)"/>
<path d="M0,0 L8,0 L7,5 L0,6 L-1,1 Z " fill="#101010" transform="translate(9,16)"/>
<path d="M0,0 L2,0 L3,12 L0,11 L-1,7 L1,7 Z " fill="#F7F7F7" transform="translate(18,8)"/>
<path d="M0,0 L1,3 L-1,4 L-7,4 L-6,1 L0,2 Z " fill="#BABABA" transform="translate(18,12)"/>
<path d="M0,0 L1,3 L3,4 L-2,8 L-3,5 L-1,4 Z " fill="#C9C9C9" transform="translate(17,16)"/>
</svg>
