<?xml version="1.0" encoding="UTF-8"?>
<svg version="1.1" xmlns="http://www.w3.org/2000/svg" width="28" height="28">
<path d="M0,0 L28,0 L28,28 L0,28 Z " fill="#030303" transform="translate(0,0)"/>
<path d="M0,0 L5,1 L8,5 L10,18 L6,20 L-3,20 L-5,18 L-4,14 L-2,12 L7,13 L4,4 L0,3 L-1,7 L-3,7 L-2,1 Z " fill="#E0E0E0" transform="translate(11,3)"/>
<path d="M0,0 L5,1 L8,5 L9,11 L8,14 L6,13 L5,6 L3,3 L0,3 L-1,7 L-3,7 L-2,1 Z " fill="#D3D3D3" transform="translate(11,3)"/>
<path d="M0,0 L7,1 L5,5 L-2,4 L-2,1 Z " fill="#191919" transform="translate(10,17)"/>
</svg>
