<?xml version="1.0" encoding="UTF-8"?>
<svg version="1.1" xmlns="http://www.w3.org/2000/svg" width="28" height="28">
<path d="M0,0 L28,0 L28,28 L0,28 Z " fill="#030303" transform="translate(0,0)"/>
<path d="M0,0 L5,0 L8,3 L9,14 L10,20 L8,20 L8,17 L4,20 L0,19 L-1,14 L1,11 L7,12 L5,3 L0,4 L-2,5 L-1,1 Z " fill="#D4D4D4" transform="translate(10,4)"/>
<path d="M0,0 L6,1 L3,8 L0,9 L-2,7 L-1,1 Z " fill="#CCCCCC" transform="translate(11,15)"/>
<path d="M0,0 L5,1 L3,5 L0,5 Z " fill="#1A1A1A" transform="translate(11,17)"/>
</svg>
