<?xml version="1.0" encoding="UTF-8"?>
<svg version="1.1" xmlns="http://www.w3.org/2000/svg" width="28" height="28">
<path d="M0,0 L28,0 L28,28 L0,28 Z " fill="#030303" transform="translate(0,0)"/>
<path d="M0,0 L6,1 L6,8 L1,14 L-1,14 L-1,16 L4,18 L8,17 L7,20 L2,20 L-1,18 L-4,19 L-3,13 L-1,13 L-1,11 L3,7 L3,2 L-1,3 L-1,6 L1,7 L-2,8 L-3,7 L-3,2 Z " fill="#D7D7D7" transform="translate(13,4)"/>
<path d="M0,0 L6,1 L5,6 L2,2 L-1,3 L-1,6 L1,7 L-2,8 L-3,7 L-3,2 Z " fill="#C1C1C1" transform="translate(13,4)"/>
<path d="M0,0 L1,0 L1,6 L-3,10 L-3,7 Z " fill="#EDEDED" transform="translate(18,6)"/>
</svg>
