<?xml version="1.0" encoding="UTF-8"?>
<svg version="1.1" xmlns="http://www.w3.org/2000/svg" width="28" height="28">
<path d="M0,0 L28,0 L28,28 L0,28 Z " fill="#020202" transform="translate(0,0)"/>
<path d="M0,0 L5,0 L10,5 L11,9 L9,16 L11,17 L10,19 L5,18 L1,20 L-3,20 L-2,15 L-1,14 L7,14 L8,6 L5,3 L-1,3 Z " fill="#CECECE" transform="translate(10,3)"/>
<path d="M0,0 L8,0 L8,2 L6,2 L6,4 L2,6 L-2,6 L-1,1 Z " fill="#DBDBDB" transform="translate(9,17)"/>
<path d="M0,0 L7,0 L5,1 L5,3 L-1,4 Z " fill="#747474" transform="translate(9,17)"/>
</svg>
