<?xml version="1.0" encoding="UTF-8"?>
<svg version="1.1" xmlns="http://www.w3.org/2000/svg" width="28" height="28">
<path d="M0,0 L28,0 L28,28 L0,28 Z " fill="#030303" transform="translate(0,0)"/>
<path d="M0,0 L6,0 L10,4 L10,14 L11,17 L13,17 L13,20 L10,19 L9,17 L4,19 L-2,20 L-4,18 L-3,14 L3,11 L8,11 L6,2 L0,4 L-4,6 L-2,2 Z " fill="#DDDDDD" transform="translate(10,4)"/>
<path d="M0,0 L5,0 L6,4 L1,7 L-4,6 L-5,2 L-1,3 Z " fill="#BBBBBB" transform="translate(11,17)"/>
<path d="M0,0 L4,0 L2,4 L-2,3 Z " fill="#161616" transform="translate(11,17)"/>
</svg>
