<?xml version="1.0" encoding="UTF-8"?>
<svg version="1.1" xmlns="http://www.w3.org/2000/svg" width="28" height="28">
<path d="M0,0 L28,0 L28,28 L0,28 Z " fill="#050505" transform="translate(0,0)"/>
<path d="M0,0 L3,3 L1,9 L-2,13 L-4,13 L-4,15 L2,16 L3,20 L-5,19 L-14,20 L-14,17 L-9,14 L-7,14 L-7,12 L-5,12 L-4,9 L-2,9 L-2,7 L0,7 L0,3 L-10,8 L-12,8 L-12,5 L-6,1 Z " fill="#DFDFDF" transform="translate(19,3)"/>
<path d="M0,0 L2,1 L2,4 L-4,7 L-6,7 L-6,4 Z " fill="#C3C3C3" transform="translate(13,4)"/>
<path d="M0,0 L3,3 L3,5 L1,5 L1,3 L-6,4 L-4,1 Z " fill="#F6F6F6" transform="translate(19,3)"/>
</svg>
