<?xml version="1.0" encoding="UTF-8"?>
<svg version="1.1" xmlns="http://www.w3.org/2000/svg" width="28" height="28">
<path d="M0,0 L28,0 L28,28 L0,28 Z " fill="#020202" transform="translate(0,0)"/>
<path d="M0,0 L6,0 L11,6 L12,12 L19,17 L16,18 L10,14 L5,18 L0,17 L1,9 L6,7 L8,8 L6,3 L-1,3 Z " fill="#BDBDBD" transform="translate(7,5)"/>
<path d="M0,0 L5,1 L4,6 L-1,7 L-1,1 Z " fill="#050505" transform="translate(10,14)"/>
<path d="M0,0 L5,2 L9,6 L4,5 Z " fill="#ADADAD" transform="translate(17,17)"/>
</svg>
