<?xml version="1.0" encoding="UTF-8"?>
<svg version="1.1" xmlns="http://www.w3.org/2000/svg" width="28" height="28">
<path d="M0,0 L28,0 L28,28 L0,28 Z " fill="#030303" transform="translate(0,0)"/>
<path d="M0,0 L3,0 L6,6 L6,11 L12,15 L9,16 L4,15 L1,19 L-6,19 L-8,18 L-8,13 L-7,12 L2,10 L2,6 L-5,5 L-5,3 Z " fill="#D6D6D6" transform="translate(14,3)"/>
<path d="M0,0 L8,1 L6,5 L-1,6 L-1,1 Z " fill="#909090" transform="translate(7,15)"/>
<path d="M0,0 L3,0 L3,3 L-4,4 L-4,2 Z " fill="#F0F0F0" transform="translate(13,4)"/>
</svg>
