<?xml version="1.0" encoding="UTF-8"?>
<svg version="1.1" xmlns="http://www.w3.org/2000/svg" width="28" height="28">
<path d="M0,0 L28,0 L28,28 L0,28 Z " fill="#040404" transform="translate(0,0)"/>
<path d="M0,0 L5,1 L6,2 L6,19 L1,15 L-1,19 L-6,20 L-7,16 L-2,12 L2,11 L3,4 L0,3 L0,6 L-2,6 L-1,1 Z " fill="#E3E3E3" transform="translate(13,4)"/>
<path d="M0,0 L5,1 L6,2 L6,8 L4,8 L3,4 L0,3 L0,6 L-2,6 L-1,1 Z " fill="#E7E7E7" transform="translate(13,4)"/>
<path d="M0,0 L5,0 L6,3 L2,6 L-2,5 L-1,1 Z " fill="#B3B3B3" transform="translate(8,18)"/>
</svg>
