<?xml version="1.0" encoding="UTF-8"?>
<svg version="1.1" xmlns="http://www.w3.org/2000/svg" width="28" height="28">
<path d="M0,0 L28,0 L28,28 L0,28 Z " fill="#040404" transform="translate(0,0)"/>
<path d="M0,0 L5,0 L6,5 L5,10 L3,11 L0,16 L-3,19 L-7,20 L-8,19 L-7,12 L-2,7 L3,7 L3,3 L-3,6 L-5,6 L-5,3 Z " fill="#EDEDED" transform="translate(15,5)"/>
<path d="M0,0 L2,1 L-4,10 L4,4 L3,8 L-1,12 L-5,13 L-6,12 L-5,5 Z " fill="#EDEDED" transform="translate(13,12)"/>
<path d="M0,0 L2,0 L0,5 L-3,8 L-5,8 L-3,3 Z " fill="#333333" transform="translate(14,14)"/>
<path d="M0,0 L6,1 L5,5 L5,2 L-1,5 L-3,5 L-3,2 Z " fill="#B9B9B9" transform="translate(13,6)"/>
</svg>
