<?xml version="1.0" encoding="UTF-8"?>
<svg version="1.1" xmlns="http://www.w3.org/2000/svg" width="28" height="28">
<path d="M0,0 L28,0 L28,28 L0,28 Z " fill="#020202" transform="translate(0,0)"/>
<path d="M0,0 L6,0 L9,2 L9,9 L8,14 L9,20 L7,20 L5,15 L-1,19 L-5,19 L-5,13 L-2,11 L5,10 L7,3 L-1,3 L-4,5 L-2,1 Z " fill="#C1C1C1" transform="translate(12,4)"/>
<path d="M0,0 L5,1 L5,3 L7,4 L1,8 L-3,8 L-3,2 Z " fill="#BCBCBC" transform="translate(10,15)"/>
<path d="M0,0 L7,0 L10,5 L10,9 L8,9 L7,3 L4,3 L4,1 Z " fill="#DADADA" transform="translate(11,15)"/>
<path d="M0,0 L6,0 L2,4 L-1,4 Z " fill="#121212" transform="translate(9,17)"/>
</svg>
