<?xml version="1.0" encoding="UTF-8"?>
<svg version="1.1" xmlns="http://www.w3.org/2000/svg" width="28" height="28">
<path d="M0,0 L28,0 L28,28 L0,28 Z " fill="#030303" transform="translate(0,0)"/>
<path d="M0,0 L6,0 L10,5 L9,14 L13,17 L13,20 L10,20 L8,17 L3,18 L2,19 L-4,19 L-5,14 L-4,12 L6,11 L7,7 L5,3 L-1,4 Z " fill="#DBDBDB" transform="translate(11,3)"/>
<path d="M0,0 L6,4 L6,7 L3,7 L-1,2 Z " fill="#CCCCCC" transform="translate(18,16)"/>
<path d="M0,0 L4,1 L4,3 L-2,4 Z " fill="#212121" transform="translate(10,16)"/>
</svg>
