<?xml version="1.0" encoding="UTF-8"?>
<svg version="1.1" xmlns="http://www.w3.org/2000/svg" width="28" height="28">
<path d="M0,0 L28,0 L28,28 L0,28 Z " fill="#040404" transform="translate(0,0)"/>
<path d="M0,0 L5,1 L7,3 L8,12 L12,18 L6,17 L2,20 L-5,19 L-6,18 L-6,13 L1,11 L4,11 L3,4 L-4,6 L-3,2 Z " fill="#ECECEC" transform="translate(12,3)"/>
<path d="M0,0 L5,1 L7,5 L5,5 L5,12 L-3,16 L0,18 L0,20 L-5,19 L-6,18 L-6,13 L1,11 L4,11 L3,4 L-4,6 L-3,2 Z " fill="#D2D2D2" transform="translate(12,3)"/>
<path d="M0,0 L9,0 L5,2 L2,5 L5,6 L5,8 L0,7 L-1,6 L-1,1 Z " fill="#F3F3F3" transform="translate(7,15)"/>
<path d="M0,0 L4,1 L0,5 L-4,4 Z " fill="#2E2E2E" transform="translate(12,16)"/>
</svg>
