<?xml version="1.0" encoding="UTF-8"?>
<svg version="1.1" xmlns="http://www.w3.org/2000/svg" width="28" height="28">
<path d="M0,0 L28,0 L28,28 L0,28 Z " fill="#040404" transform="translate(0,0)"/>
<path d="M0,0 L10,0 L16,5 L15,11 L14,13 L17,14 L16,16 L1,16 L-3,14 L-3,9 L-1,7 L6,7 L11,9 L11,5 L9,4 L-1,3 Z " fill="#D9D9D9" transform="translate(7,6)"/>
<path d="M0,0 L5,0 L5,2 L10,4 L9,7 L5,7 L5,9 L0,8 L-2,7 L-2,2 Z " fill="#DEDEDE" transform="translate(6,13)"/>
<path d="M0,0 L9,2 L11,2 L10,6 L13,7 L12,9 L0,9 L0,7 L4,6 L4,4 L-1,2 Z " fill="#F2F2F2" transform="translate(11,13)"/>
<path d="M0,0 L8,0 L9,3 L1,3 Z " fill="#151515" transform="translate(7,16)"/>
</svg>
