<?xml version="1.0" encoding="UTF-8"?>
<svg version="1.1" xmlns="http://www.w3.org/2000/svg" width="28" height="28">
<path d="M0,0 L28,0 L28,28 L0,28 Z " fill="#040404" transform="translate(0,0)"/>
<path d="M0,0 L6,2 L8,6 L9,14 L10,17 L4,18 L-3,20 L-6,19 L-8,14 L-3,10 L5,11 L3,5 L-4,4 L-6,4 L-6,2 Z " fill="#EBEBEB" transform="translate(13,3)"/>
<path d="M0,0 L6,2 L8,6 L8,14 L5,11 L3,5 L-4,4 L-6,4 L-6,2 Z " fill="#E2E2E2" transform="translate(13,3)"/>
<path d="M0,0 L1,4 L6,4 L6,6 L2,7 L-1,6 L-2,2 Z " fill="#F3F3F3" transform="translate(8,16)"/>
<path d="M0,0 L5,1 L2,4 L-2,4 L-2,1 Z " fill="#191919" transform="translate(11,16)"/>
<path d="M0,0 L5,0 L1,1 L1,4 L-3,5 L-5,6 L-3,2 Z " fill="#C6C6C6" transform="translate(10,13)"/>
</svg>
