<?xml version="1.0" encoding="UTF-8"?>
<svg version="1.1" xmlns="http://www.w3.org/2000/svg" width="28" height="28">
<path d="M0,0 L28,0 L28,28 L0,28 Z " fill="#050505" transform="translate(0,0)"/>
<path d="M0,0 L5,0 L6,1 L6,8 L4,14 L4,17 L-1,17 L-6,20 L-10,20 L-10,14 L-8,12 L1,12 L2,7 L4,3 L-3,4 Z " fill="#EBEBEB" transform="translate(15,3)"/>
<path d="M0,0 L5,2 L4,7 L-2,8 L-2,2 Z " fill="#E7E7E7" transform="translate(7,15)"/>
<path d="M0,0 L5,2 L2,5 L-2,4 Z " fill="#7B7B7B" transform="translate(7,15)"/>
</svg>
