<?xml version="1.0" encoding="UTF-8"?>
<svg version="1.1" xmlns="http://www.w3.org/2000/svg" width="28" height="28">
<path d="M0,0 L28,0 L28,28 L0,28 Z " fill="#030303" transform="translate(0,0)"/>
<path d="M0,0 L6,0 L9,3 L7,9 L4,14 L7,14 L7,16 L2,17 L-2,18 L-4,19 L-10,19 L-11,16 L-8,9 L-1,10 L1,11 L2,9 L4,9 L5,4 L-2,5 L-3,2 Z " fill="#E0E0E0" transform="translate(15,4)"/>
<path d="M0,0 L6,0 L9,3 L8,7 L4,9 L5,4 L-2,5 L-3,2 Z " fill="#F0F0F0" transform="translate(15,4)"/>
<path d="M0,0 L4,2 L3,5 L-2,6 L-1,1 Z " fill="#282828" transform="translate(8,15)"/>
<path d="M0,0 L6,0 L6,1 L1,2 L2,4 L-2,5 L-3,2 Z " fill="#A9A9A9" transform="translate(15,4)"/>
</svg>
