<?xml version="1.0" encoding="UTF-8"?>
<svg version="1.1" xmlns="http://www.w3.org/2000/svg" width="28" height="28">
<path d="M0,0 L28,0 L28,28 L0,28 Z " fill="#030303" transform="translate(0,0)"/>
<path d="M0,0 L7,0 L11,4 L11,8 L16,9 L19,11 L19,14 L10,12 L5,16 L-1,15 L0,11 L3,8 L9,8 L7,4 L0,3 Z " fill="#E5E5E5" transform="translate(7,6)"/>
<path d="M0,0 L4,1 L5,4 L4,7 L-2,8 L-4,7 L-3,3 Z " fill="#E1E1E1" transform="translate(10,14)"/>
<path d="M0,0 L4,1 L5,4 L-2,5 L-1,1 Z " fill="#7D7D7D" transform="translate(10,14)"/>
</svg>
