<?xml version="1.0" encoding="UTF-8"?>
<svg version="1.1" xmlns="http://www.w3.org/2000/svg" width="28" height="28">
<path d="M0,0 L28,0 L28,28 L0,28 Z " fill="#040404" transform="translate(0,0)"/>
<path d="M0,0 L3,0 L2,3 L-3,6 L-4,8 L4,7 L2,9 L-7,11 L-9,10 L-8,6 Z " fill="#C9C9C9" transform="translate(15,12)"/>
<path d="M0,0 L5,1 L10,4 L10,8 L6,9 L5,4 L0,3 Z " fill="#E1E1E1" transform="translate(13,3)"/>
<path d="M0,0 L1,2 L10,1 L8,3 L-1,5 L-1,1 Z " fill="#F1F1F1" transform="translate(9,18)"/>
</svg>
