<?xml version="1.0" encoding="UTF-8"?>
<svg version="1.1" xmlns="http://www.w3.org/2000/svg" width="28" height="28">
<path d="M0,0 L28,0 L28,28 L0,28 Z " fill="#020202" transform="translate(0,0)"/>
<path d="M0,0 L4,1 L5,8 L3,14 L6,15 L1,16 L-2,20 L-6,19 L-5,16 L-2,18 L-1,14 L-4,13 L1,12 L2,4 L-2,5 L-5,11 L-7,11 L-6,6 L-2,1 Z " fill="#ECECEC" transform="translate(15,4)"/>
<path d="M0,0 L4,1 L3,9 L0,11 L-1,15 L-5,15 L-6,12 L-2,2 Z " fill="#141414" transform="translate(14,7)"/>
<path d="M0,0 L4,1 L5,8 L4,4 L-1,4 L-5,11 L-7,11 L-6,6 L-2,1 Z " fill="#CFCFCF" transform="translate(15,4)"/>
<path d="M0,0 L5,1 L4,5 L0,5 L-1,2 Z " fill="#777777" transform="translate(9,17)"/>
</svg>
