<?xml version="1.0" encoding="UTF-8"?>
<svg version="1.1" xmlns="http://www.w3.org/2000/svg" width="28" height="28">
<path d="M0,0 L28,0 L28,28 L0,28 Z " fill="#040404" transform="translate(0,0)"/>
<path d="M0,0 L5,1 L6,5 L4,11 L6,14 L5,19 L3,19 L3,13 L-2,16 L-8,20 L-12,19 L-11,15 L-6,11 L0,10 L4,2 L-4,7 L-8,7 L-6,3 Z " fill="#E9E9E9" transform="translate(16,4)"/>
<path d="M0,0 L4,1 L5,4 L0,8 L-5,9 L-6,5 Z " fill="#A4A4A4" transform="translate(10,15)"/>
<path d="M0,0 L4,0 L5,6 L2,7 L2,1 Z " fill="#C7C7C7" transform="translate(17,16)"/>
</svg>
