<?xml version="1.0" encoding="UTF-8"?>
<svg version="1.1" xmlns="http://www.w3.org/2000/svg" width="28" height="28">
<path d="M0,0 L28,0 L28,28 L0,28 Z " fill="#040404" transform="translate(0,0)"/>
<path d="M0,0 L9,0 L8,7 L4,11 L6,12 L6,14 L0,14 L-4,16 L-9,16 L-10,12 L-5,8 L0,9 L2,10 L2,8 L6,4 L7,2 L-2,3 L-2,1 Z " fill="#E4E4E4" transform="translate(14,6)"/>
<path d="M0,0 L9,0 L8,7 L6,8 L7,2 L-2,3 L-2,1 Z " fill="#F1F1F1" transform="translate(14,6)"/>
<path d="M0,0 L3,1 L4,4 L0,6 L-3,6 L-4,3 Z " fill="#7F7F7F" transform="translate(9,14)"/>
</svg>
