<?xml version="1.0" encoding="UTF-8"?>
<svg version="1.1" xmlns="http://www.w3.org/2000/svg" width="28" height="28">
<path d="M0,0 L28,0 L28,28 L0,28 Z " fill="#020202" transform="translate(0,0)"/>
<path d="M0,0 L8,0 L12,3 L12,13 L2,18 L-4,18 L-7,16 L-6,11 L4,9 L4,10 L9,10 L10,8 L8,7 L8,3 L0,2 Z " fill="#DFDFDF" transform="translate(10,5)"/>
<path d="M0,0 L8,0 L12,3 L12,13 L9,12 L10,8 L8,7 L8,3 L0,2 Z " fill="#D3D3D3" transform="translate(10,5)"/>
<path d="M0,0 L3,0 L3,2 L7,2 L7,0 L10,1 L8,4 L0,4 Z " fill="#101010" transform="translate(6,17)"/>
<path d="M0,0 L2,2 L2,4 L10,5 L8,7 L2,7 L-1,5 Z " fill="#ADADAD" transform="translate(4,16)"/>
<path d="M0,0 L4,1 L3,4 L-3,4 L-3,1 Z " fill="#656565" transform="translate(16,12)"/>
</svg>
