<?xml version="1.0" encoding="UTF-8"?>
<svg version="1.1" xmlns="http://www.w3.org/2000/svg" width="28" height="28">
<path d="M0,0 L28,0 L28,28 L0,28 Z " fill="#020202" transform="translate(0,0)"/>
<path d="M0,0 L4,1 L3,9 L2,13 L3,17 L-2,16 L-8,20 L-14,20 L-13,14 L-8,11 L-1,10 L0,6 L-9,9 L-9,6 Z " fill="#E4E4E4" transform="translate(18,4)"/>
<path d="M0,0 L3,1 L2,4 L-3,7 L-6,6 L-2,1 Z " fill="#202020" transform="translate(11,16)"/>
<path d="M0,0 L1,2 L-4,7 L-6,9 L-5,3 Z " fill="#CCCCCC" transform="translate(10,15)"/>
<path d="M0,0 L2,0 L1,5 L-4,5 L-2,1 Z " fill="#212121" transform="translate(16,10)"/>
</svg>
