<?xml version="1.0" encoding="UTF-8"?>
<svg version="1.1" xmlns="http://www.w3.org/2000/svg" width="28" height="28">
<path d="M0,0 L28,0 L28,28 L0,28 Z " fill="#030303" transform="translate(0,0)"/>
<path d="M0,0 L6,1 L8,4 L9,16 L4,15 L-3,19 L-10,20 L-9,16 L-2,12 L4,9 L4,4 L-4,5 L-4,2 Z " fill="#E9E9E9" transform="translate(13,4)"/>
<path d="M0,0 L3,1 L3,3 L-6,6 L-8,8 L-7,4 Z " fill="#9D9D9D" transform="translate(11,16)"/>
<path d="M0,0 L2,1 L1,4 L-4,5 L-4,2 Z " fill="#D3D3D3" transform="translate(13,4)"/>
</svg>
