<?xml version="1.0" encoding="UTF-8"?>
<svg version="1.1" xmlns="http://www.w3.org/2000/svg" width="28" height="28">
<path d="M0,0 L28,0 L28,28 L0,28 Z " fill="#020202" transform="translate(0,0)"/>
<path d="M0,0 L7,0 L8,1 L8,9 L7,11 L12,12 L13,16 L6,12 L4,18 L2,20 L-2,19 L-3,14 L-1,11 L4,10 L6,2 L0,2 Z " fill="#D8D8D8" transform="translate(10,4)"/>
<path d="M0,0 L7,0 L8,1 L8,9 L6,10 L6,2 L0,2 Z " fill="#B7B7B7" transform="translate(10,4)"/>
<path d="M0,0 L3,0 L2,5 L-1,7 L-2,2 Z " fill="#131313" transform="translate(11,16)"/>
<path d="M0,0 L2,0 L1,7 L3,7 L3,9 L-1,8 L-2,3 Z " fill="#BABABA" transform="translate(9,15)"/>
</svg>
