<?xml version="1.0" encoding="UTF-8"?>
<svg version="1.1" xmlns="http://www.w3.org/2000/svg" width="28" height="28">
<path d="M0,0 L28,0 L28,28 L0,28 Z " fill="#040404" transform="translate(0,0)"/>
<path d="M0,0 L8,0 L11,3 L11,10 L10,14 L12,16 L9,17 L6,16 L0,18 L-7,18 L-8,13 L-2,10 L5,10 L7,11 L8,3 L-2,3 L-2,1 Z " fill="#E0E0E0" transform="translate(11,4)"/>
<path d="M0,0 L5,0 L6,2 L-1,3 L-4,4 L-4,6 L4,5 L4,7 L2,8 L-5,8 L-6,3 Z " fill="#E9E9E9" transform="translate(9,14)"/>
<path d="M0,0 L8,0 L11,3 L11,5 L9,5 L8,8 L8,3 L-2,3 L-2,1 Z " fill="#D8D8D8" transform="translate(11,4)"/>
<path d="M0,0 L6,0 L7,2 L2,4 L-3,4 L-3,2 Z " fill="#303030" transform="translate(8,16)"/>
</svg>
