<?xml version="1.0" encoding="UTF-8"?>
<svg version="1.1" xmlns="http://www.w3.org/2000/svg" width="28" height="28">
<path d="M0,0 L28,0 L28,28 L0,28 Z " fill="#040404" transform="translate(0,0)"/>
<path d="M0,0 L7,1 L10,5 L9,13 L14,13 L14,15 L7,14 L6,17 L1,20 L-3,19 L-4,18 L-4,13 L-2,11 L6,11 L7,7 L6,4 L-2,3 L-3,5 L-5,4 L-4,1 Z " fill="#CECECE" transform="translate(11,4)"/>
<path d="M0,0 L7,0 L6,2 L8,3 L8,6 L3,9 L-1,8 L-2,7 L-2,2 Z " fill="#EBEBEB" transform="translate(9,15)"/>
<path d="M0,0 L1,3 L7,3 L7,5 L0,4 L-1,6 L-1,4 L-8,3 L-8,2 L-1,1 Z " fill="#F0F0F0" transform="translate(18,14)"/>
<path d="M0,0 L5,0 L5,3 L2,5 L-1,5 Z " fill="#2D2D2D" transform="translate(10,17)"/>
<path d="M0,0 L7,0 L7,1 L1,1 L-1,7 L-2,7 L-2,2 Z " fill="#B1B1B1" transform="translate(9,15)"/>
</svg>
