<?xml version="1.0" encoding="UTF-8"?>
<svg version="1.1" xmlns="http://www.w3.org/2000/svg" width="28" height="28">
<path d="M0,0 L28,0 L28,28 L0,28 Z " fill="#030303" transform="translate(0,0)"/>
<path d="M0,0 L9,1 L11,3 L11,14 L16,18 L9,17 L5,20 L-1,20 L-4,17 L-4,12 L0,10 L9,11 L9,3 L0,3 L-4,5 L-3,2 Z " fill="#E6E6E6" transform="translate(9,4)"/>
<path d="M0,0 L7,1 L7,5 L5,6 L-1,6 L-2,1 Z " fill="#0C0C0C" transform="translate(9,16)"/>
<path d="M0,0 L3,0 L3,2 L-2,3 L-1,7 L7,7 L8,3 L9,7 L5,10 L-1,10 L-4,7 L-4,2 Z " fill="#B9B9B9" transform="translate(9,14)"/>
<path d="M0,0 L9,1 L11,4 L9,5 L9,3 L0,3 L-4,5 L-3,2 Z " fill="#C0C0C0" transform="translate(9,4)"/>
</svg>
