<?xml version="1.0" encoding="UTF-8"?>
<svg version="1.1" xmlns="http://www.w3.org/2000/svg" width="28" height="28">
<path d="M0,0 L28,0 L28,28 L0,28 Z " fill="#030303" transform="translate(0,0)"/>
<path d="M0,0 L4,1 L7,4 L10,12 L11,16 L6,14 L5,18 L0,20 L-5,17 L-4,12 L-3,10 L1,8 L4,8 L4,4 L-3,5 L-2,1 Z " fill="#C1C1C1" transform="translate(12,4)"/>
<path d="M0,0 L2,1 L1,4 L-1,4 L0,7 L5,5 L6,8 L2,11 L-4,9 L-5,5 L-3,1 Z " fill="#EAEAEA" transform="translate(12,13)"/>
<path d="M0,0 L4,1 L4,4 L-3,5 L-2,1 Z " fill="#D9D9D9" transform="translate(12,4)"/>
</svg>
