<?xml version="1.0" encoding="UTF-8"?>
<svg version="1.1" xmlns="http://www.w3.org/2000/svg" width="28" height="28">
<path d="M0,0 L28,0 L28,28 L0,28 Z " fill="#040404" transform="translate(0,0)"/>
<path d="M0,0 L7,1 L9,5 L11,5 L12,11 L15,12 L11,14 L8,19 L1,20 L-3,17 L-3,15 L-5,15 L-3,11 L10,12 L7,5 L0,2 Z " fill="#D0D0D0" transform="translate(10,3)"/>
<path d="M0,0 L7,1 L9,5 L11,5 L12,11 L15,12 L11,14 L7,18 L6,14 L-2,13 L-2,12 L10,12 L7,5 L0,2 Z " fill="#E3E3E3" transform="translate(10,3)"/>
<path d="M0,0 L10,0 L8,3 L2,3 Z " fill="#0B0B0B" transform="translate(8,17)"/>
</svg>
