<?xml version="1.0" encoding="UTF-8"?>
<svg version="1.1" xmlns="http://www.w3.org/2000/svg" width="28" height="28">
<path d="M0,0 L28,0 L28,28 L0,28 Z " fill="#030303" transform="translate(0,0)"/>
<path d="M0,0 L8,1 L11,4 L10,12 L9,17 L10,20 L4,19 L-3,20 L-5,18 L-4,13 L2,13 L6,14 L8,10 L9,4 L0,3 L0,8 L4,3 L3,9 L-2,10 L-3,9 L-3,2 Z " fill="#D3D3D3" transform="translate(11,4)"/>
<path d="M0,0 L5,2 L7,6 L6,7 L1,7 L-1,5 Z " fill="#818181" transform="translate(7,17)"/>
<path d="M0,0 L6,0 L3,1 L1,6 L-1,7 L-1,1 Z " fill="#262626" transform="translate(11,6)"/>
</svg>
