<?xml version="1.0" encoding="UTF-8"?>
<svg version="1.1" xmlns="http://www.w3.org/2000/svg" width="28" height="28">
<path d="M0,0 L28,0 L28,28 L0,28 Z " fill="#030303" transform="translate(0,0)"/>
<path d="M0,0 L4,1 L7,5 L7,14 L6,17 L8,19 L1,19 L-8,20 L-10,16 L-7,14 L3,14 L4,9 L2,3 L-1,1 Z " fill="#E1E1E1" transform="translate(14,2)"/>
<path d="M0,0 L4,1 L7,5 L7,14 L4,17 L3,14 L4,9 L2,3 L-1,1 Z " fill="#E2E2E2" transform="translate(14,2)"/>
<path d="M0,0 L6,0 L6,4 L0,4 L-3,4 L-2,1 Z " fill="#969696" transform="translate(7,16)"/>
</svg>
