<?xml version="1.0" encoding="UTF-8"?>
<svg version="1.1" xmlns="http://www.w3.org/2000/svg" width="28" height="28">
<path d="M0,0 L28,0 L28,28 L0,28 Z " fill="#020202" transform="translate(0,0)"/>
<path d="M0,0 L4,1 L5,3 L5,12 L3,19 L3,20 L-6,20 L-9,18 L-9,12 L-8,11 L-3,11 L0,14 L1,13 L2,3 L-6,5 L-5,2 Z " fill="#CDCDCD" transform="translate(15,3)"/>
<path d="M0,0 L4,1 L5,3 L5,12 L3,12 L3,3 L-6,5 L-5,2 Z " fill="#D3D3D3" transform="translate(15,3)"/>
<path d="M0,0 L5,0 L9,5 L7,5 L6,7 L5,2 L-1,4 Z " fill="#D7D7D7" transform="translate(7,14)"/>
<path d="M0,0 L4,0 L5,5 L0,4 Z " fill="#0E0E0E" transform="translate(8,16)"/>
</svg>
