<?xml version="1.0" encoding="UTF-8"?>
<svg version="1.1" xmlns="http://www.w3.org/2000/svg" width="28" height="28">
<path d="M0,0 L28,0 L28,28 L0,28 Z " fill="#030303" transform="translate(0,0)"/>
<path d="M0,0 L8,0 L9,4 L4,11 L10,12 L9,15 L5,14 L1,13 L-4,16 L-9,16 L-9,12 L-6,8 L2,7 L5,2 L-4,4 L-3,1 Z " fill="#C0C0C0" transform="translate(14,6)"/>
<path d="M0,0 L6,0 L3,2 L-1,4 L-4,4 L-3,1 Z " fill="#E3E3E3" transform="translate(14,6)"/>
<path d="M0,0 L1,2 L6,1 L5,4 L0,4 Z " fill="#EFEFEF" transform="translate(5,18)"/>
</svg>
