<?xml version="1.0" encoding="UTF-8"?>
<svg version="1.1" xmlns="http://www.w3.org/2000/svg" width="28" height="28">
<path d="M0,0 L28,0 L28,28 L0,28 Z " fill="#040404" transform="translate(0,0)"/>
<path d="M0,0 L5,1 L7,6 L4,13 L3,15 L8,15 L7,18 L-1,17 L-6,20 L-12,19 L-11,14 L-7,12 L0,12 L3,9 L4,3 L-2,3 L-8,6 L-11,6 L-11,4 L-5,1 Z " fill="#E0E0E0" transform="translate(16,4)"/>
<path d="M0,0 L7,1 L4,2 L4,4 L1,7 L-3,8 L-5,7 L-4,2 Z " fill="#C0C0C0" transform="translate(9,16)"/>
<path d="M0,0 L5,0 L3,5 L-3,4 L-3,2 Z " fill="#6D6D6D" transform="translate(7,19)"/>
</svg>
