<?xml version="1.0" encoding="UTF-8"?>
<svg version="1.1" xmlns="http://www.w3.org/2000/svg" width="28" height="28">
<path d="M0,0 L28,0 L28,28 L0,28 Z " fill="#030303" transform="translate(0,0)"/>
<path d="M0,0 L8,0 L11,4 L8,13 L11,14 L5,17 L0,20 L-7,20 L-8,19 L-8,14 L-3,11 L6,10 L8,4 L2,6 L-2,7 L-4,3 L0,2 Z " fill="#F0F0F0" transform="translate(12,5)"/>
<path d="M0,0 L8,0 L11,4 L10,9 L7,9 L8,4 L2,6 L-2,7 L-4,3 L0,2 Z " fill="#E0E0E0" transform="translate(12,5)"/>
<path d="M0,0 L5,1 L2,5 L-4,6 L-3,2 Z " fill="#1C1C1C" transform="translate(10,18)"/>
<path d="M0,0 L9,0 L6,2 L-1,4 L-5,5 L-4,2 Z " fill="#CACACA" transform="translate(9,16)"/>
</svg>
