<?xml version="1.0" encoding="UTF-8"?>
<svg version="1.1" xmlns="http://www.w3.org/2000/svg" width="28" height="28">
<path d="M0,0 L28,0 L28,28 L0,28 Z " fill="#030303" transform="translate(0,0)"/>
<path d="M0,0 L8,0 L9,3 L6,8 L5,11 L5,14 L-1,14 L-4,16 L-10,16 L-9,11 L-6,8 L3,8 L3,6 L5,6 L6,2 L-1,3 Z " fill="#E0E0E0" transform="translate(14,6)"/>
<path d="M0,0 L8,0 L9,3 L6,8 L3,8 L6,2 L-1,3 Z " fill="#EAEAEA" transform="translate(14,6)"/>
<path d="M0,0 L3,0 L3,5 L-1,6 L-2,2 Z " fill="#8B8B8B" transform="translate(8,16)"/>
</svg>
