<?xml version="1.0" encoding="UTF-8"?>
<svg version="1.1" xmlns="http://www.w3.org/2000/svg" width="28" height="28">
<path d="M0,0 L28,0 L28,28 L0,28 Z " fill="#030303" transform="translate(0,0)"/>
<path d="M0,0 L9,1 L10,8 L8,12 L9,18 L6,18 L1,17 L-4,20 L-9,20 L-8,15 L-4,12 L4,11 L6,8 L7,3 L3,5 L-2,4 Z " fill="#E6E6E6" transform="translate(12,4)"/>
<path d="M0,0 L9,1 L10,8 L7,12 L6,8 L7,3 L3,5 L-2,4 Z " fill="#E7E7E7" transform="translate(12,4)"/>
<path d="M0,0 L3,1 L3,4 L1,4 L0,8 L-5,8 L-4,3 Z " fill="#B2B2B2" transform="translate(8,16)"/>
</svg>
