<?xml version="1.0" encoding="UTF-8"?>
<svg version="1.1" xmlns="http://www.w3.org/2000/svg" width="28" height="28">
<path d="M0,0 L28,0 L28,28 L0,28 Z " fill="#040404" transform="translate(0,0)"/>
<path d="M0,0 L5,0 L7,2 L6,9 L6,13 L11,15 L10,17 L0,15 L-3,17 L-8,17 L-9,13 L-7,11 L1,10 L4,6 L5,3 L-4,4 L-3,1 Z " fill="#DDDDDD" transform="translate(14,5)"/>
<path d="M0,0 L5,1 L5,3 L-2,5 L-1,1 Z " fill="#838383" transform="translate(7,16)"/>
<path d="M0,0 L2,0 L1,7 L-2,8 Z " fill="#ECECEC" transform="translate(19,7)"/>
</svg>
