<?xml version="1.0" encoding="UTF-8"?>
<svg version="1.1" xmlns="http://www.w3.org/2000/svg" width="28" height="28">
<path d="M0,0 L28,0 L28,28 L0,28 Z " fill="#050505" transform="translate(0,0)"/>
<path d="M0,0 L2,0 L4,7 L0,14 L-3,17 L-2,19 L-8,19 L-14,20 L-16,19 L-15,15 L-14,14 L-5,14 L-1,10 L1,4 L-7,8 L-9,8 L-9,4 Z " fill="#E6E6E6" transform="translate(19,4)"/>
<path d="M0,0 L9,1 L9,3 L12,4 L8,5 L0,6 L-2,5 L-1,1 Z " fill="#E9E9E9" transform="translate(5,18)"/>
<path d="M0,0 L5,1 L4,4 L-2,5 L-1,1 Z " fill="#919191" transform="translate(5,18)"/>
</svg>
