<?xml version="1.0" encoding="UTF-8"?>
<svg version="1.1" xmlns="http://www.w3.org/2000/svg" width="28" height="28">
<path d="M0,0 L28,0 L28,28 L0,28 Z " fill="#030303" transform="translate(0,0)"/>
<path d="M0,0 L5,1 L9,5 L10,12 L8,12 L6,16 L-2,20 L-6,20 L-7,15 L-2,11 L0,10 L7,10 L5,4 L0,3 L-2,3 L-4,7 L-3,2 Z " fill="#D7D7D7" transform="translate(13,4)"/>
<path d="M0,0 L5,1 L9,5 L10,11 L7,11 L5,4 L0,3 L-2,3 L-4,7 L-3,2 Z " fill="#D8D8D8" transform="translate(13,4)"/>
<path d="M0,0 L5,0 L0,5 L-5,6 L-4,2 Z " fill="#0F0F0F" transform="translate(14,16)"/>
<path d="M0,0 L2,4 L-2,5 L-6,3 L-1,2 Z " fill="#F7F7F7" transform="translate(21,12)"/>
</svg>
