<?xml version="1.0" encoding="UTF-8"?>
<svg version="1.1" xmlns="http://www.w3.org/2000/svg" width="28" height="28">
<path d="M0,0 L28,0 L28,28 L0,28 Z " fill="#020202" transform="translate(0,0)"/>
<path d="M0,0 L7,0 L9,2 L8,8 L5,13 L2,16 L9,16 L9,19 L-3,20 L-2,15 L3,11 L7,3 L-3,5 L-2,1 Z " fill="#EBEBEB" transform="translate(11,4)"/>
<path d="M0,0 L9,0 L9,3 L0,2 Z " fill="#B5B5B5" transform="translate(11,20)"/>
<path d="M0,0 L3,1 L7,3 L-3,5 L-2,1 Z " fill="#CACACA" transform="translate(11,4)"/>
</svg>
