<?xml version="1.0" encoding="UTF-8"?>
<svg version="1.1" xmlns="http://www.w3.org/2000/svg" width="28" height="28">
<path d="M0,0 L28,0 L28,28 L0,28 Z " fill="#030303" transform="translate(0,0)"/>
<path d="M0,0 L6,0 L11,5 L11,10 L14,11 L10,12 L9,16 L4,20 L1,20 L-1,17 L-1,12 L2,9 L9,9 L7,4 L0,3 Z " fill="#E1E1E1" transform="translate(9,4)"/>
<path d="M0,0 L6,0 L10,3 L10,10 L3,12 L0,11 L2,9 L9,9 L7,4 L0,3 Z " fill="#E2E2E2" transform="translate(9,4)"/>
<path d="M0,0 L5,0 L4,4 L1,7 L-1,7 L-1,1 Z " fill="#1A1A1A" transform="translate(12,15)"/>
<path d="M0,0 L3,0 L3,6 L0,5 Z " fill="#BDBDBD" transform="translate(8,16)"/>
</svg>
