<?xml version="1.0" encoding="UTF-8"?>
<svg version="1.1" xmlns="http://www.w3.org/2000/svg" width="28" height="28">
<path d="M0,0 L28,0 L28,28 L0,28 Z " fill="#030303" transform="translate(0,0)"/>
<path d="M0,0 L5,1 L10,6 L10,15 L8,19 L2,20 L0,17 L1,12 L5,12 L8,14 L7,7 L3,3 L-2,3 L-2,1 Z " fill="#858585" transform="translate(10,4)"/>
<path d="M0,0 L5,1 L10,6 L10,15 L7,17 L7,7 L3,3 L-2,3 L-2,1 Z " fill="#D8D8D8" transform="translate(10,4)"/>
<path d="M0,0 L2,0 L3,4 L7,6 L2,7 L0,4 Z " fill="#F1F1F1" transform="translate(10,17)"/>
</svg>
