<?xml version="1.0" encoding="UTF-8"?>
<svg version="1.1" xmlns="http://www.w3.org/2000/svg" width="28" height="28">
<path d="M0,0 L28,0 L28,28 L0,28 Z " fill="#010101" transform="translate(0,0)"/>
<path d="M0,0 L5,1 L6,2 L7,14 L8,16 L2,18 L0,20 L-4,19 L-3,15 L-3,18 L1,16 L1,14 L-1,12 L3,12 L4,5 L-1,4 Z " fill="#C6C6C6" transform="translate(13,4)"/>
<path d="M0,0 L2,0 L2,4 L5,5 L5,6 L-1,8 L-3,10 L-7,9 L-6,5 L-6,8 L-2,6 L-2,4 L-4,2 L0,2 Z " fill="#E1E1E1" transform="translate(16,14)"/>
<path d="M0,0 L4,1 L3,6 L-3,7 L-2,2 Z " fill="#707070" transform="translate(11,15)"/>
</svg>
