<?xml version="1.0" encoding="UTF-8"?>
<svg version="1.1" xmlns="http://www.w3.org/2000/svg" width="28" height="28">
<path d="M0,0 L28,0 L28,28 L0,28 Z " fill="#020202" transform="translate(0,0)"/>
<path d="M0,0 L5,0 L7,3 L7,10 L5,14 L11,15 L10,17 L1,17 L-4,20 L-9,19 L-8,14 L-4,11 L2,12 L4,7 L4,3 L1,2 L0,5 L-4,5 L-2,1 Z " fill="#CCCCCC" transform="translate(14,4)"/>
<path d="M0,0 L5,0 L7,3 L7,8 L5,9 L4,3 L1,2 L0,5 L-4,5 L-2,1 Z " fill="#E7E7E7" transform="translate(14,4)"/>
<path d="M0,0 L4,2 L0,5 L-3,5 L-2,1 Z " fill="#151515" transform="translate(10,17)"/>
<path d="M0,0 L2,0 L2,3 L7,2 L5,5 L0,4 Z " fill="#E3E3E3" transform="translate(5,19)"/>
</svg>
