<?xml version="1.0" encoding="UTF-8"?>
<svg version="1.1" xmlns="http://www.w3.org/2000/svg" width="28" height="28">
<path d="M0,0 L28,0 L28,28 L0,28 Z " fill="#020202" transform="translate(0,0)"/>
<path d="M0,0 L5,1 L5,11 L5,14 L5,19 L2,20 L2,15 L-3,17 L-8,16 L-7,11 L-2,10 L1,10 L3,3 L-1,5 L-4,5 L-2,1 Z " fill="#E6E6E6" transform="translate(14,4)"/>
<path d="M0,0 L4,0 L4,4 L-1,3 L-2,6 L-1,1 Z " fill="#B1B1B1" transform="translate(8,14)"/>
<path d="M0,0 L2,1 L3,3 L-1,5 L-4,5 L-2,1 Z " fill="#D2D2D2" transform="translate(14,4)"/>
</svg>
