<?xml version="1.0" encoding="UTF-8"?>
<svg version="1.1" xmlns="http://www.w3.org/2000/svg" width="28" height="28">
<path d="M0,0 L28,0 L28,28 L0,28 Z " fill="#020202" transform="translate(0,0)"/>
<path d="M0,0 L6,1 L10,5 L10,12 L9,14 L13,16 L11,18 L10,15 L8,15 L6,19 L2,20 L1,16 L2,18 L5,17 L6,13 L8,13 L7,5 L5,3 L-1,3 Z " fill="#E3E3E3" transform="translate(8,4)"/>
<path d="M0,0 L6,1 L10,5 L9,11 L8,11 L6,4 L1,3 L-1,3 Z " fill="#C1C1C1" transform="translate(8,4)"/>
<path d="M0,0 L4,1 L1,6 L-2,6 L-3,3 Z " fill="#5F5F5F" transform="translate(12,16)"/>
</svg>
