<?xml version="1.0" encoding="UTF-8"?>
<svg version="1.1" xmlns="http://www.w3.org/2000/svg" width="28" height="28">
<path d="M0,0 L28,0 L28,28 L0,28 Z " fill="#030303" transform="translate(0,0)"/>
<path d="M0,0 L7,1 L11,8 L10,14 L8,20 L7,18 L3,20 L-4,20 L-7,17 L-7,14 L-4,12 L6,13 L7,8 L5,4 L-3,3 L-3,1 Z " fill="#EAEAEA" transform="translate(12,3)"/>
<path d="M0,0 L8,1 L10,3 L5,6 L-1,7 L-3,5 L-3,2 Z " fill="#C7C7C7" transform="translate(8,15)"/>
<path d="M0,0 L7,1 L11,8 L10,11 L7,8 L5,4 L-3,3 L-3,1 Z " fill="#D2D2D2" transform="translate(12,3)"/>
<path d="M0,0 L7,0 L7,3 L1,4 Z " fill="#1E1E1E" transform="translate(8,17)"/>
</svg>
