<?xml version="1.0" encoding="UTF-8"?>
<svg version="1.1" xmlns="http://www.w3.org/2000/svg" width="28" height="28">
<path d="M0,0 L28,0 L28,28 L0,28 Z " fill="#040404" transform="translate(0,0)"/>
<path d="M0,0 L8,0 L13,2 L14,9 L19,14 L20,19 L18,19 L15,14 L9,15 L7,16 L1,16 L1,12 L5,10 L11,9 L11,4 L1,3 Z " fill="#D9D9D9" transform="translate(5,5)"/>
<path d="M0,0 L8,0 L10,1 L10,3 L1,3 Z " fill="#C0C0C0" transform="translate(5,5)"/>
<path d="M0,0 L3,1 L4,8 L2,8 Z " fill="#F5F5F5" transform="translate(15,6)"/>
</svg>
