<?xml version="1.0" encoding="UTF-8"?>
<svg version="1.1" xmlns="http://www.w3.org/2000/svg" width="28" height="28">
<path d="M0,0 L28,0 L28,28 L0,28 Z " fill="#040404" transform="translate(0,0)"/>
<path d="M0,0 L6,0 L9,4 L8,13 L6,15 L4,20 L3,18 L-2,20 L-10,20 L-11,14 L-8,11 L0,10 L3,11 L3,13 L6,10 L6,3 L-1,4 Z " fill="#E3E3E3" transform="translate(14,3)"/>
<path d="M0,0 L7,0 L8,3 L5,5 L-3,5 L-3,2 Z " fill="#171717" transform="translate(8,15)"/>
<path d="M0,0 L2,0 L2,2 L-1,5 L7,6 L6,9 L-2,9 L-3,3 Z " fill="#CCCCCC" transform="translate(6,14)"/>
</svg>
