<?xml version="1.0" encoding="UTF-8"?>
<svg version="1.1" xmlns="http://www.w3.org/2000/svg" width="28" height="28">
<path d="M0,0 L28,0 L28,28 L0,28 Z " fill="#040404" transform="translate(0,0)"/>
<path d="M0,0 L9,1 L11,5 L11,11 L8,16 L6,20 L4,19 L-4,20 L-7,17 L-7,12 L-2,12 L1,11 L7,14 L8,5 L7,3 L0,3 Z " fill="#E2E2E2" transform="translate(12,3)"/>
<path d="M0,0 L5,1 L5,3 L3,4 L9,5 L9,7 L3,8 L0,5 Z " fill="#EAEAEA" transform="translate(5,15)"/>
<path d="M0,0 L9,1 L11,5 L11,11 L9,11 L7,3 L0,3 Z " fill="#D8D8D8" transform="translate(12,3)"/>
<path d="M0,0 L5,0 L4,3 L-2,3 L-3,1 Z " fill="#171717" transform="translate(10,17)"/>
</svg>
