<?xml version="1.0" encoding="UTF-8"?>
<svg version="1.1" xmlns="http://www.w3.org/2000/svg" width="28" height="28">
<path d="M0,0 L28,0 L28,28 L0,28 Z " fill="#040404" transform="translate(0,0)"/>
<path d="M0,0 L7,0 L9,1 L9,11 L6,17 L-2,20 L-7,20 L-9,18 L-9,13 L-6,11 L2,11 L5,12 L6,11 L6,3 L-1,3 Z " fill="#E2E2E2" transform="translate(14,3)"/>
<path d="M0,0 L7,0 L9,1 L9,11 L6,14 L6,11 L6,3 L-1,3 Z " fill="#A9A9A9" transform="translate(14,3)"/>
<path d="M0,0 L8,0 L8,3 L4,5 L-1,4 Z " fill="#181818" transform="translate(8,16)"/>
<path d="M0,0 L7,0 L8,2 L-1,3 Z " fill="#E3E3E3" transform="translate(14,3)"/>
</svg>
