<?xml version="1.0" encoding="UTF-8"?>
<svg version="1.1" xmlns="http://www.w3.org/2000/svg" width="28" height="28">
<path d="M0,0 L28,0 L28,28 L0,28 Z " fill="#030303" transform="translate(0,0)"/>
<path d="M0,0 L5,1 L6,5 L6,12 L4,16 L8,20 L-1,19 L-8,20 L-8,14 L-6,12 L2,13 L3,11 L3,2 L-2,4 L-4,5 L-3,1 Z " fill="#D9D9D9" transform="translate(15,2)"/>
<path d="M0,0 L3,1 L1,1 L1,3 L3,3 L3,6 L5,7 L-2,8 L-2,2 Z " fill="#B3B3B3" transform="translate(9,14)"/>
<path d="M0,0 L5,1 L7,2 L7,4 L2,5 L2,2 L0,2 Z " fill="#F0F0F0" transform="translate(10,15)"/>
</svg>
