<?xml version="1.0" encoding="UTF-8"?>
<svg version="1.1" xmlns="http://www.w3.org/2000/svg" width="28" height="28">
<path d="M0,0 L28,0 L28,28 L0,28 Z " fill="#030303" transform="translate(0,0)"/>
<path d="M0,0 L6,1 L8,2 L9,5 L9,12 L6,15 L5,20 L4,17 L1,19 L-6,19 L-11,16 L-10,11 L0,11 L-1,13 L-8,13 L-7,15 L1,15 L5,13 L6,11 L6,4 L-1,3 Z " fill="#D5D5D5" transform="translate(15,3)"/>
<path d="M0,0 L6,1 L8,2 L9,5 L9,12 L7,14 L6,11 L6,4 L-1,3 Z " fill="#D1D1D1" transform="translate(15,3)"/>
<path d="M0,0 L5,2 L1,5 L-7,5 L-8,2 L-1,1 Z " fill="#2E2E2E" transform="translate(15,14)"/>
<path d="M0,0 L0,3 L-1,8 L-2,5 L-5,6 L-4,2 Z " fill="#F4F4F4" transform="translate(21,15)"/>
<path d="M0,0 L2,0 L2,7 L0,9 L-1,6 Z " fill="#B5B5B5" transform="translate(22,8)"/>
</svg>
