<?xml version="1.0" encoding="UTF-8"?>
<svg version="1.1" xmlns="http://www.w3.org/2000/svg" width="28" height="28">
<path d="M0,0 L28,0 L28,28 L0,28 Z " fill="#030303" transform="translate(0,0)"/>
<path d="M0,0 L4,0 L4,8 L-1,16 L-8,20 L-12,20 L-12,15 L-9,13 L-2,13 L1,8 L2,2 L-3,5 L-9,11 L-11,11 L-9,7 L-4,2 Z " fill="#DCDCDC" transform="translate(18,4)"/>
<path d="M0,0 L3,1 L3,6 L2,2 L-3,5 L-9,11 L-11,11 L-9,7 L-4,2 Z " fill="#7C7C7C" transform="translate(18,4)"/>
<path d="M0,0 L7,0 L8,3 L4,5 L0,5 Z " fill="#7E7E7E" transform="translate(6,19)"/>
</svg>
