<?xml version="1.0" encoding="UTF-8"?>
<svg version="1.1" xmlns="http://www.w3.org/2000/svg" width="28" height="28">
<path d="M0,0 L28,0 L28,28 L0,28 Z " fill="#020202" transform="translate(0,0)"/>
<path d="M0,0 L7,1 L10,5 L10,10 L18,11 L18,13 L9,13 L6,15 L5,13 L1,14 L0,16 L3,17 L-1,18 L-2,14 L2,10 L8,9 L6,3 L3,3 L2,5 L-1,4 Z " fill="#DDDDDD" transform="translate(9,5)"/>
<path d="M0,0 L4,1 L3,5 L-2,4 Z " fill="#6D6D6D" transform="translate(11,17)"/>
<path d="M0,0 L7,1 L7,2 L2,2 L2,5 L-1,4 Z " fill="#C3C3C3" transform="translate(9,5)"/>
</svg>
