<?xml version="1.0" encoding="UTF-8"?>
<svg version="1.1" xmlns="http://www.w3.org/2000/svg" width="28" height="28">
<path d="M0,0 L28,0 L28,28 L0,28 Z " fill="#020202" transform="translate(0,0)"/>
<path d="M0,0 L4,1 L3,9 L1,13 L3,14 L3,16 L-2,17 L-4,20 L-7,20 L-8,15 L-2,13 L2,3 L-4,4 L-4,2 Z " fill="#D5D5D5" transform="translate(15,5)"/>
<path d="M0,0 L4,1 L3,9 L1,9 L2,3 L-4,4 L-4,2 Z " fill="#D4D4D4" transform="translate(15,5)"/>
<path d="M0,0 L4,0 L5,4 L1,5 Z " fill="#707070" transform="translate(7,20)"/>
</svg>
