<?xml version="1.0" encoding="UTF-8"?>
<svg version="1.1" xmlns="http://www.w3.org/2000/svg" width="28" height="28">
<path d="M0,0 L28,0 L28,28 L0,28 Z " fill="#030303" transform="translate(0,0)"/>
<path d="M0,0 L7,1 L12,6 L13,13 L12,15 L14,15 L14,17 L8,20 L1,19 L-1,16 L0,10 L4,11 L10,15 L10,6 L0,4 L-1,1 Z " fill="#E7E7E7" transform="translate(8,3)"/>
<path d="M0,0 L7,1 L12,6 L13,13 L11,14 L10,6 L0,4 L-1,1 Z " fill="#DDDDDD" transform="translate(8,3)"/>
<path d="M0,0 L5,1 L8,5 L7,8 L2,7 L0,4 Z " fill="#8C8C8C" transform="translate(7,15)"/>
</svg>
