<?xml version="1.0" encoding="UTF-8"?>
<svg version="1.1" xmlns="http://www.w3.org/2000/svg" width="28" height="28">
<path d="M0,0 L28,0 L28,28 L0,28 Z " fill="#020202" transform="translate(0,0)"/>
<path d="M0,0 L3,1 L6,6 L6,14 L8,14 L7,17 L1,20 L-2,20 L-5,15 L-4,11 L3,12 L1,5 Z " fill="#D4D4D4" transform="translate(13,3)"/>
<path d="M0,0 L5,0 L6,4 L11,5 L8,7 L5,9 L2,9 L-1,4 Z " fill="#C3C3C3" transform="translate(9,14)"/>
<path d="M0,0 L1,4 L4,4 L4,6 L-2,6 L-3,2 L0,3 Z " fill="#F3F3F3" transform="translate(17,13)"/>
</svg>
