<?xml version="1.0" encoding="UTF-8"?>
<svg version="1.1" xmlns="http://www.w3.org/2000/svg" width="28" height="28">
<path d="M0,0 L28,0 L28,28 L0,28 Z " fill="#050505" transform="translate(0,0)"/>
<path d="M0,0 L8,0 L10,3 L8,9 L2,12 L3,13 L14,14 L15,12 L16,16 L15,18 L0,17 L-3,14 L-3,10 L5,5 L-1,4 L-2,6 L-3,1 Z " fill="#E1E1E1" transform="translate(10,5)"/>
<path d="M0,0 L2,4 L1,6 L-14,5 L-14,4 L-5,4 L-5,2 L0,2 Z " fill="#C3C3C3" transform="translate(24,17)"/>
<path d="M0,0 L7,0 L8,3 L0,4 L-2,6 L-3,1 Z " fill="#ECECEC" transform="translate(10,5)"/>
</svg>
