<?xml version="1.0" encoding="UTF-8"?>
<svg version="1.1" xmlns="http://www.w3.org/2000/svg" width="28" height="28">
<path d="M0,0 L28,0 L28,28 L0,28 Z " fill="#030303" transform="translate(0,0)"/>
<path d="M0,0 L5,0 L5,9 L4,13 L10,13 L8,15 L2,15 L-4,18 L-9,18 L-10,17 L-10,12 L-6,11 L-6,13 L-8,13 L-8,16 L-2,14 L-4,11 L2,11 L3,2 L-3,5 L-7,9 L-6,4 Z " fill="#DBDBDB" transform="translate(16,4)"/>
<path d="M0,0 L4,1 L2,2 L5,4 L0,6 L-3,6 L-3,3 L-1,3 Z " fill="#333333" transform="translate(11,14)"/>
</svg>
