<?xml version="1.0" encoding="UTF-8"?>
<svg version="1.1" xmlns="http://www.w3.org/2000/svg" width="28" height="28">
<path d="M0,0 L28,0 L28,28 L0,28 Z " fill="#020202" transform="translate(0,0)"/>
<path d="M0,0 L5,2 L6,3 L6,12 L4,12 L4,14 L7,15 L6,17 L0,18 L-3,20 L-10,20 L-11,16 L-6,13 L2,12 L2,6 L1,4 L-2,4 L-2,1 Z " fill="#EDEDED" transform="translate(15,2)"/>
<path d="M0,0 L5,0 L1,3 L0,8 L-7,8 L-8,4 L-3,1 Z " fill="#E4E4E4" transform="translate(12,14)"/>
<path d="M0,0 L5,2 L6,3 L6,12 L3,9 L1,4 L-2,4 L-2,1 Z " fill="#D5D5D5" transform="translate(15,2)"/>
<path d="M0,0 L5,0 L1,3 L-2,6 L-4,6 L-4,4 L-2,3 L-3,1 Z " fill="#808080" transform="translate(12,14)"/>
</svg>
