<?xml version="1.0" encoding="UTF-8"?>
<svg version="1.1" xmlns="http://www.w3.org/2000/svg" width="28" height="28">
<path d="M0,0 L28,0 L28,28 L0,28 Z " fill="#030303" transform="translate(0,0)"/>
<path d="M0,0 L5,1 L7,4 L7,13 L12,16 L13,20 L9,18 L4,16 L-1,20 L-7,20 L-6,15 L-3,12 L3,11 L4,3 L-4,5 L-3,2 Z " fill="#C2C2C2" transform="translate(12,3)"/>
<path d="M0,0 L5,1 L7,4 L6,11 L4,11 L4,3 L-4,5 L-3,2 Z M3,11 Z " fill="#E7E7E7" transform="translate(12,3)"/>
<path d="M0,0 L3,0 L2,3 L-1,5 L1,6 L1,8 L-4,8 L-3,3 Z " fill="#E6E6E6" transform="translate(9,15)"/>
</svg>
