<?xml version="1.0" encoding="UTF-8"?>
<svg version="1.1" xmlns="http://www.w3.org/2000/svg" width="28" height="28">
<path d="M0,0 L28,0 L28,28 L0,28 Z " fill="#020202" transform="translate(0,0)"/>
<path d="M0,0 L2,1 L-2,6 L10,5 L11,8 L8,9 L-1,9 L-4,7 L-3,3 Z " fill="#D6D6D6" transform="translate(12,15)"/>
<path d="M0,0 L6,0 L12,3 L13,7 L9,11 L6,11 L6,9 L11,4 L1,4 L-2,5 L-1,1 Z " fill="#C7C7C7" transform="translate(8,4)"/>
<path d="M0,0 L6,0 L6,2 L1,4 L-2,5 L-1,1 Z " fill="#E2E2E2" transform="translate(8,4)"/>
<path d="M0,0 L2,1 L-1,4 L-1,8 L-4,7 L-3,3 Z " fill="#F0F0F0" transform="translate(12,15)"/>
</svg>
