<?xml version="1.0" encoding="UTF-8"?>
<svg version="1.1" xmlns="http://www.w3.org/2000/svg" width="28" height="28">
<path d="M0,0 L28,0 L28,28 L0,28 Z " fill="#010101" transform="translate(0,0)"/>
<path d="M0,0 L6,0 L11,4 L12,6 L12,12 L14,13 L9,19 L3,20 L1,18 L2,13 L3,12 L9,12 L8,4 L0,2 Z " fill="#949494" transform="translate(7,4)"/>
<path d="M0,0 L6,0 L11,4 L11,12 L10,12 L8,4 L0,2 Z " fill="#DCDCDC" transform="translate(7,4)"/>
<path d="M0,0 L7,0 L7,1 L2,2 L2,4 L9,3 L5,7 L0,6 L-1,2 Z " fill="#DFDFDF" transform="translate(9,17)"/>
</svg>
