<?xml version="1.0" encoding="UTF-8"?>
<svg version="1.1" xmlns="http://www.w3.org/2000/svg" width="28" height="28">
<path d="M0,0 L28,0 L28,28 L0,28 Z " fill="#030303" transform="translate(0,0)"/>
<path d="M0,0 L7,0 L10,3 L10,9 L-1,16 L-2,18 L5,15 L11,15 L12,18 L1,20 L-4,19 L-3,14 L8,7 L8,3 L-3,5 L-3,1 Z " fill="#D6D6D6" transform="translate(11,4)"/>
<path d="M0,0 L2,1 L2,4 L-5,6 L-3,2 Z " fill="#1B1B1B" transform="translate(14,16)"/>
<path d="M0,0 L1,2 L6,1 L6,3 L0,4 Z " fill="#F2F2F2" transform="translate(8,20)"/>
</svg>
