<?xml version="1.0" encoding="UTF-8"?>
<svg version="1.1" xmlns="http://www.w3.org/2000/svg" width="28" height="28">
<path d="M0,0 L28,0 L28,28 L0,28 Z " fill="#040404" transform="translate(0,0)"/>
<path d="M0,0 L5,1 L6,3 L6,9 L4,14 L6,19 L3,19 L1,15 L-5,17 L-7,18 L-13,18 L-11,14 L-5,11 L2,10 L4,3 L-3,5 L-7,5 L-7,3 Z " fill="#E9E9E9" transform="translate(16,4)"/>
<path d="M0,0 L5,1 L6,3 L6,9 L2,13 L-5,12 L-5,11 L2,10 L4,3 L-3,5 L-7,5 L-7,3 Z " fill="#D2D2D2" transform="translate(16,4)"/>
</svg>
