<?xml version="1.0" encoding="UTF-8"?>
<svg version="1.1" xmlns="http://www.w3.org/2000/svg" width="28" height="28">
<path d="M0,0 L28,0 L28,28 L0,28 Z " fill="#040404" transform="translate(0,0)"/>
<path d="M0,0 L5,0 L7,2 L8,8 L6,13 L7,19 L3,19 L3,17 L0,17 L0,19 L-3,20 L-10,20 L-10,14 L-8,12 L2,11 L3,4 L-5,5 L-4,2 Z " fill="#E7E7E7" transform="translate(14,3)"/>
<path d="M0,0 L2,0 L2,3 L6,4 L6,6 L0,6 Z " fill="#F1F1F1" transform="translate(4,17)"/>
<path d="M0,0 L4,1 L2,4 L-3,4 L-3,1 Z " fill="#222222" transform="translate(9,16)"/>
</svg>
