<?xml version="1.0" encoding="UTF-8"?>
<svg version="1.1" xmlns="http://www.w3.org/2000/svg" width="28" height="28">
<path d="M0,0 L28,0 L28,28 L0,28 Z " fill="#030303" transform="translate(0,0)"/>
<path d="M0,0 L3,0 L3,7 L1,13 L2,20 L-2,20 L-3,16 L-9,20 L-14,20 L-15,15 L-12,12 L-2,10 L1,3 L-6,7 L-8,7 L-7,4 Z " fill="#D9D9D9" transform="translate(18,3)"/>
<path d="M0,0 L5,2 L5,6 L0,9 L-5,9 L-6,4 L-3,1 Z " fill="#C3C3C3" transform="translate(9,14)"/>
<path d="M0,0 L5,0 L3,4 L-3,5 L-1,1 Z " fill="#0B0B0B" transform="translate(8,16)"/>
</svg>
