<?xml version="1.0" encoding="UTF-8"?>
<svg version="1.1" xmlns="http://www.w3.org/2000/svg" width="28" height="28">
<path d="M0,0 L28,0 L28,28 L0,28 Z " fill="#020202" transform="translate(0,0)"/>
<path d="M0,0 L6,0 L7,5 L-4,12 L-4,14 L6,14 L5,17 L-8,17 L-13,18 L-10,13 L-4,8 L3,4 L4,2 L-1,4 L-3,6 L-7,6 L-6,3 Z " fill="#DCDCDC" transform="translate(17,5)"/>
<path d="M0,0 L11,0 L10,3 L1,3 L-2,1 Z " fill="#CCCCCC" transform="translate(12,19)"/>
<path d="M0,0 L4,0 L2,4 L-3,6 L-2,2 Z " fill="#2A2A2A" transform="translate(17,7)"/>
<path d="M0,0 L2,1 L2,3 L-2,6 L-6,5 Z " fill="#EBEBEB" transform="translate(10,17)"/>
</svg>
