<?xml version="1.0" encoding="UTF-8"?>
<svg version="1.1" xmlns="http://www.w3.org/2000/svg" width="28" height="28">
<path d="M0,0 L28,0 L28,28 L0,28 Z " fill="#030303" transform="translate(0,0)"/>
<path d="M0,0 L7,1 L8,8 L6,14 L11,14 L12,16 L2,18 L-1,20 L-7,20 L-7,17 L3,13 L4,10 L4,3 L0,4 L-2,8 L-4,8 L-3,3 Z " fill="#C2C2C2" transform="translate(13,3)"/>
<path d="M0,0 L1,3 L6,3 L6,4 L-2,6 L-5,8 L-11,8 L-11,5 L-1,1 Z " fill="#EDEDED" transform="translate(17,15)"/>
<path d="M0,0 L5,1 L4,3 L0,4 L-2,8 L-4,8 L-3,3 Z " fill="#EAEAEA" transform="translate(13,3)"/>
</svg>
