<?xml version="1.0" encoding="UTF-8"?>
<svg version="1.1" xmlns="http://www.w3.org/2000/svg" width="28" height="28">
<path d="M0,0 L28,0 L28,28 L0,28 Z " fill="#060606" transform="translate(0,0)"/>
<path d="M0,0 L9,2 L11,5 L10,15 L12,17 L12,20 L6,18 L2,20 L-5,19 L-8,14 L-5,9 L3,9 L7,10 L8,4 L-2,4 Z " fill="#F0F0F0" transform="translate(11,3)"/>
<path d="M0,0 L6,1 L6,5 L1,6 L-2,4 L-2,1 Z " fill="#1D1D1D" transform="translate(8,14)"/>
<path d="M0,0 L9,2 L5,4 L-2,4 Z " fill="#D7D7D7" transform="translate(11,3)"/>
</svg>
