<?xml version="1.0" encoding="UTF-8"?>
<svg version="1.1" xmlns="http://www.w3.org/2000/svg" width="28" height="28">
<path d="M0,0 L28,0 L28,28 L0,28 Z " fill="#020202" transform="translate(0,0)"/>
<path d="M0,0 L5,0 L6,1 L5,17 L3,18 L3,13 L-6,18 L-12,18 L-14,17 L-13,12 L-9,9 L0,8 L3,9 L4,2 L-1,3 Z " fill="#CBCBCB" transform="translate(16,4)"/>
<path d="M0,0 L8,0 L4,5 L2,6 L-6,6 L-4,2 Z " fill="#0B0B0B" transform="translate(9,14)"/>
<path d="M0,0 L5,0 L6,1 L5,9 L3,6 L4,2 L-1,3 Z " fill="#C3C3C3" transform="translate(16,4)"/>
</svg>
