<?xml version="1.0" encoding="UTF-8"?>
<svg version="1.1" xmlns="http://www.w3.org/2000/svg" width="28" height="28">
<path d="M0,0 L28,0 L28,28 L0,28 Z " fill="#030303" transform="translate(0,0)"/>
<path d="M0,0 L6,0 L7,6 L3,13 L1,13 L1,15 L-8,16 L-13,13 L-12,11 L-5,10 L0,12 L3,9 L5,2 L-2,4 L-3,6 L-6,6 L-5,3 Z " fill="#DADADA" transform="translate(16,6)"/>
<path d="M0,0 L6,0 L7,6 L3,13 L1,11 L4,6 L5,2 L-2,4 L-3,6 L-6,6 L-5,3 Z " fill="#D4D4D4" transform="translate(16,6)"/>
<path d="M0,0 L6,1 L6,4 L1,4 Z " fill="#828282" transform="translate(7,18)"/>
</svg>
