<?xml version="1.0" encoding="UTF-8"?>
<svg version="1.1" xmlns="http://www.w3.org/2000/svg" width="28" height="28">
<path d="M0,0 L28,0 L28,28 L0,28 Z " fill="#030303" transform="translate(0,0)"/>
<path d="M0,0 L6,0 L10,4 L11,11 L12,13 L8,13 L6,18 L4,20 L-1,20 L-4,17 L-3,12 L2,9 L7,10 L5,3 L1,4 L-2,8 L-1,1 Z " fill="#E1E1E1" transform="translate(11,4)"/>
<path d="M0,0 L4,1 L4,6 L1,9 L-2,9 L-3,11 L-6,8 L-5,3 Z " fill="#CACACA" transform="translate(13,13)"/>
<path d="M0,0 L1,0 L1,5 L4,6 L0,7 L-2,12 L-4,14 L-8,14 L-8,12 L-3,9 Z " fill="#ECECEC" transform="translate(19,10)"/>
<path d="M0,0 L6,0 L5,4 L1,6 L-2,4 Z " fill="#111111" transform="translate(11,16)"/>
<path d="M0,0 L4,2 L4,9 L1,6 Z " fill="#B3B3B3" transform="translate(17,6)"/>
</svg>
