<?xml version="1.0" encoding="UTF-8"?>
<svg version="1.1" xmlns="http://www.w3.org/2000/svg" width="28" height="28">
<path d="M0,0 L28,0 L28,28 L0,28 Z " fill="#030303" transform="translate(0,0)"/>
<path d="M0,0 L7,3 L8,4 L9,16 L5,17 L2,20 L-3,20 L-7,16 L-6,12 L-1,9 L6,10 L4,4 L-4,3 L-4,1 Z " fill="#E2E2E2" transform="translate(13,4)"/>
<path d="M0,0 L7,3 L8,4 L8,12 L6,8 L4,4 L-4,3 L-4,1 Z " fill="#CCCCCC" transform="translate(13,4)"/>
<path d="M0,0 L5,0 L4,4 L0,5 L-1,1 Z " fill="#1D1D1D" transform="translate(11,16)"/>
<path d="M0,0 L4,1 L4,3 L-4,3 L-4,1 Z " fill="#E9E9E9" transform="translate(13,4)"/>
</svg>
