<?xml version="1.0" encoding="UTF-8"?>
<svg version="1.1" xmlns="http://www.w3.org/2000/svg" width="28" height="28">
<path d="M0,0 L28,0 L28,28 L0,28 Z " fill="#050505" transform="translate(0,0)"/>
<path d="M0,0 L5,1 L6,2 L6,8 L8,8 L8,10 L10,10 L10,15 L7,15 L6,12 L4,12 L-1,17 L-8,18 L-10,16 L-9,11 L-6,8 L2,7 L1,4 L-7,4 L-7,1 Z " fill="#E9E9E9" transform="translate(15,5)"/>
<path d="M0,0 L5,0 L1,4 L-2,4 Z " fill="#343434" transform="translate(11,15)"/>
<path d="M0,0 L3,1 L0,4 L-2,5 L-4,8 L-3,3 Z " fill="#D2D2D2" transform="translate(9,13)"/>
</svg>
