<?xml version="1.0" encoding="UTF-8"?>
<svg version="1.1" xmlns="http://www.w3.org/2000/svg" width="28" height="28">
<path d="M0,0 L28,0 L28,28 L0,28 Z " fill="#050505" transform="translate(0,0)"/>
<path d="M0,0 L9,1 L13,5 L17,15 L13,14 L11,14 L8,16 L0,16 L-2,15 L-1,10 L1,8 L10,7 L9,4 L1,3 L-3,4 L-3,1 Z " fill="#E1E1E1" transform="translate(8,6)"/>
<path d="M0,0 L9,1 L13,5 L14,10 L10,7 L9,4 L1,3 L-3,4 L-3,1 Z " fill="#DFDFDF" transform="translate(8,6)"/>
<path d="M0,0 L9,0 L9,1 L2,2 L0,6 L5,6 L4,8 L-3,7 L-2,2 Z " fill="#EAEAEA" transform="translate(9,14)"/>
<path d="M0,0 L6,0 L6,3 L2,5 L-2,5 L-1,1 Z " fill="#2C2C2C" transform="translate(11,15)"/>
</svg>
