<?xml version="1.0" encoding="UTF-8"?>
<svg version="1.1" xmlns="http://www.w3.org/2000/svg" width="28" height="28">
<path d="M0,0 L28,0 L28,28 L0,28 Z " fill="#020202" transform="translate(0,0)"/>
<path d="M0,0 L7,0 L9,1 L9,9 L5,17 L-1,18 L-4,19 L-11,19 L-11,14 L-6,9 L1,8 L5,9 L6,3 L0,3 Z " fill="#DFDFDF" transform="translate(15,4)"/>
<path d="M0,0 L7,0 L9,1 L9,9 L6,8 L6,3 L0,3 Z " fill="#DFDFDF" transform="translate(15,4)"/>
<path d="M0,0 L4,1 L0,4 L-4,4 L-3,1 Z " fill="#202020" transform="translate(12,15)"/>
</svg>
