<?xml version="1.0" encoding="UTF-8"?>
<svg version="1.1" xmlns="http://www.w3.org/2000/svg" width="28" height="28">
<path d="M0,0 L28,0 L28,28 L0,28 Z " fill="#030303" transform="translate(0,0)"/>
<path d="M0,0 L5,1 L6,2 L6,9 L5,14 L11,16 L11,17 L6,17 L2,15 L-3,20 L-7,19 L-6,12 L-3,9 L3,9 L4,2 L2,2 L1,4 Z " fill="#D0D0D0" transform="translate(13,3)"/>
<path d="M0,0 L5,1 L6,2 L6,9 L5,14 L11,16 L11,17 L6,17 L2,15 L1,17 L-2,16 L1,11 L3,11 L4,2 L2,2 L1,4 Z " fill="#E5E5E5" transform="translate(13,3)"/>
<path d="M0,0 L4,1 L2,5 L0,7 L-3,7 L-2,2 Z " fill="#111111" transform="translate(10,14)"/>
</svg>
