<?xml version="1.0" encoding="UTF-8"?>
<svg version="1.1" xmlns="http://www.w3.org/2000/svg" width="28" height="28">
<path d="M0,0 L28,0 L28,28 L0,28 Z " fill="#020202" transform="translate(0,0)"/>
<path d="M0,0 L4,0 L3,8 L6,13 L6,16 L3,15 L2,11 L-8,15 L-13,15 L-14,12 L-13,9 L-9,7 L0,7 L0,5 L-3,5 L-2,1 Z " fill="#E9E9E9" transform="translate(18,6)"/>
<path d="M0,0 L5,1 L5,6 L1,8 L-4,8 L-5,5 L-4,2 Z " fill="#DCDCDC" transform="translate(9,13)"/>
<path d="M0,0 L4,0 L3,7 L-3,5 L-2,1 Z " fill="#D2D2D2" transform="translate(18,6)"/>
<path d="M0,0 L5,1 L5,4 L-1,5 Z " fill="#8D8D8D" transform="translate(9,13)"/>
</svg>
