<?xml version="1.0" encoding="UTF-8"?>
<svg version="1.1" xmlns="http://www.w3.org/2000/svg" width="28" height="28">
<path d="M0,0 L28,0 L28,28 L0,28 Z " fill="#020202" transform="translate(0,0)"/>
<path d="M0,0 L4,1 L6,5 L6,11 L6,14 L5,16 L2,16 L-2,20 L-7,19 L-6,13 L-3,10 L3,10 L4,4 L0,2 Z " fill="#EEEEEE" transform="translate(14,3)"/>
<path d="M0,0 L7,0 L7,5 L4,7 L-1,6 Z " fill="#D1D1D1" transform="translate(8,16)"/>
<path d="M0,0 L4,1 L6,5 L6,11 L2,12 L4,4 L0,2 Z " fill="#C4C4C4" transform="translate(14,3)"/>
<path d="M0,0 L4,0 L2,4 L-2,5 L-1,1 Z " fill="#1B1B1B" transform="translate(11,16)"/>
</svg>
