<?xml version="1.0" encoding="UTF-8"?>
<svg version="1.1" xmlns="http://www.w3.org/2000/svg" width="28" height="28">
<path d="M0,0 L28,0 L28,28 L0,28 Z " fill="#040404" transform="translate(0,0)"/>
<path d="M0,0 L4,1 L4,6 L2,6 L1,10 L-1,14 L2,17 L1,19 L-2,16 L-15,17 L-16,13 L-12,11 L-3,10 L-1,6 L-4,6 L-3,2 Z " fill="#D8D8D8" transform="translate(19,4)"/>
<path d="M0,0 L5,0 L3,2 L0,3 L5,4 L3,6 L-3,6 L-4,2 Z " fill="#E8E8E8" transform="translate(7,15)"/>
<path d="M0,0 L4,1 L1,1 L1,3 L4,4 L0,5 L-6,4 L-5,2 Z " fill="#7F7F7F" transform="translate(12,15)"/>
</svg>
