<?xml version="1.0" encoding="UTF-8"?>
<svg version="1.1" xmlns="http://www.w3.org/2000/svg" width="28" height="28">
<path d="M0,0 L28,0 L28,28 L0,28 Z " fill="#020202" transform="translate(0,0)"/>
<path d="M0,0 L4,1 L11,8 L10,14 L9,16 L11,16 L11,20 L9,20 L9,17 L4,19 L0,19 L1,14 L8,13 L8,8 L3,4 Z " fill="#C4C4C4" transform="translate(8,3)"/>
<path d="M0,0 L4,1 L11,8 L10,13 L9,13 L7,7 L0,1 Z " fill="#D3D3D3" transform="translate(8,3)"/>
<path d="M0,0 L4,0 L4,3 L-2,4 L-2,2 L0,2 Z " fill="#8F8F8F" transform="translate(10,18)"/>
</svg>
