<?xml version="1.0" encoding="UTF-8"?>
<svg version="1.1" xmlns="http://www.w3.org/2000/svg" width="28" height="28">
<path d="M0,0 L28,0 L28,28 L0,28 Z " fill="#030303" transform="translate(0,0)"/>
<path d="M0,0 L6,1 L9,4 L9,11 L6,17 L-3,20 L-9,20 L-10,15 L-8,13 L3,13 L6,9 L5,5 L0,3 Z " fill="#EDEDED" transform="translate(14,2)"/>
<path d="M0,0 L4,1 L5,4 L2,5 L2,7 L-1,7 L-2,2 Z " fill="#B4B4B4" transform="translate(6,15)"/>
<path d="M0,0 L6,1 L9,4 L9,6 L5,5 L0,3 Z " fill="#D6D6D6" transform="translate(14,2)"/>
</svg>
