<?xml version="1.0" encoding="UTF-8"?>
<svg version="1.1" xmlns="http://www.w3.org/2000/svg" width="28" height="28">
<path d="M0,0 L28,0 L28,28 L0,28 Z " fill="#020202" transform="translate(0,0)"/>
<path d="M0,0 L5,1 L4,8 L2,11 L2,14 L6,16 L6,18 L-3,16 L-7,19 L-13,20 L-14,16 L-9,11 L-3,10 L-1,11 L1,6 L3,2 L-2,4 L-5,4 L-5,1 Z " fill="#E5E5E5" transform="translate(18,3)"/>
<path d="M0,0 L4,1 L2,5 L-1,7 L-4,6 L-2,2 Z " fill="#868686" transform="translate(11,13)"/>
<path d="M0,0 L6,4 L6,6 L0,4 L-2,2 L0,2 Z " fill="#C2C2C2" transform="translate(18,15)"/>
</svg>
