<?xml version="1.0" encoding="UTF-8"?>
<svg version="1.1" xmlns="http://www.w3.org/2000/svg" width="28" height="28">
<path d="M0,0 L28,0 L28,28 L0,28 Z " fill="#020202" transform="translate(0,0)"/>
<path d="M0,0 L8,0 L9,5 L4,10 L14,11 L15,13 L12,14 L2,14 L1,13 L1,7 L3,7 L3,5 L-5,4 L-5,1 Z " fill="#DDDDDD" transform="translate(10,7)"/>
<path d="M0,0 L12,1 L13,3 L10,4 L0,4 Z " fill="#F0F0F0" transform="translate(12,17)"/>
<path d="M0,0 L5,0 L5,1 L10,2 L9,4 L0,3 Z " fill="#C7C7C7" transform="translate(5,8)"/>
</svg>
