<?xml version="1.0" encoding="UTF-8"?>
<svg version="1.1" xmlns="http://www.w3.org/2000/svg" width="28" height="28">
<path d="M0,0 L28,0 L28,28 L0,28 Z " fill="#030303" transform="translate(0,0)"/>
<path d="M0,0 L6,0 L9,3 L10,14 L11,20 L9,19 L7,15 L0,20 L-4,18 L-3,13 L1,10 L6,10 L6,2 L-1,4 L-4,6 L-2,2 Z " fill="#CBCBCB" transform="translate(11,4)"/>
<path d="M0,0 L6,0 L9,3 L9,10 L8,10 L6,2 L-1,4 L-4,6 L-2,2 Z " fill="#D4D4D4" transform="translate(11,4)"/>
<path d="M0,0 L5,0 L3,4 L1,6 L-2,6 L-1,1 Z " fill="#0F0F0F" transform="translate(11,16)"/>
</svg>
