<?xml version="1.0" encoding="UTF-8"?>
<svg version="1.1" xmlns="http://www.w3.org/2000/svg" width="28" height="28">
<path d="M0,0 L28,0 L28,28 L0,28 Z " fill="#020202" transform="translate(0,0)"/>
<path d="M0,0 L3,0 L4,8 L2,15 L8,16 L8,18 L-2,18 L-4,20 L-10,20 L-12,15 L-9,11 L-4,11 L0,13 L0,6 L-3,7 L-1,2 Z " fill="#DDDDDD" transform="translate(17,2)"/>
<path d="M0,0 L5,0 L5,3 L7,7 L5,9 L-1,9 L-3,4 Z " fill="#D4D4D4" transform="translate(8,13)"/>
<path d="M0,0 L4,1 L4,4 L0,5 L-1,1 Z " fill="#1E1E1E" transform="translate(9,15)"/>
</svg>
