<?xml version="1.0" encoding="UTF-8"?>
<svg version="1.1" xmlns="http://www.w3.org/2000/svg" width="28" height="28">
<path d="M0,0 L28,0 L28,28 L0,28 Z " fill="#020202" transform="translate(0,0)"/>
<path d="M0,0 L5,0 L6,5 L1,14 L7,16 L10,18 L10,20 L4,18 L-2,16 L-8,17 L-9,13 L-8,12 L-1,11 L3,2 L-4,5 L-7,5 L-7,3 Z " fill="#D1D1D1" transform="translate(14,4)"/>
<path d="M0,0 L4,1 L-1,4 L-4,4 L-4,2 Z " fill="#E2E2E2" transform="translate(11,5)"/>
<path d="M0,0 L4,0 L4,3 L0,5 L-1,1 Z " fill="#A5A5A5" transform="translate(6,16)"/>
</svg>
