<?xml version="1.0" encoding="UTF-8"?>
<svg version="1.1" xmlns="http://www.w3.org/2000/svg" width="28" height="28">
<path d="M0,0 L28,0 L28,28 L0,28 Z " fill="#020202" transform="translate(0,0)"/>
<path d="M0,0 L4,1 L4,8 L3,15 L4,19 L-3,19 L-4,20 L-10,20 L-11,15 L-7,11 L-1,10 L-1,7 L-5,8 L-4,3 Z " fill="#E9E9E9" transform="translate(17,3)"/>
<path d="M0,0 L1,0 L3,9 L-4,9 L-5,10 L-11,10 L-10,5 L-9,7 L-6,4 L-8,3 Z " fill="#F1F1F1" transform="translate(18,13)"/>
<path d="M0,0 L1,2 L-5,3 L-5,7 L-8,6 L-10,9 L-9,3 L-6,1 Z " fill="#A9A9A9" transform="translate(16,13)"/>
</svg>
