<?xml version="1.0" encoding="UTF-8"?>
<svg version="1.1" xmlns="http://www.w3.org/2000/svg" width="28" height="28">
<path d="M0,0 L28,0 L28,28 L0,28 Z " fill="#030303" transform="translate(0,0)"/>
<path d="M0,0 L5,1 L7,4 L6,12 L9,13 L9,16 L3,15 L-2,20 L-8,20 L-9,15 L-5,13 L1,12 L4,3 L-4,5 L-3,2 Z " fill="#EDEDED" transform="translate(14,3)"/>
<path d="M0,0 L5,1 L7,4 L6,13 L2,12 L4,3 L-4,5 L-3,2 Z " fill="#DDDDDD" transform="translate(14,3)"/>
<path d="M0,0 L4,1 L2,5 L0,7 L-4,6 L-3,1 Z " fill="#959595" transform="translate(9,16)"/>
</svg>
