<?xml version="1.0" encoding="UTF-8"?>
<svg version="1.1" xmlns="http://www.w3.org/2000/svg" width="28" height="28">
<path d="M0,0 L28,0 L28,28 L0,28 Z " fill="#020202" transform="translate(0,0)"/>
<path d="M0,0 L5,1 L5,8 L1,13 L-1,13 L-1,15 L5,17 L5,20 L-6,18 L-6,14 L-1,9 L2,5 L-3,5 L-3,8 L-6,8 L-5,3 Z " fill="#E2E2E2" transform="translate(15,4)"/>
<path d="M0,0 L1,3 L8,4 L8,7 L-3,5 L-1,1 Z " fill="#F0F0F0" transform="translate(12,17)"/>
<path d="M0,0 L4,1 L1,2 L3,4 L-3,5 L-3,8 L-6,8 L-5,3 Z " fill="#B3B3B3" transform="translate(15,4)"/>
</svg>
