<?xml version="1.0" encoding="UTF-8"?>
<svg version="1.1" xmlns="http://www.w3.org/2000/svg" width="28" height="28">
<path d="M0,0 L28,0 L28,28 L0,28 Z " fill="#050505" transform="translate(0,0)"/>
<path d="M0,0 L6,1 L11,7 L11,13 L12,18 L9,17 L9,15 L-1,20 L-6,19 L-7,18 L-7,12 L-3,9 L7,9 L5,4 L-3,3 L-3,5 L-5,5 L-4,1 Z " fill="#E0E0E0" transform="translate(12,4)"/>
<path d="M0,0 L3,0 L3,5 L10,3 L8,7 L3,8 L0,6 Z " fill="#E8E8E8" transform="translate(5,16)"/>
<path d="M0,0 L7,0 L5,4 L0,5 Z " fill="#101010" transform="translate(8,16)"/>
</svg>
