<?xml version="1.0" encoding="UTF-8"?>
<svg version="1.1" xmlns="http://www.w3.org/2000/svg" width="28" height="28">
<path d="M0,0 L28,0 L28,28 L0,28 Z " fill="#030303" transform="translate(0,0)"/>
<path d="M0,0 L8,0 L10,3 L9,11 L5,18 L8,18 L8,20 L1,19 L-7,19 L-8,18 L-8,12 L-4,10 L-1,14 L-5,13 L-5,17 L0,17 L0,14 L4,13 L7,8 L7,3 L1,3 L-2,8 L-3,4 Z " fill="#D7D7D7" transform="translate(13,3)"/>
<path d="M0,0 L6,1 L6,2 L1,3 L-2,8 L-3,4 Z " fill="#B7B7B7" transform="translate(13,3)"/>
<path d="M0,0 L6,0 L5,4 L0,4 Z " fill="#1A1A1A" transform="translate(8,16)"/>
<path d="M0,0 L4,4 L0,3 L-1,7 L-3,2 Z " fill="#C4C4C4" transform="translate(8,13)"/>
<path d="M0,0 L1,4 L6,5 L6,6 L0,6 L-1,1 Z " fill="#F3F3F3" transform="translate(6,16)"/>
</svg>
