<?xml version="1.0" encoding="UTF-8"?>
<svg version="1.1" xmlns="http://www.w3.org/2000/svg" width="28" height="28">
<path d="M0,0 L28,0 L28,28 L0,28 Z " fill="#030303" transform="translate(0,0)"/>
<path d="M0,0 L5,5 L4,10 L2,13 L3,17 L4,19 L-2,17 L-6,20 L-10,19 L-11,16 L-8,11 L-5,10 L0,12 L2,4 L-1,4 L-2,8 L-5,8 L-6,4 L-4,1 Z " fill="#E3E3E3" transform="translate(17,4)"/>
<path d="M0,0 L2,0 L2,2 L5,2 L5,7 L2,9 L-2,8 L-3,5 Z " fill="#919191" transform="translate(9,15)"/>
<path d="M0,0 L3,1 L1,1 L0,5 L-3,5 L-4,1 Z " fill="#BABABA" transform="translate(15,7)"/>
</svg>
