<?xml version="1.0" encoding="UTF-8"?>
<svg version="1.1" xmlns="http://www.w3.org/2000/svg" width="28" height="28">
<path d="M0,0 L28,0 L28,28 L0,28 Z " fill="#030303" transform="translate(0,0)"/>
<path d="M0,0 L5,0 L8,3 L8,9 L13,10 L13,13 L7,12 L4,16 L0,15 L-1,11 L1,9 L6,9 L4,3 L-2,4 L-6,5 L-6,3 Z " fill="#D5D5D5" transform="translate(10,6)"/>
<path d="M0,0 L5,2 L4,6 L0,7 L-2,5 L-1,1 Z " fill="#C0C0C0" transform="translate(11,15)"/>
<path d="M0,0 L1,4 L6,5 L6,8 L-1,7 L-4,4 L-1,3 Z " fill="#EBEBEB" transform="translate(17,11)"/>
</svg>
