<?xml version="1.0" encoding="UTF-8"?>
<svg version="1.1" xmlns="http://www.w3.org/2000/svg" width="28" height="28">
<path d="M0,0 L28,0 L28,28 L0,28 Z " fill="#030303" transform="translate(0,0)"/>
<path d="M0,0 L5,1 L6,2 L6,10 L5,14 L12,14 L9,17 L0,17 L-1,18 L-6,18 L-8,16 L-8,11 L-3,10 L2,11 L3,4 L-5,5 Z " fill="#E3E3E3" transform="translate(14,4)"/>
<path d="M0,0 L3,3 L3,8 L-2,8 L-4,6 L-4,1 Z " fill="#D6D6D6" transform="translate(10,14)"/>
<path d="M0,0 L5,1 L6,4 L0,4 L-5,5 Z " fill="#CACACA" transform="translate(14,4)"/>
<path d="M0,0 L3,3 L3,5 L-1,5 L-1,2 L-4,1 Z " fill="#727272" transform="translate(10,14)"/>
</svg>
