<?xml version="1.0" encoding="UTF-8"?>
<svg version="1.1" xmlns="http://www.w3.org/2000/svg" width="28" height="28">
<path d="M0,0 L28,0 L28,28 L0,28 Z " fill="#030303" transform="translate(0,0)"/>
<path d="M0,0 L3,1 L3,8 L1,14 L3,17 L6,18 L6,20 L1,20 L-2,16 L-7,19 L-9,13 L-6,8 L-1,9 L-1,5 L-4,5 L-2,1 Z " fill="#DCDCDC" transform="translate(16,4)"/>
<path d="M0,0 L3,1 L3,7 L-4,5 L-2,1 Z " fill="#F3F3F3" transform="translate(16,4)"/>
<path d="M0,0 L4,1 L2,7 L-1,5 Z " fill="#808080" transform="translate(10,15)"/>
</svg>
