<?xml version="1.0" encoding="UTF-8"?>
<svg version="1.1" xmlns="http://www.w3.org/2000/svg" width="28" height="28">
<path d="M0,0 L28,0 L28,28 L0,28 Z " fill="#020202" transform="translate(0,0)"/>
<path d="M0,0 L4,2 L5,3 L4,10 L3,13 L7,15 L7,17 L-1,16 L-6,20 L-9,19 L-8,14 L-5,12 L0,11 L2,7 L2,4 L-4,6 L-2,2 Z " fill="#DEDEDE" transform="translate(15,3)"/>
<path d="M0,0 L4,2 L-1,5 L-1,1 Z " fill="#9F9F9F" transform="translate(10,17)"/>
<path d="M0,0 L3,1 L-2,6 L-4,6 L-2,2 Z " fill="#CFCFCF" transform="translate(15,3)"/>
</svg>
