<?xml version="1.0" encoding="UTF-8"?>
<svg version="1.1" xmlns="http://www.w3.org/2000/svg" width="28" height="28">
<path d="M0,0 L28,0 L28,28 L0,28 Z " fill="#020202" transform="translate(0,0)"/>
<path d="M0,0 L4,2 L5,6 L2,12 L9,11 L9,13 L7,14 L-2,15 L-6,18 L-9,18 L-8,12 L-5,9 L0,10 L2,3 L-3,5 L-3,2 Z " fill="#CACACA" transform="translate(16,5)"/>
<path d="M0,0 L4,2 L5,6 L2,13 L-3,13 L-4,10 L0,10 L2,3 L-3,5 L-3,2 Z " fill="#DFDFDF" transform="translate(16,5)"/>
<path d="M0,0 L3,1 L0,6 L-2,6 L-3,3 Z " fill="#8F8F8F" transform="translate(11,14)"/>
</svg>
