<?xml version="1.0" encoding="UTF-8"?>
<svg version="1.1" xmlns="http://www.w3.org/2000/svg" width="28" height="28">
<path d="M0,0 L28,0 L28,28 L0,28 Z " fill="#020202" transform="translate(0,0)"/>
<path d="M0,0 L6,1 L7,2 L7,7 L2,11 L14,9 L14,11 L1,15 L-6,15 L-4,11 L2,7 L4,3 L-1,3 Z " fill="#D2D2D2" transform="translate(11,6)"/>
<path d="M0,0 L3,1 L-1,6 L-7,7 L-5,3 Z " fill="#E9E9E9" transform="translate(12,14)"/>
<path d="M0,0 L1,0 L1,5 L-2,7 L-4,5 L-1,1 Z " fill="#BABABA" transform="translate(17,8)"/>
</svg>
