<?xml version="1.0" encoding="UTF-8"?>
<svg version="1.1" xmlns="http://www.w3.org/2000/svg" width="28" height="28">
<path d="M0,0 L28,0 L28,28 L0,28 Z " fill="#050505" transform="translate(0,0)"/>
<path d="M0,0 L7,0 L10,3 L11,9 L10,12 L13,12 L13,15 L8,16 L5,19 L-2,20 L-5,17 L-4,13 L-3,16 L4,14 L5,12 L0,11 L1,9 L8,10 L6,4 L-3,5 L-4,2 Z " fill="#EDEDED" transform="translate(11,4)"/>
<path d="M0,0 L4,1 L8,3 L6,7 L0,7 L-1,5 L-3,7 L-2,2 Z " fill="#C3C3C3" transform="translate(8,13)"/>
<path d="M0,0 L5,0 L3,4 L-2,4 L-2,1 Z " fill="#0D0D0D" transform="translate(11,16)"/>
<path d="M0,0 L7,0 L7,1 L0,1 Z M-2,1 L2,3 L-1,5 L-4,4 L-4,2 Z " fill="#BABABA" transform="translate(11,4)"/>
</svg>
