<?xml version="1.0" encoding="UTF-8"?>
<svg version="1.1" xmlns="http://www.w3.org/2000/svg" width="28" height="28">
<path d="M0,0 L28,0 L28,28 L0,28 Z " fill="#020202" transform="translate(0,0)"/>
<path d="M0,0 L5,0 L6,7 L1,14 L11,14 L11,16 L7,18 L-3,19 L-7,20 L-6,15 L-2,14 L2,8 L3,3 L-2,3 Z " fill="#E6E6E6" transform="translate(13,3)"/>
<path d="M0,0 L3,0 L3,2 L-1,4 L-10,4 L-8,1 Z " fill="#C2C2C2" transform="translate(21,17)"/>
<path d="M0,0 L5,0 L4,7 L3,3 L-2,3 Z " fill="#B8B8B8" transform="translate(13,3)"/>
</svg>
