<?xml version="1.0" encoding="UTF-8"?>
<svg version="1.1" xmlns="http://www.w3.org/2000/svg" width="28" height="28">
<path d="M0,0 L28,0 L28,28 L0,28 Z " fill="#050505" transform="translate(0,0)"/>
<path d="M0,0 L10,2 L13,5 L13,11 L12,17 L11,20 L10,17 L-3,19 L-4,15 L-1,12 L10,12 L10,6 L5,3 L1,3 L1,5 L-1,5 Z " fill="#E2E2E2" transform="translate(9,4)"/>
<path d="M0,0 L6,1 L6,5 L-3,6 L-4,2 Z " fill="#C8C8C8" transform="translate(9,17)"/>
<path d="M0,0 L6,1 L6,3 L-1,4 Z " fill="#242424" transform="translate(9,17)"/>
<path d="M0,0 L8,1 L8,2 L1,3 L1,5 L-1,5 Z " fill="#E5E5E5" transform="translate(9,4)"/>
</svg>
