<?xml version="1.0" encoding="UTF-8"?>
<svg version="1.1" xmlns="http://www.w3.org/2000/svg" width="28" height="28">
<path d="M0,0 L28,0 L28,28 L0,28 Z " fill="#030303" transform="translate(0,0)"/>
<path d="M0,0 L5,1 L6,6 L1,11 L0,18 L-3,17 L-3,14 L-7,16 L-13,16 L-13,12 L-10,12 L-11,14 L-6,11 L-6,8 L1,6 L2,4 L-6,4 L-6,2 Z " fill="#E5E5E5" transform="translate(17,5)"/>
<path d="M0,0 L5,1 L6,6 L3,9 L2,4 L-6,4 L-6,2 Z " fill="#CACACA" transform="translate(17,5)"/>
<path d="M0,0 L4,2 L-1,5 L-3,5 L-3,1 Z " fill="#616161" transform="translate(9,14)"/>
</svg>
