<?xml version="1.0" encoding="UTF-8"?>
<svg version="1.1" xmlns="http://www.w3.org/2000/svg" width="28" height="28">
<path d="M0,0 L28,0 L28,28 L0,28 Z " fill="#040404" transform="translate(0,0)"/>
<path d="M0,0 L5,0 L8,5 L8,14 L13,15 L13,18 L6,17 L2,20 L-2,19 L-3,14 L-1,12 L6,12 L5,3 L0,4 L-1,6 L-3,6 L-2,1 Z " fill="#C7C7C7" transform="translate(11,3)"/>
<path d="M0,0 L1,2 L8,1 L4,5 L0,4 Z " fill="#E8E8E8" transform="translate(9,18)"/>
<path d="M0,0 L4,1 L5,10 L3,10 L1,2 Z " fill="#F3F3F3" transform="translate(14,4)"/>
</svg>
