<?xml version="1.0" encoding="UTF-8"?>
<svg version="1.1" xmlns="http://www.w3.org/2000/svg" width="28" height="28">
<path d="M0,0 L28,0 L28,28 L0,28 Z " fill="#030303" transform="translate(0,0)"/>
<path d="M0,0 L5,0 L7,4 L6,12 L5,16 L9,18 L7,19 L2,18 L0,20 L-6,19 L-7,18 L-7,12 L0,12 L3,13 L4,10 L4,3 L0,5 L-3,6 L-3,2 Z " fill="#E3E3E3" transform="translate(14,3)"/>
<path d="M0,0 L7,0 L10,2 L8,3 L7,8 L1,7 L0,6 Z " fill="#DADADA" transform="translate(7,15)"/>
<path d="M0,0 L6,1 L6,3 L1,4 Z " fill="#272727" transform="translate(9,17)"/>
</svg>
