<?xml version="1.0" encoding="UTF-8"?>
<svg version="1.1" xmlns="http://www.w3.org/2000/svg" width="28" height="28">
<path d="M0,0 L28,0 L28,28 L0,28 Z " fill="#020202" transform="translate(0,0)"/>
<path d="M0,0 L5,1 L6,6 L3,12 L5,16 L7,20 L3,18 L-1,18 L-3,20 L-7,19 L-6,13 L-4,11 L1,10 L3,2 L-4,4 Z " fill="#C7C7C7" transform="translate(14,3)"/>
<path d="M0,0 L5,1 L6,4 L2,8 L-2,7 L-1,1 Z " fill="#949494" transform="translate(9,15)"/>
<path d="M0,0 L6,1 L11,7 L11,9 L7,7 L3,2 Z " fill="#E4E4E4" transform="translate(10,14)"/>
</svg>
