<?xml version="1.0" encoding="UTF-8"?>
<svg version="1.1" xmlns="http://www.w3.org/2000/svg" width="28" height="28">
<path d="M0,0 L28,0 L28,28 L0,28 Z " fill="#040404" transform="translate(0,0)"/>
<path d="M0,0 L4,2 L3,9 L2,14 L4,19 L1,17 L1,15 L-6,19 L-7,20 L-12,20 L-11,15 L-7,12 L-1,12 L1,7 L2,4 L-3,7 L-7,8 L-5,4 Z " fill="#CFCFCF" transform="translate(17,4)"/>
<path d="M0,0 L4,2 L3,8 L2,4 L-3,7 L-7,8 L-5,4 Z " fill="#F8F8F8" transform="translate(17,4)"/>
<path d="M0,0 L2,1 L-1,6 L-5,7 L-3,3 Z " fill="#D4D4D4" transform="translate(15,5)"/>
<path d="M0,0 L3,0 L3,2 L-1,5 L-5,4 Z " fill="#1A1A1A" transform="translate(11,17)"/>
</svg>
