<?xml version="1.0" encoding="UTF-8"?>
<svg version="1.1" xmlns="http://www.w3.org/2000/svg" width="28" height="28">
<path d="M0,0 L28,0 L28,28 L0,28 Z " fill="#020202" transform="translate(0,0)"/>
<path d="M0,0 L5,1 L4,9 L2,14 L2,17 L0,17 L0,15 L-8,20 L-12,20 L-13,15 L-11,13 L-7,12 L0,12 L3,2 L-3,5 L-6,4 Z " fill="#DBDBDB" transform="translate(17,4)"/>
<path d="M0,0 L5,1 L4,5 L-1,8 L-5,8 L-6,3 L-4,1 Z " fill="#C3C3C3" transform="translate(10,16)"/>
<path d="M0,0 L2,0 L1,3 L-2,5 L-6,5 L-6,2 Z " fill="#0B0B0B" transform="translate(12,17)"/>
</svg>
