<?xml version="1.0" encoding="UTF-8"?>
<svg version="1.1" xmlns="http://www.w3.org/2000/svg" width="28" height="28">
<path d="M0,0 L28,0 L28,28 L0,28 Z " fill="#020202" transform="translate(0,0)"/>
<path d="M0,0 L7,0 L12,3 L13,4 L13,9 L17,11 L17,13 L10,12 L5,13 L8,10 L7,9 L0,9 L-1,12 L2,13 L-2,14 L-3,8 L-1,8 L-1,6 L7,6 L11,7 L7,3 L0,2 L0,4 L-2,4 Z " fill="#D6D6D6" transform="translate(8,7)"/>
<path d="M0,0 L7,0 L9,2 L6,4 L7,6 L2,6 L2,4 L-1,4 Z " fill="#191919" transform="translate(8,15)"/>
</svg>
