<?xml version="1.0" encoding="UTF-8"?>
<svg version="1.1" xmlns="http://www.w3.org/2000/svg" width="28" height="28">
<path d="M0,0 L28,0 L28,28 L0,28 Z " fill="#030303" transform="translate(0,0)"/>
<path d="M0,0 L3,0 L4,5 L0,13 L-1,17 L3,20 L-2,19 L-5,18 L-11,19 L-12,14 L-10,12 L-3,13 L1,7 L2,2 L-3,6 L-6,5 Z " fill="#DDDDDD" transform="translate(18,4)"/>
<path d="M0,0 L6,1 L5,6 L-1,7 L-2,2 Z " fill="#C2C2C2" transform="translate(8,16)"/>
<path d="M0,0 L4,1 L3,4 L-1,5 Z " fill="#1C1C1C" transform="translate(9,17)"/>
</svg>
