<?xml version="1.0" encoding="UTF-8"?>
<svg version="1.1" xmlns="http://www.w3.org/2000/svg" width="28" height="28">
<path d="M0,0 L28,0 L28,28 L0,28 Z " fill="#040404" transform="translate(0,0)"/>
<path d="M0,0 L6,0 L9,3 L8,12 L6,14 L6,18 L-1,19 L-10,19 L-11,18 L-11,12 L-8,8 L-2,8 L5,12 L6,3 L-3,4 Z " fill="#E4E4E4" transform="translate(15,4)"/>
<path d="M0,0 L5,0 L8,5 L6,7 L-2,7 L-2,2 Z " fill="#0B0B0B" transform="translate(8,14)"/>
<path d="M0,0 L4,1 L0,4 L0,9 L5,10 L5,11 L-2,11 L-3,10 L-3,4 Z " fill="#EDEDED" transform="translate(7,12)"/>
<path d="M0,0 L6,0 L5,3 L-3,4 Z " fill="#B9B9B9" transform="translate(15,4)"/>
<path d="M0,0 L1,0 L2,8 L-1,10 L-4,8 L-1,8 Z " fill="#AFAFAF" transform="translate(21,8)"/>
</svg>
