<?xml version="1.0" encoding="UTF-8"?>
<svg version="1.1" xmlns="http://www.w3.org/2000/svg" width="28" height="28">
<path d="M0,0 L28,0 L28,28 L0,28 Z " fill="#040404" transform="translate(0,0)"/>
<path d="M0,0 L5,1 L6,2 L6,19 L4,20 L4,16 L0,19 L-9,20 L-11,16 L-8,12 L3,11 L4,3 L-1,6 L-4,6 L-4,3 Z " fill="#ECECEC" transform="translate(15,3)"/>
<path d="M0,0 L7,1 L8,3 L8,6 L4,8 L-1,8 L-3,4 Z " fill="#CFCFCF" transform="translate(7,15)"/>
<path d="M0,0 L2,0 L2,8 L1,9 L-7,9 L-5,5 L-6,3 Z " fill="#202020" transform="translate(17,6)"/>
<path d="M0,0 L4,1 L0,5 L-4,5 L-3,1 Z " fill="#1A1A1A" transform="translate(11,16)"/>
</svg>
