<?xml version="1.0" encoding="UTF-8"?>
<svg version="1.1" xmlns="http://www.w3.org/2000/svg" width="28" height="28">
<path d="M0,0 L28,0 L28,28 L0,28 Z " fill="#030303" transform="translate(0,0)"/>
<path d="M0,0 L7,0 L12,4 L13,6 L13,13 L13,17 L14,20 L9,18 L8,19 L1,19 L-2,16 L-2,12 L3,11 L9,12 L9,6 L7,4 L-1,4 Z " fill="#C6C6C6" transform="translate(8,4)"/>
<path d="M0,0 L5,1 L2,6 L5,6 L5,8 L0,7 L-2,5 L-2,1 Z " fill="#E6E6E6" transform="translate(8,15)"/>
<path d="M0,0 L5,0 L5,2 L-1,4 Z " fill="#F0F0F0" transform="translate(8,4)"/>
</svg>
