<?xml version="1.0" encoding="UTF-8"?>
<svg version="1.1" xmlns="http://www.w3.org/2000/svg" width="28" height="28">
<path d="M0,0 L28,0 L28,28 L0,28 Z " fill="#030303" transform="translate(0,0)"/>
<path d="M0,0 L5,1 L7,5 L7,13 L6,15 L10,16 L1,20 L-4,20 L-7,17 L-6,12 L1,12 L5,14 L4,4 L-1,3 L-2,6 L-2,2 Z " fill="#D5D5D5" transform="translate(13,3)"/>
<path d="M0,0 L7,0 L9,1 L9,3 L0,2 L3,6 L0,6 L-1,1 Z " fill="#E4E4E4" transform="translate(7,15)"/>
<path d="M0,0 L5,1 L7,7 L5,7 L3,3 L-1,3 L-2,6 L-2,2 Z " fill="#D5D5D5" transform="translate(13,3)"/>
<path d="M0,0 L6,0 L8,1 L7,4 L1,3 Z " fill="#2F2F2F" transform="translate(7,17)"/>
</svg>
