<?xml version="1.0" encoding="UTF-8"?>
<svg version="1.1" xmlns="http://www.w3.org/2000/svg" width="28" height="28">
<path d="M0,0 L28,0 L28,28 L0,28 Z " fill="#030303" transform="translate(0,0)"/>
<path d="M0,0 L5,1 L5,8 L4,11 L6,14 L0,13 L-2,17 L-7,20 L-10,20 L-10,15 L-5,11 L1,9 L3,3 L-3,6 L-5,6 L-4,2 Z " fill="#A0A0A0" transform="translate(16,4)"/>
<path d="M0,0 L5,1 L5,8 L4,11 L6,14 L1,13 L3,3 L-3,6 L-5,6 L-4,2 Z " fill="#E9E9E9" transform="translate(16,4)"/>
<path d="M0,0 L5,1 L3,3 L-3,6 L-5,6 L-4,2 Z " fill="#D3D3D3" transform="translate(16,4)"/>
<path d="M0,0 L2,0 L2,3 L7,1 L3,5 L0,5 Z " fill="#E6E6E6" transform="translate(6,19)"/>
</svg>
