<?xml version="1.0" encoding="UTF-8"?>
<svg version="1.1" xmlns="http://www.w3.org/2000/svg" width="28" height="28">
<path d="M0,0 L28,0 L28,28 L0,28 Z " fill="#040404" transform="translate(0,0)"/>
<path d="M0,0 L5,0 L8,2 L8,10 L7,14 L12,14 L12,16 L4,17 L0,20 L-5,19 L-7,18 L-6,14 L-4,12 L5,12 L5,4 L1,3 L-4,6 L-5,8 L-7,8 L-6,4 Z " fill="#CDCDCD" transform="translate(13,4)"/>
<path d="M0,0 L5,0 L8,2 L8,10 L6,11 L5,4 L1,3 L-4,6 L-5,8 L-7,8 L-6,4 Z " fill="#DCDCDC" transform="translate(13,4)"/>
<path d="M0,0 L9,0 L6,2 L1,3 L0,6 L6,5 L4,8 L-1,7 L-3,6 L-2,2 Z " fill="#DEDEDE" transform="translate(9,16)"/>
<path d="M0,0 L5,0 L3,4 L-1,4 Z " fill="#111111" transform="translate(10,18)"/>
</svg>
