<?xml version="1.0" encoding="UTF-8"?>
<svg version="1.1" xmlns="http://www.w3.org/2000/svg" width="28" height="28">
<path d="M0,0 L28,0 L28,28 L0,28 Z " fill="#030303" transform="translate(0,0)"/>
<path d="M0,0 L10,0 L13,3 L13,10 L15,11 L15,13 L8,15 L3,17 L-3,17 L-5,12 L-4,10 L5,8 L10,9 L9,4 L-1,3 Z " fill="#E7E7E7" transform="translate(9,5)"/>
<path d="M0,0 L10,0 L13,3 L13,8 L10,8 L9,4 L-1,3 Z " fill="#DADADA" transform="translate(9,5)"/>
<path d="M0,0 L7,0 L7,2 L2,4 L-2,4 Z " fill="#222222" transform="translate(9,16)"/>
</svg>
