<?xml version="1.0" encoding="UTF-8"?>
<svg version="1.1" xmlns="http://www.w3.org/2000/svg" width="28" height="28">
<path d="M0,0 L28,0 L28,28 L0,28 Z " fill="#040404" transform="translate(0,0)"/>
<path d="M0,0 L7,1 L8,2 L7,11 L6,13 L9,15 L9,17 L3,17 L-3,20 L-8,20 L-9,19 L-9,14 L-4,12 L3,12 L5,9 L5,4 L3,3 L-2,6 L-4,6 L-3,2 Z " fill="#D6D6D6" transform="translate(14,3)"/>
<path d="M0,0 L7,1 L8,2 L7,11 L5,13 L5,4 L3,3 L-2,6 L-4,6 L-3,2 Z " fill="#E9E9E9" transform="translate(14,3)"/>
<path d="M0,0 L8,0 L8,2 L4,2 L3,5 L-4,6 L-2,1 Z " fill="#C5C5C5" transform="translate(10,15)"/>
<path d="M0,0 L3,1 L0,5 L7,5 L5,7 L0,7 L-1,6 L-1,1 Z " fill="#F1F1F1" transform="translate(6,16)"/>
<path d="M0,0 L2,1 L3,3 L-2,6 L-4,6 L-3,2 Z " fill="#CDCDCD" transform="translate(14,3)"/>
<path d="M0,0 L7,0 L4,3 L-1,3 Z " fill="#1C1C1C" transform="translate(7,18)"/>
</svg>
