<?xml version="1.0" encoding="UTF-8"?>
<svg version="1.1" xmlns="http://www.w3.org/2000/svg" width="28" height="28">
<path d="M0,0 L28,0 L28,28 L0,28 Z " fill="#020202" transform="translate(0,0)"/>
<path d="M0,0 L11,0 L13,3 L13,9 L18,15 L13,13 L10,13 L6,17 L5,15 L8,12 L9,10 L5,9 L10,8 L10,3 L0,2 Z " fill="#E2E2E2" transform="translate(7,6)"/>
<path d="M0,0 L6,1 L4,6 L2,6 L1,9 L-4,8 L-5,4 Z " fill="#B5B5B5" transform="translate(10,15)"/>
<path d="M0,0 L5,0 L3,4 L-4,5 L-2,1 Z " fill="#080808" transform="translate(11,17)"/>
</svg>
