<?xml version="1.0" encoding="UTF-8"?>
<svg version="1.1" xmlns="http://www.w3.org/2000/svg" width="28" height="28">
<path d="M0,0 L28,0 L28,28 L0,28 Z " fill="#040404" transform="translate(0,0)"/>
<path d="M0,0 L5,1 L10,5 L9,12 L12,14 L3,18 L1,19 L-7,19 L-8,14 L-3,11 L6,12 L7,6 L0,1 Z " fill="#EAEAEA" transform="translate(12,3)"/>
<path d="M0,0 L5,1 L10,5 L10,9 L8,9 L5,4 L0,1 Z " fill="#E4E4E4" transform="translate(12,3)"/>
<path d="M0,0 L7,0 L7,2 L3,4 L-1,3 Z " fill="#202020" transform="translate(7,17)"/>
<path d="M0,0 L5,2 L5,3 L-4,4 L-5,7 L-4,2 Z " fill="#BFBFBF" transform="translate(9,14)"/>
</svg>
