<?xml version="1.0" encoding="UTF-8"?>
<svg version="1.1" xmlns="http://www.w3.org/2000/svg" width="28" height="28">
<path d="M0,0 L28,0 L28,28 L0,28 Z " fill="#020202" transform="translate(0,0)"/>
<path d="M0,0 L4,0 L5,2 L4,12 L6,12 L7,17 L5,17 L4,15 L-1,20 L-4,20 L-4,14 L1,10 L2,7 L-4,8 L-3,2 Z " fill="#CBCBCB" transform="translate(13,4)"/>
<path d="M0,0 L4,0 L5,2 L5,8 L3,10 L3,3 L0,4 L-1,6 L2,7 L-4,8 L-3,2 Z " fill="#DEDEDE" transform="translate(13,4)"/>
<path d="M0,0 L3,0 L4,3 L1,6 L-1,6 L-1,1 Z " fill="#F8F8F8" transform="translate(11,18)"/>
<path d="M0,0 L3,0 L3,8 L1,7 L2,3 L-1,3 Z " fill="#777777" transform="translate(13,7)"/>
</svg>
