<?xml version="1.0" encoding="UTF-8"?>
<svg version="1.1" xmlns="http://www.w3.org/2000/svg" width="28" height="28">
<path d="M0,0 L28,0 L28,28 L0,28 Z " fill="#030303" transform="translate(0,0)"/>
<path d="M0,0 L9,0 L11,1 L11,3 L14,4 L18,9 L16,10 L14,16 L10,18 L5,17 L5,12 L9,8 L12,8 L8,4 L-2,4 Z " fill="#E8E8E8" transform="translate(6,6)"/>
<path d="M0,0 L9,0 L11,1 L11,3 L14,4 L15,7 L12,8 L8,4 L-2,4 Z " fill="#CFCFCF" transform="translate(6,6)"/>
<path d="M0,0 L4,0 L2,4 L-3,5 L-3,2 Z " fill="#0E0E0E" transform="translate(16,16)"/>
<path d="M0,0 L5,1 L1,3 L-2,4 L-2,7 L0,8 L-3,8 L-4,4 Z " fill="#D2D2D2" transform="translate(15,14)"/>
</svg>
