<?xml version="1.0" encoding="UTF-8"?>
<svg version="1.1" xmlns="http://www.w3.org/2000/svg" width="28" height="28">
<path d="M0,0 L28,0 L28,28 L0,28 Z " fill="#040404" transform="translate(0,0)"/>
<path d="M0,0 L7,0 L12,5 L13,14 L14,19 L11,16 L6,18 L2,19 L-1,18 L-2,13 L-1,12 L9,12 L8,5 L6,3 L-2,4 L-4,10 L-6,9 L-6,4 Z " fill="#DEDEDE" transform="translate(10,5)"/>
<path d="M0,0 L7,0 L12,5 L11,10 L9,7 L6,3 L-2,4 L-4,10 L-6,9 L-6,4 Z " fill="#D4D4D4" transform="translate(10,5)"/>
<path d="M0,0 L7,2 L6,4 L1,4 L0,6 L-1,1 Z " fill="#767676" transform="translate(9,17)"/>
<path d="M0,0 L3,1 L-1,4 L-2,9 L-4,8 L-4,3 Z " fill="#EBEBEB" transform="translate(8,6)"/>
</svg>
