<?xml version="1.0" encoding="UTF-8"?>
<svg version="1.1" xmlns="http://www.w3.org/2000/svg" width="28" height="28">
<path d="M0,0 L28,0 L28,28 L0,28 Z " fill="#030303" transform="translate(0,0)"/>
<path d="M0,0 L6,0 L8,3 L7,10 L4,16 L9,17 L9,12 L12,12 L12,18 L11,20 L4,19 L0,18 L1,13 L3,10 L4,2 L1,3 L0,5 L-2,5 L-1,1 Z " fill="#E6E6E6" transform="translate(9,3)"/>
<path d="M0,0 L6,0 L8,3 L8,8 L4,9 L4,2 L1,3 L0,5 L-2,5 L-1,1 Z " fill="#B7B7B7" transform="translate(9,3)"/>
<path d="M0,0 L6,0 L7,3 L1,3 L0,5 L-2,5 L-1,1 Z " fill="#E3E3E3" transform="translate(9,3)"/>
</svg>
