<?xml version="1.0" encoding="UTF-8"?>
<svg version="1.1" xmlns="http://www.w3.org/2000/svg" width="28" height="28">
<path d="M0,0 L28,0 L28,28 L0,28 Z " fill="#010101" transform="translate(0,0)"/>
<path d="M0,0 L6,0 L9,2 L10,9 L6,17 L12,18 L12,20 L6,20 L5,19 L-5,19 L-6,18 L-6,12 L0,11 L5,12 L6,10 L6,4 L-3,4 L-2,1 Z " fill="#DBDBDB" transform="translate(12,3)"/>
<path d="M0,0 L3,1 L2,3 L4,3 L3,8 L-2,8 L-3,7 L-3,1 Z " fill="#B4B4B4" transform="translate(9,14)"/>
<path d="M0,0 L5,1 L1,3 L-3,4 L-2,1 Z " fill="#EDEDED" transform="translate(12,3)"/>
</svg>
