<?xml version="1.0" encoding="UTF-8"?>
<svg version="1.1" xmlns="http://www.w3.org/2000/svg" width="28" height="28">
<path d="M0,0 L28,0 L28,28 L0,28 Z " fill="#030303" transform="translate(0,0)"/>
<path d="M0,0 L5,0 L10,6 L10,13 L9,16 L3,20 L-3,20 L-5,19 L-4,14 L1,11 L6,12 L8,13 L7,6 L4,3 L0,4 L-2,5 L-1,1 Z " fill="#E6E6E6" transform="translate(11,3)"/>
<path d="M0,0 L6,1 L2,5 L-3,4 L-3,2 Z " fill="#151515" transform="translate(11,16)"/>
<path d="M0,0 L3,2 L9,2 L10,4 L8,5 L2,5 L0,4 Z " fill="#D2D2D2" transform="translate(6,18)"/>
</svg>
