<?xml version="1.0" encoding="UTF-8"?>
<svg version="1.1" xmlns="http://www.w3.org/2000/svg" width="28" height="28">
<path d="M0,0 L28,0 L28,28 L0,28 Z " fill="#030303" transform="translate(0,0)"/>
<path d="M0,0 L6,0 L11,5 L12,13 L11,18 L8,20 L2,20 L0,18 L0,13 L6,13 L10,15 L8,5 L6,3 L0,3 L-3,5 L-1,1 Z " fill="#DEDEDE" transform="translate(9,4)"/>
<path d="M0,0 L6,0 L11,5 L12,11 L10,12 L7,4 L6,3 L0,3 L-3,5 L-1,1 Z " fill="#C3C3C3" transform="translate(9,4)"/>
<path d="M0,0 L7,1 L7,4 L2,5 L0,3 Z " fill="#1C1C1C" transform="translate(10,18)"/>
</svg>
