<?xml version="1.0" encoding="UTF-8"?>
<svg version="1.1" xmlns="http://www.w3.org/2000/svg" width="28" height="28">
<path d="M0,0 L28,0 L28,28 L0,28 Z " fill="#020202" transform="translate(0,0)"/>
<path d="M0,0 L5,0 L7,2 L7,11 L6,14 L9,17 L12,18 L12,20 L7,19 L4,16 L0,18 L-4,19 L-4,13 L-1,10 L4,10 L5,3 L-3,4 L-3,1 Z " fill="#ADADAD" transform="translate(12,3)"/>
<path d="M0,0 L5,1 L1,3 L-1,6 L1,6 L0,9 L-3,9 L-3,3 Z " fill="#E1E1E1" transform="translate(11,13)"/>
<path d="M0,0 L5,0 L7,2 L7,9 L6,9 L5,3 L-3,4 L-3,1 Z " fill="#D6D6D6" transform="translate(12,3)"/>
</svg>
