<?xml version="1.0" encoding="UTF-8"?>
<svg version="1.1" xmlns="http://www.w3.org/2000/svg" width="28" height="28">
<path d="M0,0 L28,0 L28,28 L0,28 Z " fill="#030303" transform="translate(0,0)"/>
<path d="M0,0 L2,1 L1,2 L11,1 L15,1 L15,4 L2,6 L-4,6 L-4,3 Z " fill="#DFDFDF" transform="translate(11,17)"/>
<path d="M0,0 L7,1 L11,5 L9,10 L6,13 L4,12 L8,7 L7,4 L0,4 L-3,7 L-3,2 Z " fill="#DDDDDD" transform="translate(9,3)"/>
<path d="M0,0 L2,1 L0,4 L2,6 L-4,6 L-4,3 Z " fill="#BFBFBF" transform="translate(11,17)"/>
<path d="M0,0 L3,3 L1,8 L-2,11 L-4,10 L0,5 L-1,1 Z " fill="#B9B9B9" transform="translate(17,5)"/>
</svg>
