<?xml version="1.0" encoding="UTF-8"?>
<svg version="1.1" xmlns="http://www.w3.org/2000/svg" width="28" height="28">
<path d="M0,0 L28,0 L28,28 L0,28 Z " fill="#040404" transform="translate(0,0)"/>
<path d="M0,0 L6,1 L7,3 L7,11 L5,15 L9,15 L8,18 L2,18 L-2,20 L-8,20 L-9,15 L-6,12 L4,12 L4,4 L-2,4 L-5,6 L-4,2 Z " fill="#E4E4E4" transform="translate(14,3)"/>
<path d="M0,0 L5,0 L5,2 L1,4 L3,6 L-3,6 L-4,2 Z " fill="#D8D8D8" transform="translate(9,17)"/>
<path d="M0,0 L5,0 L5,2 L-2,3 L-2,1 Z " fill="#2C2C2C" transform="translate(9,17)"/>
</svg>
