<?xml version="1.0" encoding="UTF-8"?>
<svg version="1.1" xmlns="http://www.w3.org/2000/svg" width="28" height="28">
<path d="M0,0 L28,0 L28,28 L0,28 Z " fill="#030303" transform="translate(0,0)"/>
<path d="M0,0 L5,0 L6,1 L6,7 L-1,15 L5,16 L5,18 L-2,19 L-6,19 L-4,13 L3,5 L3,3 L-3,4 L-3,1 Z " fill="#F1F1F1" transform="translate(14,4)"/>
<path d="M0,0 L5,0 L6,1 L6,7 L1,10 L-2,12 L0,8 L3,5 L3,3 L-3,4 L-3,1 Z " fill="#E4E4E4" transform="translate(14,4)"/>
<path d="M0,0 L1,0 L1,6 L-4,9 L-7,11 L-5,7 L-2,4 L0,4 Z " fill="#C2C2C2" transform="translate(19,5)"/>
</svg>
