<?xml version="1.0" encoding="UTF-8"?>
<svg version="1.1" xmlns="http://www.w3.org/2000/svg" width="28" height="28">
<path d="M0,0 L28,0 L28,28 L0,28 Z " fill="#030303" transform="translate(0,0)"/>
<path d="M0,0 L5,0 L7,2 L7,8 L6,13 L8,15 L7,19 L5,19 L4,16 L0,17 L-3,20 L-8,19 L-7,14 L-3,11 L2,10 L4,4 L-3,5 L-1,1 Z " fill="#DCDCDC" transform="translate(14,4)"/>
<path d="M0,0 L5,0 L7,2 L7,6 L5,6 L5,3 L0,5 L-3,5 L-1,1 Z " fill="#EEEEEE" transform="translate(14,4)"/>
<path d="M0,0 L4,1 L4,3 L-3,5 L-1,1 Z " fill="#B3B3B3" transform="translate(9,16)"/>
</svg>
