<?xml version="1.0" encoding="UTF-8"?>
<svg version="1.1" xmlns="http://www.w3.org/2000/svg" width="28" height="28">
<path d="M0,0 L28,0 L28,28 L0,28 Z " fill="#030303" transform="translate(0,0)"/>
<path d="M0,0 L5,0 L7,3 L6,9 L4,15 L11,16 L10,19 L0,19 L-4,20 L-5,15 L1,13 L5,3 L0,3 Z " fill="#E8E8E8" transform="translate(12,2)"/>
<path d="M0,0 L5,0 L7,3 L6,9 L2,12 L5,3 L0,3 Z " fill="#D3D3D3" transform="translate(12,2)"/>
<path d="M0,0 L5,0 L6,3 L0,3 Z " fill="#B7B7B7" transform="translate(12,2)"/>
</svg>
