<?xml version="1.0" encoding="UTF-8"?>
<svg version="1.1" xmlns="http://www.w3.org/2000/svg" width="28" height="28">
<path d="M0,0 L28,0 L28,28 L0,28 Z " fill="#020202" transform="translate(0,0)"/>
<path d="M0,0 L7,1 L9,4 L9,10 L7,16 L15,17 L15,20 L4,19 L2,18 L3,14 L7,7 L7,3 L1,3 L-2,5 L-1,1 Z " fill="#D2D2D2" transform="translate(8,3)"/>
<path d="M0,0 L6,1 L6,4 L-5,3 L-5,2 L0,1 Z " fill="#B9B9B9" transform="translate(17,19)"/>
<path d="M0,0 L2,0 L4,2 L8,4 L-1,4 Z " fill="#E4E4E4" transform="translate(11,17)"/>
<path d="M0,0 L4,1 L5,3 L0,4 L-2,5 L-1,1 Z " fill="#B7B7B7" transform="translate(8,3)"/>
</svg>
