<?xml version="1.0" encoding="UTF-8"?>
<svg version="1.1" xmlns="http://www.w3.org/2000/svg" width="28" height="28">
<path d="M0,0 L28,0 L28,28 L0,28 Z " fill="#030303" transform="translate(0,0)"/>
<path d="M0,0 L6,1 L9,3 L9,10 L7,14 L15,13 L15,15 L13,16 L-2,18 L-4,16 L-4,13 L4,13 L7,4 L1,3 L-2,6 L-5,6 L-4,2 Z " fill="#DADADA" transform="translate(11,5)"/>
<path d="M0,0 L4,0 L4,2 L-1,5 L-5,6 L-4,2 Z " fill="#DEDEDE" transform="translate(11,5)"/>
<path d="M0,0 L2,3 L1,5 L9,4 L9,6 L3,7 L0,6 L-1,2 Z " fill="#BABABA" transform="translate(17,14)"/>
</svg>
