<?xml version="1.0" encoding="UTF-8"?>
<svg version="1.1" xmlns="http://www.w3.org/2000/svg" width="28" height="28">
<path d="M0,0 L28,0 L28,28 L0,28 Z " fill="#030303" transform="translate(0,0)"/>
<path d="M0,0 L6,1 L9,7 L8,13 L7,15 L10,16 L3,19 L2,20 L-4,20 L-5,17 L-2,14 L5,13 L5,3 L-6,6 L-5,3 Z " fill="#E4E4E4" transform="translate(12,4)"/>
<path d="M0,0 L6,1 L9,7 L8,13 L6,13 L5,3 L-6,6 L-5,3 Z " fill="#D9D9D9" transform="translate(12,4)"/>
<path d="M0,0 L5,0 L5,3 L2,4 L0,3 Z " fill="#797979" transform="translate(10,20)"/>
</svg>
