<?xml version="1.0" encoding="UTF-8"?>
<svg version="1.1" xmlns="http://www.w3.org/2000/svg" width="28" height="28">
<path d="M0,0 L28,0 L28,28 L0,28 Z " fill="#030303" transform="translate(0,0)"/>
<path d="M0,0 L5,1 L5,7 L3,12 L4,20 L1,20 L0,17 L-5,18 L-6,19 L-13,19 L-12,14 L-8,11 L-1,10 L2,3 L-2,3 L-2,5 L-6,5 L-4,1 Z " fill="#EAEAEA" transform="translate(17,3)"/>
<path d="M0,0 L7,0 L3,1 L2,4 L-3,6 L-3,3 Z " fill="#898989" transform="translate(9,14)"/>
<path d="M0,0 L4,1 L-2,3 L-2,5 L-6,5 L-4,1 Z " fill="#CFCFCF" transform="translate(17,3)"/>
</svg>
