<?xml version="1.0" encoding="UTF-8"?>
<svg version="1.1" xmlns="http://www.w3.org/2000/svg" width="28" height="28">
<path d="M0,0 L28,0 L28,28 L0,28 Z " fill="#050505" transform="translate(0,0)"/>
<path d="M0,0 L5,2 L8,6 L10,13 L15,17 L15,19 L11,18 L11,16 L6,14 L5,18 L4,19 L-3,19 L-5,18 L-4,11 L0,9 L6,9 L4,5 L0,5 L-2,8 L-4,8 L-3,3 Z " fill="#D7D7D7" transform="translate(12,3)"/>
<path d="M0,0 L6,0 L1,6 L6,5 L9,3 L8,8 L7,9 L0,9 L-2,8 L-1,1 Z " fill="#E3E3E3" transform="translate(9,13)"/>
<path d="M0,0 L5,2 L7,4 L7,9 L4,5 L0,5 L-2,8 L-4,8 L-3,3 Z " fill="#E0E0E0" transform="translate(12,3)"/>
<path d="M0,0 L4,0 L3,4 L-2,5 L-2,2 Z " fill="#111111" transform="translate(12,15)"/>
</svg>
