<?xml version="1.0" encoding="UTF-8"?>
<svg version="1.1" xmlns="http://www.w3.org/2000/svg" width="28" height="28">
<path d="M0,0 L28,0 L28,28 L0,28 Z " fill="#040404" transform="translate(0,0)"/>
<path d="M0,0 L7,0 L12,4 L12,15 L13,19 L10,20 L9,17 L4,18 L-3,18 L-5,16 L-4,11 L-2,10 L6,10 L9,11 L8,4 L1,3 L-2,6 L-4,6 L-3,2 Z " fill="#E0E0E0" transform="translate(10,4)"/>
<path d="M0,0 L7,0 L11,4 L8,4 L1,3 L-2,6 L-4,6 L-3,2 Z " fill="#DCDCDC" transform="translate(10,4)"/>
<path d="M0,0 L6,0 L7,2 L1,4 L-1,3 Z " fill="#141414" transform="translate(9,16)"/>
</svg>
