<?xml version="1.0" encoding="UTF-8"?>
<svg version="1.1" xmlns="http://www.w3.org/2000/svg" width="28" height="28">
<path d="M0,0 L28,0 L28,28 L0,28 Z " fill="#040404" transform="translate(0,0)"/>
<path d="M0,0 L7,0 L11,3 L11,10 L15,11 L9,12 L7,16 L5,18 L-3,18 L-5,15 L-4,11 L1,10 L9,10 L8,3 L-1,3 Z " fill="#E9E9E9" transform="translate(10,5)"/>
<path d="M0,0 L3,1 L6,3 L2,6 L-3,6 L-4,3 L-6,4 L-5,1 Z " fill="#DBDBDB" transform="translate(11,15)"/>
<path d="M0,0 L3,1 L-1,4 L-5,4 L-5,1 Z " fill="#262626" transform="translate(14,17)"/>
</svg>
