<?xml version="1.0" encoding="UTF-8"?>
<svg version="1.1" xmlns="http://www.w3.org/2000/svg" width="28" height="28">
<path d="M0,0 L28,0 L28,28 L0,28 Z " fill="#030303" transform="translate(0,0)"/>
<path d="M0,0 L5,0 L8,4 L6,16 L10,18 L6,19 L2,18 L-1,20 L-7,20 L-9,18 L-8,12 L-6,10 L0,10 L4,12 L5,3 L0,3 L-2,7 L-4,7 L-3,2 Z " fill="#D6D6D6" transform="translate(14,3)"/>
<path d="M0,0 L5,0 L8,4 L6,14 L2,12 L4,12 L5,3 L0,3 L-2,7 L-4,7 L-3,2 Z " fill="#BEBEBE" transform="translate(14,3)"/>
<path d="M0,0 L5,0 L6,4 L4,6 L-1,6 L-2,3 Z " fill="#161616" transform="translate(9,15)"/>
<path d="M0,0 L3,0 L3,2 L-1,4 L-2,7 L-4,7 L-3,2 Z " fill="#DADADA" transform="translate(14,3)"/>
</svg>
