<?xml version="1.0" encoding="UTF-8"?>
<svg version="1.1" xmlns="http://www.w3.org/2000/svg" width="28" height="28">
<path d="M0,0 L28,0 L28,28 L0,28 Z " fill="#010101" transform="translate(0,0)"/>
<path d="M0,0 L6,0 L9,4 L9,11 L14,16 L14,20 L11,20 L11,16 L5,15 L0,20 L-5,19 L-6,18 L-5,11 L-2,9 L4,9 L5,4 L0,4 L-2,5 L-3,2 Z " fill="#DADADA" transform="translate(11,3)"/>
<path d="M0,0 L6,0 L5,2 L2,3 L2,10 L-2,8 L-1,1 Z M2,7 Z " fill="#EDEDED" transform="translate(7,13)"/>
<path d="M0,0 L5,0 L0,6 L-1,6 L-1,1 Z " fill="#0C0C0C" transform="translate(9,15)"/>
</svg>
