<?xml version="1.0" encoding="UTF-8"?>
<svg version="1.1" xmlns="http://www.w3.org/2000/svg" width="28" height="28">
<path d="M0,0 L28,0 L28,28 L0,28 Z " fill="#030303" transform="translate(0,0)"/>
<path d="M0,0 L8,0 L12,4 L13,16 L9,15 L7,19 L5,20 L-1,20 L-4,18 L-3,14 L4,11 L9,11 L9,5 L8,3 L1,2 L2,5 L-3,4 L-2,1 Z " fill="#CFCFCF" transform="translate(9,4)"/>
<path d="M0,0 L8,0 L12,4 L12,10 L10,9 L8,3 L1,2 L2,5 L-3,4 L-2,1 Z " fill="#DFDFDF" transform="translate(9,4)"/>
<path d="M0,0 L7,0 L6,4 L4,5 L-2,5 L-3,2 Z " fill="#0F0F0F" transform="translate(10,17)"/>
<path d="M0,0 L6,1 L6,2 L1,2 L2,5 L-3,4 L-2,1 Z " fill="#C6C6C6" transform="translate(9,4)"/>
</svg>
