<?xml version="1.0" encoding="UTF-8"?>
<svg version="1.1" xmlns="http://www.w3.org/2000/svg" width="28" height="28">
<path d="M0,0 L28,0 L28,28 L0,28 Z " fill="#020202" transform="translate(0,0)"/>
<path d="M0,0 L7,1 L8,8 L5,12 L3,12 L1,16 L9,16 L9,19 L5,20 L-3,20 L-2,14 L4,7 L5,3 L0,3 L0,5 L-2,5 L-2,1 Z " fill="#E0E0E0" transform="translate(12,3)"/>
<path d="M0,0 L6,0 L6,3 L-2,4 Z " fill="#C6C6C6" transform="translate(15,19)"/>
<path d="M0,0 L2,4 L1,8 L-1,9 Z " fill="#BDBDBD" transform="translate(18,4)"/>
</svg>
