<?xml version="1.0" encoding="UTF-8"?>
<svg version="1.1" xmlns="http://www.w3.org/2000/svg" width="28" height="28">
<path d="M0,0 L28,0 L28,28 L0,28 Z " fill="#020202" transform="translate(0,0)"/>
<path d="M0,0 L6,0 L7,1 L7,8 L6,9 L6,14 L9,17 L9,19 L5,18 L1,18 L-2,20 L-7,19 L-6,10 L-4,8 L0,8 L0,10 L3,10 L4,3 L-3,6 L-6,6 L-6,3 Z " fill="#E7E7E7" transform="translate(14,4)"/>
<path d="M0,0 L3,0 L2,7 L-1,7 L-1,5 L-7,4 L-4,2 Z " fill="#1F1F1F" transform="translate(15,7)"/>
<path d="M0,0 L2,1 L0,3 L4,5 L4,7 L-1,8 L-3,11 L-2,2 Z " fill="#909090" transform="translate(10,12)"/>
</svg>
