<?xml version="1.0" encoding="UTF-8"?>
<svg version="1.1" xmlns="http://www.w3.org/2000/svg" width="28" height="28">
<path d="M0,0 L28,0 L28,28 L0,28 Z " fill="#020202" transform="translate(0,0)"/>
<path d="M0,0 L7,0 L7,8 L18,8 L18,10 L13,12 L8,12 L4,11 L0,12 L-2,10 L-1,6 L3,5 L5,6 L5,2 L-1,2 Z " fill="#D9D9D9" transform="translate(9,7)"/>
<path d="M0,0 L5,0 L5,2 L8,3 L5,5 L1,4 Z " fill="#A7A7A7" transform="translate(7,14)"/>
<path d="M0,0 L6,0 L6,4 L1,3 Z " fill="#1F1F1F" transform="translate(8,9)"/>
</svg>
