<?xml version="1.0" encoding="UTF-8"?>
<svg version="1.1" xmlns="http://www.w3.org/2000/svg" width="28" height="28">
<path d="M0,0 L28,0 L28,28 L0,28 Z " fill="#030303" transform="translate(0,0)"/>
<path d="M0,0 L6,0 L9,3 L8,13 L10,13 L10,16 L4,16 L1,19 L-4,20 L-6,17 L-4,7 L0,6 L4,9 L6,3 L-4,4 L-4,1 Z " fill="#E5E5E5" transform="translate(13,4)"/>
<path d="M0,0 L4,2 L6,4 L4,4 L5,7 L0,10 L0,6 L-3,7 L-2,1 Z " fill="#DEDEDE" transform="translate(11,10)"/>
<path d="M0,0 L4,2 L0,6 L-1,2 Z " fill="#151515" transform="translate(12,14)"/>
</svg>
