<?xml version="1.0" encoding="UTF-8"?>
<svg version="1.1" xmlns="http://www.w3.org/2000/svg" width="28" height="28">
<path d="M0,0 L28,0 L28,28 L0,28 Z " fill="#030303" transform="translate(0,0)"/>
<path d="M0,0 L7,1 L9,3 L11,9 L14,14 L10,14 L9,12 L5,14 L0,18 L-4,16 L-6,13 L-5,9 L-1,7 L7,7 L6,4 L-4,4 L-4,1 Z " fill="#DCDCDC" transform="translate(12,6)"/>
<path d="M0,0 L7,1 L9,3 L8,7 L6,4 L-4,4 L-4,1 Z " fill="#E5E5E5" transform="translate(12,6)"/>
<path d="M0,0 L3,3 L7,2 L10,1 L8,5 L3,7 L0,4 Z " fill="#E7E7E7" transform="translate(7,17)"/>
<path d="M0,0 L6,0 L4,4 L0,5 L-1,1 Z " fill="#1F1F1F" transform="translate(10,16)"/>
</svg>
