<?xml version="1.0" encoding="UTF-8"?>
<svg version="1.1" xmlns="http://www.w3.org/2000/svg" width="28" height="28">
<path d="M0,0 L28,0 L28,28 L0,28 Z " fill="#030303" transform="translate(0,0)"/>
<path d="M0,0 L8,0 L10,2 L9,10 L8,15 L5,16 L2,20 L-1,20 L-2,18 L-2,12 L0,9 L6,10 L8,2 L-3,4 L-2,1 Z " fill="#EAEAEA" transform="translate(11,5)"/>
<path d="M0,0 L5,0 L7,4 L4,8 L1,8 L0,6 Z " fill="#9C9C9C" transform="translate(9,17)"/>
<path d="M0,0 L4,1 L5,3 L-3,4 L-2,1 Z " fill="#C3C3C3" transform="translate(11,5)"/>
</svg>
