<?xml version="1.0" encoding="UTF-8"?>
<svg version="1.1" xmlns="http://www.w3.org/2000/svg" width="28" height="28">
<path d="M0,0 L28,0 L28,28 L0,28 Z " fill="#020202" transform="translate(0,0)"/>
<path d="M0,0 L7,0 L9,4 L10,12 L12,13 L12,17 L6,16 L-1,20 L-2,19 L-2,10 L1,9 L6,10 L6,4 L1,4 L-3,6 L-2,2 Z " fill="#C5C5C5" transform="translate(11,4)"/>
<path d="M0,0 L7,0 L9,4 L9,9 L7,10 L6,4 L1,4 L-3,6 L-2,2 Z " fill="#E9E9E9" transform="translate(11,4)"/>
<path d="M0,0 L1,2 L7,0 L5,4 L1,6 L0,5 Z " fill="#EEEEEE" transform="translate(9,18)"/>
</svg>
