<?xml version="1.0" encoding="UTF-8"?>
<svg version="1.1" xmlns="http://www.w3.org/2000/svg" width="28" height="28">
<path d="M0,0 L28,0 L28,28 L0,28 Z " fill="#040404" transform="translate(0,0)"/>
<path d="M0,0 L5,1 L8,2 L7,8 L3,14 L6,17 L2,17 L-4,18 L-12,19 L-10,13 L-6,10 L1,11 L1,9 L3,9 L4,5 L-7,6 L-6,3 Z " fill="#D9D9D9" transform="translate(16,4)"/>
<path d="M0,0 Z M-2,1 L0,1 L0,3 L5,1 L5,6 L0,8 L-5,8 L-3,2 Z " fill="#BDBDBD" transform="translate(9,15)"/>
<path d="M0,0 L8,1 L10,5 L12,7 L8,7 L4,6 L4,2 L-1,4 Z " fill="#EAEAEA" transform="translate(10,14)"/>
<path d="M0,0 L3,0 L2,6 L-3,11 L-4,7 L-2,7 L-1,3 L-3,1 Z " fill="#BDBDBD" transform="translate(21,6)"/>
<path d="M0,0 L5,1 L5,3 L-2,4 Z " fill="#FBFBFB" transform="translate(16,4)"/>
</svg>
