<?xml version="1.0" encoding="UTF-8"?>
<svg version="1.1" xmlns="http://www.w3.org/2000/svg" width="28" height="28">
<path d="M0,0 L28,0 L28,28 L0,28 Z " fill="#040404" transform="translate(0,0)"/>
<path d="M0,0 L5,2 L5,10 L3,13 L4,19 L-2,18 L-7,20 L-13,19 L-13,14 L-9,11 L0,11 L2,7 L2,4 L-5,4 L-5,1 Z " fill="#E5E5E5" transform="translate(17,3)"/>
<path d="M0,0 L5,2 L5,10 L2,10 L2,4 L-5,4 L-5,1 Z " fill="#E7E7E7" transform="translate(17,3)"/>
<path d="M0,0 L6,1 L5,5 L-2,6 L-3,2 Z " fill="#E1E1E1" transform="translate(8,14)"/>
<path d="M0,0 L3,1 L3,3 L-4,4 Z " fill="#242424" transform="translate(10,16)"/>
</svg>
