<?xml version="1.0" encoding="UTF-8"?>
<svg version="1.1" xmlns="http://www.w3.org/2000/svg" width="28" height="28">
<path d="M0,0 L28,0 L28,28 L0,28 Z " fill="#020202" transform="translate(0,0)"/>
<path d="M0,0 L4,0 L4,2 L6,2 L5,11 L3,16 L6,19 L-2,19 L-10,20 L-9,13 L-4,3 Z " fill="#BEBEBE" transform="translate(16,3)"/>
<path d="M0,0 L4,0 L4,2 L6,2 L5,11 L3,13 L2,9 L3,4 L-1,4 L-3,4 L-5,11 L-8,16 L-9,13 L-4,3 Z " fill="#D8D8D8" transform="translate(16,3)"/>
<path d="M0,0 L4,2 L3,7 L1,10 L-3,10 L-3,8 L-5,8 L-4,4 Z " fill="#101010" transform="translate(16,5)"/>
</svg>
