<?xml version="1.0" encoding="UTF-8"?>
<svg version="1.1" xmlns="http://www.w3.org/2000/svg" width="28" height="28">
<path d="M0,0 L28,0 L28,28 L0,28 Z " fill="#030303" transform="translate(0,0)"/>
<path d="M0,0 L4,0 L4,2 L6,2 L7,7 L6,9 L4,9 L2,13 L0,18 L-12,18 L-12,13 L-7,11 L1,11 L2,8 L4,8 L3,5 L-6,6 L-6,3 Z " fill="#D8D8D8" transform="translate(17,4)"/>
<path d="M0,0 L6,0 L5,2 L3,1 L3,4 L-2,5 L-2,3 L-4,3 L-4,6 L0,7 L-5,7 L-5,2 Z " fill="#C0C0C0" transform="translate(10,15)"/>
<path d="M0,0 L3,1 L3,4 L1,5 L-7,5 L-7,2 L-5,2 L-5,4 L0,3 Z " fill="#FBFBFB" transform="translate(13,16)"/>
</svg>
