<?xml version="1.0" encoding="UTF-8"?>
<svg version="1.1" xmlns="http://www.w3.org/2000/svg" width="28" height="28">
<path d="M0,0 L28,0 L28,28 L0,28 Z " fill="#030303" transform="translate(0,0)"/>
<path d="M0,0 L4,1 L5,8 L3,12 L3,19 L1,19 L1,16 L-7,20 L-12,19 L-11,14 L-5,10 L1,10 L2,4 L-3,7 L-7,7 L-6,3 Z " fill="#E1E1E1" transform="translate(17,4)"/>
<path d="M0,0 L1,2 L3,3 L2,6 L-3,5 L-3,2 Z " fill="#EFEFEF" transform="translate(8,18)"/>
<path d="M0,0 L4,2 L1,5 L-3,5 L-3,2 Z " fill="#A6A6A6" transform="translate(10,15)"/>
</svg>
