<?xml version="1.0" encoding="UTF-8"?>
<svg version="1.1" xmlns="http://www.w3.org/2000/svg" width="28" height="28">
<path d="M0,0 L28,0 L28,28 L0,28 Z " fill="#040404" transform="translate(0,0)"/>
<path d="M0,0 L3,1 L2,11 L-5,16 L-11,16 L-13,15 L-13,10 L-10,8 L0,8 Z " fill="#DCDCDC" transform="translate(20,8)"/>
<path d="M0,0 L7,1 L7,3 L-1,4 L-2,9 L-6,8 L-7,4 Z " fill="#E3E3E3" transform="translate(15,4)"/>
<path d="M0,0 L3,1 L2,11 L-3,15 L-5,14 L0,6 Z " fill="#E7E7E7" transform="translate(20,8)"/>
<path d="M0,0 L7,0 L4,4 L-1,4 L-1,1 Z " fill="#232323" transform="translate(11,18)"/>
<path d="M0,0 L7,1 L7,3 L-2,4 L-4,2 Z " fill="#C2C2C2" transform="translate(15,4)"/>
</svg>
