<?xml version="1.0" encoding="UTF-8"?>
<svg version="1.1" xmlns="http://www.w3.org/2000/svg" width="28" height="28">
<path d="M0,0 L28,0 L28,28 L0,28 Z " fill="#030303" transform="translate(0,0)"/>
<path d="M0,0 L4,1 L5,2 L5,10 L4,12 L7,12 L7,16 L1,16 L-5,20 L-11,20 L-11,15 L-9,12 L1,12 L2,4 L-1,6 L-4,6 L-3,2 Z " fill="#E7E7E7" transform="translate(16,3)"/>
<path d="M0,0 L4,1 L2,2 L5,4 L0,6 L-2,5 Z " fill="#B2B2B2" transform="translate(7,15)"/>
<path d="M0,0 L3,1 L0,4 L-1,6 L-4,6 L-3,2 Z " fill="#E4E4E4" transform="translate(16,3)"/>
</svg>
