<?xml version="1.0" encoding="UTF-8"?>
<svg version="1.1" xmlns="http://www.w3.org/2000/svg" width="28" height="28">
<path d="M0,0 L28,0 L28,28 L0,28 Z " fill="#030303" transform="translate(0,0)"/>
<path d="M0,0 L5,0 L8,4 L8,12 L7,16 L14,18 L13,20 L8,19 L4,18 L3,19 L-2,19 L-4,17 L-3,12 L1,11 L5,12 L5,4 L1,3 L-2,5 L-1,1 Z " fill="#E0E0E0" transform="translate(11,3)"/>
<path d="M0,0 L7,1 L7,3 L5,3 L4,8 L-1,8 L-3,6 L-2,1 Z " fill="#D7D7D7" transform="translate(10,14)"/>
<path d="M0,0 L4,1 L3,4 L-1,4 Z " fill="#1D1D1D" transform="translate(10,16)"/>
</svg>
