<?xml version="1.0" encoding="UTF-8"?>
<svg version="1.1" xmlns="http://www.w3.org/2000/svg" width="28" height="28">
<path d="M0,0 L28,0 L28,28 L0,28 Z " fill="#030303" transform="translate(0,0)"/>
<path d="M0,0 L2,0 L4,4 L3,11 L2,16 L2,20 L0,20 L-2,17 L-7,20 L-12,19 L-11,14 L-7,11 L0,11 L1,4 L-4,8 L-6,8 L-6,4 Z " fill="#E0E0E0" transform="translate(18,3)"/>
<path d="M0,0 L3,1 L4,4 L-2,6 L-4,5 L-2,1 Z " fill="#A4A4A4" transform="translate(11,14)"/>
<path d="M0,0 L2,1 L-1,6 L-4,7 L-4,3 Z " fill="#E6E6E6" transform="translate(16,4)"/>
</svg>
