<?xml version="1.0" encoding="UTF-8"?>
<svg version="1.1" xmlns="http://www.w3.org/2000/svg" width="28" height="28">
<path d="M0,0 L28,0 L28,28 L0,28 Z " fill="#030303" transform="translate(0,0)"/>
<path d="M0,0 L7,0 L11,4 L11,10 L7,15 L2,18 L0,18 L0,20 L-5,20 L-8,17 L-7,13 L0,11 L7,11 L7,4 L6,3 L1,3 L-6,9 L-4,4 Z " fill="#EAEAEA" transform="translate(13,4)"/>
<path d="M0,0 L2,1 L3,1 L10,1 L9,3 L7,3 L6,8 L1,8 L-2,5 L-1,1 Z " fill="#D3D3D3" transform="translate(7,16)"/>
<path d="M0,0 L7,0 L3,4 L-2,4 Z " fill="#1E1E1E" transform="translate(10,17)"/>
</svg>
