<?xml version="1.0" encoding="UTF-8"?>
<svg version="1.1" xmlns="http://www.w3.org/2000/svg" width="28" height="28">
<path d="M0,0 L28,0 L28,28 L0,28 Z " fill="#020202" transform="translate(0,0)"/>
<path d="M0,0 L8,1 L13,5 L12,11 L20,9 L19,12 L6,16 L4,16 L4,13 L9,12 L9,6 L0,2 Z " fill="#D3D3D3" transform="translate(5,6)"/>
<path d="M0,0 L2,0 L2,2 L4,3 L-5,6 L-5,3 L0,2 Z " fill="#EBEBEB" transform="translate(14,16)"/>
<path d="M0,0 L0,3 L-5,5 L-8,4 L-7,1 Z " fill="#AFAFAF" transform="translate(24,15)"/>
</svg>
