<?xml version="1.0" encoding="UTF-8"?>
<svg version="1.1" xmlns="http://www.w3.org/2000/svg" width="28" height="28">
<path d="M0,0 L28,0 L28,28 L0,28 Z " fill="#030303" transform="translate(0,0)"/>
<path d="M0,0 L8,0 L9,5 L4,11 L0,15 L17,13 L15,15 L7,17 L-2,17 L-3,12 L5,5 L6,2 L-2,4 Z " fill="#D9D9D9" transform="translate(10,5)"/>
<path d="M0,0 L1,4 L6,5 L6,6 L-2,6 L-3,3 Z " fill="#F3F3F3" transform="translate(10,16)"/>
<path d="M0,0 L8,0 L4,2 L-2,4 Z " fill="#BABABA" transform="translate(10,5)"/>
</svg>
