<?xml version="1.0" encoding="UTF-8"?>
<svg version="1.1" xmlns="http://www.w3.org/2000/svg" width="28" height="28">
<path d="M0,0 L28,0 L28,28 L0,28 Z " fill="#040404" transform="translate(0,0)"/>
<path d="M0,0 L4,1 L5,7 L-2,14 L-2,20 L-4,20 L-4,16 L-11,19 L-15,19 L-14,15 L-10,12 L-4,12 L2,6 L3,3 L-2,5 L-5,5 L-5,3 Z " fill="#D0D0D0" transform="translate(18,4)"/>
<path d="M0,0 L4,1 L5,7 L3,8 L3,3 L-2,5 L-5,5 L-5,3 Z " fill="#E7E7E7" transform="translate(18,4)"/>
<path d="M0,0 L5,0 L1,3 L-1,4 L-1,7 L-5,7 L-4,3 Z " fill="#DFDFDF" transform="translate(8,16)"/>
<path d="M0,0 L2,0 L3,3 L-2,5 L-4,3 Z " fill="#959595" transform="translate(10,17)"/>
</svg>
