<?xml version="1.0" encoding="UTF-8"?>
<svg version="1.1" xmlns="http://www.w3.org/2000/svg" width="28" height="28">
<path d="M0,0 L28,0 L28,28 L0,28 Z " fill="#020202" transform="translate(0,0)"/>
<path d="M0,0 L6,0 L11,5 L12,7 L12,15 L7,20 L0,19 L-2,17 L-1,12 L8,13 L10,14 L8,5 L6,3 L0,2 Z " fill="#A8A8A8" transform="translate(9,3)"/>
<path d="M0,0 L5,0 L6,2 L1,2 L3,5 L10,5 L10,3 L12,3 L11,6 L8,8 L1,7 L-1,5 Z " fill="#D8D8D8" transform="translate(8,15)"/>
<path d="M0,0 L6,0 L11,5 L12,7 L12,14 L11,14 L8,5 L6,3 L0,2 Z " fill="#D5D5D5" transform="translate(9,3)"/>
<path d="M0,0 L7,1 L7,4 L2,4 Z " fill="#111111" transform="translate(9,17)"/>
</svg>
