<?xml version="1.0" encoding="UTF-8"?>
<svg version="1.1" xmlns="http://www.w3.org/2000/svg" width="28" height="28">
<path d="M0,0 L28,0 L28,28 L0,28 Z " fill="#030303" transform="translate(0,0)"/>
<path d="M0,0 L5,0 L7,2 L7,11 L11,15 L11,17 L5,15 L4,17 L2,17 L2,19 L-4,20 L-4,13 L-1,11 L4,11 L4,9 L-1,8 L-1,1 Z " fill="#EFEFEF" transform="translate(12,4)"/>
<path d="M0,0 L5,0 L7,3 L2,6 L-1,3 Z " fill="#AEAEAE" transform="translate(12,4)"/>
<path d="M0,0 L5,1 L5,3 L3,3 L3,5 L1,5 L1,3 L-2,2 Z " fill="#939393" transform="translate(11,18)"/>
</svg>
