<?xml version="1.0" encoding="UTF-8"?>
<svg version="1.1" xmlns="http://www.w3.org/2000/svg" width="28" height="28">
<path d="M0,0 L28,0 L28,28 L0,28 Z " fill="#030303" transform="translate(0,0)"/>
<path d="M0,0 L2,0 L5,4 L4,10 L2,14 L7,15 L7,16 L-3,17 L-6,19 L-12,19 L-13,13 L-9,10 L-1,11 L3,5 L-3,7 L-9,7 L-7,3 Z " fill="#DBDBDB" transform="translate(18,4)"/>
<path d="M0,0 L5,0 L5,5 L1,7 L-2,7 L-3,9 L-4,3 Z " fill="#D6D6D6" transform="translate(9,14)"/>
<path d="M0,0 L4,1 L4,3 L-2,5 L-2,1 Z " fill="#2A2A2A" transform="translate(10,16)"/>
<path d="M0,0 L3,0 L3,2 L0,4 L-5,4 L-5,2 Z " fill="#F3F3F3" transform="translate(12,19)"/>
</svg>
