<?xml version="1.0" encoding="UTF-8"?>
<svg version="1.1" xmlns="http://www.w3.org/2000/svg" width="28" height="28">
<path d="M0,0 L28,0 L28,28 L0,28 Z " fill="#050505" transform="translate(0,0)"/>
<path d="M0,0 L8,0 L11,2 L11,7 L14,8 L16,17 L12,15 L12,10 L10,10 L9,15 L8,16 L0,16 L-4,14 L-3,9 L6,6 L8,6 L7,3 L0,2 Z " fill="#D9D9D9" transform="translate(8,5)"/>
<path d="M0,0 L3,0 L2,5 L1,6 L-5,6 L-6,2 Z " fill="#1A1A1A" transform="translate(13,13)"/>
<path d="M0,0 L1,4 L-1,7 L-9,7 L-13,5 L-12,2 L-11,4 L-3,4 Z " fill="#F1F1F1" transform="translate(17,14)"/>
</svg>
