<?xml version="1.0" encoding="UTF-8"?>
<svg version="1.1" xmlns="http://www.w3.org/2000/svg" width="28" height="28">
<path d="M0,0 L28,0 L28,28 L0,28 Z " fill="#020202" transform="translate(0,0)"/>
<path d="M0,0 L5,1 L8,4 L8,7 L13,8 L9,10 L4,15 L-1,18 L-6,17 L-7,12 L-3,9 L5,8 L5,4 L-2,4 Z " fill="#DEDEDE" transform="translate(12,5)"/>
<path d="M0,0 L5,1 L8,4 L8,7 L13,8 L9,10 L4,14 L5,4 L-2,4 Z " fill="#DADADA" transform="translate(12,5)"/>
<path d="M0,0 L3,0 L3,2 L-2,5 L-4,5 L-3,1 Z " fill="#2A2A2A" transform="translate(12,16)"/>
</svg>
