<?xml version="1.0" encoding="UTF-8"?>
<svg version="1.1" xmlns="http://www.w3.org/2000/svg" width="28" height="28">
<path d="M0,0 L28,0 L28,28 L0,28 Z " fill="#050505" transform="translate(0,0)"/>
<path d="M0,0 L5,1 L5,9 L3,13 L6,16 L5,20 L3,16 L-1,15 L-1,17 L-8,20 L-12,19 L-11,15 L-8,13 L1,13 L2,3 L-5,5 L-3,1 Z " fill="#D9D9D9" transform="translate(16,3)"/>
<path d="M0,0 L4,1 L5,5 L0,7 L-4,6 L-3,2 Z " fill="#9C9C9C" transform="translate(8,16)"/>
<path d="M0,0 L4,2 L5,7 L3,8 L2,4 L-2,3 L-2,5 L-4,5 L-4,3 L-8,2 Z " fill="#F3F3F3" transform="translate(17,15)"/>
</svg>
