<?xml version="1.0" encoding="UTF-8"?>
<svg version="1.1" xmlns="http://www.w3.org/2000/svg" width="28" height="28">
<path d="M0,0 L28,0 L28,28 L0,28 Z " fill="#030303" transform="translate(0,0)"/>
<path d="M0,0 L5,1 L8,5 L11,16 L7,16 L5,20 L0,20 L-3,17 L-3,12 L-2,11 L6,11 L4,4 L0,4 L-2,6 L-1,1 Z " fill="#DEDEDE" transform="translate(11,3)"/>
<path d="M0,0 L5,1 L8,5 L7,11 L6,11 L4,4 L0,4 L-2,6 L-1,1 Z " fill="#D7D7D7" transform="translate(11,3)"/>
<path d="M0,0 L7,0 L6,2 L1,3 L3,8 L-1,6 L-1,1 Z " fill="#EEEEEE" transform="translate(9,14)"/>
<path d="M0,0 L5,1 L3,4 L-2,3 L-2,1 Z " fill="#1B1B1B" transform="translate(12,16)"/>
</svg>
