<?xml version="1.0" encoding="UTF-8"?>
<svg version="1.1" xmlns="http://www.w3.org/2000/svg" width="28" height="28">
<path d="M0,0 L28,0 L28,28 L0,28 Z " fill="#020202" transform="translate(0,0)"/>
<path d="M0,0 L5,2 L6,6 L6,15 L9,16 L5,17 L3,20 L-2,19 L-4,17 L-3,12 L2,11 L5,12 L3,4 L-1,3 Z " fill="#D6D6D6" transform="translate(12,3)"/>
<path d="M0,0 L5,1 L3,5 L-1,4 Z " fill="#1B1B1B" transform="translate(11,16)"/>
<path d="M0,0 L2,1 L2,4 L6,5 L6,7 L2,6 L0,4 Z " fill="#B6B6B6" transform="translate(8,16)"/>
</svg>
