<?xml version="1.0" encoding="UTF-8"?>
<svg version="1.1" xmlns="http://www.w3.org/2000/svg" width="28" height="28">
<path d="M0,0 L28,0 L28,28 L0,28 Z " fill="#040404" transform="translate(0,0)"/>
<path d="M0,0 L9,0 L13,4 L13,14 L14,20 L11,19 L10,17 L5,19 L-2,20 L-5,17 L-4,13 L1,10 L10,12 L10,3 L3,4 L-1,4 Z " fill="#E7E7E7" transform="translate(9,3)"/>
<path d="M0,0 L3,1 L6,3 L7,7 L2,10 L-5,9 L-6,4 Z " fill="#DCDCDC" transform="translate(10,13)"/>
<path d="M0,0 L9,0 L11,2 L10,3 L3,4 L-1,4 Z " fill="#CECECE" transform="translate(9,3)"/>
<path d="M0,0 L7,0 L7,2 L5,3 L-1,3 Z " fill="#121212" transform="translate(9,16)"/>
<path d="M0,0 L9,0 L9,3 L6,4 L6,2 L0,2 Z " fill="#C3C3C3" transform="translate(7,18)"/>
</svg>
