<?xml version="1.0" encoding="UTF-8"?>
<svg version="1.1" xmlns="http://www.w3.org/2000/svg" width="28" height="28">
<path d="M0,0 L28,0 L28,28 L0,28 Z " fill="#030303" transform="translate(0,0)"/>
<path d="M0,0 L6,1 L11,6 L11,14 L7,18 L4,17 L5,16 L-1,16 L-1,18 L3,19 L-2,20 L-3,15 L-1,13 L9,12 L7,5 L1,3 L1,5 L-1,5 Z " fill="#D7D7D7" transform="translate(10,3)"/>
<path d="M0,0 L4,1 L4,4 L0,5 L-3,3 L-3,1 Z " fill="#5F5F5F" transform="translate(12,18)"/>
<path d="M0,0 L2,0 L1,4 L5,5 L0,6 L-1,1 Z " fill="#F2F2F2" transform="translate(8,17)"/>
<path d="M0,0 L1,3 L-2,6 L-5,5 L-3,1 Z " fill="#F9F9F9" transform="translate(19,15)"/>
</svg>
