<?xml version="1.0" encoding="UTF-8"?>
<svg version="1.1" xmlns="http://www.w3.org/2000/svg" width="28" height="28">
<path d="M0,0 L28,0 L28,28 L0,28 Z " fill="#040404" transform="translate(0,0)"/>
<path d="M0,0 L5,1 L7,6 L8,13 L9,14 L9,19 L8,15 L5,16 L2,19 L-4,20 L-6,19 L-6,14 L-3,12 L5,12 L3,3 L1,3 L0,5 L-3,5 L-1,1 Z " fill="#E2E2E2" transform="translate(13,3)"/>
<path d="M0,0 L3,1 L7,3 L3,6 L0,6 L-1,8 L-3,7 L-3,2 Z " fill="#CFCFCF" transform="translate(10,15)"/>
<path d="M0,0 L6,0 L2,4 L-2,3 Z " fill="#1C1C1C" transform="translate(11,17)"/>
</svg>
