<?xml version="1.0" encoding="UTF-8"?>
<svg version="1.1" xmlns="http://www.w3.org/2000/svg" width="28" height="28">
<path d="M0,0 L28,0 L28,28 L0,28 Z " fill="#020202" transform="translate(0,0)"/>
<path d="M0,0 L5,1 L11,8 L10,15 L7,20 L-3,20 L-5,18 L-4,11 L1,10 L5,13 L5,15 L7,15 L7,7 L2,3 L-1,3 Z " fill="#C3C3C3" transform="translate(11,3)"/>
<path d="M0,0 L5,1 L8,4 L6,8 L-1,9 L-2,8 L-1,1 Z " fill="#CFCFCF" transform="translate(8,13)"/>
<path d="M0,0 L5,1 L4,6 L-6,6 L-6,4 L0,3 Z " fill="#E6E6E6" transform="translate(14,17)"/>
<path d="M0,0 L5,2 L5,6 L0,6 L-1,2 Z " fill="#181818" transform="translate(9,15)"/>
<path d="M0,0 L5,1 L9,6 L6,6 L2,3 L-1,3 Z " fill="#DBDBDB" transform="translate(11,3)"/>
</svg>
