<?xml version="1.0" encoding="UTF-8"?>
<svg version="1.1" xmlns="http://www.w3.org/2000/svg" width="28" height="28">
<path d="M0,0 L28,0 L28,28 L0,28 Z " fill="#040404" transform="translate(0,0)"/>
<path d="M0,0 L7,1 L8,3 L8,11 L12,12 L13,17 L9,16 L9,13 L7,13 L5,17 L1,20 L-5,20 L-6,19 L-6,14 L1,11 L6,11 L5,3 L-2,4 L-2,7 L-5,6 L-3,2 Z " fill="#E3E3E3" transform="translate(12,3)"/>
<path d="M0,0 L2,1 L0,5 L5,5 L4,8 L-2,8 L-3,7 L-3,2 Z " fill="#E6E6E6" transform="translate(9,15)"/>
<path d="M0,0 L3,1 L4,3 L-2,4 L-2,7 L-5,6 L-3,2 Z " fill="#D7D7D7" transform="translate(12,3)"/>
<path d="M0,0 L3,0 L2,3 L-4,4 L-3,1 Z " fill="#191919" transform="translate(13,16)"/>
</svg>
