<?xml version="1.0" encoding="UTF-8"?>
<svg version="1.1" xmlns="http://www.w3.org/2000/svg" width="28" height="28">
<path d="M0,0 L28,0 L28,28 L0,28 Z " fill="#040404" transform="translate(0,0)"/>
<path d="M0,0 L9,0 L12,2 L11,9 L9,12 L14,13 L15,15 L5,15 L3,16 L-4,16 L-5,12 L-3,10 L7,10 L8,8 L8,2 L-1,2 Z " fill="#A4A4A4" transform="translate(10,5)"/>
<path d="M0,0 L9,0 L12,2 L11,9 L10,13 L-2,12 L-2,11 L7,10 L8,8 L8,2 L-1,2 Z " fill="#F1F1F1" transform="translate(10,5)"/>
<path d="M0,0 L9,0 L12,2 L12,7 L9,7 L8,2 L-1,2 Z " fill="#C4C4C4" transform="translate(10,5)"/>
</svg>
