<?xml version="1.0" encoding="UTF-8"?>
<svg version="1.1" xmlns="http://www.w3.org/2000/svg" width="28" height="28">
<path d="M0,0 L28,0 L28,28 L0,28 Z " fill="#030303" transform="translate(0,0)"/>
<path d="M0,0 L8,0 L13,2 L17,5 L19,10 L20,14 L18,14 L17,12 L5,13 L4,8 L6,6 L13,5 L6,2 L1,1 L0,3 Z " fill="#DADADA" transform="translate(4,7)"/>
<path d="M0,0 L4,1 L7,2 L7,4 L-2,6 L-1,1 Z " fill="#D9D9D9" transform="translate(10,13)"/>
<path d="M0,0 L6,0 L6,2 L-1,3 Z " fill="#121212" transform="translate(11,15)"/>
</svg>
