<?xml version="1.0" encoding="UTF-8"?>
<svg version="1.1" xmlns="http://www.w3.org/2000/svg" width="28" height="28">
<path d="M0,0 L28,0 L28,28 L0,28 Z " fill="#040404" transform="translate(0,0)"/>
<path d="M0,0 L7,1 L6,11 L11,12 L11,15 L6,16 L4,13 L0,15 L-5,18 L-8,18 L-7,12 L-3,8 L3,7 L5,2 L-1,5 L-3,5 L-1,1 Z " fill="#EBEBEB" transform="translate(13,5)"/>
<path d="M0,0 L2,1 L4,6 L-2,10 L-5,10 L-4,4 Z " fill="#E1E1E1" transform="translate(10,13)"/>
<path d="M0,0 L10,1 L9,4 L4,5 Z " fill="#D4D4D4" transform="translate(15,16)"/>
<path d="M0,0 L2,1 L3,4 L-1,6 L-4,6 L-2,2 Z " fill="#9C9C9C" transform="translate(10,13)"/>
</svg>
