<?xml version="1.0" encoding="UTF-8"?>
<svg version="1.1" xmlns="http://www.w3.org/2000/svg" width="28" height="28">
<path d="M0,0 L28,0 L28,28 L0,28 Z " fill="#060606" transform="translate(0,0)"/>
<path d="M0,0 L8,1 L10,2 L9,8 L7,13 L11,12 L10,19 L7,18 L5,15 L1,17 L-2,19 L-9,19 L-9,13 L-5,7 L5,7 L6,5 L-4,6 L-4,2 Z " fill="#EBEBEB" transform="translate(13,5)"/>
<path d="M0,0 L8,1 L10,2 L9,8 L6,7 L6,5 L-4,6 L-4,2 Z " fill="#E9E9E9" transform="translate(13,5)"/>
<path d="M0,0 L5,0 L5,3 L-2,7 L-1,1 Z " fill="#232323" transform="translate(9,15)"/>
</svg>
