<?xml version="1.0" encoding="UTF-8"?>
<svg version="1.1" xmlns="http://www.w3.org/2000/svg" width="28" height="28">
<path d="M0,0 L28,0 L28,28 L0,28 Z " fill="#040404" transform="translate(0,0)"/>
<path d="M0,0 L5,0 L7,2 L6,8 L5,12 L8,15 L8,17 L12,16 L10,20 L7,20 L4,15 L0,16 L-5,20 L-8,20 L-7,13 L-5,10 L2,9 L4,3 L0,4 L-3,8 L-6,7 L-4,3 Z " fill="#DEDEDE" transform="translate(14,4)"/>
<path d="M0,0 L5,1 L3,8 L0,10 L-3,10 L-2,3 Z " fill="#E3E3E3" transform="translate(9,14)"/>
<path d="M0,0 L3,1 L1,6 L-2,7 L-3,3 Z " fill="#929292" transform="translate(11,16)"/>
</svg>
