<?xml version="1.0" encoding="UTF-8"?>
<svg version="1.1" xmlns="http://www.w3.org/2000/svg" width="28" height="28">
<path d="M0,0 L28,0 L28,28 L0,28 Z " fill="#020202" transform="translate(0,0)"/>
<path d="M0,0 L7,1 L12,6 L12,16 L10,16 L8,20 L2,20 L0,18 L1,14 L3,12 L10,13 L9,6 L5,3 L-1,3 Z " fill="#D0D0D0" transform="translate(8,4)"/>
<path d="M0,0 L7,1 L12,6 L12,16 L9,17 L7,13 L10,13 L9,6 L5,3 L-1,3 Z " fill="#E7E7E7" transform="translate(8,4)"/>
<path d="M0,0 L5,2 L1,6 L-2,5 L-1,1 Z " fill="#181818" transform="translate(12,17)"/>
</svg>
