<?xml version="1.0" encoding="UTF-8"?>
<svg version="1.1" xmlns="http://www.w3.org/2000/svg" width="28" height="28">
<path d="M0,0 L28,0 L28,28 L0,28 Z " fill="#030303" transform="translate(0,0)"/>
<path d="M0,0 L7,0 L8,3 L10,3 L10,10 L8,10 L7,14 L13,16 L13,18 L6,18 L4,17 L-2,20 L-6,19 L-7,14 L-4,11 L3,11 L5,12 L5,10 L7,10 L6,4 L-2,3 Z " fill="#D1D1D1" transform="translate(12,3)"/>
<path d="M0,0 L5,0 L5,3 L1,3 L0,7 L4,8 L-1,9 L-3,6 L-2,2 Z " fill="#E9E9E9" transform="translate(8,14)"/>
<path d="M0,0 L5,1 L1,5 L-1,5 Z " fill="#0F0F0F" transform="translate(9,16)"/>
</svg>
