<?xml version="1.0" encoding="UTF-8"?>
<svg version="1.1" xmlns="http://www.w3.org/2000/svg" width="28" height="28">
<path d="M0,0 L28,0 L28,28 L0,28 Z " fill="#040404" transform="translate(0,0)"/>
<path d="M0,0 L3,0 L4,7 L5,12 L7,14 L7,19 L5,19 L3,15 L0,16 L0,18 L-4,20 L-9,19 L-10,14 L-7,10 L2,10 L1,5 L-1,7 L-4,7 L-3,2 Z " fill="#EBEBEB" transform="translate(16,3)"/>
<path d="M0,0 L1,0 L1,6 L-5,6 L-4,3 Z " fill="#1D1D1D" transform="translate(17,7)"/>
<path d="M0,0 L6,0 L2,4 L-1,3 Z " fill="#272727" transform="translate(9,16)"/>
</svg>
