<?xml version="1.0" encoding="UTF-8"?>
<svg version="1.1" xmlns="http://www.w3.org/2000/svg" width="28" height="28">
<path d="M0,0 L28,0 L28,28 L0,28 Z " fill="#040404" transform="translate(0,0)"/>
<path d="M0,0 L6,0 L6,8 L3,15 L1,15 L1,17 L10,15 L9,18 L5,20 L-5,20 L-6,14 L-3,13 L0,13 L2,7 L-1,7 L-1,1 Z " fill="#E6E6E6" transform="translate(13,3)"/>
<path d="M0,0 L6,0 L6,8 L4,5 L4,2 L2,3 L2,5 L4,7 L-1,7 L-1,1 Z " fill="#EFEFEF" transform="translate(13,3)"/>
<path d="M0,0 L2,0 L3,9 L0,9 L0,4 Z " fill="#9D9D9D" transform="translate(15,5)"/>
</svg>
