<?xml version="1.0" encoding="UTF-8"?>
<svg version="1.1" xmlns="http://www.w3.org/2000/svg" width="28" height="28">
<path d="M0,0 L28,0 L28,28 L0,28 Z " fill="#020202" transform="translate(0,0)"/>
<path d="M0,0 L5,1 L6,8 L4,14 L9,14 L13,10 L12,16 L9,18 L-1,17 L-2,18 L-7,18 L-6,14 L-2,12 L1,12 L2,6 L-2,6 L-1,1 Z " fill="#E5E5E5" transform="translate(12,4)"/>
<path d="M0,0 L5,1 L6,8 L4,6 L2,8 L2,6 L-2,6 L-1,1 Z " fill="#DFDFDF" transform="translate(12,4)"/>
<path d="M0,0 L2,3 L1,7 L0,5 L-2,7 L-3,4 L-2,2 L0,2 Z " fill="#A5A5A5" transform="translate(16,5)"/>
</svg>
