<?xml version="1.0" encoding="UTF-8"?>
<svg version="1.1" xmlns="http://www.w3.org/2000/svg" width="28" height="28">
<path d="M0,0 L28,0 L28,28 L0,28 Z " fill="#020202" transform="translate(0,0)"/>
<path d="M0,0 L3,0 L5,3 L5,11 L3,15 L9,14 L8,17 L2,18 L-2,18 L-5,20 L-9,20 L-8,15 L-4,11 L1,11 L2,6 L-2,4 Z " fill="#D7D7D7" transform="translate(15,2)"/>
<path d="M0,0 L5,1 L3,2 L3,4 L-2,6 Z " fill="#777777" transform="translate(11,13)"/>
<path d="M0,0 L2,1 L1,3 L-1,3 L0,7 L-3,7 L-2,2 Z " fill="#F0F0F0" transform="translate(9,15)"/>
</svg>
