<?xml version="1.0" encoding="UTF-8"?>
<svg version="1.1" xmlns="http://www.w3.org/2000/svg" width="28" height="28">
<path d="M0,0 L28,0 L28,28 L0,28 Z " fill="#030303" transform="translate(0,0)"/>
<path d="M0,0 L1,0 L2,9 L0,13 L2,16 L2,20 L0,20 L-3,14 L-6,12 L-5,10 L-11,8 L-9,13 L-12,11 L-12,6 L-8,6 L-8,3 Z " fill="#D5D5D5" transform="translate(18,5)"/>
<path d="M0,0 L5,1 L8,3 L13,2 L12,7 L14,10 L14,14 L12,14 L9,8 L6,6 L7,4 L1,2 L3,7 L0,5 Z " fill="#E5E5E5" transform="translate(6,11)"/>
<path d="M0,0 L4,1 L3,6 L-1,5 L-4,2 Z " fill="#0F0F0F" transform="translate(14,9)"/>
<path d="M0,0 L6,2 L7,6 L2,6 Z " fill="#6F6F6F" transform="translate(7,13)"/>
</svg>
