<?xml version="1.0" encoding="UTF-8"?>
<svg version="1.1" xmlns="http://www.w3.org/2000/svg" width="28" height="28">
<path d="M0,0 L28,0 L28,28 L0,28 Z " fill="#050505" transform="translate(0,0)"/>
<path d="M0,0 L6,0 L11,5 L11,12 L8,19 L-2,20 L-5,18 L-5,12 L0,11 L8,15 L8,3 L1,3 L-2,6 L-4,5 Z " fill="#ECECEC" transform="translate(11,4)"/>
<path d="M0,0 L6,0 L11,5 L11,12 L9,15 L8,11 L8,3 L1,3 L-2,6 L-4,5 Z " fill="#E3E3E3" transform="translate(11,4)"/>
<path d="M0,0 L5,1 L7,4 L6,5 L0,5 L-1,1 Z " fill="#232323" transform="translate(9,17)"/>
</svg>
