<?xml version="1.0" encoding="UTF-8"?>
<svg version="1.1" xmlns="http://www.w3.org/2000/svg" width="28" height="28">
<path d="M0,0 L28,0 L28,28 L0,28 Z " fill="#040404" transform="translate(0,0)"/>
<path d="M0,0 L5,1 L9,5 L9,14 L8,16 L11,16 L11,18 L1,20 L-4,20 L-5,19 L-5,14 L-2,11 L3,12 L6,13 L6,7 L4,4 L-2,4 Z " fill="#E6E6E6" transform="translate(12,3)"/>
<path d="M0,0 L5,1 L9,5 L9,14 L7,13 L5,5 L0,4 L-2,4 Z " fill="#E2E2E2" transform="translate(12,3)"/>
<path d="M0,0 L2,1 L4,3 L4,6 L-1,7 L-3,3 Z " fill="#858585" transform="translate(10,14)"/>
</svg>
