<?xml version="1.0" encoding="UTF-8"?>
<svg version="1.1" xmlns="http://www.w3.org/2000/svg" width="28" height="28">
<path d="M0,0 L28,0 L28,28 L0,28 Z " fill="#020202" transform="translate(0,0)"/>
<path d="M0,0 L8,1 L12,6 L12,13 L16,16 L16,18 L9,17 L5,19 L-1,19 L-3,17 L-3,11 L0,9 L8,10 L8,4 L-4,4 L-3,1 Z " fill="#DADADA" transform="translate(9,4)"/>
<path d="M0,0 L8,1 L11,4 L10,11 L9,11 L8,4 L-4,4 L-3,1 Z " fill="#CACACA" transform="translate(9,4)"/>
<path d="M0,0 L7,1 L7,5 L0,6 L-1,1 Z " fill="#0A0A0A" transform="translate(9,15)"/>
</svg>
