<?xml version="1.0" encoding="UTF-8"?>
<svg version="1.1" xmlns="http://www.w3.org/2000/svg" width="28" height="28">
<path d="M0,0 L28,0 L28,28 L0,28 Z " fill="#040404" transform="translate(0,0)"/>
<path d="M0,0 L7,1 L11,6 L11,9 L16,10 L16,11 L11,11 L10,16 L6,20 L1,20 L0,18 L0,12 L6,8 L8,8 L6,4 L1,3 L-2,5 L-2,1 Z " fill="#E0E0E0" transform="translate(9,4)"/>
<path d="M0,0 L7,1 L11,6 L11,9 L16,10 L16,11 L10,12 L4,11 L4,9 L8,8 L6,4 L1,3 L-2,5 L-2,1 Z " fill="#D2D2D2" transform="translate(9,4)"/>
<path d="M0,0 L2,0 L2,3 L7,4 L7,5 L1,6 L-5,5 L-5,3 L0,3 Z " fill="#F4F4F4" transform="translate(18,10)"/>
<path d="M0,0 L5,0 L3,4 L-2,5 L-2,1 Z " fill="#0B0B0B" transform="translate(13,16)"/>
<path d="M0,0 L5,1 L3,6 L1,7 L-1,5 L2,2 Z " fill="#BBBBBB" transform="translate(15,15)"/>
</svg>
