<?xml version="1.0" encoding="UTF-8"?>
<svg version="1.1" xmlns="http://www.w3.org/2000/svg" width="28" height="28">
<path d="M0,0 L28,0 L28,28 L0,28 Z " fill="#030303" transform="translate(0,0)"/>
<path d="M0,0 L5,1 L7,3 L7,17 L2,20 L-3,20 L-6,16 L-5,10 L0,9 L5,12 L4,2 L-1,4 Z " fill="#DDDDDD" transform="translate(13,3)"/>
<path d="M0,0 L5,1 L7,3 L7,12 L6,15 L1,13 L0,11 L5,12 L4,2 L-1,4 Z " fill="#E5E5E5" transform="translate(13,3)"/>
<path d="M0,0 L5,0 L7,4 L5,6 L0,5 Z " fill="#161616" transform="translate(9,15)"/>
<path d="M0,0 L5,1 L4,3 L0,3 L0,6 L-2,6 L-1,1 Z " fill="#BDBDBD" transform="translate(9,12)"/>
</svg>
