<?xml version="1.0" encoding="UTF-8"?>
<svg version="1.1" xmlns="http://www.w3.org/2000/svg" width="28" height="28">
<path d="M0,0 L28,0 L28,28 L0,28 Z " fill="#030303" transform="translate(0,0)"/>
<path d="M0,0 L5,0 L6,1 L5,10 L3,13 L8,14 L10,15 L10,17 L1,17 L-2,20 L-5,20 L-4,16 L2,8 L3,3 L-4,7 L-6,7 L-6,9 L-4,9 L-4,11 L-8,11 L-8,5 Z " fill="#E7E7E7" transform="translate(14,5)"/>
<path d="M0,0 L4,2 L-1,5 L-3,5 L-3,7 L-1,7 L-1,9 L-5,9 L-5,3 Z " fill="#CECECE" transform="translate(11,7)"/>
</svg>
