<?xml version="1.0" encoding="UTF-8"?>
<svg version="1.1" xmlns="http://www.w3.org/2000/svg" width="28" height="28">
<path d="M0,0 L28,0 L28,28 L0,28 Z " fill="#040404" transform="translate(0,0)"/>
<path d="M0,0 L7,1 L10,3 L9,7 L5,12 L4,15 L13,14 L16,13 L15,17 L12,18 L5,18 L0,16 L1,12 L7,4 L-3,4 L-4,1 Z " fill="#ECECEC" transform="translate(9,5)"/>
<path d="M0,0 L1,3 L-3,4 L-10,3 L-10,2 Z " fill="#D2D2D2" transform="translate(24,18)"/>
<path d="M0,0 L2,0 L0,6 L-2,5 L-4,7 L-3,3 Z " fill="#D4D4D4" transform="translate(13,14)"/>
</svg>
