<?xml version="1.0" encoding="UTF-8"?>
<svg version="1.1" xmlns="http://www.w3.org/2000/svg" width="28" height="28">
<path d="M0,0 L28,0 L28,28 L0,28 Z " fill="#020202" transform="translate(0,0)"/>
<path d="M0,0 L5,0 L8,3 L8,13 L10,13 L12,18 L6,16 L3,20 L-1,19 L-1,13 L1,11 L6,11 L5,3 L0,3 L-4,6 L-3,2 Z " fill="#BFBFBF" transform="translate(11,4)"/>
<path d="M0,0 L1,2 L-2,9 L-6,10 L-7,9 L-7,3 L-5,1 Z " fill="#A6A6A6" transform="translate(17,14)"/>
<path d="M0,0 L5,0 L5,2 L-1,4 L-4,6 L-3,2 Z " fill="#DEDEDE" transform="translate(11,4)"/>
</svg>
