<?xml version="1.0" encoding="UTF-8"?>
<svg version="1.1" xmlns="http://www.w3.org/2000/svg" width="28" height="28">
<path d="M0,0 L28,0 L28,28 L0,28 Z " fill="#030303" transform="translate(0,0)"/>
<path d="M0,0 L6,0 L8,3 L8,9 L6,15 L10,20 L5,18 L2,18 L-2,19 L0,15 L4,11 L5,3 L0,3 L-3,5 L-2,1 Z " fill="#D3D3D3" transform="translate(11,4)"/>
<path d="M0,0 L1,2 L5,4 L7,7 L2,5 L-1,5 L-5,6 L-3,2 Z " fill="#E5E5E5" transform="translate(14,17)"/>
<path d="M0,0 L2,3 L0,9 L-2,11 L-1,4 Z " fill="#B6B6B6" transform="translate(17,8)"/>
</svg>
