<?xml version="1.0" encoding="UTF-8"?>
<svg version="1.1" xmlns="http://www.w3.org/2000/svg" width="28" height="28">
<path d="M0,0 L28,0 L28,28 L0,28 Z " fill="#010101" transform="translate(0,0)"/>
<path d="M0,0 L4,2 L6,5 L6,11 L9,12 L4,15 L-1,20 L-6,19 L-5,15 L1,11 L3,11 L2,4 L0,3 Z " fill="#EFEFEF" transform="translate(13,3)"/>
<path d="M0,0 L3,1 L4,5 L0,8 L-5,7 L-4,3 Z " fill="#A6A6A6" transform="translate(12,15)"/>
<path d="M0,0 L4,2 L6,7 L3,11 L2,4 L0,3 Z " fill="#D0D0D0" transform="translate(13,3)"/>
</svg>
