<?xml version="1.0" encoding="UTF-8"?>
<svg version="1.1" xmlns="http://www.w3.org/2000/svg" width="28" height="28">
<path d="M0,0 L28,0 L28,28 L0,28 Z " fill="#040404" transform="translate(0,0)"/>
<path d="M0,0 L2,1 L4,6 L3,12 L5,12 L7,16 L0,14 L-3,16 L-9,16 L-13,12 L-12,7 L-6,6 L-5,1 Z " fill="#CCCCCC" transform="translate(18,6)"/>
<path d="M0,0 L2,1 L3,7 L1,8 L1,6 L-6,6 L-5,1 Z " fill="#F1F1F1" transform="translate(18,6)"/>
<path d="M0,0 L6,0 L8,2 L6,3 L0,3 Z " fill="#2A2A2A" transform="translate(8,16)"/>
</svg>
