<?xml version="1.0" encoding="UTF-8"?>
<svg version="1.1" xmlns="http://www.w3.org/2000/svg" width="28" height="28">
<path d="M0,0 L28,0 L28,28 L0,28 Z " fill="#030303" transform="translate(0,0)"/>
<path d="M0,0 L10,0 L11,1 L10,9 L13,9 L14,13 L10,11 L6,12 L2,15 L-3,17 L-6,17 L-5,11 L2,7 L8,7 L9,2 L0,3 Z " fill="#D3D3D3" transform="translate(10,6)"/>
<path d="M0,0 L10,0 L11,1 L10,9 L13,9 L14,13 L10,11 L5,11 L4,7 L8,7 L9,2 L0,3 Z " fill="#DDDDDD" transform="translate(10,6)"/>
<path d="M0,0 L3,1 L-3,5 L-5,5 L-3,1 Z " fill="#252525" transform="translate(12,15)"/>
</svg>
