<?xml version="1.0" encoding="UTF-8"?>
<svg version="1.1" xmlns="http://www.w3.org/2000/svg" width="28" height="28">
<path d="M0,0 L28,0 L28,28 L0,28 Z " fill="#030303" transform="translate(0,0)"/>
<path d="M0,0 L5,0 L4,7 L2,11 L5,12 L6,9 L9,9 L8,12 L2,15 L-5,17 L-11,18 L-10,13 L-6,10 L-1,10 L3,2 L0,2 L-1,7 L-6,9 L-5,4 Z " fill="#CECECE" transform="translate(16,5)"/>
<path d="M0,0 L6,1 L6,3 L9,4 L1,7 L-5,8 L-4,3 Z " fill="#F9F9F9" transform="translate(10,15)"/>
<path d="M0,0 L3,0 L1,6 L-2,10 L-2,8 L-5,7 L-1,5 Z " fill="#1B1B1B" transform="translate(16,7)"/>
<path d="M0,0 L4,0 L4,3 L-2,6 L-1,1 Z " fill="#818181" transform="translate(10,15)"/>
<path d="M0,0 L2,1 L2,5 L-3,7 L-2,2 Z " fill="#E8E8E8" transform="translate(13,7)"/>
<path d="M0,0 L2,0 L5,4 L-1,5 Z " fill="#CFCFCF" transform="translate(6,18)"/>
</svg>
