<?xml version="1.0" encoding="UTF-8"?>
<svg version="1.1" xmlns="http://www.w3.org/2000/svg" width="28" height="28">
<path d="M0,0 L28,0 L28,28 L0,28 Z " fill="#030303" transform="translate(0,0)"/>
<path d="M0,0 L3,0 L2,9 L0,15 L8,14 L7,17 L1,19 L-4,18 L-6,17 L-6,19 L-11,18 L-12,14 L-9,11 L-2,9 L1,2 L-3,4 L-6,9 L-9,9 L-9,5 L-2,1 Z " fill="#DFDFDF" transform="translate(17,3)"/>
<path d="M0,0 L3,1 L3,8 L0,7 L0,9 L-5,8 L-6,4 L-3,1 Z " fill="#989898" transform="translate(11,13)"/>
<path d="M0,0 L2,0 L0,7 L-7,9 L-8,7 L-4,5 L-2,1 Z " fill="#1C1C1C" transform="translate(16,5)"/>
</svg>
