<?xml version="1.0" encoding="UTF-8"?>
<svg version="1.1" xmlns="http://www.w3.org/2000/svg" width="28" height="28">
<path d="M0,0 L28,0 L28,28 L0,28 Z " fill="#020202" transform="translate(0,0)"/>
<path d="M0,0 L3,1 L3,7 L0,12 L4,13 L0,18 L-8,19 L-12,19 L-11,13 L-10,12 L-3,11 L1,3 L-2,4 L-4,9 L-9,10 L-8,6 L-2,1 Z " fill="#E9E9E9" transform="translate(18,3)"/>
<path d="M0,0 L3,0 L1,6 L-1,9 L-6,9 L-7,7 L-2,5 Z " fill="#262626" transform="translate(16,6)"/>
<path d="M0,0 L4,1 L4,3 L2,4 L4,6 L-1,8 L-2,3 Z " fill="#CECECE" transform="translate(8,15)"/>
<path d="M0,0 L3,1 L-1,6 L-3,6 L-4,2 Z M-2,2 Z M-3,3 Z " fill="#CCCCCC" transform="translate(19,15)"/>
</svg>
