<?xml version="1.0" encoding="UTF-8"?>
<svg version="1.1" xmlns="http://www.w3.org/2000/svg" width="28" height="28">
<path d="M0,0 L28,0 L28,28 L0,28 Z " fill="#040404" transform="translate(0,0)"/>
<path d="M0,0 L5,1 L7,2 L6,9 L3,15 L7,15 L7,18 L0,18 L-2,18 L-4,20 L-12,20 L-12,16 L-4,11 L2,10 L4,3 L-1,7 L-7,7 L-5,3 Z " fill="#D5D5D5" transform="translate(16,4)"/>
<path d="M0,0 L5,1 L7,2 L6,9 L2,13 L-2,11 L2,10 L4,3 L-1,7 L-7,7 L-5,3 Z " fill="#E5E5E5" transform="translate(16,4)"/>
<path d="M0,0 L6,0 L3,5 L-3,5 L-5,6 L-3,2 Z " fill="#C8C8C8" transform="translate(8,17)"/>
<path d="M0,0 L3,1 L0,5 L-4,4 Z " fill="#1F1F1F" transform="translate(11,17)"/>
</svg>
