<?xml version="1.0" encoding="UTF-8"?>
<svg version="1.1" xmlns="http://www.w3.org/2000/svg" width="28" height="28">
<path d="M0,0 L28,0 L28,28 L0,28 Z " fill="#040404" transform="translate(0,0)"/>
<path d="M0,0 L4,0 L3,6 L0,11 L-1,16 L-5,18 L-16,20 L-16,17 L-9,13 L-5,13 L1,3 L-4,5 L-10,10 L-12,10 L-10,5 Z " fill="#EEEEEE" transform="translate(20,4)"/>
<path d="M0,0 L2,0 L0,4 L-5,7 L-7,7 L-7,4 Z " fill="#CBCBCB" transform="translate(11,17)"/>
<path d="M0,0 L4,0 L3,6 L1,5 L1,3 L-3,3 L-3,1 Z " fill="#C9C9C9" transform="translate(20,4)"/>
</svg>
