<?xml version="1.0" encoding="UTF-8"?>
<svg version="1.1" xmlns="http://www.w3.org/2000/svg" width="28" height="28">
<path d="M0,0 L28,0 L28,28 L0,28 Z " fill="#040404" transform="translate(0,0)"/>
<path d="M0,0 L5,0 L6,5 L1,15 L5,14 L6,11 L10,12 L5,16 L0,18 L-5,19 L-9,20 L-9,14 L-4,11 L0,10 L3,2 L0,2 L-2,6 L-5,8 L-4,4 Z " fill="#DCDCDC" transform="translate(15,4)"/>
<path d="M0,0 L4,1 L-1,5 L-6,7 L-9,7 L-7,3 L-1,3 Z " fill="#DBDBDB" transform="translate(21,15)"/>
<path d="M0,0 L3,0 L3,3 L-3,6 L-4,2 Z " fill="#818181" transform="translate(11,15)"/>
</svg>
