<?xml version="1.0" encoding="UTF-8"?>
<svg version="1.1" xmlns="http://www.w3.org/2000/svg" width="28" height="28">
<path d="M0,0 L28,0 L28,28 L0,28 Z " fill="#040404" transform="translate(0,0)"/>
<path d="M0,0 L8,0 L10,3 L9,11 L7,16 L2,20 L-3,20 L-6,16 L-5,13 L0,12 L5,12 L6,3 L0,2 L-2,6 L-2,1 Z " fill="#DFDFDF" transform="translate(12,4)"/>
<path d="M0,0 L8,0 L9,3 L0,2 L-2,6 L-2,1 Z " fill="#E5E5E5" transform="translate(12,4)"/>
<path d="M0,0 L6,1 L5,3 L-1,2 L1,6 L-2,6 L-3,2 Z " fill="#F3F3F3" transform="translate(9,16)"/>
<path d="M0,0 L6,0 L6,3 L2,4 Z " fill="#333333" transform="translate(8,18)"/>
</svg>
