<?xml version="1.0" encoding="UTF-8"?>
<svg version="1.1" xmlns="http://www.w3.org/2000/svg" width="28" height="28">
<path d="M0,0 L28,0 L28,28 L0,28 Z " fill="#030303" transform="translate(0,0)"/>
<path d="M0,0 L6,0 L12,4 L12,10 L11,14 L13,19 L10,19 L9,16 L5,18 L2,17 L5,13 L-2,12 L-3,15 L-3,10 L-2,9 L4,9 L9,11 L9,4 L-1,2 Z " fill="#E7E7E7" transform="translate(9,3)"/>
<path d="M0,0 L2,2 L9,2 L10,4 L8,4 L8,8 L8,9 L2,9 L0,6 Z " fill="#B0B0B0" transform="translate(5,13)"/>
<path d="M0,0 L6,0 L7,2 L5,2 L5,4 L0,4 Z " fill="#101010" transform="translate(8,15)"/>
<path d="M0,0 L6,0 L8,2 L4,3 L-1,2 Z " fill="#CECECE" transform="translate(9,3)"/>
</svg>
