<?xml version="1.0" encoding="UTF-8"?>
<svg version="1.1" xmlns="http://www.w3.org/2000/svg" width="28" height="28">
<path d="M0,0 L28,0 L28,28 L0,28 Z " fill="#040404" transform="translate(0,0)"/>
<path d="M0,0 L4,1 L5,5 L1,12 L0,16 L3,17 L3,19 L-2,19 L-3,17 L-8,19 L-14,20 L-15,16 L-14,14 L-12,14 L-12,12 L-7,10 L-2,10 L-2,8 L0,8 L-1,5 L-6,6 L-5,2 Z " fill="#F0F0F0" transform="translate(18,3)"/>
<path d="M0,0 L3,0 L3,2 L6,2 L5,4 L-2,5 L-1,1 Z " fill="#C8C8C8" transform="translate(14,4)"/>
<path d="M0,0 L4,1 L0,3 L-1,6 L-3,6 L-3,4 L-5,4 L-5,2 Z " fill="#D4D4D4" transform="translate(11,13)"/>
</svg>
