<?xml version="1.0" encoding="UTF-8"?>
<svg version="1.1" xmlns="http://www.w3.org/2000/svg" width="28" height="28">
<path d="M0,0 L28,0 L28,28 L0,28 Z " fill="#040404" transform="translate(0,0)"/>
<path d="M0,0 L7,1 L9,3 L8,9 L-2,16 L10,17 L7,19 L-5,20 L-6,16 L1,10 L5,7 L5,4 L-3,5 L-5,6 L-3,2 Z " fill="#E0E0E0" transform="translate(13,5)"/>
<path d="M0,0 L7,1 L9,3 L8,8 L6,7 L5,4 L-3,5 L-5,6 L-3,2 Z " fill="#F1F1F1" transform="translate(13,5)"/>
<path d="M0,0 L14,1 L11,3 L-1,4 L-1,1 Z " fill="#BEBEBE" transform="translate(9,21)"/>
<path d="M0,0 L3,1 L5,3 L-5,6 L-3,2 Z " fill="#D8D8D8" transform="translate(13,5)"/>
</svg>
