<?xml version="1.0" encoding="UTF-8"?>
<svg version="1.1" xmlns="http://www.w3.org/2000/svg" width="28" height="28">
<path d="M0,0 L28,0 L28,28 L0,28 Z " fill="#020202" transform="translate(0,0)"/>
<path d="M0,0 L5,0 L7,3 L6,12 L2,17 L-3,20 L-7,20 L-7,12 L-4,10 L4,9 L5,3 L-3,4 L-2,1 Z " fill="#D7D7D7" transform="translate(14,4)"/>
<path d="M0,0 L5,0 L7,4 L2,3 L-3,4 L-2,1 Z " fill="#D4D4D4" transform="translate(14,4)"/>
<path d="M0,0 L4,0 L3,3 L0,5 L-4,5 L-2,1 Z " fill="#141414" transform="translate(12,16)"/>
<path d="M0,0 L2,0 L1,8 L-2,8 L-8,8 L-7,6 L-1,5 Z " fill="#F3F3F3" transform="translate(19,8)"/>
</svg>
