<?xml version="1.0" encoding="UTF-8"?>
<svg version="1.1" xmlns="http://www.w3.org/2000/svg" width="28" height="28">
<path d="M0,0 L28,0 L28,28 L0,28 Z " fill="#030303" transform="translate(0,0)"/>
<path d="M0,0 L8,0 L11,3 L11,10 L10,13 L13,14 L9,15 L4,17 L-5,18 L-7,16 L-6,11 L0,9 L8,9 L8,4 L3,3 L-3,5 L-1,1 Z " fill="#DBDBDB" transform="translate(11,5)"/>
<path d="M0,0 L8,0 L11,3 L11,8 L9,9 L7,3 L0,4 L-3,5 L-1,1 Z M8,9 Z " fill="#E9E9E9" transform="translate(11,5)"/>
<path d="M0,0 L6,1 L3,4 L-3,5 L-4,2 Z " fill="#212121" transform="translate(10,16)"/>
<path d="M0,0 L2,1 L2,3 L5,4 L5,6 L0,5 L-1,1 Z " fill="#F5F5F5" transform="translate(5,17)"/>
</svg>
