<?xml version="1.0" encoding="UTF-8"?>
<svg version="1.1" xmlns="http://www.w3.org/2000/svg" width="28" height="28">
<path d="M0,0 L28,0 L28,28 L0,28 Z " fill="#030303" transform="translate(0,0)"/>
<path d="M0,0 L7,1 L10,6 L9,11 L8,16 L10,17 L10,20 L6,18 L1,19 L-4,20 L-8,17 L-8,12 L-4,9 L1,10 L6,13 L6,5 L4,3 L-5,4 L-3,1 Z " fill="#C8C8C8" transform="translate(12,3)"/>
<path d="M0,0 L7,1 L10,6 L9,11 L8,16 L10,17 L10,20 L6,18 L3,16 L3,14 L0,13 L0,11 L6,13 L6,5 L4,3 L-5,4 L-3,1 Z " fill="#DFDFDF" transform="translate(12,3)"/>
<path d="M0,0 L5,1 L8,3 L7,6 L1,7 L-1,5 Z " fill="#141414" transform="translate(7,14)"/>
</svg>
