<?xml version="1.0" encoding="UTF-8"?>
<svg version="1.1" xmlns="http://www.w3.org/2000/svg" width="28" height="28">
<path d="M0,0 L28,0 L28,28 L0,28 Z " fill="#010101" transform="translate(0,0)"/>
<path d="M0,0 L7,0 L9,2 L8,12 L10,20 L7,20 L6,14 L-1,19 L-8,18 L-9,14 L-4,9 L4,7 L5,4 L-2,5 L-2,1 Z " fill="#E4E4E4" transform="translate(13,4)"/>
<path d="M0,0 L7,0 L9,2 L8,7 L5,7 L5,4 L-2,5 L-2,1 Z " fill="#E6E6E6" transform="translate(13,4)"/>
<path d="M0,0 L2,0 L1,3 L-2,5 L-6,5 L-5,2 Z " fill="#202020" transform="translate(13,15)"/>
</svg>
