<?xml version="1.0" encoding="UTF-8"?>
<svg version="1.1" xmlns="http://www.w3.org/2000/svg" width="28" height="28">
<path d="M0,0 L28,0 L28,28 L0,28 Z " fill="#030303" transform="translate(0,0)"/>
<path d="M0,0 L6,1 L9,4 L7,11 L6,14 L8,14 L8,16 L10,16 L9,19 L6,19 L4,16 L-2,20 L-7,20 L-9,18 L-8,14 L-4,11 L5,11 L6,3 L-1,4 Z " fill="#D9D9D9" transform="translate(13,3)"/>
<path d="M0,0 L8,0 L6,1 L6,4 L0,7 L-5,7 L-4,3 Z " fill="#CBCBCB" transform="translate(9,14)"/>
<path d="M0,0 L4,0 L4,2 L-2,5 L-4,5 L-3,1 Z " fill="#151515" transform="translate(11,16)"/>
</svg>
