<?xml version="1.0" encoding="UTF-8"?>
<svg version="1.1" xmlns="http://www.w3.org/2000/svg" width="28" height="28">
<path d="M0,0 L28,0 L28,28 L0,28 Z " fill="#040404" transform="translate(0,0)"/>
<path d="M0,0 L5,0 L6,2 L7,11 L10,15 L11,20 L8,19 L6,14 L2,15 L-3,17 L-8,16 L-9,12 L-4,9 L3,9 L3,3 L-1,2 Z " fill="#ECECEC" transform="translate(13,4)"/>
<path d="M0,0 L6,0 L4,2 L3,7 L-2,8 L-5,6 L-4,2 Z " fill="#DDDDDD" transform="translate(9,13)"/>
<path d="M0,0 L6,0 L4,4 L-1,5 Z " fill="#A0A0A0" transform="translate(9,13)"/>
</svg>
