<?xml version="1.0" encoding="UTF-8"?>
<svg version="1.1" xmlns="http://www.w3.org/2000/svg" width="28" height="28">
<path d="M0,0 L28,0 L28,28 L0,28 Z " fill="#020202" transform="translate(0,0)"/>
<path d="M0,0 L8,0 L11,2 L12,7 L17,10 L18,12 L10,10 L2,15 L-2,14 L-2,9 L2,6 L8,6 L8,2 L0,2 Z " fill="#D1D1D1" transform="translate(8,7)"/>
<path d="M0,0 L6,0 L7,3 L0,7 L-3,7 L-2,1 Z " fill="#BDBDBD" transform="translate(10,15)"/>
<path d="M0,0 L5,0 L4,3 L-2,4 L-2,1 Z " fill="#0F0F0F" transform="translate(10,15)"/>
</svg>
