<?xml version="1.0" encoding="UTF-8"?>
<svg version="1.1" xmlns="http://www.w3.org/2000/svg" width="28" height="28">
<path d="M0,0 L28,0 L28,28 L0,28 Z " fill="#030303" transform="translate(0,0)"/>
<path d="M0,0 L8,0 L9,1 L9,8 L8,13 L9,17 L11,17 L10,20 L8,20 L6,17 L6,14 L-3,20 L-6,19 L-7,14 L-2,10 L4,10 L4,8 L6,8 L5,3 L0,3 Z " fill="#BEBEBE" transform="translate(12,3)"/>
<path d="M0,0 L5,0 L2,3 L0,3 L1,7 L-2,8 L-3,3 Z " fill="#E5E5E5" transform="translate(8,14)"/>
<path d="M0,0 L8,0 L9,4 L7,5 L7,2 L0,3 Z " fill="#EEEEEE" transform="translate(12,3)"/>
<path d="M0,0 L3,1 L3,4 L5,4 L4,7 L2,7 L0,4 Z " fill="#D6D6D6" transform="translate(18,16)"/>
</svg>
