<?xml version="1.0" encoding="UTF-8"?>
<svg version="1.1" xmlns="http://www.w3.org/2000/svg" width="28" height="28">
<path d="M0,0 L28,0 L28,28 L0,28 Z " fill="#020202" transform="translate(0,0)"/>
<path d="M0,0 L4,1 L6,3 L6,14 L4,18 L-2,20 L-7,19 L-9,14 L-4,13 L1,15 L3,11 L3,4 L1,3 L-1,6 L-2,2 Z " fill="#E6E6E6" transform="translate(14,3)"/>
<path d="M0,0 L4,1 L6,3 L6,14 L4,16 L3,11 L3,4 L1,3 L-1,6 L-2,2 Z " fill="#D8D8D8" transform="translate(14,3)"/>
<path d="M0,0 L6,1 L6,5 L1,6 L-1,1 Z " fill="#9A9A9A" transform="translate(6,16)"/>
</svg>
