<?xml version="1.0" encoding="UTF-8"?>
<svg version="1.1" xmlns="http://www.w3.org/2000/svg" width="28" height="28">
<path d="M0,0 L28,0 L28,28 L0,28 Z " fill="#040404" transform="translate(0,0)"/>
<path d="M0,0 L7,0 L11,4 L12,13 L16,17 L16,19 L12,18 L10,16 L5,17 L-3,17 L-3,13 L0,11 L8,11 L8,4 L-4,4 L-3,1 Z " fill="#EAEAEA" transform="translate(9,4)"/>
<path d="M0,0 L3,1 L4,4 L0,6 L-4,5 L-2,1 Z " fill="#BFBFBF" transform="translate(9,15)"/>
<path d="M0,0 L7,0 L6,2 L0,2 L0,4 L-4,4 L-3,1 Z " fill="#BBBBBB" transform="translate(9,4)"/>
</svg>
