<?xml version="1.0" encoding="UTF-8"?>
<svg version="1.1" xmlns="http://www.w3.org/2000/svg" width="28" height="28">
<path d="M0,0 L28,0 L28,28 L0,28 Z " fill="#030303" transform="translate(0,0)"/>
<path d="M0,0 L6,0 L11,3 L12,10 L14,16 L15,19 L11,19 L10,14 L0,19 L-5,18 L-5,13 L-1,9 L6,8 L10,9 L8,4 L1,3 L-4,4 L-4,2 Z " fill="#D8D8D8" transform="translate(9,4)"/>
<path d="M0,0 L9,0 L5,4 L2,6 L-2,6 L-1,1 Z " fill="#151515" transform="translate(8,15)"/>
<path d="M0,0 L7,1 L5,3 L-1,3 L-2,1 Z " fill="#BDBDBD" transform="translate(12,12)"/>
</svg>
