<?xml version="1.0" encoding="UTF-8"?>
<svg version="1.1" xmlns="http://www.w3.org/2000/svg" width="28" height="28">
<path d="M0,0 L28,0 L28,28 L0,28 Z " fill="#030303" transform="translate(0,0)"/>
<path d="M0,0 L7,0 L11,5 L12,13 L15,17 L9,16 L5,20 L0,20 L-4,16 L-4,13 L2,10 L8,10 L7,3 L1,3 L0,7 L-3,7 L-2,3 Z " fill="#CFCFCF" transform="translate(9,4)"/>
<path d="M0,0 L7,1 L11,4 L5,9 L0,9 L-4,5 L-4,2 Z " fill="#C1C1C1" transform="translate(9,15)"/>
<path d="M0,0 L1,0 L1,5 L5,7 L6,9 L2,8 L2,6 L-8,4 L-7,2 L-1,2 Z " fill="#E5E5E5" transform="translate(18,12)"/>
<path d="M0,0 L4,1 L1,5 L-4,5 L-4,1 Z " fill="#0A0A0A" transform="translate(13,16)"/>
</svg>
