<?xml version="1.0" encoding="UTF-8"?>
<svg version="1.1" xmlns="http://www.w3.org/2000/svg" width="28" height="28">
<path d="M0,0 L28,0 L28,28 L0,28 Z " fill="#050505" transform="translate(0,0)"/>
<path d="M0,0 L5,1 L7,2 L10,11 L13,16 L14,20 L11,19 L8,13 L6,12 L5,18 L0,19 L0,17 L3,17 L3,13 L0,16 L1,11 L4,9 L5,3 L-3,4 L-2,1 Z " fill="#CCCCCC" transform="translate(9,4)"/>
<path d="M0,0 L4,2 L7,7 L8,11 L5,10 L2,4 L0,3 L-1,9 L-6,10 L-6,8 L-3,8 L-1,1 Z " fill="#E6E6E6" transform="translate(15,13)"/>
</svg>
