<?xml version="1.0" encoding="UTF-8"?>
<svg version="1.1" xmlns="http://www.w3.org/2000/svg" width="28" height="28">
<path d="M0,0 L28,0 L28,28 L0,28 Z " fill="#030303" transform="translate(0,0)"/>
<path d="M0,0 L3,0 L4,6 L0,15 L-8,20 L-15,20 L-16,15 L-11,11 L-3,12 L1,4 L-5,7 L-8,7 L-7,3 Z " fill="#E2E2E2" transform="translate(20,3)"/>
<path d="M0,0 L4,1 L5,4 L-1,6 L-3,5 L-1,1 Z " fill="#969696" transform="translate(7,15)"/>
<path d="M0,0 L3,0 L2,4 L-4,4 Z " fill="#FAFAFA" transform="translate(20,3)"/>
</svg>
