<?xml version="1.0" encoding="UTF-8"?>
<svg version="1.1" xmlns="http://www.w3.org/2000/svg" width="28" height="28">
<path d="M0,0 L28,0 L28,28 L0,28 Z " fill="#050505" transform="translate(0,0)"/>
<path d="M0,0 L6,1 L8,4 L10,13 L11,17 L6,15 L4,18 L-2,20 L-6,18 L-7,13 L-5,11 L2,9 L5,10 L5,4 L-1,5 Z " fill="#F3F3F3" transform="translate(12,3)"/>
<path d="M0,0 L2,1 L0,3 L7,2 L5,6 L6,8 L3,9 L-1,7 L-2,2 Z " fill="#BABABA" transform="translate(7,14)"/>
<path d="M0,0 L6,1 L8,6 L5,8 L5,4 L-1,5 Z " fill="#D3D3D3" transform="translate(12,3)"/>
</svg>
