<?xml version="1.0" encoding="UTF-8"?>
<svg version="1.1" xmlns="http://www.w3.org/2000/svg" width="28" height="28">
<path d="M0,0 L28,0 L28,28 L0,28 Z " fill="#020202" transform="translate(0,0)"/>
<path d="M0,0 L6,0 L4,7 L13,7 L13,9 L8,10 L1,10 L-1,14 L-3,14 L-1,8 L2,3 L-7,5 L-6,2 Z " fill="#A0A0A0" transform="translate(13,8)"/>
<path d="M0,0 L2,0 L2,2 L11,2 L7,4 L0,4 L-2,8 L-4,8 L-2,2 Z " fill="#E5E5E5" transform="translate(14,14)"/>
<path d="M0,0 L7,0 L5,2 L-3,4 L-2,1 Z " fill="#E7E7E7" transform="translate(9,9)"/>
</svg>
