<?xml version="1.0" encoding="UTF-8"?>
<svg version="1.1" xmlns="http://www.w3.org/2000/svg" width="28" height="28">
<path d="M0,0 L28,0 L28,28 L0,28 Z " fill="#030303" transform="translate(0,0)"/>
<path d="M0,0 L5,1 L6,2 L6,10 L5,12 L12,14 L12,16 L2,14 L-2,17 L-7,17 L-8,13 L-6,11 L3,11 L4,3 L-6,5 L-5,2 Z " fill="#E3E3E3" transform="translate(13,5)"/>
<path d="M0,0 L3,0 L4,4 L-3,5 L-3,1 Z " fill="#9D9D9D" transform="translate(9,17)"/>
<path d="M0,0 L4,1 L3,3 L-6,5 L-5,2 Z " fill="#B9B9B9" transform="translate(13,5)"/>
</svg>
