<?xml version="1.0" encoding="UTF-8"?>
<svg version="1.1" xmlns="http://www.w3.org/2000/svg" width="28" height="28">
<path d="M0,0 L28,0 L28,28 L0,28 Z " fill="#030303" transform="translate(0,0)"/>
<path d="M0,0 L9,1 L13,5 L14,10 L12,10 L9,6 L0,9 L-5,9 L-6,8 L-6,3 L-4,1 Z " fill="#CECECE" transform="translate(10,14)"/>
<path d="M0,0 L5,0 L9,4 L9,9 L6,11 L6,3 L-5,4 L-3,1 Z " fill="#CBCBCB" transform="translate(13,4)"/>
<path d="M0,0 L4,1 L4,2 L-3,4 L-4,7 L3,7 L0,9 L-5,9 L-6,8 L-6,3 L-4,1 Z " fill="#E3E3E3" transform="translate(10,14)"/>
<path d="M0,0 L7,1 L7,3 L3,5 L-2,5 L-1,1 Z " fill="#0F0F0F" transform="translate(8,16)"/>
</svg>
