<?xml version="1.0" encoding="UTF-8"?>
<svg version="1.1" xmlns="http://www.w3.org/2000/svg" width="28" height="28">
<path d="M0,0 L28,0 L28,28 L0,28 Z " fill="#020202" transform="translate(0,0)"/>
<path d="M0,0 L6,0 L8,2 L7,6 L-1,16 L1,15 L7,15 L10,18 L10,20 L6,18 L0,19 L-6,20 L-5,15 L3,7 L5,2 L0,4 L-1,7 L-3,7 L-2,2 Z " fill="#D5D5D5" transform="translate(13,4)"/>
<path d="M0,0 L2,0 L1,5 L-3,7 L-5,5 L-3,1 Z " fill="#232323" transform="translate(16,6)"/>
<path d="M0,0 L6,0 L9,3 L9,5 L5,3 L0,1 Z " fill="#BDBDBD" transform="translate(14,19)"/>
</svg>
