<?xml version="1.0" encoding="UTF-8"?>
<svg version="1.1" xmlns="http://www.w3.org/2000/svg" width="28" height="28">
<path d="M0,0 L28,0 L28,28 L0,28 Z " fill="#020202" transform="translate(0,0)"/>
<path d="M0,0 L7,1 L8,2 L8,11 L7,14 L9,17 L4,16 L-1,19 L-7,20 L-9,17 L-8,12 L-7,10 L-1,10 L4,11 L5,9 L5,3 L-2,3 L-1,6 L-4,5 L-3,1 Z " fill="#C4C4C4" transform="translate(14,4)"/>
<path d="M0,0 L7,1 L8,2 L8,11 L7,14 L9,17 L4,16 L1,17 L2,13 L-2,12 L1,11 L4,11 L5,9 L5,3 L-2,3 L-1,6 L-4,5 L-3,1 Z " fill="#D6D6D6" transform="translate(14,4)"/>
<path d="M0,0 L8,1 L7,4 L0,6 Z " fill="#0C0C0C" transform="translate(8,16)"/>
<path d="M0,0 L5,1 L11,5 L8,5 L3,6 L4,2 L0,1 Z " fill="#E2E2E2" transform="translate(12,15)"/>
<path d="M0,0 L2,3 L1,8 L-1,9 L-3,7 Z " fill="#AAAAAA" transform="translate(20,9)"/>
</svg>
