<?xml version="1.0" encoding="UTF-8"?>
<svg version="1.1" xmlns="http://www.w3.org/2000/svg" width="28" height="28">
<path d="M0,0 L28,0 L28,28 L0,28 Z " fill="#030303" transform="translate(0,0)"/>
<path d="M0,0 L5,1 L7,4 L7,11 L4,17 L9,17 L8,19 L0,19 L-1,20 L-6,20 L-7,15 L-6,14 L2,14 L4,11 L4,4 L0,3 L-3,5 L-6,4 Z " fill="#DDDDDD" transform="translate(13,3)"/>
<path d="M0,0 L5,1 L7,4 L7,11 L4,11 L4,4 L0,3 L-3,5 L-6,4 Z " fill="#E7E7E7" transform="translate(13,3)"/>
<path d="M0,0 L6,0 L4,4 L1,4 L1,2 L-1,1 Z " fill="#7D7D7D" transform="translate(7,17)"/>
</svg>
