<?xml version="1.0" encoding="UTF-8"?>
<svg version="1.1" xmlns="http://www.w3.org/2000/svg" width="28" height="28">
<path d="M0,0 L28,0 L28,28 L0,28 Z " fill="#020202" transform="translate(0,0)"/>
<path d="M0,0 L8,1 L11,5 L12,14 L17,15 L17,17 L10,17 L7,20 L0,20 L-3,18 L-2,14 L0,12 L8,12 L8,3 L1,3 L-2,4 Z " fill="#CECECE" transform="translate(9,3)"/>
<path d="M0,0 L8,1 L11,5 L11,14 L9,13 L8,3 L1,3 L-2,4 Z " fill="#B9B9B9" transform="translate(9,3)"/>
<path d="M0,0 L8,1 L6,5 L5,6 L0,6 L-1,1 Z " fill="#0E0E0E" transform="translate(10,16)"/>
</svg>
