<?xml version="1.0" encoding="UTF-8"?>
<svg version="1.1" xmlns="http://www.w3.org/2000/svg" width="28" height="28">
<path d="M0,0 L28,0 L28,28 L0,28 Z " fill="#040404" transform="translate(0,0)"/>
<path d="M0,0 L10,0 L9,7 L0,16 L7,14 L11,14 L11,16 L0,20 L-7,20 L-5,16 L4,8 L7,2 L-2,4 L-6,4 L-5,1 Z " fill="#E3E3E3" transform="translate(12,4)"/>
<path d="M0,0 L4,1 L5,3 L-6,4 L-5,1 Z " fill="#C9C9C9" transform="translate(12,4)"/>
<path d="M0,0 L6,0 L6,4 L4,4 L4,2 L-1,2 Z " fill="#FCFCFC" transform="translate(16,4)"/>
</svg>
