<?xml version="1.0" encoding="UTF-8"?>
<svg version="1.1" xmlns="http://www.w3.org/2000/svg" width="28" height="28">
<path d="M0,0 L28,0 L28,28 L0,28 Z " fill="#020202" transform="translate(0,0)"/>
<path d="M0,0 L5,0 L7,3 L6,10 L4,12 L4,19 L1,20 L0,16 L-7,20 L-12,19 L-11,14 L-8,11 L-2,10 L2,9 L4,4 L-1,4 L-1,1 Z " fill="#E5E5E5" transform="translate(16,3)"/>
<path d="M0,0 L2,1 L1,5 L4,6 L1,9 L-4,8 L-3,3 Z " fill="#E2E2E2" transform="translate(8,14)"/>
<path d="M0,0 L7,1 L4,2 L3,5 L-2,7 Z " fill="#7D7D7D" transform="translate(10,13)"/>
<path d="M0,0 L5,0 L6,2 L4,4 L-1,4 L-1,1 Z " fill="#C9C9C9" transform="translate(16,3)"/>
</svg>
