<?xml version="1.0" encoding="UTF-8"?>
<svg version="1.1" xmlns="http://www.w3.org/2000/svg" width="28" height="28">
<path d="M0,0 L28,0 L28,28 L0,28 Z " fill="#030303" transform="translate(0,0)"/>
<path d="M0,0 L5,0 L8,4 L8,15 L9,17 L4,19 L-1,20 L-2,15 L2,14 L4,15 L5,11 L5,4 L0,2 L0,6 L-3,6 L-2,2 Z " fill="#E9E9E9" transform="translate(11,4)"/>
<path d="M0,0 L3,1 L4,6 L-1,5 Z " fill="#C5C5C5" transform="translate(10,18)"/>
<path d="M0,0 L5,0 L3,2 L0,2 L0,6 L-3,6 L-2,2 Z " fill="#C3C3C3" transform="translate(11,4)"/>
</svg>
