<?xml version="1.0" encoding="UTF-8"?>
<svg version="1.1" xmlns="http://www.w3.org/2000/svg" width="28" height="28">
<path d="M0,0 L28,0 L28,28 L0,28 Z " fill="#030303" transform="translate(0,0)"/>
<path d="M0,0 L5,1 L7,4 L8,9 L12,12 L12,14 L8,13 L4,12 L-1,15 L-7,15 L-8,10 L-1,7 L5,8 L3,3 L-3,3 Z " fill="#D4D4D4" transform="translate(13,6)"/>
<path d="M0,0 L5,1 L7,5 L4,5 L3,3 L-3,3 Z " fill="#E8E8E8" transform="translate(13,6)"/>
<path d="M0,0 L6,0 L2,4 L-2,4 Z " fill="#252525" transform="translate(9,16)"/>
</svg>
