<?xml version="1.0" encoding="UTF-8"?>
<svg version="1.1" xmlns="http://www.w3.org/2000/svg" width="28" height="28">
<path d="M0,0 L28,0 L28,28 L0,28 Z " fill="#030303" transform="translate(0,0)"/>
<path d="M0,0 L6,0 L11,5 L11,14 L6,17 L3,20 L-3,20 L-4,19 L-4,13 L-3,12 L7,10 L7,5 L0,3 L-1,6 L-1,1 Z " fill="#D9D9D9" transform="translate(11,4)"/>
<path d="M0,0 L6,0 L11,5 L11,9 L9,9 L9,5 L0,3 L-1,6 L-1,1 Z " fill="#DFDFDF" transform="translate(11,4)"/>
<path d="M0,0 L7,0 L6,4 L2,6 L2,4 L-1,3 Z " fill="#7D7D7D" transform="translate(10,18)"/>
<path d="M0,0 L3,0 L3,4 L5,5 L5,7 L0,6 Z " fill="#F5F5F5" transform="translate(7,17)"/>
</svg>
