<?xml version="1.0" encoding="UTF-8"?>
<svg version="1.1" xmlns="http://www.w3.org/2000/svg" width="28" height="28">
<path d="M0,0 L28,0 L28,28 L0,28 Z " fill="#030303" transform="translate(0,0)"/>
<path d="M0,0 L9,1 L9,7 L2,15 L2,16 L14,18 L12,20 L5,20 L-1,18 L0,13 L5,6 L7,6 L6,3 L0,3 L-4,4 L-3,1 Z " fill="#D9D9D9" transform="translate(10,4)"/>
<path d="M0,0 L5,0 L5,6 L2,7 L2,2 Z " fill="#EBEBEB" transform="translate(14,5)"/>
<path d="M0,0 L1,2 L3,3 L-1,6 L-4,7 L-2,3 Z " fill="#BFBFBF" transform="translate(15,10)"/>
</svg>
