<?xml version="1.0" encoding="UTF-8"?>
<svg version="1.1" xmlns="http://www.w3.org/2000/svg" width="28" height="28">
<path d="M0,0 L28,0 L28,28 L0,28 Z " fill="#040404" transform="translate(0,0)"/>
<path d="M0,0 L5,1 L8,5 L9,18 L0,18 L0,20 L-6,20 L-7,19 L-7,13 L-3,11 L-3,9 L3,9 L6,11 L4,4 L-6,5 L-5,2 Z " fill="#DADADA" transform="translate(13,4)"/>
<path d="M0,0 L5,1 L7,5 L5,7 L4,4 L-6,5 L-5,2 Z " fill="#E1E1E1" transform="translate(13,4)"/>
<path d="M0,0 L5,0 L6,3 L2,5 L-2,5 L-1,1 Z " fill="#0E0E0E" transform="translate(10,16)"/>
</svg>
