<?xml version="1.0" encoding="UTF-8"?>
<svg version="1.1" xmlns="http://www.w3.org/2000/svg" width="28" height="28">
<path d="M0,0 L28,0 L28,28 L0,28 Z " fill="#030303" transform="translate(0,0)"/>
<path d="M0,0 L5,1 L6,4 L6,11 L5,18 L0,20 L-4,20 L-5,15 L2,13 L4,3 L0,3 L-1,7 L-3,7 L-2,2 Z " fill="#F2F2F2" transform="translate(13,4)"/>
<path d="M0,0 L6,0 L3,1 L4,6 L0,6 L-1,1 Z " fill="#CFCFCF" transform="translate(9,18)"/>
<path d="M0,0 L3,0 L3,3 L0,3 L-1,7 L-3,7 L-2,2 Z " fill="#CFCFCF" transform="translate(13,4)"/>
</svg>
