<?xml version="1.0" encoding="UTF-8"?>
<svg version="1.1" xmlns="http://www.w3.org/2000/svg" width="28" height="28">
<path d="M0,0 L28,0 L28,28 L0,28 Z " fill="#030303" transform="translate(0,0)"/>
<path d="M0,0 L5,1 L11,6 L12,13 L17,15 L19,16 L19,18 L15,17 L9,16 L5,20 L-1,19 L-1,14 L4,11 L9,11 L8,6 L0,2 Z " fill="#E8E8E8" transform="translate(8,2)"/>
<path d="M0,0 L5,2 L3,5 L1,5 L1,3 L-1,3 L-2,7 L-2,2 Z " fill="#8B8B8B" transform="translate(9,14)"/>
<path d="M0,0 L5,2 L7,3 L7,5 L3,4 L-2,2 Z " fill="#D1D1D1" transform="translate(20,15)"/>
</svg>
