<?xml version="1.0" encoding="UTF-8"?>
<svg version="1.1" xmlns="http://www.w3.org/2000/svg" width="28" height="28">
<path d="M0,0 L28,0 L28,28 L0,28 Z " fill="#040404" transform="translate(0,0)"/>
<path d="M0,0 L6,0 L8,4 L7,9 L4,12 L4,16 L-10,16 L-11,11 L-9,11 L-9,14 L-2,13 L-2,11 L-7,10 L-7,9 L2,9 L4,7 L5,3 L-3,4 L-3,1 Z " fill="#E5E5E5" transform="translate(15,5)"/>
<path d="M0,0 L6,0 L4,2 L6,3 L6,5 L-1,6 L-1,3 L-3,3 L-4,7 L-4,2 Z " fill="#A8A8A8" transform="translate(7,13)"/>
<path d="M0,0 L6,0 L6,2 L-1,3 Z " fill="#222222" transform="translate(7,16)"/>
</svg>
