<?xml version="1.0" encoding="UTF-8"?>
<svg version="1.1" xmlns="http://www.w3.org/2000/svg" width="28" height="28">
<path d="M0,0 L28,0 L28,28 L0,28 Z " fill="#030303" transform="translate(0,0)"/>
<path d="M0,0 L7,1 L9,4 L8,10 L7,14 L8,18 L7,20 L5,20 L3,15 L-1,18 L-6,18 L-7,13 L-4,10 L5,9 L6,4 L1,3 Z " fill="#E5E5E5" transform="translate(12,4)"/>
<path d="M0,0 L7,1 L9,4 L8,10 L5,13 L5,11 L3,10 L5,9 L6,4 L1,3 Z " fill="#D6D6D6" transform="translate(12,4)"/>
<path d="M0,0 L3,2 L2,6 L-5,7 L-6,2 Z " fill="#CFCFCF" transform="translate(11,15)"/>
<path d="M0,0 L3,2 L-1,5 L-4,5 L-3,1 Z " fill="#191919" transform="translate(11,15)"/>
</svg>
