<?xml version="1.0" encoding="UTF-8"?>
<svg version="1.1" xmlns="http://www.w3.org/2000/svg" width="28" height="28">
<path d="M0,0 L28,0 L28,28 L0,28 Z " fill="#030303" transform="translate(0,0)"/>
<path d="M0,0 L7,0 L9,2 L8,8 L4,13 L4,15 L6,15 L6,18 L3,18 L0,15 L-5,17 L-10,17 L-11,12 L-8,9 L3,9 L6,3 L-1,3 Z " fill="#EAEAEA" transform="translate(14,5)"/>
<path d="M0,0 L7,0 L9,2 L8,8 L3,12 L1,10 L5,6 L6,3 L-1,3 Z " fill="#E0E0E0" transform="translate(14,5)"/>
<path d="M0,0 L6,2 L5,5 L-2,8 L-3,3 Z " fill="#8F8F8F" transform="translate(6,14)"/>
</svg>
