<?xml version="1.0" encoding="UTF-8"?>
<svg version="1.1" xmlns="http://www.w3.org/2000/svg" width="28" height="28">
<path d="M0,0 L28,0 L28,28 L0,28 Z " fill="#040404" transform="translate(0,0)"/>
<path d="M0,0 L5,1 L9,10 L12,12 L11,16 L8,14 L3,13 L3,15 L1,16 L-7,16 L-7,12 L-2,9 L5,9 L2,4 L0,3 Z " fill="#DCDCDC" transform="translate(12,4)"/>
<path d="M0,0 L6,0 L3,2 L1,3 L4,4 L4,6 L-2,6 L-2,2 Z " fill="#F6F6F6" transform="translate(7,14)"/>
<path d="M0,0 L5,1 L7,9 L5,9 L2,4 L0,3 Z " fill="#E7E7E7" transform="translate(12,4)"/>
<path d="M0,0 L5,0 L5,2 L7,3 L3,4 L3,2 L-1,1 Z " fill="#808080" transform="translate(8,16)"/>
</svg>
