<?xml version="1.0" encoding="UTF-8"?>
<svg version="1.1" xmlns="http://www.w3.org/2000/svg" width="28" height="28">
<path d="M0,0 L28,0 L28,28 L0,28 Z " fill="#030303" transform="translate(0,0)"/>
<path d="M0,0 L4,1 L7,4 L8,6 L8,15 L10,16 L10,19 L4,19 L2,20 L-4,20 L-6,18 L-5,12 L-4,11 L3,12 L6,13 L4,5 L-1,4 L-4,6 L-3,2 Z " fill="#DFDFDF" transform="translate(13,3)"/>
<path d="M0,0 L4,1 L5,5 L-1,4 L-4,6 L-3,2 Z " fill="#DCDCDC" transform="translate(13,3)"/>
<path d="M0,0 L2,0 L3,3 L9,4 L8,6 L2,6 L0,4 Z " fill="#F9F9F9" transform="translate(7,17)"/>
<path d="M0,0 L6,1 L4,4 L-1,3 Z " fill="#1C1C1C" transform="translate(10,17)"/>
</svg>
