<?xml version="1.0" encoding="UTF-8"?>
<svg version="1.1" xmlns="http://www.w3.org/2000/svg" width="28" height="28">
<path d="M0,0 L28,0 L28,28 L0,28 Z " fill="#010101" transform="translate(0,0)"/>
<path d="M0,0 L5,1 L6,4 L4,4 L3,8 L1,8 L1,12 L-5,12 L-9,14 L-14,13 L-14,11 L-12,11 L-12,9 L-10,8 L1,7 L2,4 L-4,4 L-4,1 Z " fill="#F2F2F2" transform="translate(18,7)"/>
<path d="M0,0 L5,1 L6,4 L4,4 L3,8 L1,8 L0,10 L-1,7 L1,7 L2,4 L-4,4 L-4,1 Z " fill="#CBCBCB" transform="translate(18,7)"/>
<path d="M0,0 L7,2 L3,5 L-2,4 L-2,2 L0,2 Z " fill="#D4D4D4" transform="translate(6,16)"/>
</svg>
