<?xml version="1.0" encoding="UTF-8"?>
<svg version="1.1" xmlns="http://www.w3.org/2000/svg" width="28" height="28">
<path d="M0,0 L28,0 L28,28 L0,28 Z " fill="#020202" transform="translate(0,0)"/>
<path d="M0,0 L6,0 L5,5 L2,8 L1,11 L4,12 L-4,12 L-8,14 L-14,14 L-13,9 L-10,7 L0,6 L3,3 L-2,3 L-2,1 Z " fill="#D4D4D4" transform="translate(18,7)"/>
<path d="M0,0 L5,0 L4,4 L-1,5 L-1,3 L-3,2 Z " fill="#808080" transform="translate(8,14)"/>
<path d="M0,0 L5,0 L5,2 L-2,3 L-2,1 Z " fill="#E0E0E0" transform="translate(18,7)"/>
</svg>
