<?xml version="1.0" encoding="UTF-8"?>
<svg version="1.1" xmlns="http://www.w3.org/2000/svg" width="28" height="28">
<path d="M0,0 L28,0 L28,28 L0,28 Z " fill="#020202" transform="translate(0,0)"/>
<path d="M0,0 L5,1 L8,4 L9,11 L10,16 L5,17 L2,20 L-4,19 L-4,12 L-2,10 L6,10 L5,5 L-1,3 Z " fill="#E0E0E0" transform="translate(12,3)"/>
<path d="M0,0 L5,1 L8,4 L6,6 L4,4 L-1,3 Z " fill="#C5C5C5" transform="translate(12,3)"/>
<path d="M0,0 L5,0 L3,4 L-1,5 Z " fill="#0D0D0D" transform="translate(11,16)"/>
<path d="M0,0 L4,1 L5,3 L1,4 L-1,8 L-2,2 Z " fill="#C0C0C0" transform="translate(10,13)"/>
</svg>
