<?xml version="1.0" encoding="UTF-8"?>
<svg version="1.1" xmlns="http://www.w3.org/2000/svg" width="28" height="28">
<path d="M0,0 L28,0 L28,28 L0,28 Z " fill="#030303" transform="translate(0,0)"/>
<path d="M0,0 L5,1 L6,2 L6,12 L3,17 L-4,20 L-11,20 L-13,18 L-12,13 L-8,12 L3,12 L3,4 L-2,4 L-6,6 L-4,2 Z " fill="#EBEBEB" transform="translate(16,3)"/>
<path d="M0,0 L12,1 L12,3 L7,5 L8,7 L1,7 L-1,5 Z " fill="#D4D4D4" transform="translate(4,16)"/>
<path d="M0,0 L5,1 L6,6 L5,4 L-2,4 L-6,6 L-4,2 Z " fill="#D5D5D5" transform="translate(16,3)"/>
<path d="M0,0 L7,0 L7,2 L-2,4 L-2,1 Z " fill="#2A2A2A" transform="translate(9,17)"/>
</svg>
