<?xml version="1.0" encoding="UTF-8"?>
<svg version="1.1" xmlns="http://www.w3.org/2000/svg" width="28" height="28">
<path d="M0,0 L28,0 L28,28 L0,28 Z " fill="#030303" transform="translate(0,0)"/>
<path d="M0,0 L4,2 L5,3 L5,9 L3,12 L9,14 L9,15 L0,15 L-6,18 L-10,17 L-11,14 L-7,10 L1,8 L2,3 L-2,4 L-2,1 Z " fill="#C7C7C7" transform="translate(16,4)"/>
<path d="M0,0 L5,0 L1,3 L-1,3 L-1,5 L2,5 L1,8 L-3,7 L-4,4 Z " fill="#E6E6E6" transform="translate(9,14)"/>
<path d="M0,0 L4,2 L2,6 L2,3 L-2,4 L-2,1 Z " fill="#DEDEDE" transform="translate(16,4)"/>
</svg>
