<?xml version="1.0" encoding="UTF-8"?>
<svg version="1.1" xmlns="http://www.w3.org/2000/svg" width="28" height="28">
<path d="M0,0 L28,0 L28,28 L0,28 Z " fill="#030303" transform="translate(0,0)"/>
<path d="M0,0 L5,0 L8,5 L9,12 L11,16 L6,15 L1,20 L-5,20 L-7,18 L-6,13 L0,10 L4,9 L4,4 L-2,5 L-4,7 L-7,7 L-5,3 Z " fill="#E3E3E3" transform="translate(13,4)"/>
<path d="M0,0 L3,0 L3,2 L1,2 L1,4 L-5,5 L-5,3 Z " fill="#232323" transform="translate(14,16)"/>
<path d="M0,0 L4,1 L1,3 L-2,4 L-4,7 L-3,2 Z " fill="#CFCFCF" transform="translate(10,15)"/>
</svg>
