<?xml version="1.0" encoding="UTF-8"?>
<svg version="1.1" xmlns="http://www.w3.org/2000/svg" width="28" height="28">
<path d="M0,0 L28,0 L28,28 L0,28 Z " fill="#040404" transform="translate(0,0)"/>
<path d="M0,0 L6,1 L9,4 L8,14 L9,19 L6,18 L6,15 L-3,20 L-7,19 L-6,12 L-3,9 L3,10 L6,11 L6,5 L5,3 L0,3 L-1,5 L-3,5 L-2,1 Z " fill="#DADADA" transform="translate(13,4)"/>
<path d="M0,0 L6,1 L9,4 L8,11 L6,9 L5,3 L0,3 L-1,5 L-3,5 L-2,1 Z " fill="#DCDCDC" transform="translate(13,4)"/>
<path d="M0,0 L6,1 L5,4 L0,7 L-2,7 L-1,1 Z " fill="#161616" transform="translate(10,15)"/>
</svg>
