<?xml version="1.0" encoding="UTF-8"?>
<svg version="1.1" xmlns="http://www.w3.org/2000/svg" width="28" height="28">
<path d="M0,0 L28,0 L28,28 L0,28 Z " fill="#020202" transform="translate(0,0)"/>
<path d="M0,0 L9,0 L13,3 L11,11 L18,11 L20,12 L20,14 L7,14 L8,7 L9,4 L2,3 L0,3 Z " fill="#D7D7D7" transform="translate(5,7)"/>
<path d="M0,0 L1,3 L8,3 L8,5 L-2,5 L-1,1 Z " fill="#FAFAFA" transform="translate(14,16)"/>
<path d="M0,0 L9,0 L9,2 L0,3 Z " fill="#F1F1F1" transform="translate(5,7)"/>
</svg>
