<?xml version="1.0" encoding="UTF-8"?>
<svg version="1.1" xmlns="http://www.w3.org/2000/svg" width="28" height="28">
<path d="M0,0 L28,0 L28,28 L0,28 Z " fill="#030303" transform="translate(0,0)"/>
<path d="M0,0 L12,3 L12,9 L8,14 L14,16 L13,18 L5,18 L0,20 L1,16 L6,11 L9,4 L2,4 L0,3 Z " fill="#CDCDCD" transform="translate(8,4)"/>
<path d="M0,0 L2,3 L7,4 L6,6 L-2,6 L-7,8 L-6,4 Z " fill="#EDEDED" transform="translate(15,16)"/>
<path d="M0,0 L7,2 L7,4 L0,3 Z " fill="#E4E4E4" transform="translate(8,4)"/>
</svg>
