<?xml version="1.0" encoding="UTF-8"?>
<svg version="1.1" xmlns="http://www.w3.org/2000/svg" width="28" height="28">
<path d="M0,0 L28,0 L28,28 L0,28 Z " fill="#030303" transform="translate(0,0)"/>
<path d="M0,0 L7,0 L10,2 L11,7 L7,16 L17,15 L16,17 L7,20 L2,20 L3,15 L7,8 L8,4 L-3,5 L-3,2 Z " fill="#E4E4E4" transform="translate(9,4)"/>
<path d="M0,0 L7,0 L10,2 L9,8 L8,4 L-3,5 L-3,2 Z " fill="#D9D9D9" transform="translate(9,4)"/>
<path d="M0,0 L4,2 L3,8 L2,4 L-3,4 L0,2 Z " fill="#B9B9B9" transform="translate(15,4)"/>
</svg>
