<?xml version="1.0" encoding="UTF-8"?>
<svg version="1.1" xmlns="http://www.w3.org/2000/svg" width="28" height="28">
<path d="M0,0 L28,0 L28,28 L0,28 Z " fill="#020202" transform="translate(0,0)"/>
<path d="M0,0 L5,0 L7,2 L6,10 L11,12 L11,14 L2,13 L-2,16 L-9,15 L-8,9 L-7,8 L3,8 L4,2 L0,3 Z " fill="#DEDEDE" transform="translate(14,5)"/>
<path d="M0,0 L7,2 L6,7 L5,8 L-2,7 L-1,1 Z " fill="#D3D3D3" transform="translate(7,13)"/>
<path d="M0,0 L5,0 L5,2 L1,4 L-2,4 L-2,1 Z " fill="#212121" transform="translate(9,15)"/>
</svg>
