<?xml version="1.0" encoding="UTF-8"?>
<svg version="1.1" xmlns="http://www.w3.org/2000/svg" width="28" height="28">
<path d="M0,0 L28,0 L28,28 L0,28 Z " fill="#020202" transform="translate(0,0)"/>
<path d="M0,0 L4,1 L8,5 L8,11 L6,14 L14,13 L12,16 L3,18 L-6,18 L-5,15 L2,13 L4,11 L3,4 L0,2 Z " fill="#D3D3D3" transform="translate(11,3)"/>
<path d="M0,0 L2,1 L0,3 L-6,4 L-8,3 L-7,1 Z " fill="#CCCCCC" transform="translate(23,16)"/>
<path d="M0,0 L3,1 L1,4 L3,5 L-3,5 Z " fill="#F6F6F6" transform="translate(14,15)"/>
</svg>
