<?xml version="1.0" encoding="UTF-8"?>
<svg version="1.1" xmlns="http://www.w3.org/2000/svg" width="28" height="28">
<path d="M0,0 L28,0 L28,28 L0,28 Z " fill="#010101" transform="translate(0,0)"/>
<path d="M0,0 L6,0 L9,3 L8,7 L17,9 L18,7 L19,11 L16,12 L1,10 L-1,5 L3,6 L6,7 L6,3 L1,3 Z " fill="#E1E1E1" transform="translate(7,8)"/>
<path d="M0,0 L6,0 L9,3 L8,6 L6,6 L6,3 L1,3 Z " fill="#BCBCBC" transform="translate(7,8)"/>
<path d="M0,0 L2,1 L1,5 L-8,4 L-4,2 L0,2 Z " fill="#BCBCBC" transform="translate(24,15)"/>
<path d="M0,0 L5,0 L5,4 L1,3 L-2,1 Z " fill="#171717" transform="translate(8,11)"/>
</svg>
