<?xml version="1.0" encoding="UTF-8"?>
<svg version="1.1" xmlns="http://www.w3.org/2000/svg" width="28" height="28">
<path d="M0,0 L28,0 L28,28 L0,28 Z " fill="#050505" transform="translate(0,0)"/>
<path d="M0,0 L6,1 L8,4 L8,8 L12,9 L13,13 L10,14 L10,11 L8,11 L6,16 L1,20 L-5,19 L-7,16 L-6,12 L2,8 L5,8 L4,4 L0,3 L0,6 L-4,5 L-2,1 Z " fill="#D8D8D8" transform="translate(12,4)"/>
<path d="M0,0 L6,1 L8,4 L8,8 L12,9 L13,13 L10,14 L10,11 L8,11 L6,16 L3,16 L5,11 L2,10 L6,9 L4,4 L0,3 L0,6 L-4,5 L-2,1 Z " fill="#EFEFEF" transform="translate(12,4)"/>
<path d="M0,0 L2,0 L0,4 L-3,6 L-7,5 L-6,2 Z " fill="#191919" transform="translate(15,15)"/>
</svg>
