<?xml version="1.0" encoding="UTF-8"?>
<svg version="1.1" xmlns="http://www.w3.org/2000/svg" width="28" height="28">
<path d="M0,0 L28,0 L28,28 L0,28 Z " fill="#030303" transform="translate(0,0)"/>
<path d="M0,0 L6,0 L9,4 L9,13 L11,16 L8,16 L4,15 L0,17 L-8,17 L-9,16 L-9,11 L-6,9 L5,9 L6,3 L-7,5 L-6,2 Z " fill="#E1E1E1" transform="translate(13,5)"/>
<path d="M0,0 L6,0 L6,3 L-7,5 L-6,2 Z " fill="#E4E4E4" transform="translate(13,5)"/>
<path d="M0,0 L6,0 L6,3 L-1,4 Z " fill="#1B1B1B" transform="translate(8,16)"/>
<path d="M0,0 L6,0 L6,3 L1,3 Z " fill="#BDBDBD" transform="translate(13,5)"/>
</svg>
