<?xml version="1.0" encoding="UTF-8"?>
<svg version="1.1" xmlns="http://www.w3.org/2000/svg" width="28" height="28">
<path d="M0,0 L28,0 L28,28 L0,28 Z " fill="#030303" transform="translate(0,0)"/>
<path d="M0,0 L7,0 L10,3 L9,11 L13,11 L13,13 L7,13 L-1,18 L-6,18 L-7,13 L-3,9 L7,9 L6,3 L-2,4 L-2,1 Z " fill="#ECECEC" transform="translate(12,5)"/>
<path d="M0,0 L7,1 L7,4 L5,4 L6,7 L2,9 L-3,9 L-4,4 Z " fill="#CDCDCD" transform="translate(9,14)"/>
<path d="M0,0 L7,0 L10,3 L10,8 L7,8 L6,3 L-2,4 L-2,1 Z " fill="#D0D0D0" transform="translate(12,5)"/>
<path d="M0,0 L7,0 L4,3 L-2,4 Z " fill="#121212" transform="translate(10,16)"/>
</svg>
