<?xml version="1.0" encoding="UTF-8"?>
<svg version="1.1" xmlns="http://www.w3.org/2000/svg" width="28" height="28">
<path d="M0,0 L28,0 L28,28 L0,28 Z " fill="#030303" transform="translate(0,0)"/>
<path d="M0,0 L4,1 L5,2 L5,9 L3,12 L8,16 L7,19 L5,19 L5,16 L-1,16 L-7,20 L-11,19 L-12,16 L-10,13 L0,11 L2,3 L-5,7 L-8,7 L-6,3 Z " fill="#DDDDDD" transform="translate(16,4)"/>
<path d="M0,0 L6,1 L7,4 L3,7 L-1,6 L-2,3 Z " fill="#DBDBDB" transform="translate(6,17)"/>
<path d="M0,0 L6,1 L6,3 L1,4 L-1,3 Z " fill="#939393" transform="translate(6,17)"/>
</svg>
