<?xml version="1.0" encoding="UTF-8"?>
<svg version="1.1" xmlns="http://www.w3.org/2000/svg" width="28" height="28">
<path d="M0,0 L28,0 L28,28 L0,28 Z " fill="#030303" transform="translate(0,0)"/>
<path d="M0,0 L5,1 L5,3 L7,3 L8,11 L10,15 L4,15 L-2,19 L-8,19 L-10,17 L-9,11 L-6,9 L4,9 L4,4 L-5,6 L-4,2 Z " fill="#E7E7E7" transform="translate(15,4)"/>
<path d="M0,0 L5,1 L5,3 L7,3 L5,10 L2,9 L4,9 L4,4 L-5,6 L-4,2 Z " fill="#D8D8D8" transform="translate(15,4)"/>
<path d="M0,0 L6,0 L6,3 L2,6 L-2,5 L-1,1 Z " fill="#191919" transform="translate(10,15)"/>
</svg>
