<?xml version="1.0" encoding="UTF-8"?>
<svg version="1.1" xmlns="http://www.w3.org/2000/svg" width="28" height="28">
<path d="M0,0 L28,0 L28,28 L0,28 Z " fill="#060606" transform="translate(0,0)"/>
<path d="M0,0 L6,0 L7,2 L6,11 L5,13 L3,13 L3,15 L9,16 L8,18 L0,17 L-4,19 L-10,19 L-11,14 L-9,12 L-1,12 L2,13 L4,8 L4,3 L-2,4 L-5,4 L-3,1 Z " fill="#E4E4E4" transform="translate(15,3)"/>
<path d="M0,0 L6,0 L2,2 L0,5 L7,5 L5,7 L-1,7 L-2,2 Z " fill="#F4F4F4" transform="translate(6,15)"/>
<path d="M0,0 L6,0 L6,2 L-1,3 Z " fill="#1C1C1C" transform="translate(7,17)"/>
</svg>
