<?xml version="1.0" encoding="UTF-8"?>
<svg version="1.1" xmlns="http://www.w3.org/2000/svg" width="28" height="28">
<path d="M0,0 L28,0 L28,28 L0,28 Z " fill="#020202" transform="translate(0,0)"/>
<path d="M0,0 L4,1 L4,9 L2,13 L2,20 L0,20 L-1,18 L-7,18 L-8,14 L-7,12 L0,12 L2,5 L2,2 L0,3 L-2,6 L-3,3 Z " fill="#E7E7E7" transform="translate(15,3)"/>
<path d="M0,0 L4,1 L3,5 L-1,5 Z " fill="#989898" transform="translate(8,15)"/>
<path d="M0,0 L4,1 L2,5 L2,2 L0,3 L-2,6 L-3,3 Z " fill="#CBCBCB" transform="translate(15,3)"/>
</svg>
