<?xml version="1.0" encoding="UTF-8"?>
<svg version="1.1" xmlns="http://www.w3.org/2000/svg" width="28" height="28">
<path d="M0,0 L28,0 L28,28 L0,28 Z " fill="#020202" transform="translate(0,0)"/>
<path d="M0,0 L5,1 L6,2 L6,8 L4,12 L2,12 L1,18 L3,18 L3,20 L-3,19 L-9,20 L-8,14 L-7,13 L0,13 L2,8 L3,2 L-2,3 L-2,1 Z " fill="#D1D1D1" transform="translate(15,3)"/>
<path d="M0,0 L5,1 L6,2 L6,7 L4,7 L3,3 L-2,3 L-2,1 Z " fill="#EBEBEB" transform="translate(15,3)"/>
<path d="M0,0 L5,0 L4,2 L2,2 L2,5 L-1,5 Z " fill="#B0B0B0" transform="translate(7,18)"/>
</svg>
