<?xml version="1.0" encoding="UTF-8"?>
<svg version="1.1" xmlns="http://www.w3.org/2000/svg" width="28" height="28">
<path d="M0,0 L28,0 L28,28 L0,28 Z " fill="#020202" transform="translate(0,0)"/>
<path d="M0,0 L5,1 L6,2 L5,12 L2,13 L2,16 L5,17 L2,18 L-3,19 L-8,20 L-8,15 L-6,13 L1,13 L3,8 L3,3 L-1,3 Z " fill="#CDCDCD" transform="translate(14,3)"/>
<path d="M0,0 L5,0 L3,4 L-1,5 L-2,7 L-2,2 Z " fill="#A2A2A2" transform="translate(8,16)"/>
<path d="M0,0 L3,0 L3,2 L-2,6 L-5,6 L-5,4 L-1,2 Z " fill="#F0F0F0" transform="translate(12,17)"/>
</svg>
