<?xml version="1.0" encoding="UTF-8"?>
<svg version="1.1" xmlns="http://www.w3.org/2000/svg" width="28" height="28">
<path d="M0,0 L28,0 L28,28 L0,28 Z " fill="#040404" transform="translate(0,0)"/>
<path d="M0,0 L5,1 L7,4 L7,15 L9,20 L6,19 L5,17 L0,19 L-4,18 L-5,14 L-2,11 L5,12 L3,3 L-2,4 L-2,6 L-4,6 L-2,2 Z " fill="#D2D2D2" transform="translate(12,4)"/>
<path d="M0,0 L7,1 L5,2 L4,7 L-1,8 L-3,6 L-2,2 Z " fill="#DADADA" transform="translate(10,15)"/>
<path d="M0,0 L1,0 L1,9 L3,14 L0,13 L-1,11 L-5,10 L-3,9 L-3,7 L-1,7 Z " fill="#E9E9E9" transform="translate(18,10)"/>
<path d="M0,0 L3,1 L1,5 L-2,5 L-1,1 Z " fill="#111111" transform="translate(11,16)"/>
</svg>
