<?xml version="1.0" encoding="UTF-8"?>
<svg version="1.1" xmlns="http://www.w3.org/2000/svg" width="28" height="28">
<path d="M0,0 L28,0 L28,28 L0,28 Z " fill="#040404" transform="translate(0,0)"/>
<path d="M0,0 L5,2 L5,11 L3,16 L10,18 L10,20 L3,19 L-2,18 L-9,19 L-10,15 L-8,13 L-2,13 L0,14 L2,10 L2,3 L-5,4 L-4,1 Z " fill="#D1D1D1" transform="translate(15,3)"/>
<path d="M0,0 L6,0 L4,4 L-2,5 L-1,1 Z " fill="#939393" transform="translate(7,16)"/>
<path d="M0,0 L5,2 L5,7 L2,3 L-5,4 L-4,1 Z " fill="#E7E7E7" transform="translate(15,3)"/>
</svg>
