<?xml version="1.0" encoding="UTF-8"?>
<svg version="1.1" xmlns="http://www.w3.org/2000/svg" width="28" height="28">
<path d="M0,0 L28,0 L28,28 L0,28 Z " fill="#040404" transform="translate(0,0)"/>
<path d="M0,0 L4,0 L4,7 L1,13 L6,15 L6,17 L1,16 L-3,16 L-6,20 L-11,20 L-12,16 L-8,12 L-1,9 L3,2 L-1,5 L-3,5 L-2,1 Z " fill="#E1E1E1" transform="translate(17,3)"/>
<path d="M0,0 L2,2 L-2,7 L-6,5 L-3,1 Z " fill="#B4B4B4" transform="translate(13,16)"/>
<path d="M0,0 L3,1 L0,4 L2,6 L-2,7 L-3,3 Z " fill="#F3F3F3" transform="translate(8,16)"/>
</svg>
