<?xml version="1.0" encoding="UTF-8"?>
<svg version="1.1" xmlns="http://www.w3.org/2000/svg" width="28" height="28">
<path d="M0,0 L28,0 L28,28 L0,28 Z " fill="#030303" transform="translate(0,0)"/>
<path d="M0,0 L6,0 L8,3 L7,10 L5,12 L4,17 L0,18 L0,16 L-5,18 L-11,18 L-12,13 L-5,10 L2,10 L5,2 L-3,6 L-5,5 L-5,2 Z " fill="#E9E9E9" transform="translate(15,4)"/>
<path d="M0,0 L6,0 L8,3 L7,10 L3,12 L1,11 L4,6 L5,2 L-3,6 L-5,5 L-5,2 Z " fill="#DFDFDF" transform="translate(15,4)"/>
<path d="M0,0 L6,1 L6,3 L1,5 L3,7 L-3,7 L-4,2 Z " fill="#909090" transform="translate(7,15)"/>
</svg>
