<?xml version="1.0" encoding="UTF-8"?>
<svg version="1.1" xmlns="http://www.w3.org/2000/svg" width="28" height="28">
<path d="M0,0 L28,0 L28,28 L0,28 Z " fill="#030303" transform="translate(0,0)"/>
<path d="M0,0 L6,0 L10,4 L11,6 L11,14 L18,13 L15,17 L9,17 L7,18 L1,18 L0,13 L3,12 L2,15 L6,14 L4,12 L8,12 L8,5 L6,3 L1,3 L-2,6 L-1,1 Z " fill="#E1E1E1" transform="translate(8,4)"/>
<path d="M0,0 L0,3 L4,2 L2,0 L8,1 L9,4 L5,6 L-1,6 L-2,1 Z " fill="#EEEEEE" transform="translate(10,16)"/>
<path d="M0,0 L1,0 L2,7 L9,6 L6,10 L1,10 Z " fill="#B7B7B7" transform="translate(17,11)"/>
<path d="M0,0 L6,0 L6,3 L5,5 L0,5 L1,2 L-1,1 Z " fill="#767676" transform="translate(9,15)"/>
</svg>
