<?xml version="1.0" encoding="UTF-8"?>
<svg version="1.1" xmlns="http://www.w3.org/2000/svg" width="28" height="28">
<path d="M0,0 L28,0 L28,28 L0,28 Z " fill="#040404" transform="translate(0,0)"/>
<path d="M0,0 L3,1 L3,14 L3,17 L-1,17 L-4,20 L-9,19 L-8,14 L-4,11 L0,10 Z " fill="#C9C9C9" transform="translate(16,3)"/>
<path d="M0,0 L7,1 L7,4 L3,4 L-1,7 L-3,6 L-2,1 Z " fill="#CDCDCD" transform="translate(12,16)"/>
<path d="M0,0 L3,1 L0,5 L-3,5 L-2,1 Z " fill="#121212" transform="translate(12,16)"/>
</svg>
