<?xml version="1.0" encoding="UTF-8"?>
<svg version="1.1" xmlns="http://www.w3.org/2000/svg" width="28" height="28">
<path d="M0,0 L28,0 L28,28 L0,28 Z " fill="#030303" transform="translate(0,0)"/>
<path d="M0,0 L5,1 L6,2 L6,19 L3,20 L3,15 L-5,19 L-10,19 L-11,14 L-6,11 L3,11 L2,4 L-1,6 L-4,6 L-3,1 Z " fill="#E7E7E7" transform="translate(15,3)"/>
<path d="M0,0 L6,1 L5,4 L2,4 L3,7 L-4,8 L-5,3 Z " fill="#CECECE" transform="translate(9,14)"/>
<path d="M0,0 L5,1 L6,2 L6,10 L3,8 L2,4 L-1,6 L-4,6 L-3,1 Z " fill="#C9C9C9" transform="translate(15,3)"/>
<path d="M0,0 L2,0 L1,3 L-6,4 L-3,1 Z " fill="#1E1E1E" transform="translate(13,15)"/>
</svg>
