<?xml version="1.0" encoding="UTF-8"?>
<svg version="1.1" xmlns="http://www.w3.org/2000/svg" width="28" height="28">
<path d="M0,0 L28,0 L28,28 L0,28 Z " fill="#020202" transform="translate(0,0)"/>
<path d="M0,0 L7,1 L7,9 L6,16 L5,20 L1,19 L-7,20 L-10,17 L-9,12 L-6,10 L0,10 L3,12 L4,2 L1,4 L-3,4 L-2,1 Z " fill="#E7E7E7" transform="translate(14,3)"/>
<path d="M0,0 L6,0 L7,3 L0,4 Z " fill="#080808" transform="translate(7,16)"/>
<path d="M0,0 L6,1 L6,2 L1,2 L0,5 L-2,6 L-1,1 Z " fill="#ACACAC" transform="translate(6,14)"/>
</svg>
