<?xml version="1.0" encoding="UTF-8"?>
<svg version="1.1" xmlns="http://www.w3.org/2000/svg" width="28" height="28">
<path d="M0,0 L28,0 L28,28 L0,28 Z " fill="#030303" transform="translate(0,0)"/>
<path d="M0,0 L7,1 L12,6 L13,9 L15,11 L10,16 L4,18 L-1,16 L-3,12 L1,10 L10,10 L8,5 L0,3 Z " fill="#D9D9D9" transform="translate(9,5)"/>
<path d="M0,0 L7,1 L11,5 L10,7 L6,4 L0,3 Z " fill="#E3E3E3" transform="translate(9,5)"/>
<path d="M0,0 L11,0 L11,1 L3,3 L1,5 L-1,1 Z " fill="#EAEAEA" transform="translate(7,16)"/>
<path d="M0,0 L5,0 L5,2 L-2,3 L-3,1 Z " fill="#1F1F1F" transform="translate(12,17)"/>
</svg>
