<?xml version="1.0" encoding="UTF-8"?>
<svg version="1.1" xmlns="http://www.w3.org/2000/svg" width="28" height="28">
<path d="M0,0 L28,0 L28,28 L0,28 Z " fill="#030303" transform="translate(0,0)"/>
<path d="M0,0 L9,0 L14,3 L15,10 L11,15 L13,17 L5,17 L4,18 L-4,18 L-5,13 L-4,12 L9,12 L11,11 L11,4 L9,3 L0,2 Z " fill="#D3D3D3" transform="translate(8,4)"/>
<path d="M0,0 L9,0 L14,3 L15,10 L11,13 L11,4 L9,3 L0,2 Z " fill="#D4D4D4" transform="translate(8,4)"/>
<path d="M0,0 L9,0 L8,4 L-1,4 Z " fill="#959595" transform="translate(4,16)"/>
</svg>
