<?xml version="1.0" encoding="UTF-8"?>
<svg version="1.1" xmlns="http://www.w3.org/2000/svg" width="28" height="28">
<path d="M0,0 L28,0 L28,28 L0,28 Z " fill="#030303" transform="translate(0,0)"/>
<path d="M0,0 L9,0 L14,4 L16,13 L18,15 L11,17 L4,17 L5,12 L12,12 L11,5 L8,4 L1,4 L-2,5 Z " fill="#EBEBEB" transform="translate(6,5)"/>
<path d="M0,0 L9,0 L14,4 L15,10 L13,10 L11,5 L8,4 L1,4 L-2,5 Z " fill="#C7C7C7" transform="translate(6,5)"/>
<path d="M0,0 L6,0 L7,2 L1,4 L-2,5 Z " fill="#E4E4E4" transform="translate(6,5)"/>
</svg>
