<?xml version="1.0" encoding="UTF-8"?>
<svg version="1.1" xmlns="http://www.w3.org/2000/svg" width="28" height="28">
<path d="M0,0 L28,0 L28,28 L0,28 Z " fill="#030303" transform="translate(0,0)"/>
<path d="M0,0 L7,1 L10,5 L10,15 L7,20 L2,20 L-2,16 L-2,11 L8,12 L6,5 L3,3 L-2,3 Z " fill="#E1E1E1" transform="translate(10,3)"/>
<path d="M0,0 L7,1 L10,5 L10,12 L8,12 L6,5 L3,3 L-2,3 Z " fill="#D9D9D9" transform="translate(10,3)"/>
<path d="M0,0 L5,0 L5,2 L7,3 L2,4 Z " fill="#242424" transform="translate(10,16)"/>
</svg>
