<?xml version="1.0" encoding="UTF-8"?>
<svg version="1.1" xmlns="http://www.w3.org/2000/svg" width="28" height="28">
<path d="M0,0 L28,0 L28,28 L0,28 Z " fill="#040404" transform="translate(0,0)"/>
<path d="M0,0 L5,1 L6,5 L1,13 L8,15 L10,16 L10,18 L2,16 L-3,17 L-6,20 L-10,19 L-9,14 L-7,12 L0,10 L4,3 L-5,5 L-4,2 Z " fill="#E2E2E2" transform="translate(15,4)"/>
<path d="M0,0 L5,1 L6,5 L-1,4 L-5,5 L-4,2 Z " fill="#DCDCDC" transform="translate(15,4)"/>
<path d="M0,0 L3,1 L1,6 L-3,7 L-2,2 Z " fill="#747474" transform="translate(8,16)"/>
</svg>
