<?xml version="1.0" encoding="UTF-8"?>
<svg version="1.1" xmlns="http://www.w3.org/2000/svg" width="28" height="28">
<path d="M0,0 L28,0 L28,28 L0,28 Z " fill="#020202" transform="translate(0,0)"/>
<path d="M0,0 L5,0 L6,1 L6,7 L1,13 L7,18 L7,20 L3,19 L0,17 L-5,18 L-11,19 L-12,17 L-8,12 L-1,11 L3,4 L-6,5 L-6,3 Z " fill="#BABABA" transform="translate(16,4)"/>
<path d="M0,0 L9,1 L14,5 L14,7 L10,6 L7,4 L2,5 L-4,6 L-5,4 L-4,2 L-2,2 L-2,4 L0,3 Z " fill="#E5E5E5" transform="translate(9,17)"/>
<path d="M0,0 L4,2 L-1,4 L-4,4 L-4,2 Z " fill="#DCDCDC" transform="translate(14,5)"/>
</svg>
