<?xml version="1.0" encoding="UTF-8"?>
<svg version="1.1" xmlns="http://www.w3.org/2000/svg" width="28" height="28">
<path d="M0,0 L28,0 L28,28 L0,28 Z " fill="#040404" transform="translate(0,0)"/>
<path d="M0,0 L7,1 L7,7 L4,11 L7,14 L8,18 L4,16 L3,14 L-2,16 L-7,20 L-12,19 L-10,14 L-5,11 L2,9 L5,4 L-2,3 L-2,1 Z " fill="#E5E5E5" transform="translate(15,3)"/>
<path d="M0,0 L3,1 L2,6 L-2,9 L-7,8 L-5,3 Z " fill="#919191" transform="translate(10,14)"/>
<path d="M0,0 L2,0 L2,2 L0,2 L0,4 L3,4 L3,6 L-2,5 Z " fill="#DDDDDD" transform="translate(5,17)"/>
</svg>
