<?xml version="1.0" encoding="UTF-8"?>
<svg version="1.1" xmlns="http://www.w3.org/2000/svg" width="28" height="28">
<path d="M0,0 L28,0 L28,28 L0,28 Z " fill="#050505" transform="translate(0,0)"/>
<path d="M0,0 L5,1 L5,7 L1,14 L3,20 L1,20 L1,18 L-1,18 L-1,16 L-5,18 L-12,18 L-11,14 L-8,12 L-1,10 L2,6 L3,3 L-6,5 L-5,2 Z " fill="#E6E6E6" transform="translate(17,4)"/>
<path d="M0,0 L5,1 L4,5 L4,3 L-6,5 L-5,2 Z " fill="#F1F1F1" transform="translate(17,4)"/>
<path d="M0,0 L3,1 L3,3 L-4,6 L-3,2 Z " fill="#A9A9A9" transform="translate(9,16)"/>
</svg>
