<?xml version="1.0" encoding="UTF-8"?>
<svg version="1.1" xmlns="http://www.w3.org/2000/svg" width="28" height="28">
<path d="M0,0 L28,0 L28,28 L0,28 Z " fill="#030303" transform="translate(0,0)"/>
<path d="M0,0 L5,0 L6,4 L4,8 L1,11 L2,13 L-5,13 L-6,14 L-12,14 L-14,13 L-13,8 L-1,8 L1,5 L3,5 L3,2 L-4,6 L-8,6 L-8,3 Z " fill="#D3D3D3" transform="translate(18,7)"/>
<path d="M0,0 L9,0 L7,2 L7,6 L1,6 L-1,5 Z " fill="#D3D3D3" transform="translate(5,15)"/>
<path d="M0,0 L7,0 L9,4 L1,4 Z " fill="#F3F3F3" transform="translate(11,16)"/>
<path d="M0,0 L5,0 L5,4 L-1,4 Z " fill="#959595" transform="translate(7,17)"/>
</svg>
