<?xml version="1.0" encoding="UTF-8"?>
<svg version="1.1" xmlns="http://www.w3.org/2000/svg" width="28" height="28">
<path d="M0,0 L28,0 L28,28 L0,28 Z " fill="#080808" transform="translate(0,0)"/>
<path d="M0,0 L6,2 L7,3 L7,15 L4,15 L2,19 L-4,20 L-5,15 L-3,13 L4,12 L5,6 L2,3 L-5,3 L-3,1 Z " fill="#E1E1E1" transform="translate(12,3)"/>
<path d="M0,0 L6,1 L6,2 L1,3 L0,5 L2,5 L2,7 L-2,6 L-1,1 Z " fill="#E7E7E7" transform="translate(9,16)"/>
<path d="M0,0 L6,2 L7,4 L5,6 L2,3 L-5,3 L-3,1 Z " fill="#D4D4D4" transform="translate(12,3)"/>
<path d="M0,0 L4,0 L4,4 L-1,3 Z " fill="#787878" transform="translate(10,18)"/>
</svg>
