<?xml version="1.0" encoding="UTF-8"?>
<svg version="1.1" xmlns="http://www.w3.org/2000/svg" width="28" height="28">
<path d="M0,0 L28,0 L28,28 L0,28 Z " fill="#030303" transform="translate(0,0)"/>
<path d="M0,0 L5,1 L6,2 L5,13 L9,14 L9,16 L-1,18 L-5,20 L-9,19 L-9,13 L-5,9 L-1,9 L-1,11 L2,11 L3,3 L-3,4 L-3,1 Z " fill="#C8C8C8" transform="translate(15,3)"/>
<path d="M0,0 L5,1 L5,7 L3,8 L3,3 L-3,4 L-3,1 Z " fill="#ECECEC" transform="translate(15,3)"/>
<path d="M0,0 L1,3 L5,2 L3,6 L-1,5 Z M5,1 Z " fill="#F5F5F5" transform="translate(7,17)"/>
</svg>
