<?xml version="1.0" encoding="UTF-8"?>
<svg version="1.1" xmlns="http://www.w3.org/2000/svg" width="28" height="28">
<path d="M0,0 L28,0 L28,28 L0,28 Z " fill="#050505" transform="translate(0,0)"/>
<path d="M0,0 L8,0 L9,5 L0,15 L-1,17 L6,16 L13,17 L12,20 L-5,20 L-4,14 L4,6 L5,4 L0,4 L-1,6 L-6,5 L-6,2 Z " fill="#E7E7E7" transform="translate(12,4)"/>
<path d="M0,0 L10,1 L9,4 L-3,3 Z " fill="#F3F3F3" transform="translate(15,20)"/>
<path d="M0,0 L3,1 L4,3 L3,5 L-2,4 L-2,1 Z " fill="#C6C6C6" transform="translate(8,5)"/>
</svg>
