<?xml version="1.0" encoding="UTF-8"?>
<svg version="1.1" xmlns="http://www.w3.org/2000/svg" width="28" height="28">
<path d="M0,0 L28,0 L28,28 L0,28 Z " fill="#030303" transform="translate(0,0)"/>
<path d="M0,0 L5,1 L6,6 L3,12 L-1,15 L-3,15 L-3,17 L5,15 L10,13 L4,20 L-2,20 L-8,16 L-7,14 L-1,11 L3,6 L4,2 L0,3 L-1,5 L-3,5 L-1,1 Z " fill="#CCCCCC" transform="translate(13,2)"/>
<path d="M0,0 L2,1 L-4,7 L-10,7 L-16,3 L-15,1 L-11,2 L-11,4 L-3,2 Z " fill="#E6E6E6" transform="translate(21,15)"/>
</svg>
