<?xml version="1.0" encoding="UTF-8"?>
<svg version="1.1" xmlns="http://www.w3.org/2000/svg" width="28" height="28">
<path d="M0,0 L28,0 L28,28 L0,28 Z " fill="#030303" transform="translate(0,0)"/>
<path d="M0,0 L3,1 L4,6 L1,15 L1,18 L-1,18 L-1,16 L-8,20 L-13,20 L-14,17 L-10,12 L-6,10 L0,10 L1,4 L-6,5 L-5,2 Z " fill="#D3D3D3" transform="translate(18,3)"/>
<path d="M0,0 L3,1 L4,6 L1,9 L1,4 L-6,5 L-5,2 Z " fill="#E4E4E4" transform="translate(18,3)"/>
<path d="M0,0 L4,1 L1,4 L6,4 L3,7 L-2,7 L-3,4 Z " fill="#E4E4E4" transform="translate(7,16)"/>
<path d="M0,0 L4,1 L-3,5 L-3,2 Z " fill="#181818" transform="translate(11,16)"/>
</svg>
