<?xml version="1.0" encoding="UTF-8"?>
<svg version="1.1" xmlns="http://www.w3.org/2000/svg" width="28" height="28">
<path d="M0,0 L28,0 L28,28 L0,28 Z " fill="#060606" transform="translate(0,0)"/>
<path d="M0,0 L6,1 L9,4 L9,12 L13,13 L13,19 L10,19 L10,14 L7,14 L5,18 L-1,19 L-5,14 L-4,11 L7,11 L5,4 L-3,4 L-5,7 L-7,7 L-6,3 Z " fill="#E1E1E1" transform="translate(11,4)"/>
<path d="M0,0 L3,0 L3,6 L0,6 Z " fill="#E6E6E6" transform="translate(21,17)"/>
<path d="M0,0 L5,1 L3,4 L-1,4 L-2,1 Z " fill="#111111" transform="translate(11,16)"/>
</svg>
