<?xml version="1.0" encoding="UTF-8"?>
<svg version="1.1" xmlns="http://www.w3.org/2000/svg" width="28" height="28">
<path d="M0,0 L28,0 L28,28 L0,28 Z " fill="#030303" transform="translate(0,0)"/>
<path d="M0,0 L4,1 L4,8 L3,10 L9,12 L9,13 L-1,14 L-6,18 L-11,18 L-11,13 L-7,10 L0,9 L2,4 L-2,4 L-2,1 Z " fill="#D8D8D8" transform="translate(16,4)"/>
<path d="M0,0 L4,1 L4,8 L3,10 L9,12 L7,13 L-1,12 L2,6 L2,4 L-2,4 L-2,1 Z " fill="#E7E7E7" transform="translate(16,4)"/>
<path d="M0,0 L4,2 L2,5 L-2,5 L-1,1 Z " fill="#AAAAAA" transform="translate(7,15)"/>
</svg>
