<?xml version="1.0" encoding="UTF-8"?>
<svg version="1.1" xmlns="http://www.w3.org/2000/svg" width="28" height="28">
<path d="M0,0 L28,0 L28,28 L0,28 Z " fill="#050505" transform="translate(0,0)"/>
<path d="M0,0 L4,1 L5,5 L3,13 L5,17 L1,16 L-2,15 L-2,17 L-7,20 L-13,20 L-13,14 L-10,11 L0,11 L2,7 L2,3 L-1,3 L-4,7 L-7,7 L-5,3 Z " fill="#E8E8E8" transform="translate(18,3)"/>
<path d="M0,0 L6,0 L5,8 L3,9 L-3,9 L-3,3 Z " fill="#D4D4D4" transform="translate(8,14)"/>
<path d="M0,0 L5,0 L4,3 L0,4 Z " fill="#151515" transform="translate(8,17)"/>
</svg>
