<?xml version="1.0" encoding="UTF-8"?>
<svg version="1.1" xmlns="http://www.w3.org/2000/svg" width="28" height="28">
<path d="M0,0 L28,0 L28,28 L0,28 Z " fill="#040404" transform="translate(0,0)"/>
<path d="M0,0 L6,1 L7,2 L7,10 L4,16 L8,17 L8,19 L-1,19 L-8,20 L-11,17 L-10,13 L-9,12 L1,13 L4,7 L4,3 L1,3 L0,6 L-3,6 L-2,2 Z " fill="#E8E8E8" transform="translate(15,3)"/>
<path d="M0,0 L6,0 L8,1 L8,3 L5,6 L1,4 Z " fill="#939393" transform="translate(4,17)"/>
<path d="M0,0 L3,1 L1,5 L-2,5 L-1,1 Z " fill="#F5F5F5" transform="translate(14,4)"/>
</svg>
