<?xml version="1.0" encoding="UTF-8"?>
<svg version="1.1" xmlns="http://www.w3.org/2000/svg" width="28" height="28">
<path d="M0,0 L28,0 L28,28 L0,28 Z " fill="#030303" transform="translate(0,0)"/>
<path d="M0,0 L5,0 L8,5 L6,14 L8,18 L2,17 L-2,20 L-7,20 L-8,19 L-8,14 L-3,11 L3,11 L4,9 L4,3 L1,3 L-1,6 L-4,6 L-3,2 Z " fill="#E6E6E6" transform="translate(14,3)"/>
<path d="M0,0 L5,0 L8,5 L7,10 L4,11 L4,3 L1,3 L-1,6 L-4,6 L-3,2 Z " fill="#E0E0E0" transform="translate(14,3)"/>
<path d="M0,0 L4,0 L3,5 L-2,6 L-3,4 L-5,5 L-3,1 Z " fill="#8E8E8E" transform="translate(11,14)"/>
</svg>
