<?xml version="1.0" encoding="UTF-8"?>
<svg version="1.1" xmlns="http://www.w3.org/2000/svg" width="28" height="28">
<path d="M0,0 L28,0 L28,28 L0,28 Z " fill="#030303" transform="translate(0,0)"/>
<path d="M0,0 L3,0 L3,9 L0,14 L-1,18 L6,16 L2,20 L-3,20 L-5,20 L-11,20 L-12,15 L-9,11 L-4,11 L-2,12 L2,2 L-5,6 L-7,6 L-5,2 Z " fill="#CCCCCC" transform="translate(17,3)"/>
<path d="M0,0 L3,0 L3,6 L1,8 L2,2 L-5,6 L-7,6 L-5,2 Z " fill="#EBEBEB" transform="translate(17,3)"/>
<path d="M0,0 L5,1 L3,5 L-1,6 Z " fill="#090909" transform="translate(8,16)"/>
</svg>
