<?xml version="1.0" encoding="UTF-8"?>
<svg version="1.1" xmlns="http://www.w3.org/2000/svg" width="28" height="28">
<path d="M0,0 L28,0 L28,28 L0,28 Z " fill="#020202" transform="translate(0,0)"/>
<path d="M0,0 L3,0 L4,2 L5,11 L11,13 L11,15 L4,15 L1,15 L-1,17 L-7,17 L-9,15 L-8,10 L-7,9 L-1,9 L1,10 L2,4 L-8,7 L-6,3 Z " fill="#E8E8E8" transform="translate(15,5)"/>
<path d="M0,0 L2,0 L1,6 L-9,4 L-8,2 Z " fill="#2D2D2D" transform="translate(15,9)"/>
<path d="M0,0 L7,0 L7,3 L4,6 L0,4 Z " fill="#7F7F7F" transform="translate(6,16)"/>
</svg>
