<?xml version="1.0" encoding="UTF-8"?>
<svg version="1.1" xmlns="http://www.w3.org/2000/svg" width="28" height="28">
<path d="M0,0 L28,0 L28,28 L0,28 Z " fill="#040404" transform="translate(0,0)"/>
<path d="M0,0 L5,1 L9,6 L8,16 L8,19 L3,18 L-1,20 L-8,20 L-10,18 L-10,12 L-5,9 L2,10 L4,12 L5,11 L5,6 L2,6 L1,7 L-5,7 L-6,3 L-4,3 L-4,1 Z " fill="#E7E7E7" transform="translate(15,4)"/>
<path d="M0,0 L5,1 L9,6 L9,9 L7,9 L6,11 L4,5 L1,7 L-5,7 L-6,3 L-4,3 L-4,1 Z " fill="#E8E8E8" transform="translate(15,4)"/>
<path d="M0,0 L5,1 L4,4 L-3,5 L-1,1 Z " fill="#191919" transform="translate(11,16)"/>
</svg>
