<?xml version="1.0" encoding="UTF-8"?>
<svg version="1.1" xmlns="http://www.w3.org/2000/svg" width="28" height="28">
<path d="M0,0 L28,0 L28,28 L0,28 Z " fill="#030303" transform="translate(0,0)"/>
<path d="M0,0 L6,0 L9,3 L9,11 L14,16 L11,17 L9,15 L3,16 L-2,17 L0,13 L5,9 L7,9 L6,4 L0,4 L-3,7 L-6,7 L-4,3 Z " fill="#EAEAEA" transform="translate(10,5)"/>
<path d="M0,0 L6,0 L9,4 L7,7 L6,4 L0,4 L-3,7 L-6,7 L-4,3 Z " fill="#DEDEDE" transform="translate(10,5)"/>
<path d="M0,0 L6,0 L9,4 L7,7 L6,4 L1,3 Z " fill="#BABABA" transform="translate(10,5)"/>
</svg>
