<?xml version="1.0" encoding="UTF-8"?>
<svg version="1.1" xmlns="http://www.w3.org/2000/svg" width="28" height="28">
<path d="M0,0 L28,0 L28,28 L0,28 Z " fill="#020202" transform="translate(0,0)"/>
<path d="M0,0 L6,1 L11,6 L11,12 L13,13 L11,13 L9,19 L5,20 L1,15 L1,10 L2,9 L9,10 L8,5 L5,3 L0,2 Z " fill="#D1D1D1" transform="translate(8,4)"/>
<path d="M0,0 L4,1 L6,2 L5,7 L1,7 L-1,1 Z " fill="#090909" transform="translate(11,14)"/>
<path d="M0,0 L2,3 L-1,8 L-5,7 L-8,3 L-8,1 L-6,1 L-4,5 L-2,5 Z " fill="#B8B8B8" transform="translate(17,16)"/>
</svg>
