<?xml version="1.0" encoding="UTF-8"?>
<svg version="1.1" xmlns="http://www.w3.org/2000/svg" width="28" height="28">
<path d="M0,0 L28,0 L28,28 L0,28 Z " fill="#040404" transform="translate(0,0)"/>
<path d="M0,0 L7,0 L10,5 L8,14 L13,16 L13,17 L8,17 L4,16 L1,17 L-7,17 L-6,12 L-2,10 L6,9 L6,4 L-1,5 L-4,6 L-4,3 Z " fill="#EAEAEA" transform="translate(12,5)"/>
<path d="M0,0 L6,1 L6,3 L0,4 L-1,3 L-3,6 L-2,1 Z " fill="#868686" transform="translate(8,16)"/>
<path d="M0,0 L5,2 L1,4 L-4,6 L-4,3 Z " fill="#C1C1C1" transform="translate(12,5)"/>
</svg>
