<?xml version="1.0" encoding="UTF-8"?>
<svg version="1.1" xmlns="http://www.w3.org/2000/svg" width="28" height="28">
<path d="M0,0 L28,0 L28,28 L0,28 Z " fill="#030303" transform="translate(0,0)"/>
<path d="M0,0 L6,0 L8,4 L7,10 L5,14 L5,15 L-11,15 L-11,11 L-6,8 L0,9 L4,9 L4,3 L-1,4 L-5,5 L-5,2 Z " fill="#C9C9C9" transform="translate(15,5)"/>
<path d="M0,0 L6,1 L5,5 L8,7 L-5,7 L-5,3 Z " fill="#C7C7C7" transform="translate(9,13)"/>
<path d="M0,0 L1,3 L0,7 L-8,6 L-6,5 L-6,2 L-1,1 Z " fill="#EAEAEA" transform="translate(20,13)"/>
<path d="M0,0 L5,1 L5,3 L-2,4 L-3,1 Z " fill="#121212" transform="translate(9,15)"/>
</svg>
