<?xml version="1.0" encoding="UTF-8"?>
<svg version="1.1" xmlns="http://www.w3.org/2000/svg" width="28" height="28">
<path d="M0,0 L28,0 L28,28 L0,28 Z " fill="#020202" transform="translate(0,0)"/>
<path d="M0,0 L5,0 L4,5 L-1,9 L-3,9 L-3,11 L2,11 L2,12 L-14,11 L-15,7 L-14,6 L-7,7 L-4,8 L2,4 L3,2 L-3,4 L-3,2 Z " fill="#A3A3A3" transform="translate(19,8)"/>
<path d="M0,0 L5,0 L4,5 L-1,9 L-3,9 L-3,11 L2,11 L2,12 L-4,12 L-4,8 L2,4 L3,2 L-3,4 L-3,2 Z " fill="#C2C2C2" transform="translate(19,8)"/>
</svg>
