<?xml version="1.0" encoding="UTF-8"?>
<svg version="1.1" xmlns="http://www.w3.org/2000/svg" width="28" height="28">
<path d="M0,0 L28,0 L28,28 L0,28 Z " fill="#030303" transform="translate(0,0)"/>
<path d="M0,0 L8,0 L12,6 L6,14 L14,15 L14,16 L5,16 L0,15 L-6,15 L-5,10 L-2,8 L3,9 L3,11 L7,8 L7,3 L-2,4 L-2,1 Z " fill="#BCBCBC" transform="translate(11,6)"/>
<path d="M0,0 L8,0 L12,6 L11,8 L9,8 L7,3 L-2,4 L-2,1 Z " fill="#EBEBEB" transform="translate(11,6)"/>
<path d="M0,0 L2,0 L2,4 L4,6 L-2,6 L-1,1 Z " fill="#E8E8E8" transform="translate(7,15)"/>
<path d="M0,0 L5,1 L2,3 L-2,4 L-2,1 Z " fill="#CFCFCF" transform="translate(11,6)"/>
</svg>
