<?xml version="1.0" encoding="UTF-8"?>
<svg version="1.1" xmlns="http://www.w3.org/2000/svg" width="28" height="28">
<path d="M0,0 L28,0 L28,28 L0,28 Z " fill="#040404" transform="translate(0,0)"/>
<path d="M0,0 L7,1 L9,4 L8,11 L7,15 L10,17 L2,17 L-3,20 L-9,19 L-10,15 L-7,12 L5,12 L6,4 L2,3 L-3,6 L-5,6 L-3,2 Z " fill="#E3E3E3" transform="translate(14,3)"/>
<path d="M0,0 L10,0 L8,2 L9,5 L4,8 L-2,7 L-3,3 Z " fill="#D5D5D5" transform="translate(7,15)"/>
<path d="M0,0 L6,0 L6,2 L3,4 L-2,4 Z " fill="#303030" transform="translate(8,17)"/>
<path d="M0,0 L2,1 L1,8 L-1,10 L-2,6 Z " fill="#CBCBCB" transform="translate(21,6)"/>
</svg>
