<?xml version="1.0" encoding="UTF-8"?>
<svg version="1.1" xmlns="http://www.w3.org/2000/svg" width="28" height="28">
<path d="M0,0 L28,0 L28,28 L0,28 Z " fill="#060606" transform="translate(0,0)"/>
<path d="M0,0 L5,0 L6,1 L6,12 L5,16 L10,18 L10,19 L2,18 L1,19 L-6,19 L-8,15 L-6,12 L1,12 L3,13 L3,4 L1,5 L-1,6 L-2,2 Z " fill="#E9E9E9" transform="translate(13,3)"/>
<path d="M0,0 L5,0 L6,1 L6,12 L3,12 L3,4 L1,5 L-1,6 L-2,2 Z " fill="#F0F0F0" transform="translate(13,3)"/>
<path d="M0,0 L2,0 L1,4 L4,5 L-3,5 L-5,1 Z " fill="#AEAEAE" transform="translate(10,17)"/>
</svg>
