<?xml version="1.0" encoding="UTF-8"?>
<svg version="1.1" xmlns="http://www.w3.org/2000/svg" width="28" height="28">
<path d="M0,0 L28,0 L28,28 L0,28 Z " fill="#020202" transform="translate(0,0)"/>
<path d="M0,0 L5,2 L7,7 L7,11 L14,10 L11,13 L7,14 L4,19 L-3,20 L-6,17 L-5,13 L-4,11 L4,11 L2,4 L-3,4 L-3,2 Z " fill="#DCDCDC" transform="translate(12,3)"/>
<path d="M0,0 L5,2 L7,7 L7,11 L5,12 L-1,12 L-1,11 L4,11 L2,4 L-3,4 L-3,2 Z " fill="#D3D3D3" transform="translate(12,3)"/>
<path d="M0,0 L2,1 L2,4 L8,3 L8,5 L1,6 L-1,4 Z " fill="#EBEBEB" transform="translate(8,17)"/>
<path d="M0,0 L5,0 L3,4 L0,4 Z " fill="#141414" transform="translate(10,17)"/>
</svg>
