<?xml version="1.0" encoding="UTF-8"?>
<svg version="1.1" xmlns="http://www.w3.org/2000/svg" width="28" height="28">
<path d="M0,0 L28,0 L28,28 L0,28 Z " fill="#030303" transform="translate(0,0)"/>
<path d="M0,0 L5,1 L7,3 L7,11 L5,13 L5,16 L8,18 L3,19 L0,18 L-5,20 L-11,20 L-12,15 L-8,11 L-2,10 L3,12 L4,5 L3,3 L-1,1 Z " fill="#CCCCCC" transform="translate(15,2)"/>
<path d="M0,0 L5,1 L7,3 L7,11 L5,13 L5,16 L8,18 L3,19 L-3,17 L0,16 L-3,12 L1,12 L3,12 L4,5 L3,3 L-1,1 Z " fill="#E0E0E0" transform="translate(15,2)"/>
<path d="M0,0 L5,1 L6,4 L1,6 L-4,6 L-3,2 Z " fill="#212121" transform="translate(9,14)"/>
</svg>
