<?xml version="1.0" encoding="UTF-8"?>
<svg version="1.1" xmlns="http://www.w3.org/2000/svg" width="28" height="28">
<path d="M0,0 L28,0 L28,28 L0,28 Z " fill="#030303" transform="translate(0,0)"/>
<path d="M0,0 L8,1 L11,5 L10,15 L2,20 L-3,19 L-3,14 L1,10 L7,10 L9,11 L7,4 L0,3 L-2,2 Z " fill="#E1E1E1" transform="translate(10,4)"/>
<path d="M0,0 L5,1 L5,4 L1,7 L-4,7 L-3,3 Z " fill="#0F0F0F" transform="translate(12,15)"/>
<path d="M0,0 L3,1 L-3,5 L-8,4 L-8,3 L-1,1 Z " fill="#C0C0C0" transform="translate(15,19)"/>
</svg>
