<?xml version="1.0" encoding="UTF-8"?>
<svg version="1.1" xmlns="http://www.w3.org/2000/svg" width="28" height="28">
<path d="M0,0 L28,0 L28,28 L0,28 Z " fill="#040404" transform="translate(0,0)"/>
<path d="M0,0 L5,1 L7,4 L7,14 L10,20 L7,19 L5,14 L0,17 L-6,18 L-9,17 L-10,13 L-8,10 L1,10 L4,11 L3,3 L-5,7 L-7,7 L-6,3 L-4,1 Z " fill="#EEEEEE" transform="translate(14,5)"/>
<path d="M0,0 L2,1 L2,2 L7,2 L8,7 L2,8 L-1,7 L-2,3 Z " fill="#D3D3D3" transform="translate(6,15)"/>
<path d="M0,0 L5,1 L4,6 L3,3 L-5,7 L-7,7 L-6,3 L-4,1 Z " fill="#D2D2D2" transform="translate(14,5)"/>
<path d="M0,0 L5,0 L5,3 L-2,3 Z " fill="#1F1F1F" transform="translate(8,17)"/>
</svg>
