<?xml version="1.0" encoding="UTF-8"?>
<svg version="1.1" xmlns="http://www.w3.org/2000/svg" width="28" height="28">
<path d="M0,0 L28,0 L28,28 L0,28 Z " fill="#030303" transform="translate(0,0)"/>
<path d="M0,0 L7,0 L10,3 L10,7 L14,8 L14,10 L9,12 L3,17 L1,18 L-5,18 L-6,15 L-4,11 L3,7 L7,7 L6,3 L-2,2 Z " fill="#E5E5E5" transform="translate(11,5)"/>
<path d="M0,0 L4,1 L3,5 L-3,9 L-7,9 L-8,5 Z " fill="#CBCBCB" transform="translate(14,12)"/>
<path d="M0,0 L4,0 L3,3 L-2,6 L-5,6 L-3,2 Z " fill="#141414" transform="translate(13,15)"/>
</svg>
