<?xml version="1.0" encoding="UTF-8"?>
<svg version="1.1" xmlns="http://www.w3.org/2000/svg" width="28" height="28">
<path d="M0,0 L28,0 L28,28 L0,28 Z " fill="#030303" transform="translate(0,0)"/>
<path d="M0,0 L5,1 L6,3 L6,9 L4,14 L5,16 L8,18 L3,17 L-1,17 L-5,20 L-10,20 L-12,18 L-11,13 L-8,13 L-9,17 L-2,15 L-1,13 L-7,12 L-7,11 L2,11 L4,4 L4,2 L-2,5 L-5,5 L-4,2 Z " fill="#D5D5D5" transform="translate(16,3)"/>
<path d="M0,0 L7,2 L6,5 L-1,7 L-2,3 Z " fill="#191919" transform="translate(8,14)"/>
</svg>
