<?xml version="1.0" encoding="UTF-8"?>
<svg version="1.1" xmlns="http://www.w3.org/2000/svg" width="28" height="28">
<path d="M0,0 L28,0 L28,28 L0,28 Z " fill="#020202" transform="translate(0,0)"/>
<path d="M0,0 L4,0 L3,8 L1,14 L3,14 L4,18 L2,19 L1,15 L-1,15 L-3,19 L-8,20 L-7,14 L-4,12 L-1,12 L1,3 L-4,8 L-6,8 L-4,3 Z " fill="#E5E5E5" transform="translate(16,4)"/>
<path d="M0,0 L3,1 L3,3 L5,4 L2,7 L-2,7 L-1,1 Z " fill="#C5C5C5" transform="translate(10,17)"/>
<path d="M0,0 L2,1 L0,5 L-4,7 L-2,2 Z " fill="#C7C7C7" transform="translate(14,5)"/>
</svg>
