<?xml version="1.0" encoding="UTF-8"?>
<svg version="1.1" xmlns="http://www.w3.org/2000/svg" width="28" height="28">
<path d="M0,0 L28,0 L28,28 L0,28 Z " fill="#040404" transform="translate(0,0)"/>
<path d="M0,0 L6,1 L8,2 L7,9 L2,15 L0,15 L0,17 L11,15 L15,14 L15,16 L9,19 L-2,19 L-4,15 L-1,11 L1,11 L3,7 L4,3 L-4,5 L-5,2 Z " fill="#EBEBEB" transform="translate(11,4)"/>
<path d="M0,0 L6,1 L5,6 L4,3 L-4,5 L-5,2 Z " fill="#C5C5C5" transform="translate(11,4)"/>
<path d="M0,0 L3,0 L3,2 L-3,5 L-6,4 L-6,2 Z " fill="#CBCBCB" transform="translate(23,18)"/>
</svg>
