<?xml version="1.0" encoding="UTF-8"?>
<svg version="1.1" xmlns="http://www.w3.org/2000/svg" width="28" height="28">
<path d="M0,0 L28,0 L28,28 L0,28 Z " fill="#030303" transform="translate(0,0)"/>
<path d="M0,0 L5,0 L8,5 L9,14 L11,16 L5,18 L1,20 L-4,19 L-5,15 L-2,10 L3,11 L6,12 L5,3 L-2,5 L-1,1 Z " fill="#E6E6E6" transform="translate(12,3)"/>
<path d="M0,0 L5,1 L8,3 L6,3 L4,7 L-2,9 L-3,5 Z " fill="#CECECE" transform="translate(10,13)"/>
<path d="M0,0 L5,1 L3,4 L-1,4 Z " fill="#111111" transform="translate(11,16)"/>
</svg>
