<?xml version="1.0" encoding="UTF-8"?>
<svg version="1.1" xmlns="http://www.w3.org/2000/svg" width="28" height="28">
<path d="M0,0 L28,0 L28,28 L0,28 Z " fill="#050505" transform="translate(0,0)"/>
<path d="M0,0 L7,0 L8,4 L5,12 L2,14 L5,17 L-3,17 L-3,19 L-10,19 L-12,17 L-12,12 L-9,9 L-3,9 L0,11 L1,9 L3,9 L5,3 L-5,5 L-3,1 Z " fill="#E9E9E9" transform="translate(16,4)"/>
<path d="M0,0 L6,0 L6,6 L2,7 L2,9 L6,10 L-1,10 L-3,8 L-3,3 Z " fill="#D5D5D5" transform="translate(7,13)"/>
<path d="M0,0 L4,2 L3,5 L-2,6 L-1,1 Z " fill="#161616" transform="translate(9,15)"/>
</svg>
