<?xml version="1.0" encoding="UTF-8"?>
<svg version="1.1" xmlns="http://www.w3.org/2000/svg" width="28" height="28">
<path d="M0,0 L28,0 L28,28 L0,28 Z " fill="#020202" transform="translate(0,0)"/>
<path d="M0,0 L3,1 L2,9 L-3,14 L-5,14 L-5,16 L2,16 L2,19 L1,20 L-8,20 L-9,15 L-2,8 L0,8 L1,4 L-5,8 L-5,4 Z " fill="#CACACA" transform="translate(17,3)"/>
<path d="M0,0 L1,2 L9,1 L9,4 L8,5 L-1,5 L-1,1 Z " fill="#F4F4F4" transform="translate(10,18)"/>
<path d="M0,0 L2,0 L2,3 L-5,8 L-5,4 Z " fill="#E9E9E9" transform="translate(17,3)"/>
</svg>
