<?xml version="1.0" encoding="UTF-8"?>
<svg version="1.1" xmlns="http://www.w3.org/2000/svg" width="28" height="28">
<path d="M0,0 L28,0 L28,28 L0,28 Z " fill="#030303" transform="translate(0,0)"/>
<path d="M0,0 L8,0 L10,2 L10,8 L4,16 L16,16 L16,18 L10,20 L1,19 L2,14 L7,7 L8,3 L2,3 L2,6 L-3,4 L-2,1 Z " fill="#E6E6E6" transform="translate(9,4)"/>
<path d="M0,0 L6,0 L6,2 L-3,4 L-6,1 Z " fill="#ADADAD" transform="translate(19,20)"/>
<path d="M0,0 L8,0 L8,1 L2,3 L2,6 L-3,4 L-2,1 Z " fill="#BDBDBD" transform="translate(9,4)"/>
</svg>
