<?xml version="1.0" encoding="UTF-8"?>
<svg version="1.1" xmlns="http://www.w3.org/2000/svg" width="28" height="28">
<path d="M0,0 L28,0 L28,28 L0,28 Z " fill="#020202" transform="translate(0,0)"/>
<path d="M0,0 L5,1 L9,5 L8,14 L7,16 L12,18 L12,20 L1,19 L0,18 L0,11 L5,12 L5,4 L2,2 L2,4 L0,4 Z " fill="#D2D2D2" transform="translate(10,3)"/>
<path d="M0,0 L4,1 L4,3 L2,3 L1,6 L4,6 L6,2 L7,5 L12,7 L12,9 L1,8 L0,7 Z " fill="#E2E2E2" transform="translate(10,14)"/>
<path d="M0,0 L1,0 L2,8 L-1,8 Z M-5,7 L-1,9 L-2,11 L-5,11 Z " fill="#999999" transform="translate(16,9)"/>
</svg>
