<?xml version="1.0" encoding="UTF-8"?>
<svg version="1.1" xmlns="http://www.w3.org/2000/svg" width="28" height="28">
<path d="M0,0 L28,0 L28,28 L0,28 Z " fill="#020202" transform="translate(0,0)"/>
<path d="M0,0 L7,1 L8,8 L3,16 L3,17 L15,16 L16,19 L9,20 L-3,20 L-3,17 L2,12 L5,7 L6,3 L-2,5 L-4,6 L-2,1 Z " fill="#D1D1D1" transform="translate(10,3)"/>
<path d="M0,0 L3,1 L3,3 L-10,2 L-10,1 Z " fill="#C5C5C5" transform="translate(23,19)"/>
<path d="M0,0 L3,1 L2,8 L0,9 Z " fill="#EDEDED" transform="translate(15,5)"/>
</svg>
