<?xml version="1.0" encoding="UTF-8"?>
<svg version="1.1" xmlns="http://www.w3.org/2000/svg" width="28" height="28">
<path d="M0,0 L28,0 L28,28 L0,28 Z " fill="#030303" transform="translate(0,0)"/>
<path d="M0,0 L6,0 L9,4 L10,10 L8,14 L15,15 L14,18 L5,17 L-1,18 L-5,14 L-4,9 L1,7 L5,10 L6,8 L5,3 L3,3 L3,5 L-3,6 L-4,2 Z " fill="#EBEBEB" transform="translate(11,5)"/>
<path d="M0,0 L2,0 L4,6 L2,8 L-2,5 L-6,4 L-2,2 L0,2 Z " fill="#252525" transform="translate(14,8)"/>
<path d="M0,0 L4,1 L5,5 L1,5 Z " fill="#1F1F1F" transform="translate(9,15)"/>
</svg>
