<?xml version="1.0" encoding="UTF-8"?>
<svg version="1.1" xmlns="http://www.w3.org/2000/svg" width="28" height="28">
<path d="M0,0 L28,0 L28,28 L0,28 Z " fill="#030303" transform="translate(0,0)"/>
<path d="M0,0 L4,1 L6,3 L7,12 L11,18 L8,18 L5,15 L1,19 L-3,18 L-4,12 L1,9 L4,8 L3,4 L0,3 L0,8 L-2,7 L-2,2 Z " fill="#E6E6E6" transform="translate(12,4)"/>
<path d="M0,0 L3,1 L7,0 L5,5 L5,7 L1,6 Z " fill="#808080" transform="translate(8,16)"/>
<path d="M0,0 L3,0 L3,2 L1,3 L0,8 L-2,7 L-2,2 Z " fill="#C3C3C3" transform="translate(12,4)"/>
</svg>
