<?xml version="1.0" encoding="UTF-8"?>
<svg version="1.1" xmlns="http://www.w3.org/2000/svg" width="28" height="28">
<path d="M0,0 L28,0 L28,28 L0,28 Z " fill="#020202" transform="translate(0,0)"/>
<path d="M0,0 L5,0 L6,1 L6,9 L5,14 L5,19 L2,20 L1,16 L-4,16 L-5,11 L-4,9 L3,10 L4,5 L-2,5 L-1,1 Z " fill="#DDDDDD" transform="translate(13,5)"/>
<path d="M0,0 L5,0 L6,1 L6,9 L4,11 L3,8 L4,5 L-2,5 L-1,1 Z " fill="#DADADA" transform="translate(13,5)"/>
<path d="M0,0 L7,1 L5,2 L5,5 L0,5 L-1,2 Z " fill="#999999" transform="translate(9,14)"/>
</svg>
