<?xml version="1.0" encoding="UTF-8"?>
<svg version="1.1" xmlns="http://www.w3.org/2000/svg" width="28" height="28">
<path d="M0,0 L28,0 L28,28 L0,28 Z " fill="#020202" transform="translate(0,0)"/>
<path d="M0,0 L5,2 L7,5 L7,11 L17,14 L17,15 L10,14 L7,13 L6,19 L2,20 L-1,15 L0,11 L4,10 L2,3 L0,2 Z " fill="#DBDBDB" transform="translate(9,3)"/>
<path d="M0,0 L4,0 L4,5 L1,5 Z " fill="#141414" transform="translate(10,15)"/>
<path d="M0,0 L5,2 L6,4 L5,10 L4,10 L2,3 L0,2 Z " fill="#C3C3C3" transform="translate(9,3)"/>
</svg>
