<?xml version="1.0" encoding="UTF-8"?>
<svg version="1.1" xmlns="http://www.w3.org/2000/svg" width="28" height="28">
<path d="M0,0 L28,0 L28,28 L0,28 Z " fill="#030303" transform="translate(0,0)"/>
<path d="M0,0 L9,1 L11,4 L11,12 L9,19 L-4,20 L-6,18 L-5,12 L1,9 L6,11 L8,12 L8,4 L1,4 L-3,5 L-3,2 Z " fill="#DADADA" transform="translate(11,4)"/>
<path d="M0,0 L9,1 L11,4 L11,12 L9,11 L8,5 L1,4 L-3,5 L-3,2 Z " fill="#E9E9E9" transform="translate(11,4)"/>
<path d="M0,0 L3,1 L2,5 L-4,5 L-3,1 Z " fill="#111111" transform="translate(12,16)"/>
</svg>
