<?xml version="1.0" encoding="UTF-8"?>
<svg version="1.1" xmlns="http://www.w3.org/2000/svg" width="28" height="28">
<path d="M0,0 L28,0 L28,28 L0,28 Z " fill="#030303" transform="translate(0,0)"/>
<path d="M0,0 L6,0 L11,5 L11,16 L6,17 L3,20 L-7,20 L-7,15 L0,10 L7,10 L6,3 L-1,3 L-1,5 L-6,7 L-5,3 Z " fill="#E4E4E4" transform="translate(12,4)"/>
<path d="M0,0 L1,2 L-1,2 L-1,5 L-9,10 L-14,11 L-14,6 L-7,1 Z " fill="#C9C9C9" transform="translate(19,13)"/>
<path d="M0,0 L5,0 L0,5 L-4,5 L-2,1 Z " fill="#0A0A0A" transform="translate(12,17)"/>
</svg>
