<?xml version="1.0" encoding="UTF-8"?>
<svg version="1.1" xmlns="http://www.w3.org/2000/svg" width="28" height="28">
<path d="M0,0 L28,0 L28,28 L0,28 Z " fill="#030303" transform="translate(0,0)"/>
<path d="M0,0 L5,0 L10,6 L10,12 L7,16 L6,20 L3,19 L-6,20 L-5,13 L-2,11 L3,12 L6,13 L6,6 L5,4 L1,4 L0,6 L-2,6 L-1,1 Z " fill="#F2F2F2" transform="translate(12,3)"/>
<path d="M0,0 L5,0 L10,6 L8,7 L8,12 L7,12 L5,4 L1,4 L0,6 L-2,6 L-1,1 Z " fill="#D8D8D8" transform="translate(12,3)"/>
<path d="M0,0 L5,1 L6,3 L5,6 L-1,6 L-2,1 Z " fill="#838383" transform="translate(10,14)"/>
<path d="M0,0 L2,0 L2,4 L8,5 L5,7 L-1,7 Z " fill="#D1D1D1" transform="translate(7,16)"/>
</svg>
