<?xml version="1.0" encoding="UTF-8"?>
<svg version="1.1" xmlns="http://www.w3.org/2000/svg" width="28" height="28">
<path d="M0,0 L28,0 L28,28 L0,28 Z " fill="#030303" transform="translate(0,0)"/>
<path d="M0,0 L7,0 L12,5 L13,8 L19,13 L16,14 L14,12 L10,13 L7,16 L2,15 L2,10 L6,7 L9,7 L5,3 L-1,2 Z " fill="#F0F0F0" transform="translate(6,6)"/>
<path d="M0,0 L6,0 L7,4 L4,7 L-1,6 L-1,1 Z " fill="#C5C5C5" transform="translate(9,15)"/>
<path d="M0,0 L7,0 L11,4 L8,5 L5,3 L-1,2 Z " fill="#CCCCCC" transform="translate(6,6)"/>
<path d="M0,0 L3,0 L3,3 L1,3 L1,5 L-2,5 L-1,1 Z " fill="#050505" transform="translate(12,15)"/>
</svg>
