<?xml version="1.0" encoding="UTF-8"?>
<svg version="1.1" xmlns="http://www.w3.org/2000/svg" width="28" height="28">
<path d="M0,0 L28,0 L28,28 L0,28 Z " fill="#030303" transform="translate(0,0)"/>
<path d="M0,0 L4,1 L5,3 L5,10 L2,20 L0,17 L-5,18 L-7,16 L-7,10 L-4,8 L0,9 L3,10 L2,3 L0,3 L-3,6 L-2,2 Z " fill="#E7E7E7" transform="translate(15,4)"/>
<path d="M0,0 L4,1 L4,5 L-1,6 L-1,1 Z " fill="#141414" transform="translate(11,14)"/>
<path d="M0,0 L4,1 L7,3 L4,4 L0,3 L-2,7 L-3,2 Z " fill="#B9B9B9" transform="translate(11,12)"/>
</svg>
