<?xml version="1.0" encoding="UTF-8"?>
<svg version="1.1" xmlns="http://www.w3.org/2000/svg" width="28" height="28">
<path d="M0,0 L28,0 L28,28 L0,28 Z " fill="#030303" transform="translate(0,0)"/>
<path d="M0,0 L5,0 L8,3 L8,12 L7,18 L13,18 L13,20 L-5,20 L-4,15 L-1,13 L4,13 L4,4 L-1,6 L-2,8 L-5,7 L-3,3 Z " fill="#EAEAEA" transform="translate(12,3)"/>
<path d="M0,0 L2,1 L2,4 L-2,8 L-5,7 L-3,3 Z " fill="#D0D0D0" transform="translate(12,3)"/>
<path d="M0,0 L4,2 L3,5 L-2,4 Z " fill="#B0B0B0" transform="translate(9,17)"/>
</svg>
