<?xml version="1.0" encoding="UTF-8"?>
<svg version="1.1" xmlns="http://www.w3.org/2000/svg" width="28" height="28">
<path d="M0,0 L28,0 L28,28 L0,28 Z " fill="#030303" transform="translate(0,0)"/>
<path d="M0,0 L7,1 L9,3 L9,11 L8,13 L15,11 L15,14 L10,16 L-2,16 L-4,12 L0,9 L6,10 L6,3 L1,2 L0,5 L-2,5 L-2,1 Z " fill="#EAEAEA" transform="translate(10,5)"/>
<path d="M0,0 L4,0 L4,5 L-4,5 L-2,1 Z " fill="#A9A9A9" transform="translate(10,14)"/>
<path d="M0,0 L3,1 L0,4 L-3,5 L-15,5 L-15,4 L-4,3 L-3,1 Z " fill="#C2C2C2" transform="translate(23,16)"/>
</svg>
