<?xml version="1.0" encoding="UTF-8"?>
<svg version="1.1" xmlns="http://www.w3.org/2000/svg" width="28" height="28">
<path d="M0,0 L28,0 L28,28 L0,28 Z " fill="#040404" transform="translate(0,0)"/>
<path d="M0,0 L5,1 L6,6 L1,13 L-1,13 L-1,15 L3,15 L3,18 L-6,18 L-9,20 L-14,19 L-13,11 L-8,9 L-2,11 L-1,9 L1,9 L2,4 L-5,7 L-3,1 Z " fill="#E7E7E7" transform="translate(18,4)"/>
<path d="M0,0 L5,1 L6,6 L3,9 L1,9 L2,4 L-5,7 L-3,1 Z " fill="#E8E8E8" transform="translate(18,4)"/>
<path d="M0,0 L3,0 L3,4 L-1,5 Z " fill="#0F0F0F" transform="translate(8,16)"/>
</svg>
