<?xml version="1.0" encoding="UTF-8"?>
<svg version="1.1" xmlns="http://www.w3.org/2000/svg" width="28" height="28">
<path d="M0,0 L28,0 L28,28 L0,28 Z " fill="#030303" transform="translate(0,0)"/>
<path d="M0,0 L4,1 L5,2 L5,8 L-2,15 L2,18 L-4,19 L-12,20 L-11,12 L-5,13 L2,7 L4,7 L4,3 L2,3 L2,6 L-3,7 L-2,2 Z " fill="#E6E6E6" transform="translate(17,4)"/>
<path d="M0,0 L1,2 L3,2 L4,7 L-1,8 Z " fill="#C8C8C8" transform="translate(6,16)"/>
<path d="M0,0 L2,0 L2,4 L-3,7 L-3,5 L-5,4 L0,3 Z " fill="#626262" transform="translate(19,7)"/>
</svg>
