<?xml version="1.0" encoding="UTF-8"?>
<svg version="1.1" xmlns="http://www.w3.org/2000/svg" width="28" height="28">
<path d="M0,0 L28,0 L28,28 L0,28 Z " fill="#050505" transform="translate(0,0)"/>
<path d="M0,0 L7,0 L9,2 L9,11 L8,15 L16,15 L16,17 L-3,18 L-4,13 L5,10 L6,3 L-1,5 L-3,6 L-2,1 Z " fill="#EEEEEE" transform="translate(10,4)"/>
<path d="M0,0 L1,2 L-1,2 L0,8 L-8,8 L-9,3 Z " fill="#E0E0E0" transform="translate(15,14)"/>
<path d="M0,0 L3,0 L3,3 L5,4 L-3,4 L-1,3 Z " fill="#767676" transform="translate(10,18)"/>
</svg>
