<?xml version="1.0" encoding="UTF-8"?>
<svg version="1.1" xmlns="http://www.w3.org/2000/svg" width="28" height="28">
<path d="M0,0 L28,0 L28,28 L0,28 Z " fill="#030303" transform="translate(0,0)"/>
<path d="M0,0 L2,0 L0,12 L-2,15 L-1,19 L-16,20 L-17,14 L-14,11 L-9,12 L-5,13 L-2,7 L-8,8 L-7,3 Z " fill="#EAEAEA" transform="translate(21,3)"/>
<path d="M0,0 L2,0 L0,12 L-2,14 L-4,13 L-2,7 L-8,8 L-7,3 Z " fill="#EAEAEA" transform="translate(21,3)"/>
<path d="M0,0 L3,1 L1,5 L3,7 L-3,7 L-4,1 Z " fill="#8B8B8B" transform="translate(8,16)"/>
</svg>
