<?xml version="1.0" encoding="UTF-8"?>
<svg version="1.1" xmlns="http://www.w3.org/2000/svg" width="28" height="28">
<path d="M0,0 L28,0 L28,28 L0,28 Z " fill="#020202" transform="translate(0,0)"/>
<path d="M0,0 L5,1 L6,2 L6,9 L3,16 L1,16 L-1,20 L-5,19 L-4,15 L-4,18 L-1,17 L1,13 L-4,14 L-3,11 L3,12 L4,2 L-1,3 Z " fill="#C3C3C3" transform="translate(13,5)"/>
<path d="M0,0 L4,0 L2,5 L-1,5 L-2,1 Z " fill="#1C1C1C" transform="translate(10,18)"/>
<path d="M0,0 L5,1 L6,2 L6,9 L5,9 L4,2 L-1,3 Z " fill="#E1E1E1" transform="translate(13,5)"/>
</svg>
