<?xml version="1.0" encoding="UTF-8"?>
<svg version="1.1" xmlns="http://www.w3.org/2000/svg" width="28" height="28">
<path d="M0,0 L28,0 L28,28 L0,28 Z " fill="#030303" transform="translate(0,0)"/>
<path d="M0,0 L6,0 L9,4 L8,14 L7,17 L15,18 L15,20 L-3,20 L-3,16 L-1,14 L4,13 L5,11 L5,4 L1,3 L-1,8 L-3,8 L-3,2 Z " fill="#E2E2E2" transform="translate(11,3)"/>
<path d="M0,0 L6,0 L9,4 L9,10 L6,12 L5,4 L1,3 L-1,8 L-3,8 L-3,2 Z " fill="#E7E7E7" transform="translate(11,3)"/>
<path d="M0,0 L1,2 L-2,2 L-3,6 L-7,7 L-7,3 L-5,1 Z " fill="#AAAAAA" transform="translate(15,16)"/>
</svg>
