<?xml version="1.0" encoding="UTF-8"?>
<svg version="1.1" xmlns="http://www.w3.org/2000/svg" width="28" height="28">
<path d="M0,0 L28,0 L28,28 L0,28 Z " fill="#030303" transform="translate(0,0)"/>
<path d="M0,0 L6,1 L10,5 L10,14 L6,15 L1,19 L-6,20 L-6,15 L-1,11 L1,10 L7,10 L7,4 L1,3 L1,5 L-2,4 L-2,1 Z " fill="#E4E4E4" transform="translate(12,4)"/>
<path d="M0,0 L6,1 L10,5 L8,6 L7,9 L7,4 L1,3 L1,5 L-2,4 L-2,1 Z " fill="#D2D2D2" transform="translate(12,4)"/>
<path d="M0,0 L4,1 L-1,5 L-5,6 L-3,2 Z " fill="#121212" transform="translate(13,16)"/>
</svg>
