<?xml version="1.0" encoding="UTF-8"?>
<svg version="1.1" xmlns="http://www.w3.org/2000/svg" width="28" height="28">
<path d="M0,0 L28,0 L28,28 L0,28 Z " fill="#0E0E0E" transform="translate(0,0)"/>
<path d="M0,0 L6,1 L8,2 L11,7 L13,8 L13,11 L9,9 L7,6 L1,8 L-6,7 L-4,3 Z " fill="#B4B4B4" transform="translate(10,13)"/>
<path d="M0,0 L4,1 L7,6 L9,7 L9,10 L5,8 L3,5 L-1,4 L1,2 Z " fill="#D8D8D8" transform="translate(14,14)"/>
<path d="M0,0 L6,0 L7,2 L2,4 L-3,4 Z " fill="#0E0E0E" transform="translate(9,15)"/>
</svg>
