<?xml version="1.0" encoding="UTF-8"?>
<svg version="1.1" xmlns="http://www.w3.org/2000/svg" width="28" height="28">
<path d="M0,0 L28,0 L28,28 L0,28 Z " fill="#030303" transform="translate(0,0)"/>
<path d="M0,0 L6,1 L7,3 L7,11 L10,11 L10,13 L5,14 L2,19 L-3,20 L-7,16 L-6,11 L-5,10 L4,9 L4,4 L0,6 L-3,7 L-1,2 Z " fill="#E5E5E5" transform="translate(13,4)"/>
<path d="M0,0 L6,1 L7,4 L5,8 L4,4 L0,6 L-3,7 L-1,2 Z " fill="#DEDEDE" transform="translate(13,4)"/>
<path d="M0,0 L7,0 L5,4 L0,3 Z " fill="#0B0B0B" transform="translate(9,17)"/>
<path d="M0,0 L8,2 L8,3 L1,3 L0,5 L-2,6 L-1,1 Z " fill="#B0B0B0" transform="translate(8,14)"/>
</svg>
