<?xml version="1.0" encoding="UTF-8"?>
<svg version="1.1" xmlns="http://www.w3.org/2000/svg" width="28" height="28">
<path d="M0,0 L28,0 L28,28 L0,28 Z " fill="#040404" transform="translate(0,0)"/>
<path d="M0,0 L9,1 L10,12 L12,14 L7,14 L5,18 L3,20 L-3,20 L-7,16 L-6,12 L-4,11 L7,11 L7,3 L3,5 L-1,10 L-3,10 L-2,5 Z " fill="#F1F1F1" transform="translate(12,4)"/>
<path d="M0,0 L3,0 L3,8 L-8,8 L-7,6 L-3,4 Z " fill="#1B1B1B" transform="translate(16,7)"/>
<path d="M0,0 L5,1 L6,3 L1,8 L-3,10 L-2,5 Z " fill="#EBEBEB" transform="translate(12,4)"/>
<path d="M0,0 L9,0 L9,3 L6,5 L1,4 Z " fill="#1F1F1F" transform="translate(8,17)"/>
<path d="M0,0 L5,4 L12,3 L13,0 L14,3 L10,7 L4,7 L0,3 Z " fill="#D4D4D4" transform="translate(5,17)"/>
</svg>
