<?xml version="1.0" encoding="UTF-8"?>
<svg version="1.1" xmlns="http://www.w3.org/2000/svg" width="28" height="28">
<path d="M0,0 L28,0 L28,28 L0,28 Z " fill="#010101" transform="translate(0,0)"/>
<path d="M0,0 L7,2 L8,4 L8,12 L1,20 L-4,19 L-7,16 L-7,11 L5,10 L6,5 L2,8 L-1,8 Z " fill="#888888" transform="translate(13,4)"/>
<path d="M0,0 L7,2 L8,4 L8,12 L4,16 L2,11 L5,10 L6,5 L2,8 L-1,8 Z " fill="#DADADA" transform="translate(13,4)"/>
<path d="M0,0 L7,0 L7,3 L2,2 L3,4 L7,5 L7,8 L2,7 L0,5 Z " fill="#F3F3F3" transform="translate(7,16)"/>
</svg>
