<?xml version="1.0" encoding="UTF-8"?>
<svg version="1.1" xmlns="http://www.w3.org/2000/svg" width="28" height="28">
<path d="M0,0 L28,0 L28,28 L0,28 Z " fill="#030303" transform="translate(0,0)"/>
<path d="M0,0 L1,3 L5,2 L6,6 L5,12 L14,12 L13,15 L3,16 L-1,20 L-5,18 L-6,17 L-6,12 L2,12 L4,5 L1,5 L1,7 L-4,8 L-3,4 Z " fill="#DADADA" transform="translate(13,4)"/>
<path d="M0,0 L2,3 L11,4 L11,5 L1,6 L-2,7 L-5,7 L-5,5 L-3,5 L-2,2 L0,2 Z " fill="#C1C1C1" transform="translate(15,14)"/>
<path d="M0,0 L4,5 L1,5 L1,7 L-4,8 L-3,4 Z " fill="#EFEFEF" transform="translate(13,4)"/>
</svg>
