<?xml version="1.0" encoding="UTF-8"?>
<svg version="1.1" xmlns="http://www.w3.org/2000/svg" width="28" height="28">
<path d="M0,0 L28,0 L28,28 L0,28 Z " fill="#040404" transform="translate(0,0)"/>
<path d="M0,0 L4,2 L5,3 L4,13 L7,14 L6,18 L4,15 L-1,16 L-7,20 L-13,18 L-12,12 L-10,11 L1,11 L3,4 L-7,8 L-11,8 L-11,5 Z " fill="#D3D3D3" transform="translate(18,4)"/>
<path d="M0,0 L4,2 L4,4 L-7,8 L-11,8 L-11,5 Z " fill="#E8E8E8" transform="translate(18,4)"/>
<path d="M0,0 L1,0 L0,10 L3,11 L2,15 L-2,10 L-1,1 Z " fill="#ACACAC" transform="translate(22,7)"/>
</svg>
