<?xml version="1.0" encoding="UTF-8"?>
<svg version="1.1" xmlns="http://www.w3.org/2000/svg" width="28" height="28">
<path d="M0,0 L28,0 L28,28 L0,28 Z " fill="#040404" transform="translate(0,0)"/>
<path d="M0,0 L4,2 L5,4 L1,13 L0,18 L-6,20 L-11,20 L-10,15 L-3,14 L0,8 L-5,8 L-4,3 Z " fill="#E5E5E5" transform="translate(17,4)"/>
<path d="M0,0 L4,2 L2,3 L2,5 L-3,6 L-2,1 Z " fill="#9A9A9A" transform="translate(17,4)"/>
<path d="M0,0 L3,1 L4,5 L-1,5 Z " fill="#C7C7C7" transform="translate(7,19)"/>
</svg>
