<?xml version="1.0" encoding="UTF-8"?>
<svg version="1.1" xmlns="http://www.w3.org/2000/svg" width="28" height="28">
<path d="M0,0 L28,0 L28,28 L0,28 Z " fill="#030303" transform="translate(0,0)"/>
<path d="M0,0 L5,1 L5,7 L2,11 L3,15 L7,18 L7,20 L2,18 L2,16 L-4,16 L-5,17 L-12,17 L-13,13 L-9,11 L-3,11 L-1,12 L1,8 L3,2 L-3,4 Z " fill="#F1F1F1" transform="translate(16,3)"/>
<path d="M0,0 L6,0 L3,5 L-3,6 L-4,2 Z " fill="#929292" transform="translate(7,14)"/>
<path d="M0,0 L5,1 L5,7 L3,3 L-3,4 Z " fill="#BBBBBB" transform="translate(16,3)"/>
<path d="M0,0 L7,6 L7,8 L2,6 L2,4 L-2,2 L0,2 Z " fill="#C9C9C9" transform="translate(16,15)"/>
</svg>
