<?xml version="1.0" encoding="UTF-8"?>
<svg version="1.1" xmlns="http://www.w3.org/2000/svg" width="28" height="28">
<path d="M0,0 L28,0 L28,28 L0,28 Z " fill="#040404" transform="translate(0,0)"/>
<path d="M0,0 L10,0 L12,4 L11,13 L8,19 L1,20 L-5,18 L-5,14 L-4,13 L4,13 L7,14 L9,10 L9,3 L1,3 L-2,4 Z " fill="#E2E2E2" transform="translate(11,3)"/>
<path d="M0,0 L9,3 L9,5 L12,6 L5,7 L-1,5 L-1,1 Z " fill="#D0D0D0" transform="translate(7,16)"/>
<path d="M0,0 L10,0 L8,2 L-2,4 Z " fill="#C9C9C9" transform="translate(11,3)"/>
<path d="M0,0 L5,2 L4,4 L-3,3 Z " fill="#181818" transform="translate(10,17)"/>
</svg>
