<?xml version="1.0" encoding="UTF-8"?>
<svg version="1.1" xmlns="http://www.w3.org/2000/svg" width="28" height="28">
<path d="M0,0 L28,0 L28,28 L0,28 Z " fill="#020202" transform="translate(0,0)"/>
<path d="M0,0 L6,0 L5,5 L2,8 L4,9 L4,11 L-8,13 L-14,14 L-13,10 L-6,2 Z " fill="#E6E6E6" transform="translate(18,8)"/>
<path d="M0,0 L3,0 L2,5 L-1,8 L1,9 L0,11 L-4,10 L-4,8 L-7,8 L-7,6 L-9,5 L-1,1 Z " fill="#C8C8C8" transform="translate(21,8)"/>
<path d="M0,0 L6,0 L5,3 L2,3 L1,6 L-2,6 L-1,2 Z " fill="#979797" transform="translate(6,16)"/>
<path d="M0,0 L3,1 L-2,6 L-5,6 L-5,4 L-7,3 Z " fill="#2D2D2D" transform="translate(19,10)"/>
</svg>
