<?xml version="1.0" encoding="UTF-8"?>
<svg version="1.1" xmlns="http://www.w3.org/2000/svg" width="28" height="28">
<path d="M0,0 L28,0 L28,28 L0,28 Z " fill="#030303" transform="translate(0,0)"/>
<path d="M0,0 L5,1 L7,3 L7,11 L4,16 L3,17 L5,19 L4,20 L-7,20 L-8,16 L1,16 L3,12 L4,7 L-5,10 L-6,5 Z " fill="#E6E6E6" transform="translate(14,4)"/>
<path d="M0,0 L2,0 L1,8 L-2,11 L0,13 L-1,14 L-12,14 L-13,10 L-4,10 L-2,6 Z " fill="#E6E6E6" transform="translate(19,10)"/>
<path d="M0,0 L2,2 L-4,4 L-5,8 L-8,7 L-7,3 Z " fill="#868686" transform="translate(16,6)"/>
</svg>
