<?xml version="1.0" encoding="UTF-8"?>
<svg version="1.1" xmlns="http://www.w3.org/2000/svg" width="28" height="28">
<path d="M0,0 L28,0 L28,28 L0,28 Z " fill="#030303" transform="translate(0,0)"/>
<path d="M0,0 L5,1 L6,2 L6,9 L3,15 L1,15 L0,18 L-4,20 L-9,19 L-10,12 L-8,10 L-3,10 L1,11 L3,7 L3,3 L-2,4 L-3,7 L-6,7 L-4,2 Z " fill="#D7D7D7" transform="translate(16,4)"/>
<path d="M0,0 L5,0 L8,2 L8,5 L3,8 L-2,7 L-2,2 Z " fill="#D0D0D0" transform="translate(8,14)"/>
<path d="M0,0 L6,2 L2,6 L0,6 L-1,1 Z " fill="#111111" transform="translate(9,16)"/>
</svg>
