<?xml version="1.0" encoding="UTF-8"?>
<svg version="1.1" xmlns="http://www.w3.org/2000/svg" width="28" height="28">
<path d="M0,0 L28,0 L28,28 L0,28 Z " fill="#040404" transform="translate(0,0)"/>
<path d="M0,0 L5,0 L6,1 L6,6 L2,12 L5,13 L5,15 L-6,17 L-14,17 L-14,12 L-12,10 L0,10 L2,7 L3,2 L-6,6 L-7,3 Z " fill="#DEDEDE" transform="translate(17,5)"/>
<path d="M0,0 L4,1 L1,4 L-4,4 L-3,1 Z " fill="#1A1A1A" transform="translate(9,16)"/>
<path d="M0,0 L4,2 L1,3 L0,5 L3,6 L-2,7 L-2,2 Z " fill="#C8C8C8" transform="translate(5,15)"/>
</svg>
