<?xml version="1.0" encoding="UTF-8"?>
<svg version="1.1" xmlns="http://www.w3.org/2000/svg" width="28" height="28">
<path d="M0,0 L28,0 L28,28 L0,28 Z " fill="#030303" transform="translate(0,0)"/>
<path d="M0,0 L4,1 L3,7 L0,12 L4,14 L5,17 L1,18 L-3,14 L-10,20 L-14,20 L-15,13 L-11,10 L-2,9 L-1,6 L-4,5 L-3,2 Z " fill="#E4E4E4" transform="translate(19,3)"/>
<path d="M0,0 L6,1 L4,8 L1,10 L-3,10 L-4,3 Z " fill="#CDCDCD" transform="translate(8,13)"/>
<path d="M0,0 L5,0 L0,5 L-3,5 L-2,1 Z " fill="#171717" transform="translate(9,15)"/>
<path d="M0,0 L3,1 L1,5 L0,4 L-2,6 L-4,5 L-3,2 Z " fill="#CBCBCB" transform="translate(19,3)"/>
</svg>
