<?xml version="1.0" encoding="UTF-8"?>
<svg version="1.1" xmlns="http://www.w3.org/2000/svg" width="28" height="28">
<path d="M0,0 L28,0 L28,28 L0,28 Z " fill="#030303" transform="translate(0,0)"/>
<path d="M0,0 L5,0 L6,1 L5,8 L1,12 L1,16 L5,16 L5,14 L7,14 L5,18 L1,19 L-2,17 L-6,18 L-8,20 L-11,20 L-9,16 L1,8 L3,3 L-2,5 L-6,8 L-8,8 L-8,4 Z " fill="#E3E3E3" transform="translate(16,5)"/>
<path d="M0,0 L1,2 L3,2 L3,4 L7,4 L7,2 L9,2 L7,6 L3,7 L-2,2 Z " fill="#D3D3D3" transform="translate(14,17)"/>
</svg>
