<?xml version="1.0" encoding="UTF-8"?>
<svg version="1.1" xmlns="http://www.w3.org/2000/svg" width="28" height="28">
<path d="M0,0 L28,0 L28,28 L0,28 Z " fill="#030303" transform="translate(0,0)"/>
<path d="M0,0 L7,0 L12,5 L11,13 L18,16 L18,18 L12,18 L4,14 L4,11 L8,10 L8,4 L3,3 L-2,5 L-1,1 Z " fill="#BFBFBF" transform="translate(6,6)"/>
<path d="M0,0 L7,0 L11,3 L10,7 L7,3 L0,4 L-2,5 L-1,1 Z " fill="#ECECEC" transform="translate(6,6)"/>
<path d="M0,0 L8,2 L8,4 L2,4 Z " fill="#E6E6E6" transform="translate(16,20)"/>
</svg>
