<?xml version="1.0" encoding="UTF-8"?>
<svg version="1.1" xmlns="http://www.w3.org/2000/svg" width="28" height="28">
<path d="M0,0 L28,0 L28,28 L0,28 Z " fill="#030303" transform="translate(0,0)"/>
<path d="M0,0 L5,0 L7,2 L7,8 L5,13 L9,15 L1,15 L0,18 L-3,20 L-8,20 L-10,18 L-9,14 L-6,12 L2,12 L4,7 L4,3 L-1,4 L-2,7 L-4,7 L-3,2 Z " fill="#E0E0E0" transform="translate(14,4)"/>
<path d="M0,0 L8,0 L3,5 L-2,8 L-4,6 L-3,2 Z " fill="#C3C3C3" transform="translate(8,16)"/>
<path d="M0,0 L4,1 L1,4 L-3,3 Z " fill="#1D1D1D" transform="translate(9,18)"/>
</svg>
