<?xml version="1.0" encoding="UTF-8"?>
<svg version="1.1" xmlns="http://www.w3.org/2000/svg" width="28" height="28">
<path d="M0,0 L28,0 L28,28 L0,28 Z " fill="#030303" transform="translate(0,0)"/>
<path d="M0,0 L4,0 L7,4 L7,14 L10,15 L10,17 L6,16 L2,20 L-2,19 L-3,14 L-1,12 L6,12 L5,4 L1,3 L1,6 L-1,6 Z " fill="#ECECEC" transform="translate(11,3)"/>
<path d="M0,0 L6,2 L5,6 L3,8 L-1,7 L-2,2 Z " fill="#9F9F9F" transform="translate(10,15)"/>
<path d="M0,0 L4,0 L7,4 L7,7 L5,7 L5,4 L1,3 L1,6 L-1,6 Z " fill="#D3D3D3" transform="translate(11,3)"/>
</svg>
