<?xml version="1.0" encoding="UTF-8"?>
<svg version="1.1" xmlns="http://www.w3.org/2000/svg" width="28" height="28">
<path d="M0,0 L28,0 L28,28 L0,28 Z " fill="#030303" transform="translate(0,0)"/>
<path d="M0,0 L7,0 L10,3 L11,13 L13,17 L14,20 L10,19 L10,17 L5,20 L-2,19 L-1,13 L1,11 L6,11 L9,13 L7,4 L1,5 L0,7 L-2,7 L-1,1 Z " fill="#DDDDDD" transform="translate(9,3)"/>
<path d="M0,0 L5,0 L1,2 L5,5 L3,7 L0,7 L-1,9 L-3,8 L-2,2 Z " fill="#828282" transform="translate(10,14)"/>
<path d="M0,0 L7,2 L3,4 L0,7 L-2,7 L-1,1 Z " fill="#DEDEDE" transform="translate(9,3)"/>
</svg>
