<?xml version="1.0" encoding="UTF-8"?>
<svg version="1.1" xmlns="http://www.w3.org/2000/svg" width="28" height="28">
<path d="M0,0 L28,0 L28,28 L0,28 Z " fill="#030303" transform="translate(0,0)"/>
<path d="M0,0 L3,0 L3,3 L7,5 L8,12 L9,17 L10,19 L3,18 L-2,20 L-7,20 L-8,19 L-8,14 L-5,12 L5,13 L5,8 L4,5 L0,8 L-2,8 L-1,3 Z " fill="#DFDFDF" transform="translate(13,3)"/>
<path d="M0,0 L8,1 L8,6 L3,8 L-2,8 L-3,7 L-3,2 Z " fill="#E4E4E4" transform="translate(8,15)"/>
<path d="M0,0 L6,1 L3,4 L-2,4 L-2,1 Z " fill="#131313" transform="translate(9,17)"/>
<path d="M0,0 L1,2 L9,0 L10,2 L5,4 L0,4 L-1,2 Z " fill="#C1C1C1" transform="translate(6,19)"/>
</svg>
