<?xml version="1.0" encoding="UTF-8"?>
<svg version="1.1" xmlns="http://www.w3.org/2000/svg" width="28" height="28">
<path d="M0,0 L28,0 L28,28 L0,28 Z " fill="#030303" transform="translate(0,0)"/>
<path d="M0,0 L4,2 L6,6 L7,14 L12,20 L8,19 L5,18 L2,20 L-4,19 L-3,14 L-2,13 L5,13 L3,4 L-2,6 Z " fill="#EAEAEA" transform="translate(12,2)"/>
<path d="M0,0 L4,2 L6,6 L5,10 L3,6 L3,4 L-2,6 Z " fill="#E2E2E2" transform="translate(12,2)"/>
<path d="M0,0 L7,0 L4,5 L-2,6 L-1,1 Z " fill="#7D7D7D" transform="translate(10,15)"/>
</svg>
