<?xml version="1.0" encoding="UTF-8"?>
<svg version="1.1" xmlns="http://www.w3.org/2000/svg" width="28" height="28">
<path d="M0,0 L28,0 L28,28 L0,28 Z " fill="#040404" transform="translate(0,0)"/>
<path d="M0,0 L12,1 L12,9 L9,14 L8,19 L-4,20 L-3,14 L7,13 L9,6 L7,7 L-2,7 L-3,4 Z " fill="#EBEBEB" transform="translate(10,5)"/>
<path d="M0,0 L4,1 L6,4 L5,5 L-3,6 L-1,1 Z " fill="#AEAEAE" transform="translate(10,5)"/>
<path d="M0,0 L2,1 L1,7 L-2,9 L-2,5 Z " fill="#D2D2D2" transform="translate(20,10)"/>
</svg>
