<?xml version="1.0" encoding="UTF-8"?>
<svg version="1.1" xmlns="http://www.w3.org/2000/svg" width="28" height="28">
<path d="M0,0 L28,0 L28,28 L0,28 Z " fill="#020202" transform="translate(0,0)"/>
<path d="M0,0 L5,1 L6,5 L2,11 L-2,15 L2,16 L2,14 L5,14 L4,19 L-8,20 L-8,17 L-3,12 L-1,12 L1,8 L3,3 L-4,5 L-2,1 Z " fill="#D9D9D9" transform="translate(15,3)"/>
<path d="M0,0 L3,1 L5,3 L-1,6 L-3,6 L-3,3 Z " fill="#F1F1F1" transform="translate(10,17)"/>
<path d="M0,0 L4,1 L3,3 L-4,5 L-2,1 Z " fill="#C3C3C3" transform="translate(15,3)"/>
</svg>
