<?xml version="1.0" encoding="UTF-8"?>
<svg version="1.1" xmlns="http://www.w3.org/2000/svg" width="28" height="28">
<path d="M0,0 L28,0 L28,28 L0,28 Z " fill="#030303" transform="translate(0,0)"/>
<path d="M0,0 L6,0 L8,2 L8,9 L6,12 L14,13 L13,15 L4,14 L-1,18 L-6,18 L-5,14 L0,11 L4,10 L5,3 L0,3 L-1,6 L-3,6 L-2,1 Z " fill="#D0D0D0" transform="translate(12,4)"/>
<path d="M0,0 L4,1 L4,3 L2,4 L2,6 L-3,6 L-2,2 Z " fill="#B9B9B9" transform="translate(9,16)"/>
<path d="M0,0 L5,1 L5,2 L0,3 L-1,6 L-3,6 L-2,1 Z " fill="#B9B9B9" transform="translate(12,4)"/>
<path d="M0,0 L4,1 L2,5 L-1,6 L-2,4 L1,4 L1,2 L-1,1 Z " fill="#EDEDED" transform="translate(12,15)"/>
</svg>
