<?xml version="1.0" encoding="UTF-8"?>
<svg version="1.1" xmlns="http://www.w3.org/2000/svg" width="28" height="28">
<path d="M0,0 L28,0 L28,28 L0,28 Z " fill="#010101" transform="translate(0,0)"/>
<path d="M0,0 L7,0 L12,6 L13,8 L17,9 L17,11 L9,11 L7,12 L-1,12 L-3,10 L-2,6 Z " fill="#161616" transform="translate(9,8)"/>
<path d="M0,0 L7,0 L12,6 L13,8 L17,9 L17,11 L8,10 L8,8 L10,8 L7,3 L-1,3 Z " fill="#D8D8D8" transform="translate(9,8)"/>
<path d="M0,0 L9,1 L9,2 L1,2 L1,4 L8,5 L8,6 L1,6 L-1,4 Z " fill="#DEDEDE" transform="translate(7,14)"/>
<path d="M0,0 L1,2 L-1,2 L0,5 L-3,6 L-10,4 L-10,2 Z " fill="#6E6E6E" transform="translate(18,14)"/>
</svg>
