<?xml version="1.0" encoding="UTF-8"?>
<svg version="1.1" xmlns="http://www.w3.org/2000/svg" width="28" height="28">
<path d="M0,0 L28,0 L28,28 L0,28 Z " fill="#020202" transform="translate(0,0)"/>
<path d="M0,0 L6,0 L9,3 L8,9 L6,11 L7,16 L10,19 L6,19 L5,15 L-1,17 L-7,17 L-8,12 L-4,10 L4,10 L7,3 L0,4 L-3,5 L-3,2 Z " fill="#D8D8D8" transform="translate(13,5)"/>
<path d="M0,0 L5,1 L5,3 L8,5 L3,7 L-3,7 L-4,2 Z " fill="#D8D8D8" transform="translate(9,15)"/>
<path d="M0,0 L5,0 L9,3 L5,4 L-1,3 Z " fill="#717171" transform="translate(8,17)"/>
</svg>
