<?xml version="1.0" encoding="UTF-8"?>
<svg version="1.1" xmlns="http://www.w3.org/2000/svg" width="28" height="28">
<path d="M0,0 L28,0 L28,28 L0,28 Z " fill="#020202" transform="translate(0,0)"/>
<path d="M0,0 L6,0 L9,3 L8,10 L7,15 L8,17 L1,16 L-3,18 L-10,18 L-11,13 L-8,10 L-6,11 L-9,16 L-2,13 L-4,12 L-4,10 L5,10 L6,4 L0,2 Z " fill="#C3C3C3" transform="translate(14,4)"/>
<path d="M0,0 L4,1 L2,1 L2,3 L6,5 L-3,7 L-2,3 Z " fill="#232323" transform="translate(8,13)"/>
<path d="M0,0 L6,0 L9,3 L9,8 L7,9 L5,3 L0,2 Z " fill="#DCDCDC" transform="translate(14,4)"/>
</svg>
