<?xml version="1.0" encoding="UTF-8"?>
<svg version="1.1" xmlns="http://www.w3.org/2000/svg" width="28" height="28">
<path d="M0,0 L28,0 L28,28 L0,28 Z " fill="#030303" transform="translate(0,0)"/>
<path d="M0,0 L8,1 L13,5 L13,11 L16,13 L16,16 L12,14 L5,13 L5,11 L-1,11 L-2,13 L4,13 L2,15 L-3,14 L-4,10 L-1,8 L11,8 L6,3 L0,2 L0,4 L-3,4 L-2,1 Z " fill="#CDCDCD" transform="translate(9,6)"/>
<path d="M0,0 L9,1 L9,2 L0,3 L-1,5 L5,5 L3,7 L-2,6 L-3,2 Z " fill="#DFDFDF" transform="translate(8,14)"/>
<path d="M0,0 L6,0 L9,4 L-1,3 Z " fill="#272727" transform="translate(8,16)"/>
<path d="M0,0 L5,0 L5,2 L0,2 L0,4 L-3,4 L-2,1 Z " fill="#C8C8C8" transform="translate(9,6)"/>
</svg>
