<?xml version="1.0" encoding="UTF-8"?>
<svg version="1.1" xmlns="http://www.w3.org/2000/svg" width="28" height="28">
<path d="M0,0 L28,0 L28,28 L0,28 Z " fill="#040404" transform="translate(0,0)"/>
<path d="M0,0 L8,1 L12,6 L12,16 L14,17 L7,20 L0,19 L-3,16 L-2,12 L3,11 L10,14 L9,7 L5,3 L-2,4 Z " fill="#CCCCCC" transform="translate(9,4)"/>
<path d="M0,0 L8,1 L12,6 L12,16 L14,17 L9,18 L7,14 L10,14 L9,7 L5,3 L-2,4 Z " fill="#E1E1E1" transform="translate(9,4)"/>
<path d="M0,0 L4,1 L7,2 L7,5 L1,5 Z " fill="#0F0F0F" transform="translate(9,17)"/>
</svg>
