<?xml version="1.0" encoding="UTF-8"?>
<svg version="1.1" xmlns="http://www.w3.org/2000/svg" width="28" height="28">
<path d="M0,0 L28,0 L28,28 L0,28 Z " fill="#050505" transform="translate(0,0)"/>
<path d="M0,0 L11,0 L15,4 L15,10 L12,15 L14,16 L14,18 L6,18 L7,15 L-1,15 L-3,18 L-5,18 L-4,13 L-3,12 L4,12 L10,14 L11,11 L11,4 L10,3 L2,2 L2,4 L-2,4 L-2,1 Z " fill="#DFDFDF" transform="translate(8,5)"/>
<path d="M0,0 L9,0 L9,1 L3,2 L2,4 L-2,4 L-2,1 Z " fill="#EEEEEE" transform="translate(8,5)"/>
<path d="M0,0 L7,0 L7,1 L2,2 L0,6 L-2,6 L-1,1 Z " fill="#C2C2C2" transform="translate(5,17)"/>
</svg>
