<?xml version="1.0" encoding="UTF-8"?>
<svg version="1.1" xmlns="http://www.w3.org/2000/svg" width="28" height="28">
<path d="M0,0 L28,0 L28,28 L0,28 Z " fill="#030303" transform="translate(0,0)"/>
<path d="M0,0 L9,0 L14,4 L15,9 L13,14 L17,16 L17,18 L10,17 L8,18 L0,18 L-1,13 L4,11 L11,13 L11,3 L-1,3 L-3,4 L-2,1 Z " fill="#E0E0E0" transform="translate(7,4)"/>
<path d="M0,0 L9,0 L14,4 L15,9 L12,9 L11,3 L-1,3 L-3,4 L-2,1 Z " fill="#D4D4D4" transform="translate(7,4)"/>
<path d="M0,0 L6,1 L6,5 L-1,5 L-2,1 Z " fill="#747474" transform="translate(9,15)"/>
</svg>
