<?xml version="1.0" encoding="UTF-8"?>
<svg version="1.1" xmlns="http://www.w3.org/2000/svg" width="28" height="28">
<path d="M0,0 L28,0 L28,28 L0,28 Z " fill="#020202" transform="translate(0,0)"/>
<path d="M0,0 L8,0 L9,1 L8,9 L5,13 L14,13 L13,15 L10,16 L2,16 L2,12 L5,7 L6,2 L-3,5 L-6,4 Z " fill="#D0D0D0" transform="translate(10,7)"/>
<path d="M0,0 L1,0 L1,5 L-1,8 L-3,8 L-2,3 Z " fill="#E4E4E4" transform="translate(17,11)"/>
<path d="M0,0 L3,1 L3,6 L0,5 L0,2 L-4,1 Z " fill="#B7B7B7" transform="translate(16,7)"/>
</svg>
