<?xml version="1.0" encoding="UTF-8"?>
<svg version="1.1" xmlns="http://www.w3.org/2000/svg" width="28" height="28">
<path d="M0,0 L28,0 L28,28 L0,28 Z " fill="#040404" transform="translate(0,0)"/>
<path d="M0,0 L9,1 L12,4 L13,7 L13,18 L9,20 L3,19 L0,17 L-1,10 L0,8 L6,9 L10,12 L10,7 L7,5 L-1,4 Z " fill="#E3E3E3" transform="translate(8,4)"/>
<path d="M0,0 L9,1 L12,4 L13,11 L9,6 L-1,4 Z " fill="#DCDCDC" transform="translate(8,4)"/>
<path d="M0,0 L5,2 L7,5 L2,6 L-1,4 Z " fill="#1F1F1F" transform="translate(10,15)"/>
</svg>
