<?xml version="1.0" encoding="UTF-8"?>
<svg version="1.1" xmlns="http://www.w3.org/2000/svg" width="28" height="28">
<path d="M0,0 L28,0 L28,28 L0,28 Z " fill="#030303" transform="translate(0,0)"/>
<path d="M0,0 L7,0 L9,1 L10,10 L9,12 L14,12 L14,13 L7,14 L2,17 L-4,16 L-6,14 L-6,8 L-4,5 L1,6 L7,10 L7,2 L0,2 Z " fill="#D2D2D2" transform="translate(11,6)"/>
<path d="M0,0 L4,1 L8,4 L7,7 L0,8 L-2,5 L-1,1 Z " fill="#090909" transform="translate(8,13)"/>
<path d="M0,0 L4,1 L0,4 L-1,9 L-2,9 L-2,3 Z " fill="#8E8E8E" transform="translate(7,11)"/>
</svg>
