<?xml version="1.0" encoding="UTF-8"?>
<svg version="1.1" xmlns="http://www.w3.org/2000/svg" width="28" height="28">
<path d="M0,0 L28,0 L28,28 L0,28 Z " fill="#030303" transform="translate(0,0)"/>
<path d="M0,0 L7,1 L10,5 L9,10 L8,14 L14,14 L14,16 L1,18 L-2,20 L-6,19 L-4,12 L-2,9 L3,10 L6,12 L7,5 L6,4 L-3,3 L-3,1 Z " fill="#D3D3D3" transform="translate(12,4)"/>
<path d="M0,0 L7,1 L9,4 L-3,3 L-3,1 Z " fill="#CDCDCD" transform="translate(12,4)"/>
<path d="M0,0 L1,2 L6,0 L9,0 L9,2 L3,5 L-1,4 Z " fill="#D9D9D9" transform="translate(7,19)"/>
<path d="M0,0 L4,2 L4,4 L-2,6 L-1,1 Z " fill="#151515" transform="translate(11,15)"/>
</svg>
