<?xml version="1.0" encoding="UTF-8"?>
<svg version="1.1" xmlns="http://www.w3.org/2000/svg" width="28" height="28">
<path d="M0,0 L28,0 L28,28 L0,28 Z " fill="#020202" transform="translate(0,0)"/>
<path d="M0,0 L5,1 L6,3 L6,11 L5,16 L0,19 L-5,20 L-8,18 L-8,13 L-5,11 L3,11 L3,4 L1,3 L0,7 L-3,7 L-1,1 Z " fill="#D9D9D9" transform="translate(14,4)"/>
<path d="M0,0 L6,0 L5,5 L0,8 L-3,7 L-3,2 Z " fill="#D1D1D1" transform="translate(9,15)"/>
<path d="M0,0 L3,0 L2,5 L-2,9 L-6,9 L-6,7 L-1,4 Z " fill="#EAEAEA" transform="translate(15,15)"/>
<path d="M0,0 L1,0 L1,8 L0,13 L-2,12 L-2,2 Z " fill="#BBBBBB" transform="translate(19,7)"/>
<path d="M0,0 L4,0 L2,4 L-2,4 L-2,1 Z " fill="#171717" transform="translate(11,17)"/>
</svg>
