<?xml version="1.0" encoding="UTF-8"?>
<svg version="1.1" xmlns="http://www.w3.org/2000/svg" width="28" height="28">
<path d="M0,0 L28,0 L28,28 L0,28 Z " fill="#030303" transform="translate(0,0)"/>
<path d="M0,0 L6,0 L8,3 L9,13 L11,17 L7,16 L4,20 L0,19 L-1,18 L-1,12 L1,10 L6,11 L5,2 L-1,4 L-3,6 L-3,2 Z " fill="#DDDDDD" transform="translate(10,4)"/>
<path d="M0,0 L6,0 L7,2 L5,4 L5,2 L-1,4 L-3,6 L-3,2 Z " fill="#CBCBCB" transform="translate(10,4)"/>
<path d="M0,0 L4,1 L2,6 L0,6 Z " fill="#0D0D0D" transform="translate(11,16)"/>
</svg>
