<?xml version="1.0" encoding="UTF-8"?>
<svg version="1.1" xmlns="http://www.w3.org/2000/svg" width="28" height="28">
<path d="M0,0 L28,0 L28,28 L0,28 Z " fill="#020202" transform="translate(0,0)"/>
<path d="M0,0 L8,0 L8,3 L10,4 L10,10 L6,17 L8,18 L5,20 L-8,20 L-10,17 L-9,15 L2,15 L5,12 L7,12 L5,8 L-6,8 L-5,3 Z " fill="#E8E8E8" transform="translate(13,4)"/>
<path d="M0,0 L1,3 L-2,8 L0,9 L-3,11 L-16,11 L-18,8 L-17,6 L-6,6 L-3,3 L-1,3 Z " fill="#E9E9E9" transform="translate(21,13)"/>
<path d="M0,0 L4,0 L4,3 L6,4 L6,10 L3,10 L2,5 L-5,5 L-4,3 L-1,3 Z " fill="#A3A3A3" transform="translate(17,4)"/>
</svg>
