<?xml version="1.0" encoding="UTF-8"?>
<svg version="1.1" xmlns="http://www.w3.org/2000/svg" width="28" height="28">
<path d="M0,0 L28,0 L28,28 L0,28 Z " fill="#030303" transform="translate(0,0)"/>
<path d="M0,0 L5,0 L7,2 L9,8 L8,16 L19,15 L15,19 L6,18 L5,20 L0,20 L-1,14 L0,13 L6,13 L5,4 L0,2 Z " fill="#DCDCDC" transform="translate(8,2)"/>
<path d="M0,0 L5,2 L6,5 L5,7 L0,7 L-1,1 Z " fill="#A2A2A2" transform="translate(8,15)"/>
<path d="M0,0 L2,1 L-2,4 L-7,4 L-8,2 Z " fill="#C5C5C5" transform="translate(25,17)"/>
</svg>
