<?xml version="1.0" encoding="UTF-8"?>
<svg version="1.1" xmlns="http://www.w3.org/2000/svg" width="28" height="28">
<path d="M0,0 L28,0 L28,28 L0,28 Z " fill="#040404" transform="translate(0,0)"/>
<path d="M0,0 L5,0 L8,4 L7,8 L5,13 L7,13 L8,20 L5,19 L2,15 L-7,19 L-11,18 L-11,13 L-7,9 L1,8 L3,9 L4,3 L-4,7 L-7,7 L-6,3 Z " fill="#E7E7E7" transform="translate(15,4)"/>
<path d="M0,0 L3,1 L7,3 L1,7 L-3,7 L-4,4 Z " fill="#8D8D8D" transform="translate(8,13)"/>
<path d="M0,0 L2,0 L1,6 L-6,6 L-5,2 Z " fill="#1B1B1B" transform="translate(17,7)"/>
</svg>
