<?xml version="1.0" encoding="UTF-8"?>
<svg version="1.1" xmlns="http://www.w3.org/2000/svg" width="28" height="28">
<path d="M0,0 L28,0 L28,28 L0,28 Z " fill="#020202" transform="translate(0,0)"/>
<path d="M0,0 L2,0 L5,5 L5,12 L8,13 L5,14 L3,18 L-4,20 L-7,17 L-7,12 L-5,10 L1,10 L3,11 L2,6 L-1,5 Z " fill="#DFDFDF" transform="translate(14,3)"/>
<path d="M0,0 L2,0 L5,5 L5,12 L8,13 L3,15 L3,13 L-4,12 L-3,10 L3,11 L2,6 L-1,5 Z " fill="#D2D2D2" transform="translate(14,3)"/>
<path d="M0,0 L1,0 L1,5 L4,6 L-1,8 L-1,6 L-8,5 L-7,3 L0,4 Z " fill="#F5F5F5" transform="translate(18,10)"/>
<path d="M0,0 L7,0 L6,4 L1,4 Z " fill="#121212" transform="translate(9,16)"/>
<path d="M0,0 L6,2 L6,3 L0,3 L1,7 L-2,7 L-2,2 Z " fill="#C2C2C2" transform="translate(9,13)"/>
</svg>
