<?xml version="1.0" encoding="UTF-8"?>
<svg version="1.1" xmlns="http://www.w3.org/2000/svg" width="28" height="28">
<path d="M0,0 L28,0 L28,28 L0,28 Z " fill="#020202" transform="translate(0,0)"/>
<path d="M0,0 L8,0 L14,4 L16,7 L15,14 L14,18 L9,20 L4,20 L2,18 L3,12 L5,10 L9,11 L13,12 L12,7 L9,4 L7,3 L0,3 L-2,4 L-2,1 Z " fill="#D3D3D3" transform="translate(6,4)"/>
<path d="M0,0 L8,0 L14,4 L16,7 L15,14 L13,17 L11,17 L11,14 L13,14 L13,8 L9,4 L7,3 L0,3 L-2,4 L-2,1 Z " fill="#DEDEDE" transform="translate(6,4)"/>
<path d="M0,0 L4,1 L5,5 L0,6 L-1,2 Z " fill="#202020" transform="translate(11,16)"/>
</svg>
