<?xml version="1.0" encoding="UTF-8"?>
<svg version="1.1" xmlns="http://www.w3.org/2000/svg" width="28" height="28">
<path d="M0,0 L28,0 L28,28 L0,28 Z " fill="#040404" transform="translate(0,0)"/>
<path d="M0,0 L6,0 L9,3 L8,9 L5,13 L6,16 L9,18 L6,19 L0,18 L-3,20 L-10,19 L-10,13 L-4,12 L2,12 L5,8 L5,3 L0,3 L-3,5 L-2,1 Z " fill="#E2E2E2" transform="translate(14,3)"/>
<path d="M0,0 L6,0 L9,3 L8,8 L6,7 L5,3 L0,3 L-3,5 L-2,1 Z " fill="#EAEAEA" transform="translate(14,3)"/>
<path d="M0,0 L4,1 L5,5 L0,6 L-2,1 Z " fill="#797979" transform="translate(6,15)"/>
</svg>
