<?xml version="1.0" encoding="UTF-8"?>
<svg version="1.1" xmlns="http://www.w3.org/2000/svg" width="28" height="28">
<path d="M0,0 L28,0 L28,28 L0,28 Z " fill="#040404" transform="translate(0,0)"/>
<path d="M0,0 L6,0 L7,5 L2,10 L2,15 L4,16 L0,16 L-1,13 L-13,15 L-12,10 L-10,10 L-10,8 L-2,7 L3,5 L4,3 L-3,4 L-2,1 Z " fill="#EAEAEA" transform="translate(16,6)"/>
<path d="M0,0 L7,1 L3,6 L-3,7 L-2,2 L0,2 Z " fill="#AFAFAF" transform="translate(6,14)"/>
<path d="M0,0 L6,0 L7,5 L6,3 L-3,4 L-2,1 Z " fill="#D2D2D2" transform="translate(16,6)"/>
</svg>
