<?xml version="1.0" encoding="UTF-8"?>
<svg version="1.1" xmlns="http://www.w3.org/2000/svg" width="28" height="28">
<path d="M0,0 L28,0 L28,28 L0,28 Z " fill="#030303" transform="translate(0,0)"/>
<path d="M0,0 L10,0 L16,4 L15,11 L14,12 L18,13 L18,15 L3,20 L0,20 L1,16 L10,11 L12,8 L12,5 L10,4 L1,4 Z " fill="#ECECEC" transform="translate(6,4)"/>
<path d="M0,0 L10,0 L9,3 L1,4 Z " fill="#CCCCCC" transform="translate(6,4)"/>
<path d="M0,0 L1,0 L0,7 L-3,7 L-3,4 L-1,1 Z " fill="#C9C9C9" transform="translate(21,8)"/>
</svg>
