<?xml version="1.0" encoding="UTF-8"?>
<svg version="1.1" xmlns="http://www.w3.org/2000/svg" width="28" height="28">
<path d="M0,0 L28,0 L28,28 L0,28 Z " fill="#020202" transform="translate(0,0)"/>
<path d="M0,0 L4,2 L4,8 L2,11 L3,16 L6,19 L3,20 L-2,18 L-5,20 L-10,19 L-9,13 L-7,11 L-1,11 L0,9 L-4,8 L-2,2 Z " fill="#C4C4C4" transform="translate(16,3)"/>
<path d="M0,0 L4,2 L4,7 L-2,7 L-3,4 Z " fill="#ACACAC" transform="translate(16,3)"/>
<path d="M0,0 L2,4 L0,7 L-2,7 L-2,5 L-6,4 L-5,1 L-4,3 L0,3 Z " fill="#F2F2F2" transform="translate(18,7)"/>
</svg>
