<?xml version="1.0" encoding="UTF-8"?>
<svg version="1.1" xmlns="http://www.w3.org/2000/svg" width="28" height="28">
<path d="M0,0 L28,0 L28,28 L0,28 Z " fill="#040404" transform="translate(0,0)"/>
<path d="M0,0 L5,0 L7,2 L7,11 L6,13 L12,15 L12,18 L3,16 L-2,20 L-6,19 L-7,17 L0,15 L1,13 L-3,12 L2,11 L5,12 L5,3 L0,5 L-3,6 L-2,2 Z " fill="#E1E1E1" transform="translate(13,3)"/>
<path d="M0,0 L4,1 L7,2 L5,6 L-2,6 L-1,2 Z " fill="#BDBDBD" transform="translate(7,14)"/>
<path d="M0,0 L7,0 L5,3 L0,3 Z " fill="#101010" transform="translate(7,17)"/>
</svg>
