<?xml version="1.0" encoding="UTF-8"?>
<svg version="1.1" xmlns="http://www.w3.org/2000/svg" width="28" height="28">
<path d="M0,0 L28,0 L28,28 L0,28 Z " fill="#030303" transform="translate(0,0)"/>
<path d="M0,0 L4,0 L3,6 L1,9 L1,12 L9,16 L8,18 L1,16 L-6,17 L-9,18 L-11,17 L-11,10 L-10,9 L-3,9 L1,5 L2,2 L-3,5 L-7,6 L-5,2 Z " fill="#C5C5C5" transform="translate(17,4)"/>
<path d="M0,0 L3,0 L2,4 L-2,8 L-8,7 L-4,5 Z " fill="#1E1E1E" transform="translate(16,6)"/>
<path d="M0,0 L4,0 L3,3 L-2,4 L-4,6 L-7,6 L-5,2 Z " fill="#E4E4E4" transform="translate(17,4)"/>
<path d="M0,0 L2,1 L2,3 L6,5 L2,7 L0,6 Z " fill="#EBEBEB" transform="translate(6,15)"/>
</svg>
