<?xml version="1.0" encoding="UTF-8"?>
<svg version="1.1" xmlns="http://www.w3.org/2000/svg" width="28" height="28">
<path d="M0,0 L28,0 L28,28 L0,28 Z " fill="#030303" transform="translate(0,0)"/>
<path d="M0,0 L8,0 L10,2 L10,7 L5,10 L5,16 L3,18 L0,17 L3,12 L-10,13 L-9,8 L3,8 L7,6 L7,3 L-3,4 L-3,1 Z " fill="#D5D5D5" transform="translate(14,7)"/>
<path d="M0,0 L6,0 L6,2 L-3,4 L-3,1 Z " fill="#F3F3F3" transform="translate(14,7)"/>
<path d="M0,0 L7,0 L7,3 L0,3 Z " fill="#B4B4B4" transform="translate(4,17)"/>
</svg>
