<?xml version="1.0" encoding="UTF-8"?>
<svg version="1.1" xmlns="http://www.w3.org/2000/svg" width="28" height="28">
<path d="M0,0 L28,0 L28,28 L0,28 Z " fill="#030303" transform="translate(0,0)"/>
<path d="M0,0 L5,1 L3,10 L2,14 L3,19 L1,18 L1,15 L-5,20 L-10,19 L-11,16 L-8,12 L-1,12 L1,7 L1,4 L-2,4 L-2,1 Z " fill="#D5D5D5" transform="translate(16,3)"/>
<path d="M0,0 L7,0 L5,2 L4,7 L-1,8 L-3,4 Z " fill="#E6E6E6" transform="translate(8,15)"/>
<path d="M0,0 L3,4 L2,8 L1,4 L-3,6 L-3,3 L-7,2 Z " fill="#F3F3F3" transform="translate(16,14)"/>
<path d="M0,0 L4,0 L3,5 L0,6 L-1,2 Z " fill="#989898" transform="translate(9,17)"/>
</svg>
