<?xml version="1.0" encoding="UTF-8"?>
<svg version="1.1" xmlns="http://www.w3.org/2000/svg" width="28" height="28">
<path d="M0,0 L28,0 L28,28 L0,28 Z " fill="#040404" transform="translate(0,0)"/>
<path d="M0,0 L5,1 L7,3 L7,8 L5,10 L6,16 L7,20 L3,19 L2,14 L-8,19 L-13,19 L-12,14 L-7,9 L0,8 L2,9 L2,7 L4,7 L4,4 L-6,6 L-6,3 Z " fill="#EAEAEA" transform="translate(16,4)"/>
<path d="M0,0 L5,0 L5,3 L3,3 L3,5 L-4,4 L-5,2 Z " fill="#1B1B1B" transform="translate(15,8)"/>
<path d="M0,0 L2,0 L2,2 L5,3 L3,6 L-2,6 L-1,1 Z " fill="#F6F6F6" transform="translate(5,17)"/>
<path d="M0,0 L5,2 L1,6 L-2,6 L-2,4 L-4,3 Z " fill="#868686" transform="translate(9,13)"/>
</svg>
