<?xml version="1.0" encoding="UTF-8"?>
<svg version="1.1" xmlns="http://www.w3.org/2000/svg" width="28" height="28">
<path d="M0,0 L28,0 L28,28 L0,28 Z " fill="#020202" transform="translate(0,0)"/>
<path d="M0,0 L1,2 L3,2 L3,8 L-1,15 L2,16 L2,19 L-2,17 L-6,18 L-9,20 L-12,20 L-10,14 L-8,12 L-2,10 L1,5 L-5,6 L-3,2 Z " fill="#F0F0F0" transform="translate(18,3)"/>
<path d="M0,0 L1,2 L3,2 L3,8 L-1,14 L-8,13 L-8,12 L-2,10 L1,5 L-5,6 L-3,2 Z " fill="#CFCFCF" transform="translate(18,3)"/>
<path d="M0,0 L4,1 L0,5 L-3,5 L-2,1 Z " fill="#D4D4D4" transform="translate(9,18)"/>
</svg>
