<?xml version="1.0" encoding="UTF-8"?>
<svg version="1.1" xmlns="http://www.w3.org/2000/svg" width="28" height="28">
<path d="M0,0 L28,0 L28,28 L0,28 Z " fill="#030303" transform="translate(0,0)"/>
<path d="M0,0 L7,0 L11,5 L11,10 L16,15 L17,17 L13,15 L9,13 L4,18 L-3,17 L-2,11 L0,9 L8,9 L8,3 L2,3 L-1,4 Z " fill="#E4E4E4" transform="translate(9,5)"/>
<path d="M0,0 L7,2 L6,7 L4,9 L-3,8 L-2,2 Z " fill="#E2E2E2" transform="translate(9,14)"/>
<path d="M0,0 L7,0 L10,4 L8,7 L8,3 L2,3 L-1,4 Z " fill="#CCCCCC" transform="translate(9,5)"/>
<path d="M0,0 L5,0 L3,1 L1,5 L-3,5 L-1,1 Z " fill="#0B0B0B" transform="translate(11,16)"/>
<path d="M0,0 L2,3 L-1,6 L-6,6 L-6,4 L-1,2 Z " fill="#B8B8B8" transform="translate(14,17)"/>
</svg>
