<?xml version="1.0" encoding="UTF-8"?>
<svg version="1.1" xmlns="http://www.w3.org/2000/svg" width="28" height="28">
<path d="M0,0 L28,0 L28,28 L0,28 Z " fill="#020202" transform="translate(0,0)"/>
<path d="M0,0 L4,1 L7,4 L8,10 L14,13 L12,14 L2,14 L-2,17 L-6,16 L-4,12 L3,9 L4,4 L0,3 Z " fill="#DEDEDE" transform="translate(12,4)"/>
<path d="M0,0 L1,2 L8,3 L9,5 L-3,4 Z " fill="#F4F4F4" transform="translate(17,13)"/>
<path d="M0,0 L4,1 L7,4 L5,8 L4,4 L0,3 Z " fill="#C0C0C0" transform="translate(12,4)"/>
</svg>
