<?xml version="1.0" encoding="UTF-8"?>
<svg version="1.1" xmlns="http://www.w3.org/2000/svg" width="28" height="28">
<path d="M0,0 L28,0 L28,28 L0,28 Z " fill="#020202" transform="translate(0,0)"/>
<path d="M0,0 L6,0 L9,3 L10,12 L8,16 L12,18 L10,19 L5,18 L2,20 L-4,20 L-7,16 L-6,11 L1,11 L7,13 L7,5 L6,3 L-1,2 Z " fill="#CFCFCF" transform="translate(11,2)"/>
<path d="M0,0 L6,0 L9,2 L9,4 L1,5 Z " fill="#080808" transform="translate(6,15)"/>
<path d="M0,0 L7,0 L11,3 L9,4 L1,2 L1,5 L-1,5 Z " fill="#C4C4C4" transform="translate(5,13)"/>
</svg>
