<?xml version="1.0" encoding="UTF-8"?>
<svg version="1.1" xmlns="http://www.w3.org/2000/svg" width="28" height="28">
<path d="M0,0 L28,0 L28,28 L0,28 Z " fill="#030303" transform="translate(0,0)"/>
<path d="M0,0 L5,0 L8,4 L7,9 L0,16 L14,17 L14,19 L-3,19 L-4,15 L3,9 L5,3 L-2,4 L-2,6 L-6,5 L-5,3 Z " fill="#E8E8E8" transform="translate(12,4)"/>
<path d="M0,0 L3,1 L1,4 L15,5 L15,7 L-2,7 L-3,3 Z " fill="#BEBEBE" transform="translate(11,16)"/>
<path d="M0,0 L5,0 L4,3 L-2,4 L-2,6 L-6,5 L-5,3 Z " fill="#CECECE" transform="translate(12,4)"/>
</svg>
