<?xml version="1.0" encoding="UTF-8"?>
<svg version="1.1" xmlns="http://www.w3.org/2000/svg" width="28" height="28">
<path d="M0,0 L28,0 L28,28 L0,28 Z " fill="#020202" transform="translate(0,0)"/>
<path d="M0,0 L7,1 L10,5 L10,10 L3,18 L-1,20 L-6,20 L-7,15 L-3,11 L7,9 L7,3 L0,3 Z " fill="#E2E2E2" transform="translate(12,3)"/>
<path d="M0,0 L4,1 L2,5 L-1,8 L-8,9 L-9,4 L-6,4 Z " fill="#DCDCDC" transform="translate(14,14)"/>
<path d="M0,0 L4,1 L-2,6 L-6,6 L-4,2 Z " fill="#232323" transform="translate(14,14)"/>
</svg>
