<?xml version="1.0" encoding="UTF-8"?>
<svg version="1.1" xmlns="http://www.w3.org/2000/svg" width="28" height="28">
<path d="M0,0 L28,0 L28,28 L0,28 Z " fill="#030303" transform="translate(0,0)"/>
<path d="M0,0 L6,0 L7,5 L6,8 L12,7 L11,9 L4,11 L-3,17 L-8,16 L-6,11 L-1,8 L3,7 L4,2 L1,2 L0,4 L-2,4 Z " fill="#D6D6D6" transform="translate(14,6)"/>
<path d="M0,0 L3,1 L-2,6 L0,6 L0,8 L-5,7 L-3,2 Z " fill="#DEDEDE" transform="translate(11,15)"/>
<path d="M0,0 L1,4 L-3,6 L-5,5 L-3,1 Z " fill="#878787" transform="translate(14,16)"/>
</svg>
