<?xml version="1.0" encoding="UTF-8"?>
<svg version="1.1" xmlns="http://www.w3.org/2000/svg" width="28" height="28">
<path d="M0,0 L28,0 L28,28 L0,28 Z " fill="#030303" transform="translate(0,0)"/>
<path d="M0,0 L5,0 L8,4 L7,11 L5,14 L9,15 L9,17 L3,15 L2,18 L-1,20 L-5,20 L-6,15 L-4,13 L3,13 L4,3 L-3,3 L-3,1 Z " fill="#E3E3E3" transform="translate(12,4)"/>
<path d="M0,0 L2,0 L2,2 L5,3 L3,7 L-1,7 L-2,2 Z " fill="#999999" transform="translate(8,17)"/>
<path d="M0,0 L3,0 L2,7 L-1,7 Z " fill="#C5C5C5" transform="translate(17,8)"/>
</svg>
