<?xml version="1.0" encoding="UTF-8"?>
<svg version="1.1" xmlns="http://www.w3.org/2000/svg" width="28" height="28">
<path d="M0,0 L28,0 L28,28 L0,28 Z " fill="#030303" transform="translate(0,0)"/>
<path d="M0,0 L7,0 L8,1 L8,8 L7,10 L11,10 L11,12 L3,15 L-2,20 L-9,20 L-8,14 L-3,11 L4,9 L6,2 L-2,3 L-3,6 L-3,2 Z " fill="#C9C9C9" transform="translate(14,4)"/>
<path d="M0,0 L5,0 L3,2 L-2,4 L-4,8 L2,4 L6,2 L4,6 L1,9 L-6,9 L-5,3 Z " fill="#E4E4E4" transform="translate(11,15)"/>
<path d="M0,0 L7,0 L8,5 L6,7 L6,2 L-2,3 L-3,6 L-3,2 Z " fill="#E2E2E2" transform="translate(14,4)"/>
<path d="M0,0 L5,0 L1,5 L-3,6 L-1,1 Z " fill="#1E1E1E" transform="translate(10,17)"/>
</svg>
