<?xml version="1.0" encoding="UTF-8"?>
<svg version="1.1" xmlns="http://www.w3.org/2000/svg" width="28" height="28">
<path d="M0,0 L28,0 L28,28 L0,28 Z " fill="#020202" transform="translate(0,0)"/>
<path d="M0,0 L5,1 L6,8 L5,12 L9,14 L9,15 L2,15 L-3,19 L-9,20 L-8,15 L-4,11 L2,11 L2,3 L-1,2 L-1,5 L-3,5 L-2,1 Z " fill="#E2E2E2" transform="translate(15,3)"/>
<path d="M0,0 L5,1 L4,7 L2,3 L-1,2 L-1,5 L-3,5 L-2,1 Z " fill="#BEBEBE" transform="translate(15,3)"/>
<path d="M0,0 L4,0 L4,3 L-1,5 L-3,3 Z " fill="#969696" transform="translate(10,15)"/>
</svg>
