<?xml version="1.0" encoding="UTF-8"?>
<svg version="1.1" xmlns="http://www.w3.org/2000/svg" width="28" height="28">
<path d="M0,0 L28,0 L28,28 L0,28 Z " fill="#030303" transform="translate(0,0)"/>
<path d="M0,0 L7,0 L11,3 L11,10 L10,12 L12,13 L12,15 L6,17 L2,18 L2,20 L-5,20 L-6,15 L-5,14 L6,12 L8,8 L8,4 L-1,3 Z " fill="#E1E1E1" transform="translate(10,3)"/>
<path d="M0,0 L8,1 L8,3 L1,4 L-1,3 Z " fill="#888888" transform="translate(5,17)"/>
<path d="M0,0 L7,0 L9,2 L8,3 L-1,3 Z " fill="#C8C8C8" transform="translate(10,3)"/>
</svg>
