<?xml version="1.0" encoding="UTF-8"?>
<svg version="1.1" xmlns="http://www.w3.org/2000/svg" width="28" height="28">
<path d="M0,0 L28,0 L28,28 L0,28 Z " fill="#030303" transform="translate(0,0)"/>
<path d="M0,0 L5,1 L5,9 L3,13 L3,20 L0,19 L0,17 L-6,20 L-12,20 L-13,15 L-10,12 L-5,11 L0,12 L2,8 L2,5 L-3,6 L-3,2 Z " fill="#E2E2E2" transform="translate(17,3)"/>
<path d="M0,0 L5,1 L5,8 L3,8 L2,5 L-3,6 L-3,2 Z " fill="#ECECEC" transform="translate(17,3)"/>
<path d="M0,0 L4,0 L2,6 L-4,6 L-4,3 Z " fill="#D2D2D2" transform="translate(9,17)"/>
<path d="M0,0 L4,0 L4,2 L0,4 L-3,4 L-2,1 Z " fill="#222222" transform="translate(9,17)"/>
</svg>
