<?xml version="1.0" encoding="UTF-8"?>
<svg version="1.1" xmlns="http://www.w3.org/2000/svg" width="28" height="28">
<path d="M0,0 L28,0 L28,28 L0,28 Z " fill="#030303" transform="translate(0,0)"/>
<path d="M0,0 L9,1 L13,5 L13,10 L19,10 L19,12 L11,13 L6,18 L1,19 L0,13 L3,9 L11,9 L11,5 L-1,3 Z " fill="#E5E5E5" transform="translate(7,5)"/>
<path d="M0,0 L9,1 L12,4 L9,5 L-1,3 Z " fill="#D4D4D4" transform="translate(7,5)"/>
<path d="M0,0 L4,0 L3,4 L-2,6 L-1,1 Z " fill="#252525" transform="translate(11,16)"/>
</svg>
