<?xml version="1.0" encoding="UTF-8"?>
<svg version="1.1" xmlns="http://www.w3.org/2000/svg" width="28" height="28">
<path d="M0,0 L28,0 L28,28 L0,28 Z " fill="#030303" transform="translate(0,0)"/>
<path d="M0,0 L7,1 L11,5 L14,13 L15,18 L12,18 L12,15 L6,18 L-3,17 L-4,12 L-3,14 L5,14 L7,12 L8,8 L5,3 L-3,3 L-3,1 Z " fill="#E2E2E2" transform="translate(9,4)"/>
<path d="M0,0 L5,0 L7,4 L4,7 L-2,7 L-5,7 L-6,3 L-4,1 Z " fill="#D0D0D0" transform="translate(10,12)"/>
<path d="M0,0 L8,0 L8,3 L6,4 L0,4 Z " fill="#0B0B0B" transform="translate(8,15)"/>
</svg>
