<?xml version="1.0" encoding="UTF-8"?>
<svg version="1.1" xmlns="http://www.w3.org/2000/svg" width="28" height="28">
<path d="M0,0 L28,0 L28,28 L0,28 Z " fill="#030303" transform="translate(0,0)"/>
<path d="M0,0 L4,1 L5,2 L5,11 L3,16 L-4,20 L-8,19 L-9,18 L-9,13 L-6,11 L1,11 L2,10 L2,4 L-2,6 L-5,6 L-4,2 Z " fill="#E1E1E1" transform="translate(16,4)"/>
<path d="M0,0 L4,1 L5,3 L3,6 L2,4 L-2,6 L-5,6 L-4,2 Z " fill="#D1D1D1" transform="translate(16,4)"/>
<path d="M0,0 L6,0 L2,4 L-1,3 Z " fill="#111111" transform="translate(9,18)"/>
</svg>
