<?xml version="1.0" encoding="UTF-8"?>
<svg version="1.1" xmlns="http://www.w3.org/2000/svg" width="28" height="28">
<path d="M0,0 L28,0 L28,28 L0,28 Z " fill="#020202" transform="translate(0,0)"/>
<path d="M0,0 L4,1 L6,3 L6,10 L4,15 L9,17 L7,18 L2,17 L-2,20 L-7,19 L-5,15 L2,13 L3,11 L3,3 L0,2 L-1,9 L-3,8 L-2,2 Z " fill="#BDBDBD" transform="translate(13,3)"/>
<path d="M0,0 L5,0 L6,3 L3,5 L-2,4 Z " fill="#929292" transform="translate(8,18)"/>
<path d="M0,0 L6,0 L11,3 L9,4 L2,3 L2,1 Z " fill="#DBDBDB" transform="translate(11,17)"/>
</svg>
