<?xml version="1.0" encoding="UTF-8"?>
<svg version="1.1" xmlns="http://www.w3.org/2000/svg" width="28" height="28">
<path d="M0,0 L28,0 L28,28 L0,28 Z " fill="#020202" transform="translate(0,0)"/>
<path d="M0,0 L6,1 L10,6 L11,10 L18,13 L18,14 L9,13 L4,17 L-2,17 L-1,11 L2,9 L8,9 L7,4 L0,2 Z " fill="#D5D5D5" transform="translate(9,4)"/>
<path d="M0,0 L6,0 L2,2 L0,3 L-1,6 L5,2 L8,3 L3,7 L-3,7 L-2,1 Z " fill="#EDEDED" transform="translate(10,14)"/>
<path d="M0,0 L4,1 L-1,5 L-3,5 L-2,1 Z " fill="#292929" transform="translate(12,15)"/>
</svg>
