<?xml version="1.0" encoding="UTF-8"?>
<svg version="1.1" xmlns="http://www.w3.org/2000/svg" width="28" height="28">
<path d="M0,0 L28,0 L28,28 L0,28 Z " fill="#040404" transform="translate(0,0)"/>
<path d="M0,0 L7,1 L8,8 L4,15 L2,15 L2,17 L7,15 L12,13 L10,17 L7,19 L2,19 L-1,19 L-4,19 L-4,13 L-3,10 L-3,4 Z " fill="#D0D0D0" transform="translate(12,3)"/>
<path d="M0,0 L6,0 L5,6 L3,10 L-1,9 L-1,2 Z " fill="#060606" transform="translate(12,6)"/>
<path d="M0,0 L1,4 L3,4 L3,2 L6,3 L5,5 L10,3 L15,1 L13,5 L10,7 L5,7 L2,7 L-1,7 L-1,1 Z " fill="#F2F2F2" transform="translate(9,15)"/>
<path d="M0,0 L6,1 L6,3 L0,3 L-2,7 L-2,2 Z " fill="#DDDDDD" transform="translate(12,3)"/>
<path d="M0,0 L2,3 L3,8 L5,10 L3,10 L3,12 L1,12 Z " fill="#B7B7B7" transform="translate(9,7)"/>
<path d="M0,0 L2,0 L0,4 L-4,6 L-3,2 Z " fill="#D2D2D2" transform="translate(22,16)"/>
</svg>
