<?xml version="1.0" encoding="UTF-8"?>
<svg version="1.1" xmlns="http://www.w3.org/2000/svg" width="28" height="28">
<path d="M0,0 L28,0 L28,28 L0,28 Z " fill="#030303" transform="translate(0,0)"/>
<path d="M0,0 L5,0 L8,3 L7,11 L5,15 L10,17 L9,19 L-1,18 L-5,20 L-9,20 L-8,15 L2,13 L4,10 L5,2 L-2,4 Z " fill="#DFDFDF" transform="translate(13,2)"/>
<path d="M0,0 L5,0 L1,1 L1,3 L-4,5 L-1,6 L-5,6 L-4,1 Z " fill="#BEBEBE" transform="translate(9,16)"/>
<path d="M0,0 L7,3 L6,5 L1,4 L-2,2 L0,2 Z " fill="#D5D5D5" transform="translate(16,16)"/>
</svg>
