<?xml version="1.0" encoding="UTF-8"?>
<svg version="1.1" xmlns="http://www.w3.org/2000/svg" width="28" height="28">
<path d="M0,0 L28,0 L28,28 L0,28 Z " fill="#030303" transform="translate(0,0)"/>
<path d="M0,0 L5,0 L8,4 L8,13 L11,15 L7,16 L2,18 L-3,20 L-7,20 L-7,15 L-2,12 L5,12 L4,3 L-2,4 Z " fill="#E7E7E7" transform="translate(12,3)"/>
<path d="M0,0 L9,0 L7,1 L6,5 L-1,6 L-1,1 Z " fill="#A1A1A1" transform="translate(6,17)"/>
<path d="M0,0 L5,0 L8,4 L8,12 L5,10 L4,3 L-2,4 Z " fill="#B9B9B9" transform="translate(12,3)"/>
<path d="M0,0 L5,0 L5,3 L-2,4 Z " fill="#D3D3D3" transform="translate(12,3)"/>
</svg>
