<?xml version="1.0" encoding="UTF-8"?>
<svg version="1.1" xmlns="http://www.w3.org/2000/svg" width="28" height="28">
<path d="M0,0 L28,0 L28,28 L0,28 Z " fill="#030303" transform="translate(0,0)"/>
<path d="M0,0 L7,0 L11,5 L11,12 L11,16 L11,19 L9,19 L7,17 L2,20 L-4,20 L-5,15 L-1,13 L0,15 L-3,18 L5,16 L5,13 L7,12 L8,8 L6,3 L-3,4 L-2,1 Z " fill="#E4E4E4" transform="translate(10,3)"/>
<path d="M0,0 L5,0 L5,4 L1,6 L-3,6 L-1,1 Z " fill="#707070" transform="translate(10,15)"/>
<path d="M0,0 L2,2 L-1,5 L5,4 L6,6 L4,7 L-2,7 L-3,2 Z " fill="#D7D7D7" transform="translate(8,16)"/>
</svg>
