<?xml version="1.0" encoding="UTF-8"?>
<svg version="1.1" xmlns="http://www.w3.org/2000/svg" width="28" height="28">
<path d="M0,0 L28,0 L28,28 L0,28 Z " fill="#050505" transform="translate(0,0)"/>
<path d="M0,0 L5,0 L9,5 L8,12 L7,19 L5,19 L5,16 L-1,20 L-9,20 L-9,16 L-3,13 L5,12 L6,6 L4,3 L-1,3 L-4,4 L-3,1 Z " fill="#EEEEEE" transform="translate(13,3)"/>
<path d="M0,0 L5,1 L5,3 L-2,6 L-5,6 L-6,3 Z " fill="#CCCCCC" transform="translate(10,16)"/>
<path d="M0,0 L5,0 L9,5 L9,10 L8,6 L6,6 L4,3 L-1,3 L-4,4 L-3,1 Z " fill="#D8D8D8" transform="translate(13,3)"/>
<path d="M0,0 L5,0 L2,3 L-3,4 L-2,1 Z " fill="#232323" transform="translate(9,18)"/>
</svg>
