<?xml version="1.0" encoding="UTF-8"?>
<svg version="1.1" xmlns="http://www.w3.org/2000/svg" width="28" height="28">
<path d="M0,0 L28,0 L28,28 L0,28 Z " fill="#030303" transform="translate(0,0)"/>
<path d="M0,0 L5,2 L6,3 L6,10 L5,13 L7,14 L7,17 L1,17 L-2,20 L-7,20 L-7,14 L2,11 L3,3 L1,3 L1,5 L-3,5 L-2,1 Z " fill="#E3E3E3" transform="translate(14,4)"/>
<path d="M0,0 L5,1 L5,3 L7,4 L4,7 L-1,7 L-1,1 Z " fill="#D5D5D5" transform="translate(8,17)"/>
<path d="M0,0 L5,1 L5,3 L7,4 L6,6 L1,4 L2,1 Z " fill="#979797" transform="translate(8,17)"/>
</svg>
