<?xml version="1.0" encoding="UTF-8"?>
<svg version="1.1" xmlns="http://www.w3.org/2000/svg" width="28" height="28">
<path d="M0,0 L28,0 L28,28 L0,28 Z " fill="#040404" transform="translate(0,0)"/>
<path d="M0,0 L7,1 L8,3 L8,11 L6,13 L8,18 L2,16 L-2,18 L-8,18 L-9,15 L-5,11 L4,12 L6,6 L5,4 L0,3 Z " fill="#DFDFDF" transform="translate(13,3)"/>
<path d="M0,0 L2,1 L1,4 L6,3 L5,6 L-1,6 L-2,3 Z M7,1 Z M6,2 Z " fill="#EFEFEF" transform="translate(6,15)"/>
<path d="M0,0 L6,0 L4,4 L-1,5 Z " fill="#A5A5A5" transform="translate(8,14)"/>
</svg>
