<?xml version="1.0" encoding="UTF-8"?>
<svg version="1.1" xmlns="http://www.w3.org/2000/svg" width="28" height="28">
<path d="M0,0 L28,0 L28,28 L0,28 Z " fill="#030303" transform="translate(0,0)"/>
<path d="M0,0 L2,0 L4,5 L7,9 L6,14 L5,17 L0,20 L-7,20 L-8,19 L-8,14 L-6,11 L-2,11 L-3,14 L-6,17 L1,16 L1,14 L-1,13 L5,13 L3,8 L2,5 L-5,5 L-6,3 L-5,1 Z " fill="#D8D8D8" transform="translate(15,3)"/>
<path d="M0,0 L5,1 L5,3 L-2,4 Z " fill="#1C1C1C" transform="translate(11,16)"/>
<path d="M0,0 L4,0 L3,3 L-1,6 L-2,3 Z " fill="#C6C6C6" transform="translate(9,14)"/>
</svg>
