<?xml version="1.0" encoding="UTF-8"?>
<svg version="1.1" xmlns="http://www.w3.org/2000/svg" width="28" height="28">
<path d="M0,0 L28,0 L28,28 L0,28 Z " fill="#040404" transform="translate(0,0)"/>
<path d="M0,0 L4,1 L6,4 L6,10 L4,16 L3,19 L-1,18 L-5,20 L-10,19 L-11,14 L-8,11 L-3,10 L2,12 L3,5 L2,3 L-2,4 L-7,6 L-5,2 Z " fill="#E8E8E8" transform="translate(16,3)"/>
<path d="M0,0 L4,2 L3,6 L-2,8 L-4,10 L-6,7 L-5,3 Z " fill="#D9D9D9" transform="translate(11,13)"/>
<path d="M0,0 L5,0 L5,3 L-1,4 Z " fill="#121212" transform="translate(9,16)"/>
<path d="M0,0 L6,0 L2,3 L-3,5 L-1,1 Z " fill="#CCCCCC" transform="translate(12,4)"/>
</svg>
