<?xml version="1.0" encoding="UTF-8"?>
<svg version="1.1" xmlns="http://www.w3.org/2000/svg" width="28" height="28">
<path d="M0,0 L28,0 L28,28 L0,28 Z " fill="#020202" transform="translate(0,0)"/>
<path d="M0,0 L4,1 L9,7 L9,15 L9,18 L5,18 L1,20 L-3,19 L-2,15 L0,13 L7,13 L5,6 L0,2 Z " fill="#C8C8C8" transform="translate(10,3)"/>
<path d="M0,0 L5,1 L5,5 L1,7 L-3,6 L-2,2 Z " fill="#818181" transform="translate(10,16)"/>
<path d="M0,0 L1,3 L2,9 L-4,8 L-3,5 L-6,4 L-1,4 Z " fill="#EEEEEE" transform="translate(18,12)"/>
</svg>
