<?xml version="1.0" encoding="UTF-8"?>
<svg version="1.1" xmlns="http://www.w3.org/2000/svg" width="28" height="28">
<path d="M0,0 L28,0 L28,28 L0,28 Z " fill="#020202" transform="translate(0,0)"/>
<path d="M0,0 L6,0 L9,3 L10,10 L15,16 L16,20 L13,19 L11,13 L8,13 L6,17 L2,18 L1,13 L4,9 L7,9 L5,3 L-2,4 L-2,1 Z " fill="#E1E1E1" transform="translate(8,4)"/>
<path d="M0,0 L3,0 L4,4 L1,7 L-3,6 L-2,2 Z " fill="#7C7C7C" transform="translate(12,15)"/>
<path d="M0,0 L6,0 L9,3 L8,9 L7,9 L5,3 L-2,4 L-2,1 Z " fill="#C8C8C8" transform="translate(8,4)"/>
</svg>
