<?xml version="1.0" encoding="UTF-8"?>
<svg version="1.1" xmlns="http://www.w3.org/2000/svg" width="28" height="28">
<path d="M0,0 L28,0 L28,28 L0,28 Z " fill="#030303" transform="translate(0,0)"/>
<path d="M0,0 L6,0 L9,3 L9,15 L14,16 L14,17 L6,16 L6,18 L2,20 L-2,19 L-2,14 L3,13 L6,13 L6,4 L5,2 L0,3 Z " fill="#D0D0D0" transform="translate(9,3)"/>
<path d="M0,0 L3,0 L3,2 L5,2 L6,5 L2,7 L-2,6 L-2,1 Z " fill="#ADADAD" transform="translate(9,16)"/>
<path d="M0,0 L2,0 L2,2 L7,2 L8,4 L-1,4 L-1,2 L-3,1 Z " fill="#EBEBEB" transform="translate(15,16)"/>
</svg>
