<?xml version="1.0" encoding="UTF-8"?>
<svg version="1.1" xmlns="http://www.w3.org/2000/svg" width="28" height="28">
<path d="M0,0 L28,0 L28,28 L0,28 Z " fill="#030303" transform="translate(0,0)"/>
<path d="M0,0 L4,1 L7,4 L7,15 L-1,18 L-4,20 L-9,20 L-10,16 L-6,14 L-3,14 L-3,12 L4,11 L4,5 L3,2 L-3,5 L-6,6 L-6,3 Z " fill="#CDCDCD" transform="translate(15,3)"/>
<path d="M0,0 L6,0 L4,1 L4,5 L-1,8 L-6,8 L-7,4 L-3,2 L0,2 Z " fill="#A3A3A3" transform="translate(12,15)"/>
<path d="M0,0 L4,1 L-1,4 L-6,4 L-7,1 Z " fill="#D8D8D8" transform="translate(12,19)"/>
<path d="M0,0 L1,4 L-3,6 L-5,6 L-5,3 Z " fill="#F0F0F0" transform="translate(21,13)"/>
</svg>
