<?xml version="1.0" encoding="UTF-8"?>
<svg version="1.1" xmlns="http://www.w3.org/2000/svg" width="28" height="28">
<path d="M0,0 L28,0 L28,28 L0,28 Z " fill="#040404" transform="translate(0,0)"/>
<path d="M0,0 L6,1 L8,4 L8,10 L6,14 L7,19 L2,18 L0,20 L-5,20 L-7,18 L-6,12 L-4,10 L1,11 L4,13 L4,10 L6,10 L4,4 L0,3 L-5,6 L-3,2 Z " fill="#C5C5C5" transform="translate(13,4)"/>
<path d="M0,0 L6,1 L8,4 L8,10 L7,12 L5,12 L5,5 L3,3 L-2,4 L-5,6 L-3,2 Z " fill="#E1E1E1" transform="translate(13,4)"/>
<path d="M0,0 L3,0 L4,4 L-1,6 L-1,1 Z " fill="#040404" transform="translate(10,16)"/>
<path d="M0,0 L2,0 L2,3 L-2,6 L-6,6 L-6,4 L0,2 Z " fill="#DDDDDD" transform="translate(15,18)"/>
</svg>
