<?xml version="1.0" encoding="UTF-8"?>
<svg version="1.1" xmlns="http://www.w3.org/2000/svg" width="28" height="28">
<path d="M0,0 L28,0 L28,28 L0,28 Z " fill="#030303" transform="translate(0,0)"/>
<path d="M0,0 L6,0 L9,2 L10,9 L14,11 L16,15 L15,18 L11,12 L9,11 L9,16 L5,20 L0,20 L-1,15 L4,9 L7,9 L6,3 L-1,3 Z " fill="#CDCDCD" transform="translate(8,4)"/>
<path d="M0,0 L6,0 L9,2 L10,9 L14,11 L16,15 L15,18 L11,12 L9,11 L9,16 L7,16 L8,10 L6,9 L6,3 L-1,3 Z " fill="#E0E0E0" transform="translate(8,4)"/>
<path d="M0,0 L6,0 L9,2 L8,9 L7,9 L6,3 L-1,3 Z " fill="#C4C4C4" transform="translate(8,4)"/>
<path d="M0,0 L2,0 L1,5 L0,7 L-4,7 L-3,3 Z " fill="#0B0B0B" transform="translate(13,15)"/>
</svg>
