<?xml version="1.0" encoding="UTF-8"?>
<svg version="1.1" xmlns="http://www.w3.org/2000/svg" width="28" height="28">
<path d="M0,0 L28,0 L28,28 L0,28 Z " fill="#030303" transform="translate(0,0)"/>
<path d="M0,0 L6,1 L10,4 L12,14 L13,18 L9,17 L6,20 L0,20 L-3,18 L-2,13 L2,11 L8,11 L8,6 L4,3 L0,2 L0,4 L-2,4 Z " fill="#DDDDDD" transform="translate(9,3)"/>
<path d="M0,0 L5,1 L4,5 L-3,6 L-3,2 Z " fill="#161616" transform="translate(12,15)"/>
<path d="M0,0 L4,1 L4,4 L0,3 L-3,6 L-9,6 L-9,4 L-1,1 Z " fill="#C6C6C6" transform="translate(18,17)"/>
</svg>
