<?xml version="1.0" encoding="UTF-8"?>
<svg version="1.1" xmlns="http://www.w3.org/2000/svg" width="28" height="28">
<path d="M0,0 L28,0 L28,28 L0,28 Z " fill="#020202" transform="translate(0,0)"/>
<path d="M0,0 L6,0 L12,5 L14,9 L15,18 L11,20 L6,20 L3,17 L4,13 L10,13 L12,14 L9,5 L6,3 L-1,3 Z " fill="#BABABA" transform="translate(6,4)"/>
<path d="M0,0 L6,1 L5,5 L0,4 Z " fill="#080808" transform="translate(11,18)"/>
<path d="M0,0 L1,0 L2,6 L-2,8 L-7,8 L-8,6 L-3,6 L-2,3 L0,3 Z " fill="#C5C5C5" transform="translate(19,16)"/>
</svg>
