<?xml version="1.0" encoding="UTF-8"?>
<svg version="1.1" xmlns="http://www.w3.org/2000/svg" width="28" height="28">
<path d="M0,0 L28,0 L28,28 L0,28 Z " fill="#030303" transform="translate(0,0)"/>
<path d="M0,0 L6,0 L10,4 L10,11 L9,13 L7,13 L6,19 L1,20 L-8,20 L-9,16 L-5,13 L2,13 L4,14 L5,10 L7,10 L6,4 L-1,4 Z " fill="#EAEAEA" transform="translate(12,3)"/>
<path d="M0,0 L7,0 L4,1 L4,4 L2,4 L2,6 L6,7 L-3,7 L-4,3 Z " fill="#BABABA" transform="translate(7,16)"/>
<path d="M0,0 L7,0 L4,1 L3,4 L-1,4 Z " fill="#D2D2D2" transform="translate(7,16)"/>
</svg>
