<?xml version="1.0" encoding="UTF-8"?>
<svg version="1.1" xmlns="http://www.w3.org/2000/svg" width="28" height="28">
<path d="M0,0 L28,0 L28,28 L0,28 Z " fill="#040404" transform="translate(0,0)"/>
<path d="M0,0 L5,0 L7,2 L8,13 L11,16 L11,20 L9,20 L8,15 L2,20 L-3,19 L-4,15 L-1,12 L5,12 L4,3 L0,3 L-2,5 L-1,1 Z " fill="#DFDFDF" transform="translate(11,3)"/>
<path d="M0,0 L4,0 L4,2 L6,3 L2,7 L-3,6 L-4,2 Z " fill="#DBDBDB" transform="translate(11,16)"/>
<path d="M0,0 L4,0 L2,4 L-2,5 L-1,1 Z " fill="#2D2D2D" transform="translate(11,16)"/>
</svg>
