<?xml version="1.0" encoding="UTF-8"?>
<svg version="1.1" xmlns="http://www.w3.org/2000/svg" width="28" height="28">
<path d="M0,0 L28,0 L28,28 L0,28 Z " fill="#040404" transform="translate(0,0)"/>
<path d="M0,0 L6,1 L9,4 L9,13 L11,13 L11,16 L6,16 L1,20 L-5,20 L-7,18 L-7,14 L0,10 L6,10 L5,5 L2,4 L2,6 L-2,6 L-2,1 Z " fill="#DADADA" transform="translate(12,4)"/>
<path d="M0,0 L6,1 L9,4 L9,10 L7,10 L4,4 L2,4 L2,6 L-2,6 L-2,1 Z " fill="#EEEEEE" transform="translate(12,4)"/>
<path d="M0,0 L7,0 L3,2 L-2,3 L-2,6 L3,6 L3,9 L-3,9 L-5,7 L-5,3 Z " fill="#EEEEEE" transform="translate(10,15)"/>
<path d="M0,0 L3,0 L1,4 L-5,5 L-5,2 Z " fill="#161616" transform="translate(13,16)"/>
<path d="M0,0 L2,1 L2,4 L2,6 L-2,6 L-2,1 Z " fill="#D4D4D4" transform="translate(12,4)"/>
</svg>
