<?xml version="1.0" encoding="UTF-8"?>
<svg version="1.1" xmlns="http://www.w3.org/2000/svg" width="28" height="28">
<path d="M0,0 L28,0 L28,28 L0,28 Z " fill="#030303" transform="translate(0,0)"/>
<path d="M0,0 L6,0 L11,5 L12,12 L15,15 L14,18 L10,15 L4,16 L-4,16 L-5,11 L-1,8 L8,9 L6,4 L0,3 L-2,4 Z " fill="#E0E0E0" transform="translate(10,5)"/>
<path d="M0,0 L7,1 L4,4 L-1,5 L-1,1 Z " fill="#151515" transform="translate(9,15)"/>
<path d="M0,0 L6,0 L9,3 L6,4 L0,3 L-2,4 Z " fill="#C6C6C6" transform="translate(10,5)"/>
</svg>
