<?xml version="1.0" encoding="UTF-8"?>
<svg version="1.1" xmlns="http://www.w3.org/2000/svg" width="28" height="28">
<path d="M0,0 L28,0 L28,28 L0,28 Z " fill="#040404" transform="translate(0,0)"/>
<path d="M0,0 L5,1 L8,4 L9,9 L12,11 L7,12 L6,14 L4,14 L4,16 L2,16 L2,18 L-3,20 L-8,19 L-7,14 L-2,10 L6,9 L6,4 L0,3 Z " fill="#D7D7D7" transform="translate(13,3)"/>
<path d="M0,0 L5,1 L8,4 L9,9 L12,11 L7,12 L6,14 L4,14 L4,16 L2,16 L4,12 L-1,11 L1,9 L6,9 L6,4 L0,3 Z " fill="#E6E6E6" transform="translate(13,3)"/>
<path d="M0,0 L4,1 L-1,5 L-5,6 L-3,2 Z " fill="#212121" transform="translate(14,14)"/>
</svg>
