<?xml version="1.0" encoding="UTF-8"?>
<svg version="1.1" xmlns="http://www.w3.org/2000/svg" width="28" height="28">
<path d="M0,0 L28,0 L28,28 L0,28 Z " fill="#030303" transform="translate(0,0)"/>
<path d="M0,0 L5,1 L6,2 L6,15 L9,17 L2,19 L-3,20 L-4,19 L-4,14 L3,14 L3,3 L0,4 L-1,7 L-4,6 L-2,2 Z " fill="#D0D0D0" transform="translate(13,4)"/>
<path d="M0,0 L5,1 L6,5 L1,6 L0,5 Z " fill="#AFAFAF" transform="translate(9,18)"/>
<path d="M0,0 L1,2 L6,3 L6,4 L-2,5 L-2,2 L-6,3 L-6,1 Z " fill="#E9E9E9" transform="translate(16,17)"/>
</svg>
