<?xml version="1.0" encoding="UTF-8"?>
<svg version="1.1" xmlns="http://www.w3.org/2000/svg" width="28" height="28">
<path d="M0,0 L28,0 L28,28 L0,28 Z " fill="#040404" transform="translate(0,0)"/>
<path d="M0,0 L7,0 L10,2 L9,13 L5,14 L0,19 L-7,20 L-9,15 L-3,11 L0,10 L7,10 L7,4 L6,3 L-1,3 Z " fill="#DFDFDF" transform="translate(13,4)"/>
<path d="M0,0 L7,1 L3,5 L-5,8 L-6,4 Z " fill="#C7C7C7" transform="translate(10,15)"/>
<path d="M0,0 L5,0 L1,4 L-4,6 L-2,1 Z " fill="#222222" transform="translate(12,16)"/>
<path d="M0,0 L7,1 L7,3 L4,4 L4,2 L-2,2 Z " fill="#FAFAFA" transform="translate(13,14)"/>
</svg>
