<?xml version="1.0" encoding="UTF-8"?>
<svg version="1.1" xmlns="http://www.w3.org/2000/svg" width="28" height="28">
<path d="M0,0 L28,0 L28,28 L0,28 Z " fill="#030303" transform="translate(0,0)"/>
<path d="M0,0 L6,1 L10,5 L9,13 L8,15 L13,15 L14,10 L16,10 L16,15 L14,17 L7,17 L5,16 L-1,17 L-4,14 L-2,10 L-1,9 L5,9 L7,10 L6,3 L0,3 L-1,5 Z " fill="#E6E6E6" transform="translate(9,4)"/>
<path d="M0,0 L6,0 L6,5 L4,5 L3,8 L-2,7 L-3,3 Z " fill="#DBDBDB" transform="translate(8,13)"/>
<path d="M0,0 L6,1 L10,5 L9,13 L8,11 L6,10 L6,3 L0,3 L-1,5 Z " fill="#CBCBCB" transform="translate(9,4)"/>
<path d="M0,0 L5,0 L5,3 L-1,4 L-2,1 Z " fill="#262626" transform="translate(9,15)"/>
</svg>
