<?xml version="1.0" encoding="UTF-8"?>
<svg version="1.1" xmlns="http://www.w3.org/2000/svg" width="28" height="28">
<path d="M0,0 L28,0 L28,28 L0,28 Z " fill="#020202" transform="translate(0,0)"/>
<path d="M0,0 L5,1 L7,3 L7,9 L10,8 L10,10 L8,10 L8,12 L0,16 L-6,16 L-10,12 L-9,7 L-1,8 L4,9 L4,3 L1,2 L-2,1 Z " fill="#C7C7C7" transform="translate(15,5)"/>
<path d="M0,0 L8,1 L12,3 L11,5 L1,2 L3,6 L5,8 L1,7 L-1,5 Z " fill="#DDDDDD" transform="translate(6,12)"/>
<path d="M0,0 L7,1 L10,3 L7,5 L2,5 L0,3 Z " fill="#1A1A1A" transform="translate(7,14)"/>
</svg>
