<?xml version="1.0" encoding="UTF-8"?>
<svg version="1.1" xmlns="http://www.w3.org/2000/svg" width="28" height="28">
<path d="M0,0 L28,0 L28,28 L0,28 Z " fill="#030303" transform="translate(0,0)"/>
<path d="M0,0 L3,0 L2,9 L1,13 L3,14 L3,17 L-4,17 L-10,20 L-13,19 L-12,12 L-11,11 L-2,11 L1,4 L-5,5 L-3,1 Z " fill="#BCBCBC" transform="translate(19,3)"/>
<path d="M0,0 L5,1 L1,3 L0,6 L5,6 L1,9 L-2,8 L-1,1 Z " fill="#ECECEC" transform="translate(8,14)"/>
<path d="M0,0 L3,0 L2,9 L1,9 L1,4 L-5,5 L-3,1 Z " fill="#E4E4E4" transform="translate(19,3)"/>
</svg>
