<?xml version="1.0" encoding="UTF-8"?>
<svg version="1.1" xmlns="http://www.w3.org/2000/svg" width="28" height="28">
<path d="M0,0 L28,0 L28,28 L0,28 Z " fill="#020202" transform="translate(0,0)"/>
<path d="M0,0 L3,1 L3,8 L2,13 L5,15 L-1,14 L-3,18 L-7,20 L-8,19 L-7,12 L-6,10 L0,10 L0,4 L-1,6 L-3,6 L-2,2 Z " fill="#D5D5D5" transform="translate(16,4)"/>
<path d="M0,0 L3,1 L3,8 L2,13 L5,15 L-1,14 L-2,11 L0,11 L0,4 L-1,6 L-3,6 L-2,2 Z " fill="#E0E0E0" transform="translate(16,4)"/>
<path d="M0,0 L6,0 L4,1 L3,5 L0,7 L-1,2 Z " fill="#7D7D7D" transform="translate(10,14)"/>
</svg>
