<?xml version="1.0" encoding="UTF-8"?>
<svg version="1.1" xmlns="http://www.w3.org/2000/svg" width="28" height="28">
<path d="M0,0 L28,0 L28,28 L0,28 Z " fill="#040404" transform="translate(0,0)"/>
<path d="M0,0 L6,1 L6,8 L4,14 L-4,16 L-5,19 L-10,20 L-11,18 L-8,12 L-2,9 L2,9 L3,3 L-2,4 L-3,2 Z " fill="#DEDEDE" transform="translate(16,4)"/>
<path d="M0,0 L4,0 L4,2 L-2,5 L-3,8 L0,9 L-5,10 L-6,8 L-3,2 Z " fill="#E3E3E3" transform="translate(11,14)"/>
<path d="M0,0 L1,4 L-3,5 L-3,7 L-7,7 L-6,3 Z " fill="#898989" transform="translate(15,15)"/>
</svg>
