<?xml version="1.0" encoding="UTF-8"?>
<svg version="1.1" xmlns="http://www.w3.org/2000/svg" width="28" height="28">
<path d="M0,0 L28,0 L28,28 L0,28 Z " fill="#030303" transform="translate(0,0)"/>
<path d="M0,0 L6,1 L8,3 L9,14 L10,15 L17,16 L17,18 L6,18 L4,20 L-1,19 L-3,17 L-3,12 L-2,11 L6,12 L5,4 L2,3 L-3,5 L-1,1 Z " fill="#E4E4E4" transform="translate(10,3)"/>
<path d="M0,0 L8,1 L6,6 L2,6 L-1,3 Z " fill="#D9D9D9" transform="translate(8,14)"/>
<path d="M0,0 L4,1 L3,5 L-1,3 Z " fill="#1B1B1B" transform="translate(10,16)"/>
</svg>
