<?xml version="1.0" encoding="UTF-8"?>
<svg version="1.1" xmlns="http://www.w3.org/2000/svg" width="28" height="28">
<path d="M0,0 L28,0 L28,28 L0,28 Z " fill="#030303" transform="translate(0,0)"/>
<path d="M0,0 L6,0 L8,2 L8,14 L12,16 L12,18 L8,17 L4,16 L0,20 L-3,19 L-2,12 L-1,11 L4,11 L5,2 L-3,4 L-3,1 Z " fill="#C6C6C6" transform="translate(12,4)"/>
<path d="M0,0 L5,0 L3,3 L7,2 L5,6 L0,8 L-1,7 Z " fill="#EDEDED" transform="translate(10,16)"/>
<path d="M0,0 L2,2 L2,6 L-3,8 L-5,9 L-3,5 L-5,3 L0,3 Z " fill="#AAAAAA" transform="translate(16,12)"/>
</svg>
