<?xml version="1.0" encoding="UTF-8"?>
<svg version="1.1" xmlns="http://www.w3.org/2000/svg" width="28" height="28">
<path d="M0,0 L28,0 L28,28 L0,28 Z " fill="#040404" transform="translate(0,0)"/>
<path d="M0,0 L7,0 L11,4 L10,13 L8,16 L13,18 L13,20 L3,19 L2,20 L-3,20 L-5,18 L-4,14 L0,13 L5,14 L8,10 L8,5 L6,3 L0,3 L0,6 L6,4 L5,8 L-2,9 L-2,3 Z " fill="#E1E1E1" transform="translate(11,3)"/>
<path d="M0,0 L2,1 L2,3 L0,3 L0,6 L6,4 L5,8 L-2,9 L-2,3 Z " fill="#C6C6C6" transform="translate(11,3)"/>
</svg>
