<?xml version="1.0" encoding="UTF-8"?>
<svg version="1.1" xmlns="http://www.w3.org/2000/svg" width="28" height="28">
<path d="M0,0 L28,0 L28,28 L0,28 Z " fill="#010101" transform="translate(0,0)"/>
<path d="M0,0 L3,1 L5,4 L6,12 L12,16 L8,17 L5,15 L3,20 L0,20 L-1,15 L1,11 L3,11 L1,3 Z " fill="#C3C3C3" transform="translate(11,2)"/>
<path d="M0,0 L3,1 L5,4 L6,12 L12,16 L8,17 L4,16 L3,12 L3,6 L0,2 Z " fill="#E4E4E4" transform="translate(11,2)"/>
<path d="M0,0 L1,0 L1,8 L-1,12 L-2,12 L-3,6 L0,5 Z " fill="#696969" transform="translate(14,8)"/>
</svg>
