<?xml version="1.0" encoding="UTF-8"?>
<svg version="1.1" xmlns="http://www.w3.org/2000/svg" width="28" height="28">
<path d="M0,0 L28,0 L28,28 L0,28 Z " fill="#050505" transform="translate(0,0)"/>
<path d="M0,0 L5,1 L9,5 L11,13 L6,17 L4,20 L-3,19 L-4,12 L-3,11 L6,10 L6,4 L3,4 L3,2 L0,2 Z " fill="#ECECEC" transform="translate(11,3)"/>
<path d="M0,0 L4,2 L2,7 L-5,6 L-3,4 L-3,1 Z " fill="#CDCDCD" transform="translate(13,16)"/>
<path d="M0,0 L5,1 L8,3 L6,7 L6,4 L3,4 L3,2 L0,2 Z " fill="#D6D6D6" transform="translate(11,3)"/>
<path d="M0,0 L3,1 L1,4 L-3,4 L-3,1 Z " fill="#151515" transform="translate(13,16)"/>
</svg>
