<?xml version="1.0" encoding="UTF-8"?>
<svg version="1.1" xmlns="http://www.w3.org/2000/svg" width="28" height="28">
<path d="M0,0 L28,0 L28,28 L0,28 Z " fill="#050505" transform="translate(0,0)"/>
<path d="M0,0 L6,0 L10,4 L10,11 L7,15 L5,15 L5,17 L8,17 L7,20 L-8,19 L-8,14 L2,14 L7,10 L7,5 L1,7 L-6,8 L-5,3 Z " fill="#E8E8E8" transform="translate(13,4)"/>
<path d="M0,0 L6,0 L10,4 L9,6 L5,5 L-1,8 L-6,8 L-5,3 Z " fill="#BCBCBC" transform="translate(13,4)"/>
<path d="M0,0 L2,1 L-1,4 L-3,5 L0,7 L-1,8 L-6,8 L-5,3 Z " fill="#EAEAEA" transform="translate(13,4)"/>
</svg>
