<?xml version="1.0" encoding="UTF-8"?>
<svg version="1.1" xmlns="http://www.w3.org/2000/svg" width="28" height="28">
<path d="M0,0 L28,0 L28,28 L0,28 Z " fill="#030303" transform="translate(0,0)"/>
<path d="M0,0 L4,1 L4,3 L6,3 L10,14 L11,19 L7,15 L2,19 L-5,20 L-7,18 L-6,13 L-5,11 L-1,10 L6,10 L4,5 L-2,5 L-3,1 Z " fill="#D7D7D7" transform="translate(13,3)"/>
<path d="M0,0 L4,1 L4,3 L1,5 L-5,5 L-5,3 Z " fill="#282828" transform="translate(13,15)"/>
<path d="M0,0 L4,1 L5,5 L-2,5 L-3,1 Z " fill="#EDEDED" transform="translate(13,3)"/>
</svg>
