<?xml version="1.0" encoding="UTF-8"?>
<svg version="1.1" xmlns="http://www.w3.org/2000/svg" width="28" height="28">
<path d="M0,0 L28,0 L28,28 L0,28 Z " fill="#040404" transform="translate(0,0)"/>
<path d="M0,0 L7,1 L9,3 L8,12 L11,13 L11,16 L9,17 L9,18 L-3,20 L-4,15 L4,11 L6,6 L0,4 Z " fill="#A9A9A9" transform="translate(11,3)"/>
<path d="M0,0 L3,0 L4,5 L6,6 L-6,8 L-7,3 Z " fill="#EBEBEB" transform="translate(14,15)"/>
<path d="M0,0 L7,1 L8,6 L0,4 Z " fill="#EFEFEF" transform="translate(11,3)"/>
</svg>
