<?xml version="1.0" encoding="UTF-8"?>
<svg version="1.1" xmlns="http://www.w3.org/2000/svg" width="28" height="28">
<path d="M0,0 L28,0 L28,28 L0,28 Z " fill="#040404" transform="translate(0,0)"/>
<path d="M0,0 L7,0 L12,5 L13,10 L11,15 L7,19 L4,20 L-5,20 L-5,15 L0,12 L7,11 L10,12 L10,5 L7,4 L-2,4 L-2,1 Z " fill="#E0E0E0" transform="translate(10,3)"/>
<path d="M0,0 L7,0 L11,3 L10,6 L7,4 L-2,4 L-2,1 Z " fill="#E8E8E8" transform="translate(10,3)"/>
<path d="M0,0 L3,1 L1,5 L6,5 L6,7 L-2,7 L-2,2 Z " fill="#F0F0F0" transform="translate(7,16)"/>
<path d="M0,0 L2,0 L2,2 L-3,5 L-7,4 Z " fill="#2A2A2A" transform="translate(14,17)"/>
</svg>
