<?xml version="1.0" encoding="UTF-8"?>
<svg version="1.1" xmlns="http://www.w3.org/2000/svg" width="28" height="28">
<path d="M0,0 L28,0 L28,28 L0,28 Z " fill="#030303" transform="translate(0,0)"/>
<path d="M0,0 L9,0 L13,5 L13,11 L6,20 L-1,20 L-4,17 L-5,11 L-2,8 L2,9 L6,15 L10,11 L9,4 L8,3 L1,2 L0,4 Z " fill="#DBDBDB" transform="translate(10,4)"/>
<path d="M0,0 L3,1 L5,5 L5,9 L8,9 L8,12 L1,12 L-2,9 L-3,3 Z " fill="#C5C5C5" transform="translate(8,12)"/>
<path d="M0,0 L4,0 L5,6 L0,6 L-1,1 Z " fill="#161616" transform="translate(8,15)"/>
</svg>
