<?xml version="1.0" encoding="UTF-8"?>
<svg version="1.1" xmlns="http://www.w3.org/2000/svg" width="28" height="28">
<path d="M0,0 L28,0 L28,28 L0,28 Z " fill="#040404" transform="translate(0,0)"/>
<path d="M0,0 L8,1 L12,6 L12,12 L13,15 L7,14 L6,15 L-6,15 L-7,10 L-6,9 L4,9 L8,10 L8,4 L7,3 L-2,3 L-5,4 L-5,2 Z " fill="#E1E1E1" transform="translate(11,5)"/>
<path d="M0,0 L8,1 L12,6 L11,10 L9,10 L7,3 L-2,3 L-5,4 L-5,2 Z " fill="#D9D9D9" transform="translate(11,5)"/>
<path d="M0,0 L8,0 L8,2 L0,3 Z " fill="#181818" transform="translate(7,16)"/>
<path d="M0,0 L10,0 L6,2 L1,3 L-1,1 Z " fill="#B3B3B3" transform="translate(5,14)"/>
</svg>
