<?xml version="1.0" encoding="UTF-8"?>
<svg version="1.1" xmlns="http://www.w3.org/2000/svg" width="28" height="28">
<path d="M0,0 L28,0 L28,28 L0,28 Z " fill="#040404" transform="translate(0,0)"/>
<path d="M0,0 L7,1 L9,2 L9,9 L14,10 L14,12 L7,11 L3,13 L-4,13 L-6,9 L-4,7 L8,7 L7,4 L1,3 L-2,4 Z " fill="#DBDBDB" transform="translate(11,7)"/>
<path d="M0,0 L8,0 L8,2 L4,4 L-1,3 Z " fill="#1E1E1E" transform="translate(8,15)"/>
<path d="M0,0 L7,1 L5,3 L-2,4 Z " fill="#AEAEAE" transform="translate(11,7)"/>
</svg>
