<?xml version="1.0" encoding="UTF-8"?>
<svg version="1.1" xmlns="http://www.w3.org/2000/svg" width="28" height="28">
<path d="M0,0 L28,0 L28,28 L0,28 Z " fill="#020202" transform="translate(0,0)"/>
<path d="M0,0 L6,0 L8,3 L7,10 L6,14 L11,19 L8,20 L4,16 L-1,17 L-8,17 L-8,13 L2,11 L4,11 L4,8 L6,8 L6,2 L1,5 L-3,5 L-2,1 Z " fill="#BABABA" transform="translate(13,4)"/>
<path d="M0,0 L2,0 L2,3 L-3,6 L-10,6 L-10,2 Z " fill="#E1E1E1" transform="translate(15,15)"/>
<path d="M0,0 L6,0 L7,2 L1,5 L-3,5 L-2,1 Z " fill="#D1D1D1" transform="translate(13,4)"/>
</svg>
