<?xml version="1.0" encoding="UTF-8"?>
<svg version="1.1" xmlns="http://www.w3.org/2000/svg" width="28" height="28">
<path d="M0,0 L28,0 L28,28 L0,28 Z " fill="#030303" transform="translate(0,0)"/>
<path d="M0,0 L7,0 L12,4 L12,8 L14,9 L11,9 L10,12 L3,16 L-3,16 L-4,12 L1,9 L10,8 L9,4 L2,1 L1,3 Z " fill="#B9B9B9" transform="translate(10,6)"/>
<path d="M0,0 L7,0 L12,4 L12,8 L14,9 L11,9 L10,12 L6,13 L7,9 L10,8 L9,4 L2,1 L1,3 Z " fill="#D5D5D5" transform="translate(10,6)"/>
<path d="M0,0 L7,0 L6,2 L-2,3 L-2,1 Z " fill="#0E0E0E" transform="translate(10,17)"/>
</svg>
