<?xml version="1.0" encoding="UTF-8"?>
<svg version="1.1" xmlns="http://www.w3.org/2000/svg" width="28" height="28">
<path d="M0,0 L28,0 L28,28 L0,28 Z " fill="#040404" transform="translate(0,0)"/>
<path d="M0,0 L7,0 L9,2 L9,9 L8,12 L10,14 L10,19 L7,19 L8,15 L4,15 L-2,18 L-8,18 L-8,12 L-7,11 L-2,11 L-2,9 L7,10 L7,2 L-2,4 Z " fill="#888888" transform="translate(13,4)"/>
<path d="M0,0 L2,1 L-3,4 L-4,6 L3,4 L3,1 L9,1 L12,4 L12,9 L9,9 L10,5 L6,5 L0,8 L-6,8 L-6,2 Z " fill="#E8E8E8" transform="translate(11,14)"/>
<path d="M0,0 L2,1 L-3,4 L-4,6 L0,6 L0,8 L-6,8 L-6,2 Z " fill="#CDCDCD" transform="translate(11,14)"/>
<path d="M0,0 L7,0 L8,2 L-2,4 Z " fill="#D2D2D2" transform="translate(13,4)"/>
<path d="M0,0 L5,0 L1,4 L-4,4 L-3,1 Z " fill="#0A0A0A" transform="translate(11,16)"/>
</svg>
