<?xml version="1.0" encoding="UTF-8"?>
<svg version="1.1" xmlns="http://www.w3.org/2000/svg" width="28" height="28">
<path d="M0,0 L28,0 L28,28 L0,28 Z " fill="#020202" transform="translate(0,0)"/>
<path d="M0,0 L7,0 L11,3 L11,12 L8,18 L5,20 L0,20 L-1,15 L6,9 L9,9 L7,3 L-1,3 Z " fill="#C1C1C1" transform="translate(9,4)"/>
<path d="M0,0 L3,1 L1,7 L-2,9 L-1,11 L-6,11 L-7,6 Z " fill="#D3D3D3" transform="translate(15,13)"/>
<path d="M0,0 L1,0 L1,7 L-3,11 L-6,10 L-2,6 Z " fill="#E8E8E8" transform="translate(18,12)"/>
<path d="M0,0 L2,0 L1,5 L0,6 L-5,6 Z " fill="#202020" transform="translate(15,15)"/>
<path d="M0,0 L7,0 L8,2 L-1,3 Z " fill="#DFDFDF" transform="translate(9,4)"/>
</svg>
