<?xml version="1.0" encoding="UTF-8"?>
<svg version="1.1" xmlns="http://www.w3.org/2000/svg" width="28" height="28">
<path d="M0,0 L28,0 L28,28 L0,28 Z " fill="#050505" transform="translate(0,0)"/>
<path d="M0,0 L7,0 L9,2 L8,8 L6,10 L6,19 L1,18 L0,16 L-5,19 L-11,19 L-10,14 L-5,10 L3,9 L3,7 L5,7 L6,3 L2,4 L-7,4 L-7,2 Z " fill="#EDEDED" transform="translate(15,4)"/>
<path d="M0,0 L3,1 L3,4 L-1,7 L-1,9 L-6,9 L-5,4 Z " fill="#C4C4C4" transform="translate(10,14)"/>
<path d="M0,0 L7,0 L7,1 L1,2 L2,4 L-7,4 L-7,2 Z " fill="#CDCDCD" transform="translate(15,4)"/>
</svg>
