<?xml version="1.0" encoding="UTF-8"?>
<svg version="1.1" xmlns="http://www.w3.org/2000/svg" width="28" height="28">
<path d="M0,0 L28,0 L28,28 L0,28 Z " fill="#030303" transform="translate(0,0)"/>
<path d="M0,0 L7,0 L8,1 L7,9 L5,12 L7,14 L-1,18 L-4,20 L-8,19 L-9,14 L-5,9 L3,9 L4,6 L-3,6 L-1,1 Z " fill="#DDDDDD" transform="translate(14,5)"/>
<path d="M0,0 L7,0 L8,1 L7,9 L4,9 L4,6 L-3,6 L-1,1 Z " fill="#E7E7E7" transform="translate(14,5)"/>
<path d="M0,0 L5,0 L3,4 L-2,5 Z " fill="#0F0F0F" transform="translate(9,17)"/>
</svg>
