<?xml version="1.0" encoding="UTF-8"?>
<svg version="1.1" xmlns="http://www.w3.org/2000/svg" width="28" height="28">
<path d="M0,0 L28,0 L28,28 L0,28 Z " fill="#020202" transform="translate(0,0)"/>
<path d="M0,0 L10,0 L11,4 L8,12 L2,14 L-3,16 L-8,16 L-9,12 L-6,9 L2,8 L6,9 L7,4 L-1,4 Z " fill="#E0E0E0" transform="translate(12,7)"/>
<path d="M0,0 L8,1 L8,5 L3,7 L-2,7 L-3,3 Z " fill="#C6C6C6" transform="translate(6,16)"/>
<path d="M0,0 L3,1 L7,3 L3,5 L-3,6 L-2,2 Z " fill="#717171" transform="translate(6,16)"/>
<path d="M0,0 L2,4 L1,8 L-3,7 L-1,7 Z " fill="#C8C8C8" transform="translate(19,11)"/>
</svg>
