<?xml version="1.0" encoding="UTF-8"?>
<svg version="1.1" xmlns="http://www.w3.org/2000/svg" width="28" height="28">
<path d="M0,0 L28,0 L28,28 L0,28 Z " fill="#020202" transform="translate(0,0)"/>
<path d="M0,0 L5,1 L8,6 L7,13 L10,13 L10,15 L4,17 L0,20 L-5,20 L-5,18 L1,16 L3,13 L-3,13 L-2,11 L5,11 L4,4 L0,3 L-3,5 L-2,1 Z " fill="#C9C9C9" transform="translate(13,3)"/>
<path d="M0,0 L7,1 L5,5 L-2,7 L-3,4 L-2,1 Z " fill="#BBBBBB" transform="translate(9,15)"/>
<path d="M0,0 L7,0 L7,5 L3,8 L-2,8 L-2,6 L4,4 L6,1 L0,1 Z " fill="#EDEDED" transform="translate(10,15)"/>
<path d="M0,0 L6,0 L3,4 L-1,4 Z " fill="#0F0F0F" transform="translate(10,17)"/>
</svg>
