<?xml version="1.0" encoding="UTF-8"?>
<svg version="1.1" xmlns="http://www.w3.org/2000/svg" width="28" height="28">
<path d="M0,0 L28,0 L28,28 L0,28 Z " fill="#020202" transform="translate(0,0)"/>
<path d="M0,0 L7,0 L8,1 L8,7 L5,10 L4,14 L-2,15 L-3,12 L-8,14 L-4,16 L-7,18 L-12,17 L-11,12 L-8,10 L-1,10 L2,11 L4,6 L5,3 L-5,5 L-4,2 Z " fill="#E1E1E1" transform="translate(16,5)"/>
<path d="M0,0 L3,1 L5,3 L-5,5 L-4,2 Z " fill="#C4C4C4" transform="translate(16,5)"/>
<path d="M0,0 L4,0 L5,3 L3,4 L-2,3 Z " fill="#666666" transform="translate(9,17)"/>
</svg>
