<?xml version="1.0" encoding="UTF-8"?>
<svg version="1.1" xmlns="http://www.w3.org/2000/svg" width="28" height="28">
<path d="M0,0 L28,0 L28,28 L0,28 Z " fill="#020202" transform="translate(0,0)"/>
<path d="M0,0 L5,2 L4,8 L2,12 L2,14 L-11,16 L-15,14 L-13,10 L-12,9 L-6,9 L-3,10 L0,7 L1,3 L-1,4 L-7,4 L-6,1 Z " fill="#DCDCDC" transform="translate(18,6)"/>
<path d="M0,0 L5,2 L4,8 L1,11 L0,7 L1,3 L-1,4 L-7,4 L-6,1 Z " fill="#D6D6D6" transform="translate(18,6)"/>
<path d="M0,0 L4,1 L4,5 L-1,5 L-2,2 Z " fill="#7C7C7C" transform="translate(6,15)"/>
</svg>
