<?xml version="1.0" encoding="UTF-8"?>
<svg version="1.1" xmlns="http://www.w3.org/2000/svg" width="28" height="28">
<path d="M0,0 L28,0 L28,28 L0,28 Z " fill="#040404" transform="translate(0,0)"/>
<path d="M0,0 L3,1 L2,7 L0,10 L0,18 L-3,19 L-4,15 L-12,20 L-16,19 L-16,14 L-10,9 L-4,9 L-1,4 L-6,5 L-6,2 Z " fill="#ECECEC" transform="translate(20,3)"/>
<path d="M0,0 L4,2 L4,4 L-1,6 L-4,6 L-2,2 Z " fill="#9D9D9D" transform="translate(8,13)"/>
<path d="M0,0 L3,1 L4,5 L3,3 L-2,4 L-2,1 Z " fill="#D1D1D1" transform="translate(16,4)"/>
</svg>
