<?xml version="1.0" encoding="UTF-8"?>
<svg version="1.1" xmlns="http://www.w3.org/2000/svg" width="28" height="28">
<path d="M0,0 L28,0 L28,28 L0,28 Z " fill="#030303" transform="translate(0,0)"/>
<path d="M0,0 L3,1 L3,11 L1,14 L4,15 L-2,18 L-5,20 L-12,20 L-15,17 L-15,12 L-13,10 L-1,11 L2,3 L-3,5 L-6,7 L-6,4 L-3,1 Z " fill="#E1E1E1" transform="translate(19,3)"/>
<path d="M0,0 L8,0 L8,4 L2,5 L0,3 Z " fill="#131313" transform="translate(6,16)"/>
<path d="M0,0 L8,1 L6,3 L0,3 L1,7 L-1,9 L-2,2 Z " fill="#B8B8B8" transform="translate(6,13)"/>
</svg>
