<?xml version="1.0" encoding="UTF-8"?>
<svg version="1.1" xmlns="http://www.w3.org/2000/svg" width="28" height="28">
<path d="M0,0 L28,0 L28,28 L0,28 Z " fill="#040404" transform="translate(0,0)"/>
<path d="M0,0 L5,0 L5,7 L0,15 L5,14 L2,17 L-9,20 L-13,19 L-14,16 L-11,10 L-6,9 L-4,13 L-2,13 L0,9 L2,4 L-4,5 L-4,3 Z " fill="#E3E3E3" transform="translate(17,3)"/>
<path d="M0,0 L5,1 L5,4 L4,7 L-3,10 L-4,7 L-1,1 Z " fill="#C0C0C0" transform="translate(7,12)"/>
<path d="M0,0 L4,1 L4,4 L-1,5 Z " fill="#121212" transform="translate(7,15)"/>
</svg>
