<?xml version="1.0" encoding="UTF-8"?>
<svg version="1.1" xmlns="http://www.w3.org/2000/svg" width="28" height="28">
<path d="M0,0 L28,0 L28,28 L0,28 Z " fill="#030303" transform="translate(0,0)"/>
<path d="M0,0 L5,1 L4,11 L3,14 L1,14 L-1,18 L-3,20 L-8,19 L-8,13 L-4,10 L2,10 L3,3 L-1,4 L-2,7 L-5,7 L-4,2 Z " fill="#E6E6E6" transform="translate(16,5)"/>
<path d="M0,0 L5,1 L5,7 L2,9 L3,3 L-1,4 L-2,7 L-5,7 L-4,2 Z " fill="#DEDEDE" transform="translate(16,5)"/>
<path d="M0,0 L2,2 L7,0 L4,5 L5,7 L0,6 Z " fill="#7E7E7E" transform="translate(8,18)"/>
</svg>
