<?xml version="1.0" encoding="UTF-8"?>
<svg version="1.1" xmlns="http://www.w3.org/2000/svg" width="28" height="28">
<path d="M0,0 L28,0 L28,28 L0,28 Z " fill="#030303" transform="translate(0,0)"/>
<path d="M0,0 L4,2 L4,11 L11,13 L10,15 L-4,14 L-3,12 L-7,12 L-7,14 L-5,15 L-9,15 L-7,10 L-6,9 L1,9 L2,4 L-5,7 L-5,4 Z " fill="#B6B6B6" transform="translate(15,5)"/>
<path d="M0,0 L8,0 L8,3 L2,5 L3,3 L-1,3 L-1,5 L1,6 L-3,6 L-1,1 Z " fill="#DDDDDD" transform="translate(9,14)"/>
<path d="M0,0 L3,1 L3,6 L2,4 L-5,7 L-5,4 Z " fill="#DBDBDB" transform="translate(15,5)"/>
</svg>
