<?xml version="1.0" encoding="UTF-8"?>
<svg version="1.1" xmlns="http://www.w3.org/2000/svg" width="28" height="28">
<path d="M0,0 L28,0 L28,28 L0,28 Z " fill="#030303" transform="translate(0,0)"/>
<path d="M0,0 L4,1 L5,2 L5,10 L4,14 L11,17 L11,20 L7,19 L4,17 L-1,18 L-3,20 L-7,20 L-7,15 L-4,13 L2,11 L3,3 L-3,8 L-4,10 L-6,10 L-5,6 Z " fill="#E0E0E0" transform="translate(14,3)"/>
<path d="M0,0 L7,1 L12,3 L12,6 L8,5 L5,3 L0,4 L-2,6 L-6,6 L-6,1 L-3,1 Z " fill="#CACACA" transform="translate(13,17)"/>
<path d="M0,0 L3,0 L6,1 L3,5 L0,5 Z " fill="#7B7B7B" transform="translate(7,18)"/>
</svg>
