<?xml version="1.0" encoding="UTF-8"?>
<svg version="1.1" xmlns="http://www.w3.org/2000/svg" width="28" height="28">
<path d="M0,0 L28,0 L28,28 L0,28 Z " fill="#030303" transform="translate(0,0)"/>
<path d="M0,0 L5,1 L6,2 L7,12 L11,14 L11,17 L13,17 L13,20 L10,20 L8,15 L6,14 L4,18 L-3,19 L-2,14 L3,11 L3,2 L-2,3 L-3,6 L-5,6 L-4,2 Z " fill="#E1E1E1" transform="translate(11,3)"/>
<path d="M0,0 L6,2 L4,6 L-3,7 L-2,2 Z " fill="#AEAEAE" transform="translate(11,15)"/>
<path d="M0,0 L5,1 L6,5 L5,11 L4,11 L3,2 L-2,3 L-3,6 L-5,6 L-4,2 Z " fill="#C3C3C3" transform="translate(11,3)"/>
</svg>
