<?xml version="1.0" encoding="UTF-8"?>
<svg version="1.1" xmlns="http://www.w3.org/2000/svg" width="28" height="28">
<path d="M0,0 L28,0 L28,28 L0,28 Z " fill="#010101" transform="translate(0,0)"/>
<path d="M0,0 L7,0 L9,3 L9,9 L6,15 L11,16 L10,19 L4,19 L0,20 L1,16 L5,10 L6,2 L0,4 L-3,5 L-1,1 Z " fill="#ADADAD" transform="translate(10,4)"/>
<path d="M0,0 L1,2 L7,3 L6,6 L0,6 L-4,7 L-3,3 Z " fill="#E2E2E2" transform="translate(14,17)"/>
<path d="M0,0 L7,0 L8,1 L8,8 L7,8 L6,3 L1,3 L-3,5 L-1,1 Z " fill="#E4E4E4" transform="translate(10,4)"/>
</svg>
