<?xml version="1.0" encoding="UTF-8"?>
<svg version="1.1" xmlns="http://www.w3.org/2000/svg" width="28" height="28">
<path d="M0,0 L28,0 L28,28 L0,28 Z " fill="#020202" transform="translate(0,0)"/>
<path d="M0,0 L7,1 L10,5 L9,11 L14,11 L15,13 L8,14 L4,19 L1,19 L1,13 L3,10 L7,10 L5,4 L-1,4 L-1,6 L-4,6 L-3,2 Z " fill="#D6D6D6" transform="translate(10,6)"/>
<path d="M0,0 L4,1 L3,6 L1,9 L-2,9 L-2,3 Z " fill="#E0E0E0" transform="translate(13,16)"/>
<path d="M0,0 L2,0 L3,3 L1,5 L-2,5 L-1,1 Z " fill="#949494" transform="translate(14,18)"/>
</svg>
