<?xml version="1.0" encoding="UTF-8"?>
<svg version="1.1" xmlns="http://www.w3.org/2000/svg" width="28" height="28">
<path d="M0,0 L28,0 L28,28 L0,28 Z " fill="#030303" transform="translate(0,0)"/>
<path d="M0,0 L6,0 L9,3 L9,11 L15,15 L12,16 L8,13 L4,15 L1,18 L-3,17 L-3,12 L-1,10 L6,10 L6,3 L0,3 L-4,5 L-2,1 Z " fill="#D4D4D4" transform="translate(11,5)"/>
<path d="M0,0 L6,0 L9,3 L8,11 L6,7 L6,3 L0,3 L-4,5 L-2,1 Z " fill="#C0C0C0" transform="translate(11,5)"/>
<path d="M0,0 L4,1 L1,5 L-1,5 Z " fill="#101010" transform="translate(11,16)"/>
</svg>
