<?xml version="1.0" encoding="UTF-8"?>
<svg version="1.1" xmlns="http://www.w3.org/2000/svg" width="28" height="28">
<path d="M0,0 L28,0 L28,28 L0,28 Z " fill="#030303" transform="translate(0,0)"/>
<path d="M0,0 L5,1 L8,5 L8,14 L9,18 L7,18 L7,16 L0,20 L-5,19 L-4,14 L-2,12 L5,11 L5,5 L0,2 L0,4 L3,4 L2,6 L-2,4 L-2,1 Z " fill="#DDDDDD" transform="translate(12,3)"/>
<path d="M0,0 L5,1 L8,5 L8,9 L6,9 L4,4 L0,2 L0,4 L3,4 L2,6 L-2,4 L-2,1 Z " fill="#D1D1D1" transform="translate(12,3)"/>
<path d="M0,0 L4,1 L3,4 L-3,5 L-1,1 Z " fill="#161616" transform="translate(12,16)"/>
</svg>
