<?xml version="1.0" encoding="UTF-8"?>
<svg version="1.1" xmlns="http://www.w3.org/2000/svg" width="28" height="28">
<path d="M0,0 L28,0 L28,28 L0,28 Z " fill="#030303" transform="translate(0,0)"/>
<path d="M0,0 L5,2 L6,3 L7,12 L10,16 L11,20 L8,19 L5,14 L-2,20 L-7,19 L-8,15 L-6,11 L-4,10 L4,10 L3,3 L-2,5 L-7,6 L-3,2 Z " fill="#D8D8D8" transform="translate(14,4)"/>
<path d="M0,0 L5,2 L6,3 L7,12 L10,16 L11,20 L8,19 L5,14 L2,15 L2,11 L4,11 L3,3 L-2,5 L-7,6 L-3,2 Z " fill="#E2E2E2" transform="translate(14,4)"/>
<path d="M0,0 L6,0 L3,5 L-1,6 L-1,1 Z " fill="#070707" transform="translate(10,16)"/>
<path d="M0,0 L8,0 L6,2 L0,3 L-1,8 L-3,4 L-2,1 Z " fill="#A5A5A5" transform="translate(10,14)"/>
</svg>
