<?xml version="1.0" encoding="UTF-8"?>
<svg version="1.1" xmlns="http://www.w3.org/2000/svg" width="28" height="28">
<path d="M0,0 L28,0 L28,28 L0,28 Z " fill="#030303" transform="translate(0,0)"/>
<path d="M0,0 L4,2 L6,6 L6,14 L7,20 L5,20 L5,16 L1,19 L-4,18 L-5,13 L-2,11 L3,11 L2,2 L-3,7 L-5,7 L-3,3 Z " fill="#CFCFCF" transform="translate(13,4)"/>
<path d="M0,0 L4,2 L2,4 L2,2 L-3,7 L-5,7 L-3,3 Z " fill="#E6E6E6" transform="translate(13,4)"/>
<path d="M0,0 L3,0 L2,4 L-2,5 L-1,1 Z " fill="#101010" transform="translate(12,16)"/>
</svg>
