<?xml version="1.0" encoding="UTF-8"?>
<svg version="1.1" xmlns="http://www.w3.org/2000/svg" width="28" height="28">
<path d="M0,0 L28,0 L28,28 L0,28 Z " fill="#030303" transform="translate(0,0)"/>
<path d="M0,0 L9,0 L14,5 L15,11 L11,17 L6,20 L-2,19 L-3,15 L-2,14 L11,14 L11,6 L8,3 L0,2 L-1,5 L-1,1 Z " fill="#DCDCDC" transform="translate(8,4)"/>
<path d="M0,0 L9,0 L14,5 L15,11 L12,14 L10,4 L0,2 L-1,5 L-1,1 Z " fill="#D7D7D7" transform="translate(8,4)"/>
<path d="M0,0 L6,0 L7,2 L0,3 Z " fill="#282828" transform="translate(9,19)"/>
</svg>
