<?xml version="1.0" encoding="UTF-8"?>
<svg version="1.1" xmlns="http://www.w3.org/2000/svg" width="28" height="28">
<path d="M0,0 L28,0 L28,28 L0,28 Z " fill="#030303" transform="translate(0,0)"/>
<path d="M0,0 L8,0 L12,4 L11,9 L16,11 L17,14 L13,12 L6,13 L1,16 L-3,16 L-3,13 L4,10 L8,8 L8,4 L-2,3 Z " fill="#DDDDDD" transform="translate(8,6)"/>
<path d="M0,0 L8,0 L12,4 L11,9 L9,7 L8,4 L-2,3 Z " fill="#D8D8D8" transform="translate(8,6)"/>
<path d="M0,0 L1,2 L6,3 L8,7 L4,5 L-4,6 L-2,2 Z " fill="#F3F3F3" transform="translate(17,13)"/>
<path d="M0,0 L8,0 L7,3 L-2,3 Z " fill="#BEBEBE" transform="translate(8,6)"/>
</svg>
