<?xml version="1.0" encoding="UTF-8"?>
<svg version="1.1" xmlns="http://www.w3.org/2000/svg" width="28" height="28">
<path d="M0,0 L28,0 L28,28 L0,28 Z " fill="#040404" transform="translate(0,0)"/>
<path d="M0,0 L7,0 L9,2 L9,11 L13,13 L12,16 L9,14 L4,15 L0,17 L-6,17 L-7,13 L-3,9 L6,9 L6,3 L0,4 L-4,7 L-6,7 L-6,4 Z " fill="#D7D7D7" transform="translate(12,5)"/>
<path d="M0,0 L9,0 L7,1 L8,5 L3,8 L-3,8 L-4,4 Z " fill="#E2E2E2" transform="translate(9,14)"/>
<path d="M0,0 L6,0 L6,2 L2,5 L-2,5 L-2,1 Z " fill="#272727" transform="translate(9,16)"/>
</svg>
