<?xml version="1.0" encoding="UTF-8"?>
<svg version="1.1" xmlns="http://www.w3.org/2000/svg" width="28" height="28">
<path d="M0,0 L28,0 L28,28 L0,28 Z " fill="#030303" transform="translate(0,0)"/>
<path d="M0,0 L5,2 L8,5 L8,12 L4,17 L6,17 L6,20 L3,20 L2,18 L-6,19 L-11,20 L-10,14 L-6,12 L6,12 L6,7 L4,5 L-2,4 L-2,1 Z " fill="#DDDDDD" transform="translate(15,2)"/>
<path d="M0,0 L5,2 L8,5 L8,12 L5,14 L6,7 L4,5 L-2,4 L-2,1 Z " fill="#E6E6E6" transform="translate(15,2)"/>
<path d="M0,0 L4,1 L1,1 L1,4 L-4,5 L-4,1 Z " fill="#A6A6A6" transform="translate(8,17)"/>
</svg>
