<?xml version="1.0" encoding="UTF-8"?>
<svg version="1.1" xmlns="http://www.w3.org/2000/svg" width="28" height="28">
<path d="M0,0 L28,0 L28,28 L0,28 Z " fill="#030303" transform="translate(0,0)"/>
<path d="M0,0 L3,0 L3,8 L-2,15 L2,16 L2,18 L-5,17 L-10,20 L-14,20 L-13,15 L-8,12 L-3,11 L0,4 L-5,9 L-8,10 L-7,5 L-2,1 Z " fill="#E2E2E2" transform="translate(19,3)"/>
<path d="M0,0 L2,0 L1,5 L-1,8 L-6,7 Z " fill="#292929" transform="translate(17,7)"/>
<path d="M0,0 L3,0 L3,8 L1,8 L1,3 L-1,2 Z " fill="#EFEFEF" transform="translate(19,3)"/>
</svg>
