<?xml version="1.0" encoding="UTF-8"?>
<svg version="1.1" xmlns="http://www.w3.org/2000/svg" width="28" height="28">
<path d="M0,0 L28,0 L28,28 L0,28 Z " fill="#040404" transform="translate(0,0)"/>
<path d="M0,0 L6,0 L7,1 L7,7 L5,12 L11,14 L13,15 L13,17 L7,15 L2,14 L-3,18 L-7,18 L-6,13 L-2,10 L4,10 L5,2 L0,3 L-2,7 L-4,9 L-7,9 L-7,7 L-2,3 Z " fill="#D9D9D9" transform="translate(13,5)"/>
<path d="M0,0 L5,0 L3,1 L4,4 L-1,8 L-5,8 L-4,3 Z " fill="#888888" transform="translate(11,15)"/>
<path d="M0,0 L3,1 L-1,5 L2,6 L-3,7 L-2,2 Z " fill="#E2E2E2" transform="translate(9,16)"/>
</svg>
