<?xml version="1.0" encoding="UTF-8"?>
<svg version="1.1" xmlns="http://www.w3.org/2000/svg" width="28" height="28">
<path d="M0,0 L28,0 L28,28 L0,28 Z " fill="#020202" transform="translate(0,0)"/>
<path d="M0,0 L8,0 L10,2 L9,9 L6,13 L8,16 L0,16 L-4,18 L-9,18 L-10,13 L-4,9 L3,10 L5,11 L7,2 L-3,4 L-2,1 Z " fill="#D7D7D7" transform="translate(14,5)"/>
<path d="M0,0 L8,0 L10,2 L9,9 L6,13 L8,16 L2,15 L4,14 L3,11 L5,11 L7,2 L-3,4 L-2,1 Z " fill="#D5D5D5" transform="translate(14,5)"/>
<path d="M0,0 L5,0 L6,3 L0,5 L-4,4 Z " fill="#0E0E0E" transform="translate(9,16)"/>
<path d="M0,0 L1,0 L2,7 L-1,11 L1,14 L-5,13 L-3,12 L-4,9 L-2,9 Z " fill="#AFAFAF" transform="translate(21,7)"/>
</svg>
