<?xml version="1.0" encoding="UTF-8"?>
<svg version="1.1" xmlns="http://www.w3.org/2000/svg" width="28" height="28">
<path d="M0,0 L28,0 L28,28 L0,28 Z " fill="#070707" transform="translate(0,0)"/>
<path d="M0,0 L5,0 L6,1 L5,9 L2,14 L4,14 L8,18 L8,20 L4,18 L1,15 L-3,17 L-10,18 L-7,16 L-3,14 L-8,14 L-5,11 L1,10 L4,2 L-2,6 L-7,7 L-5,3 Z " fill="#EAEAEA" transform="translate(15,4)"/>
<path d="M0,0 L3,1 L2,9 L-2,13 L-8,12 L-8,11 L-2,10 L0,5 Z " fill="#BCBCBC" transform="translate(18,4)"/>
<path d="M0,0 L7,0 L4,3 L-2,5 L-2,1 Z " fill="#6D6D6D" transform="translate(6,17)"/>
</svg>
