<?xml version="1.0" encoding="UTF-8"?>
<svg version="1.1" xmlns="http://www.w3.org/2000/svg" width="28" height="28">
<path d="M0,0 L28,0 L28,28 L0,28 Z " fill="#030303" transform="translate(0,0)"/>
<path d="M0,0 L5,0 L8,4 L8,10 L7,14 L12,17 L11,20 L7,18 L3,18 L0,20 L-4,19 L-4,14 L-2,12 L4,12 L4,2 L0,3 L-1,5 L-3,5 L-1,1 Z " fill="#E3E3E3" transform="translate(11,3)"/>
<path d="M0,0 L6,0 L6,2 L4,4 L4,6 L0,5 Z " fill="#848484" transform="translate(7,17)"/>
<path d="M0,0 L1,0 L1,6 L-1,8 L-3,8 L-2,1 Z " fill="#BFBFBF" transform="translate(18,7)"/>
</svg>
