<?xml version="1.0" encoding="UTF-8"?>
<svg version="1.1" xmlns="http://www.w3.org/2000/svg" width="28" height="28">
<path d="M0,0 L28,0 L28,28 L0,28 Z " fill="#050505" transform="translate(0,0)"/>
<path d="M0,0 L6,1 L5,8 L2,14 L2,16 L7,16 L7,18 L1,19 L-9,20 L-8,13 L-1,12 L4,2 L-3,6 L-5,6 L-3,2 Z " fill="#E4E4E4" transform="translate(15,3)"/>
<path d="M0,0 L5,1 L3,2 L3,7 L-3,8 L-2,1 Z " fill="#DCDCDC" transform="translate(9,15)"/>
<path d="M0,0 L2,0 L3,5 L-3,6 L-2,2 L0,2 Z " fill="#8E8E8E" transform="translate(9,17)"/>
</svg>
