<?xml version="1.0" encoding="UTF-8"?>
<svg version="1.1" xmlns="http://www.w3.org/2000/svg" width="28" height="28">
<path d="M0,0 L28,0 L28,28 L0,28 Z " fill="#030303" transform="translate(0,0)"/>
<path d="M0,0 L5,1 L4,10 L2,15 L7,17 L11,17 L11,19 L2,20 L-2,18 L-4,20 L-8,20 L-9,15 L-6,12 L0,12 L3,2 L-2,5 L-5,4 Z " fill="#E1E1E1" transform="translate(14,2)"/>
<path d="M0,0 L3,0 L1,4 L2,6 L-2,6 L-3,1 Z " fill="#838383" transform="translate(8,16)"/>
<path d="M0,0 L4,0 L4,2 L-5,3 L-3,1 Z " fill="#B7B7B7" transform="translate(21,19)"/>
</svg>
