<?xml version="1.0" encoding="UTF-8"?>
<svg version="1.1" xmlns="http://www.w3.org/2000/svg" width="28" height="28">
<path d="M0,0 L28,0 L28,28 L0,28 Z " fill="#010101" transform="translate(0,0)"/>
<path d="M0,0 L5,0 L7,2 L7,11 L5,15 L12,16 L12,19 L5,18 L1,17 L-2,20 L-7,19 L-6,13 L-5,12 L1,12 L3,13 L5,3 L1,3 L3,4 L3,6 L-3,6 L-4,4 Z " fill="#DCDCDC" transform="translate(13,3)"/>
<path d="M0,0 L5,0 L7,4 L1,3 L3,4 L3,6 L-3,6 L-4,4 Z " fill="#DDDDDD" transform="translate(13,3)"/>
<path d="M0,0 L6,1 L4,7 L-1,6 Z " fill="#939393" transform="translate(7,16)"/>
</svg>
