<?xml version="1.0" encoding="UTF-8"?>
<svg version="1.1" xmlns="http://www.w3.org/2000/svg" width="28" height="28">
<path d="M0,0 L28,0 L28,28 L0,28 Z " fill="#030303" transform="translate(0,0)"/>
<path d="M0,0 L5,1 L5,10 L4,14 L5,16 L-2,17 L-7,20 L-10,20 L-9,14 L-6,11 L1,11 L3,8 L3,4 L-3,6 L-2,2 Z " fill="#EDEDED" transform="translate(16,3)"/>
<path d="M0,0 L4,1 L1,2 L4,4 L3,7 L-1,9 L-4,9 L-3,3 Z " fill="#E4E4E4" transform="translate(10,14)"/>
<path d="M0,0 L4,1 L1,2 L2,5 L-2,6 L-2,1 Z " fill="#9C9C9C" transform="translate(10,14)"/>
<path d="M0,0 L4,1 L1,3 L-1,6 L-3,6 L-2,2 Z " fill="#C0C0C0" transform="translate(16,3)"/>
</svg>
