<?xml version="1.0" encoding="UTF-8"?>
<svg version="1.1" xmlns="http://www.w3.org/2000/svg" width="28" height="28">
<path d="M0,0 L28,0 L28,28 L0,28 Z " fill="#020202" transform="translate(0,0)"/>
<path d="M0,0 L6,1 L7,8 L4,13 L5,16 L7,17 L7,19 L2,17 L-2,18 L-5,20 L-9,20 L-8,15 L-4,13 L1,13 L4,3 L-1,5 L-4,5 L-3,2 Z " fill="#C4C4C4" transform="translate(14,3)"/>
<path d="M0,0 L4,1 L-1,5 L-4,5 L-3,2 Z " fill="#DBDBDB" transform="translate(14,3)"/>
<path d="M0,0 L2,0 L2,2 L7,4 L7,6 L2,4 L0,3 Z " fill="#DDDDDD" transform="translate(14,16)"/>
</svg>
