<?xml version="1.0" encoding="UTF-8"?>
<svg version="1.1" xmlns="http://www.w3.org/2000/svg" width="28" height="28">
<path d="M0,0 L28,0 L28,28 L0,28 Z " fill="#040404" transform="translate(0,0)"/>
<path d="M0,0 L5,0 L7,2 L6,7 L-1,13 L-3,13 L-3,15 L4,13 L10,13 L10,16 L-6,20 L-10,20 L-9,15 L-1,8 L3,6 L4,3 L-7,6 L-6,2 Z " fill="#EDEDED" transform="translate(15,4)"/>
<path d="M0,0 L0,3 L-2,5 L-1,7 L-8,8 L-8,6 L-2,2 Z " fill="#333333" transform="translate(20,11)"/>
<path d="M0,0 L4,1 L5,6 L2,5 L2,3 L-1,3 Z " fill="#D6D6D6" transform="translate(17,4)"/>
</svg>
