<?xml version="1.0" encoding="UTF-8"?>
<svg version="1.1" xmlns="http://www.w3.org/2000/svg" width="28" height="28">
<path d="M0,0 L28,0 L28,28 L0,28 Z " fill="#020202" transform="translate(0,0)"/>
<path d="M0,0 L7,1 L8,3 L8,9 L14,9 L14,11 L6,12 L-1,18 L-5,17 L-6,13 L-2,9 L6,8 L6,3 L0,4 Z " fill="#E8E8E8" transform="translate(12,5)"/>
<path d="M0,0 L2,0 L2,2 L4,2 L2,8 L-2,9 L-4,7 L-3,3 Z " fill="#DDDDDD" transform="translate(10,14)"/>
<path d="M0,0 L2,0 L2,2 L4,2 L4,4 L-1,6 L-2,1 Z " fill="#7E7E7E" transform="translate(10,14)"/>
<path d="M0,0 L7,1 L5,3 L0,4 Z " fill="#CDCDCD" transform="translate(12,5)"/>
</svg>
