<?xml version="1.0" encoding="UTF-8"?>
<svg version="1.1" xmlns="http://www.w3.org/2000/svg" width="28" height="28">
<path d="M0,0 L28,0 L28,28 L0,28 Z " fill="#040404" transform="translate(0,0)"/>
<path d="M0,0 L6,0 L9,3 L9,10 L8,14 L8,16 L3,18 L-1,20 L-6,20 L-8,15 L-6,10 L4,13 L6,8 L6,4 L-1,3 Z " fill="#EBEBEB" transform="translate(13,3)"/>
<path d="M0,0 L3,1 L6,6 L1,8 L0,6 L-2,7 Z " fill="#9D9D9D" transform="translate(7,13)"/>
<path d="M0,0 L6,0 L8,3 L6,4 L-1,3 Z " fill="#D3D3D3" transform="translate(13,3)"/>
</svg>
