<?xml version="1.0" encoding="UTF-8"?>
<svg version="1.1" xmlns="http://www.w3.org/2000/svg" width="28" height="28">
<path d="M0,0 L28,0 L28,28 L0,28 Z " fill="#020202" transform="translate(0,0)"/>
<path d="M0,0 L5,1 L6,2 L6,10 L8,11 L8,13 L2,13 L-5,17 L-11,17 L-10,12 L-6,9 L3,9 L4,2 L0,3 Z " fill="#EFEFEF" transform="translate(16,4)"/>
<path d="M0,0 L5,1 L6,2 L6,10 L8,11 L8,13 L1,13 L1,10 L-1,9 L3,9 L4,2 L0,3 Z " fill="#CDCDCD" transform="translate(16,4)"/>
<path d="M0,0 L4,1 L-1,4 L-5,3 Z " fill="#1F1F1F" transform="translate(12,15)"/>
<path d="M0,0 L2,1 L2,3 L-2,5 L-1,7 L-4,7 L-5,4 Z " fill="#C6C6C6" transform="translate(10,13)"/>
</svg>
