<?xml version="1.0" encoding="UTF-8"?>
<svg version="1.1" xmlns="http://www.w3.org/2000/svg" width="28" height="28">
<path d="M0,0 L28,0 L28,28 L0,28 Z " fill="#040404" transform="translate(0,0)"/>
<path d="M0,0 L4,1 L6,2 L6,11 L4,13 L7,15 L6,16 L-4,18 L-13,19 L-12,13 L-3,12 L1,13 L1,11 L3,11 L4,6 L-2,6 L-3,4 Z " fill="#EEEEEE" transform="translate(16,3)"/>
<path d="M0,0 L6,0 L6,1 L1,1 L2,5 L-4,5 L-3,1 Z " fill="#ABABAB" transform="translate(7,15)"/>
<path d="M0,0 L2,0 L3,6 L0,8 L-2,6 L0,6 Z " fill="#BFBFBF" transform="translate(19,8)"/>
</svg>
