<?xml version="1.0" encoding="UTF-8"?>
<svg version="1.1" xmlns="http://www.w3.org/2000/svg" width="28" height="28">
<path d="M0,0 L28,0 L28,28 L0,28 Z " fill="#010101" transform="translate(0,0)"/>
<path d="M0,0 L5,0 L6,1 L5,9 L3,12 L6,15 L10,17 L6,18 L2,15 L-3,16 L-9,17 L-10,13 L-3,10 L1,9 L4,2 L-4,5 L-8,6 L-4,2 Z " fill="#CDCDCD" transform="translate(15,5)"/>
<path d="M0,0 L5,0 L6,1 L5,9 L2,8 L4,2 L-4,5 L-8,6 L-4,2 Z " fill="#C7C7C7" transform="translate(15,5)"/>
<path d="M0,0 L4,1 L4,5 L-2,6 L-3,2 Z " fill="#7D7D7D" transform="translate(8,16)"/>
</svg>
