<?xml version="1.0" encoding="UTF-8"?>
<svg version="1.1" xmlns="http://www.w3.org/2000/svg" width="28" height="28">
<path d="M0,0 L28,0 L28,28 L0,28 Z " fill="#030303" transform="translate(0,0)"/>
<path d="M0,0 L7,3 L8,8 L5,15 L12,13 L16,12 L15,15 L8,18 L1,17 L2,13 L4,6 L-1,3 L-1,5 L-4,5 L-4,2 Z " fill="#E2E2E2" transform="translate(10,5)"/>
<path d="M0,0 L0,3 L-6,5 L-11,4 L-10,2 L-4,2 Z " fill="#B4B4B4" transform="translate(25,17)"/>
<path d="M0,0 L4,2 L2,4 L-1,3 L-1,5 L-4,5 L-4,2 Z " fill="#EFEFEF" transform="translate(10,5)"/>
</svg>
