<?xml version="1.0" encoding="UTF-8"?>
<svg version="1.1" xmlns="http://www.w3.org/2000/svg" width="28" height="28">
<path d="M0,0 L28,0 L28,28 L0,28 Z " fill="#020202" transform="translate(0,0)"/>
<path d="M0,0 L5,1 L8,5 L9,10 L12,13 L6,13 L2,17 L-7,18 L-8,13 L-1,10 L5,9 L4,4 L-1,2 Z " fill="#BDBDBD" transform="translate(13,4)"/>
<path d="M0,0 L5,1 L8,5 L9,10 L12,13 L6,13 L3,16 L1,15 L3,11 L5,9 L4,4 L-1,2 Z " fill="#CFCFCF" transform="translate(13,4)"/>
<path d="M0,0 L6,0 L4,3 L-4,4 L-3,1 Z " fill="#141414" transform="translate(11,16)"/>
</svg>
