<?xml version="1.0" encoding="UTF-8"?>
<svg version="1.1" xmlns="http://www.w3.org/2000/svg" width="28" height="28">
<path d="M0,0 L28,0 L28,28 L0,28 Z " fill="#030303" transform="translate(0,0)"/>
<path d="M0,0 L7,1 L9,4 L8,13 L6,18 L-1,20 L-6,20 L-9,17 L-8,10 L-5,7 L1,7 L5,11 L5,4 L-1,3 L-2,6 L-3,3 Z " fill="#E8E8E8" transform="translate(14,4)"/>
<path d="M0,0 L5,1 L6,7 L2,9 L-2,8 L-2,2 Z " fill="#151515" transform="translate(10,13)"/>
<path d="M0,0 L7,1 L8,4 L7,10 L6,10 L5,4 L-1,3 L-2,6 L-3,3 Z " fill="#CBCBCB" transform="translate(14,4)"/>
<path d="M0,0 L2,1 L0,4 L-1,10 L-4,7 L-2,2 Z " fill="#CECECE" transform="translate(9,11)"/>
</svg>
