<?xml version="1.0" encoding="UTF-8"?>
<svg version="1.1" xmlns="http://www.w3.org/2000/svg" width="28" height="28">
<path d="M0,0 L28,0 L28,28 L0,28 Z " fill="#030303" transform="translate(0,0)"/>
<path d="M0,0 L6,0 L8,2 L8,10 L6,15 L6,20 L3,20 L3,17 L-2,19 L-8,19 L-9,15 L-5,12 L4,12 L5,3 L1,3 L1,5 L-2,5 L-2,1 Z " fill="#E7E7E7" transform="translate(13,3)"/>
<path d="M0,0 L5,2 L5,6 L-1,6 L-2,2 Z " fill="#BDBDBD" transform="translate(6,16)"/>
<path d="M0,0 L3,1 L5,3 L1,3 L1,5 L-2,5 L-2,1 Z " fill="#D3D3D3" transform="translate(13,3)"/>
</svg>
