<?xml version="1.0" encoding="UTF-8"?>
<svg version="1.1" xmlns="http://www.w3.org/2000/svg" width="28" height="28">
<path d="M0,0 L28,0 L28,28 L0,28 Z " fill="#030303" transform="translate(0,0)"/>
<path d="M0,0 L7,0 L10,5 L9,12 L8,16 L8,18 L3,19 L2,20 L-3,20 L-3,18 L-5,18 L-5,13 L-3,11 L6,12 L7,4 L2,4 L1,6 L-1,6 L-2,2 Z " fill="#E6E6E6" transform="translate(11,4)"/>
<path d="M0,0 L6,1 L6,4 L5,6 L-2,7 L-2,2 Z " fill="#CACACA" transform="translate(8,15)"/>
<path d="M0,0 L6,0 L6,2 L1,3 L0,4 L-5,4 L-4,1 Z " fill="#CFCFCF" transform="translate(13,20)"/>
<path d="M0,0 L4,2 L3,4 L-2,5 L-1,1 Z " fill="#1A1A1A" transform="translate(10,17)"/>
</svg>
