<?xml version="1.0" encoding="UTF-8"?>
<svg version="1.1" xmlns="http://www.w3.org/2000/svg" width="28" height="28">
<path d="M0,0 L28,0 L28,28 L0,28 Z " fill="#030303" transform="translate(0,0)"/>
<path d="M0,0 L2,1 L2,8 L0,12 L-1,20 L-3,18 L-2,16 L-5,18 L-10,18 L-9,15 L-9,17 L-5,15 L-4,13 L-7,12 L-2,12 L-1,5 L-4,6 L-2,2 L0,2 Z " fill="#CDCDCD" transform="translate(17,4)"/>
<path d="M0,0 L6,0 L6,8 L4,6 L5,4 L2,6 L-3,6 L-2,3 L-2,5 L2,3 L3,1 Z " fill="#E6E6E6" transform="translate(10,16)"/>
<path d="M0,0 L5,0 L3,4 L0,4 Z " fill="#3E3E3E" transform="translate(8,17)"/>
</svg>
