<?xml version="1.0" encoding="UTF-8"?>
<svg version="1.1" xmlns="http://www.w3.org/2000/svg" width="28" height="28">
<path d="M0,0 L28,0 L28,28 L0,28 Z " fill="#020202" transform="translate(0,0)"/>
<path d="M0,0 L6,1 L8,3 L7,11 L8,14 L3,16 L-2,20 L-7,20 L-9,18 L-8,14 L-2,11 L4,11 L3,3 L-4,4 L-3,1 Z " fill="#C9C9C9" transform="translate(14,4)"/>
<path d="M0,0 L2,0 L3,4 L2,8 L-5,9 L-7,7 L-6,3 Z " fill="#D1D1D1" transform="translate(12,15)"/>
<path d="M0,0 L3,3 L3,5 L-2,7 L-6,9 L-5,2 Z " fill="#E1E1E1" transform="translate(19,13)"/>
<path d="M0,0 L3,0 L1,4 L-3,6 L-3,2 Z " fill="#181818" transform="translate(12,17)"/>
</svg>
