<?xml version="1.0" encoding="UTF-8"?>
<svg version="1.1" xmlns="http://www.w3.org/2000/svg" width="28" height="28">
<path d="M0,0 L28,0 L28,28 L0,28 Z " fill="#040404" transform="translate(0,0)"/>
<path d="M0,0 L1,2 L4,2 L5,10 L4,18 L-2,19 L-8,20 L-9,15 L-5,11 L2,11 L2,4 L-3,9 L-5,9 L-4,5 Z " fill="#F3F3F3" transform="translate(16,3)"/>
<path d="M0,0 L1,2 L4,2 L5,10 L2,10 L2,4 L-3,9 L-5,9 L-4,5 Z " fill="#E0E0E0" transform="translate(16,3)"/>
<path d="M0,0 L2,0 L2,7 L-4,7 L-5,5 Z " fill="#1C1C1C" transform="translate(16,7)"/>
<path d="M0,0 L5,0 L3,4 L-2,5 Z " fill="#171717" transform="translate(11,16)"/>
<path d="M0,0 L7,0 L4,2 L0,3 L-3,7 L-4,4 Z " fill="#D5D5D5" transform="translate(11,14)"/>
</svg>
