<?xml version="1.0" encoding="UTF-8"?>
<svg version="1.1" xmlns="http://www.w3.org/2000/svg" width="28" height="28">
<path d="M0,0 L28,0 L28,28 L0,28 Z " fill="#030303" transform="translate(0,0)"/>
<path d="M0,0 L6,1 L9,4 L10,13 L10,18 L6,19 L5,20 L-5,20 L-6,16 L-3,13 L4,13 L7,14 L5,4 L0,3 L0,6 L-3,7 L-3,2 Z " fill="#D7D7D7" transform="translate(12,3)"/>
<path d="M0,0 L7,0 L8,3 L3,7 L-2,7 L-3,3 Z " fill="#D9D9D9" transform="translate(9,16)"/>
<path d="M0,0 L1,0 L1,6 L-2,9 L-7,9 L-3,4 L0,3 Z " fill="#F1F1F1" transform="translate(19,14)"/>
<path d="M0,0 L7,0 L5,3 L0,3 Z " fill="#111111" transform="translate(10,18)"/>
</svg>
