<?xml version="1.0" encoding="UTF-8"?>
<svg version="1.1" xmlns="http://www.w3.org/2000/svg" width="28" height="28">
<path d="M0,0 L28,0 L28,28 L0,28 Z " fill="#020202" transform="translate(0,0)"/>
<path d="M0,0 L4,1 L5,3 L5,10 L1,18 L-1,20 L-5,19 L-7,16 L-6,12 L-3,9 L2,8 Z " fill="#DDDDDD" transform="translate(15,3)"/>
<path d="M0,0 L2,0 L3,5 L7,3 L6,7 L2,8 L-1,4 Z " fill="#E8E8E8" transform="translate(9,15)"/>
<path d="M0,0 L3,0 L2,5 L-1,6 L-2,2 Z " fill="#222222" transform="translate(13,14)"/>
</svg>
