<?xml version="1.0" encoding="UTF-8"?>
<svg version="1.1" xmlns="http://www.w3.org/2000/svg" width="28" height="28">
<path d="M0,0 L28,0 L28,28 L0,28 Z " fill="#030303" transform="translate(0,0)"/>
<path d="M0,0 L4,2 L4,9 L1,14 L1,19 L-1,19 L-1,17 L-7,20 L-12,19 L-12,14 L-7,10 L-3,11 L0,11 L2,3 L-2,6 L-4,6 L-4,3 Z " fill="#DCDCDC" transform="translate(17,3)"/>
<path d="M0,0 L4,2 L4,9 L1,12 L2,3 L-2,6 L-4,6 L-4,3 Z " fill="#E3E3E3" transform="translate(17,3)"/>
<path d="M0,0 L5,1 L4,4 L1,6 L-2,6 L-1,1 Z " fill="#1D1D1D" transform="translate(9,15)"/>
</svg>
