<?xml version="1.0" encoding="UTF-8"?>
<svg version="1.1" xmlns="http://www.w3.org/2000/svg" width="28" height="28">
<path d="M0,0 L28,0 L28,28 L0,28 Z " fill="#030303" transform="translate(0,0)"/>
<path d="M0,0 L9,1 L14,2 L11,7 L8,10 L8,17 L10,17 L10,19 L6,19 L5,13 L-2,19 L-6,19 L-4,15 L6,8 L8,8 L9,5 L11,5 L11,3 L5,5 L0,5 L-1,1 Z " fill="#CFCFCF" transform="translate(10,5)"/>
<path d="M0,0 L4,1 L8,3 L5,5 L0,5 L-1,1 Z " fill="#B9B9B9" transform="translate(10,5)"/>
<path d="M0,0 L2,0 L1,4 L-1,6 L-5,6 L-3,2 Z " fill="#E6E6E6" transform="translate(9,18)"/>
</svg>
