<?xml version="1.0" encoding="UTF-8"?>
<svg version="1.1" xmlns="http://www.w3.org/2000/svg" width="28" height="28">
<path d="M0,0 L28,0 L28,28 L0,28 Z " fill="#020202" transform="translate(0,0)"/>
<path d="M0,0 L5,0 L7,3 L7,13 L2,16 L-3,20 L-6,19 L-6,13 L-4,11 L4,11 L4,2 L2,2 L2,5 L-2,5 L-1,1 Z " fill="#A0A0A0" transform="translate(13,5)"/>
<path d="M0,0 L5,0 L7,3 L6,9 L5,9 L4,2 L2,2 L2,5 L-2,5 L-1,1 Z " fill="#DBDBDB" transform="translate(13,5)"/>
<path d="M0,0 L5,0 L1,1 L0,6 L3,6 L3,8 L-1,9 L-2,8 L-2,2 Z " fill="#D3D3D3" transform="translate(9,16)"/>
</svg>
