<?xml version="1.0" encoding="UTF-8"?>
<svg version="1.1" xmlns="http://www.w3.org/2000/svg" width="28" height="28">
<path d="M0,0 L28,0 L28,28 L0,28 Z " fill="#030303" transform="translate(0,0)"/>
<path d="M0,0 L6,0 L8,3 L9,10 L12,12 L12,14 L7,12 L4,17 L0,20 L-4,20 L-4,13 L0,9 L4,8 L4,4 L-2,5 L-4,3 Z " fill="#EBEBEB" transform="translate(12,4)"/>
<path d="M0,0 L4,1 L3,5 L1,8 L-1,8 L-2,5 L-4,6 L-2,1 Z " fill="#CBCBCB" transform="translate(12,13)"/>
<path d="M0,0 L3,1 L4,3 L-2,5 L-4,3 Z " fill="#C7C7C7" transform="translate(12,4)"/>
<path d="M0,0 L2,0 L1,5 L-2,6 L-1,1 Z " fill="#282828" transform="translate(13,15)"/>
</svg>
