<?xml version="1.0" encoding="UTF-8"?>
<svg version="1.1" xmlns="http://www.w3.org/2000/svg" width="28" height="28">
<path d="M0,0 L28,0 L28,28 L0,28 Z " fill="#020202" transform="translate(0,0)"/>
<path d="M0,0 L4,0 L3,4 L-3,11 L-3,16 L-1,19 L-5,18 L-5,14 L-10,17 L-14,17 L-14,13 L-8,9 L-2,7 L2,1 Z " fill="#D2D2D2" transform="translate(19,6)"/>
<path d="M0,0 L2,1 L0,5 L-2,8 L-6,8 L-6,4 Z " fill="#737373" transform="translate(11,15)"/>
<path d="M0,0 L5,1 L5,3 L-2,5 L-1,1 Z " fill="#C5C5C5" transform="translate(13,5)"/>
</svg>
