<?xml version="1.0" encoding="UTF-8"?>
<svg version="1.1" xmlns="http://www.w3.org/2000/svg" width="28" height="28">
<path d="M0,0 L28,0 L28,28 L0,28 Z " fill="#030303" transform="translate(0,0)"/>
<path d="M0,0 L6,0 L9,4 L9,11 L8,16 L11,17 L11,19 L5,17 L-1,20 L-6,19 L-7,16 L-2,10 L4,11 L6,12 L6,6 L4,3 L-2,3 L-3,5 L-3,2 Z " fill="#D7D7D7" transform="translate(12,4)"/>
<path d="M0,0 L6,0 L9,4 L9,11 L8,11 L7,6 L4,3 L-2,3 L-3,5 L-3,2 Z " fill="#CFCFCF" transform="translate(12,4)"/>
<path d="M0,0 L7,1 L7,3 L4,5 L-2,5 L-1,1 Z " fill="#151515" transform="translate(9,17)"/>
</svg>
