<?xml version="1.0" encoding="UTF-8"?>
<svg version="1.1" xmlns="http://www.w3.org/2000/svg" width="28" height="28">
<path d="M0,0 L28,0 L28,28 L0,28 Z " fill="#020202" transform="translate(0,0)"/>
<path d="M0,0 L5,0 L7,2 L7,10 L4,15 L11,16 L10,19 L-5,20 L-4,17 L0,15 L3,10 L4,3 L-2,4 L-2,2 L0,2 Z " fill="#CFCFCF" transform="translate(11,3)"/>
<path d="M0,0 L5,0 L7,2 L7,10 L5,10 L5,3 L-2,4 L-2,2 L0,2 Z " fill="#DCDCDC" transform="translate(11,3)"/>
<path d="M0,0 L1,0 L2,9 L-1,12 L-3,10 L-1,7 Z " fill="#AFAFAF" transform="translate(15,6)"/>
</svg>
