<?xml version="1.0" encoding="UTF-8"?>
<svg version="1.1" xmlns="http://www.w3.org/2000/svg" width="28" height="28">
<path d="M0,0 L28,0 L28,28 L0,28 Z " fill="#040404" transform="translate(0,0)"/>
<path d="M0,0 L9,0 L13,4 L13,16 L6,19 L0,19 L-3,17 L-2,12 L0,11 L6,11 L10,12 L10,3 L2,2 L0,7 L-2,6 L-1,1 Z " fill="#CECECE" transform="translate(9,4)"/>
<path d="M0,0 L9,0 L13,4 L13,16 L9,16 L10,12 L10,3 L2,2 L0,7 L-2,6 L-1,1 Z " fill="#E2E2E2" transform="translate(9,4)"/>
<path d="M0,0 L7,1 L7,3 L5,4 L-1,4 L-2,1 Z " fill="#1A1A1A" transform="translate(10,17)"/>
<path d="M0,0 L5,4 L4,9 L2,5 L2,3 L-1,2 Z " fill="#CBCBCB" transform="translate(17,4)"/>
</svg>
