<?xml version="1.0" encoding="UTF-8"?>
<svg version="1.1" xmlns="http://www.w3.org/2000/svg" width="28" height="28">
<path d="M0,0 L28,0 L28,28 L0,28 Z " fill="#020202" transform="translate(0,0)"/>
<path d="M0,0 L4,1 L5,3 L6,13 L7,18 L9,18 L9,20 L6,19 L4,16 L0,19 L-4,18 L-5,12 L-3,10 L3,10 L2,3 L0,3 L-1,8 L-3,7 L-2,1 Z " fill="#DDDDDD" transform="translate(13,4)"/>
<path d="M0,0 L2,0 L2,5 L5,4 L7,1 L10,2 L11,7 L13,7 L13,9 L10,8 L8,5 L4,8 L0,7 L-1,1 Z " fill="#E3E3E3" transform="translate(9,15)"/>
<path d="M0,0 L3,1 L3,8 L-2,8 L-1,1 Z " fill="#232323" transform="translate(13,6)"/>
<path d="M0,0 L4,0 L3,4 L-1,4 Z " fill="#0F0F0F" transform="translate(11,16)"/>
</svg>
