<?xml version="1.0" encoding="UTF-8"?>
<svg version="1.1" xmlns="http://www.w3.org/2000/svg" width="28" height="28">
<path d="M0,0 L28,0 L28,28 L0,28 Z " fill="#030303" transform="translate(0,0)"/>
<path d="M0,0 L4,1 L3,6 L-2,12 L5,12 L4,15 L-3,15 L-8,14 L-15,14 L-13,10 L-12,9 L-3,8 L-1,6 L-4,5 L-3,1 Z " fill="#E6E6E6" transform="translate(18,5)"/>
<path d="M0,0 L4,1 L3,6 L-4,5 L-3,1 Z " fill="#B5B5B5" transform="translate(18,5)"/>
<path d="M0,0 L5,0 L3,1 L3,4 L-1,4 Z " fill="#E6E6E6" transform="translate(15,6)"/>
</svg>
