<?xml version="1.0" encoding="UTF-8"?>
<svg version="1.1" xmlns="http://www.w3.org/2000/svg" width="28" height="28">
<path d="M0,0 L28,0 L28,28 L0,28 Z " fill="#040404" transform="translate(0,0)"/>
<path d="M0,0 L4,1 L3,7 L-1,12 L-2,17 L-4,17 L-5,15 L-11,18 L-16,17 L-15,12 L-12,10 L-3,10 L0,6 L-6,7 L-5,3 Z " fill="#D9D9D9" transform="translate(19,5)"/>
<path d="M0,0 L4,1 L3,7 L-2,12 L-2,9 L0,6 L-6,7 L-5,3 Z " fill="#EBEBEB" transform="translate(19,5)"/>
<path d="M0,0 L4,1 L1,4 L-4,5 L-2,1 Z " fill="#171717" transform="translate(9,16)"/>
<path d="M0,0 L4,0 L4,6 L2,6 L1,4 L-1,4 Z " fill="#F2F2F2" transform="translate(13,16)"/>
<path d="M0,0 L3,1 L4,6 L0,9 L0,6 L1,3 L-1,1 Z " fill="#A6A6A6" transform="translate(17,8)"/>
</svg>
