<?xml version="1.0" encoding="UTF-8"?>
<svg version="1.1" xmlns="http://www.w3.org/2000/svg" width="28" height="28">
<path d="M0,0 L28,0 L28,28 L0,28 Z " fill="#030303" transform="translate(0,0)"/>
<path d="M0,0 L5,0 L4,6 L-2,13 L-4,13 L-4,15 L4,14 L4,16 L1,17 L-9,17 L-14,18 L-15,14 L-11,11 L-4,11 L0,7 L0,5 L-6,6 L-5,3 Z " fill="#EAEAEA" transform="translate(18,4)"/>
<path d="M0,0 L6,1 L5,5 L0,7 L-4,6 L-3,2 Z " fill="#BFBFBF" transform="translate(7,15)"/>
<path d="M0,0 L5,0 L4,4 L4,1 L1,2 L2,6 L0,5 L-6,6 L-5,3 Z " fill="#BEBEBE" transform="translate(18,4)"/>
</svg>
