<?xml version="1.0" encoding="UTF-8"?>
<svg version="1.1" xmlns="http://www.w3.org/2000/svg" width="28" height="28">
<path d="M0,0 L28,0 L28,28 L0,28 Z " fill="#030303" transform="translate(0,0)"/>
<path d="M0,0 L4,1 L6,3 L7,12 L14,13 L16,14 L15,15 L1,16 L2,13 L-1,14 L-2,16 L-4,16 L-2,12 L3,12 L3,4 L-1,1 Z " fill="#C1C1C1" transform="translate(10,4)"/>
<path d="M0,0 L2,3 L0,3 L0,5 L-3,4 L-2,2 L-5,3 L-6,5 L-8,5 L-6,1 Z " fill="#E7E7E7" transform="translate(14,15)"/>
<path d="M0,0 L4,1 L6,3 L6,9 L4,5 L-1,1 Z " fill="#DEDEDE" transform="translate(10,4)"/>
</svg>
