<?xml version="1.0" encoding="UTF-8"?>
<svg version="1.1" xmlns="http://www.w3.org/2000/svg" width="28" height="28">
<path d="M0,0 L28,0 L28,28 L0,28 Z " fill="#030303" transform="translate(0,0)"/>
<path d="M0,0 L7,0 L13,2 L14,6 L10,12 L7,13 L7,15 L16,15 L16,18 L13,19 L0,20 L0,16 L4,12 L8,11 L10,7 L11,4 L1,4 Z " fill="#DFDFDF" transform="translate(7,4)"/>
<path d="M0,0 L7,0 L7,3 L7,4 L1,4 Z " fill="#BDBDBD" transform="translate(7,4)"/>
<path d="M0,0 L9,0 L9,3 L6,4 L5,2 L0,1 Z " fill="#B0B0B0" transform="translate(14,19)"/>
</svg>
