<?xml version="1.0" encoding="UTF-8"?>
<svg version="1.1" xmlns="http://www.w3.org/2000/svg" width="28" height="28">
<path d="M0,0 L28,0 L28,28 L0,28 Z " fill="#040404" transform="translate(0,0)"/>
<path d="M0,0 L6,0 L14,6 L16,13 L9,17 L5,20 L0,19 L-1,14 L6,11 L12,11 L9,6 L5,3 L-1,4 L-2,6 L-4,6 L-2,1 Z " fill="#E4E4E4" transform="translate(8,4)"/>
<path d="M0,0 L6,1 L6,3 L4,3 L5,6 L2,8 L-3,7 L-4,2 Z " fill="#E7E7E7" transform="translate(11,16)"/>
<path d="M0,0 L4,1 L3,5 L0,6 L0,4 L-3,4 L-2,1 Z " fill="#7C7C7C" transform="translate(12,18)"/>
</svg>
