<?xml version="1.0" encoding="UTF-8"?>
<svg version="1.1" xmlns="http://www.w3.org/2000/svg" width="28" height="28">
<path d="M0,0 L28,0 L28,28 L0,28 Z " fill="#030303" transform="translate(0,0)"/>
<path d="M0,0 L5,1 L5,8 L3,13 L11,13 L10,16 L0,15 L-3,18 L-8,17 L-9,12 L-6,9 L1,8 L1,2 Z " fill="#E0E0E0" transform="translate(14,3)"/>
<path d="M0,0 L5,2 L5,7 L3,9 L-2,8 L-3,3 Z " fill="#D8D8D8" transform="translate(8,12)"/>
<path d="M0,0 L4,2 L2,6 L-3,5 L-1,1 Z " fill="#717171" transform="translate(8,12)"/>
</svg>
