<?xml version="1.0" encoding="UTF-8"?>
<svg version="1.1" xmlns="http://www.w3.org/2000/svg" width="28" height="28">
<path d="M0,0 L28,0 L28,28 L0,28 Z " fill="#020202" transform="translate(0,0)"/>
<path d="M0,0 L5,1 L9,6 L10,8 L10,18 L9,20 L3,20 L2,17 L0,17 L1,12 L6,12 L7,13 L7,7 L4,3 L-1,3 Z " fill="#FAFAFA" transform="translate(9,3)"/>
<path d="M0,0 L5,0 L7,3 L6,6 L-1,5 Z " fill="#858585" transform="translate(10,15)"/>
<path d="M0,0 L5,1 L8,4 L7,7 L4,3 L-1,3 Z " fill="#D3D3D3" transform="translate(9,3)"/>
<path d="M0,0 L2,2 L6,2 L7,5 L1,5 Z " fill="#E0E0E0" transform="translate(11,18)"/>
</svg>
