<?xml version="1.0" encoding="UTF-8"?>
<svg version="1.1" xmlns="http://www.w3.org/2000/svg" width="28" height="28">
<path d="M0,0 L28,0 L28,28 L0,28 Z " fill="#030303" transform="translate(0,0)"/>
<path d="M0,0 L4,1 L3,8 L0,12 L-1,15 L4,13 L4,15 L-5,18 L-7,20 L-13,20 L-15,18 L-14,13 L-7,12 L-3,11 L1,3 L-3,4 L-3,1 Z " fill="#EBEBEB" transform="translate(19,3)"/>
<path d="M0,0 L9,0 L8,3 L5,5 L5,8 L-1,8 L-3,6 L-2,1 Z " fill="#CACACA" transform="translate(7,15)"/>
<path d="M0,0 L5,1 L5,4 L4,6 L-2,6 Z " fill="#696969" transform="translate(8,17)"/>
<path d="M0,0 L4,1 L3,8 L1,4 L-3,4 L-3,1 Z " fill="#C5C5C5" transform="translate(19,3)"/>
</svg>
