<?xml version="1.0" encoding="UTF-8"?>
<svg version="1.1" xmlns="http://www.w3.org/2000/svg" width="28" height="28">
<path d="M0,0 L28,0 L28,28 L0,28 Z " fill="#030303" transform="translate(0,0)"/>
<path d="M0,0 L4,1 L3,9 L0,15 L4,14 L1,17 L-8,20 L-13,20 L-15,18 L-14,13 L-7,13 L-3,14 L0,5 L-3,4 L-5,3 L-5,1 Z " fill="#EEEEEE" transform="translate(19,3)"/>
<path d="M0,0 L7,0 L11,2 L8,2 L8,4 L2,5 L1,7 L-1,5 Z " fill="#A2A2A2" transform="translate(5,16)"/>
<path d="M0,0 L4,1 L3,9 L1,10 L0,4 L-5,3 L-5,1 Z " fill="#C4C4C4" transform="translate(19,3)"/>
</svg>
