<?xml version="1.0" encoding="UTF-8"?>
<svg version="1.1" xmlns="http://www.w3.org/2000/svg" width="28" height="28">
<path d="M0,0 L28,0 L28,28 L0,28 Z " fill="#030303" transform="translate(0,0)"/>
<path d="M0,0 L9,2 L15,7 L16,9 L16,16 L14,19 L7,19 L5,17 L5,10 L10,9 L13,11 L11,7 L4,3 L0,2 Z " fill="#F0F0F0" transform="translate(5,4)"/>
<path d="M0,0 L9,2 L15,7 L16,10 L15,14 L13,13 L12,8 L4,3 L0,2 Z " fill="#CFCFCF" transform="translate(5,4)"/>
<path d="M0,0 L4,1 L5,6 L1,7 L0,6 Z " fill="#1C1C1C" transform="translate(12,15)"/>
<path d="M0,0 L6,1 L7,4 L1,2 L1,7 L-1,8 L-1,1 Z " fill="#D1D1D1" transform="translate(11,13)"/>
</svg>
