<?xml version="1.0" encoding="UTF-8"?>
<svg version="1.1" xmlns="http://www.w3.org/2000/svg" width="28" height="28">
<path d="M0,0 L28,0 L28,28 L0,28 Z " fill="#040404" transform="translate(0,0)"/>
<path d="M0,0 L4,1 L3,6 L-1,11 L0,16 L5,16 L3,19 L-2,18 L-3,14 L-10,19 L-15,18 L-14,14 L-10,11 L-3,9 L1,4 L-4,5 L-7,6 L-7,3 Z " fill="#D6D6D6" transform="translate(19,3)"/>
<path d="M0,0 L4,1 L3,6 L0,8 L-5,7 L-4,3 Z " fill="#B0B0B0" transform="translate(9,14)"/>
<path d="M0,0 L5,0 L8,5 L13,5 L11,8 L6,7 L5,3 L2,4 L2,1 Z " fill="#EFEFEF" transform="translate(11,14)"/>
</svg>
