<?xml version="1.0" encoding="UTF-8"?>
<svg version="1.1" xmlns="http://www.w3.org/2000/svg" width="28" height="28">
<path d="M0,0 L28,0 L28,28 L0,28 Z " fill="#020202" transform="translate(0,0)"/>
<path d="M0,0 L5,1 L7,4 L7,19 L6,16 L0,20 L-3,20 L-3,15 L0,13 L5,13 L5,6 L4,3 L0,2 L1,6 L-2,4 L-2,1 Z " fill="#BFBFBF" transform="translate(12,4)"/>
<path d="M0,0 L4,1 L3,5 L0,7 L-3,7 L-3,2 Z " fill="#939393" transform="translate(12,17)"/>
<path d="M0,0 L1,0 L1,14 L0,11 L-3,11 L-1,6 Z " fill="#E2E2E2" transform="translate(18,9)"/>
</svg>
