<?xml version="1.0" encoding="UTF-8"?>
<svg version="1.1" xmlns="http://www.w3.org/2000/svg" width="28" height="28">
<path d="M0,0 L28,0 L28,28 L0,28 Z " fill="#040404" transform="translate(0,0)"/>
<path d="M0,0 L6,1 L7,2 L7,9 L4,15 L4,19 L-6,20 L-9,17 L-9,12 L-8,11 L-2,11 L3,14 L4,4 L0,4 L-1,7 L-4,7 L-3,3 Z " fill="#E2E2E2" transform="translate(15,4)"/>
<path d="M0,0 L6,0 L7,6 L0,8 L-1,1 Z " fill="#D3D3D3" transform="translate(7,15)"/>
<path d="M0,0 L5,0 L6,4 L2,5 L0,3 Z " fill="#131313" transform="translate(8,17)"/>
</svg>
