<?xml version="1.0" encoding="UTF-8"?>
<svg version="1.1" xmlns="http://www.w3.org/2000/svg" width="28" height="28">
<path d="M0,0 L28,0 L28,28 L0,28 Z " fill="#030303" transform="translate(0,0)"/>
<path d="M0,0 L5,1 L4,7 L2,9 L1,19 L-3,20 L-1,12 L-10,16 L-14,16 L-14,12 L-7,9 L0,7 L2,3 L-4,4 L-4,1 Z " fill="#EAEAEA" transform="translate(17,4)"/>
<path d="M0,0 L5,0 L1,1 L2,5 L-3,7 L-7,7 L-7,3 Z " fill="#C7C7C7" transform="translate(10,13)"/>
<path d="M0,0 L5,1 L4,6 L2,6 L2,3 L-4,4 L-4,1 Z " fill="#D1D1D1" transform="translate(17,4)"/>
</svg>
