<?xml version="1.0" encoding="UTF-8"?>
<svg version="1.1" xmlns="http://www.w3.org/2000/svg" width="28" height="28">
<path d="M0,0 L28,0 L28,28 L0,28 Z " fill="#030303" transform="translate(0,0)"/>
<path d="M0,0 L10,2 L13,6 L13,17 L14,20 L-2,20 L-4,15 L0,11 L6,10 L8,11 L8,6 L-1,3 Z " fill="#EBEBEB" transform="translate(9,3)"/>
<path d="M0,0 L2,1 L-2,8 L1,9 L-4,10 L-6,5 L-2,1 Z " fill="#F3F3F3" transform="translate(11,13)"/>
<path d="M0,0 L3,1 L2,4 L-2,5 L-1,1 Z " fill="#181818" transform="translate(11,16)"/>
</svg>
