<?xml version="1.0" encoding="UTF-8"?>
<svg version="1.1" xmlns="http://www.w3.org/2000/svg" width="28" height="28">
<path d="M0,0 L28,0 L28,28 L0,28 Z " fill="#020202" transform="translate(0,0)"/>
<path d="M0,0 L4,2 L5,4 L6,14 L10,19 L6,18 L4,16 L2,19 L0,18 L2,13 L-1,12 L3,12 L2,4 Z " fill="#B9B9B9" transform="translate(12,2)"/>
<path d="M0,0 L4,0 L3,5 L2,7 L-1,7 L-1,1 Z " fill="#626262" transform="translate(10,15)"/>
<path d="M0,0 L4,2 L5,4 L5,11 L4,11 L2,4 Z " fill="#E0E0E0" transform="translate(12,2)"/>
</svg>
