<?xml version="1.0" encoding="UTF-8"?>
<svg version="1.1" xmlns="http://www.w3.org/2000/svg" width="28" height="28">
<path d="M0,0 L28,0 L28,28 L0,28 Z " fill="#030303" transform="translate(0,0)"/>
<path d="M0,0 L3,0 L3,6 L0,10 L2,12 L-5,15 L-11,20 L-13,20 L-12,16 L-7,12 L-4,11 L2,2 L-2,4 L-7,9 L-9,10 L-8,6 L-2,1 Z " fill="#EBEBEB" transform="translate(19,5)"/>
<path d="M0,0 L2,0 L0,5 L-4,10 L-7,10 L-5,6 L-2,1 Z " fill="#1C1C1C" transform="translate(19,7)"/>
<path d="M0,0 L2,0 L0,5 L-1,6 L1,8 L0,9 L-5,9 L-3,4 Z " fill="#D5D5D5" transform="translate(20,9)"/>
</svg>
