<?xml version="1.0" encoding="UTF-8"?>
<svg version="1.1" xmlns="http://www.w3.org/2000/svg" width="28" height="28">
<path d="M0,0 L28,0 L28,28 L0,28 Z " fill="#030303" transform="translate(0,0)"/>
<path d="M0,0 L7,0 L9,3 L8,11 L7,14 L12,15 L14,16 L14,18 L3,17 L-1,20 L-4,19 L-3,15 L4,11 L6,3 L-3,3 L-3,1 Z " fill="#EDEDED" transform="translate(10,4)"/>
<path d="M0,0 L5,1 L7,2 L7,4 L2,3 L-3,2 Z " fill="#D0D0D0" transform="translate(17,18)"/>
<path d="M0,0 L3,0 L3,2 L5,3 L-3,3 L-3,1 Z " fill="#D7D7D7" transform="translate(10,4)"/>
</svg>
