<?xml version="1.0" encoding="UTF-8"?>
<svg version="1.1" xmlns="http://www.w3.org/2000/svg" width="28" height="28">
<path d="M0,0 L28,0 L28,28 L0,28 Z " fill="#030303" transform="translate(0,0)"/>
<path d="M0,0 L5,0 L7,3 L6,13 L11,16 L11,19 L6,17 L2,17 L-2,20 L-6,19 L-6,14 L-2,11 L3,11 L4,3 L-3,4 L-2,1 Z " fill="#CACACA" transform="translate(12,4)"/>
<path d="M0,0 L5,0 L7,3 L6,11 L3,11 L4,3 L-3,4 L-2,1 Z " fill="#ECECEC" transform="translate(12,4)"/>
<path d="M0,0 L2,0 L2,5 L3,7 L-1,6 L-1,1 Z " fill="#F1F1F1" transform="translate(7,17)"/>
</svg>
