<?xml version="1.0" encoding="UTF-8"?>
<svg version="1.1" xmlns="http://www.w3.org/2000/svg" width="28" height="28">
<path d="M0,0 L28,0 L28,28 L0,28 Z " fill="#030303" transform="translate(0,0)"/>
<path d="M0,0 L5,1 L7,3 L6,9 L4,15 L7,15 L7,18 L2,17 L-3,20 L-8,19 L-7,14 L-4,12 L1,12 L3,9 L3,3 L-1,3 L-1,5 L3,6 L1,8 L-4,7 L-3,3 Z " fill="#C2C2C2" transform="translate(14,4)"/>
<path d="M0,0 L5,1 L6,6 L3,3 L-1,3 L-1,5 L3,6 L1,8 L-4,7 L-3,3 Z " fill="#D1D1D1" transform="translate(14,4)"/>
<path d="M0,0 L5,1 L6,6 L3,3 L-2,3 Z " fill="#EAEAEA" transform="translate(14,4)"/>
<path d="M0,0 L3,1 L3,7 L1,4 L-2,3 L-2,1 Z " fill="#242424" transform="translate(15,6)"/>
</svg>
