<?xml version="1.0" encoding="UTF-8"?>
<svg version="1.1" xmlns="http://www.w3.org/2000/svg" width="28" height="28">
<path d="M0,0 L28,0 L28,28 L0,28 Z " fill="#030303" transform="translate(0,0)"/>
<path d="M0,0 L5,1 L5,8 L2,13 L5,16 L-2,18 L-5,20 L-10,19 L-9,14 L-6,12 L0,12 L2,9 L3,3 L-3,6 L-2,2 Z " fill="#CFCFCF" transform="translate(15,4)"/>
<path d="M0,0 L5,1 L5,8 L3,8 L3,3 L-3,6 L-2,2 Z " fill="#E5E5E5" transform="translate(15,4)"/>
<path d="M0,0 L4,0 L3,3 L-2,4 Z " fill="#151515" transform="translate(9,18)"/>
</svg>
