<?xml version="1.0" encoding="UTF-8"?>
<svg version="1.1" xmlns="http://www.w3.org/2000/svg" width="28" height="28">
<path d="M0,0 L28,0 L28,28 L0,28 Z " fill="#020202" transform="translate(0,0)"/>
<path d="M0,0 L5,0 L7,4 L6,10 L4,14 L4,16 L-1,18 L-5,20 L-7,18 L-6,12 L-4,12 L-4,10 L2,10 L4,4 L-3,4 L-2,1 Z " fill="#CBCBCB" transform="translate(14,4)"/>
<path d="M0,0 L4,1 L2,6 L2,9 L-2,9 L-3,5 L-2,2 L0,2 Z " fill="#A1A1A1" transform="translate(10,14)"/>
<path d="M0,0 L4,1 L5,5 L-2,6 Z " fill="#E9E9E9" transform="translate(13,15)"/>
</svg>
