<?xml version="1.0" encoding="UTF-8"?>
<svg version="1.1" xmlns="http://www.w3.org/2000/svg" width="28" height="28">
<path d="M0,0 L28,0 L28,28 L0,28 Z " fill="#040404" transform="translate(0,0)"/>
<path d="M0,0 L5,1 L6,9 L4,15 L-1,17 L-6,17 L-7,13 L-4,10 L1,11 L3,12 L3,2 L-1,5 L-4,5 L-2,1 Z " fill="#D9D9D9" transform="translate(13,4)"/>
<path d="M0,0 L4,1 L4,5 L-2,7 L-3,3 Z " fill="#848484" transform="translate(9,14)"/>
<path d="M0,0 L2,0 L1,4 L0,5 L-6,5 L-7,3 L-2,3 Z " fill="#D7D7D7" transform="translate(24,16)"/>
</svg>
