<?xml version="1.0" encoding="UTF-8"?>
<svg version="1.1" xmlns="http://www.w3.org/2000/svg" width="28" height="28">
<path d="M0,0 L28,0 L28,28 L0,28 Z " fill="#010101" transform="translate(0,0)"/>
<path d="M0,0 L5,1 L7,5 L7,18 L2,19 L0,20 L-6,20 L-8,18 L-7,14 L-6,13 L4,13 L4,3 L-2,5 L-1,1 Z " fill="#E1E1E1" transform="translate(13,3)"/>
<path d="M0,0 L9,0 L8,2 L9,5 L6,7 L0,7 L-2,5 L-1,1 Z " fill="#C6C6C6" transform="translate(7,16)"/>
<path d="M0,0 L6,0 L5,3 L1,4 Z " fill="#212121" transform="translate(8,18)"/>
</svg>
