<?xml version="1.0" encoding="UTF-8"?>
<svg version="1.1" xmlns="http://www.w3.org/2000/svg" width="28" height="28">
<path d="M0,0 L28,0 L28,28 L0,28 Z " fill="#030303" transform="translate(0,0)"/>
<path d="M0,0 L3,0 L4,11 L1,16 L-6,20 L-11,19 L-10,14 L-8,13 L0,13 L1,11 L1,3 L-4,5 L-2,1 Z " fill="#C1C1C1" transform="translate(17,4)"/>
<path d="M0,0 L3,0 L4,11 L1,16 L-3,17 L-3,14 L0,13 L1,11 L1,3 L-4,5 L-2,1 Z " fill="#DCDCDC" transform="translate(17,4)"/>
<path d="M0,0 L5,1 L2,4 L-2,5 L-1,1 Z " fill="#1B1B1B" transform="translate(10,18)"/>
</svg>
