<?xml version="1.0" encoding="UTF-8"?>
<svg version="1.1" xmlns="http://www.w3.org/2000/svg" width="28" height="28">
<path d="M0,0 L28,0 L28,28 L0,28 Z " fill="#040404" transform="translate(0,0)"/>
<path d="M0,0 L5,0 L5,3 L3,2 L3,11 L2,16 L-6,20 L-11,20 L-12,15 L-11,14 L-1,14 L0,5 L-6,7 L-4,3 Z " fill="#CCCCCC" transform="translate(17,4)"/>
<path d="M0,0 L11,0 L10,3 L5,6 L0,6 L-1,1 Z " fill="#A7A7A7" transform="translate(6,18)"/>
<path d="M0,0 L3,1 L-2,6 L-4,6 L-2,2 Z " fill="#F0F0F0" transform="translate(15,5)"/>
</svg>
