<?xml version="1.0" encoding="UTF-8"?>
<svg version="1.1" xmlns="http://www.w3.org/2000/svg" width="28" height="28">
<path d="M0,0 L28,0 L28,28 L0,28 Z " fill="#040404" transform="translate(0,0)"/>
<path d="M0,0 L10,0 L14,5 L14,10 L18,13 L12,14 L7,19 L2,20 L1,19 L1,13 L4,9 L11,9 L11,4 L2,2 L2,4 L-1,3 Z " fill="#DADADA" transform="translate(7,5)"/>
<path d="M0,0 L10,0 L13,3 L13,8 L11,4 L2,2 L2,4 L-1,3 Z " fill="#D2D2D2" transform="translate(7,5)"/>
<path d="M0,0 L6,1 L4,5 L-1,7 L-1,1 Z " fill="#111111" transform="translate(11,16)"/>
</svg>
