<?xml version="1.0" encoding="UTF-8"?>
<svg version="1.1" xmlns="http://www.w3.org/2000/svg" width="28" height="28">
<path d="M0,0 L28,0 L28,28 L0,28 Z " fill="#030303" transform="translate(0,0)"/>
<path d="M0,0 L5,0 L8,4 L8,11 L7,15 L8,17 L4,18 L3,20 L-5,20 L-6,16 L-2,13 L5,14 L5,5 L4,3 L0,2 Z " fill="#D8D8D8" transform="translate(12,3)"/>
<path d="M0,0 L5,0 L8,4 L8,11 L6,13 L4,3 L0,2 Z " fill="#D2D2D2" transform="translate(12,3)"/>
<path d="M0,0 L6,0 L4,4 L-1,4 Z " fill="#171717" transform="translate(9,18)"/>
<path d="M0,0 L1,0 L3,7 L-2,8 L-2,5 L-5,4 L0,4 Z " fill="#EEEEEE" transform="translate(17,13)"/>
</svg>
