<?xml version="1.0" encoding="UTF-8"?>
<svg version="1.1" xmlns="http://www.w3.org/2000/svg" width="28" height="28">
<path d="M0,0 L28,0 L28,28 L0,28 Z " fill="#040404" transform="translate(0,0)"/>
<path d="M0,0 L6,0 L11,5 L11,11 L18,12 L18,13 L9,14 L9,18 L7,18 L7,20 L3,19 L2,17 L7,12 L9,12 L7,5 L5,3 L-1,2 Z " fill="#F3F3F3" transform="translate(6,4)"/>
<path d="M0,0 L3,1 L4,5 L2,5 L2,7 L-2,6 L-3,4 Z " fill="#B7B7B7" transform="translate(11,17)"/>
<path d="M0,0 L6,0 L11,5 L10,7 L5,3 L-1,2 Z " fill="#DDDDDD" transform="translate(6,4)"/>
</svg>
