<?xml version="1.0" encoding="UTF-8"?>
<svg version="1.1" xmlns="http://www.w3.org/2000/svg" width="28" height="28">
<path d="M0,0 L28,0 L28,28 L0,28 Z " fill="#030303" transform="translate(0,0)"/>
<path d="M0,0 L5,1 L8,7 L9,18 L4,20 L-3,19 L-5,17 L-5,12 L-2,10 L5,11 L3,6 L-1,6 Z " fill="#E8E8E8" transform="translate(12,3)"/>
<path d="M0,0 L5,1 L8,7 L8,10 L6,10 L6,12 L4,11 L3,6 L-1,6 Z " fill="#E4E4E4" transform="translate(12,3)"/>
<path d="M0,0 L6,0 L7,3 L1,4 Z " fill="#272727" transform="translate(9,16)"/>
</svg>
