<?xml version="1.0" encoding="UTF-8"?>
<svg version="1.1" xmlns="http://www.w3.org/2000/svg" width="28" height="28">
<path d="M0,0 L28,0 L28,28 L0,28 Z " fill="#030303" transform="translate(0,0)"/>
<path d="M0,0 L3,0 L6,5 L8,12 L8,20 L6,20 L6,18 L0,19 L1,16 L-5,16 L-8,18 L-7,14 L-6,13 L1,13 L5,14 L3,9 L1,6 L-3,8 L-2,3 Z " fill="#DFDFDF" transform="translate(13,3)"/>
<path d="M0,0 L6,1 L7,5 L0,5 L-3,3 Z " fill="#B6B6B6" transform="translate(8,18)"/>
<path d="M0,0 L7,0 L9,2 L7,4 L1,3 L-2,5 L-1,1 Z " fill="#CCCCCC" transform="translate(7,16)"/>
<path d="M0,0 L6,1 L3,4 L-1,2 Z " fill="#0D0D0D" transform="translate(8,18)"/>
</svg>
