<?xml version="1.0" encoding="UTF-8"?>
<svg version="1.1" xmlns="http://www.w3.org/2000/svg" width="28" height="28">
<path d="M0,0 L28,0 L28,28 L0,28 Z " fill="#020202" transform="translate(0,0)"/>
<path d="M0,0 L6,0 L7,5 L3,15 L14,12 L14,14 L2,20 L-3,19 L-1,13 L2,5 L-6,5 L-5,2 Z " fill="#E5E5E5" transform="translate(12,5)"/>
<path d="M0,0 L2,0 L2,2 L-3,5 L-5,5 L-5,2 Z " fill="#D2D2D2" transform="translate(24,17)"/>
<path d="M0,0 L2,1 L1,5 L3,6 L0,6 L-1,4 L-3,5 L-2,1 Z " fill="#CBCBCB" transform="translate(14,15)"/>
</svg>
