<?xml version="1.0" encoding="UTF-8"?>
<svg version="1.1" xmlns="http://www.w3.org/2000/svg" width="28" height="28">
<path d="M0,0 L28,0 L28,28 L0,28 Z " fill="#040404" transform="translate(0,0)"/>
<path d="M0,0 L7,0 L10,2 L10,9 L8,12 L8,20 L5,20 L5,16 L-3,19 L-8,18 L-8,13 L-5,11 L5,10 L7,3 L-1,3 Z " fill="#EEEEEE" transform="translate(12,4)"/>
<path d="M0,0 L7,0 L10,2 L10,9 L7,7 L7,3 L-1,3 Z " fill="#E5E5E5" transform="translate(12,4)"/>
<path d="M0,0 L3,1 L-1,7 L-6,6 L-6,1 L-4,2 Z " fill="#8B8B8B" transform="translate(10,16)"/>
</svg>
