<?xml version="1.0" encoding="UTF-8"?>
<svg version="1.1" xmlns="http://www.w3.org/2000/svg" width="28" height="28">
<path d="M0,0 L28,0 L28,28 L0,28 Z " fill="#040404" transform="translate(0,0)"/>
<path d="M0,0 L6,0 L9,5 L7,13 L12,14 L12,16 L5,16 L5,14 L-2,18 L-7,18 L-8,13 L-6,11 L5,8 L5,2 L1,2 L1,4 L-2,4 L-2,1 Z " fill="#E9E9E9" transform="translate(12,4)"/>
<path d="M0,0 L8,1 L6,2 L7,5 L4,7 L-1,7 L-2,2 Z " fill="#DDDDDD" transform="translate(6,15)"/>
<path d="M0,0 L5,0 L0,4 L-3,4 L-2,1 Z " fill="#303030" transform="translate(9,16)"/>
</svg>
