<?xml version="1.0" encoding="UTF-8"?>
<svg version="1.1" xmlns="http://www.w3.org/2000/svg" width="28" height="28">
<path d="M0,0 L28,0 L28,28 L0,28 Z " fill="#030303" transform="translate(0,0)"/>
<path d="M0,0 L5,1 L6,5 L3,9 L3,15 L-3,15 L-10,20 L-14,19 L-13,13 L-8,9 L0,8 L3,3 L-6,6 L-5,2 Z " fill="#E2E2E2" transform="translate(18,4)"/>
<path d="M0,0 L5,1 L6,5 L4,7 L3,3 L-6,6 L-5,2 Z " fill="#DDDDDD" transform="translate(18,4)"/>
<path d="M0,0 L1,3 L6,0 L8,0 L7,3 L2,6 L-2,5 L-2,1 Z " fill="#E7E7E7" transform="translate(6,18)"/>
<path d="M0,0 L4,1 L-1,5 L-3,5 L-1,1 Z " fill="#2A2A2A" transform="translate(10,16)"/>
</svg>
