<?xml version="1.0" encoding="UTF-8"?>
<svg version="1.1" xmlns="http://www.w3.org/2000/svg" width="28" height="28">
<path d="M0,0 L28,0 L28,28 L0,28 Z " fill="#030303" transform="translate(0,0)"/>
<path d="M0,0 L8,1 L11,4 L11,10 L10,12 L12,13 L12,15 L6,17 L2,20 L-1,20 L-1,15 L2,12 L8,12 L8,5 L7,4 L-1,3 L-2,5 L-2,1 Z " fill="#F0F0F0" transform="translate(9,4)"/>
<path d="M0,0 L2,1 L5,4 L0,8 L-3,8 L-3,3 Z " fill="#C1C1C1" transform="translate(11,16)"/>
<path d="M0,0 L5,0 L5,3 L-1,3 L-2,5 L-2,1 Z " fill="#C3C3C3" transform="translate(9,4)"/>
</svg>
