<?xml version="1.0" encoding="UTF-8"?>
<svg version="1.1" xmlns="http://www.w3.org/2000/svg" width="28" height="28">
<path d="M0,0 L28,0 L28,28 L0,28 Z " fill="#020202" transform="translate(0,0)"/>
<path d="M0,0 L3,0 L5,4 L6,13 L11,14 L11,15 L5,15 L3,20 L0,19 L-2,13 L-1,12 L4,12 L2,2 L-1,3 L-2,5 L-4,5 L-2,1 Z " fill="#ABABAB" transform="translate(12,4)"/>
<path d="M0,0 L5,0 L6,5 L4,8 L1,7 L-1,1 Z " fill="#8B8B8B" transform="translate(11,16)"/>
<path d="M0,0 L1,0 L2,8 L7,9 L7,10 L0,10 L-1,8 Z " fill="#EDEDED" transform="translate(16,9)"/>
</svg>
