<?xml version="1.0" encoding="UTF-8"?>
<svg version="1.1" xmlns="http://www.w3.org/2000/svg" width="28" height="28">
<path d="M0,0 L28,0 L28,28 L0,28 Z " fill="#030303" transform="translate(0,0)"/>
<path d="M0,0 L8,1 L7,6 L4,7 L2,12 L-4,20 L-7,19 L0,9 L-6,12 L-10,12 L-9,7 Z " fill="#E5E5E5" transform="translate(16,6)"/>
<path d="M0,0 L4,2 L2,6 L-6,10 L-9,9 L-7,5 Z " fill="#D6D6D6" transform="translate(16,6)"/>
<path d="M0,0 L2,0 L0,4 L-9,7 L-4,2 Z " fill="#1E1E1E" transform="translate(18,8)"/>
</svg>
