<?xml version="1.0" encoding="UTF-8"?>
<svg version="1.1" xmlns="http://www.w3.org/2000/svg" width="28" height="28">
<path d="M0,0 L28,0 L28,28 L0,28 Z " fill="#010101" transform="translate(0,0)"/>
<path d="M0,0 L5,1 L6,5 L9,6 L8,19 L5,19 L5,13 L0,13 L-3,8 L-2,2 Z " fill="#CCCCCC" transform="translate(11,6)"/>
<path d="M0,0 L4,1 L3,5 L2,7 L4,8 L0,9 L-2,7 L-1,1 Z " fill="#1D1D1D" transform="translate(12,8)"/>
<path d="M0,0 L1,0 L2,9 L-1,9 L-1,1 Z " fill="#F5F5F5" transform="translate(17,16)"/>
<path d="M0,0 L5,0 L5,3 L-1,3 Z " fill="#CBCBCB" transform="translate(15,12)"/>
</svg>
