<?xml version="1.0" encoding="UTF-8"?>
<svg version="1.1" xmlns="http://www.w3.org/2000/svg" width="28" height="28">
<path d="M0,0 L28,0 L28,28 L0,28 Z " fill="#020202" transform="translate(0,0)"/>
<path d="M0,0 L4,0 L4,2 L8,4 L8,20 L4,19 L4,10 L-1,11 L-1,9 L2,7 L3,4 L-2,5 L-4,7 L-5,2 Z " fill="#EBEBEB" transform="translate(12,6)"/>
<path d="M0,0 L3,1 L4,0 L9,0 L8,4 L5,5 L5,7 L1,6 L0,5 Z " fill="#D4D4D4" transform="translate(6,10)"/>
<path d="M0,0 L5,0 L4,4 L-1,3 Z " fill="#0E0E0E" transform="translate(10,10)"/>
</svg>
