<?xml version="1.0" encoding="UTF-8"?>
<svg version="1.1" xmlns="http://www.w3.org/2000/svg" width="28" height="28">
<path d="M0,0 L28,0 L28,28 L0,28 Z " fill="#020202" transform="translate(0,0)"/>
<path d="M0,0 L4,1 L5,5 L2,11 L-3,20 L-5,20 L-4,15 L0,9 L-7,10 L-7,5 L-2,1 Z " fill="#DEDEDE" transform="translate(16,6)"/>
<path d="M0,0 L5,1 L4,4 L2,5 L0,9 L-5,9 L-5,4 Z " fill="#D4D4D4" transform="translate(14,7)"/>
<path d="M0,0 L3,0 L2,3 L-3,6 L-5,6 L-3,2 Z " fill="#1A1A1A" transform="translate(16,8)"/>
</svg>
