<?xml version="1.0" encoding="UTF-8"?>
<svg version="1.1" xmlns="http://www.w3.org/2000/svg" width="28" height="28">
<path d="M0,0 L28,0 L28,28 L0,28 Z " fill="#040404" transform="translate(0,0)"/>
<path d="M0,0 L6,0 L9,5 L11,2 L13,2 L12,7 L9,15 L9,20 L4,19 L6,11 L-4,11 L-5,10 L-5,3 Z " fill="#E7E7E7" transform="translate(10,6)"/>
<path d="M0,0 L6,0 L8,3 L8,6 L6,6 L5,4 L-2,4 L-2,8 L4,9 L4,11 L-4,11 L-5,10 L-5,3 Z " fill="#EBEBEB" transform="translate(10,6)"/>
<path d="M0,0 L5,1 L5,3 L7,4 L3,6 L-3,6 L-4,3 L-3,1 Z " fill="#232323" transform="translate(11,9)"/>
</svg>
