<?xml version="1.0" encoding="UTF-8"?>
<svg version="1.1" xmlns="http://www.w3.org/2000/svg" width="28" height="28">
<path d="M0,0 L28,0 L28,28 L0,28 Z " fill="#020202" transform="translate(0,0)"/>
<path d="M0,0 L4,0 L5,2 L5,14 L2,20 L0,20 L1,14 L1,11 L0,12 L-8,12 L-9,11 L-9,5 L-7,3 L-3,4 L-6,5 L-7,10 L1,7 L3,4 L-2,4 L-2,1 Z " fill="#E3E3E3" transform="translate(15,6)"/>
<path d="M0,0 L7,1 L5,5 L1,7 L-3,7 L-2,2 Z " fill="#272727" transform="translate(11,9)"/>
<path d="M0,0 L2,0 L3,5 L0,11 L-2,11 L-1,5 Z " fill="#C1C1C1" transform="translate(17,15)"/>
</svg>
