<?xml version="1.0" encoding="UTF-8"?>
<svg version="1.1" xmlns="http://www.w3.org/2000/svg" width="28" height="28">
<path d="M0,0 L28,0 L28,28 L0,28 Z " fill="#040404" transform="translate(0,0)"/>
<path d="M0,0 L3,0 L4,6 L0,14 L-4,20 L-5,16 L-2,10 L0,10 L0,8 L-5,10 L-8,10 L-8,5 L-3,1 Z " fill="#D8D8D8" transform="translate(16,7)"/>
<path d="M0,0 L3,0 L3,2 L-5,6 L-6,7 L-3,9 L-8,10 L-8,5 L-3,1 Z " fill="#ECECEC" transform="translate(16,7)"/>
<path d="M0,0 L4,1 L0,4 L-5,5 Z " fill="#1F1F1F" transform="translate(14,10)"/>
</svg>
