<?xml version="1.0" encoding="UTF-8"?>
<svg version="1.1" xmlns="http://www.w3.org/2000/svg" width="28" height="28">
<path d="M0,0 L28,0 L28,28 L0,28 Z " fill="#020202" transform="translate(0,0)"/>
<path d="M0,0 L4,0 L3,4 L-2,14 L-6,20 L-7,16 L-2,8 L-7,9 L-8,6 L-4,2 Z " fill="#D6D6D6" transform="translate(17,7)"/>
<path d="M0,0 L1,3 L-4,11 L-5,7 Z " fill="#E4E4E4" transform="translate(15,16)"/>
<path d="M0,0 L2,1 L-1,4 L-1,6 L-6,5 L-4,1 L-1,1 Z " fill="#A7A7A7" transform="translate(15,10)"/>
<path d="M0,0 L3,0 L3,2 L-6,6 L-4,2 Z " fill="#EEEEEE" transform="translate(17,7)"/>
</svg>
