<?xml version="1.0" encoding="UTF-8"?>
<svg version="1.1" xmlns="http://www.w3.org/2000/svg" width="28" height="28">
<path d="M0,0 L28,0 L28,28 L0,28 Z " fill="#020202" transform="translate(0,0)"/>
<path d="M0,0 L5,0 L8,3 L8,5 L4,9 L2,12 L-2,14 L-7,20 L-8,18 L-5,12 L-2,9 L-6,8 L-5,4 Z " fill="#DDDDDD" transform="translate(15,7)"/>
<path d="M0,0 L5,0 L8,3 L8,5 L2,7 L4,3 L-1,3 Z " fill="#E8E8E8" transform="translate(15,7)"/>
<path d="M0,0 L4,1 L1,5 L-4,4 Z " fill="#242424" transform="translate(16,9)"/>
</svg>
