<?xml version="1.0" encoding="UTF-8"?>
<svg version="1.1" xmlns="http://www.w3.org/2000/svg" width="28" height="28">
<path d="M0,0 L28,0 L28,28 L0,28 Z " fill="#010101" transform="translate(0,0)"/>
<path d="M0,0 L11,0 L12,4 L11,6 L9,6 L9,9 L7,9 L6,13 L1,20 L-1,20 L-1,15 L3,10 L-5,10 L-6,5 L-4,2 Z " fill="#D7D7D7" transform="translate(12,7)"/>
<path d="M0,0 L1,2 L0,5 L-2,5 L-3,9 L-8,16 L-10,16 L-10,11 L-6,6 L-12,6 L-13,4 L-4,2 Z " fill="#E9E9E9" transform="translate(21,11)"/>
<path d="M0,0 L5,0 L4,4 L0,6 L-6,6 L-4,2 Z " fill="#252525" transform="translate(15,9)"/>
</svg>
