<?xml version="1.0" encoding="UTF-8"?>
<svg version="1.1" xmlns="http://www.w3.org/2000/svg" width="28" height="28">
<path d="M0,0 L28,0 L28,28 L0,28 Z " fill="#030303" transform="translate(0,0)"/>
<path d="M0,0 L5,1 L3,10 L-1,20 L-4,20 L-2,12 L-9,10 L-8,5 L-4,1 Z " fill="#ECECEC" transform="translate(16,6)"/>
<path d="M0,0 L2,1 L1,6 L-2,9 L-9,10 L-8,5 L-4,1 Z " fill="#E0E0E0" transform="translate(16,6)"/>
<path d="M0,0 L2,0 L1,4 L0,6 L-7,6 L-2,1 Z " fill="#141414" transform="translate(16,8)"/>
</svg>
