<?xml version="1.0" encoding="UTF-8"?>
<svg version="1.1" xmlns="http://www.w3.org/2000/svg" width="28" height="28">
<path d="M0,0 L28,0 L28,28 L0,28 Z " fill="#030303" transform="translate(0,0)"/>
<path d="M0,0 L7,0 L8,3 L1,19 L-2,20 L-1,14 L-1,12 L-9,13 L-11,11 L-10,6 L-5,2 Z " fill="#DEDEDE" transform="translate(15,6)"/>
<path d="M0,0 L5,0 L6,3 L-1,19 L-4,20 L-3,14 L-3,12 L-5,12 L-5,9 L1,5 L2,2 L-1,1 Z " fill="#EDEDED" transform="translate(17,6)"/>
<path d="M0,0 L4,0 L2,4 L-3,7 L-8,7 L-6,3 Z " fill="#1C1C1C" transform="translate(15,9)"/>
</svg>
