<?xml version="1.0" encoding="UTF-8"?>
<svg version="1.1" xmlns="http://www.w3.org/2000/svg" width="28" height="28">
<path d="M0,0 L28,0 L28,28 L0,28 Z " fill="#010101" transform="translate(0,0)"/>
<path d="M0,0 L7,0 L9,1 L9,5 L7,5 L7,11 L5,20 L2,20 L1,15 L3,11 L-4,9 L-5,4 Z " fill="#E4E4E4" transform="translate(12,7)"/>
<path d="M0,0 L3,0 L2,9 L-1,9 L-2,4 Z " fill="#E0E0E0" transform="translate(15,18)"/>
<path d="M0,0 L5,0 L2,4 L-2,4 L-2,1 Z " fill="#131313" transform="translate(13,10)"/>
</svg>
