<?xml version="1.0" encoding="UTF-8"?>
<svg version="1.1" xmlns="http://www.w3.org/2000/svg" width="28" height="28">
<path d="M0,0 L28,0 L28,28 L0,28 Z " fill="#020202" transform="translate(0,0)"/>
<path d="M0,0 L5,0 L7,2 L6,10 L1,20 L-1,20 L0,13 L2,10 L-5,11 L-8,9 L-7,5 L-3,1 Z " fill="#EBEBEB" transform="translate(14,6)"/>
<path d="M0,0 L2,1 L4,3 L3,7 L1,8 L-5,8 L-6,7 L-8,9 L-7,5 L-3,1 Z " fill="#D3D3D3" transform="translate(14,6)"/>
<path d="M0,0 L4,0 L3,4 L-4,5 L-2,1 Z " fill="#141414" transform="translate(14,9)"/>
</svg>
