<?xml version="1.0" encoding="UTF-8"?>
<svg version="1.1" xmlns="http://www.w3.org/2000/svg" width="28" height="28">
<path d="M0,0 L28,0 L28,28 L0,28 Z " fill="#020202" transform="translate(0,0)"/>
<path d="M0,0 L7,0 L10,2 L10,4 L1,3 L0,8 L4,6 L5,4 L7,4 L6,20 L4,19 L3,10 L-2,9 L-3,4 Z " fill="#D3D3D3" transform="translate(11,7)"/>
<path d="M0,0 L7,0 L10,2 L10,4 L1,3 L-1,9 L-3,7 L-2,3 Z " fill="#C7C7C7" transform="translate(11,7)"/>
<path d="M0,0 L2,0 L1,5 L-6,6 L-6,4 L-1,2 Z " fill="#EAEAEA" transform="translate(16,11)"/>
</svg>
