<?xml version="1.0" encoding="UTF-8"?>
<svg version="1.1" xmlns="http://www.w3.org/2000/svg" width="28" height="28">
<path d="M0,0 L28,0 L28,28 L0,28 Z " fill="#020202" transform="translate(0,0)"/>
<path d="M0,0 L7,0 L7,7 L3,15 L1,15 L0,20 L-2,20 L-1,15 L4,7 L1,8 L-6,8 L-5,2 Z " fill="#E2E2E2" transform="translate(13,7)"/>
<path d="M0,0 L5,0 L5,2 L1,4 L-3,4 L-2,1 Z " fill="#1B1B1B" transform="translate(13,9)"/>
<path d="M0,0 L2,0 L2,2 L-2,6 L-4,7 L-3,1 Z " fill="#CACACA" transform="translate(11,8)"/>
</svg>
