<?xml version="1.0" encoding="UTF-8"?>
<svg version="1.1" xmlns="http://www.w3.org/2000/svg" width="28" height="28">
<path d="M0,0 L28,0 L28,28 L0,28 Z " fill="#010101" transform="translate(0,0)"/>
<path d="M0,0 L4,1 L5,5 L0,15 L-2,20 L-4,20 L-3,14 L0,8 L-6,8 L-6,4 Z " fill="#E7E7E7" transform="translate(15,7)"/>
<path d="M0,0 L4,1 L2,5 L-5,6 L-4,2 Z " fill="#727272" transform="translate(15,7)"/>
<path d="M0,0 L4,2 L-1,13 L-3,13 L-2,7 L0,1 Z " fill="#D0D0D0" transform="translate(14,14)"/>
</svg>
