<?xml version="1.0" encoding="UTF-8"?>
<svg version="1.1" xmlns="http://www.w3.org/2000/svg" width="28" height="28">
<path d="M0,0 L28,0 L28,28 L0,28 Z " fill="#010101" transform="translate(0,0)"/>
<path d="M0,0 L6,0 L7,1 L7,6 L0,20 L-3,19 L1,10 L-4,10 L-7,7 L-5,2 Z " fill="#E1E1E1" transform="translate(14,7)"/>
<path d="M0,0 L6,0 L5,3 L-1,3 L-3,4 L-4,8 L1,8 L1,9 L-5,9 L-7,5 L-4,1 Z " fill="#E4E4E4" transform="translate(14,7)"/>
<path d="M0,0 L6,0 L5,4 L1,6 L-3,6 L-2,1 Z " fill="#171717" transform="translate(13,9)"/>
<path d="M0,0 L1,0 L1,5 L-2,5 Z M-4,5 L-2,6 L-5,10 L-10,9 L-6,6 Z " fill="#C2C2C2" transform="translate(20,8)"/>
</svg>
