<?xml version="1.0" encoding="UTF-8"?>
<svg version="1.1" xmlns="http://www.w3.org/2000/svg" width="28" height="28">
<path d="M0,0 L28,0 L28,28 L0,28 Z " fill="#020202" transform="translate(0,0)"/>
<path d="M0,0 L9,0 L10,1 L9,8 L4,17 L3,20 L0,20 L1,15 L4,9 L-3,8 L-5,4 Z " fill="#D4D4D4" transform="translate(11,7)"/>
<path d="M0,0 L8,0 L6,3 L7,4 L7,10 L4,17 L1,17 L2,12 L5,6 L-1,3 Z " fill="#CACACA" transform="translate(10,10)"/>
<path d="M0,0 L8,0 L6,3 L-1,3 Z " fill="#0B0B0B" transform="translate(10,10)"/>
<path d="M0,0 L3,1 L2,4 L6,6 L0,6 L-2,2 Z " fill="#EBEBEB" transform="translate(8,9)"/>
</svg>
