<?xml version="1.0" encoding="UTF-8"?>
<svg version="1.1" xmlns="http://www.w3.org/2000/svg" width="28" height="28">
<path d="M0,0 L28,0 L28,28 L0,28 Z " fill="#020202" transform="translate(0,0)"/>
<path d="M0,0 L6,0 L7,4 L-4,20 L-5,17 L-1,10 L-7,10 L-7,5 Z " fill="#D8D8D8" transform="translate(15,7)"/>
<path d="M0,0 L2,0 L0,5 L-7,15 L-8,12 L-3,4 L-5,3 Z " fill="#F0F0F0" transform="translate(18,12)"/>
<path d="M0,0 L4,1 L-1,6 L-6,6 L-4,2 Z " fill="#141414" transform="translate(16,9)"/>
<path d="M0,0 L2,2 L-3,9 L-4,6 Z " fill="#D8D8D8" transform="translate(14,18)"/>
</svg>
