<?xml version="1.0" encoding="UTF-8"?>
<svg version="1.1" xmlns="http://www.w3.org/2000/svg" width="28" height="28">
<path d="M0,0 L28,0 L28,28 L0,28 Z " fill="#020202" transform="translate(0,0)"/>
<path d="M0,0 L4,0 L6,3 L8,20 L6,20 L4,13 L4,9 L-2,10 L-4,8 L-4,3 Z " fill="#CECECE" transform="translate(12,6)"/>
<path d="M0,0 L3,2 L5,19 L3,19 L2,16 L2,6 L0,6 Z " fill="#EDEDED" transform="translate(15,7)"/>
<path d="M0,0 L2,0 L2,5 L-3,6 L-2,2 Z " fill="#1F1F1F" transform="translate(13,8)"/>
</svg>
