<?xml version="1.0" encoding="UTF-8"?>
<svg version="1.1" xmlns="http://www.w3.org/2000/svg" width="28" height="28">
<path d="M0,0 L28,0 L28,28 L0,28 Z " fill="#000000" transform="translate(0,0)"/>
<path d="M0,0 L5,1 L7,3 L5,18 L4,20 L1,19 L2,9 L-2,8 L-3,2 Z " fill="#999999" transform="translate(11,7)"/>
<path d="M0,0 L5,1 L6,3 L3,4 L0,3 L0,7 L2,8 L-2,8 L-3,2 Z " fill="#E4E4E4" transform="translate(11,7)"/>
<path d="M0,0 L1,0 L1,12 L0,14 L-3,13 L-1,1 Z " fill="#E2E2E2" transform="translate(15,13)"/>
<path d="M0,0 L2,0 L1,6 L-1,8 L-1,1 Z " fill="#9F9F9F" transform="translate(20,10)"/>
</svg>
