<?xml version="1.0" encoding="UTF-8"?>
<svg version="1.1" xmlns="http://www.w3.org/2000/svg" width="28" height="28">
<path d="M0,0 L28,0 L28,28 L0,28 Z " fill="#010101" transform="translate(0,0)"/>
<path d="M0,0 L7,0 L8,6 L5,7 L2,13 L-2,20 L-6,19 L-4,14 L-2,11 L-6,9 L-6,4 Z " fill="#DADADA" transform="translate(15,6)"/>
<path d="M0,0 L7,0 L7,5 L6,3 L0,5 L-4,8 L-5,3 Z " fill="#E9E9E9" transform="translate(15,6)"/>
<path d="M0,0 L1,3 L0,6 L-4,5 L-4,3 Z " fill="#ECECEC" transform="translate(13,20)"/>
<path d="M0,0 L4,1 L-2,5 L-4,5 L-3,2 Z " fill="#282828" transform="translate(16,9)"/>
</svg>
