<?xml version="1.0" encoding="UTF-8"?>
<svg version="1.1" xmlns="http://www.w3.org/2000/svg" width="28" height="28">
<path d="M0,0 L28,0 L28,28 L0,28 Z " fill="#020202" transform="translate(0,0)"/>
<path d="M0,0 L4,1 L7,2 L7,14 L8,20 L6,20 L4,16 L4,8 L-1,12 L-5,12 L-6,8 L-3,2 Z " fill="#DFDFDF" transform="translate(13,6)"/>
<path d="M0,0 L2,0 L1,5 L4,5 L3,8 L-1,8 L-2,4 Z " fill="#E5E5E5" transform="translate(9,10)"/>
<path d="M0,0 L3,0 L2,4 L-3,6 L-2,2 Z " fill="#111111" transform="translate(13,9)"/>
</svg>
