<?xml version="1.0" encoding="UTF-8"?>
<svg version="1.1" xmlns="http://www.w3.org/2000/svg" width="28" height="28">
<path d="M0,0 L28,0 L28,28 L0,28 Z " fill="#030303" transform="translate(0,0)"/>
<path d="M0,0 L8,1 L11,8 L15,15 L15,19 L7,20 L3,19 L3,17 L12,18 L9,12 L6,8 L3,10 L-1,9 L-3,7 L-2,1 Z " fill="#EAEAEA" transform="translate(8,5)"/>
<path d="M0,0 L3,0 L7,7 L7,11 L-1,12 L-5,11 L-5,9 L4,10 L1,4 Z " fill="#DDDDDD" transform="translate(16,13)"/>
<path d="M0,0 L8,1 L6,2 L6,6 L0,7 L-2,4 L-2,1 Z " fill="#D9D9D9" transform="translate(8,5)"/>
<path d="M0,0 L4,1 L3,5 L0,5 Z " fill="#161616" transform="translate(9,7)"/>
</svg>
