<?xml version="1.0" encoding="UTF-8"?>
<svg version="1.1" xmlns="http://www.w3.org/2000/svg" width="28" height="28">
<path d="M0,0 L28,0 L28,28 L0,28 Z " fill="#020202" transform="translate(0,0)"/>
<path d="M0,0 L5,1 L5,8 L1,13 L-3,20 L-4,20 L-4,15 L-2,10 L-5,9 L-5,4 Z " fill="#CFCFCF" transform="translate(15,6)"/>
<path d="M0,0 L3,0 L2,4 L-4,14 L-5,14 L-5,9 L-3,6 L-2,1 Z " fill="#F1F1F1" transform="translate(16,12)"/>
<path d="M0,0 L3,0 L3,4 L-3,5 L-3,2 Z " fill="#181818" transform="translate(15,8)"/>
</svg>
