<?xml version="1.0" encoding="UTF-8"?>
<svg version="1.1" xmlns="http://www.w3.org/2000/svg" width="28" height="28">
<path d="M0,0 L28,0 L28,28 L0,28 Z " fill="#010101" transform="translate(0,0)"/>
<path d="M0,0 L5,1 L4,8 L1,11 L-4,20 L-7,20 L-5,15 L0,8 L-5,7 L-4,3 Z " fill="#B9B9B9" transform="translate(15,6)"/>
<path d="M0,0 L1,3 L-5,12 L-6,14 L-9,14 L-7,9 L-2,2 L-5,1 Z " fill="#DBDBDB" transform="translate(17,12)"/>
<path d="M0,0 L3,0 L3,4 L-2,4 Z " fill="#0C0C0C" transform="translate(15,8)"/>
</svg>
