<?xml version="1.0" encoding="UTF-8"?>
<svg version="1.1" xmlns="http://www.w3.org/2000/svg" width="28" height="28">
<path d="M0,0 L28,0 L28,28 L0,28 Z " fill="#020202" transform="translate(0,0)"/>
<path d="M0,0 L6,0 L7,5 L5,4 L5,2 L-1,4 L-1,7 L1,8 L9,8 L11,4 L11,12 L12,20 L10,20 L8,11 L0,11 L-4,8 L-4,3 Z " fill="#C7C7C7" transform="translate(10,7)"/>
<path d="M0,0 L6,0 L7,5 L5,4 L5,2 L-1,4 L-4,8 L-4,3 Z " fill="#BEBEBE" transform="translate(10,7)"/>
<path d="M0,0 L4,2 L10,3 L9,5 L3,5 L0,3 Z " fill="#E8E8E8" transform="translate(7,13)"/>
</svg>
