<?xml version="1.0" encoding="UTF-8"?>
<svg version="1.1" xmlns="http://www.w3.org/2000/svg" width="28" height="28">
<path d="M0,0 L28,0 L28,28 L0,28 Z " fill="#030303" transform="translate(0,0)"/>
<path d="M0,0 L5,0 L4,7 L3,8 L1,17 L3,17 L2,20 L0,20 L0,9 L-4,10 L-5,9 L-5,4 Z " fill="#DFDFDF" transform="translate(14,7)"/>
<path d="M0,0 L1,2 L-1,11 L1,11 L0,14 L-2,14 L-2,4 Z " fill="#E3E3E3" transform="translate(16,13)"/>
<path d="M0,0 L2,0 L1,4 L-4,6 L-2,2 Z " fill="#151515" transform="translate(14,9)"/>
</svg>
