<?xml version="1.0" encoding="UTF-8"?>
<svg version="1.1" xmlns="http://www.w3.org/2000/svg" width="28" height="28">
<path d="M0,0 L28,0 L28,28 L0,28 Z " fill="#040404" transform="translate(0,0)"/>
<path d="M0,0 L6,0 L10,4 L12,7 L11,14 L3,20 L-2,20 L-4,18 L-4,13 L-1,16 L4,15 L8,12 L9,7 L7,7 L7,9 L2,11 L-4,11 L-6,9 L-6,4 L-3,1 Z " fill="#DFDFDF" transform="translate(11,5)"/>
<path d="M0,0 L3,3 L10,2 L9,6 L2,7 L0,5 Z " fill="#CDCDCD" transform="translate(7,18)"/>
<path d="M0,0 L7,0 L7,3 L3,5 L-2,5 L-1,1 Z " fill="#070707" transform="translate(10,8)"/>
</svg>
