<?xml version="1.0" encoding="UTF-8"?>
<svg version="1.1" xmlns="http://www.w3.org/2000/svg" width="28" height="28">
<path d="M0,0 L28,0 L28,28 L0,28 Z " fill="#010101" transform="translate(0,0)"/>
<path d="M0,0 L7,0 L8,5 L2,16 L0,20 L-2,20 L-1,15 L2,9 L-3,8 L-4,3 Z " fill="#CBCBCB" transform="translate(13,7)"/>
<path d="M0,0 L5,0 L3,5 L-2,5 L-2,1 Z " fill="#0F0F0F" transform="translate(14,9)"/>
<path d="M0,0 L5,1 L4,6 L2,9 L0,9 L-1,6 L2,3 L3,1 Z " fill="#E5E5E5" transform="translate(16,8)"/>
</svg>
