<?xml version="1.0" encoding="UTF-8"?>
<svg version="1.1" xmlns="http://www.w3.org/2000/svg" width="28" height="28">
<path d="M0,0 L28,0 L28,28 L0,28 Z " fill="#020202" transform="translate(0,0)"/>
<path d="M0,0 L5,1 L3,2 L4,4 L4,10 L0,19 L-3,20 L-2,14 L-1,10 L-5,12 L-9,11 L-9,8 L-4,3 Z " fill="#E9E9E9" transform="translate(16,6)"/>
<path d="M0,0 L2,1 L2,2 L4,3 L-2,8 L-8,9 L-6,5 Z " fill="#A9A9A9" transform="translate(14,7)"/>
<path d="M0,0 L1,0 L1,5 L-3,7 L-2,1 Z " fill="#CECECE" transform="translate(16,19)"/>
</svg>
