<?xml version="1.0" encoding="UTF-8"?>
<svg version="1.1" xmlns="http://www.w3.org/2000/svg" width="28" height="28">
<path d="M0,0 L28,0 L28,28 L0,28 Z " fill="#010101" transform="translate(0,0)"/>
<path d="M0,0 L6,1 L6,8 L3,15 L2,20 L0,20 L1,12 L3,5 L1,7 L-3,6 L-1,1 Z " fill="#CCCCCC" transform="translate(12,7)"/>
<path d="M0,0 L2,1 L1,7 L-3,6 L-1,1 Z " fill="#A0A0A0" transform="translate(12,7)"/>
<path d="M0,0 L5,1 L4,5 L4,3 L2,3 L1,6 L-2,5 L0,4 Z " fill="#EBEBEB" transform="translate(13,7)"/>
</svg>
