<?xml version="1.0" encoding="UTF-8"?>
<svg version="1.1" xmlns="http://www.w3.org/2000/svg" width="28" height="28">
<path d="M0,0 L28,0 L28,28 L0,28 Z " fill="#030303" transform="translate(0,0)"/>
<path d="M0,0 L6,0 L9,2 L9,8 L7,8 L8,20 L6,20 L5,18 L5,10 L-3,11 L-5,9 L-5,4 Z " fill="#EEEEEE" transform="translate(11,7)"/>
<path d="M0,0 L6,0 L6,1 L0,3 L6,4 L1,11 L-4,10 L-5,9 L-5,4 Z " fill="#D0D0D0" transform="translate(11,7)"/>
<path d="M0,0 L5,0 L2,4 L-3,4 L-3,1 Z " fill="#111111" transform="translate(12,11)"/>
</svg>
