<?xml version="1.0" encoding="UTF-8"?>
<svg version="1.1" xmlns="http://www.w3.org/2000/svg" width="28" height="28">
<path d="M0,0 L28,0 L28,28 L0,28 Z " fill="#030303" transform="translate(0,0)"/>
<path d="M0,0 L6,0 L9,4 L8,7 L8,20 L5,19 L5,9 L-1,12 L-8,12 L-9,7 L-4,2 Z " fill="#EBEBEB" transform="translate(13,6)"/>
<path d="M0,0 L5,0 L3,5 L-1,8 L-8,8 L-7,4 Z " fill="#0F0F0F" transform="translate(14,8)"/>
<path d="M0,0 L6,0 L9,4 L7,7 L6,2 L-3,5 L-8,6 L-4,2 Z " fill="#DCDCDC" transform="translate(13,6)"/>
<path d="M0,0 L6,0 L9,4 L7,7 L6,2 L0,1 Z " fill="#BDBDBD" transform="translate(13,6)"/>
</svg>
