<?xml version="1.0" encoding="UTF-8"?>
<svg version="1.1" xmlns="http://www.w3.org/2000/svg" width="28" height="28">
<path d="M0,0 L28,0 L28,28 L0,28 Z " fill="#020202" transform="translate(0,0)"/>
<path d="M0,0 L5,0 L6,2 L6,9 L2,20 L0,20 L0,14 L2,9 L-5,10 L-6,9 L-6,4 L-3,1 Z " fill="#E1E1E1" transform="translate(14,7)"/>
<path d="M0,0 L2,0 L2,3 L0,3 L1,5 L4,6 L4,8 L-1,8 L-2,7 L-2,2 Z " fill="#F1F1F1" transform="translate(10,9)"/>
<path d="M0,0 L4,1 L1,4 L-3,5 L-4,2 Z " fill="#1F1F1F" transform="translate(14,10)"/>
<path d="M0,0 L2,0 L1,7 L-1,7 L-1,1 Z " fill="#BEBEBE" transform="translate(15,20)"/>
<path d="M0,0 L5,0 L4,3 L-2,4 L-3,1 Z " fill="#C1C1C1" transform="translate(14,7)"/>
</svg>
