<?xml version="1.0" encoding="UTF-8"?>
<svg version="1.1" xmlns="http://www.w3.org/2000/svg" width="28" height="28">
<path d="M0,0 L28,0 L28,28 L0,28 Z " fill="#020202" transform="translate(0,0)"/>
<path d="M0,0 L6,0 L7,6 L-1,18 L-5,20 L-1,13 L1,10 L-5,10 L-6,6 L-3,1 Z " fill="#E1E1E1" transform="translate(14,7)"/>
<path d="M0,0 L1,2 L5,2 L5,4 L2,4 L2,7 L0,7 L0,9 L2,9 L1,11 L-6,9 L-5,4 L-3,1 Z " fill="#CECECE" transform="translate(14,7)"/>
<path d="M0,0 L4,0 L4,2 L1,2 L1,5 L-5,6 L-3,2 Z " fill="#171717" transform="translate(15,9)"/>
</svg>
