<?xml version="1.0" encoding="UTF-8"?>
<svg version="1.1" xmlns="http://www.w3.org/2000/svg" width="28" height="28">
<path d="M0,0 L28,0 L28,28 L0,28 Z " fill="#020202" transform="translate(0,0)"/>
<path d="M0,0 L6,1 L10,3 L13,15 L14,19 L10,20 L8,15 L8,11 L-1,12 L-5,8 L-4,2 Z " fill="#E0E0E0" transform="translate(10,6)"/>
<path d="M0,0 L4,0 L7,12 L8,16 L4,17 L2,12 L2,8 L-3,8 L-1,5 Z " fill="#E6E6E6" transform="translate(16,9)"/>
<path d="M0,0 L5,1 L4,6 L-2,6 L-1,1 Z " fill="#131313" transform="translate(11,9)"/>
</svg>
