<?xml version="1.0" encoding="UTF-8"?>
<svg version="1.1" xmlns="http://www.w3.org/2000/svg" width="28" height="28">
<path d="M0,0 L28,0 L28,28 L0,28 Z " fill="#020202" transform="translate(0,0)"/>
<path d="M0,0 L5,1 L6,6 L2,14 L-3,20 L-5,20 L-3,16 L1,10 L-5,10 L-5,4 Z " fill="#E6E6E6" transform="translate(15,6)"/>
<path d="M0,0 L4,0 L3,4 L-1,6 L-4,6 L-2,2 Z " fill="#101010" transform="translate(15,8)"/>
<path d="M0,0 L5,1 L6,6 L4,5 L4,2 L-1,4 L-5,6 L-3,2 Z " fill="#BDBDBD" transform="translate(15,6)"/>
</svg>
