<?xml version="1.0" encoding="UTF-8"?>
<svg version="1.1" xmlns="http://www.w3.org/2000/svg" width="28" height="28">
<path d="M0,0 L28,0 L28,28 L0,28 Z " fill="#030303" transform="translate(0,0)"/>
<path d="M0,0 L6,0 L9,3 L11,8 L11,19 L8,20 L7,13 L4,15 L-1,14 L-6,8 L-5,4 Z " fill="#F3F3F3" transform="translate(10,6)"/>
<path d="M0,0 L5,1 L6,2 L6,8 L1,9 L-3,4 L-3,2 Z " fill="#1C1C1C" transform="translate(10,9)"/>
<path d="M0,0 L2,1 L1,4 L-1,4 L3,10 L7,11 L6,14 L1,13 L-4,7 L-3,3 Z " fill="#D5D5D5" transform="translate(8,7)"/>
</svg>
