<?xml version="1.0" encoding="UTF-8"?>
<svg version="1.1" xmlns="http://www.w3.org/2000/svg" width="28" height="28">
<path d="M0,0 L28,0 L28,28 L0,28 Z " fill="#020202" transform="translate(0,0)"/>
<path d="M0,0 L4,1 L5,4 L5,11 L7,11 L7,9 L9,9 L6,18 L5,20 L3,20 L4,14 L-2,13 L-3,11 L-3,3 Z " fill="#DBDBDB" transform="translate(12,5)"/>
<path d="M0,0 L2,0 L4,10 L-1,9 L-2,8 L-2,3 Z " fill="#0F0F0F" transform="translate(12,7)"/>
<path d="M0,0 L4,1 L6,12 L3,11 L2,2 L0,2 L-1,5 L-3,3 Z " fill="#B7B7B7" transform="translate(12,5)"/>
</svg>
