<?xml version="1.0" encoding="UTF-8"?>
<svg version="1.1" xmlns="http://www.w3.org/2000/svg" width="28" height="28">
<path d="M0,0 L28,0 L28,28 L0,28 Z " fill="#010101" transform="translate(0,0)"/>
<path d="M0,0 L5,1 L6,2 L5,13 L4,20 L2,20 L2,10 L-3,10 L-4,9 L-4,4 Z " fill="#C4C4C4" transform="translate(13,6)"/>
<path d="M0,0 L1,4 L-1,16 L-3,16 L-3,6 L-7,5 L-2,4 Z " fill="#DCDCDC" transform="translate(18,10)"/>
<path d="M0,0 L4,0 L3,6 L-2,6 L-1,1 Z " fill="#0E0E0E" transform="translate(13,8)"/>
</svg>
