<?xml version="1.0" encoding="UTF-8"?>
<svg version="1.1" xmlns="http://www.w3.org/2000/svg" width="28" height="28">
<path d="M0,0 L28,0 L28,28 L0,28 Z " fill="#010101" transform="translate(0,0)"/>
<path d="M0,0 L5,1 L7,2 L6,9 L5,20 L3,20 L3,11 L-3,11 L-4,10 L-3,3 Z " fill="#C9C9C9" transform="translate(12,7)"/>
<path d="M0,0 L5,1 L5,3 L0,4 L-1,9 L2,11 L-3,11 L-4,10 L-3,3 Z " fill="#CACACA" transform="translate(12,7)"/>
<path d="M0,0 L4,2 L2,7 L-2,8 L-3,4 Z " fill="#050505" transform="translate(13,9)"/>
</svg>
