<?xml version="1.0" encoding="UTF-8"?>
<svg version="1.1" xmlns="http://www.w3.org/2000/svg" width="28" height="28">
<path d="M0,0 L28,0 L28,28 L0,28 Z " fill="#020202" transform="translate(0,0)"/>
<path d="M0,0 L7,0 L8,6 L1,17 L-1,20 L-4,20 L-3,16 L-1,13 L-6,12 L-6,6 Z " fill="#EDEDED" transform="translate(14,6)"/>
<path d="M0,0 L4,1 L0,7 L-4,8 L-3,3 Z " fill="#171717" transform="translate(15,9)"/>
<path d="M0,0 L5,2 L1,4 L-4,7 L-5,12 L-6,12 L-6,6 Z " fill="#D3D3D3" transform="translate(14,6)"/>
</svg>
