<?xml version="1.0" encoding="UTF-8"?>
<svg version="1.1" xmlns="http://www.w3.org/2000/svg" width="28" height="28">
<path d="M0,0 L28,0 L28,28 L0,28 Z " fill="#030303" transform="translate(0,0)"/>
<path d="M0,0 L6,0 L6,7 L0,17 L-2,20 L-5,19 L-4,15 L-3,13 L-9,13 L-8,7 L-3,2 Z " fill="#ECECEC" transform="translate(16,6)"/>
<path d="M0,0 L2,1 L1,3 L4,4 L0,9 L-6,11 L-8,7 L-3,2 Z " fill="#DFDFDF" transform="translate(16,6)"/>
<path d="M0,0 L3,1 L-1,6 L-7,8 L-5,4 Z " fill="#151515" transform="translate(17,9)"/>
</svg>
