<?xml version="1.0" encoding="UTF-8"?>
<svg version="1.1" xmlns="http://www.w3.org/2000/svg" width="28" height="28">
<path d="M0,0 L28,0 L28,28 L0,28 Z " fill="#030303" transform="translate(0,0)"/>
<path d="M0,0 L5,0 L7,2 L6,9 L2,14 L-1,20 L-4,20 L-3,15 L-11,13 L-11,7 L-5,2 Z " fill="#E5E5E5" transform="translate(16,6)"/>
<path d="M0,0 L5,0 L7,2 L6,9 L2,14 L-1,20 L-4,20 L-3,15 L-5,12 L3,6 L4,3 L-3,5 L-3,1 Z " fill="#EAEAEA" transform="translate(16,6)"/>
<path d="M0,0 L2,0 L1,4 L-5,8 L-10,8 L-8,4 L-4,1 Z " fill="#171717" transform="translate(18,9)"/>
</svg>
