<?xml version="1.0" encoding="UTF-8"?>
<svg version="1.1" xmlns="http://www.w3.org/2000/svg" width="28" height="28">
<path d="M0,0 L28,0 L28,28 L0,28 Z " fill="#030303" transform="translate(0,0)"/>
<path d="M0,0 L5,0 L7,4 L6,8 L-3,20 L-5,20 L-4,15 L-2,15 L-2,13 L-8,13 L-9,12 L-9,7 L-5,2 Z " fill="#EBEBEB" transform="translate(16,6)"/>
<path d="M0,0 L3,0 L4,3 L-1,7 L-7,8 L-5,3 Z " fill="#151515" transform="translate(16,9)"/>
<path d="M0,0 L2,1 L-2,5 L-7,9 L-9,12 L-9,7 L-5,2 Z " fill="#D5D5D5" transform="translate(16,6)"/>
</svg>
