<?xml version="1.0" encoding="UTF-8"?>
<svg version="1.1" xmlns="http://www.w3.org/2000/svg" width="28" height="28">
<path d="M0,0 L28,0 L28,28 L0,28 Z " fill="#020202" transform="translate(0,0)"/>
<path d="M0,0 L8,0 L7,9 L4,20 L1,20 L2,14 L3,10 L-3,11 L-4,10 L-4,4 Z " fill="#DEDEDE" transform="translate(12,7)"/>
<path d="M0,0 L1,2 L0,5 L7,1 L9,0 L8,8 L6,16 L3,16 L4,10 L5,6 L-1,7 L-2,2 Z " fill="#EEEEEE" transform="translate(10,11)"/>
<path d="M0,0 L4,0 L3,4 L0,6 L-3,6 L-2,2 Z " fill="#2C2C2C" transform="translate(13,10)"/>
</svg>
