<?xml version="1.0" encoding="UTF-8"?>
<svg version="1.1" xmlns="http://www.w3.org/2000/svg" width="28" height="28">
<path d="M0,0 L28,0 L28,28 L0,28 Z " fill="#020202" transform="translate(0,0)"/>
<path d="M0,0 L6,0 L5,7 L-5,20 L-7,20 L-6,15 L-3,11 L-9,9 L-8,5 Z " fill="#EFEFEF" transform="translate(16,7)"/>
<path d="M0,0 L3,1 L3,5 L-1,8 L-6,8 L-7,7 L-9,9 L-8,5 Z " fill="#E9E9E9" transform="translate(16,7)"/>
<path d="M0,0 L3,1 L-1,4 L-6,4 L-3,1 Z " fill="#1D1D1D" transform="translate(17,10)"/>
<path d="M0,0 L2,1 L2,3 L5,5 L0,5 L-1,4 L-3,6 L-2,2 Z " fill="#C3C3C3" transform="translate(10,10)"/>
</svg>
