<?xml version="1.0" encoding="UTF-8"?>
<svg version="1.1" xmlns="http://www.w3.org/2000/svg" width="28" height="28">
<path d="M0,0 L28,0 L28,28 L0,28 Z " fill="#020202" transform="translate(0,0)"/>
<path d="M0,0 L2,0 L1,3 L-2,5 L5,4 L5,2 L7,2 L6,8 L4,13 L2,13 L0,18 L-2,18 L-1,14 L3,7 L-5,8 L-4,3 Z " fill="#E8E8E8" transform="translate(13,8)"/>
<path d="M0,0 L5,0 L5,4 L3,4 L3,6 L-1,8 L-5,7 L-1,4 Z " fill="#BCBCBC" transform="translate(15,6)"/>
<path d="M0,0 L2,0 L2,2 L0,2 L-2,7 L-4,7 L-3,3 Z " fill="#CFCFCF" transform="translate(15,19)"/>
<path d="M0,0 L2,0 L1,4 L-5,5 Z " fill="#191919" transform="translate(15,9)"/>
</svg>
