<?xml version="1.0" encoding="UTF-8"?>
<svg version="1.1" xmlns="http://www.w3.org/2000/svg" width="28" height="28">
<path d="M0,0 L28,0 L28,28 L0,28 Z " fill="#030303" transform="translate(0,0)"/>
<path d="M0,0 L7,0 L8,5 L3,3 L3,8 L-4,15 L-9,20 L-11,20 L-10,16 L-8,12 L-10,12 L-10,7 L-4,2 Z " fill="#E5E5E5" transform="translate(17,7)"/>
<path d="M0,0 L1,4 L-6,11 L-11,16 L-13,16 L-12,12 L-10,8 L-12,8 L-11,4 L-10,6 L-4,3 Z " fill="#EBEBEB" transform="translate(19,11)"/>
<path d="M0,0 Z M-2,1 L5,2 L1,7 L-4,8 L-6,7 L-4,3 Z " fill="#D9D9D9" transform="translate(13,9)"/>
<path d="M0,0 L3,1 L-1,5 L-5,5 L-5,3 Z " fill="#1B1B1B" transform="translate(15,11)"/>
</svg>
