<?xml version="1.0" encoding="UTF-8"?>
<svg version="1.1" xmlns="http://www.w3.org/2000/svg" width="28" height="28">
<path d="M0,0 L28,0 L28,28 L0,28 Z " fill="#020202" transform="translate(0,0)"/>
<path d="M0,0 L4,0 L5,5 L2,14 L1,20 L-1,20 L-1,13 L1,9 L-2,11 L-7,10 L-6,4 Z " fill="#D5D5D5" transform="translate(15,6)"/>
<path d="M0,0 L1,3 L-2,16 L-4,16 L-4,9 L-2,5 L-4,4 Z " fill="#DCDCDC" transform="translate(18,10)"/>
<path d="M0,0 L3,0 L2,4 L-1,7 L-5,7 L-4,3 Z " fill="#151515" transform="translate(15,8)"/>
</svg>
