<?xml version="1.0" encoding="UTF-8"?>
<svg version="1.1" xmlns="http://www.w3.org/2000/svg" width="28" height="28">
<path d="M0,0 L28,0 L28,28 L0,28 Z " fill="#020202" transform="translate(0,0)"/>
<path d="M0,0 L6,0 L7,5 L1,11 L-1,11 L-1,13 L-7,18 L-8,20 L-11,19 L-5,11 L-9,9 L-8,4 Z " fill="#DBDBDB" transform="translate(17,6)"/>
<path d="M0,0 L4,1 L-1,4 L-2,6 L3,5 L2,7 L-4,8 L-5,4 L-2,1 Z " fill="#E8E8E8" transform="translate(13,8)"/>
<path d="M0,0 L3,0 L1,4 L-3,9 L-6,8 Z " fill="#F0F0F0" transform="translate(12,17)"/>
<path d="M0,0 L5,0 L2,3 L-2,5 L-5,5 L-4,2 Z " fill="#292929" transform="translate(16,9)"/>
</svg>
