<?xml version="1.0" encoding="UTF-8"?>
<svg version="1.1" xmlns="http://www.w3.org/2000/svg" width="28" height="28">
<path d="M0,0 L28,0 L28,28 L0,28 Z " fill="#030303" transform="translate(0,0)"/>
<path d="M0,0 L4,0 L5,6 L-1,15 L-3,15 L-2,18 L-6,20 L-5,15 L-4,11 L-10,12 L-11,7 L-3,1 Z " fill="#E5E5E5" transform="translate(17,6)"/>
<path d="M0,0 L7,1 L6,4 L-2,8 L-6,9 L-5,4 Z " fill="#CFCFCF" transform="translate(12,8)"/>
<path d="M0,0 L2,0 L1,3 L-5,6 L-8,6 L-8,4 Z " fill="#1C1C1C" transform="translate(17,9)"/>
</svg>
