<?xml version="1.0" encoding="UTF-8"?>
<svg version="1.1" xmlns="http://www.w3.org/2000/svg" width="28" height="28">
<path d="M0,0 L28,0 L28,28 L0,28 Z " fill="#020202" transform="translate(0,0)"/>
<path d="M0,0 L4,2 L2,3 L0,20 L-2,20 L-3,12 L-5,14 L-10,13 L-9,6 L-4,2 Z " fill="#EBEBEB" transform="translate(18,6)"/>
<path d="M0,0 L4,2 L2,3 L1,11 L-1,7 L-6,12 L-8,12 L-7,8 Z " fill="#CECECE" transform="translate(18,6)"/>
<path d="M0,0 L2,0 L1,4 L-2,7 L-4,7 L-3,3 Z " fill="#131313" transform="translate(14,11)"/>
</svg>
