<?xml version="1.0" encoding="UTF-8"?>
<svg version="1.1" xmlns="http://www.w3.org/2000/svg" width="28" height="28">
<path d="M0,0 L28,0 L28,28 L0,28 Z " fill="#020202" transform="translate(0,0)"/>
<path d="M0,0 L4,0 L5,7 L1,10 L-1,10 L-1,12 L-9,19 L-13,20 L-11,16 L-6,10 L-10,9 L-10,8 L-2,7 L0,5 L-7,4 L-6,1 Z " fill="#E7E7E7" transform="translate(18,6)"/>
<path d="M0,0 L9,2 L6,6 L-3,6 L-1,1 Z " fill="#BCBCBC" transform="translate(10,8)"/>
<path d="M0,0 L7,0 L5,3 L-2,3 Z " fill="#0F0F0F" transform="translate(12,10)"/>
</svg>
