<?xml version="1.0" encoding="UTF-8"?>
<svg version="1.1" xmlns="http://www.w3.org/2000/svg" width="28" height="28">
<path d="M0,0 L28,0 L28,28 L0,28 Z " fill="#010101" transform="translate(0,0)"/>
<path d="M0,0 L6,0 L6,8 L-5,20 L-8,20 L-7,16 L-5,14 L-10,13 L-9,6 L-3,1 Z " fill="#E6E6E6" transform="translate(17,6)"/>
<path d="M0,0 L2,1 L-1,4 L6,3 L6,5 L-2,10 L-1,12 L-7,12 L-6,5 Z " fill="#E0E0E0" transform="translate(14,7)"/>
<path d="M0,0 L4,0 L4,2 L-3,6 L-6,5 Z " fill="#202020" transform="translate(16,10)"/>
</svg>
