<?xml version="1.0" encoding="UTF-8"?>
<svg version="1.1" xmlns="http://www.w3.org/2000/svg" width="28" height="28">
<path d="M0,0 L28,0 L28,28 L0,28 Z " fill="#020202" transform="translate(0,0)"/>
<path d="M0,0 L6,0 L6,4 L-1,4 L-5,6 L-6,9 L-1,7 L4,5 L3,9 L-2,13 L-3,15 L-5,15 L-5,17 L-7,17 L-7,20 L-11,20 L-10,16 L-8,16 L-8,12 L-9,8 L-6,3 Z " fill="#E7E7E7" transform="translate(17,6)"/>
<path d="M0,0 L7,1 L5,5 L5,2 L-1,6 L-5,6 L-4,2 Z " fill="#171717" transform="translate(16,9)"/>
<path d="M0,0 L7,1 L5,5 L5,2 L0,4 Z " fill="#4A4A4A" transform="translate(16,9)"/>
</svg>
