<?xml version="1.0" encoding="UTF-8"?>
<svg version="1.1" xmlns="http://www.w3.org/2000/svg" width="28" height="28">
<path d="M0,0 L28,0 L28,28 L0,28 Z " fill="#030303" transform="translate(0,0)"/>
<path d="M0,0 L6,0 L8,4 L5,10 L3,20 L0,20 L1,11 L2,9 L-3,9 L1,6 L5,2 L0,1 Z " fill="#EFEFEF" transform="translate(13,7)"/>
<path d="M0,0 L7,1 L7,4 L-1,9 L-5,8 L-4,3 Z " fill="#CDCDCD" transform="translate(11,7)"/>
<path d="M0,0 L7,0 L2,5 L-3,5 L-2,1 Z " fill="#0F0F0F" transform="translate(12,9)"/>
<path d="M0,0 L1,0 L0,11 L-3,11 L-2,2 Z " fill="#D3D3D3" transform="translate(16,16)"/>
</svg>
