<?xml version="1.0" encoding="UTF-8"?>
<svg version="1.1" xmlns="http://www.w3.org/2000/svg" width="28" height="28">
<path d="M0,0 L28,0 L28,28 L0,28 Z " fill="#030303" transform="translate(0,0)"/>
<path d="M0,0 L9,1 L10,2 L10,7 L6,14 L4,19 L1,20 L2,14 L5,9 L-1,9 L-3,6 L-2,1 Z " fill="#ECECEC" transform="translate(10,7)"/>
<path d="M0,0 L8,0 L6,4 L1,4 Z " fill="#101010" transform="translate(10,10)"/>
<path d="M0,0 L7,2 L7,3 L0,3 L-1,6 L-3,6 L-2,1 Z " fill="#B5B5B5" transform="translate(10,7)"/>
</svg>
