<?xml version="1.0" encoding="UTF-8"?>
<svg version="1.1" xmlns="http://www.w3.org/2000/svg" width="28" height="28">
<path d="M0,0 L28,0 L28,28 L0,28 Z " fill="#020202" transform="translate(0,0)"/>
<path d="M0,0 L7,1 L9,5 L4,11 L1,20 L-2,20 L-1,13 L0,12 L-6,10 L-7,5 L-2,1 Z " fill="#E6E6E6" transform="translate(14,7)"/>
<path d="M0,0 L5,0 L5,3 L3,7 L1,8 L-7,8 L-6,4 Z " fill="#D5D5D5" transform="translate(14,7)"/>
<path d="M0,0 L6,0 L4,4 L-3,5 L-1,1 Z " fill="#161616" transform="translate(13,10)"/>
</svg>
