<?xml version="1.0" encoding="UTF-8"?>
<svg version="1.1" xmlns="http://www.w3.org/2000/svg" width="28" height="28">
<path d="M0,0 L28,0 L28,28 L0,28 Z " fill="#020202" transform="translate(0,0)"/>
<path d="M0,0 L7,0 L8,4 L2,15 L-2,20 L-4,20 L-3,15 L1,10 L-5,10 L-7,8 L-6,4 Z " fill="#EBEBEB" transform="translate(14,7)"/>
<path d="M0,0 L5,2 L5,5 L1,8 L-1,8 L-1,10 L-6,9 L-7,5 L-2,1 Z " fill="#CBCBCB" transform="translate(14,7)"/>
<path d="M0,0 L6,0 L3,4 L-4,4 Z " fill="#0E0E0E" transform="translate(14,10)"/>
</svg>
