<?xml version="1.0" encoding="UTF-8"?>
<svg version="1.1" xmlns="http://www.w3.org/2000/svg" width="28" height="28">
<path d="M0,0 L28,0 L28,28 L0,28 Z " fill="#030303" transform="translate(0,0)"/>
<path d="M0,0 L9,0 L12,3 L11,7 L4,17 L2,20 L0,20 L1,14 L3,11 L-4,8 L-5,4 Z " fill="#EBEBEB" transform="translate(11,7)"/>
<path d="M0,0 L8,0 L8,3 L3,5 L-2,5 L-2,2 Z " fill="#545454" transform="translate(12,9)"/>
<path d="M0,0 L6,0 L6,2 L4,3 L-2,3 Z " fill="#030303" transform="translate(13,10)"/>
</svg>
