<?xml version="1.0" encoding="UTF-8"?>
<svg version="1.1" xmlns="http://www.w3.org/2000/svg" width="28" height="28">
<path d="M0,0 L28,0 L28,28 L0,28 Z " fill="#020202" transform="translate(0,0)"/>
<path d="M0,0 L4,0 L6,5 L6,19 L3,20 L3,13 L-3,12 L-4,11 L-4,4 Z " fill="#D6D6D6" transform="translate(13,6)"/>
<path d="M0,0 L2,2 L2,16 L-1,17 L-2,8 L-4,7 L-2,6 Z " fill="#EDEDED" transform="translate(17,9)"/>
<path d="M0,0 L3,0 L3,8 L-2,7 L-3,4 Z " fill="#1C1C1C" transform="translate(13,8)"/>
<path d="M0,0 L1,0 L2,8 L-1,9 Z " fill="#D1D1D1" transform="translate(17,17)"/>
</svg>
