<?xml version="1.0" encoding="UTF-8"?>
<svg version="1.1" xmlns="http://www.w3.org/2000/svg" width="28" height="28">
<path d="M0,0 L28,0 L28,28 L0,28 Z " fill="#020202" transform="translate(0,0)"/>
<path d="M0,0 L7,0 L9,2 L9,7 L4,13 L1,19 L-2,20 L-1,15 L1,11 L-6,8 L-6,4 Z " fill="#D9D9D9" transform="translate(13,7)"/>
<path d="M0,0 L5,0 L7,2 L7,7 L2,13 L-1,19 L-4,20 L-3,15 L0,7 L4,6 L3,3 L-1,1 Z " fill="#EAEAEA" transform="translate(15,7)"/>
<path d="M0,0 L5,0 L5,3 L3,4 L-4,4 L-3,1 Z " fill="#131313" transform="translate(14,10)"/>
</svg>
