<?xml version="1.0" encoding="UTF-8"?>
<svg version="1.1" xmlns="http://www.w3.org/2000/svg" width="28" height="28">
<path d="M0,0 L28,0 L28,28 L0,28 Z " fill="#030303" transform="translate(0,0)"/>
<path d="M0,0 L6,0 L7,3 L6,6 L1,11 L-5,18 L-6,20 L-9,20 L-7,15 L-3,10 L-7,9 L-6,4 Z " fill="#D2D2D2" transform="translate(16,7)"/>
<path d="M0,0 L6,0 L7,3 L6,6 L3,7 L3,4 L-1,4 L-5,8 L-2,9 L-7,9 L-6,4 Z " fill="#EEEEEE" transform="translate(16,7)"/>
<path d="M0,0 L3,1 L-2,5 L-7,5 L-3,1 Z " fill="#242424" transform="translate(18,9)"/>
<path d="M0,0 L0,3 L-3,8 L-6,8 L-4,3 Z " fill="#EBEBEB" transform="translate(13,19)"/>
</svg>
