<?xml version="1.0" encoding="UTF-8"?>
<svg version="1.1" xmlns="http://www.w3.org/2000/svg" width="28" height="28">
<path d="M0,0 L28,0 L28,28 L0,28 Z " fill="#030303" transform="translate(0,0)"/>
<path d="M0,0 L8,1 L13,5 L12,8 L10,8 L8,12 L3,16 L-3,18 L-7,18 L-6,15 L3,12 L7,8 L2,6 L-1,3 Z " fill="#E6E6E6" transform="translate(10,6)"/>
<path d="M0,0 L8,1 L13,6 L8,7 L2,3 Z " fill="#CECECE" transform="translate(10,6)"/>
<path d="M0,0 L6,1 L7,4 L2,3 Z " fill="#222222" transform="translate(12,8)"/>
</svg>
