<?xml version="1.0" encoding="UTF-8"?>
<svg version="1.1" xmlns="http://www.w3.org/2000/svg" width="28" height="28">
<path d="M0,0 L28,0 L28,28 L0,28 Z " fill="#030303" transform="translate(0,0)"/>
<path d="M0,0 L4,0 L2,9 L-2,15 L-4,20 L-6,20 L-5,14 L-4,11 L-8,11 L-7,5 L-2,1 Z " fill="#EBEBEB" transform="translate(17,6)"/>
<path d="M0,0 L4,0 L4,3 L0,3 L-2,7 L-4,8 L-5,6 L-7,7 L-5,3 Z " fill="#929292" transform="translate(17,6)"/>
<path d="M0,0 L4,0 L4,3 L-3,4 L-2,1 Z " fill="#EAEAEA" transform="translate(17,6)"/>
</svg>
