<?xml version="1.0" encoding="UTF-8"?>
<svg version="1.1" xmlns="http://www.w3.org/2000/svg" width="28" height="28">
<path d="M0,0 L28,0 L28,28 L0,28 Z " fill="#020202" transform="translate(0,0)"/>
<path d="M0,0 L3,1 L-1,3 L-1,6 L4,6 L7,5 L8,7 L8,17 L7,19 L5,19 L5,10 L-2,10 L-4,4 Z " fill="#DEDEDE" transform="translate(10,8)"/>
<path d="M0,0 L7,1 L10,4 L9,8 L6,8 L6,6 L3,8 L-3,8 L-2,4 L1,2 Z " fill="#B9B9B9" transform="translate(11,7)"/>
<path d="M0,0 L6,0 L7,2 L4,2 L3,5 L-3,5 L-2,1 Z " fill="#1B1B1B" transform="translate(11,10)"/>
</svg>
