<?xml version="1.0" encoding="UTF-8"?>
<svg version="1.1" xmlns="http://www.w3.org/2000/svg" width="28" height="28">
<path d="M0,0 L28,0 L28,28 L0,28 Z " fill="#030303" transform="translate(0,0)"/>
<path d="M0,0 L5,0 L7,2 L8,6 L8,14 L5,20 L3,20 L5,9 L0,14 L-4,12 L-4,4 Z " fill="#DBDBDB" transform="translate(12,6)"/>
<path d="M0,0 L2,1 L2,9 L-1,15 L-3,15 L-1,4 L-6,9 L-10,7 L-10,1 L-9,5 L-2,2 Z " fill="#E1E1E1" transform="translate(18,11)"/>
<path d="M0,0 L5,0 L2,6 L-2,7 L-1,1 Z " fill="#121212" transform="translate(12,9)"/>
</svg>
