<?xml version="1.0" encoding="UTF-8"?>
<svg version="1.1" xmlns="http://www.w3.org/2000/svg" width="28" height="28">
<path d="M0,0 L28,0 L28,28 L0,28 Z " fill="#010101" transform="translate(0,0)"/>
<path d="M0,0 L4,1 L4,3 L0,4 L-2,9 L4,5 L8,5 L13,11 L15,14 L15,17 L11,15 L8,12 L6,9 L2,11 L-3,11 L-5,9 L-4,3 Z " fill="#E0E0E0" transform="translate(10,6)"/>
<path d="M0,0 L1,3 L3,4 L-4,8 L-6,8 L-5,3 L-2,1 L0,2 Z " fill="#1F1F1F" transform="translate(14,7)"/>
<path d="M0,0 L4,1 L4,3 L-1,3 L-4,5 L-2,1 Z " fill="#D0D0D0" transform="translate(10,6)"/>
</svg>
