<?xml version="1.0" encoding="UTF-8"?>
<svg version="1.1" xmlns="http://www.w3.org/2000/svg" width="28" height="28">
<path d="M0,0 L28,0 L28,28 L0,28 Z " fill="#020202" transform="translate(0,0)"/>
<path d="M0,0 L6,0 L6,3 L-2,4 L-3,8 L6,5 L4,12 L3,20 L1,20 L0,14 L2,9 L-4,9 L-6,5 L-3,1 Z " fill="#C7C7C7" transform="translate(13,7)"/>
<path d="M0,0 L1,3 L-7,7 L-10,7 L-11,4 L-9,2 L-1,1 Z " fill="#1D1D1D" transform="translate(20,8)"/>
<path d="M0,0 L2,0 L1,4 L-7,4 L-4,2 Z " fill="#E8E8E8" transform="translate(17,12)"/>
</svg>
