<?xml version="1.0" encoding="UTF-8"?>
<svg version="1.1" xmlns="http://www.w3.org/2000/svg" width="28" height="28">
<path d="M0,0 L28,0 L28,28 L0,28 Z " fill="#010101" transform="translate(0,0)"/>
<path d="M0,0 L6,0 L8,3 L8,8 L7,9 L6,19 L3,20 L4,9 L-2,10 L-3,9 L-3,4 Z " fill="#C9C9C9" transform="translate(11,7)"/>
<path d="M0,0 L4,0 L4,2 L1,2 L-1,8 L3,7 L3,9 L-2,10 L-3,9 L-3,4 Z " fill="#D0D0D0" transform="translate(11,7)"/>
<path d="M0,0 L5,1 L0,6 L-2,6 Z " fill="#0F0F0F" transform="translate(12,9)"/>
</svg>
