<?xml version="1.0" encoding="UTF-8"?>
<svg version="1.1" xmlns="http://www.w3.org/2000/svg" width="28" height="28">
<path d="M0,0 L28,0 L28,28 L0,28 Z " fill="#020202" transform="translate(0,0)"/>
<path d="M0,0 L4,1 L4,7 L-1,15 L-3,20 L-6,20 L-5,15 L-3,11 L-8,10 L-7,5 L-3,1 Z " fill="#EBEBEB" transform="translate(16,6)"/>
<path d="M0,0 L4,2 L3,5 L0,7 L2,9 L-4,10 L-5,6 Z " fill="#AAAAAA" transform="translate(13,7)"/>
<path d="M0,0 L1,0 L1,5 L-3,6 L-2,1 Z " fill="#CDCDCD" transform="translate(13,20)"/>
</svg>
