<?xml version="1.0" encoding="UTF-8"?>
<svg version="1.1" xmlns="http://www.w3.org/2000/svg" width="28" height="28">
<path d="M0,0 L28,0 L28,28 L0,28 Z " fill="#020202" transform="translate(0,0)"/>
<path d="M0,0 L5,0 L6,3 L5,6 L6,8 L2,13 L-6,20 L-8,20 L-7,16 L-3,12 L-7,9 L-6,4 Z " fill="#E8E8E8" transform="translate(15,6)"/>
<path d="M0,0 L5,0 L6,3 L5,5 L3,5 L3,7 L1,8 L-5,8 L-7,7 L-5,3 Z " fill="#8E8E8E" transform="translate(15,6)"/>
<path d="M0,0 L4,1 L3,5 L-2,6 L0,3 Z " fill="#E4E4E4" transform="translate(17,6)"/>
</svg>
