<?xml version="1.0" encoding="UTF-8"?>
<svg version="1.1" xmlns="http://www.w3.org/2000/svg" width="28" height="28">
<path d="M0,0 L28,0 L28,28 L0,28 Z " fill="#040404" transform="translate(0,0)"/>
<path d="M0,0 L5,1 L8,6 L6,16 L9,15 L7,19 L4,19 L4,12 L-1,11 L-3,8 L-3,2 Z " fill="#DBDBDB" transform="translate(11,5)"/>
<path d="M0,0 L3,2 L1,12 L4,11 L2,15 L-1,15 L-1,8 L-4,7 L-1,6 Z " fill="#F1F1F1" transform="translate(16,9)"/>
<path d="M0,0 L3,1 L4,8 L-1,7 L-2,2 Z " fill="#111111" transform="translate(12,7)"/>
</svg>
