<?xml version="1.0" encoding="UTF-8"?>
<svg version="1.1" xmlns="http://www.w3.org/2000/svg" width="28" height="28">
<path d="M0,0 L28,0 L28,28 L0,28 Z " fill="#020202" transform="translate(0,0)"/>
<path d="M0,0 L7,0 L9,2 L9,5 L7,5 L7,3 L2,3 L-2,4 L-2,8 L3,8 L3,6 L6,6 L4,20 L0,19 L2,11 L-4,10 L-5,5 Z " fill="#CDCDCD" transform="translate(13,6)"/>
<path d="M0,0 L3,0 L1,14 L-3,13 L-1,4 L-3,3 L0,2 Z " fill="#ECECEC" transform="translate(16,12)"/>
<path d="M0,0 L5,1 L5,3 L7,4 L4,5 L1,4 L1,6 L-4,6 L-4,2 Z " fill="#1B1B1B" transform="translate(15,8)"/>
<path d="M0,0 L4,1 L-1,4 L-3,7 L-3,2 Z " fill="#EAEAEA" transform="translate(12,7)"/>
</svg>
