<?xml version="1.0" encoding="UTF-8"?>
<svg version="1.1" xmlns="http://www.w3.org/2000/svg" width="28" height="28">
<path d="M0,0 L28,0 L28,28 L0,28 Z " fill="#020202" transform="translate(0,0)"/>
<path d="M0,0 L7,1 L8,6 L7,7 L7,17 L9,17 L8,20 L5,20 L4,18 L4,10 L-2,10 L-4,8 L-3,4 Z " fill="#D4D4D4" transform="translate(11,6)"/>
<path d="M0,0 L1,4 L7,4 L7,13 L6,13 L6,7 L0,7 L-2,5 L-1,1 Z " fill="#F1F1F1" transform="translate(9,9)"/>
<path d="M0,0 L3,1 L2,6 L-3,5 L-1,1 Z " fill="#262626" transform="translate(12,8)"/>
</svg>
