<?xml version="1.0" encoding="UTF-8"?>
<svg version="1.1" xmlns="http://www.w3.org/2000/svg" width="28" height="28">
<path d="M0,0 L28,0 L28,28 L0,28 Z " fill="#030303" transform="translate(0,0)"/>
<path d="M0,0 L8,0 L9,1 L10,14 L11,20 L9,20 L7,11 L3,13 L-5,13 L-5,7 L-1,1 Z " fill="#D1D1D1" transform="translate(11,6)"/>
<path d="M0,0 L6,0 L5,6 L1,9 L-4,9 L-3,3 Z " fill="#0B0B0B" transform="translate(12,8)"/>
<path d="M0,0 L5,0 L5,11 L2,10 L3,2 Z " fill="#F0F0F0" transform="translate(14,6)"/>
</svg>
