<?xml version="1.0" encoding="UTF-8"?>
<svg version="1.1" xmlns="http://www.w3.org/2000/svg" width="28" height="28">
<path d="M0,0 L28,0 L28,28 L0,28 Z " fill="#020202" transform="translate(0,0)"/>
<path d="M0,0 L5,0 L5,8 L2,7 L0,12 L-3,20 L-6,20 L-5,15 L-1,9 L-9,10 L-7,5 Z " fill="#BEBEBE" transform="translate(16,6)"/>
<path d="M0,0 L1,2 L-4,12 L-5,16 L-8,16 L-7,11 L-3,5 L-6,4 Z " fill="#D3D3D3" transform="translate(18,10)"/>
<path d="M0,0 L2,1 L-3,6 L-6,5 Z " fill="#161616" transform="translate(15,9)"/>
</svg>
