<?xml version="1.0" encoding="UTF-8"?>
<svg version="1.1" xmlns="http://www.w3.org/2000/svg" width="28" height="28">
<path d="M0,0 L28,0 L28,28 L0,28 Z " fill="#020202" transform="translate(0,0)"/>
<path d="M0,0 L5,1 L5,4 L-1,4 L-4,6 L4,5 L3,9 L-1,14 L-3,19 L-8,20 L-6,15 L-3,11 L-8,9 L-8,5 Z " fill="#DADADA" transform="translate(16,6)"/>
<path d="M0,0 L5,0 L4,9 L2,11 L-2,11 L0,6 L3,2 Z " fill="#C6C6C6" transform="translate(10,15)"/>
<path d="M0,0 L2,0 L1,4 L-3,7 L-3,4 L-9,4 L-9,3 Z " fill="#F1F1F1" transform="translate(18,11)"/>
<path d="M0,0 L6,1 L5,4 L5,2 L1,4 L-4,4 Z " fill="#202020" transform="translate(15,9)"/>
</svg>
