<?xml version="1.0" encoding="UTF-8"?>
<svg version="1.1" xmlns="http://www.w3.org/2000/svg" width="28" height="28">
<path d="M0,0 L28,0 L28,28 L0,28 Z " fill="#020202" transform="translate(0,0)"/>
<path d="M0,0 L6,0 L10,2 L10,5 L8,5 L6,10 L2,13 L-1,19 L-5,20 L-6,17 L-4,16 L-3,13 L-1,13 L-2,11 L-10,11 L-10,6 Z " fill="#E5E5E5" transform="translate(14,6)"/>
<path d="M0,0 L6,0 L4,2 L4,6 L-2,9 L-8,9 L-10,11 L-10,6 Z " fill="#CECECE" transform="translate(14,6)"/>
<path d="M0,0 L4,0 L4,3 L-2,6 L-7,6 L-7,4 Z " fill="#171717" transform="translate(14,9)"/>
<path d="M0,0 L4,2 L2,6 L-2,7 L-3,4 L-1,3 Z " fill="#C8C8C8" transform="translate(11,19)"/>
</svg>
