<?xml version="1.0" encoding="UTF-8"?>
<svg version="1.1" xmlns="http://www.w3.org/2000/svg" width="28" height="28">
<path d="M0,0 L28,0 L28,28 L0,28 Z " fill="#020202" transform="translate(0,0)"/>
<path d="M0,0 L8,0 L10,2 L10,9 L8,20 L5,19 L5,11 L0,12 L-3,10 L-2,5 Z " fill="#D4D4D4" transform="translate(10,6)"/>
<path d="M0,0 L2,2 L0,16 L-3,15 L-4,5 Z " fill="#EEEEEE" transform="translate(18,10)"/>
<path d="M0,0 L4,2 L1,7 L-2,8 L-4,7 L-2,2 Z " fill="#1B1B1B" transform="translate(14,8)"/>
</svg>
