<?xml version="1.0" encoding="UTF-8"?>
<svg version="1.1" xmlns="http://www.w3.org/2000/svg" width="28" height="28">
<path d="M0,0 L28,0 L28,28 L0,28 Z " fill="#010101" transform="translate(0,0)"/>
<path d="M0,0 L6,0 L10,4 L10,14 L11,20 L8,20 L6,13 L-2,9 L-3,8 L-3,3 Z " fill="#E0E0E0" transform="translate(10,6)"/>
<path d="M0,0 L6,1 L6,6 L1,7 L-2,5 L-1,1 Z " fill="#121212" transform="translate(11,8)"/>
<path d="M0,0 L6,1 L8,6 L8,9 L5,9 L3,2 Z " fill="#CFCFCF" transform="translate(13,17)"/>
</svg>
