<?xml version="1.0" encoding="UTF-8"?>
<svg version="1.1" xmlns="http://www.w3.org/2000/svg" width="28" height="28">
<path d="M0,0 L28,0 L28,28 L0,28 Z " fill="#030303" transform="translate(0,0)"/>
<path d="M0,0 L4,0 L4,7 L-3,19 L-5,20 L-4,15 L-2,11 L-7,11 L-8,6 L-2,1 Z " fill="#E3E3E3" transform="translate(16,6)"/>
<path d="M0,0 L3,1 L0,4 L-4,8 L-1,8 L-1,10 L-6,9 L-5,4 Z " fill="#EEEEEE" transform="translate(14,7)"/>
<path d="M0,0 L2,0 L1,4 L-3,6 L-6,6 L-4,2 Z " fill="#202020" transform="translate(16,9)"/>
</svg>
