<?xml version="1.0" encoding="UTF-8"?>
<svg version="1.1" xmlns="http://www.w3.org/2000/svg" width="28" height="28">
<path d="M0,0 L28,0 L28,28 L0,28 Z " fill="#020202" transform="translate(0,0)"/>
<path d="M0,0 L3,1 L3,7 L1,8 L-4,20 L-6,20 L-5,15 L-4,12 L-8,11 L-9,7 L-4,2 Z " fill="#B7B7B7" transform="translate(17,6)"/>
<path d="M0,0 L2,0 L1,4 L-4,6 L-6,7 L-8,5 L-3,1 Z " fill="#EDEDED" transform="translate(17,6)"/>
<path d="M0,0 L5,1 L4,8 L1,9 L2,4 L3,1 Z " fill="#CFCFCF" transform="translate(10,17)"/>
</svg>
