<?xml version="1.0" encoding="UTF-8"?>
<svg version="1.1" xmlns="http://www.w3.org/2000/svg" width="28" height="28">
<path d="M0,0 L28,0 L28,28 L0,28 Z " fill="#020202" transform="translate(0,0)"/>
<path d="M0,0 L5,1 L5,6 L1,12 L-2,20 L-4,20 L-4,15 L-1,10 L-7,10 L-7,6 L-2,1 Z " fill="#E8E8E8" transform="translate(15,7)"/>
<path d="M0,0 L3,0 L1,4 L0,5 L-6,5 L-2,1 Z " fill="#1E1E1E" transform="translate(15,10)"/>
<path d="M0,0 L2,0 L0,7 L-2,7 L-2,2 Z " fill="#C6C6C6" transform="translate(13,20)"/>
</svg>
