<?xml version="1.0" encoding="UTF-8"?>
<svg version="1.1" xmlns="http://www.w3.org/2000/svg" width="28" height="28">
<path d="M0,0 L28,0 L28,28 L0,28 Z " fill="#030303" transform="translate(0,0)"/>
<path d="M0,0 L4,1 L5,7 L-2,20 L-4,20 L-3,15 L-1,11 L-8,10 L-9,5 L-6,2 Z " fill="#E5E5E5" transform="translate(16,7)"/>
<path d="M0,0 L3,0 L3,5 L-3,5 L-7,6 L-7,8 L-1,8 L-3,10 L-8,10 L-9,5 L-6,2 Z " fill="#EFEFEF" transform="translate(16,7)"/>
<path d="M0,0 L2,0 L1,5 L-2,10 L-4,10 L-3,5 Z " fill="#F0F0F0" transform="translate(16,17)"/>
<path d="M0,0 L5,0 L1,4 L-4,4 L-4,2 Z " fill="#181818" transform="translate(13,11)"/>
</svg>
