<?xml version="1.0" encoding="UTF-8"?>
<svg version="1.1" xmlns="http://www.w3.org/2000/svg" width="28" height="28">
<path d="M0,0 L28,0 L28,28 L0,28 Z " fill="#010101" transform="translate(0,0)"/>
<path d="M0,0 L6,1 L7,5 L6,8 L5,20 L3,20 L3,11 L-3,12 L-5,10 L-4,3 Z " fill="#D8D8D8" transform="translate(13,6)"/>
<path d="M0,0 L5,1 L3,6 L1,8 L-3,8 L-3,3 Z " fill="#101010" transform="translate(13,8)"/>
<path d="M0,0 L0,3 L-2,5 L-4,10 L-5,10 L-4,3 Z " fill="#BABABA" transform="translate(13,6)"/>
</svg>
