<?xml version="1.0" encoding="UTF-8"?>
<svg version="1.1" xmlns="http://www.w3.org/2000/svg" width="28" height="28">
<path d="M0,0 L28,0 L28,28 L0,28 Z " fill="#020202" transform="translate(0,0)"/>
<path d="M0,0 L4,1 L5,4 L0,16 L-4,20 L-3,14 L0,9 L1,3 L-6,5 L-6,7 L-1,6 L-2,9 L-8,9 L-9,5 L-5,1 Z " fill="#EEEEEE" transform="translate(16,7)"/>
<path d="M0,0 L3,1 L-3,11 L-4,7 Z " fill="#DCDCDC" transform="translate(16,16)"/>
<path d="M0,0 L3,0 L3,6 L0,5 L1,3 L-4,4 L-4,2 Z " fill="#696969" transform="translate(14,10)"/>
</svg>
