<?xml version="1.0" encoding="UTF-8"?>
<svg version="1.1" xmlns="http://www.w3.org/2000/svg" width="28" height="28">
<path d="M0,0 L28,0 L28,28 L0,28 Z " fill="#030303" transform="translate(0,0)"/>
<path d="M0,0 L6,0 L8,3 L10,11 L10,18 L8,20 L-1,19 L-4,18 L-4,15 L7,17 L6,9 L-2,10 L-4,8 L-3,2 Z " fill="#E5E5E5" transform="translate(11,4)"/>
<path d="M0,0 L3,0 L3,7 L1,9 L-8,8 L-11,7 L-11,4 L0,6 Z " fill="#E9E9E9" transform="translate(18,15)"/>
<path d="M0,0 L3,0 L4,4 L-1,5 L-1,1 Z " fill="#242424" transform="translate(11,7)"/>
</svg>
