<?xml version="1.0" encoding="UTF-8"?>
<svg version="1.1" xmlns="http://www.w3.org/2000/svg" width="28" height="28">
<path d="M0,0 L28,0 L28,28 L0,28 Z " fill="#040404" transform="translate(0,0)"/>
<path d="M0,0 L5,3 L4,8 L6,9 L4,14 L4,19 L7,20 L2,19 L1,18 L1,12 L-8,12 L-11,10 L-10,5 L-5,1 Z " fill="#DCDCDC" transform="translate(16,5)"/>
<path d="M0,0 L5,0 L6,1 L5,8 L-4,8 L-5,3 Z " fill="#0C0C0C" transform="translate(13,7)"/>
<path d="M0,0 L2,0 L4,3 L14,5 L12,9 L12,6 L3,6 L0,4 Z " fill="#C4C4C4" transform="translate(5,11)"/>
</svg>
