<?xml version="1.0" encoding="UTF-8"?>
<svg version="1.1" xmlns="http://www.w3.org/2000/svg" width="28" height="28">
<path d="M0,0 L28,0 L28,28 L0,28 Z " fill="#040404" transform="translate(0,0)"/>
<path d="M0,0 L7,0 L8,1 L10,10 L9,17 L6,20 L-1,20 L-4,18 L-3,15 L-2,16 L4,16 L5,12 L-1,12 L-4,9 L-3,3 Z " fill="#EBEBEB" transform="translate(11,5)"/>
<path d="M0,0 L1,0 L1,6 L4,7 L2,7 L2,9 L-2,8 L-3,2 Z " fill="#F0F0F0" transform="translate(10,8)"/>
<path d="M0,0 L2,0 L2,7 L-2,7 L-2,2 Z " fill="#171717" transform="translate(13,7)"/>
</svg>
