<?xml version="1.0" encoding="UTF-8"?>
<svg version="1.1" xmlns="http://www.w3.org/2000/svg" width="28" height="28">
<path d="M0,0 L28,0 L28,28 L0,28 Z " fill="#010101" transform="translate(0,0)"/>
<path d="M0,0 L5,1 L4,8 L0,20 L-2,20 L-1,12 L-7,13 L-8,9 L-4,3 Z " fill="#E1E1E1" transform="translate(15,6)"/>
<path d="M0,0 L4,0 L2,5 L-2,9 L-6,9 L-4,3 Z " fill="#0E0E0E" transform="translate(15,8)"/>
<path d="M0,0 L3,2 L-3,5 L-6,11 L0,9 L-1,12 L-7,13 L-8,9 L-4,3 Z " fill="#BEBEBE" transform="translate(15,6)"/>
</svg>
