<?xml version="1.0" encoding="UTF-8"?>
<svg version="1.1" xmlns="http://www.w3.org/2000/svg" width="28" height="28">
<path d="M0,0 L28,0 L28,28 L0,28 Z " fill="#030303" transform="translate(0,0)"/>
<path d="M0,0 L6,0 L8,1 L7,4 L0,3 L-4,8 L3,6 L4,4 L6,4 L6,10 L0,18 L-1,20 L-3,20 L-1,15 L3,9 L1,10 L-6,10 L-6,6 L-2,1 Z " fill="#C2C2C2" transform="translate(14,7)"/>
<path d="M0,0 L1,4 L-5,13 L-7,13 L-5,8 Z " fill="#E3E3E3" transform="translate(18,14)"/>
<path d="M0,0 L2,0 L2,4 L5,6 L-1,6 L-1,2 Z " fill="#E1E1E1" transform="translate(9,11)"/>
</svg>
