<?xml version="1.0" encoding="UTF-8"?>
<svg version="1.1" xmlns="http://www.w3.org/2000/svg" width="28" height="28">
<path d="M0,0 L28,0 L28,28 L0,28 Z " fill="#020202" transform="translate(0,0)"/>
<path d="M0,0 L7,0 L9,7 L7,19 L5,20 L5,12 L-2,13 L-5,10 L-5,4 L-2,1 Z " fill="#E1E1E1" transform="translate(12,7)"/>
<path d="M0,0 L8,0 L7,5 L5,7 L-1,7 L-3,6 L-2,1 Z " fill="#0E0E0E" transform="translate(11,10)"/>
<path d="M0,0 L3,2 L2,11 L0,12 L0,4 L-6,3 L-6,2 Z " fill="#C7C7C7" transform="translate(17,15)"/>
</svg>
