<?xml version="1.0" encoding="UTF-8"?>
<svg version="1.1" xmlns="http://www.w3.org/2000/svg" width="28" height="28">
<path d="M0,0 L28,0 L28,28 L0,28 Z " fill="#010101" transform="translate(0,0)"/>
<path d="M0,0 L6,1 L7,5 L7,20 L4,19 L4,11 L-5,13 L-9,11 L-8,5 L-3,1 Z " fill="#E1E1E1" transform="translate(14,6)"/>
<path d="M0,0 L3,0 L4,7 L2,8 L-7,8 L-5,3 Z " fill="#0D0D0D" transform="translate(14,8)"/>
<path d="M0,0 L1,0 L1,15 L-2,14 L-2,6 L-1,6 Z " fill="#CBCBCB" transform="translate(20,11)"/>
</svg>
