<?xml version="1.0" encoding="UTF-8"?>
<svg version="1.1" xmlns="http://www.w3.org/2000/svg" width="28" height="28">
<path d="M0,0 L28,0 L28,28 L0,28 Z " fill="#020202" transform="translate(0,0)"/>
<path d="M0,0 L1,0 L1,5 L-7,17 L-10,18 L-8,13 L-5,7 L-9,6 L-8,2 L-7,5 L-1,3 Z " fill="#E5E5E5" transform="translate(19,8)"/>
<path d="M0,0 L5,0 L6,1 L6,6 L3,6 L2,7 L-3,7 L-5,3 Z " fill="#CBCBCB" transform="translate(15,6)"/>
<path d="M0,0 L3,0 L2,4 L1,5 L-4,5 L-2,1 Z " fill="#111111" transform="translate(16,8)"/>
</svg>
