<?xml version="1.0" encoding="UTF-8"?>
<svg version="1.1" xmlns="http://www.w3.org/2000/svg" width="28" height="28">
<path d="M0,0 L28,0 L28,28 L0,28 Z " fill="#020202" transform="translate(0,0)"/>
<path d="M0,0 L4,0 L4,8 L-3,16 L-6,20 L-8,20 L-7,16 L-4,13 L-8,12 L-9,8 L-4,3 Z " fill="#D5D5D5" transform="translate(17,6)"/>
<path d="M0,0 L1,0 L1,5 L-6,13 L-9,17 L-11,17 L-10,13 L-6,8 L-8,7 L-4,5 L-3,3 L-1,3 Z " fill="#E8E8E8" transform="translate(20,9)"/>
<path d="M0,0 L1,4 L-1,4 L-3,8 L-8,8 L-6,4 L-4,4 L-4,2 Z " fill="#1F1F1F" transform="translate(18,8)"/>
</svg>
