<?xml version="1.0" encoding="UTF-8"?>
<svg version="1.1" xmlns="http://www.w3.org/2000/svg" width="28" height="28">
<path d="M0,0 L28,0 L28,28 L0,28 Z " fill="#020202" transform="translate(0,0)"/>
<path d="M0,0 L8,2 L9,20 L7,20 L5,10 L1,12 L-4,11 L-8,9 L-8,4 Z " fill="#ECECEC" transform="translate(12,7)"/>
<path d="M0,0 L5,1 L5,5 L3,6 L-4,6 L-5,2 Z " fill="#111111" transform="translate(12,10)"/>
<path d="M0,0 L4,4 L15,4 L15,10 L13,6 L9,8 L4,7 L0,5 Z " fill="#B3B3B3" transform="translate(4,11)"/>
<path d="M0,0 L4,0 L4,6 L2,2 L-2,3 L-5,1 Z " fill="#9D9D9D" transform="translate(15,15)"/>
</svg>
