<?xml version="1.0" encoding="UTF-8"?>
<svg version="1.1" xmlns="http://www.w3.org/2000/svg" width="28" height="28">
<path d="M0,0 L28,0 L28,28 L0,28 Z " fill="#020202" transform="translate(0,0)"/>
<path d="M0,0 L6,0 L7,6 L-1,14 L-8,20 L-11,19 L-11,17 L-8,17 L-8,15 L-4,11 L-9,11 L-10,6 L-5,2 Z " fill="#EFEFEF" transform="translate(17,6)"/>
<path d="M0,0 L3,0 L3,3 L1,3 L0,6 L-2,7 L-8,7 L-6,3 Z " fill="#0C0C0C" transform="translate(18,8)"/>
<path d="M0,0 L2,1 L-4,6 L-7,9 L-8,5 L-3,1 Z " fill="#C8C8C8" transform="translate(15,7)"/>
</svg>
