<?xml version="1.0" encoding="UTF-8"?>
<svg version="1.1" xmlns="http://www.w3.org/2000/svg" width="28" height="28">
<path d="M0,0 L28,0 L28,28 L0,28 Z " fill="#020202" transform="translate(0,0)"/>
<path d="M0,0 L5,1 L4,4 L1,4 L2,7 L7,5 L10,9 L9,19 L3,20 L2,18 L6,17 L7,10 L5,9 L5,11 L0,10 L-2,8 L-2,1 Z " fill="#D1D1D1" transform="translate(10,5)"/>
<path d="M0,0 L1,4 L-3,6 L-5,2 Z " fill="#1B1B1B" transform="translate(15,7)"/>
<path d="M0,0 L2,0 L1,6 L-5,7 L-6,5 L-2,4 Z " fill="#E1E1E1" transform="translate(18,18)"/>
</svg>
