<?xml version="1.0" encoding="UTF-8"?>
<svg version="1.1" xmlns="http://www.w3.org/2000/svg" width="28" height="28">
<path d="M0,0 L28,0 L28,28 L0,28 Z " fill="#020202" transform="translate(0,0)"/>
<path d="M0,0 L5,0 L8,2 L8,4 L0,2 L3,5 L12,5 L11,16 L9,20 L8,11 L9,7 L1,7 L-2,5 L-2,1 Z " fill="#D5D5D5" transform="translate(8,7)"/>
<path d="M0,0 L5,0 L8,2 L8,4 L1,3 Z " fill="#202020" transform="translate(8,9)"/>
<path d="M0,0 L4,0 L4,4 L2,4 L2,2 L-6,2 L-6,1 Z " fill="#F2F2F2" transform="translate(16,12)"/>
</svg>
