<?xml version="1.0" encoding="UTF-8"?>
<svg version="1.1" xmlns="http://www.w3.org/2000/svg" width="28" height="28">
<path d="M0,0 L28,0 L28,28 L0,28 Z " fill="#040404" transform="translate(0,0)"/>
<path d="M0,0 L3,0 L5,3 L8,4 L8,12 L4,18 L-1,20 L-6,20 L-8,17 L-6,16 L-6,18 L3,16 L5,9 L1,11 L-3,10 L-2,2 Z " fill="#DDDDDD" transform="translate(13,4)"/>
<path d="M0,0 L2,3 L-1,8 L-6,10 L-11,10 L-13,7 L-11,6 L-11,8 L-2,6 Z " fill="#E8E8E8" transform="translate(18,14)"/>
<path d="M0,0 L3,2 L2,6 L-2,7 L-1,1 Z " fill="#262626" transform="translate(14,6)"/>
</svg>
