<?xml version="1.0" encoding="UTF-8"?>
<svg version="1.1" xmlns="http://www.w3.org/2000/svg" width="28" height="28">
<path d="M0,0 L28,0 L28,28 L0,28 Z " fill="#040404" transform="translate(0,0)"/>
<path d="M0,0 L5,1 L7,6 L6,8 L5,20 L1,18 L1,10 L-10,11 L-11,10 L-11,5 L-9,2 Z " fill="#EEEEEE" transform="translate(16,7)"/>
<path d="M0,0 L5,1 L6,4 L3,5 L3,3 L-3,3 Z " fill="#F1F1F1" transform="translate(16,7)"/>
<path d="M0,0 L2,0 L1,3 L-8,4 L-5,1 Z " fill="#292929" transform="translate(17,10)"/>
</svg>
