<?xml version="1.0" encoding="UTF-8"?>
<svg version="1.1" xmlns="http://www.w3.org/2000/svg" width="28" height="28">
<path d="M0,0 L28,0 L28,28 L0,28 Z " fill="#020202" transform="translate(0,0)"/>
<path d="M0,0 L6,0 L10,3 L9,20 L7,20 L7,12 L2,13 L-3,11 L-4,6 L-1,1 Z " fill="#CDCDCD" transform="translate(11,6)"/>
<path d="M0,0 L5,0 L7,2 L6,7 L-1,8 L-2,4 Z " fill="#060606" transform="translate(12,8)"/>
<path d="M0,0 L3,2 L2,19 L0,19 L0,10 L-2,8 L0,7 L-1,1 Z " fill="#B5B5B5" transform="translate(18,7)"/>
<path d="M0,0 L1,2 L10,3 L9,5 L5,6 L0,4 Z " fill="#E9E9E9" transform="translate(8,13)"/>
</svg>
