<?xml version="1.0" encoding="UTF-8"?>
<svg version="1.1" xmlns="http://www.w3.org/2000/svg" width="28" height="28">
<path d="M0,0 L28,0 L28,28 L0,28 Z " fill="#020202" transform="translate(0,0)"/>
<path d="M0,0 L11,0 L11,8 L6,19 L1,20 L3,15 L6,10 L-1,8 L-1,1 Z " fill="#F0F0F0" transform="translate(9,6)"/>
<path d="M0,0 L2,0 L2,6 L-1,8 L-4,8 L-2,3 Z " fill="#E5E5E5" transform="translate(14,18)"/>
<path d="M0,0 L6,0 L4,4 L-1,4 Z " fill="#1F1F1F" transform="translate(11,9)"/>
<path d="M0,0 L9,0 L9,1 L3,3 L-1,4 Z " fill="#CFCFCF" transform="translate(9,6)"/>
</svg>
