<?xml version="1.0" encoding="UTF-8"?>
<svg version="1.1" xmlns="http://www.w3.org/2000/svg" width="28" height="28">
<path d="M0,0 L28,0 L28,28 L0,28 Z " fill="#030303" transform="translate(0,0)"/>
<path d="M0,0 L6,0 L9,2 L11,10 L10,18 L8,20 L4,19 L-1,15 L0,12 L5,16 L8,17 L7,10 L-1,11 L-3,8 L-2,2 Z " fill="#DDDDDD" transform="translate(10,5)"/>
<path d="M0,0 L3,1 L3,8 L-1,7 L-5,3 Z " fill="#1B1B1B" transform="translate(15,14)"/>
<path d="M0,0 L9,5 L10,1 L11,1 L11,6 L9,8 L5,7 L0,3 Z " fill="#E7E7E7" transform="translate(9,17)"/>
<path d="M0,0 L4,0 L5,4 L0,5 L-1,1 Z " fill="#060606" transform="translate(10,8)"/>
<path d="M0,0 L6,2 L7,5 L2,5 Z " fill="#C3C3C3" transform="translate(7,11)"/>
</svg>
