<?xml version="1.0" encoding="UTF-8"?>
<svg version="1.1" xmlns="http://www.w3.org/2000/svg" width="28" height="28">
<path d="M0,0 L28,0 L28,28 L0,28 Z " fill="#020202" transform="translate(0,0)"/>
<path d="M0,0 L7,0 L7,5 L5,5 L5,7 L3,7 L1,12 L-7,20 L-9,20 L-8,17 L-3,12 L-1,9 L-6,8 L-5,4 L-2,1 Z " fill="#D8D8D8" transform="translate(15,6)"/>
<path d="M0,0 L3,1 L2,3 L0,3 L-2,8 L-10,16 L-12,16 L-11,13 L-6,8 L-4,5 L-6,4 Z " fill="#E2E2E2" transform="translate(18,10)"/>
<path d="M0,0 L4,1 L-1,5 L-5,5 L-4,2 Z " fill="#161616" transform="translate(16,8)"/>
<path d="M0,0 L7,0 L7,5 L4,3 Z " fill="#B8B8B8" transform="translate(15,6)"/>
</svg>
