<?xml version="1.0" encoding="UTF-8"?>
<svg version="1.1" xmlns="http://www.w3.org/2000/svg" width="28" height="28">
<path d="M0,0 L28,0 L28,28 L0,28 Z " fill="#010101" transform="translate(0,0)"/>
<path d="M0,0 L4,1 L7,6 L10,15 L10,20 L7,19 L5,10 L0,10 L-2,7 L-2,2 Z " fill="#C5C5C5" transform="translate(10,6)"/>
<path d="M0,0 L4,1 L6,4 L4,7 L-2,7 L-2,2 Z " fill="#7E7E7E" transform="translate(10,6)"/>
<path d="M0,0 L1,4 L5,3 L7,1 L8,4 L6,7 L1,7 L0,6 Z " fill="#E1E1E1" transform="translate(9,9)"/>
</svg>
