<?xml version="1.0" encoding="UTF-8"?>
<svg version="1.1" xmlns="http://www.w3.org/2000/svg" width="28" height="28">
<path d="M0,0 L28,0 L28,28 L0,28 Z " fill="#020202" transform="translate(0,0)"/>
<path d="M0,0 L5,1 L5,8 L-1,19 L-4,20 L-4,16 L-2,16 L0,9 L-5,8 L-4,3 Z " fill="#E2E2E2" transform="translate(14,6)"/>
<path d="M0,0 L2,0 L1,5 L-2,9 L-4,9 L-4,5 L-2,5 Z " fill="#E6E6E6" transform="translate(14,17)"/>
<path d="M0,0 L3,1 L2,5 L-3,6 L-1,1 Z " fill="#A3A3A3" transform="translate(16,6)"/>
</svg>
