<?xml version="1.0" encoding="UTF-8"?>
<svg version="1.1" xmlns="http://www.w3.org/2000/svg" width="28" height="28">
<path d="M0,0 L28,0 L28,28 L0,28 Z " fill="#020202" transform="translate(0,0)"/>
<path d="M0,0 L5,1 L8,5 L11,16 L11,20 L8,20 L6,11 L6,9 L-1,10 L-3,8 L-2,2 Z " fill="#D3D3D3" transform="translate(10,6)"/>
<path d="M0,0 L5,1 L7,4 L3,8 L-2,9 L-3,5 Z " fill="#D7D7D7" transform="translate(10,6)"/>
<path d="M0,0 L1,0 L1,7 L0,5 L-7,6 L-7,4 L0,2 Z " fill="#F5F5F5" transform="translate(16,10)"/>
<path d="M0,0 L3,2 L1,6 L-2,6 L-1,1 Z " fill="#171717" transform="translate(12,8)"/>
</svg>
