<?xml version="1.0" encoding="UTF-8"?>
<svg version="1.1" xmlns="http://www.w3.org/2000/svg" width="28" height="28">
<path d="M0,0 L28,0 L28,28 L0,28 Z " fill="#030303" transform="translate(0,0)"/>
<path d="M0,0 L9,0 L10,2 L13,1 L12,6 L11,7 L11,18 L8,19 L7,18 L7,10 L-1,11 L-5,8 L-5,3 Z " fill="#D0D0D0" transform="translate(10,7)"/>
<path d="M0,0 L2,0 L1,5 L0,6 L0,17 L-3,18 L-4,17 L-4,9 L-10,9 L-7,7 L-4,5 L-2,1 Z " fill="#EAEAEA" transform="translate(21,8)"/>
<path d="M0,0 L6,0 L7,4 L5,6 L-2,6 L-3,2 Z " fill="#0A0A0A" transform="translate(11,9)"/>
</svg>
