<?xml version="1.0" encoding="UTF-8"?>
<svg version="1.1" xmlns="http://www.w3.org/2000/svg" width="28" height="28">
<path d="M0,0 L28,0 L28,28 L0,28 Z " fill="#020202" transform="translate(0,0)"/>
<path d="M0,0 L5,0 L7,2 L6,11 L3,19 L-1,20 L2,10 L3,8 L-6,10 L-8,6 L-3,1 Z " fill="#DFDFDF" transform="translate(14,7)"/>
<path d="M0,0 L5,0 L4,5 L-1,7 L-7,6 L-5,2 Z " fill="#D0D0D0" transform="translate(14,7)"/>
<path d="M0,0 L6,0 L6,2 L1,4 L-3,3 Z " fill="#171717" transform="translate(12,10)"/>
</svg>
