<?xml version="1.0" encoding="UTF-8"?>
<svg version="1.1" xmlns="http://www.w3.org/2000/svg" width="28" height="28">
<path d="M0,0 L28,0 L28,28 L0,28 Z " fill="#020202" transform="translate(0,0)"/>
<path d="M0,0 L6,1 L7,8 L6,9 L5,20 L2,19 L2,12 L0,14 L-4,13 L-5,7 L-2,1 Z " fill="#EDEDED" transform="translate(13,6)"/>
<path d="M0,0 L6,1 L7,7 L5,7 L4,3 L-1,4 L-3,11 L0,11 L1,9 L2,12 L0,14 L-4,13 L-5,7 L-2,1 Z " fill="#DADADA" transform="translate(13,6)"/>
<path d="M0,0 L5,1 L4,4 L0,9 L-3,9 L-2,2 Z " fill="#1A1A1A" transform="translate(13,8)"/>
<path d="M0,0 L2,0 L3,10 L0,9 Z " fill="#C2C2C2" transform="translate(15,16)"/>
</svg>
