<?xml version="1.0" encoding="UTF-8"?>
<svg version="1.1" xmlns="http://www.w3.org/2000/svg" width="28" height="28">
<path d="M0,0 L28,0 L28,28 L0,28 Z " fill="#020202" transform="translate(0,0)"/>
<path d="M0,0 L5,1 L7,2 L6,10 L4,17 L2,17 L1,20 L-1,20 L1,15 L3,9 L-6,10 L-7,5 L-3,1 Z " fill="#E2E2E2" transform="translate(13,7)"/>
<path d="M0,0 L5,1 L4,5 L0,4 L1,7 L-5,8 L-7,7 L-5,3 Z " fill="#DADADA" transform="translate(13,7)"/>
<path d="M0,0 L2,0 L2,2 L0,2 L1,5 L-5,6 L-3,2 Z " fill="#151515" transform="translate(13,9)"/>
</svg>
