<?xml version="1.0" encoding="UTF-8"?>
<svg version="1.1" xmlns="http://www.w3.org/2000/svg" width="28" height="28">
<path d="M0,0 L28,0 L28,28 L0,28 Z " fill="#030303" transform="translate(0,0)"/>
<path d="M0,0 L8,0 L7,5 L3,15 L1,20 L-1,20 L0,14 L3,7 L-4,8 L-6,4 L-3,1 Z " fill="#D1D1D1" transform="translate(13,7)"/>
<path d="M0,0 L1,4 L-2,12 L-4,12 L-3,6 Z " fill="#EBEBEB" transform="translate(16,15)"/>
<path d="M0,0 L2,1 L-3,6 L-6,6 L-4,2 Z " fill="#E6E6E6" transform="translate(13,7)"/>
<path d="M0,0 L0,3 L-6,4 L-5,1 Z " fill="#2B2B2B" transform="translate(16,9)"/>
</svg>
