<?xml version="1.0" encoding="UTF-8"?>
<svg version="1.1" xmlns="http://www.w3.org/2000/svg" width="28" height="28">
<path d="M0,0 L28,0 L28,28 L0,28 Z " fill="#010101" transform="translate(0,0)"/>
<path d="M0,0 L5,0 L7,2 L6,7 L1,19 L-1,20 L0,14 L2,9 L-5,9 L-6,4 Z " fill="#C8C8C8" transform="translate(13,7)"/>
<path d="M0,0 L5,0 L7,2 L6,7 L4,11 L3,8 L0,7 L4,6 L4,2 L-3,5 L-4,8 L-6,8 L-5,3 Z " fill="#D7D7D7" transform="translate(13,7)"/>
<path d="M0,0 L4,0 L4,4 L-4,5 L-2,1 Z " fill="#151515" transform="translate(13,9)"/>
</svg>
