<?xml version="1.0" encoding="UTF-8"?>
<svg version="1.1" xmlns="http://www.w3.org/2000/svg" width="28" height="28">
<path d="M0,0 L28,0 L28,28 L0,28 Z " fill="#030303" transform="translate(0,0)"/>
<path d="M0,0 L7,0 L7,11 L5,19 L3,18 L4,7 L-4,8 L-3,2 Z " fill="#F8F8F8" transform="translate(12,8)"/>
<path d="M0,0 L3,1 L6,1 L8,3 L5,6 L-2,7 L-1,1 Z " fill="#EBEBEB" transform="translate(10,9)"/>
<path d="M0,0 L2,2 L1,12 L-1,11 Z " fill="#CDCDCD" transform="translate(16,15)"/>
<path d="M0,0 L4,2 L1,5 L-3,4 L-3,2 Z " fill="#969696" transform="translate(14,10)"/>
</svg>
