<?xml version="1.0" encoding="UTF-8"?>
<svg version="1.1" xmlns="http://www.w3.org/2000/svg" width="28" height="28">
<path d="M0,0 L28,0 L28,28 L0,28 Z " fill="#020202" transform="translate(0,0)"/>
<path d="M0,0 L5,1 L7,3 L6,17 L4,20 L2,20 L3,9 L-1,11 L-5,11 L-4,4 Z " fill="#D3D3D3" transform="translate(13,6)"/>
<path d="M0,0 L3,0 L3,7 L1,10 L-1,10 Z " fill="#C6C6C6" transform="translate(16,16)"/>
<path d="M0,0 L2,0 L2,3 L0,3 L0,6 L-4,7 L-2,2 Z " fill="#0B0B0B" transform="translate(14,8)"/>
<path d="M0,0 L1,4 L5,5 L-1,6 L-1,1 Z " fill="#EEEEEE" transform="translate(9,11)"/>
</svg>
