<?xml version="1.0" encoding="UTF-8"?>
<svg version="1.1" xmlns="http://www.w3.org/2000/svg" width="28" height="28">
<path d="M0,0 L28,0 L28,28 L0,28 Z " fill="#010101" transform="translate(0,0)"/>
<path d="M0,0 L7,1 L8,5 L4,12 L1,20 L-2,20 L-1,16 L2,9 L-5,8 L-6,3 Z " fill="#A7A7A7" transform="translate(13,7)"/>
<path d="M0,0 L1,3 L-4,15 L-7,15 L-6,11 L-1,1 Z " fill="#C9C9C9" transform="translate(18,12)"/>
<path d="M0,0 L7,1 L7,2 L-2,4 L-3,6 L2,7 L2,8 L-5,8 L-6,3 Z " fill="#E6E6E6" transform="translate(13,7)"/>
<path d="M0,0 L5,0 L3,4 L-4,4 Z " fill="#101010" transform="translate(13,9)"/>
<path d="M0,0 L1,3 L-2,8 L-4,8 L-2,2 Z " fill="#F3F3F3" transform="translate(18,12)"/>
</svg>
