<?xml version="1.0" encoding="UTF-8"?>
<svg version="1.1" xmlns="http://www.w3.org/2000/svg" width="28" height="28">
<path d="M0,0 L28,0 L28,28 L0,28 Z " fill="#020202" transform="translate(0,0)"/>
<path d="M0,0 L2,0 L2,2 L-7,5 L-8,7 L-2,5 L1,4 L-1,8 L-5,17 L-8,20 L-6,11 L-5,9 L-10,8 L-11,6 L-7,2 Z " fill="#C8C8C8" transform="translate(19,7)"/>
<path d="M0,0 L2,0 L0,4 L-4,13 L-7,16 L-5,7 L-1,1 Z " fill="#DFDFDF" transform="translate(18,11)"/>
<path d="M0,0 L5,1 L4,4 L4,2 L0,5 L-5,5 L-4,2 Z " fill="#191919" transform="translate(16,9)"/>
</svg>
