<?xml version="1.0" encoding="UTF-8"?>
<svg version="1.1" xmlns="http://www.w3.org/2000/svg" width="28" height="28">
<path d="M0,0 L28,0 L28,28 L0,28 Z " fill="#020202" transform="translate(0,0)"/>
<path d="M0,0 L8,0 L8,6 L3,10 L-2,19 L-5,19 L0,10 L1,9 L-6,7 L-5,2 Z " fill="#151515" transform="translate(14,7)"/>
<path d="M0,0 L3,0 L2,3 L-3,8 L-8,16 L-10,15 L-5,6 L-4,5 L-9,4 L-9,3 L-2,2 Z " fill="#EBEBEB" transform="translate(19,11)"/>
<path d="M0,0 L8,0 L8,2 L1,2 L-4,5 L-4,7 L-6,7 L-5,2 Z " fill="#DCDCDC" transform="translate(14,7)"/>
<path d="M0,0 L3,1 L-2,9 L-4,8 Z " fill="#CACACA" transform="translate(13,18)"/>
</svg>
