<?xml version="1.0" encoding="UTF-8"?>
<svg version="1.1" xmlns="http://www.w3.org/2000/svg" width="28" height="28">
<path d="M0,0 L28,0 L28,28 L0,28 Z " fill="#020202" transform="translate(0,0)"/>
<path d="M0,0 L5,1 L4,8 L0,16 L2,16 L0,20 L-3,20 L-2,13 L1,8 L-4,9 L-6,8 L-5,3 Z " fill="#D1D1D1" transform="translate(15,6)"/>
<path d="M0,0 L6,0 L5,3 L-2,4 L-2,1 Z " fill="#161616" transform="translate(13,9)"/>
<path d="M0,0 L5,1 L4,8 L2,9 L3,3 L-1,1 Z " fill="#EFEFEF" transform="translate(15,6)"/>
</svg>
