<?xml version="1.0" encoding="UTF-8"?>
<svg version="1.1" xmlns="http://www.w3.org/2000/svg" width="28" height="28">
<path d="M0,0 L28,0 L28,28 L0,28 Z " fill="#020202" transform="translate(0,0)"/>
<path d="M0,0 L7,1 L5,10 L4,19 L2,20 L2,10 L-3,11 L-5,10 L-5,5 L-3,5 L-1,1 Z " fill="#C5C5C5" transform="translate(13,7)"/>
<path d="M0,0 L1,0 L1,13 L-1,14 L-1,4 L-5,3 Z " fill="#E2E2E2" transform="translate(16,13)"/>
<path d="M0,0 L4,1 L0,6 L-4,5 Z " fill="#0E0E0E" transform="translate(14,9)"/>
</svg>
