<?xml version="1.0" encoding="UTF-8"?>
<svg version="1.1" xmlns="http://www.w3.org/2000/svg" width="28" height="28">
<path d="M0,0 L28,0 L28,28 L0,28 Z " fill="#020202" transform="translate(0,0)"/>
<path d="M0,0 L4,0 L3,7 L-2,15 L-4,20 L-6,20 L-5,15 L-2,10 L-7,10 L-8,6 L-2,1 Z " fill="#E0E0E0" transform="translate(16,7)"/>
<path d="M0,0 L4,0 L4,2 L1,2 L-1,6 L-4,7 L-4,3 Z " fill="#232323" transform="translate(15,9)"/>
<path d="M0,0 L2,2 L-1,4 L0,8 L-4,7 L-3,3 Z " fill="#D0D0D0" transform="translate(12,9)"/>
</svg>
