<?xml version="1.0" encoding="UTF-8"?>
<svg version="1.1" xmlns="http://www.w3.org/2000/svg" width="28" height="28">
<path d="M0,0 L28,0 L28,28 L0,28 Z " fill="#010101" transform="translate(0,0)"/>
<path d="M0,0 L7,0 L9,1 L9,7 L7,14 L6,20 L4,20 L4,10 L-3,10 L-5,8 L-4,3 Z " fill="#D0D0D0" transform="translate(12,7)"/>
<path d="M0,0 L4,0 L4,5 L0,7 L-4,6 L-3,1 Z " fill="#0B0B0B" transform="translate(14,9)"/>
<path d="M0,0 L1,0 L0,12 L-2,12 L-2,2 Z " fill="#BDBDBD" transform="translate(18,15)"/>
</svg>
