<?xml version="1.0" encoding="UTF-8"?>
<svg version="1.1" xmlns="http://www.w3.org/2000/svg" width="28" height="28">
<path d="M0,0 L28,0 L28,28 L0,28 Z " fill="#020202" transform="translate(0,0)"/>
<path d="M0,0 L6,0 L7,4 L0,13 L-4,19 L-7,18 L-3,11 L-8,11 L-9,6 L-5,2 Z " fill="#CECECE" transform="translate(16,7)"/>
<path d="M0,0 L6,0 L1,5 L-6,6 L-5,2 Z " fill="#1C1C1C" transform="translate(15,10)"/>
<path d="M0,0 L7,0 L8,3 L4,9 L1,8 L5,1 L0,1 Z " fill="#C3C3C3" transform="translate(8,17)"/>
<path d="M0,0 L1,4 L10,3 L9,7 L7,7 L7,5 L0,5 L-1,1 Z " fill="#F6F6F6" transform="translate(8,12)"/>
</svg>
