<?xml version="1.0" encoding="UTF-8"?>
<svg version="1.1" xmlns="http://www.w3.org/2000/svg" width="28" height="28">
<path d="M0,0 L28,0 L28,28 L0,28 Z " fill="#030303" transform="translate(0,0)"/>
<path d="M0,0 L4,0 L4,4 L6,4 L5,10 L1,13 L-1,20 L-3,20 L-2,12 L-7,11 L-6,7 Z " fill="#EBEBEB" transform="translate(14,6)"/>
<path d="M0,0 L2,0 L1,6 L0,8 L-5,8 L-4,4 Z " fill="#171717" transform="translate(15,8)"/>
<path d="M0,0 L3,1 L0,4 L-1,7 L2,8 L-3,9 L-4,5 Z " fill="#C7C7C7" transform="translate(11,9)"/>
</svg>
