<?xml version="1.0" encoding="UTF-8"?>
<svg version="1.1" xmlns="http://www.w3.org/2000/svg" width="28" height="28">
<path d="M0,0 L28,0 L28,28 L0,28 Z " fill="#020202" transform="translate(0,0)"/>
<path d="M0,0 L2,0 L2,8 L-1,14 L-2,19 L0,20 L-3,20 L-4,13 L-8,13 L-9,8 L-2,1 Z " fill="#BCBCBC" transform="translate(17,5)"/>
<path d="M0,0 L2,1 L1,6 L-2,8 L-5,8 L-4,4 Z " fill="#090909" transform="translate(15,8)"/>
<path d="M0,0 L1,3 L-2,13 L0,14 L-3,14 L-3,4 Z " fill="#E1E1E1" transform="translate(17,11)"/>
</svg>
