<?xml version="1.0" encoding="UTF-8"?>
<svg version="1.1" xmlns="http://www.w3.org/2000/svg" width="28" height="28">
<path d="M0,0 L28,0 L28,28 L0,28 Z " fill="#030303" transform="translate(0,0)"/>
<path d="M0,0 L6,0 L8,2 L7,9 L3,18 L1,20 L2,13 L4,10 L4,7 L-2,10 L-7,10 L-8,7 L-4,2 Z " fill="#CFCFCF" transform="translate(13,7)"/>
<path d="M0,0 L6,0 L7,4 L5,5 L5,2 L-3,5 L-6,9 L0,8 L-2,10 L-7,10 L-8,7 L-4,2 Z " fill="#E4E4E4" transform="translate(13,7)"/>
<path d="M0,0 L3,0 L2,3 L-5,7 L-8,7 L-6,3 L-4,1 Z " fill="#202020" transform="translate(15,9)"/>
</svg>
