<?xml version="1.0" encoding="UTF-8"?>
<svg version="1.1" xmlns="http://www.w3.org/2000/svg" width="28" height="28">
<path d="M0,0 L28,0 L28,28 L0,28 Z " fill="#000000" transform="translate(0,0)"/>
<path d="M0,0 L3,0 L3,2 L5,2 L5,20 L2,20 L1,11 L-6,10 L-7,5 L-2,1 Z " fill="#B5B5B5" transform="translate(14,6)"/>
<path d="M0,0 L3,0 L3,2 L5,2 L5,11 L1,9 L2,2 L-4,6 L-3,9 L0,11 L-6,10 L-7,5 L-2,1 Z " fill="#E4E4E4" transform="translate(14,6)"/>
<path d="M0,0 L2,0 L1,7 L-4,7 L-4,3 Z " fill="#090909" transform="translate(14,8)"/>
</svg>
