<?xml version="1.0" encoding="UTF-8"?>
<svg version="1.1" xmlns="http://www.w3.org/2000/svg" width="28" height="28">
<path d="M0,0 L28,0 L28,28 L0,28 Z " fill="#020202" transform="translate(0,0)"/>
<path d="M0,0 L4,1 L4,7 L-2,19 L-5,20 L-4,16 L0,8 L-4,10 L-8,10 L-7,5 Z " fill="#CACACA" transform="translate(16,6)"/>
<path d="M0,0 L4,1 L4,7 L2,9 L1,3 L-5,7 L-1,8 L-4,10 L-8,10 L-7,5 Z " fill="#E2E2E2" transform="translate(16,6)"/>
<path d="M0,0 L0,3 L-4,6 L-7,5 L-2,1 Z " fill="#212121" transform="translate(17,8)"/>
</svg>
