<?xml version="1.0" encoding="UTF-8"?>
<svg version="1.1" xmlns="http://www.w3.org/2000/svg" width="28" height="28">
<path d="M0,0 L28,0 L28,28 L0,28 Z " fill="#020202" transform="translate(0,0)"/>
<path d="M0,0 L2,0 L2,3 L-3,6 L-4,8 L0,6 L1,4 L3,4 L2,9 L-1,15 L-1,19 L-5,20 L-4,13 L-3,12 L-6,10 L-6,4 L-3,1 Z " fill="#E9E9E9" transform="translate(16,6)"/>
<path d="M0,0 L6,1 L4,5 L4,9 L0,10 L1,3 L2,2 Z " fill="#C5C5C5" transform="translate(11,16)"/>
<path d="M0,0 L1,3 L-1,3 L-3,7 L-6,7 L-4,3 L0,2 Z " fill="#393939" transform="translate(18,7)"/>
</svg>
