<?xml version="1.0" encoding="UTF-8"?>
<svg version="1.1" xmlns="http://www.w3.org/2000/svg" width="28" height="28">
<path d="M0,0 L28,0 L28,28 L0,28 Z " fill="#020202" transform="translate(0,0)"/>
<path d="M0,0 L4,0 L3,9 L-4,20 L-6,20 L-4,14 L-3,12 L-11,9 L-12,5 L-7,1 Z " fill="#E7E7E7" transform="translate(18,7)"/>
<path d="M0,0 L5,0 L5,4 L3,4 L3,6 L-5,6 L-4,2 Z " fill="#0E0E0E" transform="translate(14,9)"/>
<path d="M0,0 L3,0 L1,5 L-2,6 Z " fill="#CACACA" transform="translate(14,21)"/>
</svg>
