<?xml version="1.0" encoding="UTF-8"?>
<svg version="1.1" xmlns="http://www.w3.org/2000/svg" width="28" height="28">
<path d="M0,0 L28,0 L28,28 L0,28 Z " fill="#030303" transform="translate(0,0)"/>
<path d="M0,0 L5,0 L6,6 L1,13 L-5,18 L-7,20 L-6,15 L0,10 L1,8 L-10,8 L-9,4 Z " fill="#D0D0D0" transform="translate(16,7)"/>
<path d="M0,0 L4,1 L2,6 L-3,11 L-8,17 L-9,13 L-1,6 L0,4 L-3,3 Z " fill="#ECECEC" transform="translate(18,10)"/>
<path d="M0,0 L3,0 L1,4 L-6,5 L-5,2 Z " fill="#252525" transform="translate(15,9)"/>
</svg>
