<?xml version="1.0" encoding="UTF-8"?>
<svg version="1.1" xmlns="http://www.w3.org/2000/svg" width="28" height="28">
<path d="M0,0 L28,0 L28,28 L0,28 Z " fill="#030303" transform="translate(0,0)"/>
<path d="M0,0 L4,0 L4,7 L-1,14 L-3,14 L-5,18 L-9,20 L-8,16 L-3,12 L-2,10 L-4,11 L-12,11 L-11,7 L-5,2 Z " fill="#E6E6E6" transform="translate(18,6)"/>
<path d="M0,0 L4,0 L4,7 L1,7 L-1,9 L-9,9 L-4,4 L-5,2 Z " fill="#C9C9C9" transform="translate(18,6)"/>
<path d="M0,0 L3,0 L3,3 L0,3 L0,5 L-4,7 L-8,6 Z " fill="#191919" transform="translate(17,8)"/>
</svg>
