<?xml version="1.0" encoding="UTF-8"?>
<svg version="1.1" xmlns="http://www.w3.org/2000/svg" width="28" height="28">
<path d="M0,0 L28,0 L28,28 L0,28 Z " fill="#030303" transform="translate(0,0)"/>
<path d="M0,0 L2,0 L2,5 L4,5 L3,8 L1,8 L1,10 L-4,14 L-9,20 L-10,17 L-4,10 L-13,10 L-13,6 L-4,1 Z " fill="#DBDBDB" transform="translate(19,6)"/>
<path d="M0,0 L2,0 L1,4 L-7,5 L-7,3 Z " fill="#181818" transform="translate(16,9)"/>
<path d="M0,0 L4,1 L3,4 L3,2 L-4,5 L-6,3 Z " fill="#C1C1C1" transform="translate(15,7)"/>
</svg>
