<?xml version="1.0" encoding="UTF-8"?>
<svg version="1.1" xmlns="http://www.w3.org/2000/svg" width="28" height="28">
<path d="M0,0 L28,0 L28,28 L0,28 Z " fill="#030303" transform="translate(0,0)"/>
<path d="M0,0 L4,1 L3,7 L-1,14 L-4,20 L-7,20 L-4,11 L-3,9 L-7,8 L-6,4 L-3,1 Z " fill="#EEEEEE" transform="translate(16,6)"/>
<path d="M0,0 L6,0 L6,2 L4,3 L4,5 L0,6 L-2,5 L-1,1 Z " fill="#9F9F9F" transform="translate(11,9)"/>
<path d="M0,0 L1,2 L3,3 L0,9 L-3,9 Z " fill="#DEDEDE" transform="translate(12,17)"/>
</svg>
