<?xml version="1.0" encoding="UTF-8"?>
<svg version="1.1" xmlns="http://www.w3.org/2000/svg" width="28" height="28">
<path d="M0,0 L28,0 L28,28 L0,28 Z " fill="#010101" transform="translate(0,0)"/>
<path d="M0,0 L5,0 L7,3 L6,18 L8,18 L8,20 L4,19 L3,17 L3,10 L-1,12 L-5,11 L-6,10 L-6,5 Z " fill="#D7D7D7" transform="translate(13,6)"/>
<path d="M0,0 L2,0 L3,6 L2,17 L4,17 L4,19 L0,18 L-1,16 L-1,9 L-6,10 L-1,6 Z " fill="#E1E1E1" transform="translate(17,7)"/>
<path d="M0,0 L3,0 L3,5 L0,7 L-4,7 L-3,2 Z " fill="#151515" transform="translate(14,8)"/>
</svg>
