<?xml version="1.0" encoding="UTF-8"?>
<svg version="1.1" xmlns="http://www.w3.org/2000/svg" width="28" height="28">
<path d="M0,0 L28,0 L28,28 L0,28 Z " fill="#020202" transform="translate(0,0)"/>
<path d="M0,0 L7,1 L8,4 L4,19 L1,19 L3,11 L-3,9 L-4,4 Z " fill="#DADADA" transform="translate(12,7)"/>
<path d="M0,0 L2,0 L3,4 L0,14 L-3,14 L0,4 L-3,3 L0,3 Z " fill="#ECECEC" transform="translate(16,12)"/>
<path d="M0,0 L5,1 L3,5 L-2,5 L-1,1 Z " fill="#121212" transform="translate(13,9)"/>
<path d="M0,0 L1,2 L6,2 L6,5 L-1,4 Z " fill="#C0C0C0" transform="translate(10,12)"/>
</svg>
