<?xml version="1.0" encoding="UTF-8"?>
<svg version="1.1" xmlns="http://www.w3.org/2000/svg" width="28" height="28">
<path d="M0,0 L28,0 L28,28 L0,28 Z " fill="#020202" transform="translate(0,0)"/>
<path d="M0,0 L4,0 L6,6 L0,11 L-4,15 L-5,18 L-10,20 L-9,16 L-3,10 L-8,8 L-6,3 Z " fill="#E2E2E2" transform="translate(17,6)"/>
<path d="M0,0 L4,0 L6,6 L1,10 L-1,10 L-1,7 L-4,5 L-1,2 Z " fill="#E4E4E4" transform="translate(17,6)"/>
<path d="M0,0 L4,0 L5,4 L-4,6 L-1,2 Z " fill="#878787" transform="translate(17,6)"/>
</svg>
