<?xml version="1.0" encoding="UTF-8"?>
<svg version="1.1" xmlns="http://www.w3.org/2000/svg" width="28" height="28">
<path d="M0,0 L28,0 L28,28 L0,28 Z " fill="#030303" transform="translate(0,0)"/>
<path d="M0,0 L5,0 L5,6 L0,16 L-2,20 L-4,20 L-3,13 L0,7 L-4,8 L-6,7 L-5,3 Z " fill="#DFDFDF" transform="translate(14,7)"/>
<path d="M0,0 L3,0 L2,5 L-3,16 L-5,16 L-4,9 L-2,6 Z " fill="#E7E7E7" transform="translate(15,11)"/>
<path d="M0,0 L2,0 L2,2 L-3,6 L-7,5 L-6,2 L-4,2 Z " fill="#7C7C7C" transform="translate(15,9)"/>
<path d="M0,0 L3,0 L3,9 L1,9 L0,3 L-2,4 Z " fill="#494949" transform="translate(19,12)"/>
</svg>
