<?xml version="1.0" encoding="UTF-8"?>
<svg version="1.1" xmlns="http://www.w3.org/2000/svg" width="28" height="28">
<path d="M0,0 L28,0 L28,28 L0,28 Z " fill="#030303" transform="translate(0,0)"/>
<path d="M0,0 L5,1 L4,12 L0,20 L-2,20 L-1,12 L-8,13 L-9,8 L-4,2 Z " fill="#EEEEEE" transform="translate(16,6)"/>
<path d="M0,0 L6,1 L4,7 L1,10 L1,11 L-4,11 L-5,6 Z " fill="#DFDFDF" transform="translate(12,8)"/>
<path d="M0,0 L3,0 L1,5 L-2,5 L-2,7 L-4,7 L-2,2 Z " fill="#171717" transform="translate(15,9)"/>
</svg>
