<?xml version="1.0" encoding="UTF-8"?>
<svg version="1.1" xmlns="http://www.w3.org/2000/svg" width="28" height="28">
<path d="M0,0 L28,0 L28,28 L0,28 Z " fill="#010101" transform="translate(0,0)"/>
<path d="M0,0 L5,1 L10,6 L7,14 L7,20 L4,19 L4,12 L-1,12 L-2,11 L-1,2 Z " fill="#D0D0D0" transform="translate(11,6)"/>
<path d="M0,0 L6,2 L5,7 L4,8 L-1,8 Z " fill="#111111" transform="translate(12,8)"/>
<path d="M0,0 L2,1 L-1,9 L-1,15 L-4,14 L-3,6 L-5,5 Z " fill="#E7E7E7" transform="translate(19,11)"/>
</svg>
