<?xml version="1.0" encoding="UTF-8"?>
<svg version="1.1" xmlns="http://www.w3.org/2000/svg" width="28" height="28">
<path d="M0,0 L28,0 L28,28 L0,28 Z " fill="#020202" transform="translate(0,0)"/>
<path d="M0,0 L4,1 L3,8 L-2,20 L-4,20 L-3,13 L-2,11 L-8,11 L-9,7 L-4,2 Z " fill="#E7E7E7" transform="translate(16,6)"/>
<path d="M0,0 L3,1 L0,7 L1,12 L-1,17 L-3,17 L-2,6 L-5,6 L-4,3 Z " fill="#DADADA" transform="translate(15,9)"/>
<path d="M0,0 L3,1 L-2,6 L-5,6 L-4,3 Z " fill="#242424" transform="translate(15,9)"/>
</svg>
