<?xml version="1.0" encoding="UTF-8"?>
<svg version="1.1" xmlns="http://www.w3.org/2000/svg" width="28" height="28">
<path d="M0,0 L28,0 L28,28 L0,28 Z " fill="#030303" transform="translate(0,0)"/>
<path d="M0,0 L4,2 L4,7 L0,15 L-2,20 L-4,20 L-3,14 L-2,11 L-8,11 L-8,6 L-2,1 Z " fill="#F4F4F4" transform="translate(16,6)"/>
<path d="M0,0 L4,2 L4,7 L1,7 L-2,9 L-6,9 L-4,5 L-4,2 Z " fill="#DFDFDF" transform="translate(16,6)"/>
<path d="M0,0 L2,0 L0,5 L-5,6 L-3,2 Z " fill="#191919" transform="translate(15,9)"/>
<path d="M0,0 L1,2 L3,3 L0,10 L-2,10 L-1,4 Z " fill="#DBDBDB" transform="translate(14,16)"/>
</svg>
