<?xml version="1.0" encoding="UTF-8"?>
<svg version="1.1" xmlns="http://www.w3.org/2000/svg" width="28" height="28">
<path d="M0,0 L28,0 L28,28 L0,28 Z " fill="#010101" transform="translate(0,0)"/>
<path d="M0,0 L7,1 L8,6 L8,20 L4,19 L3,10 L2,11 L-3,11 L-5,9 L-5,4 Z " fill="#CACACA" transform="translate(12,6)"/>
<path d="M0,0 L1,0 L2,15 L-2,14 L-3,5 L-5,4 Z " fill="#F7F7F7" transform="translate(18,11)"/>
<path d="M0,0 L7,1 L3,7 L-2,6 L-1,2 Z " fill="#0E0E0E" transform="translate(11,8)"/>
<path d="M0,0 L3,2 L4,11 L0,10 Z " fill="#B6B6B6" transform="translate(16,15)"/>
</svg>
