<?xml version="1.0" encoding="UTF-8"?>
<svg version="1.1" xmlns="http://www.w3.org/2000/svg" width="28" height="28">
<path d="M0,0 L28,0 L28,28 L0,28 Z " fill="#020202" transform="translate(0,0)"/>
<path d="M0,0 L8,0 L11,1 L11,17 L9,20 L3,20 L3,17 L8,18 L8,10 L5,12 L0,11 L-1,9 L-1,2 Z " fill="#D2D2D2" transform="translate(9,6)"/>
<path d="M0,0 L5,0 L5,3 L2,6 L2,9 L6,11 L2,12 L-1,9 L-1,2 Z " fill="#E2E2E2" transform="translate(9,6)"/>
<path d="M0,0 L2,0 L3,7 L-3,8 L-4,3 Z " fill="#141414" transform="translate(14,8)"/>
<path d="M0,0 L6,1 L6,9 L5,9 L5,2 L3,2 L3,7 L2,7 L2,2 L-1,1 Z " fill="#B9B9B9" transform="translate(14,6)"/>
<path d="M0,0 L2,0 L2,9 L-2,7 L0,7 Z " fill="#F9F9F9" transform="translate(17,8)"/>
</svg>
