<?xml version="1.0" encoding="UTF-8"?>
<svg version="1.1" xmlns="http://www.w3.org/2000/svg" width="28" height="28">
<path d="M0,0 L28,0 L28,28 L0,28 Z " fill="#020202" transform="translate(0,0)"/>
<path d="M0,0 L6,0 L9,2 L5,20 L1,20 L3,9 L-2,8 L-3,3 Z " fill="#E6E6E6" transform="translate(11,7)"/>
<path d="M0,0 L5,2 L3,6 L-2,8 L-3,3 Z " fill="#C2C2C2" transform="translate(11,7)"/>
<path d="M0,0 L2,3 L2,10 L-2,10 Z " fill="#C7C7C7" transform="translate(14,17)"/>
<path d="M0,0 L4,0 L2,4 L-1,5 Z " fill="#212121" transform="translate(12,9)"/>
</svg>
