<?xml version="1.0" encoding="UTF-8"?>
<svg version="1.1" xmlns="http://www.w3.org/2000/svg" width="28" height="28">
<path d="M0,0 L28,0 L28,28 L0,28 Z " fill="#010101" transform="translate(0,0)"/>
<path d="M0,0 L7,1 L8,19 L4,19 L4,7 L1,9 L-3,9 L-4,3 Z " fill="#CBCBCB" transform="translate(11,7)"/>
<path d="M0,0 L1,0 L1,9 L3,9 L2,13 L-1,12 L-1,4 Z " fill="#D9D9D9" transform="translate(16,14)"/>
<path d="M0,0 L3,0 L3,2 L-1,4 L-1,8 L-4,7 L-3,2 Z " fill="#EAEAEA" transform="translate(11,7)"/>
<path d="M0,0 L3,1 L0,5 L-3,5 L-2,1 Z " fill="#101010" transform="translate(12,9)"/>
</svg>
