<?xml version="1.0" encoding="UTF-8"?>
<svg version="1.1" xmlns="http://www.w3.org/2000/svg" width="28" height="28">
<path d="M0,0 L28,0 L28,28 L0,28 Z " fill="#020202" transform="translate(0,0)"/>
<path d="M0,0 L4,1 L-3,18 L-6,19 L-5,15 L-3,9 L-6,9 L-7,2 L-5,1 L-5,6 L-2,5 Z " fill="#EDEDED" transform="translate(17,8)"/>
<path d="M0,0 L4,0 L4,2 L6,3 L2,11 L0,11 L1,7 L3,1 Z " fill="#CFCFCF" transform="translate(11,16)"/>
<path d="M0,0 L3,1 L1,1 L0,6 L-4,7 L-4,1 Z " fill="#747474" transform="translate(16,7)"/>
</svg>
