<?xml version="1.0" encoding="UTF-8"?>
<svg version="1.1" xmlns="http://www.w3.org/2000/svg" width="28" height="28">
<path d="M0,0 L28,0 L28,28 L0,28 Z " fill="#020202" transform="translate(0,0)"/>
<path d="M0,0 L3,0 L5,9 L6,19 L1,20 L-4,14 L0,16 L2,17 L2,9 L-2,8 L-3,3 Z " fill="#C2C2C2" transform="translate(13,5)"/>
<path d="M0,0 L4,0 L4,7 L0,6 L-1,1 Z " fill="#A0A0A0" transform="translate(11,7)"/>
<path d="M0,0 L3,0 L4,2 L4,10 L1,8 L2,2 L-1,1 Z " fill="#F5F5F5" transform="translate(13,5)"/>
</svg>
