<?xml version="1.0" encoding="UTF-8"?>
<svg version="1.1" xmlns="http://www.w3.org/2000/svg" width="28" height="28">
<path d="M0,0 L28,0 L28,28 L0,28 Z " fill="#020202" transform="translate(0,0)"/>
<path d="M0,0 L5,1 L7,6 L4,17 L6,17 L6,19 L2,20 L2,13 L3,11 L1,12 L-5,12 L-5,6 L-2,1 Z " fill="#E4E4E4" transform="translate(13,6)"/>
<path d="M0,0 L4,0 L5,4 L1,8 L-3,8 L-2,3 Z " fill="#0E0E0E" transform="translate(13,8)"/>
<path d="M0,0 L2,0 L-1,9 L-3,5 Z " fill="#CACACA" transform="translate(11,7)"/>
</svg>
