<?xml version="1.0" encoding="UTF-8"?>
<svg version="1.1" xmlns="http://www.w3.org/2000/svg" width="28" height="28">
<path d="M0,0 L28,0 L28,28 L0,28 Z " fill="#010101" transform="translate(0,0)"/>
<path d="M0,0 L5,0 L8,1 L7,6 L0,20 L-2,20 L-1,15 L2,9 L-3,9 L-4,3 Z " fill="#AAAAAA" transform="translate(13,7)"/>
<path d="M0,0 L5,0 L5,2 L7,3 L5,4 L-1,4 L-2,7 L0,8 L-4,7 L-3,2 Z " fill="#ECECEC" transform="translate(13,7)"/>
<path d="M0,0 L1,4 L-2,9 L-4,9 L-3,4 Z " fill="#EEEEEE" transform="translate(15,18)"/>
</svg>
