<?xml version="1.0" encoding="UTF-8"?>
<svg version="1.1" xmlns="http://www.w3.org/2000/svg" width="28" height="28">
<path d="M0,0 L28,0 L28,28 L0,28 Z " fill="#010101" transform="translate(0,0)"/>
<path d="M0,0 L5,1 L4,19 L0,20 L2,9 L3,6 L-2,10 L-7,11 L-8,8 L-5,3 Z " fill="#E7E7E7" transform="translate(14,6)"/>
<path d="M0,0 L6,1 L1,9 L-4,10 L-5,7 L-2,2 Z " fill="#D3D3D3" transform="translate(11,7)"/>
<path d="M0,0 L4,1 L-2,6 L-4,6 L-2,2 Z " fill="#1A1A1A" transform="translate(13,8)"/>
<path d="M0,0 L3,1 L3,6 L-1,7 Z " fill="#BFBFBF" transform="translate(15,19)"/>
</svg>
