<?xml version="1.0" encoding="UTF-8"?>
<svg version="1.1" xmlns="http://www.w3.org/2000/svg" width="28" height="28">
<path d="M0,0 L28,0 L28,28 L0,28 Z " fill="#020202" transform="translate(0,0)"/>
<path d="M0,0 L5,1 L7,4 L6,20 L4,20 L4,10 L5,7 L1,10 L-4,10 L-5,5 Z " fill="#D0D0D0" transform="translate(12,7)"/>
<path d="M0,0 L3,0 L2,16 L0,16 L0,6 L1,3 L-1,2 Z " fill="#DBDBDB" transform="translate(16,11)"/>
<path d="M0,0 L4,0 L3,5 L-2,7 L-3,3 Z " fill="#090909" transform="translate(12,9)"/>
</svg>
