<?xml version="1.0" encoding="UTF-8"?>
<svg version="1.1" xmlns="http://www.w3.org/2000/svg" width="28" height="28">
<path d="M0,0 L28,0 L28,28 L0,28 Z " fill="#020202" transform="translate(0,0)"/>
<path d="M0,0 L7,1 L9,4 L8,14 L9,17 L7,20 L4,19 L4,13 L-2,12 L-3,11 L-3,3 Z " fill="#E3E3E3" transform="translate(11,5)"/>
<path d="M0,0 L5,1 L5,7 L4,8 L-2,8 L-2,2 Z " fill="#151515" transform="translate(12,7)"/>
<path d="M0,0 L5,1 L7,2 L6,7 L2,7 L2,1 Z " fill="#CCCCCC" transform="translate(13,17)"/>
<path d="M0,0 L1,3 L-1,8 L-2,4 L-6,3 Z " fill="#FAFAFA" transform="translate(18,13)"/>
</svg>
