<?xml version="1.0" encoding="UTF-8"?>
<svg version="1.1" xmlns="http://www.w3.org/2000/svg" width="28" height="28">
<path d="M0,0 L28,0 L28,28 L0,28 Z " fill="#020202" transform="translate(0,0)"/>
<path d="M0,0 L6,0 L7,2 L12,3 L11,11 L8,20 L5,19 L7,10 L-1,10 L-4,7 L-3,2 Z " fill="#D8D8D8" transform="translate(9,7)"/>
<path d="M0,0 L8,1 L9,6 L5,19 L2,18 L3,14 L5,8 L1,8 L1,6 L4,5 Z " fill="#EFEFEF" transform="translate(12,8)"/>
<path d="M0,0 L5,1 L7,3 L6,4 L-2,4 L-2,1 Z " fill="#141414" transform="translate(10,10)"/>
</svg>
