<?xml version="1.0" encoding="UTF-8"?>
<svg version="1.1" xmlns="http://www.w3.org/2000/svg" width="28" height="28">
<path d="M0,0 L28,0 L28,28 L0,28 Z " fill="#020202" transform="translate(0,0)"/>
<path d="M0,0 L9,0 L11,1 L11,7 L6,15 L-1,20 L-5,20 L-5,18 L1,14 L5,9 L-1,7 L-3,3 Z " fill="#E1E1E1" transform="translate(11,6)"/>
<path d="M0,0 L9,0 L11,1 L11,7 L9,5 L8,7 L1,5 L-1,1 Z " fill="#DDDDDD" transform="translate(11,6)"/>
<path d="M0,0 L5,1 L5,5 L-2,3 L-3,1 Z " fill="#1F1F1F" transform="translate(14,8)"/>
<path d="M0,0 L1,0 L0,7 L-3,7 L-4,4 L-1,4 Z " fill="#F7F7F7" transform="translate(20,9)"/>
</svg>
