<?xml version="1.0" encoding="UTF-8"?>
<svg version="1.1" xmlns="http://www.w3.org/2000/svg" width="28" height="28">
<path d="M0,0 L28,0 L28,28 L0,28 Z " fill="#030303" transform="translate(0,0)"/>
<path d="M0,0 L7,1 L9,6 L11,4 L10,9 L8,20 L5,19 L6,11 L-3,11 L-5,9 L-4,4 Z " fill="#0C0C0C" transform="translate(10,6)"/>
<path d="M0,0 L2,3 L4,1 L3,6 L1,17 L-2,16 L-1,8 L-10,8 L-10,7 L-1,5 Z " fill="#DBDBDB" transform="translate(17,9)"/>
<path d="M0,0 L7,1 L7,3 L-2,4 L-3,10 L-5,9 L-4,4 Z " fill="#D8D8D8" transform="translate(10,6)"/>
</svg>
