<?xml version="1.0" encoding="UTF-8"?>
<svg version="1.1" xmlns="http://www.w3.org/2000/svg" width="28" height="28">
<path d="M0,0 L28,0 L28,28 L0,28 Z " fill="#010101" transform="translate(0,0)"/>
<path d="M0,0 L6,0 L7,5 L1,14 L-2,17 L-3,20 L-6,20 L-5,16 L1,9 L-4,10 L-7,8 L-6,4 L-3,1 Z " fill="#DEDEDE" transform="translate(15,7)"/>
<path d="M0,0 L7,1 L6,5 L3,8 L-1,9 L-4,7 L-3,3 Z " fill="#D1D1D1" transform="translate(12,8)"/>
<path d="M0,0 L2,0 L1,4 L-6,5 L-5,2 Z " fill="#151515" transform="translate(17,9)"/>
</svg>
