<?xml version="1.0" encoding="UTF-8"?>
<svg version="1.1" xmlns="http://www.w3.org/2000/svg" width="28" height="28">
<path d="M0,0 L28,0 L28,28 L0,28 Z " fill="#020202" transform="translate(0,0)"/>
<path d="M0,0 L6,0 L7,1 L6,10 L3,20 L1,20 L3,10 L-5,11 L-7,9 L-6,5 Z " fill="#D0D0D0" transform="translate(13,6)"/>
<path d="M0,0 L2,1 L0,6 L-4,8 L-9,8 L-7,3 Z " fill="#0B0B0B" transform="translate(17,7)"/>
<path d="M0,0 L2,1 L-1,5 L-1,7 L1,9 L-3,8 L-4,4 Z " fill="#EBEBEB" transform="translate(10,8)"/>
</svg>
