<?xml version="1.0" encoding="UTF-8"?>
<svg version="1.1" xmlns="http://www.w3.org/2000/svg" width="28" height="28">
<path d="M0,0 L28,0 L28,28 L0,28 Z " fill="#020202" transform="translate(0,0)"/>
<path d="M0,0 L6,1 L7,6 L-2,20 L-4,20 L-2,15 L2,9 L-4,10 L-6,6 L-1,1 Z " fill="#C5C5C5" transform="translate(14,6)"/>
<path d="M0,0 L4,0 L4,4 L1,6 L-4,6 L-2,2 Z " fill="#090909" transform="translate(14,8)"/>
<path d="M0,0 L3,1 L-6,15 L-8,15 L-6,10 L-2,5 Z " fill="#E3E3E3" transform="translate(18,11)"/>
</svg>
