<?xml version="1.0" encoding="UTF-8"?>
<svg version="1.1" xmlns="http://www.w3.org/2000/svg" width="28" height="28">
<path d="M0,0 L28,0 L28,28 L0,28 Z " fill="#020202" transform="translate(0,0)"/>
<path d="M0,0 L7,0 L8,2 L8,8 L3,15 L1,20 L-1,20 L-1,15 L-6,14 L-7,13 L-6,6 L-1,1 Z " fill="#EBEBEB" transform="translate(14,6)"/>
<path d="M0,0 L2,0 L1,6 L-3,10 L-8,10 L-7,6 L-2,1 Z " fill="#151515" transform="translate(17,8)"/>
<path d="M0,0 L2,1 L0,5 L-4,9 L-5,12 L-1,13 L-1,16 L-7,13 L-6,6 L-1,1 Z " fill="#DBDBDB" transform="translate(14,6)"/>
<path d="M0,0 L2,0 L2,4 L6,5 L6,8 L0,5 Z " fill="#C2C2C2" transform="translate(7,14)"/>
</svg>
