<?xml version="1.0" encoding="UTF-8"?>
<svg version="1.1" xmlns="http://www.w3.org/2000/svg" width="28" height="28">
<path d="M0,0 L28,0 L28,28 L0,28 Z " fill="#020202" transform="translate(0,0)"/>
<path d="M0,0 L5,1 L6,6 L6,19 L2,20 L1,17 L2,12 L-5,13 L-7,11 L-7,6 Z " fill="#EAEAEA" transform="translate(14,6)"/>
<path d="M0,0 L3,1 Z M-2,1 L3,3 L2,7 L0,10 L-4,9 L-5,7 L-7,11 L-7,6 Z " fill="#DEDEDE" transform="translate(14,6)"/>
<path d="M0,0 L4,0 L3,4 L2,6 L-2,5 L-2,2 L0,2 Z " fill="#1B1B1B" transform="translate(12,10)"/>
</svg>
