<?xml version="1.0" encoding="UTF-8"?>
<svg version="1.1" xmlns="http://www.w3.org/2000/svg" width="28" height="28">
<path d="M0,0 L28,0 L28,28 L0,28 Z " fill="#030303" transform="translate(0,0)"/>
<path d="M0,0 L5,1 L9,3 L4,9 L2,9 L0,14 L-5,20 L-7,20 L-5,15 L0,9 L-5,9 L-6,5 L-3,1 Z " fill="#E9E9E9" transform="translate(14,7)"/>
<path d="M0,0 L2,1 L4,5 L-3,9 L-6,8 L-5,3 Z " fill="#D1D1D1" transform="translate(14,7)"/>
<path d="M0,0 L2,0 L0,4 L-4,9 L-6,9 L-4,4 Z " fill="#D1D1D1" transform="translate(13,18)"/>
<path d="M0,0 L6,0 L5,3 L-2,4 Z " fill="#1A1A1A" transform="translate(12,10)"/>
</svg>
