<?xml version="1.0" encoding="UTF-8"?>
<svg version="1.1" xmlns="http://www.w3.org/2000/svg" width="28" height="28">
<path d="M0,0 L28,0 L28,28 L0,28 Z " fill="#020202" transform="translate(0,0)"/>
<path d="M0,0 L4,0 L5,5 L1,10 L-3,15 L-6,20 L-7,17 L-3,11 L-7,9 L-5,4 Z " fill="#E5E5E5" transform="translate(16,7)"/>
<path d="M0,0 L3,0 L3,2 L0,4 L-1,8 L-6,8 L-7,5 L-4,1 Z " fill="#C3C3C3" transform="translate(16,9)"/>
<path d="M0,0 L3,1 L0,4 L-3,9 L-4,6 Z " fill="#CECECE" transform="translate(13,18)"/>
<path d="M0,0 L3,0 L3,2 L-3,6 L-5,5 Z " fill="#232323" transform="translate(16,9)"/>
</svg>
