<?xml version="1.0" encoding="UTF-8"?>
<svg version="1.1" xmlns="http://www.w3.org/2000/svg" width="28" height="28">
<path d="M0,0 L28,0 L28,28 L0,28 Z " fill="#020202" transform="translate(0,0)"/>
<path d="M0,0 L5,1 L6,7 L9,7 L6,20 L4,20 L5,10 L6,8 L-1,7 L-2,2 Z " fill="#979797" transform="translate(10,6)"/>
<path d="M0,0 L4,1 L1,14 L-1,14 L0,4 L1,2 L-1,1 Z " fill="#EFEFEF" transform="translate(15,12)"/>
<path d="M0,0 L4,0 L3,4 L3,2 L1,3 L-1,6 L-2,2 Z " fill="#E7E7E7" transform="translate(10,6)"/>
</svg>
