<?xml version="1.0" encoding="UTF-8"?>
<svg version="1.1" xmlns="http://www.w3.org/2000/svg" width="28" height="28">
<path d="M0,0 L28,0 L28,28 L0,28 Z " fill="#020202" transform="translate(0,0)"/>
<path d="M0,0 L5,2 L5,16 L7,16 L5,20 L2,19 L2,12 L-4,13 L-5,12 L-5,5 Z " fill="#ECECEC" transform="translate(13,5)"/>
<path d="M0,0 L3,1 L1,6 L-3,8 L-2,2 Z " fill="#131313" transform="translate(13,8)"/>
<path d="M0,0 L1,0 L1,7 L3,7 L1,11 L-2,10 Z " fill="#B3B3B3" transform="translate(17,14)"/>
</svg>
