<?xml version="1.0" encoding="UTF-8"?>
<svg version="1.1" xmlns="http://www.w3.org/2000/svg" width="28" height="28">
<path d="M0,0 L28,0 L28,28 L0,28 Z " fill="#020202" transform="translate(0,0)"/>
<path d="M0,0 L7,0 L6,4 L2,11 L-4,20 L-7,20 L-5,15 L-2,10 L-7,7 L-5,3 Z " fill="#E7E7E7" transform="translate(15,7)"/>
<path d="M0,0 L5,0 L3,4 L-3,4 L-3,2 Z " fill="#2D2D2D" transform="translate(15,9)"/>
<path d="M0,0 L2,1 L2,3 L0,3 L0,5 L3,6 L-2,5 L-4,6 L-2,2 Z " fill="#C3C3C3" transform="translate(12,8)"/>
</svg>
