<?xml version="1.0" encoding="UTF-8"?>
<svg version="1.1" xmlns="http://www.w3.org/2000/svg" width="28" height="28">
<path d="M0,0 L28,0 L28,28 L0,28 Z " fill="#050505" transform="translate(0,0)"/>
<path d="M0,0 L7,0 L9,2 L9,6 L7,6 L6,4 L0,4 L-2,5 L-3,8 L7,8 L14,7 L13,16 L13,18 L10,17 L10,10 L8,11 L-3,11 L-6,8 L-5,3 Z " fill="#ECECEC" transform="translate(10,7)"/>
<path d="M0,0 L7,0 L9,2 L9,6 L7,6 L6,4 L0,4 L-4,7 L-6,6 L-4,2 Z " fill="#E0E0E0" transform="translate(10,7)"/>
<path d="M0,0 L4,2 L4,6 L2,6 L1,4 L-3,2 Z " fill="#B7B7B7" transform="translate(15,7)"/>
</svg>
