<?xml version="1.0" encoding="UTF-8"?>
<svg version="1.1" xmlns="http://www.w3.org/2000/svg" width="28" height="28">
<path d="M0,0 L28,0 L28,28 L0,28 Z " fill="#020202" transform="translate(0,0)"/>
<path d="M0,0 L4,1 L5,5 L7,5 L6,10 L0,17 L-1,20 L-4,20 L-3,16 L1,11 L3,11 L2,9 L-5,9 L-6,5 Z " fill="#E4E4E4" transform="translate(14,6)"/>
<path d="M0,0 L5,1 L5,5 L-2,6 L-4,7 L-3,3 Z " fill="#C6C6C6" transform="translate(12,7)"/>
<path d="M0,0 L2,0 L2,5 L-3,10 L-4,13 L-7,13 L-6,9 L-2,4 L0,4 Z " fill="#CECECE" transform="translate(17,13)"/>
<path d="M0,0 L4,0 L4,3 L-2,4 Z " fill="#111111" transform="translate(13,9)"/>
</svg>
