<?xml version="1.0" encoding="UTF-8"?>
<svg version="1.1" xmlns="http://www.w3.org/2000/svg" width="28" height="28">
<path d="M0,0 L28,0 L28,28 L0,28 Z " fill="#020202" transform="translate(0,0)"/>
<path d="M0,0 L4,0 L8,4 L8,2 L10,2 L8,13 L5,20 L3,20 L5,9 L-1,10 L-3,9 L-3,3 Z " fill="#DADADA" transform="translate(10,7)"/>
<path d="M0,0 L1,4 L6,5 L3,7 L-1,6 L-1,1 Z " fill="#E3E3E3" transform="translate(9,10)"/>
<path d="M0,0 L4,2 L1,5 L-2,4 Z " fill="#1C1C1C" transform="translate(11,10)"/>
<path d="M0,0 L4,1 L1,4 L-1,4 L-2,9 L-3,9 L-3,3 Z " fill="#A5A5A5" transform="translate(10,7)"/>
<path d="M0,0 L2,2 L1,6 L0,9 L-2,9 Z " fill="#CCCCCC" transform="translate(15,18)"/>
<path d="M0,0 L2,0 L1,6 L-1,8 L-2,3 Z " fill="#F1F1F1" transform="translate(18,9)"/>
</svg>
