<?xml version="1.0" encoding="UTF-8"?>
<svg version="1.1" xmlns="http://www.w3.org/2000/svg" width="28" height="28">
<path d="M0,0 L28,0 L28,28 L0,28 Z " fill="#040404" transform="translate(0,0)"/>
<path d="M0,0 L2,0 L3,20 L1,20 L-1,8 L-4,11 L-8,11 L-9,7 L-6,1 L-1,1 Z " fill="#C0C0C0" transform="translate(17,7)"/>
<path d="M0,0 L5,0 L5,2 L3,2 L3,4 L1,4 L1,6 L3,6 L2,10 L-2,10 L-3,6 Z " fill="#EDEDED" transform="translate(11,8)"/>
<path d="M0,0 L2,3 L3,12 L1,12 L0,9 Z " fill="#DFDFDF" transform="translate(17,15)"/>
</svg>
