<?xml version="1.0" encoding="UTF-8"?>
<svg version="1.1" xmlns="http://www.w3.org/2000/svg" width="28" height="28">
<path d="M0,0 L28,0 L28,28 L0,28 Z " fill="#030303" transform="translate(0,0)"/>
<path d="M0,0 L8,0 L9,1 L9,6 L5,11 L3,11 L1,16 L-2,20 L-4,20 L-3,15 L1,10 L-5,8 L-4,3 Z " fill="#EDEDED" transform="translate(13,7)"/>
<path d="M0,0 L1,4 L-2,8 L-4,8 L-6,13 L-9,17 L-11,17 L-10,12 L-6,6 L-1,1 Z " fill="#EEEEEE" transform="translate(20,10)"/>
<path d="M0,0 L5,0 L4,4 L-3,5 L-1,1 Z " fill="#1D1D1D" transform="translate(14,9)"/>
<path d="M0,0 L6,0 L7,1 L7,6 L4,4 L4,2 L-1,2 Z " fill="#C7C7C7" transform="translate(15,7)"/>
</svg>
