<?xml version="1.0" encoding="UTF-8"?>
<svg version="1.1" xmlns="http://www.w3.org/2000/svg" width="28" height="28">
<path d="M0,0 L28,0 L28,28 L0,28 Z " fill="#040404" transform="translate(0,0)"/>
<path d="M0,0 L8,0 L11,4 L11,6 L9,6 L7,11 L6,13 L4,13 L2,17 L-1,20 L-3,20 L-2,16 L3,10 L5,8 L-5,8 L-4,3 Z " fill="#E5E5E5" transform="translate(12,6)"/>
<path d="M0,0 L1,2 L0,4 L-2,4 L-4,8 L-7,11 L-9,11 L-8,7 Z " fill="#F2F2F2" transform="translate(18,15)"/>
<path d="M0,0 L5,0 L5,3 L-4,4 Z " fill="#121212" transform="translate(14,8)"/>
<path d="M0,0 L2,1 L1,4 L4,6 L-1,6 L-3,5 L-1,1 Z " fill="#C6C6C6" transform="translate(10,7)"/>
</svg>
