<?xml version="1.0" encoding="UTF-8"?>
<svg version="1.1" xmlns="http://www.w3.org/2000/svg" width="28" height="28">
<path d="M0,0 L28,0 L28,28 L0,28 Z " fill="#020202" transform="translate(0,0)"/>
<path d="M0,0 L6,0 L7,5 L2,14 L-3,19 L-6,20 L-5,16 L-4,13 L-9,12 L-8,6 L-2,1 Z " fill="#E7E7E7" transform="translate(16,6)"/>
<path d="M0,0 L2,2 L-2,9 L-7,14 L-10,15 L-9,11 L-6,7 L-6,4 Z " fill="#F0F0F0" transform="translate(20,11)"/>
<path d="M0,0 L4,0 L4,3 L-1,6 L-5,6 L-3,2 Z " fill="#101010" transform="translate(16,9)"/>
<path d="M0,0 L6,0 L7,5 L4,5 L4,3 L0,2 Z " fill="#C3C3C3" transform="translate(16,6)"/>
<path d="M0,0 L1,2 L3,2 L4,0 L7,2 L7,5 L0,4 Z " fill="#C7C7C7" transform="translate(7,14)"/>
</svg>
