<?xml version="1.0" encoding="UTF-8"?>
<svg version="1.1" xmlns="http://www.w3.org/2000/svg" width="28" height="28">
<path d="M0,0 L28,0 L28,28 L0,28 Z " fill="#010101" transform="translate(0,0)"/>
<path d="M0,0 L11,0 L13,18 L10,15 L8,10 L7,11 L-4,11 L-7,8 L-7,3 Z " fill="#B2B2B2" transform="translate(10,8)"/>
<path d="M0,0 L3,0 L4,6 L2,8 L-9,8 L-10,3 L-5,1 Z " fill="#0C0C0C" transform="translate(15,9)"/>
<path d="M0,0 L8,0 L10,18 L7,15 L5,1 L0,2 Z " fill="#D5D5D5" transform="translate(13,8)"/>
</svg>
