<?xml version="1.0" encoding="UTF-8"?>
<svg version="1.1" xmlns="http://www.w3.org/2000/svg" width="28" height="28">
<path d="M0,0 L28,0 L28,28 L0,28 Z " fill="#010101" transform="translate(0,0)"/>
<path d="M0,0 L5,1 L6,4 L0,14 L-3,20 L-6,20 L-5,15 L0,8 L-7,9 L-8,5 L-3,1 Z " fill="#D3D3D3" transform="translate(16,7)"/>
<path d="M0,0 L1,3 L-3,9 L-4,12 L-7,12 L-6,7 Z " fill="#DCDCDC" transform="translate(17,15)"/>
<path d="M0,0 L8,1 L8,3 L3,5 L-1,4 L-3,6 L-2,2 Z " fill="#747474" transform="translate(11,9)"/>
</svg>
