<?xml version="1.0" encoding="UTF-8"?>
<svg version="1.1" xmlns="http://www.w3.org/2000/svg" width="28" height="28">
<path d="M0,0 L28,0 L28,28 L0,28 Z " fill="#010101" transform="translate(0,0)"/>
<path d="M0,0 L6,0 L7,5 L2,20 L0,19 L2,10 L-3,10 L-5,8 L-4,3 Z " fill="#DADADA" transform="translate(13,7)"/>
<path d="M0,0 L4,0 L2,4 L0,6 L-4,6 L-3,2 Z " fill="#0F0F0F" transform="translate(14,9)"/>
<path d="M0,0 L2,2 L0,6 L6,7 L5,11 L5,8 L0,8 L-2,6 L-1,1 Z " fill="#B1B1B1" transform="translate(10,9)"/>
</svg>
