<?xml version="1.0" encoding="UTF-8"?>
<svg version="1.1" xmlns="http://www.w3.org/2000/svg" width="28" height="28">
<path d="M0,0 L28,0 L28,28 L0,28 Z " fill="#020202" transform="translate(0,0)"/>
<path d="M0,0 L6,0 L5,7 L-1,16 L-2,20 L-4,20 L-3,14 L1,8 L-6,8 L-5,3 Z " fill="#E3E3E3" transform="translate(14,7)"/>
<path d="M0,0 L5,0 L3,5 L-5,6 L-4,1 Z " fill="#C6C6C6" transform="translate(13,9)"/>
<path d="M0,0 L5,0 L4,3 L-3,4 L-2,1 Z " fill="#101010" transform="translate(13,9)"/>
<path d="M0,0 L6,0 L5,4 L4,2 L-3,3 Z " fill="#BCBCBC" transform="translate(14,7)"/>
<path d="M0,0 L1,0 L1,5 L-1,10 L-3,10 L-2,4 Z " fill="#C7C7C7" transform="translate(13,17)"/>
</svg>
