<?xml version="1.0" encoding="UTF-8"?>
<svg version="1.1" xmlns="http://www.w3.org/2000/svg" width="28" height="28">
<path d="M0,0 L28,0 L28,28 L0,28 Z " fill="#010101" transform="translate(0,0)"/>
<path d="M0,0 L6,0 L7,7 L3,19 L0,20 L3,10 L-4,11 L-5,5 Z " fill="#BFBFBF" transform="translate(13,7)"/>
<path d="M0,0 L5,0 L5,3 L-1,5 L-3,8 L-1,9 L-5,9 L-4,3 Z " fill="#D7D7D7" transform="translate(13,7)"/>
<path d="M0,0 L5,0 L2,5 L-1,6 L-3,5 L-1,1 Z " fill="#090909" transform="translate(13,10)"/>
<path d="M0,0 L1,0 L0,8 L-2,13 L-4,13 L-1,1 Z " fill="#E9E9E9" transform="translate(17,14)"/>
</svg>
