<?xml version="1.0" encoding="UTF-8"?>
<svg version="1.1" xmlns="http://www.w3.org/2000/svg" width="28" height="28">
<path d="M0,0 L28,0 L28,28 L0,28 Z " fill="#020202" transform="translate(0,0)"/>
<path d="M0,0 L5,0 L8,2 L7,7 L-1,20 L-2,20 L-2,15 L-1,12 L-6,11 L-6,5 Z " fill="#DFDFDF" transform="translate(14,7)"/>
<path d="M0,0 L5,0 L8,2 L7,5 L4,6 L3,3 L-2,5 L-4,9 L1,9 L-1,12 L-6,11 L-6,5 Z " fill="#E7E7E7" transform="translate(14,7)"/>
<path d="M0,0 L4,2 L0,7 L-5,7 L-4,3 Z " fill="#1D1D1D" transform="translate(15,9)"/>
</svg>
