<?xml version="1.0" encoding="UTF-8"?>
<svg version="1.1" xmlns="http://www.w3.org/2000/svg" width="28" height="28">
<path d="M0,0 L28,0 L28,28 L0,28 Z " fill="#010101" transform="translate(0,0)"/>
<path d="M0,0 L5,0 L7,3 L6,8 L1,16 L-1,20 L-3,20 L-2,16 L1,10 L-4,10 L-5,6 Z " fill="#C2C2C2" transform="translate(14,6)"/>
<path d="M0,0 L2,0 L1,4 L-4,14 L-6,14 L-5,10 L-2,4 L-5,3 Z " fill="#E1E1E1" transform="translate(17,12)"/>
<path d="M0,0 L4,1 L2,5 L1,6 L-4,6 L-2,2 Z " fill="#0D0D0D" transform="translate(15,8)"/>
</svg>
