<?xml version="1.0" encoding="UTF-8"?>
<svg version="1.1" xmlns="http://www.w3.org/2000/svg" width="28" height="28">
<path d="M0,0 L28,0 L28,28 L0,28 Z " fill="#030303" transform="translate(0,0)"/>
<path d="M0,0 L8,1 L9,2 L9,10 L6,20 L4,20 L5,13 L6,10 L-3,11 L-4,10 L-3,3 Z " fill="#F1F1F1" transform="translate(11,7)"/>
<path d="M0,0 L7,0 L6,4 L3,6 L-2,6 L-1,1 Z " fill="#0F0F0F" transform="translate(11,10)"/>
<path d="M0,0 L3,1 L-1,6 L-2,9 L1,10 L-3,11 L-4,10 L-3,3 Z " fill="#C6C6C6" transform="translate(11,7)"/>
<path d="M0,0 L2,0 L3,5 L1,11 L-1,11 Z " fill="#D8D8D8" transform="translate(16,16)"/>
</svg>
