<?xml version="1.0" encoding="UTF-8"?>
<svg version="1.1" xmlns="http://www.w3.org/2000/svg" width="28" height="28">
<path d="M0,0 L28,0 L28,28 L0,28 Z " fill="#010101" transform="translate(0,0)"/>
<path d="M0,0 L7,1 L8,5 L10,5 L10,8 L7,11 L3,16 L2,20 L-2,19 L1,14 L3,11 L3,7 L6,6 L6,4 L-2,4 L-3,7 L-5,7 L-4,2 Z " fill="#E5E5E5" transform="translate(12,7)"/>
<path d="M0,0 L8,0 L8,4 L5,4 L5,6 L-3,5 Z " fill="#333333" transform="translate(10,10)"/>
<path d="M0,0 L2,4 L-1,8 L-2,12 L-6,11 L-3,6 Z " fill="#C3C3C3" transform="translate(16,15)"/>
</svg>
