<?xml version="1.0" encoding="UTF-8"?>
<svg version="1.1" xmlns="http://www.w3.org/2000/svg" width="28" height="28">
<path d="M0,0 L28,0 L28,28 L0,28 Z " fill="#020202" transform="translate(0,0)"/>
<path d="M0,0 L5,1 L6,2 L5,9 L-2,20 L-3,17 L1,11 L-6,10 L-6,4 L-3,1 Z " fill="#E9E9E9" transform="translate(14,7)"/>
<path d="M0,0 L5,1 L5,3 L0,7 L-5,6 L-4,2 Z " fill="#101010" transform="translate(14,9)"/>
<path d="M0,0 L6,0 L6,4 L2,10 L1,7 L5,1 L0,1 Z " fill="#C2C2C2" transform="translate(10,17)"/>
<path d="M0,0 L3,1 L-1,4 L-2,9 L-3,9 L-3,3 Z " fill="#CCCCCC" transform="translate(11,8)"/>
</svg>
