<?xml version="1.0" encoding="UTF-8"?>
<svg version="1.1" xmlns="http://www.w3.org/2000/svg" width="28" height="28">
<path d="M0,0 L28,0 L28,28 L0,28 Z " fill="#030303" transform="translate(0,0)"/>
<path d="M0,0 L7,0 L8,2 L8,9 L2,20 L0,20 L1,15 L4,9 L0,11 L-5,11 L-7,9 L-6,5 Z " fill="#E5E5E5" transform="translate(13,7)"/>
<path d="M0,0 L7,0 L6,3 L1,6 L-3,6 L-2,2 Z " fill="#0D0D0D" transform="translate(12,10)"/>
<path d="M0,0 L3,1 L5,3 L-2,5 L-4,9 L-7,9 L-6,5 Z " fill="#D0D0D0" transform="translate(13,7)"/>
</svg>
