<?xml version="1.0" encoding="UTF-8"?>
<svg version="1.1" xmlns="http://www.w3.org/2000/svg" width="28" height="28">
<path d="M0,0 L28,0 L28,28 L0,28 Z " fill="#010101" transform="translate(0,0)"/>
<path d="M0,0 L7,0 L6,7 L-2,17 L-4,20 L-6,20 L-4,15 L-1,12 L0,9 L-6,9 L-7,4 L-3,1 Z " fill="#242424" transform="translate(15,7)"/>
<path d="M0,0 L2,0 L0,4 L-8,15 L-10,15 L-8,10 L-4,6 L-3,2 Z " fill="#CBCBCB" transform="translate(19,12)"/>
<path d="M0,0 L7,0 L7,3 L0,3 L-6,4 L-3,1 Z " fill="#DBDBDB" transform="translate(15,7)"/>
</svg>
