<?xml version="1.0" encoding="UTF-8"?>
<svg version="1.1" xmlns="http://www.w3.org/2000/svg" width="28" height="28">
<path d="M0,0 L28,0 L28,28 L0,28 Z " fill="#020202" transform="translate(0,0)"/>
<path d="M0,0 L6,1 L7,3 L12,3 L10,17 L9,20 L6,19 L7,9 L-2,10 L-4,6 L-1,1 Z " fill="#DBDBDB" transform="translate(9,6)"/>
<path d="M0,0 L3,0 L1,14 L0,17 L-3,16 L-2,6 L-1,5 L-3,4 L-3,1 Z " fill="#E5E5E5" transform="translate(18,9)"/>
<path d="M0,0 L4,1 L3,6 L-2,6 L-1,1 Z " fill="#131313" transform="translate(10,8)"/>
</svg>
