<?xml version="1.0" encoding="UTF-8"?>
<svg version="1.1" xmlns="http://www.w3.org/2000/svg" width="28" height="28">
<path d="M0,0 L28,0 L28,28 L0,28 Z " fill="#010101" transform="translate(0,0)"/>
<path d="M0,0 L6,1 L9,4 L9,20 L7,20 L6,18 L6,11 L-2,12 L-3,7 Z " fill="#C9C9C9" transform="translate(11,6)"/>
<path d="M0,0 L4,1 L5,4 L3,4 L4,7 L-2,8 L-1,2 Z " fill="#0B0B0B" transform="translate(12,8)"/>
<path d="M0,0 L3,1 L0,9 L7,8 L8,6 L8,9 L4,11 L-1,11 L-2,6 Z " fill="#E0E0E0" transform="translate(10,7)"/>
</svg>
