<?xml version="1.0" encoding="UTF-8"?>
<svg version="1.1" xmlns="http://www.w3.org/2000/svg" width="28" height="28">
<path d="M0,0 L28,0 L28,28 L0,28 Z " fill="#020202" transform="translate(0,0)"/>
<path d="M0,0 L9,1 L9,13 L10,20 L8,20 L6,14 L2,16 L-3,17 L-6,14 L-6,6 L-1,1 Z " fill="#DCDCDC" transform="translate(12,5)"/>
<path d="M0,0 L4,0 L5,8 L-1,13 L-5,11 L-5,5 Z " fill="#101010" transform="translate(13,7)"/>
<path d="M0,0 L2,2 L-4,6 L-9,5 L-7,2 L-4,3 Z " fill="#C2C2C2" transform="translate(16,16)"/>
</svg>
