<?xml version="1.0" encoding="UTF-8"?>
<svg version="1.1" xmlns="http://www.w3.org/2000/svg" width="28" height="28">
<path d="M0,0 L28,0 L28,28 L0,28 Z " fill="#010101" transform="translate(0,0)"/>
<path d="M0,0 L4,1 L5,2 L5,7 L1,15 L-1,20 L-4,20 L-1,11 L-5,11 L-4,7 L-4,9 L1,6 L2,3 L-1,3 Z " fill="#DFDFDF" transform="translate(15,6)"/>
<path d="M0,0 L5,1 L4,5 L2,7 L-3,8 L-2,3 Z " fill="#C3C3C3" transform="translate(12,8)"/>
<path d="M0,0 L2,0 L1,4 L-3,6 L-2,2 Z " fill="#0F0F0F" transform="translate(15,9)"/>
</svg>
