<?xml version="1.0" encoding="UTF-8"?>
<svg version="1.1" xmlns="http://www.w3.org/2000/svg" width="28" height="28">
<path d="M0,0 L28,0 L28,28 L0,28 Z " fill="#040404" transform="translate(0,0)"/>
<path d="M0,0 L7,0 L7,2 L-1,3 L-5,4 L-5,7 L1,7 L2,4 L5,5 L5,10 L12,8 L12,10 L9,10 L9,12 L7,12 L7,18 L6,19 L1,19 L0,14 L2,10 L-7,8 L-8,4 L-5,1 Z " fill="#D3D3D3" transform="translate(13,5)"/>
<path d="M0,0 L7,0 L3,3 L2,5 L-4,5 L-4,2 Z " fill="#1E1E1E" transform="translate(12,7)"/>
<path d="M0,0 Z M-1,1 L0,5 L5,3 L4,7 L-1,7 L-2,2 Z " fill="#F5F5F5" transform="translate(15,17)"/>
</svg>
