<?xml version="1.0" encoding="UTF-8"?>
<svg version="1.1" xmlns="http://www.w3.org/2000/svg" width="28" height="28">
<path d="M0,0 L28,0 L28,28 L0,28 Z " fill="#020202" transform="translate(0,0)"/>
<path d="M0,0 L4,1 L5,2 L5,7 L-1,15 L-4,20 L-7,19 L-3,12 L-7,11 L-6,6 L-1,1 Z " fill="#D4D4D4" transform="translate(16,6)"/>
<path d="M0,0 L4,1 L4,4 L-1,5 L-4,8 L-4,11 L-7,11 L-6,6 L-1,1 Z " fill="#E6E6E6" transform="translate(16,6)"/>
<path d="M0,0 L1,3 L-6,13 L-7,15 L-10,14 L-6,7 L-4,7 L-3,3 Z " fill="#ECECEC" transform="translate(19,11)"/>
<path d="M0,0 L1,2 L-3,6 L-6,5 Z " fill="#232323" transform="translate(17,9)"/>
</svg>
