<?xml version="1.0" encoding="UTF-8"?>
<svg version="1.1" xmlns="http://www.w3.org/2000/svg" width="28" height="28">
<path d="M0,0 L28,0 L28,28 L0,28 Z " fill="#030303" transform="translate(0,0)"/>
<path d="M0,0 L4,1 L4,7 L0,9 L-1,13 L-4,20 L-7,19 L-2,9 L-9,10 L-7,5 L-2,1 Z " fill="#E6E6E6" transform="translate(16,6)"/>
<path d="M0,0 L3,1 L-1,3 L1,9 L-3,17 L-6,16 L-1,6 L-8,7 L-8,5 L-1,1 Z " fill="#828282" transform="translate(15,9)"/>
<path d="M0,0 L2,1 L-1,8 L-4,7 Z " fill="#DDDDDD" transform="translate(13,18)"/>
</svg>
