<?xml version="1.0" encoding="UTF-8"?>
<svg version="1.1" xmlns="http://www.w3.org/2000/svg" width="28" height="28">
<path d="M0,0 L28,0 L28,28 L0,28 Z " fill="#030303" transform="translate(0,0)"/>
<path d="M0,0 L5,0 L7,4 L10,4 L10,19 L7,20 L7,11 L3,13 L-2,12 L-4,10 L-4,5 Z " fill="#ECECEC" transform="translate(10,6)"/>
<path d="M0,0 L5,0 L8,5 L3,8 L6,9 L5,10 L0,10 L-2,6 L-4,10 L-4,5 Z " fill="#D9D9D9" transform="translate(10,6)"/>
<path d="M0,0 L5,0 L4,4 L4,5 L6,6 L5,7 L0,7 L-1,2 Z " fill="#222222" transform="translate(10,9)"/>
</svg>
