<?xml version="1.0" encoding="UTF-8"?>
<svg version="1.1" xmlns="http://www.w3.org/2000/svg" width="28" height="28">
<path d="M0,0 L28,0 L28,28 L0,28 Z " fill="#020202" transform="translate(0,0)"/>
<path d="M0,0 L5,0 L7,2 L7,7 L0,20 L-2,20 L-1,15 L1,11 L-4,10 L-5,9 L-5,4 Z " fill="#D1D1D1" transform="translate(13,7)"/>
<path d="M0,0 L2,1 L2,6 L-5,19 L-7,19 L-6,14 L-4,10 L-8,10 L-8,8 L-2,7 L-2,4 L0,4 Z " fill="#E3E3E3" transform="translate(18,8)"/>
<path d="M0,0 L4,0 L3,5 L-2,6 L-3,2 Z " fill="#171717" transform="translate(13,10)"/>
</svg>
