<?xml version="1.0" encoding="UTF-8"?>
<svg version="1.1" xmlns="http://www.w3.org/2000/svg" width="28" height="28">
<path d="M0,0 L28,0 L28,28 L0,28 Z " fill="#020202" transform="translate(0,0)"/>
<path d="M0,0 L6,0 L8,1 L8,9 L4,19 L1,20 L3,11 L-1,10 L-3,8 L-3,2 Z " fill="#E2E2E2" transform="translate(12,7)"/>
<path d="M0,0 L2,1 L4,7 L5,9 L0,8 L-1,7 L-1,1 Z " fill="#ECECEC" transform="translate(10,8)"/>
<path d="M0,0 L4,0 L4,5 L0,5 L-1,1 Z " fill="#141414" transform="translate(13,10)"/>
</svg>
