<?xml version="1.0" encoding="UTF-8"?>
<svg version="1.1" xmlns="http://www.w3.org/2000/svg" width="28" height="28">
<path d="M0,0 L28,0 L28,28 L0,28 Z " fill="#020202" transform="translate(0,0)"/>
<path d="M0,0 L5,0 L5,3 L4,4 L2,17 L0,20 L-2,20 L-1,10 L-4,9 L-4,4 Z " fill="#B2B2B2" transform="translate(14,7)"/>
<path d="M0,0 L1,0 L1,10 L-1,13 L-3,13 L-1,1 Z " fill="#DEDEDE" transform="translate(15,14)"/>
<path d="M0,0 L3,1 L0,2 L0,8 L-3,8 L-3,3 Z " fill="#F2F2F2" transform="translate(13,8)"/>
</svg>
