<?xml version="1.0" encoding="UTF-8"?>
<svg version="1.1" xmlns="http://www.w3.org/2000/svg" width="28" height="28">
<path d="M0,0 L28,0 L28,28 L0,28 Z " fill="#020202" transform="translate(0,0)"/>
<path d="M0,0 L5,0 L8,5 L3,19 L-1,20 L3,10 L-4,10 L-6,8 L-5,3 Z " fill="#E4E4E4" transform="translate(13,6)"/>
<path d="M0,0 L5,0 L5,2 L-2,3 L-2,5 L-4,5 L-4,8 L1,8 L1,9 L-5,9 L-6,4 L-3,1 Z M1,7 Z " fill="#EDEDED" transform="translate(13,6)"/>
<path d="M0,0 L4,0 L3,4 L0,6 L-5,6 L-5,3 L-3,3 L-3,1 Z " fill="#252525" transform="translate(14,8)"/>
</svg>
