<?xml version="1.0" encoding="UTF-8"?>
<svg version="1.1" xmlns="http://www.w3.org/2000/svg" width="28" height="28">
<path d="M0,0 L28,0 L28,28 L0,28 Z " fill="#030303" transform="translate(0,0)"/>
<path d="M0,0 L4,1 L4,8 L0,16 L-1,20 L-4,19 L-3,12 L-9,12 L-11,11 L-11,5 L-4,1 Z " fill="#DADADA" transform="translate(17,6)"/>
<path d="M0,0 L4,1 L4,8 L0,16 L-1,20 L-4,19 L-3,12 L-6,10 L1,6 L2,3 L-3,3 Z " fill="#ECECEC" transform="translate(17,6)"/>
<path d="M0,0 L5,0 L5,3 L2,5 L-3,5 L-3,2 Z " fill="#141414" transform="translate(13,10)"/>
</svg>
