<?xml version="1.0" encoding="UTF-8"?>
<svg version="1.1" xmlns="http://www.w3.org/2000/svg" width="28" height="28">
<path d="M0,0 L28,0 L28,28 L0,28 Z " fill="#010101" transform="translate(0,0)"/>
<path d="M0,0 L4,1 L3,4 L0,4 L0,7 L3,5 L6,5 L6,16 L4,20 L2,20 L2,11 L-3,12 L-4,5 Z " fill="#E3E3E3" transform="translate(13,6)"/>
<path d="M0,0 L1,0 L1,11 L-1,15 L-3,15 L-3,4 L-1,4 Z " fill="#BCBCBC" transform="translate(18,11)"/>
<path d="M0,0 L1,0 L1,6 L-2,7 L-2,1 Z " fill="#D7D7D7" transform="translate(17,19)"/>
</svg>
