<?xml version="1.0" encoding="UTF-8"?>
<svg version="1.1" xmlns="http://www.w3.org/2000/svg" width="28" height="28">
<path d="M0,0 L28,0 L28,28 L0,28 Z " fill="#020202" transform="translate(0,0)"/>
<path d="M0,0 L5,1 L6,4 L6,11 L3,17 L0,20 L-2,20 L-1,15 L3,8 L-2,10 L-8,10 L-7,5 L-2,1 Z " fill="#DFDFDF" transform="translate(14,6)"/>
<path d="M0,0 L4,0 L4,2 L-4,6 L-5,8 L-2,9 L-2,10 L-8,10 L-7,5 L-2,1 Z " fill="#EFEFEF" transform="translate(14,6)"/>
<path d="M0,0 L1,2 L-1,5 L-1,8 L-7,8 L-9,7 L-8,4 Z " fill="#909090" transform="translate(18,7)"/>
<path d="M0,0 L2,1 L2,8 L-2,10 L-1,6 L0,4 L-2,3 Z " fill="#F5F5F5" transform="translate(18,9)"/>
</svg>
