<?xml version="1.0" encoding="UTF-8"?>
<svg version="1.1" xmlns="http://www.w3.org/2000/svg" width="28" height="28">
<path d="M0,0 L28,0 L28,28 L0,28 Z " fill="#010101" transform="translate(0,0)"/>
<path d="M0,0 L4,1 L7,3 L7,13 L5,20 L3,20 L3,12 L4,10 L1,12 L-4,11 L-5,10 L-5,5 Z " fill="#F4F4F4" transform="translate(13,6)"/>
<path d="M0,0 L4,1 L-1,5 L-3,10 L-5,10 L-5,5 Z " fill="#E7E7E7" transform="translate(13,6)"/>
<path d="M0,0 L3,0 L1,6 L-4,7 L-3,2 Z " fill="#141414" transform="translate(14,9)"/>
<path d="M0,0 L5,1 L5,11 L4,11 L3,4 L1,5 L2,1 Z " fill="#BCBCBC" transform="translate(15,8)"/>
<path d="M0,0 L1,2 L3,2 L2,8 L0,8 Z " fill="#BBBBBB" transform="translate(16,18)"/>
</svg>
