<?xml version="1.0" encoding="UTF-8"?>
<svg version="1.1" xmlns="http://www.w3.org/2000/svg" width="28" height="28">
<path d="M0,0 L28,0 L28,28 L0,28 Z " fill="#030303" transform="translate(0,0)"/>
<path d="M0,0 L9,0 L10,5 L13,6 L12,14 L14,19 L10,19 L7,13 L-1,11 L-5,8 L-4,3 Z " fill="#E9E9E9" transform="translate(9,6)"/>
<path d="M0,0 L3,1 L2,5 L4,6 L3,8 L-3,7 L-5,5 L-5,2 Z " fill="#151515" transform="translate(13,8)"/>
<path d="M0,0 L4,2 L1,3 L3,7 L5,8 L5,11 L-1,9 L-3,7 L-2,2 Z " fill="#E9E9E9" transform="translate(7,7)"/>
<path d="M0,0 L4,2 L1,3 L0,5 L-1,4 L-3,7 L-2,2 Z " fill="#ADADAD" transform="translate(7,7)"/>
</svg>
