<?xml version="1.0" encoding="UTF-8"?>
<svg version="1.1" xmlns="http://www.w3.org/2000/svg" width="28" height="28">
<path d="M0,0 L28,0 L28,28 L0,28 Z " fill="#030303" transform="translate(0,0)"/>
<path d="M0,0 L4,0 L4,4 L11,3 L10,19 L6,20 L7,7 L-1,11 L-5,12 L-6,11 L-5,4 Z " fill="#E0E0E0" transform="translate(11,6)"/>
<path d="M0,0 L1,4 L-1,4 L0,7 L-2,9 L-6,8 L-6,3 L-1,1 Z " fill="#9B9B9B" transform="translate(11,9)"/>
<path d="M0,0 L1,0 L1,10 L-2,10 L-2,3 Z " fill="#F7F7F7" transform="translate(19,16)"/>
</svg>
