<?xml version="1.0" encoding="UTF-8"?>
<svg version="1.1" xmlns="http://www.w3.org/2000/svg" width="28" height="28">
<path d="M0,0 L28,0 L28,28 L0,28 Z " fill="#030303" transform="translate(0,0)"/>
<path d="M0,0 L6,0 L7,5 L4,12 L3,19 L0,19 L1,11 L2,8 L-3,7 L-2,2 Z " fill="#CCCCCC" transform="translate(12,7)"/>
<path d="M0,0 L2,1 L0,7 L-1,14 L-4,14 L-3,6 L-2,2 L0,2 Z " fill="#D4D4D4" transform="translate(16,12)"/>
<path d="M0,0 L2,1 L1,6 L-4,5 L-2,1 Z " fill="#1B1B1B" transform="translate(15,8)"/>
</svg>
