<?xml version="1.0" encoding="UTF-8"?>
<svg version="1.1" xmlns="http://www.w3.org/2000/svg" width="28" height="28">
<path d="M0,0 L28,0 L28,28 L0,28 Z " fill="#010101" transform="translate(0,0)"/>
<path d="M0,0 L7,1 L5,20 L2,20 L2,12 L-3,11 L-5,9 L-4,3 Z " fill="#CBCBCB" transform="translate(12,6)"/>
<path d="M0,0 L5,0 L4,4 L2,7 L4,8 L-1,8 L-2,3 Z " fill="#0B0B0B" transform="translate(11,8)"/>
<path d="M0,0 L4,2 L4,13 L1,13 L1,4 L-2,3 L0,2 Z " fill="#A4A4A4" transform="translate(13,13)"/>
<path d="M0,0 L5,1 L4,9 L0,8 L2,1 Z " fill="#E9E9E9" transform="translate(14,6)"/>
</svg>
