<?xml version="1.0" encoding="UTF-8"?>
<svg version="1.1" xmlns="http://www.w3.org/2000/svg" width="28" height="28">
<path d="M0,0 L28,0 L28,28 L0,28 Z " fill="#040404" transform="translate(0,0)"/>
<path d="M0,0 L5,1 L5,4 L7,4 L7,20 L5,20 L2,9 L-2,12 L-9,12 L-11,10 L-11,5 L-4,1 Z " fill="#E1E1E1" transform="translate(15,7)"/>
<path d="M0,0 L5,1 L5,4 L7,4 L7,20 L5,20 L3,12 L3,8 L1,7 L2,4 L-4,4 Z " fill="#EFEFEF" transform="translate(15,7)"/>
<path d="M0,0 L5,0 L5,2 L0,5 L-5,5 L-3,1 Z " fill="#202020" transform="translate(12,11)"/>
</svg>
