<?xml version="1.0" encoding="UTF-8"?>
<svg version="1.1" xmlns="http://www.w3.org/2000/svg" width="28" height="28">
<path d="M0,0 L28,0 L28,28 L0,28 Z " fill="#030303" transform="translate(0,0)"/>
<path d="M0,0 L5,0 L6,4 L3,9 L-1,17 L-1,20 L-5,20 L-4,15 L-2,11 L-10,10 L-12,7 L-8,2 Z " fill="#D5D5D5" transform="translate(17,6)"/>
<path d="M0,0 L4,0 L3,3 L1,4 L2,6 L-4,7 L-8,6 L-7,3 Z " fill="#171717" transform="translate(16,8)"/>
<path d="M0,0 L1,3 L1,6 L0,8 L-4,8 L-3,3 Z " fill="#E2E2E2" transform="translate(16,18)"/>
</svg>
