<?xml version="1.0" encoding="UTF-8"?>
<svg version="1.1" xmlns="http://www.w3.org/2000/svg" width="28" height="28">
<path d="M0,0 L28,0 L28,28 L0,28 Z " fill="#030303" transform="translate(0,0)"/>
<path d="M0,0 L6,0 L8,2 L7,9 L5,13 L4,20 L2,20 L2,12 L-4,13 L-6,11 L-6,5 L-2,1 Z " fill="#E8E8E8" transform="translate(13,7)"/>
<path d="M0,0 L5,0 L6,5 L5,8 L3,9 L-3,9 L-2,2 Z " fill="#131313" transform="translate(12,9)"/>
<path d="M0,0 L2,0 L0,9 L7,8 L7,14 L6,10 L0,11 L-2,9 L-2,3 Z " fill="#C7C7C7" transform="translate(9,9)"/>
</svg>
