<?xml version="1.0" encoding="UTF-8"?>
<svg version="1.1" xmlns="http://www.w3.org/2000/svg" width="28" height="28">
<path d="M0,0 L28,0 L28,28 L0,28 Z " fill="#020202" transform="translate(0,0)"/>
<path d="M0,0 L5,0 L8,4 L8,19 L5,20 L4,15 L-1,15 L-4,12 L-4,4 Z " fill="#DBDBDB" transform="translate(12,5)"/>
<path d="M0,0 L5,1 L6,5 L3,11 L-1,10 L-2,9 L-2,2 Z " fill="#0B0B0B" transform="translate(12,7)"/>
<path d="M0,0 L2,4 L4,6 L8,5 L11,3 L11,8 L3,9 L0,6 Z " fill="#EEEEEE" transform="translate(8,11)"/>
<path d="M0,0 L3,0 L3,5 L0,6 Z " fill="#B5B5B5" transform="translate(17,19)"/>
</svg>
