<?xml version="1.0" encoding="UTF-8"?>
<svg version="1.1" xmlns="http://www.w3.org/2000/svg" width="28" height="28">
<path d="M0,0 L28,0 L28,28 L0,28 Z " fill="#020202" transform="translate(0,0)"/>
<path d="M0,0 L7,0 L9,2 L8,9 L8,18 L7,20 L5,20 L6,10 L-3,10 L-5,8 L-4,4 Z " fill="#D5D5D5" transform="translate(11,7)"/>
<path d="M0,0 L5,0 L5,4 L4,5 L-2,5 L-2,2 Z " fill="#0F0F0F" transform="translate(11,10)"/>
<path d="M0,0 L2,0 L2,9 L1,11 L-1,11 Z " fill="#F0F0F0" transform="translate(17,16)"/>
</svg>
