<?xml version="1.0" encoding="UTF-8"?>
<svg version="1.1" xmlns="http://www.w3.org/2000/svg" width="28" height="28">
<path d="M0,0 L28,0 L28,28 L0,28 Z " fill="#010101" transform="translate(0,0)"/>
<path d="M0,0 L5,1 L5,13 L3,20 L2,20 L2,9 L-4,10 L-5,5 Z " fill="#C1C1C1" transform="translate(14,7)"/>
<path d="M0,0 L1,0 L1,13 L-1,15 L-1,4 L-7,5 L-8,1 L-3,2 L0,2 Z " fill="#C7C7C7" transform="translate(17,12)"/>
<path d="M0,0 L4,1 L3,5 L-3,6 L-2,2 Z " fill="#212121" transform="translate(14,9)"/>
</svg>
