<?xml version="1.0" encoding="UTF-8"?>
<svg version="1.1" xmlns="http://www.w3.org/2000/svg" width="28" height="28">
<path d="M0,0 L28,0 L28,28 L0,28 Z " fill="#020202" transform="translate(0,0)"/>
<path d="M0,0 L5,1 L7,3 L6,20 L4,20 L4,13 L-1,12 L-4,7 L-2,2 Z " fill="#E8E8E8" transform="translate(12,6)"/>
<path d="M0,0 L5,0 L6,1 L6,6 L1,7 L-1,4 Z " fill="#1A1A1A" transform="translate(11,9)"/>
<path d="M0,0 L1,3 L0,13 L-2,13 L-2,6 L-6,5 L-5,3 L0,2 Z " fill="#CCCCCC" transform="translate(18,13)"/>
</svg>
