<?xml version="1.0" encoding="UTF-8"?>
<svg version="1.1" xmlns="http://www.w3.org/2000/svg" width="28" height="28">
<path d="M0,0 L28,0 L28,28 L0,28 Z " fill="#030303" transform="translate(0,0)"/>
<path d="M0,0 L5,1 L6,6 L3,7 L3,9 L0,9 L1,14 L-1,20 L-4,20 L-3,12 L-9,11 L-10,7 L-6,2 Z " fill="#D6D6D6" transform="translate(16,6)"/>
<path d="M0,0 L1,3 L-1,3 L-1,5 L-4,5 L-3,10 L-5,16 L-8,16 L-7,7 L-10,6 L-6,6 L-4,1 Z " fill="#F4F4F4" transform="translate(20,10)"/>
<path d="M0,0 L4,0 L2,5 L1,7 L-4,6 L-3,2 Z " fill="#161616" transform="translate(13,9)"/>
</svg>
