<?xml version="1.0" encoding="UTF-8"?>
<svg version="1.1" xmlns="http://www.w3.org/2000/svg" width="28" height="28">
<path d="M0,0 L28,0 L28,28 L0,28 Z " fill="#010101" transform="translate(0,0)"/>
<path d="M0,0 L5,1 L6,2 L6,8 L5,9 L5,18 L4,20 L1,19 L1,13 L-6,11 L-6,5 L-4,5 L-2,1 Z " fill="#DFDFDF" transform="translate(14,6)"/>
<path d="M0,0 L4,1 L3,7 L0,9 L-4,8 L-3,3 Z " fill="#111111" transform="translate(14,8)"/>
<path d="M0,0 L5,1 L6,2 L6,8 L4,5 L3,3 L-1,4 L-4,7 L-6,11 L-6,5 L-4,5 L-2,1 Z " fill="#C0C0C0" transform="translate(14,6)"/>
</svg>
