<?xml version="1.0" encoding="UTF-8"?>
<svg version="1.1" xmlns="http://www.w3.org/2000/svg" width="28" height="28">
<path d="M0,0 L28,0 L28,28 L0,28 Z " fill="#030303" transform="translate(0,0)"/>
<path d="M0,0 L3,1 L2,16 L4,16 L2,20 L0,16 L-1,10 L-2,11 L-8,11 L-8,5 L-5,2 Z " fill="#B3B3B3" transform="translate(16,6)"/>
<path d="M0,0 L1,3 L-3,8 L-6,8 L-5,3 Z " fill="#151515" transform="translate(15,8)"/>
<path d="M0,0 L1,0 L1,14 L3,14 L1,18 L0,16 L-1,6 L-2,3 Z " fill="#F0F0F0" transform="translate(17,8)"/>
</svg>
