<?xml version="1.0" encoding="UTF-8"?>
<svg version="1.1" xmlns="http://www.w3.org/2000/svg" width="28" height="28">
<path d="M0,0 L28,0 L28,28 L0,28 Z " fill="#020202" transform="translate(0,0)"/>
<path d="M0,0 L7,1 L6,20 L4,17 L3,10 L-3,11 L-5,10 L-5,4 L-3,1 Z " fill="#D9D9D9" transform="translate(13,7)"/>
<path d="M0,0 L7,1 L6,5 L-1,4 L-3,8 L2,9 L0,11 L-5,10 L-5,4 L-3,1 Z " fill="#E7E7E7" transform="translate(13,7)"/>
<path d="M0,0 L5,0 L5,4 L-2,5 L-1,1 Z " fill="#0B0B0B" transform="translate(12,10)"/>
<path d="M0,0 L2,1 L1,5 L0,4 L-2,8 L-3,6 L-6,4 L-1,2 Z " fill="#BBBBBB" transform="translate(18,11)"/>
</svg>
