<?xml version="1.0" encoding="UTF-8"?>
<svg version="1.1" xmlns="http://www.w3.org/2000/svg" width="28" height="28">
<path d="M0,0 L28,0 L28,28 L0,28 Z " fill="#010101" transform="translate(0,0)"/>
<path d="M0,0 L4,1 L5,5 L7,5 L8,11 L8,20 L6,20 L5,9 L0,13 L-4,11 L-4,5 Z " fill="#B8B8B8" transform="translate(12,6)"/>
<path d="M0,0 L4,1 L4,6 L1,9 L-3,8 L-2,2 Z " fill="#060606" transform="translate(12,8)"/>
<path d="M0,0 L1,3 L3,3 L3,9 L1,7 L-1,8 Z " fill="#E3E3E3" transform="translate(16,8)"/>
</svg>
