<?xml version="1.0" encoding="UTF-8"?>
<svg version="1.1" xmlns="http://www.w3.org/2000/svg" width="28" height="28">
<path d="M0,0 L28,0 L28,28 L0,28 Z " fill="#040404" transform="translate(0,0)"/>
<path d="M0,0 L6,1 L7,4 L10,4 L8,9 L1,20 L-1,20 L0,15 L2,11 L-4,11 L-6,9 L-5,3 Z " fill="#DCDCDC" transform="translate(13,6)"/>
<path d="M0,0 L5,2 L5,4 L8,4 L6,9 L-1,20 L-3,20 L-2,15 L0,11 L2,11 L2,9 L0,8 L2,4 L2,2 L-1,1 Z " fill="#F1F1F1" transform="translate(15,6)"/>
<path d="M0,0 L5,1 L1,5 L-3,5 L-1,1 Z " fill="#0F0F0F" transform="translate(13,9)"/>
</svg>
