<?xml version="1.0" encoding="UTF-8"?>
<svg version="1.1" xmlns="http://www.w3.org/2000/svg" width="28" height="28">
<path d="M0,0 L28,0 L28,28 L0,28 Z " fill="#010101" transform="translate(0,0)"/>
<path d="M0,0 L5,0 L7,2 L6,8 L0,20 L-2,20 L-1,14 L0,12 L-5,11 L-7,6 L-3,1 Z " fill="#D4D4D4" transform="translate(14,6)"/>
<path d="M0,0 L5,0 L6,4 L-1,4 L-4,9 L1,9 L0,11 L-5,11 L-7,6 L-3,1 Z " fill="#E1E1E1" transform="translate(14,6)"/>
<path d="M0,0 L5,0 L4,4 L2,6 L-3,6 L-2,2 Z " fill="#0C0C0C" transform="translate(13,9)"/>
</svg>
