<?xml version="1.0" encoding="UTF-8"?>
<svg version="1.1" xmlns="http://www.w3.org/2000/svg" width="28" height="28">
<path d="M0,0 L28,0 L28,28 L0,28 Z " fill="#020202" transform="translate(0,0)"/>
<path d="M0,0 L5,0 L7,2 L7,7 L3,12 L-1,20 L-3,20 L-2,15 L1,9 L-4,9 L-5,4 Z " fill="#D0D0D0" transform="translate(14,7)"/>
<path d="M0,0 L4,1 L-1,6 L4,6 L2,8 L-3,7 L-2,2 Z " fill="#E4E4E4" transform="translate(12,8)"/>
<path d="M0,0 L4,0 L3,5 L-3,5 L-1,1 Z " fill="#121212" transform="translate(14,9)"/>
<path d="M0,0 L2,1 L-3,11 L-5,11 L-4,6 Z " fill="#E9E9E9" transform="translate(16,16)"/>
</svg>
