<?xml version="1.0" encoding="UTF-8"?>
<svg version="1.1" xmlns="http://www.w3.org/2000/svg" width="28" height="28">
<path d="M0,0 L28,0 L28,28 L0,28 Z " fill="#020202" transform="translate(0,0)"/>
<path d="M0,0 L6,0 L8,2 L8,15 L5,20 L1,19 L4,18 L5,10 L-2,9 L-5,6 L-4,2 Z " fill="#C3C3C3" transform="translate(11,6)"/>
<path d="M0,0 L5,1 L6,2 L6,15 L4,16 L4,9 L2,9 L3,3 Z " fill="#ECECEC" transform="translate(13,6)"/>
<path d="M0,0 L6,0 L7,4 L5,6 L0,5 L-1,1 Z " fill="#0D0D0D" transform="translate(10,8)"/>
</svg>
