<?xml version="1.0" encoding="UTF-8"?>
<svg version="1.1" xmlns="http://www.w3.org/2000/svg" width="28" height="28">
<path d="M0,0 L28,0 L28,28 L0,28 Z " fill="#020202" transform="translate(0,0)"/>
<path d="M0,0 L5,1 L4,6 L2,6 L1,12 L-5,20 L-7,19 L-2,12 L-1,8 L-4,8 L-4,3 Z " fill="#A9A9A9" transform="translate(15,7)"/>
<path d="M0,0 L4,0 L3,6 L-3,14 L-5,13 L0,6 Z " fill="#CECECE" transform="translate(13,13)"/>
<path d="M0,0 L4,0 L3,6 L1,6 Z " fill="#ECECEC" transform="translate(13,13)"/>
</svg>
