<?xml version="1.0" encoding="UTF-8"?>
<svg version="1.1" xmlns="http://www.w3.org/2000/svg" width="28" height="28">
<path d="M0,0 L28,0 L28,28 L0,28 Z " fill="#020202" transform="translate(0,0)"/>
<path d="M0,0 L5,1 L5,7 L-5,20 L-7,20 L-6,16 L-2,11 L-5,9 L-5,4 Z " fill="#CFCFCF" transform="translate(15,6)"/>
<path d="M0,0 L1,0 L1,5 L-2,9 L-4,9 L-4,7 L-7,6 L-1,3 Z " fill="#F7F7F7" transform="translate(19,8)"/>
<path d="M0,0 L3,1 L2,4 L-4,5 L-2,1 Z " fill="#111111" transform="translate(16,8)"/>
</svg>
