<?xml version="1.0" encoding="UTF-8"?>
<svg version="1.1" xmlns="http://www.w3.org/2000/svg" width="28" height="28">
<path d="M0,0 L28,0 L28,28 L0,28 Z " fill="#020202" transform="translate(0,0)"/>
<path d="M0,0 L6,0 L7,7 L7,11 L4,14 L4,19 L0,20 L-1,17 L1,12 L-6,9 L-6,4 Z " fill="#ECECEC" transform="translate(13,6)"/>
<path d="M0,0 L4,0 L4,6 L3,7 L-3,7 L-3,3 Z " fill="#0A0A0A" transform="translate(13,8)"/>
<path d="M0,0 L6,0 L7,3 L5,3 L4,7 L4,2 L-4,5 L-6,6 L-4,2 Z " fill="#CFCFCF" transform="translate(13,6)"/>
</svg>
