<?xml version="1.0" encoding="UTF-8"?>
<svg version="1.1" xmlns="http://www.w3.org/2000/svg" width="28" height="28">
<path d="M0,0 L28,0 L28,28 L0,28 Z " fill="#020202" transform="translate(0,0)"/>
<path d="M0,0 L10,0 L12,1 L12,12 L13,20 L11,20 L9,13 L9,7 L5,9 L-2,9 L-3,8 L-3,3 Z " fill="#EBEBEB" transform="translate(8,8)"/>
<path d="M0,0 L2,0 L2,2 L9,2 L9,4 L5,8 L5,9 L-2,9 L-3,8 L-3,3 Z " fill="#DEDEDE" transform="translate(8,8)"/>
<path d="M0,0 L5,0 L5,2 L2,4 L-5,4 L-5,2 Z " fill="#252525" transform="translate(12,10)"/>
</svg>
