<?xml version="1.0" encoding="UTF-8"?>
<svg version="1.1" xmlns="http://www.w3.org/2000/svg" width="28" height="28">
<path d="M0,0 L28,0 L28,28 L0,28 Z " fill="#020202" transform="translate(0,0)"/>
<path d="M0,0 L4,1 L5,4 L0,4 L-3,8 L4,7 L4,17 L1,20 L0,16 L1,12 L-1,12 L-7,13 L-6,6 L-2,1 Z " fill="#E7E7E7" transform="translate(15,5)"/>
<path d="M0,0 L5,1 L4,4 L-1,6 L-4,5 Z " fill="#232323" transform="translate(15,8)"/>
<path d="M0,0 L3,0 L3,2 L5,3 L-1,4 Z " fill="#CFCFCF" transform="translate(9,14)"/>
</svg>
