<?xml version="1.0" encoding="UTF-8"?>
<svg version="1.1" xmlns="http://www.w3.org/2000/svg" width="28" height="28">
<path d="M0,0 L28,0 L28,28 L0,28 Z " fill="#010101" transform="translate(0,0)"/>
<path d="M0,0 L5,0 L7,4 L6,8 L-1,19 L-4,20 L-2,15 L-1,12 L-6,11 L-7,6 L-2,1 Z " fill="#ECECEC" transform="translate(14,6)"/>
<path d="M0,0 L4,0 L3,6 L-1,8 L-5,8 L-4,3 Z " fill="#060606" transform="translate(14,8)"/>
<path d="M0,0 L4,2 L-3,5 L-6,5 L-2,1 Z " fill="#C1C1C1" transform="translate(14,6)"/>
</svg>
