<?xml version="1.0" encoding="UTF-8"?>
<svg version="1.1" xmlns="http://www.w3.org/2000/svg" width="28" height="28">
<path d="M0,0 L28,0 L28,28 L0,28 Z " fill="#010101" transform="translate(0,0)"/>
<path d="M0,0 L5,0 L8,3 L8,5 L10,5 L7,14 L4,20 L2,20 L3,15 L5,10 L0,7 Z " fill="#DFDFDF" transform="translate(10,6)"/>
<path d="M0,0 L2,0 L3,4 L7,5 L7,11 L4,17 L2,17 L3,12 L5,7 L0,4 Z " fill="#E6E6E6" transform="translate(10,9)"/>
<path d="M0,0 L5,0 L6,2 L5,7 L2,7 Z " fill="#8B8B8B" transform="translate(10,6)"/>
</svg>
