<?xml version="1.0" encoding="UTF-8"?>
<svg version="1.1" xmlns="http://www.w3.org/2000/svg" width="28" height="28">
<path d="M0,0 L28,0 L28,28 L0,28 Z " fill="#040404" transform="translate(0,0)"/>
<path d="M0,0 L5,1 L8,4 L13,5 L15,18 L14,20 L11,19 L10,10 L6,12 L-1,13 L-1,15 L-4,14 L-5,9 L-4,3 Z " fill="#E9E9E9" transform="translate(10,6)"/>
<path d="M0,0 L2,0 L5,3 L5,5 L9,5 L8,7 L4,9 L-3,10 L-3,12 L-6,11 L-7,6 L-4,5 L-3,2 Z " fill="#DEDEDE" transform="translate(12,9)"/>
<path d="M0,0 L2,0 L4,5 L2,5 L2,7 L-4,8 L-3,2 Z " fill="#121212" transform="translate(12,9)"/>
<path d="M0,0 L1,0 L2,7 L1,9 L-2,8 L-2,3 Z " fill="#CFCFCF" transform="translate(23,17)"/>
</svg>
