<?xml version="1.0" encoding="UTF-8"?>
<svg version="1.1" xmlns="http://www.w3.org/2000/svg" width="28" height="28">
<path d="M0,0 L28,0 L28,28 L0,28 Z " fill="#010101" transform="translate(0,0)"/>
<path d="M0,0 L4,0 L5,2 L4,17 L3,20 L1,20 L1,13 L-3,11 L-2,2 Z " fill="#B8B8B8" transform="translate(13,6)"/>
<path d="M0,0 L3,0 L3,8 L-1,10 L-2,6 Z " fill="#131313" transform="translate(13,7)"/>
<path d="M0,0 L4,0 L5,2 L5,9 L3,12 L1,10 L2,5 L3,1 Z " fill="#D8D8D8" transform="translate(13,6)"/>
</svg>
