<?xml version="1.0" encoding="UTF-8"?>
<svg version="1.1" xmlns="http://www.w3.org/2000/svg" width="28" height="28">
<path d="M0,0 L28,0 L28,28 L0,28 Z " fill="#030303" transform="translate(0,0)"/>
<path d="M0,0 L6,0 L9,2 L9,4 L0,4 L-4,6 L-5,8 L4,6 L5,10 L2,20 L0,20 L1,10 L-6,10 L-7,5 L-4,2 Z " fill="#E4E4E4" transform="translate(14,7)"/>
<path d="M0,0 L3,1 L4,3 L1,5 L-5,5 L-3,1 Z " fill="#1B1B1B" transform="translate(14,10)"/>
<path d="M0,0 L6,0 L9,2 L9,4 L-2,4 Z " fill="#D4D4D4" transform="translate(14,7)"/>
</svg>
