<?xml version="1.0" encoding="UTF-8"?>
<svg version="1.1" xmlns="http://www.w3.org/2000/svg" width="28" height="28">
<path d="M0,0 L28,0 L28,28 L0,28 Z " fill="#020202" transform="translate(0,0)"/>
<path d="M0,0 L7,0 L9,2 L8,7 L4,16 L3,20 L0,20 L1,14 L2,11 L-4,11 L-5,5 Z " fill="#C6C6C6" transform="translate(12,6)"/>
<path d="M0,0 L5,0 L6,5 L3,10 L0,19 L-3,19 L-2,13 L-1,10 L-7,10 L-5,8 L0,6 L4,4 L3,2 Z " fill="#E8E8E8" transform="translate(15,7)"/>
<path d="M0,0 L7,0 L7,2 L3,5 L-3,5 L-1,1 Z " fill="#1C1C1C" transform="translate(12,9)"/>
</svg>
