<?xml version="1.0" encoding="UTF-8"?>
<svg version="1.1" xmlns="http://www.w3.org/2000/svg" width="28" height="28">
<path d="M0,0 L28,0 L28,28 L0,28 Z " fill="#030303" transform="translate(0,0)"/>
<path d="M0,0 L7,0 L9,2 L8,6 L7,4 L0,4 L-3,7 L6,6 L5,13 L2,20 L-1,20 L2,11 L3,9 L-4,9 L-5,4 L-2,1 Z " fill="#E9E9E9" transform="translate(13,6)"/>
<path d="M0,0 L7,0 L8,3 L6,6 L6,3 L4,4 L-3,4 L-2,1 Z " fill="#191919" transform="translate(13,9)"/>
<path d="M0,0 L7,0 L9,2 L8,6 L7,4 L2,3 Z " fill="#CFCFCF" transform="translate(13,6)"/>
<path d="M0,0 L1,2 L-1,8 L-4,8 L-2,2 Z " fill="#F6F6F6" transform="translate(16,18)"/>
</svg>
