<?xml version="1.0" encoding="UTF-8"?>
<svg version="1.1" xmlns="http://www.w3.org/2000/svg" width="28" height="28">
<path d="M0,0 L28,0 L28,28 L0,28 Z " fill="#020202" transform="translate(0,0)"/>
<path d="M0,0 L6,0 L8,2 L8,9 L2,20 L0,20 L1,14 L2,11 L-5,10 L-7,9 L-6,4 Z " fill="#E9E9E9" transform="translate(13,6)"/>
<path d="M0,0 L5,0 L4,4 L2,5 L-4,5 L-4,2 Z " fill="#121212" transform="translate(14,9)"/>
<path d="M0,0 L2,1 L2,4 L4,6 L8,7 L7,9 L-2,6 L-1,1 Z " fill="#C2C2C2" transform="translate(8,9)"/>
</svg>
