<?xml version="1.0" encoding="UTF-8"?>
<svg version="1.1" xmlns="http://www.w3.org/2000/svg" width="28" height="28">
<path d="M0,0 L28,0 L28,28 L0,28 Z " fill="#020202" transform="translate(0,0)"/>
<path d="M0,0 L7,1 L9,3 L9,8 L5,13 L4,16 L2,16 L1,20 L-1,20 L0,14 L1,12 L-4,12 L-7,8 L-6,3 Z " fill="#DDDDDD" transform="translate(13,6)"/>
<path d="M0,0 L6,0 L8,2 L8,7 L4,12 L3,15 L1,15 L0,19 L-2,19 L-1,13 L0,11 L-3,11 L-3,9 L3,6 L6,5 L6,3 L-1,3 Z " fill="#E8E8E8" transform="translate(14,7)"/>
<path d="M0,0 L8,0 L8,2 L2,6 L-2,5 L-3,1 Z " fill="#171717" transform="translate(12,10)"/>
</svg>
