<?xml version="1.0" encoding="UTF-8"?>
<svg version="1.1" xmlns="http://www.w3.org/2000/svg" width="28" height="28">
<path d="M0,0 L28,0 L28,28 L0,28 Z " fill="#020202" transform="translate(0,0)"/>
<path d="M0,0 L5,0 L7,2 L8,8 L2,20 L-1,20 L2,11 L-4,11 L-6,9 L-5,3 Z " fill="#DADADA" transform="translate(13,6)"/>
<path d="M0,0 L2,4 L-4,16 L-7,16 L-4,7 L-10,7 L-11,2 L-10,4 L-2,3 Z " fill="#E7E7E7" transform="translate(19,10)"/>
<path d="M0,0 L6,0 L5,4 L-2,4 L-2,1 Z " fill="#0A0A0A" transform="translate(12,10)"/>
</svg>
