<?xml version="1.0" encoding="UTF-8"?>
<svg version="1.1" xmlns="http://www.w3.org/2000/svg" width="28" height="28">
<path d="M0,0 L28,0 L28,28 L0,28 Z " fill="#020202" transform="translate(0,0)"/>
<path d="M0,0 L8,0 L12,4 L11,8 L6,13 L3,20 L1,19 L2,12 L3,10 L-2,10 L-4,5 L-3,2 Z " fill="#E9E9E9" transform="translate(11,7)"/>
<path d="M0,0 L8,0 L10,2 L7,7 L-1,7 L-3,5 L-3,2 Z " fill="#E1E1E1" transform="translate(11,7)"/>
<path d="M0,0 L6,0 L8,2 L6,4 L-1,4 Z " fill="#1E1E1E" transform="translate(12,10)"/>
</svg>
