<?xml version="1.0" encoding="UTF-8"?>
<svg version="1.1" xmlns="http://www.w3.org/2000/svg" width="28" height="28">
<path d="M0,0 L28,0 L28,28 L0,28 Z " fill="#020202" transform="translate(0,0)"/>
<path d="M0,0 L5,0 L8,5 L8,10 L2,20 L0,20 L1,15 L3,11 L-4,9 L-4,3 Z " fill="#C0C0C0" transform="translate(12,6)"/>
<path d="M0,0 L5,0 L6,4 L-1,5 L-1,7 L3,9 L-4,9 L-4,3 Z " fill="#E7E7E7" transform="translate(12,6)"/>
<path d="M0,0 L1,0 L0,8 L-4,14 L-6,14 L-5,9 L-1,1 Z " fill="#F3F3F3" transform="translate(18,12)"/>
<path d="M0,0 L6,0 L6,3 L-1,3 Z " fill="#0C0C0C" transform="translate(11,10)"/>
<path d="M0,0 L2,1 L-1,6 L-3,6 L-2,1 Z " fill="#DCDCDC" transform="translate(15,20)"/>
</svg>
