<?xml version="1.0" encoding="UTF-8"?>
<svg version="1.1" xmlns="http://www.w3.org/2000/svg" width="28" height="28">
<path d="M0,0 L28,0 L28,28 L0,28 Z " fill="#030303" transform="translate(0,0)"/>
<path d="M0,0 L6,1 L6,6 L4,8 L2,15 L-2,20 L-4,20 L-3,14 L-1,11 L-8,11 L-9,7 L-5,2 Z " fill="#EDEDED" transform="translate(16,6)"/>
<path d="M0,0 L6,1 L6,6 L-6,9 L-7,4 L-3,1 Z " fill="#E3E3E3" transform="translate(16,6)"/>
<path d="M0,0 L3,0 L1,4 L-5,5 L-5,3 Z " fill="#232323" transform="translate(16,9)"/>
</svg>
