<?xml version="1.0" encoding="UTF-8"?>
<svg version="1.1" xmlns="http://www.w3.org/2000/svg" width="28" height="28">
<path d="M0,0 L28,0 L28,28 L0,28 Z " fill="#010101" transform="translate(0,0)"/>
<path d="M0,0 L5,1 L5,4 L3,4 L2,10 L-4,18 L-8,20 L-7,16 L-2,10 L-5,9 L-7,8 L-6,2 Z " fill="#D3D3D3" transform="translate(17,6)"/>
<path d="M0,0 L5,1 L5,4 L-3,4 L-3,7 L-6,7 L-6,2 Z " fill="#DDDDDD" transform="translate(17,6)"/>
<path d="M0,0 L3,2 L-3,7 L-4,4 Z " fill="#C7C7C7" transform="translate(13,19)"/>
<path d="M0,0 L6,0 L3,3 L-2,3 Z " fill="#151515" transform="translate(14,9)"/>
</svg>
