<?xml version="1.0" encoding="UTF-8"?>
<svg version="1.1" xmlns="http://www.w3.org/2000/svg" width="28" height="28">
<path d="M0,0 L28,0 L28,28 L0,28 Z " fill="#020202" transform="translate(0,0)"/>
<path d="M0,0 L4,1 L6,4 L5,10 L2,20 L0,20 L0,11 L-5,11 L-6,8 L-4,3 Z " fill="#F3F3F3" transform="translate(14,6)"/>
<path d="M0,0 L5,2 L4,6 L3,12 L2,10 L-3,10 L-4,7 L-2,2 Z " fill="#DEDEDE" transform="translate(12,7)"/>
<path d="M0,0 L3,0 L2,4 L-2,5 L-1,1 Z " fill="#1F1F1F" transform="translate(14,9)"/>
</svg>
