<?xml version="1.0" encoding="UTF-8"?>
<svg version="1.1" xmlns="http://www.w3.org/2000/svg" width="28" height="28">
<path d="M0,0 L28,0 L28,28 L0,28 Z " fill="#010101" transform="translate(0,0)"/>
<path d="M0,0 L6,0 L10,4 L8,7 L8,15 L5,19 L-6,20 L-2,17 L4,16 L4,10 L-3,11 L-5,8 L-4,4 Z " fill="#D2D2D2" transform="translate(12,5)"/>
<path d="M0,0 L1,0 L2,9 L-1,13 L-12,14 L-8,11 L-2,10 L-2,4 L-7,5 L-7,3 Z " fill="#D9D9D9" transform="translate(18,11)"/>
<path d="M0,0 L4,0 L4,5 L-2,7 L-3,4 Z " fill="#0A0A0A" transform="translate(13,7)"/>
</svg>
