<?xml version="1.0" encoding="UTF-8"?>
<svg version="1.1" xmlns="http://www.w3.org/2000/svg" width="28" height="28">
<path d="M0,0 L28,0 L28,28 L0,28 Z " fill="#020202" transform="translate(0,0)"/>
<path d="M0,0 L6,0 L7,3 L8,17 L7,20 L5,20 L5,8 L0,11 L-5,10 L-6,9 L-6,4 Z " fill="#E1E1E1" transform="translate(13,7)"/>
<path d="M0,0 L2,0 L3,2 L4,16 L3,19 L1,19 L1,7 L-1,6 Z " fill="#F9F9F9" transform="translate(17,8)"/>
<path d="M0,0 L6,0 L5,3 L2,5 L-3,5 L-1,1 Z " fill="#1B1B1B" transform="translate(12,10)"/>
<path d="M0,0 L6,0 L5,3 L-3,4 L-2,1 Z " fill="#C7C7C7" transform="translate(13,7)"/>
<path d="M0,0 L1,0 L2,9 L1,12 L-1,12 Z " fill="#D2D2D2" transform="translate(19,15)"/>
</svg>
