<?xml version="1.0" encoding="UTF-8"?>
<svg version="1.1" xmlns="http://www.w3.org/2000/svg" width="28" height="28">
<path d="M0,0 L28,0 L28,28 L0,28 Z " fill="#020202" transform="translate(0,0)"/>
<path d="M0,0 L9,2 L10,5 L7,6 L7,16 L5,20 L3,20 L4,8 L-2,8 L-4,3 L-3,1 Z " fill="#E3E3E3" transform="translate(11,7)"/>
<path d="M0,0 L3,1 L3,11 L1,15 L-1,15 L0,8 L1,2 L-1,1 Z " fill="#FAFAFA" transform="translate(15,12)"/>
<path d="M0,0 L7,0 L7,2 L5,3 L6,4 L6,10 L5,10 L5,5 L3,5 L3,3 L0,2 Z " fill="#7B7B7B" transform="translate(10,10)"/>
<path d="M0,0 L2,0 L0,6 L-2,6 L-2,1 Z " fill="#DCDCDC" transform="translate(16,21)"/>
</svg>
