<?xml version="1.0" encoding="UTF-8"?>
<svg version="1.1" xmlns="http://www.w3.org/2000/svg" width="28" height="28">
<path d="M0,0 L28,0 L28,28 L0,28 Z " fill="#020202" transform="translate(0,0)"/>
<path d="M0,0 L7,0 L9,2 L9,8 L7,16 L6,20 L4,20 L4,13 L5,9 L-2,9 L-4,6 L-3,2 Z " fill="#D5D5D5" transform="translate(11,7)"/>
<path d="M0,0 L2,0 L0,11 L-1,15 L-3,15 L-3,8 L-2,4 L-6,3 L-1,3 Z " fill="#F6F6F6" transform="translate(18,12)"/>
<path d="M0,0 L6,0 L7,4 L6,5 L-1,5 L-2,2 Z " fill="#131313" transform="translate(11,9)"/>
<path d="M0,0 L2,1 L2,7 L-1,8 L-1,1 Z " fill="#E0E0E0" transform="translate(16,19)"/>
</svg>
