<?xml version="1.0" encoding="UTF-8"?>
<svg version="1.1" xmlns="http://www.w3.org/2000/svg" width="28" height="28">
<path d="M0,0 L28,0 L28,28 L0,28 Z " fill="#020202" transform="translate(0,0)"/>
<path d="M0,0 L8,0 L11,7 L14,20 L11,19 L9,16 L9,13 L1,13 L-2,10 L-2,8 L0,8 L-1,1 Z " fill="#F4F4F4" transform="translate(9,6)"/>
<path d="M0,0 L8,0 L10,5 L6,9 L0,8 L-1,1 Z " fill="#BFBFBF" transform="translate(9,6)"/>
<path d="M0,0 L2,3 L3,8 L0,7 L-2,4 L-1,1 Z " fill="#C9C9C9" transform="translate(20,18)"/>
</svg>
