<?xml version="1.0" encoding="UTF-8"?>
<svg version="1.1" xmlns="http://www.w3.org/2000/svg" width="28" height="28">
<path d="M0,0 L28,0 L28,28 L0,28 Z " fill="#010101" transform="translate(0,0)"/>
<path d="M0,0 L5,0 L7,2 L8,20 L5,20 L4,10 L-3,11 L-6,9 L-6,4 Z " fill="#CFCFCF" transform="translate(13,6)"/>
<path d="M0,0 L4,0 L3,3 L0,4 L-1,7 L5,7 L5,9 L-1,10 L-4,8 L-4,3 Z " fill="#E4E4E4" transform="translate(11,7)"/>
<path d="M0,0 L4,0 L3,4 L2,5 L-4,5 L-3,1 Z " fill="#0E0E0E" transform="translate(14,9)"/>
<path d="M0,0 L1,0 L3,13 L0,13 L-1,9 L-1,1 Z " fill="#F3F3F3" transform="translate(18,13)"/>
</svg>
