<?xml version="1.0" encoding="UTF-8"?>
<svg version="1.1" xmlns="http://www.w3.org/2000/svg" width="28" height="28">
<path d="M0,0 L28,0 L28,28 L0,28 Z " fill="#020202" transform="translate(0,0)"/>
<path d="M0,0 L6,0 L12,3 L14,13 L14,20 L11,19 L11,11 L4,12 L-1,9 L-2,3 Z " fill="#E5E5E5" transform="translate(8,6)"/>
<path d="M0,0 L5,1 L6,16 L3,15 L3,7 L-2,7 L1,4 Z " fill="#F0F0F0" transform="translate(16,10)"/>
<path d="M0,0 L6,1 L9,3 L8,6 L2,6 L-1,3 Z " fill="#111111" transform="translate(9,9)"/>
</svg>
