<?xml version="1.0" encoding="UTF-8"?>
<svg version="1.1" xmlns="http://www.w3.org/2000/svg" width="28" height="28">
<path d="M0,0 L28,0 L28,28 L0,28 Z " fill="#030303" transform="translate(0,0)"/>
<path d="M0,0 L6,0 L8,2 L7,7 L5,7 L3,13 L-1,20 L-2,18 L1,11 L2,9 L-3,12 L-8,11 L-7,6 Z " fill="#BCBCBC" transform="translate(14,6)"/>
<path d="M0,0 L6,0 L6,3 L0,7 L-6,8 L-4,3 Z " fill="#0C0C0C" transform="translate(14,8)"/>
<path d="M0,0 L2,1 L1,6 L-1,6 L-3,12 L-7,19 L-8,17 L-5,10 L-4,8 L-6,7 L-2,4 L0,4 Z " fill="#E0E0E0" transform="translate(20,7)"/>
</svg>
