<?xml version="1.0" encoding="UTF-8"?>
<svg version="1.1" xmlns="http://www.w3.org/2000/svg" width="28" height="28">
<path d="M0,0 L28,0 L28,28 L0,28 Z " fill="#020202" transform="translate(0,0)"/>
<path d="M0,0 L6,0 L9,3 L10,8 L12,8 L12,17 L10,17 L10,20 L7,20 L7,12 L0,12 L-3,7 L-2,2 Z " fill="#E3E3E3" transform="translate(9,6)"/>
<path d="M0,0 L6,0 L9,3 L9,8 L6,9 L6,4 L1,4 L2,8 L5,10 L2,10 L2,12 L-2,10 L-3,4 Z " fill="#DBDBDB" transform="translate(9,6)"/>
<path d="M0,0 L5,1 L5,6 L0,5 L-1,1 Z " fill="#070707" transform="translate(10,9)"/>
<path d="M0,0 L2,0 L2,9 L0,9 L-1,3 Z " fill="#939393" transform="translate(19,14)"/>
</svg>
