<?xml version="1.0" encoding="UTF-8"?>
<svg version="1.1" xmlns="http://www.w3.org/2000/svg" width="28" height="28">
<path d="M0,0 L28,0 L28,28 L0,28 Z " fill="#020202" transform="translate(0,0)"/>
<path d="M0,0 L4,1 L3,15 L2,20 L0,20 L0,9 L-5,9 L-4,4 Z " fill="#CCCCCC" transform="translate(14,6)"/>
<path d="M0,0 L4,1 L2,5 L-3,9 L-5,9 L-4,4 Z " fill="#D7D7D7" transform="translate(14,6)"/>
<path d="M0,0 L1,0 L0,7 L-1,5 L-6,6 L-1,1 Z " fill="#E8E8E8" transform="translate(17,9)"/>
<path d="M0,0 L2,0 L1,4 L-3,6 L-2,2 Z " fill="#272727" transform="translate(14,8)"/>
</svg>
