<?xml version="1.0" encoding="UTF-8"?>
<svg version="1.1" xmlns="http://www.w3.org/2000/svg" width="28" height="28">
<path d="M0,0 L28,0 L28,28 L0,28 Z " fill="#000000" transform="translate(0,0)"/>
<path d="M0,0 L6,0 L10,5 L10,20 L8,20 L7,12 L-1,11 L-4,8 L-4,3 Z " fill="#BDBDBD" transform="translate(10,7)"/>
<path d="M0,0 L7,0 L8,1 L8,6 L2,6 L-1,4 Z " fill="#0D0D0D" transform="translate(9,10)"/>
<path d="M0,0 L4,1 L6,3 L6,12 L0,11 L3,9 L3,4 L-1,1 Z " fill="#F0F0F0" transform="translate(13,7)"/>
</svg>
