<?xml version="1.0" encoding="UTF-8"?>
<svg version="1.1" xmlns="http://www.w3.org/2000/svg" width="28" height="28">
<path d="M0,0 L28,0 L28,28 L0,28 Z " fill="#010101" transform="translate(0,0)"/>
<path d="M0,0 L3,1 L4,4 L-2,16 L-3,20 L-5,20 L-4,14 L-2,10 L-8,10 L-7,6 L-3,1 Z " fill="#C1C1C1" transform="translate(17,6)"/>
<path d="M0,0 L3,1 L4,4 L1,4 L2,2 L-3,5 L-5,9 L-8,10 L-7,6 L-3,1 Z " fill="#D5D5D5" transform="translate(17,6)"/>
<path d="M0,0 L3,0 L1,4 L-5,7 L-3,3 Z " fill="#161616" transform="translate(16,8)"/>
</svg>
