<?xml version="1.0" encoding="UTF-8"?>
<svg version="1.1" xmlns="http://www.w3.org/2000/svg" width="28" height="28">
<path d="M0,0 L28,0 L28,28 L0,28 Z " fill="#010101" transform="translate(0,0)"/>
<path d="M0,0 L5,1 L9,5 L11,15 L11,20 L8,19 L6,13 L-1,10 L-3,8 L-3,2 Z " fill="#D4D4D4" transform="translate(10,6)"/>
<path d="M0,0 L5,1 L6,5 L2,6 L0,5 Z " fill="#1C1C1C" transform="translate(10,9)"/>
<path d="M0,0 L5,1 L4,4 L-1,2 L-1,7 L-2,7 L-2,1 Z " fill="#F3F3F3" transform="translate(10,6)"/>
</svg>
