<?xml version="1.0" encoding="UTF-8"?>
<svg version="1.1" xmlns="http://www.w3.org/2000/svg" width="28" height="28">
<path d="M0,0 L28,0 L28,28 L0,28 Z " fill="#010101" transform="translate(0,0)"/>
<path d="M0,0 L7,1 L10,5 L10,20 L8,20 L7,12 L1,12 L-3,8 L-2,1 Z " fill="#EDEDED" transform="translate(10,6)"/>
<path d="M0,0 L6,1 L5,6 L0,6 L-2,2 Z " fill="#212121" transform="translate(11,9)"/>
<path d="M0,0 L1,0 L1,15 L-1,15 L-2,7 L-8,7 L-8,6 L-1,6 Z " fill="#B3B3B3" transform="translate(19,11)"/>
</svg>
