<?xml version="1.0" encoding="UTF-8"?>
<svg version="1.1" xmlns="http://www.w3.org/2000/svg" width="28" height="28">
<path d="M0,0 L28,0 L28,28 L0,28 Z " fill="#000000" transform="translate(0,0)"/>
<path d="M0,0 L6,0 L8,1 L8,10 L7,20 L1,20 L0,18 L4,18 L5,11 L-1,11 L-3,4 Z " fill="#F5F5F5" transform="translate(11,6)"/>
<path d="M0,0 L2,1 L2,2 L5,2 L5,11 L-1,11 L-3,4 Z " fill="#D5D5D5" transform="translate(11,6)"/>
<path d="M0,0 L3,0 L3,6 L-1,7 L-1,1 Z " fill="#0C0C0C" transform="translate(13,8)"/>
<path d="M0,0 L3,0 L3,4 L-3,4 L-4,2 L0,2 Z " fill="#C9C9C9" transform="translate(15,22)"/>
<path d="M0,0 L1,0 L1,6 L5,7 L5,8 L-1,8 Z " fill="#B7B7B7" transform="translate(11,9)"/>
</svg>
