<?xml version="1.0" encoding="UTF-8"?>
<svg version="1.1" xmlns="http://www.w3.org/2000/svg" width="28" height="28">
<path d="M0,0 L28,0 L28,28 L0,28 Z " fill="#010101" transform="translate(0,0)"/>
<path d="M0,0 L5,0 L7,2 L7,8 L0,18 L-1,20 L-4,20 L-3,16 L0,10 L-5,9 L-6,4 L-3,1 Z " fill="#DEDEDE" transform="translate(14,6)"/>
<path d="M0,0 L5,0 L7,4 L-1,4 L-3,5 L-1,1 Z " fill="#EAEAEA" transform="translate(14,6)"/>
<path d="M0,0 L3,0 L2,5 L0,8 L-3,8 L-2,4 Z " fill="#D9D9D9" transform="translate(13,18)"/>
<path d="M0,0 L5,0 L5,3 L-2,4 Z " fill="#333333" transform="translate(13,9)"/>
</svg>
