<?xml version="1.0" encoding="UTF-8"?>
<svg version="1.1" xmlns="http://www.w3.org/2000/svg" width="28" height="28">
<path d="M0,0 L28,0 L28,28 L0,28 Z " fill="#010101" transform="translate(0,0)"/>
<path d="M0,0 L4,1 L5,4 L7,4 L7,19 L4,20 L4,10 L-1,10 L-3,8 L-2,2 Z " fill="#CFCFCF" transform="translate(11,6)"/>
<path d="M0,0 L4,1 L5,2 L5,7 L3,3 L0,2 L0,7 L1,9 L-3,8 L-2,2 Z " fill="#DEDEDE" transform="translate(11,6)"/>
<path d="M0,0 L4,1 L4,6 L-1,5 Z " fill="#0A0A0A" transform="translate(11,8)"/>
</svg>
