<?xml version="1.0" encoding="UTF-8"?>
<svg version="1.1" xmlns="http://www.w3.org/2000/svg" width="28" height="28">
<path d="M0,0 L28,0 L28,28 L0,28 Z " fill="#020202" transform="translate(0,0)"/>
<path d="M0,0 L4,1 L6,6 L5,14 L1,20 L-1,20 L0,15 L2,12 L-4,12 L-5,11 L-4,4 Z " fill="#DCDCDC" transform="translate(13,5)"/>
<path d="M0,0 L2,0 L1,7 L-3,13 L-5,13 L-4,8 L-2,5 L-8,5 L-6,4 L-6,2 Z " fill="#E6E6E6" transform="translate(17,12)"/>
<path d="M0,0 L2,0 L3,5 L2,6 L-3,6 L-2,2 Z " fill="#101010" transform="translate(14,8)"/>
</svg>
