<?xml version="1.0" encoding="UTF-8"?>
<svg version="1.1" xmlns="http://www.w3.org/2000/svg" width="28" height="28">
<path d="M0,0 L28,0 L28,28 L0,28 Z " fill="#020202" transform="translate(0,0)"/>
<path d="M0,0 L4,1 L6,5 L5,18 L3,20 L2,10 L-1,12 L-6,12 L-8,10 L-7,5 Z " fill="#D5D5D5" transform="translate(14,6)"/>
<path d="M0,0 L3,1 L2,3 L0,3 L0,7 L7,5 L6,8 L-1,9 L-3,7 L-2,2 Z " fill="#D8D8D8" transform="translate(9,9)"/>
<path d="M0,0 L3,0 L4,3 L-1,7 L-4,7 L-4,3 Z " fill="#0C0C0C" transform="translate(13,9)"/>
</svg>
