<?xml version="1.0" encoding="UTF-8"?>
<svg version="1.1" xmlns="http://www.w3.org/2000/svg" width="28" height="28">
<path d="M0,0 L28,0 L28,28 L0,28 Z " fill="#030303" transform="translate(0,0)"/>
<path d="M0,0 L6,1 L6,3 L9,3 L8,7 L8,20 L5,18 L5,11 L0,12 L-3,10 L-3,3 Z " fill="#E8E8E8" transform="translate(11,6)"/>
<path d="M0,0 L4,1 L5,6 L3,8 L-2,8 L-3,3 Z " fill="#0D0D0D" transform="translate(12,8)"/>
<path d="M0,0 L6,1 L6,3 L8,3 L8,5 L5,5 L4,3 L-2,3 Z " fill="#ABABAB" transform="translate(11,6)"/>
</svg>
