<?xml version="1.0" encoding="UTF-8"?>
<svg version="1.1" xmlns="http://www.w3.org/2000/svg" width="28" height="28">
<path d="M0,0 L28,0 L28,28 L0,28 Z " fill="#030303" transform="translate(0,0)"/>
<path d="M0,0 L7,0 L10,3 L10,5 L7,4 L0,4 L-2,8 L4,8 L8,7 L8,11 L1,20 L-1,20 L0,15 L1,13 L3,13 L3,11 L-3,11 L-4,10 L-4,4 Z " fill="#EBEBEB" transform="translate(12,6)"/>
<path d="M0,0 L2,1 L0,6 L-2,9 L-4,9 L-3,4 L-2,2 L0,2 Z " fill="#D1D1D1" transform="translate(15,17)"/>
<path d="M0,0 L4,2 L5,5 L-4,3 Z " fill="#A9A9A9" transform="translate(17,6)"/>
</svg>
