<?xml version="1.0" encoding="UTF-8"?>
<svg version="1.1" xmlns="http://www.w3.org/2000/svg" width="28" height="28">
<path d="M0,0 L28,0 L28,28 L0,28 Z " fill="#030303" transform="translate(0,0)"/>
<path d="M0,0 L6,0 L10,3 L10,16 L8,20 L4,19 L5,15 L7,15 L7,7 L5,10 L0,9 L-2,5 L-4,4 L-4,1 Z " fill="#EAEAEA" transform="translate(9,6)"/>
<path d="M0,0 L6,0 L4,7 L1,7 L-4,4 L-4,1 Z " fill="#DEDEDE" transform="translate(9,6)"/>
<path d="M0,0 L3,0 L2,5 L-1,5 L-2,1 Z " fill="#232323" transform="translate(11,8)"/>
</svg>
