<?xml version="1.0" encoding="UTF-8"?>
<svg version="1.1" xmlns="http://www.w3.org/2000/svg" width="28" height="28">
<path d="M0,0 L28,0 L28,28 L0,28 Z " fill="#020202" transform="translate(0,0)"/>
<path d="M0,0 L6,0 L8,4 L6,9 L1,16 L-1,20 L-4,19 L-3,12 L-6,9 L-5,4 L-4,2 Z " fill="#E6E6E6" transform="translate(14,6)"/>
<path d="M0,0 L4,0 L4,2 L2,2 L2,5 L-4,5 L-2,1 Z " fill="#131313" transform="translate(14,9)"/>
<path d="M0,0 L4,1 L4,4 L-2,4 L-4,2 Z " fill="#B8B8B8" transform="translate(14,6)"/>
</svg>
