<?xml version="1.0" encoding="UTF-8"?>
<svg version="1.1" xmlns="http://www.w3.org/2000/svg" width="28" height="28">
<path d="M0,0 L28,0 L28,28 L0,28 Z " fill="#010101" transform="translate(0,0)"/>
<path d="M0,0 L4,1 L3,6 L0,11 L-3,20 L-5,20 L-4,14 L-3,12 L-6,12 L-6,6 L-1,1 Z " fill="#C9C9C9" transform="translate(16,6)"/>
<path d="M0,0 L1,2 L-2,8 L-6,9 L-5,5 Z " fill="#1F1F1F" transform="translate(17,7)"/>
<path d="M0,0 L4,0 L5,4 L3,9 L1,9 L2,3 L3,1 Z " fill="#A2A2A2" transform="translate(10,17)"/>
<path d="M0,0 L1,2 L0,5 L6,2 L4,8 L3,6 L-1,6 L-1,1 Z " fill="#EFEFEF" transform="translate(11,11)"/>
</svg>
