<?xml version="1.0" encoding="UTF-8"?>
<svg version="1.1" xmlns="http://www.w3.org/2000/svg" width="28" height="28">
<path d="M0,0 L28,0 L28,28 L0,28 Z " fill="#020202" transform="translate(0,0)"/>
<path d="M0,0 L6,1 L8,3 L7,19 L3,20 L3,13 L-4,13 L-6,12 L-6,5 L-3,2 Z " fill="#E6E6E6" transform="translate(13,6)"/>
<path d="M0,0 L3,0 L2,16 L-2,17 L-2,9 L-4,8 L-2,8 L-2,3 L0,3 Z " fill="#F4F4F4" transform="translate(18,9)"/>
<path d="M0,0 L5,0 L4,7 L-1,6 Z " fill="#111111" transform="translate(12,9)"/>
</svg>
