<?xml version="1.0" encoding="UTF-8"?>
<svg version="1.1" xmlns="http://www.w3.org/2000/svg" width="28" height="28">
<path d="M0,0 L28,0 L28,28 L0,28 Z " fill="#020202" transform="translate(0,0)"/>
<path d="M0,0 L7,0 L11,2 L11,9 L8,20 L6,20 L7,11 L0,10 L-3,7 L-2,1 Z " fill="#BFBFBF" transform="translate(9,7)"/>
<path d="M0,0 L7,0 L8,1 L8,6 L1,5 L-1,4 Z " fill="#0D0D0D" transform="translate(9,10)"/>
<path d="M0,0 L1,0 L0,12 L-1,15 L-3,15 L-2,6 L-5,5 L-2,4 Z " fill="#F4F4F4" transform="translate(18,12)"/>
<path d="M0,0 L2,0 L1,5 L9,7 L6,9 L1,7 L-1,5 Z " fill="#D9D9D9" transform="translate(7,9)"/>
</svg>
