<?xml version="1.0" encoding="UTF-8"?>
<svg version="1.1" xmlns="http://www.w3.org/2000/svg" width="28" height="28">
<path d="M0,0 L28,0 L28,28 L0,28 Z " fill="#010101" transform="translate(0,0)"/>
<path d="M0,0 L6,0 L6,4 L3,11 L-2,20 L-5,20 L-3,14 L0,9 L-5,7 L-4,2 Z " fill="#D8D8D8" transform="translate(14,6)"/>
<path d="M0,0 L1,3 L-5,14 L-6,16 L-9,16 L-7,10 L-3,4 L-5,3 Z " fill="#E9E9E9" transform="translate(18,10)"/>
<path d="M0,0 L3,0 L2,4 L-3,4 L-2,1 Z " fill="#262626" transform="translate(15,8)"/>
</svg>
