<?xml version="1.0" encoding="UTF-8"?>
<svg version="1.1" xmlns="http://www.w3.org/2000/svg" width="28" height="28">
<path d="M0,0 L28,0 L28,28 L0,28 Z " fill="#030303" transform="translate(0,0)"/>
<path d="M0,0 L4,1 L8,5 L7,10 L1,15 L-4,16 L-5,12 L1,11 L4,7 L4,3 L-6,5 L2,5 L2,7 L-1,8 L-11,8 L-12,4 L-5,1 Z " fill="#E3E3E3" transform="translate(16,7)"/>
<path d="M0,0 L7,0 L4,2 L-5,3 L-3,1 Z " fill="#232323" transform="translate(13,10)"/>
<path d="M0,0 L4,0 L4,2 L-4,3 L-5,1 Z " fill="#D7D7D7" transform="translate(14,12)"/>
</svg>
