<?xml version="1.0" encoding="UTF-8"?>
<svg version="1.1" xmlns="http://www.w3.org/2000/svg" width="28" height="28">
<path d="M0,0 L28,0 L28,28 L0,28 Z " fill="#020202" transform="translate(0,0)"/>
<path d="M0,0 L5,0 L8,5 L8,20 L5,20 L4,14 L-2,12 L-5,10 L-5,4 Z " fill="#E8E8E8" transform="translate(12,6)"/>
<path d="M0,0 L5,1 L5,4 L3,4 L4,9 L-2,8 L-3,7 L-3,2 Z " fill="#101010" transform="translate(12,8)"/>
<path d="M0,0 L5,0 L2,2 L-2,4 L-2,9 L4,11 L1,13 L-4,11 L-5,10 L-5,4 Z " fill="#CDCDCD" transform="translate(12,6)"/>
</svg>
