<?xml version="1.0" encoding="UTF-8"?>
<svg version="1.1" xmlns="http://www.w3.org/2000/svg" width="28" height="28">
<path d="M0,0 L28,0 L28,28 L0,28 Z " fill="#040404" transform="translate(0,0)"/>
<path d="M0,0 L7,0 L12,2 L14,9 L12,14 L8,18 L4,20 L-2,20 L-3,15 L1,13 L1,16 L7,13 L9,13 L9,5 L7,4 L0,4 L-3,9 L8,9 L5,12 L-2,12 L-5,11 L-6,4 Z " fill="#E4E4E4" transform="translate(11,5)"/>
<path d="M0,0 L1,0 L1,6 L-3,10 L-8,11 L-8,8 L-11,9 L-11,7 L-2,5 L-3,3 L0,3 Z " fill="#242424" transform="translate(20,10)"/>
<path d="M0,0 L7,0 L6,3 L0,3 Z " fill="#C3C3C3" transform="translate(11,5)"/>
</svg>
