<?xml version="1.0" encoding="UTF-8"?>
<svg version="1.1" xmlns="http://www.w3.org/2000/svg" width="28" height="28">
<path d="M0,0 L28,0 L28,28 L0,28 Z " fill="#020202" transform="translate(0,0)"/>
<path d="M0,0 L5,0 L6,5 L0,12 L-5,20 L-7,20 L-6,16 L-1,9 L-8,10 L-7,4 Z " fill="#CCCCCC" transform="translate(16,7)"/>
<path d="M0,0 L1,2 L6,0 L11,0 L9,5 L3,14 L1,14 L2,10 L7,3 L0,4 Z " fill="#DEDEDE" transform="translate(8,13)"/>
<path d="M0,0 L5,0 L4,3 L-2,6 L-5,6 L-3,2 Z " fill="#0E0E0E" transform="translate(15,9)"/>
</svg>
