<?xml version="1.0" encoding="UTF-8"?>
<svg version="1.1" xmlns="http://www.w3.org/2000/svg" width="28" height="28">
<path d="M0,0 L28,0 L28,28 L0,28 Z " fill="#030303" transform="translate(0,0)"/>
<path d="M0,0 L5,0 L6,1 L6,6 L10,5 L9,9 L4,20 L1,19 L1,15 L-4,15 L-7,9 L-5,4 L-4,2 Z " fill="#E7E7E7" transform="translate(13,5)"/>
<path d="M0,0 L1,4 L4,4 L4,6 L-2,10 L-5,9 L-5,3 Z " fill="#0D0D0D" transform="translate(15,8)"/>
<path d="M0,0 L3,1 L1,2 L2,4 L-2,6 L-3,11 L-5,8 L-7,9 L-5,4 L-4,2 Z " fill="#C7C7C7" transform="translate(13,5)"/>
<path d="M0,0 L3,1 L3,6 L1,6 L1,3 L-3,2 Z " fill="#F9F9F9" transform="translate(16,5)"/>
</svg>
