<?xml version="1.0" encoding="UTF-8"?>
<svg version="1.1" xmlns="http://www.w3.org/2000/svg" width="28" height="28">
<path d="M0,0 L28,0 L28,28 L0,28 Z " fill="#030303" transform="translate(0,0)"/>
<path d="M0,0 L4,1 L5,6 L0,19 L-3,20 L-1,12 L0,10 L-3,8 L2,5 L2,3 L0,2 Z " fill="#E9E9E9" transform="translate(15,6)"/>
<path d="M0,0 L1,2 L4,3 L2,7 L-4,9 L-5,5 Z " fill="#CDCDCD" transform="translate(14,6)"/>
<path d="M0,0 L3,1 L1,5 L-3,5 L-2,1 Z " fill="#070707" transform="translate(15,8)"/>
</svg>
