<?xml version="1.0" encoding="UTF-8"?>
<svg version="1.1" xmlns="http://www.w3.org/2000/svg" width="28" height="28">
<path d="M0,0 L28,0 L28,28 L0,28 Z " fill="#030303" transform="translate(0,0)"/>
<path d="M0,0 L6,1 L8,3 L7,10 L5,10 L2,19 L-1,20 L1,12 L-5,12 L-7,11 L-6,5 Z " fill="#DADADA" transform="translate(13,6)"/>
<path d="M0,0 L5,2 L3,6 L-6,7 L-4,3 Z " fill="#0E0E0E" transform="translate(14,8)"/>
<path d="M0,0 L6,1 L7,3 L1,3 L-5,7 L-4,3 Z " fill="#F0F0F0" transform="translate(13,6)"/>
</svg>
