<?xml version="1.0" encoding="UTF-8"?>
<svg version="1.1" xmlns="http://www.w3.org/2000/svg" width="28" height="28">
<path d="M0,0 L28,0 L28,28 L0,28 Z " fill="#010101" transform="translate(0,0)"/>
<path d="M0,0 L5,1 L7,3 L6,20 L4,20 L3,10 L2,11 L-4,11 L-5,6 Z " fill="#C1C1C1" transform="translate(12,6)"/>
<path d="M0,0 L2,0 L1,17 L-1,17 L-2,7 L-4,6 L-1,3 Z " fill="#DADADA" transform="translate(17,9)"/>
<path d="M0,0 L4,0 L4,5 L2,7 L-3,7 L-2,2 Z " fill="#080808" transform="translate(12,8)"/>
</svg>
