<?xml version="1.0" encoding="UTF-8"?>
<svg version="1.1" xmlns="http://www.w3.org/2000/svg" width="28" height="28">
<path d="M0,0 L28,0 L28,28 L0,28 Z " fill="#020202" transform="translate(0,0)"/>
<path d="M0,0 L7,0 L9,2 L8,8 L3,20 L1,20 L2,15 L4,10 L2,11 L-5,11 L-5,5 Z " fill="#E9E9E9" transform="translate(12,7)"/>
<path d="M0,0 L6,0 L6,4 L4,4 L4,6 L-3,7 L-2,2 Z " fill="#101010" transform="translate(12,9)"/>
<path d="M0,0 L4,1 L5,5 L2,12 L0,12 L1,7 L3,2 L0,3 L-4,1 Z " fill="#CECECE" transform="translate(13,15)"/>
</svg>
