<?xml version="1.0" encoding="UTF-8"?>
<svg version="1.1" xmlns="http://www.w3.org/2000/svg" width="28" height="28">
<path d="M0,0 L28,0 L28,28 L0,28 Z " fill="#040404" transform="translate(0,0)"/>
<path d="M0,0 L5,2 L8,5 L11,5 L10,17 L13,17 L13,19 L8,20 L7,19 L7,10 L2,14 L-5,13 L-5,6 Z " fill="#E6E6E6" transform="translate(11,5)"/>
<path d="M0,0 L4,1 L5,5 L1,8 L-4,7 L-2,1 Z " fill="#0F0F0F" transform="translate(12,8)"/>
<path d="M0,0 L1,0 L1,7 L6,6 L6,8 L1,9 L0,8 Z " fill="#BFBFBF" transform="translate(18,16)"/>
</svg>
