<?xml version="1.0" encoding="UTF-8"?>
<svg version="1.1" xmlns="http://www.w3.org/2000/svg" width="28" height="28">
<path d="M0,0 L28,0 L28,28 L0,28 Z " fill="#020202" transform="translate(0,0)"/>
<path d="M0,0 L3,1 L3,9 L-5,17 L-6,15 L-10,14 L-10,13 L-3,11 L-1,5 L1,5 L1,3 L-4,6 L-7,8 L-5,4 Z " fill="#DCDCDC" transform="translate(17,6)"/>
<path d="M0,0 L3,0 L3,2 L1,2 L0,8 L-3,10 L-6,10 L-7,5 L-2,2 Z " fill="#292929" transform="translate(15,9)"/>
<path d="M0,0 L1,0 L1,5 L-4,9 L-4,7 L-8,6 L-8,5 L-1,3 Z " fill="#C5C5C5" transform="translate(15,14)"/>
</svg>
