<?xml version="1.0" encoding="UTF-8"?>
<svg version="1.1" xmlns="http://www.w3.org/2000/svg" width="28" height="28">
<path d="M0,0 L28,0 L28,28 L0,28 Z " fill="#010101" transform="translate(0,0)"/>
<path d="M0,0 L6,0 L8,2 L8,5 L6,5 L4,12 L0,20 L-3,20 L-2,13 L-7,12 L-8,8 L-2,1 Z " fill="#D8D8D8" transform="translate(15,6)"/>
<path d="M0,0 L3,1 L-3,14 L-6,14 L-5,7 L-10,6 L-9,2 L-8,5 L-2,2 Z " fill="#ECECEC" transform="translate(18,12)"/>
<path d="M0,0 L5,0 L0,6 L-4,6 L-3,2 Z " fill="#121212" transform="translate(15,10)"/>
</svg>
