<?xml version="1.0" encoding="UTF-8"?>
<svg version="1.1" xmlns="http://www.w3.org/2000/svg" width="28" height="28">
<path d="M0,0 L28,0 L28,28 L0,28 Z " fill="#010101" transform="translate(0,0)"/>
<path d="M0,0 L7,0 L10,2 L11,7 L6,20 L4,20 L5,12 L-2,10 L-3,9 L-3,3 Z " fill="#CBCBCB" transform="translate(10,6)"/>
<path d="M0,0 L5,1 L7,5 L4,8 L-3,8 L-3,2 Z " fill="#0B0B0B" transform="translate(12,7)"/>
<path d="M0,0 L3,0 L2,9 L1,11 L-1,11 L0,3 Z " fill="#ECECEC" transform="translate(15,15)"/>
</svg>
