<?xml version="1.0" encoding="UTF-8"?>
<svg version="1.1" xmlns="http://www.w3.org/2000/svg" width="28" height="28">
<path d="M0,0 L28,0 L28,28 L0,28 Z " fill="#020202" transform="translate(0,0)"/>
<path d="M0,0 L5,0 L6,1 L6,10 L4,18 L6,19 L2,19 L2,12 L3,9 L-2,8 L-3,4 Z " fill="#D2D2D2" transform="translate(12,6)"/>
<path d="M0,0 L3,1 L3,6 L-1,7 L-3,7 L-2,2 Z " fill="#8C8C8C" transform="translate(12,6)"/>
<path d="M0,0 L3,0 L3,9 L1,10 L-4,8 L-2,6 L0,6 Z " fill="#F1F1F1" transform="translate(14,6)"/>
</svg>
