<?xml version="1.0" encoding="UTF-8"?>
<svg version="1.1" xmlns="http://www.w3.org/2000/svg" width="28" height="28">
<path d="M0,0 L28,0 L28,28 L0,28 Z " fill="#030303" transform="translate(0,0)"/>
<path d="M0,0 L4,1 L4,4 L6,4 L4,10 L-3,20 L-5,20 L-4,16 L-3,15 L-8,15 L-9,11 L-6,5 Z " fill="#E1E1E1" transform="translate(16,5)"/>
<path d="M0,0 L3,0 L1,6 L-6,16 L-8,16 L-7,12 L-6,11 L-8,9 L-1,1 Z " fill="#EDEDED" transform="translate(19,9)"/>
<path d="M0,0 L2,0 L1,4 L-4,9 L-7,9 L-5,4 Z " fill="#111111" transform="translate(16,8)"/>
</svg>
