<?xml version="1.0" encoding="UTF-8"?>
<svg version="1.1" xmlns="http://www.w3.org/2000/svg" width="28" height="28">
<path d="M0,0 L28,0 L28,28 L0,28 Z " fill="#030303" transform="translate(0,0)"/>
<path d="M0,0 L4,1 L5,8 L-1,19 L-4,20 L-2,15 L-6,16 L-7,15 L-7,9 L-1,1 Z " fill="#EDEDED" transform="translate(15,5)"/>
<path d="M0,0 L3,0 L2,4 L0,8 L-5,9 L-3,4 Z " fill="#171717" transform="translate(15,8)"/>
<path d="M0,0 L2,0 L1,4 L0,9 L-2,9 L-3,5 Z " fill="#D4D4D4" transform="translate(11,9)"/>
</svg>
