<?xml version="1.0" encoding="UTF-8"?>
<svg version="1.1" xmlns="http://www.w3.org/2000/svg" width="28" height="28">
<path d="M0,0 L28,0 L28,28 L0,28 Z " fill="#030303" transform="translate(0,0)"/>
<path d="M0,0 L4,1 L-2,4 L-3,8 L2,9 L2,7 L5,6 L7,4 L9,6 L7,19 L4,20 L5,10 L-3,11 L-5,10 L-5,4 Z " fill="#DBDBDB" transform="translate(12,5)"/>
<path d="M0,0 L4,1 L-2,4 L-3,8 L-1,9 L-3,11 L-5,10 L-5,4 Z " fill="#C6C6C6" transform="translate(12,5)"/>
<path d="M0,0 L1,0 L1,9 L-2,10 L-1,1 Z " fill="#F2F2F2" transform="translate(18,15)"/>
</svg>
