<?xml version="1.0" encoding="UTF-8"?>
<svg version="1.1" xmlns="http://www.w3.org/2000/svg" width="28" height="28">
<path d="M0,0 L28,0 L28,28 L0,28 Z " fill="#010101" transform="translate(0,0)"/>
<path d="M0,0 L5,0 L6,4 L0,20 L-2,20 L-1,14 L1,9 L-4,9 L-6,6 L-6,1 L-3,3 Z " fill="#CACACA" transform="translate(14,7)"/>
<path d="M0,0 L1,4 L-4,18 L-6,18 L-5,12 L-3,7 L-7,7 L-6,5 L-2,3 Z " fill="#EBEBEB" transform="translate(18,9)"/>
<path d="M0,0 L3,1 L-2,6 L-3,3 Z " fill="#262626" transform="translate(15,9)"/>
</svg>
