<?xml version="1.0" encoding="UTF-8"?>
<svg version="1.1" xmlns="http://www.w3.org/2000/svg" width="28" height="28">
<path d="M0,0 L28,0 L28,28 L0,28 Z " fill="#010101" transform="translate(0,0)"/>
<path d="M0,0 L5,1 L6,6 L9,7 L10,20 L8,20 L6,10 L3,12 L-2,12 L-4,10 L-3,5 Z " fill="#D3D3D3" transform="translate(11,6)"/>
<path d="M0,0 L4,0 L5,13 L3,13 L1,3 Z " fill="#D7D7D7" transform="translate(16,13)"/>
<path d="M0,0 L3,1 L2,7 L-2,7 L-2,2 Z " fill="#0B0B0B" transform="translate(12,8)"/>
<path d="M0,0 L5,1 L6,3 L4,6 L3,3 L-2,5 L-1,1 Z " fill="#DADADA" transform="translate(11,6)"/>
<path d="M0,0 L2,0 L2,4 L5,5 L0,6 L-1,2 Z " fill="#ABABAB" transform="translate(8,11)"/>
</svg>
