<?xml version="1.0" encoding="UTF-8"?>
<svg version="1.1" xmlns="http://www.w3.org/2000/svg" width="28" height="28">
<path d="M0,0 L28,0 L28,28 L0,28 Z " fill="#010101" transform="translate(0,0)"/>
<path d="M0,0 L6,0 L6,2 L-2,4 L-4,7 L2,4 L4,3 L3,8 L-3,20 L-5,20 L-4,15 L-1,9 L-6,8 L-5,4 Z " fill="#CDCDCD" transform="translate(15,7)"/>
<path d="M0,0 L6,0 L6,2 L-2,4 L-4,7 L0,7 L-1,10 L-6,8 L-5,4 Z " fill="#C0C0C0" transform="translate(15,7)"/>
<path d="M0,0 L4,1 L-1,5 L-4,5 L-2,1 Z " fill="#181818" transform="translate(15,9)"/>
<path d="M0,0 L1,3 L-2,8 L-4,7 L-4,3 Z " fill="#E4E4E4" transform="translate(18,10)"/>
</svg>
