<?xml version="1.0" encoding="UTF-8"?>
<svg version="1.1" xmlns="http://www.w3.org/2000/svg" width="28" height="28">
<path d="M0,0 L28,0 L28,28 L0,28 Z " fill="#020202" transform="translate(0,0)"/>
<path d="M0,0 L5,0 L1,3 L-2,4 L-5,10 L1,7 L3,3 L5,3 L4,8 L-2,20 L-5,20 L-3,15 L-2,12 L-7,12 L-8,7 Z " fill="#E2E2E2" transform="translate(16,6)"/>
<path d="M0,0 L0,3 L-2,3 L-4,8 L-7,10 L-10,10 L-9,6 L-7,3 Z " fill="#181818" transform="translate(21,6)"/>
<path d="M0,0 L6,0 L7,4 L5,9 L2,9 L4,4 L5,1 L0,1 Z " fill="#CBCBCB" transform="translate(9,17)"/>
</svg>
