<?xml version="1.0" encoding="UTF-8"?>
<svg version="1.1" xmlns="http://www.w3.org/2000/svg" width="28" height="28">
<path d="M0,0 L28,0 L28,28 L0,28 Z " fill="#020202" transform="translate(0,0)"/>
<path d="M0,0 L5,1 L5,2 L-2,4 L-5,8 L0,7 L2,3 L4,5 L-4,20 L-6,20 L-4,14 L-2,10 L-8,9 L-7,4 Z " fill="#EAEAEA" transform="translate(16,6)"/>
<path d="M0,0 L5,1 L5,2 L-2,4 L-4,8 L-6,10 L-8,9 L-7,4 Z " fill="#D2D2D2" transform="translate(16,6)"/>
<path d="M0,0 L1,2 L-4,4 L-7,7 L-10,7 L-8,3 L-5,1 Z " fill="#1D1D1D" transform="translate(21,7)"/>
</svg>
