<?xml version="1.0" encoding="UTF-8"?>
<svg version="1.1" xmlns="http://www.w3.org/2000/svg" width="28" height="28">
<path d="M0,0 L28,0 L28,28 L0,28 Z " fill="#020202" transform="translate(0,0)"/>
<path d="M0,0 L4,1 L3,8 L-3,20 L-5,20 L-4,15 L-2,12 L-6,10 L-5,4 Z " fill="#E3E3E3" transform="translate(16,6)"/>
<path d="M0,0 L1,0 L0,7 L-5,17 L-7,17 L-6,12 L-4,9 L-7,8 L-7,6 L-2,4 Z " fill="#E3E3E3" transform="translate(18,9)"/>
<path d="M0,0 L2,1 L-1,6 L-5,7 L-4,3 Z " fill="#262626" transform="translate(17,8)"/>
</svg>
