<?xml version="1.0" encoding="UTF-8"?>
<svg version="1.1" xmlns="http://www.w3.org/2000/svg" width="28" height="28">
<path d="M0,0 L28,0 L28,28 L0,28 Z " fill="#020202" transform="translate(0,0)"/>
<path d="M0,0 L4,1 L6,7 L8,20 L6,20 L4,16 L4,10 L-3,11 L-4,10 L-4,4 Z " fill="#F0F0F0" transform="translate(13,6)"/>
<path d="M0,0 L1,0 L3,13 L1,13 L-1,9 Z " fill="#C5C5C5" transform="translate(18,13)"/>
<path d="M0,0 L3,0 L2,5 L-2,6 L-1,1 Z " fill="#1F1F1F" transform="translate(13,9)"/>
<path d="M0,0 L4,1 L3,3 L-2,5 L-2,1 Z " fill="#D9D9D9" transform="translate(13,6)"/>
</svg>
