<?xml version="1.0" encoding="UTF-8"?>
<svg version="1.1" xmlns="http://www.w3.org/2000/svg" width="28" height="28">
<path d="M0,0 L28,0 L28,28 L0,28 Z " fill="#010101" transform="translate(0,0)"/>
<path d="M0,0 L5,0 L6,2 L-2,16 L-4,20 L-6,20 L-5,16 L-2,10 L-6,8 L-5,3 Z " fill="#BCBCBC" transform="translate(16,7)"/>
<path d="M0,0 L2,1 L-6,14 L-7,17 L-9,17 L-8,13 L-4,5 L-3,3 L-1,3 Z " fill="#D8D8D8" transform="translate(19,10)"/>
<path d="M0,0 L3,0 L2,4 L-4,5 L-2,1 Z " fill="#0F0F0F" transform="translate(16,9)"/>
</svg>
