<?xml version="1.0" encoding="UTF-8"?>
<svg version="1.1" xmlns="http://www.w3.org/2000/svg" width="28" height="28">
<path d="M0,0 L28,0 L28,28 L0,28 Z " fill="#030303" transform="translate(0,0)"/>
<path d="M0,0 L7,0 L9,1 L9,5 L12,6 L9,20 L5,19 L6,12 L7,10 L1,10 L-1,9 L-2,3 Z " fill="#ECECEC" transform="translate(9,6)"/>
<path d="M0,0 L7,0 L9,1 L9,7 L4,8 L1,6 L1,2 L-1,1 Z M1,1 Z " fill="#E4E4E4" transform="translate(9,6)"/>
<path d="M0,0 L4,0 L4,2 L7,2 L6,5 L0,4 Z " fill="#333333" transform="translate(11,9)"/>
</svg>
