<?xml version="1.0" encoding="UTF-8"?>
<svg version="1.1" xmlns="http://www.w3.org/2000/svg" width="28" height="28">
<path d="M0,0 L28,0 L28,28 L0,28 Z " fill="#040404" transform="translate(0,0)"/>
<path d="M0,0 L7,0 L8,2 L9,14 L11,17 L7,18 L5,17 L4,8 L2,8 L1,11 L-1,12 L-7,12 L-8,8 L-2,1 Z " fill="#E2E2E2" transform="translate(12,7)"/>
<path d="M0,0 L3,0 L4,2 L5,14 L7,17 L3,18 L1,17 L0,7 L-2,7 L-1,4 L1,4 L1,2 L-1,1 Z " fill="#EEEEEE" transform="translate(16,7)"/>
<path d="M0,0 L4,1 L-1,6 L-4,6 L-2,1 Z " fill="#161616" transform="translate(12,10)"/>
</svg>
