<?xml version="1.0" encoding="UTF-8"?>
<svg version="1.1" xmlns="http://www.w3.org/2000/svg" width="28" height="28">
<path d="M0,0 L28,0 L28,28 L0,28 Z " fill="#020202" transform="translate(0,0)"/>
<path d="M0,0 L7,0 L11,2 L11,20 L9,19 L9,10 L4,10 L-1,5 L-1,1 Z " fill="#F4F4F4" transform="translate(8,7)"/>
<path d="M0,0 L6,0 L8,1 L8,6 L3,6 L0,3 Z " fill="#0D0D0D" transform="translate(9,9)"/>
<path d="M0,0 L6,1 L6,2 L1,2 L4,7 L8,9 L4,10 L-1,5 L-1,1 Z " fill="#D3D3D3" transform="translate(8,7)"/>
</svg>
