<?xml version="1.0" encoding="UTF-8"?>
<svg version="1.1" xmlns="http://www.w3.org/2000/svg" width="28" height="28">
<path d="M0,0 L28,0 L28,28 L0,28 Z " fill="#010101" transform="translate(0,0)"/>
<path d="M0,0 L6,0 L6,2 L-1,4 L10,3 L7,12 L4,20 L2,20 L3,12 L5,6 L-3,6 L-3,2 Z " fill="#E9E9E9" transform="translate(11,7)"/>
<path d="M0,0 L6,0 L6,2 L-1,4 L-4,5 L-2,1 Z " fill="#D5D5D5" transform="translate(11,7)"/>
<path d="M0,0 L8,0 L4,2 L-3,3 Z " fill="#6B6B6B" transform="translate(12,9)"/>
</svg>
