<?xml version="1.0" encoding="UTF-8"?>
<svg version="1.1" xmlns="http://www.w3.org/2000/svg" width="28" height="28">
<path d="M0,0 L28,0 L28,28 L0,28 Z " fill="#020202" transform="translate(0,0)"/>
<path d="M0,0 L5,0 L8,5 L6,13 L3,20 L1,20 L2,15 L5,8 L-2,9 L-4,8 L-4,3 Z " fill="#E7E7E7" transform="translate(12,7)"/>
<path d="M0,0 L7,2 L7,4 L5,4 L6,7 L0,8 L-2,7 L-2,2 Z " fill="#D5D5D5" transform="translate(10,8)"/>
<path d="M0,0 L5,1 L5,3 L3,3 L3,5 L-2,4 Z " fill="#141414" transform="translate(12,9)"/>
</svg>
