<?xml version="1.0" encoding="UTF-8"?>
<svg version="1.1" xmlns="http://www.w3.org/2000/svg" width="28" height="28">
<path d="M0,0 L28,0 L28,28 L0,28 Z " fill="#000000" transform="translate(0,0)"/>
<path d="M0,0 L7,0 L11,3 L10,20 L7,20 L7,12 L0,11 L-4,7 L-4,2 Z " fill="#DBDBDB" transform="translate(10,7)"/>
<path d="M0,0 L9,0 L9,3 L8,7 L2,6 L0,4 Z " fill="#0A0A0A" transform="translate(9,10)"/>
<path d="M0,0 L7,0 L6,3 L-1,3 L1,8 L3,10 L0,11 L-4,7 L-4,2 Z " fill="#C5C5C5" transform="translate(10,7)"/>
</svg>
