<?xml version="1.0" encoding="UTF-8"?>
<svg version="1.1" xmlns="http://www.w3.org/2000/svg" width="28" height="28">
<path d="M0,0 L28,0 L28,28 L0,28 Z " fill="#030303" transform="translate(0,0)"/>
<path d="M0,0 L5,1 L7,2 L7,20 L5,20 L4,9 L-3,10 L-5,8 L-4,3 Z " fill="#E9E9E9" transform="translate(12,6)"/>
<path d="M0,0 L2,2 L2,14 L0,14 L-1,9 L-1,1 Z " fill="#D7D7D7" transform="translate(17,12)"/>
<path d="M0,0 L4,0 L4,5 L-2,6 L-1,1 Z " fill="#1F1F1F" transform="translate(12,8)"/>
<path d="M0,0 L3,0 L3,3 L8,3 L7,5 L2,5 L0,3 Z " fill="#CACACA" transform="translate(7,11)"/>
</svg>
