<?xml version="1.0" encoding="UTF-8"?>
<svg version="1.1" xmlns="http://www.w3.org/2000/svg" width="28" height="28">
<path d="M0,0 L28,0 L28,28 L0,28 Z " fill="#030303" transform="translate(0,0)"/>
<path d="M0,0 L2,0 L1,7 L-1,18 L1,18 L1,20 L-3,19 L-4,11 L-10,12 L-13,9 L-11,4 L-7,1 L-1,2 Z " fill="#CACACA" transform="translate(19,6)"/>
<path d="M0,0 L2,0 L1,7 L-1,18 L1,18 L1,20 L-3,19 L-3,10 L-5,10 L-5,8 L-3,7 L-4,4 L-7,3 L-7,1 L-1,2 Z " fill="#E3E3E3" transform="translate(19,6)"/>
<path d="M0,0 L4,2 L3,5 L-4,6 L-4,3 Z " fill="#0A0A0A" transform="translate(13,9)"/>
</svg>
