<?xml version="1.0" encoding="UTF-8"?>
<svg version="1.1" xmlns="http://www.w3.org/2000/svg" width="28" height="28">
<path d="M0,0 L28,0 L28,28 L0,28 Z " fill="#010101" transform="translate(0,0)"/>
<path d="M0,0 L5,0 L7,2 L7,8 L3,13 L0,20 L-2,20 L-1,15 L1,10 L-4,10 L-5,9 L-5,4 Z " fill="#E4E4E4" transform="translate(13,6)"/>
<path d="M0,0 L5,0 L3,5 L2,6 L-3,6 L-2,2 Z " fill="#111111" transform="translate(13,8)"/>
<path d="M0,0 L5,0 L6,2 L-1,4 L-3,8 L0,9 L-4,10 L-5,9 L-5,4 Z " fill="#C8C8C8" transform="translate(13,6)"/>
</svg>
