<?xml version="1.0" encoding="UTF-8"?>
<svg version="1.1" xmlns="http://www.w3.org/2000/svg" width="28" height="28">
<path d="M0,0 L28,0 L28,28 L0,28 Z " fill="#030303" transform="translate(0,0)"/>
<path d="M0,0 L5,1 L7,2 L4,11 L-1,20 L-3,20 L-2,15 L0,13 L1,9 L-2,11 L-7,11 L-6,5 Z " fill="#EDEDED" transform="translate(14,7)"/>
<path d="M0,0 L5,1 L4,5 L2,7 L0,10 L-5,10 L-4,4 Z " fill="#E6E6E6" transform="translate(12,8)"/>
<path d="M0,0 L3,0 L2,4 L-1,6 L-4,6 L-2,2 Z " fill="#343434" transform="translate(14,9)"/>
</svg>
