<?xml version="1.0" encoding="UTF-8"?>
<svg version="1.1" xmlns="http://www.w3.org/2000/svg" width="28" height="28">
<path d="M0,0 L28,0 L28,28 L0,28 Z " fill="#010101" transform="translate(0,0)"/>
<path d="M0,0 L4,1 L3,9 L0,20 L-2,20 L-1,11 L-9,12 L-10,8 L-6,3 Z " fill="#C4C4C4" transform="translate(16,6)"/>
<path d="M0,0 L3,0 L2,6 L-2,8 L-7,8 L-5,4 Z " fill="#171717" transform="translate(15,8)"/>
<path d="M0,0 L2,0 L-1,13 L-3,13 L-2,5 L-1,3 L-3,2 Z " fill="#DEDEDE" transform="translate(17,13)"/>
</svg>
