<?xml version="1.0" encoding="UTF-8"?>
<svg version="1.1" xmlns="http://www.w3.org/2000/svg" width="28" height="28">
<path d="M0,0 L28,0 L28,28 L0,28 Z " fill="#010101" transform="translate(0,0)"/>
<path d="M0,0 L6,0 L11,2 L12,6 L10,6 L8,17 L10,17 L9,20 L5,19 L6,9 L0,9 L-2,7 L-1,1 Z " fill="#C8C8C8" transform="translate(9,7)"/>
<path d="M0,0 L6,0 L11,2 L10,4 L8,5 L8,3 L1,2 L0,7 L5,8 L5,9 L0,9 L-2,7 L-1,1 Z " fill="#E5E5E5" transform="translate(9,7)"/>
<path d="M0,0 L7,1 L6,5 L-1,5 Z " fill="#161616" transform="translate(10,9)"/>
</svg>
