<?xml version="1.0" encoding="UTF-8"?>
<svg version="1.1" xmlns="http://www.w3.org/2000/svg" width="28" height="28">
<path d="M0,0 L28,0 L28,28 L0,28 Z " fill="#020202" transform="translate(0,0)"/>
<path d="M0,0 L7,1 L7,4 L5,5 L2,10 L-3,14 L-8,20 L-10,19 L-6,12 L-4,10 L-9,7 L-8,3 Z " fill="#E7E7E7" transform="translate(16,7)"/>
<path d="M0,0 L5,1 L10,1 L10,3 L5,6 L4,8 L-1,6 L-2,2 Z " fill="#CACACA" transform="translate(9,9)"/>
<path d="M0,0 L5,0 L5,2 L3,3 L-4,3 Z " fill="#2C2C2C" transform="translate(14,10)"/>
</svg>
