<?xml version="1.0" encoding="UTF-8"?>
<svg version="1.1" xmlns="http://www.w3.org/2000/svg" width="28" height="28">
<path d="M0,0 L28,0 L28,28 L0,28 Z " fill="#030303" transform="translate(0,0)"/>
<path d="M0,0 L11,0 L15,2 L17,12 L19,18 L15,17 L13,9 L6,9 L0,6 L-1,1 Z " fill="#DFDFDF" transform="translate(5,8)"/>
<path d="M0,0 L9,0 L11,1 L11,6 L5,5 L0,2 Z " fill="#0E0E0E" transform="translate(6,10)"/>
<path d="M0,0 L10,0 L10,1 L2,2 L1,6 L-1,5 Z " fill="#F4F4F4" transform="translate(5,8)"/>
<path d="M0,0 L4,2 L3,7 L2,3 L-8,2 L-8,1 Z " fill="#AEAEAE" transform="translate(15,8)"/>
</svg>
