<?xml version="1.0" encoding="UTF-8"?>
<svg version="1.1" xmlns="http://www.w3.org/2000/svg" width="28" height="28">
<path d="M0,0 L28,0 L28,28 L0,28 Z " fill="#030303" transform="translate(0,0)"/>
<path d="M0,0 L7,0 L8,4 L3,9 L-1,14 L-3,14 L-4,18 L-6,18 L-5,12 L-3,12 L-3,10 L-10,10 L-12,9 L-11,4 L-3,1 Z " fill="#F0F0F0" transform="translate(16,8)"/>
<path d="M0,0 L4,0 L4,2 L-2,6 L-9,6 L-8,3 Z " fill="#191919" transform="translate(16,10)"/>
<path d="M0,0 L2,1 L-1,4 L-8,6 L-11,9 L-12,6 L-10,3 Z " fill="#D0D0D0" transform="translate(16,8)"/>
<path d="M0,0 L4,0 L4,2 L2,2 L1,6 L-1,6 Z " fill="#D5D5D5" transform="translate(11,20)"/>
</svg>
