<?xml version="1.0" encoding="UTF-8"?>
<svg version="1.1" xmlns="http://www.w3.org/2000/svg" width="28" height="28">
<path d="M0,0 L28,0 L28,28 L0,28 Z " fill="#030303" transform="translate(0,0)"/>
<path d="M0,0 L5,1 L6,2 L6,7 L2,11 L0,11 L-2,15 L-4,20 L-7,19 L-6,14 L-4,11 L-11,11 L-13,9 L-12,4 L-5,1 Z " fill="#E7E7E7" transform="translate(17,7)"/>
<path d="M0,0 L6,0 L6,4 L3,6 L-4,6 L-3,2 Z " fill="#0F0F0F" transform="translate(11,10)"/>
<path d="M0,0 L3,1 L0,7 L-2,6 L-1,1 Z " fill="#CDCDCD" transform="translate(6,10)"/>
</svg>
