<?xml version="1.0" encoding="UTF-8"?>
<svg version="1.1" xmlns="http://www.w3.org/2000/svg" width="28" height="28">
<path d="M0,0 L28,0 L28,28 L0,28 Z " fill="#020202" transform="translate(0,0)"/>
<path d="M0,0 L6,1 L9,2 L8,8 L5,17 L3,20 L0,20 L3,11 L-5,9 L-5,4 Z " fill="#D5D5D5" transform="translate(12,6)"/>
<path d="M0,0 L1,4 L-1,10 L-3,13 L-6,13 L-3,4 Z " fill="#E2E2E2" transform="translate(18,13)"/>
<path d="M0,0 L2,1 L2,3 L4,4 L1,6 L-4,6 L-3,1 Z " fill="#111111" transform="translate(14,8)"/>
</svg>
