<?xml version="1.0" encoding="UTF-8"?>
<svg version="1.1" xmlns="http://www.w3.org/2000/svg" width="28" height="28">
<path d="M0,0 L28,0 L28,28 L0,28 Z " fill="#020202" transform="translate(0,0)"/>
<path d="M0,0 L6,1 L6,4 L1,4 L-1,8 L4,4 L7,9 L8,18 L13,17 L11,20 L6,20 L4,15 L3,10 L-2,11 L-3,10 L-3,4 Z " fill="#EAEAEA" transform="translate(11,5)"/>
<path d="M0,0 L6,1 L6,4 L-2,4 Z " fill="#C8C8C8" transform="translate(11,5)"/>
<path d="M0,0 L5,0 L5,3 L2,2 L0,5 L-2,5 L-1,1 Z " fill="#232323" transform="translate(12,8)"/>
</svg>
