<?xml version="1.0" encoding="UTF-8"?>
<svg version="1.1" xmlns="http://www.w3.org/2000/svg" width="28" height="28">
<path d="M0,0 L28,0 L28,28 L0,28 Z " fill="#020202" transform="translate(0,0)"/>
<path d="M0,0 L4,0 L2,4 L3,16 L5,16 L5,20 L2,19 L0,9 L-4,12 L-9,12 L-9,6 L-7,3 L-5,3 L-5,1 Z " fill="#D4D4D4" transform="translate(16,6)"/>
<path d="M0,0 L2,1 L-1,4 L-2,9 L3,5 L3,8 L1,10 L-4,10 L-4,4 Z " fill="#D7D7D7" transform="translate(11,8)"/>
<path d="M0,0 L3,0 L1,5 L-1,8 L-3,8 L-3,3 Z " fill="#222222" transform="translate(12,9)"/>
</svg>
