<?xml version="1.0" encoding="UTF-8"?>
<svg version="1.1" xmlns="http://www.w3.org/2000/svg" width="28" height="28">
<path d="M0,0 L28,0 L28,28 L0,28 Z " fill="#010101" transform="translate(0,0)"/>
<path d="M0,0 L7,0 L10,4 L10,10 L8,13 L7,20 L4,20 L4,14 L-5,15 L-7,11 L-6,5 Z " fill="#CFCFCF" transform="translate(12,5)"/>
<path d="M0,0 L5,0 L8,4 L8,10 L6,13 L5,20 L3,20 L3,13 L-2,13 L1,12 L1,10 L4,8 L5,3 L-1,2 Z " fill="#CFCFCF" transform="translate(14,5)"/>
<path d="M0,0 L7,0 L7,5 L3,8 L-4,8 L-3,3 Z " fill="#060606" transform="translate(12,8)"/>
<path d="M0,0 L1,0 L1,10 L-1,10 L-1,3 L-6,3 L-3,1 Z " fill="#FAFAFA" transform="translate(18,15)"/>
<path d="M0,0 L5,2 L5,3 L-1,5 L-5,7 L-6,5 Z " fill="#B7B7B7" transform="translate(12,5)"/>
<path d="M0,0 L5,0 L7,3 L5,5 L5,3 L-1,2 Z " fill="#ECECEC" transform="translate(14,5)"/>
</svg>
