<?xml version="1.0" encoding="UTF-8"?>
<svg version="1.1" xmlns="http://www.w3.org/2000/svg" width="28" height="28">
<path d="M0,0 L28,0 L28,28 L0,28 Z " fill="#030303" transform="translate(0,0)"/>
<path d="M0,0 L4,3 L2,9 L-2,15 L-3,20 L-7,19 L-6,15 L-5,12 L-10,12 L-12,9 L-7,3 Z " fill="#E9E9E9" transform="translate(18,6)"/>
<path d="M0,0 L2,1 L0,4 L5,0 L7,0 L6,4 L2,8 L2,9 L-3,9 L-5,6 Z " fill="#DBDBDB" transform="translate(11,9)"/>
<path d="M0,0 L2,0 L1,4 L-1,6 L-5,6 L-5,4 Z " fill="#232323" transform="translate(16,9)"/>
</svg>
