<?xml version="1.0" encoding="UTF-8"?>
<svg version="1.1" xmlns="http://www.w3.org/2000/svg" width="28" height="28">
<path d="M0,0 L28,0 L28,28 L0,28 Z " fill="#010101" transform="translate(0,0)"/>
<path d="M0,0 L5,0 L6,3 L1,3 L-2,4 L-2,9 L4,8 L5,5 L7,6 L6,20 L4,20 L3,11 L-4,11 L-5,10 L-5,5 Z " fill="#DCDCDC" transform="translate(13,6)"/>
<path d="M0,0 L5,1 L3,6 L0,8 L-4,7 L-3,2 Z " fill="#1C1C1C" transform="translate(14,8)"/>
<path d="M0,0 L3,0 L3,9 L1,9 Z " fill="#C2C2C2" transform="translate(16,17)"/>
</svg>
