<?xml version="1.0" encoding="UTF-8"?>
<svg version="1.1" xmlns="http://www.w3.org/2000/svg" width="28" height="28">
<path d="M0,0 L28,0 L28,28 L0,28 Z " fill="#040404" transform="translate(0,0)"/>
<path d="M0,0 L7,1 L8,2 L7,9 L4,15 L2,15 L1,20 L-1,20 L-1,14 L1,14 L3,9 L4,7 L-2,10 L-4,10 L-5,5 Z " fill="#EDEDED" transform="translate(13,7)"/>
<path d="M0,0 L4,1 L3,8 L0,14 L-2,14 L-3,19 L-5,19 L-5,13 L-3,13 L-1,8 L1,5 L-1,4 Z " fill="#EDEDED" transform="translate(17,8)"/>
<path d="M0,0 L3,0 L4,5 L-1,6 L-2,4 L-2,1 Z " fill="#9A9A9A" transform="translate(14,10)"/>
</svg>
