<?xml version="1.0" encoding="UTF-8"?>
<svg version="1.1" xmlns="http://www.w3.org/2000/svg" width="28" height="28">
<path d="M0,0 L28,0 L28,28 L0,28 Z " fill="#010101" transform="translate(0,0)"/>
<path d="M0,0 L5,0 L9,5 L9,11 L5,19 L3,20 L4,12 L5,9 L-2,8 L-3,4 Z " fill="#C8C8C8" transform="translate(11,7)"/>
<path d="M0,0 L5,2 L6,6 L-2,8 L-3,4 Z " fill="#D6D6D6" transform="translate(11,7)"/>
<path d="M0,0 L4,1 L7,5 L7,9 L4,10 L4,8 L-3,8 L1,6 L4,6 L3,3 L-1,1 Z " fill="#F3F3F3" transform="translate(13,7)"/>
<path d="M0,0 L4,1 L4,4 L-3,4 Z " fill="#171717" transform="translate(13,9)"/>
</svg>
