<?xml version="1.0" encoding="UTF-8"?>
<svg version="1.1" xmlns="http://www.w3.org/2000/svg" width="28" height="28">
<path d="M0,0 L28,0 L28,28 L0,28 Z " fill="#020202" transform="translate(0,0)"/>
<path d="M0,0 L4,1 L7,4 L6,16 L4,20 L3,17 L4,11 L-3,9 L-4,5 L-2,1 Z " fill="#E4E4E4" transform="translate(12,6)"/>
<path d="M0,0 L4,2 L5,6 L4,7 L-1,7 L-2,3 Z " fill="#111111" transform="translate(12,8)"/>
<path d="M0,0 L4,1 L6,6 L4,7 L2,3 L0,3 L-1,10 L-4,8 L-3,3 Z " fill="#C9C9C9" transform="translate(12,6)"/>
</svg>
