<?xml version="1.0" encoding="UTF-8"?>
<svg version="1.1" xmlns="http://www.w3.org/2000/svg" width="28" height="28">
<path d="M0,0 L28,0 L28,28 L0,28 Z " fill="#020202" transform="translate(0,0)"/>
<path d="M0,0 L5,1 L8,4 L7,10 L3,20 L1,20 L1,14 L2,12 L-3,10 L-4,9 L-4,4 Z " fill="#CCCCCC" transform="translate(12,6)"/>
<path d="M0,0 L5,1 L7,4 L5,6 L5,4 L0,4 L-1,9 L3,10 L-3,10 L-4,9 L-4,4 Z " fill="#E3E3E3" transform="translate(12,6)"/>
<path d="M0,0 L5,1 L4,5 L-1,5 Z " fill="#0C0C0C" transform="translate(12,9)"/>
<path d="M0,0 L3,0 L1,8 L-1,8 L-1,2 Z " fill="#E3E3E3" transform="translate(14,18)"/>
</svg>
