<?xml version="1.0" encoding="UTF-8"?>
<svg version="1.1" xmlns="http://www.w3.org/2000/svg" width="28" height="28">
<path d="M0,0 L28,0 L28,28 L0,28 Z " fill="#020202" transform="translate(0,0)"/>
<path d="M0,0 L5,0 L8,3 L8,5 L12,6 L11,15 L9,20 L5,19 L7,11 L5,12 L-1,12 L-3,11 L-3,9 L-5,9 L-4,3 Z " fill="#DCDCDC" transform="translate(10,6)"/>
<path d="M0,0 L4,2 L5,5 L9,6 L8,15 L6,20 L2,19 L4,12 L5,10 L3,9 L2,3 L-1,1 Z " fill="#E6E6E6" transform="translate(13,6)"/>
<path d="M0,0 L6,0 L7,5 L5,6 L-1,6 L-1,1 Z " fill="#0C0C0C" transform="translate(10,9)"/>
</svg>
