<?xml version="1.0" encoding="UTF-8"?>
<svg version="1.1" xmlns="http://www.w3.org/2000/svg" width="28" height="28">
<path d="M0,0 L28,0 L28,28 L0,28 Z " fill="#030303" transform="translate(0,0)"/>
<path d="M0,0 L8,0 L10,1 L9,11 L5,19 L2,19 L6,11 L6,9 L2,11 L-4,11 L-5,10 L-5,4 Z " fill="#DADADA" transform="translate(11,7)"/>
<path d="M0,0 L6,0 L8,1 L7,11 L3,19 L0,19 L4,11 L4,9 L2,8 L4,4 L4,2 L-1,2 Z " fill="#F4F4F4" transform="translate(13,7)"/>
<path d="M0,0 L6,0 L6,3 L0,6 L-3,6 L-2,1 Z " fill="#0B0B0B" transform="translate(11,10)"/>
<path d="M0,0 L1,0 L0,7 L-4,9 Z " fill="#DDDDDD" transform="translate(17,18)"/>
</svg>
