<?xml version="1.0" encoding="UTF-8"?>
<svg version="1.1" xmlns="http://www.w3.org/2000/svg" width="28" height="28">
<path d="M0,0 L28,0 L28,28 L0,28 Z " fill="#020202" transform="translate(0,0)"/>
<path d="M0,0 L5,0 L6,3 L3,8 L-2,13 L-5,19 L-8,20 L-8,17 L-6,17 L-5,13 L-4,11 L-8,8 L-6,3 L-4,1 Z " fill="#D2D2D2" transform="translate(17,7)"/>
<path d="M0,0 L1,3 L-6,11 L-9,17 L-12,18 L-12,15 L-10,15 L-9,11 L-8,9 L-10,8 L-10,6 L-4,4 L0,2 Z " fill="#EDEDED" transform="translate(21,9)"/>
<path d="M0,0 L5,0 L3,4 L1,6 L-3,6 L-2,2 Z " fill="#161616" transform="translate(15,9)"/>
<path d="M0,0 L1,0 L0,7 L-4,9 L-4,6 L-2,6 L-1,2 Z " fill="#D7D7D7" transform="translate(13,18)"/>
</svg>
