<?xml version="1.0" encoding="UTF-8"?>
<svg version="1.1" xmlns="http://www.w3.org/2000/svg" width="28" height="28">
<path d="M0,0 L28,0 L28,28 L0,28 Z " fill="#030303" transform="translate(0,0)"/>
<path d="M0,0 L4,1 L3,6 L-1,10 L-1,13 L-4,13 L-5,17 L-7,20 L-9,20 L-8,16 L-6,11 L-4,10 L-8,9 L-7,4 Z " fill="#EEEEEE" transform="translate(17,6)"/>
<path d="M0,0 L2,3 L-3,8 L-8,9 L-7,4 Z " fill="#C9C9C9" transform="translate(17,6)"/>
<path d="M0,0 L2,0 L3,3 L0,3 L-1,7 L-3,10 L-5,10 L-4,6 L-2,1 Z " fill="#CFCFCF" transform="translate(13,16)"/>
<path d="M0,0 L3,1 L0,5 L-5,5 Z " fill="#111111" transform="translate(16,8)"/>
</svg>
