<?xml version="1.0" encoding="UTF-8"?>
<svg version="1.1" xmlns="http://www.w3.org/2000/svg" width="28" height="28">
<path d="M0,0 L28,0 L28,28 L0,28 Z " fill="#030303" transform="translate(0,0)"/>
<path d="M0,0 L6,0 L7,1 L7,6 L-1,14 L-3,18 L-7,20 L-6,16 L-2,11 L-7,9 L-6,4 Z " fill="#E0E0E0" transform="translate(15,6)"/>
<path d="M0,0 L6,0 L4,4 L0,6 L-5,6 L-3,2 Z " fill="#101010" transform="translate(15,8)"/>
<path d="M0,0 L5,1 L5,2 L-2,4 L-6,8 L-6,4 Z " fill="#C5C5C5" transform="translate(15,6)"/>
</svg>
