<?xml version="1.0" encoding="UTF-8"?>
<svg version="1.1" xmlns="http://www.w3.org/2000/svg" width="28" height="28">
<path d="M0,0 L28,0 L28,28 L0,28 Z " fill="#030303" transform="translate(0,0)"/>
<path d="M0,0 L7,1 L8,3 L8,12 L6,20 L4,19 L4,10 L1,12 L-5,12 L-4,4 L-2,4 Z " fill="#E0E0E0" transform="translate(12,7)"/>
<path d="M0,0 L4,0 L2,4 L4,5 L5,14 L3,17 L2,16 L2,7 L-1,8 L-1,6 L-5,7 L-3,3 Z " fill="#C7C7C7" transform="translate(14,10)"/>
<path d="M0,0 L4,0 L2,4 L-3,7 L-5,7 L-3,3 Z " fill="#1E1E1E" transform="translate(14,10)"/>
<path d="M0,0 L2,1 L2,10 L0,9 L0,6 L-3,5 Z " fill="#F6F6F6" transform="translate(18,9)"/>
</svg>
