<?xml version="1.0" encoding="UTF-8"?>
<svg version="1.1" xmlns="http://www.w3.org/2000/svg" width="28" height="28">
<path d="M0,0 L28,0 L28,28 L0,28 Z " fill="#030303" transform="translate(0,0)"/>
<path d="M0,0 L5,0 L5,6 L0,11 L-8,20 L-10,20 L-8,16 L-6,13 L-4,13 L-4,11 L-8,11 L-8,6 L-4,2 Z " fill="#D5D5D5" transform="translate(17,6)"/>
<path d="M0,0 L4,0 L3,4 L-2,7 L-6,8 L-5,3 Z " fill="#191919" transform="translate(17,8)"/>
<path d="M0,0 L4,0 L4,6 L-1,11 L-4,13 L-3,8 L2,5 L3,2 L0,2 Z " fill="#ECECEC" transform="translate(18,6)"/>
</svg>
