<?xml version="1.0" encoding="UTF-8"?>
<svg version="1.1" xmlns="http://www.w3.org/2000/svg" width="28" height="28">
<path d="M0,0 L28,0 L28,28 L0,28 Z " fill="#020202" transform="translate(0,0)"/>
<path d="M0,0 L7,1 L10,5 L13,14 L13,20 L12,18 L10,18 L9,12 L3,13 L-1,9 L-2,3 Z " fill="#E1E1E1" transform="translate(9,6)"/>
<path d="M0,0 L3,0 L6,9 L6,15 L5,13 L3,13 L2,7 L-4,8 L-7,6 L-7,4 L0,4 Z " fill="#E4E4E4" transform="translate(16,11)"/>
<path d="M0,0 L5,0 L6,1 L6,6 L1,6 L0,5 Z " fill="#1D1D1D" transform="translate(10,9)"/>
</svg>
