<?xml version="1.0" encoding="UTF-8"?>
<svg version="1.1" xmlns="http://www.w3.org/2000/svg" width="28" height="28">
<path d="M0,0 L28,0 L28,28 L0,28 Z " fill="#030303" transform="translate(0,0)"/>
<path d="M0,0 L10,0 L12,4 L6,16 L4,20 L1,20 L2,15 L6,8 L-4,8 L-6,7 L-5,2 Z " fill="#CBCBCB" transform="translate(11,7)"/>
<path d="M0,0 L11,0 L10,2 L7,2 L7,4 L0,5 L-3,4 L-2,1 Z " fill="#101010" transform="translate(10,9)"/>
<path d="M0,0 L2,1 L0,7 L-5,6 L-4,3 L-1,2 Z " fill="#F1F1F1" transform="translate(21,8)"/>
</svg>
