<?xml version="1.0" encoding="UTF-8"?>
<svg version="1.1" xmlns="http://www.w3.org/2000/svg" width="28" height="28">
<path d="M0,0 L28,0 L28,28 L0,28 Z " fill="#020202" transform="translate(0,0)"/>
<path d="M0,0 L11,1 L12,6 L12,15 L14,15 L13,20 L10,19 L7,10 L-2,10 L-4,8 L-3,2 Z " fill="#E8E8E8" transform="translate(8,7)"/>
<path d="M0,0 L5,0 L5,4 L4,5 L6,7 L-3,7 L-5,5 L-4,1 Z " fill="#D1D1D1" transform="translate(9,10)"/>
<path d="M0,0 L5,0 L5,4 L-1,4 Z " fill="#101010" transform="translate(9,10)"/>
</svg>
