<?xml version="1.0" encoding="UTF-8"?>
<svg version="1.1" xmlns="http://www.w3.org/2000/svg" width="28" height="28">
<path d="M0,0 L28,0 L28,28 L0,28 Z " fill="#010101" transform="translate(0,0)"/>
<path d="M0,0 L4,0 L3,20 L0,19 L0,11 L-5,11 L-7,6 L-5,2 Z " fill="#C2C2C2" transform="translate(15,6)"/>
<path d="M0,0 L1,0 L0,20 L-3,19 L-3,11 L-6,10 L-3,9 L-2,4 Z " fill="#D5D5D5" transform="translate(18,6)"/>
<path d="M0,0 L1,4 L0,7 L-5,6 L-3,2 Z " fill="#121212" transform="translate(15,8)"/>
</svg>
