<?xml version="1.0" encoding="UTF-8"?>
<svg version="1.1" xmlns="http://www.w3.org/2000/svg" width="28" height="28">
<path d="M0,0 L28,0 L28,28 L0,28 Z " fill="#020202" transform="translate(0,0)"/>
<path d="M0,0 L4,1 L3,4 L-2,5 L-4,8 L2,5 L4,5 L3,9 L-3,18 L-4,20 L-6,20 L-6,16 L-4,16 L-3,12 L-2,10 L-7,9 L-6,4 Z " fill="#EFEFEF" transform="translate(16,6)"/>
<path d="M0,0 L4,1 L3,4 L-2,5 L-5,8 L-7,8 L-6,4 Z " fill="#CBCBCB" transform="translate(16,6)"/>
<path d="M0,0 L5,1 L0,5 L-3,5 L-1,1 Z " fill="#191919" transform="translate(15,9)"/>
<path d="M0,0 L2,0 L0,6 L-1,8 L-3,8 L-3,4 L-1,4 Z " fill="#D7D7D7" transform="translate(13,18)"/>
</svg>
