<?xml version="1.0" encoding="UTF-8"?>
<svg version="1.1" xmlns="http://www.w3.org/2000/svg" width="28" height="28">
<path d="M0,0 L28,0 L28,28 L0,28 Z " fill="#020202" transform="translate(0,0)"/>
<path d="M0,0 L5,0 L7,3 L7,7 L9,7 L8,12 L6,20 L4,20 L5,11 L7,11 L6,9 L1,13 L-7,14 L-9,13 L-8,7 Z " fill="#B9B9B9" transform="translate(14,6)"/>
<path d="M0,0 L4,1 L4,6 L-1,10 L-8,10 L-8,6 Z " fill="#0E0E0E" transform="translate(15,8)"/>
<path d="M0,0 L5,0 L6,5 L4,3 L0,4 L-8,9 L-6,5 Z " fill="#D5D5D5" transform="translate(14,6)"/>
</svg>
