<?xml version="1.0" encoding="UTF-8"?>
<svg version="1.1" xmlns="http://www.w3.org/2000/svg" width="28" height="28">
<path d="M0,0 L28,0 L28,28 L0,28 Z " fill="#010101" transform="translate(0,0)"/>
<path d="M0,0 L4,1 L4,6 L1,12 L0,19 L-4,20 L-3,11 L-7,12 L-8,7 L-3,2 Z " fill="#F0F0F0" transform="translate(16,6)"/>
<path d="M0,0 L3,1 L1,1 L0,6 L-3,9 L-3,12 L-8,11 L-7,6 L-2,1 Z " fill="#DEDEDE" transform="translate(16,6)"/>
<path d="M0,0 L3,1 L1,1 L0,5 L-4,7 L-4,5 L-6,4 Z " fill="#AAAAAA" transform="translate(16,6)"/>
<path d="M0,0 L2,2 L1,7 L-2,7 L-2,1 Z " fill="#D8D8D8" transform="translate(14,19)"/>
</svg>
