<?xml version="1.0" encoding="UTF-8"?>
<svg version="1.1" xmlns="http://www.w3.org/2000/svg" width="28" height="28">
<path d="M0,0 L28,0 L28,28 L0,28 Z " fill="#020202" transform="translate(0,0)"/>
<path d="M0,0 L6,0 L6,5 L4,8 L1,20 L-2,19 L0,10 L-4,9 L-4,4 Z " fill="#E1E1E1" transform="translate(14,6)"/>
<path d="M0,0 L2,0 L-1,10 L-3,17 L-6,16 L-5,10 L-3,6 L-5,5 Z " fill="#F5F5F5" transform="translate(18,9)"/>
<path d="M0,0 L0,3 L-2,6 L-2,9 L-6,7 L-5,4 Z " fill="#838383" transform="translate(16,8)"/>
<path d="M0,0 L1,2 L3,2 L2,7 L-1,6 Z " fill="#CBCBCB" transform="translate(13,19)"/>
</svg>
