<?xml version="1.0" encoding="UTF-8"?>
<svg version="1.1" xmlns="http://www.w3.org/2000/svg" width="28" height="28">
<path d="M0,0 L28,0 L28,28 L0,28 Z " fill="#030303" transform="translate(0,0)"/>
<path d="M0,0 L5,0 L7,4 L6,13 L4,20 L1,20 L2,15 L3,12 L-3,12 L-5,9 L-5,3 Z " fill="#F3F3F3" transform="translate(13,6)"/>
<path d="M0,0 L5,0 L4,5 L3,7 L-2,7 L-3,2 Z " fill="#141414" transform="translate(13,9)"/>
<path d="M0,0 L5,0 L4,3 L-2,5 L-4,7 L-5,3 Z " fill="#C7C7C7" transform="translate(13,6)"/>
<path d="M0,0 L2,0 L1,7 L-2,7 L-1,2 Z " fill="#D9D9D9" transform="translate(16,19)"/>
</svg>
