<?xml version="1.0" encoding="UTF-8"?>
<svg version="1.1" xmlns="http://www.w3.org/2000/svg" width="28" height="28">
<path d="M0,0 L28,0 L28,28 L0,28 Z " fill="#010101" transform="translate(0,0)"/>
<path d="M0,0 L5,1 L8,2 L4,18 L8,19 L3,20 L2,19 L2,11 L2,9 L-2,10 L-3,3 Z " fill="#E3E3E3" transform="translate(12,6)"/>
<path d="M0,0 L4,1 L3,6 L2,4 L-5,6 L-4,2 Z " fill="#6E6E6E" transform="translate(16,7)"/>
<path d="M0,0 L1,0 L2,7 L6,8 L1,9 L0,8 Z " fill="#BCBCBC" transform="translate(14,17)"/>
</svg>
