<?xml version="1.0" encoding="UTF-8"?>
<svg version="1.1" xmlns="http://www.w3.org/2000/svg" width="28" height="28">
<path d="M0,0 L28,0 L28,28 L0,28 Z " fill="#020202" transform="translate(0,0)"/>
<path d="M0,0 L8,0 L9,3 L4,13 L-1,18 L-5,20 L-3,15 L1,10 L-4,10 L-5,5 Z " fill="#EBEBEB" transform="translate(13,7)"/>
<path d="M0,0 L4,1 L6,2 L5,6 L0,10 L-5,9 L-4,3 Z " fill="#D6D6D6" transform="translate(13,7)"/>
<path d="M0,0 L6,0 L5,3 L-2,4 Z " fill="#111111" transform="translate(13,10)"/>
</svg>
