<?xml version="1.0" encoding="UTF-8"?>
<svg version="1.1" xmlns="http://www.w3.org/2000/svg" width="28" height="28">
<path d="M0,0 L28,0 L28,28 L0,28 Z " fill="#020202" transform="translate(0,0)"/>
<path d="M0,0 L4,0 L5,2 L9,3 L7,12 L4,20 L2,20 L3,13 L5,8 L-2,9 L-4,7 L-3,2 Z " fill="#E8E8E8" transform="translate(11,7)"/>
<path d="M0,0 L1,2 L0,4 L4,3 L4,6 L-1,6 L-2,5 L-4,7 L-3,2 Z " fill="#878787" transform="translate(11,7)"/>
<path d="M0,0 L3,0 L4,2 L8,3 L4,5 L3,3 L-1,4 Z " fill="#D4D4D4" transform="translate(12,7)"/>
</svg>
