<?xml version="1.0" encoding="UTF-8"?>
<svg version="1.1" xmlns="http://www.w3.org/2000/svg" width="28" height="28">
<path d="M0,0 L28,0 L28,28 L0,28 Z " fill="#030303" transform="translate(0,0)"/>
<path d="M0,0 L7,0 L9,2 L10,11 L10,20 L7,19 L4,11 L-2,12 L-6,10 L-7,5 L-3,1 Z " fill="#DFDFDF" transform="translate(12,6)"/>
<path d="M0,0 L1,0 L3,6 L3,15 L0,14 L-3,4 Z " fill="#F1F1F1" transform="translate(19,11)"/>
<path d="M0,0 L5,1 L3,5 L2,6 L-3,6 L-3,2 Z " fill="#131313" transform="translate(13,9)"/>
</svg>
