<?xml version="1.0" encoding="UTF-8"?>
<svg version="1.1" xmlns="http://www.w3.org/2000/svg" width="28" height="28">
<path d="M0,0 L28,0 L28,28 L0,28 Z " fill="#020202" transform="translate(0,0)"/>
<path d="M0,0 L7,1 L9,2 L9,4 L12,4 L10,9 L8,9 L6,14 L5,20 L2,19 L3,12 L5,9 L-2,10 L-5,8 L-4,4 Z " fill="#DDDDDD" transform="translate(11,7)"/>
<path d="M0,0 L6,1 L6,4 L1,6 L-3,5 L-1,1 Z " fill="#121212" transform="translate(12,9)"/>
<path d="M0,0 L3,1 L1,1 L-1,7 L-4,9 L-5,5 Z " fill="#C0C0C0" transform="translate(11,7)"/>
</svg>
