<?xml version="1.0" encoding="UTF-8"?>
<svg version="1.1" xmlns="http://www.w3.org/2000/svg" width="28" height="28">
<path d="M0,0 L28,0 L28,28 L0,28 Z " fill="#020202" transform="translate(0,0)"/>
<path d="M0,0 L4,0 L4,9 L0,18 L-4,20 L-2,15 L0,10 L-8,11 L-7,5 Z " fill="#F0F0F0" transform="translate(16,6)"/>
<path d="M0,0 L2,1 L3,1 L7,0 L2,5 L-3,6 L-1,1 Z " fill="#8F8F8F" transform="translate(11,9)"/>
<path d="M0,0 L3,0 L2,5 L-1,8 L-3,8 L-1,3 Z " fill="#D7D7D7" transform="translate(15,18)"/>
</svg>
