<?xml version="1.0" encoding="UTF-8"?>
<svg version="1.1" xmlns="http://www.w3.org/2000/svg" width="28" height="28">
<path d="M0,0 L28,0 L28,28 L0,28 Z " fill="#020202" transform="translate(0,0)"/>
<path d="M0,0 L7,0 L11,3 L15,4 L15,9 L17,9 L18,20 L14,18 L13,11 L1,8 L-2,5 L-1,1 Z " fill="#DADADA" transform="translate(5,7)"/>
<path d="M0,0 L7,1 L11,6 L2,5 L-1,3 Z " fill="#0D0D0D" transform="translate(6,9)"/>
<path d="M0,0 L1,3 L3,3 L4,14 L0,12 L-1,5 L-3,4 L-1,3 Z " fill="#CECECE" transform="translate(19,13)"/>
<path d="M0,0 L1,3 L3,3 L1,7 L-1,7 L-1,5 L-3,4 L-1,3 Z " fill="#B5B5B5" transform="translate(19,13)"/>
</svg>
