<?xml version="1.0" encoding="UTF-8"?>
<svg version="1.1" xmlns="http://www.w3.org/2000/svg" width="28" height="28">
<path d="M0,0 L28,0 L28,28 L0,28 Z " fill="#020202" transform="translate(0,0)"/>
<path d="M0,0 L6,0 L8,2 L7,7 L4,18 L0,20 L2,10 L3,8 L-5,8 L-6,4 Z " fill="#D8D8D8" transform="translate(13,7)"/>
<path d="M0,0 L1,4 L-2,15 L-6,17 L-4,7 L-2,2 Z " fill="#EAEAEA" transform="translate(19,10)"/>
<path d="M0,0 L7,1 L6,4 L-1,5 L-4,5 L-2,1 Z " fill="#D3D3D3" transform="translate(11,8)"/>
<path d="M0,0 L3,1 L0,4 L-4,4 L-3,1 Z " fill="#1F1F1F" transform="translate(15,9)"/>
<path d="M0,0 L1,2 L6,2 L6,4 L-1,4 Z " fill="#F1F1F1" transform="translate(9,11)"/>
</svg>
