<?xml version="1.0" encoding="UTF-8"?>
<svg version="1.1" xmlns="http://www.w3.org/2000/svg" width="28" height="28">
<path d="M0,0 L28,0 L28,28 L0,28 Z " fill="#030303" transform="translate(0,0)"/>
<path d="M0,0 L7,0 L7,4 L3,20 L0,20 L1,11 L3,6 L-2,7 L-4,6 L-3,1 Z " fill="#E9E9E9" transform="translate(12,7)"/>
<path d="M0,0 L1,4 L-2,17 L-5,17 L-4,8 L-2,3 L-5,2 Z " fill="#E9E9E9" transform="translate(17,10)"/>
<path d="M0,0 L3,1 L2,4 L-6,5 L-6,3 L-3,3 L-3,1 Z " fill="#AFAFAF" transform="translate(17,7)"/>
</svg>
