<?xml version="1.0" encoding="UTF-8"?>
<svg version="1.1" xmlns="http://www.w3.org/2000/svg" width="28" height="28">
<path d="M0,0 L28,0 L28,28 L0,28 Z " fill="#010101" transform="translate(0,0)"/>
<path d="M0,0 L6,0 L10,5 L11,7 L11,20 L8,20 L7,10 L4,13 L-1,12 L-4,7 L-3,2 Z " fill="#DCDCDC" transform="translate(10,7)"/>
<path d="M0,0 L5,1 L8,6 L8,19 L5,19 L4,9 L1,9 Z " fill="#EDEDED" transform="translate(13,8)"/>
<path d="M0,0 L2,0 L1,7 L-2,5 L-1,1 Z " fill="#2B2B2B" transform="translate(12,10)"/>
</svg>
