<?xml version="1.0" encoding="UTF-8"?>
<svg version="1.1" xmlns="http://www.w3.org/2000/svg" width="28" height="28">
<path d="M0,0 L28,0 L28,28 L0,28 Z " fill="#020202" transform="translate(0,0)"/>
<path d="M0,0 L5,1 L6,6 L2,19 L0,20 L0,13 L1,9 L-2,11 L-6,10 L-5,5 Z " fill="#E2E2E2" transform="translate(14,7)"/>
<path d="M0,0 L2,0 L0,4 L0,7 L-4,9 L-7,9 L-6,5 Z " fill="#C4C4C4" transform="translate(16,9)"/>
<path d="M0,0 L2,0 L1,3 L-3,6 L-5,6 L-3,2 Z " fill="#232323" transform="translate(16,9)"/>
</svg>
