<?xml version="1.0" encoding="UTF-8"?>
<svg version="1.1" xmlns="http://www.w3.org/2000/svg" width="28" height="28">
<path d="M0,0 L28,0 L28,28 L0,28 Z " fill="#010101" transform="translate(0,0)"/>
<path d="M0,0 L2,0 L2,2 L-1,2 L-1,4 L-5,8 L-1,6 L2,3 L1,11 L-4,20 L-6,20 L-3,10 L-7,9 L-6,4 L-3,1 Z " fill="#DDDDDD" transform="translate(17,6)"/>
<path d="M0,0 L2,0 L3,6 L0,11 L-2,11 L0,1 Z " fill="#C4C4C4" transform="translate(13,15)"/>
<path d="M0,0 L2,0 L0,5 L-4,6 L-2,2 L0,2 Z " fill="#232323" transform="translate(16,8)"/>
</svg>
