<?xml version="1.0" encoding="UTF-8"?>
<svg version="1.1" xmlns="http://www.w3.org/2000/svg" width="28" height="28">
<path d="M0,0 L28,0 L28,28 L0,28 Z " fill="#020202" transform="translate(0,0)"/>
<path d="M0,0 L5,0 L7,2 L6,8 L0,20 L-2,20 L-1,15 L2,8 L-3,7 L-2,2 Z " fill="#828282" transform="translate(13,7)"/>
<path d="M0,0 L1,4 L-5,16 L-7,16 L-6,11 L-3,4 L-1,4 Z " fill="#DFDFDF" transform="translate(18,11)"/>
<path d="M0,0 L5,0 L6,2 L0,4 L-1,6 L2,7 L-3,7 L-2,2 Z " fill="#DFDFDF" transform="translate(13,7)"/>
</svg>
