<?xml version="1.0" encoding="UTF-8"?>
<svg version="1.1" xmlns="http://www.w3.org/2000/svg" width="28" height="28">
<path d="M0,0 L28,0 L28,28 L0,28 Z " fill="#040404" transform="translate(0,0)"/>
<path d="M0,0 L7,1 L9,3 L8,20 L5,19 L6,13 L2,15 L-4,15 L-6,11 L-6,6 L-2,1 Z " fill="#EFEFEF" transform="translate(12,6)"/>
<path d="M0,0 L4,0 L5,6 L1,11 L-4,10 L-4,4 Z " fill="#0E0E0E" transform="translate(13,8)"/>
<path d="M0,0 L2,0 L2,8 L7,7 L9,6 L10,9 L6,11 L0,11 L-2,7 L-2,2 Z " fill="#D4D4D4" transform="translate(8,10)"/>
</svg>
