<?xml version="1.0" encoding="UTF-8"?>
<svg version="1.1" xmlns="http://www.w3.org/2000/svg" width="28" height="28">
<path d="M0,0 L28,0 L28,28 L0,28 Z " fill="#010101" transform="translate(0,0)"/>
<path d="M0,0 L7,0 L10,3 L9,7 L5,15 L2,20 L-1,20 L0,16 L4,11 L-3,9 L-4,8 L-4,3 Z " fill="#CDCDCD" transform="translate(11,6)"/>
<path d="M0,0 L2,2 L-2,10 L-5,15 L-8,15 L-7,11 L-2,4 L-4,3 Z " fill="#DCDCDC" transform="translate(18,11)"/>
<path d="M0,0 L6,0 L8,3 L4,6 L-1,6 L-2,2 Z " fill="#0A0A0A" transform="translate(11,8)"/>
</svg>
