<?xml version="1.0" encoding="UTF-8"?>
<svg version="1.1" xmlns="http://www.w3.org/2000/svg" width="28" height="28">
<path d="M0,0 L28,0 L28,28 L0,28 Z " fill="#020202" transform="translate(0,0)"/>
<path d="M0,0 L6,0 L7,2 L-2,5 L-3,7 L4,6 L8,4 L6,9 L-3,20 L-6,20 L-4,16 L0,11 L-5,8 L-4,3 Z " fill="#C6C6C6" transform="translate(14,6)"/>
<path d="M0,0 L6,0 L7,2 L-2,5 L-3,7 L2,8 L2,9 L-4,9 L-5,4 Z " fill="#EBEBEB" transform="translate(14,6)"/>
<path d="M0,0 L2,0 L1,4 L-3,9 L-6,9 L-4,5 Z " fill="#DCDCDC" transform="translate(14,17)"/>
</svg>
