<?xml version="1.0" encoding="UTF-8"?>
<svg version="1.1" xmlns="http://www.w3.org/2000/svg" width="28" height="28">
<path d="M0,0 L28,0 L28,28 L0,28 Z " fill="#020202" transform="translate(0,0)"/>
<path d="M0,0 L5,0 L6,4 L4,5 L4,2 L-3,4 L-3,9 L1,10 L7,6 L6,12 L1,20 L-2,20 L0,16 L1,13 L-4,12 L-6,10 L-6,5 Z " fill="#DEDEDE" transform="translate(13,6)"/>
<path d="M0,0 L3,0 L5,2 L4,6 L0,9 L-4,8 L-5,4 L-2,1 Z " fill="#1A1A1A" transform="translate(14,8)"/>
<path d="M0,0 L3,1 L-1,7 L-4,7 L-2,3 Z " fill="#CECECE" transform="translate(15,19)"/>
<path d="M0,0 L1,4 L-1,7 L-3,6 L-3,3 Z " fill="#FBFBFB" transform="translate(19,12)"/>
</svg>
