<?xml version="1.0" encoding="UTF-8"?>
<svg version="1.1" xmlns="http://www.w3.org/2000/svg" width="28" height="28">
<path d="M0,0 L28,0 L28,28 L0,28 Z " fill="#020202" transform="translate(0,0)"/>
<path d="M0,0 L7,0 L9,6 L7,11 L1,20 L-1,20 L1,15 L1,13 L-5,13 L-7,11 L-7,6 Z " fill="#DFDFDF" transform="translate(13,6)"/>
<path d="M0,0 L3,0 L2,4 L0,4 L0,8 L-7,9 L-8,5 L-3,1 Z " fill="#0E0E0E" transform="translate(16,8)"/>
<path d="M0,0 L3,0 L3,3 L-3,6 L-7,7 L-2,1 Z " fill="#C7C7C7" transform="translate(13,6)"/>
</svg>
