<?xml version="1.0" encoding="UTF-8"?>
<svg version="1.1" xmlns="http://www.w3.org/2000/svg" width="28" height="28">
<path d="M0,0 L28,0 L28,28 L0,28 Z " fill="#020202" transform="translate(0,0)"/>
<path d="M0,0 L6,0 L10,4 L9,10 L2,20 L1,18 L3,12 L-4,10 L-4,4 Z " fill="#E8E8E8" transform="translate(11,6)"/>
<path d="M0,0 L7,1 L6,5 L2,7 L-4,7 L-3,2 Z " fill="#131313" transform="translate(12,8)"/>
<path d="M0,0 Z M-2,1 L0,2 L-4,6 L-9,4 L-9,3 Z " fill="#C1C1C1" transform="translate(18,12)"/>
</svg>
