<?xml version="1.0" encoding="UTF-8"?>
<svg version="1.1" xmlns="http://www.w3.org/2000/svg" width="28" height="28">
<path d="M0,0 L28,0 L28,28 L0,28 Z " fill="#030303" transform="translate(0,0)"/>
<path d="M0,0 L6,0 L8,2 L7,11 L0,20 L-2,19 L3,11 L-3,10 L-4,9 L-3,2 Z " fill="#C8C8C8" transform="translate(12,6)"/>
<path d="M0,0 L5,0 L4,5 L2,7 L-3,6 L-2,1 Z " fill="#080808" transform="translate(13,8)"/>
<path d="M0,0 L1,4 L-6,13 L-8,12 L-3,4 L-3,1 Z " fill="#DFDFDF" transform="translate(18,13)"/>
</svg>
