<?xml version="1.0" encoding="UTF-8"?>
<svg version="1.1" xmlns="http://www.w3.org/2000/svg" width="28" height="28">
<path d="M0,0 L28,0 L28,28 L0,28 Z " fill="#030303" transform="translate(0,0)"/>
<path d="M0,0 L7,0 L9,1 L6,20 L3,20 L3,11 L-4,11 L-5,10 L-5,3 Z " fill="#E6E6E6" transform="translate(12,7)"/>
<path d="M0,0 L3,1 L0,20 L-3,20 L-3,11 L-2,9 L-4,8 L-2,6 L-2,1 Z " fill="#F2F2F2" transform="translate(18,7)"/>
<path d="M0,0 L5,0 L4,4 L-2,5 L-1,1 Z " fill="#151515" transform="translate(12,10)"/>
</svg>
