<?xml version="1.0" encoding="UTF-8"?>
<svg version="1.1" xmlns="http://www.w3.org/2000/svg" width="28" height="28">
<path d="M0,0 L28,0 L28,28 L0,28 Z " fill="#020202" transform="translate(0,0)"/>
<path d="M0,0 L5,1 L7,3 L7,20 L4,20 L4,11 L-3,12 L-4,10 L-4,4 Z " fill="#F6F6F6" transform="translate(12,6)"/>
<path d="M0,0 L4,1 L0,3 L3,4 L3,8 L1,8 L1,12 L-3,12 L-4,10 L-4,4 Z " fill="#E9E9E9" transform="translate(12,6)"/>
<path d="M0,0 L3,0 L3,4 L-1,5 Z " fill="#292929" transform="translate(12,10)"/>
</svg>
