<?xml version="1.0" encoding="UTF-8"?>
<svg version="1.1" xmlns="http://www.w3.org/2000/svg" width="28" height="28">
<path d="M0,0 L28,0 L28,28 L0,28 Z " fill="#020202" transform="translate(0,0)"/>
<path d="M0,0 L6,0 L8,6 L2,11 L-3,16 L-7,20 L-10,20 L-9,16 L-4,12 L-7,9 L-7,4 Z " fill="#D0D0D0" transform="translate(16,6)"/>
<path d="M0,0 L1,3 L8,2 L7,6 L2,11 L-2,15 L-5,15 L-4,11 L1,7 L-1,5 Z " fill="#E2E2E2" transform="translate(11,11)"/>
<path d="M0,0 L6,0 L4,4 L-3,5 L-1,1 Z " fill="#1D1D1D" transform="translate(15,9)"/>
</svg>
