<?xml version="1.0" encoding="UTF-8"?>
<svg version="1.1" xmlns="http://www.w3.org/2000/svg" width="28" height="28">
<path d="M0,0 L28,0 L28,28 L0,28 Z " fill="#010101" transform="translate(0,0)"/>
<path d="M0,0 L4,1 L6,7 L6,14 L4,20 L2,19 L2,14 L-4,16 L-8,13 L-7,7 L-4,2 Z " fill="#E3E3E3" transform="translate(14,5)"/>
<path d="M0,0 L1,0 L1,9 L-2,11 L-6,11 L-5,5 Z " fill="#040404" transform="translate(15,7)"/>
<path d="M0,0 L3,1 L1,7 L7,6 L8,8 L2,10 L-2,7 L-1,1 Z " fill="#C6C6C6" transform="translate(8,11)"/>
</svg>
