<?xml version="1.0" encoding="UTF-8"?>
<svg version="1.1" xmlns="http://www.w3.org/2000/svg" width="28" height="28">
<path d="M0,0 L28,0 L28,28 L0,28 Z " fill="#020202" transform="translate(0,0)"/>
<path d="M0,0 L5,0 L7,2 L5,13 L3,20 L1,20 L2,9 L-5,9 L-5,4 Z " fill="#CECECE" transform="translate(13,7)"/>
<path d="M0,0 L1,0 L1,8 L-1,15 L-3,15 L-2,2 Z " fill="#DEDEDE" transform="translate(17,12)"/>
<path d="M0,0 L2,2 L1,5 L4,7 L-2,7 L-2,2 Z " fill="#F1F1F1" transform="translate(10,9)"/>
<path d="M0,0 L3,0 L1,4 L-3,4 L-2,1 Z " fill="#0F0F0F" transform="translate(13,10)"/>
</svg>
