<?xml version="1.0" encoding="UTF-8"?>
<svg version="1.1" xmlns="http://www.w3.org/2000/svg" width="28" height="28">
<path d="M0,0 L28,0 L28,28 L0,28 Z " fill="#040404" transform="translate(0,0)"/>
<path d="M0,0 L3,0 L3,4 L1,4 L-1,10 L-2,20 L-5,20 L-5,11 L-15,12 L-17,11 L-17,5 L-12,1 L-2,1 L0,2 Z " fill="#DADADA" transform="translate(21,7)"/>
<path d="M0,0 L3,0 L3,4 L1,4 L-1,10 L-2,20 L-5,20 L-5,11 L-7,9 L-7,7 L-3,6 L-3,4 L-9,3 L-8,1 L-2,1 L0,2 Z " fill="#EAEAEA" transform="translate(21,7)"/>
<path d="M0,0 L7,0 L7,2 L0,5 L-4,5 L-2,1 Z " fill="#101010" transform="translate(11,11)"/>
</svg>
