<?xml version="1.0" encoding="UTF-8"?>
<svg version="1.1" xmlns="http://www.w3.org/2000/svg" width="28" height="28">
<path d="M0,0 L28,0 L28,28 L0,28 Z " fill="#020202" transform="translate(0,0)"/>
<path d="M0,0 L6,0 L11,2 L8,8 L2,18 L-1,20 L0,15 L4,8 L-3,8 L-5,6 L-4,2 Z " fill="#ECECEC" transform="translate(12,7)"/>
<path d="M0,0 L6,0 L8,2 L7,5 L5,6 L-2,6 L-3,8 L-5,6 L-4,2 Z " fill="#E2E2E2" transform="translate(12,7)"/>
<path d="M0,0 L5,0 L6,3 L4,4 L-3,4 L-2,1 Z " fill="#1A1A1A" transform="translate(13,9)"/>
</svg>
