<?xml version="1.0" encoding="UTF-8"?>
<svg version="1.1" xmlns="http://www.w3.org/2000/svg" width="28" height="28">
<path d="M0,0 L28,0 L28,28 L0,28 Z " fill="#010101" transform="translate(0,0)"/>
<path d="M0,0 L5,1 L6,7 L3,12 L3,20 L1,20 L0,18 L0,12 L1,10 L-3,10 L-4,6 Z " fill="#D1D1D1" transform="translate(13,6)"/>
<path d="M0,0 L3,1 L2,6 L-2,7 L-3,4 L-2,1 Z " fill="#0D0D0D" transform="translate(14,8)"/>
<path d="M0,0 L5,1 L6,7 L3,9 L3,3 Z " fill="#B2B2B2" transform="translate(13,6)"/>
</svg>
