<?xml version="1.0" encoding="UTF-8"?>
<svg version="1.1" xmlns="http://www.w3.org/2000/svg" width="28" height="28">
<path d="M0,0 L28,0 L28,28 L0,28 Z " fill="#030303" transform="translate(0,0)"/>
<path d="M0,0 L4,1 L0,3 L-2,5 L5,3 L4,11 L2,20 L0,20 L1,10 L2,7 L-4,8 L-5,5 Z " fill="#E6E6E6" transform="translate(14,6)"/>
<path d="M0,0 L1,4 L-1,13 L-3,13 L-2,3 Z " fill="#E9E9E9" transform="translate(17,13)"/>
<path d="M0,0 L2,0 L2,4 L-4,5 L-6,3 Z " fill="#B8B8B8" transform="translate(17,9)"/>
</svg>
