<?xml version="1.0" encoding="UTF-8"?>
<svg version="1.1" xmlns="http://www.w3.org/2000/svg" width="28" height="28">
<path d="M0,0 L28,0 L28,28 L0,28 Z " fill="#010101" transform="translate(0,0)"/>
<path d="M0,0 L5,0 L4,10 L1,20 L-1,20 L-1,14 L1,9 L-4,8 L-6,6 L-4,6 L-2,2 Z " fill="#CBCBCB" transform="translate(14,6)"/>
<path d="M0,0 L1,0 L1,7 L-1,14 L-3,14 L-3,8 Z " fill="#DCDCDC" transform="translate(16,12)"/>
<path d="M0,0 L2,1 L0,6 L-4,7 L-3,2 Z " fill="#1C1C1C" transform="translate(16,7)"/>
</svg>
