<?xml version="1.0" encoding="UTF-8"?>
<svg version="1.1" xmlns="http://www.w3.org/2000/svg" width="28" height="28">
<path d="M0,0 L28,0 L28,28 L0,28 Z " fill="#020202" transform="translate(0,0)"/>
<path d="M0,0 L3,1 L3,5 L8,3 L6,13 L3,19 L1,19 L2,14 L3,9 L-4,10 L-6,8 L-5,4 L-4,7 L1,6 Z " fill="#E1E1E1" transform="translate(13,7)"/>
<path d="M0,0 L2,1 L3,7 L2,8 L-3,8 L-4,6 L-6,8 L-5,4 Z " fill="#C6C6C6" transform="translate(12,6)"/>
<path d="M0,0 L3,0 L4,4 L-1,5 Z " fill="#0A0A0A" transform="translate(11,9)"/>
</svg>
