<?xml version="1.0" encoding="UTF-8"?>
<svg version="1.1" xmlns="http://www.w3.org/2000/svg" width="28" height="28">
<path d="M0,0 L28,0 L28,28 L0,28 Z " fill="#010101" transform="translate(0,0)"/>
<path d="M0,0 L1,0 L2,6 L2,20 L0,20 L-1,18 L-1,10 L-3,9 L-3,11 L-8,13 L-10,10 L-10,3 L-8,1 Z " fill="#C3C3C3" transform="translate(17,7)"/>
<path d="M0,0 L1,0 L2,6 L2,20 L0,20 L-1,18 L-1,10 L0,8 L-2,8 L-2,4 L-7,3 L-7,2 L0,2 Z " fill="#FAFAFA" transform="translate(17,7)"/>
<path d="M0,0 L4,1 L3,5 L0,8 L-2,7 L-2,1 Z " fill="#131313" transform="translate(11,10)"/>
<path d="M0,0 L1,0 L1,14 L-1,14 L-2,12 L-2,4 Z " fill="#BFBFBF" transform="translate(18,13)"/>
<path d="M0,0 L8,0 L8,1 L2,2 L-2,7 L-2,2 Z " fill="#DADADA" transform="translate(9,8)"/>
</svg>
