<?xml version="1.0" encoding="UTF-8"?>
<svg version="1.1" xmlns="http://www.w3.org/2000/svg" width="28" height="28">
<path d="M0,0 L28,0 L28,28 L0,28 Z " fill="#030303" transform="translate(0,0)"/>
<path d="M0,0 L5,1 L9,3 L7,7 L1,15 L-2,20 L-4,20 L-2,14 L0,11 L-3,9 L-3,3 Z " fill="#DCDCDC" transform="translate(13,6)"/>
<path d="M0,0 L2,0 L0,5 L-4,10 L-7,15 L-9,15 L-7,9 L-5,5 L-5,3 Z " fill="#EBEBEB" transform="translate(18,11)"/>
<path d="M0,0 L4,1 L3,5 L-2,6 L-1,1 Z " fill="#101010" transform="translate(14,8)"/>
</svg>
