<?xml version="1.0" encoding="UTF-8"?>
<svg version="1.1" xmlns="http://www.w3.org/2000/svg" width="28" height="28">
<path d="M0,0 L28,0 L28,28 L0,28 Z " fill="#010101" transform="translate(0,0)"/>
<path d="M0,0 L4,0 L5,4 L0,13 L-3,20 L-5,20 L-4,14 L-2,10 L-7,9 L-7,4 L-3,1 Z " fill="#E6E6E6" transform="translate(16,7)"/>
<path d="M0,0 L2,0 L1,3 L-3,7 L-7,6 L-7,1 L-5,3 Z " fill="#767676" transform="translate(16,10)"/>
<path d="M0,0 L1,4 L-1,7 L-3,7 L-2,1 Z " fill="#CCCCCC" transform="translate(14,20)"/>
</svg>
