<?xml version="1.0" encoding="UTF-8"?>
<svg version="1.1" xmlns="http://www.w3.org/2000/svg" width="28" height="28">
<path d="M0,0 L28,0 L28,28 L0,28 Z " fill="#020202" transform="translate(0,0)"/>
<path d="M0,0 L8,0 L9,3 L6,12 L5,19 L2,20 L1,15 L2,13 L-2,12 L-4,10 L-4,4 Z " fill="#DFDFDF" transform="translate(12,6)"/>
<path d="M0,0 L6,0 L4,4 L-2,5 L-1,1 Z " fill="#0B0B0B" transform="translate(12,10)"/>
<path d="M0,0 L6,0 L7,3 L-3,4 Z " fill="#F2F2F2" transform="translate(14,6)"/>
<path d="M0,0 L2,1 L-2,7 L-4,10 L-4,4 Z " fill="#BFBFBF" transform="translate(12,6)"/>
</svg>
