<?xml version="1.0" encoding="UTF-8"?>
<svg version="1.1" xmlns="http://www.w3.org/2000/svg" width="28" height="28">
<path d="M0,0 L28,0 L28,28 L0,28 Z " fill="#030303" transform="translate(0,0)"/>
<path d="M0,0 L6,0 L9,2 L8,7 L4,19 L2,20 L3,12 L4,9 L2,10 L-5,10 L-4,3 Z " fill="#272727" transform="translate(12,7)"/>
<path d="M0,0 L6,0 L6,3 L1,4 L-2,7 L1,8 L1,10 L-5,10 L-4,3 Z " fill="#E2E2E2" transform="translate(12,7)"/>
<path d="M0,0 L2,0 L1,4 L-3,16 L-5,17 L-4,9 L-2,5 L-5,4 Z " fill="#E6E6E6" transform="translate(19,10)"/>
</svg>
