<?xml version="1.0" encoding="UTF-8"?>
<svg version="1.1" xmlns="http://www.w3.org/2000/svg" width="28" height="28">
<path d="M0,0 L28,0 L28,28 L0,28 Z " fill="#030303" transform="translate(0,0)"/>
<path d="M0,0 L3,0 L4,9 L0,17 L-1,20 L-4,20 L-3,11 L-12,11 L-12,5 L-7,1 Z " fill="#232323" transform="translate(18,6)"/>
<path d="M0,0 L2,0 L2,3 L-9,5 L-8,8 L-5,11 L-12,11 L-12,5 L-7,1 Z " fill="#E4E4E4" transform="translate(18,6)"/>
<path d="M0,0 L1,4 L-3,12 L-4,15 L-7,15 L-6,8 L-3,3 L-1,3 Z " fill="#E7E7E7" transform="translate(21,11)"/>
<path d="M0,0 L2,0 L2,3 L-6,3 L-5,1 Z " fill="#FAFAFA" transform="translate(18,6)"/>
</svg>
