<?xml version="1.0" encoding="UTF-8"?>
<svg version="1.1" xmlns="http://www.w3.org/2000/svg" width="28" height="28">
<path d="M0,0 L28,0 L28,28 L0,28 Z " fill="#010101" transform="translate(0,0)"/>
<path d="M0,0 L6,1 L7,2 L6,11 L2,20 L0,20 L1,15 L3,10 L-2,9 L-3,4 Z " fill="#C9C9C9" transform="translate(12,6)"/>
<path d="M0,0 L3,0 L4,5 L3,7 L-2,6 L-1,1 Z " fill="#121212" transform="translate(13,8)"/>
<path d="M0,0 L5,0 L4,6 L2,11 L0,11 L1,6 L3,1 Z " fill="#E4E4E4" transform="translate(12,15)"/>
</svg>
