<?xml version="1.0" encoding="UTF-8"?>
<svg version="1.1" xmlns="http://www.w3.org/2000/svg" width="28" height="28">
<path d="M0,0 L28,0 L28,28 L0,28 Z " fill="#020202" transform="translate(0,0)"/>
<path d="M0,0 L4,1 L5,2 L7,13 L8,20 L5,20 L4,17 L4,10 L-2,12 L-6,9 L-5,4 Z " fill="#DBDBDB" transform="translate(13,6)"/>
<path d="M0,0 L4,1 L5,2 L5,8 L1,9 L1,3 L-4,4 Z " fill="#DDDDDD" transform="translate(13,6)"/>
<path d="M0,0 L1,0 L1,6 L-3,8 L-4,3 Z " fill="#0F0F0F" transform="translate(14,8)"/>
<path d="M0,0 L3,1 L3,6 L0,6 L-1,1 Z " fill="#C5C5C5" transform="translate(8,10)"/>
</svg>
