<?xml version="1.0" encoding="UTF-8"?>
<svg version="1.1" xmlns="http://www.w3.org/2000/svg" width="28" height="28">
<path d="M0,0 L28,0 L28,28 L0,28 Z " fill="#050505" transform="translate(0,0)"/>
<path d="M0,0 L5,0 L6,1 L6,12 L4,13 L4,11 L-1,14 L-4,17 L-11,18 L-11,13 L-9,13 L-8,9 L-5,4 Z " fill="#E7E7E7" transform="translate(16,4)"/>
<path d="M0,0 L2,1 L-1,6 L-5,10 L-7,10 L-5,5 Z " fill="#1D1D1D" transform="translate(17,8)"/>
<path d="M0,0 L3,0 L2,6 L-1,6 L-1,1 Z " fill="#F0F0F0" transform="translate(17,18)"/>
</svg>
