<?xml version="1.0" encoding="UTF-8"?>
<svg version="1.1" xmlns="http://www.w3.org/2000/svg" width="28" height="28">
<path d="M0,0 L28,0 L28,28 L0,28 Z " fill="#020202" transform="translate(0,0)"/>
<path d="M0,0 L7,0 L8,4 L3,12 L-1,20 L-3,20 L-2,15 L0,10 L-4,8 L-4,3 Z " fill="#ECECEC" transform="translate(13,7)"/>
<path d="M0,0 L7,0 L8,4 L3,5 L2,8 L-2,7 L-2,2 Z " fill="#D6D6D6" transform="translate(13,7)"/>
<path d="M0,0 L2,1 L-1,6 L-5,5 L-3,1 Z " fill="#191919" transform="translate(16,9)"/>
</svg>
