<?xml version="1.0" encoding="UTF-8"?>
<svg version="1.1" xmlns="http://www.w3.org/2000/svg" width="28" height="28">
<path d="M0,0 L28,0 L28,28 L0,28 Z " fill="#030303" transform="translate(0,0)"/>
<path d="M0,0 L7,0 L7,2 L10,3 L9,9 L7,9 L5,19 L3,20 L4,11 L-3,14 L-7,13 L-8,11 L-8,5 L-4,1 Z " fill="#E1E1E1" transform="translate(13,7)"/>
<path d="M0,0 L8,0 L9,4 L5,6 L5,8 L-3,8 L-4,6 L-2,2 L0,2 Z " fill="#0A0A0A" transform="translate(10,10)"/>
<path d="M0,0 L2,4 L2,5 L10,6 L8,8 L2,9 L0,6 Z " fill="#AEAEAE" transform="translate(5,12)"/>
<path d="M0,0 L5,0 L5,2 L8,3 L7,9 L3,4 L0,1 Z " fill="#BDBDBD" transform="translate(15,7)"/>
</svg>
