<?xml version="1.0" encoding="UTF-8"?>
<svg version="1.1" xmlns="http://www.w3.org/2000/svg" width="28" height="28">
<path d="M0,0 L28,0 L28,28 L0,28 Z " fill="#010101" transform="translate(0,0)"/>
<path d="M0,0 L4,0 L4,3 L6,3 L5,10 L0,20 L-2,20 L0,14 L1,10 L-4,10 L-3,3 Z " fill="#C0C0C0" transform="translate(13,7)"/>
<path d="M0,0 L4,0 L3,4 L0,6 L-3,6 L-2,2 Z " fill="#101010" transform="translate(13,10)"/>
<path d="M0,0 L4,0 L4,3 L-1,5 L-3,9 L0,10 L-4,10 L-3,3 Z " fill="#D8D8D8" transform="translate(13,7)"/>
</svg>
