<?xml version="1.0" encoding="UTF-8"?>
<svg version="1.1" xmlns="http://www.w3.org/2000/svg" width="28" height="28">
<path d="M0,0 L28,0 L28,28 L0,28 Z " fill="#020202" transform="translate(0,0)"/>
<path d="M0,0 L5,1 L8,4 L7,9 L2,20 L0,20 L2,14 L3,11 L-3,12 L-5,11 L-5,5 Z " fill="#DBDBDB" transform="translate(13,6)"/>
<path d="M0,0 L4,2 L5,5 L1,8 L-4,8 L-3,2 Z " fill="#111111" transform="translate(14,8)"/>
<path d="M0,0 L2,0 L1,3 L-1,3 L-3,10 L-4,10 L-4,4 Z " fill="#ADADAD" transform="translate(12,7)"/>
</svg>
