<?xml version="1.0" encoding="UTF-8"?>
<svg version="1.1" xmlns="http://www.w3.org/2000/svg" width="28" height="28">
<path d="M0,0 L28,0 L28,28 L0,28 Z " fill="#020202" transform="translate(0,0)"/>
<path d="M0,0 L7,1 L6,6 L2,16 L0,16 L0,20 L-2,20 L-1,14 L0,9 L-7,10 L-7,5 Z " fill="#CBCBCB" transform="translate(14,7)"/>
<path d="M0,0 L7,1 L6,6 L3,10 L2,6 L3,3 L-3,4 L-2,1 Z " fill="#DEDEDE" transform="translate(14,7)"/>
<path d="M0,0 L4,0 L4,3 L-4,5 L-2,1 Z " fill="#0C0C0C" transform="translate(13,10)"/>
</svg>
