<?xml version="1.0" encoding="UTF-8"?>
<svg version="1.1" xmlns="http://www.w3.org/2000/svg" width="28" height="28">
<path d="M0,0 L28,0 L28,28 L0,28 Z " fill="#020202" transform="translate(0,0)"/>
<path d="M0,0 L5,0 L10,3 L9,9 L8,10 L7,20 L4,20 L4,13 L-2,12 L-4,9 L-3,3 Z " fill="#E2E2E2" transform="translate(11,6)"/>
<path d="M0,0 L3,0 L2,5 L1,6 L0,16 L-3,16 L-4,8 L-1,4 Z " fill="#F3F3F3" transform="translate(18,10)"/>
<path d="M0,0 L5,1 L5,6 L4,7 L-1,7 L-2,2 Z " fill="#0B0B0B" transform="translate(12,9)"/>
<path d="M0,0 L5,0 L10,4 L7,4 L6,8 L6,4 L1,2 L-3,5 L-1,1 Z " fill="#C3C3C3" transform="translate(11,6)"/>
<path d="M0,0 L3,0 L3,6 L0,6 Z " fill="#D4D4D4" transform="translate(15,20)"/>
</svg>
