<?xml version="1.0" encoding="UTF-8"?>
<svg version="1.1" xmlns="http://www.w3.org/2000/svg" width="28" height="28">
<path d="M0,0 L28,0 L28,28 L0,28 Z " fill="#020202" transform="translate(0,0)"/>
<path d="M0,0 L3,1 L4,6 L0,19 L-3,20 L-2,15 L0,9 L-5,9 L-6,8 L-6,3 L-4,1 Z " fill="#CFCFCF" transform="translate(15,6)"/>
<path d="M0,0 L3,1 L4,6 L2,11 L0,7 L1,2 L-4,5 L-4,7 L-1,9 L-6,8 L-6,3 L-4,1 Z " fill="#E9E9E9" transform="translate(15,6)"/>
<path d="M0,0 L3,0 L3,5 L-2,6 L-2,2 Z " fill="#1E1E1E" transform="translate(13,8)"/>
</svg>
