<?xml version="1.0" encoding="UTF-8"?>
<svg version="1.1" xmlns="http://www.w3.org/2000/svg" width="28" height="28">
<path d="M0,0 L28,0 L28,28 L0,28 Z " fill="#030303" transform="translate(0,0)"/>
<path d="M0,0 L7,2 L10,16 L9,20 L6,20 L6,10 L4,10 L4,12 L-3,11 L-6,7 L-5,1 Z " fill="#F0F0F0" transform="translate(12,6)"/>
<path d="M0,0 L3,1 L3,2 L9,2 L9,8 L9,11 L2,10 L-1,6 Z " fill="#D5D5D5" transform="translate(7,7)"/>
<path d="M0,0 L6,0 L6,6 L1,6 Z " fill="#1E1E1E" transform="translate(10,9)"/>
</svg>
