<?xml version="1.0" encoding="UTF-8"?>
<svg version="1.1" xmlns="http://www.w3.org/2000/svg" width="28" height="28">
<path d="M0,0 L28,0 L28,28 L0,28 Z " fill="#020202" transform="translate(0,0)"/>
<path d="M0,0 L7,0 L10,2 L10,9 L10,13 L4,18 L3,20 L1,20 L2,16 L7,12 L8,10 L5,12 L-4,12 L-6,3 Z " fill="#CACACA" transform="translate(12,6)"/>
<path d="M0,0 L6,0 L7,5 L6,6 L0,6 L-4,2 Z " fill="#090909" transform="translate(13,8)"/>
<path d="M0,0 L1,4 L2,9 L-5,15 L-6,17 L-8,17 L-7,13 L-2,9 L-1,7 L-5,8 L-5,6 L-1,2 Z " fill="#E5E5E5" transform="translate(21,9)"/>
<path d="M0,0 L7,1 L5,2 L6,5 L-1,4 Z " fill="#8F8F8F" transform="translate(11,13)"/>
<path d="M0,0 L1,2 L4,2 L3,7 L8,7 L8,8 L1,8 L0,3 Z " fill="#ECECEC" transform="translate(7,10)"/>
</svg>
