<?xml version="1.0" encoding="UTF-8"?>
<svg version="1.1" xmlns="http://www.w3.org/2000/svg" width="28" height="28">
<path d="M0,0 L28,0 L28,28 L0,28 Z " fill="#010101" transform="translate(0,0)"/>
<path d="M0,0 L7,0 L8,2 L7,17 L5,20 L3,20 L4,10 L-1,9 L-2,3 Z " fill="#CDCDCD" transform="translate(11,6)"/>
<path d="M0,0 L1,0 L1,10 L-1,13 L-3,13 L-2,3 Z " fill="#DBDBDB" transform="translate(17,13)"/>
<path d="M0,0 L7,0 L7,2 L1,3 L2,9 L-1,9 L-2,3 Z " fill="#EBEBEB" transform="translate(11,6)"/>
<path d="M0,0 L4,0 L3,5 L0,5 Z " fill="#222222" transform="translate(12,9)"/>
</svg>
