<?xml version="1.0" encoding="UTF-8"?>
<svg version="1.1" xmlns="http://www.w3.org/2000/svg" width="28" height="28">
<path d="M0,0 L28,0 L28,28 L0,28 Z " fill="#010101" transform="translate(0,0)"/>
<path d="M0,0 L4,1 L5,2 L5,20 L3,20 L3,9 L-2,10 L-3,9 L-3,3 Z " fill="#B3B3B3" transform="translate(13,7)"/>
<path d="M0,0 L4,1 L1,3 L-1,4 L-2,8 L1,8 L1,10 L-3,9 L-3,3 Z " fill="#DEDEDE" transform="translate(13,7)"/>
<path d="M0,0 L3,0 L2,4 L-3,5 L-2,1 Z " fill="#0F0F0F" transform="translate(14,9)"/>
</svg>
