<?xml version="1.0" encoding="UTF-8"?>
<svg version="1.1" xmlns="http://www.w3.org/2000/svg" width="28" height="28">
<path d="M0,0 L28,0 L28,28 L0,28 Z " fill="#050505" transform="translate(0,0)"/>
<path d="M0,0 L7,1 L6,9 L3,19 L0,20 L1,16 L4,8 L0,10 L-5,10 L-6,6 L-1,1 Z " fill="#DCDCDC" transform="translate(13,7)"/>
<path d="M0,0 L2,0 L1,8 L-2,18 L-5,19 L-4,15 L-1,7 L-4,6 L-1,4 Z " fill="#EAEAEA" transform="translate(18,8)"/>
<path d="M0,0 L5,1 L3,5 L-3,5 L-1,1 Z " fill="#0E0E0E" transform="translate(13,9)"/>
<path d="M0,0 L7,1 L6,4 L1,4 Z " fill="#B2B2B2" transform="translate(7,13)"/>
</svg>
