<?xml version="1.0" encoding="UTF-8"?>
<svg version="1.1" xmlns="http://www.w3.org/2000/svg" width="28" height="28">
<path d="M0,0 L28,0 L28,28 L0,28 Z " fill="#020202" transform="translate(0,0)"/>
<path d="M0,0 L7,0 L6,7 L-3,20 L-6,20 L-4,16 L0,10 L-4,12 L-10,12 L-11,7 Z " fill="#D3D3D3" transform="translate(16,6)"/>
<path d="M0,0 L5,0 L4,7 L-5,20 L-8,20 L-6,16 L-2,10 L-9,11 L-5,10 L-5,8 L1,5 L2,1 Z " fill="#E4E4E4" transform="translate(18,6)"/>
<path d="M0,0 L3,0 L2,4 L-4,7 L-9,7 L-4,3 Z " fill="#202020" transform="translate(17,8)"/>
<path d="M0,0 L3,0 L2,4 L-3,5 Z " fill="#090909" transform="translate(17,8)"/>
</svg>
