<?xml version="1.0" encoding="UTF-8"?>
<svg version="1.1" xmlns="http://www.w3.org/2000/svg" width="28" height="28">
<path d="M0,0 L28,0 L28,28 L0,28 Z " fill="#040404" transform="translate(0,0)"/>
<path d="M0,0 L5,1 L9,2 L11,19 L7,20 L6,18 L6,10 L7,8 L3,9 L3,11 L-7,12 L-9,9 L-9,6 L-7,6 L-7,4 Z " fill="#EFEFEF" transform="translate(12,6)"/>
<path d="M0,0 Z M-2,1 L0,1 L0,3 L5,2 L7,3 L5,7 L5,10 L-5,11 L-7,8 L-7,5 L-5,5 L-5,3 Z " fill="#DFDFDF" transform="translate(10,7)"/>
<path d="M0,0 L2,0 L3,10 L-1,11 L-2,9 L-2,1 Z " fill="#D6D6D6" transform="translate(20,15)"/>
<path d="M0,0 L5,1 L3,5 L-4,6 L-3,2 Z " fill="#1D1D1D" transform="translate(12,9)"/>
</svg>
