<?xml version="1.0" encoding="UTF-8"?>
<svg version="1.1" xmlns="http://www.w3.org/2000/svg" width="28" height="28">
<path d="M0,0 L28,0 L28,28 L0,28 Z " fill="#020202" transform="translate(0,0)"/>
<path d="M0,0 L7,1 L8,2 L7,12 L4,20 L2,20 L4,9 L-4,9 L-3,3 Z " fill="#C2C2C2" transform="translate(12,6)"/>
<path d="M0,0 L1,0 L1,6 L-2,14 L-4,14 L-2,4 Z " fill="#E0E0E0" transform="translate(18,12)"/>
<path d="M0,0 L5,0 L4,5 L-2,5 Z " fill="#0B0B0B" transform="translate(12,8)"/>
<path d="M0,0 L2,1 L-2,8 L2,9 L-4,9 L-3,3 Z " fill="#E4E4E4" transform="translate(12,6)"/>
</svg>
