<?xml version="1.0" encoding="UTF-8"?>
<svg version="1.1" xmlns="http://www.w3.org/2000/svg" width="28" height="28">
<path d="M0,0 L28,0 L28,28 L0,28 Z " fill="#030303" transform="translate(0,0)"/>
<path d="M0,0 L6,0 L10,3 L8,20 L5,19 L5,11 L0,12 L-2,11 L-2,9 L-4,9 L-4,4 Z " fill="#C9C9C9" transform="translate(11,6)"/>
<path d="M0,0 L2,4 L6,5 L7,2 L10,1 L10,16 L7,15 L7,7 L2,8 L-1,5 Z " fill="#EFEFEF" transform="translate(9,10)"/>
<path d="M0,0 L5,0 L3,6 L-2,5 L-2,1 Z " fill="#0C0C0C" transform="translate(12,9)"/>
<path d="M0,0 L2,4 L6,6 L2,8 L-1,5 Z " fill="#E2E2E2" transform="translate(9,10)"/>
</svg>
