<?xml version="1.0" encoding="UTF-8"?>
<svg version="1.1" xmlns="http://www.w3.org/2000/svg" width="28" height="28">
<path d="M0,0 L28,0 L28,28 L0,28 Z " fill="#010101" transform="translate(0,0)"/>
<path d="M0,0 L4,1 L5,3 L5,18 L4,20 L2,20 L3,12 L-4,12 L-5,11 L-5,4 Z " fill="#C5C5C5" transform="translate(13,6)"/>
<path d="M0,0 L3,0 L3,9 L-2,8 L-2,3 Z " fill="#0E0E0E" transform="translate(12,8)"/>
<path d="M0,0 L4,1 L5,3 L5,10 L3,8 L2,3 L-2,3 L-2,1 Z " fill="#E7E7E7" transform="translate(13,6)"/>
</svg>
