<?xml version="1.0" encoding="UTF-8"?>
<svg version="1.1" xmlns="http://www.w3.org/2000/svg" width="28" height="28">
<path d="M0,0 L28,0 L28,28 L0,28 Z " fill="#030303" transform="translate(0,0)"/>
<path d="M0,0 L6,0 L6,5 L9,8 L11,18 L7,17 L5,10 L5,8 L0,8 L-2,10 L-8,9 L-9,5 L-6,2 Z " fill="#DFDFDF" transform="translate(13,7)"/>
<path d="M0,0 L5,1 L8,4 L10,14 L6,13 L4,6 L4,4 L-2,3 Z " fill="#F1F1F1" transform="translate(14,11)"/>
<path d="M0,0 L6,0 L6,4 L-2,5 L0,1 Z " fill="#959595" transform="translate(13,7)"/>
</svg>
