<?xml version="1.0" encoding="UTF-8"?>
<svg version="1.1" xmlns="http://www.w3.org/2000/svg" width="28" height="28">
<path d="M0,0 L28,0 L28,28 L0,28 Z " fill="#020202" transform="translate(0,0)"/>
<path d="M0,0 L5,1 L8,3 L8,11 L9,20 L6,19 L5,8 L-1,8 L-2,7 L-2,2 Z " fill="#C4C4C4" transform="translate(10,7)"/>
<path d="M0,0 L1,0 L3,14 L0,13 Z " fill="#D9D9D9" transform="translate(16,13)"/>
<path d="M0,0 L4,0 L4,2 L0,4 L3,8 L-2,7 L-2,2 Z " fill="#E2E2E2" transform="translate(10,7)"/>
<path d="M0,0 L5,2 L3,4 L-2,3 Z " fill="#121212" transform="translate(11,9)"/>
</svg>
