<?xml version="1.0" encoding="UTF-8"?>
<svg version="1.1" xmlns="http://www.w3.org/2000/svg" width="28" height="28">
<path d="M0,0 L28,0 L28,28 L0,28 Z " fill="#020202" transform="translate(0,0)"/>
<path d="M0,0 L4,0 L5,2 L5,20 L2,19 L3,10 L-4,10 L-5,5 Z " fill="#DCDCDC" transform="translate(13,7)"/>
<path d="M0,0 L1,0 L1,15 L-2,14 L-1,5 L-8,5 L-8,3 Z " fill="#CACACA" transform="translate(17,12)"/>
<path d="M0,0 L1,3 L0,5 L-8,5 L-8,3 Z " fill="#F3F3F3" transform="translate(17,12)"/>
<path d="M0,0 L3,1 L2,4 L-3,4 L-2,1 Z " fill="#181818" transform="translate(13,10)"/>
</svg>
