<?xml version="1.0" encoding="UTF-8"?>
<svg version="1.1" xmlns="http://www.w3.org/2000/svg" width="28" height="28">
<path d="M0,0 L28,0 L28,28 L0,28 Z " fill="#020202" transform="translate(0,0)"/>
<path d="M0,0 L6,0 L5,4 L-4,11 L-7,16 L-8,20 L-10,20 L-10,15 L-8,11 L-12,10 L-11,6 L-4,1 Z " fill="#D2D2D2" transform="translate(18,7)"/>
<path d="M0,0 L5,0 L0,5 L-5,10 L-7,16 L-9,16 L-9,11 L-7,7 L-10,6 L-3,3 Z " fill="#D8D8D8" transform="translate(17,11)"/>
<path d="M0,0 L3,1 L-3,6 L-6,6 L-4,2 Z " fill="#1B1B1B" transform="translate(15,10)"/>
<path d="M0,0 L5,0 L0,5 L-3,6 L-2,2 Z " fill="#F2F2F2" transform="translate(17,11)"/>
</svg>
