<?xml version="1.0" encoding="UTF-8"?>
<svg version="1.1" xmlns="http://www.w3.org/2000/svg" width="28" height="28">
<path d="M0,0 L28,0 L28,28 L0,28 Z " fill="#010101" transform="translate(0,0)"/>
<path d="M0,0 L5,1 L6,2 L6,9 L5,11 L5,20 L2,19 L2,9 L-3,11 L-7,11 L-7,6 Z " fill="#E2E2E2" transform="translate(14,6)"/>
<path d="M0,0 L2,1 L1,3 L6,2 L4,8 L-1,10 L-5,10 L-5,5 Z " fill="#CBCBCB" transform="translate(12,7)"/>
<path d="M0,0 L3,0 L1,4 L-5,5 Z " fill="#181818" transform="translate(15,9)"/>
</svg>
