<?xml version="1.0" encoding="UTF-8"?>
<svg version="1.1" xmlns="http://www.w3.org/2000/svg" width="28" height="28">
<path d="M0,0 L28,0 L28,28 L0,28 Z " fill="#010101" transform="translate(0,0)"/>
<path d="M0,0 L4,1 L6,4 L7,20 L4,19 L2,9 L0,11 L-4,10 L-5,6 Z " fill="#979797" transform="translate(13,6)"/>
<path d="M0,0 L4,1 L-1,5 L-2,9 L0,9 L2,4 L4,4 L4,7 L2,7 L0,11 L-4,10 L-5,6 Z " fill="#CECECE" transform="translate(13,6)"/>
<path d="M0,0 L2,0 L2,3 L0,3 L-2,7 L-5,7 L-5,5 L-2,5 Z " fill="#E6E6E6" transform="translate(15,10)"/>
</svg>
