<?xml version="1.0" encoding="UTF-8"?>
<svg version="1.1" xmlns="http://www.w3.org/2000/svg" width="28" height="28">
<path d="M0,0 L28,0 L28,28 L0,28 Z " fill="#020202" transform="translate(0,0)"/>
<path d="M0,0 L5,0 L6,1 L6,8 L5,10 L5,20 L3,20 L1,12 L0,13 L-5,13 L-7,10 L-6,5 L-2,1 Z " fill="#CACACA" transform="translate(14,6)"/>
<path d="M0,0 L5,0 L6,1 L6,8 L4,4 L-1,4 L-4,7 L-4,10 L0,11 L0,13 L-5,13 L-7,10 L-6,5 L-2,1 Z " fill="#E8E8E8" transform="translate(14,6)"/>
<path d="M0,0 L5,0 L2,6 L1,7 L-4,7 L-3,3 Z " fill="#131313" transform="translate(13,9)"/>
</svg>
