<?xml version="1.0" encoding="UTF-8"?>
<svg version="1.1" xmlns="http://www.w3.org/2000/svg" width="28" height="28">
<path d="M0,0 L28,0 L28,28 L0,28 Z " fill="#030303" transform="translate(0,0)"/>
<path d="M0,0 L7,1 L11,2 L12,16 L13,20 L9,19 L7,9 L3,11 L-2,11 L-4,9 L-3,3 Z " fill="#E5E5E5" transform="translate(9,7)"/>
<path d="M0,0 L7,1 L10,3 L2,9 L-1,8 L-1,4 L-3,5 L-2,1 Z " fill="#D9D9D9" transform="translate(9,7)"/>
<path d="M0,0 L4,1 L2,5 L-2,6 L-3,3 L-1,3 Z " fill="#161616" transform="translate(11,10)"/>
</svg>
