<?xml version="1.0" encoding="UTF-8"?>
<svg version="1.1" xmlns="http://www.w3.org/2000/svg" width="28" height="28">
<path d="M0,0 L28,0 L28,28 L0,28 Z " fill="#020202" transform="translate(0,0)"/>
<path d="M0,0 L4,0 L3,8 L2,10 L0,10 L-3,20 L-6,20 L-5,15 L-3,11 L-6,11 L-6,5 L-4,5 L-3,2 Z " fill="#E2E2E2" transform="translate(16,6)"/>
<path d="M0,0 L2,0 L1,5 L-1,7 L-4,7 L-3,3 Z " fill="#090909" transform="translate(16,8)"/>
<path d="M0,0 L3,1 L0,4 L-1,7 L1,8 L-3,9 L-3,3 L-1,3 Z " fill="#BCBCBC" transform="translate(13,8)"/>
<path d="M0,0 L2,0 L1,7 L-2,7 L-1,2 Z " fill="#C1C1C1" transform="translate(12,19)"/>
</svg>
