<?xml version="1.0" encoding="UTF-8"?>
<svg version="1.1" xmlns="http://www.w3.org/2000/svg" width="28" height="28">
<path d="M0,0 L28,0 L28,28 L0,28 Z " fill="#020202" transform="translate(0,0)"/>
<path d="M0,0 L6,0 L7,6 L5,19 L2,20 L2,11 L3,9 L-8,10 L-9,5 L-3,1 Z " fill="#E1E1E1" transform="translate(14,7)"/>
<path d="M0,0 L6,0 L6,4 L4,5 L-5,5 Z " fill="#151515" transform="translate(13,9)"/>
<path d="M0,0 L2,2 L-2,5 L2,7 L-4,7 L-4,5 L-6,4 Z " fill="#C1C1C1" transform="translate(11,8)"/>
</svg>
