<?xml version="1.0" encoding="UTF-8"?>
<svg version="1.1" xmlns="http://www.w3.org/2000/svg" width="28" height="28">
<path d="M0,0 L28,0 L28,28 L0,28 Z " fill="#020202" transform="translate(0,0)"/>
<path d="M0,0 L5,1 L4,7 L0,12 L-6,20 L-7,17 L-2,10 L-6,9 L-4,3 Z " fill="#B8B8B8" transform="translate(16,6)"/>
<path d="M0,0 L4,1 L3,7 L-1,12 L-7,20 L-8,17 L-3,10 L-5,9 L0,6 L2,6 L2,1 Z " fill="#DDDDDD" transform="translate(17,6)"/>
<path d="M0,0 L3,0 L3,4 L0,6 L-3,6 L-2,2 Z " fill="#060606" transform="translate(16,8)"/>
</svg>
