<?xml version="1.0" encoding="UTF-8"?>
<svg version="1.1" xmlns="http://www.w3.org/2000/svg" width="28" height="28">
<path d="M0,0 L28,0 L28,28 L0,28 Z " fill="#020202" transform="translate(0,0)"/>
<path d="M0,0 L5,1 L7,4 L7,10 L6,17 L5,20 L3,17 L4,9 L-2,9 L-5,7 L-4,3 Z " fill="#D0D0D0" transform="translate(12,7)"/>
<path d="M0,0 L4,1 L3,4 L1,6 L-4,5 L-2,1 Z " fill="#222222" transform="translate(13,9)"/>
<path d="M0,0 L1,0 L1,6 L-1,7 L-7,6 L-4,3 L-1,2 Z " fill="#EEEEEE" transform="translate(17,10)"/>
</svg>
