<?xml version="1.0" encoding="UTF-8"?>
<svg version="1.1" xmlns="http://www.w3.org/2000/svg" width="28" height="28">
<path d="M0,0 L28,0 L28,28 L0,28 Z " fill="#030303" transform="translate(0,0)"/>
<path d="M0,0 L8,0 L6,12 L4,20 L1,20 L2,12 L4,8 L-1,10 L-6,9 L-7,6 L-2,1 Z " fill="#CACACA" transform="translate(13,7)"/>
<path d="M0,0 L3,0 L1,12 L-1,20 L-4,20 L-3,12 L-1,8 L-3,7 L0,6 L1,2 L-1,1 Z " fill="#EDEDED" transform="translate(18,7)"/>
<path d="M0,0 L6,0 L5,4 L3,5 L-4,5 L-2,1 Z " fill="#0F0F0F" transform="translate(13,9)"/>
<path d="M0,0 L3,1 L1,9 L-2,9 L-1,1 Z " fill="#D7D7D7" transform="translate(16,18)"/>
</svg>
