<?xml version="1.0" encoding="UTF-8"?>
<svg version="1.1" xmlns="http://www.w3.org/2000/svg" width="28" height="28">
<path d="M0,0 L28,0 L28,28 L0,28 Z " fill="#020202" transform="translate(0,0)"/>
<path d="M0,0 L3,0 L4,2 L4,13 L0,19 L-5,20 L-6,15 L-4,15 L-3,17 L1,11 L-4,10 L-3,3 Z " fill="#E8E8E8" transform="translate(15,5)"/>
<path d="M0,0 L3,1 L1,8 L-2,9 L-3,3 Z " fill="#757575" transform="translate(15,5)"/>
<path d="M0,0 L2,0 L3,2 L5,1 L6,4 L1,5 Z " fill="#BFBFBF" transform="translate(9,20)"/>
</svg>
