<?xml version="1.0" encoding="UTF-8"?>
<svg version="1.1" xmlns="http://www.w3.org/2000/svg" width="28" height="28">
<path d="M0,0 L28,0 L28,28 L0,28 Z " fill="#020202" transform="translate(0,0)"/>
<path d="M0,0 L7,0 L7,6 L0,20 L-2,20 L1,11 L2,9 L-5,10 L-6,5 Z " fill="#E4E4E4" transform="translate(13,6)"/>
<path d="M0,0 L5,0 L4,4 L1,6 L-3,6 L-2,2 Z " fill="#0C0C0C" transform="translate(13,8)"/>
<path d="M0,0 L4,2 L-1,4 L-2,8 L-2,10 L-6,9 L-5,4 Z " fill="#C8C8C8" transform="translate(13,6)"/>
</svg>
