<?xml version="1.0" encoding="UTF-8"?>
<svg version="1.1" xmlns="http://www.w3.org/2000/svg" width="28" height="28">
<path d="M0,0 L28,0 L28,28 L0,28 Z " fill="#030303" transform="translate(0,0)"/>
<path d="M0,0 L6,1 L9,5 L9,20 L6,20 L6,6 L4,6 L-1,7 L-4,4 L-4,1 Z " fill="#F0F0F0" transform="translate(10,7)"/>
<path d="M0,0 L7,0 L4,4 L8,2 L7,6 L2,5 L0,3 Z " fill="#F1F1F1" transform="translate(6,8)"/>
<path d="M0,0 L6,1 L8,4 L6,6 L3,4 L0,5 L0,1 Z " fill="#B8B8B8" transform="translate(10,7)"/>
</svg>
