<?xml version="1.0" encoding="UTF-8"?>
<svg version="1.1" xmlns="http://www.w3.org/2000/svg" width="28" height="28">
<path d="M0,0 L28,0 L28,28 L0,28 Z " fill="#020202" transform="translate(0,0)"/>
<path d="M0,0 L7,1 L8,6 L4,14 L1,20 L-2,19 L0,12 L-5,12 L-6,11 L-6,4 Z " fill="#E0E0E0" transform="translate(13,6)"/>
<path d="M0,0 L2,0 L1,6 L-5,18 L-8,17 L-3,6 Z " fill="#E9E9E9" transform="translate(19,8)"/>
<path d="M0,0 L4,0 L3,5 L-3,8 L-5,8 L-4,4 Z " fill="#121212" transform="translate(14,8)"/>
<path d="M0,0 L2,1 L0,6 L-7,5 L-4,4 L-4,2 Z " fill="#B8B8B8" transform="translate(15,13)"/>
</svg>
