<?xml version="1.0" encoding="UTF-8"?>
<svg version="1.1" xmlns="http://www.w3.org/2000/svg" width="28" height="28">
<path d="M0,0 L28,0 L28,28 L0,28 Z " fill="#020202" transform="translate(0,0)"/>
<path d="M0,0 L2,0 L3,20 L1,20 L0,13 L-3,15 L-8,14 L-11,10 L-10,3 L-7,1 Z " fill="#DEDEDE" transform="translate(17,6)"/>
<path d="M0,0 L6,0 L6,7 L4,9 L-1,8 L-2,7 L-2,2 Z " fill="#0A0A0A" transform="translate(10,9)"/>
<path d="M0,0 L7,1 L7,7 L6,7 L6,2 L-2,4 L-2,1 Z " fill="#A4A4A4" transform="translate(10,7)"/>
<path d="M0,0 L2,0 L2,9 L0,8 L0,2 L-4,1 Z " fill="#F8F8F8" transform="translate(17,6)"/>
</svg>
