<?xml version="1.0" encoding="UTF-8"?>
<svg version="1.1" xmlns="http://www.w3.org/2000/svg" width="28" height="28">
<path d="M0,0 L28,0 L28,28 L0,28 Z " fill="#020202" transform="translate(0,0)"/>
<path d="M0,0 L7,0 L12,3 L12,6 L8,6 L3,19 L-1,20 L0,14 L1,10 L-4,9 L-4,4 Z " fill="#E3E3E3" transform="translate(12,7)"/>
<path d="M0,0 L2,0 L2,2 L6,3 L5,5 L3,5 L3,7 L-1,7 L-2,5 L-4,6 L-2,2 Z " fill="#CFCFCF" transform="translate(12,7)"/>
<path d="M0,0 L5,0 L4,2 L2,2 L2,4 L-2,4 Z " fill="#1C1C1C" transform="translate(13,10)"/>
</svg>
