<?xml version="1.0" encoding="UTF-8"?>
<svg version="1.1" xmlns="http://www.w3.org/2000/svg" width="28" height="28">
<path d="M0,0 L28,0 L28,28 L0,28 Z " fill="#030303" transform="translate(0,0)"/>
<path d="M0,0 L6,0 L7,1 L6,10 L3,20 L0,20 L1,14 L2,11 L-4,9 L-4,4 Z " fill="#F0F0F0" transform="translate(12,6)"/>
<path d="M0,0 L1,4 L-2,14 L-5,14 L-4,8 L-1,1 Z " fill="#F4F4F4" transform="translate(17,12)"/>
<path d="M0,0 L2,1 L2,3 L4,4 L3,7 L-1,7 L-2,5 L-4,6 L-2,2 Z " fill="#808080" transform="translate(12,6)"/>
</svg>
