<?xml version="1.0" encoding="UTF-8"?>
<svg version="1.1" xmlns="http://www.w3.org/2000/svg" width="28" height="28">
<path d="M0,0 L28,0 L28,28 L0,28 Z " fill="#040404" transform="translate(0,0)"/>
<path d="M0,0 L7,1 L9,4 L9,12 L7,19 L5,19 L5,16 L3,16 L3,13 L-3,15 L-7,14 L-7,12 L-9,12 L-9,7 Z " fill="#0A0A0A" transform="translate(13,5)"/>
<path d="M0,0 L7,1 L9,4 L9,12 L7,19 L5,19 L4,11 L6,5 L5,2 L0,3 L-5,7 L-6,12 L3,12 L-1,15 L-7,14 L-7,12 L-9,12 L-9,7 Z " fill="#D2D2D2" transform="translate(13,5)"/>
</svg>
