<?xml version="1.0" encoding="UTF-8"?>
<svg version="1.1" xmlns="http://www.w3.org/2000/svg" width="28" height="28">
<path d="M0,0 L28,0 L28,28 L0,28 Z " fill="#020202" transform="translate(0,0)"/>
<path d="M0,0 L4,1 L4,8 L-2,20 L-3,20 L-2,13 L1,8 L-6,9 L-6,5 Z " fill="#CFCFCF" transform="translate(15,7)"/>
<path d="M0,0 L1,0 L0,9 L-5,18 L-6,18 L-5,11 L-2,6 L-5,7 L-5,5 Z " fill="#DDDDDD" transform="translate(18,9)"/>
<path d="M0,0 L2,0 L1,4 L-4,6 L-3,2 Z " fill="#191919" transform="translate(15,9)"/>
</svg>
