<?xml version="1.0" encoding="UTF-8"?>
<svg version="1.1" xmlns="http://www.w3.org/2000/svg" width="28" height="28">
<path d="M0,0 L28,0 L28,28 L0,28 Z " fill="#030303" transform="translate(0,0)"/>
<path d="M0,0 L7,0 L10,2 L9,9 L7,19 L3,20 L5,10 L-4,10 L-5,6 L-2,1 Z " fill="#F0F0F0" transform="translate(11,7)"/>
<path d="M0,0 L3,1 L1,3 L7,3 L6,6 L3,9 L3,10 L-4,10 L-5,6 L-2,1 Z " fill="#DEDEDE" transform="translate(11,7)"/>
<path d="M0,0 L6,0 L5,3 L-2,4 Z " fill="#181818" transform="translate(12,10)"/>
</svg>
