<?xml version="1.0" encoding="UTF-8"?>
<svg version="1.1" xmlns="http://www.w3.org/2000/svg" width="28" height="28">
<path d="M0,0 L28,0 L28,28 L0,28 Z " fill="#020202" transform="translate(0,0)"/>
<path d="M0,0 L7,0 L10,3 L11,5 L11,15 L9,20 L6,20 L7,11 L-1,11 L-4,5 L-2,1 Z " fill="#E8E8E8" transform="translate(10,6)"/>
<path d="M0,0 L6,0 L7,4 L6,5 L-1,5 L-2,1 Z " fill="#0F0F0F" transform="translate(11,9)"/>
<path d="M0,0 L7,0 L10,3 L11,7 L7,8 L7,4 L0,3 Z " fill="#CDCDCD" transform="translate(10,6)"/>
<path d="M0,0 L2,1 L2,9 L-1,9 L-1,4 L-4,3 L0,2 Z " fill="#F6F6F6" transform="translate(19,12)"/>
<path d="M0,0 L4,0 L5,10 L2,10 L3,1 Z " fill="#C7C7C7" transform="translate(14,16)"/>
</svg>
