<?xml version="1.0" encoding="UTF-8"?>
<svg version="1.1" xmlns="http://www.w3.org/2000/svg" width="28" height="28">
<path d="M0,0 L28,0 L28,28 L0,28 Z " fill="#030303" transform="translate(0,0)"/>
<path d="M0,0 L6,0 L8,3 L7,9 L4,19 L0,20 L2,11 L-3,12 L-6,10 L-5,5 Z " fill="#E8E8E8" transform="translate(13,6)"/>
<path d="M0,0 L1,0 L1,7 L-2,14 L-5,14 L-4,8 L-2,2 Z " fill="#F4F4F4" transform="translate(18,12)"/>
<path d="M0,0 L5,3 L4,6 L0,5 L-2,4 L-2,1 Z " fill="#E9E9E9" transform="translate(9,12)"/>
<path d="M0,0 L3,0 L2,4 L-3,5 L-3,2 Z " fill="#2B2B2B" transform="translate(14,9)"/>
</svg>
