<?xml version="1.0" encoding="UTF-8"?>
<svg version="1.1" xmlns="http://www.w3.org/2000/svg" width="28" height="28">
<path d="M0,0 L28,0 L28,28 L0,28 Z " fill="#040404" transform="translate(0,0)"/>
<path d="M0,0 L8,1 L10,6 L0,4 L-2,4 L-2,7 L12,8 L10,13 L4,20 L2,20 L3,15 L6,11 L-2,11 L-6,7 L-5,2 Z " fill="#D5D5D5" transform="translate(11,6)"/>
<path d="M0,0 L8,0 L6,5 L0,12 L-2,12 L-1,7 L3,2 L-1,1 Z " fill="#F9F9F9" transform="translate(15,14)"/>
<path d="M0,0 L3,0 L1,4 L-1,7 L-3,7 L-2,2 Z " fill="#DCDCDC" transform="translate(16,19)"/>
</svg>
