<?xml version="1.0" encoding="UTF-8"?>
<svg version="1.1" xmlns="http://www.w3.org/2000/svg" width="28" height="28">
<path d="M0,0 L28,0 L28,28 L0,28 Z " fill="#010101" transform="translate(0,0)"/>
<path d="M0,0 L4,1 L4,3 L7,4 L6,13 L3,20 L1,20 L3,11 L4,7 L-1,9 L-5,9 L-4,4 Z " fill="#FAFAFA" transform="translate(13,7)"/>
<path d="M0,0 L1,0 L0,9 L-3,16 L-5,16 L-3,7 L-3,2 L-1,2 Z " fill="#C4C4C4" transform="translate(19,11)"/>
<path d="M0,0 L2,1 L1,6 L-3,6 L-5,9 L-4,4 Z " fill="#BDBDBD" transform="translate(13,7)"/>
</svg>
