<?xml version="1.0" encoding="UTF-8"?>
<svg version="1.1" xmlns="http://www.w3.org/2000/svg" width="28" height="28">
<path d="M0,0 L28,0 L28,28 L0,28 Z " fill="#030303" transform="translate(0,0)"/>
<path d="M0,0 L7,0 L12,2 L11,8 L6,16 L3,20 L1,20 L2,16 L4,12 L-4,9 L-3,3 Z " fill="#E3E3E3" transform="translate(10,7)"/>
<path d="M0,0 L9,1 L10,5 L8,6 L7,4 L-2,3 Z " fill="#F2F2F2" transform="translate(12,7)"/>
<path d="M0,0 L4,1 L3,4 L-5,4 L-7,3 L-7,1 Z " fill="#2F2F2F" transform="translate(16,10)"/>
</svg>
