<?xml version="1.0" encoding="UTF-8"?>
<svg version="1.1" xmlns="http://www.w3.org/2000/svg" width="28" height="28">
<path d="M0,0 L28,0 L28,28 L0,28 Z " fill="#020202" transform="translate(0,0)"/>
<path d="M0,0 L4,1 L4,20 L3,20 L3,9 L0,11 L-4,10 L-3,3 Z " fill="#C9C9C9" transform="translate(14,7)"/>
<path d="M0,0 L2,1 L2,16 L1,16 L1,5 L-2,7 L-6,6 L-5,2 L-5,4 L-1,2 Z " fill="#D9D9D9" transform="translate(16,11)"/>
<path d="M0,0 L4,1 L2,5 L-2,4 Z " fill="#121212" transform="translate(13,10)"/>
</svg>
