<?xml version="1.0" encoding="UTF-8"?>
<svg version="1.1" xmlns="http://www.w3.org/2000/svg" width="28" height="28">
<path d="M0,0 L28,0 L28,28 L0,28 Z " fill="#010101" transform="translate(0,0)"/>
<path d="M0,0 L7,1 L9,4 L9,11 L6,16 L4,20 L2,20 L2,14 L4,11 L-2,11 L-3,9 L-3,3 Z " fill="#E7E7E7" transform="translate(11,6)"/>
<path d="M0,0 L7,1 L8,4 L6,8 L-1,8 L-3,3 Z " fill="#CCCCCC" transform="translate(11,6)"/>
<path d="M0,0 L6,0 L6,4 L-1,4 L-1,1 Z " fill="#262626" transform="translate(11,10)"/>
</svg>
