<?xml version="1.0" encoding="UTF-8"?>
<svg version="1.1" xmlns="http://www.w3.org/2000/svg" width="28" height="28">
<path d="M0,0 L28,0 L28,28 L0,28 Z " fill="#010101" transform="translate(0,0)"/>
<path d="M0,0 L5,0 L7,2 L8,7 L6,11 L5,18 L9,19 L4,20 L1,17 L2,11 L0,11 L0,13 L-8,12 L-10,9 L-7,4 Z " fill="#DADADA" transform="translate(14,6)"/>
<path d="M0,0 L4,0 L4,2 L-1,5 L-2,8 L6,7 L6,9 L4,9 L4,11 L-4,10 L-6,7 L-3,2 Z M6,6 Z " fill="#ECECEC" transform="translate(10,8)"/>
<path d="M0,0 L4,1 L3,5 L-1,8 L-7,8 L-6,4 Z " fill="#0D0D0D" transform="translate(15,8)"/>
</svg>
