<?xml version="1.0" encoding="UTF-8"?>
<svg version="1.1" xmlns="http://www.w3.org/2000/svg" width="28" height="28">
<path d="M0,0 L28,0 L28,28 L0,28 Z " fill="#010101" transform="translate(0,0)"/>
<path d="M0,0 L6,0 L10,4 L10,20 L7,20 L7,12 L1,12 L-3,8 L-2,2 Z " fill="#E3E3E3" transform="translate(10,6)"/>
<path d="M0,0 L6,0 L8,3 L5,3 L1,4 L1,8 L3,10 L3,12 L-2,10 L-3,5 Z " fill="#E5E5E5" transform="translate(10,6)"/>
<path d="M0,0 L4,1 L5,2 L5,7 L1,8 L-2,6 L-1,1 Z " fill="#1A1A1A" transform="translate(12,8)"/>
</svg>
