<?xml version="1.0" encoding="UTF-8"?>
<svg version="1.1" xmlns="http://www.w3.org/2000/svg" width="28" height="28">
<path d="M0,0 L28,0 L28,28 L0,28 Z " fill="#010101" transform="translate(0,0)"/>
<path d="M0,0 L4,1 L7,3 L6,17 L4,20 L2,20 L3,10 L-1,9 L0,6 L3,6 L4,3 L-1,5 Z " fill="#DEDEDE" transform="translate(11,6)"/>
<path d="M0,0 L3,0 L6,0 L5,4 L0,4 Z " fill="#565656" transform="translate(9,9)"/>
<path d="M0,0 L1,0 L1,8 L-1,11 L-3,11 L-3,8 L-1,7 Z " fill="#AEAEAE" transform="translate(16,15)"/>
</svg>
