<?xml version="1.0" encoding="UTF-8"?>
<svg version="1.1" xmlns="http://www.w3.org/2000/svg" width="28" height="28">
<path d="M0,0 L28,0 L28,28 L0,28 Z " fill="#030303" transform="translate(0,0)"/>
<path d="M0,0 L7,0 L10,2 L9,6 L5,12 L1,20 L-2,20 L-1,16 L1,11 L-5,11 L-6,6 L-5,3 Z " fill="#EAEAEA" transform="translate(13,7)"/>
<path d="M0,0 L4,1 L5,5 L1,8 L-6,8 L-5,3 Z " fill="#D6D6D6" transform="translate(13,7)"/>
<path d="M0,0 L5,0 L4,3 L1,5 L-3,5 L-2,1 Z " fill="#0F0F0F" transform="translate(13,10)"/>
</svg>
