<?xml version="1.0" encoding="UTF-8"?>
<svg version="1.1" xmlns="http://www.w3.org/2000/svg" width="28" height="28">
<path d="M0,0 L28,0 L28,28 L0,28 Z " fill="#020202" transform="translate(0,0)"/>
<path d="M0,0 L7,0 L9,2 L9,7 L5,13 L2,20 L-1,20 L0,15 L3,11 L1,12 L-6,12 L-7,6 L-2,1 Z " fill="#F0F0F0" transform="translate(13,6)"/>
<path d="M0,0 L6,0 L6,3 L0,7 L-4,7 L-3,1 Z " fill="#0E0E0E" transform="translate(13,9)"/>
<path d="M0,0 L3,1 L4,3 L-3,4 L-5,8 L-7,8 L-5,3 Z " fill="#D5D5D5" transform="translate(13,6)"/>
</svg>
