<?xml version="1.0" encoding="UTF-8"?>
<svg version="1.1" xmlns="http://www.w3.org/2000/svg" width="28" height="28">
<path d="M0,0 L28,0 L28,28 L0,28 Z " fill="#030303" transform="translate(0,0)"/>
<path d="M0,0 L6,0 L9,5 L7,17 L6,20 L4,20 L4,13 L-2,13 L-5,11 L-6,5 L-2,1 Z " fill="#EDEDED" transform="translate(12,6)"/>
<path d="M0,0 L5,0 L6,3 L2,8 L-2,8 L-3,3 Z " fill="#0B0B0B" transform="translate(12,9)"/>
<path d="M0,0 L6,0 L6,4 L-2,4 L-2,10 L-4,12 L-6,8 L-5,3 Z " fill="#D2D2D2" transform="translate(12,6)"/>
</svg>
