<?xml version="1.0" encoding="UTF-8"?>
<svg version="1.1" xmlns="http://www.w3.org/2000/svg" width="28" height="28">
<path d="M0,0 L28,0 L28,28 L0,28 Z " fill="#020202" transform="translate(0,0)"/>
<path d="M0,0 L5,0 L6,1 L5,8 L0,16 L-2,20 L-5,20 L-5,16 L-3,16 L-2,12 L-10,12 L-11,8 L-6,3 Z " fill="#DBDBDB" transform="translate(16,6)"/>
<path d="M0,0 L5,0 L6,1 L5,8 L0,13 L-1,11 L-5,10 L1,8 L2,3 L-6,7 L-10,8 L-9,5 Z " fill="#E4E4E4" transform="translate(16,6)"/>
<path d="M0,0 L3,0 L2,5 L-2,7 L-7,7 L-5,3 Z " fill="#1A1A1A" transform="translate(15,9)"/>
</svg>
