<?xml version="1.0" encoding="UTF-8"?>
<svg version="1.1" xmlns="http://www.w3.org/2000/svg" width="28" height="28">
<path d="M0,0 L28,0 L28,28 L0,28 Z " fill="#040404" transform="translate(0,0)"/>
<path d="M0,0 L7,1 L7,5 L6,7 L6,14 L8,19 L4,19 L3,16 L3,9 L-4,11 L-6,10 L-6,5 Z " fill="#DBDBDB" transform="translate(13,6)"/>
<path d="M0,0 L1,0 L3,10 L3,14 L0,13 L-1,10 L-1,1 Z " fill="#EAEAEA" transform="translate(17,12)"/>
<path d="M0,0 L1,2 L7,1 L6,4 L1,5 L-1,4 Z " fill="#F1F1F1" transform="translate(8,12)"/>
<path d="M0,0 L4,1 L2,4 L-3,5 L-1,1 Z " fill="#1F1F1F" transform="translate(13,9)"/>
</svg>
