<?xml version="1.0" encoding="UTF-8"?>
<svg version="1.1" xmlns="http://www.w3.org/2000/svg" width="28" height="28">
<path d="M0,0 L28,0 L28,28 L0,28 Z " fill="#020202" transform="translate(0,0)"/>
<path d="M0,0 L7,0 L10,1 L9,7 L4,16 L3,20 L0,20 L1,15 L2,12 L-5,13 L-6,12 L-6,5 Z " fill="#D7D7D7" transform="translate(12,6)"/>
<path d="M0,0 L8,1 L7,7 L2,16 L1,20 L-2,20 L-1,15 L1,8 L3,4 L-2,3 Z " fill="#EEEEEE" transform="translate(14,6)"/>
<path d="M0,0 L5,0 L3,5 L-1,7 L-5,7 L-4,3 Z " fill="#131313" transform="translate(13,9)"/>
</svg>
