<?xml version="1.0" encoding="UTF-8"?>
<svg version="1.1" xmlns="http://www.w3.org/2000/svg" width="28" height="28">
<path d="M0,0 L28,0 L28,28 L0,28 Z " fill="#010101" transform="translate(0,0)"/>
<path d="M0,0 L9,0 L10,5 L5,13 L2,20 L-1,20 L0,14 L2,10 L-2,9 L-4,7 L-3,2 Z " fill="#E6E6E6" transform="translate(11,7)"/>
<path d="M0,0 L4,1 L0,5 L-3,5 L-2,1 Z " fill="#1E1E1E" transform="translate(13,9)"/>
<path d="M0,0 L2,1 L1,6 L3,7 L0,8 L-2,6 L-1,1 Z " fill="#CCCCCC" transform="translate(9,8)"/>
</svg>
