<?xml version="1.0" encoding="UTF-8"?>
<svg version="1.1" xmlns="http://www.w3.org/2000/svg" width="28" height="28">
<path d="M0,0 L28,0 L28,28 L0,28 Z " fill="#020202" transform="translate(0,0)"/>
<path d="M0,0 L9,1 L10,4 L2,17 L1,20 L-2,19 L0,14 L3,9 L-3,10 L-4,5 L-2,5 L-1,1 Z " fill="#E3E3E3" transform="translate(12,7)"/>
<path d="M0,0 L4,1 L3,4 L-3,6 L-2,2 Z " fill="#1F1F1F" transform="translate(14,9)"/>
<path d="M0,0 L6,0 L6,2 L0,4 L-2,2 Z " fill="#C3C3C3" transform="translate(12,7)"/>
</svg>
