<?xml version="1.0" encoding="UTF-8"?>
<svg version="1.1" xmlns="http://www.w3.org/2000/svg" width="28" height="28">
<path d="M0,0 L28,0 L28,28 L0,28 Z " fill="#030303" transform="translate(0,0)"/>
<path d="M0,0 L10,0 L13,4 L12,18 L8,19 L8,11 L-3,14 L-7,10 L-7,5 L-2,1 Z " fill="#E1E1E1" transform="translate(10,6)"/>
<path d="M0,0 L3,0 L2,14 L-2,15 L-3,7 L-3,4 L-1,4 Z " fill="#F0F0F0" transform="translate(20,10)"/>
<path d="M0,0 L4,0 L4,4 L-1,6 L-7,6 L-7,3 Z " fill="#0A0A0A" transform="translate(15,9)"/>
</svg>
