<?xml version="1.0" encoding="UTF-8"?>
<svg version="1.1" xmlns="http://www.w3.org/2000/svg" width="28" height="28">
<path d="M0,0 L28,0 L28,28 L0,28 Z " fill="#040404" transform="translate(0,0)"/>
<path d="M0,0 L5,1 L7,4 L7,7 L-1,14 L-6,20 L-10,20 L-8,16 L-4,12 L-11,10 L-11,5 L-5,1 Z " fill="#EDEDED" transform="translate(17,6)"/>
<path d="M0,0 L4,0 L3,5 L-1,7 L-8,7 L-7,3 Z " fill="#111111" transform="translate(16,8)"/>
<path d="M0,0 L4,0 L4,2 L-3,5 L-4,8 L2,8 L-2,10 L-6,9 L-6,4 Z " fill="#D4D4D4" transform="translate(12,7)"/>
</svg>
