<?xml version="1.0" encoding="UTF-8"?>
<svg version="1.1" xmlns="http://www.w3.org/2000/svg" width="28" height="28">
<path d="M0,0 L28,0 L28,28 L0,28 Z " fill="#020202" transform="translate(0,0)"/>
<path d="M0,0 L5,0 L7,2 L6,7 L1,15 L-1,15 L0,20 L-4,20 L-5,16 L0,9 L-7,9 L-8,5 Z " fill="#E2E2E2" transform="translate(15,6)"/>
<path d="M0,0 L5,0 L7,2 L6,7 L3,10 L-2,8 L1,5 L4,2 L-5,6 L-8,5 Z " fill="#F0F0F0" transform="translate(15,6)"/>
<path d="M0,0 L3,0 L2,3 L0,4 L-6,4 L-3,1 Z " fill="#323232" transform="translate(16,8)"/>
<path d="M0,0 L6,0 L9,3 L7,4 L0,3 Z " fill="#ADADAD" transform="translate(8,12)"/>
</svg>
