<?xml version="1.0" encoding="UTF-8"?>
<svg version="1.1" xmlns="http://www.w3.org/2000/svg" width="28" height="28">
<path d="M0,0 L28,0 L28,28 L0,28 Z " fill="#060606" transform="translate(0,0)"/>
<path d="M0,0 L4,0 L6,3 L5,8 L-1,18 L-5,20 L-4,15 L-2,12 L-7,10 L-7,4 L-4,1 Z " fill="#E5E5E5" transform="translate(15,6)"/>
<path d="M0,0 L4,0 L4,2 L1,2 L-1,8 L2,8 L2,10 L-3,9 L-3,3 Z " fill="#F3F3F3" transform="translate(11,7)"/>
<path d="M0,0 L6,0 L1,6 L-2,6 L-1,2 Z " fill="#202020" transform="translate(12,9)"/>
</svg>
