<?xml version="1.0" encoding="UTF-8"?>
<svg version="1.1" xmlns="http://www.w3.org/2000/svg" width="28" height="28">
<path d="M0,0 L28,0 L28,28 L0,28 Z " fill="#020202" transform="translate(0,0)"/>
<path d="M0,0 L4,2 L5,7 L-2,17 L-4,20 L-6,20 L-4,14 L-3,12 L-8,12 L-9,7 L-2,1 Z " fill="#D8D8D8" transform="translate(16,5)"/>
<path d="M0,0 L2,0 L3,5 L-4,15 L-6,18 L-8,18 L-6,12 L-3,6 L-1,6 Z " fill="#DFDFDF" transform="translate(18,7)"/>
<path d="M0,0 L2,0 L1,6 L-4,8 L-7,8 L-5,4 Z " fill="#121212" transform="translate(16,7)"/>
</svg>
