<?xml version="1.0" encoding="UTF-8"?>
<svg version="1.1" xmlns="http://www.w3.org/2000/svg" width="28" height="28">
<path d="M0,0 L28,0 L28,28 L0,28 Z " fill="#020202" transform="translate(0,0)"/>
<path d="M0,0 L6,0 L9,3 L8,7 L1,18 L-3,20 L-2,16 L4,8 L-1,8 L-3,6 L-2,2 Z " fill="#E9E9E9" transform="translate(12,6)"/>
<path d="M0,0 L4,0 L4,3 L-2,4 L-2,1 Z " fill="#232323" transform="translate(14,8)"/>
<path d="M0,0 L2,1 L2,3 L0,5 L-2,7 L-3,3 Z " fill="#D2D2D2" transform="translate(12,6)"/>
</svg>
