<?xml version="1.0" encoding="UTF-8"?>
<svg version="1.1" xmlns="http://www.w3.org/2000/svg" width="28" height="28">
<path d="M0,0 L28,0 L28,28 L0,28 Z " fill="#020202" transform="translate(0,0)"/>
<path d="M0,0 L5,0 L7,2 L7,10 L5,19 L2,19 L3,13 L4,8 L-2,9 L-4,7 L-3,3 Z " fill="#A2A2A2" transform="translate(12,7)"/>
<path d="M0,0 L5,0 L7,2 L7,8 L5,9 L5,7 L3,6 L4,3 L-2,3 Z " fill="#F2F2F2" transform="translate(12,7)"/>
<path d="M0,0 L1,0 L1,8 L-2,8 L-1,2 Z " fill="#DEDEDE" transform="translate(16,18)"/>
</svg>
