<?xml version="1.0" encoding="UTF-8"?>
<svg version="1.1" xmlns="http://www.w3.org/2000/svg" width="28" height="28">
<path d="M0,0 L28,0 L28,28 L0,28 Z " fill="#020202" transform="translate(0,0)"/>
<path d="M0,0 L3,0 L4,3 L1,8 L-4,18 L-8,20 L-3,9 L-9,10 L-10,5 L-5,1 Z " fill="#CDCDCD" transform="translate(18,7)"/>
<path d="M0,0 L3,0 L4,3 L1,8 L-4,18 L-8,20 L-1,6 L0,2 L-3,1 Z " fill="#EAEAEA" transform="translate(18,7)"/>
<path d="M0,0 L0,3 L-4,6 L-7,6 L-5,2 Z " fill="#1C1C1C" transform="translate(17,9)"/>
</svg>
