<?xml version="1.0" encoding="UTF-8"?>
<svg version="1.1" xmlns="http://www.w3.org/2000/svg" width="28" height="28">
<path d="M0,0 L28,0 L28,28 L0,28 Z " fill="#030303" transform="translate(0,0)"/>
<path d="M0,0 L7,0 L7,2 L2,2 L1,7 L-5,16 L-8,20 L-10,20 L-8,16 L-5,11 L-12,11 L-12,7 L-7,3 Z " fill="#191919" transform="translate(19,6)"/>
<path d="M0,0 L7,0 L7,2 L-4,4 L-9,7 L-10,10 L-6,11 L-12,11 L-12,7 L-7,3 Z " fill="#C3C3C3" transform="translate(19,6)"/>
<path d="M0,0 L0,3 L-6,12 L-9,16 L-11,16 L-9,12 L-5,7 L-4,3 Z " fill="#CDCDCD" transform="translate(20,10)"/>
</svg>
