<?xml version="1.0" encoding="UTF-8"?>
<svg version="1.1" xmlns="http://www.w3.org/2000/svg" width="28" height="28">
<path d="M0,0 L28,0 L28,28 L0,28 Z " fill="#030303" transform="translate(0,0)"/>
<path d="M0,0 L5,0 L8,3 L7,7 L0,13 L-3,20 L-6,19 L-5,14 L-3,11 L-6,10 L-7,5 Z " fill="#F0F0F0" transform="translate(15,6)"/>
<path d="M0,0 L5,0 L3,5 L-1,10 L-5,11 L-7,8 L-6,4 Z " fill="#D8D8D8" transform="translate(15,6)"/>
<path d="M0,0 L4,1 L-1,6 L-4,6 L-2,2 Z " fill="#121212" transform="translate(15,9)"/>
</svg>
