<?xml version="1.0" encoding="UTF-8"?>
<svg version="1.1" xmlns="http://www.w3.org/2000/svg" width="28" height="28">
<path d="M0,0 L28,0 L28,28 L0,28 Z " fill="#020202" transform="translate(0,0)"/>
<path d="M0,0 L6,0 L8,2 L8,20 L6,20 L5,8 L-4,9 L-6,7 L-5,3 Z " fill="#DBDBDB" transform="translate(12,7)"/>
<path d="M0,0 L5,0 L1,2 L-1,5 L5,6 L2,8 L-3,7 L-4,3 Z " fill="#E3E3E3" transform="translate(10,8)"/>
<path d="M0,0 L6,0 L4,4 L-2,5 L-2,2 Z " fill="#1A1A1A" transform="translate(11,9)"/>
<path d="M0,0 L6,0 L8,2 L7,6 L5,6 L5,8 L1,6 L5,2 L0,1 Z " fill="#BFBFBF" transform="translate(12,7)"/>
</svg>
