<?xml version="1.0" encoding="UTF-8"?>
<svg version="1.1" xmlns="http://www.w3.org/2000/svg" width="28" height="28">
<path d="M0,0 L28,0 L28,28 L0,28 Z " fill="#020202" transform="translate(0,0)"/>
<path d="M0,0 L4,1 L4,8 L-2,17 L-4,20 L-8,19 L-3,13 L-7,13 L-8,9 L-2,1 Z " fill="#E6E6E6" transform="translate(16,5)"/>
<path d="M0,0 L4,1 L4,8 L3,6 L-3,10 L-5,10 L-5,4 Z " fill="#CDCDCD" transform="translate(16,5)"/>
<path d="M0,0 L2,0 L1,4 L-3,7 L-5,7 L-3,3 Z " fill="#0D0D0D" transform="translate(16,8)"/>
</svg>
