<?xml version="1.0" encoding="UTF-8"?>
<svg version="1.1" xmlns="http://www.w3.org/2000/svg" width="28" height="28">
<path d="M0,0 L28,0 L28,28 L0,28 Z " fill="#010101" transform="translate(0,0)"/>
<path d="M0,0 L7,0 L8,4 L2,14 L-1,20 L-3,20 L-2,15 L1,10 L-4,8 L-4,3 Z " fill="#CCCCCC" transform="translate(13,7)"/>
<path d="M0,0 L7,0 L8,4 L5,9 L1,7 L6,2 L-3,4 L-2,1 Z " fill="#DBDBDB" transform="translate(13,7)"/>
<path d="M0,0 L6,0 L4,4 L3,5 L-2,5 L-2,1 Z " fill="#111111" transform="translate(13,9)"/>
</svg>
