<?xml version="1.0" encoding="UTF-8"?>
<svg version="1.1" xmlns="http://www.w3.org/2000/svg" width="28" height="28">
<path d="M0,0 L28,0 L28,28 L0,28 Z " fill="#020202" transform="translate(0,0)"/>
<path d="M0,0 L4,2 L5,4 L4,13 L1,20 L0,20 L1,11 L-4,11 L-5,6 Z " fill="#C7C7C7" transform="translate(14,6)"/>
<path d="M0,0 L2,0 L3,5 L0,8 L-3,8 L-2,3 Z " fill="#1E1E1E" transform="translate(14,8)"/>
<path d="M0,0 L2,0 L2,2 L-2,6 L-3,10 L1,11 L-4,11 L-5,6 Z " fill="#DFDFDF" transform="translate(14,6)"/>
</svg>
