<?xml version="1.0" encoding="UTF-8"?>
<svg version="1.1" xmlns="http://www.w3.org/2000/svg" width="28" height="28">
<path d="M0,0 L28,0 L28,28 L0,28 Z " fill="#020202" transform="translate(0,0)"/>
<path d="M0,0 L3,0 L5,4 L3,17 L2,20 L-1,19 L0,9 L-3,11 L-7,11 L-6,5 Z " fill="#E0E0E0" transform="translate(15,6)"/>
<path d="M0,0 L3,0 L5,4 L4,10 L2,11 L2,7 L0,7 L1,3 L-1,3 Z " fill="#F7F7F7" transform="translate(15,6)"/>
<path d="M0,0 L4,1 L3,4 L-1,6 L-1,4 L-3,3 Z " fill="#8F8F8F" transform="translate(12,8)"/>
</svg>
