<?xml version="1.0" encoding="UTF-8"?>
<svg version="1.1" xmlns="http://www.w3.org/2000/svg" width="28" height="28">
<path d="M0,0 L28,0 L28,28 L0,28 Z " fill="#030303" transform="translate(0,0)"/>
<path d="M0,0 L7,1 L8,8 L5,14 L1,20 L0,16 L2,12 L-3,13 L-6,11 L-5,6 L-8,6 L-8,4 Z " fill="#F0F0F0" transform="translate(13,7)"/>
<path d="M0,0 L3,0 L3,3 L6,2 L4,8 L-3,9 L-6,7 L-6,4 Z " fill="#C1C1C1" transform="translate(13,11)"/>
<path d="M0,0 L5,0 L1,2 L0,5 L-5,8 L-5,6 L-8,6 L-8,4 Z " fill="#D8D8D8" transform="translate(13,7)"/>
<path d="M0,0 L3,0 L1,6 L-4,6 L-3,2 Z " fill="#101010" transform="translate(13,11)"/>
</svg>
