<?xml version="1.0" encoding="UTF-8"?>
<svg version="1.1" xmlns="http://www.w3.org/2000/svg" width="28" height="28">
<path d="M0,0 L28,0 L28,28 L0,28 Z " fill="#020202" transform="translate(0,0)"/>
<path d="M0,0 L5,1 L5,7 L-2,20 L-4,20 L-2,14 L0,11 L-4,7 L-2,1 Z " fill="#E4E4E4" transform="translate(14,6)"/>
<path d="M0,0 L4,0 L3,5 L-2,6 L-1,1 Z " fill="#121212" transform="translate(14,8)"/>
<path d="M0,0 L4,1 L-1,4 L-2,8 L1,8 L1,10 L-3,9 L-4,5 L-2,1 Z " fill="#C5C5C5" transform="translate(14,6)"/>
</svg>
