<?xml version="1.0" encoding="UTF-8"?>
<svg version="1.1" xmlns="http://www.w3.org/2000/svg" width="28" height="28">
<path d="M0,0 L28,0 L28,28 L0,28 Z " fill="#020202" transform="translate(0,0)"/>
<path d="M0,0 L6,0 L5,4 L-5,19 L-8,20 L-6,15 L-3,11 L-8,8 L-6,3 Z " fill="#C0C0C0" transform="translate(16,6)"/>
<path d="M0,0 L1,3 L-6,13 L-9,17 L-11,17 L-9,12 L-6,8 L-8,6 L-2,2 Z " fill="#DADADA" transform="translate(19,9)"/>
<path d="M0,0 L6,0 L1,6 L-3,6 L-2,1 Z " fill="#0F0F0F" transform="translate(14,8)"/>
</svg>
