<?xml version="1.0" encoding="UTF-8"?>
<svg version="1.1" xmlns="http://www.w3.org/2000/svg" width="28" height="28">
<path d="M0,0 L28,0 L28,28 L0,28 Z " fill="#020202" transform="translate(0,0)"/>
<path d="M0,0 L5,0 L7,2 L6,8 L3,14 L2,20 L0,20 L-1,15 L-6,15 L-7,14 L-7,7 L-2,1 Z " fill="#DCDCDC" transform="translate(14,6)"/>
<path d="M0,0 L5,0 L2,9 L0,11 L-5,11 L-5,5 Z " fill="#0A0A0A" transform="translate(14,8)"/>
<path d="M0,0 L1,2 L0,8 L6,8 L5,10 L-1,10 L-2,9 L-2,2 Z " fill="#C2C2C2" transform="translate(9,11)"/>
</svg>
