<?xml version="1.0" encoding="UTF-8"?>
<svg version="1.1" xmlns="http://www.w3.org/2000/svg" width="28" height="28">
<path d="M0,0 L28,0 L28,28 L0,28 Z " fill="#020202" transform="translate(0,0)"/>
<path d="M0,0 L5,1 L6,4 L5,6 L3,6 L1,10 L-5,20 L-8,20 L-8,16 L-6,16 L-6,12 L-8,11 L-7,5 L-2,1 Z " fill="#E7E7E7" transform="translate(17,6)"/>
<path d="M0,0 L5,1 L6,4 L4,6 L4,4 L-2,9 L-5,9 L-7,5 L-2,1 Z " fill="#CCCCCC" transform="translate(17,6)"/>
<path d="M0,0 L4,1 L-1,6 L-4,6 L-2,2 Z " fill="#191919" transform="translate(16,9)"/>
</svg>
