<?xml version="1.0" encoding="UTF-8"?>
<svg version="1.1" xmlns="http://www.w3.org/2000/svg" width="28" height="28">
<path d="M0,0 L28,0 L28,28 L0,28 Z " fill="#010101" transform="translate(0,0)"/>
<path d="M0,0 L5,0 L8,3 L7,19 L4,20 L5,11 L-1,12 L-4,9 L-3,3 Z " fill="#C8C8C8" transform="translate(12,7)"/>
<path d="M0,0 L5,0 L8,3 L7,10 L3,9 L4,4 L4,2 L0,2 Z " fill="#CDCDCD" transform="translate(12,7)"/>
<path d="M0,0 L5,1 L4,6 L-1,5 Z " fill="#030303" transform="translate(12,10)"/>
<path d="M0,0 L2,0 L1,7 L-3,6 L-1,4 Z " fill="#ECECEC" transform="translate(18,10)"/>
</svg>
