<?xml version="1.0" encoding="UTF-8"?>
<svg version="1.1" xmlns="http://www.w3.org/2000/svg" width="28" height="28">
<path d="M0,0 L28,0 L28,28 L0,28 Z " fill="#020202" transform="translate(0,0)"/>
<path d="M0,0 L5,0 L8,3 L7,6 L4,20 L2,20 L2,12 L0,14 L-4,13 L-5,8 L-2,2 Z " fill="#D7D7D7" transform="translate(13,6)"/>
<path d="M0,0 L4,1 L5,3 L3,3 L1,8 L-3,10 L-4,5 Z " fill="#131313" transform="translate(14,8)"/>
<path d="M0,0 L2,0 L1,9 L0,15 L-2,15 L-2,3 Z " fill="#EFEFEF" transform="translate(17,11)"/>
</svg>
