<?xml version="1.0" encoding="UTF-8"?>
<svg version="1.1" xmlns="http://www.w3.org/2000/svg" width="28" height="28">
<path d="M0,0 L28,0 L28,28 L0,28 Z " fill="#030303" transform="translate(0,0)"/>
<path d="M0,0 L7,1 L8,3 L8,13 L2,18 L-7,20 L-7,18 L2,15 L4,13 L4,9 L3,10 L-3,10 L-3,2 Z " fill="#CACACA" transform="translate(13,5)"/>
<path d="M0,0 L7,1 L7,10 L6,6 L4,6 L5,2 L0,4 L-1,9 L2,10 L-3,10 L-3,2 Z " fill="#E6E6E6" transform="translate(13,5)"/>
<path d="M0,0 L4,0 L2,5 L-2,6 L-1,1 Z " fill="#0D0D0D" transform="translate(14,7)"/>
</svg>
