<?xml version="1.0" encoding="UTF-8"?>
<svg version="1.1" xmlns="http://www.w3.org/2000/svg" width="28" height="28">
<path d="M0,0 L28,0 L28,28 L0,28 Z " fill="#020202" transform="translate(0,0)"/>
<path d="M0,0 L6,1 L8,4 L7,20 L5,19 L4,10 L-1,10 L-3,8 L-2,2 Z " fill="#D9D9D9" transform="translate(11,7)"/>
<path d="M0,0 L2,1 L1,17 L-1,16 L-2,7 L-7,7 L-7,5 L-1,3 Z " fill="#E2E2E2" transform="translate(17,10)"/>
<path d="M0,0 L3,1 L3,5 L-2,6 L-3,2 Z " fill="#171717" transform="translate(13,9)"/>
</svg>
