<?xml version="1.0" encoding="UTF-8"?>
<svg version="1.1" xmlns="http://www.w3.org/2000/svg" width="28" height="28">
<path d="M0,0 L28,0 L28,28 L0,28 Z " fill="#030303" transform="translate(0,0)"/>
<path d="M0,0 L5,1 L5,3 L7,3 L6,17 L8,17 L7,20 L4,19 L4,9 L-2,13 L-6,13 L-6,6 L-2,1 Z " fill="#DBDBDB" transform="translate(13,6)"/>
<path d="M0,0 L4,1 L3,3 L-2,5 L-4,10 L1,9 L0,12 L-6,13 L-6,6 L-2,1 Z " fill="#E0E0E0" transform="translate(13,6)"/>
<path d="M0,0 L2,0 L2,5 L-3,9 L-6,8 L-3,2 Z " fill="#1A1A1A" transform="translate(14,8)"/>
</svg>
