<?xml version="1.0" encoding="UTF-8"?>
<svg version="1.1" xmlns="http://www.w3.org/2000/svg" width="28" height="28">
<path d="M0,0 L28,0 L28,28 L0,28 Z " fill="#030303" transform="translate(0,0)"/>
<path d="M0,0 L5,0 L8,2 L10,2 L11,8 L11,20 L9,20 L8,7 L3,9 L-1,8 L-2,7 L-2,2 Z " fill="#D0D0D0" transform="translate(8,7)"/>
<path d="M0,0 L2,0 L3,6 L3,18 L1,18 L0,4 L-3,3 Z " fill="#EAEAEA" transform="translate(16,9)"/>
<path d="M0,0 L4,1 L4,4 L-1,4 Z " fill="#131313" transform="translate(9,9)"/>
</svg>
