<?xml version="1.0" encoding="UTF-8"?>
<svg version="1.1" xmlns="http://www.w3.org/2000/svg" width="28" height="28">
<path d="M0,0 L28,0 L28,28 L0,28 Z " fill="#020202" transform="translate(0,0)"/>
<path d="M0,0 L4,1 L4,3 L8,4 L6,19 L2,20 L3,11 L-1,14 L-7,14 L-9,13 L-10,7 L-3,1 Z " fill="#DFDFDF" transform="translate(15,5)"/>
<path d="M0,0 L4,0 L2,15 L-2,16 L-1,7 L-4,9 L-7,8 L-1,3 Z " fill="#E4E4E4" transform="translate(19,9)"/>
<path d="M0,0 L4,1 L3,5 L0,8 L-5,8 L-5,4 Z " fill="#101010" transform="translate(15,8)"/>
</svg>
