<?xml version="1.0" encoding="UTF-8"?>
<svg version="1.1" xmlns="http://www.w3.org/2000/svg" width="28" height="28">
<path d="M0,0 L28,0 L28,28 L0,28 Z " fill="#020202" transform="translate(0,0)"/>
<path d="M0,0 L4,1 L6,5 L1,16 L-1,20 L-2,19 L-1,12 L-1,10 L-6,9 L-5,4 Z " fill="#D9D9D9" transform="translate(14,6)"/>
<path d="M0,0 L1,4 L-2,10 L-4,14 L-5,13 L-4,6 Z " fill="#E7E7E7" transform="translate(17,12)"/>
<path d="M0,0 L3,1 L-2,5 L-3,7 L1,8 L-4,9 L-5,4 Z " fill="#E2E2E2" transform="translate(13,7)"/>
<path d="M0,0 L2,1 L2,4 L-5,5 Z " fill="#191919" transform="translate(15,8)"/>
</svg>
