<?xml version="1.0" encoding="UTF-8"?>
<svg version="1.1" xmlns="http://www.w3.org/2000/svg" width="28" height="28">
<path d="M0,0 L28,0 L28,28 L0,28 Z " fill="#030303" transform="translate(0,0)"/>
<path d="M0,0 L2,0 L3,3 L8,2 L6,6 L2,12 L0,12 L-2,18 L-7,19 L-1,9 L-11,9 L-12,5 L-9,3 L-9,7 L-1,5 Z " fill="#E7E7E7" transform="translate(17,7)"/>
<path d="M0,0 L4,1 L2,7 L0,8 L-6,8 L-6,3 Z " fill="#C9C9C9" transform="translate(14,6)"/>
<path d="M0,0 L4,0 L5,3 L2,5 L-3,4 L-2,1 Z " fill="#181818" transform="translate(12,9)"/>
</svg>
