<?xml version="1.0" encoding="UTF-8"?>
<svg version="1.1" xmlns="http://www.w3.org/2000/svg" width="28" height="28">
<path d="M0,0 L28,0 L28,28 L0,28 Z " fill="#040404" transform="translate(0,0)"/>
<path d="M0,0 L4,0 L4,4 L6,4 L4,10 L0,20 L-2,19 L-1,12 L-1,10 L-7,10 L-6,5 Z " fill="#AAAAAA" transform="translate(15,6)"/>
<path d="M0,0 L2,0 L0,5 L3,7 L2,8 L-4,8 L-3,3 Z " fill="#ECECEC" transform="translate(12,8)"/>
<path d="M0,0 L2,0 L1,5 L-1,11 L-3,10 L-2,3 Z " fill="#E6E6E6" transform="translate(16,15)"/>
</svg>
