<?xml version="1.0" encoding="UTF-8"?>
<svg version="1.1" xmlns="http://www.w3.org/2000/svg" width="28" height="28">
<path d="M0,0 L28,0 L28,28 L0,28 Z " fill="#040404" transform="translate(0,0)"/>
<path d="M0,0 L1,0 L1,7 L5,7 L5,1 L9,1 L10,3 L10,16 L7,16 L6,15 L6,10 L-1,10 L-2,9 L-2,2 Z " fill="#EAEAEA" transform="translate(10,9)"/>
<path d="M0,0 L4,1 L3,10 L-1,10 L-2,4 L-2,1 Z " fill="#CFCFCF" transform="translate(12,6)"/>
<path d="M0,0 L3,0 L4,6 L0,6 Z " fill="#090909" transform="translate(11,10)"/>
</svg>
