<?xml version="1.0" encoding="UTF-8"?>
<svg version="1.1" xmlns="http://www.w3.org/2000/svg" width="28" height="28">
<path d="M0,0 L28,0 L28,28 L0,28 Z " fill="#020202" transform="translate(0,0)"/>
<path d="M0,0 L5,1 L7,3 L11,2 L9,6 L2,14 L0,20 L-3,19 L-3,14 L0,10 L-7,11 L-9,9 L-8,5 Z " fill="#E2E2E2" transform="translate(14,7)"/>
<path d="M0,0 L5,2 L6,5 L2,7 L2,9 L-5,10 L-7,8 L-6,4 Z " fill="#E0E0E0" transform="translate(12,8)"/>
<path d="M0,0 L3,0 L4,3 L-1,5 L-5,4 Z " fill="#111111" transform="translate(14,10)"/>
</svg>
