<?xml version="1.0" encoding="UTF-8"?>
<svg version="1.1" xmlns="http://www.w3.org/2000/svg" width="28" height="28">
<path d="M0,0 L28,0 L28,28 L0,28 Z " fill="#020202" transform="translate(0,0)"/>
<path d="M0,0 L7,1 L7,3 L10,3 L9,7 L3,18 L5,19 L1,20 L0,15 L3,10 L-7,11 L-8,7 L-3,2 Z " fill="#D3D3D3" transform="translate(13,6)"/>
<path d="M0,0 L3,0 L1,5 L-4,14 L-2,15 L-6,16 L-7,11 L-4,6 L-14,7 L-13,3 L-12,5 L-6,3 Z " fill="#E3E3E3" transform="translate(20,10)"/>
<path d="M0,0 L5,0 L6,3 L-4,5 L-2,1 Z " fill="#0E0E0E" transform="translate(13,9)"/>
</svg>
