<?xml version="1.0" encoding="UTF-8"?>
<svg version="1.1" xmlns="http://www.w3.org/2000/svg" width="28" height="28">
<path d="M0,0 L28,0 L28,28 L0,28 Z " fill="#020202" transform="translate(0,0)"/>
<path d="M0,0 L5,1 L5,8 L-1,20 L-3,20 L-1,13 L0,10 L-4,12 L-8,11 L-7,6 Z " fill="#D8D8D8" transform="translate(15,6)"/>
<path d="M0,0 L4,0 L3,4 L-3,8 L-6,8 L-4,3 Z " fill="#151515" transform="translate(15,8)"/>
<path d="M0,0 L3,1 L1,4 L6,2 L9,3 L3,6 L-1,5 Z " fill="#BDBDBD" transform="translate(8,12)"/>
</svg>
