<?xml version="1.0" encoding="UTF-8"?>
<svg version="1.1" xmlns="http://www.w3.org/2000/svg" width="28" height="28">
<path d="M0,0 L28,0 L28,28 L0,28 Z " fill="#030303" transform="translate(0,0)"/>
<path d="M0,0 L7,0 L9,1 L9,3 L13,4 L14,19 L11,20 L10,15 L1,15 L-3,13 L-5,9 L-4,3 Z " fill="#DADADA" transform="translate(9,6)"/>
<path d="M0,0 L6,0 L10,3 L10,8 L8,10 L1,9 L-1,7 L-1,1 Z " fill="#111111" transform="translate(9,9)"/>
<path d="M0,0 L4,1 L5,16 L2,17 L1,12 L-7,12 L-6,10 L0,8 Z " fill="#F0F0F0" transform="translate(18,9)"/>
</svg>
