<?xml version="1.0" encoding="UTF-8"?>
<svg version="1.1" xmlns="http://www.w3.org/2000/svg" width="28" height="28">
<path d="M0,0 L28,0 L28,28 L0,28 Z " fill="#030303" transform="translate(0,0)"/>
<path d="M0,0 L4,1 L9,9 L9,17 L5,20 L1,20 L1,18 L7,16 L6,9 L2,11 L-2,12 L-4,10 L-3,2 Z " fill="#BDBDBD" transform="translate(11,5)"/>
<path d="M0,0 L4,2 L5,4 L5,12 L1,15 L-3,15 L-3,13 L3,11 L2,4 L-2,6 L-6,7 L-6,5 L-3,5 L-3,3 Z " fill="#E0E0E0" transform="translate(15,10)"/>
<path d="M0,0 L4,0 L4,6 L-1,7 L-1,1 Z " fill="#0B0B0B" transform="translate(10,7)"/>
</svg>
