<?xml version="1.0" encoding="UTF-8"?>
<svg version="1.1" xmlns="http://www.w3.org/2000/svg" width="28" height="28">
<path d="M0,0 L28,0 L28,28 L0,28 Z " fill="#030303" transform="translate(0,0)"/>
<path d="M0,0 L6,1 L11,7 L12,11 L12,20 L10,20 L8,7 L3,2 L4,4 L4,10 L3,11 L-2,11 L-4,9 L-4,3 Z " fill="#ECECEC" transform="translate(10,7)"/>
<path d="M0,0 L3,0 L2,5 L-1,5 Z " fill="#161616" transform="translate(9,11)"/>
<path d="M0,0 L1,2 L7,1 L6,4 L1,4 Z " fill="#D6D6D6" transform="translate(7,14)"/>
</svg>
