<?xml version="1.0" encoding="UTF-8"?>
<svg version="1.1" xmlns="http://www.w3.org/2000/svg" width="28" height="28">
<path d="M0,0 L28,0 L28,28 L0,28 Z " fill="#030303" transform="translate(0,0)"/>
<path d="M0,0 L6,0 L7,1 L7,6 L-3,18 L-4,20 L-8,19 L0,9 L-5,8 L-6,5 L-4,1 Z " fill="#DBDBDB" transform="translate(15,6)"/>
<path d="M0,0 L6,0 L7,1 L7,6 L5,6 L4,3 L-2,2 L-3,7 L1,9 L-4,9 L-6,5 L-4,1 Z " fill="#E9E9E9" transform="translate(15,6)"/>
<path d="M0,0 L6,0 L7,2 L4,6 L-1,6 L-1,2 Z " fill="#1A1A1A" transform="translate(13,8)"/>
</svg>
