<?xml version="1.0" encoding="UTF-8"?>
<svg version="1.1" xmlns="http://www.w3.org/2000/svg" width="28" height="28">
<path d="M0,0 L28,0 L28,28 L0,28 Z " fill="#020202" transform="translate(0,0)"/>
<path d="M0,0 L9,1 L13,12 L15,17 L15,20 L11,18 L9,13 L9,9 L5,12 L0,12 L-3,10 L-3,3 Z " fill="#DBDBDB" transform="translate(8,6)"/>
<path d="M0,0 L5,2 L4,6 L2,8 L-3,7 L-2,2 Z " fill="#121212" transform="translate(10,8)"/>
<path d="M0,0 L9,1 L6,3 L1,4 L-3,5 L-1,1 Z " fill="#CBCBCB" transform="translate(8,6)"/>
</svg>
