<?xml version="1.0" encoding="UTF-8"?>
<svg version="1.1" xmlns="http://www.w3.org/2000/svg" width="28" height="28">
<path d="M0,0 L28,0 L28,28 L0,28 Z " fill="#040404" transform="translate(0,0)"/>
<path d="M0,0 L7,0 L11,3 L11,9 L1,18 L-2,20 L-5,20 L-5,18 L3,12 L5,12 L5,10 L7,10 L8,4 L4,3 L3,8 L1,10 L-4,10 L-6,8 L-7,3 L-5,1 Z " fill="#CCCCCC" transform="translate(13,7)"/>
<path d="M0,0 L7,0 L7,5 L6,6 L1,6 L-1,4 Z " fill="#848484" transform="translate(8,11)"/>
<path d="M0,0 L11,0 L9,1 L9,6 L7,7 L7,3 L1,4 L-2,2 Z " fill="#E9E9E9" transform="translate(8,8)"/>
</svg>
