<?xml version="1.0" encoding="UTF-8"?>
<svg version="1.1" xmlns="http://www.w3.org/2000/svg" width="28" height="28">
<path d="M0,0 L28,0 L28,28 L0,28 Z " fill="#020202" transform="translate(0,0)"/>
<path d="M0,0 L5,1 L-1,13 L-6,20 L-8,20 L-6,15 L-2,9 L-9,10 L-8,6 Z " fill="#C1C1C1" transform="translate(17,6)"/>
<path d="M0,0 L5,1 L1,9 L-1,6 L2,2 L-6,7 L-7,9 L-3,8 L-4,10 L-9,10 L-8,6 Z " fill="#D0D0D0" transform="translate(17,6)"/>
<path d="M0,0 L2,0 L0,4 L-5,7 L-7,7 L-5,3 Z " fill="#1D1D1D" transform="translate(17,8)"/>
<path d="M0,0 L4,1 L0,9 L-2,6 L1,2 Z " fill="#E7E7E7" transform="translate(18,6)"/>
</svg>
