<?xml version="1.0" encoding="UTF-8"?>
<svg version="1.1" xmlns="http://www.w3.org/2000/svg" width="28" height="28">
<path d="M0,0 L28,0 L28,28 L0,28 Z " fill="#020202" transform="translate(0,0)"/>
<path d="M0,0 L6,0 L8,2 L8,5 L5,8 L-2,19 L-5,20 L-3,16 L2,9 L-2,10 L-7,10 L-7,6 L-2,1 Z " fill="#C9C9C9" transform="translate(14,7)"/>
<path d="M0,0 L6,0 L4,4 L-1,7 L-5,7 L-3,2 Z " fill="#131313" transform="translate(13,9)"/>
<path d="M0,0 L4,2 L4,5 L1,6 L0,3 L-3,1 Z " fill="#A1A1A1" transform="translate(18,7)"/>
</svg>
