<?xml version="1.0" encoding="UTF-8"?>
<svg version="1.1" xmlns="http://www.w3.org/2000/svg" width="28" height="28">
<path d="M0,0 L28,0 L28,28 L0,28 Z " fill="#030303" transform="translate(0,0)"/>
<path d="M0,0 L5,1 L7,2 L7,4 L11,6 L13,15 L13,20 L9,18 L8,16 L8,10 L4,12 L-5,12 L-7,10 L-6,3 Z " fill="#F0F0F0" transform="translate(11,6)"/>
<path d="M0,0 L3,1 L2,3 L8,4 L7,11 L-2,11 L-4,9 L-3,2 Z " fill="#E9E9E9" transform="translate(8,7)"/>
<path d="M0,0 L7,1 L6,4 L-1,5 Z " fill="#161616" transform="translate(9,10)"/>
</svg>
