<?xml version="1.0" encoding="UTF-8"?>
<svg version="1.1" xmlns="http://www.w3.org/2000/svg" width="28" height="28">
<path d="M0,0 L28,0 L28,28 L0,28 Z " fill="#030303" transform="translate(0,0)"/>
<path d="M0,0 L3,1 L2,20 L0,20 L-1,10 L-7,10 L-7,3 L-5,1 Z " fill="#C8C8C8" transform="translate(16,6)"/>
<path d="M0,0 L2,1 L-1,7 L-5,10 L-7,10 L-7,3 L-5,1 Z " fill="#CBCBCB" transform="translate(16,6)"/>
<path d="M0,0 L2,0 L1,6 L-1,6 L-1,8 L-6,9 L-2,5 Z " fill="#EEEEEE" transform="translate(17,7)"/>
<path d="M0,0 L3,0 L2,5 L-2,6 L-1,1 Z " fill="#070707" transform="translate(13,8)"/>
</svg>
