<?xml version="1.0" encoding="UTF-8"?>
<svg version="1.1" xmlns="http://www.w3.org/2000/svg" width="28" height="28">
<path d="M0,0 L28,0 L28,28 L0,28 Z " fill="#010101" transform="translate(0,0)"/>
<path d="M0,0 L7,0 L8,5 L4,12 L-2,20 L-5,19 L0,12 L-5,9 L-6,5 L-2,1 Z " fill="#E2E2E2" transform="translate(14,6)"/>
<path d="M0,0 L5,0 L6,3 L2,7 L-3,6 L-3,2 Z " fill="#0E0E0E" transform="translate(14,8)"/>
<path d="M0,0 L5,0 L4,7 L1,10 L-2,9 L3,2 Z " fill="#CBCBCB" transform="translate(11,16)"/>
</svg>
