<?xml version="1.0" encoding="UTF-8"?>
<svg version="1.1" xmlns="http://www.w3.org/2000/svg" width="28" height="28">
<path d="M0,0 L28,0 L28,28 L0,28 Z " fill="#010101" transform="translate(0,0)"/>
<path d="M0,0 L4,0 L5,3 L5,12 L3,18 L1,18 L1,20 L-1,20 L0,14 L1,12 L-4,12 L-5,11 L-5,4 Z " fill="#D8D8D8" transform="translate(14,6)"/>
<path d="M0,0 L4,0 L5,5 L3,5 L2,10 L-3,9 L-1,4 L-5,6 L-3,2 Z " fill="#C8C8C8" transform="translate(14,6)"/>
<path d="M0,0 L4,1 L3,6 L-2,5 Z " fill="#222222" transform="translate(13,10)"/>
<path d="M0,0 L2,1 L0,6 L0,8 L-3,8 L-3,3 Z " fill="#F2F2F2" transform="translate(12,9)"/>
</svg>
