<?xml version="1.0" encoding="UTF-8"?>
<svg version="1.1" xmlns="http://www.w3.org/2000/svg" width="28" height="28">
<path d="M0,0 L28,0 L28,28 L0,28 Z " fill="#010101" transform="translate(0,0)"/>
<path d="M0,0 L5,1 L6,5 L0,20 L-2,20 L-1,11 L-6,11 L-8,8 L-6,3 Z " fill="#D0D0D0" transform="translate(15,7)"/>
<path d="M0,0 L5,1 L4,5 L3,3 L-2,5 L-4,6 L-5,9 L0,9 L-1,11 L-6,11 L-8,8 L-6,3 Z " fill="#E4E4E4" transform="translate(15,7)"/>
<path d="M0,0 L3,1 L0,6 L-6,7 L-5,3 Z " fill="#191919" transform="translate(16,9)"/>
</svg>
