<?xml version="1.0" encoding="UTF-8"?>
<svg version="1.1" xmlns="http://www.w3.org/2000/svg" width="28" height="28">
<path d="M0,0 L28,0 L28,28 L0,28 Z " fill="#020202" transform="translate(0,0)"/>
<path d="M0,0 L4,0 L4,2 L1,3 L0,6 L3,6 L5,2 L6,6 L3,19 L1,20 L1,13 L2,9 L-3,6 L-2,2 Z " fill="#EBEBEB" transform="translate(12,7)"/>
<path d="M0,0 L4,0 L4,2 L1,3 L0,7 L-3,6 L-2,2 Z " fill="#D5D5D5" transform="translate(12,7)"/>
<path d="M0,0 L2,0 L0,4 L-1,6 L-4,6 L-3,2 L0,2 Z " fill="#2C2C2C" transform="translate(16,7)"/>
</svg>
