<?xml version="1.0" encoding="UTF-8"?>
<svg version="1.1" xmlns="http://www.w3.org/2000/svg" width="28" height="28">
<path d="M0,0 L28,0 L28,28 L0,28 Z " fill="#010101" transform="translate(0,0)"/>
<path d="M0,0 L6,0 L9,4 L8,8 L5,15 L4,20 L2,20 L3,12 L5,7 L-2,7 L-3,2 Z " fill="#DADADA" transform="translate(11,7)"/>
<path d="M0,0 L5,0 L6,4 L4,6 L4,7 L-2,7 L-3,2 Z " fill="#D6D6D6" transform="translate(11,7)"/>
<path d="M0,0 L4,1 L4,3 L-1,5 L-3,4 L-2,1 Z " fill="#181818" transform="translate(13,8)"/>
</svg>
