<?xml version="1.0" encoding="UTF-8"?>
<svg version="1.1" xmlns="http://www.w3.org/2000/svg" width="28" height="28">
<path d="M0,0 L28,0 L28,28 L0,28 Z " fill="#040404" transform="translate(0,0)"/>
<path d="M0,0 L8,0 L8,19 L5,19 L5,11 L-2,16 L-8,15 L-8,8 L-3,2 Z " fill="#D4D4D4" transform="translate(13,6)"/>
<path d="M0,0 L2,0 L3,5 L-2,11 L-7,11 L-6,6 Z " fill="#080808" transform="translate(14,8)"/>
<path d="M0,0 L2,0 L2,19 L-1,19 L-1,11 L-4,10 L-2,2 L0,2 Z " fill="#F1F1F1" transform="translate(19,6)"/>
</svg>
