<?xml version="1.0" encoding="UTF-8"?>
<svg version="1.1" xmlns="http://www.w3.org/2000/svg" width="28" height="28">
<path d="M0,0 L28,0 L28,28 L0,28 Z " fill="#020202" transform="translate(0,0)"/>
<path d="M0,0 L5,1 L4,6 L1,8 L4,10 L2,19 L-1,20 L1,11 L-4,11 L-5,10 L-4,3 Z " fill="#CDCDCD" transform="translate(14,6)"/>
<path d="M0,0 L6,0 L9,3 L7,12 L4,13 L6,4 L1,4 Z " fill="#F5F5F5" transform="translate(9,13)"/>
<path d="M0,0 L2,0 L3,5 L1,10 L-1,10 Z " fill="#CDCDCD" transform="translate(14,16)"/>
<path d="M0,0 L2,0 L0,4 L-2,4 L-2,6 L-4,6 L-2,1 Z " fill="#2B2B2B" transform="translate(15,8)"/>
</svg>
