<?xml version="1.0" encoding="UTF-8"?>
<svg version="1.1" xmlns="http://www.w3.org/2000/svg" width="28" height="28">
<path d="M0,0 L28,0 L28,28 L0,28 Z " fill="#020202" transform="translate(0,0)"/>
<path d="M0,0 L5,1 L7,4 L9,4 L8,8 L6,11 L5,20 L2,19 L3,12 L-4,12 L-5,5 Z " fill="#CCCCCC" transform="translate(12,6)"/>
<path d="M0,0 L3,0 L4,2 L3,4 L2,13 L-1,12 L0,5 L-6,5 L-3,2 Z " fill="#F0F0F0" transform="translate(15,13)"/>
<path d="M0,0 L5,1 L4,6 L1,8 L-2,8 L-2,3 Z " fill="#141414" transform="translate(11,8)"/>
<path d="M0,0 L2,0 L3,2 L3,9 L0,8 Z " fill="#BBBBBB" transform="translate(14,17)"/>
</svg>
