<?xml version="1.0" encoding="UTF-8"?>
<svg version="1.1" xmlns="http://www.w3.org/2000/svg" width="28" height="28">
<path d="M0,0 L28,0 L28,28 L0,28 Z " fill="#030303" transform="translate(0,0)"/>
<path d="M0,0 L6,0 L10,1 L8,5 L2,12 L0,17 L-4,20 L-7,20 L-5,15 L1,8 L-4,10 L-8,10 L-7,5 Z " fill="#E1E1E1" transform="translate(14,6)"/>
<path d="M0,0 L6,0 L7,2 L6,4 L-1,6 L-1,9 L-8,10 L-7,5 Z " fill="#D9D9D9" transform="translate(14,6)"/>
<path d="M0,0 L5,0 L5,2 L-3,6 L-6,5 Z " fill="#191919" transform="translate(14,8)"/>
</svg>
