<?xml version="1.0" encoding="UTF-8"?>
<svg version="1.1" xmlns="http://www.w3.org/2000/svg" width="28" height="28">
<path d="M0,0 L28,0 L28,28 L0,28 Z " fill="#010101" transform="translate(0,0)"/>
<path d="M0,0 L6,1 L7,2 L8,19 L5,20 L4,18 L4,10 L2,11 L-4,11 L-6,9 L-6,4 L-3,1 Z " fill="#CCCCCC" transform="translate(12,6)"/>
<path d="M0,0 L4,0 L3,5 L1,7 L-4,7 L-5,3 Z " fill="#111111" transform="translate(13,8)"/>
<path d="M0,0 L1,0 L1,10 L3,10 L2,13 L0,13 L-2,3 Z " fill="#F3F3F3" transform="translate(17,13)"/>
<path d="M0,0 L5,0 L4,2 L0,4 L1,9 L-3,8 L-3,3 Z " fill="#EAEAEA" transform="translate(9,7)"/>
</svg>
