<?xml version="1.0" encoding="UTF-8"?>
<svg version="1.1" xmlns="http://www.w3.org/2000/svg" width="28" height="28">
<path d="M0,0 L28,0 L28,28 L0,28 Z " fill="#020202" transform="translate(0,0)"/>
<path d="M0,0 L4,1 L3,8 L0,16 L-2,16 L-3,20 L-5,20 L-3,12 L-6,11 L-6,6 L-2,1 Z " fill="#C5C5C5" transform="translate(16,5)"/>
<path d="M0,0 L2,1 L1,8 L-2,16 L-4,16 L-5,20 L-7,20 L-5,10 L-1,6 Z " fill="#E9E9E9" transform="translate(18,5)"/>
<path d="M0,0 L2,0 L1,5 L-1,8 L-4,8 L-3,3 Z " fill="#181818" transform="translate(16,7)"/>
</svg>
