<?xml version="1.0" encoding="UTF-8"?>
<svg version="1.1" xmlns="http://www.w3.org/2000/svg" width="28" height="28">
<path d="M0,0 L28,0 L28,28 L0,28 Z " fill="#030303" transform="translate(0,0)"/>
<path d="M0,0 L4,1 L5,5 L-5,19 L-8,20 L-7,16 L-3,10 L-10,9 L-11,5 L-5,1 Z " fill="#B9B9B9" transform="translate(18,7)"/>
<path d="M0,0 L3,1 L2,3 L0,3 L0,5 L5,6 L5,7 L-3,7 L-4,3 Z " fill="#ECECEC" transform="translate(11,9)"/>
<path d="M0,0 L1,2 L-5,10 L-7,10 L-6,6 L-2,1 Z " fill="#E9E9E9" transform="translate(17,17)"/>
</svg>
