<?xml version="1.0" encoding="UTF-8"?>
<svg version="1.1" xmlns="http://www.w3.org/2000/svg" width="28" height="28">
<path d="M0,0 L28,0 L28,28 L0,28 Z " fill="#020202" transform="translate(0,0)"/>
<path d="M0,0 L5,1 L5,7 L0,15 L-1,19 L-6,20 L-4,16 L0,10 L-9,11 L-8,6 Z " fill="#CFCFCF" transform="translate(16,6)"/>
<path d="M0,0 L5,1 L5,7 L3,10 L-2,9 L2,5 L3,2 L-4,6 L-7,10 L-4,11 L-9,11 L-8,6 Z " fill="#D4D4D4" transform="translate(16,6)"/>
<path d="M0,0 L3,0 L2,4 L-2,7 L-7,7 L-3,2 Z " fill="#161616" transform="translate(16,8)"/>
<path d="M0,0 L1,0 L0,7 L-3,8 L-6,6 L-1,2 Z " fill="#F4F4F4" transform="translate(20,8)"/>
</svg>
