<?xml version="1.0" encoding="UTF-8"?>
<svg version="1.1" xmlns="http://www.w3.org/2000/svg" width="28" height="28">
<path d="M0,0 L28,0 L28,28 L0,28 Z " fill="#020202" transform="translate(0,0)"/>
<path d="M0,0 L7,1 L8,8 L7,16 L7,18 L9,18 L9,20 L4,19 L3,10 L-4,11 L-5,6 L-3,3 L-1,3 Z " fill="#E5E5E5" transform="translate(12,6)"/>
<path d="M0,0 L3,1 L-1,3 Z M-3,3 L-1,4 L0,5 L5,3 L6,6 L1,11 L-4,11 L-5,6 Z " fill="#D3D3D3" transform="translate(12,6)"/>
<path d="M0,0 L2,0 L3,3 L1,5 L-4,5 L-2,1 Z " fill="#2B2B2B" transform="translate(15,9)"/>
</svg>
