<?xml version="1.0" encoding="UTF-8"?>
<svg version="1.1" xmlns="http://www.w3.org/2000/svg" width="28" height="28">
<path d="M0,0 L28,0 L28,28 L0,28 Z " fill="#050505" transform="translate(0,0)"/>
<path d="M0,0 L5,1 L6,3 L-4,5 L-8,9 L5,6 L5,4 L8,3 L7,8 L-4,20 L-6,20 L-5,16 L1,9 L-3,11 L-10,11 L-11,7 L-9,7 L-8,4 Z " fill="#C4C4C4" transform="translate(15,6)"/>
<path d="M0,0 L1,4 L-11,17 L-13,17 L-12,13 L-5,5 L-4,3 L-2,3 L-2,1 Z " fill="#E8E8E8" transform="translate(22,9)"/>
<path d="M0,0 L5,1 L6,3 L-4,5 L-8,7 L-8,4 Z " fill="#DBDBDB" transform="translate(15,6)"/>
</svg>
