<?xml version="1.0" encoding="UTF-8"?>
<svg version="1.1" xmlns="http://www.w3.org/2000/svg" width="28" height="28">
<path d="M0,0 L28,0 L28,28 L0,28 Z " fill="#060606" transform="translate(0,0)"/>
<path d="M0,0 L7,1 L10,4 L10,13 L5,19 L0,20 L-2,19 L-2,15 L0,15 L0,17 L4,17 L6,12 L7,7 L6,4 L-4,6 L-6,9 L4,7 L3,10 L0,12 L-8,12 L-9,7 L-4,1 Z " fill="#EDEDED" transform="translate(13,6)"/>
<path d="M0,0 L3,1 L1,2 L2,4 L-2,8 L8,6 L7,9 L4,11 L-4,11 L-5,6 Z " fill="#D7D7D7" transform="translate(9,7)"/>
</svg>
