<?xml version="1.0" encoding="UTF-8"?>
<svg version="1.1" xmlns="http://www.w3.org/2000/svg" width="28" height="28">
<path d="M0,0 L28,0 L28,28 L0,28 Z " fill="#020202" transform="translate(0,0)"/>
<path d="M0,0 L5,0 L6,4 L-2,14 L-4,14 L-6,19 L-10,20 L-9,16 L-4,10 L-7,8 L-6,4 Z " fill="#EFEFEF" transform="translate(17,6)"/>
<path d="M0,0 L5,0 L6,4 L3,7 L-1,4 L3,3 L3,1 Z " fill="#A3A3A3" transform="translate(17,6)"/>
<path d="M0,0 L3,0 L2,4 L-1,7 L-3,7 L-2,3 Z " fill="#D6D6D6" transform="translate(10,19)"/>
</svg>
