<?xml version="1.0" encoding="UTF-8"?>
<svg version="1.1" xmlns="http://www.w3.org/2000/svg" width="28" height="28">
<path d="M0,0 L28,0 L28,28 L0,28 Z " fill="#020202" transform="translate(0,0)"/>
<path d="M0,0 L3,0 L3,3 L0,3 L0,8 L6,6 L5,1 L9,2 L10,3 L10,12 L9,19 L7,20 L7,8 L5,10 L-1,10 L-3,7 L-2,2 Z " fill="#E1E1E1" transform="translate(9,7)"/>
<path d="M0,0 L4,4 L3,7 L-3,8 L-3,3 L0,3 Z " fill="#1B1B1B" transform="translate(12,7)"/>
<path d="M0,0 L3,0 L3,3 L0,3 L0,8 L-3,7 L-2,2 Z " fill="#B7B7B7" transform="translate(9,7)"/>
</svg>
