<?xml version="1.0" encoding="UTF-8"?>
<svg version="1.1" xmlns="http://www.w3.org/2000/svg" width="28" height="28">
<path d="M0,0 L28,0 L28,28 L0,28 Z " fill="#010101" transform="translate(0,0)"/>
<path d="M0,0 L4,1 L3,9 L-2,20 L-5,20 L-3,15 L-1,10 L-6,10 L-5,4 Z " fill="#BFBFBF" transform="translate(16,6)"/>
<path d="M0,0 L1,4 L-4,15 L-7,15 L-5,10 L-3,5 L-8,5 L-7,2 L-7,4 L-1,1 Z " fill="#D9D9D9" transform="translate(18,11)"/>
<path d="M0,0 L2,0 L1,5 L-4,7 L-3,2 Z " fill="#111111" transform="translate(16,8)"/>
</svg>
