<?xml version="1.0" encoding="UTF-8"?>
<svg version="1.1" xmlns="http://www.w3.org/2000/svg" width="28" height="28">
<path d="M0,0 L28,0 L28,28 L0,28 Z " fill="#010101" transform="translate(0,0)"/>
<path d="M0,0 L6,0 L8,1 L7,14 L5,20 L4,20 L4,12 L5,5 L-2,6 L-3,2 Z " fill="#C8C8C8" transform="translate(11,7)"/>
<path d="M0,0 L6,0 L6,10 L4,16 L3,16 L3,8 L4,1 Z " fill="#D6D6D6" transform="translate(12,11)"/>
<path d="M0,0 L4,1 L4,3 L-4,3 L-3,1 Z " fill="#222222" transform="translate(13,8)"/>
</svg>
