<?xml version="1.0" encoding="UTF-8"?>
<svg version="1.1" xmlns="http://www.w3.org/2000/svg" width="28" height="28">
<path d="M0,0 L28,0 L28,28 L0,28 Z " fill="#030303" transform="translate(0,0)"/>
<path d="M0,0 L7,0 L8,4 L10,4 L9,9 L2,17 L-1,20 L-3,19 L6,9 L6,7 L4,8 L-6,8 L-6,3 Z " fill="#D9D9D9" transform="translate(12,7)"/>
<path d="M0,0 L6,0 L8,2 L4,4 L-4,4 Z " fill="#111111" transform="translate(11,9)"/>
<path d="M0,0 L3,2 L-2,4 L-10,3 L-10,2 Z " fill="#A5A5A5" transform="translate(18,11)"/>
</svg>
