<?xml version="1.0" encoding="UTF-8"?>
<svg version="1.1" xmlns="http://www.w3.org/2000/svg" width="28" height="28">
<path d="M0,0 L28,0 L28,28 L0,28 Z " fill="#030303" transform="translate(0,0)"/>
<path d="M0,0 L10,0 L11,5 L7,10 L0,20 L-1,17 L4,9 L-6,9 L-7,4 L-3,1 Z " fill="#DBDBDB" transform="translate(12,7)"/>
<path d="M0,0 L9,0 L9,2 L2,5 L-6,5 L-6,2 Z " fill="#0B0B0B" transform="translate(13,9)"/>
<path d="M0,0 L10,0 L9,2 L-5,4 L-5,7 L0,7 L-4,9 L-7,8 L-6,3 Z " fill="#C1C1C1" transform="translate(12,7)"/>
</svg>
