<?xml version="1.0" encoding="UTF-8"?>
<svg version="1.1" xmlns="http://www.w3.org/2000/svg" width="28" height="28">
<path d="M0,0 L28,0 L28,28 L0,28 Z " fill="#020202" transform="translate(0,0)"/>
<path d="M0,0 L6,0 L9,2 L7,6 L1,20 L-1,19 L2,9 L-4,9 L-5,5 Z " fill="#E0E0E0" transform="translate(12,7)"/>
<path d="M0,0 L5,0 L4,5 L-3,5 L-1,1 Z " fill="#131313" transform="translate(12,9)"/>
<path d="M0,0 L5,1 L5,2 L-1,4 L-3,7 L1,8 L-4,9 L-5,5 Z " fill="#B0B0B0" transform="translate(12,7)"/>
</svg>
