<?xml version="1.0" encoding="UTF-8"?>
<svg version="1.1" xmlns="http://www.w3.org/2000/svg" width="28" height="28">
<path d="M0,0 L28,0 L28,28 L0,28 Z " fill="#020202" transform="translate(0,0)"/>
<path d="M0,0 L5,0 L6,4 L3,5 L3,3 L-3,6 L-4,9 L1,8 L4,7 L6,20 L3,20 L1,12 L-5,10 L-6,5 Z " fill="#EBEBEB" transform="translate(14,6)"/>
<path d="M0,0 L3,0 L4,4 L-1,7 L-4,6 L-3,2 Z " fill="#1D1D1D" transform="translate(14,9)"/>
<path d="M0,0 L5,0 L6,4 L3,5 L3,3 L-1,4 Z " fill="#C8C8C8" transform="translate(14,6)"/>
</svg>
