<?xml version="1.0" encoding="UTF-8"?>
<svg version="1.1" xmlns="http://www.w3.org/2000/svg" width="28" height="28">
<path d="M0,0 L28,0 L28,28 L0,28 Z " fill="#010101" transform="translate(0,0)"/>
<path d="M0,0 L6,1 L8,6 L7,20 L4,19 L4,12 L0,13 L-4,10 L-4,4 Z " fill="#DEDEDE" transform="translate(12,6)"/>
<path d="M0,0 L3,0 L3,14 L0,13 L-1,6 L-4,4 L-1,3 Z " fill="#D1D1D1" transform="translate(16,12)"/>
<path d="M0,0 L4,1 L6,4 L3,4 L2,8 L-2,8 L-2,2 Z " fill="#121212" transform="translate(13,8)"/>
<path d="M0,0 L2,4 L2,11 L-1,10 L-1,1 Z " fill="#F4F4F4" transform="translate(17,15)"/>
</svg>
