<?xml version="1.0" encoding="UTF-8"?>
<svg version="1.1" xmlns="http://www.w3.org/2000/svg" width="28" height="28">
<path d="M0,0 L28,0 L28,28 L0,28 Z " fill="#010101" transform="translate(0,0)"/>
<path d="M0,0 L7,1 L6,8 L2,15 L0,20 L-2,20 L-2,15 L0,12 L-4,11 L-5,5 Z " fill="#E0E0E0" transform="translate(14,6)"/>
<path d="M0,0 L2,0 L3,3 L7,2 L10,1 L9,7 L5,15 L3,15 L3,10 L5,7 L1,6 Z " fill="#E6E6E6" transform="translate(9,11)"/>
<path d="M0,0 L2,0 L3,5 L0,7 L-4,6 L-3,2 Z " fill="#1C1C1C" transform="translate(15,8)"/>
</svg>
