<?xml version="1.0" encoding="UTF-8"?>
<svg version="1.1" xmlns="http://www.w3.org/2000/svg" width="28" height="28">
<path d="M0,0 L28,0 L28,28 L0,28 Z " fill="#010101" transform="translate(0,0)"/>
<path d="M0,0 L1,0 L3,14 L4,16 L3,19 L0,19 L0,8 L-5,8 L-6,3 L-5,6 L-1,5 Z " fill="#E8E8E8" transform="translate(15,7)"/>
<path d="M0,0 L3,0 L3,6 L-2,7 L-3,3 Z " fill="#636363" transform="translate(12,6)"/>
<path d="M0,0 L1,0 L2,5 L3,7 L2,10 L-1,10 Z " fill="#A2A2A2" transform="translate(16,16)"/>
</svg>
