<?xml version="1.0" encoding="UTF-8"?>
<svg version="1.1" xmlns="http://www.w3.org/2000/svg" width="28" height="28">
<path d="M0,0 L28,0 L28,28 L0,28 Z " fill="#020202" transform="translate(0,0)"/>
<path d="M0,0 L6,0 L6,6 L0,15 L-3,20 L-5,20 L-4,15 L-1,11 L-6,9 L-5,5 Z " fill="#D2D2D2" transform="translate(15,6)"/>
<path d="M0,0 L2,0 L1,4 L-4,13 L-6,16 L-8,16 L-7,11 L-4,7 L-8,6 L-7,3 L-1,3 Z " fill="#E7E7E7" transform="translate(18,10)"/>
<path d="M0,0 L3,0 L1,5 L-4,6 L-2,2 Z " fill="#141414" transform="translate(16,8)"/>
</svg>
