<?xml version="1.0" encoding="UTF-8"?>
<svg version="1.1" xmlns="http://www.w3.org/2000/svg" width="28" height="28">
<path d="M0,0 L28,0 L28,28 L0,28 Z " fill="#020202" transform="translate(0,0)"/>
<path d="M0,0 L5,1 L7,4 L1,3 L-1,10 L3,8 L7,9 L9,20 L6,20 L5,10 L1,12 L-3,11 L-3,4 Z " fill="#F2F2F2" transform="translate(12,5)"/>
<path d="M0,0 L2,3 L3,11 L0,11 L-1,2 Z " fill="#CDCDCD" transform="translate(18,14)"/>
<path d="M0,0 L5,1 L7,4 L1,3 L-1,6 L-3,6 L-1,1 Z " fill="#D2D2D2" transform="translate(12,5)"/>
</svg>
