<?xml version="1.0" encoding="UTF-8"?>
<svg version="1.1" xmlns="http://www.w3.org/2000/svg" width="28" height="28">
<path d="M0,0 L28,0 L28,28 L0,28 Z " fill="#010101" transform="translate(0,0)"/>
<path d="M0,0 L5,1 L4,4 L4,2 L0,3 L-3,10 L1,10 L2,7 L4,7 L5,20 L3,20 L2,18 L2,12 L-3,13 L-6,11 L-5,5 Z " fill="#D8D8D8" transform="translate(14,5)"/>
<path d="M0,0 L2,0 L3,10 L1,10 L0,8 L0,2 L-4,1 Z " fill="#E4E4E4" transform="translate(16,15)"/>
<path d="M0,0 L2,0 L2,3 L-2,6 L-7,5 L-8,1 L-6,1 L-6,3 L-1,3 Z " fill="#B6B6B6" transform="translate(16,12)"/>
</svg>
