<?xml version="1.0" encoding="UTF-8"?>
<svg version="1.1" xmlns="http://www.w3.org/2000/svg" width="28" height="28">
<path d="M0,0 L28,0 L28,28 L0,28 Z " fill="#030303" transform="translate(0,0)"/>
<path d="M0,0 L1,0 L1,8 L0,15 L-2,15 L-2,5 L-8,6 L-8,4 Z " fill="#EAEAEA" transform="translate(18,11)"/>
<path d="M0,0 L7,1 L7,3 L1,3 L-2,4 L-3,9 L-5,9 L-3,2 Z " fill="#DADADA" transform="translate(13,6)"/>
<path d="M0,0 L2,1 L1,6 L0,4 L-6,5 L-6,3 Z " fill="#C6C6C6" transform="translate(16,12)"/>
</svg>
