<?xml version="1.0" encoding="UTF-8"?>
<svg version="1.1" xmlns="http://www.w3.org/2000/svg" width="28" height="28">
<path d="M0,0 L28,0 L28,28 L0,28 Z " fill="#010101" transform="translate(0,0)"/>
<path d="M0,0 L6,1 L6,6 L4,6 L1,15 L-2,20 L-4,20 L-1,10 L-3,8 L-3,2 Z " fill="#E1E1E1" transform="translate(14,6)"/>
<path d="M0,0 L2,1 L-4,13 L-6,13 L-3,3 L-1,3 Z " fill="#D2D2D2" transform="translate(16,13)"/>
<path d="M0,0 L5,0 L5,2 L2,5 L-2,5 Z " fill="#282828" transform="translate(14,8)"/>
</svg>
