<?xml version="1.0" encoding="UTF-8"?>
<svg version="1.1" xmlns="http://www.w3.org/2000/svg" width="28" height="28">
<path d="M0,0 L28,0 L28,28 L0,28 Z " fill="#020202" transform="translate(0,0)"/>
<path d="M0,0 L4,1 L4,3 L6,3 L5,11 L1,20 L-1,20 L1,10 L-3,11 L-5,7 L-1,1 Z " fill="#E2E2E2" transform="translate(13,6)"/>
<path d="M0,0 L2,0 L0,4 L-4,5 L-5,7 L-6,4 L-4,2 L-2,2 Z " fill="#818181" transform="translate(14,9)"/>
<path d="M0,0 L3,0 L1,4 L-2,6 L-1,1 Z " fill="#F5F5F5" transform="translate(12,7)"/>
</svg>
