<?xml version="1.0" encoding="UTF-8"?>
<svg version="1.1" xmlns="http://www.w3.org/2000/svg" width="28" height="28">
<path d="M0,0 L28,0 L28,28 L0,28 Z " fill="#020202" transform="translate(0,0)"/>
<path d="M0,0 L6,1 L6,7 L2,13 L-1,20 L-4,20 L-2,15 L0,10 L-6,10 L-6,4 L-3,1 Z " fill="#C8C8C8" transform="translate(15,6)"/>
<path d="M0,0 L1,3 L7,1 L10,0 L9,5 L4,15 L1,15 L3,10 L5,5 L0,5 Z " fill="#EAEAEA" transform="translate(10,11)"/>
<path d="M0,0 L3,0 L2,4 L0,6 L-4,6 L-4,2 Z " fill="#212121" transform="translate(16,8)"/>
</svg>
