<?xml version="1.0" encoding="UTF-8"?>
<svg version="1.1" xmlns="http://www.w3.org/2000/svg" width="28" height="28">
<path d="M0,0 L28,0 L28,28 L0,28 Z " fill="#020202" transform="translate(0,0)"/>
<path d="M0,0 L4,0 L5,6 L-4,18 L-6,20 L-9,20 L-7,16 L-2,10 L-9,8 L-7,3 Z " fill="#D3D3D3" transform="translate(17,6)"/>
<path d="M0,0 L1,3 L-7,14 L-9,16 L-12,16 L-10,12 L-5,6 L-4,2 Z " fill="#EEEEEE" transform="translate(20,10)"/>
<path d="M0,0 L5,0 L3,4 L-4,5 L-3,2 Z " fill="#1A1A1A" transform="translate(15,8)"/>
<path d="M0,0 L1,3 L-3,7 L-6,7 L-4,3 Z " fill="#D6D6D6" transform="translate(14,19)"/>
</svg>
