<?xml version="1.0" encoding="UTF-8"?>
<svg version="1.1" xmlns="http://www.w3.org/2000/svg" width="28" height="28">
<path d="M0,0 L28,0 L28,28 L0,28 Z " fill="#020202" transform="translate(0,0)"/>
<path d="M0,0 L5,0 L7,5 L0,14 L-5,20 L-7,20 L-6,16 L0,9 L-6,9 L-5,4 Z " fill="#E4E4E4" transform="translate(15,6)"/>
<path d="M0,0 L4,1 L-1,5 L2,7 L1,8 L-4,8 L-3,3 Z " fill="#E7E7E7" transform="translate(13,7)"/>
<path d="M0,0 L4,0 L4,3 L0,5 L-4,4 Z " fill="#212121" transform="translate(15,8)"/>
<path d="M0,0 L2,1 L0,5 L-3,6 L-2,2 Z " fill="#D4D4D4" transform="translate(11,20)"/>
</svg>
