<?xml version="1.0" encoding="UTF-8"?>
<svg version="1.1" xmlns="http://www.w3.org/2000/svg" width="28" height="28">
<path d="M0,0 L28,0 L28,28 L0,28 Z " fill="#030303" transform="translate(0,0)"/>
<path d="M0,0 L6,0 L11,5 L9,12 L5,20 L2,20 L3,15 L-4,14 L-7,12 L-6,4 Z " fill="#EDEDED" transform="translate(12,6)"/>
<path d="M0,0 L6,0 L7,5 L4,9 L-4,9 L-4,3 Z " fill="#0A0A0A" transform="translate(12,9)"/>
<path d="M0,0 L3,1 L5,3 L-2,5 L-4,12 L2,12 L2,13 L-4,14 L-7,12 L-6,4 Z " fill="#D7D7D7" transform="translate(12,6)"/>
</svg>
