<?xml version="1.0" encoding="UTF-8"?>
<svg version="1.1" xmlns="http://www.w3.org/2000/svg" width="28" height="28">
<path d="M0,0 L28,0 L28,28 L0,28 Z " fill="#030303" transform="translate(0,0)"/>
<path d="M0,0 L5,0 L8,2 L7,7 L5,17 L7,17 L6,20 L3,20 L2,12 L-4,13 L-7,11 L-6,6 Z " fill="#D0D0D0" transform="translate(13,6)"/>
<path d="M0,0 L4,1 L6,2 L5,7 L3,17 L5,17 L4,20 L1,20 L2,10 L0,10 L1,7 L3,7 L3,2 L-1,1 Z " fill="#E9E9E9" transform="translate(15,6)"/>
<path d="M0,0 L3,0 L3,5 L-2,8 L-6,8 L-4,3 Z " fill="#0F0F0F" transform="translate(15,8)"/>
</svg>
