<?xml version="1.0" encoding="UTF-8"?>
<svg version="1.1" xmlns="http://www.w3.org/2000/svg" width="28" height="28">
<path d="M0,0 L28,0 L28,28 L0,28 Z " fill="#020202" transform="translate(0,0)"/>
<path d="M0,0 L7,0 L10,3 L9,8 L7,20 L5,20 L5,11 L-3,9 L-4,4 Z " fill="#E1E1E1" transform="translate(10,7)"/>
<path d="M0,0 L7,0 L7,2 L-1,4 L-1,7 L5,8 L4,10 L-3,9 L-4,4 Z " fill="#ECECEC" transform="translate(10,7)"/>
<path d="M0,0 L5,1 L3,5 L2,6 L-3,6 L-4,2 Z " fill="#141414" transform="translate(12,9)"/>
</svg>
