<?xml version="1.0" encoding="UTF-8"?>
<svg version="1.1" xmlns="http://www.w3.org/2000/svg" width="28" height="28">
<path d="M0,0 L28,0 L28,28 L0,28 Z " fill="#030303" transform="translate(0,0)"/>
<path d="M0,0 L9,0 L10,1 L9,14 L6,19 L4,20 L-4,20 L-6,18 L-6,14 L-4,14 L-4,17 L4,16 L7,9 L0,9 L-2,7 L-2,2 L0,2 Z " fill="#EBEBEB" transform="translate(11,5)"/>
<path d="M0,0 L2,0 L2,3 L10,2 L14,1 L12,5 L10,6 L2,6 L0,4 Z " fill="#D7D7D7" transform="translate(5,19)"/>
<path d="M0,0 L5,0 L5,4 L3,4 L3,6 L-2,6 L-1,1 Z " fill="#222222" transform="translate(13,6)"/>
</svg>
