<?xml version="1.0" encoding="UTF-8"?>
<svg version="1.1" xmlns="http://www.w3.org/2000/svg" width="28" height="28">
<path d="M0,0 L28,0 L28,28 L0,28 Z " fill="#020202" transform="translate(0,0)"/>
<path d="M0,0 L4,1 L6,6 L3,5 L1,20 L-1,20 L-1,14 L0,12 L-6,13 L-7,7 L-3,1 Z " fill="#1D1D1D" transform="translate(16,6)"/>
<path d="M0,0 L2,2 L0,15 L-2,15 L-2,9 L-1,7 L-7,8 L-8,2 L-7,5 L-2,3 Z " fill="#E1E1E1" transform="translate(17,11)"/>
<path d="M0,0 L4,1 L4,3 L-2,4 L-6,7 L-4,2 Z " fill="#C4C4C4" transform="translate(16,6)"/>
</svg>
