<?xml version="1.0" encoding="UTF-8"?>
<svg version="1.1" xmlns="http://www.w3.org/2000/svg" width="28" height="28">
<path d="M0,0 L28,0 L28,28 L0,28 Z " fill="#010101" transform="translate(0,0)"/>
<path d="M0,0 L4,1 L2,2 L2,8 L5,7 L6,0 L9,0 L11,15 L12,20 L10,20 L7,12 L6,10 L2,11 L0,9 Z " fill="#DFDFDF" transform="translate(8,6)"/>
<path d="M0,0 L2,0 L2,7 L-2,9 L-3,8 L-3,2 Z " fill="#171717" transform="translate(12,6)"/>
<path d="M0,0 L1,0 L3,15 L4,20 L2,20 L-1,12 Z " fill="#C3C3C3" transform="translate(16,6)"/>
</svg>
