<?xml version="1.0" encoding="UTF-8"?>
<svg version="1.1" xmlns="http://www.w3.org/2000/svg" width="28" height="28">
<path d="M0,0 L28,0 L28,28 L0,28 Z " fill="#040404" transform="translate(0,0)"/>
<path d="M0,0 L7,1 L12,11 L12,17 L9,20 L4,19 L4,16 L8,17 L9,12 L8,10 L-2,9 L-4,6 L-3,2 Z " fill="#D9D9D9" transform="translate(10,6)"/>
<path d="M0,0 L4,1 L5,3 L5,9 L2,12 L-3,11 L-3,8 L1,9 L2,4 Z " fill="#DEDEDE" transform="translate(17,14)"/>
<path d="M0,0 L5,1 L5,5 L-1,5 L-2,1 Z " fill="#171717" transform="translate(11,8)"/>
</svg>
