<?xml version="1.0" encoding="UTF-8"?>
<svg version="1.1" xmlns="http://www.w3.org/2000/svg" width="28" height="28">
<path d="M0,0 L28,0 L28,28 L0,28 Z " fill="#020202" transform="translate(0,0)"/>
<path d="M0,0 L5,1 L7,5 L6,11 L1,20 L-2,19 L2,12 L-2,10 L-2,3 Z " fill="#C7C7C7" transform="translate(12,6)"/>
<path d="M0,0 L3,0 L4,7 L0,8 L-1,3 Z " fill="#1A1A1A" transform="translate(13,8)"/>
<path d="M0,0 L5,1 L7,5 L6,11 L3,14 L4,5 L4,2 L0,2 Z " fill="#EEEEEE" transform="translate(12,6)"/>
</svg>
