<?xml version="1.0" encoding="UTF-8"?>
<svg version="1.1" xmlns="http://www.w3.org/2000/svg" width="28" height="28">
<path d="M0,0 L28,0 L28,28 L0,28 Z " fill="#010101" transform="translate(0,0)"/>
<path d="M0,0 L7,0 L8,5 L5,6 L5,3 L-3,4 L-3,7 L4,7 L12,5 L13,6 L13,18 L12,20 L10,20 L10,8 L6,10 L-3,10 L-6,7 L-5,2 Z " fill="#D4D4D4" transform="translate(9,7)"/>
<path d="M0,0 L3,1 L3,13 L2,15 L0,15 L0,3 L-2,4 L-11,4 L-11,3 Z " fill="#E7E7E7" transform="translate(19,12)"/>
<path d="M0,0 L3,1 L2,6 L0,6 L0,3 L-5,3 L-5,2 L0,1 Z " fill="#B9B9B9" transform="translate(14,7)"/>
</svg>
