<?xml version="1.0" encoding="UTF-8"?>
<svg version="1.1" xmlns="http://www.w3.org/2000/svg" width="28" height="28">
<path d="M0,0 L28,0 L28,28 L0,28 Z " fill="#010101" transform="translate(0,0)"/>
<path d="M0,0 L6,1 L6,8 L2,20 L0,20 L0,14 L-4,13 L-5,12 L-5,6 Z " fill="#D7D7D7" transform="translate(13,6)"/>
<path d="M0,0 L3,1 L1,7 L-2,8 L-3,10 L-4,6 L-1,1 Z " fill="#141414" transform="translate(14,8)"/>
<path d="M0,0 L4,1 L4,8 L1,8 L1,3 L-1,1 Z " fill="#E8E8E8" transform="translate(15,6)"/>
</svg>
