<?xml version="1.0" encoding="UTF-8"?>
<svg version="1.1" xmlns="http://www.w3.org/2000/svg" width="28" height="28">
<path d="M0,0 L28,0 L28,28 L0,28 Z " fill="#020202" transform="translate(0,0)"/>
<path d="M0,0 L7,0 L12,3 L12,7 L10,7 L8,12 L4,16 L2,20 L-1,20 L0,15 L1,12 L-4,12 L-5,7 L-1,1 Z " fill="#EAEAEA" transform="translate(11,6)"/>
<path d="M0,0 L6,0 L5,5 L-3,6 L-1,1 Z " fill="#0B0B0B" transform="translate(12,9)"/>
<path d="M0,0 L6,2 L6,3 L0,5 L-3,10 L-5,10 L-4,5 Z " fill="#D1D1D1" transform="translate(11,6)"/>
</svg>
