<?xml version="1.0" encoding="UTF-8"?>
<svg version="1.1" xmlns="http://www.w3.org/2000/svg" width="28" height="28">
<path d="M0,0 L28,0 L28,28 L0,28 Z " fill="#020202" transform="translate(0,0)"/>
<path d="M0,0 L6,0 L8,6 L5,12 L3,12 L1,17 L-1,20 L-4,20 L-4,17 L-2,17 L-1,13 L-6,13 L-6,7 L-3,2 Z " fill="#D8D8D8" transform="translate(14,6)"/>
<path d="M0,0 L2,0 L3,5 L0,11 L-2,11 L-4,16 L-6,19 L-9,19 L-9,16 L-7,16 L-6,12 L-11,12 L-10,8 L-9,10 L-5,9 L-1,5 Z " fill="#E9E9E9" transform="translate(19,7)"/>
<path d="M0,0 L4,0 L4,4 L-3,7 L-2,3 Z " fill="#121212" transform="translate(14,9)"/>
<path d="M0,0 L1,2 L3,3 L0,7 L-3,7 L-3,4 L-1,4 Z " fill="#CFCFCF" transform="translate(13,19)"/>
</svg>
