<?xml version="1.0" encoding="UTF-8"?>
<svg version="1.1" xmlns="http://www.w3.org/2000/svg" width="28" height="28">
<path d="M0,0 L28,0 L28,28 L0,28 Z " fill="#030303" transform="translate(0,0)"/>
<path d="M0,0 L4,1 L6,4 L6,9 L0,19 L-4,20 L-3,16 L1,11 L-6,11 L-5,4 Z " fill="#D5D5D5" transform="translate(15,5)"/>
<path d="M0,0 L2,0 L0,5 L-1,8 L2,8 L2,10 L-4,10 L-3,3 Z " fill="#E8E8E8" transform="translate(13,6)"/>
<path d="M0,0 L1,3 L-2,8 L-5,8 L-4,4 Z " fill="#E7E7E7" transform="translate(16,17)"/>
<path d="M0,0 L3,0 L4,4 L1,6 L-2,6 L-1,1 Z " fill="#111111" transform="translate(14,8)"/>
</svg>
