<?xml version="1.0" encoding="UTF-8"?>
<svg version="1.1" xmlns="http://www.w3.org/2000/svg" width="28" height="28">
<path d="M0,0 L28,0 L28,28 L0,28 Z " fill="#020202" transform="translate(0,0)"/>
<path d="M0,0 L5,1 L6,2 L6,7 L-1,16 L-4,20 L-6,20 L-5,16 L-1,11 L-7,10 L-6,6 L-2,1 Z " fill="#DEDEDE" transform="translate(15,6)"/>
<path d="M0,0 L5,1 L6,2 L6,7 L4,6 L0,8 L-4,7 L-4,4 Z " fill="#CBCBCB" transform="translate(15,6)"/>
<path d="M0,0 L2,0 L1,5 L-5,6 L-3,2 Z " fill="#111111" transform="translate(16,8)"/>
</svg>
