<?xml version="1.0" encoding="UTF-8"?>
<svg version="1.1" xmlns="http://www.w3.org/2000/svg" width="28" height="28">
<path d="M0,0 L28,0 L28,28 L0,28 Z " fill="#030303" transform="translate(0,0)"/>
<path d="M0,0 L7,1 L8,3 L7,19 L3,19 L5,12 L3,13 L-3,13 L-4,5 Z " fill="#DADADA" transform="translate(12,6)"/>
<path d="M0,0 L5,1 L3,7 L-2,8 L-2,2 Z " fill="#0C0C0C" transform="translate(13,9)"/>
<path d="M0,0 L1,0 L1,12 L-3,12 L-1,5 L-3,5 L-1,1 Z " fill="#EBEBEB" transform="translate(18,13)"/>
<path d="M0,0 L1,0 L1,6 L5,6 L5,8 L-1,8 Z " fill="#C3C3C3" transform="translate(10,11)"/>
</svg>
