<?xml version="1.0" encoding="UTF-8"?>
<svg version="1.1" xmlns="http://www.w3.org/2000/svg" width="28" height="28">
<path d="M0,0 L28,0 L28,28 L0,28 Z " fill="#020202" transform="translate(0,0)"/>
<path d="M0,0 L4,1 L3,4 L5,13 L4,18 L1,20 L-5,20 L-6,18 L1,17 L3,12 L-5,12 L-7,10 L-6,4 L-3,1 Z " fill="#D9D9D9" transform="translate(15,5)"/>
<path d="M0,0 L2,0 L4,4 L4,7 L-2,8 L-3,3 Z " fill="#141414" transform="translate(13,8)"/>
<path d="M0,0 L1,4 L-3,7 L-9,7 L-10,5 L-3,4 L0,3 Z " fill="#BEBEBE" transform="translate(19,18)"/>
</svg>
