<?xml version="1.0" encoding="UTF-8"?>
<svg version="1.1" xmlns="http://www.w3.org/2000/svg" width="28" height="28">
<path d="M0,0 L28,0 L28,28 L0,28 Z " fill="#020202" transform="translate(0,0)"/>
<path d="M0,0 L4,1 L7,4 L8,11 L6,16 L8,15 L7,18 L4,20 L0,19 L2,12 L-3,12 L-5,9 L-4,2 Z " fill="#E1E1E1" transform="translate(12,5)"/>
<path d="M0,0 L4,1 L7,4 L7,7 L3,9 L-2,8 L-3,6 L-5,9 L-4,2 Z " fill="#CECECE" transform="translate(12,5)"/>
<path d="M0,0 L5,0 L4,4 L3,5 L-2,5 L-1,1 Z " fill="#191919" transform="translate(12,8)"/>
</svg>
