<?xml version="1.0" encoding="UTF-8"?>
<svg version="1.1" xmlns="http://www.w3.org/2000/svg" width="28" height="28">
<path d="M0,0 L28,0 L28,28 L0,28 Z " fill="#020202" transform="translate(0,0)"/>
<path d="M0,0 L6,0 L6,2 L10,3 L9,7 L2,16 L0,20 L-4,20 L-3,16 L2,10 L-4,10 L-6,9 L-4,4 Z " fill="#D8D8D8" transform="translate(13,6)"/>
<path d="M0,0 L5,0 L1,4 L-1,4 L-1,6 L4,7 L0,10 L-6,9 L-4,4 Z " fill="#E1E1E1" transform="translate(13,6)"/>
<path d="M0,0 L5,0 L4,3 L-3,4 L-2,1 Z " fill="#141414" transform="translate(14,9)"/>
</svg>
