<?xml version="1.0" encoding="UTF-8"?>
<svg version="1.1" xmlns="http://www.w3.org/2000/svg" width="28" height="28">
<path d="M0,0 L28,0 L28,28 L0,28 Z " fill="#030303" transform="translate(0,0)"/>
<path d="M0,0 L8,1 L10,3 L9,7 L8,20 L6,20 L6,13 L3,15 L-4,14 L-6,12 L-6,4 Z " fill="#E4E4E4" transform="translate(12,6)"/>
<path d="M0,0 L4,1 L3,8 L1,10 L-6,9 L-5,2 Z " fill="#080808" transform="translate(14,8)"/>
<path d="M0,0 L1,4 L7,5 L8,8 L1,7 L-1,3 Z " fill="#BBBBBB" transform="translate(7,13)"/>
</svg>
