<?xml version="1.0" encoding="UTF-8"?>
<svg version="1.1" xmlns="http://www.w3.org/2000/svg" width="28" height="28">
<path d="M0,0 L28,0 L28,28 L0,28 Z " fill="#020202" transform="translate(0,0)"/>
<path d="M0,0 L6,0 L8,3 L4,11 L-3,20 L-5,20 L-3,15 L1,9 L-6,9 L-8,7 L-7,3 Z " fill="#DDDDDD" transform="translate(14,7)"/>
<path d="M0,0 L5,0 L4,4 L-5,5 L-5,2 Z " fill="#101010" transform="translate(14,9)"/>
<path d="M0,0 L4,2 L-1,4 L-1,5 L4,6 L1,8 L-3,7 L-4,3 Z " fill="#C6C6C6" transform="translate(10,8)"/>
</svg>
