<?xml version="1.0" encoding="UTF-8"?>
<svg version="1.1" xmlns="http://www.w3.org/2000/svg" width="28" height="28">
<path d="M0,0 L28,0 L28,28 L0,28 Z " fill="#020202" transform="translate(0,0)"/>
<path d="M0,0 L7,0 L12,2 L10,7 L2,17 L0,20 L-2,20 L-1,16 L4,9 L-1,8 L-2,7 L-2,2 Z " fill="#D5D5D5" transform="translate(11,7)"/>
<path d="M0,0 L1,3 L-8,15 L-10,15 L-9,11 Z " fill="#DFDFDF" transform="translate(19,12)"/>
<path d="M0,0 L6,0 L6,3 L4,5 L-1,4 Z " fill="#090909" transform="translate(12,9)"/>
</svg>
