<?xml version="1.0" encoding="UTF-8"?>
<svg version="1.1" xmlns="http://www.w3.org/2000/svg" width="28" height="28">
<path d="M0,0 L28,0 L28,28 L0,28 Z " fill="#020202" transform="translate(0,0)"/>
<path d="M0,0 L8,1 L11,3 L11,5 L14,6 L17,18 L13,18 L12,12 L10,13 L4,13 L-3,7 L-3,2 Z " fill="#E5E5E5" transform="translate(7,7)"/>
<path d="M0,0 L8,1 L11,4 L9,6 L4,4 L1,4 L3,9 L1,11 L-3,7 L-3,2 Z " fill="#EAEAEA" transform="translate(7,7)"/>
<path d="M0,0 L5,1 L9,3 L9,5 L2,6 L-1,3 Z " fill="#191919" transform="translate(8,10)"/>
</svg>
