<?xml version="1.0" encoding="UTF-8"?>
<svg version="1.1" xmlns="http://www.w3.org/2000/svg" width="28" height="28">
<path d="M0,0 L28,0 L28,28 L0,28 Z " fill="#020202" transform="translate(0,0)"/>
<path d="M0,0 L5,1 L4,3 L-2,4 L-4,8 L1,6 L2,4 L4,4 L2,9 L-1,16 L1,17 L-2,20 L-5,20 L-4,15 L-1,10 L-5,9 L-6,6 L-1,1 Z " fill="#DBDBDB" transform="translate(15,5)"/>
<path d="M0,0 L6,0 L6,2 L2,2 L0,6 L-4,6 L-2,1 Z " fill="#1D1D1D" transform="translate(15,7)"/>
<path d="M0,0 L2,2 L4,4 L1,7 L-2,7 L-1,2 Z " fill="#D0D0D0" transform="translate(12,18)"/>
</svg>
