<?xml version="1.0" encoding="UTF-8"?>
<svg version="1.1" xmlns="http://www.w3.org/2000/svg" width="28" height="28">
<path d="M0,0 L28,0 L28,28 L0,28 Z " fill="#020202" transform="translate(0,0)"/>
<path d="M0,0 L7,0 L10,3 L8,7 L2,19 L-1,20 L1,14 L3,9 L-3,9 L-4,5 Z " fill="#D3D3D3" transform="translate(11,7)"/>
<path d="M0,0 L6,0 L5,4 L3,5 L-3,5 L-1,1 Z " fill="#121212" transform="translate(12,9)"/>
<path d="M0,0 L5,0 L8,3 L6,7 L3,11 L2,9 L5,2 L0,1 Z " fill="#EBEBEB" transform="translate(13,7)"/>
<path d="M0,0 L2,0 L1,5 L-1,8 L-3,8 L-1,2 Z " fill="#E3E3E3" transform="translate(13,19)"/>
<path d="M0,0 L2,1 L1,4 L2,6 L0,8 L-1,2 L-5,1 Z " fill="#B5B5B5" transform="translate(15,13)"/>
</svg>
