<?xml version="1.0" encoding="UTF-8"?>
<svg version="1.1" xmlns="http://www.w3.org/2000/svg" width="28" height="28">
<path d="M0,0 L28,0 L28,28 L0,28 Z " fill="#040404" transform="translate(0,0)"/>
<path d="M0,0 L5,1 L5,3 L0,4 L-1,7 L5,4 L8,4 L7,10 L7,19 L4,19 L3,9 L-3,9 L-4,5 L-2,1 Z " fill="#EAEAEA" transform="translate(12,6)"/>
<path d="M0,0 L1,0 L2,13 L-1,13 L-1,1 Z " fill="#F4F4F4" transform="translate(17,12)"/>
<path d="M0,0 L5,1 L5,3 L0,4 L-2,7 L-3,3 Z M-4,5 Z " fill="#CCCCCC" transform="translate(12,6)"/>
</svg>
