<?xml version="1.0" encoding="UTF-8"?>
<svg version="1.1" xmlns="http://www.w3.org/2000/svg" width="28" height="28">
<path d="M0,0 L28,0 L28,28 L0,28 Z " fill="#030303" transform="translate(0,0)"/>
<path d="M0,0 L7,1 L6,6 L1,17 L0,20 L-2,20 L-1,14 L1,10 L-5,8 L-5,3 Z " fill="#D1D1D1" transform="translate(14,7)"/>
<path d="M0,0 L1,3 L9,3 L8,8 L5,16 L3,16 L4,10 L6,6 L0,4 Z " fill="#E3E3E3" transform="translate(9,11)"/>
<path d="M0,0 L5,0 L4,4 L-3,5 L-2,1 Z " fill="#101010" transform="translate(14,9)"/>
</svg>
