<?xml version="1.0" encoding="UTF-8"?>
<svg version="1.1" xmlns="http://www.w3.org/2000/svg" width="28" height="28">
<path d="M0,0 L28,0 L28,28 L0,28 Z " fill="#010101" transform="translate(0,0)"/>
<path d="M0,0 L4,0 L1,12 L2,14 L-2,20 L-4,20 L-3,13 L-3,10 L-8,9 L-7,5 Z " fill="#C0C0C0" transform="translate(16,6)"/>
<path d="M0,0 L4,0 L3,5 L-2,4 L-5,6 L-6,9 L-4,10 L-8,9 L-7,5 Z " fill="#E5E5E5" transform="translate(16,6)"/>
<path d="M0,0 L3,0 L1,4 L-4,5 L-2,1 Z " fill="#1D1D1D" transform="translate(14,9)"/>
</svg>
