<?xml version="1.0" encoding="UTF-8"?>
<svg version="1.1" xmlns="http://www.w3.org/2000/svg" width="28" height="28">
<path d="M0,0 L28,0 L28,28 L0,28 Z " fill="#010101" transform="translate(0,0)"/>
<path d="M0,0 L5,0 L2,15 L2,18 L1,20 L-2,20 L0,10 L1,8 L-5,9 L-6,5 Z " fill="#CCCCCC" transform="translate(14,6)"/>
<path d="M0,0 L1,0 L0,11 L0,14 L-1,16 L-4,16 L-2,4 Z " fill="#D8D8D8" transform="translate(16,10)"/>
<path d="M0,0 L2,0 L1,4 L-4,5 L-2,1 Z " fill="#141414" transform="translate(14,8)"/>
</svg>
