<?xml version="1.0" encoding="UTF-8"?>
<svg version="1.1" xmlns="http://www.w3.org/2000/svg" width="28" height="28">
<path d="M0,0 L28,0 L28,28 L0,28 Z " fill="#020202" transform="translate(0,0)"/>
<path d="M0,0 L4,1 L5,8 L5,20 L3,20 L2,10 L-5,11 L-7,9 L-6,3 Z " fill="#D6D6D6" transform="translate(14,7)"/>
<path d="M0,0 L3,0 L3,3 L-4,5 L-4,8 L1,9 L-1,11 L-6,10 L-7,5 L-5,2 Z " fill="#DCDCDC" transform="translate(14,7)"/>
<path d="M0,0 L5,0 L4,5 L-2,6 L-3,2 Z " fill="#181818" transform="translate(12,10)"/>
</svg>
