<?xml version="1.0" encoding="UTF-8"?>
<svg version="1.1" xmlns="http://www.w3.org/2000/svg" width="28" height="28">
<path d="M0,0 L28,0 L28,28 L0,28 Z " fill="#010101" transform="translate(0,0)"/>
<path d="M0,0 L4,1 L4,3 L-1,5 L4,4 L8,3 L6,20 L3,20 L3,13 L4,9 L-3,9 L-4,8 L-4,3 Z " fill="#E2E2E2" transform="translate(12,6)"/>
<path d="M0,0 L4,1 L4,3 L-3,5 L-3,2 Z " fill="#C8C8C8" transform="translate(12,6)"/>
<path d="M0,0 L3,2 L-1,5 L-6,5 L-4,2 L0,2 Z " fill="#363636" transform="translate(16,7)"/>
</svg>
