<?xml version="1.0" encoding="UTF-8"?>
<svg version="1.1" xmlns="http://www.w3.org/2000/svg" width="28" height="28">
<path d="M0,0 L28,0 L28,28 L0,28 Z " fill="#010101" transform="translate(0,0)"/>
<path d="M0,0 L4,0 L5,9 L2,19 L-3,20 L-5,18 L-5,15 L-3,15 L-1,17 L1,10 L-4,10 L-5,9 L-5,4 Z " fill="#C8C8C8" transform="translate(14,5)"/>
<path d="M0,0 L1,0 L1,6 L-4,7 L-6,5 L-6,2 L-4,2 L-2,4 Z " fill="#DBDBDB" transform="translate(15,18)"/>
<path d="M0,0 L2,0 L1,5 L5,4 L5,7 L0,7 L-1,6 L-1,1 Z " fill="#E2E2E2" transform="translate(10,8)"/>
<path d="M0,0 L1,4 L-1,6 L-4,6 L-3,2 Z " fill="#1F1F1F" transform="translate(15,7)"/>
</svg>
