<?xml version="1.0" encoding="UTF-8"?>
<svg version="1.1" xmlns="http://www.w3.org/2000/svg" width="28" height="28">
<path d="M0,0 L28,0 L28,28 L0,28 Z " fill="#020202" transform="translate(0,0)"/>
<path d="M0,0 L6,0 L7,5 L5,20 L3,20 L3,11 L-3,11 L-5,8 L-4,3 Z " fill="#DADADA" transform="translate(13,7)"/>
<path d="M0,0 L3,0 L1,15 L-1,15 L-1,6 L-7,6 L-7,4 L-1,2 Z " fill="#E8E8E8" transform="translate(17,12)"/>
<path d="M0,0 L4,0 L3,5 L-1,6 L-2,2 Z " fill="#1F1F1F" transform="translate(13,10)"/>
</svg>
