<?xml version="1.0" encoding="UTF-8"?>
<svg version="1.1" xmlns="http://www.w3.org/2000/svg" width="28" height="28">
<path d="M0,0 L28,0 L28,28 L0,28 Z " fill="#030303" transform="translate(0,0)"/>
<path d="M0,0 L8,0 L7,5 L0,17 L-1,20 L-3,20 L-2,13 L-1,11 L-5,11 L-6,4 L-3,1 Z " fill="#E9E9E9" transform="translate(14,7)"/>
<path d="M0,0 L5,1 L3,5 L1,7 L-4,6 L-2,2 Z " fill="#111111" transform="translate(13,9)"/>
<path d="M0,0 L5,0 L7,4 L4,10 L2,10 L3,3 L4,1 Z " fill="#DCDCDC" transform="translate(9,17)"/>
</svg>
