<?xml version="1.0" encoding="UTF-8"?>
<svg version="1.1" xmlns="http://www.w3.org/2000/svg" width="28" height="28">
<path d="M0,0 L28,0 L28,28 L0,28 Z " fill="#030303" transform="translate(0,0)"/>
<path d="M0,0 L6,1 L4,16 L3,20 L1,20 L1,8 L-8,9 L-10,8 L-9,3 L-6,1 Z " fill="#DCDCDC" transform="translate(15,8)"/>
<path d="M0,0 L6,1 L4,16 L3,20 L1,20 L1,3 L-6,4 L-4,1 Z " fill="#EAEAEA" transform="translate(15,8)"/>
<path d="M0,0 L1,3 L-1,4 L-8,4 L-5,1 Z " fill="#2B2B2B" transform="translate(16,10)"/>
</svg>
