<?xml version="1.0" encoding="UTF-8"?>
<svg version="1.1" xmlns="http://www.w3.org/2000/svg" width="28" height="28">
<path d="M0,0 L28,0 L28,28 L0,28 Z " fill="#030303" transform="translate(0,0)"/>
<path d="M0,0 L6,0 L7,5 L7,10 L2,17 L1,20 L-1,20 L0,15 L4,9 L5,6 L-1,9 L-7,9 L-5,5 Z " fill="#DCDCDC" transform="translate(13,7)"/>
<path d="M0,0 L6,0 L6,3 L-1,7 L-4,6 L-3,2 Z " fill="#D2D2D2" transform="translate(13,7)"/>
<path d="M0,0 L4,0 L4,2 L-2,5 L-5,4 Z " fill="#161616" transform="translate(14,9)"/>
</svg>
