<?xml version="1.0" encoding="UTF-8"?>
<svg version="1.1" xmlns="http://www.w3.org/2000/svg" width="28" height="28">
<path d="M0,0 L28,0 L28,28 L0,28 Z " fill="#010101" transform="translate(0,0)"/>
<path d="M0,0 L7,0 L8,1 L8,10 L6,20 L4,20 L4,11 L-1,9 L-3,4 Z " fill="#ACACAC" transform="translate(11,7)"/>
<path d="M0,0 L7,0 L8,1 L8,6 L6,5 L6,2 L0,3 L2,9 L-2,8 L-3,4 Z " fill="#E4E4E4" transform="translate(11,7)"/>
<path d="M0,0 L4,0 L3,5 L-1,6 L-2,1 Z " fill="#1C1C1C" transform="translate(13,9)"/>
<path d="M0,0 L1,0 L1,11 L-1,12 L-2,2 Z " fill="#EFEFEF" transform="translate(17,14)"/>
<path d="M0,0 L5,0 L6,1 L6,6 L4,5 L4,2 L-1,2 Z " fill="#FAFAFA" transform="translate(13,7)"/>
</svg>
