<?xml version="1.0" encoding="UTF-8"?>
<svg version="1.1" xmlns="http://www.w3.org/2000/svg" width="28" height="28">
<path d="M0,0 L28,0 L28,28 L0,28 Z " fill="#020202" transform="translate(0,0)"/>
<path d="M0,0 L4,1 L3,14 L1,20 L-1,20 L-1,15 L-6,14 L-8,11 L-8,5 L-3,1 Z " fill="#D8D8D8" transform="translate(16,6)"/>
<path d="M0,0 L4,1 L4,4 L-3,5 L-6,6 L-5,11 L-8,11 L-8,5 L-3,1 Z " fill="#E7E7E7" transform="translate(16,6)"/>
<path d="M0,0 L3,1 L2,3 L0,3 L1,7 L-3,9 L-5,7 L-5,3 Z " fill="#060606" transform="translate(15,9)"/>
<path d="M0,0 L3,1 L2,3 L-2,4 L-5,7 L-5,3 Z " fill="#383838" transform="translate(15,9)"/>
</svg>
