<?xml version="1.0" encoding="UTF-8"?>
<svg version="1.1" xmlns="http://www.w3.org/2000/svg" width="28" height="28">
<path d="M0,0 L28,0 L28,28 L0,28 Z " fill="#020202" transform="translate(0,0)"/>
<path d="M0,0 L5,0 L8,2 L7,17 L10,16 L8,20 L5,19 L5,10 L-2,11 L-4,8 L-3,2 Z " fill="#D2D2D2" transform="translate(11,6)"/>
<path d="M0,0 L7,0 L6,4 L3,6 L0,6 Z " fill="#060606" transform="translate(10,9)"/>
<path d="M0,0 L7,1 L7,2 L1,2 L1,7 L-2,7 L-1,1 Z " fill="#B2B2B2" transform="translate(9,7)"/>
</svg>
