<?xml version="1.0" encoding="UTF-8"?>
<svg version="1.1" xmlns="http://www.w3.org/2000/svg" width="28" height="28">
<path d="M0,0 L28,0 L28,28 L0,28 Z " fill="#030303" transform="translate(0,0)"/>
<path d="M0,0 L3,0 L3,7 L1,7 L-1,12 L-5,17 L-7,20 L-10,20 L-8,15 L-4,10 L-10,11 L-11,7 L-7,3 Z " fill="#E7E7E7" transform="translate(19,6)"/>
<path d="M0,0 L3,0 L3,7 L1,5 L-4,8 L-9,9 L-10,5 Z " fill="#D3D3D3" transform="translate(19,6)"/>
<path d="M0,0 L3,0 L2,3 L-3,6 L-7,5 L-2,1 Z " fill="#202020" transform="translate(18,8)"/>
</svg>
