<?xml version="1.0" encoding="UTF-8"?>
<svg version="1.1" xmlns="http://www.w3.org/2000/svg" width="28" height="28">
<path d="M0,0 L28,0 L28,28 L0,28 Z " fill="#020202" transform="translate(0,0)"/>
<path d="M0,0 L4,1 L5,6 L7,6 L5,18 L4,20 L2,20 L3,13 L-2,12 L-3,11 L-3,4 Z " fill="#E4E4E4" transform="translate(12,6)"/>
<path d="M0,0 L4,1 L5,7 L3,9 L-2,8 L-1,1 Z " fill="#101010" transform="translate(12,8)"/>
<path d="M0,0 L5,0 L6,6 L5,8 L3,8 L4,1 Z " fill="#B9B9B9" transform="translate(11,18)"/>
</svg>
