<?xml version="1.0" encoding="UTF-8"?>
<svg version="1.1" xmlns="http://www.w3.org/2000/svg" width="28" height="28">
<path d="M0,0 L28,0 L28,28 L0,28 Z " fill="#030303" transform="translate(0,0)"/>
<path d="M0,0 L5,1 L7,2 L8,19 L5,19 L5,10 L0,11 L-3,8 L-4,4 Z " fill="#D3D3D3" transform="translate(11,6)"/>
<path d="M0,0 L2,0 L3,17 L0,17 L0,8 L-3,8 L-3,6 L-1,5 Z " fill="#EEEEEE" transform="translate(16,8)"/>
<path d="M0,0 L5,0 L6,5 L2,7 L0,5 Z " fill="#131313" transform="translate(10,8)"/>
</svg>
