<?xml version="1.0" encoding="UTF-8"?>
<svg version="1.1" xmlns="http://www.w3.org/2000/svg" width="28" height="28">
<path d="M0,0 L28,0 L28,28 L0,28 Z " fill="#020202" transform="translate(0,0)"/>
<path d="M0,0 L4,1 L8,0 L7,5 L3,13 L3,18 L1,20 L-2,20 L-3,16 L0,10 L-5,11 L-6,10 L-5,3 Z " fill="#E1E1E1" transform="translate(14,6)"/>
<path d="M0,0 L3,0 L3,4 L5,5 L3,8 L-1,7 Z M5,3 Z " fill="#E8E8E8" transform="translate(9,9)"/>
<path d="M0,0 L4,1 L1,6 L-2,7 L-2,3 L-4,2 Z " fill="#989898" transform="translate(14,6)"/>
</svg>
