<?xml version="1.0" encoding="UTF-8"?>
<svg version="1.1" xmlns="http://www.w3.org/2000/svg" width="28" height="28">
<path d="M0,0 L28,0 L28,28 L0,28 Z " fill="#020202" transform="translate(0,0)"/>
<path d="M0,0 L5,1 L7,3 L7,12 L6,19 L2,19 L3,9 L-4,12 L-7,12 L-6,5 Z " fill="#D4D4D4" transform="translate(13,6)"/>
<path d="M0,0 L1,0 L1,10 L-3,10 L-1,1 Z " fill="#E2E2E2" transform="translate(18,15)"/>
<path d="M0,0 L4,0 L2,4 L-1,6 L-4,6 L-2,2 Z " fill="#141414" transform="translate(13,9)"/>
<path d="M0,0 L1,2 L0,4 L3,4 L3,6 L-3,7 L-3,2 Z " fill="#EEEEEE" transform="translate(9,11)"/>
</svg>
