<?xml version="1.0" encoding="UTF-8"?>
<svg version="1.1" xmlns="http://www.w3.org/2000/svg" width="28" height="28">
<path d="M0,0 L28,0 L28,28 L0,28 Z " fill="#040404" transform="translate(0,0)"/>
<path d="M0,0 L7,1 L10,3 L10,20 L7,17 L7,13 L0,12 L-3,6 L-1,2 Z " fill="#E9E9E9" transform="translate(9,6)"/>
<path d="M0,0 L3,0 L3,17 L0,14 L0,10 L-6,9 L-2,7 L0,7 Z " fill="#F3F3F3" transform="translate(16,9)"/>
<path d="M0,0 L5,0 L5,7 L1,8 L-1,6 Z " fill="#0B0B0B" transform="translate(10,9)"/>
<path d="M0,0 L7,1 L8,3 L7,10 L6,10 L6,3 L2,3 L2,1 Z " fill="#B7B7B7" transform="translate(9,6)"/>
</svg>
