<?xml version="1.0" encoding="UTF-8"?>
<svg version="1.1" xmlns="http://www.w3.org/2000/svg" width="28" height="28">
<path d="M0,0 L28,0 L28,28 L0,28 Z " fill="#020202" transform="translate(0,0)"/>
<path d="M0,0 L5,1 L6,3 L6,13 L5,20 L2,20 L1,15 L4,10 L-3,10 L-6,9 L-6,4 Z " fill="#D0D0D0" transform="translate(13,6)"/>
<path d="M0,0 L10,0 L11,1 L10,13 L7,13 L6,8 L9,3 L2,3 L0,2 Z " fill="#F3F3F3" transform="translate(8,13)"/>
<path d="M0,0 L4,0 L5,4 L4,5 L-3,5 L-1,1 Z " fill="#131313" transform="translate(12,8)"/>
<path d="M0,0 L2,2 L2,8 L-1,8 L-2,3 Z " fill="#D7D7D7" transform="translate(16,18)"/>
</svg>
