<?xml version="1.0" encoding="UTF-8"?>
<svg version="1.1" xmlns="http://www.w3.org/2000/svg" width="28" height="28">
<path d="M0,0 L28,0 L28,28 L0,28 Z " fill="#020202" transform="translate(0,0)"/>
<path d="M0,0 L7,1 L10,2 L10,7 L8,12 L7,19 L4,20 L6,10 L4,11 L-2,11 L-3,7 Z " fill="#E2E2E2" transform="translate(10,7)"/>
<path d="M0,0 L2,1 L7,6 L3,9 L4,11 L-2,11 L-3,7 Z " fill="#D6D6D6" transform="translate(10,7)"/>
<path d="M0,0 L5,1 L5,4 L-2,6 L-1,1 Z " fill="#101010" transform="translate(11,10)"/>
</svg>
