<?xml version="1.0" encoding="UTF-8"?>
<svg version="1.1" xmlns="http://www.w3.org/2000/svg" width="28" height="28">
<path d="M0,0 L28,0 L28,28 L0,28 Z " fill="#030303" transform="translate(0,0)"/>
<path d="M0,0 L4,1 L5,2 L5,8 L2,16 L-2,20 L-7,19 L-9,18 L-9,16 L-2,17 L1,11 L-5,8 L-5,4 L-3,4 L-2,1 Z " fill="#CCCCCC" transform="translate(15,5)"/>
<path d="M0,0 L1,4 L-1,10 L-5,14 L-10,13 L-12,12 L-12,10 L-5,11 L-2,5 L-1,1 Z " fill="#E0E0E0" transform="translate(18,11)"/>
<path d="M0,0 L4,1 L3,5 L-1,4 L-2,9 L-5,8 L-5,4 L-3,4 L-2,1 Z " fill="#DEDEDE" transform="translate(15,5)"/>
<path d="M0,0 L4,1 L1,5 L-2,4 Z " fill="#161616" transform="translate(14,8)"/>
</svg>
