<?xml version="1.0" encoding="UTF-8"?>
<svg version="1.1" xmlns="http://www.w3.org/2000/svg" width="28" height="28">
<path d="M0,0 L28,0 L28,28 L0,28 Z " fill="#030303" transform="translate(0,0)"/>
<path d="M0,0 L5,0 L5,2 L7,2 L7,7 L4,14 L2,20 L1,20 L2,11 L3,9 L-1,10 L-3,8 L-3,2 Z " fill="#E5E5E5" transform="translate(12,7)"/>
<path d="M0,0 L4,0 L4,3 L-2,4 L1,8 L-2,9 L-3,8 L-3,2 Z " fill="#E7E7E7" transform="translate(12,7)"/>
<path d="M0,0 L4,0 L3,4 L-2,3 L-2,1 Z " fill="#1F1F1F" transform="translate(12,10)"/>
</svg>
