<?xml version="1.0" encoding="UTF-8"?>
<svg version="1.1" xmlns="http://www.w3.org/2000/svg" width="28" height="28">
<path d="M0,0 L28,0 L28,28 L0,28 Z " fill="#020202" transform="translate(0,0)"/>
<path d="M0,0 L5,0 L5,5 L2,10 L0,20 L-2,20 L-1,11 L-11,11 L-10,7 L-2,1 Z " fill="#DEDEDE" transform="translate(16,7)"/>
<path d="M0,0 L1,3 L-1,13 L-3,13 L-1,1 Z " fill="#F1F1F1" transform="translate(17,14)"/>
<path d="M0,0 L7,1 L7,3 L5,4 L-2,4 Z " fill="#E2E2E2" transform="translate(8,14)"/>
<path d="M0,0 L3,0 L3,3 L1,4 L-5,4 L-2,1 Z " fill="#383838" transform="translate(14,11)"/>
</svg>
