<?xml version="1.0" encoding="UTF-8"?>
<svg version="1.1" xmlns="http://www.w3.org/2000/svg" width="28" height="28">
<path d="M0,0 L28,0 L28,28 L0,28 Z " fill="#030303" transform="translate(0,0)"/>
<path d="M0,0 L3,0 L4,7 L3,9 L1,9 L0,13 L-4,19 L-9,20 L-7,16 L-6,14 L-9,15 L-10,14 L-10,9 L-4,2 Z " fill="#F6F6F6" transform="translate(18,5)"/>
<path d="M0,0 L3,0 L4,7 L2,6 L-5,10 L-10,11 L-8,6 L-2,1 Z " fill="#C9C9C9" transform="translate(18,5)"/>
<path d="M0,0 L3,1 L2,4 L-3,5 L-1,1 Z " fill="#D9D9D9" transform="translate(12,20)"/>
</svg>
