<?xml version="1.0" encoding="UTF-8"?>
<svg version="1.1" xmlns="http://www.w3.org/2000/svg" width="28" height="28">
<path d="M0,0 L28,0 L28,28 L0,28 Z " fill="#030303" transform="translate(0,0)"/>
<path d="M0,0 L8,1 L7,5 L-3,19 L-7,20 L-7,17 L-2,12 L-2,11 L-8,11 L-8,6 L-3,2 Z " fill="#E6E6E6" transform="translate(15,6)"/>
<path d="M0,0 L4,2 L3,6 L1,6 L1,8 L-2,9 L-2,11 L-8,11 L-8,6 L-3,2 Z " fill="#DDDDDD" transform="translate(15,6)"/>
<path d="M0,0 L4,1 L3,3 L1,3 L1,5 L-5,5 L-5,3 Z " fill="#161616" transform="translate(15,9)"/>
</svg>
