<?xml version="1.0" encoding="UTF-8"?>
<svg version="1.1" xmlns="http://www.w3.org/2000/svg" width="28" height="28">
<path d="M0,0 L28,0 L28,28 L0,28 Z " fill="#010101" transform="translate(0,0)"/>
<path d="M0,0 L9,1 L10,4 L1,15 L-3,20 L-6,20 L-5,16 L2,8 L-3,7 L-2,1 Z " fill="#EAEAEA" transform="translate(13,6)"/>
<path d="M0,0 L1,2 L-3,8 L-6,11 L-9,11 L-8,7 Z " fill="#E0E0E0" transform="translate(16,15)"/>
<path d="M0,0 L4,0 L3,3 L-3,4 L-2,1 Z " fill="#0C0C0C" transform="translate(15,8)"/>
</svg>
