<?xml version="1.0" encoding="UTF-8"?>
<svg version="1.1" xmlns="http://www.w3.org/2000/svg" width="28" height="28">
<path d="M0,0 L28,0 L28,28 L0,28 Z " fill="#010101" transform="translate(0,0)"/>
<path d="M0,0 L5,0 L9,3 L8,7 L4,15 L2,20 L-1,20 L0,14 L2,11 L-4,11 L-5,6 L-3,3 L-1,3 Z " fill="#F1F1F1" transform="translate(12,6)"/>
<path d="M0,0 L3,0 L1,5 L-1,8 L-6,8 L-7,3 Z " fill="#E0E0E0" transform="translate(14,9)"/>
<path d="M0,0 L3,0 L2,3 L-1,5 L-5,4 Z " fill="#060606" transform="translate(14,9)"/>
</svg>
