<?xml version="1.0" encoding="UTF-8"?>
<svg version="1.1" xmlns="http://www.w3.org/2000/svg" width="28" height="28">
<path d="M0,0 L28,0 L28,28 L0,28 Z " fill="#020202" transform="translate(0,0)"/>
<path d="M0,0 L5,0 L8,4 L9,9 L6,9 L9,18 L9,20 L6,20 L4,11 L-6,13 L-9,11 L-8,6 L-2,1 Z " fill="#E5E5E5" transform="translate(13,6)"/>
<path d="M0,0 L4,1 L3,6 L0,8 L-7,8 L-6,4 Z " fill="#111111" transform="translate(14,8)"/>
<path d="M0,0 L3,0 L3,3 L8,3 L6,6 L1,5 Z " fill="#C9C9C9" transform="translate(4,13)"/>
</svg>
