<?xml version="1.0" encoding="UTF-8"?>
<svg version="1.1" xmlns="http://www.w3.org/2000/svg" width="28" height="28">
<path d="M0,0 L28,0 L28,28 L0,28 Z " fill="#010101" transform="translate(0,0)"/>
<path d="M0,0 L5,1 L6,5 L2,15 L3,20 L-1,20 L0,11 L-5,11 L-6,10 L-6,5 Z " fill="#C3C3C3" transform="translate(14,6)"/>
<path d="M0,0 L3,0 L2,5 L0,7 L-4,7 L-3,2 Z " fill="#101010" transform="translate(14,8)"/>
<path d="M0,0 L2,1 L0,8 L-3,8 L-5,7 L-1,3 Z " fill="#E8E8E8" transform="translate(18,8)"/>
</svg>
