<?xml version="1.0" encoding="UTF-8"?>
<svg version="1.1" xmlns="http://www.w3.org/2000/svg" width="28" height="28">
<path d="M0,0 L28,0 L28,28 L0,28 Z " fill="#020202" transform="translate(0,0)"/>
<path d="M0,0 L7,0 L8,4 L-1,20 L-3,20 L-2,15 L1,10 L-4,12 L-8,11 L-7,5 Z " fill="#E4E4E4" transform="translate(14,7)"/>
<path d="M0,0 L4,2 L2,6 L-3,9 L-8,9 L-6,4 Z " fill="#D1D1D1" transform="translate(14,7)"/>
<path d="M0,0 L2,0 L0,4 L-5,7 L-7,7 L-7,4 Z " fill="#191919" transform="translate(16,9)"/>
</svg>
