<?xml version="1.0" encoding="UTF-8"?>
<svg version="1.1" xmlns="http://www.w3.org/2000/svg" width="28" height="28">
<path d="M0,0 L28,0 L28,28 L0,28 Z " fill="#020202" transform="translate(0,0)"/>
<path d="M0,0 L4,0 L6,5 L5,11 L1,17 L-3,20 L-5,20 L-5,16 L0,13 L2,8 L-4,9 L-5,6 Z " fill="#DCDCDC" transform="translate(14,6)"/>
<path d="M0,0 L4,0 L5,4 L0,5 L0,8 L-4,9 L-5,6 Z " fill="#E4E4E4" transform="translate(14,6)"/>
<path d="M0,0 L5,2 L4,8 L1,7 L1,5 L-1,4 L-1,1 Z " fill="#B2B2B2" transform="translate(15,9)"/>
</svg>
