<?xml version="1.0" encoding="UTF-8"?>
<svg version="1.1" xmlns="http://www.w3.org/2000/svg" width="28" height="28">
<path d="M0,0 L28,0 L28,28 L0,28 Z " fill="#040404" transform="translate(0,0)"/>
<path d="M0,0 L5,0 L5,4 L-1,12 L-7,20 L-10,20 L-8,15 L-7,13 L-12,10 L-10,5 L-7,2 Z " fill="#DBDBDB" transform="translate(18,6)"/>
<path d="M0,0 L5,0 L5,4 L2,6 L1,3 L-6,4 L-4,1 Z " fill="#F3F3F3" transform="translate(18,6)"/>
<path d="M0,0 L3,0 L3,2 L-2,6 L-7,6 L-6,3 Z " fill="#121212" transform="translate(16,9)"/>
</svg>
