<?xml version="1.0" encoding="UTF-8"?>
<svg version="1.1" xmlns="http://www.w3.org/2000/svg" width="28" height="28">
<path d="M0,0 L28,0 L28,28 L0,28 Z " fill="#020202" transform="translate(0,0)"/>
<path d="M0,0 L4,1 L3,5 L2,8 L0,8 L-2,14 L-7,20 L-9,20 L-8,16 L-5,12 L-10,10 L-9,6 L-3,1 Z " fill="#E8E8E8" transform="translate(18,6)"/>
<path d="M0,0 L3,1 L1,6 L-4,7 L-7,9 L-6,5 Z " fill="#969696" transform="translate(15,7)"/>
<path d="M0,0 L4,1 L3,5 L1,8 L0,6 L-2,7 Z " fill="#DBDBDB" transform="translate(18,6)"/>
</svg>
