<?xml version="1.0" encoding="UTF-8"?>
<svg version="1.1" xmlns="http://www.w3.org/2000/svg" width="28" height="28">
<path d="M0,0 L28,0 L28,28 L0,28 Z " fill="#010101" transform="translate(0,0)"/>
<path d="M0,0 L5,1 L6,2 L5,19 L2,20 L1,12 L-4,12 L-5,11 L-5,5 Z " fill="#D2D2D2" transform="translate(13,6)"/>
<path d="M0,0 L5,1 L6,5 L4,6 L3,4 L-1,5 L-2,10 L-4,10 L-4,3 Z " fill="#D1D1D1" transform="translate(13,6)"/>
<path d="M0,0 L4,1 L3,5 L-2,7 L-3,3 Z " fill="#0F0F0F" transform="translate(13,9)"/>
<path d="M0,0 L5,1 L6,5 L4,6 L3,2 L0,2 Z " fill="#EBEBEB" transform="translate(13,6)"/>
</svg>
