<?xml version="1.0" encoding="UTF-8"?>
<svg version="1.1" xmlns="http://www.w3.org/2000/svg" width="28" height="28">
<path d="M0,0 L28,0 L28,28 L0,28 Z " fill="#020202" transform="translate(0,0)"/>
<path d="M0,0 L5,0 L7,4 L6,9 L4,18 L0,20 L1,12 L-4,12 L-5,8 L-3,7 L2,7 L3,3 L-2,2 Z " fill="#E8E8E8" transform="translate(13,6)"/>
<path d="M0,0 L6,1 L5,6 L-2,6 L-1,1 Z " fill="#C7C7C7" transform="translate(10,8)"/>
<path d="M0,0 L4,0 L3,4 L-1,4 Z " fill="#060606" transform="translate(12,10)"/>
</svg>
