<?xml version="1.0" encoding="UTF-8"?>
<svg version="1.1" xmlns="http://www.w3.org/2000/svg" width="28" height="28">
<path d="M0,0 L28,0 L28,28 L0,28 Z " fill="#010101" transform="translate(0,0)"/>
<path d="M0,0 L3,0 L3,9 L-3,20 L-6,19 L-3,13 L-7,12 L-8,8 L-2,1 Z " fill="#EAEAEA" transform="translate(16,6)"/>
<path d="M0,0 L2,1 L-1,7 L-2,11 L-7,8 L-6,4 L-2,2 Z " fill="#D0D0D0" transform="translate(15,9)"/>
<path d="M0,0 L2,1 L-1,7 L-4,7 L-2,2 Z " fill="#1E1E1E" transform="translate(15,9)"/>
</svg>
