<?xml version="1.0" encoding="UTF-8"?>
<svg version="1.1" xmlns="http://www.w3.org/2000/svg" width="28" height="28">
<path d="M0,0 L28,0 L28,28 L0,28 Z " fill="#020202" transform="translate(0,0)"/>
<path d="M0,0 L4,1 L5,4 L-4,18 L-5,20 L-8,20 L-6,14 L-4,11 L-9,11 L-8,7 Z " fill="#C3C3C3" transform="translate(17,6)"/>
<path d="M0,0 L4,1 L5,4 L3,6 L0,6 L-3,9 L-8,8 L-2,1 Z " fill="#D2D2D2" transform="translate(17,6)"/>
<path d="M0,0 L1,3 L-3,9 L-5,8 L-5,6 L-10,6 L-10,4 L-3,4 L-2,1 Z " fill="#EAEAEA" transform="translate(19,10)"/>
<path d="M0,0 L1,3 L-3,7 L-6,6 L-1,1 Z " fill="#1B1B1B" transform="translate(17,8)"/>
</svg>
