<?xml version="1.0" encoding="UTF-8"?>
<svg version="1.1" xmlns="http://www.w3.org/2000/svg" width="28" height="28">
<path d="M0,0 L28,0 L28,28 L0,28 Z " fill="#010101" transform="translate(0,0)"/>
<path d="M0,0 L5,0 L6,5 L4,5 L2,20 L0,17 L1,9 L2,7 L-4,8 L-5,5 Z " fill="#C9C9C9" transform="translate(13,8)"/>
<path d="M0,0 L4,2 L-1,4 L-3,7 L0,8 L-5,7 L-3,2 Z " fill="#CFCFCF" transform="translate(13,8)"/>
<path d="M0,0 L4,0 L2,4 L-3,5 L-1,1 Z " fill="#1B1B1B" transform="translate(13,10)"/>
</svg>
