<?xml version="1.0" encoding="UTF-8"?>
<svg version="1.1" xmlns="http://www.w3.org/2000/svg" width="28" height="28">
<path d="M0,0 L28,0 L28,28 L0,28 Z " fill="#030303" transform="translate(0,0)"/>
<path d="M0,0 L5,0 L6,1 L5,9 L0,16 L-2,20 L-5,20 L-4,16 L1,8 L-4,10 L-8,9 L-6,4 Z " fill="#BEBEBE" transform="translate(15,6)"/>
<path d="M0,0 L5,0 L0,4 L4,6 L0,8 L-4,7 L-2,2 Z " fill="#EEEEEE" transform="translate(11,8)"/>
<path d="M0,0 L2,1 L1,5 L-1,9 L-4,9 L-3,5 Z " fill="#DBDBDB" transform="translate(14,17)"/>
</svg>
