<?xml version="1.0" encoding="UTF-8"?>
<svg version="1.1" xmlns="http://www.w3.org/2000/svg" width="28" height="28">
<path d="M0,0 L28,0 L28,28 L0,28 Z " fill="#020202" transform="translate(0,0)"/>
<path d="M0,0 L4,2 L5,6 L0,12 L3,20 L-2,19 L-4,15 L-4,12 L-11,13 L-13,11 L-12,5 L-6,1 Z " fill="#ECECEC" transform="translate(18,6)"/>
<path d="M0,0 L4,2 L5,5 L1,9 L-4,9 L-5,7 L-7,8 L-5,3 Z " fill="#E0E0E0" transform="translate(12,7)"/>
<path d="M0,0 L2,0 L0,5 L-6,6 L-6,3 Z " fill="#181818" transform="translate(15,10)"/>
</svg>
