<?xml version="1.0" encoding="UTF-8"?>
<svg version="1.1" xmlns="http://www.w3.org/2000/svg" width="28" height="28">
<path d="M0,0 L28,0 L28,28 L0,28 Z " fill="#020202" transform="translate(0,0)"/>
<path d="M0,0 L3,1 L2,9 L-2,18 L-3,20 L-5,20 L-4,16 L-3,11 L-9,12 L-9,7 L-3,1 Z " fill="#E7E7E7" transform="translate(17,6)"/>
<path d="M0,0 L2,0 L1,4 L-1,8 L-7,9 L-7,4 L-5,2 Z " fill="#DFDFDF" transform="translate(15,9)"/>
<path d="M0,0 L2,0 L1,4 L-1,6 L-4,6 L-2,2 Z " fill="#222222" transform="translate(15,9)"/>
</svg>
