<?xml version="1.0" encoding="UTF-8"?>
<svg version="1.1" xmlns="http://www.w3.org/2000/svg" width="28" height="28">
<path d="M0,0 L28,0 L28,28 L0,28 Z " fill="#020202" transform="translate(0,0)"/>
<path d="M0,0 L4,1 L2,5 L-9,20 L-12,19 L-9,14 L-6,10 L-11,9 L-10,5 L-4,1 L-1,1 L-1,3 L-6,6 L-1,4 Z " fill="#E3E3E3" transform="translate(19,6)"/>
<path d="M0,0 L2,0 L3,3 L-2,7 L-5,6 L-1,3 L1,3 Z " fill="#3C3C3C" transform="translate(17,6)"/>
<path d="M0,0 L3,1 L0,6 L-3,5 Z " fill="#D5D5D5" transform="translate(10,20)"/>
</svg>
