<?xml version="1.0" encoding="UTF-8"?>
<svg version="1.1" xmlns="http://www.w3.org/2000/svg" width="28" height="28">
<path d="M0,0 L28,0 L28,28 L0,28 Z " fill="#020202" transform="translate(0,0)"/>
<path d="M0,0 L5,1 L6,5 L-1,15 L-4,20 L-5,17 L-1,10 L-8,11 L-8,6 L-4,4 L-4,2 Z " fill="#DDDDDD" transform="translate(16,7)"/>
<path d="M0,0 L4,1 L-1,6 L-7,7 L-3,2 Z " fill="#121212" transform="translate(16,9)"/>
<path d="M0,0 L3,3 L-3,13 L-4,10 L-1,5 L-2,1 Z " fill="#C0C0C0" transform="translate(15,14)"/>
</svg>
