<?xml version="1.0" encoding="UTF-8"?>
<svg version="1.1" xmlns="http://www.w3.org/2000/svg" width="28" height="28">
<path d="M0,0 L28,0 L28,28 L0,28 Z " fill="#010101" transform="translate(0,0)"/>
<path d="M0,0 L5,1 L7,2 L8,6 L8,19 L5,20 L5,7 L2,9 L-3,9 L-4,4 Z " fill="#DEDEDE" transform="translate(11,7)"/>
<path d="M0,0 L3,0 L4,4 L4,17 L1,18 Z " fill="#B2B2B2" transform="translate(15,9)"/>
<path d="M0,0 L3,0 L3,14 L2,14 L0,4 Z " fill="#F3F3F3" transform="translate(15,9)"/>
<path d="M0,0 L3,1 L1,5 L-3,5 L-2,1 Z " fill="#1D1D1D" transform="translate(12,9)"/>
</svg>
