<?xml version="1.0" encoding="UTF-8"?>
<svg version="1.1" xmlns="http://www.w3.org/2000/svg" width="28" height="28">
<path d="M0,0 L28,0 L28,28 L0,28 Z " fill="#010101" transform="translate(0,0)"/>
<path d="M0,0 L6,1 L9,3 L9,5 L7,5 L7,13 L4,19 L1,19 L4,10 L0,9 L-1,2 Z " fill="#898989" transform="translate(11,6)"/>
<path d="M0,0 L6,1 L6,4 L1,3 L2,7 L4,8 L0,9 L-1,2 Z " fill="#E1E1E1" transform="translate(11,6)"/>
<path d="M0,0 L1,0 L1,8 L-2,13 L-4,12 L-1,2 Z " fill="#E6E6E6" transform="translate(16,13)"/>
</svg>
