<?xml version="1.0" encoding="UTF-8"?>
<svg version="1.1" xmlns="http://www.w3.org/2000/svg" width="28" height="28">
<path d="M0,0 L28,0 L28,28 L0,28 Z " fill="#020202" transform="translate(0,0)"/>
<path d="M0,0 L5,1 L5,5 L-3,18 L-6,20 L-4,15 L-1,9 L-4,11 L-8,10 L-5,4 Z " fill="#D7D7D7" transform="translate(16,7)"/>
<path d="M0,0 L3,1 L-3,6 L-4,8 L0,6 L-1,9 L-6,10 L-7,8 L-3,2 Z " fill="#E5E5E5" transform="translate(15,8)"/>
<path d="M0,0 L3,0 L3,2 L-2,6 L-4,6 L-2,2 Z " fill="#2A2A2A" transform="translate(15,10)"/>
</svg>
