<?xml version="1.0" encoding="UTF-8"?>
<svg version="1.1" xmlns="http://www.w3.org/2000/svg" width="28" height="28">
<path d="M0,0 L28,0 L28,28 L0,28 Z " fill="#020202" transform="translate(0,0)"/>
<path d="M0,0 L5,0 L6,1 L6,9 L4,20 L2,20 L2,7 L-3,9 L-4,4 Z " fill="#EDEDED" transform="translate(13,7)"/>
<path d="M0,0 L2,1 L2,4 L4,5 L3,9 L2,7 L-3,9 L-4,4 Z " fill="#E3E3E3" transform="translate(13,7)"/>
<path d="M0,0 L2,1 L1,2 L3,3 L2,7 L1,5 L-1,6 L-3,5 L-3,2 Z " fill="#9A9A9A" transform="translate(14,9)"/>
</svg>
