<?xml version="1.0" encoding="UTF-8"?>
<svg version="1.1" xmlns="http://www.w3.org/2000/svg" width="28" height="28">
<path d="M0,0 L28,0 L28,28 L0,28 Z " fill="#010101" transform="translate(0,0)"/>
<path d="M0,0 L5,1 L9,6 L8,19 L5,20 L5,12 L-1,12 L-3,9 L-3,3 Z " fill="#B9B9B9" transform="translate(11,6)"/>
<path d="M0,0 L6,0 L6,6 L1,8 L-1,6 L-1,1 Z " fill="#0B0B0B" transform="translate(11,9)"/>
<path d="M0,0 L5,1 L6,3 L0,4 L0,9 L4,12 L-1,12 L-3,9 L-3,3 Z " fill="#D9D9D9" transform="translate(11,6)"/>
</svg>
