<?xml version="1.0" encoding="UTF-8"?>
<svg version="1.1" xmlns="http://www.w3.org/2000/svg" width="28" height="28">
<path d="M0,0 L28,0 L28,28 L0,28 Z " fill="#020202" transform="translate(0,0)"/>
<path d="M0,0 L5,0 L6,4 L4,11 L3,20 L1,20 L1,11 L-4,10 L-3,3 Z " fill="#CACACA" transform="translate(13,7)"/>
<path d="M0,0 L2,1 L0,11 L-1,20 L-3,20 L-3,11 L-6,11 L-6,9 L-3,8 Z " fill="#DDDDDD" transform="translate(17,7)"/>
<path d="M0,0 L2,0 L1,6 L-3,7 L-2,2 Z " fill="#0C0C0C" transform="translate(14,9)"/>
</svg>
