<?xml version="1.0" encoding="UTF-8"?>
<svg version="1.1" xmlns="http://www.w3.org/2000/svg" width="28" height="28">
<path d="M0,0 L28,0 L28,28 L0,28 Z " fill="#020202" transform="translate(0,0)"/>
<path d="M0,0 L6,0 L7,3 L5,9 L-6,20 L-7,18 L0,10 L-8,9 L-9,5 L-3,1 Z " fill="#CCCCCC" transform="translate(15,7)"/>
<path d="M0,0 L2,1 L0,5 L-10,15 L-11,13 L-4,5 Z " fill="#F6F6F6" transform="translate(19,12)"/>
<path d="M0,0 L6,0 L4,3 L-2,4 L-2,1 Z " fill="#020202" transform="translate(13,10)"/>
<path d="M0,0 L1,2 L8,2 L8,4 L-1,4 Z " fill="#FFFFFF" transform="translate(8,12)"/>
<path d="M0,0 L2,2 L-5,8 L-3,3 Z " fill="#DFDFDF" transform="translate(13,19)"/>
</svg>
