<?xml version="1.0" encoding="UTF-8"?>
<svg version="1.1" xmlns="http://www.w3.org/2000/svg" width="28" height="28">
<path d="M0,0 L28,0 L28,28 L0,28 Z " fill="#040404" transform="translate(0,0)"/>
<path d="M0,0 L7,0 L8,1 L8,8 L10,8 L11,10 L11,16 L7,19 L-1,19 L0,15 L1,14 L-4,11 L-5,10 L-5,3 Z " fill="#D5D5D5" transform="translate(11,5)"/>
<path d="M0,0 L6,1 L4,5 L4,3 L-1,6 L-3,6 L-2,9 L-5,8 L-5,3 Z " fill="#EBEBEB" transform="translate(11,5)"/>
<path d="M0,0 L2,0 L3,3 L2,7 L-4,7 L-5,3 Z " fill="#181818" transform="translate(13,8)"/>
<path d="M0,0 L2,0 L3,4 L2,6 L-5,7 L-3,2 Z " fill="#0D0D0D" transform="translate(17,15)"/>
<path d="M0,0 L1,2 L6,3 L6,5 L-2,5 L-1,1 Z " fill="#F1F1F1" transform="translate(12,19)"/>
</svg>
