<?xml version="1.0" encoding="UTF-8"?>
<svg version="1.1" xmlns="http://www.w3.org/2000/svg" width="28" height="28">
<path d="M0,0 L28,0 L28,28 L0,28 Z " fill="#030303" transform="translate(0,0)"/>
<path d="M0,0 L6,0 L9,2 L7,8 L0,20 L-3,19 L-1,14 L2,9 L-3,9 L-2,2 Z " fill="#D0D0D0" transform="translate(12,6)"/>
<path d="M0,0 L3,0 L1,6 L-6,18 L-9,17 L-7,12 L-4,7 Z " fill="#EDEDED" transform="translate(18,8)"/>
<path d="M0,0 L3,0 L1,5 L-5,5 L-3,1 Z " fill="#242424" transform="translate(15,8)"/>
</svg>
