<?xml version="1.0" encoding="UTF-8"?>
<svg version="1.1" xmlns="http://www.w3.org/2000/svg" width="28" height="28">
<path d="M0,0 L28,0 L28,28 L0,28 Z " fill="#020202" transform="translate(0,0)"/>
<path d="M0,0 L5,0 L8,5 L1,15 L-1,20 L-4,20 L-2,14 L1,9 L-3,7 L-2,2 Z " fill="#BEBEBE" transform="translate(13,6)"/>
<path d="M0,0 L2,2 L-5,12 L-7,17 L-10,17 L-8,11 L-5,6 L-6,4 L-1,1 Z " fill="#D6D6D6" transform="translate(19,9)"/>
<path d="M0,0 L5,1 L3,4 L-3,4 L-2,1 Z " fill="#0B0B0B" transform="translate(14,8)"/>
</svg>
