<?xml version="1.0" encoding="UTF-8"?>
<svg version="1.1" xmlns="http://www.w3.org/2000/svg" width="28" height="28">
<path d="M0,0 L28,0 L28,28 L0,28 Z " fill="#030303" transform="translate(0,0)"/>
<path d="M0,0 L5,1 L5,3 L1,3 L1,7 L7,3 L10,3 L8,11 L5,20 L4,20 L4,10 L1,11 L-2,11 L-3,5 Z " fill="#E1E1E1" transform="translate(11,7)"/>
<path d="M0,0 L1,4 L-1,10 L-2,10 L-2,2 Z " fill="#FFFFFF" transform="translate(17,17)"/>
<path d="M0,0 L1,3 L-4,5 L-4,1 Z " fill="#252525" transform="translate(16,9)"/>
</svg>
