<?xml version="1.0" encoding="UTF-8"?>
<svg version="1.1" xmlns="http://www.w3.org/2000/svg" width="28" height="28">
<path d="M0,0 L28,0 L28,28 L0,28 Z " fill="#030303" transform="translate(0,0)"/>
<path d="M0,0 L4,2 L3,9 L-5,20 L-7,20 L-6,16 L-1,10 L-5,9 L-6,4 L-3,1 Z " fill="#EDEDED" transform="translate(16,6)"/>
<path d="M0,0 L5,1 L4,5 L2,5 L2,8 L-3,7 L-2,1 Z " fill="#DCDCDC" transform="translate(13,7)"/>
<path d="M0,0 L2,0 L1,4 L-4,5 L-3,1 Z " fill="#161616" transform="translate(16,8)"/>
<path d="M0,0 L3,1 L-1,6 L-3,6 L-2,2 Z " fill="#C8C8C8" transform="translate(12,20)"/>
</svg>
