<?xml version="1.0" encoding="UTF-8"?>
<svg version="1.1" xmlns="http://www.w3.org/2000/svg" width="28" height="28">
<path d="M0,0 L28,0 L28,28 L0,28 Z " fill="#020202" transform="translate(0,0)"/>
<path d="M0,0 L5,0 L7,2 L7,8 L5,12 L4,19 L1,20 L1,15 L-3,14 L-6,11 L-5,4 Z " fill="#E2E2E2" transform="translate(13,6)"/>
<path d="M0,0 L2,1 L1,7 L-1,10 L-6,10 L-7,9 L-7,4 L-3,1 Z " fill="#0B0B0B" transform="translate(16,8)"/>
<path d="M0,0 L5,0 L7,4 L5,6 L3,3 L1,3 Z " fill="#C4C4C4" transform="translate(13,6)"/>
</svg>
