<?xml version="1.0" encoding="UTF-8"?>
<svg version="1.1" xmlns="http://www.w3.org/2000/svg" width="28" height="28">
<path d="M0,0 L28,0 L28,28 L0,28 Z " fill="#020202" transform="translate(0,0)"/>
<path d="M0,0 L5,1 L5,3 L7,3 L7,8 L1,20 L-1,20 L0,15 L3,9 L-2,8 L-2,2 Z " fill="#EEEEEE" transform="translate(12,7)"/>
<path d="M0,0 L4,1 L3,2 L3,7 L-2,8 L-2,2 Z " fill="#7B7B7B" transform="translate(12,7)"/>
<path d="M0,0 L3,1 L0,7 L-2,7 L-1,2 Z " fill="#D6D6D6" transform="translate(13,20)"/>
</svg>
