<?xml version="1.0" encoding="UTF-8"?>
<svg version="1.1" xmlns="http://www.w3.org/2000/svg" width="28" height="28">
<path d="M0,0 L28,0 L28,28 L0,28 Z " fill="#010101" transform="translate(0,0)"/>
<path d="M0,0 L5,1 L7,5 L10,5 L9,10 L3,20 L1,19 L3,13 L-1,12 L-2,10 L-2,4 Z " fill="#E0E0E0" transform="translate(11,6)"/>
<path d="M0,0 L5,1 L7,5 L2,4 L-2,9 L-1,2 Z " fill="#EAEAEA" transform="translate(11,6)"/>
<path d="M0,0 L4,2 L3,6 L-2,7 L-2,2 Z " fill="#141414" transform="translate(13,9)"/>
</svg>
