<?xml version="1.0" encoding="UTF-8"?>
<svg version="1.1" xmlns="http://www.w3.org/2000/svg" width="28" height="28">
<path d="M0,0 L28,0 L28,28 L0,28 Z " fill="#030303" transform="translate(0,0)"/>
<path d="M0,0 L7,1 L10,12 L12,18 L9,19 L5,9 L5,7 L-2,10 L-8,8 L-6,3 L-4,3 L-4,1 Z " fill="#E6E6E6" transform="translate(12,7)"/>
<path d="M0,0 L2,0 L2,3 L0,3 L0,5 L3,5 L2,8 L-4,6 L-2,1 Z " fill="#F2F2F2" transform="translate(8,9)"/>
<path d="M0,0 L3,2 L1,6 L-3,5 L-2,2 L-4,1 Z " fill="#7E7E7E" transform="translate(12,7)"/>
</svg>
