<?xml version="1.0" encoding="UTF-8"?>
<svg version="1.1" xmlns="http://www.w3.org/2000/svg" width="28" height="28">
<path d="M0,0 L28,0 L28,28 L0,28 Z " fill="#020202" transform="translate(0,0)"/>
<path d="M0,0 L4,1 L5,3 L6,20 L4,20 L3,18 L3,12 L-1,15 L-7,14 L-9,11 L-8,6 L-3,1 Z " fill="#C9C9C9" transform="translate(15,5)"/>
<path d="M0,0 L5,0 L4,6 L1,9 L-4,9 L-4,3 Z " fill="#0D0D0D" transform="translate(13,8)"/>
<path d="M0,0 L2,0 L4,12 L2,12 L1,10 L1,4 L-3,6 L-2,2 Z " fill="#EDEDED" transform="translate(17,13)"/>
</svg>
