<?xml version="1.0" encoding="UTF-8"?>
<svg version="1.1" xmlns="http://www.w3.org/2000/svg" width="28" height="28">
<path d="M0,0 L28,0 L28,28 L0,28 Z " fill="#020202" transform="translate(0,0)"/>
<path d="M0,0 L7,0 L11,1 L11,3 L16,5 L16,9 L17,16 L19,20 L15,19 L13,15 L13,10 L3,10 L-1,6 L-1,1 Z " fill="#D7D7D7" transform="translate(5,7)"/>
<path d="M0,0 L4,1 L4,5 L5,12 L7,16 L3,15 L-1,4 Z " fill="#F2F2F2" transform="translate(17,11)"/>
<path d="M0,0 L8,1 L10,3 L10,6 L7,7 L0,4 L-1,1 Z " fill="#151515" transform="translate(7,9)"/>
<path d="M0,0 L2,4 L4,8 L0,7 L-2,1 Z " fill="#D9D9D9" transform="translate(20,19)"/>
</svg>
