<?xml version="1.0" encoding="UTF-8"?>
<svg version="1.1" xmlns="http://www.w3.org/2000/svg" width="28" height="28">
<path d="M0,0 L28,0 L28,28 L0,28 Z " fill="#020202" transform="translate(0,0)"/>
<path d="M0,0 L3,0 L3,2 L-5,5 L-1,6 L-1,4 L2,5 L-3,15 L-4,20 L-6,20 L-5,13 L-2,8 L-8,8 L-8,4 Z " fill="#C9C9C9" transform="translate(17,7)"/>
<path d="M0,0 L2,0 L3,3 L0,8 L-1,13 L-3,13 L-2,6 L0,1 Z " fill="#C4C4C4" transform="translate(14,14)"/>
<path d="M0,0 L3,1 L1,5 L0,3 L-7,4 L-6,2 L0,2 Z " fill="#F2F2F2" transform="translate(16,11)"/>
<path d="M0,0 L4,1 L0,2 L0,4 L-5,4 L-2,1 Z " fill="#2B2B2B" transform="translate(16,9)"/>
</svg>
