<?xml version="1.0" encoding="UTF-8"?>
<svg version="1.1" xmlns="http://www.w3.org/2000/svg" width="28" height="28">
<path d="M0,0 L28,0 L28,28 L0,28 Z " fill="#010101" transform="translate(0,0)"/>
<path d="M0,0 L6,0 L7,3 L0,4 L-3,10 L1,7 L2,4 L4,4 L4,19 L1,20 L0,12 L-4,12 L-5,6 Z " fill="#D8D8D8" transform="translate(13,6)"/>
<path d="M0,0 L3,2 L1,6 L1,2 L-1,2 L-2,6 L-6,8 L-5,3 Z " fill="#2B2B2B" transform="translate(16,8)"/>
<path d="M0,0 L1,0 L2,11 L-1,12 L-2,2 Z " fill="#EFEFEF" transform="translate(15,14)"/>
</svg>
