<?xml version="1.0" encoding="UTF-8"?>
<svg version="1.1" xmlns="http://www.w3.org/2000/svg" width="28" height="28">
<path d="M0,0 L28,0 L28,28 L0,28 Z " fill="#010101" transform="translate(0,0)"/>
<path d="M0,0 L5,1 L6,5 L3,12 L1,19 L-2,20 L-2,14 L-1,12 L-5,11 L-6,6 L-2,1 Z " fill="#D9D9D9" transform="translate(15,6)"/>
<path d="M0,0 L1,2 L0,6 L5,5 L6,2 L7,5 L5,14 L1,16 L1,10 L2,8 L-2,7 L-3,2 Z " fill="#E2E2E2" transform="translate(12,10)"/>
<path d="M0,0 L2,0 L1,7 L-4,8 L-3,3 Z " fill="#212121" transform="translate(16,8)"/>
</svg>
