<?xml version="1.0" encoding="UTF-8"?>
<svg version="1.1" xmlns="http://www.w3.org/2000/svg" width="28" height="28">
<path d="M0,0 L28,0 L28,28 L0,28 Z " fill="#020202" transform="translate(0,0)"/>
<path d="M0,0 L6,0 L9,3 L8,10 L5,20 L1,18 L3,10 L-3,10 L-5,9 L-5,4 Z " fill="#F2F2F2" transform="translate(12,6)"/>
<path d="M0,0 L4,2 L5,7 L0,8 L0,10 L-5,9 L-5,4 Z " fill="#DBDBDB" transform="translate(12,6)"/>
<path d="M0,0 L3,1 L3,5 L-3,5 L-1,1 Z " fill="#161616" transform="translate(14,8)"/>
</svg>
