<?xml version="1.0" encoding="UTF-8"?>
<svg version="1.1" xmlns="http://www.w3.org/2000/svg" width="28" height="28">
<path d="M0,0 L28,0 L28,28 L0,28 Z " fill="#020202" transform="translate(0,0)"/>
<path d="M0,0 L4,2 L7,3 L7,20 L4,19 L2,10 L-4,10 L-5,9 L-5,4 L-3,1 Z " fill="#E0E0E0" transform="translate(12,6)"/>
<path d="M0,0 L4,2 L2,7 L-2,8 L-3,5 L-5,9 L-5,4 L-3,1 Z " fill="#D5D5D5" transform="translate(12,6)"/>
<path d="M0,0 L4,1 L3,4 L-1,5 Z " fill="#1E1E1E" transform="translate(11,9)"/>
</svg>
