<?xml version="1.0" encoding="UTF-8"?>
<svg version="1.1" xmlns="http://www.w3.org/2000/svg" width="28" height="28">
<path d="M0,0 L28,0 L28,28 L0,28 Z " fill="#010101" transform="translate(0,0)"/>
<path d="M0,0 L4,1 L5,2 L5,20 L3,20 L1,11 L-1,13 L-6,12 L-7,11 L-7,6 Z " fill="#C0C0C0" transform="translate(14,6)"/>
<path d="M0,0 L2,0 L2,5 L-2,9 L-5,9 L-4,3 Z " fill="#101010" transform="translate(14,8)"/>
<path d="M0,0 L2,0 L3,16 L1,16 L1,5 L-1,5 Z " fill="#E5E5E5" transform="translate(16,10)"/>
<path d="M0,0 L4,1 L5,2 L5,11 L4,11 L4,4 L2,4 L2,2 L-1,3 L-2,1 Z " fill="#B0B0B0" transform="translate(14,6)"/>
<path d="M0,0 L2,1 L-1,5 L-2,10 L-4,9 L-4,4 Z " fill="#E0E0E0" transform="translate(11,8)"/>
</svg>
