<?xml version="1.0" encoding="UTF-8"?>
<svg version="1.1" xmlns="http://www.w3.org/2000/svg" width="28" height="28">
<path d="M0,0 L28,0 L28,28 L0,28 Z " fill="#020202" transform="translate(0,0)"/>
<path d="M0,0 L5,0 L8,4 L7,8 L0,20 L-2,19 L2,11 L-4,11 L-6,10 L-5,5 Z " fill="#C6C6C6" transform="translate(13,6)"/>
<path d="M0,0 L5,1 L4,6 L-3,7 L-3,3 Z " fill="#080808" transform="translate(13,8)"/>
<path d="M0,0 L2,0 L0,6 L-4,13 L-6,12 L-2,4 L-6,3 Z " fill="#ECECEC" transform="translate(17,13)"/>
</svg>
