<?xml version="1.0" encoding="UTF-8"?>
<svg version="1.1" xmlns="http://www.w3.org/2000/svg" width="28" height="28">
<path d="M0,0 L28,0 L28,28 L0,28 Z " fill="#010101" transform="translate(0,0)"/>
<path d="M0,0 L5,0 L6,2 L6,8 L3,15 L1,20 L0,17 L1,13 L-4,12 L-4,5 Z " fill="#D2D2D2" transform="translate(13,6)"/>
<path d="M0,0 L4,0 L3,7 L1,9 L-2,9 L-1,1 Z " fill="#080808" transform="translate(13,8)"/>
<path d="M0,0 L4,2 L0,3 L-2,11 L2,13 L-3,13 L-4,12 L-4,5 Z " fill="#B8B8B8" transform="translate(13,6)"/>
</svg>
