<?xml version="1.0" encoding="UTF-8"?>
<svg version="1.1" xmlns="http://www.w3.org/2000/svg" width="28" height="28">
<path d="M0,0 L28,0 L28,28 L0,28 Z " fill="#020202" transform="translate(0,0)"/>
<path d="M0,0 L7,0 L11,3 L10,20 L8,20 L7,17 L7,9 L1,9 L-4,5 L-2,1 Z " fill="#D3D3D3" transform="translate(9,7)"/>
<path d="M0,0 L3,0 L2,17 L0,17 L-1,14 L-1,6 L-5,5 L-1,5 Z " fill="#E9E9E9" transform="translate(17,10)"/>
<path d="M0,0 L5,2 L4,6 L-1,5 L-4,3 L-4,1 Z " fill="#141414" transform="translate(12,9)"/>
</svg>
