<?xml version="1.0" encoding="UTF-8"?>
<svg version="1.1" xmlns="http://www.w3.org/2000/svg" width="28" height="28">
<path d="M0,0 L28,0 L28,28 L0,28 Z " fill="#010101" transform="translate(0,0)"/>
<path d="M0,0 L5,0 L6,1 L6,7 L-3,20 L-4,17 L0,10 L-4,9 L-5,5 Z " fill="#CDCDCD" transform="translate(14,6)"/>
<path d="M0,0 L4,0 L4,4 L2,4 L1,7 L-3,6 L-2,2 Z " fill="#0E0E0E" transform="translate(14,8)"/>
<path d="M0,0 L2,0 L1,5 L-5,13 L-6,10 L-2,3 L-4,2 Z " fill="#E4E4E4" transform="translate(16,13)"/>
</svg>
