<?xml version="1.0" encoding="UTF-8"?>
<svg version="1.1" xmlns="http://www.w3.org/2000/svg" width="28" height="28">
<path d="M0,0 L28,0 L28,28 L0,28 Z " fill="#020202" transform="translate(0,0)"/>
<path d="M0,0 L6,0 L8,2 L7,9 L3,12 L-1,19 L-5,20 L0,11 L-5,11 L-4,4 Z " fill="#DBDBDB" transform="translate(13,6)"/>
<path d="M0,0 L5,1 L5,3 L2,5 L-2,12 L-6,13 L-1,4 L-5,3 L-1,2 Z " fill="#EDEDED" transform="translate(14,13)"/>
<path d="M0,0 L4,1 L4,5 L0,5 L0,7 L-3,7 L-2,2 Z " fill="#141414" transform="translate(14,8)"/>
<path d="M0,0 L2,1 L-1,5 L-2,9 L0,10 L-5,11 L-4,4 Z " fill="#C5C5C5" transform="translate(13,6)"/>
</svg>
