<?xml version="1.0" encoding="UTF-8"?>
<svg version="1.1" xmlns="http://www.w3.org/2000/svg" width="28" height="28">
<path d="M0,0 L28,0 L28,28 L0,28 Z " fill="#010101" transform="translate(0,0)"/>
<path d="M0,0 L7,1 L8,2 L7,10 L-1,20 L-3,20 L-1,15 L1,11 L-4,8 L-3,3 Z " fill="#D3D3D3" transform="translate(12,6)"/>
<path d="M0,0 L2,0 L1,6 L-6,14 L-8,14 L-6,9 L-4,5 L-5,3 L-1,2 Z " fill="#DEDEDE" transform="translate(17,12)"/>
<path d="M0,0 L5,1 L3,7 L-2,6 L-2,2 Z " fill="#0D0D0D" transform="translate(13,8)"/>
<path d="M0,0 L2,2 L0,6 L1,9 L-3,7 L-2,2 Z " fill="#BCBCBC" transform="translate(11,7)"/>
</svg>
