<?xml version="1.0" encoding="UTF-8"?>
<svg version="1.1" xmlns="http://www.w3.org/2000/svg" width="28" height="28">
<path d="M0,0 L28,0 L28,28 L0,28 Z " fill="#020202" transform="translate(0,0)"/>
<path d="M0,0 L6,0 L8,2 L8,6 L6,6 L4,10 L-1,18 L-3,20 L-6,19 L0,12 L1,10 L-5,10 L-5,5 Z " fill="#E0E0E0" transform="translate(14,6)"/>
<path d="M0,0 L5,0 L5,4 L1,7 L-3,7 L-2,2 Z " fill="#0E0E0E" transform="translate(14,8)"/>
<path d="M0,0 L6,0 L8,2 L8,6 L6,6 L5,9 L3,7 L5,3 L0,1 Z " fill="#C6C6C6" transform="translate(14,6)"/>
</svg>
