<?xml version="1.0" encoding="UTF-8"?>
<svg version="1.1" xmlns="http://www.w3.org/2000/svg" width="28" height="28">
<path d="M0,0 L28,0 L28,28 L0,28 Z " fill="#020202" transform="translate(0,0)"/>
<path d="M0,0 L5,0 L6,1 L6,7 L0,15 L-2,20 L-4,20 L-2,14 L0,10 L-4,9 L-4,4 Z " fill="#CECECE" transform="translate(14,6)"/>
<path d="M0,0 L5,0 L6,1 L6,7 L3,12 L1,12 L2,7 L4,3 L-1,4 L-4,4 Z " fill="#D2D2D2" transform="translate(14,6)"/>
<path d="M0,0 L5,1 L2,6 L-2,5 L-1,1 Z " fill="#0C0C0C" transform="translate(14,8)"/>
</svg>
