<?xml version="1.0" encoding="UTF-8"?>
<svg version="1.1" xmlns="http://www.w3.org/2000/svg" width="28" height="28">
<path d="M0,0 L28,0 L28,28 L0,28 Z " fill="#020202" transform="translate(0,0)"/>
<path d="M0,0 L4,1 L5,6 L4,10 L0,20 L-2,20 L-2,12 L-7,11 L-7,5 L-2,1 Z " fill="#EBEBEB" transform="translate(15,6)"/>
<path d="M0,0 L4,1 L5,6 L1,8 L-3,8 L-1,2 Z " fill="#E5E5E5" transform="translate(15,6)"/>
<path d="M0,0 L2,0 L3,3 L0,5 L-4,5 L-2,1 Z " fill="#2C2C2C" transform="translate(16,9)"/>
</svg>
