<?xml version="1.0" encoding="UTF-8"?>
<svg version="1.1" xmlns="http://www.w3.org/2000/svg" width="28" height="28">
<path d="M0,0 L28,0 L28,28 L0,28 Z " fill="#030303" transform="translate(0,0)"/>
<path d="M0,0 L5,1 L6,2 L6,9 L5,10 L4,19 L2,20 L2,11 L-4,11 L-5,6 L-3,2 Z " fill="#E1E1E1" transform="translate(13,7)"/>
<path d="M0,0 L4,0 L4,2 L-1,5 L-5,7 L-3,2 Z " fill="#F0F0F0" transform="translate(13,7)"/>
<path d="M0,0 L3,0 L2,4 L-2,5 L-1,1 Z " fill="#151515" transform="translate(13,10)"/>
</svg>
