<?xml version="1.0" encoding="UTF-8"?>
<svg version="1.1" xmlns="http://www.w3.org/2000/svg" width="28" height="28">
<path d="M0,0 L28,0 L28,28 L0,28 Z " fill="#030303" transform="translate(0,0)"/>
<path d="M0,0 L10,2 L14,3 L14,6 L12,7 L9,16 L7,20 L4,20 L4,15 L6,12 L-1,12 L-4,9 L-4,4 Z " fill="#E7E7E7" transform="translate(9,7)"/>
<path d="M0,0 L6,0 L6,4 L0,5 L-2,4 Z " fill="#181818" transform="translate(9,11)"/>
<path d="M0,0 L2,1 L-1,6 L-4,9 L-4,4 Z " fill="#C9C9C9" transform="translate(9,7)"/>
</svg>
