<?xml version="1.0" encoding="UTF-8"?>
<svg version="1.1" xmlns="http://www.w3.org/2000/svg" width="28" height="28">
<path d="M0,0 L28,0 L28,28 L0,28 Z " fill="#020202" transform="translate(0,0)"/>
<path d="M0,0 L5,1 L5,3 L0,4 L-1,9 L2,8 L4,4 L6,4 L8,19 L4,20 L2,11 L-1,12 L-4,9 L-4,4 Z " fill="#F0F0F0" transform="translate(12,5)"/>
<path d="M0,0 L6,0 L4,1 L2,6 L-1,6 L-1,1 Z " fill="#252525" transform="translate(12,8)"/>
<path d="M0,0 L5,1 L5,3 L-2,5 L-4,9 L-4,4 Z " fill="#C9C9C9" transform="translate(12,5)"/>
</svg>
