<?xml version="1.0" encoding="UTF-8"?>
<svg version="1.1" xmlns="http://www.w3.org/2000/svg" width="28" height="28">
<path d="M0,0 L28,0 L28,28 L0,28 Z " fill="#040404" transform="translate(0,0)"/>
<path d="M0,0 L6,1 L7,3 L7,10 L8,20 L6,20 L4,10 L2,13 L-4,13 L-4,5 L-3,2 Z " fill="#CFCFCF" transform="translate(12,6)"/>
<path d="M0,0 L3,0 L2,8 L-3,9 L-2,3 Z " fill="#0F0F0F" transform="translate(12,8)"/>
<path d="M0,0 L2,1 L2,8 L3,18 L1,18 L-1,7 L-2,4 Z " fill="#EBEBEB" transform="translate(17,8)"/>
</svg>
