<?xml version="1.0" encoding="UTF-8"?>
<svg version="1.1" xmlns="http://www.w3.org/2000/svg" width="28" height="28">
<path d="M0,0 L28,0 L28,28 L0,28 Z " fill="#010101" transform="translate(0,0)"/>
<path d="M0,0 L5,0 L6,7 L4,9 L2,16 L0,20 L-2,20 L1,9 L-2,9 L-3,3 Z " fill="#DCDCDC" transform="translate(13,7)"/>
<path d="M0,0 L2,0 L3,4 L6,5 L6,12 L3,17 L1,17 L4,6 L1,6 Z " fill="#D3D3D3" transform="translate(10,10)"/>
<path d="M0,0 L4,0 L3,4 L-1,4 Z " fill="#282828" transform="translate(13,10)"/>
</svg>
