<?xml version="1.0" encoding="UTF-8"?>
<svg version="1.1" xmlns="http://www.w3.org/2000/svg" width="28" height="28">
<path d="M0,0 L28,0 L28,28 L0,28 Z " fill="#020202" transform="translate(0,0)"/>
<path d="M0,0 L6,0 L8,2 L8,7 L2,16 L0,20 L-2,20 L-1,15 L2,10 L-2,9 L-4,7 L-3,2 Z " fill="#E0E0E0" transform="translate(13,6)"/>
<path d="M0,0 L7,1 L5,2 L3,6 L-1,5 L-1,1 Z " fill="#131313" transform="translate(13,8)"/>
<path d="M0,0 L5,1 L6,2 L6,7 L5,5 L3,4 Z " fill="#CBCBCB" transform="translate(15,6)"/>
</svg>
