<?xml version="1.0" encoding="UTF-8"?>
<svg version="1.1" xmlns="http://www.w3.org/2000/svg" width="28" height="28">
<path d="M0,0 L28,0 L28,28 L0,28 Z " fill="#030303" transform="translate(0,0)"/>
<path d="M0,0 L7,1 L10,3 L8,20 L6,20 L6,8 L3,10 L-2,10 L-4,8 L-4,3 Z " fill="#D5D5D5" transform="translate(11,7)"/>
<path d="M0,0 L7,1 L10,3 L8,20 L6,20 L6,10 L7,7 L5,7 L6,2 L0,2 Z " fill="#ECECEC" transform="translate(11,7)"/>
<path d="M0,0 L5,0 L4,4 L2,6 L-2,6 L-2,1 Z " fill="#151515" transform="translate(12,9)"/>
</svg>
