<?xml version="1.0" encoding="UTF-8"?>
<svg version="1.1" xmlns="http://www.w3.org/2000/svg" width="28" height="28">
<path d="M0,0 L28,0 L28,28 L0,28 Z " fill="#010101" transform="translate(0,0)"/>
<path d="M0,0 L5,2 L5,9 L1,20 L0,16 L1,12 L-4,11 L-5,10 L-5,5 Z " fill="#A3A3A3" transform="translate(14,7)"/>
<path d="M0,0 L5,2 L5,9 L2,10 L1,4 L-3,6 L-5,9 L-4,4 Z " fill="#D5D5D5" transform="translate(14,7)"/>
<path d="M0,0 L3,1 L2,7 L-2,6 L-1,1 Z " fill="#070707" transform="translate(13,10)"/>
</svg>
