<?xml version="1.0" encoding="UTF-8"?>
<svg version="1.1" xmlns="http://www.w3.org/2000/svg" width="28" height="28">
<path d="M0,0 L28,0 L28,28 L0,28 Z " fill="#030303" transform="translate(0,0)"/>
<path d="M0,0 L5,0 L7,2 L6,9 L5,15 L4,19 L1,20 L2,11 L-4,11 L-5,5 Z " fill="#EDEDED" transform="translate(13,6)"/>
<path d="M0,0 L5,0 L7,2 L6,9 L4,7 L-1,9 L-2,5 L2,3 L2,1 Z " fill="#D9D9D9" transform="translate(13,6)"/>
<path d="M0,0 L2,0 L1,4 L-2,7 L-4,6 L-3,2 Z " fill="#1A1A1A" transform="translate(15,8)"/>
</svg>
