<?xml version="1.0" encoding="UTF-8"?>
<svg version="1.1" xmlns="http://www.w3.org/2000/svg" width="28" height="28">
<path d="M0,0 L28,0 L28,28 L0,28 Z " fill="#020202" transform="translate(0,0)"/>
<path d="M0,0 L5,0 L9,4 L7,13 L4,20 L1,19 L4,9 L-1,9 L-3,7 L-2,1 Z " fill="#D4D4D4" transform="translate(12,6)"/>
<path d="M0,0 L5,0 L5,3 L0,5 L4,9 L-1,9 L-3,7 L-2,1 Z " fill="#E4E4E4" transform="translate(12,6)"/>
<path d="M0,0 L5,1 L5,4 L-1,4 L-1,1 Z " fill="#050505" transform="translate(13,9)"/>
</svg>
