<?xml version="1.0" encoding="UTF-8"?>
<svg version="1.1" xmlns="http://www.w3.org/2000/svg" width="28" height="28">
<path d="M0,0 L28,0 L28,28 L0,28 Z " fill="#030303" transform="translate(0,0)"/>
<path d="M0,0 L3,0 L3,3 L5,3 L8,16 L7,20 L4,19 L4,14 L-4,14 L-6,11 L-6,4 Z " fill="#E6E6E6" transform="translate(13,5)"/>
<path d="M0,0 L3,0 L6,12 L5,16 L2,15 L1,10 L-2,8 L-1,7 Z " fill="#EAEAEA" transform="translate(15,9)"/>
<path d="M0,0 L3,0 L3,7 L-2,6 L-1,1 Z " fill="#0E0E0E" transform="translate(12,9)"/>
</svg>
