<?xml version="1.0" encoding="UTF-8"?>
<svg version="1.1" xmlns="http://www.w3.org/2000/svg" width="28" height="28">
<path d="M0,0 L28,0 L28,28 L0,28 Z " fill="#020202" transform="translate(0,0)"/>
<path d="M0,0 L11,0 L11,5 L6,13 L5,18 L7,19 L3,20 L2,19 L3,12 L-5,12 L-8,9 L-7,5 L-4,2 Z " fill="#D9D9D9" transform="translate(12,7)"/>
<path d="M0,0 L4,0 L4,2 L2,3 L-1,8 L-9,8 L-10,3 L-7,1 Z " fill="#090909" transform="translate(17,9)"/>
<path d="M0,0 L11,0 L11,5 L9,4 L9,2 L0,3 Z " fill="#BDBDBD" transform="translate(12,7)"/>
</svg>
