<?xml version="1.0" encoding="UTF-8"?>
<svg version="1.1" xmlns="http://www.w3.org/2000/svg" width="28" height="28">
<path d="M0,0 L28,0 L28,28 L0,28 Z " fill="#020202" transform="translate(0,0)"/>
<path d="M0,0 L5,1 L7,2 L7,7 L9,7 L7,20 L3,20 L3,14 L-4,14 L-8,11 L-8,5 L-3,1 Z " fill="#F2F2F2" transform="translate(13,5)"/>
<path d="M0,0 L4,1 L3,7 L2,10 L-4,9 L-5,8 L-5,3 L-3,3 L-3,1 Z " fill="#161616" transform="translate(13,7)"/>
<path d="M0,0 L3,1 L0,3 L-3,3 L-3,5 L-5,5 L-4,10 L-2,11 L-2,13 L3,13 L3,14 L-4,14 L-8,11 L-8,5 L-3,1 Z " fill="#D2D2D2" transform="translate(13,5)"/>
</svg>
