<?xml version="1.0" encoding="UTF-8"?>
<svg version="1.1" xmlns="http://www.w3.org/2000/svg" width="28" height="28">
<path d="M0,0 L28,0 L28,28 L0,28 Z " fill="#030303" transform="translate(0,0)"/>
<path d="M0,0 L7,0 L9,1 L8,6 L3,19 L0,20 L1,15 L3,9 L-4,9 L-5,5 Z " fill="#D7D7D7" transform="translate(12,7)"/>
<path d="M0,0 L1,2 L-4,15 L-7,16 L-6,11 L-4,5 L-11,5 L-12,1 L-3,2 Z " fill="#E8E8E8" transform="translate(19,11)"/>
<path d="M0,0 L6,0 L4,4 L-2,4 Z " fill="#0F0F0F" transform="translate(12,10)"/>
</svg>
