<?xml version="1.0" encoding="UTF-8"?>
<svg version="1.1" xmlns="http://www.w3.org/2000/svg" width="28" height="28">
<path d="M0,0 L28,0 L28,28 L0,28 Z " fill="#030303" transform="translate(0,0)"/>
<path d="M0,0 L6,0 L8,2 L7,7 L3,15 L2,20 L0,20 L0,14 L1,10 L-5,10 L-6,5 Z " fill="#EAEAEA" transform="translate(13,7)"/>
<path d="M0,0 L7,0 L6,3 L1,5 L-3,5 L-1,1 Z " fill="#0D0D0D" transform="translate(12,10)"/>
<path d="M0,0 L3,1 L5,3 L-2,5 L-6,9 L-5,4 Z " fill="#CCCCCC" transform="translate(13,7)"/>
</svg>
