<?xml version="1.0" encoding="UTF-8"?>
<svg version="1.1" xmlns="http://www.w3.org/2000/svg" width="28" height="28">
<path d="M0,0 L28,0 L28,28 L0,28 Z " fill="#030303" transform="translate(0,0)"/>
<path d="M0,0 L5,0 L7,2 L7,5 L9,5 L8,10 L3,20 L0,20 L2,13 L5,8 L-1,10 L-6,9 L-6,4 Z " fill="#C3C3C3" transform="translate(12,6)"/>
<path d="M0,0 L2,0 L1,5 L-4,15 L-7,15 L-5,8 Z " fill="#E8E8E8" transform="translate(19,11)"/>
<path d="M0,0 L5,0 L5,2 L0,4 L-4,8 L1,8 L-1,10 L-6,9 L-6,4 Z " fill="#DDDDDD" transform="translate(12,6)"/>
<path d="M0,0 L5,0 L5,3 L-3,4 L-3,2 Z " fill="#070707" transform="translate(12,9)"/>
</svg>
