<?xml version="1.0" encoding="UTF-8"?>
<svg version="1.1" xmlns="http://www.w3.org/2000/svg" width="28" height="28">
<path d="M0,0 L28,0 L28,28 L0,28 Z " fill="#020202" transform="translate(0,0)"/>
<path d="M0,0 L7,0 L10,3 L10,7 L7,10 L4,20 L1,19 L2,12 L3,10 L-2,10 L-4,8 L-3,3 Z " fill="#D9D9D9" transform="translate(12,7)"/>
<path d="M0,0 L2,0 L1,7 L-1,15 L-4,14 L-3,7 L-2,4 L-5,3 Z " fill="#F2F2F2" transform="translate(17,12)"/>
<path d="M0,0 L5,0 L5,3 L-3,4 L-2,1 Z " fill="#1D1D1D" transform="translate(14,10)"/>
</svg>
