<?xml version="1.0" encoding="UTF-8"?>
<svg version="1.1" xmlns="http://www.w3.org/2000/svg" width="28" height="28">
<path d="M0,0 L28,0 L28,28 L0,28 Z " fill="#020202" transform="translate(0,0)"/>
<path d="M0,0 L5,1 L6,2 L6,16 L7,20 L3,16 L3,11 L-2,10 L-3,9 L-3,2 Z " fill="#EAEAEA" transform="translate(12,6)"/>
<path d="M0,0 L4,2 L2,8 L-2,8 L-3,3 Z " fill="#0E0E0E" transform="translate(13,7)"/>
<path d="M0,0 L5,1 L6,3 L1,2 L-1,4 L-1,9 L3,9 L3,11 L-2,10 L-3,9 L-3,2 Z " fill="#CECECE" transform="translate(12,6)"/>
</svg>
