<?xml version="1.0" encoding="UTF-8"?>
<svg version="1.1" xmlns="http://www.w3.org/2000/svg" width="28" height="28">
<path d="M0,0 L28,0 L28,28 L0,28 Z " fill="#040404" transform="translate(0,0)"/>
<path d="M0,0 L6,0 L9,3 L11,6 L11,13 L6,18 L3,20 L-2,20 L-5,17 L-5,14 L-2,14 L-2,17 L5,15 L8,9 L3,11 L-4,11 L-5,10 L-5,4 Z " fill="#EBEBEB" transform="translate(12,5)"/>
<path d="M0,0 L6,0 L8,1 L8,3 L6,3 L7,6 L4,8 L-3,8 L-5,10 L-5,4 Z " fill="#DADADA" transform="translate(12,5)"/>
<path d="M0,0 L4,2 L4,5 L2,6 L-4,6 L-3,2 Z " fill="#0D0D0D" transform="translate(14,7)"/>
</svg>
