<?xml version="1.0" encoding="UTF-8"?>
<svg version="1.1" xmlns="http://www.w3.org/2000/svg" width="28" height="28">
<path d="M0,0 L28,0 L28,28 L0,28 Z " fill="#020202" transform="translate(0,0)"/>
<path d="M0,0 L4,1 L5,6 L9,7 L12,16 L12,20 L10,20 L6,14 L6,12 L-3,13 L-6,9 L-5,2 Z " fill="#E8E8E8" transform="translate(12,6)"/>
<path d="M0,0 L4,1 L5,6 L8,7 L5,7 L5,9 L-2,9 L-4,8 L-5,2 Z M-6,5 Z " fill="#DEDEDE" transform="translate(12,6)"/>
<path d="M0,0 L4,0 L5,4 L4,5 L-1,5 L-2,1 Z " fill="#0F0F0F" transform="translate(11,10)"/>
</svg>
