<?xml version="1.0" encoding="UTF-8"?>
<svg version="1.1" xmlns="http://www.w3.org/2000/svg" width="28" height="28">
<path d="M0,0 L28,0 L28,28 L0,28 Z " fill="#020202" transform="translate(0,0)"/>
<path d="M0,0 L7,0 L8,5 L1,19 L-2,20 L-1,15 L0,12 L-7,13 L-8,12 L-7,5 Z " fill="#CECECE" transform="translate(14,6)"/>
<path d="M0,0 L2,1 L0,6 L-3,8 L-10,8 L-8,4 L-4,1 Z " fill="#0C0C0C" transform="translate(18,8)"/>
<path d="M0,0 L2,0 L1,5 L-3,13 L-6,14 L-5,9 L-4,6 L-9,6 L-7,4 L0,2 Z " fill="#E9E9E9" transform="translate(18,12)"/>
</svg>
