<?xml version="1.0" encoding="UTF-8"?>
<svg version="1.1" xmlns="http://www.w3.org/2000/svg" width="28" height="28">
<path d="M0,0 L28,0 L28,28 L0,28 Z " fill="#010101" transform="translate(0,0)"/>
<path d="M0,0 L5,1 L7,4 L7,20 L4,19 L4,12 L5,8 L3,9 L-3,9 L-4,8 L-4,3 Z " fill="#CDCDCD" transform="translate(12,7)"/>
<path d="M0,0 L1,0 L1,15 L-2,14 L-2,7 L-1,3 L-7,4 L-5,2 Z " fill="#E5E5E5" transform="translate(18,12)"/>
<path d="M0,0 L3,0 L3,5 L-1,6 L-3,5 L-2,1 Z " fill="#0E0E0E" transform="translate(13,9)"/>
</svg>
