<?xml version="1.0" encoding="UTF-8"?>
<svg version="1.1" xmlns="http://www.w3.org/2000/svg" width="28" height="28">
<path d="M0,0 L28,0 L28,28 L0,28 Z " fill="#010101" transform="translate(0,0)"/>
<path d="M0,0 L6,1 L9,5 L10,14 L11,15 L11,20 L9,19 L7,14 L7,11 L1,11 L-3,7 L-2,2 Z " fill="#D5D5D5" transform="translate(10,6)"/>
<path d="M0,0 L2,0 L3,8 L4,9 L4,14 L2,13 L0,8 L0,5 L-5,5 L-5,3 L-1,2 Z " fill="#E7E7E7" transform="translate(17,12)"/>
<path d="M0,0 L4,1 L6,3 L6,6 L0,6 L-2,4 L-2,1 Z " fill="#0E0E0E" transform="translate(11,8)"/>
</svg>
