<?xml version="1.0" encoding="UTF-8"?>
<svg version="1.1" xmlns="http://www.w3.org/2000/svg" width="28" height="28">
<path d="M0,0 L28,0 L28,28 L0,28 Z " fill="#020202" transform="translate(0,0)"/>
<path d="M0,0 L3,1 L2,4 L2,2 L-3,4 L-5,9 L2,8 L2,5 L5,6 L5,20 L2,20 L1,10 L-6,11 L-7,7 L-4,2 Z " fill="#D8D8D8" transform="translate(14,5)"/>
<path d="M0,0 L1,4 L-1,4 L-1,7 L-8,8 L-7,3 L-4,1 Z " fill="#191919" transform="translate(17,6)"/>
<path d="M0,0 L3,1 L3,15 L0,15 L-1,3 Z " fill="#EFEFEF" transform="translate(16,10)"/>
</svg>
