<?xml version="1.0" encoding="UTF-8"?>
<svg version="1.1" xmlns="http://www.w3.org/2000/svg" width="28" height="28">
<path d="M0,0 L28,0 L28,28 L0,28 Z " fill="#010101" transform="translate(0,0)"/>
<path d="M0,0 L2,0 L3,7 L2,8 L2,19 L-1,20 L-2,11 L-6,11 L-7,4 L-4,1 Z " fill="#C1C1C1" transform="translate(16,6)"/>
<path d="M0,0 L2,0 L3,7 L2,8 L2,19 L-1,20 L-2,8 L0,2 L-2,1 Z " fill="#DEDEDE" transform="translate(16,6)"/>
<path d="M0,0 L2,0 L2,5 L-2,5 L-1,1 Z " fill="#232323" transform="translate(13,9)"/>
</svg>
