<?xml version="1.0" encoding="UTF-8"?>
<svg version="1.1" xmlns="http://www.w3.org/2000/svg" width="28" height="28">
<path d="M0,0 L28,0 L28,28 L0,28 Z " fill="#030303" transform="translate(0,0)"/>
<path d="M0,0 L6,0 L8,2 L10,12 L3,20 L0,19 L0,17 L6,12 L6,10 L-2,10 L-4,6 L-3,2 Z " fill="#E3E3E3" transform="translate(11,6)"/>
<path d="M0,0 L2,0 L1,4 L-3,8 L-6,7 L-6,5 Z " fill="#E4E4E4" transform="translate(17,18)"/>
<path d="M0,0 L3,1 L1,5 L-3,4 L-3,1 Z " fill="#0F0F0F" transform="translate(14,8)"/>
</svg>
