<?xml version="1.0" encoding="UTF-8"?>
<svg version="1.1" xmlns="http://www.w3.org/2000/svg" width="28" height="28">
<path d="M0,0 L28,0 L28,28 L0,28 Z " fill="#030303" transform="translate(0,0)"/>
<path d="M0,0 L6,0 L10,2 L9,6 L4,12 L0,20 L-3,20 L-2,14 L0,11 L-7,8 L-6,3 Z " fill="#E9E9E9" transform="translate(13,6)"/>
<path d="M0,0 L3,0 L3,4 L-1,6 L-5,5 L-3,1 Z " fill="#202020" transform="translate(14,8)"/>
<path d="M0,0 L4,1 L-1,6 L-4,7 L-3,2 Z " fill="#CACACA" transform="translate(10,7)"/>
</svg>
