<?xml version="1.0" encoding="UTF-8"?>
<svg version="1.1" xmlns="http://www.w3.org/2000/svg" width="28" height="28">
<path d="M0,0 L28,0 L28,28 L0,28 Z " fill="#030303" transform="translate(0,0)"/>
<path d="M0,0 L7,1 L6,6 L3,14 L2,20 L0,20 L0,10 L-5,10 L-6,6 L-2,1 Z " fill="#E3E3E3" transform="translate(13,7)"/>
<path d="M0,0 L4,0 L4,5 L-3,9 L-6,9 L-5,4 Z " fill="#C9C9C9" transform="translate(13,7)"/>
<path d="M0,0 L2,0 L1,4 L-1,6 L-4,6 L-4,2 Z " fill="#0E0E0E" transform="translate(14,9)"/>
</svg>
