<?xml version="1.0" encoding="UTF-8"?>
<svg version="1.1" xmlns="http://www.w3.org/2000/svg" width="28" height="28">
<path d="M0,0 L28,0 L28,28 L0,28 Z " fill="#020202" transform="translate(0,0)"/>
<path d="M0,0 L5,1 L7,2 L6,6 L4,6 L2,13 L-4,20 L-6,20 L-5,16 L-3,11 L-7,9 L-6,4 L-3,1 Z " fill="#E6E6E6" transform="translate(15,6)"/>
<path d="M0,0 L3,1 L1,4 L-1,4 L-2,8 L-7,6 L-6,2 L-3,2 Z " fill="#CCCCCC" transform="translate(15,9)"/>
<path d="M0,0 L3,1 L1,4 L-4,5 L-2,1 Z " fill="#212121" transform="translate(15,9)"/>
</svg>
