<?xml version="1.0" encoding="UTF-8"?>
<svg version="1.1" xmlns="http://www.w3.org/2000/svg" width="28" height="28">
<path d="M0,0 L28,0 L28,28 L0,28 Z " fill="#010101" transform="translate(0,0)"/>
<path d="M0,0 L5,1 L6,6 L2,19 L0,20 L1,12 L2,10 L-5,11 L-6,10 L-6,4 Z " fill="#C4C4C4" transform="translate(14,7)"/>
<path d="M0,0 L2,0 L3,6 L1,7 L-5,7 L-4,3 L-3,1 Z " fill="#101010" transform="translate(14,9)"/>
<path d="M0,0 L5,1 L6,6 L4,7 L3,2 L-3,3 L-5,9 L-1,11 L-6,10 L-6,4 Z " fill="#DFDFDF" transform="translate(14,7)"/>
</svg>
