<?xml version="1.0" encoding="UTF-8"?>
<svg version="1.1" xmlns="http://www.w3.org/2000/svg" width="28" height="28">
<path d="M0,0 L28,0 L28,28 L0,28 Z " fill="#020202" transform="translate(0,0)"/>
<path d="M0,0 L6,0 L10,3 L11,10 L8,15 L8,17 L11,18 L7,20 L4,20 L4,15 L6,12 L4,11 L7,7 L6,4 L-1,5 L-1,1 Z " fill="#E7E7E7" transform="translate(10,6)"/>
<path d="M0,0 L5,1 L5,5 L3,8 L3,11 L-2,8 L-5,5 L-4,1 Z " fill="#CECECE" transform="translate(12,9)"/>
<path d="M0,0 L5,1 L5,5 L1,7 L-2,1 Z " fill="#0E0E0E" transform="translate(12,9)"/>
<path d="M0,0 L2,1 L2,3 L7,2 L6,4 L0,5 Z " fill="#D1D1D1" transform="translate(14,21)"/>
</svg>
