<?xml version="1.0" encoding="UTF-8"?>
<svg version="1.1" xmlns="http://www.w3.org/2000/svg" width="28" height="28">
<path d="M0,0 L28,0 L28,28 L0,28 Z " fill="#030303" transform="translate(0,0)"/>
<path d="M0,0 L5,0 L5,3 L7,3 L5,7 L3,7 L1,11 L-4,18 L-9,20 L-7,15 L-1,9 L-8,8 L-8,4 Z " fill="#EBEBEB" transform="translate(16,6)"/>
<path d="M0,0 L5,0 L4,5 L-2,7 L-9,7 L-8,4 Z " fill="#D7D7D7" transform="translate(16,6)"/>
<path d="M0,0 L3,1 L4,3 L-2,5 L-6,5 L-5,2 Z " fill="#404040" transform="translate(16,8)"/>
</svg>
