<?xml version="1.0" encoding="UTF-8"?>
<svg version="1.1" xmlns="http://www.w3.org/2000/svg" width="28" height="28">
<path d="M0,0 L28,0 L28,28 L0,28 Z " fill="#030303" transform="translate(0,0)"/>
<path d="M0,0 L7,1 L6,5 L4,5 L4,3 L-4,5 L-3,6 L7,5 L12,4 L12,6 L3,12 L-1,17 L-6,19 L-6,16 L0,10 L-7,8 L-8,4 L-3,1 Z " fill="#F1F1F1" transform="translate(14,6)"/>
<path d="M0,0 L7,1 L6,5 L4,5 L4,3 L-4,5 L0,8 L-5,9 L-8,7 L-7,3 Z " fill="#D2D2D2" transform="translate(14,6)"/>
<path d="M0,0 L4,2 L-4,5 L-10,5 L-12,3 L-9,1 L-3,1 L-3,3 Z " fill="#1F1F1F" transform="translate(21,8)"/>
</svg>
