<?xml version="1.0" encoding="UTF-8"?>
<svg version="1.1" xmlns="http://www.w3.org/2000/svg" width="28" height="28">
<path d="M0,0 L28,0 L28,28 L0,28 Z " fill="#030303" transform="translate(0,0)"/>
<path d="M0,0 L6,0 L10,3 L10,5 L15,4 L13,8 L5,16 L2,20 L-1,19 L1,14 L4,11 L-3,8 L-3,2 Z " fill="#E9E9E9" transform="translate(10,6)"/>
<path d="M0,0 L7,0 L8,4 L1,5 L-1,4 Z " fill="#181818" transform="translate(10,9)"/>
<path d="M0,0 L6,0 L5,3 L-3,4 L-2,1 Z " fill="#C7C7C7" transform="translate(10,6)"/>
</svg>
