<?xml version="1.0" encoding="UTF-8"?>
<svg version="1.1" xmlns="http://www.w3.org/2000/svg" width="28" height="28">
<path d="M0,0 L28,0 L28,28 L0,28 Z " fill="#020202" transform="translate(0,0)"/>
<path d="M0,0 L6,0 L10,3 L10,9 L7,9 L4,15 L3,20 L0,20 L0,15 L2,10 L-3,10 L-4,3 Z " fill="#EBEBEB" transform="translate(12,7)"/>
<path d="M0,0 L1,0 L1,6 L-2,6 L-5,12 L-6,17 L-9,17 L-9,12 L-5,4 L0,2 Z " fill="#BCBCBC" transform="translate(21,10)"/>
<path d="M0,0 L4,0 L3,4 L1,6 L-3,6 L-2,2 Z " fill="#161616" transform="translate(13,9)"/>
<path d="M0,0 L5,1 L1,3 L-3,5 L-3,2 Z " fill="#CACACA" transform="translate(12,7)"/>
<path d="M0,0 L3,1 L2,6 L-1,6 L-1,1 Z " fill="#D9D9D9" transform="translate(13,21)"/>
</svg>
