<?xml version="1.0" encoding="UTF-8"?>
<svg version="1.1" xmlns="http://www.w3.org/2000/svg" width="28" height="28">
<path d="M0,0 L28,0 L28,28 L0,28 Z " fill="#020202" transform="translate(0,0)"/>
<path d="M0,0 L7,1 L6,8 L4,20 L1,20 L2,10 L-4,11 L-5,10 L-4,3 Z " fill="#D8D8D8" transform="translate(13,7)"/>
<path d="M0,0 L5,0 L6,4 L4,5 L4,2 L-2,5 L-3,9 L1,10 L-4,11 L-5,10 L-4,3 Z " fill="#E8E8E8" transform="translate(13,7)"/>
<path d="M0,0 L1,3 L0,11 L-3,11 L-2,2 Z " fill="#D0D0D0" transform="translate(17,16)"/>
<path d="M0,0 L2,0 L1,5 L-5,6 L-4,2 Z " fill="#141414" transform="translate(15,9)"/>
</svg>
