<?xml version="1.0" encoding="UTF-8"?>
<svg version="1.1" xmlns="http://www.w3.org/2000/svg" width="28" height="28">
<path d="M0,0 L28,0 L28,28 L0,28 Z " fill="#020202" transform="translate(0,0)"/>
<path d="M0,0 L6,0 L8,1 L8,6 L6,6 L6,14 L5,20 L2,20 L3,11 L4,9 L-3,10 L-6,8 L-5,3 Z " fill="#DADADA" transform="translate(13,7)"/>
<path d="M0,0 L1,4 L-1,4 L-1,12 L-2,18 L-5,18 L-4,9 L-3,7 L-8,8 L-9,6 L-2,5 Z " fill="#DBDBDB" transform="translate(20,9)"/>
<path d="M0,0 L4,1 L3,5 L-6,5 L-4,1 Z " fill="#0E0E0E" transform="translate(15,9)"/>
<path d="M0,0 L1,2 L8,2 L4,5 L-1,3 Z " fill="#B7B7B7" transform="translate(8,12)"/>
</svg>
