<?xml version="1.0" encoding="UTF-8"?>
<svg version="1.1" xmlns="http://www.w3.org/2000/svg" width="28" height="28">
<path d="M0,0 L28,0 L28,28 L0,28 Z " fill="#030303" transform="translate(0,0)"/>
<path d="M0,0 L7,0 L7,10 L6,16 L8,16 L6,20 L4,20 L4,8 L-3,12 L-6,12 L-7,7 L-2,1 Z " fill="#EDEDED" transform="translate(13,6)"/>
<path d="M0,0 L7,0 L3,2 L1,7 L-6,10 L-7,7 L-2,1 Z " fill="#D5D5D5" transform="translate(13,6)"/>
<path d="M0,0 L3,1 L-2,6 L-4,6 L-3,2 Z " fill="#1B1B1B" transform="translate(13,9)"/>
</svg>
