<?xml version="1.0" encoding="UTF-8"?>
<svg version="1.1" xmlns="http://www.w3.org/2000/svg" width="28" height="28">
<path d="M0,0 L28,0 L28,28 L0,28 Z " fill="#010101" transform="translate(0,0)"/>
<path d="M0,0 L4,0 L5,2 L5,20 L1,20 L1,10 L-2,13 L-7,12 L-7,6 Z " fill="#CBCBCB" transform="translate(14,6)"/>
<path d="M0,0 L3,1 L3,19 L-1,19 L-1,9 L-4,12 L-7,11 L-4,8 L-2,8 L0,4 Z " fill="#E5E5E5" transform="translate(16,7)"/>
<path d="M0,0 L3,1 L1,6 L-1,6 L-1,8 L-4,8 L-3,3 Z " fill="#141414" transform="translate(13,9)"/>
<path d="M0,0 L4,2 L4,5 L0,5 Z " fill="#C4C4C4" transform="translate(15,21)"/>
</svg>
