<?xml version="1.0" encoding="UTF-8"?>
<svg version="1.1" xmlns="http://www.w3.org/2000/svg" width="28" height="28">
<path d="M0,0 L28,0 L28,28 L0,28 Z " fill="#030303" transform="translate(0,0)"/>
<path d="M0,0 L5,0 L8,2 L8,7 L4,11 L-2,20 L-5,20 L-3,14 L0,11 L-4,10 L-4,4 Z " fill="#E6E6E6" transform="translate(13,6)"/>
<path d="M0,0 L3,1 L2,2 L4,3 L4,6 L1,8 L-3,8 L-4,10 L-4,4 Z " fill="#DBDBDB" transform="translate(13,6)"/>
<path d="M0,0 L4,0 L4,3 L-1,5 Z " fill="#1A1A1A" transform="translate(13,9)"/>
</svg>
