<?xml version="1.0" encoding="UTF-8"?>
<svg version="1.1" xmlns="http://www.w3.org/2000/svg" width="28" height="28">
<path d="M0,0 L28,0 L28,28 L0,28 Z " fill="#020202" transform="translate(0,0)"/>
<path d="M0,0 L5,1 L10,13 L9,19 L7,20 L0,20 L0,17 L7,17 L5,10 L-2,11 L-4,9 L-4,4 Z " fill="#EEEEEE" transform="translate(11,5)"/>
<path d="M0,0 L2,1 L2,3 L3,7 L-1,9 L-4,9 L-4,4 Z " fill="#CCCCCC" transform="translate(11,5)"/>
<path d="M0,0 L1,4 L-2,7 L-9,7 L-9,4 L-1,3 Z " fill="#D1D1D1" transform="translate(20,18)"/>
<path d="M0,0 L2,1 L1,5 L-2,6 L-1,1 Z " fill="#202020" transform="translate(12,8)"/>
</svg>
