<?xml version="1.0" encoding="UTF-8"?>
<svg version="1.1" xmlns="http://www.w3.org/2000/svg" width="28" height="28">
<path d="M0,0 L28,0 L28,28 L0,28 Z " fill="#030303" transform="translate(0,0)"/>
<path d="M0,0 L4,0 L4,9 L3,12 L-1,16 L-3,20 L-6,20 L-5,16 L-2,13 L-1,10 L-7,10 L-8,6 L-2,1 Z " fill="#F0F0F0" transform="translate(16,6)"/>
<path d="M0,0 L2,1 L1,6 L-6,6 L-6,4 Z " fill="#1B1B1B" transform="translate(16,8)"/>
<path d="M0,0 L2,0 L0,4 L-2,4 L-2,6 L3,6 L-1,8 L-4,7 L-3,3 Z " fill="#CECECE" transform="translate(12,8)"/>
<path d="M0,0 L2,2 L0,6 L-3,6 L-2,2 Z " fill="#CCCCCC" transform="translate(13,20)"/>
</svg>
