<?xml version="1.0" encoding="UTF-8"?>
<svg version="1.1" xmlns="http://www.w3.org/2000/svg" width="28" height="28">
<path d="M0,0 L28,0 L28,28 L0,28 Z " fill="#010101" transform="translate(0,0)"/>
<path d="M0,0 L5,0 L8,3 L7,9 L2,20 L-1,20 L1,15 L4,8 L0,7 L-2,5 L-1,1 Z " fill="#E3E3E3" transform="translate(11,6)"/>
<path d="M0,0 L2,0 L1,7 L-3,15 L-6,15 L-4,10 L-2,3 L0,2 Z " fill="#EAEAEA" transform="translate(16,11)"/>
<path d="M0,0 L5,1 L4,4 L-1,3 Z " fill="#242424" transform="translate(12,8)"/>
</svg>
