<?xml version="1.0" encoding="UTF-8"?>
<svg version="1.1" xmlns="http://www.w3.org/2000/svg" width="28" height="28">
<path d="M0,0 L28,0 L28,28 L0,28 Z " fill="#030303" transform="translate(0,0)"/>
<path d="M0,0 L6,1 L10,2 L9,10 L7,17 L11,15 L9,19 L5,19 L6,9 L0,9 L-2,3 Z " fill="#C0C0C0" transform="translate(9,6)"/>
<path d="M0,0 L1,4 L-1,11 L3,9 L1,13 L-3,13 L-2,5 Z " fill="#EAEAEA" transform="translate(17,12)"/>
<path d="M0,0 L6,1 L8,3 L6,5 L1,5 Z " fill="#080808" transform="translate(9,8)"/>
</svg>
