<?xml version="1.0" encoding="UTF-8"?>
<svg version="1.1" xmlns="http://www.w3.org/2000/svg" width="28" height="28">
<path d="M0,0 L28,0 L28,28 L0,28 Z " fill="#020202" transform="translate(0,0)"/>
<path d="M0,0 L6,0 L8,3 L7,8 L3,16 L2,20 L1,19 L2,12 L5,6 L0,8 L-4,8 L-5,5 Z " fill="#B3B3B3" transform="translate(12,8)"/>
<path d="M0,0 L2,0 L3,5 L-2,15 L-3,19 L-4,18 L-3,11 L0,5 L-2,4 L1,3 Z " fill="#D1D1D1" transform="translate(17,9)"/>
<path d="M0,0 L6,0 L6,2 L3,4 L-3,4 L-3,2 Z " fill="#0D0D0D" transform="translate(12,10)"/>
</svg>
