<?xml version="1.0" encoding="UTF-8"?>
<svg version="1.1" xmlns="http://www.w3.org/2000/svg" width="28" height="28">
<path d="M0,0 L28,0 L28,28 L0,28 Z " fill="#010101" transform="translate(0,0)"/>
<path d="M0,0 L5,0 L9,3 L7,13 L8,15 L5,20 L2,20 L2,11 L-1,13 L-7,12 L-9,7 L-6,2 Z " fill="#DADADA" transform="translate(13,6)"/>
<path d="M0,0 L2,1 L0,11 L1,13 L-2,18 L-5,18 L-5,9 L-8,11 L-11,11 L-11,9 L-6,8 L-5,5 L-3,5 L-1,1 Z " fill="#E3E3E3" transform="translate(20,8)"/>
<path d="M0,0 L6,0 L7,2 L3,7 L-3,7 L-4,4 Z " fill="#050505" transform="translate(11,9)"/>
<path d="M0,0 L5,0 L7,3 L4,4 L-1,3 Z " fill="#BFBFBF" transform="translate(13,6)"/>
</svg>
