<?xml version="1.0" encoding="UTF-8"?>
<svg version="1.1" xmlns="http://www.w3.org/2000/svg" width="28" height="28">
<path d="M0,0 L28,0 L28,28 L0,28 Z " fill="#020202" transform="translate(0,0)"/>
<path d="M0,0 L8,0 L9,1 L9,6 L7,6 L5,11 L-2,20 L-6,19 L2,10 L-5,13 L-9,13 L-9,8 Z " fill="#DBDBDB" transform="translate(14,6)"/>
<path d="M0,0 L5,0 L4,3 L-6,9 L-8,9 L-6,5 L-4,5 L-3,2 Z " fill="#1D1D1D" transform="translate(15,8)"/>
<path d="M0,0 L1,2 L-3,8 L-4,4 Z " fill="#F2F2F2" transform="translate(21,10)"/>
</svg>
