<?xml version="1.0" encoding="UTF-8"?>
<svg version="1.1" xmlns="http://www.w3.org/2000/svg" width="28" height="28">
<path d="M0,0 L28,0 L28,28 L0,28 Z " fill="#030303" transform="translate(0,0)"/>
<path d="M0,0 L5,1 L4,10 L0,20 L-1,20 L-1,14 L1,9 L-2,11 L-7,11 L-7,7 L-3,2 Z " fill="#CACACA" transform="translate(15,6)"/>
<path d="M0,0 L2,0 L1,9 L-3,19 L-4,19 L-4,13 L0,6 L-2,5 Z " fill="#E7E7E7" transform="translate(18,7)"/>
<path d="M0,0 L2,0 L1,4 L-4,7 L-6,7 L-4,3 Z " fill="#0E0E0E" transform="translate(16,8)"/>
</svg>
