<?xml version="1.0" encoding="UTF-8"?>
<svg version="1.1" xmlns="http://www.w3.org/2000/svg" width="28" height="28">
<path d="M0,0 L28,0 L28,28 L0,28 Z " fill="#020202" transform="translate(0,0)"/>
<path d="M0,0 L5,0 L6,5 L4,11 L1,20 L-1,20 L0,12 L-4,10 L-3,3 Z " fill="#D7D7D7" transform="translate(13,6)"/>
<path d="M0,0 L1,0 L1,8 L-1,11 L-3,18 L-5,18 L-4,10 L-4,6 L-2,1 Z " fill="#E3E3E3" transform="translate(17,8)"/>
<path d="M0,0 L2,1 L-1,7 L-3,7 L-2,3 Z " fill="#292929" transform="translate(14,8)"/>
</svg>
