<?xml version="1.0" encoding="UTF-8"?>
<svg version="1.1" xmlns="http://www.w3.org/2000/svg" width="28" height="28">
<path d="M0,0 L28,0 L28,28 L0,28 Z " fill="#030303" transform="translate(0,0)"/>
<path d="M0,0 L5,1 L6,5 L6,12 L3,19 L0,20 L3,9 L-4,9 L-4,4 Z " fill="#CCCCCC" transform="translate(13,6)"/>
<path d="M0,0 L5,1 L4,4 L4,2 L-1,4 L-2,8 L2,9 L-4,9 L-4,4 Z " fill="#ECECEC" transform="translate(13,6)"/>
<path d="M0,0 L2,0 L1,5 L-3,5 L-2,1 Z " fill="#0E0E0E" transform="translate(14,8)"/>
</svg>
