<?xml version="1.0" encoding="UTF-8"?>
<svg version="1.1" xmlns="http://www.w3.org/2000/svg" width="28" height="28">
<path d="M0,0 L28,0 L28,28 L0,28 Z " fill="#030303" transform="translate(0,0)"/>
<path d="M0,0 L4,1 L8,3 L7,8 L2,20 L-1,20 L0,14 L2,10 L-5,10 L-6,6 L-2,1 Z " fill="#EFEFEF" transform="translate(13,6)"/>
<path d="M0,0 L6,2 L5,6 L0,9 L-3,9 L-4,5 Z " fill="#E6E6E6" transform="translate(11,7)"/>
<path d="M0,0 L4,0 L3,4 L2,5 L-3,5 L-1,1 Z " fill="#222222" transform="translate(13,9)"/>
</svg>
