<?xml version="1.0" encoding="UTF-8"?>
<svg version="1.1" xmlns="http://www.w3.org/2000/svg" width="28" height="28">
<path d="M0,0 L28,0 L28,28 L0,28 Z " fill="#020202" transform="translate(0,0)"/>
<path d="M0,0 L8,1 L3,15 L1,20 L0,20 L0,14 L1,10 L-3,11 L-4,10 L-3,3 Z " fill="#DEDEDE" transform="translate(13,7)"/>
<path d="M0,0 L3,1 L2,5 L-1,8 L-3,8 L-2,2 Z " fill="#171717" transform="translate(14,8)"/>
<path d="M0,0 L2,1 L-1,10 L-2,10 L-2,4 Z " fill="#C7C7C7" transform="translate(15,17)"/>
</svg>
