<?xml version="1.0" encoding="UTF-8"?>
<svg version="1.1" xmlns="http://www.w3.org/2000/svg" width="28" height="28">
<path d="M0,0 L28,0 L28,28 L0,28 Z " fill="#020202" transform="translate(0,0)"/>
<path d="M0,0 L5,1 L4,8 L1,15 L-2,20 L-4,20 L-3,14 L-1,11 L-5,10 L-5,5 Z " fill="#D8D8D8" transform="translate(15,6)"/>
<path d="M0,0 L5,1 L5,3 L0,4 L-3,8 L1,9 L0,10 L-5,10 L-5,5 Z " fill="#E5E5E5" transform="translate(15,6)"/>
<path d="M0,0 L2,0 L0,6 L-4,6 L-2,2 Z " fill="#101010" transform="translate(16,8)"/>
</svg>
