<?xml version="1.0" encoding="UTF-8"?>
<svg version="1.1" xmlns="http://www.w3.org/2000/svg" width="28" height="28">
<path d="M0,0 L28,0 L28,28 L0,28 Z " fill="#020202" transform="translate(0,0)"/>
<path d="M0,0 L5,0 L6,4 L8,4 L7,8 L4,19 L1,20 L1,10 L-5,10 L-6,7 L-4,3 Z " fill="#E5E5E5" transform="translate(13,6)"/>
<path d="M0,0 L5,1 L5,3 L7,3 L6,7 L3,18 L0,19 L0,11 L3,6 L3,1 Z " fill="#ECECEC" transform="translate(14,7)"/>
<path d="M0,0 L5,1 L5,3 L2,5 L-3,5 L-1,1 Z " fill="#1C1C1C" transform="translate(13,9)"/>
<path d="M0,0 L5,0 L4,3 L-5,6 L-4,3 Z " fill="#CDCDCD" transform="translate(13,6)"/>
</svg>
