<?xml version="1.0" encoding="UTF-8"?>
<svg version="1.1" xmlns="http://www.w3.org/2000/svg" width="28" height="28">
<path d="M0,0 L28,0 L28,28 L0,28 Z " fill="#010101" transform="translate(0,0)"/>
<path d="M0,0 L3,0 L1,5 L-1,10 L-6,20 L-8,20 L-6,14 L-4,10 L-9,10 L-8,5 L-3,1 Z " fill="#C4C4C4" transform="translate(18,6)"/>
<path d="M0,0 L1,2 L-6,15 L-8,15 L-6,9 L-4,5 L-9,5 L-8,1 L-6,3 Z " fill="#D9D9D9" transform="translate(18,11)"/>
<path d="M0,0 L2,0 L2,4 L-4,6 L-2,2 Z " fill="#121212" transform="translate(15,9)"/>
</svg>
