<?xml version="1.0" encoding="UTF-8"?>
<svg version="1.1" xmlns="http://www.w3.org/2000/svg" width="28" height="28">
<path d="M0,0 L28,0 L28,28 L0,28 Z " fill="#020202" transform="translate(0,0)"/>
<path d="M0,0 L7,1 L8,2 L7,18 L6,20 L4,20 L4,12 L-2,11 L-4,9 L-4,4 Z " fill="#EDEDED" transform="translate(12,6)"/>
<path d="M0,0 L4,2 L4,7 L-1,8 L-3,6 L-2,2 Z " fill="#111111" transform="translate(13,8)"/>
<path d="M0,0 L7,1 L8,2 L8,8 L3,3 L-2,5 L-2,2 Z " fill="#BFBFBF" transform="translate(12,6)"/>
</svg>
