<?xml version="1.0" encoding="UTF-8"?>
<svg version="1.1" xmlns="http://www.w3.org/2000/svg" width="28" height="28">
<path d="M0,0 L28,0 L28,28 L0,28 Z " fill="#020202" transform="translate(0,0)"/>
<path d="M0,0 L5,0 L6,1 L6,6 L3,13 L1,20 L-2,19 L-1,13 L-6,12 L-6,6 L-2,1 Z " fill="#DBDBDB" transform="translate(14,6)"/>
<path d="M0,0 L1,2 L2,5 L8,2 L7,8 L5,15 L2,14 L3,8 L-2,7 L-2,1 Z " fill="#ECECEC" transform="translate(10,11)"/>
<path d="M0,0 L4,0 L3,5 L-2,8 L-3,4 Z " fill="#1D1D1D" transform="translate(13,9)"/>
</svg>
