<?xml version="1.0" encoding="UTF-8"?>
<svg version="1.1" xmlns="http://www.w3.org/2000/svg" width="28" height="28">
<path d="M0,0 L28,0 L28,28 L0,28 Z " fill="#030303" transform="translate(0,0)"/>
<path d="M0,0 L5,1 L7,2 L5,11 L1,19 L-3,20 L-3,17 L-1,17 L-1,13 L-7,13 L-6,4 Z " fill="#EDEDED" transform="translate(15,5)"/>
<path d="M0,0 L5,1 L7,2 L6,5 L2,5 L0,9 L-5,11 L-7,7 L-6,4 Z " fill="#DCDCDC" transform="translate(15,5)"/>
<path d="M0,0 L4,1 L0,7 L-4,9 L-3,4 Z " fill="#252525" transform="translate(15,7)"/>
</svg>
