<?xml version="1.0" encoding="UTF-8"?>
<svg version="1.1" xmlns="http://www.w3.org/2000/svg" width="28" height="28">
<path d="M0,0 L28,0 L28,28 L0,28 Z " fill="#030303" transform="translate(0,0)"/>
<path d="M0,0 L5,1 L6,4 L2,13 L-1,19 L-4,20 L-3,14 L-2,12 L-7,12 L-8,11 L-8,6 L-4,1 Z " fill="#EBEBEB" transform="translate(16,6)"/>
<path d="M0,0 L3,1 L2,3 L7,2 L3,7 L-2,9 L-4,5 Z " fill="#DFDFDF" transform="translate(12,7)"/>
<path d="M0,0 L3,1 L-3,6 L-5,6 L-3,1 Z " fill="#242424" transform="translate(16,9)"/>
</svg>
