<?xml version="1.0" encoding="UTF-8"?>
<svg version="1.1" xmlns="http://www.w3.org/2000/svg" width="28" height="28">
<path d="M0,0 L28,0 L28,28 L0,28 Z " fill="#020202" transform="translate(0,0)"/>
<path d="M0,0 L6,0 L7,1 L6,9 L1,19 L-3,19 L-1,14 L0,12 L-5,10 L-6,5 L-3,1 Z " fill="#E8E8E8" transform="translate(14,6)"/>
<path d="M0,0 L7,2 L5,6 L3,10 L-2,9 L-3,4 Z " fill="#E2E2E2" transform="translate(11,7)"/>
<path d="M0,0 L4,0 L2,4 L-3,5 L-2,1 Z " fill="#131313" transform="translate(14,9)"/>
</svg>
