<?xml version="1.0" encoding="UTF-8"?>
<svg version="1.1" xmlns="http://www.w3.org/2000/svg" width="28" height="28">
<path d="M0,0 L28,0 L28,28 L0,28 Z " fill="#030303" transform="translate(0,0)"/>
<path d="M0,0 L4,0 L5,4 L2,14 L0,19 L-3,19 L0,9 L-7,8 L-7,4 L-5,4 L-5,6 L1,5 Z " fill="#EEEEEE" transform="translate(15,7)"/>
<path d="M0,0 L4,1 L2,2 L3,6 L2,7 L-4,7 L-5,4 L-3,1 Z " fill="#C8C8C8" transform="translate(14,6)"/>
<path d="M0,0 L4,0 L3,4 L-2,4 Z " fill="#1F1F1F" transform="translate(13,9)"/>
</svg>
