<?xml version="1.0" encoding="UTF-8"?>
<svg version="1.1" xmlns="http://www.w3.org/2000/svg" width="28" height="28">
<path d="M0,0 L28,0 L28,28 L0,28 Z " fill="#010101" transform="translate(0,0)"/>
<path d="M0,0 L5,1 L4,8 L0,16 L-2,20 L-5,20 L-4,16 L-1,10 L-6,8 L-4,3 Z " fill="#D6D6D6" transform="translate(15,6)"/>
<path d="M0,0 L5,1 L5,5 L0,7 L-6,8 L-4,3 Z " fill="#949494" transform="translate(15,6)"/>
<path d="M0,0 L5,1 L4,5 L2,3 L-2,5 Z " fill="#E8E8E8" transform="translate(15,6)"/>
<path d="M0,0 L3,0 L2,4 L-6,3 L-4,1 Z " fill="#F6F6F6" transform="translate(16,11)"/>
</svg>
