<?xml version="1.0" encoding="UTF-8"?>
<svg version="1.1" xmlns="http://www.w3.org/2000/svg" width="28" height="28">
<path d="M0,0 L28,0 L28,28 L0,28 Z " fill="#020202" transform="translate(0,0)"/>
<path d="M0,0 L6,0 L11,4 L10,8 L5,15 L3,20 L-1,20 L-1,18 L1,18 L2,13 L7,7 L-3,9 L-4,5 Z " fill="#C5C5C5" transform="translate(11,6)"/>
<path d="M0,0 L3,0 L1,4 L-3,12 L-7,12 L-7,10 L-5,10 L-4,5 Z " fill="#DADADA" transform="translate(17,14)"/>
<path d="M0,0 L4,1 L-1,3 L-1,6 L4,6 L3,8 L-3,9 L-4,5 Z " fill="#E2E2E2" transform="translate(11,6)"/>
<path d="M0,0 L5,0 L6,2 L2,4 L-2,4 L-2,1 Z " fill="#0F0F0F" transform="translate(12,8)"/>
</svg>
