<?xml version="1.0" encoding="UTF-8"?>
<svg version="1.1" xmlns="http://www.w3.org/2000/svg" width="28" height="28">
<path d="M0,0 L28,0 L28,28 L0,28 Z " fill="#010101" transform="translate(0,0)"/>
<path d="M0,0 L4,1 L7,2 L5,7 L0,19 L-2,20 L0,11 L1,9 L-3,9 L-2,2 Z " fill="#C7C7C7" transform="translate(13,7)"/>
<path d="M0,0 L2,0 L0,5 L-5,17 L-7,18 L-5,9 L-4,7 L-7,6 L-2,3 Z " fill="#E0E0E0" transform="translate(18,9)"/>
<path d="M0,0 L2,0 L2,2 L4,3 L2,5 L-2,5 Z " fill="#181818" transform="translate(13,9)"/>
</svg>
