<?xml version="1.0" encoding="UTF-8"?>
<svg version="1.1" xmlns="http://www.w3.org/2000/svg" width="28" height="28">
<path d="M0,0 L28,0 L28,28 L0,28 Z " fill="#010101" transform="translate(0,0)"/>
<path d="M0,0 L5,1 L5,17 L7,17 L6,20 L3,19 L2,10 L-3,11 L-5,5 Z " fill="#E5E5E5" transform="translate(13,6)"/>
<path d="M0,0 L1,0 L1,16 L3,16 L2,19 L-1,18 L-1,8 Z " fill="#D5D5D5" transform="translate(17,7)"/>
<path d="M0,0 L3,0 L1,7 L-3,6 L-1,1 Z " fill="#1D1D1D" transform="translate(13,8)"/>
</svg>
