<?xml version="1.0" encoding="UTF-8"?>
<svg version="1.1" xmlns="http://www.w3.org/2000/svg" width="28" height="28">
<path d="M0,0 L28,0 L28,28 L0,28 Z " fill="#020202" transform="translate(0,0)"/>
<path d="M0,0 L5,2 L9,3 L15,12 L15,14 L11,12 L6,7 L2,11 L-4,10 L-5,9 L-5,3 Z " fill="#D9D9D9" transform="translate(11,8)"/>
<path d="M0,0 L3,1 L1,7 L6,8 L5,10 L-1,9 L-2,8 L-2,2 Z " fill="#F5F5F5" transform="translate(8,9)"/>
<path d="M0,0 L4,5 L6,10 L2,8 L-3,1 Z " fill="#DDDDDD" transform="translate(20,12)"/>
<path d="M0,0 L6,1 L3,6 L-1,5 Z " fill="#181818" transform="translate(9,11)"/>
</svg>
