<?xml version="1.0" encoding="UTF-8"?>
<svg version="1.1" xmlns="http://www.w3.org/2000/svg" width="28" height="28">
<path d="M0,0 L28,0 L28,28 L0,28 Z " fill="#030303" transform="translate(0,0)"/>
<path d="M0,0 L4,1 L5,5 L1,15 L-2,20 L-4,20 L-3,14 L0,9 L-5,8 L-4,3 Z " fill="#F4F4F4" transform="translate(15,6)"/>
<path d="M0,0 L4,1 L5,4 L0,6 L-3,7 L-3,2 Z " fill="#8C8C8C" transform="translate(15,6)"/>
<path d="M0,0 L2,0 L1,4 L5,1 L7,2 L5,5 L4,7 L-1,5 Z " fill="#DCDCDC" transform="translate(11,9)"/>
</svg>
