<?xml version="1.0" encoding="UTF-8"?>
<svg version="1.1" xmlns="http://www.w3.org/2000/svg" width="28" height="28">
<path d="M0,0 L28,0 L28,28 L0,28 Z " fill="#020202" transform="translate(0,0)"/>
<path d="M0,0 L6,1 L7,5 L7,13 L5,20 L4,20 L4,9 L2,9 L2,11 L-4,13 L-7,11 L-6,5 Z " fill="#D1D1D1" transform="translate(13,6)"/>
<path d="M0,0 L2,2 L2,10 L0,17 L-1,17 L-1,6 L-3,6 L-3,8 L-7,7 L-1,2 Z " fill="#E6E6E6" transform="translate(18,9)"/>
<path d="M0,0 L3,1 L2,5 L-1,8 L-5,8 L-5,4 Z " fill="#111111" transform="translate(14,8)"/>
</svg>
