<?xml version="1.0" encoding="UTF-8"?>
<svg version="1.1" xmlns="http://www.w3.org/2000/svg" width="28" height="28">
<path d="M0,0 L28,0 L28,28 L0,28 Z " fill="#020202" transform="translate(0,0)"/>
<path d="M0,0 L3,0 L4,9 L0,20 L-3,20 L-2,13 L-6,12 L-7,9 L-4,4 Z " fill="#DFDFDF" transform="translate(15,5)"/>
<path d="M0,0 L3,0 L2,5 L0,7 L-4,6 Z " fill="#181818" transform="translate(14,8)"/>
<path d="M0,0 L0,3 L-2,6 L0,8 L0,10 L-4,9 L-5,6 L-2,1 Z " fill="#B9B9B9" transform="translate(13,8)"/>
</svg>
