<?xml version="1.0" encoding="UTF-8"?>
<svg version="1.1" xmlns="http://www.w3.org/2000/svg" width="28" height="28">
<path d="M0,0 L28,0 L28,28 L0,28 Z " fill="#020202" transform="translate(0,0)"/>
<path d="M0,0 L3,0 L2,3 L-2,5 L3,5 L5,2 L7,2 L5,8 L0,20 L-2,20 L-1,14 L2,8 L-4,9 L-5,5 Z " fill="#E4E4E4" transform="translate(14,7)"/>
<path d="M0,0 L3,1 L1,4 L-5,4 L-3,1 Z " fill="#1E1E1E" transform="translate(16,9)"/>
<path d="M0,0 L2,1 L0,8 L-2,8 L-1,2 Z " fill="#C4C4C4" transform="translate(14,19)"/>
</svg>
