<?xml version="1.0" encoding="UTF-8"?>
<svg version="1.1" xmlns="http://www.w3.org/2000/svg" width="28" height="28">
<path d="M0,0 L28,0 L28,28 L0,28 Z " fill="#040404" transform="translate(0,0)"/>
<path d="M0,0 L7,0 L7,7 L3,19 L1,18 L3,8 L-4,11 L-7,10 L-7,5 L-2,1 Z " fill="#EBEBEB" transform="translate(14,7)"/>
<path d="M0,0 L7,0 L7,3 L-2,8 L-5,7 L-4,2 Z " fill="#D4D4D4" transform="translate(14,7)"/>
<path d="M0,0 L3,0 L1,4 L-3,6 L-6,5 L-3,4 L-3,2 L0,2 Z " fill="#2C2C2C" transform="translate(15,9)"/>
</svg>
