<?xml version="1.0" encoding="UTF-8"?>
<svg version="1.1" xmlns="http://www.w3.org/2000/svg" width="28" height="28">
<path d="M0,0 L28,0 L28,28 L0,28 Z " fill="#020202" transform="translate(0,0)"/>
<path d="M0,0 L5,0 L6,4 L2,14 L-1,20 L-3,20 L-2,15 L1,8 L-4,8 L-5,4 Z " fill="#D9D9D9" transform="translate(14,6)"/>
<path d="M0,0 L5,0 L6,4 L5,2 L-1,4 L-2,5 L4,4 L3,7 L-4,8 L-5,4 Z " fill="#E1E1E1" transform="translate(14,6)"/>
<path d="M0,0 L5,0 L5,2 L2,4 L-3,4 Z " fill="#232323" transform="translate(14,8)"/>
</svg>
