<?xml version="1.0" encoding="UTF-8"?>
<svg version="1.1" xmlns="http://www.w3.org/2000/svg" width="28" height="28">
<path d="M0,0 L28,0 L28,28 L0,28 Z " fill="#010101" transform="translate(0,0)"/>
<path d="M0,0 L8,1 L9,5 L7,7 L7,17 L7,20 L4,19 L4,9 L-2,9 L-4,5 Z " fill="#A0A0A0" transform="translate(10,6)"/>
<path d="M0,0 L4,1 L3,6 L-2,5 L-1,1 Z " fill="#131313" transform="translate(10,8)"/>
<path d="M0,0 L3,1 L2,5 L-3,7 Z " fill="#E8E8E8" transform="translate(16,7)"/>
<path d="M0,0 L2,0 L4,8 L0,8 Z " fill="#E5E5E5" transform="translate(14,17)"/>
</svg>
