<?xml version="1.0" encoding="UTF-8"?>
<svg version="1.1" xmlns="http://www.w3.org/2000/svg" width="28" height="28">
<path d="M0,0 L28,0 L28,28 L0,28 Z " fill="#020202" transform="translate(0,0)"/>
<path d="M0,0 L4,0 L3,5 L0,10 L-8,11 L-9,6 L-4,2 Z " fill="#DBDBDB" transform="translate(17,7)"/>
<path d="M0,0 L4,1 L-1,6 L-4,6 L-3,2 Z " fill="#141414" transform="translate(14,10)"/>
<path d="M0,0 L1,2 L-4,10 L-6,10 L-4,5 Z " fill="#CECECE" transform="translate(15,17)"/>
<path d="M0,0 L2,1 L2,3 L8,2 L4,5 L0,4 Z " fill="#C1C1C1" transform="translate(8,13)"/>
</svg>
