<?xml version="1.0" encoding="UTF-8"?>
<svg version="1.1" xmlns="http://www.w3.org/2000/svg" width="28" height="28">
<path d="M0,0 L28,0 L28,28 L0,28 Z " fill="#020202" transform="translate(0,0)"/>
<path d="M0,0 L5,0 L7,3 L3,15 L2,20 L0,20 L0,10 L-5,10 L-4,3 Z " fill="#D3D3D3" transform="translate(13,7)"/>
<path d="M0,0 L1,2 L-3,17 L-5,17 L-5,7 L-9,7 L-9,5 L-2,2 Z " fill="#E5E5E5" transform="translate(18,10)"/>
<path d="M0,0 L4,1 L2,5 L-3,6 L-2,2 Z " fill="#151515" transform="translate(13,9)"/>
</svg>
