<?xml version="1.0" encoding="UTF-8"?>
<svg version="1.1" xmlns="http://www.w3.org/2000/svg" width="28" height="28">
<path d="M0,0 L28,0 L28,28 L0,28 Z " fill="#030303" transform="translate(0,0)"/>
<path d="M0,0 L5,1 L7,3 L6,8 L1,20 L0,20 L1,13 L3,9 L-5,9 L-6,5 Z " fill="#CCCCCC" transform="translate(13,7)"/>
<path d="M0,0 L5,1 L5,4 L2,6 L-3,6 L-3,3 Z " fill="#111111" transform="translate(13,9)"/>
<path d="M0,0 L4,1 L-1,13 L-2,13 L-1,6 L1,2 L-5,2 L-5,1 Z " fill="#ECECEC" transform="translate(15,14)"/>
</svg>
