<?xml version="1.0" encoding="UTF-8"?>
<svg version="1.1" xmlns="http://www.w3.org/2000/svg" width="28" height="28">
<path d="M0,0 L28,0 L28,28 L0,28 Z " fill="#020202" transform="translate(0,0)"/>
<path d="M0,0 L7,0 L10,3 L9,8 L7,8 L5,15 L3,20 L-2,20 L-1,15 L3,9 L-3,9 L-6,6 L-4,2 Z " fill="#E3E3E3" transform="translate(12,6)"/>
<path d="M0,0 L7,0 L8,2 L7,5 L-2,6 L-2,1 Z " fill="#D6D6D6" transform="translate(12,6)"/>
<path d="M0,0 L4,0 L3,3 L-4,4 Z " fill="#1D1D1D" transform="translate(14,8)"/>
</svg>
