<?xml version="1.0" encoding="UTF-8"?>
<svg version="1.1" xmlns="http://www.w3.org/2000/svg" width="28" height="28">
<path d="M0,0 L28,0 L28,28 L0,28 Z " fill="#020202" transform="translate(0,0)"/>
<path d="M0,0 L6,0 L10,3 L13,2 L14,5 L14,20 L12,20 L12,12 L10,13 L2,13 L-2,9 L-2,2 Z " fill="#0C0C0C" transform="translate(7,6)"/>
<path d="M0,0 L6,0 L10,3 L9,5 L6,3 L1,3 L1,9 L4,11 L11,10 L11,2 L13,2 L14,5 L14,20 L12,20 L12,12 L10,13 L2,13 L-2,9 L-2,2 Z " fill="#DEDEDE" transform="translate(7,6)"/>
<path d="M0,0 L6,0 L10,3 L9,5 L6,3 L1,3 L0,8 L-1,8 L-2,2 Z " fill="#B8B8B8" transform="translate(7,6)"/>
</svg>
