<?xml version="1.0" encoding="UTF-8"?>
<svg version="1.1" xmlns="http://www.w3.org/2000/svg" width="28" height="28">
<path d="M0,0 L28,0 L28,28 L0,28 Z " fill="#020202" transform="translate(0,0)"/>
<path d="M0,0 L2,0 L3,20 L1,20 L-1,11 L-2,4 L-6,5 L-5,8 L-3,10 L-8,9 L-9,4 L-4,1 Z " fill="#E0E0E0" transform="translate(16,7)"/>
<path d="M0,0 L3,1 L3,7 L0,7 L-3,4 L-2,1 Z " fill="#1E1E1E" transform="translate(12,10)"/>
<path d="M0,0 L3,1 L1,5 L4,8 L-1,7 L-2,2 Z " fill="#C4C4C4" transform="translate(9,9)"/>
</svg>
