<?xml version="1.0" encoding="UTF-8"?>
<svg version="1.1" xmlns="http://www.w3.org/2000/svg" width="28" height="28">
<path d="M0,0 L28,0 L28,28 L0,28 Z " fill="#010101" transform="translate(0,0)"/>
<path d="M0,0 L5,1 L4,6 L-1,12 L-2,20 L-5,20 L-5,13 L-4,10 L-9,10 L-8,5 Z " fill="#CBCBCB" transform="translate(16,7)"/>
<path d="M0,0 L3,0 L2,5 L-3,11 L-4,19 L-7,19 L-7,12 L-4,8 L-4,5 L0,1 Z " fill="#E6E6E6" transform="translate(18,8)"/>
<path d="M0,0 L3,1 L2,2 L1,10 L-2,10 L-2,3 Z " fill="#BFBFBF" transform="translate(13,17)"/>
<path d="M0,0 L3,1 L-3,6 L-7,5 Z " fill="#1C1C1C" transform="translate(16,9)"/>
</svg>
