<?xml version="1.0" encoding="UTF-8"?>
<svg version="1.1" xmlns="http://www.w3.org/2000/svg" width="28" height="28">
<path d="M0,0 L28,0 L28,28 L0,28 Z " fill="#020202" transform="translate(0,0)"/>
<path d="M0,0 L5,1 L5,7 L0,16 L-2,20 L-4,20 L-3,15 L0,9 L-6,9 L-6,5 Z " fill="#ECECEC" transform="translate(15,7)"/>
<path d="M0,0 L1,4 L-4,13 L-6,17 L-8,17 L-7,12 L-3,4 Z " fill="#DDDDDD" transform="translate(19,10)"/>
<path d="M0,0 L2,0 L0,4 L-5,5 L-5,3 Z " fill="#292929" transform="translate(16,9)"/>
</svg>
