<?xml version="1.0" encoding="UTF-8"?>
<svg version="1.1" xmlns="http://www.w3.org/2000/svg" width="28" height="28">
<path d="M0,0 L28,0 L28,28 L0,28 Z " fill="#020202" transform="translate(0,0)"/>
<path d="M0,0 L4,1 L7,4 L6,8 L6,20 L3,20 L2,17 L2,10 L-4,12 L-7,9 L-5,3 L-3,3 L-3,1 Z " fill="#E4E4E4" transform="translate(14,6)"/>
<path d="M0,0 L2,1 L-1,6 L2,6 L2,8 L-1,9 L-4,6 L-2,1 Z " fill="#EEEEEE" transform="translate(11,9)"/>
<path d="M0,0 L2,0 L2,5 L-3,6 L-1,1 Z " fill="#212121" transform="translate(13,9)"/>
</svg>
