<?xml version="1.0" encoding="UTF-8"?>
<svg version="1.1" xmlns="http://www.w3.org/2000/svg" width="28" height="28">
<path d="M0,0 L28,0 L28,28 L0,28 Z " fill="#030303" transform="translate(0,0)"/>
<path d="M0,0 L2,0 L4,5 L7,6 L3,14 L2,20 L0,20 L0,14 L2,10 L-2,12 L-7,11 L-6,5 Z " fill="#D0D0D0" transform="translate(14,6)"/>
<path d="M0,0 L4,0 L3,6 L-3,7 L-2,2 Z " fill="#151515" transform="translate(12,9)"/>
<path d="M0,0 L2,0 L2,2 L-2,6 L-3,9 L3,8 L0,11 L-5,10 L-4,4 Z " fill="#F0F0F0" transform="translate(12,7)"/>
<path d="M0,0 L1,3 L0,9 L-2,9 L-2,3 Z " fill="#E7E7E7" transform="translate(16,17)"/>
</svg>
