<?xml version="1.0" encoding="UTF-8"?>
<svg version="1.1" xmlns="http://www.w3.org/2000/svg" width="28" height="28">
<path d="M0,0 L28,0 L28,28 L0,28 Z " fill="#030303" transform="translate(0,0)"/>
<path d="M0,0 L5,1 L4,5 L2,5 L1,9 L-2,14 L-4,14 L-6,19 L-10,20 L-9,16 L-7,13 L-13,11 L-13,6 L-8,2 Z " fill="#EDEDED" transform="translate(19,6)"/>
<path d="M0,0 L3,1 L3,7 L1,8 L2,10 L-4,10 L-5,9 L-5,4 Z " fill="#E4E4E4" transform="translate(11,8)"/>
<path d="M0,0 L4,1 L2,5 L-4,5 L-4,3 Z " fill="#B1B1B1" transform="translate(20,6)"/>
<path d="M0,0 L2,0 L2,4 L-4,4 Z " fill="#2D2D2D" transform="translate(12,11)"/>
</svg>
