<?xml version="1.0" encoding="UTF-8"?>
<svg version="1.1" xmlns="http://www.w3.org/2000/svg" width="28" height="28">
<path d="M0,0 L28,0 L28,28 L0,28 Z " fill="#020202" transform="translate(0,0)"/>
<path d="M0,0 L6,0 L11,5 L11,18 L10,20 L8,20 L7,10 L4,11 L-4,11 L-5,4 Z " fill="#D6D6D6" transform="translate(10,6)"/>
<path d="M0,0 L5,1 L8,4 L3,7 L-3,7 L-3,3 Z " fill="#101010" transform="translate(11,8)"/>
<path d="M0,0 L1,0 L2,8 L1,10 L-1,10 L-1,1 Z " fill="#F7F7F7" transform="translate(19,16)"/>
</svg>
