<?xml version="1.0" encoding="UTF-8"?>
<svg version="1.1" xmlns="http://www.w3.org/2000/svg" width="28" height="28">
<path d="M0,0 L28,0 L28,28 L0,28 Z " fill="#020202" transform="translate(0,0)"/>
<path d="M0,0 L5,0 L5,4 L4,2 L-3,5 L-4,7 L4,5 L8,5 L6,9 L0,16 L-2,16 L-3,20 L-6,19 L-3,14 L1,9 L-6,9 L-8,8 L-7,4 Z " fill="#DEDEDE" transform="translate(15,7)"/>
<path d="M0,0 L3,0 L3,4 L-5,5 L-4,2 Z " fill="#2C2C2C" transform="translate(16,9)"/>
<path d="M0,0 L5,0 L5,4 L4,2 L-2,3 Z " fill="#F2F2F2" transform="translate(15,7)"/>
</svg>
