<?xml version="1.0" encoding="UTF-8"?>
<svg version="1.1" xmlns="http://www.w3.org/2000/svg" width="28" height="28">
<path d="M0,0 L28,0 L28,28 L0,28 Z " fill="#000000" transform="translate(0,0)"/>
<path d="M0,0 L5,1 L5,20 L3,20 L2,17 L2,9 L-2,9 L-3,2 Z " fill="#838383" transform="translate(13,7)"/>
<path d="M0,0 L1,0 L2,18 L0,18 L-1,15 L-1,7 L-4,6 L-2,5 L-2,1 Z " fill="#BABABA" transform="translate(16,9)"/>
<path d="M0,0 L1,0 L1,8 L-4,7 L-2,5 L-2,1 Z " fill="#F0F0F0" transform="translate(16,9)"/>
</svg>
