<?xml version="1.0" encoding="UTF-8"?>
<svg version="1.1" xmlns="http://www.w3.org/2000/svg" width="28" height="28">
<path d="M0,0 L28,0 L28,28 L0,28 Z " fill="#020202" transform="translate(0,0)"/>
<path d="M0,0 L5,0 L9,2 L8,9 L3,19 L1,19 L2,14 L4,8 L-3,9 L-4,4 Z " fill="#F1F1F1" transform="translate(11,7)"/>
<path d="M0,0 L5,0 L2,2 L4,4 L0,9 L-4,8 L-3,3 Z " fill="#AFAFAF" transform="translate(11,7)"/>
<path d="M0,0 L2,4 L-2,12 L-4,12 L-3,7 Z " fill="#DADADA" transform="translate(16,14)"/>
</svg>
