<?xml version="1.0" encoding="UTF-8"?>
<svg version="1.1" xmlns="http://www.w3.org/2000/svg" width="28" height="28">
<path d="M0,0 L28,0 L28,28 L0,28 Z " fill="#020202" transform="translate(0,0)"/>
<path d="M0,0 L6,0 L7,4 L3,14 L-1,20 L-4,20 L-3,16 L0,11 L-7,12 L-9,10 L-8,6 L-4,2 Z " fill="#2B2B2B" transform="translate(16,6)"/>
<path d="M0,0 L6,0 L5,3 L-1,4 L-6,8 L-7,10 L0,9 L-3,12 L-8,11 L-9,7 L-4,2 Z " fill="#E7E7E7" transform="translate(16,6)"/>
<path d="M0,0 L1,4 L-2,10 L-5,15 L-8,15 L-7,11 L-3,4 Z " fill="#E4E4E4" transform="translate(20,11)"/>
</svg>
