<?xml version="1.0" encoding="UTF-8"?>
<svg version="1.1" xmlns="http://www.w3.org/2000/svg" width="28" height="28">
<path d="M0,0 L28,0 L28,28 L0,28 Z " fill="#030303" transform="translate(0,0)"/>
<path d="M0,0 L6,0 L11,5 L12,19 L9,19 L8,10 L6,11 L-1,11 L-4,7 L-2,1 Z " fill="#DFDFDF" transform="translate(10,7)"/>
<path d="M0,0 L3,0 L4,14 L1,14 L0,5 L-4,4 Z " fill="#E7E7E7" transform="translate(18,12)"/>
<path d="M0,0 L5,1 L4,4 L-2,5 L-2,1 Z " fill="#101010" transform="translate(12,10)"/>
</svg>
