<?xml version="1.0" encoding="UTF-8"?>
<svg version="1.1" xmlns="http://www.w3.org/2000/svg" width="28" height="28">
<path d="M0,0 L28,0 L28,28 L0,28 Z " fill="#010101" transform="translate(0,0)"/>
<path d="M0,0 L5,0 L7,3 L5,20 L3,20 L3,11 L-2,11 L-4,9 L-3,3 Z " fill="#DEDEDE" transform="translate(12,6)"/>
<path d="M0,0 L3,0 L2,7 L-3,6 L-1,1 Z " fill="#0A0A0A" transform="translate(13,8)"/>
<path d="M0,0 L3,1 L1,6 L6,8 L6,9 L0,9 L-2,7 L-1,1 Z " fill="#C5C5C5" transform="translate(10,8)"/>
</svg>
