<?xml version="1.0" encoding="UTF-8"?>
<svg version="1.1" xmlns="http://www.w3.org/2000/svg" width="28" height="28">
<path d="M0,0 L28,0 L28,28 L0,28 Z " fill="#010101" transform="translate(0,0)"/>
<path d="M0,0 L5,0 L7,3 L5,12 L3,20 L1,20 L2,13 L3,10 L-2,10 L-3,9 L-2,2 Z " fill="#D4D4D4" transform="translate(12,6)"/>
<path d="M0,0 L2,0 L0,12 L-1,14 L-3,14 L-2,2 Z " fill="#EAEAEA" transform="translate(16,12)"/>
<path d="M0,0 L3,0 L2,4 L0,7 L-2,7 L-2,2 Z " fill="#1F1F1F" transform="translate(13,8)"/>
</svg>
