<?xml version="1.0" encoding="UTF-8"?>
<svg version="1.1" xmlns="http://www.w3.org/2000/svg" width="28" height="28">
<path d="M0,0 L28,0 L28,28 L0,28 Z " fill="#030303" transform="translate(0,0)"/>
<path d="M0,0 L7,0 L8,1 L7,12 L6,20 L4,20 L3,11 L-4,12 L-6,11 L-6,4 Z " fill="#C3C3C3" transform="translate(12,7)"/>
<path d="M0,0 L4,1 L3,5 L1,7 L-7,7 L-6,3 Z " fill="#101010" transform="translate(14,9)"/>
<path d="M0,0 L1,0 L1,9 L0,17 L-2,17 L-1,6 L-3,5 Z " fill="#E9E9E9" transform="translate(18,10)"/>
</svg>
