<?xml version="1.0" encoding="UTF-8"?>
<svg version="1.1" xmlns="http://www.w3.org/2000/svg" width="28" height="28">
<path d="M0,0 L28,0 L28,28 L0,28 Z " fill="#030303" transform="translate(0,0)"/>
<path d="M0,0 L5,1 L5,12 L4,19 L2,20 L3,11 L-4,12 L-6,10 L-6,5 Z " fill="#DCDCDC" transform="translate(13,6)"/>
<path d="M0,0 L4,0 L4,5 L2,7 L-3,6 L-2,2 Z " fill="#070707" transform="translate(12,9)"/>
<path d="M0,0 L5,1 L5,8 L3,8 L3,3 L-2,3 L-2,1 Z " fill="#ECECEC" transform="translate(13,6)"/>
<path d="M0,0 L2,2 L-2,8 L-3,8 L-3,3 Z " fill="#BCBCBC" transform="translate(10,8)"/>
</svg>
