<?xml version="1.0" encoding="UTF-8"?>
<svg version="1.1" xmlns="http://www.w3.org/2000/svg" width="28" height="28">
<path d="M0,0 L28,0 L28,28 L0,28 Z " fill="#020202" transform="translate(0,0)"/>
<path d="M0,0 L5,0 L7,3 L7,19 L5,20 L5,9 L-2,10 L-3,9 L-3,3 Z " fill="#DCDCDC" transform="translate(12,7)"/>
<path d="M0,0 L2,2 L6,1 L10,1 L10,14 L8,15 L8,4 L1,5 Z " fill="#E5E5E5" transform="translate(9,12)"/>
<path d="M0,0 L4,0 L2,4 L-2,5 L-2,2 Z " fill="#161616" transform="translate(13,10)"/>
</svg>
