<?xml version="1.0" encoding="UTF-8"?>
<svg version="1.1" xmlns="http://www.w3.org/2000/svg" width="28" height="28">
<path d="M0,0 L28,0 L28,28 L0,28 Z " fill="#030303" transform="translate(0,0)"/>
<path d="M0,0 L5,1 L5,11 L3,20 L1,20 L2,13 L-1,15 L-5,14 L-5,6 Z " fill="#D9D9D9" transform="translate(14,5)"/>
<path d="M0,0 L4,1 L2,8 L-1,11 L-3,11 L-3,5 Z " fill="#0F0F0F" transform="translate(14,7)"/>
<path d="M0,0 L2,1 L3,5 L2,10 L0,10 L0,3 Z " fill="#C2C2C2" transform="translate(15,15)"/>
</svg>
