<?xml version="1.0" encoding="UTF-8"?>
<svg version="1.1" xmlns="http://www.w3.org/2000/svg" width="28" height="28">
<path d="M0,0 L28,0 L28,28 L0,28 Z " fill="#020202" transform="translate(0,0)"/>
<path d="M0,0 L7,1 L8,2 L8,7 L6,7 L4,20 L2,20 L2,10 L-3,10 L-4,9 L-4,4 Z " fill="#CDCDCD" transform="translate(12,7)"/>
<path d="M0,0 L7,1 L8,6 L5,6 L5,2 L-1,4 L-2,9 L1,10 L-4,9 L-4,4 Z " fill="#E8E8E8" transform="translate(12,7)"/>
<path d="M0,0 L5,0 L3,5 L-2,6 L-1,1 Z " fill="#0B0B0B" transform="translate(12,9)"/>
</svg>
