<?xml version="1.0" encoding="UTF-8"?>
<svg version="1.1" xmlns="http://www.w3.org/2000/svg" width="28" height="28">
<path d="M0,0 L28,0 L28,28 L0,28 Z " fill="#020202" transform="translate(0,0)"/>
<path d="M0,0 L5,0 L6,3 L8,3 L6,9 L-4,20 L-6,20 L-4,16 L2,9 L-5,7 L-4,3 Z " fill="#E5E5E5" transform="translate(14,7)"/>
<path d="M0,0 L4,2 L-6,13 L-8,13 L-6,9 L0,1 Z " fill="#D7D7D7" transform="translate(16,14)"/>
<path d="M0,0 L5,1 L0,5 L-4,5 L-2,1 Z " fill="#252525" transform="translate(15,9)"/>
</svg>
