<?xml version="1.0" encoding="UTF-8"?>
<svg version="1.1" xmlns="http://www.w3.org/2000/svg" width="28" height="28">
<path d="M0,0 L28,0 L28,28 L0,28 Z " fill="#020202" transform="translate(0,0)"/>
<path d="M0,0 L5,1 L6,3 L6,20 L4,20 L3,11 L-2,11 L-3,10 L-3,3 Z " fill="#CECECE" transform="translate(12,6)"/>
<path d="M0,0 L1,0 L1,16 L-1,16 L-2,7 L-6,6 L-2,4 Z " fill="#DDDDDD" transform="translate(17,10)"/>
<path d="M0,0 L2,0 L3,6 L-2,7 L-2,2 Z " fill="#1D1D1D" transform="translate(13,8)"/>
</svg>
