<?xml version="1.0" encoding="UTF-8"?>
<svg version="1.1" xmlns="http://www.w3.org/2000/svg" width="28" height="28">
<path d="M0,0 L28,0 L28,28 L0,28 Z " fill="#020202" transform="translate(0,0)"/>
<path d="M0,0 L5,0 L5,5 L4,6 L2,20 L0,20 L0,13 L-6,17 L-10,15 L-9,9 L-2,1 Z " fill="#D6D6D6" transform="translate(16,5)"/>
<path d="M0,0 L5,0 L5,5 L4,6 L2,20 L0,20 L0,13 L-4,16 L-7,15 L-2,10 L1,3 L-1,2 Z " fill="#E7E7E7" transform="translate(16,5)"/>
<path d="M0,0 L1,4 L-5,11 L-7,11 L-6,6 Z " fill="#131313" transform="translate(16,8)"/>
</svg>
