<?xml version="1.0" encoding="UTF-8"?>
<svg version="1.1" xmlns="http://www.w3.org/2000/svg" width="28" height="28">
<path d="M0,0 L28,0 L28,28 L0,28 Z " fill="#030303" transform="translate(0,0)"/>
<path d="M0,0 L5,0 L10,2 L8,7 L6,7 L4,12 L-1,20 L-3,20 L-2,15 L-1,13 L-7,11 L-8,6 Z " fill="#E7E7E7" transform="translate(14,6)"/>
<path d="M0,0 L5,1 L5,3 L1,7 L-6,8 L-6,4 Z " fill="#202020" transform="translate(15,8)"/>
<path d="M0,0 L4,0 L5,5 L2,9 L0,9 L1,4 L2,2 Z " fill="#CDCDCD" transform="translate(11,17)"/>
</svg>
