<?xml version="1.0" encoding="UTF-8"?>
<svg version="1.1" xmlns="http://www.w3.org/2000/svg" width="28" height="28">
<path d="M0,0 L28,0 L28,28 L0,28 Z " fill="#020202" transform="translate(0,0)"/>
<path d="M0,0 L11,0 L12,4 L6,13 L2,20 L0,20 L1,14 L2,12 L0,12 L-2,9 L-1,2 Z " fill="#D5D5D5" transform="translate(10,7)"/>
<path d="M0,0 L1,2 L-2,7 L-6,14 L-8,14 L-7,8 L-5,5 L-7,4 L-2,3 L-2,1 Z " fill="#ECECEC" transform="translate(18,13)"/>
<path d="M0,0 L8,0 L5,6 L0,6 Z " fill="#111111" transform="translate(11,10)"/>
<path d="M0,0 L2,0 L1,6 L-2,7 L-1,1 Z " fill="#D4D4D4" transform="translate(12,20)"/>
</svg>
