<?xml version="1.0" encoding="UTF-8"?>
<svg version="1.1" xmlns="http://www.w3.org/2000/svg" width="28" height="28">
<path d="M0,0 L28,0 L28,28 L0,28 Z " fill="#020202" transform="translate(0,0)"/>
<path d="M0,0 L4,1 L3,6 L-3,14 L-7,20 L-8,17 L-6,12 L-8,12 L-7,6 Z " fill="#E4E4E4" transform="translate(17,6)"/>
<path d="M0,0 L4,1 L4,5 L-1,7 L-3,9 L-7,8 L-5,4 Z " fill="#D3D3D3" transform="translate(17,6)"/>
<path d="M0,0 L2,0 L0,4 L-2,6 L-5,5 Z " fill="#151515" transform="translate(17,8)"/>
</svg>
