<?xml version="1.0" encoding="UTF-8"?>
<svg version="1.1" xmlns="http://www.w3.org/2000/svg" width="28" height="28">
<path d="M0,0 L28,0 L28,28 L0,28 Z " fill="#020202" transform="translate(0,0)"/>
<path d="M0,0 L6,0 L8,4 L3,9 L-8,20 L-10,20 L-8,16 L-1,9 L-8,9 L-7,5 Z " fill="#DADADA" transform="translate(16,7)"/>
<path d="M0,0 L3,2 L-8,13 L-10,13 L-8,9 L-1,2 Z " fill="#D3D3D3" transform="translate(16,14)"/>
<path d="M0,0 L6,0 L3,3 L-1,5 L-5,4 Z " fill="#111111" transform="translate(16,9)"/>
</svg>
