<?xml version="1.0" encoding="UTF-8"?>
<svg version="1.1" xmlns="http://www.w3.org/2000/svg" width="28" height="28">
<path d="M0,0 L28,0 L28,28 L0,28 Z " fill="#010101" transform="translate(0,0)"/>
<path d="M0,0 L7,0 L10,4 L10,20 L8,20 L6,11 L6,9 L2,11 L-5,11 L-6,10 L-6,5 Z " fill="#CECECE" transform="translate(11,7)"/>
<path d="M0,0 L6,0 L7,4 L2,7 L-4,7 L-4,3 Z " fill="#0B0B0B" transform="translate(11,9)"/>
<path d="M0,0 L1,0 L3,8 L3,13 L1,13 L0,11 Z " fill="#DEDEDE" transform="translate(18,14)"/>
</svg>
