<?xml version="1.0" encoding="UTF-8"?>
<svg version="1.1" xmlns="http://www.w3.org/2000/svg" width="28" height="28">
<path d="M0,0 L28,0 L28,28 L0,28 Z " fill="#050505" transform="translate(0,0)"/>
<path d="M0,0 L9,1 L14,6 L13,13 L6,19 L-1,20 L-2,16 L1,15 L6,14 L9,11 L10,6 L8,10 L1,11 L-3,9 L-3,7 L-5,7 L-4,2 Z " fill="#E1E1E1" transform="translate(10,6)"/>
<path d="M0,0 L1,3 L-4,8 L-7,10 L-12,10 L-13,6 L-10,5 L-5,4 Z " fill="#EDEDED" transform="translate(21,16)"/>
<path d="M0,0 L6,1 L5,4 L-1,4 L-2,1 Z " fill="#232323" transform="translate(11,9)"/>
</svg>
