<?xml version="1.0" encoding="UTF-8"?>
<svg version="1.1" xmlns="http://www.w3.org/2000/svg" width="28" height="28">
<path d="M0,0 L28,0 L28,28 L0,28 Z " fill="#020202" transform="translate(0,0)"/>
<path d="M0,0 L5,0 L6,5 L-4,16 L-6,20 L-8,20 L-7,16 L-1,8 L-6,8 L-5,4 Z " fill="#F1F1F1" transform="translate(15,7)"/>
<path d="M0,0 L2,1 L1,6 L-4,6 L-4,3 Z " fill="#8D8D8D" transform="translate(15,7)"/>
<path d="M0,0 L3,1 L-2,7 L-3,9 L-5,9 L-4,5 Z " fill="#D7D7D7" transform="translate(12,18)"/>
</svg>
