<?xml version="1.0" encoding="UTF-8"?>
<svg version="1.1" xmlns="http://www.w3.org/2000/svg" width="28" height="28">
<path d="M0,0 L28,0 L28,28 L0,28 Z " fill="#030303" transform="translate(0,0)"/>
<path d="M0,0 L5,0 L4,4 L-2,13 L-6,20 L-8,20 L-6,14 L-4,11 L-2,11 L-2,9 L-10,10 L-8,5 Z " fill="#D8D8D8" transform="translate(17,7)"/>
<path d="M0,0 L3,1 L1,5 L1,9 L-2,13 L-4,17 L-6,17 L-4,11 L-2,8 L0,8 L-1,6 L-5,4 Z " fill="#999999" transform="translate(15,10)"/>
<path d="M0,0 L2,0 L0,5 L-2,8 L-5,7 L-3,3 Z " fill="#F6F6F6" transform="translate(20,8)"/>
</svg>
