<?xml version="1.0" encoding="UTF-8"?>
<svg version="1.1" xmlns="http://www.w3.org/2000/svg" width="28" height="28">
<path d="M0,0 L28,0 L28,28 L0,28 Z " fill="#020202" transform="translate(0,0)"/>
<path d="M0,0 L5,1 L3,7 L-3,16 L-5,20 L-7,20 L-5,15 L-2,9 L-9,9 L-8,4 L-4,1 Z " fill="#EDEDED" transform="translate(17,7)"/>
<path d="M0,0 L7,0 L3,6 L-3,6 L-2,1 Z " fill="#D2D2D2" transform="translate(11,10)"/>
<path d="M0,0 L2,3 L-3,11 L-5,11 L-3,6 Z " fill="#D3D3D3" transform="translate(15,16)"/>
<path d="M0,0 L4,1 L1,4 L-4,4 Z " fill="#292929" transform="translate(14,10)"/>
</svg>
