<?xml version="1.0" encoding="UTF-8"?>
<svg version="1.1" xmlns="http://www.w3.org/2000/svg" width="28" height="28">
<path d="M0,0 L28,0 L28,28 L0,28 Z " fill="#020202" transform="translate(0,0)"/>
<path d="M0,0 L4,0 L3,5 L-6,16 L-8,20 L-10,20 L-10,16 L-8,16 L-6,11 L-4,8 L-8,8 L-7,3 Z " fill="#ECECEC" transform="translate(18,7)"/>
<path d="M0,0 L2,0 L1,4 L-2,7 L-3,10 L-5,10 L-5,6 L-3,6 L-1,1 Z " fill="#CBCBCB" transform="translate(13,17)"/>
<path d="M0,0 L2,0 L2,2 L4,3 L-2,5 L-2,1 Z " fill="#D5D5D5" transform="translate(14,8)"/>
</svg>
