<?xml version="1.0" encoding="UTF-8"?>
<svg version="1.1" xmlns="http://www.w3.org/2000/svg" width="28" height="28">
<path d="M0,0 L28,0 L28,28 L0,28 Z " fill="#020202" transform="translate(0,0)"/>
<path d="M0,0 L3,0 L3,2 L-2,7 L-3,9 L3,5 L4,3 L6,3 L5,16 L4,20 L2,20 L2,9 L-4,10 L-4,6 L-1,1 Z " fill="#E8E8E8" transform="translate(12,6)"/>
<path d="M0,0 L1,0 L1,5 L-4,9 L-6,9 L-4,4 L0,2 Z " fill="#313131" transform="translate(15,6)"/>
<path d="M0,0 L3,0 L2,7 L0,7 Z " fill="#DDDDDD" transform="translate(14,19)"/>
</svg>
