<?xml version="1.0" encoding="UTF-8"?>
<svg version="1.1" xmlns="http://www.w3.org/2000/svg" width="28" height="28">
<path d="M0,0 L28,0 L28,28 L0,28 Z " fill="#010101" transform="translate(0,0)"/>
<path d="M0,0 L8,0 L8,2 L6,2 L5,7 L0,20 L-2,20 L-2,15 L1,8 L-5,8 L-6,5 L-2,1 Z " fill="#222222" transform="translate(14,7)"/>
<path d="M0,0 L1,2 L-4,13 L-5,17 L-7,17 L-7,12 L-4,7 L-3,2 Z " fill="#C8C8C8" transform="translate(19,10)"/>
<path d="M0,0 L6,0 L3,2 L-3,5 L0,8 L-5,8 L-6,5 L-2,1 Z " fill="#C0C0C0" transform="translate(14,7)"/>
</svg>
