<?xml version="1.0" encoding="UTF-8"?>
<svg version="1.1" xmlns="http://www.w3.org/2000/svg" width="28" height="28">
<path d="M0,0 L28,0 L28,28 L0,28 Z " fill="#030303" transform="translate(0,0)"/>
<path d="M0,0 L9,0 L17,4 L15,8 L15,16 L16,20 L13,19 L12,17 L12,9 L1,9 L-3,6 L-2,2 Z " fill="#D0D0D0" transform="translate(6,7)"/>
<path d="M0,0 L8,0 L12,2 L11,5 L0,5 L-2,2 Z " fill="#0C0C0C" transform="translate(7,9)"/>
<path d="M0,0 L3,1 L1,3 L1,11 L2,15 L-1,14 L-2,12 L-2,4 L-11,4 L-11,3 L-2,1 Z " fill="#EEEEEE" transform="translate(20,12)"/>
</svg>
