<?xml version="1.0" encoding="UTF-8"?>
<svg version="1.1" xmlns="http://www.w3.org/2000/svg" width="28" height="28">
<path d="M0,0 L28,0 L28,28 L0,28 Z " fill="#000000" transform="translate(0,0)"/>
<path d="M0,0 L2,0 L1,7 L3,7 L4,5 L6,5 L6,20 L3,20 L3,11 L-1,11 L-2,9 L-2,3 Z " fill="#DBDBDB" transform="translate(12,6)"/>
<path d="M0,0 L3,3 L1,8 L-2,7 L-1,2 Z " fill="#646464" transform="translate(14,6)"/>
<path d="M0,0 L2,0 L0,9 L-2,9 L-2,3 Z " fill="#F2F2F2" transform="translate(12,6)"/>
</svg>
