<?xml version="1.0" encoding="UTF-8"?>
<svg version="1.1" xmlns="http://www.w3.org/2000/svg" width="28" height="28">
<path d="M0,0 L28,0 L28,28 L0,28 Z " fill="#010101" transform="translate(0,0)"/>
<path d="M0,0 L5,0 L6,5 L4,15 L2,20 L1,20 L2,11 L2,8 L0,10 L-4,9 L-3,3 Z " fill="#050505" transform="translate(13,6)"/>
<path d="M0,0 L2,1 L0,11 L-2,16 L-3,16 L-2,7 L-2,3 Z " fill="#B8B8B8" transform="translate(17,10)"/>
<path d="M0,0 L5,0 L4,2 L0,3 L-2,8 L2,7 L0,10 L-4,9 L-3,3 Z " fill="#B2B2B2" transform="translate(13,6)"/>
</svg>
