<?xml version="1.0" encoding="UTF-8"?>
<svg version="1.1" xmlns="http://www.w3.org/2000/svg" width="28" height="28">
<path d="M0,0 L28,0 L28,28 L0,28 Z " fill="#020202" transform="translate(0,0)"/>
<path d="M0,0 L6,0 L8,5 L8,15 L6,20 L5,20 L5,7 L-3,13 L-6,14 L-6,8 L-2,2 Z " fill="#E1E1E1" transform="translate(12,6)"/>
<path d="M0,0 L5,0 L7,4 L7,14 L5,19 L4,19 L4,6 L0,8 L1,4 L3,4 L3,2 L-1,1 Z " fill="#E9E9E9" transform="translate(13,7)"/>
<path d="M0,0 L3,0 L3,2 L1,2 L1,4 L-4,7 L-3,2 Z " fill="#2B2B2B" transform="translate(13,9)"/>
<path d="M0,0 L6,0 L6,1 L1,2 L1,4 L-4,5 Z " fill="#C2C2C2" transform="translate(12,6)"/>
</svg>
