<?xml version="1.0" encoding="UTF-8"?>
<svg version="1.1" xmlns="http://www.w3.org/2000/svg" width="28" height="28">
<path d="M0,0 L28,0 L28,28 L0,28 Z " fill="#020202" transform="translate(0,0)"/>
<path d="M0,0 L7,0 L11,6 L12,11 L12,20 L10,20 L8,12 L3,13 L0,8 Z " fill="#E5E5E5" transform="translate(8,6)"/>
<path d="M0,0 L7,0 L9,4 L3,3 L3,5 L1,5 L0,8 Z " fill="#F2F2F2" transform="translate(8,6)"/>
<path d="M0,0 L4,1 L4,7 L0,6 L-1,2 Z " fill="#131313" transform="translate(11,9)"/>
<path d="M0,0 L3,4 L6,6 L4,6 L4,8 L0,6 Z " fill="#CECECE" transform="translate(9,11)"/>
</svg>
