<?xml version="1.0" encoding="UTF-8"?>
<svg version="1.1" xmlns="http://www.w3.org/2000/svg" width="28" height="28">
<path d="M0,0 L28,0 L28,28 L0,28 Z " fill="#020202" transform="translate(0,0)"/>
<path d="M0,0 L4,1 L2,1 L1,7 L-3,15 L-4,20 L-6,20 L-5,14 L-4,10 L-7,10 L-6,4 L-3,1 Z " fill="#C4C4C4" transform="translate(17,6)"/>
<path d="M0,0 L4,1 L2,1 L1,7 L-2,10 L-1,3 L-6,6 L-4,2 Z " fill="#CFCFCF" transform="translate(17,6)"/>
<path d="M0,0 L1,3 L-2,6 L-5,6 L-3,2 Z " fill="#292929" transform="translate(16,8)"/>
</svg>
