<?xml version="1.0" encoding="UTF-8"?>
<svg version="1.1" xmlns="http://www.w3.org/2000/svg" width="28" height="28">
<path d="M0,0 L28,0 L28,28 L0,28 Z " fill="#020202" transform="translate(0,0)"/>
<path d="M0,0 L5,1 L6,2 L6,7 L4,10 L2,10 L2,13 L0,13 L-2,18 L-3,20 L-6,20 L-5,14 L-3,11 L-7,10 L-8,6 L-3,1 Z " fill="#E1E1E1" transform="translate(16,6)"/>
<path d="M0,0 L2,1 L2,3 L-1,5 L-1,7 L1,9 L-4,9 L-5,5 Z " fill="#EEEEEE" transform="translate(13,7)"/>
<path d="M0,0 L5,0 L3,4 L-4,5 L-2,1 Z " fill="#111111" transform="translate(15,9)"/>
</svg>
