<?xml version="1.0" encoding="UTF-8"?>
<svg version="1.1" xmlns="http://www.w3.org/2000/svg" width="28" height="28">
<path d="M0,0 L28,0 L28,28 L0,28 Z " fill="#020202" transform="translate(0,0)"/>
<path d="M0,0 L8,0 L14,3 L12,4 L11,14 L12,19 L9,19 L8,11 L6,12 L-2,12 L-4,10 L-4,3 Z " fill="#CACACA" transform="translate(9,6)"/>
<path d="M0,0 L9,0 L8,7 L6,8 L0,8 L-2,7 L-2,2 Z " fill="#0F0F0F" transform="translate(9,8)"/>
<path d="M0,0 L2,0 L4,15 L1,15 L0,7 L-8,7 L-8,6 L0,5 Z " fill="#FBFBFB" transform="translate(17,10)"/>
<path d="M0,0 L8,0 L14,3 L12,4 L10,8 L10,4 L0,1 Z " fill="#AAAAAA" transform="translate(9,6)"/>
<path d="M0,0 L2,4 L3,9 L0,9 L-1,2 Z " fill="#E5E5E5" transform="translate(18,16)"/>
</svg>
