<?xml version="1.0" encoding="UTF-8"?>
<svg version="1.1" xmlns="http://www.w3.org/2000/svg" width="28" height="28">
<path d="M0,0 L28,0 L28,28 L0,28 Z " fill="#030303" transform="translate(0,0)"/>
<path d="M0,0 L6,0 L5,6 L1,14 L-3,20 L-6,20 L-5,15 L-1,9 L-7,9 L-9,8 L-7,3 Z " fill="#EBEBEB" transform="translate(16,7)"/>
<path d="M0,0 Z M-2,1 L0,2 L1,3 L4,3 L3,9 L-6,7 L-4,2 Z " fill="#EBEBEB" transform="translate(13,8)"/>
<path d="M0,0 L3,0 L2,6 L-3,3 L-3,1 Z " fill="#ABABAB" transform="translate(14,11)"/>
</svg>
