<?xml version="1.0" encoding="UTF-8"?>
<svg version="1.1" xmlns="http://www.w3.org/2000/svg" width="28" height="28">
<path d="M0,0 L28,0 L28,28 L0,28 Z " fill="#010101" transform="translate(0,0)"/>
<path d="M0,0 L5,1 L6,2 L6,9 L4,18 L6,18 L6,20 L1,19 L0,12 L-6,13 L-8,9 L-4,3 L-2,3 L-2,1 Z " fill="#EAEAEA" transform="translate(14,6)"/>
<path d="M0,0 L4,2 L4,6 L0,12 L-5,11 L-6,8 L-2,2 L0,2 Z " fill="#DFDFDF" transform="translate(12,7)"/>
<path d="M0,0 L3,1 L1,5 L-1,7 L-5,7 L-3,3 Z " fill="#212121" transform="translate(14,9)"/>
<path d="M0,0 L1,0 L2,6 L3,8 L5,8 L5,10 L0,9 Z " fill="#C3C3C3" transform="translate(15,16)"/>
</svg>
