<?xml version="1.0" encoding="UTF-8"?>
<svg version="1.1" xmlns="http://www.w3.org/2000/svg" width="28" height="28">
<path d="M0,0 L28,0 L28,28 L0,28 Z " fill="#010101" transform="translate(0,0)"/>
<path d="M0,0 L5,1 L5,9 L1,20 L-1,20 L0,13 L2,7 L-3,7 L-4,3 Z " fill="#777777" transform="translate(13,7)"/>
<path d="M0,0 L5,1 L5,8 L3,8 L3,6 L1,5 L3,2 L-1,4 L-2,6 L0,7 L-4,6 L-3,2 Z " fill="#E4E4E4" transform="translate(13,7)"/>
<path d="M0,0 L1,0 L1,5 L-1,10 L-3,10 L-2,3 Z " fill="#DFDFDF" transform="translate(15,17)"/>
</svg>
