<?xml version="1.0" encoding="UTF-8"?>
<svg version="1.1" xmlns="http://www.w3.org/2000/svg" width="28" height="28">
<path d="M0,0 L28,0 L28,28 L0,28 Z " fill="#020202" transform="translate(0,0)"/>
<path d="M0,0 L5,0 L8,5 L10,5 L13,15 L13,20 L11,19 L8,9 L5,12 L-1,11 L-2,9 L-2,3 Z " fill="#D8D8D8" transform="translate(9,6)"/>
<path d="M0,0 L4,0 L5,7 L0,8 L-2,4 Z " fill="#0A0A0A" transform="translate(10,8)"/>
<path d="M0,0 L4,2 L1,3 L0,7 L1,9 L4,11 L1,12 L-2,9 L-2,3 Z " fill="#BCBCBC" transform="translate(9,6)"/>
</svg>
