<?xml version="1.0" encoding="UTF-8"?>
<svg version="1.1" xmlns="http://www.w3.org/2000/svg" width="28" height="28">
<path d="M0,0 L28,0 L28,28 L0,28 Z " fill="#010101" transform="translate(0,0)"/>
<path d="M0,0 L6,1 L8,5 L8,20 L5,20 L5,10 L-3,10 L-4,5 Z " fill="#DDDDDD" transform="translate(11,6)"/>
<path d="M0,0 L3,1 L3,16 L0,16 L0,6 L-7,6 L-7,5 L-1,3 Z " fill="#D3D3D3" transform="translate(16,10)"/>
<path d="M0,0 L3,0 L4,5 L3,6 L-2,6 L-1,1 Z " fill="#0F0F0F" transform="translate(12,8)"/>
<path d="M0,0 L2,4 L6,6 L0,7 L-1,2 Z " fill="#ABABAB" transform="translate(8,9)"/>
</svg>
