<?xml version="1.0" encoding="UTF-8"?>
<svg version="1.1" xmlns="http://www.w3.org/2000/svg" width="28" height="28">
<path d="M0,0 L28,0 L28,28 L0,28 Z " fill="#030303" transform="translate(0,0)"/>
<path d="M0,0 L4,1 L6,3 L7,10 L0,20 L-2,20 L-1,15 L1,12 L3,12 L3,10 L-2,10 L-3,4 Z " fill="#E2E2E2" transform="translate(13,5)"/>
<path d="M0,0 L1,2 L-4,9 L-6,9 L-5,4 Z " fill="#F2F2F2" transform="translate(17,16)"/>
<path d="M0,0 L4,1 L5,5 L1,4 L-1,6 L-2,2 Z " fill="#EDEDED" transform="translate(13,5)"/>
<path d="M0,0 L3,1 L2,5 L-2,5 Z " fill="#161616" transform="translate(14,8)"/>
</svg>
