<?xml version="1.0" encoding="UTF-8"?>
<svg version="1.1" xmlns="http://www.w3.org/2000/svg" width="28" height="28">
<path d="M0,0 L28,0 L28,28 L0,28 Z " fill="#020202" transform="translate(0,0)"/>
<path d="M0,0 L6,0 L7,6 L4,12 L-1,20 L-3,20 L-2,14 L0,10 L-6,11 L-7,6 Z " fill="#D7D7D7" transform="translate(14,6)"/>
<path d="M0,0 L7,0 L3,2 L-1,5 L-2,9 L-5,9 L-4,4 Z " fill="#EEEEEE" transform="translate(12,7)"/>
<path d="M0,0 L4,0 L4,4 L-5,6 L-3,2 Z " fill="#212121" transform="translate(15,8)"/>
</svg>
