<?xml version="1.0" encoding="UTF-8"?>
<svg version="1.1" xmlns="http://www.w3.org/2000/svg" width="28" height="28">
<path d="M0,0 L28,0 L28,28 L0,28 Z " fill="#010101" transform="translate(0,0)"/>
<path d="M0,0 L4,1 L6,3 L6,9 L2,15 L-4,20 L-6,20 L-5,16 L-1,13 L-3,9 L-2,2 Z " fill="#D5D5D5" transform="translate(14,5)"/>
<path d="M0,0 L2,0 L0,5 L-5,10 L-8,13 L-10,13 L-9,9 L-5,6 L-6,1 Z " fill="#E7E7E7" transform="translate(18,12)"/>
<path d="M0,0 L3,1 L1,5 L-2,5 L-1,1 Z " fill="#0B0B0B" transform="translate(15,8)"/>
</svg>
