<?xml version="1.0" encoding="UTF-8"?>
<svg version="1.1" xmlns="http://www.w3.org/2000/svg" width="28" height="28">
<path d="M0,0 L28,0 L28,28 L0,28 Z " fill="#030303" transform="translate(0,0)"/>
<path d="M0,0 L7,1 L8,2 L8,19 L7,20 L1,20 L-3,17 L-3,14 L6,17 L5,9 L0,8 L-1,7 Z " fill="#9E9E9E" transform="translate(11,4)"/>
<path d="M0,0 L2,2 L2,10 L1,11 L-5,11 L-9,8 L-9,5 L0,8 Z " fill="#CACACA" transform="translate(17,13)"/>
<path d="M0,0 L4,0 L4,2 L2,2 L1,7 L3,8 L-1,7 Z " fill="#ECECEC" transform="translate(11,4)"/>
<path d="M0,0 L2,2 L2,10 L-1,10 Z " fill="#FAFAFA" transform="translate(17,13)"/>
</svg>
