<?xml version="1.0" encoding="UTF-8"?>
<svg version="1.1" xmlns="http://www.w3.org/2000/svg" width="28" height="28">
<path d="M0,0 L28,0 L28,28 L0,28 Z " fill="#010101" transform="translate(0,0)"/>
<path d="M0,0 L5,0 L6,1 L8,20 L6,18 L5,11 L-1,12 L-3,10 L-3,3 Z " fill="#CCCCCC" transform="translate(11,6)"/>
<path d="M0,0 L2,4 L3,14 L1,12 L0,5 L-6,6 L-6,4 L-3,4 L-2,1 Z " fill="#E6E6E6" transform="translate(16,12)"/>
<path d="M0,0 L4,1 L2,6 L1,8 L-2,7 L-2,2 Z " fill="#090909" transform="translate(12,8)"/>
</svg>
