<?xml version="1.0" encoding="UTF-8"?>
<svg version="1.1" xmlns="http://www.w3.org/2000/svg" width="28" height="28">
<path d="M0,0 L28,0 L28,28 L0,28 Z " fill="#010101" transform="translate(0,0)"/>
<path d="M0,0 L3,1 L2,8 L0,19 L-3,20 L-2,12 L-1,10 L-7,10 L-6,5 Z " fill="#8B8B8B" transform="translate(16,6)"/>
<path d="M0,0 L1,0 L0,12 L-3,13 L-2,5 Z " fill="#E3E3E3" transform="translate(16,13)"/>
<path d="M0,0 L3,1 L-1,5 L1,6 L1,8 L-4,8 L-3,3 Z " fill="#DEDEDE" transform="translate(13,8)"/>
</svg>
