<?xml version="1.0" encoding="UTF-8"?>
<svg version="1.1" xmlns="http://www.w3.org/2000/svg" width="28" height="28">
<path d="M0,0 L28,0 L28,28 L0,28 Z " fill="#040404" transform="translate(0,0)"/>
<path d="M0,0 L8,1 L7,18 L7,20 L4,20 L4,9 L0,11 L-7,11 L-8,6 L-2,1 Z " fill="#D4D4D4" transform="translate(13,6)"/>
<path d="M0,0 L5,1 L1,6 L-1,7 L-8,7 L-6,3 Z " fill="#0B0B0B" transform="translate(14,8)"/>
<path d="M0,0 L1,0 L1,15 L-2,15 L-2,4 L-4,4 L-4,2 Z " fill="#EAEAEA" transform="translate(19,11)"/>
</svg>
