<?xml version="1.0" encoding="UTF-8"?>
<svg version="1.1" xmlns="http://www.w3.org/2000/svg" width="28" height="28">
<path d="M0,0 L28,0 L28,28 L0,28 Z " fill="#030303" transform="translate(0,0)"/>
<path d="M0,0 L6,0 L10,4 L9,10 L7,20 L4,19 L5,11 L0,10 L-2,8 L-2,2 Z " fill="#EBEBEB" transform="translate(10,7)"/>
<path d="M0,0 L4,1 L7,4 L6,10 L4,20 L1,19 L3,2 L-1,3 Z " fill="#EDEDED" transform="translate(13,7)"/>
<path d="M0,0 L3,0 L3,5 L-1,6 L-3,5 L-3,2 Z " fill="#1B1B1B" transform="translate(13,9)"/>
</svg>
