<?xml version="1.0" encoding="UTF-8"?>
<svg version="1.1" xmlns="http://www.w3.org/2000/svg" width="28" height="28">
<path d="M0,0 L28,0 L28,28 L0,28 Z " fill="#010101" transform="translate(0,0)"/>
<path d="M0,0 L5,1 L4,18 L1,20 L0,16 L0,11 L-5,10 L-6,5 Z " fill="#C6C6C6" transform="translate(14,6)"/>
<path d="M0,0 L1,0 L2,11 L-1,13 L-2,9 L-1,1 Z " fill="#EBEBEB" transform="translate(16,13)"/>
<path d="M0,0 L2,0 L1,4 L-2,7 L-4,7 L-3,2 Z " fill="#191919" transform="translate(15,8)"/>
<path d="M0,0 L5,1 L5,6 L3,3 L-3,5 L-3,2 Z " fill="#E6E6E6" transform="translate(14,6)"/>
</svg>
