<?xml version="1.0" encoding="UTF-8"?>
<svg version="1.1" xmlns="http://www.w3.org/2000/svg" width="28" height="28">
<path d="M0,0 L28,0 L28,28 L0,28 Z " fill="#020202" transform="translate(0,0)"/>
<path d="M0,0 L1,2 L0,5 L6,2 L10,0 L7,7 L3,17 L1,17 L1,11 L3,7 L-2,7 L-2,2 Z " fill="#EAEAEA" transform="translate(11,9)"/>
<path d="M0,0 L4,1 L6,4 L1,8 L-2,8 L-3,2 Z " fill="#C9C9C9" transform="translate(13,6)"/>
<path d="M0,0 L3,1 L0,9 L-2,9 L-2,3 Z " fill="#D2D2D2" transform="translate(14,17)"/>
<path d="M0,0 L4,1 L3,4 L-2,5 L-1,1 Z " fill="#181818" transform="translate(13,9)"/>
</svg>
