<?xml version="1.0" encoding="UTF-8"?>
<svg version="1.1" xmlns="http://www.w3.org/2000/svg" width="28" height="28">
<path d="M0,0 L28,0 L28,28 L0,28 Z " fill="#020202" transform="translate(0,0)"/>
<path d="M0,0 L7,1 L10,4 L10,7 L8,7 L3,15 L1,20 L-2,20 L-1,15 L1,11 L-4,9 L-4,3 Z " fill="#DCDCDC" transform="translate(12,7)"/>
<path d="M0,0 L7,1 L10,4 L10,7 L6,5 L0,4 L0,7 L3,9 L-4,9 L-4,3 Z " fill="#E5E5E5" transform="translate(12,7)"/>
<path d="M0,0 L6,1 L7,3 L5,4 L-1,4 Z " fill="#1B1B1B" transform="translate(12,10)"/>
</svg>
