<?xml version="1.0" encoding="UTF-8"?>
<svg version="1.1" xmlns="http://www.w3.org/2000/svg" width="28" height="28">
<path d="M0,0 L28,0 L28,28 L0,28 Z " fill="#020202" transform="translate(0,0)"/>
<path d="M0,0 L5,1 L8,6 L8,11 L5,12 L1,20 L-2,20 L-1,15 L-6,12 L-6,6 L-1,1 Z " fill="#E2E2E2" transform="translate(14,5)"/>
<path d="M0,0 L2,1 L1,5 L8,4 L8,9 L5,14 L2,14 L3,9 L-2,6 L-1,1 Z " fill="#E6E6E6" transform="translate(10,11)"/>
<path d="M0,0 L4,4 L4,7 L-4,8 L-3,3 Z " fill="#141414" transform="translate(15,8)"/>
</svg>
