<?xml version="1.0" encoding="UTF-8"?>
<svg version="1.1" xmlns="http://www.w3.org/2000/svg" width="28" height="28">
<path d="M0,0 L28,0 L28,28 L0,28 Z " fill="#030303" transform="translate(0,0)"/>
<path d="M0,0 L3,1 L2,7 L0,20 L-2,19 L-3,15 L-4,16 L-9,16 L-10,11 L-7,5 L-4,2 Z " fill="#EFEFEF" transform="translate(17,5)"/>
<path d="M0,0 L2,1 L3,5 L0,11 L-1,12 L-6,12 L-5,7 L-2,2 Z " fill="#D8D8D8" transform="translate(13,7)"/>
<path d="M0,0 L2,0 L1,7 L-3,9 L-2,3 Z " fill="#171717" transform="translate(13,10)"/>
</svg>
