<?xml version="1.0" encoding="UTF-8"?>
<svg version="1.1" xmlns="http://www.w3.org/2000/svg" width="28" height="28">
<path d="M0,0 L28,0 L28,28 L0,28 Z " fill="#020202" transform="translate(0,0)"/>
<path d="M0,0 L5,0 L7,3 L6,8 L4,9 L2,14 L4,16 L0,20 L-3,20 L-1,11 L-6,11 L-7,6 L-3,1 Z " fill="#E2E2E2" transform="translate(14,6)"/>
<path d="M0,0 L5,0 L7,4 L1,8 L-5,8 L-4,5 L-6,4 L-3,1 Z " fill="#CCCCCC" transform="translate(14,6)"/>
<path d="M0,0 L5,0 L5,3 L2,5 L-4,5 Z " fill="#0A0A0A" transform="translate(13,9)"/>
<path d="M0,0 L6,1 L2,6 L-1,6 Z " fill="#C5C5C5" transform="translate(12,20)"/>
</svg>
