<?xml version="1.0" encoding="UTF-8"?>
<svg version="1.1" xmlns="http://www.w3.org/2000/svg" width="28" height="28">
<path d="M0,0 L28,0 L28,28 L0,28 Z " fill="#010101" transform="translate(0,0)"/>
<path d="M0,0 L7,1 L7,3 L9,3 L9,20 L7,20 L7,9 L5,10 L-3,10 L-5,7 L-4,2 Z " fill="#C9C9C9" transform="translate(11,7)"/>
<path d="M0,0 L5,0 L6,3 L4,7 L-1,6 L-2,2 Z " fill="#0B0B0B" transform="translate(10,9)"/>
<path d="M0,0 L3,4 L7,4 L9,1 L11,5 L9,6 L1,6 L-1,2 Z " fill="#BABABA" transform="translate(7,11)"/>
</svg>
