<?xml version="1.0" encoding="UTF-8"?>
<svg version="1.1" xmlns="http://www.w3.org/2000/svg" width="28" height="28">
<path d="M0,0 L28,0 L28,28 L0,28 Z " fill="#020202" transform="translate(0,0)"/>
<path d="M0,0 L3,1 L4,7 L-2,17 L-3,20 L-5,20 L-4,14 L-6,14 L-6,8 L-4,3 Z " fill="#E4E4E4" transform="translate(16,5)"/>
<path d="M0,0 L1,4 L-3,13 L-6,12 L-6,6 L-4,1 Z " fill="#C4C4C4" transform="translate(16,7)"/>
<path d="M0,0 L1,4 L-2,9 L-4,9 L-3,5 Z " fill="#151515" transform="translate(16,7)"/>
</svg>
