<?xml version="1.0" encoding="UTF-8"?>
<svg version="1.1" xmlns="http://www.w3.org/2000/svg" width="28" height="28">
<path d="M0,0 L28,0 L28,28 L0,28 Z " fill="#030303" transform="translate(0,0)"/>
<path d="M0,0 L5,0 L6,4 L3,8 L6,6 L5,10 L-4,20 L-6,20 L-4,16 L-1,13 L-8,12 L-8,6 Z " fill="#D8D8D8" transform="translate(15,6)"/>
<path d="M0,0 L3,0 L1,4 L-1,6 L0,8 L-7,9 L-6,4 L-3,1 Z " fill="#161616" transform="translate(16,8)"/>
<path d="M0,0 L1,3 L-2,6 L-6,4 Z " fill="#EFEFEF" transform="translate(20,12)"/>
</svg>
