<?xml version="1.0" encoding="UTF-8"?>
<svg version="1.1" xmlns="http://www.w3.org/2000/svg" width="28" height="28">
<path d="M0,0 L28,0 L28,28 L0,28 Z " fill="#010101" transform="translate(0,0)"/>
<path d="M0,0 L7,0 L9,2 L9,7 L6,10 L4,10 L6,17 L7,20 L3,19 L1,16 L1,12 L-6,12 L-7,7 L-2,1 Z " fill="#D7D7D7" transform="translate(13,7)"/>
<path d="M0,0 L7,0 L8,4 L5,3 L5,5 L2,6 L2,3 L-3,7 L-4,10 L1,10 L0,12 L-6,12 L-7,7 L-2,1 Z " fill="#DEDEDE" transform="translate(13,7)"/>
<path d="M0,0 L2,0 L1,6 L-4,7 L-3,3 Z " fill="#202020" transform="translate(13,10)"/>
<path d="M0,0 L5,0 L6,4 L3,3 L3,5 L0,6 L-1,1 Z " fill="#F5F5F5" transform="translate(15,7)"/>
</svg>
