<?xml version="1.0" encoding="UTF-8"?>
<svg version="1.1" xmlns="http://www.w3.org/2000/svg" width="28" height="28">
<path d="M0,0 L28,0 L28,28 L0,28 Z " fill="#020202" transform="translate(0,0)"/>
<path d="M0,0 L3,1 L4,8 L-2,16 L-4,20 L-7,20 L-5,16 L-2,12 L-5,10 L-4,5 Z " fill="#EEEEEE" transform="translate(15,6)"/>
<path d="M0,0 L4,1 L2,6 L2,9 L-3,8 L-2,3 Z " fill="#9E9E9E" transform="translate(13,8)"/>
<path d="M0,0 L2,0 L0,4 L-2,8 L-5,8 L-3,4 Z " fill="#D7D7D7" transform="translate(13,18)"/>
</svg>
