<?xml version="1.0" encoding="UTF-8"?>
<svg version="1.1" xmlns="http://www.w3.org/2000/svg" width="28" height="28">
<path d="M0,0 L28,0 L28,28 L0,28 Z " fill="#040404" transform="translate(0,0)"/>
<path d="M0,0 L4,0 L4,5 L6,6 L-3,20 L-6,20 L-4,16 L-2,12 L-8,13 L-9,8 L-5,3 Z " fill="#D8D8D8" transform="translate(16,6)"/>
<path d="M0,0 L1,3 L3,4 L-6,18 L-9,18 L-7,14 L-3,9 L-3,6 L-1,2 Z " fill="#F4F4F4" transform="translate(19,8)"/>
<path d="M0,0 L2,0 L1,4 L-4,9 L-7,9 L-6,5 Z " fill="#101010" transform="translate(16,8)"/>
<path d="M0,0 L3,1 L-2,8 L-5,8 L-3,4 Z " fill="#CBCBCB" transform="translate(15,18)"/>
</svg>
