<?xml version="1.0" encoding="UTF-8"?>
<svg version="1.1" xmlns="http://www.w3.org/2000/svg" width="28" height="28">
<path d="M0,0 L28,0 L28,28 L0,28 Z " fill="#010101" transform="translate(0,0)"/>
<path d="M0,0 L5,0 L6,1 L6,6 L0,14 L-3,20 L-6,20 L-5,15 L-2,10 L-6,8 L-5,4 Z " fill="#BBBBBB" transform="translate(15,6)"/>
<path d="M0,0 L3,1 L0,4 L-1,7 L1,8 L-4,7 L-3,3 Z " fill="#EAEAEA" transform="translate(13,7)"/>
<path d="M0,0 L3,1 L1,6 L-2,6 L-1,1 Z " fill="#E2E2E2" transform="translate(11,20)"/>
</svg>
