<?xml version="1.0" encoding="UTF-8"?>
<svg version="1.1" xmlns="http://www.w3.org/2000/svg" width="28" height="28">
<path d="M0,0 L28,0 L28,28 L0,28 Z " fill="#010101" transform="translate(0,0)"/>
<path d="M0,0 L3,1 L3,7 L-1,14 L0,16 L-3,20 L-6,20 L-5,14 L-4,11 L-7,10 L-6,5 Z " fill="#E0E0E0" transform="translate(17,5)"/>
<path d="M0,0 L3,1 L2,5 L-2,9 L-5,9 L-4,4 Z " fill="#CCCCCC" transform="translate(15,6)"/>
<path d="M0,0 L1,3 L-3,7 L-5,7 L-3,3 Z " fill="#212121" transform="translate(17,7)"/>
</svg>
