<?xml version="1.0" encoding="UTF-8"?>
<svg version="1.1" xmlns="http://www.w3.org/2000/svg" width="28" height="28">
<path d="M0,0 L28,0 L28,28 L0,28 Z " fill="#040404" transform="translate(0,0)"/>
<path d="M0,0 L9,3 L9,20 L5,18 L5,10 L6,7 L2,9 L-4,9 L-7,6 L-6,2 Z " fill="#EEEEEE" transform="translate(11,7)"/>
<path d="M0,0 L4,1 L3,4 L9,4 L8,7 L2,7 L-1,4 Z " fill="#F7F7F7" transform="translate(5,9)"/>
<path d="M0,0 L5,1 L3,2 L2,5 L-3,5 L-3,1 Z " fill="#262626" transform="translate(11,9)"/>
</svg>
