<?xml version="1.0" encoding="UTF-8"?>
<svg version="1.1" xmlns="http://www.w3.org/2000/svg" width="28" height="28">
<path d="M0,0 L28,0 L28,28 L0,28 Z " fill="#010101" transform="translate(0,0)"/>
<path d="M0,0 L5,0 L7,2 L7,7 L4,11 L1,20 L-2,20 L0,11 L-5,11 L-4,5 Z " fill="#D9D9D9" transform="translate(13,6)"/>
<path d="M0,0 L3,1 L-1,7 L2,8 L1,9 L-4,9 L-3,4 Z " fill="#ECECEC" transform="translate(12,7)"/>
<path d="M0,0 L4,1 L-1,6 L-3,6 L-1,1 Z " fill="#131313" transform="translate(14,8)"/>
</svg>
