<?xml version="1.0" encoding="UTF-8"?>
<svg version="1.1" xmlns="http://www.w3.org/2000/svg" width="28" height="28">
<path d="M0,0 L28,0 L28,28 L0,28 Z " fill="#020202" transform="translate(0,0)"/>
<path d="M0,0 L7,0 L9,1 L10,5 L1,20 L-2,20 L-1,15 L2,11 L-5,11 L-6,5 Z " fill="#EAEAEA" transform="translate(13,6)"/>
<path d="M0,0 L5,0 L3,4 L-2,7 L-5,7 L-3,2 Z " fill="#1E1E1E" transform="translate(15,8)"/>
<path d="M0,0 L3,1 L1,3 L-4,8 L-6,9 L-5,4 Z " fill="#D3D3D3" transform="translate(13,6)"/>
</svg>
