<?xml version="1.0" encoding="UTF-8"?>
<svg version="1.1" xmlns="http://www.w3.org/2000/svg" width="28" height="28">
<path d="M0,0 L28,0 L28,28 L0,28 Z " fill="#010101" transform="translate(0,0)"/>
<path d="M0,0 L5,1 L5,6 L1,14 L0,19 L-4,20 L-1,11 L-5,10 L-4,3 Z " fill="#D2D2D2" transform="translate(15,6)"/>
<path d="M0,0 L5,1 L5,6 L2,6 L0,8 L-4,8 L-5,5 Z " fill="#CECECE" transform="translate(15,6)"/>
<path d="M0,0 L1,3 L-1,7 L-8,6 L-7,2 L-7,4 L-2,2 Z " fill="#F2F2F2" transform="translate(18,10)"/>
<path d="M0,0 L3,0 L2,4 L-2,5 L-1,1 Z " fill="#181818" transform="translate(14,9)"/>
</svg>
