<?xml version="1.0" encoding="UTF-8"?>
<svg version="1.1" xmlns="http://www.w3.org/2000/svg" width="28" height="28">
<path d="M0,0 L28,0 L28,28 L0,28 Z " fill="#030303" transform="translate(0,0)"/>
<path d="M0,0 L3,1 L3,7 L-3,17 L-5,20 L-7,20 L-6,16 L-4,13 L-5,9 L-6,5 Z " fill="#F1F1F1" transform="translate(16,6)"/>
<path d="M0,0 L2,0 L3,5 L-2,10 L-2,6 L-4,6 L-3,2 Z " fill="#E9E9E9" transform="translate(16,8)"/>
<path d="M0,0 L2,0 L3,5 L-1,11 L-3,11 L-2,7 L0,4 Z " fill="#D4D4D4" transform="translate(12,15)"/>
<path d="M0,0 L2,0 L1,4 L-4,5 L-2,1 Z " fill="#262626" transform="translate(16,8)"/>
</svg>
