<?xml version="1.0" encoding="UTF-8"?>
<svg version="1.1" xmlns="http://www.w3.org/2000/svg" width="28" height="28">
<path d="M0,0 L28,0 L28,28 L0,28 Z " fill="#020202" transform="translate(0,0)"/>
<path d="M0,0 L7,1 L6,17 L3,20 L-2,19 L-3,16 L2,17 L3,10 L-2,10 L-3,9 L-3,1 Z " fill="#C2C2C2" transform="translate(12,6)"/>
<path d="M0,0 L7,1 L7,7 L5,7 L5,13 L3,9 L4,2 L1,3 L1,8 L2,10 L-3,9 L-3,1 Z " fill="#ECECEC" transform="translate(12,6)"/>
<path d="M0,0 L3,0 L3,5 L-1,6 L-1,1 Z " fill="#0B0B0B" transform="translate(13,8)"/>
</svg>
