<?xml version="1.0" encoding="UTF-8"?>
<svg version="1.1" xmlns="http://www.w3.org/2000/svg" width="28" height="28">
<path d="M0,0 L28,0 L28,28 L0,28 Z " fill="#020202" transform="translate(0,0)"/>
<path d="M0,0 L5,1 L6,6 L-4,16 L-4,19 L-9,20 L-8,16 L-6,14 L-9,12 L-8,7 L-3,2 Z " fill="#C7C7C7" transform="translate(17,5)"/>
<path d="M0,0 L5,1 L6,6 L-3,15 L-4,11 L-1,9 L3,2 L-5,7 L-8,11 L-7,6 L-3,2 Z " fill="#E7E7E7" transform="translate(17,5)"/>
<path d="M0,0 L2,0 L0,4 L-2,8 L-7,8 L-6,4 Z " fill="#181818" transform="translate(18,7)"/>
</svg>
