<?xml version="1.0" encoding="UTF-8"?>
<svg version="1.1" xmlns="http://www.w3.org/2000/svg" width="28" height="28">
<path d="M0,0 L28,0 L28,28 L0,28 Z " fill="#020202" transform="translate(0,0)"/>
<path d="M0,0 L6,1 L7,8 L8,9 L9,16 L10,20 L8,20 L5,11 L-3,12 L-4,11 L-4,4 Z " fill="#C8C8C8" transform="translate(12,6)"/>
<path d="M0,0 L6,1 L7,8 L8,9 L9,16 L10,20 L8,20 L5,11 L3,9 L4,7 L3,3 L-2,3 Z " fill="#E4E4E4" transform="translate(12,6)"/>
<path d="M0,0 L3,0 L3,6 L-2,7 L-1,1 Z " fill="#080808" transform="translate(12,8)"/>
</svg>
