<?xml version="1.0" encoding="UTF-8"?>
<svg version="1.1" xmlns="http://www.w3.org/2000/svg" width="28" height="28">
<path d="M0,0 L28,0 L28,28 L0,28 Z " fill="#020202" transform="translate(0,0)"/>
<path d="M0,0 L8,0 L10,2 L10,6 L5,8 L-1,19 L-4,20 L-3,16 L-1,10 L-5,9 L-6,4 Z " fill="#E0E0E0" transform="translate(13,7)"/>
<path d="M0,0 L6,0 L7,2 L0,6 L-4,5 L-3,1 Z " fill="#090909" transform="translate(14,9)"/>
<path d="M0,0 L8,0 L8,3 L-2,3 L-2,8 L-4,8 L-6,4 Z " fill="#C7C7C7" transform="translate(13,7)"/>
</svg>
