<?xml version="1.0" encoding="UTF-8"?>
<svg version="1.1" xmlns="http://www.w3.org/2000/svg" width="28" height="28">
<path d="M0,0 L28,0 L28,28 L0,28 Z " fill="#020202" transform="translate(0,0)"/>
<path d="M0,0 L8,0 L9,4 L4,9 L-2,20 L-4,20 L-3,15 L-1,12 L-6,10 L-7,5 L-3,1 Z " fill="#D0D0D0" transform="translate(14,7)"/>
<path d="M0,0 L6,0 L4,4 L1,7 L-4,7 L-4,3 Z " fill="#0F0F0F" transform="translate(14,9)"/>
<path d="M0,0 L1,2 L-4,10 L-7,16 L-9,16 L-8,11 L-3,3 Z " fill="#E6E6E6" transform="translate(19,11)"/>
</svg>
