<?xml version="1.0" encoding="UTF-8"?>
<svg version="1.1" xmlns="http://www.w3.org/2000/svg" width="28" height="28">
<path d="M0,0 L28,0 L28,28 L0,28 Z " fill="#020202" transform="translate(0,0)"/>
<path d="M0,0 L6,1 L7,5 L5,5 L5,3 L1,4 L0,6 L4,7 L2,20 L-1,19 L1,9 L-3,7 L-2,2 Z " fill="#DDDDDD" transform="translate(13,6)"/>
<path d="M0,0 L2,0 L0,13 L-3,12 Z " fill="#E6E6E6" transform="translate(15,13)"/>
<path d="M0,0 L1,2 L4,3 L2,7 L2,5 L-2,3 Z " fill="#B8B8B8" transform="translate(12,10)"/>
</svg>
