<?xml version="1.0" encoding="UTF-8"?>
<svg version="1.1" xmlns="http://www.w3.org/2000/svg" width="28" height="28">
<path d="M0,0 L28,0 L28,28 L0,28 Z " fill="#020202" transform="translate(0,0)"/>
<path d="M0,0 L4,0 L5,7 L1,13 L-4,20 L-6,20 L-4,16 L-1,11 L-5,11 L-6,5 Z " fill="#C0C0C0" transform="translate(15,6)"/>
<path d="M0,0 L1,3 L-3,9 L-8,16 L-10,16 L-8,12 L-2,2 L0,2 Z " fill="#E1E1E1" transform="translate(19,10)"/>
<path d="M0,0 L2,0 L0,6 L-4,6 L-3,2 Z " fill="#131313" transform="translate(15,8)"/>
</svg>
