<?xml version="1.0" encoding="UTF-8"?>
<svg version="1.1" xmlns="http://www.w3.org/2000/svg" width="28" height="28">
<path d="M0,0 L28,0 L28,28 L0,28 Z " fill="#020202" transform="translate(0,0)"/>
<path d="M0,0 L8,0 L8,4 L3,14 L1,20 L-1,20 L0,13 L1,11 L-4,9 L-5,8 L-5,3 Z " fill="#C6C6C6" transform="translate(13,7)"/>
<path d="M0,0 L8,0 L9,3 L1,3 L-2,4 L-2,9 L0,10 L-4,9 L-5,8 L-5,3 Z " fill="#DFDFDF" transform="translate(13,7)"/>
<path d="M0,0 L6,0 L5,2 L3,2 L1,6 L-4,5 L-3,1 Z " fill="#0F0F0F" transform="translate(14,9)"/>
<path d="M0,0 L1,3 L-2,11 L-4,11 L-3,4 Z " fill="#E7E7E7" transform="translate(16,16)"/>
</svg>
