<?xml version="1.0" encoding="UTF-8"?>
<svg version="1.1" xmlns="http://www.w3.org/2000/svg" width="28" height="28">
<path d="M0,0 L28,0 L28,28 L0,28 Z " fill="#020202" transform="translate(0,0)"/>
<path d="M0,0 L2,0 L1,8 L-2,15 L-3,20 L-6,20 L-4,11 L-9,10 L-8,4 L-5,1 Z " fill="#D4D4D4" transform="translate(18,6)"/>
<path d="M0,0 L2,0 L2,3 L7,1 L9,0 L7,9 L6,14 L3,14 L5,5 L0,4 Z " fill="#E4E4E4" transform="translate(9,12)"/>
<path d="M0,0 L4,0 L2,4 L-1,6 L-1,1 Z " fill="#161616" transform="translate(13,9)"/>
<path d="M0,0 L1,3 L0,8 L-3,8 L-2,3 Z " fill="#C9C9C9" transform="translate(15,18)"/>
</svg>
