<?xml version="1.0" encoding="UTF-8"?>
<svg version="1.1" xmlns="http://www.w3.org/2000/svg" width="28" height="28">
<path d="M0,0 L28,0 L28,28 L0,28 Z " fill="#010101" transform="translate(0,0)"/>
<path d="M0,0 L7,0 L6,4 L4,6 L5,9 L3,9 L4,13 L0,20 L-2,20 L-1,13 L-2,11 L-7,10 L-8,7 L-3,1 Z " fill="#CCCCCC" transform="translate(14,6)"/>
<path d="M0,0 L1,2 L3,2 L3,4 L1,4 L2,8 L-2,15 L-4,15 L-3,8 L-4,4 Z " fill="#ECECEC" transform="translate(16,11)"/>
<path d="M0,0 L6,0 L3,2 L-1,5 L-2,8 L0,8 L0,10 L-4,9 L-5,6 Z " fill="#E6E6E6" transform="translate(11,7)"/>
<path d="M0,0 L2,0 L0,5 L-5,7 L-4,3 Z " fill="#171717" transform="translate(14,8)"/>
</svg>
