<?xml version="1.0" encoding="UTF-8"?>
<svg version="1.1" xmlns="http://www.w3.org/2000/svg" width="28" height="28">
<path d="M0,0 L28,0 L28,28 L0,28 Z " fill="#020202" transform="translate(0,0)"/>
<path d="M0,0 L3,1 L6,12 L9,17 L9,20 L6,19 L3,14 L3,12 L-3,12 L-8,7 L-6,2 Z " fill="#D6D6D6" transform="translate(14,6)"/>
<path d="M0,0 L3,1 L6,12 L9,17 L9,20 L6,19 L3,14 L3,12 L1,12 Z " fill="#E7E7E7" transform="translate(14,6)"/>
<path d="M0,0 L4,1 L5,7 L-1,6 L-2,2 Z " fill="#141414" transform="translate(11,9)"/>
</svg>
