<?xml version="1.0" encoding="UTF-8"?>
<svg version="1.1" xmlns="http://www.w3.org/2000/svg" width="28" height="28">
<path d="M0,0 L28,0 L28,28 L0,28 Z " fill="#010101" transform="translate(0,0)"/>
<path d="M0,0 L4,0 L4,3 L-1,4 L-1,7 L5,5 L4,10 L0,20 L-1,16 L2,9 L-3,10 L-4,6 L-1,1 Z " fill="#DDDDDD" transform="translate(14,6)"/>
<path d="M0,0 L4,0 L4,3 L-1,4 L-2,7 L-3,3 Z " fill="#C3C3C3" transform="translate(14,6)"/>
<path d="M0,0 L5,1 L4,4 L4,2 L-2,4 L-2,1 Z " fill="#353535" transform="translate(15,9)"/>
</svg>
