<?xml version="1.0" encoding="UTF-8"?>
<svg version="1.1" xmlns="http://www.w3.org/2000/svg" width="28" height="28">
<path d="M0,0 L28,0 L28,28 L0,28 Z " fill="#020202" transform="translate(0,0)"/>
<path d="M0,0 L4,0 L4,3 L-1,5 L4,4 L7,3 L6,7 L2,18 L-1,20 L0,14 L2,9 L-5,9 L-4,3 Z " fill="#EEEEEE" transform="translate(13,6)"/>
<path d="M0,0 L4,0 L4,3 L-1,5 L1,7 L-5,7 L-3,2 Z " fill="#D2D2D2" transform="translate(13,6)"/>
<path d="M0,0 L2,2 L-1,5 L-6,5 L-4,2 L0,2 Z " fill="#1B1B1B" transform="translate(17,7)"/>
</svg>
