<?xml version="1.0" encoding="UTF-8"?>
<svg version="1.1" xmlns="http://www.w3.org/2000/svg" width="28" height="28">
<path d="M0,0 L28,0 L28,28 L0,28 Z " fill="#020202" transform="translate(0,0)"/>
<path d="M0,0 L6,1 L8,6 L6,6 L5,2 L0,4 L-2,8 L5,6 L6,11 L3,19 L0,20 L3,10 L-3,10 L-4,5 Z " fill="#E6E6E6" transform="translate(12,6)"/>
<path d="M0,0 L6,1 L8,6 L6,6 L5,2 L0,4 L-2,8 L2,9 L-3,10 L-4,5 Z " fill="#CDCDCD" transform="translate(12,6)"/>
<path d="M0,0 L4,0 L5,4 L7,5 L5,7 L3,5 L-3,6 L-1,1 Z " fill="#1D1D1D" transform="translate(13,8)"/>
</svg>
