<?xml version="1.0" encoding="UTF-8"?>
<svg version="1.1" xmlns="http://www.w3.org/2000/svg" width="28" height="28">
<path d="M0,0 L28,0 L28,28 L0,28 Z " fill="#000000" transform="translate(0,0)"/>
<path d="M0,0 L5,1 L7,2 L6,7 L2,20 L0,20 L0,14 L2,9 L-3,8 L-3,3 Z " fill="#C8C8C8" transform="translate(12,6)"/>
<path d="M0,0 L4,0 L5,7 L3,12 L1,12 L1,6 L3,1 Z " fill="#B2B2B2" transform="translate(11,14)"/>
<path d="M0,0 L3,1 L2,6 L-2,6 L-1,1 Z " fill="#292929" transform="translate(13,7)"/>
<path d="M0,0 L1,4 L-1,9 L-2,5 L-5,4 L-2,4 Z " fill="#E5E5E5" transform="translate(17,9)"/>
</svg>
