<?xml version="1.0" encoding="UTF-8"?>
<svg version="1.1" xmlns="http://www.w3.org/2000/svg" width="28" height="28">
<path d="M0,0 L28,0 L28,28 L0,28 Z " fill="#020202" transform="translate(0,0)"/>
<path d="M0,0 L4,1 L5,3 L5,10 L-1,20 L-4,19 L-2,14 L-1,11 L-6,11 L-8,9 L-7,5 L-2,1 Z " fill="#ECECEC" transform="translate(15,6)"/>
<path d="M0,0 Z M-2,1 L2,3 L1,8 L-1,11 L-6,11 L-8,9 L-7,5 Z " fill="#E3E3E3" transform="translate(15,6)"/>
<path d="M0,0 L2,0 L1,5 L-5,5 Z " fill="#141414" transform="translate(15,9)"/>
</svg>
