<?xml version="1.0" encoding="UTF-8"?>
<svg version="1.1" xmlns="http://www.w3.org/2000/svg" width="28" height="28">
<path d="M0,0 L28,0 L28,28 L0,28 Z " fill="#020202" transform="translate(0,0)"/>
<path d="M0,0 L7,0 L7,3 L5,2 L4,12 L1,20 L-1,20 L0,13 L1,9 L-5,9 L-4,3 Z " fill="#D0D0D0" transform="translate(13,7)"/>
<path d="M0,0 L5,0 L1,3 L-3,7 L0,9 L-5,9 L-4,3 Z " fill="#E2E2E2" transform="translate(13,7)"/>
<path d="M0,0 L3,1 L0,5 L-4,6 L-4,3 Z " fill="#111111" transform="translate(14,9)"/>
<path d="M0,0 L5,1 L3,6 L2,4 L0,4 Z " fill="#333333" transform="translate(18,9)"/>
</svg>
