<?xml version="1.0" encoding="UTF-8"?>
<svg version="1.1" xmlns="http://www.w3.org/2000/svg" width="28" height="28">
<path d="M0,0 L28,0 L28,28 L0,28 Z " fill="#010101" transform="translate(0,0)"/>
<path d="M0,0 L5,1 L4,7 L1,18 L-2,20 L-2,13 L-7,12 L-6,6 L-2,1 Z " fill="#DDDDDD" transform="translate(15,6)"/>
<path d="M0,0 L5,1 L4,7 L2,5 L3,2 L-3,7 L-5,11 L-2,11 L-2,13 L-7,12 L-6,6 L-2,1 Z " fill="#E2E2E2" transform="translate(15,6)"/>
<path d="M0,0 L2,0 L1,5 L-4,9 L-6,9 L-4,4 Z " fill="#1C1C1C" transform="translate(16,8)"/>
<path d="M0,0 L2,3 L1,8 L-1,9 Z " fill="#B4B4B4" transform="translate(14,17)"/>
</svg>
