<?xml version="1.0" encoding="UTF-8"?>
<svg version="1.1" xmlns="http://www.w3.org/2000/svg" width="28" height="28">
<path d="M0,0 L28,0 L28,28 L0,28 Z " fill="#020202" transform="translate(0,0)"/>
<path d="M0,0 L5,1 L4,4 L2,3 L3,1 L-5,7 L-7,11 L-1,8 L0,5 L2,5 L1,16 L-1,20 L-3,20 L-2,12 L-6,14 L-10,14 L-11,10 L-4,2 Z " fill="#C8C8C8" transform="translate(17,5)"/>
<path d="M0,0 L2,0 L1,11 L-1,15 L-3,15 L-1,6 L-3,5 Z " fill="#E4E4E4" transform="translate(17,10)"/>
<path d="M0,0 L2,0 L1,4 L-3,5 L-8,9 L-6,5 Z " fill="#1E1E1E" transform="translate(18,6)"/>
</svg>
