<?xml version="1.0" encoding="UTF-8"?>
<svg version="1.1" xmlns="http://www.w3.org/2000/svg" width="28" height="28">
<path d="M0,0 L28,0 L28,28 L0,28 Z " fill="#020202" transform="translate(0,0)"/>
<path d="M0,0 L5,1 L5,5 L9,4 L7,8 L1,20 L-1,20 L0,14 L2,10 L-3,10 L-5,8 L-4,3 Z " fill="#E4E4E4" transform="translate(13,6)"/>
<path d="M0,0 L1,2 L5,1 L3,5 L-3,17 L-5,17 L-4,11 L-2,7 L-4,7 L-4,5 L0,5 Z " fill="#EAEAEA" transform="translate(17,9)"/>
<path d="M0,0 L3,1 L3,6 L-3,6 L-3,2 Z " fill="#202020" transform="translate(14,8)"/>
</svg>
