<?xml version="1.0" encoding="UTF-8"?>
<svg version="1.1" xmlns="http://www.w3.org/2000/svg" width="28" height="28">
<path d="M0,0 L28,0 L28,28 L0,28 Z " fill="#010101" transform="translate(0,0)"/>
<path d="M0,0 L5,1 L6,6 L-1,14 L-4,19 L-8,20 L-6,15 L-3,12 L-9,10 L-8,5 L-3,1 Z " fill="#CACACA" transform="translate(16,6)"/>
<path d="M0,0 L4,1 L1,4 L2,6 L0,7 L-6,7 L-4,3 Z " fill="#272727" transform="translate(15,8)"/>
<path d="M0,0 L2,1 L0,6 L-3,11 L-7,12 L-5,7 L-2,4 L0,4 L0,2 L-4,1 Z " fill="#E0E0E0" transform="translate(15,14)"/>
</svg>
