<?xml version="1.0" encoding="UTF-8"?>
<svg version="1.1" xmlns="http://www.w3.org/2000/svg" width="28" height="28">
<path d="M0,0 L28,0 L28,28 L0,28 Z " fill="#010101" transform="translate(0,0)"/>
<path d="M0,0 L5,0 L6,2 L6,11 L4,18 L4,20 L2,20 L2,13 L-3,13 L-5,11 L-4,5 Z " fill="#C7C7C7" transform="translate(13,6)"/>
<path d="M0,0 L4,1 L3,8 L2,10 L-3,9 L-4,4 Z " fill="#0A0A0A" transform="translate(14,8)"/>
<path d="M0,0 L1,3 L-1,10 L-1,12 L-3,12 L-3,5 L-6,4 L-2,4 Z " fill="#E5E5E5" transform="translate(18,14)"/>
</svg>
