<?xml version="1.0" encoding="UTF-8"?>
<svg version="1.1" xmlns="http://www.w3.org/2000/svg" width="28" height="28">
<path d="M0,0 L28,0 L28,28 L0,28 Z " fill="#020202" transform="translate(0,0)"/>
<path d="M0,0 L5,0 L4,6 L1,15 L0,20 L-3,20 L-1,11 L-7,11 L-6,5 Z " fill="#D4D4D4" transform="translate(15,6)"/>
<path d="M0,0 L2,1 L1,3 L7,0 L9,0 L7,9 L6,14 L3,14 L5,5 L-1,5 Z " fill="#ECECEC" transform="translate(9,12)"/>
<path d="M0,0 L3,0 L1,5 L-2,7 L-5,7 L-3,3 Z " fill="#1C1C1C" transform="translate(15,8)"/>
<path d="M0,0 L1,0 L0,10 L-3,10 L-1,1 Z " fill="#D6D6D6" transform="translate(15,16)"/>
</svg>
