<?xml version="1.0" encoding="UTF-8"?>
<svg version="1.1" xmlns="http://www.w3.org/2000/svg" width="28" height="28">
<path d="M0,0 L28,0 L28,28 L0,28 Z " fill="#030303" transform="translate(0,0)"/>
<path d="M0,0 L10,1 L11,3 L12,20 L9,20 L9,9 L2,9 L-2,6 L-2,2 L0,2 Z " fill="#D6D6D6" transform="translate(8,7)"/>
<path d="M0,0 L2,0 L3,16 L0,16 L0,5 L-6,5 L-6,4 L0,4 Z " fill="#EAEAEA" transform="translate(17,11)"/>
<path d="M0,0 L5,1 L5,6 L-2,4 L-2,1 Z " fill="#141414" transform="translate(11,9)"/>
</svg>
