<?xml version="1.0" encoding="UTF-8"?>
<svg version="1.1" xmlns="http://www.w3.org/2000/svg" width="28" height="28">
<path d="M0,0 L28,0 L28,28 L0,28 Z " fill="#030303" transform="translate(0,0)"/>
<path d="M0,0 L5,0 L7,5 L8,11 L8,20 L6,20 L5,7 L0,9 L-6,9 L-7,5 L-3,1 Z " fill="#E6E6E6" transform="translate(12,7)"/>
<path d="M0,0 L2,1 L4,5 L0,7 L-5,7 L-7,8 L-6,4 L-3,1 Z " fill="#CECECE" transform="translate(12,7)"/>
<path d="M0,0 L4,0 L4,2 L0,4 L-4,4 L-4,2 Z " fill="#161616" transform="translate(12,10)"/>
</svg>
