<?xml version="1.0" encoding="UTF-8"?>
<svg version="1.1" xmlns="http://www.w3.org/2000/svg" width="28" height="28">
<path d="M0,0 L28,0 L28,28 L0,28 Z " fill="#020202" transform="translate(0,0)"/>
<path d="M0,0 L5,0 L8,5 L7,18 L10,18 L10,20 L5,20 L4,19 L4,11 L5,9 L1,10 L-6,10 L-6,5 Z " fill="#CFCFCF" transform="translate(12,6)"/>
<path d="M0,0 L5,0 L8,5 L8,9 L4,8 L5,3 L-1,5 L-3,7 L3,8 L1,10 L-6,10 L-6,5 Z " fill="#DDDDDD" transform="translate(12,6)"/>
<path d="M0,0 L5,0 L4,4 L-4,5 Z " fill="#101010" transform="translate(12,9)"/>
<path d="M0,0 L2,0 L2,2 L9,2 L7,4 L0,4 Z " fill="#F2F2F2" transform="translate(6,12)"/>
</svg>
