<?xml version="1.0" encoding="UTF-8"?>
<svg version="1.1" xmlns="http://www.w3.org/2000/svg" width="28" height="28">
<path d="M0,0 L28,0 L28,28 L0,28 Z " fill="#030303" transform="translate(0,0)"/>
<path d="M0,0 L6,0 L7,4 L5,8 L3,8 L0,17 L-2,20 L-5,19 L-1,11 L0,8 L-4,10 L-11,10 L-9,5 Z " fill="#CDCDCD" transform="translate(15,7)"/>
<path d="M0,0 L2,0 L1,4 L0,7 L-2,7 L-5,16 L-7,19 L-10,18 L-5,9 L-4,4 L0,2 Z " fill="#F2F2F2" transform="translate(20,8)"/>
<path d="M0,0 L3,0 L1,4 L-6,7 L-9,6 L-4,2 Z " fill="#1B1B1B" transform="translate(15,9)"/>
<path d="M0,0 L3,1 L-1,9 L-4,8 Z " fill="#D3D3D3" transform="translate(14,18)"/>
</svg>
