<?xml version="1.0" encoding="UTF-8"?>
<svg version="1.1" xmlns="http://www.w3.org/2000/svg" width="28" height="28">
<path d="M0,0 L28,0 L28,28 L0,28 Z " fill="#040404" transform="translate(0,0)"/>
<path d="M0,0 L9,0 L10,4 L3,12 L-2,18 L-4,18 L-3,14 L1,8 L-3,10 L-10,9 L-8,5 Z " fill="#EBEBEB" transform="translate(14,8)"/>
<path d="M0,0 L6,1 L6,3 L-1,7 L-3,10 L-10,9 L-8,5 Z " fill="#D7D7D7" transform="translate(14,8)"/>
<path d="M0,0 L4,1 L1,4 L-3,6 L-8,6 L-8,4 Z " fill="#212121" transform="translate(15,10)"/>
<path d="M0,0 L2,0 L1,4 L-3,6 L-2,2 Z " fill="#CCCCCC" transform="translate(13,20)"/>
</svg>
