<?xml version="1.0" encoding="UTF-8"?>
<svg version="1.1" xmlns="http://www.w3.org/2000/svg" width="28" height="28">
<path d="M0,0 L28,0 L28,28 L0,28 Z " fill="#020202" transform="translate(0,0)"/>
<path d="M0,0 L5,1 L4,7 L-1,17 L-2,20 L-5,19 L-1,8 L-10,9 L-10,8 L-1,5 L2,2 L0,2 Z " fill="#E1E1E1" transform="translate(17,7)"/>
<path d="M0,0 L2,0 L2,2 L4,2 L3,5 L-3,8 L-9,9 L-9,5 L-3,1 Z " fill="#BBBBBB" transform="translate(15,7)"/>
<path d="M0,0 L4,0 L3,3 L-1,5 L-7,5 L-5,2 Z " fill="#0E0E0E" transform="translate(15,9)"/>
</svg>
