<?xml version="1.0" encoding="UTF-8"?>
<svg version="1.1" xmlns="http://www.w3.org/2000/svg" width="28" height="28">
<path d="M0,0 L28,0 L28,28 L0,28 Z " fill="#040404" transform="translate(0,0)"/>
<path d="M0,0 L2,1 L-1,20 L-4,20 L-4,10 L-10,14 L-14,13 L-13,9 L-8,4 L-3,1 Z " fill="#D3D3D3" transform="translate(19,5)"/>
<path d="M0,0 L2,1 L-1,20 L-4,20 L-4,13 L-3,8 L-4,6 L-3,4 L-5,3 Z " fill="#F2F2F2" transform="translate(19,5)"/>
<path d="M0,0 L2,0 L0,4 L-4,7 L-6,6 Z " fill="#1C1C1C" transform="translate(14,9)"/>
<path d="M0,0 L2,1 L-3,7 L-6,5 Z " fill="#BDBDBD" transform="translate(13,7)"/>
</svg>
