<?xml version="1.0" encoding="UTF-8"?>
<svg version="1.1" xmlns="http://www.w3.org/2000/svg" width="28" height="28">
<path d="M0,0 L28,0 L28,28 L0,28 Z " fill="#030303" transform="translate(0,0)"/>
<path d="M0,0 L4,0 L6,4 L-2,15 L-7,20 L-8,18 L-2,10 L-1,8 L-6,10 L-10,9 L-7,4 Z " fill="#D8D8D8" transform="translate(16,7)"/>
<path d="M0,0 L4,2 L0,9 L-6,17 L-10,19 L-8,14 L-3,8 L-2,4 Z " fill="#EFEFEF" transform="translate(18,8)"/>
<path d="M0,0 L3,1 L-2,8 L-6,10 L-4,5 Z " fill="#D9D9D9" transform="translate(14,17)"/>
<path d="M0,0 L4,1 L-1,5 L-6,6 L-1,1 Z " fill="#191919" transform="translate(15,9)"/>
</svg>
