<?xml version="1.0" encoding="UTF-8"?>
<svg version="1.1" xmlns="http://www.w3.org/2000/svg" width="28" height="28">
<path d="M0,0 L28,0 L28,28 L0,28 Z " fill="#020202" transform="translate(0,0)"/>
<path d="M0,0 L7,1 L6,6 L-4,17 L-6,20 L-8,20 L-6,15 L-2,11 L-2,9 L-8,10 L-9,6 L-5,2 Z " fill="#C3C3C3" transform="translate(16,7)"/>
<path d="M0,0 L4,1 L2,5 L-8,17 L-10,17 L-8,12 L-2,5 L-1,1 Z " fill="#F3F3F3" transform="translate(18,10)"/>
<path d="M0,0 L3,1 L-2,5 L-6,4 Z " fill="#191919" transform="translate(16,9)"/>
<path d="M0,0 L3,1 L-2,7 L-4,7 L-2,2 Z " fill="#D2D2D2" transform="translate(12,20)"/>
</svg>
