<?xml version="1.0" encoding="UTF-8"?>
<svg version="1.1" xmlns="http://www.w3.org/2000/svg" width="28" height="28">
<path d="M0,0 L28,0 L28,28 L0,28 Z " fill="#030303" transform="translate(0,0)"/>
<path d="M0,0 L8,0 L10,1 L10,4 L8,4 L6,10 L-1,20 L-3,20 L-2,15 L0,11 L2,10 L3,7 L-4,6 L-3,1 Z " fill="#E2E2E2" transform="translate(12,7)"/>
<path d="M0,0 L6,0 L7,5 L1,14 L-1,14 L0,9 L2,5 L4,4 L5,1 L0,1 Z " fill="#D4D4D4" transform="translate(10,13)"/>
<path d="M0,0 L4,0 L4,2 L1,4 L-4,4 L-3,1 Z " fill="#1D1D1D" transform="translate(15,8)"/>
</svg>
