<?xml version="1.0" encoding="UTF-8"?>
<svg version="1.1" xmlns="http://www.w3.org/2000/svg" width="28" height="28">
<path d="M0,0 L28,0 L28,28 L0,28 Z " fill="#030303" transform="translate(0,0)"/>
<path d="M0,0 L5,0 L6,5 L4,11 L-3,19 L-7,20 L-8,17 L0,11 L1,8 L-8,8 L-7,4 Z " fill="#D9D9D9" transform="translate(15,6)"/>
<path d="M0,0 L2,0 L1,4 L-3,8 L-7,9 L-8,6 Z " fill="#DDDDDD" transform="translate(15,17)"/>
<path d="M0,0 L4,1 L-1,6 L3,7 L-6,7 L-5,3 Z " fill="#EFEFEF" transform="translate(13,7)"/>
<path d="M0,0 L2,0 L2,4 L-4,4 Z " fill="#1F1F1F" transform="translate(16,8)"/>
</svg>
