<?xml version="1.0" encoding="UTF-8"?>
<svg version="1.1" xmlns="http://www.w3.org/2000/svg" width="28" height="28">
<path d="M0,0 L28,0 L28,28 L0,28 Z " fill="#040404" transform="translate(0,0)"/>
<path d="M0,0 L7,1 L9,4 L9,11 L8,18 L6,19 L5,11 L1,14 L-9,14 L-11,12 L-11,7 L-4,1 Z " fill="#0C0C0C" transform="translate(14,6)"/>
<path d="M0,0 L7,1 L9,4 L9,11 L8,18 L6,19 L5,11 L1,14 L-9,14 L-11,12 L-11,7 L-4,1 Z M1,2 L-5,4 L-9,7 L-8,12 L-7,13 L1,13 L6,7 L5,2 Z " fill="#D1D1D1" transform="translate(14,6)"/>
</svg>
