<?xml version="1.0" encoding="UTF-8"?>
<svg version="1.1" xmlns="http://www.w3.org/2000/svg" width="28" height="28">
<path d="M0,0 L28,0 L28,28 L0,28 Z " fill="#020202" transform="translate(0,0)"/>
<path d="M0,0 L5,0 L7,3 L7,15 L3,20 L-1,19 L-2,16 L3,18 L5,9 L-1,10 L-3,8 L-2,2 Z " fill="#DADADA" transform="translate(12,5)"/>
<path d="M0,0 L1,0 L1,12 L-3,17 L-7,16 L-8,13 L-3,15 Z " fill="#CCCCCC" transform="translate(18,8)"/>
<path d="M0,0 L5,1 L5,5 L-1,6 Z " fill="#0E0E0E" transform="translate(12,7)"/>
</svg>
