<?xml version="1.0" encoding="UTF-8"?>
<svg version="1.1" xmlns="http://www.w3.org/2000/svg" width="28" height="28">
<path d="M0,0 L28,0 L28,28 L0,28 Z " fill="#020202" transform="translate(0,0)"/>
<path d="M0,0 L4,1 L5,9 L3,13 L2,20 L0,20 L0,13 L-5,12 L-5,5 Z " fill="#C6C6C6" transform="translate(14,6)"/>
<path d="M0,0 L1,2 L3,2 L2,7 L0,16 L-2,16 L-2,9 L-7,8 L-6,5 L-6,7 L-3,6 Z " fill="#E4E4E4" transform="translate(16,10)"/>
<path d="M0,0 L2,0 L2,5 L-1,9 L-3,9 L-3,3 Z " fill="#151515" transform="translate(14,8)"/>
</svg>
