<?xml version="1.0" encoding="UTF-8"?>
<svg version="1.1" xmlns="http://www.w3.org/2000/svg" width="28" height="28">
<path d="M0,0 L28,0 L28,28 L0,28 Z " fill="#030303" transform="translate(0,0)"/>
<path d="M0,0 L5,1 L6,6 L1,8 L-5,17 L-8,20 L-9,18 L-3,9 L-8,9 L-8,5 L-4,1 Z " fill="#D5D5D5" transform="translate(17,7)"/>
<path d="M0,0 L4,1 L2,7 L-3,12 L-4,10 L2,1 Z " fill="#D1D1D1" transform="translate(12,15)"/>
<path d="M0,0 L5,0 L5,2 L-1,5 L-4,5 L-3,2 Z " fill="#1A1A1A" transform="translate(15,9)"/>
<path d="M0,0 L3,1 L1,4 L-5,4 L-5,2 Z " fill="#EBEBEB" transform="translate(16,12)"/>
</svg>
