<?xml version="1.0" encoding="UTF-8"?>
<svg version="1.1" xmlns="http://www.w3.org/2000/svg" width="28" height="28">
<path d="M0,0 L28,0 L28,28 L0,28 Z " fill="#030303" transform="translate(0,0)"/>
<path d="M0,0 L4,1 L6,3 L6,7 L8,7 L8,12 L5,18 L3,20 L-4,19 L-5,15 L2,16 L3,12 L-2,9 L-3,4 Z " fill="#F2F2F2" transform="translate(12,4)"/>
<path d="M0,0 L4,1 L6,4 L4,4 L5,9 L2,9 L2,11 L-2,9 L-3,4 Z " fill="#B4B4B4" transform="translate(12,4)"/>
<path d="M0,0 L7,2 L8,5 L1,4 Z " fill="#D4D4D4" transform="translate(7,19)"/>
</svg>
