<?xml version="1.0" encoding="UTF-8"?>
<svg version="1.1" xmlns="http://www.w3.org/2000/svg" width="28" height="28">
<path d="M0,0 L28,0 L28,28 L0,28 Z " fill="#030303" transform="translate(0,0)"/>
<path d="M0,0 L6,1 L8,4 L4,4 L4,8 L2,8 L0,12 L-5,18 L-9,20 L-7,15 L-5,15 L-3,11 L-9,9 L-9,4 L-5,1 Z " fill="#B8B8B8" transform="translate(17,7)"/>
<path d="M0,0 L6,1 L6,2 L-4,4 L-6,5 L-7,8 L-1,8 L-5,10 L-9,9 L-9,4 L-5,1 Z " fill="#E1E1E1" transform="translate(17,7)"/>
<path d="M0,0 L6,0 L5,4 L3,5 L-3,5 L-2,1 Z " fill="#161616" transform="translate(13,10)"/>
<path d="M0,0 L2,0 L0,4 L-4,8 L-5,6 L-3,3 L-1,3 Z " fill="#E1E1E1" transform="translate(13,19)"/>
</svg>
