<?xml version="1.0" encoding="UTF-8"?>
<svg version="1.1" xmlns="http://www.w3.org/2000/svg" width="28" height="28">
<path d="M0,0 L28,0 L28,28 L0,28 Z " fill="#010101" transform="translate(0,0)"/>
<path d="M0,0 L5,0 L6,6 L1,10 L-6,20 L-9,19 L-3,11 L-5,10 L-5,5 Z " fill="#EEEEEE" transform="translate(16,6)"/>
<path d="M0,0 L5,0 L1,2 L4,3 L4,5 L0,7 L-5,7 L-3,3 Z " fill="#858585" transform="translate(16,6)"/>
<path d="M0,0 L4,0 L5,3 L-1,11 L-4,10 L2,2 Z " fill="#CBCBCB" transform="translate(11,15)"/>
</svg>
