<?xml version="1.0" encoding="UTF-8"?>
<svg version="1.1" xmlns="http://www.w3.org/2000/svg" width="28" height="28">
<path d="M0,0 L28,0 L28,28 L0,28 Z " fill="#020202" transform="translate(0,0)"/>
<path d="M0,0 L3,0 L4,4 L6,4 L3,15 L1,20 L-1,20 L0,13 L2,8 L-1,10 L-4,10 L-3,3 Z " fill="#E8E8E8" transform="translate(13,6)"/>
<path d="M0,0 L2,0 L3,4 L4,9 L1,17 L-1,17 L0,10 L2,5 L-2,5 Z " fill="#868686" transform="translate(13,9)"/>
<path d="M0,0 L2,0 L2,6 L-1,7 Z " fill="#E8E8E8" transform="translate(13,19)"/>
</svg>
