<?xml version="1.0" encoding="UTF-8"?>
<svg version="1.1" xmlns="http://www.w3.org/2000/svg" width="28" height="28">
<path d="M0,0 L28,0 L28,28 L0,28 Z " fill="#020202" transform="translate(0,0)"/>
<path d="M0,0 L5,1 L5,8 L1,12 L-1,12 L-2,16 L-6,20 L-8,19 L-7,16 L-3,12 L-2,10 L-6,10 L-5,3 Z " fill="#CACACA" transform="translate(16,6)"/>
<path d="M0,0 L2,0 L1,4 L-2,7 L-4,7 L-5,11 L-9,15 L-11,14 L-10,11 L-6,7 L-5,5 L-8,5 L-8,3 Z " fill="#E8E8E8" transform="translate(19,11)"/>
<path d="M0,0 L2,1 L1,4 L-6,6 L-4,1 Z " fill="#0D0D0D" transform="translate(18,8)"/>
<path d="M0,0 L1,4 L-4,9 L-6,8 L-5,5 Z " fill="#CCCCCC" transform="translate(14,17)"/>
</svg>
