<?xml version="1.0" encoding="UTF-8"?>
<svg version="1.1" xmlns="http://www.w3.org/2000/svg" width="28" height="28">
<path d="M0,0 L28,0 L28,28 L0,28 Z " fill="#020202" transform="translate(0,0)"/>
<path d="M0,0 L6,0 L8,4 L7,8 L1,13 L0,15 L-2,15 L-4,19 L-7,20 L-6,16 L-3,12 L-8,11 L-8,5 Z " fill="#D3D3D3" transform="translate(15,6)"/>
<path d="M0,0 L2,1 L1,5 L-5,10 L-6,12 L-8,12 L-10,16 L-13,17 L-12,13 L-8,8 L-9,6 L-2,3 Z " fill="#E8E8E8" transform="translate(21,9)"/>
<path d="M0,0 L4,0 L3,5 L-1,7 L-7,7 L-7,4 Z " fill="#0F0F0F" transform="translate(16,8)"/>
</svg>
