<?xml version="1.0" encoding="UTF-8"?>
<svg version="1.1" xmlns="http://www.w3.org/2000/svg" width="28" height="28">
<path d="M0,0 L28,0 L28,28 L0,28 Z " fill="#020202" transform="translate(0,0)"/>
<path d="M0,0 L6,0 L8,2 L7,10 L4,20 L1,20 L3,12 L-3,12 L-6,9 L-5,3 Z " fill="#D4D4D4" transform="translate(13,6)"/>
<path d="M0,0 L5,0 L6,4 L3,8 L-3,7 L-3,3 Z " fill="#0E0E0E" transform="translate(13,8)"/>
<path d="M0,0 L1,3 L-3,16 L-6,16 L-4,8 L-8,8 L-8,6 L-3,4 Z " fill="#ECECEC" transform="translate(20,10)"/>
</svg>
