<?xml version="1.0" encoding="UTF-8"?>
<svg version="1.1" xmlns="http://www.w3.org/2000/svg" width="28" height="28">
<path d="M0,0 L28,0 L28,28 L0,28 Z " fill="#010101" transform="translate(0,0)"/>
<path d="M0,0 L5,1 L6,2 L6,14 L2,20 L-1,19 L3,12 L-6,12 L-8,10 L-7,5 L-2,1 Z " fill="#D2D2D2" transform="translate(15,6)"/>
<path d="M0,0 L4,1 L-1,5 L-1,9 L6,8 L6,10 L3,11 L-4,11 L-6,9 L-5,4 Z " fill="#E5E5E5" transform="translate(13,7)"/>
<path d="M0,0 L4,1 L4,6 L2,8 L-3,8 L-4,3 Z " fill="#181818" transform="translate(15,8)"/>
</svg>
