<?xml version="1.0" encoding="UTF-8"?>
<svg version="1.1" xmlns="http://www.w3.org/2000/svg" width="28" height="28">
<path d="M0,0 L28,0 L28,28 L0,28 Z " fill="#010101" transform="translate(0,0)"/>
<path d="M0,0 L5,0 L6,1 L6,7 L4,9 L3,20 L1,20 L1,11 L-4,10 L-4,4 L-2,4 Z " fill="#C2C2C2" transform="translate(13,7)"/>
<path d="M0,0 L2,0 L1,13 L-1,13 L-1,4 L-5,2 Z " fill="#D8D8D8" transform="translate(15,14)"/>
<path d="M0,0 L2,0 L1,6 L-4,7 L-3,3 Z " fill="#0A0A0A" transform="translate(15,8)"/>
</svg>
