<?xml version="1.0" encoding="UTF-8"?>
<svg version="1.1" xmlns="http://www.w3.org/2000/svg" width="28" height="28">
<path d="M0,0 L28,0 L28,28 L0,28 Z " fill="#020202" transform="translate(0,0)"/>
<path d="M0,0 L6,1 L7,4 L3,9 L-1,18 L-3,20 L-6,20 L-5,15 L-2,11 L-11,11 L-12,6 L-9,6 L-9,4 Z " fill="#CDCDCD" transform="translate(17,6)"/>
<path d="M0,0 L1,3 L-2,8 L-5,14 L-7,16 L-10,16 L-9,11 L-6,8 L-6,5 Z " fill="#EFEFEF" transform="translate(21,10)"/>
<path d="M0,0 L1,3 L-2,7 L-10,8 L-12,6 L-7,2 Z " fill="#0B0B0B" transform="translate(19,8)"/>
</svg>
