<?xml version="1.0" encoding="UTF-8"?>
<svg version="1.1" xmlns="http://www.w3.org/2000/svg" width="28" height="28">
<path d="M0,0 L28,0 L28,28 L0,28 Z " fill="#020202" transform="translate(0,0)"/>
<path d="M0,0 L5,1 L7,7 L3,14 L-1,20 L-3,20 L-2,16 L0,12 L-5,12 L-6,11 L-6,5 L-2,1 Z " fill="#C3C3C3" transform="translate(14,6)"/>
<path d="M0,0 L3,1 L2,5 L0,7 L-5,7 L-4,3 Z " fill="#080808" transform="translate(15,8)"/>
<path d="M0,0 L1,3 L-4,12 L-7,13 L-6,9 L-4,4 L-4,2 Z " fill="#DCDCDC" transform="translate(18,13)"/>
</svg>
