<?xml version="1.0" encoding="UTF-8"?>
<svg version="1.1" xmlns="http://www.w3.org/2000/svg" width="28" height="28">
<path d="M0,0 L28,0 L28,28 L0,28 Z " fill="#010101" transform="translate(0,0)"/>
<path d="M0,0 L4,1 L6,3 L6,11 L4,20 L2,20 L2,14 L-4,15 L-6,13 L-5,6 Z " fill="#D8D8D8" transform="translate(14,5)"/>
<path d="M0,0 L4,2 L2,8 L-4,9 L-4,4 Z " fill="#070707" transform="translate(14,8)"/>
<path d="M0,0 L1,0 L1,8 L-1,17 L-3,17 L-3,11 L-9,12 L-8,9 L-1,6 Z " fill="#C1C1C1" transform="translate(19,8)"/>
</svg>
