<?xml version="1.0" encoding="UTF-8"?>
<svg version="1.1" xmlns="http://www.w3.org/2000/svg" width="28" height="28">
<path d="M0,0 L28,0 L28,28 L0,28 Z " fill="#020202" transform="translate(0,0)"/>
<path d="M0,0 L4,1 L6,3 L5,10 L2,20 L0,20 L1,13 L-5,13 L-6,12 L-6,6 L-2,1 Z " fill="#EAEAEA" transform="translate(14,5)"/>
<path d="M0,0 L2,0 L3,4 L-1,9 L-4,9 L-3,2 Z " fill="#0A0A0A" transform="translate(15,7)"/>
<path d="M0,0 L2,0 L1,3 L-2,6 L-3,11 L-6,12 L-6,6 L-2,1 Z " fill="#B6B6B6" transform="translate(14,5)"/>
</svg>
