<?xml version="1.0" encoding="UTF-8"?>
<svg version="1.1" xmlns="http://www.w3.org/2000/svg" width="28" height="28">
<path d="M0,0 L28,0 L28,28 L0,28 Z " fill="#030303" transform="translate(0,0)"/>
<path d="M0,0 L3,1 L6,10 L6,18 L3,20 L-2,20 L-3,17 L3,17 L3,10 L2,12 L-3,12 L-4,11 L-4,5 L-2,1 Z " fill="#DBDBDB" transform="translate(13,5)"/>
<path d="M0,0 L2,1 L1,9 L3,10 L2,12 L-3,12 L-4,11 L-4,5 L-2,1 Z " fill="#D9D9D9" transform="translate(13,5)"/>
<path d="M0,0 L1,0 L1,6 L-2,7 L-2,2 Z " fill="#0C0C0C" transform="translate(13,8)"/>
</svg>
