<?xml version="1.0" encoding="UTF-8"?>
<svg version="1.1" xmlns="http://www.w3.org/2000/svg" width="28" height="28">
<path d="M0,0 L28,0 L28,28 L0,28 Z " fill="#030303" transform="translate(0,0)"/>
<path d="M0,0 L5,1 L6,2 L5,16 L4,20 L2,20 L3,12 L-4,12 L-5,6 L-3,2 Z " fill="#DBDBDB" transform="translate(13,6)"/>
<path d="M0,0 L2,0 L1,14 L0,18 L-2,18 L-1,9 L-3,8 L-1,5 Z " fill="#EEEEEE" transform="translate(17,8)"/>
<path d="M0,0 L2,0 L2,5 L-1,7 L-4,7 L-2,2 Z " fill="#0E0E0E" transform="translate(14,9)"/>
</svg>
