<?xml version="1.0" encoding="UTF-8"?>
<svg version="1.1" xmlns="http://www.w3.org/2000/svg" width="28" height="28">
<path d="M0,0 L28,0 L28,28 L0,28 Z " fill="#020202" transform="translate(0,0)"/>
<path d="M0,0 L4,1 L4,3 L6,3 L6,10 L2,20 L1,17 L4,8 L-3,9 L-4,4 L-3,6 L2,5 L2,2 L-1,1 Z " fill="#E0E0E0" transform="translate(13,7)"/>
<path d="M0,0 L4,2 L5,5 L4,6 L-3,6 L-2,2 Z " fill="#686868" transform="translate(11,7)"/>
<path d="M0,0 L1,2 L8,1 L8,4 L1,5 Z " fill="#C0C0C0" transform="translate(9,11)"/>
</svg>
