<?xml version="1.0" encoding="UTF-8"?>
<svg version="1.1" xmlns="http://www.w3.org/2000/svg" width="28" height="28">
<path d="M0,0 L28,0 L28,28 L0,28 Z " fill="#010101" transform="translate(0,0)"/>
<path d="M0,0 L4,1 L6,4 L6,16 L1,20 L-4,20 L-3,18 L3,16 L4,10 L-1,11 L-4,8 L-3,3 Z " fill="#C0C0C0" transform="translate(13,5)"/>
<path d="M0,0 L3,3 L3,7 L-2,6 L-1,1 Z " fill="#0D0D0D" transform="translate(13,7)"/>
<path d="M0,0 L4,1 L6,4 L6,7 L4,7 L3,9 L1,3 L-1,1 Z " fill="#DADADA" transform="translate(13,5)"/>
</svg>
