<?xml version="1.0" encoding="UTF-8"?>
<svg version="1.1" xmlns="http://www.w3.org/2000/svg" width="28" height="28">
<path d="M0,0 L28,0 L28,28 L0,28 Z " fill="#020202" transform="translate(0,0)"/>
<path d="M0,0 L7,1 L9,5 L9,15 L10,20 L7,19 L6,11 L-1,10 L-2,9 L-2,3 Z " fill="#EAEAEA" transform="translate(10,6)"/>
<path d="M0,0 L4,0 L5,6 L4,7 L-1,7 L-1,1 Z " fill="#151515" transform="translate(11,8)"/>
<path d="M0,0 L7,1 L6,6 L5,2 L1,3 L0,8 L-2,4 Z " fill="#CFCFCF" transform="translate(10,6)"/>
</svg>
