<?xml version="1.0" encoding="UTF-8"?>
<svg version="1.1" xmlns="http://www.w3.org/2000/svg" width="28" height="28">
<path d="M0,0 L28,0 L28,28 L0,28 Z " fill="#020202" transform="translate(0,0)"/>
<path d="M0,0 L5,1 L9,3 L8,13 L4,20 L3,20 L4,10 L-1,11 L-3,9 L-3,3 Z " fill="#E7E7E7" transform="translate(11,7)"/>
<path d="M0,0 L4,1 L3,11 L-1,18 L-2,18 L-1,4 Z " fill="#D2D2D2" transform="translate(16,9)"/>
<path d="M0,0 L4,1 L4,7 L0,7 L-1,4 Z " fill="#F4F4F4" transform="translate(16,9)"/>
<path d="M0,0 L4,1 L3,4 L-1,5 L-1,1 Z " fill="#161616" transform="translate(12,10)"/>
</svg>
