<?xml version="1.0" encoding="UTF-8"?>
<svg version="1.1" xmlns="http://www.w3.org/2000/svg" width="28" height="28">
<path d="M0,0 L28,0 L28,28 L0,28 Z " fill="#020202" transform="translate(0,0)"/>
<path d="M0,0 L5,1 L7,4 L6,8 L-2,20 L-4,19 L0,12 L-6,12 L-5,7 L-2,2 Z " fill="#DADADA" transform="translate(14,6)"/>
<path d="M0,0 L2,0 L1,4 L-7,16 L-9,15 L-5,9 L-4,4 L0,2 Z " fill="#E6E6E6" transform="translate(19,10)"/>
<path d="M0,0 L3,1 L2,5 L-3,8 L-5,8 L-3,3 Z " fill="#151515" transform="translate(15,8)"/>
</svg>
