<?xml version="1.0" encoding="UTF-8"?>
<svg version="1.1" xmlns="http://www.w3.org/2000/svg" width="28" height="28">
<path d="M0,0 L28,0 L28,28 L0,28 Z " fill="#030303" transform="translate(0,0)"/>
<path d="M0,0 L5,1 L6,5 L8,5 L6,10 L0,20 L-2,20 L-1,16 L3,10 L-4,9 L-5,6 Z " fill="#DBDBDB" transform="translate(13,7)"/>
<path d="M0,0 L4,1 L2,6 L-4,16 L-6,16 L-5,12 L-1,6 L-7,5 L-3,3 L0,3 Z " fill="#E3E3E3" transform="translate(17,11)"/>
<path d="M0,0 L4,1 L4,4 L-2,4 Z " fill="#060606" transform="translate(13,10)"/>
<path d="M0,0 L3,1 L1,4 L4,5 L-1,6 L-2,3 Z " fill="#B6B6B6" transform="translate(10,10)"/>
</svg>
