<?xml version="1.0" encoding="UTF-8"?>
<svg version="1.1" xmlns="http://www.w3.org/2000/svg" width="28" height="28">
<path d="M0,0 L28,0 L28,28 L0,28 Z " fill="#030303" transform="translate(0,0)"/>
<path d="M0,0 L3,1 L3,5 L6,5 L6,20 L5,20 L4,10 L-1,15 L-6,14 L-6,7 Z " fill="#BFBFBF" transform="translate(13,5)"/>
<path d="M0,0 L2,0 L3,7 L-2,12 L-5,11 L-4,5 Z " fill="#0C0C0C" transform="translate(13,7)"/>
<path d="M0,0 L2,0 L2,14 L1,14 L0,4 L-2,5 Z " fill="#E7E7E7" transform="translate(17,11)"/>
</svg>
