<?xml version="1.0" encoding="UTF-8"?>
<svg version="1.1" xmlns="http://www.w3.org/2000/svg" width="28" height="28">
<path d="M0,0 L28,0 L28,28 L0,28 Z " fill="#030303" transform="translate(0,0)"/>
<path d="M0,0 L6,0 L7,7 L5,20 L3,20 L4,9 L2,10 L-4,10 L-6,6 L-2,1 Z " fill="#DCDCDC" transform="translate(13,7)"/>
<path d="M0,0 L4,1 L0,4 L-1,7 L4,7 L4,9 L-2,9 L-4,5 Z " fill="#E2E2E2" transform="translate(11,8)"/>
<path d="M0,0 L1,4 L-7,6 L-6,2 Z " fill="#0C0C0C" transform="translate(17,9)"/>
</svg>
