<?xml version="1.0" encoding="UTF-8"?>
<svg version="1.1" xmlns="http://www.w3.org/2000/svg" width="28" height="28">
<path d="M0,0 L28,0 L28,28 L0,28 Z " fill="#010101" transform="translate(0,0)"/>
<path d="M0,0 L6,0 L7,8 L5,20 L3,20 L3,11 L4,9 L1,10 L-6,10 L-8,6 L-3,1 Z " fill="#D6D6D6" transform="translate(13,7)"/>
<path d="M0,0 L1,0 L0,10 L-1,17 L-3,17 L-3,8 L-2,6 L-5,7 L-12,7 L-13,4 L-3,3 Z " fill="#DBDBDB" transform="translate(19,10)"/>
<path d="M0,0 L7,0 L6,3 L4,4 L-4,4 L-4,2 Z " fill="#131313" transform="translate(12,10)"/>
</svg>
