<?xml version="1.0" encoding="UTF-8"?>
<svg version="1.1" xmlns="http://www.w3.org/2000/svg" width="28" height="28">
<path d="M0,0 L28,0 L28,28 L0,28 Z " fill="#020202" transform="translate(0,0)"/>
<path d="M0,0 L7,0 L10,4 L8,20 L6,20 L6,10 L-1,11 L-4,8 L-2,2 Z " fill="#E7E7E7" transform="translate(11,7)"/>
<path d="M0,0 L7,0 L7,4 L-1,5 L-1,1 Z " fill="#171717" transform="translate(11,10)"/>
<path d="M0,0 L1,3 L0,14 L-2,14 L-2,2 Z " fill="#F7F7F7" transform="translate(19,13)"/>
<path d="M0,0 L4,2 L5,7 L2,7 Z M-1,7 L2,8 L2,10 L0,10 Z " fill="#C9C9C9" transform="translate(16,7)"/>
</svg>
