<?xml version="1.0" encoding="UTF-8"?>
<svg version="1.1" xmlns="http://www.w3.org/2000/svg" width="28" height="28">
<path d="M0,0 L28,0 L28,28 L0,28 Z " fill="#010101" transform="translate(0,0)"/>
<path d="M0,0 L5,1 L7,4 L1,3 L2,9 L5,10 L5,5 L7,5 L6,20 L4,20 L4,12 L0,11 L-2,9 L-2,2 Z " fill="#F0F0F0" transform="translate(11,6)"/>
<path d="M0,0 L5,1 L7,4 L1,3 L0,7 L-2,9 L-2,2 Z " fill="#B8B8B8" transform="translate(11,6)"/>
<path d="M0,0 L6,1 L4,2 L4,7 L0,6 Z " fill="#1B1B1B" transform="translate(12,9)"/>
</svg>
