<?xml version="1.0" encoding="UTF-8"?>
<svg version="1.1" xmlns="http://www.w3.org/2000/svg" width="28" height="28">
<path d="M0,0 L28,0 L28,28 L0,28 Z " fill="#020202" transform="translate(0,0)"/>
<path d="M0,0 L6,0 L8,1 L7,6 L1,16 L-3,20 L-5,19 L1,11 L-4,9 L-4,4 Z " fill="#C1C1C1" transform="translate(13,6)"/>
<path d="M0,0 L1,3 L-6,14 L-10,18 L-12,17 L-6,9 L-9,7 L-3,4 Z " fill="#CACACA" transform="translate(20,8)"/>
<path d="M0,0 L5,0 L4,4 L2,6 L-3,6 L-2,2 Z " fill="#0F0F0F" transform="translate(14,8)"/>
<path d="M0,0 L1,3 L-3,9 L-9,8 L-6,6 L-1,2 Z " fill="#EAEAEA" transform="translate(20,8)"/>
</svg>
