<?xml version="1.0" encoding="UTF-8"?>
<svg version="1.1" xmlns="http://www.w3.org/2000/svg" width="28" height="28">
<path d="M0,0 L28,0 L28,28 L0,28 Z " fill="#020202" transform="translate(0,0)"/>
<path d="M0,0 L5,0 L8,5 L9,18 L8,20 L5,20 L5,11 L-4,11 L-5,10 L-5,4 Z " fill="#DADADA" transform="translate(12,6)"/>
<path d="M0,0 L6,0 L1,4 L1,7 L4,8 L4,10 L-2,10 L-3,9 L-3,3 Z " fill="#EAEAEA" transform="translate(10,7)"/>
<path d="M0,0 L5,0 L4,4 L3,5 L-2,5 L-1,1 Z " fill="#0C0C0C" transform="translate(12,9)"/>
</svg>
