<?xml version="1.0" encoding="UTF-8"?>
<svg version="1.1" xmlns="http://www.w3.org/2000/svg" width="28" height="28">
<path d="M0,0 L28,0 L28,28 L0,28 Z " fill="#020202" transform="translate(0,0)"/>
<path d="M0,0 L6,1 L7,4 L7,11 L3,20 L1,20 L2,16 L4,10 L-2,10 L-4,8 L-4,3 Z " fill="#E6E6E6" transform="translate(12,6)"/>
<path d="M0,0 L4,1 L3,5 L-2,6 L-2,1 Z " fill="#1F1F1F" transform="translate(13,8)"/>
<path d="M0,0 L2,1 L1,3 L-1,3 L-1,8 L-4,8 L-4,3 Z " fill="#C4C4C4" transform="translate(12,6)"/>
</svg>
