<?xml version="1.0" encoding="UTF-8"?>
<svg version="1.1" xmlns="http://www.w3.org/2000/svg" width="28" height="28">
<path d="M0,0 L28,0 L28,28 L0,28 Z " fill="#020202" transform="translate(0,0)"/>
<path d="M0,0 L5,0 L8,5 L7,9 L2,11 L1,16 L-3,18 L-3,20 L-5,19 L-1,12 L-9,12 L-10,8 L-8,7 L-8,10 L0,8 L2,7 L3,3 L-5,5 L-5,3 Z " fill="#E1E1E1" transform="translate(15,6)"/>
<path d="M0,0 L1,2 L4,0 L9,0 L8,5 L4,7 L-2,7 L-1,1 Z " fill="#1D1D1D" transform="translate(9,9)"/>
<path d="M0,0 L3,0 L1,5 L-2,6 L-2,8 L-4,7 Z " fill="#BBBBBB" transform="translate(14,18)"/>
</svg>
