<?xml version="1.0" encoding="UTF-8"?>
<svg version="1.1" xmlns="http://www.w3.org/2000/svg" width="28" height="28">
<path d="M0,0 L28,0 L28,28 L0,28 Z " fill="#020202" transform="translate(0,0)"/>
<path d="M0,0 L6,0 L8,2 L7,9 L1,20 L-1,20 L2,11 L3,9 L1,10 L-5,10 L-6,9 L-6,4 L-3,1 Z " fill="#DFDFDF" transform="translate(13,7)"/>
<path d="M0,0 L8,0 L8,4 L0,5 L-1,2 Z " fill="#121212" transform="translate(10,10)"/>
<path d="M0,0 L4,3 L8,4 L7,6 L1,6 L0,5 Z " fill="#949494" transform="translate(7,11)"/>
</svg>
