<?xml version="1.0" encoding="UTF-8"?>
<svg version="1.1" xmlns="http://www.w3.org/2000/svg" width="28" height="28">
<path d="M0,0 L28,0 L28,28 L0,28 Z " fill="#000000" transform="translate(0,0)"/>
<path d="M0,0 L5,1 L8,2 L9,4 L9,19 L6,20 L5,11 L0,11 L-3,8 L-3,3 Z " fill="#D1D1D1" transform="translate(10,6)"/>
<path d="M0,0 L5,1 L8,2 L8,4 L1,3 L0,7 L4,10 L-1,10 L-3,8 L-3,3 Z " fill="#E0E0E0" transform="translate(10,6)"/>
<path d="M0,0 L4,1 L5,6 L0,7 L-2,5 L-1,1 Z " fill="#181818" transform="translate(11,8)"/>
</svg>
