<?xml version="1.0" encoding="UTF-8"?>
<svg version="1.1" xmlns="http://www.w3.org/2000/svg" width="28" height="28">
<path d="M0,0 L28,0 L28,28 L0,28 Z " fill="#030303" transform="translate(0,0)"/>
<path d="M0,0 L8,1 L7,6 L6,8 L4,8 L2,13 L-2,20 L-4,20 L-3,15 L0,9 L-5,11 L-9,10 L-8,6 L-4,2 Z " fill="#EBEBEB" transform="translate(15,7)"/>
<path d="M0,0 L2,1 L1,6 L1,9 L-8,11 L-9,7 L-4,2 Z " fill="#E4E4E4" transform="translate(15,7)"/>
<path d="M0,0 L2,1 L1,6 L1,9 L-3,10 L-4,6 L-1,5 Z " fill="#B5B5B5" transform="translate(15,7)"/>
</svg>
