<?xml version="1.0" encoding="UTF-8"?>
<svg version="1.1" xmlns="http://www.w3.org/2000/svg" width="28" height="28">
<path d="M0,0 L28,0 L28,28 L0,28 Z " fill="#020202" transform="translate(0,0)"/>
<path d="M0,0 L10,0 L15,4 L14,13 L14,19 L11,18 L10,11 L3,12 L-1,10 L-3,4 Z " fill="#E8E8E8" transform="translate(8,7)"/>
<path d="M0,0 L10,0 L9,3 L1,4 L3,8 L7,10 L6,12 L0,11 L-3,6 L-1,1 Z " fill="#E2E2E2" transform="translate(8,7)"/>
<path d="M0,0 L6,2 L6,5 L2,7 L-3,6 L-5,2 Z " fill="#121212" transform="translate(13,9)"/>
<path d="M0,0 L2,4 L2,10 L-1,9 L-2,5 Z " fill="#D2D2D2" transform="translate(20,16)"/>
</svg>
