<?xml version="1.0" encoding="UTF-8"?>
<svg version="1.1" xmlns="http://www.w3.org/2000/svg" width="28" height="28">
<path d="M0,0 L28,0 L28,28 L0,28 Z " fill="#020202" transform="translate(0,0)"/>
<path d="M0,0 L6,1 L8,7 L6,17 L3,20 L4,13 L5,11 L0,11 L-2,9 L-2,3 Z " fill="#CBCBCB" transform="translate(11,6)"/>
<path d="M0,0 L4,1 L4,7 L-1,8 L-1,2 Z " fill="#111111" transform="translate(12,8)"/>
<path d="M0,0 L6,1 L7,3 L6,8 L5,8 L4,3 L1,2 L0,10 L-2,9 L-2,3 Z " fill="#C2C2C2" transform="translate(11,6)"/>
<path d="M0,0 L2,4 L1,9 L-6,8 L-2,6 Z " fill="#EAEAEA" transform="translate(17,9)"/>
</svg>
