<?xml version="1.0" encoding="UTF-8"?>
<svg version="1.1" xmlns="http://www.w3.org/2000/svg" width="28" height="28">
<path d="M0,0 L28,0 L28,28 L0,28 Z " fill="#020202" transform="translate(0,0)"/>
<path d="M0,0 L3,0 L3,3 L5,3 L4,7 L0,13 L-2,20 L-5,20 L-4,14 L-2,10 L-7,10 L-6,5 Z " fill="#C3C3C3" transform="translate(16,6)"/>
<path d="M0,0 L2,0 L1,4 L-3,12 L-4,16 L-7,16 L-6,10 L-4,6 L-7,5 L-2,3 Z " fill="#DCDCDC" transform="translate(18,10)"/>
<path d="M0,0 L2,0 L1,5 L-3,5 L-1,1 Z " fill="#0C0C0C" transform="translate(15,9)"/>
</svg>
