<?xml version="1.0" encoding="UTF-8"?>
<svg version="1.1" xmlns="http://www.w3.org/2000/svg" width="28" height="28">
<path d="M0,0 L28,0 L28,28 L0,28 Z " fill="#030303" transform="translate(0,0)"/>
<path d="M0,0 L6,0 L9,2 L9,7 L2,20 L-1,19 L3,11 L-5,12 L-5,6 L-2,1 Z " fill="#E3E3E3" transform="translate(12,7)"/>
<path d="M0,0 L6,0 L5,5 L1,7 L-3,7 L-2,2 Z " fill="#121212" transform="translate(12,10)"/>
<path d="M0,0 L1,4 L-2,6 L-6,5 L-3,2 L0,2 Z " fill="#565656" transform="translate(17,10)"/>
</svg>
