<?xml version="1.0" encoding="UTF-8"?>
<svg version="1.1" xmlns="http://www.w3.org/2000/svg" width="28" height="28">
<path d="M0,0 L28,0 L28,28 L0,28 Z " fill="#020202" transform="translate(0,0)"/>
<path d="M0,0 L4,1 L6,4 L5,12 L1,20 L-2,19 L2,10 L-6,13 L-10,13 L-9,9 L-7,6 L-5,6 L-3,2 Z " fill="#DCDCDC" transform="translate(15,5)"/>
<path d="M0,0 L3,1 L4,5 L-5,9 L-7,9 L-5,5 Z " fill="#0F0F0F" transform="translate(15,7)"/>
<path d="M0,0 L2,1 L-3,6 L-2,8 L-7,9 L-5,5 Z " fill="#2C2C2C" transform="translate(15,7)"/>
</svg>
