<?xml version="1.0" encoding="UTF-8"?>
<svg version="1.1" xmlns="http://www.w3.org/2000/svg" width="28" height="28">
<path d="M0,0 L28,0 L28,28 L0,28 Z " fill="#040404" transform="translate(0,0)"/>
<path d="M0,0 L5,0 L7,3 L6,6 L2,10 L-1,20 L-3,20 L-1,12 L-7,13 L-10,10 L-9,6 L-3,1 Z " fill="#E7E7E7" transform="translate(16,6)"/>
<path d="M0,0 L4,1 L-2,9 L-7,9 L-6,4 L-3,1 Z " fill="#0A0A0A" transform="translate(16,8)"/>
<path d="M0,0 L4,1 L0,3 L-5,6 L-7,10 L-10,10 L-9,6 L-3,1 Z " fill="#C8C8C8" transform="translate(16,6)"/>
</svg>
