<?xml version="1.0" encoding="UTF-8"?>
<svg version="1.1" xmlns="http://www.w3.org/2000/svg" width="28" height="28">
<path d="M0,0 L28,0 L28,28 L0,28 Z " fill="#020202" transform="translate(0,0)"/>
<path d="M0,0 L4,1 L8,2 L8,13 L6,20 L4,20 L5,14 L6,8 L2,11 L-3,11 L-4,5 Z " fill="#D5D5D5" transform="translate(11,6)"/>
<path d="M0,0 L2,0 L2,11 L0,18 L-2,18 L-1,5 Z " fill="#D7D7D7" transform="translate(17,8)"/>
<path d="M0,0 L4,1 L3,6 L-2,8 L-1,1 Z " fill="#131313" transform="translate(11,8)"/>
</svg>
