<?xml version="1.0" encoding="UTF-8"?>
<svg version="1.1" xmlns="http://www.w3.org/2000/svg" width="28" height="28">
<path d="M0,0 L28,0 L28,28 L0,28 Z " fill="#020202" transform="translate(0,0)"/>
<path d="M0,0 L5,1 L4,6 L1,12 L-4,17 L-5,20 L-7,20 L-6,15 L-2,10 L-6,9 L-5,4 Z " fill="#E1E1E1" transform="translate(16,6)"/>
<path d="M0,0 L2,0 L2,2 L9,0 L8,5 L2,11 L1,14 L-1,14 L0,9 L4,4 L0,3 Z " fill="#E6E6E6" transform="translate(10,12)"/>
<path d="M0,0 L4,0 L3,4 L-3,5 L-1,1 Z " fill="#1A1A1A" transform="translate(15,9)"/>
</svg>
