<?xml version="1.0" encoding="UTF-8"?>
<svg version="1.1" xmlns="http://www.w3.org/2000/svg" width="28" height="28">
<path d="M0,0 L28,0 L28,28 L0,28 Z " fill="#010101" transform="translate(0,0)"/>
<path d="M0,0 L4,0 L4,2 L0,4 L-1,7 L2,6 L4,4 L4,20 L2,20 L1,14 L2,9 L-3,8 L-3,3 Z " fill="#E1E1E1" transform="translate(13,6)"/>
<path d="M0,0 L4,1 L3,5 L1,5 L-2,5 L-1,1 Z " fill="#373737" transform="translate(14,8)"/>
<path d="M0,0 L2,0 L2,8 L0,8 L-1,2 Z " fill="#C9C9C9" transform="translate(15,18)"/>
</svg>
