<?xml version="1.0" encoding="UTF-8"?>
<svg version="1.1" xmlns="http://www.w3.org/2000/svg" width="28" height="28">
<path d="M0,0 L28,0 L28,28 L0,28 Z " fill="#010101" transform="translate(0,0)"/>
<path d="M0,0 L3,1 L3,3 L6,4 L5,20 L2,19 L2,12 L3,9 L-3,12 L-8,11 L-6,5 Z " fill="#EAEAEA" transform="translate(14,6)"/>
<path d="M0,0 L2,1 L2,2 L4,2 L3,6 L-2,11 L-6,10 L-4,4 Z " fill="#D1D1D1" transform="translate(12,7)"/>
<path d="M0,0 L2,1 L2,11 L-1,10 L-1,3 Z " fill="#C9C9C9" transform="translate(17,15)"/>
<path d="M0,0 L2,0 L1,4 L-2,6 L-5,6 L-5,4 Z " fill="#252525" transform="translate(14,9)"/>
</svg>
