<?xml version="1.0" encoding="UTF-8"?>
<svg version="1.1" xmlns="http://www.w3.org/2000/svg" width="28" height="28">
<path d="M0,0 L28,0 L28,28 L0,28 Z " fill="#010101" transform="translate(0,0)"/>
<path d="M0,0 L4,1 L6,3 L6,20 L2,19 L1,12 L-4,11 L-5,10 L-5,5 Z " fill="#E8E8E8" transform="translate(13,6)"/>
<path d="M0,0 L3,0 L4,5 L3,7 L3,16 L2,16 L1,9 L-4,8 L-5,7 L-5,2 L-4,6 L-2,6 L-1,1 Z " fill="#C9C9C9" transform="translate(13,9)"/>
<path d="M0,0 L3,0 L1,6 L-2,6 L-1,1 Z " fill="#131313" transform="translate(13,9)"/>
</svg>
