<?xml version="1.0" encoding="UTF-8"?>
<svg version="1.1" xmlns="http://www.w3.org/2000/svg" width="28" height="28">
<path d="M0,0 L28,0 L28,28 L0,28 Z " fill="#010101" transform="translate(0,0)"/>
<path d="M0,0 L6,0 L8,2 L9,14 L10,20 L8,20 L6,15 L6,11 L2,12 L-5,12 L-6,11 L-6,5 L-2,1 Z " fill="#D5D5D5" transform="translate(12,6)"/>
<path d="M0,0 L5,0 L6,4 L3,8 L-4,8 L-4,3 Z " fill="#0A0A0A" transform="translate(12,8)"/>
<path d="M0,0 L6,0 L8,2 L8,7 L6,7 L5,3 L0,2 Z " fill="#E5E5E5" transform="translate(12,6)"/>
<path d="M0,0 L2,0 L1,3 L-1,4 L-3,8 L-4,4 Z " fill="#CBCBCB" transform="translate(10,7)"/>
</svg>
