<?xml version="1.0" encoding="UTF-8"?>
<svg version="1.1" xmlns="http://www.w3.org/2000/svg" width="28" height="28">
<path d="M0,0 L28,0 L28,28 L0,28 Z " fill="#020202" transform="translate(0,0)"/>
<path d="M0,0 L6,1 L7,5 L10,5 L8,14 L7,20 L4,20 L5,11 L-1,10 L-3,7 L-2,2 Z " fill="#CFCFCF" transform="translate(10,6)"/>
<path d="M0,0 L4,0 L2,9 L1,15 L-2,15 L-1,6 L-5,6 L-4,3 L0,4 Z " fill="#E9E9E9" transform="translate(16,11)"/>
<path d="M0,0 L4,1 L4,5 L-1,4 Z " fill="#060606" transform="translate(11,9)"/>
<path d="M0,0 L3,1 L2,8 L-2,7 L1,7 L0,3 L-2,1 Z " fill="#B8B8B8" transform="translate(14,7)"/>
</svg>
