<?xml version="1.0" encoding="UTF-8"?>
<svg version="1.1" xmlns="http://www.w3.org/2000/svg" width="28" height="28">
<path d="M0,0 L28,0 L28,28 L0,28 Z " fill="#030303" transform="translate(0,0)"/>
<path d="M0,0 L6,0 L11,4 L10,9 L7,15 L5,20 L2,20 L4,11 L-4,11 L-6,9 L-5,4 Z " fill="#E0E0E0" transform="translate(11,6)"/>
<path d="M0,0 L5,1 L9,4 L8,9 L5,15 L3,20 L0,20 L1,13 L3,13 L3,10 L1,9 L3,7 L3,3 L0,2 Z " fill="#E8E8E8" transform="translate(13,6)"/>
<path d="M0,0 L5,0 L5,5 L-2,6 L-4,5 L-2,1 Z " fill="#111111" transform="translate(12,9)"/>
<path d="M0,0 L2,0 L2,2 L5,3 L-2,4 L-2,1 Z " fill="#C9C9C9" transform="translate(11,6)"/>
</svg>
