<?xml version="1.0" encoding="UTF-8"?>
<svg version="1.1" xmlns="http://www.w3.org/2000/svg" width="28" height="28">
<path d="M0,0 L28,0 L28,28 L0,28 Z " fill="#020202" transform="translate(0,0)"/>
<path d="M0,0 L5,0 L9,3 L11,2 L11,8 L10,9 L10,20 L8,20 L7,18 L7,11 L5,12 L-3,12 L-5,9 L-5,4 Z " fill="#DDDDDD" transform="translate(10,7)"/>
<path d="M0,0 L7,0 L9,3 L8,8 L-1,8 L-2,3 Z " fill="#0B0B0B" transform="translate(9,9)"/>
<path d="M0,0 L5,0 L6,2 L-1,3 L-2,9 L4,10 L4,11 L-3,12 L-5,9 L-5,4 Z " fill="#C5C5C5" transform="translate(10,7)"/>
</svg>
