<?xml version="1.0" encoding="UTF-8"?>
<svg version="1.1" xmlns="http://www.w3.org/2000/svg" width="28" height="28">
<path d="M0,0 L28,0 L28,28 L0,28 Z " fill="#030303" transform="translate(0,0)"/>
<path d="M0,0 L4,0 L4,8 L-2,20 L-4,20 L-3,16 L1,8 L-6,8 L-5,4 Z " fill="#F3F3F3" transform="translate(15,6)"/>
<path d="M0,0 L3,1 L-2,10 L-4,10 L-3,6 Z " fill="#E9E9E9" transform="translate(15,16)"/>
<path d="M0,0 L2,1 L-2,5 L-6,6 L-5,2 Z " fill="#7F7F7F" transform="translate(15,8)"/>
<path d="M0,0 L4,0 L4,5 L0,3 L-4,4 Z " fill="#DBDBDB" transform="translate(15,6)"/>
</svg>
