<?xml version="1.0" encoding="UTF-8"?>
<svg version="1.1" xmlns="http://www.w3.org/2000/svg" width="28" height="28">
<path d="M0,0 L28,0 L28,28 L0,28 Z " fill="#020202" transform="translate(0,0)"/>
<path d="M0,0 L5,1 L6,4 L8,4 L7,11 L5,17 L3,20 L0,20 L1,16 L3,10 L-5,10 L-6,6 L-5,3 Z " fill="#E5E5E5" transform="translate(12,6)"/>
<path d="M0,0 L1,2 L6,3 L6,5 L0,7 L0,9 L-4,8 L-3,2 Z " fill="#CFCFCF" transform="translate(10,7)"/>
<path d="M0,0 L4,1 L4,3 L-2,4 L-2,1 Z " fill="#080808" transform="translate(12,9)"/>
</svg>
