<?xml version="1.0" encoding="UTF-8"?>
<svg version="1.1" xmlns="http://www.w3.org/2000/svg" width="28" height="28">
<path d="M0,0 L28,0 L28,28 L0,28 Z " fill="#030303" transform="translate(0,0)"/>
<path d="M0,0 L8,0 L10,2 L10,5 L14,5 L13,11 L10,20 L8,20 L9,13 L9,10 L1,13 L-5,12 L-6,11 L-6,5 Z " fill="#D5D5D5" transform="translate(10,7)"/>
<path d="M0,0 L6,0 L7,1 L7,6 L0,9 L-5,8 L-4,3 Z " fill="#111111" transform="translate(11,9)"/>
<path d="M0,0 L3,0 L2,5 L0,3 L-4,5 L-2,1 Z " fill="#F5F5F5" transform="translate(21,12)"/>
</svg>
