<?xml version="1.0" encoding="UTF-8"?>
<svg version="1.1" xmlns="http://www.w3.org/2000/svg" width="28" height="28">
<path d="M0,0 L28,0 L28,28 L0,28 Z " fill="#020202" transform="translate(0,0)"/>
<path d="M0,0 L5,1 L6,6 L0,15 L-3,20 L-5,20 L-4,15 L-2,11 L-6,11 L-6,5 Z " fill="#D6D6D6" transform="translate(15,6)"/>
<path d="M0,0 L1,3 L7,0 L9,0 L8,4 L2,14 L0,14 L1,9 L3,5 L-1,5 Z " fill="#F5F5F5" transform="translate(10,12)"/>
<path d="M0,0 L4,0 L3,4 L0,6 L-3,6 L-1,1 Z " fill="#191919" transform="translate(14,9)"/>
<path d="M0,0 L3,2 L0,7 L-2,7 L-1,2 Z " fill="#D8D8D8" transform="translate(12,19)"/>
</svg>
