<?xml version="1.0" encoding="UTF-8"?>
<svg version="1.1" xmlns="http://www.w3.org/2000/svg" width="28" height="28">
<path d="M0,0 L28,0 L28,28 L0,28 Z " fill="#030303" transform="translate(0,0)"/>
<path d="M0,0 L4,0 L5,2 L5,8 L-2,19 L-5,20 L-3,15 L0,11 L-6,10 L-5,4 Z " fill="#D5D5D5" transform="translate(15,6)"/>
<path d="M0,0 L1,3 L-6,14 L-9,15 L-7,10 L-4,6 L-9,5 L-9,3 Z " fill="#E9E9E9" transform="translate(19,11)"/>
<path d="M0,0 L3,3 L-1,6 L-4,6 L-3,2 Z " fill="#2D2D2D" transform="translate(16,8)"/>
</svg>
