<?xml version="1.0" encoding="UTF-8"?>
<svg version="1.1" xmlns="http://www.w3.org/2000/svg" width="28" height="28">
<path d="M0,0 L28,0 L28,28 L0,28 Z " fill="#020202" transform="translate(0,0)"/>
<path d="M0,0 L5,0 L6,4 L4,11 L-1,19 L-4,19 L0,12 L1,10 L-10,11 L-9,6 L-4,2 Z " fill="#D4D4D4" transform="translate(15,7)"/>
<path d="M0,0 L3,1 L2,10 L-4,19 L-7,19 L-3,12 L-2,10 L-10,10 L-6,8 L-5,6 L0,4 L1,2 L-1,1 Z " fill="#E7E7E7" transform="translate(18,7)"/>
<path d="M0,0 L2,0 L0,4 L-5,7 L-10,7 L-10,5 Z " fill="#2A2A2A" transform="translate(17,9)"/>
</svg>
