<?xml version="1.0" encoding="UTF-8"?>
<svg version="1.1" xmlns="http://www.w3.org/2000/svg" width="28" height="28">
<path d="M0,0 L28,0 L28,28 L0,28 Z " fill="#020202" transform="translate(0,0)"/>
<path d="M0,0 L8,0 L8,8 L1,16 L-1,16 L-3,20 L-5,20 L-3,16 L2,10 L-6,8 L-5,3 Z " fill="#DFDFDF" transform="translate(13,6)"/>
<path d="M0,0 L7,0 L7,3 L3,5 L-3,5 L-3,2 Z " fill="#151515" transform="translate(13,8)"/>
<path d="M0,0 L6,1 L6,2 L-2,4 L-5,6 L-5,3 Z " fill="#C2C2C2" transform="translate(13,6)"/>
</svg>
