<?xml version="1.0" encoding="UTF-8"?>
<svg version="1.1" xmlns="http://www.w3.org/2000/svg" width="28" height="28">
<path d="M0,0 L28,0 L28,28 L0,28 Z " fill="#020202" transform="translate(0,0)"/>
<path d="M0,0 L4,1 L7,4 L8,9 L5,18 L1,20 L2,12 L4,8 L-3,9 L-4,8 L-4,3 Z " fill="#E4E4E4" transform="translate(12,6)"/>
<path d="M0,0 L3,1 L4,6 L1,15 L-3,17 L-2,9 L0,6 Z " fill="#E9E9E9" transform="translate(16,9)"/>
<path d="M0,0 L4,1 L5,3 L3,6 L-1,5 Z " fill="#AEAEAE" transform="translate(12,6)"/>
</svg>
