<?xml version="1.0" encoding="UTF-8"?>
<svg version="1.1" xmlns="http://www.w3.org/2000/svg" width="28" height="28">
<path d="M0,0 L28,0 L28,28 L0,28 Z " fill="#020202" transform="translate(0,0)"/>
<path d="M0,0 L5,0 L6,2 L2,3 L6,5 L6,8 L2,20 L0,20 L1,13 L3,8 L0,9 L-5,7 L-4,3 Z " fill="#4A4A4A" transform="translate(13,7)"/>
<path d="M0,0 L5,0 L6,2 L-3,4 L-1,8 L-5,7 L-4,3 Z " fill="#BCBCBC" transform="translate(13,7)"/>
<path d="M0,0 L2,1 L-2,13 L-4,13 L-3,6 Z " fill="#BABABA" transform="translate(17,14)"/>
</svg>
