<?xml version="1.0" encoding="UTF-8"?>
<svg version="1.1" xmlns="http://www.w3.org/2000/svg" width="28" height="28">
<path d="M0,0 L28,0 L28,28 L0,28 Z " fill="#030303" transform="translate(0,0)"/>
<path d="M0,0 L5,0 L6,1 L6,7 L-1,20 L-3,19 L3,7 L-1,9 L-6,9 L-5,5 Z " fill="#DCDCDC" transform="translate(14,7)"/>
<path d="M0,0 L4,0 L2,4 L-4,6 L-4,3 Z " fill="#141414" transform="translate(14,9)"/>
<path d="M0,0 L5,0 L6,3 L5,5 L3,4 L4,2 L-1,4 L-4,5 L-4,3 Z " fill="#C1C1C1" transform="translate(14,7)"/>
</svg>
