<?xml version="1.0" encoding="UTF-8"?>
<svg version="1.1" xmlns="http://www.w3.org/2000/svg" width="28" height="28">
<path d="M0,0 L28,0 L28,28 L0,28 Z " fill="#030303" transform="translate(0,0)"/>
<path d="M0,0 L6,1 L8,4 L7,20 L5,20 L4,18 L4,12 L-2,11 L-4,9 L-3,2 Z " fill="#D5D5D5" transform="translate(11,6)"/>
<path d="M0,0 L2,0 L1,15 L-1,15 L-2,13 L-2,6 L-5,5 L-1,4 Z " fill="#F0F0F0" transform="translate(17,11)"/>
<path d="M0,0 L6,0 L6,7 L1,6 L0,5 Z " fill="#0E0E0E" transform="translate(10,9)"/>
</svg>
