<?xml version="1.0" encoding="UTF-8"?>
<svg version="1.1" xmlns="http://www.w3.org/2000/svg" width="28" height="28">
<path d="M0,0 L28,0 L28,28 L0,28 Z " fill="#030303" transform="translate(0,0)"/>
<path d="M0,0 L4,1 L2,10 L-4,19 L-7,20 L-6,16 L-1,9 L-4,11 L-8,11 L-8,6 L-3,2 Z " fill="#E6E6E6" transform="translate(17,6)"/>
<path d="M0,0 L1,2 L5,1 L2,5 L-2,5 L-2,1 Z " fill="#F1F1F1" transform="translate(11,12)"/>
<path d="M0,0 L3,1 L6,0 L6,2 L2,5 L-3,4 Z " fill="#9F9F9F" transform="translate(12,9)"/>
</svg>
