<?xml version="1.0" encoding="UTF-8"?>
<svg version="1.1" xmlns="http://www.w3.org/2000/svg" width="28" height="28">
<path d="M0,0 L28,0 L28,28 L0,28 Z " fill="#010101" transform="translate(0,0)"/>
<path d="M0,0 L4,1 L5,8 L2,19 L-1,20 L0,13 L-5,14 L-6,13 L-5,6 Z " fill="#DEDEDE" transform="translate(14,5)"/>
<path d="M0,0 L2,2 L1,10 L-2,18 L-4,18 L-3,11 L-3,8 L-1,5 Z " fill="#E5E5E5" transform="translate(17,7)"/>
<path d="M0,0 L1,0 L1,7 L-2,10 L-5,10 L-4,4 Z " fill="#0C0C0C" transform="translate(15,7)"/>
<path d="M0,0 L4,1 L3,7 L1,3 L-2,3 Z " fill="#C1C1C1" transform="translate(14,5)"/>
</svg>
