<?xml version="1.0" encoding="UTF-8"?>
<svg version="1.1" xmlns="http://www.w3.org/2000/svg" width="28" height="28">
<path d="M0,0 L28,0 L28,28 L0,28 Z " fill="#030303" transform="translate(0,0)"/>
<path d="M0,0 L5,1 L5,3 L8,4 L7,8 L6,13 L8,14 L8,20 L4,20 L2,13 L-6,11 L-7,7 L-3,5 L-3,9 L2,9 L3,3 L-1,2 Z " fill="#F2F2F2" transform="translate(13,6)"/>
<path d="M0,0 L5,2 L4,8 L-1,8 L-2,5 L-4,6 L-2,2 Z " fill="#D2D2D2" transform="translate(11,7)"/>
<path d="M0,0 L1,4 L4,5 L6,7 L0,7 L-3,5 L-3,2 Z " fill="#DBDBDB" transform="translate(9,11)"/>
<path d="M0,0 L2,0 L2,5 L-3,5 L-2,1 Z " fill="#0C0C0C" transform="translate(13,10)"/>
</svg>
