<?xml version="1.0" encoding="UTF-8"?>
<svg version="1.1" xmlns="http://www.w3.org/2000/svg" width="28" height="28">
<path d="M0,0 L28,0 L28,28 L0,28 Z " fill="#020202" transform="translate(0,0)"/>
<path d="M0,0 L5,1 L7,3 L8,10 L7,19 L4,20 L4,12 L-1,12 L-4,8 L-2,1 Z " fill="#E5E5E5" transform="translate(11,6)"/>
<path d="M0,0 L5,1 L6,3 L2,11 L0,11 L0,7 L-2,7 L-3,9 L-4,6 L-2,1 Z " fill="#E1E1E1" transform="translate(11,6)"/>
<path d="M0,0 L4,0 L3,7 L0,8 Z " fill="#111111" transform="translate(11,9)"/>
<path d="M0,0 L2,2 L2,6 L0,6 L-1,8 L-2,5 Z " fill="#C0C0C0" transform="translate(9,7)"/>
</svg>
