<?xml version="1.0" encoding="UTF-8"?>
<svg version="1.1" xmlns="http://www.w3.org/2000/svg" width="28" height="28">
<path d="M0,0 L28,0 L28,28 L0,28 Z " fill="#020202" transform="translate(0,0)"/>
<path d="M0,0 L5,0 L7,4 L10,5 L10,20 L6,19 L6,11 L1,11 L-2,8 L-2,2 Z " fill="#E3E3E3" transform="translate(10,6)"/>
<path d="M0,0 L3,1 L3,16 L-1,15 L-1,7 L-4,7 L-4,5 L-2,4 Z " fill="#E3E3E3" transform="translate(17,10)"/>
<path d="M0,0 L2,0 L2,2 L5,2 L5,5 L0,4 Z " fill="#151515" transform="translate(11,9)"/>
</svg>
