<?xml version="1.0" encoding="UTF-8"?>
<svg version="1.1" xmlns="http://www.w3.org/2000/svg" width="28" height="28">
<path d="M0,0 L28,0 L28,28 L0,28 Z " fill="#020202" transform="translate(0,0)"/>
<path d="M0,0 L6,0 L8,2 L7,9 L3,19 L0,20 L1,14 L2,10 L-3,10 L-4,5 L-2,1 Z " fill="#ECECEC" transform="translate(12,6)"/>
<path d="M0,0 L7,1 L7,5 L5,6 L4,9 L-1,9 L-2,4 Z " fill="#E3E3E3" transform="translate(10,7)"/>
<path d="M0,0 L5,0 L5,3 L2,5 L-1,5 Z " fill="#171717" transform="translate(12,9)"/>
<path d="M0,0 L7,1 L7,2 L2,3 L0,7 L-1,1 Z " fill="#C1C1C1" transform="translate(10,7)"/>
</svg>
