<?xml version="1.0" encoding="UTF-8"?>
<svg version="1.1" xmlns="http://www.w3.org/2000/svg" width="28" height="28">
<path d="M0,0 L28,0 L28,28 L0,28 Z " fill="#020202" transform="translate(0,0)"/>
<path d="M0,0 L5,0 L4,3 L-1,3 L-1,5 L4,5 L3,13 L0,20 L-1,20 L0,12 L2,7 L-3,7 L-2,2 Z " fill="#E9E9E9" transform="translate(13,7)"/>
<path d="M0,0 L2,0 L3,4 L-1,14 L-2,14 L-1,6 Z " fill="#C7C7C7" transform="translate(14,13)"/>
<path d="M0,0 L1,3 L-6,4 L-6,2 Z " fill="#323232" transform="translate(18,8)"/>
</svg>
