<?xml version="1.0" encoding="UTF-8"?>
<svg version="1.1" xmlns="http://www.w3.org/2000/svg" width="28" height="28">
<path d="M0,0 L28,0 L28,28 L0,28 Z " fill="#030303" transform="translate(0,0)"/>
<path d="M0,0 L1,0 L1,5 L-2,10 L-6,17 L-9,17 L-7,12 L-5,8 L-10,8 L-9,1 L-6,2 L-8,6 L-2,3 Z " fill="#EAEAEA" transform="translate(19,9)"/>
<path d="M0,0 L5,0 L6,1 L6,6 L3,6 L-1,9 L-4,9 L-3,5 L-3,2 Z " fill="#CECECE" transform="translate(15,6)"/>
<path d="M0,0 L2,0 L1,5 L-2,7 L-5,7 L-4,3 Z " fill="#111111" transform="translate(16,8)"/>
</svg>
