<?xml version="1.0" encoding="UTF-8"?>
<svg version="1.1" xmlns="http://www.w3.org/2000/svg" width="28" height="28">
<path d="M0,0 L28,0 L28,28 L0,28 Z " fill="#050505" transform="translate(0,0)"/>
<path d="M0,0 L5,1 L5,7 L0,19 L-3,20 L-2,15 L0,11 L-3,12 L-5,11 L-5,5 Z " fill="#EEEEEE" transform="translate(14,6)"/>
<path d="M0,0 L2,1 L3,5 L-2,12 L-5,11 L-5,5 Z " fill="#DEDEDE" transform="translate(14,6)"/>
<path d="M0,0 L2,0 L1,5 L-3,6 L-2,2 Z " fill="#0E0E0E" transform="translate(14,9)"/>
</svg>
