<?xml version="1.0" encoding="UTF-8"?>
<svg version="1.1" xmlns="http://www.w3.org/2000/svg" width="28" height="28">
<path d="M0,0 L28,0 L28,28 L0,28 Z " fill="#020202" transform="translate(0,0)"/>
<path d="M0,0 L5,1 L6,2 L6,8 L0,17 L-2,20 L-4,20 L-3,15 L-2,13 L-7,12 L-6,6 Z " fill="#E9E9E9" transform="translate(15,6)"/>
<path d="M0,0 L5,1 L6,2 L6,8 L4,6 L-1,10 L-4,10 L-2,3 Z " fill="#D8D8D8" transform="translate(15,6)"/>
<path d="M0,0 L3,0 L1,5 L-1,7 L-4,7 L-2,2 Z " fill="#1C1C1C" transform="translate(15,9)"/>
</svg>
