<?xml version="1.0" encoding="UTF-8"?>
<svg version="1.1" xmlns="http://www.w3.org/2000/svg" width="28" height="28">
<path d="M0,0 L28,0 L28,28 L0,28 Z " fill="#020202" transform="translate(0,0)"/>
<path d="M0,0 L5,1 L6,2 L6,8 L-1,20 L-3,20 L-2,15 L-7,12 L-6,5 Z " fill="#E8E8E8" transform="translate(15,6)"/>
<path d="M0,0 L3,2 L1,6 L-1,6 L-2,9 L-5,9 L-4,4 Z " fill="#121212" transform="translate(16,8)"/>
<path d="M0,0 L3,1 L3,4 L6,5 L6,7 L1,6 L0,5 Z " fill="#C4C4C4" transform="translate(8,13)"/>
</svg>
