<?xml version="1.0" encoding="UTF-8"?>
<svg version="1.1" xmlns="http://www.w3.org/2000/svg" width="28" height="28">
<path d="M0,0 L28,0 L28,28 L0,28 Z " fill="#050505" transform="translate(0,0)"/>
<path d="M0,0 L6,0 L7,1 L7,13 L3,19 L2,20 L-3,20 L-4,16 L2,15 L4,10 L-3,12 L-8,12 L-9,11 L-9,6 L-5,4 L-5,2 Z " fill="#EDEDED" transform="translate(14,6)"/>
<path d="M0,0 L2,1 L1,3 L6,2 L7,5 L-3,9 L-1,11 L-6,11 L-7,10 L-7,5 L-3,3 L-3,1 Z " fill="#DEDEDE" transform="translate(12,7)"/>
<path d="M0,0 L4,1 L4,3 L-3,6 L-8,6 L-4,2 Z " fill="#1F1F1F" transform="translate(15,9)"/>
</svg>
