<?xml version="1.0" encoding="UTF-8"?>
<svg version="1.1" xmlns="http://www.w3.org/2000/svg" width="28" height="28">
<path d="M0,0 L28,0 L28,28 L0,28 Z " fill="#000000" transform="translate(0,0)"/>
<path d="M0,0 L5,1 L7,5 L6,10 L4,20 L2,20 L3,12 L-2,11 L-3,10 L-3,3 Z " fill="#D1D1D1" transform="translate(12,6)"/>
<path d="M0,0 L3,1 L4,7 L2,10 L-2,9 L-3,3 Z " fill="#0F0F0F" transform="translate(13,7)"/>
<path d="M0,0 L2,0 L2,2 L7,2 L8,8 L7,12 L5,12 L6,4 L1,3 Z " fill="#A8A8A8" transform="translate(9,14)"/>
</svg>
