<?xml version="1.0" encoding="UTF-8"?>
<svg version="1.1" xmlns="http://www.w3.org/2000/svg" width="28" height="28">
<path d="M0,0 L28,0 L28,28 L0,28 Z " fill="#020202" transform="translate(0,0)"/>
<path d="M0,0 L4,0 L6,4 L8,3 L7,8 L3,16 L2,20 L0,20 L1,12 L2,10 L-4,10 L-5,5 Z " fill="#E2E2E2" transform="translate(13,7)"/>
<path d="M0,0 L2,0 L2,6 L-4,7 L-3,2 Z " fill="#282828" transform="translate(14,9)"/>
<path d="M0,0 L3,1 L0,9 L-2,9 L-1,1 Z " fill="#C7C7C7" transform="translate(15,18)"/>
</svg>
