<?xml version="1.0" encoding="UTF-8"?>
<svg version="1.1" xmlns="http://www.w3.org/2000/svg" width="28" height="28">
<path d="M0,0 L28,0 L28,28 L0,28 Z " fill="#030303" transform="translate(0,0)"/>
<path d="M0,0 L5,1 L6,6 L5,9 L4,20 L1,20 L1,12 L-4,12 L-4,9 L1,9 L2,3 L-2,2 Z " fill="#F2F2F2" transform="translate(14,6)"/>
<path d="M0,0 L2,1 L1,2 L4,3 L3,9 L-3,10 L-4,6 L-2,1 Z " fill="#D7D7D7" transform="translate(12,6)"/>
<path d="M0,0 L3,0 L2,6 L-3,5 Z " fill="#121212" transform="translate(13,9)"/>
</svg>
