<?xml version="1.0" encoding="UTF-8"?>
<svg version="1.1" xmlns="http://www.w3.org/2000/svg" width="28" height="28">
<path d="M0,0 L28,0 L28,28 L0,28 Z " fill="#020202" transform="translate(0,0)"/>
<path d="M0,0 L5,1 L6,2 L6,8 L5,10 L3,10 L1,15 L-2,20 L-5,20 L-4,15 L-1,10 L-6,9 L-5,4 Z " fill="#D2D2D2" transform="translate(15,6)"/>
<path d="M0,0 L2,1 L1,4 L3,8 L-4,8 L-3,3 Z " fill="#F1F1F1" transform="translate(13,7)"/>
<path d="M0,0 L1,3 L-3,9 L-6,9 L-5,4 Z " fill="#ECECEC" transform="translate(16,17)"/>
</svg>
