<?xml version="1.0" encoding="UTF-8"?>
<svg version="1.1" xmlns="http://www.w3.org/2000/svg" width="28" height="28">
<path d="M0,0 L28,0 L28,28 L0,28 Z " fill="#010101" transform="translate(0,0)"/>
<path d="M0,0 L5,0 L5,6 L4,8 L6,8 L6,10 L3,13 L0,20 L-1,16 L0,12 L-4,11 L-4,5 Z " fill="#D7D7D7" transform="translate(14,6)"/>
<path d="M0,0 L3,0 L3,6 L2,8 L4,8 L4,10 L1,13 L-2,20 L-3,16 L-3,10 L0,7 Z " fill="#E4E4E4" transform="translate(16,6)"/>
<path d="M0,0 L2,0 L1,7 L-3,7 L-2,2 Z " fill="#1A1A1A" transform="translate(15,8)"/>
</svg>
