<?xml version="1.0" encoding="UTF-8"?>
<svg version="1.1" xmlns="http://www.w3.org/2000/svg" width="28" height="28">
<path d="M0,0 L28,0 L28,28 L0,28 Z " fill="#020202" transform="translate(0,0)"/>
<path d="M0,0 L4,1 L5,6 L2,20 L0,20 L0,14 L2,7 L-2,10 L-7,10 L-6,4 Z " fill="#C9C9C9" transform="translate(15,7)"/>
<path d="M0,0 L4,1 L3,5 L1,4 L2,2 L-4,6 L-7,6 L-2,1 Z " fill="#D3D3D3" transform="translate(15,7)"/>
<path d="M0,0 L2,0 L0,4 L-2,6 L-6,5 Z " fill="#1D1D1D" transform="translate(15,9)"/>
</svg>
