<?xml version="1.0" encoding="UTF-8"?>
<svg version="1.1" xmlns="http://www.w3.org/2000/svg" width="28" height="28">
<path d="M0,0 L28,0 L28,28 L0,28 Z " fill="#030303" transform="translate(0,0)"/>
<path d="M0,0 L6,1 L8,3 L8,10 L1,20 L-1,20 L1,16 L5,10 L5,7 L-1,11 L-6,11 L-6,3 Z " fill="#D6D6D6" transform="translate(13,7)"/>
<path d="M0,0 L4,1 L4,8 L-3,18 L-5,18 L-3,14 L1,8 L1,5 L-3,8 L-6,7 L-1,3 Z " fill="#D9D9D9" transform="translate(17,9)"/>
<path d="M0,0 L4,0 L3,4 L0,6 L-3,6 L-1,1 Z " fill="#111111" transform="translate(12,10)"/>
</svg>
