<?xml version="1.0" encoding="UTF-8"?>
<svg version="1.1" xmlns="http://www.w3.org/2000/svg" width="28" height="28">
<path d="M0,0 L28,0 L28,28 L0,28 Z " fill="#020202" transform="translate(0,0)"/>
<path d="M0,0 L4,1 L6,5 L5,18 L2,20 L2,9 L0,10 L-6,10 L-6,5 L-4,5 L-2,1 Z " fill="#E5E5E5" transform="translate(13,6)"/>
<path d="M0,0 L3,1 L3,6 L-2,8 L-5,8 L-6,10 L-6,5 L-4,5 L-2,1 Z " fill="#D7D7D7" transform="translate(13,6)"/>
<path d="M0,0 L4,0 L4,3 L-3,5 L-1,1 Z " fill="#1D1D1D" transform="translate(12,9)"/>
</svg>
