<?xml version="1.0" encoding="UTF-8"?>
<svg version="1.1" xmlns="http://www.w3.org/2000/svg" width="28" height="28">
<path d="M0,0 L28,0 L28,28 L0,28 Z " fill="#020202" transform="translate(0,0)"/>
<path d="M0,0 L3,0 L4,2 L7,3 L6,17 L3,20 L2,17 L4,10 L0,13 L-4,12 L-5,10 L-5,4 Z " fill="#DDDDDD" transform="translate(13,6)"/>
<path d="M0,0 L2,0 L2,3 L-4,7 L-3,2 Z " fill="#EBEBEB" transform="translate(13,6)"/>
<path d="M0,0 L2,1 L1,5 L-3,6 L-2,2 Z " fill="#262626" transform="translate(13,9)"/>
</svg>
