<?xml version="1.0" encoding="UTF-8"?>
<svg version="1.1" xmlns="http://www.w3.org/2000/svg" width="28" height="28">
<path d="M0,0 L28,0 L28,28 L0,28 Z " fill="#010101" transform="translate(0,0)"/>
<path d="M0,0 L4,1 L7,4 L9,10 L11,14 L10,19 L9,20 L1,20 L1,18 L3,17 L9,17 L6,10 L0,11 L-3,8 L-2,1 Z " fill="#E4E4E4" transform="translate(10,5)"/>
<path d="M0,0 L2,0 L4,4 L3,9 L2,10 L-6,10 L-6,8 L-4,7 L2,7 Z " fill="#CACACA" transform="translate(17,15)"/>
<path d="M0,0 L5,1 L6,6 L1,7 L-1,2 Z " fill="#1F1F1F" transform="translate(9,7)"/>
</svg>
