<?xml version="1.0" encoding="UTF-8"?>
<svg version="1.1" xmlns="http://www.w3.org/2000/svg" width="28" height="28">
<path d="M0,0 L28,0 L28,28 L0,28 Z " fill="#020202" transform="translate(0,0)"/>
<path d="M0,0 L6,1 L8,5 L7,13 L4,20 L2,20 L3,13 L4,12 L4,5 L-2,6 L-3,8 L3,7 L3,9 L-1,11 L-6,11 L-6,5 Z " fill="#E7E7E7" transform="translate(13,7)"/>
<path d="M0,0 L5,1 L5,8 L2,4 L-3,4 L-2,1 Z " fill="#212121" transform="translate(13,11)"/>
<path d="M0,0 L3,0 L2,5 L1,7 L-1,7 Z " fill="#D7D7D7" transform="translate(16,20)"/>
</svg>
