<?xml version="1.0" encoding="UTF-8"?>
<svg version="1.1" xmlns="http://www.w3.org/2000/svg" width="28" height="28">
<path d="M0,0 L28,0 L28,28 L0,28 Z " fill="#020202" transform="translate(0,0)"/>
<path d="M0,0 L2,0 L3,9 L-1,20 L-3,20 L-1,12 L0,10 L-5,12 L-10,12 L-9,8 L-6,4 L-4,4 L-4,2 Z " fill="#B3B3B3" transform="translate(17,5)"/>
<path d="M0,0 L3,0 L2,5 L-5,6 Z " fill="#111111" transform="translate(15,8)"/>
<path d="M0,0 L2,0 L0,9 L-1,11 L-3,11 L-1,3 Z " fill="#DBDBDB" transform="translate(17,14)"/>
<path d="M0,0 L2,1 L-2,5 L-2,8 L-5,8 L-4,3 Z " fill="#DFDFDF" transform="translate(13,8)"/>
</svg>
