<?xml version="1.0" encoding="UTF-8"?>
<svg version="1.1" xmlns="http://www.w3.org/2000/svg" width="28" height="28">
<path d="M0,0 L28,0 L28,28 L0,28 Z " fill="#020202" transform="translate(0,0)"/>
<path d="M0,0 L8,0 L11,5 L8,14 L4,20 L2,20 L3,15 L5,11 L-2,9 L-5,6 L-4,2 Z " fill="#EAEAEA" transform="translate(11,7)"/>
<path d="M0,0 L8,0 L10,4 L8,4 L8,6 L6,7 L0,7 L-2,6 L-2,3 L-4,2 Z " fill="#DBDBDB" transform="translate(11,7)"/>
<path d="M0,0 L7,0 L6,4 L0,4 Z " fill="#151515" transform="translate(11,10)"/>
</svg>
