<?xml version="1.0" encoding="UTF-8"?>
<svg version="1.1" xmlns="http://www.w3.org/2000/svg" width="28" height="28">
<path d="M0,0 L28,0 L28,28 L0,28 Z " fill="#030303" transform="translate(0,0)"/>
<path d="M0,0 L7,0 L13,3 L13,6 L11,6 L10,9 L2,16 L-3,20 L-2,16 L1,12 L3,12 L3,10 L-3,8 L-4,5 L-2,1 Z " fill="#E3E3E3" transform="translate(11,7)"/>
<path d="M0,0 L9,0 L9,3 L0,3 Z " fill="#131313" transform="translate(11,10)"/>
<path d="M0,0 L6,1 L10,5 L7,5 L4,3 L-2,2 Z " fill="#F5F5F5" transform="translate(15,7)"/>
<path d="M0,0 L4,1 L8,3 L-3,4 L-2,1 Z " fill="#C7C7C7" transform="translate(11,7)"/>
</svg>
