<?xml version="1.0" encoding="UTF-8"?>
<svg version="1.1" xmlns="http://www.w3.org/2000/svg" width="28" height="28">
<path d="M0,0 L28,0 L28,28 L0,28 Z " fill="#010101" transform="translate(0,0)"/>
<path d="M0,0 L5,0 L8,5 L7,20 L4,19 L4,9 L-2,10 L-4,9 L-3,3 Z " fill="#F0F0F0" transform="translate(11,7)"/>
<path d="M0,0 L5,0 L6,3 L1,8 L-4,9 L-3,3 Z " fill="#DADADA" transform="translate(11,7)"/>
<path d="M0,0 L2,0 L2,4 L4,4 L4,12 L1,11 Z " fill="#A7A7A7" transform="translate(14,15)"/>
<path d="M0,0 L3,0 L3,4 L-2,6 L-1,1 Z " fill="#1A1A1A" transform="translate(12,9)"/>
</svg>
