<?xml version="1.0" encoding="UTF-8"?>
<svg version="1.1" xmlns="http://www.w3.org/2000/svg" width="28" height="28">
<path d="M0,0 L28,0 L28,28 L0,28 Z " fill="#020202" transform="translate(0,0)"/>
<path d="M0,0 L6,0 L11,5 L12,6 L13,20 L11,20 L9,12 L3,13 L-1,10 L-1,1 Z " fill="#E6E6E6" transform="translate(8,6)"/>
<path d="M0,0 L6,0 L10,3 L10,5 L8,5 L7,9 L0,8 L-1,10 L-1,1 Z " fill="#E0E0E0" transform="translate(8,6)"/>
<path d="M0,0 L5,0 L6,5 L1,6 L0,5 Z " fill="#141414" transform="translate(10,9)"/>
</svg>
