<?xml version="1.0" encoding="UTF-8"?>
<svg version="1.1" xmlns="http://www.w3.org/2000/svg" width="28" height="28">
<path d="M0,0 L28,0 L28,28 L0,28 Z " fill="#020202" transform="translate(0,0)"/>
<path d="M0,0 L6,0 L7,4 L5,5 L5,3 L-1,3 L-1,6 L5,6 L4,13 L-1,20 L-3,20 L-3,17 L1,13 L3,8 L-4,7 L-4,2 Z " fill="#EEEEEE" transform="translate(13,7)"/>
<path d="M0,0 L6,0 L7,4 L5,5 L5,3 L-1,3 L-2,5 L-4,4 L-4,2 Z " fill="#CBCBCB" transform="translate(13,7)"/>
<path d="M0,0 L6,0 L7,6 L6,3 L0,3 Z " fill="#3A3A3A" transform="translate(12,10)"/>
</svg>
