<?xml version="1.0" encoding="UTF-8"?>
<svg version="1.1" xmlns="http://www.w3.org/2000/svg" width="28" height="28">
<path d="M0,0 L28,0 L28,28 L0,28 Z " fill="#010101" transform="translate(0,0)"/>
<path d="M0,0 L5,0 L7,2 L6,9 L4,16 L0,20 L-3,20 L-3,18 L-1,18 L1,14 L1,13 L-4,12 L-5,4 Z " fill="#EBEBEB" transform="translate(14,6)"/>
<path d="M0,0 L1,4 L-4,10 L-7,10 L-7,8 L-5,8 L-3,4 Z " fill="#D7D7D7" transform="translate(18,16)"/>
<path d="M0,0 L3,0 L1,5 L-4,4 L-3,1 Z " fill="#1D1D1D" transform="translate(16,9)"/>
</svg>
