<?xml version="1.0" encoding="UTF-8"?>
<svg version="1.1" xmlns="http://www.w3.org/2000/svg" width="28" height="28">
<path d="M0,0 L28,0 L28,28 L0,28 Z " fill="#030303" transform="translate(0,0)"/>
<path d="M0,0 L5,1 L6,6 L5,9 L3,9 L1,19 L-2,19 L-1,12 L-8,12 L-10,10 L-10,5 L-7,2 Z " fill="#DCDCDC" transform="translate(16,7)"/>
<path d="M0,0 L5,0 L4,4 L1,7 L-5,7 L-6,3 L-4,1 Z " fill="#0C0C0C" transform="translate(14,10)"/>
<path d="M0,0 L1,2 L-2,12 L-5,12 L-3,3 Z " fill="#E6E6E6" transform="translate(19,14)"/>
</svg>
