<?xml version="1.0" encoding="UTF-8"?>
<svg version="1.1" xmlns="http://www.w3.org/2000/svg" width="28" height="28">
<path d="M0,0 L28,0 L28,28 L0,28 Z " fill="#030303" transform="translate(0,0)"/>
<path d="M0,0 L6,1 L7,5 L4,17 L2,20 L0,20 L1,16 L3,11 L-8,11 L-9,7 L-6,2 Z " fill="#E2E2E2" transform="translate(15,7)"/>
<path d="M0,0 L1,2 L11,2 L11,11 L9,14 L7,14 L8,10 L10,5 L-1,5 L-2,1 Z " fill="#EAEAEA" transform="translate(8,13)"/>
<path d="M0,0 L3,1 L3,3 L-5,4 L-4,1 Z " fill="#191919" transform="translate(15,11)"/>
</svg>
