<?xml version="1.0" encoding="UTF-8"?>
<svg version="1.1" xmlns="http://www.w3.org/2000/svg" width="28" height="28">
<path d="M0,0 L28,0 L28,28 L0,28 Z " fill="#020202" transform="translate(0,0)"/>
<path d="M0,0 L6,1 L8,2 L8,5 L5,5 L5,3 L-2,4 L-1,7 L7,7 L8,8 L7,16 L5,20 L3,20 L5,10 L-3,10 L-5,9 L-4,2 Z " fill="#E2E2E2" transform="translate(12,7)"/>
<path d="M0,0 L5,0 L5,2 L7,3 L2,5 L-2,4 L-2,1 Z " fill="#191919" transform="translate(12,10)"/>
<path d="M0,0 L2,4 L0,10 L-2,10 Z " fill="#CDCDCD" transform="translate(17,17)"/>
</svg>
