<?xml version="1.0" encoding="UTF-8"?>
<svg version="1.1" xmlns="http://www.w3.org/2000/svg" width="28" height="28">
<path d="M0,0 L28,0 L28,28 L0,28 Z " fill="#030303" transform="translate(0,0)"/>
<path d="M0,0 L8,0 L10,4 L1,3 L-1,5 L-2,10 L9,7 L8,19 L5,20 L6,11 L3,13 L-3,13 L-5,12 L-5,5 Z " fill="#D8D8D8" transform="translate(11,6)"/>
<path d="M0,0 L2,0 L1,12 L-2,13 L-1,4 L-5,5 L-3,1 Z " fill="#EAEAEA" transform="translate(18,13)"/>
<path d="M0,0 L8,0 L10,4 L1,3 L-2,5 L-3,2 Z " fill="#DFDFDF" transform="translate(11,6)"/>
<path d="M0,0 L2,0 L2,6 L-1,8 L-1,1 Z " fill="#B0B0B0" transform="translate(7,10)"/>
</svg>
