<?xml version="1.0" encoding="UTF-8"?>
<svg version="1.1" xmlns="http://www.w3.org/2000/svg" width="28" height="28">
<path d="M0,0 L28,0 L28,28 L0,28 Z " fill="#030303" transform="translate(0,0)"/>
<path d="M0,0 L6,2 L9,8 L9,20 L6,20 L7,8 L5,8 L4,11 L-1,11 L-3,9 L-3,3 L-1,3 Z " fill="#BCBCBC" transform="translate(11,6)"/>
<path d="M0,0 L2,4 L2,11 L-1,11 Z " fill="#E9E9E9" transform="translate(18,15)"/>
<path d="M0,0 L5,1 L4,4 L-1,3 Z M-3,3 L-1,4 L-3,5 Z " fill="#D4D4D4" transform="translate(11,6)"/>
</svg>
