<?xml version="1.0" encoding="UTF-8"?>
<svg version="1.1" xmlns="http://www.w3.org/2000/svg" width="28" height="28">
<path d="M0,0 L28,0 L28,28 L0,28 Z " fill="#020202" transform="translate(0,0)"/>
<path d="M0,0 L5,0 L9,2 L6,13 L4,19 L1,20 L2,15 L3,10 L-4,11 L-6,6 L-2,1 Z " fill="#EDEDED" transform="translate(12,7)"/>
<path d="M0,0 L5,0 L3,5 L0,7 L-3,7 L-2,2 Z " fill="#0E0E0E" transform="translate(12,9)"/>
<path d="M0,0 L2,0 L0,7 L5,6 L4,9 L-1,9 L-3,4 Z " fill="#C5C5C5" transform="translate(9,9)"/>
<path d="M0,0 L3,0 L1,9 L-2,10 L-1,5 Z " fill="#D0D0D0" transform="translate(15,17)"/>
</svg>
