<?xml version="1.0" encoding="UTF-8"?>
<svg version="1.1" xmlns="http://www.w3.org/2000/svg" width="28" height="28">
<path d="M0,0 L28,0 L28,28 L0,28 Z " fill="#000000" transform="translate(0,0)"/>
<path d="M0,0 L5,0 L8,3 L9,10 L7,19 L4,20 L4,14 L-1,13 L-3,10 L-3,3 Z " fill="#DBDBDB" transform="translate(11,6)"/>
<path d="M0,0 L5,1 L5,6 L3,8 L-2,8 L-3,7 L-3,2 Z " fill="#0D0D0D" transform="translate(13,9)"/>
<path d="M0,0 L2,3 L3,7 L8,8 L9,17 L7,17 L7,11 L2,10 L0,7 Z " fill="#989898" transform="translate(8,9)"/>
</svg>
