<?xml version="1.0" encoding="UTF-8"?>
<svg version="1.1" xmlns="http://www.w3.org/2000/svg" width="28" height="28">
<path d="M0,0 L28,0 L28,28 L0,28 Z " fill="#010101" transform="translate(0,0)"/>
<path d="M0,0 L5,0 L7,2 L7,9 L4,8 L0,20 L-2,20 L-1,14 L-7,15 L-9,13 L-8,7 L-4,2 Z " fill="#DDDDDD" transform="translate(15,6)"/>
<path d="M0,0 L5,1 L5,3 L3,3 L1,8 L-3,11 L-7,11 L-7,6 Z " fill="#0D0D0D" transform="translate(15,8)"/>
<path d="M0,0 L5,0 L7,2 L7,9 L5,9 L4,6 L4,3 L-2,4 L-6,7 L-6,4 Z " fill="#B6B6B6" transform="translate(15,6)"/>
</svg>
