<?xml version="1.0" encoding="UTF-8"?>
<svg version="1.1" xmlns="http://www.w3.org/2000/svg" width="28" height="28">
<path d="M0,0 L28,0 L28,28 L0,28 Z " fill="#020202" transform="translate(0,0)"/>
<path d="M0,0 L6,0 L9,3 L8,20 L5,20 L4,12 L-5,10 L-6,5 Z " fill="#ECECEC" transform="translate(11,6)"/>
<path d="M0,0 L6,0 L6,4 L5,5 L-2,5 L-1,1 Z " fill="#0B0B0B" transform="translate(10,9)"/>
<path d="M0,0 L4,2 L4,3 L-2,5 L-3,8 L3,8 L3,9 L-5,10 L-6,5 Z " fill="#CECECE" transform="translate(11,6)"/>
</svg>
