<?xml version="1.0" encoding="UTF-8"?>
<svg version="1.1" xmlns="http://www.w3.org/2000/svg" width="28" height="28">
<path d="M0,0 L28,0 L28,28 L0,28 Z " fill="#010101" transform="translate(0,0)"/>
<path d="M0,0 L4,0 L4,2 L6,2 L4,6 L1,13 L0,20 L-2,20 L-2,12 L-1,9 L-4,9 L-3,2 Z " fill="#A2A2A2" transform="translate(14,7)"/>
<path d="M0,0 L4,0 L4,2 L6,3 L0,7 L-4,6 L-3,2 Z " fill="#D3D3D3" transform="translate(14,7)"/>
<path d="M0,0 L2,1 L-3,7 L-4,5 L-8,5 L-7,3 L-2,2 Z " fill="#EAEAEA" transform="translate(18,10)"/>
<path d="M0,0 L3,0 L2,4 L-3,5 L-1,1 Z " fill="#1F1F1F" transform="translate(14,9)"/>
</svg>
