<?xml version="1.0" encoding="UTF-8"?>
<svg version="1.1" xmlns="http://www.w3.org/2000/svg" width="28" height="28">
<path d="M0,0 L28,0 L28,28 L0,28 Z " fill="#010101" transform="translate(0,0)"/>
<path d="M0,0 L4,1 L6,5 L6,20 L4,17 L4,11 L-1,12 L-3,10 L-3,4 Z " fill="#B6B6B6" transform="translate(12,6)"/>
<path d="M0,0 L2,2 L2,17 L0,14 L0,8 L-5,9 L-6,6 L-1,5 Z " fill="#D2D2D2" transform="translate(16,9)"/>
<path d="M0,0 L4,1 L3,6 L0,7 L-1,6 L-1,1 Z " fill="#090909" transform="translate(12,9)"/>
</svg>
