<?xml version="1.0" encoding="UTF-8"?>
<svg version="1.1" xmlns="http://www.w3.org/2000/svg" width="28" height="28">
<path d="M0,0 L28,0 L28,28 L0,28 Z " fill="#030303" transform="translate(0,0)"/>
<path d="M0,0 L7,0 L9,2 L9,20 L6,20 L6,14 L-1,15 L-6,11 L-5,4 Z " fill="#CDCDCD" transform="translate(11,6)"/>
<path d="M0,0 L6,0 L6,3 L6,9 L5,10 L-1,10 L-3,8 L-3,3 Z " fill="#090909" transform="translate(11,8)"/>
<path d="M0,0 L2,3 L2,15 L-1,15 L-1,9 L-7,9 L-3,7 Z " fill="#ECECEC" transform="translate(18,11)"/>
</svg>
