<?xml version="1.0" encoding="UTF-8"?>
<svg version="1.1" xmlns="http://www.w3.org/2000/svg" width="28" height="28">
<path d="M0,0 L28,0 L28,28 L0,28 Z " fill="#030303" transform="translate(0,0)"/>
<path d="M0,0 L5,0 L4,3 L7,4 L7,7 L5,7 L3,11 L-2,16 L-4,19 L-7,19 L-5,15 L-2,14 L0,10 L1,8 L-4,10 L-9,10 L-8,6 L-3,1 Z " fill="#1B1B1B" transform="translate(16,6)"/>
<path d="M0,0 L3,0 L3,3 L1,3 L-1,7 L-6,12 L-8,15 L-11,15 L-9,11 L-6,10 L-4,6 L-1,3 Z " fill="#D0D0D0" transform="translate(20,10)"/>
<path d="M0,0 L5,0 L5,2 L-5,6 L-5,9 L-9,10 L-8,6 L-3,1 Z " fill="#CDCDCD" transform="translate(16,6)"/>
</svg>
