<?xml version="1.0" encoding="UTF-8"?>
<svg version="1.1" xmlns="http://www.w3.org/2000/svg" width="28" height="28">
<path d="M0,0 L28,0 L28,28 L0,28 Z " fill="#030303" transform="translate(0,0)"/>
<path d="M0,0 L4,0 L4,7 L-8,20 L-10,20 L-9,16 L-6,13 L-4,13 L-4,11 L-10,12 L-9,7 L-4,2 Z " fill="#E7E7E7" transform="translate(18,6)"/>
<path d="M0,0 L2,1 L1,6 L-4,9 L-7,8 L-6,4 Z " fill="#DDDDDD" transform="translate(18,6)"/>
<path d="M0,0 L0,3 L-5,6 L-8,5 L-3,1 Z " fill="#242424" transform="translate(19,9)"/>
</svg>
