<?xml version="1.0" encoding="UTF-8"?>
<svg version="1.1" xmlns="http://www.w3.org/2000/svg" width="28" height="28">
<path d="M0,0 L28,0 L28,28 L0,28 Z " fill="#030303" transform="translate(0,0)"/>
<path d="M0,0 L4,0 L3,6 L-1,10 L-3,10 L-5,15 L-8,18 L-10,18 L-10,20 L-12,20 L-11,16 L-6,11 L-12,12 L-11,7 L-5,2 Z " fill="#E9E9E9" transform="translate(19,6)"/>
<path d="M0,0 L2,1 L1,5 L-7,10 L-11,10 L-12,12 L-11,7 L-5,2 Z " fill="#D6D6D6" transform="translate(19,6)"/>
<path d="M0,0 L2,1 L-6,6 L-9,6 L-9,4 Z " fill="#1B1B1B" transform="translate(19,9)"/>
</svg>
