<?xml version="1.0" encoding="UTF-8"?>
<svg version="1.1" xmlns="http://www.w3.org/2000/svg" width="28" height="28">
<path d="M0,0 L28,0 L28,28 L0,28 Z " fill="#020202" transform="translate(0,0)"/>
<path d="M0,0 L6,0 L6,5 L-1,13 L-4,18 L-6,18 L-6,20 L-8,20 L-7,15 L-5,12 L-12,13 L-12,8 L-3,1 Z " fill="#E5E5E5" transform="translate(18,6)"/>
<path d="M0,0 L3,1 L-2,5 L-4,5 L-3,8 L-8,10 L-12,10 L-12,5 L-9,2 L-6,3 Z " fill="#D6D6D6" transform="translate(18,9)"/>
<path d="M0,0 L3,1 L-4,6 L-9,7 L-4,2 Z " fill="#2B2B2B" transform="translate(18,9)"/>
</svg>
