<?xml version="1.0" encoding="UTF-8"?>
<svg version="1.1" xmlns="http://www.w3.org/2000/svg" width="28" height="28">
<path d="M0,0 L28,0 L28,28 L0,28 Z " fill="#020202" transform="translate(0,0)"/>
<path d="M0,0 L9,0 L11,5 L10,12 L7,20 L4,19 L5,14 L8,7 L3,9 L-5,9 L-6,5 Z " fill="#D5D5D5" transform="translate(10,7)"/>
<path d="M0,0 L2,3 L1,10 L-2,18 L-5,17 L-4,12 L0,4 L-2,3 Z " fill="#E5E5E5" transform="translate(19,9)"/>
<path d="M0,0 L8,0 L8,3 L2,5 L-3,5 L-1,1 Z " fill="#0E0E0E" transform="translate(10,9)"/>
</svg>
