<?xml version="1.0" encoding="UTF-8"?>
<svg version="1.1" xmlns="http://www.w3.org/2000/svg" width="28" height="28">
<path d="M0,0 L28,0 L28,28 L0,28 Z " fill="#020202" transform="translate(0,0)"/>
<path d="M0,0 L5,0 L7,5 L0,17 L-1,20 L-3,20 L-2,15 L1,10 L-5,11 L-7,9 L-6,4 Z " fill="#CACACA" transform="translate(14,6)"/>
<path d="M0,0 L3,0 L2,6 L-1,8 L-6,8 L-5,3 Z " fill="#0F0F0F" transform="translate(15,7)"/>
<path d="M0,0 L2,4 L-2,10 L-4,7 Z " fill="#EFEFEF" transform="translate(19,7)"/>
</svg>
