<?xml version="1.0" encoding="UTF-8"?>
<svg version="1.1" xmlns="http://www.w3.org/2000/svg" width="28" height="28">
<path d="M0,0 L28,0 L28,28 L0,28 Z " fill="#030303" transform="translate(0,0)"/>
<path d="M0,0 L5,0 L6,5 L0,17 L-3,20 L-5,19 L0,11 L0,9 L-7,10 L-6,5 Z " fill="#D5D5D5" transform="translate(15,6)"/>
<path d="M0,0 L2,0 L2,6 L-3,14 L-7,16 L-2,7 L-2,5 L-9,6 L-9,3 L-7,3 L-7,5 L-1,1 Z " fill="#E4E4E4" transform="translate(17,10)"/>
<path d="M0,0 L4,1 L-1,5 L-6,7 L-4,3 Z " fill="#1D1D1D" transform="translate(16,8)"/>
</svg>
