<?xml version="1.0" encoding="UTF-8"?>
<svg version="1.1" xmlns="http://www.w3.org/2000/svg" width="28" height="28">
<path d="M0,0 L28,0 L28,28 L0,28 Z " fill="#030303" transform="translate(0,0)"/>
<path d="M0,0 L8,0 L10,1 L9,6 L1,17 L-1,20 L-5,19 L-2,14 L1,8 L-6,8 L-7,4 L-4,1 Z " fill="#E6E6E6" transform="translate(13,6)"/>
<path d="M0,0 L2,2 L-2,5 L-9,5 L-8,2 Z " fill="#0B0B0B" transform="translate(18,7)"/>
<path d="M0,0 L8,0 L5,2 L-5,5 L-7,7 L-6,3 L-4,1 Z " fill="#C7C7C7" transform="translate(13,6)"/>
</svg>
