<?xml version="1.0" encoding="UTF-8"?>
<svg version="1.1" xmlns="http://www.w3.org/2000/svg" width="28" height="28">
<path d="M0,0 L28,0 L28,28 L0,28 Z " fill="#030303" transform="translate(0,0)"/>
<path d="M0,0 L5,1 L9,2 L8,7 L3,20 L1,20 L2,12 L-6,13 L-7,12 L-6,5 Z " fill="#CBCBCB" transform="translate(13,6)"/>
<path d="M0,0 L6,0 L4,5 L0,7 L-6,7 L-4,3 Z " fill="#0D0D0D" transform="translate(13,9)"/>
<path d="M0,0 L4,0 L4,2 L-3,6 L-5,10 L-3,12 L-7,12 L-6,5 Z " fill="#E6E6E6" transform="translate(13,6)"/>
</svg>
