<?xml version="1.0" encoding="UTF-8"?>
<svg version="1.1" xmlns="http://www.w3.org/2000/svg" width="28" height="28">
<path d="M0,0 L28,0 L28,28 L0,28 Z " fill="#010101" transform="translate(0,0)"/>
<path d="M0,0 L5,1 L7,5 L5,17 L3,20 L1,20 L2,13 L-3,11 L-3,3 Z " fill="#EFEFEF" transform="translate(12,6)"/>
<path d="M0,0 L5,1 L6,4 L3,6 L2,9 L-1,8 L-3,3 Z " fill="#D5D5D5" transform="translate(12,6)"/>
<path d="M0,0 L1,2 L3,2 L1,7 L-1,7 Z " fill="#CACACA" transform="translate(14,19)"/>
<path d="M0,0 L2,0 L1,6 L-2,5 L-1,1 Z " fill="#0E0E0E" transform="translate(13,9)"/>
</svg>
