<?xml version="1.0" encoding="UTF-8"?>
<svg version="1.1" xmlns="http://www.w3.org/2000/svg" width="28" height="28">
<path d="M0,0 L28,0 L28,28 L0,28 Z " fill="#020202" transform="translate(0,0)"/>
<path d="M0,0 L7,0 L11,1 L9,20 L5,19 L6,10 L-3,11 L-5,9 L-5,4 Z " fill="#C9C9C9" transform="translate(10,7)"/>
<path d="M0,0 L7,0 L7,3 L0,4 L-2,9 L5,9 L2,11 L-3,11 L-5,9 L-5,4 Z " fill="#E1E1E1" transform="translate(10,7)"/>
<path d="M0,0 L5,1 L4,5 L3,6 L-3,6 L-3,2 Z " fill="#060606" transform="translate(12,9)"/>
<path d="M0,0 L2,0 L2,9 L-1,8 L-1,2 Z " fill="#E9E9E9" transform="translate(16,18)"/>
</svg>
