<?xml version="1.0" encoding="UTF-8"?>
<svg version="1.1" xmlns="http://www.w3.org/2000/svg" width="28" height="28">
<path d="M0,0 L28,0 L28,28 L0,28 Z " fill="#020202" transform="translate(0,0)"/>
<path d="M0,0 L3,1 L3,3 L6,3 L4,12 L1,18 L-1,18 L-1,20 L-3,20 L-3,16 L-1,16 L0,9 L-4,11 L-9,11 L-9,6 L-3,1 Z " fill="#DFDFDF" transform="translate(16,6)"/>
<path d="M0,0 L3,1 L3,3 L6,3 L5,9 L0,8 L2,3 L-4,6 L-7,9 L-4,9 L-4,11 L-9,11 L-9,6 L-3,1 Z M1,9 Z " fill="#E7E7E7" transform="translate(16,6)"/>
<path d="M0,0 L3,0 L1,4 L-5,5 Z " fill="#313131" transform="translate(15,9)"/>
<path d="M0,0 L1,2 L7,1 L9,3 L7,5 L7,3 L3,4 L0,3 Z " fill="#BABABA" transform="translate(9,12)"/>
</svg>
