<?xml version="1.0" encoding="UTF-8"?>
<svg version="1.1" xmlns="http://www.w3.org/2000/svg" width="28" height="28">
<path d="M0,0 L28,0 L28,28 L0,28 Z " fill="#020202" transform="translate(0,0)"/>
<path d="M0,0 L5,0 L7,2 L7,7 L0,20 L-2,20 L-1,14 L3,7 L-5,8 L-5,3 Z " fill="#E6E6E6" transform="translate(13,7)"/>
<path d="M0,0 L1,2 L-4,12 L-6,12 L-5,6 L-2,1 Z " fill="#DBDBDB" transform="translate(17,15)"/>
<path d="M0,0 L4,1 L2,3 L-4,4 L-4,2 Z " fill="#272727" transform="translate(14,9)"/>
</svg>
