<?xml version="1.0" encoding="UTF-8"?>
<svg version="1.1" xmlns="http://www.w3.org/2000/svg" width="28" height="28">
<path d="M0,0 L28,0 L28,28 L0,28 Z " fill="#030303" transform="translate(0,0)"/>
<path d="M0,0 L2,0 L2,2 L-6,7 L-8,10 L-3,8 L1,5 L4,5 L4,16 L6,16 L6,19 L1,20 L1,9 L-5,13 L-9,13 L-10,8 L-5,2 Z " fill="#E4E4E4" transform="translate(16,5)"/>
<path d="M0,0 L3,1 L0,6 L-4,6 L-2,2 Z " fill="#202020" transform="translate(12,9)"/>
<path d="M0,0 L2,3 L4,3 L4,6 L-1,7 Z " fill="#BDBDBD" transform="translate(18,18)"/>
<path d="M0,0 L2,0 L2,2 L-5,5 L-5,2 Z " fill="#CDCDCD" transform="translate(16,5)"/>
</svg>
