<?xml version="1.0" encoding="UTF-8"?>
<svg version="1.1" xmlns="http://www.w3.org/2000/svg" width="28" height="28">
<path d="M0,0 L28,0 L28,28 L0,28 Z " fill="#020202" transform="translate(0,0)"/>
<path d="M0,0 L5,1 L6,3 L6,9 L3,14 L1,20 L0,20 L0,12 L-2,13 L-8,13 L-10,12 L-9,7 L-4,1 Z " fill="#C7C7C7" transform="translate(15,6)"/>
<path d="M0,0 L3,0 L2,7 L0,8 L-8,8 L-5,3 Z " fill="#090909" transform="translate(15,8)"/>
<path d="M0,0 L5,1 L6,3 L6,9 L3,14 L1,20 L0,17 L0,9 L2,9 L3,2 L-2,2 Z " fill="#E1E1E1" transform="translate(15,6)"/>
</svg>
