<?xml version="1.0" encoding="UTF-8"?>
<svg version="1.1" xmlns="http://www.w3.org/2000/svg" width="28" height="28">
<path d="M0,0 L28,0 L28,28 L0,28 Z " fill="#030303" transform="translate(0,0)"/>
<path d="M0,0 L5,1 L8,4 L9,1 L13,1 L10,12 L10,19 L6,19 L5,12 L-3,12 L-5,10 L-4,4 Z " fill="#E5E5E5" transform="translate(10,6)"/>
<path d="M0,0 L2,1 L5,4 L5,7 L7,8 L5,12 L-3,12 L-5,10 L-4,4 Z " fill="#DBDBDB" transform="translate(10,6)"/>
<path d="M0,0 L3,2 L3,5 L5,6 L0,8 L-4,7 L-2,1 Z " fill="#131313" transform="translate(12,8)"/>
</svg>
