<?xml version="1.0" encoding="UTF-8"?>
<svg version="1.1" xmlns="http://www.w3.org/2000/svg" width="28" height="28">
<path d="M0,0 L28,0 L28,28 L0,28 Z " fill="#020202" transform="translate(0,0)"/>
<path d="M0,0 L2,2 L1,6 L8,4 L9,2 L11,2 L8,11 L7,19 L5,19 L5,12 L7,7 L1,8 L-1,6 L-1,1 Z " fill="#D7D7D7" transform="translate(9,8)"/>
<path d="M0,0 L6,0 L7,5 L4,7 L-1,7 L-1,1 Z " fill="#959595" transform="translate(11,7)"/>
<path d="M0,0 L6,0 L5,4 L0,4 Z " fill="#090909" transform="translate(10,10)"/>
</svg>
