<?xml version="1.0" encoding="UTF-8"?>
<svg version="1.1" xmlns="http://www.w3.org/2000/svg" width="28" height="28">
<path d="M0,0 L28,0 L28,28 L0,28 Z " fill="#030303" transform="translate(0,0)"/>
<path d="M0,0 L7,1 L6,6 L4,6 L2,10 L-7,20 L-9,20 L-7,16 L-2,10 L-7,8 L-6,4 L-3,1 Z " fill="#D0D0D0" transform="translate(15,7)"/>
<path d="M0,0 L5,0 L4,3 L0,5 L-5,5 L-3,1 Z " fill="#121212" transform="translate(15,9)"/>
<path d="M0,0 L2,1 L-4,8 L-6,8 L-4,4 Z " fill="#E9E9E9" transform="translate(12,19)"/>
</svg>
