<?xml version="1.0" encoding="UTF-8"?>
<svg version="1.1" xmlns="http://www.w3.org/2000/svg" width="28" height="28">
<path d="M0,0 L28,0 L28,28 L0,28 Z " fill="#030303" transform="translate(0,0)"/>
<path d="M0,0 L7,0 L9,2 L8,14 L6,18 L3,20 L-4,20 L-8,17 L-8,13 L-6,13 L-5,16 L2,17 L4,15 L4,10 L-2,11 L-5,8 L-4,2 Z " fill="#E3E3E3" transform="translate(13,5)"/>
<path d="M0,0 L5,0 L4,5 L1,7 L-4,6 L-4,2 Z " fill="#1E1E1E" transform="translate(14,7)"/>
<path d="M0,0 L7,0 L9,2 L8,14 L7,14 L6,2 L0,3 L-2,1 Z " fill="#D5D5D5" transform="translate(13,5)"/>
</svg>
