<?xml version="1.0" encoding="UTF-8"?>
<svg version="1.1" xmlns="http://www.w3.org/2000/svg" width="28" height="28">
<path d="M0,0 L28,0 L28,28 L0,28 Z " fill="#030303" transform="translate(0,0)"/>
<path d="M0,0 L5,1 L6,6 L-5,20 L-6,17 L-2,11 L-6,10 L-5,5 Z " fill="#CFCFCF" transform="translate(15,6)"/>
<path d="M0,0 L5,1 L4,3 L-1,4 L-4,10 L-2,11 L-6,10 L-5,5 Z " fill="#E8E8E8" transform="translate(15,6)"/>
<path d="M0,0 L3,1 L0,6 L-5,7 L-3,2 Z " fill="#161616" transform="translate(16,8)"/>
</svg>
