<?xml version="1.0" encoding="UTF-8"?>
<svg version="1.1" xmlns="http://www.w3.org/2000/svg" width="28" height="28">
<path d="M0,0 L28,0 L28,28 L0,28 Z " fill="#030303" transform="translate(0,0)"/>
<path d="M0,0 L4,0 L3,4 L-2,11 L-5,16 L-8,17 L-7,13 L-3,7 L-8,7 L-8,2 L-7,5 L0,3 Z " fill="#E6E6E6" transform="translate(17,9)"/>
<path d="M0,0 L5,0 L5,2 L8,3 L5,4 L4,7 L-3,8 L-4,4 Z " fill="#D0D0D0" transform="translate(13,6)"/>
<path d="M0,0 L2,0 L2,2 L4,2 L3,5 L-3,6 L-2,1 Z " fill="#101010" transform="translate(14,8)"/>
</svg>
