<?xml version="1.0" encoding="UTF-8"?>
<svg version="1.1" xmlns="http://www.w3.org/2000/svg" width="28" height="28">
<path d="M0,0 L28,0 L28,28 L0,28 Z " fill="#010101" transform="translate(0,0)"/>
<path d="M0,0 L5,0 L7,5 L7,8 L3,12 L-2,20 L-4,20 L-3,16 L0,11 L-4,11 L-5,6 Z " fill="#E5E5E5" transform="translate(14,6)"/>
<path d="M0,0 L5,1 L3,5 L-2,6 L-1,1 Z " fill="#111111" transform="translate(14,8)"/>
<path d="M0,0 L2,0 L1,5 L3,6 L3,9 L-1,8 L-2,3 Z " fill="#B6B6B6" transform="translate(11,9)"/>
</svg>
