<?xml version="1.0" encoding="UTF-8"?>
<svg version="1.1" xmlns="http://www.w3.org/2000/svg" width="28" height="28">
<path d="M0,0 L28,0 L28,28 L0,28 Z " fill="#020202" transform="translate(0,0)"/>
<path d="M0,0 L9,1 L10,6 L12,6 L11,16 L12,20 L9,20 L7,14 L0,12 L-4,8 L-3,2 Z " fill="#CECECE" transform="translate(9,6)"/>
<path d="M0,0 L7,0 L6,9 L1,9 L-2,6 L-1,1 Z " fill="#131313" transform="translate(10,8)"/>
<path d="M0,0 L6,0 L7,2 L0,4 L1,9 L7,11 L7,12 L0,12 L-4,8 L-3,2 Z " fill="#E7E7E7" transform="translate(9,6)"/>
</svg>
