<?xml version="1.0" encoding="UTF-8"?>
<svg version="1.1" xmlns="http://www.w3.org/2000/svg" width="28" height="28">
<path d="M0,0 L28,0 L28,28 L0,28 Z " fill="#020202" transform="translate(0,0)"/>
<path d="M0,0 L5,1 L6,6 L2,15 L0,20 L-1,20 L-1,14 L0,12 L-5,11 L-5,5 Z " fill="#DCDCDC" transform="translate(14,6)"/>
<path d="M0,0 L3,1 L3,4 L1,4 L0,7 L-5,7 L-3,2 Z " fill="#1C1C1C" transform="translate(15,8)"/>
<path d="M0,0 L5,0 L6,4 L4,9 L3,9 L3,3 L4,1 Z " fill="#BABABA" transform="translate(10,17)"/>
</svg>
