<?xml version="1.0" encoding="UTF-8"?>
<svg version="1.1" xmlns="http://www.w3.org/2000/svg" width="28" height="28">
<path d="M0,0 L28,0 L28,28 L0,28 Z " fill="#020202" transform="translate(0,0)"/>
<path d="M0,0 L8,0 L14,4 L14,7 L16,8 L10,18 L6,20 L8,14 L10,10 L2,10 L-2,6 L-1,1 Z " fill="#E5E5E5" transform="translate(7,7)"/>
<path d="M0,0 L7,2 L8,6 L0,6 L-3,4 L-2,1 Z " fill="#0C0C0C" transform="translate(10,9)"/>
<path d="M0,0 L8,0 L14,4 L14,6 L12,6 L11,8 L9,4 L2,3 L2,1 Z " fill="#CCCCCC" transform="translate(7,7)"/>
</svg>
