<?xml version="1.0" encoding="UTF-8"?>
<svg version="1.1" xmlns="http://www.w3.org/2000/svg" width="28" height="28">
<path d="M0,0 L28,0 L28,28 L0,28 Z " fill="#020202" transform="translate(0,0)"/>
<path d="M0,0 L5,0 L8,3 L6,7 L2,19 L-1,20 L0,16 L2,11 L-4,12 L-6,10 L-5,5 Z " fill="#E7E7E7" transform="translate(13,6)"/>
<path d="M0,0 L4,1 L1,6 L-1,8 L-5,8 L-4,3 Z " fill="#181818" transform="translate(14,8)"/>
<path d="M0,0 L5,0 L8,3 L6,7 L4,3 L-1,4 L-3,7 L-5,7 L-6,10 L-5,5 Z " fill="#CACACA" transform="translate(13,6)"/>
</svg>
