<?xml version="1.0" encoding="UTF-8"?>
<svg version="1.1" xmlns="http://www.w3.org/2000/svg" width="28" height="28">
<path d="M0,0 L28,0 L28,28 L0,28 Z " fill="#020202" transform="translate(0,0)"/>
<path d="M0,0 L6,0 L8,2 L9,8 L0,15 L-5,20 L-8,20 L-6,16 L-1,12 L-8,10 L-7,5 L-2,1 Z " fill="#DCDCDC" transform="translate(15,6)"/>
<path d="M0,0 L5,0 L5,5 L1,7 L-6,7 L-5,3 Z " fill="#0E0E0E" transform="translate(16,8)"/>
<path d="M0,0 L3,1 L0,5 L-3,5 L-1,1 Z " fill="#C8C8C8" transform="translate(10,21)"/>
</svg>
