<?xml version="1.0" encoding="UTF-8"?>
<svg version="1.1" xmlns="http://www.w3.org/2000/svg" width="28" height="28">
<path d="M0,0 L28,0 L28,28 L0,28 Z " fill="#010101" transform="translate(0,0)"/>
<path d="M0,0 L7,0 L9,4 L12,5 L12,7 L7,10 L-1,20 L-3,20 L-1,15 L3,10 L-3,10 L-4,9 L-4,4 Z " fill="#E8E8E8" transform="translate(12,6)"/>
<path d="M0,0 L5,0 L7,3 L3,5 L-3,5 L-1,1 Z " fill="#0B0B0B" transform="translate(13,8)"/>
<path d="M0,0 L7,0 L6,2 L0,4 L-4,6 L-2,2 Z " fill="#CACACA" transform="translate(12,6)"/>
</svg>
