<?xml version="1.0" encoding="UTF-8"?>
<svg version="1.1" xmlns="http://www.w3.org/2000/svg" width="28" height="28">
<path d="M0,0 L28,0 L28,28 L0,28 Z " fill="#020202" transform="translate(0,0)"/>
<path d="M0,0 L6,1 L9,6 L10,20 L7,20 L6,12 L-1,10 L-2,9 L-2,2 Z " fill="#C4C4C4" transform="translate(10,6)"/>
<path d="M0,0 L5,2 L7,6 L8,20 L5,20 L5,9 L3,8 L3,2 L-1,1 Z " fill="#E5E5E5" transform="translate(12,6)"/>
<path d="M0,0 L5,1 L5,4 L0,6 L-1,1 Z " fill="#111111" transform="translate(11,9)"/>
</svg>
