<?xml version="1.0" encoding="UTF-8"?>
<svg version="1.1" xmlns="http://www.w3.org/2000/svg" width="28" height="28">
<path d="M0,0 L28,0 L28,28 L0,28 Z " fill="#020202" transform="translate(0,0)"/>
<path d="M0,0 L7,0 L10,2 L9,7 L5,11 L3,11 L0,20 L-1,20 L-1,14 L1,10 L-2,10 L-2,3 Z " fill="#CCCCCC" transform="translate(12,7)"/>
<path d="M0,0 L5,1 L3,5 L-2,6 L-1,1 Z " fill="#070707" transform="translate(14,9)"/>
<path d="M0,0 Z M-2,1 L1,2 L-3,12 L-4,12 L-4,6 Z " fill="#E3E3E3" transform="translate(15,15)"/>
</svg>
