<?xml version="1.0" encoding="UTF-8"?>
<svg version="1.1" xmlns="http://www.w3.org/2000/svg" width="28" height="28">
<path d="M0,0 L28,0 L28,28 L0,28 Z " fill="#020202" transform="translate(0,0)"/>
<path d="M0,0 L4,1 L4,3 L-2,6 L-4,10 L2,8 L3,5 L5,5 L6,11 L6,19 L3,20 L3,11 L1,12 L-6,12 L-6,6 L-1,1 Z " fill="#E7E7E7" transform="translate(14,5)"/>
<path d="M0,0 L3,1 L1,2 L0,6 L-1,7 L-6,7 L-5,3 Z " fill="#202020" transform="translate(16,8)"/>
<path d="M0,0 L1,0 L1,8 L-2,9 L-2,3 Z " fill="#D0D0D0" transform="translate(19,16)"/>
</svg>
