<?xml version="1.0" encoding="UTF-8"?>
<svg version="1.1" xmlns="http://www.w3.org/2000/svg" width="28" height="28">
<path d="M0,0 L28,0 L28,28 L0,28 Z " fill="#010101" transform="translate(0,0)"/>
<path d="M0,0 L2,0 L5,5 L7,16 L7,20 L5,20 L3,15 L-2,15 L-5,12 L-5,4 L-3,1 Z " fill="#D5D5D5" transform="translate(13,5)"/>
<path d="M0,0 L4,1 L5,2 L5,9 L0,10 L-2,8 L-1,1 Z " fill="#151515" transform="translate(11,8)"/>
<path d="M0,0 L2,4 L7,5 L10,4 L12,9 L12,13 L10,13 L8,8 L3,8 L0,5 Z " fill="#DADADA" transform="translate(8,12)"/>
<path d="M0,0 L2,4 L2,9 L-1,7 L-1,1 Z " fill="#9F9F9F" transform="translate(17,10)"/>
</svg>
