<?xml version="1.0" encoding="UTF-8"?>
<svg version="1.1" xmlns="http://www.w3.org/2000/svg" width="28" height="28">
<path d="M0,0 L28,0 L28,28 L0,28 Z " fill="#020202" transform="translate(0,0)"/>
<path d="M0,0 L5,0 L7,2 L7,14 L6,17 L8,18 L4,20 L3,15 L3,11 L0,13 L-5,13 L-6,8 L-2,2 Z " fill="#E8E8E8" transform="translate(12,6)"/>
<path d="M0,0 L2,1 L1,2 L5,3 L3,7 L2,9 L0,9 L-1,13 L-6,12 L-5,6 Z " fill="#E0E0E0" transform="translate(12,6)"/>
<path d="M0,0 L4,0 L2,4 L-2,8 L-4,8 L-3,3 Z " fill="#141414" transform="translate(13,9)"/>
</svg>
