<?xml version="1.0" encoding="UTF-8"?>
<svg version="1.1" xmlns="http://www.w3.org/2000/svg" width="28" height="28">
<path d="M0,0 L28,0 L28,28 L0,28 Z " fill="#040404" transform="translate(0,0)"/>
<path d="M0,0 L7,1 L10,4 L9,13 L6,18 L2,20 L-2,20 L-3,15 L1,15 L1,17 L5,14 L6,11 L0,11 L-1,10 L-1,2 Z " fill="#ECECEC" transform="translate(11,5)"/>
<path d="M0,0 L2,2 L1,6 L-4,9 L-8,9 L-9,4 L-5,4 L-5,6 L-1,3 Z " fill="#E0E0E0" transform="translate(17,16)"/>
<path d="M0,0 L4,2 L5,7 L0,7 L-1,6 L-1,1 Z " fill="#0F0F0F" transform="translate(13,7)"/>
</svg>
