<?xml version="1.0" encoding="UTF-8"?>
<svg version="1.1" xmlns="http://www.w3.org/2000/svg" width="28" height="28">
<path d="M0,0 L28,0 L28,28 L0,28 Z " fill="#020202" transform="translate(0,0)"/>
<path d="M0,0 L4,0 L5,6 L4,9 L2,9 L0,18 L-1,20 L-3,20 L-1,10 L-5,9 L-4,3 Z " fill="#E9E9E9" transform="translate(15,6)"/>
<path d="M0,0 L4,0 L5,4 L-1,7 L-5,7 L-4,3 Z " fill="#E5E5E5" transform="translate(15,6)"/>
<path d="M0,0 L2,0 L3,4 L-4,7 L-3,4 L-1,2 Z " fill="#8D8D8D" transform="translate(17,6)"/>
</svg>
