<?xml version="1.0" encoding="UTF-8"?>
<svg version="1.1" xmlns="http://www.w3.org/2000/svg" width="28" height="28">
<path d="M0,0 L28,0 L28,28 L0,28 Z " fill="#010101" transform="translate(0,0)"/>
<path d="M0,0 L4,0 L3,3 L2,14 L-1,20 L-3,20 L-2,12 L-1,9 L-7,10 L-8,5 L-3,1 Z " fill="#9C9C9C" transform="translate(16,6)"/>
<path d="M0,0 L2,0 L2,7 L-1,13 L-3,13 L-2,5 Z " fill="#E2E2E2" transform="translate(16,13)"/>
<path d="M0,0 L4,1 L1,4 L4,6 L-2,8 L-3,3 Z " fill="#DFDFDF" transform="translate(11,8)"/>
</svg>
