<?xml version="1.0" encoding="UTF-8"?>
<svg version="1.1" xmlns="http://www.w3.org/2000/svg" width="28" height="28">
<path d="M0,0 L28,0 L28,28 L0,28 Z " fill="#010101" transform="translate(0,0)"/>
<path d="M0,0 L7,0 L10,3 L10,6 L7,9 L3,20 L0,20 L1,15 L2,13 L-6,14 L-8,12 L-8,7 L-3,2 Z " fill="#E3E3E3" transform="translate(13,6)"/>
<path d="M0,0 L6,0 L3,5 L1,5 L1,7 L-5,8 L-5,4 Z " fill="#121212" transform="translate(13,9)"/>
<path d="M0,0 L1,4 L5,5 L7,7 L2,7 L0,5 Z " fill="#BCBCBC" transform="translate(5,13)"/>
</svg>
