<?xml version="1.0" encoding="UTF-8"?>
<svg version="1.1" xmlns="http://www.w3.org/2000/svg" width="28" height="28">
<path d="M0,0 L28,0 L28,28 L0,28 Z " fill="#010101" transform="translate(0,0)"/>
<path d="M0,0 L4,1 L5,2 L5,7 L7,7 L9,20 L7,20 L5,14 L5,10 L-3,10 L-2,1 Z " fill="#B6B6B6" transform="translate(11,6)"/>
<path d="M0,0 L4,1 L3,5 L2,2 L0,3 L-2,8 L4,7 L6,9 L-3,10 L-2,1 Z " fill="#D7D7D7" transform="translate(11,6)"/>
<path d="M0,0 L2,0 L3,6 L-2,6 Z " fill="#0F0F0F" transform="translate(11,8)"/>
</svg>
