<?xml version="1.0" encoding="UTF-8"?>
<svg version="1.1" xmlns="http://www.w3.org/2000/svg" width="28" height="28">
<path d="M0,0 L28,0 L28,28 L0,28 Z " fill="#020202" transform="translate(0,0)"/>
<path d="M0,0 L7,1 L8,8 L4,19 L1,20 L2,15 L3,12 L-3,12 L-5,10 L-5,5 Z " fill="#E2E2E2" transform="translate(12,6)"/>
<path d="M0,0 L4,0 L5,5 L1,8 L-3,7 L-3,3 Z " fill="#101010" transform="translate(13,8)"/>
<path d="M0,0 L7,1 L8,5 L5,4 L5,2 L0,4 L-2,8 L0,12 L-4,11 L-5,10 L-5,5 Z " fill="#C2C2C2" transform="translate(12,6)"/>
</svg>
