<?xml version="1.0" encoding="UTF-8"?>
<svg version="1.1" xmlns="http://www.w3.org/2000/svg" width="28" height="28">
<path d="M0,0 L28,0 L28,28 L0,28 Z " fill="#030303" transform="translate(0,0)"/>
<path d="M0,0 L7,0 L11,4 L13,14 L13,18 L9,17 L7,8 L4,9 L-6,9 L-7,5 L-3,1 Z " fill="#D6D6D6" transform="translate(10,7)"/>
<path d="M0,0 L3,3 L5,13 L5,17 L1,16 L-1,7 L-7,7 L-3,3 Z " fill="#E8E8E8" transform="translate(18,8)"/>
<path d="M0,0 L5,0 L3,3 L-4,3 L-3,1 Z " fill="#121212" transform="translate(11,10)"/>
</svg>
