<?xml version="1.0" encoding="UTF-8"?>
<svg version="1.1" xmlns="http://www.w3.org/2000/svg" width="28" height="28">
<path d="M0,0 L28,0 L28,28 L0,28 Z " fill="#010101" transform="translate(0,0)"/>
<path d="M0,0 L6,0 L8,7 L5,19 L2,20 L3,12 L4,8 L-3,9 L-4,8 L-4,3 Z " fill="#C3C3C3" transform="translate(12,6)"/>
<path d="M0,0 L4,1 L5,7 L2,19 L-1,20 L0,12 L2,2 L-1,1 Z " fill="#E7E7E7" transform="translate(15,6)"/>
<path d="M0,0 L5,0 L5,4 L-3,5 L-1,1 Z " fill="#191919" transform="translate(12,8)"/>
</svg>
