<?xml version="1.0" encoding="UTF-8"?>
<svg version="1.1" xmlns="http://www.w3.org/2000/svg" width="28" height="28">
<path d="M0,0 L28,0 L28,28 L0,28 Z " fill="#020202" transform="translate(0,0)"/>
<path d="M0,0 L8,0 L11,1 L12,6 L5,17 L3,20 L-1,19 L9,5 L7,4 L8,2 L-1,3 L-1,5 L1,6 L-2,7 L-4,6 L-3,2 Z " fill="#E2E2E2" transform="translate(10,7)"/>
<path d="M0,0 L7,0 L5,4 L-1,5 L-2,1 Z " fill="#2D2D2D" transform="translate(11,9)"/>
<path d="M0,0 L2,1 L1,3 L-1,3 L-1,5 L1,6 L-2,7 L-4,6 L-3,2 Z " fill="#CACACA" transform="translate(10,7)"/>
</svg>
