<?xml version="1.0" encoding="UTF-8"?>
<svg version="1.1" xmlns="http://www.w3.org/2000/svg" width="28" height="28">
<path d="M0,0 L28,0 L28,28 L0,28 Z " fill="#030303" transform="translate(0,0)"/>
<path d="M0,0 L6,0 L8,1 L8,20 L5,19 L6,11 L-1,12 L-3,9 L-3,3 Z " fill="#EFEFEF" transform="translate(11,6)"/>
<path d="M0,0 L5,0 L4,5 L0,7 L-1,6 L-1,1 Z " fill="#0F0F0F" transform="translate(12,9)"/>
<path d="M0,0 L6,0 L6,3 L1,4 L-1,8 L-3,9 L-3,3 Z " fill="#C9C9C9" transform="translate(11,6)"/>
</svg>
