<?xml version="1.0" encoding="UTF-8"?>
<svg version="1.1" xmlns="http://www.w3.org/2000/svg" width="28" height="28">
<path d="M0,0 L28,0 L28,28 L0,28 Z " fill="#030303" transform="translate(0,0)"/>
<path d="M0,0 L5,1 L5,8 L6,9 L6,16 L3,19 L0,20 L-7,20 L-11,16 L-7,17 L3,17 L3,8 L-1,11 L-6,11 L-7,6 L-3,1 Z " fill="#EBEBEB" transform="translate(15,4)"/>
<path d="M0,0 L1,0 L1,7 L-2,10 L-5,11 L-12,11 L-16,7 L-12,8 L-2,8 Z " fill="#E0E0E0" transform="translate(20,13)"/>
<path d="M0,0 L3,0 L3,3 L0,3 L-1,7 L-5,7 L-4,3 Z " fill="#1F1F1F" transform="translate(15,6)"/>
<path d="M0,0 L5,1 L4,5 L4,2 L-2,4 L-4,2 Z " fill="#CDCDCD" transform="translate(15,4)"/>
<path d="M0,0 L1,0 L1,7 L-3,10 L-5,8 L-2,8 Z " fill="#C3C3C3" transform="translate(20,13)"/>
</svg>
