<?xml version="1.0" encoding="UTF-8"?>
<svg version="1.1" xmlns="http://www.w3.org/2000/svg" width="28" height="28">
<path d="M0,0 L28,0 L28,28 L0,28 Z " fill="#020202" transform="translate(0,0)"/>
<path d="M0,0 L9,0 L14,3 L13,8 L7,17 L5,20 L3,20 L4,14 L-2,13 L-4,11 L-4,3 Z " fill="#E7E7E7" transform="translate(10,6)"/>
<path d="M0,0 L11,0 L9,5 L4,8 L-1,8 L-1,1 Z " fill="#060606" transform="translate(10,9)"/>
<path d="M0,0 L9,0 L9,3 L0,4 L-1,10 L-2,10 L-3,5 L-3,2 Z " fill="#BBBBBB" transform="translate(10,6)"/>
</svg>
