<?xml version="1.0" encoding="UTF-8"?>
<svg version="1.1" xmlns="http://www.w3.org/2000/svg" width="28" height="28">
<path d="M0,0 L28,0 L28,28 L0,28 Z " fill="#030303" transform="translate(0,0)"/>
<path d="M0,0 L5,1 L8,4 L6,17 L4,20 L3,16 L4,10 L2,11 L-4,11 L-4,5 Z " fill="#E5E5E5" transform="translate(12,7)"/>
<path d="M0,0 L4,2 L4,5 L0,7 L-3,7 L-2,2 Z " fill="#0E0E0E" transform="translate(13,9)"/>
<path d="M0,0 L2,0 L1,2 Z M-1,1 Z M-3,2 L-1,3 L-1,8 L-2,5 L-4,6 L-10,6 L-9,4 Z " fill="#BFBFBF" transform="translate(18,12)"/>
</svg>
