<?xml version="1.0" encoding="UTF-8"?>
<svg version="1.1" xmlns="http://www.w3.org/2000/svg" width="28" height="28">
<path d="M0,0 L28,0 L28,28 L0,28 Z " fill="#020202" transform="translate(0,0)"/>
<path d="M0,0 L5,1 L8,5 L8,12 L5,20 L3,20 L5,11 L0,12 L-2,10 L-2,2 Z " fill="#121212" transform="translate(11,6)"/>
<path d="M0,0 L1,0 L1,7 L-2,15 L-4,15 L-2,3 Z " fill="#E2E2E2" transform="translate(18,11)"/>
<path d="M0,0 L5,1 L7,4 L1,3 L0,4 L0,9 L0,12 L-2,10 L-2,2 Z " fill="#D7D7D7" transform="translate(11,6)"/>
</svg>
