<?xml version="1.0" encoding="UTF-8"?>
<svg version="1.1" xmlns="http://www.w3.org/2000/svg" width="28" height="28">
<path d="M0,0 L28,0 L28,28 L0,28 Z " fill="#010101" transform="translate(0,0)"/>
<path d="M0,0 L5,1 L7,4 L7,20 L4,19 L4,11 L-1,13 L-4,10 L-4,5 Z " fill="#EDEDED" transform="translate(12,6)"/>
<path d="M0,0 L4,1 L3,8 L-1,9 L-2,8 L-1,1 Z " fill="#0E0E0E" transform="translate(12,8)"/>
<path d="M0,0 L5,1 L3,3 L0,3 L-1,10 L4,10 L1,13 L-3,12 L-4,5 Z " fill="#BEBEBE" transform="translate(12,6)"/>
<path d="M0,0 L1,0 L2,11 L-1,10 Z " fill="#BABABA" transform="translate(17,15)"/>
</svg>
