<?xml version="1.0" encoding="UTF-8"?>
<svg version="1.1" xmlns="http://www.w3.org/2000/svg" width="28" height="28">
<path d="M0,0 L28,0 L28,28 L0,28 Z " fill="#010101" transform="translate(0,0)"/>
<path d="M0,0 L7,1 L8,5 L6,5 L6,3 L-1,4 L-2,8 L5,6 L4,14 L2,20 L-1,19 L2,10 L-3,10 L-4,9 L-4,4 Z " fill="#C2C2C2" transform="translate(13,6)"/>
<path d="M0,0 L2,0 L1,8 L-1,14 L-4,13 L-2,6 L0,6 Z " fill="#DCDCDC" transform="translate(16,12)"/>
<path d="M0,0 L1,3 L6,2 L6,7 L5,5 L0,5 L-1,2 Z " fill="#7D7D7D" transform="translate(10,11)"/>
</svg>
