<?xml version="1.0" encoding="UTF-8"?>
<svg version="1.1" xmlns="http://www.w3.org/2000/svg" width="28" height="28">
<path d="M0,0 L28,0 L28,28 L0,28 Z " fill="#010101" transform="translate(0,0)"/>
<path d="M0,0 L7,0 L6,12 L4,20 L2,20 L2,12 L-5,13 L-8,9 L-7,4 Z " fill="#D0D0D0" transform="translate(14,7)"/>
<path d="M0,0 L7,0 L6,4 L4,4 L4,2 L-4,6 L-5,10 L-1,12 L-6,11 L-8,9 L-7,4 Z " fill="#E1E1E1" transform="translate(14,7)"/>
<path d="M0,0 L2,0 L2,5 L-3,9 L-7,8 L-6,3 Z " fill="#171717" transform="translate(16,9)"/>
<path d="M0,0 L1,0 L1,10 L0,12 L-2,12 L-2,2 Z " fill="#E8E8E8" transform="translate(18,15)"/>
</svg>
