<?xml version="1.0" encoding="UTF-8"?>
<svg version="1.1" xmlns="http://www.w3.org/2000/svg" width="28" height="28">
<path d="M0,0 L28,0 L28,28 L0,28 Z " fill="#000000" transform="translate(0,0)"/>
<path d="M0,0 L5,0 L8,3 L8,20 L5,20 L5,4 L-2,4 L-2,7 L2,9 L-1,10 L-4,7 L-4,2 Z " fill="#CCCCCC" transform="translate(11,7)"/>
<path d="M0,0 L5,0 L6,5 L4,8 L1,7 L-2,4 L-2,1 Z " fill="#1B1B1B" transform="translate(11,10)"/>
<path d="M0,0 L5,1 L6,2 L6,7 L4,6 L2,2 Z " fill="#F7F7F7" transform="translate(13,8)"/>
</svg>
