<?xml version="1.0" encoding="UTF-8"?>
<svg version="1.1" xmlns="http://www.w3.org/2000/svg" width="28" height="28">
<path d="M0,0 L28,0 L28,28 L0,28 Z " fill="#020202" transform="translate(0,0)"/>
<path d="M0,0 L6,0 L7,1 L7,6 L-2,16 L-4,20 L-8,19 L-7,17 L-5,17 L-5,15 L-9,13 L-9,7 Z " fill="#E1E1E1" transform="translate(16,6)"/>
<path d="M0,0 L4,0 L2,5 L-3,9 L-9,10 L-8,6 L-2,1 Z " fill="#141414" transform="translate(17,8)"/>
<path d="M0,0 L4,0 L4,6 L-1,7 L0,4 L2,4 L2,2 Z " fill="#CFCFCF" transform="translate(9,19)"/>
</svg>
