<?xml version="1.0" encoding="UTF-8"?>
<svg version="1.1" xmlns="http://www.w3.org/2000/svg" width="28" height="28">
<path d="M0,0 L28,0 L28,28 L0,28 Z " fill="#000000" transform="translate(0,0)"/>
<path d="M0,0 L6,0 L10,3 L10,5 L12,5 L11,19 L13,20 L9,20 L8,12 L0,12 L-3,9 L-2,2 Z " fill="#D9D9D9" transform="translate(9,7)"/>
<path d="M0,0 L6,1 L8,7 L5,9 L-1,8 L-2,2 Z " fill="#080808" transform="translate(10,9)"/>
<path d="M0,0 L2,1 L0,4 L0,10 L6,10 L9,9 L10,10 L10,20 L9,20 L8,12 L0,12 L-3,9 L-2,2 Z " fill="#BBBBBB" transform="translate(9,7)"/>
</svg>
