<?xml version="1.0" encoding="UTF-8"?>
<svg version="1.1" xmlns="http://www.w3.org/2000/svg" width="28" height="28">
<path d="M0,0 L28,0 L28,28 L0,28 Z " fill="#020202" transform="translate(0,0)"/>
<path d="M0,0 L6,0 L7,2 L2,2 L2,7 L6,6 L7,3 L10,3 L11,20 L8,20 L7,9 L1,9 L-1,7 Z " fill="#D9D9D9" transform="translate(9,6)"/>
<path d="M0,0 L7,0 L5,1 L4,5 L0,5 Z " fill="#222222" transform="translate(11,8)"/>
<path d="M0,0 L1,0 L3,14 L0,14 L-1,1 Z " fill="#F2F2F2" transform="translate(17,12)"/>
</svg>
