<?xml version="1.0" encoding="UTF-8"?>
<svg version="1.1" xmlns="http://www.w3.org/2000/svg" width="28" height="28">
<path d="M0,0 L28,0 L28,28 L0,28 Z " fill="#020202" transform="translate(0,0)"/>
<path d="M0,0 L4,0 L4,14 L3,17 L-1,20 L-4,19 L-3,16 L0,16 L1,12 L-6,12 L-6,5 L-3,1 Z " fill="#F0F0F0" transform="translate(15,6)"/>
<path d="M0,0 L4,0 L4,14 L3,14 L2,6 L-2,10 L-4,10 L-4,5 L-4,2 Z " fill="#E0E0E0" transform="translate(15,6)"/>
<path d="M0,0 L2,0 L1,6 L-3,7 L-2,2 Z " fill="#202020" transform="translate(14,9)"/>
</svg>
