<?xml version="1.0" encoding="UTF-8"?>
<svg version="1.1" xmlns="http://www.w3.org/2000/svg" width="28" height="28">
<path d="M0,0 L28,0 L28,28 L0,28 Z " fill="#050505" transform="translate(0,0)"/>
<path d="M0,0 L5,0 L10,4 L10,19 L7,20 L7,10 L1,12 L-5,12 L-6,11 L-6,5 Z " fill="#EBEBEB" transform="translate(11,6)"/>
<path d="M0,0 L5,0 L7,4 L3,7 L-3,7 L-2,2 Z " fill="#121212" transform="translate(10,9)"/>
<path d="M0,0 L5,0 L7,2 L6,6 L1,3 L-2,1 Z " fill="#D0D0D0" transform="translate(11,6)"/>
</svg>
