<?xml version="1.0" encoding="UTF-8"?>
<svg version="1.1" xmlns="http://www.w3.org/2000/svg" width="28" height="28">
<path d="M0,0 L28,0 L28,28 L0,28 Z " fill="#010101" transform="translate(0,0)"/>
<path d="M0,0 L7,0 L6,18 L5,20 L2,20 L2,14 L-3,13 L-4,12 L-4,4 Z " fill="#E3E3E3" transform="translate(12,6)"/>
<path d="M0,0 L2,0 L2,5 L0,7 L2,9 L-3,10 L-5,8 L-5,3 Z " fill="#DFDFDF" transform="translate(13,10)"/>
<path d="M0,0 L2,0 L2,5 L-2,6 L-2,2 Z " fill="#191919" transform="translate(13,10)"/>
</svg>
