<?xml version="1.0" encoding="UTF-8"?>
<svg version="1.1" xmlns="http://www.w3.org/2000/svg" width="28" height="28">
<path d="M0,0 L28,0 L28,28 L0,28 Z " fill="#010101" transform="translate(0,0)"/>
<path d="M0,0 L7,1 L8,5 L6,19 L2,20 L3,12 L-3,13 L-4,11 L-4,5 Z " fill="#E9E9E9" transform="translate(12,6)"/>
<path d="M0,0 L2,1 L1,3 L5,3 L3,9 L1,9 L1,13 L-3,13 L-4,11 L-4,5 Z " fill="#DDDDDD" transform="translate(12,6)"/>
<path d="M0,0 L4,0 L2,6 L-1,7 L-2,4 Z " fill="#2F2F2F" transform="translate(13,9)"/>
</svg>
