<?xml version="1.0" encoding="UTF-8"?>
<svg version="1.1" xmlns="http://www.w3.org/2000/svg" width="28" height="28">
<path d="M0,0 L28,0 L28,28 L0,28 Z " fill="#020202" transform="translate(0,0)"/>
<path d="M0,0 L4,1 L5,6 L-1,20 L-3,20 L-2,15 L-1,11 L-4,13 L-9,12 L-8,7 L-3,1 Z " fill="#DBDBDB" transform="translate(16,6)"/>
<path d="M0,0 L3,0 L2,5 L-3,9 L-5,9 L-4,3 L-2,3 L-2,1 Z " fill="#101010" transform="translate(15,8)"/>
<path d="M0,0 L4,1 L3,6 L2,2 L-3,3 L-3,5 L-5,5 L-6,11 L-8,7 L-3,1 Z " fill="#BEBEBE" transform="translate(16,6)"/>
</svg>
