<?xml version="1.0" encoding="UTF-8"?>
<svg version="1.1" xmlns="http://www.w3.org/2000/svg" width="28" height="28">
<path d="M0,0 L28,0 L28,28 L0,28 Z " fill="#030303" transform="translate(0,0)"/>
<path d="M0,0 L3,1 L3,15 L1,19 L-6,18 L-6,17 L-1,16 L1,10 L-5,11 L-7,9 L-7,3 L-4,2 L-4,9 L0,8 Z " fill="#F0F0F0" transform="translate(16,7)"/>
<path d="M0,0 L5,0 L4,9 L0,10 L-1,4 L-2,2 L0,2 Z " fill="#C7C7C7" transform="translate(12,6)"/>
<path d="M0,0 L1,4 L-1,8 L-8,7 L-8,6 L-3,5 Z " fill="#CFCFCF" transform="translate(18,18)"/>
<path d="M0,0 L1,0 L1,7 L-2,8 L-2,2 Z " fill="#0B0B0B" transform="translate(14,8)"/>
</svg>
