<?xml version="1.0" encoding="UTF-8"?>
<svg version="1.1" xmlns="http://www.w3.org/2000/svg" width="28" height="28">
<path d="M0,0 L28,0 L28,28 L0,28 Z " fill="#020202" transform="translate(0,0)"/>
<path d="M0,0 L5,0 L6,1 L5,11 L0,20 L-2,20 L-1,15 L0,11 L-5,10 L-5,4 Z " fill="#D6D6D6" transform="translate(14,6)"/>
<path d="M0,0 L3,1 L2,11 L-3,20 L-5,20 L-4,15 L-2,11 L-5,9 L-1,8 L1,3 L-1,1 Z " fill="#E4E4E4" transform="translate(17,6)"/>
<path d="M0,0 L4,1 L1,6 L-4,6 L-3,2 Z " fill="#161616" transform="translate(15,8)"/>
</svg>
