<?xml version="1.0" encoding="UTF-8"?>
<svg version="1.1" xmlns="http://www.w3.org/2000/svg" width="28" height="28">
<path d="M0,0 L28,0 L28,28 L0,28 Z " fill="#010101" transform="translate(0,0)"/>
<path d="M0,0 L5,0 L7,5 L0,20 L-2,20 L-1,15 L0,12 L-5,13 L-7,11 L-6,5 Z " fill="#D4D4D4" transform="translate(14,6)"/>
<path d="M0,0 L3,0 L4,4 L0,13 L-4,10 L-4,8 L-2,8 L0,4 Z " fill="#E3E3E3" transform="translate(17,7)"/>
<path d="M0,0 L3,0 L2,4 L-2,8 L-5,8 L-4,3 Z " fill="#111111" transform="translate(15,8)"/>
</svg>
