<?xml version="1.0" encoding="UTF-8"?>
<svg version="1.1" xmlns="http://www.w3.org/2000/svg" width="28" height="28">
<path d="M0,0 L28,0 L28,28 L0,28 Z " fill="#010101" transform="translate(0,0)"/>
<path d="M0,0 L5,1 L8,2 L6,9 L4,16 L3,20 L1,20 L1,13 L3,7 L-5,8 L-6,3 L-4,1 Z " fill="#DDDDDD" transform="translate(13,8)"/>
<path d="M0,0 L5,1 L8,3 L1,5 L-4,6 L-4,2 Z " fill="#797979" transform="translate(13,8)"/>
<path d="M0,0 L3,0 L0,13 L-2,13 L-2,6 Z " fill="#BCBCBC" transform="translate(16,15)"/>
</svg>
