<?xml version="1.0" encoding="UTF-8"?>
<svg version="1.1" xmlns="http://www.w3.org/2000/svg" width="28" height="28">
<path d="M0,0 L28,0 L28,28 L0,28 Z " fill="#020202" transform="translate(0,0)"/>
<path d="M0,0 L6,0 L7,4 L6,9 L1,14 L-3,20 L-5,20 L-4,15 L-2,10 L-4,8 L-4,3 Z " fill="#E6E6E6" transform="translate(14,6)"/>
<path d="M0,0 L6,0 L7,4 L3,7 L-2,7 L-4,3 Z " fill="#DFDFDF" transform="translate(14,6)"/>
<path d="M0,0 L4,0 L3,4 L-2,4 L-2,1 Z " fill="#272727" transform="translate(14,9)"/>
</svg>
