<?xml version="1.0" encoding="UTF-8"?>
<svg version="1.1" xmlns="http://www.w3.org/2000/svg" width="28" height="28">
<path d="M0,0 L28,0 L28,28 L0,28 Z " fill="#020202" transform="translate(0,0)"/>
<path d="M0,0 L6,0 L8,1 L8,3 L5,3 L5,13 L7,17 L7,20 L4,19 L2,11 L1,12 L-4,12 L-6,10 L-6,5 L-3,1 Z " fill="#C2C2C2" transform="translate(13,6)"/>
<path d="M0,0 L2,1 L0,7 L8,4 L10,14 L12,14 L11,17 L8,16 L6,8 L5,9 L0,9 L-2,7 L-2,2 Z " fill="#DEDEDE" transform="translate(9,9)"/>
<path d="M0,0 L2,0 L1,6 L-1,8 L-5,8 L-5,3 Z " fill="#0D0D0D" transform="translate(14,8)"/>
</svg>
