<?xml version="1.0" encoding="UTF-8"?>
<svg version="1.1" xmlns="http://www.w3.org/2000/svg" width="28" height="28">
<path d="M0,0 L28,0 L28,28 L0,28 Z " fill="#020202" transform="translate(0,0)"/>
<path d="M0,0 L6,0 L7,5 L1,15 L0,19 L-4,20 L-5,17 L-3,13 L-1,13 L-1,11 L-6,8 L-4,3 Z " fill="#EBEBEB" transform="translate(14,6)"/>
<path d="M0,0 L6,0 L7,5 L5,7 L5,3 L-2,5 L-5,6 L-3,2 Z " fill="#EEEEEE" transform="translate(14,6)"/>
<path d="M0,0 L4,0 L4,3 L-4,4 Z " fill="#343434" transform="translate(15,9)"/>
</svg>
