<?xml version="1.0" encoding="UTF-8"?>
<svg version="1.1" xmlns="http://www.w3.org/2000/svg" width="28" height="28">
<path d="M0,0 L28,0 L28,28 L0,28 Z " fill="#030303" transform="translate(0,0)"/>
<path d="M0,0 L5,0 L8,2 L8,4 L11,5 L4,19 L1,20 L2,14 L5,10 L3,11 L-3,11 L-3,3 L-1,3 Z " fill="#E9E9E9" transform="translate(11,6)"/>
<path d="M0,0 L5,1 L4,5 L-2,6 L-1,1 Z " fill="#161616" transform="translate(12,9)"/>
<path d="M0,0 L4,2 L0,6 L-3,6 L-3,3 L-1,3 Z " fill="#C7C7C7" transform="translate(11,6)"/>
</svg>
