<?xml version="1.0" encoding="UTF-8"?>
<svg version="1.1" xmlns="http://www.w3.org/2000/svg" width="28" height="28">
<path d="M0,0 L28,0 L28,28 L0,28 Z " fill="#010101" transform="translate(0,0)"/>
<path d="M0,0 L6,1 L7,2 L8,13 L6,19 L4,20 L-2,20 L-2,17 L4,18 L5,8 L3,7 L3,2 Z " fill="#D4D4D4" transform="translate(12,5)"/>
<path d="M0,0 L5,2 L5,7 L6,9 L-1,10 L-3,8 L-2,3 Z " fill="#BFBFBF" transform="translate(11,5)"/>
<path d="M0,0 L4,0 L4,5 L-2,6 Z " fill="#0E0E0E" transform="translate(12,7)"/>
</svg>
