<?xml version="1.0" encoding="UTF-8"?>
<svg version="1.1" xmlns="http://www.w3.org/2000/svg" width="28" height="28">
<path d="M0,0 L28,0 L28,28 L0,28 Z " fill="#020202" transform="translate(0,0)"/>
<path d="M0,0 L6,0 L8,1 L8,11 L7,19 L4,20 L4,9 L1,11 L-6,11 L-7,10 L-7,5 Z " fill="#EAEAEA" transform="translate(12,7)"/>
<path d="M0,0 L6,1 L6,11 L5,19 L2,20 L2,9 L-2,11 L-1,7 L1,6 L2,2 L-1,1 Z " fill="#F1F1F1" transform="translate(14,7)"/>
<path d="M0,0 L3,0 L2,5 L-1,7 L-5,6 L-4,2 Z " fill="#121212" transform="translate(13,9)"/>
<path d="M0,0 L1,0 L0,14 L-3,15 L-2,5 Z " fill="#D2D2D2" transform="translate(19,12)"/>
<path d="M0,0 L2,1 L1,3 L-3,5 L-5,8 L-6,4 Z " fill="#CACACA" transform="translate(12,7)"/>
</svg>
