<?xml version="1.0" encoding="UTF-8"?>
<svg version="1.1" xmlns="http://www.w3.org/2000/svg" width="28" height="28">
<path d="M0,0 L28,0 L28,28 L0,28 Z " fill="#030303" transform="translate(0,0)"/>
<path d="M0,0 L5,1 L7,7 L7,18 L9,19 L6,20 L4,13 L-3,12 L-3,3 Z " fill="#D7D7D7" transform="translate(12,6)"/>
<path d="M0,0 L1,0 L1,5 L7,4 L7,2 L10,2 L10,13 L12,14 L9,15 L7,8 L0,7 Z " fill="#E9E9E9" transform="translate(9,11)"/>
<path d="M0,0 L2,0 L2,7 L-3,8 L-2,2 Z " fill="#1A1A1A" transform="translate(13,8)"/>
</svg>
