<?xml version="1.0" encoding="UTF-8"?>
<svg version="1.1" xmlns="http://www.w3.org/2000/svg" width="28" height="28">
<path d="M0,0 L28,0 L28,28 L0,28 Z " fill="#010101" transform="translate(0,0)"/>
<path d="M0,0 L6,0 L7,5 L3,19 L0,20 L1,10 L-3,9 L-5,4 L-3,1 Z " fill="#D7D7D7" transform="translate(13,6)"/>
<path d="M0,0 L5,0 L6,5 L2,19 L-1,20 L-1,14 L2,7 L3,5 L3,1 Z " fill="#EAEAEA" transform="translate(14,6)"/>
<path d="M0,0 L3,0 L2,5 L-2,6 L-2,2 L0,2 Z " fill="#1E1E1E" transform="translate(14,7)"/>
</svg>
