<?xml version="1.0" encoding="UTF-8"?>
<svg version="1.1" xmlns="http://www.w3.org/2000/svg" width="28" height="28">
<path d="M0,0 L28,0 L28,28 L0,28 Z " fill="#030303" transform="translate(0,0)"/>
<path d="M0,0 L5,1 L6,2 L5,10 L3,20 L1,20 L2,13 L-4,14 L-6,12 L-6,6 L-1,1 Z " fill="#ECECEC" transform="translate(14,6)"/>
<path d="M0,0 L5,0 L4,4 L0,9 L-4,9 L-4,3 Z " fill="#0A0A0A" transform="translate(14,9)"/>
<path d="M0,0 L4,1 L4,3 L-3,6 L-4,12 L-1,13 L-6,12 L-6,6 L-1,1 Z " fill="#D2D2D2" transform="translate(14,6)"/>
</svg>
