<?xml version="1.0" encoding="UTF-8"?>
<svg version="1.1" xmlns="http://www.w3.org/2000/svg" width="28" height="28">
<path d="M0,0 L28,0 L28,28 L0,28 Z " fill="#020202" transform="translate(0,0)"/>
<path d="M0,0 L5,0 L7,3 L6,20 L4,20 L4,12 L0,14 L-6,13 L-7,6 L-2,1 Z " fill="#DADADA" transform="translate(13,6)"/>
<path d="M0,0 L3,0 L3,5 L-2,9 L-6,9 L-5,4 L-3,1 Z " fill="#0C0C0C" transform="translate(14,8)"/>
<path d="M0,0 L1,0 L1,13 L-1,13 L-1,4 L-3,3 Z " fill="#F2F2F2" transform="translate(18,13)"/>
</svg>
