<?xml version="1.0" encoding="UTF-8"?>
<svg version="1.1" xmlns="http://www.w3.org/2000/svg" width="28" height="28">
<path d="M0,0 L28,0 L28,28 L0,28 Z " fill="#020202" transform="translate(0,0)"/>
<path d="M0,0 L10,0 L10,4 L0,17 L-2,20 L-5,20 L-4,15 L-1,10 L-5,8 L-3,2 Z " fill="#ECECEC" transform="translate(13,7)"/>
<path d="M0,0 L2,1 L1,2 L5,3 L3,7 L-2,7 L-2,5 L-4,5 L-3,2 Z " fill="#DADADA" transform="translate(13,7)"/>
<path d="M0,0 L3,0 L1,4 L-3,4 L-2,1 Z " fill="#111111" transform="translate(15,10)"/>
</svg>
