<?xml version="1.0" encoding="UTF-8"?>
<svg version="1.1" xmlns="http://www.w3.org/2000/svg" width="28" height="28">
<path d="M0,0 L28,0 L28,28 L0,28 Z " fill="#020202" transform="translate(0,0)"/>
<path d="M0,0 L5,1 L6,5 L0,14 L-6,20 L-8,20 L-6,16 L-1,10 L1,10 L1,8 L-4,9 L-4,11 L-8,10 L-7,5 L-3,1 Z " fill="#D2D2D2" transform="translate(16,6)"/>
<path d="M0,0 L5,1 L5,2 L-2,4 L-5,5 L-5,7 L3,5 L0,8 L-4,9 L-4,11 L-8,10 L-7,5 L-3,1 Z " fill="#DDDDDD" transform="translate(16,6)"/>
<path d="M0,0 L5,0 L5,2 L-1,5 L-4,4 Z " fill="#232323" transform="translate(14,9)"/>
<path d="M0,0 L2,0 L0,4 L-3,7 L-5,7 L-3,3 Z " fill="#EEEEEE" transform="translate(13,19)"/>
</svg>
