<?xml version="1.0" encoding="UTF-8"?>
<svg version="1.1" xmlns="http://www.w3.org/2000/svg" width="28" height="28">
<path d="M0,0 L28,0 L28,28 L0,28 Z " fill="#010101" transform="translate(0,0)"/>
<path d="M0,0 L6,0 L9,5 L6,15 L4,20 L2,20 L2,15 L4,10 L0,9 L-1,7 L-1,1 Z " fill="#DDDDDD" transform="translate(10,7)"/>
<path d="M0,0 L5,1 L4,9 L3,11 L1,11 L1,6 L3,1 Z " fill="#C3C3C3" transform="translate(11,16)"/>
<path d="M0,0 L4,0 L4,5 L0,6 L-1,1 Z " fill="#1B1B1B" transform="translate(12,9)"/>
</svg>
