<?xml version="1.0" encoding="UTF-8"?>
<svg version="1.1" xmlns="http://www.w3.org/2000/svg" width="28" height="28">
<path d="M0,0 L28,0 L28,28 L0,28 Z " fill="#020202" transform="translate(0,0)"/>
<path d="M0,0 L4,0 L6,6 L2,12 L1,16 L3,16 L1,20 L-3,18 L-2,11 L-9,11 L-10,7 L-3,1 Z " fill="#D8D8D8" transform="translate(16,6)"/>
<path d="M0,0 L3,0 L1,4 L-2,5 L-2,7 L4,7 L2,9 L-4,9 L-5,5 Z M4,6 Z " fill="#F0F0F0" transform="translate(11,8)"/>
<path d="M0,0 L4,0 L2,5 L1,6 L-5,6 L-5,4 Z " fill="#232323" transform="translate(14,9)"/>
<path d="M0,0 L4,1 L2,5 L2,3 L-3,2 Z " fill="#C2C2C2" transform="translate(16,6)"/>
</svg>
