<?xml version="1.0" encoding="UTF-8"?>
<svg version="1.1" xmlns="http://www.w3.org/2000/svg" width="28" height="28">
<path d="M0,0 L28,0 L28,28 L0,28 Z " fill="#020202" transform="translate(0,0)"/>
<path d="M0,0 L4,1 L5,7 L2,13 L0,13 L-2,17 L-4,20 L-6,20 L-4,15 L0,10 L-2,11 L-8,11 L-9,6 L-4,2 Z " fill="#D9D9D9" transform="translate(16,6)"/>
<path d="M0,0 L3,0 L2,4 L-2,7 L-8,7 L-6,3 Z " fill="#111111" transform="translate(16,8)"/>
<path d="M0,0 L1,0 L1,5 L-1,5 L-3,9 L-5,12 L-7,12 L-5,7 L-1,2 Z " fill="#CCCCCC" transform="translate(17,14)"/>
</svg>
