<?xml version="1.0" encoding="UTF-8"?>
<svg version="1.1" xmlns="http://www.w3.org/2000/svg" width="28" height="28">
<path d="M0,0 L28,0 L28,28 L0,28 Z " fill="#030303" transform="translate(0,0)"/>
<path d="M0,0 L6,0 L8,2 L9,9 L2,20 L-3,20 L-2,17 L0,17 L0,15 L2,15 L2,12 L1,13 L-6,13 L-7,11 L-7,5 L-3,3 L-3,1 Z " fill="#EBEBEB" transform="translate(13,5)"/>
<path d="M0,0 L5,0 L6,3 L1,7 L-6,7 L-5,2 Z " fill="#111111" transform="translate(14,8)"/>
<path d="M0,0 L2,0 L2,2 L4,3 L-1,4 L-1,7 L-4,8 L-3,3 L0,2 Z " fill="#CFCFCF" transform="translate(10,6)"/>
</svg>
