<?xml version="1.0" encoding="UTF-8"?>
<svg version="1.1" xmlns="http://www.w3.org/2000/svg" width="28" height="28">
<path d="M0,0 L28,0 L28,28 L0,28 Z " fill="#030303" transform="translate(0,0)"/>
<path d="M0,0 L8,1 L5,11 L2,20 L0,20 L1,12 L2,9 L-5,9 L-6,5 Z " fill="#D7D7D7" transform="translate(13,7)"/>
<path d="M0,0 L3,0 L0,10 L-3,19 L-5,19 L-4,11 Z " fill="#F0F0F0" transform="translate(18,8)"/>
<path d="M0,0 L2,0 L2,3 L-5,7 L-7,7 L-6,3 Z " fill="#171717" transform="translate(16,8)"/>
<path d="M0,0 L1,2 L3,2 L1,8 L-1,8 Z " fill="#C6C6C6" transform="translate(14,19)"/>
</svg>
