<?xml version="1.0" encoding="UTF-8"?>
<svg version="1.1" xmlns="http://www.w3.org/2000/svg" width="28" height="28">
<path d="M0,0 L28,0 L28,28 L0,28 Z " fill="#020202" transform="translate(0,0)"/>
<path d="M0,0 L5,0 L3,8 L3,20 L1,20 L0,13 L-7,14 L-9,11 L-8,6 L-2,1 Z " fill="#CACACA" transform="translate(16,6)"/>
<path d="M0,0 L2,0 L1,7 L-2,10 L-7,10 L-6,4 Z " fill="#0D0D0D" transform="translate(16,8)"/>
<path d="M0,0 L5,0 L3,7 L2,7 L2,2 L-7,7 L-5,3 Z " fill="#E9E9E9" transform="translate(16,6)"/>
</svg>
