<?xml version="1.0" encoding="UTF-8"?>
<svg version="1.1" xmlns="http://www.w3.org/2000/svg" width="28" height="28">
<path d="M0,0 L28,0 L28,28 L0,28 Z " fill="#020202" transform="translate(0,0)"/>
<path d="M0,0 L8,0 L9,5 L7,4 L4,11 L-2,20 L-6,19 L-1,12 L-7,10 L-6,4 L-3,1 Z " fill="#CCCCCC" transform="translate(14,7)"/>
<path d="M0,0 L8,0 L9,5 L7,4 L4,11 L-3,10 L2,6 L4,4 L-5,5 L-3,1 Z " fill="#D9D9D9" transform="translate(14,7)"/>
<path d="M0,0 L6,0 L1,5 L-4,5 L-2,1 Z " fill="#0F0F0F" transform="translate(13,10)"/>
<path d="M0,0 L2,0 L1,5 L0,7 L-7,6 L-2,2 Z " fill="#F0F0F0" transform="translate(18,11)"/>
<path d="M0,0 L3,1 L-1,8 L-5,7 Z " fill="#E3E3E3" transform="translate(13,19)"/>
</svg>
