<?xml version="1.0" encoding="UTF-8"?>
<svg version="1.1" xmlns="http://www.w3.org/2000/svg" width="28" height="28">
<path d="M0,0 L28,0 L28,28 L0,28 Z " fill="#020202" transform="translate(0,0)"/>
<path d="M0,0 L4,1 L3,6 L-1,18 L-4,20 L-3,14 L-2,9 L-3,4 Z " fill="#7C7C7C" transform="translate(15,6)"/>
<path d="M0,0 L4,1 L3,4 L3,2 L0,4 L0,8 L-3,7 L-2,2 Z " fill="#E1E1E1" transform="translate(15,6)"/>
<path d="M0,0 L1,4 L-2,10 L-4,11 L-3,5 Z " fill="#DADADA" transform="translate(15,15)"/>
</svg>
