<?xml version="1.0" encoding="UTF-8"?>
<svg version="1.1" xmlns="http://www.w3.org/2000/svg" width="28" height="28">
<path d="M0,0 L28,0 L28,28 L0,28 Z " fill="#020202" transform="translate(0,0)"/>
<path d="M0,0 L4,1 L7,4 L8,10 L4,18 L0,20 L0,17 L3,14 L3,11 L-2,12 L-4,10 L-4,4 Z " fill="#CFCFCF" transform="translate(12,6)"/>
<path d="M0,0 L3,2 L4,8 L0,16 L-4,18 L-4,15 L-1,12 L-1,9 L-3,7 Z " fill="#E9E9E9" transform="translate(16,8)"/>
<path d="M0,0 L3,0 L2,6 L-2,5 Z " fill="#181818" transform="translate(12,9)"/>
</svg>
