<?xml version="1.0" encoding="UTF-8"?>
<svg version="1.1" xmlns="http://www.w3.org/2000/svg" width="28" height="28">
<path d="M0,0 L28,0 L28,28 L0,28 Z " fill="#020202" transform="translate(0,0)"/>
<path d="M0,0 L5,0 L6,1 L5,11 L1,20 L0,20 L1,12 L3,9 L0,11 L-4,11 L-3,8 L2,7 L3,3 L-3,5 Z " fill="#E1E1E1" transform="translate(13,6)"/>
<path d="M0,0 L2,1 L1,6 L-5,7 L-6,3 Z " fill="#181818" transform="translate(15,8)"/>
<path d="M0,0 L5,0 L6,1 L6,7 L3,5 L2,3 L-3,5 Z " fill="#BFBFBF" transform="translate(13,6)"/>
</svg>
