<?xml version="1.0" encoding="UTF-8"?>
<svg version="1.1" xmlns="http://www.w3.org/2000/svg" width="28" height="28">
<path d="M0,0 L28,0 L28,28 L0,28 Z " fill="#020202" transform="translate(0,0)"/>
<path d="M0,0 L7,0 L9,2 L8,6 L3,18 L2,20 L0,20 L1,15 L2,12 L-5,9 L-4,3 L-3,1 Z " fill="#CFCFCF" transform="translate(12,7)"/>
<path d="M0,0 L1,2 L-4,14 L-5,16 L-7,16 L-6,11 L-4,6 L-7,5 Z " fill="#F0F0F0" transform="translate(19,11)"/>
<path d="M0,0 L8,0 L5,5 L1,6 L-1,5 Z " fill="#0C0C0C" transform="translate(10,10)"/>
<path d="M0,0 L2,0 L2,5 L0,8 L-2,8 L-1,3 Z " fill="#D1D1D1" transform="translate(14,19)"/>
</svg>
