<?xml version="1.0" encoding="UTF-8"?>
<svg version="1.1" xmlns="http://www.w3.org/2000/svg" width="28" height="28">
<path d="M0,0 L28,0 L28,28 L0,28 Z " fill="#030303" transform="translate(0,0)"/>
<path d="M0,0 L5,1 L4,6 L-1,12 L-3,12 L-3,14 L-5,14 L-5,16 L-7,16 L-7,18 L-10,20 L-13,19 L-7,13 L-5,13 L-5,11 L-9,10 L-8,5 Z " fill="#D0D0D0" transform="translate(18,5)"/>
<path d="M0,0 L1,2 L-4,8 L-6,8 L-6,10 L-8,10 L-8,12 L-10,12 L-10,14 L-13,16 L-16,15 L-10,9 L-8,9 L-8,7 L-10,6 L-4,3 Z " fill="#E7E7E7" transform="translate(21,9)"/>
<path d="M0,0 L4,1 L-1,7 L-6,7 L-4,3 Z " fill="#141414" transform="translate(17,7)"/>
</svg>
