<?xml version="1.0" encoding="UTF-8"?>
<svg version="1.1" xmlns="http://www.w3.org/2000/svg" width="28" height="28">
<path d="M0,0 L28,0 L28,28 L0,28 Z " fill="#020202" transform="translate(0,0)"/>
<path d="M0,0 L5,0 L6,4 L4,9 L-2,13 L-8,20 L-10,20 L-8,16 L-6,14 L-9,13 L-8,6 L-2,1 Z " fill="#D0D0D0" transform="translate(17,6)"/>
<path d="M0,0 L5,0 L6,4 L4,9 L-3,13 L-1,9 L3,3 L-2,4 L-6,6 L-6,8 L-8,8 L-6,4 Z " fill="#E6E6E6" transform="translate(17,6)"/>
<path d="M0,0 L4,1 L-1,6 L-6,9 L-7,6 L-2,1 Z " fill="#121212" transform="translate(17,8)"/>
</svg>
