<?xml version="1.0" encoding="UTF-8"?>
<svg version="1.1" xmlns="http://www.w3.org/2000/svg" width="28" height="28">
<path d="M0,0 L28,0 L28,28 L0,28 Z " fill="#020202" transform="translate(0,0)"/>
<path d="M0,0 L3,0 L3,6 L-6,16 L-10,20 L-13,19 L-9,14 L-13,12 L-11,7 L-6,3 Z " fill="#E3E3E3" transform="translate(20,5)"/>
<path d="M0,0 L3,1 L4,3 L-1,8 L-6,11 L-10,11 L-8,6 L-3,2 Z " fill="#D9D9D9" transform="translate(17,6)"/>
<path d="M0,0 L3,1 L-2,6 L-8,8 L-6,4 Z " fill="#111111" transform="translate(18,8)"/>
</svg>
