<?xml version="1.0" encoding="UTF-8"?>
<svg version="1.1" xmlns="http://www.w3.org/2000/svg" width="28" height="28">
<path d="M0,0 L28,0 L28,28 L0,28 Z " fill="#030303" transform="translate(0,0)"/>
<path d="M0,0 L5,0 L7,4 L7,14 L5,20 L3,20 L4,10 L-3,10 L-4,5 Z " fill="#DFDFDF" transform="translate(12,6)"/>
<path d="M0,0 L1,0 L1,9 L-1,15 L-3,15 L-2,5 L-5,4 L-3,2 L0,2 Z " fill="#EEEEEE" transform="translate(18,11)"/>
<path d="M0,0 L4,1 L4,5 L-2,6 L-1,1 Z " fill="#191919" transform="translate(13,8)"/>
</svg>
