<?xml version="1.0" encoding="UTF-8"?>
<svg version="1.1" xmlns="http://www.w3.org/2000/svg" width="28" height="28">
<path d="M0,0 L28,0 L28,28 L0,28 Z " fill="#030303" transform="translate(0,0)"/>
<path d="M0,0 L6,0 L11,5 L11,20 L9,19 L9,11 L1,12 L-4,7 L-3,2 Z " fill="#CFCFCF" transform="translate(9,7)"/>
<path d="M0,0 L4,2 L4,4 L6,4 L5,7 L-2,8 L-5,4 L-4,1 Z " fill="#121212" transform="translate(12,9)"/>
<path d="M0,0 L3,2 L3,17 L1,16 L1,8 L-1,7 Z " fill="#F6F6F6" transform="translate(17,10)"/>
</svg>
