<?xml version="1.0" encoding="UTF-8"?>
<svg version="1.1" xmlns="http://www.w3.org/2000/svg" width="28" height="28">
<path d="M0,0 L28,0 L28,28 L0,28 Z " fill="#020202" transform="translate(0,0)"/>
<path d="M0,0 L5,1 L4,6 L-2,15 L-6,20 L-8,20 L-7,15 L-3,10 L-6,9 L-5,3 Z " fill="#B5B5B5" transform="translate(16,6)"/>
<path d="M0,0 L4,0 L3,3 L-1,3 L-1,5 L-3,6 L-1,8 L-6,9 L-5,3 Z " fill="#EAEAEA" transform="translate(16,6)"/>
<path d="M0,0 L2,0 L0,4 L-4,9 L-6,9 L-5,4 Z " fill="#DFDFDF" transform="translate(14,17)"/>
</svg>
