<?xml version="1.0" encoding="UTF-8"?>
<svg version="1.1" xmlns="http://www.w3.org/2000/svg" width="28" height="28">
<path d="M0,0 L28,0 L28,28 L0,28 Z " fill="#030303" transform="translate(0,0)"/>
<path d="M0,0 L2,0 L1,7 L-3,15 L-5,20 L-7,20 L-6,14 L-5,12 L-12,13 L-11,10 L-5,9 L-1,3 L-3,2 Z " fill="#E9E9E9" transform="translate(19,6)"/>
<path d="M0,0 L2,1 L2,5 L-3,10 L-8,9 L-5,4 Z " fill="#CCCCCC" transform="translate(15,7)"/>
<path d="M0,0 L2,0 L0,5 L-3,7 L-6,7 L-4,3 Z " fill="#161616" transform="translate(15,10)"/>
</svg>
