<?xml version="1.0" encoding="UTF-8"?>
<svg version="1.1" xmlns="http://www.w3.org/2000/svg" width="28" height="28">
<path d="M0,0 L28,0 L28,28 L0,28 Z " fill="#020202" transform="translate(0,0)"/>
<path d="M0,0 L8,0 L12,4 L11,6 L9,3 L5,2 L-1,5 L0,10 L6,11 L5,6 L6,3 L9,4 L12,8 L12,10 L10,11 L10,18 L9,20 L7,20 L6,14 L-1,13 L-4,10 L-4,3 Z " fill="#E2E2E2" transform="translate(10,6)"/>
<path d="M0,0 L5,2 L8,5 L7,8 L5,8 L3,3 L1,2 L1,10 L-5,10 L-7,8 L-6,3 Z " fill="#1A1A1A" transform="translate(15,7)"/>
<path d="M0,0 L8,0 L12,4 L11,6 L9,3 L5,2 L-2,5 L-4,5 L-3,2 Z " fill="#CCCCCC" transform="translate(10,6)"/>
</svg>
