<?xml version="1.0" encoding="UTF-8"?>
<svg version="1.1" xmlns="http://www.w3.org/2000/svg" width="28" height="28">
<path d="M0,0 L28,0 L28,28 L0,28 Z " fill="#010101" transform="translate(0,0)"/>
<path d="M0,0 L4,0 L5,7 L-2,20 L-4,20 L-3,14 L-2,12 L-6,11 L-6,6 L-2,1 Z " fill="#F6F6F6" transform="translate(15,6)"/>
<path d="M0,0 L2,1 L2,5 L1,8 L-2,8 L-4,10 L-4,5 Z " fill="#969696" transform="translate(13,7)"/>
<path d="M0,0 L4,0 L4,2 L6,2 L4,8 L1,9 L2,3 L3,1 Z " fill="#C2C2C2" transform="translate(10,17)"/>
</svg>
