<?xml version="1.0" encoding="UTF-8"?>
<svg version="1.1" xmlns="http://www.w3.org/2000/svg" width="28" height="28">
<path d="M0,0 L28,0 L28,28 L0,28 Z " fill="#030303" transform="translate(0,0)"/>
<path d="M0,0 L5,0 L3,12 L-1,20 L-4,20 L-3,13 L-1,10 L-3,11 L-10,11 L-11,10 L-11,5 L-5,1 Z " fill="#EAEAEA" transform="translate(17,6)"/>
<path d="M0,0 L5,0 L4,4 L1,4 L0,7 L-5,9 L-11,8 L-10,4 L-5,1 Z " fill="#E1E1E1" transform="translate(17,6)"/>
<path d="M0,0 L3,1 L-1,5 L-7,6 L-5,2 Z " fill="#111111" transform="translate(16,9)"/>
</svg>
