<?xml version="1.0" encoding="UTF-8"?>
<svg version="1.1" xmlns="http://www.w3.org/2000/svg" width="28" height="28">
<path d="M0,0 L28,0 L28,28 L0,28 Z " fill="#020202" transform="translate(0,0)"/>
<path d="M0,0 L8,0 L9,4 L8,5 L8,11 L11,16 L14,17 L13,20 L8,18 L5,11 L-3,10 L-6,8 L-5,3 Z " fill="#E7E7E7" transform="translate(10,6)"/>
<path d="M0,0 L4,1 L2,6 L-2,7 L-5,6 L-4,1 Z " fill="#131313" transform="translate(12,8)"/>
<path d="M0,0 L4,2 L-2,4 L-3,8 L1,9 L-3,10 L-6,8 L-5,3 Z " fill="#C2C2C2" transform="translate(10,6)"/>
<path d="M0,0 L3,4 L6,5 L5,8 L0,6 L-1,2 Z " fill="#C9C9C9" transform="translate(18,18)"/>
</svg>
