<?xml version="1.0" encoding="UTF-8"?>
<svg version="1.1" xmlns="http://www.w3.org/2000/svg" width="28" height="28">
<path d="M0,0 L28,0 L28,28 L0,28 Z " fill="#020202" transform="translate(0,0)"/>
<path d="M0,0 L6,1 L9,4 L8,11 L4,17 L0,20 L-5,20 L-5,18 L2,15 L5,9 L1,7 L5,5 L4,3 L-2,3 Z " fill="#E6E6E6" transform="translate(12,5)"/>
<path d="M0,0 L5,1 L5,4 L4,7 L-1,7 L-3,5 L-3,1 Z " fill="#C5C5C5" transform="translate(12,7)"/>
<path d="M0,0 L5,1 L5,4 L-1,4 Z " fill="#171717" transform="translate(12,7)"/>
</svg>
