<?xml version="1.0" encoding="UTF-8"?>
<svg version="1.1" xmlns="http://www.w3.org/2000/svg" width="28" height="28">
<path d="M0,0 L28,0 L28,28 L0,28 Z " fill="#010101" transform="translate(0,0)"/>
<path d="M0,0 L4,0 L3,8 L0,18 L-1,20 L-4,20 L-2,13 L-1,10 L-7,11 L-8,6 L-6,6 L-6,9 L0,6 L2,2 L-1,1 Z " fill="#E3E3E3" transform="translate(16,6)"/>
<path d="M0,0 L4,2 L2,7 L-1,9 L-4,9 L-5,4 Z " fill="#C2C2C2" transform="translate(14,6)"/>
<path d="M0,0 L2,0 L0,5 L-5,6 L-3,2 Z " fill="#131313" transform="translate(16,8)"/>
</svg>
