<?xml version="1.0" encoding="UTF-8"?>
<svg version="1.1" xmlns="http://www.w3.org/2000/svg" width="28" height="28">
<path d="M0,0 L28,0 L28,28 L0,28 Z " fill="#020202" transform="translate(0,0)"/>
<path d="M0,0 L9,1 L11,20 L7,20 L6,11 L2,12 L-3,10 L-3,4 Z " fill="#EBEBEB" transform="translate(10,6)"/>
<path d="M0,0 L9,1 L5,2 L5,7 L3,9 L-1,8 L-3,10 L-3,4 Z " fill="#E1E1E1" transform="translate(10,6)"/>
<path d="M0,0 L2,0 L2,5 L0,7 L-3,7 L-2,2 Z " fill="#141414" transform="translate(13,8)"/>
</svg>
