<?xml version="1.0" encoding="UTF-8"?>
<svg version="1.1" xmlns="http://www.w3.org/2000/svg" width="28" height="28">
<path d="M0,0 L28,0 L28,28 L0,28 Z " fill="#020202" transform="translate(0,0)"/>
<path d="M0,0 L5,1 L6,6 L2,20 L0,20 L1,11 L-6,9 L-5,4 L-2,1 Z " fill="#CCCCCC" transform="translate(14,6)"/>
<path d="M0,0 L4,1 L-1,5 L-2,7 L3,7 L2,9 L-3,9 L-4,4 Z " fill="#E6E6E6" transform="translate(12,7)"/>
<path d="M0,0 L1,2 L-2,14 L-4,14 L-3,5 Z " fill="#F2F2F2" transform="translate(18,12)"/>
<path d="M0,0 L5,1 L4,4 L-3,5 L-1,1 Z " fill="#090909" transform="translate(13,9)"/>
</svg>
