<?xml version="1.0" encoding="UTF-8"?>
<svg version="1.1" xmlns="http://www.w3.org/2000/svg" width="28" height="28">
<path d="M0,0 L28,0 L28,28 L0,28 Z " fill="#020202" transform="translate(0,0)"/>
<path d="M0,0 L7,0 L10,2 L10,4 L7,7 L3,19 L-1,20 L2,10 L-6,10 L-8,6 L-2,1 Z " fill="#E2E2E2" transform="translate(13,7)"/>
<path d="M0,0 L5,0 L3,4 L1,5 L-5,5 L-3,1 Z " fill="#151515" transform="translate(13,10)"/>
<path d="M0,0 L5,2 L5,4 L2,5 L-3,3 Z " fill="#B0B0B0" transform="translate(18,7)"/>
</svg>
