<?xml version="1.0" encoding="UTF-8"?>
<svg version="1.1" xmlns="http://www.w3.org/2000/svg" width="28" height="28">
<path d="M0,0 L28,0 L28,28 L0,28 Z " fill="#010101" transform="translate(0,0)"/>
<path d="M0,0 L5,0 L8,4 L6,14 L4,20 L1,20 L2,14 L4,9 L-1,9 L-3,7 L-2,2 Z " fill="#E9E9E9" transform="translate(11,6)"/>
<path d="M0,0 L1,4 L-1,10 L-4,10 L-3,4 L-2,1 Z " fill="#E4E4E4" transform="translate(16,16)"/>
<path d="M0,0 L4,1 L4,5 L-1,5 L-1,1 Z " fill="#080808" transform="translate(12,8)"/>
</svg>
