<?xml version="1.0" encoding="UTF-8"?>
<svg version="1.1" xmlns="http://www.w3.org/2000/svg" width="28" height="28">
<path d="M0,0 L28,0 L28,28 L0,28 Z " fill="#020202" transform="translate(0,0)"/>
<path d="M0,0 L5,0 L7,2 L7,11 L6,18 L4,20 L3,19 L3,13 L-2,11 L-4,9 L-3,2 Z " fill="#C7C7C7" transform="translate(12,6)"/>
<path d="M0,0 L2,0 L2,6 L1,13 L-1,15 L-2,14 L-2,8 L-5,7 L-1,6 L-1,1 Z " fill="#F0F0F0" transform="translate(17,11)"/>
<path d="M0,0 L1,0 L1,6 L0,8 L-4,7 L-4,2 Z " fill="#060606" transform="translate(15,8)"/>
</svg>
