<?xml version="1.0" encoding="UTF-8"?>
<svg version="1.1" xmlns="http://www.w3.org/2000/svg" width="28" height="28">
<path d="M0,0 L28,0 L28,28 L0,28 Z " fill="#030303" transform="translate(0,0)"/>
<path d="M0,0 L5,0 L5,15 L3,20 L1,16 L-4,14 L-5,13 L-5,5 Z " fill="#E7E7E7" transform="translate(14,6)"/>
<path d="M0,0 L3,0 L2,8 L-2,8 L-2,2 Z " fill="#0C0C0C" transform="translate(14,9)"/>
<path d="M0,0 L5,0 L5,10 L3,10 L3,3 L-1,2 Z " fill="#F5F5F5" transform="translate(14,6)"/>
<path d="M0,0 L2,1 L0,10 L-3,7 L-2,2 Z " fill="#C3C3C3" transform="translate(12,7)"/>
</svg>
