<?xml version="1.0" encoding="UTF-8"?>
<svg version="1.1" xmlns="http://www.w3.org/2000/svg" width="28" height="28">
<path d="M0,0 L28,0 L28,28 L0,28 Z " fill="#040404" transform="translate(0,0)"/>
<path d="M0,0 L7,0 L10,2 L10,19 L7,19 L7,6 L4,8 L-2,8 L-3,3 Z " fill="#CFCFCF" transform="translate(9,7)"/>
<path d="M0,0 L6,0 L2,2 L0,2 L0,6 L4,6 L4,8 L-2,8 L-3,3 Z " fill="#E4E4E4" transform="translate(9,7)"/>
<path d="M0,0 L7,0 L6,3 L0,5 L-1,3 Z " fill="#0E0E0E" transform="translate(9,9)"/>
<path d="M0,0 L1,0 L2,11 L-1,11 L-1,2 Z " fill="#EAEAEA" transform="translate(17,15)"/>
</svg>
