<?xml version="1.0" encoding="UTF-8"?>
<svg version="1.1" xmlns="http://www.w3.org/2000/svg" width="28" height="28">
<path d="M0,0 L28,0 L28,28 L0,28 Z " fill="#050505" transform="translate(0,0)"/>
<path d="M0,0 L6,1 L8,4 L7,9 L0,20 L-3,19 L1,12 L-3,11 L-3,4 Z " fill="#DDDDDD" transform="translate(12,6)"/>
<path d="M0,0 L1,3 L-6,14 L-9,13 L-4,6 L-1,1 Z " fill="#E5E5E5" transform="translate(18,12)"/>
<path d="M0,0 L3,0 L4,3 L0,7 L-3,7 L-2,2 Z " fill="#171717" transform="translate(14,8)"/>
</svg>
