<?xml version="1.0" encoding="UTF-8"?>
<svg version="1.1" xmlns="http://www.w3.org/2000/svg" width="28" height="28">
<path d="M0,0 L28,0 L28,28 L0,28 Z " fill="#030303" transform="translate(0,0)"/>
<path d="M0,0 L9,1 L10,13 L9,20 L6,17 L7,16 L7,9 L0,8 L-2,6 L-1,1 Z " fill="#CBCBCB" transform="translate(9,7)"/>
<path d="M0,0 L2,1 L3,11 L2,18 L-1,15 L0,14 L0,7 L-4,6 L0,6 Z " fill="#F4F4F4" transform="translate(16,9)"/>
<path d="M0,0 L2,2 L4,0 L4,2 L7,1 L7,6 L1,5 Z " fill="#2D2D2D" transform="translate(9,9)"/>
</svg>
