<?xml version="1.0" encoding="UTF-8"?>
<svg version="1.1" xmlns="http://www.w3.org/2000/svg" width="28" height="28">
<path d="M0,0 L28,0 L28,28 L0,28 Z " fill="#030303" transform="translate(0,0)"/>
<path d="M0,0 L3,0 L3,2 L0,2 L-2,6 L-3,8 L3,5 L7,5 L7,19 L4,20 L5,8 L1,10 L-5,10 L-4,4 Z " fill="#DADADA" transform="translate(12,6)"/>
<path d="M0,0 L2,0 L2,14 L-1,15 L0,6 L1,2 L-1,1 Z " fill="#E1E1E1" transform="translate(17,11)"/>
<path d="M0,0 L2,1 L3,6 L2,3 L-4,5 L-6,3 Z " fill="#B5B5B5" transform="translate(15,11)"/>
</svg>
