<?xml version="1.0" encoding="UTF-8"?>
<svg version="1.1" xmlns="http://www.w3.org/2000/svg" width="28" height="28">
<path d="M0,0 L28,0 L28,28 L0,28 Z " fill="#030303" transform="translate(0,0)"/>
<path d="M0,0 L4,0 L5,6 L6,10 L10,17 L10,20 L4,19 L-4,14 L-4,12 L0,13 L6,16 L2,10 L2,8 L-3,8 L-4,3 Z " fill="#E8E8E8" transform="translate(12,4)"/>
<path d="M0,0 L3,1 L7,8 L7,11 L1,10 L-7,5 L-7,3 L-3,4 L3,7 L0,3 Z " fill="#D8D8D8" transform="translate(15,13)"/>
<path d="M0,0 L6,0 L5,4 L1,5 Z " fill="#777777" transform="translate(8,7)"/>
</svg>
