<?xml version="1.0" encoding="UTF-8"?>
<svg version="1.1" xmlns="http://www.w3.org/2000/svg" width="28" height="28">
<path d="M0,0 L28,0 L28,28 L0,28 Z " fill="#020202" transform="translate(0,0)"/>
<path d="M0,0 L6,0 L8,7 L4,16 L2,20 L-2,19 L1,14 L-5,14 L-6,13 L-6,7 Z " fill="#E2E2E2" transform="translate(14,5)"/>
<path d="M0,0 L3,0 L3,6 L-3,10 L-6,10 L-4,4 Z " fill="#1C1C1C" transform="translate(16,7)"/>
<path d="M0,0 L2,1 L0,5 L5,4 L4,7 L-1,7 L-2,2 Z " fill="#F4F4F4" transform="translate(10,12)"/>
<path d="M0,0 L5,1 L5,6 L3,7 L3,2 L-1,1 Z " fill="#C6C6C6" transform="translate(16,5)"/>
</svg>
