<?xml version="1.0" encoding="UTF-8"?>
<svg version="1.1" xmlns="http://www.w3.org/2000/svg" width="28" height="28">
<path d="M0,0 L28,0 L28,28 L0,28 Z " fill="#040404" transform="translate(0,0)"/>
<path d="M0,0 L5,1 L7,3 L7,14 L3,19 L-2,20 L-4,18 L-3,13 L-2,17 L3,14 L4,9 L1,11 L-4,11 L-5,10 L-5,4 Z " fill="#DFDFDF" transform="translate(13,5)"/>
<path d="M0,0 L4,0 L3,4 L1,6 L-2,6 L-1,1 Z " fill="#101010" transform="translate(12,8)"/>
<path d="M0,0 L3,1 L3,3 L-1,4 L-3,6 L-5,6 L-3,2 Z " fill="#CFCFCF" transform="translate(13,5)"/>
</svg>
