<?xml version="1.0" encoding="UTF-8"?>
<svg version="1.1" xmlns="http://www.w3.org/2000/svg" width="28" height="28">
<path d="M0,0 L28,0 L28,28 L0,28 Z " fill="#030303" transform="translate(0,0)"/>
<path d="M0,0 L7,0 L9,4 L11,4 L11,20 L9,20 L9,8 L0,10 L-3,8 L-3,3 Z " fill="#D5D5D5" transform="translate(9,7)"/>
<path d="M0,0 L3,1 L3,17 L1,17 L1,5 L-3,6 L-4,4 L-1,3 Z " fill="#F2F2F2" transform="translate(17,10)"/>
<path d="M0,0 L5,0 L7,4 L6,5 L-2,5 L-1,1 Z " fill="#0A0A0A" transform="translate(10,9)"/>
</svg>
