<?xml version="1.0" encoding="UTF-8"?>
<svg version="1.1" xmlns="http://www.w3.org/2000/svg" width="28" height="28">
<path d="M0,0 L28,0 L28,28 L0,28 Z " fill="#040404" transform="translate(0,0)"/>
<path d="M0,0 L5,1 L7,5 L3,16 L5,15 L4,19 L0,20 L1,11 L2,9 L-4,9 L-5,4 Z " fill="#EAEAEA" transform="translate(13,6)"/>
<path d="M0,0 L1,4 L3,3 L2,7 L-2,8 L-2,2 Z " fill="#F5F5F5" transform="translate(15,18)"/>
<path d="M0,0 L3,1 L2,4 L-4,5 L-2,1 Z " fill="#222222" transform="translate(14,8)"/>
</svg>
