<?xml version="1.0" encoding="UTF-8"?>
<svg version="1.1" xmlns="http://www.w3.org/2000/svg" width="28" height="28">
<path d="M0,0 L28,0 L28,28 L0,28 Z " fill="#030303" transform="translate(0,0)"/>
<path d="M0,0 L5,1 L8,3 L7,9 L3,15 L1,15 L0,20 L-3,20 L-2,14 L0,11 L-6,11 L-8,10 L-8,4 Z " fill="#ECECEC" transform="translate(14,6)"/>
<path d="M0,0 L4,1 L2,2 L5,3 L4,7 L1,7 L1,9 L-4,9 L-4,11 L-8,10 L-8,4 Z " fill="#DBDBDB" transform="translate(14,6)"/>
<path d="M0,0 L7,0 L6,4 L-3,5 L-1,1 Z " fill="#0A0A0A" transform="translate(12,9)"/>
</svg>
