<?xml version="1.0" encoding="UTF-8"?>
<svg version="1.1" xmlns="http://www.w3.org/2000/svg" width="28" height="28">
<path d="M0,0 L28,0 L28,28 L0,28 Z " fill="#010101" transform="translate(0,0)"/>
<path d="M0,0 L5,0 L7,2 L8,20 L6,20 L4,12 L-3,11 L-4,10 L-3,3 Z " fill="#BEBEBE" transform="translate(11,6)"/>
<path d="M0,0 L3,1 L3,9 L-4,9 L-3,2 Z " fill="#070707" transform="translate(13,7)"/>
<path d="M0,0 L1,0 L2,17 L0,17 L-1,15 L-1,8 L-3,7 L-1,7 Z " fill="#D9D9D9" transform="translate(17,9)"/>
</svg>
