<?xml version="1.0" encoding="UTF-8"?>
<svg version="1.1" xmlns="http://www.w3.org/2000/svg" width="28" height="28">
<path d="M0,0 L28,0 L28,28 L0,28 Z " fill="#020202" transform="translate(0,0)"/>
<path d="M0,0 L2,0 L2,6 L-2,14 L-4,19 L-7,20 L-4,11 L-3,8 L-8,10 L-7,3 L-5,1 Z " fill="#ACACAC" transform="translate(18,7)"/>
<path d="M0,0 L1,4 L-4,16 L-7,17 L-4,8 L-1,2 Z " fill="#E9E9E9" transform="translate(18,10)"/>
<path d="M0,0 L3,0 L3,2 L-1,3 L0,8 L-3,9 L-2,2 Z " fill="#E0E0E0" transform="translate(13,8)"/>
<path d="M0,0 L2,0 L2,5 L-2,7 Z " fill="#CDCDCD" transform="translate(13,20)"/>
</svg>
