<?xml version="1.0" encoding="UTF-8"?>
<svg version="1.1" xmlns="http://www.w3.org/2000/svg" width="28" height="28">
<path d="M0,0 L28,0 L28,28 L0,28 Z " fill="#020202" transform="translate(0,0)"/>
<path d="M0,0 L5,0 L6,1 L5,20 L3,20 L2,9 L-1,11 L-5,10 L-6,5 Z " fill="#E7E7E7" transform="translate(13,7)"/>
<path d="M0,0 L3,0 L2,5 L-1,10 L-4,11 L-6,9 L-5,4 Z " fill="#D3D3D3" transform="translate(13,7)"/>
<path d="M0,0 L2,0 L0,4 L-2,7 L-5,7 L-4,3 Z " fill="#191919" transform="translate(14,9)"/>
</svg>
