<?xml version="1.0" encoding="UTF-8"?>
<svg version="1.1" xmlns="http://www.w3.org/2000/svg" width="28" height="28">
<path d="M0,0 L28,0 L28,28 L0,28 Z " fill="#020202" transform="translate(0,0)"/>
<path d="M0,0 L5,0 L7,3 L7,8 L5,8 L3,12 L-3,20 L-5,20 L-4,16 L0,10 L-5,9 L-4,4 Z " fill="#E9E9E9" transform="translate(14,6)"/>
<path d="M0,0 L5,0 L7,3 L7,8 L5,5 L0,8 L-2,8 L-2,5 L-4,4 Z " fill="#D2D2D2" transform="translate(14,6)"/>
<path d="M0,0 L3,0 L2,4 L-3,5 L-1,1 Z " fill="#1E1E1E" transform="translate(15,9)"/>
</svg>
