<?xml version="1.0" encoding="UTF-8"?>
<svg version="1.1" xmlns="http://www.w3.org/2000/svg" width="28" height="28">
<path d="M0,0 L28,0 L28,28 L0,28 Z " fill="#030303" transform="translate(0,0)"/>
<path d="M0,0 L4,0 L6,3 L6,8 L1,13 L-6,20 L-8,20 L-6,15 L-3,12 L-8,11 L-8,6 Z " fill="#E5E5E5" transform="translate(16,6)"/>
<path d="M0,0 L4,0 L5,3 L-2,5 L-6,7 L-3,11 L-8,11 L-8,6 Z " fill="#E6E6E6" transform="translate(16,6)"/>
<path d="M0,0 L4,0 L2,4 L0,6 L-6,6 L-6,4 Z " fill="#0F0F0F" transform="translate(16,9)"/>
</svg>
