<?xml version="1.0" encoding="UTF-8"?>
<svg version="1.1" xmlns="http://www.w3.org/2000/svg" width="28" height="28">
<path d="M0,0 L28,0 L28,28 L0,28 Z " fill="#020202" transform="translate(0,0)"/>
<path d="M0,0 L7,1 L8,2 L7,11 L3,20 L1,20 L1,16 L-3,18 L-8,18 L-10,16 L-9,9 L-5,3 Z " fill="#DFDFDF" transform="translate(15,5)"/>
<path d="M0,0 L5,1 L3,9 L-1,13 L-9,14 L-8,8 L-3,2 Z " fill="#080808" transform="translate(16,7)"/>
<path d="M0,0 L1,0 L0,9 L-4,18 L-6,18 L-6,14 L-9,15 L-12,13 L-6,11 L-3,7 Z " fill="#BEBEBE" transform="translate(22,7)"/>
<path d="M0,0 L1,0 L0,9 L-2,9 L-2,3 Z " fill="#B1B1B1" transform="translate(22,7)"/>
<path d="M0,0 L1,3 L-1,8 L-3,8 L-3,3 Z " fill="#DEDEDE" transform="translate(19,17)"/>
</svg>
