<?xml version="1.0" encoding="UTF-8"?>
<svg version="1.1" xmlns="http://www.w3.org/2000/svg" width="28" height="28">
<path d="M0,0 L28,0 L28,28 L0,28 Z " fill="#030303" transform="translate(0,0)"/>
<path d="M0,0 L6,1 L6,4 L5,8 L-2,18 L-5,20 L-4,15 L-4,12 L-7,10 L-7,5 Z " fill="#E4E4E4" transform="translate(15,6)"/>
<path d="M0,0 L6,1 L6,4 L4,8 L1,8 L0,9 L-5,9 L-3,5 L-5,3 Z " fill="#D9D9D9" transform="translate(15,6)"/>
<path d="M0,0 L3,0 L1,5 L0,6 L-5,6 L-3,2 Z " fill="#0E0E0E" transform="translate(15,9)"/>
</svg>
