<?xml version="1.0" encoding="UTF-8"?>
<svg version="1.1" xmlns="http://www.w3.org/2000/svg" width="28" height="28">
<path d="M0,0 L28,0 L28,28 L0,28 Z " fill="#010101" transform="translate(0,0)"/>
<path d="M0,0 L5,1 L8,4 L6,9 L3,10 L1,14 L-4,20 L-6,20 L-5,16 L-3,13 L-7,12 L-6,5 Z " fill="#CDCDCD" transform="translate(15,6)"/>
<path d="M0,0 L3,1 L1,6 L-2,7 L-4,11 L-9,17 L-11,17 L-10,13 L-8,10 L-6,10 L-5,6 L-1,2 Z " fill="#E3E3E3" transform="translate(20,9)"/>
<path d="M0,0 L5,1 L2,6 L-5,7 L-3,2 Z " fill="#0F0F0F" transform="translate(15,9)"/>
</svg>
