<?xml version="1.0" encoding="UTF-8"?>
<svg version="1.1" xmlns="http://www.w3.org/2000/svg" width="28" height="28">
<path d="M0,0 L28,0 L28,28 L0,28 Z " fill="#020202" transform="translate(0,0)"/>
<path d="M0,0 L5,2 L6,7 L-1,18 L-4,20 L-3,15 L0,10 L-4,8 L-4,2 Z " fill="#DDDDDD" transform="translate(14,6)"/>
<path d="M0,0 L5,2 L6,7 L3,8 L3,6 L-2,7 L-3,4 L-4,2 Z " fill="#CCCCCC" transform="translate(14,6)"/>
<path d="M0,0 L3,1 L2,4 L-3,5 L-3,2 Z " fill="#262626" transform="translate(15,8)"/>
</svg>
