<?xml version="1.0" encoding="UTF-8"?>
<svg version="1.1" xmlns="http://www.w3.org/2000/svg" width="28" height="28">
<path d="M0,0 L28,0 L28,28 L0,28 Z " fill="#030303" transform="translate(0,0)"/>
<path d="M0,0 L11,0 L10,9 L8,20 L6,20 L6,8 L3,9 L-4,9 L-5,5 Z " fill="#DFDFDF" transform="translate(10,7)"/>
<path d="M0,0 L9,0 L8,9 L6,20 L4,20 L4,10 L5,7 L3,6 L5,3 L-1,2 Z " fill="#E9E9E9" transform="translate(12,7)"/>
<path d="M0,0 L6,0 L1,5 L-4,5 L-2,1 Z " fill="#1D1D1D" transform="translate(12,9)"/>
</svg>
