<?xml version="1.0" encoding="UTF-8"?>
<svg version="1.1" xmlns="http://www.w3.org/2000/svg" width="28" height="28">
<path d="M0,0 L28,0 L28,28 L0,28 Z " fill="#010101" transform="translate(0,0)"/>
<path d="M0,0 L5,0 L5,19 L2,20 L2,10 L-4,11 L-6,9 L-5,4 Z " fill="#CFCFCF" transform="translate(14,6)"/>
<path d="M0,0 L5,0 L3,4 L3,2 L-2,5 L-4,9 L0,9 L0,11 L-5,10 L-6,6 L-1,1 Z " fill="#E0E0E0" transform="translate(14,6)"/>
<path d="M0,0 L3,0 L1,6 L-4,7 L-3,3 Z " fill="#171717" transform="translate(14,8)"/>
</svg>
