<?xml version="1.0" encoding="UTF-8"?>
<svg version="1.1" xmlns="http://www.w3.org/2000/svg" width="28" height="28">
<path d="M0,0 L28,0 L28,28 L0,28 Z " fill="#030303" transform="translate(0,0)"/>
<path d="M0,0 L7,0 L9,4 L12,5 L12,20 L10,20 L9,8 L5,9 L-2,9 L-4,7 L-3,2 Z " fill="#BEBEBE" transform="translate(9,7)"/>
<path d="M0,0 L7,0 L8,5 L6,5 L6,3 L0,4 L-1,7 L6,7 L5,9 L-2,9 L-4,7 L-3,2 Z " fill="#D9D9D9" transform="translate(9,7)"/>
<path d="M0,0 L2,0 L2,12 L0,12 L-1,3 Z " fill="#F6F6F6" transform="translate(19,15)"/>
<path d="M0,0 L6,0 L6,3 L-1,3 Z " fill="#131313" transform="translate(9,10)"/>
</svg>
