<?xml version="1.0" encoding="UTF-8"?>
<svg version="1.1" xmlns="http://www.w3.org/2000/svg" width="28" height="28">
<path d="M0,0 L28,0 L28,28 L0,28 Z " fill="#030303" transform="translate(0,0)"/>
<path d="M0,0 L5,0 L7,3 L6,11 L2,20 L-1,19 L4,6 L-2,9 L-7,8 L-6,4 L-3,1 Z " fill="#F2F2F2" transform="translate(13,7)"/>
<path d="M0,0 L2,1 L3,2 L6,3 L5,6 L1,8 L-4,7 L-3,3 Z " fill="#BEBEBE" transform="translate(10,8)"/>
<path d="M0,0 L2,2 L1,7 L-3,8 Z " fill="#D2D2D2" transform="translate(15,19)"/>
</svg>
