<?xml version="1.0" encoding="UTF-8"?>
<svg version="1.1" xmlns="http://www.w3.org/2000/svg" width="28" height="28">
<path d="M0,0 L28,0 L28,28 L0,28 Z " fill="#030303" transform="translate(0,0)"/>
<path d="M0,0 L7,0 L9,3 L4,11 L0,18 L2,19 L1,20 L-4,20 L-2,15 L-1,11 L-8,11 L-9,7 L-3,2 Z " fill="#E1E1E1" transform="translate(14,6)"/>
<path d="M0,0 L6,0 L2,5 L-5,6 L-3,2 Z " fill="#141414" transform="translate(13,9)"/>
<path d="M0,0 L4,1 L1,1 L1,3 L-7,8 L-9,10 L-8,6 L-3,2 Z " fill="#CFCFCF" transform="translate(14,6)"/>
<path d="M0,0 L1,2 L7,2 L6,4 L-1,4 Z " fill="#F8F8F8" transform="translate(7,13)"/>
</svg>
