<?xml version="1.0" encoding="UTF-8"?>
<svg version="1.1" xmlns="http://www.w3.org/2000/svg" width="28" height="28">
<path d="M0,0 L28,0 L28,28 L0,28 Z " fill="#060606" transform="translate(0,0)"/>
<path d="M0,0 L7,1 L8,8 L1,19 L-2,20 L0,15 L5,7 L-3,6 L-3,2 Z " fill="#888888" transform="translate(11,6)"/>
<path d="M0,0 L2,1 L1,7 L-6,17 L-8,17 L-6,12 L-1,4 Z " fill="#E1E1E1" transform="translate(17,9)"/>
<path d="M0,0 L4,1 L1,4 L6,4 L6,5 L-1,5 L-1,1 Z " fill="#E0E0E0" transform="translate(9,7)"/>
</svg>
