<?xml version="1.0" encoding="UTF-8"?>
<svg version="1.1" xmlns="http://www.w3.org/2000/svg" width="28" height="28">
<path d="M0,0 L28,0 L28,28 L0,28 Z " fill="#020202" transform="translate(0,0)"/>
<path d="M0,0 L6,0 L6,3 L8,3 L7,13 L5,20 L3,20 L4,8 L-3,9 L-4,8 L-4,3 Z " fill="#DBDBDB" transform="translate(12,7)"/>
<path d="M0,0 L4,1 L3,6 L-2,7 L-2,4 L-4,3 Z " fill="#C7C7C7" transform="translate(12,7)"/>
<path d="M0,0 L2,0 L1,5 L-3,5 L-2,1 Z " fill="#1D1D1D" transform="translate(13,9)"/>
</svg>
