<?xml version="1.0" encoding="UTF-8"?>
<svg version="1.1" xmlns="http://www.w3.org/2000/svg" width="28" height="28">
<path d="M0,0 L28,0 L28,28 L0,28 Z " fill="#020202" transform="translate(0,0)"/>
<path d="M0,0 L4,1 L5,7 L3,20 L1,20 L1,7 L-3,10 L-8,11 L-9,8 L-4,2 Z " fill="#E1E1E1" transform="translate(15,7)"/>
<path d="M0,0 L2,0 L0,4 L-1,7 L-8,9 L-9,6 L-6,3 L-2,1 Z " fill="#DEDEDE" transform="translate(15,9)"/>
<path d="M0,0 L2,0 L0,4 L-3,6 L-6,5 Z " fill="#333333" transform="translate(15,9)"/>
</svg>
