<?xml version="1.0" encoding="UTF-8"?>
<svg version="1.1" xmlns="http://www.w3.org/2000/svg" width="28" height="28">
<path d="M0,0 L28,0 L28,28 L0,28 Z " fill="#020202" transform="translate(0,0)"/>
<path d="M0,0 L5,1 L8,3 L7,19 L3,20 L4,11 L-4,12 L-6,8 L-3,2 Z " fill="#EAEAEA" transform="translate(12,6)"/>
<path d="M0,0 L4,1 L1,2 L5,6 L0,10 L-2,10 L-2,12 L-5,11 L-6,8 L-3,2 Z " fill="#D7D7D7" transform="translate(12,6)"/>
<path d="M0,0 L4,2 L1,6 L-4,6 L-2,2 Z " fill="#191919" transform="translate(13,9)"/>
</svg>
