<?xml version="1.0" encoding="UTF-8"?>
<svg version="1.1" xmlns="http://www.w3.org/2000/svg" width="28" height="28">
<path d="M0,0 L28,0 L28,28 L0,28 Z " fill="#030303" transform="translate(0,0)"/>
<path d="M0,0 L3,1 L2,4 L-3,19 L-6,20 L-4,10 L-10,11 L-11,6 L-7,2 Z " fill="#DCDCDC" transform="translate(18,6)"/>
<path d="M0,0 L2,0 L-1,11 L-3,16 L-5,16 L-3,7 L-1,1 Z " fill="#E7E7E7" transform="translate(17,10)"/>
<path d="M0,0 L3,0 L1,4 L-2,6 L-5,6 L-4,2 Z " fill="#1F1F1F" transform="translate(14,9)"/>
</svg>
