<?xml version="1.0" encoding="UTF-8"?>
<svg version="1.1" xmlns="http://www.w3.org/2000/svg" width="28" height="28">
<path d="M0,0 L28,0 L28,28 L0,28 Z " fill="#010101" transform="translate(0,0)"/>
<path d="M0,0 L4,2 L5,4 L5,20 L3,20 L3,9 L0,9 L1,4 L-1,5 L-2,13 L-6,13 L-5,7 L-1,1 Z " fill="#E7E7E7" transform="translate(14,6)"/>
<path d="M0,0 L2,1 L0,6 L3,6 L3,15 L2,15 L1,8 L-1,11 L-5,10 L-2,10 L-3,5 Z " fill="#AFAFAF" transform="translate(14,9)"/>
<path d="M0,0 L2,1 L-1,7 L-3,8 L-2,2 Z " fill="#2B2B2B" transform="translate(14,9)"/>
</svg>
