<?xml version="1.0" encoding="UTF-8"?>
<svg version="1.1" xmlns="http://www.w3.org/2000/svg" width="28" height="28">
<path d="M0,0 L28,0 L28,28 L0,28 Z " fill="#030303" transform="translate(0,0)"/>
<path d="M0,0 L4,1 L4,4 L7,4 L8,10 L8,20 L6,19 L5,16 L5,9 L-4,10 L-4,4 Z " fill="#EAEAEA" transform="translate(12,6)"/>
<path d="M0,0 L6,0 L7,6 L7,16 L5,15 L4,12 L4,4 L-2,3 Z " fill="#E4E4E4" transform="translate(13,10)"/>
<path d="M0,0 L6,0 L6,2 L2,4 L-2,2 Z " fill="#7F7F7F" transform="translate(13,10)"/>
</svg>
