<?xml version="1.0" encoding="UTF-8"?>
<svg version="1.1" xmlns="http://www.w3.org/2000/svg" width="28" height="28">
<path d="M0,0 L28,0 L28,28 L0,28 Z " fill="#020202" transform="translate(0,0)"/>
<path d="M0,0 L5,0 L5,3 L8,3 L6,20 L3,20 L2,9 L-5,10 L-6,5 Z " fill="#CFCFCF" transform="translate(13,7)"/>
<path d="M0,0 L1,0 L1,15 L-2,15 L-2,7 Z " fill="#E5E5E5" transform="translate(18,12)"/>
<path d="M0,0 L5,0 L6,4 L4,5 L4,2 L-2,5 L-6,8 L-5,4 Z " fill="#E8E8E8" transform="translate(13,7)"/>
<path d="M0,0 L3,0 L2,4 L-4,6 L-4,3 Z " fill="#1D1D1D" transform="translate(14,9)"/>
</svg>
