<?xml version="1.0" encoding="UTF-8"?>
<svg version="1.1" xmlns="http://www.w3.org/2000/svg" width="28" height="28">
<path d="M0,0 L28,0 L28,28 L0,28 Z " fill="#020202" transform="translate(0,0)"/>
<path d="M0,0 L9,0 L10,4 L8,5 L6,19 L3,19 L3,9 L-5,10 L-6,9 L-6,4 Z " fill="#EAEAEA" transform="translate(12,8)"/>
<path d="M0,0 L2,1 L1,2 L4,3 L4,5 L0,7 L-5,7 L-6,9 L-6,4 Z " fill="#9D9D9D" transform="translate(12,8)"/>
<path d="M0,0 L3,3 L3,9 L0,9 Z " fill="#D0D0D0" transform="translate(15,18)"/>
</svg>
