<?xml version="1.0" encoding="UTF-8"?>
<svg version="1.1" xmlns="http://www.w3.org/2000/svg" width="28" height="28">
<path d="M0,0 L28,0 L28,28 L0,28 Z " fill="#020202" transform="translate(0,0)"/>
<path d="M0,0 L6,0 L10,4 L7,15 L5,20 L4,20 L5,13 L-4,14 L-8,11 L-7,5 Z " fill="#060606" transform="translate(13,6)"/>
<path d="M0,0 L6,0 L10,4 L7,15 L5,20 L4,20 L5,13 L-4,14 L-8,11 L-7,5 Z M0,2 L-6,7 L-5,11 L-4,12 L3,12 L7,9 L7,2 Z " fill="#C6C6C6" transform="translate(13,6)"/>
<path d="M0,0 L1,3 L-2,12 L-3,12 L-3,3 Z " fill="#E1E1E1" transform="translate(20,14)"/>
</svg>
