<?xml version="1.0" encoding="UTF-8"?>
<svg version="1.1" xmlns="http://www.w3.org/2000/svg" width="28" height="28">
<path d="M0,0 L28,0 L28,28 L0,28 Z " fill="#020202" transform="translate(0,0)"/>
<path d="M0,0 L5,1 L4,8 L-4,19 L-7,20 L-6,16 L-2,11 L-9,11 L-9,5 L-3,1 Z " fill="#DBDBDB" transform="translate(17,6)"/>
<path d="M0,0 L3,1 L2,8 L-6,19 L-9,20 L-8,16 L-4,11 L-2,11 L-1,7 L1,2 L-1,1 Z " fill="#E6E6E6" transform="translate(19,6)"/>
<path d="M0,0 L5,0 L4,3 L-3,6 L-6,6 L-4,2 Z " fill="#161616" transform="translate(15,9)"/>
</svg>
