<?xml version="1.0" encoding="UTF-8"?>
<svg version="1.1" xmlns="http://www.w3.org/2000/svg" width="28" height="28">
<path d="M0,0 L28,0 L28,28 L0,28 Z " fill="#070707" transform="translate(0,0)"/>
<path d="M0,0 L3,0 L5,3 L4,7 L-6,20 L-8,19 L-1,9 L-8,10 L-9,6 L-3,1 Z " fill="#EBEBEB" transform="translate(16,7)"/>
<path d="M0,0 L2,0 L0,5 L-5,11 L-7,10 Z " fill="#D4D4D4" transform="translate(15,16)"/>
<path d="M0,0 L5,0 L5,2 L1,4 L-5,4 L-2,1 Z " fill="#1D1D1D" transform="translate(14,10)"/>
<path d="M0,0 L3,0 L5,3 L4,7 L1,5 L3,5 L3,3 L-3,2 Z " fill="#C7C7C7" transform="translate(16,7)"/>
</svg>
