<?xml version="1.0" encoding="UTF-8"?>
<svg version="1.1" xmlns="http://www.w3.org/2000/svg" width="28" height="28">
<path d="M0,0 L28,0 L28,28 L0,28 Z " fill="#020202" transform="translate(0,0)"/>
<path d="M0,0 L7,0 L7,2 L11,1 L12,5 L6,14 L0,20 L-3,20 L-3,17 L1,16 L2,13 L4,13 L6,9 L7,7 L1,10 L-6,10 L-8,6 L-7,3 Z " fill="#D8D8D8" transform="translate(12,7)"/>
<path d="M0,0 L3,0 L1,4 L-1,5 L-9,5 L-5,1 Z " fill="#151515" transform="translate(15,9)"/>
<path d="M0,0 L2,1 L3,3 L-4,5 L-7,5 L-7,3 Z " fill="#CACACA" transform="translate(12,7)"/>
<path d="M0,0 L2,2 L7,3 L7,5 L1,5 L-1,1 Z " fill="#F9F9F9" transform="translate(5,12)"/>
</svg>
