<?xml version="1.0" encoding="UTF-8"?>
<svg version="1.1" xmlns="http://www.w3.org/2000/svg" width="28" height="28">
<path d="M0,0 L28,0 L28,28 L0,28 Z " fill="#020202" transform="translate(0,0)"/>
<path d="M0,0 L5,1 L7,2 L6,20 L4,20 L3,18 L4,9 L-4,10 L-7,7 L-7,2 Z " fill="#D0D0D0" transform="translate(13,7)"/>
<path d="M0,0 L5,1 L5,4 L-2,3 L-4,7 L2,8 L0,10 L-5,9 L-7,7 L-7,2 Z " fill="#E6E6E6" transform="translate(13,7)"/>
<path d="M0,0 L5,0 L6,4 L4,5 L-2,5 L-1,1 Z " fill="#232323" transform="translate(11,9)"/>
</svg>
