<?xml version="1.0" encoding="UTF-8"?>
<svg version="1.1" xmlns="http://www.w3.org/2000/svg" width="28" height="28">
<path d="M0,0 L28,0 L28,28 L0,28 Z " fill="#020202" transform="translate(0,0)"/>
<path d="M0,0 L8,0 L13,4 L13,7 L11,7 L13,13 L13,20 L10,19 L9,8 L2,8 L-1,5 Z " fill="#D5D5D5" transform="translate(7,7)"/>
<path d="M0,0 L8,0 L8,3 L1,3 L1,5 L8,7 L8,8 L2,8 L-1,5 Z " fill="#E6E6E6" transform="translate(7,7)"/>
<path d="M0,0 L5,1 L6,4 L0,4 L-2,3 L-2,1 Z " fill="#1F1F1F" transform="translate(10,9)"/>
<path d="M0,0 L3,1 L3,8 L0,7 Z " fill="#EDEDED" transform="translate(17,19)"/>
</svg>
