<?xml version="1.0" encoding="UTF-8"?>
<svg version="1.1" xmlns="http://www.w3.org/2000/svg" width="28" height="28">
<path d="M0,0 L28,0 L28,28 L0,28 Z " fill="#010101" transform="translate(0,0)"/>
<path d="M0,0 L4,0 L5,2 L5,13 L3,20 L2,16 L2,11 L-3,12 L-4,11 L-3,4 Z " fill="#C4C4C4" transform="translate(13,7)"/>
<path d="M0,0 L4,0 L3,5 L1,8 L-2,8 L-2,3 Z " fill="#0D0D0D" transform="translate(13,9)"/>
<path d="M0,0 L1,0 L1,11 L-1,18 L-2,14 L-2,5 Z " fill="#DEDEDE" transform="translate(17,9)"/>
</svg>
