<?xml version="1.0" encoding="UTF-8"?>
<svg version="1.1" xmlns="http://www.w3.org/2000/svg" width="28" height="28">
<path d="M0,0 L28,0 L28,28 L0,28 Z " fill="#010101" transform="translate(0,0)"/>
<path d="M0,0 L4,1 L5,4 L7,4 L6,20 L5,20 L3,11 L0,13 L-4,12 L-5,11 L-5,5 Z " fill="#B8B8B8" transform="translate(13,6)"/>
<path d="M0,0 L3,0 L5,5 L1,9 L-3,9 L-3,3 Z " fill="#070707" transform="translate(13,8)"/>
<path d="M0,0 L2,0 L1,16 L0,16 L-2,5 Z " fill="#D3D3D3" transform="translate(18,10)"/>
</svg>
