<?xml version="1.0" encoding="UTF-8"?>
<svg version="1.1" xmlns="http://www.w3.org/2000/svg" width="28" height="28">
<path d="M0,0 L28,0 L28,28 L0,28 Z " fill="#020202" transform="translate(0,0)"/>
<path d="M0,0 L4,1 L4,10 L3,14 L1,14 L1,19 L-3,19 L-2,15 L0,9 L-1,10 L-7,10 L-7,5 L-5,5 L-5,3 Z " fill="#C8C8C8" transform="translate(15,6)"/>
<path d="M0,0 L2,1 L1,6 L-1,10 L-7,10 L-7,5 L-5,5 L-5,3 Z " fill="#BABABA" transform="translate(15,6)"/>
<path d="M0,0 L2,1 L2,10 L-1,10 L-2,6 L-2,3 Z " fill="#F3F3F3" transform="translate(17,6)"/>
</svg>
