<?xml version="1.0" encoding="UTF-8"?>
<svg version="1.1" xmlns="http://www.w3.org/2000/svg" width="28" height="28">
<path d="M0,0 L28,0 L28,28 L0,28 Z " fill="#040404" transform="translate(0,0)"/>
<path d="M0,0 L6,0 L12,10 L11,17 L7,19 L0,19 L1,16 L10,16 L8,9 L1,11 L-3,6 L-2,1 Z " fill="#DDDDDD" transform="translate(10,6)"/>
<path d="M0,0 L4,2 L3,9 L-1,11 L-8,11 L-7,8 L2,8 Z " fill="#D8D8D8" transform="translate(18,14)"/>
<path d="M0,0 L6,0 L5,5 L1,6 L-1,1 Z " fill="#1B1B1B" transform="translate(10,8)"/>
</svg>
