<?xml version="1.0" encoding="UTF-8"?>
<svg version="1.1" xmlns="http://www.w3.org/2000/svg" width="28" height="28">
<path d="M0,0 L28,0 L28,28 L0,28 Z " fill="#030303" transform="translate(0,0)"/>
<path d="M0,0 L8,1 L8,11 L5,18 L3,20 L0,20 L0,18 L3,15 L5,12 L6,6 L5,3 L1,3 L-1,8 L3,7 L0,10 L-4,9 L-5,4 Z " fill="#E4E4E4" transform="translate(12,7)"/>
<path d="M0,0 L4,1 L4,3 L6,4 L2,6 L-2,6 L-1,1 Z " fill="#636363" transform="translate(13,9)"/>
<path d="M0,0 L1,4 L-3,9 L-6,9 L-6,7 L-3,4 Z " fill="#DCDCDC" transform="translate(18,18)"/>
</svg>
