<?xml version="1.0" encoding="UTF-8"?>
<svg version="1.1" xmlns="http://www.w3.org/2000/svg" width="28" height="28">
<path d="M0,0 L28,0 L28,28 L0,28 Z " fill="#020202" transform="translate(0,0)"/>
<path d="M0,0 L2,1 L-1,7 L4,5 L6,1 L7,5 L2,11 L1,14 L-1,14 L-2,18 L-4,18 L-3,13 L-2,9 L-4,5 Z " fill="#ECECEC" transform="translate(13,8)"/>
<path d="M0,0 L5,1 L5,7 L3,4 L-2,9 L-4,9 L-2,1 Z " fill="#BFBFBF" transform="translate(16,6)"/>
<path d="M0,0 L2,1 L0,7 L-1,10 L-4,7 L-2,2 Z " fill="#CDCDCD" transform="translate(13,8)"/>
<path d="M0,0 L2,1 L1,5 L-4,7 L-2,2 L0,2 Z " fill="#1A1A1A" transform="translate(16,8)"/>
</svg>
