<?xml version="1.0" encoding="UTF-8"?>
<svg version="1.1" xmlns="http://www.w3.org/2000/svg" width="28" height="28">
<path d="M0,0 L28,0 L28,28 L0,28 Z " fill="#020202" transform="translate(0,0)"/>
<path d="M0,0 L7,0 L6,4 L-2,20 L-5,19 L-3,13 L-3,11 L-9,10 L-9,5 L-4,2 Z " fill="#EBEBEB" transform="translate(16,6)"/>
<path d="M0,0 L4,0 L4,2 L9,1 L9,3 L7,3 L5,7 L0,8 L-2,7 L-2,2 Z " fill="#E8E8E8" transform="translate(9,9)"/>
<path d="M0,0 L3,0 L3,2 L-1,4 L-5,3 Z " fill="#232323" transform="translate(15,10)"/>
</svg>
