<?xml version="1.0" encoding="UTF-8"?>
<svg version="1.1" xmlns="http://www.w3.org/2000/svg" width="28" height="28">
<path d="M0,0 L28,0 L28,28 L0,28 Z " fill="#030303" transform="translate(0,0)"/>
<path d="M0,0 L6,0 L9,2 L9,15 L10,19 L6,20 L5,19 L5,13 L-4,13 L-6,11 L-6,6 L-2,1 Z " fill="#EFEFEF" transform="translate(11,6)"/>
<path d="M0,0 L2,1 L6,2 L6,8 L5,10 L7,12 L-2,12 L-4,10 L-4,5 Z " fill="#E8E8E8" transform="translate(9,7)"/>
<path d="M0,0 L4,0 L4,6 L3,7 L-2,7 L-2,3 Z " fill="#131313" transform="translate(11,9)"/>
</svg>
