<?xml version="1.0" encoding="UTF-8"?>
<svg version="1.1" xmlns="http://www.w3.org/2000/svg" width="28" height="28">
<path d="M0,0 L28,0 L28,28 L0,28 Z " fill="#010101" transform="translate(0,0)"/>
<path d="M0,0 L6,1 L4,20 L1,20 L2,9 L-4,9 L-4,4 Z " fill="#D9D9D9" transform="translate(13,7)"/>
<path d="M0,0 L4,0 L3,3 L0,3 L-2,7 L3,8 L2,10 L-4,9 L-4,4 Z " fill="#E8E8E8" transform="translate(13,7)"/>
<path d="M0,0 L1,0 L1,10 L-2,10 L-1,1 Z " fill="#EAEAEA" transform="translate(16,17)"/>
<path d="M0,0 L4,1 L3,4 L-2,5 Z " fill="#333333" transform="translate(13,9)"/>
</svg>
