<?xml version="1.0" encoding="UTF-8"?>
<svg version="1.1" xmlns="http://www.w3.org/2000/svg" width="28" height="28">
<path d="M0,0 L28,0 L28,28 L0,28 Z " fill="#020202" transform="translate(0,0)"/>
<path d="M0,0 L7,1 L10,3 L9,9 L7,15 L4,20 L2,20 L4,11 L5,9 L1,10 L-2,8 L-2,2 Z " fill="#E6E6E6" transform="translate(10,7)"/>
<path d="M0,0 L2,0 L1,8 L-3,14 L-5,14 L-3,2 Z " fill="#E5E5E5" transform="translate(17,13)"/>
<path d="M0,0 L5,0 L5,2 L0,5 L-2,6 L-1,1 Z " fill="#F0F0F0" transform="translate(10,7)"/>
<path d="M0,0 L4,0 L5,3 L0,4 Z " fill="#282828" transform="translate(11,10)"/>
</svg>
