<?xml version="1.0" encoding="UTF-8"?>
<svg version="1.1" xmlns="http://www.w3.org/2000/svg" width="28" height="28">
<path d="M0,0 L28,0 L28,28 L0,28 Z " fill="#020202" transform="translate(0,0)"/>
<path d="M0,0 L3,0 L4,6 L0,13 L-3,20 L-6,20 L-3,10 L-8,10 L-8,5 L-3,1 Z " fill="#F3F3F3" transform="translate(17,6)"/>
<path d="M0,0 L3,0 L4,6 L2,7 L2,4 L-8,7 L-6,3 Z " fill="#F1F1F1" transform="translate(17,6)"/>
<path d="M0,0 L3,0 L3,2 L0,5 L-1,8 L-1,6 L-6,6 L-5,2 Z " fill="#959595" transform="translate(15,10)"/>
<path d="M0,0 L1,2 L3,2 L2,6 L1,8 L-2,8 Z " fill="#D0D0D0" transform="translate(13,18)"/>
</svg>
