<?xml version="1.0" encoding="UTF-8"?>
<svg version="1.1" xmlns="http://www.w3.org/2000/svg" width="28" height="28">
<path d="M0,0 L28,0 L28,28 L0,28 Z " fill="#030303" transform="translate(0,0)"/>
<path d="M0,0 L7,0 L8,6 L5,20 L2,20 L2,14 L4,9 L-3,10 L-3,4 Z " fill="#A5A5A5" transform="translate(12,7)"/>
<path d="M0,0 L1,0 L1,10 L0,14 L-3,14 L-3,8 L-2,3 Z " fill="#E9E9E9" transform="translate(17,13)"/>
<path d="M0,0 L3,0 L1,5 L0,7 L3,8 L-2,9 L-2,3 Z " fill="#F1F1F1" transform="translate(11,8)"/>
</svg>
