<?xml version="1.0" encoding="UTF-8"?>
<svg version="1.1" xmlns="http://www.w3.org/2000/svg" width="28" height="28">
<path d="M0,0 L28,0 L28,28 L0,28 Z " fill="#030303" transform="translate(0,0)"/>
<path d="M0,0 L7,1 L8,3 L7,19 L4,20 L3,19 L3,10 L-1,12 L-6,11 L-8,9 L-7,4 Z " fill="#EDEDED" transform="translate(13,6)"/>
<path d="M0,0 L4,0 L3,6 L-1,11 L-4,12 L-8,9 L-7,4 Z " fill="#E7E7E7" transform="translate(13,6)"/>
<path d="M0,0 L4,1 L0,6 L-4,6 L-2,2 Z " fill="#1B1B1B" transform="translate(13,9)"/>
</svg>
