<?xml version="1.0" encoding="UTF-8"?>
<svg version="1.1" xmlns="http://www.w3.org/2000/svg" width="28" height="28">
<path d="M0,0 L28,0 L28,28 L0,28 Z " fill="#030303" transform="translate(0,0)"/>
<path d="M0,0 L4,1 L4,7 L-2,16 L-5,20 L-7,20 L-6,16 L-1,10 L-10,10 L-10,5 Z " fill="#F8F8F8" transform="translate(17,6)"/>
<path d="M0,0 L5,1 L3,5 L-5,6 L-5,3 Z " fill="#222222" transform="translate(14,9)"/>
<path d="M0,0 L3,1 L1,4 L-5,5 L-8,8 L-8,10 L-10,10 L-10,5 Z " fill="#D3D3D3" transform="translate(17,6)"/>
<path d="M0,0 L2,0 L1,6 L-3,11 L-5,11 L-4,7 L0,3 Z " fill="#DADADA" transform="translate(15,15)"/>
</svg>
