<?xml version="1.0" encoding="UTF-8"?>
<svg version="1.1" xmlns="http://www.w3.org/2000/svg" width="28" height="28">
<path d="M0,0 L28,0 L28,28 L0,28 Z " fill="#020202" transform="translate(0,0)"/>
<path d="M0,0 L4,0 L3,5 L-8,20 L-10,20 L-8,15 L-5,11 L-8,9 L-7,4 Z " fill="#E4E4E4" transform="translate(18,7)"/>
<path d="M0,0 L4,0 L5,3 L-1,11 L-3,11 L-1,6 L2,2 Z " fill="#CECECE" transform="translate(11,16)"/>
<path d="M0,0 L1,3 L-1,5 L-7,5 L-4,2 Z " fill="#272727" transform="translate(18,9)"/>
</svg>
