<?xml version="1.0" encoding="UTF-8"?>
<svg version="1.1" xmlns="http://www.w3.org/2000/svg" width="28" height="28">
<path d="M0,0 L28,0 L28,28 L0,28 Z " fill="#030303" transform="translate(0,0)"/>
<path d="M0,0 L5,1 L7,3 L7,11 L4,19 L2,20 L3,13 L6,5 L4,5 L3,8 L-2,10 L-7,10 L-8,6 L-2,1 Z " fill="#E3E3E3" transform="translate(13,7)"/>
<path d="M0,0 L2,1 L2,4 L-2,6 L-7,6 L-6,3 L-1,1 Z " fill="#191919" transform="translate(14,9)"/>
<path d="M0,0 L2,3 L-1,11 L-3,12 L-2,5 Z " fill="#C0C0C0" transform="translate(18,15)"/>
<path d="M0,0 L2,2 L-1,3 L-1,5 L1,7 L-3,8 L-4,4 Z " fill="#C6C6C6" transform="translate(9,9)"/>
</svg>
