<?xml version="1.0" encoding="UTF-8"?>
<svg version="1.1" xmlns="http://www.w3.org/2000/svg" width="28" height="28">
<path d="M0,0 L28,0 L28,28 L0,28 Z " fill="#010101" transform="translate(0,0)"/>
<path d="M0,0 L9,0 L10,7 L7,19 L4,20 L5,12 L6,9 L-3,10 L-4,9 L-3,2 Z " fill="#CACACA" transform="translate(11,7)"/>
<path d="M0,0 L2,1 L1,2 L8,3 L6,7 L3,7 L3,9 L-3,10 L-4,9 L-3,2 Z " fill="#DEDEDE" transform="translate(11,7)"/>
<path d="M0,0 L7,0 L7,6 L4,9 L1,9 L1,7 L5,5 L6,3 L-2,3 Z " fill="#ECECEC" transform="translate(13,7)"/>
<path d="M0,0 L7,0 L5,4 L-3,4 L-3,2 Z " fill="#181818" transform="translate(12,10)"/>
</svg>
