<?xml version="1.0" encoding="UTF-8"?>
<svg version="1.1" xmlns="http://www.w3.org/2000/svg" width="28" height="28">
<path d="M0,0 L28,0 L28,28 L0,28 Z " fill="#010101" transform="translate(0,0)"/>
<path d="M0,0 L6,0 L9,5 L10,11 L11,18 L10,20 L7,20 L6,12 L4,12 L-1,11 L-3,9 L-2,2 Z " fill="#E3E3E3" transform="translate(10,6)"/>
<path d="M0,0 L6,1 L4,5 L0,7 L-1,2 Z " fill="#171717" transform="translate(11,8)"/>
<path d="M0,0 L3,1 L4,4 L7,7 L4,8 L0,5 Z " fill="#CBCBCB" transform="translate(7,10)"/>
</svg>
