<?xml version="1.0" encoding="UTF-8"?>
<svg version="1.1" xmlns="http://www.w3.org/2000/svg" width="28" height="28">
<path d="M0,0 L28,0 L28,28 L0,28 Z " fill="#030303" transform="translate(0,0)"/>
<path d="M0,0 L5,0 L6,4 L1,9 L-5,20 L-7,20 L-6,15 L-2,9 L-8,9 L-8,4 Z " fill="#E7E7E7" transform="translate(17,7)"/>
<path d="M0,0 L5,0 L6,4 L2,6 L2,4 L0,4 L0,6 L-6,7 L-2,3 L-3,1 Z " fill="#C3C3C3" transform="translate(17,7)"/>
<path d="M0,0 L5,0 L2,1 L2,3 L-4,4 Z " fill="#141414" transform="translate(15,10)"/>
</svg>
