<?xml version="1.0" encoding="UTF-8"?>
<svg version="1.1" xmlns="http://www.w3.org/2000/svg" width="28" height="28">
<path d="M0,0 L28,0 L28,28 L0,28 Z " fill="#020202" transform="translate(0,0)"/>
<path d="M0,0 L7,1 L9,4 L8,11 L2,20 L0,19 L2,14 L5,10 L-2,9 L-3,8 L-3,3 Z " fill="#D9D9D9" transform="translate(11,7)"/>
<path d="M0,0 L7,1 L7,7 L1,8 L-3,4 Z " fill="#D8D8D8" transform="translate(11,7)"/>
<path d="M0,0 L3,1 L2,6 L0,7 L-8,6 L-9,1 L-8,3 L-2,4 L0,3 Z " fill="#F4F4F4" transform="translate(17,10)"/>
<path d="M0,0 L5,0 L4,5 L0,4 Z " fill="#151515" transform="translate(11,10)"/>
</svg>
