<?xml version="1.0" encoding="UTF-8"?>
<svg version="1.1" xmlns="http://www.w3.org/2000/svg" width="28" height="28">
<path d="M0,0 L28,0 L28,28 L0,28 Z " fill="#020202" transform="translate(0,0)"/>
<path d="M0,0 L5,0 L6,1 L6,8 L2,15 L1,20 L-2,19 L-1,13 L0,10 L-5,10 L-6,9 L-6,4 Z " fill="#E3E3E3" transform="translate(14,7)"/>
<path d="M0,0 L5,0 L6,1 L6,8 L3,5 L3,3 L-3,4 L-2,10 L-6,9 L-6,4 Z " fill="#ECECEC" transform="translate(14,7)"/>
<path d="M0,0 L4,0 L4,2 L-2,5 L-3,3 Z " fill="#2F2F2F" transform="translate(13,10)"/>
</svg>
