<?xml version="1.0" encoding="UTF-8"?>
<svg version="1.1" xmlns="http://www.w3.org/2000/svg" width="28" height="28">
<path d="M0,0 L28,0 L28,28 L0,28 Z " fill="#020202" transform="translate(0,0)"/>
<path d="M0,0 L5,1 L6,6 L3,18 L2,20 L-1,19 L1,15 L1,11 L-5,12 L-6,7 L-3,2 Z " fill="#DBDBDB" transform="translate(14,6)"/>
<path d="M0,0 L3,1 L4,6 L1,18 L0,20 L-3,19 L-1,15 L-2,8 L1,7 L1,2 L-1,1 Z " fill="#E0E0E0" transform="translate(16,6)"/>
<path d="M0,0 L2,0 L2,5 L-1,7 L-5,7 L-3,2 Z " fill="#282828" transform="translate(15,8)"/>
</svg>
