<?xml version="1.0" encoding="UTF-8"?>
<svg version="1.1" xmlns="http://www.w3.org/2000/svg" width="28" height="28">
<path d="M0,0 L28,0 L28,28 L0,28 Z " fill="#020202" transform="translate(0,0)"/>
<path d="M0,0 L2,1 L4,7 L3,18 L2,20 L0,18 L0,11 L-5,11 L-6,6 Z " fill="#DBDBDB" transform="translate(15,6)"/>
<path d="M0,0 L1,0 L1,7 L0,4 L-3,6 L-4,10 L-2,11 L-6,10 L-5,5 Z " fill="#EAEAEA" transform="translate(15,6)"/>
<path d="M0,0 L2,0 L2,5 L-2,5 L-1,1 Z " fill="#111111" transform="translate(13,10)"/>
</svg>
