<?xml version="1.0" encoding="UTF-8"?>
<svg version="1.1" xmlns="http://www.w3.org/2000/svg" width="28" height="28">
<path d="M0,0 L28,0 L28,28 L0,28 Z " fill="#020202" transform="translate(0,0)"/>
<path d="M0,0 L4,1 L5,20 L2,19 L1,9 L-4,10 L-5,3 Z " fill="#BEBEBE" transform="translate(13,6)"/>
<path d="M0,0 L1,0 L2,19 L-1,18 L-2,8 L-4,7 L-1,4 Z " fill="#C6C6C6" transform="translate(16,7)"/>
<path d="M0,0 L3,0 L2,5 L-2,6 L-1,1 Z " fill="#0B0B0B" transform="translate(12,8)"/>
<path d="M0,0 L1,0 L1,12 L0,12 L0,7 L-4,8 L-1,4 Z " fill="#F7F7F7" transform="translate(16,7)"/>
</svg>
