<?xml version="1.0" encoding="UTF-8"?>
<svg version="1.1" xmlns="http://www.w3.org/2000/svg" width="28" height="28">
<path d="M0,0 L28,0 L28,28 L0,28 Z " fill="#020202" transform="translate(0,0)"/>
<path d="M0,0 L6,0 L10,3 L9,10 L5,20 L2,20 L5,10 L-5,11 L-6,6 L-2,1 Z " fill="#DBDBDB" transform="translate(12,7)"/>
<path d="M0,0 L3,0 L2,3 L0,3 L-1,7 L6,6 L6,9 L-3,10 L-4,5 Z " fill="#EBEBEB" transform="translate(10,8)"/>
<path d="M0,0 L6,0 L4,4 L-3,5 L-2,1 Z " fill="#0F0F0F" transform="translate(12,10)"/>
</svg>
