<?xml version="1.0" encoding="UTF-8"?>
<svg version="1.1" xmlns="http://www.w3.org/2000/svg" width="28" height="28">
<path d="M0,0 L28,0 L28,28 L0,28 Z " fill="#010101" transform="translate(0,0)"/>
<path d="M0,0 L7,0 L10,3 L7,15 L5,20 L3,20 L3,15 L5,9 L-3,9 L-4,4 Z " fill="#DADADA" transform="translate(11,7)"/>
<path d="M0,0 L6,0 L6,4 L-1,5 L-1,1 Z " fill="#252525" transform="translate(11,9)"/>
<path d="M0,0 L3,1 L2,4 L7,5 L7,7 L0,7 L-1,2 Z " fill="#EDEDED" transform="translate(8,9)"/>
<path d="M0,0 L1,2 L-1,7 L-3,7 L-3,2 Z " fill="#AFAFAF" transform="translate(17,20)"/>
</svg>
