<?xml version="1.0" encoding="UTF-8"?>
<svg version="1.1" xmlns="http://www.w3.org/2000/svg" width="28" height="28">
<path d="M0,0 L28,0 L28,28 L0,28 Z " fill="#020202" transform="translate(0,0)"/>
<path d="M0,0 L5,1 L7,1 L11,0 L13,5 L13,20 L9,20 L10,5 L8,5 L6,10 L-1,16 L-5,15 L-6,12 L-2,2 Z " fill="#DBDBDB" transform="translate(10,6)"/>
<path d="M0,0 L5,1 L6,3 L0,3 L-2,13 L5,7 L6,10 L-1,16 L-5,15 L-6,12 L-2,2 Z " fill="#E9E9E9" transform="translate(10,6)"/>
<path d="M0,0 L5,1 L4,5 L0,10 L-2,10 L-1,3 Z " fill="#0F0F0F" transform="translate(10,9)"/>
</svg>
