<?xml version="1.0" encoding="UTF-8"?>
<svg version="1.1" xmlns="http://www.w3.org/2000/svg" width="28" height="28">
<path d="M0,0 L28,0 L28,28 L0,28 Z " fill="#020202" transform="translate(0,0)"/>
<path d="M0,0 L6,0 L8,1 L7,9 L2,16 L1,20 L-2,19 L0,13 L2,10 L-3,9 L-4,4 Z " fill="#DEDEDE" transform="translate(13,7)"/>
<path d="M0,0 L6,0 L7,3 L0,4 L-4,6 L-2,1 Z " fill="#E9E9E9" transform="translate(13,7)"/>
<path d="M0,0 L6,0 L4,4 L-1,5 L-1,1 Z " fill="#101010" transform="translate(13,10)"/>
</svg>
