<?xml version="1.0" encoding="UTF-8"?>
<svg version="1.1" xmlns="http://www.w3.org/2000/svg" width="28" height="28">
<path d="M0,0 L28,0 L28,28 L0,28 Z " fill="#020202" transform="translate(0,0)"/>
<path d="M0,0 L4,1 L5,8 L5,19 L3,20 L2,18 L2,11 L-1,13 L-6,13 L-7,12 L-6,5 L-2,1 Z " fill="#E4E4E4" transform="translate(14,6)"/>
<path d="M0,0 L2,0 L2,5 L-3,8 L-5,7 L-4,3 Z " fill="#181818" transform="translate(14,9)"/>
<path d="M0,0 L2,0 L3,2 L3,8 L1,9 L0,7 Z " fill="#D1D1D1" transform="translate(16,17)"/>
</svg>
