<?xml version="1.0" encoding="UTF-8"?>
<svg version="1.1" xmlns="http://www.w3.org/2000/svg" width="28" height="28">
<path d="M0,0 L28,0 L28,28 L0,28 Z " fill="#020202" transform="translate(0,0)"/>
<path d="M0,0 L6,0 L7,3 L2,7 L-6,20 L-9,20 L-8,15 L-4,10 L-11,8 L-10,4 L-5,1 Z " fill="#E9E9E9" transform="translate(17,7)"/>
<path d="M0,0 L7,1 L7,3 L3,7 L2,9 L-5,8 L-6,4 Z " fill="#CFCFCF" transform="translate(12,8)"/>
<path d="M0,0 L5,0 L3,3 L-4,4 L-4,2 Z " fill="#262626" transform="translate(13,10)"/>
</svg>
