<?xml version="1.0" encoding="UTF-8"?>
<svg version="1.1" xmlns="http://www.w3.org/2000/svg" width="28" height="28">
<path d="M0,0 L28,0 L28,28 L0,28 Z " fill="#030303" transform="translate(0,0)"/>
<path d="M0,0 L5,2 L6,13 L4,17 L-1,20 L-1,17 L3,13 L4,9 L-3,10 L-4,9 L-3,2 Z " fill="#C6C6C6" transform="translate(13,6)"/>
<path d="M0,0 L1,0 L3,10 L1,14 L-4,17 L-4,14 L0,10 L1,6 L-5,7 L-2,4 L0,4 Z " fill="#EAEAEA" transform="translate(16,9)"/>
<path d="M0,0 L2,0 L2,5 L-2,6 L-1,1 Z " fill="#1A1A1A" transform="translate(13,8)"/>
</svg>
