<?xml version="1.0" encoding="UTF-8"?>
<svg version="1.1" xmlns="http://www.w3.org/2000/svg" width="28" height="28">
<path d="M0,0 L28,0 L28,28 L0,28 Z " fill="#020202" transform="translate(0,0)"/>
<path d="M0,0 L5,0 L8,2 L10,2 L8,8 L5,13 L2,20 L1,17 L3,11 L-4,8 L-3,3 Z " fill="#E0E0E0" transform="translate(11,7)"/>
<path d="M0,0 L5,0 L6,4 L4,6 L-1,6 L-2,2 Z " fill="#080808" transform="translate(11,9)"/>
<path d="M0,0 L5,0 L4,2 L-1,4 L-2,9 L-4,8 L-3,3 Z " fill="#C6C6C6" transform="translate(11,7)"/>
</svg>
