<?xml version="1.0" encoding="UTF-8"?>
<svg version="1.1" xmlns="http://www.w3.org/2000/svg" width="28" height="28">
<path d="M0,0 L28,0 L28,28 L0,28 Z " fill="#020202" transform="translate(0,0)"/>
<path d="M0,0 L5,0 L6,4 L8,5 L2,14 L0,20 L-2,20 L-1,14 L-7,14 L-8,9 L-4,3 Z " fill="#EBEBEB" transform="translate(15,6)"/>
<path d="M0,0 L3,0 L2,7 L-3,10 L-6,10 L-5,4 Z " fill="#141414" transform="translate(16,8)"/>
<path d="M0,0 L5,0 L6,3 L4,6 L4,2 L-3,6 L-5,12 L-8,13 L-7,7 L-3,2 Z " fill="#DDDDDD" transform="translate(15,6)"/>
<path d="M0,0 L2,4 L0,7 L-2,8 L-1,2 Z " fill="#C4C4C4" transform="translate(9,11)"/>
</svg>
