<?xml version="1.0" encoding="UTF-8"?>
<svg version="1.1" xmlns="http://www.w3.org/2000/svg" width="28" height="28">
<path d="M0,0 L28,0 L28,28 L0,28 Z " fill="#010101" transform="translate(0,0)"/>
<path d="M0,0 L4,1 L6,7 L5,13 L1,20 L-2,20 L-1,16 L0,13 L-4,12 L-5,11 L-5,5 Z " fill="#ECECEC" transform="translate(14,5)"/>
<path d="M0,0 L3,1 L3,6 L1,8 L-2,8 L-3,6 L-4,11 L-5,11 L-5,5 Z " fill="#D1D1D1" transform="translate(14,5)"/>
<path d="M0,0 L3,0 L2,4 L-2,5 Z " fill="#1D1D1D" transform="translate(14,8)"/>
</svg>
