<?xml version="1.0" encoding="UTF-8"?>
<svg version="1.1" xmlns="http://www.w3.org/2000/svg" width="28" height="28">
<path d="M0,0 L28,0 L28,28 L0,28 Z " fill="#010101" transform="translate(0,0)"/>
<path d="M0,0 L8,0 L7,8 L6,17 L7,20 L3,18 L2,17 L2,10 L-5,10 L-7,9 L-6,4 Z " fill="#E8E8E8" transform="translate(13,7)"/>
<path d="M0,0 L2,1 L1,5 L-6,6 L-6,3 Z " fill="#252525" transform="translate(16,9)"/>
<path d="M0,0 L8,0 L8,1 L3,2 L0,4 L-5,6 L-7,9 L-6,4 Z " fill="#B3B3B3" transform="translate(13,7)"/>
</svg>
