<?xml version="1.0" encoding="UTF-8"?>
<svg version="1.1" xmlns="http://www.w3.org/2000/svg" width="28" height="28">
<path d="M0,0 L28,0 L28,28 L0,28 Z " fill="#020202" transform="translate(0,0)"/>
<path d="M0,0 L6,0 L9,2 L8,18 L5,20 L-2,19 L-3,16 L5,17 L4,8 L-1,4 Z " fill="#F3F3F3" transform="translate(10,5)"/>
<path d="M0,0 L6,0 L9,2 L8,18 L7,18 L7,6 L-1,4 Z " fill="#939393" transform="translate(10,5)"/>
<path d="M0,0 L2,1 L0,5 L-7,4 L-8,1 L0,2 Z " fill="#DCDCDC" transform="translate(15,20)"/>
</svg>
