<?xml version="1.0" encoding="UTF-8"?>
<svg version="1.1" xmlns="http://www.w3.org/2000/svg" width="28" height="28">
<path d="M0,0 L28,0 L28,28 L0,28 Z " fill="#030303" transform="translate(0,0)"/>
<path d="M0,0 L5,1 L6,2 L6,11 L3,20 L0,20 L1,15 L2,12 L-5,11 L-5,4 Z " fill="#E8E8E8" transform="translate(13,6)"/>
<path d="M0,0 L4,2 L4,11 L1,20 L-2,20 L-1,10 L1,7 L1,3 L-1,1 Z " fill="#F1F1F1" transform="translate(15,6)"/>
<path d="M0,0 L4,0 L3,5 L2,6 L-3,6 L-2,2 Z " fill="#1E1E1E" transform="translate(13,9)"/>
</svg>
