<?xml version="1.0" encoding="UTF-8"?>
<svg version="1.1" xmlns="http://www.w3.org/2000/svg" width="28" height="28">
<path d="M0,0 L28,0 L28,28 L0,28 Z " fill="#030303" transform="translate(0,0)"/>
<path d="M0,0 L6,1 L5,7 L-1,20 L-3,20 L-2,14 L-7,14 L-9,12 L-8,7 L-3,2 Z " fill="#E8E8E8" transform="translate(16,6)"/>
<path d="M0,0 L1,4 L-3,13 L-5,13 L-4,7 L-9,7 L-11,5 L-10,1 L-8,1 L-8,5 L-3,4 L-2,1 Z " fill="#F3F3F3" transform="translate(18,13)"/>
<path d="M0,0 L3,0 L2,5 L-2,9 L-5,9 L-4,4 Z " fill="#151515" transform="translate(15,9)"/>
</svg>
