<?xml version="1.0" encoding="UTF-8"?>
<svg version="1.1" xmlns="http://www.w3.org/2000/svg" width="28" height="28">
<path d="M0,0 L28,0 L28,28 L0,28 Z " fill="#020202" transform="translate(0,0)"/>
<path d="M0,0 L1,3 L0,5 L6,3 L9,0 L8,8 L3,16 L0,15 L2,10 L4,10 L3,8 L-2,6 L-1,1 Z " fill="#E6E6E6" transform="translate(10,10)"/>
<path d="M0,0 L5,0 L8,2 L8,8 L6,6 L3,9 L-2,9 L-3,3 Z " fill="#C5C5C5" transform="translate(12,6)"/>
<path d="M0,0 L4,0 L3,5 L2,6 L-3,6 L-1,1 Z " fill="#0E0E0E" transform="translate(13,9)"/>
</svg>
