<?xml version="1.0" encoding="UTF-8"?>
<svg version="1.1" xmlns="http://www.w3.org/2000/svg" width="28" height="28">
<path d="M0,0 L28,0 L28,28 L0,28 Z " fill="#030303" transform="translate(0,0)"/>
<path d="M0,0 L6,0 L9,3 L7,8 L5,18 L7,19 L4,20 L3,19 L3,10 L-5,10 L-7,8 L-6,3 Z " fill="#D9D9D9" transform="translate(12,7)"/>
<path d="M0,0 L2,0 L1,11 L3,12 L0,13 L-1,12 L-1,3 L-9,3 L-9,1 Z " fill="#EAEAEA" transform="translate(16,14)"/>
<path d="M0,0 L6,0 L5,6 L-3,6 L-2,2 Z " fill="#090909" transform="translate(11,9)"/>
<path d="M0,0 L2,0 L0,4 L-2,8 L-4,7 L-3,2 Z " fill="#C0C0C0" transform="translate(9,8)"/>
</svg>
