<?xml version="1.0" encoding="UTF-8"?>
<svg version="1.1" xmlns="http://www.w3.org/2000/svg" width="28" height="28">
<path d="M0,0 L28,0 L28,28 L0,28 Z " fill="#020202" transform="translate(0,0)"/>
<path d="M0,0 L4,1 L5,2 L5,9 L-1,20 L-3,20 L-2,15 L0,12 L-5,11 L-5,5 Z " fill="#DBDBDB" transform="translate(14,6)"/>
<path d="M0,0 L1,3 L8,0 L8,6 L3,14 L1,14 L2,9 L4,6 L-1,5 Z " fill="#F2F2F2" transform="translate(10,12)"/>
<path d="M0,0 L3,0 L2,5 L-2,6 L-1,1 Z " fill="#202020" transform="translate(14,9)"/>
</svg>
