<?xml version="1.0" encoding="UTF-8"?>
<svg version="1.1" xmlns="http://www.w3.org/2000/svg" width="28" height="28">
<path d="M0,0 L28,0 L28,28 L0,28 Z " fill="#020202" transform="translate(0,0)"/>
<path d="M0,0 L6,1 L7,7 L2,15 L-2,20 L-4,20 L-3,16 L-1,13 L-5,10 L-4,3 Z " fill="#E2E2E2" transform="translate(14,6)"/>
<path d="M0,0 L4,1 L3,5 L-2,7 L-4,7 L-3,3 Z " fill="#131313" transform="translate(15,8)"/>
<path d="M0,0 L6,1 L4,3 L0,4 L-2,5 L-4,3 Z " fill="#D2D2D2" transform="translate(14,6)"/>
</svg>
