<?xml version="1.0" encoding="UTF-8"?>
<svg version="1.1" xmlns="http://www.w3.org/2000/svg" width="28" height="28">
<path d="M0,0 L28,0 L28,28 L0,28 Z " fill="#020202" transform="translate(0,0)"/>
<path d="M0,0 L5,1 L5,7 L4,9 L3,20 L1,18 L0,12 L-4,13 L-5,12 L-5,6 Z " fill="#D5D5D5" transform="translate(14,6)"/>
<path d="M0,0 L1,4 L-2,9 L-5,10 L-4,3 Z " fill="#0D0D0D" transform="translate(16,7)"/>
<path d="M0,0 L3,1 L0,3 L-3,11 L-4,11 L-4,5 Z " fill="#B9B9B9" transform="translate(13,7)"/>
</svg>
