<?xml version="1.0" encoding="UTF-8"?>
<svg version="1.1" xmlns="http://www.w3.org/2000/svg" width="28" height="28">
<path d="M0,0 L28,0 L28,28 L0,28 Z " fill="#020202" transform="translate(0,0)"/>
<path d="M0,0 L6,1 L5,11 L0,20 L-3,19 L1,11 L-4,11 L-6,9 L-5,3 Z " fill="#DEDEDE" transform="translate(14,6)"/>
<path d="M0,0 L2,1 L10,1 L9,6 L5,14 L2,13 L6,5 L1,5 L-1,1 Z " fill="#F2F2F2" transform="translate(9,12)"/>
<path d="M0,0 L5,0 L6,5 L-1,5 L-1,1 Z " fill="#1F1F1F" transform="translate(12,9)"/>
<path d="M0,0 L2,4 L-1,9 L-4,8 Z " fill="#D4D4D4" transform="translate(15,17)"/>
</svg>
