<?xml version="1.0" encoding="UTF-8"?>
<svg version="1.1" xmlns="http://www.w3.org/2000/svg" width="28" height="28">
<path d="M0,0 L28,0 L28,28 L0,28 Z " fill="#010101" transform="translate(0,0)"/>
<path d="M0,0 L5,1 L5,9 L2,15 L-3,20 L-2,15 L1,10 L-4,10 L-5,9 L-5,4 Z " fill="#D1D1D1" transform="translate(14,6)"/>
<path d="M0,0 L5,1 L5,9 L3,6 L-5,6 L-3,2 Z " fill="#B7B7B7" transform="translate(14,6)"/>
<path d="M0,0 L1,0 L1,6 L-8,5 L-7,1 L0,2 Z " fill="#FAFAFA" transform="translate(17,10)"/>
</svg>
