<?xml version="1.0" encoding="UTF-8"?>
<svg version="1.1" xmlns="http://www.w3.org/2000/svg" width="28" height="28">
<path d="M0,0 L28,0 L28,28 L0,28 Z " fill="#020202" transform="translate(0,0)"/>
<path d="M0,0 L6,0 L8,2 L7,6 L4,10 L2,19 L-1,19 L0,17 L0,11 L-5,10 L-6,4 L-3,1 Z " fill="#DADADA" transform="translate(14,6)"/>
<path d="M0,0 L7,0 L6,4 L4,7 L-3,6 L-3,2 Z " fill="#0B0B0B" transform="translate(13,8)"/>
<path d="M0,0 L6,0 L5,2 L-4,4 L-4,8 L1,8 L-3,10 L-5,10 L-6,4 L-3,1 Z " fill="#C2C2C2" transform="translate(14,6)"/>
</svg>
