<?xml version="1.0" encoding="UTF-8"?>
<svg version="1.1" xmlns="http://www.w3.org/2000/svg" width="28" height="28">
<path d="M0,0 L28,0 L28,28 L0,28 Z " fill="#020202" transform="translate(0,0)"/>
<path d="M0,0 L6,0 L11,2 L8,11 L6,19 L3,20 L4,11 L5,8 L-1,10 L-4,8 L-4,3 Z " fill="#E0E0E0" transform="translate(11,7)"/>
<path d="M0,0 L1,2 L-2,9 L-4,17 L-7,18 L-6,9 L-4,5 L-6,4 Z " fill="#EBEBEB" transform="translate(21,9)"/>
<path d="M0,0 L8,0 L5,3 L-1,4 Z " fill="#090909" transform="translate(11,10)"/>
</svg>
