<?xml version="1.0" encoding="UTF-8"?>
<svg version="1.1" xmlns="http://www.w3.org/2000/svg" width="28" height="28">
<path d="M0,0 L28,0 L28,28 L0,28 Z " fill="#030303" transform="translate(0,0)"/>
<path d="M0,0 L5,0 L4,10 L-5,20 L-6,16 L-2,12 L-7,10 L-7,5 L-3,3 L-3,1 Z " fill="#EDEDED" transform="translate(16,6)"/>
<path d="M0,0 L5,0 L5,6 L2,5 L2,7 L-5,8 L-3,2 Z " fill="#E6E6E6" transform="translate(16,6)"/>
<path d="M0,0 L4,1 L2,4 L-5,5 L-4,2 Z " fill="#1E1E1E" transform="translate(16,9)"/>
</svg>
