<?xml version="1.0" encoding="UTF-8"?>
<svg version="1.1" xmlns="http://www.w3.org/2000/svg" width="28" height="28">
<path d="M0,0 L28,0 L28,28 L0,28 Z " fill="#020202" transform="translate(0,0)"/>
<path d="M0,0 L7,1 L10,9 L10,20 L8,19 L7,10 L5,12 L0,11 L-2,8 L-2,2 Z " fill="#D1D1D1" transform="translate(10,6)"/>
<path d="M0,0 L4,0 L4,8 L0,7 L-1,6 L-1,1 Z " fill="#050505" transform="translate(11,8)"/>
<path d="M0,0 L5,0 L1,3 L0,9 L-2,8 L-2,2 Z " fill="#E8E8E8" transform="translate(10,6)"/>
</svg>
