<?xml version="1.0" encoding="UTF-8"?>
<svg version="1.1" xmlns="http://www.w3.org/2000/svg" width="28" height="28">
<path d="M0,0 L28,0 L28,28 L0,28 Z " fill="#040404" transform="translate(0,0)"/>
<path d="M0,0 L4,1 L7,3 L6,13 L4,20 L1,19 L2,10 L-2,12 L-7,11 L-8,7 L-3,2 Z " fill="#EBEBEB" transform="translate(14,6)"/>
<path d="M0,0 L2,0 L0,6 L-3,9 L-8,8 L-9,4 L-7,2 L-3,1 Z " fill="#DDDDDD" transform="translate(15,9)"/>
<path d="M0,0 L2,0 L1,4 L-2,6 L-6,6 L-4,2 Z " fill="#141414" transform="translate(15,9)"/>
</svg>
