<?xml version="1.0" encoding="UTF-8"?>
<svg version="1.1" xmlns="http://www.w3.org/2000/svg" width="28" height="28">
<path d="M0,0 L28,0 L28,28 L0,28 Z " fill="#010101" transform="translate(0,0)"/>
<path d="M0,0 L4,0 L5,7 L3,3 L-3,6 L-4,8 L2,5 L1,13 L-2,19 L-4,20 L-3,15 L-3,12 L-7,11 L-7,6 Z " fill="#DBDBDB" transform="translate(16,6)"/>
<path d="M0,0 L3,1 L1,8 L-2,10 L-1,5 Z " fill="#C9C9C9" transform="translate(14,16)"/>
<path d="M0,0 L3,0 L4,3 L0,4 L-4,5 L-3,2 Z " fill="#2C2C2C" transform="translate(16,9)"/>
</svg>
