<?xml version="1.0" encoding="UTF-8"?>
<svg version="1.1" xmlns="http://www.w3.org/2000/svg" width="28" height="28">
<path d="M0,0 L28,0 L28,28 L0,28 Z " fill="#020202" transform="translate(0,0)"/>
<path d="M0,0 L4,1 L5,7 L3,19 L0,20 L2,11 L-3,12 L-5,10 L-5,5 Z " fill="#D4D4D4" transform="translate(14,6)"/>
<path d="M0,0 L1,3 L-1,15 L-4,16 L-2,7 L-7,8 L-8,6 L-3,4 Z " fill="#EDEDED" transform="translate(18,10)"/>
<path d="M0,0 L4,0 L3,5 L2,6 L-3,6 L-1,1 Z " fill="#131313" transform="translate(13,9)"/>
<path d="M0,0 L3,1 L2,9 L-1,10 L0,1 Z " fill="#C3C3C3" transform="translate(15,16)"/>
</svg>
