<?xml version="1.0" encoding="UTF-8"?>
<svg version="1.1" xmlns="http://www.w3.org/2000/svg" width="28" height="28">
<path d="M0,0 L28,0 L28,28 L0,28 Z " fill="#020202" transform="translate(0,0)"/>
<path d="M0,0 L5,0 L7,2 L6,15 L8,16 L1,20 L-5,19 L-5,16 L3,15 L3,12 L-2,12 L-5,9 L-5,3 Z " fill="#EEEEEE" transform="translate(13,5)"/>
<path d="M0,0 L1,0 L1,9 L3,10 L-4,14 L-10,13 L-10,10 L-2,9 Z " fill="#D2D2D2" transform="translate(18,11)"/>
<path d="M0,0 L3,0 L3,7 L-2,7 L-4,5 L-3,1 Z " fill="#1A1A1A" transform="translate(14,7)"/>
<path d="M0,0 L3,3 L7,5 L7,7 L2,7 L-1,4 Z " fill="#C1C1C1" transform="translate(9,10)"/>
</svg>
