<?xml version="1.0" encoding="UTF-8"?>
<svg version="1.1" xmlns="http://www.w3.org/2000/svg" width="28" height="28">
<path d="M0,0 L28,0 L28,28 L0,28 Z " fill="#020202" transform="translate(0,0)"/>
<path d="M0,0 L5,1 L7,3 L10,3 L12,19 L9,20 L7,9 L3,12 L-2,11 L-4,9 L-3,2 Z " fill="#CECECE" transform="translate(10,6)"/>
<path d="M0,0 L5,1 L7,3 L10,3 L12,19 L9,20 L9,7 L6,7 L2,3 L0,2 Z " fill="#F0F0F0" transform="translate(10,6)"/>
<path d="M0,0 L5,3 L3,7 L-2,7 L-2,2 Z " fill="#060606" transform="translate(11,8)"/>
<path d="M0,0 L1,0 L2,12 L-1,13 Z " fill="#DADADA" transform="translate(20,13)"/>
</svg>
