<?xml version="1.0" encoding="UTF-8"?>
<svg version="1.1" xmlns="http://www.w3.org/2000/svg" width="28" height="28">
<path d="M0,0 L28,0 L28,28 L0,28 Z " fill="#010101" transform="translate(0,0)"/>
<path d="M0,0 L6,1 L10,13 L10,19 L7,19 L6,8 L-2,8 L-3,3 L-2,5 L4,4 L-1,2 Z " fill="#E5E5E5" transform="translate(11,7)"/>
<path d="M0,0 L2,0 L4,9 L3,13 L1,12 Z " fill="#CACACA" transform="translate(17,14)"/>
<path d="M0,0 L5,2 L7,4 L6,5 L-2,5 L-1,1 Z " fill="#717171" transform="translate(9,7)"/>
</svg>
