<?xml version="1.0" encoding="UTF-8"?>
<svg version="1.1" xmlns="http://www.w3.org/2000/svg" width="28" height="28">
<path d="M0,0 L28,0 L28,28 L0,28 Z " fill="#020202" transform="translate(0,0)"/>
<path d="M0,0 L5,0 L13,5 L11,13 L7,18 L4,20 L0,20 L0,18 L6,15 L9,11 L9,6 L5,4 L1,3 L3,7 L-1,6 L-1,1 Z " fill="#DEDEDE" transform="translate(9,6)"/>
<path d="M0,0 L5,1 L8,4 L2,4 L-1,1 Z " fill="#6B6B6B" transform="translate(10,8)"/>
<path d="M0,0 L4,2 L1,4 L3,5 L3,7 L-1,6 L-1,1 Z " fill="#C9C9C9" transform="translate(9,6)"/>
</svg>
