<?xml version="1.0" encoding="UTF-8"?>
<svg version="1.1" xmlns="http://www.w3.org/2000/svg" width="28" height="28">
<path d="M0,0 L28,0 L28,28 L0,28 Z " fill="#020202" transform="translate(0,0)"/>
<path d="M0,0 L8,1 L7,8 L6,20 L4,20 L3,16 L3,9 L-3,9 L-5,7 L-4,3 Z " fill="#E0E0E0" transform="translate(12,7)"/>
<path d="M0,0 L2,0 L1,7 L0,19 L-2,19 L-4,7 Z " fill="#E7E7E7" transform="translate(18,8)"/>
<path d="M0,0 L4,1 L3,6 L-2,5 L-1,1 Z " fill="#0E0E0E" transform="translate(12,9)"/>
<path d="M0,0 L6,1 L4,5 L3,3 L-2,4 L-2,1 Z " fill="#AAAAAA" transform="translate(12,7)"/>
</svg>
