<?xml version="1.0" encoding="UTF-8"?>
<svg version="1.1" xmlns="http://www.w3.org/2000/svg" width="28" height="28">
<path d="M0,0 L28,0 L28,28 L0,28 Z " fill="#010101" transform="translate(0,0)"/>
<path d="M0,0 L3,0 L3,7 L-1,20 L-3,20 L-2,11 L-5,10 L-4,4 Z " fill="#D7D7D7" transform="translate(15,6)"/>
<path d="M0,0 L3,0 L3,7 L1,7 L0,2 L-2,9 L-5,10 L-4,4 Z " fill="#E1E1E1" transform="translate(15,6)"/>
<path d="M0,0 L2,1 L2,8 L0,7 L-2,10 L-4,8 Z " fill="#747474" transform="translate(15,8)"/>
</svg>
