<?xml version="1.0" encoding="UTF-8"?>
<svg version="1.1" xmlns="http://www.w3.org/2000/svg" width="28" height="28">
<path d="M0,0 L28,0 L28,28 L0,28 Z " fill="#020202" transform="translate(0,0)"/>
<path d="M0,0 L5,0 L7,2 L6,8 L6,15 L3,20 L1,20 L2,15 L3,9 L-6,10 L-8,6 L-3,1 Z " fill="#D0D0D0" transform="translate(14,7)"/>
<path d="M0,0 L5,0 L7,2 L6,8 L6,15 L3,20 L1,20 L2,15 L4,5 L4,3 L-1,2 Z " fill="#ECECEC" transform="translate(14,7)"/>
<path d="M0,0 L5,1 L4,4 L-5,6 L-4,2 Z " fill="#121212" transform="translate(14,9)"/>
<path d="M0,0 L2,1 L1,6 L-2,7 L-1,2 Z " fill="#C7C7C7" transform="translate(17,20)"/>
</svg>
