<?xml version="1.0" encoding="UTF-8"?>
<svg version="1.1" xmlns="http://www.w3.org/2000/svg" width="28" height="28">
<path d="M0,0 L28,0 L28,28 L0,28 Z " fill="#010101" transform="translate(0,0)"/>
<path d="M0,0 L5,0 L8,6 L9,17 L7,20 L6,8 L-1,9 L-3,8 L-3,2 Z " fill="#DCDCDC" transform="translate(11,7)"/>
<path d="M0,0 L5,0 L5,2 L0,4 L0,6 L3,7 L3,9 L-3,8 L-3,2 Z " fill="#E3E3E3" transform="translate(11,7)"/>
<path d="M0,0 L3,1 L3,4 L-3,4 L-2,1 Z " fill="#151515" transform="translate(13,9)"/>
</svg>
