<?xml version="1.0" encoding="UTF-8"?>
<svg version="1.1" xmlns="http://www.w3.org/2000/svg" width="28" height="28">
<path d="M0,0 L28,0 L28,28 L0,28 Z " fill="#020202" transform="translate(0,0)"/>
<path d="M0,0 L6,0 L8,2 L10,7 L9,17 L7,20 L5,20 L8,8 L-1,8 L-3,7 L-2,2 Z " fill="#D4D4D4" transform="translate(10,7)"/>
<path d="M0,0 L3,4 L2,14 L0,17 L-2,17 L1,5 L-8,5 L-7,3 L0,3 Z " fill="#F4F4F4" transform="translate(17,10)"/>
<path d="M0,0 L6,0 L7,3 L0,3 Z " fill="#101010" transform="translate(10,10)"/>
<path d="M0,0 L1,0 L0,7 L-3,8 L-1,1 Z " fill="#DEDEDE" transform="translate(18,19)"/>
</svg>
