<?xml version="1.0" encoding="UTF-8"?>
<svg version="1.1" xmlns="http://www.w3.org/2000/svg" width="28" height="28">
<path d="M0,0 L28,0 L28,28 L0,28 Z " fill="#020202" transform="translate(0,0)"/>
<path d="M0,0 L5,1 L8,3 L8,19 L5,20 L5,9 L3,10 L-3,10 L-4,9 L-3,2 Z " fill="#DADADA" transform="translate(11,6)"/>
<path d="M0,0 L5,1 L3,4 L0,4 L-1,8 L3,8 L3,10 L-3,10 L-4,9 L-3,2 Z " fill="#DCDCDC" transform="translate(11,6)"/>
<path d="M0,0 L5,1 L3,5 L-1,5 Z " fill="#1D1D1D" transform="translate(11,9)"/>
</svg>
