<?xml version="1.0" encoding="UTF-8"?>
<svg version="1.1" xmlns="http://www.w3.org/2000/svg" width="28" height="28">
<path d="M0,0 L28,0 L28,28 L0,28 Z " fill="#030303" transform="translate(0,0)"/>
<path d="M0,0 L5,0 L9,4 L8,8 L8,19 L5,20 L5,9 L-2,9 L-3,4 Z " fill="#DBDBDB" transform="translate(11,6)"/>
<path d="M0,0 L1,3 L1,14 L-2,15 L-2,2 Z " fill="#F5F5F5" transform="translate(18,11)"/>
<path d="M0,0 L4,1 L4,4 L-2,5 L-1,1 Z " fill="#1C1C1C" transform="translate(12,8)"/>
<path d="M0,0 L1,4 L6,4 L4,6 L-1,5 Z " fill="#F5F5F5" transform="translate(9,9)"/>
</svg>
