<?xml version="1.0" encoding="UTF-8"?>
<svg version="1.1" xmlns="http://www.w3.org/2000/svg" width="28" height="28">
<path d="M0,0 L28,0 L28,28 L0,28 Z " fill="#020202" transform="translate(0,0)"/>
<path d="M0,0 L5,1 L8,4 L9,13 L10,20 L7,20 L5,8 L1,10 L-4,9 L-3,3 Z " fill="#E0E0E0" transform="translate(11,7)"/>
<path d="M0,0 L2,4 L0,4 L1,7 L-3,6 L-2,1 Z " fill="#E4E4E4" transform="translate(10,10)"/>
<path d="M0,0 L2,0 L3,5 L-1,7 L-2,4 L0,4 Z " fill="#919191" transform="translate(12,10)"/>
</svg>
