<?xml version="1.0" encoding="UTF-8"?>
<svg version="1.1" xmlns="http://www.w3.org/2000/svg" width="28" height="28">
<path d="M0,0 L28,0 L28,28 L0,28 Z " fill="#030303" transform="translate(0,0)"/>
<path d="M0,0 L9,0 L13,3 L13,5 L11,5 L9,15 L9,20 L6,20 L6,11 L0,12 L-4,7 L-3,2 Z " fill="#E0E0E0" transform="translate(9,7)"/>
<path d="M0,0 L8,0 L6,5 L5,6 L-1,6 L-2,1 Z " fill="#090909" transform="translate(10,10)"/>
<path d="M0,0 L6,0 L8,4 L-1,2 Z " fill="#F3F3F3" transform="translate(14,8)"/>
</svg>
