<?xml version="1.0" encoding="UTF-8"?>
<svg version="1.1" xmlns="http://www.w3.org/2000/svg" width="28" height="28">
<path d="M0,0 L28,0 L28,28 L0,28 Z " fill="#020202" transform="translate(0,0)"/>
<path d="M0,0 L5,1 L6,2 L6,20 L3,20 L3,10 L-2,9 L-3,8 L-3,3 Z " fill="#DCDCDC" transform="translate(12,6)"/>
<path d="M0,0 L2,0 L2,17 L-1,17 L0,6 L-2,5 Z " fill="#F3F3F3" transform="translate(16,9)"/>
<path d="M0,0 L1,0 L1,8 L-2,8 L-2,2 Z " fill="#DDDDDD" transform="translate(17,18)"/>
<path d="M0,0 L3,1 L2,6 L-1,6 L-1,1 Z " fill="#161616" transform="translate(13,8)"/>
</svg>
