<?xml version="1.0" encoding="UTF-8"?>
<svg version="1.1" xmlns="http://www.w3.org/2000/svg" width="28" height="28">
<path d="M0,0 L28,0 L28,28 L0,28 Z " fill="#020202" transform="translate(0,0)"/>
<path d="M0,0 L7,0 L10,4 L9,19 L5,20 L7,9 L2,11 L-3,10 L-4,9 L-3,2 Z " fill="#E3E3E3" transform="translate(10,6)"/>
<path d="M0,0 L5,0 L8,4 L7,19 L3,20 L5,10 L6,8 L4,7 L4,2 L-1,2 Z " fill="#ECECEC" transform="translate(12,6)"/>
<path d="M0,0 L4,0 L5,4 L1,7 L-4,6 L-3,2 Z " fill="#1D1D1D" transform="translate(12,8)"/>
</svg>
