<?xml version="1.0" encoding="UTF-8"?>
<svg version="1.1" xmlns="http://www.w3.org/2000/svg" width="28" height="28">
<path d="M0,0 L28,0 L28,28 L0,28 Z " fill="#010101" transform="translate(0,0)"/>
<path d="M0,0 L5,0 L9,5 L8,12 L8,20 L5,19 L5,12 L0,13 L-5,10 L-4,3 Z " fill="#E7E7E7" transform="translate(12,6)"/>
<path d="M0,0 L5,1 L4,8 L-2,8 L-2,2 Z " fill="#0B0B0B" transform="translate(12,8)"/>
<path d="M0,0 L5,0 L7,4 L5,7 L4,3 L-1,4 L-2,9 L-5,7 L-3,2 Z " fill="#CACACA" transform="translate(12,6)"/>
<path d="M0,0 L3,0 L3,8 L0,7 Z " fill="#D0D0D0" transform="translate(17,18)"/>
</svg>
