<?xml version="1.0" encoding="UTF-8"?>
<svg version="1.1" xmlns="http://www.w3.org/2000/svg" width="28" height="28">
<path d="M0,0 L28,0 L28,28 L0,28 Z " fill="#010101" transform="translate(0,0)"/>
<path d="M0,0 L5,1 L9,4 L8,9 L7,19 L4,19 L4,11 L-1,11 L-3,9 L-3,2 Z " fill="#DBDBDB" transform="translate(11,6)"/>
<path d="M0,0 L5,1 L7,4 L0,3 L1,8 L3,9 L3,11 L-2,10 L-3,9 L-3,2 Z " fill="#E2E2E2" transform="translate(11,6)"/>
<path d="M0,0 L5,1 L4,5 L-1,4 Z " fill="#111111" transform="translate(11,9)"/>
</svg>
