<?xml version="1.0" encoding="UTF-8"?>
<svg version="1.1" xmlns="http://www.w3.org/2000/svg" width="28" height="28">
<path d="M0,0 L28,0 L28,28 L0,28 Z " fill="#010101" transform="translate(0,0)"/>
<path d="M0,0 L5,1 L7,3 L8,19 L4,19 L4,11 L-2,11 L-4,10 L-4,4 Z " fill="#C5C5C5" transform="translate(12,6)"/>
<path d="M0,0 L5,1 L7,3 L7,6 L5,6 L5,3 L-1,5 L-2,10 L-4,10 L-4,4 Z " fill="#D3D3D3" transform="translate(12,6)"/>
<path d="M0,0 L5,0 L4,5 L1,7 L-2,7 L-2,2 Z " fill="#0D0D0D" transform="translate(12,9)"/>
</svg>
