<?xml version="1.0" encoding="UTF-8"?>
<svg version="1.1" xmlns="http://www.w3.org/2000/svg" width="28" height="28">
<path d="M0,0 L28,0 L28,28 L0,28 Z " fill="#010101" transform="translate(0,0)"/>
<path d="M0,0 L5,1 L3,17 L2,20 L0,20 L0,12 L-5,11 L-5,5 Z " fill="#CACACA" transform="translate(14,6)"/>
<path d="M0,0 L5,1 L4,8 L1,10 L0,7 L3,2 L-2,5 L-5,9 L-4,3 Z " fill="#DFDFDF" transform="translate(14,6)"/>
<path d="M0,0 L3,0 L2,4 L0,8 L-3,8 L-3,3 Z " fill="#0F0F0F" transform="translate(14,8)"/>
</svg>
