<?xml version="1.0" encoding="UTF-8"?>
<svg version="1.1" xmlns="http://www.w3.org/2000/svg" width="28" height="28">
<path d="M0,0 L28,0 L28,28 L0,28 Z " fill="#010101" transform="translate(0,0)"/>
<path d="M0,0 L7,1 L9,3 L9,6 L7,6 L5,17 L4,20 L0,19 L1,14 L2,11 L-4,10 L-5,5 Z " fill="#DCDCDC" transform="translate(13,6)"/>
<path d="M0,0 L7,1 L9,3 L9,6 L4,6 L3,7 L-2,7 L-4,3 Z " fill="#D8D8D8" transform="translate(13,6)"/>
<path d="M0,0 L5,0 L6,4 L-3,5 L-1,1 Z " fill="#0C0C0C" transform="translate(14,8)"/>
</svg>
