<?xml version="1.0" encoding="UTF-8"?>
<svg version="1.1" xmlns="http://www.w3.org/2000/svg" width="28" height="28">
<path d="M0,0 L28,0 L28,28 L0,28 Z " fill="#020202" transform="translate(0,0)"/>
<path d="M0,0 L6,1 L5,10 L1,19 L-1,20 L0,14 L3,8 L-3,10 L-5,8 L-4,3 Z " fill="#D7D7D7" transform="translate(13,7)"/>
<path d="M0,0 L6,1 L6,3 L0,3 L-3,4 L-3,7 L-1,8 L-4,9 L-5,5 Z " fill="#D8D8D8" transform="translate(13,7)"/>
<path d="M0,0 L4,0 L2,4 L-3,5 L-3,2 Z " fill="#1E1E1E" transform="translate(13,9)"/>
</svg>
