<?xml version="1.0" encoding="UTF-8"?>
<svg version="1.1" xmlns="http://www.w3.org/2000/svg" width="28" height="28">
<path d="M0,0 L28,0 L28,28 L0,28 Z " fill="#020202" transform="translate(0,0)"/>
<path d="M0,0 L6,0 L8,2 L8,5 L10,6 L7,7 L4,16 L2,20 L0,20 L1,14 L4,8 L-4,8 L-4,3 Z " fill="#E4E4E4" transform="translate(12,7)"/>
<path d="M0,0 L6,0 L8,2 L8,5 L5,6 L-2,6 Z " fill="#C7C7C7" transform="translate(12,7)"/>
<path d="M0,0 L2,0 L2,4 L-5,4 L-4,1 Z " fill="#282828" transform="translate(15,9)"/>
</svg>
