<?xml version="1.0" encoding="UTF-8"?>
<svg version="1.1" xmlns="http://www.w3.org/2000/svg" width="28" height="28">
<path d="M0,0 L28,0 L28,28 L0,28 Z " fill="#010101" transform="translate(0,0)"/>
<path d="M0,0 L5,0 L7,4 L1,13 L-1,19 L-4,20 L-3,13 L-2,11 L-7,9 L-6,5 L-3,2 Z " fill="#BABABA" transform="translate(15,6)"/>
<path d="M0,0 L3,1 L1,5 L-3,12 L-5,18 L-8,19 L-7,12 L-6,10 L-4,10 L-4,8 L-6,8 L-6,6 L-1,3 Z " fill="#E3E3E3" transform="translate(19,7)"/>
<path d="M0,0 L2,2 L2,7 L-2,9 L-1,2 Z " fill="#C6C6C6" transform="translate(13,17)"/>
<path d="M0,0 L3,0 L1,4 L-5,6 L-3,2 Z " fill="#1A1A1A" transform="translate(16,8)"/>
</svg>
