<?xml version="1.0" encoding="UTF-8"?>
<svg version="1.1" xmlns="http://www.w3.org/2000/svg" width="28" height="28">
<path d="M0,0 L28,0 L28,28 L0,28 Z " fill="#030303" transform="translate(0,0)"/>
<path d="M0,0 L5,0 L7,3 L6,7 L0,18 L-4,20 L-3,16 L0,10 L-5,9 L-6,4 Z " fill="#D8D8D8" transform="translate(14,6)"/>
<path d="M0,0 L3,0 L2,4 L-4,15 L-8,17 L-7,13 L-5,10 L-6,5 L-1,4 Z " fill="#F0F0F0" transform="translate(18,9)"/>
<path d="M0,0 L5,0 L4,4 L1,5 L-2,4 Z " fill="#0F0F0F" transform="translate(13,9)"/>
</svg>
