<?xml version="1.0" encoding="UTF-8"?>
<svg version="1.1" xmlns="http://www.w3.org/2000/svg" width="28" height="28">
<path d="M0,0 L28,0 L28,28 L0,28 Z " fill="#040404" transform="translate(0,0)"/>
<path d="M0,0 L6,0 L8,2 L7,7 L5,7 L3,12 L0,18 L-4,18 L-2,13 L0,13 L0,11 L-8,13 L-11,12 L-12,7 L-7,3 Z " fill="#E5E5E5" transform="translate(16,7)"/>
<path d="M0,0 L6,0 L8,2 L7,7 L5,7 L3,12 L0,18 L-4,18 L-2,13 L0,13 L0,11 L-3,9 L-2,7 L4,4 L5,2 L-3,3 Z " fill="#E8E8E8" transform="translate(16,7)"/>
<path d="M0,0 L6,0 L4,4 L-6,7 L-6,4 Z " fill="#141414" transform="translate(15,9)"/>
<path d="M0,0 L2,0 L0,4 L-4,5 L-7,7 L-5,3 Z " fill="#CDCDCD" transform="translate(11,9)"/>
</svg>
