<?xml version="1.0" encoding="UTF-8"?>
<svg version="1.1" xmlns="http://www.w3.org/2000/svg" width="28" height="28">
<path d="M0,0 L28,0 L28,28 L0,28 Z " fill="#020202" transform="translate(0,0)"/>
<path d="M0,0 L2,0 L1,4 L-4,17 L-7,18 L-6,12 L-4,7 L-9,7 L-10,3 L-8,3 L-8,5 L-2,3 Z " fill="#E0E0E0" transform="translate(18,8)"/>
<path d="M0,0 L5,1 L2,6 L1,7 L-4,7 L-4,5 L-6,4 Z " fill="#B8B8B8" transform="translate(14,6)"/>
<path d="M0,0 L2,0 L1,4 L0,5 L-5,5 L-5,3 Z " fill="#0A0A0A" transform="translate(15,8)"/>
</svg>
