<?xml version="1.0" encoding="UTF-8"?>
<svg version="1.1" xmlns="http://www.w3.org/2000/svg" width="28" height="28">
<path d="M0,0 L28,0 L28,28 L0,28 Z " fill="#020202" transform="translate(0,0)"/>
<path d="M0,0 L5,1 L4,6 L1,12 L-1,12 L-2,17 L-5,20 L-7,20 L-6,16 L-4,12 L-10,13 L-12,11 L-11,6 L-3,1 Z " fill="#D9D9D9" transform="translate(18,6)"/>
<path d="M0,0 L4,0 L3,3 L-2,4 L-7,7 L-9,7 L-9,9 L-4,10 L-7,13 L-11,12 L-12,7 L-3,1 Z " fill="#E1E1E1" transform="translate(18,6)"/>
<path d="M0,0 L4,1 L0,2 L1,5 L-2,8 L-9,8 L-8,5 Z " fill="#121212" transform="translate(17,8)"/>
</svg>
