<?xml version="1.0" encoding="UTF-8"?>
<svg version="1.1" xmlns="http://www.w3.org/2000/svg" width="28" height="28">
<path d="M0,0 L28,0 L28,28 L0,28 Z " fill="#030303" transform="translate(0,0)"/>
<path d="M0,0 L5,1 L6,6 L1,15 L-1,20 L-4,20 L-3,15 L-2,11 L-8,11 L-9,7 L-5,2 Z " fill="#E8E8E8" transform="translate(15,6)"/>
<path d="M0,0 L1,3 L-3,7 L-8,7 L-6,2 Z " fill="#191919" transform="translate(17,8)"/>
<path d="M0,0 L3,1 L2,3 L-4,5 L-6,7 L-6,3 Z " fill="#CCCCCC" transform="translate(15,6)"/>
<path d="M0,0 L1,0 L1,5 L-3,6 L-2,1 Z " fill="#C9C9C9" transform="translate(14,20)"/>
</svg>
