<?xml version="1.0" encoding="UTF-8"?>
<svg version="1.1" xmlns="http://www.w3.org/2000/svg" width="28" height="28">
<path d="M0,0 L28,0 L28,28 L0,28 Z " fill="#020202" transform="translate(0,0)"/>
<path d="M0,0 L5,0 L6,4 L-1,15 L-4,20 L-7,20 L-5,15 L-2,12 L-2,10 L-8,10 L-10,7 L-6,3 Z " fill="#E9E9E9" transform="translate(16,6)"/>
<path d="M0,0 L4,0 L3,3 L-2,6 L-7,6 L-5,2 Z " fill="#191919" transform="translate(16,8)"/>
<path d="M0,0 L2,1 L0,3 L-2,10 L-5,15 L-8,15 L-6,10 L-3,7 L-3,2 Z " fill="#D0D0D0" transform="translate(17,11)"/>
</svg>
