<?xml version="1.0" encoding="UTF-8"?>
<svg version="1.1" xmlns="http://www.w3.org/2000/svg" width="28" height="28">
<path d="M0,0 L28,0 L28,28 L0,28 Z " fill="#020202" transform="translate(0,0)"/>
<path d="M0,0 L6,0 L6,6 L-1,16 L-4,20 L-6,20 L-4,15 L-1,10 L-7,10 L-9,7 L-4,2 Z " fill="#E0E0E0" transform="translate(16,7)"/>
<path d="M0,0 L4,1 L2,5 L-3,6 L-5,4 Z " fill="#151515" transform="translate(16,9)"/>
<path d="M0,0 L4,2 L-3,5 L-3,8 L-6,8 L-6,6 L-8,5 Z " fill="#C4C4C4" transform="translate(16,7)"/>
</svg>
