<?xml version="1.0" encoding="UTF-8"?>
<svg version="1.1" xmlns="http://www.w3.org/2000/svg" width="28" height="28">
<path d="M0,0 L28,0 L28,28 L0,28 Z " fill="#020202" transform="translate(0,0)"/>
<path d="M0,0 L4,1 L4,4 L0,5 L-1,11 L6,8 L7,3 L8,3 L8,20 L6,20 L5,13 L-1,13 L-3,11 L-3,3 Z " fill="#E6E6E6" transform="translate(11,6)"/>
<path d="M0,0 L6,0 L6,5 L2,8 L-2,8 L-3,4 Z " fill="#242424" transform="translate(12,9)"/>
<path d="M0,0 L1,0 L1,10 L-1,10 L-2,4 Z " fill="#BEBEBE" transform="translate(18,16)"/>
</svg>
