<?xml version="1.0" encoding="UTF-8"?>
<svg version="1.1" xmlns="http://www.w3.org/2000/svg" width="28" height="28">
<path d="M0,0 L28,0 L28,28 L0,28 Z " fill="#030303" transform="translate(0,0)"/>
<path d="M0,0 L3,0 L2,7 L-6,18 L-7,20 L-10,20 L-8,14 L-5,11 L-12,9 L-10,5 L-6,2 Z " fill="#A7A7A7" transform="translate(19,6)"/>
<path d="M0,0 L3,0 L2,7 L-1,10 L-6,9 L-5,7 L-3,7 L-3,4 L1,4 L1,2 L-2,1 Z " fill="#EAEAEA" transform="translate(19,6)"/>
<path d="M0,0 L1,2 L-2,7 L-5,7 L-4,3 Z " fill="#DBDBDB" transform="translate(14,19)"/>
</svg>
