<?xml version="1.0" encoding="UTF-8"?>
<svg version="1.1" xmlns="http://www.w3.org/2000/svg" width="28" height="28">
<path d="M0,0 L28,0 L28,28 L0,28 Z " fill="#020202" transform="translate(0,0)"/>
<path d="M0,0 L5,0 L5,6 L1,12 L-4,20 L-7,20 L-5,16 L-4,13 L-2,13 L-2,11 L-9,11 L-11,10 L-10,5 L-4,1 Z " fill="#E3E3E3" transform="translate(17,6)"/>
<path d="M0,0 L3,1 L2,3 L-3,4 L-8,7 L-9,9 L-3,9 L-5,11 L-11,10 L-10,5 L-4,1 Z " fill="#D6D6D6" transform="translate(17,6)"/>
<path d="M0,0 L3,0 L3,2 L1,2 L2,5 L-3,7 L-8,7 L-6,3 Z " fill="#212121" transform="translate(16,8)"/>
<path d="M0,0 L2,0 L1,7 L-2,11 L-5,11 L-3,7 L-2,4 L0,4 Z " fill="#C4C4C4" transform="translate(15,15)"/>
</svg>
