<?xml version="1.0" encoding="UTF-8"?>
<svg version="1.1" xmlns="http://www.w3.org/2000/svg" width="28" height="28">
<path d="M0,0 L28,0 L28,28 L0,28 Z " fill="#030303" transform="translate(0,0)"/>
<path d="M0,0 L6,0 L10,1 L9,6 L-1,18 L-6,20 L-5,17 L0,13 L4,8 L-3,6 L-2,2 Z " fill="#E1E1E1" transform="translate(12,7)"/>
<path d="M0,0 L2,0 L0,4 L-5,9 L-8,10 L-7,7 L-2,3 Z " fill="#E7E7E7" transform="translate(14,17)"/>
<path d="M0,0 L4,0 L4,3 L-1,4 L-1,1 Z " fill="#1D1D1D" transform="translate(13,9)"/>
</svg>
