<?xml version="1.0" encoding="UTF-8"?>
<svg version="1.1" xmlns="http://www.w3.org/2000/svg" width="28" height="28">
<path d="M0,0 L28,0 L28,28 L0,28 Z " fill="#030303" transform="translate(0,0)"/>
<path d="M0,0 L5,1 L9,4 L11,11 L11,16 L8,19 L1,20 L-3,18 L-2,14 L0,13 L1,16 L7,16 L7,7 L2,9 L-7,9 L-6,4 L-3,1 Z " fill="#9C9C9C" transform="translate(12,5)"/>
<path d="M0,0 L2,0 L3,9 L0,12 L-7,13 L-11,11 L-10,7 L-8,6 L-7,9 L-1,9 Z " fill="#E5E5E5" transform="translate(20,12)"/>
<path d="M0,0 L6,0 L1,4 L6,5 L5,8 L-4,8 L-3,3 Z " fill="#E9E9E9" transform="translate(9,6)"/>
</svg>
