<?xml version="1.0" encoding="UTF-8"?>
<svg version="1.1" xmlns="http://www.w3.org/2000/svg" width="28" height="28">
<path d="M0,0 L28,0 L28,28 L0,28 Z " fill="#030303" transform="translate(0,0)"/>
<path d="M0,0 L6,0 L8,2 L10,8 L11,11 L6,20 L3,20 L4,16 L7,11 L7,9 L5,8 L6,2 L0,3 L2,5 L-4,5 L-4,1 Z " fill="#E7E7E7" transform="translate(10,6)"/>
<path d="M0,0 L6,0 L5,6 L-1,6 L-1,1 Z " fill="#C3C3C3" transform="translate(10,8)"/>
<path d="M0,0 L6,0 L5,4 L-1,2 Z " fill="#242424" transform="translate(10,8)"/>
</svg>
