<?xml version="1.0" encoding="UTF-8"?>
<svg version="1.1" xmlns="http://www.w3.org/2000/svg" width="28" height="28">
<path d="M0,0 L28,0 L28,28 L0,28 Z " fill="#020202" transform="translate(0,0)"/>
<path d="M0,0 L2,0 L3,11 L5,19 L2,20 L-2,9 L-3,10 L-11,9 L-11,3 L-8,1 L-1,1 Z " fill="#E4E4E4" transform="translate(17,7)"/>
<path d="M0,0 L6,2 L5,6 L1,7 L0,9 L-3,8 L-3,2 Z " fill="#CBCBCB" transform="translate(9,8)"/>
<path d="M0,0 L5,0 L4,3 L-2,3 L-2,1 Z " fill="#070707" transform="translate(10,11)"/>
</svg>
