<?xml version="1.0" encoding="UTF-8"?>
<svg version="1.1" xmlns="http://www.w3.org/2000/svg" width="28" height="28">
<path d="M0,0 L28,0 L28,28 L0,28 Z " fill="#020202" transform="translate(0,0)"/>
<path d="M0,0 L4,0 L5,5 L7,5 L7,20 L4,19 L4,8 L1,9 L-6,9 L-7,8 L-7,3 Z " fill="#D6D6D6" transform="translate(13,7)"/>
<path d="M0,0 L4,0 L6,5 L5,8 L2,7 L3,2 L-4,5 L-5,7 L0,7 L0,8 L-7,8 L-7,3 Z " fill="#EEEEEE" transform="translate(13,7)"/>
<path d="M0,0 L4,0 L3,4 L-4,5 L-2,1 Z " fill="#252525" transform="translate(12,9)"/>
</svg>
