<?xml version="1.0" encoding="UTF-8"?>
<svg version="1.1" xmlns="http://www.w3.org/2000/svg" width="28" height="28">
<path d="M0,0 L28,0 L28,28 L0,28 Z " fill="#010101" transform="translate(0,0)"/>
<path d="M0,0 L6,1 L8,3 L7,16 L5,20 L4,19 L4,13 L-2,12 L-4,9 L-3,2 Z " fill="#ACACAC" transform="translate(12,6)"/>
<path d="M0,0 L4,1 L5,5 L4,10 L-2,10 L-4,7 L-3,3 Z " fill="#0F0F0F" transform="translate(13,7)"/>
<path d="M0,0 L4,1 L-1,4 L-2,8 L1,12 L-3,11 L-4,4 Z " fill="#CCCCCC" transform="translate(12,6)"/>
</svg>
