<?xml version="1.0" encoding="UTF-8"?>
<svg version="1.1" xmlns="http://www.w3.org/2000/svg" width="28" height="28">
<path d="M0,0 L28,0 L28,28 L0,28 Z " fill="#030303" transform="translate(0,0)"/>
<path d="M0,0 L4,1 L5,5 L3,18 L2,20 L0,20 L1,9 L2,7 L0,7 L0,9 L-3,11 L-7,11 L-7,6 L-2,1 Z " fill="#D3D3D3" transform="translate(15,6)"/>
<path d="M0,0 L2,0 L0,16 L-3,17 L-2,6 L-1,4 L-3,3 Z " fill="#E4E4E4" transform="translate(18,9)"/>
<path d="M0,0 L2,0 L1,4 L-5,7 L-3,2 Z " fill="#171717" transform="translate(15,8)"/>
</svg>
