<?xml version="1.0" encoding="UTF-8"?>
<svg version="1.1" xmlns="http://www.w3.org/2000/svg" width="28" height="28">
<path d="M0,0 L28,0 L28,28 L0,28 Z " fill="#010101" transform="translate(0,0)"/>
<path d="M0,0 L5,0 L5,3 L0,3 L-3,4 L-3,6 L4,4 L3,9 L0,19 L-3,20 L-2,15 L0,8 L-4,7 L-3,2 Z " fill="#D5D5D5" transform="translate(14,7)"/>
<path d="M0,0 L5,0 L4,4 L4,2 L1,4 L-3,4 L-3,2 Z " fill="#282828" transform="translate(14,9)"/>
<path d="M0,0 L5,0 L5,3 L0,3 L-3,3 Z " fill="#BFBFBF" transform="translate(14,7)"/>
</svg>
