<?xml version="1.0" encoding="UTF-8"?>
<svg version="1.1" xmlns="http://www.w3.org/2000/svg" width="28" height="28">
<path d="M0,0 L28,0 L28,28 L0,28 Z " fill="#000000" transform="translate(0,0)"/>
<path d="M0,0 L5,0 L7,2 L6,20 L3,19 L3,12 L-2,11 L-3,10 L-3,4 Z " fill="#CDCDCD" transform="translate(12,6)"/>
<path d="M0,0 L5,0 L5,6 L3,8 L-1,8 L-1,2 Z " fill="#0F0F0F" transform="translate(12,8)"/>
<path d="M0,0 L5,0 L7,2 L6,20 L4,19 L4,8 L5,2 L0,1 Z " fill="#9E9E9E" transform="translate(12,6)"/>
</svg>
