<?xml version="1.0" encoding="UTF-8"?>
<svg version="1.1" xmlns="http://www.w3.org/2000/svg" width="28" height="28">
<path d="M0,0 L28,0 L28,28 L0,28 Z " fill="#020202" transform="translate(0,0)"/>
<path d="M0,0 L8,0 L7,4 L3,11 L-1,18 L-2,20 L-4,20 L-2,14 L1,8 L-4,7 L-3,3 Z " fill="#E9E9E9" transform="translate(13,8)"/>
<path d="M0,0 L8,0 L7,4 L1,6 L-3,6 L-2,2 Z " fill="#D8D8D8" transform="translate(13,8)"/>
<path d="M0,0 L2,0 L2,6 L-1,11 L-2,13 L-4,13 L-2,7 L0,4 Z " fill="#C0C0C0" transform="translate(13,15)"/>
<path d="M0,0 L0,3 L-3,5 L-6,5 L-5,2 Z " fill="#181818" transform="translate(17,9)"/>
</svg>
