<?xml version="1.0" encoding="UTF-8"?>
<svg version="1.1" xmlns="http://www.w3.org/2000/svg" width="28" height="28">
<path d="M0,0 L28,0 L28,28 L0,28 Z " fill="#020202" transform="translate(0,0)"/>
<path d="M0,0 L5,1 L7,4 L6,10 L1,20 L-2,20 L0,15 L2,11 L-3,10 L-4,3 Z " fill="#EDEDED" transform="translate(13,6)"/>
<path d="M0,0 L2,1 L1,3 L3,3 L4,6 L2,8 L-4,7 L-4,3 Z " fill="#C9C9C9" transform="translate(13,6)"/>
<path d="M0,0 L2,0 L3,3 L1,5 L-2,5 L-1,1 Z " fill="#212121" transform="translate(14,9)"/>
</svg>
