<?xml version="1.0" encoding="UTF-8"?>
<svg version="1.1" xmlns="http://www.w3.org/2000/svg" width="28" height="28">
<path d="M0,0 L28,0 L28,28 L0,28 Z " fill="#040404" transform="translate(0,0)"/>
<path d="M0,0 L3,0 L4,6 L0,19 L-3,20 L-1,11 L0,9 L-4,11 L-9,11 L-11,8 L-10,3 L-5,1 Z " fill="#F2F2F2" transform="translate(17,6)"/>
<path d="M0,0 L4,0 L2,5 L0,7 L-6,7 L-6,3 Z " fill="#151515" transform="translate(15,8)"/>
<path d="M0,0 L3,1 L0,3 L-3,5 L-3,7 L3,8 L1,10 L-4,10 L-6,7 L-5,2 Z " fill="#C1C1C1" transform="translate(12,7)"/>
<path d="M0,0 L3,2 L9,3 L7,5 L2,5 Z " fill="#E4E4E4" transform="translate(6,12)"/>
</svg>
