<?xml version="1.0" encoding="UTF-8"?>
<svg version="1.1" xmlns="http://www.w3.org/2000/svg" width="28" height="28">
<path d="M0,0 L28,0 L28,28 L0,28 Z " fill="#030303" transform="translate(0,0)"/>
<path d="M0,0 L8,0 L9,2 L9,14 L8,20 L5,19 L6,9 L1,11 L-4,11 L-5,5 Z " fill="#E0E0E0" transform="translate(11,6)"/>
<path d="M0,0 L5,0 L4,5 L0,7 L-4,7 L-3,3 Z " fill="#0E0E0E" transform="translate(12,8)"/>
<path d="M0,0 L2,0 L2,8 L1,14 L-2,13 L-1,9 L-1,1 Z " fill="#F0F0F0" transform="translate(18,12)"/>
<path d="M0,0 L2,2 L2,6 L0,8 L0,15 L-1,15 L-1,9 L-4,8 L-2,6 Z " fill="#BFBFBF" transform="translate(18,6)"/>
</svg>
