<?xml version="1.0" encoding="UTF-8"?>
<svg version="1.1" xmlns="http://www.w3.org/2000/svg" width="28" height="28">
<path d="M0,0 L28,0 L28,28 L0,28 Z " fill="#030303" transform="translate(0,0)"/>
<path d="M0,0 L5,0 L8,3 L7,10 L2,20 L0,20 L2,13 L-2,12 L-5,10 L-5,5 Z " fill="#E4E4E4" transform="translate(13,6)"/>
<path d="M0,0 L5,0 L4,6 L-1,7 L-1,1 Z " fill="#101010" transform="translate(13,9)"/>
<path d="M0,0 L5,0 L4,3 L0,4 L-1,9 L-5,7 L-3,3 Z " fill="#CBCBCB" transform="translate(13,6)"/>
</svg>
