<?xml version="1.0" encoding="UTF-8"?>
<svg version="1.1" xmlns="http://www.w3.org/2000/svg" width="28" height="28">
<path d="M0,0 L28,0 L28,28 L0,28 Z " fill="#020202" transform="translate(0,0)"/>
<path d="M0,0 L5,0 L6,2 L4,9 L2,9 L0,14 L-3,20 L-5,20 L-5,16 L-3,16 L-2,10 L-8,10 L-7,5 L-2,1 Z " fill="#DEDEDE" transform="translate(15,7)"/>
<path d="M0,0 L1,4 L-2,5 L-4,10 L-7,16 L-9,16 L-9,12 L-7,12 L-6,6 L-11,6 L-10,3 L-4,3 Z " fill="#F4F4F4" transform="translate(19,11)"/>
<path d="M0,0 L2,0 L0,5 L-1,6 L-7,6 L-7,4 Z " fill="#2C2C2C" transform="translate(16,9)"/>
<path d="M0,0 L2,0 L2,3 L4,4 L0,11 L-2,11 L-2,7 L0,7 Z " fill="#CACACA" transform="translate(12,16)"/>
</svg>
