<?xml version="1.0" encoding="UTF-8"?>
<svg version="1.1" xmlns="http://www.w3.org/2000/svg" width="28" height="28">
<path d="M0,0 L28,0 L28,28 L0,28 Z " fill="#010101" transform="translate(0,0)"/>
<path d="M0,0 L4,1 L3,5 L-7,18 L-8,20 L-10,20 L-8,15 L-6,11 L-9,11 L-8,6 Z " fill="#EAEAEA" transform="translate(18,6)"/>
<path d="M0,0 L4,1 L3,5 L-2,7 L-7,9 L-8,6 Z " fill="#CECECE" transform="translate(18,6)"/>
<path d="M0,0 L2,3 L-3,10 L-5,10 L-3,5 Z " fill="#CFCFCF" transform="translate(13,16)"/>
<path d="M0,0 L2,0 L0,4 L-3,6 L-6,5 Z " fill="#313131" transform="translate(18,8)"/>
</svg>
