<?xml version="1.0" encoding="UTF-8"?>
<svg version="1.1" xmlns="http://www.w3.org/2000/svg" width="28" height="28">
<path d="M0,0 L28,0 L28,28 L0,28 Z " fill="#020202" transform="translate(0,0)"/>
<path d="M0,0 L5,0 L6,1 L6,6 L-1,16 L-5,20 L-3,14 L1,8 L-6,9 L-5,4 Z " fill="#DADADA" transform="translate(15,7)"/>
<path d="M0,0 L1,0 L1,5 L-7,17 L-9,18 L-7,12 L-3,7 Z " fill="#E8E8E8" transform="translate(19,9)"/>
<path d="M0,0 L3,0 L2,3 L-2,5 L-5,4 Z " fill="#1F1F1F" transform="translate(16,9)"/>
</svg>
