<?xml version="1.0" encoding="UTF-8"?>
<svg version="1.1" xmlns="http://www.w3.org/2000/svg" width="28" height="28">
<path d="M0,0 L28,0 L28,28 L0,28 Z " fill="#020202" transform="translate(0,0)"/>
<path d="M0,0 L5,0 L7,2 L8,20 L6,17 L6,9 L3,11 L-5,11 L-6,10 L-6,4 Z " fill="#E3E3E3" transform="translate(13,7)"/>
<path d="M0,0 L4,0 L3,4 L1,5 L-5,5 L-3,1 Z " fill="#060606" transform="translate(14,10)"/>
<path d="M0,0 L2,1 L0,6 L6,6 L6,7 L-2,8 L-2,2 Z " fill="#C7C7C7" transform="translate(9,9)"/>
</svg>
