<?xml version="1.0" encoding="UTF-8"?>
<svg version="1.1" xmlns="http://www.w3.org/2000/svg" width="28" height="28">
<path d="M0,0 L28,0 L28,28 L0,28 Z " fill="#020202" transform="translate(0,0)"/>
<path d="M0,0 L4,1 L6,4 L5,9 L-3,20 L-5,20 L-3,14 L0,10 L-6,12 L-9,10 L-7,5 L-2,1 Z " fill="#CFCFCF" transform="translate(15,6)"/>
<path d="M0,0 L4,4 L3,9 L-5,20 L-7,20 L-5,14 L-3,10 L-2,7 L0,6 L1,2 L-1,1 Z " fill="#E7E7E7" transform="translate(17,6)"/>
<path d="M0,0 L4,0 L3,4 L-2,6 L-5,5 Z " fill="#0E0E0E" transform="translate(14,9)"/>
</svg>
