<?xml version="1.0" encoding="UTF-8"?>
<svg version="1.1" xmlns="http://www.w3.org/2000/svg" width="28" height="28">
<path d="M0,0 L28,0 L28,28 L0,28 Z " fill="#030303" transform="translate(0,0)"/>
<path d="M0,0 L5,0 L8,4 L8,13 L4,20 L-2,20 L3,15 L6,10 L4,11 L-3,11 L-4,10 L-4,3 Z " fill="#DFDFDF" transform="translate(12,6)"/>
<path d="M0,0 L4,1 L6,4 L6,13 L2,20 L-4,20 L1,15 L4,10 L1,10 L2,7 L4,7 L2,3 L-1,1 Z " fill="#EBEBEB" transform="translate(14,6)"/>
<path d="M0,0 L4,0 L5,4 L-1,5 L-3,4 L-2,1 Z " fill="#101010" transform="translate(13,9)"/>
</svg>
