<?xml version="1.0" encoding="UTF-8"?>
<svg version="1.1" xmlns="http://www.w3.org/2000/svg" width="28" height="28">
<path d="M0,0 L28,0 L28,28 L0,28 Z " fill="#020202" transform="translate(0,0)"/>
<path d="M0,0 L5,1 L7,5 L6,13 L2,20 L-2,20 L-2,18 L1,17 L3,12 L-4,11 L-5,4 Z " fill="#DADADA" transform="translate(13,5)"/>
<path d="M0,0 L5,1 L5,6 L-1,6 L-2,2 Z " fill="#131313" transform="translate(12,8)"/>
<path d="M0,0 L1,4 L-3,11 L-7,11 L-7,9 L-4,8 Z " fill="#F0F0F0" transform="translate(18,14)"/>
</svg>
