<?xml version="1.0" encoding="UTF-8"?>
<svg version="1.1" xmlns="http://www.w3.org/2000/svg" width="28" height="28">
<path d="M0,0 L28,0 L28,28 L0,28 Z " fill="#020202" transform="translate(0,0)"/>
<path d="M0,0 L5,1 L9,6 L9,13 L6,20 L3,19 L5,14 L-3,14 L-5,12 L-4,4 L-3,2 L0,2 Z " fill="#EBEBEB" transform="translate(12,5)"/>
<path d="M0,0 L3,0 L4,3 L6,4 L5,9 L3,10 L-3,10 L-4,6 L-2,1 Z " fill="#111111" transform="translate(13,7)"/>
<path d="M0,0 L5,1 L9,6 L9,8 L7,8 L7,6 L4,5 L4,2 L-1,3 L-2,12 L-5,12 L-4,4 L-3,2 L0,2 Z " fill="#DEDEDE" transform="translate(12,5)"/>
<path d="M0,0 L5,1 L9,6 L9,8 L7,8 L7,6 L4,5 L4,2 Z " fill="#C6C6C6" transform="translate(12,5)"/>
</svg>
