<?xml version="1.0" encoding="UTF-8"?>
<svg version="1.1" xmlns="http://www.w3.org/2000/svg" width="28" height="28">
<path d="M0,0 L28,0 L28,28 L0,28 Z " fill="#030303" transform="translate(0,0)"/>
<path d="M0,0 L8,0 L14,3 L15,4 L15,13 L12,20 L9,19 L13,10 L10,12 L2,12 L0,11 L-2,6 L-1,1 Z " fill="#EEEEEE" transform="translate(7,6)"/>
<path d="M0,0 L8,0 L12,2 L11,5 L0,5 Z " fill="#0E0E0E" transform="translate(8,9)"/>
<path d="M0,0 L8,0 L13,2 L12,5 L1,3 L0,6 L-2,6 L-1,1 Z " fill="#DADADA" transform="translate(7,6)"/>
<path d="M0,0 L4,1 L4,3 L1,3 L0,6 L-2,6 L-1,1 Z " fill="#B5B5B5" transform="translate(7,6)"/>
</svg>
