<?xml version="1.0" encoding="UTF-8"?>
<svg version="1.1" xmlns="http://www.w3.org/2000/svg" width="28" height="28">
<path d="M0,0 L28,0 L28,28 L0,28 Z " fill="#030303" transform="translate(0,0)"/>
<path d="M0,0 L5,1 L8,3 L8,10 L6,15 L0,20 L-4,20 L-4,17 L0,16 L1,14 L-4,14 L-7,10 L-6,6 L-1,1 Z " fill="#E9E9E9" transform="translate(14,4)"/>
<path d="M0,0 L4,0 L5,5 L4,7 L-5,7 L-3,3 Z " fill="#131313" transform="translate(15,7)"/>
<path d="M0,0 L5,1 L7,3 L5,6 L5,3 L0,5 L-6,9 L-6,6 L-1,1 Z " fill="#CBCBCB" transform="translate(14,4)"/>
</svg>
