<?xml version="1.0" encoding="UTF-8"?>
<svg version="1.1" xmlns="http://www.w3.org/2000/svg" width="28" height="28">
<path d="M0,0 L28,0 L28,28 L0,28 Z " fill="#010101" transform="translate(0,0)"/>
<path d="M0,0 L3,1 L4,4 L8,6 L6,11 L3,20 L1,19 L4,10 L-4,12 L-6,11 L-6,5 L-2,1 Z " fill="#252525" transform="translate(14,6)"/>
<path d="M0,0 L2,1 L0,6 L-3,15 L-5,14 L-2,5 L-4,4 Z " fill="#B1B1B1" transform="translate(20,11)"/>
<path d="M0,0 L3,1 L3,4 L-5,6 L-6,8 L-5,4 L-2,1 Z " fill="#CCCCCC" transform="translate(14,6)"/>
</svg>
