<?xml version="1.0" encoding="UTF-8"?>
<svg version="1.1" xmlns="http://www.w3.org/2000/svg" width="28" height="28">
<path d="M0,0 L28,0 L28,28 L0,28 Z " fill="#030303" transform="translate(0,0)"/>
<path d="M0,0 L5,1 L5,3 L-4,4 L-9,9 L1,10 L3,10 L3,8 L6,5 L8,5 L7,9 L0,20 L-3,19 L1,12 L-8,12 L-10,10 L-9,5 L-5,1 Z " fill="#DEDEDE" transform="translate(15,6)"/>
<path d="M0,0 L5,1 L5,3 L-4,4 L-9,9 L-5,10 L-5,12 L-9,11 L-10,6 L-5,1 Z " fill="#DCDCDC" transform="translate(15,6)"/>
<path d="M0,0 L5,1 L5,3 L-2,3 L-5,1 Z " fill="#A8A8A8" transform="translate(15,6)"/>
</svg>
