<?xml version="1.0" encoding="UTF-8"?>
<svg version="1.1" xmlns="http://www.w3.org/2000/svg" width="28" height="28">
<path d="M0,0 L28,0 L28,28 L0,28 Z " fill="#010101" transform="translate(0,0)"/>
<path d="M0,0 L5,0 L4,4 L4,2 L-2,5 L-3,7 L1,6 L-1,9 L-5,9 L-5,4 Z " fill="#D6D6D6" transform="translate(14,7)"/>
<path d="M0,0 L1,0 L0,9 L-3,16 L-5,16 L-4,11 L-1,1 Z " fill="#D0D0D0" transform="translate(17,11)"/>
<path d="M0,0 L3,0 L1,7 L-2,5 L-4,5 L-2,1 Z " fill="#333333" transform="translate(15,9)"/>
</svg>
