<?xml version="1.0" encoding="UTF-8"?>
<svg version="1.1" xmlns="http://www.w3.org/2000/svg" width="28" height="28">
<path d="M0,0 L28,0 L28,28 L0,28 Z " fill="#030303" transform="translate(0,0)"/>
<path d="M0,0 L6,0 L11,6 L10,20 L7,19 L8,16 L0,17 L-3,14 L-4,7 L-1,1 Z " fill="#E2E2E2" transform="translate(10,5)"/>
<path d="M0,0 L5,1 L7,5 L4,11 L0,12 L-3,10 L-3,2 Z " fill="#0B0B0B" transform="translate(12,8)"/>
<path d="M0,0 L2,1 L2,6 L-2,8 Z " fill="#E0E0E0" transform="translate(19,10)"/>
</svg>
