<?xml version="1.0" encoding="UTF-8"?>
<svg version="1.1" xmlns="http://www.w3.org/2000/svg" width="28" height="28">
<path d="M0,0 L28,0 L28,28 L0,28 Z " fill="#020202" transform="translate(0,0)"/>
<path d="M0,0 L3,0 L4,5 L-2,20 L-4,20 L-3,14 L-1,9 L-6,11 L-8,9 L-7,4 L-4,1 Z " fill="#D3D3D3" transform="translate(16,7)"/>
<path d="M0,0 L4,0 L3,4 L-1,7 L-4,7 L-3,3 Z " fill="#1E1E1E" transform="translate(14,9)"/>
<path d="M0,0 L2,1 L-1,9 L-3,9 L-2,3 Z " fill="#C8C8C8" transform="translate(15,18)"/>
</svg>
