<?xml version="1.0" encoding="UTF-8"?>
<svg version="1.1" xmlns="http://www.w3.org/2000/svg" width="28" height="28">
<path d="M0,0 L28,0 L28,28 L0,28 Z " fill="#030303" transform="translate(0,0)"/>
<path d="M0,0 L6,0 L8,1 L7,8 L4,12 L0,19 L-3,20 L-1,13 L0,12 L-6,11 L-7,6 L-2,1 Z " fill="#E9E9E9" transform="translate(14,6)"/>
<path d="M0,0 L6,0 L5,5 L1,9 L-4,8 L-7,8 L-5,3 Z " fill="#E0E0E0" transform="translate(14,6)"/>
<path d="M0,0 L6,0 L4,4 L2,6 L-2,6 L-1,2 Z " fill="#171717" transform="translate(13,9)"/>
<path d="M0,0 L6,0 L5,4 L-1,3 Z " fill="#C1C1C1" transform="translate(14,6)"/>
</svg>
