<?xml version="1.0" encoding="UTF-8"?>
<svg version="1.1" xmlns="http://www.w3.org/2000/svg" width="28" height="28">
<path d="M0,0 L28,0 L28,28 L0,28 Z " fill="#030303" transform="translate(0,0)"/>
<path d="M0,0 L6,0 L6,5 L3,7 L-1,19 L-3,20 L-2,14 L-2,11 L-3,12 L-8,12 L-7,6 Z " fill="#E9E9E9" transform="translate(15,7)"/>
<path d="M0,0 L3,1 L1,3 L0,7 L-3,11 L-3,12 L-8,12 L-7,6 Z " fill="#C3C3C3" transform="translate(15,7)"/>
<path d="M0,0 L2,0 L0,4 L-2,6 L-5,6 L-3,2 Z " fill="#131313" transform="translate(14,11)"/>
</svg>
