<?xml version="1.0" encoding="UTF-8"?>
<svg version="1.1" xmlns="http://www.w3.org/2000/svg" width="28" height="28">
<path d="M0,0 L28,0 L28,28 L0,28 Z " fill="#030303" transform="translate(0,0)"/>
<path d="M0,0 L5,0 L8,2 L6,6 L-2,17 L-5,20 L-4,14 L-2,11 L0,11 L0,9 L-5,9 L-6,4 Z " fill="#E4E4E4" transform="translate(14,7)"/>
<path d="M0,0 L3,0 L1,4 L-7,15 L-10,18 L-9,12 L-3,5 Z " fill="#EDEDED" transform="translate(19,9)"/>
<path d="M0,0 L4,0 L3,4 L-4,5 L-2,1 Z " fill="#121212" transform="translate(14,9)"/>
<path d="M0,0 L5,0 L6,2 L4,4 L4,2 L-4,3 Z " fill="#CECECE" transform="translate(14,7)"/>
</svg>
