<?xml version="1.0" encoding="UTF-8"?>
<svg version="1.1" xmlns="http://www.w3.org/2000/svg" width="28" height="28">
<path d="M0,0 L28,0 L28,28 L0,28 Z " fill="#020202" transform="translate(0,0)"/>
<path d="M0,0 L6,0 L7,4 L-1,20 L-3,20 L-1,14 L2,9 L0,10 L-8,10 L-9,5 Z " fill="#D7D7D7" transform="translate(15,7)"/>
<path d="M0,0 L4,0 L3,4 L-2,7 L-7,7 L-7,3 Z " fill="#151515" transform="translate(16,9)"/>
<path d="M0,0 L4,1 L1,3 L-6,6 L-8,8 L-9,5 Z " fill="#BEBEBE" transform="translate(15,7)"/>
</svg>
