<?xml version="1.0" encoding="UTF-8"?>
<svg version="1.1" xmlns="http://www.w3.org/2000/svg" width="28" height="28">
<path d="M0,0 L28,0 L28,28 L0,28 Z " fill="#020202" transform="translate(0,0)"/>
<path d="M0,0 L5,1 L4,7 L2,7 L0,11 L-4,16 L-5,20 L-8,20 L-7,15 L-3,10 L-7,9 L-6,4 Z " fill="#D7D7D7" transform="translate(17,6)"/>
<path d="M0,0 L4,0 L4,3 L-1,7 L-4,7 L-2,2 Z " fill="#101010" transform="translate(16,8)"/>
<path d="M0,0 L2,0 L1,6 L-2,6 L-1,1 Z " fill="#C6C6C6" transform="translate(11,20)"/>
</svg>
