<?xml version="1.0" encoding="UTF-8"?>
<svg version="1.1" xmlns="http://www.w3.org/2000/svg" width="28" height="28">
<path d="M0,0 L28,0 L28,28 L0,28 Z " fill="#010101" transform="translate(0,0)"/>
<path d="M0,0 L6,0 L7,4 L5,5 L5,2 L-5,5 L-9,10 L-3,8 L3,4 L3,7 L-7,20 L-10,20 L-8,16 L-5,13 L-11,10 L-10,6 L-5,2 Z " fill="#D4D4D4" transform="translate(18,6)"/>
<path d="M0,0 L5,0 L6,4 L0,9 L2,5 L2,3 L-4,8 L-9,8 L-7,4 L-2,1 Z " fill="#1B1B1B" transform="translate(18,8)"/>
<path d="M0,0 L6,0 L7,4 L5,5 L5,2 L0,2 Z " fill="#C8C8C8" transform="translate(18,6)"/>
</svg>
