<?xml version="1.0" encoding="UTF-8"?>
<svg version="1.1" xmlns="http://www.w3.org/2000/svg" width="28" height="28">
<path d="M0,0 L28,0 L28,28 L0,28 Z " fill="#020202" transform="translate(0,0)"/>
<path d="M0,0 L6,0 L9,3 L10,18 L6,20 L7,9 L0,8 L-2,6 L-1,1 Z " fill="#EEEEEE" transform="translate(9,7)"/>
<path d="M0,0 L3,1 L7,5 L5,5 L4,8 L-1,7 L-2,3 Z " fill="#D4D4D4" transform="translate(9,7)"/>
<path d="M0,0 L2,2 L3,7 L-1,9 Z " fill="#D6D6D6" transform="translate(16,18)"/>
<path d="M0,0 L5,1 L6,3 L0,4 Z " fill="#1C1C1C" transform="translate(10,9)"/>
</svg>
