<?xml version="1.0" encoding="UTF-8"?>
<svg version="1.1" xmlns="http://www.w3.org/2000/svg" width="28" height="28">
<path d="M0,0 L28,0 L28,28 L0,28 Z " fill="#010101" transform="translate(0,0)"/>
<path d="M0,0 L6,0 L11,4 L10,7 L8,7 L8,4 L2,3 L-1,8 L9,8 L10,9 L9,19 L6,20 L7,12 L8,10 L-2,10 L-3,9 L-3,4 Z " fill="#DBDBDB" transform="translate(10,7)"/>
<path d="M0,0 L6,1 L7,3 L6,5 L8,6 L-3,6 L-2,2 Z " fill="#1B1B1B" transform="translate(12,9)"/>
<path d="M0,0 L3,1 L2,11 L-1,12 L0,4 L1,2 L-9,2 L-9,1 Z " fill="#C2C2C2" transform="translate(17,15)"/>
<path d="M0,0 L2,0 L1,5 L9,5 L9,6 L-1,6 L-1,1 Z " fill="#F3F3F3" transform="translate(8,10)"/>
</svg>
