<?xml version="1.0" encoding="UTF-8"?>
<svg version="1.1" xmlns="http://www.w3.org/2000/svg" width="28" height="28">
<path d="M0,0 L28,0 L28,28 L0,28 Z " fill="#010101" transform="translate(0,0)"/>
<path d="M0,0 L6,0 L9,4 L7,14 L3,20 L1,20 L3,14 L6,9 L-2,9 L-3,3 Z " fill="#CBCBCB" transform="translate(11,6)"/>
<path d="M0,0 L3,0 L3,6 L-2,14 L-4,14 L-2,8 L1,3 L-4,3 Z " fill="#DEDEDE" transform="translate(16,12)"/>
<path d="M0,0 L4,0 L5,3 L4,5 L-1,5 Z " fill="#0D0D0D" transform="translate(12,8)"/>
</svg>
