<?xml version="1.0" encoding="UTF-8"?>
<svg version="1.1" xmlns="http://www.w3.org/2000/svg" width="28" height="28">
<path d="M0,0 L28,0 L28,28 L0,28 Z " fill="#020202" transform="translate(0,0)"/>
<path d="M0,0 L6,0 L8,2 L7,8 L3,15 L0,20 L-2,20 L-1,14 L1,11 L-4,12 L-5,11 L-5,5 Z " fill="#D8D8D8" transform="translate(13,6)"/>
<path d="M0,0 L5,0 L4,5 L1,7 L-4,7 L-3,2 Z " fill="#0C0C0C" transform="translate(13,9)"/>
<path d="M0,0 L1,4 L-3,11 L-6,16 L-8,16 L-7,10 Z " fill="#D6D6D6" transform="translate(19,10)"/>
<path d="M0,0 L1,4 L-3,9 L-5,8 Z " fill="#F1F1F1" transform="translate(19,10)"/>
<path d="M0,0 L4,2 L3,6 L1,6 L1,3 L-3,2 Z " fill="#AFAFAF" transform="translate(17,6)"/>
</svg>
