<?xml version="1.0" encoding="UTF-8"?>
<svg version="1.1" xmlns="http://www.w3.org/2000/svg" width="28" height="28">
<path d="M0,0 L28,0 L28,28 L0,28 Z " fill="#020202" transform="translate(0,0)"/>
<path d="M0,0 L6,1 L8,2 L8,7 L2,16 L1,20 L-3,20 L-1,15 L0,12 L-6,12 L-8,11 L-7,6 Z " fill="#DDDDDD" transform="translate(14,6)"/>
<path d="M0,0 L4,1 L3,6 L-2,9 L-6,8 L-5,4 Z " fill="#070707" transform="translate(15,8)"/>
<path d="M0,0 L2,0 L2,4 L4,5 L1,6 L-1,5 Z " fill="#BDBDBD" transform="translate(7,12)"/>
</svg>
