<?xml version="1.0" encoding="UTF-8"?>
<svg version="1.1" xmlns="http://www.w3.org/2000/svg" width="28" height="28">
<path d="M0,0 L28,0 L28,28 L0,28 Z " fill="#020202" transform="translate(0,0)"/>
<path d="M0,0 L6,0 L8,1 L8,6 L5,9 L0,19 L-4,20 L-2,15 L1,9 L-3,8 L-3,3 Z " fill="#DBDBDB" transform="translate(13,6)"/>
<path d="M0,0 L2,0 L0,7 L-2,9 L-5,9 L-3,4 Z " fill="#E2E2E2" transform="translate(14,17)"/>
<path d="M0,0 L4,0 L3,4 L-1,6 L-2,2 Z " fill="#1B1B1B" transform="translate(14,8)"/>
</svg>
