<?xml version="1.0" encoding="UTF-8"?>
<svg version="1.1" xmlns="http://www.w3.org/2000/svg" width="28" height="28">
<path d="M0,0 L28,0 L28,28 L0,28 Z " fill="#020202" transform="translate(0,0)"/>
<path d="M0,0 L7,0 L8,2 L10,2 L9,6 L1,20 L0,16 L5,7 L-3,8 L-3,3 Z " fill="#AEAEAE" transform="translate(11,7)"/>
<path d="M0,0 L7,0 L8,2 L10,2 L9,6 L7,8 L5,5 L6,1 L0,4 L-1,6 L4,6 L2,8 L-3,8 L-3,3 Z " fill="#E6E6E6" transform="translate(11,7)"/>
<path d="M0,0 L2,1 L-1,6 L4,6 L2,8 L-3,8 L-3,3 Z " fill="#C4C4C4" transform="translate(11,7)"/>
<path d="M0,0 L2,0 L0,6 L-3,9 L-2,3 Z " fill="#DCDCDC" transform="translate(14,18)"/>
<path d="M0,0 L4,1 L2,4 L-2,4 Z " fill="#070707" transform="translate(12,9)"/>
</svg>
