<?xml version="1.0" encoding="UTF-8"?>
<svg version="1.1" xmlns="http://www.w3.org/2000/svg" width="28" height="28">
<path d="M0,0 L28,0 L28,28 L0,28 Z " fill="#020202" transform="translate(0,0)"/>
<path d="M0,0 L6,0 L10,4 L4,12 L0,20 L-2,20 L-1,15 L4,7 L-3,8 L-4,4 Z " fill="#171717" transform="translate(12,7)"/>
<path d="M0,0 L3,1 L-3,9 L-7,17 L-9,17 L-8,12 L-3,4 L-5,3 Z " fill="#D3D3D3" transform="translate(19,10)"/>
<path d="M0,0 L6,0 L7,2 L0,3 L-1,6 L2,8 L-3,8 L-4,4 Z " fill="#D0D0D0" transform="translate(12,7)"/>
</svg>
