<?xml version="1.0" encoding="UTF-8"?>
<svg version="1.1" xmlns="http://www.w3.org/2000/svg" width="28" height="28">
<path d="M0,0 L28,0 L28,28 L0,28 Z " fill="#030303" transform="translate(0,0)"/>
<path d="M0,0 L5,0 L7,2 L7,7 L-1,17 L-2,20 L-5,20 L-3,15 L-1,12 L-7,12 L-8,8 L-5,3 Z " fill="#E6E6E6" transform="translate(15,6)"/>
<path d="M0,0 L5,1 L3,5 L0,6 L0,8 L-5,8 L-4,3 Z " fill="#141414" transform="translate(15,8)"/>
<path d="M0,0 L2,0 L2,2 L-2,6 L-4,9 L-5,4 Z " fill="#D0D0D0" transform="translate(13,7)"/>
</svg>
