<?xml version="1.0" encoding="UTF-8"?>
<svg version="1.1" xmlns="http://www.w3.org/2000/svg" width="28" height="28">
<path d="M0,0 L28,0 L28,28 L0,28 Z " fill="#020202" transform="translate(0,0)"/>
<path d="M0,0 L5,0 L7,5 L1,15 L-1,20 L-3,20 L0,11 L1,9 L-4,10 L-6,9 L-5,3 Z " fill="#CECECE" transform="translate(14,7)"/>
<path d="M0,0 L2,0 L3,4 L-3,14 L-5,19 L-7,19 L-4,10 L-2,4 Z " fill="#E4E4E4" transform="translate(18,8)"/>
<path d="M0,0 L4,0 L2,4 L-1,6 L-4,6 L-3,2 Z " fill="#121212" transform="translate(14,9)"/>
</svg>
