<?xml version="1.0" encoding="UTF-8"?>
<svg version="1.1" xmlns="http://www.w3.org/2000/svg" width="28" height="28">
<path d="M0,0 L28,0 L28,28 L0,28 Z " fill="#020202" transform="translate(0,0)"/>
<path d="M0,0 L5,0 L7,4 L5,20 L3,20 L3,12 L0,14 L-5,13 L-5,6 L-3,2 Z " fill="#0A0A0A" transform="translate(13,6)"/>
<path d="M0,0 L5,0 L5,4 L4,2 L-2,3 L-4,12 L1,12 L0,14 L-5,13 L-5,6 L-3,2 Z " fill="#C2C2C2" transform="translate(13,6)"/>
<path d="M0,0 L1,3 L-1,16 L-3,16 L-3,8 L-5,7 L-1,2 Z " fill="#D7D7D7" transform="translate(19,10)"/>
</svg>
