<?xml version="1.0" encoding="UTF-8"?>
<svg version="1.1" xmlns="http://www.w3.org/2000/svg" width="28" height="28">
<path d="M0,0 L28,0 L28,28 L0,28 Z " fill="#010101" transform="translate(0,0)"/>
<path d="M0,0 L5,0 L6,5 L4,11 L-2,20 L-4,20 L-2,15 L2,9 L-4,10 L-5,6 Z " fill="#D4D4D4" transform="translate(14,7)"/>
<path d="M0,0 L1,2 L-4,11 L-7,15 L-9,15 L-7,10 L-3,4 L-6,3 Z " fill="#F0F0F0" transform="translate(19,12)"/>
<path d="M0,0 L3,1 L-2,8 L-4,8 L-2,3 Z " fill="#CCCCCC" transform="translate(14,19)"/>
<path d="M0,0 L4,0 L4,3 L-3,4 Z " fill="#191919" transform="translate(14,10)"/>
</svg>
