<?xml version="1.0" encoding="UTF-8"?>
<svg version="1.1" xmlns="http://www.w3.org/2000/svg" width="28" height="28">
<path d="M0,0 L28,0 L28,28 L0,28 Z " fill="#010101" transform="translate(0,0)"/>
<path d="M0,0 L5,1 L5,9 L-2,19 L-5,20 L-4,16 L0,10 L-5,9 L-4,3 Z " fill="#C7C7C7" transform="translate(14,6)"/>
<path d="M0,0 L5,1 L5,9 L4,6 L-3,7 L-4,3 Z " fill="#A2A2A2" transform="translate(14,6)"/>
<path d="M0,0 L2,1 L1,3 L8,2 L8,7 L6,7 L6,5 L-1,5 Z " fill="#EEEEEE" transform="translate(10,10)"/>
</svg>
