<?xml version="1.0" encoding="UTF-8"?>
<svg version="1.1" xmlns="http://www.w3.org/2000/svg" width="28" height="28">
<path d="M0,0 L28,0 L28,28 L0,28 Z " fill="#020202" transform="translate(0,0)"/>
<path d="M0,0 L8,1 L7,10 L6,15 L7,20 L4,20 L3,18 L3,9 L4,7 L1,9 L-4,9 L-3,2 Z " fill="#B1B1B1" transform="translate(12,7)"/>
<path d="M0,0 L1,0 L1,8 L2,13 L-1,13 L-2,11 L-2,2 L0,2 Z " fill="#EAEAEA" transform="translate(17,14)"/>
<path d="M0,0 L2,1 L1,4 L4,4 L4,6 L-1,6 L-1,1 Z " fill="#F1F1F1" transform="translate(9,10)"/>
</svg>
