<?xml version="1.0" encoding="UTF-8"?>
<svg version="1.1" xmlns="http://www.w3.org/2000/svg" width="28" height="28">
<path d="M0,0 L28,0 L28,28 L0,28 Z " fill="#030303" transform="translate(0,0)"/>
<path d="M0,0 L7,0 L8,3 L0,2 L0,7 L6,7 L7,5 L9,5 L8,11 L4,20 L2,20 L3,14 L5,10 L-1,10 L-4,8 L-3,3 Z " fill="#DDDDDD" transform="translate(11,6)"/>
<path d="M0,0 L2,0 L1,6 L-3,15 L-5,15 L-4,9 L-2,5 L-4,5 L-4,3 L-1,2 Z " fill="#EDEDED" transform="translate(18,11)"/>
<path d="M0,0 L3,0 L4,3 L7,4 L7,6 L2,5 L0,4 Z " fill="#ABABAB" transform="translate(7,10)"/>
</svg>
