<?xml version="1.0" encoding="UTF-8"?>
<svg version="1.1" xmlns="http://www.w3.org/2000/svg" width="28" height="28">
<path d="M0,0 L28,0 L28,28 L0,28 Z " fill="#030303" transform="translate(0,0)"/>
<path d="M0,0 L6,1 L6,3 L8,3 L7,7 L-1,20 L-3,20 L-1,14 L0,12 L-5,11 L-7,8 L-6,3 Z " fill="#EBEBEB" transform="translate(14,6)"/>
<path d="M0,0 L6,1 L5,5 L2,8 L-3,7 L-4,3 Z " fill="#0A0A0A" transform="translate(13,8)"/>
<path d="M0,0 L6,1 L5,5 L5,3 L-1,3 L-4,6 L-3,9 L1,11 L0,13 L-5,11 L-7,8 L-6,3 Z " fill="#CACACA" transform="translate(14,6)"/>
</svg>
