<?xml version="1.0" encoding="UTF-8"?>
<svg version="1.1" xmlns="http://www.w3.org/2000/svg" width="28" height="28">
<path d="M0,0 L28,0 L28,28 L0,28 Z " fill="#030303" transform="translate(0,0)"/>
<path d="M0,0 L5,0 L6,1 L6,11 L3,16 L0,20 L-4,19 L-4,17 L-2,17 L0,13 L2,10 L-4,13 L-8,12 L-9,11 L-9,6 L-5,2 Z " fill="#E5E5E5" transform="translate(15,6)"/>
<path d="M0,0 L1,0 L1,8 L-2,13 L-5,17 L-9,16 L-9,14 L-7,14 L-5,10 L-3,7 L-7,8 L-5,4 L-1,2 Z " fill="#EBEBEB" transform="translate(20,9)"/>
<path d="M0,0 L5,0 L5,2 L-2,6 L-6,5 L-3,1 Z " fill="#191919" transform="translate(14,10)"/>
<path d="M0,0 L1,4 L8,3 L7,6 L2,7 L0,5 Z " fill="#CDCDCD" transform="translate(6,12)"/>
</svg>
