<?xml version="1.0" encoding="UTF-8"?>
<svg version="1.1" xmlns="http://www.w3.org/2000/svg" width="28" height="28">
<path d="M0,0 L28,0 L28,28 L0,28 Z " fill="#030303" transform="translate(0,0)"/>
<path d="M0,0 L5,1 L5,3 L-1,3 L-7,6 L-8,9 L1,7 L4,6 L3,10 L-5,20 L-7,20 L-6,16 L-3,12 L-10,10 L-9,4 Z " fill="#E7E7E7" transform="translate(17,6)"/>
<path d="M0,0 L9,0 L7,6 L4,10 L2,10 L3,6 L6,2 L0,1 Z " fill="#B6B6B6" transform="translate(8,16)"/>
<path d="M0,0 L5,1 L5,3 L-1,3 L-4,4 L-6,2 Z " fill="#D5D5D5" transform="translate(17,6)"/>
</svg>
