<?xml version="1.0" encoding="UTF-8"?>
<svg version="1.1" xmlns="http://www.w3.org/2000/svg" width="28" height="28">
<path d="M0,0 L28,0 L28,28 L0,28 Z " fill="#020202" transform="translate(0,0)"/>
<path d="M0,0 L6,0 L9,4 L8,11 L2,20 L0,20 L1,15 L5,9 L-3,10 L-5,8 L-5,3 Z " fill="#DBDBDB" transform="translate(12,7)"/>
<path d="M0,0 L6,0 L8,4 L6,4 L6,7 L-4,7 L-5,3 Z " fill="#D3D3D3" transform="translate(12,7)"/>
<path d="M0,0 L5,0 L5,3 L-3,4 L-2,1 Z " fill="#101010" transform="translate(12,10)"/>
</svg>
