<?xml version="1.0" encoding="UTF-8"?>
<svg version="1.1" xmlns="http://www.w3.org/2000/svg" width="28" height="28">
<path d="M0,0 L28,0 L28,28 L0,28 Z " fill="#010101" transform="translate(0,0)"/>
<path d="M0,0 L5,0 L5,3 L-1,5 L-2,7 L4,5 L6,4 L5,8 L0,17 L-1,20 L-4,20 L-2,14 L0,10 L-4,9 L-5,4 Z " fill="#DADADA" transform="translate(14,6)"/>
<path d="M0,0 L3,1 L0,5 L-5,5 L-3,1 Z " fill="#252525" transform="translate(17,8)"/>
<path d="M0,0 L1,3 L-4,8 L-4,5 L-8,4 L-1,1 Z " fill="#F4F4F4" transform="translate(19,10)"/>
<path d="M0,0 L2,1 L1,5 L4,6 L-1,7 L-2,2 Z " fill="#C3C3C3" transform="translate(11,8)"/>
</svg>
