<?xml version="1.0" encoding="UTF-8"?>
<svg version="1.1" xmlns="http://www.w3.org/2000/svg" width="28" height="28">
<path d="M0,0 L28,0 L28,28 L0,28 Z " fill="#010101" transform="translate(0,0)"/>
<path d="M0,0 L6,0 L8,4 L7,8 L4,17 L4,20 L0,20 L1,13 L-5,13 L-7,9 L-5,4 Z " fill="#E7E7E7" transform="translate(13,6)"/>
<path d="M0,0 L3,0 L2,4 L-1,13 L-1,16 L-5,16 L-4,10 L-3,8 L-5,7 L-3,4 L0,4 Z " fill="#EEEEEE" transform="translate(18,10)"/>
<path d="M0,0 L2,1 L2,5 L-1,7 L-6,7 L-5,3 L0,3 Z " fill="#1A1A1A" transform="translate(15,9)"/>
<path d="M0,0 L1,2 L6,2 L7,6 L0,5 L-2,1 Z " fill="#D0D0D0" transform="translate(8,14)"/>
</svg>
