<?xml version="1.0" encoding="UTF-8"?>
<svg version="1.1" xmlns="http://www.w3.org/2000/svg" width="28" height="28">
<path d="M0,0 L28,0 L28,28 L0,28 Z " fill="#020202" transform="translate(0,0)"/>
<path d="M0,0 L5,1 L5,3 L-2,5 L-3,7 L4,4 L2,14 L0,19 L-3,20 L-2,15 L-1,11 L-7,9 L-5,4 Z " fill="#DADADA" transform="translate(15,6)"/>
<path d="M0,0 L1,3 L0,7 L-2,7 L-2,5 L-9,6 L-8,3 L-3,4 L-3,2 Z " fill="#F4F4F4" transform="translate(18,10)"/>
<path d="M0,0 L5,0 L4,4 L3,2 L0,4 L-3,4 L-2,1 Z " fill="#282828" transform="translate(15,9)"/>
</svg>
