<?xml version="1.0" encoding="UTF-8"?>
<svg version="1.1" xmlns="http://www.w3.org/2000/svg" width="28" height="28">
<path d="M0,0 L28,0 L28,28 L0,28 Z " fill="#030303" transform="translate(0,0)"/>
<path d="M0,0 L5,1 L7,3 L7,7 L1,12 L-2,20 L-5,20 L-4,16 L-2,11 L-8,11 L-9,7 L-6,6 L-6,4 Z " fill="#EDEDED" transform="translate(15,7)"/>
<path d="M0,0 L3,1 L2,8 L1,10 L-2,10 L-1,6 Z " fill="#DCDCDC" transform="translate(12,17)"/>
<path d="M0,0 L3,0 L1,4 L0,5 L-6,5 L-2,1 Z " fill="#2B2B2B" transform="translate(15,11)"/>
</svg>
