<?xml version="1.0" encoding="UTF-8"?>
<svg version="1.1" xmlns="http://www.w3.org/2000/svg" width="28" height="28">
<path d="M0,0 L28,0 L28,28 L0,28 Z " fill="#020202" transform="translate(0,0)"/>
<path d="M0,0 L7,0 L8,5 L2,12 L-3,18 L-7,20 L-5,15 L-1,10 L0,8 L-3,8 L-3,2 Z " fill="#CACACA" transform="translate(14,7)"/>
<path d="M0,0 L7,0 L8,4 L6,4 L6,2 L-1,4 L-3,7 L-3,2 Z " fill="#E8E8E8" transform="translate(14,7)"/>
<path d="M0,0 L2,0 L1,4 L-5,8 L-3,3 Z " fill="#D4D4D4" transform="translate(12,19)"/>
<path d="M0,0 L4,0 L4,2 L1,4 L-4,4 L-3,1 Z " fill="#1F1F1F" transform="translate(16,9)"/>
</svg>
