<?xml version="1.0" encoding="UTF-8"?>
<svg version="1.1" xmlns="http://www.w3.org/2000/svg" width="28" height="28">
<path d="M0,0 L28,0 L28,28 L0,28 Z " fill="#020202" transform="translate(0,0)"/>
<path d="M0,0 L6,0 L5,5 L4,2 L-4,5 L-5,6 L0,7 L7,7 L7,9 L-7,20 L-9,20 L-8,17 L1,10 L-7,9 L-7,4 Z " fill="#AEAEAE" transform="translate(15,6)"/>
<path d="M0,0 L3,0 L3,2 L-11,13 L-13,13 L-12,10 L-3,3 L-1,3 Z " fill="#D7D7D7" transform="translate(19,13)"/>
<path d="M0,0 L6,0 L5,5 L4,2 L-1,2 Z " fill="#D8D8D8" transform="translate(15,6)"/>
</svg>
