<?xml version="1.0" encoding="UTF-8"?>
<svg version="1.1" xmlns="http://www.w3.org/2000/svg" width="28" height="28">
<path d="M0,0 L28,0 L28,28 L0,28 Z " fill="#010101" transform="translate(0,0)"/>
<path d="M0,0 L2,0 L3,4 L2,18 L1,20 L-1,20 L-1,9 L-7,10 L-6,5 L-2,3 L-2,1 Z " fill="#CECECE" transform="translate(16,6)"/>
<path d="M0,0 L1,0 L2,12 L1,14 L-1,14 L-2,2 Z " fill="#E1E1E1" transform="translate(16,12)"/>
<path d="M0,0 L4,0 L2,4 L-2,5 L-3,7 L-2,2 Z " fill="#979797" transform="translate(12,9)"/>
</svg>
