<?xml version="1.0" encoding="UTF-8"?>
<svg version="1.1" xmlns="http://www.w3.org/2000/svg" width="28" height="28">
<path d="M0,0 L28,0 L28,28 L0,28 Z " fill="#020202" transform="translate(0,0)"/>
<path d="M0,0 L3,1 L3,4 L5,5 L4,9 L1,19 L-3,20 L-4,18 L-1,11 L-8,11 L-9,10 L-9,5 L-4,1 Z " fill="#EDEDED" transform="translate(16,6)"/>
<path d="M0,0 L3,1 L2,6 L-3,9 L-6,8 L-7,6 L-9,10 L-9,5 L-4,1 Z " fill="#D1D1D1" transform="translate(16,6)"/>
<path d="M0,0 L5,1 L3,4 L-2,5 L-2,1 Z " fill="#1A1A1A" transform="translate(13,10)"/>
<path d="M0,0 L3,1 L2,5 L0,5 L0,3 L-3,2 Z " fill="#EDEDED" transform="translate(16,6)"/>
</svg>
