<?xml version="1.0" encoding="UTF-8"?>
<svg version="1.1" xmlns="http://www.w3.org/2000/svg" width="28" height="28">
<path d="M0,0 L28,0 L28,28 L0,28 Z " fill="#020202" transform="translate(0,0)"/>
<path d="M0,0 L7,0 L8,1 L8,10 L4,19 L0,20 L-1,17 L2,11 L-3,9 L-5,5 Z " fill="#EFEFEF" transform="translate(12,6)"/>
<path d="M0,0 L3,1 L6,3 L5,6 L-1,7 L-4,7 L-5,5 Z " fill="#DBDBDB" transform="translate(12,6)"/>
<path d="M0,0 L5,0 L4,3 L-2,4 L-2,1 Z " fill="#191919" transform="translate(13,9)"/>
</svg>
