<?xml version="1.0" encoding="UTF-8"?>
<svg version="1.1" xmlns="http://www.w3.org/2000/svg" width="28" height="28">
<path d="M0,0 L28,0 L28,28 L0,28 Z " fill="#030303" transform="translate(0,0)"/>
<path d="M0,0 L5,1 L5,4 L8,5 L7,9 L2,20 L-1,20 L0,13 L1,11 L-6,9 L-6,4 L-3,1 Z " fill="#EDEDED" transform="translate(13,6)"/>
<path d="M0,0 L5,1 L4,7 L-4,7 L-6,6 L-4,2 Z " fill="#E3E3E3" transform="translate(13,6)"/>
<path d="M0,0 L2,0 L2,2 L4,3 L3,4 L-3,4 L-3,2 Z " fill="#272727" transform="translate(12,9)"/>
</svg>
