<?xml version="1.0" encoding="UTF-8"?>
<svg version="1.1" xmlns="http://www.w3.org/2000/svg" width="28" height="28">
<path d="M0,0 L28,0 L28,28 L0,28 Z " fill="#020202" transform="translate(0,0)"/>
<path d="M0,0 L7,0 L8,1 L8,7 L1,18 L-1,20 L-4,20 L-3,15 L-1,12 L-6,9 L-6,4 L-3,1 Z " fill="#E9E9E9" transform="translate(14,6)"/>
<path d="M0,0 L7,0 L8,4 L2,8 L-3,8 L-4,7 L-4,2 Z " fill="#DBDBDB" transform="translate(14,6)"/>
<path d="M0,0 L6,0 L4,4 L3,5 L-2,5 L-1,1 Z " fill="#191919" transform="translate(13,9)"/>
</svg>
