<?xml version="1.0" encoding="UTF-8"?>
<svg version="1.1" xmlns="http://www.w3.org/2000/svg" width="28" height="28">
<path d="M0,0 L28,0 L28,28 L0,28 Z " fill="#030303" transform="translate(0,0)"/>
<path d="M0,0 L4,0 L4,2 L7,2 L6,8 L3,18 L-1,20 L-1,14 L-8,14 L-9,9 L-2,1 Z " fill="#EBEBEB" transform="translate(15,5)"/>
<path d="M0,0 L3,1 L-3,9 L1,10 L0,13 L-6,13 L-7,8 Z " fill="#F2F2F2" transform="translate(13,6)"/>
<path d="M0,0 L2,0 L1,4 L-4,8 L-7,7 L-2,1 Z " fill="#2E2E2E" transform="translate(16,8)"/>
</svg>
