<?xml version="1.0" encoding="UTF-8"?>
<svg version="1.1" xmlns="http://www.w3.org/2000/svg" width="28" height="28">
<path d="M0,0 L28,0 L28,28 L0,28 Z " fill="#020202" transform="translate(0,0)"/>
<path d="M0,0 L5,1 L5,6 L-2,13 L-4,13 L-4,15 L-9,20 L-11,20 L-10,16 L-5,12 L-7,11 L-7,6 Z " fill="#DBDBDB" transform="translate(17,6)"/>
<path d="M0,0 L1,4 L-5,7 L-7,7 L-5,3 Z " fill="#0E0E0E" transform="translate(19,8)"/>
<path d="M0,0 L3,1 L-2,7 L-4,7 L-3,3 Z " fill="#C4C4C4" transform="translate(10,19)"/>
</svg>
