<?xml version="1.0" encoding="UTF-8"?>
<svg version="1.1" xmlns="http://www.w3.org/2000/svg" width="28" height="28">
<path d="M0,0 L28,0 L28,28 L0,28 Z " fill="#020202" transform="translate(0,0)"/>
<path d="M0,0 L5,1 L6,5 L1,19 L-2,20 L-1,12 L-6,13 L-8,11 L-7,5 L-2,1 Z " fill="#EEEEEE" transform="translate(15,6)"/>
<path d="M0,0 L3,0 L1,5 L1,7 L0,10 L-3,10 L-7,9 L-8,5 L-1,1 Z " fill="#E0E0E0" transform="translate(15,9)"/>
<path d="M0,0 L3,0 L1,4 L-2,6 L-5,5 Z " fill="#212121" transform="translate(15,9)"/>
</svg>
