<?xml version="1.0" encoding="UTF-8"?>
<svg version="1.1" xmlns="http://www.w3.org/2000/svg" width="28" height="28">
<path d="M0,0 L28,0 L28,28 L0,28 Z " fill="#040404" transform="translate(0,0)"/>
<path d="M0,0 L8,1 L7,9 L4,19 L1,20 L1,11 L-3,13 L-8,12 L-9,7 L-2,1 Z " fill="#EFEFEF" transform="translate(14,6)"/>
<path d="M0,0 L5,2 L3,7 L1,11 L-5,12 L-7,9 L-6,5 Z " fill="#EAEAEA" transform="translate(12,7)"/>
<path d="M0,0 L2,0 L0,4 L-6,7 L-5,3 Z " fill="#212121" transform="translate(15,9)"/>
</svg>
