<?xml version="1.0" encoding="UTF-8"?>
<svg version="1.1" xmlns="http://www.w3.org/2000/svg" width="28" height="28">
<path d="M0,0 L28,0 L28,28 L0,28 Z " fill="#020202" transform="translate(0,0)"/>
<path d="M0,0 L5,0 L4,5 L-2,16 L-3,20 L-6,20 L-5,15 L-1,8 L-7,8 L-8,5 L-4,1 Z " fill="#CCCCCC" transform="translate(16,6)"/>
<path d="M0,0 L2,1 L-4,12 L-5,16 L-8,16 L-7,11 L-4,6 Z " fill="#E3E3E3" transform="translate(18,10)"/>
<path d="M0,0 L4,0 L4,2 L-1,4 L-5,4 L-5,2 Z " fill="#1C1C1C" transform="translate(16,8)"/>
</svg>
