<?xml version="1.0" encoding="UTF-8"?>
<svg version="1.1" xmlns="http://www.w3.org/2000/svg" width="28" height="28">
<path d="M0,0 L28,0 L28,28 L0,28 Z " fill="#030303" transform="translate(0,0)"/>
<path d="M0,0 L6,0 L10,5 L9,14 L5,17 L3,17 L2,20 L-2,20 L0,15 L6,13 L5,8 L3,8 L3,10 L-7,11 L-8,6 L-5,2 Z " fill="#D5D5D5" transform="translate(13,6)"/>
<path d="M0,0 L6,0 L3,3 L-2,5 L-3,7 L3,7 L3,9 L1,10 L-5,10 L-6,5 L-3,1 Z " fill="#EAEAEA" transform="translate(11,7)"/>
<path d="M0,0 L4,2 L0,5 L-6,5 L-5,2 Z " fill="#151515" transform="translate(14,9)"/>
</svg>
