<?xml version="1.0" encoding="UTF-8"?>
<svg version="1.1" xmlns="http://www.w3.org/2000/svg" width="28" height="28">
<path d="M0,0 L28,0 L28,28 L0,28 Z " fill="#020202" transform="translate(0,0)"/>
<path d="M0,0 L8,1 L9,2 L11,20 L9,20 L7,16 L7,12 L1,12 L-3,10 L-3,3 Z " fill="#E2E2E2" transform="translate(10,7)"/>
<path d="M0,0 L7,0 L8,1 L10,19 L8,19 L6,15 L6,11 L2,11 L2,9 L4,8 L4,1 Z " fill="#E2E2E2" transform="translate(11,8)"/>
<path d="M0,0 L5,0 L6,6 L0,6 L-1,1 Z " fill="#0C0C0C" transform="translate(10,10)"/>
<path d="M0,0 L8,1 L6,2 L6,4 L0,2 Z " fill="#CCCCCC" transform="translate(7,15)"/>
</svg>
