<?xml version="1.0" encoding="UTF-8"?>
<svg version="1.1" xmlns="http://www.w3.org/2000/svg" width="28" height="28">
<path d="M0,0 L28,0 L28,28 L0,28 Z " fill="#020202" transform="translate(0,0)"/>
<path d="M0,0 L5,0 L4,9 L-1,20 L-3,20 L-2,13 L0,9 L-7,10 L-6,5 Z " fill="#C2C2C2" transform="translate(15,6)"/>
<path d="M0,0 L4,0 L4,5 L1,7 L3,2 L-3,6 L-4,8 L-2,8 L-2,10 L-7,10 L-6,5 Z " fill="#E2E2E2" transform="translate(15,6)"/>
<path d="M0,0 L1,2 L-3,12 L-5,12 L-4,5 Z " fill="#E6E6E6" transform="translate(17,14)"/>
<path d="M0,0 L2,0 L0,4 L-5,6 L-3,2 Z " fill="#2B2B2B" transform="translate(16,8)"/>
</svg>
