<?xml version="1.0" encoding="UTF-8"?>
<svg version="1.1" xmlns="http://www.w3.org/2000/svg" width="28" height="28">
<path d="M0,0 L28,0 L28,28 L0,28 Z " fill="#020202" transform="translate(0,0)"/>
<path d="M0,0 L4,1 L5,2 L5,16 L2,20 L-3,19 L-3,17 L2,16 L3,9 L-1,10 L-2,9 L-2,3 Z " fill="#DCDCDC" transform="translate(13,5)"/>
<path d="M0,0 L2,3 L2,10 L-1,14 L-6,13 L-6,11 L-1,10 L-1,1 Z " fill="#EFEFEF" transform="translate(16,11)"/>
<path d="M0,0 L2,1 L2,7 L-2,8 L-3,5 Z " fill="#777777" transform="translate(14,7)"/>
</svg>
