<?xml version="1.0" encoding="UTF-8"?>
<svg version="1.1" xmlns="http://www.w3.org/2000/svg" width="28" height="28">
<path d="M0,0 L28,0 L28,28 L0,28 Z " fill="#010101" transform="translate(0,0)"/>
<path d="M0,0 L3,1 L2,20 L-1,20 L-2,11 L-6,14 L-11,13 L-11,8 L-4,2 L0,2 Z " fill="#DEDEDE" transform="translate(17,6)"/>
<path d="M0,0 L3,1 L0,6 L5,3 L9,3 L9,14 L8,14 L7,5 L3,8 L-2,7 L-2,2 Z " fill="#E4E4E4" transform="translate(8,12)"/>
<path d="M0,0 L1,3 L-4,8 L-7,8 L-6,4 Z " fill="#232323" transform="translate(15,10)"/>
</svg>
