<?xml version="1.0" encoding="UTF-8"?>
<svg version="1.1" xmlns="http://www.w3.org/2000/svg" width="28" height="28">
<path d="M0,0 L28,0 L28,28 L0,28 Z " fill="#010101" transform="translate(0,0)"/>
<path d="M0,0 L5,0 L7,2 L7,7 L5,13 L3,20 L1,20 L2,11 L-3,10 L-2,2 Z " fill="#D0D0D0" transform="translate(12,6)"/>
<path d="M0,0 L3,0 L3,6 L1,8 L-2,8 L-1,1 Z " fill="#0C0C0C" transform="translate(13,7)"/>
<path d="M0,0 L2,0 L2,5 L-1,9 L-1,7 L-3,6 L-1,4 Z " fill="#E8E8E8" transform="translate(17,8)"/>
</svg>
