<?xml version="1.0" encoding="UTF-8"?>
<svg version="1.1" xmlns="http://www.w3.org/2000/svg" width="28" height="28">
<path d="M0,0 L28,0 L28,28 L0,28 Z " fill="#020202" transform="translate(0,0)"/>
<path d="M0,0 L5,1 L5,9 L1,16 L1,20 L-2,19 L-1,13 L-5,12 L-5,6 Z " fill="#C9C9C9" transform="translate(14,6)"/>
<path d="M0,0 L2,3 L1,8 L-2,13 L-2,17 L-5,16 L-3,6 Z " fill="#E5E5E5" transform="translate(17,9)"/>
<path d="M0,0 L2,0 L1,6 L-3,9 L-5,9 L-4,4 Z " fill="#121212" transform="translate(15,8)"/>
</svg>
