<?xml version="1.0" encoding="UTF-8"?>
<svg version="1.1" xmlns="http://www.w3.org/2000/svg" width="28" height="28">
<path d="M0,0 L28,0 L28,28 L0,28 Z " fill="#030303" transform="translate(0,0)"/>
<path d="M0,0 L6,0 L7,3 L10,2 L9,9 L7,18 L4,17 L6,8 L-4,14 L-10,14 L-9,8 Z " fill="#DBDBDB" transform="translate(13,7)"/>
<path d="M0,0 L3,1 L3,2 L5,3 L-4,10 L-9,10 L-5,4 Z " fill="#1C1C1C" transform="translate(14,9)"/>
<path d="M0,0 L3,0 L2,8 L-1,7 Z " fill="#BABABA" transform="translate(18,17)"/>
<path d="M0,0 L1,3 L-2,9 L-3,5 Z " fill="#EEEEEE" transform="translate(22,10)"/>
</svg>
