<?xml version="1.0" encoding="UTF-8"?>
<svg version="1.1" xmlns="http://www.w3.org/2000/svg" width="28" height="28">
<path d="M0,0 L28,0 L28,28 L0,28 Z " fill="#020202" transform="translate(0,0)"/>
<path d="M0,0 L6,0 L11,5 L12,16 L13,20 L9,18 L8,13 L0,13 L-4,10 L-5,6 L-2,1 Z " fill="#E3E3E3" transform="translate(10,6)"/>
<path d="M0,0 L6,0 L8,4 L7,8 L0,7 L-1,6 L-1,1 Z " fill="#090909" transform="translate(10,9)"/>
<path d="M0,0 L6,0 L6,2 L0,4 L-1,9 L-2,9 L-2,4 L-4,3 Z " fill="#C5C5C5" transform="translate(10,6)"/>
</svg>
