<?xml version="1.0" encoding="UTF-8"?>
<svg version="1.1" xmlns="http://www.w3.org/2000/svg" width="28" height="28">
<path d="M0,0 L28,0 L28,28 L0,28 Z " fill="#040404" transform="translate(0,0)"/>
<path d="M0,0 L5,0 L6,1 L6,8 L-2,20 L-5,19 L1,11 L-3,9 L-3,3 Z " fill="#DFDFDF" transform="translate(14,6)"/>
<path d="M0,0 L1,3 L-5,12 L-8,11 Z " fill="#E4E4E4" transform="translate(17,14)"/>
<path d="M0,0 L3,0 L2,5 L-3,6 L-1,1 Z " fill="#1A1A1A" transform="translate(15,8)"/>
<path d="M0,0 L1,0 L1,7 L-1,9 L-6,8 L-3,6 L-1,5 Z " fill="#C2C2C2" transform="translate(19,7)"/>
</svg>
