<?xml version="1.0" encoding="UTF-8"?>
<svg version="1.1" xmlns="http://www.w3.org/2000/svg" width="28" height="28">
<path d="M0,0 L28,0 L28,28 L0,28 Z " fill="#030303" transform="translate(0,0)"/>
<path d="M0,0 L6,1 L7,6 L4,9 L-1,20 L-3,20 L-3,15 L0,10 L-6,10 L-7,9 L-7,4 L-5,4 L-5,2 Z " fill="#DEDEDE" transform="translate(14,7)"/>
<path d="M0,0 L3,0 L1,4 L-4,15 L-6,15 L-6,10 L-3,5 L-7,4 L-3,4 L-3,2 Z " fill="#EAEAEA" transform="translate(17,12)"/>
<path d="M0,0 L4,1 L-1,6 L-6,6 L-6,3 Z " fill="#141414" transform="translate(15,9)"/>
</svg>
