<?xml version="1.0" encoding="UTF-8"?>
<svg version="1.1" xmlns="http://www.w3.org/2000/svg" width="28" height="28">
<path d="M0,0 L28,0 L28,28 L0,28 Z " fill="#020202" transform="translate(0,0)"/>
<path d="M0,0 L8,0 L11,2 L11,4 L13,4 L12,18 L11,20 L8,20 L8,11 L9,9 L1,9 L-2,7 L-2,2 Z " fill="#D5D5D5" transform="translate(8,7)"/>
<path d="M0,0 L8,0 L11,2 L10,4 L8,3 L1,3 L0,6 L8,8 L8,9 L1,9 L-2,7 L-2,2 Z " fill="#E4E4E4" transform="translate(8,7)"/>
<path d="M0,0 L7,0 L9,4 L6,6 L1,5 L-1,4 Z " fill="#191919" transform="translate(9,9)"/>
</svg>
