<?xml version="1.0" encoding="UTF-8"?>
<svg version="1.1" xmlns="http://www.w3.org/2000/svg" width="28" height="28">
<path d="M0,0 L28,0 L28,28 L0,28 Z " fill="#050505" transform="translate(0,0)"/>
<path d="M0,0 L7,0 L14,3 L14,7 L12,7 L11,5 L8,4 L1,4 L1,7 L2,8 L7,8 L8,6 L11,6 L12,16 L13,20 L10,20 L9,11 L3,12 L-2,9 L-3,8 L-3,2 Z " fill="#E7E7E7" transform="translate(8,7)"/>
<path d="M0,0 L8,1 L12,3 L12,7 L10,7 L9,5 L-1,2 Z " fill="#EDEDED" transform="translate(10,7)"/>
<path d="M0,0 L5,2 L1,4 L-1,5 L-3,8 L-3,2 Z " fill="#C8C8C8" transform="translate(8,7)"/>
</svg>
