<?xml version="1.0" encoding="UTF-8"?>
<svg version="1.1" xmlns="http://www.w3.org/2000/svg" width="28" height="28">
<path d="M0,0 L28,0 L28,28 L0,28 Z " fill="#010101" transform="translate(0,0)"/>
<path d="M0,0 L5,0 L7,3 L6,9 L3,19 L0,20 L3,9 L-2,9 L-3,8 L-3,3 Z " fill="#CDCDCD" transform="translate(12,7)"/>
<path d="M0,0 L3,0 L5,3 L4,9 L1,19 L-2,20 L0,11 L2,6 L1,2 Z " fill="#E4E4E4" transform="translate(14,7)"/>
<path d="M0,0 L5,1 L4,5 L-1,5 Z " fill="#161616" transform="translate(12,9)"/>
<path d="M0,0 L2,4 L0,9 L-2,9 Z " fill="#CBCBCB" transform="translate(14,18)"/>
</svg>
