<?xml version="1.0" encoding="UTF-8"?>
<svg version="1.1" xmlns="http://www.w3.org/2000/svg" width="28" height="28">
<path d="M0,0 L28,0 L28,28 L0,28 Z " fill="#010101" transform="translate(0,0)"/>
<path d="M0,0 L7,0 L9,1 L7,10 L5,19 L2,20 L3,10 L-2,10 L-3,9 L-3,3 Z " fill="#D7D7D7" transform="translate(11,7)"/>
<path d="M0,0 L7,0 L8,2 L6,4 L1,3 L-3,7 L-2,2 Z " fill="#DFDFDF" transform="translate(11,7)"/>
<path d="M0,0 L5,1 L1,6 L-2,6 L-1,1 Z " fill="#181818" transform="translate(12,9)"/>
<path d="M0,0 L2,4 L1,9 L-1,9 Z " fill="#AAAAAA" transform="translate(14,18)"/>
</svg>
