<?xml version="1.0" encoding="UTF-8"?>
<svg version="1.1" xmlns="http://www.w3.org/2000/svg" width="28" height="28">
<path d="M0,0 L28,0 L28,28 L0,28 Z " fill="#020202" transform="translate(0,0)"/>
<path d="M0,0 L5,1 L6,20 L4,20 L2,10 L-5,11 L-6,10 L-6,5 L-3,1 Z " fill="#CBCBCB" transform="translate(14,7)"/>
<path d="M0,0 L2,0 L1,6 L0,7 L-5,7 L-3,2 Z " fill="#161616" transform="translate(14,9)"/>
<path d="M0,0 L1,0 L3,14 L1,14 L0,12 L-1,1 Z " fill="#EFEFEF" transform="translate(17,13)"/>
</svg>
