<?xml version="1.0" encoding="UTF-8"?>
<svg version="1.1" xmlns="http://www.w3.org/2000/svg" width="28" height="28">
<path d="M0,0 L28,0 L28,28 L0,28 Z " fill="#020202" transform="translate(0,0)"/>
<path d="M0,0 L6,1 L8,5 L5,13 L3,20 L1,20 L2,14 L3,10 L-2,10 L-4,7 L-3,2 Z " fill="#D1D1D1" transform="translate(12,7)"/>
<path d="M0,0 L5,0 L4,5 L-1,6 L-1,1 Z " fill="#0C0C0C" transform="translate(12,9)"/>
<path d="M0,0 L1,4 L-1,7 L-1,4 L-7,4 L-7,3 L-1,1 Z " fill="#EFEFEF" transform="translate(17,12)"/>
<path d="M0,0 L2,0 L2,6 L0,7 L-1,1 Z " fill="#C7C7C7" transform="translate(9,9)"/>
</svg>
