<?xml version="1.0" encoding="UTF-8"?>
<svg version="1.1" xmlns="http://www.w3.org/2000/svg" width="28" height="28">
<path d="M0,0 L28,0 L28,28 L0,28 Z " fill="#020202" transform="translate(0,0)"/>
<path d="M0,0 L7,1 L7,3 L1,3 L-3,7 L2,6 L6,5 L4,10 L-3,20 L-6,19 L-3,13 L-2,12 L-8,10 L-7,5 Z " fill="#E9E9E9" transform="translate(15,6)"/>
<path d="M0,0 L7,1 L7,3 L1,3 L-3,8 L0,11 L-7,11 L-8,7 L-3,2 Z " fill="#D3D3D3" transform="translate(15,6)"/>
<path d="M0,0 L7,0 L7,2 L-1,6 L-5,5 Z " fill="#1E1E1E" transform="translate(16,8)"/>
</svg>
