<?xml version="1.0" encoding="UTF-8"?>
<svg version="1.1" xmlns="http://www.w3.org/2000/svg" width="28" height="28">
<path d="M0,0 L28,0 L28,28 L0,28 Z " fill="#010101" transform="translate(0,0)"/>
<path d="M0,0 L4,0 L5,2 L5,13 L2,18 L0,20 L-5,20 L-4,17 L1,16 L3,9 L-2,8 L-3,4 Z " fill="#A6A6A6" transform="translate(13,5)"/>
<path d="M0,0 L4,1 L2,6 L-3,7 L-2,2 Z " fill="#717171" transform="translate(13,5)"/>
<path d="M0,0 L2,1 L2,7 L-5,7 L-4,5 L-1,4 Z " fill="#DBDBDB" transform="translate(16,6)"/>
</svg>
