<?xml version="1.0" encoding="UTF-8"?>
<svg version="1.1" xmlns="http://www.w3.org/2000/svg" width="28" height="28">
<path d="M0,0 L28,0 L28,28 L0,28 Z " fill="#020202" transform="translate(0,0)"/>
<path d="M0,0 L7,0 L10,2 L8,14 L5,20 L3,20 L6,10 L7,8 L5,9 L-2,9 L-3,4 Z " fill="#C1C1C1" transform="translate(10,7)"/>
<path d="M0,0 L1,0 L1,12 L-2,18 L-4,18 L-1,8 L0,6 L-2,7 L-8,7 L-8,6 L-2,4 Z " fill="#D3D3D3" transform="translate(17,9)"/>
<path d="M0,0 L6,0 L4,5 L-1,6 L-2,2 Z " fill="#161616" transform="translate(11,9)"/>
<path d="M0,0 L1,0 L1,6 L-8,7 L-8,6 L-2,4 Z " fill="#E9E9E9" transform="translate(17,9)"/>
</svg>
