<?xml version="1.0" encoding="UTF-8"?>
<svg version="1.1" xmlns="http://www.w3.org/2000/svg" width="28" height="28">
<path d="M0,0 L28,0 L28,28 L0,28 Z " fill="#030303" transform="translate(0,0)"/>
<path d="M0,0 L5,0 L7,4 L2,18 L0,20 L-3,20 L-2,15 L0,11 L-6,12 L-9,11 L-8,6 L-3,1 Z " fill="#EEEEEE" transform="translate(15,6)"/>
<path d="M0,0 L2,1 L1,2 L7,2 L5,6 L-1,9 L0,11 L-6,10 L-5,5 Z " fill="#DDDDDD" transform="translate(12,7)"/>
<path d="M0,0 L3,0 L1,4 L-3,6 L-6,6 L-4,2 Z " fill="#141414" transform="translate(16,9)"/>
</svg>
