<?xml version="1.0" encoding="UTF-8"?>
<svg version="1.1" xmlns="http://www.w3.org/2000/svg" width="28" height="28">
<path d="M0,0 L28,0 L28,28 L0,28 Z " fill="#030303" transform="translate(0,0)"/>
<path d="M0,0 L6,1 L6,3 L8,3 L8,7 L6,7 L6,10 L4,10 L4,12 L2,12 L0,16 L-3,20 L-8,20 L-8,17 L-3,12 L-8,11 L-10,10 L-9,4 L-4,1 Z " fill="#EDEDED" transform="translate(16,6)"/>
<path d="M0,0 L3,1 L3,2 L8,2 L8,5 L0,9 L2,10 L1,13 L1,11 L-4,10 L-6,9 L-5,3 Z " fill="#D2D2D2" transform="translate(12,7)"/>
<path d="M0,0 L5,0 L5,3 L-1,6 L-5,5 L-5,3 Z " fill="#141414" transform="translate(15,9)"/>
</svg>
