<?xml version="1.0" encoding="UTF-8"?>
<svg version="1.1" xmlns="http://www.w3.org/2000/svg" width="28" height="28">
<path d="M0,0 L28,0 L28,28 L0,28 Z " fill="#020202" transform="translate(0,0)"/>
<path d="M0,0 L5,1 L5,7 L-1,18 L-3,20 L-6,19 L-1,11 L-6,11 L-7,10 L-7,5 L-3,1 Z " fill="#EBEBEB" transform="translate(16,6)"/>
<path d="M0,0 L5,1 L4,5 L2,6 L3,2 L-2,4 L-5,9 L-1,10 L-7,10 L-7,5 L-3,1 Z " fill="#EEEEEE" transform="translate(16,6)"/>
<path d="M0,0 L4,0 L2,5 L-4,7 L-3,3 Z " fill="#161616" transform="translate(15,8)"/>
<path d="M0,0 L1,3 L-1,5 L-3,5 L-5,8 L-10,7 L-8,4 L-1,1 Z " fill="#BCBCBC" transform="translate(20,10)"/>
</svg>
