<?xml version="1.0" encoding="UTF-8"?>
<svg version="1.1" xmlns="http://www.w3.org/2000/svg" width="28" height="28">
<path d="M0,0 L28,0 L28,28 L0,28 Z " fill="#020202" transform="translate(0,0)"/>
<path d="M0,0 L5,0 L6,1 L6,7 L9,7 L9,9 L4,10 L3,15 L1,20 L-2,19 L1,10 L-3,9 L-5,7 L-5,3 Z " fill="#E4E4E4" transform="translate(13,6)"/>
<path d="M0,0 L4,0 L4,6 L7,6 L7,8 L2,9 L1,14 L-1,19 L-4,18 L-2,9 L1,8 L1,2 Z " fill="#E8E8E8" transform="translate(15,7)"/>
<path d="M0,0 L2,1 L1,6 L-4,5 L-4,2 Z " fill="#121212" transform="translate(15,8)"/>
<path d="M0,0 L5,0 L2,1 L2,3 L-2,4 L-3,6 L-2,1 Z " fill="#CCCCCC" transform="translate(13,6)"/>
</svg>
