<?xml version="1.0" encoding="UTF-8"?>
<svg version="1.1" xmlns="http://www.w3.org/2000/svg" width="28" height="28">
<path d="M0,0 L28,0 L28,28 L0,28 Z " fill="#020202" transform="translate(0,0)"/>
<path d="M0,0 L5,1 L2,10 L-3,18 L-5,18 L-5,20 L-8,19 L-2,10 L-8,10 L-9,7 L-4,2 Z " fill="#CDCDCD" transform="translate(17,6)"/>
<path d="M0,0 L1,3 L-5,13 L-7,13 L-7,15 L-10,14 L-4,5 L-9,5 L-6,3 Z " fill="#E6E6E6" transform="translate(19,11)"/>
<path d="M0,0 L4,1 L2,1 L1,5 L-6,6 L-1,1 Z " fill="#111111" transform="translate(16,8)"/>
</svg>
