<?xml version="1.0" encoding="UTF-8"?>
<svg version="1.1" xmlns="http://www.w3.org/2000/svg" width="28" height="28">
<path d="M0,0 L28,0 L28,28 L0,28 Z " fill="#030303" transform="translate(0,0)"/>
<path d="M0,0 L5,1 L4,7 L0,13 L-2,13 L-3,17 L-8,20 L-10,20 L-8,16 L-5,12 L-10,12 L-10,8 L-2,1 Z " fill="#E8E8E8" transform="translate(18,5)"/>
<path d="M0,0 L5,1 L4,5 L3,3 L-6,10 L-8,10 L-9,7 L-2,1 Z " fill="#D6D6D6" transform="translate(18,5)"/>
<path d="M0,0 L3,0 L1,4 L-5,8 L-7,8 L-7,6 L-5,6 L-5,4 Z " fill="#1C1C1C" transform="translate(17,7)"/>
</svg>
