<?xml version="1.0" encoding="UTF-8"?>
<svg version="1.1" xmlns="http://www.w3.org/2000/svg" width="28" height="28">
<path d="M0,0 L28,0 L28,28 L0,28 Z " fill="#040404" transform="translate(0,0)"/>
<path d="M0,0 L6,0 L8,4 L4,12 L-1,18 L-3,18 L-3,20 L-7,19 L1,10 L-3,11 L-8,11 L-8,6 Z " fill="#EBEBEB" transform="translate(15,6)"/>
<path d="M0,0 L4,1 L2,6 L-1,9 L-3,11 L-8,11 L-8,6 Z " fill="#D7D7D7" transform="translate(15,6)"/>
<path d="M0,0 L0,3 L-4,7 L-8,7 L-6,3 Z " fill="#1B1B1B" transform="translate(18,7)"/>
</svg>
