<?xml version="1.0" encoding="UTF-8"?>
<svg version="1.1" xmlns="http://www.w3.org/2000/svg" width="28" height="28">
<path d="M0,0 L28,0 L28,28 L0,28 Z " fill="#020202" transform="translate(0,0)"/>
<path d="M0,0 L6,0 L7,6 L2,16 L0,20 L1,13 L-5,13 L-6,12 L-6,6 L-2,1 Z " fill="#080808" transform="translate(14,6)"/>
<path d="M0,0 L6,0 L6,5 L4,2 L-1,4 L-3,6 L-4,11 L3,9 L6,9 L2,16 L0,20 L1,13 L-5,13 L-6,12 L-6,6 L-2,1 Z " fill="#DEDEDE" transform="translate(14,6)"/>
<path d="M0,0 L6,0 L6,5 L4,2 L-1,4 L-3,6 L-4,11 L-6,7 L-3,2 Z " fill="#C3C3C3" transform="translate(14,6)"/>
</svg>
