<?xml version="1.0" encoding="UTF-8"?>
<svg version="1.1" xmlns="http://www.w3.org/2000/svg" width="28" height="28">
<path d="M0,0 L28,0 L28,28 L0,28 Z " fill="#030303" transform="translate(0,0)"/>
<path d="M0,0 L7,0 L11,1 L8,10 L5,20 L3,20 L4,13 L5,9 L-2,10 L-3,6 L-3,3 Z " fill="#E3E3E3" transform="translate(11,7)"/>
<path d="M0,0 L3,1 L2,3 L6,2 L5,7 L3,10 L-2,10 L-3,6 L-3,3 Z " fill="#E1E1E1" transform="translate(11,7)"/>
<path d="M0,0 L2,0 L1,5 L-5,7 L-4,3 Z " fill="#1A1A1A" transform="translate(15,9)"/>
</svg>
