<?xml version="1.0" encoding="UTF-8"?>
<svg version="1.1" xmlns="http://www.w3.org/2000/svg" width="28" height="28">
<path d="M0,0 L28,0 L28,28 L0,28 Z " fill="#020202" transform="translate(0,0)"/>
<path d="M0,0 L4,1 L4,5 L6,5 L5,9 L3,13 L1,13 L-1,19 L-5,20 L-4,15 L-1,11 L-8,10 L-8,5 L-3,1 Z " fill="#CFCFCF" transform="translate(16,6)"/>
<path d="M0,0 L4,1 L4,5 L2,5 L2,3 L-3,5 L-6,9 L-2,10 L-8,10 L-8,5 L-3,1 Z " fill="#E4E4E4" transform="translate(16,6)"/>
<path d="M0,0 L4,0 L4,2 L6,3 L2,5 L-3,5 L-1,1 Z " fill="#101010" transform="translate(14,9)"/>
<path d="M0,0 L1,2 L-2,8 L-6,9 L-5,4 Z " fill="#EBEBEB" transform="translate(17,17)"/>
</svg>
