<?xml version="1.0" encoding="UTF-8"?>
<svg version="1.1" xmlns="http://www.w3.org/2000/svg" width="28" height="28">
<path d="M0,0 L28,0 L28,28 L0,28 Z " fill="#020202" transform="translate(0,0)"/>
<path d="M0,0 L5,1 L5,9 L-1,20 L-4,20 L-3,15 L0,9 L-7,10 L-6,4 L-3,1 Z " fill="#D2D2D2" transform="translate(15,6)"/>
<path d="M0,0 L2,0 L2,5 L-3,14 L-6,14 L-5,9 Z " fill="#F4F4F4" transform="translate(17,12)"/>
<path d="M0,0 L5,1 L4,5 L0,4 L-7,8 L-5,3 Z " fill="#EBEBEB" transform="translate(15,6)"/>
<path d="M0,0 L1,3 L-1,7 L-4,7 L-3,2 Z " fill="#D5D5D5" transform="translate(15,19)"/>
<path d="M0,0 L4,1 L0,4 L-4,5 L-2,1 Z " fill="#2A2A2A" transform="translate(15,9)"/>
</svg>
