<?xml version="1.0" encoding="UTF-8"?>
<svg version="1.1" xmlns="http://www.w3.org/2000/svg" width="28" height="28">
<path d="M0,0 L28,0 L28,28 L0,28 Z " fill="#020202" transform="translate(0,0)"/>
<path d="M0,0 L5,0 L6,3 L-3,5 L-5,6 L0,5 L3,4 L5,5 L5,12 L1,20 L-2,20 L-1,14 L0,9 L-8,9 L-8,5 Z " fill="#D1D1D1" transform="translate(15,6)"/>
<path d="M0,0 L3,0 L3,7 L-1,15 L-4,15 L-3,9 L-2,2 Z " fill="#E7E7E7" transform="translate(17,11)"/>
<path d="M0,0 L4,0 L3,2 L-2,4 L-6,3 Z " fill="#1F1F1F" transform="translate(15,9)"/>
</svg>
