<?xml version="1.0" encoding="UTF-8"?>
<svg version="1.1" xmlns="http://www.w3.org/2000/svg" width="28" height="28">
<path d="M0,0 L28,0 L28,28 L0,28 Z " fill="#000000" transform="translate(0,0)"/>
<path d="M0,0 L5,1 L7,3 L7,9 L5,19 L1,20 L0,16 L1,12 L-4,11 L-5,10 L-5,4 Z " fill="#DFDFDF" transform="translate(13,6)"/>
<path d="M0,0 L2,1 L1,5 L-3,6 L-2,1 Z " fill="#0B0B0B" transform="translate(15,8)"/>
<path d="M0,0 L2,1 L1,7 L3,8 L0,8 L-1,4 L-3,5 L-1,1 Z " fill="#B2B2B2" transform="translate(11,7)"/>
</svg>
