<?xml version="1.0" encoding="UTF-8"?>
<svg version="1.1" xmlns="http://www.w3.org/2000/svg" width="28" height="28">
<path d="M0,0 L28,0 L28,28 L0,28 Z " fill="#020202" transform="translate(0,0)"/>
<path d="M0,0 L5,1 L6,7 L1,17 L-3,20 L-1,15 L1,11 L-5,11 L-6,7 L-2,1 Z " fill="#DADADA" transform="translate(14,6)"/>
<path d="M0,0 L3,0 L3,5 L-1,8 L-4,7 L-2,2 Z " fill="#0D0D0D" transform="translate(14,8)"/>
<path d="M0,0 L2,0 L3,4 L-2,10 L-3,8 L0,3 Z " fill="#CBCBCB" transform="translate(14,16)"/>
</svg>
