<?xml version="1.0" encoding="UTF-8"?>
<svg version="1.1" xmlns="http://www.w3.org/2000/svg" width="28" height="28">
<path d="M0,0 L28,0 L28,28 L0,28 Z " fill="#020202" transform="translate(0,0)"/>
<path d="M0,0 L5,1 L6,6 L-2,19 L-6,20 L-4,16 L-2,13 L-8,10 L-7,6 Z " fill="#DADADA" transform="translate(15,6)"/>
<path d="M0,0 L2,0 L2,5 L-2,8 L-7,8 L-6,4 Z " fill="#111111" transform="translate(16,8)"/>
<path d="M0,0 L2,0 L0,5 L-2,6 L-2,4 L-6,5 L-6,3 Z " fill="#F0F0F0" transform="translate(17,13)"/>
</svg>
