<?xml version="1.0" encoding="UTF-8"?>
<svg version="1.1" xmlns="http://www.w3.org/2000/svg" width="28" height="28">
<path d="M0,0 L28,0 L28,28 L0,28 Z " fill="#010101" transform="translate(0,0)"/>
<path d="M0,0 L5,1 L5,3 L-1,5 L-5,9 L1,6 L3,6 L2,10 L-3,20 L-6,20 L-5,16 L-3,12 L-8,11 L-7,6 Z " fill="#E6E6E6" transform="translate(16,6)"/>
<path d="M0,0 L5,1 L5,3 L-1,5 L-4,7 L-4,10 L-8,11 L-7,6 Z " fill="#D0D0D0" transform="translate(16,6)"/>
<path d="M0,0 L2,1 L3,3 L-3,6 L-5,6 L-3,2 Z " fill="#1C1C1C" transform="translate(16,9)"/>
</svg>
