<?xml version="1.0" encoding="UTF-8"?>
<svg version="1.1" xmlns="http://www.w3.org/2000/svg" width="28" height="28">
<path d="M0,0 L28,0 L28,28 L0,28 Z " fill="#020202" transform="translate(0,0)"/>
<path d="M0,0 L5,0 L6,5 L-1,16 L-4,20 L-7,19 L-3,13 L-1,10 L-4,10 L-4,5 Z " fill="#E8E8E8" transform="translate(15,6)"/>
<path d="M0,0 L5,0 L6,5 L4,7 L-2,8 L-2,2 Z " fill="#DEDEDE" transform="translate(15,6)"/>
<path d="M0,0 L2,0 L2,3 L-2,6 L-4,6 L-2,2 Z " fill="#1D1D1D" transform="translate(17,8)"/>
</svg>
