<?xml version="1.0" encoding="UTF-8"?>
<svg version="1.1" xmlns="http://www.w3.org/2000/svg" width="28" height="28">
<path d="M0,0 L28,0 L28,28 L0,28 Z " fill="#020202" transform="translate(0,0)"/>
<path d="M0,0 L8,1 L10,5 L6,13 L7,17 L9,19 L5,20 L3,18 L3,12 L-4,13 L-6,11 L-5,4 Z " fill="#D9D9D9" transform="translate(12,6)"/>
<path d="M0,0 L1,3 L-1,8 L0,12 L2,14 L-2,15 L-4,13 L-4,7 L-11,8 L-12,3 L-11,5 L-5,4 Z " fill="#DFDFDF" transform="translate(19,11)"/>
<path d="M0,0 L5,0 L4,5 L-2,8 L-5,7 L-3,2 Z " fill="#0E0E0E" transform="translate(13,9)"/>
<path d="M0,0 L4,1 L5,4 L3,6 L1,5 L1,2 L-3,1 Z " fill="#C3C3C3" transform="translate(17,7)"/>
</svg>
