<?xml version="1.0" encoding="UTF-8"?>
<svg version="1.1" xmlns="http://www.w3.org/2000/svg" width="28" height="28">
<path d="M0,0 L28,0 L28,28 L0,28 Z " fill="#010101" transform="translate(0,0)"/>
<path d="M0,0 L5,1 L7,6 L5,11 L3,19 L1,20 L1,13 L-4,12 L-5,6 Z " fill="#EDEDED" transform="translate(13,6)"/>
<path d="M0,0 L1,0 L1,10 L-2,13 L-2,5 L-4,4 L-2,4 Z " fill="#EEEEEE" transform="translate(16,13)"/>
<path d="M0,0 L3,1 L0,8 L-3,8 L-2,2 Z " fill="#1F1F1F" transform="translate(14,8)"/>
<path d="M0,0 L1,0 L1,5 L4,6 L4,8 L-1,7 L-2,1 Z " fill="#C6C6C6" transform="translate(10,11)"/>
<path d="M0,0 L2,4 L0,9 L-3,6 L-2,2 L0,2 Z " fill="#CCCCCC" transform="translate(18,8)"/>
</svg>
