<?xml version="1.0" encoding="UTF-8"?>
<svg version="1.1" xmlns="http://www.w3.org/2000/svg" width="28" height="28">
<path d="M0,0 L28,0 L28,28 L0,28 Z " fill="#010101" transform="translate(0,0)"/>
<path d="M0,0 L5,1 L6,2 L5,20 L2,20 L2,14 L-4,14 L-6,12 L-6,5 Z " fill="#D2D2D2" transform="translate(14,5)"/>
<path d="M0,0 L3,1 L2,9 L-3,11 L-5,9 L-4,4 Z " fill="#131313" transform="translate(15,7)"/>
<path d="M0,0 L2,0 L2,12 L0,12 L0,5 L-2,4 Z " fill="#F7F7F7" transform="translate(17,13)"/>
</svg>
