<?xml version="1.0" encoding="UTF-8"?>
<svg version="1.1" xmlns="http://www.w3.org/2000/svg" width="28" height="28">
<path d="M0,0 L28,0 L28,28 L0,28 Z " fill="#030303" transform="translate(0,0)"/>
<path d="M0,0 L6,0 L8,4 L7,11 L1,20 L-1,20 L1,14 L5,8 L2,10 L-6,10 L-6,5 Z " fill="#D0D0D0" transform="translate(13,7)"/>
<path d="M0,0 L4,0 L3,4 L0,4 L0,6 L-5,6 L-3,2 Z " fill="#282828" transform="translate(14,9)"/>
<path d="M0,0 L2,1 L2,5 L-3,5 L-1,1 Z " fill="#080808" transform="translate(12,10)"/>
</svg>
