<?xml version="1.0" encoding="UTF-8"?>
<svg version="1.1" xmlns="http://www.w3.org/2000/svg" width="28" height="28">
<path d="M0,0 L28,0 L28,28 L0,28 Z " fill="#010101" transform="translate(0,0)"/>
<path d="M0,0 L8,0 L10,5 L5,14 L5,20 L1,19 L2,12 L3,8 L-4,8 L-5,4 Z " fill="#EEEEEE" transform="translate(11,7)"/>
<path d="M0,0 L6,0 L5,5 L3,6 L-3,6 L-5,7 L-4,3 Z " fill="#D8D8D8" transform="translate(11,7)"/>
<path d="M0,0 L1,3 L0,10 L-3,11 L-4,10 L-3,3 Z " fill="#D8D8D8" transform="translate(16,16)"/>
<path d="M0,0 L5,0 L4,3 L-3,4 L-3,2 Z " fill="#1D1D1D" transform="translate(12,9)"/>
</svg>
