<?xml version="1.0" encoding="UTF-8"?>
<svg version="1.1" xmlns="http://www.w3.org/2000/svg" width="28" height="28">
<path d="M0,0 L28,0 L28,28 L0,28 Z " fill="#030303" transform="translate(0,0)"/>
<path d="M0,0 L2,1 L1,20 L-1,20 L-2,13 L-7,15 L-8,14 L-8,6 L-5,1 Z " fill="#DADADA" transform="translate(17,6)"/>
<path d="M0,0 L2,1 L1,20 L-1,20 L-1,12 L-3,11 L-2,10 L-1,2 L-3,1 Z " fill="#F4F4F4" transform="translate(17,6)"/>
<path d="M0,0 L3,0 L3,7 L0,10 L-2,10 L-1,2 Z " fill="#191919" transform="translate(13,9)"/>
</svg>
