<?xml version="1.0" encoding="UTF-8"?>
<svg version="1.1" xmlns="http://www.w3.org/2000/svg" width="28" height="28">
<path d="M0,0 L28,0 L28,28 L0,28 Z " fill="#030303" transform="translate(0,0)"/>
<path d="M0,0 L8,0 L9,15 L11,15 L10,20 L8,20 L7,18 L7,4 L5,4 L4,9 L0,12 L-8,12 L-9,6 L-4,2 Z " fill="#D6D6D6" transform="translate(12,7)"/>
<path d="M0,0 L5,0 L2,7 L-2,9 L-7,8 L-6,4 Z " fill="#141414" transform="translate(12,9)"/>
<path d="M0,0 L2,0 L2,7 L4,7 L3,12 L1,12 L0,10 Z " fill="#CBCBCB" transform="translate(19,15)"/>
<path d="M0,0 L3,0 L3,7 L2,3 L0,3 L-1,6 Z " fill="#F7F7F7" transform="translate(17,8)"/>
</svg>
