<?xml version="1.0" encoding="UTF-8"?>
<svg version="1.1" xmlns="http://www.w3.org/2000/svg" width="28" height="28">
<path d="M0,0 L28,0 L28,28 L0,28 Z " fill="#040404" transform="translate(0,0)"/>
<path d="M0,0 L9,1 L14,2 L15,12 L17,17 L13,16 L11,13 L3,13 L-2,8 L-3,4 Z " fill="#E0E0E0" transform="translate(7,7)"/>
<path d="M0,0 L10,1 L11,11 L13,16 L9,15 L7,12 L0,11 L3,9 L5,7 L4,3 L0,1 Z " fill="#EDEDED" transform="translate(11,8)"/>
<path d="M0,0 L7,0 L9,6 L8,7 L2,7 L-1,3 Z " fill="#101010" transform="translate(8,10)"/>
</svg>
