<?xml version="1.0" encoding="UTF-8"?>
<svg version="1.1" xmlns="http://www.w3.org/2000/svg" width="28" height="28">
<path d="M0,0 L28,0 L28,28 L0,28 Z " fill="#050505" transform="translate(0,0)"/>
<path d="M0,0 L10,0 L13,2 L14,11 L11,16 L7,18 L1,18 L-1,13 L10,13 L10,8 L5,10 L-4,9 L-6,6 L-3,1 Z " fill="#E7E7E7" transform="translate(9,6)"/>
<path d="M0,0 L5,0 L6,3 L0,5 L-5,5 L-6,2 Z " fill="#141414" transform="translate(12,8)"/>
<path d="M0,0 L2,1 L3,3 L-5,4 L-3,1 Z " fill="#C2C2C2" transform="translate(9,6)"/>
</svg>
