<?xml version="1.0" encoding="UTF-8"?>
<svg version="1.1" xmlns="http://www.w3.org/2000/svg" width="28" height="28">
<path d="M0,0 L28,0 L28,28 L0,28 Z " fill="#000000" transform="translate(0,0)"/>
<path d="M0,0 L7,1 L8,2 L9,18 L7,20 L2,20 L1,17 L6,17 L6,9 L0,10 L-3,7 L-2,2 Z " fill="#D8D8D8" transform="translate(11,6)"/>
<path d="M0,0 L2,0 L2,5 L0,7 L-5,7 L-6,4 L-1,3 Z " fill="#E4E4E4" transform="translate(18,19)"/>
<path d="M0,0 L3,0 L2,5 L-1,5 Z " fill="#070707" transform="translate(12,8)"/>
<path d="M0,0 L2,1 L0,7 L-3,7 L-2,2 Z " fill="#D2D2D2" transform="translate(11,6)"/>
</svg>
