<?xml version="1.0" encoding="UTF-8"?>
<svg version="1.1" xmlns="http://www.w3.org/2000/svg" width="28" height="28">
<path d="M0,0 L28,0 L28,28 L0,28 Z " fill="#010101" transform="translate(0,0)"/>
<path d="M0,0 L8,0 L10,1 L9,20 L6,19 L6,8 L-2,7 L-1,2 Z " fill="#BBBBBB" transform="translate(9,6)"/>
<path d="M0,0 L1,4 L6,4 L7,2 L9,2 L10,18 L7,17 L7,6 L-1,5 Z " fill="#F1F1F1" transform="translate(8,8)"/>
<path d="M0,0 L5,0 L6,2 L3,2 L3,6 L-1,5 Z " fill="#141414" transform="translate(11,7)"/>
</svg>
