<?xml version="1.0" encoding="UTF-8"?>
<svg version="1.1" xmlns="http://www.w3.org/2000/svg" width="28" height="28">
<path d="M0,0 L28,0 L28,28 L0,28 Z " fill="#010101" transform="translate(0,0)"/>
<path d="M0,0 L5,1 L4,3 L-2,3 L-3,6 L0,6 L1,3 L3,3 L3,16 L2,20 L-1,19 L1,8 L-5,8 L-6,4 L-4,1 Z " fill="#E5E5E5" transform="translate(14,7)"/>
<path d="M0,0 L5,1 L4,3 L-2,3 L-3,6 L-1,7 L-5,8 L-6,4 L-4,1 Z " fill="#B8B8B8" transform="translate(14,7)"/>
<path d="M0,0 L1,0 L0,10 L-3,9 L-2,5 L0,5 Z " fill="#C2C2C2" transform="translate(16,17)"/>
</svg>
