<?xml version="1.0" encoding="UTF-8"?>
<svg version="1.1" xmlns="http://www.w3.org/2000/svg" width="28" height="28">
<path d="M0,0 L28,0 L28,28 L0,28 Z " fill="#030303" transform="translate(0,0)"/>
<path d="M0,0 L6,0 L7,3 L6,20 L4,19 L3,10 L-4,10 L-6,6 L-4,2 L-2,2 L-3,8 L1,7 L3,3 L-1,1 Z " fill="#E7E7E7" transform="translate(12,7)"/>
<path d="M0,0 L6,0 L7,3 L6,10 L5,10 L5,2 L-1,2 Z " fill="#B3B3B3" transform="translate(12,7)"/>
<path d="M0,0 L2,0 L1,6 L3,7 L0,8 L-2,4 Z " fill="#ADADAD" transform="translate(8,9)"/>
</svg>
