<?xml version="1.0" encoding="UTF-8"?>
<svg version="1.1" xmlns="http://www.w3.org/2000/svg" width="28" height="28">
<path d="M0,0 L28,0 L28,28 L0,28 Z " fill="#020202" transform="translate(0,0)"/>
<path d="M0,0 L5,0 L4,3 L-1,5 L-2,11 L3,9 L5,3 L7,4 L7,20 L5,20 L5,13 L-1,14 L-5,10 L-5,4 Z " fill="#E7E7E7" transform="translate(13,6)"/>
<path d="M0,0 L1,2 L-2,9 L-7,10 L-7,4 Z " fill="#1D1D1D" transform="translate(18,7)"/>
<path d="M0,0 L3,2 L3,9 L0,6 Z " fill="#BFBFBF" transform="translate(8,10)"/>
</svg>
