<?xml version="1.0" encoding="UTF-8"?>
<svg version="1.1" xmlns="http://www.w3.org/2000/svg" width="28" height="28">
<path d="M0,0 L28,0 L28,28 L0,28 Z " fill="#020202" transform="translate(0,0)"/>
<path d="M0,0 L5,0 L6,8 L5,20 L3,20 L3,10 L1,11 L-5,11 L-6,6 L-2,1 Z " fill="#DBDBDB" transform="translate(13,6)"/>
<path d="M0,0 L4,0 L3,5 L2,6 L-3,6 L-3,2 Z " fill="#090909" transform="translate(12,9)"/>
<path d="M0,0 L4,2 L3,6 L3,3 L-3,5 L-3,2 Z " fill="#BEBEBE" transform="translate(13,6)"/>
</svg>
