<?xml version="1.0" encoding="UTF-8"?>
<svg version="1.1" xmlns="http://www.w3.org/2000/svg" width="28" height="28">
<path d="M0,0 L28,0 L28,28 L0,28 Z " fill="#010101" transform="translate(0,0)"/>
<path d="M0,0 L7,1 L6,12 L5,19 L2,20 L3,9 L-5,9 L-6,6 L-2,1 Z " fill="#D9D9D9" transform="translate(12,7)"/>
<path d="M0,0 L5,0 L4,4 L0,3 L-3,5 L-4,8 L-1,9 L-6,8 L-4,3 Z " fill="#E0E0E0" transform="translate(12,7)"/>
<path d="M0,0 L4,0 L2,4 L-1,6 L-4,6 L-3,2 Z " fill="#1B1B1B" transform="translate(12,9)"/>
<path d="M0,0 L2,4 L2,10 L-1,11 Z " fill="#C0C0C0" transform="translate(15,16)"/>
</svg>
