<?xml version="1.0" encoding="UTF-8"?>
<svg version="1.1" xmlns="http://www.w3.org/2000/svg" width="28" height="28">
<path d="M0,0 L28,0 L28,28 L0,28 Z " fill="#030303" transform="translate(0,0)"/>
<path d="M0,0 L6,0 L9,3 L9,9 L2,17 L-1,20 L-3,20 L-2,16 L2,12 L-5,9 L-5,4 L-3,1 Z " fill="#ECECEC" transform="translate(13,6)"/>
<path d="M0,0 L1,0 L1,5 L-8,14 L-10,14 L-9,10 Z " fill="#F3F3F3" transform="translate(20,12)"/>
<path d="M0,0 L5,1 L4,5 L1,7 L-3,7 L-2,3 Z " fill="#0F0F0F" transform="translate(14,8)"/>
<path d="M0,0 L5,1 L7,3 L7,9 L5,7 L2,11 L0,10 L0,8 L3,6 L3,3 L-1,1 Z " fill="#CDCDCD" transform="translate(15,6)"/>
</svg>
