<?xml version="1.0" encoding="UTF-8"?>
<svg version="1.1" xmlns="http://www.w3.org/2000/svg" width="28" height="28">
<path d="M0,0 L28,0 L28,28 L0,28 Z " fill="#010101" transform="translate(0,0)"/>
<path d="M0,0 L5,0 L8,5 L6,9 L4,9 L2,13 L-2,20 L-6,19 L-2,12 L-7,10 L-8,5 L-3,1 Z " fill="#DDDDDD" transform="translate(15,6)"/>
<path d="M0,0 L5,0 L5,6 L4,3 L-3,5 L-4,10 L-8,9 L-7,4 L-3,1 Z " fill="#EDEDED" transform="translate(15,6)"/>
<path d="M0,0 L5,0 L4,4 L0,6 L-4,6 L-3,2 Z " fill="#191919" transform="translate(14,9)"/>
</svg>
