<?xml version="1.0" encoding="UTF-8"?>
<svg version="1.1" xmlns="http://www.w3.org/2000/svg" width="28" height="28">
<path d="M0,0 L28,0 L28,28 L0,28 Z " fill="#010101" transform="translate(0,0)"/>
<path d="M0,0 L7,0 L11,4 L10,8 L9,9 L9,20 L6,19 L5,10 L0,11 L-4,9 L-5,5 Z " fill="#C7C7C7" transform="translate(10,7)"/>
<path d="M0,0 L4,2 L5,6 L3,8 L3,19 L0,18 L-1,9 L-6,10 L-7,7 L-1,7 Z " fill="#E1E1E1" transform="translate(16,8)"/>
<path d="M0,0 L3,0 L3,7 L-3,6 L-4,2 Z " fill="#131313" transform="translate(12,9)"/>
</svg>
