<?xml version="1.0" encoding="UTF-8"?>
<svg version="1.1" xmlns="http://www.w3.org/2000/svg" width="28" height="28">
<path d="M0,0 L28,0 L28,28 L0,28 Z " fill="#030303" transform="translate(0,0)"/>
<path d="M0,0 L3,1 L5,7 L5,18 L3,20 L2,19 L1,10 L-4,13 L-9,12 L-10,8 L-9,5 L-7,5 L-7,3 Z " fill="#F0F0F0" transform="translate(16,6)"/>
<path d="M0,0 L2,1 L0,4 L5,3 L3,8 L2,11 L-3,12 L-6,10 L-5,4 L-3,4 L-3,2 Z " fill="#DEDEDE" transform="translate(12,7)"/>
<path d="M0,0 L4,1 L-2,6 L-3,4 Z " fill="#1F1F1F" transform="translate(13,10)"/>
</svg>
