<?xml version="1.0" encoding="UTF-8"?>
<svg version="1.1" xmlns="http://www.w3.org/2000/svg" width="28" height="28">
<path d="M0,0 L28,0 L28,28 L0,28 Z " fill="#020202" transform="translate(0,0)"/>
<path d="M0,0 L8,1 L9,2 L10,11 L12,17 L12,20 L9,20 L7,11 L-1,8 L-2,3 Z " fill="#E6E6E6" transform="translate(9,7)"/>
<path d="M0,0 L4,1 L1,1 L1,3 L6,3 L6,8 L0,9 L-2,6 L-1,1 Z " fill="#D3D3D3" transform="translate(9,7)"/>
<path d="M0,0 L5,0 L5,5 L1,4 Z " fill="#171717" transform="translate(10,10)"/>
</svg>
