<?xml version="1.0" encoding="UTF-8"?>
<svg version="1.1" xmlns="http://www.w3.org/2000/svg" width="28" height="28">
<path d="M0,0 L28,0 L28,28 L0,28 Z " fill="#020202" transform="translate(0,0)"/>
<path d="M0,0 L5,1 L6,2 L8,13 L10,17 L10,20 L5,19 L0,16 L-3,14 L-3,12 L2,14 L6,16 L4,10 L-3,10 L-4,5 Z " fill="#F1F1F1" transform="translate(12,5)"/>
<path d="M0,0 L2,3 L5,10 L5,13 L0,12 L-5,9 L-8,7 L-8,5 L-3,7 L1,9 L0,7 Z " fill="#DEDEDE" transform="translate(17,12)"/>
<path d="M0,0 L2,1 L3,2 L3,7 L-2,8 L-3,3 Z " fill="#878787" transform="translate(12,5)"/>
<path d="M0,0 L5,0 L7,6 L2,4 L-2,1 Z " fill="#181818" transform="translate(11,15)"/>
</svg>
