<?xml version="1.0" encoding="UTF-8"?>
<svg version="1.1" xmlns="http://www.w3.org/2000/svg" width="28" height="28">
<path d="M0,0 L28,0 L28,28 L0,28 Z " fill="#020202" transform="translate(0,0)"/>
<path d="M0,0 L7,0 L8,1 L9,19 L6,18 L6,9 L0,9 L-3,7 L-2,2 Z " fill="#E9E9E9" transform="translate(10,7)"/>
<path d="M0,0 L3,0 L2,5 L-3,5 L-3,1 Z " fill="#141414" transform="translate(13,9)"/>
<path d="M0,0 L2,1 L3,3 L0,4 L0,6 L4,8 L0,9 L-3,7 L-2,2 Z " fill="#D0D0D0" transform="translate(10,7)"/>
</svg>
