<?xml version="1.0" encoding="UTF-8"?>
<svg version="1.1" xmlns="http://www.w3.org/2000/svg" width="28" height="28">
<path d="M0,0 L28,0 L28,28 L0,28 Z " fill="#020202" transform="translate(0,0)"/>
<path d="M0,0 L6,0 L8,4 L7,9 L3,14 L0,20 L-2,20 L-1,16 L2,10 L-3,10 L-5,8 L-4,3 Z " fill="#EEEEEE" transform="translate(13,7)"/>
<path d="M0,0 L5,0 L3,6 L-2,6 L-2,2 Z " fill="#1F1F1F" transform="translate(13,9)"/>
<path d="M0,0 L6,0 L7,5 L4,4 L0,3 L-4,5 L-5,8 L-4,3 Z " fill="#C8C8C8" transform="translate(13,7)"/>
<path d="M0,0 L5,1 L3,5 L0,11 L-2,11 L-1,7 L2,1 Z " fill="#D2D2D2" transform="translate(13,16)"/>
</svg>
