<?xml version="1.0" encoding="UTF-8"?>
<svg version="1.1" xmlns="http://www.w3.org/2000/svg" width="28" height="28">
<path d="M0,0 L28,0 L28,28 L0,28 Z " fill="#010101" transform="translate(0,0)"/>
<path d="M0,0 L7,0 L9,2 L8,10 L3,20 L0,20 L1,16 L3,11 L-3,10 L-3,2 Z " fill="#D2D2D2" transform="translate(11,6)"/>
<path d="M0,0 L2,0 L1,8 L-4,18 L-7,18 L-6,14 L-3,8 L-5,7 L-2,3 L0,3 Z " fill="#E0E0E0" transform="translate(18,8)"/>
<path d="M0,0 L6,0 L5,4 L3,6 L-1,6 Z " fill="#060606" transform="translate(11,8)"/>
<path d="M0,0 L1,3 L5,4 L5,6 L-1,5 Z " fill="#BABABA" transform="translate(9,11)"/>
</svg>
