<?xml version="1.0" encoding="UTF-8"?>
<svg version="1.1" xmlns="http://www.w3.org/2000/svg" width="28" height="28">
<path d="M0,0 L28,0 L28,28 L0,28 Z " fill="#030303" transform="translate(0,0)"/>
<path d="M0,0 L5,0 L5,6 L-1,15 L-5,20 L-8,20 L-6,16 L-2,11 L-8,11 L-9,10 L-9,5 Z " fill="#EFEFEF" transform="translate(16,6)"/>
<path d="M0,0 L3,1 L2,5 L-4,9 L-4,11 L-9,10 L-9,5 Z " fill="#D6D6D6" transform="translate(16,6)"/>
<path d="M0,0 L3,0 L1,4 L-3,9 L-6,9 L-4,5 Z " fill="#D6D6D6" transform="translate(14,17)"/>
<path d="M0,0 L0,3 L-4,6 L-9,6 L-4,1 Z " fill="#101010" transform="translate(18,8)"/>
</svg>
