<?xml version="1.0" encoding="UTF-8"?>
<svg version="1.1" xmlns="http://www.w3.org/2000/svg" width="28" height="28">
<path d="M0,0 L28,0 L28,28 L0,28 Z " fill="#030303" transform="translate(0,0)"/>
<path d="M0,0 L5,0 L8,4 L6,20 L3,19 L4,10 L-2,11 L-6,8 L-5,3 Z " fill="#DFDFDF" transform="translate(12,6)"/>
<path d="M0,0 L5,1 L4,5 L3,6 L-2,6 L-2,2 Z " fill="#0F0F0F" transform="translate(12,8)"/>
<path d="M0,0 L5,0 L7,4 L0,3 L-4,5 L-6,8 L-5,3 Z " fill="#CECECE" transform="translate(12,6)"/>
<path d="M0,0 L1,0 L1,9 L-2,8 L-1,1 Z " fill="#F6F6F6" transform="translate(17,17)"/>
</svg>
