<?xml version="1.0" encoding="UTF-8"?>
<svg version="1.1" xmlns="http://www.w3.org/2000/svg" width="28" height="28">
<path d="M0,0 L28,0 L28,28 L0,28 Z " fill="#020202" transform="translate(0,0)"/>
<path d="M0,0 L6,0 L7,3 L0,14 L-2,17 L-4,17 L-5,20 L-7,20 L-5,16 L0,9 L-5,7 L-4,2 Z " fill="#D2D2D2" transform="translate(15,7)"/>
<path d="M0,0 L3,0 L1,6 L-4,13 L-6,13 L-7,16 L-9,16 L-7,12 L-1,4 L-3,2 Z " fill="#E2E2E2" transform="translate(17,11)"/>
<path d="M0,0 L6,0 L2,4 L-2,4 Z " fill="#111111" transform="translate(14,9)"/>
</svg>
