<?xml version="1.0" encoding="UTF-8"?>
<svg version="1.1" xmlns="http://www.w3.org/2000/svg" width="28" height="28">
<path d="M0,0 L28,0 L28,28 L0,28 Z " fill="#010101" transform="translate(0,0)"/>
<path d="M0,0 L3,0 L2,7 L-5,17 L-8,20 L-11,20 L-11,17 L-9,17 L-7,12 L-5,12 L-3,6 Z " fill="#D7D7D7" transform="translate(18,4)"/>
<path d="M0,0 L3,0 L2,7 L-1,7 L-3,8 L-1,3 Z " fill="#C4C4C4" transform="translate(18,4)"/>
<path d="M0,0 L1,3 L0,5 L-5,7 L-3,3 Z M-6,7 Z " fill="#F6F6F6" transform="translate(18,9)"/>
</svg>
