<?xml version="1.0" encoding="UTF-8"?>
<svg version="1.1" xmlns="http://www.w3.org/2000/svg" width="28" height="28">
<path d="M0,0 L28,0 L28,28 L0,28 Z " fill="#010101" transform="translate(0,0)"/>
<path d="M0,0 L3,1 L2,17 L5,18 L5,20 L-4,20 L-3,17 L0,17 L-1,8 L-3,8 L-4,11 L-6,11 L-4,7 Z " fill="#D0D0D0" transform="translate(14,4)"/>
<path d="M0,0 L1,3 L3,3 L3,14 L2,14 L1,5 L-1,5 L-2,8 L-4,8 L-2,4 Z " fill="#B8B8B8" transform="translate(12,7)"/>
<path d="M0,0 L3,1 L2,7 L-1,6 Z " fill="#F2F2F2" transform="translate(14,4)"/>
</svg>
